solid OpenSCAD_Model
  facet normal 1 0 0
    outer loop
      vertex 374.75 104.022 180.5
      vertex 374.75 108 184
      vertex 374.75 104.022 184
    endloop
  endfacet
  facet normal 1 0 0
    outer loop
      vertex 374.75 108 184
      vertex 374.75 104.022 180.5
      vertex 374.75 108 171
    endloop
  endfacet
  facet normal 1 0 0
    outer loop
      vertex 374.75 101.849 171
      vertex 374.75 104.022 180.5
      vertex 374.75 101.849 180.5
    endloop
  endfacet
  facet normal 1 0 0
    outer loop
      vertex 374.75 104.022 180.5
      vertex 374.75 101.849 171
      vertex 374.75 108 171
    endloop
  endfacet
  facet normal 0 0 1
    outer loop
      vertex 370.28 97.5247 184
      vertex 364.152 92.9356 184
      vertex 364.25 92 184
    endloop
  endfacet
  facet normal 0 0 1
    outer loop
      vertex 368.5 98.1029 184
      vertex 363.861 93.8303 184
      vertex 364.152 92.9356 184
    endloop
  endfacet
  facet normal 0 0 1
    outer loop
      vertex 368.5 98.1029 184
      vertex 363.391 94.645 184
      vertex 363.861 93.8303 184
    endloop
  endfacet
  facet normal 0 0 1
    outer loop
      vertex 364.25 98.5 184
      vertex 362.761 95.3442 184
      vertex 363.391 94.645 184
    endloop
  endfacet
  facet normal 0 0 1
    outer loop
      vertex 364.25 98.5 184
      vertex 362 95.8971 184
      vertex 362.761 95.3442 184
    endloop
  endfacet
  facet normal 0 0 1
    outer loop
      vertex 364.25 98.5 184
      vertex 361.141 96.2798 184
      vertex 362 95.8971 184
    endloop
  endfacet
  facet normal 0 0 1
    outer loop
      vertex 364.25 98.5 184
      vertex 360.22 96.4753 184
      vertex 361.141 96.2798 184
    endloop
  endfacet
  facet normal 0 0 1
    outer loop
      vertex 364.25 98.5 184
      vertex 359.28 96.4753 184
      vertex 360.22 96.4753 184
    endloop
  endfacet
  facet normal -0 0 1
    outer loop
      vertex 354.75 98.5 184
      vertex 359.28 96.4753 184
      vertex 364.25 98.5 184
    endloop
  endfacet
  facet normal 0 0 1
    outer loop
      vertex 355.348 92.9356 184
      vertex 354.75 98.5 184
      vertex 355.25 92 184
    endloop
  endfacet
  facet normal 0 0 1
    outer loop
      vertex 355.639 93.8303 184
      vertex 354.75 98.5 184
      vertex 355.348 92.9356 184
    endloop
  endfacet
  facet normal 0 0 1
    outer loop
      vertex 356.109 94.645 184
      vertex 354.75 98.5 184
      vertex 355.639 93.8303 184
    endloop
  endfacet
  facet normal 0 0 1
    outer loop
      vertex 356.739 95.3442 184
      vertex 354.75 98.5 184
      vertex 356.109 94.645 184
    endloop
  endfacet
  facet normal 0 0 1
    outer loop
      vertex 357.5 95.8971 184
      vertex 354.75 98.5 184
      vertex 356.739 95.3442 184
    endloop
  endfacet
  facet normal 0 0 1
    outer loop
      vertex 358.359 96.2798 184
      vertex 354.75 98.5 184
      vertex 357.5 95.8971 184
    endloop
  endfacet
  facet normal 0 0 1
    outer loop
      vertex 359.28 96.4753 184
      vertex 354.75 98.5 184
      vertex 358.359 96.2798 184
    endloop
  endfacet
  facet normal 0 0 1
    outer loop
      vertex 374.75 108 184
      vertex 374.391 104.645 184
      vertex 374.75 104.022 184
    endloop
  endfacet
  facet normal 0 0 1
    outer loop
      vertex 374.75 108 184
      vertex 373.761 105.344 184
      vertex 374.391 104.645 184
    endloop
  endfacet
  facet normal 0 0 1
    outer loop
      vertex 374.75 108 184
      vertex 373 105.897 184
      vertex 373.761 105.344 184
    endloop
  endfacet
  facet normal 0 0 1
    outer loop
      vertex 374.75 108 184
      vertex 372.141 106.28 184
      vertex 373 105.897 184
    endloop
  endfacet
  facet normal 0 0 1
    outer loop
      vertex 374.75 108 184
      vertex 371.22 106.475 184
      vertex 372.141 106.28 184
    endloop
  endfacet
  facet normal 0 0 1
    outer loop
      vertex 374.75 108 184
      vertex 370.28 106.475 184
      vertex 371.22 106.475 184
    endloop
  endfacet
  facet normal -0 0 1
    outer loop
      vertex 364.25 108 184
      vertex 370.28 106.475 184
      vertex 374.75 108 184
    endloop
  endfacet
  facet normal 0 0 1
    outer loop
      vertex 364.25 98.5 184
      vertex 366.348 102.936 184
      vertex 364.25 108 184
    endloop
  endfacet
  facet normal 0 0 1
    outer loop
      vertex 366.639 103.83 184
      vertex 364.25 108 184
      vertex 366.348 102.936 184
    endloop
  endfacet
  facet normal 0 0 1
    outer loop
      vertex 367.109 104.645 184
      vertex 364.25 108 184
      vertex 366.639 103.83 184
    endloop
  endfacet
  facet normal 0 0 1
    outer loop
      vertex 367.739 105.344 184
      vertex 364.25 108 184
      vertex 367.109 104.645 184
    endloop
  endfacet
  facet normal 0 0 1
    outer loop
      vertex 368.5 105.897 184
      vertex 364.25 108 184
      vertex 367.739 105.344 184
    endloop
  endfacet
  facet normal 0 0 1
    outer loop
      vertex 369.359 106.28 184
      vertex 364.25 108 184
      vertex 368.5 105.897 184
    endloop
  endfacet
  facet normal 0 0 1
    outer loop
      vertex 370.28 106.475 184
      vertex 364.25 108 184
      vertex 369.359 106.28 184
    endloop
  endfacet
  facet normal 0 0 1
    outer loop
      vertex 366.348 102.936 184
      vertex 364.25 98.5 184
      vertex 366.25 102 184
    endloop
  endfacet
  facet normal 0 0 1
    outer loop
      vertex 366.25 102 184
      vertex 364.25 98.5 184
      vertex 366.348 101.064 184
    endloop
  endfacet
  facet normal 0 0 1
    outer loop
      vertex 364.25 98.5 184
      vertex 366.639 100.17 184
      vertex 366.348 101.064 184
    endloop
  endfacet
  facet normal 0 0 1
    outer loop
      vertex 364.25 98.5 184
      vertex 367.109 99.355 184
      vertex 366.639 100.17 184
    endloop
  endfacet
  facet normal 0 0 1
    outer loop
      vertex 364.25 98.5 184
      vertex 367.739 98.6558 184
      vertex 367.109 99.355 184
    endloop
  endfacet
  facet normal 0 0 1
    outer loop
      vertex 363.391 94.645 184
      vertex 367.739 98.6558 184
      vertex 364.25 98.5 184
    endloop
  endfacet
  facet normal 0 0 1
    outer loop
      vertex 367.739 98.6558 184
      vertex 363.391 94.645 184
      vertex 368.5 98.1029 184
    endloop
  endfacet
  facet normal 0 0 1
    outer loop
      vertex 364.152 92.9356 184
      vertex 369.359 97.7202 184
      vertex 368.5 98.1029 184
    endloop
  endfacet
  facet normal 0 0 1
    outer loop
      vertex 364.152 92.9356 184
      vertex 370.28 97.5247 184
      vertex 369.359 97.7202 184
    endloop
  endfacet
  facet normal 0 0 1
    outer loop
      vertex 364.25 92 184
      vertex 370.425 97.5247 184
      vertex 370.28 97.5247 184
    endloop
  endfacet
  facet normal 0 0 1
    outer loop
      vertex 370.425 97.5247 184
      vertex 364.25 92 184
      vertex 364.174 91.2728 184
    endloop
  endfacet
  facet normal 0 0 1
    outer loop
      vertex 357.5 88.1029 184
      vertex 354.75 88 184
      vertex 357.731 88 184
    endloop
  endfacet
  facet normal 0 0 1
    outer loop
      vertex 356.739 88.6558 184
      vertex 354.75 88 184
      vertex 357.5 88.1029 184
    endloop
  endfacet
  facet normal 0 0 1
    outer loop
      vertex 356.109 89.355 184
      vertex 354.75 88 184
      vertex 356.739 88.6558 184
    endloop
  endfacet
  facet normal 0 0 1
    outer loop
      vertex 355.639 90.1697 184
      vertex 354.75 88 184
      vertex 356.109 89.355 184
    endloop
  endfacet
  facet normal 0 0 1
    outer loop
      vertex 355.348 91.0644 184
      vertex 354.75 88 184
      vertex 355.639 90.1697 184
    endloop
  endfacet
  facet normal 0 0 1
    outer loop
      vertex 355.25 92 184
      vertex 354.75 88 184
      vertex 355.348 91.0644 184
    endloop
  endfacet
  facet normal 0 0 1
    outer loop
      vertex 354.75 88 184
      vertex 355.25 92 184
      vertex 354.75 98.5 184
    endloop
  endfacet
  facet normal -1 0 0
    outer loop
      vertex 364.25 98.5 181
      vertex 364.25 108 184
      vertex 364.25 108 181
    endloop
  endfacet
  facet normal -1 -0 0
    outer loop
      vertex 364.25 108 184
      vertex 364.25 98.5 181
      vertex 364.25 98.5 184
    endloop
  endfacet
  facet normal 0 1 0
    outer loop
      vertex 374.75 108 184
      vertex 364.25 108 181
      vertex 364.25 108 184
    endloop
  endfacet
  facet normal 0 1 -0
    outer loop
      vertex 374.75 108 171
      vertex 364.25 108 181
      vertex 374.75 108 184
    endloop
  endfacet
  facet normal 0 1 0
    outer loop
      vertex 361.75 108 171
      vertex 364.25 108 181
      vertex 374.75 108 171
    endloop
  endfacet
  facet normal 0 1 0
    outer loop
      vertex 364.25 108 181
      vertex 361.75 108 171
      vertex 361.75 108 181
    endloop
  endfacet
  facet normal 0 0 -1
    outer loop
      vertex 372.56 102.385 171
      vertex 374.75 101.849 171
      vertex 372.6 102 171
    endloop
  endfacet
  facet normal -0 0 -1
    outer loop
      vertex 374.75 101.849 171
      vertex 372.56 101.615 171
      vertex 372.6 102 171
    endloop
  endfacet
  facet normal 0 0 -1
    outer loop
      vertex 374.75 101.849 171
      vertex 372.44 101.248 171
      vertex 372.56 101.615 171
    endloop
  endfacet
  facet normal 0 0 -1
    outer loop
      vertex 374.75 101.849 171
      vertex 372.247 100.913 171
      vertex 372.44 101.248 171
    endloop
  endfacet
  facet normal 0 0 -1
    outer loop
      vertex 374.75 101.849 171
      vertex 371.988 100.625 171
      vertex 372.247 100.913 171
    endloop
  endfacet
  facet normal 0 0 -1
    outer loop
      vertex 374.75 101.849 171
      vertex 371.675 100.398 171
      vertex 371.988 100.625 171
    endloop
  endfacet
  facet normal -0 0 -1
    outer loop
      vertex 368.94 101.615 171
      vertex 361.75 101.5 171
      vertex 368.9 102 171
    endloop
  endfacet
  facet normal 0 0 -1
    outer loop
      vertex 369.06 101.248 171
      vertex 361.75 101.5 171
      vertex 368.94 101.615 171
    endloop
  endfacet
  facet normal 0 0 -1
    outer loop
      vertex 369.253 100.913 171
      vertex 361.75 101.5 171
      vertex 369.06 101.248 171
    endloop
  endfacet
  facet normal 0 0 -1
    outer loop
      vertex 360.988 93.3748 171
      vertex 369.253 100.913 171
      vertex 369.512 100.625 171
    endloop
  endfacet
  facet normal 0 0 -1
    outer loop
      vertex 361.247 93.0874 171
      vertex 369.512 100.625 171
      vertex 369.825 100.398 171
    endloop
  endfacet
  facet normal 0 0 -1
    outer loop
      vertex 361.44 92.7525 171
      vertex 369.825 100.398 171
      vertex 370.178 100.241 171
    endloop
  endfacet
  facet normal 0 0 -1
    outer loop
      vertex 361.56 92.3846 171
      vertex 370.178 100.241 171
      vertex 370.557 100.16 171
    endloop
  endfacet
  facet normal 0 0 -1
    outer loop
      vertex 361.56 92.3846 171
      vertex 370.557 100.16 171
      vertex 361.6 92 171
    endloop
  endfacet
  facet normal -0 0 -1
    outer loop
      vertex 370.943 100.16 171
      vertex 361.6 92 171
      vertex 370.557 100.16 171
    endloop
  endfacet
  facet normal 0 0 -1
    outer loop
      vertex 361.56 91.6154 171
      vertex 370.943 100.16 171
      vertex 371.322 100.241 171
    endloop
  endfacet
  facet normal 0 0 -1
    outer loop
      vertex 360.901 88 171
      vertex 371.322 100.241 171
      vertex 371.675 100.398 171
    endloop
  endfacet
  facet normal 0 0 -1
    outer loop
      vertex 360.901 88 171
      vertex 371.675 100.398 171
      vertex 374.75 101.849 171
    endloop
  endfacet
  facet normal 0 0 -1
    outer loop
      vertex 370.943 100.16 171
      vertex 361.56 91.6154 171
      vertex 361.6 92 171
    endloop
  endfacet
  facet normal 0 0 -1
    outer loop
      vertex 371.322 100.241 171
      vertex 360.901 88 171
      vertex 361.56 91.6154 171
    endloop
  endfacet
  facet normal 0 0 -1
    outer loop
      vertex 361.56 91.6154 171
      vertex 360.901 88 171
      vertex 361.44 91.2475 171
    endloop
  endfacet
  facet normal 0 0 -1
    outer loop
      vertex 361.44 91.2475 171
      vertex 360.901 88 171
      vertex 361.247 90.9126 171
    endloop
  endfacet
  facet normal 0 0 -1
    outer loop
      vertex 361.247 90.9126 171
      vertex 360.901 88 171
      vertex 360.988 90.6252 171
    endloop
  endfacet
  facet normal 0 0 -1
    outer loop
      vertex 360.901 88 171
      vertex 360.675 90.3979 171
      vertex 360.988 90.6252 171
    endloop
  endfacet
  facet normal 0 0 -1
    outer loop
      vertex 360.901 88 171
      vertex 360.322 90.2405 171
      vertex 360.675 90.3979 171
    endloop
  endfacet
  facet normal 0 0 -1
    outer loop
      vertex 360.901 88 171
      vertex 359.943 90.1601 171
      vertex 360.322 90.2405 171
    endloop
  endfacet
  facet normal 0 0 -1
    outer loop
      vertex 360.901 88 171
      vertex 359.557 90.1601 171
      vertex 359.943 90.1601 171
    endloop
  endfacet
  facet normal 0 0 -1
    outer loop
      vertex 360.901 88 171
      vertex 359.178 90.2405 171
      vertex 359.557 90.1601 171
    endloop
  endfacet
  facet normal 0 0 -1
    outer loop
      vertex 354.75 88 171
      vertex 359.178 90.2405 171
      vertex 360.901 88 171
    endloop
  endfacet
  facet normal -0 0 -1
    outer loop
      vertex 359.178 90.2405 171
      vertex 354.75 88 171
      vertex 358.825 90.3979 171
    endloop
  endfacet
  facet normal -0 0 -1
    outer loop
      vertex 357.94 91.6154 171
      vertex 354.75 88 171
      vertex 357.9 92 171
    endloop
  endfacet
  facet normal -0 0 -1
    outer loop
      vertex 358.06 91.2475 171
      vertex 354.75 88 171
      vertex 357.94 91.6154 171
    endloop
  endfacet
  facet normal -0 0 -1
    outer loop
      vertex 358.253 90.9126 171
      vertex 354.75 88 171
      vertex 358.06 91.2475 171
    endloop
  endfacet
  facet normal -0 0 -1
    outer loop
      vertex 358.512 90.6252 171
      vertex 354.75 88 171
      vertex 358.253 90.9126 171
    endloop
  endfacet
  facet normal -0 0 -1
    outer loop
      vertex 358.825 90.3979 171
      vertex 354.75 88 171
      vertex 358.512 90.6252 171
    endloop
  endfacet
  facet normal 0 0 -1
    outer loop
      vertex 372.44 102.752 171
      vertex 374.75 101.849 171
      vertex 372.56 102.385 171
    endloop
  endfacet
  facet normal 0 0 -1
    outer loop
      vertex 372.247 103.087 171
      vertex 374.75 101.849 171
      vertex 372.44 102.752 171
    endloop
  endfacet
  facet normal 0 0 -1
    outer loop
      vertex 374.75 101.849 171
      vertex 372.247 103.087 171
      vertex 374.75 108 171
    endloop
  endfacet
  facet normal 0 0 -1
    outer loop
      vertex 371.988 103.375 171
      vertex 374.75 108 171
      vertex 372.247 103.087 171
    endloop
  endfacet
  facet normal 0 0 -1
    outer loop
      vertex 371.675 103.602 171
      vertex 374.75 108 171
      vertex 371.988 103.375 171
    endloop
  endfacet
  facet normal 0 0 -1
    outer loop
      vertex 371.322 103.759 171
      vertex 374.75 108 171
      vertex 371.675 103.602 171
    endloop
  endfacet
  facet normal 0 0 -1
    outer loop
      vertex 370.943 103.84 171
      vertex 374.75 108 171
      vertex 371.322 103.759 171
    endloop
  endfacet
  facet normal 0 0 -1
    outer loop
      vertex 370.557 103.84 171
      vertex 374.75 108 171
      vertex 370.943 103.84 171
    endloop
  endfacet
  facet normal 0 0 -1
    outer loop
      vertex 370.178 103.759 171
      vertex 374.75 108 171
      vertex 370.557 103.84 171
    endloop
  endfacet
  facet normal 0 0 -1
    outer loop
      vertex 361.75 108 171
      vertex 370.178 103.759 171
      vertex 369.825 103.602 171
    endloop
  endfacet
  facet normal 0 0 -1
    outer loop
      vertex 361.75 108 171
      vertex 369.825 103.602 171
      vertex 369.512 103.375 171
    endloop
  endfacet
  facet normal 0 0 -1
    outer loop
      vertex 361.75 101.5 171
      vertex 368.94 102.385 171
      vertex 368.9 102 171
    endloop
  endfacet
  facet normal 0 0 -1
    outer loop
      vertex 361.75 101.5 171
      vertex 369.06 102.752 171
      vertex 368.94 102.385 171
    endloop
  endfacet
  facet normal 0 0 -1
    outer loop
      vertex 361.75 108 171
      vertex 369.06 102.752 171
      vertex 361.75 101.5 171
    endloop
  endfacet
  facet normal 0 0 -1
    outer loop
      vertex 369.06 102.752 171
      vertex 361.75 108 171
      vertex 369.253 103.087 171
    endloop
  endfacet
  facet normal 0 0 -1
    outer loop
      vertex 369.253 103.087 171
      vertex 361.75 108 171
      vertex 369.512 103.375 171
    endloop
  endfacet
  facet normal 0 0 -1
    outer loop
      vertex 370.178 103.759 171
      vertex 361.75 108 171
      vertex 374.75 108 171
    endloop
  endfacet
  facet normal 0 0 -1
    outer loop
      vertex 370.178 100.241 171
      vertex 361.56 92.3846 171
      vertex 361.44 92.7525 171
    endloop
  endfacet
  facet normal 0 0 -1
    outer loop
      vertex 369.825 100.398 171
      vertex 361.44 92.7525 171
      vertex 361.247 93.0874 171
    endloop
  endfacet
  facet normal 0 0 -1
    outer loop
      vertex 369.512 100.625 171
      vertex 361.247 93.0874 171
      vertex 360.988 93.3748 171
    endloop
  endfacet
  facet normal -0 0 -1
    outer loop
      vertex 369.253 100.913 171
      vertex 360.988 93.3748 171
      vertex 361.75 101.5 171
    endloop
  endfacet
  facet normal 0 0 -1
    outer loop
      vertex 360.675 93.6021 171
      vertex 361.75 101.5 171
      vertex 360.988 93.3748 171
    endloop
  endfacet
  facet normal 0 0 -1
    outer loop
      vertex 360.322 93.7595 171
      vertex 361.75 101.5 171
      vertex 360.675 93.6021 171
    endloop
  endfacet
  facet normal 0 0 -1
    outer loop
      vertex 359.943 93.8399 171
      vertex 361.75 101.5 171
      vertex 360.322 93.7595 171
    endloop
  endfacet
  facet normal 0 0 -1
    outer loop
      vertex 359.557 93.8399 171
      vertex 361.75 101.5 171
      vertex 359.943 93.8399 171
    endloop
  endfacet
  facet normal 0 0 -1
    outer loop
      vertex 359.178 93.7595 171
      vertex 361.75 101.5 171
      vertex 359.557 93.8399 171
    endloop
  endfacet
  facet normal 0 0 -1
    outer loop
      vertex 354.75 101.5 171
      vertex 359.178 93.7595 171
      vertex 358.825 93.6021 171
    endloop
  endfacet
  facet normal 0 0 -1
    outer loop
      vertex 354.75 101.5 171
      vertex 358.825 93.6021 171
      vertex 358.512 93.3748 171
    endloop
  endfacet
  facet normal 0 0 -1
    outer loop
      vertex 354.75 101.5 171
      vertex 358.512 93.3748 171
      vertex 358.253 93.0874 171
    endloop
  endfacet
  facet normal 0 0 -1
    outer loop
      vertex 354.75 101.5 171
      vertex 358.253 93.0874 171
      vertex 358.06 92.7525 171
    endloop
  endfacet
  facet normal 0 0 -1
    outer loop
      vertex 354.75 88 171
      vertex 357.94 92.3846 171
      vertex 357.9 92 171
    endloop
  endfacet
  facet normal 0 0 -1
    outer loop
      vertex 354.75 101.5 171
      vertex 357.94 92.3846 171
      vertex 354.75 88 171
    endloop
  endfacet
  facet normal 0 0 -1
    outer loop
      vertex 357.94 92.3846 171
      vertex 354.75 101.5 171
      vertex 358.06 92.7525 171
    endloop
  endfacet
  facet normal 0 0 -1
    outer loop
      vertex 359.178 93.7595 171
      vertex 354.75 101.5 171
      vertex 361.75 101.5 171
    endloop
  endfacet
  facet normal 0 -1 0
    outer loop
      vertex 354.75 88 184
      vertex 357.731 88 180.5
      vertex 357.731 88 184
    endloop
  endfacet
  facet normal 0 -1 0
    outer loop
      vertex 354.75 88 171
      vertex 357.731 88 180.5
      vertex 354.75 88 184
    endloop
  endfacet
  facet normal 0 -1 0
    outer loop
      vertex 360.901 88 171
      vertex 357.731 88 180.5
      vertex 354.75 88 171
    endloop
  endfacet
  facet normal 0 -1 0
    outer loop
      vertex 357.731 88 180.5
      vertex 360.901 88 171
      vertex 360.901 88 180.5
    endloop
  endfacet
  facet normal 0 0 1
    outer loop
      vertex 361.75 101.5 181
      vertex 364.25 108 181
      vertex 361.75 108 181
    endloop
  endfacet
  facet normal 0 0 1
    outer loop
      vertex 364.25 108 181
      vertex 361.75 101.5 181
      vertex 364.25 98.5 181
    endloop
  endfacet
  facet normal 0 0 1
    outer loop
      vertex 354.75 98.5 181
      vertex 361.75 101.5 181
      vertex 354.75 101.5 181
    endloop
  endfacet
  facet normal 0 0 1
    outer loop
      vertex 361.75 101.5 181
      vertex 354.75 98.5 181
      vertex 364.25 98.5 181
    endloop
  endfacet
  facet normal -1 0 0
    outer loop
      vertex 361.75 101.5 171
      vertex 361.75 108 181
      vertex 361.75 108 171
    endloop
  endfacet
  facet normal -1 -0 0
    outer loop
      vertex 361.75 108 181
      vertex 361.75 101.5 171
      vertex 361.75 101.5 181
    endloop
  endfacet
  facet normal -1 0 0
    outer loop
      vertex 354.75 101.5 171
      vertex 354.75 98.5 181
      vertex 354.75 101.5 181
    endloop
  endfacet
  facet normal -1 0 0
    outer loop
      vertex 354.75 88 171
      vertex 354.75 98.5 181
      vertex 354.75 101.5 171
    endloop
  endfacet
  facet normal -1 0 0
    outer loop
      vertex 354.75 88 184
      vertex 354.75 98.5 181
      vertex 354.75 88 171
    endloop
  endfacet
  facet normal -1 0 0
    outer loop
      vertex 354.75 98.5 181
      vertex 354.75 88 184
      vertex 354.75 98.5 184
    endloop
  endfacet
  facet normal 0 1 -0
    outer loop
      vertex 364.25 98.5 181
      vertex 354.75 98.5 184
      vertex 364.25 98.5 184
    endloop
  endfacet
  facet normal 0 1 0
    outer loop
      vertex 354.75 98.5 184
      vertex 364.25 98.5 181
      vertex 354.75 98.5 181
    endloop
  endfacet
  facet normal 0 1 -0
    outer loop
      vertex 361.75 101.5 171
      vertex 354.75 101.5 181
      vertex 361.75 101.5 181
    endloop
  endfacet
  facet normal 0 1 0
    outer loop
      vertex 354.75 101.5 181
      vertex 361.75 101.5 171
      vertex 354.75 101.5 171
    endloop
  endfacet
  facet normal 0.707105 -0.707108 0
    outer loop
      vertex 360.901 88 171
      vertex 364.174 91.2728 180.5
      vertex 360.901 88 180.5
    endloop
  endfacet
  facet normal 0.707107 -0.707106 -1.43303e-006
    outer loop
      vertex 364.174 91.2728 180.5
      vertex 360.901 88 171
      vertex 370.425 97.5247 180.5
    endloop
  endfacet
  facet normal 0.707107 -0.707107 -5.67873e-007
    outer loop
      vertex 374.75 101.849 171
      vertex 370.425 97.5247 180.5
      vertex 360.901 88 171
    endloop
  endfacet
  facet normal 0.707107 -0.707106 0
    outer loop
      vertex 370.425 97.5247 180.5
      vertex 374.75 101.849 171
      vertex 374.75 101.849 180.5
    endloop
  endfacet
  facet normal 0.707107 -0.707106 0
    outer loop
      vertex 364.174 91.2728 180.5
      vertex 370.425 97.5247 184
      vertex 364.174 91.2728 184
    endloop
  endfacet
  facet normal 0.707107 -0.707106 0
    outer loop
      vertex 370.425 97.5247 184
      vertex 364.174 91.2728 180.5
      vertex 370.425 97.5247 180.5
    endloop
  endfacet
  facet normal 0.994519 -0.104551 0
    outer loop
      vertex 357.9 92 180.5
      vertex 357.94 92.3846 171
      vertex 357.94 92.3846 180.5
    endloop
  endfacet
  facet normal 0.994519 -0.104551 0
    outer loop
      vertex 357.94 92.3846 171
      vertex 357.9 92 180.5
      vertex 357.9 92 171
    endloop
  endfacet
  facet normal 0 -1 0
    outer loop
      vertex 359.557 93.8399 171
      vertex 359.943 93.8399 180.5
      vertex 359.557 93.8399 180.5
    endloop
  endfacet
  facet normal 0 -1 -0
    outer loop
      vertex 359.943 93.8399 180.5
      vertex 359.557 93.8399 171
      vertex 359.943 93.8399 171
    endloop
  endfacet
  facet normal 0 1 -0
    outer loop
      vertex 359.943 90.1601 171
      vertex 359.557 90.1601 180.5
      vertex 359.943 90.1601 180.5
    endloop
  endfacet
  facet normal 0 1 0
    outer loop
      vertex 359.557 90.1601 180.5
      vertex 359.943 90.1601 171
      vertex 359.557 90.1601 171
    endloop
  endfacet
  facet normal 0.743145 -0.66913 0
    outer loop
      vertex 358.253 93.0874 180.5
      vertex 358.512 93.3748 171
      vertex 358.512 93.3748 180.5
    endloop
  endfacet
  facet normal 0.743145 -0.66913 0
    outer loop
      vertex 358.512 93.3748 171
      vertex 358.253 93.0874 180.5
      vertex 358.253 93.0874 171
    endloop
  endfacet
  facet normal 0.951062 -0.308999 0
    outer loop
      vertex 357.94 92.3846 180.5
      vertex 358.06 92.7525 171
      vertex 358.06 92.7525 180.5
    endloop
  endfacet
  facet normal 0.951062 -0.308999 0
    outer loop
      vertex 358.06 92.7525 171
      vertex 357.94 92.3846 180.5
      vertex 357.94 92.3846 171
    endloop
  endfacet
  facet normal -0.743145 -0.66913 0
    outer loop
      vertex 361.247 93.0874 171
      vertex 360.988 93.3748 180.5
      vertex 360.988 93.3748 171
    endloop
  endfacet
  facet normal -0.743145 -0.66913 0
    outer loop
      vertex 360.988 93.3748 180.5
      vertex 361.247 93.0874 171
      vertex 361.247 93.0874 180.5
    endloop
  endfacet
  facet normal -0.406759 -0.913536 0
    outer loop
      vertex 360.322 93.7595 171
      vertex 360.675 93.6021 180.5
      vertex 360.322 93.7595 180.5
    endloop
  endfacet
  facet normal -0.406759 -0.913536 -0
    outer loop
      vertex 360.675 93.6021 180.5
      vertex 360.322 93.7595 171
      vertex 360.675 93.6021 171
    endloop
  endfacet
  facet normal 0.743145 0.66913 0
    outer loop
      vertex 358.512 90.6252 180.5
      vertex 358.253 90.9126 171
      vertex 358.253 90.9126 180.5
    endloop
  endfacet
  facet normal 0.743145 0.66913 0
    outer loop
      vertex 358.253 90.9126 171
      vertex 358.512 90.6252 180.5
      vertex 358.512 90.6252 171
    endloop
  endfacet
  facet normal -0.951062 0.308999 0
    outer loop
      vertex 361.44 91.2475 171
      vertex 361.56 91.6154 180.5
      vertex 361.56 91.6154 171
    endloop
  endfacet
  facet normal -0.951062 0.308999 0
    outer loop
      vertex 361.56 91.6154 180.5
      vertex 361.44 91.2475 171
      vertex 361.44 91.2475 180.5
    endloop
  endfacet
  facet normal 0.86601 -0.500026 0
    outer loop
      vertex 358.06 92.7525 180.5
      vertex 358.253 93.0874 171
      vertex 358.253 93.0874 180.5
    endloop
  endfacet
  facet normal 0.86601 -0.500026 0
    outer loop
      vertex 358.253 93.0874 171
      vertex 358.06 92.7525 180.5
      vertex 358.06 92.7525 171
    endloop
  endfacet
  facet normal 0.406759 -0.913536 0
    outer loop
      vertex 358.825 93.6021 171
      vertex 359.178 93.7595 180.5
      vertex 358.825 93.6021 180.5
    endloop
  endfacet
  facet normal 0.406759 -0.913536 0
    outer loop
      vertex 359.178 93.7595 180.5
      vertex 358.825 93.6021 171
      vertex 359.178 93.7595 171
    endloop
  endfacet
  facet normal 0.207923 -0.978145 0
    outer loop
      vertex 359.178 93.7595 171
      vertex 359.557 93.8399 180.5
      vertex 359.178 93.7595 180.5
    endloop
  endfacet
  facet normal 0.207923 -0.978145 0
    outer loop
      vertex 359.557 93.8399 180.5
      vertex 359.178 93.7595 171
      vertex 359.557 93.8399 171
    endloop
  endfacet
  facet normal 0.587773 -0.809026 0
    outer loop
      vertex 358.512 93.3748 171
      vertex 358.825 93.6021 180.5
      vertex 358.512 93.3748 180.5
    endloop
  endfacet
  facet normal 0.587773 -0.809026 0
    outer loop
      vertex 358.825 93.6021 180.5
      vertex 358.512 93.3748 171
      vertex 358.825 93.6021 171
    endloop
  endfacet
  facet normal -0.951062 -0.308999 0
    outer loop
      vertex 361.56 92.3846 171
      vertex 361.44 92.7525 180.5
      vertex 361.44 92.7525 171
    endloop
  endfacet
  facet normal -0.951062 -0.308999 0
    outer loop
      vertex 361.44 92.7525 180.5
      vertex 361.56 92.3846 171
      vertex 361.56 92.3846 180.5
    endloop
  endfacet
  facet normal -0.86601 -0.500026 0
    outer loop
      vertex 361.44 92.7525 171
      vertex 361.247 93.0874 180.5
      vertex 361.247 93.0874 171
    endloop
  endfacet
  facet normal -0.86601 -0.500026 0
    outer loop
      vertex 361.247 93.0874 180.5
      vertex 361.44 92.7525 171
      vertex 361.44 92.7525 180.5
    endloop
  endfacet
  facet normal -0.994519 -0.104551 0
    outer loop
      vertex 361.6 92 171
      vertex 361.56 92.3846 180.5
      vertex 361.56 92.3846 171
    endloop
  endfacet
  facet normal -0.994519 -0.104551 0
    outer loop
      vertex 361.56 92.3846 180.5
      vertex 361.6 92 171
      vertex 361.6 92 180.5
    endloop
  endfacet
  facet normal 0 0 1
    outer loop
      vertex 364.152 92.9356 180.5
      vertex 361.56 92.3846 180.5
      vertex 361.6 92 180.5
    endloop
  endfacet
  facet normal 0 0 1
    outer loop
      vertex 362.761 95.3442 180.5
      vertex 361.44 92.7525 180.5
      vertex 361.56 92.3846 180.5
    endloop
  endfacet
  facet normal 0 0 1
    outer loop
      vertex 362.761 95.3442 180.5
      vertex 361.247 93.0874 180.5
      vertex 361.44 92.7525 180.5
    endloop
  endfacet
  facet normal 0 0 1
    outer loop
      vertex 360.675 93.6021 180.5
      vertex 362 95.8971 180.5
      vertex 361.141 96.2798 180.5
    endloop
  endfacet
  facet normal 0 0 1
    outer loop
      vertex 362.761 95.3442 180.5
      vertex 360.988 93.3748 180.5
      vertex 361.247 93.0874 180.5
    endloop
  endfacet
  facet normal 0 0 1
    outer loop
      vertex 362 95.8971 180.5
      vertex 360.675 93.6021 180.5
      vertex 360.988 93.3748 180.5
    endloop
  endfacet
  facet normal 0 0 1
    outer loop
      vertex 361.141 96.2798 180.5
      vertex 360.322 93.7595 180.5
      vertex 360.675 93.6021 180.5
    endloop
  endfacet
  facet normal 0 0 1
    outer loop
      vertex 360.22 96.4753 180.5
      vertex 360.322 93.7595 180.5
      vertex 361.141 96.2798 180.5
    endloop
  endfacet
  facet normal 0 0 1
    outer loop
      vertex 360.22 96.4753 180.5
      vertex 359.943 93.8399 180.5
      vertex 360.322 93.7595 180.5
    endloop
  endfacet
  facet normal 0 0 1
    outer loop
      vertex 360.22 96.4753 180.5
      vertex 359.557 93.8399 180.5
      vertex 359.943 93.8399 180.5
    endloop
  endfacet
  facet normal -0 0 1
    outer loop
      vertex 359.28 96.4753 180.5
      vertex 359.557 93.8399 180.5
      vertex 360.22 96.4753 180.5
    endloop
  endfacet
  facet normal 0 0 1
    outer loop
      vertex 359.28 96.4753 180.5
      vertex 359.178 93.7595 180.5
      vertex 359.557 93.8399 180.5
    endloop
  endfacet
  facet normal -0 0 1
    outer loop
      vertex 358.359 96.2798 180.5
      vertex 359.178 93.7595 180.5
      vertex 359.28 96.4753 180.5
    endloop
  endfacet
  facet normal 0 0 1
    outer loop
      vertex 359.178 93.7595 180.5
      vertex 358.359 96.2798 180.5
      vertex 358.825 93.6021 180.5
    endloop
  endfacet
  facet normal -0 0 1
    outer loop
      vertex 357.5 95.8971 180.5
      vertex 358.825 93.6021 180.5
      vertex 358.359 96.2798 180.5
    endloop
  endfacet
  facet normal 0 0 1
    outer loop
      vertex 358.825 93.6021 180.5
      vertex 357.5 95.8971 180.5
      vertex 358.512 93.3748 180.5
    endloop
  endfacet
  facet normal -0 0 1
    outer loop
      vertex 356.739 95.3442 180.5
      vertex 358.512 93.3748 180.5
      vertex 357.5 95.8971 180.5
    endloop
  endfacet
  facet normal 0 0 1
    outer loop
      vertex 358.512 93.3748 180.5
      vertex 356.739 95.3442 180.5
      vertex 358.253 93.0874 180.5
    endloop
  endfacet
  facet normal -0 0 1
    outer loop
      vertex 356.109 94.645 180.5
      vertex 358.253 93.0874 180.5
      vertex 356.739 95.3442 180.5
    endloop
  endfacet
  facet normal 0 0 1
    outer loop
      vertex 358.253 93.0874 180.5
      vertex 356.109 94.645 180.5
      vertex 358.06 92.7525 180.5
    endloop
  endfacet
  facet normal -0 0 1
    outer loop
      vertex 355.639 93.8303 180.5
      vertex 358.06 92.7525 180.5
      vertex 356.109 94.645 180.5
    endloop
  endfacet
  facet normal 0 0 1
    outer loop
      vertex 358.06 92.7525 180.5
      vertex 355.639 93.8303 180.5
      vertex 357.94 92.3846 180.5
    endloop
  endfacet
  facet normal -0 0 1
    outer loop
      vertex 355.348 92.9356 180.5
      vertex 357.94 92.3846 180.5
      vertex 355.639 93.8303 180.5
    endloop
  endfacet
  facet normal 0 0 1
    outer loop
      vertex 357.9 92 180.5
      vertex 357.5 88.1029 180.5
      vertex 357.731 88 180.5
    endloop
  endfacet
  facet normal 0 -0 1
    outer loop
      vertex 356.739 88.6558 180.5
      vertex 357.9 92 180.5
      vertex 356.109 89.355 180.5
    endloop
  endfacet
  facet normal 0 -0 1
    outer loop
      vertex 357.5 88.1029 180.5
      vertex 357.9 92 180.5
      vertex 356.739 88.6558 180.5
    endloop
  endfacet
  facet normal 0 0 1
    outer loop
      vertex 357.94 92.3846 180.5
      vertex 355.348 92.9356 180.5
      vertex 357.9 92 180.5
    endloop
  endfacet
  facet normal 0 0 1
    outer loop
      vertex 357.9 92 180.5
      vertex 355.639 90.1697 180.5
      vertex 356.109 89.355 180.5
    endloop
  endfacet
  facet normal 0 0 1
    outer loop
      vertex 355.25 92 180.5
      vertex 357.9 92 180.5
      vertex 355.348 92.9356 180.5
    endloop
  endfacet
  facet normal 0 0 1
    outer loop
      vertex 357.9 92 180.5
      vertex 355.348 91.0644 180.5
      vertex 355.639 90.1697 180.5
    endloop
  endfacet
  facet normal 0 0 1
    outer loop
      vertex 357.9 92 180.5
      vertex 355.25 92 180.5
      vertex 355.348 91.0644 180.5
    endloop
  endfacet
  facet normal 0 0 1
    outer loop
      vertex 361.6 92 180.5
      vertex 364.25 92 180.5
      vertex 364.152 92.9356 180.5
    endloop
  endfacet
  facet normal 0 0 1
    outer loop
      vertex 361.56 92.3846 180.5
      vertex 364.152 92.9356 180.5
      vertex 363.861 93.8303 180.5
    endloop
  endfacet
  facet normal 0 0 1
    outer loop
      vertex 361.56 92.3846 180.5
      vertex 363.861 93.8303 180.5
      vertex 363.391 94.645 180.5
    endloop
  endfacet
  facet normal 0 0 1
    outer loop
      vertex 361.56 92.3846 180.5
      vertex 363.391 94.645 180.5
      vertex 362.761 95.3442 180.5
    endloop
  endfacet
  facet normal 0 0 1
    outer loop
      vertex 360.988 93.3748 180.5
      vertex 362.761 95.3442 180.5
      vertex 362 95.8971 180.5
    endloop
  endfacet
  facet normal 0 0 1
    outer loop
      vertex 364.25 92 180.5
      vertex 361.6 92 180.5
      vertex 364.174 91.2728 180.5
    endloop
  endfacet
  facet normal -0 0 1
    outer loop
      vertex 361.56 91.6154 180.5
      vertex 364.174 91.2728 180.5
      vertex 361.6 92 180.5
    endloop
  endfacet
  facet normal 0 0 1
    outer loop
      vertex 361.44 91.2475 180.5
      vertex 364.174 91.2728 180.5
      vertex 361.56 91.6154 180.5
    endloop
  endfacet
  facet normal 0 0 1
    outer loop
      vertex 361.247 90.9126 180.5
      vertex 364.174 91.2728 180.5
      vertex 361.44 91.2475 180.5
    endloop
  endfacet
  facet normal 0 0 1
    outer loop
      vertex 360.901 88 180.5
      vertex 361.247 90.9126 180.5
      vertex 360.988 90.6252 180.5
    endloop
  endfacet
  facet normal -0 0 1
    outer loop
      vertex 361.247 90.9126 180.5
      vertex 360.901 88 180.5
      vertex 364.174 91.2728 180.5
    endloop
  endfacet
  facet normal -0 0 1
    outer loop
      vertex 360.675 90.3979 180.5
      vertex 360.901 88 180.5
      vertex 360.988 90.6252 180.5
    endloop
  endfacet
  facet normal -0 0 1
    outer loop
      vertex 360.322 90.2405 180.5
      vertex 360.901 88 180.5
      vertex 360.675 90.3979 180.5
    endloop
  endfacet
  facet normal -0 0 1
    outer loop
      vertex 359.943 90.1601 180.5
      vertex 360.901 88 180.5
      vertex 360.322 90.2405 180.5
    endloop
  endfacet
  facet normal -0 0 1
    outer loop
      vertex 359.557 90.1601 180.5
      vertex 360.901 88 180.5
      vertex 359.943 90.1601 180.5
    endloop
  endfacet
  facet normal 0 0 1
    outer loop
      vertex 357.731 88 180.5
      vertex 359.557 90.1601 180.5
      vertex 359.178 90.2405 180.5
    endloop
  endfacet
  facet normal 0 0 1
    outer loop
      vertex 357.731 88 180.5
      vertex 359.178 90.2405 180.5
      vertex 358.825 90.3979 180.5
    endloop
  endfacet
  facet normal 0 0 1
    outer loop
      vertex 357.731 88 180.5
      vertex 358.825 90.3979 180.5
      vertex 358.512 90.6252 180.5
    endloop
  endfacet
  facet normal 0 0 1
    outer loop
      vertex 359.557 90.1601 180.5
      vertex 357.731 88 180.5
      vertex 360.901 88 180.5
    endloop
  endfacet
  facet normal 0 0 1
    outer loop
      vertex 358.253 90.9126 180.5
      vertex 357.731 88 180.5
      vertex 358.512 90.6252 180.5
    endloop
  endfacet
  facet normal 0 0 1
    outer loop
      vertex 358.06 91.2475 180.5
      vertex 357.731 88 180.5
      vertex 358.253 90.9126 180.5
    endloop
  endfacet
  facet normal 0 0 1
    outer loop
      vertex 357.94 91.6154 180.5
      vertex 357.731 88 180.5
      vertex 358.06 91.2475 180.5
    endloop
  endfacet
  facet normal 0 0 1
    outer loop
      vertex 357.731 88 180.5
      vertex 357.94 91.6154 180.5
      vertex 357.9 92 180.5
    endloop
  endfacet
  facet normal -0.587773 -0.809026 0
    outer loop
      vertex 360.675 93.6021 171
      vertex 360.988 93.3748 180.5
      vertex 360.675 93.6021 180.5
    endloop
  endfacet
  facet normal -0.587773 -0.809026 -0
    outer loop
      vertex 360.988 93.3748 180.5
      vertex 360.675 93.6021 171
      vertex 360.988 93.3748 171
    endloop
  endfacet
  facet normal -0.207923 -0.978145 0
    outer loop
      vertex 359.943 93.8399 171
      vertex 360.322 93.7595 180.5
      vertex 359.943 93.8399 180.5
    endloop
  endfacet
  facet normal -0.207923 -0.978145 -0
    outer loop
      vertex 360.322 93.7595 180.5
      vertex 359.943 93.8399 171
      vertex 360.322 93.7595 171
    endloop
  endfacet
  facet normal 0.994519 0.104551 0
    outer loop
      vertex 357.94 91.6154 180.5
      vertex 357.9 92 171
      vertex 357.9 92 180.5
    endloop
  endfacet
  facet normal 0.994519 0.104551 0
    outer loop
      vertex 357.9 92 171
      vertex 357.94 91.6154 180.5
      vertex 357.94 91.6154 171
    endloop
  endfacet
  facet normal 0.207923 0.978145 -0
    outer loop
      vertex 359.557 90.1601 171
      vertex 359.178 90.2405 180.5
      vertex 359.557 90.1601 180.5
    endloop
  endfacet
  facet normal 0.207923 0.978145 0
    outer loop
      vertex 359.178 90.2405 180.5
      vertex 359.557 90.1601 171
      vertex 359.178 90.2405 171
    endloop
  endfacet
  facet normal 0.587786 0.809017 -0
    outer loop
      vertex 358.825 90.3979 171
      vertex 358.512 90.6252 180.5
      vertex 358.825 90.3979 180.5
    endloop
  endfacet
  facet normal 0.587786 0.809017 0
    outer loop
      vertex 358.512 90.6252 180.5
      vertex 358.825 90.3979 171
      vertex 358.512 90.6252 171
    endloop
  endfacet
  facet normal -0.587786 0.809017 0
    outer loop
      vertex 360.988 90.6252 171
      vertex 360.675 90.3979 180.5
      vertex 360.988 90.6252 180.5
    endloop
  endfacet
  facet normal -0.587786 0.809017 0
    outer loop
      vertex 360.675 90.3979 180.5
      vertex 360.988 90.6252 171
      vertex 360.675 90.3979 171
    endloop
  endfacet
  facet normal -0.207923 0.978145 0
    outer loop
      vertex 360.322 90.2405 171
      vertex 359.943 90.1601 180.5
      vertex 360.322 90.2405 180.5
    endloop
  endfacet
  facet normal -0.207923 0.978145 0
    outer loop
      vertex 359.943 90.1601 180.5
      vertex 360.322 90.2405 171
      vertex 359.943 90.1601 171
    endloop
  endfacet
  facet normal -0.86601 0.500026 0
    outer loop
      vertex 361.247 90.9126 171
      vertex 361.44 91.2475 180.5
      vertex 361.44 91.2475 171
    endloop
  endfacet
  facet normal -0.86601 0.500026 0
    outer loop
      vertex 361.44 91.2475 180.5
      vertex 361.247 90.9126 171
      vertex 361.247 90.9126 180.5
    endloop
  endfacet
  facet normal -0.743145 0.66913 0
    outer loop
      vertex 360.988 90.6252 171
      vertex 361.247 90.9126 180.5
      vertex 361.247 90.9126 171
    endloop
  endfacet
  facet normal -0.743145 0.66913 0
    outer loop
      vertex 361.247 90.9126 180.5
      vertex 360.988 90.6252 171
      vertex 360.988 90.6252 180.5
    endloop
  endfacet
  facet normal -0.994519 0.104551 0
    outer loop
      vertex 361.56 91.6154 171
      vertex 361.6 92 180.5
      vertex 361.6 92 171
    endloop
  endfacet
  facet normal -0.994519 0.104551 0
    outer loop
      vertex 361.6 92 180.5
      vertex 361.56 91.6154 171
      vertex 361.56 91.6154 180.5
    endloop
  endfacet
  facet normal 0.406742 0.913543 -0
    outer loop
      vertex 359.178 90.2405 171
      vertex 358.825 90.3979 180.5
      vertex 359.178 90.2405 180.5
    endloop
  endfacet
  facet normal 0.406742 0.913543 0
    outer loop
      vertex 358.825 90.3979 180.5
      vertex 359.178 90.2405 171
      vertex 358.825 90.3979 171
    endloop
  endfacet
  facet normal 0.951062 0.308999 0
    outer loop
      vertex 358.06 91.2475 180.5
      vertex 357.94 91.6154 171
      vertex 357.94 91.6154 180.5
    endloop
  endfacet
  facet normal 0.951062 0.308999 0
    outer loop
      vertex 357.94 91.6154 171
      vertex 358.06 91.2475 180.5
      vertex 358.06 91.2475 171
    endloop
  endfacet
  facet normal 0.86601 0.500026 0
    outer loop
      vertex 358.253 90.9126 180.5
      vertex 358.06 91.2475 171
      vertex 358.06 91.2475 180.5
    endloop
  endfacet
  facet normal 0.86601 0.500026 0
    outer loop
      vertex 358.06 91.2475 171
      vertex 358.253 90.9126 180.5
      vertex 358.253 90.9126 171
    endloop
  endfacet
  facet normal -0.406742 0.913543 0
    outer loop
      vertex 360.675 90.3979 171
      vertex 360.322 90.2405 180.5
      vertex 360.675 90.3979 180.5
    endloop
  endfacet
  facet normal -0.406742 0.913543 0
    outer loop
      vertex 360.322 90.2405 180.5
      vertex 360.675 90.3979 171
      vertex 360.322 90.2405 171
    endloop
  endfacet
  facet normal 0.994523 -0.10452 0
    outer loop
      vertex 355.25 92 184
      vertex 355.348 92.9356 180.5
      vertex 355.348 92.9356 184
    endloop
  endfacet
  facet normal 0.994523 -0.10452 0
    outer loop
      vertex 355.348 92.9356 180.5
      vertex 355.25 92 184
      vertex 355.25 92 180.5
    endloop
  endfacet
  facet normal 0 -1 0
    outer loop
      vertex 359.28 96.4753 180.5
      vertex 360.22 96.4753 184
      vertex 359.28 96.4753 184
    endloop
  endfacet
  facet normal 0 -1 -0
    outer loop
      vertex 360.22 96.4753 184
      vertex 359.28 96.4753 180.5
      vertex 360.22 96.4753 180.5
    endloop
  endfacet
  facet normal 0.743147 -0.669128 0
    outer loop
      vertex 356.109 94.645 184
      vertex 356.739 95.3442 180.5
      vertex 356.739 95.3442 184
    endloop
  endfacet
  facet normal 0.743147 -0.669128 0
    outer loop
      vertex 356.739 95.3442 180.5
      vertex 356.109 94.645 184
      vertex 356.109 94.645 180.5
    endloop
  endfacet
  facet normal 0.951056 -0.309017 0
    outer loop
      vertex 355.348 92.9356 184
      vertex 355.639 93.8303 180.5
      vertex 355.639 93.8303 184
    endloop
  endfacet
  facet normal 0.951056 -0.309017 0
    outer loop
      vertex 355.639 93.8303 180.5
      vertex 355.348 92.9356 184
      vertex 355.348 92.9356 180.5
    endloop
  endfacet
  facet normal -0.743147 -0.669128 0
    outer loop
      vertex 363.391 94.645 180.5
      vertex 362.761 95.3442 184
      vertex 362.761 95.3442 180.5
    endloop
  endfacet
  facet normal -0.743147 -0.669128 0
    outer loop
      vertex 362.761 95.3442 184
      vertex 363.391 94.645 180.5
      vertex 363.391 94.645 184
    endloop
  endfacet
  facet normal -0.406736 -0.913546 0
    outer loop
      vertex 361.141 96.2798 180.5
      vertex 362 95.8971 184
      vertex 361.141 96.2798 184
    endloop
  endfacet
  facet normal -0.406736 -0.913546 -0
    outer loop
      vertex 362 95.8971 184
      vertex 361.141 96.2798 180.5
      vertex 362 95.8971 180.5
    endloop
  endfacet
  facet normal 0.743147 0.669128 0
    outer loop
      vertex 356.739 88.6558 184
      vertex 356.109 89.355 180.5
      vertex 356.109 89.355 184
    endloop
  endfacet
  facet normal 0.743147 0.669128 0
    outer loop
      vertex 356.109 89.355 180.5
      vertex 356.739 88.6558 184
      vertex 356.739 88.6558 180.5
    endloop
  endfacet
  facet normal 0.866017 -0.500015 0
    outer loop
      vertex 355.639 93.8303 184
      vertex 356.109 94.645 180.5
      vertex 356.109 94.645 184
    endloop
  endfacet
  facet normal 0.866017 -0.500015 0
    outer loop
      vertex 356.109 94.645 180.5
      vertex 355.639 93.8303 184
      vertex 355.639 93.8303 180.5
    endloop
  endfacet
  facet normal 0.406736 -0.913546 0
    outer loop
      vertex 357.5 95.8971 180.5
      vertex 358.359 96.2798 184
      vertex 357.5 95.8971 184
    endloop
  endfacet
  facet normal 0.406736 -0.913546 0
    outer loop
      vertex 358.359 96.2798 184
      vertex 357.5 95.8971 180.5
      vertex 358.359 96.2798 180.5
    endloop
  endfacet
  facet normal 0.207913 -0.978147 0
    outer loop
      vertex 358.359 96.2798 180.5
      vertex 359.28 96.4753 184
      vertex 358.359 96.2798 184
    endloop
  endfacet
  facet normal 0.207913 -0.978147 0
    outer loop
      vertex 359.28 96.4753 184
      vertex 358.359 96.2798 180.5
      vertex 359.28 96.4753 180.5
    endloop
  endfacet
  facet normal 0.587785 -0.809017 0
    outer loop
      vertex 356.739 95.3442 180.5
      vertex 357.5 95.8971 184
      vertex 356.739 95.3442 184
    endloop
  endfacet
  facet normal 0.587785 -0.809017 0
    outer loop
      vertex 357.5 95.8971 184
      vertex 356.739 95.3442 180.5
      vertex 357.5 95.8971 180.5
    endloop
  endfacet
  facet normal -0.951056 -0.309017 0
    outer loop
      vertex 364.152 92.9356 180.5
      vertex 363.861 93.8303 184
      vertex 363.861 93.8303 180.5
    endloop
  endfacet
  facet normal -0.951056 -0.309017 0
    outer loop
      vertex 363.861 93.8303 184
      vertex 364.152 92.9356 180.5
      vertex 364.152 92.9356 184
    endloop
  endfacet
  facet normal -0.866017 -0.500015 0
    outer loop
      vertex 363.861 93.8303 180.5
      vertex 363.391 94.645 184
      vertex 363.391 94.645 180.5
    endloop
  endfacet
  facet normal -0.866017 -0.500015 0
    outer loop
      vertex 363.391 94.645 184
      vertex 363.861 93.8303 180.5
      vertex 363.861 93.8303 184
    endloop
  endfacet
  facet normal -0.994523 -0.10452 0
    outer loop
      vertex 364.25 92 180.5
      vertex 364.152 92.9356 184
      vertex 364.152 92.9356 180.5
    endloop
  endfacet
  facet normal -0.994523 -0.10452 0
    outer loop
      vertex 364.152 92.9356 184
      vertex 364.25 92 180.5
      vertex 364.25 92 184
    endloop
  endfacet
  facet normal -0.587785 -0.809017 0
    outer loop
      vertex 362 95.8971 180.5
      vertex 362.761 95.3442 184
      vertex 362 95.8971 184
    endloop
  endfacet
  facet normal -0.587785 -0.809017 -0
    outer loop
      vertex 362.761 95.3442 184
      vertex 362 95.8971 180.5
      vertex 362.761 95.3442 180.5
    endloop
  endfacet
  facet normal -0.207913 -0.978147 0
    outer loop
      vertex 360.22 96.4753 180.5
      vertex 361.141 96.2798 184
      vertex 360.22 96.4753 184
    endloop
  endfacet
  facet normal -0.207913 -0.978147 -0
    outer loop
      vertex 361.141 96.2798 184
      vertex 360.22 96.4753 180.5
      vertex 361.141 96.2798 180.5
    endloop
  endfacet
  facet normal 0.994523 0.10452 0
    outer loop
      vertex 355.348 91.0644 184
      vertex 355.25 92 180.5
      vertex 355.25 92 184
    endloop
  endfacet
  facet normal 0.994523 0.10452 0
    outer loop
      vertex 355.25 92 180.5
      vertex 355.348 91.0644 184
      vertex 355.348 91.0644 180.5
    endloop
  endfacet
  facet normal 0.587791 0.809013 -0
    outer loop
      vertex 357.5 88.1029 180.5
      vertex 356.739 88.6558 184
      vertex 357.5 88.1029 184
    endloop
  endfacet
  facet normal 0.587791 0.809013 0
    outer loop
      vertex 356.739 88.6558 184
      vertex 357.5 88.1029 180.5
      vertex 356.739 88.6558 180.5
    endloop
  endfacet
  facet normal -0.994524 0.104509 0
    outer loop
      vertex 364.174 91.2728 180.5
      vertex 364.25 92 184
      vertex 364.25 92 180.5
    endloop
  endfacet
  facet normal -0.994524 0.104509 0
    outer loop
      vertex 364.25 92 184
      vertex 364.174 91.2728 180.5
      vertex 364.174 91.2728 184
    endloop
  endfacet
  facet normal 0.406734 0.913546 -0
    outer loop
      vertex 357.731 88 180.5
      vertex 357.5 88.1029 184
      vertex 357.731 88 184
    endloop
  endfacet
  facet normal 0.406734 0.913546 0
    outer loop
      vertex 357.5 88.1029 184
      vertex 357.731 88 180.5
      vertex 357.5 88.1029 180.5
    endloop
  endfacet
  facet normal 0.951056 0.309017 0
    outer loop
      vertex 355.639 90.1697 184
      vertex 355.348 91.0644 180.5
      vertex 355.348 91.0644 184
    endloop
  endfacet
  facet normal 0.951056 0.309017 0
    outer loop
      vertex 355.348 91.0644 180.5
      vertex 355.639 90.1697 184
      vertex 355.639 90.1697 180.5
    endloop
  endfacet
  facet normal 0.866017 0.500015 0
    outer loop
      vertex 356.109 89.355 184
      vertex 355.639 90.1697 180.5
      vertex 355.639 90.1697 184
    endloop
  endfacet
  facet normal 0.866017 0.500015 0
    outer loop
      vertex 355.639 90.1697 180.5
      vertex 356.109 89.355 184
      vertex 356.109 89.355 180.5
    endloop
  endfacet
  facet normal 0.994519 -0.104551 0
    outer loop
      vertex 368.9 102 180.5
      vertex 368.94 102.385 171
      vertex 368.94 102.385 180.5
    endloop
  endfacet
  facet normal 0.994519 -0.104551 0
    outer loop
      vertex 368.94 102.385 171
      vertex 368.9 102 180.5
      vertex 368.9 102 171
    endloop
  endfacet
  facet normal 0 -1 0
    outer loop
      vertex 370.557 103.84 171
      vertex 370.943 103.84 180.5
      vertex 370.557 103.84 180.5
    endloop
  endfacet
  facet normal 0 -1 -0
    outer loop
      vertex 370.943 103.84 180.5
      vertex 370.557 103.84 171
      vertex 370.943 103.84 171
    endloop
  endfacet
  facet normal 0 1 -0
    outer loop
      vertex 370.943 100.16 171
      vertex 370.557 100.16 180.5
      vertex 370.943 100.16 180.5
    endloop
  endfacet
  facet normal 0 1 0
    outer loop
      vertex 370.557 100.16 180.5
      vertex 370.943 100.16 171
      vertex 370.557 100.16 171
    endloop
  endfacet
  facet normal 0.743145 -0.66913 0
    outer loop
      vertex 369.253 103.087 180.5
      vertex 369.512 103.375 171
      vertex 369.512 103.375 180.5
    endloop
  endfacet
  facet normal 0.743145 -0.66913 0
    outer loop
      vertex 369.512 103.375 171
      vertex 369.253 103.087 180.5
      vertex 369.253 103.087 171
    endloop
  endfacet
  facet normal 0.951062 -0.308999 0
    outer loop
      vertex 368.94 102.385 180.5
      vertex 369.06 102.752 171
      vertex 369.06 102.752 180.5
    endloop
  endfacet
  facet normal 0.951062 -0.308999 0
    outer loop
      vertex 369.06 102.752 171
      vertex 368.94 102.385 180.5
      vertex 368.94 102.385 171
    endloop
  endfacet
  facet normal -0.743145 -0.66913 0
    outer loop
      vertex 372.247 103.087 171
      vertex 371.988 103.375 180.5
      vertex 371.988 103.375 171
    endloop
  endfacet
  facet normal -0.743145 -0.66913 0
    outer loop
      vertex 371.988 103.375 180.5
      vertex 372.247 103.087 171
      vertex 372.247 103.087 180.5
    endloop
  endfacet
  facet normal -0.406759 -0.913536 0
    outer loop
      vertex 371.322 103.759 171
      vertex 371.675 103.602 180.5
      vertex 371.322 103.759 180.5
    endloop
  endfacet
  facet normal -0.406759 -0.913536 -0
    outer loop
      vertex 371.675 103.602 180.5
      vertex 371.322 103.759 171
      vertex 371.675 103.602 171
    endloop
  endfacet
  facet normal 0.743145 0.66913 0
    outer loop
      vertex 369.512 100.625 180.5
      vertex 369.253 100.913 171
      vertex 369.253 100.913 180.5
    endloop
  endfacet
  facet normal 0.743145 0.66913 0
    outer loop
      vertex 369.253 100.913 171
      vertex 369.512 100.625 180.5
      vertex 369.512 100.625 171
    endloop
  endfacet
  facet normal -0.951062 0.308999 0
    outer loop
      vertex 372.44 101.248 171
      vertex 372.56 101.615 180.5
      vertex 372.56 101.615 171
    endloop
  endfacet
  facet normal -0.951062 0.308999 0
    outer loop
      vertex 372.56 101.615 180.5
      vertex 372.44 101.248 171
      vertex 372.44 101.248 180.5
    endloop
  endfacet
  facet normal 0.86601 -0.500026 0
    outer loop
      vertex 369.06 102.752 180.5
      vertex 369.253 103.087 171
      vertex 369.253 103.087 180.5
    endloop
  endfacet
  facet normal 0.86601 -0.500026 0
    outer loop
      vertex 369.253 103.087 171
      vertex 369.06 102.752 180.5
      vertex 369.06 102.752 171
    endloop
  endfacet
  facet normal 0.406759 -0.913536 0
    outer loop
      vertex 369.825 103.602 171
      vertex 370.178 103.759 180.5
      vertex 369.825 103.602 180.5
    endloop
  endfacet
  facet normal 0.406759 -0.913536 0
    outer loop
      vertex 370.178 103.759 180.5
      vertex 369.825 103.602 171
      vertex 370.178 103.759 171
    endloop
  endfacet
  facet normal 0.207923 -0.978145 0
    outer loop
      vertex 370.178 103.759 171
      vertex 370.557 103.84 180.5
      vertex 370.178 103.759 180.5
    endloop
  endfacet
  facet normal 0.207923 -0.978145 0
    outer loop
      vertex 370.557 103.84 180.5
      vertex 370.178 103.759 171
      vertex 370.557 103.84 171
    endloop
  endfacet
  facet normal 0.587773 -0.809026 0
    outer loop
      vertex 369.512 103.375 171
      vertex 369.825 103.602 180.5
      vertex 369.512 103.375 180.5
    endloop
  endfacet
  facet normal 0.587773 -0.809026 0
    outer loop
      vertex 369.825 103.602 180.5
      vertex 369.512 103.375 171
      vertex 369.825 103.602 171
    endloop
  endfacet
  facet normal -0.951062 -0.308999 0
    outer loop
      vertex 372.56 102.385 171
      vertex 372.44 102.752 180.5
      vertex 372.44 102.752 171
    endloop
  endfacet
  facet normal -0.951062 -0.308999 0
    outer loop
      vertex 372.44 102.752 180.5
      vertex 372.56 102.385 171
      vertex 372.56 102.385 180.5
    endloop
  endfacet
  facet normal -0.86601 -0.500026 0
    outer loop
      vertex 372.44 102.752 171
      vertex 372.247 103.087 180.5
      vertex 372.247 103.087 171
    endloop
  endfacet
  facet normal -0.86601 -0.500026 0
    outer loop
      vertex 372.247 103.087 180.5
      vertex 372.44 102.752 171
      vertex 372.44 102.752 180.5
    endloop
  endfacet
  facet normal -0.994519 -0.104551 0
    outer loop
      vertex 372.6 102 171
      vertex 372.56 102.385 180.5
      vertex 372.56 102.385 171
    endloop
  endfacet
  facet normal -0.994519 -0.104551 0
    outer loop
      vertex 372.56 102.385 180.5
      vertex 372.6 102 171
      vertex 372.6 102 180.5
    endloop
  endfacet
  facet normal 0 0 1
    outer loop
      vertex 374.75 101.849 180.5
      vertex 372.56 102.385 180.5
      vertex 372.6 102 180.5
    endloop
  endfacet
  facet normal 0 0 1
    outer loop
      vertex 373.761 105.344 180.5
      vertex 372.44 102.752 180.5
      vertex 372.56 102.385 180.5
    endloop
  endfacet
  facet normal 0 0 1
    outer loop
      vertex 373.761 105.344 180.5
      vertex 372.247 103.087 180.5
      vertex 372.44 102.752 180.5
    endloop
  endfacet
  facet normal 0 0 1
    outer loop
      vertex 371.675 103.602 180.5
      vertex 373 105.897 180.5
      vertex 372.141 106.28 180.5
    endloop
  endfacet
  facet normal 0 0 1
    outer loop
      vertex 373.761 105.344 180.5
      vertex 371.988 103.375 180.5
      vertex 372.247 103.087 180.5
    endloop
  endfacet
  facet normal 0 0 1
    outer loop
      vertex 373 105.897 180.5
      vertex 371.675 103.602 180.5
      vertex 371.988 103.375 180.5
    endloop
  endfacet
  facet normal 0 0 1
    outer loop
      vertex 372.141 106.28 180.5
      vertex 371.322 103.759 180.5
      vertex 371.675 103.602 180.5
    endloop
  endfacet
  facet normal 0 0 1
    outer loop
      vertex 371.22 106.475 180.5
      vertex 371.322 103.759 180.5
      vertex 372.141 106.28 180.5
    endloop
  endfacet
  facet normal 0 0 1
    outer loop
      vertex 371.22 106.475 180.5
      vertex 370.943 103.84 180.5
      vertex 371.322 103.759 180.5
    endloop
  endfacet
  facet normal 0 0 1
    outer loop
      vertex 371.22 106.475 180.5
      vertex 370.557 103.84 180.5
      vertex 370.943 103.84 180.5
    endloop
  endfacet
  facet normal -0 0 1
    outer loop
      vertex 370.28 106.475 180.5
      vertex 370.557 103.84 180.5
      vertex 371.22 106.475 180.5
    endloop
  endfacet
  facet normal 0 0 1
    outer loop
      vertex 370.28 106.475 180.5
      vertex 370.178 103.759 180.5
      vertex 370.557 103.84 180.5
    endloop
  endfacet
  facet normal -0 0 1
    outer loop
      vertex 369.359 106.28 180.5
      vertex 370.178 103.759 180.5
      vertex 370.28 106.475 180.5
    endloop
  endfacet
  facet normal 0 0 1
    outer loop
      vertex 370.178 103.759 180.5
      vertex 369.359 106.28 180.5
      vertex 369.825 103.602 180.5
    endloop
  endfacet
  facet normal -0 0 1
    outer loop
      vertex 368.5 105.897 180.5
      vertex 369.825 103.602 180.5
      vertex 369.359 106.28 180.5
    endloop
  endfacet
  facet normal 0 0 1
    outer loop
      vertex 369.825 103.602 180.5
      vertex 368.5 105.897 180.5
      vertex 369.512 103.375 180.5
    endloop
  endfacet
  facet normal -0 0 1
    outer loop
      vertex 367.739 105.344 180.5
      vertex 369.512 103.375 180.5
      vertex 368.5 105.897 180.5
    endloop
  endfacet
  facet normal 0 0 1
    outer loop
      vertex 369.512 103.375 180.5
      vertex 367.739 105.344 180.5
      vertex 369.253 103.087 180.5
    endloop
  endfacet
  facet normal 0 0 1
    outer loop
      vertex 369.253 103.087 180.5
      vertex 367.109 104.645 180.5
      vertex 369.06 102.752 180.5
    endloop
  endfacet
  facet normal -0 0 1
    outer loop
      vertex 367.109 104.645 180.5
      vertex 369.253 103.087 180.5
      vertex 367.739 105.344 180.5
    endloop
  endfacet
  facet normal 0 0 1
    outer loop
      vertex 372.56 102.385 180.5
      vertex 374.75 104.022 180.5
      vertex 374.391 104.645 180.5
    endloop
  endfacet
  facet normal 0 0 1
    outer loop
      vertex 372.56 102.385 180.5
      vertex 374.391 104.645 180.5
      vertex 373.761 105.344 180.5
    endloop
  endfacet
  facet normal 0 0 1
    outer loop
      vertex 371.988 103.375 180.5
      vertex 373.761 105.344 180.5
      vertex 373 105.897 180.5
    endloop
  endfacet
  facet normal -0 0 1
    outer loop
      vertex 372.56 102.385 180.5
      vertex 374.75 101.849 180.5
      vertex 374.75 104.022 180.5
    endloop
  endfacet
  facet normal 0 0 1
    outer loop
      vertex 372.56 101.615 180.5
      vertex 374.75 101.849 180.5
      vertex 372.6 102 180.5
    endloop
  endfacet
  facet normal 0 0 1
    outer loop
      vertex 372.44 101.248 180.5
      vertex 374.75 101.849 180.5
      vertex 372.56 101.615 180.5
    endloop
  endfacet
  facet normal 0 0 1
    outer loop
      vertex 372.247 100.913 180.5
      vertex 374.75 101.849 180.5
      vertex 372.44 101.248 180.5
    endloop
  endfacet
  facet normal 0 0 1
    outer loop
      vertex 371.988 100.625 180.5
      vertex 374.75 101.849 180.5
      vertex 372.247 100.913 180.5
    endloop
  endfacet
  facet normal 0 0 1
    outer loop
      vertex 370.425 97.5247 180.5
      vertex 371.988 100.625 180.5
      vertex 371.675 100.398 180.5
    endloop
  endfacet
  facet normal -0 0 1
    outer loop
      vertex 371.988 100.625 180.5
      vertex 370.425 97.5247 180.5
      vertex 374.75 101.849 180.5
    endloop
  endfacet
  facet normal -0 0 1
    outer loop
      vertex 371.322 100.241 180.5
      vertex 370.425 97.5247 180.5
      vertex 371.675 100.398 180.5
    endloop
  endfacet
  facet normal -0 0 1
    outer loop
      vertex 370.943 100.16 180.5
      vertex 370.425 97.5247 180.5
      vertex 371.322 100.241 180.5
    endloop
  endfacet
  facet normal -0 0 1
    outer loop
      vertex 370.557 100.16 180.5
      vertex 370.425 97.5247 180.5
      vertex 370.943 100.16 180.5
    endloop
  endfacet
  facet normal 0 0 1
    outer loop
      vertex 370.557 100.16 180.5
      vertex 370.28 97.5247 180.5
      vertex 370.425 97.5247 180.5
    endloop
  endfacet
  facet normal 0 0 1
    outer loop
      vertex 370.178 100.241 180.5
      vertex 370.28 97.5247 180.5
      vertex 370.557 100.16 180.5
    endloop
  endfacet
  facet normal 0 0 1
    outer loop
      vertex 369.359 97.7202 180.5
      vertex 370.178 100.241 180.5
      vertex 369.825 100.398 180.5
    endloop
  endfacet
  facet normal 0 0 1
    outer loop
      vertex 368.5 98.1029 180.5
      vertex 369.825 100.398 180.5
      vertex 369.512 100.625 180.5
    endloop
  endfacet
  facet normal 0 0 1
    outer loop
      vertex 370.178 100.241 180.5
      vertex 369.359 97.7202 180.5
      vertex 370.28 97.5247 180.5
    endloop
  endfacet
  facet normal 0 0 1
    outer loop
      vertex 367.739 98.6558 180.5
      vertex 369.512 100.625 180.5
      vertex 369.253 100.913 180.5
    endloop
  endfacet
  facet normal 0 0 1
    outer loop
      vertex 367.109 99.355 180.5
      vertex 369.253 100.913 180.5
      vertex 369.06 101.248 180.5
    endloop
  endfacet
  facet normal 0 0 1
    outer loop
      vertex 366.639 100.17 180.5
      vertex 369.06 101.248 180.5
      vertex 368.94 101.615 180.5
    endloop
  endfacet
  facet normal 0 0 1
    outer loop
      vertex 369.825 100.398 180.5
      vertex 368.5 98.1029 180.5
      vertex 369.359 97.7202 180.5
    endloop
  endfacet
  facet normal 0 0 1
    outer loop
      vertex 366.348 101.064 180.5
      vertex 368.94 101.615 180.5
      vertex 368.9 102 180.5
    endloop
  endfacet
  facet normal -0 0 1
    outer loop
      vertex 366.639 103.83 180.5
      vertex 369.06 102.752 180.5
      vertex 367.109 104.645 180.5
    endloop
  endfacet
  facet normal 0 0 1
    outer loop
      vertex 369.06 102.752 180.5
      vertex 366.639 103.83 180.5
      vertex 368.94 102.385 180.5
    endloop
  endfacet
  facet normal 0 0 1
    outer loop
      vertex 369.512 100.625 180.5
      vertex 367.739 98.6558 180.5
      vertex 368.5 98.1029 180.5
    endloop
  endfacet
  facet normal -0 0 1
    outer loop
      vertex 366.348 102.936 180.5
      vertex 368.94 102.385 180.5
      vertex 366.639 103.83 180.5
    endloop
  endfacet
  facet normal 0 0 1
    outer loop
      vertex 369.253 100.913 180.5
      vertex 367.109 99.355 180.5
      vertex 367.739 98.6558 180.5
    endloop
  endfacet
  facet normal 0 0 1
    outer loop
      vertex 368.94 102.385 180.5
      vertex 366.348 102.936 180.5
      vertex 368.9 102 180.5
    endloop
  endfacet
  facet normal 0 0 1
    outer loop
      vertex 369.06 101.248 180.5
      vertex 366.639 100.17 180.5
      vertex 367.109 99.355 180.5
    endloop
  endfacet
  facet normal 0 0 1
    outer loop
      vertex 366.25 102 180.5
      vertex 368.9 102 180.5
      vertex 366.348 102.936 180.5
    endloop
  endfacet
  facet normal 0 0 1
    outer loop
      vertex 368.94 101.615 180.5
      vertex 366.348 101.064 180.5
      vertex 366.639 100.17 180.5
    endloop
  endfacet
  facet normal 0 0 1
    outer loop
      vertex 368.9 102 180.5
      vertex 366.25 102 180.5
      vertex 366.348 101.064 180.5
    endloop
  endfacet
  facet normal -0.587773 -0.809026 0
    outer loop
      vertex 371.675 103.602 171
      vertex 371.988 103.375 180.5
      vertex 371.675 103.602 180.5
    endloop
  endfacet
  facet normal -0.587773 -0.809026 -0
    outer loop
      vertex 371.988 103.375 180.5
      vertex 371.675 103.602 171
      vertex 371.988 103.375 171
    endloop
  endfacet
  facet normal -0.207923 -0.978145 0
    outer loop
      vertex 370.943 103.84 171
      vertex 371.322 103.759 180.5
      vertex 370.943 103.84 180.5
    endloop
  endfacet
  facet normal -0.207923 -0.978145 -0
    outer loop
      vertex 371.322 103.759 180.5
      vertex 370.943 103.84 171
      vertex 371.322 103.759 171
    endloop
  endfacet
  facet normal 0.994519 0.104551 0
    outer loop
      vertex 368.94 101.615 180.5
      vertex 368.9 102 171
      vertex 368.9 102 180.5
    endloop
  endfacet
  facet normal 0.994519 0.104551 0
    outer loop
      vertex 368.9 102 171
      vertex 368.94 101.615 180.5
      vertex 368.94 101.615 171
    endloop
  endfacet
  facet normal 0.207923 0.978145 -0
    outer loop
      vertex 370.557 100.16 171
      vertex 370.178 100.241 180.5
      vertex 370.557 100.16 180.5
    endloop
  endfacet
  facet normal 0.207923 0.978145 0
    outer loop
      vertex 370.178 100.241 180.5
      vertex 370.557 100.16 171
      vertex 370.178 100.241 171
    endloop
  endfacet
  facet normal 0.587786 0.809017 -0
    outer loop
      vertex 369.825 100.398 171
      vertex 369.512 100.625 180.5
      vertex 369.825 100.398 180.5
    endloop
  endfacet
  facet normal 0.587786 0.809017 0
    outer loop
      vertex 369.512 100.625 180.5
      vertex 369.825 100.398 171
      vertex 369.512 100.625 171
    endloop
  endfacet
  facet normal -0.587786 0.809017 0
    outer loop
      vertex 371.988 100.625 171
      vertex 371.675 100.398 180.5
      vertex 371.988 100.625 180.5
    endloop
  endfacet
  facet normal -0.587786 0.809017 0
    outer loop
      vertex 371.675 100.398 180.5
      vertex 371.988 100.625 171
      vertex 371.675 100.398 171
    endloop
  endfacet
  facet normal -0.207923 0.978145 0
    outer loop
      vertex 371.322 100.241 171
      vertex 370.943 100.16 180.5
      vertex 371.322 100.241 180.5
    endloop
  endfacet
  facet normal -0.207923 0.978145 0
    outer loop
      vertex 370.943 100.16 180.5
      vertex 371.322 100.241 171
      vertex 370.943 100.16 171
    endloop
  endfacet
  facet normal -0.86601 0.500026 0
    outer loop
      vertex 372.247 100.913 171
      vertex 372.44 101.248 180.5
      vertex 372.44 101.248 171
    endloop
  endfacet
  facet normal -0.86601 0.500026 0
    outer loop
      vertex 372.44 101.248 180.5
      vertex 372.247 100.913 171
      vertex 372.247 100.913 180.5
    endloop
  endfacet
  facet normal -0.743145 0.66913 0
    outer loop
      vertex 371.988 100.625 171
      vertex 372.247 100.913 180.5
      vertex 372.247 100.913 171
    endloop
  endfacet
  facet normal -0.743145 0.66913 0
    outer loop
      vertex 372.247 100.913 180.5
      vertex 371.988 100.625 171
      vertex 371.988 100.625 180.5
    endloop
  endfacet
  facet normal -0.994519 0.104551 0
    outer loop
      vertex 372.56 101.615 171
      vertex 372.6 102 180.5
      vertex 372.6 102 171
    endloop
  endfacet
  facet normal -0.994519 0.104551 0
    outer loop
      vertex 372.6 102 180.5
      vertex 372.56 101.615 171
      vertex 372.56 101.615 180.5
    endloop
  endfacet
  facet normal 0.406742 0.913543 -0
    outer loop
      vertex 370.178 100.241 171
      vertex 369.825 100.398 180.5
      vertex 370.178 100.241 180.5
    endloop
  endfacet
  facet normal 0.406742 0.913543 0
    outer loop
      vertex 369.825 100.398 180.5
      vertex 370.178 100.241 171
      vertex 369.825 100.398 171
    endloop
  endfacet
  facet normal 0.951062 0.308999 0
    outer loop
      vertex 369.06 101.248 180.5
      vertex 368.94 101.615 171
      vertex 368.94 101.615 180.5
    endloop
  endfacet
  facet normal 0.951062 0.308999 0
    outer loop
      vertex 368.94 101.615 171
      vertex 369.06 101.248 180.5
      vertex 369.06 101.248 171
    endloop
  endfacet
  facet normal 0.86601 0.500026 0
    outer loop
      vertex 369.253 100.913 180.5
      vertex 369.06 101.248 171
      vertex 369.06 101.248 180.5
    endloop
  endfacet
  facet normal 0.86601 0.500026 0
    outer loop
      vertex 369.06 101.248 171
      vertex 369.253 100.913 180.5
      vertex 369.253 100.913 171
    endloop
  endfacet
  facet normal -0.406742 0.913543 0
    outer loop
      vertex 371.675 100.398 171
      vertex 371.322 100.241 180.5
      vertex 371.675 100.398 180.5
    endloop
  endfacet
  facet normal -0.406742 0.913543 0
    outer loop
      vertex 371.322 100.241 180.5
      vertex 371.675 100.398 171
      vertex 371.322 100.241 171
    endloop
  endfacet
  facet normal 0.994523 -0.10452 0
    outer loop
      vertex 366.25 102 184
      vertex 366.348 102.936 180.5
      vertex 366.348 102.936 184
    endloop
  endfacet
  facet normal 0.994523 -0.10452 0
    outer loop
      vertex 366.348 102.936 180.5
      vertex 366.25 102 184
      vertex 366.25 102 180.5
    endloop
  endfacet
  facet normal 0 -1 0
    outer loop
      vertex 370.28 106.475 180.5
      vertex 371.22 106.475 184
      vertex 370.28 106.475 184
    endloop
  endfacet
  facet normal 0 -1 -0
    outer loop
      vertex 371.22 106.475 184
      vertex 370.28 106.475 180.5
      vertex 371.22 106.475 180.5
    endloop
  endfacet
  facet normal 0 1 -0
    outer loop
      vertex 370.425 97.5247 180.5
      vertex 370.28 97.5247 184
      vertex 370.425 97.5247 184
    endloop
  endfacet
  facet normal 0 1 0
    outer loop
      vertex 370.28 97.5247 184
      vertex 370.425 97.5247 180.5
      vertex 370.28 97.5247 180.5
    endloop
  endfacet
  facet normal 0.743147 -0.669128 0
    outer loop
      vertex 367.109 104.645 184
      vertex 367.739 105.344 180.5
      vertex 367.739 105.344 184
    endloop
  endfacet
  facet normal 0.743147 -0.669128 0
    outer loop
      vertex 367.739 105.344 180.5
      vertex 367.109 104.645 184
      vertex 367.109 104.645 180.5
    endloop
  endfacet
  facet normal 0.951056 -0.309017 0
    outer loop
      vertex 366.348 102.936 184
      vertex 366.639 103.83 180.5
      vertex 366.639 103.83 184
    endloop
  endfacet
  facet normal 0.951056 -0.309017 0
    outer loop
      vertex 366.639 103.83 180.5
      vertex 366.348 102.936 184
      vertex 366.348 102.936 180.5
    endloop
  endfacet
  facet normal -0.743147 -0.669128 0
    outer loop
      vertex 374.391 104.645 180.5
      vertex 373.761 105.344 184
      vertex 373.761 105.344 180.5
    endloop
  endfacet
  facet normal -0.743147 -0.669128 0
    outer loop
      vertex 373.761 105.344 184
      vertex 374.391 104.645 180.5
      vertex 374.391 104.645 184
    endloop
  endfacet
  facet normal -0.406736 -0.913546 0
    outer loop
      vertex 372.141 106.28 180.5
      vertex 373 105.897 184
      vertex 372.141 106.28 184
    endloop
  endfacet
  facet normal -0.406736 -0.913546 -0
    outer loop
      vertex 373 105.897 184
      vertex 372.141 106.28 180.5
      vertex 373 105.897 180.5
    endloop
  endfacet
  facet normal 0.743147 0.669128 0
    outer loop
      vertex 367.739 98.6558 184
      vertex 367.109 99.355 180.5
      vertex 367.109 99.355 184
    endloop
  endfacet
  facet normal 0.743147 0.669128 0
    outer loop
      vertex 367.109 99.355 180.5
      vertex 367.739 98.6558 184
      vertex 367.739 98.6558 180.5
    endloop
  endfacet
  facet normal 0.866017 -0.500015 0
    outer loop
      vertex 366.639 103.83 184
      vertex 367.109 104.645 180.5
      vertex 367.109 104.645 184
    endloop
  endfacet
  facet normal 0.866017 -0.500015 0
    outer loop
      vertex 367.109 104.645 180.5
      vertex 366.639 103.83 184
      vertex 366.639 103.83 180.5
    endloop
  endfacet
  facet normal 0.406736 -0.913546 0
    outer loop
      vertex 368.5 105.897 180.5
      vertex 369.359 106.28 184
      vertex 368.5 105.897 184
    endloop
  endfacet
  facet normal 0.406736 -0.913546 0
    outer loop
      vertex 369.359 106.28 184
      vertex 368.5 105.897 180.5
      vertex 369.359 106.28 180.5
    endloop
  endfacet
  facet normal 0.207913 -0.978147 0
    outer loop
      vertex 369.359 106.28 180.5
      vertex 370.28 106.475 184
      vertex 369.359 106.28 184
    endloop
  endfacet
  facet normal 0.207913 -0.978147 0
    outer loop
      vertex 370.28 106.475 184
      vertex 369.359 106.28 180.5
      vertex 370.28 106.475 180.5
    endloop
  endfacet
  facet normal 0.587785 -0.809017 0
    outer loop
      vertex 367.739 105.344 180.5
      vertex 368.5 105.897 184
      vertex 367.739 105.344 184
    endloop
  endfacet
  facet normal 0.587785 -0.809017 0
    outer loop
      vertex 368.5 105.897 184
      vertex 367.739 105.344 180.5
      vertex 368.5 105.897 180.5
    endloop
  endfacet
  facet normal -0.866019 -0.500011 0
    outer loop
      vertex 374.75 104.022 180.5
      vertex 374.391 104.645 184
      vertex 374.391 104.645 180.5
    endloop
  endfacet
  facet normal -0.866019 -0.500011 0
    outer loop
      vertex 374.391 104.645 184
      vertex 374.75 104.022 180.5
      vertex 374.75 104.022 184
    endloop
  endfacet
  facet normal -0.587785 -0.809017 0
    outer loop
      vertex 373 105.897 180.5
      vertex 373.761 105.344 184
      vertex 373 105.897 184
    endloop
  endfacet
  facet normal -0.587785 -0.809017 -0
    outer loop
      vertex 373.761 105.344 184
      vertex 373 105.897 180.5
      vertex 373.761 105.344 180.5
    endloop
  endfacet
  facet normal -0.207913 -0.978147 0
    outer loop
      vertex 371.22 106.475 180.5
      vertex 372.141 106.28 184
      vertex 371.22 106.475 184
    endloop
  endfacet
  facet normal -0.207913 -0.978147 -0
    outer loop
      vertex 372.141 106.28 184
      vertex 371.22 106.475 180.5
      vertex 372.141 106.28 180.5
    endloop
  endfacet
  facet normal 0.994523 0.10452 0
    outer loop
      vertex 366.348 101.064 184
      vertex 366.25 102 180.5
      vertex 366.25 102 184
    endloop
  endfacet
  facet normal 0.994523 0.10452 0
    outer loop
      vertex 366.25 102 180.5
      vertex 366.348 101.064 184
      vertex 366.348 101.064 180.5
    endloop
  endfacet
  facet normal 0.207913 0.978147 -0
    outer loop
      vertex 370.28 97.5247 180.5
      vertex 369.359 97.7202 184
      vertex 370.28 97.5247 184
    endloop
  endfacet
  facet normal 0.207913 0.978147 0
    outer loop
      vertex 369.359 97.7202 184
      vertex 370.28 97.5247 180.5
      vertex 369.359 97.7202 180.5
    endloop
  endfacet
  facet normal 0.587791 0.809013 -0
    outer loop
      vertex 368.5 98.1029 180.5
      vertex 367.739 98.6558 184
      vertex 368.5 98.1029 184
    endloop
  endfacet
  facet normal 0.587791 0.809013 0
    outer loop
      vertex 367.739 98.6558 184
      vertex 368.5 98.1029 180.5
      vertex 367.739 98.6558 180.5
    endloop
  endfacet
  facet normal 0.406729 0.913549 -0
    outer loop
      vertex 369.359 97.7202 180.5
      vertex 368.5 98.1029 184
      vertex 369.359 97.7202 184
    endloop
  endfacet
  facet normal 0.406729 0.913549 0
    outer loop
      vertex 368.5 98.1029 184
      vertex 369.359 97.7202 180.5
      vertex 368.5 98.1029 180.5
    endloop
  endfacet
  facet normal 0.951056 0.309017 0
    outer loop
      vertex 366.639 100.17 184
      vertex 366.348 101.064 180.5
      vertex 366.348 101.064 184
    endloop
  endfacet
  facet normal 0.951056 0.309017 0
    outer loop
      vertex 366.348 101.064 180.5
      vertex 366.639 100.17 184
      vertex 366.639 100.17 180.5
    endloop
  endfacet
  facet normal 0.866017 0.500015 0
    outer loop
      vertex 367.109 99.355 184
      vertex 366.639 100.17 180.5
      vertex 366.639 100.17 184
    endloop
  endfacet
  facet normal 0.866017 0.500015 0
    outer loop
      vertex 366.639 100.17 180.5
      vertex 367.109 99.355 184
      vertex 367.109 99.355 180.5
    endloop
  endfacet
endsolid OpenSCAD_Model
