solid OpenSCAD_Model
  facet normal -1 0 0
    outer loop
      vertex -21 0 -5
      vertex -21 8 0
      vertex -21 8 -5
    endloop
  endfacet
  facet normal -1 -0 0
    outer loop
      vertex -21 8 0
      vertex -21 0 -5
      vertex -21 0 0
    endloop
  endfacet
  facet normal -0 0 1
    outer loop
      vertex -15.1904 3.61536 0
      vertex -9.15734 0 0
      vertex -15.15 4 0
    endloop
  endfacet
  facet normal -0 0 1
    outer loop
      vertex -15.3099 3.24754 0
      vertex -9.15734 0 0
      vertex -15.1904 3.61536 0
    endloop
  endfacet
  facet normal -0 0 1
    outer loop
      vertex -15.5033 2.9126 0
      vertex -9.15734 0 0
      vertex -15.3099 3.24754 0
    endloop
  endfacet
  facet normal -0 0 1
    outer loop
      vertex -15.7621 2.62518 0
      vertex -9.15734 0 0
      vertex -15.5033 2.9126 0
    endloop
  endfacet
  facet normal -0 0 1
    outer loop
      vertex -16.075 2.39785 0
      vertex -9.15734 0 0
      vertex -15.7621 2.62518 0
    endloop
  endfacet
  facet normal -0 0 1
    outer loop
      vertex -16.4283 2.24055 0
      vertex -9.15734 0 0
      vertex -16.075 2.39785 0
    endloop
  endfacet
  facet normal -0 0 1
    outer loop
      vertex -16.8066 2.16013 0
      vertex -9.15734 0 0
      vertex -16.4283 2.24055 0
    endloop
  endfacet
  facet normal 0 0 1
    outer loop
      vertex -21 0 0
      vertex -16.8066 2.16013 0
      vertex -17.1934 2.16013 0
    endloop
  endfacet
  facet normal 0 0 1
    outer loop
      vertex -21 0 0
      vertex -17.1934 2.16013 0
      vertex -17.5717 2.24055 0
    endloop
  endfacet
  facet normal 0 0 1
    outer loop
      vertex -21 0 0
      vertex -18.85 4 0
      vertex -21 8 0
    endloop
  endfacet
  facet normal 0 0 1
    outer loop
      vertex -18.85 4 0
      vertex -21 0 0
      vertex -18.8096 3.61536 0
    endloop
  endfacet
  facet normal 0 0 1
    outer loop
      vertex -16.8066 2.16013 0
      vertex -21 0 0
      vertex -9.15734 0 0
    endloop
  endfacet
  facet normal 0 0 1
    outer loop
      vertex -17.925 2.39785 0
      vertex -21 0 0
      vertex -17.5717 2.24055 0
    endloop
  endfacet
  facet normal 0 0 1
    outer loop
      vertex -18.2379 2.62518 0
      vertex -21 0 0
      vertex -17.925 2.39785 0
    endloop
  endfacet
  facet normal 0 0 1
    outer loop
      vertex -18.4967 2.9126 0
      vertex -21 0 0
      vertex -18.2379 2.62518 0
    endloop
  endfacet
  facet normal 0 0 1
    outer loop
      vertex -18.6901 3.24754 0
      vertex -21 0 0
      vertex -18.4967 2.9126 0
    endloop
  endfacet
  facet normal 0 0 1
    outer loop
      vertex -18.8096 3.61536 0
      vertex -21 0 0
      vertex -18.6901 3.24754 0
    endloop
  endfacet
  facet normal 0 0 1
    outer loop
      vertex 9.13545 -0.0673656 0
      vertex 5.34424 1.62059 0
      vertex 8.09017 -1.87785 0
    endloop
  endfacet
  facet normal -0 0 1
    outer loop
      vertex 4.73275 0.561457 0
      vertex 8.09017 -1.87785 0
      vertex 5.34424 1.62059 0
    endloop
  endfacet
  facet normal 0 0 1
    outer loop
      vertex 8.09017 -1.87785 0
      vertex 4.73275 0.561457 0
      vertex 6.69131 -3.43145 0
    endloop
  endfacet
  facet normal -0 0 1
    outer loop
      vertex 3.91441 -0.347397 0
      vertex 6.69131 -3.43145 0
      vertex 4.73275 0.561457 0
    endloop
  endfacet
  facet normal 0 0 1
    outer loop
      vertex 6.69131 -3.43145 0
      vertex 3.91441 -0.347397 0
      vertex 5 -4.66025 0
    endloop
  endfacet
  facet normal -0 0 1
    outer loop
      vertex 2.925 -1.06625 0
      vertex 5 -4.66025 0
      vertex 3.91441 -0.347397 0
    endloop
  endfacet
  facet normal 0 0 1
    outer loop
      vertex 5 -4.66025 0
      vertex 2.925 -1.06625 0
      vertex 3.09017 -5.51056 0
    endloop
  endfacet
  facet normal -0 0 1
    outer loop
      vertex 1.80775 -1.56368 0
      vertex 3.09017 -5.51056 0
      vertex 2.925 -1.06625 0
    endloop
  endfacet
  facet normal 0 0 1
    outer loop
      vertex 1.80775 -1.56368 0
      vertex 1.04528 -5.94522 0
      vertex 3.09017 -5.51056 0
    endloop
  endfacet
  facet normal -0 0 1
    outer loop
      vertex 0.611491 -1.81795 0
      vertex 1.04528 -5.94522 0
      vertex 1.80775 -1.56368 0
    endloop
  endfacet
  facet normal -0 0 1
    outer loop
      vertex -0.611491 -1.81795 0
      vertex 1.04528 -5.94522 0
      vertex 0.611491 -1.81795 0
    endloop
  endfacet
  facet normal 0 0 1
    outer loop
      vertex -0.611491 -1.81795 0
      vertex -1.04528 -5.94522 0
      vertex 1.04528 -5.94522 0
    endloop
  endfacet
  facet normal 0 0 1
    outer loop
      vertex -1.80775 -1.56368 0
      vertex -1.04528 -5.94522 0
      vertex -0.611491 -1.81795 0
    endloop
  endfacet
  facet normal 0 0 1
    outer loop
      vertex -3.09017 -5.51056 0
      vertex -1.80775 -1.56368 0
      vertex -2.925 -1.06625 0
    endloop
  endfacet
  facet normal 0 0 1
    outer loop
      vertex -1.80775 -1.56368 0
      vertex -3.09017 -5.51056 0
      vertex -1.04528 -5.94522 0
    endloop
  endfacet
  facet normal 0 0 1
    outer loop
      vertex -5 -4.66025 0
      vertex -2.925 -1.06625 0
      vertex -3.91441 -0.347397 0
    endloop
  endfacet
  facet normal 0 0 1
    outer loop
      vertex -6.69131 -3.43145 0
      vertex -3.91441 -0.347397 0
      vertex -4.73275 0.561457 0
    endloop
  endfacet
  facet normal 0 0 1
    outer loop
      vertex -2.925 -1.06625 0
      vertex -5 -4.66025 0
      vertex -3.09017 -5.51056 0
    endloop
  endfacet
  facet normal 0 0 1
    outer loop
      vertex -8.09017 -1.87785 0
      vertex -4.73275 0.561457 0
      vertex -5.34424 1.62059 0
    endloop
  endfacet
  facet normal 0 0 1
    outer loop
      vertex -9.15734 0 0
      vertex -5.34424 1.62059 0
      vertex -5.72216 2.78372 0
    endloop
  endfacet
  facet normal 0 0 1
    outer loop
      vertex -9.15734 0 0
      vertex -5.72216 2.78372 0
      vertex -5.85 4 0
    endloop
  endfacet
  facet normal -0 0 1
    outer loop
      vertex -9.15734 8 0
      vertex -5.34424 6.37941 0
      vertex -9.13545 8.06737 0
    endloop
  endfacet
  facet normal 0 0 1
    outer loop
      vertex -3.91441 -0.347397 0
      vertex -6.69131 -3.43145 0
      vertex -5 -4.66025 0
    endloop
  endfacet
  facet normal 0 0 1
    outer loop
      vertex -5.34424 6.37941 0
      vertex -9.15734 8 0
      vertex -5.72216 5.21628 0
    endloop
  endfacet
  facet normal 0 0 1
    outer loop
      vertex -4.73275 0.561457 0
      vertex -8.09017 -1.87785 0
      vertex -6.69131 -3.43145 0
    endloop
  endfacet
  facet normal 0 0 1
    outer loop
      vertex -5.72216 5.21628 0
      vertex -9.15734 8 0
      vertex -5.85 4 0
    endloop
  endfacet
  facet normal 0 0 1
    outer loop
      vertex -9.15734 0 0
      vertex -5.85 4 0
      vertex -9.15734 8 0
    endloop
  endfacet
  facet normal 0 0 1
    outer loop
      vertex -5.34424 1.62059 0
      vertex -9.15734 0 0
      vertex -9.13545 -0.0673656 0
    endloop
  endfacet
  facet normal 0 0 1
    outer loop
      vertex -5.34424 1.62059 0
      vertex -9.13545 -0.0673656 0
      vertex -8.09017 -1.87785 0
    endloop
  endfacet
  facet normal 0 0 1
    outer loop
      vertex -9.15734 8 0
      vertex -15.15 4 0
      vertex -9.15734 0 0
    endloop
  endfacet
  facet normal 0 0 1
    outer loop
      vertex -9.15734 8 0
      vertex -15.1904 4.38464 0
      vertex -15.15 4 0
    endloop
  endfacet
  facet normal 0 0 1
    outer loop
      vertex -9.15734 8 0
      vertex -15.3099 4.75246 0
      vertex -15.1904 4.38464 0
    endloop
  endfacet
  facet normal 0 0 1
    outer loop
      vertex -9.15734 8 0
      vertex -15.5033 5.0874 0
      vertex -15.3099 4.75246 0
    endloop
  endfacet
  facet normal 0 0 1
    outer loop
      vertex -9.15734 8 0
      vertex -15.7621 5.37482 0
      vertex -15.5033 5.0874 0
    endloop
  endfacet
  facet normal 0 0 1
    outer loop
      vertex -9.15734 8 0
      vertex -16.075 5.60215 0
      vertex -15.7621 5.37482 0
    endloop
  endfacet
  facet normal 0 0 1
    outer loop
      vertex -9.15734 8 0
      vertex -16.4283 5.75945 0
      vertex -16.075 5.60215 0
    endloop
  endfacet
  facet normal 0 0 1
    outer loop
      vertex -9.15734 8 0
      vertex -16.8066 5.83986 0
      vertex -16.4283 5.75945 0
    endloop
  endfacet
  facet normal -0 0 1
    outer loop
      vertex -21 8 0
      vertex -16.8066 5.83986 0
      vertex -9.15734 8 0
    endloop
  endfacet
  facet normal 0 0 1
    outer loop
      vertex -16.8066 5.83986 0
      vertex -21 8 0
      vertex -17.1934 5.83986 0
    endloop
  endfacet
  facet normal 0 0 1
    outer loop
      vertex -18.8096 4.38464 0
      vertex -21 8 0
      vertex -18.85 4 0
    endloop
  endfacet
  facet normal 0 0 1
    outer loop
      vertex -18.6901 4.75246 0
      vertex -21 8 0
      vertex -18.8096 4.38464 0
    endloop
  endfacet
  facet normal 0 0 1
    outer loop
      vertex -18.4967 5.0874 0
      vertex -21 8 0
      vertex -18.6901 4.75246 0
    endloop
  endfacet
  facet normal 0 0 1
    outer loop
      vertex -18.2379 5.37482 0
      vertex -21 8 0
      vertex -18.4967 5.0874 0
    endloop
  endfacet
  facet normal 0 0 1
    outer loop
      vertex -17.925 5.60215 0
      vertex -21 8 0
      vertex -18.2379 5.37482 0
    endloop
  endfacet
  facet normal 0 0 1
    outer loop
      vertex -17.5717 5.75945 0
      vertex -21 8 0
      vertex -17.925 5.60215 0
    endloop
  endfacet
  facet normal 0 0 1
    outer loop
      vertex -17.1934 5.83986 0
      vertex -21 8 0
      vertex -17.5717 5.75945 0
    endloop
  endfacet
  facet normal 0 0 1
    outer loop
      vertex 21 8 0
      vertex 18.85 4 0
      vertex 21 0 0
    endloop
  endfacet
  facet normal 0 0 1
    outer loop
      vertex 21 8 0
      vertex 18.8096 4.38464 0
      vertex 18.85 4 0
    endloop
  endfacet
  facet normal 0 0 1
    outer loop
      vertex 21 8 0
      vertex 18.6901 4.75246 0
      vertex 18.8096 4.38464 0
    endloop
  endfacet
  facet normal 0 0 1
    outer loop
      vertex 21 8 0
      vertex 18.4967 5.0874 0
      vertex 18.6901 4.75246 0
    endloop
  endfacet
  facet normal 0 0 1
    outer loop
      vertex 21 8 0
      vertex 18.2379 5.37482 0
      vertex 18.4967 5.0874 0
    endloop
  endfacet
  facet normal 0 0 1
    outer loop
      vertex 21 8 0
      vertex 17.925 5.60215 0
      vertex 18.2379 5.37482 0
    endloop
  endfacet
  facet normal 0 0 1
    outer loop
      vertex 21 8 0
      vertex 17.5717 5.75945 0
      vertex 17.925 5.60215 0
    endloop
  endfacet
  facet normal 0 0 1
    outer loop
      vertex 21 8 0
      vertex 17.1934 5.83986 0
      vertex 17.5717 5.75945 0
    endloop
  endfacet
  facet normal 0 0 1
    outer loop
      vertex 21 8 0
      vertex 16.8066 5.83986 0
      vertex 17.1934 5.83986 0
    endloop
  endfacet
  facet normal -0 0 1
    outer loop
      vertex 9.15734 8 0
      vertex 16.8066 5.83986 0
      vertex 21 8 0
    endloop
  endfacet
  facet normal 0 0 1
    outer loop
      vertex 16.8066 5.83986 0
      vertex 9.15734 8 0
      vertex 16.4283 5.75945 0
    endloop
  endfacet
  facet normal 0 0 1
    outer loop
      vertex 15.1904 4.38464 0
      vertex 9.15734 8 0
      vertex 15.15 4 0
    endloop
  endfacet
  facet normal 0 0 1
    outer loop
      vertex 15.3099 4.75246 0
      vertex 9.15734 8 0
      vertex 15.1904 4.38464 0
    endloop
  endfacet
  facet normal 0 0 1
    outer loop
      vertex 15.5033 5.0874 0
      vertex 9.15734 8 0
      vertex 15.3099 4.75246 0
    endloop
  endfacet
  facet normal 0 0 1
    outer loop
      vertex 15.7621 5.37482 0
      vertex 9.15734 8 0
      vertex 15.5033 5.0874 0
    endloop
  endfacet
  facet normal 0 0 1
    outer loop
      vertex 16.075 5.60215 0
      vertex 9.15734 8 0
      vertex 15.7621 5.37482 0
    endloop
  endfacet
  facet normal 0 0 1
    outer loop
      vertex 16.4283 5.75945 0
      vertex 9.15734 8 0
      vertex 16.075 5.60215 0
    endloop
  endfacet
  facet normal -0 0 1
    outer loop
      vertex 18.8096 3.61536 0
      vertex 21 0 0
      vertex 18.85 4 0
    endloop
  endfacet
  facet normal -0 0 1
    outer loop
      vertex 18.6901 3.24754 0
      vertex 21 0 0
      vertex 18.8096 3.61536 0
    endloop
  endfacet
  facet normal -0 0 1
    outer loop
      vertex 18.4967 2.9126 0
      vertex 21 0 0
      vertex 18.6901 3.24754 0
    endloop
  endfacet
  facet normal -0 0 1
    outer loop
      vertex 18.2379 2.62518 0
      vertex 21 0 0
      vertex 18.4967 2.9126 0
    endloop
  endfacet
  facet normal -0 0 1
    outer loop
      vertex 17.925 2.39785 0
      vertex 21 0 0
      vertex 18.2379 2.62518 0
    endloop
  endfacet
  facet normal -0 0 1
    outer loop
      vertex 17.5717 2.24055 0
      vertex 21 0 0
      vertex 17.925 2.39785 0
    endloop
  endfacet
  facet normal -0 0 1
    outer loop
      vertex 17.1934 2.16013 0
      vertex 21 0 0
      vertex 17.5717 2.24055 0
    endloop
  endfacet
  facet normal -0 0 1
    outer loop
      vertex 16.8066 2.16013 0
      vertex 21 0 0
      vertex 17.1934 2.16013 0
    endloop
  endfacet
  facet normal 0 0 1
    outer loop
      vertex 9.15734 0 0
      vertex 16.8066 2.16013 0
      vertex 16.4283 2.24055 0
    endloop
  endfacet
  facet normal 0 0 1
    outer loop
      vertex 9.15734 0 0
      vertex 16.4283 2.24055 0
      vertex 16.075 2.39785 0
    endloop
  endfacet
  facet normal 0 0 1
    outer loop
      vertex 9.15734 0 0
      vertex 15.15 4 0
      vertex 9.15734 8 0
    endloop
  endfacet
  facet normal 0 0 1
    outer loop
      vertex 15.15 4 0
      vertex 9.15734 0 0
      vertex 15.1904 3.61536 0
    endloop
  endfacet
  facet normal 0 0 1
    outer loop
      vertex 15.1904 3.61536 0
      vertex 9.15734 0 0
      vertex 15.3099 3.24754 0
    endloop
  endfacet
  facet normal 0 0 1
    outer loop
      vertex 15.3099 3.24754 0
      vertex 9.15734 0 0
      vertex 15.5033 2.9126 0
    endloop
  endfacet
  facet normal 0 0 1
    outer loop
      vertex 16.8066 2.16013 0
      vertex 9.15734 0 0
      vertex 21 0 0
    endloop
  endfacet
  facet normal 0 0 1
    outer loop
      vertex 15.7621 2.62518 0
      vertex 9.15734 0 0
      vertex 16.075 2.39785 0
    endloop
  endfacet
  facet normal 0 0 1
    outer loop
      vertex 15.5033 2.9126 0
      vertex 9.15734 0 0
      vertex 15.7621 2.62518 0
    endloop
  endfacet
  facet normal 0 0 1
    outer loop
      vertex 5.34424 6.37941 0
      vertex 9.15734 8 0
      vertex 9.13545 8.06737 0
    endloop
  endfacet
  facet normal 0 0 1
    outer loop
      vertex 9.15734 8 0
      vertex 5.85 4 0
      vertex 9.15734 0 0
    endloop
  endfacet
  facet normal 0 0 1
    outer loop
      vertex 5.34424 6.37941 0
      vertex 9.13545 8.06737 0
      vertex 8.09017 9.87785 0
    endloop
  endfacet
  facet normal -0 0 1
    outer loop
      vertex 5.72216 2.78372 0
      vertex 9.15734 0 0
      vertex 5.85 4 0
    endloop
  endfacet
  facet normal 0 0 1
    outer loop
      vertex 4.73275 7.43854 0
      vertex 8.09017 9.87785 0
      vertex 6.69131 11.4314 0
    endloop
  endfacet
  facet normal -0 0 1
    outer loop
      vertex 5.34424 1.62059 0
      vertex 9.15734 0 0
      vertex 5.72216 2.78372 0
    endloop
  endfacet
  facet normal 0 0 1
    outer loop
      vertex 9.15734 0 0
      vertex 5.34424 1.62059 0
      vertex 9.13545 -0.0673656 0
    endloop
  endfacet
  facet normal 0 0 1
    outer loop
      vertex 9.15734 8 0
      vertex 5.72216 5.21628 0
      vertex 5.85 4 0
    endloop
  endfacet
  facet normal 0 0 1
    outer loop
      vertex 9.15734 8 0
      vertex 5.34424 6.37941 0
      vertex 5.72216 5.21628 0
    endloop
  endfacet
  facet normal 0 0 1
    outer loop
      vertex 3.91441 8.3474 0
      vertex 6.69131 11.4314 0
      vertex 5 12.6603 0
    endloop
  endfacet
  facet normal 0 0 1
    outer loop
      vertex 8.09017 9.87785 0
      vertex 4.73275 7.43854 0
      vertex 5.34424 6.37941 0
    endloop
  endfacet
  facet normal 0 0 1
    outer loop
      vertex 6.69131 11.4314 0
      vertex 3.91441 8.3474 0
      vertex 4.73275 7.43854 0
    endloop
  endfacet
  facet normal 0 0 1
    outer loop
      vertex 2.925 9.06625 0
      vertex 5 12.6603 0
      vertex 3.09017 13.5106 0
    endloop
  endfacet
  facet normal 0 0 1
    outer loop
      vertex 5 12.6603 0
      vertex 2.925 9.06625 0
      vertex 3.91441 8.3474 0
    endloop
  endfacet
  facet normal 0 0 1
    outer loop
      vertex 3.09017 13.5106 0
      vertex 1.80775 9.56368 0
      vertex 2.925 9.06625 0
    endloop
  endfacet
  facet normal 0 0 1
    outer loop
      vertex 1.04528 13.9452 0
      vertex 1.80775 9.56368 0
      vertex 3.09017 13.5106 0
    endloop
  endfacet
  facet normal 0 0 1
    outer loop
      vertex 1.04528 13.9452 0
      vertex 0.611491 9.81795 0
      vertex 1.80775 9.56368 0
    endloop
  endfacet
  facet normal 0 0 1
    outer loop
      vertex 1.04528 13.9452 0
      vertex -0.611491 9.81795 0
      vertex 0.611491 9.81795 0
    endloop
  endfacet
  facet normal -0 0 1
    outer loop
      vertex -1.04528 13.9452 0
      vertex -0.611491 9.81795 0
      vertex 1.04528 13.9452 0
    endloop
  endfacet
  facet normal 0 0 1
    outer loop
      vertex -1.04528 13.9452 0
      vertex -1.80775 9.56368 0
      vertex -0.611491 9.81795 0
    endloop
  endfacet
  facet normal -0 0 1
    outer loop
      vertex -3.09017 13.5106 0
      vertex -1.80775 9.56368 0
      vertex -1.04528 13.9452 0
    endloop
  endfacet
  facet normal 0 0 1
    outer loop
      vertex -1.80775 9.56368 0
      vertex -3.09017 13.5106 0
      vertex -2.925 9.06625 0
    endloop
  endfacet
  facet normal -0 0 1
    outer loop
      vertex -5 12.6603 0
      vertex -2.925 9.06625 0
      vertex -3.09017 13.5106 0
    endloop
  endfacet
  facet normal 0 0 1
    outer loop
      vertex -2.925 9.06625 0
      vertex -5 12.6603 0
      vertex -3.91441 8.3474 0
    endloop
  endfacet
  facet normal -0 0 1
    outer loop
      vertex -6.69131 11.4314 0
      vertex -3.91441 8.3474 0
      vertex -5 12.6603 0
    endloop
  endfacet
  facet normal 0 0 1
    outer loop
      vertex -3.91441 8.3474 0
      vertex -6.69131 11.4314 0
      vertex -4.73275 7.43854 0
    endloop
  endfacet
  facet normal -0 0 1
    outer loop
      vertex -8.09017 9.87785 0
      vertex -4.73275 7.43854 0
      vertex -6.69131 11.4314 0
    endloop
  endfacet
  facet normal 0 0 1
    outer loop
      vertex -4.73275 7.43854 0
      vertex -8.09017 9.87785 0
      vertex -5.34424 6.37941 0
    endloop
  endfacet
  facet normal -0 0 1
    outer loop
      vertex -9.13545 8.06737 0
      vertex -5.34424 6.37941 0
      vertex -8.09017 9.87785 0
    endloop
  endfacet
  facet normal 0 1 -0
    outer loop
      vertex -9.15734 8 -5
      vertex -21 8 0
      vertex -9.15734 8 0
    endloop
  endfacet
  facet normal 0 1 0
    outer loop
      vertex -21 8 0
      vertex -9.15734 8 -5
      vertex -21 8 -5
    endloop
  endfacet
  facet normal 0 0 -1
    outer loop
      vertex -15.1904 3.61536 -5
      vertex -10 4 -5
      vertex -9.78148 1.92088 -5
    endloop
  endfacet
  facet normal 0 0 -1
    outer loop
      vertex -15.7621 2.62518 -5
      vertex -9.78148 1.92088 -5
      vertex -9.15734 0 -5
    endloop
  endfacet
  facet normal -0 0 -1
    outer loop
      vertex -10 4 -5
      vertex -15.1904 3.61536 -5
      vertex -15.15 4 -5
    endloop
  endfacet
  facet normal 0 0 -1
    outer loop
      vertex -9.78148 1.92088 -5
      vertex -15.3099 3.24754 -5
      vertex -15.1904 3.61536 -5
    endloop
  endfacet
  facet normal 0 0 -1
    outer loop
      vertex -9.78148 1.92088 -5
      vertex -15.5033 2.9126 -5
      vertex -15.3099 3.24754 -5
    endloop
  endfacet
  facet normal 0 0 -1
    outer loop
      vertex -9.78148 1.92088 -5
      vertex -15.7621 2.62518 -5
      vertex -15.5033 2.9126 -5
    endloop
  endfacet
  facet normal 0 0 -1
    outer loop
      vertex -9.15734 0 -5
      vertex -16.075 2.39785 -5
      vertex -15.7621 2.62518 -5
    endloop
  endfacet
  facet normal 0 0 -1
    outer loop
      vertex -9.15734 0 -5
      vertex -16.4283 2.24055 -5
      vertex -16.075 2.39785 -5
    endloop
  endfacet
  facet normal 0 0 -1
    outer loop
      vertex -9.15734 0 -5
      vertex -16.8066 2.16013 -5
      vertex -16.4283 2.24055 -5
    endloop
  endfacet
  facet normal 0 0 -1
    outer loop
      vertex -21 0 -5
      vertex -16.8066 2.16013 -5
      vertex -9.15734 0 -5
    endloop
  endfacet
  facet normal -0 0 -1
    outer loop
      vertex -16.8066 2.16013 -5
      vertex -21 0 -5
      vertex -17.1934 2.16013 -5
    endloop
  endfacet
  facet normal -0 0 -1
    outer loop
      vertex -18.8096 3.61536 -5
      vertex -21 0 -5
      vertex -18.85 4 -5
    endloop
  endfacet
  facet normal -0 0 -1
    outer loop
      vertex -18.6901 3.24754 -5
      vertex -21 0 -5
      vertex -18.8096 3.61536 -5
    endloop
  endfacet
  facet normal -0 0 -1
    outer loop
      vertex -18.4967 2.9126 -5
      vertex -21 0 -5
      vertex -18.6901 3.24754 -5
    endloop
  endfacet
  facet normal -0 0 -1
    outer loop
      vertex -18.2379 2.62518 -5
      vertex -21 0 -5
      vertex -18.4967 2.9126 -5
    endloop
  endfacet
  facet normal -0 0 -1
    outer loop
      vertex -17.925 2.39785 -5
      vertex -21 0 -5
      vertex -18.2379 2.62518 -5
    endloop
  endfacet
  facet normal -0 0 -1
    outer loop
      vertex -17.5717 2.24055 -5
      vertex -21 0 -5
      vertex -17.925 2.39785 -5
    endloop
  endfacet
  facet normal -0 0 -1
    outer loop
      vertex -17.1934 2.16013 -5
      vertex -21 0 -5
      vertex -17.5717 2.24055 -5
    endloop
  endfacet
  facet normal 0 0 -1
    outer loop
      vertex -15.1904 4.38464 -5
      vertex -10 4 -5
      vertex -15.15 4 -5
    endloop
  endfacet
  facet normal 0 0 -1
    outer loop
      vertex -10 4 -5
      vertex -15.1904 4.38464 -5
      vertex -9.78148 6.07912 -5
    endloop
  endfacet
  facet normal 0 0 -1
    outer loop
      vertex -15.3099 4.75246 -5
      vertex -9.78148 6.07912 -5
      vertex -15.1904 4.38464 -5
    endloop
  endfacet
  facet normal 0 0 -1
    outer loop
      vertex -15.5033 5.0874 -5
      vertex -9.78148 6.07912 -5
      vertex -15.3099 4.75246 -5
    endloop
  endfacet
  facet normal 0 0 -1
    outer loop
      vertex -15.7621 5.37482 -5
      vertex -9.78148 6.07912 -5
      vertex -15.5033 5.0874 -5
    endloop
  endfacet
  facet normal -0 0 -1
    outer loop
      vertex -9.78148 6.07912 -5
      vertex -15.7621 5.37482 -5
      vertex -9.15734 8 -5
    endloop
  endfacet
  facet normal 0 0 -1
    outer loop
      vertex -16.075 5.60215 -5
      vertex -9.15734 8 -5
      vertex -15.7621 5.37482 -5
    endloop
  endfacet
  facet normal 0 0 -1
    outer loop
      vertex -16.4283 5.75945 -5
      vertex -9.15734 8 -5
      vertex -16.075 5.60215 -5
    endloop
  endfacet
  facet normal 0 0 -1
    outer loop
      vertex -16.8066 5.83986 -5
      vertex -9.15734 8 -5
      vertex -16.4283 5.75945 -5
    endloop
  endfacet
  facet normal 0 0 -1
    outer loop
      vertex -21 8 -5
      vertex -16.8066 5.83986 -5
      vertex -17.1934 5.83986 -5
    endloop
  endfacet
  facet normal 0 0 -1
    outer loop
      vertex -21 8 -5
      vertex -17.1934 5.83986 -5
      vertex -17.5717 5.75945 -5
    endloop
  endfacet
  facet normal 0 0 -1
    outer loop
      vertex -21 8 -5
      vertex -18.85 4 -5
      vertex -21 0 -5
    endloop
  endfacet
  facet normal 0 0 -1
    outer loop
      vertex -18.85 4 -5
      vertex -21 8 -5
      vertex -18.8096 4.38464 -5
    endloop
  endfacet
  facet normal 0 0 -1
    outer loop
      vertex -16.8066 5.83986 -5
      vertex -21 8 -5
      vertex -9.15734 8 -5
    endloop
  endfacet
  facet normal 0 0 -1
    outer loop
      vertex -17.925 5.60215 -5
      vertex -21 8 -5
      vertex -17.5717 5.75945 -5
    endloop
  endfacet
  facet normal 0 0 -1
    outer loop
      vertex -18.2379 5.37482 -5
      vertex -21 8 -5
      vertex -17.925 5.60215 -5
    endloop
  endfacet
  facet normal 0 0 -1
    outer loop
      vertex -18.4967 5.0874 -5
      vertex -21 8 -5
      vertex -18.2379 5.37482 -5
    endloop
  endfacet
  facet normal 0 0 -1
    outer loop
      vertex -18.6901 4.75246 -5
      vertex -21 8 -5
      vertex -18.4967 5.0874 -5
    endloop
  endfacet
  facet normal 0 0 -1
    outer loop
      vertex -18.8096 4.38464 -5
      vertex -21 8 -5
      vertex -18.6901 4.75246 -5
    endloop
  endfacet
  facet normal 0 -1 0
    outer loop
      vertex -21 0 -5
      vertex -9.15734 0 0
      vertex -21 0 0
    endloop
  endfacet
  facet normal 0 -1 -0
    outer loop
      vertex -9.15734 0 0
      vertex -21 0 -5
      vertex -9.15734 0 -5
    endloop
  endfacet
  facet normal -0.994522 -0.104529 0
    outer loop
      vertex -15.15 4 -5
      vertex -15.1904 4.38464 0
      vertex -15.1904 4.38464 -5
    endloop
  endfacet
  facet normal -0.994522 -0.104529 0
    outer loop
      vertex -15.1904 4.38464 0
      vertex -15.15 4 -5
      vertex -15.15 4 0
    endloop
  endfacet
  facet normal 0.994522 0.104527 0
    outer loop
      vertex -18.8096 3.61536 0
      vertex -18.85 4 -5
      vertex -18.85 4 0
    endloop
  endfacet
  facet normal 0.994522 0.104527 0
    outer loop
      vertex -18.85 4 -5
      vertex -18.8096 3.61536 0
      vertex -18.8096 3.61536 -5
    endloop
  endfacet
  facet normal 0 -1 0
    outer loop
      vertex -17.1934 5.83986 -5
      vertex -16.8066 5.83986 0
      vertex -17.1934 5.83986 0
    endloop
  endfacet
  facet normal 0 -1 -0
    outer loop
      vertex -16.8066 5.83986 0
      vertex -17.1934 5.83986 -5
      vertex -16.8066 5.83986 -5
    endloop
  endfacet
  facet normal 0 1 -0
    outer loop
      vertex -16.8066 2.16013 -5
      vertex -17.1934 2.16013 0
      vertex -16.8066 2.16013 0
    endloop
  endfacet
  facet normal 0 1 0
    outer loop
      vertex -17.1934 2.16013 0
      vertex -16.8066 2.16013 -5
      vertex -17.1934 2.16013 -5
    endloop
  endfacet
  facet normal -0.743145 -0.669131 0
    outer loop
      vertex -15.5033 5.0874 -5
      vertex -15.7621 5.37482 0
      vertex -15.7621 5.37482 -5
    endloop
  endfacet
  facet normal -0.743145 -0.669131 0
    outer loop
      vertex -15.7621 5.37482 0
      vertex -15.5033 5.0874 -5
      vertex -15.5033 5.0874 0
    endloop
  endfacet
  facet normal -0.951057 -0.309016 0
    outer loop
      vertex -15.1904 4.38464 -5
      vertex -15.3099 4.75246 0
      vertex -15.3099 4.75246 -5
    endloop
  endfacet
  facet normal -0.951057 -0.309016 0
    outer loop
      vertex -15.3099 4.75246 0
      vertex -15.1904 4.38464 -5
      vertex -15.1904 4.38464 0
    endloop
  endfacet
  facet normal 0.743146 -0.669129 0
    outer loop
      vertex -18.4967 5.0874 0
      vertex -18.2379 5.37482 -5
      vertex -18.2379 5.37482 0
    endloop
  endfacet
  facet normal 0.743146 -0.669129 0
    outer loop
      vertex -18.2379 5.37482 -5
      vertex -18.4967 5.0874 0
      vertex -18.4967 5.0874 -5
    endloop
  endfacet
  facet normal 0.406738 -0.913545 0
    outer loop
      vertex -17.925 5.60215 -5
      vertex -17.5717 5.75945 0
      vertex -17.925 5.60215 0
    endloop
  endfacet
  facet normal 0.406738 -0.913545 0
    outer loop
      vertex -17.5717 5.75945 0
      vertex -17.925 5.60215 -5
      vertex -17.5717 5.75945 -5
    endloop
  endfacet
  facet normal -0.743145 0.669131 0
    outer loop
      vertex -15.7621 2.62518 -5
      vertex -15.5033 2.9126 0
      vertex -15.5033 2.9126 -5
    endloop
  endfacet
  facet normal -0.743145 0.669131 0
    outer loop
      vertex -15.5033 2.9126 0
      vertex -15.7621 2.62518 -5
      vertex -15.7621 2.62518 0
    endloop
  endfacet
  facet normal 0.951056 0.309018 0
    outer loop
      vertex -18.6901 3.24754 0
      vertex -18.8096 3.61536 -5
      vertex -18.8096 3.61536 0
    endloop
  endfacet
  facet normal 0.951056 0.309018 0
    outer loop
      vertex -18.8096 3.61536 -5
      vertex -18.6901 3.24754 0
      vertex -18.6901 3.24754 -5
    endloop
  endfacet
  facet normal -0.866026 -0.5 0
    outer loop
      vertex -15.3099 4.75246 -5
      vertex -15.5033 5.0874 0
      vertex -15.5033 5.0874 -5
    endloop
  endfacet
  facet normal -0.866026 -0.5 0
    outer loop
      vertex -15.5033 5.0874 0
      vertex -15.3099 4.75246 -5
      vertex -15.3099 4.75246 0
    endloop
  endfacet
  facet normal -0.406738 -0.913545 0
    outer loop
      vertex -16.4283 5.75945 -5
      vertex -16.075 5.60215 0
      vertex -16.4283 5.75945 0
    endloop
  endfacet
  facet normal -0.406738 -0.913545 -0
    outer loop
      vertex -16.075 5.60215 0
      vertex -16.4283 5.75945 -5
      vertex -16.075 5.60215 -5
    endloop
  endfacet
  facet normal -0.207912 -0.978148 0
    outer loop
      vertex -16.8066 5.83986 -5
      vertex -16.4283 5.75945 0
      vertex -16.8066 5.83986 0
    endloop
  endfacet
  facet normal -0.207912 -0.978148 -0
    outer loop
      vertex -16.4283 5.75945 0
      vertex -16.8066 5.83986 -5
      vertex -16.4283 5.75945 -5
    endloop
  endfacet
  facet normal -0.587784 -0.809018 0
    outer loop
      vertex -16.075 5.60215 -5
      vertex -15.7621 5.37482 0
      vertex -16.075 5.60215 0
    endloop
  endfacet
  facet normal -0.587784 -0.809018 -0
    outer loop
      vertex -15.7621 5.37482 0
      vertex -16.075 5.60215 -5
      vertex -15.7621 5.37482 -5
    endloop
  endfacet
  facet normal 0.951056 -0.309018 0
    outer loop
      vertex -18.8096 4.38464 0
      vertex -18.6901 4.75246 -5
      vertex -18.6901 4.75246 0
    endloop
  endfacet
  facet normal 0.951056 -0.309018 0
    outer loop
      vertex -18.6901 4.75246 -5
      vertex -18.8096 4.38464 0
      vertex -18.8096 4.38464 -5
    endloop
  endfacet
  facet normal 0.866025 -0.500002 0
    outer loop
      vertex -18.6901 4.75246 0
      vertex -18.4967 5.0874 -5
      vertex -18.4967 5.0874 0
    endloop
  endfacet
  facet normal 0.866025 -0.500002 0
    outer loop
      vertex -18.4967 5.0874 -5
      vertex -18.6901 4.75246 0
      vertex -18.6901 4.75246 -5
    endloop
  endfacet
  facet normal 0.994522 -0.104527 0
    outer loop
      vertex -18.85 4 0
      vertex -18.8096 4.38464 -5
      vertex -18.8096 4.38464 0
    endloop
  endfacet
  facet normal 0.994522 -0.104527 0
    outer loop
      vertex -18.8096 4.38464 -5
      vertex -18.85 4 0
      vertex -18.85 4 -5
    endloop
  endfacet
  facet normal 0.587782 -0.809019 0
    outer loop
      vertex -18.2379 5.37482 -5
      vertex -17.925 5.60215 0
      vertex -18.2379 5.37482 0
    endloop
  endfacet
  facet normal 0.587782 -0.809019 0
    outer loop
      vertex -17.925 5.60215 0
      vertex -18.2379 5.37482 -5
      vertex -17.925 5.60215 -5
    endloop
  endfacet
  facet normal 0.207912 -0.978148 0
    outer loop
      vertex -17.5717 5.75945 -5
      vertex -17.1934 5.83986 0
      vertex -17.5717 5.75945 0
    endloop
  endfacet
  facet normal 0.207912 -0.978148 0
    outer loop
      vertex -17.1934 5.83986 0
      vertex -17.5717 5.75945 -5
      vertex -17.1934 5.83986 -5
    endloop
  endfacet
  facet normal -0.994522 0.104529 0
    outer loop
      vertex -15.1904 3.61536 -5
      vertex -15.15 4 0
      vertex -15.15 4 -5
    endloop
  endfacet
  facet normal -0.994522 0.104529 0
    outer loop
      vertex -15.15 4 0
      vertex -15.1904 3.61536 -5
      vertex -15.1904 3.61536 0
    endloop
  endfacet
  facet normal -0.207912 0.978148 0
    outer loop
      vertex -16.4283 2.24055 -5
      vertex -16.8066 2.16013 0
      vertex -16.4283 2.24055 0
    endloop
  endfacet
  facet normal -0.207912 0.978148 0
    outer loop
      vertex -16.8066 2.16013 0
      vertex -16.4283 2.24055 -5
      vertex -16.8066 2.16013 -5
    endloop
  endfacet
  facet normal -0.587784 0.809018 0
    outer loop
      vertex -15.7621 2.62518 -5
      vertex -16.075 2.39785 0
      vertex -15.7621 2.62518 0
    endloop
  endfacet
  facet normal -0.587784 0.809018 0
    outer loop
      vertex -16.075 2.39785 0
      vertex -15.7621 2.62518 -5
      vertex -16.075 2.39785 -5
    endloop
  endfacet
  facet normal 0.587782 0.809019 -0
    outer loop
      vertex -17.925 2.39785 -5
      vertex -18.2379 2.62518 0
      vertex -17.925 2.39785 0
    endloop
  endfacet
  facet normal 0.587782 0.809019 0
    outer loop
      vertex -18.2379 2.62518 0
      vertex -17.925 2.39785 -5
      vertex -18.2379 2.62518 -5
    endloop
  endfacet
  facet normal 0.207912 0.978148 -0
    outer loop
      vertex -17.1934 2.16013 -5
      vertex -17.5717 2.24055 0
      vertex -17.1934 2.16013 0
    endloop
  endfacet
  facet normal 0.207912 0.978148 0
    outer loop
      vertex -17.5717 2.24055 0
      vertex -17.1934 2.16013 -5
      vertex -17.5717 2.24055 -5
    endloop
  endfacet
  facet normal 0.866025 0.500002 0
    outer loop
      vertex -18.4967 2.9126 0
      vertex -18.6901 3.24754 -5
      vertex -18.6901 3.24754 0
    endloop
  endfacet
  facet normal 0.866025 0.500002 0
    outer loop
      vertex -18.6901 3.24754 -5
      vertex -18.4967 2.9126 0
      vertex -18.4967 2.9126 -5
    endloop
  endfacet
  facet normal 0.743146 0.669129 0
    outer loop
      vertex -18.2379 2.62518 0
      vertex -18.4967 2.9126 -5
      vertex -18.4967 2.9126 0
    endloop
  endfacet
  facet normal 0.743146 0.669129 0
    outer loop
      vertex -18.4967 2.9126 -5
      vertex -18.2379 2.62518 0
      vertex -18.2379 2.62518 -5
    endloop
  endfacet
  facet normal -0.406738 0.913545 0
    outer loop
      vertex -16.075 2.39785 -5
      vertex -16.4283 2.24055 0
      vertex -16.075 2.39785 0
    endloop
  endfacet
  facet normal -0.406738 0.913545 0
    outer loop
      vertex -16.4283 2.24055 0
      vertex -16.075 2.39785 -5
      vertex -16.4283 2.24055 -5
    endloop
  endfacet
  facet normal -0.951057 0.309016 0
    outer loop
      vertex -15.3099 3.24754 -5
      vertex -15.1904 3.61536 0
      vertex -15.1904 3.61536 -5
    endloop
  endfacet
  facet normal -0.951057 0.309016 0
    outer loop
      vertex -15.1904 3.61536 0
      vertex -15.3099 3.24754 -5
      vertex -15.3099 3.24754 0
    endloop
  endfacet
  facet normal -0.866026 0.5 0
    outer loop
      vertex -15.5033 2.9126 -5
      vertex -15.3099 3.24754 0
      vertex -15.3099 3.24754 -5
    endloop
  endfacet
  facet normal -0.866026 0.5 0
    outer loop
      vertex -15.3099 3.24754 0
      vertex -15.5033 2.9126 -5
      vertex -15.5033 2.9126 0
    endloop
  endfacet
  facet normal 0.406738 0.913545 -0
    outer loop
      vertex -17.5717 2.24055 -5
      vertex -17.925 2.39785 0
      vertex -17.5717 2.24055 0
    endloop
  endfacet
  facet normal 0.406738 0.913545 0
    outer loop
      vertex -17.925 2.39785 0
      vertex -17.5717 2.24055 -5
      vertex -17.925 2.39785 -5
    endloop
  endfacet
  facet normal 1 -0 0
    outer loop
      vertex 21 0 0
      vertex 21 8 -5
      vertex 21 8 0
    endloop
  endfacet
  facet normal 1 0 0
    outer loop
      vertex 21 8 -5
      vertex 21 0 0
      vertex 21 0 -5
    endloop
  endfacet
  facet normal 0 1 -0
    outer loop
      vertex 21 8 -5
      vertex 9.15734 8 0
      vertex 21 8 0
    endloop
  endfacet
  facet normal 0 1 0
    outer loop
      vertex 9.15734 8 0
      vertex 21 8 -5
      vertex 9.15734 8 -5
    endloop
  endfacet
  facet normal 0 0 -1
    outer loop
      vertex 21 0 -5
      vertex 18.85 4 -5
      vertex 21 8 -5
    endloop
  endfacet
  facet normal 0 0 -1
    outer loop
      vertex 21 0 -5
      vertex 18.8096 3.61536 -5
      vertex 18.85 4 -5
    endloop
  endfacet
  facet normal 0 0 -1
    outer loop
      vertex 21 0 -5
      vertex 18.6901 3.24754 -5
      vertex 18.8096 3.61536 -5
    endloop
  endfacet
  facet normal 0 0 -1
    outer loop
      vertex 21 0 -5
      vertex 18.4967 2.9126 -5
      vertex 18.6901 3.24754 -5
    endloop
  endfacet
  facet normal 0 0 -1
    outer loop
      vertex 21 0 -5
      vertex 18.2379 2.62518 -5
      vertex 18.4967 2.9126 -5
    endloop
  endfacet
  facet normal 0 0 -1
    outer loop
      vertex 21 0 -5
      vertex 17.925 2.39785 -5
      vertex 18.2379 2.62518 -5
    endloop
  endfacet
  facet normal 0 0 -1
    outer loop
      vertex 21 0 -5
      vertex 17.5717 2.24055 -5
      vertex 17.925 2.39785 -5
    endloop
  endfacet
  facet normal 0 0 -1
    outer loop
      vertex 21 0 -5
      vertex 17.1934 2.16013 -5
      vertex 17.5717 2.24055 -5
    endloop
  endfacet
  facet normal 0 0 -1
    outer loop
      vertex 21 0 -5
      vertex 16.8066 2.16013 -5
      vertex 17.1934 2.16013 -5
    endloop
  endfacet
  facet normal 0 0 -1
    outer loop
      vertex 9.15734 0 -5
      vertex 16.8066 2.16013 -5
      vertex 21 0 -5
    endloop
  endfacet
  facet normal -0 0 -1
    outer loop
      vertex 16.8066 2.16013 -5
      vertex 9.15734 0 -5
      vertex 16.4283 2.24055 -5
    endloop
  endfacet
  facet normal 0 0 -1
    outer loop
      vertex 15.1904 3.61536 -5
      vertex 10 4 -5
      vertex 15.15 4 -5
    endloop
  endfacet
  facet normal 0 0 -1
    outer loop
      vertex 9.78148 1.92088 -5
      vertex 15.1904 3.61536 -5
      vertex 15.3099 3.24754 -5
    endloop
  endfacet
  facet normal 0 0 -1
    outer loop
      vertex 9.78148 1.92088 -5
      vertex 15.3099 3.24754 -5
      vertex 15.5033 2.9126 -5
    endloop
  endfacet
  facet normal 0 0 -1
    outer loop
      vertex 9.78148 1.92088 -5
      vertex 15.5033 2.9126 -5
      vertex 15.7621 2.62518 -5
    endloop
  endfacet
  facet normal 0 0 -1
    outer loop
      vertex 9.15734 0 -5
      vertex 15.7621 2.62518 -5
      vertex 16.075 2.39785 -5
    endloop
  endfacet
  facet normal -0 0 -1
    outer loop
      vertex 16.4283 2.24055 -5
      vertex 9.15734 0 -5
      vertex 16.075 2.39785 -5
    endloop
  endfacet
  facet normal -0 0 -1
    outer loop
      vertex 15.1904 3.61536 -5
      vertex 9.78148 1.92088 -5
      vertex 10 4 -5
    endloop
  endfacet
  facet normal 0 0 -1
    outer loop
      vertex 15.7621 2.62518 -5
      vertex 9.15734 0 -5
      vertex 9.78148 1.92088 -5
    endloop
  endfacet
  facet normal 0 0 -1
    outer loop
      vertex 18.8096 4.38464 -5
      vertex 21 8 -5
      vertex 18.85 4 -5
    endloop
  endfacet
  facet normal 0 0 -1
    outer loop
      vertex 18.6901 4.75246 -5
      vertex 21 8 -5
      vertex 18.8096 4.38464 -5
    endloop
  endfacet
  facet normal 0 0 -1
    outer loop
      vertex 18.4967 5.0874 -5
      vertex 21 8 -5
      vertex 18.6901 4.75246 -5
    endloop
  endfacet
  facet normal 0 0 -1
    outer loop
      vertex 18.2379 5.37482 -5
      vertex 21 8 -5
      vertex 18.4967 5.0874 -5
    endloop
  endfacet
  facet normal 0 0 -1
    outer loop
      vertex 17.925 5.60215 -5
      vertex 21 8 -5
      vertex 18.2379 5.37482 -5
    endloop
  endfacet
  facet normal 0 0 -1
    outer loop
      vertex 17.5717 5.75945 -5
      vertex 21 8 -5
      vertex 17.925 5.60215 -5
    endloop
  endfacet
  facet normal 0 0 -1
    outer loop
      vertex 17.1934 5.83986 -5
      vertex 21 8 -5
      vertex 17.5717 5.75945 -5
    endloop
  endfacet
  facet normal 0 0 -1
    outer loop
      vertex 16.8066 5.83986 -5
      vertex 21 8 -5
      vertex 17.1934 5.83986 -5
    endloop
  endfacet
  facet normal 0 0 -1
    outer loop
      vertex 9.15734 8 -5
      vertex 16.8066 5.83986 -5
      vertex 16.4283 5.75945 -5
    endloop
  endfacet
  facet normal 0 0 -1
    outer loop
      vertex 9.15734 8 -5
      vertex 16.4283 5.75945 -5
      vertex 16.075 5.60215 -5
    endloop
  endfacet
  facet normal 0 0 -1
    outer loop
      vertex 10 4 -5
      vertex 15.1904 4.38464 -5
      vertex 15.15 4 -5
    endloop
  endfacet
  facet normal 0 0 -1
    outer loop
      vertex 9.78148 6.07912 -5
      vertex 15.1904 4.38464 -5
      vertex 10 4 -5
    endloop
  endfacet
  facet normal 0 0 -1
    outer loop
      vertex 15.1904 4.38464 -5
      vertex 9.78148 6.07912 -5
      vertex 15.3099 4.75246 -5
    endloop
  endfacet
  facet normal 0 0 -1
    outer loop
      vertex 15.3099 4.75246 -5
      vertex 9.78148 6.07912 -5
      vertex 15.5033 5.0874 -5
    endloop
  endfacet
  facet normal 0 0 -1
    outer loop
      vertex 15.5033 5.0874 -5
      vertex 9.78148 6.07912 -5
      vertex 15.7621 5.37482 -5
    endloop
  endfacet
  facet normal 0 0 -1
    outer loop
      vertex 9.15734 8 -5
      vertex 15.7621 5.37482 -5
      vertex 9.78148 6.07912 -5
    endloop
  endfacet
  facet normal 0 0 -1
    outer loop
      vertex 15.7621 5.37482 -5
      vertex 9.15734 8 -5
      vertex 16.075 5.60215 -5
    endloop
  endfacet
  facet normal 0 0 -1
    outer loop
      vertex 16.8066 5.83986 -5
      vertex 9.15734 8 -5
      vertex 21 8 -5
    endloop
  endfacet
  facet normal 0 -1 0
    outer loop
      vertex 9.15734 0 -5
      vertex 21 0 0
      vertex 9.15734 0 0
    endloop
  endfacet
  facet normal 0 -1 -0
    outer loop
      vertex 21 0 0
      vertex 9.15734 0 -5
      vertex 21 0 -5
    endloop
  endfacet
  facet normal -0.994522 -0.104527 0
    outer loop
      vertex 18.85 4 -5
      vertex 18.8096 4.38464 0
      vertex 18.8096 4.38464 -5
    endloop
  endfacet
  facet normal -0.994522 -0.104527 0
    outer loop
      vertex 18.8096 4.38464 0
      vertex 18.85 4 -5
      vertex 18.85 4 0
    endloop
  endfacet
  facet normal 0 -1 0
    outer loop
      vertex 16.8066 5.83986 -5
      vertex 17.1934 5.83986 0
      vertex 16.8066 5.83986 0
    endloop
  endfacet
  facet normal 0 -1 -0
    outer loop
      vertex 17.1934 5.83986 0
      vertex 16.8066 5.83986 -5
      vertex 17.1934 5.83986 -5
    endloop
  endfacet
  facet normal 0 1 -0
    outer loop
      vertex 17.1934 2.16013 -5
      vertex 16.8066 2.16013 0
      vertex 17.1934 2.16013 0
    endloop
  endfacet
  facet normal 0 1 0
    outer loop
      vertex 16.8066 2.16013 0
      vertex 17.1934 2.16013 -5
      vertex 16.8066 2.16013 -5
    endloop
  endfacet
  facet normal 0.743145 0.669131 0
    outer loop
      vertex 15.7621 2.62518 0
      vertex 15.5033 2.9126 -5
      vertex 15.5033 2.9126 0
    endloop
  endfacet
  facet normal 0.743145 0.669131 0
    outer loop
      vertex 15.5033 2.9126 -5
      vertex 15.7621 2.62518 0
      vertex 15.7621 2.62518 -5
    endloop
  endfacet
  facet normal -0.743146 -0.669129 0
    outer loop
      vertex 18.4967 5.0874 -5
      vertex 18.2379 5.37482 0
      vertex 18.2379 5.37482 -5
    endloop
  endfacet
  facet normal -0.743146 -0.669129 0
    outer loop
      vertex 18.2379 5.37482 0
      vertex 18.4967 5.0874 -5
      vertex 18.4967 5.0874 0
    endloop
  endfacet
  facet normal -0.951058 -0.309013 0
    outer loop
      vertex 18.8096 4.38464 -5
      vertex 18.6901 4.75246 0
      vertex 18.6901 4.75246 -5
    endloop
  endfacet
  facet normal -0.951058 -0.309013 0
    outer loop
      vertex 18.6901 4.75246 0
      vertex 18.8096 4.38464 -5
      vertex 18.8096 4.38464 0
    endloop
  endfacet
  facet normal 0.743145 -0.669131 0
    outer loop
      vertex 15.5033 5.0874 0
      vertex 15.7621 5.37482 -5
      vertex 15.7621 5.37482 0
    endloop
  endfacet
  facet normal 0.743145 -0.669131 0
    outer loop
      vertex 15.7621 5.37482 -5
      vertex 15.5033 5.0874 0
      vertex 15.5033 5.0874 -5
    endloop
  endfacet
  facet normal 0.406738 -0.913545 0
    outer loop
      vertex 16.075 5.60215 -5
      vertex 16.4283 5.75945 0
      vertex 16.075 5.60215 0
    endloop
  endfacet
  facet normal 0.406738 -0.913545 0
    outer loop
      vertex 16.4283 5.75945 0
      vertex 16.075 5.60215 -5
      vertex 16.4283 5.75945 -5
    endloop
  endfacet
  facet normal -0.743146 0.669129 0
    outer loop
      vertex 18.2379 2.62518 -5
      vertex 18.4967 2.9126 0
      vertex 18.4967 2.9126 -5
    endloop
  endfacet
  facet normal -0.743146 0.669129 0
    outer loop
      vertex 18.4967 2.9126 0
      vertex 18.2379 2.62518 -5
      vertex 18.2379 2.62518 0
    endloop
  endfacet
  facet normal 0.951057 0.309016 0
    outer loop
      vertex 15.3099 3.24754 0
      vertex 15.1904 3.61536 -5
      vertex 15.1904 3.61536 0
    endloop
  endfacet
  facet normal 0.951057 0.309016 0
    outer loop
      vertex 15.1904 3.61536 -5
      vertex 15.3099 3.24754 0
      vertex 15.3099 3.24754 -5
    endloop
  endfacet
  facet normal -0.866025 -0.500002 0
    outer loop
      vertex 18.6901 4.75246 -5
      vertex 18.4967 5.0874 0
      vertex 18.4967 5.0874 -5
    endloop
  endfacet
  facet normal -0.866025 -0.500002 0
    outer loop
      vertex 18.4967 5.0874 0
      vertex 18.6901 4.75246 -5
      vertex 18.6901 4.75246 0
    endloop
  endfacet
  facet normal -0.406738 -0.913545 0
    outer loop
      vertex 17.5717 5.75945 -5
      vertex 17.925 5.60215 0
      vertex 17.5717 5.75945 0
    endloop
  endfacet
  facet normal -0.406738 -0.913545 -0
    outer loop
      vertex 17.925 5.60215 0
      vertex 17.5717 5.75945 -5
      vertex 17.925 5.60215 -5
    endloop
  endfacet
  facet normal -0.207912 -0.978148 0
    outer loop
      vertex 17.1934 5.83986 -5
      vertex 17.5717 5.75945 0
      vertex 17.1934 5.83986 0
    endloop
  endfacet
  facet normal -0.207912 -0.978148 -0
    outer loop
      vertex 17.5717 5.75945 0
      vertex 17.1934 5.83986 -5
      vertex 17.5717 5.75945 -5
    endloop
  endfacet
  facet normal -0.587782 -0.809019 0
    outer loop
      vertex 17.925 5.60215 -5
      vertex 18.2379 5.37482 0
      vertex 17.925 5.60215 0
    endloop
  endfacet
  facet normal -0.587782 -0.809019 -0
    outer loop
      vertex 18.2379 5.37482 0
      vertex 17.925 5.60215 -5
      vertex 18.2379 5.37482 -5
    endloop
  endfacet
  facet normal 0.951057 -0.309016 0
    outer loop
      vertex 15.1904 4.38464 0
      vertex 15.3099 4.75246 -5
      vertex 15.3099 4.75246 0
    endloop
  endfacet
  facet normal 0.951057 -0.309016 0
    outer loop
      vertex 15.3099 4.75246 -5
      vertex 15.1904 4.38464 0
      vertex 15.1904 4.38464 -5
    endloop
  endfacet
  facet normal 0.866026 -0.5 0
    outer loop
      vertex 15.3099 4.75246 0
      vertex 15.5033 5.0874 -5
      vertex 15.5033 5.0874 0
    endloop
  endfacet
  facet normal 0.866026 -0.5 0
    outer loop
      vertex 15.5033 5.0874 -5
      vertex 15.3099 4.75246 0
      vertex 15.3099 4.75246 -5
    endloop
  endfacet
  facet normal 0.994522 -0.104529 0
    outer loop
      vertex 15.15 4 0
      vertex 15.1904 4.38464 -5
      vertex 15.1904 4.38464 0
    endloop
  endfacet
  facet normal 0.994522 -0.104529 0
    outer loop
      vertex 15.1904 4.38464 -5
      vertex 15.15 4 0
      vertex 15.15 4 -5
    endloop
  endfacet
  facet normal 0.587782 -0.809019 0
    outer loop
      vertex 15.7621 5.37482 -5
      vertex 16.075 5.60215 0
      vertex 15.7621 5.37482 0
    endloop
  endfacet
  facet normal 0.587782 -0.809019 0
    outer loop
      vertex 16.075 5.60215 0
      vertex 15.7621 5.37482 -5
      vertex 16.075 5.60215 -5
    endloop
  endfacet
  facet normal 0.207912 -0.978148 0
    outer loop
      vertex 16.4283 5.75945 -5
      vertex 16.8066 5.83986 0
      vertex 16.4283 5.75945 0
    endloop
  endfacet
  facet normal 0.207912 -0.978148 0
    outer loop
      vertex 16.8066 5.83986 0
      vertex 16.4283 5.75945 -5
      vertex 16.8066 5.83986 -5
    endloop
  endfacet
  facet normal -0.994522 0.104527 0
    outer loop
      vertex 18.8096 3.61536 -5
      vertex 18.85 4 0
      vertex 18.85 4 -5
    endloop
  endfacet
  facet normal -0.994522 0.104527 0
    outer loop
      vertex 18.85 4 0
      vertex 18.8096 3.61536 -5
      vertex 18.8096 3.61536 0
    endloop
  endfacet
  facet normal -0.207912 0.978148 0
    outer loop
      vertex 17.5717 2.24055 -5
      vertex 17.1934 2.16013 0
      vertex 17.5717 2.24055 0
    endloop
  endfacet
  facet normal -0.207912 0.978148 0
    outer loop
      vertex 17.1934 2.16013 0
      vertex 17.5717 2.24055 -5
      vertex 17.1934 2.16013 -5
    endloop
  endfacet
  facet normal -0.587782 0.809019 0
    outer loop
      vertex 18.2379 2.62518 -5
      vertex 17.925 2.39785 0
      vertex 18.2379 2.62518 0
    endloop
  endfacet
  facet normal -0.587782 0.809019 0
    outer loop
      vertex 17.925 2.39785 0
      vertex 18.2379 2.62518 -5
      vertex 17.925 2.39785 -5
    endloop
  endfacet
  facet normal 0.587782 0.809019 -0
    outer loop
      vertex 16.075 2.39785 -5
      vertex 15.7621 2.62518 0
      vertex 16.075 2.39785 0
    endloop
  endfacet
  facet normal 0.587782 0.809019 0
    outer loop
      vertex 15.7621 2.62518 0
      vertex 16.075 2.39785 -5
      vertex 15.7621 2.62518 -5
    endloop
  endfacet
  facet normal 0.207912 0.978148 -0
    outer loop
      vertex 16.8066 2.16013 -5
      vertex 16.4283 2.24055 0
      vertex 16.8066 2.16013 0
    endloop
  endfacet
  facet normal 0.207912 0.978148 0
    outer loop
      vertex 16.4283 2.24055 0
      vertex 16.8066 2.16013 -5
      vertex 16.4283 2.24055 -5
    endloop
  endfacet
  facet normal 0.866026 0.5 0
    outer loop
      vertex 15.5033 2.9126 0
      vertex 15.3099 3.24754 -5
      vertex 15.3099 3.24754 0
    endloop
  endfacet
  facet normal 0.866026 0.5 0
    outer loop
      vertex 15.3099 3.24754 -5
      vertex 15.5033 2.9126 0
      vertex 15.5033 2.9126 -5
    endloop
  endfacet
  facet normal 0.994522 0.104529 0
    outer loop
      vertex 15.1904 3.61536 0
      vertex 15.15 4 -5
      vertex 15.15 4 0
    endloop
  endfacet
  facet normal 0.994522 0.104529 0
    outer loop
      vertex 15.15 4 -5
      vertex 15.1904 3.61536 0
      vertex 15.1904 3.61536 -5
    endloop
  endfacet
  facet normal -0.406738 0.913545 0
    outer loop
      vertex 17.925 2.39785 -5
      vertex 17.5717 2.24055 0
      vertex 17.925 2.39785 0
    endloop
  endfacet
  facet normal -0.406738 0.913545 0
    outer loop
      vertex 17.5717 2.24055 0
      vertex 17.925 2.39785 -5
      vertex 17.5717 2.24055 -5
    endloop
  endfacet
  facet normal -0.951058 0.309013 0
    outer loop
      vertex 18.6901 3.24754 -5
      vertex 18.8096 3.61536 0
      vertex 18.8096 3.61536 -5
    endloop
  endfacet
  facet normal -0.951058 0.309013 0
    outer loop
      vertex 18.8096 3.61536 0
      vertex 18.6901 3.24754 -5
      vertex 18.6901 3.24754 0
    endloop
  endfacet
  facet normal -0.866025 0.500002 0
    outer loop
      vertex 18.4967 2.9126 -5
      vertex 18.6901 3.24754 0
      vertex 18.6901 3.24754 -5
    endloop
  endfacet
  facet normal -0.866025 0.500002 0
    outer loop
      vertex 18.6901 3.24754 0
      vertex 18.4967 2.9126 -5
      vertex 18.4967 2.9126 0
    endloop
  endfacet
  facet normal 0.406738 0.913545 -0
    outer loop
      vertex 16.4283 2.24055 -5
      vertex 16.075 2.39785 0
      vertex 16.4283 2.24055 0
    endloop
  endfacet
  facet normal 0.406738 0.913545 0
    outer loop
      vertex 16.075 2.39785 0
      vertex 16.4283 2.24055 -5
      vertex 16.075 2.39785 -5
    endloop
  endfacet
  facet normal 0.994522 0.104529 0
    outer loop
      vertex 10 4 -5
      vertex 9.78148 6.07912 -16
      vertex 9.78148 6.07912 -5
    endloop
  endfacet
  facet normal 0.994522 0.104529 0
    outer loop
      vertex 9.78148 6.07912 -16
      vertex 10 4 -5
      vertex 10 4 -16
    endloop
  endfacet
  facet normal -0.994522 0.104529 0
    outer loop
      vertex -10 4 -16
      vertex -9.78148 6.07912 -5
      vertex -9.78148 6.07912 -16
    endloop
  endfacet
  facet normal -0.994522 0.104529 0
    outer loop
      vertex -9.78148 6.07912 -5
      vertex -10 4 -16
      vertex -10 4 -5
    endloop
  endfacet
  facet normal 0 1 -0
    outer loop
      vertex 1.04528 13.9452 -16
      vertex -1.04528 13.9452 0
      vertex 1.04528 13.9452 0
    endloop
  endfacet
  facet normal 0 1 0
    outer loop
      vertex -1.04528 13.9452 0
      vertex 1.04528 13.9452 -16
      vertex -1.04528 13.9452 -16
    endloop
  endfacet
  facet normal 0 -1 0
    outer loop
      vertex -1.04528 -5.94522 -16
      vertex 1.04528 -5.94522 0
      vertex -1.04528 -5.94522 0
    endloop
  endfacet
  facet normal 0 -1 -0
    outer loop
      vertex 1.04528 -5.94522 0
      vertex -1.04528 -5.94522 -16
      vertex 1.04528 -5.94522 -16
    endloop
  endfacet
  facet normal 0.587785 0.809017 -0
    outer loop
      vertex 6.69131 11.4314 -16
      vertex 5 12.6603 0
      vertex 6.69131 11.4314 0
    endloop
  endfacet
  facet normal 0.587785 0.809017 0
    outer loop
      vertex 5 12.6603 0
      vertex 6.69131 11.4314 -16
      vertex 5 12.6603 -16
    endloop
  endfacet
  facet normal 0.406737 0.913545 -0
    outer loop
      vertex 5 12.6603 -16
      vertex 3.09017 13.5106 0
      vertex 5 12.6603 0
    endloop
  endfacet
  facet normal 0.406737 0.913545 0
    outer loop
      vertex 3.09017 13.5106 0
      vertex 5 12.6603 -16
      vertex 3.09017 13.5106 -16
    endloop
  endfacet
  facet normal -0.743145 0.669131 0
    outer loop
      vertex -8.09017 9.87785 -16
      vertex -6.69131 11.4314 0
      vertex -6.69131 11.4314 -16
    endloop
  endfacet
  facet normal -0.743145 0.669131 0
    outer loop
      vertex -6.69131 11.4314 0
      vertex -8.09017 9.87785 -16
      vertex -8.09017 9.87785 0
    endloop
  endfacet
  facet normal -0.866026 0.5 0
    outer loop
      vertex -9.13545 8.06737 -16
      vertex -8.09017 9.87785 0
      vertex -8.09017 9.87785 -16
    endloop
  endfacet
  facet normal -0.866026 0.5 0
    outer loop
      vertex -8.09017 9.87785 0
      vertex -9.13545 8.06737 -16
      vertex -9.13545 8.06737 0
    endloop
  endfacet
  facet normal -0.406737 0.913545 0
    outer loop
      vertex -3.09017 13.5106 -16
      vertex -5 12.6603 0
      vertex -3.09017 13.5106 0
    endloop
  endfacet
  facet normal -0.406737 0.913545 0
    outer loop
      vertex -5 12.6603 0
      vertex -3.09017 13.5106 -16
      vertex -5 12.6603 -16
    endloop
  endfacet
  facet normal 0.866026 0.5 0
    outer loop
      vertex 9.13545 8.06737 0
      vertex 8.09017 9.87785 -16
      vertex 8.09017 9.87785 0
    endloop
  endfacet
  facet normal 0.866026 0.5 0
    outer loop
      vertex 8.09017 9.87785 -16
      vertex 9.13545 8.06737 0
      vertex 9.13545 8.06737 -16
    endloop
  endfacet
  facet normal 0.951055 0.309021 -0
    outer loop
      vertex 9.15734 8 -5
      vertex 9.13545 8.06737 0
      vertex 9.15734 8 0
    endloop
  endfacet
  facet normal 0.951055 0.309021 0
    outer loop
      vertex 9.13545 8.06737 0
      vertex 9.15734 8 -5
      vertex 9.13545 8.06737 -16
    endloop
  endfacet
  facet normal 0.951057 0.309017 -2.8479e-008
    outer loop
      vertex 9.78148 6.07912 -5
      vertex 9.13545 8.06737 -16
      vertex 9.15734 8 -5
    endloop
  endfacet
  facet normal 0.951057 0.309017 0
    outer loop
      vertex 9.13545 8.06737 -16
      vertex 9.78148 6.07912 -5
      vertex 9.78148 6.07912 -16
    endloop
  endfacet
  facet normal 0.743145 0.669131 0
    outer loop
      vertex 8.09017 9.87785 0
      vertex 6.69131 11.4314 -16
      vertex 6.69131 11.4314 0
    endloop
  endfacet
  facet normal 0.743145 0.669131 0
    outer loop
      vertex 6.69131 11.4314 -16
      vertex 8.09017 9.87785 0
      vertex 8.09017 9.87785 -16
    endloop
  endfacet
  facet normal 0.207911 0.978148 -0
    outer loop
      vertex 3.09017 13.5106 -16
      vertex 1.04528 13.9452 0
      vertex 3.09017 13.5106 0
    endloop
  endfacet
  facet normal 0.207911 0.978148 0
    outer loop
      vertex 1.04528 13.9452 0
      vertex 3.09017 13.5106 -16
      vertex 1.04528 13.9452 -16
    endloop
  endfacet
  facet normal -0.951055 0.309021 0
    outer loop
      vertex -9.13545 8.06737 -16
      vertex -9.15734 8 -5
      vertex -9.13545 8.06737 0
    endloop
  endfacet
  facet normal -0.951057 0.309017 -2.75141e-008
    outer loop
      vertex -9.78148 6.07912 -16
      vertex -9.15734 8 -5
      vertex -9.13545 8.06737 -16
    endloop
  endfacet
  facet normal -0.951057 0.309017 0
    outer loop
      vertex -9.15734 8 -5
      vertex -9.78148 6.07912 -16
      vertex -9.78148 6.07912 -5
    endloop
  endfacet
  facet normal -0.951055 0.309021 0
    outer loop
      vertex -9.13545 8.06737 0
      vertex -9.15734 8 -5
      vertex -9.15734 8 0
    endloop
  endfacet
  facet normal -0.587785 0.809017 0
    outer loop
      vertex -5 12.6603 -16
      vertex -6.69131 11.4314 0
      vertex -5 12.6603 0
    endloop
  endfacet
  facet normal -0.587785 0.809017 0
    outer loop
      vertex -6.69131 11.4314 0
      vertex -5 12.6603 -16
      vertex -6.69131 11.4314 -16
    endloop
  endfacet
  facet normal -0.207911 0.978148 0
    outer loop
      vertex -1.04528 13.9452 -16
      vertex -3.09017 13.5106 0
      vertex -1.04528 13.9452 0
    endloop
  endfacet
  facet normal -0.207911 0.978148 0
    outer loop
      vertex -3.09017 13.5106 0
      vertex -1.04528 13.9452 -16
      vertex -3.09017 13.5106 -16
    endloop
  endfacet
  facet normal 0.994522 -0.104529 0
    outer loop
      vertex 9.78148 1.92088 -5
      vertex 10 4 -16
      vertex 10 4 -5
    endloop
  endfacet
  facet normal 0.994522 -0.104529 0
    outer loop
      vertex 10 4 -16
      vertex 9.78148 1.92088 -5
      vertex 9.78148 1.92088 -16
    endloop
  endfacet
  facet normal 0 0 -1
    outer loop
      vertex 5.85 4 -16
      vertex 10 4 -16
      vertex 9.78148 1.92088 -16
    endloop
  endfacet
  facet normal 0 0 -1
    outer loop
      vertex 5.72216 2.78372 -16
      vertex 9.78148 1.92088 -16
      vertex 9.13545 -0.0673656 -16
    endloop
  endfacet
  facet normal 0 0 -1
    outer loop
      vertex 10 4 -16
      vertex 5.85 4 -16
      vertex 9.78148 6.07912 -16
    endloop
  endfacet
  facet normal 0 0 -1
    outer loop
      vertex 5.34424 1.62059 -16
      vertex 9.13545 -0.0673656 -16
      vertex 8.09017 -1.87785 -16
    endloop
  endfacet
  facet normal 0 0 -1
    outer loop
      vertex 5.72216 5.21628 -16
      vertex 9.78148 6.07912 -16
      vertex 5.85 4 -16
    endloop
  endfacet
  facet normal 0 0 -1
    outer loop
      vertex 4.73275 0.561457 -16
      vertex 8.09017 -1.87785 -16
      vertex 6.69131 -3.43145 -16
    endloop
  endfacet
  facet normal -0 0 -1
    outer loop
      vertex 9.78148 6.07912 -16
      vertex 5.72216 5.21628 -16
      vertex 9.13545 8.06737 -16
    endloop
  endfacet
  facet normal 0 0 -1
    outer loop
      vertex 5.34424 6.37941 -16
      vertex 9.13545 8.06737 -16
      vertex 5.72216 5.21628 -16
    endloop
  endfacet
  facet normal 0 0 -1
    outer loop
      vertex 9.78148 1.92088 -16
      vertex 5.72216 2.78372 -16
      vertex 5.85 4 -16
    endloop
  endfacet
  facet normal 0 0 -1
    outer loop
      vertex 9.13545 -0.0673656 -16
      vertex 5.34424 1.62059 -16
      vertex 5.72216 2.78372 -16
    endloop
  endfacet
  facet normal 0 0 -1
    outer loop
      vertex 3.91441 -0.347397 -16
      vertex 6.69131 -3.43145 -16
      vertex 5 -4.66025 -16
    endloop
  endfacet
  facet normal 0 0 -1
    outer loop
      vertex 8.09017 -1.87785 -16
      vertex 4.73275 0.561457 -16
      vertex 5.34424 1.62059 -16
    endloop
  endfacet
  facet normal 0 0 -1
    outer loop
      vertex 6.69131 -3.43145 -16
      vertex 3.91441 -0.347397 -16
      vertex 4.73275 0.561457 -16
    endloop
  endfacet
  facet normal 0 0 -1
    outer loop
      vertex 2.925 -1.06625 -16
      vertex 5 -4.66025 -16
      vertex 3.09017 -5.51056 -16
    endloop
  endfacet
  facet normal 0 0 -1
    outer loop
      vertex 5 -4.66025 -16
      vertex 2.925 -1.06625 -16
      vertex 3.91441 -0.347397 -16
    endloop
  endfacet
  facet normal 0 0 -1
    outer loop
      vertex 3.09017 -5.51056 -16
      vertex 1.80775 -1.56368 -16
      vertex 2.925 -1.06625 -16
    endloop
  endfacet
  facet normal 0 0 -1
    outer loop
      vertex 1.04528 -5.94522 -16
      vertex 1.80775 -1.56368 -16
      vertex 3.09017 -5.51056 -16
    endloop
  endfacet
  facet normal 0 0 -1
    outer loop
      vertex 1.04528 -5.94522 -16
      vertex 0.611491 -1.81795 -16
      vertex 1.80775 -1.56368 -16
    endloop
  endfacet
  facet normal 0 0 -1
    outer loop
      vertex 1.04528 -5.94522 -16
      vertex -0.611491 -1.81795 -16
      vertex 0.611491 -1.81795 -16
    endloop
  endfacet
  facet normal 0 0 -1
    outer loop
      vertex -1.04528 -5.94522 -16
      vertex -0.611491 -1.81795 -16
      vertex 1.04528 -5.94522 -16
    endloop
  endfacet
  facet normal 0 0 -1
    outer loop
      vertex -1.04528 -5.94522 -16
      vertex -1.80775 -1.56368 -16
      vertex -0.611491 -1.81795 -16
    endloop
  endfacet
  facet normal 0 0 -1
    outer loop
      vertex -3.09017 -5.51056 -16
      vertex -1.80775 -1.56368 -16
      vertex -1.04528 -5.94522 -16
    endloop
  endfacet
  facet normal -0 0 -1
    outer loop
      vertex -1.80775 -1.56368 -16
      vertex -3.09017 -5.51056 -16
      vertex -2.925 -1.06625 -16
    endloop
  endfacet
  facet normal 0 0 -1
    outer loop
      vertex -5 -4.66025 -16
      vertex -2.925 -1.06625 -16
      vertex -3.09017 -5.51056 -16
    endloop
  endfacet
  facet normal -0 0 -1
    outer loop
      vertex -2.925 -1.06625 -16
      vertex -5 -4.66025 -16
      vertex -3.91441 -0.347397 -16
    endloop
  endfacet
  facet normal 0 0 -1
    outer loop
      vertex -6.69131 -3.43145 -16
      vertex -3.91441 -0.347397 -16
      vertex -5 -4.66025 -16
    endloop
  endfacet
  facet normal -0 0 -1
    outer loop
      vertex -3.91441 -0.347397 -16
      vertex -6.69131 -3.43145 -16
      vertex -4.73275 0.561457 -16
    endloop
  endfacet
  facet normal 0 0 -1
    outer loop
      vertex -8.09017 -1.87785 -16
      vertex -4.73275 0.561457 -16
      vertex -6.69131 -3.43145 -16
    endloop
  endfacet
  facet normal -0 0 -1
    outer loop
      vertex -4.73275 0.561457 -16
      vertex -8.09017 -1.87785 -16
      vertex -5.34424 1.62059 -16
    endloop
  endfacet
  facet normal 0 0 -1
    outer loop
      vertex -9.13545 -0.0673656 -16
      vertex -5.34424 1.62059 -16
      vertex -8.09017 -1.87785 -16
    endloop
  endfacet
  facet normal -0 0 -1
    outer loop
      vertex 9.13545 8.06737 -16
      vertex 5.34424 6.37941 -16
      vertex 8.09017 9.87785 -16
    endloop
  endfacet
  facet normal 0 0 -1
    outer loop
      vertex 4.73275 7.43854 -16
      vertex 8.09017 9.87785 -16
      vertex 5.34424 6.37941 -16
    endloop
  endfacet
  facet normal -0 0 -1
    outer loop
      vertex 8.09017 9.87785 -16
      vertex 4.73275 7.43854 -16
      vertex 6.69131 11.4314 -16
    endloop
  endfacet
  facet normal 0 0 -1
    outer loop
      vertex 3.91441 8.3474 -16
      vertex 6.69131 11.4314 -16
      vertex 4.73275 7.43854 -16
    endloop
  endfacet
  facet normal -0 0 -1
    outer loop
      vertex 6.69131 11.4314 -16
      vertex 3.91441 8.3474 -16
      vertex 5 12.6603 -16
    endloop
  endfacet
  facet normal 0 0 -1
    outer loop
      vertex 2.925 9.06625 -16
      vertex 5 12.6603 -16
      vertex 3.91441 8.3474 -16
    endloop
  endfacet
  facet normal -0 0 -1
    outer loop
      vertex 5 12.6603 -16
      vertex 2.925 9.06625 -16
      vertex 3.09017 13.5106 -16
    endloop
  endfacet
  facet normal 0 0 -1
    outer loop
      vertex 1.80775 9.56368 -16
      vertex 3.09017 13.5106 -16
      vertex 2.925 9.06625 -16
    endloop
  endfacet
  facet normal 0 0 -1
    outer loop
      vertex 1.80775 9.56368 -16
      vertex 1.04528 13.9452 -16
      vertex 3.09017 13.5106 -16
    endloop
  endfacet
  facet normal 0 0 -1
    outer loop
      vertex 0.611491 9.81795 -16
      vertex 1.04528 13.9452 -16
      vertex 1.80775 9.56368 -16
    endloop
  endfacet
  facet normal 0 0 -1
    outer loop
      vertex -0.611491 9.81795 -16
      vertex 1.04528 13.9452 -16
      vertex 0.611491 9.81795 -16
    endloop
  endfacet
  facet normal 0 0 -1
    outer loop
      vertex -0.611491 9.81795 -16
      vertex -1.04528 13.9452 -16
      vertex 1.04528 13.9452 -16
    endloop
  endfacet
  facet normal 0 0 -1
    outer loop
      vertex -1.80775 9.56368 -16
      vertex -1.04528 13.9452 -16
      vertex -0.611491 9.81795 -16
    endloop
  endfacet
  facet normal 0 0 -1
    outer loop
      vertex -3.09017 13.5106 -16
      vertex -1.80775 9.56368 -16
      vertex -2.925 9.06625 -16
    endloop
  endfacet
  facet normal 0 0 -1
    outer loop
      vertex -1.80775 9.56368 -16
      vertex -3.09017 13.5106 -16
      vertex -1.04528 13.9452 -16
    endloop
  endfacet
  facet normal 0 0 -1
    outer loop
      vertex -5 12.6603 -16
      vertex -2.925 9.06625 -16
      vertex -3.91441 8.3474 -16
    endloop
  endfacet
  facet normal 0 0 -1
    outer loop
      vertex -6.69131 11.4314 -16
      vertex -3.91441 8.3474 -16
      vertex -4.73275 7.43854 -16
    endloop
  endfacet
  facet normal 0 0 -1
    outer loop
      vertex -2.925 9.06625 -16
      vertex -5 12.6603 -16
      vertex -3.09017 13.5106 -16
    endloop
  endfacet
  facet normal 0 0 -1
    outer loop
      vertex -8.09017 9.87785 -16
      vertex -4.73275 7.43854 -16
      vertex -5.34424 6.37941 -16
    endloop
  endfacet
  facet normal 0 0 -1
    outer loop
      vertex -9.13545 8.06737 -16
      vertex -5.34424 6.37941 -16
      vertex -5.72216 5.21628 -16
    endloop
  endfacet
  facet normal 0 0 -1
    outer loop
      vertex -9.78148 6.07912 -16
      vertex -5.72216 5.21628 -16
      vertex -5.85 4 -16
    endloop
  endfacet
  facet normal -0 0 -1
    outer loop
      vertex -5.34424 1.62059 -16
      vertex -9.13545 -0.0673656 -16
      vertex -5.72216 2.78372 -16
    endloop
  endfacet
  facet normal 0 0 -1
    outer loop
      vertex -3.91441 8.3474 -16
      vertex -6.69131 11.4314 -16
      vertex -5 12.6603 -16
    endloop
  endfacet
  facet normal 0 0 -1
    outer loop
      vertex -9.78148 1.92088 -16
      vertex -5.72216 2.78372 -16
      vertex -9.13545 -0.0673656 -16
    endloop
  endfacet
  facet normal 0 0 -1
    outer loop
      vertex -4.73275 7.43854 -16
      vertex -8.09017 9.87785 -16
      vertex -6.69131 11.4314 -16
    endloop
  endfacet
  facet normal -0 0 -1
    outer loop
      vertex -5.72216 2.78372 -16
      vertex -9.78148 1.92088 -16
      vertex -5.85 4 -16
    endloop
  endfacet
  facet normal 0 0 -1
    outer loop
      vertex -5.34424 6.37941 -16
      vertex -9.13545 8.06737 -16
      vertex -8.09017 9.87785 -16
    endloop
  endfacet
  facet normal 0 0 -1
    outer loop
      vertex -10 4 -16
      vertex -5.85 4 -16
      vertex -9.78148 1.92088 -16
    endloop
  endfacet
  facet normal 0 0 -1
    outer loop
      vertex -5.72216 5.21628 -16
      vertex -9.78148 6.07912 -16
      vertex -9.13545 8.06737 -16
    endloop
  endfacet
  facet normal 0 0 -1
    outer loop
      vertex -5.85 4 -16
      vertex -10 4 -16
      vertex -9.78148 6.07912 -16
    endloop
  endfacet
  facet normal 0.207911 -0.978148 0
    outer loop
      vertex 1.04528 -5.94522 -16
      vertex 3.09017 -5.51056 0
      vertex 1.04528 -5.94522 0
    endloop
  endfacet
  facet normal 0.207911 -0.978148 0
    outer loop
      vertex 3.09017 -5.51056 0
      vertex 1.04528 -5.94522 -16
      vertex 3.09017 -5.51056 -16
    endloop
  endfacet
  facet normal 0.743145 -0.669131 0
    outer loop
      vertex 6.69131 -3.43145 0
      vertex 8.09017 -1.87785 -16
      vertex 8.09017 -1.87785 0
    endloop
  endfacet
  facet normal 0.743145 -0.669131 0
    outer loop
      vertex 8.09017 -1.87785 -16
      vertex 6.69131 -3.43145 0
      vertex 6.69131 -3.43145 -16
    endloop
  endfacet
  facet normal 0.951055 -0.309021 0
    outer loop
      vertex 9.15734 0 0
      vertex 9.13545 -0.0673656 0
      vertex 9.15734 0 -5
    endloop
  endfacet
  facet normal 0.951057 -0.309017 0
    outer loop
      vertex 9.15734 0 -5
      vertex 9.78148 1.92088 -16
      vertex 9.78148 1.92088 -5
    endloop
  endfacet
  facet normal 0.951057 -0.309017 -2.75141e-008
    outer loop
      vertex 9.15734 0 -5
      vertex 9.13545 -0.0673656 -16
      vertex 9.78148 1.92088 -16
    endloop
  endfacet
  facet normal 0.951055 -0.309021 0
    outer loop
      vertex 9.13545 -0.0673656 -16
      vertex 9.15734 0 -5
      vertex 9.13545 -0.0673656 0
    endloop
  endfacet
  facet normal 0.866026 -0.5 0
    outer loop
      vertex 8.09017 -1.87785 0
      vertex 9.13545 -0.0673656 -16
      vertex 9.13545 -0.0673656 0
    endloop
  endfacet
  facet normal 0.866026 -0.5 0
    outer loop
      vertex 9.13545 -0.0673656 -16
      vertex 8.09017 -1.87785 0
      vertex 8.09017 -1.87785 -16
    endloop
  endfacet
  facet normal -0.866026 -0.5 0
    outer loop
      vertex -8.09017 -1.87785 -16
      vertex -9.13545 -0.0673656 0
      vertex -9.13545 -0.0673656 -16
    endloop
  endfacet
  facet normal -0.866026 -0.5 0
    outer loop
      vertex -9.13545 -0.0673656 0
      vertex -8.09017 -1.87785 -16
      vertex -8.09017 -1.87785 0
    endloop
  endfacet
  facet normal 0.587785 -0.809017 0
    outer loop
      vertex 5 -4.66025 -16
      vertex 6.69131 -3.43145 0
      vertex 5 -4.66025 0
    endloop
  endfacet
  facet normal 0.587785 -0.809017 0
    outer loop
      vertex 6.69131 -3.43145 0
      vertex 5 -4.66025 -16
      vertex 6.69131 -3.43145 -16
    endloop
  endfacet
  facet normal 0.406737 -0.913545 0
    outer loop
      vertex 3.09017 -5.51056 -16
      vertex 5 -4.66025 0
      vertex 3.09017 -5.51056 0
    endloop
  endfacet
  facet normal 0.406737 -0.913545 0
    outer loop
      vertex 5 -4.66025 0
      vertex 3.09017 -5.51056 -16
      vertex 5 -4.66025 -16
    endloop
  endfacet
  facet normal -0.207911 -0.978148 0
    outer loop
      vertex -3.09017 -5.51056 -16
      vertex -1.04528 -5.94522 0
      vertex -3.09017 -5.51056 0
    endloop
  endfacet
  facet normal -0.207911 -0.978148 -0
    outer loop
      vertex -1.04528 -5.94522 0
      vertex -3.09017 -5.51056 -16
      vertex -1.04528 -5.94522 -16
    endloop
  endfacet
  facet normal -0.406737 -0.913545 0
    outer loop
      vertex -5 -4.66025 -16
      vertex -3.09017 -5.51056 0
      vertex -5 -4.66025 0
    endloop
  endfacet
  facet normal -0.406737 -0.913545 -0
    outer loop
      vertex -3.09017 -5.51056 0
      vertex -5 -4.66025 -16
      vertex -3.09017 -5.51056 -16
    endloop
  endfacet
  facet normal -0.743145 -0.669131 0
    outer loop
      vertex -6.69131 -3.43145 -16
      vertex -8.09017 -1.87785 0
      vertex -8.09017 -1.87785 -16
    endloop
  endfacet
  facet normal -0.743145 -0.669131 0
    outer loop
      vertex -8.09017 -1.87785 0
      vertex -6.69131 -3.43145 -16
      vertex -6.69131 -3.43145 0
    endloop
  endfacet
  facet normal -0.951057 -0.309017 0
    outer loop
      vertex -9.78148 1.92088 -16
      vertex -9.15734 0 -5
      vertex -9.78148 1.92088 -5
    endloop
  endfacet
  facet normal -0.951057 -0.309017 -2.75141e-008
    outer loop
      vertex -9.13545 -0.0673656 -16
      vertex -9.15734 0 -5
      vertex -9.78148 1.92088 -16
    endloop
  endfacet
  facet normal -0.951055 -0.309021 -0
    outer loop
      vertex -9.13545 -0.0673656 0
      vertex -9.15734 0 -5
      vertex -9.13545 -0.0673656 -16
    endloop
  endfacet
  facet normal -0.951055 -0.309021 0
    outer loop
      vertex -9.15734 0 -5
      vertex -9.13545 -0.0673656 0
      vertex -9.15734 0 0
    endloop
  endfacet
  facet normal -0.994522 -0.104529 0
    outer loop
      vertex -9.78148 1.92088 -16
      vertex -10 4 -5
      vertex -10 4 -16
    endloop
  endfacet
  facet normal -0.994522 -0.104529 0
    outer loop
      vertex -10 4 -5
      vertex -9.78148 1.92088 -16
      vertex -9.78148 1.92088 -5
    endloop
  endfacet
  facet normal -0.587785 -0.809017 0
    outer loop
      vertex -6.69131 -3.43145 -16
      vertex -5 -4.66025 0
      vertex -6.69131 -3.43145 0
    endloop
  endfacet
  facet normal -0.587785 -0.809017 -0
    outer loop
      vertex -5 -4.66025 0
      vertex -6.69131 -3.43145 -16
      vertex -5 -4.66025 -16
    endloop
  endfacet
  facet normal -0.994522 -0.104528 0
    outer loop
      vertex 5.85 4 -16
      vertex 5.72216 5.21628 0
      vertex 5.72216 5.21628 -16
    endloop
  endfacet
  facet normal -0.994522 -0.104528 0
    outer loop
      vertex 5.72216 5.21628 0
      vertex 5.85 4 -16
      vertex 5.85 4 0
    endloop
  endfacet
  facet normal 0.994522 -0.104528 0
    outer loop
      vertex -5.85 4 0
      vertex -5.72216 5.21628 -16
      vertex -5.72216 5.21628 0
    endloop
  endfacet
  facet normal 0.994522 -0.104528 0
    outer loop
      vertex -5.72216 5.21628 -16
      vertex -5.85 4 0
      vertex -5.85 4 -16
    endloop
  endfacet
  facet normal 0 -1 0
    outer loop
      vertex -0.611491 9.81795 -16
      vertex 0.611491 9.81795 0
      vertex -0.611491 9.81795 0
    endloop
  endfacet
  facet normal 0 -1 -0
    outer loop
      vertex 0.611491 9.81795 0
      vertex -0.611491 9.81795 -16
      vertex 0.611491 9.81795 -16
    endloop
  endfacet
  facet normal 0 1 -0
    outer loop
      vertex 0.611491 -1.81795 -16
      vertex -0.611491 -1.81795 0
      vertex 0.611491 -1.81795 0
    endloop
  endfacet
  facet normal 0 1 0
    outer loop
      vertex -0.611491 -1.81795 0
      vertex 0.611491 -1.81795 -16
      vertex -0.611491 -1.81795 -16
    endloop
  endfacet
  facet normal -0.743145 -0.669131 0
    outer loop
      vertex 4.73275 7.43854 -16
      vertex 3.91441 8.3474 0
      vertex 3.91441 8.3474 -16
    endloop
  endfacet
  facet normal -0.743145 -0.669131 0
    outer loop
      vertex 3.91441 8.3474 0
      vertex 4.73275 7.43854 -16
      vertex 4.73275 7.43854 0
    endloop
  endfacet
  facet normal 0.743145 -0.669131 0
    outer loop
      vertex -4.73275 7.43854 0
      vertex -3.91441 8.3474 -16
      vertex -3.91441 8.3474 0
    endloop
  endfacet
  facet normal 0.743145 -0.669131 0
    outer loop
      vertex -3.91441 8.3474 -16
      vertex -4.73275 7.43854 0
      vertex -4.73275 7.43854 -16
    endloop
  endfacet
  facet normal 0.406737 -0.913546 0
    outer loop
      vertex -2.925 9.06625 -16
      vertex -1.80775 9.56368 0
      vertex -2.925 9.06625 0
    endloop
  endfacet
  facet normal 0.406737 -0.913546 0
    outer loop
      vertex -1.80775 9.56368 0
      vertex -2.925 9.06625 -16
      vertex -1.80775 9.56368 -16
    endloop
  endfacet
  facet normal -0.866026 -0.5 0
    outer loop
      vertex 5.34424 6.37941 -16
      vertex 4.73275 7.43854 0
      vertex 4.73275 7.43854 -16
    endloop
  endfacet
  facet normal -0.866026 -0.5 0
    outer loop
      vertex 4.73275 7.43854 0
      vertex 5.34424 6.37941 -16
      vertex 5.34424 6.37941 0
    endloop
  endfacet
  facet normal -0.951056 -0.309017 0
    outer loop
      vertex 5.72216 5.21628 -16
      vertex 5.34424 6.37941 0
      vertex 5.34424 6.37941 -16
    endloop
  endfacet
  facet normal -0.951056 -0.309017 0
    outer loop
      vertex 5.34424 6.37941 0
      vertex 5.72216 5.21628 -16
      vertex 5.72216 5.21628 0
    endloop
  endfacet
  facet normal -0.406737 -0.913546 0
    outer loop
      vertex 1.80775 9.56368 -16
      vertex 2.925 9.06625 0
      vertex 1.80775 9.56368 0
    endloop
  endfacet
  facet normal -0.406737 -0.913546 -0
    outer loop
      vertex 2.925 9.06625 0
      vertex 1.80775 9.56368 -16
      vertex 2.925 9.06625 -16
    endloop
  endfacet
  facet normal -0.207912 -0.978148 0
    outer loop
      vertex 0.611491 9.81795 -16
      vertex 1.80775 9.56368 0
      vertex 0.611491 9.81795 0
    endloop
  endfacet
  facet normal -0.207912 -0.978148 -0
    outer loop
      vertex 1.80775 9.56368 0
      vertex 0.611491 9.81795 -16
      vertex 1.80775 9.56368 -16
    endloop
  endfacet
  facet normal -0.587785 -0.809017 0
    outer loop
      vertex 2.925 9.06625 -16
      vertex 3.91441 8.3474 0
      vertex 2.925 9.06625 0
    endloop
  endfacet
  facet normal -0.587785 -0.809017 -0
    outer loop
      vertex 3.91441 8.3474 0
      vertex 2.925 9.06625 -16
      vertex 3.91441 8.3474 -16
    endloop
  endfacet
  facet normal 0.866026 -0.5 0
    outer loop
      vertex -5.34424 6.37941 0
      vertex -4.73275 7.43854 -16
      vertex -4.73275 7.43854 0
    endloop
  endfacet
  facet normal 0.866026 -0.5 0
    outer loop
      vertex -4.73275 7.43854 -16
      vertex -5.34424 6.37941 0
      vertex -5.34424 6.37941 -16
    endloop
  endfacet
  facet normal 0.951056 -0.309017 0
    outer loop
      vertex -5.72216 5.21628 0
      vertex -5.34424 6.37941 -16
      vertex -5.34424 6.37941 0
    endloop
  endfacet
  facet normal 0.951056 -0.309017 0
    outer loop
      vertex -5.34424 6.37941 -16
      vertex -5.72216 5.21628 0
      vertex -5.72216 5.21628 -16
    endloop
  endfacet
  facet normal 0.587785 -0.809017 0
    outer loop
      vertex -3.91441 8.3474 -16
      vertex -2.925 9.06625 0
      vertex -3.91441 8.3474 0
    endloop
  endfacet
  facet normal 0.587785 -0.809017 0
    outer loop
      vertex -2.925 9.06625 0
      vertex -3.91441 8.3474 -16
      vertex -2.925 9.06625 -16
    endloop
  endfacet
  facet normal 0.207912 -0.978148 0
    outer loop
      vertex -1.80775 9.56368 -16
      vertex -0.611491 9.81795 0
      vertex -1.80775 9.56368 0
    endloop
  endfacet
  facet normal 0.207912 -0.978148 0
    outer loop
      vertex -0.611491 9.81795 0
      vertex -1.80775 9.56368 -16
      vertex -0.611491 9.81795 -16
    endloop
  endfacet
  facet normal -0.994522 0.104528 0
    outer loop
      vertex 5.72216 2.78372 -16
      vertex 5.85 4 0
      vertex 5.85 4 -16
    endloop
  endfacet
  facet normal -0.994522 0.104528 0
    outer loop
      vertex 5.85 4 0
      vertex 5.72216 2.78372 -16
      vertex 5.72216 2.78372 0
    endloop
  endfacet
  facet normal -0.743145 0.669131 0
    outer loop
      vertex 3.91441 -0.347397 -16
      vertex 4.73275 0.561457 0
      vertex 4.73275 0.561457 -16
    endloop
  endfacet
  facet normal -0.743145 0.669131 0
    outer loop
      vertex 4.73275 0.561457 0
      vertex 3.91441 -0.347397 -16
      vertex 3.91441 -0.347397 0
    endloop
  endfacet
  facet normal -0.951056 0.309017 0
    outer loop
      vertex 5.34424 1.62059 -16
      vertex 5.72216 2.78372 0
      vertex 5.72216 2.78372 -16
    endloop
  endfacet
  facet normal -0.951056 0.309017 0
    outer loop
      vertex 5.72216 2.78372 0
      vertex 5.34424 1.62059 -16
      vertex 5.34424 1.62059 0
    endloop
  endfacet
  facet normal -0.866026 0.5 0
    outer loop
      vertex 4.73275 0.561457 -16
      vertex 5.34424 1.62059 0
      vertex 5.34424 1.62059 -16
    endloop
  endfacet
  facet normal -0.866026 0.5 0
    outer loop
      vertex 5.34424 1.62059 0
      vertex 4.73275 0.561457 -16
      vertex 4.73275 0.561457 0
    endloop
  endfacet
  facet normal 0.406737 0.913546 -0
    outer loop
      vertex -1.80775 -1.56368 -16
      vertex -2.925 -1.06625 0
      vertex -1.80775 -1.56368 0
    endloop
  endfacet
  facet normal 0.406737 0.913546 0
    outer loop
      vertex -2.925 -1.06625 0
      vertex -1.80775 -1.56368 -16
      vertex -2.925 -1.06625 -16
    endloop
  endfacet
  facet normal 0.866026 0.5 0
    outer loop
      vertex -4.73275 0.561457 0
      vertex -5.34424 1.62059 -16
      vertex -5.34424 1.62059 0
    endloop
  endfacet
  facet normal 0.866026 0.5 0
    outer loop
      vertex -5.34424 1.62059 -16
      vertex -4.73275 0.561457 0
      vertex -4.73275 0.561457 -16
    endloop
  endfacet
  facet normal -0.587785 0.809017 0
    outer loop
      vertex 3.91441 -0.347397 -16
      vertex 2.925 -1.06625 0
      vertex 3.91441 -0.347397 0
    endloop
  endfacet
  facet normal -0.587785 0.809017 0
    outer loop
      vertex 2.925 -1.06625 0
      vertex 3.91441 -0.347397 -16
      vertex 2.925 -1.06625 -16
    endloop
  endfacet
  facet normal 0.207912 0.978148 -0
    outer loop
      vertex -0.611491 -1.81795 -16
      vertex -1.80775 -1.56368 0
      vertex -0.611491 -1.81795 0
    endloop
  endfacet
  facet normal 0.207912 0.978148 0
    outer loop
      vertex -1.80775 -1.56368 0
      vertex -0.611491 -1.81795 -16
      vertex -1.80775 -1.56368 -16
    endloop
  endfacet
  facet normal 0.587785 0.809017 -0
    outer loop
      vertex -2.925 -1.06625 -16
      vertex -3.91441 -0.347397 0
      vertex -2.925 -1.06625 0
    endloop
  endfacet
  facet normal 0.587785 0.809017 0
    outer loop
      vertex -3.91441 -0.347397 0
      vertex -2.925 -1.06625 -16
      vertex -3.91441 -0.347397 -16
    endloop
  endfacet
  facet normal 0.743145 0.669131 0
    outer loop
      vertex -3.91441 -0.347397 0
      vertex -4.73275 0.561457 -16
      vertex -4.73275 0.561457 0
    endloop
  endfacet
  facet normal 0.743145 0.669131 0
    outer loop
      vertex -4.73275 0.561457 -16
      vertex -3.91441 -0.347397 0
      vertex -3.91441 -0.347397 -16
    endloop
  endfacet
  facet normal 0.951056 0.309017 0
    outer loop
      vertex -5.34424 1.62059 0
      vertex -5.72216 2.78372 -16
      vertex -5.72216 2.78372 0
    endloop
  endfacet
  facet normal 0.951056 0.309017 0
    outer loop
      vertex -5.72216 2.78372 -16
      vertex -5.34424 1.62059 0
      vertex -5.34424 1.62059 -16
    endloop
  endfacet
  facet normal 0.994522 0.104528 0
    outer loop
      vertex -5.72216 2.78372 0
      vertex -5.85 4 -16
      vertex -5.85 4 0
    endloop
  endfacet
  facet normal 0.994522 0.104528 0
    outer loop
      vertex -5.85 4 -16
      vertex -5.72216 2.78372 0
      vertex -5.72216 2.78372 -16
    endloop
  endfacet
  facet normal -0.406737 0.913546 0
    outer loop
      vertex 2.925 -1.06625 -16
      vertex 1.80775 -1.56368 0
      vertex 2.925 -1.06625 0
    endloop
  endfacet
  facet normal -0.406737 0.913546 0
    outer loop
      vertex 1.80775 -1.56368 0
      vertex 2.925 -1.06625 -16
      vertex 1.80775 -1.56368 -16
    endloop
  endfacet
  facet normal -0.207912 0.978148 0
    outer loop
      vertex 1.80775 -1.56368 -16
      vertex 0.611491 -1.81795 0
      vertex 1.80775 -1.56368 0
    endloop
  endfacet
  facet normal -0.207912 0.978148 0
    outer loop
      vertex 0.611491 -1.81795 0
      vertex 1.80775 -1.56368 -16
      vertex 0.611491 -1.81795 -16
    endloop
  endfacet
endsolid OpenSCAD_Model
