solid OpenSCAD_Model
  facet normal 0.994522 0.104529 0
    outer loop
      vertex 5 0 5
      vertex 4.89074 1.03956 0
      vertex 4.89074 1.03956 5
    endloop
  endfacet
  facet normal 0.994522 0.104529 0
    outer loop
      vertex 4.89074 1.03956 0
      vertex 5 0 5
      vertex 5 0 0
    endloop
  endfacet
  facet normal -0.994522 0.104529 0
    outer loop
      vertex -5 0 0
      vertex -4.89074 1.03956 5
      vertex -4.89074 1.03956 0
    endloop
  endfacet
  facet normal -0.994522 0.104529 0
    outer loop
      vertex -4.89074 1.03956 5
      vertex -5 0 0
      vertex -5 0 5
    endloop
  endfacet
  facet normal 0 1 -0
    outer loop
      vertex 0.522642 4.97261 0
      vertex -0.522642 4.97261 5
      vertex 0.522642 4.97261 5
    endloop
  endfacet
  facet normal 0 1 0
    outer loop
      vertex -0.522642 4.97261 5
      vertex 0.522642 4.97261 0
      vertex -0.522642 4.97261 0
    endloop
  endfacet
  facet normal 0 -1 0
    outer loop
      vertex -0.522642 -4.97261 0
      vertex 0.522642 -4.97261 5
      vertex -0.522642 -4.97261 5
    endloop
  endfacet
  facet normal 0 -1 -0
    outer loop
      vertex 0.522642 -4.97261 5
      vertex -0.522642 -4.97261 0
      vertex 0.522642 -4.97261 0
    endloop
  endfacet
  facet normal 0.587785 0.809017 -0
    outer loop
      vertex 3.34565 3.71572 0
      vertex 2.5 4.33013 5
      vertex 3.34565 3.71572 5
    endloop
  endfacet
  facet normal 0.587785 0.809017 0
    outer loop
      vertex 2.5 4.33013 5
      vertex 3.34565 3.71572 0
      vertex 2.5 4.33013 0
    endloop
  endfacet
  facet normal 0.406737 0.913545 -0
    outer loop
      vertex 2.5 4.33013 0
      vertex 1.54508 4.75528 5
      vertex 2.5 4.33013 5
    endloop
  endfacet
  facet normal 0.406737 0.913545 0
    outer loop
      vertex 1.54508 4.75528 5
      vertex 2.5 4.33013 0
      vertex 1.54508 4.75528 0
    endloop
  endfacet
  facet normal -0.587785 0.809017 0
    outer loop
      vertex -2.5 4.33013 0
      vertex -3.34565 3.71572 5
      vertex -2.5 4.33013 5
    endloop
  endfacet
  facet normal -0.587785 0.809017 0
    outer loop
      vertex -3.34565 3.71572 5
      vertex -2.5 4.33013 0
      vertex -3.34565 3.71572 0
    endloop
  endfacet
  facet normal -0.207911 0.978148 0
    outer loop
      vertex -0.522642 4.97261 0
      vertex -1.54508 4.75528 5
      vertex -0.522642 4.97261 5
    endloop
  endfacet
  facet normal -0.207911 0.978148 0
    outer loop
      vertex -1.54508 4.75528 5
      vertex -0.522642 4.97261 0
      vertex -1.54508 4.75528 0
    endloop
  endfacet
  facet normal 0.866025 0.5 0
    outer loop
      vertex 4.56773 2.03368 5
      vertex 4.04508 2.93893 0
      vertex 4.04508 2.93893 5
    endloop
  endfacet
  facet normal 0.866025 0.5 0
    outer loop
      vertex 4.04508 2.93893 0
      vertex 4.56773 2.03368 5
      vertex 4.56773 2.03368 0
    endloop
  endfacet
  facet normal 0.951057 0.309017 0
    outer loop
      vertex 4.89074 1.03956 5
      vertex 4.56773 2.03368 0
      vertex 4.56773 2.03368 5
    endloop
  endfacet
  facet normal 0.951057 0.309017 0
    outer loop
      vertex 4.56773 2.03368 0
      vertex 4.89074 1.03956 5
      vertex 4.89074 1.03956 0
    endloop
  endfacet
  facet normal 0.743145 0.669131 0
    outer loop
      vertex 4.04508 2.93893 5
      vertex 3.34565 3.71572 0
      vertex 3.34565 3.71572 5
    endloop
  endfacet
  facet normal 0.743145 0.669131 0
    outer loop
      vertex 3.34565 3.71572 0
      vertex 4.04508 2.93893 5
      vertex 4.04508 2.93893 0
    endloop
  endfacet
  facet normal 0.207911 0.978148 -0
    outer loop
      vertex 1.54508 4.75528 0
      vertex 0.522642 4.97261 5
      vertex 1.54508 4.75528 5
    endloop
  endfacet
  facet normal 0.207911 0.978148 0
    outer loop
      vertex 0.522642 4.97261 5
      vertex 1.54508 4.75528 0
      vertex 0.522642 4.97261 0
    endloop
  endfacet
  facet normal -0.866025 0.5 0
    outer loop
      vertex -4.56773 2.03368 0
      vertex -4.04508 2.93893 5
      vertex -4.04508 2.93893 0
    endloop
  endfacet
  facet normal -0.866025 0.5 0
    outer loop
      vertex -4.04508 2.93893 5
      vertex -4.56773 2.03368 0
      vertex -4.56773 2.03368 5
    endloop
  endfacet
  facet normal -0.743145 0.669131 0
    outer loop
      vertex -4.04508 2.93893 0
      vertex -3.34565 3.71572 5
      vertex -3.34565 3.71572 0
    endloop
  endfacet
  facet normal -0.743145 0.669131 0
    outer loop
      vertex -3.34565 3.71572 5
      vertex -4.04508 2.93893 0
      vertex -4.04508 2.93893 5
    endloop
  endfacet
  facet normal -0.951057 0.309017 0
    outer loop
      vertex -4.89074 1.03956 0
      vertex -4.56773 2.03368 5
      vertex -4.56773 2.03368 0
    endloop
  endfacet
  facet normal -0.951057 0.309017 0
    outer loop
      vertex -4.56773 2.03368 5
      vertex -4.89074 1.03956 0
      vertex -4.89074 1.03956 5
    endloop
  endfacet
  facet normal 0 0 1
    outer loop
      vertex 1.4 0 5
      vertex 5 0 5
      vertex 4.89074 1.03956 5
    endloop
  endfacet
  facet normal 0 0 1
    outer loop
      vertex 1.36941 0.291076 5
      vertex 4.89074 1.03956 5
      vertex 4.56773 2.03368 5
    endloop
  endfacet
  facet normal 0 0 1
    outer loop
      vertex 5 0 5
      vertex 1.4 0 5
      vertex 4.89074 -1.03956 5
    endloop
  endfacet
  facet normal 0 0 1
    outer loop
      vertex 1.27896 0.56943 5
      vertex 4.56773 2.03368 5
      vertex 4.04508 2.93893 5
    endloop
  endfacet
  facet normal -0 0 1
    outer loop
      vertex 1.36941 -0.291076 5
      vertex 4.89074 -1.03956 5
      vertex 1.4 0 5
    endloop
  endfacet
  facet normal 0 0 1
    outer loop
      vertex 1.13262 0.822899 5
      vertex 4.04508 2.93893 5
      vertex 3.34565 3.71572 5
    endloop
  endfacet
  facet normal 0 0 1
    outer loop
      vertex 4.89074 -1.03956 5
      vertex 1.36941 -0.291076 5
      vertex 4.56773 -2.03368 5
    endloop
  endfacet
  facet normal 0 0 1
    outer loop
      vertex 0.936783 1.0404 5
      vertex 3.34565 3.71572 5
      vertex 2.5 4.33013 5
    endloop
  endfacet
  facet normal -0 0 1
    outer loop
      vertex 1.27896 -0.56943 5
      vertex 4.56773 -2.03368 5
      vertex 1.36941 -0.291076 5
    endloop
  endfacet
  facet normal 0 0 1
    outer loop
      vertex 0.7 1.21243 5
      vertex 2.5 4.33013 5
      vertex 1.54508 4.75528 5
    endloop
  endfacet
  facet normal 0 0 1
    outer loop
      vertex 4.56773 -2.03368 5
      vertex 1.27896 -0.56943 5
      vertex 4.04508 -2.93893 5
    endloop
  endfacet
  facet normal -0 0 1
    outer loop
      vertex 1.13262 -0.822899 5
      vertex 4.04508 -2.93893 5
      vertex 1.27896 -0.56943 5
    endloop
  endfacet
  facet normal 0 0 1
    outer loop
      vertex 4.89074 1.03956 5
      vertex 1.36941 0.291076 5
      vertex 1.4 0 5
    endloop
  endfacet
  facet normal 0 0 1
    outer loop
      vertex 4.56773 2.03368 5
      vertex 1.27896 0.56943 5
      vertex 1.36941 0.291076 5
    endloop
  endfacet
  facet normal 0 0 1
    outer loop
      vertex 4.04508 2.93893 5
      vertex 1.13262 0.822899 5
      vertex 1.27896 0.56943 5
    endloop
  endfacet
  facet normal 0 0 1
    outer loop
      vertex 3.34565 3.71572 5
      vertex 0.936783 1.0404 5
      vertex 1.13262 0.822899 5
    endloop
  endfacet
  facet normal 0 0 1
    outer loop
      vertex 2.5 4.33013 5
      vertex 0.7 1.21243 5
      vertex 0.936783 1.0404 5
    endloop
  endfacet
  facet normal 0 0 1
    outer loop
      vertex 0.432623 1.33148 5
      vertex 1.54508 4.75528 5
      vertex 0.522642 4.97261 5
    endloop
  endfacet
  facet normal 0 0 1
    outer loop
      vertex 1.54508 4.75528 5
      vertex 0.432623 1.33148 5
      vertex 0.7 1.21243 5
    endloop
  endfacet
  facet normal 0 0 1
    outer loop
      vertex 0.522642 4.97261 5
      vertex 0.146339 1.39233 5
      vertex 0.432623 1.33148 5
    endloop
  endfacet
  facet normal 0 0 1
    outer loop
      vertex 0.522642 4.97261 5
      vertex -0.146339 1.39233 5
      vertex 0.146339 1.39233 5
    endloop
  endfacet
  facet normal -0 0 1
    outer loop
      vertex -0.522642 4.97261 5
      vertex -0.146339 1.39233 5
      vertex 0.522642 4.97261 5
    endloop
  endfacet
  facet normal 0 0 1
    outer loop
      vertex -0.146339 1.39233 5
      vertex -0.522642 4.97261 5
      vertex -0.432623 1.33148 5
    endloop
  endfacet
  facet normal -0 0 1
    outer loop
      vertex -1.54508 4.75528 5
      vertex -0.432623 1.33148 5
      vertex -0.522642 4.97261 5
    endloop
  endfacet
  facet normal 0 0 1
    outer loop
      vertex -0.432623 1.33148 5
      vertex -1.54508 4.75528 5
      vertex -0.7 1.21243 5
    endloop
  endfacet
  facet normal -0 0 1
    outer loop
      vertex -2.5 4.33013 5
      vertex -0.7 1.21243 5
      vertex -1.54508 4.75528 5
    endloop
  endfacet
  facet normal 0 0 1
    outer loop
      vertex -0.7 1.21243 5
      vertex -2.5 4.33013 5
      vertex -0.936783 1.0404 5
    endloop
  endfacet
  facet normal -0 0 1
    outer loop
      vertex -3.34565 3.71572 5
      vertex -0.936783 1.0404 5
      vertex -2.5 4.33013 5
    endloop
  endfacet
  facet normal -0 0 1
    outer loop
      vertex -4.04508 2.93893 5
      vertex -1.13262 0.822899 5
      vertex -3.34565 3.71572 5
    endloop
  endfacet
  facet normal 0 0 1
    outer loop
      vertex -0.936783 1.0404 5
      vertex -3.34565 3.71572 5
      vertex -1.13262 0.822899 5
    endloop
  endfacet
  facet normal 0 0 1
    outer loop
      vertex 4.04508 -2.93893 5
      vertex 1.13262 -0.822899 5
      vertex 3.34565 -3.71572 5
    endloop
  endfacet
  facet normal -0 0 1
    outer loop
      vertex 0.936783 -1.0404 5
      vertex 3.34565 -3.71572 5
      vertex 1.13262 -0.822899 5
    endloop
  endfacet
  facet normal 0 0 1
    outer loop
      vertex 3.34565 -3.71572 5
      vertex 0.936783 -1.0404 5
      vertex 2.5 -4.33013 5
    endloop
  endfacet
  facet normal -0 0 1
    outer loop
      vertex 0.7 -1.21243 5
      vertex 2.5 -4.33013 5
      vertex 0.936783 -1.0404 5
    endloop
  endfacet
  facet normal 0 0 1
    outer loop
      vertex 2.5 -4.33013 5
      vertex 0.7 -1.21243 5
      vertex 1.54508 -4.75528 5
    endloop
  endfacet
  facet normal -0 0 1
    outer loop
      vertex 0.432623 -1.33148 5
      vertex 1.54508 -4.75528 5
      vertex 0.7 -1.21243 5
    endloop
  endfacet
  facet normal 0 0 1
    outer loop
      vertex 1.54508 -4.75528 5
      vertex 0.432623 -1.33148 5
      vertex 0.522642 -4.97261 5
    endloop
  endfacet
  facet normal -0 0 1
    outer loop
      vertex 0.146339 -1.39233 5
      vertex 0.522642 -4.97261 5
      vertex 0.432623 -1.33148 5
    endloop
  endfacet
  facet normal -0 0 1
    outer loop
      vertex -0.146339 -1.39233 5
      vertex 0.522642 -4.97261 5
      vertex 0.146339 -1.39233 5
    endloop
  endfacet
  facet normal 0 0 1
    outer loop
      vertex -0.522642 -4.97261 5
      vertex -0.146339 -1.39233 5
      vertex -0.432623 -1.33148 5
    endloop
  endfacet
  facet normal 0 0 1
    outer loop
      vertex -0.146339 -1.39233 5
      vertex -0.522642 -4.97261 5
      vertex 0.522642 -4.97261 5
    endloop
  endfacet
  facet normal 0 0 1
    outer loop
      vertex -1.54508 -4.75528 5
      vertex -0.432623 -1.33148 5
      vertex -0.7 -1.21243 5
    endloop
  endfacet
  facet normal 0 0 1
    outer loop
      vertex -2.5 -4.33013 5
      vertex -0.7 -1.21243 5
      vertex -0.936783 -1.0404 5
    endloop
  endfacet
  facet normal 0 0 1
    outer loop
      vertex -3.34565 -3.71572 5
      vertex -0.936783 -1.0404 5
      vertex -1.13262 -0.822899 5
    endloop
  endfacet
  facet normal 0 0 1
    outer loop
      vertex -4.04508 -2.93893 5
      vertex -1.13262 -0.822899 5
      vertex -1.27896 -0.56943 5
    endloop
  endfacet
  facet normal 0 0 1
    outer loop
      vertex -4.56773 -2.03368 5
      vertex -1.27896 -0.56943 5
      vertex -1.36941 -0.291076 5
    endloop
  endfacet
  facet normal 0 0 1
    outer loop
      vertex -0.432623 -1.33148 5
      vertex -1.54508 -4.75528 5
      vertex -0.522642 -4.97261 5
    endloop
  endfacet
  facet normal 0 0 1
    outer loop
      vertex -4.89074 -1.03956 5
      vertex -1.36941 -0.291076 5
      vertex -1.4 0 5
    endloop
  endfacet
  facet normal 0 0 1
    outer loop
      vertex -1.13262 0.822899 5
      vertex -4.04508 2.93893 5
      vertex -1.27896 0.56943 5
    endloop
  endfacet
  facet normal -0 0 1
    outer loop
      vertex -4.56773 2.03368 5
      vertex -1.27896 0.56943 5
      vertex -4.04508 2.93893 5
    endloop
  endfacet
  facet normal 0 0 1
    outer loop
      vertex -0.7 -1.21243 5
      vertex -2.5 -4.33013 5
      vertex -1.54508 -4.75528 5
    endloop
  endfacet
  facet normal 0 0 1
    outer loop
      vertex -1.27896 0.56943 5
      vertex -4.56773 2.03368 5
      vertex -1.36941 0.291076 5
    endloop
  endfacet
  facet normal 0 0 1
    outer loop
      vertex -0.936783 -1.0404 5
      vertex -3.34565 -3.71572 5
      vertex -2.5 -4.33013 5
    endloop
  endfacet
  facet normal -0 0 1
    outer loop
      vertex -4.89074 1.03956 5
      vertex -1.36941 0.291076 5
      vertex -4.56773 2.03368 5
    endloop
  endfacet
  facet normal 0 0 1
    outer loop
      vertex -1.13262 -0.822899 5
      vertex -4.04508 -2.93893 5
      vertex -3.34565 -3.71572 5
    endloop
  endfacet
  facet normal 0 0 1
    outer loop
      vertex -1.36941 0.291076 5
      vertex -4.89074 1.03956 5
      vertex -1.4 0 5
    endloop
  endfacet
  facet normal 0 0 1
    outer loop
      vertex -1.27896 -0.56943 5
      vertex -4.56773 -2.03368 5
      vertex -4.04508 -2.93893 5
    endloop
  endfacet
  facet normal 0 0 1
    outer loop
      vertex -5 0 5
      vertex -1.4 0 5
      vertex -4.89074 1.03956 5
    endloop
  endfacet
  facet normal 0 0 1
    outer loop
      vertex -1.36941 -0.291076 5
      vertex -4.89074 -1.03956 5
      vertex -4.56773 -2.03368 5
    endloop
  endfacet
  facet normal 0 0 1
    outer loop
      vertex -1.4 0 5
      vertex -5 0 5
      vertex -4.89074 -1.03956 5
    endloop
  endfacet
  facet normal -0.406737 0.913545 0
    outer loop
      vertex -1.54508 4.75528 0
      vertex -2.5 4.33013 5
      vertex -1.54508 4.75528 5
    endloop
  endfacet
  facet normal -0.406737 0.913545 0
    outer loop
      vertex -2.5 4.33013 5
      vertex -1.54508 4.75528 0
      vertex -2.5 4.33013 0
    endloop
  endfacet
  facet normal 0.994522 -0.104529 0
    outer loop
      vertex 4.89074 -1.03956 5
      vertex 5 0 0
      vertex 5 0 5
    endloop
  endfacet
  facet normal 0.994522 -0.104529 0
    outer loop
      vertex 5 0 0
      vertex 4.89074 -1.03956 5
      vertex 4.89074 -1.03956 0
    endloop
  endfacet
  facet normal 0 0 -1
    outer loop
      vertex 1.4 0 0
      vertex 5 0 0
      vertex 4.89074 -1.03956 0
    endloop
  endfacet
  facet normal 0 0 -1
    outer loop
      vertex 1.36941 -0.291076 0
      vertex 4.89074 -1.03956 0
      vertex 4.56773 -2.03368 0
    endloop
  endfacet
  facet normal 0 0 -1
    outer loop
      vertex 5 0 0
      vertex 1.4 0 0
      vertex 4.89074 1.03956 0
    endloop
  endfacet
  facet normal 0 0 -1
    outer loop
      vertex 1.27896 -0.56943 0
      vertex 4.56773 -2.03368 0
      vertex 4.04508 -2.93893 0
    endloop
  endfacet
  facet normal 0 0 -1
    outer loop
      vertex 1.36941 0.291076 0
      vertex 4.89074 1.03956 0
      vertex 1.4 0 0
    endloop
  endfacet
  facet normal 0 0 -1
    outer loop
      vertex 1.13262 -0.822899 0
      vertex 4.04508 -2.93893 0
      vertex 3.34565 -3.71572 0
    endloop
  endfacet
  facet normal -0 0 -1
    outer loop
      vertex 4.89074 1.03956 0
      vertex 1.36941 0.291076 0
      vertex 4.56773 2.03368 0
    endloop
  endfacet
  facet normal 0 0 -1
    outer loop
      vertex 0.936783 -1.0404 0
      vertex 3.34565 -3.71572 0
      vertex 2.5 -4.33013 0
    endloop
  endfacet
  facet normal 0 0 -1
    outer loop
      vertex 1.27896 0.56943 0
      vertex 4.56773 2.03368 0
      vertex 1.36941 0.291076 0
    endloop
  endfacet
  facet normal 0 0 -1
    outer loop
      vertex 0.7 -1.21243 0
      vertex 2.5 -4.33013 0
      vertex 1.54508 -4.75528 0
    endloop
  endfacet
  facet normal -0 0 -1
    outer loop
      vertex 4.56773 2.03368 0
      vertex 1.27896 0.56943 0
      vertex 4.04508 2.93893 0
    endloop
  endfacet
  facet normal 0 0 -1
    outer loop
      vertex 1.13262 0.822899 0
      vertex 4.04508 2.93893 0
      vertex 1.27896 0.56943 0
    endloop
  endfacet
  facet normal 0 0 -1
    outer loop
      vertex 4.89074 -1.03956 0
      vertex 1.36941 -0.291076 0
      vertex 1.4 0 0
    endloop
  endfacet
  facet normal 0 0 -1
    outer loop
      vertex 4.56773 -2.03368 0
      vertex 1.27896 -0.56943 0
      vertex 1.36941 -0.291076 0
    endloop
  endfacet
  facet normal 0 0 -1
    outer loop
      vertex 4.04508 -2.93893 0
      vertex 1.13262 -0.822899 0
      vertex 1.27896 -0.56943 0
    endloop
  endfacet
  facet normal 0 0 -1
    outer loop
      vertex 3.34565 -3.71572 0
      vertex 0.936783 -1.0404 0
      vertex 1.13262 -0.822899 0
    endloop
  endfacet
  facet normal 0 0 -1
    outer loop
      vertex 2.5 -4.33013 0
      vertex 0.7 -1.21243 0
      vertex 0.936783 -1.0404 0
    endloop
  endfacet
  facet normal 0 0 -1
    outer loop
      vertex 0.432623 -1.33148 0
      vertex 1.54508 -4.75528 0
      vertex 0.522642 -4.97261 0
    endloop
  endfacet
  facet normal 0 0 -1
    outer loop
      vertex 1.54508 -4.75528 0
      vertex 0.432623 -1.33148 0
      vertex 0.7 -1.21243 0
    endloop
  endfacet
  facet normal 0 0 -1
    outer loop
      vertex 0.522642 -4.97261 0
      vertex 0.146339 -1.39233 0
      vertex 0.432623 -1.33148 0
    endloop
  endfacet
  facet normal 0 0 -1
    outer loop
      vertex 0.522642 -4.97261 0
      vertex -0.146339 -1.39233 0
      vertex 0.146339 -1.39233 0
    endloop
  endfacet
  facet normal 0 0 -1
    outer loop
      vertex -0.522642 -4.97261 0
      vertex -0.146339 -1.39233 0
      vertex 0.522642 -4.97261 0
    endloop
  endfacet
  facet normal -0 0 -1
    outer loop
      vertex -0.146339 -1.39233 0
      vertex -0.522642 -4.97261 0
      vertex -0.432623 -1.33148 0
    endloop
  endfacet
  facet normal 0 0 -1
    outer loop
      vertex -1.54508 -4.75528 0
      vertex -0.432623 -1.33148 0
      vertex -0.522642 -4.97261 0
    endloop
  endfacet
  facet normal -0 0 -1
    outer loop
      vertex -0.432623 -1.33148 0
      vertex -1.54508 -4.75528 0
      vertex -0.7 -1.21243 0
    endloop
  endfacet
  facet normal 0 0 -1
    outer loop
      vertex -2.5 -4.33013 0
      vertex -0.7 -1.21243 0
      vertex -1.54508 -4.75528 0
    endloop
  endfacet
  facet normal -0 0 -1
    outer loop
      vertex -0.7 -1.21243 0
      vertex -2.5 -4.33013 0
      vertex -0.936783 -1.0404 0
    endloop
  endfacet
  facet normal 0 0 -1
    outer loop
      vertex -3.34565 -3.71572 0
      vertex -0.936783 -1.0404 0
      vertex -2.5 -4.33013 0
    endloop
  endfacet
  facet normal 0 0 -1
    outer loop
      vertex -4.04508 -2.93893 0
      vertex -1.13262 -0.822899 0
      vertex -3.34565 -3.71572 0
    endloop
  endfacet
  facet normal -0 0 -1
    outer loop
      vertex -0.936783 -1.0404 0
      vertex -3.34565 -3.71572 0
      vertex -1.13262 -0.822899 0
    endloop
  endfacet
  facet normal -0 0 -1
    outer loop
      vertex 4.04508 2.93893 0
      vertex 1.13262 0.822899 0
      vertex 3.34565 3.71572 0
    endloop
  endfacet
  facet normal 0 0 -1
    outer loop
      vertex 0.936783 1.0404 0
      vertex 3.34565 3.71572 0
      vertex 1.13262 0.822899 0
    endloop
  endfacet
  facet normal -0 0 -1
    outer loop
      vertex 3.34565 3.71572 0
      vertex 0.936783 1.0404 0
      vertex 2.5 4.33013 0
    endloop
  endfacet
  facet normal 0 0 -1
    outer loop
      vertex 0.7 1.21243 0
      vertex 2.5 4.33013 0
      vertex 0.936783 1.0404 0
    endloop
  endfacet
  facet normal -0 0 -1
    outer loop
      vertex 2.5 4.33013 0
      vertex 0.7 1.21243 0
      vertex 1.54508 4.75528 0
    endloop
  endfacet
  facet normal 0 0 -1
    outer loop
      vertex 0.432623 1.33148 0
      vertex 1.54508 4.75528 0
      vertex 0.7 1.21243 0
    endloop
  endfacet
  facet normal -0 0 -1
    outer loop
      vertex 1.54508 4.75528 0
      vertex 0.432623 1.33148 0
      vertex 0.522642 4.97261 0
    endloop
  endfacet
  facet normal 0 0 -1
    outer loop
      vertex 0.146339 1.39233 0
      vertex 0.522642 4.97261 0
      vertex 0.432623 1.33148 0
    endloop
  endfacet
  facet normal 0 0 -1
    outer loop
      vertex -0.146339 1.39233 0
      vertex 0.522642 4.97261 0
      vertex 0.146339 1.39233 0
    endloop
  endfacet
  facet normal 0 0 -1
    outer loop
      vertex -0.522642 4.97261 0
      vertex -0.146339 1.39233 0
      vertex -0.432623 1.33148 0
    endloop
  endfacet
  facet normal 0 0 -1
    outer loop
      vertex -0.146339 1.39233 0
      vertex -0.522642 4.97261 0
      vertex 0.522642 4.97261 0
    endloop
  endfacet
  facet normal 0 0 -1
    outer loop
      vertex -1.54508 4.75528 0
      vertex -0.432623 1.33148 0
      vertex -0.7 1.21243 0
    endloop
  endfacet
  facet normal 0 0 -1
    outer loop
      vertex -2.5 4.33013 0
      vertex -0.7 1.21243 0
      vertex -0.936783 1.0404 0
    endloop
  endfacet
  facet normal 0 0 -1
    outer loop
      vertex -3.34565 3.71572 0
      vertex -0.936783 1.0404 0
      vertex -1.13262 0.822899 0
    endloop
  endfacet
  facet normal 0 0 -1
    outer loop
      vertex -4.04508 2.93893 0
      vertex -1.13262 0.822899 0
      vertex -1.27896 0.56943 0
    endloop
  endfacet
  facet normal 0 0 -1
    outer loop
      vertex -4.56773 2.03368 0
      vertex -1.27896 0.56943 0
      vertex -1.36941 0.291076 0
    endloop
  endfacet
  facet normal 0 0 -1
    outer loop
      vertex -0.432623 1.33148 0
      vertex -1.54508 4.75528 0
      vertex -0.522642 4.97261 0
    endloop
  endfacet
  facet normal 0 0 -1
    outer loop
      vertex -4.89074 1.03956 0
      vertex -1.36941 0.291076 0
      vertex -1.4 0 0
    endloop
  endfacet
  facet normal -0 0 -1
    outer loop
      vertex -1.13262 -0.822899 0
      vertex -4.04508 -2.93893 0
      vertex -1.27896 -0.56943 0
    endloop
  endfacet
  facet normal 0 0 -1
    outer loop
      vertex -0.7 1.21243 0
      vertex -2.5 4.33013 0
      vertex -1.54508 4.75528 0
    endloop
  endfacet
  facet normal 0 0 -1
    outer loop
      vertex -4.56773 -2.03368 0
      vertex -1.27896 -0.56943 0
      vertex -4.04508 -2.93893 0
    endloop
  endfacet
  facet normal -0 0 -1
    outer loop
      vertex -1.27896 -0.56943 0
      vertex -4.56773 -2.03368 0
      vertex -1.36941 -0.291076 0
    endloop
  endfacet
  facet normal 0 0 -1
    outer loop
      vertex -0.936783 1.0404 0
      vertex -3.34565 3.71572 0
      vertex -2.5 4.33013 0
    endloop
  endfacet
  facet normal 0 0 -1
    outer loop
      vertex -4.89074 -1.03956 0
      vertex -1.36941 -0.291076 0
      vertex -4.56773 -2.03368 0
    endloop
  endfacet
  facet normal 0 0 -1
    outer loop
      vertex -1.13262 0.822899 0
      vertex -4.04508 2.93893 0
      vertex -3.34565 3.71572 0
    endloop
  endfacet
  facet normal -0 0 -1
    outer loop
      vertex -1.36941 -0.291076 0
      vertex -4.89074 -1.03956 0
      vertex -1.4 0 0
    endloop
  endfacet
  facet normal 0 0 -1
    outer loop
      vertex -1.27896 0.56943 0
      vertex -4.56773 2.03368 0
      vertex -4.04508 2.93893 0
    endloop
  endfacet
  facet normal 0 0 -1
    outer loop
      vertex -5 0 0
      vertex -1.4 0 0
      vertex -4.89074 -1.03956 0
    endloop
  endfacet
  facet normal 0 0 -1
    outer loop
      vertex -1.36941 0.291076 0
      vertex -4.89074 1.03956 0
      vertex -4.56773 2.03368 0
    endloop
  endfacet
  facet normal 0 0 -1
    outer loop
      vertex -1.4 0 0
      vertex -5 0 0
      vertex -4.89074 1.03956 0
    endloop
  endfacet
  facet normal 0.207911 -0.978148 0
    outer loop
      vertex 0.522642 -4.97261 0
      vertex 1.54508 -4.75528 5
      vertex 0.522642 -4.97261 5
    endloop
  endfacet
  facet normal 0.207911 -0.978148 0
    outer loop
      vertex 1.54508 -4.75528 5
      vertex 0.522642 -4.97261 0
      vertex 1.54508 -4.75528 0
    endloop
  endfacet
  facet normal 0.866025 -0.5 0
    outer loop
      vertex 4.04508 -2.93893 5
      vertex 4.56773 -2.03368 0
      vertex 4.56773 -2.03368 5
    endloop
  endfacet
  facet normal 0.866025 -0.5 0
    outer loop
      vertex 4.56773 -2.03368 0
      vertex 4.04508 -2.93893 5
      vertex 4.04508 -2.93893 0
    endloop
  endfacet
  facet normal -0.587785 -0.809017 0
    outer loop
      vertex -3.34565 -3.71572 0
      vertex -2.5 -4.33013 5
      vertex -3.34565 -3.71572 5
    endloop
  endfacet
  facet normal -0.587785 -0.809017 -0
    outer loop
      vertex -2.5 -4.33013 5
      vertex -3.34565 -3.71572 0
      vertex -2.5 -4.33013 0
    endloop
  endfacet
  facet normal -0.866025 -0.5 0
    outer loop
      vertex -4.04508 -2.93893 0
      vertex -4.56773 -2.03368 5
      vertex -4.56773 -2.03368 0
    endloop
  endfacet
  facet normal -0.866025 -0.5 0
    outer loop
      vertex -4.56773 -2.03368 5
      vertex -4.04508 -2.93893 0
      vertex -4.04508 -2.93893 5
    endloop
  endfacet
  facet normal -0.743145 -0.669131 0
    outer loop
      vertex -3.34565 -3.71572 0
      vertex -4.04508 -2.93893 5
      vertex -4.04508 -2.93893 0
    endloop
  endfacet
  facet normal -0.743145 -0.669131 0
    outer loop
      vertex -4.04508 -2.93893 5
      vertex -3.34565 -3.71572 0
      vertex -3.34565 -3.71572 5
    endloop
  endfacet
  facet normal 0.587785 -0.809017 0
    outer loop
      vertex 2.5 -4.33013 0
      vertex 3.34565 -3.71572 5
      vertex 2.5 -4.33013 5
    endloop
  endfacet
  facet normal 0.587785 -0.809017 0
    outer loop
      vertex 3.34565 -3.71572 5
      vertex 2.5 -4.33013 0
      vertex 3.34565 -3.71572 0
    endloop
  endfacet
  facet normal 0.406737 -0.913545 0
    outer loop
      vertex 1.54508 -4.75528 0
      vertex 2.5 -4.33013 5
      vertex 1.54508 -4.75528 5
    endloop
  endfacet
  facet normal 0.406737 -0.913545 0
    outer loop
      vertex 2.5 -4.33013 5
      vertex 1.54508 -4.75528 0
      vertex 2.5 -4.33013 0
    endloop
  endfacet
  facet normal 0.951057 -0.309017 0
    outer loop
      vertex 4.56773 -2.03368 5
      vertex 4.89074 -1.03956 0
      vertex 4.89074 -1.03956 5
    endloop
  endfacet
  facet normal 0.951057 -0.309017 0
    outer loop
      vertex 4.89074 -1.03956 0
      vertex 4.56773 -2.03368 5
      vertex 4.56773 -2.03368 0
    endloop
  endfacet
  facet normal -0.207911 -0.978148 0
    outer loop
      vertex -1.54508 -4.75528 0
      vertex -0.522642 -4.97261 5
      vertex -1.54508 -4.75528 5
    endloop
  endfacet
  facet normal -0.207911 -0.978148 -0
    outer loop
      vertex -0.522642 -4.97261 5
      vertex -1.54508 -4.75528 0
      vertex -0.522642 -4.97261 0
    endloop
  endfacet
  facet normal -0.951057 -0.309017 0
    outer loop
      vertex -4.56773 -2.03368 0
      vertex -4.89074 -1.03956 5
      vertex -4.89074 -1.03956 0
    endloop
  endfacet
  facet normal -0.951057 -0.309017 0
    outer loop
      vertex -4.89074 -1.03956 5
      vertex -4.56773 -2.03368 0
      vertex -4.56773 -2.03368 5
    endloop
  endfacet
  facet normal -0.994522 -0.104529 0
    outer loop
      vertex -4.89074 -1.03956 0
      vertex -5 0 5
      vertex -5 0 0
    endloop
  endfacet
  facet normal -0.994522 -0.104529 0
    outer loop
      vertex -5 0 5
      vertex -4.89074 -1.03956 0
      vertex -4.89074 -1.03956 5
    endloop
  endfacet
  facet normal 0.743145 -0.669131 0
    outer loop
      vertex 3.34565 -3.71572 5
      vertex 4.04508 -2.93893 0
      vertex 4.04508 -2.93893 5
    endloop
  endfacet
  facet normal 0.743145 -0.669131 0
    outer loop
      vertex 4.04508 -2.93893 0
      vertex 3.34565 -3.71572 5
      vertex 3.34565 -3.71572 0
    endloop
  endfacet
  facet normal -0.406737 -0.913545 0
    outer loop
      vertex -2.5 -4.33013 0
      vertex -1.54508 -4.75528 5
      vertex -2.5 -4.33013 5
    endloop
  endfacet
  facet normal -0.406737 -0.913545 -0
    outer loop
      vertex -1.54508 -4.75528 5
      vertex -2.5 -4.33013 0
      vertex -1.54508 -4.75528 0
    endloop
  endfacet
  facet normal -0.994522 -0.10453 0
    outer loop
      vertex 1.4 0 0
      vertex 1.36941 0.291076 5
      vertex 1.36941 0.291076 0
    endloop
  endfacet
  facet normal -0.994522 -0.10453 0
    outer loop
      vertex 1.36941 0.291076 5
      vertex 1.4 0 0
      vertex 1.4 0 5
    endloop
  endfacet
  facet normal 0.994522 -0.10453 0
    outer loop
      vertex -1.4 0 5
      vertex -1.36941 0.291076 0
      vertex -1.36941 0.291076 5
    endloop
  endfacet
  facet normal 0.994522 -0.10453 0
    outer loop
      vertex -1.36941 0.291076 0
      vertex -1.4 0 5
      vertex -1.4 0 0
    endloop
  endfacet
  facet normal 0 -1 0
    outer loop
      vertex -0.146339 1.39233 0
      vertex 0.146339 1.39233 5
      vertex -0.146339 1.39233 5
    endloop
  endfacet
  facet normal 0 -1 -0
    outer loop
      vertex 0.146339 1.39233 5
      vertex -0.146339 1.39233 0
      vertex 0.146339 1.39233 0
    endloop
  endfacet
  facet normal 0 1 -0
    outer loop
      vertex 0.146339 -1.39233 0
      vertex -0.146339 -1.39233 5
      vertex 0.146339 -1.39233 5
    endloop
  endfacet
  facet normal 0 1 0
    outer loop
      vertex -0.146339 -1.39233 5
      vertex 0.146339 -1.39233 0
      vertex -0.146339 -1.39233 0
    endloop
  endfacet
  facet normal -0.743145 -0.66913 0
    outer loop
      vertex 1.13262 0.822899 0
      vertex 0.936783 1.0404 5
      vertex 0.936783 1.0404 0
    endloop
  endfacet
  facet normal -0.743145 -0.66913 0
    outer loop
      vertex 0.936783 1.0404 5
      vertex 1.13262 0.822899 0
      vertex 1.13262 0.822899 5
    endloop
  endfacet
  facet normal 0.587784 -0.809018 0
    outer loop
      vertex -0.936783 1.0404 0
      vertex -0.7 1.21243 5
      vertex -0.936783 1.0404 5
    endloop
  endfacet
  facet normal 0.587784 -0.809018 0
    outer loop
      vertex -0.7 1.21243 5
      vertex -0.936783 1.0404 0
      vertex -0.7 1.21243 0
    endloop
  endfacet
  facet normal 0.207911 -0.978148 0
    outer loop
      vertex -0.432623 1.33148 0
      vertex -0.146339 1.39233 5
      vertex -0.432623 1.33148 5
    endloop
  endfacet
  facet normal 0.207911 -0.978148 0
    outer loop
      vertex -0.146339 1.39233 5
      vertex -0.432623 1.33148 0
      vertex -0.146339 1.39233 0
    endloop
  endfacet
  facet normal -0.951057 0.309016 0
    outer loop
      vertex 1.27896 -0.56943 0
      vertex 1.36941 -0.291076 5
      vertex 1.36941 -0.291076 0
    endloop
  endfacet
  facet normal -0.951057 0.309016 0
    outer loop
      vertex 1.36941 -0.291076 5
      vertex 1.27896 -0.56943 0
      vertex 1.27896 -0.56943 5
    endloop
  endfacet
  facet normal -0.866026 -0.499998 0
    outer loop
      vertex 1.27896 0.56943 0
      vertex 1.13262 0.822899 5
      vertex 1.13262 0.822899 0
    endloop
  endfacet
  facet normal -0.866026 -0.499998 0
    outer loop
      vertex 1.13262 0.822899 5
      vertex 1.27896 0.56943 0
      vertex 1.27896 0.56943 5
    endloop
  endfacet
  facet normal -0.951057 -0.309016 0
    outer loop
      vertex 1.36941 0.291076 0
      vertex 1.27896 0.56943 5
      vertex 1.27896 0.56943 0
    endloop
  endfacet
  facet normal -0.951057 -0.309016 0
    outer loop
      vertex 1.27896 0.56943 5
      vertex 1.36941 0.291076 0
      vertex 1.36941 0.291076 5
    endloop
  endfacet
  facet normal -0.406738 -0.913545 0
    outer loop
      vertex 0.432623 1.33148 0
      vertex 0.7 1.21243 5
      vertex 0.432623 1.33148 5
    endloop
  endfacet
  facet normal -0.406738 -0.913545 -0
    outer loop
      vertex 0.7 1.21243 5
      vertex 0.432623 1.33148 0
      vertex 0.7 1.21243 0
    endloop
  endfacet
  facet normal -0.207911 -0.978148 0
    outer loop
      vertex 0.146339 1.39233 0
      vertex 0.432623 1.33148 5
      vertex 0.146339 1.39233 5
    endloop
  endfacet
  facet normal -0.207911 -0.978148 -0
    outer loop
      vertex 0.432623 1.33148 5
      vertex 0.146339 1.39233 0
      vertex 0.432623 1.33148 0
    endloop
  endfacet
  facet normal -0.587784 -0.809018 0
    outer loop
      vertex 0.7 1.21243 0
      vertex 0.936783 1.0404 5
      vertex 0.7 1.21243 5
    endloop
  endfacet
  facet normal -0.587784 -0.809018 -0
    outer loop
      vertex 0.936783 1.0404 5
      vertex 0.7 1.21243 0
      vertex 0.936783 1.0404 0
    endloop
  endfacet
  facet normal 0.866026 -0.499998 0
    outer loop
      vertex -1.27896 0.56943 5
      vertex -1.13262 0.822899 0
      vertex -1.13262 0.822899 5
    endloop
  endfacet
  facet normal 0.866026 -0.499998 0
    outer loop
      vertex -1.13262 0.822899 0
      vertex -1.27896 0.56943 5
      vertex -1.27896 0.56943 0
    endloop
  endfacet
  facet normal 0.743145 -0.66913 0
    outer loop
      vertex -1.13262 0.822899 5
      vertex -0.936783 1.0404 0
      vertex -0.936783 1.0404 5
    endloop
  endfacet
  facet normal 0.743145 -0.66913 0
    outer loop
      vertex -0.936783 1.0404 0
      vertex -1.13262 0.822899 5
      vertex -1.13262 0.822899 0
    endloop
  endfacet
  facet normal 0.951057 -0.309016 0
    outer loop
      vertex -1.36941 0.291076 5
      vertex -1.27896 0.56943 0
      vertex -1.27896 0.56943 5
    endloop
  endfacet
  facet normal 0.951057 -0.309016 0
    outer loop
      vertex -1.27896 0.56943 0
      vertex -1.36941 0.291076 5
      vertex -1.36941 0.291076 0
    endloop
  endfacet
  facet normal 0.406738 -0.913545 0
    outer loop
      vertex -0.7 1.21243 0
      vertex -0.432623 1.33148 5
      vertex -0.7 1.21243 5
    endloop
  endfacet
  facet normal 0.406738 -0.913545 0
    outer loop
      vertex -0.432623 1.33148 5
      vertex -0.7 1.21243 0
      vertex -0.432623 1.33148 0
    endloop
  endfacet
  facet normal -0.994522 0.10453 0
    outer loop
      vertex 1.36941 -0.291076 0
      vertex 1.4 0 5
      vertex 1.4 0 0
    endloop
  endfacet
  facet normal -0.994522 0.10453 0
    outer loop
      vertex 1.4 0 5
      vertex 1.36941 -0.291076 0
      vertex 1.36941 -0.291076 5
    endloop
  endfacet
  facet normal -0.207911 0.978148 0
    outer loop
      vertex 0.432623 -1.33148 0
      vertex 0.146339 -1.39233 5
      vertex 0.432623 -1.33148 5
    endloop
  endfacet
  facet normal -0.207911 0.978148 0
    outer loop
      vertex 0.146339 -1.39233 5
      vertex 0.432623 -1.33148 0
      vertex 0.146339 -1.39233 0
    endloop
  endfacet
  facet normal -0.866026 0.499998 0
    outer loop
      vertex 1.13262 -0.822899 0
      vertex 1.27896 -0.56943 5
      vertex 1.27896 -0.56943 0
    endloop
  endfacet
  facet normal -0.866026 0.499998 0
    outer loop
      vertex 1.27896 -0.56943 5
      vertex 1.13262 -0.822899 0
      vertex 1.13262 -0.822899 5
    endloop
  endfacet
  facet normal 0.587784 0.809018 -0
    outer loop
      vertex -0.7 -1.21243 0
      vertex -0.936783 -1.0404 5
      vertex -0.7 -1.21243 5
    endloop
  endfacet
  facet normal 0.587784 0.809018 0
    outer loop
      vertex -0.936783 -1.0404 5
      vertex -0.7 -1.21243 0
      vertex -0.936783 -1.0404 0
    endloop
  endfacet
  facet normal 0.866026 0.499998 0
    outer loop
      vertex -1.13262 -0.822899 5
      vertex -1.27896 -0.56943 0
      vertex -1.27896 -0.56943 5
    endloop
  endfacet
  facet normal 0.866026 0.499998 0
    outer loop
      vertex -1.27896 -0.56943 0
      vertex -1.13262 -0.822899 5
      vertex -1.13262 -0.822899 0
    endloop
  endfacet
  facet normal 0.743145 0.66913 0
    outer loop
      vertex -0.936783 -1.0404 5
      vertex -1.13262 -0.822899 0
      vertex -1.13262 -0.822899 5
    endloop
  endfacet
  facet normal 0.743145 0.66913 0
    outer loop
      vertex -1.13262 -0.822899 0
      vertex -0.936783 -1.0404 5
      vertex -0.936783 -1.0404 0
    endloop
  endfacet
  facet normal -0.587784 0.809018 0
    outer loop
      vertex 0.936783 -1.0404 0
      vertex 0.7 -1.21243 5
      vertex 0.936783 -1.0404 5
    endloop
  endfacet
  facet normal -0.587784 0.809018 0
    outer loop
      vertex 0.7 -1.21243 5
      vertex 0.936783 -1.0404 0
      vertex 0.7 -1.21243 0
    endloop
  endfacet
  facet normal -0.406738 0.913545 0
    outer loop
      vertex 0.7 -1.21243 0
      vertex 0.432623 -1.33148 5
      vertex 0.7 -1.21243 5
    endloop
  endfacet
  facet normal -0.406738 0.913545 0
    outer loop
      vertex 0.432623 -1.33148 5
      vertex 0.7 -1.21243 0
      vertex 0.432623 -1.33148 0
    endloop
  endfacet
  facet normal 0.207911 0.978148 -0
    outer loop
      vertex -0.146339 -1.39233 0
      vertex -0.432623 -1.33148 5
      vertex -0.146339 -1.39233 5
    endloop
  endfacet
  facet normal 0.207911 0.978148 0
    outer loop
      vertex -0.432623 -1.33148 5
      vertex -0.146339 -1.39233 0
      vertex -0.432623 -1.33148 0
    endloop
  endfacet
  facet normal 0.951057 0.309016 0
    outer loop
      vertex -1.27896 -0.56943 5
      vertex -1.36941 -0.291076 0
      vertex -1.36941 -0.291076 5
    endloop
  endfacet
  facet normal 0.951057 0.309016 0
    outer loop
      vertex -1.36941 -0.291076 0
      vertex -1.27896 -0.56943 5
      vertex -1.27896 -0.56943 0
    endloop
  endfacet
  facet normal 0.994522 0.10453 0
    outer loop
      vertex -1.36941 -0.291076 5
      vertex -1.4 0 0
      vertex -1.4 0 5
    endloop
  endfacet
  facet normal 0.994522 0.10453 0
    outer loop
      vertex -1.4 0 0
      vertex -1.36941 -0.291076 5
      vertex -1.36941 -0.291076 0
    endloop
  endfacet
  facet normal -0.743145 0.66913 0
    outer loop
      vertex 0.936783 -1.0404 0
      vertex 1.13262 -0.822899 5
      vertex 1.13262 -0.822899 0
    endloop
  endfacet
  facet normal -0.743145 0.66913 0
    outer loop
      vertex 1.13262 -0.822899 5
      vertex 0.936783 -1.0404 0
      vertex 0.936783 -1.0404 5
    endloop
  endfacet
  facet normal 0.406738 0.913545 -0
    outer loop
      vertex -0.432623 -1.33148 0
      vertex -0.7 -1.21243 5
      vertex -0.432623 -1.33148 5
    endloop
  endfacet
  facet normal 0.406738 0.913545 0
    outer loop
      vertex -0.7 -1.21243 5
      vertex -0.432623 -1.33148 0
      vertex -0.7 -1.21243 0
    endloop
  endfacet
endsolid OpenSCAD_Model
