solid OpenSCAD_Model
  facet normal -1 0 0
    outer loop
      vertex 30.7 20.808 2
      vertex 30.7 42.808 5
      vertex 30.7 42.808 2
    endloop
  endfacet
  facet normal -1 -0 0
    outer loop
      vertex 30.7 42.808 5
      vertex 30.7 20.808 2
      vertex 30.7 20.808 5
    endloop
  endfacet
  facet normal 0 0 1
    outer loop
      vertex 36.3027 37.3786 5
      vertex 40.3 37.4 5
      vertex 36.4961 37.7135 5
    endloop
  endfacet
  facet normal 0 0 1
    outer loop
      vertex 40.3 27.9 5
      vertex 36.6156 23.6106 5
      vertex 36.656 23.226 5
    endloop
  endfacet
  facet normal 0 0 1
    outer loop
      vertex 36.0439 37.0912 5
      vertex 40.3 37.4 5
      vertex 36.3027 37.3786 5
    endloop
  endfacet
  facet normal 0 0 1
    outer loop
      vertex 40.3 27.9 5
      vertex 36.4961 23.9785 5
      vertex 36.6156 23.6106 5
    endloop
  endfacet
  facet normal 0 0 1
    outer loop
      vertex 35.731 36.8639 5
      vertex 40.3 37.4 5
      vertex 36.0439 37.0912 5
    endloop
  endfacet
  facet normal 0 0 1
    outer loop
      vertex 40.3 27.9 5
      vertex 36.3027 24.3134 5
      vertex 36.4961 23.9785 5
    endloop
  endfacet
  facet normal 0 0 1
    outer loop
      vertex 40.3 37.4 5
      vertex 35.731 36.8639 5
      vertex 40.3 27.9 5
    endloop
  endfacet
  facet normal 0 0 1
    outer loop
      vertex 40.3 27.9 5
      vertex 36.0439 24.6008 5
      vertex 36.3027 24.3134 5
    endloop
  endfacet
  facet normal -0 0 1
    outer loop
      vertex 35.3777 36.7065 5
      vertex 40.3 27.9 5
      vertex 35.731 36.8639 5
    endloop
  endfacet
  facet normal 0 0 1
    outer loop
      vertex 40.3 27.9 5
      vertex 35.731 24.8281 5
      vertex 36.0439 24.6008 5
    endloop
  endfacet
  facet normal -0 0 1
    outer loop
      vertex 34.9994 36.6261 5
      vertex 40.3 27.9 5
      vertex 35.3777 36.7065 5
    endloop
  endfacet
  facet normal 0 0 1
    outer loop
      vertex 40.3 27.9 5
      vertex 35.3777 24.9855 5
      vertex 35.731 24.8281 5
    endloop
  endfacet
  facet normal 0 0 1
    outer loop
      vertex 34.9994 25.0659 5
      vertex 40.3 27.9 5
      vertex 34.9994 36.6261 5
    endloop
  endfacet
  facet normal 0 0 1
    outer loop
      vertex 40.3 27.9 5
      vertex 34.9994 25.0659 5
      vertex 35.3777 24.9855 5
    endloop
  endfacet
  facet normal -0 0 1
    outer loop
      vertex 34.6126 36.6261 5
      vertex 34.9994 25.0659 5
      vertex 34.9994 36.6261 5
    endloop
  endfacet
  facet normal 0 0 1
    outer loop
      vertex 34.6126 36.6261 5
      vertex 34.6126 25.0659 5
      vertex 34.9994 25.0659 5
    endloop
  endfacet
  facet normal 0 0 1
    outer loop
      vertex 34.2343 36.7065 5
      vertex 34.6126 25.0659 5
      vertex 34.6126 36.6261 5
    endloop
  endfacet
  facet normal 0 0 1
    outer loop
      vertex 34.2343 36.7065 5
      vertex 34.2343 24.9855 5
      vertex 34.6126 25.0659 5
    endloop
  endfacet
  facet normal 0 0 1
    outer loop
      vertex 33.881 36.8639 5
      vertex 34.2343 24.9855 5
      vertex 34.2343 36.7065 5
    endloop
  endfacet
  facet normal 0 0 1
    outer loop
      vertex 33.881 36.8639 5
      vertex 33.881 24.8281 5
      vertex 34.2343 24.9855 5
    endloop
  endfacet
  facet normal 0 0 1
    outer loop
      vertex 33.5681 37.0912 5
      vertex 33.881 24.8281 5
      vertex 33.881 36.8639 5
    endloop
  endfacet
  facet normal 0 0 1
    outer loop
      vertex 33.5681 37.0912 5
      vertex 33.5681 24.6008 5
      vertex 33.881 24.8281 5
    endloop
  endfacet
  facet normal 0 0 1
    outer loop
      vertex 33.3093 37.3786 5
      vertex 33.5681 24.6008 5
      vertex 33.5681 37.0912 5
    endloop
  endfacet
  facet normal 0 0 1
    outer loop
      vertex 33.3093 37.3786 5
      vertex 33.3093 24.3134 5
      vertex 33.5681 24.6008 5
    endloop
  endfacet
  facet normal 0 0 1
    outer loop
      vertex 33.1159 37.7135 5
      vertex 33.3093 24.3134 5
      vertex 33.3093 37.3786 5
    endloop
  endfacet
  facet normal 0 0 1
    outer loop
      vertex 33.1159 37.7135 5
      vertex 33.1159 23.9785 5
      vertex 33.3093 24.3134 5
    endloop
  endfacet
  facet normal 0 0 1
    outer loop
      vertex 30.7 20.808 5
      vertex 33.1159 37.7135 5
      vertex 32.9964 38.0814 5
    endloop
  endfacet
  facet normal 0 0 1
    outer loop
      vertex 33.1159 37.7135 5
      vertex 30.7 20.808 5
      vertex 33.1159 23.9785 5
    endloop
  endfacet
  facet normal 0 0 1
    outer loop
      vertex 30.7 42.808 5
      vertex 32.9964 38.0814 5
      vertex 32.956 38.466 5
    endloop
  endfacet
  facet normal 0 0 1
    outer loop
      vertex 33.1159 23.9785 5
      vertex 30.7 20.808 5
      vertex 32.9964 23.6106 5
    endloop
  endfacet
  facet normal 0 0 1
    outer loop
      vertex 69.7 42.808 5
      vertex 66.9761 37.7135 5
      vertex 69.7 20.808 5
    endloop
  endfacet
  facet normal 0 0 1
    outer loop
      vertex 69.7 20.808 5
      vertex 67.0956 23.6106 5
      vertex 67.136 23.226 5
    endloop
  endfacet
  facet normal -0 0 1
    outer loop
      vertex 66.7827 37.3786 5
      vertex 69.7 20.808 5
      vertex 66.9761 37.7135 5
    endloop
  endfacet
  facet normal 0 0 1
    outer loop
      vertex 69.7 20.808 5
      vertex 66.9761 23.9785 5
      vertex 67.0956 23.6106 5
    endloop
  endfacet
  facet normal -0 0 1
    outer loop
      vertex 66.7827 24.3134 5
      vertex 69.7 20.808 5
      vertex 66.7827 37.3786 5
    endloop
  endfacet
  facet normal 0 0 1
    outer loop
      vertex 69.7 20.808 5
      vertex 66.7827 24.3134 5
      vertex 66.9761 23.9785 5
    endloop
  endfacet
  facet normal -0 0 1
    outer loop
      vertex 66.5239 37.0912 5
      vertex 66.7827 24.3134 5
      vertex 66.7827 37.3786 5
    endloop
  endfacet
  facet normal 0 0 1
    outer loop
      vertex 66.5239 37.0912 5
      vertex 66.5239 24.6008 5
      vertex 66.7827 24.3134 5
    endloop
  endfacet
  facet normal -0 0 1
    outer loop
      vertex 66.211 36.8639 5
      vertex 66.5239 24.6008 5
      vertex 66.5239 37.0912 5
    endloop
  endfacet
  facet normal 0 0 1
    outer loop
      vertex 66.211 36.8639 5
      vertex 66.211 24.8281 5
      vertex 66.5239 24.6008 5
    endloop
  endfacet
  facet normal -0 0 1
    outer loop
      vertex 65.8577 36.7065 5
      vertex 66.211 24.8281 5
      vertex 66.211 36.8639 5
    endloop
  endfacet
  facet normal 0 0 1
    outer loop
      vertex 65.8577 36.7065 5
      vertex 65.8577 24.9855 5
      vertex 66.211 24.8281 5
    endloop
  endfacet
  facet normal -0 0 1
    outer loop
      vertex 65.4794 36.6261 5
      vertex 65.8577 24.9855 5
      vertex 65.8577 36.7065 5
    endloop
  endfacet
  facet normal 0 0 1
    outer loop
      vertex 65.4794 36.6261 5
      vertex 65.4794 25.0659 5
      vertex 65.8577 24.9855 5
    endloop
  endfacet
  facet normal 0 0 1
    outer loop
      vertex 61.3 27.9 5
      vertex 65.4794 36.6261 5
      vertex 65.0926 36.6261 5
    endloop
  endfacet
  facet normal 0 0 1
    outer loop
      vertex 65.4794 36.6261 5
      vertex 61.3 27.9 5
      vertex 65.4794 25.0659 5
    endloop
  endfacet
  facet normal 0 0 1
    outer loop
      vertex 61.3 27.9 5
      vertex 65.0926 36.6261 5
      vertex 64.7143 36.7065 5
    endloop
  endfacet
  facet normal 0 0 1
    outer loop
      vertex 65.4794 25.0659 5
      vertex 61.3 27.9 5
      vertex 65.0926 25.0659 5
    endloop
  endfacet
  facet normal 0 0 1
    outer loop
      vertex 61.3 27.9 5
      vertex 64.7143 36.7065 5
      vertex 64.361 36.8639 5
    endloop
  endfacet
  facet normal 0 0 1
    outer loop
      vertex 65.0926 25.0659 5
      vertex 61.3 27.9 5
      vertex 64.7143 24.9855 5
    endloop
  endfacet
  facet normal 0 0 1
    outer loop
      vertex 61.3 37.4 5
      vertex 64.361 36.8639 5
      vertex 64.0481 37.0912 5
    endloop
  endfacet
  facet normal 0 0 1
    outer loop
      vertex 64.7143 24.9855 5
      vertex 61.3 27.9 5
      vertex 64.361 24.8281 5
    endloop
  endfacet
  facet normal 0 0 1
    outer loop
      vertex 61.3 37.4 5
      vertex 64.0481 37.0912 5
      vertex 63.7893 37.3786 5
    endloop
  endfacet
  facet normal 0 0 1
    outer loop
      vertex 64.361 24.8281 5
      vertex 61.3 27.9 5
      vertex 64.0481 24.6008 5
    endloop
  endfacet
  facet normal -0 0 1
    outer loop
      vertex 61.3 37.4 5
      vertex 63.7893 37.3786 5
      vertex 63.5959 37.7135 5
    endloop
  endfacet
  facet normal 0 0 1
    outer loop
      vertex 64.0481 24.6008 5
      vertex 61.3 27.9 5
      vertex 63.7893 24.3134 5
    endloop
  endfacet
  facet normal 0 0 1
    outer loop
      vertex 61.3 37.4 5
      vertex 63.5959 37.7135 5
      vertex 63.4764 38.0814 5
    endloop
  endfacet
  facet normal 0 0 1
    outer loop
      vertex 63.7893 24.3134 5
      vertex 61.3 27.9 5
      vertex 63.5959 23.9785 5
    endloop
  endfacet
  facet normal 0 0 1
    outer loop
      vertex 61.3 37.4 5
      vertex 63.4764 38.0814 5
      vertex 63.436 38.466 5
    endloop
  endfacet
  facet normal 0 0 1
    outer loop
      vertex 63.5959 23.9785 5
      vertex 61.3 27.9 5
      vertex 63.4764 23.6106 5
    endloop
  endfacet
  facet normal 0 0 1
    outer loop
      vertex 67.0956 38.0814 5
      vertex 69.7 42.808 5
      vertex 67.136 38.466 5
    endloop
  endfacet
  facet normal 0 0 1
    outer loop
      vertex 69.7 42.808 5
      vertex 67.0956 38.8506 5
      vertex 67.136 38.466 5
    endloop
  endfacet
  facet normal 0 0 1
    outer loop
      vertex 69.7 42.808 5
      vertex 66.9761 39.2185 5
      vertex 67.0956 38.8506 5
    endloop
  endfacet
  facet normal 0 0 1
    outer loop
      vertex 69.7 42.808 5
      vertex 66.7827 39.5534 5
      vertex 66.9761 39.2185 5
    endloop
  endfacet
  facet normal 0 0 1
    outer loop
      vertex 69.7 42.808 5
      vertex 66.5239 39.8408 5
      vertex 66.7827 39.5534 5
    endloop
  endfacet
  facet normal 0 0 1
    outer loop
      vertex 69.7 42.808 5
      vertex 66.211 40.0681 5
      vertex 66.5239 39.8408 5
    endloop
  endfacet
  facet normal 0 0 1
    outer loop
      vertex 69.7 42.808 5
      vertex 65.8577 40.2255 5
      vertex 66.211 40.0681 5
    endloop
  endfacet
  facet normal 0 0 1
    outer loop
      vertex 69.7 42.808 5
      vertex 65.4794 40.3059 5
      vertex 65.8577 40.2255 5
    endloop
  endfacet
  facet normal 0 0 1
    outer loop
      vertex 69.7 42.808 5
      vertex 65.0926 40.3059 5
      vertex 65.4794 40.3059 5
    endloop
  endfacet
  facet normal 0 0 1
    outer loop
      vertex 69.7 42.808 5
      vertex 64.7143 40.2255 5
      vertex 65.0926 40.3059 5
    endloop
  endfacet
  facet normal -0 0 1
    outer loop
      vertex 30.7 42.808 5
      vertex 64.7143 40.2255 5
      vertex 69.7 42.808 5
    endloop
  endfacet
  facet normal 0 0 1
    outer loop
      vertex 64.361 36.8639 5
      vertex 61.3 37.4 5
      vertex 61.3 27.9 5
    endloop
  endfacet
  facet normal 0 0 1
    outer loop
      vertex 63.4764 38.8506 5
      vertex 61.3 37.4 5
      vertex 63.436 38.466 5
    endloop
  endfacet
  facet normal 0 0 1
    outer loop
      vertex 63.5959 39.2185 5
      vertex 61.3 37.4 5
      vertex 63.4764 38.8506 5
    endloop
  endfacet
  facet normal 0 0 1
    outer loop
      vertex 63.7893 39.5534 5
      vertex 61.3 37.4 5
      vertex 63.5959 39.2185 5
    endloop
  endfacet
  facet normal 0 0 1
    outer loop
      vertex 64.0481 39.8408 5
      vertex 61.3 37.4 5
      vertex 63.7893 39.5534 5
    endloop
  endfacet
  facet normal 0 0 1
    outer loop
      vertex 64.0481 39.8408 5
      vertex 40.3 37.4 5
      vertex 61.3 37.4 5
    endloop
  endfacet
  facet normal 0 0 1
    outer loop
      vertex 64.361 40.0681 5
      vertex 40.3 37.4 5
      vertex 64.0481 39.8408 5
    endloop
  endfacet
  facet normal 0 0 1
    outer loop
      vertex 64.7143 40.2255 5
      vertex 30.7 42.808 5
      vertex 64.361 40.0681 5
    endloop
  endfacet
  facet normal -0 0 1
    outer loop
      vertex 36.6156 38.0814 5
      vertex 40.3 37.4 5
      vertex 36.656 38.466 5
    endloop
  endfacet
  facet normal 0 0 1
    outer loop
      vertex 64.361 40.0681 5
      vertex 36.0439 39.8408 5
      vertex 40.3 37.4 5
    endloop
  endfacet
  facet normal 0 0 1
    outer loop
      vertex 40.3 37.4 5
      vertex 36.6156 38.8506 5
      vertex 36.656 38.466 5
    endloop
  endfacet
  facet normal 0 0 1
    outer loop
      vertex 40.3 37.4 5
      vertex 36.4961 39.2185 5
      vertex 36.6156 38.8506 5
    endloop
  endfacet
  facet normal 0 0 1
    outer loop
      vertex 40.3 37.4 5
      vertex 36.3027 39.5534 5
      vertex 36.4961 39.2185 5
    endloop
  endfacet
  facet normal 0 0 1
    outer loop
      vertex 40.3 37.4 5
      vertex 36.0439 39.8408 5
      vertex 36.3027 39.5534 5
    endloop
  endfacet
  facet normal 0 0 1
    outer loop
      vertex 64.361 40.0681 5
      vertex 35.731 40.0681 5
      vertex 36.0439 39.8408 5
    endloop
  endfacet
  facet normal 0 0 1
    outer loop
      vertex 64.361 40.0681 5
      vertex 35.3777 40.2255 5
      vertex 35.731 40.0681 5
    endloop
  endfacet
  facet normal 0 0 1
    outer loop
      vertex 64.361 40.0681 5
      vertex 30.7 42.808 5
      vertex 35.3777 40.2255 5
    endloop
  endfacet
  facet normal 0 0 1
    outer loop
      vertex 35.3777 40.2255 5
      vertex 30.7 42.808 5
      vertex 34.9994 40.3059 5
    endloop
  endfacet
  facet normal 0 0 1
    outer loop
      vertex 32.9964 38.0814 5
      vertex 30.7 42.808 5
      vertex 30.7 20.808 5
    endloop
  endfacet
  facet normal 0 0 1
    outer loop
      vertex 32.9964 38.8506 5
      vertex 30.7 42.808 5
      vertex 32.956 38.466 5
    endloop
  endfacet
  facet normal 0 0 1
    outer loop
      vertex 33.1159 39.2185 5
      vertex 30.7 42.808 5
      vertex 32.9964 38.8506 5
    endloop
  endfacet
  facet normal 0 0 1
    outer loop
      vertex 33.3093 39.5534 5
      vertex 30.7 42.808 5
      vertex 33.1159 39.2185 5
    endloop
  endfacet
  facet normal 0 0 1
    outer loop
      vertex 33.5681 39.8408 5
      vertex 30.7 42.808 5
      vertex 33.3093 39.5534 5
    endloop
  endfacet
  facet normal 0 0 1
    outer loop
      vertex 33.881 40.0681 5
      vertex 30.7 42.808 5
      vertex 33.5681 39.8408 5
    endloop
  endfacet
  facet normal 0 0 1
    outer loop
      vertex 34.2343 40.2255 5
      vertex 30.7 42.808 5
      vertex 33.881 40.0681 5
    endloop
  endfacet
  facet normal 0 0 1
    outer loop
      vertex 34.6126 40.3059 5
      vertex 30.7 42.808 5
      vertex 34.2343 40.2255 5
    endloop
  endfacet
  facet normal 0 0 1
    outer loop
      vertex 34.9994 40.3059 5
      vertex 30.7 42.808 5
      vertex 34.6126 40.3059 5
    endloop
  endfacet
  facet normal 0 0 1
    outer loop
      vertex 66.9761 37.7135 5
      vertex 69.7 42.808 5
      vertex 67.0956 38.0814 5
    endloop
  endfacet
  facet normal -0 0 1
    outer loop
      vertex 67.0956 22.8414 5
      vertex 69.7 20.808 5
      vertex 67.136 23.226 5
    endloop
  endfacet
  facet normal -0 0 1
    outer loop
      vertex 66.9761 22.4735 5
      vertex 69.7 20.808 5
      vertex 67.0956 22.8414 5
    endloop
  endfacet
  facet normal -0 0 1
    outer loop
      vertex 66.7827 22.1386 5
      vertex 69.7 20.808 5
      vertex 66.9761 22.4735 5
    endloop
  endfacet
  facet normal -0 0 1
    outer loop
      vertex 66.5239 21.8512 5
      vertex 69.7 20.808 5
      vertex 66.7827 22.1386 5
    endloop
  endfacet
  facet normal -0 0 1
    outer loop
      vertex 66.211 21.6239 5
      vertex 69.7 20.808 5
      vertex 66.5239 21.8512 5
    endloop
  endfacet
  facet normal -0 0 1
    outer loop
      vertex 65.8577 21.4665 5
      vertex 69.7 20.808 5
      vertex 66.211 21.6239 5
    endloop
  endfacet
  facet normal -0 0 1
    outer loop
      vertex 65.4794 21.3861 5
      vertex 69.7 20.808 5
      vertex 65.8577 21.4665 5
    endloop
  endfacet
  facet normal -0 0 1
    outer loop
      vertex 65.0926 21.3861 5
      vertex 69.7 20.808 5
      vertex 65.4794 21.3861 5
    endloop
  endfacet
  facet normal 0 0 1
    outer loop
      vertex 63.4764 23.6106 5
      vertex 61.3 27.9 5
      vertex 63.436 23.226 5
    endloop
  endfacet
  facet normal 0 0 1
    outer loop
      vertex 63.436 23.226 5
      vertex 61.3 27.9 5
      vertex 63.4764 22.8414 5
    endloop
  endfacet
  facet normal -0 0 1
    outer loop
      vertex 40.3 27.9 5
      vertex 63.4764 22.8414 5
      vertex 61.3 27.9 5
    endloop
  endfacet
  facet normal 0 0 1
    outer loop
      vertex 63.4764 22.8414 5
      vertex 40.3 27.9 5
      vertex 63.5959 22.4735 5
    endloop
  endfacet
  facet normal 0 0 1
    outer loop
      vertex 36.4961 22.4735 5
      vertex 63.5959 22.4735 5
      vertex 40.3 27.9 5
    endloop
  endfacet
  facet normal 0 0 1
    outer loop
      vertex 63.5959 22.4735 5
      vertex 36.4961 22.4735 5
      vertex 63.7893 22.1386 5
    endloop
  endfacet
  facet normal 0 0 1
    outer loop
      vertex 36.3027 22.1386 5
      vertex 63.7893 22.1386 5
      vertex 36.4961 22.4735 5
    endloop
  endfacet
  facet normal 0 0 1
    outer loop
      vertex 63.7893 22.1386 5
      vertex 36.3027 22.1386 5
      vertex 64.0481 21.8512 5
    endloop
  endfacet
  facet normal -0 0 1
    outer loop
      vertex 36.4961 37.7135 5
      vertex 40.3 37.4 5
      vertex 36.6156 38.0814 5
    endloop
  endfacet
  facet normal 0 0 1
    outer loop
      vertex 36.6156 22.8414 5
      vertex 40.3 27.9 5
      vertex 36.656 23.226 5
    endloop
  endfacet
  facet normal 0 0 1
    outer loop
      vertex 36.4961 22.4735 5
      vertex 40.3 27.9 5
      vertex 36.6156 22.8414 5
    endloop
  endfacet
  facet normal 0 0 1
    outer loop
      vertex 36.0439 21.8512 5
      vertex 64.0481 21.8512 5
      vertex 36.3027 22.1386 5
    endloop
  endfacet
  facet normal 0 0 1
    outer loop
      vertex 64.0481 21.8512 5
      vertex 36.0439 21.8512 5
      vertex 64.361 21.6239 5
    endloop
  endfacet
  facet normal 0 0 1
    outer loop
      vertex 35.731 21.6239 5
      vertex 64.361 21.6239 5
      vertex 36.0439 21.8512 5
    endloop
  endfacet
  facet normal 0 0 1
    outer loop
      vertex 64.361 21.6239 5
      vertex 35.731 21.6239 5
      vertex 64.7143 21.4665 5
    endloop
  endfacet
  facet normal 0 0 1
    outer loop
      vertex 35.3777 21.4665 5
      vertex 64.7143 21.4665 5
      vertex 35.731 21.6239 5
    endloop
  endfacet
  facet normal 0 0 1
    outer loop
      vertex 64.7143 21.4665 5
      vertex 35.3777 21.4665 5
      vertex 65.0926 21.3861 5
    endloop
  endfacet
  facet normal 0 0 1
    outer loop
      vertex 34.9994 21.3861 5
      vertex 65.0926 21.3861 5
      vertex 35.3777 21.4665 5
    endloop
  endfacet
  facet normal 0 0 1
    outer loop
      vertex 65.0926 21.3861 5
      vertex 34.9994 21.3861 5
      vertex 69.7 20.808 5
    endloop
  endfacet
  facet normal 0 0 1
    outer loop
      vertex 30.7 20.808 5
      vertex 34.9994 21.3861 5
      vertex 34.6126 21.3861 5
    endloop
  endfacet
  facet normal 0 0 1
    outer loop
      vertex 32.9964 23.6106 5
      vertex 30.7 20.808 5
      vertex 32.956 23.226 5
    endloop
  endfacet
  facet normal 0 0 1
    outer loop
      vertex 34.9994 21.3861 5
      vertex 30.7 20.808 5
      vertex 69.7 20.808 5
    endloop
  endfacet
  facet normal 0 0 1
    outer loop
      vertex 34.2343 21.4665 5
      vertex 30.7 20.808 5
      vertex 34.6126 21.3861 5
    endloop
  endfacet
  facet normal 0 0 1
    outer loop
      vertex 33.881 21.6239 5
      vertex 30.7 20.808 5
      vertex 34.2343 21.4665 5
    endloop
  endfacet
  facet normal 0 0 1
    outer loop
      vertex 33.5681 21.8512 5
      vertex 30.7 20.808 5
      vertex 33.881 21.6239 5
    endloop
  endfacet
  facet normal 0 0 1
    outer loop
      vertex 33.3093 22.1386 5
      vertex 30.7 20.808 5
      vertex 33.5681 21.8512 5
    endloop
  endfacet
  facet normal 0 0 1
    outer loop
      vertex 33.1159 22.4735 5
      vertex 30.7 20.808 5
      vertex 33.3093 22.1386 5
    endloop
  endfacet
  facet normal 0 0 1
    outer loop
      vertex 32.9964 22.8414 5
      vertex 30.7 20.808 5
      vertex 33.1159 22.4735 5
    endloop
  endfacet
  facet normal 0 0 1
    outer loop
      vertex 32.956 23.226 5
      vertex 30.7 20.808 5
      vertex 32.9964 22.8414 5
    endloop
  endfacet
  facet normal 1 -0 0
    outer loop
      vertex 69.7 20.808 5
      vertex 69.7 42.808 2
      vertex 69.7 42.808 5
    endloop
  endfacet
  facet normal 1 0 0
    outer loop
      vertex 69.7 42.808 2
      vertex 69.7 20.808 5
      vertex 69.7 20.808 2
    endloop
  endfacet
  facet normal 0 0 -1
    outer loop
      vertex 36.4961 23.9785 2
      vertex 40.3 27.9 2
      vertex 36.6156 23.6106 2
    endloop
  endfacet
  facet normal 0 0 -1
    outer loop
      vertex 40.3 27.9 2
      vertex 36.6156 38.0814 2
      vertex 36.656 38.466 2
    endloop
  endfacet
  facet normal 0 0 -1
    outer loop
      vertex 36.3027 24.3134 2
      vertex 40.3 27.9 2
      vertex 36.4961 23.9785 2
    endloop
  endfacet
  facet normal 0 0 -1
    outer loop
      vertex 40.3 27.9 2
      vertex 36.4961 37.7135 2
      vertex 36.6156 38.0814 2
    endloop
  endfacet
  facet normal 0 0 -1
    outer loop
      vertex 36.0439 24.6008 2
      vertex 40.3 27.9 2
      vertex 36.3027 24.3134 2
    endloop
  endfacet
  facet normal 0 0 -1
    outer loop
      vertex 40.3 27.9 2
      vertex 36.3027 37.3786 2
      vertex 36.4961 37.7135 2
    endloop
  endfacet
  facet normal 0 0 -1
    outer loop
      vertex 35.731 24.8281 2
      vertex 40.3 27.9 2
      vertex 36.0439 24.6008 2
    endloop
  endfacet
  facet normal 0 0 -1
    outer loop
      vertex 40.3 27.9 2
      vertex 36.0439 37.0912 2
      vertex 36.3027 37.3786 2
    endloop
  endfacet
  facet normal 0 0 -1
    outer loop
      vertex 35.3777 24.9855 2
      vertex 40.3 27.9 2
      vertex 35.731 24.8281 2
    endloop
  endfacet
  facet normal 0 0 -1
    outer loop
      vertex 40.3 27.9 2
      vertex 35.731 36.8639 2
      vertex 36.0439 37.0912 2
    endloop
  endfacet
  facet normal 0 0 -1
    outer loop
      vertex 34.9994 25.0659 2
      vertex 40.3 27.9 2
      vertex 35.3777 24.9855 2
    endloop
  endfacet
  facet normal 0 0 -1
    outer loop
      vertex 40.3 27.9 2
      vertex 35.3777 36.7065 2
      vertex 35.731 36.8639 2
    endloop
  endfacet
  facet normal 0 0 -1
    outer loop
      vertex 34.9994 36.6261 2
      vertex 40.3 27.9 2
      vertex 34.9994 25.0659 2
    endloop
  endfacet
  facet normal 0 0 -1
    outer loop
      vertex 40.3 27.9 2
      vertex 34.9994 36.6261 2
      vertex 35.3777 36.7065 2
    endloop
  endfacet
  facet normal 0 0 -1
    outer loop
      vertex 34.6126 25.0659 2
      vertex 34.9994 36.6261 2
      vertex 34.9994 25.0659 2
    endloop
  endfacet
  facet normal 0 0 -1
    outer loop
      vertex 34.6126 25.0659 2
      vertex 34.6126 36.6261 2
      vertex 34.9994 36.6261 2
    endloop
  endfacet
  facet normal 0 0 -1
    outer loop
      vertex 34.2343 24.9855 2
      vertex 34.6126 36.6261 2
      vertex 34.6126 25.0659 2
    endloop
  endfacet
  facet normal 0 0 -1
    outer loop
      vertex 34.2343 24.9855 2
      vertex 34.2343 36.7065 2
      vertex 34.6126 36.6261 2
    endloop
  endfacet
  facet normal 0 0 -1
    outer loop
      vertex 33.881 24.8281 2
      vertex 34.2343 36.7065 2
      vertex 34.2343 24.9855 2
    endloop
  endfacet
  facet normal 0 0 -1
    outer loop
      vertex 33.881 24.8281 2
      vertex 33.881 36.8639 2
      vertex 34.2343 36.7065 2
    endloop
  endfacet
  facet normal 0 0 -1
    outer loop
      vertex 33.5681 24.6008 2
      vertex 33.881 36.8639 2
      vertex 33.881 24.8281 2
    endloop
  endfacet
  facet normal 0 0 -1
    outer loop
      vertex 33.5681 24.6008 2
      vertex 33.5681 37.0912 2
      vertex 33.881 36.8639 2
    endloop
  endfacet
  facet normal 0 0 -1
    outer loop
      vertex 33.3093 24.3134 2
      vertex 33.5681 37.0912 2
      vertex 33.5681 24.6008 2
    endloop
  endfacet
  facet normal 0 0 -1
    outer loop
      vertex 33.3093 24.3134 2
      vertex 33.3093 37.3786 2
      vertex 33.5681 37.0912 2
    endloop
  endfacet
  facet normal 0 0 -1
    outer loop
      vertex 33.1159 23.9785 2
      vertex 33.3093 37.3786 2
      vertex 33.3093 24.3134 2
    endloop
  endfacet
  facet normal 0 0 -1
    outer loop
      vertex 33.1159 23.9785 2
      vertex 33.1159 37.7135 2
      vertex 33.3093 37.3786 2
    endloop
  endfacet
  facet normal 0 0 -1
    outer loop
      vertex 30.7 20.808 2
      vertex 33.1159 23.9785 2
      vertex 32.9964 23.6106 2
    endloop
  endfacet
  facet normal -0 0 -1
    outer loop
      vertex 33.1159 23.9785 2
      vertex 30.7 20.808 2
      vertex 33.1159 37.7135 2
    endloop
  endfacet
  facet normal 0 0 -1
    outer loop
      vertex 30.7 20.808 2
      vertex 32.9964 23.6106 2
      vertex 32.956 23.226 2
    endloop
  endfacet
  facet normal -0 0 -1
    outer loop
      vertex 33.1159 37.7135 2
      vertex 30.7 20.808 2
      vertex 32.9964 38.0814 2
    endloop
  endfacet
  facet normal 0 0 -1
    outer loop
      vertex 66.9761 23.9785 2
      vertex 69.7 20.808 2
      vertex 67.0956 23.6106 2
    endloop
  endfacet
  facet normal 0 0 -1
    outer loop
      vertex 69.7 20.808 2
      vertex 67.0956 38.0814 2
      vertex 67.136 38.466 2
    endloop
  endfacet
  facet normal 0 0 -1
    outer loop
      vertex 66.7827 24.3134 2
      vertex 69.7 20.808 2
      vertex 66.9761 23.9785 2
    endloop
  endfacet
  facet normal 0 0 -1
    outer loop
      vertex 69.7 20.808 2
      vertex 66.9761 37.7135 2
      vertex 67.0956 38.0814 2
    endloop
  endfacet
  facet normal 0 0 -1
    outer loop
      vertex 66.7827 37.3786 2
      vertex 69.7 20.808 2
      vertex 66.7827 24.3134 2
    endloop
  endfacet
  facet normal 0 0 -1
    outer loop
      vertex 69.7 20.808 2
      vertex 66.7827 37.3786 2
      vertex 66.9761 37.7135 2
    endloop
  endfacet
  facet normal 0 0 -1
    outer loop
      vertex 66.5239 24.6008 2
      vertex 66.7827 37.3786 2
      vertex 66.7827 24.3134 2
    endloop
  endfacet
  facet normal 0 0 -1
    outer loop
      vertex 66.5239 24.6008 2
      vertex 66.5239 37.0912 2
      vertex 66.7827 37.3786 2
    endloop
  endfacet
  facet normal 0 0 -1
    outer loop
      vertex 66.211 24.8281 2
      vertex 66.5239 37.0912 2
      vertex 66.5239 24.6008 2
    endloop
  endfacet
  facet normal 0 0 -1
    outer loop
      vertex 66.211 24.8281 2
      vertex 66.211 36.8639 2
      vertex 66.5239 37.0912 2
    endloop
  endfacet
  facet normal 0 0 -1
    outer loop
      vertex 65.8577 24.9855 2
      vertex 66.211 36.8639 2
      vertex 66.211 24.8281 2
    endloop
  endfacet
  facet normal 0 0 -1
    outer loop
      vertex 65.8577 24.9855 2
      vertex 65.8577 36.7065 2
      vertex 66.211 36.8639 2
    endloop
  endfacet
  facet normal 0 0 -1
    outer loop
      vertex 65.4794 25.0659 2
      vertex 65.8577 36.7065 2
      vertex 65.8577 24.9855 2
    endloop
  endfacet
  facet normal 0 0 -1
    outer loop
      vertex 65.4794 25.0659 2
      vertex 65.4794 36.6261 2
      vertex 65.8577 36.7065 2
    endloop
  endfacet
  facet normal 0 0 -1
    outer loop
      vertex 61.3 27.9 2
      vertex 65.4794 25.0659 2
      vertex 65.0926 25.0659 2
    endloop
  endfacet
  facet normal 0 0 -1
    outer loop
      vertex 65.4794 25.0659 2
      vertex 61.3 27.9 2
      vertex 65.4794 36.6261 2
    endloop
  endfacet
  facet normal 0 0 -1
    outer loop
      vertex 61.3 27.9 2
      vertex 65.0926 25.0659 2
      vertex 64.7143 24.9855 2
    endloop
  endfacet
  facet normal -0 0 -1
    outer loop
      vertex 65.4794 36.6261 2
      vertex 61.3 27.9 2
      vertex 65.0926 36.6261 2
    endloop
  endfacet
  facet normal 0 0 -1
    outer loop
      vertex 61.3 27.9 2
      vertex 64.7143 24.9855 2
      vertex 64.361 24.8281 2
    endloop
  endfacet
  facet normal -0 0 -1
    outer loop
      vertex 65.0926 36.6261 2
      vertex 61.3 27.9 2
      vertex 64.7143 36.7065 2
    endloop
  endfacet
  facet normal 0 0 -1
    outer loop
      vertex 61.3 27.9 2
      vertex 64.361 24.8281 2
      vertex 64.0481 24.6008 2
    endloop
  endfacet
  facet normal -0 0 -1
    outer loop
      vertex 64.7143 36.7065 2
      vertex 61.3 27.9 2
      vertex 64.361 36.8639 2
    endloop
  endfacet
  facet normal 0 0 -1
    outer loop
      vertex 61.3 27.9 2
      vertex 64.0481 24.6008 2
      vertex 63.7893 24.3134 2
    endloop
  endfacet
  facet normal 0 0 -1
    outer loop
      vertex 61.3 37.4 2
      vertex 64.361 36.8639 2
      vertex 61.3 27.9 2
    endloop
  endfacet
  facet normal 0 0 -1
    outer loop
      vertex 61.3 27.9 2
      vertex 63.7893 24.3134 2
      vertex 63.5959 23.9785 2
    endloop
  endfacet
  facet normal 0 0 -1
    outer loop
      vertex 64.361 36.8639 2
      vertex 61.3 37.4 2
      vertex 64.0481 37.0912 2
    endloop
  endfacet
  facet normal 0 0 -1
    outer loop
      vertex 61.3 27.9 2
      vertex 63.5959 23.9785 2
      vertex 63.4764 23.6106 2
    endloop
  endfacet
  facet normal 0 0 -1
    outer loop
      vertex 64.0481 37.0912 2
      vertex 61.3 37.4 2
      vertex 63.7893 37.3786 2
    endloop
  endfacet
  facet normal 0 0 -1
    outer loop
      vertex 61.3 27.9 2
      vertex 63.4764 23.6106 2
      vertex 63.436 23.226 2
    endloop
  endfacet
  facet normal 0 0 -1
    outer loop
      vertex 63.7893 37.3786 2
      vertex 61.3 37.4 2
      vertex 63.5959 37.7135 2
    endloop
  endfacet
  facet normal 0 0 -1
    outer loop
      vertex 67.0956 23.6106 2
      vertex 69.7 20.808 2
      vertex 67.136 23.226 2
    endloop
  endfacet
  facet normal 0 0 -1
    outer loop
      vertex 69.7 20.808 2
      vertex 67.0956 22.8414 2
      vertex 67.136 23.226 2
    endloop
  endfacet
  facet normal 0 0 -1
    outer loop
      vertex 69.7 20.808 2
      vertex 66.9761 22.4735 2
      vertex 67.0956 22.8414 2
    endloop
  endfacet
  facet normal 0 0 -1
    outer loop
      vertex 69.7 20.808 2
      vertex 66.7827 22.1386 2
      vertex 66.9761 22.4735 2
    endloop
  endfacet
  facet normal 0 0 -1
    outer loop
      vertex 69.7 20.808 2
      vertex 66.5239 21.8512 2
      vertex 66.7827 22.1386 2
    endloop
  endfacet
  facet normal 0 0 -1
    outer loop
      vertex 69.7 20.808 2
      vertex 66.211 21.6239 2
      vertex 66.5239 21.8512 2
    endloop
  endfacet
  facet normal 0 0 -1
    outer loop
      vertex 69.7 20.808 2
      vertex 65.8577 21.4665 2
      vertex 66.211 21.6239 2
    endloop
  endfacet
  facet normal 0 0 -1
    outer loop
      vertex 69.7 20.808 2
      vertex 65.4794 21.3861 2
      vertex 65.8577 21.4665 2
    endloop
  endfacet
  facet normal 0 0 -1
    outer loop
      vertex 69.7 20.808 2
      vertex 65.0926 21.3861 2
      vertex 65.4794 21.3861 2
    endloop
  endfacet
  facet normal -0 0 -1
    outer loop
      vertex 63.5959 37.7135 2
      vertex 61.3 37.4 2
      vertex 63.4764 38.0814 2
    endloop
  endfacet
  facet normal 0 0 -1
    outer loop
      vertex 63.4764 22.8414 2
      vertex 61.3 27.9 2
      vertex 63.436 23.226 2
    endloop
  endfacet
  facet normal 0 0 -1
    outer loop
      vertex 40.3 27.9 2
      vertex 63.4764 22.8414 2
      vertex 63.5959 22.4735 2
    endloop
  endfacet
  facet normal 0 0 -1
    outer loop
      vertex 63.4764 22.8414 2
      vertex 40.3 27.9 2
      vertex 61.3 27.9 2
    endloop
  endfacet
  facet normal 0 0 -1
    outer loop
      vertex 36.4961 22.4735 2
      vertex 63.5959 22.4735 2
      vertex 63.7893 22.1386 2
    endloop
  endfacet
  facet normal 0 0 -1
    outer loop
      vertex 36.3027 22.1386 2
      vertex 63.7893 22.1386 2
      vertex 64.0481 21.8512 2
    endloop
  endfacet
  facet normal 0 0 -1
    outer loop
      vertex 36.0439 21.8512 2
      vertex 64.0481 21.8512 2
      vertex 64.361 21.6239 2
    endloop
  endfacet
  facet normal 0 0 -1
    outer loop
      vertex 35.731 21.6239 2
      vertex 64.361 21.6239 2
      vertex 64.7143 21.4665 2
    endloop
  endfacet
  facet normal 0 0 -1
    outer loop
      vertex 36.6156 23.6106 2
      vertex 40.3 27.9 2
      vertex 36.656 23.226 2
    endloop
  endfacet
  facet normal 0 0 -1
    outer loop
      vertex 63.5959 22.4735 2
      vertex 36.4961 22.4735 2
      vertex 40.3 27.9 2
    endloop
  endfacet
  facet normal 0 0 -1
    outer loop
      vertex 35.3777 21.4665 2
      vertex 64.7143 21.4665 2
      vertex 65.0926 21.3861 2
    endloop
  endfacet
  facet normal 0 0 -1
    outer loop
      vertex 34.9994 21.3861 2
      vertex 65.0926 21.3861 2
      vertex 69.7 20.808 2
    endloop
  endfacet
  facet normal 0 0 -1
    outer loop
      vertex 40.3 27.9 2
      vertex 36.6156 22.8414 2
      vertex 36.656 23.226 2
    endloop
  endfacet
  facet normal 0 0 -1
    outer loop
      vertex 40.3 27.9 2
      vertex 36.4961 22.4735 2
      vertex 36.6156 22.8414 2
    endloop
  endfacet
  facet normal 0 0 -1
    outer loop
      vertex 63.7893 22.1386 2
      vertex 36.3027 22.1386 2
      vertex 36.4961 22.4735 2
    endloop
  endfacet
  facet normal 0 0 -1
    outer loop
      vertex 64.0481 21.8512 2
      vertex 36.0439 21.8512 2
      vertex 36.3027 22.1386 2
    endloop
  endfacet
  facet normal 0 0 -1
    outer loop
      vertex 64.361 21.6239 2
      vertex 35.731 21.6239 2
      vertex 36.0439 21.8512 2
    endloop
  endfacet
  facet normal 0 0 -1
    outer loop
      vertex 64.7143 21.4665 2
      vertex 35.3777 21.4665 2
      vertex 35.731 21.6239 2
    endloop
  endfacet
  facet normal 0 0 -1
    outer loop
      vertex 65.0926 21.3861 2
      vertex 34.9994 21.3861 2
      vertex 35.3777 21.4665 2
    endloop
  endfacet
  facet normal 0 0 -1
    outer loop
      vertex 30.7 20.808 2
      vertex 34.9994 21.3861 2
      vertex 69.7 20.808 2
    endloop
  endfacet
  facet normal 0 0 -1
    outer loop
      vertex 30.7 42.808 2
      vertex 32.9964 38.0814 2
      vertex 30.7 20.808 2
    endloop
  endfacet
  facet normal -0 0 -1
    outer loop
      vertex 32.9964 22.8414 2
      vertex 30.7 20.808 2
      vertex 32.956 23.226 2
    endloop
  endfacet
  facet normal -0 0 -1
    outer loop
      vertex 33.1159 22.4735 2
      vertex 30.7 20.808 2
      vertex 32.9964 22.8414 2
    endloop
  endfacet
  facet normal -0 0 -1
    outer loop
      vertex 33.3093 22.1386 2
      vertex 30.7 20.808 2
      vertex 33.1159 22.4735 2
    endloop
  endfacet
  facet normal -0 0 -1
    outer loop
      vertex 33.5681 21.8512 2
      vertex 30.7 20.808 2
      vertex 33.3093 22.1386 2
    endloop
  endfacet
  facet normal -0 0 -1
    outer loop
      vertex 33.881 21.6239 2
      vertex 30.7 20.808 2
      vertex 33.5681 21.8512 2
    endloop
  endfacet
  facet normal -0 0 -1
    outer loop
      vertex 34.2343 21.4665 2
      vertex 30.7 20.808 2
      vertex 33.881 21.6239 2
    endloop
  endfacet
  facet normal -0 0 -1
    outer loop
      vertex 34.6126 21.3861 2
      vertex 30.7 20.808 2
      vertex 34.2343 21.4665 2
    endloop
  endfacet
  facet normal -0 0 -1
    outer loop
      vertex 34.9994 21.3861 2
      vertex 30.7 20.808 2
      vertex 34.6126 21.3861 2
    endloop
  endfacet
  facet normal 0 0 -1
    outer loop
      vertex 69.7 20.808 2
      vertex 67.136 38.466 2
      vertex 69.7 42.808 2
    endloop
  endfacet
  facet normal 0 0 -1
    outer loop
      vertex 67.0956 38.8506 2
      vertex 69.7 42.808 2
      vertex 67.136 38.466 2
    endloop
  endfacet
  facet normal 0 0 -1
    outer loop
      vertex 66.9761 39.2185 2
      vertex 69.7 42.808 2
      vertex 67.0956 38.8506 2
    endloop
  endfacet
  facet normal 0 0 -1
    outer loop
      vertex 66.7827 39.5534 2
      vertex 69.7 42.808 2
      vertex 66.9761 39.2185 2
    endloop
  endfacet
  facet normal 0 0 -1
    outer loop
      vertex 66.5239 39.8408 2
      vertex 69.7 42.808 2
      vertex 66.7827 39.5534 2
    endloop
  endfacet
  facet normal 0 0 -1
    outer loop
      vertex 66.211 40.0681 2
      vertex 69.7 42.808 2
      vertex 66.5239 39.8408 2
    endloop
  endfacet
  facet normal 0 0 -1
    outer loop
      vertex 65.8577 40.2255 2
      vertex 69.7 42.808 2
      vertex 66.211 40.0681 2
    endloop
  endfacet
  facet normal 0 0 -1
    outer loop
      vertex 65.4794 40.3059 2
      vertex 69.7 42.808 2
      vertex 65.8577 40.2255 2
    endloop
  endfacet
  facet normal 0 0 -1
    outer loop
      vertex 65.0926 40.3059 2
      vertex 69.7 42.808 2
      vertex 65.4794 40.3059 2
    endloop
  endfacet
  facet normal 0 0 -1
    outer loop
      vertex 64.7143 40.2255 2
      vertex 69.7 42.808 2
      vertex 65.0926 40.3059 2
    endloop
  endfacet
  facet normal 0 0 -1
    outer loop
      vertex 30.7 42.808 2
      vertex 64.7143 40.2255 2
      vertex 64.361 40.0681 2
    endloop
  endfacet
  facet normal -0 0 -1
    outer loop
      vertex 63.4764 38.0814 2
      vertex 61.3 37.4 2
      vertex 63.436 38.466 2
    endloop
  endfacet
  facet normal -0 0 -1
    outer loop
      vertex 63.436 38.466 2
      vertex 61.3 37.4 2
      vertex 63.4764 38.8506 2
    endloop
  endfacet
  facet normal 0 0 -1
    outer loop
      vertex 61.3 37.4 2
      vertex 63.5959 39.2185 2
      vertex 63.4764 38.8506 2
    endloop
  endfacet
  facet normal 0 0 -1
    outer loop
      vertex 61.3 37.4 2
      vertex 63.7893 39.5534 2
      vertex 63.5959 39.2185 2
    endloop
  endfacet
  facet normal 0 0 -1
    outer loop
      vertex 61.3 37.4 2
      vertex 64.0481 39.8408 2
      vertex 63.7893 39.5534 2
    endloop
  endfacet
  facet normal 0 0 -1
    outer loop
      vertex 40.3 37.4 2
      vertex 64.0481 39.8408 2
      vertex 61.3 37.4 2
    endloop
  endfacet
  facet normal 0 0 -1
    outer loop
      vertex 40.3 37.4 2
      vertex 64.361 40.0681 2
      vertex 64.0481 39.8408 2
    endloop
  endfacet
  facet normal 0 0 -1
    outer loop
      vertex 36.0439 39.8408 2
      vertex 64.361 40.0681 2
      vertex 40.3 37.4 2
    endloop
  endfacet
  facet normal 0 0 -1
    outer loop
      vertex 40.3 27.9 2
      vertex 36.656 38.466 2
      vertex 40.3 37.4 2
    endloop
  endfacet
  facet normal 0 0 -1
    outer loop
      vertex 36.6156 38.8506 2
      vertex 40.3 37.4 2
      vertex 36.656 38.466 2
    endloop
  endfacet
  facet normal 0 0 -1
    outer loop
      vertex 36.4961 39.2185 2
      vertex 40.3 37.4 2
      vertex 36.6156 38.8506 2
    endloop
  endfacet
  facet normal 0 0 -1
    outer loop
      vertex 36.3027 39.5534 2
      vertex 40.3 37.4 2
      vertex 36.4961 39.2185 2
    endloop
  endfacet
  facet normal 0 0 -1
    outer loop
      vertex 36.0439 39.8408 2
      vertex 40.3 37.4 2
      vertex 36.3027 39.5534 2
    endloop
  endfacet
  facet normal 0 0 -1
    outer loop
      vertex 35.731 40.0681 2
      vertex 64.361 40.0681 2
      vertex 36.0439 39.8408 2
    endloop
  endfacet
  facet normal 0 0 -1
    outer loop
      vertex 35.3777 40.2255 2
      vertex 64.361 40.0681 2
      vertex 35.731 40.0681 2
    endloop
  endfacet
  facet normal 0 0 -1
    outer loop
      vertex 30.7 42.808 2
      vertex 64.361 40.0681 2
      vertex 35.3777 40.2255 2
    endloop
  endfacet
  facet normal 0 0 -1
    outer loop
      vertex 30.7 42.808 2
      vertex 35.3777 40.2255 2
      vertex 34.9994 40.3059 2
    endloop
  endfacet
  facet normal 0 0 -1
    outer loop
      vertex 30.7 42.808 2
      vertex 34.9994 40.3059 2
      vertex 34.6126 40.3059 2
    endloop
  endfacet
  facet normal 0 0 -1
    outer loop
      vertex 32.9964 38.0814 2
      vertex 30.7 42.808 2
      vertex 32.956 38.466 2
    endloop
  endfacet
  facet normal 0 0 -1
    outer loop
      vertex 64.7143 40.2255 2
      vertex 30.7 42.808 2
      vertex 69.7 42.808 2
    endloop
  endfacet
  facet normal 0 0 -1
    outer loop
      vertex 34.2343 40.2255 2
      vertex 30.7 42.808 2
      vertex 34.6126 40.3059 2
    endloop
  endfacet
  facet normal 0 0 -1
    outer loop
      vertex 33.881 40.0681 2
      vertex 30.7 42.808 2
      vertex 34.2343 40.2255 2
    endloop
  endfacet
  facet normal 0 0 -1
    outer loop
      vertex 33.5681 39.8408 2
      vertex 30.7 42.808 2
      vertex 33.881 40.0681 2
    endloop
  endfacet
  facet normal 0 0 -1
    outer loop
      vertex 33.3093 39.5534 2
      vertex 30.7 42.808 2
      vertex 33.5681 39.8408 2
    endloop
  endfacet
  facet normal 0 0 -1
    outer loop
      vertex 33.1159 39.2185 2
      vertex 30.7 42.808 2
      vertex 33.3093 39.5534 2
    endloop
  endfacet
  facet normal 0 0 -1
    outer loop
      vertex 32.9964 38.8506 2
      vertex 30.7 42.808 2
      vertex 33.1159 39.2185 2
    endloop
  endfacet
  facet normal 0 0 -1
    outer loop
      vertex 32.956 38.466 2
      vertex 30.7 42.808 2
      vertex 32.9964 38.8506 2
    endloop
  endfacet
  facet normal 0 -1 0
    outer loop
      vertex 30.7 20.808 2
      vertex 69.7 20.808 5
      vertex 30.7 20.808 5
    endloop
  endfacet
  facet normal 0 -1 -0
    outer loop
      vertex 69.7 20.808 5
      vertex 30.7 20.808 2
      vertex 69.7 20.808 2
    endloop
  endfacet
  facet normal 0 1 -0
    outer loop
      vertex 69.7 42.808 2
      vertex 30.7 42.808 5
      vertex 69.7 42.808 5
    endloop
  endfacet
  facet normal 0 1 0
    outer loop
      vertex 30.7 42.808 5
      vertex 69.7 42.808 2
      vertex 30.7 42.808 2
    endloop
  endfacet
  facet normal -0.994523 -0.104522 0
    outer loop
      vertex 36.656 23.226 2
      vertex 36.6156 23.6106 5
      vertex 36.6156 23.6106 2
    endloop
  endfacet
  facet normal -0.994523 -0.104522 0
    outer loop
      vertex 36.6156 23.6106 5
      vertex 36.656 23.226 2
      vertex 36.656 23.226 5
    endloop
  endfacet
  facet normal 0.994523 -0.104522 0
    outer loop
      vertex 32.956 23.226 5
      vertex 32.9964 23.6106 2
      vertex 32.9964 23.6106 5
    endloop
  endfacet
  facet normal 0.994523 -0.104522 0
    outer loop
      vertex 32.9964 23.6106 2
      vertex 32.956 23.226 5
      vertex 32.956 23.226 2
    endloop
  endfacet
  facet normal 0 -1 0
    outer loop
      vertex 34.6126 25.0659 2
      vertex 34.9994 25.0659 5
      vertex 34.6126 25.0659 5
    endloop
  endfacet
  facet normal 0 -1 -0
    outer loop
      vertex 34.9994 25.0659 5
      vertex 34.6126 25.0659 2
      vertex 34.9994 25.0659 2
    endloop
  endfacet
  facet normal 0 1 -0
    outer loop
      vertex 34.9994 21.3861 2
      vertex 34.6126 21.3861 5
      vertex 34.9994 21.3861 5
    endloop
  endfacet
  facet normal 0 1 0
    outer loop
      vertex 34.6126 21.3861 5
      vertex 34.9994 21.3861 2
      vertex 34.6126 21.3861 2
    endloop
  endfacet
  facet normal -0.587784 -0.809018 0
    outer loop
      vertex 35.731 24.8281 2
      vertex 36.0439 24.6008 5
      vertex 35.731 24.8281 5
    endloop
  endfacet
  facet normal -0.587784 -0.809018 -0
    outer loop
      vertex 36.0439 24.6008 5
      vertex 35.731 24.8281 2
      vertex 36.0439 24.6008 2
    endloop
  endfacet
  facet normal 0.587784 -0.809018 0
    outer loop
      vertex 33.5681 24.6008 2
      vertex 33.881 24.8281 5
      vertex 33.5681 24.6008 5
    endloop
  endfacet
  facet normal 0.587784 -0.809018 0
    outer loop
      vertex 33.881 24.8281 5
      vertex 33.5681 24.6008 2
      vertex 33.881 24.8281 2
    endloop
  endfacet
  facet normal 0.406736 -0.913546 0
    outer loop
      vertex 33.881 24.8281 2
      vertex 34.2343 24.9855 5
      vertex 33.881 24.8281 5
    endloop
  endfacet
  facet normal 0.406736 -0.913546 0
    outer loop
      vertex 34.2343 24.9855 5
      vertex 33.881 24.8281 2
      vertex 34.2343 24.9855 2
    endloop
  endfacet
  facet normal -0.866026 0.499999 0
    outer loop
      vertex 36.3027 22.1386 2
      vertex 36.4961 22.4735 5
      vertex 36.4961 22.4735 2
    endloop
  endfacet
  facet normal -0.866026 0.499999 0
    outer loop
      vertex 36.4961 22.4735 5
      vertex 36.3027 22.1386 2
      vertex 36.3027 22.1386 5
    endloop
  endfacet
  facet normal -0.866025 -0.500002 0
    outer loop
      vertex 36.4961 23.9785 2
      vertex 36.3027 24.3134 5
      vertex 36.3027 24.3134 2
    endloop
  endfacet
  facet normal -0.866025 -0.500002 0
    outer loop
      vertex 36.3027 24.3134 5
      vertex 36.4961 23.9785 2
      vertex 36.4961 23.9785 5
    endloop
  endfacet
  facet normal -0.951056 -0.309018 0
    outer loop
      vertex 36.6156 23.6106 2
      vertex 36.4961 23.9785 5
      vertex 36.4961 23.9785 2
    endloop
  endfacet
  facet normal -0.951056 -0.309018 0
    outer loop
      vertex 36.4961 23.9785 5
      vertex 36.6156 23.6106 2
      vertex 36.6156 23.6106 5
    endloop
  endfacet
  facet normal -0.743147 -0.669128 0
    outer loop
      vertex 36.3027 24.3134 2
      vertex 36.0439 24.6008 5
      vertex 36.0439 24.6008 2
    endloop
  endfacet
  facet normal -0.743147 -0.669128 0
    outer loop
      vertex 36.0439 24.6008 5
      vertex 36.3027 24.3134 2
      vertex 36.3027 24.3134 5
    endloop
  endfacet
  facet normal -0.207909 -0.978148 0
    outer loop
      vertex 34.9994 25.0659 2
      vertex 35.3777 24.9855 5
      vertex 34.9994 25.0659 5
    endloop
  endfacet
  facet normal -0.207909 -0.978148 -0
    outer loop
      vertex 35.3777 24.9855 5
      vertex 34.9994 25.0659 2
      vertex 35.3777 24.9855 2
    endloop
  endfacet
  facet normal -0.406736 -0.913546 0
    outer loop
      vertex 35.3777 24.9855 2
      vertex 35.731 24.8281 5
      vertex 35.3777 24.9855 5
    endloop
  endfacet
  facet normal -0.406736 -0.913546 -0
    outer loop
      vertex 35.731 24.8281 5
      vertex 35.3777 24.9855 2
      vertex 35.731 24.8281 2
    endloop
  endfacet
  facet normal 0.866025 -0.500002 0
    outer loop
      vertex 33.1159 23.9785 5
      vertex 33.3093 24.3134 2
      vertex 33.3093 24.3134 5
    endloop
  endfacet
  facet normal 0.866025 -0.500002 0
    outer loop
      vertex 33.3093 24.3134 2
      vertex 33.1159 23.9785 5
      vertex 33.1159 23.9785 2
    endloop
  endfacet
  facet normal 0.743147 -0.669128 0
    outer loop
      vertex 33.3093 24.3134 5
      vertex 33.5681 24.6008 2
      vertex 33.5681 24.6008 5
    endloop
  endfacet
  facet normal 0.743147 -0.669128 0
    outer loop
      vertex 33.5681 24.6008 2
      vertex 33.3093 24.3134 5
      vertex 33.3093 24.3134 2
    endloop
  endfacet
  facet normal 0.951056 -0.309018 0
    outer loop
      vertex 32.9964 23.6106 5
      vertex 33.1159 23.9785 2
      vertex 33.1159 23.9785 5
    endloop
  endfacet
  facet normal 0.951056 -0.309018 0
    outer loop
      vertex 33.1159 23.9785 2
      vertex 32.9964 23.6106 5
      vertex 32.9964 23.6106 2
    endloop
  endfacet
  facet normal 0.207909 -0.978148 0
    outer loop
      vertex 34.2343 24.9855 2
      vertex 34.6126 25.0659 5
      vertex 34.2343 24.9855 5
    endloop
  endfacet
  facet normal 0.207909 -0.978148 0
    outer loop
      vertex 34.6126 25.0659 5
      vertex 34.2343 24.9855 2
      vertex 34.6126 25.0659 2
    endloop
  endfacet
  facet normal -0.994523 0.104522 0
    outer loop
      vertex 36.6156 22.8414 2
      vertex 36.656 23.226 5
      vertex 36.656 23.226 2
    endloop
  endfacet
  facet normal -0.994523 0.104522 0
    outer loop
      vertex 36.656 23.226 5
      vertex 36.6156 22.8414 2
      vertex 36.6156 22.8414 5
    endloop
  endfacet
  facet normal -0.743145 0.66913 0
    outer loop
      vertex 36.0439 21.8512 2
      vertex 36.3027 22.1386 5
      vertex 36.3027 22.1386 2
    endloop
  endfacet
  facet normal -0.743145 0.66913 0
    outer loop
      vertex 36.3027 22.1386 5
      vertex 36.0439 21.8512 2
      vertex 36.0439 21.8512 5
    endloop
  endfacet
  facet normal -0.951056 0.309019 0
    outer loop
      vertex 36.4961 22.4735 2
      vertex 36.6156 22.8414 5
      vertex 36.6156 22.8414 2
    endloop
  endfacet
  facet normal -0.951056 0.309019 0
    outer loop
      vertex 36.6156 22.8414 5
      vertex 36.4961 22.4735 2
      vertex 36.4961 22.4735 5
    endloop
  endfacet
  facet normal 0.406736 0.913546 -0
    outer loop
      vertex 34.2343 21.4665 2
      vertex 33.881 21.6239 5
      vertex 34.2343 21.4665 5
    endloop
  endfacet
  facet normal 0.406736 0.913546 0
    outer loop
      vertex 33.881 21.6239 5
      vertex 34.2343 21.4665 2
      vertex 33.881 21.6239 2
    endloop
  endfacet
  facet normal 0.866026 0.499999 0
    outer loop
      vertex 33.3093 22.1386 5
      vertex 33.1159 22.4735 2
      vertex 33.1159 22.4735 5
    endloop
  endfacet
  facet normal 0.866026 0.499999 0
    outer loop
      vertex 33.1159 22.4735 2
      vertex 33.3093 22.1386 5
      vertex 33.3093 22.1386 2
    endloop
  endfacet
  facet normal -0.587784 0.809018 0
    outer loop
      vertex 36.0439 21.8512 2
      vertex 35.731 21.6239 5
      vertex 36.0439 21.8512 5
    endloop
  endfacet
  facet normal -0.587784 0.809018 0
    outer loop
      vertex 35.731 21.6239 5
      vertex 36.0439 21.8512 2
      vertex 35.731 21.6239 2
    endloop
  endfacet
  facet normal 0.207909 0.978148 -0
    outer loop
      vertex 34.6126 21.3861 2
      vertex 34.2343 21.4665 5
      vertex 34.6126 21.3861 5
    endloop
  endfacet
  facet normal 0.207909 0.978148 0
    outer loop
      vertex 34.2343 21.4665 5
      vertex 34.6126 21.3861 2
      vertex 34.2343 21.4665 2
    endloop
  endfacet
  facet normal 0.587784 0.809018 -0
    outer loop
      vertex 33.881 21.6239 2
      vertex 33.5681 21.8512 5
      vertex 33.881 21.6239 5
    endloop
  endfacet
  facet normal 0.587784 0.809018 0
    outer loop
      vertex 33.5681 21.8512 5
      vertex 33.881 21.6239 2
      vertex 33.5681 21.8512 2
    endloop
  endfacet
  facet normal 0.743145 0.66913 0
    outer loop
      vertex 33.5681 21.8512 5
      vertex 33.3093 22.1386 2
      vertex 33.3093 22.1386 5
    endloop
  endfacet
  facet normal 0.743145 0.66913 0
    outer loop
      vertex 33.3093 22.1386 2
      vertex 33.5681 21.8512 5
      vertex 33.5681 21.8512 2
    endloop
  endfacet
  facet normal 0.951056 0.309019 0
    outer loop
      vertex 33.1159 22.4735 5
      vertex 32.9964 22.8414 2
      vertex 32.9964 22.8414 5
    endloop
  endfacet
  facet normal 0.951056 0.309019 0
    outer loop
      vertex 32.9964 22.8414 2
      vertex 33.1159 22.4735 5
      vertex 33.1159 22.4735 2
    endloop
  endfacet
  facet normal 0.994523 0.104522 0
    outer loop
      vertex 32.9964 22.8414 5
      vertex 32.956 23.226 2
      vertex 32.956 23.226 5
    endloop
  endfacet
  facet normal 0.994523 0.104522 0
    outer loop
      vertex 32.956 23.226 2
      vertex 32.9964 22.8414 5
      vertex 32.9964 22.8414 2
    endloop
  endfacet
  facet normal -0.406736 0.913546 0
    outer loop
      vertex 35.731 21.6239 2
      vertex 35.3777 21.4665 5
      vertex 35.731 21.6239 5
    endloop
  endfacet
  facet normal -0.406736 0.913546 0
    outer loop
      vertex 35.3777 21.4665 5
      vertex 35.731 21.6239 2
      vertex 35.3777 21.4665 2
    endloop
  endfacet
  facet normal -0.207909 0.978148 0
    outer loop
      vertex 35.3777 21.4665 2
      vertex 34.9994 21.3861 5
      vertex 35.3777 21.4665 5
    endloop
  endfacet
  facet normal -0.207909 0.978148 0
    outer loop
      vertex 34.9994 21.3861 5
      vertex 35.3777 21.4665 2
      vertex 34.9994 21.3861 2
    endloop
  endfacet
  facet normal -0.994523 -0.104522 0
    outer loop
      vertex 36.656 38.466 2
      vertex 36.6156 38.8506 5
      vertex 36.6156 38.8506 2
    endloop
  endfacet
  facet normal -0.994523 -0.104522 0
    outer loop
      vertex 36.6156 38.8506 5
      vertex 36.656 38.466 2
      vertex 36.656 38.466 5
    endloop
  endfacet
  facet normal 0.994523 -0.104522 0
    outer loop
      vertex 32.956 38.466 5
      vertex 32.9964 38.8506 2
      vertex 32.9964 38.8506 5
    endloop
  endfacet
  facet normal 0.994523 -0.104522 0
    outer loop
      vertex 32.9964 38.8506 2
      vertex 32.956 38.466 5
      vertex 32.956 38.466 2
    endloop
  endfacet
  facet normal 0 -1 0
    outer loop
      vertex 34.6126 40.3059 2
      vertex 34.9994 40.3059 5
      vertex 34.6126 40.3059 5
    endloop
  endfacet
  facet normal 0 -1 -0
    outer loop
      vertex 34.9994 40.3059 5
      vertex 34.6126 40.3059 2
      vertex 34.9994 40.3059 2
    endloop
  endfacet
  facet normal 0 1 -0
    outer loop
      vertex 34.9994 36.6261 2
      vertex 34.6126 36.6261 5
      vertex 34.9994 36.6261 5
    endloop
  endfacet
  facet normal 0 1 0
    outer loop
      vertex 34.6126 36.6261 5
      vertex 34.9994 36.6261 2
      vertex 34.6126 36.6261 2
    endloop
  endfacet
  facet normal -0.587784 -0.809018 0
    outer loop
      vertex 35.731 40.0681 2
      vertex 36.0439 39.8408 5
      vertex 35.731 40.0681 5
    endloop
  endfacet
  facet normal -0.587784 -0.809018 -0
    outer loop
      vertex 36.0439 39.8408 5
      vertex 35.731 40.0681 2
      vertex 36.0439 39.8408 2
    endloop
  endfacet
  facet normal 0.587784 -0.809018 0
    outer loop
      vertex 33.5681 39.8408 2
      vertex 33.881 40.0681 5
      vertex 33.5681 39.8408 5
    endloop
  endfacet
  facet normal 0.587784 -0.809018 0
    outer loop
      vertex 33.881 40.0681 5
      vertex 33.5681 39.8408 2
      vertex 33.881 40.0681 2
    endloop
  endfacet
  facet normal 0.207909 -0.978148 0
    outer loop
      vertex 34.2343 40.2255 2
      vertex 34.6126 40.3059 5
      vertex 34.2343 40.2255 5
    endloop
  endfacet
  facet normal 0.207909 -0.978148 0
    outer loop
      vertex 34.6126 40.3059 5
      vertex 34.2343 40.2255 2
      vertex 34.6126 40.3059 2
    endloop
  endfacet
  facet normal -0.866023 0.500004 0
    outer loop
      vertex 36.3027 37.3786 2
      vertex 36.4961 37.7135 5
      vertex 36.4961 37.7135 2
    endloop
  endfacet
  facet normal -0.866023 0.500004 0
    outer loop
      vertex 36.4961 37.7135 5
      vertex 36.3027 37.3786 2
      vertex 36.3027 37.3786 5
    endloop
  endfacet
  facet normal -0.866026 -0.499999 0
    outer loop
      vertex 36.4961 39.2185 2
      vertex 36.3027 39.5534 5
      vertex 36.3027 39.5534 2
    endloop
  endfacet
  facet normal -0.866026 -0.499999 0
    outer loop
      vertex 36.3027 39.5534 5
      vertex 36.4961 39.2185 2
      vertex 36.4961 39.2185 5
    endloop
  endfacet
  facet normal -0.951056 -0.309019 0
    outer loop
      vertex 36.6156 38.8506 2
      vertex 36.4961 39.2185 5
      vertex 36.4961 39.2185 2
    endloop
  endfacet
  facet normal -0.951056 -0.309019 0
    outer loop
      vertex 36.4961 39.2185 5
      vertex 36.6156 38.8506 2
      vertex 36.6156 38.8506 5
    endloop
  endfacet
  facet normal -0.743145 -0.66913 0
    outer loop
      vertex 36.3027 39.5534 2
      vertex 36.0439 39.8408 5
      vertex 36.0439 39.8408 2
    endloop
  endfacet
  facet normal -0.743145 -0.66913 0
    outer loop
      vertex 36.0439 39.8408 5
      vertex 36.3027 39.5534 2
      vertex 36.3027 39.5534 5
    endloop
  endfacet
  facet normal -0.207909 -0.978148 0
    outer loop
      vertex 34.9994 40.3059 2
      vertex 35.3777 40.2255 5
      vertex 34.9994 40.3059 5
    endloop
  endfacet
  facet normal -0.207909 -0.978148 -0
    outer loop
      vertex 35.3777 40.2255 5
      vertex 34.9994 40.3059 2
      vertex 35.3777 40.2255 2
    endloop
  endfacet
  facet normal -0.406744 -0.913542 0
    outer loop
      vertex 35.3777 40.2255 2
      vertex 35.731 40.0681 5
      vertex 35.3777 40.2255 5
    endloop
  endfacet
  facet normal -0.406744 -0.913542 -0
    outer loop
      vertex 35.731 40.0681 5
      vertex 35.3777 40.2255 2
      vertex 35.731 40.0681 2
    endloop
  endfacet
  facet normal 0.866026 -0.499999 0
    outer loop
      vertex 33.1159 39.2185 5
      vertex 33.3093 39.5534 2
      vertex 33.3093 39.5534 5
    endloop
  endfacet
  facet normal 0.866026 -0.499999 0
    outer loop
      vertex 33.3093 39.5534 2
      vertex 33.1159 39.2185 5
      vertex 33.1159 39.2185 2
    endloop
  endfacet
  facet normal 0.743145 -0.66913 0
    outer loop
      vertex 33.3093 39.5534 5
      vertex 33.5681 39.8408 2
      vertex 33.5681 39.8408 5
    endloop
  endfacet
  facet normal 0.743145 -0.66913 0
    outer loop
      vertex 33.5681 39.8408 2
      vertex 33.3093 39.5534 5
      vertex 33.3093 39.5534 2
    endloop
  endfacet
  facet normal 0.951056 -0.309019 0
    outer loop
      vertex 32.9964 38.8506 5
      vertex 33.1159 39.2185 2
      vertex 33.1159 39.2185 5
    endloop
  endfacet
  facet normal 0.951056 -0.309019 0
    outer loop
      vertex 33.1159 39.2185 2
      vertex 32.9964 38.8506 5
      vertex 32.9964 38.8506 2
    endloop
  endfacet
  facet normal 0.406744 -0.913542 0
    outer loop
      vertex 33.881 40.0681 2
      vertex 34.2343 40.2255 5
      vertex 33.881 40.0681 5
    endloop
  endfacet
  facet normal 0.406744 -0.913542 0
    outer loop
      vertex 34.2343 40.2255 5
      vertex 33.881 40.0681 2
      vertex 34.2343 40.2255 2
    endloop
  endfacet
  facet normal -0.994523 0.104522 0
    outer loop
      vertex 36.6156 38.0814 2
      vertex 36.656 38.466 5
      vertex 36.656 38.466 2
    endloop
  endfacet
  facet normal -0.994523 0.104522 0
    outer loop
      vertex 36.656 38.466 5
      vertex 36.6156 38.0814 2
      vertex 36.6156 38.0814 5
    endloop
  endfacet
  facet normal -0.587784 0.809018 0
    outer loop
      vertex 36.0439 37.0912 2
      vertex 35.731 36.8639 5
      vertex 36.0439 37.0912 5
    endloop
  endfacet
  facet normal -0.587784 0.809018 0
    outer loop
      vertex 35.731 36.8639 5
      vertex 36.0439 37.0912 2
      vertex 35.731 36.8639 2
    endloop
  endfacet
  facet normal -0.743145 0.66913 0
    outer loop
      vertex 36.0439 37.0912 2
      vertex 36.3027 37.3786 5
      vertex 36.3027 37.3786 2
    endloop
  endfacet
  facet normal -0.743145 0.66913 0
    outer loop
      vertex 36.3027 37.3786 5
      vertex 36.0439 37.0912 2
      vertex 36.0439 37.0912 5
    endloop
  endfacet
  facet normal -0.951057 0.309016 0
    outer loop
      vertex 36.4961 37.7135 2
      vertex 36.6156 38.0814 5
      vertex 36.6156 38.0814 2
    endloop
  endfacet
  facet normal -0.951057 0.309016 0
    outer loop
      vertex 36.6156 38.0814 5
      vertex 36.4961 37.7135 2
      vertex 36.4961 37.7135 5
    endloop
  endfacet
  facet normal 0.406744 0.913542 -0
    outer loop
      vertex 34.2343 36.7065 2
      vertex 33.881 36.8639 5
      vertex 34.2343 36.7065 5
    endloop
  endfacet
  facet normal 0.406744 0.913542 0
    outer loop
      vertex 33.881 36.8639 5
      vertex 34.2343 36.7065 2
      vertex 33.881 36.8639 2
    endloop
  endfacet
  facet normal 0.866023 0.500004 0
    outer loop
      vertex 33.3093 37.3786 5
      vertex 33.1159 37.7135 2
      vertex 33.1159 37.7135 5
    endloop
  endfacet
  facet normal 0.866023 0.500004 0
    outer loop
      vertex 33.1159 37.7135 2
      vertex 33.3093 37.3786 5
      vertex 33.3093 37.3786 2
    endloop
  endfacet
  facet normal 0.207909 0.978148 -0
    outer loop
      vertex 34.6126 36.6261 2
      vertex 34.2343 36.7065 5
      vertex 34.6126 36.6261 5
    endloop
  endfacet
  facet normal 0.207909 0.978148 0
    outer loop
      vertex 34.2343 36.7065 5
      vertex 34.6126 36.6261 2
      vertex 34.2343 36.7065 2
    endloop
  endfacet
  facet normal 0.587784 0.809018 -0
    outer loop
      vertex 33.881 36.8639 2
      vertex 33.5681 37.0912 5
      vertex 33.881 36.8639 5
    endloop
  endfacet
  facet normal 0.587784 0.809018 0
    outer loop
      vertex 33.5681 37.0912 5
      vertex 33.881 36.8639 2
      vertex 33.5681 37.0912 2
    endloop
  endfacet
  facet normal 0.743145 0.66913 0
    outer loop
      vertex 33.5681 37.0912 5
      vertex 33.3093 37.3786 2
      vertex 33.3093 37.3786 5
    endloop
  endfacet
  facet normal 0.743145 0.66913 0
    outer loop
      vertex 33.3093 37.3786 2
      vertex 33.5681 37.0912 5
      vertex 33.5681 37.0912 2
    endloop
  endfacet
  facet normal 0.951057 0.309016 0
    outer loop
      vertex 33.1159 37.7135 5
      vertex 32.9964 38.0814 2
      vertex 32.9964 38.0814 5
    endloop
  endfacet
  facet normal 0.951057 0.309016 0
    outer loop
      vertex 32.9964 38.0814 2
      vertex 33.1159 37.7135 5
      vertex 33.1159 37.7135 2
    endloop
  endfacet
  facet normal 0.994523 0.104522 0
    outer loop
      vertex 32.9964 38.0814 5
      vertex 32.956 38.466 2
      vertex 32.956 38.466 5
    endloop
  endfacet
  facet normal 0.994523 0.104522 0
    outer loop
      vertex 32.956 38.466 2
      vertex 32.9964 38.0814 5
      vertex 32.9964 38.0814 2
    endloop
  endfacet
  facet normal -0.406744 0.913542 0
    outer loop
      vertex 35.731 36.8639 2
      vertex 35.3777 36.7065 5
      vertex 35.731 36.8639 5
    endloop
  endfacet
  facet normal -0.406744 0.913542 0
    outer loop
      vertex 35.3777 36.7065 5
      vertex 35.731 36.8639 2
      vertex 35.3777 36.7065 2
    endloop
  endfacet
  facet normal -0.207909 0.978148 0
    outer loop
      vertex 35.3777 36.7065 2
      vertex 34.9994 36.6261 5
      vertex 35.3777 36.7065 5
    endloop
  endfacet
  facet normal -0.207909 0.978148 0
    outer loop
      vertex 34.9994 36.6261 5
      vertex 35.3777 36.7065 2
      vertex 34.9994 36.6261 2
    endloop
  endfacet
  facet normal -0.994522 -0.104532 0
    outer loop
      vertex 67.136 38.466 2
      vertex 67.0956 38.8506 5
      vertex 67.0956 38.8506 2
    endloop
  endfacet
  facet normal -0.994522 -0.104532 0
    outer loop
      vertex 67.0956 38.8506 5
      vertex 67.136 38.466 2
      vertex 67.136 38.466 5
    endloop
  endfacet
  facet normal 0 -1 0
    outer loop
      vertex 65.0926 40.3059 2
      vertex 65.4794 40.3059 5
      vertex 65.0926 40.3059 5
    endloop
  endfacet
  facet normal 0 -1 -0
    outer loop
      vertex 65.4794 40.3059 5
      vertex 65.0926 40.3059 2
      vertex 65.4794 40.3059 2
    endloop
  endfacet
  facet normal -0.207909 0.978148 0
    outer loop
      vertex 65.8577 36.7065 2
      vertex 65.4794 36.6261 5
      vertex 65.8577 36.7065 5
    endloop
  endfacet
  facet normal -0.207909 0.978148 0
    outer loop
      vertex 65.4794 36.6261 5
      vertex 65.8577 36.7065 2
      vertex 65.4794 36.6261 2
    endloop
  endfacet
  facet normal -0.743145 -0.66913 0
    outer loop
      vertex 66.7827 39.5534 2
      vertex 66.5239 39.8408 5
      vertex 66.5239 39.8408 2
    endloop
  endfacet
  facet normal -0.743145 -0.66913 0
    outer loop
      vertex 66.5239 39.8408 5
      vertex 66.7827 39.5534 2
      vertex 66.7827 39.5534 5
    endloop
  endfacet
  facet normal -0.951056 -0.309019 0
    outer loop
      vertex 67.0956 38.8506 2
      vertex 66.9761 39.2185 5
      vertex 66.9761 39.2185 2
    endloop
  endfacet
  facet normal -0.951056 -0.309019 0
    outer loop
      vertex 66.9761 39.2185 5
      vertex 67.0956 38.8506 2
      vertex 67.0956 38.8506 5
    endloop
  endfacet
  facet normal 0.74314 -0.669136 0
    outer loop
      vertex 63.7893 39.5534 5
      vertex 64.0481 39.8408 2
      vertex 64.0481 39.8408 5
    endloop
  endfacet
  facet normal 0.74314 -0.669136 0
    outer loop
      vertex 64.0481 39.8408 2
      vertex 63.7893 39.5534 5
      vertex 63.7893 39.5534 2
    endloop
  endfacet
  facet normal 0.406744 -0.913542 0
    outer loop
      vertex 64.361 40.0681 2
      vertex 64.7143 40.2255 5
      vertex 64.361 40.0681 5
    endloop
  endfacet
  facet normal 0.406744 -0.913542 0
    outer loop
      vertex 64.7143 40.2255 5
      vertex 64.361 40.0681 2
      vertex 64.7143 40.2255 2
    endloop
  endfacet
  facet normal -0.866028 0.499996 0
    outer loop
      vertex 66.7827 37.3786 2
      vertex 66.9761 37.7135 5
      vertex 66.9761 37.7135 2
    endloop
  endfacet
  facet normal -0.866028 0.499996 0
    outer loop
      vertex 66.9761 37.7135 5
      vertex 66.7827 37.3786 2
      vertex 66.7827 37.3786 5
    endloop
  endfacet
  facet normal -0.86603 -0.499992 0
    outer loop
      vertex 66.9761 39.2185 2
      vertex 66.7827 39.5534 5
      vertex 66.7827 39.5534 2
    endloop
  endfacet
  facet normal -0.86603 -0.499992 0
    outer loop
      vertex 66.7827 39.5534 5
      vertex 66.9761 39.2185 2
      vertex 66.9761 39.2185 5
    endloop
  endfacet
  facet normal -0.406744 -0.913542 0
    outer loop
      vertex 65.8577 40.2255 2
      vertex 66.211 40.0681 5
      vertex 65.8577 40.2255 5
    endloop
  endfacet
  facet normal -0.406744 -0.913542 -0
    outer loop
      vertex 66.211 40.0681 5
      vertex 65.8577 40.2255 2
      vertex 66.211 40.0681 2
    endloop
  endfacet
  facet normal -0.207909 -0.978148 0
    outer loop
      vertex 65.4794 40.3059 2
      vertex 65.8577 40.2255 5
      vertex 65.4794 40.3059 5
    endloop
  endfacet
  facet normal -0.207909 -0.978148 -0
    outer loop
      vertex 65.8577 40.2255 5
      vertex 65.4794 40.3059 2
      vertex 65.8577 40.2255 2
    endloop
  endfacet
  facet normal -0.587779 -0.809021 0
    outer loop
      vertex 66.211 40.0681 2
      vertex 66.5239 39.8408 5
      vertex 66.211 40.0681 5
    endloop
  endfacet
  facet normal -0.587779 -0.809021 -0
    outer loop
      vertex 66.5239 39.8408 5
      vertex 66.211 40.0681 2
      vertex 66.5239 39.8408 2
    endloop
  endfacet
  facet normal 0.951056 -0.309019 0
    outer loop
      vertex 63.4764 38.8506 5
      vertex 63.5959 39.2185 2
      vertex 63.5959 39.2185 5
    endloop
  endfacet
  facet normal 0.951056 -0.309019 0
    outer loop
      vertex 63.5959 39.2185 2
      vertex 63.4764 38.8506 5
      vertex 63.4764 38.8506 2
    endloop
  endfacet
  facet normal 0.866026 -0.499999 0
    outer loop
      vertex 63.5959 39.2185 5
      vertex 63.7893 39.5534 2
      vertex 63.7893 39.5534 5
    endloop
  endfacet
  facet normal 0.866026 -0.499999 0
    outer loop
      vertex 63.7893 39.5534 2
      vertex 63.5959 39.2185 5
      vertex 63.5959 39.2185 2
    endloop
  endfacet
  facet normal 0.994523 -0.104522 0
    outer loop
      vertex 63.436 38.466 5
      vertex 63.4764 38.8506 2
      vertex 63.4764 38.8506 5
    endloop
  endfacet
  facet normal 0.994523 -0.104522 0
    outer loop
      vertex 63.4764 38.8506 2
      vertex 63.436 38.466 5
      vertex 63.436 38.466 2
    endloop
  endfacet
  facet normal 0.587789 -0.809015 0
    outer loop
      vertex 64.0481 39.8408 2
      vertex 64.361 40.0681 5
      vertex 64.0481 39.8408 5
    endloop
  endfacet
  facet normal 0.587789 -0.809015 0
    outer loop
      vertex 64.361 40.0681 5
      vertex 64.0481 39.8408 2
      vertex 64.361 40.0681 2
    endloop
  endfacet
  facet normal 0.207909 -0.978148 0
    outer loop
      vertex 64.7143 40.2255 2
      vertex 65.0926 40.3059 5
      vertex 64.7143 40.2255 5
    endloop
  endfacet
  facet normal 0.207909 -0.978148 0
    outer loop
      vertex 65.0926 40.3059 5
      vertex 64.7143 40.2255 2
      vertex 65.0926 40.3059 2
    endloop
  endfacet
  facet normal -0.994522 0.104532 0
    outer loop
      vertex 67.0956 38.0814 2
      vertex 67.136 38.466 5
      vertex 67.136 38.466 2
    endloop
  endfacet
  facet normal -0.994522 0.104532 0
    outer loop
      vertex 67.136 38.466 5
      vertex 67.0956 38.0814 2
      vertex 67.0956 38.0814 5
    endloop
  endfacet
  facet normal -0.951057 0.309016 0
    outer loop
      vertex 66.9761 37.7135 2
      vertex 67.0956 38.0814 5
      vertex 67.0956 38.0814 2
    endloop
  endfacet
  facet normal -0.951057 0.309016 0
    outer loop
      vertex 67.0956 38.0814 5
      vertex 66.9761 37.7135 2
      vertex 66.9761 37.7135 5
    endloop
  endfacet
  facet normal 0.994523 0.104522 0
    outer loop
      vertex 63.4764 38.0814 5
      vertex 63.436 38.466 2
      vertex 63.436 38.466 5
    endloop
  endfacet
  facet normal 0.994523 0.104522 0
    outer loop
      vertex 63.436 38.466 2
      vertex 63.4764 38.0814 5
      vertex 63.4764 38.0814 2
    endloop
  endfacet
  facet normal 0.207909 0.978148 -0
    outer loop
      vertex 65.0926 36.6261 2
      vertex 64.7143 36.7065 5
      vertex 65.0926 36.6261 5
    endloop
  endfacet
  facet normal 0.207909 0.978148 0
    outer loop
      vertex 64.7143 36.7065 5
      vertex 65.0926 36.6261 2
      vertex 64.7143 36.7065 2
    endloop
  endfacet
  facet normal 0.74314 0.669136 0
    outer loop
      vertex 64.0481 37.0912 5
      vertex 63.7893 37.3786 2
      vertex 63.7893 37.3786 5
    endloop
  endfacet
  facet normal 0.74314 0.669136 0
    outer loop
      vertex 63.7893 37.3786 2
      vertex 64.0481 37.0912 5
      vertex 64.0481 37.0912 2
    endloop
  endfacet
  facet normal -0.743145 0.66913 0
    outer loop
      vertex 66.5239 37.0912 2
      vertex 66.7827 37.3786 5
      vertex 66.7827 37.3786 2
    endloop
  endfacet
  facet normal -0.743145 0.66913 0
    outer loop
      vertex 66.7827 37.3786 5
      vertex 66.5239 37.0912 2
      vertex 66.5239 37.0912 5
    endloop
  endfacet
  facet normal 0 1 -0
    outer loop
      vertex 65.4794 36.6261 2
      vertex 65.0926 36.6261 5
      vertex 65.4794 36.6261 5
    endloop
  endfacet
  facet normal 0 1 0
    outer loop
      vertex 65.0926 36.6261 5
      vertex 65.4794 36.6261 2
      vertex 65.0926 36.6261 2
    endloop
  endfacet
  facet normal 0.406744 0.913542 -0
    outer loop
      vertex 64.7143 36.7065 2
      vertex 64.361 36.8639 5
      vertex 64.7143 36.7065 5
    endloop
  endfacet
  facet normal 0.406744 0.913542 0
    outer loop
      vertex 64.361 36.8639 5
      vertex 64.7143 36.7065 2
      vertex 64.361 36.8639 2
    endloop
  endfacet
  facet normal 0.587789 0.809015 -0
    outer loop
      vertex 64.361 36.8639 2
      vertex 64.0481 37.0912 5
      vertex 64.361 36.8639 5
    endloop
  endfacet
  facet normal 0.587789 0.809015 0
    outer loop
      vertex 64.0481 37.0912 5
      vertex 64.361 36.8639 2
      vertex 64.0481 37.0912 2
    endloop
  endfacet
  facet normal 0.866023 0.500004 0
    outer loop
      vertex 63.7893 37.3786 5
      vertex 63.5959 37.7135 2
      vertex 63.5959 37.7135 5
    endloop
  endfacet
  facet normal 0.866023 0.500004 0
    outer loop
      vertex 63.5959 37.7135 2
      vertex 63.7893 37.3786 5
      vertex 63.7893 37.3786 2
    endloop
  endfacet
  facet normal 0.951057 0.309016 0
    outer loop
      vertex 63.5959 37.7135 5
      vertex 63.4764 38.0814 2
      vertex 63.4764 38.0814 5
    endloop
  endfacet
  facet normal 0.951057 0.309016 0
    outer loop
      vertex 63.4764 38.0814 2
      vertex 63.5959 37.7135 5
      vertex 63.5959 37.7135 2
    endloop
  endfacet
  facet normal -0.587779 0.809021 0
    outer loop
      vertex 66.5239 37.0912 2
      vertex 66.211 36.8639 5
      vertex 66.5239 37.0912 5
    endloop
  endfacet
  facet normal -0.587779 0.809021 0
    outer loop
      vertex 66.211 36.8639 5
      vertex 66.5239 37.0912 2
      vertex 66.211 36.8639 2
    endloop
  endfacet
  facet normal -0.406744 0.913542 0
    outer loop
      vertex 66.211 36.8639 2
      vertex 65.8577 36.7065 5
      vertex 66.211 36.8639 5
    endloop
  endfacet
  facet normal -0.406744 0.913542 0
    outer loop
      vertex 65.8577 36.7065 5
      vertex 66.211 36.8639 2
      vertex 65.8577 36.7065 2
    endloop
  endfacet
  facet normal -0.994522 -0.104532 0
    outer loop
      vertex 67.136 23.226 2
      vertex 67.0956 23.6106 5
      vertex 67.0956 23.6106 2
    endloop
  endfacet
  facet normal -0.994522 -0.104532 0
    outer loop
      vertex 67.0956 23.6106 5
      vertex 67.136 23.226 2
      vertex 67.136 23.226 5
    endloop
  endfacet
  facet normal 0 -1 0
    outer loop
      vertex 65.0926 25.0659 2
      vertex 65.4794 25.0659 5
      vertex 65.0926 25.0659 5
    endloop
  endfacet
  facet normal 0 -1 -0
    outer loop
      vertex 65.4794 25.0659 5
      vertex 65.0926 25.0659 2
      vertex 65.4794 25.0659 2
    endloop
  endfacet
  facet normal -0.207909 0.978148 0
    outer loop
      vertex 65.8577 21.4665 2
      vertex 65.4794 21.3861 5
      vertex 65.8577 21.4665 5
    endloop
  endfacet
  facet normal -0.207909 0.978148 0
    outer loop
      vertex 65.4794 21.3861 5
      vertex 65.8577 21.4665 2
      vertex 65.4794 21.3861 2
    endloop
  endfacet
  facet normal -0.743147 -0.669128 0
    outer loop
      vertex 66.7827 24.3134 2
      vertex 66.5239 24.6008 5
      vertex 66.5239 24.6008 2
    endloop
  endfacet
  facet normal -0.743147 -0.669128 0
    outer loop
      vertex 66.5239 24.6008 5
      vertex 66.7827 24.3134 2
      vertex 66.7827 24.3134 5
    endloop
  endfacet
  facet normal -0.951056 -0.309018 0
    outer loop
      vertex 67.0956 23.6106 2
      vertex 66.9761 23.9785 5
      vertex 66.9761 23.9785 2
    endloop
  endfacet
  facet normal -0.951056 -0.309018 0
    outer loop
      vertex 66.9761 23.9785 5
      vertex 67.0956 23.6106 2
      vertex 67.0956 23.6106 5
    endloop
  endfacet
  facet normal 0.743142 -0.669133 0
    outer loop
      vertex 63.7893 24.3134 5
      vertex 64.0481 24.6008 2
      vertex 64.0481 24.6008 5
    endloop
  endfacet
  facet normal 0.743142 -0.669133 0
    outer loop
      vertex 64.0481 24.6008 2
      vertex 63.7893 24.3134 5
      vertex 63.7893 24.3134 2
    endloop
  endfacet
  facet normal 0.406736 -0.913546 0
    outer loop
      vertex 64.361 24.8281 2
      vertex 64.7143 24.9855 5
      vertex 64.361 24.8281 5
    endloop
  endfacet
  facet normal 0.406736 -0.913546 0
    outer loop
      vertex 64.7143 24.9855 5
      vertex 64.361 24.8281 2
      vertex 64.7143 24.9855 2
    endloop
  endfacet
  facet normal -0.86603 0.499992 0
    outer loop
      vertex 66.7827 22.1386 2
      vertex 66.9761 22.4735 5
      vertex 66.9761 22.4735 2
    endloop
  endfacet
  facet normal -0.86603 0.499992 0
    outer loop
      vertex 66.9761 22.4735 5
      vertex 66.7827 22.1386 2
      vertex 66.7827 22.1386 5
    endloop
  endfacet
  facet normal -0.866029 -0.499994 0
    outer loop
      vertex 66.9761 23.9785 2
      vertex 66.7827 24.3134 5
      vertex 66.7827 24.3134 2
    endloop
  endfacet
  facet normal -0.866029 -0.499994 0
    outer loop
      vertex 66.7827 24.3134 5
      vertex 66.9761 23.9785 2
      vertex 66.9761 23.9785 5
    endloop
  endfacet
  facet normal -0.406736 -0.913546 0
    outer loop
      vertex 65.8577 24.9855 2
      vertex 66.211 24.8281 5
      vertex 65.8577 24.9855 5
    endloop
  endfacet
  facet normal -0.406736 -0.913546 -0
    outer loop
      vertex 66.211 24.8281 5
      vertex 65.8577 24.9855 2
      vertex 66.211 24.8281 2
    endloop
  endfacet
  facet normal -0.207909 -0.978148 0
    outer loop
      vertex 65.4794 25.0659 2
      vertex 65.8577 24.9855 5
      vertex 65.4794 25.0659 5
    endloop
  endfacet
  facet normal -0.207909 -0.978148 -0
    outer loop
      vertex 65.8577 24.9855 5
      vertex 65.4794 25.0659 2
      vertex 65.8577 24.9855 2
    endloop
  endfacet
  facet normal -0.587779 -0.809021 0
    outer loop
      vertex 66.211 24.8281 2
      vertex 66.5239 24.6008 5
      vertex 66.211 24.8281 5
    endloop
  endfacet
  facet normal -0.587779 -0.809021 -0
    outer loop
      vertex 66.5239 24.6008 5
      vertex 66.211 24.8281 2
      vertex 66.5239 24.6008 2
    endloop
  endfacet
  facet normal 0.951056 -0.309018 0
    outer loop
      vertex 63.4764 23.6106 5
      vertex 63.5959 23.9785 2
      vertex 63.5959 23.9785 5
    endloop
  endfacet
  facet normal 0.951056 -0.309018 0
    outer loop
      vertex 63.5959 23.9785 2
      vertex 63.4764 23.6106 5
      vertex 63.4764 23.6106 2
    endloop
  endfacet
  facet normal 0.866025 -0.500002 0
    outer loop
      vertex 63.5959 23.9785 5
      vertex 63.7893 24.3134 2
      vertex 63.7893 24.3134 5
    endloop
  endfacet
  facet normal 0.866025 -0.500002 0
    outer loop
      vertex 63.7893 24.3134 2
      vertex 63.5959 23.9785 5
      vertex 63.5959 23.9785 2
    endloop
  endfacet
  facet normal 0.994523 -0.104522 0
    outer loop
      vertex 63.436 23.226 5
      vertex 63.4764 23.6106 2
      vertex 63.4764 23.6106 5
    endloop
  endfacet
  facet normal 0.994523 -0.104522 0
    outer loop
      vertex 63.4764 23.6106 2
      vertex 63.436 23.226 5
      vertex 63.436 23.226 2
    endloop
  endfacet
  facet normal 0.587789 -0.809015 0
    outer loop
      vertex 64.0481 24.6008 2
      vertex 64.361 24.8281 5
      vertex 64.0481 24.6008 5
    endloop
  endfacet
  facet normal 0.587789 -0.809015 0
    outer loop
      vertex 64.361 24.8281 5
      vertex 64.0481 24.6008 2
      vertex 64.361 24.8281 2
    endloop
  endfacet
  facet normal 0.207909 -0.978148 0
    outer loop
      vertex 64.7143 24.9855 2
      vertex 65.0926 25.0659 5
      vertex 64.7143 24.9855 5
    endloop
  endfacet
  facet normal 0.207909 -0.978148 0
    outer loop
      vertex 65.0926 25.0659 5
      vertex 64.7143 24.9855 2
      vertex 65.0926 25.0659 2
    endloop
  endfacet
  facet normal -0.994522 0.104531 0
    outer loop
      vertex 67.0956 22.8414 2
      vertex 67.136 23.226 5
      vertex 67.136 23.226 2
    endloop
  endfacet
  facet normal -0.994522 0.104531 0
    outer loop
      vertex 67.136 23.226 5
      vertex 67.0956 22.8414 2
      vertex 67.0956 22.8414 5
    endloop
  endfacet
  facet normal -0.951056 0.309019 0
    outer loop
      vertex 66.9761 22.4735 2
      vertex 67.0956 22.8414 5
      vertex 67.0956 22.8414 2
    endloop
  endfacet
  facet normal -0.951056 0.309019 0
    outer loop
      vertex 67.0956 22.8414 5
      vertex 66.9761 22.4735 2
      vertex 66.9761 22.4735 5
    endloop
  endfacet
  facet normal 0.994523 0.104522 0
    outer loop
      vertex 63.4764 22.8414 5
      vertex 63.436 23.226 2
      vertex 63.436 23.226 5
    endloop
  endfacet
  facet normal 0.994523 0.104522 0
    outer loop
      vertex 63.436 23.226 2
      vertex 63.4764 22.8414 5
      vertex 63.4764 22.8414 2
    endloop
  endfacet
  facet normal 0.207909 0.978148 -0
    outer loop
      vertex 65.0926 21.3861 2
      vertex 64.7143 21.4665 5
      vertex 65.0926 21.3861 5
    endloop
  endfacet
  facet normal 0.207909 0.978148 0
    outer loop
      vertex 64.7143 21.4665 5
      vertex 65.0926 21.3861 2
      vertex 64.7143 21.4665 2
    endloop
  endfacet
  facet normal 0.74314 0.669136 0
    outer loop
      vertex 64.0481 21.8512 5
      vertex 63.7893 22.1386 2
      vertex 63.7893 22.1386 5
    endloop
  endfacet
  facet normal 0.74314 0.669136 0
    outer loop
      vertex 63.7893 22.1386 2
      vertex 64.0481 21.8512 5
      vertex 64.0481 21.8512 2
    endloop
  endfacet
  facet normal -0.743145 0.66913 0
    outer loop
      vertex 66.5239 21.8512 2
      vertex 66.7827 22.1386 5
      vertex 66.7827 22.1386 2
    endloop
  endfacet
  facet normal -0.743145 0.66913 0
    outer loop
      vertex 66.7827 22.1386 5
      vertex 66.5239 21.8512 2
      vertex 66.5239 21.8512 5
    endloop
  endfacet
  facet normal 0 1 -0
    outer loop
      vertex 65.4794 21.3861 2
      vertex 65.0926 21.3861 5
      vertex 65.4794 21.3861 5
    endloop
  endfacet
  facet normal 0 1 0
    outer loop
      vertex 65.0926 21.3861 5
      vertex 65.4794 21.3861 2
      vertex 65.0926 21.3861 2
    endloop
  endfacet
  facet normal 0.406736 0.913546 -0
    outer loop
      vertex 64.7143 21.4665 2
      vertex 64.361 21.6239 5
      vertex 64.7143 21.4665 5
    endloop
  endfacet
  facet normal 0.406736 0.913546 0
    outer loop
      vertex 64.361 21.6239 5
      vertex 64.7143 21.4665 2
      vertex 64.361 21.6239 2
    endloop
  endfacet
  facet normal 0.587789 0.809015 -0
    outer loop
      vertex 64.361 21.6239 2
      vertex 64.0481 21.8512 5
      vertex 64.361 21.6239 5
    endloop
  endfacet
  facet normal 0.587789 0.809015 0
    outer loop
      vertex 64.0481 21.8512 5
      vertex 64.361 21.6239 2
      vertex 64.0481 21.8512 2
    endloop
  endfacet
  facet normal 0.866026 0.499999 0
    outer loop
      vertex 63.7893 22.1386 5
      vertex 63.5959 22.4735 2
      vertex 63.5959 22.4735 5
    endloop
  endfacet
  facet normal 0.866026 0.499999 0
    outer loop
      vertex 63.5959 22.4735 2
      vertex 63.7893 22.1386 5
      vertex 63.7893 22.1386 2
    endloop
  endfacet
  facet normal 0.951056 0.309019 0
    outer loop
      vertex 63.5959 22.4735 5
      vertex 63.4764 22.8414 2
      vertex 63.4764 22.8414 5
    endloop
  endfacet
  facet normal 0.951056 0.309019 0
    outer loop
      vertex 63.4764 22.8414 2
      vertex 63.5959 22.4735 5
      vertex 63.5959 22.4735 2
    endloop
  endfacet
  facet normal -0.587779 0.809021 0
    outer loop
      vertex 66.5239 21.8512 2
      vertex 66.211 21.6239 5
      vertex 66.5239 21.8512 5
    endloop
  endfacet
  facet normal -0.587779 0.809021 0
    outer loop
      vertex 66.211 21.6239 5
      vertex 66.5239 21.8512 2
      vertex 66.211 21.6239 2
    endloop
  endfacet
  facet normal -0.406736 0.913546 0
    outer loop
      vertex 66.211 21.6239 2
      vertex 65.8577 21.4665 5
      vertex 66.211 21.6239 5
    endloop
  endfacet
  facet normal -0.406736 0.913546 0
    outer loop
      vertex 65.8577 21.4665 5
      vertex 66.211 21.6239 2
      vertex 65.8577 21.4665 2
    endloop
  endfacet
  facet normal 1 -0 0
    outer loop
      vertex 40.3 27.9 5
      vertex 40.3 37.4 2
      vertex 40.3 37.4 5
    endloop
  endfacet
  facet normal 1 0 0
    outer loop
      vertex 40.3 37.4 2
      vertex 40.3 27.9 5
      vertex 40.3 27.9 2
    endloop
  endfacet
  facet normal -1 0 0
    outer loop
      vertex 61.3 27.9 2
      vertex 61.3 37.4 5
      vertex 61.3 37.4 2
    endloop
  endfacet
  facet normal -1 -0 0
    outer loop
      vertex 61.3 37.4 5
      vertex 61.3 27.9 2
      vertex 61.3 27.9 5
    endloop
  endfacet
  facet normal 0 -1 0
    outer loop
      vertex 40.3 37.4 2
      vertex 61.3 37.4 5
      vertex 40.3 37.4 5
    endloop
  endfacet
  facet normal 0 -1 -0
    outer loop
      vertex 61.3 37.4 5
      vertex 40.3 37.4 2
      vertex 61.3 37.4 2
    endloop
  endfacet
  facet normal 0 1 -0
    outer loop
      vertex 61.3 27.9 2
      vertex 40.3 27.9 5
      vertex 61.3 27.9 5
    endloop
  endfacet
  facet normal 0 1 0
    outer loop
      vertex 40.3 27.9 5
      vertex 61.3 27.9 2
      vertex 40.3 27.9 2
    endloop
  endfacet
endsolid OpenSCAD_Model
