<?xml version="1.0" encoding="UTF-8" standalone="no"?>
<!-- Created with Inkscape (http://www.inkscape.org/) -->

<svg
   xmlns:dc="http://purl.org/dc/elements/1.1/"
   xmlns:cc="http://creativecommons.org/ns#"
   xmlns:rdf="http://www.w3.org/1999/02/22-rdf-syntax-ns#"
   xmlns:svg="http://www.w3.org/2000/svg"
   xmlns="http://www.w3.org/2000/svg"
   xmlns:sodipodi="http://sodipodi.sourceforge.net/DTD/sodipodi-0.dtd"
   xmlns:inkscape="http://www.inkscape.org/namespaces/inkscape"
   width="210mm"
   height="297mm"
   viewBox="0 0 210 297"
   version="1.1"
   id="svg9338"
   inkscape:version="0.92.2 (5c3e80d, 2017-08-06)"
   sodipodi:docname="acrylic_diaphragm_box_ponoko.svg">
  <defs
     id="defs9332">
    <marker
       style="overflow:visible"
       refY="0.0"
       refX="0.0"
       orient="auto"
       id="DistanceX">
      <path
         id="path9342"
         style="stroke:#000000; stroke-width:0.5"
         d="M 3,-3 L -3,3 M 0,-5 L  0,5" />
    </marker>
    <pattern
       y="0"
       x="0"
       width="8"
       patternUnits="userSpaceOnUse"
       id="Hatch"
       height="8">
      <path
         id="path9345"
         stroke-width="0.25"
         stroke="#000000"
         linecap="square"
         d="M8 4 l-4,4" />
      <path
         id="path9347"
         stroke-width="0.25"
         stroke="#000000"
         linecap="square"
         d="M6 2 l-4,4" />
      <path
         id="path9349"
         stroke-width="0.25"
         stroke="#000000"
         linecap="square"
         d="M4 0 l-4,4" />
    </pattern>
    <symbol
       id="*MODEL_SPACE" />
    <symbol
       id="*PAPER_SPACE" />
    <marker
       style="overflow:visible"
       refY="0.0"
       refX="0.0"
       orient="auto"
       id="DistanceX-1">
      <path
         id="path9416"
         style="stroke:#000000; stroke-width:0.5"
         d="M 3,-3 L -3,3 M 0,-5 L  0,5" />
    </marker>
    <pattern
       y="0"
       x="0"
       width="8"
       patternUnits="userSpaceOnUse"
       id="Hatch-3"
       height="8">
      <path
         id="path9419"
         stroke-width="0.25"
         stroke="#000000"
         linecap="square"
         d="M8 4 l-4,4" />
      <path
         id="path9421"
         stroke-width="0.25"
         stroke="#000000"
         linecap="square"
         d="M6 2 l-4,4" />
      <path
         id="path9423"
         stroke-width="0.25"
         stroke="#000000"
         linecap="square"
         d="M4 0 l-4,4" />
    </pattern>
    <symbol
       id="*MODEL_SPACE-5" />
    <symbol
       id="*PAPER_SPACE-0" />
    <marker
       style="overflow:visible"
       refY="0.0"
       refX="0.0"
       orient="auto"
       id="DistanceX-9">
      <path
         id="path9464"
         style="stroke:#000000; stroke-width:0.5"
         d="M 3,-3 L -3,3 M 0,-5 L  0,5" />
    </marker>
    <pattern
       y="0"
       x="0"
       width="8"
       patternUnits="userSpaceOnUse"
       id="Hatch-1"
       height="8">
      <path
         id="path9467"
         stroke-width="0.25"
         stroke="#000000"
         linecap="square"
         d="M8 4 l-4,4" />
      <path
         id="path9469"
         stroke-width="0.25"
         stroke="#000000"
         linecap="square"
         d="M6 2 l-4,4" />
      <path
         id="path9471"
         stroke-width="0.25"
         stroke="#000000"
         linecap="square"
         d="M4 0 l-4,4" />
    </pattern>
    <symbol
       id="*MODEL_SPACE-1" />
    <symbol
       id="*PAPER_SPACE-6" />
    <marker
       style="overflow:visible"
       refY="0.0"
       refX="0.0"
       orient="auto"
       id="DistanceX-97">
      <path
         id="path9523"
         style="stroke:#000000; stroke-width:0.5"
         d="M 3,-3 L -3,3 M 0,-5 L  0,5" />
    </marker>
    <pattern
       y="0"
       x="0"
       width="8"
       patternUnits="userSpaceOnUse"
       id="Hatch-13"
       height="8">
      <path
         id="path9526"
         stroke-width="0.25"
         stroke="#000000"
         linecap="square"
         d="M8 4 l-4,4" />
      <path
         id="path9528"
         stroke-width="0.25"
         stroke="#000000"
         linecap="square"
         d="M6 2 l-4,4" />
      <path
         id="path9530"
         stroke-width="0.25"
         stroke="#000000"
         linecap="square"
         d="M4 0 l-4,4" />
    </pattern>
    <symbol
       id="*MODEL_SPACE-0" />
    <symbol
       id="*PAPER_SPACE-1" />
    <marker
       style="overflow:visible"
       refY="0.0"
       refX="0.0"
       orient="auto"
       id="DistanceX-7">
      <path
         id="path9627"
         style="stroke:#000000; stroke-width:0.5"
         d="M 3,-3 L -3,3 M 0,-5 L  0,5" />
    </marker>
    <pattern
       y="0"
       x="0"
       width="8"
       patternUnits="userSpaceOnUse"
       id="Hatch-2"
       height="8">
      <path
         id="path9630"
         stroke-width="0.25"
         stroke="#000000"
         linecap="square"
         d="M8 4 l-4,4" />
      <path
         id="path9632"
         stroke-width="0.25"
         stroke="#000000"
         linecap="square"
         d="M6 2 l-4,4" />
      <path
         id="path9634"
         stroke-width="0.25"
         stroke="#000000"
         linecap="square"
         d="M4 0 l-4,4" />
    </pattern>
    <symbol
       id="*MODEL_SPACE-17" />
    <symbol
       id="*PAPER_SPACE-00" />
  </defs>
  <sodipodi:namedview
     id="base"
     pagecolor="#ffffff"
     bordercolor="#666666"
     borderopacity="1.0"
     inkscape:pageopacity="0.0"
     inkscape:pageshadow="2"
     inkscape:zoom="1.979899"
     inkscape:cx="1422.4673"
     inkscape:cy="507.77159"
     inkscape:document-units="mm"
     inkscape:current-layer="layer1"
     showgrid="false"
     inkscape:window-width="1920"
     inkscape:window-height="986"
     inkscape:window-x="-11"
     inkscape:window-y="-11"
     inkscape:window-maximized="1"
     inkscape:measure-start="1495.53,637.911"
     inkscape:measure-end="1131.37,453.558" />
  <metadata
     id="metadata9335">
    <rdf:RDF>
      <cc:Work
         rdf:about="">
        <dc:format>image/svg+xml</dc:format>
        <dc:type
           rdf:resource="http://purl.org/dc/dcmitype/StillImage" />
        <dc:title />
      </cc:Work>
    </rdf:RDF>
  </metadata>
  <g
     inkscape:label="Layer 1"
     inkscape:groupmode="layer"
     id="layer1">
    <g
       id="g9412"
       transform="matrix(0.26458333,0,0,0.26458333,145.51811,-142.52711)"
       style="stroke:#0000ff;stroke-opacity:1;stroke-width:3.77952761;stroke-miterlimit:4;stroke-dasharray:none">
      <g
         id="g9356"
         inkscape:label="0"
         style="stroke:#0000ff;stroke-opacity:1;stroke-width:3.77952761;stroke-miterlimit:4;stroke-dasharray:none" />
      <g
         id="g9382"
         inkscape:label="Layer_1"
         style="stroke:#0000ff;stroke-opacity:1;stroke-width:3.77952761;stroke-miterlimit:4;stroke-dasharray:none">
        <path
           id="path9358"
           style="fill:none;stroke:#0000ff;stroke-opacity:1;stroke-width:3.77952761;stroke-miterlimit:4;stroke-dasharray:none"
           d="M 550.87011,1121.579 V 779.52336 H 0.940687"
           inkscape:connector-curvature="0"
           sodipodi:nodetypes="ccc" />
        <path
           id="path9360"
           style="fill:none;stroke:#0000ff;stroke-opacity:1;stroke-width:3.77952761;stroke-miterlimit:4;stroke-dasharray:none"
           d="m 44.315127,823.91391 -1.385159,-0.44927 -1.261304,-0.72699 -1.081965,-0.97277 -0.855572,-1.17612 -0.59365,-1.32805 -0.303497,-1.42205 v -1.4539 l 0.303497,-1.4219 0.59365,-1.32805 0.855572,-1.17611 1.081965,-0.97278 1.261304,-0.72657 1.385159,-0.44954 1.448579,-0.15194 1.448656,0.15194 1.385159,0.44954 1.261341,0.72657 1.081928,0.97278 0.857008,1.17611 0.592252,1.32805 0.303496,1.4219 v 1.4539 l -0.303496,1.42205 -0.592252,1.32805 -0.857008,1.17612 -1.081928,0.97277 -1.261341,0.72699 -1.385159,0.44927 -1.448656,0.15194 z"
           inkscape:connector-curvature="0" />
        <path
           id="path9362"
           style="fill:none;stroke:#0000ff;stroke-opacity:1;stroke-width:3.77952761;stroke-miterlimit:4;stroke-dasharray:none"
           d="m 515.14356,838.94933 -1.38232,-0.44927 -1.26135,-0.727 -1.0848,-0.97277 -0.85557,-1.17611 -0.59081,-1.32809 -0.30463,-1.42201 v -1.45391 l 0.30463,-1.42205 0.59081,-1.32805 0.85557,-1.17611 1.0848,-0.97278 1.26135,-0.72657 1.38232,-0.44954 1.45009,-0.15194 1.4502,0.15194 1.38237,0.44954 1.2613,0.72657 1.0848,0.97278 0.85557,1.17611 0.59082,1.32805 0.30463,1.42205 v 1.45391 l -0.30463,1.42201 -0.59082,1.32809 -0.85557,1.17611 -1.0848,0.97277 -1.2613,0.727 -1.38237,0.44927 -1.4502,0.15194 z"
           inkscape:connector-curvature="0" />
        <path
           id="path9364"
           style="fill:none;stroke:#0000ff;stroke-opacity:1;stroke-width:3.77952761;stroke-miterlimit:4;stroke-dasharray:none"
           d="m 440.41115,866.99225 -1.5727,-0.50997 -1.4324,-0.82511 -1.22858,-1.104 -0.97228,-1.33519 -0.67196,-1.50769 -0.34432,-1.61405 v -1.6501 l 0.34432,-1.61405 0.67196,-1.50769 0.97228,-1.3352 1.22858,-1.104 1.4324,-0.82511 1.5727,-0.50997 1.6444,-0.17234 1.64458,0.17234 1.57251,0.50997 1.43244,0.82511 1.22858,1.104 0.97232,1.3352 0.67196,1.50769 0.34431,1.61405 v 1.6501 l -0.34431,1.61408 -0.67196,1.5077 -0.97232,1.33519 -1.22858,1.104 -1.43244,0.82511 -1.57251,0.50993 -1.64458,0.17235 z"
           inkscape:connector-curvature="0" />
        <path
           id="path9366"
           style="fill:none;stroke:#0000ff;stroke-opacity:1;stroke-width:3.77952761;stroke-miterlimit:4;stroke-dasharray:none"
           d="m 463.51155,899.49468 -2.4341,-0.78928 -2.21627,-1.27695 -1.90167,-1.70876 -1.50448,-2.06624 -1.04069,-2.33313 -0.53239,-2.49812 v -2.55379 l 0.53239,-2.49812 1.04069,-2.33314 1.50448,-2.06623 1.90167,-1.70876 2.21627,-1.27695 2.4341,-0.78928 2.54513,-0.26683 2.54513,0.26683 2.43394,0.78928 2.21628,1.27695 1.90178,1.70876 1.50433,2.06623 1.04069,2.33314 0.53243,2.49812 v 2.55375 l -0.53243,2.49816 -1.04069,2.3331 -1.50433,2.06627 -1.90178,1.70876 -2.21628,1.27691 -2.43394,0.78928 -2.54513,0.26683 z"
           inkscape:connector-curvature="0" />
        <path
           id="path9368"
           style="fill:none;stroke:#0000ff;stroke-opacity:1;stroke-width:3.77952761;stroke-miterlimit:4;stroke-dasharray:none"
           d="m 463.51155,937.57939 -2.4341,-0.78928 -2.21627,-1.27695 -1.90167,-1.7088 -1.50448,-2.06623 -1.04069,-2.3331 -0.53239,-2.49812 v -2.55379 l 0.53239,-2.49812 1.04069,-2.33313 1.50448,-2.06623 1.90167,-1.70877 2.21627,-1.27695 2.4341,-0.78928 2.54513,-0.26683 2.54513,0.26683 2.43394,0.78928 2.21628,1.27695 1.90178,1.70877 1.50433,2.06623 1.04069,2.33313 0.53243,2.49812 v 2.55379 l -0.53243,2.49812 -1.04069,2.3331 -1.50433,2.06623 -1.90178,1.7088 -2.21628,1.27695 -2.43394,0.78928 -2.54513,0.26683 z"
           inkscape:connector-curvature="0" />
        <path
           id="path9370"
           style="fill:none;stroke:#0000ff;stroke-opacity:1;stroke-width:3.77952761;stroke-miterlimit:4;stroke-dasharray:none"
           d="m 424.68763,1006.5581 v -63.90054 h 16.94982 v 63.90054 z"
           inkscape:connector-curvature="0" />
        <path
           id="path9372"
           style="fill:none;stroke:#0000ff;stroke-opacity:1;stroke-width:3.77952761;stroke-miterlimit:4;stroke-dasharray:none"
           d="m 463.51155,985.4897 -2.4341,-0.78928 -2.21627,-1.27691 -1.90167,-1.7088 -1.50448,-2.06623 -1.04069,-2.3331 -0.53239,-2.49816 v -2.55375 l 0.53239,-2.49815 1.04069,-2.33311 1.50448,-2.06626 1.90167,-1.70877 2.21627,-1.27691 2.4341,-0.78928 2.54513,-0.26683 2.54513,0.26683 2.43394,0.78928 2.21628,1.27691 1.90178,1.70877 1.50433,2.06626 1.04069,2.33311 0.53243,2.49815 v 2.55375 l -0.53243,2.49816 -1.04069,2.3331 -1.50433,2.06623 -1.90178,1.7088 -2.21628,1.27691 -2.43394,0.78928 -2.54513,0.26683 z"
           inkscape:connector-curvature="0" />
        <path
           id="path9374"
           style="fill:none;stroke:#0000ff;stroke-opacity:1;stroke-width:3.77952761;stroke-miterlimit:4;stroke-dasharray:none"
           d="m 463.51155,1023.9728 -2.4341,-0.7892 -2.21627,-1.2769 -1.90167,-1.7088 -1.50448,-2.0663 -1.04069,-2.3331 -0.53239,-2.4981 v -2.5538 l 0.53239,-2.4981 1.04069,-2.3331 1.50448,-2.0663 1.90167,-1.7088 2.21627,-1.2769 2.4341,-0.7893 2.54513,-0.26679 2.54513,0.26679 2.43394,0.7893 2.21628,1.2769 1.90178,1.7088 1.50433,2.0663 1.04069,2.3331 0.53243,2.4981 v 2.5538 l -0.53243,2.4981 -1.04069,2.3331 -1.50433,2.0663 -1.90178,1.7088 -2.21628,1.2769 -2.43394,0.7892 -2.54513,0.2669 z"
           inkscape:connector-curvature="0" />
        <path
           id="path9376"
           style="fill:none;stroke:#0000ff;stroke-opacity:1;stroke-width:3.77952761;stroke-miterlimit:4;stroke-dasharray:none"
           d="m 440.80278,1058.2277 -1.57254,-0.5099 -1.43214,-0.8251 -1.22858,-1.1042 -0.97232,-1.335 -0.67192,-1.5076 -0.34432,-1.6141 v -1.6502 l 0.34432,-1.6142 0.67192,-1.5075 0.97232,-1.3352 1.22858,-1.1042 1.43202,-0.8251 1.57266,-0.5099 1.64444,-0.1724 1.64455,0.1724 1.57251,0.5099 1.43217,0.8251 1.22858,1.1042 0.97232,1.3352 0.67196,1.5075 0.34431,1.6142 v 1.6502 l -0.34431,1.6141 -0.67196,1.5076 -0.97232,1.335 -1.22858,1.1042 -1.43217,0.8251 -1.57251,0.5099 -1.64455,0.1724 z"
           inkscape:connector-curvature="0" />
        <path
           id="path9378"
           style="fill:none;stroke:#0000ff;stroke-opacity:1;stroke-width:3.77952761;stroke-miterlimit:4;stroke-dasharray:none"
           d="m 515.14356,1079.5158 -1.38232,-0.4493 -1.26135,-0.7268 -1.0848,-0.9728 -0.85557,-1.1761 -0.59081,-1.3281 -0.30463,-1.422 v -1.4538 l 0.30463,-1.422 0.59081,-1.328 0.85557,-1.1762 1.0848,-0.9727 1.26135,-0.727 1.38232,-0.4493 1.45009,-0.1519 1.4502,0.1519 1.38237,0.4493 1.2613,0.727 1.0848,0.9727 0.85557,1.1762 0.59082,1.328 0.30463,1.422 v 1.4538 l -0.30463,1.422 -0.59082,1.3281 -0.85557,1.1761 -1.0848,0.9728 -1.2613,0.7268 -1.38237,0.4493 -1.4502,0.1519 z"
           inkscape:connector-curvature="0" />
        <path
           id="path9380"
           style="fill:none;stroke:#0000ff;stroke-opacity:1;stroke-width:3.77952761;stroke-miterlimit:4;stroke-dasharray:none"
           d="m 44.315127,1090.7924 -1.385159,-0.4493 -1.261304,-0.7268 -1.081965,-0.9728 -0.855572,-1.1761 -0.59365,-1.3281 -0.303497,-1.422 v -1.4538 l 0.303497,-1.422 0.59365,-1.3281 0.855572,-1.1761 1.081965,-0.9728 1.261304,-0.7269 1.385159,-0.4494 1.448579,-0.1519 1.448656,0.1519 1.385159,0.4494 1.261341,0.7269 1.081928,0.9728 0.857008,1.1761 0.592252,1.3281 0.303496,1.422 v 1.4538 l -0.303496,1.422 -0.592252,1.3281 -0.857008,1.1761 -1.081928,0.9728 -1.261341,0.7268 -1.385159,0.4493 -1.448656,0.1519 z"
           inkscape:connector-curvature="0" />
      </g>
    </g>
    <g
       id="g9519"
       transform="matrix(0.26458333,0,0,0.26458333,149.52685,0.11686624)"
       style="stroke:#0000ff;stroke-opacity:1;stroke-width:3.77952761;stroke-miterlimit:4;stroke-dasharray:none">
      <g
         id="g9478"
         inkscape:label="0"
         style="stroke:#0000ff;stroke-opacity:1;stroke-width:3.77952761;stroke-miterlimit:4;stroke-dasharray:none" />
      <g
         id="g9494"
         inkscape:label="Layer_1"
         style="stroke:#0000ff;stroke-opacity:1;stroke-width:3.77952761;stroke-miterlimit:4;stroke-dasharray:none">
        <path
           id="path9480"
           style="fill:none;stroke:#0000ff;stroke-opacity:1;stroke-width:3.77952761;stroke-miterlimit:4;stroke-dasharray:none"
           d="M 0.941666,1121.578 H 565.98743 V 582.98891 H 0.941666"
           inkscape:connector-curvature="0"
           sodipodi:nodetypes="cccc" />
        <path
           id="path9482"
           style="fill:none;stroke:#0000ff;stroke-opacity:1;stroke-width:3.77952761;stroke-miterlimit:4;stroke-dasharray:none"
           d="m 546.42414,609.12703 -1.42503,-0.30274 -1.33119,-0.59271 -1.17884,-0.85549 -0.97527,-1.08114 -0.72892,-1.26107 -0.44991,-1.38539 -0.15231,-1.44847 0.15231,-1.44861 0.44991,-1.38535 0.72892,-1.26108 0.97527,-1.08117 1.17884,-0.85689 1.33119,-0.59271 1.42503,-0.30274 h 1.45708 l 1.425,0.30274 1.33118,0.59271 1.17888,0.85689 0.97527,1.08117 0.72895,1.26108 0.44992,1.38535 0.15231,1.44861 -0.15231,1.44847 -0.44992,1.38539 -0.72895,1.26107 -0.97527,1.08114 -1.17888,0.85549 -1.33118,0.59271 -1.425,0.30274 z"
           inkscape:connector-curvature="0" />
        <path
           id="path9484"
           style="fill:none;stroke:#0000ff;stroke-opacity:1;stroke-width:3.77952761;stroke-miterlimit:4;stroke-dasharray:none"
           d="m 245.06634,609.12703 -1.425,-0.30274 -1.33122,-0.59271 -1.17884,-0.85549 -0.97527,-1.08114 -0.72895,-1.26107 -0.44992,-1.38539 -0.15231,-1.44847 0.15231,-1.44861 0.44992,-1.38535 0.72895,-1.26108 0.97527,-1.084 1.17884,-0.85694 1.33122,-0.5927 1.425,-0.30274 h 1.45708 l 1.425,0.30274 1.33119,0.5927 1.17883,0.85694 0.97527,1.084 0.72896,1.26108 0.44991,1.38535 0.15232,1.44861 -0.15232,1.44847 -0.44991,1.38539 -0.72896,1.26107 -0.97527,1.08114 -1.17883,0.85549 -1.33119,0.59271 -1.425,0.30274 z"
           inkscape:connector-curvature="0" />
        <path
           id="path9486"
           style="fill:none;stroke:#0000ff;stroke-opacity:1;stroke-width:3.77952761;stroke-miterlimit:4;stroke-dasharray:none"
           d="m 19.049609,609.12703 -1.427755,-0.30274 -1.329751,-0.59271 -1.178872,-0.85549 -0.975269,-1.08114 -0.727522,-1.26107 -0.451351,-1.38539 -0.150803,-1.44847 0.150803,-1.44861 0.451351,-1.38535 0.727522,-1.26108 0.975269,-1.084 1.178872,-0.85694 1.329751,-0.5927 1.427755,-0.30274 h 1.45406 l 1.427565,0.30274 1.329789,0.5927 1.178835,0.85694 0.975269,1.084 0.727521,1.26108 0.451314,1.38535 0.150803,1.44861 -0.150803,1.44847 -0.451314,1.38539 -0.727521,1.26107 -0.975269,1.08114 -1.178835,0.85549 -1.329789,0.59271 -1.427565,0.30274 z"
           inkscape:connector-curvature="0" />
        <path
           id="path9488"
           style="fill:none;stroke:#0000ff;stroke-opacity:1;stroke-width:3.77952761;stroke-miterlimit:4;stroke-dasharray:none"
           d="m 546.42414,1106.2866 -1.42503,-0.305 -1.33119,-0.5913 -1.17884,-0.8549 -0.97527,-1.0847 -0.72892,-1.2618 -0.44991,-1.3822 -0.15231,-1.4501 0.15231,-1.45 0.44991,-1.3822 0.72892,-1.2617 0.97527,-1.0847 1.17884,-0.8549 1.33119,-0.5913 1.42518,-0.305 h 1.45705 l 1.42503,0.305 1.33119,0.5913 1.17887,0.8549 0.97527,1.0847 0.72896,1.2617 0.44987,1.3822 0.15232,1.45 -0.15232,1.4501 -0.44987,1.3822 -0.72896,1.2618 -0.97527,1.0847 -1.17887,0.8549 -1.33119,0.5913 -1.42503,0.305 z"
           inkscape:connector-curvature="0" />
        <path
           id="path9490"
           style="fill:none;stroke:#0000ff;stroke-opacity:1;stroke-width:3.77952761;stroke-miterlimit:4;stroke-dasharray:none"
           d="m 320.40582,1106.2866 -1.42504,-0.305 -1.33118,-0.5913 -1.17884,-0.8549 -0.97523,-1.0847 -0.72896,-1.2618 -0.44991,-1.3822 -0.15232,-1.4501 0.15232,-1.45 0.44991,-1.3822 0.72896,-1.2617 0.97523,-1.0847 1.17884,-0.8549 1.33118,-0.5913 1.42504,-0.305 h 1.45704 l 1.42503,0.305 1.33119,0.5913 1.17887,0.8549 0.97528,1.0847 0.72895,1.2617 0.44992,1.3822 0.15231,1.45 -0.15231,1.4501 -0.44992,1.3822 -0.72895,1.2618 -0.97528,1.0847 -1.17887,0.8549 -1.33119,0.5913 -1.42503,0.305 z"
           inkscape:connector-curvature="0" />
        <path
           id="path9492"
           style="fill:none;stroke:#0000ff;stroke-opacity:1;stroke-width:3.77952761;stroke-miterlimit:4;stroke-dasharray:none"
           d="m 19.049609,1106.2866 -1.427755,-0.305 -1.329751,-0.5913 -1.178872,-0.8549 -0.975269,-1.0847 -0.727522,-1.2618 -0.451351,-1.3822 -0.150803,-1.4501 0.150803,-1.45 0.451351,-1.3822 0.727522,-1.2617 0.975269,-1.0847 1.178872,-0.8549 1.329751,-0.5913 1.427755,-0.305 h 1.45406 l 1.427565,0.305 1.329789,0.5913 1.178835,0.8549 0.975269,1.0847 0.727521,1.2617 0.451314,1.3822 0.150803,1.45 -0.150803,1.4501 -0.451314,1.3822 -0.727521,1.2618 -0.975269,1.0847 -1.178835,0.8549 -1.329789,0.5913 -1.427565,0.305 z"
           inkscape:connector-curvature="0" />
      </g>
    </g>
    <g
       id="g9596"
       transform="matrix(0.26458333,0,0,0.26458333,-0.11685746,0.11686624)"
       style="stroke:#0000ff;stroke-opacity:1;stroke-width:3.77952761;stroke-miterlimit:4;stroke-dasharray:none">
      <g
         id="g9537"
         inkscape:label="0"
         style="stroke:#0000ff;stroke-opacity:1;stroke-width:3.77952761;stroke-miterlimit:4;stroke-dasharray:none" />
      <g
         id="g9565"
         inkscape:label="Layer_1"
         style="stroke:#0000ff;stroke-opacity:1;stroke-width:3.77952761;stroke-miterlimit:4;stroke-dasharray:none">
        <path
           id="path9539"
           style="fill:none;stroke:#0000ff;stroke-opacity:1;stroke-width:3.77952761;stroke-miterlimit:4;stroke-dasharray:none"
           d="M 565.98747,1121.578 V 582.98891 H 0.941666 V 1121.578 H 565.98747"
           inkscape:connector-curvature="0"
           sodipodi:nodetypes="ccccc" />
        <path
           id="path9541"
           style="fill:none;stroke:#0000ff;stroke-opacity:1;stroke-width:3.77952761;stroke-miterlimit:4;stroke-dasharray:none"
           d="m 546.42418,612.14052 -1.42519,-0.30425 -1.33118,-0.59131 -1.17884,-0.85545 -0.97527,-1.08545 -0.72748,-1.26111 -0.44992,-1.38248 -0.15231,-1.4502 0.15231,-1.45002 0.44992,-1.38251 0.72748,-1.26108 0.97527,-1.08544 1.17884,-0.8555 1.33118,-0.59127 1.42519,-0.30425 h 1.45704 l 1.42503,0.30425 1.33119,0.59127 1.17888,0.8555 0.97526,1.08544 0.72896,1.26108 0.44992,1.38251 0.15231,1.45002 -0.15231,1.4502 -0.44992,1.38248 -0.72896,1.26111 -0.97526,1.08545 -1.17888,0.85545 -1.33119,0.59131 -1.42503,0.30425 z"
           inkscape:connector-curvature="0" />
        <path
           id="path9543"
           style="fill:none;stroke:#0000ff;stroke-opacity:1;stroke-width:3.77952761;stroke-miterlimit:4;stroke-dasharray:none"
           d="m 19.049473,612.14052 -1.427581,-0.30425 -1.32977,-0.59131 -1.178857,-0.85545 -0.975262,-1.08545 -0.727529,-1.26111 -0.452749,-1.38248 -0.150917,-1.4502 0.150917,-1.45002 0.452749,-1.38251 0.727529,-1.26108 0.975262,-1.08544 1.178857,-0.8555 1.32977,-0.59127 1.427581,-0.30425 h 1.454063 l 1.427724,0.30425 1.329771,0.59127 1.178853,0.8555 0.975258,1.08544 0.727533,1.26108 0.451324,1.38251 0.150879,1.45002 -0.150879,1.4502 -0.451324,1.38248 -0.727533,1.26111 -0.975258,1.08545 -1.178853,0.85545 -1.329771,0.59131 -1.427724,0.30425 z"
           inkscape:connector-curvature="0" />
        <path
           id="path9545"
           style="fill:none;stroke:#0000ff;stroke-opacity:1;stroke-width:3.77952761;stroke-miterlimit:4;stroke-dasharray:none"
           d="m 320.40585,612.14052 -1.42518,-0.30425 -1.33119,-0.59131 -1.17884,-0.85545 -0.97523,-1.08545 -0.72896,-1.26111 -0.44991,-1.38248 -0.15231,-1.4502 0.15231,-1.45002 0.44991,-1.38251 0.72896,-1.26108 0.97523,-1.08544 1.17884,-0.8555 1.33119,-0.59127 1.42518,-0.30425 h 1.45705 l 1.42503,0.30425 1.33119,0.59127 1.17887,0.8555 0.97523,1.08544 0.72896,1.26108 0.44991,1.38251 0.15232,1.45002 -0.15232,1.4502 -0.44991,1.38248 -0.72896,1.26111 -0.97523,1.08545 -1.17887,0.85545 -1.33119,0.59131 -1.42503,0.30425 z"
           inkscape:connector-curvature="0" />
        <path
           id="path9547"
           style="fill:none;stroke:#0000ff;stroke-opacity:1;stroke-width:3.77952761;stroke-miterlimit:4;stroke-dasharray:none"
           d="m 319.89331,1039.2183 -2.42634,-0.5156 -2.26617,-1.0097 -2.00704,-1.4581 -1.65978,-1.8431 -1.24007,-2.1481 -0.76595,-2.3587 -0.25928,-2.4666 0.25928,-2.4668 0.76595,-2.3587 1.24007,-2.1481 1.65978,-1.8431 2.00704,-1.4579 2.26617,-1.0083 2.42634,-0.5156 h 2.48084 l 2.42635,0.5156 2.2662,1.0083 2.00704,1.4579 1.65978,1.8431 1.24007,2.1481 0.76596,2.3587 0.25927,2.4668 -0.25927,2.4666 -0.76596,2.3587 -1.24007,2.1481 -1.65978,1.8431 -2.00704,1.4581 -2.2662,1.0097 -2.42635,0.5156 z"
           inkscape:connector-curvature="0" />
        <path
           id="path9549"
           style="fill:none;stroke:#0000ff;stroke-opacity:1;stroke-width:3.77952761;stroke-miterlimit:4;stroke-dasharray:none"
           d="m 75.041223,1039.2183 -2.425908,-0.5156 -2.267728,-1.0097 -2.007757,-1.4581 -1.657516,-1.8431 -1.24292,-2.1481 -0.764549,-2.3587 -0.260561,-2.4666 0.260561,-2.4668 0.764549,-2.3587 1.24292,-2.1481 1.657516,-1.8431 2.007757,-1.4579 2.267728,-1.0083 2.425908,-0.5156 h 2.478728 l 2.425905,0.5156 2.267728,1.0083 2.007753,1.4579 1.657515,1.8431 1.242924,2.1481 0.764546,2.3587 0.260561,2.4668 -0.260561,2.4666 -0.764546,2.3587 -1.242924,2.1481 -1.657515,1.8431 -2.007753,1.4581 -2.267728,1.0097 -2.425905,0.5156 z"
           inkscape:connector-curvature="0" />
        <path
           id="path9551"
           style="fill:none;stroke:#0000ff;stroke-opacity:1;stroke-width:3.77952761;stroke-miterlimit:4;stroke-dasharray:none"
           d="m 414.06758,1039.2183 -2.42635,-0.5156 -2.26616,-1.0097 -2.00705,-1.4581 -1.65962,-1.8431 -1.2401,-2.1481 -0.76596,-2.3587 -0.25928,-2.4666 0.25928,-2.4668 0.76596,-2.3587 1.2401,-2.1481 1.65962,-1.8431 2.00705,-1.4579 2.26616,-1.0083 2.42635,-0.5156 h 2.48099 l 2.42619,0.5156 2.26629,1.0083 2.00704,1.4579 1.65966,1.8431 1.24007,2.1481 0.76599,2.3587 0.25928,2.4668 -0.25928,2.4666 -0.76599,2.3587 -1.24007,2.1481 -1.65966,1.8431 -2.00704,1.4581 -2.26629,1.0097 -2.42619,0.5156 z"
           inkscape:connector-curvature="0" />
        <path
           id="path9553"
           style="fill:none;stroke:#0000ff;stroke-opacity:1;stroke-width:3.77952761;stroke-miterlimit:4;stroke-dasharray:none"
           d="m 489.40706,1039.2183 -2.42631,-0.5156 -2.26617,-1.0097 -2.00708,-1.4581 -1.65978,-1.8431 -1.24006,-2.1481 -0.766,-2.3587 -0.25927,-2.4666 0.25927,-2.4668 0.766,-2.3587 1.24006,-2.1481 1.65978,-1.8431 2.00708,-1.4579 2.26617,-1.0083 2.42631,-0.5156 h 2.48088 l 2.4263,0.5156 2.26617,1.0083 2.00704,1.4579 1.65982,1.8431 1.24006,2.1481 0.76596,2.3587 0.25928,2.4668 -0.25928,2.4666 -0.76596,2.3587 -1.24006,2.1481 -1.65982,1.8431 -2.00704,1.4581 -2.26617,1.0097 -2.4263,0.5156 z"
           inkscape:connector-curvature="0" />
        <path
           id="path9555"
           style="fill:none;stroke:#0000ff;stroke-opacity:1;stroke-width:3.77952761;stroke-miterlimit:4;stroke-dasharray:none"
           d="m 244.55383,1015.6204 h 2.481 l 2.42619,0.5155 2.26632,1.0098 2.00704,1.4579 1.65963,1.8431 1.2401,2.1481 0.76596,2.3586 0.25927,2.4668 -0.25927,2.4667 -0.76596,2.3587 -1.2401,2.1481 -1.65963,1.8431 -2.00704,1.458 -2.26632,1.0097 -2.42619,0.5156 h -2.481 l -2.42634,-0.5156 -2.26613,-1.0097 -2.00708,-1.458 -1.65967,-1.8431 -1.24006,-2.1481 -0.76596,-2.3587 -0.26041,-2.4667 0.26041,-2.4668 0.76596,-2.3586 1.24006,-2.1481 1.65967,-1.8431 2.00708,-1.4579 2.26613,-1.0098 z"
           inkscape:connector-curvature="0" />
        <path
           id="path9557"
           style="fill:none;stroke:#0000ff;stroke-opacity:1;stroke-width:3.77952761;stroke-miterlimit:4;stroke-dasharray:none"
           d="m 19.048902,1109.2994 -1.42758,-0.3028 -1.329771,-0.5926 -1.178857,-0.857 -0.975262,-1.0811 -0.727525,-1.2611 -0.452753,-1.3853 -0.150879,-1.4487 0.150879,-1.4484 0.452753,-1.3854 0.727525,-1.2611 0.975262,-1.0811 1.178857,-0.8555 1.329771,-0.5942 1.42758,-0.3027 h 1.454064 l 1.427724,0.3027 1.32977,0.5942 1.178853,0.8555 0.975262,1.0811 0.727529,1.2611 0.451325,1.3854 0.150916,1.4484 -0.150916,1.4487 -0.451325,1.3853 -0.727529,1.2611 -0.975262,1.0811 -1.178853,0.857 -1.32977,0.5926 -1.427724,0.3028 z"
           inkscape:connector-curvature="0" />
        <path
           id="path9559"
           style="fill:none;stroke:#0000ff;stroke-opacity:1;stroke-width:3.77952761;stroke-miterlimit:4;stroke-dasharray:none"
           d="m 245.06581,1109.2994 -1.42504,-0.3028 -1.33118,-0.5926 -1.17888,-0.857 -0.97523,-1.0811 -0.72896,-1.2611 -0.44991,-1.3853 -0.15232,-1.4487 0.15232,-1.4484 0.44991,-1.3854 0.72896,-1.2611 0.97523,-1.0811 1.17888,-0.8555 1.33118,-0.5942 1.42504,-0.3027 h 1.45704 l 1.42504,0.3027 1.33118,0.5942 1.17884,0.8555 0.97527,1.0811 0.72895,1.2611 0.44992,1.3854 0.15231,1.4484 -0.15231,1.4487 -0.44992,1.3853 -0.72895,1.2611 -0.97527,1.0811 -1.17884,0.857 -1.33118,0.5926 -1.42504,0.3028 z"
           inkscape:connector-curvature="0" />
        <path
           id="path9561"
           style="fill:none;stroke:#0000ff;stroke-opacity:1;stroke-width:3.77952761;stroke-miterlimit:4;stroke-dasharray:none"
           d="m 546.42361,1109.2994 -1.42519,-0.3028 -1.33118,-0.5926 -1.17884,-0.857 -0.97523,-1.0811 -0.72756,-1.2611 -0.44988,-1.3853 -0.15231,-1.4487 0.15231,-1.4484 0.44988,-1.3854 0.72756,-1.2611 0.97523,-1.0811 1.17884,-0.8555 1.33118,-0.5942 1.42519,-0.3027 h 1.45705 l 1.42503,0.3027 1.33119,0.5942 1.17887,0.8555 0.97523,1.0811 0.729,1.2611 0.44987,1.3854 0.15232,1.4484 -0.15232,1.4487 -0.44987,1.3853 -0.729,1.2611 -0.97523,1.0811 -1.17887,0.857 -1.33119,0.5926 -1.42503,0.3028 z"
           inkscape:connector-curvature="0" />
        <path
           id="path9563"
           style="fill:none;stroke:#0000ff;stroke-opacity:1;stroke-width:3.77952761;stroke-miterlimit:4;stroke-dasharray:none"
           d="m 161.2182,1020.4456 1.24292,2.1481 0.76455,2.3588 0.26056,2.4668 -0.26056,2.4664 -0.76455,2.3588 -1.24292,2.1481 -1.65737,1.8432 -2.0079,1.458 -2.26759,1.0098 -2.42604,0.5155 h -2.47859 l -2.42591,-0.5155 -2.26773,-1.0098 -2.00789,-1.458 -1.65737,-1.8432 -1.24293,-2.1481 -0.76454,-2.3588 -0.26056,-2.4664 0.26056,-2.4668 0.76454,-2.3588 1.24293,-2.1481 1.65737,-1.8432 2.00789,-1.4579 2.26773,-1.0097 2.42591,-0.5156 h 2.47859 l 2.42604,0.5156 2.26759,1.0097 2.0079,1.4579 z"
           inkscape:connector-curvature="0" />
      </g>
    </g>
    <g
       id="g9651"
       inkscape:label="0"
       transform="matrix(0.26458333,0,0,0.26458333,0.41256876,-146.36356)"
       style="stroke:#0000ff;stroke-opacity:1;stroke-width:3.77952761;stroke-miterlimit:4;stroke-dasharray:none">
      <path
         id="path9641"
         style="fill:none;stroke:#0000ff;stroke-opacity:1;stroke-width:3.77952761;stroke-miterlimit:4;stroke-dasharray:none"
         d="M 548.87034,1135.579 V 793.52336 H -1.059315 V 1135.579"
         inkscape:connector-curvature="0"
         sodipodi:nodetypes="cccc" />
      <path
         id="path9643"
         style="fill:none;stroke:#0000ff;stroke-opacity:1;stroke-width:3.77952761;stroke-miterlimit:4;stroke-dasharray:none"
         d="m 42.31488,837.91392 -1.385409,-0.44956 -1.261636,-0.72658 -1.08257,-0.9728 -0.856271,-1.17614 -0.592566,-1.32801 -0.302842,-1.42198 v -1.45391 l 0.302842,-1.42198 0.592566,-1.32801 0.856271,-1.17614 1.08257,-0.9728 1.261636,-0.72696 1.385409,-0.44918 1.448803,-0.15185 1.448685,0.15185 1.385749,0.44918 1.261447,0.72696 1.082536,0.9728 0.856154,1.17614 0.592872,1.32801 0.302831,1.42198 v 1.45391 l -0.302831,1.42198 -0.592872,1.32801 -0.856154,1.17614 -1.082536,0.9728 -1.261447,0.72658 -1.385749,0.44956 -1.448685,0.15185 z"
         inkscape:connector-curvature="0" />
      <path
         id="path9645"
         style="fill:none;stroke:#0000ff;stroke-opacity:1;stroke-width:3.77952761;stroke-miterlimit:4;stroke-dasharray:none"
         d="m 502.59713,839.04158 -1.38235,-0.44919 -1.26181,-0.72697 -1.08482,-0.97278 -0.85502,-1.17615 -0.59134,-1.328 -0.30495,-1.42198 v -1.45393 l 0.30495,-1.42197 0.59134,-1.328 0.85502,-1.17614 1.08482,-0.97279 1.26181,-0.72698 1.38235,-0.44917 1.45019,-0.15185 1.45014,0.15185 1.38236,0.44917 1.26181,0.72698 1.08481,0.97279 0.85503,1.17614 0.59134,1.328 0.30495,1.42197 v 1.45393 l -0.30495,1.42198 -0.59134,1.328 -0.85503,1.17615 -1.08481,0.97278 -1.26181,0.72697 -1.38236,0.44919 -1.45014,0.15185 z"
         inkscape:connector-curvature="0" />
      <path
         id="path9647"
         style="fill:none;stroke:#0000ff;stroke-opacity:1;stroke-width:3.77952761;stroke-miterlimit:4;stroke-dasharray:none"
         d="m 42.31488,1104.7925 -1.385409,-0.4496 -1.261636,-0.7266 -1.08257,-0.9727 -0.856271,-1.1762 -0.592566,-1.328 -0.302838,-1.422 v -1.4539 l 0.302838,-1.422 0.59257,-1.328 0.856271,-1.1761 1.08257,-0.9728 1.261636,-0.727 1.385409,-0.4491 1.448799,-0.1519 1.448685,0.1519 1.385749,0.4491 1.261447,0.727 1.082536,0.9728 0.856154,1.1761 0.592872,1.328 0.302831,1.422 v 1.4539 l -0.302831,1.422 -0.592872,1.328 -0.856154,1.1762 -1.082536,0.9727 -1.261447,0.7266 -1.385749,0.4496 -1.448685,0.1518 z"
         inkscape:connector-curvature="0" />
      <path
         id="path9649"
         style="fill:none;stroke:#0000ff;stroke-opacity:1;stroke-width:3.77952761;stroke-miterlimit:4;stroke-dasharray:none"
         d="m 502.59713,1106.296 -1.38235,-0.4491 -1.26181,-0.727 -1.08482,-0.9728 -0.85502,-1.1761 -0.59134,-1.328 -0.30495,-1.422 v -1.4539 l 0.30495,-1.422 0.59134,-1.328 0.85502,-1.1762 1.08482,-0.9728 1.26181,-0.7269 1.38235,-0.4492 1.45019,-0.1519 1.45014,0.1519 1.38236,0.4492 1.26181,0.7269 1.08481,0.9728 0.85503,1.1762 0.59134,1.328 0.30495,1.422 v 1.4539 l -0.30495,1.422 -0.59134,1.328 -0.85503,1.1761 -1.08481,0.9728 -1.26181,0.727 -1.38236,0.4491 -1.45014,0.1519 z"
         inkscape:connector-curvature="0" />
    </g>
    <g
       aria-label="HTS Resources vacuum pumps"
       transform="matrix(-0.26458333,0,0,-0.26458333,57.404775,533.36288)"
       style="font-style:normal;font-weight:normal;font-size:40px;line-height:1.25;font-family:sans-serif;letter-spacing:0px;word-spacing:0px;fill:#000000;fill-opacity:1;stroke:none;stroke-width:3.77952766;stroke-miterlimit:4;stroke-dasharray:none"
       id="flowRoot10394">
      <path
         d="m -797.64453,701.84375 h 2.36719 v 7.17187 h 8.60156 v -7.17187 h 2.36719 v 17.49609 h -2.36719 v -8.33203 h -8.60156 v 8.33203 h -2.36719 z"
         style="font-size:24px;stroke-width:3.77952766;stroke-miterlimit:4;stroke-dasharray:none"
         id="path10408"
         inkscape:connector-curvature="0" />
      <path
         d="m -782.02344,701.84375 h 14.80078 v 1.99219 h -6.21093 v 15.5039 h -2.37891 v -15.5039 h -6.21094 z"
         style="font-size:24px;stroke-width:3.77952766;stroke-miterlimit:4;stroke-dasharray:none"
         id="path10410"
         inkscape:connector-curvature="0" />
      <path
         d="m -754.4375,702.41797 v 2.30859 q -1.34766,-0.64453 -2.54297,-0.96094 -1.19531,-0.3164 -2.30859,-0.3164 -1.9336,0 -2.98828,0.75 -1.04297,0.75 -1.04297,2.13281 0,1.16016 0.6914,1.75781 0.70313,0.58594 2.64844,0.94922 l 1.42969,0.29297 q 2.64844,0.50391 3.90234,1.78125 1.26563,1.26563 1.26563,3.39844 0,2.54297 -1.71094,3.85547 -1.69922,1.3125 -4.99219,1.3125 -1.24218,0 -2.64843,-0.28125 -1.39454,-0.28125 -2.89454,-0.83203 v -2.4375 q 1.44141,0.80859 2.82422,1.21875 1.38282,0.41015 2.71875,0.41015 2.02735,0 3.12891,-0.79687 1.10156,-0.79688 1.10156,-2.27344 0,-1.28906 -0.79687,-2.01563 -0.78516,-0.72656 -2.58985,-1.08984 l -1.4414,-0.28125 q -2.64844,-0.52734 -3.83203,-1.65234 -1.1836,-1.125 -1.1836,-3.12891 0,-2.32031 1.62891,-3.65625 1.64062,-1.33594 4.51172,-1.33594 1.23047,0 2.50781,0.22266 1.27734,0.22266 2.61328,0.66797 z"
         style="font-size:24px;stroke-width:3.77952766;stroke-miterlimit:4;stroke-dasharray:none"
         id="path10412"
         inkscape:connector-curvature="0" />
      <path
         d="m -733.75391,711.13672 q 0.76172,0.25781 1.47657,1.10156 0.72656,0.84375 1.45312,2.32031 l 2.40235,4.78125 h -2.54297 l -2.23828,-4.48828 q -0.86719,-1.75781 -1.6875,-2.33203 -0.8086,-0.57422 -2.21485,-0.57422 h -2.57812 v 7.39453 h -2.36719 v -17.49609 h 5.34375 q 3,0 4.47656,1.25391 1.47656,1.2539 1.47656,3.78515 0,1.65235 -0.77343,2.74219 -0.76172,1.08984 -2.22657,1.51172 z m -5.92968,-7.34766 V 710 h 2.97656 q 1.71094,0 2.57812,-0.78516 0.87891,-0.79687 0.87891,-2.33203 0,-1.53515 -0.87891,-2.30859 -0.86718,-0.78516 -2.57812,-0.78516 z"
         style="font-size:24px;stroke-width:3.77952766;stroke-miterlimit:4;stroke-dasharray:none"
         id="path10414"
         inkscape:connector-curvature="0" />
      <path
         d="m -715.30859,712.23828 v 1.05469 h -9.91407 q 0.14063,2.22656 1.33594,3.39844 1.20703,1.16015 3.35156,1.16015 1.24219,0 2.40235,-0.30469 1.17187,-0.30468 2.32031,-0.91406 v 2.03906 q -1.16016,0.49219 -2.37891,0.75 -1.21875,0.25782 -2.47265,0.25782 -3.14063,0 -4.98047,-1.82813 -1.82813,-1.82812 -1.82813,-4.94531 0,-3.22266 1.73438,-5.10938 1.74609,-1.89843 4.69922,-1.89843 2.64844,0 4.18359,1.71093 1.54688,1.69922 1.54688,4.62891 z m -2.15625,-0.63281 q -0.0234,-1.76953 -0.9961,-2.82422 -0.96093,-1.05469 -2.55468,-1.05469 -1.80469,0 -2.89454,1.01953 -1.07812,1.01953 -1.24218,2.8711 z"
         style="font-size:24px;stroke-width:3.77952766;stroke-miterlimit:4;stroke-dasharray:none"
         id="path10416"
         inkscape:connector-curvature="0" />
      <path
         d="m -703.40234,706.60156 v 2.03906 q -0.91407,-0.46875 -1.89844,-0.70312 -0.98438,-0.23438 -2.03906,-0.23438 -1.60547,0 -2.41407,0.49219 -0.79687,0.49219 -0.79687,1.47656 0,0.75 0.57422,1.1836 0.57422,0.42187 2.30859,0.80859 l 0.73828,0.16406 q 2.29688,0.49219 3.25782,1.39454 0.97265,0.89062 0.97265,2.49609 0,1.82812 -1.45312,2.89453 -1.44141,1.06641 -3.97266,1.06641 -1.05469,0 -2.20312,-0.21094 -1.13672,-0.19922 -2.40235,-0.60938 v -2.22656 q 1.19531,0.6211 2.35547,0.9375 1.16016,0.30469 2.29688,0.30469 1.52343,0 2.34375,-0.51563 0.82031,-0.52734 0.82031,-1.47656 0,-0.8789 -0.59766,-1.34765 -0.58594,-0.46875 -2.58984,-0.90235 l -0.75,-0.17578 q -2.00391,-0.42187 -2.89453,-1.28906 -0.89063,-0.87891 -0.89063,-2.40235 0,-1.85156 1.3125,-2.85937 1.3125,-1.00781 3.72656,-1.00781 1.19532,0 2.25,0.17578 1.05469,0.17578 1.94532,0.52734 z"
         style="font-size:24px;stroke-width:3.77952766;stroke-miterlimit:4;stroke-dasharray:none"
         id="path10418"
         inkscape:connector-curvature="0" />
      <path
         d="m -694.16797,707.72656 q -1.73437,0 -2.74219,1.35938 -1.00781,1.34765 -1.00781,3.70312 0,2.35547 0.9961,3.71485 1.00781,1.34765 2.7539,1.34765 1.72266,0 2.73047,-1.35937 1.00781,-1.35938 1.00781,-3.70313 0,-2.33203 -1.00781,-3.6914 -1.00781,-1.3711 -2.73047,-1.3711 z m 0,-1.82812 q 2.8125,0 4.41797,1.82812 1.60547,1.82813 1.60547,5.0625 0,3.22266 -1.60547,5.0625 -1.60547,1.82813 -4.41797,1.82813 -2.82422,0 -4.42969,-1.82813 -1.59375,-1.83984 -1.59375,-5.0625 0,-3.23437 1.59375,-5.0625 1.60547,-1.82812 4.42969,-1.82812 z"
         style="font-size:24px;stroke-width:3.77952766;stroke-miterlimit:4;stroke-dasharray:none"
         id="path10420"
         inkscape:connector-curvature="0" />
      <path
         d="m -684.80469,714.16016 v -7.94532 h 2.15625 v 7.86328 q 0,1.86329 0.72657,2.80079 0.72656,0.92578 2.17968,0.92578 1.7461,0 2.75391,-1.11328 1.01953,-1.11329 1.01953,-3.03516 v -7.44141 h 2.15625 v 13.125 h -2.15625 v -2.01562 q -0.78516,1.19531 -1.82812,1.78125 -1.03125,0.57422 -2.40235,0.57422 -2.26172,0 -3.43359,-1.40625 -1.17188,-1.40625 -1.17188,-4.11328 z m 5.42578,-8.26172 z"
         style="font-size:24px;stroke-width:3.77952766;stroke-miterlimit:4;stroke-dasharray:none"
         id="path10422"
         inkscape:connector-curvature="0" />
      <path
         d="m -661.74219,708.23047 q -0.36328,-0.21094 -0.79687,-0.30469 -0.42188,-0.10547 -0.9375,-0.10547 -1.82813,0 -2.8125,1.19531 -0.97266,1.1836 -0.97266,3.41016 v 6.91406 h -2.16797 v -13.125 h 2.16797 v 2.03907 q 0.67969,-1.19532 1.76953,-1.76954 1.08985,-0.58593 2.64844,-0.58593 0.22266,0 0.49219,0.0351 0.26953,0.0234 0.59765,0.082 z"
         style="font-size:24px;stroke-width:3.77952766;stroke-miterlimit:4;stroke-dasharray:none"
         id="path10424"
         inkscape:connector-curvature="0" />
      <path
         d="m -650.52734,706.71875 v 2.01562 q -0.91407,-0.5039 -1.83985,-0.75 -0.91406,-0.25781 -1.85156,-0.25781 -2.09766,0 -3.25781,1.33594 -1.16016,1.32422 -1.16016,3.72656 0,2.40235 1.16016,3.73828 1.16015,1.32422 3.25781,1.32422 0.9375,0 1.85156,-0.24609 0.92578,-0.25781 1.83985,-0.76172 v 1.99219 q -0.90235,0.42187 -1.875,0.63281 -0.96094,0.21094 -2.05078,0.21094 -2.96485,0 -4.71094,-1.86328 -1.7461,-1.86329 -1.7461,-5.02735 0,-3.21094 1.75782,-5.05078 1.76953,-1.83984 4.83984,-1.83984 0.99609,0 1.94531,0.21093 0.94922,0.19922 1.83985,0.60938 z"
         style="font-size:24px;stroke-width:3.77952766;stroke-miterlimit:4;stroke-dasharray:none"
         id="path10426"
         inkscape:connector-curvature="0" />
      <path
         d="m -635.52734,712.23828 v 1.05469 h -9.91407 q 0.14063,2.22656 1.33594,3.39844 1.20703,1.16015 3.35156,1.16015 1.24219,0 2.40235,-0.30469 1.17187,-0.30468 2.32031,-0.91406 v 2.03906 q -1.16016,0.49219 -2.37891,0.75 -1.21875,0.25782 -2.47265,0.25782 -3.14063,0 -4.98047,-1.82813 -1.82813,-1.82812 -1.82813,-4.94531 0,-3.22266 1.73438,-5.10938 1.74609,-1.89843 4.69922,-1.89843 2.64844,0 4.18359,1.71093 1.54688,1.69922 1.54688,4.62891 z m -2.15625,-0.63281 q -0.0234,-1.76953 -0.9961,-2.82422 -0.96093,-1.05469 -2.55468,-1.05469 -1.80469,0 -2.89454,1.01953 -1.07812,1.01953 -1.24218,2.8711 z"
         style="font-size:24px;stroke-width:3.77952766;stroke-miterlimit:4;stroke-dasharray:none"
         id="path10428"
         inkscape:connector-curvature="0" />
      <path
         d="m -623.62109,706.60156 v 2.03906 q -0.91407,-0.46875 -1.89844,-0.70312 -0.98438,-0.23438 -2.03906,-0.23438 -1.60547,0 -2.41407,0.49219 -0.79687,0.49219 -0.79687,1.47656 0,0.75 0.57422,1.1836 0.57422,0.42187 2.30859,0.80859 l 0.73828,0.16406 q 2.29688,0.49219 3.25782,1.39454 0.97265,0.89062 0.97265,2.49609 0,1.82812 -1.45312,2.89453 -1.44141,1.06641 -3.97266,1.06641 -1.05469,0 -2.20312,-0.21094 -1.13672,-0.19922 -2.40235,-0.60938 v -2.22656 q 1.19531,0.6211 2.35547,0.9375 1.16016,0.30469 2.29688,0.30469 1.52343,0 2.34375,-0.51563 0.82031,-0.52734 0.82031,-1.47656 0,-0.8789 -0.59766,-1.34765 -0.58594,-0.46875 -2.58984,-0.90235 l -0.75,-0.17578 q -2.00391,-0.42187 -2.89453,-1.28906 -0.89063,-0.87891 -0.89063,-2.40235 0,-1.85156 1.3125,-2.85937 1.3125,-1.00781 3.72656,-1.00781 1.19532,0 2.25,0.17578 1.05469,0.17578 1.94532,0.52734 z"
         style="font-size:24px;stroke-width:3.77952766;stroke-miterlimit:4;stroke-dasharray:none"
         id="path10430"
         inkscape:connector-curvature="0" />
      <path
         d="M -799.28516,756.21484 H -797 l 4.10156,11.01563 4.10157,-11.01563 h 2.28515 l -4.92187,13.125 h -2.92969 z"
         style="font-size:24px;stroke-width:3.77952766;stroke-miterlimit:4;stroke-dasharray:none"
         id="path10432"
         inkscape:connector-curvature="0" />
      <path
         d="m -777.57031,762.74219 q -2.61328,0 -3.6211,0.59765 -1.00781,0.59766 -1.00781,2.03907 0,1.14843 0.75,1.82812 0.76172,0.66797 2.0625,0.66797 1.79297,0 2.8711,-1.26563 1.08984,-1.27734 1.08984,-3.38671 v -0.48047 z m 4.30078,-0.89063 v 7.48828 h -2.15625 v -1.99218 q -0.73828,1.19531 -1.83984,1.76953 -1.10157,0.5625 -2.69532,0.5625 -2.01562,0 -3.21093,-1.125 -1.1836,-1.13672 -1.1836,-3.03516 0,-2.21484 1.47656,-3.33984 1.48829,-1.125 4.42969,-1.125 h 3.02344 v -0.21094 q 0,-1.48828 -0.98438,-2.29688 -0.97265,-0.82031 -2.74218,-0.82031 -1.125,0 -2.19141,0.26953 -1.06641,0.26953 -2.05078,0.8086 v -1.99219 q 1.18359,-0.45703 2.29687,-0.67969 1.11329,-0.23437 2.16797,-0.23437 2.84766,0 4.25391,1.47656 1.40625,1.47656 1.40625,4.47656 z"
         style="font-size:24px;stroke-width:3.77952766;stroke-miterlimit:4;stroke-dasharray:none"
         id="path10434"
         inkscape:connector-curvature="0" />
      <path
         d="m -759.37109,756.71875 v 2.01562 q -0.91407,-0.5039 -1.83985,-0.75 -0.91406,-0.25781 -1.85156,-0.25781 -2.09766,0 -3.25781,1.33594 -1.16016,1.32422 -1.16016,3.72656 0,2.40235 1.16016,3.73828 1.16015,1.32422 3.25781,1.32422 0.9375,0 1.85156,-0.24609 0.92578,-0.25781 1.83985,-0.76172 v 1.99219 q -0.90235,0.42187 -1.875,0.63281 -0.96094,0.21094 -2.05078,0.21094 -2.96485,0 -4.71094,-1.86328 -1.7461,-1.86329 -1.7461,-5.02735 0,-3.21094 1.75782,-5.05078 1.76953,-1.83984 4.83984,-1.83984 0.99609,0 1.94531,0.21093 0.94922,0.19922 1.83985,0.60938 z"
         style="font-size:24px;stroke-width:3.77952766;stroke-miterlimit:4;stroke-dasharray:none"
         id="path10436"
         inkscape:connector-curvature="0" />
      <path
         d="m -755.82031,764.16016 v -7.94532 h 2.15625 v 7.86328 q 0,1.86329 0.72656,2.80079 0.72656,0.92578 2.17969,0.92578 1.74609,0 2.7539,-1.11328 1.01954,-1.11329 1.01954,-3.03516 v -7.44141 h 2.15625 v 13.125 h -2.15625 v -2.01562 q -0.78516,1.19531 -1.82813,1.78125 -1.03125,0.57422 -2.40234,0.57422 -2.26172,0 -3.4336,-1.40625 -1.17187,-1.40625 -1.17187,-4.11328 z m 5.42578,-8.26172 z"
         style="font-size:24px;stroke-width:3.77952766;stroke-miterlimit:4;stroke-dasharray:none"
         id="path10438"
         inkscape:connector-curvature="0" />
      <path
         d="m -740.58594,764.16016 v -7.94532 h 2.15625 v 7.86328 q 0,1.86329 0.72657,2.80079 0.72656,0.92578 2.17968,0.92578 1.7461,0 2.75391,-1.11328 1.01953,-1.11329 1.01953,-3.03516 v -7.44141 h 2.15625 v 13.125 H -731.75 v -2.01562 q -0.78516,1.19531 -1.82812,1.78125 -1.03125,0.57422 -2.40235,0.57422 -2.26172,0 -3.43359,-1.40625 -1.17188,-1.40625 -1.17188,-4.11328 z m 5.42578,-8.26172 z"
         style="font-size:24px;stroke-width:3.77952766;stroke-miterlimit:4;stroke-dasharray:none"
         id="path10440"
         inkscape:connector-curvature="0" />
      <path
         d="m -714.91016,758.73437 q 0.8086,-1.45312 1.9336,-2.14453 1.125,-0.6914 2.64844,-0.6914 2.05078,0 3.16406,1.4414 1.11328,1.42969 1.11328,4.07813 v 7.92187 h -2.16797 v -7.85156 q 0,-1.88672 -0.66797,-2.80078 -0.66797,-0.91406 -2.03906,-0.91406 -1.67578,0 -2.64844,1.11328 -0.97265,1.11328 -0.97265,3.03515 v 7.41797 h -2.16797 v -7.85156 q 0,-1.89844 -0.66797,-2.80078 -0.66797,-0.91406 -2.0625,-0.91406 -1.65235,0 -2.625,1.125 -0.97266,1.11328 -0.97266,3.02343 v 7.41797 h -2.16797 v -13.125 h 2.16797 v 2.03907 q 0.73828,-1.20704 1.76953,-1.78125 1.03125,-0.57422 2.44922,-0.57422 1.42969,0 2.42578,0.72656 1.00782,0.72656 1.48828,2.10937 z"
         style="font-size:24px;stroke-width:3.77952766;stroke-miterlimit:4;stroke-dasharray:none"
         id="path10442"
         inkscape:connector-curvature="0" />
      <path
         d="m -692.01172,767.37109 v 6.96094 h -2.16797 v -18.11719 h 2.16797 v 1.99219 q 0.67969,-1.17187 1.71094,-1.73437 1.04297,-0.57422 2.48437,-0.57422 2.39063,0 3.87891,1.89843 1.5,1.89844 1.5,4.99219 0,3.09375 -1.5,4.99219 -1.48828,1.89844 -3.87891,1.89844 -1.4414,0 -2.48437,-0.5625 -1.03125,-0.57422 -1.71094,-1.7461 z m 7.33594,-4.58203 q 0,-2.3789 -0.98438,-3.72656 -0.97265,-1.35938 -2.68359,-1.35938 -1.71094,0 -2.69531,1.35938 -0.97266,1.34766 -0.97266,3.72656 0,2.37891 0.97266,3.73828 0.98437,1.34766 2.69531,1.34766 1.71094,0 2.68359,-1.34766 0.98438,-1.35937 0.98438,-3.73828 z"
         style="font-size:24px;stroke-width:3.77952766;stroke-miterlimit:4;stroke-dasharray:none"
         id="path10444"
         inkscape:connector-curvature="0" />
      <path
         d="m -679.08594,764.16016 v -7.94532 h 2.15625 v 7.86328 q 0,1.86329 0.72657,2.80079 0.72656,0.92578 2.17968,0.92578 1.7461,0 2.75391,-1.11328 1.01953,-1.11329 1.01953,-3.03516 v -7.44141 h 2.15625 v 13.125 H -670.25 v -2.01562 q -0.78516,1.19531 -1.82812,1.78125 -1.03125,0.57422 -2.40235,0.57422 -2.26172,0 -3.43359,-1.40625 -1.17188,-1.40625 -1.17188,-4.11328 z m 5.42578,-8.26172 z"
         style="font-size:24px;stroke-width:3.77952766;stroke-miterlimit:4;stroke-dasharray:none"
         id="path10446"
         inkscape:connector-curvature="0" />
      <path
         d="m -653.41016,758.73437 q 0.8086,-1.45312 1.9336,-2.14453 1.125,-0.6914 2.64844,-0.6914 2.05078,0 3.16406,1.4414 1.11328,1.42969 1.11328,4.07813 v 7.92187 h -2.16797 v -7.85156 q 0,-1.88672 -0.66797,-2.80078 -0.66797,-0.91406 -2.03906,-0.91406 -1.67578,0 -2.64844,1.11328 -0.97265,1.11328 -0.97265,3.03515 v 7.41797 h -2.16797 v -7.85156 q 0,-1.89844 -0.66797,-2.80078 -0.66797,-0.91406 -2.0625,-0.91406 -1.65235,0 -2.625,1.125 -0.97266,1.11328 -0.97266,3.02343 v 7.41797 h -2.16797 v -13.125 h 2.16797 v 2.03907 q 0.73828,-1.20704 1.76953,-1.78125 1.03125,-0.57422 2.44922,-0.57422 1.42969,0 2.42578,0.72656 1.00782,0.72656 1.48828,2.10937 z"
         style="font-size:24px;stroke-width:3.77952766;stroke-miterlimit:4;stroke-dasharray:none"
         id="path10448"
         inkscape:connector-curvature="0" />
      <path
         d="m -638.15234,767.37109 v 6.96094 h -2.16797 v -18.11719 h 2.16797 v 1.99219 q 0.67968,-1.17187 1.71093,-1.73437 1.04297,-0.57422 2.48438,-0.57422 2.39062,0 3.87891,1.89843 1.5,1.89844 1.5,4.99219 0,3.09375 -1.5,4.99219 -1.48829,1.89844 -3.87891,1.89844 -1.44141,0 -2.48438,-0.5625 -1.03125,-0.57422 -1.71093,-1.7461 z m 7.33593,-4.58203 q 0,-2.3789 -0.98437,-3.72656 -0.97266,-1.35938 -2.68359,-1.35938 -1.71094,0 -2.69532,1.35938 -0.97265,1.34766 -0.97265,3.72656 0,2.37891 0.97265,3.73828 0.98438,1.34766 2.69532,1.34766 1.71093,0 2.68359,-1.34766 0.98437,-1.35937 0.98437,-3.73828 z"
         style="font-size:24px;stroke-width:3.77952766;stroke-miterlimit:4;stroke-dasharray:none"
         id="path10450"
         inkscape:connector-curvature="0" />
      <path
         d="m -615.45573,755.1862 v 2.26562 q -1.01562,-0.52083 -2.10937,-0.78125 -1.09375,-0.26041 -2.26563,-0.26041 -1.78385,0 -2.68229,0.54687 -0.88542,0.54688 -0.88542,1.64063 0,0.83333 0.63802,1.3151 0.63802,0.46875 2.56511,0.89844 l 0.82031,0.18229 q 2.55208,0.54687 3.61979,1.54948 1.08073,0.98958 1.08073,2.77344 0,2.03125 -1.61458,3.21614 -1.60156,1.1849 -4.41406,1.1849 -1.17188,0 -2.44792,-0.23438 -1.26302,-0.22135 -2.66927,-0.67708 v -2.47396 q 1.32812,0.69011 2.61719,1.04167 1.28906,0.33854 2.55208,0.33854 1.69271,0 2.60417,-0.57292 0.91145,-0.58593 0.91145,-1.64062 0,-0.97656 -0.66406,-1.4974 -0.65104,-0.52083 -2.8776,-1.0026 l -0.83334,-0.19531 q -2.22656,-0.46875 -3.21614,-1.4323 -0.98959,-0.97656 -0.98959,-2.66927 0,-2.05729 1.45834,-3.17708 1.45833,-1.11979 4.14062,-1.11979 1.32813,0 2.5,0.19531 1.17188,0.19531 2.16146,0.58594 z"
         style="font-size:26.66666794px;stroke-width:3.77952766;stroke-miterlimit:4;stroke-dasharray:none"
         id="path10452"
         inkscape:connector-curvature="0" />
    </g>
    <path
       d="m 299.36355,296.75115 h 84.50229 v -149.5023 h -84.50229 v 6.87615 m 75.71415,2.89792 0.0799,-0.37704 0.15638,-0.35214 0.22607,-0.31186 0.28572,-0.25793 0.33294,-0.19273 0.36574,-0.11914 0.38235,-0.0403 0.38235,0.0403 0.36574,0.11914 0.33294,0.19273 0.28572,0.25793 0.22597,0.31186 0.15638,0.35214 0.08,0.37704 v 0.38551 l -0.08,0.37704 -0.15638,0.35213 -0.22597,0.31186 -0.28572,0.25795 -0.33294,0.19266 -0.36574,0.11921 -0.38235,0.0403 -0.38235,-0.0403 -0.36574,-0.11921 -0.33294,-0.19266 -0.28572,-0.25795 -0.22607,-0.31186 -0.15638,-0.35213 -0.0799,-0.37704 z m 0,129.56905 0.0799,-0.37775 0.15638,-0.35182 0.22607,-0.31196 0.28572,-0.25815 0.33294,-0.19236 0.36574,-0.1196 0.38235,-0.0399 0.38235,0.0399 0.36574,0.1196 0.33294,0.19236 0.28572,0.25815 0.22597,0.31196 0.15638,0.35182 0.08,0.37775 v 0.38472 l -0.08,0.37774 -0.15638,0.35183 -0.22597,0.31196 -0.28572,0.25815 -0.33294,0.19236 -0.36574,0.1196 -0.38235,0.0399 -0.38235,-0.0399 -0.36574,-0.1196 -0.33294,-0.19236 -0.28572,-0.25815 -0.22607,-0.31196 -0.15638,-0.35183 -0.0799,-0.37774 z m -53.67834,-30.00511 0.12317,-0.58107 0.24088,-0.54219 0.34815,-0.48041 0.44021,-0.39767 0.51298,-0.29701 0.56328,-0.18339 0.58913,-0.0618 0.58903,0.0618 0.56338,0.18339 0.51298,0.29701 0.44021,0.39767 0.34815,0.48041 0.24088,0.54219 0.12317,0.58107 v 0.59402 l -0.12317,0.58106 -0.24088,0.5422 -0.34815,0.4804 -0.44021,0.39768 -0.51298,0.29701 -0.56338,0.18339 -0.58903,0.0618 -0.58913,-0.0618 -0.56328,-0.18339 -0.51298,-0.29701 -0.44021,-0.39768 -0.34815,-0.4804 -0.24088,-0.5422 -0.12317,-0.58106 z m 0,-79.73446 0.12317,-0.58087 0.24088,-0.54249 0.34815,-0.4804 0.44021,-0.39738 0.51298,-0.29691 0.56328,-0.18349 0.58913,-0.0621 0.58903,0.0621 0.56338,0.18349 0.51298,0.29691 0.44021,0.39738 0.34815,0.4804 0.24088,0.54249 0.12317,0.58087 v 0.59382 l -0.12317,0.58087 -0.24088,0.54249 -0.34815,0.4804 -0.44021,0.39738 -0.51298,0.29691 -0.56338,0.18349 -0.58903,0.0621 -0.58913,-0.0621 -0.56328,-0.18349 -0.51298,-0.29691 -0.44021,-0.39738 -0.34815,-0.4804 -0.24088,-0.54249 -0.12317,-0.58087 z m -16.90589,109.73957 0.0799,-0.37775 0.15639,-0.35182 0.22599,-0.31196 0.28574,-0.25815 0.33297,-0.19236 0.36568,-0.1196 0.3824,-0.0399 0.38237,0.0399 0.36567,0.1196 0.33299,0.19236 0.28573,0.25815 0.226,0.31196 0.15637,0.35182 0.0799,0.37775 v 0.38472 l -0.0799,0.37774 -0.15637,0.35183 -0.226,0.31196 -0.28573,0.25815 -0.33299,0.19236 -0.36567,0.1196 -0.38239,0.0399 -0.38238,-0.0399 -0.36568,-0.1196 -0.33297,-0.19236 -0.28574,-0.25815 -0.22599,-0.31196 -0.15639,-0.35183 -0.0799,-0.37774 z m 0,-129.56905 0.0799,-0.37704 0.15639,-0.35214 0.22599,-0.31186 0.28574,-0.25793 0.33297,-0.19273 0.36568,-0.11914 0.3824,-0.0403 0.38236,0.0403 0.36568,0.11914 0.33299,0.19273 0.28573,0.25793 0.226,0.31186 0.15638,0.35214 0.0799,0.37704 v 0.38551 l -0.0799,0.37704 -0.15637,0.35213 -0.226,0.31186 -0.28573,0.25795 -0.33299,0.19266 -0.36568,0.11921 -0.38238,0.0403 -0.38238,-0.0403 -0.36568,-0.11921 -0.33297,-0.19266 -0.28574,-0.25795 -0.22599,-0.31186 -0.15639,-0.35213 -0.0799,-0.37704 z"
       id="path6740"
       inkscape:connector-curvature="0"
       style="fill:none;stroke:#0000ff;stroke-width:1;stroke-opacity:1;stroke-miterlimit:4;stroke-dasharray:none"
       sodipodi:nodetypes="ccccccccccccccccccccccccccccccccccccccccccccccccccccccccccccccccccccccccccccccccccccccccccccccccccccccccccccccccccccccccccccccccccccccccccccccccccccccccccccccccccccccccccccccccccccccccccccccc" />
    <path
       d="m 384.02219,296.75919 h 84.51839 V 147.24078 h -84.51839 m 10.83475,139.74328 -0.0754,0.37709 -0.14614,0.35217 -0.2113,0.3119 -0.26807,0.25796 -0.31183,0.19275 -0.34161,0.11914 -0.35837,0.0403 -0.35837,-0.0403 -0.34161,-0.11914 -0.31182,-0.19275 -0.26808,-0.25796 -0.21129,-0.3119 -0.14614,-0.35217 -0.0754,-0.37709 v -0.38554 l 0.0754,-0.37709 0.14614,-0.35217 0.21129,-0.31189 0.26808,-0.25797 0.31182,-0.19268 0.34161,-0.11922 0.35837,-0.0403 0.35837,0.0403 0.34161,0.11922 0.31183,0.19268 0.26807,0.25797 0.2113,0.31189 0.14614,0.35217 0.0754,0.37709 z m 0,-129.58301 -0.0754,0.37778 -0.14614,0.35187 -0.2113,0.312 -0.26807,0.25816 -0.31183,0.19239 -0.34161,0.11961 -0.35837,0.0399 -0.35837,-0.0399 -0.34161,-0.11961 -0.31182,-0.19239 -0.26808,-0.25816 -0.21129,-0.312 -0.14614,-0.35187 -0.0754,-0.37778 v -0.38476 l 0.0754,-0.37778 0.14614,-0.35187 0.21129,-0.31199 0.26808,-0.25817 0.31182,-0.19238 0.34161,-0.11962 0.35837,-0.0399 0.35837,0.0399 0.34161,0.11962 0.31183,0.19238 0.26807,0.25817 0.2113,0.31199 0.14614,0.35187 0.0754,0.37778 z m 66.08806,129.58301 -0.0748,0.37709 -0.14651,0.35217 -0.21158,0.3119 -0.26751,0.25796 -0.31174,0.19275 -0.34244,0.11914 -0.358,0.0403 -0.35799,-0.0403 -0.34245,-0.11914 -0.31173,-0.19275 -0.26752,-0.25796 -0.21157,-0.3119 -0.14642,-0.35217 -0.0749,-0.37709 v -0.38554 l 0.0749,-0.37709 0.14642,-0.35217 0.21157,-0.31189 0.26752,-0.25797 0.31173,-0.19268 0.34245,-0.11922 0.35799,-0.0403 0.358,0.0403 0.34244,0.11922 0.31174,0.19268 0.26751,0.25797 0.21158,0.31189 0.14651,0.35217 0.0748,0.37709 z m 0,-129.58301 -0.0748,0.37778 -0.14651,0.35187 -0.21157,0.312 -0.26752,0.25816 -0.31173,0.19239 -0.34245,0.11961 -0.358,0.0399 -0.35799,-0.0399 -0.34244,-0.11961 -0.31174,-0.19239 -0.26751,-0.25816 -0.21158,-0.312 -0.14642,-0.35187 -0.0749,-0.37778 v -0.38476 l 0.0749,-0.37778 0.14642,-0.35187 0.21158,-0.31199 0.26751,-0.25817 0.31174,-0.19238 0.34244,-0.11962 0.35799,-0.0399 0.358,0.0399 0.34245,0.11962 0.31173,0.19238 0.26752,0.25817 0.21157,0.31199 0.14651,0.35187 0.0748,0.37778 z"
       id="path6779"
       inkscape:connector-curvature="0"
       style="fill:none;stroke:#0000ff;stroke-width:1;stroke-opacity:1;stroke-miterlimit:4;stroke-dasharray:none"
       sodipodi:nodetypes="cccccccccccccccccccccccccccccccccccccccccccccccccccccccccccccccccccccccccccccccccccccccccccccccccccccccccccccccccccccccccccccccc" />
    <g
       id="g1764"
       transform="matrix(0.282222,0,0,0.282222,-3.1991906,305.39481)">
      <g
         id="g1722"
         transform="translate(22.500018,22.500018)">
        <polygon
           id="polygon1720"
           points="0,470.3744 0,458.77006 13.110247,458.77006 13.110247,445.65982 0,445.65982 0,434.05548 10.62993,434.05548 10.62993,412.79561 0,412.79561 0,391.53575 10.62993,391.53575 10.62993,370.27589 0,370.27589 0,349.01603 10.62993,349.01603 10.62993,327.75617 0,327.75617 0,306.49631 10.62993,306.49631 10.62993,285.23645 0,285.23645 0,263.97659 10.62993,263.97659 10.62993,242.71673 0,242.71673 0,221.45687 10.62993,221.45687 10.62993,200.19701 0,200.19701 0,178.93716 10.62993,178.93716 10.62993,157.6773 0,157.6773 0,136.41744 10.62993,136.41744 10.62993,115.15758 0,115.15758 0,93.897715 10.62993,93.897715 10.62993,72.637855 0,72.637855 0,61.033515 13.110247,61.033515 13.110247,47.923268 0,47.923268 0,36.318928 10.62993,36.318928 10.62993,0 27.460652,0 27.460652,10.62993 35.698848,10.62993 35.698848,18.070881 31.269711,18.070881 31.269711,26.929156 35.698848,26.929156 35.698848,35.787431 46.683109,35.787431 46.683109,26.929156 51.112247,26.929156 51.112247,18.070881 46.683109,18.070881 46.683109,10.62993 54.921305,10.62993 54.921305,0 76.181165,0 76.181165,10.62993 97.441025,10.62993 97.441025,0 118.70088,0 118.70088,10.62993 139.96075,10.62993 139.96075,0 161.22061,0 161.22061,10.62993 182.48046,10.62993 182.48046,0 203.74032,0 203.74032,10.62993 225.00018,10.62993 225.00018,0 246.26004,0 246.26004,10.62993 254.49824,10.62993 254.49824,18.070881 250.0691,18.070881 250.0691,26.929156 254.49824,26.929156 254.49824,35.787431 265.4825,35.787431 265.4825,26.929156 269.91164,26.929156 269.91164,18.070881 265.4825,18.070881 265.4825,10.62993 273.7207,10.62993 273.7207,0 290.55142,0 290.55142,36.318928 301.18135,36.318928 301.18135,47.923268 288.0711,47.923268 288.0711,61.033515 301.18135,61.033515 301.18135,72.637855 290.55142,72.637855 290.55142,93.897715 301.18135,93.897715 301.18135,115.15758 290.55142,115.15758 290.55142,136.41744 301.18135,136.41744 301.18135,157.6773 290.55142,157.6773 290.55142,178.93716 301.18135,178.93716 301.18135,200.19701 290.55142,200.19701 290.55142,221.45687 301.18135,221.45687 301.18135,242.71673 290.55142,242.71673 290.55142,263.97659 301.18135,263.97659 301.18135,285.23645 290.55142,285.23645 290.55142,306.49631 301.18135,306.49631 301.18135,327.75617 290.55142,327.75617 290.55142,349.01603 301.18135,349.01603 301.18135,370.27589 290.55142,370.27589 290.55142,391.53575 301.18135,391.53575 301.18135,412.79561 290.55142,412.79561 290.55142,434.05548 301.18135,434.05548 301.18135,445.65982 288.0711,445.65982 288.0711,458.77006 301.18135,458.77006 301.18135,470.3744 290.55142,470.3744 290.55142,506.69333 273.7207,506.69333 273.7207,496.0634 265.4825,496.0634 265.4825,488.62245 269.91164,488.62245 269.91164,479.76417 265.4825,479.76417 265.4825,470.9059 254.49824,470.9059 254.49824,479.76417 250.0691,479.76417 250.0691,488.62245 254.49824,488.62245 254.49824,496.0634 246.26004,496.0634 246.26004,506.69333 225.00018,506.69333 225.00018,496.0634 203.74032,496.0634 203.74032,506.69333 182.48046,506.69333 182.48046,496.0634 161.22061,496.0634 161.22061,506.69333 139.96075,506.69333 139.96075,496.0634 118.70088,496.0634 118.70088,506.69333 97.441025,506.69333 97.441025,496.0634 76.181165,496.0634 76.181165,506.69333 54.921305,506.69333 54.921305,496.0634 46.683109,496.0634 46.683109,488.62245 51.112247,488.62245 51.112247,479.76417 46.683109,479.76417 46.683109,470.9059 35.698848,470.9059 35.698848,479.76417 31.269711,479.76417 31.269711,488.62245 35.698848,488.62245 35.698848,496.0634 27.460652,496.0634 27.460652,506.69333 10.62993,506.69333 10.62993,470.3744 "
           style="fill:none;stroke:#000000;stroke-width:0.90000075" />
      </g>
      <g
         id="g1726"
         transform="translate(323.68137,22.500018)">
        <polygon
           id="polygon1724"
           points="0,470.3744 0,458.77006 13.110247,458.77006 13.110247,445.65982 0,445.65982 0,434.05548 10.62993,434.05548 10.62993,412.79561 0,412.79561 0,391.53575 10.62993,391.53575 10.62993,370.27589 0,370.27589 0,349.01603 10.62993,349.01603 10.62993,327.75617 0,327.75617 0,306.49631 10.62993,306.49631 10.62993,285.23645 0,285.23645 0,263.97659 10.62993,263.97659 10.62993,242.71673 0,242.71673 0,221.45687 10.62993,221.45687 10.62993,200.19701 0,200.19701 0,178.93716 10.62993,178.93716 10.62993,157.6773 0,157.6773 0,136.41744 10.62993,136.41744 10.62993,115.15758 0,115.15758 0,93.897715 10.62993,93.897715 10.62993,72.637855 0,72.637855 0,61.033515 13.110247,61.033515 13.110247,47.923268 0,47.923268 0,36.318928 10.62993,36.318928 10.62993,0 27.460652,0 27.460652,10.62993 35.698848,10.62993 35.698848,18.070881 31.269711,18.070881 31.269711,26.929156 35.698848,26.929156 35.698848,35.787431 46.683109,35.787431 46.683109,26.929156 51.112247,26.929156 51.112247,18.070881 46.683109,18.070881 46.683109,10.62993 54.921305,10.62993 54.921305,0 76.181165,0 76.181165,10.62993 97.441025,10.62993 97.441025,0 118.70088,0 118.70088,10.62993 139.96075,10.62993 139.96075,0 161.22061,0 161.22061,10.62993 182.48046,10.62993 182.48046,0 203.74032,0 203.74032,10.62993 225.00018,10.62993 225.00018,0 246.26004,0 246.26004,10.62993 254.49824,10.62993 254.49824,18.070881 250.0691,18.070881 250.0691,26.929156 254.49824,26.929156 254.49824,35.787431 265.4825,35.787431 265.4825,26.929156 269.91164,26.929156 269.91164,18.070881 265.4825,18.070881 265.4825,10.62993 273.7207,10.62993 273.7207,0 290.55142,0 290.55142,36.318928 301.18135,36.318928 301.18135,47.923268 288.0711,47.923268 288.0711,61.033515 301.18135,61.033515 301.18135,72.637855 290.55142,72.637855 290.55142,93.897715 301.18135,93.897715 301.18135,115.15758 290.55142,115.15758 290.55142,136.41744 301.18135,136.41744 301.18135,157.6773 290.55142,157.6773 290.55142,178.93716 301.18135,178.93716 301.18135,200.19701 290.55142,200.19701 290.55142,221.45687 301.18135,221.45687 301.18135,242.71673 290.55142,242.71673 290.55142,263.97659 301.18135,263.97659 301.18135,285.23645 290.55142,285.23645 290.55142,306.49631 301.18135,306.49631 301.18135,327.75617 290.55142,327.75617 290.55142,349.01603 301.18135,349.01603 301.18135,370.27589 290.55142,370.27589 290.55142,391.53575 301.18135,391.53575 301.18135,412.79561 290.55142,412.79561 290.55142,434.05548 301.18135,434.05548 301.18135,445.65982 288.0711,445.65982 288.0711,458.77006 301.18135,458.77006 301.18135,470.3744 290.55142,470.3744 290.55142,506.69333 273.7207,506.69333 273.7207,496.0634 265.4825,496.0634 265.4825,488.62245 269.91164,488.62245 269.91164,479.76417 265.4825,479.76417 265.4825,470.9059 254.49824,470.9059 254.49824,479.76417 250.0691,479.76417 250.0691,488.62245 254.49824,488.62245 254.49824,496.0634 246.26004,496.0634 246.26004,506.69333 225.00018,506.69333 225.00018,496.0634 203.74032,496.0634 203.74032,506.69333 182.48046,506.69333 182.48046,496.0634 161.22061,496.0634 161.22061,506.69333 139.96075,506.69333 139.96075,496.0634 118.70088,496.0634 118.70088,506.69333 97.441025,506.69333 97.441025,496.0634 76.181165,496.0634 76.181165,506.69333 54.921305,506.69333 54.921305,496.0634 46.683109,496.0634 46.683109,488.62245 51.112247,488.62245 51.112247,479.76417 46.683109,479.76417 46.683109,470.9059 35.698848,470.9059 35.698848,479.76417 31.269711,479.76417 31.269711,488.62245 35.698848,488.62245 35.698848,496.0634 27.460652,496.0634 27.460652,506.69333 10.62993,506.69333 10.62993,470.3744 "
           style="fill:none;stroke:#000000;stroke-width:0.90000075" />
      </g>
      <g
         id="g1730"
         transform="translate(624.86272,22.500018)">
        <polygon
           id="polygon1728"
           points="212.5986,506.69333 212.5986,496.0634 191.33874,496.0634 191.33874,506.69333 170.07888,506.69333 170.07888,496.0634 148.81902,496.0634 148.81902,506.69333 127.55916,506.69333 127.55916,496.0634 106.2993,496.0634 106.2993,506.69333 85.03944,506.69333 85.03944,496.0634 63.77958,496.0634 63.77958,506.69333 54.389808,506.69333 54.389808,493.58308 41.279561,493.58308 41.279561,506.69333 31.88979,506.69333 31.88979,496.0634 0,496.0634 0,470.3744 10.62993,470.3744 10.62993,457.70707 18.070881,457.70707 18.070881,462.13621 26.929156,462.13621 26.929156,457.70707 35.787431,457.70707 35.787431,446.72281 26.929156,446.72281 26.929156,442.29367 18.070881,442.29367 18.070881,446.72281 10.62993,446.72281 10.62993,434.05548 0,434.05548 0,412.79561 10.62993,412.79561 10.62993,391.53575 0,391.53575 0,370.27589 10.62993,370.27589 10.62993,349.01603 0,349.01603 0,327.75617 10.62993,327.75617 10.62993,306.49631 0,306.49631 0,285.23645 10.62993,285.23645 10.62993,263.97659 0,263.97659 0,242.71673 10.62993,242.71673 10.62993,221.45687 0,221.45687 0,200.19701 10.62993,200.19701 10.62993,178.93716 0,178.93716 0,157.6773 10.62993,157.6773 10.62993,136.41744 0,136.41744 0,115.15758 10.62993,115.15758 10.62993,93.897715 0,93.897715 0,72.637855 10.62993,72.637855 10.62993,59.970522 18.070881,59.970522 18.070881,64.399659 26.929156,64.399659 26.929156,59.970522 35.787431,59.970522 35.787431,48.986261 26.929156,48.986261 26.929156,44.557123 18.070881,44.557123 18.070881,48.986261 10.62993,48.986261 10.62993,36.318928 0,36.318928 0,10.62993 31.88979,10.62993 31.88979,0 41.279561,0 41.279561,13.110247 54.389808,13.110247 54.389808,0 63.77958,0 63.77958,10.62993 85.03944,10.62993 85.03944,0 106.2993,0 106.2993,10.62993 127.55916,10.62993 127.55916,0 148.81902,0 148.81902,10.62993 170.07888,10.62993 170.07888,0 191.33874,0 191.33874,10.62993 212.5986,10.62993 212.5986,0 233.85846,0 233.85846,10.62993 255.11832,10.62993 255.11832,0 276.37818,0 276.37818,10.62993 297.63804,10.62993 297.63804,0 318.8979,0 318.8979,10.62993 340.15776,10.62993 340.15776,0 361.41762,0 361.41762,10.62993 382.67748,10.62993 382.67748,0 403.93734,0 403.93734,10.62993 425.1972,10.62993 425.1972,0 446.45706,0 446.45706,10.62993 467.71692,10.62993 467.71692,0 477.10669,0 477.10669,13.110247 490.21694,13.110247 490.21694,0 499.60671,0 499.60671,10.62993 531.4965,10.62993 531.4965,36.318928 520.86657,36.318928 520.86657,48.986261 513.42562,48.986261 513.42562,44.557123 504.56734,44.557123 504.56734,48.986261 495.70907,48.986261 495.70907,59.970522 504.56734,59.970522 504.56734,64.399659 513.42562,64.399659 513.42562,59.970522 520.86657,59.970522 520.86657,72.637855 531.4965,72.637855 531.4965,93.897715 520.86657,93.897715 520.86657,115.15758 531.4965,115.15758 531.4965,136.41744 520.86657,136.41744 520.86657,157.6773 531.4965,157.6773 531.4965,178.93716 520.86657,178.93716 520.86657,200.19701 531.4965,200.19701 531.4965,221.45687 520.86657,221.45687 520.86657,242.71673 531.4965,242.71673 531.4965,263.97659 520.86657,263.97659 520.86657,285.23645 531.4965,285.23645 531.4965,306.49631 520.86657,306.49631 520.86657,327.75617 531.4965,327.75617 531.4965,349.01603 520.86657,349.01603 520.86657,370.27589 531.4965,370.27589 531.4965,391.53575 520.86657,391.53575 520.86657,412.79561 531.4965,412.79561 531.4965,434.05548 520.86657,434.05548 520.86657,446.72281 513.42562,446.72281 513.42562,442.29367 504.56734,442.29367 504.56734,446.72281 495.70907,446.72281 495.70907,457.70707 504.56734,457.70707 504.56734,462.13621 513.42562,462.13621 513.42562,457.70707 520.86657,457.70707 520.86657,470.3744 531.4965,470.3744 531.4965,496.0634 499.60671,496.0634 499.60671,506.69333 490.21694,506.69333 490.21694,493.58308 477.10669,493.58308 477.10669,506.69333 467.71692,506.69333 467.71692,496.0634 446.45706,496.0634 446.45706,506.69333 425.1972,506.69333 425.1972,496.0634 403.93734,496.0634 403.93734,506.69333 382.67748,506.69333 382.67748,496.0634 361.41762,496.0634 361.41762,506.69333 340.15776,506.69333 340.15776,496.0634 318.8979,496.0634 318.8979,506.69333 297.63804,506.69333 297.63804,496.0634 276.37818,496.0634 276.37818,506.69333 255.11832,506.69333 255.11832,496.0634 233.85846,496.0634 233.85846,506.69333 "
           style="fill:none;stroke:#000000;stroke-width:0.90000075" />
      </g>
      <g
         id="g1734"
         transform="translate(624.86272,529.19335)">
        <polygon
           id="polygon1732"
           points="212.5986,506.69333 212.5986,496.0634 191.33874,496.0634 191.33874,506.69333 170.07888,506.69333 170.07888,496.0634 148.81902,496.0634 148.81902,506.69333 127.55916,506.69333 127.55916,496.0634 106.2993,496.0634 106.2993,506.69333 85.03944,506.69333 85.03944,496.0634 63.77958,496.0634 63.77958,506.69333 54.389808,506.69333 54.389808,493.58308 41.279561,493.58308 41.279561,506.69333 31.88979,506.69333 31.88979,496.0634 0,496.0634 0,470.3744 10.62993,470.3744 10.62993,457.70707 18.070881,457.70707 18.070881,462.13621 26.929156,462.13621 26.929156,457.70707 35.787431,457.70707 35.787431,446.72281 26.929156,446.72281 26.929156,442.29367 18.070881,442.29367 18.070881,446.72281 10.62993,446.72281 10.62993,434.05548 0,434.05548 0,412.79561 10.62993,412.79561 10.62993,391.53575 0,391.53575 0,370.27589 10.62993,370.27589 10.62993,349.01603 0,349.01603 0,327.75617 10.62993,327.75617 10.62993,306.49631 0,306.49631 0,285.23645 10.62993,285.23645 10.62993,263.97659 0,263.97659 0,242.71673 10.62993,242.71673 10.62993,221.45687 0,221.45687 0,200.19701 10.62993,200.19701 10.62993,178.93716 0,178.93716 0,157.6773 10.62993,157.6773 10.62993,136.41744 0,136.41744 0,115.15758 10.62993,115.15758 10.62993,93.897715 0,93.897715 0,72.637855 10.62993,72.637855 10.62993,59.970522 18.070881,59.970522 18.070881,64.399659 26.929156,64.399659 26.929156,59.970522 35.787431,59.970522 35.787431,48.986261 26.929156,48.986261 26.929156,44.557123 18.070881,44.557123 18.070881,48.986261 10.62993,48.986261 10.62993,36.318928 0,36.318928 0,10.62993 31.88979,10.62993 31.88979,0 41.279561,0 41.279561,13.110247 54.389808,13.110247 54.389808,0 63.77958,0 63.77958,10.62993 85.03944,10.62993 85.03944,0 106.2993,0 106.2993,10.62993 127.55916,10.62993 127.55916,0 148.81902,0 148.81902,10.62993 170.07888,10.62993 170.07888,0 191.33874,0 191.33874,10.62993 212.5986,10.62993 212.5986,0 233.85846,0 233.85846,10.62993 255.11832,10.62993 255.11832,0 276.37818,0 276.37818,10.62993 297.63804,10.62993 297.63804,0 318.8979,0 318.8979,10.62993 340.15776,10.62993 340.15776,0 361.41762,0 361.41762,10.62993 382.67748,10.62993 382.67748,0 403.93734,0 403.93734,10.62993 425.1972,10.62993 425.1972,0 446.45706,0 446.45706,10.62993 467.71692,10.62993 467.71692,0 477.10669,0 477.10669,13.110247 490.21694,13.110247 490.21694,0 499.60671,0 499.60671,10.62993 531.4965,10.62993 531.4965,36.318928 520.86657,36.318928 520.86657,48.986261 513.42562,48.986261 513.42562,44.557123 504.56734,44.557123 504.56734,48.986261 495.70907,48.986261 495.70907,59.970522 504.56734,59.970522 504.56734,64.399659 513.42562,64.399659 513.42562,59.970522 520.86657,59.970522 520.86657,72.637855 531.4965,72.637855 531.4965,93.897715 520.86657,93.897715 520.86657,115.15758 531.4965,115.15758 531.4965,136.41744 520.86657,136.41744 520.86657,157.6773 531.4965,157.6773 531.4965,178.93716 520.86657,178.93716 520.86657,200.19701 531.4965,200.19701 531.4965,221.45687 520.86657,221.45687 520.86657,242.71673 531.4965,242.71673 531.4965,263.97659 520.86657,263.97659 520.86657,285.23645 531.4965,285.23645 531.4965,306.49631 520.86657,306.49631 520.86657,327.75617 531.4965,327.75617 531.4965,349.01603 520.86657,349.01603 520.86657,370.27589 531.4965,370.27589 531.4965,391.53575 520.86657,391.53575 520.86657,412.79561 531.4965,412.79561 531.4965,434.05548 520.86657,434.05548 520.86657,446.72281 513.42562,446.72281 513.42562,442.29367 504.56734,442.29367 504.56734,446.72281 495.70907,446.72281 495.70907,457.70707 504.56734,457.70707 504.56734,462.13621 513.42562,462.13621 513.42562,457.70707 520.86657,457.70707 520.86657,470.3744 531.4965,470.3744 531.4965,496.0634 499.60671,496.0634 499.60671,506.69333 490.21694,506.69333 490.21694,493.58308 477.10669,493.58308 477.10669,506.69333 467.71692,506.69333 467.71692,496.0634 446.45706,496.0634 446.45706,506.69333 425.1972,506.69333 425.1972,496.0634 403.93734,496.0634 403.93734,506.69333 382.67748,506.69333 382.67748,496.0634 361.41762,496.0634 361.41762,506.69333 340.15776,506.69333 340.15776,496.0634 318.8979,496.0634 318.8979,506.69333 297.63804,506.69333 297.63804,496.0634 276.37818,496.0634 276.37818,506.69333 255.11832,506.69333 255.11832,496.0634 233.85846,496.0634 233.85846,506.69333 "
           style="fill:none;stroke:#000000;stroke-width:0.90000075" />
      </g>
      <g
         id="g1738"
         transform="translate(22.500018,529.19335)">
        <polygon
           id="polygon1736"
           points="10.62993,478.16968 10.62993,467.71692 0,467.71692 0,446.45706 10.62993,446.45706 10.62993,425.1972 0,425.1972 0,403.93734 10.62993,403.93734 10.62993,382.67748 0,382.67748 0,361.41762 10.62993,361.41762 10.62993,340.15776 0,340.15776 0,318.8979 10.62993,318.8979 10.62993,297.63804 0,297.63804 0,276.37818 10.62993,276.37818 10.62993,255.11832 0,255.11832 0,233.85846 10.62993,233.85846 10.62993,212.5986 0,212.5986 0,191.33874 10.62993,191.33874 10.62993,170.07888 0,170.07888 0,148.81902 10.62993,148.81902 10.62993,127.55916 0,127.55916 0,106.2993 10.62993,106.2993 10.62993,85.03944 0,85.03944 0,63.77958 10.62993,63.77958 10.62993,53.326815 18.070881,53.326815 18.070881,57.755953 26.929156,57.755953 26.929156,53.326815 35.787431,53.326815 35.787431,42.342554 26.929156,42.342554 26.929156,37.913417 18.070881,37.913417 18.070881,42.342554 10.62993,42.342554 10.62993,31.88979 0,31.88979 0,10.62993 27.460652,10.62993 27.460652,0 34.635855,0 34.635855,13.110247 47.746102,13.110247 47.746102,0 54.921305,0 54.921305,10.62993 76.181165,10.62993 76.181165,0 97.441025,0 97.441025,10.62993 118.70088,10.62993 118.70088,0 139.96075,0 139.96075,10.62993 161.22061,10.62993 161.22061,0 182.48046,0 182.48046,10.62993 203.74032,10.62993 203.74032,0 225.00018,0 225.00018,10.62993 246.26004,10.62993 246.26004,0 253.43525,0 253.43525,13.110247 266.54549,13.110247 266.54549,0 273.7207,0 273.7207,10.62993 301.18135,10.62993 301.18135,31.88979 290.55142,31.88979 290.55142,42.342554 283.11047,42.342554 283.11047,37.913417 274.25219,37.913417 274.25219,42.342554 265.39392,42.342554 265.39392,53.326815 274.25219,53.326815 274.25219,57.755953 283.11047,57.755953 283.11047,53.326815 290.55142,53.326815 290.55142,63.77958 301.18135,63.77958 301.18135,85.03944 290.55142,85.03944 290.55142,106.2993 301.18135,106.2993 301.18135,127.55916 290.55142,127.55916 290.55142,148.81902 301.18135,148.81902 301.18135,170.07888 290.55142,170.07888 290.55142,191.33874 301.18135,191.33874 301.18135,212.5986 290.55142,212.5986 290.55142,233.85846 301.18135,233.85846 301.18135,255.11832 290.55142,255.11832 290.55142,276.37818 301.18135,276.37818 301.18135,297.63804 290.55142,297.63804 290.55142,318.8979 301.18135,318.8979 301.18135,340.15776 290.55142,340.15776 290.55142,361.41762 301.18135,361.41762 301.18135,382.67748 290.55142,382.67748 290.55142,403.93734 301.18135,403.93734 301.18135,425.1972 290.55142,425.1972 290.55142,446.45706 301.18135,446.45706 301.18135,467.71692 290.55142,467.71692 290.55142,478.16968 283.11047,478.16968 283.11047,473.74055 274.25219,473.74055 274.25219,478.16968 265.39392,478.16968 265.39392,489.15395 274.25219,489.15395 274.25219,493.58308 283.11047,493.58308 283.11047,489.15395 290.55142,489.15395 290.55142,499.60671 301.18135,499.60671 301.18135,520.86657 273.7207,520.86657 273.7207,531.4965 266.54549,531.4965 266.54549,518.38625 253.43525,518.38625 253.43525,531.4965 246.26004,531.4965 246.26004,520.86657 225.00018,520.86657 225.00018,531.4965 203.74032,531.4965 203.74032,520.86657 182.48046,520.86657 182.48046,531.4965 161.22061,531.4965 161.22061,520.86657 139.96075,520.86657 139.96075,531.4965 118.70088,531.4965 118.70088,520.86657 97.441025,520.86657 97.441025,531.4965 76.181165,531.4965 76.181165,520.86657 54.921305,520.86657 54.921305,531.4965 47.746102,531.4965 47.746102,518.38625 34.635855,518.38625 34.635855,531.4965 27.460652,531.4965 27.460652,520.86657 0,520.86657 0,499.60671 10.62993,499.60671 10.62993,489.15395 18.070881,489.15395 18.070881,493.58308 26.929156,493.58308 26.929156,489.15395 35.787431,489.15395 35.787431,478.16968 26.929156,478.16968 26.929156,473.74055 18.070881,473.74055 18.070881,478.16968 "
           style="fill:none;stroke:#000000;stroke-width:0.90000075" />
      </g>
      <g
         id="g1742"
         transform="translate(323.68137,529.19335)">
        <polygon
           id="polygon1740"
           points="10.62993,478.16968 10.62993,467.71692 0,467.71692 0,446.45706 10.62993,446.45706 10.62993,425.1972 0,425.1972 0,403.93734 10.62993,403.93734 10.62993,382.67748 0,382.67748 0,361.41762 10.62993,361.41762 10.62993,340.15776 0,340.15776 0,318.8979 10.62993,318.8979 10.62993,297.63804 0,297.63804 0,276.37818 10.62993,276.37818 10.62993,255.11832 0,255.11832 0,233.85846 10.62993,233.85846 10.62993,212.5986 0,212.5986 0,191.33874 10.62993,191.33874 10.62993,170.07888 0,170.07888 0,148.81902 10.62993,148.81902 10.62993,127.55916 0,127.55916 0,106.2993 10.62993,106.2993 10.62993,85.03944 0,85.03944 0,63.77958 10.62993,63.77958 10.62993,53.326815 18.070881,53.326815 18.070881,57.755953 26.929156,57.755953 26.929156,53.326815 35.787431,53.326815 35.787431,42.342554 26.929156,42.342554 26.929156,37.913417 18.070881,37.913417 18.070881,42.342554 10.62993,42.342554 10.62993,31.88979 0,31.88979 0,10.62993 27.460652,10.62993 27.460652,0 34.635855,0 34.635855,13.110247 47.746102,13.110247 47.746102,0 54.921305,0 54.921305,10.62993 76.181165,10.62993 76.181165,0 97.441025,0 97.441025,10.62993 118.70088,10.62993 118.70088,0 139.96075,0 139.96075,10.62993 161.22061,10.62993 161.22061,0 182.48046,0 182.48046,10.62993 203.74032,10.62993 203.74032,0 225.00018,0 225.00018,10.62993 246.26004,10.62993 246.26004,0 253.43525,0 253.43525,13.110247 266.54549,13.110247 266.54549,0 273.7207,0 273.7207,10.62993 301.18135,10.62993 301.18135,31.88979 290.55142,31.88979 290.55142,42.342554 283.11047,42.342554 283.11047,37.913417 274.25219,37.913417 274.25219,42.342554 265.39392,42.342554 265.39392,53.326815 274.25219,53.326815 274.25219,57.755953 283.11047,57.755953 283.11047,53.326815 290.55142,53.326815 290.55142,63.77958 301.18135,63.77958 301.18135,85.03944 290.55142,85.03944 290.55142,106.2993 301.18135,106.2993 301.18135,127.55916 290.55142,127.55916 290.55142,148.81902 301.18135,148.81902 301.18135,170.07888 290.55142,170.07888 290.55142,191.33874 301.18135,191.33874 301.18135,212.5986 290.55142,212.5986 290.55142,233.85846 301.18135,233.85846 301.18135,255.11832 290.55142,255.11832 290.55142,276.37818 301.18135,276.37818 301.18135,297.63804 290.55142,297.63804 290.55142,318.8979 301.18135,318.8979 301.18135,340.15776 290.55142,340.15776 290.55142,361.41762 301.18135,361.41762 301.18135,382.67748 290.55142,382.67748 290.55142,403.93734 301.18135,403.93734 301.18135,425.1972 290.55142,425.1972 290.55142,446.45706 301.18135,446.45706 301.18135,467.71692 290.55142,467.71692 290.55142,478.16968 283.11047,478.16968 283.11047,473.74055 274.25219,473.74055 274.25219,478.16968 265.39392,478.16968 265.39392,489.15395 274.25219,489.15395 274.25219,493.58308 283.11047,493.58308 283.11047,489.15395 290.55142,489.15395 290.55142,499.60671 301.18135,499.60671 301.18135,520.86657 273.7207,520.86657 273.7207,531.4965 266.54549,531.4965 266.54549,518.38625 253.43525,518.38625 253.43525,531.4965 246.26004,531.4965 246.26004,520.86657 225.00018,520.86657 225.00018,531.4965 203.74032,531.4965 203.74032,520.86657 182.48046,520.86657 182.48046,531.4965 161.22061,531.4965 161.22061,520.86657 139.96075,520.86657 139.96075,531.4965 118.70088,531.4965 118.70088,520.86657 97.441025,520.86657 97.441025,531.4965 76.181165,531.4965 76.181165,520.86657 54.921305,520.86657 54.921305,531.4965 47.746102,531.4965 47.746102,518.38625 34.635855,518.38625 34.635855,531.4965 27.460652,531.4965 27.460652,520.86657 0,520.86657 0,499.60671 10.62993,499.60671 10.62993,489.15395 18.070881,489.15395 18.070881,493.58308 26.929156,493.58308 26.929156,489.15395 35.787431,489.15395 35.787431,478.16968 26.929156,478.16968 26.929156,473.74055 18.070881,473.74055 18.070881,478.16968 "
           style="fill:none;stroke:#000000;stroke-width:0.90000075" />
      </g>
    </g>
    <path
       id="path9364-3"
       style="fill:none;stroke:#0000ff;stroke-width:1;stroke-miterlimit:4;stroke-dasharray:none;stroke-opacity:1"
       d="m 105.04043,351.0354 0.13188,-0.41709 0.21554,-0.38058 0.28971,-0.32719 0.35138,-0.25983 0.3976,-0.1807 0.42637,-0.0942 0.43659,-0.004 0.42771,0.088 0.4002,0.17488 0.35514,0.25467 0.29448,0.32291 0.22107,0.37738 0.13797,0.41511 0.0488,0.43475 -0.0424,0.43545 -0.13188,0.41705 -0.21553,0.38057 -0.28972,0.32719 -0.35139,0.25985 -0.3976,0.18071 -0.42637,0.0942 -0.43658,0.004 -0.42771,-0.088 -0.4002,-0.17487 -0.35515,-0.25469 -0.29446,-0.32291 -0.22109,-0.37738 -0.13796,-0.41507 -0.0488,-0.4348 z"
       inkscape:connector-curvature="0" />
    <path
       id="path9366-8"
       style="fill:none;stroke:#0000ff;stroke-width:1;stroke-miterlimit:4;stroke-dasharray:none;stroke-opacity:1"
       d="m 111.35418,344.40047 0.20412,-0.64555 0.33356,-0.58885 0.44842,-0.50645 0.54378,-0.40205 0.61527,-0.27985 0.65992,-0.14569 0.67567,-0.005 0.66197,0.13602 0.61931,0.27082 0.54959,0.39405 0.45577,0.49985 0.34214,0.5839 0.21354,0.64249 0.0755,0.67286 -0.0657,0.6739 -0.20412,0.6455 -0.33356,0.58885 -0.44842,0.50648 -0.54376,0.402 -0.61528,0.27986 -0.65991,0.1457 -0.67566,0.005 -0.66199,-0.13603 -0.61929,-0.27082 -0.54961,-0.39401 -0.45578,-0.49987 -0.34212,-0.58391 -0.21353,-0.64245 -0.0755,-0.67286 z"
       inkscape:connector-curvature="0" />
    <path
       id="path9368-4"
       style="fill:none;stroke:#0000ff;stroke-width:1;stroke-miterlimit:4;stroke-dasharray:none;stroke-opacity:1"
       d="m 121.43052,344.32677 0.20411,-0.64554 0.33356,-0.58884 0.44843,-0.50646 0.54377,-0.40205 0.61526,-0.27986 0.65992,-0.14569 0.67567,-0.005 0.66197,0.13602 0.61931,0.27083 0.54959,0.39405 0.45577,0.49984 0.34216,0.5839 0.21353,0.64249 0.0755,0.67287 -0.0657,0.67389 -0.20412,0.64551 -0.33357,0.58884 -0.44842,0.50648 -0.54376,0.40201 -0.61528,0.27986 -0.65991,0.1457 -0.67567,0.005 -0.66198,-0.13603 -0.61929,-0.27083 -0.54958,-0.39401 -0.4558,-0.49987 -0.34214,-0.5839 -0.21354,-0.64245 -0.0755,-0.67287 z"
       inkscape:connector-curvature="0" />
    <path
       id="path9370-8"
       style="fill:none;stroke:#0000ff;stroke-width:1;stroke-miterlimit:4;stroke-dasharray:none;stroke-opacity:1"
       d="m 129.14933,351.40483 16.90666,-0.12365 0.0328,4.48455 -16.90666,0.12365 z"
       inkscape:connector-curvature="0" />
    <path
       id="path9372-0"
       style="fill:none;stroke:#0000ff;stroke-width:1;stroke-miterlimit:4;stroke-dasharray:none;stroke-opacity:1"
       d="m 134.10652,344.23406 0.20412,-0.64554 0.33355,-0.58884 0.44842,-0.50646 0.54376,-0.40205 0.61528,-0.27986 0.65992,-0.14569 0.67567,-0.005 0.66199,0.13602 0.61929,0.27083 0.5496,0.39405 0.45579,0.49984 0.34213,0.5839 0.21353,0.64249 0.0755,0.67287 -0.0657,0.67389 -0.20411,0.64551 -0.33355,0.58884 -0.44843,0.50649 -0.54378,0.402 -0.61527,0.27986 -0.65992,0.1457 -0.67568,0.005 -0.66197,-0.13603 -0.61932,-0.27083 -0.54958,-0.39401 -0.45577,-0.49987 -0.34213,-0.5839 -0.21354,-0.64244 -0.0755,-0.67288 z"
       inkscape:connector-curvature="0" />
    <path
       id="path9374-3"
       style="fill:none;stroke:#0000ff;stroke-width:1;stroke-miterlimit:4;stroke-dasharray:none;stroke-opacity:1"
       d="m 144.28828,344.15959 0.20409,-0.64554 0.33355,-0.58884 0.44843,-0.50645 0.54379,-0.40205 0.61527,-0.27987 0.65991,-0.14568 0.67568,-0.005 0.66197,0.13601 0.61931,0.27083 0.54961,0.39405 0.45578,0.49984 0.34214,0.5839 0.21354,0.6425 0.0755,0.67286 -0.0657,0.67389 -0.20413,0.64551 -0.33355,0.58885 -0.44843,0.50648 -0.54378,0.40201 -0.61528,0.27985 -0.65992,0.14571 -0.67566,0.005 -0.66198,-0.13604 -0.6193,-0.27083 -0.54962,-0.39401 -0.45578,-0.49987 -0.34213,-0.5839 -0.21352,-0.64244 -0.0755,-0.67288 z"
       inkscape:connector-curvature="0" />
    <path
       id="path9376-0"
       style="fill:none;stroke:#0000ff;stroke-width:1;stroke-miterlimit:4;stroke-dasharray:none;stroke-opacity:1"
       d="m 155.63619,350.5617 0.13186,-0.41705 0.21553,-0.38051 0.28977,-0.32719 0.35132,-0.25984 0.39757,-0.1807 0.4264,-0.0942 0.4366,-0.004 0.42774,0.088 0.40015,0.17486 0.35514,0.25466 0.29453,0.32294 0.22108,0.37728 0.13795,0.4151 0.0487,0.43474 -0.0424,0.43546 -0.13186,0.41703 -0.21553,0.38051 -0.28978,0.32719 -0.35138,0.25985 -0.39755,0.1807 -0.42641,0.0942 -0.43661,0.004 -0.42771,-0.088 -0.40017,-0.17487 -0.3551,-0.25467 -0.29451,-0.32292 -0.22108,-0.37733 -0.13795,-0.41506 -0.0488,-0.43478 z"
       inkscape:connector-curvature="0" />
    <path
       id="path9547-8"
       style="fill:none;stroke:#0000ff;stroke-width:1;stroke-miterlimit:4;stroke-dasharray:none;stroke-opacity:1"
       d="m 256.83538,427.87789 -0.64197,-0.13642 -0.59959,-0.26715 -0.53103,-0.38579 -0.43915,-0.48766 -0.3281,-0.56835 -0.20266,-0.62407 -0.0686,-0.65262 0.0686,-0.65268 0.20266,-0.62407 0.3281,-0.56835 0.43915,-0.48766 0.53103,-0.38573 0.59959,-0.26678 0.64197,-0.13642 h 0.65639 l 0.64197,0.13642 0.5996,0.26678 0.53103,0.38573 0.43915,0.48766 0.3281,0.56835 0.20266,0.62407 0.0686,0.65268 -0.0686,0.65262 -0.20266,0.62407 -0.3281,0.56835 -0.43915,0.48766 -0.53103,0.38579 -0.5996,0.26715 -0.64197,0.13642 z"
       inkscape:connector-curvature="0" />
    <path
       id="path9549-3"
       style="fill:none;stroke:#0000ff;stroke-width:1;stroke-miterlimit:4;stroke-dasharray:none;stroke-opacity:1"
       d="m 192.0516,427.87789 -0.64185,-0.13642 -0.60001,-0.26715 -0.53122,-0.38579 -0.43855,-0.48766 -0.32885,-0.56835 -0.20229,-0.62407 -0.0689,-0.65262 0.0689,-0.65268 0.20229,-0.62407 0.32885,-0.56835 0.43855,-0.48766 0.53122,-0.38573 0.60001,-0.26678 0.64185,-0.13642 h 0.65583 l 0.64185,0.13642 0.60001,0.26678 0.53122,0.38573 0.43855,0.48766 0.32885,0.56835 0.20229,0.62407 0.0689,0.65268 -0.0689,0.65262 -0.20229,0.62407 -0.32885,0.56835 -0.43855,0.48766 -0.53122,0.38579 -0.60001,0.26715 -0.64185,0.13642 z"
       inkscape:connector-curvature="0" />
    <path
       id="path9551-7"
       style="fill:none;stroke:#0000ff;stroke-width:1;stroke-miterlimit:4;stroke-dasharray:none;stroke-opacity:1"
       d="m 281.75232,427.87789 -0.64197,-0.13642 -0.59959,-0.26715 -0.53103,-0.38579 -0.43911,-0.48766 -0.32811,-0.56835 -0.20266,-0.62407 -0.0686,-0.65262 0.0686,-0.65268 0.20266,-0.62407 0.32811,-0.56835 0.43911,-0.48766 0.53103,-0.38573 0.59959,-0.26678 0.64197,-0.13642 h 0.65643 l 0.64193,0.13642 0.59962,0.26678 0.53103,0.38573 0.43912,0.48766 0.3281,0.56835 0.20267,0.62407 0.0686,0.65268 -0.0686,0.65262 -0.20267,0.62407 -0.3281,0.56835 -0.43912,0.48766 -0.53103,0.38579 -0.59962,0.26715 -0.64193,0.13642 z"
       inkscape:connector-curvature="0" />
    <path
       id="path9553-6"
       style="fill:none;stroke:#0000ff;stroke-width:1;stroke-miterlimit:4;stroke-dasharray:none;stroke-opacity:1"
       d="m 301.6859,427.87789 -0.64197,-0.13642 -0.59959,-0.26715 -0.53104,-0.38579 -0.43915,-0.48766 -0.3281,-0.56835 -0.20267,-0.62407 -0.0686,-0.65262 0.0686,-0.65268 0.20267,-0.62407 0.3281,-0.56835 0.43915,-0.48766 0.53104,-0.38573 0.59959,-0.26678 0.64197,-0.13642 h 0.6564 l 0.64195,0.13642 0.59959,0.26678 0.53103,0.38573 0.43917,0.48766 0.32809,0.56835 0.20266,0.62407 0.0686,0.65268 -0.0686,0.65262 -0.20266,0.62407 -0.32809,0.56835 -0.43917,0.48766 -0.53103,0.38579 -0.59959,0.26715 -0.64195,0.13642 z"
       inkscape:connector-curvature="0" />
    <path
       id="path9555-5"
       style="fill:none;stroke:#0000ff;stroke-width:1;stroke-miterlimit:4;stroke-dasharray:none;stroke-opacity:1"
       d="m 236.90181,421.63427 h 0.65643 l 0.64193,0.13639 0.59963,0.26718 0.53103,0.38574 0.43911,0.48765 0.32811,0.56835 0.20266,0.62405 0.0686,0.65268 -0.0686,0.65264 -0.20266,0.62408 -0.32811,0.56835 -0.43911,0.48765 -0.53103,0.38576 -0.59963,0.26715 -0.64193,0.13642 h -0.65643 l -0.64197,-0.13642 -0.59958,-0.26715 -0.53104,-0.38576 -0.43912,-0.48765 -0.3281,-0.56835 -0.20266,-0.62408 -0.0689,-0.65264 0.0689,-0.65268 0.20266,-0.62405 0.3281,-0.56835 0.43912,-0.48765 0.53104,-0.38574 0.59958,-0.26718 z"
       inkscape:connector-curvature="0" />
    <path
       id="path9563-2"
       style="fill:none;stroke:#0000ff;stroke-width:1;stroke-miterlimit:4;stroke-dasharray:none;stroke-opacity:1"
       d="m 214.85259,422.91094 0.32886,0.56835 0.20228,0.6241 0.0689,0.65268 -0.0689,0.65257 -0.20228,0.62409 -0.32886,0.56836 -0.43851,0.48768 -0.53126,0.38576 -0.59996,0.26717 -0.64189,0.1364 h -0.6558 l -0.64185,-0.1364 -0.60001,-0.26717 -0.53125,-0.38576 -0.43851,-0.48768 -0.32886,-0.56836 -0.20229,-0.62409 -0.0689,-0.65257 0.0689,-0.65268 0.20229,-0.6241 0.32886,-0.56835 0.43851,-0.48768 0.53125,-0.38574 0.60001,-0.26715 0.64185,-0.13642 h 0.6558 l 0.64189,0.13642 0.59996,0.26715 0.53126,0.38574 z"
       inkscape:connector-curvature="0" />
    <path
       d="m 27.05,424.49371 0.12317,-0.58107 0.240881,-0.54219 0.34815,-0.48041 0.44021,-0.39767 0.512976,-0.29701 0.56328,-0.18339 0.58913,-0.0618 0.58903,0.0618 0.56338,0.18339 0.51299,0.29701 0.4402,0.39767 0.34815,0.48041 0.240891,0.54219 0.12316,0.58107 v 0.59402 l -0.12316,0.58106 -0.240891,0.5422 -0.34815,0.4804 -0.4402,0.39768 -0.51299,0.29701 -0.56338,0.18339 -0.58903,0.0618 -0.58913,-0.0618 -0.56328,-0.18339 -0.512976,-0.29701 -0.44021,-0.39768 -0.34815,-0.4804 -0.240881,-0.5422 -0.12317,-0.58106 z m 0,-79.7345 0.12317,-0.58087 0.240881,-0.54249 0.34815,-0.4804 0.44021,-0.39738 0.512976,-0.29691 0.56328,-0.18349 0.58913,-0.0621 0.58903,0.0621 0.56338,0.18349 0.51299,0.29691 0.4402,0.39738 0.34815,0.4804 0.240891,0.54249 0.12316,0.58087 v 0.59382 l -0.12316,0.58087 -0.240891,0.54249 -0.34815,0.4804 -0.4402,0.39738 -0.51299,0.29691 -0.56338,0.18349 -0.58903,0.0621 -0.58913,-0.0621 -0.56328,-0.18349 -0.512976,-0.29691 -0.44021,-0.39738 -0.34815,-0.4804 L 27.17317,345.9339 27.05,345.35303 Z"
       id="path6740-6"
       inkscape:connector-curvature="0"
       style="fill:none;stroke:#0000ff;stroke-width:1;stroke-miterlimit:4;stroke-dasharray:none;stroke-opacity:1"
       sodipodi:nodetypes="cccccccccccccccccccccccccccccccccccccccccccccccccccccccccccccc" />
  </g>
</svg>
