  0
SECTION
  2
BLOCKS
  0
ENDSEC
  0
SECTION
  2
ENTITIES
  0
LINE
  8
0
 10
-70.8441
 20
10.2664
 11
-70.6949
 21
10.3148
  0
LINE
  8
0
 10
-70.6949
 20
10.3148
 11
-70.5592
 21
10.3932
  0
LINE
  8
0
 10
-70.5592
 20
10.3932
 11
-70.4426
 21
10.4981
  0
LINE
  8
0
 10
-70.4426
 20
10.4981
 11
-70.3505
 21
10.625
  0
LINE
  8
0
 10
-70.3505
 20
10.625
 11
-70.2867
 21
10.7682
  0
LINE
  8
0
 10
-70.2867
 20
10.7682
 11
-70.2541
 21
10.9216
  0
LINE
  8
0
 10
-70.2541
 20
10.9216
 11
-70.2541
 21
11.0784
  0
LINE
  8
0
 10
-70.2541
 20
11.0784
 11
-70.2867
 21
11.2318
  0
LINE
  8
0
 10
-70.2867
 20
11.2318
 11
-70.3505
 21
11.375
  0
LINE
  8
0
 10
-70.3505
 20
11.375
 11
-70.4426
 21
11.5018
  0
LINE
  8
0
 10
-70.4426
 20
11.5018
 11
-70.5592
 21
11.6068
  0
LINE
  8
0
 10
-70.5592
 20
11.6068
 11
-70.6949
 21
11.6852
  0
LINE
  8
0
 10
-70.6949
 20
11.6852
 11
-70.8441
 21
11.7336
  0
LINE
  8
0
 10
-70.8441
 20
11.7336
 11
-71
 21
11.75
  0
LINE
  8
0
 10
-71
 20
11.75
 11
-71.1559
 21
11.7336
  0
LINE
  8
0
 10
-71.1559
 20
11.7336
 11
-71.3051
 21
11.6852
  0
LINE
  8
0
 10
-71.3051
 20
11.6852
 11
-71.4408
 21
11.6068
  0
LINE
  8
0
 10
-71.4408
 20
11.6068
 11
-71.5574
 21
11.5018
  0
LINE
  8
0
 10
-71.5574
 20
11.5018
 11
-71.6495
 21
11.375
  0
LINE
  8
0
 10
-71.6495
 20
11.375
 11
-71.7133
 21
11.2318
  0
LINE
  8
0
 10
-71.7133
 20
11.2318
 11
-71.7459
 21
11.0784
  0
LINE
  8
0
 10
-71.7459
 20
11.0784
 11
-71.7459
 21
10.9216
  0
LINE
  8
0
 10
-71.7459
 20
10.9216
 11
-71.7133
 21
10.7682
  0
LINE
  8
0
 10
-71.7133
 20
10.7682
 11
-71.6495
 21
10.625
  0
LINE
  8
0
 10
-71.6495
 20
10.625
 11
-71.5574
 21
10.4981
  0
LINE
  8
0
 10
-71.5574
 20
10.4981
 11
-71.4408
 21
10.3932
  0
LINE
  8
0
 10
-71.4408
 20
10.3932
 11
-71.3051
 21
10.3148
  0
LINE
  8
0
 10
-71.3051
 20
10.3148
 11
-71.1559
 21
10.2664
  0
LINE
  8
0
 10
-71.1559
 20
10.2664
 11
-71
 21
10.25
  0
LINE
  8
0
 10
-71
 20
10.25
 11
-70.8441
 21
10.2664
  0
LINE
  8
0
 10
-7.84406
 20
10.2664
 11
-7.69495
 21
10.3148
  0
LINE
  8
0
 10
-7.69495
 20
10.3148
 11
-7.55916
 21
10.3932
  0
LINE
  8
0
 10
-7.55916
 20
10.3932
 11
-7.44264
 21
10.4981
  0
LINE
  8
0
 10
-7.44264
 20
10.4981
 11
-7.35048
 21
10.625
  0
LINE
  8
0
 10
-7.35048
 20
10.625
 11
-7.2867
 21
10.7682
  0
LINE
  8
0
 10
-7.2867
 20
10.7682
 11
-7.2541
 21
10.9216
  0
LINE
  8
0
 10
-7.2541
 20
10.9216
 11
-7.2541
 21
11.0784
  0
LINE
  8
0
 10
-7.2541
 20
11.0784
 11
-7.2867
 21
11.2318
  0
LINE
  8
0
 10
-7.2867
 20
11.2318
 11
-7.35048
 21
11.375
  0
LINE
  8
0
 10
-7.35048
 20
11.375
 11
-7.44264
 21
11.5018
  0
LINE
  8
0
 10
-7.44264
 20
11.5018
 11
-7.55916
 21
11.6068
  0
LINE
  8
0
 10
-7.55916
 20
11.6068
 11
-7.69495
 21
11.6852
  0
LINE
  8
0
 10
-7.69495
 20
11.6852
 11
-7.84406
 21
11.7336
  0
LINE
  8
0
 10
-7.84406
 20
11.7336
 11
-8
 21
11.75
  0
LINE
  8
0
 10
-8
 20
11.75
 11
-8.15593
 21
11.7336
  0
LINE
  8
0
 10
-8.15593
 20
11.7336
 11
-8.30504
 21
11.6852
  0
LINE
  8
0
 10
-8.30504
 20
11.6852
 11
-8.44083
 21
11.6068
  0
LINE
  8
0
 10
-8.44083
 20
11.6068
 11
-8.55736
 21
11.5018
  0
LINE
  8
0
 10
-8.55736
 20
11.5018
 11
-8.64951
 21
11.375
  0
LINE
  8
0
 10
-8.64951
 20
11.375
 11
-8.71329
 21
11.2318
  0
LINE
  8
0
 10
-8.71329
 20
11.2318
 11
-8.74588
 21
11.0784
  0
LINE
  8
0
 10
-8.74588
 20
11.0784
 11
-8.74588
 21
10.9216
  0
LINE
  8
0
 10
-8.74588
 20
10.9216
 11
-8.71329
 21
10.7682
  0
LINE
  8
0
 10
-8.71329
 20
10.7682
 11
-8.64951
 21
10.625
  0
LINE
  8
0
 10
-8.64951
 20
10.625
 11
-8.55736
 21
10.4981
  0
LINE
  8
0
 10
-8.55736
 20
10.4981
 11
-8.44083
 21
10.3932
  0
LINE
  8
0
 10
-8.44083
 20
10.3932
 11
-8.30504
 21
10.3148
  0
LINE
  8
0
 10
-8.30504
 20
10.3148
 11
-8.15593
 21
10.2664
  0
LINE
  8
0
 10
-8.15593
 20
10.2664
 11
-8
 21
10.25
  0
LINE
  8
0
 10
-8
 20
10.25
 11
-7.84406
 21
10.2664
  0
LINE
  8
0
 10
-16.8441
 20
10.2664
 11
-16.6949
 21
10.3148
  0
LINE
  8
0
 10
-16.6949
 20
10.3148
 11
-16.5592
 21
10.3932
  0
LINE
  8
0
 10
-16.5592
 20
10.3932
 11
-16.4426
 21
10.4981
  0
LINE
  8
0
 10
-16.4426
 20
10.4981
 11
-16.3505
 21
10.625
  0
LINE
  8
0
 10
-16.3505
 20
10.625
 11
-16.2867
 21
10.7682
  0
LINE
  8
0
 10
-16.2867
 20
10.7682
 11
-16.2541
 21
10.9216
  0
LINE
  8
0
 10
-16.2541
 20
10.9216
 11
-16.2541
 21
11.0784
  0
LINE
  8
0
 10
-16.2541
 20
11.0784
 11
-16.2867
 21
11.2318
  0
LINE
  8
0
 10
-16.2867
 20
11.2318
 11
-16.3505
 21
11.375
  0
LINE
  8
0
 10
-16.3505
 20
11.375
 11
-16.4426
 21
11.5018
  0
LINE
  8
0
 10
-16.4426
 20
11.5018
 11
-16.5592
 21
11.6068
  0
LINE
  8
0
 10
-16.5592
 20
11.6068
 11
-16.6949
 21
11.6852
  0
LINE
  8
0
 10
-16.6949
 20
11.6852
 11
-16.8441
 21
11.7336
  0
LINE
  8
0
 10
-16.8441
 20
11.7336
 11
-17
 21
11.75
  0
LINE
  8
0
 10
-17
 20
11.75
 11
-17.1559
 21
11.7336
  0
LINE
  8
0
 10
-17.1559
 20
11.7336
 11
-17.305
 21
11.6852
  0
LINE
  8
0
 10
-17.305
 20
11.6852
 11
-17.4408
 21
11.6068
  0
LINE
  8
0
 10
-17.4408
 20
11.6068
 11
-17.5574
 21
11.5018
  0
LINE
  8
0
 10
-17.5574
 20
11.5018
 11
-17.6495
 21
11.375
  0
LINE
  8
0
 10
-17.6495
 20
11.375
 11
-17.7133
 21
11.2318
  0
LINE
  8
0
 10
-17.7133
 20
11.2318
 11
-17.7459
 21
11.0784
  0
LINE
  8
0
 10
-17.7459
 20
11.0784
 11
-17.7459
 21
10.9216
  0
LINE
  8
0
 10
-17.7459
 20
10.9216
 11
-17.7133
 21
10.7682
  0
LINE
  8
0
 10
-17.7133
 20
10.7682
 11
-17.6495
 21
10.625
  0
LINE
  8
0
 10
-17.6495
 20
10.625
 11
-17.5574
 21
10.4981
  0
LINE
  8
0
 10
-17.5574
 20
10.4981
 11
-17.4408
 21
10.3932
  0
LINE
  8
0
 10
-17.4408
 20
10.3932
 11
-17.305
 21
10.3148
  0
LINE
  8
0
 10
-17.305
 20
10.3148
 11
-17.1559
 21
10.2664
  0
LINE
  8
0
 10
-17.1559
 20
10.2664
 11
-17
 21
10.25
  0
LINE
  8
0
 10
-17
 20
10.25
 11
-16.8441
 21
10.2664
  0
LINE
  8
0
 10
-61.8441
 20
10.2664
 11
-61.6949
 21
10.3148
  0
LINE
  8
0
 10
-61.6949
 20
10.3148
 11
-61.5592
 21
10.3932
  0
LINE
  8
0
 10
-61.5592
 20
10.3932
 11
-61.4426
 21
10.4981
  0
LINE
  8
0
 10
-61.4426
 20
10.4981
 11
-61.3505
 21
10.625
  0
LINE
  8
0
 10
-61.3505
 20
10.625
 11
-61.2867
 21
10.7682
  0
LINE
  8
0
 10
-61.2867
 20
10.7682
 11
-61.2541
 21
10.9216
  0
LINE
  8
0
 10
-61.2541
 20
10.9216
 11
-61.2541
 21
11.0784
  0
LINE
  8
0
 10
-61.2541
 20
11.0784
 11
-61.2867
 21
11.2318
  0
LINE
  8
0
 10
-61.2867
 20
11.2318
 11
-61.3505
 21
11.375
  0
LINE
  8
0
 10
-61.3505
 20
11.375
 11
-61.4426
 21
11.5018
  0
LINE
  8
0
 10
-61.4426
 20
11.5018
 11
-61.5592
 21
11.6068
  0
LINE
  8
0
 10
-61.5592
 20
11.6068
 11
-61.6949
 21
11.6852
  0
LINE
  8
0
 10
-61.6949
 20
11.6852
 11
-61.8441
 21
11.7336
  0
LINE
  8
0
 10
-61.8441
 20
11.7336
 11
-62
 21
11.75
  0
LINE
  8
0
 10
-62
 20
11.75
 11
-62.1559
 21
11.7336
  0
LINE
  8
0
 10
-62.1559
 20
11.7336
 11
-62.3051
 21
11.6852
  0
LINE
  8
0
 10
-62.3051
 20
11.6852
 11
-62.4408
 21
11.6068
  0
LINE
  8
0
 10
-62.4408
 20
11.6068
 11
-62.5574
 21
11.5018
  0
LINE
  8
0
 10
-62.5574
 20
11.5018
 11
-62.6495
 21
11.375
  0
LINE
  8
0
 10
-62.6495
 20
11.375
 11
-62.7133
 21
11.2318
  0
LINE
  8
0
 10
-62.7133
 20
11.2318
 11
-62.7459
 21
11.0784
  0
LINE
  8
0
 10
-62.7459
 20
11.0784
 11
-62.7459
 21
10.9216
  0
LINE
  8
0
 10
-62.7459
 20
10.9216
 11
-62.7133
 21
10.7682
  0
LINE
  8
0
 10
-62.7133
 20
10.7682
 11
-62.6495
 21
10.625
  0
LINE
  8
0
 10
-62.6495
 20
10.625
 11
-62.5574
 21
10.4981
  0
LINE
  8
0
 10
-62.5574
 20
10.4981
 11
-62.4408
 21
10.3932
  0
LINE
  8
0
 10
-62.4408
 20
10.3932
 11
-62.3051
 21
10.3148
  0
LINE
  8
0
 10
-62.3051
 20
10.3148
 11
-62.1559
 21
10.2664
  0
LINE
  8
0
 10
-62.1559
 20
10.2664
 11
-62
 21
10.25
  0
LINE
  8
0
 10
-62
 20
10.25
 11
-61.8441
 21
10.2664
  0
LINE
  8
0
 10
-43.8441
 20
10.2664
 11
-43.6949
 21
10.3148
  0
LINE
  8
0
 10
-43.6949
 20
10.3148
 11
-43.5592
 21
10.3932
  0
LINE
  8
0
 10
-43.5592
 20
10.3932
 11
-43.4426
 21
10.4981
  0
LINE
  8
0
 10
-43.4426
 20
10.4981
 11
-43.3505
 21
10.625
  0
LINE
  8
0
 10
-43.3505
 20
10.625
 11
-43.2867
 21
10.7682
  0
LINE
  8
0
 10
-43.2867
 20
10.7682
 11
-43.2541
 21
10.9216
  0
LINE
  8
0
 10
-43.2541
 20
10.9216
 11
-43.2541
 21
11.0784
  0
LINE
  8
0
 10
-43.2541
 20
11.0784
 11
-43.2867
 21
11.2318
  0
LINE
  8
0
 10
-43.2867
 20
11.2318
 11
-43.3505
 21
11.375
  0
LINE
  8
0
 10
-43.3505
 20
11.375
 11
-43.4426
 21
11.5018
  0
LINE
  8
0
 10
-43.4426
 20
11.5018
 11
-43.5592
 21
11.6068
  0
LINE
  8
0
 10
-43.5592
 20
11.6068
 11
-43.6949
 21
11.6852
  0
LINE
  8
0
 10
-43.6949
 20
11.6852
 11
-43.8441
 21
11.7336
  0
LINE
  8
0
 10
-43.8441
 20
11.7336
 11
-44
 21
11.75
  0
LINE
  8
0
 10
-44
 20
11.75
 11
-44.1559
 21
11.7336
  0
LINE
  8
0
 10
-44.1559
 20
11.7336
 11
-44.3051
 21
11.6852
  0
LINE
  8
0
 10
-44.3051
 20
11.6852
 11
-44.4408
 21
11.6068
  0
LINE
  8
0
 10
-44.4408
 20
11.6068
 11
-44.5574
 21
11.5018
  0
LINE
  8
0
 10
-44.5574
 20
11.5018
 11
-44.6495
 21
11.375
  0
LINE
  8
0
 10
-44.6495
 20
11.375
 11
-44.7133
 21
11.2318
  0
LINE
  8
0
 10
-44.7133
 20
11.2318
 11
-44.7459
 21
11.0784
  0
LINE
  8
0
 10
-44.7459
 20
11.0784
 11
-44.7459
 21
10.9216
  0
LINE
  8
0
 10
-44.7459
 20
10.9216
 11
-44.7133
 21
10.7682
  0
LINE
  8
0
 10
-44.7133
 20
10.7682
 11
-44.6495
 21
10.625
  0
LINE
  8
0
 10
-44.6495
 20
10.625
 11
-44.5574
 21
10.4981
  0
LINE
  8
0
 10
-44.5574
 20
10.4981
 11
-44.4408
 21
10.3932
  0
LINE
  8
0
 10
-44.4408
 20
10.3932
 11
-44.3051
 21
10.3148
  0
LINE
  8
0
 10
-44.3051
 20
10.3148
 11
-44.1559
 21
10.2664
  0
LINE
  8
0
 10
-44.1559
 20
10.2664
 11
-44
 21
10.25
  0
LINE
  8
0
 10
-44
 20
10.25
 11
-43.8441
 21
10.2664
  0
LINE
  8
0
 10
-52.8441
 20
10.2664
 11
-52.6949
 21
10.3148
  0
LINE
  8
0
 10
-52.6949
 20
10.3148
 11
-52.5592
 21
10.3932
  0
LINE
  8
0
 10
-52.5592
 20
10.3932
 11
-52.4426
 21
10.4981
  0
LINE
  8
0
 10
-52.4426
 20
10.4981
 11
-52.3505
 21
10.625
  0
LINE
  8
0
 10
-52.3505
 20
10.625
 11
-52.2867
 21
10.7682
  0
LINE
  8
0
 10
-52.2867
 20
10.7682
 11
-52.2541
 21
10.9216
  0
LINE
  8
0
 10
-52.2541
 20
10.9216
 11
-52.2541
 21
11.0784
  0
LINE
  8
0
 10
-52.2541
 20
11.0784
 11
-52.2867
 21
11.2318
  0
LINE
  8
0
 10
-52.2867
 20
11.2318
 11
-52.3505
 21
11.375
  0
LINE
  8
0
 10
-52.3505
 20
11.375
 11
-52.4426
 21
11.5018
  0
LINE
  8
0
 10
-52.4426
 20
11.5018
 11
-52.5592
 21
11.6068
  0
LINE
  8
0
 10
-52.5592
 20
11.6068
 11
-52.6949
 21
11.6852
  0
LINE
  8
0
 10
-52.6949
 20
11.6852
 11
-52.8441
 21
11.7336
  0
LINE
  8
0
 10
-52.8441
 20
11.7336
 11
-53
 21
11.75
  0
LINE
  8
0
 10
-53
 20
11.75
 11
-53.1559
 21
11.7336
  0
LINE
  8
0
 10
-53.1559
 20
11.7336
 11
-53.3051
 21
11.6852
  0
LINE
  8
0
 10
-53.3051
 20
11.6852
 11
-53.4408
 21
11.6068
  0
LINE
  8
0
 10
-53.4408
 20
11.6068
 11
-53.5574
 21
11.5018
  0
LINE
  8
0
 10
-53.5574
 20
11.5018
 11
-53.6495
 21
11.375
  0
LINE
  8
0
 10
-53.6495
 20
11.375
 11
-53.7133
 21
11.2318
  0
LINE
  8
0
 10
-53.7133
 20
11.2318
 11
-53.7459
 21
11.0784
  0
LINE
  8
0
 10
-53.7459
 20
11.0784
 11
-53.7459
 21
10.9216
  0
LINE
  8
0
 10
-53.7459
 20
10.9216
 11
-53.7133
 21
10.7682
  0
LINE
  8
0
 10
-53.7133
 20
10.7682
 11
-53.6495
 21
10.625
  0
LINE
  8
0
 10
-53.6495
 20
10.625
 11
-53.5574
 21
10.4981
  0
LINE
  8
0
 10
-53.5574
 20
10.4981
 11
-53.4408
 21
10.3932
  0
LINE
  8
0
 10
-53.4408
 20
10.3932
 11
-53.3051
 21
10.3148
  0
LINE
  8
0
 10
-53.3051
 20
10.3148
 11
-53.1559
 21
10.2664
  0
LINE
  8
0
 10
-53.1559
 20
10.2664
 11
-53
 21
10.25
  0
LINE
  8
0
 10
-53
 20
10.25
 11
-52.8441
 21
10.2664
  0
LINE
  8
0
 10
-34.8441
 20
10.2664
 11
-34.6949
 21
10.3148
  0
LINE
  8
0
 10
-34.6949
 20
10.3148
 11
-34.5592
 21
10.3932
  0
LINE
  8
0
 10
-34.5592
 20
10.3932
 11
-34.4426
 21
10.4981
  0
LINE
  8
0
 10
-34.4426
 20
10.4981
 11
-34.3505
 21
10.625
  0
LINE
  8
0
 10
-34.3505
 20
10.625
 11
-34.2867
 21
10.7682
  0
LINE
  8
0
 10
-34.2867
 20
10.7682
 11
-34.2541
 21
10.9216
  0
LINE
  8
0
 10
-34.2541
 20
10.9216
 11
-34.2541
 21
11.0784
  0
LINE
  8
0
 10
-34.2541
 20
11.0784
 11
-34.2867
 21
11.2318
  0
LINE
  8
0
 10
-34.2867
 20
11.2318
 11
-34.3505
 21
11.375
  0
LINE
  8
0
 10
-34.3505
 20
11.375
 11
-34.4426
 21
11.5018
  0
LINE
  8
0
 10
-34.4426
 20
11.5018
 11
-34.5592
 21
11.6068
  0
LINE
  8
0
 10
-34.5592
 20
11.6068
 11
-34.6949
 21
11.6852
  0
LINE
  8
0
 10
-34.6949
 20
11.6852
 11
-34.8441
 21
11.7336
  0
LINE
  8
0
 10
-34.8441
 20
11.7336
 11
-35
 21
11.75
  0
LINE
  8
0
 10
-35
 20
11.75
 11
-35.1559
 21
11.7336
  0
LINE
  8
0
 10
-35.1559
 20
11.7336
 11
-35.3051
 21
11.6852
  0
LINE
  8
0
 10
-35.3051
 20
11.6852
 11
-35.4408
 21
11.6068
  0
LINE
  8
0
 10
-35.4408
 20
11.6068
 11
-35.5574
 21
11.5018
  0
LINE
  8
0
 10
-35.5574
 20
11.5018
 11
-35.6495
 21
11.375
  0
LINE
  8
0
 10
-35.6495
 20
11.375
 11
-35.7133
 21
11.2318
  0
LINE
  8
0
 10
-35.7133
 20
11.2318
 11
-35.7459
 21
11.0784
  0
LINE
  8
0
 10
-35.7459
 20
11.0784
 11
-35.7459
 21
10.9216
  0
LINE
  8
0
 10
-35.7459
 20
10.9216
 11
-35.7133
 21
10.7682
  0
LINE
  8
0
 10
-35.7133
 20
10.7682
 11
-35.6495
 21
10.625
  0
LINE
  8
0
 10
-35.6495
 20
10.625
 11
-35.5574
 21
10.4981
  0
LINE
  8
0
 10
-35.5574
 20
10.4981
 11
-35.4408
 21
10.3932
  0
LINE
  8
0
 10
-35.4408
 20
10.3932
 11
-35.3051
 21
10.3148
  0
LINE
  8
0
 10
-35.3051
 20
10.3148
 11
-35.1559
 21
10.2664
  0
LINE
  8
0
 10
-35.1559
 20
10.2664
 11
-35
 21
10.25
  0
LINE
  8
0
 10
-35
 20
10.25
 11
-34.8441
 21
10.2664
  0
LINE
  8
0
 10
-25.8441
 20
10.2664
 11
-25.6949
 21
10.3148
  0
LINE
  8
0
 10
-25.6949
 20
10.3148
 11
-25.5592
 21
10.3932
  0
LINE
  8
0
 10
-25.5592
 20
10.3932
 11
-25.4426
 21
10.4981
  0
LINE
  8
0
 10
-25.4426
 20
10.4981
 11
-25.3505
 21
10.625
  0
LINE
  8
0
 10
-25.3505
 20
10.625
 11
-25.2867
 21
10.7682
  0
LINE
  8
0
 10
-25.2867
 20
10.7682
 11
-25.2541
 21
10.9216
  0
LINE
  8
0
 10
-25.2541
 20
10.9216
 11
-25.2541
 21
11.0784
  0
LINE
  8
0
 10
-25.2541
 20
11.0784
 11
-25.2867
 21
11.2318
  0
LINE
  8
0
 10
-25.2867
 20
11.2318
 11
-25.3505
 21
11.375
  0
LINE
  8
0
 10
-25.3505
 20
11.375
 11
-25.4426
 21
11.5018
  0
LINE
  8
0
 10
-25.4426
 20
11.5018
 11
-25.5592
 21
11.6068
  0
LINE
  8
0
 10
-25.5592
 20
11.6068
 11
-25.6949
 21
11.6852
  0
LINE
  8
0
 10
-25.6949
 20
11.6852
 11
-25.8441
 21
11.7336
  0
LINE
  8
0
 10
-25.8441
 20
11.7336
 11
-26
 21
11.75
  0
LINE
  8
0
 10
-26
 20
11.75
 11
-26.1559
 21
11.7336
  0
LINE
  8
0
 10
-26.1559
 20
11.7336
 11
-26.305
 21
11.6852
  0
LINE
  8
0
 10
-26.305
 20
11.6852
 11
-26.4408
 21
11.6068
  0
LINE
  8
0
 10
-26.4408
 20
11.6068
 11
-26.5574
 21
11.5018
  0
LINE
  8
0
 10
-26.5574
 20
11.5018
 11
-26.6495
 21
11.375
  0
LINE
  8
0
 10
-26.6495
 20
11.375
 11
-26.7133
 21
11.2318
  0
LINE
  8
0
 10
-26.7133
 20
11.2318
 11
-26.7459
 21
11.0784
  0
LINE
  8
0
 10
-26.7459
 20
11.0784
 11
-26.7459
 21
10.9216
  0
LINE
  8
0
 10
-26.7459
 20
10.9216
 11
-26.7133
 21
10.7682
  0
LINE
  8
0
 10
-26.7133
 20
10.7682
 11
-26.6495
 21
10.625
  0
LINE
  8
0
 10
-26.6495
 20
10.625
 11
-26.5574
 21
10.4981
  0
LINE
  8
0
 10
-26.5574
 20
10.4981
 11
-26.4408
 21
10.3932
  0
LINE
  8
0
 10
-26.4408
 20
10.3932
 11
-26.305
 21
10.3148
  0
LINE
  8
0
 10
-26.305
 20
10.3148
 11
-26.1559
 21
10.2664
  0
LINE
  8
0
 10
-26.1559
 20
10.2664
 11
-26
 21
10.25
  0
LINE
  8
0
 10
-26
 20
10.25
 11
-25.8441
 21
10.2664
  0
ENDSEC
  0
SECTION
  2
OBJECTS
  0
DICTIONARY
  0
ENDSEC
  0
EOF
