  0
SECTION
  2
BLOCKS
  0
ENDSEC
  0
SECTION
  2
ENTITIES
  0
LINE
  8
0
 10
-61.896
 20
10.5109
 11
-61.7966
 21
10.5432
  0
LINE
  8
0
 10
-61.7966
 20
10.5432
 11
-61.7061
 21
10.5955
  0
LINE
  8
0
 10
-61.7061
 20
10.5955
 11
-61.6284
 21
10.6654
  0
LINE
  8
0
 10
-61.6284
 20
10.6654
 11
-61.567
 21
10.75
  0
LINE
  8
0
 10
-61.567
 20
10.75
 11
-61.5245
 21
10.8455
  0
LINE
  8
0
 10
-61.5245
 20
10.8455
 11
-61.5027
 21
10.9477
  0
LINE
  8
0
 10
-61.5027
 20
10.9477
 11
-61.5027
 21
11.0523
  0
LINE
  8
0
 10
-61.5027
 20
11.0523
 11
-61.5245
 21
11.1545
  0
LINE
  8
0
 10
-61.5245
 20
11.1545
 11
-61.567
 21
11.25
  0
LINE
  8
0
 10
-61.567
 20
11.25
 11
-61.6284
 21
11.3346
  0
LINE
  8
0
 10
-61.6284
 20
11.3346
 11
-61.7061
 21
11.4045
  0
LINE
  8
0
 10
-61.7061
 20
11.4045
 11
-61.7966
 21
11.4568
  0
LINE
  8
0
 10
-61.7966
 20
11.4568
 11
-61.896
 21
11.4891
  0
LINE
  8
0
 10
-61.896
 20
11.4891
 11
-62
 21
11.5
  0
LINE
  8
0
 10
-62
 20
11.5
 11
-62.1039
 21
11.4891
  0
LINE
  8
0
 10
-62.1039
 20
11.4891
 11
-62.2034
 21
11.4568
  0
LINE
  8
0
 10
-62.2034
 20
11.4568
 11
-62.2939
 21
11.4045
  0
LINE
  8
0
 10
-62.2939
 20
11.4045
 11
-62.3716
 21
11.3346
  0
LINE
  8
0
 10
-62.3716
 20
11.3346
 11
-62.433
 21
11.25
  0
LINE
  8
0
 10
-62.433
 20
11.25
 11
-62.4755
 21
11.1545
  0
LINE
  8
0
 10
-62.4755
 20
11.1545
 11
-62.4973
 21
11.0523
  0
LINE
  8
0
 10
-62.4973
 20
11.0523
 11
-62.4973
 21
10.9477
  0
LINE
  8
0
 10
-62.4973
 20
10.9477
 11
-62.4755
 21
10.8455
  0
LINE
  8
0
 10
-62.4755
 20
10.8455
 11
-62.433
 21
10.75
  0
LINE
  8
0
 10
-62.433
 20
10.75
 11
-62.3716
 21
10.6654
  0
LINE
  8
0
 10
-62.3716
 20
10.6654
 11
-62.2939
 21
10.5955
  0
LINE
  8
0
 10
-62.2939
 20
10.5955
 11
-62.2034
 21
10.5432
  0
LINE
  8
0
 10
-62.2034
 20
10.5432
 11
-62.1039
 21
10.5109
  0
LINE
  8
0
 10
-62.1039
 20
10.5109
 11
-62
 21
10.5
  0
LINE
  8
0
 10
-62
 20
10.5
 11
-61.896
 21
10.5109
  0
LINE
  8
0
 10
-52.896
 20
10.5109
 11
-52.7966
 21
10.5432
  0
LINE
  8
0
 10
-52.7966
 20
10.5432
 11
-52.7061
 21
10.5955
  0
LINE
  8
0
 10
-52.7061
 20
10.5955
 11
-52.6284
 21
10.6654
  0
LINE
  8
0
 10
-52.6284
 20
10.6654
 11
-52.567
 21
10.75
  0
LINE
  8
0
 10
-52.567
 20
10.75
 11
-52.5245
 21
10.8455
  0
LINE
  8
0
 10
-52.5245
 20
10.8455
 11
-52.5027
 21
10.9477
  0
LINE
  8
0
 10
-52.5027
 20
10.9477
 11
-52.5027
 21
11.0523
  0
LINE
  8
0
 10
-52.5027
 20
11.0523
 11
-52.5245
 21
11.1545
  0
LINE
  8
0
 10
-52.5245
 20
11.1545
 11
-52.567
 21
11.25
  0
LINE
  8
0
 10
-52.567
 20
11.25
 11
-52.6284
 21
11.3346
  0
LINE
  8
0
 10
-52.6284
 20
11.3346
 11
-52.7061
 21
11.4045
  0
LINE
  8
0
 10
-52.7061
 20
11.4045
 11
-52.7966
 21
11.4568
  0
LINE
  8
0
 10
-52.7966
 20
11.4568
 11
-52.896
 21
11.4891
  0
LINE
  8
0
 10
-52.896
 20
11.4891
 11
-53
 21
11.5
  0
LINE
  8
0
 10
-53
 20
11.5
 11
-53.1039
 21
11.4891
  0
LINE
  8
0
 10
-53.1039
 20
11.4891
 11
-53.2034
 21
11.4568
  0
LINE
  8
0
 10
-53.2034
 20
11.4568
 11
-53.2939
 21
11.4045
  0
LINE
  8
0
 10
-53.2939
 20
11.4045
 11
-53.3716
 21
11.3346
  0
LINE
  8
0
 10
-53.3716
 20
11.3346
 11
-53.433
 21
11.25
  0
LINE
  8
0
 10
-53.433
 20
11.25
 11
-53.4755
 21
11.1545
  0
LINE
  8
0
 10
-53.4755
 20
11.1545
 11
-53.4973
 21
11.0523
  0
LINE
  8
0
 10
-53.4973
 20
11.0523
 11
-53.4973
 21
10.9477
  0
LINE
  8
0
 10
-53.4973
 20
10.9477
 11
-53.4755
 21
10.8455
  0
LINE
  8
0
 10
-53.4755
 20
10.8455
 11
-53.433
 21
10.75
  0
LINE
  8
0
 10
-53.433
 20
10.75
 11
-53.3716
 21
10.6654
  0
LINE
  8
0
 10
-53.3716
 20
10.6654
 11
-53.2939
 21
10.5955
  0
LINE
  8
0
 10
-53.2939
 20
10.5955
 11
-53.2034
 21
10.5432
  0
LINE
  8
0
 10
-53.2034
 20
10.5432
 11
-53.1039
 21
10.5109
  0
LINE
  8
0
 10
-53.1039
 20
10.5109
 11
-53
 21
10.5
  0
LINE
  8
0
 10
-53
 20
10.5
 11
-52.896
 21
10.5109
  0
LINE
  8
0
 10
-16.896
 20
10.5109
 11
-16.7966
 21
10.5432
  0
LINE
  8
0
 10
-16.7966
 20
10.5432
 11
-16.7061
 21
10.5955
  0
LINE
  8
0
 10
-16.7061
 20
10.5955
 11
-16.6284
 21
10.6654
  0
LINE
  8
0
 10
-16.6284
 20
10.6654
 11
-16.567
 21
10.75
  0
LINE
  8
0
 10
-16.567
 20
10.75
 11
-16.5245
 21
10.8455
  0
LINE
  8
0
 10
-16.5245
 20
10.8455
 11
-16.5027
 21
10.9477
  0
LINE
  8
0
 10
-16.5027
 20
10.9477
 11
-16.5027
 21
11.0523
  0
LINE
  8
0
 10
-16.5027
 20
11.0523
 11
-16.5245
 21
11.1545
  0
LINE
  8
0
 10
-16.5245
 20
11.1545
 11
-16.567
 21
11.25
  0
LINE
  8
0
 10
-16.567
 20
11.25
 11
-16.6284
 21
11.3346
  0
LINE
  8
0
 10
-16.6284
 20
11.3346
 11
-16.7061
 21
11.4045
  0
LINE
  8
0
 10
-16.7061
 20
11.4045
 11
-16.7966
 21
11.4568
  0
LINE
  8
0
 10
-16.7966
 20
11.4568
 11
-16.896
 21
11.4891
  0
LINE
  8
0
 10
-16.896
 20
11.4891
 11
-17
 21
11.5
  0
LINE
  8
0
 10
-17
 20
11.5
 11
-17.1039
 21
11.4891
  0
LINE
  8
0
 10
-17.1039
 20
11.4891
 11
-17.2034
 21
11.4568
  0
LINE
  8
0
 10
-17.2034
 20
11.4568
 11
-17.2939
 21
11.4045
  0
LINE
  8
0
 10
-17.2939
 20
11.4045
 11
-17.3716
 21
11.3346
  0
LINE
  8
0
 10
-17.3716
 20
11.3346
 11
-17.433
 21
11.25
  0
LINE
  8
0
 10
-17.433
 20
11.25
 11
-17.4755
 21
11.1545
  0
LINE
  8
0
 10
-17.4755
 20
11.1545
 11
-17.4973
 21
11.0523
  0
LINE
  8
0
 10
-17.4973
 20
11.0523
 11
-17.4973
 21
10.9477
  0
LINE
  8
0
 10
-17.4973
 20
10.9477
 11
-17.4755
 21
10.8455
  0
LINE
  8
0
 10
-17.4755
 20
10.8455
 11
-17.433
 21
10.75
  0
LINE
  8
0
 10
-17.433
 20
10.75
 11
-17.3716
 21
10.6654
  0
LINE
  8
0
 10
-17.3716
 20
10.6654
 11
-17.2939
 21
10.5955
  0
LINE
  8
0
 10
-17.2939
 20
10.5955
 11
-17.2034
 21
10.5432
  0
LINE
  8
0
 10
-17.2034
 20
10.5432
 11
-17.1039
 21
10.5109
  0
LINE
  8
0
 10
-17.1039
 20
10.5109
 11
-17
 21
10.5
  0
LINE
  8
0
 10
-17
 20
10.5
 11
-16.896
 21
10.5109
  0
LINE
  8
0
 10
-7.89604
 20
10.5109
 11
-7.79663
 21
10.5432
  0
LINE
  8
0
 10
-7.79663
 20
10.5432
 11
-7.7061
 21
10.5955
  0
LINE
  8
0
 10
-7.7061
 20
10.5955
 11
-7.62842
 21
10.6654
  0
LINE
  8
0
 10
-7.62842
 20
10.6654
 11
-7.56699
 21
10.75
  0
LINE
  8
0
 10
-7.56699
 20
10.75
 11
-7.52446
 21
10.8455
  0
LINE
  8
0
 10
-7.52446
 20
10.8455
 11
-7.50273
 21
10.9477
  0
LINE
  8
0
 10
-7.50273
 20
10.9477
 11
-7.50273
 21
11.0523
  0
LINE
  8
0
 10
-7.50273
 20
11.0523
 11
-7.52446
 21
11.1545
  0
LINE
  8
0
 10
-7.52446
 20
11.1545
 11
-7.56699
 21
11.25
  0
LINE
  8
0
 10
-7.56699
 20
11.25
 11
-7.62842
 21
11.3346
  0
LINE
  8
0
 10
-7.62842
 20
11.3346
 11
-7.7061
 21
11.4045
  0
LINE
  8
0
 10
-7.7061
 20
11.4045
 11
-7.79663
 21
11.4568
  0
LINE
  8
0
 10
-7.79663
 20
11.4568
 11
-7.89604
 21
11.4891
  0
LINE
  8
0
 10
-7.89604
 20
11.4891
 11
-8
 21
11.5
  0
LINE
  8
0
 10
-8
 20
11.5
 11
-8.10394
 21
11.4891
  0
LINE
  8
0
 10
-8.10394
 20
11.4891
 11
-8.20335
 21
11.4568
  0
LINE
  8
0
 10
-8.20335
 20
11.4568
 11
-8.29388
 21
11.4045
  0
LINE
  8
0
 10
-8.29388
 20
11.4045
 11
-8.37157
 21
11.3346
  0
LINE
  8
0
 10
-8.37157
 20
11.3346
 11
-8.433
 21
11.25
  0
LINE
  8
0
 10
-8.433
 20
11.25
 11
-8.47552
 21
11.1545
  0
LINE
  8
0
 10
-8.47552
 20
11.1545
 11
-8.49725
 21
11.0523
  0
LINE
  8
0
 10
-8.49725
 20
11.0523
 11
-8.49725
 21
10.9477
  0
LINE
  8
0
 10
-8.49725
 20
10.9477
 11
-8.47552
 21
10.8455
  0
LINE
  8
0
 10
-8.47552
 20
10.8455
 11
-8.433
 21
10.75
  0
LINE
  8
0
 10
-8.433
 20
10.75
 11
-8.37157
 21
10.6654
  0
LINE
  8
0
 10
-8.37157
 20
10.6654
 11
-8.29388
 21
10.5955
  0
LINE
  8
0
 10
-8.29388
 20
10.5955
 11
-8.20335
 21
10.5432
  0
LINE
  8
0
 10
-8.20335
 20
10.5432
 11
-8.10394
 21
10.5109
  0
LINE
  8
0
 10
-8.10394
 20
10.5109
 11
-8
 21
10.5
  0
LINE
  8
0
 10
-8
 20
10.5
 11
-7.89604
 21
10.5109
  0
LINE
  8
0
 10
-70.896
 20
10.5109
 11
-70.7966
 21
10.5432
  0
LINE
  8
0
 10
-70.7966
 20
10.5432
 11
-70.7061
 21
10.5955
  0
LINE
  8
0
 10
-70.7061
 20
10.5955
 11
-70.6284
 21
10.6654
  0
LINE
  8
0
 10
-70.6284
 20
10.6654
 11
-70.567
 21
10.75
  0
LINE
  8
0
 10
-70.567
 20
10.75
 11
-70.5245
 21
10.8455
  0
LINE
  8
0
 10
-70.5245
 20
10.8455
 11
-70.5027
 21
10.9477
  0
LINE
  8
0
 10
-70.5027
 20
10.9477
 11
-70.5027
 21
11.0523
  0
LINE
  8
0
 10
-70.5027
 20
11.0523
 11
-70.5245
 21
11.1545
  0
LINE
  8
0
 10
-70.5245
 20
11.1545
 11
-70.567
 21
11.25
  0
LINE
  8
0
 10
-70.567
 20
11.25
 11
-70.6284
 21
11.3346
  0
LINE
  8
0
 10
-70.6284
 20
11.3346
 11
-70.7061
 21
11.4045
  0
LINE
  8
0
 10
-70.7061
 20
11.4045
 11
-70.7966
 21
11.4568
  0
LINE
  8
0
 10
-70.7966
 20
11.4568
 11
-70.896
 21
11.4891
  0
LINE
  8
0
 10
-70.896
 20
11.4891
 11
-71
 21
11.5
  0
LINE
  8
0
 10
-71
 20
11.5
 11
-71.104
 21
11.4891
  0
LINE
  8
0
 10
-71.104
 20
11.4891
 11
-71.2034
 21
11.4568
  0
LINE
  8
0
 10
-71.2034
 20
11.4568
 11
-71.2939
 21
11.4045
  0
LINE
  8
0
 10
-71.2939
 20
11.4045
 11
-71.3716
 21
11.3346
  0
LINE
  8
0
 10
-71.3716
 20
11.3346
 11
-71.433
 21
11.25
  0
LINE
  8
0
 10
-71.433
 20
11.25
 11
-71.4755
 21
11.1545
  0
LINE
  8
0
 10
-71.4755
 20
11.1545
 11
-71.4973
 21
11.0523
  0
LINE
  8
0
 10
-71.4973
 20
11.0523
 11
-71.4973
 21
10.9477
  0
LINE
  8
0
 10
-71.4973
 20
10.9477
 11
-71.4755
 21
10.8455
  0
LINE
  8
0
 10
-71.4755
 20
10.8455
 11
-71.433
 21
10.75
  0
LINE
  8
0
 10
-71.433
 20
10.75
 11
-71.3716
 21
10.6654
  0
LINE
  8
0
 10
-71.3716
 20
10.6654
 11
-71.2939
 21
10.5955
  0
LINE
  8
0
 10
-71.2939
 20
10.5955
 11
-71.2034
 21
10.5432
  0
LINE
  8
0
 10
-71.2034
 20
10.5432
 11
-71.104
 21
10.5109
  0
LINE
  8
0
 10
-71.104
 20
10.5109
 11
-71
 21
10.5
  0
LINE
  8
0
 10
-71
 20
10.5
 11
-70.896
 21
10.5109
  0
LINE
  8
0
 10
-25.896
 20
10.5109
 11
-25.7966
 21
10.5432
  0
LINE
  8
0
 10
-25.7966
 20
10.5432
 11
-25.7061
 21
10.5955
  0
LINE
  8
0
 10
-25.7061
 20
10.5955
 11
-25.6284
 21
10.6654
  0
LINE
  8
0
 10
-25.6284
 20
10.6654
 11
-25.567
 21
10.75
  0
LINE
  8
0
 10
-25.567
 20
10.75
 11
-25.5245
 21
10.8455
  0
LINE
  8
0
 10
-25.5245
 20
10.8455
 11
-25.5027
 21
10.9477
  0
LINE
  8
0
 10
-25.5027
 20
10.9477
 11
-25.5027
 21
11.0523
  0
LINE
  8
0
 10
-25.5027
 20
11.0523
 11
-25.5245
 21
11.1545
  0
LINE
  8
0
 10
-25.5245
 20
11.1545
 11
-25.567
 21
11.25
  0
LINE
  8
0
 10
-25.567
 20
11.25
 11
-25.6284
 21
11.3346
  0
LINE
  8
0
 10
-25.6284
 20
11.3346
 11
-25.7061
 21
11.4045
  0
LINE
  8
0
 10
-25.7061
 20
11.4045
 11
-25.7966
 21
11.4568
  0
LINE
  8
0
 10
-25.7966
 20
11.4568
 11
-25.896
 21
11.4891
  0
LINE
  8
0
 10
-25.896
 20
11.4891
 11
-26
 21
11.5
  0
LINE
  8
0
 10
-26
 20
11.5
 11
-26.1039
 21
11.4891
  0
LINE
  8
0
 10
-26.1039
 20
11.4891
 11
-26.2034
 21
11.4568
  0
LINE
  8
0
 10
-26.2034
 20
11.4568
 11
-26.2939
 21
11.4045
  0
LINE
  8
0
 10
-26.2939
 20
11.4045
 11
-26.3716
 21
11.3346
  0
LINE
  8
0
 10
-26.3716
 20
11.3346
 11
-26.433
 21
11.25
  0
LINE
  8
0
 10
-26.433
 20
11.25
 11
-26.4755
 21
11.1545
  0
LINE
  8
0
 10
-26.4755
 20
11.1545
 11
-26.4973
 21
11.0523
  0
LINE
  8
0
 10
-26.4973
 20
11.0523
 11
-26.4973
 21
10.9477
  0
LINE
  8
0
 10
-26.4973
 20
10.9477
 11
-26.4755
 21
10.8455
  0
LINE
  8
0
 10
-26.4755
 20
10.8455
 11
-26.433
 21
10.75
  0
LINE
  8
0
 10
-26.433
 20
10.75
 11
-26.3716
 21
10.6654
  0
LINE
  8
0
 10
-26.3716
 20
10.6654
 11
-26.2939
 21
10.5955
  0
LINE
  8
0
 10
-26.2939
 20
10.5955
 11
-26.2034
 21
10.5432
  0
LINE
  8
0
 10
-26.2034
 20
10.5432
 11
-26.1039
 21
10.5109
  0
LINE
  8
0
 10
-26.1039
 20
10.5109
 11
-26
 21
10.5
  0
LINE
  8
0
 10
-26
 20
10.5
 11
-25.896
 21
10.5109
  0
LINE
  8
0
 10
-43.896
 20
10.5109
 11
-43.7966
 21
10.5432
  0
LINE
  8
0
 10
-43.7966
 20
10.5432
 11
-43.7061
 21
10.5955
  0
LINE
  8
0
 10
-43.7061
 20
10.5955
 11
-43.6284
 21
10.6654
  0
LINE
  8
0
 10
-43.6284
 20
10.6654
 11
-43.567
 21
10.75
  0
LINE
  8
0
 10
-43.567
 20
10.75
 11
-43.5245
 21
10.8455
  0
LINE
  8
0
 10
-43.5245
 20
10.8455
 11
-43.5027
 21
10.9477
  0
LINE
  8
0
 10
-43.5027
 20
10.9477
 11
-43.5027
 21
11.0523
  0
LINE
  8
0
 10
-43.5027
 20
11.0523
 11
-43.5245
 21
11.1545
  0
LINE
  8
0
 10
-43.5245
 20
11.1545
 11
-43.567
 21
11.25
  0
LINE
  8
0
 10
-43.567
 20
11.25
 11
-43.6284
 21
11.3346
  0
LINE
  8
0
 10
-43.6284
 20
11.3346
 11
-43.7061
 21
11.4045
  0
LINE
  8
0
 10
-43.7061
 20
11.4045
 11
-43.7966
 21
11.4568
  0
LINE
  8
0
 10
-43.7966
 20
11.4568
 11
-43.896
 21
11.4891
  0
LINE
  8
0
 10
-43.896
 20
11.4891
 11
-44
 21
11.5
  0
LINE
  8
0
 10
-44
 20
11.5
 11
-44.1039
 21
11.4891
  0
LINE
  8
0
 10
-44.1039
 20
11.4891
 11
-44.2034
 21
11.4568
  0
LINE
  8
0
 10
-44.2034
 20
11.4568
 11
-44.2939
 21
11.4045
  0
LINE
  8
0
 10
-44.2939
 20
11.4045
 11
-44.3716
 21
11.3346
  0
LINE
  8
0
 10
-44.3716
 20
11.3346
 11
-44.433
 21
11.25
  0
LINE
  8
0
 10
-44.433
 20
11.25
 11
-44.4755
 21
11.1545
  0
LINE
  8
0
 10
-44.4755
 20
11.1545
 11
-44.4973
 21
11.0523
  0
LINE
  8
0
 10
-44.4973
 20
11.0523
 11
-44.4973
 21
10.9477
  0
LINE
  8
0
 10
-44.4973
 20
10.9477
 11
-44.4755
 21
10.8455
  0
LINE
  8
0
 10
-44.4755
 20
10.8455
 11
-44.433
 21
10.75
  0
LINE
  8
0
 10
-44.433
 20
10.75
 11
-44.3716
 21
10.6654
  0
LINE
  8
0
 10
-44.3716
 20
10.6654
 11
-44.2939
 21
10.5955
  0
LINE
  8
0
 10
-44.2939
 20
10.5955
 11
-44.2034
 21
10.5432
  0
LINE
  8
0
 10
-44.2034
 20
10.5432
 11
-44.1039
 21
10.5109
  0
LINE
  8
0
 10
-44.1039
 20
10.5109
 11
-44
 21
10.5
  0
LINE
  8
0
 10
-44
 20
10.5
 11
-43.896
 21
10.5109
  0
LINE
  8
0
 10
-34.896
 20
10.5109
 11
-34.7966
 21
10.5432
  0
LINE
  8
0
 10
-34.7966
 20
10.5432
 11
-34.7061
 21
10.5955
  0
LINE
  8
0
 10
-34.7061
 20
10.5955
 11
-34.6284
 21
10.6654
  0
LINE
  8
0
 10
-34.6284
 20
10.6654
 11
-34.567
 21
10.75
  0
LINE
  8
0
 10
-34.567
 20
10.75
 11
-34.5245
 21
10.8455
  0
LINE
  8
0
 10
-34.5245
 20
10.8455
 11
-34.5027
 21
10.9477
  0
LINE
  8
0
 10
-34.5027
 20
10.9477
 11
-34.5027
 21
11.0523
  0
LINE
  8
0
 10
-34.5027
 20
11.0523
 11
-34.5245
 21
11.1545
  0
LINE
  8
0
 10
-34.5245
 20
11.1545
 11
-34.567
 21
11.25
  0
LINE
  8
0
 10
-34.567
 20
11.25
 11
-34.6284
 21
11.3346
  0
LINE
  8
0
 10
-34.6284
 20
11.3346
 11
-34.7061
 21
11.4045
  0
LINE
  8
0
 10
-34.7061
 20
11.4045
 11
-34.7966
 21
11.4568
  0
LINE
  8
0
 10
-34.7966
 20
11.4568
 11
-34.896
 21
11.4891
  0
LINE
  8
0
 10
-34.896
 20
11.4891
 11
-35
 21
11.5
  0
LINE
  8
0
 10
-35
 20
11.5
 11
-35.1039
 21
11.4891
  0
LINE
  8
0
 10
-35.1039
 20
11.4891
 11
-35.2034
 21
11.4568
  0
LINE
  8
0
 10
-35.2034
 20
11.4568
 11
-35.2939
 21
11.4045
  0
LINE
  8
0
 10
-35.2939
 20
11.4045
 11
-35.3716
 21
11.3346
  0
LINE
  8
0
 10
-35.3716
 20
11.3346
 11
-35.433
 21
11.25
  0
LINE
  8
0
 10
-35.433
 20
11.25
 11
-35.4755
 21
11.1545
  0
LINE
  8
0
 10
-35.4755
 20
11.1545
 11
-35.4973
 21
11.0523
  0
LINE
  8
0
 10
-35.4973
 20
11.0523
 11
-35.4973
 21
10.9477
  0
LINE
  8
0
 10
-35.4973
 20
10.9477
 11
-35.4755
 21
10.8455
  0
LINE
  8
0
 10
-35.4755
 20
10.8455
 11
-35.433
 21
10.75
  0
LINE
  8
0
 10
-35.433
 20
10.75
 11
-35.3716
 21
10.6654
  0
LINE
  8
0
 10
-35.3716
 20
10.6654
 11
-35.2939
 21
10.5955
  0
LINE
  8
0
 10
-35.2939
 20
10.5955
 11
-35.2034
 21
10.5432
  0
LINE
  8
0
 10
-35.2034
 20
10.5432
 11
-35.1039
 21
10.5109
  0
LINE
  8
0
 10
-35.1039
 20
10.5109
 11
-35
 21
10.5
  0
LINE
  8
0
 10
-35
 20
10.5
 11
-34.896
 21
10.5109
  0
ENDSEC
  0
SECTION
  2
OBJECTS
  0
DICTIONARY
  0
ENDSEC
  0
EOF
