  0
SECTION
  2
BLOCKS
  0
ENDSEC
  0
SECTION
  2
ENTITIES
  0
LINE
  8
0
 10
-70.7921
 20
10.0219
 11
-70.5933
 21
10.0864
  0
LINE
  8
0
 10
-70.5933
 20
10.0864
 11
-70.4122
 21
10.191
  0
LINE
  8
0
 10
-70.4122
 20
10.191
 11
-70.2569
 21
10.3309
  0
LINE
  8
0
 10
-70.2569
 20
10.3309
 11
-70.134
 21
10.5
  0
LINE
  8
0
 10
-70.134
 20
10.5
 11
-70.0489
 21
10.691
  0
LINE
  8
0
 10
-70.0489
 20
10.691
 11
-70.0055
 21
10.8955
  0
LINE
  8
0
 10
-70.0055
 20
10.8955
 11
-70.0055
 21
11.1045
  0
LINE
  8
0
 10
-70.0055
 20
11.1045
 11
-70.0489
 21
11.309
  0
LINE
  8
0
 10
-70.0489
 20
11.309
 11
-70.134
 21
11.5
  0
LINE
  8
0
 10
-70.134
 20
11.5
 11
-70.2569
 21
11.6691
  0
LINE
  8
0
 10
-70.2569
 20
11.6691
 11
-70.4122
 21
11.809
  0
LINE
  8
0
 10
-70.4122
 20
11.809
 11
-70.5933
 21
11.9135
  0
LINE
  8
0
 10
-70.5933
 20
11.9135
 11
-70.7921
 21
11.9781
  0
LINE
  8
0
 10
-70.7921
 20
11.9781
 11
-71
 21
12
  0
LINE
  8
0
 10
-71
 20
12
 11
-71.2079
 21
11.9781
  0
LINE
  8
0
 10
-71.2079
 20
11.9781
 11
-71.4067
 21
11.9135
  0
LINE
  8
0
 10
-71.4067
 20
11.9135
 11
-71.5878
 21
11.809
  0
LINE
  8
0
 10
-71.5878
 20
11.809
 11
-71.7431
 21
11.6691
  0
LINE
  8
0
 10
-71.7431
 20
11.6691
 11
-71.866
 21
11.5
  0
LINE
  8
0
 10
-71.866
 20
11.5
 11
-71.951
 21
11.309
  0
LINE
  8
0
 10
-71.951
 20
11.309
 11
-71.9945
 21
11.1045
  0
LINE
  8
0
 10
-71.9945
 20
11.1045
 11
-71.9945
 21
10.8955
  0
LINE
  8
0
 10
-71.9945
 20
10.8955
 11
-71.951
 21
10.691
  0
LINE
  8
0
 10
-71.951
 20
10.691
 11
-71.866
 21
10.5
  0
LINE
  8
0
 10
-71.866
 20
10.5
 11
-71.7431
 21
10.3309
  0
LINE
  8
0
 10
-71.7431
 20
10.3309
 11
-71.5878
 21
10.191
  0
LINE
  8
0
 10
-71.5878
 20
10.191
 11
-71.4067
 21
10.0864
  0
LINE
  8
0
 10
-71.4067
 20
10.0864
 11
-71.2079
 21
10.0219
  0
LINE
  8
0
 10
-71.2079
 20
10.0219
 11
-71
 21
10
  0
LINE
  8
0
 10
-71
 20
10
 11
-70.7921
 21
10.0219
  0
LINE
  8
0
 10
-16.7921
 20
10.0219
 11
-16.5933
 21
10.0864
  0
LINE
  8
0
 10
-16.5933
 20
10.0864
 11
-16.4122
 21
10.191
  0
LINE
  8
0
 10
-16.4122
 20
10.191
 11
-16.2569
 21
10.3309
  0
LINE
  8
0
 10
-16.2569
 20
10.3309
 11
-16.134
 21
10.5
  0
LINE
  8
0
 10
-16.134
 20
10.5
 11
-16.0489
 21
10.691
  0
LINE
  8
0
 10
-16.0489
 20
10.691
 11
-16.0055
 21
10.8955
  0
LINE
  8
0
 10
-16.0055
 20
10.8955
 11
-16.0055
 21
11.1045
  0
LINE
  8
0
 10
-16.0055
 20
11.1045
 11
-16.0489
 21
11.309
  0
LINE
  8
0
 10
-16.0489
 20
11.309
 11
-16.134
 21
11.5
  0
LINE
  8
0
 10
-16.134
 20
11.5
 11
-16.2569
 21
11.6691
  0
LINE
  8
0
 10
-16.2569
 20
11.6691
 11
-16.4122
 21
11.809
  0
LINE
  8
0
 10
-16.4122
 20
11.809
 11
-16.5933
 21
11.9135
  0
LINE
  8
0
 10
-16.5933
 20
11.9135
 11
-16.7921
 21
11.9781
  0
LINE
  8
0
 10
-16.7921
 20
11.9781
 11
-17
 21
12
  0
LINE
  8
0
 10
-17
 20
12
 11
-17.2079
 21
11.9781
  0
LINE
  8
0
 10
-17.2079
 20
11.9781
 11
-17.4067
 21
11.9135
  0
LINE
  8
0
 10
-17.4067
 20
11.9135
 11
-17.5878
 21
11.809
  0
LINE
  8
0
 10
-17.5878
 20
11.809
 11
-17.7431
 21
11.6691
  0
LINE
  8
0
 10
-17.7431
 20
11.6691
 11
-17.866
 21
11.5
  0
LINE
  8
0
 10
-17.866
 20
11.5
 11
-17.951
 21
11.309
  0
LINE
  8
0
 10
-17.951
 20
11.309
 11
-17.9945
 21
11.1045
  0
LINE
  8
0
 10
-17.9945
 20
11.1045
 11
-17.9945
 21
10.8955
  0
LINE
  8
0
 10
-17.9945
 20
10.8955
 11
-17.951
 21
10.691
  0
LINE
  8
0
 10
-17.951
 20
10.691
 11
-17.866
 21
10.5
  0
LINE
  8
0
 10
-17.866
 20
10.5
 11
-17.7431
 21
10.3309
  0
LINE
  8
0
 10
-17.7431
 20
10.3309
 11
-17.5878
 21
10.191
  0
LINE
  8
0
 10
-17.5878
 20
10.191
 11
-17.4067
 21
10.0864
  0
LINE
  8
0
 10
-17.4067
 20
10.0864
 11
-17.2079
 21
10.0219
  0
LINE
  8
0
 10
-17.2079
 20
10.0219
 11
-17
 21
10
  0
LINE
  8
0
 10
-17
 20
10
 11
-16.7921
 21
10.0219
  0
LINE
  8
0
 10
-7.79208
 20
10.0219
 11
-7.59326
 21
10.0864
  0
LINE
  8
0
 10
-7.59326
 20
10.0864
 11
-7.4122
 21
10.191
  0
LINE
  8
0
 10
-7.4122
 20
10.191
 11
-7.25685
 21
10.3309
  0
LINE
  8
0
 10
-7.25685
 20
10.3309
 11
-7.13397
 21
10.5
  0
LINE
  8
0
 10
-7.13397
 20
10.5
 11
-7.04893
 21
10.691
  0
LINE
  8
0
 10
-7.04893
 20
10.691
 11
-7.00548
 21
10.8955
  0
LINE
  8
0
 10
-7.00548
 20
10.8955
 11
-7.00548
 21
11.1045
  0
LINE
  8
0
 10
-7.00548
 20
11.1045
 11
-7.04893
 21
11.309
  0
LINE
  8
0
 10
-7.04893
 20
11.309
 11
-7.13397
 21
11.5
  0
LINE
  8
0
 10
-7.13397
 20
11.5
 11
-7.25685
 21
11.6691
  0
LINE
  8
0
 10
-7.25685
 20
11.6691
 11
-7.4122
 21
11.809
  0
LINE
  8
0
 10
-7.4122
 20
11.809
 11
-7.59326
 21
11.9135
  0
LINE
  8
0
 10
-7.59326
 20
11.9135
 11
-7.79208
 21
11.9781
  0
LINE
  8
0
 10
-7.79208
 20
11.9781
 11
-8
 21
12
  0
LINE
  8
0
 10
-8
 20
12
 11
-8.2079
 21
11.9781
  0
LINE
  8
0
 10
-8.2079
 20
11.9781
 11
-8.40672
 21
11.9135
  0
LINE
  8
0
 10
-8.40672
 20
11.9135
 11
-8.58778
 21
11.809
  0
LINE
  8
0
 10
-8.58778
 20
11.809
 11
-8.74313
 21
11.6691
  0
LINE
  8
0
 10
-8.74313
 20
11.6691
 11
-8.86601
 21
11.5
  0
LINE
  8
0
 10
-8.86601
 20
11.5
 11
-8.95105
 21
11.309
  0
LINE
  8
0
 10
-8.95105
 20
11.309
 11
-8.99451
 21
11.1045
  0
LINE
  8
0
 10
-8.99451
 20
11.1045
 11
-8.99451
 21
10.8955
  0
LINE
  8
0
 10
-8.99451
 20
10.8955
 11
-8.95105
 21
10.691
  0
LINE
  8
0
 10
-8.95105
 20
10.691
 11
-8.86601
 21
10.5
  0
LINE
  8
0
 10
-8.86601
 20
10.5
 11
-8.74313
 21
10.3309
  0
LINE
  8
0
 10
-8.74313
 20
10.3309
 11
-8.58778
 21
10.191
  0
LINE
  8
0
 10
-8.58778
 20
10.191
 11
-8.40672
 21
10.0864
  0
LINE
  8
0
 10
-8.40672
 20
10.0864
 11
-8.2079
 21
10.0219
  0
LINE
  8
0
 10
-8.2079
 20
10.0219
 11
-8
 21
10
  0
LINE
  8
0
 10
-8
 20
10
 11
-7.79208
 21
10.0219
  0
LINE
  8
0
 10
-61.7921
 20
10.0219
 11
-61.5933
 21
10.0864
  0
LINE
  8
0
 10
-61.5933
 20
10.0864
 11
-61.4122
 21
10.191
  0
LINE
  8
0
 10
-61.4122
 20
10.191
 11
-61.2569
 21
10.3309
  0
LINE
  8
0
 10
-61.2569
 20
10.3309
 11
-61.134
 21
10.5
  0
LINE
  8
0
 10
-61.134
 20
10.5
 11
-61.0489
 21
10.691
  0
LINE
  8
0
 10
-61.0489
 20
10.691
 11
-61.0055
 21
10.8955
  0
LINE
  8
0
 10
-61.0055
 20
10.8955
 11
-61.0055
 21
11.1045
  0
LINE
  8
0
 10
-61.0055
 20
11.1045
 11
-61.0489
 21
11.309
  0
LINE
  8
0
 10
-61.0489
 20
11.309
 11
-61.134
 21
11.5
  0
LINE
  8
0
 10
-61.134
 20
11.5
 11
-61.2569
 21
11.6691
  0
LINE
  8
0
 10
-61.2569
 20
11.6691
 11
-61.4122
 21
11.809
  0
LINE
  8
0
 10
-61.4122
 20
11.809
 11
-61.5933
 21
11.9135
  0
LINE
  8
0
 10
-61.5933
 20
11.9135
 11
-61.7921
 21
11.9781
  0
LINE
  8
0
 10
-61.7921
 20
11.9781
 11
-62
 21
12
  0
LINE
  8
0
 10
-62
 20
12
 11
-62.2079
 21
11.9781
  0
LINE
  8
0
 10
-62.2079
 20
11.9781
 11
-62.4067
 21
11.9135
  0
LINE
  8
0
 10
-62.4067
 20
11.9135
 11
-62.5878
 21
11.809
  0
LINE
  8
0
 10
-62.5878
 20
11.809
 11
-62.7431
 21
11.6691
  0
LINE
  8
0
 10
-62.7431
 20
11.6691
 11
-62.866
 21
11.5
  0
LINE
  8
0
 10
-62.866
 20
11.5
 11
-62.951
 21
11.309
  0
LINE
  8
0
 10
-62.951
 20
11.309
 11
-62.9945
 21
11.1045
  0
LINE
  8
0
 10
-62.9945
 20
11.1045
 11
-62.9945
 21
10.8955
  0
LINE
  8
0
 10
-62.9945
 20
10.8955
 11
-62.951
 21
10.691
  0
LINE
  8
0
 10
-62.951
 20
10.691
 11
-62.866
 21
10.5
  0
LINE
  8
0
 10
-62.866
 20
10.5
 11
-62.7431
 21
10.3309
  0
LINE
  8
0
 10
-62.7431
 20
10.3309
 11
-62.5878
 21
10.191
  0
LINE
  8
0
 10
-62.5878
 20
10.191
 11
-62.4067
 21
10.0864
  0
LINE
  8
0
 10
-62.4067
 20
10.0864
 11
-62.2079
 21
10.0219
  0
LINE
  8
0
 10
-62.2079
 20
10.0219
 11
-62
 21
10
  0
LINE
  8
0
 10
-62
 20
10
 11
-61.7921
 21
10.0219
  0
LINE
  8
0
 10
-52.7921
 20
10.0219
 11
-52.5933
 21
10.0864
  0
LINE
  8
0
 10
-52.5933
 20
10.0864
 11
-52.4122
 21
10.191
  0
LINE
  8
0
 10
-52.4122
 20
10.191
 11
-52.2569
 21
10.3309
  0
LINE
  8
0
 10
-52.2569
 20
10.3309
 11
-52.134
 21
10.5
  0
LINE
  8
0
 10
-52.134
 20
10.5
 11
-52.0489
 21
10.691
  0
LINE
  8
0
 10
-52.0489
 20
10.691
 11
-52.0055
 21
10.8955
  0
LINE
  8
0
 10
-52.0055
 20
10.8955
 11
-52.0055
 21
11.1045
  0
LINE
  8
0
 10
-52.0055
 20
11.1045
 11
-52.0489
 21
11.309
  0
LINE
  8
0
 10
-52.0489
 20
11.309
 11
-52.134
 21
11.5
  0
LINE
  8
0
 10
-52.134
 20
11.5
 11
-52.2569
 21
11.6691
  0
LINE
  8
0
 10
-52.2569
 20
11.6691
 11
-52.4122
 21
11.809
  0
LINE
  8
0
 10
-52.4122
 20
11.809
 11
-52.5933
 21
11.9135
  0
LINE
  8
0
 10
-52.5933
 20
11.9135
 11
-52.7921
 21
11.9781
  0
LINE
  8
0
 10
-52.7921
 20
11.9781
 11
-53
 21
12
  0
LINE
  8
0
 10
-53
 20
12
 11
-53.2079
 21
11.9781
  0
LINE
  8
0
 10
-53.2079
 20
11.9781
 11
-53.4067
 21
11.9135
  0
LINE
  8
0
 10
-53.4067
 20
11.9135
 11
-53.5878
 21
11.809
  0
LINE
  8
0
 10
-53.5878
 20
11.809
 11
-53.7431
 21
11.6691
  0
LINE
  8
0
 10
-53.7431
 20
11.6691
 11
-53.866
 21
11.5
  0
LINE
  8
0
 10
-53.866
 20
11.5
 11
-53.951
 21
11.309
  0
LINE
  8
0
 10
-53.951
 20
11.309
 11
-53.9945
 21
11.1045
  0
LINE
  8
0
 10
-53.9945
 20
11.1045
 11
-53.9945
 21
10.8955
  0
LINE
  8
0
 10
-53.9945
 20
10.8955
 11
-53.951
 21
10.691
  0
LINE
  8
0
 10
-53.951
 20
10.691
 11
-53.866
 21
10.5
  0
LINE
  8
0
 10
-53.866
 20
10.5
 11
-53.7431
 21
10.3309
  0
LINE
  8
0
 10
-53.7431
 20
10.3309
 11
-53.5878
 21
10.191
  0
LINE
  8
0
 10
-53.5878
 20
10.191
 11
-53.4067
 21
10.0864
  0
LINE
  8
0
 10
-53.4067
 20
10.0864
 11
-53.2079
 21
10.0219
  0
LINE
  8
0
 10
-53.2079
 20
10.0219
 11
-53
 21
10
  0
LINE
  8
0
 10
-53
 20
10
 11
-52.7921
 21
10.0219
  0
LINE
  8
0
 10
-43.7921
 20
10.0219
 11
-43.5933
 21
10.0864
  0
LINE
  8
0
 10
-43.5933
 20
10.0864
 11
-43.4122
 21
10.191
  0
LINE
  8
0
 10
-43.4122
 20
10.191
 11
-43.2569
 21
10.3309
  0
LINE
  8
0
 10
-43.2569
 20
10.3309
 11
-43.134
 21
10.5
  0
LINE
  8
0
 10
-43.134
 20
10.5
 11
-43.0489
 21
10.691
  0
LINE
  8
0
 10
-43.0489
 20
10.691
 11
-43.0055
 21
10.8955
  0
LINE
  8
0
 10
-43.0055
 20
10.8955
 11
-43.0055
 21
11.1045
  0
LINE
  8
0
 10
-43.0055
 20
11.1045
 11
-43.0489
 21
11.309
  0
LINE
  8
0
 10
-43.0489
 20
11.309
 11
-43.134
 21
11.5
  0
LINE
  8
0
 10
-43.134
 20
11.5
 11
-43.2569
 21
11.6691
  0
LINE
  8
0
 10
-43.2569
 20
11.6691
 11
-43.4122
 21
11.809
  0
LINE
  8
0
 10
-43.4122
 20
11.809
 11
-43.5933
 21
11.9135
  0
LINE
  8
0
 10
-43.5933
 20
11.9135
 11
-43.7921
 21
11.9781
  0
LINE
  8
0
 10
-43.7921
 20
11.9781
 11
-44
 21
12
  0
LINE
  8
0
 10
-44
 20
12
 11
-44.2079
 21
11.9781
  0
LINE
  8
0
 10
-44.2079
 20
11.9781
 11
-44.4067
 21
11.9135
  0
LINE
  8
0
 10
-44.4067
 20
11.9135
 11
-44.5878
 21
11.809
  0
LINE
  8
0
 10
-44.5878
 20
11.809
 11
-44.7431
 21
11.6691
  0
LINE
  8
0
 10
-44.7431
 20
11.6691
 11
-44.866
 21
11.5
  0
LINE
  8
0
 10
-44.866
 20
11.5
 11
-44.951
 21
11.309
  0
LINE
  8
0
 10
-44.951
 20
11.309
 11
-44.9945
 21
11.1045
  0
LINE
  8
0
 10
-44.9945
 20
11.1045
 11
-44.9945
 21
10.8955
  0
LINE
  8
0
 10
-44.9945
 20
10.8955
 11
-44.951
 21
10.691
  0
LINE
  8
0
 10
-44.951
 20
10.691
 11
-44.866
 21
10.5
  0
LINE
  8
0
 10
-44.866
 20
10.5
 11
-44.7431
 21
10.3309
  0
LINE
  8
0
 10
-44.7431
 20
10.3309
 11
-44.5878
 21
10.191
  0
LINE
  8
0
 10
-44.5878
 20
10.191
 11
-44.4067
 21
10.0864
  0
LINE
  8
0
 10
-44.4067
 20
10.0864
 11
-44.2079
 21
10.0219
  0
LINE
  8
0
 10
-44.2079
 20
10.0219
 11
-44
 21
10
  0
LINE
  8
0
 10
-44
 20
10
 11
-43.7921
 21
10.0219
  0
LINE
  8
0
 10
-34.7921
 20
10.0219
 11
-34.5933
 21
10.0864
  0
LINE
  8
0
 10
-34.5933
 20
10.0864
 11
-34.4122
 21
10.191
  0
LINE
  8
0
 10
-34.4122
 20
10.191
 11
-34.2569
 21
10.3309
  0
LINE
  8
0
 10
-34.2569
 20
10.3309
 11
-34.134
 21
10.5
  0
LINE
  8
0
 10
-34.134
 20
10.5
 11
-34.0489
 21
10.691
  0
LINE
  8
0
 10
-34.0489
 20
10.691
 11
-34.0055
 21
10.8955
  0
LINE
  8
0
 10
-34.0055
 20
10.8955
 11
-34.0055
 21
11.1045
  0
LINE
  8
0
 10
-34.0055
 20
11.1045
 11
-34.0489
 21
11.309
  0
LINE
  8
0
 10
-34.0489
 20
11.309
 11
-34.134
 21
11.5
  0
LINE
  8
0
 10
-34.134
 20
11.5
 11
-34.2569
 21
11.6691
  0
LINE
  8
0
 10
-34.2569
 20
11.6691
 11
-34.4122
 21
11.809
  0
LINE
  8
0
 10
-34.4122
 20
11.809
 11
-34.5933
 21
11.9135
  0
LINE
  8
0
 10
-34.5933
 20
11.9135
 11
-34.7921
 21
11.9781
  0
LINE
  8
0
 10
-34.7921
 20
11.9781
 11
-35
 21
12
  0
LINE
  8
0
 10
-35
 20
12
 11
-35.2079
 21
11.9781
  0
LINE
  8
0
 10
-35.2079
 20
11.9781
 11
-35.4067
 21
11.9135
  0
LINE
  8
0
 10
-35.4067
 20
11.9135
 11
-35.5878
 21
11.809
  0
LINE
  8
0
 10
-35.5878
 20
11.809
 11
-35.7431
 21
11.6691
  0
LINE
  8
0
 10
-35.7431
 20
11.6691
 11
-35.866
 21
11.5
  0
LINE
  8
0
 10
-35.866
 20
11.5
 11
-35.951
 21
11.309
  0
LINE
  8
0
 10
-35.951
 20
11.309
 11
-35.9945
 21
11.1045
  0
LINE
  8
0
 10
-35.9945
 20
11.1045
 11
-35.9945
 21
10.8955
  0
LINE
  8
0
 10
-35.9945
 20
10.8955
 11
-35.951
 21
10.691
  0
LINE
  8
0
 10
-35.951
 20
10.691
 11
-35.866
 21
10.5
  0
LINE
  8
0
 10
-35.866
 20
10.5
 11
-35.7431
 21
10.3309
  0
LINE
  8
0
 10
-35.7431
 20
10.3309
 11
-35.5878
 21
10.191
  0
LINE
  8
0
 10
-35.5878
 20
10.191
 11
-35.4067
 21
10.0864
  0
LINE
  8
0
 10
-35.4067
 20
10.0864
 11
-35.2079
 21
10.0219
  0
LINE
  8
0
 10
-35.2079
 20
10.0219
 11
-35
 21
10
  0
LINE
  8
0
 10
-35
 20
10
 11
-34.7921
 21
10.0219
  0
LINE
  8
0
 10
-25.7921
 20
10.0219
 11
-25.5933
 21
10.0864
  0
LINE
  8
0
 10
-25.5933
 20
10.0864
 11
-25.4122
 21
10.191
  0
LINE
  8
0
 10
-25.4122
 20
10.191
 11
-25.2569
 21
10.3309
  0
LINE
  8
0
 10
-25.2569
 20
10.3309
 11
-25.134
 21
10.5
  0
LINE
  8
0
 10
-25.134
 20
10.5
 11
-25.0489
 21
10.691
  0
LINE
  8
0
 10
-25.0489
 20
10.691
 11
-25.0055
 21
10.8955
  0
LINE
  8
0
 10
-25.0055
 20
10.8955
 11
-25.0055
 21
11.1045
  0
LINE
  8
0
 10
-25.0055
 20
11.1045
 11
-25.0489
 21
11.309
  0
LINE
  8
0
 10
-25.0489
 20
11.309
 11
-25.134
 21
11.5
  0
LINE
  8
0
 10
-25.134
 20
11.5
 11
-25.2569
 21
11.6691
  0
LINE
  8
0
 10
-25.2569
 20
11.6691
 11
-25.4122
 21
11.809
  0
LINE
  8
0
 10
-25.4122
 20
11.809
 11
-25.5933
 21
11.9135
  0
LINE
  8
0
 10
-25.5933
 20
11.9135
 11
-25.7921
 21
11.9781
  0
LINE
  8
0
 10
-25.7921
 20
11.9781
 11
-26
 21
12
  0
LINE
  8
0
 10
-26
 20
12
 11
-26.2079
 21
11.9781
  0
LINE
  8
0
 10
-26.2079
 20
11.9781
 11
-26.4067
 21
11.9135
  0
LINE
  8
0
 10
-26.4067
 20
11.9135
 11
-26.5878
 21
11.809
  0
LINE
  8
0
 10
-26.5878
 20
11.809
 11
-26.7431
 21
11.6691
  0
LINE
  8
0
 10
-26.7431
 20
11.6691
 11
-26.866
 21
11.5
  0
LINE
  8
0
 10
-26.866
 20
11.5
 11
-26.951
 21
11.309
  0
LINE
  8
0
 10
-26.951
 20
11.309
 11
-26.9945
 21
11.1045
  0
LINE
  8
0
 10
-26.9945
 20
11.1045
 11
-26.9945
 21
10.8955
  0
LINE
  8
0
 10
-26.9945
 20
10.8955
 11
-26.951
 21
10.691
  0
LINE
  8
0
 10
-26.951
 20
10.691
 11
-26.866
 21
10.5
  0
LINE
  8
0
 10
-26.866
 20
10.5
 11
-26.7431
 21
10.3309
  0
LINE
  8
0
 10
-26.7431
 20
10.3309
 11
-26.5878
 21
10.191
  0
LINE
  8
0
 10
-26.5878
 20
10.191
 11
-26.4067
 21
10.0864
  0
LINE
  8
0
 10
-26.4067
 20
10.0864
 11
-26.2079
 21
10.0219
  0
LINE
  8
0
 10
-26.2079
 20
10.0219
 11
-26
 21
10
  0
LINE
  8
0
 10
-26
 20
10
 11
-25.7921
 21
10.0219
  0
ENDSEC
  0
SECTION
  2
OBJECTS
  0
DICTIONARY
  0
ENDSEC
  0
EOF
