  0
SECTION
  2
BLOCKS
  0
ENDSEC
  0
SECTION
  2
ENTITIES
  0
LINE
  8
0
 10
-16.6881
 20
9.53278
 11
-16.3899
 21
9.62967
  0
LINE
  8
0
 10
-16.3899
 20
9.62967
 11
-16.1183
 21
9.78647
  0
LINE
  8
0
 10
-16.1183
 20
9.78647
 11
-15.8853
 21
9.99629
  0
LINE
  8
0
 10
-15.8853
 20
9.99629
 11
-15.701
 21
10.25
  0
LINE
  8
0
 10
-15.701
 20
10.25
 11
-15.5734
 21
10.5365
  0
LINE
  8
0
 10
-15.5734
 20
10.5365
 11
-15.5082
 21
10.8432
  0
LINE
  8
0
 10
-15.5082
 20
10.8432
 11
-15.5082
 21
11.1568
  0
LINE
  8
0
 10
-15.5082
 20
11.1568
 11
-15.5734
 21
11.4635
  0
LINE
  8
0
 10
-15.5734
 20
11.4635
 11
-15.701
 21
11.75
  0
LINE
  8
0
 10
-15.701
 20
11.75
 11
-15.8853
 21
12.0037
  0
LINE
  8
0
 10
-15.8853
 20
12.0037
 11
-16.1183
 21
12.2135
  0
LINE
  8
0
 10
-16.1183
 20
12.2135
 11
-16.3899
 21
12.3703
  0
LINE
  8
0
 10
-16.3899
 20
12.3703
 11
-16.6881
 21
12.4672
  0
LINE
  8
0
 10
-16.6881
 20
12.4672
 11
-17
 21
12.5
  0
LINE
  8
0
 10
-17
 20
12.5
 11
-17.3119
 21
12.4672
  0
LINE
  8
0
 10
-17.3119
 20
12.4672
 11
-17.6101
 21
12.3703
  0
LINE
  8
0
 10
-17.6101
 20
12.3703
 11
-17.8817
 21
12.2135
  0
LINE
  8
0
 10
-17.8817
 20
12.2135
 11
-18.1147
 21
12.0037
  0
LINE
  8
0
 10
-18.1147
 20
12.0037
 11
-18.299
 21
11.75
  0
LINE
  8
0
 10
-18.299
 20
11.75
 11
-18.4266
 21
11.4635
  0
LINE
  8
0
 10
-18.4266
 20
11.4635
 11
-18.4918
 21
11.1568
  0
LINE
  8
0
 10
-18.4918
 20
11.1568
 11
-18.4918
 21
10.8432
  0
LINE
  8
0
 10
-18.4918
 20
10.8432
 11
-18.4266
 21
10.5365
  0
LINE
  8
0
 10
-18.4266
 20
10.5365
 11
-18.299
 21
10.25
  0
LINE
  8
0
 10
-18.299
 20
10.25
 11
-18.1147
 21
9.99629
  0
LINE
  8
0
 10
-18.1147
 20
9.99629
 11
-17.8817
 21
9.78647
  0
LINE
  8
0
 10
-17.8817
 20
9.78647
 11
-17.6101
 21
9.62967
  0
LINE
  8
0
 10
-17.6101
 20
9.62967
 11
-17.3119
 21
9.53278
  0
LINE
  8
0
 10
-17.3119
 20
9.53278
 11
-17
 21
9.5
  0
LINE
  8
0
 10
-17
 20
9.5
 11
-16.6881
 21
9.53278
  0
LINE
  8
0
 10
-61.6881
 20
9.53278
 11
-61.3899
 21
9.62967
  0
LINE
  8
0
 10
-61.3899
 20
9.62967
 11
-61.1183
 21
9.78647
  0
LINE
  8
0
 10
-61.1183
 20
9.78647
 11
-60.8853
 21
9.99629
  0
LINE
  8
0
 10
-60.8853
 20
9.99629
 11
-60.701
 21
10.25
  0
LINE
  8
0
 10
-60.701
 20
10.25
 11
-60.5734
 21
10.5365
  0
LINE
  8
0
 10
-60.5734
 20
10.5365
 11
-60.5082
 21
10.8432
  0
LINE
  8
0
 10
-60.5082
 20
10.8432
 11
-60.5082
 21
11.1568
  0
LINE
  8
0
 10
-60.5082
 20
11.1568
 11
-60.5734
 21
11.4635
  0
LINE
  8
0
 10
-60.5734
 20
11.4635
 11
-60.701
 21
11.75
  0
LINE
  8
0
 10
-60.701
 20
11.75
 11
-60.8853
 21
12.0037
  0
LINE
  8
0
 10
-60.8853
 20
12.0037
 11
-61.1183
 21
12.2135
  0
LINE
  8
0
 10
-61.1183
 20
12.2135
 11
-61.3899
 21
12.3703
  0
LINE
  8
0
 10
-61.3899
 20
12.3703
 11
-61.6881
 21
12.4672
  0
LINE
  8
0
 10
-61.6881
 20
12.4672
 11
-62
 21
12.5
  0
LINE
  8
0
 10
-62
 20
12.5
 11
-62.3119
 21
12.4672
  0
LINE
  8
0
 10
-62.3119
 20
12.4672
 11
-62.6101
 21
12.3703
  0
LINE
  8
0
 10
-62.6101
 20
12.3703
 11
-62.8817
 21
12.2135
  0
LINE
  8
0
 10
-62.8817
 20
12.2135
 11
-63.1147
 21
12.0037
  0
LINE
  8
0
 10
-63.1147
 20
12.0037
 11
-63.299
 21
11.75
  0
LINE
  8
0
 10
-63.299
 20
11.75
 11
-63.4266
 21
11.4635
  0
LINE
  8
0
 10
-63.4266
 20
11.4635
 11
-63.4918
 21
11.1568
  0
LINE
  8
0
 10
-63.4918
 20
11.1568
 11
-63.4918
 21
10.8432
  0
LINE
  8
0
 10
-63.4918
 20
10.8432
 11
-63.4266
 21
10.5365
  0
LINE
  8
0
 10
-63.4266
 20
10.5365
 11
-63.299
 21
10.25
  0
LINE
  8
0
 10
-63.299
 20
10.25
 11
-63.1147
 21
9.99629
  0
LINE
  8
0
 10
-63.1147
 20
9.99629
 11
-62.8817
 21
9.78647
  0
LINE
  8
0
 10
-62.8817
 20
9.78647
 11
-62.6101
 21
9.62967
  0
LINE
  8
0
 10
-62.6101
 20
9.62967
 11
-62.3119
 21
9.53278
  0
LINE
  8
0
 10
-62.3119
 20
9.53278
 11
-62
 21
9.5
  0
LINE
  8
0
 10
-62
 20
9.5
 11
-61.6881
 21
9.53278
  0
LINE
  8
0
 10
-70.6881
 20
9.53278
 11
-70.3899
 21
9.62967
  0
LINE
  8
0
 10
-70.3899
 20
9.62967
 11
-70.1183
 21
9.78647
  0
LINE
  8
0
 10
-70.1183
 20
9.78647
 11
-69.8853
 21
9.99629
  0
LINE
  8
0
 10
-69.8853
 20
9.99629
 11
-69.701
 21
10.25
  0
LINE
  8
0
 10
-69.701
 20
10.25
 11
-69.5734
 21
10.5365
  0
LINE
  8
0
 10
-69.5734
 20
10.5365
 11
-69.5082
 21
10.8432
  0
LINE
  8
0
 10
-69.5082
 20
10.8432
 11
-69.5082
 21
11.1568
  0
LINE
  8
0
 10
-69.5082
 20
11.1568
 11
-69.5734
 21
11.4635
  0
LINE
  8
0
 10
-69.5734
 20
11.4635
 11
-69.701
 21
11.75
  0
LINE
  8
0
 10
-69.701
 20
11.75
 11
-69.8853
 21
12.0037
  0
LINE
  8
0
 10
-69.8853
 20
12.0037
 11
-70.1183
 21
12.2135
  0
LINE
  8
0
 10
-70.1183
 20
12.2135
 11
-70.3899
 21
12.3703
  0
LINE
  8
0
 10
-70.3899
 20
12.3703
 11
-70.6881
 21
12.4672
  0
LINE
  8
0
 10
-70.6881
 20
12.4672
 11
-71
 21
12.5
  0
LINE
  8
0
 10
-71
 20
12.5
 11
-71.3119
 21
12.4672
  0
LINE
  8
0
 10
-71.3119
 20
12.4672
 11
-71.6101
 21
12.3703
  0
LINE
  8
0
 10
-71.6101
 20
12.3703
 11
-71.8817
 21
12.2135
  0
LINE
  8
0
 10
-71.8817
 20
12.2135
 11
-72.1147
 21
12.0037
  0
LINE
  8
0
 10
-72.1147
 20
12.0037
 11
-72.299
 21
11.75
  0
LINE
  8
0
 10
-72.299
 20
11.75
 11
-72.4266
 21
11.4635
  0
LINE
  8
0
 10
-72.4266
 20
11.4635
 11
-72.4918
 21
11.1568
  0
LINE
  8
0
 10
-72.4918
 20
11.1568
 11
-72.4918
 21
10.8432
  0
LINE
  8
0
 10
-72.4918
 20
10.8432
 11
-72.4266
 21
10.5365
  0
LINE
  8
0
 10
-72.4266
 20
10.5365
 11
-72.299
 21
10.25
  0
LINE
  8
0
 10
-72.299
 20
10.25
 11
-72.1147
 21
9.99629
  0
LINE
  8
0
 10
-72.1147
 20
9.99629
 11
-71.8817
 21
9.78647
  0
LINE
  8
0
 10
-71.8817
 20
9.78647
 11
-71.6101
 21
9.62967
  0
LINE
  8
0
 10
-71.6101
 20
9.62967
 11
-71.3119
 21
9.53278
  0
LINE
  8
0
 10
-71.3119
 20
9.53278
 11
-71
 21
9.5
  0
LINE
  8
0
 10
-71
 20
9.5
 11
-70.6881
 21
9.53278
  0
LINE
  8
0
 10
-52.6881
 20
9.53278
 11
-52.3899
 21
9.62967
  0
LINE
  8
0
 10
-52.3899
 20
9.62967
 11
-52.1183
 21
9.78647
  0
LINE
  8
0
 10
-52.1183
 20
9.78647
 11
-51.8853
 21
9.99629
  0
LINE
  8
0
 10
-51.8853
 20
9.99629
 11
-51.701
 21
10.25
  0
LINE
  8
0
 10
-51.701
 20
10.25
 11
-51.5734
 21
10.5365
  0
LINE
  8
0
 10
-51.5734
 20
10.5365
 11
-51.5082
 21
10.8432
  0
LINE
  8
0
 10
-51.5082
 20
10.8432
 11
-51.5082
 21
11.1568
  0
LINE
  8
0
 10
-51.5082
 20
11.1568
 11
-51.5734
 21
11.4635
  0
LINE
  8
0
 10
-51.5734
 20
11.4635
 11
-51.701
 21
11.75
  0
LINE
  8
0
 10
-51.701
 20
11.75
 11
-51.8853
 21
12.0037
  0
LINE
  8
0
 10
-51.8853
 20
12.0037
 11
-52.1183
 21
12.2135
  0
LINE
  8
0
 10
-52.1183
 20
12.2135
 11
-52.3899
 21
12.3703
  0
LINE
  8
0
 10
-52.3899
 20
12.3703
 11
-52.6881
 21
12.4672
  0
LINE
  8
0
 10
-52.6881
 20
12.4672
 11
-53
 21
12.5
  0
LINE
  8
0
 10
-53
 20
12.5
 11
-53.3119
 21
12.4672
  0
LINE
  8
0
 10
-53.3119
 20
12.4672
 11
-53.6101
 21
12.3703
  0
LINE
  8
0
 10
-53.6101
 20
12.3703
 11
-53.8817
 21
12.2135
  0
LINE
  8
0
 10
-53.8817
 20
12.2135
 11
-54.1147
 21
12.0037
  0
LINE
  8
0
 10
-54.1147
 20
12.0037
 11
-54.299
 21
11.75
  0
LINE
  8
0
 10
-54.299
 20
11.75
 11
-54.4266
 21
11.4635
  0
LINE
  8
0
 10
-54.4266
 20
11.4635
 11
-54.4918
 21
11.1568
  0
LINE
  8
0
 10
-54.4918
 20
11.1568
 11
-54.4918
 21
10.8432
  0
LINE
  8
0
 10
-54.4918
 20
10.8432
 11
-54.4266
 21
10.5365
  0
LINE
  8
0
 10
-54.4266
 20
10.5365
 11
-54.299
 21
10.25
  0
LINE
  8
0
 10
-54.299
 20
10.25
 11
-54.1147
 21
9.99629
  0
LINE
  8
0
 10
-54.1147
 20
9.99629
 11
-53.8817
 21
9.78647
  0
LINE
  8
0
 10
-53.8817
 20
9.78647
 11
-53.6101
 21
9.62967
  0
LINE
  8
0
 10
-53.6101
 20
9.62967
 11
-53.3119
 21
9.53278
  0
LINE
  8
0
 10
-53.3119
 20
9.53278
 11
-53
 21
9.5
  0
LINE
  8
0
 10
-53
 20
9.5
 11
-52.6881
 21
9.53278
  0
LINE
  8
0
 10
-34.6881
 20
9.53278
 11
-34.3899
 21
9.62967
  0
LINE
  8
0
 10
-34.3899
 20
9.62967
 11
-34.1183
 21
9.78647
  0
LINE
  8
0
 10
-34.1183
 20
9.78647
 11
-33.8853
 21
9.99629
  0
LINE
  8
0
 10
-33.8853
 20
9.99629
 11
-33.701
 21
10.25
  0
LINE
  8
0
 10
-33.701
 20
10.25
 11
-33.5734
 21
10.5365
  0
LINE
  8
0
 10
-33.5734
 20
10.5365
 11
-33.5082
 21
10.8432
  0
LINE
  8
0
 10
-33.5082
 20
10.8432
 11
-33.5082
 21
11.1568
  0
LINE
  8
0
 10
-33.5082
 20
11.1568
 11
-33.5734
 21
11.4635
  0
LINE
  8
0
 10
-33.5734
 20
11.4635
 11
-33.701
 21
11.75
  0
LINE
  8
0
 10
-33.701
 20
11.75
 11
-33.8853
 21
12.0037
  0
LINE
  8
0
 10
-33.8853
 20
12.0037
 11
-34.1183
 21
12.2135
  0
LINE
  8
0
 10
-34.1183
 20
12.2135
 11
-34.3899
 21
12.3703
  0
LINE
  8
0
 10
-34.3899
 20
12.3703
 11
-34.6881
 21
12.4672
  0
LINE
  8
0
 10
-34.6881
 20
12.4672
 11
-35
 21
12.5
  0
LINE
  8
0
 10
-35
 20
12.5
 11
-35.3119
 21
12.4672
  0
LINE
  8
0
 10
-35.3119
 20
12.4672
 11
-35.6101
 21
12.3703
  0
LINE
  8
0
 10
-35.6101
 20
12.3703
 11
-35.8817
 21
12.2135
  0
LINE
  8
0
 10
-35.8817
 20
12.2135
 11
-36.1147
 21
12.0037
  0
LINE
  8
0
 10
-36.1147
 20
12.0037
 11
-36.299
 21
11.75
  0
LINE
  8
0
 10
-36.299
 20
11.75
 11
-36.4266
 21
11.4635
  0
LINE
  8
0
 10
-36.4266
 20
11.4635
 11
-36.4918
 21
11.1568
  0
LINE
  8
0
 10
-36.4918
 20
11.1568
 11
-36.4918
 21
10.8432
  0
LINE
  8
0
 10
-36.4918
 20
10.8432
 11
-36.4266
 21
10.5365
  0
LINE
  8
0
 10
-36.4266
 20
10.5365
 11
-36.299
 21
10.25
  0
LINE
  8
0
 10
-36.299
 20
10.25
 11
-36.1147
 21
9.99629
  0
LINE
  8
0
 10
-36.1147
 20
9.99629
 11
-35.8817
 21
9.78647
  0
LINE
  8
0
 10
-35.8817
 20
9.78647
 11
-35.6101
 21
9.62967
  0
LINE
  8
0
 10
-35.6101
 20
9.62967
 11
-35.3119
 21
9.53278
  0
LINE
  8
0
 10
-35.3119
 20
9.53278
 11
-35
 21
9.5
  0
LINE
  8
0
 10
-35
 20
9.5
 11
-34.6881
 21
9.53278
  0
LINE
  8
0
 10
-25.6881
 20
9.53278
 11
-25.3899
 21
9.62967
  0
LINE
  8
0
 10
-25.3899
 20
9.62967
 11
-25.1183
 21
9.78647
  0
LINE
  8
0
 10
-25.1183
 20
9.78647
 11
-24.8853
 21
9.99629
  0
LINE
  8
0
 10
-24.8853
 20
9.99629
 11
-24.701
 21
10.25
  0
LINE
  8
0
 10
-24.701
 20
10.25
 11
-24.5734
 21
10.5365
  0
LINE
  8
0
 10
-24.5734
 20
10.5365
 11
-24.5082
 21
10.8432
  0
LINE
  8
0
 10
-24.5082
 20
10.8432
 11
-24.5082
 21
11.1568
  0
LINE
  8
0
 10
-24.5082
 20
11.1568
 11
-24.5734
 21
11.4635
  0
LINE
  8
0
 10
-24.5734
 20
11.4635
 11
-24.701
 21
11.75
  0
LINE
  8
0
 10
-24.701
 20
11.75
 11
-24.8853
 21
12.0037
  0
LINE
  8
0
 10
-24.8853
 20
12.0037
 11
-25.1183
 21
12.2135
  0
LINE
  8
0
 10
-25.1183
 20
12.2135
 11
-25.3899
 21
12.3703
  0
LINE
  8
0
 10
-25.3899
 20
12.3703
 11
-25.6881
 21
12.4672
  0
LINE
  8
0
 10
-25.6881
 20
12.4672
 11
-26
 21
12.5
  0
LINE
  8
0
 10
-26
 20
12.5
 11
-26.3119
 21
12.4672
  0
LINE
  8
0
 10
-26.3119
 20
12.4672
 11
-26.6101
 21
12.3703
  0
LINE
  8
0
 10
-26.6101
 20
12.3703
 11
-26.8817
 21
12.2135
  0
LINE
  8
0
 10
-26.8817
 20
12.2135
 11
-27.1147
 21
12.0037
  0
LINE
  8
0
 10
-27.1147
 20
12.0037
 11
-27.299
 21
11.75
  0
LINE
  8
0
 10
-27.299
 20
11.75
 11
-27.4266
 21
11.4635
  0
LINE
  8
0
 10
-27.4266
 20
11.4635
 11
-27.4918
 21
11.1568
  0
LINE
  8
0
 10
-27.4918
 20
11.1568
 11
-27.4918
 21
10.8432
  0
LINE
  8
0
 10
-27.4918
 20
10.8432
 11
-27.4266
 21
10.5365
  0
LINE
  8
0
 10
-27.4266
 20
10.5365
 11
-27.299
 21
10.25
  0
LINE
  8
0
 10
-27.299
 20
10.25
 11
-27.1147
 21
9.99629
  0
LINE
  8
0
 10
-27.1147
 20
9.99629
 11
-26.8817
 21
9.78647
  0
LINE
  8
0
 10
-26.8817
 20
9.78647
 11
-26.6101
 21
9.62967
  0
LINE
  8
0
 10
-26.6101
 20
9.62967
 11
-26.3119
 21
9.53278
  0
LINE
  8
0
 10
-26.3119
 20
9.53278
 11
-26
 21
9.5
  0
LINE
  8
0
 10
-26
 20
9.5
 11
-25.6881
 21
9.53278
  0
LINE
  8
0
 10
-43.6881
 20
9.53278
 11
-43.3899
 21
9.62967
  0
LINE
  8
0
 10
-43.3899
 20
9.62967
 11
-43.1183
 21
9.78647
  0
LINE
  8
0
 10
-43.1183
 20
9.78647
 11
-42.8853
 21
9.99629
  0
LINE
  8
0
 10
-42.8853
 20
9.99629
 11
-42.701
 21
10.25
  0
LINE
  8
0
 10
-42.701
 20
10.25
 11
-42.5734
 21
10.5365
  0
LINE
  8
0
 10
-42.5734
 20
10.5365
 11
-42.5082
 21
10.8432
  0
LINE
  8
0
 10
-42.5082
 20
10.8432
 11
-42.5082
 21
11.1568
  0
LINE
  8
0
 10
-42.5082
 20
11.1568
 11
-42.5734
 21
11.4635
  0
LINE
  8
0
 10
-42.5734
 20
11.4635
 11
-42.701
 21
11.75
  0
LINE
  8
0
 10
-42.701
 20
11.75
 11
-42.8853
 21
12.0037
  0
LINE
  8
0
 10
-42.8853
 20
12.0037
 11
-43.1183
 21
12.2135
  0
LINE
  8
0
 10
-43.1183
 20
12.2135
 11
-43.3899
 21
12.3703
  0
LINE
  8
0
 10
-43.3899
 20
12.3703
 11
-43.6881
 21
12.4672
  0
LINE
  8
0
 10
-43.6881
 20
12.4672
 11
-44
 21
12.5
  0
LINE
  8
0
 10
-44
 20
12.5
 11
-44.3119
 21
12.4672
  0
LINE
  8
0
 10
-44.3119
 20
12.4672
 11
-44.6101
 21
12.3703
  0
LINE
  8
0
 10
-44.6101
 20
12.3703
 11
-44.8817
 21
12.2135
  0
LINE
  8
0
 10
-44.8817
 20
12.2135
 11
-45.1147
 21
12.0037
  0
LINE
  8
0
 10
-45.1147
 20
12.0037
 11
-45.299
 21
11.75
  0
LINE
  8
0
 10
-45.299
 20
11.75
 11
-45.4266
 21
11.4635
  0
LINE
  8
0
 10
-45.4266
 20
11.4635
 11
-45.4918
 21
11.1568
  0
LINE
  8
0
 10
-45.4918
 20
11.1568
 11
-45.4918
 21
10.8432
  0
LINE
  8
0
 10
-45.4918
 20
10.8432
 11
-45.4266
 21
10.5365
  0
LINE
  8
0
 10
-45.4266
 20
10.5365
 11
-45.299
 21
10.25
  0
LINE
  8
0
 10
-45.299
 20
10.25
 11
-45.1147
 21
9.99629
  0
LINE
  8
0
 10
-45.1147
 20
9.99629
 11
-44.8817
 21
9.78647
  0
LINE
  8
0
 10
-44.8817
 20
9.78647
 11
-44.6101
 21
9.62967
  0
LINE
  8
0
 10
-44.6101
 20
9.62967
 11
-44.3119
 21
9.53278
  0
LINE
  8
0
 10
-44.3119
 20
9.53278
 11
-44
 21
9.5
  0
LINE
  8
0
 10
-44
 20
9.5
 11
-43.6881
 21
9.53278
  0
LINE
  8
0
 10
-7.68813
 20
9.53278
 11
-7.38989
 21
9.62967
  0
LINE
  8
0
 10
-7.38989
 20
9.62967
 11
-7.11832
 21
9.78647
  0
LINE
  8
0
 10
-7.11832
 20
9.78647
 11
-6.88527
 21
9.99629
  0
LINE
  8
0
 10
-6.88527
 20
9.99629
 11
-6.70096
 21
10.25
  0
LINE
  8
0
 10
-6.70096
 20
10.25
 11
-6.57341
 21
10.5365
  0
LINE
  8
0
 10
-6.57341
 20
10.5365
 11
-6.50821
 21
10.8432
  0
LINE
  8
0
 10
-6.50821
 20
10.8432
 11
-6.50821
 21
11.1568
  0
LINE
  8
0
 10
-6.50821
 20
11.1568
 11
-6.57341
 21
11.4635
  0
LINE
  8
0
 10
-6.57341
 20
11.4635
 11
-6.70096
 21
11.75
  0
LINE
  8
0
 10
-6.70096
 20
11.75
 11
-6.88527
 21
12.0037
  0
LINE
  8
0
 10
-6.88527
 20
12.0037
 11
-7.11832
 21
12.2135
  0
LINE
  8
0
 10
-7.11832
 20
12.2135
 11
-7.38989
 21
12.3703
  0
LINE
  8
0
 10
-7.38989
 20
12.3703
 11
-7.68813
 21
12.4672
  0
LINE
  8
0
 10
-7.68813
 20
12.4672
 11
-8
 21
12.5
  0
LINE
  8
0
 10
-8
 20
12.5
 11
-8.31186
 21
12.4672
  0
LINE
  8
0
 10
-8.31186
 20
12.4672
 11
-8.61009
 21
12.3703
  0
LINE
  8
0
 10
-8.61009
 20
12.3703
 11
-8.88167
 21
12.2135
  0
LINE
  8
0
 10
-8.88167
 20
12.2135
 11
-9.11472
 21
12.0037
  0
LINE
  8
0
 10
-9.11472
 20
12.0037
 11
-9.29903
 21
11.75
  0
LINE
  8
0
 10
-9.29903
 20
11.75
 11
-9.42657
 21
11.4635
  0
LINE
  8
0
 10
-9.42657
 20
11.4635
 11
-9.49178
 21
11.1568
  0
LINE
  8
0
 10
-9.49178
 20
11.1568
 11
-9.49178
 21
10.8432
  0
LINE
  8
0
 10
-9.49178
 20
10.8432
 11
-9.42657
 21
10.5365
  0
LINE
  8
0
 10
-9.42657
 20
10.5365
 11
-9.29903
 21
10.25
  0
LINE
  8
0
 10
-9.29903
 20
10.25
 11
-9.11472
 21
9.99629
  0
LINE
  8
0
 10
-9.11472
 20
9.99629
 11
-8.88167
 21
9.78647
  0
LINE
  8
0
 10
-8.88167
 20
9.78647
 11
-8.61009
 21
9.62967
  0
LINE
  8
0
 10
-8.61009
 20
9.62967
 11
-8.31186
 21
9.53278
  0
LINE
  8
0
 10
-8.31186
 20
9.53278
 11
-8
 21
9.5
  0
LINE
  8
0
 10
-8
 20
9.5
 11
-7.68813
 21
9.53278
  0
ENDSEC
  0
SECTION
  2
OBJECTS
  0
DICTIONARY
  0
ENDSEC
  0
EOF
