  0
SECTION
  2
HEADER
  9
$ACADVER
  1
AC1014
  9
$HANDSEED
  5
FFFF
  9
$MEASUREMENT
 70
     1
  0
ENDSEC
  0
SECTION
  2
TABLES
  0
TABLE
  2
VPORT
  5
8
330
0
100
AcDbSymbolTable
 70
     4
  0
VPORT
  5
2E
330
8
100
AcDbSymbolTableRecord
100
AcDbViewportTableRecord
  2
*ACTIVE
 70
     0
 10
0.0
 20
0.0
 11
1.0
 21
1.0
 12
210.0
 22
148.5
 13
0.0
 23
0.0
 14
10.0
 24
10.0
 15
10.0
 25
10.0
 16
0.0
 26
0.0
 36
1.0
 17
0.0
 27
0.0
 37
0.0
 40
341.0
 41
1.24
 42
50.0
 43
0.0
 44
0.0
 50
0.0
 51
0.0
 71
     0
 72
   100
 73
     1
 74
     3
 75
     0
 76
     0
 77
     0
 78
     0
  0
ENDTAB
  0
TABLE
  2
LTYPE
  5
5
330
0
100
AcDbSymbolTable
 70
     1
  0
LTYPE
  5
14
330
5
100
AcDbSymbolTableRecord
100
AcDbLinetypeTableRecord
  2
BYBLOCK
 70
     0
  3

 72
    65
 73
     0
 40
0.0
  0
LTYPE
  5
15
330
5
100
AcDbSymbolTableRecord
100
AcDbLinetypeTableRecord
  2
BYLAYER
 70
     0
  3

 72
    65
 73
     0
 40
0.0
  0
LTYPE
  5
16
330
5
100
AcDbSymbolTableRecord
100
AcDbLinetypeTableRecord
  2
CONTINUOUS
 70
     0
  3
Solid line
 72
    65
 73
     0
 40
0.0
  0
ENDTAB
  0
TABLE
  2
LAYER
  5
2
100
AcDbSymbolTable
 70
2
  0
LAYER
  5
50
100
AcDbSymbolTableRecord
100
AcDbLayerTableRecord
  2
0
 70
0
  6
CONTINUOUS
  0
LAYER
  5
51
100
AcDbSymbolTableRecord
100
AcDbLayerTableRecord
  2
Layer_1
 70
0
  6
CONTINUOUS
  0
ENDTAB
  0
TABLE
  2
STYLE
  5
3
330
0
100
AcDbSymbolTable
 70
     1
  0
STYLE
  5
11
330
3
100
AcDbSymbolTableRecord
100
AcDbTextStyleTableRecord
  2
STANDARD
 70
     0
 40
0.0
 41
1.0
 50
0.0
 71
     0
 42
2.5
  3
txt
  4

  0
ENDTAB
  0
TABLE
  2
VIEW
  5
6
330
0
100
AcDbSymbolTable
 70
     0
  0
ENDTAB
  0
TABLE
  2
UCS
  5
7
330
0
100
AcDbSymbolTable
 70
     0
  0
ENDTAB
  0
TABLE
  2
APPID
  5
9
330
0
100
AcDbSymbolTable
 70
     2
  0
APPID
  5
12
330
9
100
AcDbSymbolTableRecord
100
AcDbRegAppTableRecord
  2
ACAD
 70
     0
  0
ENDTAB
  0
TABLE
  2
DIMSTYLE
  5
A
330
0
100
AcDbSymbolTable
 70
     1
  0
DIMSTYLE
105
27
330
A
100
AcDbSymbolTableRecord
100
AcDbDimStyleTableRecord
  2
ISO-25
 70
     0
  3

  4

  5

  6

  7

 40
1.0
 41
2.5
 42
0.625
 43
3.75
 44
1.25
 45
0.0
 46
0.0
 47
0.0
 48
0.0
140
2.5
141
2.5
142
0.0
143
0.03937007874016
144
1.0
145
0.0
146
1.0
147
0.625
 71
     0
 72
     0
 73
     0
 74
     0
 75
     0
 76
     0
 77
     1
 78
     8
170
     0
171
     3
172
     1
173
     0
174
     0
175
     0
176
     0
177
     0
178
     0
270
     2
271
     2
272
     2
273
     2
274
     3
340
11
275
     0
280
     0
281
     0
282
     0
283
     0
284
     8
285
     0
286
     0
287
     3
288
     0
  0
ENDTAB
  0
TABLE
  2
BLOCK_RECORD
  5
1
330
0
100
AcDbSymbolTable
 70
     1
  0
BLOCK_RECORD
  5
1F
330
1
100
AcDbSymbolTableRecord
100
AcDbBlockTableRecord
  2
*MODEL_SPACE
  0
BLOCK_RECORD
  5
1B
330
1
100
AcDbSymbolTableRecord
100
AcDbBlockTableRecord
  2
*PAPER_SPACE
  0
ENDTAB
  0
ENDSEC
  0
SECTION
  2
BLOCKS
  0
BLOCK
  5
20
330
1F
100
AcDbEntity
  8
0
100
AcDbBlockBegin
  2
*MODEL_SPACE
 70
     0
 10
0.0
 20
0.0
 30
0.0
  3
*MODEL_SPACE
  1

  0
ENDBLK
  5
21
330
1F
100
AcDbEntity
  8
0
100
AcDbBlockEnd
  0
BLOCK
  5
1C
330
1B
100
AcDbEntity
 67
     1
  8
0
100
AcDbBlockBegin
  2
*PAPER_SPACE
  1

  0
ENDBLK
  5
1D
330
1B
100
AcDbEntity
 67
     1
  8
0
100
AcDbBlockEnd
  0
ENDSEC
  0
SECTION
  2
ENTITIES
  0
LWPOLYLINE
  5
100
100
AcDbEntity
  8
Layer_1
 62
5
100
AcDbPolyline
 90
58
 70
1
 10
272.803670
 20
1.131000
 30
0.0
 10
272.148790
 20
2.839400
 30
0.0
 10
271.674580
 20
4.606920
 30
0.0
 10
271.388950
 20
6.414300
 30
0.0
 10
271.293150
 20
8.241780
 30
0.0
 10
271.388950
 20
10.069270
 30
0.0
 10
271.674580
 20
11.876650
 30
0.0
 10
272.148790
 20
13.644200
 30
0.0
 10
272.803670
 20
15.352570
 30
0.0
 10
273.634290
 20
16.983080
 30
0.0
 10
274.629620
 20
18.517700
 30
0.0
 10
275.780660
 20
19.939900
 30
0.0
 10
277.073500
 20
21.233790
 30
0.0
 10
278.495090
 20
22.385460
 30
0.0
 10
280.028500
 20
23.382060
 30
0.0
 10
281.657750
 20
24.212830
 30
0.0
 10
283.364880
 20
24.868690
 30
0.0
 10
285.131900
 20
25.342320
 30
0.0
 10
286.937850
 20
25.628410
 30
0.0
 10
288.763810
 20
25.724410
 30
0.0
 10
290.589730
 20
25.628410
 30
0.0
 10
292.395680
 20
25.342320
 30
0.0
 10
294.162690
 20
24.868690
 30
0.0
 10
295.869820
 20
24.212830
 30
0.0
 10
296.750330
 20
23.763850
 30
0.0
 10
296.750330
 20
473.432850
 30
0.0
 10
295.502430
 20
472.622640
 30
0.0
 10
293.873170
 20
471.791490
 30
0.0
 10
292.166080
 20
471.136120
 30
0.0
 10
290.399020
 20
470.661630
 30
0.0
 10
288.593070
 20
470.375910
 30
0.0
 10
286.767160
 20
470.279910
 30
0.0
 10
284.941250
 20
470.375910
 30
0.0
 10
283.135290
 20
470.661630
 30
0.0
 10
281.368240
 20
471.136120
 30
0.0
 10
279.661140
 20
471.791490
 30
0.0
 10
278.031880
 20
472.622640
 30
0.0
 10
276.498470
 20
473.618640
 30
0.0
 10
275.076850
 20
474.770500
 30
0.0
 10
273.784010
 20
476.064200
 30
0.0
 10
272.632970
 20
477.486770
 30
0.0
 10
271.637640
 20
479.021250
 30
0.0
 10
270.807050
 20
480.651610
 30
0.0
 10
270.152150
 20
482.359930
 30
0.0
 10
269.677930
 20
484.128160
 30
0.0
 10
269.392300
 20
485.935350
 30
0.0
 10
269.296500
 20
487.762500
 30
0.0
 10
269.392300
 20
489.589690
 30
0.0
 10
269.677930
 20
491.396880
 30
0.0
 10
270.152150
 20
493.165110
 30
0.0
 10
270.807050
 20
494.873430
 30
0.0
 10
271.637640
 20
496.503790
 30
0.0
 10
272.632970
 20
498.038270
 30
0.0
 10
273.784010
 20
499.460840
 30
0.0
 10
274.073410
 20
499.750340
 30
0.0
 10
0.249665
 20
499.750340
 30
0.0
 10
0.249665
 20
0.249670
 30
0.0
 10
273.251920
 20
0.249670
 30
0.0
  0
ENDSEC
  0
SECTION
  2
OBJECTS
  0
DICTIONARY
  5
C
330
0
100
AcDbDictionary
  3
ACAD_GROUP
350
D
  3
ACAD_MLINESTYLE
350
17
  0
DICTIONARY
  5
D
330
C
100
AcDbDictionary
  0
DICTIONARY
  5
1A
330
C
100
AcDbDictionary
  0
DICTIONARY
  5
17
330
C
100
AcDbDictionary
  3
STANDARD
350
18
  0
DICTIONARY
  5
19
330
C
100
AcDbDictionary
  0
ENDSEC
  0
EOF
