<svg xmlns="http://www.w3.org/2000/svg" version="1.1" width="332.7mm" height="305.7mm" viewBox = " 0 0 1178.859237 1083.189867" >
<!-- Front--> 
<g transform="translate(22.5000185, 22.5000185) " > 
<polygon style="stroke:#000000; fill:none; stroke-width:0.90000074" points="10.62993, 0 27.4606525, 0 27.4606525, 10.62993 35.69884825, 10.62993 35.69884825, 18.070881 31.26971075, 18.070881 31.26971075, 26.929156 35.69884825, 26.929156 35.69884825, 35.787431 46.68310925, 35.787431 46.68310925, 26.929156 51.11224675, 26.929156 51.11224675, 18.070881 46.68310925, 18.070881 46.68310925, 10.62993 54.921305, 10.62993 54.921305, 0 76.181165, 0 76.181165, 10.62993 97.441025, 10.62993 97.441025, 0 118.700885, 0 118.700885, 10.62993 139.960745, 10.62993 139.960745, 0 161.220605, 0 161.220605, 10.62993 182.48046499999998, 10.62993 182.48046499999998, 0 203.74032499999998, 0 203.74032499999998, 10.62993 225.000185, 10.62993 225.000185, 0 246.260045, 0 246.260045, 10.62993 254.49824075, 10.62993 254.49824075, 18.070881 250.06910325, 18.070881 250.06910325, 26.929156 254.49824075, 26.929156 254.49824075, 35.787431 265.48250175, 35.787431 265.48250175, 26.929156 269.91163925, 26.929156 269.91163925, 18.070881 265.48250175, 18.070881 265.48250175, 10.62993 273.7206975, 10.62993 273.7206975, 0 290.55142, 0 290.55142, 36.3189275 301.18135, 36.3189275 301.18135, 47.92326775 288.071103, 47.92326775 288.071103, 61.03351475 301.18135, 61.03351475 301.18135, 72.637855 290.55142, 72.637855 290.55142, 93.897715 301.18135, 93.897715 301.18135, 115.15757500000001 290.55142, 115.15757500000001 290.55142, 136.417435 301.18135, 136.417435 301.18135, 157.67729500000002 290.55142, 157.67729500000002 290.55142, 178.93715500000002 301.18135, 178.93715500000002 301.18135, 200.197015 290.55142, 200.197015 290.55142, 221.456875 301.18135, 221.456875 301.18135, 242.716735 290.55142, 242.716735 290.55142, 263.976595 301.18135, 263.976595 301.18135, 285.236455 290.55142, 285.236455 290.55142, 306.496315 301.18135, 306.496315 301.18135, 327.756175 290.55142, 327.756175 290.55142, 349.016035 301.18135, 349.016035 301.18135, 370.275895 290.55142, 370.275895 290.55142, 391.535755 301.18135, 391.535755 301.18135, 412.795615 290.55142, 412.795615 290.55142, 434.055475 301.18135, 434.055475 301.18135, 445.65981525 288.071103, 445.65981525 288.071103, 458.77006224999997 301.18135, 458.77006224999997 301.18135, 470.3744025 290.55142, 470.3744025 290.55142, 506.69333 273.7206975, 506.69333 273.7206975, 496.0634 265.48250175, 496.0634 265.48250175, 488.622449 269.91163925, 488.622449 269.91163925, 479.764174 265.48250175, 479.764174 265.48250175, 470.905899 254.49824075, 470.905899 254.49824075, 479.764174 250.06910325, 479.764174 250.06910325, 488.622449 254.49824075, 488.622449 254.49824075, 496.0634 246.260045, 496.0634 246.260045, 506.69333 225.000185, 506.69333 225.000185, 496.0634 203.74032499999998, 496.0634 203.74032499999998, 506.69333 182.48046499999998, 506.69333 182.48046499999998, 496.0634 161.220605, 496.0634 161.220605, 506.69333 139.960745, 506.69333 139.960745, 496.0634 118.700885, 496.0634 118.700885, 506.69333 97.441025, 506.69333 97.441025, 496.0634 76.181165, 496.0634 76.181165, 506.69333 54.921305, 506.69333 54.921305, 496.0634 46.68310925, 496.0634 46.68310925, 488.622449 51.11224675, 488.622449 51.11224675, 479.764174 46.68310925, 479.764174 46.68310925, 470.905899 35.69884825, 470.905899 35.69884825, 479.764174 31.26971075, 479.764174 31.26971075, 488.622449 35.69884825, 488.622449 35.69884825, 496.0634 27.4606525, 496.0634 27.4606525, 506.69333 10.62993, 506.69333 10.62993, 470.3744025 0, 470.3744025 0, 458.77006224999997 13.110247000000001, 458.77006224999997 13.110247000000001, 445.65981525 0, 445.65981525 0, 434.055475 10.62993, 434.055475 10.62993, 412.795615 0, 412.795615 0, 391.535755 10.62993, 391.535755 10.62993, 370.275895 0, 370.275895 0, 349.016035 10.62993, 349.016035 10.62993, 327.756175 0, 327.756175 0, 306.496315 10.62993, 306.496315 10.62993, 285.236455 0, 285.236455 0, 263.976595 10.62993, 263.976595 10.62993, 242.716735 0, 242.716735 0, 221.456875 10.62993, 221.456875 10.62993, 200.197015 0, 200.197015 0, 178.93715500000002 10.62993, 178.93715500000002 10.62993, 157.67729500000002 0, 157.67729500000002 0, 136.417435 10.62993, 136.417435 10.62993, 115.15757500000001 0, 115.15757500000001 0, 93.897715 10.62993, 93.897715 10.62993, 72.637855 0, 72.637855 0, 61.03351475 13.110247000000001, 61.03351475 13.110247000000001, 47.92326775 0, 47.92326775 0, 36.3189275 10.62993, 36.3189275 "/> 
</g>
<!-- Back--> 
<g transform="translate(323.68136849999996, 22.5000185) " > 
<polygon style="stroke:#000000; fill:none; stroke-width:0.90000074" points="10.62993, 0 27.4606525, 0 27.4606525, 10.62993 35.69884825, 10.62993 35.69884825, 18.070881 31.26971075, 18.070881 31.26971075, 26.929156 35.69884825, 26.929156 35.69884825, 35.787431 46.68310925, 35.787431 46.68310925, 26.929156 51.11224675, 26.929156 51.11224675, 18.070881 46.68310925, 18.070881 46.68310925, 10.62993 54.921305, 10.62993 54.921305, 0 76.181165, 0 76.181165, 10.62993 97.441025, 10.62993 97.441025, 0 118.700885, 0 118.700885, 10.62993 139.960745, 10.62993 139.960745, 0 161.220605, 0 161.220605, 10.62993 182.48046499999998, 10.62993 182.48046499999998, 0 203.74032499999998, 0 203.74032499999998, 10.62993 225.000185, 10.62993 225.000185, 0 246.260045, 0 246.260045, 10.62993 254.49824075, 10.62993 254.49824075, 18.070881 250.06910325, 18.070881 250.06910325, 26.929156 254.49824075, 26.929156 254.49824075, 35.787431 265.48250175, 35.787431 265.48250175, 26.929156 269.91163925, 26.929156 269.91163925, 18.070881 265.48250175, 18.070881 265.48250175, 10.62993 273.7206975, 10.62993 273.7206975, 0 290.55142, 0 290.55142, 36.3189275 301.18135, 36.3189275 301.18135, 47.92326775 288.071103, 47.92326775 288.071103, 61.03351475 301.18135, 61.03351475 301.18135, 72.637855 290.55142, 72.637855 290.55142, 93.897715 301.18135, 93.897715 301.18135, 115.15757500000001 290.55142, 115.15757500000001 290.55142, 136.417435 301.18135, 136.417435 301.18135, 157.67729500000002 290.55142, 157.67729500000002 290.55142, 178.93715500000002 301.18135, 178.93715500000002 301.18135, 200.197015 290.55142, 200.197015 290.55142, 221.456875 301.18135, 221.456875 301.18135, 242.716735 290.55142, 242.716735 290.55142, 263.976595 301.18135, 263.976595 301.18135, 285.236455 290.55142, 285.236455 290.55142, 306.496315 301.18135, 306.496315 301.18135, 327.756175 290.55142, 327.756175 290.55142, 349.016035 301.18135, 349.016035 301.18135, 370.275895 290.55142, 370.275895 290.55142, 391.535755 301.18135, 391.535755 301.18135, 412.795615 290.55142, 412.795615 290.55142, 434.055475 301.18135, 434.055475 301.18135, 445.65981525 288.071103, 445.65981525 288.071103, 458.77006224999997 301.18135, 458.77006224999997 301.18135, 470.3744025 290.55142, 470.3744025 290.55142, 506.69333 273.7206975, 506.69333 273.7206975, 496.0634 265.48250175, 496.0634 265.48250175, 488.622449 269.91163925, 488.622449 269.91163925, 479.764174 265.48250175, 479.764174 265.48250175, 470.905899 254.49824075, 470.905899 254.49824075, 479.764174 250.06910325, 479.764174 250.06910325, 488.622449 254.49824075, 488.622449 254.49824075, 496.0634 246.260045, 496.0634 246.260045, 506.69333 225.000185, 506.69333 225.000185, 496.0634 203.74032499999998, 496.0634 203.74032499999998, 506.69333 182.48046499999998, 506.69333 182.48046499999998, 496.0634 161.220605, 496.0634 161.220605, 506.69333 139.960745, 506.69333 139.960745, 496.0634 118.700885, 496.0634 118.700885, 506.69333 97.441025, 506.69333 97.441025, 496.0634 76.181165, 496.0634 76.181165, 506.69333 54.921305, 506.69333 54.921305, 496.0634 46.68310925, 496.0634 46.68310925, 488.622449 51.11224675, 488.622449 51.11224675, 479.764174 46.68310925, 479.764174 46.68310925, 470.905899 35.69884825, 470.905899 35.69884825, 479.764174 31.26971075, 479.764174 31.26971075, 488.622449 35.69884825, 488.622449 35.69884825, 496.0634 27.4606525, 496.0634 27.4606525, 506.69333 10.62993, 506.69333 10.62993, 470.3744025 0, 470.3744025 0, 458.77006224999997 13.110247000000001, 458.77006224999997 13.110247000000001, 445.65981525 0, 445.65981525 0, 434.055475 10.62993, 434.055475 10.62993, 412.795615 0, 412.795615 0, 391.535755 10.62993, 391.535755 10.62993, 370.275895 0, 370.275895 0, 349.016035 10.62993, 349.016035 10.62993, 327.756175 0, 327.756175 0, 306.496315 10.62993, 306.496315 10.62993, 285.236455 0, 285.236455 0, 263.976595 10.62993, 263.976595 10.62993, 242.716735 0, 242.716735 0, 221.456875 10.62993, 221.456875 10.62993, 200.197015 0, 200.197015 0, 178.93715500000002 10.62993, 178.93715500000002 10.62993, 157.67729500000002 0, 157.67729500000002 0, 136.417435 10.62993, 136.417435 10.62993, 115.15757500000001 0, 115.15757500000001 0, 93.897715 10.62993, 93.897715 10.62993, 72.637855 0, 72.637855 0, 61.03351475 13.110247000000001, 61.03351475 13.110247000000001, 47.92326775 0, 47.92326775 0, 36.3189275 10.62993, 36.3189275 "/> 
</g>
<!-- Left--> 
<g transform="translate(624.8627185, 22.5000185) " > 
<polygon style="stroke:#000000; fill:none; stroke-width:0.90000074" points="0, 10.62993 31.889789999999998, 10.62993 31.889789999999998, 0 41.27956149999999, 0 41.27956149999999, 13.110247000000001 54.389808499999994, 13.110247000000001 54.389808499999994, 0 63.779579999999996, 0 63.779579999999996, 10.62993 85.03944, 10.62993 85.03944, 0 106.29929999999999, 0 106.29929999999999, 10.62993 127.55915999999999, 10.62993 127.55915999999999, 0 148.81902, 0 148.81902, 10.62993 170.07888, 10.62993 170.07888, 0 191.33873999999997, 0 191.33873999999997, 10.62993 212.59859999999998, 10.62993 212.59859999999998, 0 233.85845999999998, 0 233.85845999999998, 10.62993 255.11831999999998, 10.62993 255.11831999999998, 0 276.37818, 0 276.37818, 10.62993 297.63804, 10.62993 297.63804, 0 318.8979, 0 318.8979, 10.62993 340.15776, 10.62993 340.15776, 0 361.41762, 0 361.41762, 10.62993 382.67748, 10.62993 382.67748, 0 403.93734, 0 403.93734, 10.62993 425.1972, 10.62993 425.1972, 0 446.45706, 0 446.45706, 10.62993 467.71692, 10.62993 467.71692, 0 477.1066915, 0 477.1066915, 13.110247000000001 490.21693849999997, 13.110247000000001 490.21693849999997, 0 499.60671, 0 499.60671, 10.62993 531.4965, 10.62993 531.4965, 36.3189275 520.86657, 36.3189275 520.86657, 48.98626075 513.425619, 48.98626075 513.425619, 44.557123250000004 504.56734400000005, 44.557123250000004 504.56734400000005, 48.98626075 495.709069, 48.98626075 495.709069, 59.97052175 504.56734400000005, 59.97052175 504.56734400000005, 64.39965925 513.425619, 64.39965925 513.425619, 59.97052175 520.86657, 59.97052175 520.86657, 72.637855 531.4965, 72.637855 531.4965, 93.897715 520.86657, 93.897715 520.86657, 115.15757500000001 531.4965, 115.15757500000001 531.4965, 136.417435 520.86657, 136.417435 520.86657, 157.67729500000002 531.4965, 157.67729500000002 531.4965, 178.93715500000002 520.86657, 178.93715500000002 520.86657, 200.197015 531.4965, 200.197015 531.4965, 221.456875 520.86657, 221.456875 520.86657, 242.716735 531.4965, 242.716735 531.4965, 263.976595 520.86657, 263.976595 520.86657, 285.236455 531.4965, 285.236455 531.4965, 306.496315 520.86657, 306.496315 520.86657, 327.756175 531.4965, 327.756175 531.4965, 349.016035 520.86657, 349.016035 520.86657, 370.275895 531.4965, 370.275895 531.4965, 391.535755 520.86657, 391.535755 520.86657, 412.795615 531.4965, 412.795615 531.4965, 434.055475 520.86657, 434.055475 520.86657, 446.72280825 513.425619, 446.72280825 513.425619, 442.29367075 504.56734400000005, 442.29367075 504.56734400000005, 446.72280825 495.709069, 446.72280825 495.709069, 457.70706924999996 504.56734400000005, 457.70706924999996 504.56734400000005, 462.13620675 513.425619, 462.13620675 513.425619, 457.70706924999996 520.86657, 457.70706924999996 520.86657, 470.3744025 531.4965, 470.3744025 531.4965, 496.0634 499.60671, 496.0634 499.60671, 506.69333 490.21693849999997, 506.69333 490.21693849999997, 493.583083 477.1066915, 493.583083 477.1066915, 506.69333 467.71692, 506.69333 467.71692, 496.0634 446.45706, 496.0634 446.45706, 506.69333 425.1972, 506.69333 425.1972, 496.0634 403.93734, 496.0634 403.93734, 506.69333 382.67748, 506.69333 382.67748, 496.0634 361.41762, 496.0634 361.41762, 506.69333 340.15776, 506.69333 340.15776, 496.0634 318.8979, 496.0634 318.8979, 506.69333 297.63804, 506.69333 297.63804, 496.0634 276.37818, 496.0634 276.37818, 506.69333 255.11831999999998, 506.69333 255.11831999999998, 496.0634 233.85845999999998, 496.0634 233.85845999999998, 506.69333 212.59859999999998, 506.69333 212.59859999999998, 496.0634 191.33873999999997, 496.0634 191.33873999999997, 506.69333 170.07888, 506.69333 170.07888, 496.0634 148.81902, 496.0634 148.81902, 506.69333 127.55915999999999, 506.69333 127.55915999999999, 496.0634 106.29929999999999, 496.0634 106.29929999999999, 506.69333 85.03944, 506.69333 85.03944, 496.0634 63.779579999999996, 496.0634 63.779579999999996, 506.69333 54.389808499999994, 506.69333 54.389808499999994, 493.583083 41.27956149999999, 493.583083 41.27956149999999, 506.69333 31.889789999999998, 506.69333 31.889789999999998, 496.0634 0, 496.0634 0, 470.3744025 10.62993, 470.3744025 10.62993, 457.70706924999996 18.070881, 457.70706924999996 18.070881, 462.13620675 26.929156, 462.13620675 26.929156, 457.70706924999996 35.787431, 457.70706924999996 35.787431, 446.72280825 26.929156, 446.72280825 26.929156, 442.29367075 18.070881, 442.29367075 18.070881, 446.72280825 10.62993, 446.72280825 10.62993, 434.055475 0, 434.055475 0, 412.795615 10.62993, 412.795615 10.62993, 391.535755 0, 391.535755 0, 370.275895 10.62993, 370.275895 10.62993, 349.016035 0, 349.016035 0, 327.756175 10.62993, 327.756175 10.62993, 306.496315 0, 306.496315 0, 285.236455 10.62993, 285.236455 10.62993, 263.976595 0, 263.976595 0, 242.716735 10.62993, 242.716735 10.62993, 221.456875 0, 221.456875 0, 200.197015 10.62993, 200.197015 10.62993, 178.93715500000002 0, 178.93715500000002 0, 157.67729500000002 10.62993, 157.67729500000002 10.62993, 136.417435 0, 136.417435 0, 115.15757500000001 10.62993, 115.15757500000001 10.62993, 93.897715 0, 93.897715 0, 72.637855 10.62993, 72.637855 10.62993, 59.97052175 18.070881, 59.97052175 18.070881, 64.39965925 26.929156, 64.39965925 26.929156, 59.97052175 35.787431, 59.97052175 35.787431, 48.98626075 26.929156, 48.98626075 26.929156, 44.557123250000004 18.070881, 44.557123250000004 18.070881, 48.98626075 10.62993, 48.98626075 10.62993, 36.3189275 0, 36.3189275 "/> 
</g>
<!-- Right--> 
<g transform="translate(624.8627185, 529.1933485) " > 
<polygon style="stroke:#000000; fill:none; stroke-width:0.90000074" points="0, 10.62993 31.889789999999998, 10.62993 31.889789999999998, 0 41.27956149999999, 0 41.27956149999999, 13.110247000000001 54.389808499999994, 13.110247000000001 54.389808499999994, 0 63.779579999999996, 0 63.779579999999996, 10.62993 85.03944, 10.62993 85.03944, 0 106.29929999999999, 0 106.29929999999999, 10.62993 127.55915999999999, 10.62993 127.55915999999999, 0 148.81902, 0 148.81902, 10.62993 170.07888, 10.62993 170.07888, 0 191.33873999999997, 0 191.33873999999997, 10.62993 212.59859999999998, 10.62993 212.59859999999998, 0 233.85845999999998, 0 233.85845999999998, 10.62993 255.11831999999998, 10.62993 255.11831999999998, 0 276.37818, 0 276.37818, 10.62993 297.63804, 10.62993 297.63804, 0 318.8979, 0 318.8979, 10.62993 340.15776, 10.62993 340.15776, 0 361.41762, 0 361.41762, 10.62993 382.67748, 10.62993 382.67748, 0 403.93734, 0 403.93734, 10.62993 425.1972, 10.62993 425.1972, 0 446.45706, 0 446.45706, 10.62993 467.71692, 10.62993 467.71692, 0 477.1066915, 0 477.1066915, 13.110247000000001 490.21693849999997, 13.110247000000001 490.21693849999997, 0 499.60671, 0 499.60671, 10.62993 531.4965, 10.62993 531.4965, 36.3189275 520.86657, 36.3189275 520.86657, 48.98626075 513.425619, 48.98626075 513.425619, 44.557123250000004 504.56734400000005, 44.557123250000004 504.56734400000005, 48.98626075 495.709069, 48.98626075 495.709069, 59.97052175 504.56734400000005, 59.97052175 504.56734400000005, 64.39965925 513.425619, 64.39965925 513.425619, 59.97052175 520.86657, 59.97052175 520.86657, 72.637855 531.4965, 72.637855 531.4965, 93.897715 520.86657, 93.897715 520.86657, 115.15757500000001 531.4965, 115.15757500000001 531.4965, 136.417435 520.86657, 136.417435 520.86657, 157.67729500000002 531.4965, 157.67729500000002 531.4965, 178.93715500000002 520.86657, 178.93715500000002 520.86657, 200.197015 531.4965, 200.197015 531.4965, 221.456875 520.86657, 221.456875 520.86657, 242.716735 531.4965, 242.716735 531.4965, 263.976595 520.86657, 263.976595 520.86657, 285.236455 531.4965, 285.236455 531.4965, 306.496315 520.86657, 306.496315 520.86657, 327.756175 531.4965, 327.756175 531.4965, 349.016035 520.86657, 349.016035 520.86657, 370.275895 531.4965, 370.275895 531.4965, 391.535755 520.86657, 391.535755 520.86657, 412.795615 531.4965, 412.795615 531.4965, 434.055475 520.86657, 434.055475 520.86657, 446.72280825 513.425619, 446.72280825 513.425619, 442.29367075 504.56734400000005, 442.29367075 504.56734400000005, 446.72280825 495.709069, 446.72280825 495.709069, 457.70706924999996 504.56734400000005, 457.70706924999996 504.56734400000005, 462.13620675 513.425619, 462.13620675 513.425619, 457.70706924999996 520.86657, 457.70706924999996 520.86657, 470.3744025 531.4965, 470.3744025 531.4965, 496.0634 499.60671, 496.0634 499.60671, 506.69333 490.21693849999997, 506.69333 490.21693849999997, 493.583083 477.1066915, 493.583083 477.1066915, 506.69333 467.71692, 506.69333 467.71692, 496.0634 446.45706, 496.0634 446.45706, 506.69333 425.1972, 506.69333 425.1972, 496.0634 403.93734, 496.0634 403.93734, 506.69333 382.67748, 506.69333 382.67748, 496.0634 361.41762, 496.0634 361.41762, 506.69333 340.15776, 506.69333 340.15776, 496.0634 318.8979, 496.0634 318.8979, 506.69333 297.63804, 506.69333 297.63804, 496.0634 276.37818, 496.0634 276.37818, 506.69333 255.11831999999998, 506.69333 255.11831999999998, 496.0634 233.85845999999998, 496.0634 233.85845999999998, 506.69333 212.59859999999998, 506.69333 212.59859999999998, 496.0634 191.33873999999997, 496.0634 191.33873999999997, 506.69333 170.07888, 506.69333 170.07888, 496.0634 148.81902, 496.0634 148.81902, 506.69333 127.55915999999999, 506.69333 127.55915999999999, 496.0634 106.29929999999999, 496.0634 106.29929999999999, 506.69333 85.03944, 506.69333 85.03944, 496.0634 63.779579999999996, 496.0634 63.779579999999996, 506.69333 54.389808499999994, 506.69333 54.389808499999994, 493.583083 41.27956149999999, 493.583083 41.27956149999999, 506.69333 31.889789999999998, 506.69333 31.889789999999998, 496.0634 0, 496.0634 0, 470.3744025 10.62993, 470.3744025 10.62993, 457.70706924999996 18.070881, 457.70706924999996 18.070881, 462.13620675 26.929156, 462.13620675 26.929156, 457.70706924999996 35.787431, 457.70706924999996 35.787431, 446.72280825 26.929156, 446.72280825 26.929156, 442.29367075 18.070881, 442.29367075 18.070881, 446.72280825 10.62993, 446.72280825 10.62993, 434.055475 0, 434.055475 0, 412.795615 10.62993, 412.795615 10.62993, 391.535755 0, 391.535755 0, 370.275895 10.62993, 370.275895 10.62993, 349.016035 0, 349.016035 0, 327.756175 10.62993, 327.756175 10.62993, 306.496315 0, 306.496315 0, 285.236455 10.62993, 285.236455 10.62993, 263.976595 0, 263.976595 0, 242.716735 10.62993, 242.716735 10.62993, 221.456875 0, 221.456875 0, 200.197015 10.62993, 200.197015 10.62993, 178.93715500000002 0, 178.93715500000002 0, 157.67729500000002 10.62993, 157.67729500000002 10.62993, 136.417435 0, 136.417435 0, 115.15757500000001 10.62993, 115.15757500000001 10.62993, 93.897715 0, 93.897715 0, 72.637855 10.62993, 72.637855 10.62993, 59.97052175 18.070881, 59.97052175 18.070881, 64.39965925 26.929156, 64.39965925 26.929156, 59.97052175 35.787431, 59.97052175 35.787431, 48.98626075 26.929156, 48.98626075 26.929156, 44.557123250000004 18.070881, 44.557123250000004 18.070881, 48.98626075 10.62993, 48.98626075 10.62993, 36.3189275 0, 36.3189275 "/> 
</g>
<!-- Top--> 
<g transform="translate(22.5000185, 529.1933485) " > 
<polygon style="stroke:#000000; fill:none; stroke-width:0.90000074" points="0, 10.62993 27.4606525, 10.62993 27.4606525, 0 34.63585525, 0 34.63585525, 13.110247000000001 47.74610225, 13.110247000000001 47.74610225, 0 54.921305, 0 54.921305, 10.62993 76.181165, 10.62993 76.181165, 0 97.441025, 0 97.441025, 10.62993 118.700885, 10.62993 118.700885, 0 139.960745, 0 139.960745, 10.62993 161.220605, 10.62993 161.220605, 0 182.48046499999998, 0 182.48046499999998, 10.62993 203.74032499999998, 10.62993 203.74032499999998, 0 225.000185, 0 225.000185, 10.62993 246.260045, 10.62993 246.260045, 0 253.43524775, 0 253.43524775, 13.110247000000001 266.54549475, 13.110247000000001 266.54549475, 0 273.7206975, 0 273.7206975, 10.62993 301.18135, 10.62993 301.18135, 31.889789999999998 290.55142, 31.889789999999998 290.55142, 42.34255449999999 283.110469, 42.34255449999999 283.110469, 37.913416999999995 274.25219400000003, 37.913416999999995 274.25219400000003, 42.34255449999999 265.393919, 42.34255449999999 265.393919, 53.326815499999995 274.25219400000003, 53.326815499999995 274.25219400000003, 57.75595299999999 283.110469, 57.75595299999999 283.110469, 53.326815499999995 290.55142, 53.326815499999995 290.55142, 63.779579999999996 301.18135, 63.779579999999996 301.18135, 85.03944 290.55142, 85.03944 290.55142, 106.29929999999999 301.18135, 106.29929999999999 301.18135, 127.55915999999999 290.55142, 127.55915999999999 290.55142, 148.81902 301.18135, 148.81902 301.18135, 170.07888 290.55142, 170.07888 290.55142, 191.33873999999997 301.18135, 191.33873999999997 301.18135, 212.59859999999998 290.55142, 212.59859999999998 290.55142, 233.85845999999998 301.18135, 233.85845999999998 301.18135, 255.11831999999998 290.55142, 255.11831999999998 290.55142, 276.37818 301.18135, 276.37818 301.18135, 297.63804 290.55142, 297.63804 290.55142, 318.8979 301.18135, 318.8979 301.18135, 340.15776 290.55142, 340.15776 290.55142, 361.41762 301.18135, 361.41762 301.18135, 382.67748 290.55142, 382.67748 290.55142, 403.93734 301.18135, 403.93734 301.18135, 425.1972 290.55142, 425.1972 290.55142, 446.45706 301.18135, 446.45706 301.18135, 467.71692 290.55142, 467.71692 290.55142, 478.1696845 283.110469, 478.1696845 283.110469, 473.740547 274.25219400000003, 473.740547 274.25219400000003, 478.1696845 265.393919, 478.1696845 265.393919, 489.15394549999996 274.25219400000003, 489.15394549999996 274.25219400000003, 493.583083 283.110469, 493.583083 283.110469, 489.15394549999996 290.55142, 489.15394549999996 290.55142, 499.60671 301.18135, 499.60671 301.18135, 520.86657 273.7206975, 520.86657 273.7206975, 531.4965 266.54549475, 531.4965 266.54549475, 518.386253 253.43524775, 518.386253 253.43524775, 531.4965 246.260045, 531.4965 246.260045, 520.86657 225.000185, 520.86657 225.000185, 531.4965 203.74032499999998, 531.4965 203.74032499999998, 520.86657 182.48046499999998, 520.86657 182.48046499999998, 531.4965 161.220605, 531.4965 161.220605, 520.86657 139.960745, 520.86657 139.960745, 531.4965 118.700885, 531.4965 118.700885, 520.86657 97.441025, 520.86657 97.441025, 531.4965 76.181165, 531.4965 76.181165, 520.86657 54.921305, 520.86657 54.921305, 531.4965 47.74610225, 531.4965 47.74610225, 518.386253 34.63585525, 518.386253 34.63585525, 531.4965 27.4606525, 531.4965 27.4606525, 520.86657 0, 520.86657 0, 499.60671 10.62993, 499.60671 10.62993, 489.15394549999996 18.070881, 489.15394549999996 18.070881, 493.583083 26.929156, 493.583083 26.929156, 489.15394549999996 35.787431, 489.15394549999996 35.787431, 478.1696845 26.929156, 478.1696845 26.929156, 473.740547 18.070881, 473.740547 18.070881, 478.1696845 10.62993, 478.1696845 10.62993, 467.71692 0, 467.71692 0, 446.45706 10.62993, 446.45706 10.62993, 425.1972 0, 425.1972 0, 403.93734 10.62993, 403.93734 10.62993, 382.67748 0, 382.67748 0, 361.41762 10.62993, 361.41762 10.62993, 340.15776 0, 340.15776 0, 318.8979 10.62993, 318.8979 10.62993, 297.63804 0, 297.63804 0, 276.37818 10.62993, 276.37818 10.62993, 255.11831999999998 0, 255.11831999999998 0, 233.85845999999998 10.62993, 233.85845999999998 10.62993, 212.59859999999998 0, 212.59859999999998 0, 191.33873999999997 10.62993, 191.33873999999997 10.62993, 170.07888 0, 170.07888 0, 148.81902 10.62993, 148.81902 10.62993, 127.55915999999999 0, 127.55915999999999 0, 106.29929999999999 10.62993, 106.29929999999999 10.62993, 85.03944 0, 85.03944 0, 63.779579999999996 10.62993, 63.779579999999996 10.62993, 53.326815499999995 18.070881, 53.326815499999995 18.070881, 57.75595299999999 26.929156, 57.75595299999999 26.929156, 53.326815499999995 35.787431, 53.326815499999995 35.787431, 42.34255449999999 26.929156, 42.34255449999999 26.929156, 37.913416999999995 18.070881, 37.913416999999995 18.070881, 42.34255449999999 10.62993, 42.34255449999999 10.62993, 31.889789999999998 0, 31.889789999999998 "/> 
</g>
<!-- Bottom--> 
<g transform="translate(323.68136849999996, 529.1933485) " > 
<polygon style="stroke:#000000; fill:none; stroke-width:0.90000074" points="0, 10.62993 27.4606525, 10.62993 27.4606525, 0 34.63585525, 0 34.63585525, 13.110247000000001 47.74610225, 13.110247000000001 47.74610225, 0 54.921305, 0 54.921305, 10.62993 76.181165, 10.62993 76.181165, 0 97.441025, 0 97.441025, 10.62993 118.700885, 10.62993 118.700885, 0 139.960745, 0 139.960745, 10.62993 161.220605, 10.62993 161.220605, 0 182.48046499999998, 0 182.48046499999998, 10.62993 203.74032499999998, 10.62993 203.74032499999998, 0 225.000185, 0 225.000185, 10.62993 246.260045, 10.62993 246.260045, 0 253.43524775, 0 253.43524775, 13.110247000000001 266.54549475, 13.110247000000001 266.54549475, 0 273.7206975, 0 273.7206975, 10.62993 301.18135, 10.62993 301.18135, 31.889789999999998 290.55142, 31.889789999999998 290.55142, 42.34255449999999 283.110469, 42.34255449999999 283.110469, 37.913416999999995 274.25219400000003, 37.913416999999995 274.25219400000003, 42.34255449999999 265.393919, 42.34255449999999 265.393919, 53.326815499999995 274.25219400000003, 53.326815499999995 274.25219400000003, 57.75595299999999 283.110469, 57.75595299999999 283.110469, 53.326815499999995 290.55142, 53.326815499999995 290.55142, 63.779579999999996 301.18135, 63.779579999999996 301.18135, 85.03944 290.55142, 85.03944 290.55142, 106.29929999999999 301.18135, 106.29929999999999 301.18135, 127.55915999999999 290.55142, 127.55915999999999 290.55142, 148.81902 301.18135, 148.81902 301.18135, 170.07888 290.55142, 170.07888 290.55142, 191.33873999999997 301.18135, 191.33873999999997 301.18135, 212.59859999999998 290.55142, 212.59859999999998 290.55142, 233.85845999999998 301.18135, 233.85845999999998 301.18135, 255.11831999999998 290.55142, 255.11831999999998 290.55142, 276.37818 301.18135, 276.37818 301.18135, 297.63804 290.55142, 297.63804 290.55142, 318.8979 301.18135, 318.8979 301.18135, 340.15776 290.55142, 340.15776 290.55142, 361.41762 301.18135, 361.41762 301.18135, 382.67748 290.55142, 382.67748 290.55142, 403.93734 301.18135, 403.93734 301.18135, 425.1972 290.55142, 425.1972 290.55142, 446.45706 301.18135, 446.45706 301.18135, 467.71692 290.55142, 467.71692 290.55142, 478.1696845 283.110469, 478.1696845 283.110469, 473.740547 274.25219400000003, 473.740547 274.25219400000003, 478.1696845 265.393919, 478.1696845 265.393919, 489.15394549999996 274.25219400000003, 489.15394549999996 274.25219400000003, 493.583083 283.110469, 493.583083 283.110469, 489.15394549999996 290.55142, 489.15394549999996 290.55142, 499.60671 301.18135, 499.60671 301.18135, 520.86657 273.7206975, 520.86657 273.7206975, 531.4965 266.54549475, 531.4965 266.54549475, 518.386253 253.43524775, 518.386253 253.43524775, 531.4965 246.260045, 531.4965 246.260045, 520.86657 225.000185, 520.86657 225.000185, 531.4965 203.74032499999998, 531.4965 203.74032499999998, 520.86657 182.48046499999998, 520.86657 182.48046499999998, 531.4965 161.220605, 531.4965 161.220605, 520.86657 139.960745, 520.86657 139.960745, 531.4965 118.700885, 531.4965 118.700885, 520.86657 97.441025, 520.86657 97.441025, 531.4965 76.181165, 531.4965 76.181165, 520.86657 54.921305, 520.86657 54.921305, 531.4965 47.74610225, 531.4965 47.74610225, 518.386253 34.63585525, 518.386253 34.63585525, 531.4965 27.4606525, 531.4965 27.4606525, 520.86657 0, 520.86657 0, 499.60671 10.62993, 499.60671 10.62993, 489.15394549999996 18.070881, 489.15394549999996 18.070881, 493.583083 26.929156, 493.583083 26.929156, 489.15394549999996 35.787431, 489.15394549999996 35.787431, 478.1696845 26.929156, 478.1696845 26.929156, 473.740547 18.070881, 473.740547 18.070881, 478.1696845 10.62993, 478.1696845 10.62993, 467.71692 0, 467.71692 0, 446.45706 10.62993, 446.45706 10.62993, 425.1972 0, 425.1972 0, 403.93734 10.62993, 403.93734 10.62993, 382.67748 0, 382.67748 0, 361.41762 10.62993, 361.41762 10.62993, 340.15776 0, 340.15776 0, 318.8979 10.62993, 318.8979 10.62993, 297.63804 0, 297.63804 0, 276.37818 10.62993, 276.37818 10.62993, 255.11831999999998 0, 255.11831999999998 0, 233.85845999999998 10.62993, 233.85845999999998 10.62993, 212.59859999999998 0, 212.59859999999998 0, 191.33873999999997 10.62993, 191.33873999999997 10.62993, 170.07888 0, 170.07888 0, 148.81902 10.62993, 148.81902 10.62993, 127.55915999999999 0, 127.55915999999999 0, 106.29929999999999 10.62993, 106.29929999999999 10.62993, 85.03944 0, 85.03944 0, 63.779579999999996 10.62993, 63.779579999999996 10.62993, 53.326815499999995 18.070881, 53.326815499999995 18.070881, 57.75595299999999 26.929156, 57.75595299999999 26.929156, 53.326815499999995 35.787431, 53.326815499999995 35.787431, 42.34255449999999 26.929156, 42.34255449999999 26.929156, 37.913416999999995 18.070881, 37.913416999999995 18.070881, 42.34255449999999 10.62993, 42.34255449999999 10.62993, 31.889789999999998 0, 31.889789999999998 "/> 
</g></svg>