solid OpenSCAD_Model
  facet normal 1 0 0
    outer loop
      vertex 38 41.5 -4
      vertex 38 17.3923 -9.85366
      vertex 38 41.5 -13
    endloop
  endfacet
  facet normal 1 0 0
    outer loop
      vertex 38 41.5 -4
      vertex 38 17.3315 -9.56738
      vertex 38 17.3923 -9.85366
    endloop
  endfacet
  facet normal 1 0 0
    outer loop
      vertex 38 41.5 -4
      vertex 38 17.2124 -9.3
      vertex 38 17.3315 -9.56738
    endloop
  endfacet
  facet normal 1 0 0
    outer loop
      vertex 38 41.5 -4
      vertex 38 17.0404 -9.06322
      vertex 38 17.2124 -9.3
    endloop
  endfacet
  facet normal 1 0 0
    outer loop
      vertex 38 41.5 -4
      vertex 38 16.8229 -8.86738
      vertex 38 17.0404 -9.06322
    endloop
  endfacet
  facet normal 1 0 0
    outer loop
      vertex 38 41.5 -4
      vertex 38 16.5694 -8.72104
      vertex 38 16.8229 -8.86738
    endloop
  endfacet
  facet normal 1 0 0
    outer loop
      vertex 38 41.5 -4
      vertex 38 16.2911 -8.63059
      vertex 38 16.5694 -8.72104
    endloop
  endfacet
  facet normal 1 0 0
    outer loop
      vertex 38 41.5 -4
      vertex 38 16 -8.6
      vertex 38 16.2911 -8.63059
    endloop
  endfacet
  facet normal 1 -0 0
    outer loop
      vertex 38 -9 -4
      vertex 38 16 -8.6
      vertex 38 41.5 -4
    endloop
  endfacet
  facet normal 1 0 0
    outer loop
      vertex 38 -9 -13
      vertex 38 14.6077 -9.85366
      vertex 38 -9 -4
    endloop
  endfacet
  facet normal 1 0 0
    outer loop
      vertex 38 14.6685 -9.56738
      vertex 38 -9 -4
      vertex 38 14.6077 -9.85366
    endloop
  endfacet
  facet normal 1 0 0
    outer loop
      vertex 38 14.7876 -9.3
      vertex 38 -9 -4
      vertex 38 14.6685 -9.56738
    endloop
  endfacet
  facet normal 1 0 0
    outer loop
      vertex 38 14.9596 -9.06322
      vertex 38 -9 -4
      vertex 38 14.7876 -9.3
    endloop
  endfacet
  facet normal 1 0 0
    outer loop
      vertex 38 15.1771 -8.86738
      vertex 38 -9 -4
      vertex 38 14.9596 -9.06322
    endloop
  endfacet
  facet normal 1 0 0
    outer loop
      vertex 38 15.4306 -8.72104
      vertex 38 -9 -4
      vertex 38 15.1771 -8.86738
    endloop
  endfacet
  facet normal 1 0 0
    outer loop
      vertex 38 15.7089 -8.63059
      vertex 38 -9 -4
      vertex 38 15.4306 -8.72104
    endloop
  endfacet
  facet normal 1 0 0
    outer loop
      vertex 38 16 -8.6
      vertex 38 -9 -4
      vertex 38 15.7089 -8.63059
    endloop
  endfacet
  facet normal 1 -0 0
    outer loop
      vertex 38 17.3923 -10.1463
      vertex 38 41.5 -13
      vertex 38 17.3923 -9.85366
    endloop
  endfacet
  facet normal 1 -0 0
    outer loop
      vertex 38 17.3315 -10.4326
      vertex 38 41.5 -13
      vertex 38 17.3923 -10.1463
    endloop
  endfacet
  facet normal 1 -0 0
    outer loop
      vertex 38 17.2124 -10.7
      vertex 38 41.5 -13
      vertex 38 17.3315 -10.4326
    endloop
  endfacet
  facet normal 1 -0 0
    outer loop
      vertex 38 17.0404 -10.9368
      vertex 38 41.5 -13
      vertex 38 17.2124 -10.7
    endloop
  endfacet
  facet normal 1 -0 0
    outer loop
      vertex 38 16.8229 -11.1326
      vertex 38 41.5 -13
      vertex 38 17.0404 -10.9368
    endloop
  endfacet
  facet normal 1 -0 0
    outer loop
      vertex 38 16.5694 -11.279
      vertex 38 41.5 -13
      vertex 38 16.8229 -11.1326
    endloop
  endfacet
  facet normal 1 -0 0
    outer loop
      vertex 38 16.2911 -11.3694
      vertex 38 41.5 -13
      vertex 38 16.5694 -11.279
    endloop
  endfacet
  facet normal 1 -0 0
    outer loop
      vertex 38 16 -11.4
      vertex 38 41.5 -13
      vertex 38 16.2911 -11.3694
    endloop
  endfacet
  facet normal 1 0 0
    outer loop
      vertex 38 14.6077 -9.85366
      vertex 38 -9 -13
      vertex 38 14.6077 -10.1463
    endloop
  endfacet
  facet normal 1 0 0
    outer loop
      vertex 38 14.6077 -10.1463
      vertex 38 -9 -13
      vertex 38 14.6685 -10.4326
    endloop
  endfacet
  facet normal 1 0 0
    outer loop
      vertex 38 14.6685 -10.4326
      vertex 38 -9 -13
      vertex 38 14.7876 -10.7
    endloop
  endfacet
  facet normal 1 0 0
    outer loop
      vertex 38 14.7876 -10.7
      vertex 38 -9 -13
      vertex 38 14.9596 -10.9368
    endloop
  endfacet
  facet normal 1 0 0
    outer loop
      vertex 38 14.9596 -10.9368
      vertex 38 -9 -13
      vertex 38 15.1771 -11.1326
    endloop
  endfacet
  facet normal 1 0 0
    outer loop
      vertex 38 15.1771 -11.1326
      vertex 38 -9 -13
      vertex 38 15.4306 -11.279
    endloop
  endfacet
  facet normal 1 0 0
    outer loop
      vertex 38 16 -11.4
      vertex 38 -9 -13
      vertex 38 41.5 -13
    endloop
  endfacet
  facet normal 1 0 0
    outer loop
      vertex 38 15.7089 -11.3694
      vertex 38 -9 -13
      vertex 38 16 -11.4
    endloop
  endfacet
  facet normal 1 0 0
    outer loop
      vertex 38 15.4306 -11.279
      vertex 38 -9 -13
      vertex 38 15.7089 -11.3694
    endloop
  endfacet
  facet normal 0 0 1
    outer loop
      vertex 38 41.5 -4
      vertex 24.5 29.75 -4
      vertex 38 -9 -4
    endloop
  endfacet
  facet normal 0 0 1
    outer loop
      vertex 38 41.5 -4
      vertex 12.5 29.75 -4
      vertex 24.5 29.75 -4
    endloop
  endfacet
  facet normal 0 0 1
    outer loop
      vertex -12 -9 -4
      vertex 12.5 29.75 -4
      vertex -12 41.5 -4
    endloop
  endfacet
  facet normal -0 0 1
    outer loop
      vertex -12 41.5 -4
      vertex 12.5 29.75 -4
      vertex 38 41.5 -4
    endloop
  endfacet
  facet normal -0 0 1
    outer loop
      vertex 24.5 1.75 -4
      vertex 38 -9 -4
      vertex 24.5 29.75 -4
    endloop
  endfacet
  facet normal -0 0 1
    outer loop
      vertex 12.5 1.75 -4
      vertex 38 -9 -4
      vertex 24.5 1.75 -4
    endloop
  endfacet
  facet normal 0 0 1
    outer loop
      vertex 12.5 1.75 -4
      vertex -12 -9 -4
      vertex 38 -9 -4
    endloop
  endfacet
  facet normal 0 0 1
    outer loop
      vertex 12.5 29.75 -4
      vertex -12 -9 -4
      vertex 12.5 1.75 -4
    endloop
  endfacet
  facet normal 0 0 -1
    outer loop
      vertex 24.5 29.75 -8
      vertex 34.4 -5.5 -8
      vertex 24.5 1.75 -8
    endloop
  endfacet
  facet normal 0 0 -1
    outer loop
      vertex 34.4 -5.5 -8
      vertex 12.5 1.75 -8
      vertex 24.5 1.75 -8
    endloop
  endfacet
  facet normal -0 0 -1
    outer loop
      vertex 12.5 1.75 -8
      vertex -8.3 -5.5 -8
      vertex 12.5 29.75 -8
    endloop
  endfacet
  facet normal 0 0 -1
    outer loop
      vertex -8.3 -5.5 -8
      vertex 12.5 1.75 -8
      vertex 34.4 -5.5 -8
    endloop
  endfacet
  facet normal 0 0 -1
    outer loop
      vertex 34.4 -5.5 -8
      vertex 24.5 29.75 -8
      vertex 34.4 38 -8
    endloop
  endfacet
  facet normal 0 0 -1
    outer loop
      vertex 12.5 29.75 -8
      vertex 34.4 38 -8
      vertex 24.5 29.75 -8
    endloop
  endfacet
  facet normal 0 0 -1
    outer loop
      vertex 12.5 29.75 -8
      vertex -8.3 38 -8
      vertex 34.4 38 -8
    endloop
  endfacet
  facet normal 0 0 -1
    outer loop
      vertex -8.3 38 -8
      vertex 12.5 29.75 -8
      vertex -8.3 -5.5 -8
    endloop
  endfacet
  facet normal -1 0 0
    outer loop
      vertex -12 17.3923 -9.85366
      vertex -12 41.5 -13
      vertex -12 17.3923 -10.1463
    endloop
  endfacet
  facet normal -1 0 0
    outer loop
      vertex -12 41.5 -13
      vertex -12 17.3315 -10.4326
      vertex -12 17.3923 -10.1463
    endloop
  endfacet
  facet normal -1 0 0
    outer loop
      vertex -12 41.5 -13
      vertex -12 17.2124 -10.7
      vertex -12 17.3315 -10.4326
    endloop
  endfacet
  facet normal -1 0 0
    outer loop
      vertex -12 41.5 -13
      vertex -12 17.0404 -10.9368
      vertex -12 17.2124 -10.7
    endloop
  endfacet
  facet normal -1 0 0
    outer loop
      vertex -12 41.5 -13
      vertex -12 16.8229 -11.1326
      vertex -12 17.0404 -10.9368
    endloop
  endfacet
  facet normal -1 0 0
    outer loop
      vertex -12 41.5 -13
      vertex -12 16.5694 -11.279
      vertex -12 16.8229 -11.1326
    endloop
  endfacet
  facet normal -1 0 0
    outer loop
      vertex -12 41.5 -13
      vertex -12 16.2911 -11.3694
      vertex -12 16.5694 -11.279
    endloop
  endfacet
  facet normal -1 0 0
    outer loop
      vertex -12 41.5 -13
      vertex -12 16 -11.4
      vertex -12 16.2911 -11.3694
    endloop
  endfacet
  facet normal -1 -0 0
    outer loop
      vertex -12 14.6077 -10.1463
      vertex -12 -9 -13
      vertex -12 14.6077 -9.85366
    endloop
  endfacet
  facet normal -1 -0 0
    outer loop
      vertex -12 14.6685 -10.4326
      vertex -12 -9 -13
      vertex -12 14.6077 -10.1463
    endloop
  endfacet
  facet normal -1 -0 0
    outer loop
      vertex -12 14.7876 -10.7
      vertex -12 -9 -13
      vertex -12 14.6685 -10.4326
    endloop
  endfacet
  facet normal -1 -0 0
    outer loop
      vertex -12 14.9596 -10.9368
      vertex -12 -9 -13
      vertex -12 14.7876 -10.7
    endloop
  endfacet
  facet normal -1 -0 0
    outer loop
      vertex -12 15.1771 -11.1326
      vertex -12 -9 -13
      vertex -12 14.9596 -10.9368
    endloop
  endfacet
  facet normal -1 -0 0
    outer loop
      vertex -12 15.4306 -11.279
      vertex -12 -9 -13
      vertex -12 15.1771 -11.1326
    endloop
  endfacet
  facet normal -1 -0 0
    outer loop
      vertex -12 15.7089 -11.3694
      vertex -12 -9 -13
      vertex -12 15.4306 -11.279
    endloop
  endfacet
  facet normal -1 -0 0
    outer loop
      vertex -12 16 -11.4
      vertex -12 -9 -13
      vertex -12 15.7089 -11.3694
    endloop
  endfacet
  facet normal -1 0 0
    outer loop
      vertex -12 -9 -13
      vertex -12 16 -11.4
      vertex -12 41.5 -13
    endloop
  endfacet
  facet normal -1 0 0
    outer loop
      vertex -12 41.5 -13
      vertex -12 17.3923 -9.85366
      vertex -12 41.5 -4
    endloop
  endfacet
  facet normal -1 0 0
    outer loop
      vertex -12 17.3315 -9.56738
      vertex -12 41.5 -4
      vertex -12 17.3923 -9.85366
    endloop
  endfacet
  facet normal -1 0 0
    outer loop
      vertex -12 17.2124 -9.3
      vertex -12 41.5 -4
      vertex -12 17.3315 -9.56738
    endloop
  endfacet
  facet normal -1 0 0
    outer loop
      vertex -12 17.0404 -9.06322
      vertex -12 41.5 -4
      vertex -12 17.2124 -9.3
    endloop
  endfacet
  facet normal -1 0 0
    outer loop
      vertex -12 16.8229 -8.86738
      vertex -12 41.5 -4
      vertex -12 17.0404 -9.06322
    endloop
  endfacet
  facet normal -1 0 0
    outer loop
      vertex -12 16.5694 -8.72104
      vertex -12 41.5 -4
      vertex -12 16.8229 -8.86738
    endloop
  endfacet
  facet normal -1 0 0
    outer loop
      vertex -12 16.2911 -8.63059
      vertex -12 41.5 -4
      vertex -12 16.5694 -8.72104
    endloop
  endfacet
  facet normal -1 0 0
    outer loop
      vertex -12 16 -8.6
      vertex -12 41.5 -4
      vertex -12 16.2911 -8.63059
    endloop
  endfacet
  facet normal -1 0 0
    outer loop
      vertex -12 -9 -4
      vertex -12 16 -8.6
      vertex -12 15.7089 -8.63059
    endloop
  endfacet
  facet normal -1 0 0
    outer loop
      vertex -12 -9 -4
      vertex -12 14.6077 -9.85366
      vertex -12 -9 -13
    endloop
  endfacet
  facet normal -1 0 0
    outer loop
      vertex -12 14.6077 -9.85366
      vertex -12 -9 -4
      vertex -12 14.6685 -9.56738
    endloop
  endfacet
  facet normal -1 0 0
    outer loop
      vertex -12 14.6685 -9.56738
      vertex -12 -9 -4
      vertex -12 14.7876 -9.3
    endloop
  endfacet
  facet normal -1 0 0
    outer loop
      vertex -12 14.7876 -9.3
      vertex -12 -9 -4
      vertex -12 14.9596 -9.06322
    endloop
  endfacet
  facet normal -1 0 0
    outer loop
      vertex -12 14.9596 -9.06322
      vertex -12 -9 -4
      vertex -12 15.1771 -8.86738
    endloop
  endfacet
  facet normal -1 0 0
    outer loop
      vertex -12 15.1771 -8.86738
      vertex -12 -9 -4
      vertex -12 15.4306 -8.72104
    endloop
  endfacet
  facet normal -1 0 0
    outer loop
      vertex -12 15.4306 -8.72104
      vertex -12 -9 -4
      vertex -12 15.7089 -8.63059
    endloop
  endfacet
  facet normal -1 0 0
    outer loop
      vertex -12 16 -8.6
      vertex -12 -9 -4
      vertex -12 41.5 -4
    endloop
  endfacet
  facet normal 0 1 -0
    outer loop
      vertex 38 41.5 -13
      vertex -12 41.5 -4
      vertex 38 41.5 -4
    endloop
  endfacet
  facet normal 0 1 0
    outer loop
      vertex -12 41.5 -4
      vertex 38 41.5 -13
      vertex -12 41.5 -13
    endloop
  endfacet
  facet normal 0 -1 0
    outer loop
      vertex -12 -9 -13
      vertex 38 -9 -4
      vertex -12 -9 -4
    endloop
  endfacet
  facet normal 0 -1 -0
    outer loop
      vertex 38 -9 -4
      vertex -12 -9 -13
      vertex 38 -9 -13
    endloop
  endfacet
  facet normal 1 0 0
    outer loop
      vertex -8.3 17.3923 -10.1463
      vertex -8.3 38 -8
      vertex -8.3 17.3923 -9.85366
    endloop
  endfacet
  facet normal 1 0 0
    outer loop
      vertex -8.3 38 -8
      vertex -8.3 17.3315 -9.56738
      vertex -8.3 17.3923 -9.85366
    endloop
  endfacet
  facet normal 1 0 0
    outer loop
      vertex -8.3 38 -8
      vertex -8.3 17.2124 -9.3
      vertex -8.3 17.3315 -9.56738
    endloop
  endfacet
  facet normal 1 0 0
    outer loop
      vertex -8.3 38 -8
      vertex -8.3 17.0404 -9.06322
      vertex -8.3 17.2124 -9.3
    endloop
  endfacet
  facet normal 1 0 0
    outer loop
      vertex -8.3 38 -8
      vertex -8.3 16.8229 -8.86738
      vertex -8.3 17.0404 -9.06322
    endloop
  endfacet
  facet normal 1 0 0
    outer loop
      vertex -8.3 38 -8
      vertex -8.3 16.5694 -8.72104
      vertex -8.3 16.8229 -8.86738
    endloop
  endfacet
  facet normal 1 0 0
    outer loop
      vertex -8.3 38 -8
      vertex -8.3 16.2911 -8.63059
      vertex -8.3 16.5694 -8.72104
    endloop
  endfacet
  facet normal 1 0 0
    outer loop
      vertex -8.3 38 -8
      vertex -8.3 16 -8.6
      vertex -8.3 16.2911 -8.63059
    endloop
  endfacet
  facet normal 1 0 0
    outer loop
      vertex -8.3 14.6077 -9.85366
      vertex -8.3 -5.5 -8
      vertex -8.3 14.6077 -10.1463
    endloop
  endfacet
  facet normal 1 0 0
    outer loop
      vertex -8.3 14.6685 -9.56738
      vertex -8.3 -5.5 -8
      vertex -8.3 14.6077 -9.85366
    endloop
  endfacet
  facet normal 1 0 0
    outer loop
      vertex -8.3 14.7876 -9.3
      vertex -8.3 -5.5 -8
      vertex -8.3 14.6685 -9.56738
    endloop
  endfacet
  facet normal 1 0 0
    outer loop
      vertex -8.3 14.9596 -9.06322
      vertex -8.3 -5.5 -8
      vertex -8.3 14.7876 -9.3
    endloop
  endfacet
  facet normal 1 0 0
    outer loop
      vertex -8.3 15.1771 -8.86738
      vertex -8.3 -5.5 -8
      vertex -8.3 14.9596 -9.06322
    endloop
  endfacet
  facet normal 1 0 0
    outer loop
      vertex -8.3 15.4306 -8.72104
      vertex -8.3 -5.5 -8
      vertex -8.3 15.1771 -8.86738
    endloop
  endfacet
  facet normal 1 0 0
    outer loop
      vertex -8.3 15.7089 -8.63059
      vertex -8.3 -5.5 -8
      vertex -8.3 15.4306 -8.72104
    endloop
  endfacet
  facet normal 1 0 0
    outer loop
      vertex -8.3 16 -8.6
      vertex -8.3 -5.5 -8
      vertex -8.3 15.7089 -8.63059
    endloop
  endfacet
  facet normal 1 -0 0
    outer loop
      vertex -8.3 -5.5 -8
      vertex -8.3 16 -8.6
      vertex -8.3 38 -8
    endloop
  endfacet
  facet normal 1 0 0
    outer loop
      vertex -8.3 38 -8
      vertex -8.3 17.3923 -10.1463
      vertex -8.3 38 -13
    endloop
  endfacet
  facet normal 1 -0 0
    outer loop
      vertex -8.3 17.3315 -10.4326
      vertex -8.3 38 -13
      vertex -8.3 17.3923 -10.1463
    endloop
  endfacet
  facet normal 1 -0 0
    outer loop
      vertex -8.3 17.2124 -10.7
      vertex -8.3 38 -13
      vertex -8.3 17.3315 -10.4326
    endloop
  endfacet
  facet normal 1 -0 0
    outer loop
      vertex -8.3 17.0404 -10.9368
      vertex -8.3 38 -13
      vertex -8.3 17.2124 -10.7
    endloop
  endfacet
  facet normal 1 -0 0
    outer loop
      vertex -8.3 16.8229 -11.1326
      vertex -8.3 38 -13
      vertex -8.3 17.0404 -10.9368
    endloop
  endfacet
  facet normal 1 -0 0
    outer loop
      vertex -8.3 16.5694 -11.279
      vertex -8.3 38 -13
      vertex -8.3 16.8229 -11.1326
    endloop
  endfacet
  facet normal 1 -0 0
    outer loop
      vertex -8.3 16.2911 -11.3694
      vertex -8.3 38 -13
      vertex -8.3 16.5694 -11.279
    endloop
  endfacet
  facet normal 1 -0 0
    outer loop
      vertex -8.3 16 -11.4
      vertex -8.3 38 -13
      vertex -8.3 16.2911 -11.3694
    endloop
  endfacet
  facet normal 1 0 0
    outer loop
      vertex -8.3 -5.5 -13
      vertex -8.3 14.6077 -10.1463
      vertex -8.3 -5.5 -8
    endloop
  endfacet
  facet normal 1 0 0
    outer loop
      vertex -8.3 14.6077 -10.1463
      vertex -8.3 -5.5 -13
      vertex -8.3 14.6685 -10.4326
    endloop
  endfacet
  facet normal 1 0 0
    outer loop
      vertex -8.3 14.6685 -10.4326
      vertex -8.3 -5.5 -13
      vertex -8.3 14.7876 -10.7
    endloop
  endfacet
  facet normal 1 0 0
    outer loop
      vertex -8.3 14.7876 -10.7
      vertex -8.3 -5.5 -13
      vertex -8.3 14.9596 -10.9368
    endloop
  endfacet
  facet normal 1 0 0
    outer loop
      vertex -8.3 14.9596 -10.9368
      vertex -8.3 -5.5 -13
      vertex -8.3 15.1771 -11.1326
    endloop
  endfacet
  facet normal 1 0 0
    outer loop
      vertex -8.3 15.1771 -11.1326
      vertex -8.3 -5.5 -13
      vertex -8.3 15.4306 -11.279
    endloop
  endfacet
  facet normal 1 0 0
    outer loop
      vertex -8.3 16 -11.4
      vertex -8.3 -5.5 -13
      vertex -8.3 38 -13
    endloop
  endfacet
  facet normal 1 0 0
    outer loop
      vertex -8.3 15.7089 -11.3694
      vertex -8.3 -5.5 -13
      vertex -8.3 16 -11.4
    endloop
  endfacet
  facet normal 1 0 0
    outer loop
      vertex -8.3 15.4306 -11.279
      vertex -8.3 -5.5 -13
      vertex -8.3 15.7089 -11.3694
    endloop
  endfacet
  facet normal 0 0 -1
    outer loop
      vertex 38 -9 -13
      vertex 34.4 -5.5 -13
      vertex 38 41.5 -13
    endloop
  endfacet
  facet normal 0 0 -1
    outer loop
      vertex 38 -9 -13
      vertex -8.3 -5.5 -13
      vertex 34.4 -5.5 -13
    endloop
  endfacet
  facet normal -0 0 -1
    outer loop
      vertex -8.3 -5.5 -13
      vertex -12 -9 -13
      vertex -8.3 38 -13
    endloop
  endfacet
  facet normal 0 0 -1
    outer loop
      vertex -12 -9 -13
      vertex -8.3 -5.5 -13
      vertex 38 -9 -13
    endloop
  endfacet
  facet normal 0 0 -1
    outer loop
      vertex 34.4 38 -13
      vertex 38 41.5 -13
      vertex 34.4 -5.5 -13
    endloop
  endfacet
  facet normal 0 0 -1
    outer loop
      vertex -8.3 38 -13
      vertex 38 41.5 -13
      vertex 34.4 38 -13
    endloop
  endfacet
  facet normal 0 0 -1
    outer loop
      vertex -8.3 38 -13
      vertex -12 41.5 -13
      vertex 38 41.5 -13
    endloop
  endfacet
  facet normal 0 0 -1
    outer loop
      vertex -12 41.5 -13
      vertex -8.3 38 -13
      vertex -12 -9 -13
    endloop
  endfacet
  facet normal -1 0 0
    outer loop
      vertex 34.4 38 -13
      vertex 34.4 17.3923 -10.1463
      vertex 34.4 38 -8
    endloop
  endfacet
  facet normal -1 0 0
    outer loop
      vertex 34.4 38 -13
      vertex 34.4 17.3315 -10.4326
      vertex 34.4 17.3923 -10.1463
    endloop
  endfacet
  facet normal -1 0 0
    outer loop
      vertex 34.4 38 -13
      vertex 34.4 17.2124 -10.7
      vertex 34.4 17.3315 -10.4326
    endloop
  endfacet
  facet normal -1 0 0
    outer loop
      vertex 34.4 38 -13
      vertex 34.4 17.0404 -10.9368
      vertex 34.4 17.2124 -10.7
    endloop
  endfacet
  facet normal -1 0 0
    outer loop
      vertex 34.4 38 -13
      vertex 34.4 16.8229 -11.1326
      vertex 34.4 17.0404 -10.9368
    endloop
  endfacet
  facet normal -1 0 0
    outer loop
      vertex 34.4 38 -13
      vertex 34.4 16.5694 -11.279
      vertex 34.4 16.8229 -11.1326
    endloop
  endfacet
  facet normal -1 0 0
    outer loop
      vertex 34.4 38 -13
      vertex 34.4 16.2911 -11.3694
      vertex 34.4 16.5694 -11.279
    endloop
  endfacet
  facet normal -1 0 0
    outer loop
      vertex 34.4 38 -13
      vertex 34.4 16 -11.4
      vertex 34.4 16.2911 -11.3694
    endloop
  endfacet
  facet normal -1 0 0
    outer loop
      vertex 34.4 -5.5 -8
      vertex 34.4 14.6077 -10.1463
      vertex 34.4 -5.5 -13
    endloop
  endfacet
  facet normal -1 -0 0
    outer loop
      vertex 34.4 14.6685 -10.4326
      vertex 34.4 -5.5 -13
      vertex 34.4 14.6077 -10.1463
    endloop
  endfacet
  facet normal -1 -0 0
    outer loop
      vertex 34.4 14.7876 -10.7
      vertex 34.4 -5.5 -13
      vertex 34.4 14.6685 -10.4326
    endloop
  endfacet
  facet normal -1 -0 0
    outer loop
      vertex 34.4 14.9596 -10.9368
      vertex 34.4 -5.5 -13
      vertex 34.4 14.7876 -10.7
    endloop
  endfacet
  facet normal -1 -0 0
    outer loop
      vertex 34.4 15.1771 -11.1326
      vertex 34.4 -5.5 -13
      vertex 34.4 14.9596 -10.9368
    endloop
  endfacet
  facet normal -1 -0 0
    outer loop
      vertex 34.4 15.4306 -11.279
      vertex 34.4 -5.5 -13
      vertex 34.4 15.1771 -11.1326
    endloop
  endfacet
  facet normal -1 -0 0
    outer loop
      vertex 34.4 15.7089 -11.3694
      vertex 34.4 -5.5 -13
      vertex 34.4 15.4306 -11.279
    endloop
  endfacet
  facet normal -1 -0 0
    outer loop
      vertex 34.4 16 -11.4
      vertex 34.4 -5.5 -13
      vertex 34.4 15.7089 -11.3694
    endloop
  endfacet
  facet normal -1 0 0
    outer loop
      vertex 34.4 -5.5 -13
      vertex 34.4 16 -11.4
      vertex 34.4 38 -13
    endloop
  endfacet
  facet normal -1 0 0
    outer loop
      vertex 34.4 17.3923 -9.85366
      vertex 34.4 38 -8
      vertex 34.4 17.3923 -10.1463
    endloop
  endfacet
  facet normal -1 0 0
    outer loop
      vertex 34.4 17.3315 -9.56738
      vertex 34.4 38 -8
      vertex 34.4 17.3923 -9.85366
    endloop
  endfacet
  facet normal -1 0 0
    outer loop
      vertex 34.4 17.2124 -9.3
      vertex 34.4 38 -8
      vertex 34.4 17.3315 -9.56738
    endloop
  endfacet
  facet normal -1 0 0
    outer loop
      vertex 34.4 17.0404 -9.06322
      vertex 34.4 38 -8
      vertex 34.4 17.2124 -9.3
    endloop
  endfacet
  facet normal -1 0 0
    outer loop
      vertex 34.4 16.8229 -8.86738
      vertex 34.4 38 -8
      vertex 34.4 17.0404 -9.06322
    endloop
  endfacet
  facet normal -1 0 0
    outer loop
      vertex 34.4 16.5694 -8.72104
      vertex 34.4 38 -8
      vertex 34.4 16.8229 -8.86738
    endloop
  endfacet
  facet normal -1 0 0
    outer loop
      vertex 34.4 16.2911 -8.63059
      vertex 34.4 38 -8
      vertex 34.4 16.5694 -8.72104
    endloop
  endfacet
  facet normal -1 0 0
    outer loop
      vertex 34.4 16 -8.6
      vertex 34.4 38 -8
      vertex 34.4 16.2911 -8.63059
    endloop
  endfacet
  facet normal -1 0 0
    outer loop
      vertex 34.4 14.6077 -10.1463
      vertex 34.4 -5.5 -8
      vertex 34.4 14.6077 -9.85366
    endloop
  endfacet
  facet normal -1 0 0
    outer loop
      vertex 34.4 14.6077 -9.85366
      vertex 34.4 -5.5 -8
      vertex 34.4 14.6685 -9.56738
    endloop
  endfacet
  facet normal -1 0 0
    outer loop
      vertex 34.4 14.6685 -9.56738
      vertex 34.4 -5.5 -8
      vertex 34.4 14.7876 -9.3
    endloop
  endfacet
  facet normal -1 0 0
    outer loop
      vertex 34.4 14.7876 -9.3
      vertex 34.4 -5.5 -8
      vertex 34.4 14.9596 -9.06322
    endloop
  endfacet
  facet normal -1 0 0
    outer loop
      vertex 34.4 14.9596 -9.06322
      vertex 34.4 -5.5 -8
      vertex 34.4 15.1771 -8.86738
    endloop
  endfacet
  facet normal -1 0 0
    outer loop
      vertex 34.4 15.1771 -8.86738
      vertex 34.4 -5.5 -8
      vertex 34.4 15.4306 -8.72104
    endloop
  endfacet
  facet normal -1 0 0
    outer loop
      vertex 34.4 16 -8.6
      vertex 34.4 -5.5 -8
      vertex 34.4 38 -8
    endloop
  endfacet
  facet normal -1 0 0
    outer loop
      vertex 34.4 15.7089 -8.63059
      vertex 34.4 -5.5 -8
      vertex 34.4 16 -8.6
    endloop
  endfacet
  facet normal -1 0 0
    outer loop
      vertex 34.4 15.4306 -8.72104
      vertex 34.4 -5.5 -8
      vertex 34.4 15.7089 -8.63059
    endloop
  endfacet
  facet normal 0 1 -0
    outer loop
      vertex 34.4 -5.5 -13
      vertex -8.3 -5.5 -8
      vertex 34.4 -5.5 -8
    endloop
  endfacet
  facet normal 0 1 0
    outer loop
      vertex -8.3 -5.5 -8
      vertex 34.4 -5.5 -13
      vertex -8.3 -5.5 -13
    endloop
  endfacet
  facet normal 0 -1 0
    outer loop
      vertex -8.3 38 -13
      vertex 34.4 38 -8
      vertex -8.3 38 -8
    endloop
  endfacet
  facet normal 0 -1 -0
    outer loop
      vertex 34.4 38 -8
      vertex -8.3 38 -13
      vertex 34.4 38 -13
    endloop
  endfacet
  facet normal 0 0.913487 0.406867
    outer loop
      vertex -8.3 14.7876 -10.7
      vertex -12 14.6685 -10.4326
      vertex -8.3 14.6685 -10.4326
    endloop
  endfacet
  facet normal 0 0.913487 0.406867
    outer loop
      vertex -12 14.6685 -10.4326
      vertex -8.3 14.7876 -10.7
      vertex -12 14.7876 -10.7
    endloop
  endfacet
  facet normal 0 0.913487 0.406867
    outer loop
      vertex 38 14.7876 -10.7
      vertex 34.4 14.6685 -10.4326
      vertex 38 14.6685 -10.4326
    endloop
  endfacet
  facet normal 0 0.913487 0.406867
    outer loop
      vertex 34.4 14.6685 -10.4326
      vertex 38 14.7876 -10.7
      vertex 34.4 14.7876 -10.7
    endloop
  endfacet
  facet normal 0 -0.809067 -0.587717
    outer loop
      vertex -12 17.2124 -9.3
      vertex -8.3 17.0404 -9.06322
      vertex -12 17.0404 -9.06322
    endloop
  endfacet
  facet normal 0 -0.809067 -0.587717
    outer loop
      vertex -8.3 17.0404 -9.06322
      vertex -12 17.2124 -9.3
      vertex -8.3 17.2124 -9.3
    endloop
  endfacet
  facet normal 0 -0.809067 -0.587717
    outer loop
      vertex 34.4 17.2124 -9.3
      vertex 38 17.0404 -9.06322
      vertex 34.4 17.0404 -9.06322
    endloop
  endfacet
  facet normal 0 -0.809067 -0.587717
    outer loop
      vertex 38 17.0404 -9.06322
      vertex 34.4 17.2124 -9.3
      vertex 38 17.2124 -9.3
    endloop
  endfacet
  facet normal 0 -0.308939 0.951082
    outer loop
      vertex -12 16.5694 -11.279
      vertex -8.3 16.2911 -11.3694
      vertex -8.3 16.5694 -11.279
    endloop
  endfacet
  facet normal 0 -0.308939 0.951082
    outer loop
      vertex -8.3 16.2911 -11.3694
      vertex -12 16.5694 -11.279
      vertex -12 16.2911 -11.3694
    endloop
  endfacet
  facet normal 0 -0.308939 0.951082
    outer loop
      vertex 34.4 16.5694 -11.279
      vertex 38 16.2911 -11.3694
      vertex 38 16.5694 -11.279
    endloop
  endfacet
  facet normal 0 -0.308939 0.951082
    outer loop
      vertex 38 16.2911 -11.3694
      vertex 34.4 16.5694 -11.279
      vertex 34.4 16.2911 -11.3694
    endloop
  endfacet
  facet normal 0 0.309094 -0.951032
    outer loop
      vertex -12 15.4306 -8.72104
      vertex -8.3 15.7089 -8.63059
      vertex -8.3 15.4306 -8.72104
    endloop
  endfacet
  facet normal 0 0.309094 -0.951032
    outer loop
      vertex -8.3 15.7089 -8.63059
      vertex -12 15.4306 -8.72104
      vertex -12 15.7089 -8.63059
    endloop
  endfacet
  facet normal 0 0.309094 -0.951032
    outer loop
      vertex 34.4 15.4306 -8.72104
      vertex 38 15.7089 -8.63059
      vertex 38 15.4306 -8.72104
    endloop
  endfacet
  facet normal 0 0.309094 -0.951032
    outer loop
      vertex 38 15.7089 -8.63059
      vertex 34.4 15.4306 -8.72104
      vertex 34.4 15.7089 -8.63059
    endloop
  endfacet
  facet normal -0 0.104543 0.99452
    outer loop
      vertex -12 16 -11.4
      vertex -8.3 15.7089 -11.3694
      vertex -8.3 16 -11.4
    endloop
  endfacet
  facet normal 0 0.104543 0.99452
    outer loop
      vertex -8.3 15.7089 -11.3694
      vertex -12 16 -11.4
      vertex -12 15.7089 -11.3694
    endloop
  endfacet
  facet normal -0 0.104543 0.99452
    outer loop
      vertex 34.4 16 -11.4
      vertex 38 15.7089 -11.3694
      vertex 38 16 -11.4
    endloop
  endfacet
  facet normal 0 0.104543 0.99452
    outer loop
      vertex 38 15.7089 -11.3694
      vertex 34.4 16 -11.4
      vertex 34.4 15.7089 -11.3694
    endloop
  endfacet
  facet normal -0 0.669059 0.743209
    outer loop
      vertex -12 15.1771 -11.1326
      vertex -8.3 14.9596 -10.9368
      vertex -8.3 15.1771 -11.1326
    endloop
  endfacet
  facet normal 0 0.669059 0.743209
    outer loop
      vertex -8.3 14.9596 -10.9368
      vertex -12 15.1771 -11.1326
      vertex -12 14.9596 -10.9368
    endloop
  endfacet
  facet normal -0 0.669059 0.743209
    outer loop
      vertex 34.4 15.1771 -11.1326
      vertex 38 14.9596 -10.9368
      vertex 38 15.1771 -11.1326
    endloop
  endfacet
  facet normal 0 0.669059 0.743209
    outer loop
      vertex 38 14.9596 -10.9368
      vertex 34.4 15.1771 -11.1326
      vertex 34.4 14.9596 -10.9368
    endloop
  endfacet
  facet normal 0 -0.500107 0.865964
    outer loop
      vertex -12 16.8229 -11.1326
      vertex -8.3 16.5694 -11.279
      vertex -8.3 16.8229 -11.1326
    endloop
  endfacet
  facet normal 0 -0.500107 0.865964
    outer loop
      vertex -8.3 16.5694 -11.279
      vertex -12 16.8229 -11.1326
      vertex -12 16.5694 -11.279
    endloop
  endfacet
  facet normal 0 -0.500107 0.865964
    outer loop
      vertex 34.4 16.8229 -11.1326
      vertex 38 16.5694 -11.279
      vertex 38 16.8229 -11.1326
    endloop
  endfacet
  facet normal 0 -0.500107 0.865964
    outer loop
      vertex 38 16.5694 -11.279
      vertex 34.4 16.8229 -11.1326
      vertex 34.4 16.5694 -11.279
    endloop
  endfacet
  facet normal 0 -0.499953 -0.866052
    outer loop
      vertex -12 16.5694 -8.72104
      vertex -8.3 16.8229 -8.86738
      vertex -8.3 16.5694 -8.72104
    endloop
  endfacet
  facet normal -0 -0.499953 -0.866052
    outer loop
      vertex -8.3 16.8229 -8.86738
      vertex -12 16.5694 -8.72104
      vertex -12 16.8229 -8.86738
    endloop
  endfacet
  facet normal 0 -0.499953 -0.866052
    outer loop
      vertex 34.4 16.5694 -8.72104
      vertex 38 16.8229 -8.86738
      vertex 38 16.5694 -8.72104
    endloop
  endfacet
  facet normal -0 -0.499953 -0.866052
    outer loop
      vertex 38 16.8229 -8.86738
      vertex 34.4 16.5694 -8.72104
      vertex 34.4 16.8229 -8.86738
    endloop
  endfacet
  facet normal 0 0.978183 -0.207746
    outer loop
      vertex -8.3 14.6077 -9.85366
      vertex -12 14.6685 -9.56738
      vertex -8.3 14.6685 -9.56738
    endloop
  endfacet
  facet normal 0 0.978183 -0.207746
    outer loop
      vertex -12 14.6685 -9.56738
      vertex -8.3 14.6077 -9.85366
      vertex -12 14.6077 -9.85366
    endloop
  endfacet
  facet normal 0 0.978183 -0.207746
    outer loop
      vertex 38 14.6077 -9.85366
      vertex 34.4 14.6685 -9.56738
      vertex 38 14.6685 -9.56738
    endloop
  endfacet
  facet normal 0 0.978183 -0.207746
    outer loop
      vertex 34.4 14.6685 -9.56738
      vertex 38 14.6077 -9.85366
      vertex 34.4 14.6077 -9.85366
    endloop
  endfacet
  facet normal 0 0.809091 0.587684
    outer loop
      vertex -8.3 14.9596 -10.9368
      vertex -12 14.7876 -10.7
      vertex -8.3 14.7876 -10.7
    endloop
  endfacet
  facet normal 0 0.809091 0.587684
    outer loop
      vertex -12 14.7876 -10.7
      vertex -8.3 14.9596 -10.9368
      vertex -12 14.9596 -10.9368
    endloop
  endfacet
  facet normal 0 0.809091 0.587684
    outer loop
      vertex 38 14.9596 -10.9368
      vertex 34.4 14.7876 -10.7
      vertex 38 14.7876 -10.7
    endloop
  endfacet
  facet normal 0 0.809091 0.587684
    outer loop
      vertex 34.4 14.7876 -10.7
      vertex 38 14.9596 -10.9368
      vertex 34.4 14.9596 -10.9368
    endloop
  endfacet
  facet normal 0 -0.104543 0.99452
    outer loop
      vertex -12 16.2911 -11.3694
      vertex -8.3 16 -11.4
      vertex -8.3 16.2911 -11.3694
    endloop
  endfacet
  facet normal 0 -0.104543 0.99452
    outer loop
      vertex -8.3 16 -11.4
      vertex -12 16.2911 -11.3694
      vertex -12 16 -11.4
    endloop
  endfacet
  facet normal 0 -0.104543 0.99452
    outer loop
      vertex 34.4 16.2911 -11.3694
      vertex 38 16 -11.4
      vertex 38 16.2911 -11.3694
    endloop
  endfacet
  facet normal 0 -0.104543 0.99452
    outer loop
      vertex 38 16 -11.4
      vertex 34.4 16.2911 -11.3694
      vertex 34.4 16 -11.4
    endloop
  endfacet
  facet normal 0 0.913476 -0.406893
    outer loop
      vertex -8.3 14.6685 -9.56738
      vertex -12 14.7876 -9.3
      vertex -8.3 14.7876 -9.3
    endloop
  endfacet
  facet normal 0 0.913476 -0.406893
    outer loop
      vertex -12 14.7876 -9.3
      vertex -8.3 14.6685 -9.56738
      vertex -12 14.6685 -9.56738
    endloop
  endfacet
  facet normal 0 0.913476 -0.406893
    outer loop
      vertex 38 14.6685 -9.56738
      vertex 34.4 14.7876 -9.3
      vertex 38 14.7876 -9.3
    endloop
  endfacet
  facet normal 0 0.913476 -0.406893
    outer loop
      vertex 34.4 14.7876 -9.3
      vertex 38 14.6685 -9.56738
      vertex 34.4 14.6685 -9.56738
    endloop
  endfacet
  facet normal 0 -0.309094 -0.951032
    outer loop
      vertex -12 16.2911 -8.63059
      vertex -8.3 16.5694 -8.72104
      vertex -8.3 16.2911 -8.63059
    endloop
  endfacet
  facet normal -0 -0.309094 -0.951032
    outer loop
      vertex -8.3 16.5694 -8.72104
      vertex -12 16.2911 -8.63059
      vertex -12 16.5694 -8.72104
    endloop
  endfacet
  facet normal 0 -0.309094 -0.951032
    outer loop
      vertex 34.4 16.2911 -8.63059
      vertex 38 16.5694 -8.72104
      vertex 38 16.2911 -8.63059
    endloop
  endfacet
  facet normal -0 -0.309094 -0.951032
    outer loop
      vertex 38 16.5694 -8.72104
      vertex 34.4 16.2911 -8.63059
      vertex 34.4 16.5694 -8.72104
    endloop
  endfacet
  facet normal 0 0.499953 -0.866052
    outer loop
      vertex -12 15.1771 -8.86738
      vertex -8.3 15.4306 -8.72104
      vertex -8.3 15.1771 -8.86738
    endloop
  endfacet
  facet normal 0 0.499953 -0.866052
    outer loop
      vertex -8.3 15.4306 -8.72104
      vertex -12 15.1771 -8.86738
      vertex -12 15.4306 -8.72104
    endloop
  endfacet
  facet normal 0 0.499953 -0.866052
    outer loop
      vertex 34.4 15.1771 -8.86738
      vertex 38 15.4306 -8.72104
      vertex 38 15.1771 -8.86738
    endloop
  endfacet
  facet normal 0 0.499953 -0.866052
    outer loop
      vertex 38 15.4306 -8.72104
      vertex 34.4 15.1771 -8.86738
      vertex 34.4 15.4306 -8.72104
    endloop
  endfacet
  facet normal -0 0.308939 0.951082
    outer loop
      vertex -12 15.7089 -11.3694
      vertex -8.3 15.4306 -11.279
      vertex -8.3 15.7089 -11.3694
    endloop
  endfacet
  facet normal 0 0.308939 0.951082
    outer loop
      vertex -8.3 15.4306 -11.279
      vertex -12 15.7089 -11.3694
      vertex -12 15.4306 -11.279
    endloop
  endfacet
  facet normal -0 0.308939 0.951082
    outer loop
      vertex 34.4 15.7089 -11.3694
      vertex 38 15.4306 -11.279
      vertex 38 15.7089 -11.3694
    endloop
  endfacet
  facet normal 0 0.308939 0.951082
    outer loop
      vertex 38 15.4306 -11.279
      vertex 34.4 15.7089 -11.3694
      vertex 34.4 15.4306 -11.279
    endloop
  endfacet
  facet normal 0 0.809067 -0.587717
    outer loop
      vertex -8.3 14.7876 -9.3
      vertex -12 14.9596 -9.06322
      vertex -8.3 14.9596 -9.06322
    endloop
  endfacet
  facet normal 0 0.809067 -0.587717
    outer loop
      vertex -12 14.9596 -9.06322
      vertex -8.3 14.7876 -9.3
      vertex -12 14.7876 -9.3
    endloop
  endfacet
  facet normal 0 0.809067 -0.587717
    outer loop
      vertex 38 14.7876 -9.3
      vertex 34.4 14.9596 -9.06322
      vertex 38 14.9596 -9.06322
    endloop
  endfacet
  facet normal 0 0.809067 -0.587717
    outer loop
      vertex 34.4 14.9596 -9.06322
      vertex 38 14.7876 -9.3
      vertex 34.4 14.7876 -9.3
    endloop
  endfacet
  facet normal 0 0.669135 -0.743141
    outer loop
      vertex -12 14.9596 -9.06322
      vertex -8.3 15.1771 -8.86738
      vertex -8.3 14.9596 -9.06322
    endloop
  endfacet
  facet normal 0 0.669135 -0.743141
    outer loop
      vertex -8.3 15.1771 -8.86738
      vertex -12 14.9596 -9.06322
      vertex -12 15.1771 -8.86738
    endloop
  endfacet
  facet normal 0 0.669135 -0.743141
    outer loop
      vertex 34.4 14.9596 -9.06322
      vertex 38 15.1771 -8.86738
      vertex 38 14.9596 -9.06322
    endloop
  endfacet
  facet normal 0 0.669135 -0.743141
    outer loop
      vertex 38 15.1771 -8.86738
      vertex 34.4 14.9596 -9.06322
      vertex 34.4 15.1771 -8.86738
    endloop
  endfacet
  facet normal 0 -0.669135 -0.743141
    outer loop
      vertex -12 16.8229 -8.86738
      vertex -8.3 17.0404 -9.06322
      vertex -8.3 16.8229 -8.86738
    endloop
  endfacet
  facet normal -0 -0.669135 -0.743141
    outer loop
      vertex -8.3 17.0404 -9.06322
      vertex -12 16.8229 -8.86738
      vertex -12 17.0404 -9.06322
    endloop
  endfacet
  facet normal 0 -0.669135 -0.743141
    outer loop
      vertex 34.4 16.8229 -8.86738
      vertex 38 17.0404 -9.06322
      vertex 38 16.8229 -8.86738
    endloop
  endfacet
  facet normal -0 -0.669135 -0.743141
    outer loop
      vertex 38 17.0404 -9.06322
      vertex 34.4 16.8229 -8.86738
      vertex 34.4 17.0404 -9.06322
    endloop
  endfacet
  facet normal 0 -0.809091 0.587684
    outer loop
      vertex -12 17.0404 -10.9368
      vertex -8.3 17.2124 -10.7
      vertex -12 17.2124 -10.7
    endloop
  endfacet
  facet normal 0 -0.809091 0.587684
    outer loop
      vertex -8.3 17.2124 -10.7
      vertex -12 17.0404 -10.9368
      vertex -8.3 17.0404 -10.9368
    endloop
  endfacet
  facet normal 0 -0.809091 0.587684
    outer loop
      vertex 34.4 17.0404 -10.9368
      vertex 38 17.2124 -10.7
      vertex 34.4 17.2124 -10.7
    endloop
  endfacet
  facet normal 0 -0.809091 0.587684
    outer loop
      vertex 38 17.2124 -10.7
      vertex 34.4 17.0404 -10.9368
      vertex 38 17.0404 -10.9368
    endloop
  endfacet
  facet normal 0 -0.104509 -0.994524
    outer loop
      vertex -12 16 -8.6
      vertex -8.3 16.2911 -8.63059
      vertex -8.3 16 -8.6
    endloop
  endfacet
  facet normal -0 -0.104509 -0.994524
    outer loop
      vertex -8.3 16.2911 -8.63059
      vertex -12 16 -8.6
      vertex -12 16.2911 -8.63059
    endloop
  endfacet
  facet normal 0 -0.104509 -0.994524
    outer loop
      vertex 34.4 16 -8.6
      vertex 38 16.2911 -8.63059
      vertex 38 16 -8.6
    endloop
  endfacet
  facet normal -0 -0.104509 -0.994524
    outer loop
      vertex 38 16.2911 -8.63059
      vertex 34.4 16 -8.6
      vertex 34.4 16.2911 -8.63059
    endloop
  endfacet
  facet normal -0 0.500107 0.865964
    outer loop
      vertex -12 15.4306 -11.279
      vertex -8.3 15.1771 -11.1326
      vertex -8.3 15.4306 -11.279
    endloop
  endfacet
  facet normal 0 0.500107 0.865964
    outer loop
      vertex -8.3 15.1771 -11.1326
      vertex -12 15.4306 -11.279
      vertex -12 15.1771 -11.1326
    endloop
  endfacet
  facet normal -0 0.500107 0.865964
    outer loop
      vertex 34.4 15.4306 -11.279
      vertex 38 15.1771 -11.1326
      vertex 38 15.4306 -11.279
    endloop
  endfacet
  facet normal 0 0.500107 0.865964
    outer loop
      vertex 38 15.1771 -11.1326
      vertex 34.4 15.4306 -11.279
      vertex 34.4 15.1771 -11.1326
    endloop
  endfacet
  facet normal 0 0.104509 -0.994524
    outer loop
      vertex -12 15.7089 -8.63059
      vertex -8.3 16 -8.6
      vertex -8.3 15.7089 -8.63059
    endloop
  endfacet
  facet normal 0 0.104509 -0.994524
    outer loop
      vertex -8.3 16 -8.6
      vertex -12 15.7089 -8.63059
      vertex -12 16 -8.6
    endloop
  endfacet
  facet normal 0 0.104509 -0.994524
    outer loop
      vertex 34.4 15.7089 -8.63059
      vertex 38 16 -8.6
      vertex 38 15.7089 -8.63059
    endloop
  endfacet
  facet normal 0 0.104509 -0.994524
    outer loop
      vertex 38 16 -8.6
      vertex 34.4 15.7089 -8.63059
      vertex 34.4 16 -8.6
    endloop
  endfacet
  facet normal 0 -0.669059 0.743209
    outer loop
      vertex -12 17.0404 -10.9368
      vertex -8.3 16.8229 -11.1326
      vertex -8.3 17.0404 -10.9368
    endloop
  endfacet
  facet normal 0 -0.669059 0.743209
    outer loop
      vertex -8.3 16.8229 -11.1326
      vertex -12 17.0404 -10.9368
      vertex -12 16.8229 -11.1326
    endloop
  endfacet
  facet normal 0 -0.669059 0.743209
    outer loop
      vertex 34.4 17.0404 -10.9368
      vertex 38 16.8229 -11.1326
      vertex 38 17.0404 -10.9368
    endloop
  endfacet
  facet normal 0 -0.669059 0.743209
    outer loop
      vertex 38 16.8229 -11.1326
      vertex 34.4 17.0404 -10.9368
      vertex 34.4 16.8229 -11.1326
    endloop
  endfacet
  facet normal 0 -0.913487 0.406867
    outer loop
      vertex -12 17.2124 -10.7
      vertex -8.3 17.3315 -10.4326
      vertex -12 17.3315 -10.4326
    endloop
  endfacet
  facet normal 0 -0.913487 0.406867
    outer loop
      vertex -8.3 17.3315 -10.4326
      vertex -12 17.2124 -10.7
      vertex -8.3 17.2124 -10.7
    endloop
  endfacet
  facet normal 0 -0.913487 0.406867
    outer loop
      vertex 34.4 17.2124 -10.7
      vertex 38 17.3315 -10.4326
      vertex 34.4 17.3315 -10.4326
    endloop
  endfacet
  facet normal 0 -0.913487 0.406867
    outer loop
      vertex 38 17.3315 -10.4326
      vertex 34.4 17.2124 -10.7
      vertex 38 17.2124 -10.7
    endloop
  endfacet
  facet normal 0 -0.978186 0.207732
    outer loop
      vertex -12 17.3315 -10.4326
      vertex -8.3 17.3923 -10.1463
      vertex -12 17.3923 -10.1463
    endloop
  endfacet
  facet normal 0 -0.978186 0.207732
    outer loop
      vertex -8.3 17.3923 -10.1463
      vertex -12 17.3315 -10.4326
      vertex -8.3 17.3315 -10.4326
    endloop
  endfacet
  facet normal 0 -0.978186 0.207732
    outer loop
      vertex 34.4 17.3315 -10.4326
      vertex 38 17.3923 -10.1463
      vertex 34.4 17.3923 -10.1463
    endloop
  endfacet
  facet normal 0 -0.978186 0.207732
    outer loop
      vertex 38 17.3923 -10.1463
      vertex 34.4 17.3315 -10.4326
      vertex 38 17.3315 -10.4326
    endloop
  endfacet
  facet normal 0 0.978186 0.207732
    outer loop
      vertex -8.3 14.6685 -10.4326
      vertex -12 14.6077 -10.1463
      vertex -8.3 14.6077 -10.1463
    endloop
  endfacet
  facet normal 0 0.978186 0.207732
    outer loop
      vertex -12 14.6077 -10.1463
      vertex -8.3 14.6685 -10.4326
      vertex -12 14.6685 -10.4326
    endloop
  endfacet
  facet normal 0 0.978186 0.207732
    outer loop
      vertex 38 14.6685 -10.4326
      vertex 34.4 14.6077 -10.1463
      vertex 38 14.6077 -10.1463
    endloop
  endfacet
  facet normal 0 0.978186 0.207732
    outer loop
      vertex 34.4 14.6077 -10.1463
      vertex 38 14.6685 -10.4326
      vertex 34.4 14.6685 -10.4326
    endloop
  endfacet
  facet normal 0 -0.913476 -0.406893
    outer loop
      vertex -12 17.3315 -9.56738
      vertex -8.3 17.2124 -9.3
      vertex -12 17.2124 -9.3
    endloop
  endfacet
  facet normal 0 -0.913476 -0.406893
    outer loop
      vertex -8.3 17.2124 -9.3
      vertex -12 17.3315 -9.56738
      vertex -8.3 17.3315 -9.56738
    endloop
  endfacet
  facet normal 0 -0.913476 -0.406893
    outer loop
      vertex 34.4 17.3315 -9.56738
      vertex 38 17.2124 -9.3
      vertex 34.4 17.2124 -9.3
    endloop
  endfacet
  facet normal 0 -0.913476 -0.406893
    outer loop
      vertex 38 17.2124 -9.3
      vertex 34.4 17.3315 -9.56738
      vertex 38 17.3315 -9.56738
    endloop
  endfacet
  facet normal 0 -1 0
    outer loop
      vertex -12 17.3923 -10.1463
      vertex -8.3 17.3923 -9.85366
      vertex -12 17.3923 -9.85366
    endloop
  endfacet
  facet normal 0 -1 -0
    outer loop
      vertex -8.3 17.3923 -9.85366
      vertex -12 17.3923 -10.1463
      vertex -8.3 17.3923 -10.1463
    endloop
  endfacet
  facet normal 0 -1 0
    outer loop
      vertex 34.4 17.3923 -10.1463
      vertex 38 17.3923 -9.85366
      vertex 34.4 17.3923 -9.85366
    endloop
  endfacet
  facet normal 0 -1 -0
    outer loop
      vertex 38 17.3923 -9.85366
      vertex 34.4 17.3923 -10.1463
      vertex 38 17.3923 -10.1463
    endloop
  endfacet
  facet normal 0 -0.978183 -0.207746
    outer loop
      vertex -12 17.3923 -9.85366
      vertex -8.3 17.3315 -9.56738
      vertex -12 17.3315 -9.56738
    endloop
  endfacet
  facet normal 0 -0.978183 -0.207746
    outer loop
      vertex -8.3 17.3315 -9.56738
      vertex -12 17.3923 -9.85366
      vertex -8.3 17.3923 -9.85366
    endloop
  endfacet
  facet normal 0 -0.978183 -0.207746
    outer loop
      vertex 34.4 17.3923 -9.85366
      vertex 38 17.3315 -9.56738
      vertex 34.4 17.3315 -9.56738
    endloop
  endfacet
  facet normal 0 -0.978183 -0.207746
    outer loop
      vertex 38 17.3315 -9.56738
      vertex 34.4 17.3923 -9.85366
      vertex 38 17.3923 -9.85366
    endloop
  endfacet
  facet normal 0 1 -0
    outer loop
      vertex -8.3 14.6077 -10.1463
      vertex -12 14.6077 -9.85366
      vertex -8.3 14.6077 -9.85366
    endloop
  endfacet
  facet normal 0 1 0
    outer loop
      vertex -12 14.6077 -9.85366
      vertex -8.3 14.6077 -10.1463
      vertex -12 14.6077 -10.1463
    endloop
  endfacet
  facet normal 0 1 -0
    outer loop
      vertex 38 14.6077 -10.1463
      vertex 34.4 14.6077 -9.85366
      vertex 38 14.6077 -9.85366
    endloop
  endfacet
  facet normal 0 1 0
    outer loop
      vertex 34.4 14.6077 -9.85366
      vertex 38 14.6077 -10.1463
      vertex 34.4 14.6077 -10.1463
    endloop
  endfacet
  facet normal -1 0 0
    outer loop
      vertex 24.5 1.75 -8
      vertex 24.5 29.75 -4
      vertex 24.5 29.75 -8
    endloop
  endfacet
  facet normal -1 -0 0
    outer loop
      vertex 24.5 29.75 -4
      vertex 24.5 1.75 -8
      vertex 24.5 1.75 -4
    endloop
  endfacet
  facet normal 1 -0 0
    outer loop
      vertex 12.5 1.75 -4
      vertex 12.5 29.75 -8
      vertex 12.5 29.75 -4
    endloop
  endfacet
  facet normal 1 0 0
    outer loop
      vertex 12.5 29.75 -8
      vertex 12.5 1.75 -4
      vertex 12.5 1.75 -8
    endloop
  endfacet
  facet normal 0 -1 0
    outer loop
      vertex 12.5 29.75 -8
      vertex 24.5 29.75 -4
      vertex 12.5 29.75 -4
    endloop
  endfacet
  facet normal 0 -1 -0
    outer loop
      vertex 24.5 29.75 -4
      vertex 12.5 29.75 -8
      vertex 24.5 29.75 -8
    endloop
  endfacet
  facet normal 0 1 -0
    outer loop
      vertex 24.5 1.75 -8
      vertex 12.5 1.75 -4
      vertex 24.5 1.75 -4
    endloop
  endfacet
  facet normal 0 1 0
    outer loop
      vertex 12.5 1.75 -4
      vertex 24.5 1.75 -8
      vertex 12.5 1.75 -8
    endloop
  endfacet
endsolid OpenSCAD_Model
