solid OpenSCAD_Model
  facet normal 1 0 0
    outer loop
      vertex 38 84.6 40
      vertex 38 39.3923 34.1463
      vertex 38 84.6 31
    endloop
  endfacet
  facet normal 1 0 0
    outer loop
      vertex 38 84.6 40
      vertex 38 39.3315 34.4326
      vertex 38 39.3923 34.1463
    endloop
  endfacet
  facet normal 1 0 0
    outer loop
      vertex 38 84.6 40
      vertex 38 39.2124 34.7
      vertex 38 39.3315 34.4326
    endloop
  endfacet
  facet normal 1 0 0
    outer loop
      vertex 38 84.6 40
      vertex 38 39.0404 34.9368
      vertex 38 39.2124 34.7
    endloop
  endfacet
  facet normal 1 0 0
    outer loop
      vertex 38 84.6 40
      vertex 38 38.8229 35.1326
      vertex 38 39.0404 34.9368
    endloop
  endfacet
  facet normal 1 0 0
    outer loop
      vertex 38 84.6 40
      vertex 38 38.5694 35.279
      vertex 38 38.8229 35.1326
    endloop
  endfacet
  facet normal 1 0 0
    outer loop
      vertex 38 84.6 40
      vertex 38 38.2911 35.3694
      vertex 38 38.5694 35.279
    endloop
  endfacet
  facet normal 1 0 0
    outer loop
      vertex 38 84.6 40
      vertex 38 38 35.4
      vertex 38 38.2911 35.3694
    endloop
  endfacet
  facet normal 1 0 0
    outer loop
      vertex 38 -11 31
      vertex 38 36.6077 34.1463
      vertex 38 -11 40
    endloop
  endfacet
  facet normal 1 0 0
    outer loop
      vertex 38 36.6685 34.4326
      vertex 38 -11 40
      vertex 38 36.6077 34.1463
    endloop
  endfacet
  facet normal 1 0 0
    outer loop
      vertex 38 36.7876 34.7
      vertex 38 -11 40
      vertex 38 36.6685 34.4326
    endloop
  endfacet
  facet normal 1 0 0
    outer loop
      vertex 38 36.9596 34.9368
      vertex 38 -11 40
      vertex 38 36.7876 34.7
    endloop
  endfacet
  facet normal 1 0 0
    outer loop
      vertex 38 37.1771 35.1326
      vertex 38 -11 40
      vertex 38 36.9596 34.9368
    endloop
  endfacet
  facet normal 1 0 0
    outer loop
      vertex 38 37.4306 35.279
      vertex 38 -11 40
      vertex 38 37.1771 35.1326
    endloop
  endfacet
  facet normal 1 0 0
    outer loop
      vertex 38 37.7089 35.3694
      vertex 38 -11 40
      vertex 38 37.4306 35.279
    endloop
  endfacet
  facet normal 1 0 0
    outer loop
      vertex 38 38 35.4
      vertex 38 -11 40
      vertex 38 37.7089 35.3694
    endloop
  endfacet
  facet normal 1 -0 0
    outer loop
      vertex 38 -11 40
      vertex 38 38 35.4
      vertex 38 84.6 40
    endloop
  endfacet
  facet normal 1 -0 0
    outer loop
      vertex 38 39.3923 33.8537
      vertex 38 84.6 31
      vertex 38 39.3923 34.1463
    endloop
  endfacet
  facet normal 1 -0 0
    outer loop
      vertex 38 39.3315 33.5674
      vertex 38 84.6 31
      vertex 38 39.3923 33.8537
    endloop
  endfacet
  facet normal 1 -0 0
    outer loop
      vertex 38 39.2124 33.3
      vertex 38 84.6 31
      vertex 38 39.3315 33.5674
    endloop
  endfacet
  facet normal 1 -0 0
    outer loop
      vertex 38 39.0404 33.0632
      vertex 38 84.6 31
      vertex 38 39.2124 33.3
    endloop
  endfacet
  facet normal 1 -0 0
    outer loop
      vertex 38 38.8229 32.8674
      vertex 38 84.6 31
      vertex 38 39.0404 33.0632
    endloop
  endfacet
  facet normal 1 -0 0
    outer loop
      vertex 38 38.5694 32.721
      vertex 38 84.6 31
      vertex 38 38.8229 32.8674
    endloop
  endfacet
  facet normal 1 -0 0
    outer loop
      vertex 38 38.2911 32.6306
      vertex 38 84.6 31
      vertex 38 38.5694 32.721
    endloop
  endfacet
  facet normal 1 -0 0
    outer loop
      vertex 38 38 32.6
      vertex 38 84.6 31
      vertex 38 38.2911 32.6306
    endloop
  endfacet
  facet normal 1 0 0
    outer loop
      vertex 38 36.6077 34.1463
      vertex 38 -11 31
      vertex 38 36.6077 33.8537
    endloop
  endfacet
  facet normal 1 0 0
    outer loop
      vertex 38 36.6077 33.8537
      vertex 38 -11 31
      vertex 38 36.6685 33.5674
    endloop
  endfacet
  facet normal 1 0 0
    outer loop
      vertex 38 36.6685 33.5674
      vertex 38 -11 31
      vertex 38 36.7876 33.3
    endloop
  endfacet
  facet normal 1 0 0
    outer loop
      vertex 38 36.7876 33.3
      vertex 38 -11 31
      vertex 38 36.9596 33.0632
    endloop
  endfacet
  facet normal 1 0 0
    outer loop
      vertex 38 36.9596 33.0632
      vertex 38 -11 31
      vertex 38 37.1771 32.8674
    endloop
  endfacet
  facet normal 1 0 0
    outer loop
      vertex 38 37.1771 32.8674
      vertex 38 -11 31
      vertex 38 37.4306 32.721
    endloop
  endfacet
  facet normal 1 0 0
    outer loop
      vertex 38 38 32.6
      vertex 38 -11 31
      vertex 38 84.6 31
    endloop
  endfacet
  facet normal 1 0 0
    outer loop
      vertex 38 37.7089 32.6306
      vertex 38 -11 31
      vertex 38 38 32.6
    endloop
  endfacet
  facet normal 1 0 0
    outer loop
      vertex 38 37.4306 32.721
      vertex 38 -11 31
      vertex 38 37.7089 32.6306
    endloop
  endfacet
  facet normal 0 0 1
    outer loop
      vertex 21.5 -0.25 40
      vertex 38 84.6 40
      vertex 21.5 74.75 40
    endloop
  endfacet
  facet normal 0 0 1
    outer loop
      vertex 38 84.6 40
      vertex 13.5 74.75 40
      vertex 21.5 74.75 40
    endloop
  endfacet
  facet normal 0 0 1
    outer loop
      vertex 13.5 74.75 40
      vertex -12 84.6 40
      vertex 13.5 -0.25 40
    endloop
  endfacet
  facet normal -0 0 1
    outer loop
      vertex -12 84.6 40
      vertex 13.5 74.75 40
      vertex 38 84.6 40
    endloop
  endfacet
  facet normal 0 0 1
    outer loop
      vertex 38 84.6 40
      vertex 21.5 -0.25 40
      vertex 38 -11 40
    endloop
  endfacet
  facet normal -0 0 1
    outer loop
      vertex 13.5 -0.25 40
      vertex 38 -11 40
      vertex 21.5 -0.25 40
    endloop
  endfacet
  facet normal 0 0 1
    outer loop
      vertex 13.5 -0.25 40
      vertex -12 -11 40
      vertex 38 -11 40
    endloop
  endfacet
  facet normal 0 0 1
    outer loop
      vertex -12 -11 40
      vertex 13.5 -0.25 40
      vertex -12 84.6 40
    endloop
  endfacet
  facet normal 0 0 -1
    outer loop
      vertex 34.4 -7.5 36
      vertex 21.5 -0.25 36
      vertex 34.4 81.1 36
    endloop
  endfacet
  facet normal 0 0 -1
    outer loop
      vertex 34.4 -7.5 36
      vertex 13.5 -0.25 36
      vertex 21.5 -0.25 36
    endloop
  endfacet
  facet normal 0 0 -1
    outer loop
      vertex -8.3 81.1 36
      vertex 13.5 -0.25 36
      vertex -8.3 -7.5 36
    endloop
  endfacet
  facet normal 0 0 -1
    outer loop
      vertex -8.3 -7.5 36
      vertex 13.5 -0.25 36
      vertex 34.4 -7.5 36
    endloop
  endfacet
  facet normal 0 0 -1
    outer loop
      vertex 21.5 74.75 36
      vertex 34.4 81.1 36
      vertex 21.5 -0.25 36
    endloop
  endfacet
  facet normal 0 0 -1
    outer loop
      vertex 13.5 74.75 36
      vertex 34.4 81.1 36
      vertex 21.5 74.75 36
    endloop
  endfacet
  facet normal 0 0 -1
    outer loop
      vertex 13.5 74.75 36
      vertex -8.3 81.1 36
      vertex 34.4 81.1 36
    endloop
  endfacet
  facet normal 0 0 -1
    outer loop
      vertex 13.5 -0.25 36
      vertex -8.3 81.1 36
      vertex 13.5 74.75 36
    endloop
  endfacet
  facet normal -1 0 0
    outer loop
      vertex -12 39.3923 34.1463
      vertex -12 84.6 31
      vertex -12 39.3923 33.8537
    endloop
  endfacet
  facet normal -1 0 0
    outer loop
      vertex -12 84.6 31
      vertex -12 39.3315 33.5674
      vertex -12 39.3923 33.8537
    endloop
  endfacet
  facet normal -1 0 0
    outer loop
      vertex -12 84.6 31
      vertex -12 39.2124 33.3
      vertex -12 39.3315 33.5674
    endloop
  endfacet
  facet normal -1 0 0
    outer loop
      vertex -12 84.6 31
      vertex -12 39.0404 33.0632
      vertex -12 39.2124 33.3
    endloop
  endfacet
  facet normal -1 0 0
    outer loop
      vertex -12 84.6 31
      vertex -12 38.8229 32.8674
      vertex -12 39.0404 33.0632
    endloop
  endfacet
  facet normal -1 0 0
    outer loop
      vertex -12 84.6 31
      vertex -12 38.5694 32.721
      vertex -12 38.8229 32.8674
    endloop
  endfacet
  facet normal -1 0 0
    outer loop
      vertex -12 84.6 31
      vertex -12 38.2911 32.6306
      vertex -12 38.5694 32.721
    endloop
  endfacet
  facet normal -1 0 0
    outer loop
      vertex -12 84.6 31
      vertex -12 38 32.6
      vertex -12 38.2911 32.6306
    endloop
  endfacet
  facet normal -1 -0 0
    outer loop
      vertex -12 36.6077 33.8537
      vertex -12 -11 31
      vertex -12 36.6077 34.1463
    endloop
  endfacet
  facet normal -1 -0 0
    outer loop
      vertex -12 36.6685 33.5674
      vertex -12 -11 31
      vertex -12 36.6077 33.8537
    endloop
  endfacet
  facet normal -1 -0 0
    outer loop
      vertex -12 36.7876 33.3
      vertex -12 -11 31
      vertex -12 36.6685 33.5674
    endloop
  endfacet
  facet normal -1 -0 0
    outer loop
      vertex -12 36.9596 33.0632
      vertex -12 -11 31
      vertex -12 36.7876 33.3
    endloop
  endfacet
  facet normal -1 -0 0
    outer loop
      vertex -12 37.1771 32.8674
      vertex -12 -11 31
      vertex -12 36.9596 33.0632
    endloop
  endfacet
  facet normal -1 -0 0
    outer loop
      vertex -12 37.4306 32.721
      vertex -12 -11 31
      vertex -12 37.1771 32.8674
    endloop
  endfacet
  facet normal -1 -0 0
    outer loop
      vertex -12 37.7089 32.6306
      vertex -12 -11 31
      vertex -12 37.4306 32.721
    endloop
  endfacet
  facet normal -1 -0 0
    outer loop
      vertex -12 38 32.6
      vertex -12 -11 31
      vertex -12 37.7089 32.6306
    endloop
  endfacet
  facet normal -1 0 0
    outer loop
      vertex -12 -11 31
      vertex -12 38 32.6
      vertex -12 84.6 31
    endloop
  endfacet
  facet normal -1 0 0
    outer loop
      vertex -12 84.6 31
      vertex -12 39.3923 34.1463
      vertex -12 84.6 40
    endloop
  endfacet
  facet normal -1 0 0
    outer loop
      vertex -12 39.3315 34.4326
      vertex -12 84.6 40
      vertex -12 39.3923 34.1463
    endloop
  endfacet
  facet normal -1 0 0
    outer loop
      vertex -12 39.2124 34.7
      vertex -12 84.6 40
      vertex -12 39.3315 34.4326
    endloop
  endfacet
  facet normal -1 0 0
    outer loop
      vertex -12 39.0404 34.9368
      vertex -12 84.6 40
      vertex -12 39.2124 34.7
    endloop
  endfacet
  facet normal -1 0 0
    outer loop
      vertex -12 38.8229 35.1326
      vertex -12 84.6 40
      vertex -12 39.0404 34.9368
    endloop
  endfacet
  facet normal -1 0 0
    outer loop
      vertex -12 38.5694 35.279
      vertex -12 84.6 40
      vertex -12 38.8229 35.1326
    endloop
  endfacet
  facet normal -1 0 0
    outer loop
      vertex -12 38.2911 35.3694
      vertex -12 84.6 40
      vertex -12 38.5694 35.279
    endloop
  endfacet
  facet normal -1 0 0
    outer loop
      vertex -12 38 35.4
      vertex -12 84.6 40
      vertex -12 38.2911 35.3694
    endloop
  endfacet
  facet normal -1 0 0
    outer loop
      vertex -12 -11 40
      vertex -12 36.6077 34.1463
      vertex -12 -11 31
    endloop
  endfacet
  facet normal -1 0 0
    outer loop
      vertex -12 36.6077 34.1463
      vertex -12 -11 40
      vertex -12 36.6685 34.4326
    endloop
  endfacet
  facet normal -1 0 0
    outer loop
      vertex -12 36.6685 34.4326
      vertex -12 -11 40
      vertex -12 36.7876 34.7
    endloop
  endfacet
  facet normal -1 0 0
    outer loop
      vertex -12 36.7876 34.7
      vertex -12 -11 40
      vertex -12 36.9596 34.9368
    endloop
  endfacet
  facet normal -1 0 0
    outer loop
      vertex -12 36.9596 34.9368
      vertex -12 -11 40
      vertex -12 37.1771 35.1326
    endloop
  endfacet
  facet normal -1 0 0
    outer loop
      vertex -12 37.1771 35.1326
      vertex -12 -11 40
      vertex -12 37.4306 35.279
    endloop
  endfacet
  facet normal -1 0 0
    outer loop
      vertex -12 37.4306 35.279
      vertex -12 -11 40
      vertex -12 37.7089 35.3694
    endloop
  endfacet
  facet normal -1 0 0
    outer loop
      vertex -12 37.7089 35.3694
      vertex -12 -11 40
      vertex -12 38 35.4
    endloop
  endfacet
  facet normal -1 0 0
    outer loop
      vertex -12 38 35.4
      vertex -12 -11 40
      vertex -12 84.6 40
    endloop
  endfacet
  facet normal 0 1 -0
    outer loop
      vertex 38 84.6 31
      vertex -12 84.6 40
      vertex 38 84.6 40
    endloop
  endfacet
  facet normal 0 1 0
    outer loop
      vertex -12 84.6 40
      vertex 38 84.6 31
      vertex -12 84.6 31
    endloop
  endfacet
  facet normal 0 -1 0
    outer loop
      vertex -12 -11 31
      vertex 38 -11 40
      vertex -12 -11 40
    endloop
  endfacet
  facet normal 0 -1 -0
    outer loop
      vertex 38 -11 40
      vertex -12 -11 31
      vertex 38 -11 31
    endloop
  endfacet
  facet normal 1 0 0
    outer loop
      vertex -8.3 39.3923 33.8537
      vertex -8.3 81.1 36
      vertex -8.3 39.3923 34.1463
    endloop
  endfacet
  facet normal 1 0 0
    outer loop
      vertex -8.3 81.1 36
      vertex -8.3 39.3315 34.4326
      vertex -8.3 39.3923 34.1463
    endloop
  endfacet
  facet normal 1 0 0
    outer loop
      vertex -8.3 81.1 36
      vertex -8.3 39.2124 34.7
      vertex -8.3 39.3315 34.4326
    endloop
  endfacet
  facet normal 1 0 0
    outer loop
      vertex -8.3 81.1 36
      vertex -8.3 39.0404 34.9368
      vertex -8.3 39.2124 34.7
    endloop
  endfacet
  facet normal 1 0 0
    outer loop
      vertex -8.3 81.1 36
      vertex -8.3 38.8229 35.1326
      vertex -8.3 39.0404 34.9368
    endloop
  endfacet
  facet normal 1 0 0
    outer loop
      vertex -8.3 81.1 36
      vertex -8.3 38.5694 35.279
      vertex -8.3 38.8229 35.1326
    endloop
  endfacet
  facet normal 1 0 0
    outer loop
      vertex -8.3 81.1 36
      vertex -8.3 38.2911 35.3694
      vertex -8.3 38.5694 35.279
    endloop
  endfacet
  facet normal 1 0 0
    outer loop
      vertex -8.3 81.1 36
      vertex -8.3 38 35.4
      vertex -8.3 38.2911 35.3694
    endloop
  endfacet
  facet normal 1 0 0
    outer loop
      vertex -8.3 36.6077 34.1463
      vertex -8.3 -7.5 36
      vertex -8.3 36.6077 33.8537
    endloop
  endfacet
  facet normal 1 0 0
    outer loop
      vertex -8.3 36.6685 34.4326
      vertex -8.3 -7.5 36
      vertex -8.3 36.6077 34.1463
    endloop
  endfacet
  facet normal 1 0 0
    outer loop
      vertex -8.3 36.7876 34.7
      vertex -8.3 -7.5 36
      vertex -8.3 36.6685 34.4326
    endloop
  endfacet
  facet normal 1 0 0
    outer loop
      vertex -8.3 36.9596 34.9368
      vertex -8.3 -7.5 36
      vertex -8.3 36.7876 34.7
    endloop
  endfacet
  facet normal 1 0 0
    outer loop
      vertex -8.3 37.1771 35.1326
      vertex -8.3 -7.5 36
      vertex -8.3 36.9596 34.9368
    endloop
  endfacet
  facet normal 1 0 0
    outer loop
      vertex -8.3 37.4306 35.279
      vertex -8.3 -7.5 36
      vertex -8.3 37.1771 35.1326
    endloop
  endfacet
  facet normal 1 0 0
    outer loop
      vertex -8.3 37.7089 35.3694
      vertex -8.3 -7.5 36
      vertex -8.3 37.4306 35.279
    endloop
  endfacet
  facet normal 1 0 0
    outer loop
      vertex -8.3 38 35.4
      vertex -8.3 -7.5 36
      vertex -8.3 37.7089 35.3694
    endloop
  endfacet
  facet normal 1 -0 0
    outer loop
      vertex -8.3 -7.5 36
      vertex -8.3 38 35.4
      vertex -8.3 81.1 36
    endloop
  endfacet
  facet normal 1 0 0
    outer loop
      vertex -8.3 81.1 36
      vertex -8.3 39.3923 33.8537
      vertex -8.3 81.1 31
    endloop
  endfacet
  facet normal 1 -0 0
    outer loop
      vertex -8.3 39.3315 33.5674
      vertex -8.3 81.1 31
      vertex -8.3 39.3923 33.8537
    endloop
  endfacet
  facet normal 1 -0 0
    outer loop
      vertex -8.3 39.2124 33.3
      vertex -8.3 81.1 31
      vertex -8.3 39.3315 33.5674
    endloop
  endfacet
  facet normal 1 -0 0
    outer loop
      vertex -8.3 39.0404 33.0632
      vertex -8.3 81.1 31
      vertex -8.3 39.2124 33.3
    endloop
  endfacet
  facet normal 1 -0 0
    outer loop
      vertex -8.3 38.8229 32.8674
      vertex -8.3 81.1 31
      vertex -8.3 39.0404 33.0632
    endloop
  endfacet
  facet normal 1 -0 0
    outer loop
      vertex -8.3 38.5694 32.721
      vertex -8.3 81.1 31
      vertex -8.3 38.8229 32.8674
    endloop
  endfacet
  facet normal 1 -0 0
    outer loop
      vertex -8.3 38.2911 32.6306
      vertex -8.3 81.1 31
      vertex -8.3 38.5694 32.721
    endloop
  endfacet
  facet normal 1 -0 0
    outer loop
      vertex -8.3 38 32.6
      vertex -8.3 81.1 31
      vertex -8.3 38.2911 32.6306
    endloop
  endfacet
  facet normal 1 0 0
    outer loop
      vertex -8.3 -7.5 31
      vertex -8.3 36.6077 33.8537
      vertex -8.3 -7.5 36
    endloop
  endfacet
  facet normal 1 0 0
    outer loop
      vertex -8.3 36.6077 33.8537
      vertex -8.3 -7.5 31
      vertex -8.3 36.6685 33.5674
    endloop
  endfacet
  facet normal 1 0 0
    outer loop
      vertex -8.3 36.6685 33.5674
      vertex -8.3 -7.5 31
      vertex -8.3 36.7876 33.3
    endloop
  endfacet
  facet normal 1 0 0
    outer loop
      vertex -8.3 36.7876 33.3
      vertex -8.3 -7.5 31
      vertex -8.3 36.9596 33.0632
    endloop
  endfacet
  facet normal 1 0 0
    outer loop
      vertex -8.3 36.9596 33.0632
      vertex -8.3 -7.5 31
      vertex -8.3 37.1771 32.8674
    endloop
  endfacet
  facet normal 1 0 0
    outer loop
      vertex -8.3 37.1771 32.8674
      vertex -8.3 -7.5 31
      vertex -8.3 37.4306 32.721
    endloop
  endfacet
  facet normal 1 0 0
    outer loop
      vertex -8.3 37.4306 32.721
      vertex -8.3 -7.5 31
      vertex -8.3 37.7089 32.6306
    endloop
  endfacet
  facet normal 1 0 0
    outer loop
      vertex -8.3 38 32.6
      vertex -8.3 -7.5 31
      vertex -8.3 81.1 31
    endloop
  endfacet
  facet normal 1 0 0
    outer loop
      vertex -8.3 37.7089 32.6306
      vertex -8.3 -7.5 31
      vertex -8.3 38 32.6
    endloop
  endfacet
  facet normal 0 0 -1
    outer loop
      vertex 38 -11 31
      vertex 34.4 -7.5 31
      vertex 38 84.6 31
    endloop
  endfacet
  facet normal 0 0 -1
    outer loop
      vertex 38 -11 31
      vertex -8.3 -7.5 31
      vertex 34.4 -7.5 31
    endloop
  endfacet
  facet normal -0 0 -1
    outer loop
      vertex -8.3 -7.5 31
      vertex -12 -11 31
      vertex -8.3 81.1 31
    endloop
  endfacet
  facet normal 0 0 -1
    outer loop
      vertex -12 -11 31
      vertex -8.3 -7.5 31
      vertex 38 -11 31
    endloop
  endfacet
  facet normal 0 0 -1
    outer loop
      vertex 34.4 81.1 31
      vertex 38 84.6 31
      vertex 34.4 -7.5 31
    endloop
  endfacet
  facet normal 0 0 -1
    outer loop
      vertex -8.3 81.1 31
      vertex 38 84.6 31
      vertex 34.4 81.1 31
    endloop
  endfacet
  facet normal 0 0 -1
    outer loop
      vertex -8.3 81.1 31
      vertex -12 84.6 31
      vertex 38 84.6 31
    endloop
  endfacet
  facet normal 0 0 -1
    outer loop
      vertex -12 84.6 31
      vertex -8.3 81.1 31
      vertex -12 -11 31
    endloop
  endfacet
  facet normal -1 0 0
    outer loop
      vertex 34.4 81.1 31
      vertex 34.4 39.3923 33.8537
      vertex 34.4 81.1 36
    endloop
  endfacet
  facet normal -1 0 0
    outer loop
      vertex 34.4 81.1 31
      vertex 34.4 39.3315 33.5674
      vertex 34.4 39.3923 33.8537
    endloop
  endfacet
  facet normal -1 0 0
    outer loop
      vertex 34.4 81.1 31
      vertex 34.4 39.2124 33.3
      vertex 34.4 39.3315 33.5674
    endloop
  endfacet
  facet normal -1 0 0
    outer loop
      vertex 34.4 81.1 31
      vertex 34.4 39.0404 33.0632
      vertex 34.4 39.2124 33.3
    endloop
  endfacet
  facet normal -1 0 0
    outer loop
      vertex 34.4 81.1 31
      vertex 34.4 38.8229 32.8674
      vertex 34.4 39.0404 33.0632
    endloop
  endfacet
  facet normal -1 0 0
    outer loop
      vertex 34.4 81.1 31
      vertex 34.4 38.5694 32.721
      vertex 34.4 38.8229 32.8674
    endloop
  endfacet
  facet normal -1 0 0
    outer loop
      vertex 34.4 81.1 31
      vertex 34.4 38.2911 32.6306
      vertex 34.4 38.5694 32.721
    endloop
  endfacet
  facet normal -1 0 0
    outer loop
      vertex 34.4 81.1 31
      vertex 34.4 38 32.6
      vertex 34.4 38.2911 32.6306
    endloop
  endfacet
  facet normal -1 0 0
    outer loop
      vertex 34.4 -7.5 36
      vertex 34.4 36.6077 33.8537
      vertex 34.4 -7.5 31
    endloop
  endfacet
  facet normal -1 -0 0
    outer loop
      vertex 34.4 36.6685 33.5674
      vertex 34.4 -7.5 31
      vertex 34.4 36.6077 33.8537
    endloop
  endfacet
  facet normal -1 -0 0
    outer loop
      vertex 34.4 36.7876 33.3
      vertex 34.4 -7.5 31
      vertex 34.4 36.6685 33.5674
    endloop
  endfacet
  facet normal -1 -0 0
    outer loop
      vertex 34.4 36.9596 33.0632
      vertex 34.4 -7.5 31
      vertex 34.4 36.7876 33.3
    endloop
  endfacet
  facet normal -1 -0 0
    outer loop
      vertex 34.4 37.1771 32.8674
      vertex 34.4 -7.5 31
      vertex 34.4 36.9596 33.0632
    endloop
  endfacet
  facet normal -1 -0 0
    outer loop
      vertex 34.4 37.4306 32.721
      vertex 34.4 -7.5 31
      vertex 34.4 37.1771 32.8674
    endloop
  endfacet
  facet normal -1 -0 0
    outer loop
      vertex 34.4 37.7089 32.6306
      vertex 34.4 -7.5 31
      vertex 34.4 37.4306 32.721
    endloop
  endfacet
  facet normal -1 -0 0
    outer loop
      vertex 34.4 38 32.6
      vertex 34.4 -7.5 31
      vertex 34.4 37.7089 32.6306
    endloop
  endfacet
  facet normal -1 0 0
    outer loop
      vertex 34.4 -7.5 31
      vertex 34.4 38 32.6
      vertex 34.4 81.1 31
    endloop
  endfacet
  facet normal -1 0 0
    outer loop
      vertex 34.4 39.3923 34.1463
      vertex 34.4 81.1 36
      vertex 34.4 39.3923 33.8537
    endloop
  endfacet
  facet normal -1 0 0
    outer loop
      vertex 34.4 39.3315 34.4326
      vertex 34.4 81.1 36
      vertex 34.4 39.3923 34.1463
    endloop
  endfacet
  facet normal -1 0 0
    outer loop
      vertex 34.4 39.2124 34.7
      vertex 34.4 81.1 36
      vertex 34.4 39.3315 34.4326
    endloop
  endfacet
  facet normal -1 0 0
    outer loop
      vertex 34.4 39.0404 34.9368
      vertex 34.4 81.1 36
      vertex 34.4 39.2124 34.7
    endloop
  endfacet
  facet normal -1 0 0
    outer loop
      vertex 34.4 38.8229 35.1326
      vertex 34.4 81.1 36
      vertex 34.4 39.0404 34.9368
    endloop
  endfacet
  facet normal -1 0 0
    outer loop
      vertex 34.4 38.5694 35.279
      vertex 34.4 81.1 36
      vertex 34.4 38.8229 35.1326
    endloop
  endfacet
  facet normal -1 0 0
    outer loop
      vertex 34.4 38.2911 35.3694
      vertex 34.4 81.1 36
      vertex 34.4 38.5694 35.279
    endloop
  endfacet
  facet normal -1 0 0
    outer loop
      vertex 34.4 38 35.4
      vertex 34.4 81.1 36
      vertex 34.4 38.2911 35.3694
    endloop
  endfacet
  facet normal -1 0 0
    outer loop
      vertex 34.4 36.6077 33.8537
      vertex 34.4 -7.5 36
      vertex 34.4 36.6077 34.1463
    endloop
  endfacet
  facet normal -1 0 0
    outer loop
      vertex 34.4 36.6077 34.1463
      vertex 34.4 -7.5 36
      vertex 34.4 36.6685 34.4326
    endloop
  endfacet
  facet normal -1 0 0
    outer loop
      vertex 34.4 36.6685 34.4326
      vertex 34.4 -7.5 36
      vertex 34.4 36.7876 34.7
    endloop
  endfacet
  facet normal -1 0 0
    outer loop
      vertex 34.4 36.7876 34.7
      vertex 34.4 -7.5 36
      vertex 34.4 36.9596 34.9368
    endloop
  endfacet
  facet normal -1 0 0
    outer loop
      vertex 34.4 36.9596 34.9368
      vertex 34.4 -7.5 36
      vertex 34.4 37.1771 35.1326
    endloop
  endfacet
  facet normal -1 0 0
    outer loop
      vertex 34.4 37.1771 35.1326
      vertex 34.4 -7.5 36
      vertex 34.4 37.4306 35.279
    endloop
  endfacet
  facet normal -1 0 0
    outer loop
      vertex 34.4 37.4306 35.279
      vertex 34.4 -7.5 36
      vertex 34.4 37.7089 35.3694
    endloop
  endfacet
  facet normal -1 0 0
    outer loop
      vertex 34.4 38 35.4
      vertex 34.4 -7.5 36
      vertex 34.4 81.1 36
    endloop
  endfacet
  facet normal -1 0 0
    outer loop
      vertex 34.4 37.7089 35.3694
      vertex 34.4 -7.5 36
      vertex 34.4 38 35.4
    endloop
  endfacet
  facet normal 0 1 -0
    outer loop
      vertex 34.4 -7.5 31
      vertex -8.3 -7.5 36
      vertex 34.4 -7.5 36
    endloop
  endfacet
  facet normal 0 1 0
    outer loop
      vertex -8.3 -7.5 36
      vertex 34.4 -7.5 31
      vertex -8.3 -7.5 31
    endloop
  endfacet
  facet normal 0 -1 0
    outer loop
      vertex -8.3 81.1 31
      vertex 34.4 81.1 36
      vertex -8.3 81.1 36
    endloop
  endfacet
  facet normal 0 -1 -0
    outer loop
      vertex 34.4 81.1 36
      vertex -8.3 81.1 31
      vertex 34.4 81.1 31
    endloop
  endfacet
  facet normal 0 -0.500107 0.865964
    outer loop
      vertex -12 38.8229 32.8674
      vertex -8.3 38.5694 32.721
      vertex -8.3 38.8229 32.8674
    endloop
  endfacet
  facet normal 0 -0.500107 0.865964
    outer loop
      vertex -8.3 38.5694 32.721
      vertex -12 38.8229 32.8674
      vertex -12 38.5694 32.721
    endloop
  endfacet
  facet normal 0 -0.500107 0.865964
    outer loop
      vertex 34.4 38.8229 32.8674
      vertex 38 38.5694 32.721
      vertex 38 38.8229 32.8674
    endloop
  endfacet
  facet normal 0 -0.500107 0.865964
    outer loop
      vertex 38 38.5694 32.721
      vertex 34.4 38.8229 32.8674
      vertex 34.4 38.5694 32.721
    endloop
  endfacet
  facet normal 0 -0.978186 0.207732
    outer loop
      vertex -12 39.3315 33.5674
      vertex -8.3 39.3923 33.8537
      vertex -12 39.3923 33.8537
    endloop
  endfacet
  facet normal 0 -0.978186 0.207732
    outer loop
      vertex -8.3 39.3923 33.8537
      vertex -12 39.3315 33.5674
      vertex -8.3 39.3315 33.5674
    endloop
  endfacet
  facet normal 0 -0.978186 0.207732
    outer loop
      vertex 34.4 39.3315 33.5674
      vertex 38 39.3923 33.8537
      vertex 34.4 39.3923 33.8537
    endloop
  endfacet
  facet normal 0 -0.978186 0.207732
    outer loop
      vertex 38 39.3923 33.8537
      vertex 34.4 39.3315 33.5674
      vertex 38 39.3315 33.5674
    endloop
  endfacet
  facet normal 0 0.308939 -0.951082
    outer loop
      vertex -12 37.4306 35.279
      vertex -8.3 37.7089 35.3694
      vertex -8.3 37.4306 35.279
    endloop
  endfacet
  facet normal 0 0.308939 -0.951082
    outer loop
      vertex -8.3 37.7089 35.3694
      vertex -12 37.4306 35.279
      vertex -12 37.7089 35.3694
    endloop
  endfacet
  facet normal 0 0.308939 -0.951082
    outer loop
      vertex 34.4 37.4306 35.279
      vertex 38 37.7089 35.3694
      vertex 38 37.4306 35.279
    endloop
  endfacet
  facet normal 0 0.308939 -0.951082
    outer loop
      vertex 38 37.7089 35.3694
      vertex 34.4 37.4306 35.279
      vertex 34.4 37.7089 35.3694
    endloop
  endfacet
  facet normal -0 0.104543 0.99452
    outer loop
      vertex -12 38 32.6
      vertex -8.3 37.7089 32.6306
      vertex -8.3 38 32.6
    endloop
  endfacet
  facet normal 0 0.104543 0.99452
    outer loop
      vertex -8.3 37.7089 32.6306
      vertex -12 38 32.6
      vertex -12 37.7089 32.6306
    endloop
  endfacet
  facet normal -0 0.104543 0.99452
    outer loop
      vertex 34.4 38 32.6
      vertex 38 37.7089 32.6306
      vertex 38 38 32.6
    endloop
  endfacet
  facet normal 0 0.104543 0.99452
    outer loop
      vertex 38 37.7089 32.6306
      vertex 34.4 38 32.6
      vertex 34.4 37.7089 32.6306
    endloop
  endfacet
  facet normal 0 -0.669059 -0.743209
    outer loop
      vertex -12 38.8229 35.1326
      vertex -8.3 39.0404 34.9368
      vertex -8.3 38.8229 35.1326
    endloop
  endfacet
  facet normal -0 -0.669059 -0.743209
    outer loop
      vertex -8.3 39.0404 34.9368
      vertex -12 38.8229 35.1326
      vertex -12 39.0404 34.9368
    endloop
  endfacet
  facet normal 0 -0.669059 -0.743209
    outer loop
      vertex 34.4 38.8229 35.1326
      vertex 38 39.0404 34.9368
      vertex 38 38.8229 35.1326
    endloop
  endfacet
  facet normal -0 -0.669059 -0.743209
    outer loop
      vertex 38 39.0404 34.9368
      vertex 34.4 38.8229 35.1326
      vertex 34.4 39.0404 34.9368
    endloop
  endfacet
  facet normal 0 -0.104543 0.99452
    outer loop
      vertex -12 38.2911 32.6306
      vertex -8.3 38 32.6
      vertex -8.3 38.2911 32.6306
    endloop
  endfacet
  facet normal 0 -0.104543 0.99452
    outer loop
      vertex -8.3 38 32.6
      vertex -12 38.2911 32.6306
      vertex -12 38 32.6
    endloop
  endfacet
  facet normal 0 -0.104543 0.99452
    outer loop
      vertex 34.4 38.2911 32.6306
      vertex 38 38 32.6
      vertex 38 38.2911 32.6306
    endloop
  endfacet
  facet normal 0 -0.104543 0.99452
    outer loop
      vertex 38 38 32.6
      vertex 34.4 38.2911 32.6306
      vertex 34.4 38 32.6
    endloop
  endfacet
  facet normal 0 -0.669059 0.743209
    outer loop
      vertex -12 39.0404 33.0632
      vertex -8.3 38.8229 32.8674
      vertex -8.3 39.0404 33.0632
    endloop
  endfacet
  facet normal 0 -0.669059 0.743209
    outer loop
      vertex -8.3 38.8229 32.8674
      vertex -12 39.0404 33.0632
      vertex -12 38.8229 32.8674
    endloop
  endfacet
  facet normal 0 -0.669059 0.743209
    outer loop
      vertex 34.4 39.0404 33.0632
      vertex 38 38.8229 32.8674
      vertex 38 39.0404 33.0632
    endloop
  endfacet
  facet normal 0 -0.669059 0.743209
    outer loop
      vertex 38 38.8229 32.8674
      vertex 34.4 39.0404 33.0632
      vertex 34.4 38.8229 32.8674
    endloop
  endfacet
  facet normal 0 -0.913487 -0.406867
    outer loop
      vertex -12 39.3315 34.4326
      vertex -8.3 39.2124 34.7
      vertex -12 39.2124 34.7
    endloop
  endfacet
  facet normal 0 -0.913487 -0.406867
    outer loop
      vertex -8.3 39.2124 34.7
      vertex -12 39.3315 34.4326
      vertex -8.3 39.3315 34.4326
    endloop
  endfacet
  facet normal 0 -0.913487 -0.406867
    outer loop
      vertex 34.4 39.3315 34.4326
      vertex 38 39.2124 34.7
      vertex 34.4 39.2124 34.7
    endloop
  endfacet
  facet normal 0 -0.913487 -0.406867
    outer loop
      vertex 38 39.2124 34.7
      vertex 34.4 39.3315 34.4326
      vertex 38 39.3315 34.4326
    endloop
  endfacet
  facet normal 0 -0.308939 -0.951082
    outer loop
      vertex -12 38.2911 35.3694
      vertex -8.3 38.5694 35.279
      vertex -8.3 38.2911 35.3694
    endloop
  endfacet
  facet normal -0 -0.308939 -0.951082
    outer loop
      vertex -8.3 38.5694 35.279
      vertex -12 38.2911 35.3694
      vertex -12 38.5694 35.279
    endloop
  endfacet
  facet normal 0 -0.308939 -0.951082
    outer loop
      vertex 34.4 38.2911 35.3694
      vertex 38 38.5694 35.279
      vertex 38 38.2911 35.3694
    endloop
  endfacet
  facet normal -0 -0.308939 -0.951082
    outer loop
      vertex 38 38.5694 35.279
      vertex 34.4 38.2911 35.3694
      vertex 34.4 38.5694 35.279
    endloop
  endfacet
  facet normal 0 -0.809091 -0.587684
    outer loop
      vertex -12 39.2124 34.7
      vertex -8.3 39.0404 34.9368
      vertex -12 39.0404 34.9368
    endloop
  endfacet
  facet normal 0 -0.809091 -0.587684
    outer loop
      vertex -8.3 39.0404 34.9368
      vertex -12 39.2124 34.7
      vertex -8.3 39.2124 34.7
    endloop
  endfacet
  facet normal 0 -0.809091 -0.587684
    outer loop
      vertex 34.4 39.2124 34.7
      vertex 38 39.0404 34.9368
      vertex 34.4 39.0404 34.9368
    endloop
  endfacet
  facet normal 0 -0.809091 -0.587684
    outer loop
      vertex 38 39.0404 34.9368
      vertex 34.4 39.2124 34.7
      vertex 38 39.2124 34.7
    endloop
  endfacet
  facet normal -0 0.669059 0.743209
    outer loop
      vertex -12 37.1771 32.8674
      vertex -8.3 36.9596 33.0632
      vertex -8.3 37.1771 32.8674
    endloop
  endfacet
  facet normal 0 0.669059 0.743209
    outer loop
      vertex -8.3 36.9596 33.0632
      vertex -12 37.1771 32.8674
      vertex -12 36.9596 33.0632
    endloop
  endfacet
  facet normal -0 0.669059 0.743209
    outer loop
      vertex 34.4 37.1771 32.8674
      vertex 38 36.9596 33.0632
      vertex 38 37.1771 32.8674
    endloop
  endfacet
  facet normal 0 0.669059 0.743209
    outer loop
      vertex 38 36.9596 33.0632
      vertex 34.4 37.1771 32.8674
      vertex 34.4 36.9596 33.0632
    endloop
  endfacet
  facet normal 0 -0.104543 -0.99452
    outer loop
      vertex -12 38 35.4
      vertex -8.3 38.2911 35.3694
      vertex -8.3 38 35.4
    endloop
  endfacet
  facet normal -0 -0.104543 -0.99452
    outer loop
      vertex -8.3 38.2911 35.3694
      vertex -12 38 35.4
      vertex -12 38.2911 35.3694
    endloop
  endfacet
  facet normal 0 -0.104543 -0.99452
    outer loop
      vertex 34.4 38 35.4
      vertex 38 38.2911 35.3694
      vertex 38 38 35.4
    endloop
  endfacet
  facet normal -0 -0.104543 -0.99452
    outer loop
      vertex 38 38.2911 35.3694
      vertex 34.4 38 35.4
      vertex 34.4 38.2911 35.3694
    endloop
  endfacet
  facet normal -0 0.308939 0.951082
    outer loop
      vertex -12 37.7089 32.6306
      vertex -8.3 37.4306 32.721
      vertex -8.3 37.7089 32.6306
    endloop
  endfacet
  facet normal 0 0.308939 0.951082
    outer loop
      vertex -8.3 37.4306 32.721
      vertex -12 37.7089 32.6306
      vertex -12 37.4306 32.721
    endloop
  endfacet
  facet normal -0 0.308939 0.951082
    outer loop
      vertex 34.4 37.7089 32.6306
      vertex 38 37.4306 32.721
      vertex 38 37.7089 32.6306
    endloop
  endfacet
  facet normal 0 0.308939 0.951082
    outer loop
      vertex 38 37.4306 32.721
      vertex 34.4 37.7089 32.6306
      vertex 34.4 37.4306 32.721
    endloop
  endfacet
  facet normal 0 0.809091 -0.587684
    outer loop
      vertex -8.3 36.7876 34.7
      vertex -12 36.9596 34.9368
      vertex -8.3 36.9596 34.9368
    endloop
  endfacet
  facet normal 0 0.809091 -0.587684
    outer loop
      vertex -12 36.9596 34.9368
      vertex -8.3 36.7876 34.7
      vertex -12 36.7876 34.7
    endloop
  endfacet
  facet normal 0 0.809091 -0.587684
    outer loop
      vertex 38 36.7876 34.7
      vertex 34.4 36.9596 34.9368
      vertex 38 36.9596 34.9368
    endloop
  endfacet
  facet normal 0 0.809091 -0.587684
    outer loop
      vertex 34.4 36.9596 34.9368
      vertex 38 36.7876 34.7
      vertex 34.4 36.7876 34.7
    endloop
  endfacet
  facet normal 0 -0.978186 -0.207732
    outer loop
      vertex -12 39.3923 34.1463
      vertex -8.3 39.3315 34.4326
      vertex -12 39.3315 34.4326
    endloop
  endfacet
  facet normal 0 -0.978186 -0.207732
    outer loop
      vertex -8.3 39.3315 34.4326
      vertex -12 39.3923 34.1463
      vertex -8.3 39.3923 34.1463
    endloop
  endfacet
  facet normal 0 -0.978186 -0.207732
    outer loop
      vertex 34.4 39.3923 34.1463
      vertex 38 39.3315 34.4326
      vertex 34.4 39.3315 34.4326
    endloop
  endfacet
  facet normal 0 -0.978186 -0.207732
    outer loop
      vertex 38 39.3315 34.4326
      vertex 34.4 39.3923 34.1463
      vertex 38 39.3923 34.1463
    endloop
  endfacet
  facet normal 0 -0.308939 0.951082
    outer loop
      vertex -12 38.5694 32.721
      vertex -8.3 38.2911 32.6306
      vertex -8.3 38.5694 32.721
    endloop
  endfacet
  facet normal 0 -0.308939 0.951082
    outer loop
      vertex -8.3 38.2911 32.6306
      vertex -12 38.5694 32.721
      vertex -12 38.2911 32.6306
    endloop
  endfacet
  facet normal 0 -0.308939 0.951082
    outer loop
      vertex 34.4 38.5694 32.721
      vertex 38 38.2911 32.6306
      vertex 38 38.5694 32.721
    endloop
  endfacet
  facet normal 0 -0.308939 0.951082
    outer loop
      vertex 38 38.2911 32.6306
      vertex 34.4 38.5694 32.721
      vertex 34.4 38.2911 32.6306
    endloop
  endfacet
  facet normal 0 0.809091 0.587684
    outer loop
      vertex -8.3 36.9596 33.0632
      vertex -12 36.7876 33.3
      vertex -8.3 36.7876 33.3
    endloop
  endfacet
  facet normal 0 0.809091 0.587684
    outer loop
      vertex -12 36.7876 33.3
      vertex -8.3 36.9596 33.0632
      vertex -12 36.9596 33.0632
    endloop
  endfacet
  facet normal 0 0.809091 0.587684
    outer loop
      vertex 38 36.9596 33.0632
      vertex 34.4 36.7876 33.3
      vertex 38 36.7876 33.3
    endloop
  endfacet
  facet normal 0 0.809091 0.587684
    outer loop
      vertex 34.4 36.7876 33.3
      vertex 38 36.9596 33.0632
      vertex 34.4 36.9596 33.0632
    endloop
  endfacet
  facet normal 0 0.978186 -0.207732
    outer loop
      vertex -8.3 36.6077 34.1463
      vertex -12 36.6685 34.4326
      vertex -8.3 36.6685 34.4326
    endloop
  endfacet
  facet normal 0 0.978186 -0.207732
    outer loop
      vertex -12 36.6685 34.4326
      vertex -8.3 36.6077 34.1463
      vertex -12 36.6077 34.1463
    endloop
  endfacet
  facet normal 0 0.978186 -0.207732
    outer loop
      vertex 38 36.6077 34.1463
      vertex 34.4 36.6685 34.4326
      vertex 38 36.6685 34.4326
    endloop
  endfacet
  facet normal 0 0.978186 -0.207732
    outer loop
      vertex 34.4 36.6685 34.4326
      vertex 38 36.6077 34.1463
      vertex 34.4 36.6077 34.1463
    endloop
  endfacet
  facet normal -0 0.500107 0.865964
    outer loop
      vertex -12 37.4306 32.721
      vertex -8.3 37.1771 32.8674
      vertex -8.3 37.4306 32.721
    endloop
  endfacet
  facet normal 0 0.500107 0.865964
    outer loop
      vertex -8.3 37.1771 32.8674
      vertex -12 37.4306 32.721
      vertex -12 37.1771 32.8674
    endloop
  endfacet
  facet normal -0 0.500107 0.865964
    outer loop
      vertex 34.4 37.4306 32.721
      vertex 38 37.1771 32.8674
      vertex 38 37.4306 32.721
    endloop
  endfacet
  facet normal 0 0.500107 0.865964
    outer loop
      vertex 38 37.1771 32.8674
      vertex 34.4 37.4306 32.721
      vertex 34.4 37.1771 32.8674
    endloop
  endfacet
  facet normal 0 -0.809091 0.587684
    outer loop
      vertex -12 39.0404 33.0632
      vertex -8.3 39.2124 33.3
      vertex -12 39.2124 33.3
    endloop
  endfacet
  facet normal 0 -0.809091 0.587684
    outer loop
      vertex -8.3 39.2124 33.3
      vertex -12 39.0404 33.0632
      vertex -8.3 39.0404 33.0632
    endloop
  endfacet
  facet normal 0 -0.809091 0.587684
    outer loop
      vertex 34.4 39.0404 33.0632
      vertex 38 39.2124 33.3
      vertex 34.4 39.2124 33.3
    endloop
  endfacet
  facet normal 0 -0.809091 0.587684
    outer loop
      vertex 38 39.2124 33.3
      vertex 34.4 39.0404 33.0632
      vertex 38 39.0404 33.0632
    endloop
  endfacet
  facet normal 0 -0.913487 0.406867
    outer loop
      vertex -12 39.2124 33.3
      vertex -8.3 39.3315 33.5674
      vertex -12 39.3315 33.5674
    endloop
  endfacet
  facet normal 0 -0.913487 0.406867
    outer loop
      vertex -8.3 39.3315 33.5674
      vertex -12 39.2124 33.3
      vertex -8.3 39.2124 33.3
    endloop
  endfacet
  facet normal 0 -0.913487 0.406867
    outer loop
      vertex 34.4 39.2124 33.3
      vertex 38 39.3315 33.5674
      vertex 34.4 39.3315 33.5674
    endloop
  endfacet
  facet normal 0 -0.913487 0.406867
    outer loop
      vertex 38 39.3315 33.5674
      vertex 34.4 39.2124 33.3
      vertex 38 39.2124 33.3
    endloop
  endfacet
  facet normal 0 0.913487 0.406867
    outer loop
      vertex -8.3 36.7876 33.3
      vertex -12 36.6685 33.5674
      vertex -8.3 36.6685 33.5674
    endloop
  endfacet
  facet normal 0 0.913487 0.406867
    outer loop
      vertex -12 36.6685 33.5674
      vertex -8.3 36.7876 33.3
      vertex -12 36.7876 33.3
    endloop
  endfacet
  facet normal 0 0.913487 0.406867
    outer loop
      vertex 38 36.7876 33.3
      vertex 34.4 36.6685 33.5674
      vertex 38 36.6685 33.5674
    endloop
  endfacet
  facet normal 0 0.913487 0.406867
    outer loop
      vertex 34.4 36.6685 33.5674
      vertex 38 36.7876 33.3
      vertex 34.4 36.7876 33.3
    endloop
  endfacet
  facet normal 0 0.500107 -0.865964
    outer loop
      vertex -12 37.1771 35.1326
      vertex -8.3 37.4306 35.279
      vertex -8.3 37.1771 35.1326
    endloop
  endfacet
  facet normal 0 0.500107 -0.865964
    outer loop
      vertex -8.3 37.4306 35.279
      vertex -12 37.1771 35.1326
      vertex -12 37.4306 35.279
    endloop
  endfacet
  facet normal 0 0.500107 -0.865964
    outer loop
      vertex 34.4 37.1771 35.1326
      vertex 38 37.4306 35.279
      vertex 38 37.1771 35.1326
    endloop
  endfacet
  facet normal 0 0.500107 -0.865964
    outer loop
      vertex 38 37.4306 35.279
      vertex 34.4 37.1771 35.1326
      vertex 34.4 37.4306 35.279
    endloop
  endfacet
  facet normal 0 0.978186 0.207732
    outer loop
      vertex -8.3 36.6685 33.5674
      vertex -12 36.6077 33.8537
      vertex -8.3 36.6077 33.8537
    endloop
  endfacet
  facet normal 0 0.978186 0.207732
    outer loop
      vertex -12 36.6077 33.8537
      vertex -8.3 36.6685 33.5674
      vertex -12 36.6685 33.5674
    endloop
  endfacet
  facet normal 0 0.978186 0.207732
    outer loop
      vertex 38 36.6685 33.5674
      vertex 34.4 36.6077 33.8537
      vertex 38 36.6077 33.8537
    endloop
  endfacet
  facet normal 0 0.978186 0.207732
    outer loop
      vertex 34.4 36.6077 33.8537
      vertex 38 36.6685 33.5674
      vertex 34.4 36.6685 33.5674
    endloop
  endfacet
  facet normal 0 0.913487 -0.406867
    outer loop
      vertex -8.3 36.6685 34.4326
      vertex -12 36.7876 34.7
      vertex -8.3 36.7876 34.7
    endloop
  endfacet
  facet normal 0 0.913487 -0.406867
    outer loop
      vertex -12 36.7876 34.7
      vertex -8.3 36.6685 34.4326
      vertex -12 36.6685 34.4326
    endloop
  endfacet
  facet normal 0 0.913487 -0.406867
    outer loop
      vertex 38 36.6685 34.4326
      vertex 34.4 36.7876 34.7
      vertex 38 36.7876 34.7
    endloop
  endfacet
  facet normal 0 0.913487 -0.406867
    outer loop
      vertex 34.4 36.7876 34.7
      vertex 38 36.6685 34.4326
      vertex 34.4 36.6685 34.4326
    endloop
  endfacet
  facet normal 0 0.669059 -0.743209
    outer loop
      vertex -12 36.9596 34.9368
      vertex -8.3 37.1771 35.1326
      vertex -8.3 36.9596 34.9368
    endloop
  endfacet
  facet normal 0 0.669059 -0.743209
    outer loop
      vertex -8.3 37.1771 35.1326
      vertex -12 36.9596 34.9368
      vertex -12 37.1771 35.1326
    endloop
  endfacet
  facet normal 0 0.669059 -0.743209
    outer loop
      vertex 34.4 36.9596 34.9368
      vertex 38 37.1771 35.1326
      vertex 38 36.9596 34.9368
    endloop
  endfacet
  facet normal 0 0.669059 -0.743209
    outer loop
      vertex 38 37.1771 35.1326
      vertex 34.4 36.9596 34.9368
      vertex 34.4 37.1771 35.1326
    endloop
  endfacet
  facet normal 0 -1 0
    outer loop
      vertex -12 39.3923 33.8537
      vertex -8.3 39.3923 34.1463
      vertex -12 39.3923 34.1463
    endloop
  endfacet
  facet normal 0 -1 -0
    outer loop
      vertex -8.3 39.3923 34.1463
      vertex -12 39.3923 33.8537
      vertex -8.3 39.3923 33.8537
    endloop
  endfacet
  facet normal 0 -1 0
    outer loop
      vertex 34.4 39.3923 33.8537
      vertex 38 39.3923 34.1463
      vertex 34.4 39.3923 34.1463
    endloop
  endfacet
  facet normal 0 -1 -0
    outer loop
      vertex 38 39.3923 34.1463
      vertex 34.4 39.3923 33.8537
      vertex 38 39.3923 33.8537
    endloop
  endfacet
  facet normal 0 1 -0
    outer loop
      vertex -8.3 36.6077 33.8537
      vertex -12 36.6077 34.1463
      vertex -8.3 36.6077 34.1463
    endloop
  endfacet
  facet normal 0 1 0
    outer loop
      vertex -12 36.6077 34.1463
      vertex -8.3 36.6077 33.8537
      vertex -12 36.6077 33.8537
    endloop
  endfacet
  facet normal 0 1 -0
    outer loop
      vertex 38 36.6077 33.8537
      vertex 34.4 36.6077 34.1463
      vertex 38 36.6077 34.1463
    endloop
  endfacet
  facet normal 0 1 0
    outer loop
      vertex 34.4 36.6077 34.1463
      vertex 38 36.6077 33.8537
      vertex 34.4 36.6077 33.8537
    endloop
  endfacet
  facet normal 0 0.104543 -0.99452
    outer loop
      vertex -12 37.7089 35.3694
      vertex -8.3 38 35.4
      vertex -8.3 37.7089 35.3694
    endloop
  endfacet
  facet normal 0 0.104543 -0.99452
    outer loop
      vertex -8.3 38 35.4
      vertex -12 37.7089 35.3694
      vertex -12 38 35.4
    endloop
  endfacet
  facet normal 0 0.104543 -0.99452
    outer loop
      vertex 34.4 37.7089 35.3694
      vertex 38 38 35.4
      vertex 38 37.7089 35.3694
    endloop
  endfacet
  facet normal 0 0.104543 -0.99452
    outer loop
      vertex 38 38 35.4
      vertex 34.4 37.7089 35.3694
      vertex 34.4 38 35.4
    endloop
  endfacet
  facet normal 0 -0.500107 -0.865964
    outer loop
      vertex -12 38.5694 35.279
      vertex -8.3 38.8229 35.1326
      vertex -8.3 38.5694 35.279
    endloop
  endfacet
  facet normal -0 -0.500107 -0.865964
    outer loop
      vertex -8.3 38.8229 35.1326
      vertex -12 38.5694 35.279
      vertex -12 38.8229 35.1326
    endloop
  endfacet
  facet normal 0 -0.500107 -0.865964
    outer loop
      vertex 34.4 38.5694 35.279
      vertex 38 38.8229 35.1326
      vertex 38 38.5694 35.279
    endloop
  endfacet
  facet normal -0 -0.500107 -0.865964
    outer loop
      vertex 38 38.8229 35.1326
      vertex 34.4 38.5694 35.279
      vertex 34.4 38.8229 35.1326
    endloop
  endfacet
  facet normal -1 0 0
    outer loop
      vertex 21.5 -0.25 36
      vertex 21.5 74.75 40
      vertex 21.5 74.75 36
    endloop
  endfacet
  facet normal -1 -0 0
    outer loop
      vertex 21.5 74.75 40
      vertex 21.5 -0.25 36
      vertex 21.5 -0.25 40
    endloop
  endfacet
  facet normal 1 -0 0
    outer loop
      vertex 13.5 -0.25 40
      vertex 13.5 74.75 36
      vertex 13.5 74.75 40
    endloop
  endfacet
  facet normal 1 0 0
    outer loop
      vertex 13.5 74.75 36
      vertex 13.5 -0.25 40
      vertex 13.5 -0.25 36
    endloop
  endfacet
  facet normal 0 -1 0
    outer loop
      vertex 13.5 74.75 36
      vertex 21.5 74.75 40
      vertex 13.5 74.75 40
    endloop
  endfacet
  facet normal 0 -1 -0
    outer loop
      vertex 21.5 74.75 40
      vertex 13.5 74.75 36
      vertex 21.5 74.75 36
    endloop
  endfacet
  facet normal 0 1 -0
    outer loop
      vertex 21.5 -0.25 36
      vertex 13.5 -0.25 40
      vertex 21.5 -0.25 40
    endloop
  endfacet
  facet normal 0 1 0
    outer loop
      vertex 13.5 -0.25 40
      vertex 21.5 -0.25 36
      vertex 13.5 -0.25 36
    endloop
  endfacet
endsolid OpenSCAD_Model
