solid OpenSCAD_Model
  facet normal 0.959491 -0.281738 0
    outer loop
      vertex 50.892 -4.18005 73
      vertex 51.4 -2.45 0
      vertex 51.4 -2.45 73
    endloop
  endfacet
  facet normal 0.959491 -0.281738 0
    outer loop
      vertex 51.4 -2.45 0
      vertex 50.892 -4.18005 73
      vertex 50.892 -4.18005 0
    endloop
  endfacet
  facet normal -0.414774 -0.909925 0
    outer loop
      vertex 47.3206 -5.60649 0
      vertex 47.3446 -5.61743 18.6096
      vertex 47.3206 -5.60649 18.6147
    endloop
  endfacet
  facet normal -0.414774 -0.909925 -0
    outer loop
      vertex 47.3446 -5.61743 18.6096
      vertex 47.3206 -5.60649 0
      vertex 47.3446 -5.61743 0
    endloop
  endfacet
  facet normal -0.414774 -0.909925 0
    outer loop
      vertex 47.3206 -5.60649 73
      vertex 47.3446 -5.61743 51.3904
      vertex 47.3446 -5.61743 73
    endloop
  endfacet
  facet normal -0.414774 -0.909925 0
    outer loop
      vertex 47.3446 -5.61743 51.3904
      vertex 47.3206 -5.60649 73
      vertex 47.3206 -5.60649 51.3853
    endloop
  endfacet
  facet normal -0.414774 -0.909925 0
    outer loop
      vertex 47.3206 -5.60649 48.6147
      vertex 47.3446 -5.61743 21.3904
      vertex 47.3446 -5.61743 48.6096
    endloop
  endfacet
  facet normal -0.414774 -0.909925 0
    outer loop
      vertex 47.3446 -5.61743 21.3904
      vertex 47.3206 -5.60649 48.6147
      vertex 47.3206 -5.60649 21.3853
    endloop
  endfacet
  facet normal 0.959491 0.281738 0
    outer loop
      vertex 51.4 -2.35 73
      vertex 50.892 -0.619949 0
      vertex 50.892 -0.619949 73
    endloop
  endfacet
  facet normal 0.959491 0.281738 0
    outer loop
      vertex 50.892 -0.619949 0
      vertex 51.4 -2.35 73
      vertex 51.4 -2.35 0
    endloop
  endfacet
  facet normal 1 -0 0
    outer loop
      vertex 51.4 -2.45 73
      vertex 51.4 -2.35 0
      vertex 51.4 -2.35 73
    endloop
  endfacet
  facet normal 1 0 0
    outer loop
      vertex 51.4 -2.35 0
      vertex 51.4 -2.45 73
      vertex 51.4 -2.45 0
    endloop
  endfacet
  facet normal 0.14232 -0.989821 0
    outer loop
      vertex 47.7446 -5.61743 51.3714
      vertex 49.5293 -5.36082 73
      vertex 47.7446 -5.61743 73
    endloop
  endfacet
  facet normal 0.142364 -0.989814 -3.73401e-06
    outer loop
      vertex 47.9326 -5.59039 51.3315
      vertex 49.5293 -5.36082 73
      vertex 47.7446 -5.61743 51.3714
    endloop
  endfacet
  facet normal 0.142293 -0.989825 1.63253e-06
    outer loop
      vertex 48.2 -5.55195 51.2124
      vertex 49.5293 -5.36082 73
      vertex 47.9326 -5.59039 51.3315
    endloop
  endfacet
  facet normal 0.142289 -0.989825 1.87606e-06
    outer loop
      vertex 48.4368 -5.51791 51.0404
      vertex 49.5293 -5.36082 73
      vertex 48.2 -5.55195 51.2124
    endloop
  endfacet
  facet normal 0.142354 -0.989816 -1.43499e-06
    outer loop
      vertex 48.6326 -5.48975 50.8229
      vertex 49.5293 -5.36082 73
      vertex 48.4368 -5.51791 51.0404
    endloop
  endfacet
  facet normal 0.142259 -0.98983 2.50275e-06
    outer loop
      vertex 48.779 -5.46871 50.5694
      vertex 49.5293 -5.36082 73
      vertex 48.6326 -5.48975 50.8229
    endloop
  endfacet
  facet normal 0.142437 -0.989804 -3.60555e-06
    outer loop
      vertex 48.8694 -5.4557 50.2911
      vertex 49.5293 -5.36082 73
      vertex 48.779 -5.46871 50.5694
    endloop
  endfacet
  facet normal 0.142076 -0.989856 7.1054e-06
    outer loop
      vertex 48.9 -5.45131 50
      vertex 49.5293 -5.36082 73
      vertex 48.8694 -5.4557 50.2911
    endloop
  endfacet
  facet normal 0.142365 -0.989814 0
    outer loop
      vertex 47.7446 -5.61743 21.3714
      vertex 47.9326 -5.59039 48.6685
      vertex 47.7446 -5.61743 48.6286
    endloop
  endfacet
  facet normal 0.142365 -0.989814 0
    outer loop
      vertex 47.9326 -5.59039 21.3315
      vertex 47.9326 -5.59039 48.6685
      vertex 47.7446 -5.61743 21.3714
    endloop
  endfacet
  facet normal 0.142292 -0.989825 0
    outer loop
      vertex 47.9326 -5.59039 48.6685
      vertex 47.9326 -5.59039 21.3315
      vertex 48.2 -5.55195 48.7876
    endloop
  endfacet
  facet normal 0.142292 -0.989825 0
    outer loop
      vertex 48.2 -5.55195 21.2124
      vertex 48.2 -5.55195 48.7876
      vertex 47.9326 -5.59039 21.3315
    endloop
  endfacet
  facet normal 0.142287 -0.989825 0
    outer loop
      vertex 48.2 -5.55195 48.7876
      vertex 48.2 -5.55195 21.2124
      vertex 48.4368 -5.51791 48.9596
    endloop
  endfacet
  facet normal 0.142287 -0.989825 0
    outer loop
      vertex 48.4368 -5.51791 21.0404
      vertex 48.4368 -5.51791 48.9596
      vertex 48.2 -5.55195 21.2124
    endloop
  endfacet
  facet normal 0.142356 -0.989816 0
    outer loop
      vertex 48.4368 -5.51791 48.9596
      vertex 48.4368 -5.51791 21.0404
      vertex 48.6326 -5.48975 49.1771
    endloop
  endfacet
  facet normal 0.142356 -0.989816 0
    outer loop
      vertex 48.6326 -5.48975 20.8229
      vertex 48.6326 -5.48975 49.1771
      vertex 48.4368 -5.51791 21.0404
    endloop
  endfacet
  facet normal 0.142254 -0.98983 0
    outer loop
      vertex 48.6326 -5.48975 49.1771
      vertex 48.6326 -5.48975 20.8229
      vertex 48.779 -5.46871 49.4306
    endloop
  endfacet
  facet normal 0.142254 -0.98983 0
    outer loop
      vertex 48.779 -5.46871 20.5694
      vertex 48.779 -5.46871 49.4306
      vertex 48.6326 -5.48975 20.8229
    endloop
  endfacet
  facet normal 0.142448 -0.989802 0
    outer loop
      vertex 48.779 -5.46871 49.4306
      vertex 48.779 -5.46871 20.5694
      vertex 48.8694 -5.4557 49.7089
    endloop
  endfacet
  facet normal 0.142448 -0.989802 0
    outer loop
      vertex 48.8694 -5.4557 20.2911
      vertex 48.8694 -5.4557 49.7089
      vertex 48.779 -5.46871 20.5694
    endloop
  endfacet
  facet normal 0.14201 -0.989865 0
    outer loop
      vertex 48.8694 -5.4557 49.7089
      vertex 48.8694 -5.4557 20.2911
      vertex 48.9 -5.45131 50
    endloop
  endfacet
  facet normal 0.14201 -0.989865 0
    outer loop
      vertex 48.9 -5.45131 20
      vertex 48.9 -5.45131 50
      vertex 48.8694 -5.4557 20.2911
    endloop
  endfacet
  facet normal 0.142331 -0.989819 0
    outer loop
      vertex 48.9 -5.45131 50
      vertex 48.9 -5.45131 20
      vertex 49.5293 -5.36082 73
    endloop
  endfacet
  facet normal 0.14232 -0.989821 0
    outer loop
      vertex 49.5293 -5.36082 0
      vertex 47.7446 -5.61743 18.6286
      vertex 47.7446 -5.61743 0
    endloop
  endfacet
  facet normal 0.142364 -0.989814 4.32336e-06
    outer loop
      vertex 47.7446 -5.61743 18.6286
      vertex 49.5293 -5.36082 0
      vertex 47.9326 -5.59039 18.6685
    endloop
  endfacet
  facet normal 0.142293 -0.989825 -1.88524e-06
    outer loop
      vertex 47.9326 -5.59039 18.6685
      vertex 49.5293 -5.36082 0
      vertex 48.2 -5.55195 18.7876
    endloop
  endfacet
  facet normal 0.142289 -0.989825 -2.16098e-06
    outer loop
      vertex 48.2 -5.55195 18.7876
      vertex 49.5293 -5.36082 0
      vertex 48.4368 -5.51791 18.9596
    endloop
  endfacet
  facet normal 0.142354 -0.989816 1.64839e-06
    outer loop
      vertex 48.4368 -5.51791 18.9596
      vertex 49.5293 -5.36082 0
      vertex 48.6326 -5.48975 19.1771
    endloop
  endfacet
  facet normal 0.142259 -0.989829 -2.86495e-06
    outer loop
      vertex 48.6326 -5.48975 19.1771
      vertex 49.5293 -5.36082 0
      vertex 48.779 -5.46871 19.4306
    endloop
  endfacet
  facet normal 0.142436 -0.989804 4.10308e-06
    outer loop
      vertex 48.779 -5.46871 19.4306
      vertex 49.5293 -5.36082 0
      vertex 48.8694 -5.4557 19.7089
    endloop
  endfacet
  facet normal 0.142331 -0.989819 0
    outer loop
      vertex 48.9 -5.45131 20
      vertex 49.5293 -5.36082 0
      vertex 49.5293 -5.36082 73
    endloop
  endfacet
  facet normal 0.142084 -0.989855 -7.92567e-06
    outer loop
      vertex 48.8694 -5.4557 19.7089
      vertex 49.5293 -5.36082 0
      vertex 48.9 -5.45131 20
    endloop
  endfacet
  facet normal 0.142318 0.989821 0
    outer loop
      vertex 49.5293 0.560822 73
      vertex 47.7446 0.817429 51.3714
      vertex 47.7446 0.817429 73
    endloop
  endfacet
  facet normal 0.142339 0.989818 -1.73411e-06
    outer loop
      vertex 49.5293 0.560822 73
      vertex 47.9326 0.790394 51.3315
      vertex 47.7446 0.817429 51.3714
    endloop
  endfacet
  facet normal 0.142303 0.989823 9.28686e-07
    outer loop
      vertex 49.5293 0.560822 73
      vertex 48.2 0.751951 51.2124
      vertex 47.9326 0.790394 51.3315
    endloop
  endfacet
  facet normal 0.142308 0.989822 6.11518e-07
    outer loop
      vertex 49.5293 0.560822 73
      vertex 48.4368 0.717906 51.0404
      vertex 48.2 0.751951 51.2124
    endloop
  endfacet
  facet normal 0.142344 0.989817 -1.21462e-06
    outer loop
      vertex 49.5293 0.560822 73
      vertex 48.6326 0.689748 50.8229
      vertex 48.4368 0.717906 51.0404
    endloop
  endfacet
  facet normal 0.142258 0.98983 2.3359e-06
    outer loop
      vertex 49.5293 0.560822 73
      vertex 48.779 0.668708 50.5694
      vertex 48.6326 0.689748 50.8229
    endloop
  endfacet
  facet normal 0.142379 0.989812 -1.77327e-06
    outer loop
      vertex 49.5293 0.560822 73
      vertex 48.8694 0.655704 50.2911
      vertex 48.779 0.668708 50.5694
    endloop
  endfacet
  facet normal 0.1423 0.989824 5.45804e-07
    outer loop
      vertex 49.5293 0.560822 73
      vertex 48.9 0.651305 50
      vertex 48.8694 0.655704 50.2911
    endloop
  endfacet
  facet normal 0.142339 0.989818 0
    outer loop
      vertex 47.9326 0.790394 48.6685
      vertex 47.7446 0.817429 21.3714
      vertex 47.7446 0.817429 48.6286
    endloop
  endfacet
  facet normal 0.142303 0.989823 -0
    outer loop
      vertex 47.9326 0.790394 21.3315
      vertex 47.9326 0.790394 48.6685
      vertex 48.2 0.751951 48.7876
    endloop
  endfacet
  facet normal 0.142308 0.989822 -0
    outer loop
      vertex 48.2 0.751951 21.2124
      vertex 48.2 0.751951 48.7876
      vertex 48.4368 0.717906 48.9596
    endloop
  endfacet
  facet normal 0.142346 0.989817 -0
    outer loop
      vertex 48.4368 0.717906 21.0404
      vertex 48.4368 0.717906 48.9596
      vertex 48.6326 0.689748 49.1771
    endloop
  endfacet
  facet normal 0.142254 0.98983 -0
    outer loop
      vertex 48.6326 0.689748 20.8229
      vertex 48.6326 0.689748 49.1771
      vertex 48.779 0.668708 49.4306
    endloop
  endfacet
  facet normal 0.142384 0.989812 -0
    outer loop
      vertex 48.779 0.668708 20.5694
      vertex 48.779 0.668708 49.4306
      vertex 48.8694 0.655704 49.7089
    endloop
  endfacet
  facet normal 0.142295 0.989824 -0
    outer loop
      vertex 48.8694 0.655704 20.2911
      vertex 48.8694 0.655704 49.7089
      vertex 48.9 0.651305 50
    endloop
  endfacet
  facet normal 0.142339 0.989818 0
    outer loop
      vertex 47.9326 0.790394 48.6685
      vertex 47.9326 0.790394 21.3315
      vertex 47.7446 0.817429 21.3714
    endloop
  endfacet
  facet normal 0.142303 0.989823 0
    outer loop
      vertex 48.2 0.751951 48.7876
      vertex 48.2 0.751951 21.2124
      vertex 47.9326 0.790394 21.3315
    endloop
  endfacet
  facet normal 0.14232 0.989821 -0
    outer loop
      vertex 48.9 0.651305 20
      vertex 48.9 0.651305 50
      vertex 49.5293 0.560822 73
    endloop
  endfacet
  facet normal 0.142308 0.989822 0
    outer loop
      vertex 48.4368 0.717906 48.9596
      vertex 48.4368 0.717906 21.0404
      vertex 48.2 0.751951 21.2124
    endloop
  endfacet
  facet normal 0.142346 0.989817 0
    outer loop
      vertex 48.6326 0.689748 49.1771
      vertex 48.6326 0.689748 20.8229
      vertex 48.4368 0.717906 21.0404
    endloop
  endfacet
  facet normal 0.142254 0.98983 0
    outer loop
      vertex 48.779 0.668708 49.4306
      vertex 48.779 0.668708 20.5694
      vertex 48.6326 0.689748 20.8229
    endloop
  endfacet
  facet normal 0.142384 0.989812 0
    outer loop
      vertex 48.8694 0.655704 49.7089
      vertex 48.8694 0.655704 20.2911
      vertex 48.779 0.668708 20.5694
    endloop
  endfacet
  facet normal 0.142295 0.989824 0
    outer loop
      vertex 48.9 0.651305 50
      vertex 48.9 0.651305 20
      vertex 48.8694 0.655704 20.2911
    endloop
  endfacet
  facet normal 0.14232 0.989821 -0
    outer loop
      vertex 49.5293 0.560822 0
      vertex 48.9 0.651305 20
      vertex 49.5293 0.560822 73
    endloop
  endfacet
  facet normal 0.142301 0.989823 -6.08814e-07
    outer loop
      vertex 49.5293 0.560822 0
      vertex 48.8694 0.655704 19.7089
      vertex 48.9 0.651305 20
    endloop
  endfacet
  facet normal 0.142378 0.989812 2.01797e-06
    outer loop
      vertex 49.5293 0.560822 0
      vertex 48.779 0.668708 19.4306
      vertex 48.8694 0.655704 19.7089
    endloop
  endfacet
  facet normal 0.142259 0.989829 -2.67395e-06
    outer loop
      vertex 49.5293 0.560822 0
      vertex 48.6326 0.689748 19.1771
      vertex 48.779 0.668708 19.4306
    endloop
  endfacet
  facet normal 0.142344 0.989817 1.39525e-06
    outer loop
      vertex 49.5293 0.560822 0
      vertex 48.4368 0.717906 18.9596
      vertex 48.6326 0.689748 19.1771
    endloop
  endfacet
  facet normal 0.142308 0.989822 -7.04391e-07
    outer loop
      vertex 49.5293 0.560822 0
      vertex 48.2 0.751951 18.7876
      vertex 48.4368 0.717906 18.9596
    endloop
  endfacet
  facet normal 0.142303 0.989823 -1.07245e-06
    outer loop
      vertex 49.5293 0.560822 0
      vertex 47.9326 0.790394 18.6685
      vertex 48.2 0.751951 18.7876
    endloop
  endfacet
  facet normal 0.142339 0.989818 2.00781e-06
    outer loop
      vertex 49.5293 0.560822 0
      vertex 47.7446 0.817429 18.6286
      vertex 47.9326 0.790394 18.6685
    endloop
  endfacet
  facet normal 0.142318 0.989821 0
    outer loop
      vertex 47.7446 0.817429 18.6286
      vertex 49.5293 0.560822 0
      vertex 47.7446 0.817429 0
    endloop
  endfacet
  facet normal 0 -1 -0
    outer loop
      vertex 47.3537 -5.61743 18.6077
      vertex 47.3446 -5.61743 0
      vertex 47.6463 -5.61743 18.6077
    endloop
  endfacet
  facet normal 0 -1 0
    outer loop
      vertex 47.3446 -5.61743 0
      vertex 47.3537 -5.61743 18.6077
      vertex 47.3446 -5.61743 18.6096
    endloop
  endfacet
  facet normal 0 -1 0
    outer loop
      vertex 47.7446 -5.61743 0
      vertex 47.6463 -5.61743 18.6077
      vertex 47.3446 -5.61743 0
    endloop
  endfacet
  facet normal 0 -1 0
    outer loop
      vertex 47.6463 -5.61743 18.6077
      vertex 47.7446 -5.61743 0
      vertex 47.7446 -5.61743 18.6286
    endloop
  endfacet
  facet normal 0 -1 0
    outer loop
      vertex 47.3446 -5.61743 73
      vertex 47.3537 -5.61743 51.3923
      vertex 47.7446 -5.61743 73
    endloop
  endfacet
  facet normal -0 -1 0
    outer loop
      vertex 47.3537 -5.61743 51.3923
      vertex 47.3446 -5.61743 73
      vertex 47.3446 -5.61743 51.3904
    endloop
  endfacet
  facet normal 0 -1 0
    outer loop
      vertex 47.6463 -5.61743 51.3923
      vertex 47.7446 -5.61743 73
      vertex 47.3537 -5.61743 51.3923
    endloop
  endfacet
  facet normal 0 -1 -0
    outer loop
      vertex 47.7446 -5.61743 73
      vertex 47.6463 -5.61743 51.3923
      vertex 47.7446 -5.61743 51.3714
    endloop
  endfacet
  facet normal 0 -1 0
    outer loop
      vertex 47.3537 -5.61743 48.6077
      vertex 47.3537 -5.61743 21.3923
      vertex 47.6463 -5.61743 48.6077
    endloop
  endfacet
  facet normal 0 -1 0
    outer loop
      vertex 47.3446 -5.61743 48.6096
      vertex 47.3537 -5.61743 21.3923
      vertex 47.3537 -5.61743 48.6077
    endloop
  endfacet
  facet normal -0 -1 0
    outer loop
      vertex 47.3537 -5.61743 21.3923
      vertex 47.3446 -5.61743 48.6096
      vertex 47.3446 -5.61743 21.3904
    endloop
  endfacet
  facet normal 0 -1 0
    outer loop
      vertex 47.6463 -5.61743 21.3923
      vertex 47.6463 -5.61743 48.6077
      vertex 47.3537 -5.61743 21.3923
    endloop
  endfacet
  facet normal 0 -1 0
    outer loop
      vertex 47.6463 -5.61743 48.6077
      vertex 47.6463 -5.61743 21.3923
      vertex 47.7446 -5.61743 48.6286
    endloop
  endfacet
  facet normal 0 -1 -0
    outer loop
      vertex 47.7446 -5.61743 48.6286
      vertex 47.6463 -5.61743 21.3923
      vertex 47.7446 -5.61743 21.3714
    endloop
  endfacet
  facet normal -0.414648 0.909982 0
    outer loop
      vertex 47.3446 0.817429 51.3904
      vertex 47.3206 0.806493 73
      vertex 47.3446 0.817429 73
    endloop
  endfacet
  facet normal -0.414648 0.909982 0
    outer loop
      vertex 47.3206 0.806493 73
      vertex 47.3446 0.817429 51.3904
      vertex 47.3206 0.806493 51.3853
    endloop
  endfacet
  facet normal -0.414648 0.909982 0
    outer loop
      vertex 47.3206 0.806493 0
      vertex 47.3446 0.817429 18.6096
      vertex 47.3446 0.817429 0
    endloop
  endfacet
  facet normal -0.414648 0.909982 0
    outer loop
      vertex 47.3446 0.817429 18.6096
      vertex 47.3206 0.806493 0
      vertex 47.3206 0.806493 18.6147
    endloop
  endfacet
  facet normal -0.414648 0.909982 0
    outer loop
      vertex 47.3446 0.817429 21.3904
      vertex 47.3206 0.806493 48.6147
      vertex 47.3446 0.817429 48.6096
    endloop
  endfacet
  facet normal -0.414648 0.909982 0
    outer loop
      vertex 47.3206 0.806493 48.6147
      vertex 47.3446 0.817429 21.3904
      vertex 47.3206 0.806493 21.3853
    endloop
  endfacet
  facet normal 0.654856 -0.755754 0
    outer loop
      vertex 49.5293 -5.36082 0
      vertex 50.892 -4.18005 73
      vertex 49.5293 -5.36082 73
    endloop
  endfacet
  facet normal 0.654856 -0.755754 0
    outer loop
      vertex 50.892 -4.18005 73
      vertex 49.5293 -5.36082 0
      vertex 50.892 -4.18005 0
    endloop
  endfacet
  facet normal 0 0 -1
    outer loop
      vertex 49.5293 -5.36082 0
      vertex 51.4 -2.45 0
      vertex 50.892 -4.18005 0
    endloop
  endfacet
  facet normal 0 0 -1
    outer loop
      vertex 47.7446 -5.61743 0
      vertex 51.4 -2.45 0
      vertex 49.5293 -5.36082 0
    endloop
  endfacet
  facet normal -0 0 -1
    outer loop
      vertex 51.4 -2.45 0
      vertex 47.7446 -5.61743 0
      vertex 51.4 -2.35 0
    endloop
  endfacet
  facet normal 0 0 -1
    outer loop
      vertex 47.7446 0.817429 0
      vertex 51.4 -2.35 0
      vertex 47.7446 -5.61743 0
    endloop
  endfacet
  facet normal 0 0 -1
    outer loop
      vertex 51.4 -2.35 0
      vertex 49.5293 0.560822 0
      vertex 50.892 -0.619949 0
    endloop
  endfacet
  facet normal 0 0 -1
    outer loop
      vertex 51.4 -2.35 0
      vertex 47.7446 0.817429 0
      vertex 49.5293 0.560822 0
    endloop
  endfacet
  facet normal 0 0 -1
    outer loop
      vertex 47.3206 -5.60649 0
      vertex 47.7446 -5.61743 0
      vertex 47.3446 -5.61743 0
    endloop
  endfacet
  facet normal 0 0 -1
    outer loop
      vertex 47.7446 -5.61743 0
      vertex 47.3206 -5.60649 0
      vertex 47.7446 0.817429 0
    endloop
  endfacet
  facet normal 0 0 -1
    outer loop
      vertex 47.3206 0.806493 0
      vertex 47.7446 0.817429 0
      vertex 47.3206 -5.60649 0
    endloop
  endfacet
  facet normal -0 0 -1
    outer loop
      vertex 47.7446 0.817429 0
      vertex 47.3206 0.806493 0
      vertex 47.3446 0.817429 0
    endloop
  endfacet
  facet normal 0 0 -1
    outer loop
      vertex 46.8446 -5.61743 0
      vertex 47.3206 -5.60649 0
      vertex 47.2446 -5.61743 0
    endloop
  endfacet
  facet normal 0 0 -1
    outer loop
      vertex 47.3206 -5.60649 0
      vertex 44.2296 -3.35154 0
      vertex 47.3206 0.806493 0
    endloop
  endfacet
  facet normal -0 0 -1
    outer loop
      vertex 47.3206 -5.60649 0
      vertex 46.8446 -5.61743 0
      vertex 45.2044 -4.8684 0
    endloop
  endfacet
  facet normal 0 0 -1
    outer loop
      vertex 44.2296 -1.44846 0
      vertex 47.3206 0.806493 0
      vertex 44.2296 -3.35154 0
    endloop
  endfacet
  facet normal 0 0 -1
    outer loop
      vertex 47.3206 -5.60649 0
      vertex 45.2044 -4.8684 0
      vertex 44.2296 -3.35154 0
    endloop
  endfacet
  facet normal 0 -0 -1
    outer loop
      vertex 45.2044 0.0683985 0
      vertex 47.3206 0.806493 0
      vertex 44.2296 -1.44846 0
    endloop
  endfacet
  facet normal 0 -0 -1
    outer loop
      vertex 46.8446 0.817429 0
      vertex 47.3206 0.806493 0
      vertex 45.2044 0.0683985 0
    endloop
  endfacet
  facet normal 0 0 -1
    outer loop
      vertex 47.3206 0.806493 0
      vertex 46.8446 0.817429 0
      vertex 47.2446 0.817429 0
    endloop
  endfacet
  facet normal 0.654856 0.755754 -0
    outer loop
      vertex 50.892 -0.619949 0
      vertex 49.5293 0.560822 73
      vertex 50.892 -0.619949 73
    endloop
  endfacet
  facet normal 0.654856 0.755754 0
    outer loop
      vertex 49.5293 0.560822 73
      vertex 50.892 -0.619949 0
      vertex 49.5293 0.560822 0
    endloop
  endfacet
  facet normal 0 1 0
    outer loop
      vertex 47.7446 0.817429 73
      vertex 47.6463 0.817429 51.3923
      vertex 47.3446 0.817429 73
    endloop
  endfacet
  facet normal -0 1 0
    outer loop
      vertex 47.6463 0.817429 51.3923
      vertex 47.7446 0.817429 73
      vertex 47.7446 0.817429 51.3714
    endloop
  endfacet
  facet normal 0 1 -0
    outer loop
      vertex 47.3537 0.817429 51.3923
      vertex 47.3446 0.817429 73
      vertex 47.6463 0.817429 51.3923
    endloop
  endfacet
  facet normal 0 1 0
    outer loop
      vertex 47.3446 0.817429 73
      vertex 47.3537 0.817429 51.3923
      vertex 47.3446 0.817429 51.3904
    endloop
  endfacet
  facet normal 0 1 0
    outer loop
      vertex 47.6463 0.817429 18.6077
      vertex 47.7446 0.817429 0
      vertex 47.3537 0.817429 18.6077
    endloop
  endfacet
  facet normal 0 1 -0
    outer loop
      vertex 47.7446 0.817429 0
      vertex 47.6463 0.817429 18.6077
      vertex 47.7446 0.817429 18.6286
    endloop
  endfacet
  facet normal 0 1 0
    outer loop
      vertex 47.3446 0.817429 0
      vertex 47.3537 0.817429 18.6077
      vertex 47.7446 0.817429 0
    endloop
  endfacet
  facet normal 0 1 0
    outer loop
      vertex 47.3537 0.817429 18.6077
      vertex 47.3446 0.817429 0
      vertex 47.3446 0.817429 18.6096
    endloop
  endfacet
  facet normal 0 1 0
    outer loop
      vertex 47.6463 0.817429 48.6077
      vertex 47.6463 0.817429 21.3923
      vertex 47.3537 0.817429 48.6077
    endloop
  endfacet
  facet normal 0 1 0
    outer loop
      vertex 47.7446 0.817429 48.6286
      vertex 47.6463 0.817429 21.3923
      vertex 47.6463 0.817429 48.6077
    endloop
  endfacet
  facet normal -0 1 0
    outer loop
      vertex 47.6463 0.817429 21.3923
      vertex 47.7446 0.817429 48.6286
      vertex 47.7446 0.817429 21.3714
    endloop
  endfacet
  facet normal 0 1 0
    outer loop
      vertex 47.3537 0.817429 21.3923
      vertex 47.3537 0.817429 48.6077
      vertex 47.6463 0.817429 21.3923
    endloop
  endfacet
  facet normal 0 1 0
    outer loop
      vertex 47.3537 0.817429 48.6077
      vertex 47.3537 0.817429 21.3923
      vertex 47.3446 0.817429 48.6096
    endloop
  endfacet
  facet normal 0 1 0
    outer loop
      vertex 47.3446 0.817429 48.6096
      vertex 47.3537 0.817429 21.3923
      vertex 47.3446 0.817429 21.3904
    endloop
  endfacet
  facet normal 0 0 1
    outer loop
      vertex 49.5293 0.560822 73
      vertex 51.4 -2.35 73
      vertex 50.892 -0.619949 73
    endloop
  endfacet
  facet normal 0 0 1
    outer loop
      vertex 47.7446 0.817429 73
      vertex 51.4 -2.35 73
      vertex 49.5293 0.560822 73
    endloop
  endfacet
  facet normal 0 0 1
    outer loop
      vertex 51.4 -2.35 73
      vertex 47.7446 0.817429 73
      vertex 51.4 -2.45 73
    endloop
  endfacet
  facet normal 0 0 1
    outer loop
      vertex 47.7446 -5.61743 73
      vertex 51.4 -2.45 73
      vertex 47.7446 0.817429 73
    endloop
  endfacet
  facet normal 0 0 1
    outer loop
      vertex 51.4 -2.45 73
      vertex 49.5293 -5.36082 73
      vertex 50.892 -4.18005 73
    endloop
  endfacet
  facet normal 0 0 1
    outer loop
      vertex 51.4 -2.45 73
      vertex 47.7446 -5.61743 73
      vertex 49.5293 -5.36082 73
    endloop
  endfacet
  facet normal 0 0 1
    outer loop
      vertex 47.3206 0.806493 73
      vertex 47.7446 0.817429 73
      vertex 47.3446 0.817429 73
    endloop
  endfacet
  facet normal 0 0 1
    outer loop
      vertex 47.7446 0.817429 73
      vertex 47.3206 0.806493 73
      vertex 47.7446 -5.61743 73
    endloop
  endfacet
  facet normal -0 0 1
    outer loop
      vertex 47.3206 -5.60649 73
      vertex 47.7446 -5.61743 73
      vertex 47.3206 0.806493 73
    endloop
  endfacet
  facet normal 0 0 1
    outer loop
      vertex 47.7446 -5.61743 73
      vertex 47.3206 -5.60649 73
      vertex 47.3446 -5.61743 73
    endloop
  endfacet
  facet normal -0 0 1
    outer loop
      vertex 46.8446 0.817429 73
      vertex 47.3206 0.806493 73
      vertex 47.2446 0.817429 73
    endloop
  endfacet
  facet normal 0 0 1
    outer loop
      vertex 47.3206 0.806493 73
      vertex 44.2296 -1.44846 73
      vertex 47.3206 -5.60649 73
    endloop
  endfacet
  facet normal 0 0 1
    outer loop
      vertex 47.3206 0.806493 73
      vertex 46.8446 0.817429 73
      vertex 45.2044 0.0683985 73
    endloop
  endfacet
  facet normal -0 0 1
    outer loop
      vertex 44.2296 -3.35154 73
      vertex 47.3206 -5.60649 73
      vertex 44.2296 -1.44846 73
    endloop
  endfacet
  facet normal 0 0 1
    outer loop
      vertex 47.3206 0.806493 73
      vertex 45.2044 0.0683985 73
      vertex 44.2296 -1.44846 73
    endloop
  endfacet
  facet normal -0 -0 1
    outer loop
      vertex 45.2044 -4.8684 73
      vertex 47.3206 -5.60649 73
      vertex 44.2296 -3.35154 73
    endloop
  endfacet
  facet normal 0 -0 1
    outer loop
      vertex 46.8446 -5.61743 73
      vertex 47.3206 -5.60649 73
      vertex 45.2044 -4.8684 73
    endloop
  endfacet
  facet normal 0 0 1
    outer loop
      vertex 47.3206 -5.60649 73
      vertex 46.8446 -5.61743 73
      vertex 47.2446 -5.61743 73
    endloop
  endfacet
  facet normal -0.415404 -0.909637 0
    outer loop
      vertex 45.2044 -4.8684 73
      vertex 46.8446 -5.61743 51.2323
      vertex 46.8446 -5.61743 73
    endloop
  endfacet
  facet normal -0.415445 -0.909618 -3.74914e-06
    outer loop
      vertex 45.2044 -4.8684 73
      vertex 46.8 -5.59706 51.2124
      vertex 46.8446 -5.61743 51.2323
    endloop
  endfacet
  facet normal -0.415375 -0.90965 2.42071e-06
    outer loop
      vertex 45.2044 -4.8684 73
      vertex 46.5632 -5.48893 51.0404
      vertex 46.8 -5.59706 51.2124
    endloop
  endfacet
  facet normal -0.415491 -0.909597 -6.19525e-06
    outer loop
      vertex 45.2044 -4.8684 73
      vertex 46.3674 -5.39949 50.8229
      vertex 46.5632 -5.48893 51.0404
    endloop
  endfacet
  facet normal -0.415278 -0.909694 7.26564e-06
    outer loop
      vertex 45.2044 -4.8684 73
      vertex 46.221 -5.33266 50.5694
      vertex 46.3674 -5.39949 50.8229
    endloop
  endfacet
  facet normal -0.415529 -0.90958 -6.48573e-06
    outer loop
      vertex 45.2044 -4.8684 73
      vertex 46.1306 -5.29136 50.2911
      vertex 46.221 -5.33266 50.5694
    endloop
  endfacet
  facet normal -0.415507 -0.90959 -5.37544e-06
    outer loop
      vertex 45.2044 -4.8684 73
      vertex 46.1 -5.27738 50
      vertex 46.1306 -5.29136 50.2911
    endloop
  endfacet
  facet normal -0.415446 -0.909618 0
    outer loop
      vertex 46.8 -5.59706 48.7876
      vertex 46.8446 -5.61743 21.2323
      vertex 46.8446 -5.61743 48.7677
    endloop
  endfacet
  facet normal -0.415374 -0.909651 0
    outer loop
      vertex 46.8 -5.59706 21.2124
      vertex 46.8 -5.59706 48.7876
      vertex 46.5632 -5.48893 48.9596
    endloop
  endfacet
  facet normal -0.415496 -0.909595 0
    outer loop
      vertex 46.5632 -5.48893 21.0404
      vertex 46.5632 -5.48893 48.9596
      vertex 46.3674 -5.39949 49.1771
    endloop
  endfacet
  facet normal -0.415268 -0.909699 0
    outer loop
      vertex 46.3674 -5.39949 20.8229
      vertex 46.3674 -5.39949 49.1771
      vertex 46.221 -5.33266 49.4306
    endloop
  endfacet
  facet normal -0.415546 -0.909572 0
    outer loop
      vertex 46.221 -5.33266 20.5694
      vertex 46.221 -5.33266 49.4306
      vertex 46.1306 -5.29136 49.7089
    endloop
  endfacet
  facet normal -0.415549 -0.909571 0
    outer loop
      vertex 46.1306 -5.29136 20.2911
      vertex 46.1306 -5.29136 49.7089
      vertex 46.1 -5.27738 50
    endloop
  endfacet
  facet normal -0.415392 -0.909642 0
    outer loop
      vertex 46.1 -5.27738 20
      vertex 46.1 -5.27738 50
      vertex 45.2044 -4.8684 73
    endloop
  endfacet
  facet normal -0.415446 -0.909618 -0
    outer loop
      vertex 46.8 -5.59706 48.7876
      vertex 46.8 -5.59706 21.2124
      vertex 46.8446 -5.61743 21.2323
    endloop
  endfacet
  facet normal -0.415374 -0.909651 -0
    outer loop
      vertex 46.5632 -5.48893 48.9596
      vertex 46.5632 -5.48893 21.0404
      vertex 46.8 -5.59706 21.2124
    endloop
  endfacet
  facet normal -0.415496 -0.909595 -0
    outer loop
      vertex 46.3674 -5.39949 49.1771
      vertex 46.3674 -5.39949 20.8229
      vertex 46.5632 -5.48893 21.0404
    endloop
  endfacet
  facet normal -0.415268 -0.909699 -0
    outer loop
      vertex 46.221 -5.33266 49.4306
      vertex 46.221 -5.33266 20.5694
      vertex 46.3674 -5.39949 20.8229
    endloop
  endfacet
  facet normal -0.415546 -0.909572 -0
    outer loop
      vertex 46.1306 -5.29136 49.7089
      vertex 46.1306 -5.29136 20.2911
      vertex 46.221 -5.33266 20.5694
    endloop
  endfacet
  facet normal -0.415549 -0.909571 -0
    outer loop
      vertex 46.1 -5.27738 50
      vertex 46.1 -5.27738 20
      vertex 46.1306 -5.29136 20.2911
    endloop
  endfacet
  facet normal -0.415392 -0.909642 0
    outer loop
      vertex 45.2044 -4.8684 0
      vertex 46.1 -5.27738 20
      vertex 45.2044 -4.8684 73
    endloop
  endfacet
  facet normal -0.415502 -0.909592 5.9409e-06
    outer loop
      vertex 45.2044 -4.8684 0
      vertex 46.1306 -5.29136 19.7089
      vertex 46.1 -5.27738 20
    endloop
  endfacet
  facet normal -0.415527 -0.909581 7.3482e-06
    outer loop
      vertex 45.2044 -4.8684 0
      vertex 46.221 -5.33266 19.4306
      vertex 46.1306 -5.29136 19.7089
    endloop
  endfacet
  facet normal -0.41528 -0.909694 -8.29423e-06
    outer loop
      vertex 45.2044 -4.8684 0
      vertex 46.3674 -5.39949 19.1771
      vertex 46.221 -5.33266 19.4306
    endloop
  endfacet
  facet normal -0.41549 -0.909598 7.10325e-06
    outer loop
      vertex 45.2044 -4.8684 0
      vertex 46.5632 -5.48893 18.9596
      vertex 46.3674 -5.39949 19.1771
    endloop
  endfacet
  facet normal -0.415376 -0.90965 -2.78479e-06
    outer loop
      vertex 45.2044 -4.8684 0
      vertex 46.8 -5.59706 18.7876
      vertex 46.5632 -5.48893 18.9596
    endloop
  endfacet
  facet normal -0.415445 -0.909618 4.32594e-06
    outer loop
      vertex 45.2044 -4.8684 0
      vertex 46.8446 -5.61743 18.7677
      vertex 46.8 -5.59706 18.7876
    endloop
  endfacet
  facet normal -0.415404 -0.909637 -0
    outer loop
      vertex 46.8446 -5.61743 18.7677
      vertex 45.2044 -4.8684 0
      vertex 46.8446 -5.61743 0
    endloop
  endfacet
  facet normal -0.84126 -0.54063 0
    outer loop
      vertex 45.2044 -4.8684 0
      vertex 44.2296 -3.35154 73
      vertex 44.2296 -3.35154 0
    endloop
  endfacet
  facet normal -0.84126 -0.54063 0
    outer loop
      vertex 44.2296 -3.35154 73
      vertex 45.2044 -4.8684 0
      vertex 45.2044 -4.8684 73
    endloop
  endfacet
  facet normal 0.142479 -0.989798 0
    outer loop
      vertex 47.2446 -5.61743 73
      vertex 47.3206 -5.60649 51.3853
      vertex 47.3206 -5.60649 73
    endloop
  endfacet
  facet normal 0.142479 -0.989798 0
    outer loop
      vertex 47.3206 -5.60649 51.3853
      vertex 47.2446 -5.61743 73
      vertex 47.2446 -5.61743 51.3691
    endloop
  endfacet
  facet normal 0.142479 -0.989798 0
    outer loop
      vertex 47.2446 -5.61743 0
      vertex 47.3206 -5.60649 18.6147
      vertex 47.2446 -5.61743 18.6309
    endloop
  endfacet
  facet normal 0.142479 -0.989798 0
    outer loop
      vertex 47.3206 -5.60649 18.6147
      vertex 47.2446 -5.61743 0
      vertex 47.3206 -5.60649 0
    endloop
  endfacet
  facet normal 0.142479 -0.989798 0
    outer loop
      vertex 47.2446 -5.61743 48.6309
      vertex 47.3206 -5.60649 21.3853
      vertex 47.3206 -5.60649 48.6147
    endloop
  endfacet
  facet normal 0.142479 -0.989798 0
    outer loop
      vertex 47.3206 -5.60649 21.3853
      vertex 47.2446 -5.61743 48.6309
      vertex 47.2446 -5.61743 21.3691
    endloop
  endfacet
  facet normal 0.142428 0.989805 -0
    outer loop
      vertex 47.3206 0.806493 51.3853
      vertex 47.2446 0.817429 73
      vertex 47.3206 0.806493 73
    endloop
  endfacet
  facet normal 0.142428 0.989805 0
    outer loop
      vertex 47.2446 0.817429 73
      vertex 47.3206 0.806493 51.3853
      vertex 47.2446 0.817429 51.3691
    endloop
  endfacet
  facet normal 0.142428 0.989805 0
    outer loop
      vertex 47.2446 0.817429 0
      vertex 47.3206 0.806493 18.6147
      vertex 47.3206 0.806493 0
    endloop
  endfacet
  facet normal 0.142428 0.989805 0
    outer loop
      vertex 47.3206 0.806493 18.6147
      vertex 47.2446 0.817429 0
      vertex 47.2446 0.817429 18.6309
    endloop
  endfacet
  facet normal 0.142428 0.989805 -0
    outer loop
      vertex 47.3206 0.806493 21.3853
      vertex 47.2446 0.817429 48.6309
      vertex 47.3206 0.806493 48.6147
    endloop
  endfacet
  facet normal 0.142428 0.989805 0
    outer loop
      vertex 47.2446 0.817429 48.6309
      vertex 47.3206 0.806493 21.3853
      vertex 47.2446 0.817429 21.3691
    endloop
  endfacet
  facet normal -1 0 0
    outer loop
      vertex 44.2296 -3.35154 0
      vertex 44.2296 -1.44846 73
      vertex 44.2296 -1.44846 0
    endloop
  endfacet
  facet normal -1 -0 0
    outer loop
      vertex 44.2296 -1.44846 73
      vertex 44.2296 -3.35154 0
      vertex 44.2296 -3.35154 73
    endloop
  endfacet
  facet normal 0 -1 0
    outer loop
      vertex 46.8446 -5.61743 73
      vertex 47.2446 -5.61743 51.3691
      vertex 47.2446 -5.61743 73
    endloop
  endfacet
  facet normal 0 -1 0
    outer loop
      vertex 46.8446 -5.61743 73
      vertex 47.0674 -5.61743 51.3315
      vertex 47.2446 -5.61743 51.3691
    endloop
  endfacet
  facet normal -0 -1 0
    outer loop
      vertex 47.0674 -5.61743 51.3315
      vertex 46.8446 -5.61743 73
      vertex 46.8446 -5.61743 51.2323
    endloop
  endfacet
  facet normal 0 -1 0
    outer loop
      vertex 46.8446 -5.61743 0
      vertex 47.0674 -5.61743 18.6685
      vertex 46.8446 -5.61743 18.7677
    endloop
  endfacet
  facet normal 0 -1 0
    outer loop
      vertex 46.8446 -5.61743 0
      vertex 47.2446 -5.61743 18.6309
      vertex 47.0674 -5.61743 18.6685
    endloop
  endfacet
  facet normal 0 -1 -0
    outer loop
      vertex 47.2446 -5.61743 18.6309
      vertex 46.8446 -5.61743 0
      vertex 47.2446 -5.61743 0
    endloop
  endfacet
  facet normal 0 -1 0
    outer loop
      vertex 47.0674 -5.61743 48.6685
      vertex 47.2446 -5.61743 21.3691
      vertex 47.2446 -5.61743 48.6309
    endloop
  endfacet
  facet normal 0 -1 0
    outer loop
      vertex 47.0674 -5.61743 21.3315
      vertex 47.0674 -5.61743 48.6685
      vertex 46.8446 -5.61743 48.7677
    endloop
  endfacet
  facet normal 0 -1 0
    outer loop
      vertex 47.0674 -5.61743 48.6685
      vertex 47.0674 -5.61743 21.3315
      vertex 47.2446 -5.61743 21.3691
    endloop
  endfacet
  facet normal -0 -1 0
    outer loop
      vertex 47.0674 -5.61743 21.3315
      vertex 46.8446 -5.61743 48.7677
      vertex 46.8446 -5.61743 21.2323
    endloop
  endfacet
  facet normal -0.84126 0.540631 0
    outer loop
      vertex 44.2296 -1.44846 0
      vertex 45.2044 0.0683985 73
      vertex 45.2044 0.0683985 0
    endloop
  endfacet
  facet normal -0.84126 0.540631 0
    outer loop
      vertex 45.2044 0.0683985 73
      vertex 44.2296 -1.44846 0
      vertex 44.2296 -1.44846 73
    endloop
  endfacet
  facet normal -0.415404 0.909637 0
    outer loop
      vertex 46.8446 0.817429 51.2323
      vertex 45.2044 0.0683985 73
      vertex 46.8446 0.817429 73
    endloop
  endfacet
  facet normal -0.415363 0.909656 3.70514e-06
    outer loop
      vertex 46.8 0.797064 51.2124
      vertex 45.2044 0.0683985 73
      vertex 46.8446 0.817429 51.2323
    endloop
  endfacet
  facet normal -0.415391 0.909643 1.30316e-06
    outer loop
      vertex 46.5632 0.688929 51.0404
      vertex 45.2044 0.0683985 73
      vertex 46.8 0.797064 51.2124
    endloop
  endfacet
  facet normal -0.415483 0.909601 -5.63796e-06
    outer loop
      vertex 46.3674 0.599491 50.8229
      vertex 45.2044 0.0683985 73
      vertex 46.5632 0.688929 51.0404
    endloop
  endfacet
  facet normal -0.415283 0.909692 7.0609e-06
    outer loop
      vertex 46.221 0.53266 50.5694
      vertex 45.2044 0.0683985 73
      vertex 46.3674 0.599491 50.8229
    endloop
  endfacet
  facet normal -0.415559 0.909566 -8.03297e-06
    outer loop
      vertex 46.1306 0.491356 50.2911
      vertex 45.2044 0.0683985 73
      vertex 46.221 0.53266 50.5694
    endloop
  endfacet
  facet normal -0.415347 0.909663 2.41377e-06
    outer loop
      vertex 46.1 0.477385 50
      vertex 45.2044 0.0683985 73
      vertex 46.1306 0.491356 50.2911
    endloop
  endfacet
  facet normal -0.415362 0.909656 0
    outer loop
      vertex 46.8446 0.817429 21.2323
      vertex 46.8 0.797064 48.7876
      vertex 46.8446 0.817429 48.7677
    endloop
  endfacet
  facet normal -0.415362 0.909656 0
    outer loop
      vertex 46.8 0.797064 21.2124
      vertex 46.8 0.797064 48.7876
      vertex 46.8446 0.817429 21.2323
    endloop
  endfacet
  facet normal -0.41539 0.909644 0
    outer loop
      vertex 46.8 0.797064 48.7876
      vertex 46.8 0.797064 21.2124
      vertex 46.5632 0.688929 48.9596
    endloop
  endfacet
  facet normal -0.41539 0.909644 0
    outer loop
      vertex 46.5632 0.688929 21.0404
      vertex 46.5632 0.688929 48.9596
      vertex 46.8 0.797064 21.2124
    endloop
  endfacet
  facet normal -0.415489 0.909598 0
    outer loop
      vertex 46.5632 0.688929 48.9596
      vertex 46.5632 0.688929 21.0404
      vertex 46.3674 0.599491 49.1771
    endloop
  endfacet
  facet normal -0.415489 0.909598 0
    outer loop
      vertex 46.3674 0.599491 20.8229
      vertex 46.3674 0.599491 49.1771
      vertex 46.5632 0.688929 21.0404
    endloop
  endfacet
  facet normal -0.415273 0.909697 0
    outer loop
      vertex 46.3674 0.599491 49.1771
      vertex 46.3674 0.599491 20.8229
      vertex 46.221 0.53266 49.4306
    endloop
  endfacet
  facet normal -0.415273 0.909697 0
    outer loop
      vertex 46.221 0.53266 20.5694
      vertex 46.221 0.53266 49.4306
      vertex 46.3674 0.599491 20.8229
    endloop
  endfacet
  facet normal -0.415579 0.909557 0
    outer loop
      vertex 46.221 0.53266 49.4306
      vertex 46.221 0.53266 20.5694
      vertex 46.1306 0.491356 49.7089
    endloop
  endfacet
  facet normal -0.415579 0.909557 0
    outer loop
      vertex 46.1306 0.491356 20.2911
      vertex 46.1306 0.491356 49.7089
      vertex 46.221 0.53266 20.5694
    endloop
  endfacet
  facet normal -0.415328 0.909672 0
    outer loop
      vertex 46.1306 0.491356 49.7089
      vertex 46.1306 0.491356 20.2911
      vertex 46.1 0.477385 50
    endloop
  endfacet
  facet normal -0.415328 0.909672 0
    outer loop
      vertex 46.1 0.477385 20
      vertex 46.1 0.477385 50
      vertex 46.1306 0.491356 20.2911
    endloop
  endfacet
  facet normal -0.415398 0.90964 0
    outer loop
      vertex 46.1 0.477385 50
      vertex 46.1 0.477385 20
      vertex 45.2044 0.0683985 73
    endloop
  endfacet
  facet normal -0.415404 0.909637 0
    outer loop
      vertex 45.2044 0.0683985 0
      vertex 46.8446 0.817429 18.7677
      vertex 46.8446 0.817429 0
    endloop
  endfacet
  facet normal -0.415364 0.909655 -4.27518e-06
    outer loop
      vertex 46.8446 0.817429 18.7677
      vertex 45.2044 0.0683985 0
      vertex 46.8 0.797064 18.7876
    endloop
  endfacet
  facet normal -0.415391 0.909643 -1.49915e-06
    outer loop
      vertex 46.8 0.797064 18.7876
      vertex 45.2044 0.0683985 0
      vertex 46.5632 0.688929 18.9596
    endloop
  endfacet
  facet normal -0.415483 0.909601 6.46428e-06
    outer loop
      vertex 46.5632 0.688929 18.9596
      vertex 45.2044 0.0683985 0
      vertex 46.3674 0.599491 19.1771
    endloop
  endfacet
  facet normal -0.415284 0.909692 -8.06051e-06
    outer loop
      vertex 46.3674 0.599491 19.1771
      vertex 45.2044 0.0683985 0
      vertex 46.221 0.53266 19.4306
    endloop
  endfacet
  facet normal -0.415556 0.909568 9.10118e-06
    outer loop
      vertex 46.221 0.53266 19.4306
      vertex 45.2044 0.0683985 0
      vertex 46.1306 0.491356 19.7089
    endloop
  endfacet
  facet normal -0.415398 0.90964 0
    outer loop
      vertex 46.1 0.477385 20
      vertex 45.2044 0.0683985 0
      vertex 45.2044 0.0683985 73
    endloop
  endfacet
  facet normal -0.415349 0.909662 -2.66767e-06
    outer loop
      vertex 46.1306 0.491356 19.7089
      vertex 45.2044 0.0683985 0
      vertex 46.1 0.477385 20
    endloop
  endfacet
  facet normal 0 1 -0
    outer loop
      vertex 47.2446 0.817429 51.3691
      vertex 46.8446 0.817429 73
      vertex 47.2446 0.817429 73
    endloop
  endfacet
  facet normal 0 1 -0
    outer loop
      vertex 47.0674 0.817429 51.3315
      vertex 46.8446 0.817429 73
      vertex 47.2446 0.817429 51.3691
    endloop
  endfacet
  facet normal 0 1 0
    outer loop
      vertex 46.8446 0.817429 73
      vertex 47.0674 0.817429 51.3315
      vertex 46.8446 0.817429 51.2323
    endloop
  endfacet
  facet normal 0 1 0
    outer loop
      vertex 46.8446 0.817429 0
      vertex 47.2446 0.817429 18.6309
      vertex 47.2446 0.817429 0
    endloop
  endfacet
  facet normal 0 1 0
    outer loop
      vertex 47.2446 0.817429 18.6309
      vertex 46.8446 0.817429 0
      vertex 47.0674 0.817429 18.6685
    endloop
  endfacet
  facet normal 0 1 0
    outer loop
      vertex 47.0674 0.817429 18.6685
      vertex 46.8446 0.817429 0
      vertex 46.8446 0.817429 18.7677
    endloop
  endfacet
  facet normal 0 1 -0
    outer loop
      vertex 47.2446 0.817429 21.3691
      vertex 47.0674 0.817429 48.6685
      vertex 47.2446 0.817429 48.6309
    endloop
  endfacet
  facet normal 0 1 0
    outer loop
      vertex 47.0674 0.817429 21.3315
      vertex 47.0674 0.817429 48.6685
      vertex 47.2446 0.817429 21.3691
    endloop
  endfacet
  facet normal 0 1 0
    outer loop
      vertex 47.0674 0.817429 48.6685
      vertex 47.0674 0.817429 21.3315
      vertex 46.8446 0.817429 48.7677
    endloop
  endfacet
  facet normal 0 1 0
    outer loop
      vertex 46.8446 0.817429 48.7677
      vertex 47.0674 0.817429 21.3315
      vertex 46.8446 0.817429 21.2323
    endloop
  endfacet
  facet normal 0 0 -1
    outer loop
      vertex 47.3537 -5.61743 21.3923
      vertex 47.6463 0.817429 21.3923
      vertex 47.6463 -5.61743 21.3923
    endloop
  endfacet
  facet normal -0 0 -1
    outer loop
      vertex 47.6463 0.817429 21.3923
      vertex 47.3537 -5.61743 21.3923
      vertex 47.3537 0.817429 21.3923
    endloop
  endfacet
  facet normal -0.951082 0 -0.308939
    outer loop
      vertex 48.8694 -5.4557 20.2911
      vertex 48.779 0.668708 20.5694
      vertex 48.8694 0.655704 20.2911
    endloop
  endfacet
  facet normal -0.951082 -0 -0.308939
    outer loop
      vertex 48.779 0.668708 20.5694
      vertex 48.8694 -5.4557 20.2911
      vertex 48.779 -5.46871 20.5694
    endloop
  endfacet
  facet normal -0.99452 0 -0.104543
    outer loop
      vertex 48.9 -5.45131 20
      vertex 48.8694 0.655704 20.2911
      vertex 48.9 0.651305 20
    endloop
  endfacet
  facet normal -0.99452 -0 -0.104543
    outer loop
      vertex 48.8694 0.655704 20.2911
      vertex 48.9 -5.45131 20
      vertex 48.8694 -5.4557 20.2911
    endloop
  endfacet
  facet normal 0.587684 0 0.809091
    outer loop
      vertex 46.5632 0.688929 18.9596
      vertex 46.8 -5.59706 18.7876
      vertex 46.8 0.797064 18.7876
    endloop
  endfacet
  facet normal 0.587684 0 0.809091
    outer loop
      vertex 46.8 -5.59706 18.7876
      vertex 46.5632 0.688929 18.9596
      vertex 46.5632 -5.48893 18.9596
    endloop
  endfacet
  facet normal -0.743209 0 -0.669059
    outer loop
      vertex 48.6326 -5.48975 20.8229
      vertex 48.4368 0.717906 21.0404
      vertex 48.6326 0.689748 20.8229
    endloop
  endfacet
  facet normal -0.743209 -0 -0.669059
    outer loop
      vertex 48.4368 0.717906 21.0404
      vertex 48.6326 -5.48975 20.8229
      vertex 48.4368 -5.51791 21.0404
    endloop
  endfacet
  facet normal -0.99452 0 0.104543
    outer loop
      vertex 48.8694 0.655704 19.7089
      vertex 48.9 -5.45131 20
      vertex 48.9 0.651305 20
    endloop
  endfacet
  facet normal -0.99452 0 0.104543
    outer loop
      vertex 48.9 -5.45131 20
      vertex 48.8694 0.655704 19.7089
      vertex 48.8694 -5.4557 19.7089
    endloop
  endfacet
  facet normal 0.743209 0 -0.669059
    outer loop
      vertex 46.5632 0.688929 21.0404
      vertex 46.3674 -5.39949 20.8229
      vertex 46.3674 0.599491 20.8229
    endloop
  endfacet
  facet normal 0.743209 0 -0.669059
    outer loop
      vertex 46.3674 -5.39949 20.8229
      vertex 46.5632 0.688929 21.0404
      vertex 46.5632 -5.48893 21.0404
    endloop
  endfacet
  facet normal -0.865964 0 -0.500107
    outer loop
      vertex 48.779 -5.46871 20.5694
      vertex 48.6326 0.689748 20.8229
      vertex 48.779 0.668708 20.5694
    endloop
  endfacet
  facet normal -0.865964 -0 -0.500107
    outer loop
      vertex 48.6326 0.689748 20.8229
      vertex 48.779 -5.46871 20.5694
      vertex 48.6326 -5.48975 20.8229
    endloop
  endfacet
  facet normal 0.204377 0.0079672 0.97886
    outer loop
      vertex 47.3206 0.806493 18.6147
      vertex 47.3537 0.817429 18.6077
      vertex 47.3446 0.817429 18.6096
    endloop
  endfacet
  facet normal 0.206904 0 0.978361
    outer loop
      vertex 47.3537 0.817429 18.6077
      vertex 47.3206 0.806493 18.6147
      vertex 47.3537 -5.61743 18.6077
    endloop
  endfacet
  facet normal 0.206904 -0 0.978361
    outer loop
      vertex 47.3206 -5.60649 18.6147
      vertex 47.3537 -5.61743 18.6077
      vertex 47.3206 0.806493 18.6147
    endloop
  endfacet
  facet normal 0.204377 -0.00796428 0.97886
    outer loop
      vertex 47.3537 -5.61743 18.6077
      vertex 47.3206 -5.60649 18.6147
      vertex 47.3446 -5.61743 18.6096
    endloop
  endfacet
  facet normal 0.207564 -0.00658238 0.978199
    outer loop
      vertex 47.0674 0.817429 18.6685
      vertex 47.3206 0.806493 18.6147
      vertex 47.2446 0.817429 18.6309
    endloop
  endfacet
  facet normal 0.20784 0 0.978163
    outer loop
      vertex 47.3206 0.806493 18.6147
      vertex 47.0674 0.817429 18.6685
      vertex 47.3206 -5.60649 18.6147
    endloop
  endfacet
  facet normal 0.20784 -0 0.978163
    outer loop
      vertex 47.0674 -5.61743 18.6685
      vertex 47.3206 -5.60649 18.6147
      vertex 47.0674 0.817429 18.6685
    endloop
  endfacet
  facet normal 0.207564 0.00657997 0.978199
    outer loop
      vertex 47.3206 -5.60649 18.6147
      vertex 47.0674 -5.61743 18.6685
      vertex 47.2446 -5.61743 18.6309
    endloop
  endfacet
  facet normal 0.951082 0 -0.308939
    outer loop
      vertex 46.221 0.53266 20.5694
      vertex 46.1306 -5.29136 20.2911
      vertex 46.1306 0.491356 20.2911
    endloop
  endfacet
  facet normal 0.951082 0 -0.308939
    outer loop
      vertex 46.1306 -5.29136 20.2911
      vertex 46.221 0.53266 20.5694
      vertex 46.221 -5.33266 20.5694
    endloop
  endfacet
  facet normal 0.587684 0 -0.809091
    outer loop
      vertex 46.5632 -5.48893 21.0404
      vertex 46.8 0.797064 21.2124
      vertex 46.8 -5.59706 21.2124
    endloop
  endfacet
  facet normal 0.587684 0 -0.809091
    outer loop
      vertex 46.8 0.797064 21.2124
      vertex 46.5632 -5.48893 21.0404
      vertex 46.5632 0.688929 21.0404
    endloop
  endfacet
  facet normal -0.587684 0 0.809091
    outer loop
      vertex 48.2 0.751951 18.7876
      vertex 48.4368 -5.51791 18.9596
      vertex 48.4368 0.717906 18.9596
    endloop
  endfacet
  facet normal -0.587684 0 0.809091
    outer loop
      vertex 48.4368 -5.51791 18.9596
      vertex 48.2 0.751951 18.7876
      vertex 48.2 -5.55195 18.7876
    endloop
  endfacet
  facet normal -0.743209 0 0.669059
    outer loop
      vertex 48.4368 0.717906 18.9596
      vertex 48.6326 -5.48975 19.1771
      vertex 48.6326 0.689748 19.1771
    endloop
  endfacet
  facet normal -0.743209 0 0.669059
    outer loop
      vertex 48.6326 -5.48975 19.1771
      vertex 48.4368 0.717906 18.9596
      vertex 48.4368 -5.51791 18.9596
    endloop
  endfacet
  facet normal 0.99452 0 -0.104543
    outer loop
      vertex 46.1306 0.491356 20.2911
      vertex 46.1 -5.27738 20
      vertex 46.1 0.477385 20
    endloop
  endfacet
  facet normal 0.99452 0 -0.104543
    outer loop
      vertex 46.1 -5.27738 20
      vertex 46.1306 0.491356 20.2911
      vertex 46.1306 -5.29136 20.2911
    endloop
  endfacet
  facet normal -0.951082 0 0.308939
    outer loop
      vertex 48.779 0.668708 19.4306
      vertex 48.8694 -5.4557 19.7089
      vertex 48.8694 0.655704 19.7089
    endloop
  endfacet
  facet normal -0.951082 0 0.308939
    outer loop
      vertex 48.8694 -5.4557 19.7089
      vertex 48.779 0.668708 19.4306
      vertex 48.779 -5.46871 19.4306
    endloop
  endfacet
  facet normal 0.951082 -0 0.308939
    outer loop
      vertex 46.1306 -5.29136 19.7089
      vertex 46.221 0.53266 19.4306
      vertex 46.1306 0.491356 19.7089
    endloop
  endfacet
  facet normal 0.951082 0 0.308939
    outer loop
      vertex 46.221 0.53266 19.4306
      vertex 46.1306 -5.29136 19.7089
      vertex 46.221 -5.33266 19.4306
    endloop
  endfacet
  facet normal -0.406867 0 -0.913487
    outer loop
      vertex 47.9326 -5.59039 21.3315
      vertex 48.2 0.751951 21.2124
      vertex 48.2 -5.55195 21.2124
    endloop
  endfacet
  facet normal -0.406867 0 -0.913487
    outer loop
      vertex 48.2 0.751951 21.2124
      vertex 47.9326 -5.59039 21.3315
      vertex 47.9326 0.790394 21.3315
    endloop
  endfacet
  facet normal -0.207965 0.00258698 -0.978133
    outer loop
      vertex 47.6463 -5.61743 21.3923
      vertex 47.9326 -5.59039 21.3315
      vertex 47.7446 -5.61743 21.3714
    endloop
  endfacet
  facet normal -0.207732 0 -0.978186
    outer loop
      vertex 47.9326 -5.59039 21.3315
      vertex 47.6463 -5.61743 21.3923
      vertex 47.9326 0.790394 21.3315
    endloop
  endfacet
  facet normal -0.207732 -0 -0.978186
    outer loop
      vertex 47.6463 0.817429 21.3923
      vertex 47.9326 0.790394 21.3315
      vertex 47.6463 -5.61743 21.3923
    endloop
  endfacet
  facet normal -0.207965 -0.00258746 -0.978133
    outer loop
      vertex 47.9326 0.790394 21.3315
      vertex 47.6463 0.817429 21.3923
      vertex 47.7446 0.817429 21.3714
    endloop
  endfacet
  facet normal 0.406746 0.00189259 0.913539
    outer loop
      vertex 46.8 0.797064 18.7876
      vertex 47.0674 0.817429 18.6685
      vertex 46.8446 0.817429 18.7677
    endloop
  endfacet
  facet normal 0.406867 0 0.913487
    outer loop
      vertex 47.0674 0.817429 18.6685
      vertex 46.8 0.797064 18.7876
      vertex 47.0674 -5.61743 18.6685
    endloop
  endfacet
  facet normal 0.406867 -0 0.913487
    outer loop
      vertex 46.8 -5.59706 18.7876
      vertex 47.0674 -5.61743 18.6685
      vertex 46.8 0.797064 18.7876
    endloop
  endfacet
  facet normal 0.406746 -0.00189212 0.913539
    outer loop
      vertex 47.0674 -5.61743 18.6685
      vertex 46.8 -5.59706 18.7876
      vertex 46.8446 -5.61743 18.7677
    endloop
  endfacet
  facet normal 0.204377 -0.00796428 -0.97886
    outer loop
      vertex 47.3206 -5.60649 21.3853
      vertex 47.3537 -5.61743 21.3923
      vertex 47.3446 -5.61743 21.3904
    endloop
  endfacet
  facet normal 0.206904 0 -0.978361
    outer loop
      vertex 47.3537 -5.61743 21.3923
      vertex 47.3206 -5.60649 21.3853
      vertex 47.3537 0.817429 21.3923
    endloop
  endfacet
  facet normal 0.206904 0 -0.978361
    outer loop
      vertex 47.3206 0.806493 21.3853
      vertex 47.3537 0.817429 21.3923
      vertex 47.3206 -5.60649 21.3853
    endloop
  endfacet
  facet normal 0.204377 0.0079672 -0.97886
    outer loop
      vertex 47.3537 0.817429 21.3923
      vertex 47.3206 0.806493 21.3853
      vertex 47.3446 0.817429 21.3904
    endloop
  endfacet
  facet normal 0.207564 0.00657997 -0.978199
    outer loop
      vertex 47.0674 -5.61743 21.3315
      vertex 47.3206 -5.60649 21.3853
      vertex 47.2446 -5.61743 21.3691
    endloop
  endfacet
  facet normal 0.20784 0 -0.978163
    outer loop
      vertex 47.3206 -5.60649 21.3853
      vertex 47.0674 -5.61743 21.3315
      vertex 47.3206 0.806493 21.3853
    endloop
  endfacet
  facet normal 0.20784 0 -0.978163
    outer loop
      vertex 47.0674 0.817429 21.3315
      vertex 47.3206 0.806493 21.3853
      vertex 47.0674 -5.61743 21.3315
    endloop
  endfacet
  facet normal 0.207564 -0.00658238 -0.978199
    outer loop
      vertex 47.3206 0.806493 21.3853
      vertex 47.0674 0.817429 21.3315
      vertex 47.2446 0.817429 21.3691
    endloop
  endfacet
  facet normal -0 0 1
    outer loop
      vertex 47.3537 0.817429 18.6077
      vertex 47.6463 -5.61743 18.6077
      vertex 47.6463 0.817429 18.6077
    endloop
  endfacet
  facet normal 0 0 1
    outer loop
      vertex 47.6463 -5.61743 18.6077
      vertex 47.3537 0.817429 18.6077
      vertex 47.3537 -5.61743 18.6077
    endloop
  endfacet
  facet normal 0.743209 -0 0.669059
    outer loop
      vertex 46.3674 -5.39949 19.1771
      vertex 46.5632 0.688929 18.9596
      vertex 46.3674 0.599491 19.1771
    endloop
  endfacet
  facet normal 0.743209 0 0.669059
    outer loop
      vertex 46.5632 0.688929 18.9596
      vertex 46.3674 -5.39949 19.1771
      vertex 46.5632 -5.48893 18.9596
    endloop
  endfacet
  facet normal 0.406746 -0.00189212 -0.913539
    outer loop
      vertex 46.8 -5.59706 21.2124
      vertex 47.0674 -5.61743 21.3315
      vertex 46.8446 -5.61743 21.2323
    endloop
  endfacet
  facet normal 0.406867 0 -0.913487
    outer loop
      vertex 47.0674 -5.61743 21.3315
      vertex 46.8 -5.59706 21.2124
      vertex 47.0674 0.817429 21.3315
    endloop
  endfacet
  facet normal 0.406867 0 -0.913487
    outer loop
      vertex 46.8 0.797064 21.2124
      vertex 47.0674 0.817429 21.3315
      vertex 46.8 -5.59706 21.2124
    endloop
  endfacet
  facet normal 0.406746 0.00189259 -0.913539
    outer loop
      vertex 47.0674 0.817429 21.3315
      vertex 46.8 0.797064 21.2124
      vertex 46.8446 0.817429 21.2323
    endloop
  endfacet
  facet normal -0.406867 0 0.913487
    outer loop
      vertex 47.9326 0.790394 18.6685
      vertex 48.2 -5.55195 18.7876
      vertex 48.2 0.751951 18.7876
    endloop
  endfacet
  facet normal -0.406867 0 0.913487
    outer loop
      vertex 48.2 -5.55195 18.7876
      vertex 47.9326 0.790394 18.6685
      vertex 47.9326 -5.59039 18.6685
    endloop
  endfacet
  facet normal -0.587684 0 -0.809091
    outer loop
      vertex 48.2 -5.55195 21.2124
      vertex 48.4368 0.717906 21.0404
      vertex 48.4368 -5.51791 21.0404
    endloop
  endfacet
  facet normal -0.587684 0 -0.809091
    outer loop
      vertex 48.4368 0.717906 21.0404
      vertex 48.2 -5.55195 21.2124
      vertex 48.2 0.751951 21.2124
    endloop
  endfacet
  facet normal -0.865964 0 0.500107
    outer loop
      vertex 48.6326 0.689748 19.1771
      vertex 48.779 -5.46871 19.4306
      vertex 48.779 0.668708 19.4306
    endloop
  endfacet
  facet normal -0.865964 0 0.500107
    outer loop
      vertex 48.779 -5.46871 19.4306
      vertex 48.6326 0.689748 19.1771
      vertex 48.6326 -5.48975 19.1771
    endloop
  endfacet
  facet normal -0.207965 -0.00258746 0.978133
    outer loop
      vertex 47.6463 0.817429 18.6077
      vertex 47.9326 0.790394 18.6685
      vertex 47.7446 0.817429 18.6286
    endloop
  endfacet
  facet normal -0.207732 0 0.978186
    outer loop
      vertex 47.9326 0.790394 18.6685
      vertex 47.6463 0.817429 18.6077
      vertex 47.9326 -5.59039 18.6685
    endloop
  endfacet
  facet normal -0.207732 0 0.978186
    outer loop
      vertex 47.6463 -5.61743 18.6077
      vertex 47.9326 -5.59039 18.6685
      vertex 47.6463 0.817429 18.6077
    endloop
  endfacet
  facet normal -0.207965 0.00258698 0.978133
    outer loop
      vertex 47.9326 -5.59039 18.6685
      vertex 47.6463 -5.61743 18.6077
      vertex 47.7446 -5.61743 18.6286
    endloop
  endfacet
  facet normal 0.865964 -0 0.500107
    outer loop
      vertex 46.221 -5.33266 19.4306
      vertex 46.3674 0.599491 19.1771
      vertex 46.221 0.53266 19.4306
    endloop
  endfacet
  facet normal 0.865964 0 0.500107
    outer loop
      vertex 46.3674 0.599491 19.1771
      vertex 46.221 -5.33266 19.4306
      vertex 46.3674 -5.39949 19.1771
    endloop
  endfacet
  facet normal 0.99452 -0 0.104543
    outer loop
      vertex 46.1 -5.27738 20
      vertex 46.1306 0.491356 19.7089
      vertex 46.1 0.477385 20
    endloop
  endfacet
  facet normal 0.99452 0 0.104543
    outer loop
      vertex 46.1306 0.491356 19.7089
      vertex 46.1 -5.27738 20
      vertex 46.1306 -5.29136 19.7089
    endloop
  endfacet
  facet normal 0.865964 0 -0.500107
    outer loop
      vertex 46.3674 0.599491 20.8229
      vertex 46.221 -5.33266 20.5694
      vertex 46.221 0.53266 20.5694
    endloop
  endfacet
  facet normal 0.865964 0 -0.500107
    outer loop
      vertex 46.221 -5.33266 20.5694
      vertex 46.3674 0.599491 20.8229
      vertex 46.3674 -5.39949 20.8229
    endloop
  endfacet
  facet normal 0 0 -1
    outer loop
      vertex 47.3537 -5.61743 51.3923
      vertex 47.6463 0.817429 51.3923
      vertex 47.6463 -5.61743 51.3923
    endloop
  endfacet
  facet normal -0 0 -1
    outer loop
      vertex 47.6463 0.817429 51.3923
      vertex 47.3537 -5.61743 51.3923
      vertex 47.3537 0.817429 51.3923
    endloop
  endfacet
  facet normal -0.951082 0 -0.308939
    outer loop
      vertex 48.8694 -5.4557 50.2911
      vertex 48.779 0.668708 50.5694
      vertex 48.8694 0.655704 50.2911
    endloop
  endfacet
  facet normal -0.951082 -0 -0.308939
    outer loop
      vertex 48.779 0.668708 50.5694
      vertex 48.8694 -5.4557 50.2911
      vertex 48.779 -5.46871 50.5694
    endloop
  endfacet
  facet normal -0.99452 0 -0.104543
    outer loop
      vertex 48.9 -5.45131 50
      vertex 48.8694 0.655704 50.2911
      vertex 48.9 0.651305 50
    endloop
  endfacet
  facet normal -0.99452 -0 -0.104543
    outer loop
      vertex 48.8694 0.655704 50.2911
      vertex 48.9 -5.45131 50
      vertex 48.8694 -5.4557 50.2911
    endloop
  endfacet
  facet normal 0.587684 0 0.809091
    outer loop
      vertex 46.5632 0.688929 48.9596
      vertex 46.8 -5.59706 48.7876
      vertex 46.8 0.797064 48.7876
    endloop
  endfacet
  facet normal 0.587684 0 0.809091
    outer loop
      vertex 46.8 -5.59706 48.7876
      vertex 46.5632 0.688929 48.9596
      vertex 46.5632 -5.48893 48.9596
    endloop
  endfacet
  facet normal -0.743209 0 -0.669059
    outer loop
      vertex 48.6326 -5.48975 50.8229
      vertex 48.4368 0.717906 51.0404
      vertex 48.6326 0.689748 50.8229
    endloop
  endfacet
  facet normal -0.743209 -0 -0.669059
    outer loop
      vertex 48.4368 0.717906 51.0404
      vertex 48.6326 -5.48975 50.8229
      vertex 48.4368 -5.51791 51.0404
    endloop
  endfacet
  facet normal 0.743209 0 -0.669059
    outer loop
      vertex 46.5632 0.688929 51.0404
      vertex 46.3674 -5.39949 50.8229
      vertex 46.3674 0.599491 50.8229
    endloop
  endfacet
  facet normal 0.743209 0 -0.669059
    outer loop
      vertex 46.3674 -5.39949 50.8229
      vertex 46.5632 0.688929 51.0404
      vertex 46.5632 -5.48893 51.0404
    endloop
  endfacet
  facet normal -0.865964 0 -0.500107
    outer loop
      vertex 48.779 -5.46871 50.5694
      vertex 48.6326 0.689748 50.8229
      vertex 48.779 0.668708 50.5694
    endloop
  endfacet
  facet normal -0.865964 -0 -0.500107
    outer loop
      vertex 48.6326 0.689748 50.8229
      vertex 48.779 -5.46871 50.5694
      vertex 48.6326 -5.48975 50.8229
    endloop
  endfacet
  facet normal 0.204377 0.0079672 0.97886
    outer loop
      vertex 47.3206 0.806493 48.6147
      vertex 47.3537 0.817429 48.6077
      vertex 47.3446 0.817429 48.6096
    endloop
  endfacet
  facet normal 0.206904 0 0.978361
    outer loop
      vertex 47.3537 0.817429 48.6077
      vertex 47.3206 0.806493 48.6147
      vertex 47.3537 -5.61743 48.6077
    endloop
  endfacet
  facet normal 0.206904 -0 0.978361
    outer loop
      vertex 47.3206 -5.60649 48.6147
      vertex 47.3537 -5.61743 48.6077
      vertex 47.3206 0.806493 48.6147
    endloop
  endfacet
  facet normal 0.204377 -0.00796428 0.97886
    outer loop
      vertex 47.3537 -5.61743 48.6077
      vertex 47.3206 -5.60649 48.6147
      vertex 47.3446 -5.61743 48.6096
    endloop
  endfacet
  facet normal 0.207564 -0.00658238 0.978199
    outer loop
      vertex 47.0674 0.817429 48.6685
      vertex 47.3206 0.806493 48.6147
      vertex 47.2446 0.817429 48.6309
    endloop
  endfacet
  facet normal 0.20784 0 0.978163
    outer loop
      vertex 47.3206 0.806493 48.6147
      vertex 47.0674 0.817429 48.6685
      vertex 47.3206 -5.60649 48.6147
    endloop
  endfacet
  facet normal 0.20784 -0 0.978163
    outer loop
      vertex 47.0674 -5.61743 48.6685
      vertex 47.3206 -5.60649 48.6147
      vertex 47.0674 0.817429 48.6685
    endloop
  endfacet
  facet normal 0.207564 0.00657997 0.978199
    outer loop
      vertex 47.3206 -5.60649 48.6147
      vertex 47.0674 -5.61743 48.6685
      vertex 47.2446 -5.61743 48.6309
    endloop
  endfacet
  facet normal 0.951082 0 -0.308939
    outer loop
      vertex 46.221 0.53266 50.5694
      vertex 46.1306 -5.29136 50.2911
      vertex 46.1306 0.491356 50.2911
    endloop
  endfacet
  facet normal 0.951082 0 -0.308939
    outer loop
      vertex 46.1306 -5.29136 50.2911
      vertex 46.221 0.53266 50.5694
      vertex 46.221 -5.33266 50.5694
    endloop
  endfacet
  facet normal 0.587684 0 -0.809091
    outer loop
      vertex 46.5632 -5.48893 51.0404
      vertex 46.8 0.797064 51.2124
      vertex 46.8 -5.59706 51.2124
    endloop
  endfacet
  facet normal 0.587684 0 -0.809091
    outer loop
      vertex 46.8 0.797064 51.2124
      vertex 46.5632 -5.48893 51.0404
      vertex 46.5632 0.688929 51.0404
    endloop
  endfacet
  facet normal -0.587684 0 0.809091
    outer loop
      vertex 48.2 0.751951 48.7876
      vertex 48.4368 -5.51791 48.9596
      vertex 48.4368 0.717906 48.9596
    endloop
  endfacet
  facet normal -0.587684 0 0.809091
    outer loop
      vertex 48.4368 -5.51791 48.9596
      vertex 48.2 0.751951 48.7876
      vertex 48.2 -5.55195 48.7876
    endloop
  endfacet
  facet normal -0.743209 0 0.669059
    outer loop
      vertex 48.4368 0.717906 48.9596
      vertex 48.6326 -5.48975 49.1771
      vertex 48.6326 0.689748 49.1771
    endloop
  endfacet
  facet normal -0.743209 0 0.669059
    outer loop
      vertex 48.6326 -5.48975 49.1771
      vertex 48.4368 0.717906 48.9596
      vertex 48.4368 -5.51791 48.9596
    endloop
  endfacet
  facet normal 0.99452 0 -0.104543
    outer loop
      vertex 46.1306 0.491356 50.2911
      vertex 46.1 -5.27738 50
      vertex 46.1 0.477385 50
    endloop
  endfacet
  facet normal 0.99452 0 -0.104543
    outer loop
      vertex 46.1 -5.27738 50
      vertex 46.1306 0.491356 50.2911
      vertex 46.1306 -5.29136 50.2911
    endloop
  endfacet
  facet normal -0.951082 0 0.308939
    outer loop
      vertex 48.779 0.668708 49.4306
      vertex 48.8694 -5.4557 49.7089
      vertex 48.8694 0.655704 49.7089
    endloop
  endfacet
  facet normal -0.951082 0 0.308939
    outer loop
      vertex 48.8694 -5.4557 49.7089
      vertex 48.779 0.668708 49.4306
      vertex 48.779 -5.46871 49.4306
    endloop
  endfacet
  facet normal 0.951082 -0 0.308939
    outer loop
      vertex 46.1306 -5.29136 49.7089
      vertex 46.221 0.53266 49.4306
      vertex 46.1306 0.491356 49.7089
    endloop
  endfacet
  facet normal 0.951082 0 0.308939
    outer loop
      vertex 46.221 0.53266 49.4306
      vertex 46.1306 -5.29136 49.7089
      vertex 46.221 -5.33266 49.4306
    endloop
  endfacet
  facet normal -0.406867 0 -0.913487
    outer loop
      vertex 47.9326 -5.59039 51.3315
      vertex 48.2 0.751951 51.2124
      vertex 48.2 -5.55195 51.2124
    endloop
  endfacet
  facet normal -0.406867 0 -0.913487
    outer loop
      vertex 48.2 0.751951 51.2124
      vertex 47.9326 -5.59039 51.3315
      vertex 47.9326 0.790394 51.3315
    endloop
  endfacet
  facet normal -0.207965 0.00258698 -0.978133
    outer loop
      vertex 47.6463 -5.61743 51.3923
      vertex 47.9326 -5.59039 51.3315
      vertex 47.7446 -5.61743 51.3714
    endloop
  endfacet
  facet normal -0.207732 0 -0.978186
    outer loop
      vertex 47.9326 -5.59039 51.3315
      vertex 47.6463 -5.61743 51.3923
      vertex 47.9326 0.790394 51.3315
    endloop
  endfacet
  facet normal -0.207732 -0 -0.978186
    outer loop
      vertex 47.6463 0.817429 51.3923
      vertex 47.9326 0.790394 51.3315
      vertex 47.6463 -5.61743 51.3923
    endloop
  endfacet
  facet normal -0.207965 -0.00258746 -0.978133
    outer loop
      vertex 47.9326 0.790394 51.3315
      vertex 47.6463 0.817429 51.3923
      vertex 47.7446 0.817429 51.3714
    endloop
  endfacet
  facet normal -0.99452 0 0.104543
    outer loop
      vertex 48.8694 0.655704 49.7089
      vertex 48.9 -5.45131 50
      vertex 48.9 0.651305 50
    endloop
  endfacet
  facet normal -0.99452 0 0.104543
    outer loop
      vertex 48.9 -5.45131 50
      vertex 48.8694 0.655704 49.7089
      vertex 48.8694 -5.4557 49.7089
    endloop
  endfacet
  facet normal 0.204377 -0.00796428 -0.97886
    outer loop
      vertex 47.3206 -5.60649 51.3853
      vertex 47.3537 -5.61743 51.3923
      vertex 47.3446 -5.61743 51.3904
    endloop
  endfacet
  facet normal 0.206904 0 -0.978361
    outer loop
      vertex 47.3537 -5.61743 51.3923
      vertex 47.3206 -5.60649 51.3853
      vertex 47.3537 0.817429 51.3923
    endloop
  endfacet
  facet normal 0.206904 0 -0.978361
    outer loop
      vertex 47.3206 0.806493 51.3853
      vertex 47.3537 0.817429 51.3923
      vertex 47.3206 -5.60649 51.3853
    endloop
  endfacet
  facet normal 0.204377 0.0079672 -0.97886
    outer loop
      vertex 47.3537 0.817429 51.3923
      vertex 47.3206 0.806493 51.3853
      vertex 47.3446 0.817429 51.3904
    endloop
  endfacet
  facet normal 0.207564 0.00657997 -0.978199
    outer loop
      vertex 47.0674 -5.61743 51.3315
      vertex 47.3206 -5.60649 51.3853
      vertex 47.2446 -5.61743 51.3691
    endloop
  endfacet
  facet normal 0.20784 0 -0.978163
    outer loop
      vertex 47.3206 -5.60649 51.3853
      vertex 47.0674 -5.61743 51.3315
      vertex 47.3206 0.806493 51.3853
    endloop
  endfacet
  facet normal 0.20784 0 -0.978163
    outer loop
      vertex 47.0674 0.817429 51.3315
      vertex 47.3206 0.806493 51.3853
      vertex 47.0674 -5.61743 51.3315
    endloop
  endfacet
  facet normal 0.207564 -0.00658238 -0.978199
    outer loop
      vertex 47.3206 0.806493 51.3853
      vertex 47.0674 0.817429 51.3315
      vertex 47.2446 0.817429 51.3691
    endloop
  endfacet
  facet normal -0 0 1
    outer loop
      vertex 47.3537 0.817429 48.6077
      vertex 47.6463 -5.61743 48.6077
      vertex 47.6463 0.817429 48.6077
    endloop
  endfacet
  facet normal 0 0 1
    outer loop
      vertex 47.6463 -5.61743 48.6077
      vertex 47.3537 0.817429 48.6077
      vertex 47.3537 -5.61743 48.6077
    endloop
  endfacet
  facet normal 0.743209 -0 0.669059
    outer loop
      vertex 46.3674 -5.39949 49.1771
      vertex 46.5632 0.688929 48.9596
      vertex 46.3674 0.599491 49.1771
    endloop
  endfacet
  facet normal 0.743209 0 0.669059
    outer loop
      vertex 46.5632 0.688929 48.9596
      vertex 46.3674 -5.39949 49.1771
      vertex 46.5632 -5.48893 48.9596
    endloop
  endfacet
  facet normal 0.406746 -0.00189212 -0.913539
    outer loop
      vertex 46.8 -5.59706 51.2124
      vertex 47.0674 -5.61743 51.3315
      vertex 46.8446 -5.61743 51.2323
    endloop
  endfacet
  facet normal 0.406867 0 -0.913487
    outer loop
      vertex 47.0674 -5.61743 51.3315
      vertex 46.8 -5.59706 51.2124
      vertex 47.0674 0.817429 51.3315
    endloop
  endfacet
  facet normal 0.406867 0 -0.913487
    outer loop
      vertex 46.8 0.797064 51.2124
      vertex 47.0674 0.817429 51.3315
      vertex 46.8 -5.59706 51.2124
    endloop
  endfacet
  facet normal 0.406746 0.00189259 -0.913539
    outer loop
      vertex 47.0674 0.817429 51.3315
      vertex 46.8 0.797064 51.2124
      vertex 46.8446 0.817429 51.2323
    endloop
  endfacet
  facet normal -0.406867 0 0.913487
    outer loop
      vertex 47.9326 0.790394 48.6685
      vertex 48.2 -5.55195 48.7876
      vertex 48.2 0.751951 48.7876
    endloop
  endfacet
  facet normal -0.406867 0 0.913487
    outer loop
      vertex 48.2 -5.55195 48.7876
      vertex 47.9326 0.790394 48.6685
      vertex 47.9326 -5.59039 48.6685
    endloop
  endfacet
  facet normal -0.587684 0 -0.809091
    outer loop
      vertex 48.2 -5.55195 51.2124
      vertex 48.4368 0.717906 51.0404
      vertex 48.4368 -5.51791 51.0404
    endloop
  endfacet
  facet normal -0.587684 0 -0.809091
    outer loop
      vertex 48.4368 0.717906 51.0404
      vertex 48.2 -5.55195 51.2124
      vertex 48.2 0.751951 51.2124
    endloop
  endfacet
  facet normal -0.865964 0 0.500107
    outer loop
      vertex 48.6326 0.689748 49.1771
      vertex 48.779 -5.46871 49.4306
      vertex 48.779 0.668708 49.4306
    endloop
  endfacet
  facet normal -0.865964 0 0.500107
    outer loop
      vertex 48.779 -5.46871 49.4306
      vertex 48.6326 0.689748 49.1771
      vertex 48.6326 -5.48975 49.1771
    endloop
  endfacet
  facet normal -0.207965 -0.00258746 0.978133
    outer loop
      vertex 47.6463 0.817429 48.6077
      vertex 47.9326 0.790394 48.6685
      vertex 47.7446 0.817429 48.6286
    endloop
  endfacet
  facet normal -0.207732 0 0.978186
    outer loop
      vertex 47.9326 0.790394 48.6685
      vertex 47.6463 0.817429 48.6077
      vertex 47.9326 -5.59039 48.6685
    endloop
  endfacet
  facet normal -0.207732 0 0.978186
    outer loop
      vertex 47.6463 -5.61743 48.6077
      vertex 47.9326 -5.59039 48.6685
      vertex 47.6463 0.817429 48.6077
    endloop
  endfacet
  facet normal -0.207965 0.00258698 0.978133
    outer loop
      vertex 47.9326 -5.59039 48.6685
      vertex 47.6463 -5.61743 48.6077
      vertex 47.7446 -5.61743 48.6286
    endloop
  endfacet
  facet normal 0.865964 -0 0.500107
    outer loop
      vertex 46.221 -5.33266 49.4306
      vertex 46.3674 0.599491 49.1771
      vertex 46.221 0.53266 49.4306
    endloop
  endfacet
  facet normal 0.865964 0 0.500107
    outer loop
      vertex 46.3674 0.599491 49.1771
      vertex 46.221 -5.33266 49.4306
      vertex 46.3674 -5.39949 49.1771
    endloop
  endfacet
  facet normal 0.406746 0.00189259 0.913539
    outer loop
      vertex 46.8 0.797064 48.7876
      vertex 47.0674 0.817429 48.6685
      vertex 46.8446 0.817429 48.7677
    endloop
  endfacet
  facet normal 0.406867 0 0.913487
    outer loop
      vertex 47.0674 0.817429 48.6685
      vertex 46.8 0.797064 48.7876
      vertex 47.0674 -5.61743 48.6685
    endloop
  endfacet
  facet normal 0.406867 -0 0.913487
    outer loop
      vertex 46.8 -5.59706 48.7876
      vertex 47.0674 -5.61743 48.6685
      vertex 46.8 0.797064 48.7876
    endloop
  endfacet
  facet normal 0.406746 -0.00189212 0.913539
    outer loop
      vertex 47.0674 -5.61743 48.6685
      vertex 46.8 -5.59706 48.7876
      vertex 46.8446 -5.61743 48.7677
    endloop
  endfacet
  facet normal 0.99452 -0 0.104543
    outer loop
      vertex 46.1 -5.27738 50
      vertex 46.1306 0.491356 49.7089
      vertex 46.1 0.477385 50
    endloop
  endfacet
  facet normal 0.99452 0 0.104543
    outer loop
      vertex 46.1306 0.491356 49.7089
      vertex 46.1 -5.27738 50
      vertex 46.1306 -5.29136 49.7089
    endloop
  endfacet
  facet normal 0.865964 0 -0.500107
    outer loop
      vertex 46.3674 0.599491 50.8229
      vertex 46.221 -5.33266 50.5694
      vertex 46.221 0.53266 50.5694
    endloop
  endfacet
  facet normal 0.865964 0 -0.500107
    outer loop
      vertex 46.221 -5.33266 50.5694
      vertex 46.3674 0.599491 50.8229
      vertex 46.3674 -5.39949 50.8229
    endloop
  endfacet
endsolid OpenSCAD_Model
