solid OpenSCAD_Model
  facet normal 1 -0 0
    outer loop
      vertex 35.5 19 -1.5
      vertex 35.5 61 -18.5
      vertex 35.5 61 -1.5
    endloop
  endfacet
  facet normal 1 0 0
    outer loop
      vertex 35.5 61 -18.5
      vertex 35.5 19 -1.5
      vertex 35.5 19 -18.5
    endloop
  endfacet
  facet normal -0 0 1
    outer loop
      vertex 29.747 26.0637 -1.5
      vertex 35.5 19 -1.5
      vertex 29.747 53.9363 -1.5
    endloop
  endfacet
  facet normal 0 0 1
    outer loop
      vertex 35.5 19 -1.5
      vertex 29.747 26.0637 -1.5
      vertex 30.5 24.5 -1.5
    endloop
  endfacet
  facet normal -0 0 1
    outer loop
      vertex 28.055 53.5501 -1.5
      vertex 29.747 26.0637 -1.5
      vertex 29.747 53.9363 -1.5
    endloop
  endfacet
  facet normal 0 0 1
    outer loop
      vertex 28.055 53.5501 -1.5
      vertex 28.055 26.4499 -1.5
      vertex 29.747 26.0637 -1.5
    endloop
  endfacet
  facet normal 0 0 1
    outer loop
      vertex 26.6981 54.6322 -1.5
      vertex 28.055 26.4499 -1.5
      vertex 28.055 53.5501 -1.5
    endloop
  endfacet
  facet normal 0 0 1
    outer loop
      vertex 28.055 26.4499 -1.5
      vertex 26.6981 54.6322 -1.5
      vertex 26.6981 25.3678 -1.5
    endloop
  endfacet
  facet normal 0 0 1
    outer loop
      vertex 29.747 53.9363 -1.5
      vertex 35.5 61 -1.5
      vertex 30.5 55.5 -1.5
    endloop
  endfacet
  facet normal 0 0 1
    outer loop
      vertex 35.5 61 -1.5
      vertex 29.747 57.0637 -1.5
      vertex 30.5 55.5 -1.5
    endloop
  endfacet
  facet normal 0 0 1
    outer loop
      vertex 35.5 61 -1.5
      vertex 28.055 57.4499 -1.5
      vertex 29.747 57.0637 -1.5
    endloop
  endfacet
  facet normal 0 0 1
    outer loop
      vertex 10 61 -1.5
      vertex 26.6981 54.6322 -1.5
      vertex 26.6981 56.3678 -1.5
    endloop
  endfacet
  facet normal 0 0 1
    outer loop
      vertex 26.6981 54.6322 -1.5
      vertex 10 61 -1.5
      vertex 26.6981 25.3678 -1.5
    endloop
  endfacet
  facet normal 0 0 1
    outer loop
      vertex 10 19 -1.5
      vertex 26.6981 25.3678 -1.5
      vertex 10 61 -1.5
    endloop
  endfacet
  facet normal 0 0 1
    outer loop
      vertex 28.055 57.4499 -1.5
      vertex 10 61 -1.5
      vertex 26.6981 56.3678 -1.5
    endloop
  endfacet
  facet normal -0 0 1
    outer loop
      vertex 10 61 -1.5
      vertex 28.055 57.4499 -1.5
      vertex 35.5 61 -1.5
    endloop
  endfacet
  facet normal 0 0 1
    outer loop
      vertex 35.5 61 -1.5
      vertex 29.747 53.9363 -1.5
      vertex 35.5 19 -1.5
    endloop
  endfacet
  facet normal -0 0 1
    outer loop
      vertex 29.747 22.9363 -1.5
      vertex 35.5 19 -1.5
      vertex 30.5 24.5 -1.5
    endloop
  endfacet
  facet normal -0 0 1
    outer loop
      vertex 28.055 22.5501 -1.5
      vertex 35.5 19 -1.5
      vertex 29.747 22.9363 -1.5
    endloop
  endfacet
  facet normal 0 0 1
    outer loop
      vertex 28.055 22.5501 -1.5
      vertex 10 19 -1.5
      vertex 35.5 19 -1.5
    endloop
  endfacet
  facet normal 0 0 1
    outer loop
      vertex 26.6981 23.6322 -1.5
      vertex 10 19 -1.5
      vertex 28.055 22.5501 -1.5
    endloop
  endfacet
  facet normal 0 0 1
    outer loop
      vertex 26.6981 25.3678 -1.5
      vertex 10 19 -1.5
      vertex 26.6981 23.6322 -1.5
    endloop
  endfacet
  facet normal -0 0 -1
    outer loop
      vertex 23.8538 23.5124 -18.5
      vertex 17.075 6.96817 -18.5
      vertex 23.8538 25.4876 -18.5
    endloop
  endfacet
  facet normal 0 0 -1
    outer loop
      vertex 23.8538 54.5124 -18.5
      vertex 20.6832 74.6681 -18.5
      vertex 21.35 76.5 -18.5
    endloop
  endfacet
  facet normal 0 0 -1
    outer loop
      vertex 15.8219 5.47476 -18.5
      vertex 23.8538 25.4876 -18.5
      vertex 17.075 6.96817 -18.5
    endloop
  endfacet
  facet normal 0 0 -1
    outer loop
      vertex 23.8538 54.5124 -18.5
      vertex 18.9949 73.6933 -18.5
      vertex 20.6832 74.6681 -18.5
    endloop
  endfacet
  facet normal -0 0 -1
    outer loop
      vertex 23.8538 25.4876 -18.5
      vertex 15.8219 5.47476 -18.5
      vertex 23.8538 54.5124 -18.5
    endloop
  endfacet
  facet normal 0 0 -1
    outer loop
      vertex 23.8538 54.5124 -18.5
      vertex 17.075 74.0318 -18.5
      vertex 18.9949 73.6933 -18.5
    endloop
  endfacet
  facet normal 0 0 -1
    outer loop
      vertex 15.8219 75.5252 -18.5
      vertex 23.8538 54.5124 -18.5
      vertex 15.8219 5.47476 -18.5
    endloop
  endfacet
  facet normal 0 0 -1
    outer loop
      vertex 23.8538 54.5124 -18.5
      vertex 15.8219 75.5252 -18.5
      vertex 17.075 74.0318 -18.5
    endloop
  endfacet
  facet normal 0 0 -1
    outer loop
      vertex 21.35 4.5 -18.5
      vertex 28 19 -18.5
      vertex 28 -6 -18.5
    endloop
  endfacet
  facet normal 0 0 -1
    outer loop
      vertex 20.6832 6.33194 -18.5
      vertex 28 19 -18.5
      vertex 21.35 4.5 -18.5
    endloop
  endfacet
  facet normal 0 0 -1
    outer loop
      vertex 18.9949 7.3067 -18.5
      vertex 28 19 -18.5
      vertex 20.6832 6.33194 -18.5
    endloop
  endfacet
  facet normal -0 0 -1
    outer loop
      vertex 26.125 20.3864 -18.5
      vertex 18.9949 7.3067 -18.5
      vertex 24.6572 21.708 -18.5
    endloop
  endfacet
  facet normal 0 0 -1
    outer loop
      vertex 17.075 6.96817 -18.5
      vertex 24.6572 21.708 -18.5
      vertex 18.9949 7.3067 -18.5
    endloop
  endfacet
  facet normal -0 0 -1
    outer loop
      vertex 24.6572 21.708 -18.5
      vertex 17.075 6.96817 -18.5
      vertex 23.8538 23.5124 -18.5
    endloop
  endfacet
  facet normal -0 0 -1
    outer loop
      vertex 28 19 -18.5
      vertex 18.9949 7.3067 -18.5
      vertex 26.125 20.3864 -18.5
    endloop
  endfacet
  facet normal 0 0 -1
    outer loop
      vertex 28 -6 -18.5
      vertex 20.6832 2.66805 -18.5
      vertex 21.35 4.5 -18.5
    endloop
  endfacet
  facet normal 0 0 -1
    outer loop
      vertex 28 -6 -18.5
      vertex 18.9949 1.6933 -18.5
      vertex 20.6832 2.66805 -18.5
    endloop
  endfacet
  facet normal 0 0 -1
    outer loop
      vertex 10 -6 -18.5
      vertex 18.9949 1.6933 -18.5
      vertex 28 -6 -18.5
    endloop
  endfacet
  facet normal 0 0 -1
    outer loop
      vertex 10 -6 -18.5
      vertex 15.8219 5.47476 -18.5
      vertex 15.8219 3.52524 -18.5
    endloop
  endfacet
  facet normal 0 0 -1
    outer loop
      vertex 15.8219 5.47476 -18.5
      vertex 10 84 -18.5
      vertex 15.8219 75.5252 -18.5
    endloop
  endfacet
  facet normal -0 0 -1
    outer loop
      vertex 15.8219 5.47476 -18.5
      vertex 10 -6 -18.5
      vertex 10 84 -18.5
    endloop
  endfacet
  facet normal -0 0 -1
    outer loop
      vertex 17.075 2.03183 -18.5
      vertex 10 -6 -18.5
      vertex 15.8219 3.52524 -18.5
    endloop
  endfacet
  facet normal -0 0 -1
    outer loop
      vertex 18.9949 1.6933 -18.5
      vertex 10 -6 -18.5
      vertex 17.075 2.03183 -18.5
    endloop
  endfacet
  facet normal 0 0 -1
    outer loop
      vertex 32.8393 53.568 -18.5
      vertex 35.5 61 -18.5
      vertex 32.8393 26.432 -18.5
    endloop
  endfacet
  facet normal 0 0 -1
    outer loop
      vertex 35.5 61 -18.5
      vertex 32.8393 53.568 -18.5
      vertex 33.25 55.5 -18.5
    endloop
  endfacet
  facet normal 0 0 -1
    outer loop
      vertex 31.6784 28.0299 -18.5
      vertex 32.8393 53.568 -18.5
      vertex 32.8393 26.432 -18.5
    endloop
  endfacet
  facet normal 0 0 -1
    outer loop
      vertex 31.6784 28.0299 -18.5
      vertex 31.6784 51.9701 -18.5
      vertex 32.8393 53.568 -18.5
    endloop
  endfacet
  facet normal 0 0 -1
    outer loop
      vertex 29.9678 29.0175 -18.5
      vertex 31.6784 51.9701 -18.5
      vertex 31.6784 28.0299 -18.5
    endloop
  endfacet
  facet normal 0 0 -1
    outer loop
      vertex 29.9678 29.0175 -18.5
      vertex 29.9678 50.9825 -18.5
      vertex 31.6784 51.9701 -18.5
    endloop
  endfacet
  facet normal 0 0 -1
    outer loop
      vertex 28.0035 29.224 -18.5
      vertex 29.9678 50.9825 -18.5
      vertex 29.9678 29.0175 -18.5
    endloop
  endfacet
  facet normal 0 0 -1
    outer loop
      vertex 28.0035 29.224 -18.5
      vertex 28.0035 50.776 -18.5
      vertex 29.9678 50.9825 -18.5
    endloop
  endfacet
  facet normal 0 0 -1
    outer loop
      vertex 26.125 28.6136 -18.5
      vertex 28.0035 50.776 -18.5
      vertex 28.0035 29.224 -18.5
    endloop
  endfacet
  facet normal 0 0 -1
    outer loop
      vertex 26.125 28.6136 -18.5
      vertex 26.125 51.3864 -18.5
      vertex 28.0035 50.776 -18.5
    endloop
  endfacet
  facet normal 0 0 -1
    outer loop
      vertex 24.6572 27.292 -18.5
      vertex 26.125 51.3864 -18.5
      vertex 26.125 28.6136 -18.5
    endloop
  endfacet
  facet normal 0 0 -1
    outer loop
      vertex 24.6572 27.292 -18.5
      vertex 24.6572 52.708 -18.5
      vertex 26.125 51.3864 -18.5
    endloop
  endfacet
  facet normal 0 0 -1
    outer loop
      vertex 23.8538 25.4876 -18.5
      vertex 24.6572 52.708 -18.5
      vertex 24.6572 27.292 -18.5
    endloop
  endfacet
  facet normal -0 0 -1
    outer loop
      vertex 24.6572 52.708 -18.5
      vertex 23.8538 25.4876 -18.5
      vertex 23.8538 54.5124 -18.5
    endloop
  endfacet
  facet normal 0 0 -1
    outer loop
      vertex 32.8393 26.432 -18.5
      vertex 35.5 19 -18.5
      vertex 33.25 24.5 -18.5
    endloop
  endfacet
  facet normal 0 0 -1
    outer loop
      vertex 35.5 19 -18.5
      vertex 32.8393 22.568 -18.5
      vertex 33.25 24.5 -18.5
    endloop
  endfacet
  facet normal 0 0 -1
    outer loop
      vertex 35.5 19 -18.5
      vertex 31.6784 20.9701 -18.5
      vertex 32.8393 22.568 -18.5
    endloop
  endfacet
  facet normal 0 0 -1
    outer loop
      vertex 35.5 19 -18.5
      vertex 29.9678 19.9825 -18.5
      vertex 31.6784 20.9701 -18.5
    endloop
  endfacet
  facet normal 0 0 -1
    outer loop
      vertex 28 19 -18.5
      vertex 29.9678 19.9825 -18.5
      vertex 35.5 19 -18.5
    endloop
  endfacet
  facet normal 0 0 -1
    outer loop
      vertex 29.9678 19.9825 -18.5
      vertex 28 19 -18.5
      vertex 28.0035 19.776 -18.5
    endloop
  endfacet
  facet normal -0 0 -1
    outer loop
      vertex 28.0035 19.776 -18.5
      vertex 28 19 -18.5
      vertex 26.125 20.3864 -18.5
    endloop
  endfacet
  facet normal 0 0 -1
    outer loop
      vertex 35.5 19 -18.5
      vertex 32.8393 26.432 -18.5
      vertex 35.5 61 -18.5
    endloop
  endfacet
  facet normal 0 0 -1
    outer loop
      vertex 32.8393 57.432 -18.5
      vertex 35.5 61 -18.5
      vertex 33.25 55.5 -18.5
    endloop
  endfacet
  facet normal 0 0 -1
    outer loop
      vertex 31.6784 59.0299 -18.5
      vertex 35.5 61 -18.5
      vertex 32.8393 57.432 -18.5
    endloop
  endfacet
  facet normal 0 0 -1
    outer loop
      vertex 29.9678 60.0175 -18.5
      vertex 35.5 61 -18.5
      vertex 31.6784 59.0299 -18.5
    endloop
  endfacet
  facet normal 0 0 -1
    outer loop
      vertex 28 61 -18.5
      vertex 29.9678 60.0175 -18.5
      vertex 28.0035 60.224 -18.5
    endloop
  endfacet
  facet normal 0 0 -1
    outer loop
      vertex 29.9678 60.0175 -18.5
      vertex 28 61 -18.5
      vertex 35.5 61 -18.5
    endloop
  endfacet
  facet normal 0 0 -1
    outer loop
      vertex 26.125 59.6136 -18.5
      vertex 28 61 -18.5
      vertex 28.0035 60.224 -18.5
    endloop
  endfacet
  facet normal 0 0 -1
    outer loop
      vertex 21.35 76.5 -18.5
      vertex 28 61 -18.5
      vertex 26.125 59.6136 -18.5
    endloop
  endfacet
  facet normal 0 0 -1
    outer loop
      vertex 21.35 76.5 -18.5
      vertex 26.125 59.6136 -18.5
      vertex 24.6572 58.292 -18.5
    endloop
  endfacet
  facet normal 0 0 -1
    outer loop
      vertex 21.35 76.5 -18.5
      vertex 24.6572 58.292 -18.5
      vertex 23.8538 56.4876 -18.5
    endloop
  endfacet
  facet normal 0 0 -1
    outer loop
      vertex 23.8538 54.5124 -18.5
      vertex 21.35 76.5 -18.5
      vertex 23.8538 56.4876 -18.5
    endloop
  endfacet
  facet normal 0 0 -1
    outer loop
      vertex 28 61 -18.5
      vertex 21.35 76.5 -18.5
      vertex 28 84 -18.5
    endloop
  endfacet
  facet normal 0 0 -1
    outer loop
      vertex 20.6832 78.3319 -18.5
      vertex 28 84 -18.5
      vertex 21.35 76.5 -18.5
    endloop
  endfacet
  facet normal 0 0 -1
    outer loop
      vertex 18.9949 79.3067 -18.5
      vertex 28 84 -18.5
      vertex 20.6832 78.3319 -18.5
    endloop
  endfacet
  facet normal 0 0 -1
    outer loop
      vertex 10 84 -18.5
      vertex 18.9949 79.3067 -18.5
      vertex 17.075 78.9682 -18.5
    endloop
  endfacet
  facet normal 0 0 -1
    outer loop
      vertex 18.9949 79.3067 -18.5
      vertex 10 84 -18.5
      vertex 28 84 -18.5
    endloop
  endfacet
  facet normal 0 0 -1
    outer loop
      vertex 15.8219 77.4748 -18.5
      vertex 10 84 -18.5
      vertex 17.075 78.9682 -18.5
    endloop
  endfacet
  facet normal 0 0 -1
    outer loop
      vertex 15.8219 75.5252 -18.5
      vertex 10 84 -18.5
      vertex 15.8219 77.4748 -18.5
    endloop
  endfacet
  facet normal -1 0 0
    outer loop
      vertex 10 84 -18.5
      vertex 10 61 -12.5
      vertex 10 84 -12.5
    endloop
  endfacet
  facet normal -1 0 0
    outer loop
      vertex 10 61 -12.5
      vertex 10 19 -12.5
      vertex 10 61 -1.5
    endloop
  endfacet
  facet normal -1 0 0
    outer loop
      vertex 10 84 -18.5
      vertex 10 19 -12.5
      vertex 10 61 -12.5
    endloop
  endfacet
  facet normal -1 0 0
    outer loop
      vertex 10 -6 -18.5
      vertex 10 19 -12.5
      vertex 10 84 -18.5
    endloop
  endfacet
  facet normal -1 -0 0
    outer loop
      vertex 10 19 -12.5
      vertex 10 -6 -18.5
      vertex 10 -6 -12.5
    endloop
  endfacet
  facet normal -1 -0 0
    outer loop
      vertex 10 61 -1.5
      vertex 10 19 -12.5
      vertex 10 19 -1.5
    endloop
  endfacet
  facet normal 0 1 0
    outer loop
      vertex 35.5 61 -1.5
      vertex 28 61 -12.5
      vertex 10 61 -1.5
    endloop
  endfacet
  facet normal 0 1 -0
    outer loop
      vertex 35.5 61 -18.5
      vertex 28 61 -12.5
      vertex 35.5 61 -1.5
    endloop
  endfacet
  facet normal 0 1 0
    outer loop
      vertex 28 61 -12.5
      vertex 35.5 61 -18.5
      vertex 28 61 -18.5
    endloop
  endfacet
  facet normal 0 1 0
    outer loop
      vertex 10 61 -1.5
      vertex 28 61 -12.5
      vertex 10 61 -12.5
    endloop
  endfacet
  facet normal 0 -1 0
    outer loop
      vertex 28 19 -12.5
      vertex 10 19 -1.5
      vertex 10 19 -12.5
    endloop
  endfacet
  facet normal 0 -1 0
    outer loop
      vertex 10 19 -1.5
      vertex 28 19 -12.5
      vertex 35.5 19 -1.5
    endloop
  endfacet
  facet normal 0 -1 0
    outer loop
      vertex 35.5 19 -18.5
      vertex 28 19 -12.5
      vertex 28 19 -18.5
    endloop
  endfacet
  facet normal 0 -1 0
    outer loop
      vertex 28 19 -12.5
      vertex 35.5 19 -18.5
      vertex 35.5 19 -1.5
    endloop
  endfacet
  facet normal 1 -0 0
    outer loop
      vertex 28 61 -12.5
      vertex 28 84 -18.5
      vertex 28 84 -12.5
    endloop
  endfacet
  facet normal 1 0 0
    outer loop
      vertex 28 84 -18.5
      vertex 28 61 -12.5
      vertex 28 61 -18.5
    endloop
  endfacet
  facet normal 1 -0 0
    outer loop
      vertex 28 -6 -12.5
      vertex 28 19 -18.5
      vertex 28 19 -12.5
    endloop
  endfacet
  facet normal 1 0 0
    outer loop
      vertex 28 19 -18.5
      vertex 28 -6 -12.5
      vertex 28 -6 -18.5
    endloop
  endfacet
  facet normal 0 0 1
    outer loop
      vertex 28 84 -12.5
      vertex 21.35 76.5 -12.5
      vertex 28 61 -12.5
    endloop
  endfacet
  facet normal 0 0 1
    outer loop
      vertex 28 84 -12.5
      vertex 20.6832 78.3319 -12.5
      vertex 21.35 76.5 -12.5
    endloop
  endfacet
  facet normal 0 0 1
    outer loop
      vertex 28 84 -12.5
      vertex 18.9949 79.3067 -12.5
      vertex 20.6832 78.3319 -12.5
    endloop
  endfacet
  facet normal -0 0 1
    outer loop
      vertex 10 84 -12.5
      vertex 18.9949 79.3067 -12.5
      vertex 28 84 -12.5
    endloop
  endfacet
  facet normal 0 0 1
    outer loop
      vertex 15.8219 77.4748 -12.5
      vertex 10 84 -12.5
      vertex 15.8219 75.5252 -12.5
    endloop
  endfacet
  facet normal 0 0 1
    outer loop
      vertex 17.075 78.9682 -12.5
      vertex 10 84 -12.5
      vertex 15.8219 77.4748 -12.5
    endloop
  endfacet
  facet normal 0 0 1
    outer loop
      vertex 18.9949 79.3067 -12.5
      vertex 10 84 -12.5
      vertex 17.075 78.9682 -12.5
    endloop
  endfacet
  facet normal -0 0 1
    outer loop
      vertex 20.6832 74.6681 -12.5
      vertex 28 61 -12.5
      vertex 21.35 76.5 -12.5
    endloop
  endfacet
  facet normal -0 0 1
    outer loop
      vertex 18.9949 73.6933 -12.5
      vertex 28 61 -12.5
      vertex 20.6832 74.6681 -12.5
    endloop
  endfacet
  facet normal 0 0 1
    outer loop
      vertex 10 61 -12.5
      vertex 18.9949 73.6933 -12.5
      vertex 17.075 74.0318 -12.5
    endloop
  endfacet
  facet normal 0 0 1
    outer loop
      vertex 10 61 -12.5
      vertex 17.075 74.0318 -12.5
      vertex 15.8219 75.5252 -12.5
    endloop
  endfacet
  facet normal 0 0 1
    outer loop
      vertex 18.9949 73.6933 -12.5
      vertex 10 61 -12.5
      vertex 28 61 -12.5
    endloop
  endfacet
  facet normal 0 0 1
    outer loop
      vertex 10 61 -12.5
      vertex 15.8219 75.5252 -12.5
      vertex 10 84 -12.5
    endloop
  endfacet
  facet normal 0 0 1
    outer loop
      vertex 28 19 -12.5
      vertex 21.35 4.5 -12.5
      vertex 28 -6 -12.5
    endloop
  endfacet
  facet normal 0 0 1
    outer loop
      vertex 28 19 -12.5
      vertex 20.6832 6.33194 -12.5
      vertex 21.35 4.5 -12.5
    endloop
  endfacet
  facet normal 0 0 1
    outer loop
      vertex 28 19 -12.5
      vertex 18.9949 7.3067 -12.5
      vertex 20.6832 6.33194 -12.5
    endloop
  endfacet
  facet normal -0 0 1
    outer loop
      vertex 10 19 -12.5
      vertex 18.9949 7.3067 -12.5
      vertex 28 19 -12.5
    endloop
  endfacet
  facet normal 0 0 1
    outer loop
      vertex 10 -6 -12.5
      vertex 15.8219 5.47476 -12.5
      vertex 10 19 -12.5
    endloop
  endfacet
  facet normal 0 0 1
    outer loop
      vertex 17.075 6.96817 -12.5
      vertex 10 19 -12.5
      vertex 15.8219 5.47476 -12.5
    endloop
  endfacet
  facet normal 0 0 1
    outer loop
      vertex 18.9949 7.3067 -12.5
      vertex 10 19 -12.5
      vertex 17.075 6.96817 -12.5
    endloop
  endfacet
  facet normal -0 0 1
    outer loop
      vertex 20.6832 2.66805 -12.5
      vertex 28 -6 -12.5
      vertex 21.35 4.5 -12.5
    endloop
  endfacet
  facet normal -0 0 1
    outer loop
      vertex 18.9949 1.6933 -12.5
      vertex 28 -6 -12.5
      vertex 20.6832 2.66805 -12.5
    endloop
  endfacet
  facet normal 0 0 1
    outer loop
      vertex 10 -6 -12.5
      vertex 18.9949 1.6933 -12.5
      vertex 17.075 2.03183 -12.5
    endloop
  endfacet
  facet normal 0 0 1
    outer loop
      vertex 18.9949 1.6933 -12.5
      vertex 10 -6 -12.5
      vertex 28 -6 -12.5
    endloop
  endfacet
  facet normal 0 0 1
    outer loop
      vertex 15.8219 3.52524 -12.5
      vertex 10 -6 -12.5
      vertex 17.075 2.03183 -12.5
    endloop
  endfacet
  facet normal 0 0 1
    outer loop
      vertex 15.8219 5.47476 -12.5
      vertex 10 -6 -12.5
      vertex 15.8219 3.52524 -12.5
    endloop
  endfacet
  facet normal 0 1 -0
    outer loop
      vertex 28 84 -18.5
      vertex 10 84 -12.5
      vertex 28 84 -12.5
    endloop
  endfacet
  facet normal 0 1 0
    outer loop
      vertex 10 84 -12.5
      vertex 28 84 -18.5
      vertex 10 84 -18.5
    endloop
  endfacet
  facet normal 0 -1 0
    outer loop
      vertex 10 -6 -18.5
      vertex 28 -6 -12.5
      vertex 10 -6 -12.5
    endloop
  endfacet
  facet normal 0 -1 -0
    outer loop
      vertex 28 -6 -12.5
      vertex 10 -6 -18.5
      vertex 28 -6 -18.5
    endloop
  endfacet
  facet normal -0.222528 -0.974926 0
    outer loop
      vertex 28.055 57.4499 -4.5
      vertex 29.747 57.0637 -1.5
      vertex 28.055 57.4499 -1.5
    endloop
  endfacet
  facet normal -0.222528 -0.974926 -0
    outer loop
      vertex 29.747 57.0637 -1.5
      vertex 28.055 57.4499 -4.5
      vertex 29.747 57.0637 -4.5
    endloop
  endfacet
  facet normal -0.900977 -0.433866 0
    outer loop
      vertex 30.5 55.5 -4.5
      vertex 29.747 57.0637 -1.5
      vertex 29.747 57.0637 -4.5
    endloop
  endfacet
  facet normal -0.900977 -0.433866 0
    outer loop
      vertex 29.747 57.0637 -1.5
      vertex 30.5 55.5 -4.5
      vertex 30.5 55.5 -1.5
    endloop
  endfacet
  facet normal -0.900977 0.433866 0
    outer loop
      vertex 29.747 53.9363 -4.5
      vertex 30.5 55.5 -1.5
      vertex 30.5 55.5 -4.5
    endloop
  endfacet
  facet normal -0.900977 0.433866 0
    outer loop
      vertex 30.5 55.5 -1.5
      vertex 29.747 53.9363 -4.5
      vertex 29.747 53.9363 -1.5
    endloop
  endfacet
  facet normal 0.623493 -0.781829 0
    outer loop
      vertex 26.6981 56.3678 -4.5
      vertex 28.055 57.4499 -1.5
      vertex 26.6981 56.3678 -1.5
    endloop
  endfacet
  facet normal 0.623493 -0.781829 0
    outer loop
      vertex 28.055 57.4499 -1.5
      vertex 26.6981 56.3678 -4.5
      vertex 28.055 57.4499 -4.5
    endloop
  endfacet
  facet normal 0.623493 0.781829 -0
    outer loop
      vertex 28.055 53.5501 -4.5
      vertex 26.6981 54.6322 -1.5
      vertex 28.055 53.5501 -1.5
    endloop
  endfacet
  facet normal 0.623493 0.781829 0
    outer loop
      vertex 26.6981 54.6322 -1.5
      vertex 28.055 53.5501 -4.5
      vertex 26.6981 54.6322 -4.5
    endloop
  endfacet
  facet normal -0.222528 0.974926 0
    outer loop
      vertex 29.747 53.9363 -4.5
      vertex 28.055 53.5501 -1.5
      vertex 29.747 53.9363 -1.5
    endloop
  endfacet
  facet normal -0.222528 0.974926 0
    outer loop
      vertex 28.055 53.5501 -1.5
      vertex 29.747 53.9363 -4.5
      vertex 28.055 53.5501 -4.5
    endloop
  endfacet
  facet normal 1 -0 0
    outer loop
      vertex 26.6981 54.6322 -1.5
      vertex 26.6981 56.3678 -4.5
      vertex 26.6981 56.3678 -1.5
    endloop
  endfacet
  facet normal 1 0 0
    outer loop
      vertex 26.6981 56.3678 -4.5
      vertex 26.6981 54.6322 -1.5
      vertex 26.6981 54.6322 -4.5
    endloop
  endfacet
  facet normal 0.309035 -0.951051 0
    outer loop
      vertex 26.125 59.6136 -18.5
      vertex 28.0035 60.224 -4.5
      vertex 26.125 59.6136 -4.5
    endloop
  endfacet
  facet normal 0.309035 -0.951051 0
    outer loop
      vertex 28.0035 60.224 -4.5
      vertex 26.125 59.6136 -18.5
      vertex 28.0035 60.224 -18.5
    endloop
  endfacet
  facet normal -0.809027 -0.587771 0
    outer loop
      vertex 32.8393 57.432 -18.5
      vertex 31.6784 59.0299 -4.5
      vertex 31.6784 59.0299 -18.5
    endloop
  endfacet
  facet normal -0.809027 -0.587771 0
    outer loop
      vertex 31.6784 59.0299 -4.5
      vertex 32.8393 57.432 -18.5
      vertex 32.8393 57.432 -4.5
    endloop
  endfacet
  facet normal -0.978143 -0.207931 0
    outer loop
      vertex 33.25 55.5 -18.5
      vertex 32.8393 57.432 -4.5
      vertex 32.8393 57.432 -18.5
    endloop
  endfacet
  facet normal -0.978143 -0.207931 0
    outer loop
      vertex 32.8393 57.432 -4.5
      vertex 33.25 55.5 -18.5
      vertex 33.25 55.5 -4.5
    endloop
  endfacet
  facet normal 0.91354 -0.406749 0
    outer loop
      vertex 23.8538 56.4876 -4.5
      vertex 24.6572 58.292 -18.5
      vertex 24.6572 58.292 -4.5
    endloop
  endfacet
  facet normal 0.91354 -0.406749 0
    outer loop
      vertex 24.6572 58.292 -18.5
      vertex 23.8538 56.4876 -4.5
      vertex 23.8538 56.4876 -18.5
    endloop
  endfacet
  facet normal 1 -0 0
    outer loop
      vertex 23.8538 54.5124 -4.5
      vertex 23.8538 56.4876 -18.5
      vertex 23.8538 56.4876 -4.5
    endloop
  endfacet
  facet normal 1 0 0
    outer loop
      vertex 23.8538 56.4876 -18.5
      vertex 23.8538 54.5124 -4.5
      vertex 23.8538 54.5124 -18.5
    endloop
  endfacet
  facet normal -0.978143 0.207931 0
    outer loop
      vertex 32.8393 53.568 -18.5
      vertex 33.25 55.5 -4.5
      vertex 33.25 55.5 -18.5
    endloop
  endfacet
  facet normal -0.978143 0.207931 0
    outer loop
      vertex 33.25 55.5 -4.5
      vertex 32.8393 53.568 -18.5
      vertex 32.8393 53.568 -4.5
    endloop
  endfacet
  facet normal 0.309035 0.951051 -0
    outer loop
      vertex 28.0035 50.776 -18.5
      vertex 26.125 51.3864 -4.5
      vertex 28.0035 50.776 -4.5
    endloop
  endfacet
  facet normal 0.309035 0.951051 0
    outer loop
      vertex 26.125 51.3864 -4.5
      vertex 28.0035 50.776 -18.5
      vertex 26.125 51.3864 -18.5
    endloop
  endfacet
  facet normal 0.669127 0.743148 -0
    outer loop
      vertex 26.125 51.3864 -18.5
      vertex 24.6572 52.708 -4.5
      vertex 26.125 51.3864 -4.5
    endloop
  endfacet
  facet normal 0.669127 0.743148 0
    outer loop
      vertex 24.6572 52.708 -4.5
      vertex 26.125 51.3864 -18.5
      vertex 24.6572 52.708 -18.5
    endloop
  endfacet
  facet normal -0.499994 0.866029 0
    outer loop
      vertex 31.6784 51.9701 -18.5
      vertex 29.9678 50.9825 -4.5
      vertex 31.6784 51.9701 -4.5
    endloop
  endfacet
  facet normal -0.499994 0.866029 0
    outer loop
      vertex 29.9678 50.9825 -4.5
      vertex 31.6784 51.9701 -18.5
      vertex 29.9678 50.9825 -18.5
    endloop
  endfacet
  facet normal 0 0 -1
    outer loop
      vertex 30.5 55.5 -4.5
      vertex 33.25 55.5 -4.5
      vertex 32.8393 53.568 -4.5
    endloop
  endfacet
  facet normal 0 0 -1
    outer loop
      vertex 29.747 53.9363 -4.5
      vertex 32.8393 53.568 -4.5
      vertex 31.6784 51.9701 -4.5
    endloop
  endfacet
  facet normal 0 0 -1
    outer loop
      vertex 33.25 55.5 -4.5
      vertex 30.5 55.5 -4.5
      vertex 32.8393 57.432 -4.5
    endloop
  endfacet
  facet normal 0 0 -1
    outer loop
      vertex 29.747 57.0637 -4.5
      vertex 32.8393 57.432 -4.5
      vertex 30.5 55.5 -4.5
    endloop
  endfacet
  facet normal 0 0 -1
    outer loop
      vertex 29.747 53.9363 -4.5
      vertex 31.6784 51.9701 -4.5
      vertex 29.9678 50.9825 -4.5
    endloop
  endfacet
  facet normal 0 0 -1
    outer loop
      vertex 32.8393 53.568 -4.5
      vertex 29.747 53.9363 -4.5
      vertex 30.5 55.5 -4.5
    endloop
  endfacet
  facet normal 0 0 -1
    outer loop
      vertex 29.9678 50.9825 -4.5
      vertex 28.055 53.5501 -4.5
      vertex 29.747 53.9363 -4.5
    endloop
  endfacet
  facet normal 0 0 -1
    outer loop
      vertex 28.0035 50.776 -4.5
      vertex 28.055 53.5501 -4.5
      vertex 29.9678 50.9825 -4.5
    endloop
  endfacet
  facet normal 0 0 -1
    outer loop
      vertex 26.125 51.3864 -4.5
      vertex 28.055 53.5501 -4.5
      vertex 28.0035 50.776 -4.5
    endloop
  endfacet
  facet normal 0 0 -1
    outer loop
      vertex 24.6572 52.708 -4.5
      vertex 26.6981 54.6322 -4.5
      vertex 26.125 51.3864 -4.5
    endloop
  endfacet
  facet normal -0 0 -1
    outer loop
      vertex 28.055 53.5501 -4.5
      vertex 26.125 51.3864 -4.5
      vertex 26.6981 54.6322 -4.5
    endloop
  endfacet
  facet normal -0 0 -1
    outer loop
      vertex 32.8393 57.432 -4.5
      vertex 29.747 57.0637 -4.5
      vertex 31.6784 59.0299 -4.5
    endloop
  endfacet
  facet normal -0 0 -1
    outer loop
      vertex 31.6784 59.0299 -4.5
      vertex 29.747 57.0637 -4.5
      vertex 29.9678 60.0175 -4.5
    endloop
  endfacet
  facet normal 0 0 -1
    outer loop
      vertex 28.055 57.4499 -4.5
      vertex 29.9678 60.0175 -4.5
      vertex 29.747 57.0637 -4.5
    endloop
  endfacet
  facet normal 0 0 -1
    outer loop
      vertex 28.055 57.4499 -4.5
      vertex 28.0035 60.224 -4.5
      vertex 29.9678 60.0175 -4.5
    endloop
  endfacet
  facet normal 0 0 -1
    outer loop
      vertex 26.125 59.6136 -4.5
      vertex 28.055 57.4499 -4.5
      vertex 26.6981 56.3678 -4.5
    endloop
  endfacet
  facet normal 0 0 -1
    outer loop
      vertex 28.055 57.4499 -4.5
      vertex 26.125 59.6136 -4.5
      vertex 28.0035 60.224 -4.5
    endloop
  endfacet
  facet normal 0 0 -1
    outer loop
      vertex 23.8538 54.5124 -4.5
      vertex 26.6981 54.6322 -4.5
      vertex 24.6572 52.708 -4.5
    endloop
  endfacet
  facet normal -0 0 -1
    outer loop
      vertex 26.6981 54.6322 -4.5
      vertex 23.8538 54.5124 -4.5
      vertex 26.6981 56.3678 -4.5
    endloop
  endfacet
  facet normal 0 0 -1
    outer loop
      vertex 26.6981 56.3678 -4.5
      vertex 24.6572 58.292 -4.5
      vertex 26.125 59.6136 -4.5
    endloop
  endfacet
  facet normal 0 0 -1
    outer loop
      vertex 23.8538 56.4876 -4.5
      vertex 26.6981 56.3678 -4.5
      vertex 23.8538 54.5124 -4.5
    endloop
  endfacet
  facet normal 0 0 -1
    outer loop
      vertex 26.6981 56.3678 -4.5
      vertex 23.8538 56.4876 -4.5
      vertex 24.6572 58.292 -4.5
    endloop
  endfacet
  facet normal 0.669127 -0.743148 0
    outer loop
      vertex 24.6572 58.292 -18.5
      vertex 26.125 59.6136 -4.5
      vertex 24.6572 58.292 -4.5
    endloop
  endfacet
  facet normal 0.669127 -0.743148 0
    outer loop
      vertex 26.125 59.6136 -4.5
      vertex 24.6572 58.292 -18.5
      vertex 26.125 59.6136 -18.5
    endloop
  endfacet
  facet normal -0.809027 0.587771 0
    outer loop
      vertex 31.6784 51.9701 -18.5
      vertex 32.8393 53.568 -4.5
      vertex 32.8393 53.568 -18.5
    endloop
  endfacet
  facet normal -0.809027 0.587771 0
    outer loop
      vertex 32.8393 53.568 -4.5
      vertex 31.6784 51.9701 -18.5
      vertex 31.6784 51.9701 -4.5
    endloop
  endfacet
  facet normal -0.10455 -0.99452 0
    outer loop
      vertex 28.0035 60.224 -18.5
      vertex 29.9678 60.0175 -4.5
      vertex 28.0035 60.224 -4.5
    endloop
  endfacet
  facet normal -0.10455 -0.99452 -0
    outer loop
      vertex 29.9678 60.0175 -4.5
      vertex 28.0035 60.224 -18.5
      vertex 29.9678 60.0175 -18.5
    endloop
  endfacet
  facet normal -0.499994 -0.866029 0
    outer loop
      vertex 29.9678 60.0175 -18.5
      vertex 31.6784 59.0299 -4.5
      vertex 29.9678 60.0175 -4.5
    endloop
  endfacet
  facet normal -0.499994 -0.866029 -0
    outer loop
      vertex 31.6784 59.0299 -4.5
      vertex 29.9678 60.0175 -18.5
      vertex 31.6784 59.0299 -18.5
    endloop
  endfacet
  facet normal -0.10455 0.99452 0
    outer loop
      vertex 29.9678 50.9825 -18.5
      vertex 28.0035 50.776 -4.5
      vertex 29.9678 50.9825 -4.5
    endloop
  endfacet
  facet normal -0.10455 0.99452 0
    outer loop
      vertex 28.0035 50.776 -4.5
      vertex 29.9678 50.9825 -18.5
      vertex 28.0035 50.776 -18.5
    endloop
  endfacet
  facet normal 0.91354 0.406749 0
    outer loop
      vertex 24.6572 52.708 -4.5
      vertex 23.8538 54.5124 -18.5
      vertex 23.8538 54.5124 -4.5
    endloop
  endfacet
  facet normal 0.91354 0.406749 0
    outer loop
      vertex 23.8538 54.5124 -18.5
      vertex 24.6572 52.708 -4.5
      vertex 24.6572 52.708 -18.5
    endloop
  endfacet
  facet normal -0.222528 -0.974926 0
    outer loop
      vertex 28.055 26.4499 -4.5
      vertex 29.747 26.0637 -1.5
      vertex 28.055 26.4499 -1.5
    endloop
  endfacet
  facet normal -0.222528 -0.974926 -0
    outer loop
      vertex 29.747 26.0637 -1.5
      vertex 28.055 26.4499 -4.5
      vertex 29.747 26.0637 -4.5
    endloop
  endfacet
  facet normal -0.900977 -0.433866 0
    outer loop
      vertex 30.5 24.5 -4.5
      vertex 29.747 26.0637 -1.5
      vertex 29.747 26.0637 -4.5
    endloop
  endfacet
  facet normal -0.900977 -0.433866 0
    outer loop
      vertex 29.747 26.0637 -1.5
      vertex 30.5 24.5 -4.5
      vertex 30.5 24.5 -1.5
    endloop
  endfacet
  facet normal -0.900977 0.433866 0
    outer loop
      vertex 29.747 22.9363 -4.5
      vertex 30.5 24.5 -1.5
      vertex 30.5 24.5 -4.5
    endloop
  endfacet
  facet normal -0.900977 0.433866 0
    outer loop
      vertex 30.5 24.5 -1.5
      vertex 29.747 22.9363 -4.5
      vertex 29.747 22.9363 -1.5
    endloop
  endfacet
  facet normal 0.623493 -0.781829 0
    outer loop
      vertex 26.6981 25.3678 -4.5
      vertex 28.055 26.4499 -1.5
      vertex 26.6981 25.3678 -1.5
    endloop
  endfacet
  facet normal 0.623493 -0.781829 0
    outer loop
      vertex 28.055 26.4499 -1.5
      vertex 26.6981 25.3678 -4.5
      vertex 28.055 26.4499 -4.5
    endloop
  endfacet
  facet normal 0.623493 0.781829 -0
    outer loop
      vertex 28.055 22.5501 -4.5
      vertex 26.6981 23.6322 -1.5
      vertex 28.055 22.5501 -1.5
    endloop
  endfacet
  facet normal 0.623493 0.781829 0
    outer loop
      vertex 26.6981 23.6322 -1.5
      vertex 28.055 22.5501 -4.5
      vertex 26.6981 23.6322 -4.5
    endloop
  endfacet
  facet normal -0.222528 0.974926 0
    outer loop
      vertex 29.747 22.9363 -4.5
      vertex 28.055 22.5501 -1.5
      vertex 29.747 22.9363 -1.5
    endloop
  endfacet
  facet normal -0.222528 0.974926 0
    outer loop
      vertex 28.055 22.5501 -1.5
      vertex 29.747 22.9363 -4.5
      vertex 28.055 22.5501 -4.5
    endloop
  endfacet
  facet normal 1 -0 0
    outer loop
      vertex 26.6981 23.6322 -1.5
      vertex 26.6981 25.3678 -4.5
      vertex 26.6981 25.3678 -1.5
    endloop
  endfacet
  facet normal 1 0 0
    outer loop
      vertex 26.6981 25.3678 -4.5
      vertex 26.6981 23.6322 -1.5
      vertex 26.6981 23.6322 -4.5
    endloop
  endfacet
  facet normal 0.309035 -0.951051 0
    outer loop
      vertex 26.125 28.6136 -18.5
      vertex 28.0035 29.224 -4.5
      vertex 26.125 28.6136 -4.5
    endloop
  endfacet
  facet normal 0.309035 -0.951051 0
    outer loop
      vertex 28.0035 29.224 -4.5
      vertex 26.125 28.6136 -18.5
      vertex 28.0035 29.224 -18.5
    endloop
  endfacet
  facet normal -0.809027 -0.587771 0
    outer loop
      vertex 32.8393 26.432 -18.5
      vertex 31.6784 28.0299 -4.5
      vertex 31.6784 28.0299 -18.5
    endloop
  endfacet
  facet normal -0.809027 -0.587771 0
    outer loop
      vertex 31.6784 28.0299 -4.5
      vertex 32.8393 26.432 -18.5
      vertex 32.8393 26.432 -4.5
    endloop
  endfacet
  facet normal -0.978143 -0.207931 0
    outer loop
      vertex 33.25 24.5 -18.5
      vertex 32.8393 26.432 -4.5
      vertex 32.8393 26.432 -18.5
    endloop
  endfacet
  facet normal -0.978143 -0.207931 0
    outer loop
      vertex 32.8393 26.432 -4.5
      vertex 33.25 24.5 -18.5
      vertex 33.25 24.5 -4.5
    endloop
  endfacet
  facet normal 0.91354 -0.406749 0
    outer loop
      vertex 23.8538 25.4876 -4.5
      vertex 24.6572 27.292 -18.5
      vertex 24.6572 27.292 -4.5
    endloop
  endfacet
  facet normal 0.91354 -0.406749 0
    outer loop
      vertex 24.6572 27.292 -18.5
      vertex 23.8538 25.4876 -4.5
      vertex 23.8538 25.4876 -18.5
    endloop
  endfacet
  facet normal 1 -0 0
    outer loop
      vertex 23.8538 23.5124 -4.5
      vertex 23.8538 25.4876 -18.5
      vertex 23.8538 25.4876 -4.5
    endloop
  endfacet
  facet normal 1 0 0
    outer loop
      vertex 23.8538 25.4876 -18.5
      vertex 23.8538 23.5124 -4.5
      vertex 23.8538 23.5124 -18.5
    endloop
  endfacet
  facet normal -0.499994 -0.866029 0
    outer loop
      vertex 29.9678 29.0175 -18.5
      vertex 31.6784 28.0299 -4.5
      vertex 29.9678 29.0175 -4.5
    endloop
  endfacet
  facet normal -0.499994 -0.866029 -0
    outer loop
      vertex 31.6784 28.0299 -4.5
      vertex 29.9678 29.0175 -18.5
      vertex 31.6784 28.0299 -18.5
    endloop
  endfacet
  facet normal -0.978143 0.207931 0
    outer loop
      vertex 32.8393 22.568 -18.5
      vertex 33.25 24.5 -4.5
      vertex 33.25 24.5 -18.5
    endloop
  endfacet
  facet normal -0.978143 0.207931 0
    outer loop
      vertex 33.25 24.5 -4.5
      vertex 32.8393 22.568 -18.5
      vertex 32.8393 22.568 -4.5
    endloop
  endfacet
  facet normal 0.309035 0.951051 -0
    outer loop
      vertex 28.0035 19.776 -18.5
      vertex 26.125 20.3864 -4.5
      vertex 28.0035 19.776 -4.5
    endloop
  endfacet
  facet normal 0.309035 0.951051 0
    outer loop
      vertex 26.125 20.3864 -4.5
      vertex 28.0035 19.776 -18.5
      vertex 26.125 20.3864 -18.5
    endloop
  endfacet
  facet normal 0.669127 0.743148 -0
    outer loop
      vertex 26.125 20.3864 -18.5
      vertex 24.6572 21.708 -4.5
      vertex 26.125 20.3864 -4.5
    endloop
  endfacet
  facet normal 0.669127 0.743148 0
    outer loop
      vertex 24.6572 21.708 -4.5
      vertex 26.125 20.3864 -18.5
      vertex 24.6572 21.708 -18.5
    endloop
  endfacet
  facet normal -0.499994 0.866029 0
    outer loop
      vertex 31.6784 20.9701 -18.5
      vertex 29.9678 19.9825 -4.5
      vertex 31.6784 20.9701 -4.5
    endloop
  endfacet
  facet normal -0.499994 0.866029 0
    outer loop
      vertex 29.9678 19.9825 -4.5
      vertex 31.6784 20.9701 -18.5
      vertex 29.9678 19.9825 -18.5
    endloop
  endfacet
  facet normal 0 0 -1
    outer loop
      vertex 30.5 24.5 -4.5
      vertex 33.25 24.5 -4.5
      vertex 32.8393 22.568 -4.5
    endloop
  endfacet
  facet normal 0 0 -1
    outer loop
      vertex 29.747 22.9363 -4.5
      vertex 32.8393 22.568 -4.5
      vertex 31.6784 20.9701 -4.5
    endloop
  endfacet
  facet normal 0 0 -1
    outer loop
      vertex 33.25 24.5 -4.5
      vertex 30.5 24.5 -4.5
      vertex 32.8393 26.432 -4.5
    endloop
  endfacet
  facet normal 0 0 -1
    outer loop
      vertex 29.747 26.0637 -4.5
      vertex 32.8393 26.432 -4.5
      vertex 30.5 24.5 -4.5
    endloop
  endfacet
  facet normal 0 0 -1
    outer loop
      vertex 29.747 22.9363 -4.5
      vertex 31.6784 20.9701 -4.5
      vertex 29.9678 19.9825 -4.5
    endloop
  endfacet
  facet normal 0 0 -1
    outer loop
      vertex 32.8393 22.568 -4.5
      vertex 29.747 22.9363 -4.5
      vertex 30.5 24.5 -4.5
    endloop
  endfacet
  facet normal 0 0 -1
    outer loop
      vertex 29.9678 19.9825 -4.5
      vertex 28.055 22.5501 -4.5
      vertex 29.747 22.9363 -4.5
    endloop
  endfacet
  facet normal 0 0 -1
    outer loop
      vertex 28.0035 19.776 -4.5
      vertex 28.055 22.5501 -4.5
      vertex 29.9678 19.9825 -4.5
    endloop
  endfacet
  facet normal 0 0 -1
    outer loop
      vertex 26.125 20.3864 -4.5
      vertex 28.055 22.5501 -4.5
      vertex 28.0035 19.776 -4.5
    endloop
  endfacet
  facet normal 0 0 -1
    outer loop
      vertex 24.6572 21.708 -4.5
      vertex 26.6981 23.6322 -4.5
      vertex 26.125 20.3864 -4.5
    endloop
  endfacet
  facet normal -0 0 -1
    outer loop
      vertex 28.055 22.5501 -4.5
      vertex 26.125 20.3864 -4.5
      vertex 26.6981 23.6322 -4.5
    endloop
  endfacet
  facet normal -0 0 -1
    outer loop
      vertex 32.8393 26.432 -4.5
      vertex 29.747 26.0637 -4.5
      vertex 31.6784 28.0299 -4.5
    endloop
  endfacet
  facet normal -0 0 -1
    outer loop
      vertex 31.6784 28.0299 -4.5
      vertex 29.747 26.0637 -4.5
      vertex 29.9678 29.0175 -4.5
    endloop
  endfacet
  facet normal 0 0 -1
    outer loop
      vertex 28.055 26.4499 -4.5
      vertex 29.9678 29.0175 -4.5
      vertex 29.747 26.0637 -4.5
    endloop
  endfacet
  facet normal 0 0 -1
    outer loop
      vertex 28.055 26.4499 -4.5
      vertex 28.0035 29.224 -4.5
      vertex 29.9678 29.0175 -4.5
    endloop
  endfacet
  facet normal 0 0 -1
    outer loop
      vertex 26.125 28.6136 -4.5
      vertex 28.055 26.4499 -4.5
      vertex 26.6981 25.3678 -4.5
    endloop
  endfacet
  facet normal 0 0 -1
    outer loop
      vertex 28.055 26.4499 -4.5
      vertex 26.125 28.6136 -4.5
      vertex 28.0035 29.224 -4.5
    endloop
  endfacet
  facet normal 0 0 -1
    outer loop
      vertex 23.8538 23.5124 -4.5
      vertex 26.6981 23.6322 -4.5
      vertex 24.6572 21.708 -4.5
    endloop
  endfacet
  facet normal -0 0 -1
    outer loop
      vertex 26.6981 23.6322 -4.5
      vertex 23.8538 23.5124 -4.5
      vertex 26.6981 25.3678 -4.5
    endloop
  endfacet
  facet normal 0 0 -1
    outer loop
      vertex 26.6981 25.3678 -4.5
      vertex 24.6572 27.292 -4.5
      vertex 26.125 28.6136 -4.5
    endloop
  endfacet
  facet normal 0 0 -1
    outer loop
      vertex 23.8538 25.4876 -4.5
      vertex 26.6981 25.3678 -4.5
      vertex 23.8538 23.5124 -4.5
    endloop
  endfacet
  facet normal 0 0 -1
    outer loop
      vertex 26.6981 25.3678 -4.5
      vertex 23.8538 25.4876 -4.5
      vertex 24.6572 27.292 -4.5
    endloop
  endfacet
  facet normal 0.669127 -0.743148 0
    outer loop
      vertex 24.6572 27.292 -18.5
      vertex 26.125 28.6136 -4.5
      vertex 24.6572 27.292 -4.5
    endloop
  endfacet
  facet normal 0.669127 -0.743148 0
    outer loop
      vertex 26.125 28.6136 -4.5
      vertex 24.6572 27.292 -18.5
      vertex 26.125 28.6136 -18.5
    endloop
  endfacet
  facet normal -0.10455 -0.99452 0
    outer loop
      vertex 28.0035 29.224 -18.5
      vertex 29.9678 29.0175 -4.5
      vertex 28.0035 29.224 -4.5
    endloop
  endfacet
  facet normal -0.10455 -0.99452 -0
    outer loop
      vertex 29.9678 29.0175 -4.5
      vertex 28.0035 29.224 -18.5
      vertex 29.9678 29.0175 -18.5
    endloop
  endfacet
  facet normal -0.809027 0.587771 0
    outer loop
      vertex 31.6784 20.9701 -18.5
      vertex 32.8393 22.568 -4.5
      vertex 32.8393 22.568 -18.5
    endloop
  endfacet
  facet normal -0.809027 0.587771 0
    outer loop
      vertex 32.8393 22.568 -4.5
      vertex 31.6784 20.9701 -18.5
      vertex 31.6784 20.9701 -4.5
    endloop
  endfacet
  facet normal -0.10455 0.99452 0
    outer loop
      vertex 29.9678 19.9825 -18.5
      vertex 28.0035 19.776 -4.5
      vertex 29.9678 19.9825 -4.5
    endloop
  endfacet
  facet normal -0.10455 0.99452 0
    outer loop
      vertex 28.0035 19.776 -4.5
      vertex 29.9678 19.9825 -18.5
      vertex 28.0035 19.776 -18.5
    endloop
  endfacet
  facet normal 0.91354 0.406749 0
    outer loop
      vertex 24.6572 21.708 -4.5
      vertex 23.8538 23.5124 -18.5
      vertex 23.8538 23.5124 -4.5
    endloop
  endfacet
  facet normal 0.91354 0.406749 0
    outer loop
      vertex 23.8538 23.5124 -18.5
      vertex 24.6572 21.708 -4.5
      vertex 24.6572 21.708 -18.5
    endloop
  endfacet
  facet normal 0.766049 0.642782 0
    outer loop
      vertex 17.075 2.03183 -12.5
      vertex 15.8219 3.52524 -18.5
      vertex 15.8219 3.52524 -12.5
    endloop
  endfacet
  facet normal 0.766049 0.642782 0
    outer loop
      vertex 15.8219 3.52524 -18.5
      vertex 17.075 2.03183 -12.5
      vertex 17.075 2.03183 -18.5
    endloop
  endfacet
  facet normal -0.500008 -0.866021 0
    outer loop
      vertex 18.9949 7.3067 -18.5
      vertex 20.6832 6.33194 -12.5
      vertex 18.9949 7.3067 -12.5
    endloop
  endfacet
  facet normal -0.500008 -0.866021 -0
    outer loop
      vertex 20.6832 6.33194 -12.5
      vertex 18.9949 7.3067 -18.5
      vertex 20.6832 6.33194 -18.5
    endloop
  endfacet
  facet normal -0.939688 -0.342033 0
    outer loop
      vertex 21.35 4.5 -18.5
      vertex 20.6832 6.33194 -12.5
      vertex 20.6832 6.33194 -18.5
    endloop
  endfacet
  facet normal -0.939688 -0.342033 0
    outer loop
      vertex 20.6832 6.33194 -12.5
      vertex 21.35 4.5 -18.5
      vertex 21.35 4.5 -12.5
    endloop
  endfacet
  facet normal 0.173648 -0.984808 0
    outer loop
      vertex 17.075 6.96817 -18.5
      vertex 18.9949 7.3067 -12.5
      vertex 17.075 6.96817 -12.5
    endloop
  endfacet
  facet normal 0.173648 -0.984808 0
    outer loop
      vertex 18.9949 7.3067 -12.5
      vertex 17.075 6.96817 -18.5
      vertex 18.9949 7.3067 -18.5
    endloop
  endfacet
  facet normal 1 -0 0
    outer loop
      vertex 15.8219 3.52524 -12.5
      vertex 15.8219 5.47476 -18.5
      vertex 15.8219 5.47476 -12.5
    endloop
  endfacet
  facet normal 1 0 0
    outer loop
      vertex 15.8219 5.47476 -18.5
      vertex 15.8219 3.52524 -12.5
      vertex 15.8219 3.52524 -18.5
    endloop
  endfacet
  facet normal 0.766049 -0.642782 0
    outer loop
      vertex 15.8219 5.47476 -12.5
      vertex 17.075 6.96817 -18.5
      vertex 17.075 6.96817 -12.5
    endloop
  endfacet
  facet normal 0.766049 -0.642782 0
    outer loop
      vertex 17.075 6.96817 -18.5
      vertex 15.8219 5.47476 -12.5
      vertex 15.8219 5.47476 -18.5
    endloop
  endfacet
  facet normal -0.500004 0.866023 0
    outer loop
      vertex 20.6832 2.66805 -18.5
      vertex 18.9949 1.6933 -12.5
      vertex 20.6832 2.66805 -12.5
    endloop
  endfacet
  facet normal -0.500004 0.866023 0
    outer loop
      vertex 18.9949 1.6933 -12.5
      vertex 20.6832 2.66805 -18.5
      vertex 18.9949 1.6933 -18.5
    endloop
  endfacet
  facet normal -0.939689 0.342031 0
    outer loop
      vertex 20.6832 2.66805 -18.5
      vertex 21.35 4.5 -12.5
      vertex 21.35 4.5 -18.5
    endloop
  endfacet
  facet normal -0.939689 0.342031 0
    outer loop
      vertex 21.35 4.5 -12.5
      vertex 20.6832 2.66805 -18.5
      vertex 20.6832 2.66805 -12.5
    endloop
  endfacet
  facet normal 0.173648 0.984808 -0
    outer loop
      vertex 18.9949 1.6933 -18.5
      vertex 17.075 2.03183 -12.5
      vertex 18.9949 1.6933 -12.5
    endloop
  endfacet
  facet normal 0.173648 0.984808 0
    outer loop
      vertex 17.075 2.03183 -12.5
      vertex 18.9949 1.6933 -18.5
      vertex 17.075 2.03183 -18.5
    endloop
  endfacet
  facet normal 0.766047 0.642784 0
    outer loop
      vertex 17.075 74.0318 -12.5
      vertex 15.8219 75.5252 -18.5
      vertex 15.8219 75.5252 -12.5
    endloop
  endfacet
  facet normal 0.766047 0.642784 0
    outer loop
      vertex 15.8219 75.5252 -18.5
      vertex 17.075 74.0318 -12.5
      vertex 17.075 74.0318 -18.5
    endloop
  endfacet
  facet normal -0.500023 -0.866012 0
    outer loop
      vertex 18.9949 79.3067 -18.5
      vertex 20.6832 78.3319 -12.5
      vertex 18.9949 79.3067 -12.5
    endloop
  endfacet
  facet normal -0.500023 -0.866012 -0
    outer loop
      vertex 20.6832 78.3319 -12.5
      vertex 18.9949 79.3067 -18.5
      vertex 20.6832 78.3319 -18.5
    endloop
  endfacet
  facet normal -0.939686 -0.34204 0
    outer loop
      vertex 21.35 76.5 -18.5
      vertex 20.6832 78.3319 -12.5
      vertex 20.6832 78.3319 -18.5
    endloop
  endfacet
  facet normal -0.939686 -0.34204 0
    outer loop
      vertex 20.6832 78.3319 -12.5
      vertex 21.35 76.5 -18.5
      vertex 21.35 76.5 -12.5
    endloop
  endfacet
  facet normal 0.173633 -0.98481 0
    outer loop
      vertex 17.075 78.9682 -18.5
      vertex 18.9949 79.3067 -12.5
      vertex 17.075 78.9682 -12.5
    endloop
  endfacet
  facet normal 0.173633 -0.98481 0
    outer loop
      vertex 18.9949 79.3067 -12.5
      vertex 17.075 78.9682 -18.5
      vertex 18.9949 79.3067 -18.5
    endloop
  endfacet
  facet normal 1 -0 0
    outer loop
      vertex 15.8219 75.5252 -12.5
      vertex 15.8219 77.4748 -18.5
      vertex 15.8219 77.4748 -12.5
    endloop
  endfacet
  facet normal 1 0 0
    outer loop
      vertex 15.8219 77.4748 -18.5
      vertex 15.8219 75.5252 -12.5
      vertex 15.8219 75.5252 -18.5
    endloop
  endfacet
  facet normal 0.766047 -0.642784 0
    outer loop
      vertex 15.8219 77.4748 -12.5
      vertex 17.075 78.9682 -18.5
      vertex 17.075 78.9682 -12.5
    endloop
  endfacet
  facet normal 0.766047 -0.642784 0
    outer loop
      vertex 17.075 78.9682 -18.5
      vertex 15.8219 77.4748 -12.5
      vertex 15.8219 77.4748 -18.5
    endloop
  endfacet
  facet normal -0.500023 0.866012 0
    outer loop
      vertex 20.6832 74.6681 -18.5
      vertex 18.9949 73.6933 -12.5
      vertex 20.6832 74.6681 -12.5
    endloop
  endfacet
  facet normal -0.500023 0.866012 0
    outer loop
      vertex 18.9949 73.6933 -12.5
      vertex 20.6832 74.6681 -18.5
      vertex 18.9949 73.6933 -18.5
    endloop
  endfacet
  facet normal -0.939686 0.34204 0
    outer loop
      vertex 20.6832 74.6681 -18.5
      vertex 21.35 76.5 -12.5
      vertex 21.35 76.5 -18.5
    endloop
  endfacet
  facet normal -0.939686 0.34204 0
    outer loop
      vertex 21.35 76.5 -12.5
      vertex 20.6832 74.6681 -18.5
      vertex 20.6832 74.6681 -12.5
    endloop
  endfacet
  facet normal 0.173633 0.98481 -0
    outer loop
      vertex 18.9949 73.6933 -18.5
      vertex 17.075 74.0318 -12.5
      vertex 18.9949 73.6933 -12.5
    endloop
  endfacet
  facet normal 0.173633 0.98481 0
    outer loop
      vertex 17.075 74.0318 -12.5
      vertex 18.9949 73.6933 -18.5
      vertex 17.075 74.0318 -18.5
    endloop
  endfacet
endsolid OpenSCAD_Model
