solid OpenSCAD_Model
  facet normal 0 -0.808972 0.587847
    outer loop
      vertex -17 -104.66 -15
      vertex -7 -103.431 -13.3087
      vertex -17 -103.431 -13.3087
    endloop
  endfacet
  facet normal 0 -0.808972 0.587847
    outer loop
      vertex -7 -103.431 -13.3087
      vertex -17 -104.66 -15
      vertex -7 -104.66 -15
    endloop
  endfacet
  facet normal 0 -0.309407 0.95093
    outer loop
      vertex -17 -100 -10.8427
      vertex -7 -100.067 -10.8645
      vertex -7 -100 -10.8427
    endloop
  endfacet
  facet normal 0 -0.309407 0.95093
    outer loop
      vertex -7 -100.067 -10.8645
      vertex -17 -100 -10.8427
      vertex -17 -100.067 -10.8645
    endloop
  endfacet
  facet normal 0 -0.669282 0.743009
    outer loop
      vertex -17 -101.878 -11.9098
      vertex -7 -103.431 -13.3087
      vertex -7 -101.878 -11.9098
    endloop
  endfacet
  facet normal 0 -0.669282 0.743009
    outer loop
      vertex -7 -103.431 -13.3087
      vertex -17 -101.878 -11.9098
      vertex -17 -103.431 -13.3087
    endloop
  endfacet
  facet normal 0 -0.808972 -0.587847
    outer loop
      vertex -17 -103.431 -26.6913
      vertex -7 -104.66 -25
      vertex -17 -104.66 -25
    endloop
  endfacet
  facet normal 0 -0.808972 -0.587847
    outer loop
      vertex -7 -104.66 -25
      vertex -17 -103.431 -26.6913
      vertex -7 -103.431 -26.6913
    endloop
  endfacet
  facet normal 0 -0.669282 -0.743009
    outer loop
      vertex -17 -103.431 -26.6913
      vertex -7 -101.878 -28.0902
      vertex -7 -103.431 -26.6913
    endloop
  endfacet
  facet normal -0 -0.669282 -0.743009
    outer loop
      vertex -7 -101.878 -28.0902
      vertex -17 -103.431 -26.6913
      vertex -17 -101.878 -28.0902
    endloop
  endfacet
  facet normal 0 -0.913421 0.407017
    outer loop
      vertex -17 -105.511 -16.9098
      vertex -7 -104.66 -15
      vertex -17 -104.66 -15
    endloop
  endfacet
  facet normal 0 -0.913421 0.407017
    outer loop
      vertex -7 -104.66 -15
      vertex -17 -105.511 -16.9098
      vertex -7 -105.511 -16.9098
    endloop
  endfacet
  facet normal 0 -0.978211 -0.207611
    outer loop
      vertex -17 -105.511 -23.0902
      vertex -7 -105.945 -21.0453
      vertex -17 -105.945 -21.0453
    endloop
  endfacet
  facet normal 0 -0.978211 -0.207611
    outer loop
      vertex -7 -105.945 -21.0453
      vertex -17 -105.511 -23.0902
      vertex -7 -105.511 -23.0902
    endloop
  endfacet
  facet normal 0 -0.499899 0.866084
    outer loop
      vertex -17 -100.067 -10.8645
      vertex -7 -101.878 -11.9098
      vertex -7 -100.067 -10.8645
    endloop
  endfacet
  facet normal 0 -0.499899 0.866084
    outer loop
      vertex -7 -101.878 -11.9098
      vertex -17 -100.067 -10.8645
      vertex -17 -101.878 -11.9098
    endloop
  endfacet
  facet normal -1 0 0
    outer loop
      vertex -17 -86.8131 -21.8509
      vertex -17 -83.0548 -21.0453
      vertex -17 -83.4894 -23.0902
    endloop
  endfacet
  facet normal -1 0 0
    outer loop
      vertex -17 -91.4825 -22.3416
      vertex -17 -93.7175 -22.3416
      vertex -17 -93.6131 -21.8509
    endloop
  endfacet
  facet normal -1 0 0
    outer loop
      vertex -17 -90.9836 -23.2059
      vertex -17 -93.9215 -22.8
      vertex -17 -93.7175 -22.3416
    endloop
  endfacet
  facet normal -1 0 0
    outer loop
      vertex -17 -90.9836 -23.2059
      vertex -17 -94.2165 -23.2059
      vertex -17 -93.9215 -22.8
    endloop
  endfacet
  facet normal -1 0 0
    outer loop
      vertex -17 -95.0238 -23.7925
      vertex -17 -93 -30
      vertex -17 -94.5 -29.8423
    endloop
  endfacet
  facet normal -1 -0 0
    outer loop
      vertex -17 -90.9836 -23.2059
      vertex -17 -94.5893 -23.5416
      vertex -17 -94.2165 -23.2059
    endloop
  endfacet
  facet normal -1 0 0
    outer loop
      vertex -17 -93 -30
      vertex -17 -95.0238 -23.7925
      vertex -17 -94.5893 -23.5416
    endloop
  endfacet
  facet normal -1 0 0
    outer loop
      vertex -17 -94.5 -29.8423
      vertex -17 -95.501 -23.9476
      vertex -17 -95.0238 -23.7925
    endloop
  endfacet
  facet normal -1 0 0
    outer loop
      vertex -17 -96 -24
      vertex -17 -94.5 -29.8423
      vertex -17 -96 -30
    endloop
  endfacet
  facet normal -1 0 0
    outer loop
      vertex -17 -94.5 -29.8423
      vertex -17 -96 -24
      vertex -17 -95.501 -23.9476
    endloop
  endfacet
  facet normal -1 0 0
    outer loop
      vertex -17 -96 -30
      vertex -17 -96.499 -23.9476
      vertex -17 -96 -24
    endloop
  endfacet
  facet normal -1 0 0
    outer loop
      vertex -17 -98.0791 -29.7815
      vertex -17 -96.499 -23.9476
      vertex -17 -96 -30
    endloop
  endfacet
  facet normal -1 -0 0
    outer loop
      vertex -17 -96.499 -23.9476
      vertex -17 -98.0791 -29.7815
      vertex -17 -96.9762 -23.7925
    endloop
  endfacet
  facet normal -1 0 0
    outer loop
      vertex -17 -100.067 -29.1355
      vertex -17 -96.9762 -23.7925
      vertex -17 -98.0791 -29.7815
    endloop
  endfacet
  facet normal -1 -0 0
    outer loop
      vertex -17 -96.9762 -23.7925
      vertex -17 -100.067 -29.1355
      vertex -17 -97.4107 -23.5416
    endloop
  endfacet
  facet normal -1 0 0
    outer loop
      vertex -17 -101.878 -28.0902
      vertex -17 -97.4107 -23.5416
      vertex -17 -100.067 -29.1355
    endloop
  endfacet
  facet normal -1 -0 0
    outer loop
      vertex -17 -97.4107 -23.5416
      vertex -17 -101.878 -28.0902
      vertex -17 -97.7835 -23.2059
    endloop
  endfacet
  facet normal -1 0 0
    outer loop
      vertex -17 -103.431 -26.6913
      vertex -17 -97.7835 -23.2059
      vertex -17 -101.878 -28.0902
    endloop
  endfacet
  facet normal -1 0 0
    outer loop
      vertex -17 -105.511 -23.0902
      vertex -17 -98.3869 -21.3491
      vertex -17 -98.3869 -21.8509
    endloop
  endfacet
  facet normal -1 -0 0
    outer loop
      vertex -17 -97.7835 -23.2059
      vertex -17 -103.431 -26.6913
      vertex -17 -98.0785 -22.8
    endloop
  endfacet
  facet normal -1 -0 0
    outer loop
      vertex -17 -98.0785 -22.8
      vertex -17 -103.431 -26.6913
      vertex -17 -98.2825 -22.3416
    endloop
  endfacet
  facet normal -1 0 0
    outer loop
      vertex -17 -104.66 -25
      vertex -17 -98.2825 -22.3416
      vertex -17 -103.431 -26.6913
    endloop
  endfacet
  facet normal -1 0 0
    outer loop
      vertex -17 -98.3869 -21.3491
      vertex -17 -101.878 -11.9098
      vertex -17 -100 -10.8427
    endloop
  endfacet
  facet normal -1 0 0
    outer loop
      vertex -17 -100 -10.8427
      vertex -17 -101.878 -11.9098
      vertex -17 -100.067 -10.8645
    endloop
  endfacet
  facet normal -1 -0 0
    outer loop
      vertex -17 -98.2825 -22.3416
      vertex -17 -104.66 -25
      vertex -17 -98.3869 -21.8509
    endloop
  endfacet
  facet normal -1 0 0
    outer loop
      vertex -17 -98.3869 -21.3491
      vertex -17 -103.431 -13.3087
      vertex -17 -101.878 -11.9098
    endloop
  endfacet
  facet normal -1 0 0
    outer loop
      vertex -17 -105.511 -23.0902
      vertex -17 -98.3869 -21.8509
      vertex -17 -104.66 -25
    endloop
  endfacet
  facet normal -1 0 0
    outer loop
      vertex -17 -98.3869 -21.3491
      vertex -17 -104.66 -15
      vertex -17 -103.431 -13.3087
    endloop
  endfacet
  facet normal -1 -0 0
    outer loop
      vertex -17 -98.3869 -21.3491
      vertex -17 -105.511 -23.0902
      vertex -17 -105.945 -21.0453
    endloop
  endfacet
  facet normal -1 0 0
    outer loop
      vertex -17 -98.3869 -21.3491
      vertex -17 -105.511 -16.9098
      vertex -17 -104.66 -15
    endloop
  endfacet
  facet normal -1 0 0
    outer loop
      vertex -17 -98.3869 -21.3491
      vertex -17 -105.945 -21.0453
      vertex -17 -105.945 -18.9547
    endloop
  endfacet
  facet normal -1 0 0
    outer loop
      vertex -17 -98.3869 -21.3491
      vertex -17 -105.945 -18.9547
      vertex -17 -105.511 -16.9098
    endloop
  endfacet
  facet normal -1 0 0
    outer loop
      vertex -17 -83.4894 -23.0902
      vertex -17 -86.9175 -22.3416
      vertex -17 -86.8131 -21.8509
    endloop
  endfacet
  facet normal -1 0 0
    outer loop
      vertex -17 -84.3397 -25
      vertex -17 -87.1215 -22.8
      vertex -17 -86.9175 -22.3416
    endloop
  endfacet
  facet normal -1 0 0
    outer loop
      vertex -17 -88.2238 -23.7925
      vertex -17 -85.5686 -26.6913
      vertex -17 -87.1221 -28.0902
    endloop
  endfacet
  facet normal -1 0 0
    outer loop
      vertex -17 -84.3397 -25
      vertex -17 -87.4165 -23.2059
      vertex -17 -87.1215 -22.8
    endloop
  endfacet
  facet normal -1 0 0
    outer loop
      vertex -17 -84.3397 -25
      vertex -17 -87.7893 -23.5416
      vertex -17 -87.4165 -23.2059
    endloop
  endfacet
  facet normal -1 0 0
    outer loop
      vertex -17 -85.5686 -26.6913
      vertex -17 -88.2238 -23.7925
      vertex -17 -87.7893 -23.5416
    endloop
  endfacet
  facet normal -1 0 0
    outer loop
      vertex -17 -87.1221 -28.0902
      vertex -17 -88.701 -23.9476
      vertex -17 -88.2238 -23.7925
    endloop
  endfacet
  facet normal -1 0 0
    outer loop
      vertex -17 -89.2 -24
      vertex -17 -87.1221 -28.0902
      vertex -17 -88.9326 -29.1355
    endloop
  endfacet
  facet normal -1 0 0
    outer loop
      vertex -17 -87.1221 -28.0902
      vertex -17 -89.2 -24
      vertex -17 -88.701 -23.9476
    endloop
  endfacet
  facet normal -1 0 0
    outer loop
      vertex -17 -88.9326 -29.1355
      vertex -17 -89.699 -23.9476
      vertex -17 -89.2 -24
    endloop
  endfacet
  facet normal -1 0 0
    outer loop
      vertex -17 -90.9209 -29.7815
      vertex -17 -89.699 -23.9476
      vertex -17 -88.9326 -29.1355
    endloop
  endfacet
  facet normal -1 -0 0
    outer loop
      vertex -17 -89.699 -23.9476
      vertex -17 -90.9209 -29.7815
      vertex -17 -90.1762 -23.7925
    endloop
  endfacet
  facet normal -1 -0 0
    outer loop
      vertex -17 -90.1762 -23.7925
      vertex -17 -90.9209 -29.7815
      vertex -17 -90.6107 -23.5416
    endloop
  endfacet
  facet normal -1 0 0
    outer loop
      vertex -17 -93 -30
      vertex -17 -90.6107 -23.5416
      vertex -17 -90.9209 -29.7815
    endloop
  endfacet
  facet normal -1 0 0
    outer loop
      vertex -17 -94.5893 -23.5416
      vertex -17 -90.6107 -23.5416
      vertex -17 -93 -30
    endloop
  endfacet
  facet normal -1 0 0
    outer loop
      vertex -17 -90.6107 -23.5416
      vertex -17 -94.5893 -23.5416
      vertex -17 -90.9836 -23.2059
    endloop
  endfacet
  facet normal -1 0 0
    outer loop
      vertex -17 -93.7175 -22.3416
      vertex -17 -91.2785 -22.8
      vertex -17 -90.9836 -23.2059
    endloop
  endfacet
  facet normal -1 0 0
    outer loop
      vertex -17 -91.4825 -22.3416
      vertex -17 -93.6131 -21.8509
      vertex -17 -91.5869 -21.8509
    endloop
  endfacet
  facet normal -1 0 0
    outer loop
      vertex -17 -93.7175 -22.3416
      vertex -17 -91.4825 -22.3416
      vertex -17 -91.2785 -22.8
    endloop
  endfacet
  facet normal -1 0 0
    outer loop
      vertex -17 -3 -20
      vertex -17 -6.11041 -15.1986
      vertex -17 -3 -10
    endloop
  endfacet
  facet normal -1 0 0
    outer loop
      vertex -17 -3 -20
      vertex -17 -6.19299 -15.5871
      vertex -17 -6.11041 -15.1986
    endloop
  endfacet
  facet normal -1 0 0
    outer loop
      vertex -17 -3 -20
      vertex -17 -6.35455 -15.95
      vertex -17 -6.19299 -15.5871
    endloop
  endfacet
  facet normal -1 0 0
    outer loop
      vertex -17 -3 -20
      vertex -17 -6.58802 -16.2713
      vertex -17 -6.35455 -15.95
    endloop
  endfacet
  facet normal -1 0 0
    outer loop
      vertex -17 -3 -20
      vertex -17 -6.88321 -16.5371
      vertex -17 -6.58802 -16.2713
    endloop
  endfacet
  facet normal -1 0 0
    outer loop
      vertex -17 -3 -20
      vertex -17 -7.2272 -16.7357
      vertex -17 -6.88321 -16.5371
    endloop
  endfacet
  facet normal -1 0 0
    outer loop
      vertex -17 -3 -20
      vertex -17 -7.60497 -16.8585
      vertex -17 -7.2272 -16.7357
    endloop
  endfacet
  facet normal -1 0 0
    outer loop
      vertex -17 -3 -20
      vertex -17 -8 -16.9
      vertex -17 -7.60497 -16.8585
    endloop
  endfacet
  facet normal -1 0 0
    outer loop
      vertex -17 -3 -20
      vertex -17 -8.39503 -16.8585
      vertex -17 -8 -16.9
    endloop
  endfacet
  facet normal -1 0 0
    outer loop
      vertex -17 -15.605 -16.8585
      vertex -17 -8.39503 -16.8585
      vertex -17 -3 -20
    endloop
  endfacet
  facet normal -1 0 0
    outer loop
      vertex -17 -9.88959 -15.1986
      vertex -17 -14.1104 -15.1986
      vertex -17 -9.88959 -14.8014
    endloop
  endfacet
  facet normal -1 0 0
    outer loop
      vertex -17 -9.80701 -15.5871
      vertex -17 -14.1104 -15.1986
      vertex -17 -9.88959 -15.1986
    endloop
  endfacet
  facet normal -1 0 0
    outer loop
      vertex -17 -14.193 -15.5871
      vertex -17 -9.80701 -15.5871
      vertex -17 -9.64545 -15.95
    endloop
  endfacet
  facet normal -1 0 0
    outer loop
      vertex -17 -14.3546 -15.95
      vertex -17 -9.64545 -15.95
      vertex -17 -9.41197 -16.2713
    endloop
  endfacet
  facet normal -1 0 0
    outer loop
      vertex -17 -14.588 -16.2713
      vertex -17 -9.41197 -16.2713
      vertex -17 -9.11679 -16.5371
    endloop
  endfacet
  facet normal -1 0 0
    outer loop
      vertex -17 -14.8832 -16.5371
      vertex -17 -9.11679 -16.5371
      vertex -17 -8.7728 -16.7357
    endloop
  endfacet
  facet normal -1 0 0
    outer loop
      vertex -17 -8.39503 -16.8585
      vertex -17 -15.605 -16.8585
      vertex -17 -8.7728 -16.7357
    endloop
  endfacet
  facet normal -1 0 0
    outer loop
      vertex -17 -9.80701 -15.5871
      vertex -17 -14.193 -15.5871
      vertex -17 -14.1104 -15.1986
    endloop
  endfacet
  facet normal -1 0 0
    outer loop
      vertex -17 -9.64545 -15.95
      vertex -17 -14.3546 -15.95
      vertex -17 -14.193 -15.5871
    endloop
  endfacet
  facet normal -1 0 0
    outer loop
      vertex -17 -9.41197 -16.2713
      vertex -17 -14.588 -16.2713
      vertex -17 -14.3546 -15.95
    endloop
  endfacet
  facet normal -1 0 0
    outer loop
      vertex -17 -9.11679 -16.5371
      vertex -17 -14.8832 -16.5371
      vertex -17 -14.588 -16.2713
    endloop
  endfacet
  facet normal -1 0 0
    outer loop
      vertex -17 -8.7728 -16.7357
      vertex -17 -15.2272 -16.7357
      vertex -17 -14.8832 -16.5371
    endloop
  endfacet
  facet normal -1 -0 0
    outer loop
      vertex -17 -8.7728 -16.7357
      vertex -17 -15.605 -16.8585
      vertex -17 -15.2272 -16.7357
    endloop
  endfacet
  facet normal -1 0 0
    outer loop
      vertex -17 -3 -20
      vertex -17 -16 -16.9
      vertex -17 -15.605 -16.8585
    endloop
  endfacet
  facet normal -1 0 0
    outer loop
      vertex -17 -3 -20
      vertex -17 -16.395 -16.8585
      vertex -17 -16 -16.9
    endloop
  endfacet
  facet normal -1 -0 0
    outer loop
      vertex -17 -17.8896 -15.1986
      vertex -17 -83.0548 -20
      vertex -17 -17.8896 -14.8014
    endloop
  endfacet
  facet normal -1 -0 0
    outer loop
      vertex -17 -17.807 -15.5871
      vertex -17 -83.0548 -20
      vertex -17 -17.8896 -15.1986
    endloop
  endfacet
  facet normal -1 -0 0
    outer loop
      vertex -17 -17.6454 -15.95
      vertex -17 -83.0548 -20
      vertex -17 -17.807 -15.5871
    endloop
  endfacet
  facet normal -1 -0 0
    outer loop
      vertex -17 -17.412 -16.2713
      vertex -17 -83.0548 -20
      vertex -17 -17.6454 -15.95
    endloop
  endfacet
  facet normal -1 -0 0
    outer loop
      vertex -17 -17.1168 -16.5371
      vertex -17 -83.0548 -20
      vertex -17 -17.412 -16.2713
    endloop
  endfacet
  facet normal -1 -0 0
    outer loop
      vertex -17 -16.7728 -16.7357
      vertex -17 -83.0548 -20
      vertex -17 -17.1168 -16.5371
    endloop
  endfacet
  facet normal -1 -0 0
    outer loop
      vertex -17 -16.395 -16.8585
      vertex -17 -83.0548 -20
      vertex -17 -16.7728 -16.7357
    endloop
  endfacet
  facet normal -1 0 0
    outer loop
      vertex -17 -83.0548 -20
      vertex -17 -16.395 -16.8585
      vertex -17 -3 -20
    endloop
  endfacet
  facet normal -1 0 0
    outer loop
      vertex -17 -6.11041 -14.8014
      vertex -17 -3 -10
      vertex -17 -6.11041 -15.1986
    endloop
  endfacet
  facet normal -1 0 0
    outer loop
      vertex -17 -6.19299 -14.4129
      vertex -17 -3 -10
      vertex -17 -6.11041 -14.8014
    endloop
  endfacet
  facet normal -1 0 0
    outer loop
      vertex -17 -6.35455 -14.05
      vertex -17 -3 -10
      vertex -17 -6.19299 -14.4129
    endloop
  endfacet
  facet normal -1 0 0
    outer loop
      vertex -17 -6.58802 -13.7287
      vertex -17 -3 -10
      vertex -17 -6.35455 -14.05
    endloop
  endfacet
  facet normal -1 0 0
    outer loop
      vertex -17 -6.88321 -13.4629
      vertex -17 -3 -10
      vertex -17 -6.58802 -13.7287
    endloop
  endfacet
  facet normal -1 0 0
    outer loop
      vertex -17 -7.2272 -13.2643
      vertex -17 -3 -10
      vertex -17 -6.88321 -13.4629
    endloop
  endfacet
  facet normal -1 0 0
    outer loop
      vertex -17 -7.60497 -13.1415
      vertex -17 -3 -10
      vertex -17 -7.2272 -13.2643
    endloop
  endfacet
  facet normal -1 0 0
    outer loop
      vertex -17 -8 -13.1
      vertex -17 -3 -10
      vertex -17 -7.60497 -13.1415
    endloop
  endfacet
  facet normal -1 0 0
    outer loop
      vertex -17 -8.39503 -13.1415
      vertex -17 -3 -10
      vertex -17 -8 -13.1
    endloop
  endfacet
  facet normal -1 0 0
    outer loop
      vertex -17 -15.605 -13.1415
      vertex -17 -8.39503 -13.1415
      vertex -17 -8.7728 -13.2643
    endloop
  endfacet
  facet normal -1 0 0
    outer loop
      vertex -17 -14.1104 -14.8014
      vertex -17 -9.88959 -14.8014
      vertex -17 -14.1104 -15.1986
    endloop
  endfacet
  facet normal -1 0 0
    outer loop
      vertex -17 -9.88959 -14.8014
      vertex -17 -14.1104 -14.8014
      vertex -17 -9.80701 -14.4129
    endloop
  endfacet
  facet normal -1 0 0
    outer loop
      vertex -17 -14.193 -14.4129
      vertex -17 -9.80701 -14.4129
      vertex -17 -14.1104 -14.8014
    endloop
  endfacet
  facet normal -1 0 0
    outer loop
      vertex -17 -9.80701 -14.4129
      vertex -17 -14.193 -14.4129
      vertex -17 -9.64545 -14.05
    endloop
  endfacet
  facet normal -1 0 0
    outer loop
      vertex -17 -14.3546 -14.05
      vertex -17 -9.64545 -14.05
      vertex -17 -14.193 -14.4129
    endloop
  endfacet
  facet normal -1 0 0
    outer loop
      vertex -17 -9.64545 -14.05
      vertex -17 -14.3546 -14.05
      vertex -17 -9.41197 -13.7287
    endloop
  endfacet
  facet normal -1 0 0
    outer loop
      vertex -17 -14.588 -13.7287
      vertex -17 -9.41197 -13.7287
      vertex -17 -14.3546 -14.05
    endloop
  endfacet
  facet normal -1 0 0
    outer loop
      vertex -17 -9.41197 -13.7287
      vertex -17 -14.588 -13.7287
      vertex -17 -9.11679 -13.4629
    endloop
  endfacet
  facet normal -1 0 0
    outer loop
      vertex -17 -14.8832 -13.4629
      vertex -17 -9.11679 -13.4629
      vertex -17 -14.588 -13.7287
    endloop
  endfacet
  facet normal -1 0 0
    outer loop
      vertex -17 -9.11679 -13.4629
      vertex -17 -14.8832 -13.4629
      vertex -17 -8.7728 -13.2643
    endloop
  endfacet
  facet normal -1 0 0
    outer loop
      vertex -17 -15.2272 -13.2643
      vertex -17 -8.7728 -13.2643
      vertex -17 -14.8832 -13.4629
    endloop
  endfacet
  facet normal -1 0 0
    outer loop
      vertex -17 -15.605 -13.1415
      vertex -17 -8.7728 -13.2643
      vertex -17 -15.2272 -13.2643
    endloop
  endfacet
  facet normal -1 0 0
    outer loop
      vertex -17 -8.39503 -13.1415
      vertex -17 -15.605 -13.1415
      vertex -17 -3 -10
    endloop
  endfacet
  facet normal -1 0 0
    outer loop
      vertex -17 -16 -13.1
      vertex -17 -3 -10
      vertex -17 -15.605 -13.1415
    endloop
  endfacet
  facet normal -1 0 0
    outer loop
      vertex -17 -16.395 -13.1415
      vertex -17 -3 -10
      vertex -17 -16 -13.1
    endloop
  endfacet
  facet normal -1 0 0
    outer loop
      vertex -17 -83.0548 -20
      vertex -17 -17.807 -14.4129
      vertex -17 -17.8896 -14.8014
    endloop
  endfacet
  facet normal -1 0 0
    outer loop
      vertex -17 -83.0548 -20
      vertex -17 -17.6454 -14.05
      vertex -17 -17.807 -14.4129
    endloop
  endfacet
  facet normal -1 0 0
    outer loop
      vertex -17 -83.0548 -20
      vertex -17 -17.412 -13.7287
      vertex -17 -17.6454 -14.05
    endloop
  endfacet
  facet normal -1 0 0
    outer loop
      vertex -17 -83.0548 -20
      vertex -17 -17.1168 -13.4629
      vertex -17 -17.412 -13.7287
    endloop
  endfacet
  facet normal -1 0 0
    outer loop
      vertex -17 -100 -10
      vertex -17 -17.1168 -13.4629
      vertex -17 -83.0548 -20
    endloop
  endfacet
  facet normal -1 0 0
    outer loop
      vertex -17 -17.1168 -13.4629
      vertex -17 -100 -10
      vertex -17 -16.7728 -13.2643
    endloop
  endfacet
  facet normal -1 0 0
    outer loop
      vertex -17 -16.7728 -13.2643
      vertex -17 -100 -10
      vertex -17 -16.395 -13.1415
    endloop
  endfacet
  facet normal -1 0 0
    outer loop
      vertex -17 -86.9175 -22.3416
      vertex -17 -83.4894 -23.0902
      vertex -17 -84.3397 -25
    endloop
  endfacet
  facet normal -1 0 0
    outer loop
      vertex -17 -87.7893 -23.5416
      vertex -17 -84.3397 -25
      vertex -17 -85.5686 -26.6913
    endloop
  endfacet
  facet normal -1 0 0
    outer loop
      vertex -17 -83.0548 -21.0453
      vertex -17 -86.8131 -21.8509
      vertex -17 -86.8131 -21.3491
    endloop
  endfacet
  facet normal -1 0 0
    outer loop
      vertex -17 -86.9175 -20.8584
      vertex -17 -83.0548 -21.0453
      vertex -17 -86.8131 -21.3491
    endloop
  endfacet
  facet normal -1 0 0
    outer loop
      vertex -17 -83.0548 -21.0453
      vertex -17 -86.9175 -20.8584
      vertex -17 -83.0548 -20
    endloop
  endfacet
  facet normal -1 0 0
    outer loop
      vertex -17 -87.1215 -20.4
      vertex -17 -83.0548 -20
      vertex -17 -86.9175 -20.8584
    endloop
  endfacet
  facet normal -1 0 0
    outer loop
      vertex -17 -87.4165 -19.9941
      vertex -17 -83.0548 -20
      vertex -17 -87.1215 -20.4
    endloop
  endfacet
  facet normal -1 0 0
    outer loop
      vertex -17 -87.7893 -19.6584
      vertex -17 -83.0548 -20
      vertex -17 -87.4165 -19.9941
    endloop
  endfacet
  facet normal -1 0 0
    outer loop
      vertex -17 -88.2238 -19.4075
      vertex -17 -83.0548 -20
      vertex -17 -87.7893 -19.6584
    endloop
  endfacet
  facet normal -1 0 0
    outer loop
      vertex -17 -88.701 -19.2524
      vertex -17 -83.0548 -20
      vertex -17 -88.2238 -19.4075
    endloop
  endfacet
  facet normal -1 0 0
    outer loop
      vertex -17 -83.0548 -20
      vertex -17 -88.701 -19.2524
      vertex -17 -100 -10
    endloop
  endfacet
  facet normal -1 0 0
    outer loop
      vertex -17 -100 -10
      vertex -17 -88.701 -19.2524
      vertex -17 -89.2 -19.2
    endloop
  endfacet
  facet normal -1 0 0
    outer loop
      vertex -17 -100 -10
      vertex -17 -89.2 -19.2
      vertex -17 -89.699 -19.2524
    endloop
  endfacet
  facet normal -1 0 0
    outer loop
      vertex -17 -91.5869 -21.8509
      vertex -17 -93.6131 -21.8509
      vertex -17 -91.5869 -21.3491
    endloop
  endfacet
  facet normal -1 0 0
    outer loop
      vertex -17 -93.6131 -21.3491
      vertex -17 -91.5869 -21.3491
      vertex -17 -93.6131 -21.8509
    endloop
  endfacet
  facet normal -1 0 0
    outer loop
      vertex -17 -91.5869 -21.3491
      vertex -17 -93.6131 -21.3491
      vertex -17 -91.4825 -20.8584
    endloop
  endfacet
  facet normal -1 0 0
    outer loop
      vertex -17 -93.7175 -20.8584
      vertex -17 -91.4825 -20.8584
      vertex -17 -93.6131 -21.3491
    endloop
  endfacet
  facet normal -1 0 0
    outer loop
      vertex -17 -91.4825 -20.8584
      vertex -17 -93.7175 -20.8584
      vertex -17 -91.2785 -20.4
    endloop
  endfacet
  facet normal -1 0 0
    outer loop
      vertex -17 -93.9215 -20.4
      vertex -17 -91.2785 -20.4
      vertex -17 -93.7175 -20.8584
    endloop
  endfacet
  facet normal -1 0 0
    outer loop
      vertex -17 -91.2785 -20.4
      vertex -17 -93.9215 -20.4
      vertex -17 -90.9836 -19.9941
    endloop
  endfacet
  facet normal -1 0 0
    outer loop
      vertex -17 -94.2165 -19.9941
      vertex -17 -90.9836 -19.9941
      vertex -17 -93.9215 -20.4
    endloop
  endfacet
  facet normal -1 0 0
    outer loop
      vertex -17 -90.9836 -19.9941
      vertex -17 -94.2165 -19.9941
      vertex -17 -90.6107 -19.6584
    endloop
  endfacet
  facet normal -1 0 0
    outer loop
      vertex -17 -94.5893 -19.6584
      vertex -17 -90.6107 -19.6584
      vertex -17 -94.2165 -19.9941
    endloop
  endfacet
  facet normal -1 0 0
    outer loop
      vertex -17 -90.6107 -19.6584
      vertex -17 -94.5893 -19.6584
      vertex -17 -90.1762 -19.4075
    endloop
  endfacet
  facet normal -1 0 0
    outer loop
      vertex -17 -95.0238 -19.4075
      vertex -17 -90.1762 -19.4075
      vertex -17 -94.5893 -19.6584
    endloop
  endfacet
  facet normal -1 0 0
    outer loop
      vertex -17 -100 -10.8427
      vertex -17 -90.1762 -19.4075
      vertex -17 -95.0238 -19.4075
    endloop
  endfacet
  facet normal -1 0 0
    outer loop
      vertex -17 -90.1762 -19.4075
      vertex -17 -100 -10.8427
      vertex -17 -89.699 -19.2524
    endloop
  endfacet
  facet normal -1 0 0
    outer loop
      vertex -17 -100 -10.8427
      vertex -17 -95.0238 -19.4075
      vertex -17 -95.501 -19.2524
    endloop
  endfacet
  facet normal -1 0 0
    outer loop
      vertex -17 -100 -10.8427
      vertex -17 -95.501 -19.2524
      vertex -17 -96 -19.2
    endloop
  endfacet
  facet normal -1 0 0
    outer loop
      vertex -17 -100 -10.8427
      vertex -17 -98.2825 -20.8584
      vertex -17 -98.3869 -21.3491
    endloop
  endfacet
  facet normal -1 0 0
    outer loop
      vertex -17 -100 -10.8427
      vertex -17 -98.0785 -20.4
      vertex -17 -98.2825 -20.8584
    endloop
  endfacet
  facet normal -1 0 0
    outer loop
      vertex -17 -100 -10.8427
      vertex -17 -97.7835 -19.9941
      vertex -17 -98.0785 -20.4
    endloop
  endfacet
  facet normal -1 0 0
    outer loop
      vertex -17 -100 -10.8427
      vertex -17 -97.4107 -19.6584
      vertex -17 -97.7835 -19.9941
    endloop
  endfacet
  facet normal -1 0 0
    outer loop
      vertex -17 -100 -10.8427
      vertex -17 -96.9762 -19.4075
      vertex -17 -97.4107 -19.6584
    endloop
  endfacet
  facet normal -1 0 0
    outer loop
      vertex -17 -100 -10.8427
      vertex -17 -96.499 -19.2524
      vertex -17 -96.9762 -19.4075
    endloop
  endfacet
  facet normal -1 0 0
    outer loop
      vertex -17 -100 -10.8427
      vertex -17 -96 -19.2
      vertex -17 -96.499 -19.2524
    endloop
  endfacet
  facet normal -1 0 0
    outer loop
      vertex -17 -89.699 -19.2524
      vertex -17 -100 -10.8427
      vertex -17 -100 -10
    endloop
  endfacet
  facet normal -1 0 0
    outer loop
      vertex -17 -16.395 -13.1415
      vertex -17 -100 -10
      vertex -17 -3 -10
    endloop
  endfacet
  facet normal 0 -0.499899 -0.866084
    outer loop
      vertex -17 -101.878 -28.0902
      vertex -7 -100.067 -29.1355
      vertex -7 -101.878 -28.0902
    endloop
  endfacet
  facet normal -0 -0.499899 -0.866084
    outer loop
      vertex -7 -100.067 -29.1355
      vertex -17 -101.878 -28.0902
      vertex -17 -100.067 -29.1355
    endloop
  endfacet
  facet normal 0 -0.978211 0.207611
    outer loop
      vertex -17 -105.945 -18.9547
      vertex -7 -105.511 -16.9098
      vertex -17 -105.511 -16.9098
    endloop
  endfacet
  facet normal 0 -0.978211 0.207611
    outer loop
      vertex -7 -105.511 -16.9098
      vertex -17 -105.945 -18.9547
      vertex -7 -105.945 -18.9547
    endloop
  endfacet
  facet normal 0 -0.309057 -0.951044
    outer loop
      vertex -17 -100.067 -29.1355
      vertex -7 -98.0791 -29.7815
      vertex -7 -100.067 -29.1355
    endloop
  endfacet
  facet normal -0 -0.309057 -0.951044
    outer loop
      vertex -7 -98.0791 -29.7815
      vertex -17 -100.067 -29.1355
      vertex -17 -98.0791 -29.7815
    endloop
  endfacet
  facet normal 0 -0.104518 -0.994523
    outer loop
      vertex -17 -98.0791 -29.7815
      vertex -7 -96 -30
      vertex -7 -98.0791 -29.7815
    endloop
  endfacet
  facet normal -0 -0.104518 -0.994523
    outer loop
      vertex -7 -96 -30
      vertex -17 -98.0791 -29.7815
      vertex -17 -96 -30
    endloop
  endfacet
  facet normal 1 0 0
    outer loop
      vertex -7 -3 -10
      vertex -7 -6.11041 -14.8014
      vertex -7 -3 -20
    endloop
  endfacet
  facet normal 1 0 0
    outer loop
      vertex -7 -3 -10
      vertex -7 -6.19299 -14.4129
      vertex -7 -6.11041 -14.8014
    endloop
  endfacet
  facet normal 1 0 0
    outer loop
      vertex -7 -3 -10
      vertex -7 -6.35455 -14.05
      vertex -7 -6.19299 -14.4129
    endloop
  endfacet
  facet normal 1 0 0
    outer loop
      vertex -7 -3 -10
      vertex -7 -6.58802 -13.7287
      vertex -7 -6.35455 -14.05
    endloop
  endfacet
  facet normal 1 0 0
    outer loop
      vertex -7 -3 -10
      vertex -7 -6.88321 -13.4629
      vertex -7 -6.58802 -13.7287
    endloop
  endfacet
  facet normal 1 0 0
    outer loop
      vertex -7 -3 -10
      vertex -7 -7.2272 -13.2643
      vertex -7 -6.88321 -13.4629
    endloop
  endfacet
  facet normal 1 0 0
    outer loop
      vertex -7 -3 -10
      vertex -7 -7.60497 -13.1415
      vertex -7 -7.2272 -13.2643
    endloop
  endfacet
  facet normal 1 0 0
    outer loop
      vertex -7 -3 -10
      vertex -7 -8 -13.1
      vertex -7 -7.60497 -13.1415
    endloop
  endfacet
  facet normal 1 0 0
    outer loop
      vertex -7 -3 -10
      vertex -7 -8.39503 -13.1415
      vertex -7 -8 -13.1
    endloop
  endfacet
  facet normal 1 0 0
    outer loop
      vertex -7 -15.605 -13.1415
      vertex -7 -8.39503 -13.1415
      vertex -7 -3 -10
    endloop
  endfacet
  facet normal 1 0 0
    outer loop
      vertex -7 -9.88959 -14.8014
      vertex -7 -14.1104 -14.8014
      vertex -7 -9.88959 -15.1986
    endloop
  endfacet
  facet normal 1 0 0
    outer loop
      vertex -7 -9.80701 -14.4129
      vertex -7 -14.1104 -14.8014
      vertex -7 -9.88959 -14.8014
    endloop
  endfacet
  facet normal 1 0 0
    outer loop
      vertex -7 -14.193 -14.4129
      vertex -7 -9.80701 -14.4129
      vertex -7 -9.64545 -14.05
    endloop
  endfacet
  facet normal 1 0 0
    outer loop
      vertex -7 -14.3546 -14.05
      vertex -7 -9.64545 -14.05
      vertex -7 -9.41197 -13.7287
    endloop
  endfacet
  facet normal 1 0 0
    outer loop
      vertex -7 -14.588 -13.7287
      vertex -7 -9.41197 -13.7287
      vertex -7 -9.11679 -13.4629
    endloop
  endfacet
  facet normal 1 0 0
    outer loop
      vertex -7 -14.8832 -13.4629
      vertex -7 -9.11679 -13.4629
      vertex -7 -8.7728 -13.2643
    endloop
  endfacet
  facet normal 1 0 0
    outer loop
      vertex -7 -8.39503 -13.1415
      vertex -7 -15.605 -13.1415
      vertex -7 -8.7728 -13.2643
    endloop
  endfacet
  facet normal 1 0 0
    outer loop
      vertex -7 -9.80701 -14.4129
      vertex -7 -14.193 -14.4129
      vertex -7 -14.1104 -14.8014
    endloop
  endfacet
  facet normal 1 0 0
    outer loop
      vertex -7 -9.64545 -14.05
      vertex -7 -14.3546 -14.05
      vertex -7 -14.193 -14.4129
    endloop
  endfacet
  facet normal 1 0 0
    outer loop
      vertex -7 -9.41197 -13.7287
      vertex -7 -14.588 -13.7287
      vertex -7 -14.3546 -14.05
    endloop
  endfacet
  facet normal 1 0 0
    outer loop
      vertex -7 -9.11679 -13.4629
      vertex -7 -14.8832 -13.4629
      vertex -7 -14.588 -13.7287
    endloop
  endfacet
  facet normal 1 0 0
    outer loop
      vertex -7 -8.7728 -13.2643
      vertex -7 -15.2272 -13.2643
      vertex -7 -14.8832 -13.4629
    endloop
  endfacet
  facet normal 1 0 0
    outer loop
      vertex -7 -8.7728 -13.2643
      vertex -7 -15.605 -13.1415
      vertex -7 -15.2272 -13.2643
    endloop
  endfacet
  facet normal 1 0 0
    outer loop
      vertex -7 -3 -10
      vertex -7 -16 -13.1
      vertex -7 -15.605 -13.1415
    endloop
  endfacet
  facet normal 1 0 0
    outer loop
      vertex -7 -3 -10
      vertex -7 -16.395 -13.1415
      vertex -7 -16 -13.1
    endloop
  endfacet
  facet normal 1 0 0
    outer loop
      vertex -7 -17.8896 -14.8014
      vertex -7 -83.0548 -20
      vertex -7 -17.8896 -15.1986
    endloop
  endfacet
  facet normal 1 0 0
    outer loop
      vertex -7 -17.807 -14.4129
      vertex -7 -83.0548 -20
      vertex -7 -17.8896 -14.8014
    endloop
  endfacet
  facet normal 1 0 0
    outer loop
      vertex -7 -17.6454 -14.05
      vertex -7 -83.0548 -20
      vertex -7 -17.807 -14.4129
    endloop
  endfacet
  facet normal 1 0 0
    outer loop
      vertex -7 -17.412 -13.7287
      vertex -7 -83.0548 -20
      vertex -7 -17.6454 -14.05
    endloop
  endfacet
  facet normal 1 0 0
    outer loop
      vertex -7 -17.1168 -13.4629
      vertex -7 -83.0548 -20
      vertex -7 -17.412 -13.7287
    endloop
  endfacet
  facet normal 1 0 0
    outer loop
      vertex -7 -100 -10
      vertex -7 -17.1168 -13.4629
      vertex -7 -16.7728 -13.2643
    endloop
  endfacet
  facet normal 1 0 0
    outer loop
      vertex -7 -100 -10
      vertex -7 -16.7728 -13.2643
      vertex -7 -16.395 -13.1415
    endloop
  endfacet
  facet normal 1 -0 0
    outer loop
      vertex -7 -100 -10
      vertex -7 -16.395 -13.1415
      vertex -7 -3 -10
    endloop
  endfacet
  facet normal 1 -0 0
    outer loop
      vertex -7 -86.9175 -20.8584
      vertex -7 -83.0548 -21.0453
      vertex -7 -83.0548 -20
    endloop
  endfacet
  facet normal 1 0 0
    outer loop
      vertex -7 -86.8131 -21.8509
      vertex -7 -83.0548 -21.0453
      vertex -7 -86.8131 -21.3491
    endloop
  endfacet
  facet normal 1 -0 0
    outer loop
      vertex -7 -86.9175 -22.3416
      vertex -7 -83.4894 -23.0902
      vertex -7 -86.8131 -21.8509
    endloop
  endfacet
  facet normal 1 0 0
    outer loop
      vertex -7 -83.0548 -21.0453
      vertex -7 -86.8131 -21.8509
      vertex -7 -83.4894 -23.0902
    endloop
  endfacet
  facet normal 1 0 0
    outer loop
      vertex -7 -83.0548 -21.0453
      vertex -7 -86.9175 -20.8584
      vertex -7 -86.8131 -21.3491
    endloop
  endfacet
  facet normal 1 0 0
    outer loop
      vertex -7 -83.0548 -20
      vertex -7 -87.1215 -20.4
      vertex -7 -86.9175 -20.8584
    endloop
  endfacet
  facet normal 1 0 0
    outer loop
      vertex -7 -17.1168 -13.4629
      vertex -7 -100 -10
      vertex -7 -83.0548 -20
    endloop
  endfacet
  facet normal 1 0 0
    outer loop
      vertex -7 -83.0548 -20
      vertex -7 -87.4165 -19.9941
      vertex -7 -87.1215 -20.4
    endloop
  endfacet
  facet normal 1 0 0
    outer loop
      vertex -7 -83.0548 -20
      vertex -7 -87.7893 -19.6584
      vertex -7 -87.4165 -19.9941
    endloop
  endfacet
  facet normal 1 -0 -0
    outer loop
      vertex -7 -88.701 -19.2524
      vertex -7 -83.0548 -20
      vertex -7 -100 -10
    endloop
  endfacet
  facet normal 1 0 0
    outer loop
      vertex -7 -83.0548 -20
      vertex -7 -88.2238 -19.4075
      vertex -7 -87.7893 -19.6584
    endloop
  endfacet
  facet normal 1 0 0
    outer loop
      vertex -7 -83.0548 -20
      vertex -7 -88.701 -19.2524
      vertex -7 -88.2238 -19.4075
    endloop
  endfacet
  facet normal 1 0 0
    outer loop
      vertex -7 -88.701 -19.2524
      vertex -7 -100 -10
      vertex -7 -89.2 -19.2
    endloop
  endfacet
  facet normal 1 0 0
    outer loop
      vertex -7 -93.6131 -21.8509
      vertex -7 -91.5869 -21.8509
      vertex -7 -91.5869 -21.3491
    endloop
  endfacet
  facet normal 1 0 0
    outer loop
      vertex -7 -93.6131 -21.8509
      vertex -7 -91.5869 -21.3491
      vertex -7 -93.6131 -21.3491
    endloop
  endfacet
  facet normal 1 0 0
    outer loop
      vertex -7 -91.4825 -20.8584
      vertex -7 -93.6131 -21.3491
      vertex -7 -91.5869 -21.3491
    endloop
  endfacet
  facet normal 1 0 0
    outer loop
      vertex -7 -93.7175 -20.8584
      vertex -7 -91.4825 -20.8584
      vertex -7 -91.2785 -20.4
    endloop
  endfacet
  facet normal 1 0 0
    outer loop
      vertex -7 -93.9215 -20.4
      vertex -7 -91.2785 -20.4
      vertex -7 -90.9836 -19.9941
    endloop
  endfacet
  facet normal 1 0 0
    outer loop
      vertex -7 -94.2165 -19.9941
      vertex -7 -90.9836 -19.9941
      vertex -7 -90.6107 -19.6584
    endloop
  endfacet
  facet normal 1 0 0
    outer loop
      vertex -7 -94.5893 -19.6584
      vertex -7 -90.6107 -19.6584
      vertex -7 -90.1762 -19.4075
    endloop
  endfacet
  facet normal 1 0 0
    outer loop
      vertex -7 -91.4825 -20.8584
      vertex -7 -93.7175 -20.8584
      vertex -7 -93.6131 -21.3491
    endloop
  endfacet
  facet normal 1 0 0
    outer loop
      vertex -7 -91.2785 -20.4
      vertex -7 -93.9215 -20.4
      vertex -7 -93.7175 -20.8584
    endloop
  endfacet
  facet normal 1 0 0
    outer loop
      vertex -7 -100 -10.8427
      vertex -7 -90.1762 -19.4075
      vertex -7 -89.699 -19.2524
    endloop
  endfacet
  facet normal 1 0 0
    outer loop
      vertex -7 -90.9836 -19.9941
      vertex -7 -94.2165 -19.9941
      vertex -7 -93.9215 -20.4
    endloop
  endfacet
  facet normal 1 0 0
    outer loop
      vertex -7 -90.6107 -19.6584
      vertex -7 -94.5893 -19.6584
      vertex -7 -94.2165 -19.9941
    endloop
  endfacet
  facet normal 1 0 0
    outer loop
      vertex -7 -89.2 -19.2
      vertex -7 -100 -10
      vertex -7 -89.699 -19.2524
    endloop
  endfacet
  facet normal 1 -0 0
    outer loop
      vertex -7 -100 -10.8427
      vertex -7 -89.699 -19.2524
      vertex -7 -100 -10
    endloop
  endfacet
  facet normal 1 0 0
    outer loop
      vertex -7 -90.1762 -19.4075
      vertex -7 -100 -10.8427
      vertex -7 -95.0238 -19.4075
    endloop
  endfacet
  facet normal 1 0 0
    outer loop
      vertex -7 -90.1762 -19.4075
      vertex -7 -95.0238 -19.4075
      vertex -7 -94.5893 -19.6584
    endloop
  endfacet
  facet normal 1 -0 0
    outer loop
      vertex -7 -104.66 -15
      vertex -7 -97.7835 -19.9941
      vertex -7 -103.431 -13.3087
    endloop
  endfacet
  facet normal 1 0 0
    outer loop
      vertex -7 -97.4107 -19.6584
      vertex -7 -103.431 -13.3087
      vertex -7 -97.7835 -19.9941
    endloop
  endfacet
  facet normal 1 -0 0
    outer loop
      vertex -7 -103.431 -13.3087
      vertex -7 -97.4107 -19.6584
      vertex -7 -101.878 -11.9098
    endloop
  endfacet
  facet normal 1 0 0
    outer loop
      vertex -7 -96.9762 -19.4075
      vertex -7 -101.878 -11.9098
      vertex -7 -97.4107 -19.6584
    endloop
  endfacet
  facet normal 1 -0 0
    outer loop
      vertex -7 -101.878 -11.9098
      vertex -7 -96.9762 -19.4075
      vertex -7 -100 -10.8427
    endloop
  endfacet
  facet normal 1 0 0
    outer loop
      vertex -7 -96.499 -19.2524
      vertex -7 -100 -10.8427
      vertex -7 -96.9762 -19.4075
    endloop
  endfacet
  facet normal 1 0 0
    outer loop
      vertex -7 -96 -19.2
      vertex -7 -100 -10.8427
      vertex -7 -96.499 -19.2524
    endloop
  endfacet
  facet normal 1 0 0
    outer loop
      vertex -7 -95.501 -19.2524
      vertex -7 -100 -10.8427
      vertex -7 -96 -19.2
    endloop
  endfacet
  facet normal 1 0 0
    outer loop
      vertex -7 -95.0238 -19.4075
      vertex -7 -100 -10.8427
      vertex -7 -95.501 -19.2524
    endloop
  endfacet
  facet normal 1 -0 0
    outer loop
      vertex -7 -6.11041 -15.1986
      vertex -7 -3 -20
      vertex -7 -6.11041 -14.8014
    endloop
  endfacet
  facet normal 1 -0 0
    outer loop
      vertex -7 -6.19299 -15.5871
      vertex -7 -3 -20
      vertex -7 -6.11041 -15.1986
    endloop
  endfacet
  facet normal 1 -0 0
    outer loop
      vertex -7 -6.35455 -15.95
      vertex -7 -3 -20
      vertex -7 -6.19299 -15.5871
    endloop
  endfacet
  facet normal 1 -0 0
    outer loop
      vertex -7 -6.58802 -16.2713
      vertex -7 -3 -20
      vertex -7 -6.35455 -15.95
    endloop
  endfacet
  facet normal 1 -0 0
    outer loop
      vertex -7 -6.88321 -16.5371
      vertex -7 -3 -20
      vertex -7 -6.58802 -16.2713
    endloop
  endfacet
  facet normal 1 -0 0
    outer loop
      vertex -7 -7.2272 -16.7357
      vertex -7 -3 -20
      vertex -7 -6.88321 -16.5371
    endloop
  endfacet
  facet normal 1 -0 0
    outer loop
      vertex -7 -7.60497 -16.8585
      vertex -7 -3 -20
      vertex -7 -7.2272 -16.7357
    endloop
  endfacet
  facet normal 1 -0 0
    outer loop
      vertex -7 -8 -16.9
      vertex -7 -3 -20
      vertex -7 -7.60497 -16.8585
    endloop
  endfacet
  facet normal 1 0 0
    outer loop
      vertex -7 -8.39503 -16.8585
      vertex -7 -3 -20
      vertex -7 -8 -16.9
    endloop
  endfacet
  facet normal 1 0 0
    outer loop
      vertex -7 -15.605 -16.8585
      vertex -7 -8.39503 -16.8585
      vertex -7 -8.7728 -16.7357
    endloop
  endfacet
  facet normal 1 0 0
    outer loop
      vertex -7 -14.1104 -15.1986
      vertex -7 -9.88959 -15.1986
      vertex -7 -14.1104 -14.8014
    endloop
  endfacet
  facet normal 1 0 0
    outer loop
      vertex -7 -9.88959 -15.1986
      vertex -7 -14.1104 -15.1986
      vertex -7 -9.80701 -15.5871
    endloop
  endfacet
  facet normal 1 0 0
    outer loop
      vertex -7 -14.193 -15.5871
      vertex -7 -9.80701 -15.5871
      vertex -7 -14.1104 -15.1986
    endloop
  endfacet
  facet normal 1 0 0
    outer loop
      vertex -7 -9.80701 -15.5871
      vertex -7 -14.193 -15.5871
      vertex -7 -9.64545 -15.95
    endloop
  endfacet
  facet normal 1 0 0
    outer loop
      vertex -7 -14.3546 -15.95
      vertex -7 -9.64545 -15.95
      vertex -7 -14.193 -15.5871
    endloop
  endfacet
  facet normal 1 0 0
    outer loop
      vertex -7 -9.64545 -15.95
      vertex -7 -14.3546 -15.95
      vertex -7 -9.41197 -16.2713
    endloop
  endfacet
  facet normal 1 0 0
    outer loop
      vertex -7 -14.588 -16.2713
      vertex -7 -9.41197 -16.2713
      vertex -7 -14.3546 -15.95
    endloop
  endfacet
  facet normal 1 0 0
    outer loop
      vertex -7 -9.41197 -16.2713
      vertex -7 -14.588 -16.2713
      vertex -7 -9.11679 -16.5371
    endloop
  endfacet
  facet normal 1 0 0
    outer loop
      vertex -7 -14.8832 -16.5371
      vertex -7 -9.11679 -16.5371
      vertex -7 -14.588 -16.2713
    endloop
  endfacet
  facet normal 1 0 0
    outer loop
      vertex -7 -9.11679 -16.5371
      vertex -7 -14.8832 -16.5371
      vertex -7 -8.7728 -16.7357
    endloop
  endfacet
  facet normal 1 0 0
    outer loop
      vertex -7 -15.2272 -16.7357
      vertex -7 -8.7728 -16.7357
      vertex -7 -14.8832 -16.5371
    endloop
  endfacet
  facet normal 1 0 0
    outer loop
      vertex -7 -15.605 -16.8585
      vertex -7 -8.7728 -16.7357
      vertex -7 -15.2272 -16.7357
    endloop
  endfacet
  facet normal 1 0 0
    outer loop
      vertex -7 -8.39503 -16.8585
      vertex -7 -15.605 -16.8585
      vertex -7 -3 -20
    endloop
  endfacet
  facet normal 1 -0 0
    outer loop
      vertex -7 -16 -16.9
      vertex -7 -3 -20
      vertex -7 -15.605 -16.8585
    endloop
  endfacet
  facet normal 1 0 0
    outer loop
      vertex -7 -16.395 -16.8585
      vertex -7 -3 -20
      vertex -7 -16 -16.9
    endloop
  endfacet
  facet normal 1 0 0
    outer loop
      vertex -7 -16.395 -16.8585
      vertex -7 -83.0548 -20
      vertex -7 -3 -20
    endloop
  endfacet
  facet normal 1 0 0
    outer loop
      vertex -7 -16.7728 -16.7357
      vertex -7 -83.0548 -20
      vertex -7 -16.395 -16.8585
    endloop
  endfacet
  facet normal 1 0 0
    outer loop
      vertex -7 -17.1168 -16.5371
      vertex -7 -83.0548 -20
      vertex -7 -16.7728 -16.7357
    endloop
  endfacet
  facet normal 1 0 0
    outer loop
      vertex -7 -17.412 -16.2713
      vertex -7 -83.0548 -20
      vertex -7 -17.1168 -16.5371
    endloop
  endfacet
  facet normal 1 0 0
    outer loop
      vertex -7 -17.6454 -15.95
      vertex -7 -83.0548 -20
      vertex -7 -17.412 -16.2713
    endloop
  endfacet
  facet normal 1 0 0
    outer loop
      vertex -7 -17.807 -15.5871
      vertex -7 -83.0548 -20
      vertex -7 -17.6454 -15.95
    endloop
  endfacet
  facet normal 1 0 0
    outer loop
      vertex -7 -83.0548 -20
      vertex -7 -17.807 -15.5871
      vertex -7 -17.8896 -15.1986
    endloop
  endfacet
  facet normal 1 -0 0
    outer loop
      vertex -7 -87.1215 -22.8
      vertex -7 -83.4894 -23.0902
      vertex -7 -86.9175 -22.3416
    endloop
  endfacet
  facet normal 1 0 0
    outer loop
      vertex -7 -83.4894 -23.0902
      vertex -7 -87.1215 -22.8
      vertex -7 -84.3397 -25
    endloop
  endfacet
  facet normal 1 -0 0
    outer loop
      vertex -7 -87.4165 -23.2059
      vertex -7 -84.3397 -25
      vertex -7 -87.1215 -22.8
    endloop
  endfacet
  facet normal 1 -0 0
    outer loop
      vertex -7 -87.7893 -23.5416
      vertex -7 -84.3397 -25
      vertex -7 -87.4165 -23.2059
    endloop
  endfacet
  facet normal 1 0 0
    outer loop
      vertex -7 -84.3397 -25
      vertex -7 -87.7893 -23.5416
      vertex -7 -85.5686 -26.6913
    endloop
  endfacet
  facet normal 1 -0 0
    outer loop
      vertex -7 -88.2238 -23.7925
      vertex -7 -85.5686 -26.6913
      vertex -7 -87.7893 -23.5416
    endloop
  endfacet
  facet normal 1 0 0
    outer loop
      vertex -7 -85.5686 -26.6913
      vertex -7 -88.2238 -23.7925
      vertex -7 -87.1221 -28.0902
    endloop
  endfacet
  facet normal 1 -0 0
    outer loop
      vertex -7 -88.701 -23.9476
      vertex -7 -87.1221 -28.0902
      vertex -7 -88.2238 -23.7925
    endloop
  endfacet
  facet normal 1 -0 0
    outer loop
      vertex -7 -89.2 -24
      vertex -7 -87.1221 -28.0902
      vertex -7 -88.701 -23.9476
    endloop
  endfacet
  facet normal 1 0 0
    outer loop
      vertex -7 -87.1221 -28.0902
      vertex -7 -89.2 -24
      vertex -7 -88.9326 -29.1355
    endloop
  endfacet
  facet normal 1 0 0
    outer loop
      vertex -7 -89.699 -23.9476
      vertex -7 -88.9326 -29.1355
      vertex -7 -89.2 -24
    endloop
  endfacet
  facet normal 1 0 0
    outer loop
      vertex -7 -90.9209 -29.7815
      vertex -7 -89.699 -23.9476
      vertex -7 -90.1762 -23.7925
    endloop
  endfacet
  facet normal 1 0 0
    outer loop
      vertex -7 -90.9209 -29.7815
      vertex -7 -90.1762 -23.7925
      vertex -7 -90.6107 -23.5416
    endloop
  endfacet
  facet normal 1 0 0
    outer loop
      vertex -7 -89.699 -23.9476
      vertex -7 -90.9209 -29.7815
      vertex -7 -88.9326 -29.1355
    endloop
  endfacet
  facet normal 1 0 0
    outer loop
      vertex -7 -93 -30
      vertex -7 -90.6107 -23.5416
      vertex -7 -90.9836 -23.2059
    endloop
  endfacet
  facet normal 1 0 0
    outer loop
      vertex -7 -93 -30
      vertex -7 -90.9836 -23.2059
      vertex -7 -91.2785 -22.8
    endloop
  endfacet
  facet normal 1 0 0
    outer loop
      vertex -7 -93 -30
      vertex -7 -91.2785 -22.8
      vertex -7 -91.4825 -22.3416
    endloop
  endfacet
  facet normal 1 0 0
    outer loop
      vertex -7 -93 -30
      vertex -7 -91.4825 -22.3416
      vertex -7 -91.5869 -21.8509
    endloop
  endfacet
  facet normal 1 0 0
    outer loop
      vertex -7 -90.6107 -23.5416
      vertex -7 -93 -30
      vertex -7 -90.9209 -29.7815
    endloop
  endfacet
  facet normal 1 0 0
    outer loop
      vertex -7 -91.5869 -21.8509
      vertex -7 -93.6131 -21.8509
      vertex -7 -93.7175 -22.3416
    endloop
  endfacet
  facet normal 1 0 0
    outer loop
      vertex -7 -91.5869 -21.8509
      vertex -7 -93.7175 -22.3416
      vertex -7 -93.9215 -22.8
    endloop
  endfacet
  facet normal 1 0 0
    outer loop
      vertex -7 -91.5869 -21.8509
      vertex -7 -93.9215 -22.8
      vertex -7 -94.2165 -23.2059
    endloop
  endfacet
  facet normal 1 0 0
    outer loop
      vertex -7 -91.5869 -21.8509
      vertex -7 -94.2165 -23.2059
      vertex -7 -93 -30
    endloop
  endfacet
  facet normal 1 -0 0
    outer loop
      vertex -7 -94.5893 -23.5416
      vertex -7 -93 -30
      vertex -7 -94.2165 -23.2059
    endloop
  endfacet
  facet normal 1 -0 0
    outer loop
      vertex -7 -95.0238 -23.7925
      vertex -7 -93 -30
      vertex -7 -94.5893 -23.5416
    endloop
  endfacet
  facet normal 1 0 0
    outer loop
      vertex -7 -93 -30
      vertex -7 -95.0238 -23.7925
      vertex -7 -94.5 -29.8423
    endloop
  endfacet
  facet normal 1 -0 0
    outer loop
      vertex -7 -95.501 -23.9476
      vertex -7 -94.5 -29.8423
      vertex -7 -95.0238 -23.7925
    endloop
  endfacet
  facet normal 1 -0 0
    outer loop
      vertex -7 -96 -24
      vertex -7 -94.5 -29.8423
      vertex -7 -95.501 -23.9476
    endloop
  endfacet
  facet normal 1 0 0
    outer loop
      vertex -7 -96 -24
      vertex -7 -96 -30
      vertex -7 -94.5 -29.8423
    endloop
  endfacet
  facet normal 1 0 0
    outer loop
      vertex -7 -96.499 -23.9476
      vertex -7 -96 -30
      vertex -7 -96 -24
    endloop
  endfacet
  facet normal 1 0 0
    outer loop
      vertex -7 -98.0791 -29.7815
      vertex -7 -96.499 -23.9476
      vertex -7 -96.9762 -23.7925
    endloop
  endfacet
  facet normal 1 0 0
    outer loop
      vertex -7 -100.067 -29.1355
      vertex -7 -96.9762 -23.7925
      vertex -7 -97.4107 -23.5416
    endloop
  endfacet
  facet normal 1 0 0
    outer loop
      vertex -7 -101.878 -28.0902
      vertex -7 -97.4107 -23.5416
      vertex -7 -97.7835 -23.2059
    endloop
  endfacet
  facet normal 1 0 0
    outer loop
      vertex -7 -103.431 -26.6913
      vertex -7 -97.7835 -23.2059
      vertex -7 -98.0785 -22.8
    endloop
  endfacet
  facet normal 1 0 0
    outer loop
      vertex -7 -96.499 -23.9476
      vertex -7 -98.0791 -29.7815
      vertex -7 -96 -30
    endloop
  endfacet
  facet normal 1 0 0
    outer loop
      vertex -7 -103.431 -26.6913
      vertex -7 -98.0785 -22.8
      vertex -7 -98.2825 -22.3416
    endloop
  endfacet
  facet normal 1 0 0
    outer loop
      vertex -7 -104.66 -25
      vertex -7 -98.2825 -22.3416
      vertex -7 -98.3869 -21.8509
    endloop
  endfacet
  facet normal 1 -0 0
    outer loop
      vertex -7 -105.511 -16.9098
      vertex -7 -97.7835 -19.9941
      vertex -7 -104.66 -15
    endloop
  endfacet
  facet normal 1 0 0
    outer loop
      vertex -7 -97.7835 -19.9941
      vertex -7 -105.511 -16.9098
      vertex -7 -98.0785 -20.4
    endloop
  endfacet
  facet normal 1 0 0
    outer loop
      vertex -7 -101.878 -11.9098
      vertex -7 -100 -10.8427
      vertex -7 -100.067 -10.8645
    endloop
  endfacet
  facet normal 1 0 0
    outer loop
      vertex -7 -96.9762 -23.7925
      vertex -7 -100.067 -29.1355
      vertex -7 -98.0791 -29.7815
    endloop
  endfacet
  facet normal 1 -0 0
    outer loop
      vertex -7 -105.945 -18.9547
      vertex -7 -98.0785 -20.4
      vertex -7 -105.511 -16.9098
    endloop
  endfacet
  facet normal 1 0 0
    outer loop
      vertex -7 -97.4107 -23.5416
      vertex -7 -101.878 -28.0902
      vertex -7 -100.067 -29.1355
    endloop
  endfacet
  facet normal 1 0 0
    outer loop
      vertex -7 -98.0785 -20.4
      vertex -7 -105.945 -18.9547
      vertex -7 -98.2825 -20.8584
    endloop
  endfacet
  facet normal 1 0 0
    outer loop
      vertex -7 -97.7835 -23.2059
      vertex -7 -103.431 -26.6913
      vertex -7 -101.878 -28.0902
    endloop
  endfacet
  facet normal 1 0 0
    outer loop
      vertex -7 -105.945 -21.0453
      vertex -7 -98.2825 -20.8584
      vertex -7 -105.945 -18.9547
    endloop
  endfacet
  facet normal 1 0 0
    outer loop
      vertex -7 -98.2825 -22.3416
      vertex -7 -104.66 -25
      vertex -7 -103.431 -26.6913
    endloop
  endfacet
  facet normal 1 0 0
    outer loop
      vertex -7 -98.2825 -20.8584
      vertex -7 -105.945 -21.0453
      vertex -7 -98.3869 -21.3491
    endloop
  endfacet
  facet normal 1 0 0
    outer loop
      vertex -7 -98.3869 -21.8509
      vertex -7 -105.511 -23.0902
      vertex -7 -104.66 -25
    endloop
  endfacet
  facet normal 1 0 -0
    outer loop
      vertex -7 -105.511 -23.0902
      vertex -7 -98.3869 -21.3491
      vertex -7 -105.945 -21.0453
    endloop
  endfacet
  facet normal 1 0 0
    outer loop
      vertex -7 -98.3869 -21.3491
      vertex -7 -105.511 -23.0902
      vertex -7 -98.3869 -21.8509
    endloop
  endfacet
  facet normal 0 -1 0
    outer loop
      vertex -17 -105.945 -21.0453
      vertex -7 -105.945 -18.9547
      vertex -17 -105.945 -18.9547
    endloop
  endfacet
  facet normal 0 -1 -0
    outer loop
      vertex -7 -105.945 -18.9547
      vertex -17 -105.945 -21.0453
      vertex -7 -105.945 -21.0453
    endloop
  endfacet
  facet normal 0 0.104557 -0.994519
    outer loop
      vertex -17 -96 -30
      vertex -7 -94.5 -29.8423
      vertex -7 -96 -30
    endloop
  endfacet
  facet normal 0 0.104557 -0.994519
    outer loop
      vertex -7 -94.5 -29.8423
      vertex -17 -96 -30
      vertex -17 -94.5 -29.8423
    endloop
  endfacet
  facet normal 0 -0.913421 -0.407017
    outer loop
      vertex -17 -104.66 -25
      vertex -7 -105.511 -23.0902
      vertex -17 -105.511 -23.0902
    endloop
  endfacet
  facet normal 0 -0.913421 -0.407017
    outer loop
      vertex -7 -105.511 -23.0902
      vertex -17 -104.66 -25
      vertex -7 -104.66 -25
    endloop
  endfacet
  facet normal 0 0.669163 -0.743116
    outer loop
      vertex -17 -87.1221 -28.0902
      vertex -7 -85.5686 -26.6913
      vertex -7 -87.1221 -28.0902
    endloop
  endfacet
  facet normal 0 0.669163 -0.743116
    outer loop
      vertex -7 -85.5686 -26.6913
      vertex -17 -87.1221 -28.0902
      vertex -17 -85.5686 -26.6913
    endloop
  endfacet
  facet normal 0 0.309001 -0.951062
    outer loop
      vertex -17 -90.9209 -29.7815
      vertex -7 -88.9326 -29.1355
      vertex -7 -90.9209 -29.7815
    endloop
  endfacet
  facet normal 0 0.309001 -0.951062
    outer loop
      vertex -7 -88.9326 -29.1355
      vertex -17 -90.9209 -29.7815
      vertex -17 -88.9326 -29.1355
    endloop
  endfacet
  facet normal 0 0.913545 -0.406738
    outer loop
      vertex -7 -84.3397 -25
      vertex -17 -83.4894 -23.0902
      vertex -7 -83.4894 -23.0902
    endloop
  endfacet
  facet normal 0 0.913545 -0.406738
    outer loop
      vertex -17 -83.4894 -23.0902
      vertex -7 -84.3397 -25
      vertex -17 -84.3397 -25
    endloop
  endfacet
  facet normal 0 0.500003 -0.866024
    outer loop
      vertex -17 -88.9326 -29.1355
      vertex -7 -87.1221 -28.0902
      vertex -7 -88.9326 -29.1355
    endloop
  endfacet
  facet normal 0 0.500003 -0.866024
    outer loop
      vertex -7 -87.1221 -28.0902
      vertex -17 -88.9326 -29.1355
      vertex -17 -87.1221 -28.0902
    endloop
  endfacet
  facet normal 0 -0.104557 -0.994519
    outer loop
      vertex -17 -94.5 -29.8423
      vertex -7 -93 -30
      vertex -7 -94.5 -29.8423
    endloop
  endfacet
  facet normal -0 -0.104557 -0.994519
    outer loop
      vertex -7 -93 -30
      vertex -17 -94.5 -29.8423
      vertex -17 -93 -30
    endloop
  endfacet
  facet normal 0 0.808995 -0.587816
    outer loop
      vertex -7 -85.5686 -26.6913
      vertex -17 -84.3397 -25
      vertex -7 -84.3397 -25
    endloop
  endfacet
  facet normal 0 0.808995 -0.587816
    outer loop
      vertex -17 -84.3397 -25
      vertex -7 -85.5686 -26.6913
      vertex -17 -85.5686 -26.6913
    endloop
  endfacet
  facet normal 0 0.978153 -0.207886
    outer loop
      vertex -7 -83.4894 -23.0902
      vertex -17 -83.0548 -21.0453
      vertex -7 -83.0548 -21.0453
    endloop
  endfacet
  facet normal 0 0.978153 -0.207886
    outer loop
      vertex -17 -83.0548 -21.0453
      vertex -7 -83.4894 -23.0902
      vertex -17 -83.4894 -23.0902
    endloop
  endfacet
  facet normal 0 1 -0
    outer loop
      vertex -7 -83.0548 -21.0453
      vertex -17 -83.0548 -20
      vertex -7 -83.0548 -20
    endloop
  endfacet
  facet normal 0 1 0
    outer loop
      vertex -17 -83.0548 -20
      vertex -7 -83.0548 -21.0453
      vertex -17 -83.0548 -21.0453
    endloop
  endfacet
  facet normal 0 0.104518 -0.994523
    outer loop
      vertex -17 -93 -30
      vertex -7 -90.9209 -29.7815
      vertex -7 -93 -30
    endloop
  endfacet
  facet normal 0 0.104518 -0.994523
    outer loop
      vertex -7 -90.9209 -29.7815
      vertex -17 -93 -30
      vertex -17 -90.9209 -29.7815
    endloop
  endfacet
  facet normal -0 0 1
    outer loop
      vertex -17 -3 -10
      vertex -7 -100 -10
      vertex -7 -3 -10
    endloop
  endfacet
  facet normal 0 0 1
    outer loop
      vertex -7 -100 -10
      vertex -17 -3 -10
      vertex -17 -100 -10
    endloop
  endfacet
  facet normal 0 0 -1
    outer loop
      vertex -17 -83.0548 -20
      vertex -7 -3 -20
      vertex -7 -83.0548 -20
    endloop
  endfacet
  facet normal -0 0 -1
    outer loop
      vertex -7 -3 -20
      vertex -17 -83.0548 -20
      vertex -17 -3 -20
    endloop
  endfacet
  facet normal 0 1 -0
    outer loop
      vertex -7 -3 -20
      vertex -17 -3 -10
      vertex -7 -3 -10
    endloop
  endfacet
  facet normal 0 1 0
    outer loop
      vertex -17 -3 -10
      vertex -7 -3 -20
      vertex -17 -3 -20
    endloop
  endfacet
  facet normal 0 -1 0
    outer loop
      vertex -17 -100 -10.8427
      vertex -7 -100 -10
      vertex -17 -100 -10
    endloop
  endfacet
  facet normal 0 -1 -0
    outer loop
      vertex -7 -100 -10
      vertex -17 -100 -10.8427
      vertex -7 -100 -10.8427
    endloop
  endfacet
  facet normal -0 0.669163 0.743116
    outer loop
      vertex -17 -97.4107 -23.5416
      vertex -7 -97.7835 -23.2059
      vertex -7 -97.4107 -23.5416
    endloop
  endfacet
  facet normal 0 0.669163 0.743116
    outer loop
      vertex -7 -97.7835 -23.2059
      vertex -17 -97.4107 -23.5416
      vertex -17 -97.7835 -23.2059
    endloop
  endfacet
  facet normal 0 -0.309104 -0.951028
    outer loop
      vertex -17 -95.501 -19.2524
      vertex -7 -95.0238 -19.4075
      vertex -7 -95.501 -19.2524
    endloop
  endfacet
  facet normal -0 -0.309104 -0.951028
    outer loop
      vertex -7 -95.0238 -19.4075
      vertex -17 -95.501 -19.2524
      vertex -17 -95.0238 -19.4075
    endloop
  endfacet
  facet normal 0 -0.104436 -0.994532
    outer loop
      vertex -17 -96 -19.2
      vertex -7 -95.501 -19.2524
      vertex -7 -96 -19.2
    endloop
  endfacet
  facet normal -0 -0.104436 -0.994532
    outer loop
      vertex -7 -95.501 -19.2524
      vertex -17 -96 -19.2
      vertex -17 -95.501 -19.2524
    endloop
  endfacet
  facet normal 0 -0.500062 -0.86599
    outer loop
      vertex -17 -95.0238 -19.4075
      vertex -7 -94.5893 -19.6584
      vertex -7 -95.0238 -19.4075
    endloop
  endfacet
  facet normal -0 -0.500062 -0.86599
    outer loop
      vertex -7 -94.5893 -19.6584
      vertex -17 -95.0238 -19.4075
      vertex -17 -94.5893 -19.6584
    endloop
  endfacet
  facet normal 0 0.808926 -0.587911
    outer loop
      vertex -7 -98.0785 -20.4
      vertex -17 -97.7835 -19.9941
      vertex -7 -97.7835 -19.9941
    endloop
  endfacet
  facet normal 0 0.808926 -0.587911
    outer loop
      vertex -17 -97.7835 -19.9941
      vertex -7 -98.0785 -20.4
      vertex -17 -98.0785 -20.4
    endloop
  endfacet
  facet normal 0 0.913614 0.406582
    outer loop
      vertex -7 -98.0785 -22.8
      vertex -17 -98.2825 -22.3416
      vertex -7 -98.2825 -22.3416
    endloop
  endfacet
  facet normal 0 0.913614 0.406582
    outer loop
      vertex -17 -98.2825 -22.3416
      vertex -7 -98.0785 -22.8
      vertex -17 -98.0785 -22.8
    endloop
  endfacet
  facet normal 0 0.104436 -0.994532
    outer loop
      vertex -17 -96.499 -19.2524
      vertex -7 -96 -19.2
      vertex -7 -96.499 -19.2524
    endloop
  endfacet
  facet normal 0 0.104436 -0.994532
    outer loop
      vertex -7 -96 -19.2
      vertex -17 -96.499 -19.2524
      vertex -17 -96 -19.2
    endloop
  endfacet
  facet normal 0 -0.669163 -0.743116
    outer loop
      vertex -17 -94.5893 -19.6584
      vertex -7 -94.2165 -19.9941
      vertex -7 -94.5893 -19.6584
    endloop
  endfacet
  facet normal -0 -0.669163 -0.743116
    outer loop
      vertex -7 -94.2165 -19.9941
      vertex -17 -94.5893 -19.6584
      vertex -17 -94.2165 -19.9941
    endloop
  endfacet
  facet normal 0 0.978108 0.2081
    outer loop
      vertex -7 -98.2825 -22.3416
      vertex -17 -98.3869 -21.8509
      vertex -7 -98.3869 -21.8509
    endloop
  endfacet
  facet normal 0 0.978108 0.2081
    outer loop
      vertex -17 -98.3869 -21.8509
      vertex -7 -98.2825 -22.3416
      vertex -17 -98.2825 -22.3416
    endloop
  endfacet
  facet normal 0 -0.978108 0.2081
    outer loop
      vertex -17 -93.7175 -22.3416
      vertex -7 -93.6131 -21.8509
      vertex -17 -93.6131 -21.8509
    endloop
  endfacet
  facet normal 0 -0.978108 0.2081
    outer loop
      vertex -7 -93.6131 -21.8509
      vertex -17 -93.7175 -22.3416
      vertex -7 -93.7175 -22.3416
    endloop
  endfacet
  facet normal 0 -0.669163 0.743116
    outer loop
      vertex -17 -94.2165 -23.2059
      vertex -7 -94.5893 -23.5416
      vertex -7 -94.2165 -23.2059
    endloop
  endfacet
  facet normal 0 -0.669163 0.743116
    outer loop
      vertex -7 -94.5893 -23.5416
      vertex -17 -94.2165 -23.2059
      vertex -17 -94.5893 -23.5416
    endloop
  endfacet
  facet normal 0 -1 0
    outer loop
      vertex -17 -93.6131 -21.8509
      vertex -7 -93.6131 -21.3491
      vertex -17 -93.6131 -21.3491
    endloop
  endfacet
  facet normal 0 -1 -0
    outer loop
      vertex -7 -93.6131 -21.3491
      vertex -17 -93.6131 -21.8509
      vertex -7 -93.6131 -21.8509
    endloop
  endfacet
  facet normal 0 0.309104 -0.951028
    outer loop
      vertex -17 -96.9762 -19.4075
      vertex -7 -96.499 -19.2524
      vertex -7 -96.9762 -19.4075
    endloop
  endfacet
  facet normal 0 0.309104 -0.951028
    outer loop
      vertex -7 -96.499 -19.2524
      vertex -17 -96.9762 -19.4075
      vertex -17 -96.499 -19.2524
    endloop
  endfacet
  facet normal 0 0.913614 -0.406582
    outer loop
      vertex -7 -98.2825 -20.8584
      vertex -17 -98.0785 -20.4
      vertex -7 -98.0785 -20.4
    endloop
  endfacet
  facet normal 0 0.913614 -0.406582
    outer loop
      vertex -17 -98.0785 -20.4
      vertex -7 -98.2825 -20.8584
      vertex -17 -98.2825 -20.8584
    endloop
  endfacet
  facet normal 0 0.808926 0.587911
    outer loop
      vertex -7 -97.7835 -23.2059
      vertex -17 -98.0785 -22.8
      vertex -7 -98.0785 -22.8
    endloop
  endfacet
  facet normal 0 0.808926 0.587911
    outer loop
      vertex -17 -98.0785 -22.8
      vertex -7 -97.7835 -23.2059
      vertex -17 -97.7835 -23.2059
    endloop
  endfacet
  facet normal 0 -0.309104 0.951028
    outer loop
      vertex -17 -95.0238 -23.7925
      vertex -7 -95.501 -23.9476
      vertex -7 -95.0238 -23.7925
    endloop
  endfacet
  facet normal 0 -0.309104 0.951028
    outer loop
      vertex -7 -95.501 -23.9476
      vertex -17 -95.0238 -23.7925
      vertex -17 -95.501 -23.9476
    endloop
  endfacet
  facet normal 0 -0.808926 0.587911
    outer loop
      vertex -17 -94.2165 -23.2059
      vertex -7 -93.9215 -22.8
      vertex -17 -93.9215 -22.8
    endloop
  endfacet
  facet normal 0 -0.808926 0.587911
    outer loop
      vertex -7 -93.9215 -22.8
      vertex -17 -94.2165 -23.2059
      vertex -7 -94.2165 -23.2059
    endloop
  endfacet
  facet normal -0 0.309104 0.951028
    outer loop
      vertex -17 -96.499 -23.9476
      vertex -7 -96.9762 -23.7925
      vertex -7 -96.499 -23.9476
    endloop
  endfacet
  facet normal 0 0.309104 0.951028
    outer loop
      vertex -7 -96.9762 -23.7925
      vertex -17 -96.499 -23.9476
      vertex -17 -96.9762 -23.7925
    endloop
  endfacet
  facet normal 0 -0.913614 0.406582
    outer loop
      vertex -17 -93.9215 -22.8
      vertex -7 -93.7175 -22.3416
      vertex -17 -93.7175 -22.3416
    endloop
  endfacet
  facet normal 0 -0.913614 0.406582
    outer loop
      vertex -7 -93.7175 -22.3416
      vertex -17 -93.9215 -22.8
      vertex -7 -93.9215 -22.8
    endloop
  endfacet
  facet normal 0 0.978108 -0.2081
    outer loop
      vertex -7 -98.3869 -21.3491
      vertex -17 -98.2825 -20.8584
      vertex -7 -98.2825 -20.8584
    endloop
  endfacet
  facet normal 0 0.978108 -0.2081
    outer loop
      vertex -17 -98.2825 -20.8584
      vertex -7 -98.3869 -21.3491
      vertex -17 -98.3869 -21.3491
    endloop
  endfacet
  facet normal -0 0.104436 0.994532
    outer loop
      vertex -17 -96 -24
      vertex -7 -96.499 -23.9476
      vertex -7 -96 -24
    endloop
  endfacet
  facet normal 0 0.104436 0.994532
    outer loop
      vertex -7 -96.499 -23.9476
      vertex -17 -96 -24
      vertex -17 -96.499 -23.9476
    endloop
  endfacet
  facet normal 0 -0.104436 0.994532
    outer loop
      vertex -17 -95.501 -23.9476
      vertex -7 -96 -24
      vertex -7 -95.501 -23.9476
    endloop
  endfacet
  facet normal 0 -0.104436 0.994532
    outer loop
      vertex -7 -96 -24
      vertex -17 -95.501 -23.9476
      vertex -17 -96 -24
    endloop
  endfacet
  facet normal -0 0.500062 0.86599
    outer loop
      vertex -17 -96.9762 -23.7925
      vertex -7 -97.4107 -23.5416
      vertex -7 -96.9762 -23.7925
    endloop
  endfacet
  facet normal 0 0.500062 0.86599
    outer loop
      vertex -7 -97.4107 -23.5416
      vertex -17 -96.9762 -23.7925
      vertex -17 -97.4107 -23.5416
    endloop
  endfacet
  facet normal 0 -0.500062 0.86599
    outer loop
      vertex -17 -94.5893 -23.5416
      vertex -7 -95.0238 -23.7925
      vertex -7 -94.5893 -23.5416
    endloop
  endfacet
  facet normal 0 -0.500062 0.86599
    outer loop
      vertex -7 -95.0238 -23.7925
      vertex -17 -94.5893 -23.5416
      vertex -17 -95.0238 -23.7925
    endloop
  endfacet
  facet normal 0 0.500062 -0.86599
    outer loop
      vertex -17 -97.4107 -19.6584
      vertex -7 -96.9762 -19.4075
      vertex -7 -97.4107 -19.6584
    endloop
  endfacet
  facet normal 0 0.500062 -0.86599
    outer loop
      vertex -7 -96.9762 -19.4075
      vertex -17 -97.4107 -19.6584
      vertex -17 -96.9762 -19.4075
    endloop
  endfacet
  facet normal 0 -0.808926 -0.587911
    outer loop
      vertex -17 -93.9215 -20.4
      vertex -7 -94.2165 -19.9941
      vertex -17 -94.2165 -19.9941
    endloop
  endfacet
  facet normal 0 -0.808926 -0.587911
    outer loop
      vertex -7 -94.2165 -19.9941
      vertex -17 -93.9215 -20.4
      vertex -7 -93.9215 -20.4
    endloop
  endfacet
  facet normal 0 -0.913614 -0.406582
    outer loop
      vertex -17 -93.7175 -20.8584
      vertex -7 -93.9215 -20.4
      vertex -17 -93.9215 -20.4
    endloop
  endfacet
  facet normal 0 -0.913614 -0.406582
    outer loop
      vertex -7 -93.9215 -20.4
      vertex -17 -93.7175 -20.8584
      vertex -7 -93.7175 -20.8584
    endloop
  endfacet
  facet normal 0 -0.978108 -0.2081
    outer loop
      vertex -17 -93.6131 -21.3491
      vertex -7 -93.7175 -20.8584
      vertex -17 -93.7175 -20.8584
    endloop
  endfacet
  facet normal 0 -0.978108 -0.2081
    outer loop
      vertex -7 -93.7175 -20.8584
      vertex -17 -93.6131 -21.3491
      vertex -7 -93.6131 -21.3491
    endloop
  endfacet
  facet normal 0 0.669163 -0.743116
    outer loop
      vertex -17 -97.7835 -19.9941
      vertex -7 -97.4107 -19.6584
      vertex -7 -97.7835 -19.9941
    endloop
  endfacet
  facet normal 0 0.669163 -0.743116
    outer loop
      vertex -7 -97.4107 -19.6584
      vertex -17 -97.7835 -19.9941
      vertex -17 -97.4107 -19.6584
    endloop
  endfacet
  facet normal 0 1 -0
    outer loop
      vertex -7 -98.3869 -21.8509
      vertex -17 -98.3869 -21.3491
      vertex -7 -98.3869 -21.3491
    endloop
  endfacet
  facet normal 0 1 0
    outer loop
      vertex -17 -98.3869 -21.3491
      vertex -7 -98.3869 -21.8509
      vertex -17 -98.3869 -21.8509
    endloop
  endfacet
  facet normal -0 0.309104 0.951028
    outer loop
      vertex -17 -89.699 -23.9476
      vertex -7 -90.1762 -23.7925
      vertex -7 -89.699 -23.9476
    endloop
  endfacet
  facet normal 0 0.309104 0.951028
    outer loop
      vertex -7 -90.1762 -23.7925
      vertex -17 -89.699 -23.9476
      vertex -17 -90.1762 -23.7925
    endloop
  endfacet
  facet normal 0 -0.309104 -0.951028
    outer loop
      vertex -17 -88.701 -19.2524
      vertex -7 -88.2238 -19.4075
      vertex -7 -88.701 -19.2524
    endloop
  endfacet
  facet normal -0 -0.309104 -0.951028
    outer loop
      vertex -7 -88.2238 -19.4075
      vertex -17 -88.701 -19.2524
      vertex -17 -88.2238 -19.4075
    endloop
  endfacet
  facet normal 0 -0.104436 -0.994532
    outer loop
      vertex -17 -89.2 -19.2
      vertex -7 -88.701 -19.2524
      vertex -7 -89.2 -19.2
    endloop
  endfacet
  facet normal -0 -0.104436 -0.994532
    outer loop
      vertex -7 -88.701 -19.2524
      vertex -17 -89.2 -19.2
      vertex -17 -88.701 -19.2524
    endloop
  endfacet
  facet normal 0 -0.500062 -0.86599
    outer loop
      vertex -17 -88.2238 -19.4075
      vertex -7 -87.7893 -19.6584
      vertex -7 -88.2238 -19.4075
    endloop
  endfacet
  facet normal -0 -0.500062 -0.86599
    outer loop
      vertex -7 -87.7893 -19.6584
      vertex -17 -88.2238 -19.4075
      vertex -17 -87.7893 -19.6584
    endloop
  endfacet
  facet normal 0 0.80902 -0.587781
    outer loop
      vertex -7 -91.2785 -20.4
      vertex -17 -90.9836 -19.9941
      vertex -7 -90.9836 -19.9941
    endloop
  endfacet
  facet normal 0 0.80902 -0.587781
    outer loop
      vertex -17 -90.9836 -19.9941
      vertex -7 -91.2785 -20.4
      vertex -17 -91.2785 -20.4
    endloop
  endfacet
  facet normal 0 0.669064 -0.743205
    outer loop
      vertex -17 -90.9836 -19.9941
      vertex -7 -90.6107 -19.6584
      vertex -7 -90.9836 -19.9941
    endloop
  endfacet
  facet normal 0 0.669064 -0.743205
    outer loop
      vertex -7 -90.6107 -19.6584
      vertex -17 -90.9836 -19.9941
      vertex -17 -90.6107 -19.6584
    endloop
  endfacet
  facet normal 0 -0.913614 -0.406582
    outer loop
      vertex -17 -86.9175 -20.8584
      vertex -7 -87.1215 -20.4
      vertex -17 -87.1215 -20.4
    endloop
  endfacet
  facet normal 0 -0.913614 -0.406582
    outer loop
      vertex -7 -87.1215 -20.4
      vertex -17 -86.9175 -20.8584
      vertex -7 -86.9175 -20.8584
    endloop
  endfacet
  facet normal 0 0.104436 -0.994532
    outer loop
      vertex -17 -89.699 -19.2524
      vertex -7 -89.2 -19.2
      vertex -7 -89.699 -19.2524
    endloop
  endfacet
  facet normal 0 0.104436 -0.994532
    outer loop
      vertex -7 -89.2 -19.2
      vertex -17 -89.699 -19.2524
      vertex -17 -89.2 -19.2
    endloop
  endfacet
  facet normal 0 0.500062 -0.86599
    outer loop
      vertex -17 -90.6107 -19.6584
      vertex -7 -90.1762 -19.4075
      vertex -7 -90.6107 -19.6584
    endloop
  endfacet
  facet normal 0 0.500062 -0.86599
    outer loop
      vertex -7 -90.1762 -19.4075
      vertex -17 -90.6107 -19.6584
      vertex -17 -90.1762 -19.4075
    endloop
  endfacet
  facet normal 0 -0.669163 -0.743116
    outer loop
      vertex -17 -87.7893 -19.6584
      vertex -7 -87.4165 -19.9941
      vertex -7 -87.7893 -19.6584
    endloop
  endfacet
  facet normal -0 -0.669163 -0.743116
    outer loop
      vertex -7 -87.4165 -19.9941
      vertex -17 -87.7893 -19.6584
      vertex -17 -87.4165 -19.9941
    endloop
  endfacet
  facet normal 0 -0.669163 0.743116
    outer loop
      vertex -17 -87.4165 -23.2059
      vertex -7 -87.7893 -23.5416
      vertex -7 -87.4165 -23.2059
    endloop
  endfacet
  facet normal 0 -0.669163 0.743116
    outer loop
      vertex -7 -87.7893 -23.5416
      vertex -17 -87.4165 -23.2059
      vertex -17 -87.7893 -23.5416
    endloop
  endfacet
  facet normal 0 0.978108 0.2081
    outer loop
      vertex -7 -91.4825 -22.3416
      vertex -17 -91.5869 -21.8509
      vertex -7 -91.5869 -21.8509
    endloop
  endfacet
  facet normal 0 0.978108 0.2081
    outer loop
      vertex -17 -91.5869 -21.8509
      vertex -7 -91.4825 -22.3416
      vertex -17 -91.4825 -22.3416
    endloop
  endfacet
  facet normal 0 0.913614 -0.406582
    outer loop
      vertex -7 -91.4825 -20.8584
      vertex -17 -91.2785 -20.4
      vertex -7 -91.2785 -20.4
    endloop
  endfacet
  facet normal 0 0.913614 -0.406582
    outer loop
      vertex -17 -91.2785 -20.4
      vertex -7 -91.4825 -20.8584
      vertex -17 -91.4825 -20.8584
    endloop
  endfacet
  facet normal 0 -0.104436 0.994532
    outer loop
      vertex -17 -88.701 -23.9476
      vertex -7 -89.2 -24
      vertex -7 -88.701 -23.9476
    endloop
  endfacet
  facet normal 0 -0.104436 0.994532
    outer loop
      vertex -7 -89.2 -24
      vertex -17 -88.701 -23.9476
      vertex -17 -89.2 -24
    endloop
  endfacet
  facet normal 0 0.309104 -0.951028
    outer loop
      vertex -17 -90.1762 -19.4075
      vertex -7 -89.699 -19.2524
      vertex -7 -90.1762 -19.4075
    endloop
  endfacet
  facet normal 0 0.309104 -0.951028
    outer loop
      vertex -7 -89.699 -19.2524
      vertex -17 -90.1762 -19.4075
      vertex -17 -89.699 -19.2524
    endloop
  endfacet
  facet normal 0 -0.808926 0.587911
    outer loop
      vertex -17 -87.4165 -23.2059
      vertex -7 -87.1215 -22.8
      vertex -17 -87.1215 -22.8
    endloop
  endfacet
  facet normal 0 -0.808926 0.587911
    outer loop
      vertex -7 -87.1215 -22.8
      vertex -17 -87.4165 -23.2059
      vertex -7 -87.4165 -23.2059
    endloop
  endfacet
  facet normal 0 -1 0
    outer loop
      vertex -17 -86.8131 -21.8509
      vertex -7 -86.8131 -21.3491
      vertex -17 -86.8131 -21.3491
    endloop
  endfacet
  facet normal 0 -1 -0
    outer loop
      vertex -7 -86.8131 -21.3491
      vertex -17 -86.8131 -21.8509
      vertex -7 -86.8131 -21.8509
    endloop
  endfacet
  facet normal 0 0.80902 0.587781
    outer loop
      vertex -7 -90.9836 -23.2059
      vertex -17 -91.2785 -22.8
      vertex -7 -91.2785 -22.8
    endloop
  endfacet
  facet normal 0 0.80902 0.587781
    outer loop
      vertex -17 -91.2785 -22.8
      vertex -7 -90.9836 -23.2059
      vertex -17 -90.9836 -23.2059
    endloop
  endfacet
  facet normal 0 -0.309104 0.951028
    outer loop
      vertex -17 -88.2238 -23.7925
      vertex -7 -88.701 -23.9476
      vertex -7 -88.2238 -23.7925
    endloop
  endfacet
  facet normal 0 -0.309104 0.951028
    outer loop
      vertex -7 -88.701 -23.9476
      vertex -17 -88.2238 -23.7925
      vertex -17 -88.701 -23.9476
    endloop
  endfacet
  facet normal 0 -0.913614 0.406582
    outer loop
      vertex -17 -87.1215 -22.8
      vertex -7 -86.9175 -22.3416
      vertex -17 -86.9175 -22.3416
    endloop
  endfacet
  facet normal 0 -0.913614 0.406582
    outer loop
      vertex -7 -86.9175 -22.3416
      vertex -17 -87.1215 -22.8
      vertex -7 -87.1215 -22.8
    endloop
  endfacet
  facet normal 0 0.978108 -0.2081
    outer loop
      vertex -7 -91.5869 -21.3491
      vertex -17 -91.4825 -20.8584
      vertex -7 -91.4825 -20.8584
    endloop
  endfacet
  facet normal 0 0.978108 -0.2081
    outer loop
      vertex -17 -91.4825 -20.8584
      vertex -7 -91.5869 -21.3491
      vertex -17 -91.5869 -21.3491
    endloop
  endfacet
  facet normal -0 0.104436 0.994532
    outer loop
      vertex -17 -89.2 -24
      vertex -7 -89.699 -23.9476
      vertex -7 -89.2 -24
    endloop
  endfacet
  facet normal 0 0.104436 0.994532
    outer loop
      vertex -7 -89.699 -23.9476
      vertex -17 -89.2 -24
      vertex -17 -89.699 -23.9476
    endloop
  endfacet
  facet normal 0 0.913614 0.406582
    outer loop
      vertex -7 -91.2785 -22.8
      vertex -17 -91.4825 -22.3416
      vertex -7 -91.4825 -22.3416
    endloop
  endfacet
  facet normal 0 0.913614 0.406582
    outer loop
      vertex -17 -91.4825 -22.3416
      vertex -7 -91.2785 -22.8
      vertex -17 -91.2785 -22.8
    endloop
  endfacet
  facet normal -0 0.500062 0.86599
    outer loop
      vertex -17 -90.1762 -23.7925
      vertex -7 -90.6107 -23.5416
      vertex -7 -90.1762 -23.7925
    endloop
  endfacet
  facet normal 0 0.500062 0.86599
    outer loop
      vertex -7 -90.6107 -23.5416
      vertex -17 -90.1762 -23.7925
      vertex -17 -90.6107 -23.5416
    endloop
  endfacet
  facet normal 0 -0.500062 0.86599
    outer loop
      vertex -17 -87.7893 -23.5416
      vertex -7 -88.2238 -23.7925
      vertex -7 -87.7893 -23.5416
    endloop
  endfacet
  facet normal 0 -0.500062 0.86599
    outer loop
      vertex -7 -88.2238 -23.7925
      vertex -17 -87.7893 -23.5416
      vertex -17 -88.2238 -23.7925
    endloop
  endfacet
  facet normal 0 -0.978108 -0.2081
    outer loop
      vertex -17 -86.8131 -21.3491
      vertex -7 -86.9175 -20.8584
      vertex -17 -86.9175 -20.8584
    endloop
  endfacet
  facet normal 0 -0.978108 -0.2081
    outer loop
      vertex -7 -86.9175 -20.8584
      vertex -17 -86.8131 -21.3491
      vertex -7 -86.8131 -21.3491
    endloop
  endfacet
  facet normal 0 -0.808926 -0.587911
    outer loop
      vertex -17 -87.1215 -20.4
      vertex -7 -87.4165 -19.9941
      vertex -17 -87.4165 -19.9941
    endloop
  endfacet
  facet normal 0 -0.808926 -0.587911
    outer loop
      vertex -7 -87.4165 -19.9941
      vertex -17 -87.1215 -20.4
      vertex -7 -87.1215 -20.4
    endloop
  endfacet
  facet normal -0 0.669064 0.743205
    outer loop
      vertex -17 -90.6107 -23.5416
      vertex -7 -90.9836 -23.2059
      vertex -7 -90.6107 -23.5416
    endloop
  endfacet
  facet normal 0 0.669064 0.743205
    outer loop
      vertex -7 -90.9836 -23.2059
      vertex -17 -90.6107 -23.5416
      vertex -17 -90.9836 -23.2059
    endloop
  endfacet
  facet normal 0 -0.978108 0.2081
    outer loop
      vertex -17 -86.9175 -22.3416
      vertex -7 -86.8131 -21.8509
      vertex -17 -86.8131 -21.8509
    endloop
  endfacet
  facet normal 0 -0.978108 0.2081
    outer loop
      vertex -7 -86.8131 -21.8509
      vertex -17 -86.9175 -22.3416
      vertex -7 -86.9175 -22.3416
    endloop
  endfacet
  facet normal 0 1 -0
    outer loop
      vertex -7 -91.5869 -21.8509
      vertex -17 -91.5869 -21.3491
      vertex -7 -91.5869 -21.3491
    endloop
  endfacet
  facet normal 0 1 0
    outer loop
      vertex -17 -91.5869 -21.3491
      vertex -7 -91.5869 -21.8509
      vertex -17 -91.5869 -21.8509
    endloop
  endfacet
  facet normal 0 0.30912 -0.951023
    outer loop
      vertex -17 -16.7728 -13.2643
      vertex -7 -16.395 -13.1415
      vertex -7 -16.7728 -13.2643
    endloop
  endfacet
  facet normal 0 0.30912 -0.951023
    outer loop
      vertex -7 -16.395 -13.1415
      vertex -17 -16.7728 -13.2643
      vertex -17 -16.395 -13.1415
    endloop
  endfacet
  facet normal 0 -0.499984 0.866035
    outer loop
      vertex -17 -14.8832 -16.5371
      vertex -7 -15.2272 -16.7357
      vertex -7 -14.8832 -16.5371
    endloop
  endfacet
  facet normal 0 -0.499984 0.866035
    outer loop
      vertex -7 -15.2272 -16.7357
      vertex -17 -14.8832 -16.5371
      vertex -17 -15.2272 -16.7357
    endloop
  endfacet
  facet normal 0 -1 0
    outer loop
      vertex -17 -14.1104 -15.1986
      vertex -7 -14.1104 -14.8014
      vertex -17 -14.1104 -14.8014
    endloop
  endfacet
  facet normal 0 -1 -0
    outer loop
      vertex -7 -14.1104 -14.8014
      vertex -17 -14.1104 -15.1986
      vertex -7 -14.1104 -15.1986
    endloop
  endfacet
  facet normal 0 -0.104488 -0.994526
    outer loop
      vertex -17 -16 -13.1
      vertex -7 -15.605 -13.1415
      vertex -7 -16 -13.1
    endloop
  endfacet
  facet normal -0 -0.104488 -0.994526
    outer loop
      vertex -7 -15.605 -13.1415
      vertex -17 -16 -13.1
      vertex -17 -15.605 -13.1415
    endloop
  endfacet
  facet normal 0 -0.499984 -0.866035
    outer loop
      vertex -17 -15.2272 -13.2643
      vertex -7 -14.8832 -13.4629
      vertex -7 -15.2272 -13.2643
    endloop
  endfacet
  facet normal -0 -0.499984 -0.866035
    outer loop
      vertex -7 -14.8832 -13.4629
      vertex -17 -15.2272 -13.2643
      vertex -17 -14.8832 -13.4629
    endloop
  endfacet
  facet normal 0 -0.669132 0.743144
    outer loop
      vertex -17 -14.588 -16.2713
      vertex -7 -14.8832 -16.5371
      vertex -7 -14.588 -16.2713
    endloop
  endfacet
  facet normal 0 -0.669132 0.743144
    outer loop
      vertex -7 -14.8832 -16.5371
      vertex -17 -14.588 -16.2713
      vertex -17 -14.8832 -16.5371
    endloop
  endfacet
  facet normal 0 -0.104488 0.994526
    outer loop
      vertex -17 -15.605 -16.8585
      vertex -7 -16 -16.9
      vertex -7 -15.605 -16.8585
    endloop
  endfacet
  facet normal 0 -0.104488 0.994526
    outer loop
      vertex -7 -16 -16.9
      vertex -17 -15.605 -16.8585
      vertex -17 -16 -16.9
    endloop
  endfacet
  facet normal 0 0.499984 -0.866035
    outer loop
      vertex -17 -17.1168 -13.4629
      vertex -7 -16.7728 -13.2643
      vertex -7 -17.1168 -13.4629
    endloop
  endfacet
  facet normal 0 0.499984 -0.866035
    outer loop
      vertex -7 -16.7728 -13.2643
      vertex -17 -17.1168 -13.4629
      vertex -17 -16.7728 -13.2643
    endloop
  endfacet
  facet normal 0 -0.30912 0.951023
    outer loop
      vertex -17 -15.2272 -16.7357
      vertex -7 -15.605 -16.8585
      vertex -7 -15.2272 -16.7357
    endloop
  endfacet
  facet normal 0 -0.30912 0.951023
    outer loop
      vertex -7 -15.605 -16.8585
      vertex -17 -15.2272 -16.7357
      vertex -17 -15.605 -16.8585
    endloop
  endfacet
  facet normal 0 -0.669132 -0.743144
    outer loop
      vertex -17 -14.8832 -13.4629
      vertex -7 -14.588 -13.7287
      vertex -7 -14.8832 -13.4629
    endloop
  endfacet
  facet normal -0 -0.669132 -0.743144
    outer loop
      vertex -7 -14.588 -13.7287
      vertex -17 -14.8832 -13.4629
      vertex -17 -14.588 -13.7287
    endloop
  endfacet
  facet normal 0 0.913521 -0.406792
    outer loop
      vertex -7 -17.807 -14.4129
      vertex -17 -17.6454 -14.05
      vertex -7 -17.6454 -14.05
    endloop
  endfacet
  facet normal 0 0.913521 -0.406792
    outer loop
      vertex -17 -17.6454 -14.05
      vertex -7 -17.807 -14.4129
      vertex -17 -17.807 -14.4129
    endloop
  endfacet
  facet normal -0 0.104488 0.994526
    outer loop
      vertex -17 -16 -16.9
      vertex -7 -16.395 -16.8585
      vertex -7 -16 -16.9
    endloop
  endfacet
  facet normal 0 0.104488 0.994526
    outer loop
      vertex -7 -16.395 -16.8585
      vertex -17 -16 -16.9
      vertex -17 -16.395 -16.8585
    endloop
  endfacet
  facet normal 0 -0.978136 -0.207964
    outer loop
      vertex -17 -14.1104 -14.8014
      vertex -7 -14.193 -14.4129
      vertex -17 -14.193 -14.4129
    endloop
  endfacet
  facet normal 0 -0.978136 -0.207964
    outer loop
      vertex -7 -14.193 -14.4129
      vertex -17 -14.1104 -14.8014
      vertex -7 -14.1104 -14.8014
    endloop
  endfacet
  facet normal 0 0.104488 -0.994526
    outer loop
      vertex -17 -16.395 -13.1415
      vertex -7 -16 -13.1
      vertex -7 -16.395 -13.1415
    endloop
  endfacet
  facet normal 0 0.104488 -0.994526
    outer loop
      vertex -7 -16 -13.1
      vertex -17 -16.395 -13.1415
      vertex -17 -16 -13.1
    endloop
  endfacet
  facet normal 0 0.809063 -0.587722
    outer loop
      vertex -7 -17.6454 -14.05
      vertex -17 -17.412 -13.7287
      vertex -7 -17.412 -13.7287
    endloop
  endfacet
  facet normal 0 0.809063 -0.587722
    outer loop
      vertex -17 -17.412 -13.7287
      vertex -7 -17.6454 -14.05
      vertex -17 -17.6454 -14.05
    endloop
  endfacet
  facet normal 0 -0.913521 0.406792
    outer loop
      vertex -17 -14.3546 -15.95
      vertex -7 -14.193 -15.5871
      vertex -17 -14.193 -15.5871
    endloop
  endfacet
  facet normal 0 -0.913521 0.406792
    outer loop
      vertex -7 -14.193 -15.5871
      vertex -17 -14.3546 -15.95
      vertex -7 -14.3546 -15.95
    endloop
  endfacet
  facet normal 0 -0.30912 -0.951023
    outer loop
      vertex -17 -15.605 -13.1415
      vertex -7 -15.2272 -13.2643
      vertex -7 -15.605 -13.1415
    endloop
  endfacet
  facet normal -0 -0.30912 -0.951023
    outer loop
      vertex -7 -15.2272 -13.2643
      vertex -17 -15.605 -13.1415
      vertex -17 -15.2272 -13.2643
    endloop
  endfacet
  facet normal -0 0.669132 0.743144
    outer loop
      vertex -17 -17.1168 -16.5371
      vertex -7 -17.412 -16.2713
      vertex -7 -17.1168 -16.5371
    endloop
  endfacet
  facet normal 0 0.669132 0.743144
    outer loop
      vertex -7 -17.412 -16.2713
      vertex -17 -17.1168 -16.5371
      vertex -17 -17.412 -16.2713
    endloop
  endfacet
  facet normal 0 -0.809063 0.587722
    outer loop
      vertex -17 -14.588 -16.2713
      vertex -7 -14.3546 -15.95
      vertex -17 -14.3546 -15.95
    endloop
  endfacet
  facet normal 0 -0.809063 0.587722
    outer loop
      vertex -7 -14.3546 -15.95
      vertex -17 -14.588 -16.2713
      vertex -7 -14.588 -16.2713
    endloop
  endfacet
  facet normal 0 -0.913521 -0.406792
    outer loop
      vertex -17 -14.193 -14.4129
      vertex -7 -14.3546 -14.05
      vertex -17 -14.3546 -14.05
    endloop
  endfacet
  facet normal 0 -0.913521 -0.406792
    outer loop
      vertex -7 -14.3546 -14.05
      vertex -17 -14.193 -14.4129
      vertex -7 -14.193 -14.4129
    endloop
  endfacet
  facet normal 0 -0.978136 0.207964
    outer loop
      vertex -17 -14.193 -15.5871
      vertex -7 -14.1104 -15.1986
      vertex -17 -14.1104 -15.1986
    endloop
  endfacet
  facet normal 0 -0.978136 0.207964
    outer loop
      vertex -7 -14.1104 -15.1986
      vertex -17 -14.193 -15.5871
      vertex -7 -14.193 -15.5871
    endloop
  endfacet
  facet normal 0 0.913521 0.406792
    outer loop
      vertex -7 -17.6454 -15.95
      vertex -17 -17.807 -15.5871
      vertex -7 -17.807 -15.5871
    endloop
  endfacet
  facet normal 0 0.913521 0.406792
    outer loop
      vertex -17 -17.807 -15.5871
      vertex -7 -17.6454 -15.95
      vertex -17 -17.6454 -15.95
    endloop
  endfacet
  facet normal 0 -0.809063 -0.587722
    outer loop
      vertex -17 -14.3546 -14.05
      vertex -7 -14.588 -13.7287
      vertex -17 -14.588 -13.7287
    endloop
  endfacet
  facet normal 0 -0.809063 -0.587722
    outer loop
      vertex -7 -14.588 -13.7287
      vertex -17 -14.3546 -14.05
      vertex -7 -14.3546 -14.05
    endloop
  endfacet
  facet normal -0 0.499984 0.866035
    outer loop
      vertex -17 -16.7728 -16.7357
      vertex -7 -17.1168 -16.5371
      vertex -7 -16.7728 -16.7357
    endloop
  endfacet
  facet normal 0 0.499984 0.866035
    outer loop
      vertex -7 -17.1168 -16.5371
      vertex -17 -16.7728 -16.7357
      vertex -17 -17.1168 -16.5371
    endloop
  endfacet
  facet normal 0 0.809063 0.587722
    outer loop
      vertex -7 -17.412 -16.2713
      vertex -17 -17.6454 -15.95
      vertex -7 -17.6454 -15.95
    endloop
  endfacet
  facet normal 0 0.809063 0.587722
    outer loop
      vertex -17 -17.6454 -15.95
      vertex -7 -17.412 -16.2713
      vertex -17 -17.412 -16.2713
    endloop
  endfacet
  facet normal 0 0.978136 0.207964
    outer loop
      vertex -7 -17.807 -15.5871
      vertex -17 -17.8896 -15.1986
      vertex -7 -17.8896 -15.1986
    endloop
  endfacet
  facet normal 0 0.978136 0.207964
    outer loop
      vertex -17 -17.8896 -15.1986
      vertex -7 -17.807 -15.5871
      vertex -17 -17.807 -15.5871
    endloop
  endfacet
  facet normal 0 1 -0
    outer loop
      vertex -7 -17.8896 -15.1986
      vertex -17 -17.8896 -14.8014
      vertex -7 -17.8896 -14.8014
    endloop
  endfacet
  facet normal 0 1 0
    outer loop
      vertex -17 -17.8896 -14.8014
      vertex -7 -17.8896 -15.1986
      vertex -17 -17.8896 -15.1986
    endloop
  endfacet
  facet normal -0 0.30912 0.951023
    outer loop
      vertex -17 -16.395 -16.8585
      vertex -7 -16.7728 -16.7357
      vertex -7 -16.395 -16.8585
    endloop
  endfacet
  facet normal 0 0.30912 0.951023
    outer loop
      vertex -7 -16.7728 -16.7357
      vertex -17 -16.395 -16.8585
      vertex -17 -16.7728 -16.7357
    endloop
  endfacet
  facet normal 0 0.978136 -0.207964
    outer loop
      vertex -7 -17.8896 -14.8014
      vertex -17 -17.807 -14.4129
      vertex -7 -17.807 -14.4129
    endloop
  endfacet
  facet normal 0 0.978136 -0.207964
    outer loop
      vertex -17 -17.807 -14.4129
      vertex -7 -17.8896 -14.8014
      vertex -17 -17.8896 -14.8014
    endloop
  endfacet
  facet normal 0 0.669132 -0.743144
    outer loop
      vertex -17 -17.412 -13.7287
      vertex -7 -17.1168 -13.4629
      vertex -7 -17.412 -13.7287
    endloop
  endfacet
  facet normal 0 0.669132 -0.743144
    outer loop
      vertex -7 -17.1168 -13.4629
      vertex -17 -17.412 -13.7287
      vertex -17 -17.1168 -13.4629
    endloop
  endfacet
  facet normal 0 0.309142 -0.951016
    outer loop
      vertex -17 -8.7728 -13.2643
      vertex -7 -8.39503 -13.1415
      vertex -7 -8.7728 -13.2643
    endloop
  endfacet
  facet normal 0 0.309142 -0.951016
    outer loop
      vertex -7 -8.39503 -13.1415
      vertex -17 -8.7728 -13.2643
      vertex -17 -8.39503 -13.1415
    endloop
  endfacet
  facet normal 0 -0.499995 0.866028
    outer loop
      vertex -17 -6.88321 -16.5371
      vertex -7 -7.2272 -16.7357
      vertex -7 -6.88321 -16.5371
    endloop
  endfacet
  facet normal 0 -0.499995 0.866028
    outer loop
      vertex -7 -7.2272 -16.7357
      vertex -17 -6.88321 -16.5371
      vertex -17 -7.2272 -16.7357
    endloop
  endfacet
  facet normal 0 -0.808979 -0.587838
    outer loop
      vertex -17 -6.35455 -14.05
      vertex -7 -6.58802 -13.7287
      vertex -17 -6.58802 -13.7287
    endloop
  endfacet
  facet normal 0 -0.808979 -0.587838
    outer loop
      vertex -7 -6.58802 -13.7287
      vertex -17 -6.35455 -14.05
      vertex -7 -6.35455 -14.05
    endloop
  endfacet
  facet normal 0 -1 0
    outer loop
      vertex -17 -6.11041 -15.1986
      vertex -7 -6.11041 -14.8014
      vertex -17 -6.11041 -14.8014
    endloop
  endfacet
  facet normal 0 -1 -0
    outer loop
      vertex -7 -6.11041 -14.8014
      vertex -17 -6.11041 -15.1986
      vertex -7 -6.11041 -15.1986
    endloop
  endfacet
  facet normal 0 -0.10448 -0.994527
    outer loop
      vertex -17 -8 -13.1
      vertex -7 -7.60497 -13.1415
      vertex -7 -8 -13.1
    endloop
  endfacet
  facet normal -0 -0.10448 -0.994527
    outer loop
      vertex -7 -7.60497 -13.1415
      vertex -17 -8 -13.1
      vertex -17 -7.60497 -13.1415
    endloop
  endfacet
  facet normal 0 -0.499995 -0.866028
    outer loop
      vertex -17 -7.2272 -13.2643
      vertex -7 -6.88321 -13.4629
      vertex -7 -7.2272 -13.2643
    endloop
  endfacet
  facet normal -0 -0.499995 -0.866028
    outer loop
      vertex -7 -6.88321 -13.4629
      vertex -17 -7.2272 -13.2643
      vertex -17 -6.88321 -13.4629
    endloop
  endfacet
  facet normal 0 -0.669144 0.743133
    outer loop
      vertex -17 -6.58802 -16.2713
      vertex -7 -6.88321 -16.5371
      vertex -7 -6.58802 -16.2713
    endloop
  endfacet
  facet normal 0 -0.669144 0.743133
    outer loop
      vertex -7 -6.88321 -16.5371
      vertex -17 -6.58802 -16.2713
      vertex -17 -6.88321 -16.5371
    endloop
  endfacet
  facet normal 0 -0.10448 0.994527
    outer loop
      vertex -17 -7.60497 -16.8585
      vertex -7 -8 -16.9
      vertex -7 -7.60497 -16.8585
    endloop
  endfacet
  facet normal 0 -0.10448 0.994527
    outer loop
      vertex -7 -8 -16.9
      vertex -17 -7.60497 -16.8585
      vertex -17 -8 -16.9
    endloop
  endfacet
  facet normal 0 0.499995 -0.866028
    outer loop
      vertex -17 -9.11679 -13.4629
      vertex -7 -8.7728 -13.2643
      vertex -7 -9.11679 -13.4629
    endloop
  endfacet
  facet normal 0 0.499995 -0.866028
    outer loop
      vertex -7 -8.7728 -13.2643
      vertex -17 -9.11679 -13.4629
      vertex -17 -8.7728 -13.2643
    endloop
  endfacet
  facet normal 0 -0.309142 0.951016
    outer loop
      vertex -17 -7.2272 -16.7357
      vertex -7 -7.60497 -16.8585
      vertex -7 -7.2272 -16.7357
    endloop
  endfacet
  facet normal 0 -0.309142 0.951016
    outer loop
      vertex -7 -7.60497 -16.8585
      vertex -17 -7.2272 -16.7357
      vertex -17 -7.60497 -16.8585
    endloop
  endfacet
  facet normal 0 -0.669144 -0.743133
    outer loop
      vertex -17 -6.88321 -13.4629
      vertex -7 -6.58802 -13.7287
      vertex -7 -6.88321 -13.4629
    endloop
  endfacet
  facet normal -0 -0.669144 -0.743133
    outer loop
      vertex -7 -6.58802 -13.7287
      vertex -17 -6.88321 -13.4629
      vertex -17 -6.58802 -13.7287
    endloop
  endfacet
  facet normal 0 0.913558 -0.406708
    outer loop
      vertex -7 -9.80701 -14.4129
      vertex -17 -9.64545 -14.05
      vertex -7 -9.64545 -14.05
    endloop
  endfacet
  facet normal 0 0.913558 -0.406708
    outer loop
      vertex -17 -9.64545 -14.05
      vertex -7 -9.80701 -14.4129
      vertex -17 -9.80701 -14.4129
    endloop
  endfacet
  facet normal -0 0.10448 0.994527
    outer loop
      vertex -17 -8 -16.9
      vertex -7 -8.39503 -16.8585
      vertex -7 -8 -16.9
    endloop
  endfacet
  facet normal 0 0.10448 0.994527
    outer loop
      vertex -7 -8.39503 -16.8585
      vertex -17 -8 -16.9
      vertex -17 -8.39503 -16.8585
    endloop
  endfacet
  facet normal 0 -0.978147 -0.207916
    outer loop
      vertex -17 -6.11041 -14.8014
      vertex -7 -6.19299 -14.4129
      vertex -17 -6.19299 -14.4129
    endloop
  endfacet
  facet normal 0 -0.978147 -0.207916
    outer loop
      vertex -7 -6.19299 -14.4129
      vertex -17 -6.11041 -14.8014
      vertex -7 -6.11041 -14.8014
    endloop
  endfacet
  facet normal 0 0.10448 -0.994527
    outer loop
      vertex -17 -8.39503 -13.1415
      vertex -7 -8 -13.1
      vertex -7 -8.39503 -13.1415
    endloop
  endfacet
  facet normal 0 0.10448 -0.994527
    outer loop
      vertex -7 -8 -13.1
      vertex -17 -8.39503 -13.1415
      vertex -17 -8 -13.1
    endloop
  endfacet
  facet normal 0 0.808967 -0.587854
    outer loop
      vertex -7 -9.64545 -14.05
      vertex -17 -9.41197 -13.7287
      vertex -7 -9.41197 -13.7287
    endloop
  endfacet
  facet normal 0 0.808967 -0.587854
    outer loop
      vertex -17 -9.41197 -13.7287
      vertex -7 -9.64545 -14.05
      vertex -17 -9.64545 -14.05
    endloop
  endfacet
  facet normal 0 -0.913558 0.406708
    outer loop
      vertex -17 -6.35455 -15.95
      vertex -7 -6.19299 -15.5871
      vertex -17 -6.19299 -15.5871
    endloop
  endfacet
  facet normal 0 -0.913558 0.406708
    outer loop
      vertex -7 -6.19299 -15.5871
      vertex -17 -6.35455 -15.95
      vertex -7 -6.35455 -15.95
    endloop
  endfacet
  facet normal 0 -0.309142 -0.951016
    outer loop
      vertex -17 -7.60497 -13.1415
      vertex -7 -7.2272 -13.2643
      vertex -7 -7.60497 -13.1415
    endloop
  endfacet
  facet normal -0 -0.309142 -0.951016
    outer loop
      vertex -7 -7.2272 -13.2643
      vertex -17 -7.60497 -13.1415
      vertex -17 -7.2272 -13.2643
    endloop
  endfacet
  facet normal -0 0.669157 0.743121
    outer loop
      vertex -17 -9.11679 -16.5371
      vertex -7 -9.41197 -16.2713
      vertex -7 -9.11679 -16.5371
    endloop
  endfacet
  facet normal 0 0.669157 0.743121
    outer loop
      vertex -7 -9.41197 -16.2713
      vertex -17 -9.11679 -16.5371
      vertex -17 -9.41197 -16.2713
    endloop
  endfacet
  facet normal 0 -0.808979 0.587838
    outer loop
      vertex -17 -6.58802 -16.2713
      vertex -7 -6.35455 -15.95
      vertex -17 -6.35455 -15.95
    endloop
  endfacet
  facet normal 0 -0.808979 0.587838
    outer loop
      vertex -7 -6.35455 -15.95
      vertex -17 -6.58802 -16.2713
      vertex -7 -6.58802 -16.2713
    endloop
  endfacet
  facet normal 0 -0.913558 -0.406708
    outer loop
      vertex -17 -6.19299 -14.4129
      vertex -7 -6.35455 -14.05
      vertex -17 -6.35455 -14.05
    endloop
  endfacet
  facet normal 0 -0.913558 -0.406708
    outer loop
      vertex -7 -6.35455 -14.05
      vertex -17 -6.19299 -14.4129
      vertex -7 -6.19299 -14.4129
    endloop
  endfacet
  facet normal 0 -0.978147 0.207916
    outer loop
      vertex -17 -6.19299 -15.5871
      vertex -7 -6.11041 -15.1986
      vertex -17 -6.11041 -15.1986
    endloop
  endfacet
  facet normal 0 -0.978147 0.207916
    outer loop
      vertex -7 -6.11041 -15.1986
      vertex -17 -6.19299 -15.5871
      vertex -7 -6.19299 -15.5871
    endloop
  endfacet
  facet normal 0 0.913558 0.406708
    outer loop
      vertex -7 -9.64545 -15.95
      vertex -17 -9.80701 -15.5871
      vertex -7 -9.80701 -15.5871
    endloop
  endfacet
  facet normal 0 0.913558 0.406708
    outer loop
      vertex -17 -9.80701 -15.5871
      vertex -7 -9.64545 -15.95
      vertex -17 -9.64545 -15.95
    endloop
  endfacet
  facet normal -0 0.499995 0.866028
    outer loop
      vertex -17 -8.7728 -16.7357
      vertex -7 -9.11679 -16.5371
      vertex -7 -8.7728 -16.7357
    endloop
  endfacet
  facet normal 0 0.499995 0.866028
    outer loop
      vertex -7 -9.11679 -16.5371
      vertex -17 -8.7728 -16.7357
      vertex -17 -9.11679 -16.5371
    endloop
  endfacet
  facet normal 0 0.808967 0.587854
    outer loop
      vertex -7 -9.41197 -16.2713
      vertex -17 -9.64545 -15.95
      vertex -7 -9.64545 -15.95
    endloop
  endfacet
  facet normal 0 0.808967 0.587854
    outer loop
      vertex -17 -9.64545 -15.95
      vertex -7 -9.41197 -16.2713
      vertex -17 -9.41197 -16.2713
    endloop
  endfacet
  facet normal 0 0.978147 0.207916
    outer loop
      vertex -7 -9.80701 -15.5871
      vertex -17 -9.88959 -15.1986
      vertex -7 -9.88959 -15.1986
    endloop
  endfacet
  facet normal 0 0.978147 0.207916
    outer loop
      vertex -17 -9.88959 -15.1986
      vertex -7 -9.80701 -15.5871
      vertex -17 -9.80701 -15.5871
    endloop
  endfacet
  facet normal 0 1 -0
    outer loop
      vertex -7 -9.88959 -15.1986
      vertex -17 -9.88959 -14.8014
      vertex -7 -9.88959 -14.8014
    endloop
  endfacet
  facet normal 0 1 0
    outer loop
      vertex -17 -9.88959 -14.8014
      vertex -7 -9.88959 -15.1986
      vertex -17 -9.88959 -15.1986
    endloop
  endfacet
  facet normal -0 0.309142 0.951016
    outer loop
      vertex -17 -8.39503 -16.8585
      vertex -7 -8.7728 -16.7357
      vertex -7 -8.39503 -16.8585
    endloop
  endfacet
  facet normal 0 0.309142 0.951016
    outer loop
      vertex -7 -8.7728 -16.7357
      vertex -17 -8.39503 -16.8585
      vertex -17 -8.7728 -16.7357
    endloop
  endfacet
  facet normal 0 0.978147 -0.207916
    outer loop
      vertex -7 -9.88959 -14.8014
      vertex -17 -9.80701 -14.4129
      vertex -7 -9.80701 -14.4129
    endloop
  endfacet
  facet normal 0 0.978147 -0.207916
    outer loop
      vertex -17 -9.80701 -14.4129
      vertex -7 -9.88959 -14.8014
      vertex -17 -9.88959 -14.8014
    endloop
  endfacet
  facet normal 0 0.669157 -0.743121
    outer loop
      vertex -17 -9.41197 -13.7287
      vertex -7 -9.11679 -13.4629
      vertex -7 -9.41197 -13.7287
    endloop
  endfacet
  facet normal 0 0.669157 -0.743121
    outer loop
      vertex -7 -9.11679 -13.4629
      vertex -17 -9.41197 -13.7287
      vertex -17 -9.11679 -13.4629
    endloop
  endfacet
endsolid OpenSCAD_Model
