solid OpenSCAD_Model
  facet normal 1 -0 0
    outer loop
      vertex -73 -66 45
      vertex -73 -60 9
      vertex -73 -60 45
    endloop
  endfacet
  facet normal 1 0 0
    outer loop
      vertex -73 -60 9
      vertex -73 -66 45
      vertex -73 -66 9
    endloop
  endfacet
  facet normal -0 0 1
    outer loop
      vertex -89 -60 45
      vertex -73 -66 45
      vertex -73 -60 45
    endloop
  endfacet
  facet normal 0 0 1
    outer loop
      vertex -73 -66 45
      vertex -89 -60 45
      vertex -89 -66 45
    endloop
  endfacet
  facet normal 0 0 -1
    outer loop
      vertex -89 -66 9
      vertex -73 -60 9
      vertex -73 -66 9
    endloop
  endfacet
  facet normal -0 0 -1
    outer loop
      vertex -73 -60 9
      vertex -89 -66 9
      vertex -89 -60 9
    endloop
  endfacet
  facet normal -1 0 0
    outer loop
      vertex -89 -66 9
      vertex -89 -60 45
      vertex -89 -60 9
    endloop
  endfacet
  facet normal -1 -0 0
    outer loop
      vertex -89 -60 45
      vertex -89 -66 9
      vertex -89 -66 45
    endloop
  endfacet
  facet normal 0 1 -0
    outer loop
      vertex -83.4129 -60 34.807
      vertex -89 -60 45
      vertex -73 -60 45
    endloop
  endfacet
  facet normal 0 1 0
    outer loop
      vertex -89 -60 45
      vertex -83.4129 -60 34.807
      vertex -83.8014 -60 34.8896
    endloop
  endfacet
  facet normal 0 1 0
    outer loop
      vertex -73 -60 45
      vertex -83.05 -60 34.6454
      vertex -83.4129 -60 34.807
    endloop
  endfacet
  facet normal 0 1 0
    outer loop
      vertex -73 -60 45
      vertex -82.7287 -60 34.412
      vertex -83.05 -60 34.6454
    endloop
  endfacet
  facet normal 0 1 0
    outer loop
      vertex -73 -60 45
      vertex -82.4629 -60 34.1168
      vertex -82.7287 -60 34.412
    endloop
  endfacet
  facet normal 0 1 0
    outer loop
      vertex -73 -60 45
      vertex -82.2643 -60 33.7728
      vertex -82.4629 -60 34.1168
    endloop
  endfacet
  facet normal 0 1 0
    outer loop
      vertex -73 -60 45
      vertex -82.1415 -60 33.395
      vertex -82.2643 -60 33.7728
    endloop
  endfacet
  facet normal 0 1 0
    outer loop
      vertex -73 -60 45
      vertex -82.1 -60 33
      vertex -82.1415 -60 33.395
    endloop
  endfacet
  facet normal 0 1 0
    outer loop
      vertex -73 -60 45
      vertex -82.1415 -60 32.605
      vertex -82.1 -60 33
    endloop
  endfacet
  facet normal 0 1 0
    outer loop
      vertex -82.1415 -60 25.395
      vertex -82.1415 -60 32.605
      vertex -73 -60 45
    endloop
  endfacet
  facet normal 0 1 0
    outer loop
      vertex -82.1415 -60 32.605
      vertex -82.1415 -60 25.395
      vertex -82.2643 -60 32.2272
    endloop
  endfacet
  facet normal 0 1 0
    outer loop
      vertex -83.8014 -60 31.1104
      vertex -83.8014 -60 26.8896
      vertex -84.1986 -60 31.1104
    endloop
  endfacet
  facet normal 0 1 0
    outer loop
      vertex -83.4129 -60 31.193
      vertex -83.8014 -60 26.8896
      vertex -83.8014 -60 31.1104
    endloop
  endfacet
  facet normal 0 1 0
    outer loop
      vertex -83.4129 -60 26.807
      vertex -83.4129 -60 31.193
      vertex -83.05 -60 31.3546
    endloop
  endfacet
  facet normal 0 1 0
    outer loop
      vertex -83.05 -60 26.6454
      vertex -83.05 -60 31.3546
      vertex -82.7287 -60 31.588
    endloop
  endfacet
  facet normal 0 1 0
    outer loop
      vertex -82.7287 -60 26.412
      vertex -82.7287 -60 31.588
      vertex -82.4629 -60 31.8832
    endloop
  endfacet
  facet normal -0 1 0
    outer loop
      vertex -82.2643 -60 25.7728
      vertex -82.2643 -60 32.2272
      vertex -82.1415 -60 25.395
    endloop
  endfacet
  facet normal 0 1 0
    outer loop
      vertex -83.4129 -60 31.193
      vertex -83.4129 -60 26.807
      vertex -83.8014 -60 26.8896
    endloop
  endfacet
  facet normal 0 1 0
    outer loop
      vertex -83.05 -60 31.3546
      vertex -83.05 -60 26.6454
      vertex -83.4129 -60 26.807
    endloop
  endfacet
  facet normal 0 1 0
    outer loop
      vertex -82.7287 -60 31.588
      vertex -82.7287 -60 26.412
      vertex -83.05 -60 26.6454
    endloop
  endfacet
  facet normal 0 1 0
    outer loop
      vertex -82.4629 -60 31.8832
      vertex -82.4629 -60 26.1168
      vertex -82.7287 -60 26.412
    endloop
  endfacet
  facet normal 0 1 0
    outer loop
      vertex -82.4629 -60 31.8832
      vertex -82.2643 -60 25.7728
      vertex -82.4629 -60 26.1168
    endloop
  endfacet
  facet normal 0 1 0
    outer loop
      vertex -82.2643 -60 32.2272
      vertex -82.2643 -60 25.7728
      vertex -82.4629 -60 31.8832
    endloop
  endfacet
  facet normal 0 1 0
    outer loop
      vertex -73 -60 45
      vertex -82.1 -60 25
      vertex -82.1415 -60 25.395
    endloop
  endfacet
  facet normal 0 1 -0
    outer loop
      vertex -73 -60 9
      vertex -82.1 -60 25
      vertex -73 -60 45
    endloop
  endfacet
  facet normal 0 1 0
    outer loop
      vertex -82.1 -60 25
      vertex -73 -60 9
      vertex -82.1415 -60 24.605
    endloop
  endfacet
  facet normal 0 1 0
    outer loop
      vertex -83.4129 -60 23.193
      vertex -89 -60 9
      vertex -83.8014 -60 23.1104
    endloop
  endfacet
  facet normal 0 1 0
    outer loop
      vertex -89 -60 9
      vertex -83.4129 -60 23.193
      vertex -73 -60 9
    endloop
  endfacet
  facet normal 0 1 0
    outer loop
      vertex -83.05 -60 23.3546
      vertex -73 -60 9
      vertex -83.4129 -60 23.193
    endloop
  endfacet
  facet normal 0 1 0
    outer loop
      vertex -82.7287 -60 23.588
      vertex -73 -60 9
      vertex -83.05 -60 23.3546
    endloop
  endfacet
  facet normal 0 1 0
    outer loop
      vertex -82.4629 -60 23.8832
      vertex -73 -60 9
      vertex -82.7287 -60 23.588
    endloop
  endfacet
  facet normal 0 1 0
    outer loop
      vertex -82.2643 -60 24.2272
      vertex -73 -60 9
      vertex -82.4629 -60 23.8832
    endloop
  endfacet
  facet normal 0 1 0
    outer loop
      vertex -82.1415 -60 24.605
      vertex -73 -60 9
      vertex -82.2643 -60 24.2272
    endloop
  endfacet
  facet normal 0 1 -0
    outer loop
      vertex -84.1986 -60 34.8896
      vertex -89 -60 45
      vertex -83.8014 -60 34.8896
    endloop
  endfacet
  facet normal 0 1 -0
    outer loop
      vertex -84.5871 -60 34.807
      vertex -89 -60 45
      vertex -84.1986 -60 34.8896
    endloop
  endfacet
  facet normal 0 1 -0
    outer loop
      vertex -84.95 -60 34.6454
      vertex -89 -60 45
      vertex -84.5871 -60 34.807
    endloop
  endfacet
  facet normal 0 1 -0
    outer loop
      vertex -85.2713 -60 34.412
      vertex -89 -60 45
      vertex -84.95 -60 34.6454
    endloop
  endfacet
  facet normal 0 1 -0
    outer loop
      vertex -85.5371 -60 34.1168
      vertex -89 -60 45
      vertex -85.2713 -60 34.412
    endloop
  endfacet
  facet normal 0 1 -0
    outer loop
      vertex -85.7357 -60 33.7728
      vertex -89 -60 45
      vertex -85.5371 -60 34.1168
    endloop
  endfacet
  facet normal 0 1 -0
    outer loop
      vertex -85.8585 -60 33.395
      vertex -89 -60 45
      vertex -85.7357 -60 33.7728
    endloop
  endfacet
  facet normal 0 1 -0
    outer loop
      vertex -85.9 -60 33
      vertex -89 -60 45
      vertex -85.8585 -60 33.395
    endloop
  endfacet
  facet normal 0 1 0
    outer loop
      vertex -85.9 -60 25
      vertex -85.9 -60 33
      vertex -85.8585 -60 32.605
    endloop
  endfacet
  facet normal 0 1 0
    outer loop
      vertex -84.1986 -60 26.8896
      vertex -84.1986 -60 31.1104
      vertex -83.8014 -60 26.8896
    endloop
  endfacet
  facet normal 0 1 0
    outer loop
      vertex -84.1986 -60 31.1104
      vertex -84.1986 -60 26.8896
      vertex -84.5871 -60 31.193
    endloop
  endfacet
  facet normal 0 1 0
    outer loop
      vertex -84.5871 -60 26.807
      vertex -84.5871 -60 31.193
      vertex -84.1986 -60 26.8896
    endloop
  endfacet
  facet normal 0 1 0
    outer loop
      vertex -84.5871 -60 31.193
      vertex -84.5871 -60 26.807
      vertex -84.95 -60 31.3546
    endloop
  endfacet
  facet normal 0 1 0
    outer loop
      vertex -84.95 -60 26.6454
      vertex -84.95 -60 31.3546
      vertex -84.5871 -60 26.807
    endloop
  endfacet
  facet normal 0 1 0
    outer loop
      vertex -84.95 -60 31.3546
      vertex -84.95 -60 26.6454
      vertex -85.2713 -60 31.588
    endloop
  endfacet
  facet normal 0 1 0
    outer loop
      vertex -85.2713 -60 26.412
      vertex -85.2713 -60 31.588
      vertex -84.95 -60 26.6454
    endloop
  endfacet
  facet normal 0 1 0
    outer loop
      vertex -85.2713 -60 31.588
      vertex -85.2713 -60 26.412
      vertex -85.5371 -60 31.8832
    endloop
  endfacet
  facet normal 0 1 0
    outer loop
      vertex -85.5371 -60 26.1168
      vertex -85.5371 -60 31.8832
      vertex -85.2713 -60 26.412
    endloop
  endfacet
  facet normal 0 1 0
    outer loop
      vertex -85.5371 -60 31.8832
      vertex -85.5371 -60 26.1168
      vertex -85.7357 -60 32.2272
    endloop
  endfacet
  facet normal 0 1 0
    outer loop
      vertex -85.7357 -60 25.7728
      vertex -85.7357 -60 32.2272
      vertex -85.5371 -60 26.1168
    endloop
  endfacet
  facet normal 0 1 0
    outer loop
      vertex -85.7357 -60 32.2272
      vertex -85.7357 -60 25.7728
      vertex -85.8585 -60 32.605
    endloop
  endfacet
  facet normal 0 1 0
    outer loop
      vertex -85.8585 -60 25.395
      vertex -85.8585 -60 32.605
      vertex -85.7357 -60 25.7728
    endloop
  endfacet
  facet normal 0 1 0
    outer loop
      vertex -85.9 -60 25
      vertex -85.8585 -60 32.605
      vertex -85.8585 -60 25.395
    endloop
  endfacet
  facet normal 0 1 0
    outer loop
      vertex -85.9 -60 33
      vertex -85.9 -60 25
      vertex -89 -60 45
    endloop
  endfacet
  facet normal 0 1 0
    outer loop
      vertex -89 -60 9
      vertex -85.9 -60 25
      vertex -85.8585 -60 24.605
    endloop
  endfacet
  facet normal 0 1 0
    outer loop
      vertex -83.8014 -60 23.1104
      vertex -89 -60 9
      vertex -84.1986 -60 23.1104
    endloop
  endfacet
  facet normal 0 1 0
    outer loop
      vertex -84.1986 -60 23.1104
      vertex -89 -60 9
      vertex -84.5871 -60 23.193
    endloop
  endfacet
  facet normal 0 1 0
    outer loop
      vertex -84.5871 -60 23.193
      vertex -89 -60 9
      vertex -84.95 -60 23.3546
    endloop
  endfacet
  facet normal 0 1 0
    outer loop
      vertex -84.95 -60 23.3546
      vertex -89 -60 9
      vertex -85.2713 -60 23.588
    endloop
  endfacet
  facet normal 0 1 0
    outer loop
      vertex -85.9 -60 25
      vertex -89 -60 9
      vertex -89 -60 45
    endloop
  endfacet
  facet normal 0 1 0
    outer loop
      vertex -85.7357 -60 24.2272
      vertex -89 -60 9
      vertex -85.8585 -60 24.605
    endloop
  endfacet
  facet normal 0 1 0
    outer loop
      vertex -85.5371 -60 23.8832
      vertex -89 -60 9
      vertex -85.7357 -60 24.2272
    endloop
  endfacet
  facet normal 0 1 0
    outer loop
      vertex -85.2713 -60 23.588
      vertex -89 -60 9
      vertex -85.5371 -60 23.8832
    endloop
  endfacet
  facet normal 0 -1 0
    outer loop
      vertex -83.5558 -66 37.2267
      vertex -89 -66 45
      vertex -84.4442 -66 37.2267
    endloop
  endfacet
  facet normal 0 -1 0
    outer loop
      vertex -89 -66 45
      vertex -85.3133 -66 37.042
      vertex -84.4442 -66 37.2267
    endloop
  endfacet
  facet normal 0 -1 0
    outer loop
      vertex -89 -66 45
      vertex -86.125 -66 36.6806
      vertex -85.3133 -66 37.042
    endloop
  endfacet
  facet normal 0 -1 0
    outer loop
      vertex -89 -66 45
      vertex -86.8438 -66 36.1584
      vertex -86.125 -66 36.6806
    endloop
  endfacet
  facet normal 0 -1 0
    outer loop
      vertex -89 -66 45
      vertex -87.4383 -66 35.4981
      vertex -86.8438 -66 36.1584
    endloop
  endfacet
  facet normal 0 -1 0
    outer loop
      vertex -89 -66 45
      vertex -87.8826 -66 34.7286
      vertex -87.4383 -66 35.4981
    endloop
  endfacet
  facet normal 0 -1 0
    outer loop
      vertex -89 -66 45
      vertex -88.1571 -66 33.8836
      vertex -87.8826 -66 34.7286
    endloop
  endfacet
  facet normal 0 -1 0
    outer loop
      vertex -89 -66 45
      vertex -88.25 -66 33
      vertex -88.1571 -66 33.8836
    endloop
  endfacet
  facet normal 0 -1 0
    outer loop
      vertex -86.125 -66 29.3194
      vertex -86.125 -66 28.6806
      vertex -85.4076 -66 29
    endloop
  endfacet
  facet normal 0 -1 0
    outer loop
      vertex -86.8438 -66 29.8416
      vertex -86.125 -66 28.6806
      vertex -86.125 -66 29.3194
    endloop
  endfacet
  facet normal 0 -1 0
    outer loop
      vertex -86.8438 -66 28.1584
      vertex -86.8438 -66 29.8416
      vertex -87.4383 -66 30.5019
    endloop
  endfacet
  facet normal 0 -1 0
    outer loop
      vertex -86.8438 -66 29.8416
      vertex -86.8438 -66 28.1584
      vertex -86.125 -66 28.6806
    endloop
  endfacet
  facet normal 0 -1 0
    outer loop
      vertex -87.4383 -66 27.4981
      vertex -87.4383 -66 30.5019
      vertex -87.8826 -66 31.2714
    endloop
  endfacet
  facet normal 0 -1 0
    outer loop
      vertex -87.4383 -66 30.5019
      vertex -87.4383 -66 27.4981
      vertex -86.8438 -66 28.1584
    endloop
  endfacet
  facet normal 0 -1 0
    outer loop
      vertex -87.8826 -66 26.7286
      vertex -87.8826 -66 31.2714
      vertex -88.1571 -66 32.1164
    endloop
  endfacet
  facet normal 0 -1 0
    outer loop
      vertex -87.8826 -66 31.2714
      vertex -87.8826 -66 26.7286
      vertex -87.4383 -66 27.4981
    endloop
  endfacet
  facet normal 0 -1 0
    outer loop
      vertex -88.1571 -66 25.8836
      vertex -88.1571 -66 32.1164
      vertex -88.25 -66 33
    endloop
  endfacet
  facet normal 0 -1 0
    outer loop
      vertex -88.25 -66 25
      vertex -88.25 -66 33
      vertex -89 -66 45
    endloop
  endfacet
  facet normal 0 -1 0
    outer loop
      vertex -88.1571 -66 32.1164
      vertex -88.1571 -66 25.8836
      vertex -87.8826 -66 26.7286
    endloop
  endfacet
  facet normal 0 -1 0
    outer loop
      vertex -88.25 -66 33
      vertex -88.25 -66 25
      vertex -88.1571 -66 25.8836
    endloop
  endfacet
  facet normal 0 -1 -0
    outer loop
      vertex -84.4442 -66 20.7733
      vertex -89 -66 9
      vertex -83.5558 -66 20.7733
    endloop
  endfacet
  facet normal 0 -1 -0
    outer loop
      vertex -85.3133 -66 20.958
      vertex -89 -66 9
      vertex -84.4442 -66 20.7733
    endloop
  endfacet
  facet normal 0 -1 -0
    outer loop
      vertex -86.125 -66 21.3194
      vertex -89 -66 9
      vertex -85.3133 -66 20.958
    endloop
  endfacet
  facet normal 0 -1 -0
    outer loop
      vertex -86.8438 -66 21.8416
      vertex -89 -66 9
      vertex -86.125 -66 21.3194
    endloop
  endfacet
  facet normal 0 -1 -0
    outer loop
      vertex -87.4383 -66 22.5019
      vertex -89 -66 9
      vertex -86.8438 -66 21.8416
    endloop
  endfacet
  facet normal 0 -1 -0
    outer loop
      vertex -87.8826 -66 23.2714
      vertex -89 -66 9
      vertex -87.4383 -66 22.5019
    endloop
  endfacet
  facet normal 0 -1 -0
    outer loop
      vertex -88.1571 -66 24.1164
      vertex -89 -66 9
      vertex -87.8826 -66 23.2714
    endloop
  endfacet
  facet normal 0 -1 -0
    outer loop
      vertex -88.25 -66 25
      vertex -89 -66 9
      vertex -88.1571 -66 24.1164
    endloop
  endfacet
  facet normal 0 -1 0
    outer loop
      vertex -89 -66 9
      vertex -88.25 -66 25
      vertex -89 -66 45
    endloop
  endfacet
  facet normal 0 -1 0
    outer loop
      vertex -82.6867 -66 37.042
      vertex -89 -66 45
      vertex -83.5558 -66 37.2267
    endloop
  endfacet
  facet normal 0 -1 0
    outer loop
      vertex -89 -66 45
      vertex -82.6867 -66 37.042
      vertex -73 -66 45
    endloop
  endfacet
  facet normal 0 -1 0
    outer loop
      vertex -81.875 -66 36.6806
      vertex -73 -66 45
      vertex -82.6867 -66 37.042
    endloop
  endfacet
  facet normal 0 -1 0
    outer loop
      vertex -81.1562 -66 36.1584
      vertex -73 -66 45
      vertex -81.875 -66 36.6806
    endloop
  endfacet
  facet normal 0 -1 0
    outer loop
      vertex -80.5617 -66 35.4981
      vertex -73 -66 45
      vertex -81.1562 -66 36.1584
    endloop
  endfacet
  facet normal 0 -1 0
    outer loop
      vertex -80.1174 -66 34.7286
      vertex -73 -66 45
      vertex -80.5617 -66 35.4981
    endloop
  endfacet
  facet normal 0 -1 0
    outer loop
      vertex -79.8429 -66 33.8836
      vertex -73 -66 45
      vertex -80.1174 -66 34.7286
    endloop
  endfacet
  facet normal 0 -1 0
    outer loop
      vertex -79.75 -66 33
      vertex -73 -66 45
      vertex -79.8429 -66 33.8836
    endloop
  endfacet
  facet normal 0 -1 0
    outer loop
      vertex -79.8429 -66 32.1164
      vertex -73 -66 45
      vertex -79.75 -66 33
    endloop
  endfacet
  facet normal 0 -1 0
    outer loop
      vertex -79.8429 -66 25.8836
      vertex -79.8429 -66 32.1164
      vertex -80.1174 -66 31.2714
    endloop
  endfacet
  facet normal 0 -1 0
    outer loop
      vertex -81.875 -66 28.6806
      vertex -81.875 -66 29.3194
      vertex -82.5924 -66 29
    endloop
  endfacet
  facet normal 0 -1 0
    outer loop
      vertex -81.875 -66 28.6806
      vertex -81.1562 -66 29.8416
      vertex -81.875 -66 29.3194
    endloop
  endfacet
  facet normal 0 -1 0
    outer loop
      vertex -81.1562 -66 28.1584
      vertex -81.1562 -66 29.8416
      vertex -81.875 -66 28.6806
    endloop
  endfacet
  facet normal 0 -1 0
    outer loop
      vertex -81.1562 -66 29.8416
      vertex -81.1562 -66 28.1584
      vertex -80.5617 -66 30.5019
    endloop
  endfacet
  facet normal 0 -1 0
    outer loop
      vertex -80.5617 -66 27.4981
      vertex -80.5617 -66 30.5019
      vertex -81.1562 -66 28.1584
    endloop
  endfacet
  facet normal 0 -1 0
    outer loop
      vertex -80.5617 -66 30.5019
      vertex -80.5617 -66 27.4981
      vertex -80.1174 -66 31.2714
    endloop
  endfacet
  facet normal 0 -1 0
    outer loop
      vertex -80.1174 -66 26.7286
      vertex -80.1174 -66 31.2714
      vertex -80.5617 -66 27.4981
    endloop
  endfacet
  facet normal 0 -1 0
    outer loop
      vertex -79.8429 -66 25.8836
      vertex -80.1174 -66 31.2714
      vertex -80.1174 -66 26.7286
    endloop
  endfacet
  facet normal 0 -1 0
    outer loop
      vertex -79.8429 -66 32.1164
      vertex -79.8429 -66 25.8836
      vertex -73 -66 45
    endloop
  endfacet
  facet normal 0 -1 0
    outer loop
      vertex -79.75 -66 25
      vertex -73 -66 45
      vertex -79.8429 -66 25.8836
    endloop
  endfacet
  facet normal 0 -1 0
    outer loop
      vertex -73 -66 9
      vertex -79.75 -66 25
      vertex -79.8429 -66 24.1164
    endloop
  endfacet
  facet normal 0 -1 0
    outer loop
      vertex -73 -66 9
      vertex -79.8429 -66 24.1164
      vertex -80.1174 -66 23.2714
    endloop
  endfacet
  facet normal 0 -1 0
    outer loop
      vertex -89 -66 9
      vertex -82.6867 -66 20.958
      vertex -83.5558 -66 20.7733
    endloop
  endfacet
  facet normal 0 -1 0
    outer loop
      vertex -73 -66 9
      vertex -82.6867 -66 20.958
      vertex -89 -66 9
    endloop
  endfacet
  facet normal 0 -1 0
    outer loop
      vertex -82.6867 -66 20.958
      vertex -73 -66 9
      vertex -81.875 -66 21.3194
    endloop
  endfacet
  facet normal 0 -1 0
    outer loop
      vertex -81.875 -66 21.3194
      vertex -73 -66 9
      vertex -81.1562 -66 21.8416
    endloop
  endfacet
  facet normal 0 -1 0
    outer loop
      vertex -79.75 -66 25
      vertex -73 -66 9
      vertex -73 -66 45
    endloop
  endfacet
  facet normal 0 -1 0
    outer loop
      vertex -80.5617 -66 22.5019
      vertex -73 -66 9
      vertex -80.1174 -66 23.2714
    endloop
  endfacet
  facet normal 0 -1 0
    outer loop
      vertex -81.1562 -66 21.8416
      vertex -73 -66 9
      vertex -80.5617 -66 22.5019
    endloop
  endfacet
  facet normal 0.743144 0 -0.669132
    outer loop
      vertex -85.2713 -63.5 26.412
      vertex -85.5371 -60 26.1168
      vertex -85.2713 -60 26.412
    endloop
  endfacet
  facet normal 0.743144 0 -0.669132
    outer loop
      vertex -85.5371 -60 26.1168
      vertex -85.2713 -63.5 26.412
      vertex -85.5371 -63.5 26.1168
    endloop
  endfacet
  facet normal -0.406792 0 0.913521
    outer loop
      vertex -83.4129 -60 23.193
      vertex -83.05 -63.5 23.3546
      vertex -83.05 -60 23.3546
    endloop
  endfacet
  facet normal -0.406792 0 0.913521
    outer loop
      vertex -83.05 -63.5 23.3546
      vertex -83.4129 -60 23.193
      vertex -83.4129 -63.5 23.193
    endloop
  endfacet
  facet normal 0.587722 0 -0.809063
    outer loop
      vertex -85.2713 -63.5 26.412
      vertex -84.95 -60 26.6454
      vertex -84.95 -63.5 26.6454
    endloop
  endfacet
  facet normal 0.587722 0 -0.809063
    outer loop
      vertex -84.95 -60 26.6454
      vertex -85.2713 -63.5 26.412
      vertex -85.2713 -60 26.412
    endloop
  endfacet
  facet normal -0.994526 0 -0.104488
    outer loop
      vertex -82.1 -63.5 25
      vertex -82.1415 -60 25.395
      vertex -82.1 -60 25
    endloop
  endfacet
  facet normal -0.994526 -0 -0.104488
    outer loop
      vertex -82.1415 -60 25.395
      vertex -82.1 -63.5 25
      vertex -82.1415 -63.5 25.395
    endloop
  endfacet
  facet normal 0.994526 -0 0.104488
    outer loop
      vertex -85.9 -63.5 25
      vertex -85.8585 -60 24.605
      vertex -85.9 -60 25
    endloop
  endfacet
  facet normal 0.994526 0 0.104488
    outer loop
      vertex -85.8585 -60 24.605
      vertex -85.9 -63.5 25
      vertex -85.8585 -63.5 24.605
    endloop
  endfacet
  facet normal -0.866035 0 0.499984
    outer loop
      vertex -82.4629 -63.5 23.8832
      vertex -82.2643 -60 24.2272
      vertex -82.4629 -60 23.8832
    endloop
  endfacet
  facet normal -0.866035 0 0.499984
    outer loop
      vertex -82.2643 -60 24.2272
      vertex -82.4629 -63.5 23.8832
      vertex -82.2643 -63.5 24.2272
    endloop
  endfacet
  facet normal -0.587722 0 0.809063
    outer loop
      vertex -83.05 -60 23.3546
      vertex -82.7287 -63.5 23.588
      vertex -82.7287 -60 23.588
    endloop
  endfacet
  facet normal -0.587722 0 0.809063
    outer loop
      vertex -82.7287 -63.5 23.588
      vertex -83.05 -60 23.3546
      vertex -83.05 -63.5 23.3546
    endloop
  endfacet
  facet normal -0.207964 0 0.978136
    outer loop
      vertex -83.8014 -60 23.1104
      vertex -83.4129 -63.5 23.193
      vertex -83.4129 -60 23.193
    endloop
  endfacet
  facet normal -0.207964 0 0.978136
    outer loop
      vertex -83.4129 -63.5 23.193
      vertex -83.8014 -60 23.1104
      vertex -83.8014 -63.5 23.1104
    endloop
  endfacet
  facet normal -0.743144 0 0.669132
    outer loop
      vertex -82.7287 -63.5 23.588
      vertex -82.4629 -60 23.8832
      vertex -82.7287 -60 23.588
    endloop
  endfacet
  facet normal -0.743144 0 0.669132
    outer loop
      vertex -82.4629 -60 23.8832
      vertex -82.7287 -63.5 23.588
      vertex -82.4629 -63.5 23.8832
    endloop
  endfacet
  facet normal -0.994526 0 0.104488
    outer loop
      vertex -82.1415 -63.5 24.605
      vertex -82.1 -60 25
      vertex -82.1415 -60 24.605
    endloop
  endfacet
  facet normal -0.994526 0 0.104488
    outer loop
      vertex -82.1 -60 25
      vertex -82.1415 -63.5 24.605
      vertex -82.1 -63.5 25
    endloop
  endfacet
  facet normal 0.951023 0 -0.30912
    outer loop
      vertex -85.7357 -63.5 25.7728
      vertex -85.8585 -60 25.395
      vertex -85.7357 -60 25.7728
    endloop
  endfacet
  facet normal 0.951023 0 -0.30912
    outer loop
      vertex -85.8585 -60 25.395
      vertex -85.7357 -63.5 25.7728
      vertex -85.8585 -63.5 25.395
    endloop
  endfacet
  facet normal 0.207964 0 0.978136
    outer loop
      vertex -84.5871 -60 23.193
      vertex -84.1986 -63.5 23.1104
      vertex -84.1986 -60 23.1104
    endloop
  endfacet
  facet normal 0.207964 0 0.978136
    outer loop
      vertex -84.1986 -63.5 23.1104
      vertex -84.5871 -60 23.193
      vertex -84.5871 -63.5 23.193
    endloop
  endfacet
  facet normal -0.951023 0 0.30912
    outer loop
      vertex -82.2643 -63.5 24.2272
      vertex -82.1415 -60 24.605
      vertex -82.2643 -60 24.2272
    endloop
  endfacet
  facet normal -0.951023 0 0.30912
    outer loop
      vertex -82.1415 -60 24.605
      vertex -82.2643 -63.5 24.2272
      vertex -82.1415 -63.5 24.605
    endloop
  endfacet
  facet normal -0.587722 0 -0.809063
    outer loop
      vertex -83.05 -63.5 26.6454
      vertex -82.7287 -60 26.412
      vertex -82.7287 -63.5 26.412
    endloop
  endfacet
  facet normal -0.587722 0 -0.809063
    outer loop
      vertex -82.7287 -60 26.412
      vertex -83.05 -63.5 26.6454
      vertex -83.05 -60 26.6454
    endloop
  endfacet
  facet normal 0.951023 -0 0.30912
    outer loop
      vertex -85.8585 -63.5 24.605
      vertex -85.7357 -60 24.2272
      vertex -85.8585 -60 24.605
    endloop
  endfacet
  facet normal 0.951023 0 0.30912
    outer loop
      vertex -85.7357 -60 24.2272
      vertex -85.8585 -63.5 24.605
      vertex -85.7357 -63.5 24.2272
    endloop
  endfacet
  facet normal 0.406792 0 -0.913521
    outer loop
      vertex -84.95 -63.5 26.6454
      vertex -84.5871 -60 26.807
      vertex -84.5871 -63.5 26.807
    endloop
  endfacet
  facet normal 0.406792 0 -0.913521
    outer loop
      vertex -84.5871 -60 26.807
      vertex -84.95 -63.5 26.6454
      vertex -84.95 -60 26.6454
    endloop
  endfacet
  facet normal 0.406792 0 0.913521
    outer loop
      vertex -84.95 -60 23.3546
      vertex -84.5871 -63.5 23.193
      vertex -84.5871 -60 23.193
    endloop
  endfacet
  facet normal 0.406792 0 0.913521
    outer loop
      vertex -84.5871 -63.5 23.193
      vertex -84.95 -60 23.3546
      vertex -84.95 -63.5 23.3546
    endloop
  endfacet
  facet normal -0.866035 0 -0.499984
    outer loop
      vertex -82.2643 -63.5 25.7728
      vertex -82.4629 -60 26.1168
      vertex -82.2643 -60 25.7728
    endloop
  endfacet
  facet normal -0.866035 -0 -0.499984
    outer loop
      vertex -82.4629 -60 26.1168
      vertex -82.2643 -63.5 25.7728
      vertex -82.4629 -63.5 26.1168
    endloop
  endfacet
  facet normal 0.743144 -0 0.669132
    outer loop
      vertex -85.5371 -63.5 23.8832
      vertex -85.2713 -60 23.588
      vertex -85.5371 -60 23.8832
    endloop
  endfacet
  facet normal 0.743144 0 0.669132
    outer loop
      vertex -85.2713 -60 23.588
      vertex -85.5371 -63.5 23.8832
      vertex -85.2713 -63.5 23.588
    endloop
  endfacet
  facet normal 0.866035 0 -0.499984
    outer loop
      vertex -85.5371 -63.5 26.1168
      vertex -85.7357 -60 25.7728
      vertex -85.5371 -60 26.1168
    endloop
  endfacet
  facet normal 0.866035 0 -0.499984
    outer loop
      vertex -85.7357 -60 25.7728
      vertex -85.5371 -63.5 26.1168
      vertex -85.7357 -63.5 25.7728
    endloop
  endfacet
  facet normal 0.866035 -0 0.499984
    outer loop
      vertex -85.7357 -63.5 24.2272
      vertex -85.5371 -60 23.8832
      vertex -85.7357 -60 24.2272
    endloop
  endfacet
  facet normal 0.866035 0 0.499984
    outer loop
      vertex -85.5371 -60 23.8832
      vertex -85.7357 -63.5 24.2272
      vertex -85.5371 -63.5 23.8832
    endloop
  endfacet
  facet normal -0.743144 0 -0.669132
    outer loop
      vertex -82.4629 -63.5 26.1168
      vertex -82.7287 -60 26.412
      vertex -82.4629 -60 26.1168
    endloop
  endfacet
  facet normal -0.743144 -0 -0.669132
    outer loop
      vertex -82.7287 -60 26.412
      vertex -82.4629 -63.5 26.1168
      vertex -82.7287 -63.5 26.412
    endloop
  endfacet
  facet normal 0 0 -1
    outer loop
      vertex -84.1986 -63.5 26.8896
      vertex -83.8014 -60 26.8896
      vertex -83.8014 -63.5 26.8896
    endloop
  endfacet
  facet normal -0 0 -1
    outer loop
      vertex -83.8014 -60 26.8896
      vertex -84.1986 -63.5 26.8896
      vertex -84.1986 -60 26.8896
    endloop
  endfacet
  facet normal -0.406792 0 -0.913521
    outer loop
      vertex -83.4129 -63.5 26.807
      vertex -83.05 -60 26.6454
      vertex -83.05 -63.5 26.6454
    endloop
  endfacet
  facet normal -0.406792 0 -0.913521
    outer loop
      vertex -83.05 -60 26.6454
      vertex -83.4129 -63.5 26.807
      vertex -83.4129 -60 26.807
    endloop
  endfacet
  facet normal -0 0 1
    outer loop
      vertex -84.1986 -60 23.1104
      vertex -83.8014 -63.5 23.1104
      vertex -83.8014 -60 23.1104
    endloop
  endfacet
  facet normal 0 0 1
    outer loop
      vertex -83.8014 -63.5 23.1104
      vertex -84.1986 -60 23.1104
      vertex -84.1986 -63.5 23.1104
    endloop
  endfacet
  facet normal 0.587722 0 0.809063
    outer loop
      vertex -85.2713 -60 23.588
      vertex -84.95 -63.5 23.3546
      vertex -84.95 -60 23.3546
    endloop
  endfacet
  facet normal 0.587722 0 0.809063
    outer loop
      vertex -84.95 -63.5 23.3546
      vertex -85.2713 -60 23.588
      vertex -85.2713 -63.5 23.588
    endloop
  endfacet
  facet normal 0.994526 0 -0.104488
    outer loop
      vertex -85.8585 -63.5 25.395
      vertex -85.9 -60 25
      vertex -85.8585 -60 25.395
    endloop
  endfacet
  facet normal 0.994526 0 -0.104488
    outer loop
      vertex -85.9 -60 25
      vertex -85.8585 -63.5 25.395
      vertex -85.9 -63.5 25
    endloop
  endfacet
  facet normal -0.951023 0 -0.30912
    outer loop
      vertex -82.1415 -63.5 25.395
      vertex -82.2643 -60 25.7728
      vertex -82.1415 -60 25.395
    endloop
  endfacet
  facet normal -0.951023 -0 -0.30912
    outer loop
      vertex -82.2643 -60 25.7728
      vertex -82.1415 -63.5 25.395
      vertex -82.2643 -63.5 25.7728
    endloop
  endfacet
  facet normal -0.207964 0 -0.978136
    outer loop
      vertex -83.8014 -63.5 26.8896
      vertex -83.4129 -60 26.807
      vertex -83.4129 -63.5 26.807
    endloop
  endfacet
  facet normal -0.207964 0 -0.978136
    outer loop
      vertex -83.4129 -60 26.807
      vertex -83.8014 -63.5 26.8896
      vertex -83.8014 -60 26.8896
    endloop
  endfacet
  facet normal 0.207964 0 -0.978136
    outer loop
      vertex -84.5871 -63.5 26.807
      vertex -84.1986 -60 26.8896
      vertex -84.1986 -63.5 26.8896
    endloop
  endfacet
  facet normal 0.207964 0 -0.978136
    outer loop
      vertex -84.1986 -60 26.8896
      vertex -84.5871 -63.5 26.807
      vertex -84.5871 -60 26.807
    endloop
  endfacet
  facet normal -0.743165 0 0.669108
    outer loop
      vertex -81.1562 -66 21.8416
      vertex -80.5617 -63.5 22.5019
      vertex -81.1562 -63.5 21.8416
    endloop
  endfacet
  facet normal -0.743165 0 0.669108
    outer loop
      vertex -80.5617 -63.5 22.5019
      vertex -81.1562 -66 21.8416
      vertex -80.5617 -66 22.5019
    endloop
  endfacet
  facet normal -0.743165 0 -0.669108
    outer loop
      vertex -80.5617 -66 27.4981
      vertex -81.1562 -63.5 28.1584
      vertex -80.5617 -63.5 27.4981
    endloop
  endfacet
  facet normal -0.743165 -0 -0.669108
    outer loop
      vertex -81.1562 -63.5 28.1584
      vertex -80.5617 -66 27.4981
      vertex -81.1562 -66 28.1584
    endloop
  endfacet
  facet normal 0.207876 0 0.978155
    outer loop
      vertex -85.3133 -63.5 20.958
      vertex -84.4442 -66 20.7733
      vertex -84.4442 -63.5 20.7733
    endloop
  endfacet
  facet normal 0.207876 0 0.978155
    outer loop
      vertex -84.4442 -66 20.7733
      vertex -85.3133 -63.5 20.958
      vertex -85.3133 -66 20.958
    endloop
  endfacet
  facet normal -0.951075 0 0.308959
    outer loop
      vertex -80.1174 -66 23.2714
      vertex -79.8429 -63.5 24.1164
      vertex -80.1174 -63.5 23.2714
    endloop
  endfacet
  facet normal -0.951075 0 0.308959
    outer loop
      vertex -79.8429 -63.5 24.1164
      vertex -80.1174 -66 23.2714
      vertex -79.8429 -66 24.1164
    endloop
  endfacet
  facet normal -0.406729 0 -0.913549
    outer loop
      vertex -82.5924 -66 29
      vertex -81.875 -63.5 28.6806
      vertex -81.875 -66 28.6806
    endloop
  endfacet
  facet normal -0.406729 0 -0.913549
    outer loop
      vertex -81.875 -63.5 28.6806
      vertex -82.5924 -66 29
      vertex -82.5924 -63.5 29
    endloop
  endfacet
  facet normal -0.994518 0 -0.104562
    outer loop
      vertex -79.75 -66 25
      vertex -79.8429 -63.5 25.8836
      vertex -79.75 -63.5 25
    endloop
  endfacet
  facet normal -0.994518 -0 -0.104562
    outer loop
      vertex -79.8429 -63.5 25.8836
      vertex -79.75 -66 25
      vertex -79.8429 -66 25.8836
    endloop
  endfacet
  facet normal 0.587757 0 -0.809038
    outer loop
      vertex -86.8438 -66 28.1584
      vertex -86.125 -63.5 28.6806
      vertex -86.125 -66 28.6806
    endloop
  endfacet
  facet normal 0.587757 0 -0.809038
    outer loop
      vertex -86.125 -63.5 28.6806
      vertex -86.8438 -66 28.1584
      vertex -86.8438 -63.5 28.1584
    endloop
  endfacet
  facet normal -0.866011 0 -0.500024
    outer loop
      vertex -80.1174 -66 26.7286
      vertex -80.5617 -63.5 27.4981
      vertex -80.1174 -63.5 26.7286
    endloop
  endfacet
  facet normal -0.866011 -0 -0.500024
    outer loop
      vertex -80.5617 -63.5 27.4981
      vertex -80.1174 -66 26.7286
      vertex -80.5617 -66 27.4981
    endloop
  endfacet
  facet normal -0.207876 0 0.978155
    outer loop
      vertex -83.5558 -63.5 20.7733
      vertex -82.6867 -66 20.958
      vertex -82.6867 -63.5 20.958
    endloop
  endfacet
  facet normal -0.207876 0 0.978155
    outer loop
      vertex -82.6867 -66 20.958
      vertex -83.5558 -63.5 20.7733
      vertex -83.5558 -66 20.7733
    endloop
  endfacet
  facet normal -0.994518 0 0.104562
    outer loop
      vertex -79.8429 -66 24.1164
      vertex -79.75 -63.5 25
      vertex -79.8429 -63.5 24.1164
    endloop
  endfacet
  facet normal -0.994518 0 0.104562
    outer loop
      vertex -79.75 -63.5 25
      vertex -79.8429 -66 24.1164
      vertex -79.75 -66 25
    endloop
  endfacet
  facet normal -0.866011 0 0.500024
    outer loop
      vertex -80.5617 -66 22.5019
      vertex -80.1174 -63.5 23.2714
      vertex -80.5617 -63.5 22.5019
    endloop
  endfacet
  facet normal -0.866011 0 0.500024
    outer loop
      vertex -80.1174 -63.5 23.2714
      vertex -80.5617 -66 22.5019
      vertex -80.1174 -66 23.2714
    endloop
  endfacet
  facet normal -0 0 1
    outer loop
      vertex -84.4442 -63.5 20.7733
      vertex -83.5558 -66 20.7733
      vertex -83.5558 -63.5 20.7733
    endloop
  endfacet
  facet normal 0 0 1
    outer loop
      vertex -83.5558 -66 20.7733
      vertex -84.4442 -63.5 20.7733
      vertex -84.4442 -66 20.7733
    endloop
  endfacet
  facet normal 0.951075 -0 0.308959
    outer loop
      vertex -88.1571 -66 24.1164
      vertex -87.8826 -63.5 23.2714
      vertex -88.1571 -63.5 24.1164
    endloop
  endfacet
  facet normal 0.951075 0 0.308959
    outer loop
      vertex -87.8826 -63.5 23.2714
      vertex -88.1571 -66 24.1164
      vertex -87.8826 -66 23.2714
    endloop
  endfacet
  facet normal 0.951075 0 -0.308959
    outer loop
      vertex -87.8826 -66 26.7286
      vertex -88.1571 -63.5 25.8836
      vertex -87.8826 -63.5 26.7286
    endloop
  endfacet
  facet normal 0.951075 0 -0.308959
    outer loop
      vertex -88.1571 -63.5 25.8836
      vertex -87.8826 -66 26.7286
      vertex -88.1571 -66 25.8836
    endloop
  endfacet
  facet normal -0.406744 0 0.913542
    outer loop
      vertex -82.6867 -63.5 20.958
      vertex -81.875 -66 21.3194
      vertex -81.875 -63.5 21.3194
    endloop
  endfacet
  facet normal -0.406744 0 0.913542
    outer loop
      vertex -81.875 -66 21.3194
      vertex -82.6867 -63.5 20.958
      vertex -82.6867 -66 20.958
    endloop
  endfacet
  facet normal -0.587757 0 0.809038
    outer loop
      vertex -81.875 -63.5 21.3194
      vertex -81.1562 -66 21.8416
      vertex -81.1562 -63.5 21.8416
    endloop
  endfacet
  facet normal -0.587757 0 0.809038
    outer loop
      vertex -81.1562 -66 21.8416
      vertex -81.875 -63.5 21.3194
      vertex -81.875 -66 21.3194
    endloop
  endfacet
  facet normal 0.406744 0 0.913542
    outer loop
      vertex -86.125 -63.5 21.3194
      vertex -85.3133 -66 20.958
      vertex -85.3133 -63.5 20.958
    endloop
  endfacet
  facet normal 0.406744 0 0.913542
    outer loop
      vertex -85.3133 -66 20.958
      vertex -86.125 -63.5 21.3194
      vertex -86.125 -66 21.3194
    endloop
  endfacet
  facet normal 0.743165 0 -0.669108
    outer loop
      vertex -86.8438 -66 28.1584
      vertex -87.4383 -63.5 27.4981
      vertex -86.8438 -63.5 28.1584
    endloop
  endfacet
  facet normal 0.743165 0 -0.669108
    outer loop
      vertex -87.4383 -63.5 27.4981
      vertex -86.8438 -66 28.1584
      vertex -87.4383 -66 27.4981
    endloop
  endfacet
  facet normal 0.406729 0 -0.913549
    outer loop
      vertex -86.125 -66 28.6806
      vertex -85.4076 -63.5 29
      vertex -85.4076 -66 29
    endloop
  endfacet
  facet normal 0.406729 0 -0.913549
    outer loop
      vertex -85.4076 -63.5 29
      vertex -86.125 -66 28.6806
      vertex -86.125 -63.5 28.6806
    endloop
  endfacet
  facet normal -0.951075 0 -0.308959
    outer loop
      vertex -79.8429 -66 25.8836
      vertex -80.1174 -63.5 26.7286
      vertex -79.8429 -63.5 25.8836
    endloop
  endfacet
  facet normal -0.951075 -0 -0.308959
    outer loop
      vertex -80.1174 -63.5 26.7286
      vertex -79.8429 -66 25.8836
      vertex -80.1174 -66 26.7286
    endloop
  endfacet
  facet normal -0.587757 0 -0.809038
    outer loop
      vertex -81.875 -66 28.6806
      vertex -81.1562 -63.5 28.1584
      vertex -81.1562 -66 28.1584
    endloop
  endfacet
  facet normal -0.587757 0 -0.809038
    outer loop
      vertex -81.1562 -63.5 28.1584
      vertex -81.875 -66 28.6806
      vertex -81.875 -63.5 28.6806
    endloop
  endfacet
  facet normal 0.994518 0 -0.104562
    outer loop
      vertex -88.1571 -66 25.8836
      vertex -88.25 -63.5 25
      vertex -88.1571 -63.5 25.8836
    endloop
  endfacet
  facet normal 0.994518 0 -0.104562
    outer loop
      vertex -88.25 -63.5 25
      vertex -88.1571 -66 25.8836
      vertex -88.25 -66 25
    endloop
  endfacet
  facet normal 0.994518 -0 0.104562
    outer loop
      vertex -88.25 -66 25
      vertex -88.1571 -63.5 24.1164
      vertex -88.25 -63.5 25
    endloop
  endfacet
  facet normal 0.994518 0 0.104562
    outer loop
      vertex -88.1571 -63.5 24.1164
      vertex -88.25 -66 25
      vertex -88.1571 -66 24.1164
    endloop
  endfacet
  facet normal 0 -1 -0
    outer loop
      vertex -82.5924 -63.5 29
      vertex -83.05 -63.5 26.6454
      vertex -81.875 -63.5 28.6806
    endloop
  endfacet
  facet normal 0 -1 -0
    outer loop
      vertex -81.875 -63.5 28.6806
      vertex -83.05 -63.5 26.6454
      vertex -81.1562 -63.5 28.1584
    endloop
  endfacet
  facet normal 0 -1 0
    outer loop
      vertex -82.7287 -63.5 26.412
      vertex -81.1562 -63.5 28.1584
      vertex -83.05 -63.5 26.6454
    endloop
  endfacet
  facet normal 0 -1 -0
    outer loop
      vertex -81.1562 -63.5 28.1584
      vertex -82.7287 -63.5 26.412
      vertex -80.5617 -63.5 27.4981
    endloop
  endfacet
  facet normal 0 -1 0
    outer loop
      vertex -82.4629 -63.5 26.1168
      vertex -80.5617 -63.5 27.4981
      vertex -82.7287 -63.5 26.412
    endloop
  endfacet
  facet normal 0 -1 -0
    outer loop
      vertex -80.5617 -63.5 27.4981
      vertex -82.4629 -63.5 26.1168
      vertex -80.1174 -63.5 26.7286
    endloop
  endfacet
  facet normal 0 -1 0
    outer loop
      vertex -82.2643 -63.5 25.7728
      vertex -80.1174 -63.5 26.7286
      vertex -82.4629 -63.5 26.1168
    endloop
  endfacet
  facet normal 0 -1 -0
    outer loop
      vertex -80.1174 -63.5 26.7286
      vertex -82.2643 -63.5 25.7728
      vertex -79.8429 -63.5 25.8836
    endloop
  endfacet
  facet normal 0 -1 0
    outer loop
      vertex -82.1415 -63.5 25.395
      vertex -79.8429 -63.5 25.8836
      vertex -82.2643 -63.5 25.7728
    endloop
  endfacet
  facet normal 0 -1 0
    outer loop
      vertex -82.1 -63.5 25
      vertex -79.8429 -63.5 25.8836
      vertex -82.1415 -63.5 25.395
    endloop
  endfacet
  facet normal 0 -1 0
    outer loop
      vertex -82.1 -63.5 25
      vertex -79.75 -63.5 25
      vertex -79.8429 -63.5 25.8836
    endloop
  endfacet
  facet normal 0 -1 0
    outer loop
      vertex -82.1415 -63.5 24.605
      vertex -79.75 -63.5 25
      vertex -82.1 -63.5 25
    endloop
  endfacet
  facet normal 0 -1 0
    outer loop
      vertex -79.8429 -63.5 24.1164
      vertex -82.1415 -63.5 24.605
      vertex -82.2643 -63.5 24.2272
    endloop
  endfacet
  facet normal 0 -1 0
    outer loop
      vertex -82.1415 -63.5 24.605
      vertex -79.8429 -63.5 24.1164
      vertex -79.75 -63.5 25
    endloop
  endfacet
  facet normal 0 -1 0
    outer loop
      vertex -80.1174 -63.5 23.2714
      vertex -82.2643 -63.5 24.2272
      vertex -82.4629 -63.5 23.8832
    endloop
  endfacet
  facet normal 0 -1 0
    outer loop
      vertex -80.5617 -63.5 22.5019
      vertex -82.4629 -63.5 23.8832
      vertex -82.7287 -63.5 23.588
    endloop
  endfacet
  facet normal 0 -1 0
    outer loop
      vertex -81.1562 -63.5 21.8416
      vertex -82.7287 -63.5 23.588
      vertex -83.05 -63.5 23.3546
    endloop
  endfacet
  facet normal 0 -1 0
    outer loop
      vertex -82.2643 -63.5 24.2272
      vertex -80.1174 -63.5 23.2714
      vertex -79.8429 -63.5 24.1164
    endloop
  endfacet
  facet normal 0 -1 0
    outer loop
      vertex -81.875 -63.5 21.3194
      vertex -83.05 -63.5 23.3546
      vertex -83.4129 -63.5 23.193
    endloop
  endfacet
  facet normal 0 -1 0
    outer loop
      vertex -82.6867 -63.5 20.958
      vertex -83.4129 -63.5 23.193
      vertex -83.8014 -63.5 23.1104
    endloop
  endfacet
  facet normal 0 -1 0
    outer loop
      vertex -85.3133 -63.5 20.958
      vertex -84.5871 -63.5 23.193
      vertex -86.125 -63.5 21.3194
    endloop
  endfacet
  facet normal 0 -1 0
    outer loop
      vertex -82.4629 -63.5 23.8832
      vertex -80.5617 -63.5 22.5019
      vertex -80.1174 -63.5 23.2714
    endloop
  endfacet
  facet normal 0 -1 -0
    outer loop
      vertex -84.5871 -63.5 23.193
      vertex -85.3133 -63.5 20.958
      vertex -84.1986 -63.5 23.1104
    endloop
  endfacet
  facet normal 0 -1 0
    outer loop
      vertex -82.7287 -63.5 23.588
      vertex -81.1562 -63.5 21.8416
      vertex -80.5617 -63.5 22.5019
    endloop
  endfacet
  facet normal 0 -1 0
    outer loop
      vertex -84.4442 -63.5 20.7733
      vertex -84.1986 -63.5 23.1104
      vertex -85.3133 -63.5 20.958
    endloop
  endfacet
  facet normal 0 -1 0
    outer loop
      vertex -83.05 -63.5 23.3546
      vertex -81.875 -63.5 21.3194
      vertex -81.1562 -63.5 21.8416
    endloop
  endfacet
  facet normal 0 -1 -0
    outer loop
      vertex -84.1986 -63.5 23.1104
      vertex -84.4442 -63.5 20.7733
      vertex -83.8014 -63.5 23.1104
    endloop
  endfacet
  facet normal 0 -1 0
    outer loop
      vertex -83.4129 -63.5 23.193
      vertex -82.6867 -63.5 20.958
      vertex -81.875 -63.5 21.3194
    endloop
  endfacet
  facet normal 0 -1 0
    outer loop
      vertex -83.5558 -63.5 20.7733
      vertex -83.8014 -63.5 23.1104
      vertex -84.4442 -63.5 20.7733
    endloop
  endfacet
  facet normal 0 -1 0
    outer loop
      vertex -83.8014 -63.5 23.1104
      vertex -83.5558 -63.5 20.7733
      vertex -82.6867 -63.5 20.958
    endloop
  endfacet
  facet normal 0 -1 0
    outer loop
      vertex -84.1986 -63.5 34.8896
      vertex -84.4442 -63.5 37.2267
      vertex -85.3133 -63.5 37.042
    endloop
  endfacet
  facet normal 0 -1 0
    outer loop
      vertex -84.4442 -63.5 37.2267
      vertex -84.1986 -63.5 34.8896
      vertex -83.5558 -63.5 37.2267
    endloop
  endfacet
  facet normal 0 -1 0
    outer loop
      vertex -84.5871 -63.5 34.807
      vertex -85.3133 -63.5 37.042
      vertex -86.125 -63.5 36.6806
    endloop
  endfacet
  facet normal 0 -1 0
    outer loop
      vertex -83.8014 -63.5 34.8896
      vertex -83.5558 -63.5 37.2267
      vertex -84.1986 -63.5 34.8896
    endloop
  endfacet
  facet normal 0 -1 0
    outer loop
      vertex -84.95 -63.5 34.6454
      vertex -86.125 -63.5 36.6806
      vertex -86.8438 -63.5 36.1584
    endloop
  endfacet
  facet normal 0 -1 -0
    outer loop
      vertex -83.5558 -63.5 37.2267
      vertex -83.8014 -63.5 34.8896
      vertex -82.6867 -63.5 37.042
    endloop
  endfacet
  facet normal 0 -1 0
    outer loop
      vertex -85.2713 -63.5 34.412
      vertex -86.8438 -63.5 36.1584
      vertex -87.4383 -63.5 35.4981
    endloop
  endfacet
  facet normal 0 -1 0
    outer loop
      vertex -83.4129 -63.5 34.807
      vertex -82.6867 -63.5 37.042
      vertex -83.8014 -63.5 34.8896
    endloop
  endfacet
  facet normal 0 -1 -0
    outer loop
      vertex -82.6867 -63.5 37.042
      vertex -83.4129 -63.5 34.807
      vertex -81.875 -63.5 36.6806
    endloop
  endfacet
  facet normal 0 -1 0
    outer loop
      vertex -85.3133 -63.5 37.042
      vertex -84.5871 -63.5 34.807
      vertex -84.1986 -63.5 34.8896
    endloop
  endfacet
  facet normal 0 -1 0
    outer loop
      vertex -85.5371 -63.5 34.1168
      vertex -87.4383 -63.5 35.4981
      vertex -87.8826 -63.5 34.7286
    endloop
  endfacet
  facet normal 0 -1 0
    outer loop
      vertex -86.125 -63.5 36.6806
      vertex -84.95 -63.5 34.6454
      vertex -84.5871 -63.5 34.807
    endloop
  endfacet
  facet normal 0 -1 0
    outer loop
      vertex -86.8438 -63.5 36.1584
      vertex -85.2713 -63.5 34.412
      vertex -84.95 -63.5 34.6454
    endloop
  endfacet
  facet normal 0 -1 0
    outer loop
      vertex -87.4383 -63.5 35.4981
      vertex -85.5371 -63.5 34.1168
      vertex -85.2713 -63.5 34.412
    endloop
  endfacet
  facet normal 0 -1 0
    outer loop
      vertex -85.7357 -63.5 33.7728
      vertex -87.8826 -63.5 34.7286
      vertex -88.1571 -63.5 33.8836
    endloop
  endfacet
  facet normal 0 -1 0
    outer loop
      vertex -87.8826 -63.5 34.7286
      vertex -85.7357 -63.5 33.7728
      vertex -85.5371 -63.5 34.1168
    endloop
  endfacet
  facet normal 0 -1 0
    outer loop
      vertex -88.1571 -63.5 33.8836
      vertex -85.8585 -63.5 33.395
      vertex -85.7357 -63.5 33.7728
    endloop
  endfacet
  facet normal 0 -1 0
    outer loop
      vertex -88.25 -63.5 33
      vertex -85.8585 -63.5 33.395
      vertex -88.1571 -63.5 33.8836
    endloop
  endfacet
  facet normal 0 -1 0
    outer loop
      vertex -88.25 -63.5 33
      vertex -85.9 -63.5 33
      vertex -85.8585 -63.5 33.395
    endloop
  endfacet
  facet normal 0 -1 0
    outer loop
      vertex -88.25 -63.5 33
      vertex -85.8585 -63.5 32.605
      vertex -85.9 -63.5 33
    endloop
  endfacet
  facet normal 0 -1 0
    outer loop
      vertex -88.1571 -63.5 32.1164
      vertex -85.8585 -63.5 32.605
      vertex -88.25 -63.5 33
    endloop
  endfacet
  facet normal 0 -1 -0
    outer loop
      vertex -85.8585 -63.5 32.605
      vertex -88.1571 -63.5 32.1164
      vertex -85.7357 -63.5 32.2272
    endloop
  endfacet
  facet normal 0 -1 0
    outer loop
      vertex -87.8826 -63.5 31.2714
      vertex -85.7357 -63.5 32.2272
      vertex -88.1571 -63.5 32.1164
    endloop
  endfacet
  facet normal 0 -1 -0
    outer loop
      vertex -85.7357 -63.5 32.2272
      vertex -87.8826 -63.5 31.2714
      vertex -85.5371 -63.5 31.8832
    endloop
  endfacet
  facet normal 0 -1 0
    outer loop
      vertex -87.4383 -63.5 30.5019
      vertex -85.5371 -63.5 31.8832
      vertex -87.8826 -63.5 31.2714
    endloop
  endfacet
  facet normal 0 -1 -0
    outer loop
      vertex -85.5371 -63.5 31.8832
      vertex -87.4383 -63.5 30.5019
      vertex -85.2713 -63.5 31.588
    endloop
  endfacet
  facet normal 0 -1 0
    outer loop
      vertex -86.8438 -63.5 29.8416
      vertex -85.2713 -63.5 31.588
      vertex -87.4383 -63.5 30.5019
    endloop
  endfacet
  facet normal 0 -1 -0
    outer loop
      vertex -85.2713 -63.5 31.588
      vertex -86.8438 -63.5 29.8416
      vertex -84.95 -63.5 31.3546
    endloop
  endfacet
  facet normal 0 -1 0
    outer loop
      vertex -85.4076 -63.5 29
      vertex -84.95 -63.5 31.3546
      vertex -86.125 -63.5 29.3194
    endloop
  endfacet
  facet normal 0 -1 0
    outer loop
      vertex -86.125 -63.5 29.3194
      vertex -84.95 -63.5 31.3546
      vertex -86.8438 -63.5 29.8416
    endloop
  endfacet
  facet normal 0 -1 0
    outer loop
      vertex -83.05 -63.5 34.6454
      vertex -81.875 -63.5 36.6806
      vertex -83.4129 -63.5 34.807
    endloop
  endfacet
  facet normal 0 -1 -0
    outer loop
      vertex -81.875 -63.5 36.6806
      vertex -83.05 -63.5 34.6454
      vertex -81.1562 -63.5 36.1584
    endloop
  endfacet
  facet normal 0 -1 0
    outer loop
      vertex -82.7287 -63.5 34.412
      vertex -81.1562 -63.5 36.1584
      vertex -83.05 -63.5 34.6454
    endloop
  endfacet
  facet normal 0 -1 -0
    outer loop
      vertex -81.1562 -63.5 36.1584
      vertex -82.7287 -63.5 34.412
      vertex -80.5617 -63.5 35.4981
    endloop
  endfacet
  facet normal 0 -1 0
    outer loop
      vertex -82.4629 -63.5 34.1168
      vertex -80.5617 -63.5 35.4981
      vertex -82.7287 -63.5 34.412
    endloop
  endfacet
  facet normal 0 -1 -0
    outer loop
      vertex -80.5617 -63.5 35.4981
      vertex -82.4629 -63.5 34.1168
      vertex -80.1174 -63.5 34.7286
    endloop
  endfacet
  facet normal 0 -1 0
    outer loop
      vertex -82.2643 -63.5 33.7728
      vertex -80.1174 -63.5 34.7286
      vertex -82.4629 -63.5 34.1168
    endloop
  endfacet
  facet normal 0 -1 -0
    outer loop
      vertex -80.1174 -63.5 34.7286
      vertex -82.2643 -63.5 33.7728
      vertex -79.8429 -63.5 33.8836
    endloop
  endfacet
  facet normal 0 -1 0
    outer loop
      vertex -82.1415 -63.5 33.395
      vertex -79.8429 -63.5 33.8836
      vertex -82.2643 -63.5 33.7728
    endloop
  endfacet
  facet normal 0 -1 0
    outer loop
      vertex -82.1 -63.5 33
      vertex -79.8429 -63.5 33.8836
      vertex -82.1415 -63.5 33.395
    endloop
  endfacet
  facet normal 0 -1 0
    outer loop
      vertex -82.1 -63.5 33
      vertex -79.75 -63.5 33
      vertex -79.8429 -63.5 33.8836
    endloop
  endfacet
  facet normal 0 -1 0
    outer loop
      vertex -82.1415 -63.5 32.605
      vertex -79.75 -63.5 33
      vertex -82.1 -63.5 33
    endloop
  endfacet
  facet normal 0 -1 0
    outer loop
      vertex -79.8429 -63.5 32.1164
      vertex -82.1415 -63.5 32.605
      vertex -82.2643 -63.5 32.2272
    endloop
  endfacet
  facet normal 0 -1 0
    outer loop
      vertex -82.1415 -63.5 32.605
      vertex -79.8429 -63.5 32.1164
      vertex -79.75 -63.5 33
    endloop
  endfacet
  facet normal 0 -1 0
    outer loop
      vertex -80.1174 -63.5 31.2714
      vertex -82.2643 -63.5 32.2272
      vertex -82.4629 -63.5 31.8832
    endloop
  endfacet
  facet normal 0 -1 0
    outer loop
      vertex -80.5617 -63.5 30.5019
      vertex -82.4629 -63.5 31.8832
      vertex -82.7287 -63.5 31.588
    endloop
  endfacet
  facet normal 0 -1 0
    outer loop
      vertex -81.1562 -63.5 29.8416
      vertex -82.7287 -63.5 31.588
      vertex -83.05 -63.5 31.3546
    endloop
  endfacet
  facet normal 0 -1 0
    outer loop
      vertex -82.2643 -63.5 32.2272
      vertex -80.1174 -63.5 31.2714
      vertex -79.8429 -63.5 32.1164
    endloop
  endfacet
  facet normal 0 -1 0
    outer loop
      vertex -82.5924 -63.5 29
      vertex -83.05 -63.5 31.3546
      vertex -83.4129 -63.5 31.193
    endloop
  endfacet
  facet normal 0 -1 0
    outer loop
      vertex -82.5924 -63.5 29
      vertex -83.4129 -63.5 31.193
      vertex -83.8014 -63.5 31.1104
    endloop
  endfacet
  facet normal 0 -1 -0
    outer loop
      vertex -84.95 -63.5 31.3546
      vertex -85.4076 -63.5 29
      vertex -84.5871 -63.5 31.193
    endloop
  endfacet
  facet normal 0 -1 0
    outer loop
      vertex -82.4629 -63.5 31.8832
      vertex -80.5617 -63.5 30.5019
      vertex -80.1174 -63.5 31.2714
    endloop
  endfacet
  facet normal 0 -1 -0
    outer loop
      vertex -84.5871 -63.5 31.193
      vertex -85.4076 -63.5 29
      vertex -84.1986 -63.5 31.1104
    endloop
  endfacet
  facet normal 0 -1 0
    outer loop
      vertex -82.7287 -63.5 31.588
      vertex -81.1562 -63.5 29.8416
      vertex -80.5617 -63.5 30.5019
    endloop
  endfacet
  facet normal 0 -1 -0
    outer loop
      vertex -84.1986 -63.5 31.1104
      vertex -85.4076 -63.5 29
      vertex -83.8014 -63.5 31.1104
    endloop
  endfacet
  facet normal 0 -1 0
    outer loop
      vertex -82.5924 -63.5 29
      vertex -83.8014 -63.5 31.1104
      vertex -85.4076 -63.5 29
    endloop
  endfacet
  facet normal 0 -1 0
    outer loop
      vertex -83.05 -63.5 31.3546
      vertex -82.5924 -63.5 29
      vertex -81.875 -63.5 29.3194
    endloop
  endfacet
  facet normal 0 -1 0
    outer loop
      vertex -83.05 -63.5 31.3546
      vertex -81.875 -63.5 29.3194
      vertex -81.1562 -63.5 29.8416
    endloop
  endfacet
  facet normal 0 -1 0
    outer loop
      vertex -84.95 -63.5 26.6454
      vertex -85.4076 -63.5 29
      vertex -86.125 -63.5 28.6806
    endloop
  endfacet
  facet normal 0 -1 0
    outer loop
      vertex -85.4076 -63.5 29
      vertex -84.1986 -63.5 26.8896
      vertex -82.5924 -63.5 29
    endloop
  endfacet
  facet normal 0 -1 0
    outer loop
      vertex -84.95 -63.5 26.6454
      vertex -86.125 -63.5 28.6806
      vertex -86.8438 -63.5 28.1584
    endloop
  endfacet
  facet normal 0 -1 0
    outer loop
      vertex -83.8014 -63.5 26.8896
      vertex -82.5924 -63.5 29
      vertex -84.1986 -63.5 26.8896
    endloop
  endfacet
  facet normal 0 -1 0
    outer loop
      vertex -85.2713 -63.5 26.412
      vertex -86.8438 -63.5 28.1584
      vertex -87.4383 -63.5 27.4981
    endloop
  endfacet
  facet normal 0 -1 0
    outer loop
      vertex -83.4129 -63.5 26.807
      vertex -82.5924 -63.5 29
      vertex -83.8014 -63.5 26.8896
    endloop
  endfacet
  facet normal 0 -1 0
    outer loop
      vertex -83.05 -63.5 26.6454
      vertex -82.5924 -63.5 29
      vertex -83.4129 -63.5 26.807
    endloop
  endfacet
  facet normal 0 -1 0
    outer loop
      vertex -85.4076 -63.5 29
      vertex -84.5871 -63.5 26.807
      vertex -84.1986 -63.5 26.8896
    endloop
  endfacet
  facet normal 0 -1 0
    outer loop
      vertex -85.5371 -63.5 26.1168
      vertex -87.4383 -63.5 27.4981
      vertex -87.8826 -63.5 26.7286
    endloop
  endfacet
  facet normal 0 -1 0
    outer loop
      vertex -85.4076 -63.5 29
      vertex -84.95 -63.5 26.6454
      vertex -84.5871 -63.5 26.807
    endloop
  endfacet
  facet normal 0 -1 0
    outer loop
      vertex -86.8438 -63.5 28.1584
      vertex -85.2713 -63.5 26.412
      vertex -84.95 -63.5 26.6454
    endloop
  endfacet
  facet normal 0 -1 0
    outer loop
      vertex -87.4383 -63.5 27.4981
      vertex -85.5371 -63.5 26.1168
      vertex -85.2713 -63.5 26.412
    endloop
  endfacet
  facet normal 0 -1 0
    outer loop
      vertex -85.7357 -63.5 25.7728
      vertex -87.8826 -63.5 26.7286
      vertex -88.1571 -63.5 25.8836
    endloop
  endfacet
  facet normal 0 -1 0
    outer loop
      vertex -87.8826 -63.5 26.7286
      vertex -85.7357 -63.5 25.7728
      vertex -85.5371 -63.5 26.1168
    endloop
  endfacet
  facet normal 0 -1 0
    outer loop
      vertex -88.1571 -63.5 25.8836
      vertex -85.8585 -63.5 25.395
      vertex -85.7357 -63.5 25.7728
    endloop
  endfacet
  facet normal 0 -1 0
    outer loop
      vertex -88.25 -63.5 25
      vertex -85.8585 -63.5 25.395
      vertex -88.1571 -63.5 25.8836
    endloop
  endfacet
  facet normal 0 -1 0
    outer loop
      vertex -88.25 -63.5 25
      vertex -85.9 -63.5 25
      vertex -85.8585 -63.5 25.395
    endloop
  endfacet
  facet normal 0 -1 0
    outer loop
      vertex -88.25 -63.5 25
      vertex -85.8585 -63.5 24.605
      vertex -85.9 -63.5 25
    endloop
  endfacet
  facet normal 0 -1 0
    outer loop
      vertex -88.1571 -63.5 24.1164
      vertex -85.8585 -63.5 24.605
      vertex -88.25 -63.5 25
    endloop
  endfacet
  facet normal 0 -1 -0
    outer loop
      vertex -85.8585 -63.5 24.605
      vertex -88.1571 -63.5 24.1164
      vertex -85.7357 -63.5 24.2272
    endloop
  endfacet
  facet normal 0 -1 0
    outer loop
      vertex -87.8826 -63.5 23.2714
      vertex -85.7357 -63.5 24.2272
      vertex -88.1571 -63.5 24.1164
    endloop
  endfacet
  facet normal 0 -1 -0
    outer loop
      vertex -85.7357 -63.5 24.2272
      vertex -87.8826 -63.5 23.2714
      vertex -85.5371 -63.5 23.8832
    endloop
  endfacet
  facet normal 0 -1 0
    outer loop
      vertex -87.4383 -63.5 22.5019
      vertex -85.5371 -63.5 23.8832
      vertex -87.8826 -63.5 23.2714
    endloop
  endfacet
  facet normal 0 -1 -0
    outer loop
      vertex -85.5371 -63.5 23.8832
      vertex -87.4383 -63.5 22.5019
      vertex -85.2713 -63.5 23.588
    endloop
  endfacet
  facet normal 0 -1 0
    outer loop
      vertex -86.8438 -63.5 21.8416
      vertex -85.2713 -63.5 23.588
      vertex -87.4383 -63.5 22.5019
    endloop
  endfacet
  facet normal 0 -1 -0
    outer loop
      vertex -85.2713 -63.5 23.588
      vertex -86.8438 -63.5 21.8416
      vertex -84.95 -63.5 23.3546
    endloop
  endfacet
  facet normal 0 -1 -0
    outer loop
      vertex -84.95 -63.5 23.3546
      vertex -86.125 -63.5 21.3194
      vertex -84.5871 -63.5 23.193
    endloop
  endfacet
  facet normal 0 -1 0
    outer loop
      vertex -86.125 -63.5 21.3194
      vertex -84.95 -63.5 23.3546
      vertex -86.8438 -63.5 21.8416
    endloop
  endfacet
  facet normal 0.743165 -0 0.669108
    outer loop
      vertex -87.4383 -66 22.5019
      vertex -86.8438 -63.5 21.8416
      vertex -87.4383 -63.5 22.5019
    endloop
  endfacet
  facet normal 0.743165 0 0.669108
    outer loop
      vertex -86.8438 -63.5 21.8416
      vertex -87.4383 -66 22.5019
      vertex -86.8438 -66 21.8416
    endloop
  endfacet
  facet normal 0.587757 0 0.809038
    outer loop
      vertex -86.8438 -63.5 21.8416
      vertex -86.125 -66 21.3194
      vertex -86.125 -63.5 21.3194
    endloop
  endfacet
  facet normal 0.587757 0 0.809038
    outer loop
      vertex -86.125 -66 21.3194
      vertex -86.8438 -63.5 21.8416
      vertex -86.8438 -66 21.8416
    endloop
  endfacet
  facet normal 0.866011 0 -0.500024
    outer loop
      vertex -87.4383 -66 27.4981
      vertex -87.8826 -63.5 26.7286
      vertex -87.4383 -63.5 27.4981
    endloop
  endfacet
  facet normal 0.866011 0 -0.500024
    outer loop
      vertex -87.8826 -63.5 26.7286
      vertex -87.4383 -66 27.4981
      vertex -87.8826 -66 26.7286
    endloop
  endfacet
  facet normal 0.866011 -0 0.500024
    outer loop
      vertex -87.8826 -66 23.2714
      vertex -87.4383 -63.5 22.5019
      vertex -87.8826 -63.5 23.2714
    endloop
  endfacet
  facet normal 0.866011 0 0.500024
    outer loop
      vertex -87.4383 -63.5 22.5019
      vertex -87.8826 -66 23.2714
      vertex -87.4383 -66 22.5019
    endloop
  endfacet
  facet normal 0.743144 0 -0.669132
    outer loop
      vertex -85.2713 -63.5 34.412
      vertex -85.5371 -60 34.1168
      vertex -85.2713 -60 34.412
    endloop
  endfacet
  facet normal 0.743144 0 -0.669132
    outer loop
      vertex -85.5371 -60 34.1168
      vertex -85.2713 -63.5 34.412
      vertex -85.5371 -63.5 34.1168
    endloop
  endfacet
  facet normal -0.406792 0 0.913521
    outer loop
      vertex -83.4129 -60 31.193
      vertex -83.05 -63.5 31.3546
      vertex -83.05 -60 31.3546
    endloop
  endfacet
  facet normal -0.406792 0 0.913521
    outer loop
      vertex -83.05 -63.5 31.3546
      vertex -83.4129 -60 31.193
      vertex -83.4129 -63.5 31.193
    endloop
  endfacet
  facet normal 0.587722 0 -0.809063
    outer loop
      vertex -85.2713 -63.5 34.412
      vertex -84.95 -60 34.6454
      vertex -84.95 -63.5 34.6454
    endloop
  endfacet
  facet normal 0.587722 0 -0.809063
    outer loop
      vertex -84.95 -60 34.6454
      vertex -85.2713 -63.5 34.412
      vertex -85.2713 -60 34.412
    endloop
  endfacet
  facet normal -0.994526 0 -0.104488
    outer loop
      vertex -82.1 -63.5 33
      vertex -82.1415 -60 33.395
      vertex -82.1 -60 33
    endloop
  endfacet
  facet normal -0.994526 -0 -0.104488
    outer loop
      vertex -82.1415 -60 33.395
      vertex -82.1 -63.5 33
      vertex -82.1415 -63.5 33.395
    endloop
  endfacet
  facet normal 0.994526 -0 0.104488
    outer loop
      vertex -85.9 -63.5 33
      vertex -85.8585 -60 32.605
      vertex -85.9 -60 33
    endloop
  endfacet
  facet normal 0.994526 0 0.104488
    outer loop
      vertex -85.8585 -60 32.605
      vertex -85.9 -63.5 33
      vertex -85.8585 -63.5 32.605
    endloop
  endfacet
  facet normal -0.866035 0 0.499984
    outer loop
      vertex -82.4629 -63.5 31.8832
      vertex -82.2643 -60 32.2272
      vertex -82.4629 -60 31.8832
    endloop
  endfacet
  facet normal -0.866035 0 0.499984
    outer loop
      vertex -82.2643 -60 32.2272
      vertex -82.4629 -63.5 31.8832
      vertex -82.2643 -63.5 32.2272
    endloop
  endfacet
  facet normal -0.587722 0 0.809063
    outer loop
      vertex -83.05 -60 31.3546
      vertex -82.7287 -63.5 31.588
      vertex -82.7287 -60 31.588
    endloop
  endfacet
  facet normal -0.587722 0 0.809063
    outer loop
      vertex -82.7287 -63.5 31.588
      vertex -83.05 -60 31.3546
      vertex -83.05 -63.5 31.3546
    endloop
  endfacet
  facet normal -0.207964 0 0.978136
    outer loop
      vertex -83.8014 -60 31.1104
      vertex -83.4129 -63.5 31.193
      vertex -83.4129 -60 31.193
    endloop
  endfacet
  facet normal -0.207964 0 0.978136
    outer loop
      vertex -83.4129 -63.5 31.193
      vertex -83.8014 -60 31.1104
      vertex -83.8014 -63.5 31.1104
    endloop
  endfacet
  facet normal -0.743144 0 0.669132
    outer loop
      vertex -82.7287 -63.5 31.588
      vertex -82.4629 -60 31.8832
      vertex -82.7287 -60 31.588
    endloop
  endfacet
  facet normal -0.743144 0 0.669132
    outer loop
      vertex -82.4629 -60 31.8832
      vertex -82.7287 -63.5 31.588
      vertex -82.4629 -63.5 31.8832
    endloop
  endfacet
  facet normal -0.994526 0 0.104488
    outer loop
      vertex -82.1415 -63.5 32.605
      vertex -82.1 -60 33
      vertex -82.1415 -60 32.605
    endloop
  endfacet
  facet normal -0.994526 0 0.104488
    outer loop
      vertex -82.1 -60 33
      vertex -82.1415 -63.5 32.605
      vertex -82.1 -63.5 33
    endloop
  endfacet
  facet normal 0.951023 0 -0.30912
    outer loop
      vertex -85.7357 -63.5 33.7728
      vertex -85.8585 -60 33.395
      vertex -85.7357 -60 33.7728
    endloop
  endfacet
  facet normal 0.951023 0 -0.30912
    outer loop
      vertex -85.8585 -60 33.395
      vertex -85.7357 -63.5 33.7728
      vertex -85.8585 -63.5 33.395
    endloop
  endfacet
  facet normal 0.207964 0 0.978136
    outer loop
      vertex -84.5871 -60 31.193
      vertex -84.1986 -63.5 31.1104
      vertex -84.1986 -60 31.1104
    endloop
  endfacet
  facet normal 0.207964 0 0.978136
    outer loop
      vertex -84.1986 -63.5 31.1104
      vertex -84.5871 -60 31.193
      vertex -84.5871 -63.5 31.193
    endloop
  endfacet
  facet normal -0.951023 0 0.30912
    outer loop
      vertex -82.2643 -63.5 32.2272
      vertex -82.1415 -60 32.605
      vertex -82.2643 -60 32.2272
    endloop
  endfacet
  facet normal -0.951023 0 0.30912
    outer loop
      vertex -82.1415 -60 32.605
      vertex -82.2643 -63.5 32.2272
      vertex -82.1415 -63.5 32.605
    endloop
  endfacet
  facet normal -0.951023 0 -0.30912
    outer loop
      vertex -82.1415 -63.5 33.395
      vertex -82.2643 -60 33.7728
      vertex -82.1415 -60 33.395
    endloop
  endfacet
  facet normal -0.951023 -0 -0.30912
    outer loop
      vertex -82.2643 -60 33.7728
      vertex -82.1415 -63.5 33.395
      vertex -82.2643 -63.5 33.7728
    endloop
  endfacet
  facet normal -0.587722 0 -0.809063
    outer loop
      vertex -83.05 -63.5 34.6454
      vertex -82.7287 -60 34.412
      vertex -82.7287 -63.5 34.412
    endloop
  endfacet
  facet normal -0.587722 0 -0.809063
    outer loop
      vertex -82.7287 -60 34.412
      vertex -83.05 -63.5 34.6454
      vertex -83.05 -60 34.6454
    endloop
  endfacet
  facet normal 0.951023 -0 0.30912
    outer loop
      vertex -85.8585 -63.5 32.605
      vertex -85.7357 -60 32.2272
      vertex -85.8585 -60 32.605
    endloop
  endfacet
  facet normal 0.951023 0 0.30912
    outer loop
      vertex -85.7357 -60 32.2272
      vertex -85.8585 -63.5 32.605
      vertex -85.7357 -63.5 32.2272
    endloop
  endfacet
  facet normal 0.406792 0 -0.913521
    outer loop
      vertex -84.95 -63.5 34.6454
      vertex -84.5871 -60 34.807
      vertex -84.5871 -63.5 34.807
    endloop
  endfacet
  facet normal 0.406792 0 -0.913521
    outer loop
      vertex -84.5871 -60 34.807
      vertex -84.95 -63.5 34.6454
      vertex -84.95 -60 34.6454
    endloop
  endfacet
  facet normal 0.406792 0 0.913521
    outer loop
      vertex -84.95 -60 31.3546
      vertex -84.5871 -63.5 31.193
      vertex -84.5871 -60 31.193
    endloop
  endfacet
  facet normal 0.406792 0 0.913521
    outer loop
      vertex -84.5871 -63.5 31.193
      vertex -84.95 -60 31.3546
      vertex -84.95 -63.5 31.3546
    endloop
  endfacet
  facet normal -0.866035 0 -0.499984
    outer loop
      vertex -82.2643 -63.5 33.7728
      vertex -82.4629 -60 34.1168
      vertex -82.2643 -60 33.7728
    endloop
  endfacet
  facet normal -0.866035 -0 -0.499984
    outer loop
      vertex -82.4629 -60 34.1168
      vertex -82.2643 -63.5 33.7728
      vertex -82.4629 -63.5 34.1168
    endloop
  endfacet
  facet normal 0.743144 -0 0.669132
    outer loop
      vertex -85.5371 -63.5 31.8832
      vertex -85.2713 -60 31.588
      vertex -85.5371 -60 31.8832
    endloop
  endfacet
  facet normal 0.743144 0 0.669132
    outer loop
      vertex -85.2713 -60 31.588
      vertex -85.5371 -63.5 31.8832
      vertex -85.2713 -63.5 31.588
    endloop
  endfacet
  facet normal 0.866035 0 -0.499984
    outer loop
      vertex -85.5371 -63.5 34.1168
      vertex -85.7357 -60 33.7728
      vertex -85.5371 -60 34.1168
    endloop
  endfacet
  facet normal 0.866035 0 -0.499984
    outer loop
      vertex -85.7357 -60 33.7728
      vertex -85.5371 -63.5 34.1168
      vertex -85.7357 -63.5 33.7728
    endloop
  endfacet
  facet normal 0.866035 -0 0.499984
    outer loop
      vertex -85.7357 -63.5 32.2272
      vertex -85.5371 -60 31.8832
      vertex -85.7357 -60 32.2272
    endloop
  endfacet
  facet normal 0.866035 0 0.499984
    outer loop
      vertex -85.5371 -60 31.8832
      vertex -85.7357 -63.5 32.2272
      vertex -85.5371 -63.5 31.8832
    endloop
  endfacet
  facet normal -0.743144 0 -0.669132
    outer loop
      vertex -82.4629 -63.5 34.1168
      vertex -82.7287 -60 34.412
      vertex -82.4629 -60 34.1168
    endloop
  endfacet
  facet normal -0.743144 -0 -0.669132
    outer loop
      vertex -82.7287 -60 34.412
      vertex -82.4629 -63.5 34.1168
      vertex -82.7287 -63.5 34.412
    endloop
  endfacet
  facet normal 0 0 -1
    outer loop
      vertex -84.1986 -63.5 34.8896
      vertex -83.8014 -60 34.8896
      vertex -83.8014 -63.5 34.8896
    endloop
  endfacet
  facet normal -0 0 -1
    outer loop
      vertex -83.8014 -60 34.8896
      vertex -84.1986 -63.5 34.8896
      vertex -84.1986 -60 34.8896
    endloop
  endfacet
  facet normal -0.406792 0 -0.913521
    outer loop
      vertex -83.4129 -63.5 34.807
      vertex -83.05 -60 34.6454
      vertex -83.05 -63.5 34.6454
    endloop
  endfacet
  facet normal -0.406792 0 -0.913521
    outer loop
      vertex -83.05 -60 34.6454
      vertex -83.4129 -63.5 34.807
      vertex -83.4129 -60 34.807
    endloop
  endfacet
  facet normal -0 0 1
    outer loop
      vertex -84.1986 -60 31.1104
      vertex -83.8014 -63.5 31.1104
      vertex -83.8014 -60 31.1104
    endloop
  endfacet
  facet normal 0 0 1
    outer loop
      vertex -83.8014 -63.5 31.1104
      vertex -84.1986 -60 31.1104
      vertex -84.1986 -63.5 31.1104
    endloop
  endfacet
  facet normal 0.587722 0 0.809063
    outer loop
      vertex -85.2713 -60 31.588
      vertex -84.95 -63.5 31.3546
      vertex -84.95 -60 31.3546
    endloop
  endfacet
  facet normal 0.587722 0 0.809063
    outer loop
      vertex -84.95 -63.5 31.3546
      vertex -85.2713 -60 31.588
      vertex -85.2713 -63.5 31.588
    endloop
  endfacet
  facet normal 0.994526 0 -0.104488
    outer loop
      vertex -85.8585 -63.5 33.395
      vertex -85.9 -60 33
      vertex -85.8585 -60 33.395
    endloop
  endfacet
  facet normal 0.994526 0 -0.104488
    outer loop
      vertex -85.9 -60 33
      vertex -85.8585 -63.5 33.395
      vertex -85.9 -63.5 33
    endloop
  endfacet
  facet normal -0.207964 0 -0.978136
    outer loop
      vertex -83.8014 -63.5 34.8896
      vertex -83.4129 -60 34.807
      vertex -83.4129 -63.5 34.807
    endloop
  endfacet
  facet normal -0.207964 0 -0.978136
    outer loop
      vertex -83.4129 -60 34.807
      vertex -83.8014 -63.5 34.8896
      vertex -83.8014 -60 34.8896
    endloop
  endfacet
  facet normal 0.207964 0 -0.978136
    outer loop
      vertex -84.5871 -63.5 34.807
      vertex -84.1986 -60 34.8896
      vertex -84.1986 -63.5 34.8896
    endloop
  endfacet
  facet normal 0.207964 0 -0.978136
    outer loop
      vertex -84.1986 -60 34.8896
      vertex -84.5871 -63.5 34.807
      vertex -84.5871 -60 34.807
    endloop
  endfacet
  facet normal -0.743165 0 0.669108
    outer loop
      vertex -81.1562 -66 29.8416
      vertex -80.5617 -63.5 30.5019
      vertex -81.1562 -63.5 29.8416
    endloop
  endfacet
  facet normal -0.743165 0 0.669108
    outer loop
      vertex -80.5617 -63.5 30.5019
      vertex -81.1562 -66 29.8416
      vertex -80.5617 -66 30.5019
    endloop
  endfacet
  facet normal -0.743165 0 -0.669108
    outer loop
      vertex -80.5617 -66 35.4981
      vertex -81.1562 -63.5 36.1584
      vertex -80.5617 -63.5 35.4981
    endloop
  endfacet
  facet normal -0.743165 -0 -0.669108
    outer loop
      vertex -81.1562 -63.5 36.1584
      vertex -80.5617 -66 35.4981
      vertex -81.1562 -66 36.1584
    endloop
  endfacet
  facet normal -0.951075 0 0.308959
    outer loop
      vertex -80.1174 -66 31.2714
      vertex -79.8429 -63.5 32.1164
      vertex -80.1174 -63.5 31.2714
    endloop
  endfacet
  facet normal -0.951075 0 0.308959
    outer loop
      vertex -79.8429 -63.5 32.1164
      vertex -80.1174 -66 31.2714
      vertex -79.8429 -66 32.1164
    endloop
  endfacet
  facet normal -0.406744 0 -0.913542
    outer loop
      vertex -82.6867 -66 37.042
      vertex -81.875 -63.5 36.6806
      vertex -81.875 -66 36.6806
    endloop
  endfacet
  facet normal -0.406744 0 -0.913542
    outer loop
      vertex -81.875 -63.5 36.6806
      vertex -82.6867 -66 37.042
      vertex -82.6867 -63.5 37.042
    endloop
  endfacet
  facet normal -0.994518 0 -0.104562
    outer loop
      vertex -79.75 -66 33
      vertex -79.8429 -63.5 33.8836
      vertex -79.75 -63.5 33
    endloop
  endfacet
  facet normal -0.994518 -0 -0.104562
    outer loop
      vertex -79.8429 -63.5 33.8836
      vertex -79.75 -66 33
      vertex -79.8429 -66 33.8836
    endloop
  endfacet
  facet normal 0.587757 0 -0.809038
    outer loop
      vertex -86.8438 -66 36.1584
      vertex -86.125 -63.5 36.6806
      vertex -86.125 -66 36.6806
    endloop
  endfacet
  facet normal 0.587757 0 -0.809038
    outer loop
      vertex -86.125 -63.5 36.6806
      vertex -86.8438 -66 36.1584
      vertex -86.8438 -63.5 36.1584
    endloop
  endfacet
  facet normal -0.866011 0 -0.500024
    outer loop
      vertex -80.1174 -66 34.7286
      vertex -80.5617 -63.5 35.4981
      vertex -80.1174 -63.5 34.7286
    endloop
  endfacet
  facet normal -0.866011 -0 -0.500024
    outer loop
      vertex -80.5617 -63.5 35.4981
      vertex -80.1174 -66 34.7286
      vertex -80.5617 -66 35.4981
    endloop
  endfacet
  facet normal -0.207876 0 -0.978155
    outer loop
      vertex -83.5558 -66 37.2267
      vertex -82.6867 -63.5 37.042
      vertex -82.6867 -66 37.042
    endloop
  endfacet
  facet normal -0.207876 0 -0.978155
    outer loop
      vertex -82.6867 -63.5 37.042
      vertex -83.5558 -66 37.2267
      vertex -83.5558 -63.5 37.2267
    endloop
  endfacet
  facet normal -0.994518 0 0.104562
    outer loop
      vertex -79.8429 -66 32.1164
      vertex -79.75 -63.5 33
      vertex -79.8429 -63.5 32.1164
    endloop
  endfacet
  facet normal -0.994518 0 0.104562
    outer loop
      vertex -79.75 -63.5 33
      vertex -79.8429 -66 32.1164
      vertex -79.75 -66 33
    endloop
  endfacet
  facet normal -0.866011 0 0.500024
    outer loop
      vertex -80.5617 -66 30.5019
      vertex -80.1174 -63.5 31.2714
      vertex -80.5617 -63.5 30.5019
    endloop
  endfacet
  facet normal -0.866011 0 0.500024
    outer loop
      vertex -80.1174 -63.5 31.2714
      vertex -80.5617 -66 30.5019
      vertex -80.1174 -66 31.2714
    endloop
  endfacet
  facet normal 0.951075 -0 0.308959
    outer loop
      vertex -88.1571 -66 32.1164
      vertex -87.8826 -63.5 31.2714
      vertex -88.1571 -63.5 32.1164
    endloop
  endfacet
  facet normal 0.951075 0 0.308959
    outer loop
      vertex -87.8826 -63.5 31.2714
      vertex -88.1571 -66 32.1164
      vertex -87.8826 -66 31.2714
    endloop
  endfacet
  facet normal 0.951075 0 -0.308959
    outer loop
      vertex -87.8826 -66 34.7286
      vertex -88.1571 -63.5 33.8836
      vertex -87.8826 -63.5 34.7286
    endloop
  endfacet
  facet normal 0.951075 0 -0.308959
    outer loop
      vertex -88.1571 -63.5 33.8836
      vertex -87.8826 -66 34.7286
      vertex -88.1571 -66 33.8836
    endloop
  endfacet
  facet normal -0.406729 0 0.913549
    outer loop
      vertex -82.5924 -63.5 29
      vertex -81.875 -66 29.3194
      vertex -81.875 -63.5 29.3194
    endloop
  endfacet
  facet normal -0.406729 0 0.913549
    outer loop
      vertex -81.875 -66 29.3194
      vertex -82.5924 -63.5 29
      vertex -82.5924 -66 29
    endloop
  endfacet
  facet normal -0.587757 0 0.809038
    outer loop
      vertex -81.875 -63.5 29.3194
      vertex -81.1562 -66 29.8416
      vertex -81.1562 -63.5 29.8416
    endloop
  endfacet
  facet normal -0.587757 0 0.809038
    outer loop
      vertex -81.1562 -66 29.8416
      vertex -81.875 -63.5 29.3194
      vertex -81.875 -66 29.3194
    endloop
  endfacet
  facet normal 0.406729 0 0.913549
    outer loop
      vertex -86.125 -63.5 29.3194
      vertex -85.4076 -66 29
      vertex -85.4076 -63.5 29
    endloop
  endfacet
  facet normal 0.406729 0 0.913549
    outer loop
      vertex -85.4076 -66 29
      vertex -86.125 -63.5 29.3194
      vertex -86.125 -66 29.3194
    endloop
  endfacet
  facet normal 0.743165 0 -0.669108
    outer loop
      vertex -86.8438 -66 36.1584
      vertex -87.4383 -63.5 35.4981
      vertex -86.8438 -63.5 36.1584
    endloop
  endfacet
  facet normal 0.743165 0 -0.669108
    outer loop
      vertex -87.4383 -63.5 35.4981
      vertex -86.8438 -66 36.1584
      vertex -87.4383 -66 35.4981
    endloop
  endfacet
  facet normal 0.207876 0 -0.978155
    outer loop
      vertex -85.3133 -66 37.042
      vertex -84.4442 -63.5 37.2267
      vertex -84.4442 -66 37.2267
    endloop
  endfacet
  facet normal 0.207876 0 -0.978155
    outer loop
      vertex -84.4442 -63.5 37.2267
      vertex -85.3133 -66 37.042
      vertex -85.3133 -63.5 37.042
    endloop
  endfacet
  facet normal 0.406744 0 -0.913542
    outer loop
      vertex -86.125 -66 36.6806
      vertex -85.3133 -63.5 37.042
      vertex -85.3133 -66 37.042
    endloop
  endfacet
  facet normal 0.406744 0 -0.913542
    outer loop
      vertex -85.3133 -63.5 37.042
      vertex -86.125 -66 36.6806
      vertex -86.125 -63.5 36.6806
    endloop
  endfacet
  facet normal -0.951075 0 -0.308959
    outer loop
      vertex -79.8429 -66 33.8836
      vertex -80.1174 -63.5 34.7286
      vertex -79.8429 -63.5 33.8836
    endloop
  endfacet
  facet normal -0.951075 -0 -0.308959
    outer loop
      vertex -80.1174 -63.5 34.7286
      vertex -79.8429 -66 33.8836
      vertex -80.1174 -66 34.7286
    endloop
  endfacet
  facet normal -0.587757 0 -0.809038
    outer loop
      vertex -81.875 -66 36.6806
      vertex -81.1562 -63.5 36.1584
      vertex -81.1562 -66 36.1584
    endloop
  endfacet
  facet normal -0.587757 0 -0.809038
    outer loop
      vertex -81.1562 -63.5 36.1584
      vertex -81.875 -66 36.6806
      vertex -81.875 -63.5 36.6806
    endloop
  endfacet
  facet normal 0.994518 0 -0.104562
    outer loop
      vertex -88.1571 -66 33.8836
      vertex -88.25 -63.5 33
      vertex -88.1571 -63.5 33.8836
    endloop
  endfacet
  facet normal 0.994518 0 -0.104562
    outer loop
      vertex -88.25 -63.5 33
      vertex -88.1571 -66 33.8836
      vertex -88.25 -66 33
    endloop
  endfacet
  facet normal 0.994518 -0 0.104562
    outer loop
      vertex -88.25 -66 33
      vertex -88.1571 -63.5 32.1164
      vertex -88.25 -63.5 33
    endloop
  endfacet
  facet normal 0.994518 0 0.104562
    outer loop
      vertex -88.1571 -63.5 32.1164
      vertex -88.25 -66 33
      vertex -88.1571 -66 32.1164
    endloop
  endfacet
  facet normal 0.743165 -0 0.669108
    outer loop
      vertex -87.4383 -66 30.5019
      vertex -86.8438 -63.5 29.8416
      vertex -87.4383 -63.5 30.5019
    endloop
  endfacet
  facet normal 0.743165 0 0.669108
    outer loop
      vertex -86.8438 -63.5 29.8416
      vertex -87.4383 -66 30.5019
      vertex -86.8438 -66 29.8416
    endloop
  endfacet
  facet normal 0.587757 0 0.809038
    outer loop
      vertex -86.8438 -63.5 29.8416
      vertex -86.125 -66 29.3194
      vertex -86.125 -63.5 29.3194
    endloop
  endfacet
  facet normal 0.587757 0 0.809038
    outer loop
      vertex -86.125 -66 29.3194
      vertex -86.8438 -63.5 29.8416
      vertex -86.8438 -66 29.8416
    endloop
  endfacet
  facet normal 0.866011 0 -0.500024
    outer loop
      vertex -87.4383 -66 35.4981
      vertex -87.8826 -63.5 34.7286
      vertex -87.4383 -63.5 35.4981
    endloop
  endfacet
  facet normal 0.866011 0 -0.500024
    outer loop
      vertex -87.8826 -63.5 34.7286
      vertex -87.4383 -66 35.4981
      vertex -87.8826 -66 34.7286
    endloop
  endfacet
  facet normal 0.866011 -0 0.500024
    outer loop
      vertex -87.8826 -66 31.2714
      vertex -87.4383 -63.5 30.5019
      vertex -87.8826 -63.5 31.2714
    endloop
  endfacet
  facet normal 0.866011 0 0.500024
    outer loop
      vertex -87.4383 -63.5 30.5019
      vertex -87.8826 -66 31.2714
      vertex -87.4383 -66 30.5019
    endloop
  endfacet
  facet normal 0 0 -1
    outer loop
      vertex -84.4442 -66 37.2267
      vertex -83.5558 -63.5 37.2267
      vertex -83.5558 -66 37.2267
    endloop
  endfacet
  facet normal -0 0 -1
    outer loop
      vertex -83.5558 -63.5 37.2267
      vertex -84.4442 -66 37.2267
      vertex -84.4442 -63.5 37.2267
    endloop
  endfacet
endsolid OpenSCAD_Model
