solid PARTassembly
   facet normal -1.0000 0.0000 0.0000
      outer loop
         vertex 0.0000 30.0000 0.0000
         vertex 0.0000 0.0000 0.0000
         vertex 0.0000 3.4921 20.0000
      endloop
   endfacet
   facet normal -1.0000 0.0000 0.0000
      outer loop
         vertex 0.0000 30.0000 0.0000
         vertex 0.0000 3.4921 20.0000
         vertex 0.0000 3.5257 19.9994
      endloop
   endfacet
   facet normal -1.0000 0.0000 0.0000
      outer loop
         vertex 0.0000 30.0000 0.0000
         vertex 0.0000 3.5257 19.9994
         vertex 0.0000 3.5593 19.9977
      endloop
   endfacet
   facet normal -1.0000 0.0000 0.0000
      outer loop
         vertex 0.0000 30.0000 0.0000
         vertex 0.0000 3.5593 19.9977
         vertex 0.0000 9.6922 18.9796
      endloop
   endfacet
   facet normal -1.0000 0.0000 0.0000
      outer loop
         vertex 0.0000 30.0000 0.0000
         vertex 0.0000 9.6922 18.9796
         vertex 0.0000 17.4100 15.7828
      endloop
   endfacet
   facet normal -1.0000 0.0000 0.0000
      outer loop
         vertex 0.0000 30.0000 0.0000
         vertex 0.0000 17.4100 15.7828
         vertex 0.0000 24.0374 10.6974
      endloop
   endfacet
   facet normal -1.0000 0.0000 0.0000
      outer loop
         vertex 0.0000 30.0000 0.0000
         vertex 0.0000 24.0374 10.6974
         vertex 0.0000 29.1228 4.0700
      endloop
   endfacet
   facet normal -1.0000 0.0000 0.0000
      outer loop
         vertex 0.0000 30.0000 0.0000
         vertex 0.0000 29.1228 4.0700
         vertex 0.0000 29.8900 2.6607
      endloop
   endfacet
   facet normal -1.0000 0.0000 0.0000
      outer loop
         vertex 0.0000 30.0000 0.0000
         vertex 0.0000 29.8900 2.6607
         vertex 0.0000 29.9721 2.4393
      endloop
   endfacet
   facet normal -1.0000 0.0000 0.0000
      outer loop
         vertex 0.0000 30.0000 0.0000
         vertex 0.0000 29.9721 2.4393
         vertex 0.0000 30.0000 2.2048
      endloop
   endfacet
   facet normal -1.0000 0.0000 0.0000
      outer loop
         vertex 0.0000 3.4921 20.0000
         vertex 0.0000 0.0000 0.0000
         vertex 0.0000 0.0000 20.0000
      endloop
   endfacet
   facet normal 1.0000 0.0000 0.0000
      outer loop
         vertex 20.0000 30.0000 0.0000
         vertex 20.0000 30.0000 2.2048
         vertex 20.0000 29.9721 2.4393
      endloop
   endfacet
   facet normal 1.0000 0.0000 0.0000
      outer loop
         vertex 20.0000 30.0000 0.0000
         vertex 20.0000 29.9721 2.4393
         vertex 20.0000 29.8900 2.6607
      endloop
   endfacet
   facet normal 1.0000 0.0000 0.0000
      outer loop
         vertex 20.0000 30.0000 0.0000
         vertex 20.0000 29.8900 2.6607
         vertex 20.0000 29.1228 4.0700
      endloop
   endfacet
   facet normal 1.0000 0.0000 0.0000
      outer loop
         vertex 20.0000 30.0000 0.0000
         vertex 20.0000 29.1228 4.0700
         vertex 20.0000 24.0374 10.6974
      endloop
   endfacet
   facet normal 1.0000 0.0000 0.0000
      outer loop
         vertex 20.0000 30.0000 0.0000
         vertex 20.0000 24.0374 10.6974
         vertex 20.0000 17.4100 15.7828
      endloop
   endfacet
   facet normal 1.0000 0.0000 0.0000
      outer loop
         vertex 20.0000 30.0000 0.0000
         vertex 20.0000 17.4100 15.7828
         vertex 20.0000 9.6922 18.9796
      endloop
   endfacet
   facet normal 1.0000 0.0000 0.0000
      outer loop
         vertex 20.0000 30.0000 0.0000
         vertex 20.0000 9.6922 18.9796
         vertex 20.0000 3.5593 19.9977
      endloop
   endfacet
   facet normal 1.0000 0.0000 0.0000
      outer loop
         vertex 20.0000 30.0000 0.0000
         vertex 20.0000 3.5593 19.9977
         vertex 20.0000 3.5257 19.9994
      endloop
   endfacet
   facet normal 1.0000 0.0000 0.0000
      outer loop
         vertex 20.0000 30.0000 0.0000
         vertex 20.0000 3.5257 19.9994
         vertex 20.0000 3.4921 20.0000
      endloop
   endfacet
   facet normal 1.0000 0.0000 0.0000
      outer loop
         vertex 20.0000 30.0000 0.0000
         vertex 20.0000 3.4921 20.0000
         vertex 20.0000 0.0000 20.0000
      endloop
   endfacet
   facet normal 1.0000 0.0000 0.0000
      outer loop
         vertex 20.0000 30.0000 0.0000
         vertex 20.0000 0.0000 20.0000
         vertex 20.0000 0.0000 0.0000
      endloop
   endfacet
   facet normal 0.0000 0.6430 0.7659
      outer loop
         vertex 20.0000 17.4100 15.7828
         vertex 20.0000 24.0374 10.6974
         vertex 17.5000 24.0374 10.6974
      endloop
   endfacet
   facet normal 0.0000 0.5734 0.8193
      outer loop
         vertex 20.0000 17.4100 15.7828
         vertex 17.5000 24.0374 10.6974
         vertex 17.5000 17.4100 15.7828
      endloop
   endfacet
   facet normal 0.0000 0.6430 0.7659
      outer loop
         vertex 2.5000 17.4100 15.7828
         vertex 2.5000 24.0374 10.6974
         vertex 0.0000 24.0374 10.6974
      endloop
   endfacet
   facet normal 0.0000 0.5734 0.8193
      outer loop
         vertex 2.5000 17.4100 15.7828
         vertex 0.0000 24.0374 10.6974
         vertex 0.0000 17.4100 15.7828
      endloop
   endfacet
   facet normal 0.0000 0.3522 0.9359
      outer loop
         vertex 17.5000 17.4100 15.7828
         vertex 17.5000 9.6922 18.9796
         vertex 20.0000 9.6922 18.9796
      endloop
   endfacet
   facet normal 0.0000 0.4278 0.9039
      outer loop
         vertex 17.5000 17.4100 15.7828
         vertex 20.0000 9.6922 18.9796
         vertex 20.0000 17.4100 15.7828
      endloop
   endfacet
   facet normal 0.0000 0.3522 0.9359
      outer loop
         vertex 0.0000 17.4100 15.7828
         vertex 0.0000 9.6922 18.9796
         vertex 2.5000 9.6922 18.9796
      endloop
   endfacet
   facet normal 0.0000 0.4278 0.9039
      outer loop
         vertex 0.0000 17.4100 15.7828
         vertex 2.5000 9.6922 18.9796
         vertex 2.5000 17.4100 15.7828
      endloop
   endfacet
   facet normal 0.0000 0.7547 0.6561
      outer loop
         vertex 17.5000 24.0374 10.6974
         vertex 20.0000 24.0374 10.6974
         vertex 20.0000 29.1228 4.0700
      endloop
   endfacet
   facet normal 0.0000 0.7986 0.6018
      outer loop
         vertex 17.5000 24.0374 10.6974
         vertex 20.0000 29.1228 4.0700
         vertex 17.5000 29.1228 4.0700
      endloop
   endfacet
   facet normal 0.0000 0.7986 0.6018
      outer loop
         vertex 2.5000 29.1228 4.0700
         vertex 0.0000 29.1228 4.0700
         vertex 0.0000 24.0374 10.6974
      endloop
   endfacet
   facet normal 0.0000 0.7547 0.6561
      outer loop
         vertex 2.5000 29.1228 4.0700
         vertex 0.0000 24.0374 10.6974
         vertex 2.5000 24.0374 10.6974
      endloop
   endfacet
   facet normal 0.0000 0.2381 0.9712
      outer loop
         vertex 2.5000 4.5000 19.8416
         vertex 2.5000 9.6922 18.9796
         vertex 0.0000 9.6922 18.9796
      endloop
   endfacet
   facet normal 0.0000 0.2010 0.9796
      outer loop
         vertex 2.5000 4.5000 19.8416
         vertex 0.0000 9.6922 18.9796
         vertex 0.0000 3.5593 19.9977
      endloop
   endfacet
   facet normal 0.0000 0.1638 0.9865
      outer loop
         vertex 2.5000 4.5000 19.8416
         vertex 0.0000 3.5593 19.9977
         vertex 20.0000 3.5593 19.9977
      endloop
   endfacet
   facet normal 0.0000 0.1638 0.9865
      outer loop
         vertex 2.5000 4.5000 19.8416
         vertex 20.0000 3.5593 19.9977
         vertex 17.5000 4.5000 19.8416
      endloop
   endfacet
   facet normal 0.0000 0.2010 0.9796
      outer loop
         vertex 17.5000 9.6922 18.9796
         vertex 17.5000 4.5000 19.8416
         vertex 20.0000 3.5593 19.9977
      endloop
   endfacet
   facet normal 0.0000 0.2381 0.9712
      outer loop
         vertex 17.5000 9.6922 18.9796
         vertex 20.0000 3.5593 19.9977
         vertex 20.0000 9.6922 18.9796
      endloop
   endfacet
   facet normal 0.0000 0.8523 0.5231
      outer loop
         vertex 17.5000 29.1228 4.0700
         vertex 20.0000 29.1228 4.0700
         vertex 17.5000 29.6050 3.1843
      endloop
   endfacet
   facet normal 0.0000 0.8656 0.5007
      outer loop
         vertex 17.5000 29.6050 3.1843
         vertex 20.0000 29.1228 4.0700
         vertex 20.0000 29.8900 2.6607
      endloop
   endfacet
   facet normal 0.0000 0.8783 0.4781
      outer loop
         vertex 17.5000 29.6050 3.1843
         vertex 20.0000 29.8900 2.6607
         vertex 2.5000 29.6050 3.1843
      endloop
   endfacet
   facet normal 0.0000 0.8783 0.4781
      outer loop
         vertex 2.5000 29.6050 3.1843
         vertex 20.0000 29.8900 2.6607
         vertex 0.0000 29.8900 2.6607
      endloop
   endfacet
   facet normal 0.0000 0.8656 0.5007
      outer loop
         vertex 2.5000 29.6050 3.1843
         vertex 0.0000 29.8900 2.6607
         vertex 0.0000 29.1228 4.0700
      endloop
   endfacet
   facet normal 0.0000 0.8523 0.5231
      outer loop
         vertex 2.5000 29.6050 3.1843
         vertex 0.0000 29.1228 4.0700
         vertex 2.5000 29.1228 4.0700
      endloop
   endfacet
   facet normal 0.0000 0.9505 0.3106
      outer loop
         vertex 0.0000 29.8900 2.6607
         vertex 20.0000 29.8900 2.6607
         vertex 20.0000 29.9721 2.4393
      endloop
   endfacet
   facet normal 0.0000 0.9621 0.2728
      outer loop
         vertex 0.0000 29.8900 2.6607
         vertex 20.0000 29.9721 2.4393
         vertex 0.0000 29.9721 2.4393
      endloop
   endfacet
   facet normal 0.0000 -1.0000 0.0000
      outer loop
         vertex 7.3026 0.0000 9.1650
         vertex 7.2608 0.0000 9.2660
         vertex 7.1276 0.0000 9.1650
      endloop
   endfacet
   facet normal 0.0000 -1.0000 0.0000
      outer loop
         vertex 7.1276 0.0000 9.1650
         vertex 7.2608 0.0000 9.2660
         vertex 7.1642 0.0000 10.0000
      endloop
   endfacet
   facet normal 0.0000 -1.0000 0.0000
      outer loop
         vertex 7.1276 0.0000 9.1650
         vertex 7.1642 0.0000 10.0000
         vertex 7.1276 0.0000 10.8350
      endloop
   endfacet
   facet normal 0.0000 -1.0000 0.0000
      outer loop
         vertex 7.1276 0.0000 10.8350
         vertex 7.1642 0.0000 10.0000
         vertex 7.2608 0.0000 10.7340
      endloop
   endfacet
   facet normal 0.0000 -1.0000 0.0000
      outer loop
         vertex 7.1276 0.0000 10.8350
         vertex 7.2608 0.0000 10.7340
         vertex 7.3026 0.0000 10.8350
      endloop
   endfacet
   facet normal 0.0000 -1.0000 0.0000
      outer loop
         vertex 10.8350 0.0000 7.3026
         vertex 10.7340 0.0000 7.2608
         vertex 10.8350 0.0000 7.1276
      endloop
   endfacet
   facet normal 0.0000 -1.0000 0.0000
      outer loop
         vertex 10.8350 0.0000 7.1276
         vertex 10.7340 0.0000 7.2608
         vertex 10.0000 0.0000 7.1642
      endloop
   endfacet
   facet normal 0.0000 -1.0000 0.0000
      outer loop
         vertex 10.8350 0.0000 7.1276
         vertex 10.0000 0.0000 7.1642
         vertex 9.1650 0.0000 7.1276
      endloop
   endfacet
   facet normal 0.0000 -1.0000 0.0000
      outer loop
         vertex 9.1650 0.0000 7.1276
         vertex 10.0000 0.0000 7.1642
         vertex 9.2660 0.0000 7.2608
      endloop
   endfacet
   facet normal 0.0000 -1.0000 0.0000
      outer loop
         vertex 9.1650 0.0000 7.1276
         vertex 9.2660 0.0000 7.2608
         vertex 9.1650 0.0000 7.3026
      endloop
   endfacet
   facet normal 0.0000 -1.0000 0.0000
      outer loop
         vertex 12.6974 0.0000 10.8350
         vertex 12.7392 0.0000 10.7340
         vertex 12.8724 0.0000 10.8350
      endloop
   endfacet
   facet normal 0.0000 -1.0000 0.0000
      outer loop
         vertex 12.8724 0.0000 10.8350
         vertex 12.7392 0.0000 10.7340
         vertex 12.8358 0.0000 10.0000
      endloop
   endfacet
   facet normal 0.0000 -1.0000 0.0000
      outer loop
         vertex 12.8724 0.0000 10.8350
         vertex 12.8358 0.0000 10.0000
         vertex 12.8724 0.0000 9.1650
      endloop
   endfacet
   facet normal 0.0000 -1.0000 0.0000
      outer loop
         vertex 12.8724 0.0000 9.1650
         vertex 12.8358 0.0000 10.0000
         vertex 12.7392 0.0000 9.2660
      endloop
   endfacet
   facet normal 0.0000 -1.0000 0.0000
      outer loop
         vertex 12.8724 0.0000 9.1650
         vertex 12.7392 0.0000 9.2660
         vertex 12.6974 0.0000 9.1650
      endloop
   endfacet
   facet normal 0.0000 -1.0000 0.0000
      outer loop
         vertex 9.1650 0.0000 12.6974
         vertex 9.2660 0.0000 12.7392
         vertex 9.1650 0.0000 12.8724
      endloop
   endfacet
   facet normal 0.0000 -1.0000 0.0000
      outer loop
         vertex 9.1650 0.0000 12.8724
         vertex 9.2660 0.0000 12.7392
         vertex 10.0000 0.0000 12.8358
      endloop
   endfacet
   facet normal 0.0000 -1.0000 0.0000
      outer loop
         vertex 9.1650 0.0000 12.8724
         vertex 10.0000 0.0000 12.8358
         vertex 10.8350 0.0000 12.8724
      endloop
   endfacet
   facet normal 0.0000 -1.0000 0.0000
      outer loop
         vertex 10.8350 0.0000 12.8724
         vertex 10.0000 0.0000 12.8358
         vertex 10.7340 0.0000 12.7392
      endloop
   endfacet
   facet normal 0.0000 -1.0000 0.0000
      outer loop
         vertex 10.8350 0.0000 12.8724
         vertex 10.7340 0.0000 12.7392
         vertex 10.8350 0.0000 12.6974
      endloop
   endfacet
   facet normal 0.0000 -1.0000 0.0000
      outer loop
         vertex 20.0000 0.0000 20.0000
         vertex 0.0000 0.0000 20.0000
         vertex 7.1276 0.0000 12.8724
      endloop
   endfacet
   facet normal 0.0000 -1.0000 0.0000
      outer loop
         vertex 20.0000 0.0000 20.0000
         vertex 7.1276 0.0000 12.8724
         vertex 9.1650 0.0000 12.8724
      endloop
   endfacet
   facet normal 0.0000 -1.0000 0.0000
      outer loop
         vertex 20.0000 0.0000 20.0000
         vertex 9.1650 0.0000 12.8724
         vertex 10.8350 0.0000 12.8724
      endloop
   endfacet
   facet normal 0.0000 -1.0000 0.0000
      outer loop
         vertex 20.0000 0.0000 20.0000
         vertex 10.8350 0.0000 12.8724
         vertex 12.8724 0.0000 12.8724
      endloop
   endfacet
   facet normal 0.0000 -1.0000 0.0000
      outer loop
         vertex 20.0000 0.0000 20.0000
         vertex 12.8724 0.0000 12.8724
         vertex 12.8724 0.0000 10.8350
      endloop
   endfacet
   facet normal 0.0000 -1.0000 0.0000
      outer loop
         vertex 20.0000 0.0000 20.0000
         vertex 12.8724 0.0000 10.8350
         vertex 12.8724 0.0000 9.1650
      endloop
   endfacet
   facet normal 0.0000 -1.0000 0.0000
      outer loop
         vertex 20.0000 0.0000 20.0000
         vertex 12.8724 0.0000 9.1650
         vertex 12.8724 0.0000 7.1276
      endloop
   endfacet
   facet normal 0.0000 -1.0000 0.0000
      outer loop
         vertex 20.0000 0.0000 20.0000
         vertex 12.8724 0.0000 7.1276
         vertex 20.0000 0.0000 0.0000
      endloop
   endfacet
   facet normal 0.0000 -1.0000 0.0000
      outer loop
         vertex 0.0000 0.0000 20.0000
         vertex 0.0000 0.0000 0.0000
         vertex 7.1276 0.0000 7.1276
      endloop
   endfacet
   facet normal 0.0000 -1.0000 0.0000
      outer loop
         vertex 0.0000 0.0000 20.0000
         vertex 7.1276 0.0000 7.1276
         vertex 7.1276 0.0000 9.1650
      endloop
   endfacet
   facet normal 0.0000 -1.0000 0.0000
      outer loop
         vertex 0.0000 0.0000 20.0000
         vertex 7.1276 0.0000 9.1650
         vertex 7.1276 0.0000 10.8350
      endloop
   endfacet
   facet normal 0.0000 -1.0000 0.0000
      outer loop
         vertex 0.0000 0.0000 20.0000
         vertex 7.1276 0.0000 10.8350
         vertex 7.1276 0.0000 12.8724
      endloop
   endfacet
   facet normal 0.0000 -1.0000 0.0000
      outer loop
         vertex 0.0000 0.0000 0.0000
         vertex 20.0000 0.0000 0.0000
         vertex 12.8724 0.0000 7.1276
      endloop
   endfacet
   facet normal 0.0000 -1.0000 0.0000
      outer loop
         vertex 0.0000 0.0000 0.0000
         vertex 12.8724 0.0000 7.1276
         vertex 10.8350 0.0000 7.1276
      endloop
   endfacet
   facet normal 0.0000 -1.0000 0.0000
      outer loop
         vertex 0.0000 0.0000 0.0000
         vertex 10.8350 0.0000 7.1276
         vertex 9.1650 0.0000 7.1276
      endloop
   endfacet
   facet normal 0.0000 -1.0000 0.0000
      outer loop
         vertex 0.0000 0.0000 0.0000
         vertex 9.1650 0.0000 7.1276
         vertex 7.1276 0.0000 7.1276
      endloop
   endfacet
   facet normal 0.0000 0.9876 0.1570
      outer loop
         vertex 20.0000 30.0000 2.2048
         vertex 0.0000 30.0000 2.2048
         vertex 0.0000 29.9721 2.4393
      endloop
   endfacet
   facet normal 0.0000 0.9806 0.1958
      outer loop
         vertex 20.0000 30.0000 2.2048
         vertex 0.0000 29.9721 2.4393
         vertex 20.0000 29.9721 2.4393
      endloop
   endfacet
   facet normal 0.0000 1.0000 0.0000
      outer loop
         vertex 20.0000 30.0000 0.0000
         vertex 0.0000 30.0000 0.0000
         vertex 0.0000 30.0000 2.2048
      endloop
   endfacet
   facet normal 0.0000 1.0000 0.0000
      outer loop
         vertex 20.0000 30.0000 0.0000
         vertex 0.0000 30.0000 2.2048
         vertex 20.0000 30.0000 2.2048
      endloop
   endfacet
   facet normal 0.0000 0.0448 0.9990
      outer loop
         vertex 20.0000 3.5593 19.9977
         vertex 0.0000 3.5593 19.9977
         vertex 0.0000 3.5257 19.9994
      endloop
   endfacet
   facet normal 0.0000 0.0392 0.9992
      outer loop
         vertex 20.0000 3.5593 19.9977
         vertex 0.0000 3.5257 19.9994
         vertex 20.0000 3.5257 19.9994
      endloop
   endfacet
   facet normal 0.0000 0.0000 -1.0000
      outer loop
         vertex 13.0000 12.7113 -0.0000
         vertex 7.0000 12.7113 -0.0000
         vertex 8.5821 15.5441 -0.0000
      endloop
   endfacet
   facet normal 0.0000 0.0000 -1.0000
      outer loop
         vertex 13.0000 12.7113 -0.0000
         vertex 8.5821 15.5441 -0.0000
         vertex 9.2660 15.2608 -0.0000
      endloop
   endfacet
   facet normal 0.0000 0.0000 -1.0000
      outer loop
         vertex 13.0000 12.7113 -0.0000
         vertex 9.2660 15.2608 -0.0000
         vertex 10.0000 15.1642 -0.0000
      endloop
   endfacet
   facet normal 0.0000 0.0000 -1.0000
      outer loop
         vertex 13.0000 12.7113 -0.0000
         vertex 10.0000 15.1642 -0.0000
         vertex 10.7340 15.2608 -0.0000
      endloop
   endfacet
   facet normal 0.0000 0.0000 -1.0000
      outer loop
         vertex 13.0000 12.7113 -0.0000
         vertex 10.7340 15.2608 -0.0000
         vertex 11.4179 15.5441 -0.0000
      endloop
   endfacet
   facet normal 0.0000 0.0000 -1.0000
      outer loop
         vertex 13.0000 12.7113 -0.0000
         vertex 11.4179 15.5441 -0.0000
         vertex 12.0052 15.9948 -0.0000
      endloop
   endfacet
   facet normal 0.0000 0.0000 -1.0000
      outer loop
         vertex 13.0000 12.7113 -0.0000
         vertex 12.0052 15.9948 -0.0000
         vertex 12.4559 16.5821 -0.0000
      endloop
   endfacet
   facet normal 0.0000 0.0000 -1.0000
      outer loop
         vertex 13.0000 12.7113 -0.0000
         vertex 12.4559 16.5821 -0.0000
         vertex 12.7392 17.2660 -0.0000
      endloop
   endfacet
   facet normal 0.0000 0.0000 -1.0000
      outer loop
         vertex 13.0000 12.7113 -0.0000
         vertex 12.7392 17.2660 -0.0000
         vertex 12.8358 18.0000 -0.0000
      endloop
   endfacet
   facet normal 0.0000 0.0000 -1.0000
      outer loop
         vertex 13.0000 12.7113 -0.0000
         vertex 12.8358 18.0000 -0.0000
         vertex 13.0000 23.7887 -0.0000
      endloop
   endfacet
   facet normal 0.0000 0.0000 -1.0000
      outer loop
         vertex 13.0000 12.7113 -0.0000
         vertex 13.0000 23.7887 -0.0000
         vertex 20.0000 30.0000 0.0000
      endloop
   endfacet
   facet normal 0.0000 0.0000 -1.0000
      outer loop
         vertex 13.0000 12.7113 -0.0000
         vertex 20.0000 30.0000 0.0000
         vertex 13.0000 4.2887 -0.0000
      endloop
   endfacet
   facet normal 0.0000 0.0000 -1.0000
      outer loop
         vertex 7.0000 12.7113 -0.0000
         vertex 7.0000 4.2887 -0.0000
         vertex 0.0000 0.0000 0.0000
      endloop
   endfacet
   facet normal 0.0000 0.0000 -1.0000
      outer loop
         vertex 7.0000 12.7113 -0.0000
         vertex 0.0000 0.0000 0.0000
         vertex 7.0000 23.7887 -0.0000
      endloop
   endfacet
   facet normal 0.0000 0.0000 -1.0000
      outer loop
         vertex 7.0000 12.7113 -0.0000
         vertex 7.0000 23.7887 -0.0000
         vertex 7.1642 18.0000 -0.0000
      endloop
   endfacet
   facet normal 0.0000 0.0000 -1.0000
      outer loop
         vertex 7.0000 12.7113 -0.0000
         vertex 7.1642 18.0000 -0.0000
         vertex 7.2608 17.2660 -0.0000
      endloop
   endfacet
   facet normal 0.0000 0.0000 -1.0000
      outer loop
         vertex 7.0000 12.7113 -0.0000
         vertex 7.2608 17.2660 -0.0000
         vertex 7.5441 16.5821 -0.0000
      endloop
   endfacet
   facet normal 0.0000 0.0000 -1.0000
      outer loop
         vertex 7.0000 12.7113 -0.0000
         vertex 7.5441 16.5821 -0.0000
         vertex 7.9948 15.9948 -0.0000
      endloop
   endfacet
   facet normal 0.0000 0.0000 -1.0000
      outer loop
         vertex 7.0000 12.7113 -0.0000
         vertex 7.9948 15.9948 -0.0000
         vertex 8.5821 15.5441 -0.0000
      endloop
   endfacet
   facet normal 0.0000 0.0000 -1.0000
      outer loop
         vertex 20.0000 0.0000 0.0000
         vertex 0.0000 0.0000 0.0000
         vertex 7.0000 4.2887 -0.0000
      endloop
   endfacet
   facet normal 0.0000 0.0000 -1.0000
      outer loop
         vertex 20.0000 0.0000 0.0000
         vertex 7.0000 4.2887 -0.0000
         vertex 13.0000 4.2887 -0.0000
      endloop
   endfacet
   facet normal 0.0000 0.0000 -1.0000
      outer loop
         vertex 20.0000 0.0000 0.0000
         vertex 13.0000 4.2887 -0.0000
         vertex 20.0000 30.0000 0.0000
      endloop
   endfacet
   facet normal 0.0000 0.0000 -1.0000
      outer loop
         vertex 7.0000 26.2113 -0.0000
         vertex 7.0000 23.7887 -0.0000
         vertex 0.0000 0.0000 0.0000
      endloop
   endfacet
   facet normal 0.0000 0.0000 -1.0000
      outer loop
         vertex 7.0000 26.2113 -0.0000
         vertex 0.0000 0.0000 0.0000
         vertex 0.0000 30.0000 0.0000
      endloop
   endfacet
   facet normal 0.0000 0.0000 -1.0000
      outer loop
         vertex 7.0000 26.2113 -0.0000
         vertex 0.0000 30.0000 0.0000
         vertex 20.0000 30.0000 0.0000
      endloop
   endfacet
   facet normal 0.0000 0.0000 -1.0000
      outer loop
         vertex 7.0000 26.2113 -0.0000
         vertex 20.0000 30.0000 0.0000
         vertex 13.0000 26.2113 -0.0000
      endloop
   endfacet
   facet normal 0.0000 0.0000 -1.0000
      outer loop
         vertex 13.0000 23.7887 -0.0000
         vertex 12.8358 18.0000 -0.0000
         vertex 12.7392 18.7340 -0.0000
      endloop
   endfacet
   facet normal 0.0000 0.0000 -1.0000
      outer loop
         vertex 13.0000 23.7887 -0.0000
         vertex 12.7392 18.7340 -0.0000
         vertex 12.4559 19.4179 -0.0000
      endloop
   endfacet
   facet normal 0.0000 0.0000 -1.0000
      outer loop
         vertex 13.0000 23.7887 -0.0000
         vertex 12.4559 19.4179 -0.0000
         vertex 12.0052 20.0052 -0.0000
      endloop
   endfacet
   facet normal 0.0000 0.0000 -1.0000
      outer loop
         vertex 13.0000 23.7887 -0.0000
         vertex 12.0052 20.0052 -0.0000
         vertex 11.4179 20.4559 -0.0000
      endloop
   endfacet
   facet normal 0.0000 0.0000 -1.0000
      outer loop
         vertex 13.0000 23.7887 -0.0000
         vertex 11.4179 20.4559 -0.0000
         vertex 10.7340 20.7392 -0.0000
      endloop
   endfacet
   facet normal 0.0000 0.0000 -1.0000
      outer loop
         vertex 13.0000 23.7887 -0.0000
         vertex 10.7340 20.7392 -0.0000
         vertex 10.0000 20.8358 -0.0000
      endloop
   endfacet
   facet normal 0.0000 0.0000 -1.0000
      outer loop
         vertex 13.0000 23.7887 -0.0000
         vertex 10.0000 20.8358 -0.0000
         vertex 9.2660 20.7392 -0.0000
      endloop
   endfacet
   facet normal 0.0000 0.0000 -1.0000
      outer loop
         vertex 13.0000 23.7887 -0.0000
         vertex 9.2660 20.7392 -0.0000
         vertex 8.5821 20.4559 -0.0000
      endloop
   endfacet
   facet normal 0.0000 0.0000 -1.0000
      outer loop
         vertex 13.0000 23.7887 -0.0000
         vertex 8.5821 20.4559 -0.0000
         vertex 7.0000 23.7887 -0.0000
      endloop
   endfacet
   facet normal 0.0000 0.0000 -1.0000
      outer loop
         vertex 7.0000 23.7887 -0.0000
         vertex 8.5821 20.4559 -0.0000
         vertex 7.9948 20.0052 -0.0000
      endloop
   endfacet
   facet normal 0.0000 0.0000 -1.0000
      outer loop
         vertex 7.0000 23.7887 -0.0000
         vertex 7.9948 20.0052 -0.0000
         vertex 7.5441 19.4179 -0.0000
      endloop
   endfacet
   facet normal 0.0000 0.0000 -1.0000
      outer loop
         vertex 7.0000 23.7887 -0.0000
         vertex 7.5441 19.4179 -0.0000
         vertex 7.2608 18.7340 -0.0000
      endloop
   endfacet
   facet normal 0.0000 0.0000 -1.0000
      outer loop
         vertex 7.0000 23.7887 -0.0000
         vertex 7.2608 18.7340 -0.0000
         vertex 7.1642 18.0000 -0.0000
      endloop
   endfacet
   facet normal 0.0000 0.0000 -1.0000
      outer loop
         vertex 13.0000 26.2113 -0.0000
         vertex 20.0000 30.0000 0.0000
         vertex 13.0000 23.7887 -0.0000
      endloop
   endfacet
   facet normal 1.0000 0.0000 0.0000
      outer loop
         vertex 2.5000 4.5000 4.5000
         vertex 2.5000 29.6050 3.1843
         vertex 2.5000 29.1228 4.0700
      endloop
   endfacet
   facet normal 1.0000 0.0000 0.0000
      outer loop
         vertex 2.5000 4.5000 4.5000
         vertex 2.5000 29.1228 4.0700
         vertex 2.5000 24.0374 10.6974
      endloop
   endfacet
   facet normal 1.0000 0.0000 0.0000
      outer loop
         vertex 2.5000 4.5000 4.5000
         vertex 2.5000 24.0374 10.6974
         vertex 2.5000 17.4100 15.7828
      endloop
   endfacet
   facet normal 1.0000 0.0000 0.0000
      outer loop
         vertex 2.5000 4.5000 4.5000
         vertex 2.5000 17.4100 15.7828
         vertex 2.5000 9.6922 18.9796
      endloop
   endfacet
   facet normal 1.0000 0.0000 0.0000
      outer loop
         vertex 2.5000 4.5000 4.5000
         vertex 2.5000 9.6922 18.9796
         vertex 2.5000 4.5000 19.8416
      endloop
   endfacet
   facet normal -1.0000 0.0000 0.0000
      outer loop
         vertex 17.5000 4.5000 4.5000
         vertex 17.5000 4.5000 19.8416
         vertex 17.5000 9.6922 18.9796
      endloop
   endfacet
   facet normal -1.0000 0.0000 0.0000
      outer loop
         vertex 17.5000 4.5000 4.5000
         vertex 17.5000 9.6922 18.9796
         vertex 17.5000 17.4100 15.7828
      endloop
   endfacet
   facet normal -1.0000 0.0000 0.0000
      outer loop
         vertex 17.5000 4.5000 4.5000
         vertex 17.5000 17.4100 15.7828
         vertex 17.5000 24.0374 10.6974
      endloop
   endfacet
   facet normal -1.0000 0.0000 0.0000
      outer loop
         vertex 17.5000 4.5000 4.5000
         vertex 17.5000 24.0374 10.6974
         vertex 17.5000 29.1228 4.0700
      endloop
   endfacet
   facet normal -1.0000 0.0000 0.0000
      outer loop
         vertex 17.5000 4.5000 4.5000
         vertex 17.5000 29.1228 4.0700
         vertex 17.5000 29.6050 3.1843
      endloop
   endfacet
   facet normal 0.0000 0.0523 0.9986
      outer loop
         vertex 17.5000 29.6050 3.1843
         vertex 2.5000 29.6050 3.1843
         vertex 7.2725 22.7242 3.5449
      endloop
   endfacet
   facet normal 0.0000 0.0523 0.9986
      outer loop
         vertex 17.5000 29.6050 3.1843
         vertex 7.2725 22.7242 3.5449
         vertex 8.5803 23.2983 3.5148
      endloop
   endfacet
   facet normal 0.0000 0.0523 0.9986
      outer loop
         vertex 17.5000 29.6050 3.1843
         vertex 8.5803 23.2983 3.5148
         vertex 10.0000 23.4955 3.5045
      endloop
   endfacet
   facet normal 0.0000 0.0523 0.9986
      outer loop
         vertex 17.5000 29.6050 3.1843
         vertex 10.0000 23.4955 3.5045
         vertex 11.4197 23.2983 3.5148
      endloop
   endfacet
   facet normal 0.0000 0.0523 0.9986
      outer loop
         vertex 17.5000 29.6050 3.1843
         vertex 11.4197 23.2983 3.5148
         vertex 12.7275 22.7242 3.5449
      endloop
   endfacet
   facet normal 0.0000 0.0523 0.9986
      outer loop
         vertex 17.5000 29.6050 3.1843
         vertex 12.7275 22.7242 3.5449
         vertex 13.8240 21.8240 3.5921
      endloop
   endfacet
   facet normal 0.0000 0.0523 0.9986
      outer loop
         vertex 17.5000 29.6050 3.1843
         vertex 13.8240 21.8240 3.5921
         vertex 14.6312 20.6738 3.6524
      endloop
   endfacet
   facet normal 0.0000 0.0523 0.9986
      outer loop
         vertex 17.5000 29.6050 3.1843
         vertex 14.6312 20.6738 3.6524
         vertex 15.0992 19.3663 3.7209
      endloop
   endfacet
   facet normal 0.0000 0.0523 0.9986
      outer loop
         vertex 17.5000 29.6050 3.1843
         vertex 15.0992 19.3663 3.7209
         vertex 15.1927 18.7529 3.7530
      endloop
   endfacet
   facet normal 0.0000 0.0523 0.9986
      outer loop
         vertex 17.5000 29.6050 3.1843
         vertex 15.1927 18.7529 3.7530
         vertex 16.5045 4.5000 4.5000
      endloop
   endfacet
   facet normal 0.0000 0.0523 0.9986
      outer loop
         vertex 17.5000 29.6050 3.1843
         vertex 16.5045 4.5000 4.5000
         vertex 17.5000 4.5000 4.5000
      endloop
   endfacet
   facet normal 0.0000 0.0523 0.9986
      outer loop
         vertex 2.5000 29.6050 3.1843
         vertex 2.5000 4.5000 4.5000
         vertex 3.4955 4.5000 4.5000
      endloop
   endfacet
   facet normal 0.0000 0.0523 0.9986
      outer loop
         vertex 2.5000 29.6050 3.1843
         vertex 3.4955 4.5000 4.5000
         vertex 4.8073 18.7529 3.7530
      endloop
   endfacet
   facet normal 0.0000 0.0523 0.9986
      outer loop
         vertex 2.5000 29.6050 3.1843
         vertex 4.8073 18.7529 3.7530
         vertex 4.9008 19.3663 3.7209
      endloop
   endfacet
   facet normal 0.0000 0.0523 0.9986
      outer loop
         vertex 2.5000 29.6050 3.1843
         vertex 4.9008 19.3663 3.7209
         vertex 5.3688 20.6738 3.6524
      endloop
   endfacet
   facet normal 0.0000 0.0523 0.9986
      outer loop
         vertex 2.5000 29.6050 3.1843
         vertex 5.3688 20.6738 3.6524
         vertex 6.1760 21.8240 3.5921
      endloop
   endfacet
   facet normal 0.0000 0.0523 0.9986
      outer loop
         vertex 2.5000 29.6050 3.1843
         vertex 6.1760 21.8240 3.5921
         vertex 7.2725 22.7242 3.5449
      endloop
   endfacet
   facet normal 0.0868 0.9948 -0.0527
      outer loop
         vertex 10.0000 15.4000 4.5000
         vertex 10.0000 15.1642 -0.0000
         vertex 9.2660 15.2608 -0.0000
      endloop
   endfacet
   facet normal 0.1736 0.9834 -0.0527
      outer loop
         vertex 10.0000 15.4000 4.5000
         vertex 9.2660 15.2608 -0.0000
         vertex 9.3271 15.4886 4.5000
      endloop
   endfacet
   facet normal 0.4222 0.9050 -0.0527
      outer loop
         vertex 8.5821 15.5441 -0.0000
         vertex 8.7000 15.7483 4.5000
         vertex 9.3271 15.4886 4.5000
      endloop
   endfacet
   facet normal 0.3413 0.9385 -0.0527
      outer loop
         vertex 8.5821 15.5441 -0.0000
         vertex 9.3271 15.4886 4.5000
         vertex 9.2660 15.2608 -0.0000
      endloop
   endfacet
   facet normal 0.5726 0.8181 -0.0527
      outer loop
         vertex 8.7000 15.7483 4.5000
         vertex 8.5821 15.5441 -0.0000
         vertex 7.9948 15.9948 -0.0000
      endloop
   endfacet
   facet normal 0.6421 0.7648 -0.0527
      outer loop
         vertex 8.7000 15.7483 4.5000
         vertex 7.9948 15.9948 -0.0000
         vertex 8.1615 16.1615 4.5000
      endloop
   endfacet
   facet normal 0.8181 0.5726 -0.0527
      outer loop
         vertex 7.5441 16.5821 -0.0000
         vertex 7.7483 16.7000 4.5000
         vertex 8.1615 16.1615 4.5000
      endloop
   endfacet
   facet normal 0.7648 0.6421 -0.0527
      outer loop
         vertex 7.5441 16.5821 -0.0000
         vertex 8.1615 16.1615 4.5000
         vertex 7.9948 15.9948 -0.0000
      endloop
   endfacet
   facet normal 0.9050 0.4222 -0.0527
      outer loop
         vertex 7.7483 16.7000 4.5000
         vertex 7.5441 16.5821 -0.0000
         vertex 7.2608 17.2660 -0.0000
      endloop
   endfacet
   facet normal 0.9385 0.3413 -0.0527
      outer loop
         vertex 7.7483 16.7000 4.5000
         vertex 7.2608 17.2660 -0.0000
         vertex 7.4886 17.3271 4.5000
      endloop
   endfacet
   facet normal 0.9948 0.0868 -0.0527
      outer loop
         vertex 7.1642 18.0000 -0.0000
         vertex 7.4000 18.0000 4.5000
         vertex 7.4886 17.3271 4.5000
      endloop
   endfacet
   facet normal 0.9834 0.1736 -0.0527
      outer loop
         vertex 7.1642 18.0000 -0.0000
         vertex 7.4886 17.3271 4.5000
         vertex 7.2608 17.2660 -0.0000
      endloop
   endfacet
   facet normal -0.9948 0.0868 -0.0527
      outer loop
         vertex 12.6000 18.0000 4.5000
         vertex 12.8358 18.0000 -0.0000
         vertex 12.7392 17.2660 -0.0000
      endloop
   endfacet
   facet normal -0.9834 0.1736 -0.0527
      outer loop
         vertex 12.6000 18.0000 4.5000
         vertex 12.7392 17.2660 -0.0000
         vertex 12.5114 17.3271 4.5000
      endloop
   endfacet
   facet normal -0.9050 0.4222 -0.0527
      outer loop
         vertex 12.4559 16.5821 -0.0000
         vertex 12.2517 16.7000 4.5000
         vertex 12.5114 17.3271 4.5000
      endloop
   endfacet
   facet normal -0.9385 0.3413 -0.0527
      outer loop
         vertex 12.4559 16.5821 -0.0000
         vertex 12.5114 17.3271 4.5000
         vertex 12.7392 17.2660 -0.0000
      endloop
   endfacet
   facet normal -0.8181 0.5726 -0.0527
      outer loop
         vertex 12.2517 16.7000 4.5000
         vertex 12.4559 16.5821 -0.0000
         vertex 12.0052 15.9948 -0.0000
      endloop
   endfacet
   facet normal -0.7648 0.6421 -0.0527
      outer loop
         vertex 12.2517 16.7000 4.5000
         vertex 12.0052 15.9948 -0.0000
         vertex 11.8385 16.1615 4.5000
      endloop
   endfacet
   facet normal -0.5726 0.8181 -0.0527
      outer loop
         vertex 11.4179 15.5441 -0.0000
         vertex 11.3000 15.7483 4.5000
         vertex 11.8385 16.1615 4.5000
      endloop
   endfacet
   facet normal -0.6421 0.7648 -0.0527
      outer loop
         vertex 11.4179 15.5441 -0.0000
         vertex 11.8385 16.1615 4.5000
         vertex 12.0052 15.9948 -0.0000
      endloop
   endfacet
   facet normal -0.4222 0.9050 -0.0527
      outer loop
         vertex 11.3000 15.7483 4.5000
         vertex 11.4179 15.5441 -0.0000
         vertex 10.7340 15.2608 -0.0000
      endloop
   endfacet
   facet normal -0.3413 0.9385 -0.0527
      outer loop
         vertex 11.3000 15.7483 4.5000
         vertex 10.7340 15.2608 -0.0000
         vertex 10.6729 15.4886 4.5000
      endloop
   endfacet
   facet normal -0.0868 0.9948 -0.0527
      outer loop
         vertex 10.0000 15.1642 -0.0000
         vertex 10.0000 15.4000 4.5000
         vertex 10.6729 15.4886 4.5000
      endloop
   endfacet
   facet normal -0.1736 0.9834 -0.0527
      outer loop
         vertex 10.0000 15.1642 -0.0000
         vertex 10.6729 15.4886 4.5000
         vertex 10.7340 15.2608 -0.0000
      endloop
   endfacet
   facet normal -0.1736 -0.9834 -0.0527
      outer loop
         vertex 10.7340 20.7392 -0.0000
         vertex 10.6729 20.5114 4.5000
         vertex 10.0000 20.6000 4.5000
      endloop
   endfacet
   facet normal -0.0868 -0.9948 -0.0527
      outer loop
         vertex 10.7340 20.7392 -0.0000
         vertex 10.0000 20.6000 4.5000
         vertex 10.0000 20.8358 -0.0000
      endloop
   endfacet
   facet normal -0.3413 -0.9385 -0.0527
      outer loop
         vertex 10.6729 20.5114 4.5000
         vertex 10.7340 20.7392 -0.0000
         vertex 11.4179 20.4559 -0.0000
      endloop
   endfacet
   facet normal -0.4222 -0.9050 -0.0527
      outer loop
         vertex 10.6729 20.5114 4.5000
         vertex 11.4179 20.4559 -0.0000
         vertex 11.3000 20.2517 4.5000
      endloop
   endfacet
   facet normal -0.6421 -0.7648 -0.0527
      outer loop
         vertex 12.0052 20.0052 -0.0000
         vertex 11.8385 19.8385 4.5000
         vertex 11.3000 20.2517 4.5000
      endloop
   endfacet
   facet normal -0.5726 -0.8181 -0.0527
      outer loop
         vertex 12.0052 20.0052 -0.0000
         vertex 11.3000 20.2517 4.5000
         vertex 11.4179 20.4559 -0.0000
      endloop
   endfacet
   facet normal -0.7648 -0.6421 -0.0527
      outer loop
         vertex 11.8385 19.8385 4.5000
         vertex 12.0052 20.0052 -0.0000
         vertex 12.4559 19.4179 -0.0000
      endloop
   endfacet
   facet normal -0.8181 -0.5726 -0.0527
      outer loop
         vertex 11.8385 19.8385 4.5000
         vertex 12.4559 19.4179 -0.0000
         vertex 12.2517 19.3000 4.5000
      endloop
   endfacet
   facet normal -0.9385 -0.3413 -0.0527
      outer loop
         vertex 12.7392 18.7340 -0.0000
         vertex 12.5114 18.6729 4.5000
         vertex 12.2517 19.3000 4.5000
      endloop
   endfacet
   facet normal -0.9050 -0.4222 -0.0527
      outer loop
         vertex 12.7392 18.7340 -0.0000
         vertex 12.2517 19.3000 4.5000
         vertex 12.4559 19.4179 -0.0000
      endloop
   endfacet
   facet normal -0.9834 -0.1736 -0.0527
      outer loop
         vertex 12.5114 18.6729 4.5000
         vertex 12.7392 18.7340 -0.0000
         vertex 12.8358 18.0000 -0.0000
      endloop
   endfacet
   facet normal -0.9948 -0.0868 -0.0527
      outer loop
         vertex 12.5114 18.6729 4.5000
         vertex 12.8358 18.0000 -0.0000
         vertex 12.6000 18.0000 4.5000
      endloop
   endfacet
   facet normal 0.9834 -0.1736 -0.0527
      outer loop
         vertex 7.2608 18.7340 -0.0000
         vertex 7.4886 18.6729 4.5000
         vertex 7.4000 18.0000 4.5000
      endloop
   endfacet
   facet normal 0.9948 -0.0868 -0.0527
      outer loop
         vertex 7.2608 18.7340 -0.0000
         vertex 7.4000 18.0000 4.5000
         vertex 7.1642 18.0000 -0.0000
      endloop
   endfacet
   facet normal 0.9385 -0.3413 -0.0527
      outer loop
         vertex 7.4886 18.6729 4.5000
         vertex 7.2608 18.7340 -0.0000
         vertex 7.5441 19.4179 -0.0000
      endloop
   endfacet
   facet normal 0.9050 -0.4222 -0.0527
      outer loop
         vertex 7.4886 18.6729 4.5000
         vertex 7.5441 19.4179 -0.0000
         vertex 7.7483 19.3000 4.5000
      endloop
   endfacet
   facet normal 0.7648 -0.6421 -0.0527
      outer loop
         vertex 7.9948 20.0052 -0.0000
         vertex 8.1615 19.8385 4.5000
         vertex 7.7483 19.3000 4.5000
      endloop
   endfacet
   facet normal 0.8181 -0.5726 -0.0527
      outer loop
         vertex 7.9948 20.0052 -0.0000
         vertex 7.7483 19.3000 4.5000
         vertex 7.5441 19.4179 -0.0000
      endloop
   endfacet
   facet normal 0.6421 -0.7648 -0.0527
      outer loop
         vertex 8.1615 19.8385 4.5000
         vertex 7.9948 20.0052 -0.0000
         vertex 8.5821 20.4559 -0.0000
      endloop
   endfacet
   facet normal 0.5726 -0.8181 -0.0527
      outer loop
         vertex 8.1615 19.8385 4.5000
         vertex 8.5821 20.4559 -0.0000
         vertex 8.7000 20.2517 4.5000
      endloop
   endfacet
   facet normal 0.3413 -0.9385 -0.0527
      outer loop
         vertex 9.2660 20.7392 -0.0000
         vertex 9.3271 20.5114 4.5000
         vertex 8.7000 20.2517 4.5000
      endloop
   endfacet
   facet normal 0.4222 -0.9050 -0.0527
      outer loop
         vertex 9.2660 20.7392 -0.0000
         vertex 8.7000 20.2517 4.5000
         vertex 8.5821 20.4559 -0.0000
      endloop
   endfacet
   facet normal 0.1736 -0.9834 -0.0527
      outer loop
         vertex 9.3271 20.5114 4.5000
         vertex 9.2660 20.7392 -0.0000
         vertex 10.0000 20.8358 -0.0000
      endloop
   endfacet
   facet normal 0.0868 -0.9948 -0.0527
      outer loop
         vertex 9.3271 20.5114 4.5000
         vertex 10.0000 20.8358 -0.0000
         vertex 10.0000 20.6000 4.5000
      endloop
   endfacet
   facet normal 0.0000 1.0000 0.0000
      outer loop
         vertex 2.5000 4.5000 19.8416
         vertex 17.5000 4.5000 19.8416
         vertex 10.0000 4.5000 12.6000
      endloop
   endfacet
   facet normal 0.0000 1.0000 0.0000
      outer loop
         vertex 2.5000 4.5000 19.8416
         vertex 10.0000 4.5000 12.6000
         vertex 9.3271 4.5000 12.5114
      endloop
   endfacet
   facet normal 0.0000 1.0000 0.0000
      outer loop
         vertex 2.5000 4.5000 19.8416
         vertex 9.3271 4.5000 12.5114
         vertex 8.7000 4.5000 12.2517
      endloop
   endfacet
   facet normal 0.0000 1.0000 0.0000
      outer loop
         vertex 2.5000 4.5000 19.8416
         vertex 8.7000 4.5000 12.2517
         vertex 8.1615 4.5000 11.8385
      endloop
   endfacet
   facet normal 0.0000 1.0000 0.0000
      outer loop
         vertex 2.5000 4.5000 19.8416
         vertex 8.1615 4.5000 11.8385
         vertex 7.7483 4.5000 11.3000
      endloop
   endfacet
   facet normal 0.0000 1.0000 0.0000
      outer loop
         vertex 2.5000 4.5000 19.8416
         vertex 7.7483 4.5000 11.3000
         vertex 7.4886 4.5000 10.6729
      endloop
   endfacet
   facet normal 0.0000 1.0000 0.0000
      outer loop
         vertex 2.5000 4.5000 19.8416
         vertex 7.4886 4.5000 10.6729
         vertex 7.4000 4.5000 10.0000
      endloop
   endfacet
   facet normal 0.0000 1.0000 0.0000
      outer loop
         vertex 2.5000 4.5000 19.8416
         vertex 7.4000 4.5000 10.0000
         vertex 7.4886 4.5000 9.3271
      endloop
   endfacet
   facet normal 0.0000 1.0000 0.0000
      outer loop
         vertex 2.5000 4.5000 19.8416
         vertex 7.4886 4.5000 9.3271
         vertex 7.7483 4.5000 8.7000
      endloop
   endfacet
   facet normal 0.0000 1.0000 0.0000
      outer loop
         vertex 2.5000 4.5000 19.8416
         vertex 7.7483 4.5000 8.7000
         vertex 3.4955 4.5000 4.5000
      endloop
   endfacet
   facet normal 0.0000 1.0000 0.0000
      outer loop
         vertex 2.5000 4.5000 19.8416
         vertex 3.4955 4.5000 4.5000
         vertex 2.5000 4.5000 4.5000
      endloop
   endfacet
   facet normal 0.0000 1.0000 0.0000
      outer loop
         vertex 17.5000 4.5000 19.8416
         vertex 17.5000 4.5000 4.5000
         vertex 12.2517 4.5000 8.7000
      endloop
   endfacet
   facet normal 0.0000 1.0000 0.0000
      outer loop
         vertex 17.5000 4.5000 19.8416
         vertex 12.2517 4.5000 8.7000
         vertex 12.5114 4.5000 9.3271
      endloop
   endfacet
   facet normal 0.0000 1.0000 0.0000
      outer loop
         vertex 17.5000 4.5000 19.8416
         vertex 12.5114 4.5000 9.3271
         vertex 12.6000 4.5000 10.0000
      endloop
   endfacet
   facet normal 0.0000 1.0000 0.0000
      outer loop
         vertex 17.5000 4.5000 19.8416
         vertex 12.6000 4.5000 10.0000
         vertex 12.5114 4.5000 10.6729
      endloop
   endfacet
   facet normal 0.0000 1.0000 0.0000
      outer loop
         vertex 17.5000 4.5000 19.8416
         vertex 12.5114 4.5000 10.6729
         vertex 12.2517 4.5000 11.3000
      endloop
   endfacet
   facet normal 0.0000 1.0000 0.0000
      outer loop
         vertex 17.5000 4.5000 19.8416
         vertex 12.2517 4.5000 11.3000
         vertex 11.8385 4.5000 11.8385
      endloop
   endfacet
   facet normal 0.0000 1.0000 0.0000
      outer loop
         vertex 17.5000 4.5000 19.8416
         vertex 11.8385 4.5000 11.8385
         vertex 11.3000 4.5000 12.2517
      endloop
   endfacet
   facet normal 0.0000 1.0000 0.0000
      outer loop
         vertex 17.5000 4.5000 19.8416
         vertex 11.3000 4.5000 12.2517
         vertex 10.6729 4.5000 12.5114
      endloop
   endfacet
   facet normal 0.0000 1.0000 0.0000
      outer loop
         vertex 17.5000 4.5000 19.8416
         vertex 10.6729 4.5000 12.5114
         vertex 10.0000 4.5000 12.6000
      endloop
   endfacet
   facet normal 0.0000 1.0000 0.0000
      outer loop
         vertex 7.7483 4.5000 8.7000
         vertex 8.1615 4.5000 8.1615
         vertex 3.4955 4.5000 4.5000
      endloop
   endfacet
   facet normal 0.0000 1.0000 0.0000
      outer loop
         vertex 3.4955 4.5000 4.5000
         vertex 8.1615 4.5000 8.1615
         vertex 8.7000 4.5000 7.7483
      endloop
   endfacet
   facet normal 0.0000 1.0000 0.0000
      outer loop
         vertex 3.4955 4.5000 4.5000
         vertex 8.7000 4.5000 7.7483
         vertex 16.5045 4.5000 4.5000
      endloop
   endfacet
   facet normal 0.0000 1.0000 0.0000
      outer loop
         vertex 16.5045 4.5000 4.5000
         vertex 8.7000 4.5000 7.7483
         vertex 9.3271 4.5000 7.4886
      endloop
   endfacet
   facet normal 0.0000 1.0000 0.0000
      outer loop
         vertex 16.5045 4.5000 4.5000
         vertex 9.3271 4.5000 7.4886
         vertex 17.5000 4.5000 4.5000
      endloop
   endfacet
   facet normal 0.0000 1.0000 0.0000
      outer loop
         vertex 17.5000 4.5000 4.5000
         vertex 9.3271 4.5000 7.4886
         vertex 10.0000 4.5000 7.4000
      endloop
   endfacet
   facet normal 0.0000 1.0000 0.0000
      outer loop
         vertex 17.5000 4.5000 4.5000
         vertex 10.0000 4.5000 7.4000
         vertex 10.6729 4.5000 7.4886
      endloop
   endfacet
   facet normal 0.0000 1.0000 0.0000
      outer loop
         vertex 17.5000 4.5000 4.5000
         vertex 10.6729 4.5000 7.4886
         vertex 11.3000 4.5000 7.7483
      endloop
   endfacet
   facet normal 0.0000 1.0000 0.0000
      outer loop
         vertex 17.5000 4.5000 4.5000
         vertex 11.3000 4.5000 7.7483
         vertex 11.8385 4.5000 8.1615
      endloop
   endfacet
   facet normal 0.0000 1.0000 0.0000
      outer loop
         vertex 17.5000 4.5000 4.5000
         vertex 11.8385 4.5000 8.1615
         vertex 12.2517 4.5000 8.7000
      endloop
   endfacet
   facet normal 0.1736 -0.0527 -0.9834
      outer loop
         vertex 9.2660 0.0000 12.7392
         vertex 9.3271 4.5000 12.5114
         vertex 10.0000 4.5000 12.6000
      endloop
   endfacet
   facet normal 0.0868 -0.0527 -0.9948
      outer loop
         vertex 9.2660 0.0000 12.7392
         vertex 10.0000 4.5000 12.6000
         vertex 10.0000 0.0000 12.8358
      endloop
   endfacet
   facet normal 0.3005 -0.0523 -0.9523
      outer loop
         vertex 9.3271 4.5000 12.5114
         vertex 9.2660 0.0000 12.7392
         vertex 9.1650 0.0000 12.6974
      endloop
   endfacet
   facet normal 0.3418 -0.0521 -0.9383
      outer loop
         vertex 9.3271 4.5000 12.5114
         vertex 9.1650 0.0000 12.6974
         vertex 9.0599 -1.0000 12.7101
      endloop
   endfacet
   facet normal 0.3822 -0.0525 -0.9226
      outer loop
         vertex 9.3271 4.5000 12.5114
         vertex 9.0599 -1.0000 12.7101
         vertex 8.5559 -1.0000 12.5013
      endloop
   endfacet
   facet normal 0.4222 -0.0527 -0.9050
      outer loop
         vertex 9.3271 4.5000 12.5114
         vertex 8.5559 -1.0000 12.5013
         vertex 8.7000 4.5000 12.2517
      endloop
   endfacet
   facet normal 0.6421 -0.0527 -0.7648
      outer loop
         vertex 7.9577 -1.0000 12.0423
         vertex 8.1615 4.5000 11.8385
         vertex 8.7000 4.5000 12.2517
      endloop
   endfacet
   facet normal 0.5726 -0.0527 -0.8181
      outer loop
         vertex 7.9577 -1.0000 12.0423
         vertex 8.7000 4.5000 12.2517
         vertex 8.5559 -1.0000 12.5013
      endloop
   endfacet
   facet normal 0.7648 -0.0527 -0.6421
      outer loop
         vertex 8.1615 4.5000 11.8385
         vertex 7.9577 -1.0000 12.0423
         vertex 7.4987 -1.0000 11.4441
      endloop
   endfacet
   facet normal 0.8181 -0.0527 -0.5726
      outer loop
         vertex 8.1615 4.5000 11.8385
         vertex 7.4987 -1.0000 11.4441
         vertex 7.7483 4.5000 11.3000
      endloop
   endfacet
   facet normal 0.8859 -0.0523 -0.4609
      outer loop
         vertex 7.7483 4.5000 11.3000
         vertex 7.4987 -1.0000 11.4441
         vertex 7.2899 -1.0000 10.9401
      endloop
   endfacet
   facet normal 0.9052 -0.0521 -0.4218
      outer loop
         vertex 7.7483 4.5000 11.3000
         vertex 7.2899 -1.0000 10.9401
         vertex 7.3026 0.0000 10.8350
      endloop
   endfacet
   facet normal 0.9226 -0.0525 -0.3822
      outer loop
         vertex 7.7483 4.5000 11.3000
         vertex 7.3026 0.0000 10.8350
         vertex 7.2608 0.0000 10.7340
      endloop
   endfacet
   facet normal 0.9385 -0.0527 -0.3413
      outer loop
         vertex 7.7483 4.5000 11.3000
         vertex 7.2608 0.0000 10.7340
         vertex 7.4886 4.5000 10.6729
      endloop
   endfacet
   facet normal 0.9834 -0.0527 -0.1736
      outer loop
         vertex 7.4886 4.5000 10.6729
         vertex 7.2608 0.0000 10.7340
         vertex 7.1642 0.0000 10.0000
      endloop
   endfacet
   facet normal 0.9948 -0.0527 -0.0868
      outer loop
         vertex 7.4886 4.5000 10.6729
         vertex 7.1642 0.0000 10.0000
         vertex 7.4000 4.5000 10.0000
      endloop
   endfacet
   facet normal -0.9834 -0.0527 -0.1736
      outer loop
         vertex 12.7392 0.0000 10.7340
         vertex 12.5114 4.5000 10.6729
         vertex 12.6000 4.5000 10.0000
      endloop
   endfacet
   facet normal -0.9948 -0.0527 -0.0868
      outer loop
         vertex 12.7392 0.0000 10.7340
         vertex 12.6000 4.5000 10.0000
         vertex 12.8358 0.0000 10.0000
      endloop
   endfacet
   facet normal -0.9385 -0.0527 -0.3413
      outer loop
         vertex 12.2517 4.5000 11.3000
         vertex 12.5114 4.5000 10.6729
         vertex 12.7392 0.0000 10.7340
      endloop
   endfacet
   facet normal -0.9226 -0.0525 -0.3822
      outer loop
         vertex 12.2517 4.5000 11.3000
         vertex 12.7392 0.0000 10.7340
         vertex 12.6974 0.0000 10.8350
      endloop
   endfacet
   facet normal -0.9052 -0.0521 -0.4218
      outer loop
         vertex 12.2517 4.5000 11.3000
         vertex 12.6974 0.0000 10.8350
         vertex 12.7101 -1.0000 10.9401
      endloop
   endfacet
   facet normal -0.8859 -0.0523 -0.4609
      outer loop
         vertex 12.2517 4.5000 11.3000
         vertex 12.7101 -1.0000 10.9401
         vertex 12.5013 -1.0000 11.4441
      endloop
   endfacet
   facet normal -0.7648 -0.0527 -0.6421
      outer loop
         vertex 12.0423 -1.0000 12.0423
         vertex 11.8385 4.5000 11.8385
         vertex 12.2517 4.5000 11.3000
      endloop
   endfacet
   facet normal -0.8181 -0.0527 -0.5726
      outer loop
         vertex 12.0423 -1.0000 12.0423
         vertex 12.2517 4.5000 11.3000
         vertex 12.5013 -1.0000 11.4441
      endloop
   endfacet
   facet normal -0.6421 -0.0527 -0.7648
      outer loop
         vertex 11.8385 4.5000 11.8385
         vertex 12.0423 -1.0000 12.0423
         vertex 11.4441 -1.0000 12.5013
      endloop
   endfacet
   facet normal -0.5726 -0.0527 -0.8181
      outer loop
         vertex 11.8385 4.5000 11.8385
         vertex 11.4441 -1.0000 12.5013
         vertex 11.3000 4.5000 12.2517
      endloop
   endfacet
   facet normal -0.4609 -0.0523 -0.8859
      outer loop
         vertex 11.3000 4.5000 12.2517
         vertex 11.4441 -1.0000 12.5013
         vertex 10.9401 -1.0000 12.7101
      endloop
   endfacet
   facet normal -0.4218 -0.0521 -0.9052
      outer loop
         vertex 11.3000 4.5000 12.2517
         vertex 10.9401 -1.0000 12.7101
         vertex 10.8350 0.0000 12.6974
      endloop
   endfacet
   facet normal -0.3822 -0.0525 -0.9226
      outer loop
         vertex 11.3000 4.5000 12.2517
         vertex 10.8350 0.0000 12.6974
         vertex 10.7340 0.0000 12.7392
      endloop
   endfacet
   facet normal -0.3413 -0.0527 -0.9385
      outer loop
         vertex 11.3000 4.5000 12.2517
         vertex 10.7340 0.0000 12.7392
         vertex 10.6729 4.5000 12.5114
      endloop
   endfacet
   facet normal -0.1736 -0.0527 -0.9834
      outer loop
         vertex 10.6729 4.5000 12.5114
         vertex 10.7340 0.0000 12.7392
         vertex 10.0000 0.0000 12.8358
      endloop
   endfacet
   facet normal -0.0868 -0.0527 -0.9948
      outer loop
         vertex 10.6729 4.5000 12.5114
         vertex 10.0000 0.0000 12.8358
         vertex 10.0000 4.5000 12.6000
      endloop
   endfacet
   facet normal -0.1736 -0.0527 0.9834
      outer loop
         vertex 10.7340 0.0000 7.2608
         vertex 10.6729 4.5000 7.4886
         vertex 10.0000 4.5000 7.4000
      endloop
   endfacet
   facet normal -0.0868 -0.0527 0.9948
      outer loop
         vertex 10.7340 0.0000 7.2608
         vertex 10.0000 4.5000 7.4000
         vertex 10.0000 0.0000 7.1642
      endloop
   endfacet
   facet normal -0.3005 -0.0523 0.9523
      outer loop
         vertex 10.6729 4.5000 7.4886
         vertex 10.7340 0.0000 7.2608
         vertex 10.8350 0.0000 7.3026
      endloop
   endfacet
   facet normal -0.3418 -0.0521 0.9383
      outer loop
         vertex 10.6729 4.5000 7.4886
         vertex 10.8350 0.0000 7.3026
         vertex 10.9401 -1.0000 7.2899
      endloop
   endfacet
   facet normal -0.3822 -0.0525 0.9226
      outer loop
         vertex 10.6729 4.5000 7.4886
         vertex 10.9401 -1.0000 7.2899
         vertex 11.4441 -1.0000 7.4987
      endloop
   endfacet
   facet normal -0.4222 -0.0527 0.9050
      outer loop
         vertex 10.6729 4.5000 7.4886
         vertex 11.4441 -1.0000 7.4987
         vertex 11.3000 4.5000 7.7483
      endloop
   endfacet
   facet normal -0.5726 -0.0527 0.8181
      outer loop
         vertex 11.3000 4.5000 7.7483
         vertex 11.4441 -1.0000 7.4987
         vertex 12.0423 -1.0000 7.9577
      endloop
   endfacet
   facet normal -0.6421 -0.0527 0.7648
      outer loop
         vertex 11.3000 4.5000 7.7483
         vertex 12.0423 -1.0000 7.9577
         vertex 11.8385 4.5000 8.1615
      endloop
   endfacet
   facet normal -0.8181 -0.0527 0.5726
      outer loop
         vertex 12.5013 -1.0000 8.5559
         vertex 12.2517 4.5000 8.7000
         vertex 11.8385 4.5000 8.1615
      endloop
   endfacet
   facet normal -0.7648 -0.0527 0.6421
      outer loop
         vertex 12.5013 -1.0000 8.5559
         vertex 11.8385 4.5000 8.1615
         vertex 12.0423 -1.0000 7.9577
      endloop
   endfacet
   facet normal -0.8859 -0.0523 0.4609
      outer loop
         vertex 12.2517 4.5000 8.7000
         vertex 12.5013 -1.0000 8.5559
         vertex 12.7101 -1.0000 9.0599
      endloop
   endfacet
   facet normal -0.9052 -0.0521 0.4218
      outer loop
         vertex 12.2517 4.5000 8.7000
         vertex 12.7101 -1.0000 9.0599
         vertex 12.6974 0.0000 9.1650
      endloop
   endfacet
   facet normal -0.9226 -0.0525 0.3822
      outer loop
         vertex 12.2517 4.5000 8.7000
         vertex 12.6974 0.0000 9.1650
         vertex 12.7392 0.0000 9.2660
      endloop
   endfacet
   facet normal -0.9385 -0.0527 0.3413
      outer loop
         vertex 12.2517 4.5000 8.7000
         vertex 12.7392 0.0000 9.2660
         vertex 12.5114 4.5000 9.3271
      endloop
   endfacet
   facet normal -0.9948 -0.0527 0.0868
      outer loop
         vertex 12.8358 0.0000 10.0000
         vertex 12.6000 4.5000 10.0000
         vertex 12.5114 4.5000 9.3271
      endloop
   endfacet
   facet normal -0.9834 -0.0527 0.1736
      outer loop
         vertex 12.8358 0.0000 10.0000
         vertex 12.5114 4.5000 9.3271
         vertex 12.7392 0.0000 9.2660
      endloop
   endfacet
   facet normal 0.9948 -0.0527 0.0868
      outer loop
         vertex 7.4000 4.5000 10.0000
         vertex 7.1642 0.0000 10.0000
         vertex 7.2608 0.0000 9.2660
      endloop
   endfacet
   facet normal 0.9834 -0.0527 0.1736
      outer loop
         vertex 7.4000 4.5000 10.0000
         vertex 7.2608 0.0000 9.2660
         vertex 7.4886 4.5000 9.3271
      endloop
   endfacet
   facet normal 0.9385 -0.0527 0.3413
      outer loop
         vertex 7.7483 4.5000 8.7000
         vertex 7.4886 4.5000 9.3271
         vertex 7.2608 0.0000 9.2660
      endloop
   endfacet
   facet normal 0.9226 -0.0525 0.3822
      outer loop
         vertex 7.7483 4.5000 8.7000
         vertex 7.2608 0.0000 9.2660
         vertex 7.3026 0.0000 9.1650
      endloop
   endfacet
   facet normal 0.9052 -0.0521 0.4218
      outer loop
         vertex 7.7483 4.5000 8.7000
         vertex 7.3026 0.0000 9.1650
         vertex 7.2899 -1.0000 9.0599
      endloop
   endfacet
   facet normal 0.8859 -0.0523 0.4609
      outer loop
         vertex 7.7483 4.5000 8.7000
         vertex 7.2899 -1.0000 9.0599
         vertex 7.4987 -1.0000 8.5559
      endloop
   endfacet
   facet normal 0.8181 -0.0527 0.5726
      outer loop
         vertex 7.7483 4.5000 8.7000
         vertex 7.4987 -1.0000 8.5559
         vertex 7.9577 -1.0000 7.9577
      endloop
   endfacet
   facet normal 0.7648 -0.0527 0.6421
      outer loop
         vertex 7.7483 4.5000 8.7000
         vertex 7.9577 -1.0000 7.9577
         vertex 8.1615 4.5000 8.1615
      endloop
   endfacet
   facet normal 0.5726 -0.0527 0.8181
      outer loop
         vertex 8.5559 -1.0000 7.4987
         vertex 8.7000 4.5000 7.7483
         vertex 8.1615 4.5000 8.1615
      endloop
   endfacet
   facet normal 0.6421 -0.0527 0.7648
      outer loop
         vertex 8.5559 -1.0000 7.4987
         vertex 8.1615 4.5000 8.1615
         vertex 7.9577 -1.0000 7.9577
      endloop
   endfacet
   facet normal 0.3822 -0.0525 0.9226
      outer loop
         vertex 9.3271 4.5000 7.4886
         vertex 8.7000 4.5000 7.7483
         vertex 9.0599 -1.0000 7.2899
      endloop
   endfacet
   facet normal 0.3418 -0.0521 0.9383
      outer loop
         vertex 9.3271 4.5000 7.4886
         vertex 9.0599 -1.0000 7.2899
         vertex 9.1650 0.0000 7.3026
      endloop
   endfacet
   facet normal 0.3005 -0.0523 0.9523
      outer loop
         vertex 9.3271 4.5000 7.4886
         vertex 9.1650 0.0000 7.3026
         vertex 9.2660 0.0000 7.2608
      endloop
   endfacet
   facet normal 0.4609 -0.0523 0.8859
      outer loop
         vertex 9.0599 -1.0000 7.2899
         vertex 8.7000 4.5000 7.7483
         vertex 8.5559 -1.0000 7.4987
      endloop
   endfacet
   facet normal 0.1736 -0.0527 0.9834
      outer loop
         vertex 9.3271 4.5000 7.4886
         vertex 9.2660 0.0000 7.2608
         vertex 10.0000 0.0000 7.1642
      endloop
   endfacet
   facet normal 0.0868 -0.0527 0.9948
      outer loop
         vertex 9.3271 4.5000 7.4886
         vertex 10.0000 0.0000 7.1642
         vertex 10.0000 4.5000 7.4000
      endloop
   endfacet
   facet normal 0.0000 0.0000 1.0000
      outer loop
         vertex 13.1820 21.1820 4.5000
         vertex 12.2500 21.8971 4.5000
         vertex 12.2517 19.3000 4.5000
      endloop
   endfacet
   facet normal 0.0000 0.0000 1.0000
      outer loop
         vertex 13.1820 21.1820 4.5000
         vertex 12.2517 19.3000 4.5000
         vertex 12.5114 18.6729 4.5000
      endloop
   endfacet
   facet normal 0.0000 0.0000 1.0000
      outer loop
         vertex 13.1820 21.1820 4.5000
         vertex 12.5114 18.6729 4.5000
         vertex 12.6000 18.0000 4.5000
      endloop
   endfacet
   facet normal 0.0000 0.0000 1.0000
      outer loop
         vertex 13.1820 21.1820 4.5000
         vertex 12.6000 18.0000 4.5000
         vertex 16.5045 4.5000 4.5000
      endloop
   endfacet
   facet normal 0.0000 0.0000 1.0000
      outer loop
         vertex 13.1820 21.1820 4.5000
         vertex 16.5045 4.5000 4.5000
         vertex 13.8971 20.2500 4.5000
      endloop
   endfacet
   facet normal 0.0000 0.0000 1.0000
      outer loop
         vertex 9.3271 20.5114 4.5000
         vertex 10.0000 20.6000 4.5000
         vertex 10.0000 22.5000 4.5000
      endloop
   endfacet
   facet normal 0.0000 0.0000 1.0000
      outer loop
         vertex 10.0000 22.5000 4.5000
         vertex 10.0000 20.6000 4.5000
         vertex 10.6729 20.5114 4.5000
      endloop
   endfacet
   facet normal 0.0000 0.0000 1.0000
      outer loop
         vertex 10.0000 22.5000 4.5000
         vertex 10.6729 20.5114 4.5000
         vertex 11.1647 22.3467 4.5000
      endloop
   endfacet
   facet normal 0.0000 0.0000 1.0000
      outer loop
         vertex 11.1647 22.3467 4.5000
         vertex 10.6729 20.5114 4.5000
         vertex 11.3000 20.2517 4.5000
      endloop
   endfacet
   facet normal 0.0000 0.0000 1.0000
      outer loop
         vertex 11.1647 22.3467 4.5000
         vertex 11.3000 20.2517 4.5000
         vertex 12.2500 21.8971 4.5000
      endloop
   endfacet
   facet normal 0.0000 0.0000 1.0000
      outer loop
         vertex 12.2500 21.8971 4.5000
         vertex 11.3000 20.2517 4.5000
         vertex 11.8385 19.8385 4.5000
      endloop
   endfacet
   facet normal 0.0000 0.0000 1.0000
      outer loop
         vertex 12.2500 21.8971 4.5000
         vertex 11.8385 19.8385 4.5000
         vertex 12.2517 19.3000 4.5000
      endloop
   endfacet
   facet normal 0.0000 0.0000 1.0000
      outer loop
         vertex 8.8353 22.3467 4.5000
         vertex 7.7500 21.8971 4.5000
         vertex 8.1615 19.8385 4.5000
      endloop
   endfacet
   facet normal 0.0000 0.0000 1.0000
      outer loop
         vertex 8.8353 22.3467 4.5000
         vertex 8.1615 19.8385 4.5000
         vertex 8.7000 20.2517 4.5000
      endloop
   endfacet
   facet normal 0.0000 0.0000 1.0000
      outer loop
         vertex 8.8353 22.3467 4.5000
         vertex 8.7000 20.2517 4.5000
         vertex 9.3271 20.5114 4.5000
      endloop
   endfacet
   facet normal 0.0000 0.0000 1.0000
      outer loop
         vertex 8.8353 22.3467 4.5000
         vertex 9.3271 20.5114 4.5000
         vertex 10.0000 22.5000 4.5000
      endloop
   endfacet
   facet normal 0.0000 0.0000 1.0000
      outer loop
         vertex 7.7500 21.8971 4.5000
         vertex 6.8180 21.1820 4.5000
         vertex 7.4000 18.0000 4.5000
      endloop
   endfacet
   facet normal 0.0000 0.0000 1.0000
      outer loop
         vertex 7.7500 21.8971 4.5000
         vertex 7.4000 18.0000 4.5000
         vertex 7.4886 18.6729 4.5000
      endloop
   endfacet
   facet normal 0.0000 0.0000 1.0000
      outer loop
         vertex 7.7500 21.8971 4.5000
         vertex 7.4886 18.6729 4.5000
         vertex 7.7483 19.3000 4.5000
      endloop
   endfacet
   facet normal 0.0000 0.0000 1.0000
      outer loop
         vertex 7.7500 21.8971 4.5000
         vertex 7.7483 19.3000 4.5000
         vertex 8.1615 19.8385 4.5000
      endloop
   endfacet
   facet normal 0.0000 0.0000 1.0000
      outer loop
         vertex 14.3467 19.1647 4.5000
         vertex 13.8971 20.2500 4.5000
         vertex 16.5045 4.5000 4.5000
      endloop
   endfacet
   facet normal 0.0000 0.0000 1.0000
      outer loop
         vertex 14.3467 19.1647 4.5000
         vertex 16.5045 4.5000 4.5000
         vertex 14.4534 18.6457 4.5000
      endloop
   endfacet
   facet normal 0.0000 0.0000 1.0000
      outer loop
         vertex 16.5045 4.5000 4.5000
         vertex 12.6000 18.0000 4.5000
         vertex 12.5114 17.3271 4.5000
      endloop
   endfacet
   facet normal 0.0000 0.0000 1.0000
      outer loop
         vertex 16.5045 4.5000 4.5000
         vertex 12.5114 17.3271 4.5000
         vertex 12.2517 16.7000 4.5000
      endloop
   endfacet
   facet normal 0.0000 0.0000 1.0000
      outer loop
         vertex 16.5045 4.5000 4.5000
         vertex 12.2517 16.7000 4.5000
         vertex 11.8385 16.1615 4.5000
      endloop
   endfacet
   facet normal 0.0000 0.0000 1.0000
      outer loop
         vertex 16.5045 4.5000 4.5000
         vertex 11.8385 16.1615 4.5000
         vertex 11.3000 15.7483 4.5000
      endloop
   endfacet
   facet normal 0.0000 0.0000 1.0000
      outer loop
         vertex 16.5045 4.5000 4.5000
         vertex 11.3000 15.7483 4.5000
         vertex 10.6729 15.4886 4.5000
      endloop
   endfacet
   facet normal 0.0000 0.0000 1.0000
      outer loop
         vertex 16.5045 4.5000 4.5000
         vertex 10.6729 15.4886 4.5000
         vertex 10.0000 15.4000 4.5000
      endloop
   endfacet
   facet normal 0.0000 0.0000 1.0000
      outer loop
         vertex 16.5045 4.5000 4.5000
         vertex 10.0000 15.4000 4.5000
         vertex 9.3271 15.4886 4.5000
      endloop
   endfacet
   facet normal 0.0000 0.0000 1.0000
      outer loop
         vertex 16.5045 4.5000 4.5000
         vertex 9.3271 15.4886 4.5000
         vertex 8.7000 15.7483 4.5000
      endloop
   endfacet
   facet normal 0.0000 0.0000 1.0000
      outer loop
         vertex 16.5045 4.5000 4.5000
         vertex 8.7000 15.7483 4.5000
         vertex 8.1615 16.1615 4.5000
      endloop
   endfacet
   facet normal 0.0000 0.0000 1.0000
      outer loop
         vertex 16.5045 4.5000 4.5000
         vertex 8.1615 16.1615 4.5000
         vertex 7.7483 16.7000 4.5000
      endloop
   endfacet
   facet normal 0.0000 0.0000 1.0000
      outer loop
         vertex 16.5045 4.5000 4.5000
         vertex 7.7483 16.7000 4.5000
         vertex 5.6533 19.1647 4.5000
      endloop
   endfacet
   facet normal 0.0000 0.0000 1.0000
      outer loop
         vertex 16.5045 4.5000 4.5000
         vertex 5.6533 19.1647 4.5000
         vertex 5.5466 18.6457 4.5000
      endloop
   endfacet
   facet normal 0.0000 0.0000 1.0000
      outer loop
         vertex 16.5045 4.5000 4.5000
         vertex 5.5466 18.6457 4.5000
         vertex 3.4955 4.5000 4.5000
      endloop
   endfacet
   facet normal 0.0000 0.0000 1.0000
      outer loop
         vertex 5.6533 19.1647 4.5000
         vertex 7.7483 16.7000 4.5000
         vertex 6.1029 20.2500 4.5000
      endloop
   endfacet
   facet normal 0.0000 0.0000 1.0000
      outer loop
         vertex 6.1029 20.2500 4.5000
         vertex 7.7483 16.7000 4.5000
         vertex 7.4886 17.3271 4.5000
      endloop
   endfacet
   facet normal 0.0000 0.0000 1.0000
      outer loop
         vertex 6.1029 20.2500 4.5000
         vertex 7.4886 17.3271 4.5000
         vertex 6.8180 21.1820 4.5000
      endloop
   endfacet
   facet normal 0.0000 0.0000 1.0000
      outer loop
         vertex 6.8180 21.1820 4.5000
         vertex 7.4886 17.3271 4.5000
         vertex 7.4000 18.0000 4.5000
      endloop
   endfacet
   facet normal -0.0612 0.7017 0.7098
      outer loop
         vertex 8.8353 22.3467 4.5000
         vertex 10.0000 22.5000 4.5000
         vertex 10.0000 23.4955 3.5045
      endloop
   endfacet
   facet normal -0.1225 0.6937 0.7098
      outer loop
         vertex 8.8353 22.3467 4.5000
         vertex 10.0000 23.4955 3.5045
         vertex 8.5803 23.2983 3.5148
      endloop
   endfacet
   facet normal 0.1225 0.6937 0.7098
      outer loop
         vertex 10.0000 22.5000 4.5000
         vertex 11.1647 22.3467 4.5000
         vertex 11.4197 23.2983 3.5148
      endloop
   endfacet
   facet normal 0.0612 0.7017 0.7098
      outer loop
         vertex 10.0000 22.5000 4.5000
         vertex 11.4197 23.2983 3.5148
         vertex 10.0000 23.4955 3.5045
      endloop
   endfacet
   facet normal -0.2408 0.6620 0.7098
      outer loop
         vertex 7.7500 21.8971 4.5000
         vertex 8.8353 22.3467 4.5000
         vertex 8.5803 23.2983 3.5148
      endloop
   endfacet
   facet normal -0.2978 0.6383 0.7098
      outer loop
         vertex 7.7500 21.8971 4.5000
         vertex 8.5803 23.2983 3.5148
         vertex 7.2725 22.7242 3.5449
      endloop
   endfacet
   facet normal 0.6998 0.1015 0.7071
      outer loop
         vertex 14.4534 18.6457 4.5000
         vertex 16.5045 4.5000 4.5000
         vertex 15.1927 18.7529 3.7530
      endloop
   endfacet
   facet normal -0.5771 0.4039 0.7098
      outer loop
         vertex 6.1760 21.8240 3.5921
         vertex 5.3688 20.6738 3.6524
         vertex 6.1029 20.2500 4.5000
      endloop
   endfacet
   facet normal -0.5395 0.4529 0.7098
      outer loop
         vertex 6.1760 21.8240 3.5921
         vertex 6.1029 20.2500 4.5000
         vertex 6.8180 21.1820 4.5000
      endloop
   endfacet
   facet normal -0.4039 0.5771 0.7098
      outer loop
         vertex 7.7500 21.8971 4.5000
         vertex 7.2725 22.7242 3.5449
         vertex 6.1760 21.8240 3.5921
      endloop
   endfacet
   facet normal -0.4529 0.5395 0.7098
      outer loop
         vertex 7.7500 21.8971 4.5000
         vertex 6.1760 21.8240 3.5921
         vertex 6.8180 21.1820 4.5000
      endloop
   endfacet
   facet normal 0.6879 0.1643 0.7070
      outer loop
         vertex 14.3467 19.1647 4.5000
         vertex 14.4534 18.6457 4.5000
         vertex 15.1927 18.7529 3.7530
      endloop
   endfacet
   facet normal 0.6822 0.1860 0.7071
      outer loop
         vertex 14.3467 19.1647 4.5000
         vertex 15.1927 18.7529 3.7530
         vertex 15.0992 19.3663 3.7209
      endloop
   endfacet
   facet normal -0.6998 0.1015 0.7071
      outer loop
         vertex 3.4955 4.5000 4.5000
         vertex 5.5466 18.6457 4.5000
         vertex 4.8073 18.7529 3.7530
      endloop
   endfacet
   facet normal 0.6568 0.2569 0.7090
      outer loop
         vertex 13.8971 20.2500 4.5000
         vertex 14.3467 19.1647 4.5000
         vertex 15.0992 19.3663 3.7209
      endloop
   endfacet
   facet normal 0.6355 0.3057 0.7090
      outer loop
         vertex 13.8971 20.2500 4.5000
         vertex 15.0992 19.3663 3.7209
         vertex 14.6312 20.6738 3.6524
      endloop
   endfacet
   facet normal -0.6568 0.2569 0.7090
      outer loop
         vertex 5.3688 20.6738 3.6524
         vertex 4.9008 19.3663 3.7209
         vertex 5.6533 19.1647 4.5000
      endloop
   endfacet
   facet normal -0.6355 0.3057 0.7090
      outer loop
         vertex 5.3688 20.6738 3.6524
         vertex 5.6533 19.1647 4.5000
         vertex 6.1029 20.2500 4.5000
      endloop
   endfacet
   facet normal 0.5395 0.4529 0.7098
      outer loop
         vertex 14.6312 20.6738 3.6524
         vertex 13.8240 21.8240 3.5921
         vertex 13.1820 21.1820 4.5000
      endloop
   endfacet
   facet normal 0.5771 0.4039 0.7098
      outer loop
         vertex 14.6312 20.6738 3.6524
         vertex 13.1820 21.1820 4.5000
         vertex 13.8971 20.2500 4.5000
      endloop
   endfacet
   facet normal -0.6879 0.1643 0.7070
      outer loop
         vertex 4.9008 19.3663 3.7209
         vertex 4.8073 18.7529 3.7530
         vertex 5.5466 18.6457 4.5000
      endloop
   endfacet
   facet normal -0.6822 0.1860 0.7071
      outer loop
         vertex 4.9008 19.3663 3.7209
         vertex 5.5466 18.6457 4.5000
         vertex 5.6533 19.1647 4.5000
      endloop
   endfacet
   facet normal 0.4039 0.5771 0.7098
      outer loop
         vertex 13.8240 21.8240 3.5921
         vertex 12.7275 22.7242 3.5449
         vertex 12.2500 21.8971 4.5000
      endloop
   endfacet
   facet normal 0.4529 0.5395 0.7098
      outer loop
         vertex 13.8240 21.8240 3.5921
         vertex 12.2500 21.8971 4.5000
         vertex 13.1820 21.1820 4.5000
      endloop
   endfacet
   facet normal 0.2408 0.6620 0.7098
      outer loop
         vertex 11.4197 23.2983 3.5148
         vertex 11.1647 22.3467 4.5000
         vertex 12.2500 21.8971 4.5000
      endloop
   endfacet
   facet normal 0.2978 0.6383 0.7098
      outer loop
         vertex 11.4197 23.2983 3.5148
         vertex 12.2500 21.8971 4.5000
         vertex 12.7275 22.7242 3.5449
      endloop
   endfacet
   facet normal -1.0000 0.0000 0.0000
      outer loop
         vertex 7.0000 4.2887 -0.0000
         vertex 7.0000 12.7113 -0.0000
         vertex 7.0000 12.1340 -1.0000
      endloop
   endfacet
   facet normal -1.0000 0.0000 0.0000
      outer loop
         vertex 7.0000 4.2887 -0.0000
         vertex 7.0000 12.1340 -1.0000
         vertex 7.0000 4.8660 -1.0000
      endloop
   endfacet
   facet normal -1.0000 0.0000 0.0000
      outer loop
         vertex 7.0000 24.3660 -1.0000
         vertex 7.0000 23.7887 -0.0000
         vertex 7.0000 26.2113 -0.0000
      endloop
   endfacet
   facet normal -1.0000 0.0000 0.0000
      outer loop
         vertex 7.0000 24.3660 -1.0000
         vertex 7.0000 26.2113 -0.0000
         vertex 7.0000 25.6340 -1.0000
      endloop
   endfacet
   facet normal 1.0000 0.0000 0.0000
      outer loop
         vertex 13.0000 12.7113 -0.0000
         vertex 13.0000 4.2887 -0.0000
         vertex 13.0000 4.8660 -1.0000
      endloop
   endfacet
   facet normal 1.0000 0.0000 0.0000
      outer loop
         vertex 13.0000 12.7113 -0.0000
         vertex 13.0000 4.8660 -1.0000
         vertex 13.0000 12.1340 -1.0000
      endloop
   endfacet
   facet normal 1.0000 0.0000 0.0000
      outer loop
         vertex 13.0000 24.3660 -1.0000
         vertex 13.0000 25.6340 -1.0000
         vertex 13.0000 26.2113 -0.0000
      endloop
   endfacet
   facet normal 1.0000 0.0000 0.0000
      outer loop
         vertex 13.0000 24.3660 -1.0000
         vertex 13.0000 26.2113 -0.0000
         vertex 13.0000 23.7887 -0.0000
      endloop
   endfacet
   facet normal 0.0000 0.0000 -1.0000
      outer loop
         vertex 13.0000 4.8660 -1.0000
         vertex 7.0000 4.8660 -1.0000
         vertex 7.0000 12.1340 -1.0000
      endloop
   endfacet
   facet normal 0.0000 0.0000 -1.0000
      outer loop
         vertex 13.0000 4.8660 -1.0000
         vertex 7.0000 12.1340 -1.0000
         vertex 13.0000 12.1340 -1.0000
      endloop
   endfacet
   facet normal 0.0000 0.0000 -1.0000
      outer loop
         vertex 7.0000 24.3660 -1.0000
         vertex 7.0000 25.6340 -1.0000
         vertex 13.0000 25.6340 -1.0000
      endloop
   endfacet
   facet normal 0.0000 0.0000 -1.0000
      outer loop
         vertex 7.0000 24.3660 -1.0000
         vertex 13.0000 25.6340 -1.0000
         vertex 13.0000 24.3660 -1.0000
      endloop
   endfacet
   facet normal 0.0000 -0.8660 -0.5000
      outer loop
         vertex 13.0000 23.7887 -0.0000
         vertex 7.0000 23.7887 -0.0000
         vertex 7.0000 24.3660 -1.0000
      endloop
   endfacet
   facet normal 0.0000 -0.8660 -0.5000
      outer loop
         vertex 13.0000 23.7887 -0.0000
         vertex 7.0000 24.3660 -1.0000
         vertex 13.0000 24.3660 -1.0000
      endloop
   endfacet
   facet normal 0.0000 0.8660 -0.5000
      outer loop
         vertex 13.0000 26.2113 -0.0000
         vertex 13.0000 25.6340 -1.0000
         vertex 7.0000 25.6340 -1.0000
      endloop
   endfacet
   facet normal 0.0000 0.8660 -0.5000
      outer loop
         vertex 13.0000 26.2113 -0.0000
         vertex 7.0000 25.6340 -1.0000
         vertex 7.0000 26.2113 -0.0000
      endloop
   endfacet
   facet normal 0.0000 -0.8660 -0.5000
      outer loop
         vertex 13.0000 4.8660 -1.0000
         vertex 13.0000 4.2887 -0.0000
         vertex 7.0000 4.2887 -0.0000
      endloop
   endfacet
   facet normal 0.0000 -0.8660 -0.5000
      outer loop
         vertex 13.0000 4.8660 -1.0000
         vertex 7.0000 4.2887 -0.0000
         vertex 7.0000 4.8660 -1.0000
      endloop
   endfacet
   facet normal 0.0000 0.8660 -0.5000
      outer loop
         vertex 7.0000 12.7113 -0.0000
         vertex 13.0000 12.7113 -0.0000
         vertex 13.0000 12.1340 -1.0000
      endloop
   endfacet
   facet normal 0.0000 0.8660 -0.5000
      outer loop
         vertex 7.0000 12.7113 -0.0000
         vertex 13.0000 12.1340 -1.0000
         vertex 7.0000 12.1340 -1.0000
      endloop
   endfacet
   facet normal 0.0000 0.0224 0.9997
      outer loop
         vertex 0.0000 3.4921 20.0000
         vertex 20.0000 3.4921 20.0000
         vertex 20.0000 3.5257 19.9994
      endloop
   endfacet
   facet normal 0.0000 0.0280 0.9996
      outer loop
         vertex 0.0000 3.4921 20.0000
         vertex 20.0000 3.5257 19.9994
         vertex 0.0000 3.5257 19.9994
      endloop
   endfacet
   facet normal 0.0000 0.0000 1.0000
      outer loop
         vertex 0.0000 0.0000 20.0000
         vertex 20.0000 0.0000 20.0000
         vertex 20.0000 3.4921 20.0000
      endloop
   endfacet
   facet normal 0.0000 0.0000 1.0000
      outer loop
         vertex 0.0000 0.0000 20.0000
         vertex 20.0000 3.4921 20.0000
         vertex 0.0000 3.4921 20.0000
      endloop
   endfacet
   facet normal 0.0000 -1.0000 0.0000
      outer loop
         vertex 12.7673 -1.0000 12.7673
         vertex 10.9401 -1.0000 12.7673
         vertex 10.9401 -1.0000 12.7101
      endloop
   endfacet
   facet normal 0.0000 -1.0000 0.0000
      outer loop
         vertex 12.7673 -1.0000 12.7673
         vertex 10.9401 -1.0000 12.7101
         vertex 11.4441 -1.0000 12.5013
      endloop
   endfacet
   facet normal 0.0000 -1.0000 0.0000
      outer loop
         vertex 12.7673 -1.0000 12.7673
         vertex 11.4441 -1.0000 12.5013
         vertex 12.0423 -1.0000 12.0423
      endloop
   endfacet
   facet normal 0.0000 -1.0000 0.0000
      outer loop
         vertex 12.7673 -1.0000 12.7673
         vertex 12.0423 -1.0000 12.0423
         vertex 12.5013 -1.0000 11.4441
      endloop
   endfacet
   facet normal 0.0000 -1.0000 0.0000
      outer loop
         vertex 12.7673 -1.0000 12.7673
         vertex 12.5013 -1.0000 11.4441
         vertex 12.7101 -1.0000 10.9401
      endloop
   endfacet
   facet normal 0.0000 -1.0000 0.0000
      outer loop
         vertex 12.7673 -1.0000 12.7673
         vertex 12.7101 -1.0000 10.9401
         vertex 12.7673 -1.0000 10.9401
      endloop
   endfacet
   facet normal 0.0000 -1.0000 0.0000
      outer loop
         vertex 12.7673 -1.0000 7.2327
         vertex 12.7673 -1.0000 9.0599
         vertex 12.7101 -1.0000 9.0599
      endloop
   endfacet
   facet normal 0.0000 -1.0000 0.0000
      outer loop
         vertex 12.7673 -1.0000 7.2327
         vertex 12.7101 -1.0000 9.0599
         vertex 12.5013 -1.0000 8.5559
      endloop
   endfacet
   facet normal 0.0000 -1.0000 0.0000
      outer loop
         vertex 12.7673 -1.0000 7.2327
         vertex 12.5013 -1.0000 8.5559
         vertex 12.0423 -1.0000 7.9577
      endloop
   endfacet
   facet normal 0.0000 -1.0000 0.0000
      outer loop
         vertex 12.7673 -1.0000 7.2327
         vertex 12.0423 -1.0000 7.9577
         vertex 11.4441 -1.0000 7.4987
      endloop
   endfacet
   facet normal 0.0000 -1.0000 0.0000
      outer loop
         vertex 12.7673 -1.0000 7.2327
         vertex 11.4441 -1.0000 7.4987
         vertex 10.9401 -1.0000 7.2899
      endloop
   endfacet
   facet normal 0.0000 -1.0000 0.0000
      outer loop
         vertex 12.7673 -1.0000 7.2327
         vertex 10.9401 -1.0000 7.2899
         vertex 10.9401 -1.0000 7.2327
      endloop
   endfacet
   facet normal 0.0000 -1.0000 0.0000
      outer loop
         vertex 7.2327 -1.0000 12.7673
         vertex 7.2327 -1.0000 10.9401
         vertex 7.2899 -1.0000 10.9401
      endloop
   endfacet
   facet normal 0.0000 -1.0000 0.0000
      outer loop
         vertex 7.2327 -1.0000 12.7673
         vertex 7.2899 -1.0000 10.9401
         vertex 7.4987 -1.0000 11.4441
      endloop
   endfacet
   facet normal 0.0000 -1.0000 0.0000
      outer loop
         vertex 7.2327 -1.0000 12.7673
         vertex 7.4987 -1.0000 11.4441
         vertex 7.9577 -1.0000 12.0423
      endloop
   endfacet
   facet normal 0.0000 -1.0000 0.0000
      outer loop
         vertex 7.2327 -1.0000 12.7673
         vertex 7.9577 -1.0000 12.0423
         vertex 8.5559 -1.0000 12.5013
      endloop
   endfacet
   facet normal 0.0000 -1.0000 0.0000
      outer loop
         vertex 7.2327 -1.0000 12.7673
         vertex 8.5559 -1.0000 12.5013
         vertex 9.0599 -1.0000 12.7101
      endloop
   endfacet
   facet normal 0.0000 -1.0000 0.0000
      outer loop
         vertex 7.2327 -1.0000 12.7673
         vertex 9.0599 -1.0000 12.7101
         vertex 9.0599 -1.0000 12.7673
      endloop
   endfacet
   facet normal 0.0000 -1.0000 0.0000
      outer loop
         vertex 7.2327 -1.0000 7.2327
         vertex 9.0599 -1.0000 7.2327
         vertex 9.0599 -1.0000 7.2899
      endloop
   endfacet
   facet normal 0.0000 -1.0000 0.0000
      outer loop
         vertex 7.2327 -1.0000 7.2327
         vertex 9.0599 -1.0000 7.2899
         vertex 8.5559 -1.0000 7.4987
      endloop
   endfacet
   facet normal 0.0000 -1.0000 0.0000
      outer loop
         vertex 7.2327 -1.0000 7.2327
         vertex 8.5559 -1.0000 7.4987
         vertex 7.9577 -1.0000 7.9577
      endloop
   endfacet
   facet normal 0.0000 -1.0000 0.0000
      outer loop
         vertex 7.2327 -1.0000 7.2327
         vertex 7.9577 -1.0000 7.9577
         vertex 7.4987 -1.0000 8.5559
      endloop
   endfacet
   facet normal 0.0000 -1.0000 0.0000
      outer loop
         vertex 7.2327 -1.0000 7.2327
         vertex 7.4987 -1.0000 8.5559
         vertex 7.2899 -1.0000 9.0599
      endloop
   endfacet
   facet normal 0.0000 -1.0000 0.0000
      outer loop
         vertex 7.2327 -1.0000 7.2327
         vertex 7.2899 -1.0000 9.0599
         vertex 7.2327 -1.0000 9.0599
      endloop
   endfacet
   facet normal -0.9945 -0.1045 -0.0000
      outer loop
         vertex 7.2327 -1.0000 10.9401
         vertex 7.2327 -1.0000 12.7673
         vertex 7.1276 0.0000 12.8724
      endloop
   endfacet
   facet normal -0.9945 -0.1045 -0.0000
      outer loop
         vertex 7.2327 -1.0000 10.9401
         vertex 7.1276 0.0000 12.8724
         vertex 7.1276 0.0000 10.8350
      endloop
   endfacet
   facet normal -0.9945 -0.1045 -0.0000
      outer loop
         vertex 7.2327 -1.0000 7.2327
         vertex 7.2327 -1.0000 9.0599
         vertex 7.1276 0.0000 9.1650
      endloop
   endfacet
   facet normal -0.9945 -0.1045 -0.0000
      outer loop
         vertex 7.2327 -1.0000 7.2327
         vertex 7.1276 0.0000 9.1650
         vertex 7.1276 0.0000 7.1276
      endloop
   endfacet
   facet normal 0.9945 -0.1045 0.0000
      outer loop
         vertex 12.7673 -1.0000 10.9401
         vertex 12.8724 0.0000 10.8350
         vertex 12.8724 0.0000 12.8724
      endloop
   endfacet
   facet normal 0.9945 -0.1045 0.0000
      outer loop
         vertex 12.7673 -1.0000 10.9401
         vertex 12.8724 0.0000 12.8724
         vertex 12.7673 -1.0000 12.7673
      endloop
   endfacet
   facet normal 0.9945 -0.1045 0.0000
      outer loop
         vertex 12.7673 -1.0000 9.0599
         vertex 12.7673 -1.0000 7.2327
         vertex 12.8724 0.0000 7.1276
      endloop
   endfacet
   facet normal 0.9945 -0.1045 0.0000
      outer loop
         vertex 12.7673 -1.0000 9.0599
         vertex 12.8724 0.0000 7.1276
         vertex 12.8724 0.0000 9.1650
      endloop
   endfacet
   facet normal -0.0000 -0.1045 -0.9945
      outer loop
         vertex 12.7673 -1.0000 7.2327
         vertex 10.9401 -1.0000 7.2327
         vertex 10.8350 0.0000 7.1276
      endloop
   endfacet
   facet normal -0.0000 -0.1045 -0.9945
      outer loop
         vertex 12.7673 -1.0000 7.2327
         vertex 10.8350 0.0000 7.1276
         vertex 12.8724 0.0000 7.1276
      endloop
   endfacet
   facet normal -0.0000 -0.1045 -0.9945
      outer loop
         vertex 9.0599 -1.0000 7.2327
         vertex 7.2327 -1.0000 7.2327
         vertex 7.1276 0.0000 7.1276
      endloop
   endfacet
   facet normal -0.0000 -0.1045 -0.9945
      outer loop
         vertex 9.0599 -1.0000 7.2327
         vertex 7.1276 0.0000 7.1276
         vertex 9.1650 0.0000 7.1276
      endloop
   endfacet
   facet normal 0.0000 -0.1045 0.9945
      outer loop
         vertex 10.9401 -1.0000 12.7673
         vertex 12.7673 -1.0000 12.7673
         vertex 12.8724 0.0000 12.8724
      endloop
   endfacet
   facet normal 0.0000 -0.1045 0.9945
      outer loop
         vertex 10.9401 -1.0000 12.7673
         vertex 12.8724 0.0000 12.8724
         vertex 10.8350 0.0000 12.8724
      endloop
   endfacet
   facet normal 0.0000 -0.1045 0.9945
      outer loop
         vertex 7.2327 -1.0000 12.7673
         vertex 9.0599 -1.0000 12.7673
         vertex 9.1650 0.0000 12.8724
      endloop
   endfacet
   facet normal 0.0000 -0.1045 0.9945
      outer loop
         vertex 7.2327 -1.0000 12.7673
         vertex 9.1650 0.0000 12.8724
         vertex 7.1276 0.0000 12.8724
      endloop
   endfacet
   facet normal 0.9945 -0.1045 0.0000
      outer loop
         vertex 9.0599 -1.0000 7.2327
         vertex 9.1650 0.0000 7.1276
         vertex 9.1650 0.0000 7.3026
      endloop
   endfacet
   facet normal 0.9945 -0.1045 0.0000
      outer loop
         vertex 9.0599 -1.0000 7.2327
         vertex 9.1650 0.0000 7.3026
         vertex 9.0599 -1.0000 7.2899
      endloop
   endfacet
   facet normal 0.9945 -0.1045 0.0000
      outer loop
         vertex 9.1650 0.0000 12.6974
         vertex 9.1650 0.0000 12.8724
         vertex 9.0599 -1.0000 12.7673
      endloop
   endfacet
   facet normal 0.9945 -0.1045 0.0000
      outer loop
         vertex 9.1650 0.0000 12.6974
         vertex 9.0599 -1.0000 12.7673
         vertex 9.0599 -1.0000 12.7101
      endloop
   endfacet
   facet normal 0.0000 -0.1045 0.9945
      outer loop
         vertex 7.3026 0.0000 9.1650
         vertex 7.1276 0.0000 9.1650
         vertex 7.2327 -1.0000 9.0599
      endloop
   endfacet
   facet normal 0.0000 -0.1045 0.9945
      outer loop
         vertex 7.3026 0.0000 9.1650
         vertex 7.2327 -1.0000 9.0599
         vertex 7.2899 -1.0000 9.0599
      endloop
   endfacet
   facet normal -0.0000 -0.1045 -0.9945
      outer loop
         vertex 7.2327 -1.0000 10.9401
         vertex 7.1276 0.0000 10.8350
         vertex 7.3026 0.0000 10.8350
      endloop
   endfacet
   facet normal -0.0000 -0.1045 -0.9945
      outer loop
         vertex 7.2327 -1.0000 10.9401
         vertex 7.3026 0.0000 10.8350
         vertex 7.2899 -1.0000 10.9401
      endloop
   endfacet
   facet normal -0.9945 -0.1045 -0.0000
      outer loop
         vertex 10.9401 -1.0000 7.2327
         vertex 10.9401 -1.0000 7.2899
         vertex 10.8350 0.0000 7.3026
      endloop
   endfacet
   facet normal -0.9945 -0.1045 -0.0000
      outer loop
         vertex 10.9401 -1.0000 7.2327
         vertex 10.8350 0.0000 7.3026
         vertex 10.8350 0.0000 7.1276
      endloop
   endfacet
   facet normal -0.9945 -0.1045 -0.0000
      outer loop
         vertex 10.9401 -1.0000 12.7673
         vertex 10.8350 0.0000 12.8724
         vertex 10.8350 0.0000 12.6974
      endloop
   endfacet
   facet normal -0.9945 -0.1045 -0.0000
      outer loop
         vertex 10.9401 -1.0000 12.7673
         vertex 10.8350 0.0000 12.6974
         vertex 10.9401 -1.0000 12.7101
      endloop
   endfacet
   facet normal 0.0000 -0.1045 0.9945
      outer loop
         vertex 12.7673 -1.0000 9.0599
         vertex 12.8724 0.0000 9.1650
         vertex 12.6974 0.0000 9.1650
      endloop
   endfacet
   facet normal 0.0000 -0.1045 0.9945
      outer loop
         vertex 12.7673 -1.0000 9.0599
         vertex 12.6974 0.0000 9.1650
         vertex 12.7101 -1.0000 9.0599
      endloop
   endfacet
   facet normal -0.0000 -0.1045 -0.9945
      outer loop
         vertex 12.6974 0.0000 10.8350
         vertex 12.8724 0.0000 10.8350
         vertex 12.7673 -1.0000 10.9401
      endloop
   endfacet
   facet normal -0.0000 -0.1045 -0.9945
      outer loop
         vertex 12.6974 0.0000 10.8350
         vertex 12.7673 -1.0000 10.9401
         vertex 12.7101 -1.0000 10.9401
      endloop
   endfacet
endsolid
