solid OpenSCAD_Model
  facet normal -0.994522 0 0.10453
    outer loop
      vertex 55 -33 216.7
      vertex 55.2841 -28 219.403
      vertex 55 -28 216.7
    endloop
  endfacet
  facet normal -0.994522 0 0.10453
    outer loop
      vertex 55.2841 -28 219.403
      vertex 55 -33 216.7
      vertex 55.2841 -33 219.403
    endloop
  endfacet
  facet normal -0.951069 0 0.308978
    outer loop
      vertex 55.2841 -33 219.403
      vertex 56.1239 -28 221.988
      vertex 55.2841 -28 219.403
    endloop
  endfacet
  facet normal -0.951069 0 0.308978
    outer loop
      vertex 56.1239 -28 221.988
      vertex 55.2841 -33 219.403
      vertex 56.1239 -33 221.988
    endloop
  endfacet
  facet normal -0.865962 0 0.500109
    outer loop
      vertex 56.1239 -33 221.988
      vertex 57.4828 -28 224.341
      vertex 56.1239 -28 221.988
    endloop
  endfacet
  facet normal -0.865962 0 0.500109
    outer loop
      vertex 57.4828 -28 224.341
      vertex 56.1239 -33 221.988
      vertex 57.4828 -33 224.341
    endloop
  endfacet
  facet normal -0.743203 0 0.669066
    outer loop
      vertex 57.4828 -33 224.341
      vertex 59.3013 -28 226.361
      vertex 57.4828 -28 224.341
    endloop
  endfacet
  facet normal -0.743203 0 0.669066
    outer loop
      vertex 59.3013 -28 226.361
      vertex 57.4828 -33 224.341
      vertex 59.3013 -33 226.361
    endloop
  endfacet
  facet normal -0.587677 0 0.809096
    outer loop
      vertex 59.3013 -28 226.361
      vertex 61.5 -33 227.958
      vertex 61.5 -28 227.958
    endloop
  endfacet
  facet normal -0.587677 0 0.809096
    outer loop
      vertex 61.5 -33 227.958
      vertex 59.3013 -28 226.361
      vertex 59.3013 -33 226.361
    endloop
  endfacet
  facet normal -0.406917 0 0.913465
    outer loop
      vertex 61.5 -28 227.958
      vertex 63.9828 -33 229.064
      vertex 63.9828 -28 229.064
    endloop
  endfacet
  facet normal -0.406917 0 0.913465
    outer loop
      vertex 63.9828 -33 229.064
      vertex 61.5 -28 227.958
      vertex 61.5 -33 227.958
    endloop
  endfacet
  facet normal -0.207898 0 0.978151
    outer loop
      vertex 63.9828 -28 229.064
      vertex 66.6411 -33 229.629
      vertex 66.6411 -28 229.629
    endloop
  endfacet
  facet normal -0.207898 0 0.978151
    outer loop
      vertex 66.6411 -33 229.629
      vertex 63.9828 -28 229.064
      vertex 63.9828 -33 229.064
    endloop
  endfacet
  facet normal -0 0 1
    outer loop
      vertex 66.6411 -28 229.629
      vertex 69.3589 -33 229.629
      vertex 69.3589 -28 229.629
    endloop
  endfacet
  facet normal 0 0 1
    outer loop
      vertex 69.3589 -33 229.629
      vertex 66.6411 -28 229.629
      vertex 66.6411 -33 229.629
    endloop
  endfacet
  facet normal 0.207898 0 0.978151
    outer loop
      vertex 69.3589 -28 229.629
      vertex 72.0172 -33 229.064
      vertex 72.0172 -28 229.064
    endloop
  endfacet
  facet normal 0.207898 0 0.978151
    outer loop
      vertex 72.0172 -33 229.064
      vertex 69.3589 -28 229.629
      vertex 69.3589 -33 229.629
    endloop
  endfacet
  facet normal 0.406917 0 0.913465
    outer loop
      vertex 72.0172 -28 229.064
      vertex 74.5 -33 227.958
      vertex 74.5 -28 227.958
    endloop
  endfacet
  facet normal 0.406917 0 0.913465
    outer loop
      vertex 74.5 -33 227.958
      vertex 72.0172 -28 229.064
      vertex 72.0172 -33 229.064
    endloop
  endfacet
  facet normal 0.587677 0 0.809096
    outer loop
      vertex 74.5 -28 227.958
      vertex 76.6987 -33 226.361
      vertex 76.6987 -28 226.361
    endloop
  endfacet
  facet normal 0.587677 0 0.809096
    outer loop
      vertex 76.6987 -33 226.361
      vertex 74.5 -28 227.958
      vertex 74.5 -33 227.958
    endloop
  endfacet
  facet normal 0.743203 -0 0.669066
    outer loop
      vertex 76.6987 -33 226.361
      vertex 78.5172 -28 224.341
      vertex 76.6987 -28 226.361
    endloop
  endfacet
  facet normal 0.743203 0 0.669066
    outer loop
      vertex 78.5172 -28 224.341
      vertex 76.6987 -33 226.361
      vertex 78.5172 -33 224.341
    endloop
  endfacet
  facet normal 0.865962 -0 0.500109
    outer loop
      vertex 78.5172 -33 224.341
      vertex 79.8761 -28 221.988
      vertex 78.5172 -28 224.341
    endloop
  endfacet
  facet normal 0.865962 0 0.500109
    outer loop
      vertex 79.8761 -28 221.988
      vertex 78.5172 -33 224.341
      vertex 79.8761 -33 221.988
    endloop
  endfacet
  facet normal 0.951069 -0 0.308978
    outer loop
      vertex 79.8761 -33 221.988
      vertex 80.7159 -28 219.403
      vertex 79.8761 -28 221.988
    endloop
  endfacet
  facet normal 0.951069 0 0.308978
    outer loop
      vertex 80.7159 -28 219.403
      vertex 79.8761 -33 221.988
      vertex 80.7159 -33 219.403
    endloop
  endfacet
  facet normal 0.994522 -0 0.10453
    outer loop
      vertex 80.7159 -33 219.403
      vertex 81 -28 216.7
      vertex 80.7159 -28 219.403
    endloop
  endfacet
  facet normal 0.994522 0 0.10453
    outer loop
      vertex 81 -28 216.7
      vertex 80.7159 -33 219.403
      vertex 81 -33 216.7
    endloop
  endfacet
  facet normal 0.994522 0 -0.10453
    outer loop
      vertex 81 -33 216.7
      vertex 80.7159 -28 213.997
      vertex 81 -28 216.7
    endloop
  endfacet
  facet normal 0.994522 0 -0.10453
    outer loop
      vertex 80.7159 -28 213.997
      vertex 81 -33 216.7
      vertex 80.7159 -33 213.997
    endloop
  endfacet
  facet normal 0.951069 0 -0.308978
    outer loop
      vertex 80.7159 -33 213.997
      vertex 79.8761 -28 211.412
      vertex 80.7159 -28 213.997
    endloop
  endfacet
  facet normal 0.951069 0 -0.308978
    outer loop
      vertex 79.8761 -28 211.412
      vertex 80.7159 -33 213.997
      vertex 79.8761 -33 211.412
    endloop
  endfacet
  facet normal 0.865962 0 -0.500109
    outer loop
      vertex 79.8761 -33 211.412
      vertex 78.5172 -28 209.059
      vertex 79.8761 -28 211.412
    endloop
  endfacet
  facet normal 0.865962 0 -0.500109
    outer loop
      vertex 78.5172 -28 209.059
      vertex 79.8761 -33 211.412
      vertex 78.5172 -33 209.059
    endloop
  endfacet
  facet normal 0.743203 0 -0.669066
    outer loop
      vertex 78.5172 -33 209.059
      vertex 76.6987 -28 207.039
      vertex 78.5172 -28 209.059
    endloop
  endfacet
  facet normal 0.743203 0 -0.669066
    outer loop
      vertex 76.6987 -28 207.039
      vertex 78.5172 -33 209.059
      vertex 76.6987 -33 207.039
    endloop
  endfacet
  facet normal 0.587677 0 -0.809096
    outer loop
      vertex 74.5 -33 205.442
      vertex 76.6987 -28 207.039
      vertex 76.6987 -33 207.039
    endloop
  endfacet
  facet normal 0.587677 0 -0.809096
    outer loop
      vertex 76.6987 -28 207.039
      vertex 74.5 -33 205.442
      vertex 74.5 -28 205.442
    endloop
  endfacet
  facet normal 0.406917 0 -0.913465
    outer loop
      vertex 72.0172 -33 204.336
      vertex 74.5 -28 205.442
      vertex 74.5 -33 205.442
    endloop
  endfacet
  facet normal 0.406917 0 -0.913465
    outer loop
      vertex 74.5 -28 205.442
      vertex 72.0172 -33 204.336
      vertex 72.0172 -28 204.336
    endloop
  endfacet
  facet normal 0.207898 0 -0.978151
    outer loop
      vertex 69.3589 -33 203.771
      vertex 72.0172 -28 204.336
      vertex 72.0172 -33 204.336
    endloop
  endfacet
  facet normal 0.207898 0 -0.978151
    outer loop
      vertex 72.0172 -28 204.336
      vertex 69.3589 -33 203.771
      vertex 69.3589 -28 203.771
    endloop
  endfacet
  facet normal 0 0 -1
    outer loop
      vertex 66.6411 -33 203.771
      vertex 69.3589 -28 203.771
      vertex 69.3589 -33 203.771
    endloop
  endfacet
  facet normal -0 0 -1
    outer loop
      vertex 69.3589 -28 203.771
      vertex 66.6411 -33 203.771
      vertex 66.6411 -28 203.771
    endloop
  endfacet
  facet normal -0.207898 0 -0.978151
    outer loop
      vertex 63.9828 -33 204.336
      vertex 66.6411 -28 203.771
      vertex 66.6411 -33 203.771
    endloop
  endfacet
  facet normal -0.207898 0 -0.978151
    outer loop
      vertex 66.6411 -28 203.771
      vertex 63.9828 -33 204.336
      vertex 63.9828 -28 204.336
    endloop
  endfacet
  facet normal -0.406917 0 -0.913465
    outer loop
      vertex 61.5 -33 205.442
      vertex 63.9828 -28 204.336
      vertex 63.9828 -33 204.336
    endloop
  endfacet
  facet normal -0.406917 0 -0.913465
    outer loop
      vertex 63.9828 -28 204.336
      vertex 61.5 -33 205.442
      vertex 61.5 -28 205.442
    endloop
  endfacet
  facet normal -0.587677 0 -0.809096
    outer loop
      vertex 59.3013 -33 207.039
      vertex 61.5 -28 205.442
      vertex 61.5 -33 205.442
    endloop
  endfacet
  facet normal -0.587677 0 -0.809096
    outer loop
      vertex 61.5 -28 205.442
      vertex 59.3013 -33 207.039
      vertex 59.3013 -28 207.039
    endloop
  endfacet
  facet normal -0.743203 0 -0.669066
    outer loop
      vertex 59.3013 -33 207.039
      vertex 57.4828 -28 209.059
      vertex 59.3013 -28 207.039
    endloop
  endfacet
  facet normal -0.743203 -0 -0.669066
    outer loop
      vertex 57.4828 -28 209.059
      vertex 59.3013 -33 207.039
      vertex 57.4828 -33 209.059
    endloop
  endfacet
  facet normal -0.865962 0 -0.500109
    outer loop
      vertex 57.4828 -33 209.059
      vertex 56.1239 -28 211.412
      vertex 57.4828 -28 209.059
    endloop
  endfacet
  facet normal -0.865962 -0 -0.500109
    outer loop
      vertex 56.1239 -28 211.412
      vertex 57.4828 -33 209.059
      vertex 56.1239 -33 211.412
    endloop
  endfacet
  facet normal -0.951069 0 -0.308978
    outer loop
      vertex 56.1239 -33 211.412
      vertex 55.2841 -28 213.997
      vertex 56.1239 -28 211.412
    endloop
  endfacet
  facet normal -0.951069 -0 -0.308978
    outer loop
      vertex 55.2841 -28 213.997
      vertex 56.1239 -33 211.412
      vertex 55.2841 -33 213.997
    endloop
  endfacet
  facet normal -0.994522 0 -0.10453
    outer loop
      vertex 55.2841 -33 213.997
      vertex 55 -28 216.7
      vertex 55.2841 -28 213.997
    endloop
  endfacet
  facet normal -0.994522 -0 -0.10453
    outer loop
      vertex 55 -28 216.7
      vertex 55.2841 -33 213.997
      vertex 55 -33 216.7
    endloop
  endfacet
  facet normal 0 -1 0
    outer loop
      vertex 63.9828 -33 229.064
      vertex 69.3589 -33 229.629
      vertex 66.6411 -33 229.629
    endloop
  endfacet
  facet normal 0 -1 0
    outer loop
      vertex 63.9828 -33 229.064
      vertex 72.0172 -33 229.064
      vertex 69.3589 -33 229.629
    endloop
  endfacet
  facet normal 0 -1 0
    outer loop
      vertex 61.5 -33 227.958
      vertex 72.0172 -33 229.064
      vertex 63.9828 -33 229.064
    endloop
  endfacet
  facet normal 0 -1 0
    outer loop
      vertex 61.5 -33 227.958
      vertex 74.5 -33 227.958
      vertex 72.0172 -33 229.064
    endloop
  endfacet
  facet normal 0 -1 0
    outer loop
      vertex 59.3013 -33 226.361
      vertex 74.5 -33 227.958
      vertex 61.5 -33 227.958
    endloop
  endfacet
  facet normal 0 -1 0
    outer loop
      vertex 59.3013 -33 226.361
      vertex 76.6987 -33 226.361
      vertex 74.5 -33 227.958
    endloop
  endfacet
  facet normal 0 -1 0
    outer loop
      vertex 57.4828 -33 224.341
      vertex 76.6987 -33 226.361
      vertex 59.3013 -33 226.361
    endloop
  endfacet
  facet normal 0 -1 0
    outer loop
      vertex 57.4828 -33 224.341
      vertex 78.5172 -33 224.341
      vertex 76.6987 -33 226.361
    endloop
  endfacet
  facet normal 0 -1 0
    outer loop
      vertex 56.1239 -33 221.988
      vertex 78.5172 -33 224.341
      vertex 57.4828 -33 224.341
    endloop
  endfacet
  facet normal 0 -1 0
    outer loop
      vertex 56.1239 -33 221.988
      vertex 79.8761 -33 221.988
      vertex 78.5172 -33 224.341
    endloop
  endfacet
  facet normal 0 -1 0
    outer loop
      vertex 55.2841 -33 219.403
      vertex 79.8761 -33 221.988
      vertex 56.1239 -33 221.988
    endloop
  endfacet
  facet normal 0 -1 0
    outer loop
      vertex 55.2841 -33 219.403
      vertex 80.7159 -33 219.403
      vertex 79.8761 -33 221.988
    endloop
  endfacet
  facet normal 0 -1 0
    outer loop
      vertex 55 -33 216.7
      vertex 80.7159 -33 219.403
      vertex 55.2841 -33 219.403
    endloop
  endfacet
  facet normal 0 -1 0
    outer loop
      vertex 55 -33 216.7
      vertex 81 -33 216.7
      vertex 80.7159 -33 219.403
    endloop
  endfacet
  facet normal 0 -1 0
    outer loop
      vertex 55.2841 -33 213.997
      vertex 81 -33 216.7
      vertex 55 -33 216.7
    endloop
  endfacet
  facet normal 0 -1 0
    outer loop
      vertex 55.2841 -33 213.997
      vertex 80.7159 -33 213.997
      vertex 81 -33 216.7
    endloop
  endfacet
  facet normal 0 -1 0
    outer loop
      vertex 56.1239 -33 211.412
      vertex 80.7159 -33 213.997
      vertex 55.2841 -33 213.997
    endloop
  endfacet
  facet normal 0 -1 0
    outer loop
      vertex 56.1239 -33 211.412
      vertex 79.8761 -33 211.412
      vertex 80.7159 -33 213.997
    endloop
  endfacet
  facet normal 0 -1 0
    outer loop
      vertex 57.4828 -33 209.059
      vertex 79.8761 -33 211.412
      vertex 56.1239 -33 211.412
    endloop
  endfacet
  facet normal 0 -1 0
    outer loop
      vertex 57.4828 -33 209.059
      vertex 78.5172 -33 209.059
      vertex 79.8761 -33 211.412
    endloop
  endfacet
  facet normal 0 -1 0
    outer loop
      vertex 59.3013 -33 207.039
      vertex 78.5172 -33 209.059
      vertex 57.4828 -33 209.059
    endloop
  endfacet
  facet normal 0 -1 0
    outer loop
      vertex 59.3013 -33 207.039
      vertex 76.6987 -33 207.039
      vertex 78.5172 -33 209.059
    endloop
  endfacet
  facet normal 0 -1 0
    outer loop
      vertex 61.5 -33 205.442
      vertex 76.6987 -33 207.039
      vertex 59.3013 -33 207.039
    endloop
  endfacet
  facet normal 0 -1 0
    outer loop
      vertex 61.5 -33 205.442
      vertex 74.5 -33 205.442
      vertex 76.6987 -33 207.039
    endloop
  endfacet
  facet normal 0 -1 0
    outer loop
      vertex 63.9828 -33 204.336
      vertex 74.5 -33 205.442
      vertex 61.5 -33 205.442
    endloop
  endfacet
  facet normal 0 -1 0
    outer loop
      vertex 63.9828 -33 204.336
      vertex 72.0172 -33 204.336
      vertex 74.5 -33 205.442
    endloop
  endfacet
  facet normal 0 -1 0
    outer loop
      vertex 66.6411 -33 203.771
      vertex 72.0172 -33 204.336
      vertex 63.9828 -33 204.336
    endloop
  endfacet
  facet normal 0 -1 0
    outer loop
      vertex 72.0172 -33 204.336
      vertex 66.6411 -33 203.771
      vertex 69.3589 -33 203.771
    endloop
  endfacet
  facet normal 0 1 0
    outer loop
      vertex 72.0172 -28 229.064
      vertex 66.6411 -28 229.629
      vertex 69.3589 -28 229.629
    endloop
  endfacet
  facet normal 0 1 0
    outer loop
      vertex 72.0172 -28 229.064
      vertex 63.9828 -28 229.064
      vertex 66.6411 -28 229.629
    endloop
  endfacet
  facet normal 0 1 0
    outer loop
      vertex 74.5 -28 227.958
      vertex 63.9828 -28 229.064
      vertex 72.0172 -28 229.064
    endloop
  endfacet
  facet normal 0 1 0
    outer loop
      vertex 74.5 -28 227.958
      vertex 61.5 -28 227.958
      vertex 63.9828 -28 229.064
    endloop
  endfacet
  facet normal 0 1 0
    outer loop
      vertex 76.6987 -28 226.361
      vertex 61.5 -28 227.958
      vertex 74.5 -28 227.958
    endloop
  endfacet
  facet normal 0 1 0
    outer loop
      vertex 76.6987 -28 226.361
      vertex 59.3013 -28 226.361
      vertex 61.5 -28 227.958
    endloop
  endfacet
  facet normal 0 1 0
    outer loop
      vertex 78.5172 -28 224.341
      vertex 59.3013 -28 226.361
      vertex 76.6987 -28 226.361
    endloop
  endfacet
  facet normal 0 1 0
    outer loop
      vertex 78.5172 -28 224.341
      vertex 57.4828 -28 224.341
      vertex 59.3013 -28 226.361
    endloop
  endfacet
  facet normal 0 1 0
    outer loop
      vertex 79.8761 -28 221.988
      vertex 57.4828 -28 224.341
      vertex 78.5172 -28 224.341
    endloop
  endfacet
  facet normal 0 1 0
    outer loop
      vertex 79.8761 -28 221.988
      vertex 56.1239 -28 221.988
      vertex 57.4828 -28 224.341
    endloop
  endfacet
  facet normal 0 1 0
    outer loop
      vertex 80.7159 -28 219.403
      vertex 56.1239 -28 221.988
      vertex 79.8761 -28 221.988
    endloop
  endfacet
  facet normal 0 1 0
    outer loop
      vertex 80.7159 -28 219.403
      vertex 55.2841 -28 219.403
      vertex 56.1239 -28 221.988
    endloop
  endfacet
  facet normal 0 1 0
    outer loop
      vertex 81 -28 216.7
      vertex 55.2841 -28 219.403
      vertex 80.7159 -28 219.403
    endloop
  endfacet
  facet normal 0 1 0
    outer loop
      vertex 81 -28 216.7
      vertex 55 -28 216.7
      vertex 55.2841 -28 219.403
    endloop
  endfacet
  facet normal 0 1 -0
    outer loop
      vertex 80.7159 -28 213.997
      vertex 55 -28 216.7
      vertex 81 -28 216.7
    endloop
  endfacet
  facet normal 0 1 0
    outer loop
      vertex 80.7159 -28 213.997
      vertex 55.2841 -28 213.997
      vertex 55 -28 216.7
    endloop
  endfacet
  facet normal 0 1 -0
    outer loop
      vertex 79.8761 -28 211.412
      vertex 55.2841 -28 213.997
      vertex 80.7159 -28 213.997
    endloop
  endfacet
  facet normal 0 1 0
    outer loop
      vertex 79.8761 -28 211.412
      vertex 56.1239 -28 211.412
      vertex 55.2841 -28 213.997
    endloop
  endfacet
  facet normal 0 1 -0
    outer loop
      vertex 78.5172 -28 209.059
      vertex 56.1239 -28 211.412
      vertex 79.8761 -28 211.412
    endloop
  endfacet
  facet normal 0 1 0
    outer loop
      vertex 78.5172 -28 209.059
      vertex 57.4828 -28 209.059
      vertex 56.1239 -28 211.412
    endloop
  endfacet
  facet normal 0 1 -0
    outer loop
      vertex 76.6987 -28 207.039
      vertex 57.4828 -28 209.059
      vertex 78.5172 -28 209.059
    endloop
  endfacet
  facet normal 0 1 0
    outer loop
      vertex 76.6987 -28 207.039
      vertex 59.3013 -28 207.039
      vertex 57.4828 -28 209.059
    endloop
  endfacet
  facet normal 0 1 -0
    outer loop
      vertex 74.5 -28 205.442
      vertex 59.3013 -28 207.039
      vertex 76.6987 -28 207.039
    endloop
  endfacet
  facet normal 0 1 0
    outer loop
      vertex 74.5 -28 205.442
      vertex 61.5 -28 205.442
      vertex 59.3013 -28 207.039
    endloop
  endfacet
  facet normal 0 1 -0
    outer loop
      vertex 72.0172 -28 204.336
      vertex 61.5 -28 205.442
      vertex 74.5 -28 205.442
    endloop
  endfacet
  facet normal 0 1 0
    outer loop
      vertex 72.0172 -28 204.336
      vertex 63.9828 -28 204.336
      vertex 61.5 -28 205.442
    endloop
  endfacet
  facet normal 0 1 -0
    outer loop
      vertex 69.3589 -28 203.771
      vertex 63.9828 -28 204.336
      vertex 72.0172 -28 204.336
    endloop
  endfacet
  facet normal 0 1 0
    outer loop
      vertex 63.9828 -28 204.336
      vertex 69.3589 -28 203.771
      vertex 66.6411 -28 203.771
    endloop
  endfacet
endsolid OpenSCAD_Model
