solid OpenSCAD_Model
  facet normal 1 -0 0
    outer loop
      vertex 188.5 -13 3
      vertex 188.5 85 0
      vertex 188.5 85 3
    endloop
  endfacet
  facet normal 1 0 0
    outer loop
      vertex 188.5 85 0
      vertex 188.5 -13 3
      vertex 188.5 -13 0
    endloop
  endfacet
  facet normal 0 0 1
    outer loop
      vertex 188.5 85 3
      vertex 181.85 40 3
      vertex 188.5 -13 3
    endloop
  endfacet
  facet normal 0 0 1
    outer loop
      vertex 188.5 85 3
      vertex 181.81 40.3846 3
      vertex 181.85 40 3
    endloop
  endfacet
  facet normal 0 0 1
    outer loop
      vertex 188.5 85 3
      vertex 181.69 40.7525 3
      vertex 181.81 40.3846 3
    endloop
  endfacet
  facet normal 0 0 1
    outer loop
      vertex 188.5 85 3
      vertex 181.497 41.0874 3
      vertex 181.69 40.7525 3
    endloop
  endfacet
  facet normal 0 0 1
    outer loop
      vertex 188.5 85 3
      vertex 181.238 41.3748 3
      vertex 181.497 41.0874 3
    endloop
  endfacet
  facet normal 0 0 1
    outer loop
      vertex 188.5 85 3
      vertex 180.925 41.6021 3
      vertex 181.238 41.3748 3
    endloop
  endfacet
  facet normal 0 0 1
    outer loop
      vertex 188.5 85 3
      vertex 180.572 41.7595 3
      vertex 180.925 41.6021 3
    endloop
  endfacet
  facet normal 0 0 1
    outer loop
      vertex 188.5 85 3
      vertex 180.193 41.8399 3
      vertex 180.572 41.7595 3
    endloop
  endfacet
  facet normal 0 0 1
    outer loop
      vertex 188.5 85 3
      vertex 179.807 41.8399 3
      vertex 180.193 41.8399 3
    endloop
  endfacet
  facet normal 0 0 1
    outer loop
      vertex 188.5 85 3
      vertex 179.428 41.7595 3
      vertex 179.807 41.8399 3
    endloop
  endfacet
  facet normal 0 0 1
    outer loop
      vertex 188.5 85 3
      vertex 179.075 41.6021 3
      vertex 179.428 41.7595 3
    endloop
  endfacet
  facet normal 0 0 1
    outer loop
      vertex 188.5 85 3
      vertex 178.762 41.3748 3
      vertex 179.075 41.6021 3
    endloop
  endfacet
  facet normal -0 0 1
    outer loop
      vertex 121.173 44.8523 3
      vertex 178.762 41.3748 3
      vertex 188.5 85 3
    endloop
  endfacet
  facet normal 0 0 1
    outer loop
      vertex 178.762 41.3748 3
      vertex 121.173 44.8523 3
      vertex 178.503 41.0874 3
    endloop
  endfacet
  facet normal -0 -0 1
    outer loop
      vertex 121.325 44.5898 3
      vertex 178.503 41.0874 3
      vertex 121.173 44.8523 3
    endloop
  endfacet
  facet normal 0 0 1
    outer loop
      vertex 121.45 44 3
      vertex 178.15 40 3
      vertex 178.19 40.3846 3
    endloop
  endfacet
  facet normal 0 0 1
    outer loop
      vertex 168.5 -13 3
      vertex 131.85 -25 3
      vertex 168.5 -33 3
    endloop
  endfacet
  facet normal 0 0 1
    outer loop
      vertex 178.15 40 3
      vertex 120.97 42.9224 3
      vertex 168.5 -13 3
    endloop
  endfacet
  facet normal 0 0 1
    outer loop
      vertex 178.503 41.0874 3
      vertex 121.325 44.5898 3
      vertex 178.31 40.7525 3
    endloop
  endfacet
  facet normal 0 0 1
    outer loop
      vertex 168.5 -13 3
      vertex 131.81 -24.6154 3
      vertex 131.85 -25 3
    endloop
  endfacet
  facet normal 0 0 1
    outer loop
      vertex 168.5 -13 3
      vertex 131.69 -24.2475 3
      vertex 131.81 -24.6154 3
    endloop
  endfacet
  facet normal 0 0 1
    outer loop
      vertex 168.5 -13 3
      vertex 131.497 -23.9126 3
      vertex 131.69 -24.2475 3
    endloop
  endfacet
  facet normal 0 0 1
    outer loop
      vertex 178.15 40 3
      vertex 121.325 43.4102 3
      vertex 121.173 43.1477 3
    endloop
  endfacet
  facet normal 0 0 1
    outer loop
      vertex 168.5 -13 3
      vertex 131.238 -23.6252 3
      vertex 131.497 -23.9126 3
    endloop
  endfacet
  facet normal 0 0 1
    outer loop
      vertex 178.15 40 3
      vertex 121.173 43.1477 3
      vertex 120.97 42.9224 3
    endloop
  endfacet
  facet normal 0 0 1
    outer loop
      vertex 168.5 -13 3
      vertex 130.925 -23.3979 3
      vertex 131.238 -23.6252 3
    endloop
  endfacet
  facet normal -0 0 1
    outer loop
      vertex 120.725 42.7443 3
      vertex 168.5 -13 3
      vertex 120.97 42.9224 3
    endloop
  endfacet
  facet normal 0 0 1
    outer loop
      vertex 168.5 -13 3
      vertex 130.572 -23.2405 3
      vertex 130.925 -23.3979 3
    endloop
  endfacet
  facet normal 0 0 1
    outer loop
      vertex 168.5 -13 3
      vertex 120.725 42.7443 3
      vertex 130.572 -23.2405 3
    endloop
  endfacet
  facet normal 0 0 1
    outer loop
      vertex 130.572 -23.2405 3
      vertex 120.725 42.7443 3
      vertex 130.193 -23.1601 3
    endloop
  endfacet
  facet normal -0 0 1
    outer loop
      vertex 120.448 42.621 3
      vertex 130.193 -23.1601 3
      vertex 120.725 42.7443 3
    endloop
  endfacet
  facet normal 0 0 1
    outer loop
      vertex 130.193 -23.1601 3
      vertex 120.448 42.621 3
      vertex 129.807 -23.1601 3
    endloop
  endfacet
  facet normal -0 0 1
    outer loop
      vertex 120.152 42.5579 3
      vertex 129.807 -23.1601 3
      vertex 120.448 42.621 3
    endloop
  endfacet
  facet normal 0 0 1
    outer loop
      vertex 178.15 40 3
      vertex 121.418 43.6985 3
      vertex 121.325 43.4102 3
    endloop
  endfacet
  facet normal 0 0 1
    outer loop
      vertex 178.15 40 3
      vertex 121.45 44 3
      vertex 121.418 43.6985 3
    endloop
  endfacet
  facet normal 0 0 1
    outer loop
      vertex 178.19 40.3846 3
      vertex 121.418 44.3015 3
      vertex 121.45 44 3
    endloop
  endfacet
  facet normal 0 0 1
    outer loop
      vertex 178.31 40.7525 3
      vertex 121.418 44.3015 3
      vertex 178.19 40.3846 3
    endloop
  endfacet
  facet normal -0 -0 1
    outer loop
      vertex 121.418 44.3015 3
      vertex 178.31 40.7525 3
      vertex 121.325 44.5898 3
    endloop
  endfacet
  facet normal 0 0 1
    outer loop
      vertex 188.5 85 3
      vertex 120.97 45.0776 3
      vertex 121.173 44.8523 3
    endloop
  endfacet
  facet normal 0 0 1
    outer loop
      vertex 188.5 85 3
      vertex 120.725 45.2557 3
      vertex 120.97 45.0776 3
    endloop
  endfacet
  facet normal -0 0 1
    outer loop
      vertex 93.25 85 3
      vertex 120.725 45.2557 3
      vertex 188.5 85 3
    endloop
  endfacet
  facet normal 0 0 1
    outer loop
      vertex 120.725 45.2557 3
      vertex 93.25 85 3
      vertex 120.448 45.379 3
    endloop
  endfacet
  facet normal 0 0 1
    outer loop
      vertex 120.448 45.379 3
      vertex 93.25 85 3
      vertex 120.152 45.4421 3
    endloop
  endfacet
  facet normal 0 0 1
    outer loop
      vertex 120.152 45.4421 3
      vertex 93.25 85 3
      vertex 119.848 45.4421 3
    endloop
  endfacet
  facet normal 0 0 1
    outer loop
      vertex 119.848 45.4421 3
      vertex 93.25 85 3
      vertex 119.552 45.379 3
    endloop
  endfacet
  facet normal 0 0 1
    outer loop
      vertex 118.582 44.3015 3
      vertex 93.25 85 3
      vertex 118.55 44 3
    endloop
  endfacet
  facet normal 0 0 1
    outer loop
      vertex 118.675 44.5898 3
      vertex 93.25 85 3
      vertex 118.582 44.3015 3
    endloop
  endfacet
  facet normal 0 0 1
    outer loop
      vertex 118.827 44.8523 3
      vertex 93.25 85 3
      vertex 118.675 44.5898 3
    endloop
  endfacet
  facet normal 0 0 1
    outer loop
      vertex 119.03 45.0776 3
      vertex 93.25 85 3
      vertex 118.827 44.8523 3
    endloop
  endfacet
  facet normal 0 0 1
    outer loop
      vertex 119.275 45.2557 3
      vertex 93.25 85 3
      vertex 119.03 45.0776 3
    endloop
  endfacet
  facet normal 0 0 1
    outer loop
      vertex 119.552 45.379 3
      vertex 93.25 85 3
      vertex 119.275 45.2557 3
    endloop
  endfacet
  facet normal -0 0 1
    outer loop
      vertex 181.81 39.6154 3
      vertex 188.5 -13 3
      vertex 181.85 40 3
    endloop
  endfacet
  facet normal -0 0 1
    outer loop
      vertex 181.69 39.2475 3
      vertex 188.5 -13 3
      vertex 181.81 39.6154 3
    endloop
  endfacet
  facet normal -0 0 1
    outer loop
      vertex 181.497 38.9126 3
      vertex 188.5 -13 3
      vertex 181.69 39.2475 3
    endloop
  endfacet
  facet normal -0 0 1
    outer loop
      vertex 181.238 38.6252 3
      vertex 188.5 -13 3
      vertex 181.497 38.9126 3
    endloop
  endfacet
  facet normal -0 0 1
    outer loop
      vertex 180.925 38.3979 3
      vertex 188.5 -13 3
      vertex 181.238 38.6252 3
    endloop
  endfacet
  facet normal -0 0 1
    outer loop
      vertex 180.572 38.2405 3
      vertex 188.5 -13 3
      vertex 180.925 38.3979 3
    endloop
  endfacet
  facet normal -0 0 1
    outer loop
      vertex 180.193 38.1601 3
      vertex 188.5 -13 3
      vertex 180.572 38.2405 3
    endloop
  endfacet
  facet normal -0 0 1
    outer loop
      vertex 179.807 38.1601 3
      vertex 188.5 -13 3
      vertex 180.193 38.1601 3
    endloop
  endfacet
  facet normal 0 0 1
    outer loop
      vertex 168.5 -13 3
      vertex 179.807 38.1601 3
      vertex 179.428 38.2405 3
    endloop
  endfacet
  facet normal 0 0 1
    outer loop
      vertex 168.5 -13 3
      vertex 179.428 38.2405 3
      vertex 179.075 38.3979 3
    endloop
  endfacet
  facet normal 0 0 1
    outer loop
      vertex 168.5 -13 3
      vertex 179.075 38.3979 3
      vertex 178.762 38.6252 3
    endloop
  endfacet
  facet normal 0 0 1
    outer loop
      vertex 168.5 -13 3
      vertex 178.762 38.6252 3
      vertex 178.503 38.9126 3
    endloop
  endfacet
  facet normal 0 0 1
    outer loop
      vertex 168.5 -13 3
      vertex 178.503 38.9126 3
      vertex 178.31 39.2475 3
    endloop
  endfacet
  facet normal 0 0 1
    outer loop
      vertex 168.5 -13 3
      vertex 178.31 39.2475 3
      vertex 178.19 39.6154 3
    endloop
  endfacet
  facet normal 0 0 1
    outer loop
      vertex 179.807 38.1601 3
      vertex 168.5 -13 3
      vertex 188.5 -13 3
    endloop
  endfacet
  facet normal 0 0 1
    outer loop
      vertex 168.5 -13 3
      vertex 178.19 39.6154 3
      vertex 178.15 40 3
    endloop
  endfacet
  facet normal -0 0 1
    outer loop
      vertex 131.81 -25.3846 3
      vertex 168.5 -33 3
      vertex 131.85 -25 3
    endloop
  endfacet
  facet normal -0 0 1
    outer loop
      vertex 131.69 -25.7525 3
      vertex 168.5 -33 3
      vertex 131.81 -25.3846 3
    endloop
  endfacet
  facet normal -0 0 1
    outer loop
      vertex 131.497 -26.0874 3
      vertex 168.5 -33 3
      vertex 131.69 -25.7525 3
    endloop
  endfacet
  facet normal -0 0 1
    outer loop
      vertex 131.238 -26.3748 3
      vertex 168.5 -33 3
      vertex 131.497 -26.0874 3
    endloop
  endfacet
  facet normal -0 0 1
    outer loop
      vertex 130.925 -26.6021 3
      vertex 168.5 -33 3
      vertex 131.238 -26.3748 3
    endloop
  endfacet
  facet normal -0 0 1
    outer loop
      vertex 130.572 -26.7595 3
      vertex 168.5 -33 3
      vertex 130.925 -26.6021 3
    endloop
  endfacet
  facet normal -0 0 1
    outer loop
      vertex 130.193 -26.8399 3
      vertex 168.5 -33 3
      vertex 130.572 -26.7595 3
    endloop
  endfacet
  facet normal -0 0 1
    outer loop
      vertex 129.807 -26.8399 3
      vertex 168.5 -33 3
      vertex 130.193 -26.8399 3
    endloop
  endfacet
  facet normal 0 0 1
    outer loop
      vertex 129.807 -23.1601 3
      vertex 120.152 42.5579 3
      vertex 129.428 -23.2405 3
    endloop
  endfacet
  facet normal -0 0 1
    outer loop
      vertex 119.848 42.5579 3
      vertex 129.428 -23.2405 3
      vertex 120.152 42.5579 3
    endloop
  endfacet
  facet normal 0 0 1
    outer loop
      vertex 129.428 -23.2405 3
      vertex 119.848 42.5579 3
      vertex 129.075 -23.3979 3
    endloop
  endfacet
  facet normal 0 0 1
    outer loop
      vertex 119.552 42.621 3
      vertex 129.075 -23.3979 3
      vertex 119.848 42.5579 3
    endloop
  endfacet
  facet normal 0 0 1
    outer loop
      vertex 129.075 -23.3979 3
      vertex 119.552 42.621 3
      vertex 128.762 -23.6252 3
    endloop
  endfacet
  facet normal 0 0 1
    outer loop
      vertex 119.275 42.7443 3
      vertex 128.762 -23.6252 3
      vertex 119.552 42.621 3
    endloop
  endfacet
  facet normal 0 0 1
    outer loop
      vertex 93.25 -33 3
      vertex 128.762 -23.6252 3
      vertex 119.275 42.7443 3
    endloop
  endfacet
  facet normal 0 0 1
    outer loop
      vertex 128.762 -23.6252 3
      vertex 93.25 -33 3
      vertex 128.503 -23.9126 3
    endloop
  endfacet
  facet normal 0 0 1
    outer loop
      vertex 128.503 -23.9126 3
      vertex 93.25 -33 3
      vertex 128.31 -24.2475 3
    endloop
  endfacet
  facet normal 0 0 1
    outer loop
      vertex 128.31 -24.2475 3
      vertex 93.25 -33 3
      vertex 128.19 -24.6154 3
    endloop
  endfacet
  facet normal 0 0 1
    outer loop
      vertex 128.19 -24.6154 3
      vertex 93.25 -33 3
      vertex 128.15 -25 3
    endloop
  endfacet
  facet normal 0 0 1
    outer loop
      vertex 93.25 -33 3
      vertex 119.275 42.7443 3
      vertex 119.03 42.9224 3
    endloop
  endfacet
  facet normal 0 0 1
    outer loop
      vertex 93.25 -33 3
      vertex 119.03 42.9224 3
      vertex 118.827 43.1477 3
    endloop
  endfacet
  facet normal 0 0 1
    outer loop
      vertex 93.25 -33 3
      vertex 118.827 43.1477 3
      vertex 118.675 43.4102 3
    endloop
  endfacet
  facet normal 0 0 1
    outer loop
      vertex 93.25 -33 3
      vertex 118.675 43.4102 3
      vertex 118.582 43.6985 3
    endloop
  endfacet
  facet normal 0 0 1
    outer loop
      vertex 93.25 85 3
      vertex 118.582 43.6985 3
      vertex 118.55 44 3
    endloop
  endfacet
  facet normal 0 0 1
    outer loop
      vertex 93.25 -33 3
      vertex 118.582 43.6985 3
      vertex 93.25 85 3
    endloop
  endfacet
  facet normal 0 0 1
    outer loop
      vertex 129.807 -26.8399 3
      vertex 93.25 -33 3
      vertex 168.5 -33 3
    endloop
  endfacet
  facet normal 0 0 1
    outer loop
      vertex 129.428 -26.7595 3
      vertex 93.25 -33 3
      vertex 129.807 -26.8399 3
    endloop
  endfacet
  facet normal 0 0 1
    outer loop
      vertex 129.075 -26.6021 3
      vertex 93.25 -33 3
      vertex 129.428 -26.7595 3
    endloop
  endfacet
  facet normal 0 0 1
    outer loop
      vertex 128.762 -26.3748 3
      vertex 93.25 -33 3
      vertex 129.075 -26.6021 3
    endloop
  endfacet
  facet normal 0 0 1
    outer loop
      vertex 128.503 -26.0874 3
      vertex 93.25 -33 3
      vertex 128.762 -26.3748 3
    endloop
  endfacet
  facet normal 0 0 1
    outer loop
      vertex 128.31 -25.7525 3
      vertex 93.25 -33 3
      vertex 128.503 -26.0874 3
    endloop
  endfacet
  facet normal 0 0 1
    outer loop
      vertex 128.19 -25.3846 3
      vertex 93.25 -33 3
      vertex 128.31 -25.7525 3
    endloop
  endfacet
  facet normal 0 0 1
    outer loop
      vertex 128.15 -25 3
      vertex 93.25 -33 3
      vertex 128.19 -25.3846 3
    endloop
  endfacet
  facet normal 0 0 -1
    outer loop
      vertex 168.5 -33 0
      vertex 131.85 -25 0
      vertex 168.5 -13 0
    endloop
  endfacet
  facet normal 0 0 -1
    outer loop
      vertex 168.5 -33 0
      vertex 131.81 -25.3846 0
      vertex 131.85 -25 0
    endloop
  endfacet
  facet normal 0 0 -1
    outer loop
      vertex 168.5 -33 0
      vertex 131.69 -25.7525 0
      vertex 131.81 -25.3846 0
    endloop
  endfacet
  facet normal 0 0 -1
    outer loop
      vertex 168.5 -33 0
      vertex 131.497 -26.0874 0
      vertex 131.69 -25.7525 0
    endloop
  endfacet
  facet normal 0 0 -1
    outer loop
      vertex 168.5 -33 0
      vertex 131.238 -26.3748 0
      vertex 131.497 -26.0874 0
    endloop
  endfacet
  facet normal 0 0 -1
    outer loop
      vertex 168.5 -33 0
      vertex 130.925 -26.6021 0
      vertex 131.238 -26.3748 0
    endloop
  endfacet
  facet normal 0 0 -1
    outer loop
      vertex 168.5 -33 0
      vertex 130.572 -26.7595 0
      vertex 130.925 -26.6021 0
    endloop
  endfacet
  facet normal 0 0 -1
    outer loop
      vertex 168.5 -33 0
      vertex 130.193 -26.8399 0
      vertex 130.572 -26.7595 0
    endloop
  endfacet
  facet normal 0 0 -1
    outer loop
      vertex 168.5 -33 0
      vertex 129.807 -26.8399 0
      vertex 130.193 -26.8399 0
    endloop
  endfacet
  facet normal 0 0 -1
    outer loop
      vertex 178.15 40 0
      vertex 121.418 43.6985 0
      vertex 121.45 44 0
    endloop
  endfacet
  facet normal 0 0 -1
    outer loop
      vertex 128.19 -24.6154 0
      vertex 121.325 43.4102 0
      vertex 121.418 43.6985 0
    endloop
  endfacet
  facet normal 0 0 -1
    outer loop
      vertex 128.19 -24.6154 0
      vertex 121.173 43.1477 0
      vertex 121.325 43.4102 0
    endloop
  endfacet
  facet normal 0 0 -1
    outer loop
      vertex 128.19 -24.6154 0
      vertex 120.97 42.9224 0
      vertex 121.173 43.1477 0
    endloop
  endfacet
  facet normal 0 0 -1
    outer loop
      vertex 93.25 -33 0
      vertex 128.15 -25 0
      vertex 128.19 -25.3846 0
    endloop
  endfacet
  facet normal 0 0 -1
    outer loop
      vertex 128.19 -24.6154 0
      vertex 120.725 42.7443 0
      vertex 120.97 42.9224 0
    endloop
  endfacet
  facet normal 0 0 -1
    outer loop
      vertex 128.19 -24.6154 0
      vertex 120.448 42.621 0
      vertex 120.725 42.7443 0
    endloop
  endfacet
  facet normal 0 0 -1
    outer loop
      vertex 128.19 -24.6154 0
      vertex 120.152 42.5579 0
      vertex 120.448 42.621 0
    endloop
  endfacet
  facet normal 0 0 -1
    outer loop
      vertex 128.19 -24.6154 0
      vertex 119.848 42.5579 0
      vertex 120.152 42.5579 0
    endloop
  endfacet
  facet normal 0 0 -1
    outer loop
      vertex 128.19 -24.6154 0
      vertex 119.552 42.621 0
      vertex 119.848 42.5579 0
    endloop
  endfacet
  facet normal 0 0 -1
    outer loop
      vertex 128.19 -24.6154 0
      vertex 119.275 42.7443 0
      vertex 119.552 42.621 0
    endloop
  endfacet
  facet normal -0 0 -1
    outer loop
      vertex 128.19 -24.6154 0
      vertex 93.25 -33 0
      vertex 119.275 42.7443 0
    endloop
  endfacet
  facet normal -0 0 -1
    outer loop
      vertex 119.275 42.7443 0
      vertex 93.25 -33 0
      vertex 119.03 42.9224 0
    endloop
  endfacet
  facet normal -0 0 -1
    outer loop
      vertex 119.03 42.9224 0
      vertex 93.25 -33 0
      vertex 118.827 43.1477 0
    endloop
  endfacet
  facet normal -0 0 -1
    outer loop
      vertex 118.827 43.1477 0
      vertex 93.25 -33 0
      vertex 118.675 43.4102 0
    endloop
  endfacet
  facet normal 0 0 -1
    outer loop
      vertex 93.25 85 0
      vertex 118.582 43.6985 0
      vertex 93.25 -33 0
    endloop
  endfacet
  facet normal -0 0 -1
    outer loop
      vertex 118.675 43.4102 0
      vertex 93.25 -33 0
      vertex 118.582 43.6985 0
    endloop
  endfacet
  facet normal -0 0 -1
    outer loop
      vertex 128.31 -25.7525 0
      vertex 93.25 -33 0
      vertex 128.19 -25.3846 0
    endloop
  endfacet
  facet normal -0 0 -1
    outer loop
      vertex 128.503 -26.0874 0
      vertex 93.25 -33 0
      vertex 128.31 -25.7525 0
    endloop
  endfacet
  facet normal -0 0 -1
    outer loop
      vertex 128.762 -26.3748 0
      vertex 93.25 -33 0
      vertex 128.503 -26.0874 0
    endloop
  endfacet
  facet normal -0 0 -1
    outer loop
      vertex 129.075 -26.6021 0
      vertex 93.25 -33 0
      vertex 128.762 -26.3748 0
    endloop
  endfacet
  facet normal -0 0 -1
    outer loop
      vertex 129.428 -26.7595 0
      vertex 93.25 -33 0
      vertex 129.075 -26.6021 0
    endloop
  endfacet
  facet normal -0 0 -1
    outer loop
      vertex 129.807 -26.8399 0
      vertex 93.25 -33 0
      vertex 129.428 -26.7595 0
    endloop
  endfacet
  facet normal 0 0 -1
    outer loop
      vertex 93.25 -33 0
      vertex 129.807 -26.8399 0
      vertex 168.5 -33 0
    endloop
  endfacet
  facet normal 0 0 -1
    outer loop
      vertex 188.5 -13 0
      vertex 181.85 40 0
      vertex 188.5 85 0
    endloop
  endfacet
  facet normal 0 0 -1
    outer loop
      vertex 188.5 -13 0
      vertex 181.81 39.6154 0
      vertex 181.85 40 0
    endloop
  endfacet
  facet normal 0 0 -1
    outer loop
      vertex 188.5 -13 0
      vertex 181.69 39.2475 0
      vertex 181.81 39.6154 0
    endloop
  endfacet
  facet normal 0 0 -1
    outer loop
      vertex 188.5 -13 0
      vertex 181.497 38.9126 0
      vertex 181.69 39.2475 0
    endloop
  endfacet
  facet normal 0 0 -1
    outer loop
      vertex 188.5 -13 0
      vertex 181.238 38.6252 0
      vertex 181.497 38.9126 0
    endloop
  endfacet
  facet normal 0 0 -1
    outer loop
      vertex 188.5 -13 0
      vertex 180.925 38.3979 0
      vertex 181.238 38.6252 0
    endloop
  endfacet
  facet normal 0 0 -1
    outer loop
      vertex 188.5 -13 0
      vertex 180.572 38.2405 0
      vertex 180.925 38.3979 0
    endloop
  endfacet
  facet normal 0 0 -1
    outer loop
      vertex 188.5 -13 0
      vertex 180.193 38.1601 0
      vertex 180.572 38.2405 0
    endloop
  endfacet
  facet normal 0 0 -1
    outer loop
      vertex 188.5 -13 0
      vertex 179.807 38.1601 0
      vertex 180.193 38.1601 0
    endloop
  endfacet
  facet normal 0 0 -1
    outer loop
      vertex 168.5 -13 0
      vertex 179.807 38.1601 0
      vertex 188.5 -13 0
    endloop
  endfacet
  facet normal -0 0 -1
    outer loop
      vertex 179.807 38.1601 0
      vertex 168.5 -13 0
      vertex 179.428 38.2405 0
    endloop
  endfacet
  facet normal -0 0 -1
    outer loop
      vertex 179.428 38.2405 0
      vertex 168.5 -13 0
      vertex 179.075 38.3979 0
    endloop
  endfacet
  facet normal -0 0 -1
    outer loop
      vertex 179.075 38.3979 0
      vertex 168.5 -13 0
      vertex 178.762 38.6252 0
    endloop
  endfacet
  facet normal -0 0 -1
    outer loop
      vertex 178.762 38.6252 0
      vertex 168.5 -13 0
      vertex 178.503 38.9126 0
    endloop
  endfacet
  facet normal 0 0 -1
    outer loop
      vertex 121.418 43.6985 0
      vertex 178.503 38.9126 0
      vertex 168.5 -13 0
    endloop
  endfacet
  facet normal 0 0 -1
    outer loop
      vertex 121.418 43.6985 0
      vertex 178.19 39.6154 0
      vertex 178.31 39.2475 0
    endloop
  endfacet
  facet normal 0 0 -1
    outer loop
      vertex 121.418 43.6985 0
      vertex 178.31 39.2475 0
      vertex 178.503 38.9126 0
    endloop
  endfacet
  facet normal 0 0 -1
    outer loop
      vertex 181.81 40.3846 0
      vertex 188.5 85 0
      vertex 181.85 40 0
    endloop
  endfacet
  facet normal 0 0 -1
    outer loop
      vertex 181.69 40.7525 0
      vertex 188.5 85 0
      vertex 181.81 40.3846 0
    endloop
  endfacet
  facet normal 0 0 -1
    outer loop
      vertex 181.497 41.0874 0
      vertex 188.5 85 0
      vertex 181.69 40.7525 0
    endloop
  endfacet
  facet normal 0 0 -1
    outer loop
      vertex 181.238 41.3748 0
      vertex 188.5 85 0
      vertex 181.497 41.0874 0
    endloop
  endfacet
  facet normal 0 0 -1
    outer loop
      vertex 180.925 41.6021 0
      vertex 188.5 85 0
      vertex 181.238 41.3748 0
    endloop
  endfacet
  facet normal 0 0 -1
    outer loop
      vertex 180.572 41.7595 0
      vertex 188.5 85 0
      vertex 180.925 41.6021 0
    endloop
  endfacet
  facet normal 0 0 -1
    outer loop
      vertex 180.193 41.8399 0
      vertex 188.5 85 0
      vertex 180.572 41.7595 0
    endloop
  endfacet
  facet normal 0 0 -1
    outer loop
      vertex 179.807 41.8399 0
      vertex 188.5 85 0
      vertex 180.193 41.8399 0
    endloop
  endfacet
  facet normal 0 0 -1
    outer loop
      vertex 179.428 41.7595 0
      vertex 188.5 85 0
      vertex 179.807 41.8399 0
    endloop
  endfacet
  facet normal 0 0 -1
    outer loop
      vertex 179.075 41.6021 0
      vertex 188.5 85 0
      vertex 179.428 41.7595 0
    endloop
  endfacet
  facet normal 0 0 -1
    outer loop
      vertex 178.762 41.3748 0
      vertex 188.5 85 0
      vertex 179.075 41.6021 0
    endloop
  endfacet
  facet normal 0 0 -1
    outer loop
      vertex 121.173 44.8523 0
      vertex 178.762 41.3748 0
      vertex 178.503 41.0874 0
    endloop
  endfacet
  facet normal 0 0 -1
    outer loop
      vertex 121.325 44.5898 0
      vertex 178.503 41.0874 0
      vertex 178.31 40.7525 0
    endloop
  endfacet
  facet normal 0 0 -1
    outer loop
      vertex 121.418 44.3015 0
      vertex 178.31 40.7525 0
      vertex 178.19 40.3846 0
    endloop
  endfacet
  facet normal 0 0 -1
    outer loop
      vertex 121.418 43.6985 0
      vertex 178.15 40 0
      vertex 178.19 39.6154 0
    endloop
  endfacet
  facet normal 0 0 -1
    outer loop
      vertex 131.81 -24.6154 0
      vertex 168.5 -13 0
      vertex 131.85 -25 0
    endloop
  endfacet
  facet normal 0 0 -1
    outer loop
      vertex 131.69 -24.2475 0
      vertex 168.5 -13 0
      vertex 131.81 -24.6154 0
    endloop
  endfacet
  facet normal 0 0 -1
    outer loop
      vertex 131.497 -23.9126 0
      vertex 168.5 -13 0
      vertex 131.69 -24.2475 0
    endloop
  endfacet
  facet normal 0 0 -1
    outer loop
      vertex 131.238 -23.6252 0
      vertex 168.5 -13 0
      vertex 131.497 -23.9126 0
    endloop
  endfacet
  facet normal 0 0 -1
    outer loop
      vertex 130.925 -23.3979 0
      vertex 168.5 -13 0
      vertex 131.238 -23.6252 0
    endloop
  endfacet
  facet normal 0 0 -1
    outer loop
      vertex 130.572 -23.2405 0
      vertex 168.5 -13 0
      vertex 130.925 -23.3979 0
    endloop
  endfacet
  facet normal 0 0 -1
    outer loop
      vertex 178.15 40 0
      vertex 121.45 44 0
      vertex 178.19 40.3846 0
    endloop
  endfacet
  facet normal 0 0 -1
    outer loop
      vertex 121.418 43.6985 0
      vertex 168.5 -13 0
      vertex 130.572 -23.2405 0
    endloop
  endfacet
  facet normal 0 0 -1
    outer loop
      vertex 121.418 43.6985 0
      vertex 130.572 -23.2405 0
      vertex 130.193 -23.1601 0
    endloop
  endfacet
  facet normal 0 0 -1
    outer loop
      vertex 121.418 43.6985 0
      vertex 130.193 -23.1601 0
      vertex 129.807 -23.1601 0
    endloop
  endfacet
  facet normal 0 0 -1
    outer loop
      vertex 121.418 43.6985 0
      vertex 129.807 -23.1601 0
      vertex 129.428 -23.2405 0
    endloop
  endfacet
  facet normal 0 0 -1
    outer loop
      vertex 121.418 43.6985 0
      vertex 129.428 -23.2405 0
      vertex 129.075 -23.3979 0
    endloop
  endfacet
  facet normal 0 0 -1
    outer loop
      vertex 121.418 43.6985 0
      vertex 129.075 -23.3979 0
      vertex 128.762 -23.6252 0
    endloop
  endfacet
  facet normal 0 0 -1
    outer loop
      vertex 121.418 43.6985 0
      vertex 128.762 -23.6252 0
      vertex 128.503 -23.9126 0
    endloop
  endfacet
  facet normal 0 0 -1
    outer loop
      vertex 121.418 43.6985 0
      vertex 128.503 -23.9126 0
      vertex 128.31 -24.2475 0
    endloop
  endfacet
  facet normal 0 0 -1
    outer loop
      vertex 93.25 -33 0
      vertex 128.19 -24.6154 0
      vertex 128.15 -25 0
    endloop
  endfacet
  facet normal 0 0 -1
    outer loop
      vertex 121.418 43.6985 0
      vertex 128.31 -24.2475 0
      vertex 128.19 -24.6154 0
    endloop
  endfacet
  facet normal 0 0 -1
    outer loop
      vertex 121.418 44.3015 0
      vertex 178.19 40.3846 0
      vertex 121.45 44 0
    endloop
  endfacet
  facet normal 0 0 -1
    outer loop
      vertex 178.31 40.7525 0
      vertex 121.418 44.3015 0
      vertex 121.325 44.5898 0
    endloop
  endfacet
  facet normal 0 0 -1
    outer loop
      vertex 178.503 41.0874 0
      vertex 121.325 44.5898 0
      vertex 121.173 44.8523 0
    endloop
  endfacet
  facet normal 0 0 -1
    outer loop
      vertex 178.762 41.3748 0
      vertex 121.173 44.8523 0
      vertex 188.5 85 0
    endloop
  endfacet
  facet normal 0 0 -1
    outer loop
      vertex 120.97 45.0776 0
      vertex 188.5 85 0
      vertex 121.173 44.8523 0
    endloop
  endfacet
  facet normal 0 0 -1
    outer loop
      vertex 120.725 45.2557 0
      vertex 188.5 85 0
      vertex 120.97 45.0776 0
    endloop
  endfacet
  facet normal 0 0 -1
    outer loop
      vertex 93.25 85 0
      vertex 120.725 45.2557 0
      vertex 120.448 45.379 0
    endloop
  endfacet
  facet normal 0 0 -1
    outer loop
      vertex 93.25 85 0
      vertex 120.448 45.379 0
      vertex 120.152 45.4421 0
    endloop
  endfacet
  facet normal 0 0 -1
    outer loop
      vertex 93.25 85 0
      vertex 120.152 45.4421 0
      vertex 119.848 45.4421 0
    endloop
  endfacet
  facet normal 0 0 -1
    outer loop
      vertex 93.25 85 0
      vertex 119.848 45.4421 0
      vertex 119.552 45.379 0
    endloop
  endfacet
  facet normal 0 0 -1
    outer loop
      vertex 93.25 85 0
      vertex 119.552 45.379 0
      vertex 119.275 45.2557 0
    endloop
  endfacet
  facet normal 0 0 -1
    outer loop
      vertex 118.582 43.6985 0
      vertex 93.25 85 0
      vertex 118.55 44 0
    endloop
  endfacet
  facet normal 0 0 -1
    outer loop
      vertex 118.55 44 0
      vertex 93.25 85 0
      vertex 118.582 44.3015 0
    endloop
  endfacet
  facet normal 0 0 -1
    outer loop
      vertex 120.725 45.2557 0
      vertex 93.25 85 0
      vertex 188.5 85 0
    endloop
  endfacet
  facet normal 0 0 -1
    outer loop
      vertex 119.03 45.0776 0
      vertex 93.25 85 0
      vertex 119.275 45.2557 0
    endloop
  endfacet
  facet normal 0 0 -1
    outer loop
      vertex 118.827 44.8523 0
      vertex 93.25 85 0
      vertex 119.03 45.0776 0
    endloop
  endfacet
  facet normal 0 0 -1
    outer loop
      vertex 118.675 44.5898 0
      vertex 93.25 85 0
      vertex 118.827 44.8523 0
    endloop
  endfacet
  facet normal 0 0 -1
    outer loop
      vertex 118.582 44.3015 0
      vertex 93.25 85 0
      vertex 118.675 44.5898 0
    endloop
  endfacet
  facet normal 0 -1 0
    outer loop
      vertex 168.5 -13 0
      vertex 188.5 -13 3
      vertex 168.5 -13 3
    endloop
  endfacet
  facet normal 0 -1 -0
    outer loop
      vertex 188.5 -13 3
      vertex 168.5 -13 0
      vertex 188.5 -13 0
    endloop
  endfacet
  facet normal 1 -0 0
    outer loop
      vertex 168.5 -33 3
      vertex 168.5 -13 0
      vertex 168.5 -13 3
    endloop
  endfacet
  facet normal 1 0 0
    outer loop
      vertex 168.5 -13 0
      vertex 168.5 -33 3
      vertex 168.5 -33 0
    endloop
  endfacet
  facet normal 0 -1 0
    outer loop
      vertex 93.25 -33 0
      vertex 168.5 -33 3
      vertex 93.25 -33 3
    endloop
  endfacet
  facet normal 0 -1 -0
    outer loop
      vertex 168.5 -33 3
      vertex 93.25 -33 0
      vertex 168.5 -33 0
    endloop
  endfacet
  facet normal -0.951709 -0.307003 0
    outer loop
      vertex 121.418 44.3015 0
      vertex 121.325 44.5898 3
      vertex 121.325 44.5898 0
    endloop
  endfacet
  facet normal -0.951709 -0.307003 0
    outer loop
      vertex 121.325 44.5898 3
      vertex 121.418 44.3015 0
      vertex 121.418 44.3015 3
    endloop
  endfacet
  facet normal -0.994415 -0.105543 0
    outer loop
      vertex 121.45 44 0
      vertex 121.418 44.3015 3
      vertex 121.418 44.3015 0
    endloop
  endfacet
  facet normal -0.994415 -0.105543 0
    outer loop
      vertex 121.418 44.3015 3
      vertex 121.45 44 0
      vertex 121.45 44 3
    endloop
  endfacet
  facet normal -0.865389 -0.501101 0
    outer loop
      vertex 121.325 44.5898 0
      vertex 121.173 44.8523 3
      vertex 121.173 44.8523 0
    endloop
  endfacet
  facet normal -0.865389 -0.501101 0
    outer loop
      vertex 121.173 44.8523 3
      vertex 121.325 44.5898 0
      vertex 121.325 44.5898 3
    endloop
  endfacet
  facet normal 0.406659 -0.91358 0
    outer loop
      vertex 119.275 45.2557 0
      vertex 119.552 45.379 3
      vertex 119.275 45.2557 3
    endloop
  endfacet
  facet normal 0.406659 -0.91358 0
    outer loop
      vertex 119.552 45.379 3
      vertex 119.275 45.2557 0
      vertex 119.552 45.379 0
    endloop
  endfacet
  facet normal -0.406659 -0.91358 0
    outer loop
      vertex 120.448 45.379 0
      vertex 120.725 45.2557 3
      vertex 120.448 45.379 3
    endloop
  endfacet
  facet normal -0.406659 -0.91358 -0
    outer loop
      vertex 120.725 45.2557 3
      vertex 120.448 45.379 0
      vertex 120.725 45.2557 0
    endloop
  endfacet
  facet normal -0.994415 0.105543 0
    outer loop
      vertex 121.418 43.6985 0
      vertex 121.45 44 3
      vertex 121.45 44 0
    endloop
  endfacet
  facet normal -0.994415 0.105543 0
    outer loop
      vertex 121.45 44 3
      vertex 121.418 43.6985 0
      vertex 121.418 43.6985 3
    endloop
  endfacet
  facet normal 0.742917 -0.669384 0
    outer loop
      vertex 118.827 44.8523 3
      vertex 119.03 45.0776 0
      vertex 119.03 45.0776 3
    endloop
  endfacet
  facet normal 0.742917 -0.669384 0
    outer loop
      vertex 119.03 45.0776 0
      vertex 118.827 44.8523 3
      vertex 118.827 44.8523 0
    endloop
  endfacet
  facet normal 0.587995 -0.808865 0
    outer loop
      vertex 119.03 45.0776 0
      vertex 119.275 45.2557 3
      vertex 119.03 45.0776 3
    endloop
  endfacet
  facet normal 0.587995 -0.808865 0
    outer loop
      vertex 119.275 45.2557 3
      vertex 119.03 45.0776 0
      vertex 119.275 45.2557 0
    endloop
  endfacet
  facet normal -0.742917 -0.669384 0
    outer loop
      vertex 121.173 44.8523 0
      vertex 120.97 45.0776 3
      vertex 120.97 45.0776 0
    endloop
  endfacet
  facet normal -0.742917 -0.669384 0
    outer loop
      vertex 120.97 45.0776 3
      vertex 121.173 44.8523 0
      vertex 121.173 44.8523 3
    endloop
  endfacet
  facet normal -0.951709 0.307003 0
    outer loop
      vertex 121.325 43.4102 0
      vertex 121.418 43.6985 3
      vertex 121.418 43.6985 0
    endloop
  endfacet
  facet normal -0.951709 0.307003 0
    outer loop
      vertex 121.418 43.6985 3
      vertex 121.325 43.4102 0
      vertex 121.325 43.4102 3
    endloop
  endfacet
  facet normal 0.406659 0.91358 -0
    outer loop
      vertex 119.552 42.621 0
      vertex 119.275 42.7443 3
      vertex 119.552 42.621 3
    endloop
  endfacet
  facet normal 0.406659 0.91358 0
    outer loop
      vertex 119.275 42.7443 3
      vertex 119.552 42.621 0
      vertex 119.275 42.7443 0
    endloop
  endfacet
  facet normal 0.865389 0.501101 0
    outer loop
      vertex 118.827 43.1477 3
      vertex 118.675 43.4102 0
      vertex 118.675 43.4102 3
    endloop
  endfacet
  facet normal 0.865389 0.501101 0
    outer loop
      vertex 118.675 43.4102 0
      vertex 118.827 43.1477 3
      vertex 118.827 43.1477 0
    endloop
  endfacet
  facet normal 0.951709 -0.307003 0
    outer loop
      vertex 118.582 44.3015 3
      vertex 118.675 44.5898 0
      vertex 118.675 44.5898 3
    endloop
  endfacet
  facet normal 0.951709 -0.307003 0
    outer loop
      vertex 118.675 44.5898 0
      vertex 118.582 44.3015 3
      vertex 118.582 44.3015 0
    endloop
  endfacet
  facet normal 0.208491 0.978024 -0
    outer loop
      vertex 119.848 42.5579 0
      vertex 119.552 42.621 3
      vertex 119.848 42.5579 3
    endloop
  endfacet
  facet normal 0.208491 0.978024 0
    outer loop
      vertex 119.552 42.621 3
      vertex 119.848 42.5579 0
      vertex 119.552 42.621 0
    endloop
  endfacet
  facet normal 0.951709 0.307003 0
    outer loop
      vertex 118.675 43.4102 3
      vertex 118.582 43.6985 0
      vertex 118.582 43.6985 3
    endloop
  endfacet
  facet normal 0.951709 0.307003 0
    outer loop
      vertex 118.582 43.6985 0
      vertex 118.675 43.4102 3
      vertex 118.675 43.4102 0
    endloop
  endfacet
  facet normal 0.994415 -0.105543 0
    outer loop
      vertex 118.55 44 3
      vertex 118.582 44.3015 0
      vertex 118.582 44.3015 3
    endloop
  endfacet
  facet normal 0.994415 -0.105543 0
    outer loop
      vertex 118.582 44.3015 0
      vertex 118.55 44 3
      vertex 118.55 44 0
    endloop
  endfacet
  facet normal 0 -1 0
    outer loop
      vertex 119.848 45.4421 0
      vertex 120.152 45.4421 3
      vertex 119.848 45.4421 3
    endloop
  endfacet
  facet normal 0 -1 -0
    outer loop
      vertex 120.152 45.4421 3
      vertex 119.848 45.4421 0
      vertex 120.152 45.4421 0
    endloop
  endfacet
  facet normal -0.742917 0.669384 0
    outer loop
      vertex 120.97 42.9224 0
      vertex 121.173 43.1477 3
      vertex 121.173 43.1477 0
    endloop
  endfacet
  facet normal -0.742917 0.669384 0
    outer loop
      vertex 121.173 43.1477 3
      vertex 120.97 42.9224 0
      vertex 120.97 42.9224 3
    endloop
  endfacet
  facet normal -0.208491 0.978024 0
    outer loop
      vertex 120.448 42.621 0
      vertex 120.152 42.5579 3
      vertex 120.448 42.621 3
    endloop
  endfacet
  facet normal -0.208491 0.978024 0
    outer loop
      vertex 120.152 42.5579 3
      vertex 120.448 42.621 0
      vertex 120.152 42.5579 0
    endloop
  endfacet
  facet normal -0.865389 0.501101 0
    outer loop
      vertex 121.173 43.1477 0
      vertex 121.325 43.4102 3
      vertex 121.325 43.4102 0
    endloop
  endfacet
  facet normal -0.865389 0.501101 0
    outer loop
      vertex 121.325 43.4102 3
      vertex 121.173 43.1477 0
      vertex 121.173 43.1477 3
    endloop
  endfacet
  facet normal -0.208491 -0.978024 0
    outer loop
      vertex 120.152 45.4421 0
      vertex 120.448 45.379 3
      vertex 120.152 45.4421 3
    endloop
  endfacet
  facet normal -0.208491 -0.978024 -0
    outer loop
      vertex 120.448 45.379 3
      vertex 120.152 45.4421 0
      vertex 120.448 45.379 0
    endloop
  endfacet
  facet normal -0.587995 0.808865 0
    outer loop
      vertex 120.97 42.9224 0
      vertex 120.725 42.7443 3
      vertex 120.97 42.9224 3
    endloop
  endfacet
  facet normal -0.587995 0.808865 0
    outer loop
      vertex 120.725 42.7443 3
      vertex 120.97 42.9224 0
      vertex 120.725 42.7443 0
    endloop
  endfacet
  facet normal -0.587995 -0.808865 0
    outer loop
      vertex 120.725 45.2557 0
      vertex 120.97 45.0776 3
      vertex 120.725 45.2557 3
    endloop
  endfacet
  facet normal -0.587995 -0.808865 -0
    outer loop
      vertex 120.97 45.0776 3
      vertex 120.725 45.2557 0
      vertex 120.97 45.0776 0
    endloop
  endfacet
  facet normal 0.208491 -0.978024 0
    outer loop
      vertex 119.552 45.379 0
      vertex 119.848 45.4421 3
      vertex 119.552 45.379 3
    endloop
  endfacet
  facet normal 0.208491 -0.978024 0
    outer loop
      vertex 119.848 45.4421 3
      vertex 119.552 45.379 0
      vertex 119.848 45.4421 0
    endloop
  endfacet
  facet normal 0 1 -0
    outer loop
      vertex 120.152 42.5579 0
      vertex 119.848 42.5579 3
      vertex 120.152 42.5579 3
    endloop
  endfacet
  facet normal 0 1 0
    outer loop
      vertex 119.848 42.5579 3
      vertex 120.152 42.5579 0
      vertex 119.848 42.5579 0
    endloop
  endfacet
  facet normal 0.994415 0.105543 0
    outer loop
      vertex 118.582 43.6985 3
      vertex 118.55 44 0
      vertex 118.55 44 3
    endloop
  endfacet
  facet normal 0.994415 0.105543 0
    outer loop
      vertex 118.55 44 0
      vertex 118.582 43.6985 3
      vertex 118.582 43.6985 0
    endloop
  endfacet
  facet normal -0.406659 0.91358 0
    outer loop
      vertex 120.725 42.7443 0
      vertex 120.448 42.621 3
      vertex 120.725 42.7443 3
    endloop
  endfacet
  facet normal -0.406659 0.91358 0
    outer loop
      vertex 120.448 42.621 3
      vertex 120.725 42.7443 0
      vertex 120.448 42.621 0
    endloop
  endfacet
  facet normal 0.742917 0.669384 0
    outer loop
      vertex 119.03 42.9224 3
      vertex 118.827 43.1477 0
      vertex 118.827 43.1477 3
    endloop
  endfacet
  facet normal 0.742917 0.669384 0
    outer loop
      vertex 118.827 43.1477 0
      vertex 119.03 42.9224 3
      vertex 119.03 42.9224 0
    endloop
  endfacet
  facet normal 0.587995 0.808865 -0
    outer loop
      vertex 119.275 42.7443 0
      vertex 119.03 42.9224 3
      vertex 119.275 42.7443 3
    endloop
  endfacet
  facet normal 0.587995 0.808865 0
    outer loop
      vertex 119.03 42.9224 3
      vertex 119.275 42.7443 0
      vertex 119.03 42.9224 0
    endloop
  endfacet
  facet normal 0.865389 -0.501101 0
    outer loop
      vertex 118.675 44.5898 3
      vertex 118.827 44.8523 0
      vertex 118.827 44.8523 3
    endloop
  endfacet
  facet normal 0.865389 -0.501101 0
    outer loop
      vertex 118.827 44.8523 0
      vertex 118.675 44.5898 3
      vertex 118.675 44.5898 0
    endloop
  endfacet
  facet normal 0 1 -0
    outer loop
      vertex 188.5 85 0
      vertex 93.25 85 3
      vertex 188.5 85 3
    endloop
  endfacet
  facet normal 0 1 0
    outer loop
      vertex 93.25 85 3
      vertex 188.5 85 0
      vertex 93.25 85 0
    endloop
  endfacet
  facet normal -1 0 0
    outer loop
      vertex 93.25 -33 0
      vertex 93.25 85 3
      vertex 93.25 85 0
    endloop
  endfacet
  facet normal -1 -0 0
    outer loop
      vertex 93.25 85 3
      vertex 93.25 -33 0
      vertex 93.25 -33 3
    endloop
  endfacet
  facet normal 0 -1 0
    outer loop
      vertex 179.807 41.8399 0
      vertex 180.193 41.8399 3
      vertex 179.807 41.8399 3
    endloop
  endfacet
  facet normal 0 -1 -0
    outer loop
      vertex 180.193 41.8399 3
      vertex 179.807 41.8399 0
      vertex 180.193 41.8399 0
    endloop
  endfacet
  facet normal -0.950705 -0.310097 0
    outer loop
      vertex 181.81 40.3846 0
      vertex 181.69 40.7525 3
      vertex 181.69 40.7525 0
    endloop
  endfacet
  facet normal -0.950705 -0.310097 0
    outer loop
      vertex 181.69 40.7525 3
      vertex 181.81 40.3846 0
      vertex 181.81 40.3846 3
    endloop
  endfacet
  facet normal -0.994635 -0.103446 0
    outer loop
      vertex 181.85 40 0
      vertex 181.81 40.3846 3
      vertex 181.81 40.3846 0
    endloop
  endfacet
  facet normal -0.994635 -0.103446 0
    outer loop
      vertex 181.81 40.3846 3
      vertex 181.85 40 0
      vertex 181.85 40 3
    endloop
  endfacet
  facet normal -0.742857 0.66945 0
    outer loop
      vertex 181.238 38.6252 0
      vertex 181.497 38.9126 3
      vertex 181.497 38.9126 0
    endloop
  endfacet
  facet normal -0.742857 0.66945 0
    outer loop
      vertex 181.497 38.9126 3
      vertex 181.238 38.6252 0
      vertex 181.238 38.6252 3
    endloop
  endfacet
  facet normal 0.587603 -0.80915 0
    outer loop
      vertex 178.762 41.3748 0
      vertex 179.075 41.6021 3
      vertex 178.762 41.3748 3
    endloop
  endfacet
  facet normal 0.587603 -0.80915 0
    outer loop
      vertex 179.075 41.6021 3
      vertex 178.762 41.3748 0
      vertex 179.075 41.6021 0
    endloop
  endfacet
  facet normal -0.742857 -0.66945 0
    outer loop
      vertex 181.497 41.0874 0
      vertex 181.238 41.3748 3
      vertex 181.238 41.3748 0
    endloop
  endfacet
  facet normal -0.742857 -0.66945 0
    outer loop
      vertex 181.238 41.3748 3
      vertex 181.497 41.0874 0
      vertex 181.497 41.0874 3
    endloop
  endfacet
  facet normal 0 1 -0
    outer loop
      vertex 180.193 38.1601 0
      vertex 179.807 38.1601 3
      vertex 180.193 38.1601 3
    endloop
  endfacet
  facet normal 0 1 0
    outer loop
      vertex 179.807 38.1601 3
      vertex 180.193 38.1601 0
      vertex 179.807 38.1601 0
    endloop
  endfacet
  facet normal 0.866422 0.499312 0
    outer loop
      vertex 178.503 38.9126 3
      vertex 178.31 39.2475 0
      vertex 178.31 39.2475 3
    endloop
  endfacet
  facet normal 0.866422 0.499312 0
    outer loop
      vertex 178.31 39.2475 0
      vertex 178.503 38.9126 3
      vertex 178.503 38.9126 0
    endloop
  endfacet
  facet normal 0.407242 0.91332 -0
    outer loop
      vertex 179.428 38.2405 0
      vertex 179.075 38.3979 3
      vertex 179.428 38.2405 3
    endloop
  endfacet
  facet normal 0.407242 0.91332 0
    outer loop
      vertex 179.075 38.3979 3
      vertex 179.428 38.2405 0
      vertex 179.075 38.3979 0
    endloop
  endfacet
  facet normal -0.994635 0.103446 0
    outer loop
      vertex 181.81 39.6154 0
      vertex 181.85 40 3
      vertex 181.85 40 0
    endloop
  endfacet
  facet normal -0.994635 0.103446 0
    outer loop
      vertex 181.85 40 3
      vertex 181.81 39.6154 0
      vertex 181.81 39.6154 3
    endloop
  endfacet
  facet normal -0.587603 -0.80915 0
    outer loop
      vertex 180.925 41.6021 0
      vertex 181.238 41.3748 3
      vertex 180.925 41.6021 3
    endloop
  endfacet
  facet normal -0.587603 -0.80915 -0
    outer loop
      vertex 181.238 41.3748 3
      vertex 180.925 41.6021 0
      vertex 181.238 41.3748 0
    endloop
  endfacet
  facet normal -0.407242 -0.91332 0
    outer loop
      vertex 180.572 41.7595 0
      vertex 180.925 41.6021 3
      vertex 180.572 41.7595 3
    endloop
  endfacet
  facet normal -0.407242 -0.91332 -0
    outer loop
      vertex 180.925 41.6021 3
      vertex 180.572 41.7595 0
      vertex 180.925 41.6021 0
    endloop
  endfacet
  facet normal -0.207519 0.978231 0
    outer loop
      vertex 180.572 38.2405 0
      vertex 180.193 38.1601 3
      vertex 180.572 38.2405 3
    endloop
  endfacet
  facet normal -0.207519 0.978231 0
    outer loop
      vertex 180.193 38.1601 3
      vertex 180.572 38.2405 0
      vertex 180.193 38.1601 0
    endloop
  endfacet
  facet normal -0.587603 0.80915 0
    outer loop
      vertex 181.238 38.6252 0
      vertex 180.925 38.3979 3
      vertex 181.238 38.6252 3
    endloop
  endfacet
  facet normal -0.587603 0.80915 0
    outer loop
      vertex 180.925 38.3979 3
      vertex 181.238 38.6252 0
      vertex 180.925 38.3979 0
    endloop
  endfacet
  facet normal -0.866422 0.499312 0
    outer loop
      vertex 181.497 38.9126 0
      vertex 181.69 39.2475 3
      vertex 181.69 39.2475 0
    endloop
  endfacet
  facet normal -0.866422 0.499312 0
    outer loop
      vertex 181.69 39.2475 3
      vertex 181.497 38.9126 0
      vertex 181.497 38.9126 3
    endloop
  endfacet
  facet normal 0.994635 -0.103446 0
    outer loop
      vertex 178.15 40 3
      vertex 178.19 40.3846 0
      vertex 178.19 40.3846 3
    endloop
  endfacet
  facet normal 0.994635 -0.103446 0
    outer loop
      vertex 178.19 40.3846 0
      vertex 178.15 40 3
      vertex 178.15 40 0
    endloop
  endfacet
  facet normal 0.207519 0.978231 -0
    outer loop
      vertex 179.807 38.1601 0
      vertex 179.428 38.2405 3
      vertex 179.807 38.1601 3
    endloop
  endfacet
  facet normal 0.207519 0.978231 0
    outer loop
      vertex 179.428 38.2405 3
      vertex 179.807 38.1601 0
      vertex 179.428 38.2405 0
    endloop
  endfacet
  facet normal 0.866422 -0.499312 0
    outer loop
      vertex 178.31 40.7525 3
      vertex 178.503 41.0874 0
      vertex 178.503 41.0874 3
    endloop
  endfacet
  facet normal 0.866422 -0.499312 0
    outer loop
      vertex 178.503 41.0874 0
      vertex 178.31 40.7525 3
      vertex 178.31 40.7525 0
    endloop
  endfacet
  facet normal -0.407242 0.91332 0
    outer loop
      vertex 180.925 38.3979 0
      vertex 180.572 38.2405 3
      vertex 180.925 38.3979 3
    endloop
  endfacet
  facet normal -0.407242 0.91332 0
    outer loop
      vertex 180.572 38.2405 3
      vertex 180.925 38.3979 0
      vertex 180.572 38.2405 0
    endloop
  endfacet
  facet normal 0.950705 0.310097 0
    outer loop
      vertex 178.31 39.2475 3
      vertex 178.19 39.6154 0
      vertex 178.19 39.6154 3
    endloop
  endfacet
  facet normal 0.950705 0.310097 0
    outer loop
      vertex 178.19 39.6154 0
      vertex 178.31 39.2475 3
      vertex 178.31 39.2475 0
    endloop
  endfacet
  facet normal -0.950705 0.310097 0
    outer loop
      vertex 181.69 39.2475 0
      vertex 181.81 39.6154 3
      vertex 181.81 39.6154 0
    endloop
  endfacet
  facet normal -0.950705 0.310097 0
    outer loop
      vertex 181.81 39.6154 3
      vertex 181.69 39.2475 0
      vertex 181.69 39.2475 3
    endloop
  endfacet
  facet normal 0.742857 -0.66945 0
    outer loop
      vertex 178.503 41.0874 3
      vertex 178.762 41.3748 0
      vertex 178.762 41.3748 3
    endloop
  endfacet
  facet normal 0.742857 -0.66945 0
    outer loop
      vertex 178.762 41.3748 0
      vertex 178.503 41.0874 3
      vertex 178.503 41.0874 0
    endloop
  endfacet
  facet normal -0.207519 -0.978231 0
    outer loop
      vertex 180.193 41.8399 0
      vertex 180.572 41.7595 3
      vertex 180.193 41.8399 3
    endloop
  endfacet
  facet normal -0.207519 -0.978231 -0
    outer loop
      vertex 180.572 41.7595 3
      vertex 180.193 41.8399 0
      vertex 180.572 41.7595 0
    endloop
  endfacet
  facet normal 0.950705 -0.310097 0
    outer loop
      vertex 178.19 40.3846 3
      vertex 178.31 40.7525 0
      vertex 178.31 40.7525 3
    endloop
  endfacet
  facet normal 0.950705 -0.310097 0
    outer loop
      vertex 178.31 40.7525 0
      vertex 178.19 40.3846 3
      vertex 178.19 40.3846 0
    endloop
  endfacet
  facet normal -0.866422 -0.499312 0
    outer loop
      vertex 181.69 40.7525 0
      vertex 181.497 41.0874 3
      vertex 181.497 41.0874 0
    endloop
  endfacet
  facet normal -0.866422 -0.499312 0
    outer loop
      vertex 181.497 41.0874 3
      vertex 181.69 40.7525 0
      vertex 181.69 40.7525 3
    endloop
  endfacet
  facet normal 0.407242 -0.91332 0
    outer loop
      vertex 179.075 41.6021 0
      vertex 179.428 41.7595 3
      vertex 179.075 41.6021 3
    endloop
  endfacet
  facet normal 0.407242 -0.91332 0
    outer loop
      vertex 179.428 41.7595 3
      vertex 179.075 41.6021 0
      vertex 179.428 41.7595 0
    endloop
  endfacet
  facet normal 0.207519 -0.978231 0
    outer loop
      vertex 179.428 41.7595 0
      vertex 179.807 41.8399 3
      vertex 179.428 41.7595 3
    endloop
  endfacet
  facet normal 0.207519 -0.978231 0
    outer loop
      vertex 179.807 41.8399 3
      vertex 179.428 41.7595 0
      vertex 179.807 41.8399 0
    endloop
  endfacet
  facet normal 0.587603 0.80915 -0
    outer loop
      vertex 179.075 38.3979 0
      vertex 178.762 38.6252 3
      vertex 179.075 38.3979 3
    endloop
  endfacet
  facet normal 0.587603 0.80915 0
    outer loop
      vertex 178.762 38.6252 3
      vertex 179.075 38.3979 0
      vertex 178.762 38.6252 0
    endloop
  endfacet
  facet normal 0.742857 0.66945 0
    outer loop
      vertex 178.762 38.6252 3
      vertex 178.503 38.9126 0
      vertex 178.503 38.9126 3
    endloop
  endfacet
  facet normal 0.742857 0.66945 0
    outer loop
      vertex 178.503 38.9126 0
      vertex 178.762 38.6252 3
      vertex 178.762 38.6252 0
    endloop
  endfacet
  facet normal 0.994635 0.103446 0
    outer loop
      vertex 178.19 39.6154 3
      vertex 178.15 40 0
      vertex 178.15 40 3
    endloop
  endfacet
  facet normal 0.994635 0.103446 0
    outer loop
      vertex 178.15 40 0
      vertex 178.19 39.6154 3
      vertex 178.19 39.6154 0
    endloop
  endfacet
  facet normal 0.994635 -0.103446 0
    outer loop
      vertex 128.15 -25 3
      vertex 128.19 -24.6154 0
      vertex 128.19 -24.6154 3
    endloop
  endfacet
  facet normal 0.994635 -0.103446 0
    outer loop
      vertex 128.19 -24.6154 0
      vertex 128.15 -25 3
      vertex 128.15 -25 0
    endloop
  endfacet
  facet normal -0.866422 0.499312 0
    outer loop
      vertex 131.497 -26.0874 0
      vertex 131.69 -25.7525 3
      vertex 131.69 -25.7525 0
    endloop
  endfacet
  facet normal -0.866422 0.499312 0
    outer loop
      vertex 131.69 -25.7525 3
      vertex 131.497 -26.0874 0
      vertex 131.497 -26.0874 3
    endloop
  endfacet
  facet normal -0.950705 -0.310097 0
    outer loop
      vertex 131.81 -24.6154 0
      vertex 131.69 -24.2475 3
      vertex 131.69 -24.2475 0
    endloop
  endfacet
  facet normal -0.950705 -0.310097 0
    outer loop
      vertex 131.69 -24.2475 3
      vertex 131.81 -24.6154 0
      vertex 131.81 -24.6154 3
    endloop
  endfacet
  facet normal 0.742857 -0.66945 0
    outer loop
      vertex 128.503 -23.9126 3
      vertex 128.762 -23.6252 0
      vertex 128.762 -23.6252 3
    endloop
  endfacet
  facet normal 0.742857 -0.66945 0
    outer loop
      vertex 128.762 -23.6252 0
      vertex 128.503 -23.9126 3
      vertex 128.503 -23.9126 0
    endloop
  endfacet
  facet normal -0.407242 -0.91332 0
    outer loop
      vertex 130.572 -23.2405 0
      vertex 130.925 -23.3979 3
      vertex 130.572 -23.2405 3
    endloop
  endfacet
  facet normal -0.407242 -0.91332 -0
    outer loop
      vertex 130.925 -23.3979 3
      vertex 130.572 -23.2405 0
      vertex 130.925 -23.3979 0
    endloop
  endfacet
  facet normal -0.994635 0.103446 0
    outer loop
      vertex 131.81 -25.3846 0
      vertex 131.85 -25 3
      vertex 131.85 -25 0
    endloop
  endfacet
  facet normal -0.994635 0.103446 0
    outer loop
      vertex 131.85 -25 3
      vertex 131.81 -25.3846 0
      vertex 131.81 -25.3846 3
    endloop
  endfacet
  facet normal 0.950705 -0.310097 0
    outer loop
      vertex 128.19 -24.6154 3
      vertex 128.31 -24.2475 0
      vertex 128.31 -24.2475 3
    endloop
  endfacet
  facet normal 0.950705 -0.310097 0
    outer loop
      vertex 128.31 -24.2475 0
      vertex 128.19 -24.6154 3
      vertex 128.19 -24.6154 0
    endloop
  endfacet
  facet normal -0.994635 -0.103446 0
    outer loop
      vertex 131.85 -25 0
      vertex 131.81 -24.6154 3
      vertex 131.81 -24.6154 0
    endloop
  endfacet
  facet normal -0.994635 -0.103446 0
    outer loop
      vertex 131.81 -24.6154 3
      vertex 131.85 -25 0
      vertex 131.85 -25 3
    endloop
  endfacet
  facet normal -0.866422 -0.499312 0
    outer loop
      vertex 131.69 -24.2475 0
      vertex 131.497 -23.9126 3
      vertex 131.497 -23.9126 0
    endloop
  endfacet
  facet normal -0.866422 -0.499312 0
    outer loop
      vertex 131.497 -23.9126 3
      vertex 131.69 -24.2475 0
      vertex 131.69 -24.2475 3
    endloop
  endfacet
  facet normal -0.950705 0.310097 0
    outer loop
      vertex 131.69 -25.7525 0
      vertex 131.81 -25.3846 3
      vertex 131.81 -25.3846 0
    endloop
  endfacet
  facet normal -0.950705 0.310097 0
    outer loop
      vertex 131.81 -25.3846 3
      vertex 131.69 -25.7525 0
      vertex 131.69 -25.7525 3
    endloop
  endfacet
  facet normal 0.407242 0.91332 -0
    outer loop
      vertex 129.428 -26.7595 0
      vertex 129.075 -26.6021 3
      vertex 129.428 -26.7595 3
    endloop
  endfacet
  facet normal 0.407242 0.91332 0
    outer loop
      vertex 129.075 -26.6021 3
      vertex 129.428 -26.7595 0
      vertex 129.075 -26.6021 0
    endloop
  endfacet
  facet normal 0.950705 0.310097 0
    outer loop
      vertex 128.31 -25.7525 3
      vertex 128.19 -25.3846 0
      vertex 128.19 -25.3846 3
    endloop
  endfacet
  facet normal 0.950705 0.310097 0
    outer loop
      vertex 128.19 -25.3846 0
      vertex 128.31 -25.7525 3
      vertex 128.31 -25.7525 0
    endloop
  endfacet
  facet normal 0.407242 -0.91332 0
    outer loop
      vertex 129.075 -23.3979 0
      vertex 129.428 -23.2405 3
      vertex 129.075 -23.3979 3
    endloop
  endfacet
  facet normal 0.407242 -0.91332 0
    outer loop
      vertex 129.428 -23.2405 3
      vertex 129.075 -23.3979 0
      vertex 129.428 -23.2405 0
    endloop
  endfacet
  facet normal 0.207519 -0.978231 0
    outer loop
      vertex 129.428 -23.2405 0
      vertex 129.807 -23.1601 3
      vertex 129.428 -23.2405 3
    endloop
  endfacet
  facet normal 0.207519 -0.978231 0
    outer loop
      vertex 129.807 -23.1601 3
      vertex 129.428 -23.2405 0
      vertex 129.807 -23.1601 0
    endloop
  endfacet
  facet normal 0.866422 -0.499312 0
    outer loop
      vertex 128.31 -24.2475 3
      vertex 128.503 -23.9126 0
      vertex 128.503 -23.9126 3
    endloop
  endfacet
  facet normal 0.866422 -0.499312 0
    outer loop
      vertex 128.503 -23.9126 0
      vertex 128.31 -24.2475 3
      vertex 128.31 -24.2475 0
    endloop
  endfacet
  facet normal -0.742857 -0.66945 0
    outer loop
      vertex 131.497 -23.9126 0
      vertex 131.238 -23.6252 3
      vertex 131.238 -23.6252 0
    endloop
  endfacet
  facet normal -0.742857 -0.66945 0
    outer loop
      vertex 131.238 -23.6252 3
      vertex 131.497 -23.9126 0
      vertex 131.497 -23.9126 3
    endloop
  endfacet
  facet normal -0.207519 -0.978231 0
    outer loop
      vertex 130.193 -23.1601 0
      vertex 130.572 -23.2405 3
      vertex 130.193 -23.1601 3
    endloop
  endfacet
  facet normal -0.207519 -0.978231 -0
    outer loop
      vertex 130.572 -23.2405 3
      vertex 130.193 -23.1601 0
      vertex 130.572 -23.2405 0
    endloop
  endfacet
  facet normal 0.207519 0.978231 -0
    outer loop
      vertex 129.807 -26.8399 0
      vertex 129.428 -26.7595 3
      vertex 129.807 -26.8399 3
    endloop
  endfacet
  facet normal 0.207519 0.978231 0
    outer loop
      vertex 129.428 -26.7595 3
      vertex 129.807 -26.8399 0
      vertex 129.428 -26.7595 0
    endloop
  endfacet
  facet normal -0.587603 0.80915 0
    outer loop
      vertex 131.238 -26.3748 0
      vertex 130.925 -26.6021 3
      vertex 131.238 -26.3748 3
    endloop
  endfacet
  facet normal -0.587603 0.80915 0
    outer loop
      vertex 130.925 -26.6021 3
      vertex 131.238 -26.3748 0
      vertex 130.925 -26.6021 0
    endloop
  endfacet
  facet normal -0.407242 0.91332 0
    outer loop
      vertex 130.925 -26.6021 0
      vertex 130.572 -26.7595 3
      vertex 130.925 -26.6021 3
    endloop
  endfacet
  facet normal -0.407242 0.91332 0
    outer loop
      vertex 130.572 -26.7595 3
      vertex 130.925 -26.6021 0
      vertex 130.572 -26.7595 0
    endloop
  endfacet
  facet normal -0.587603 -0.80915 0
    outer loop
      vertex 130.925 -23.3979 0
      vertex 131.238 -23.6252 3
      vertex 130.925 -23.3979 3
    endloop
  endfacet
  facet normal -0.587603 -0.80915 -0
    outer loop
      vertex 131.238 -23.6252 3
      vertex 130.925 -23.3979 0
      vertex 131.238 -23.6252 0
    endloop
  endfacet
  facet normal 0 1 -0
    outer loop
      vertex 130.193 -26.8399 0
      vertex 129.807 -26.8399 3
      vertex 130.193 -26.8399 3
    endloop
  endfacet
  facet normal 0 1 0
    outer loop
      vertex 129.807 -26.8399 3
      vertex 130.193 -26.8399 0
      vertex 129.807 -26.8399 0
    endloop
  endfacet
  facet normal 0.587603 -0.80915 0
    outer loop
      vertex 128.762 -23.6252 0
      vertex 129.075 -23.3979 3
      vertex 128.762 -23.6252 3
    endloop
  endfacet
  facet normal 0.587603 -0.80915 0
    outer loop
      vertex 129.075 -23.3979 3
      vertex 128.762 -23.6252 0
      vertex 129.075 -23.3979 0
    endloop
  endfacet
  facet normal -0.742857 0.66945 0
    outer loop
      vertex 131.238 -26.3748 0
      vertex 131.497 -26.0874 3
      vertex 131.497 -26.0874 0
    endloop
  endfacet
  facet normal -0.742857 0.66945 0
    outer loop
      vertex 131.497 -26.0874 3
      vertex 131.238 -26.3748 0
      vertex 131.238 -26.3748 3
    endloop
  endfacet
  facet normal 0.866422 0.499312 0
    outer loop
      vertex 128.503 -26.0874 3
      vertex 128.31 -25.7525 0
      vertex 128.31 -25.7525 3
    endloop
  endfacet
  facet normal 0.866422 0.499312 0
    outer loop
      vertex 128.31 -25.7525 0
      vertex 128.503 -26.0874 3
      vertex 128.503 -26.0874 0
    endloop
  endfacet
  facet normal 0.742857 0.66945 0
    outer loop
      vertex 128.762 -26.3748 3
      vertex 128.503 -26.0874 0
      vertex 128.503 -26.0874 3
    endloop
  endfacet
  facet normal 0.742857 0.66945 0
    outer loop
      vertex 128.503 -26.0874 0
      vertex 128.762 -26.3748 3
      vertex 128.762 -26.3748 0
    endloop
  endfacet
  facet normal -0.207519 0.978231 0
    outer loop
      vertex 130.572 -26.7595 0
      vertex 130.193 -26.8399 3
      vertex 130.572 -26.7595 3
    endloop
  endfacet
  facet normal -0.207519 0.978231 0
    outer loop
      vertex 130.193 -26.8399 3
      vertex 130.572 -26.7595 0
      vertex 130.193 -26.8399 0
    endloop
  endfacet
  facet normal 0.994635 0.103446 0
    outer loop
      vertex 128.19 -25.3846 3
      vertex 128.15 -25 0
      vertex 128.15 -25 3
    endloop
  endfacet
  facet normal 0.994635 0.103446 0
    outer loop
      vertex 128.15 -25 0
      vertex 128.19 -25.3846 3
      vertex 128.19 -25.3846 0
    endloop
  endfacet
  facet normal 0 -1 0
    outer loop
      vertex 129.807 -23.1601 0
      vertex 130.193 -23.1601 3
      vertex 129.807 -23.1601 3
    endloop
  endfacet
  facet normal 0 -1 -0
    outer loop
      vertex 130.193 -23.1601 3
      vertex 129.807 -23.1601 0
      vertex 130.193 -23.1601 0
    endloop
  endfacet
  facet normal 0.587603 0.80915 -0
    outer loop
      vertex 129.075 -26.6021 0
      vertex 128.762 -26.3748 3
      vertex 129.075 -26.6021 3
    endloop
  endfacet
  facet normal 0.587603 0.80915 0
    outer loop
      vertex 128.762 -26.3748 3
      vertex 129.075 -26.6021 0
      vertex 128.762 -26.3748 0
    endloop
  endfacet
endsolid OpenSCAD_Model
