solid OpenSCAD_Model
  facet normal 0 0 1
    outer loop
      vertex 61.4183 43.6985 3
      vertex 90.25 85 3
      vertex 61.45 44 3
    endloop
  endfacet
  facet normal 0 0 1
    outer loop
      vertex 90.25 85 3
      vertex 61.4183 44.3015 3
      vertex 61.45 44 3
    endloop
  endfacet
  facet normal 0 0 1
    outer loop
      vertex 90.25 85 3
      vertex 61.3246 44.5898 3
      vertex 61.4183 44.3015 3
    endloop
  endfacet
  facet normal 0 0 1
    outer loop
      vertex 90.25 85 3
      vertex 61.1731 44.8523 3
      vertex 61.3246 44.5898 3
    endloop
  endfacet
  facet normal 0 0 1
    outer loop
      vertex 90.25 85 3
      vertex 60.9702 45.0776 3
      vertex 61.1731 44.8523 3
    endloop
  endfacet
  facet normal 0 0 1
    outer loop
      vertex 90.25 85 3
      vertex 60.725 45.2557 3
      vertex 60.9702 45.0776 3
    endloop
  endfacet
  facet normal 0 0 1
    outer loop
      vertex 90.25 85 3
      vertex 60.4481 45.379 3
      vertex 60.725 45.2557 3
    endloop
  endfacet
  facet normal 0 0 1
    outer loop
      vertex 90.25 85 3
      vertex 60.1516 45.4421 3
      vertex 60.4481 45.379 3
    endloop
  endfacet
  facet normal 0 0 1
    outer loop
      vertex 90.25 85 3
      vertex 59.8484 45.4421 3
      vertex 60.1516 45.4421 3
    endloop
  endfacet
  facet normal 0 0 1
    outer loop
      vertex 90.25 85 3
      vertex 59.5519 45.379 3
      vertex 59.8484 45.4421 3
    endloop
  endfacet
  facet normal -0 0 1
    outer loop
      vertex -8 85 3
      vertex 59.5519 45.379 3
      vertex 90.25 85 3
    endloop
  endfacet
  facet normal 0 0 1
    outer loop
      vertex 59.5519 45.379 3
      vertex -8 85 3
      vertex 59.275 45.2557 3
    endloop
  endfacet
  facet normal 0 0 1
    outer loop
      vertex 59.275 45.2557 3
      vertex -8 85 3
      vertex 59.0298 45.0776 3
    endloop
  endfacet
  facet normal 0 0 1
    outer loop
      vertex 90.25 -33 3
      vertex 51.8096 -24.6154 3
      vertex 51.85 -25 3
    endloop
  endfacet
  facet normal 0 0 1
    outer loop
      vertex 58.5817 43.6985 3
      vertex 51.6901 -24.2475 3
      vertex 51.8096 -24.6154 3
    endloop
  endfacet
  facet normal 0 0 1
    outer loop
      vertex 58.5817 43.6985 3
      vertex 51.4967 -23.9126 3
      vertex 51.6901 -24.2475 3
    endloop
  endfacet
  facet normal 0 0 1
    outer loop
      vertex 58.5817 43.6985 3
      vertex 51.2379 -23.6252 3
      vertex 51.4967 -23.9126 3
    endloop
  endfacet
  facet normal 0 0 1
    outer loop
      vertex 1.80957 40.3846 3
      vertex 58.55 44 3
      vertex 58.5817 44.3015 3
    endloop
  endfacet
  facet normal 0 0 1
    outer loop
      vertex 58.5817 43.6985 3
      vertex 50.925 -23.3979 3
      vertex 51.2379 -23.6252 3
    endloop
  endfacet
  facet normal 0 0 1
    outer loop
      vertex 58.5817 43.6985 3
      vertex 50.5717 -23.2405 3
      vertex 50.925 -23.3979 3
    endloop
  endfacet
  facet normal 0 0 1
    outer loop
      vertex 58.5817 43.6985 3
      vertex 50.1934 -23.1601 3
      vertex 50.5717 -23.2405 3
    endloop
  endfacet
  facet normal 0 0 1
    outer loop
      vertex 58.5817 43.6985 3
      vertex 49.8066 -23.1601 3
      vertex 50.1934 -23.1601 3
    endloop
  endfacet
  facet normal 0 0 1
    outer loop
      vertex 58.5817 43.6985 3
      vertex 49.4283 -23.2405 3
      vertex 49.8066 -23.1601 3
    endloop
  endfacet
  facet normal 0 0 1
    outer loop
      vertex 58.5817 43.6985 3
      vertex 12 -13 3
      vertex 49.4283 -23.2405 3
    endloop
  endfacet
  facet normal 0 0 1
    outer loop
      vertex 49.4283 -23.2405 3
      vertex 12 -13 3
      vertex 49.075 -23.3979 3
    endloop
  endfacet
  facet normal 0 0 1
    outer loop
      vertex 49.075 -23.3979 3
      vertex 12 -13 3
      vertex 48.7621 -23.6252 3
    endloop
  endfacet
  facet normal 0 0 1
    outer loop
      vertex 48.7621 -23.6252 3
      vertex 12 -13 3
      vertex 48.5033 -23.9126 3
    endloop
  endfacet
  facet normal 0 0 1
    outer loop
      vertex 48.5033 -23.9126 3
      vertex 12 -13 3
      vertex 48.3099 -24.2475 3
    endloop
  endfacet
  facet normal 0 0 1
    outer loop
      vertex 48.1904 -24.6154 3
      vertex 12 -13 3
      vertex 48.15 -25 3
    endloop
  endfacet
  facet normal 0 0 1
    outer loop
      vertex 48.3099 -24.2475 3
      vertex 12 -13 3
      vertex 48.1904 -24.6154 3
    endloop
  endfacet
  facet normal 0 0 1
    outer loop
      vertex 1.69006 40.7525 3
      vertex 58.5817 44.3015 3
      vertex 58.6754 44.5898 3
    endloop
  endfacet
  facet normal 0 0 1
    outer loop
      vertex 1.49668 41.0874 3
      vertex 58.6754 44.5898 3
      vertex 58.8269 44.8523 3
    endloop
  endfacet
  facet normal 0 0 1
    outer loop
      vertex 59.0298 45.0776 3
      vertex -8 85 3
      vertex 58.8269 44.8523 3
    endloop
  endfacet
  facet normal 0 0 1
    outer loop
      vertex 58.5817 43.6985 3
      vertex 1.85 40 3
      vertex 1.80957 39.6154 3
    endloop
  endfacet
  facet normal 0 0 1
    outer loop
      vertex 58.55 44 3
      vertex 1.80957 40.3846 3
      vertex 1.85 40 3
    endloop
  endfacet
  facet normal 0 0 1
    outer loop
      vertex 58.5817 44.3015 3
      vertex 1.69006 40.7525 3
      vertex 1.80957 40.3846 3
    endloop
  endfacet
  facet normal 0 0 1
    outer loop
      vertex 58.6754 44.5898 3
      vertex 1.49668 41.0874 3
      vertex 1.69006 40.7525 3
    endloop
  endfacet
  facet normal 0 -0 1
    outer loop
      vertex 1.23789 41.3748 3
      vertex 58.8269 44.8523 3
      vertex -8 85 3
    endloop
  endfacet
  facet normal 0 0 1
    outer loop
      vertex 58.8269 44.8523 3
      vertex 1.23789 41.3748 3
      vertex 1.49668 41.0874 3
    endloop
  endfacet
  facet normal 0 0 1
    outer loop
      vertex 1.23789 41.3748 3
      vertex -8 85 3
      vertex 0.924999 41.6021 3
    endloop
  endfacet
  facet normal 0 0 1
    outer loop
      vertex 0.924999 41.6021 3
      vertex -8 85 3
      vertex 0.571681 41.7595 3
    endloop
  endfacet
  facet normal 0 0 1
    outer loop
      vertex 0.571681 41.7595 3
      vertex -8 85 3
      vertex 0.193377 41.8399 3
    endloop
  endfacet
  facet normal 0 0 1
    outer loop
      vertex 0.193377 41.8399 3
      vertex -8 85 3
      vertex -0.193377 41.8399 3
    endloop
  endfacet
  facet normal 0 0 1
    outer loop
      vertex -0.193377 41.8399 3
      vertex -8 85 3
      vertex -0.571681 41.7595 3
    endloop
  endfacet
  facet normal 0 0 1
    outer loop
      vertex -1.80957 40.3846 3
      vertex -8 85 3
      vertex -1.85 40 3
    endloop
  endfacet
  facet normal 0 0 1
    outer loop
      vertex -1.69006 40.7525 3
      vertex -8 85 3
      vertex -1.80957 40.3846 3
    endloop
  endfacet
  facet normal 0 0 1
    outer loop
      vertex -1.49668 41.0874 3
      vertex -8 85 3
      vertex -1.69006 40.7525 3
    endloop
  endfacet
  facet normal 0 0 1
    outer loop
      vertex -1.23789 41.3748 3
      vertex -8 85 3
      vertex -1.49668 41.0874 3
    endloop
  endfacet
  facet normal 0 0 1
    outer loop
      vertex -0.924999 41.6021 3
      vertex -8 85 3
      vertex -1.23789 41.3748 3
    endloop
  endfacet
  facet normal 0 0 1
    outer loop
      vertex -0.571681 41.7595 3
      vertex -8 85 3
      vertex -0.924999 41.6021 3
    endloop
  endfacet
  facet normal 0 0 1
    outer loop
      vertex 90.25 85 3
      vertex 61.4183 43.6985 3
      vertex 90.25 -33 3
    endloop
  endfacet
  facet normal -0 0 1
    outer loop
      vertex 61.3246 43.4102 3
      vertex 90.25 -33 3
      vertex 61.4183 43.6985 3
    endloop
  endfacet
  facet normal -0 0 1
    outer loop
      vertex 61.1731 43.1477 3
      vertex 90.25 -33 3
      vertex 61.3246 43.4102 3
    endloop
  endfacet
  facet normal -0 0 1
    outer loop
      vertex 60.9702 42.9224 3
      vertex 90.25 -33 3
      vertex 61.1731 43.1477 3
    endloop
  endfacet
  facet normal -0 0 1
    outer loop
      vertex 60.725 42.7443 3
      vertex 90.25 -33 3
      vertex 60.9702 42.9224 3
    endloop
  endfacet
  facet normal 0 0 1
    outer loop
      vertex 51.8096 -24.6154 3
      vertex 60.725 42.7443 3
      vertex 60.4481 42.621 3
    endloop
  endfacet
  facet normal 0 0 1
    outer loop
      vertex 51.8096 -24.6154 3
      vertex 60.4481 42.621 3
      vertex 60.1516 42.5579 3
    endloop
  endfacet
  facet normal 0 0 1
    outer loop
      vertex 51.8096 -24.6154 3
      vertex 60.1516 42.5579 3
      vertex 59.8484 42.5579 3
    endloop
  endfacet
  facet normal 0 0 1
    outer loop
      vertex 51.8096 -24.6154 3
      vertex 59.8484 42.5579 3
      vertex 59.5519 42.621 3
    endloop
  endfacet
  facet normal 0 0 1
    outer loop
      vertex 51.8096 -24.6154 3
      vertex 59.5519 42.621 3
      vertex 59.275 42.7443 3
    endloop
  endfacet
  facet normal 0 0 1
    outer loop
      vertex 51.8096 -24.6154 3
      vertex 59.275 42.7443 3
      vertex 59.0298 42.9224 3
    endloop
  endfacet
  facet normal 0 0 1
    outer loop
      vertex 51.8096 -24.6154 3
      vertex 59.0298 42.9224 3
      vertex 58.8269 43.1477 3
    endloop
  endfacet
  facet normal 0 0 1
    outer loop
      vertex 51.8096 -24.6154 3
      vertex 58.8269 43.1477 3
      vertex 58.6754 43.4102 3
    endloop
  endfacet
  facet normal 0 0 1
    outer loop
      vertex 1.85 40 3
      vertex 58.5817 43.6985 3
      vertex 58.55 44 3
    endloop
  endfacet
  facet normal 0 0 1
    outer loop
      vertex 51.8096 -24.6154 3
      vertex 58.6754 43.4102 3
      vertex 58.5817 43.6985 3
    endloop
  endfacet
  facet normal -0 0 1
    outer loop
      vertex 51.8096 -24.6154 3
      vertex 90.25 -33 3
      vertex 60.725 42.7443 3
    endloop
  endfacet
  facet normal -0 0 1
    outer loop
      vertex 51.8096 -25.3846 3
      vertex 90.25 -33 3
      vertex 51.85 -25 3
    endloop
  endfacet
  facet normal -0 0 1
    outer loop
      vertex 51.6901 -25.7525 3
      vertex 90.25 -33 3
      vertex 51.8096 -25.3846 3
    endloop
  endfacet
  facet normal -0 0 1
    outer loop
      vertex 51.4967 -26.0874 3
      vertex 90.25 -33 3
      vertex 51.6901 -25.7525 3
    endloop
  endfacet
  facet normal -0 0 1
    outer loop
      vertex 51.2379 -26.3748 3
      vertex 90.25 -33 3
      vertex 51.4967 -26.0874 3
    endloop
  endfacet
  facet normal -0 0 1
    outer loop
      vertex 50.925 -26.6021 3
      vertex 90.25 -33 3
      vertex 51.2379 -26.3748 3
    endloop
  endfacet
  facet normal -0 0 1
    outer loop
      vertex 50.5717 -26.7595 3
      vertex 90.25 -33 3
      vertex 50.925 -26.6021 3
    endloop
  endfacet
  facet normal -0 0 1
    outer loop
      vertex 50.1934 -26.8399 3
      vertex 90.25 -33 3
      vertex 50.5717 -26.7595 3
    endloop
  endfacet
  facet normal -0 0 1
    outer loop
      vertex 49.8066 -26.8399 3
      vertex 90.25 -33 3
      vertex 50.1934 -26.8399 3
    endloop
  endfacet
  facet normal 0 0 1
    outer loop
      vertex 12 -33 3
      vertex 48.15 -25 3
      vertex 12 -13 3
    endloop
  endfacet
  facet normal 0 0 1
    outer loop
      vertex 48.15 -25 3
      vertex 12 -33 3
      vertex 48.1904 -25.3846 3
    endloop
  endfacet
  facet normal 0 0 1
    outer loop
      vertex 48.1904 -25.3846 3
      vertex 12 -33 3
      vertex 48.3099 -25.7525 3
    endloop
  endfacet
  facet normal 0 0 1
    outer loop
      vertex 48.3099 -25.7525 3
      vertex 12 -33 3
      vertex 48.5033 -26.0874 3
    endloop
  endfacet
  facet normal 0 0 1
    outer loop
      vertex 48.5033 -26.0874 3
      vertex 12 -33 3
      vertex 48.7621 -26.3748 3
    endloop
  endfacet
  facet normal 0 0 1
    outer loop
      vertex 48.7621 -26.3748 3
      vertex 12 -33 3
      vertex 49.075 -26.6021 3
    endloop
  endfacet
  facet normal 0 0 1
    outer loop
      vertex 49.8066 -26.8399 3
      vertex 12 -33 3
      vertex 90.25 -33 3
    endloop
  endfacet
  facet normal 0 0 1
    outer loop
      vertex 49.4283 -26.7595 3
      vertex 12 -33 3
      vertex 49.8066 -26.8399 3
    endloop
  endfacet
  facet normal 0 0 1
    outer loop
      vertex 49.075 -26.6021 3
      vertex 12 -33 3
      vertex 49.4283 -26.7595 3
    endloop
  endfacet
  facet normal 0 0 1
    outer loop
      vertex 58.5817 43.6985 3
      vertex 1.80957 39.6154 3
      vertex 1.69006 39.2475 3
    endloop
  endfacet
  facet normal 0 0 1
    outer loop
      vertex 58.5817 43.6985 3
      vertex 1.69006 39.2475 3
      vertex 1.49668 38.9126 3
    endloop
  endfacet
  facet normal 0 0 1
    outer loop
      vertex 58.5817 43.6985 3
      vertex 1.49668 38.9126 3
      vertex 12 -13 3
    endloop
  endfacet
  facet normal -0 0 1
    outer loop
      vertex 1.23789 38.6252 3
      vertex 12 -13 3
      vertex 1.49668 38.9126 3
    endloop
  endfacet
  facet normal -0 0 1
    outer loop
      vertex 0.924999 38.3979 3
      vertex 12 -13 3
      vertex 1.23789 38.6252 3
    endloop
  endfacet
  facet normal -0 0 1
    outer loop
      vertex 0.571681 38.2405 3
      vertex 12 -13 3
      vertex 0.924999 38.3979 3
    endloop
  endfacet
  facet normal -0 0 1
    outer loop
      vertex 0.193377 38.1601 3
      vertex 12 -13 3
      vertex 0.571681 38.2405 3
    endloop
  endfacet
  facet normal 0 0 1
    outer loop
      vertex -8 -13 3
      vertex 0.193377 38.1601 3
      vertex -0.193377 38.1601 3
    endloop
  endfacet
  facet normal 0 0 1
    outer loop
      vertex -8 -13 3
      vertex -0.193377 38.1601 3
      vertex -0.571681 38.2405 3
    endloop
  endfacet
  facet normal 0 0 1
    outer loop
      vertex -8 -13 3
      vertex -0.571681 38.2405 3
      vertex -0.924999 38.3979 3
    endloop
  endfacet
  facet normal 0 0 1
    outer loop
      vertex -8 -13 3
      vertex -0.924999 38.3979 3
      vertex -1.23789 38.6252 3
    endloop
  endfacet
  facet normal 0 0 1
    outer loop
      vertex -8 -13 3
      vertex -1.23789 38.6252 3
      vertex -1.49668 38.9126 3
    endloop
  endfacet
  facet normal 0 0 1
    outer loop
      vertex -8 -13 3
      vertex -1.49668 38.9126 3
      vertex -1.69006 39.2475 3
    endloop
  endfacet
  facet normal 0 0 1
    outer loop
      vertex -8 -13 3
      vertex -1.69006 39.2475 3
      vertex -1.80957 39.6154 3
    endloop
  endfacet
  facet normal 0 0 1
    outer loop
      vertex -8 -13 3
      vertex -1.85 40 3
      vertex -8 85 3
    endloop
  endfacet
  facet normal 0 0 1
    outer loop
      vertex 0.193377 38.1601 3
      vertex -8 -13 3
      vertex 12 -13 3
    endloop
  endfacet
  facet normal 0 0 1
    outer loop
      vertex -1.85 40 3
      vertex -8 -13 3
      vertex -1.80957 39.6154 3
    endloop
  endfacet
  facet normal 0 0 -1
    outer loop
      vertex 58.5817 43.6985 0
      vertex 1.80957 39.6154 0
      vertex 1.85 40 0
    endloop
  endfacet
  facet normal 0 0 -1
    outer loop
      vertex 58.8269 43.1477 0
      vertex 1.69006 39.2475 0
      vertex 1.80957 39.6154 0
    endloop
  endfacet
  facet normal 0 0 -1
    outer loop
      vertex 58.8269 43.1477 0
      vertex 1.49668 38.9126 0
      vertex 1.69006 39.2475 0
    endloop
  endfacet
  facet normal 0 0 -1
    outer loop
      vertex 12 -13 0
      vertex 1.23789 38.6252 0
      vertex 1.49668 38.9126 0
    endloop
  endfacet
  facet normal 0 0 -1
    outer loop
      vertex 12 -13 0
      vertex 0.924999 38.3979 0
      vertex 1.23789 38.6252 0
    endloop
  endfacet
  facet normal 0 0 -1
    outer loop
      vertex 12 -13 0
      vertex 0.571681 38.2405 0
      vertex 0.924999 38.3979 0
    endloop
  endfacet
  facet normal 0 0 -1
    outer loop
      vertex 12 -13 0
      vertex 0.193377 38.1601 0
      vertex 0.571681 38.2405 0
    endloop
  endfacet
  facet normal 0 0 -1
    outer loop
      vertex -8 -13 0
      vertex 0.193377 38.1601 0
      vertex 12 -13 0
    endloop
  endfacet
  facet normal -0 0 -1
    outer loop
      vertex 0.193377 38.1601 0
      vertex -8 -13 0
      vertex -0.193377 38.1601 0
    endloop
  endfacet
  facet normal -0 0 -1
    outer loop
      vertex -0.193377 38.1601 0
      vertex -8 -13 0
      vertex -0.571681 38.2405 0
    endloop
  endfacet
  facet normal -0 0 -1
    outer loop
      vertex -0.571681 38.2405 0
      vertex -8 -13 0
      vertex -0.924999 38.3979 0
    endloop
  endfacet
  facet normal -0 0 -1
    outer loop
      vertex -0.924999 38.3979 0
      vertex -8 -13 0
      vertex -1.23789 38.6252 0
    endloop
  endfacet
  facet normal -0 0 -1
    outer loop
      vertex -1.23789 38.6252 0
      vertex -8 -13 0
      vertex -1.49668 38.9126 0
    endloop
  endfacet
  facet normal -0 0 -1
    outer loop
      vertex -1.49668 38.9126 0
      vertex -8 -13 0
      vertex -1.69006 39.2475 0
    endloop
  endfacet
  facet normal -0 0 -1
    outer loop
      vertex -1.80957 39.6154 0
      vertex -8 -13 0
      vertex -1.85 40 0
    endloop
  endfacet
  facet normal -0 0 -1
    outer loop
      vertex -1.69006 39.2475 0
      vertex -8 -13 0
      vertex -1.80957 39.6154 0
    endloop
  endfacet
  facet normal 0 0 -1
    outer loop
      vertex 61.4183 43.6985 0
      vertex 90.25 85 0
      vertex 90.25 -33 0
    endloop
  endfacet
  facet normal 0 0 -1
    outer loop
      vertex 90.25 85 0
      vertex 61.4183 43.6985 0
      vertex 61.45 44 0
    endloop
  endfacet
  facet normal 0 0 -1
    outer loop
      vertex 90.25 -33 0
      vertex 61.3246 43.4102 0
      vertex 61.4183 43.6985 0
    endloop
  endfacet
  facet normal 0 0 -1
    outer loop
      vertex 90.25 -33 0
      vertex 61.1731 43.1477 0
      vertex 61.3246 43.4102 0
    endloop
  endfacet
  facet normal 0 0 -1
    outer loop
      vertex 90.25 -33 0
      vertex 60.9702 42.9224 0
      vertex 61.1731 43.1477 0
    endloop
  endfacet
  facet normal 0 0 -1
    outer loop
      vertex 90.25 -33 0
      vertex 60.725 42.7443 0
      vertex 60.9702 42.9224 0
    endloop
  endfacet
  facet normal 0 0 -1
    outer loop
      vertex 51.2379 -23.6252 0
      vertex 60.725 42.7443 0
      vertex 90.25 -33 0
    endloop
  endfacet
  facet normal 0 0 -1
    outer loop
      vertex 60.725 42.7443 0
      vertex 51.2379 -23.6252 0
      vertex 60.4481 42.621 0
    endloop
  endfacet
  facet normal 0 0 -1
    outer loop
      vertex 50.925 -23.3979 0
      vertex 60.4481 42.621 0
      vertex 51.2379 -23.6252 0
    endloop
  endfacet
  facet normal 0 0 -1
    outer loop
      vertex 60.4481 42.621 0
      vertex 50.925 -23.3979 0
      vertex 60.1516 42.5579 0
    endloop
  endfacet
  facet normal 0 0 -1
    outer loop
      vertex 50.5717 -23.2405 0
      vertex 60.1516 42.5579 0
      vertex 50.925 -23.3979 0
    endloop
  endfacet
  facet normal -0 0 -1
    outer loop
      vertex 60.1516 42.5579 0
      vertex 50.5717 -23.2405 0
      vertex 59.8484 42.5579 0
    endloop
  endfacet
  facet normal 0 0 -1
    outer loop
      vertex 50.1934 -23.1601 0
      vertex 59.8484 42.5579 0
      vertex 50.5717 -23.2405 0
    endloop
  endfacet
  facet normal -0 0 -1
    outer loop
      vertex 59.8484 42.5579 0
      vertex 50.1934 -23.1601 0
      vertex 59.5519 42.621 0
    endloop
  endfacet
  facet normal 0 0 -1
    outer loop
      vertex 51.4967 -23.9126 0
      vertex 90.25 -33 0
      vertex 51.6901 -24.2475 0
    endloop
  endfacet
  facet normal 0 0 -1
    outer loop
      vertex 51.6901 -24.2475 0
      vertex 90.25 -33 0
      vertex 51.8096 -24.6154 0
    endloop
  endfacet
  facet normal 0 0 -1
    outer loop
      vertex 51.8096 -24.6154 0
      vertex 90.25 -33 0
      vertex 51.85 -25 0
    endloop
  endfacet
  facet normal 0 0 -1
    outer loop
      vertex 90.25 -33 0
      vertex 51.8096 -25.3846 0
      vertex 51.85 -25 0
    endloop
  endfacet
  facet normal 0 0 -1
    outer loop
      vertex 90.25 -33 0
      vertex 51.6901 -25.7525 0
      vertex 51.8096 -25.3846 0
    endloop
  endfacet
  facet normal 0 0 -1
    outer loop
      vertex 90.25 -33 0
      vertex 51.4967 -26.0874 0
      vertex 51.6901 -25.7525 0
    endloop
  endfacet
  facet normal 0 0 -1
    outer loop
      vertex 90.25 -33 0
      vertex 51.2379 -26.3748 0
      vertex 51.4967 -26.0874 0
    endloop
  endfacet
  facet normal 0 0 -1
    outer loop
      vertex 90.25 -33 0
      vertex 50.925 -26.6021 0
      vertex 51.2379 -26.3748 0
    endloop
  endfacet
  facet normal 0 0 -1
    outer loop
      vertex 90.25 -33 0
      vertex 50.5717 -26.7595 0
      vertex 50.925 -26.6021 0
    endloop
  endfacet
  facet normal 0 0 -1
    outer loop
      vertex 90.25 -33 0
      vertex 50.1934 -26.8399 0
      vertex 50.5717 -26.7595 0
    endloop
  endfacet
  facet normal 0 0 -1
    outer loop
      vertex 90.25 -33 0
      vertex 49.8066 -26.8399 0
      vertex 50.1934 -26.8399 0
    endloop
  endfacet
  facet normal -0 0 -1
    outer loop
      vertex 48.1904 -25.3846 0
      vertex 12 -33 0
      vertex 48.15 -25 0
    endloop
  endfacet
  facet normal -0 0 -1
    outer loop
      vertex 48.3099 -25.7525 0
      vertex 12 -33 0
      vertex 48.1904 -25.3846 0
    endloop
  endfacet
  facet normal -0 0 -1
    outer loop
      vertex 48.5033 -26.0874 0
      vertex 12 -33 0
      vertex 48.3099 -25.7525 0
    endloop
  endfacet
  facet normal -0 0 -1
    outer loop
      vertex 48.7621 -26.3748 0
      vertex 12 -33 0
      vertex 48.5033 -26.0874 0
    endloop
  endfacet
  facet normal -0 0 -1
    outer loop
      vertex 49.075 -26.6021 0
      vertex 12 -33 0
      vertex 48.7621 -26.3748 0
    endloop
  endfacet
  facet normal -0 0 -1
    outer loop
      vertex 49.4283 -26.7595 0
      vertex 12 -33 0
      vertex 49.075 -26.6021 0
    endloop
  endfacet
  facet normal -0 0 -1
    outer loop
      vertex 49.8066 -26.8399 0
      vertex 12 -33 0
      vertex 49.4283 -26.7595 0
    endloop
  endfacet
  facet normal 0 0 -1
    outer loop
      vertex 12 -33 0
      vertex 49.8066 -26.8399 0
      vertex 90.25 -33 0
    endloop
  endfacet
  facet normal 0 0 -1
    outer loop
      vertex 61.4183 44.3015 0
      vertex 90.25 85 0
      vertex 61.45 44 0
    endloop
  endfacet
  facet normal 0 0 -1
    outer loop
      vertex 61.3246 44.5898 0
      vertex 90.25 85 0
      vertex 61.4183 44.3015 0
    endloop
  endfacet
  facet normal 0 0 -1
    outer loop
      vertex 61.1731 44.8523 0
      vertex 90.25 85 0
      vertex 61.3246 44.5898 0
    endloop
  endfacet
  facet normal 0 0 -1
    outer loop
      vertex 60.9702 45.0776 0
      vertex 90.25 85 0
      vertex 61.1731 44.8523 0
    endloop
  endfacet
  facet normal 0 0 -1
    outer loop
      vertex 60.725 45.2557 0
      vertex 90.25 85 0
      vertex 60.9702 45.0776 0
    endloop
  endfacet
  facet normal 0 0 -1
    outer loop
      vertex 60.4481 45.379 0
      vertex 90.25 85 0
      vertex 60.725 45.2557 0
    endloop
  endfacet
  facet normal 0 0 -1
    outer loop
      vertex 60.1516 45.4421 0
      vertex 90.25 85 0
      vertex 60.4481 45.379 0
    endloop
  endfacet
  facet normal 0 0 -1
    outer loop
      vertex 59.8484 45.4421 0
      vertex 90.25 85 0
      vertex 60.1516 45.4421 0
    endloop
  endfacet
  facet normal 0 0 -1
    outer loop
      vertex 59.5519 45.379 0
      vertex 90.25 85 0
      vertex 59.8484 45.4421 0
    endloop
  endfacet
  facet normal 0 0 -1
    outer loop
      vertex -8 85 0
      vertex 59.5519 45.379 0
      vertex 59.275 45.2557 0
    endloop
  endfacet
  facet normal 0 0 -1
    outer loop
      vertex -8 85 0
      vertex 59.275 45.2557 0
      vertex 59.0298 45.0776 0
    endloop
  endfacet
  facet normal 0 0 -1
    outer loop
      vertex -8 85 0
      vertex 59.0298 45.0776 0
      vertex 58.8269 44.8523 0
    endloop
  endfacet
  facet normal 0 0 -1
    outer loop
      vertex 51.2379 -23.6252 0
      vertex 90.25 -33 0
      vertex 51.4967 -23.9126 0
    endloop
  endfacet
  facet normal 0 0 -1
    outer loop
      vertex 49.8066 -23.1601 0
      vertex 59.5519 42.621 0
      vertex 50.1934 -23.1601 0
    endloop
  endfacet
  facet normal -0 0 -1
    outer loop
      vertex 59.5519 42.621 0
      vertex 49.8066 -23.1601 0
      vertex 59.275 42.7443 0
    endloop
  endfacet
  facet normal 0 0 -1
    outer loop
      vertex 49.4283 -23.2405 0
      vertex 59.275 42.7443 0
      vertex 49.8066 -23.1601 0
    endloop
  endfacet
  facet normal 0 0 -1
    outer loop
      vertex 12 -13 0
      vertex 59.275 42.7443 0
      vertex 49.4283 -23.2405 0
    endloop
  endfacet
  facet normal -0 0 -1
    outer loop
      vertex 59.275 42.7443 0
      vertex 12 -13 0
      vertex 59.0298 42.9224 0
    endloop
  endfacet
  facet normal 0 0 -1
    outer loop
      vertex 1.49668 38.9126 0
      vertex 59.0298 42.9224 0
      vertex 12 -13 0
    endloop
  endfacet
  facet normal -0 0 -1
    outer loop
      vertex 59.0298 42.9224 0
      vertex 1.49668 38.9126 0
      vertex 58.8269 43.1477 0
    endloop
  endfacet
  facet normal 0 0 -1
    outer loop
      vertex 1.80957 39.6154 0
      vertex 58.6754 43.4102 0
      vertex 58.8269 43.1477 0
    endloop
  endfacet
  facet normal 0 0 -1
    outer loop
      vertex 1.80957 39.6154 0
      vertex 58.5817 43.6985 0
      vertex 58.6754 43.4102 0
    endloop
  endfacet
  facet normal 0 0 -1
    outer loop
      vertex 12 -13 0
      vertex 49.4283 -23.2405 0
      vertex 49.075 -23.3979 0
    endloop
  endfacet
  facet normal 0 0 -1
    outer loop
      vertex 12 -13 0
      vertex 49.075 -23.3979 0
      vertex 48.7621 -23.6252 0
    endloop
  endfacet
  facet normal 0 0 -1
    outer loop
      vertex 12 -13 0
      vertex 48.7621 -23.6252 0
      vertex 48.5033 -23.9126 0
    endloop
  endfacet
  facet normal 0 0 -1
    outer loop
      vertex 12 -13 0
      vertex 48.5033 -23.9126 0
      vertex 48.3099 -24.2475 0
    endloop
  endfacet
  facet normal 0 0 -1
    outer loop
      vertex 12 -13 0
      vertex 48.3099 -24.2475 0
      vertex 48.1904 -24.6154 0
    endloop
  endfacet
  facet normal 0 0 -1
    outer loop
      vertex 12 -13 0
      vertex 48.15 -25 0
      vertex 12 -33 0
    endloop
  endfacet
  facet normal 0 0 -1
    outer loop
      vertex 48.15 -25 0
      vertex 12 -13 0
      vertex 48.1904 -24.6154 0
    endloop
  endfacet
  facet normal -0 0 -1
    outer loop
      vertex 58.5817 43.6985 0
      vertex 1.85 40 0
      vertex 58.55 44 0
    endloop
  endfacet
  facet normal 0 0 -1
    outer loop
      vertex 1.80957 40.3846 0
      vertex 58.55 44 0
      vertex 1.85 40 0
    endloop
  endfacet
  facet normal -0 0 -1
    outer loop
      vertex 58.55 44 0
      vertex 1.80957 40.3846 0
      vertex 58.5817 44.3015 0
    endloop
  endfacet
  facet normal 0 0 -1
    outer loop
      vertex 1.69006 40.7525 0
      vertex 58.5817 44.3015 0
      vertex 1.80957 40.3846 0
    endloop
  endfacet
  facet normal -0 0 -1
    outer loop
      vertex 58.5817 44.3015 0
      vertex 1.69006 40.7525 0
      vertex 58.6754 44.5898 0
    endloop
  endfacet
  facet normal 0 0 -1
    outer loop
      vertex 1.49668 41.0874 0
      vertex 58.6754 44.5898 0
      vertex 1.69006 40.7525 0
    endloop
  endfacet
  facet normal -0 0 -1
    outer loop
      vertex 58.6754 44.5898 0
      vertex 1.49668 41.0874 0
      vertex 58.8269 44.8523 0
    endloop
  endfacet
  facet normal 0 0 -1
    outer loop
      vertex 1.23789 41.3748 0
      vertex 58.8269 44.8523 0
      vertex 1.49668 41.0874 0
    endloop
  endfacet
  facet normal -0 0 -1
    outer loop
      vertex 58.8269 44.8523 0
      vertex 1.23789 41.3748 0
      vertex -8 85 0
    endloop
  endfacet
  facet normal 0 0 -1
    outer loop
      vertex -8 85 0
      vertex 1.23789 41.3748 0
      vertex 0.924999 41.6021 0
    endloop
  endfacet
  facet normal 0 0 -1
    outer loop
      vertex -8 85 0
      vertex 0.924999 41.6021 0
      vertex 0.571681 41.7595 0
    endloop
  endfacet
  facet normal 0 0 -1
    outer loop
      vertex -8 85 0
      vertex 0.571681 41.7595 0
      vertex 0.193377 41.8399 0
    endloop
  endfacet
  facet normal 0 0 -1
    outer loop
      vertex -8 85 0
      vertex 0.193377 41.8399 0
      vertex -0.193377 41.8399 0
    endloop
  endfacet
  facet normal 0 0 -1
    outer loop
      vertex -8 85 0
      vertex -0.193377 41.8399 0
      vertex -0.571681 41.7595 0
    endloop
  endfacet
  facet normal 0 0 -1
    outer loop
      vertex -8 85 0
      vertex -0.571681 41.7595 0
      vertex -0.924999 41.6021 0
    endloop
  endfacet
  facet normal 0 0 -1
    outer loop
      vertex -8 85 0
      vertex -1.85 40 0
      vertex -8 -13 0
    endloop
  endfacet
  facet normal 0 0 -1
    outer loop
      vertex 59.5519 45.379 0
      vertex -8 85 0
      vertex 90.25 85 0
    endloop
  endfacet
  facet normal 0 0 -1
    outer loop
      vertex -1.23789 41.3748 0
      vertex -8 85 0
      vertex -0.924999 41.6021 0
    endloop
  endfacet
  facet normal 0 0 -1
    outer loop
      vertex -1.49668 41.0874 0
      vertex -8 85 0
      vertex -1.23789 41.3748 0
    endloop
  endfacet
  facet normal 0 0 -1
    outer loop
      vertex -1.69006 40.7525 0
      vertex -8 85 0
      vertex -1.49668 41.0874 0
    endloop
  endfacet
  facet normal 0 0 -1
    outer loop
      vertex -1.80957 40.3846 0
      vertex -8 85 0
      vertex -1.69006 40.7525 0
    endloop
  endfacet
  facet normal 0 0 -1
    outer loop
      vertex -1.85 40 0
      vertex -8 85 0
      vertex -1.80957 40.3846 0
    endloop
  endfacet
  facet normal -1 0 0
    outer loop
      vertex -8 -13 0
      vertex -8 85 3
      vertex -8 85 0
    endloop
  endfacet
  facet normal -1 -0 0
    outer loop
      vertex -8 85 3
      vertex -8 -13 0
      vertex -8 -13 3
    endloop
  endfacet
  facet normal 0 -1 0
    outer loop
      vertex -8 -13 0
      vertex 12 -13 3
      vertex -8 -13 3
    endloop
  endfacet
  facet normal 0 -1 -0
    outer loop
      vertex 12 -13 3
      vertex -8 -13 0
      vertex 12 -13 0
    endloop
  endfacet
  facet normal -1 0 0
    outer loop
      vertex 12 -33 0
      vertex 12 -13 3
      vertex 12 -13 0
    endloop
  endfacet
  facet normal -1 -0 0
    outer loop
      vertex 12 -13 3
      vertex 12 -33 0
      vertex 12 -33 3
    endloop
  endfacet
  facet normal 0 -1 0
    outer loop
      vertex 12 -33 0
      vertex 90.25 -33 3
      vertex 12 -33 3
    endloop
  endfacet
  facet normal 0 -1 -0
    outer loop
      vertex 90.25 -33 3
      vertex 12 -33 0
      vertex 90.25 -33 0
    endloop
  endfacet
  facet normal -0.951032 -0.309094 0
    outer loop
      vertex 61.4183 44.3015 0
      vertex 61.3246 44.5898 3
      vertex 61.3246 44.5898 0
    endloop
  endfacet
  facet normal -0.951032 -0.309094 0
    outer loop
      vertex 61.3246 44.5898 3
      vertex 61.4183 44.3015 0
      vertex 61.4183 44.3015 3
    endloop
  endfacet
  facet normal -0.994518 -0.104565 0
    outer loop
      vertex 61.45 44 0
      vertex 61.4183 44.3015 3
      vertex 61.4183 44.3015 0
    endloop
  endfacet
  facet normal -0.994518 -0.104565 0
    outer loop
      vertex 61.4183 44.3015 3
      vertex 61.45 44 0
      vertex 61.45 44 3
    endloop
  endfacet
  facet normal -0.866103 -0.499865 0
    outer loop
      vertex 61.3246 44.5898 0
      vertex 61.1731 44.8523 3
      vertex 61.1731 44.8523 0
    endloop
  endfacet
  facet normal -0.866103 -0.499865 0
    outer loop
      vertex 61.1731 44.8523 3
      vertex 61.3246 44.5898 0
      vertex 61.3246 44.5898 3
    endloop
  endfacet
  facet normal 0.406781 -0.913526 0
    outer loop
      vertex 59.275 45.2557 0
      vertex 59.5519 45.379 3
      vertex 59.275 45.2557 3
    endloop
  endfacet
  facet normal 0.406781 -0.913526 0
    outer loop
      vertex 59.5519 45.379 3
      vertex 59.275 45.2557 0
      vertex 59.5519 45.379 0
    endloop
  endfacet
  facet normal -0.406781 -0.913526 0
    outer loop
      vertex 60.4481 45.379 0
      vertex 60.725 45.2557 3
      vertex 60.4481 45.379 3
    endloop
  endfacet
  facet normal -0.406781 -0.913526 -0
    outer loop
      vertex 60.725 45.2557 3
      vertex 60.4481 45.379 0
      vertex 60.725 45.2557 0
    endloop
  endfacet
  facet normal -0.994518 0.104565 0
    outer loop
      vertex 61.4183 43.6985 0
      vertex 61.45 44 3
      vertex 61.45 44 0
    endloop
  endfacet
  facet normal -0.994518 0.104565 0
    outer loop
      vertex 61.45 44 3
      vertex 61.4183 43.6985 0
      vertex 61.4183 43.6985 3
    endloop
  endfacet
  facet normal 0.743081 -0.669202 0
    outer loop
      vertex 58.8269 44.8523 3
      vertex 59.0298 45.0776 0
      vertex 59.0298 45.0776 3
    endloop
  endfacet
  facet normal 0.743081 -0.669202 0
    outer loop
      vertex 59.0298 45.0776 0
      vertex 58.8269 44.8523 3
      vertex 58.8269 44.8523 0
    endloop
  endfacet
  facet normal 0.587681 -0.809093 0
    outer loop
      vertex 59.0298 45.0776 0
      vertex 59.275 45.2557 3
      vertex 59.0298 45.0776 3
    endloop
  endfacet
  facet normal 0.587681 -0.809093 0
    outer loop
      vertex 59.275 45.2557 3
      vertex 59.0298 45.0776 0
      vertex 59.275 45.2557 0
    endloop
  endfacet
  facet normal -0.743081 -0.669202 0
    outer loop
      vertex 61.1731 44.8523 0
      vertex 60.9702 45.0776 3
      vertex 60.9702 45.0776 0
    endloop
  endfacet
  facet normal -0.743081 -0.669202 0
    outer loop
      vertex 60.9702 45.0776 3
      vertex 61.1731 44.8523 0
      vertex 61.1731 44.8523 3
    endloop
  endfacet
  facet normal -0.951032 0.309094 0
    outer loop
      vertex 61.3246 43.4102 0
      vertex 61.4183 43.6985 3
      vertex 61.4183 43.6985 0
    endloop
  endfacet
  facet normal -0.951032 0.309094 0
    outer loop
      vertex 61.4183 43.6985 3
      vertex 61.3246 43.4102 0
      vertex 61.3246 43.4102 3
    endloop
  endfacet
  facet normal 0.406781 0.913526 -0
    outer loop
      vertex 59.5519 42.621 0
      vertex 59.275 42.7443 3
      vertex 59.5519 42.621 3
    endloop
  endfacet
  facet normal 0.406781 0.913526 0
    outer loop
      vertex 59.275 42.7443 3
      vertex 59.5519 42.621 0
      vertex 59.275 42.7443 0
    endloop
  endfacet
  facet normal 0.866103 0.499865 0
    outer loop
      vertex 58.8269 43.1477 3
      vertex 58.6754 43.4102 0
      vertex 58.6754 43.4102 3
    endloop
  endfacet
  facet normal 0.866103 0.499865 0
    outer loop
      vertex 58.6754 43.4102 0
      vertex 58.8269 43.1477 3
      vertex 58.8269 43.1477 0
    endloop
  endfacet
  facet normal 0.951032 -0.309094 0
    outer loop
      vertex 58.5817 44.3015 3
      vertex 58.6754 44.5898 0
      vertex 58.6754 44.5898 3
    endloop
  endfacet
  facet normal 0.951032 -0.309094 0
    outer loop
      vertex 58.6754 44.5898 0
      vertex 58.5817 44.3015 3
      vertex 58.5817 44.3015 0
    endloop
  endfacet
  facet normal 0.208155 0.978096 -0
    outer loop
      vertex 59.8484 42.5579 0
      vertex 59.5519 42.621 3
      vertex 59.8484 42.5579 3
    endloop
  endfacet
  facet normal 0.208155 0.978096 0
    outer loop
      vertex 59.5519 42.621 3
      vertex 59.8484 42.5579 0
      vertex 59.5519 42.621 0
    endloop
  endfacet
  facet normal 0.951032 0.309094 0
    outer loop
      vertex 58.6754 43.4102 3
      vertex 58.5817 43.6985 0
      vertex 58.5817 43.6985 3
    endloop
  endfacet
  facet normal 0.951032 0.309094 0
    outer loop
      vertex 58.5817 43.6985 0
      vertex 58.6754 43.4102 3
      vertex 58.6754 43.4102 0
    endloop
  endfacet
  facet normal 0.994518 -0.104565 0
    outer loop
      vertex 58.55 44 3
      vertex 58.5817 44.3015 0
      vertex 58.5817 44.3015 3
    endloop
  endfacet
  facet normal 0.994518 -0.104565 0
    outer loop
      vertex 58.5817 44.3015 0
      vertex 58.55 44 3
      vertex 58.55 44 0
    endloop
  endfacet
  facet normal 0 -1 0
    outer loop
      vertex 59.8484 45.4421 0
      vertex 60.1516 45.4421 3
      vertex 59.8484 45.4421 3
    endloop
  endfacet
  facet normal 0 -1 -0
    outer loop
      vertex 60.1516 45.4421 3
      vertex 59.8484 45.4421 0
      vertex 60.1516 45.4421 0
    endloop
  endfacet
  facet normal -0.743081 0.669202 0
    outer loop
      vertex 60.9702 42.9224 0
      vertex 61.1731 43.1477 3
      vertex 61.1731 43.1477 0
    endloop
  endfacet
  facet normal -0.743081 0.669202 0
    outer loop
      vertex 61.1731 43.1477 3
      vertex 60.9702 42.9224 0
      vertex 60.9702 42.9224 3
    endloop
  endfacet
  facet normal -0.208155 0.978096 0
    outer loop
      vertex 60.4481 42.621 0
      vertex 60.1516 42.5579 3
      vertex 60.4481 42.621 3
    endloop
  endfacet
  facet normal -0.208155 0.978096 0
    outer loop
      vertex 60.1516 42.5579 3
      vertex 60.4481 42.621 0
      vertex 60.1516 42.5579 0
    endloop
  endfacet
  facet normal -0.866103 0.499865 0
    outer loop
      vertex 61.1731 43.1477 0
      vertex 61.3246 43.4102 3
      vertex 61.3246 43.4102 0
    endloop
  endfacet
  facet normal -0.866103 0.499865 0
    outer loop
      vertex 61.3246 43.4102 3
      vertex 61.1731 43.1477 0
      vertex 61.1731 43.1477 3
    endloop
  endfacet
  facet normal -0.208155 -0.978096 0
    outer loop
      vertex 60.1516 45.4421 0
      vertex 60.4481 45.379 3
      vertex 60.1516 45.4421 3
    endloop
  endfacet
  facet normal -0.208155 -0.978096 -0
    outer loop
      vertex 60.4481 45.379 3
      vertex 60.1516 45.4421 0
      vertex 60.4481 45.379 0
    endloop
  endfacet
  facet normal -0.587681 0.809093 0
    outer loop
      vertex 60.9702 42.9224 0
      vertex 60.725 42.7443 3
      vertex 60.9702 42.9224 3
    endloop
  endfacet
  facet normal -0.587681 0.809093 0
    outer loop
      vertex 60.725 42.7443 3
      vertex 60.9702 42.9224 0
      vertex 60.725 42.7443 0
    endloop
  endfacet
  facet normal -0.587681 -0.809093 0
    outer loop
      vertex 60.725 45.2557 0
      vertex 60.9702 45.0776 3
      vertex 60.725 45.2557 3
    endloop
  endfacet
  facet normal -0.587681 -0.809093 -0
    outer loop
      vertex 60.9702 45.0776 3
      vertex 60.725 45.2557 0
      vertex 60.9702 45.0776 0
    endloop
  endfacet
  facet normal 0.208155 -0.978096 0
    outer loop
      vertex 59.5519 45.379 0
      vertex 59.8484 45.4421 3
      vertex 59.5519 45.379 3
    endloop
  endfacet
  facet normal 0.208155 -0.978096 0
    outer loop
      vertex 59.8484 45.4421 3
      vertex 59.5519 45.379 0
      vertex 59.8484 45.4421 0
    endloop
  endfacet
  facet normal 0 1 -0
    outer loop
      vertex 60.1516 42.5579 0
      vertex 59.8484 42.5579 3
      vertex 60.1516 42.5579 3
    endloop
  endfacet
  facet normal 0 1 0
    outer loop
      vertex 59.8484 42.5579 3
      vertex 60.1516 42.5579 0
      vertex 59.8484 42.5579 0
    endloop
  endfacet
  facet normal 0.994518 0.104565 0
    outer loop
      vertex 58.5817 43.6985 3
      vertex 58.55 44 0
      vertex 58.55 44 3
    endloop
  endfacet
  facet normal 0.994518 0.104565 0
    outer loop
      vertex 58.55 44 0
      vertex 58.5817 43.6985 3
      vertex 58.5817 43.6985 0
    endloop
  endfacet
  facet normal -0.406781 0.913526 0
    outer loop
      vertex 60.725 42.7443 0
      vertex 60.4481 42.621 3
      vertex 60.725 42.7443 3
    endloop
  endfacet
  facet normal -0.406781 0.913526 0
    outer loop
      vertex 60.4481 42.621 3
      vertex 60.725 42.7443 0
      vertex 60.4481 42.621 0
    endloop
  endfacet
  facet normal 0.743081 0.669202 0
    outer loop
      vertex 59.0298 42.9224 3
      vertex 58.8269 43.1477 0
      vertex 58.8269 43.1477 3
    endloop
  endfacet
  facet normal 0.743081 0.669202 0
    outer loop
      vertex 58.8269 43.1477 0
      vertex 59.0298 42.9224 3
      vertex 59.0298 42.9224 0
    endloop
  endfacet
  facet normal 0.587681 0.809093 -0
    outer loop
      vertex 59.275 42.7443 0
      vertex 59.0298 42.9224 3
      vertex 59.275 42.7443 3
    endloop
  endfacet
  facet normal 0.587681 0.809093 0
    outer loop
      vertex 59.0298 42.9224 3
      vertex 59.275 42.7443 0
      vertex 59.0298 42.9224 0
    endloop
  endfacet
  facet normal 0.866103 -0.499865 0
    outer loop
      vertex 58.6754 44.5898 3
      vertex 58.8269 44.8523 0
      vertex 58.8269 44.8523 3
    endloop
  endfacet
  facet normal 0.866103 -0.499865 0
    outer loop
      vertex 58.8269 44.8523 0
      vertex 58.6754 44.5898 3
      vertex 58.6754 44.5898 0
    endloop
  endfacet
  facet normal 0 1 -0
    outer loop
      vertex 90.25 85 0
      vertex -8 85 3
      vertex 90.25 85 3
    endloop
  endfacet
  facet normal 0 1 0
    outer loop
      vertex -8 85 3
      vertex 90.25 85 0
      vertex -8 85 0
    endloop
  endfacet
  facet normal 1 -0 0
    outer loop
      vertex 90.25 -33 3
      vertex 90.25 85 0
      vertex 90.25 85 3
    endloop
  endfacet
  facet normal 1 0 0
    outer loop
      vertex 90.25 85 0
      vertex 90.25 -33 3
      vertex 90.25 -33 0
    endloop
  endfacet
  facet normal 0 -1 0
    outer loop
      vertex -0.193377 41.8399 0
      vertex 0.193377 41.8399 3
      vertex -0.193377 41.8399 3
    endloop
  endfacet
  facet normal 0 -1 -0
    outer loop
      vertex 0.193377 41.8399 3
      vertex -0.193377 41.8399 0
      vertex 0.193377 41.8399 0
    endloop
  endfacet
  facet normal -0.951078 -0.308952 0
    outer loop
      vertex 1.80957 40.3846 0
      vertex 1.69006 40.7525 3
      vertex 1.69006 40.7525 0
    endloop
  endfacet
  facet normal -0.951078 -0.308952 0
    outer loop
      vertex 1.69006 40.7525 3
      vertex 1.80957 40.3846 0
      vertex 1.80957 40.3846 3
    endloop
  endfacet
  facet normal -0.99452 -0.104546 0
    outer loop
      vertex 1.85 40 0
      vertex 1.80957 40.3846 3
      vertex 1.80957 40.3846 0
    endloop
  endfacet
  facet normal -0.99452 -0.104546 0
    outer loop
      vertex 1.80957 40.3846 3
      vertex 1.85 40 0
      vertex 1.85 40 3
    endloop
  endfacet
  facet normal -0.743127 0.66915 0
    outer loop
      vertex 1.23789 38.6252 0
      vertex 1.49668 38.9126 3
      vertex 1.49668 38.9126 0
    endloop
  endfacet
  facet normal -0.743127 0.66915 0
    outer loop
      vertex 1.49668 38.9126 3
      vertex 1.23789 38.6252 0
      vertex 1.23789 38.6252 3
    endloop
  endfacet
  facet normal 0.587737 -0.809052 0
    outer loop
      vertex -1.23789 41.3748 0
      vertex -0.924999 41.6021 3
      vertex -1.23789 41.3748 3
    endloop
  endfacet
  facet normal 0.587737 -0.809052 0
    outer loop
      vertex -0.924999 41.6021 3
      vertex -1.23789 41.3748 0
      vertex -0.924999 41.6021 0
    endloop
  endfacet
  facet normal -0.743127 -0.66915 0
    outer loop
      vertex 1.49668 41.0874 0
      vertex 1.23789 41.3748 3
      vertex 1.23789 41.3748 0
    endloop
  endfacet
  facet normal -0.743127 -0.66915 0
    outer loop
      vertex 1.23789 41.3748 3
      vertex 1.49668 41.0874 0
      vertex 1.49668 41.0874 3
    endloop
  endfacet
  facet normal 0 1 -0
    outer loop
      vertex 0.193377 38.1601 0
      vertex -0.193377 38.1601 3
      vertex 0.193377 38.1601 3
    endloop
  endfacet
  facet normal 0 1 0
    outer loop
      vertex -0.193377 38.1601 3
      vertex 0.193377 38.1601 0
      vertex -0.193377 38.1601 0
    endloop
  endfacet
  facet normal 0.865997 0.500049 0
    outer loop
      vertex -1.49668 38.9126 3
      vertex -1.69006 39.2475 0
      vertex -1.69006 39.2475 3
    endloop
  endfacet
  facet normal 0.865997 0.500049 0
    outer loop
      vertex -1.69006 39.2475 0
      vertex -1.49668 38.9126 3
      vertex -1.49668 38.9126 0
    endloop
  endfacet
  facet normal 0.406937 0.913456 -0
    outer loop
      vertex -0.571681 38.2405 0
      vertex -0.924999 38.3979 3
      vertex -0.571681 38.2405 3
    endloop
  endfacet
  facet normal 0.406937 0.913456 0
    outer loop
      vertex -0.924999 38.3979 3
      vertex -0.571681 38.2405 0
      vertex -0.924999 38.3979 0
    endloop
  endfacet
  facet normal -0.865997 -0.500049 0
    outer loop
      vertex 1.69006 40.7525 0
      vertex 1.49668 41.0874 3
      vertex 1.49668 41.0874 0
    endloop
  endfacet
  facet normal -0.865997 -0.500049 0
    outer loop
      vertex 1.49668 41.0874 3
      vertex 1.69006 40.7525 0
      vertex 1.69006 40.7525 3
    endloop
  endfacet
  facet normal -0.99452 0.104546 0
    outer loop
      vertex 1.80957 39.6154 0
      vertex 1.85 40 3
      vertex 1.85 40 0
    endloop
  endfacet
  facet normal -0.99452 0.104546 0
    outer loop
      vertex 1.85 40 3
      vertex 1.80957 39.6154 0
      vertex 1.80957 39.6154 3
    endloop
  endfacet
  facet normal -0.587737 -0.809052 0
    outer loop
      vertex 0.924999 41.6021 0
      vertex 1.23789 41.3748 3
      vertex 0.924999 41.6021 3
    endloop
  endfacet
  facet normal -0.587737 -0.809052 -0
    outer loop
      vertex 1.23789 41.3748 3
      vertex 0.924999 41.6021 0
      vertex 1.23789 41.3748 0
    endloop
  endfacet
  facet normal -0.406937 -0.913456 0
    outer loop
      vertex 0.571681 41.7595 0
      vertex 0.924999 41.6021 3
      vertex 0.571681 41.7595 3
    endloop
  endfacet
  facet normal -0.406937 -0.913456 -0
    outer loop
      vertex 0.924999 41.6021 3
      vertex 0.571681 41.7595 0
      vertex 0.924999 41.6021 0
    endloop
  endfacet
  facet normal -0.207884 0.978153 0
    outer loop
      vertex 0.571681 38.2405 0
      vertex 0.193377 38.1601 3
      vertex 0.571681 38.2405 3
    endloop
  endfacet
  facet normal -0.207884 0.978153 0
    outer loop
      vertex 0.193377 38.1601 3
      vertex 0.571681 38.2405 0
      vertex 0.193377 38.1601 0
    endloop
  endfacet
  facet normal -0.587737 0.809052 0
    outer loop
      vertex 1.23789 38.6252 0
      vertex 0.924999 38.3979 3
      vertex 1.23789 38.6252 3
    endloop
  endfacet
  facet normal -0.587737 0.809052 0
    outer loop
      vertex 0.924999 38.3979 3
      vertex 1.23789 38.6252 0
      vertex 0.924999 38.3979 0
    endloop
  endfacet
  facet normal -0.865997 0.500049 0
    outer loop
      vertex 1.49668 38.9126 0
      vertex 1.69006 39.2475 3
      vertex 1.69006 39.2475 0
    endloop
  endfacet
  facet normal -0.865997 0.500049 0
    outer loop
      vertex 1.69006 39.2475 3
      vertex 1.49668 38.9126 0
      vertex 1.49668 38.9126 3
    endloop
  endfacet
  facet normal 0.99452 -0.104546 0
    outer loop
      vertex -1.85 40 3
      vertex -1.80957 40.3846 0
      vertex -1.80957 40.3846 3
    endloop
  endfacet
  facet normal 0.99452 -0.104546 0
    outer loop
      vertex -1.80957 40.3846 0
      vertex -1.85 40 3
      vertex -1.85 40 0
    endloop
  endfacet
  facet normal 0.207884 0.978153 -0
    outer loop
      vertex -0.193377 38.1601 0
      vertex -0.571681 38.2405 3
      vertex -0.193377 38.1601 3
    endloop
  endfacet
  facet normal 0.207884 0.978153 0
    outer loop
      vertex -0.571681 38.2405 3
      vertex -0.193377 38.1601 0
      vertex -0.571681 38.2405 0
    endloop
  endfacet
  facet normal 0.865997 -0.500049 0
    outer loop
      vertex -1.69006 40.7525 3
      vertex -1.49668 41.0874 0
      vertex -1.49668 41.0874 3
    endloop
  endfacet
  facet normal 0.865997 -0.500049 0
    outer loop
      vertex -1.49668 41.0874 0
      vertex -1.69006 40.7525 3
      vertex -1.69006 40.7525 0
    endloop
  endfacet
  facet normal -0.406937 0.913456 0
    outer loop
      vertex 0.924999 38.3979 0
      vertex 0.571681 38.2405 3
      vertex 0.924999 38.3979 3
    endloop
  endfacet
  facet normal -0.406937 0.913456 0
    outer loop
      vertex 0.571681 38.2405 3
      vertex 0.924999 38.3979 0
      vertex 0.571681 38.2405 0
    endloop
  endfacet
  facet normal 0.951078 0.308952 0
    outer loop
      vertex -1.69006 39.2475 3
      vertex -1.80957 39.6154 0
      vertex -1.80957 39.6154 3
    endloop
  endfacet
  facet normal 0.951078 0.308952 0
    outer loop
      vertex -1.80957 39.6154 0
      vertex -1.69006 39.2475 3
      vertex -1.69006 39.2475 0
    endloop
  endfacet
  facet normal -0.951078 0.308952 0
    outer loop
      vertex 1.69006 39.2475 0
      vertex 1.80957 39.6154 3
      vertex 1.80957 39.6154 0
    endloop
  endfacet
  facet normal -0.951078 0.308952 0
    outer loop
      vertex 1.80957 39.6154 3
      vertex 1.69006 39.2475 0
      vertex 1.69006 39.2475 3
    endloop
  endfacet
  facet normal 0.743127 -0.66915 0
    outer loop
      vertex -1.49668 41.0874 3
      vertex -1.23789 41.3748 0
      vertex -1.23789 41.3748 3
    endloop
  endfacet
  facet normal 0.743127 -0.66915 0
    outer loop
      vertex -1.23789 41.3748 0
      vertex -1.49668 41.0874 3
      vertex -1.49668 41.0874 0
    endloop
  endfacet
  facet normal -0.207884 -0.978153 0
    outer loop
      vertex 0.193377 41.8399 0
      vertex 0.571681 41.7595 3
      vertex 0.193377 41.8399 3
    endloop
  endfacet
  facet normal -0.207884 -0.978153 -0
    outer loop
      vertex 0.571681 41.7595 3
      vertex 0.193377 41.8399 0
      vertex 0.571681 41.7595 0
    endloop
  endfacet
  facet normal 0.951078 -0.308952 0
    outer loop
      vertex -1.80957 40.3846 3
      vertex -1.69006 40.7525 0
      vertex -1.69006 40.7525 3
    endloop
  endfacet
  facet normal 0.951078 -0.308952 0
    outer loop
      vertex -1.69006 40.7525 0
      vertex -1.80957 40.3846 3
      vertex -1.80957 40.3846 0
    endloop
  endfacet
  facet normal 0.406937 -0.913456 0
    outer loop
      vertex -0.924999 41.6021 0
      vertex -0.571681 41.7595 3
      vertex -0.924999 41.6021 3
    endloop
  endfacet
  facet normal 0.406937 -0.913456 0
    outer loop
      vertex -0.571681 41.7595 3
      vertex -0.924999 41.6021 0
      vertex -0.571681 41.7595 0
    endloop
  endfacet
  facet normal 0.207884 -0.978153 0
    outer loop
      vertex -0.571681 41.7595 0
      vertex -0.193377 41.8399 3
      vertex -0.571681 41.7595 3
    endloop
  endfacet
  facet normal 0.207884 -0.978153 0
    outer loop
      vertex -0.193377 41.8399 3
      vertex -0.571681 41.7595 0
      vertex -0.193377 41.8399 0
    endloop
  endfacet
  facet normal 0.587737 0.809052 -0
    outer loop
      vertex -0.924999 38.3979 0
      vertex -1.23789 38.6252 3
      vertex -0.924999 38.3979 3
    endloop
  endfacet
  facet normal 0.587737 0.809052 0
    outer loop
      vertex -1.23789 38.6252 3
      vertex -0.924999 38.3979 0
      vertex -1.23789 38.6252 0
    endloop
  endfacet
  facet normal 0.743127 0.66915 0
    outer loop
      vertex -1.23789 38.6252 3
      vertex -1.49668 38.9126 0
      vertex -1.49668 38.9126 3
    endloop
  endfacet
  facet normal 0.743127 0.66915 0
    outer loop
      vertex -1.49668 38.9126 0
      vertex -1.23789 38.6252 3
      vertex -1.23789 38.6252 0
    endloop
  endfacet
  facet normal 0.99452 0.104546 0
    outer loop
      vertex -1.80957 39.6154 3
      vertex -1.85 40 0
      vertex -1.85 40 3
    endloop
  endfacet
  facet normal 0.99452 0.104546 0
    outer loop
      vertex -1.85 40 0
      vertex -1.80957 39.6154 3
      vertex -1.80957 39.6154 0
    endloop
  endfacet
  facet normal -0.865975 -0.500088 0
    outer loop
      vertex 51.6901 -24.2475 0
      vertex 51.4967 -23.9126 3
      vertex 51.4967 -23.9126 0
    endloop
  endfacet
  facet normal -0.865975 -0.500088 0
    outer loop
      vertex 51.4967 -23.9126 3
      vertex 51.6901 -24.2475 0
      vertex 51.6901 -24.2475 3
    endloop
  endfacet
  facet normal -0.951085 -0.308928 0
    outer loop
      vertex 51.8096 -24.6154 0
      vertex 51.6901 -24.2475 3
      vertex 51.6901 -24.2475 0
    endloop
  endfacet
  facet normal -0.951085 -0.308928 0
    outer loop
      vertex 51.6901 -24.2475 3
      vertex 51.8096 -24.6154 0
      vertex 51.8096 -24.6154 3
    endloop
  endfacet
  facet normal -0.994528 -0.104469 0
    outer loop
      vertex 51.85 -25 0
      vertex 51.8096 -24.6154 3
      vertex 51.8096 -24.6154 0
    endloop
  endfacet
  facet normal -0.994528 -0.104469 0
    outer loop
      vertex 51.8096 -24.6154 3
      vertex 51.85 -25 0
      vertex 51.85 -25 3
    endloop
  endfacet
  facet normal -0.994528 0.104469 0
    outer loop
      vertex 51.8096 -25.3846 0
      vertex 51.85 -25 3
      vertex 51.85 -25 0
    endloop
  endfacet
  facet normal -0.994528 0.104469 0
    outer loop
      vertex 51.85 -25 3
      vertex 51.8096 -25.3846 0
      vertex 51.8096 -25.3846 3
    endloop
  endfacet
  facet normal -0.406954 -0.913449 0
    outer loop
      vertex 50.5717 -23.2405 0
      vertex 50.925 -23.3979 3
      vertex 50.5717 -23.2405 3
    endloop
  endfacet
  facet normal -0.406954 -0.913449 -0
    outer loop
      vertex 50.925 -23.3979 3
      vertex 50.5717 -23.2405 0
      vertex 50.925 -23.3979 0
    endloop
  endfacet
  facet normal -0.207887 0.978153 0
    outer loop
      vertex 50.5717 -26.7595 0
      vertex 50.1934 -26.8399 3
      vertex 50.5717 -26.7595 3
    endloop
  endfacet
  facet normal -0.207887 0.978153 0
    outer loop
      vertex 50.1934 -26.8399 3
      vertex 50.5717 -26.7595 0
      vertex 50.1934 -26.8399 0
    endloop
  endfacet
  facet normal 0 1 -0
    outer loop
      vertex 50.1934 -26.8399 0
      vertex 49.8066 -26.8399 3
      vertex 50.1934 -26.8399 3
    endloop
  endfacet
  facet normal 0 1 0
    outer loop
      vertex 49.8066 -26.8399 3
      vertex 50.1934 -26.8399 0
      vertex 49.8066 -26.8399 0
    endloop
  endfacet
  facet normal -0.743114 0.669165 0
    outer loop
      vertex 51.2379 -26.3748 0
      vertex 51.4967 -26.0874 3
      vertex 51.4967 -26.0874 0
    endloop
  endfacet
  facet normal -0.743114 0.669165 0
    outer loop
      vertex 51.4967 -26.0874 3
      vertex 51.2379 -26.3748 0
      vertex 51.2379 -26.3748 3
    endloop
  endfacet
  facet normal 0.743114 -0.669165 0
    outer loop
      vertex 48.5033 -23.9126 3
      vertex 48.7621 -23.6252 0
      vertex 48.7621 -23.6252 3
    endloop
  endfacet
  facet normal 0.743114 -0.669165 0
    outer loop
      vertex 48.7621 -23.6252 0
      vertex 48.5033 -23.9126 3
      vertex 48.5033 -23.9126 0
    endloop
  endfacet
  facet normal 0.865975 -0.500088 0
    outer loop
      vertex 48.3099 -24.2475 3
      vertex 48.5033 -23.9126 0
      vertex 48.5033 -23.9126 3
    endloop
  endfacet
  facet normal 0.865975 -0.500088 0
    outer loop
      vertex 48.5033 -23.9126 0
      vertex 48.3099 -24.2475 3
      vertex 48.3099 -24.2475 0
    endloop
  endfacet
  facet normal 0.994528 -0.104469 0
    outer loop
      vertex 48.15 -25 3
      vertex 48.1904 -24.6154 0
      vertex 48.1904 -24.6154 3
    endloop
  endfacet
  facet normal 0.994528 -0.104469 0
    outer loop
      vertex 48.1904 -24.6154 0
      vertex 48.15 -25 3
      vertex 48.15 -25 0
    endloop
  endfacet
  facet normal 0.207887 -0.978153 0
    outer loop
      vertex 49.4283 -23.2405 0
      vertex 49.8066 -23.1601 3
      vertex 49.4283 -23.2405 3
    endloop
  endfacet
  facet normal 0.207887 -0.978153 0
    outer loop
      vertex 49.8066 -23.1601 3
      vertex 49.4283 -23.2405 0
      vertex 49.8066 -23.1601 0
    endloop
  endfacet
  facet normal 0.951085 0.308928 0
    outer loop
      vertex 48.3099 -25.7525 3
      vertex 48.1904 -25.3846 0
      vertex 48.1904 -25.3846 3
    endloop
  endfacet
  facet normal 0.951085 0.308928 0
    outer loop
      vertex 48.1904 -25.3846 0
      vertex 48.3099 -25.7525 3
      vertex 48.3099 -25.7525 0
    endloop
  endfacet
  facet normal -0.406954 0.913449 0
    outer loop
      vertex 50.925 -26.6021 0
      vertex 50.5717 -26.7595 3
      vertex 50.925 -26.6021 3
    endloop
  endfacet
  facet normal -0.406954 0.913449 0
    outer loop
      vertex 50.5717 -26.7595 3
      vertex 50.925 -26.6021 0
      vertex 50.5717 -26.7595 0
    endloop
  endfacet
  facet normal 0.406954 -0.913449 0
    outer loop
      vertex 49.075 -23.3979 0
      vertex 49.4283 -23.2405 3
      vertex 49.075 -23.3979 3
    endloop
  endfacet
  facet normal 0.406954 -0.913449 0
    outer loop
      vertex 49.4283 -23.2405 3
      vertex 49.075 -23.3979 0
      vertex 49.4283 -23.2405 0
    endloop
  endfacet
  facet normal -0.951085 0.308928 0
    outer loop
      vertex 51.6901 -25.7525 0
      vertex 51.8096 -25.3846 3
      vertex 51.8096 -25.3846 0
    endloop
  endfacet
  facet normal -0.951085 0.308928 0
    outer loop
      vertex 51.8096 -25.3846 3
      vertex 51.6901 -25.7525 0
      vertex 51.6901 -25.7525 3
    endloop
  endfacet
  facet normal 0.207887 0.978153 -0
    outer loop
      vertex 49.8066 -26.8399 0
      vertex 49.4283 -26.7595 3
      vertex 49.8066 -26.8399 3
    endloop
  endfacet
  facet normal 0.207887 0.978153 0
    outer loop
      vertex 49.4283 -26.7595 3
      vertex 49.8066 -26.8399 0
      vertex 49.4283 -26.7595 0
    endloop
  endfacet
  facet normal 0.994528 0.104469 0
    outer loop
      vertex 48.1904 -25.3846 3
      vertex 48.15 -25 0
      vertex 48.15 -25 3
    endloop
  endfacet
  facet normal 0.994528 0.104469 0
    outer loop
      vertex 48.15 -25 0
      vertex 48.1904 -25.3846 3
      vertex 48.1904 -25.3846 0
    endloop
  endfacet
  facet normal 0.587726 -0.80906 0
    outer loop
      vertex 48.7621 -23.6252 0
      vertex 49.075 -23.3979 3
      vertex 48.7621 -23.6252 3
    endloop
  endfacet
  facet normal 0.587726 -0.80906 0
    outer loop
      vertex 49.075 -23.3979 3
      vertex 48.7621 -23.6252 0
      vertex 49.075 -23.3979 0
    endloop
  endfacet
  facet normal 0.951085 -0.308928 0
    outer loop
      vertex 48.1904 -24.6154 3
      vertex 48.3099 -24.2475 0
      vertex 48.3099 -24.2475 3
    endloop
  endfacet
  facet normal 0.951085 -0.308928 0
    outer loop
      vertex 48.3099 -24.2475 0
      vertex 48.1904 -24.6154 3
      vertex 48.1904 -24.6154 0
    endloop
  endfacet
  facet normal 0 -1 0
    outer loop
      vertex 49.8066 -23.1601 0
      vertex 50.1934 -23.1601 3
      vertex 49.8066 -23.1601 3
    endloop
  endfacet
  facet normal 0 -1 -0
    outer loop
      vertex 50.1934 -23.1601 3
      vertex 49.8066 -23.1601 0
      vertex 50.1934 -23.1601 0
    endloop
  endfacet
  facet normal -0.865975 0.500088 0
    outer loop
      vertex 51.4967 -26.0874 0
      vertex 51.6901 -25.7525 3
      vertex 51.6901 -25.7525 0
    endloop
  endfacet
  facet normal -0.865975 0.500088 0
    outer loop
      vertex 51.6901 -25.7525 3
      vertex 51.4967 -26.0874 0
      vertex 51.4967 -26.0874 3
    endloop
  endfacet
  facet normal -0.587726 -0.80906 0
    outer loop
      vertex 50.925 -23.3979 0
      vertex 51.2379 -23.6252 3
      vertex 50.925 -23.3979 3
    endloop
  endfacet
  facet normal -0.587726 -0.80906 -0
    outer loop
      vertex 51.2379 -23.6252 3
      vertex 50.925 -23.3979 0
      vertex 51.2379 -23.6252 0
    endloop
  endfacet
  facet normal -0.743114 -0.669165 0
    outer loop
      vertex 51.4967 -23.9126 0
      vertex 51.2379 -23.6252 3
      vertex 51.2379 -23.6252 0
    endloop
  endfacet
  facet normal -0.743114 -0.669165 0
    outer loop
      vertex 51.2379 -23.6252 3
      vertex 51.4967 -23.9126 0
      vertex 51.4967 -23.9126 3
    endloop
  endfacet
  facet normal -0.587726 0.80906 0
    outer loop
      vertex 51.2379 -26.3748 0
      vertex 50.925 -26.6021 3
      vertex 51.2379 -26.3748 3
    endloop
  endfacet
  facet normal -0.587726 0.80906 0
    outer loop
      vertex 50.925 -26.6021 3
      vertex 51.2379 -26.3748 0
      vertex 50.925 -26.6021 0
    endloop
  endfacet
  facet normal 0.406954 0.913449 -0
    outer loop
      vertex 49.4283 -26.7595 0
      vertex 49.075 -26.6021 3
      vertex 49.4283 -26.7595 3
    endloop
  endfacet
  facet normal 0.406954 0.913449 0
    outer loop
      vertex 49.075 -26.6021 3
      vertex 49.4283 -26.7595 0
      vertex 49.075 -26.6021 0
    endloop
  endfacet
  facet normal 0.865975 0.500088 0
    outer loop
      vertex 48.5033 -26.0874 3
      vertex 48.3099 -25.7525 0
      vertex 48.3099 -25.7525 3
    endloop
  endfacet
  facet normal 0.865975 0.500088 0
    outer loop
      vertex 48.3099 -25.7525 0
      vertex 48.5033 -26.0874 3
      vertex 48.5033 -26.0874 0
    endloop
  endfacet
  facet normal 0.743114 0.669165 0
    outer loop
      vertex 48.7621 -26.3748 3
      vertex 48.5033 -26.0874 0
      vertex 48.5033 -26.0874 3
    endloop
  endfacet
  facet normal 0.743114 0.669165 0
    outer loop
      vertex 48.5033 -26.0874 0
      vertex 48.7621 -26.3748 3
      vertex 48.7621 -26.3748 0
    endloop
  endfacet
  facet normal -0.207887 -0.978153 0
    outer loop
      vertex 50.1934 -23.1601 0
      vertex 50.5717 -23.2405 3
      vertex 50.1934 -23.1601 3
    endloop
  endfacet
  facet normal -0.207887 -0.978153 -0
    outer loop
      vertex 50.5717 -23.2405 3
      vertex 50.1934 -23.1601 0
      vertex 50.5717 -23.2405 0
    endloop
  endfacet
  facet normal 0.587726 0.80906 -0
    outer loop
      vertex 49.075 -26.6021 0
      vertex 48.7621 -26.3748 3
      vertex 49.075 -26.6021 3
    endloop
  endfacet
  facet normal 0.587726 0.80906 0
    outer loop
      vertex 48.7621 -26.3748 3
      vertex 49.075 -26.6021 0
      vertex 48.7621 -26.3748 0
    endloop
  endfacet
endsolid OpenSCAD_Model
