  0
SECTION
  2
BLOCKS
  0
ENDSEC
  0
SECTION
  2
ENTITIES
  0
LINE
  8
0
 10
403.2
 20
64.51
 11
-97
 21
64.51
  0
LINE
  8
0
 10
-97
 20
64.51
 11
-97
 21
4
  0
LINE
  8
0
 10
-97
 20
4
 11
403.2
 21
4
  0
LINE
  8
0
 10
403.2
 20
4
 11
403.2
 21
64.51
  0
LINE
  8
0
 10
-77.4612
 20
47.3269
 11
-78.6407
 21
48.7325
  0
LINE
  8
0
 10
-78.6407
 20
48.7325
 11
-78.6407
 21
50.5675
  0
LINE
  8
0
 10
-78.6407
 20
50.5675
 11
-77.4612
 21
51.9731
  0
LINE
  8
0
 10
-77.4612
 20
51.9731
 11
-75.6542
 21
52.2917
  0
LINE
  8
0
 10
-75.6542
 20
52.2917
 11
-74.0651
 21
51.3743
  0
LINE
  8
0
 10
-74.0651
 20
51.3743
 11
-73.4375
 21
49.65
  0
LINE
  8
0
 10
-73.4375
 20
49.65
 11
-74.0651
 21
47.9257
  0
LINE
  8
0
 10
-74.0651
 20
47.9257
 11
-75.6542
 21
47.0083
  0
LINE
  8
0
 10
-75.6542
 20
47.0083
 11
-77.4612
 21
47.3269
  0
LINE
  8
0
 10
-61.8443
 20
14.7189
 11
-65.687
 21
15.5357
  0
LINE
  8
0
 10
-65.687
 20
15.5357
 11
-69.276
 21
17.1336
  0
LINE
  8
0
 10
-69.276
 20
17.1336
 11
-72.4543
 21
19.4428
  0
LINE
  8
0
 10
-72.4543
 20
19.4428
 11
-75.083
 21
22.3623
  0
LINE
  8
0
 10
-75.083
 20
22.3623
 11
-77.0473
 21
25.7646
  0
LINE
  8
0
 10
-77.0473
 20
25.7646
 11
-78.2614
 21
29.5009
  0
LINE
  8
0
 10
-78.2614
 20
29.5009
 11
-78.672
 21
33.408
  0
LINE
  8
0
 10
-78.672
 20
33.408
 11
-78.2614
 21
37.3151
  0
LINE
  8
0
 10
-78.2614
 20
37.3151
 11
-77.0473
 21
41.0514
  0
LINE
  8
0
 10
-77.0473
 20
41.0514
 11
-75.083
 21
44.4537
  0
LINE
  8
0
 10
-75.083
 20
44.4537
 11
-72.4543
 21
47.3732
  0
LINE
  8
0
 10
-72.4543
 20
47.3732
 11
-69.276
 21
49.6823
  0
LINE
  8
0
 10
-69.276
 20
49.6823
 11
-65.687
 21
51.2802
  0
LINE
  8
0
 10
-65.687
 20
51.2802
 11
-61.8443
 21
52.097
  0
LINE
  8
0
 10
-61.8443
 20
52.097
 11
-57.9157
 21
52.097
  0
LINE
  8
0
 10
-57.9157
 20
52.097
 11
-54.073
 21
51.2802
  0
LINE
  8
0
 10
-54.073
 20
51.2802
 11
-50.484
 21
49.6823
  0
LINE
  8
0
 10
-50.484
 20
49.6823
 11
-47.3057
 21
47.3732
  0
LINE
  8
0
 10
-47.3057
 20
47.3732
 11
-44.6769
 21
44.4537
  0
LINE
  8
0
 10
-44.6769
 20
44.4537
 11
-42.7126
 21
41.0514
  0
LINE
  8
0
 10
-42.7126
 20
41.0514
 11
-41.4986
 21
37.3151
  0
LINE
  8
0
 10
-41.4986
 20
37.3151
 11
-41.088
 21
33.408
  0
LINE
  8
0
 10
-41.088
 20
33.408
 11
-41.4986
 21
29.5009
  0
LINE
  8
0
 10
-41.4986
 20
29.5009
 11
-42.7126
 21
25.7646
  0
LINE
  8
0
 10
-42.7126
 20
25.7646
 11
-44.6769
 21
22.3623
  0
LINE
  8
0
 10
-44.6769
 20
22.3623
 11
-47.3057
 21
19.4428
  0
LINE
  8
0
 10
-47.3057
 20
19.4428
 11
-50.484
 21
17.1336
  0
LINE
  8
0
 10
-50.484
 20
17.1336
 11
-54.073
 21
15.5357
  0
LINE
  8
0
 10
-54.073
 20
15.5357
 11
-57.9157
 21
14.7189
  0
LINE
  8
0
 10
-57.9157
 20
14.7189
 11
-61.8443
 21
14.7189
  0
LINE
  8
0
 10
-44.0512
 20
46.3269
 11
-45.2307
 21
47.7325
  0
LINE
  8
0
 10
-45.2307
 20
47.7325
 11
-45.2307
 21
49.5675
  0
LINE
  8
0
 10
-45.2307
 20
49.5675
 11
-44.0512
 21
50.9731
  0
LINE
  8
0
 10
-44.0512
 20
50.9731
 11
-42.2442
 21
51.2917
  0
LINE
  8
0
 10
-42.2442
 20
51.2917
 11
-40.6551
 21
50.3743
  0
LINE
  8
0
 10
-40.6551
 20
50.3743
 11
-40.0275
 21
48.65
  0
LINE
  8
0
 10
-40.0275
 20
48.65
 11
-40.6551
 21
46.9257
  0
LINE
  8
0
 10
-40.6551
 20
46.9257
 11
-42.2442
 21
46.0083
  0
LINE
  8
0
 10
-42.2442
 20
46.0083
 11
-44.0512
 21
46.3269
  0
LINE
  8
0
 10
135.417
 20
44.7161
 11
133.908
 21
45.2065
  0
LINE
  8
0
 10
133.908
 20
45.2065
 11
133.908
 21
46.7935
  0
LINE
  8
0
 10
133.908
 20
46.7935
 11
135.417
 21
47.2839
  0
LINE
  8
0
 10
135.417
 20
47.2839
 11
136.35
 21
46
  0
LINE
  8
0
 10
136.35
 20
46
 11
135.417
 21
44.7161
  0
LINE
  8
0
 10
233.908
 20
45.2065
 11
233.908
 21
46.7935
  0
LINE
  8
0
 10
233.908
 20
46.7935
 11
235.417
 21
47.2839
  0
LINE
  8
0
 10
235.417
 20
47.2839
 11
236.35
 21
46
  0
LINE
  8
0
 10
236.35
 20
46
 11
235.417
 21
44.7161
  0
LINE
  8
0
 10
235.417
 20
44.7161
 11
233.908
 21
45.2065
  0
LINE
  8
0
 10
138
 20
13
 11
138
 21
44
  0
LINE
  8
0
 10
138
 20
44
 11
234
 21
44
  0
LINE
  8
0
 10
234
 20
44
 11
234
 21
13
  0
LINE
  8
0
 10
234
 20
13
 11
138
 21
13
  0
LINE
  8
0
 10
70.8431
 20
25.8431
 11
70.8431
 21
37.1568
  0
LINE
  8
0
 10
70.8431
 20
37.1568
 11
82.1568
 21
37.1568
  0
LINE
  8
0
 10
82.1568
 20
37.1568
 11
82.1568
 21
25.8431
  0
LINE
  8
0
 10
82.1568
 20
25.8431
 11
70.8431
 21
25.8431
  0
LINE
  8
0
 10
10.8431
 20
25.8431
 11
10.8431
 21
37.1568
  0
LINE
  8
0
 10
10.8431
 20
37.1568
 11
22.1568
 21
37.1568
  0
LINE
  8
0
 10
22.1568
 20
37.1568
 11
22.1568
 21
25.8431
  0
LINE
  8
0
 10
22.1568
 20
25.8431
 11
10.8431
 21
25.8431
  0
LINE
  8
0
 10
60.2979
 20
30.575
 11
60.2979
 21
32.425
  0
LINE
  8
0
 10
60.2979
 20
32.425
 11
61.9
 21
33.35
  0
LINE
  8
0
 10
61.9
 20
33.35
 11
63.5021
 21
32.425
  0
LINE
  8
0
 10
63.5021
 20
32.425
 11
63.5021
 21
30.575
  0
LINE
  8
0
 10
63.5021
 20
30.575
 11
61.9
 21
29.65
  0
LINE
  8
0
 10
61.9
 20
29.65
 11
60.2979
 21
30.575
  0
LINE
  8
0
 10
0.297852
 20
30.575
 11
0.297852
 21
32.425
  0
LINE
  8
0
 10
0.297852
 20
32.425
 11
1.89999
 21
33.35
  0
LINE
  8
0
 10
1.89999
 20
33.35
 11
3.50214
 21
32.425
  0
LINE
  8
0
 10
3.50214
 20
32.425
 11
3.50214
 21
30.575
  0
LINE
  8
0
 10
3.50214
 20
30.575
 11
1.89999
 21
29.65
  0
LINE
  8
0
 10
1.89999
 20
29.65
 11
0.297852
 21
30.575
  0
LINE
  8
0
 10
89.4978
 20
30.575
 11
89.4978
 21
32.425
  0
LINE
  8
0
 10
89.4978
 20
32.425
 11
91.1
 21
33.35
  0
LINE
  8
0
 10
91.1
 20
33.35
 11
92.7021
 21
32.425
  0
LINE
  8
0
 10
92.7021
 20
32.425
 11
92.7021
 21
30.575
  0
LINE
  8
0
 10
92.7021
 20
30.575
 11
91.1
 21
29.65
  0
LINE
  8
0
 10
91.1
 20
29.65
 11
89.4978
 21
30.575
  0
LINE
  8
0
 10
29.4978
 20
30.575
 11
29.4978
 21
32.425
  0
LINE
  8
0
 10
29.4978
 20
32.425
 11
31.1
 21
33.35
  0
LINE
  8
0
 10
31.1
 20
33.35
 11
32.7021
 21
32.425
  0
LINE
  8
0
 10
32.7021
 20
32.425
 11
32.7021
 21
30.575
  0
LINE
  8
0
 10
32.7021
 20
30.575
 11
31.1
 21
29.65
  0
LINE
  8
0
 10
31.1
 20
29.65
 11
29.4978
 21
30.575
  0
LINE
  8
0
 10
-77.4612
 20
14.3809
 11
-78.6407
 21
15.7865
  0
LINE
  8
0
 10
-78.6407
 20
15.7865
 11
-78.6407
 21
17.6215
  0
LINE
  8
0
 10
-78.6407
 20
17.6215
 11
-77.4612
 21
19.0271
  0
LINE
  8
0
 10
-77.4612
 20
19.0271
 11
-75.6542
 21
19.3457
  0
LINE
  8
0
 10
-75.6542
 20
19.3457
 11
-74.0651
 21
18.4283
  0
LINE
  8
0
 10
-74.0651
 20
18.4283
 11
-73.4375
 21
16.704
  0
LINE
  8
0
 10
-73.4375
 20
16.704
 11
-74.0651
 21
14.9797
  0
LINE
  8
0
 10
-74.0651
 20
14.9797
 11
-75.6542
 21
14.0622
  0
LINE
  8
0
 10
-75.6542
 20
14.0622
 11
-77.4612
 21
14.3809
  0
LINE
  8
0
 10
-44.0512
 20
14.3809
 11
-45.2307
 21
15.7865
  0
LINE
  8
0
 10
-45.2307
 20
15.7865
 11
-45.2307
 21
17.6215
  0
LINE
  8
0
 10
-45.2307
 20
17.6215
 11
-44.0512
 21
19.0271
  0
LINE
  8
0
 10
-44.0512
 20
19.0271
 11
-42.2442
 21
19.3457
  0
LINE
  8
0
 10
-42.2442
 20
19.3457
 11
-40.6551
 21
18.4283
  0
LINE
  8
0
 10
-40.6551
 20
18.4283
 11
-40.0275
 21
16.704
  0
LINE
  8
0
 10
-40.0275
 20
16.704
 11
-40.6551
 21
14.9797
  0
LINE
  8
0
 10
-40.6551
 20
14.9797
 11
-42.2442
 21
14.0622
  0
LINE
  8
0
 10
-42.2442
 20
14.0622
 11
-44.0512
 21
14.3809
  0
LINE
  8
0
 10
233.908
 20
10.2065
 11
233.908
 21
11.7935
  0
LINE
  8
0
 10
233.908
 20
11.7935
 11
235.417
 21
12.2839
  0
LINE
  8
0
 10
235.417
 20
12.2839
 11
236.35
 21
11
  0
LINE
  8
0
 10
236.35
 20
11
 11
235.417
 21
9.71606
  0
LINE
  8
0
 10
235.417
 20
9.71606
 11
233.908
 21
10.2065
  0
LINE
  8
0
 10
133.908
 20
10.2065
 11
133.908
 21
11.7935
  0
LINE
  8
0
 10
133.908
 20
11.7935
 11
135.417
 21
12.2839
  0
LINE
  8
0
 10
135.417
 20
12.2839
 11
136.35
 21
11
  0
LINE
  8
0
 10
136.35
 20
11
 11
135.417
 21
9.71606
  0
LINE
  8
0
 10
135.417
 20
9.71606
 11
133.908
 21
10.2065
  0
ENDSEC
  0
SECTION
  2
OBJECTS
  0
DICTIONARY
  0
ENDSEC
  0
EOF
