solid OpenSCAD_Model
  facet normal -1 0 0
    outer loop
      vertex -12.6 -5.3 -19.2
      vertex -12.6 6.7 0.7
      vertex -12.6 6.7 -19.2
    endloop
  endfacet
  facet normal -1 -0 0
    outer loop
      vertex -12.6 6.7 0.7
      vertex -12.6 -5.3 -19.2
      vertex -12.6 -5.3 0.7
    endloop
  endfacet
  facet normal 0 0 -1
    outer loop
      vertex -12.6 -5.3 0.7
      vertex -12.95 0.7 0.7
      vertex -12.6 6.7 0.7
    endloop
  endfacet
  facet normal 0 0 -1
    outer loop
      vertex -12.6 -5.3 0.7
      vertex -13.0101 0.128243 0.7
      vertex -12.95 0.7 0.7
    endloop
  endfacet
  facet normal 0 0 -1
    outer loop
      vertex -12.6 -5.3 0.7
      vertex -13.1877 -0.418526 0.7
      vertex -13.0101 0.128243 0.7
    endloop
  endfacet
  facet normal 0 0 -1
    outer loop
      vertex -12.6 -5.3 0.7
      vertex -13.4752 -0.91641 0.7
      vertex -13.1877 -0.418526 0.7
    endloop
  endfacet
  facet normal 0 0 -1
    outer loop
      vertex -12.6 -5.3 0.7
      vertex -13.8599 -1.34365 0.7
      vertex -13.4752 -0.91641 0.7
    endloop
  endfacet
  facet normal 0 0 -1
    outer loop
      vertex -12.6 -5.3 0.7
      vertex -14.325 -1.68157 0.7
      vertex -13.8599 -1.34365 0.7
    endloop
  endfacet
  facet normal 0 0 -1
    outer loop
      vertex -12.6 -5.3 0.7
      vertex -14.8502 -1.91541 0.7
      vertex -14.325 -1.68157 0.7
    endloop
  endfacet
  facet normal 0 0 -1
    outer loop
      vertex -12.6 -5.3 0.7
      vertex -15.4125 -2.03494 0.7
      vertex -14.8502 -1.91541 0.7
    endloop
  endfacet
  facet normal 0 0 -1
    outer loop
      vertex -18 -5.3 0.7
      vertex -15.4125 -2.03494 0.7
      vertex -12.6 -5.3 0.7
    endloop
  endfacet
  facet normal -0 0 -1
    outer loop
      vertex -15.4125 -2.03494 0.7
      vertex -18 -5.3 0.7
      vertex -15.9875 -2.03494 0.7
    endloop
  endfacet
  facet normal -0 0 -1
    outer loop
      vertex -15.9875 -2.03494 0.7
      vertex -18 -5.3 0.7
      vertex -16.5498 -1.91541 0.7
    endloop
  endfacet
  facet normal -0 0 -1
    outer loop
      vertex -16.5498 -1.91541 0.7
      vertex -18 -5.3 0.7
      vertex -17.075 -1.68157 0.7
    endloop
  endfacet
  facet normal -0 0 -1
    outer loop
      vertex -17.075 -1.68157 0.7
      vertex -18 -5.3 0.7
      vertex -17.5401 -1.34365 0.7
    endloop
  endfacet
  facet normal 0 0 -1
    outer loop
      vertex -18 -5.3 0.7
      vertex -17.9248 -0.91641 0.7
      vertex -17.5401 -1.34365 0.7
    endloop
  endfacet
  facet normal -0 0 -1
    outer loop
      vertex -17.9248 -0.91641 0.7
      vertex -18 -5.3 0.7
      vertex -18 -0.786154 0.7
    endloop
  endfacet
  facet normal 0 0 -1
    outer loop
      vertex -13.0101 1.27176 0.7
      vertex -12.6 6.7 0.7
      vertex -12.95 0.7 0.7
    endloop
  endfacet
  facet normal 0 0 -1
    outer loop
      vertex -13.1877 1.81853 0.7
      vertex -12.6 6.7 0.7
      vertex -13.0101 1.27176 0.7
    endloop
  endfacet
  facet normal 0 0 -1
    outer loop
      vertex -13.4752 2.31641 0.7
      vertex -12.6 6.7 0.7
      vertex -13.1877 1.81853 0.7
    endloop
  endfacet
  facet normal 0 0 -1
    outer loop
      vertex -13.8599 2.74365 0.7
      vertex -12.6 6.7 0.7
      vertex -13.4752 2.31641 0.7
    endloop
  endfacet
  facet normal 0 0 -1
    outer loop
      vertex -14.325 3.08157 0.7
      vertex -12.6 6.7 0.7
      vertex -13.8599 2.74365 0.7
    endloop
  endfacet
  facet normal 0 0 -1
    outer loop
      vertex -14.8502 3.31541 0.7
      vertex -12.6 6.7 0.7
      vertex -14.325 3.08157 0.7
    endloop
  endfacet
  facet normal 0 0 -1
    outer loop
      vertex -15.4125 3.43493 0.7
      vertex -12.6 6.7 0.7
      vertex -14.8502 3.31541 0.7
    endloop
  endfacet
  facet normal 0 0 -1
    outer loop
      vertex -18 6.7 0.7
      vertex -15.4125 3.43493 0.7
      vertex -15.9875 3.43493 0.7
    endloop
  endfacet
  facet normal 0 0 -1
    outer loop
      vertex -18 6.7 0.7
      vertex -15.9875 3.43493 0.7
      vertex -16.5498 3.31541 0.7
    endloop
  endfacet
  facet normal 0 0 -1
    outer loop
      vertex -18 6.7 0.7
      vertex -16.5498 3.31541 0.7
      vertex -17.075 3.08157 0.7
    endloop
  endfacet
  facet normal 0 0 -1
    outer loop
      vertex -18 6.7 0.7
      vertex -17.075 3.08157 0.7
      vertex -17.5401 2.74365 0.7
    endloop
  endfacet
  facet normal 0 0 -1
    outer loop
      vertex -15.4125 3.43493 0.7
      vertex -18 6.7 0.7
      vertex -12.6 6.7 0.7
    endloop
  endfacet
  facet normal 0 0 -1
    outer loop
      vertex -17.9248 2.31641 0.7
      vertex -18 6.7 0.7
      vertex -17.5401 2.74365 0.7
    endloop
  endfacet
  facet normal 0 0 -1
    outer loop
      vertex -18 6.7 0.7
      vertex -17.9248 2.31641 0.7
      vertex -18 2.18615 0.7
    endloop
  endfacet
  facet normal 0 0 -1
    outer loop
      vertex 22.6 -5.3 0.7
      vertex 22.3401 -1.34365 0.7
      vertex 22.6 -1.05501 0.7
    endloop
  endfacet
  facet normal 0 0 -1
    outer loop
      vertex 22.6 -5.3 0.7
      vertex 21.875 -1.68157 0.7
      vertex 22.3401 -1.34365 0.7
    endloop
  endfacet
  facet normal 0 0 -1
    outer loop
      vertex 22.6 -5.3 0.7
      vertex 21.3498 -1.91541 0.7
      vertex 21.875 -1.68157 0.7
    endloop
  endfacet
  facet normal 0 0 -1
    outer loop
      vertex 22.6 -5.3 0.7
      vertex 20.7875 -2.03494 0.7
      vertex 21.3498 -1.91541 0.7
    endloop
  endfacet
  facet normal 0 0 -1
    outer loop
      vertex 22.6 -5.3 0.7
      vertex 20.2125 -2.03494 0.7
      vertex 20.7875 -2.03494 0.7
    endloop
  endfacet
  facet normal 0 0 -1
    outer loop
      vertex 17.2 -5.3 0.7
      vertex 20.2125 -2.03494 0.7
      vertex 22.6 -5.3 0.7
    endloop
  endfacet
  facet normal -0 0 -1
    outer loop
      vertex 20.2125 -2.03494 0.7
      vertex 17.2 -5.3 0.7
      vertex 19.6502 -1.91541 0.7
    endloop
  endfacet
  facet normal -0 0 -1
    outer loop
      vertex 19.6502 -1.91541 0.7
      vertex 17.2 -5.3 0.7
      vertex 19.125 -1.68157 0.7
    endloop
  endfacet
  facet normal -0 0 -1
    outer loop
      vertex 17.8101 0.128243 0.7
      vertex 17.2 -5.3 0.7
      vertex 17.75 0.7 0.7
    endloop
  endfacet
  facet normal -0 0 -1
    outer loop
      vertex 17.9877 -0.418526 0.7
      vertex 17.2 -5.3 0.7
      vertex 17.8101 0.128243 0.7
    endloop
  endfacet
  facet normal -0 0 -1
    outer loop
      vertex 18.2752 -0.91641 0.7
      vertex 17.2 -5.3 0.7
      vertex 17.9877 -0.418526 0.7
    endloop
  endfacet
  facet normal -0 0 -1
    outer loop
      vertex 18.6599 -1.34365 0.7
      vertex 17.2 -5.3 0.7
      vertex 18.2752 -0.91641 0.7
    endloop
  endfacet
  facet normal -0 0 -1
    outer loop
      vertex 19.125 -1.68157 0.7
      vertex 17.2 -5.3 0.7
      vertex 18.6599 -1.34365 0.7
    endloop
  endfacet
  facet normal 0 0 -1
    outer loop
      vertex 22.3401 2.74365 0.7
      vertex 22.6 6.7 0.7
      vertex 22.6 2.45501 0.7
    endloop
  endfacet
  facet normal 0 0 -1
    outer loop
      vertex 21.875 3.08157 0.7
      vertex 22.6 6.7 0.7
      vertex 22.3401 2.74365 0.7
    endloop
  endfacet
  facet normal 0 0 -1
    outer loop
      vertex 21.3498 3.31541 0.7
      vertex 22.6 6.7 0.7
      vertex 21.875 3.08157 0.7
    endloop
  endfacet
  facet normal 0 0 -1
    outer loop
      vertex 20.7875 3.43493 0.7
      vertex 22.6 6.7 0.7
      vertex 21.3498 3.31541 0.7
    endloop
  endfacet
  facet normal 0 0 -1
    outer loop
      vertex 20.2125 3.43493 0.7
      vertex 22.6 6.7 0.7
      vertex 20.7875 3.43493 0.7
    endloop
  endfacet
  facet normal 0 0 -1
    outer loop
      vertex 17.2 6.7 0.7
      vertex 20.2125 3.43493 0.7
      vertex 19.6502 3.31541 0.7
    endloop
  endfacet
  facet normal 0 0 -1
    outer loop
      vertex 17.2 6.7 0.7
      vertex 19.6502 3.31541 0.7
      vertex 19.125 3.08157 0.7
    endloop
  endfacet
  facet normal 0 0 -1
    outer loop
      vertex 17.2 6.7 0.7
      vertex 19.125 3.08157 0.7
      vertex 18.6599 2.74365 0.7
    endloop
  endfacet
  facet normal 0 0 -1
    outer loop
      vertex 20.2125 3.43493 0.7
      vertex 17.2 6.7 0.7
      vertex 22.6 6.7 0.7
    endloop
  endfacet
  facet normal 0 0 -1
    outer loop
      vertex 18.2752 2.31641 0.7
      vertex 17.2 6.7 0.7
      vertex 18.6599 2.74365 0.7
    endloop
  endfacet
  facet normal 0 0 -1
    outer loop
      vertex 17.9877 1.81853 0.7
      vertex 17.2 6.7 0.7
      vertex 18.2752 2.31641 0.7
    endloop
  endfacet
  facet normal 0 0 -1
    outer loop
      vertex 17.8101 1.27176 0.7
      vertex 17.2 6.7 0.7
      vertex 17.9877 1.81853 0.7
    endloop
  endfacet
  facet normal 0 0 -1
    outer loop
      vertex 17.75 0.7 0.7
      vertex 17.2 6.7 0.7
      vertex 17.8101 1.27176 0.7
    endloop
  endfacet
  facet normal 0 0 -1
    outer loop
      vertex 17.2 6.7 0.7
      vertex 17.75 0.7 0.7
      vertex 17.2 -5.3 0.7
    endloop
  endfacet
  facet normal 0 0 -1
    outer loop
      vertex -12.6 -5.3 -19.2
      vertex 17.2 6.7 -19.2
      vertex 17.2 -5.3 -19.2
    endloop
  endfacet
  facet normal -0 0 -1
    outer loop
      vertex 17.2 6.7 -19.2
      vertex -12.6 -5.3 -19.2
      vertex -12.6 6.7 -19.2
    endloop
  endfacet
  facet normal 1 -0 0
    outer loop
      vertex 17.2 -5.3 0.7
      vertex 17.2 6.7 -19.2
      vertex 17.2 6.7 0.7
    endloop
  endfacet
  facet normal 1 0 0
    outer loop
      vertex 17.2 6.7 -19.2
      vertex 17.2 -5.3 0.7
      vertex 17.2 -5.3 -19.2
    endloop
  endfacet
  facet normal 0 1 0
    outer loop
      vertex -12.6 6.7 -19.2
      vertex -4.3 6.7 2.8
      vertex 17.2 6.7 -19.2
    endloop
  endfacet
  facet normal 0 1 0
    outer loop
      vertex -4.3 6.7 2.8
      vertex -12.6 6.7 -19.2
      vertex -12.6 6.7 0.7
    endloop
  endfacet
  facet normal 0 1 -0
    outer loop
      vertex 17.2 6.7 0.7
      vertex 13.7 6.7 2.8
      vertex 22.6 6.7 2.8
    endloop
  endfacet
  facet normal 0 1 -0
    outer loop
      vertex 17.2 6.7 -19.2
      vertex 13.7 6.7 2.8
      vertex 17.2 6.7 0.7
    endloop
  endfacet
  facet normal 0 1 0
    outer loop
      vertex 17.2 6.7 0.7
      vertex 22.6 6.7 2.8
      vertex 22.6 6.7 0.7
    endloop
  endfacet
  facet normal 0 1 0
    outer loop
      vertex 13.7 6.7 2.8
      vertex 17.2 6.7 -19.2
      vertex -4.3 6.7 2.8
    endloop
  endfacet
  facet normal 0 1 0
    outer loop
      vertex -4.3 6.7 2.8
      vertex -12.6 6.7 0.7
      vertex -18 6.7 2.8
    endloop
  endfacet
  facet normal 0 1 0
    outer loop
      vertex -18 6.7 2.8
      vertex -12.6 6.7 0.7
      vertex -18 6.7 0.7
    endloop
  endfacet
  facet normal 0 1 -0
    outer loop
      vertex 13.7 6.7 2.8
      vertex -4.3 6.7 6.2
      vertex 13.7 6.7 6.2
    endloop
  endfacet
  facet normal 0 1 0
    outer loop
      vertex -4.3 6.7 6.2
      vertex 13.7 6.7 2.8
      vertex -4.3 6.7 2.8
    endloop
  endfacet
  facet normal 0 -1 0
    outer loop
      vertex -4.3 -5.3 2.8
      vertex 17.2 -5.3 -19.2
      vertex 13.7 -5.3 2.8
    endloop
  endfacet
  facet normal 0 -1 0
    outer loop
      vertex 13.7 -5.3 2.8
      vertex 17.2 -5.3 -19.2
      vertex 17.2 -5.3 0.7
    endloop
  endfacet
  facet normal 0 -1 0
    outer loop
      vertex -12.6 -5.3 0.7
      vertex -4.3 -5.3 2.8
      vertex -18 -5.3 2.8
    endloop
  endfacet
  facet normal 0 -1 0
    outer loop
      vertex -12.6 -5.3 -19.2
      vertex -4.3 -5.3 2.8
      vertex -12.6 -5.3 0.7
    endloop
  endfacet
  facet normal 0 -1 0
    outer loop
      vertex -12.6 -5.3 0.7
      vertex -18 -5.3 2.8
      vertex -18 -5.3 0.7
    endloop
  endfacet
  facet normal 0 -1 0
    outer loop
      vertex 17.2 -5.3 -19.2
      vertex -4.3 -5.3 2.8
      vertex -12.6 -5.3 -19.2
    endloop
  endfacet
  facet normal 0 -1 0
    outer loop
      vertex 13.7 -5.3 2.8
      vertex 17.2 -5.3 0.7
      vertex 22.6 -5.3 2.8
    endloop
  endfacet
  facet normal 0 -1 -0
    outer loop
      vertex 22.6 -5.3 2.8
      vertex 17.2 -5.3 0.7
      vertex 22.6 -5.3 0.7
    endloop
  endfacet
  facet normal 0 -1 0
    outer loop
      vertex -4.3 -5.3 2.8
      vertex 13.7 -5.3 6.2
      vertex -4.3 -5.3 6.2
    endloop
  endfacet
  facet normal 0 -1 -0
    outer loop
      vertex 13.7 -5.3 6.2
      vertex -4.3 -5.3 2.8
      vertex 13.7 -5.3 2.8
    endloop
  endfacet
  facet normal -1 0 0
    outer loop
      vertex -18 2.18615 0.7
      vertex -18 6.7 2.8
      vertex -18 6.7 0.7
    endloop
  endfacet
  facet normal -1 -0 0
    outer loop
      vertex -18 6.7 2.8
      vertex -18 2.18615 0.7
      vertex -18 2.18615 2.8
    endloop
  endfacet
  facet normal -1 0 0
    outer loop
      vertex -18 -5.3 0.7
      vertex -18 -0.786154 2.8
      vertex -18 -0.786154 0.7
    endloop
  endfacet
  facet normal -1 -0 0
    outer loop
      vertex -18 -0.786154 2.8
      vertex -18 -5.3 0.7
      vertex -18 -5.3 2.8
    endloop
  endfacet
  facet normal 0 0 1
    outer loop
      vertex 22.6 6.7 2.8
      vertex 22.3401 2.74365 2.8
      vertex 22.6 2.45501 2.8
    endloop
  endfacet
  facet normal 0 0 1
    outer loop
      vertex 22.6 6.7 2.8
      vertex 21.875 3.08157 2.8
      vertex 22.3401 2.74365 2.8
    endloop
  endfacet
  facet normal 0 0 1
    outer loop
      vertex 22.6 6.7 2.8
      vertex 21.3498 3.31541 2.8
      vertex 21.875 3.08157 2.8
    endloop
  endfacet
  facet normal 0 0 1
    outer loop
      vertex 22.6 6.7 2.8
      vertex 20.7875 3.43493 2.8
      vertex 21.3498 3.31541 2.8
    endloop
  endfacet
  facet normal 0 0 1
    outer loop
      vertex 22.6 6.7 2.8
      vertex 20.2125 3.43493 2.8
      vertex 20.7875 3.43493 2.8
    endloop
  endfacet
  facet normal 0 0 1
    outer loop
      vertex 22.6 6.7 2.8
      vertex 19.6502 3.31541 2.8
      vertex 20.2125 3.43493 2.8
    endloop
  endfacet
  facet normal -0 0 1
    outer loop
      vertex 13.7 6.7 2.8
      vertex 19.6502 3.31541 2.8
      vertex 22.6 6.7 2.8
    endloop
  endfacet
  facet normal 0 0 1
    outer loop
      vertex 19.6502 3.31541 2.8
      vertex 13.7 6.7 2.8
      vertex 19.125 3.08157 2.8
    endloop
  endfacet
  facet normal 0 0 1
    outer loop
      vertex 17.8101 1.27176 2.8
      vertex 13.7 6.7 2.8
      vertex 17.75 0.7 2.8
    endloop
  endfacet
  facet normal 0 0 1
    outer loop
      vertex 17.9877 1.81853 2.8
      vertex 13.7 6.7 2.8
      vertex 17.8101 1.27176 2.8
    endloop
  endfacet
  facet normal 0 0 1
    outer loop
      vertex 18.2752 2.31641 2.8
      vertex 13.7 6.7 2.8
      vertex 17.9877 1.81853 2.8
    endloop
  endfacet
  facet normal 0 0 1
    outer loop
      vertex 18.6599 2.74365 2.8
      vertex 13.7 6.7 2.8
      vertex 18.2752 2.31641 2.8
    endloop
  endfacet
  facet normal 0 0 1
    outer loop
      vertex 19.125 3.08157 2.8
      vertex 13.7 6.7 2.8
      vertex 18.6599 2.74365 2.8
    endloop
  endfacet
  facet normal -0 0 1
    outer loop
      vertex 22.3401 -1.34365 2.8
      vertex 22.6 -5.3 2.8
      vertex 22.6 -1.05501 2.8
    endloop
  endfacet
  facet normal -0 0 1
    outer loop
      vertex 21.875 -1.68157 2.8
      vertex 22.6 -5.3 2.8
      vertex 22.3401 -1.34365 2.8
    endloop
  endfacet
  facet normal -0 0 1
    outer loop
      vertex 21.3498 -1.91541 2.8
      vertex 22.6 -5.3 2.8
      vertex 21.875 -1.68157 2.8
    endloop
  endfacet
  facet normal -0 0 1
    outer loop
      vertex 20.7875 -2.03494 2.8
      vertex 22.6 -5.3 2.8
      vertex 21.3498 -1.91541 2.8
    endloop
  endfacet
  facet normal -0 0 1
    outer loop
      vertex 20.2125 -2.03494 2.8
      vertex 22.6 -5.3 2.8
      vertex 20.7875 -2.03494 2.8
    endloop
  endfacet
  facet normal 0 0 1
    outer loop
      vertex 19.6502 -1.91541 2.8
      vertex 22.6 -5.3 2.8
      vertex 20.2125 -2.03494 2.8
    endloop
  endfacet
  facet normal 0 0 1
    outer loop
      vertex 13.7 -5.3 2.8
      vertex 19.6502 -1.91541 2.8
      vertex 19.125 -1.68157 2.8
    endloop
  endfacet
  facet normal 0 0 1
    outer loop
      vertex 13.7 -5.3 2.8
      vertex 19.125 -1.68157 2.8
      vertex 18.6599 -1.34365 2.8
    endloop
  endfacet
  facet normal 0 0 1
    outer loop
      vertex 13.7 -5.3 2.8
      vertex 17.75 0.7 2.8
      vertex 13.7 6.7 2.8
    endloop
  endfacet
  facet normal 0 0 1
    outer loop
      vertex 17.75 0.7 2.8
      vertex 13.7 -5.3 2.8
      vertex 17.8101 0.128243 2.8
    endloop
  endfacet
  facet normal 0 0 1
    outer loop
      vertex 17.8101 0.128243 2.8
      vertex 13.7 -5.3 2.8
      vertex 17.9877 -0.418526 2.8
    endloop
  endfacet
  facet normal 0 0 1
    outer loop
      vertex 19.6502 -1.91541 2.8
      vertex 13.7 -5.3 2.8
      vertex 22.6 -5.3 2.8
    endloop
  endfacet
  facet normal 0 0 1
    outer loop
      vertex 18.2752 -0.91641 2.8
      vertex 13.7 -5.3 2.8
      vertex 18.6599 -1.34365 2.8
    endloop
  endfacet
  facet normal 0 0 1
    outer loop
      vertex 17.9877 -0.418526 2.8
      vertex 13.7 -5.3 2.8
      vertex 18.2752 -0.91641 2.8
    endloop
  endfacet
  facet normal 0 0 1
    outer loop
      vertex -4.3 6.7 2.8
      vertex -12.95 0.7 2.8
      vertex -4.3 -5.3 2.8
    endloop
  endfacet
  facet normal 0 0 1
    outer loop
      vertex -4.3 6.7 2.8
      vertex -13.0101 1.27176 2.8
      vertex -12.95 0.7 2.8
    endloop
  endfacet
  facet normal 0 0 1
    outer loop
      vertex -4.3 6.7 2.8
      vertex -13.1877 1.81853 2.8
      vertex -13.0101 1.27176 2.8
    endloop
  endfacet
  facet normal 0 0 1
    outer loop
      vertex -4.3 6.7 2.8
      vertex -13.4752 2.31641 2.8
      vertex -13.1877 1.81853 2.8
    endloop
  endfacet
  facet normal 0 0 1
    outer loop
      vertex -4.3 6.7 2.8
      vertex -13.8599 2.74365 2.8
      vertex -13.4752 2.31641 2.8
    endloop
  endfacet
  facet normal 0 0 1
    outer loop
      vertex -4.3 6.7 2.8
      vertex -14.325 3.08157 2.8
      vertex -13.8599 2.74365 2.8
    endloop
  endfacet
  facet normal -0 0 1
    outer loop
      vertex -18 6.7 2.8
      vertex -14.325 3.08157 2.8
      vertex -4.3 6.7 2.8
    endloop
  endfacet
  facet normal 0 0 1
    outer loop
      vertex -14.325 3.08157 2.8
      vertex -18 6.7 2.8
      vertex -14.8502 3.31541 2.8
    endloop
  endfacet
  facet normal 0 0 1
    outer loop
      vertex -14.8502 3.31541 2.8
      vertex -18 6.7 2.8
      vertex -15.4125 3.43493 2.8
    endloop
  endfacet
  facet normal 0 0 1
    outer loop
      vertex -15.4125 3.43493 2.8
      vertex -18 6.7 2.8
      vertex -15.9875 3.43493 2.8
    endloop
  endfacet
  facet normal 0 0 1
    outer loop
      vertex -15.9875 3.43493 2.8
      vertex -18 6.7 2.8
      vertex -16.5498 3.31541 2.8
    endloop
  endfacet
  facet normal 0 0 1
    outer loop
      vertex -18 6.7 2.8
      vertex -17.075 3.08157 2.8
      vertex -16.5498 3.31541 2.8
    endloop
  endfacet
  facet normal 0 0 1
    outer loop
      vertex -18 6.7 2.8
      vertex -17.5401 2.74365 2.8
      vertex -17.075 3.08157 2.8
    endloop
  endfacet
  facet normal 0 0 1
    outer loop
      vertex -18 6.7 2.8
      vertex -17.9248 2.31641 2.8
      vertex -17.5401 2.74365 2.8
    endloop
  endfacet
  facet normal 0 0 1
    outer loop
      vertex -17.9248 2.31641 2.8
      vertex -18 6.7 2.8
      vertex -18 2.18615 2.8
    endloop
  endfacet
  facet normal -0 0 1
    outer loop
      vertex -13.0101 0.128243 2.8
      vertex -4.3 -5.3 2.8
      vertex -12.95 0.7 2.8
    endloop
  endfacet
  facet normal -0 0 1
    outer loop
      vertex -13.1877 -0.418526 2.8
      vertex -4.3 -5.3 2.8
      vertex -13.0101 0.128243 2.8
    endloop
  endfacet
  facet normal -0 0 1
    outer loop
      vertex -13.4752 -0.91641 2.8
      vertex -4.3 -5.3 2.8
      vertex -13.1877 -0.418526 2.8
    endloop
  endfacet
  facet normal -0 0 1
    outer loop
      vertex -13.8599 -1.34365 2.8
      vertex -4.3 -5.3 2.8
      vertex -13.4752 -0.91641 2.8
    endloop
  endfacet
  facet normal -0 0 1
    outer loop
      vertex -14.325 -1.68157 2.8
      vertex -4.3 -5.3 2.8
      vertex -13.8599 -1.34365 2.8
    endloop
  endfacet
  facet normal 0 0 1
    outer loop
      vertex -18 -5.3 2.8
      vertex -14.325 -1.68157 2.8
      vertex -14.8502 -1.91541 2.8
    endloop
  endfacet
  facet normal 0 0 1
    outer loop
      vertex -18 -5.3 2.8
      vertex -14.8502 -1.91541 2.8
      vertex -15.4125 -2.03494 2.8
    endloop
  endfacet
  facet normal 0 0 1
    outer loop
      vertex -18 -5.3 2.8
      vertex -15.4125 -2.03494 2.8
      vertex -15.9875 -2.03494 2.8
    endloop
  endfacet
  facet normal 0 0 1
    outer loop
      vertex -18 -5.3 2.8
      vertex -15.9875 -2.03494 2.8
      vertex -16.5498 -1.91541 2.8
    endloop
  endfacet
  facet normal 0 0 1
    outer loop
      vertex -14.325 -1.68157 2.8
      vertex -18 -5.3 2.8
      vertex -4.3 -5.3 2.8
    endloop
  endfacet
  facet normal 0 0 1
    outer loop
      vertex -17.075 -1.68157 2.8
      vertex -18 -5.3 2.8
      vertex -16.5498 -1.91541 2.8
    endloop
  endfacet
  facet normal 0 0 1
    outer loop
      vertex -17.5401 -1.34365 2.8
      vertex -18 -5.3 2.8
      vertex -17.075 -1.68157 2.8
    endloop
  endfacet
  facet normal 0 0 1
    outer loop
      vertex -17.9248 -0.91641 2.8
      vertex -18 -5.3 2.8
      vertex -17.5401 -1.34365 2.8
    endloop
  endfacet
  facet normal 0 0 1
    outer loop
      vertex -18 -5.3 2.8
      vertex -17.9248 -0.91641 2.8
      vertex -18 -0.786154 2.8
    endloop
  endfacet
  facet normal 1 -0 0
    outer loop
      vertex 22.6 2.45501 2.8
      vertex 22.6 6.7 0.7
      vertex 22.6 6.7 2.8
    endloop
  endfacet
  facet normal 1 0 0
    outer loop
      vertex 22.6 6.7 0.7
      vertex 22.6 2.45501 2.8
      vertex 22.6 2.45501 0.7
    endloop
  endfacet
  facet normal 1 -0 0
    outer loop
      vertex 22.6 -5.3 2.8
      vertex 22.6 -1.05501 0.7
      vertex 22.6 -1.05501 2.8
    endloop
  endfacet
  facet normal 1 0 0
    outer loop
      vertex 22.6 -1.05501 0.7
      vertex 22.6 -5.3 2.8
      vertex 22.6 -5.3 0.7
    endloop
  endfacet
  facet normal -1 0 0
    outer loop
      vertex -4.3 -5.3 2.8
      vertex -4.3 6.7 6.2
      vertex -4.3 6.7 2.8
    endloop
  endfacet
  facet normal -1 -0 0
    outer loop
      vertex -4.3 6.7 6.2
      vertex -4.3 -5.3 2.8
      vertex -4.3 -5.3 6.2
    endloop
  endfacet
  facet normal 0 0 1
    outer loop
      vertex 13.7 6.7 6.2
      vertex 9.95 0.7 6.2
      vertex 13.7 -5.3 6.2
    endloop
  endfacet
  facet normal 0 0 1
    outer loop
      vertex 13.7 6.7 6.2
      vertex 9.87898 1.37571 6.2
      vertex 9.95 0.7 6.2
    endloop
  endfacet
  facet normal 0 0 1
    outer loop
      vertex 13.7 6.7 6.2
      vertex 9.66902 2.02189 6.2
      vertex 9.87898 1.37571 6.2
    endloop
  endfacet
  facet normal 0 0 1
    outer loop
      vertex 13.7 6.7 6.2
      vertex 9.32931 2.6103 6.2
      vertex 9.66902 2.02189 6.2
    endloop
  endfacet
  facet normal 0 0 1
    outer loop
      vertex 13.7 6.7 6.2
      vertex 8.87467 3.11522 6.2
      vertex 9.32931 2.6103 6.2
    endloop
  endfacet
  facet normal 0 0 1
    outer loop
      vertex 13.7 6.7 6.2
      vertex 8.325 3.51458 6.2
      vertex 8.87467 3.11522 6.2
    endloop
  endfacet
  facet normal 0 0 1
    outer loop
      vertex 13.7 6.7 6.2
      vertex 7.70431 3.79093 6.2
      vertex 8.325 3.51458 6.2
    endloop
  endfacet
  facet normal 0 0 1
    outer loop
      vertex 13.7 6.7 6.2
      vertex 7.03972 3.9322 6.2
      vertex 7.70431 3.79093 6.2
    endloop
  endfacet
  facet normal 0 0 1
    outer loop
      vertex 13.7 6.7 6.2
      vertex 6.36028 3.9322 6.2
      vertex 7.03972 3.9322 6.2
    endloop
  endfacet
  facet normal -0 0 1
    outer loop
      vertex -4.3 6.7 6.2
      vertex 6.36028 3.9322 6.2
      vertex 13.7 6.7 6.2
    endloop
  endfacet
  facet normal 0 0 1
    outer loop
      vertex 3.52102 1.37571 6.2
      vertex -4.3 6.7 6.2
      vertex 3.45 0.7 6.2
    endloop
  endfacet
  facet normal 0 0 1
    outer loop
      vertex 3.73098 2.02189 6.2
      vertex -4.3 6.7 6.2
      vertex 3.52102 1.37571 6.2
    endloop
  endfacet
  facet normal 0 0 1
    outer loop
      vertex 4.07069 2.6103 6.2
      vertex -4.3 6.7 6.2
      vertex 3.73098 2.02189 6.2
    endloop
  endfacet
  facet normal 0 0 1
    outer loop
      vertex 4.52533 3.11522 6.2
      vertex -4.3 6.7 6.2
      vertex 4.07069 2.6103 6.2
    endloop
  endfacet
  facet normal 0 0 1
    outer loop
      vertex 5.075 3.51458 6.2
      vertex -4.3 6.7 6.2
      vertex 4.52533 3.11522 6.2
    endloop
  endfacet
  facet normal 0 0 1
    outer loop
      vertex 5.69569 3.79093 6.2
      vertex -4.3 6.7 6.2
      vertex 5.075 3.51458 6.2
    endloop
  endfacet
  facet normal 0 0 1
    outer loop
      vertex 6.36028 3.9322 6.2
      vertex -4.3 6.7 6.2
      vertex 5.69569 3.79093 6.2
    endloop
  endfacet
  facet normal -0 0 1
    outer loop
      vertex 9.87898 0.0242865 6.2
      vertex 13.7 -5.3 6.2
      vertex 9.95 0.7 6.2
    endloop
  endfacet
  facet normal -0 0 1
    outer loop
      vertex 9.66902 -0.621895 6.2
      vertex 13.7 -5.3 6.2
      vertex 9.87898 0.0242865 6.2
    endloop
  endfacet
  facet normal -0 0 1
    outer loop
      vertex 9.32931 -1.2103 6.2
      vertex 13.7 -5.3 6.2
      vertex 9.66902 -0.621895 6.2
    endloop
  endfacet
  facet normal -0 0 1
    outer loop
      vertex 8.87467 -1.71522 6.2
      vertex 13.7 -5.3 6.2
      vertex 9.32931 -1.2103 6.2
    endloop
  endfacet
  facet normal -0 0 1
    outer loop
      vertex 8.325 -2.11458 6.2
      vertex 13.7 -5.3 6.2
      vertex 8.87467 -1.71522 6.2
    endloop
  endfacet
  facet normal -0 0 1
    outer loop
      vertex 7.70431 -2.39093 6.2
      vertex 13.7 -5.3 6.2
      vertex 8.325 -2.11458 6.2
    endloop
  endfacet
  facet normal -0 0 1
    outer loop
      vertex 7.03972 -2.5322 6.2
      vertex 13.7 -5.3 6.2
      vertex 7.70431 -2.39093 6.2
    endloop
  endfacet
  facet normal -0 0 1
    outer loop
      vertex 6.36028 -2.5322 6.2
      vertex 13.7 -5.3 6.2
      vertex 7.03972 -2.5322 6.2
    endloop
  endfacet
  facet normal 0 0 1
    outer loop
      vertex -4.3 -5.3 6.2
      vertex 6.36028 -2.5322 6.2
      vertex 5.69569 -2.39093 6.2
    endloop
  endfacet
  facet normal 0 0 1
    outer loop
      vertex -4.3 -5.3 6.2
      vertex 3.45 0.7 6.2
      vertex -4.3 6.7 6.2
    endloop
  endfacet
  facet normal 0 0 1
    outer loop
      vertex 3.45 0.7 6.2
      vertex -4.3 -5.3 6.2
      vertex 3.52102 0.0242865 6.2
    endloop
  endfacet
  facet normal 0 0 1
    outer loop
      vertex 3.52102 0.0242865 6.2
      vertex -4.3 -5.3 6.2
      vertex 3.73098 -0.621895 6.2
    endloop
  endfacet
  facet normal 0 0 1
    outer loop
      vertex 3.73098 -0.621895 6.2
      vertex -4.3 -5.3 6.2
      vertex 4.07069 -1.2103 6.2
    endloop
  endfacet
  facet normal 0 0 1
    outer loop
      vertex 6.36028 -2.5322 6.2
      vertex -4.3 -5.3 6.2
      vertex 13.7 -5.3 6.2
    endloop
  endfacet
  facet normal 0 0 1
    outer loop
      vertex 5.075 -2.11458 6.2
      vertex -4.3 -5.3 6.2
      vertex 5.69569 -2.39093 6.2
    endloop
  endfacet
  facet normal 0 0 1
    outer loop
      vertex 4.52533 -1.71522 6.2
      vertex -4.3 -5.3 6.2
      vertex 5.075 -2.11458 6.2
    endloop
  endfacet
  facet normal 0 0 1
    outer loop
      vertex 4.07069 -1.2103 6.2
      vertex -4.3 -5.3 6.2
      vertex 4.52533 -1.71522 6.2
    endloop
  endfacet
  facet normal 1 -0 0
    outer loop
      vertex 13.7 -5.3 6.2
      vertex 13.7 6.7 2.8
      vertex 13.7 6.7 6.2
    endloop
  endfacet
  facet normal 1 0 0
    outer loop
      vertex 13.7 6.7 2.8
      vertex 13.7 -5.3 6.2
      vertex 13.7 -5.3 2.8
    endloop
  endfacet
  facet normal -0.587787 -0.809016 0
    outer loop
      vertex 4.52533 -1.71522 6.2
      vertex 5.075 -2.11458 9.7
      vertex 4.52533 -1.71522 9.7
    endloop
  endfacet
  facet normal -0.587787 -0.809016 -0
    outer loop
      vertex 5.075 -2.11458 9.7
      vertex 4.52533 -1.71522 6.2
      vertex 5.075 -2.11458 6.2
    endloop
  endfacet
  facet normal 0.866029 -0.499994 0
    outer loop
      vertex 9.32931 -1.2103 9.7
      vertex 9.66902 -0.621895 6.2
      vertex 9.66902 -0.621895 9.7
    endloop
  endfacet
  facet normal 0.866029 -0.499994 0
    outer loop
      vertex 9.66902 -0.621895 6.2
      vertex 9.32931 -1.2103 9.7
      vertex 9.32931 -1.2103 6.2
    endloop
  endfacet
  facet normal -0.951055 0.309022 0
    outer loop
      vertex 3.52102 1.37571 6.2
      vertex 3.73098 2.02189 9.7
      vertex 3.73098 2.02189 6.2
    endloop
  endfacet
  facet normal -0.951055 0.309022 0
    outer loop
      vertex 3.73098 2.02189 9.7
      vertex 3.52102 1.37571 6.2
      vertex 3.52102 1.37571 9.7
    endloop
  endfacet
  facet normal -0.406738 -0.913545 0
    outer loop
      vertex 5.075 -2.11458 6.2
      vertex 5.69569 -2.39093 9.7
      vertex 5.075 -2.11458 9.7
    endloop
  endfacet
  facet normal -0.406738 -0.913545 -0
    outer loop
      vertex 5.69569 -2.39093 9.7
      vertex 5.075 -2.11458 6.2
      vertex 5.69569 -2.39093 6.2
    endloop
  endfacet
  facet normal 0 0 1
    outer loop
      vertex 8.45 0.7 9.7
      vertex 9.95 0.7 9.7
      vertex 9.87898 1.37571 9.7
    endloop
  endfacet
  facet normal 0 0 1
    outer loop
      vertex 8.41176 1.06384 9.7
      vertex 9.87898 1.37571 9.7
      vertex 9.66902 2.02189 9.7
    endloop
  endfacet
  facet normal 0 0 1
    outer loop
      vertex 9.95 0.7 9.7
      vertex 8.45 0.7 9.7
      vertex 9.87898 0.0242865 9.7
    endloop
  endfacet
  facet normal 0 0 1
    outer loop
      vertex 8.29871 1.41179 9.7
      vertex 9.66902 2.02189 9.7
      vertex 9.32931 2.6103 9.7
    endloop
  endfacet
  facet normal -0 0 1
    outer loop
      vertex 8.41176 0.336154 9.7
      vertex 9.87898 0.0242865 9.7
      vertex 8.45 0.7 9.7
    endloop
  endfacet
  facet normal 0 0 1
    outer loop
      vertex 8.11578 1.72862 9.7
      vertex 9.32931 2.6103 9.7
      vertex 8.87467 3.11522 9.7
    endloop
  endfacet
  facet normal 0 0 1
    outer loop
      vertex 9.87898 0.0242865 9.7
      vertex 8.41176 0.336154 9.7
      vertex 9.66902 -0.621895 9.7
    endloop
  endfacet
  facet normal -0 0 1
    outer loop
      vertex 8.29871 -0.0117891 9.7
      vertex 9.66902 -0.621895 9.7
      vertex 8.41176 0.336154 9.7
    endloop
  endfacet
  facet normal 0 0 1
    outer loop
      vertex 9.87898 1.37571 9.7
      vertex 8.41176 1.06384 9.7
      vertex 8.45 0.7 9.7
    endloop
  endfacet
  facet normal 0 0 1
    outer loop
      vertex 7.87098 2.0005 9.7
      vertex 8.87467 3.11522 9.7
      vertex 8.325 3.51458 9.7
    endloop
  endfacet
  facet normal 0 0 1
    outer loop
      vertex 9.66902 2.02189 9.7
      vertex 8.29871 1.41179 9.7
      vertex 8.41176 1.06384 9.7
    endloop
  endfacet
  facet normal 0 0 1
    outer loop
      vertex 9.32931 2.6103 9.7
      vertex 8.11578 1.72862 9.7
      vertex 8.29871 1.41179 9.7
    endloop
  endfacet
  facet normal 0 0 1
    outer loop
      vertex 8.87467 3.11522 9.7
      vertex 7.87098 2.0005 9.7
      vertex 8.11578 1.72862 9.7
    endloop
  endfacet
  facet normal 0 0 1
    outer loop
      vertex 7.575 2.21554 9.7
      vertex 8.325 3.51458 9.7
      vertex 7.70431 3.79093 9.7
    endloop
  endfacet
  facet normal 0 0 1
    outer loop
      vertex 8.325 3.51458 9.7
      vertex 7.575 2.21554 9.7
      vertex 7.87098 2.0005 9.7
    endloop
  endfacet
  facet normal 0 0 1
    outer loop
      vertex 7.70431 3.79093 9.7
      vertex 7.24078 2.36435 9.7
      vertex 7.575 2.21554 9.7
    endloop
  endfacet
  facet normal 0 0 1
    outer loop
      vertex 7.03972 3.9322 9.7
      vertex 7.24078 2.36435 9.7
      vertex 7.70431 3.79093 9.7
    endloop
  endfacet
  facet normal 0 0 1
    outer loop
      vertex 7.03972 3.9322 9.7
      vertex 6.88293 2.44041 9.7
      vertex 7.24078 2.36435 9.7
    endloop
  endfacet
  facet normal 0 0 1
    outer loop
      vertex 7.03972 3.9322 9.7
      vertex 6.51708 2.44041 9.7
      vertex 6.88293 2.44041 9.7
    endloop
  endfacet
  facet normal -0 0 1
    outer loop
      vertex 6.36028 3.9322 9.7
      vertex 6.51708 2.44041 9.7
      vertex 7.03972 3.9322 9.7
    endloop
  endfacet
  facet normal 0 0 1
    outer loop
      vertex 6.36028 3.9322 9.7
      vertex 6.15922 2.36435 9.7
      vertex 6.51708 2.44041 9.7
    endloop
  endfacet
  facet normal -0 0 1
    outer loop
      vertex 5.69569 3.79093 9.7
      vertex 6.15922 2.36435 9.7
      vertex 6.36028 3.9322 9.7
    endloop
  endfacet
  facet normal 0 0 1
    outer loop
      vertex 6.15922 2.36435 9.7
      vertex 5.69569 3.79093 9.7
      vertex 5.825 2.21554 9.7
    endloop
  endfacet
  facet normal -0 0 1
    outer loop
      vertex 5.075 3.51458 9.7
      vertex 5.825 2.21554 9.7
      vertex 5.69569 3.79093 9.7
    endloop
  endfacet
  facet normal 0 0 1
    outer loop
      vertex 5.825 2.21554 9.7
      vertex 5.075 3.51458 9.7
      vertex 5.52902 2.0005 9.7
    endloop
  endfacet
  facet normal -0 0 1
    outer loop
      vertex 4.52533 3.11522 9.7
      vertex 5.52902 2.0005 9.7
      vertex 5.075 3.51458 9.7
    endloop
  endfacet
  facet normal 0 0 1
    outer loop
      vertex 5.52902 2.0005 9.7
      vertex 4.52533 3.11522 9.7
      vertex 5.28422 1.72862 9.7
    endloop
  endfacet
  facet normal -0 0 1
    outer loop
      vertex 4.07069 2.6103 9.7
      vertex 5.28422 1.72862 9.7
      vertex 4.52533 3.11522 9.7
    endloop
  endfacet
  facet normal 0 0 1
    outer loop
      vertex 5.28422 1.72862 9.7
      vertex 4.07069 2.6103 9.7
      vertex 5.1013 1.41179 9.7
    endloop
  endfacet
  facet normal -0 0 1
    outer loop
      vertex 3.73098 2.02189 9.7
      vertex 5.1013 1.41179 9.7
      vertex 4.07069 2.6103 9.7
    endloop
  endfacet
  facet normal 0 0 1
    outer loop
      vertex 9.66902 -0.621895 9.7
      vertex 8.29871 -0.0117891 9.7
      vertex 9.32931 -1.2103 9.7
    endloop
  endfacet
  facet normal -0 0 1
    outer loop
      vertex 8.11578 -0.328625 9.7
      vertex 9.32931 -1.2103 9.7
      vertex 8.29871 -0.0117891 9.7
    endloop
  endfacet
  facet normal 0 0 1
    outer loop
      vertex 9.32931 -1.2103 9.7
      vertex 8.11578 -0.328625 9.7
      vertex 8.87467 -1.71522 9.7
    endloop
  endfacet
  facet normal -0 0 1
    outer loop
      vertex 7.87098 -0.600504 9.7
      vertex 8.87467 -1.71522 9.7
      vertex 8.11578 -0.328625 9.7
    endloop
  endfacet
  facet normal 0 0 1
    outer loop
      vertex 8.87467 -1.71522 9.7
      vertex 7.87098 -0.600504 9.7
      vertex 8.325 -2.11458 9.7
    endloop
  endfacet
  facet normal -0 0 1
    outer loop
      vertex 7.575 -0.815545 9.7
      vertex 8.325 -2.11458 9.7
      vertex 7.87098 -0.600504 9.7
    endloop
  endfacet
  facet normal 0 0 1
    outer loop
      vertex 8.325 -2.11458 9.7
      vertex 7.575 -0.815545 9.7
      vertex 7.70431 -2.39093 9.7
    endloop
  endfacet
  facet normal -0 0 1
    outer loop
      vertex 7.24078 -0.96435 9.7
      vertex 7.70431 -2.39093 9.7
      vertex 7.575 -0.815545 9.7
    endloop
  endfacet
  facet normal 0 0 1
    outer loop
      vertex 7.24078 -0.96435 9.7
      vertex 7.03972 -2.5322 9.7
      vertex 7.70431 -2.39093 9.7
    endloop
  endfacet
  facet normal -0 0 1
    outer loop
      vertex 6.88293 -1.04041 9.7
      vertex 7.03972 -2.5322 9.7
      vertex 7.24078 -0.96435 9.7
    endloop
  endfacet
  facet normal -0 0 1
    outer loop
      vertex 6.51708 -1.04041 9.7
      vertex 7.03972 -2.5322 9.7
      vertex 6.88293 -1.04041 9.7
    endloop
  endfacet
  facet normal 0 0 1
    outer loop
      vertex 6.51708 -1.04041 9.7
      vertex 6.36028 -2.5322 9.7
      vertex 7.03972 -2.5322 9.7
    endloop
  endfacet
  facet normal 0 0 1
    outer loop
      vertex 6.15922 -0.96435 9.7
      vertex 6.36028 -2.5322 9.7
      vertex 6.51708 -1.04041 9.7
    endloop
  endfacet
  facet normal 0 0 1
    outer loop
      vertex 5.69569 -2.39093 9.7
      vertex 6.15922 -0.96435 9.7
      vertex 5.825 -0.815545 9.7
    endloop
  endfacet
  facet normal 0 0 1
    outer loop
      vertex 6.15922 -0.96435 9.7
      vertex 5.69569 -2.39093 9.7
      vertex 6.36028 -2.5322 9.7
    endloop
  endfacet
  facet normal 0 0 1
    outer loop
      vertex 5.075 -2.11458 9.7
      vertex 5.825 -0.815545 9.7
      vertex 5.52902 -0.600504 9.7
    endloop
  endfacet
  facet normal 0 0 1
    outer loop
      vertex 4.52533 -1.71522 9.7
      vertex 5.52902 -0.600504 9.7
      vertex 5.28422 -0.328625 9.7
    endloop
  endfacet
  facet normal 0 0 1
    outer loop
      vertex 4.07069 -1.2103 9.7
      vertex 5.28422 -0.328625 9.7
      vertex 5.1013 -0.0117891 9.7
    endloop
  endfacet
  facet normal 0 0 1
    outer loop
      vertex 5.825 -0.815545 9.7
      vertex 5.075 -2.11458 9.7
      vertex 5.69569 -2.39093 9.7
    endloop
  endfacet
  facet normal 0 0 1
    outer loop
      vertex 3.73098 -0.621895 9.7
      vertex 5.1013 -0.0117891 9.7
      vertex 4.98824 0.336154 9.7
    endloop
  endfacet
  facet normal 0 0 1
    outer loop
      vertex 3.52102 0.0242865 9.7
      vertex 4.98824 0.336154 9.7
      vertex 4.95 0.7 9.7
    endloop
  endfacet
  facet normal 0 0 1
    outer loop
      vertex 5.1013 1.41179 9.7
      vertex 3.73098 2.02189 9.7
      vertex 4.98824 1.06384 9.7
    endloop
  endfacet
  facet normal 0 0 1
    outer loop
      vertex 5.52902 -0.600504 9.7
      vertex 4.52533 -1.71522 9.7
      vertex 5.075 -2.11458 9.7
    endloop
  endfacet
  facet normal -0 0 1
    outer loop
      vertex 3.52102 1.37571 9.7
      vertex 4.98824 1.06384 9.7
      vertex 3.73098 2.02189 9.7
    endloop
  endfacet
  facet normal 0 0 1
    outer loop
      vertex 5.28422 -0.328625 9.7
      vertex 4.07069 -1.2103 9.7
      vertex 4.52533 -1.71522 9.7
    endloop
  endfacet
  facet normal 0 0 1
    outer loop
      vertex 4.98824 1.06384 9.7
      vertex 3.52102 1.37571 9.7
      vertex 4.95 0.7 9.7
    endloop
  endfacet
  facet normal 0 0 1
    outer loop
      vertex 5.1013 -0.0117891 9.7
      vertex 3.73098 -0.621895 9.7
      vertex 4.07069 -1.2103 9.7
    endloop
  endfacet
  facet normal 0 0 1
    outer loop
      vertex 3.45 0.7 9.7
      vertex 4.95 0.7 9.7
      vertex 3.52102 1.37571 9.7
    endloop
  endfacet
  facet normal 0 0 1
    outer loop
      vertex 4.98824 0.336154 9.7
      vertex 3.52102 0.0242865 9.7
      vertex 3.73098 -0.621895 9.7
    endloop
  endfacet
  facet normal 0 0 1
    outer loop
      vertex 4.95 0.7 9.7
      vertex 3.45 0.7 9.7
      vertex 3.52102 0.0242865 9.7
    endloop
  endfacet
  facet normal 0.743139 0.669137 0
    outer loop
      vertex 9.32931 2.6103 9.7
      vertex 8.87467 3.11522 6.2
      vertex 8.87467 3.11522 9.7
    endloop
  endfacet
  facet normal 0.743139 0.669137 0
    outer loop
      vertex 8.87467 3.11522 6.2
      vertex 9.32931 2.6103 9.7
      vertex 9.32931 2.6103 6.2
    endloop
  endfacet
  facet normal -0.994522 -0.104528 0
    outer loop
      vertex 3.52102 0.0242865 6.2
      vertex 3.45 0.7 9.7
      vertex 3.45 0.7 6.2
    endloop
  endfacet
  facet normal -0.994522 -0.104528 0
    outer loop
      vertex 3.45 0.7 9.7
      vertex 3.52102 0.0242865 6.2
      vertex 3.52102 0.0242865 9.7
    endloop
  endfacet
  facet normal -0.866029 -0.499994 0
    outer loop
      vertex 4.07069 -1.2103 6.2
      vertex 3.73098 -0.621895 9.7
      vertex 3.73098 -0.621895 6.2
    endloop
  endfacet
  facet normal -0.866029 -0.499994 0
    outer loop
      vertex 3.73098 -0.621895 9.7
      vertex 4.07069 -1.2103 6.2
      vertex 4.07069 -1.2103 9.7
    endloop
  endfacet
  facet normal -0.207922 -0.978145 0
    outer loop
      vertex 5.69569 -2.39093 6.2
      vertex 6.36028 -2.5322 9.7
      vertex 5.69569 -2.39093 9.7
    endloop
  endfacet
  facet normal -0.207922 -0.978145 -0
    outer loop
      vertex 6.36028 -2.5322 9.7
      vertex 5.69569 -2.39093 6.2
      vertex 6.36028 -2.5322 6.2
    endloop
  endfacet
  facet normal 0.866031 0.49999 0
    outer loop
      vertex 9.66902 2.02189 9.7
      vertex 9.32931 2.6103 6.2
      vertex 9.32931 2.6103 9.7
    endloop
  endfacet
  facet normal 0.866031 0.49999 0
    outer loop
      vertex 9.32931 2.6103 6.2
      vertex 9.66902 2.02189 9.7
      vertex 9.66902 2.02189 6.2
    endloop
  endfacet
  facet normal -0.743139 0.669137 0
    outer loop
      vertex 4.07069 2.6103 6.2
      vertex 4.52533 3.11522 9.7
      vertex 4.52533 3.11522 6.2
    endloop
  endfacet
  facet normal -0.743139 0.669137 0
    outer loop
      vertex 4.52533 3.11522 9.7
      vertex 4.07069 2.6103 6.2
      vertex 4.07069 2.6103 9.7
    endloop
  endfacet
  facet normal -0.994522 0.104528 0
    outer loop
      vertex 3.45 0.7 6.2
      vertex 3.52102 1.37571 9.7
      vertex 3.52102 1.37571 6.2
    endloop
  endfacet
  facet normal -0.994522 0.104528 0
    outer loop
      vertex 3.52102 1.37571 9.7
      vertex 3.45 0.7 6.2
      vertex 3.45 0.7 9.7
    endloop
  endfacet
  facet normal -0.743139 -0.669137 0
    outer loop
      vertex 4.52533 -1.71522 6.2
      vertex 4.07069 -1.2103 9.7
      vertex 4.07069 -1.2103 6.2
    endloop
  endfacet
  facet normal -0.743139 -0.669137 0
    outer loop
      vertex 4.07069 -1.2103 9.7
      vertex 4.52533 -1.71522 6.2
      vertex 4.52533 -1.71522 9.7
    endloop
  endfacet
  facet normal 0 1 -0
    outer loop
      vertex 7.03972 3.9322 6.2
      vertex 6.36028 3.9322 9.7
      vertex 7.03972 3.9322 9.7
    endloop
  endfacet
  facet normal 0 1 0
    outer loop
      vertex 6.36028 3.9322 9.7
      vertex 7.03972 3.9322 6.2
      vertex 6.36028 3.9322 6.2
    endloop
  endfacet
  facet normal -0.587787 0.809016 0
    outer loop
      vertex 5.075 3.51458 6.2
      vertex 4.52533 3.11522 9.7
      vertex 5.075 3.51458 9.7
    endloop
  endfacet
  facet normal -0.587787 0.809016 0
    outer loop
      vertex 4.52533 3.11522 9.7
      vertex 5.075 3.51458 6.2
      vertex 4.52533 3.11522 6.2
    endloop
  endfacet
  facet normal 0.207922 0.978145 -0
    outer loop
      vertex 7.70431 3.79093 6.2
      vertex 7.03972 3.9322 9.7
      vertex 7.70431 3.79093 9.7
    endloop
  endfacet
  facet normal 0.207922 0.978145 0
    outer loop
      vertex 7.03972 3.9322 9.7
      vertex 7.70431 3.79093 6.2
      vertex 7.03972 3.9322 6.2
    endloop
  endfacet
  facet normal -0.866031 0.49999 0
    outer loop
      vertex 3.73098 2.02189 6.2
      vertex 4.07069 2.6103 9.7
      vertex 4.07069 2.6103 6.2
    endloop
  endfacet
  facet normal -0.866031 0.49999 0
    outer loop
      vertex 4.07069 2.6103 9.7
      vertex 3.73098 2.02189 6.2
      vertex 3.73098 2.02189 9.7
    endloop
  endfacet
  facet normal -0.406738 0.913545 0
    outer loop
      vertex 5.69569 3.79093 6.2
      vertex 5.075 3.51458 9.7
      vertex 5.69569 3.79093 9.7
    endloop
  endfacet
  facet normal -0.406738 0.913545 0
    outer loop
      vertex 5.075 3.51458 9.7
      vertex 5.69569 3.79093 6.2
      vertex 5.075 3.51458 6.2
    endloop
  endfacet
  facet normal -0.207922 0.978145 0
    outer loop
      vertex 6.36028 3.9322 6.2
      vertex 5.69569 3.79093 9.7
      vertex 6.36028 3.9322 9.7
    endloop
  endfacet
  facet normal -0.207922 0.978145 0
    outer loop
      vertex 5.69569 3.79093 9.7
      vertex 6.36028 3.9322 6.2
      vertex 5.69569 3.79093 6.2
    endloop
  endfacet
  facet normal 0.406738 -0.913545 0
    outer loop
      vertex 7.70431 -2.39093 6.2
      vertex 8.325 -2.11458 9.7
      vertex 7.70431 -2.39093 9.7
    endloop
  endfacet
  facet normal 0.406738 -0.913545 0
    outer loop
      vertex 8.325 -2.11458 9.7
      vertex 7.70431 -2.39093 6.2
      vertex 8.325 -2.11458 6.2
    endloop
  endfacet
  facet normal 0.406738 0.913545 -0
    outer loop
      vertex 8.325 3.51458 6.2
      vertex 7.70431 3.79093 9.7
      vertex 8.325 3.51458 9.7
    endloop
  endfacet
  facet normal 0.406738 0.913545 0
    outer loop
      vertex 7.70431 3.79093 9.7
      vertex 8.325 3.51458 6.2
      vertex 7.70431 3.79093 6.2
    endloop
  endfacet
  facet normal 0.994522 -0.104528 0
    outer loop
      vertex 9.87898 0.0242865 9.7
      vertex 9.95 0.7 6.2
      vertex 9.95 0.7 9.7
    endloop
  endfacet
  facet normal 0.994522 -0.104528 0
    outer loop
      vertex 9.95 0.7 6.2
      vertex 9.87898 0.0242865 9.7
      vertex 9.87898 0.0242865 6.2
    endloop
  endfacet
  facet normal 0.207922 -0.978145 0
    outer loop
      vertex 7.03972 -2.5322 6.2
      vertex 7.70431 -2.39093 9.7
      vertex 7.03972 -2.5322 9.7
    endloop
  endfacet
  facet normal 0.207922 -0.978145 0
    outer loop
      vertex 7.70431 -2.39093 9.7
      vertex 7.03972 -2.5322 6.2
      vertex 7.70431 -2.39093 6.2
    endloop
  endfacet
  facet normal 0.994522 0.104528 0
    outer loop
      vertex 9.95 0.7 9.7
      vertex 9.87898 1.37571 6.2
      vertex 9.87898 1.37571 9.7
    endloop
  endfacet
  facet normal 0.994522 0.104528 0
    outer loop
      vertex 9.87898 1.37571 6.2
      vertex 9.95 0.7 9.7
      vertex 9.95 0.7 6.2
    endloop
  endfacet
  facet normal 0.743139 -0.669137 0
    outer loop
      vertex 8.87467 -1.71522 9.7
      vertex 9.32931 -1.2103 6.2
      vertex 9.32931 -1.2103 9.7
    endloop
  endfacet
  facet normal 0.743139 -0.669137 0
    outer loop
      vertex 9.32931 -1.2103 6.2
      vertex 8.87467 -1.71522 9.7
      vertex 8.87467 -1.71522 6.2
    endloop
  endfacet
  facet normal -0.951055 -0.309021 0
    outer loop
      vertex 3.73098 -0.621895 6.2
      vertex 3.52102 0.0242865 9.7
      vertex 3.52102 0.0242865 6.2
    endloop
  endfacet
  facet normal -0.951055 -0.309021 0
    outer loop
      vertex 3.52102 0.0242865 9.7
      vertex 3.73098 -0.621895 6.2
      vertex 3.73098 -0.621895 9.7
    endloop
  endfacet
  facet normal 0.951055 0.309022 0
    outer loop
      vertex 9.87898 1.37571 9.7
      vertex 9.66902 2.02189 6.2
      vertex 9.66902 2.02189 9.7
    endloop
  endfacet
  facet normal 0.951055 0.309022 0
    outer loop
      vertex 9.66902 2.02189 6.2
      vertex 9.87898 1.37571 9.7
      vertex 9.87898 1.37571 6.2
    endloop
  endfacet
  facet normal 0.587787 0.809016 -0
    outer loop
      vertex 8.87467 3.11522 6.2
      vertex 8.325 3.51458 9.7
      vertex 8.87467 3.11522 9.7
    endloop
  endfacet
  facet normal 0.587787 0.809016 0
    outer loop
      vertex 8.325 3.51458 9.7
      vertex 8.87467 3.11522 6.2
      vertex 8.325 3.51458 6.2
    endloop
  endfacet
  facet normal 0.951055 -0.309021 0
    outer loop
      vertex 9.66902 -0.621895 9.7
      vertex 9.87898 0.0242865 6.2
      vertex 9.87898 0.0242865 9.7
    endloop
  endfacet
  facet normal 0.951055 -0.309021 0
    outer loop
      vertex 9.87898 0.0242865 6.2
      vertex 9.66902 -0.621895 9.7
      vertex 9.66902 -0.621895 6.2
    endloop
  endfacet
  facet normal 0.587787 -0.809016 0
    outer loop
      vertex 8.325 -2.11458 6.2
      vertex 8.87467 -1.71522 9.7
      vertex 8.325 -2.11458 9.7
    endloop
  endfacet
  facet normal 0.587787 -0.809016 0
    outer loop
      vertex 8.87467 -1.71522 9.7
      vertex 8.325 -2.11458 6.2
      vertex 8.87467 -1.71522 6.2
    endloop
  endfacet
  facet normal 0 -1 0
    outer loop
      vertex 6.36028 -2.5322 6.2
      vertex 7.03972 -2.5322 9.7
      vertex 6.36028 -2.5322 9.7
    endloop
  endfacet
  facet normal 0 -1 -0
    outer loop
      vertex 7.03972 -2.5322 9.7
      vertex 6.36028 -2.5322 6.2
      vertex 7.03972 -2.5322 6.2
    endloop
  endfacet
  facet normal 0.951061 0.309003 0
    outer loop
      vertex 8.41176 1.06384 19.7
      vertex 8.29871 1.41179 9.7
      vertex 8.29871 1.41179 19.7
    endloop
  endfacet
  facet normal 0.951061 0.309003 0
    outer loop
      vertex 8.29871 1.41179 9.7
      vertex 8.41176 1.06384 19.7
      vertex 8.41176 1.06384 9.7
    endloop
  endfacet
  facet normal -0.994522 0.104525 0
    outer loop
      vertex 4.95 0.7 9.7
      vertex 4.98824 1.06384 19.7
      vertex 4.98824 1.06384 9.7
    endloop
  endfacet
  facet normal -0.994522 0.104525 0
    outer loop
      vertex 4.98824 1.06384 19.7
      vertex 4.95 0.7 9.7
      vertex 4.95 0.7 19.7
    endloop
  endfacet
  facet normal -0.207897 0.978151 0
    outer loop
      vertex 6.51708 2.44041 9.7
      vertex 6.15922 2.36435 19.7
      vertex 6.51708 2.44041 19.7
    endloop
  endfacet
  facet normal -0.207897 0.978151 0
    outer loop
      vertex 6.15922 2.36435 19.7
      vertex 6.51708 2.44041 9.7
      vertex 6.15922 2.36435 9.7
    endloop
  endfacet
  facet normal -0.743146 -0.669129 0
    outer loop
      vertex 5.52902 -0.600504 9.7
      vertex 5.28422 -0.328625 19.7
      vertex 5.28422 -0.328625 9.7
    endloop
  endfacet
  facet normal -0.743146 -0.669129 0
    outer loop
      vertex 5.28422 -0.328625 19.7
      vertex 5.52902 -0.600504 9.7
      vertex 5.52902 -0.600504 19.7
    endloop
  endfacet
  facet normal -0.951053 0.309027 0
    outer loop
      vertex 4.98824 1.06384 9.7
      vertex 5.1013 1.41179 19.7
      vertex 5.1013 1.41179 9.7
    endloop
  endfacet
  facet normal -0.951053 0.309027 0
    outer loop
      vertex 5.1013 1.41179 19.7
      vertex 4.98824 1.06384 9.7
      vertex 4.98824 1.06384 19.7
    endloop
  endfacet
  facet normal -0.866032 -0.499989 0
    outer loop
      vertex 5.28422 -0.328625 9.7
      vertex 5.1013 -0.0117891 19.7
      vertex 5.1013 -0.0117891 9.7
    endloop
  endfacet
  facet normal -0.866032 -0.499989 0
    outer loop
      vertex 5.1013 -0.0117891 19.7
      vertex 5.28422 -0.328625 9.7
      vertex 5.28422 -0.328625 19.7
    endloop
  endfacet
  facet normal 0.743147 0.669128 0
    outer loop
      vertex 8.11578 1.72862 19.7
      vertex 7.87098 2.0005 9.7
      vertex 7.87098 2.0005 19.7
    endloop
  endfacet
  facet normal 0.743147 0.669128 0
    outer loop
      vertex 7.87098 2.0005 9.7
      vertex 8.11578 1.72862 19.7
      vertex 8.11578 1.72862 9.7
    endloop
  endfacet
  facet normal -0.406738 -0.913545 0
    outer loop
      vertex 5.825 -0.815545 9.7
      vertex 6.15922 -0.96435 19.7
      vertex 5.825 -0.815545 19.7
    endloop
  endfacet
  facet normal -0.406738 -0.913545 -0
    outer loop
      vertex 6.15922 -0.96435 19.7
      vertex 5.825 -0.815545 9.7
      vertex 6.15922 -0.96435 9.7
    endloop
  endfacet
  facet normal 0.994522 0.104525 0
    outer loop
      vertex 8.45 0.7 19.7
      vertex 8.41176 1.06384 9.7
      vertex 8.41176 1.06384 19.7
    endloop
  endfacet
  facet normal 0.994522 0.104525 0
    outer loop
      vertex 8.41176 1.06384 9.7
      vertex 8.45 0.7 19.7
      vertex 8.45 0.7 9.7
    endloop
  endfacet
  facet normal 0.587783 -0.809018 0
    outer loop
      vertex 7.575 -0.815545 9.7
      vertex 7.87098 -0.600504 19.7
      vertex 7.575 -0.815545 19.7
    endloop
  endfacet
  facet normal 0.587783 -0.809018 0
    outer loop
      vertex 7.87098 -0.600504 19.7
      vertex 7.575 -0.815545 9.7
      vertex 7.87098 -0.600504 9.7
    endloop
  endfacet
  facet normal -0.40675 0.91354 0
    outer loop
      vertex 6.15922 2.36435 9.7
      vertex 5.825 2.21554 19.7
      vertex 6.15922 2.36435 19.7
    endloop
  endfacet
  facet normal -0.40675 0.91354 0
    outer loop
      vertex 5.825 2.21554 19.7
      vertex 6.15922 2.36435 9.7
      vertex 5.825 2.21554 9.7
    endloop
  endfacet
  facet normal -0.207897 -0.978151 0
    outer loop
      vertex 6.15922 -0.96435 9.7
      vertex 6.51708 -1.04041 19.7
      vertex 6.15922 -0.96435 19.7
    endloop
  endfacet
  facet normal -0.207897 -0.978151 -0
    outer loop
      vertex 6.51708 -1.04041 19.7
      vertex 6.15922 -0.96435 9.7
      vertex 6.51708 -1.04041 9.7
    endloop
  endfacet
  facet normal -0.866028 0.499996 0
    outer loop
      vertex 5.1013 1.41179 9.7
      vertex 5.28422 1.72862 19.7
      vertex 5.28422 1.72862 9.7
    endloop
  endfacet
  facet normal -0.866028 0.499996 0
    outer loop
      vertex 5.28422 1.72862 19.7
      vertex 5.1013 1.41179 9.7
      vertex 5.1013 1.41179 19.7
    endloop
  endfacet
  facet normal 0.40675 0.91354 -0
    outer loop
      vertex 7.575 2.21554 9.7
      vertex 7.24078 2.36435 19.7
      vertex 7.575 2.21554 19.7
    endloop
  endfacet
  facet normal 0.40675 0.91354 0
    outer loop
      vertex 7.24078 2.36435 19.7
      vertex 7.575 2.21554 9.7
      vertex 7.24078 2.36435 9.7
    endloop
  endfacet
  facet normal 0.207903 -0.978149 0
    outer loop
      vertex 6.88293 -1.04041 9.7
      vertex 7.24078 -0.96435 19.7
      vertex 6.88293 -1.04041 19.7
    endloop
  endfacet
  facet normal 0.207903 -0.978149 0
    outer loop
      vertex 7.24078 -0.96435 19.7
      vertex 6.88293 -1.04041 9.7
      vertex 7.24078 -0.96435 9.7
    endloop
  endfacet
  facet normal -0.587783 -0.809018 0
    outer loop
      vertex 5.52902 -0.600504 9.7
      vertex 5.825 -0.815545 19.7
      vertex 5.52902 -0.600504 19.7
    endloop
  endfacet
  facet normal -0.587783 -0.809018 -0
    outer loop
      vertex 5.825 -0.815545 19.7
      vertex 5.52902 -0.600504 9.7
      vertex 5.825 -0.815545 9.7
    endloop
  endfacet
  facet normal 0.587782 0.80902 -0
    outer loop
      vertex 7.87098 2.0005 9.7
      vertex 7.575 2.21554 19.7
      vertex 7.87098 2.0005 19.7
    endloop
  endfacet
  facet normal 0.587782 0.80902 0
    outer loop
      vertex 7.575 2.21554 19.7
      vertex 7.87098 2.0005 9.7
      vertex 7.575 2.21554 9.7
    endloop
  endfacet
  facet normal -0.951051 -0.309033 0
    outer loop
      vertex 5.1013 -0.0117891 9.7
      vertex 4.98824 0.336154 19.7
      vertex 4.98824 0.336154 9.7
    endloop
  endfacet
  facet normal -0.951051 -0.309033 0
    outer loop
      vertex 4.98824 0.336154 19.7
      vertex 5.1013 -0.0117891 9.7
      vertex 5.1013 -0.0117891 19.7
    endloop
  endfacet
  facet normal -0.587782 0.80902 0
    outer loop
      vertex 5.825 2.21554 9.7
      vertex 5.52902 2.0005 19.7
      vertex 5.825 2.21554 19.7
    endloop
  endfacet
  facet normal -0.587782 0.80902 0
    outer loop
      vertex 5.52902 2.0005 19.7
      vertex 5.825 2.21554 9.7
      vertex 5.52902 2.0005 9.7
    endloop
  endfacet
  facet normal 0.951059 -0.309008 0
    outer loop
      vertex 8.29871 -0.0117891 19.7
      vertex 8.41176 0.336154 9.7
      vertex 8.41176 0.336154 19.7
    endloop
  endfacet
  facet normal 0.951059 -0.309008 0
    outer loop
      vertex 8.41176 0.336154 9.7
      vertex 8.29871 -0.0117891 19.7
      vertex 8.29871 -0.0117891 9.7
    endloop
  endfacet
  facet normal -0.743147 0.669128 0
    outer loop
      vertex 5.28422 1.72862 9.7
      vertex 5.52902 2.0005 19.7
      vertex 5.52902 2.0005 9.7
    endloop
  endfacet
  facet normal -0.743147 0.669128 0
    outer loop
      vertex 5.52902 2.0005 19.7
      vertex 5.28422 1.72862 9.7
      vertex 5.28422 1.72862 19.7
    endloop
  endfacet
  facet normal 0 1 -0
    outer loop
      vertex 6.88293 2.44041 9.7
      vertex 6.51708 2.44041 19.7
      vertex 6.88293 2.44041 19.7
    endloop
  endfacet
  facet normal 0 1 0
    outer loop
      vertex 6.51708 2.44041 19.7
      vertex 6.88293 2.44041 9.7
      vertex 6.51708 2.44041 9.7
    endloop
  endfacet
  facet normal 0.994522 -0.104524 0
    outer loop
      vertex 8.41176 0.336154 19.7
      vertex 8.45 0.7 9.7
      vertex 8.45 0.7 19.7
    endloop
  endfacet
  facet normal 0.994522 -0.104524 0
    outer loop
      vertex 8.45 0.7 9.7
      vertex 8.41176 0.336154 19.7
      vertex 8.41176 0.336154 9.7
    endloop
  endfacet
  facet normal 0.866016 0.500017 0
    outer loop
      vertex 8.29871 1.41179 19.7
      vertex 8.11578 1.72862 9.7
      vertex 8.11578 1.72862 19.7
    endloop
  endfacet
  facet normal 0.866016 0.500017 0
    outer loop
      vertex 8.11578 1.72862 9.7
      vertex 8.29871 1.41179 19.7
      vertex 8.29871 1.41179 9.7
    endloop
  endfacet
  facet normal -0.994522 -0.104524 0
    outer loop
      vertex 4.98824 0.336154 9.7
      vertex 4.95 0.7 19.7
      vertex 4.95 0.7 9.7
    endloop
  endfacet
  facet normal -0.994522 -0.104524 0
    outer loop
      vertex 4.95 0.7 19.7
      vertex 4.98824 0.336154 9.7
      vertex 4.98824 0.336154 19.7
    endloop
  endfacet
  facet normal 0.406738 -0.913545 0
    outer loop
      vertex 7.24078 -0.96435 9.7
      vertex 7.575 -0.815545 19.7
      vertex 7.24078 -0.96435 19.7
    endloop
  endfacet
  facet normal 0.406738 -0.913545 0
    outer loop
      vertex 7.575 -0.815545 19.7
      vertex 7.24078 -0.96435 9.7
      vertex 7.575 -0.815545 9.7
    endloop
  endfacet
  facet normal 0.86602 -0.50001 0
    outer loop
      vertex 8.11578 -0.328625 19.7
      vertex 8.29871 -0.0117891 9.7
      vertex 8.29871 -0.0117891 19.7
    endloop
  endfacet
  facet normal 0.86602 -0.50001 0
    outer loop
      vertex 8.29871 -0.0117891 9.7
      vertex 8.11578 -0.328625 19.7
      vertex 8.11578 -0.328625 9.7
    endloop
  endfacet
  facet normal 0.743146 -0.669129 0
    outer loop
      vertex 7.87098 -0.600504 19.7
      vertex 8.11578 -0.328625 9.7
      vertex 8.11578 -0.328625 19.7
    endloop
  endfacet
  facet normal 0.743146 -0.669129 0
    outer loop
      vertex 8.11578 -0.328625 9.7
      vertex 7.87098 -0.600504 19.7
      vertex 7.87098 -0.600504 9.7
    endloop
  endfacet
  facet normal 0.207903 0.978149 -0
    outer loop
      vertex 7.24078 2.36435 9.7
      vertex 6.88293 2.44041 19.7
      vertex 7.24078 2.36435 19.7
    endloop
  endfacet
  facet normal 0.207903 0.978149 0
    outer loop
      vertex 6.88293 2.44041 19.7
      vertex 7.24078 2.36435 9.7
      vertex 6.88293 2.44041 9.7
    endloop
  endfacet
  facet normal 0 -1 0
    outer loop
      vertex 6.51708 -1.04041 9.7
      vertex 6.88293 -1.04041 19.7
      vertex 6.51708 -1.04041 19.7
    endloop
  endfacet
  facet normal 0 -1 -0
    outer loop
      vertex 6.88293 -1.04041 19.7
      vertex 6.51708 -1.04041 9.7
      vertex 6.88293 -1.04041 9.7
    endloop
  endfacet
  facet normal 0 0 1
    outer loop
      vertex 8.41176 1.06384 19.7
      vertex 8.41176 0.336154 19.7
      vertex 8.45 0.7 19.7
    endloop
  endfacet
  facet normal 0 0 1
    outer loop
      vertex 8.29871 1.41179 19.7
      vertex 8.41176 0.336154 19.7
      vertex 8.41176 1.06384 19.7
    endloop
  endfacet
  facet normal 0 0 1
    outer loop
      vertex 8.29871 1.41179 19.7
      vertex 8.29871 -0.0117891 19.7
      vertex 8.41176 0.336154 19.7
    endloop
  endfacet
  facet normal 0 0 1
    outer loop
      vertex 8.11578 1.72862 19.7
      vertex 8.29871 -0.0117891 19.7
      vertex 8.29871 1.41179 19.7
    endloop
  endfacet
  facet normal 0 0 1
    outer loop
      vertex 8.11578 1.72862 19.7
      vertex 8.11578 -0.328625 19.7
      vertex 8.29871 -0.0117891 19.7
    endloop
  endfacet
  facet normal 0 0 1
    outer loop
      vertex 7.87098 2.0005 19.7
      vertex 8.11578 -0.328625 19.7
      vertex 8.11578 1.72862 19.7
    endloop
  endfacet
  facet normal 0 0 1
    outer loop
      vertex 7.87098 2.0005 19.7
      vertex 7.87098 -0.600504 19.7
      vertex 8.11578 -0.328625 19.7
    endloop
  endfacet
  facet normal 0 0 1
    outer loop
      vertex 7.575 2.21554 19.7
      vertex 7.87098 -0.600504 19.7
      vertex 7.87098 2.0005 19.7
    endloop
  endfacet
  facet normal 0 0 1
    outer loop
      vertex 7.575 2.21554 19.7
      vertex 7.575 -0.815545 19.7
      vertex 7.87098 -0.600504 19.7
    endloop
  endfacet
  facet normal 0 0 1
    outer loop
      vertex 7.24078 2.36435 19.7
      vertex 7.575 -0.815545 19.7
      vertex 7.575 2.21554 19.7
    endloop
  endfacet
  facet normal 0 0 1
    outer loop
      vertex 7.24078 2.36435 19.7
      vertex 7.24078 -0.96435 19.7
      vertex 7.575 -0.815545 19.7
    endloop
  endfacet
  facet normal 0 0 1
    outer loop
      vertex 6.88293 2.44041 19.7
      vertex 7.24078 -0.96435 19.7
      vertex 7.24078 2.36435 19.7
    endloop
  endfacet
  facet normal 0 0 1
    outer loop
      vertex 6.88293 2.44041 19.7
      vertex 6.88293 -1.04041 19.7
      vertex 7.24078 -0.96435 19.7
    endloop
  endfacet
  facet normal -0 0 1
    outer loop
      vertex 6.51708 2.44041 19.7
      vertex 6.88293 -1.04041 19.7
      vertex 6.88293 2.44041 19.7
    endloop
  endfacet
  facet normal 0 0 1
    outer loop
      vertex 6.51708 2.44041 19.7
      vertex 6.51708 -1.04041 19.7
      vertex 6.88293 -1.04041 19.7
    endloop
  endfacet
  facet normal -0 0 1
    outer loop
      vertex 6.15922 2.36435 19.7
      vertex 6.51708 -1.04041 19.7
      vertex 6.51708 2.44041 19.7
    endloop
  endfacet
  facet normal 0 0 1
    outer loop
      vertex 6.15922 2.36435 19.7
      vertex 6.15922 -0.96435 19.7
      vertex 6.51708 -1.04041 19.7
    endloop
  endfacet
  facet normal -0 0 1
    outer loop
      vertex 5.825 2.21554 19.7
      vertex 6.15922 -0.96435 19.7
      vertex 6.15922 2.36435 19.7
    endloop
  endfacet
  facet normal 0 0 1
    outer loop
      vertex 5.825 2.21554 19.7
      vertex 5.825 -0.815545 19.7
      vertex 6.15922 -0.96435 19.7
    endloop
  endfacet
  facet normal -0 0 1
    outer loop
      vertex 5.52902 2.0005 19.7
      vertex 5.825 -0.815545 19.7
      vertex 5.825 2.21554 19.7
    endloop
  endfacet
  facet normal 0 0 1
    outer loop
      vertex 5.52902 2.0005 19.7
      vertex 5.52902 -0.600504 19.7
      vertex 5.825 -0.815545 19.7
    endloop
  endfacet
  facet normal -0 0 1
    outer loop
      vertex 5.28422 1.72862 19.7
      vertex 5.52902 -0.600504 19.7
      vertex 5.52902 2.0005 19.7
    endloop
  endfacet
  facet normal 0 0 1
    outer loop
      vertex 5.28422 1.72862 19.7
      vertex 5.28422 -0.328625 19.7
      vertex 5.52902 -0.600504 19.7
    endloop
  endfacet
  facet normal -0 0 1
    outer loop
      vertex 5.1013 1.41179 19.7
      vertex 5.28422 -0.328625 19.7
      vertex 5.28422 1.72862 19.7
    endloop
  endfacet
  facet normal 0 0 1
    outer loop
      vertex 5.1013 1.41179 19.7
      vertex 5.1013 -0.0117891 19.7
      vertex 5.28422 -0.328625 19.7
    endloop
  endfacet
  facet normal -0 0 1
    outer loop
      vertex 4.98824 1.06384 19.7
      vertex 5.1013 -0.0117891 19.7
      vertex 5.1013 1.41179 19.7
    endloop
  endfacet
  facet normal 0 0 1
    outer loop
      vertex 4.98824 1.06384 19.7
      vertex 4.98824 0.336154 19.7
      vertex 5.1013 -0.0117891 19.7
    endloop
  endfacet
  facet normal 0 -0 1
    outer loop
      vertex 4.98824 0.336154 19.7
      vertex 4.98824 1.06384 19.7
      vertex 4.95 0.7 19.7
    endloop
  endfacet
  facet normal 0.587791 -0.809013 0
    outer loop
      vertex 18.6599 2.74365 0.7
      vertex 19.125 3.08157 2.8
      vertex 18.6599 2.74365 2.8
    endloop
  endfacet
  facet normal 0.587791 -0.809013 0
    outer loop
      vertex 19.125 3.08157 2.8
      vertex 18.6599 2.74365 0.7
      vertex 19.125 3.08157 0.7
    endloop
  endfacet
  facet normal -0.587791 0.809013 0
    outer loop
      vertex 22.3401 -1.34365 0.7
      vertex 21.875 -1.68157 2.8
      vertex 22.3401 -1.34365 2.8
    endloop
  endfacet
  facet normal -0.587791 0.809013 0
    outer loop
      vertex 21.875 -1.68157 2.8
      vertex 22.3401 -1.34365 0.7
      vertex 21.875 -1.68157 0.7
    endloop
  endfacet
  facet normal 0.406745 -0.913542 0
    outer loop
      vertex 19.125 3.08157 0.7
      vertex 19.6502 3.31541 2.8
      vertex 19.125 3.08157 2.8
    endloop
  endfacet
  facet normal 0.406745 -0.913542 0
    outer loop
      vertex 19.6502 3.31541 2.8
      vertex 19.125 3.08157 0.7
      vertex 19.6502 3.31541 0.7
    endloop
  endfacet
  facet normal 0.994521 0.104539 0
    outer loop
      vertex 17.8101 0.128243 2.8
      vertex 17.75 0.7 0.7
      vertex 17.75 0.7 2.8
    endloop
  endfacet
  facet normal 0.994521 0.104539 0
    outer loop
      vertex 17.75 0.7 0.7
      vertex 17.8101 0.128243 2.8
      vertex 17.8101 0.128243 0.7
    endloop
  endfacet
  facet normal 0.587791 0.809013 -0
    outer loop
      vertex 19.125 -1.68157 0.7
      vertex 18.6599 -1.34365 2.8
      vertex 19.125 -1.68157 2.8
    endloop
  endfacet
  facet normal 0.587791 0.809013 0
    outer loop
      vertex 18.6599 -1.34365 2.8
      vertex 19.125 -1.68157 0.7
      vertex 18.6599 -1.34365 0.7
    endloop
  endfacet
  facet normal 0.743135 0.669142 0
    outer loop
      vertex 18.6599 -1.34365 2.8
      vertex 18.2752 -0.91641 0.7
      vertex 18.2752 -0.91641 2.8
    endloop
  endfacet
  facet normal 0.743135 0.669142 0
    outer loop
      vertex 18.2752 -0.91641 0.7
      vertex 18.6599 -1.34365 2.8
      vertex 18.6599 -1.34365 0.7
    endloop
  endfacet
  facet normal 0.865989 -0.500064 0
    outer loop
      vertex 17.9877 1.81853 2.8
      vertex 18.2752 2.31641 0.7
      vertex 18.2752 2.31641 2.8
    endloop
  endfacet
  facet normal 0.865989 -0.500064 0
    outer loop
      vertex 18.2752 2.31641 0.7
      vertex 17.9877 1.81853 2.8
      vertex 17.9877 1.81853 0.7
    endloop
  endfacet
  facet normal -0.743135 -0.669141 0
    outer loop
      vertex 22.6 2.45501 0.7
      vertex 22.3401 2.74365 2.8
      vertex 22.3401 2.74365 0.7
    endloop
  endfacet
  facet normal -0.743135 -0.669141 0
    outer loop
      vertex 22.3401 2.74365 2.8
      vertex 22.6 2.45501 0.7
      vertex 22.6 2.45501 2.8
    endloop
  endfacet
  facet normal 0.743135 -0.669142 0
    outer loop
      vertex 18.2752 2.31641 2.8
      vertex 18.6599 2.74365 0.7
      vertex 18.6599 2.74365 2.8
    endloop
  endfacet
  facet normal 0.743135 -0.669142 0
    outer loop
      vertex 18.6599 2.74365 0.7
      vertex 18.2752 2.31641 2.8
      vertex 18.2752 2.31641 0.7
    endloop
  endfacet
  facet normal 0.994521 -0.104538 0
    outer loop
      vertex 17.75 0.7 2.8
      vertex 17.8101 1.27176 0.7
      vertex 17.8101 1.27176 2.8
    endloop
  endfacet
  facet normal 0.994521 -0.104538 0
    outer loop
      vertex 17.8101 1.27176 0.7
      vertex 17.75 0.7 2.8
      vertex 17.75 0.7 0.7
    endloop
  endfacet
  facet normal -0.743135 0.669141 0
    outer loop
      vertex 22.3401 -1.34365 0.7
      vertex 22.6 -1.05501 2.8
      vertex 22.6 -1.05501 0.7
    endloop
  endfacet
  facet normal -0.743135 0.669141 0
    outer loop
      vertex 22.6 -1.05501 2.8
      vertex 22.3401 -1.34365 0.7
      vertex 22.3401 -1.34365 2.8
    endloop
  endfacet
  facet normal -0.207911 -0.978148 0
    outer loop
      vertex 20.7875 3.43493 0.7
      vertex 21.3498 3.31541 2.8
      vertex 20.7875 3.43493 2.8
    endloop
  endfacet
  facet normal -0.207911 -0.978148 -0
    outer loop
      vertex 21.3498 3.31541 2.8
      vertex 20.7875 3.43493 0.7
      vertex 21.3498 3.31541 0.7
    endloop
  endfacet
  facet normal 0.951085 -0.308928 0
    outer loop
      vertex 17.8101 1.27176 2.8
      vertex 17.9877 1.81853 0.7
      vertex 17.9877 1.81853 2.8
    endloop
  endfacet
  facet normal 0.951085 -0.308928 0
    outer loop
      vertex 17.9877 1.81853 0.7
      vertex 17.8101 1.27176 2.8
      vertex 17.8101 1.27176 0.7
    endloop
  endfacet
  facet normal 0.207927 0.978144 -0
    outer loop
      vertex 20.2125 -2.03494 0.7
      vertex 19.6502 -1.91541 2.8
      vertex 20.2125 -2.03494 2.8
    endloop
  endfacet
  facet normal 0.207927 0.978144 0
    outer loop
      vertex 19.6502 -1.91541 2.8
      vertex 20.2125 -2.03494 0.7
      vertex 19.6502 -1.91541 0.7
    endloop
  endfacet
  facet normal 0.951085 0.308929 0
    outer loop
      vertex 17.9877 -0.418526 2.8
      vertex 17.8101 0.128243 0.7
      vertex 17.8101 0.128243 2.8
    endloop
  endfacet
  facet normal 0.951085 0.308929 0
    outer loop
      vertex 17.8101 0.128243 0.7
      vertex 17.9877 -0.418526 2.8
      vertex 17.9877 -0.418526 0.7
    endloop
  endfacet
  facet normal 0.406745 0.913542 -0
    outer loop
      vertex 19.6502 -1.91541 0.7
      vertex 19.125 -1.68157 2.8
      vertex 19.6502 -1.91541 2.8
    endloop
  endfacet
  facet normal 0.406745 0.913542 0
    outer loop
      vertex 19.125 -1.68157 2.8
      vertex 19.6502 -1.91541 0.7
      vertex 19.125 -1.68157 0.7
    endloop
  endfacet
  facet normal -0.406745 -0.913542 0
    outer loop
      vertex 21.3498 3.31541 0.7
      vertex 21.875 3.08157 2.8
      vertex 21.3498 3.31541 2.8
    endloop
  endfacet
  facet normal -0.406745 -0.913542 -0
    outer loop
      vertex 21.875 3.08157 2.8
      vertex 21.3498 3.31541 0.7
      vertex 21.875 3.08157 0.7
    endloop
  endfacet
  facet normal 0.86599 0.500061 0
    outer loop
      vertex 18.2752 -0.91641 2.8
      vertex 17.9877 -0.418526 0.7
      vertex 17.9877 -0.418526 2.8
    endloop
  endfacet
  facet normal 0.86599 0.500061 0
    outer loop
      vertex 17.9877 -0.418526 0.7
      vertex 18.2752 -0.91641 2.8
      vertex 18.2752 -0.91641 0.7
    endloop
  endfacet
  facet normal -0.406745 0.913542 0
    outer loop
      vertex 21.875 -1.68157 0.7
      vertex 21.3498 -1.91541 2.8
      vertex 21.875 -1.68157 2.8
    endloop
  endfacet
  facet normal -0.406745 0.913542 0
    outer loop
      vertex 21.3498 -1.91541 2.8
      vertex 21.875 -1.68157 0.7
      vertex 21.3498 -1.91541 0.7
    endloop
  endfacet
  facet normal 0 1 -0
    outer loop
      vertex 20.7875 -2.03494 0.7
      vertex 20.2125 -2.03494 2.8
      vertex 20.7875 -2.03494 2.8
    endloop
  endfacet
  facet normal 0 1 0
    outer loop
      vertex 20.2125 -2.03494 2.8
      vertex 20.7875 -2.03494 0.7
      vertex 20.2125 -2.03494 0.7
    endloop
  endfacet
  facet normal 0.207911 -0.978148 0
    outer loop
      vertex 19.6502 3.31541 0.7
      vertex 20.2125 3.43493 2.8
      vertex 19.6502 3.31541 2.8
    endloop
  endfacet
  facet normal 0.207911 -0.978148 0
    outer loop
      vertex 20.2125 3.43493 2.8
      vertex 19.6502 3.31541 0.7
      vertex 20.2125 3.43493 0.7
    endloop
  endfacet
  facet normal -0.587791 -0.809013 0
    outer loop
      vertex 21.875 3.08157 0.7
      vertex 22.3401 2.74365 2.8
      vertex 21.875 3.08157 2.8
    endloop
  endfacet
  facet normal -0.587791 -0.809013 -0
    outer loop
      vertex 22.3401 2.74365 2.8
      vertex 21.875 3.08157 0.7
      vertex 22.3401 2.74365 0.7
    endloop
  endfacet
  facet normal 0 -1 0
    outer loop
      vertex 20.2125 3.43493 0.7
      vertex 20.7875 3.43493 2.8
      vertex 20.2125 3.43493 2.8
    endloop
  endfacet
  facet normal 0 -1 -0
    outer loop
      vertex 20.7875 3.43493 2.8
      vertex 20.2125 3.43493 0.7
      vertex 20.7875 3.43493 0.7
    endloop
  endfacet
  facet normal -0.207927 0.978144 0
    outer loop
      vertex 21.3498 -1.91541 0.7
      vertex 20.7875 -2.03494 2.8
      vertex 21.3498 -1.91541 2.8
    endloop
  endfacet
  facet normal -0.207927 0.978144 0
    outer loop
      vertex 20.7875 -2.03494 2.8
      vertex 21.3498 -1.91541 0.7
      vertex 20.7875 -2.03494 0.7
    endloop
  endfacet
  facet normal 0.207911 -0.978148 0
    outer loop
      vertex -16.5498 3.31541 0.7
      vertex -15.9875 3.43493 2.8
      vertex -16.5498 3.31541 2.8
    endloop
  endfacet
  facet normal 0.207911 -0.978148 0
    outer loop
      vertex -15.9875 3.43493 2.8
      vertex -16.5498 3.31541 0.7
      vertex -15.9875 3.43493 0.7
    endloop
  endfacet
  facet normal -0.994521 0.104539 0
    outer loop
      vertex -13.0101 0.128243 0.7
      vertex -12.95 0.7 2.8
      vertex -12.95 0.7 0.7
    endloop
  endfacet
  facet normal -0.994521 0.104539 0
    outer loop
      vertex -12.95 0.7 2.8
      vertex -13.0101 0.128243 0.7
      vertex -13.0101 0.128243 2.8
    endloop
  endfacet
  facet normal -0.743135 -0.669142 0
    outer loop
      vertex -13.4752 2.31641 0.7
      vertex -13.8599 2.74365 2.8
      vertex -13.8599 2.74365 0.7
    endloop
  endfacet
  facet normal -0.743135 -0.669142 0
    outer loop
      vertex -13.8599 2.74365 2.8
      vertex -13.4752 2.31641 0.7
      vertex -13.4752 2.31641 2.8
    endloop
  endfacet
  facet normal -0.86599 0.500061 0
    outer loop
      vertex -13.4752 -0.91641 0.7
      vertex -13.1877 -0.418526 2.8
      vertex -13.1877 -0.418526 0.7
    endloop
  endfacet
  facet normal -0.86599 0.500061 0
    outer loop
      vertex -13.1877 -0.418526 2.8
      vertex -13.4752 -0.91641 0.7
      vertex -13.4752 -0.91641 2.8
    endloop
  endfacet
  facet normal 0 1 -0
    outer loop
      vertex -15.4125 -2.03494 0.7
      vertex -15.9875 -2.03494 2.8
      vertex -15.4125 -2.03494 2.8
    endloop
  endfacet
  facet normal 0 1 0
    outer loop
      vertex -15.9875 -2.03494 2.8
      vertex -15.4125 -2.03494 0.7
      vertex -15.9875 -2.03494 0.7
    endloop
  endfacet
  facet normal -0.207927 0.978144 0
    outer loop
      vertex -14.8502 -1.91541 0.7
      vertex -15.4125 -2.03494 2.8
      vertex -14.8502 -1.91541 2.8
    endloop
  endfacet
  facet normal -0.207927 0.978144 0
    outer loop
      vertex -15.4125 -2.03494 2.8
      vertex -14.8502 -1.91541 0.7
      vertex -15.4125 -2.03494 0.7
    endloop
  endfacet
  facet normal -0.743135 0.669142 0
    outer loop
      vertex -13.8599 -1.34365 0.7
      vertex -13.4752 -0.91641 2.8
      vertex -13.4752 -0.91641 0.7
    endloop
  endfacet
  facet normal -0.743135 0.669142 0
    outer loop
      vertex -13.4752 -0.91641 2.8
      vertex -13.8599 -1.34365 0.7
      vertex -13.8599 -1.34365 2.8
    endloop
  endfacet
  facet normal -0.207911 -0.978148 0
    outer loop
      vertex -15.4125 3.43493 0.7
      vertex -14.8502 3.31541 2.8
      vertex -15.4125 3.43493 2.8
    endloop
  endfacet
  facet normal -0.207911 -0.978148 -0
    outer loop
      vertex -14.8502 3.31541 2.8
      vertex -15.4125 3.43493 0.7
      vertex -14.8502 3.31541 0.7
    endloop
  endfacet
  facet normal -0.865989 -0.500064 0
    outer loop
      vertex -13.1877 1.81853 0.7
      vertex -13.4752 2.31641 2.8
      vertex -13.4752 2.31641 0.7
    endloop
  endfacet
  facet normal -0.865989 -0.500064 0
    outer loop
      vertex -13.4752 2.31641 2.8
      vertex -13.1877 1.81853 0.7
      vertex -13.1877 1.81853 2.8
    endloop
  endfacet
  facet normal -0.951085 -0.308928 0
    outer loop
      vertex -13.0101 1.27176 0.7
      vertex -13.1877 1.81853 2.8
      vertex -13.1877 1.81853 0.7
    endloop
  endfacet
  facet normal -0.951085 -0.308928 0
    outer loop
      vertex -13.1877 1.81853 2.8
      vertex -13.0101 1.27176 0.7
      vertex -13.0101 1.27176 2.8
    endloop
  endfacet
  facet normal 0.866042 -0.499972 0
    outer loop
      vertex -18 2.18615 2.8
      vertex -17.9248 2.31641 0.7
      vertex -17.9248 2.31641 2.8
    endloop
  endfacet
  facet normal 0.866042 -0.499972 0
    outer loop
      vertex -17.9248 2.31641 0.7
      vertex -18 2.18615 2.8
      vertex -18 2.18615 0.7
    endloop
  endfacet
  facet normal -0.406745 0.913542 0
    outer loop
      vertex -14.325 -1.68157 0.7
      vertex -14.8502 -1.91541 2.8
      vertex -14.325 -1.68157 2.8
    endloop
  endfacet
  facet normal -0.406745 0.913542 0
    outer loop
      vertex -14.8502 -1.91541 2.8
      vertex -14.325 -1.68157 0.7
      vertex -14.8502 -1.91541 0.7
    endloop
  endfacet
  facet normal -0.587791 -0.809013 0
    outer loop
      vertex -14.325 3.08157 0.7
      vertex -13.8599 2.74365 2.8
      vertex -14.325 3.08157 2.8
    endloop
  endfacet
  facet normal -0.587791 -0.809013 -0
    outer loop
      vertex -13.8599 2.74365 2.8
      vertex -14.325 3.08157 0.7
      vertex -13.8599 2.74365 0.7
    endloop
  endfacet
  facet normal -0.587791 0.809013 0
    outer loop
      vertex -13.8599 -1.34365 0.7
      vertex -14.325 -1.68157 2.8
      vertex -13.8599 -1.34365 2.8
    endloop
  endfacet
  facet normal -0.587791 0.809013 0
    outer loop
      vertex -14.325 -1.68157 2.8
      vertex -13.8599 -1.34365 0.7
      vertex -14.325 -1.68157 0.7
    endloop
  endfacet
  facet normal -0.406745 -0.913542 0
    outer loop
      vertex -14.8502 3.31541 0.7
      vertex -14.325 3.08157 2.8
      vertex -14.8502 3.31541 2.8
    endloop
  endfacet
  facet normal -0.406745 -0.913542 -0
    outer loop
      vertex -14.325 3.08157 2.8
      vertex -14.8502 3.31541 0.7
      vertex -14.325 3.08157 0.7
    endloop
  endfacet
  facet normal 0.587791 -0.809013 0
    outer loop
      vertex -17.5401 2.74365 0.7
      vertex -17.075 3.08157 2.8
      vertex -17.5401 2.74365 2.8
    endloop
  endfacet
  facet normal 0.587791 -0.809013 0
    outer loop
      vertex -17.075 3.08157 2.8
      vertex -17.5401 2.74365 0.7
      vertex -17.075 3.08157 0.7
    endloop
  endfacet
  facet normal 0.743135 0.669142 0
    outer loop
      vertex -17.5401 -1.34365 2.8
      vertex -17.9248 -0.91641 0.7
      vertex -17.9248 -0.91641 2.8
    endloop
  endfacet
  facet normal 0.743135 0.669142 0
    outer loop
      vertex -17.9248 -0.91641 0.7
      vertex -17.5401 -1.34365 2.8
      vertex -17.5401 -1.34365 0.7
    endloop
  endfacet
  facet normal 0.406745 -0.913542 0
    outer loop
      vertex -17.075 3.08157 0.7
      vertex -16.5498 3.31541 2.8
      vertex -17.075 3.08157 2.8
    endloop
  endfacet
  facet normal 0.406745 -0.913542 0
    outer loop
      vertex -16.5498 3.31541 2.8
      vertex -17.075 3.08157 0.7
      vertex -16.5498 3.31541 0.7
    endloop
  endfacet
  facet normal 0.743135 -0.669142 0
    outer loop
      vertex -17.9248 2.31641 2.8
      vertex -17.5401 2.74365 0.7
      vertex -17.5401 2.74365 2.8
    endloop
  endfacet
  facet normal 0.743135 -0.669142 0
    outer loop
      vertex -17.5401 2.74365 0.7
      vertex -17.9248 2.31641 2.8
      vertex -17.9248 2.31641 0.7
    endloop
  endfacet
  facet normal 0.207927 0.978144 -0
    outer loop
      vertex -15.9875 -2.03494 0.7
      vertex -16.5498 -1.91541 2.8
      vertex -15.9875 -2.03494 2.8
    endloop
  endfacet
  facet normal 0.207927 0.978144 0
    outer loop
      vertex -16.5498 -1.91541 2.8
      vertex -15.9875 -2.03494 0.7
      vertex -16.5498 -1.91541 0.7
    endloop
  endfacet
  facet normal 0 -1 0
    outer loop
      vertex -15.9875 3.43493 0.7
      vertex -15.4125 3.43493 2.8
      vertex -15.9875 3.43493 2.8
    endloop
  endfacet
  facet normal 0 -1 -0
    outer loop
      vertex -15.4125 3.43493 2.8
      vertex -15.9875 3.43493 0.7
      vertex -15.4125 3.43493 0.7
    endloop
  endfacet
  facet normal 0.866035 0.499983 0
    outer loop
      vertex -17.9248 -0.91641 2.8
      vertex -18 -0.786154 0.7
      vertex -18 -0.786154 2.8
    endloop
  endfacet
  facet normal 0.866035 0.499983 0
    outer loop
      vertex -18 -0.786154 0.7
      vertex -17.9248 -0.91641 2.8
      vertex -17.9248 -0.91641 0.7
    endloop
  endfacet
  facet normal -0.951085 0.308929 0
    outer loop
      vertex -13.1877 -0.418526 0.7
      vertex -13.0101 0.128243 2.8
      vertex -13.0101 0.128243 0.7
    endloop
  endfacet
  facet normal -0.951085 0.308929 0
    outer loop
      vertex -13.0101 0.128243 2.8
      vertex -13.1877 -0.418526 0.7
      vertex -13.1877 -0.418526 2.8
    endloop
  endfacet
  facet normal 0.406745 0.913542 -0
    outer loop
      vertex -16.5498 -1.91541 0.7
      vertex -17.075 -1.68157 2.8
      vertex -16.5498 -1.91541 2.8
    endloop
  endfacet
  facet normal 0.406745 0.913542 0
    outer loop
      vertex -17.075 -1.68157 2.8
      vertex -16.5498 -1.91541 0.7
      vertex -17.075 -1.68157 0.7
    endloop
  endfacet
  facet normal 0.587791 0.809013 -0
    outer loop
      vertex -17.075 -1.68157 0.7
      vertex -17.5401 -1.34365 2.8
      vertex -17.075 -1.68157 2.8
    endloop
  endfacet
  facet normal 0.587791 0.809013 0
    outer loop
      vertex -17.5401 -1.34365 2.8
      vertex -17.075 -1.68157 0.7
      vertex -17.5401 -1.34365 0.7
    endloop
  endfacet
  facet normal -0.994521 -0.104538 0
    outer loop
      vertex -12.95 0.7 0.7
      vertex -13.0101 1.27176 2.8
      vertex -13.0101 1.27176 0.7
    endloop
  endfacet
  facet normal -0.994521 -0.104538 0
    outer loop
      vertex -13.0101 1.27176 2.8
      vertex -12.95 0.7 0.7
      vertex -12.95 0.7 2.8
    endloop
  endfacet
endsolid OpenSCAD_Model
