solid OpenSCAD_Model
  facet normal -1 0 0
    outer loop
      vertex -4.24264 -15 -33.5426
      vertex -4.24264 -23.15 -29.3
      vertex -4.24264 -15 -25.0574
    endloop
  endfacet
  facet normal -1 0 0
    outer loop
      vertex -4.24264 -15 -33.5426
      vertex -4.24264 -23.1711 -29.7024
      vertex -4.24264 -23.15 -29.3
    endloop
  endfacet
  facet normal -1 0 0
    outer loop
      vertex -4.24264 -15 -33.5426
      vertex -4.24264 -23.2341 -30.1005
      vertex -4.24264 -23.1711 -29.7024
    endloop
  endfacet
  facet normal -1 0 0
    outer loop
      vertex -4.24264 -15 -33.5426
      vertex -4.24264 -23.3384 -30.4897
      vertex -4.24264 -23.2341 -30.1005
    endloop
  endfacet
  facet normal -1 0 0
    outer loop
      vertex -4.24264 -15 -33.5426
      vertex -4.24264 -23.4828 -30.8659
      vertex -4.24264 -23.3384 -30.4897
    endloop
  endfacet
  facet normal -1 0 0
    outer loop
      vertex -4.24264 -15 -33.5426
      vertex -4.24264 -23.6658 -31.225
      vertex -4.24264 -23.4828 -30.8659
    endloop
  endfacet
  facet normal -1 0 0
    outer loop
      vertex -4.24264 -15 -33.5426
      vertex -4.24264 -23.8853 -31.563
      vertex -4.24264 -23.6658 -31.225
    endloop
  endfacet
  facet normal -1 0 0
    outer loop
      vertex -4.24264 -15 -33.5426
      vertex -4.24264 -24.1389 -31.8762
      vertex -4.24264 -23.8853 -31.563
    endloop
  endfacet
  facet normal -1 0 0
    outer loop
      vertex -4.24264 -15 -33.5426
      vertex -4.24264 -24.4238 -32.1611
      vertex -4.24264 -24.1389 -31.8762
    endloop
  endfacet
  facet normal -1 0 0
    outer loop
      vertex -4.24264 -15 -33.5426
      vertex -4.24264 -24.737 -32.4147
      vertex -4.24264 -24.4238 -32.1611
    endloop
  endfacet
  facet normal -1 0 0
    outer loop
      vertex -4.24264 -15 -33.5426
      vertex -4.24264 -25.075 -32.6342
      vertex -4.24264 -24.737 -32.4147
    endloop
  endfacet
  facet normal -1 0 0
    outer loop
      vertex -4.24264 -15 -33.5426
      vertex -4.24264 -25.4341 -32.8172
      vertex -4.24264 -25.075 -32.6342
    endloop
  endfacet
  facet normal -1 0 0
    outer loop
      vertex -4.24264 -15 -33.5426
      vertex -4.24264 -25.8103 -32.9616
      vertex -4.24264 -25.4341 -32.8172
    endloop
  endfacet
  facet normal -1 0 0
    outer loop
      vertex -4.24264 -15 -33.5426
      vertex -4.24264 -26.1995 -33.0659
      vertex -4.24264 -25.8103 -32.9616
    endloop
  endfacet
  facet normal -1 0 0
    outer loop
      vertex -4.24264 -15 -33.5426
      vertex -4.24264 -26.5976 -33.1289
      vertex -4.24264 -26.1995 -33.0659
    endloop
  endfacet
  facet normal -1 0 0
    outer loop
      vertex -4.24264 -15 -33.5426
      vertex -4.24264 -27 -33.15
      vertex -4.24264 -26.5976 -33.1289
    endloop
  endfacet
  facet normal -1 -0 0
    outer loop
      vertex -4.24264 -30.8289 -29.7024
      vertex -4.24264 -31 -33.5426
      vertex -4.24264 -30.85 -29.3
    endloop
  endfacet
  facet normal -1 -0 0
    outer loop
      vertex -4.24264 -30.7659 -30.1005
      vertex -4.24264 -31 -33.5426
      vertex -4.24264 -30.8289 -29.7024
    endloop
  endfacet
  facet normal -1 -0 0
    outer loop
      vertex -4.24264 -30.6616 -30.4897
      vertex -4.24264 -31 -33.5426
      vertex -4.24264 -30.7659 -30.1005
    endloop
  endfacet
  facet normal -1 -0 0
    outer loop
      vertex -4.24264 -30.5172 -30.8659
      vertex -4.24264 -31 -33.5426
      vertex -4.24264 -30.6616 -30.4897
    endloop
  endfacet
  facet normal -1 -0 0
    outer loop
      vertex -4.24264 -30.3342 -31.225
      vertex -4.24264 -31 -33.5426
      vertex -4.24264 -30.5172 -30.8659
    endloop
  endfacet
  facet normal -1 -0 0
    outer loop
      vertex -4.24264 -30.1147 -31.563
      vertex -4.24264 -31 -33.5426
      vertex -4.24264 -30.3342 -31.225
    endloop
  endfacet
  facet normal -1 -0 0
    outer loop
      vertex -4.24264 -29.8611 -31.8762
      vertex -4.24264 -31 -33.5426
      vertex -4.24264 -30.1147 -31.563
    endloop
  endfacet
  facet normal -1 -0 0
    outer loop
      vertex -4.24264 -29.5762 -32.1611
      vertex -4.24264 -31 -33.5426
      vertex -4.24264 -29.8611 -31.8762
    endloop
  endfacet
  facet normal -1 -0 0
    outer loop
      vertex -4.24264 -29.263 -32.4147
      vertex -4.24264 -31 -33.5426
      vertex -4.24264 -29.5762 -32.1611
    endloop
  endfacet
  facet normal -1 -0 0
    outer loop
      vertex -4.24264 -28.925 -32.6342
      vertex -4.24264 -31 -33.5426
      vertex -4.24264 -29.263 -32.4147
    endloop
  endfacet
  facet normal -1 -0 0
    outer loop
      vertex -4.24264 -28.5659 -32.8172
      vertex -4.24264 -31 -33.5426
      vertex -4.24264 -28.925 -32.6342
    endloop
  endfacet
  facet normal -1 -0 0
    outer loop
      vertex -4.24264 -28.1897 -32.9616
      vertex -4.24264 -31 -33.5426
      vertex -4.24264 -28.5659 -32.8172
    endloop
  endfacet
  facet normal -1 -0 0
    outer loop
      vertex -4.24264 -27.8005 -33.0659
      vertex -4.24264 -31 -33.5426
      vertex -4.24264 -28.1897 -32.9616
    endloop
  endfacet
  facet normal -1 -0 0
    outer loop
      vertex -4.24264 -27.4024 -33.1289
      vertex -4.24264 -31 -33.5426
      vertex -4.24264 -27.8005 -33.0659
    endloop
  endfacet
  facet normal -1 -0 0
    outer loop
      vertex -4.24264 -27 -33.15
      vertex -4.24264 -31 -33.5426
      vertex -4.24264 -27.4024 -33.1289
    endloop
  endfacet
  facet normal -1 0 0
    outer loop
      vertex -4.24264 -31 -33.5426
      vertex -4.24264 -27 -33.15
      vertex -4.24264 -15 -33.5426
    endloop
  endfacet
  facet normal -1 0 0
    outer loop
      vertex -4.24264 -23.1711 -28.8976
      vertex -4.24264 -15 -25.0574
      vertex -4.24264 -23.15 -29.3
    endloop
  endfacet
  facet normal -1 0 0
    outer loop
      vertex -4.24264 -23.2341 -28.4995
      vertex -4.24264 -15 -25.0574
      vertex -4.24264 -23.1711 -28.8976
    endloop
  endfacet
  facet normal -1 0 0
    outer loop
      vertex -4.24264 -23.3384 -28.1103
      vertex -4.24264 -15 -25.0574
      vertex -4.24264 -23.2341 -28.4995
    endloop
  endfacet
  facet normal -1 0 0
    outer loop
      vertex -4.24264 -23.4828 -27.7341
      vertex -4.24264 -15 -25.0574
      vertex -4.24264 -23.3384 -28.1103
    endloop
  endfacet
  facet normal -1 0 0
    outer loop
      vertex -4.24264 -23.6658 -27.375
      vertex -4.24264 -15 -25.0574
      vertex -4.24264 -23.4828 -27.7341
    endloop
  endfacet
  facet normal -1 0 0
    outer loop
      vertex -4.24264 -23.8853 -27.037
      vertex -4.24264 -15 -25.0574
      vertex -4.24264 -23.6658 -27.375
    endloop
  endfacet
  facet normal -1 0 0
    outer loop
      vertex -4.24264 -24.1389 -26.7238
      vertex -4.24264 -15 -25.0574
      vertex -4.24264 -23.8853 -27.037
    endloop
  endfacet
  facet normal -1 0 0
    outer loop
      vertex -4.24264 -24.4238 -26.4389
      vertex -4.24264 -15 -25.0574
      vertex -4.24264 -24.1389 -26.7238
    endloop
  endfacet
  facet normal -1 0 0
    outer loop
      vertex -4.24264 -24.737 -26.1853
      vertex -4.24264 -15 -25.0574
      vertex -4.24264 -24.4238 -26.4389
    endloop
  endfacet
  facet normal -1 0 0
    outer loop
      vertex -4.24264 -25.075 -25.9658
      vertex -4.24264 -15 -25.0574
      vertex -4.24264 -24.737 -26.1853
    endloop
  endfacet
  facet normal -1 0 0
    outer loop
      vertex -4.24264 -25.4341 -25.7828
      vertex -4.24264 -15 -25.0574
      vertex -4.24264 -25.075 -25.9658
    endloop
  endfacet
  facet normal -1 0 0
    outer loop
      vertex -4.24264 -25.8103 -25.6384
      vertex -4.24264 -15 -25.0574
      vertex -4.24264 -25.4341 -25.7828
    endloop
  endfacet
  facet normal -1 0 0
    outer loop
      vertex -4.24264 -26.1995 -25.5341
      vertex -4.24264 -15 -25.0574
      vertex -4.24264 -25.8103 -25.6384
    endloop
  endfacet
  facet normal -1 0 0
    outer loop
      vertex -4.24264 -26.5976 -25.4711
      vertex -4.24264 -15 -25.0574
      vertex -4.24264 -26.1995 -25.5341
    endloop
  endfacet
  facet normal -1 0 0
    outer loop
      vertex -4.24264 -27 -25.45
      vertex -4.24264 -15 -25.0574
      vertex -4.24264 -26.5976 -25.4711
    endloop
  endfacet
  facet normal -1 0 0
    outer loop
      vertex -4.24264 -27 -25.45
      vertex -4.24264 -31 -25.0574
      vertex -4.24264 -15 -25.0574
    endloop
  endfacet
  facet normal -1 0 0
    outer loop
      vertex -4.24264 -27.4024 -25.4711
      vertex -4.24264 -31 -25.0574
      vertex -4.24264 -27 -25.45
    endloop
  endfacet
  facet normal -1 0 0
    outer loop
      vertex -4.24264 -27.8005 -25.5341
      vertex -4.24264 -31 -25.0574
      vertex -4.24264 -27.4024 -25.4711
    endloop
  endfacet
  facet normal -1 0 0
    outer loop
      vertex -4.24264 -28.1897 -25.6384
      vertex -4.24264 -31 -25.0574
      vertex -4.24264 -27.8005 -25.5341
    endloop
  endfacet
  facet normal -1 0 0
    outer loop
      vertex -4.24264 -28.5659 -25.7828
      vertex -4.24264 -31 -25.0574
      vertex -4.24264 -28.1897 -25.6384
    endloop
  endfacet
  facet normal -1 0 0
    outer loop
      vertex -4.24264 -28.925 -25.9658
      vertex -4.24264 -31 -25.0574
      vertex -4.24264 -28.5659 -25.7828
    endloop
  endfacet
  facet normal -1 0 0
    outer loop
      vertex -4.24264 -29.263 -26.1853
      vertex -4.24264 -31 -25.0574
      vertex -4.24264 -28.925 -25.9658
    endloop
  endfacet
  facet normal -1 0 0
    outer loop
      vertex -4.24264 -29.5762 -26.4389
      vertex -4.24264 -31 -25.0574
      vertex -4.24264 -29.263 -26.1853
    endloop
  endfacet
  facet normal -1 0 0
    outer loop
      vertex -4.24264 -29.8611 -26.7238
      vertex -4.24264 -31 -25.0574
      vertex -4.24264 -29.5762 -26.4389
    endloop
  endfacet
  facet normal -1 0 0
    outer loop
      vertex -4.24264 -30.1147 -27.037
      vertex -4.24264 -31 -25.0574
      vertex -4.24264 -29.8611 -26.7238
    endloop
  endfacet
  facet normal -1 0 0
    outer loop
      vertex -4.24264 -30.3342 -27.375
      vertex -4.24264 -31 -25.0574
      vertex -4.24264 -30.1147 -27.037
    endloop
  endfacet
  facet normal -1 0 0
    outer loop
      vertex -4.24264 -30.5172 -27.7341
      vertex -4.24264 -31 -25.0574
      vertex -4.24264 -30.3342 -27.375
    endloop
  endfacet
  facet normal -1 0 0
    outer loop
      vertex -4.24264 -30.6616 -28.1103
      vertex -4.24264 -31 -25.0574
      vertex -4.24264 -30.5172 -27.7341
    endloop
  endfacet
  facet normal -1 0 0
    outer loop
      vertex -4.24264 -30.7659 -28.4995
      vertex -4.24264 -31 -25.0574
      vertex -4.24264 -30.6616 -28.1103
    endloop
  endfacet
  facet normal -1 0 0
    outer loop
      vertex -4.24264 -30.8289 -28.8976
      vertex -4.24264 -31 -25.0574
      vertex -4.24264 -30.7659 -28.4995
    endloop
  endfacet
  facet normal -1 0 0
    outer loop
      vertex -4.24264 -30.85 -29.3
      vertex -4.24264 -31 -25.0574
      vertex -4.24264 -30.8289 -28.8976
    endloop
  endfacet
  facet normal -1 0 0
    outer loop
      vertex -4.24264 -31 -25.0574
      vertex -4.24264 -30.85 -29.3
      vertex -4.24264 -31 -33.5426
    endloop
  endfacet
  facet normal 0 0 1
    outer loop
      vertex -3.75736 -15 -25.0574
      vertex 0.757359 -7 -25.0574
      vertex -3.75736 -7 -25.0574
    endloop
  endfacet
  facet normal 0 0 1
    outer loop
      vertex 0.757359 -7 -25.0574
      vertex -3.75736 -15 -25.0574
      vertex 0.757359 -31 -25.0574
    endloop
  endfacet
  facet normal 0 0 1
    outer loop
      vertex -4.24264 -31 -25.0574
      vertex -3.75736 -15 -25.0574
      vertex -4.24264 -15 -25.0574
    endloop
  endfacet
  facet normal 0 0 1
    outer loop
      vertex -3.75736 -15 -25.0574
      vertex -4.24264 -31 -25.0574
      vertex 0.757359 -31 -25.0574
    endloop
  endfacet
  facet normal 0 -1 0
    outer loop
      vertex -4.24264 -31 -33.5426
      vertex 0.757359 -31 -25.0574
      vertex -4.24264 -31 -25.0574
    endloop
  endfacet
  facet normal 0 -1 -0
    outer loop
      vertex 0.757359 -31 -25.0574
      vertex -4.24264 -31 -33.5426
      vertex 0.757359 -31 -33.5426
    endloop
  endfacet
  facet normal 0 1 0
    outer loop
      vertex -3.75736 -7 -33.5426
      vertex -3.75736 -7 -25.0574
      vertex 0.757359 -7 -25.0574
    endloop
  endfacet
  facet normal 0 1 0
    outer loop
      vertex -3.75736 -7 -25.0574
      vertex -8.4678 -7 -27.9017
      vertex -8.5 -7 -27.9
    endloop
  endfacet
  facet normal 0 1 0
    outer loop
      vertex -3.75736 -7 -25.0574
      vertex -8.35366 -7 -27.9077
      vertex -8.4678 -7 -27.9017
    endloop
  endfacet
  facet normal 0 1 0
    outer loop
      vertex -3.75736 -7 -25.0574
      vertex -8.20892 -7 -27.9306
      vertex -8.35366 -7 -27.9077
    endloop
  endfacet
  facet normal 0 1 0
    outer loop
      vertex -3.75736 -7 -25.0574
      vertex -8.06738 -7 -27.9685
      vertex -8.20892 -7 -27.9306
    endloop
  endfacet
  facet normal 0 1 0
    outer loop
      vertex -3.75736 -7 -25.0574
      vertex -7.93057 -7 -28.021
      vertex -8.06738 -7 -27.9685
    endloop
  endfacet
  facet normal 0 1 0
    outer loop
      vertex -3.75736 -7 -25.0574
      vertex -7.8 -7 -28.0876
      vertex -7.93057 -7 -28.021
    endloop
  endfacet
  facet normal 0 1 0
    outer loop
      vertex -3.75736 -7 -25.0574
      vertex -7.6771 -7 -28.1674
      vertex -7.8 -7 -28.0876
    endloop
  endfacet
  facet normal 0 1 0
    outer loop
      vertex -3.75736 -7 -25.0574
      vertex -7.56322 -7 -28.2596
      vertex -7.6771 -7 -28.1674
    endloop
  endfacet
  facet normal 0 1 0
    outer loop
      vertex -3.75736 -7 -25.0574
      vertex -7.4596 -7 -28.3632
      vertex -7.56322 -7 -28.2596
    endloop
  endfacet
  facet normal 0 1 0
    outer loop
      vertex -3.75736 -7 -25.0574
      vertex -7.36738 -7 -28.4771
      vertex -7.4596 -7 -28.3632
    endloop
  endfacet
  facet normal 0 1 0
    outer loop
      vertex -3.75736 -7 -25.0574
      vertex -7.28756 -7 -28.6
      vertex -7.36738 -7 -28.4771
    endloop
  endfacet
  facet normal 0 1 0
    outer loop
      vertex -3.75736 -7 -25.0574
      vertex -7.22104 -7 -28.7306
      vertex -7.28756 -7 -28.6
    endloop
  endfacet
  facet normal 0 1 0
    outer loop
      vertex -3.75736 -7 -25.0574
      vertex -7.16852 -7 -28.8674
      vertex -7.22104 -7 -28.7306
    endloop
  endfacet
  facet normal 0 1 0
    outer loop
      vertex -3.75736 -7 -25.0574
      vertex -7.13059 -7 -29.0089
      vertex -7.16852 -7 -28.8674
    endloop
  endfacet
  facet normal 0 1 0
    outer loop
      vertex -3.75736 -7 -25.0574
      vertex -7.10767 -7 -29.1537
      vertex -7.13059 -7 -29.0089
    endloop
  endfacet
  facet normal -0 1 0
    outer loop
      vertex -7.1 -7 -29.3
      vertex -3.75736 -7 -25.0574
      vertex -3.75736 -7 -33.5426
    endloop
  endfacet
  facet normal 0 1 0
    outer loop
      vertex -3.75736 -7 -25.0574
      vertex -7.1 -7 -29.3
      vertex -7.10767 -7 -29.1537
    endloop
  endfacet
  facet normal 0 1 0
    outer loop
      vertex -7.1 -7 -29.3
      vertex -3.75736 -7 -33.5426
      vertex -7.10767 -7 -29.4463
    endloop
  endfacet
  facet normal 0 1 0
    outer loop
      vertex -7.10767 -7 -29.4463
      vertex -3.75736 -7 -33.5426
      vertex -7.13059 -7 -29.5911
    endloop
  endfacet
  facet normal 0 1 0
    outer loop
      vertex -7.13059 -7 -29.5911
      vertex -3.75736 -7 -33.5426
      vertex -7.16852 -7 -29.7326
    endloop
  endfacet
  facet normal 0 1 0
    outer loop
      vertex -7.16852 -7 -29.7326
      vertex -3.75736 -7 -33.5426
      vertex -7.22104 -7 -29.8694
    endloop
  endfacet
  facet normal 0 1 0
    outer loop
      vertex -7.22104 -7 -29.8694
      vertex -3.75736 -7 -33.5426
      vertex -7.28756 -7 -30
    endloop
  endfacet
  facet normal 0 1 0
    outer loop
      vertex -7.28756 -7 -30
      vertex -3.75736 -7 -33.5426
      vertex -7.36738 -7 -30.1229
    endloop
  endfacet
  facet normal 0 1 0
    outer loop
      vertex -7.36738 -7 -30.1229
      vertex -3.75736 -7 -33.5426
      vertex -7.4596 -7 -30.2368
    endloop
  endfacet
  facet normal 0 1 0
    outer loop
      vertex -7.4596 -7 -30.2368
      vertex -3.75736 -7 -33.5426
      vertex -7.56322 -7 -30.3404
    endloop
  endfacet
  facet normal 0 1 0
    outer loop
      vertex -7.56322 -7 -30.3404
      vertex -3.75736 -7 -33.5426
      vertex -7.6771 -7 -30.4326
    endloop
  endfacet
  facet normal 0 1 0
    outer loop
      vertex -12.2426 -7 -33.5426
      vertex -8.4678 -7 -30.6983
      vertex -8.35366 -7 -30.6923
    endloop
  endfacet
  facet normal 0 1 0
    outer loop
      vertex -8.20892 -7 -30.6694
      vertex -3.75736 -7 -33.5426
      vertex -8.35366 -7 -30.6923
    endloop
  endfacet
  facet normal 0 1 0
    outer loop
      vertex -8.06738 -7 -30.6315
      vertex -3.75736 -7 -33.5426
      vertex -8.20892 -7 -30.6694
    endloop
  endfacet
  facet normal 0 1 0
    outer loop
      vertex -7.93057 -7 -30.579
      vertex -3.75736 -7 -33.5426
      vertex -8.06738 -7 -30.6315
    endloop
  endfacet
  facet normal 0 1 0
    outer loop
      vertex -7.8 -7 -30.5124
      vertex -3.75736 -7 -33.5426
      vertex -7.93057 -7 -30.579
    endloop
  endfacet
  facet normal 0 1 0
    outer loop
      vertex -7.6771 -7 -30.4326
      vertex -3.75736 -7 -33.5426
      vertex -7.8 -7 -30.5124
    endloop
  endfacet
  facet normal 0 1 0
    outer loop
      vertex -3.75736 -7 -33.5426
      vertex 0.757359 -7 -25.0574
      vertex 0.757359 -7 -33.5426
    endloop
  endfacet
  facet normal 0 1 0
    outer loop
      vertex -3.75736 -7 -25.0574
      vertex -8.5 -7 -27.9
      vertex -12.2426 -7 -25.0574
    endloop
  endfacet
  facet normal 0 1 -0
    outer loop
      vertex -8.61414 -7 -27.906
      vertex -12.2426 -7 -25.0574
      vertex -8.5 -7 -27.9
    endloop
  endfacet
  facet normal 0 1 -0
    outer loop
      vertex -8.64634 -7 -27.9077
      vertex -12.2426 -7 -25.0574
      vertex -8.61414 -7 -27.906
    endloop
  endfacet
  facet normal 0 1 -0
    outer loop
      vertex -8.79108 -7 -27.9306
      vertex -12.2426 -7 -25.0574
      vertex -8.64634 -7 -27.9077
    endloop
  endfacet
  facet normal 0 1 -0
    outer loop
      vertex -8.93262 -7 -27.9685
      vertex -12.2426 -7 -25.0574
      vertex -8.79108 -7 -27.9306
    endloop
  endfacet
  facet normal 0 1 -0
    outer loop
      vertex -9.06943 -7 -28.021
      vertex -12.2426 -7 -25.0574
      vertex -8.93262 -7 -27.9685
    endloop
  endfacet
  facet normal 0 1 -0
    outer loop
      vertex -9.2 -7 -28.0876
      vertex -12.2426 -7 -25.0574
      vertex -9.06943 -7 -28.021
    endloop
  endfacet
  facet normal 0 1 -0
    outer loop
      vertex -9.3229 -7 -28.1674
      vertex -12.2426 -7 -25.0574
      vertex -9.2 -7 -28.0876
    endloop
  endfacet
  facet normal 0 1 -0
    outer loop
      vertex -9.43678 -7 -28.2596
      vertex -12.2426 -7 -25.0574
      vertex -9.3229 -7 -28.1674
    endloop
  endfacet
  facet normal 0 1 -0
    outer loop
      vertex -9.5404 -7 -28.3632
      vertex -12.2426 -7 -25.0574
      vertex -9.43678 -7 -28.2596
    endloop
  endfacet
  facet normal 0 1 -0
    outer loop
      vertex -9.63262 -7 -28.4771
      vertex -12.2426 -7 -25.0574
      vertex -9.5404 -7 -28.3632
    endloop
  endfacet
  facet normal 0 1 -0
    outer loop
      vertex -9.71243 -7 -28.6
      vertex -12.2426 -7 -25.0574
      vertex -9.63262 -7 -28.4771
    endloop
  endfacet
  facet normal 0 1 -0
    outer loop
      vertex -9.77896 -7 -28.7306
      vertex -12.2426 -7 -25.0574
      vertex -9.71243 -7 -28.6
    endloop
  endfacet
  facet normal 0 1 -0
    outer loop
      vertex -9.83148 -7 -28.8674
      vertex -12.2426 -7 -25.0574
      vertex -9.77896 -7 -28.7306
    endloop
  endfacet
  facet normal 0 1 -0
    outer loop
      vertex -9.86941 -7 -29.0089
      vertex -12.2426 -7 -25.0574
      vertex -9.83148 -7 -28.8674
    endloop
  endfacet
  facet normal 0 1 -0
    outer loop
      vertex -9.89233 -7 -29.1537
      vertex -12.2426 -7 -25.0574
      vertex -9.86941 -7 -29.0089
    endloop
  endfacet
  facet normal 0 1 -0
    outer loop
      vertex -9.9 -7 -29.3
      vertex -12.2426 -7 -25.0574
      vertex -9.89233 -7 -29.1537
    endloop
  endfacet
  facet normal 0 1 0
    outer loop
      vertex -12.2426 -7 -33.5426
      vertex -9.9 -7 -29.3
      vertex -9.89233 -7 -29.4463
    endloop
  endfacet
  facet normal 0 1 0
    outer loop
      vertex -12.2426 -7 -33.5426
      vertex -9.89233 -7 -29.4463
      vertex -9.86941 -7 -29.5911
    endloop
  endfacet
  facet normal 0 1 0
    outer loop
      vertex -12.2426 -7 -33.5426
      vertex -9.86941 -7 -29.5911
      vertex -9.83148 -7 -29.7326
    endloop
  endfacet
  facet normal 0 1 0
    outer loop
      vertex -12.2426 -7 -33.5426
      vertex -9.83148 -7 -29.7326
      vertex -9.77896 -7 -29.8694
    endloop
  endfacet
  facet normal 0 1 0
    outer loop
      vertex -12.2426 -7 -33.5426
      vertex -9.77896 -7 -29.8694
      vertex -9.71243 -7 -30
    endloop
  endfacet
  facet normal 0 1 0
    outer loop
      vertex -12.2426 -7 -33.5426
      vertex -8.35366 -7 -30.6923
      vertex -3.75736 -7 -33.5426
    endloop
  endfacet
  facet normal 0 1 0
    outer loop
      vertex -8.4678 -7 -30.6983
      vertex -12.2426 -7 -33.5426
      vertex -8.5 -7 -30.7
    endloop
  endfacet
  facet normal 0 1 0
    outer loop
      vertex -8.5 -7 -30.7
      vertex -12.2426 -7 -33.5426
      vertex -8.61414 -7 -30.694
    endloop
  endfacet
  facet normal 0 1 0
    outer loop
      vertex -8.61414 -7 -30.694
      vertex -12.2426 -7 -33.5426
      vertex -8.64634 -7 -30.6923
    endloop
  endfacet
  facet normal 0 1 0
    outer loop
      vertex -8.64634 -7 -30.6923
      vertex -12.2426 -7 -33.5426
      vertex -8.79108 -7 -30.6694
    endloop
  endfacet
  facet normal 0 1 0
    outer loop
      vertex -8.79108 -7 -30.6694
      vertex -12.2426 -7 -33.5426
      vertex -8.93262 -7 -30.6315
    endloop
  endfacet
  facet normal 0 1 0
    outer loop
      vertex -8.93262 -7 -30.6315
      vertex -12.2426 -7 -33.5426
      vertex -9.06943 -7 -30.579
    endloop
  endfacet
  facet normal 0 1 0
    outer loop
      vertex -9.9 -7 -29.3
      vertex -12.2426 -7 -33.5426
      vertex -12.2426 -7 -25.0574
    endloop
  endfacet
  facet normal 0 1 0
    outer loop
      vertex -9.63262 -7 -30.1229
      vertex -12.2426 -7 -33.5426
      vertex -9.71243 -7 -30
    endloop
  endfacet
  facet normal 0 1 0
    outer loop
      vertex -9.5404 -7 -30.2368
      vertex -12.2426 -7 -33.5426
      vertex -9.63262 -7 -30.1229
    endloop
  endfacet
  facet normal 0 1 0
    outer loop
      vertex -9.43678 -7 -30.3404
      vertex -12.2426 -7 -33.5426
      vertex -9.5404 -7 -30.2368
    endloop
  endfacet
  facet normal 0 1 0
    outer loop
      vertex -9.3229 -7 -30.4326
      vertex -12.2426 -7 -33.5426
      vertex -9.43678 -7 -30.3404
    endloop
  endfacet
  facet normal 0 1 0
    outer loop
      vertex -9.2 -7 -30.5124
      vertex -12.2426 -7 -33.5426
      vertex -9.3229 -7 -30.4326
    endloop
  endfacet
  facet normal 0 1 0
    outer loop
      vertex -9.06943 -7 -30.579
      vertex -12.2426 -7 -33.5426
      vertex -9.2 -7 -30.5124
    endloop
  endfacet
  facet normal 0 0 -1
    outer loop
      vertex 0.757359 -31 -33.5426
      vertex -3.75736 -15 -33.5426
      vertex 0.757359 -7 -33.5426
    endloop
  endfacet
  facet normal 0 0 -1
    outer loop
      vertex -4.24264 -31 -33.5426
      vertex -3.75736 -15 -33.5426
      vertex 0.757359 -31 -33.5426
    endloop
  endfacet
  facet normal -0 0 -1
    outer loop
      vertex -3.75736 -15 -33.5426
      vertex -4.24264 -31 -33.5426
      vertex -4.24264 -15 -33.5426
    endloop
  endfacet
  facet normal -0 0 -1
    outer loop
      vertex 0.757359 -7 -33.5426
      vertex -3.75736 -15 -33.5426
      vertex -3.75736 -7 -33.5426
    endloop
  endfacet
  facet normal 1 -0 0
    outer loop
      vertex 0.757359 -31 -25.0574
      vertex 0.757359 -7 -33.5426
      vertex 0.757359 -7 -25.0574
    endloop
  endfacet
  facet normal 1 0 0
    outer loop
      vertex 0.757359 -7 -33.5426
      vertex 0.757359 -31 -25.0574
      vertex 0.757359 -31 -33.5426
    endloop
  endfacet
  facet normal 0 0.998629 0.0523377
    outer loop
      vertex -4.24264 -23.15 -29.3
      vertex -12 -23.1711 -28.8976
      vertex -4.24264 -23.1711 -28.8976
    endloop
  endfacet
  facet normal 0 0.998629 0.0523377
    outer loop
      vertex -12 -23.1711 -28.8976
      vertex -4.24264 -23.15 -29.3
      vertex -12 -23.15 -29.3
    endloop
  endfacet
  facet normal 0 -0.998629 -0.0523377
    outer loop
      vertex -12 -30.8289 -29.7024
      vertex -4.24264 -30.85 -29.3
      vertex -12 -30.85 -29.3
    endloop
  endfacet
  facet normal 0 -0.998629 -0.0523377
    outer loop
      vertex -4.24264 -30.85 -29.3
      vertex -12 -30.8289 -29.7024
      vertex -4.24264 -30.8289 -29.7024
    endloop
  endfacet
  facet normal 0 -0.0523377 0.998629
    outer loop
      vertex -12 -27 -25.45
      vertex -4.24264 -27.4024 -25.4711
      vertex -4.24264 -27 -25.45
    endloop
  endfacet
  facet normal 0 -0.0523377 0.998629
    outer loop
      vertex -4.24264 -27.4024 -25.4711
      vertex -12 -27 -25.45
      vertex -12 -27.4024 -25.4711
    endloop
  endfacet
  facet normal 0 0.0523283 -0.99863
    outer loop
      vertex -12 -27 -33.15
      vertex -4.24264 -26.5976 -33.1289
      vertex -4.24264 -27 -33.15
    endloop
  endfacet
  facet normal 0 0.0523283 -0.99863
    outer loop
      vertex -4.24264 -26.5976 -33.1289
      vertex -12 -27 -33.15
      vertex -12 -26.5976 -33.1289
    endloop
  endfacet
  facet normal 0 -0.707107 -0.707107
    outer loop
      vertex -12 -29.5762 -32.1611
      vertex -4.24264 -29.8611 -31.8762
      vertex -12 -29.8611 -31.8762
    endloop
  endfacet
  facet normal 0 -0.707107 -0.707107
    outer loop
      vertex -4.24264 -29.8611 -31.8762
      vertex -12 -29.5762 -32.1611
      vertex -4.24264 -29.5762 -32.1611
    endloop
  endfacet
  facet normal 0 -0.707107 0.707107
    outer loop
      vertex -12 -29.8611 -26.7238
      vertex -4.24264 -29.5762 -26.4389
      vertex -12 -29.5762 -26.4389
    endloop
  endfacet
  facet normal 0 -0.707107 0.707107
    outer loop
      vertex -4.24264 -29.5762 -26.4389
      vertex -12 -29.8611 -26.7238
      vertex -4.24264 -29.8611 -26.7238
    endloop
  endfacet
  facet normal 0 -0.358368 0.93358
    outer loop
      vertex -12 -28.1897 -25.6384
      vertex -4.24264 -28.5659 -25.7828
      vertex -4.24264 -28.1897 -25.6384
    endloop
  endfacet
  facet normal 0 -0.358368 0.93358
    outer loop
      vertex -4.24264 -28.5659 -25.7828
      vertex -12 -28.1897 -25.6384
      vertex -12 -28.5659 -25.7828
    endloop
  endfacet
  facet normal 0 0.891006 -0.453992
    outer loop
      vertex -4.24264 -23.6658 -31.225
      vertex -12 -23.4828 -30.8659
      vertex -4.24264 -23.4828 -30.8659
    endloop
  endfacet
  facet normal 0 0.891006 -0.453992
    outer loop
      vertex -12 -23.4828 -30.8659
      vertex -4.24264 -23.6658 -31.225
      vertex -12 -23.6658 -31.225
    endloop
  endfacet
  facet normal 0 -0.965925 -0.258821
    outer loop
      vertex -12 -30.6616 -30.4897
      vertex -4.24264 -30.7659 -30.1005
      vertex -12 -30.7659 -30.1005
    endloop
  endfacet
  facet normal 0 -0.965925 -0.258821
    outer loop
      vertex -4.24264 -30.7659 -30.1005
      vertex -12 -30.6616 -30.4897
      vertex -4.24264 -30.6616 -30.4897
    endloop
  endfacet
  facet normal -0 0.629322 0.777144
    outer loop
      vertex -12 -24.4238 -26.4389
      vertex -4.24264 -24.737 -26.1853
      vertex -4.24264 -24.4238 -26.4389
    endloop
  endfacet
  facet normal 0 0.629322 0.777144
    outer loop
      vertex -4.24264 -24.737 -26.1853
      vertex -12 -24.4238 -26.4389
      vertex -12 -24.737 -26.1853
    endloop
  endfacet
  facet normal -0 0.453992 0.891006
    outer loop
      vertex -12 -25.075 -25.9658
      vertex -4.24264 -25.4341 -25.7828
      vertex -4.24264 -25.075 -25.9658
    endloop
  endfacet
  facet normal 0 0.453992 0.891006
    outer loop
      vertex -4.24264 -25.4341 -25.7828
      vertex -12 -25.075 -25.9658
      vertex -12 -25.4341 -25.7828
    endloop
  endfacet
  facet normal 0 -0.891005 0.453994
    outer loop
      vertex -12 -30.5172 -27.7341
      vertex -4.24264 -30.3342 -27.375
      vertex -12 -30.3342 -27.375
    endloop
  endfacet
  facet normal 0 -0.891005 0.453994
    outer loop
      vertex -4.24264 -30.3342 -27.375
      vertex -12 -30.5172 -27.7341
      vertex -4.24264 -30.5172 -27.7341
    endloop
  endfacet
  facet normal 0 -0.838671 0.544638
    outer loop
      vertex -12 -30.3342 -27.375
      vertex -4.24264 -30.1147 -27.037
      vertex -12 -30.1147 -27.037
    endloop
  endfacet
  facet normal 0 -0.838671 0.544638
    outer loop
      vertex -4.24264 -30.1147 -27.037
      vertex -12 -30.3342 -27.375
      vertex -4.24264 -30.3342 -27.375
    endloop
  endfacet
  facet normal 0 -0.258821 0.965925
    outer loop
      vertex -12 -27.8005 -25.5341
      vertex -4.24264 -28.1897 -25.6384
      vertex -4.24264 -27.8005 -25.5341
    endloop
  endfacet
  facet normal 0 -0.258821 0.965925
    outer loop
      vertex -4.24264 -28.1897 -25.6384
      vertex -12 -27.8005 -25.5341
      vertex -12 -28.1897 -25.6384
    endloop
  endfacet
  facet normal 0 0.358368 -0.93358
    outer loop
      vertex -12 -25.8103 -32.9616
      vertex -4.24264 -25.4341 -32.8172
      vertex -4.24264 -25.8103 -32.9616
    endloop
  endfacet
  facet normal 0 0.358368 -0.93358
    outer loop
      vertex -4.24264 -25.4341 -32.8172
      vertex -12 -25.8103 -32.9616
      vertex -12 -25.4341 -32.8172
    endloop
  endfacet
  facet normal 0 0.777144 -0.629322
    outer loop
      vertex -4.24264 -24.1389 -31.8762
      vertex -12 -23.8853 -31.563
      vertex -4.24264 -23.8853 -31.563
    endloop
  endfacet
  facet normal 0 0.777144 -0.629322
    outer loop
      vertex -12 -23.8853 -31.563
      vertex -4.24264 -24.1389 -31.8762
      vertex -12 -24.1389 -31.8762
    endloop
  endfacet
  facet normal 0 -0.258821 -0.965925
    outer loop
      vertex -12 -28.1897 -32.9616
      vertex -4.24264 -27.8005 -33.0659
      vertex -4.24264 -28.1897 -32.9616
    endloop
  endfacet
  facet normal -0 -0.258821 -0.965925
    outer loop
      vertex -4.24264 -27.8005 -33.0659
      vertex -12 -28.1897 -32.9616
      vertex -12 -27.8005 -33.0659
    endloop
  endfacet
  facet normal 0 -0.777144 -0.629322
    outer loop
      vertex -12 -29.8611 -31.8762
      vertex -4.24264 -30.1147 -31.563
      vertex -12 -30.1147 -31.563
    endloop
  endfacet
  facet normal 0 -0.777144 -0.629322
    outer loop
      vertex -4.24264 -30.1147 -31.563
      vertex -12 -29.8611 -31.8762
      vertex -4.24264 -29.8611 -31.8762
    endloop
  endfacet
  facet normal 0 -0.987689 -0.156432
    outer loop
      vertex -12 -30.7659 -30.1005
      vertex -4.24264 -30.8289 -29.7024
      vertex -12 -30.8289 -29.7024
    endloop
  endfacet
  facet normal 0 -0.987689 -0.156432
    outer loop
      vertex -4.24264 -30.8289 -29.7024
      vertex -12 -30.7659 -30.1005
      vertex -4.24264 -30.7659 -30.1005
    endloop
  endfacet
  facet normal 0 0.987689 0.156431
    outer loop
      vertex -4.24264 -23.1711 -28.8976
      vertex -12 -23.2341 -28.4995
      vertex -4.24264 -23.2341 -28.4995
    endloop
  endfacet
  facet normal 0 0.987689 0.156431
    outer loop
      vertex -12 -23.2341 -28.4995
      vertex -4.24264 -23.1711 -28.8976
      vertex -12 -23.1711 -28.8976
    endloop
  endfacet
  facet normal 0 0.933581 0.358366
    outer loop
      vertex -4.24264 -23.3384 -28.1103
      vertex -12 -23.4828 -27.7341
      vertex -4.24264 -23.4828 -27.7341
    endloop
  endfacet
  facet normal 0 0.933581 0.358366
    outer loop
      vertex -12 -23.4828 -27.7341
      vertex -4.24264 -23.3384 -28.1103
      vertex -12 -23.3384 -28.1103
    endloop
  endfacet
  facet normal 0 0.777144 0.629322
    outer loop
      vertex -4.24264 -23.8853 -27.037
      vertex -12 -24.1389 -26.7238
      vertex -4.24264 -24.1389 -26.7238
    endloop
  endfacet
  facet normal 0 0.777144 0.629322
    outer loop
      vertex -12 -24.1389 -26.7238
      vertex -4.24264 -23.8853 -27.037
      vertex -12 -23.8853 -27.037
    endloop
  endfacet
  facet normal 0 0.707107 0.707107
    outer loop
      vertex -4.24264 -24.1389 -26.7238
      vertex -12 -24.4238 -26.4389
      vertex -4.24264 -24.4238 -26.4389
    endloop
  endfacet
  facet normal 0 0.707107 0.707107
    outer loop
      vertex -12 -24.4238 -26.4389
      vertex -4.24264 -24.1389 -26.7238
      vertex -12 -24.1389 -26.7238
    endloop
  endfacet
  facet normal 0 0.838671 0.544638
    outer loop
      vertex -4.24264 -23.6658 -27.375
      vertex -12 -23.8853 -27.037
      vertex -4.24264 -23.8853 -27.037
    endloop
  endfacet
  facet normal 0 0.838671 0.544638
    outer loop
      vertex -12 -23.8853 -27.037
      vertex -4.24264 -23.6658 -27.375
      vertex -12 -23.6658 -27.375
    endloop
  endfacet
  facet normal -0 0.156431 0.987689
    outer loop
      vertex -12 -26.1995 -25.5341
      vertex -4.24264 -26.5976 -25.4711
      vertex -4.24264 -26.1995 -25.5341
    endloop
  endfacet
  facet normal 0 0.156431 0.987689
    outer loop
      vertex -4.24264 -26.5976 -25.4711
      vertex -12 -26.1995 -25.5341
      vertex -12 -26.5976 -25.4711
    endloop
  endfacet
  facet normal -0 0.258821 0.965925
    outer loop
      vertex -12 -25.8103 -25.6384
      vertex -4.24264 -26.1995 -25.5341
      vertex -4.24264 -25.8103 -25.6384
    endloop
  endfacet
  facet normal 0 0.258821 0.965925
    outer loop
      vertex -4.24264 -26.1995 -25.5341
      vertex -12 -25.8103 -25.6384
      vertex -12 -26.1995 -25.5341
    endloop
  endfacet
  facet normal -0 0.0523377 0.998629
    outer loop
      vertex -12 -26.5976 -25.4711
      vertex -4.24264 -27 -25.45
      vertex -4.24264 -26.5976 -25.4711
    endloop
  endfacet
  facet normal 0 0.0523377 0.998629
    outer loop
      vertex -4.24264 -27 -25.45
      vertex -12 -26.5976 -25.4711
      vertex -12 -27 -25.45
    endloop
  endfacet
  facet normal -0 0.358368 0.93358
    outer loop
      vertex -12 -25.4341 -25.7828
      vertex -4.24264 -25.8103 -25.6384
      vertex -4.24264 -25.4341 -25.7828
    endloop
  endfacet
  facet normal 0 0.358368 0.93358
    outer loop
      vertex -4.24264 -25.8103 -25.6384
      vertex -12 -25.4341 -25.7828
      vertex -12 -25.8103 -25.6384
    endloop
  endfacet
  facet normal -0 0.544638 0.838671
    outer loop
      vertex -12 -24.737 -26.1853
      vertex -4.24264 -25.075 -25.9658
      vertex -4.24264 -24.737 -26.1853
    endloop
  endfacet
  facet normal 0 0.544638 0.838671
    outer loop
      vertex -4.24264 -25.075 -25.9658
      vertex -12 -24.737 -26.1853
      vertex -12 -25.075 -25.9658
    endloop
  endfacet
  facet normal 0 -0.987689 0.156431
    outer loop
      vertex -12 -30.8289 -28.8976
      vertex -4.24264 -30.7659 -28.4995
      vertex -12 -30.7659 -28.4995
    endloop
  endfacet
  facet normal 0 -0.987689 0.156431
    outer loop
      vertex -4.24264 -30.7659 -28.4995
      vertex -12 -30.8289 -28.8976
      vertex -4.24264 -30.8289 -28.8976
    endloop
  endfacet
  facet normal 0 -0.933581 0.358366
    outer loop
      vertex -12 -30.6616 -28.1103
      vertex -4.24264 -30.5172 -27.7341
      vertex -12 -30.5172 -27.7341
    endloop
  endfacet
  facet normal 0 -0.933581 0.358366
    outer loop
      vertex -4.24264 -30.5172 -27.7341
      vertex -12 -30.6616 -28.1103
      vertex -4.24264 -30.6616 -28.1103
    endloop
  endfacet
  facet normal 0 -0.998629 0.0523377
    outer loop
      vertex -12 -30.85 -29.3
      vertex -4.24264 -30.8289 -28.8976
      vertex -12 -30.8289 -28.8976
    endloop
  endfacet
  facet normal 0 -0.998629 0.0523377
    outer loop
      vertex -4.24264 -30.8289 -28.8976
      vertex -12 -30.85 -29.3
      vertex -4.24264 -30.85 -29.3
    endloop
  endfacet
  facet normal 0 -0.544638 0.838671
    outer loop
      vertex -12 -28.925 -25.9658
      vertex -4.24264 -29.263 -26.1853
      vertex -4.24264 -28.925 -25.9658
    endloop
  endfacet
  facet normal 0 -0.544638 0.838671
    outer loop
      vertex -4.24264 -29.263 -26.1853
      vertex -12 -28.925 -25.9658
      vertex -12 -29.263 -26.1853
    endloop
  endfacet
  facet normal 0 -0.629322 0.777144
    outer loop
      vertex -12 -29.263 -26.1853
      vertex -4.24264 -29.5762 -26.4389
      vertex -4.24264 -29.263 -26.1853
    endloop
  endfacet
  facet normal 0 -0.629322 0.777144
    outer loop
      vertex -4.24264 -29.5762 -26.4389
      vertex -12 -29.263 -26.1853
      vertex -12 -29.5762 -26.4389
    endloop
  endfacet
  facet normal 0 -0.156431 0.987689
    outer loop
      vertex -12 -27.4024 -25.4711
      vertex -4.24264 -27.8005 -25.5341
      vertex -4.24264 -27.4024 -25.4711
    endloop
  endfacet
  facet normal 0 -0.156431 0.987689
    outer loop
      vertex -4.24264 -27.8005 -25.5341
      vertex -12 -27.4024 -25.4711
      vertex -12 -27.8005 -25.5341
    endloop
  endfacet
  facet normal 0 0.987689 -0.156432
    outer loop
      vertex -4.24264 -23.2341 -30.1005
      vertex -12 -23.1711 -29.7024
      vertex -4.24264 -23.1711 -29.7024
    endloop
  endfacet
  facet normal 0 0.987689 -0.156432
    outer loop
      vertex -12 -23.1711 -29.7024
      vertex -4.24264 -23.2341 -30.1005
      vertex -12 -23.2341 -30.1005
    endloop
  endfacet
  facet normal 0 0.998629 -0.0523377
    outer loop
      vertex -4.24264 -23.1711 -29.7024
      vertex -12 -23.15 -29.3
      vertex -4.24264 -23.15 -29.3
    endloop
  endfacet
  facet normal 0 0.998629 -0.0523377
    outer loop
      vertex -12 -23.15 -29.3
      vertex -4.24264 -23.1711 -29.7024
      vertex -12 -23.1711 -29.7024
    endloop
  endfacet
  facet normal 0 0.156436 -0.987688
    outer loop
      vertex -12 -26.5976 -33.1289
      vertex -4.24264 -26.1995 -33.0659
      vertex -4.24264 -26.5976 -33.1289
    endloop
  endfacet
  facet normal 0 0.156436 -0.987688
    outer loop
      vertex -4.24264 -26.1995 -33.0659
      vertex -12 -26.5976 -33.1289
      vertex -12 -26.1995 -33.0659
    endloop
  endfacet
  facet normal 0 0.544638 -0.838671
    outer loop
      vertex -12 -25.075 -32.6342
      vertex -4.24264 -24.737 -32.4147
      vertex -4.24264 -25.075 -32.6342
    endloop
  endfacet
  facet normal 0 0.544638 -0.838671
    outer loop
      vertex -4.24264 -24.737 -32.4147
      vertex -12 -25.075 -32.6342
      vertex -12 -24.737 -32.4147
    endloop
  endfacet
  facet normal 0 0.707107 -0.707107
    outer loop
      vertex -4.24264 -24.4238 -32.1611
      vertex -12 -24.1389 -31.8762
      vertex -4.24264 -24.1389 -31.8762
    endloop
  endfacet
  facet normal 0 0.707107 -0.707107
    outer loop
      vertex -12 -24.1389 -31.8762
      vertex -4.24264 -24.4238 -32.1611
      vertex -12 -24.4238 -32.1611
    endloop
  endfacet
  facet normal 0 0.629322 -0.777144
    outer loop
      vertex -12 -24.737 -32.4147
      vertex -4.24264 -24.4238 -32.1611
      vertex -4.24264 -24.737 -32.4147
    endloop
  endfacet
  facet normal 0 0.629322 -0.777144
    outer loop
      vertex -4.24264 -24.4238 -32.1611
      vertex -12 -24.737 -32.4147
      vertex -12 -24.4238 -32.1611
    endloop
  endfacet
  facet normal 0 0.838671 -0.544638
    outer loop
      vertex -4.24264 -23.8853 -31.563
      vertex -12 -23.6658 -31.225
      vertex -4.24264 -23.6658 -31.225
    endloop
  endfacet
  facet normal 0 0.838671 -0.544638
    outer loop
      vertex -12 -23.6658 -31.225
      vertex -4.24264 -23.8853 -31.563
      vertex -12 -23.8853 -31.563
    endloop
  endfacet
  facet normal 0 -0.156436 -0.987688
    outer loop
      vertex -12 -27.8005 -33.0659
      vertex -4.24264 -27.4024 -33.1289
      vertex -4.24264 -27.8005 -33.0659
    endloop
  endfacet
  facet normal -0 -0.156436 -0.987688
    outer loop
      vertex -4.24264 -27.4024 -33.1289
      vertex -12 -27.8005 -33.0659
      vertex -12 -27.4024 -33.1289
    endloop
  endfacet
  facet normal -1 0 0
    outer loop
      vertex -12 -23.1711 -29.7024
      vertex -12 -23.1711 -28.8976
      vertex -12 -23.15 -29.3
    endloop
  endfacet
  facet normal -1 0 0
    outer loop
      vertex -12 -23.2341 -30.1005
      vertex -12 -23.1711 -28.8976
      vertex -12 -23.1711 -29.7024
    endloop
  endfacet
  facet normal -1 0 0
    outer loop
      vertex -12 -23.2341 -30.1005
      vertex -12 -23.2341 -28.4995
      vertex -12 -23.1711 -28.8976
    endloop
  endfacet
  facet normal -1 0 0
    outer loop
      vertex -12 -23.3384 -30.4897
      vertex -12 -23.2341 -28.4995
      vertex -12 -23.2341 -30.1005
    endloop
  endfacet
  facet normal -1 0 0
    outer loop
      vertex -12 -23.3384 -30.4897
      vertex -12 -23.3384 -28.1103
      vertex -12 -23.2341 -28.4995
    endloop
  endfacet
  facet normal -1 0 0
    outer loop
      vertex -12 -23.4828 -30.8659
      vertex -12 -23.3384 -28.1103
      vertex -12 -23.3384 -30.4897
    endloop
  endfacet
  facet normal -1 0 0
    outer loop
      vertex -12 -23.4828 -30.8659
      vertex -12 -23.4828 -27.7341
      vertex -12 -23.3384 -28.1103
    endloop
  endfacet
  facet normal -1 0 0
    outer loop
      vertex -12 -23.6658 -31.225
      vertex -12 -23.4828 -27.7341
      vertex -12 -23.4828 -30.8659
    endloop
  endfacet
  facet normal -1 0 0
    outer loop
      vertex -12 -23.6658 -31.225
      vertex -12 -23.6658 -27.375
      vertex -12 -23.4828 -27.7341
    endloop
  endfacet
  facet normal -1 0 0
    outer loop
      vertex -12 -23.8853 -31.563
      vertex -12 -23.6658 -27.375
      vertex -12 -23.6658 -31.225
    endloop
  endfacet
  facet normal -1 0 0
    outer loop
      vertex -12 -23.8853 -31.563
      vertex -12 -23.8853 -27.037
      vertex -12 -23.6658 -27.375
    endloop
  endfacet
  facet normal -1 0 0
    outer loop
      vertex -12 -24.1389 -31.8762
      vertex -12 -23.8853 -27.037
      vertex -12 -23.8853 -31.563
    endloop
  endfacet
  facet normal -1 0 0
    outer loop
      vertex -12 -24.1389 -31.8762
      vertex -12 -24.1389 -26.7238
      vertex -12 -23.8853 -27.037
    endloop
  endfacet
  facet normal -1 0 0
    outer loop
      vertex -12 -24.4238 -32.1611
      vertex -12 -24.1389 -26.7238
      vertex -12 -24.1389 -31.8762
    endloop
  endfacet
  facet normal -1 0 0
    outer loop
      vertex -12 -24.4238 -32.1611
      vertex -12 -24.4238 -26.4389
      vertex -12 -24.1389 -26.7238
    endloop
  endfacet
  facet normal -1 0 0
    outer loop
      vertex -12 -24.737 -32.4147
      vertex -12 -24.4238 -26.4389
      vertex -12 -24.4238 -32.1611
    endloop
  endfacet
  facet normal -1 0 0
    outer loop
      vertex -12 -24.737 -32.4147
      vertex -12 -24.737 -26.1853
      vertex -12 -24.4238 -26.4389
    endloop
  endfacet
  facet normal -1 0 0
    outer loop
      vertex -12 -25.075 -32.6342
      vertex -12 -24.737 -26.1853
      vertex -12 -24.737 -32.4147
    endloop
  endfacet
  facet normal -1 0 0
    outer loop
      vertex -12 -25.075 -32.6342
      vertex -12 -25.075 -25.9658
      vertex -12 -24.737 -26.1853
    endloop
  endfacet
  facet normal -1 0 0
    outer loop
      vertex -12 -25.4341 -32.8172
      vertex -12 -25.075 -25.9658
      vertex -12 -25.075 -32.6342
    endloop
  endfacet
  facet normal -1 0 0
    outer loop
      vertex -12 -25.4341 -32.8172
      vertex -12 -25.4341 -25.7828
      vertex -12 -25.075 -25.9658
    endloop
  endfacet
  facet normal -1 0 0
    outer loop
      vertex -12 -25.8103 -32.9616
      vertex -12 -25.4341 -25.7828
      vertex -12 -25.4341 -32.8172
    endloop
  endfacet
  facet normal -1 0 0
    outer loop
      vertex -12 -25.8103 -32.9616
      vertex -12 -25.8103 -25.6384
      vertex -12 -25.4341 -25.7828
    endloop
  endfacet
  facet normal -1 0 0
    outer loop
      vertex -12 -26.1995 -33.0659
      vertex -12 -25.8103 -25.6384
      vertex -12 -25.8103 -32.9616
    endloop
  endfacet
  facet normal -1 0 0
    outer loop
      vertex -12 -26.1995 -33.0659
      vertex -12 -26.1995 -25.5341
      vertex -12 -25.8103 -25.6384
    endloop
  endfacet
  facet normal -1 0 0
    outer loop
      vertex -12 -26.5976 -33.1289
      vertex -12 -26.1995 -25.5341
      vertex -12 -26.1995 -33.0659
    endloop
  endfacet
  facet normal -1 0 0
    outer loop
      vertex -12 -26.5976 -33.1289
      vertex -12 -26.5976 -25.4711
      vertex -12 -26.1995 -25.5341
    endloop
  endfacet
  facet normal -1 0 0
    outer loop
      vertex -12 -27 -33.15
      vertex -12 -26.5976 -25.4711
      vertex -12 -26.5976 -33.1289
    endloop
  endfacet
  facet normal -1 0 0
    outer loop
      vertex -12 -27 -33.15
      vertex -12 -27 -25.45
      vertex -12 -26.5976 -25.4711
    endloop
  endfacet
  facet normal -1 0 0
    outer loop
      vertex -12 -27.4024 -33.1289
      vertex -12 -27 -25.45
      vertex -12 -27 -33.15
    endloop
  endfacet
  facet normal -1 0 0
    outer loop
      vertex -12 -27.4024 -33.1289
      vertex -12 -27.4024 -25.4711
      vertex -12 -27 -25.45
    endloop
  endfacet
  facet normal -1 0 0
    outer loop
      vertex -12 -27.8005 -33.0659
      vertex -12 -27.4024 -25.4711
      vertex -12 -27.4024 -33.1289
    endloop
  endfacet
  facet normal -1 0 0
    outer loop
      vertex -12 -27.8005 -33.0659
      vertex -12 -27.8005 -25.5341
      vertex -12 -27.4024 -25.4711
    endloop
  endfacet
  facet normal -1 0 0
    outer loop
      vertex -12 -28.1897 -32.9616
      vertex -12 -27.8005 -25.5341
      vertex -12 -27.8005 -33.0659
    endloop
  endfacet
  facet normal -1 0 0
    outer loop
      vertex -12 -28.1897 -32.9616
      vertex -12 -28.1897 -25.6384
      vertex -12 -27.8005 -25.5341
    endloop
  endfacet
  facet normal -1 0 0
    outer loop
      vertex -12 -28.5659 -32.8172
      vertex -12 -28.1897 -25.6384
      vertex -12 -28.1897 -32.9616
    endloop
  endfacet
  facet normal -1 0 0
    outer loop
      vertex -12 -28.5659 -32.8172
      vertex -12 -28.5659 -25.7828
      vertex -12 -28.1897 -25.6384
    endloop
  endfacet
  facet normal -1 0 0
    outer loop
      vertex -12 -28.925 -32.6342
      vertex -12 -28.5659 -25.7828
      vertex -12 -28.5659 -32.8172
    endloop
  endfacet
  facet normal -1 0 0
    outer loop
      vertex -12 -28.925 -32.6342
      vertex -12 -28.925 -25.9658
      vertex -12 -28.5659 -25.7828
    endloop
  endfacet
  facet normal -1 0 0
    outer loop
      vertex -12 -29.263 -32.4147
      vertex -12 -28.925 -25.9658
      vertex -12 -28.925 -32.6342
    endloop
  endfacet
  facet normal -1 0 0
    outer loop
      vertex -12 -29.263 -32.4147
      vertex -12 -29.263 -26.1853
      vertex -12 -28.925 -25.9658
    endloop
  endfacet
  facet normal -1 0 0
    outer loop
      vertex -12 -29.5762 -32.1611
      vertex -12 -29.263 -26.1853
      vertex -12 -29.263 -32.4147
    endloop
  endfacet
  facet normal -1 0 0
    outer loop
      vertex -12 -29.5762 -32.1611
      vertex -12 -29.5762 -26.4389
      vertex -12 -29.263 -26.1853
    endloop
  endfacet
  facet normal -1 0 0
    outer loop
      vertex -12 -29.8611 -31.8762
      vertex -12 -29.5762 -26.4389
      vertex -12 -29.5762 -32.1611
    endloop
  endfacet
  facet normal -1 0 0
    outer loop
      vertex -12 -29.8611 -31.8762
      vertex -12 -29.8611 -26.7238
      vertex -12 -29.5762 -26.4389
    endloop
  endfacet
  facet normal -1 0 0
    outer loop
      vertex -12 -30.1147 -31.563
      vertex -12 -29.8611 -26.7238
      vertex -12 -29.8611 -31.8762
    endloop
  endfacet
  facet normal -1 0 0
    outer loop
      vertex -12 -30.1147 -31.563
      vertex -12 -30.1147 -27.037
      vertex -12 -29.8611 -26.7238
    endloop
  endfacet
  facet normal -1 0 0
    outer loop
      vertex -12 -30.3342 -31.225
      vertex -12 -30.1147 -27.037
      vertex -12 -30.1147 -31.563
    endloop
  endfacet
  facet normal -1 0 0
    outer loop
      vertex -12 -30.3342 -31.225
      vertex -12 -30.3342 -27.375
      vertex -12 -30.1147 -27.037
    endloop
  endfacet
  facet normal -1 0 0
    outer loop
      vertex -12 -30.5172 -30.8659
      vertex -12 -30.3342 -27.375
      vertex -12 -30.3342 -31.225
    endloop
  endfacet
  facet normal -1 0 0
    outer loop
      vertex -12 -30.5172 -30.8659
      vertex -12 -30.5172 -27.7341
      vertex -12 -30.3342 -27.375
    endloop
  endfacet
  facet normal -1 0 0
    outer loop
      vertex -12 -30.6616 -30.4897
      vertex -12 -30.5172 -27.7341
      vertex -12 -30.5172 -30.8659
    endloop
  endfacet
  facet normal -1 0 0
    outer loop
      vertex -12 -30.6616 -30.4897
      vertex -12 -30.6616 -28.1103
      vertex -12 -30.5172 -27.7341
    endloop
  endfacet
  facet normal -1 0 0
    outer loop
      vertex -12 -30.7659 -30.1005
      vertex -12 -30.6616 -28.1103
      vertex -12 -30.6616 -30.4897
    endloop
  endfacet
  facet normal -1 0 0
    outer loop
      vertex -12 -30.7659 -30.1005
      vertex -12 -30.7659 -28.4995
      vertex -12 -30.6616 -28.1103
    endloop
  endfacet
  facet normal -1 0 0
    outer loop
      vertex -12 -30.8289 -29.7024
      vertex -12 -30.7659 -28.4995
      vertex -12 -30.7659 -30.1005
    endloop
  endfacet
  facet normal -1 0 0
    outer loop
      vertex -12 -30.8289 -29.7024
      vertex -12 -30.8289 -28.8976
      vertex -12 -30.7659 -28.4995
    endloop
  endfacet
  facet normal -1 0 -0
    outer loop
      vertex -12 -30.8289 -28.8976
      vertex -12 -30.8289 -29.7024
      vertex -12 -30.85 -29.3
    endloop
  endfacet
  facet normal 0 -0.544638 -0.838671
    outer loop
      vertex -12 -29.263 -32.4147
      vertex -4.24264 -28.925 -32.6342
      vertex -4.24264 -29.263 -32.4147
    endloop
  endfacet
  facet normal -0 -0.544638 -0.838671
    outer loop
      vertex -4.24264 -28.925 -32.6342
      vertex -12 -29.263 -32.4147
      vertex -12 -28.925 -32.6342
    endloop
  endfacet
  facet normal 0 -0.453992 -0.891006
    outer loop
      vertex -12 -28.925 -32.6342
      vertex -4.24264 -28.5659 -32.8172
      vertex -4.24264 -28.925 -32.6342
    endloop
  endfacet
  facet normal -0 -0.453992 -0.891006
    outer loop
      vertex -4.24264 -28.5659 -32.8172
      vertex -12 -28.925 -32.6342
      vertex -12 -28.5659 -32.8172
    endloop
  endfacet
  facet normal 0 -0.358368 -0.93358
    outer loop
      vertex -12 -28.5659 -32.8172
      vertex -4.24264 -28.1897 -32.9616
      vertex -4.24264 -28.5659 -32.8172
    endloop
  endfacet
  facet normal -0 -0.358368 -0.93358
    outer loop
      vertex -4.24264 -28.1897 -32.9616
      vertex -12 -28.5659 -32.8172
      vertex -12 -28.1897 -32.9616
    endloop
  endfacet
  facet normal 0 -0.0523283 -0.99863
    outer loop
      vertex -12 -27.4024 -33.1289
      vertex -4.24264 -27 -33.15
      vertex -4.24264 -27.4024 -33.1289
    endloop
  endfacet
  facet normal -0 -0.0523283 -0.99863
    outer loop
      vertex -4.24264 -27 -33.15
      vertex -12 -27.4024 -33.1289
      vertex -12 -27 -33.15
    endloop
  endfacet
  facet normal 0 -0.891006 -0.453992
    outer loop
      vertex -12 -30.3342 -31.225
      vertex -4.24264 -30.5172 -30.8659
      vertex -12 -30.5172 -30.8659
    endloop
  endfacet
  facet normal 0 -0.891006 -0.453992
    outer loop
      vertex -4.24264 -30.5172 -30.8659
      vertex -12 -30.3342 -31.225
      vertex -4.24264 -30.3342 -31.225
    endloop
  endfacet
  facet normal 0 -0.838671 -0.544638
    outer loop
      vertex -12 -30.1147 -31.563
      vertex -4.24264 -30.3342 -31.225
      vertex -12 -30.3342 -31.225
    endloop
  endfacet
  facet normal 0 -0.838671 -0.544638
    outer loop
      vertex -4.24264 -30.3342 -31.225
      vertex -12 -30.1147 -31.563
      vertex -4.24264 -30.1147 -31.563
    endloop
  endfacet
  facet normal 0 -0.933581 -0.358366
    outer loop
      vertex -12 -30.5172 -30.8659
      vertex -4.24264 -30.6616 -30.4897
      vertex -12 -30.6616 -30.4897
    endloop
  endfacet
  facet normal 0 -0.933581 -0.358366
    outer loop
      vertex -4.24264 -30.6616 -30.4897
      vertex -12 -30.5172 -30.8659
      vertex -4.24264 -30.5172 -30.8659
    endloop
  endfacet
  facet normal 0 0.965925 0.258821
    outer loop
      vertex -4.24264 -23.2341 -28.4995
      vertex -12 -23.3384 -28.1103
      vertex -4.24264 -23.3384 -28.1103
    endloop
  endfacet
  facet normal 0 0.965925 0.258821
    outer loop
      vertex -12 -23.3384 -28.1103
      vertex -4.24264 -23.2341 -28.4995
      vertex -12 -23.2341 -28.4995
    endloop
  endfacet
  facet normal 0 0.891005 0.453994
    outer loop
      vertex -4.24264 -23.4828 -27.7341
      vertex -12 -23.6658 -27.375
      vertex -4.24264 -23.6658 -27.375
    endloop
  endfacet
  facet normal 0 0.891005 0.453994
    outer loop
      vertex -12 -23.6658 -27.375
      vertex -4.24264 -23.4828 -27.7341
      vertex -12 -23.4828 -27.7341
    endloop
  endfacet
  facet normal 0 -0.777144 0.629322
    outer loop
      vertex -12 -30.1147 -27.037
      vertex -4.24264 -29.8611 -26.7238
      vertex -12 -29.8611 -26.7238
    endloop
  endfacet
  facet normal 0 -0.777144 0.629322
    outer loop
      vertex -4.24264 -29.8611 -26.7238
      vertex -12 -30.1147 -27.037
      vertex -4.24264 -30.1147 -27.037
    endloop
  endfacet
  facet normal 0 -0.965925 0.258821
    outer loop
      vertex -12 -30.7659 -28.4995
      vertex -4.24264 -30.6616 -28.1103
      vertex -12 -30.6616 -28.1103
    endloop
  endfacet
  facet normal 0 -0.965925 0.258821
    outer loop
      vertex -4.24264 -30.6616 -28.1103
      vertex -12 -30.7659 -28.4995
      vertex -4.24264 -30.7659 -28.4995
    endloop
  endfacet
  facet normal 0 -0.453992 0.891006
    outer loop
      vertex -12 -28.5659 -25.7828
      vertex -4.24264 -28.925 -25.9658
      vertex -4.24264 -28.5659 -25.7828
    endloop
  endfacet
  facet normal 0 -0.453992 0.891006
    outer loop
      vertex -4.24264 -28.925 -25.9658
      vertex -12 -28.5659 -25.7828
      vertex -12 -28.925 -25.9658
    endloop
  endfacet
  facet normal 0 0.933581 -0.358366
    outer loop
      vertex -4.24264 -23.4828 -30.8659
      vertex -12 -23.3384 -30.4897
      vertex -4.24264 -23.3384 -30.4897
    endloop
  endfacet
  facet normal 0 0.933581 -0.358366
    outer loop
      vertex -12 -23.3384 -30.4897
      vertex -4.24264 -23.4828 -30.8659
      vertex -12 -23.4828 -30.8659
    endloop
  endfacet
  facet normal 0 0.258821 -0.965925
    outer loop
      vertex -12 -26.1995 -33.0659
      vertex -4.24264 -25.8103 -32.9616
      vertex -4.24264 -26.1995 -33.0659
    endloop
  endfacet
  facet normal 0 0.258821 -0.965925
    outer loop
      vertex -4.24264 -25.8103 -32.9616
      vertex -12 -26.1995 -33.0659
      vertex -12 -25.8103 -32.9616
    endloop
  endfacet
  facet normal 0 0.453992 -0.891006
    outer loop
      vertex -12 -25.4341 -32.8172
      vertex -4.24264 -25.075 -32.6342
      vertex -4.24264 -25.4341 -32.8172
    endloop
  endfacet
  facet normal 0 0.453992 -0.891006
    outer loop
      vertex -4.24264 -25.075 -32.6342
      vertex -12 -25.4341 -32.8172
      vertex -12 -25.075 -32.6342
    endloop
  endfacet
  facet normal 0 -0.629322 -0.777144
    outer loop
      vertex -12 -29.5762 -32.1611
      vertex -4.24264 -29.263 -32.4147
      vertex -4.24264 -29.5762 -32.1611
    endloop
  endfacet
  facet normal -0 -0.629322 -0.777144
    outer loop
      vertex -4.24264 -29.263 -32.4147
      vertex -12 -29.5762 -32.1611
      vertex -12 -29.263 -32.4147
    endloop
  endfacet
  facet normal 0 0.965925 -0.258821
    outer loop
      vertex -4.24264 -23.3384 -30.4897
      vertex -12 -23.2341 -30.1005
      vertex -4.24264 -23.2341 -30.1005
    endloop
  endfacet
  facet normal 0 0.965925 -0.258821
    outer loop
      vertex -12 -23.2341 -30.1005
      vertex -4.24264 -23.3384 -30.4897
      vertex -12 -23.3384 -30.4897
    endloop
  endfacet
  facet normal -1 0 0
    outer loop
      vertex -12.2426 -15 -33.5426
      vertex -12.2426 -7 -25.0574
      vertex -12.2426 -7 -33.5426
    endloop
  endfacet
  facet normal -1 -0 0
    outer loop
      vertex -12.2426 -7 -25.0574
      vertex -12.2426 -15 -33.5426
      vertex -12.2426 -15 -25.0574
    endloop
  endfacet
  facet normal -0 0 1
    outer loop
      vertex -12.2426 -7 -25.0574
      vertex -3.75736 -15 -25.0574
      vertex -3.75736 -7 -25.0574
    endloop
  endfacet
  facet normal 0 0 1
    outer loop
      vertex -3.75736 -15 -25.0574
      vertex -12.2426 -7 -25.0574
      vertex -12.2426 -15 -25.0574
    endloop
  endfacet
  facet normal 0 -1 0
    outer loop
      vertex -12.2426 -15 -25.0574
      vertex -4.24264 -15 -25.0574
      vertex -3.75736 -15 -25.0574
    endloop
  endfacet
  facet normal 0 -1 0
    outer loop
      vertex -12.2426 -15 -25.0574
      vertex -8.5 -15 -27.9
      vertex -4.24264 -15 -25.0574
    endloop
  endfacet
  facet normal 0 -1 0
    outer loop
      vertex -12.2426 -15 -25.0574
      vertex -8.63756 -15 -27.9072
      vertex -8.5 -15 -27.9
    endloop
  endfacet
  facet normal 0 -1 0
    outer loop
      vertex -12.2426 -15 -25.0574
      vertex -8.64634 -15 -27.9077
      vertex -8.63756 -15 -27.9072
    endloop
  endfacet
  facet normal 0 -1 0
    outer loop
      vertex -12.2426 -15 -25.0574
      vertex -8.79108 -15 -27.9306
      vertex -8.64634 -15 -27.9077
    endloop
  endfacet
  facet normal 0 -1 0
    outer loop
      vertex -12.2426 -15 -25.0574
      vertex -8.93262 -15 -27.9685
      vertex -8.79108 -15 -27.9306
    endloop
  endfacet
  facet normal 0 -1 0
    outer loop
      vertex -12.2426 -15 -25.0574
      vertex -9.06943 -15 -28.021
      vertex -8.93262 -15 -27.9685
    endloop
  endfacet
  facet normal 0 -1 0
    outer loop
      vertex -12.2426 -15 -25.0574
      vertex -9.2 -15 -28.0876
      vertex -9.06943 -15 -28.021
    endloop
  endfacet
  facet normal 0 -1 0
    outer loop
      vertex -12.2426 -15 -25.0574
      vertex -9.3229 -15 -28.1674
      vertex -9.2 -15 -28.0876
    endloop
  endfacet
  facet normal 0 -1 0
    outer loop
      vertex -12.2426 -15 -25.0574
      vertex -9.43678 -15 -28.2596
      vertex -9.3229 -15 -28.1674
    endloop
  endfacet
  facet normal 0 -1 0
    outer loop
      vertex -12.2426 -15 -25.0574
      vertex -9.5404 -15 -28.3632
      vertex -9.43678 -15 -28.2596
    endloop
  endfacet
  facet normal 0 -1 0
    outer loop
      vertex -12.2426 -15 -25.0574
      vertex -9.63262 -15 -28.4771
      vertex -9.5404 -15 -28.3632
    endloop
  endfacet
  facet normal 0 -1 0
    outer loop
      vertex -12.2426 -15 -25.0574
      vertex -9.71243 -15 -28.6
      vertex -9.63262 -15 -28.4771
    endloop
  endfacet
  facet normal 0 -1 0
    outer loop
      vertex -12.2426 -15 -25.0574
      vertex -9.77896 -15 -28.7306
      vertex -9.71243 -15 -28.6
    endloop
  endfacet
  facet normal 0 -1 0
    outer loop
      vertex -12.2426 -15 -25.0574
      vertex -9.83148 -15 -28.8674
      vertex -9.77896 -15 -28.7306
    endloop
  endfacet
  facet normal 0 -1 0
    outer loop
      vertex -12.2426 -15 -25.0574
      vertex -9.86941 -15 -29.0089
      vertex -9.83148 -15 -28.8674
    endloop
  endfacet
  facet normal 0 -1 0
    outer loop
      vertex -12.2426 -15 -25.0574
      vertex -9.89233 -15 -29.1537
      vertex -9.86941 -15 -29.0089
    endloop
  endfacet
  facet normal 0 -1 0
    outer loop
      vertex -12.2426 -15 -25.0574
      vertex -9.9 -15 -29.3
      vertex -9.89233 -15 -29.1537
    endloop
  endfacet
  facet normal 0 -1 0
    outer loop
      vertex -12.2426 -15 -33.5426
      vertex -9.9 -15 -29.3
      vertex -12.2426 -15 -25.0574
    endloop
  endfacet
  facet normal 0 -1 -0
    outer loop
      vertex -9.9 -15 -29.3
      vertex -12.2426 -15 -33.5426
      vertex -9.89233 -15 -29.4463
    endloop
  endfacet
  facet normal 0 -1 -0
    outer loop
      vertex -9.89233 -15 -29.4463
      vertex -12.2426 -15 -33.5426
      vertex -9.86941 -15 -29.5911
    endloop
  endfacet
  facet normal 0 -1 -0
    outer loop
      vertex -9.86941 -15 -29.5911
      vertex -12.2426 -15 -33.5426
      vertex -9.83148 -15 -29.7326
    endloop
  endfacet
  facet normal 0 -1 -0
    outer loop
      vertex -9.83148 -15 -29.7326
      vertex -12.2426 -15 -33.5426
      vertex -9.77896 -15 -29.8694
    endloop
  endfacet
  facet normal 0 -1 -0
    outer loop
      vertex -8.63756 -15 -30.6928
      vertex -12.2426 -15 -33.5426
      vertex -8.5 -15 -30.7
    endloop
  endfacet
  facet normal 0 -1 -0
    outer loop
      vertex -8.64634 -15 -30.6923
      vertex -12.2426 -15 -33.5426
      vertex -8.63756 -15 -30.6928
    endloop
  endfacet
  facet normal 0 -1 -0
    outer loop
      vertex -8.79108 -15 -30.6694
      vertex -12.2426 -15 -33.5426
      vertex -8.64634 -15 -30.6923
    endloop
  endfacet
  facet normal 0 -1 -0
    outer loop
      vertex -8.93262 -15 -30.6315
      vertex -12.2426 -15 -33.5426
      vertex -8.79108 -15 -30.6694
    endloop
  endfacet
  facet normal 0 -1 -0
    outer loop
      vertex -9.06943 -15 -30.579
      vertex -12.2426 -15 -33.5426
      vertex -8.93262 -15 -30.6315
    endloop
  endfacet
  facet normal 0 -1 -0
    outer loop
      vertex -9.2 -15 -30.5124
      vertex -12.2426 -15 -33.5426
      vertex -9.06943 -15 -30.579
    endloop
  endfacet
  facet normal 0 -1 -0
    outer loop
      vertex -9.3229 -15 -30.4326
      vertex -12.2426 -15 -33.5426
      vertex -9.2 -15 -30.5124
    endloop
  endfacet
  facet normal 0 -1 -0
    outer loop
      vertex -9.43678 -15 -30.3404
      vertex -12.2426 -15 -33.5426
      vertex -9.3229 -15 -30.4326
    endloop
  endfacet
  facet normal 0 -1 -0
    outer loop
      vertex -9.5404 -15 -30.2368
      vertex -12.2426 -15 -33.5426
      vertex -9.43678 -15 -30.3404
    endloop
  endfacet
  facet normal 0 -1 -0
    outer loop
      vertex -9.63262 -15 -30.1229
      vertex -12.2426 -15 -33.5426
      vertex -9.5404 -15 -30.2368
    endloop
  endfacet
  facet normal 0 -1 -0
    outer loop
      vertex -9.71243 -15 -30
      vertex -12.2426 -15 -33.5426
      vertex -9.63262 -15 -30.1229
    endloop
  endfacet
  facet normal 0 -1 -0
    outer loop
      vertex -9.77896 -15 -29.8694
      vertex -12.2426 -15 -33.5426
      vertex -9.71243 -15 -30
    endloop
  endfacet
  facet normal 0 -1 0
    outer loop
      vertex -8.49122 -15 -27.9005
      vertex -4.24264 -15 -25.0574
      vertex -8.5 -15 -27.9
    endloop
  endfacet
  facet normal 0 -1 0
    outer loop
      vertex -8.35366 -15 -27.9077
      vertex -4.24264 -15 -25.0574
      vertex -8.49122 -15 -27.9005
    endloop
  endfacet
  facet normal 0 -1 0
    outer loop
      vertex -8.20892 -15 -27.9306
      vertex -4.24264 -15 -25.0574
      vertex -8.35366 -15 -27.9077
    endloop
  endfacet
  facet normal 0 -1 0
    outer loop
      vertex -8.06738 -15 -27.9685
      vertex -4.24264 -15 -25.0574
      vertex -8.20892 -15 -27.9306
    endloop
  endfacet
  facet normal 0 -1 0
    outer loop
      vertex -7.93057 -15 -28.021
      vertex -4.24264 -15 -25.0574
      vertex -8.06738 -15 -27.9685
    endloop
  endfacet
  facet normal 0 -1 0
    outer loop
      vertex -7.8 -15 -28.0876
      vertex -4.24264 -15 -25.0574
      vertex -7.93057 -15 -28.021
    endloop
  endfacet
  facet normal 0 -1 0
    outer loop
      vertex -7.6771 -15 -28.1674
      vertex -4.24264 -15 -25.0574
      vertex -7.8 -15 -28.0876
    endloop
  endfacet
  facet normal 0 -1 0
    outer loop
      vertex -7.56322 -15 -28.2596
      vertex -4.24264 -15 -25.0574
      vertex -7.6771 -15 -28.1674
    endloop
  endfacet
  facet normal 0 -1 0
    outer loop
      vertex -7.4596 -15 -28.3632
      vertex -4.24264 -15 -25.0574
      vertex -7.56322 -15 -28.2596
    endloop
  endfacet
  facet normal 0 -1 0
    outer loop
      vertex -7.36738 -15 -28.4771
      vertex -4.24264 -15 -25.0574
      vertex -7.4596 -15 -28.3632
    endloop
  endfacet
  facet normal 0 -1 0
    outer loop
      vertex -7.28756 -15 -28.6
      vertex -4.24264 -15 -25.0574
      vertex -7.36738 -15 -28.4771
    endloop
  endfacet
  facet normal 0 -1 0
    outer loop
      vertex -7.22104 -15 -28.7306
      vertex -4.24264 -15 -25.0574
      vertex -7.28756 -15 -28.6
    endloop
  endfacet
  facet normal 0 -1 0
    outer loop
      vertex -7.16852 -15 -28.8674
      vertex -4.24264 -15 -25.0574
      vertex -7.22104 -15 -28.7306
    endloop
  endfacet
  facet normal 0 -1 0
    outer loop
      vertex -7.13059 -15 -29.0089
      vertex -4.24264 -15 -25.0574
      vertex -7.16852 -15 -28.8674
    endloop
  endfacet
  facet normal 0 -1 0
    outer loop
      vertex -7.10767 -15 -29.1537
      vertex -4.24264 -15 -25.0574
      vertex -7.13059 -15 -29.0089
    endloop
  endfacet
  facet normal 0 -1 0
    outer loop
      vertex -7.1 -15 -29.3
      vertex -4.24264 -15 -25.0574
      vertex -7.10767 -15 -29.1537
    endloop
  endfacet
  facet normal 0 -1 0
    outer loop
      vertex -4.24264 -15 -33.5426
      vertex -7.1 -15 -29.3
      vertex -7.10767 -15 -29.4463
    endloop
  endfacet
  facet normal 0 -1 0
    outer loop
      vertex -4.24264 -15 -33.5426
      vertex -7.10767 -15 -29.4463
      vertex -7.13059 -15 -29.5911
    endloop
  endfacet
  facet normal 0 -1 0
    outer loop
      vertex -4.24264 -15 -33.5426
      vertex -7.13059 -15 -29.5911
      vertex -7.16852 -15 -29.7326
    endloop
  endfacet
  facet normal 0 -1 0
    outer loop
      vertex -4.24264 -15 -33.5426
      vertex -7.16852 -15 -29.7326
      vertex -7.22104 -15 -29.8694
    endloop
  endfacet
  facet normal 0 -1 0
    outer loop
      vertex -4.24264 -15 -33.5426
      vertex -7.22104 -15 -29.8694
      vertex -7.28756 -15 -30
    endloop
  endfacet
  facet normal 0 -1 0
    outer loop
      vertex -12.2426 -15 -33.5426
      vertex -8.49122 -15 -30.6995
      vertex -8.5 -15 -30.7
    endloop
  endfacet
  facet normal 0 -1 0
    outer loop
      vertex -4.24264 -15 -33.5426
      vertex -8.49122 -15 -30.6995
      vertex -12.2426 -15 -33.5426
    endloop
  endfacet
  facet normal 0 -1 0
    outer loop
      vertex -8.49122 -15 -30.6995
      vertex -4.24264 -15 -33.5426
      vertex -8.35366 -15 -30.6923
    endloop
  endfacet
  facet normal 0 -1 0
    outer loop
      vertex -8.35366 -15 -30.6923
      vertex -4.24264 -15 -33.5426
      vertex -8.20892 -15 -30.6694
    endloop
  endfacet
  facet normal 0 -1 0
    outer loop
      vertex -8.20892 -15 -30.6694
      vertex -4.24264 -15 -33.5426
      vertex -8.06738 -15 -30.6315
    endloop
  endfacet
  facet normal 0 -1 0
    outer loop
      vertex -8.06738 -15 -30.6315
      vertex -4.24264 -15 -33.5426
      vertex -7.93057 -15 -30.579
    endloop
  endfacet
  facet normal 0 -1 0
    outer loop
      vertex -7.93057 -15 -30.579
      vertex -4.24264 -15 -33.5426
      vertex -7.8 -15 -30.5124
    endloop
  endfacet
  facet normal 0 -1 0
    outer loop
      vertex -7.1 -15 -29.3
      vertex -4.24264 -15 -33.5426
      vertex -4.24264 -15 -25.0574
    endloop
  endfacet
  facet normal 0 -1 0
    outer loop
      vertex -7.36738 -15 -30.1229
      vertex -4.24264 -15 -33.5426
      vertex -7.28756 -15 -30
    endloop
  endfacet
  facet normal 0 -1 0
    outer loop
      vertex -7.4596 -15 -30.2368
      vertex -4.24264 -15 -33.5426
      vertex -7.36738 -15 -30.1229
    endloop
  endfacet
  facet normal 0 -1 0
    outer loop
      vertex -7.56322 -15 -30.3404
      vertex -4.24264 -15 -33.5426
      vertex -7.4596 -15 -30.2368
    endloop
  endfacet
  facet normal 0 -1 0
    outer loop
      vertex -7.6771 -15 -30.4326
      vertex -4.24264 -15 -33.5426
      vertex -7.56322 -15 -30.3404
    endloop
  endfacet
  facet normal 0 -1 0
    outer loop
      vertex -7.8 -15 -30.5124
      vertex -4.24264 -15 -33.5426
      vertex -7.6771 -15 -30.4326
    endloop
  endfacet
  facet normal 0 0 0
    outer loop
      vertex -4.24264 -15 -33.5426
      vertex -12.2426 -15 -33.5426
      vertex -3.75736 -15 -33.5426
    endloop
  endfacet
  facet normal 0 0 -1
    outer loop
      vertex -12.2426 -15 -33.5426
      vertex -3.75736 -7 -33.5426
      vertex -3.75736 -15 -33.5426
    endloop
  endfacet
  facet normal -0 0 -1
    outer loop
      vertex -3.75736 -7 -33.5426
      vertex -12.2426 -15 -33.5426
      vertex -12.2426 -7 -33.5426
    endloop
  endfacet
  facet normal -0.0523473 0 0.998629
    outer loop
      vertex -8.4678 -7 -30.6983
      vertex -8.35366 -15 -30.6923
      vertex -8.35366 -7 -30.6923
    endloop
  endfacet
  facet normal -0.0523404 9.83739e-008 0.998629
    outer loop
      vertex -8.35366 -15 -30.6923
      vertex -8.4678 -7 -30.6983
      vertex -8.49122 -15 -30.6995
    endloop
  endfacet
  facet normal -0.156425 0 0.98769
    outer loop
      vertex -8.35366 -7 -30.6923
      vertex -8.20892 -15 -30.6694
      vertex -8.20892 -7 -30.6694
    endloop
  endfacet
  facet normal -0.156425 0 0.98769
    outer loop
      vertex -8.20892 -15 -30.6694
      vertex -8.35366 -7 -30.6923
      vertex -8.35366 -15 -30.6923
    endloop
  endfacet
  facet normal -0.0523585 1.51513e-007 0.998628
    outer loop
      vertex -8.5 -7 -30.7
      vertex -8.49122 -15 -30.6995
      vertex -8.4678 -7 -30.6983
    endloop
  endfacet
  facet normal -0.0524962 0 0.998621
    outer loop
      vertex -8.49122 -15 -30.6995
      vertex -8.5 -7 -30.7
      vertex -8.5 -15 -30.7
    endloop
  endfacet
  facet normal 0.0523302 0 -0.99863
    outer loop
      vertex -8.5 -15 -27.9
      vertex -8.61414 -7 -27.906
      vertex -8.5 -7 -27.9
    endloop
  endfacet
  facet normal 0.0523401 1.4078e-007 -0.998629
    outer loop
      vertex -8.61414 -7 -27.906
      vertex -8.5 -15 -27.9
      vertex -8.63756 -15 -27.9072
    endloop
  endfacet
  facet normal 0.156425 0 -0.98769
    outer loop
      vertex -8.79108 -15 -27.9306
      vertex -8.64634 -7 -27.9077
      vertex -8.64634 -15 -27.9077
    endloop
  endfacet
  facet normal 0.156425 0 -0.98769
    outer loop
      vertex -8.64634 -7 -27.9077
      vertex -8.79108 -15 -27.9306
      vertex -8.79108 -7 -27.9306
    endloop
  endfacet
  facet normal -0.998629 0 -0.0523368
    outer loop
      vertex -7.1 -15 -29.3
      vertex -7.10767 -7 -29.1537
      vertex -7.1 -7 -29.3
    endloop
  endfacet
  facet normal -0.998629 -0 -0.0523368
    outer loop
      vertex -7.10767 -7 -29.1537
      vertex -7.1 -15 -29.3
      vertex -7.10767 -15 -29.1537
    endloop
  endfacet
  facet normal 0.998629 -0 0.0523368
    outer loop
      vertex -9.9 -15 -29.3
      vertex -9.89233 -7 -29.4463
      vertex -9.9 -7 -29.3
    endloop
  endfacet
  facet normal 0.998629 0 0.0523368
    outer loop
      vertex -9.89233 -7 -29.4463
      vertex -9.9 -15 -29.3
      vertex -9.89233 -15 -29.4463
    endloop
  endfacet
  facet normal -0.777147 0 0.62932
    outer loop
      vertex -7.4596 -15 -30.2368
      vertex -7.36738 -7 -30.1229
      vertex -7.4596 -7 -30.2368
    endloop
  endfacet
  facet normal -0.777147 0 0.62932
    outer loop
      vertex -7.36738 -7 -30.1229
      vertex -7.4596 -15 -30.2368
      vertex -7.36738 -15 -30.1229
    endloop
  endfacet
  facet normal -0.987688 0 -0.156436
    outer loop
      vertex -7.10767 -15 -29.1537
      vertex -7.13059 -7 -29.0089
      vertex -7.10767 -7 -29.1537
    endloop
  endfacet
  facet normal -0.987688 -0 -0.156436
    outer loop
      vertex -7.13059 -7 -29.0089
      vertex -7.10767 -15 -29.1537
      vertex -7.13059 -15 -29.0089
    endloop
  endfacet
  facet normal -0.0522799 -3.17457e-007 -0.998632
    outer loop
      vertex -8.5 -15 -27.9
      vertex -8.4678 -7 -27.9017
      vertex -8.49122 -15 -27.9005
    endloop
  endfacet
  facet normal -0.0523585 0 -0.998628
    outer loop
      vertex -8.4678 -7 -27.9017
      vertex -8.5 -15 -27.9
      vertex -8.5 -7 -27.9
    endloop
  endfacet
  facet normal 0.629316 0 0.77715
    outer loop
      vertex -9.43678 -7 -30.3404
      vertex -9.3229 -15 -30.4326
      vertex -9.3229 -7 -30.4326
    endloop
  endfacet
  facet normal 0.629316 0 0.77715
    outer loop
      vertex -9.3229 -15 -30.4326
      vertex -9.43678 -7 -30.3404
      vertex -9.43678 -15 -30.3404
    endloop
  endfacet
  facet normal 0.258832 0 0.965922
    outer loop
      vertex -8.93262 -7 -30.6315
      vertex -8.79108 -15 -30.6694
      vertex -8.79108 -7 -30.6694
    endloop
  endfacet
  facet normal 0.258832 0 0.965922
    outer loop
      vertex -8.79108 -15 -30.6694
      vertex -8.93262 -7 -30.6315
      vertex -8.93262 -15 -30.6315
    endloop
  endfacet
  facet normal 0.891007 0 -0.45399
    outer loop
      vertex -9.71243 -15 -28.6
      vertex -9.77896 -7 -28.7306
      vertex -9.71243 -7 -28.6
    endloop
  endfacet
  facet normal 0.891007 0 -0.45399
    outer loop
      vertex -9.77896 -7 -28.7306
      vertex -9.71243 -15 -28.6
      vertex -9.77896 -15 -28.7306
    endloop
  endfacet
  facet normal 0.707104 0 -0.70711
    outer loop
      vertex -9.5404 -15 -28.3632
      vertex -9.43678 -7 -28.2596
      vertex -9.43678 -15 -28.2596
    endloop
  endfacet
  facet normal 0.707104 0 -0.70711
    outer loop
      vertex -9.43678 -7 -28.2596
      vertex -9.5404 -15 -28.3632
      vertex -9.5404 -7 -28.3632
    endloop
  endfacet
  facet normal 0.629324 0 -0.777143
    outer loop
      vertex -9.43678 -15 -28.2596
      vertex -9.3229 -7 -28.1674
      vertex -9.3229 -15 -28.1674
    endloop
  endfacet
  facet normal 0.629324 0 -0.777143
    outer loop
      vertex -9.3229 -7 -28.1674
      vertex -9.43678 -15 -28.2596
      vertex -9.43678 -7 -28.2596
    endloop
  endfacet
  facet normal -0.629316 0 0.77715
    outer loop
      vertex -7.6771 -7 -30.4326
      vertex -7.56322 -15 -30.3404
      vertex -7.56322 -7 -30.3404
    endloop
  endfacet
  facet normal -0.629316 0 0.77715
    outer loop
      vertex -7.56322 -15 -30.3404
      vertex -7.6771 -7 -30.4326
      vertex -7.6771 -15 -30.4326
    endloop
  endfacet
  facet normal -0.83867 0 0.54464
    outer loop
      vertex -7.36738 -15 -30.1229
      vertex -7.28756 -7 -30
      vertex -7.36738 -7 -30.1229
    endloop
  endfacet
  facet normal -0.83867 0 0.54464
    outer loop
      vertex -7.28756 -7 -30
      vertex -7.36738 -15 -30.1229
      vertex -7.28756 -15 -30
    endloop
  endfacet
  facet normal -0.258832 0 -0.965922
    outer loop
      vertex -8.20892 -15 -27.9306
      vertex -8.06738 -7 -27.9685
      vertex -8.06738 -15 -27.9685
    endloop
  endfacet
  facet normal -0.258832 0 -0.965922
    outer loop
      vertex -8.06738 -7 -27.9685
      vertex -8.20892 -15 -27.9306
      vertex -8.20892 -7 -27.9306
    endloop
  endfacet
  facet normal -0.965928 0 -0.258812
    outer loop
      vertex -7.13059 -15 -29.0089
      vertex -7.16852 -7 -28.8674
      vertex -7.13059 -7 -29.0089
    endloop
  endfacet
  facet normal -0.965928 -0 -0.258812
    outer loop
      vertex -7.16852 -7 -28.8674
      vertex -7.13059 -15 -29.0089
      vertex -7.16852 -15 -28.8674
    endloop
  endfacet
  facet normal 0.156425 0 0.98769
    outer loop
      vertex -8.79108 -7 -30.6694
      vertex -8.64634 -15 -30.6923
      vertex -8.64634 -7 -30.6923
    endloop
  endfacet
  facet normal 0.156425 0 0.98769
    outer loop
      vertex -8.64634 -15 -30.6923
      vertex -8.79108 -7 -30.6694
      vertex -8.79108 -15 -30.6694
    endloop
  endfacet
  facet normal 0.891007 -0 0.45399
    outer loop
      vertex -9.77896 -15 -29.8694
      vertex -9.71243 -7 -30
      vertex -9.77896 -7 -29.8694
    endloop
  endfacet
  facet normal 0.891007 0 0.45399
    outer loop
      vertex -9.71243 -7 -30
      vertex -9.77896 -15 -29.8694
      vertex -9.71243 -15 -30
    endloop
  endfacet
  facet normal 0.965928 0 -0.258812
    outer loop
      vertex -9.83148 -15 -28.8674
      vertex -9.86941 -7 -29.0089
      vertex -9.83148 -7 -28.8674
    endloop
  endfacet
  facet normal 0.965928 0 -0.258812
    outer loop
      vertex -9.86941 -7 -29.0089
      vertex -9.83148 -15 -28.8674
      vertex -9.86941 -15 -29.0089
    endloop
  endfacet
  facet normal 0.777147 0 -0.62932
    outer loop
      vertex -9.5404 -15 -28.3632
      vertex -9.63262 -7 -28.4771
      vertex -9.5404 -7 -28.3632
    endloop
  endfacet
  facet normal 0.777147 0 -0.62932
    outer loop
      vertex -9.63262 -7 -28.4771
      vertex -9.5404 -15 -28.3632
      vertex -9.63262 -15 -28.4771
    endloop
  endfacet
  facet normal 0.933578 0 -0.358373
    outer loop
      vertex -9.77896 -15 -28.7306
      vertex -9.83148 -7 -28.8674
      vertex -9.77896 -7 -28.7306
    endloop
  endfacet
  facet normal 0.933578 0 -0.358373
    outer loop
      vertex -9.83148 -7 -28.8674
      vertex -9.77896 -15 -28.7306
      vertex -9.83148 -15 -28.8674
    endloop
  endfacet
  facet normal 0.453979 0 -0.891012
    outer loop
      vertex -9.2 -15 -28.0876
      vertex -9.06943 -7 -28.021
      vertex -9.06943 -15 -28.021
    endloop
  endfacet
  facet normal 0.453979 0 -0.891012
    outer loop
      vertex -9.06943 -7 -28.021
      vertex -9.2 -15 -28.0876
      vertex -9.2 -7 -28.0876
    endloop
  endfacet
  facet normal 0.0522799 3.17457e-007 -0.998632
    outer loop
      vertex -8.64634 -15 -27.9077
      vertex -8.61414 -7 -27.906
      vertex -8.63756 -15 -27.9072
    endloop
  endfacet
  facet normal 0.0523585 0 -0.998628
    outer loop
      vertex -8.61414 -7 -27.906
      vertex -8.64634 -15 -27.9077
      vertex -8.64634 -7 -27.9077
    endloop
  endfacet
  facet normal -0.258832 0 0.965922
    outer loop
      vertex -8.20892 -7 -30.6694
      vertex -8.06738 -15 -30.6315
      vertex -8.06738 -7 -30.6315
    endloop
  endfacet
  facet normal -0.258832 0 0.965922
    outer loop
      vertex -8.06738 -15 -30.6315
      vertex -8.20892 -7 -30.6694
      vertex -8.20892 -15 -30.6694
    endloop
  endfacet
  facet normal -0.358354 0 0.933586
    outer loop
      vertex -8.06738 -7 -30.6315
      vertex -7.93057 -15 -30.579
      vertex -7.93057 -7 -30.579
    endloop
  endfacet
  facet normal -0.358354 0 0.933586
    outer loop
      vertex -7.93057 -15 -30.579
      vertex -8.06738 -7 -30.6315
      vertex -8.06738 -15 -30.6315
    endloop
  endfacet
  facet normal -0.45399 0 0.891007
    outer loop
      vertex -7.93057 -7 -30.579
      vertex -7.8 -15 -30.5124
      vertex -7.8 -7 -30.5124
    endloop
  endfacet
  facet normal -0.45399 0 0.891007
    outer loop
      vertex -7.8 -15 -30.5124
      vertex -7.93057 -7 -30.579
      vertex -7.93057 -15 -30.579
    endloop
  endfacet
  facet normal -0.70711 0 0.707104
    outer loop
      vertex -7.56322 -15 -30.3404
      vertex -7.4596 -7 -30.2368
      vertex -7.56322 -7 -30.3404
    endloop
  endfacet
  facet normal -0.70711 0 0.707104
    outer loop
      vertex -7.4596 -7 -30.2368
      vertex -7.56322 -15 -30.3404
      vertex -7.4596 -15 -30.2368
    endloop
  endfacet
  facet normal -0.544646 0 0.838666
    outer loop
      vertex -7.8 -7 -30.5124
      vertex -7.6771 -15 -30.4326
      vertex -7.6771 -7 -30.4326
    endloop
  endfacet
  facet normal -0.544646 0 0.838666
    outer loop
      vertex -7.6771 -15 -30.4326
      vertex -7.8 -7 -30.5124
      vertex -7.8 -15 -30.5124
    endloop
  endfacet
  facet normal -0.998629 0 0.0523368
    outer loop
      vertex -7.10767 -15 -29.4463
      vertex -7.1 -7 -29.3
      vertex -7.10767 -7 -29.4463
    endloop
  endfacet
  facet normal -0.998629 0 0.0523368
    outer loop
      vertex -7.1 -7 -29.3
      vertex -7.10767 -15 -29.4463
      vertex -7.1 -15 -29.3
    endloop
  endfacet
  facet normal -0.987688 0 0.156436
    outer loop
      vertex -7.13059 -15 -29.5911
      vertex -7.10767 -7 -29.4463
      vertex -7.13059 -7 -29.5911
    endloop
  endfacet
  facet normal -0.987688 0 0.156436
    outer loop
      vertex -7.10767 -7 -29.4463
      vertex -7.13059 -15 -29.5911
      vertex -7.10767 -15 -29.4463
    endloop
  endfacet
  facet normal -0.0523307 0 -0.99863
    outer loop
      vertex -8.35366 -15 -27.9077
      vertex -8.4678 -7 -27.9017
      vertex -8.35366 -7 -27.9077
    endloop
  endfacet
  facet normal -0.0523404 -1.39718e-007 -0.998629
    outer loop
      vertex -8.4678 -7 -27.9017
      vertex -8.35366 -15 -27.9077
      vertex -8.49122 -15 -27.9005
    endloop
  endfacet
  facet normal -0.629324 0 -0.777143
    outer loop
      vertex -7.6771 -15 -28.1674
      vertex -7.56322 -7 -28.2596
      vertex -7.56322 -15 -28.2596
    endloop
  endfacet
  facet normal -0.629324 0 -0.777143
    outer loop
      vertex -7.56322 -7 -28.2596
      vertex -7.6771 -15 -28.1674
      vertex -7.6771 -7 -28.1674
    endloop
  endfacet
  facet normal 0.987688 -0 0.156436
    outer loop
      vertex -9.89233 -15 -29.4463
      vertex -9.86941 -7 -29.5911
      vertex -9.89233 -7 -29.4463
    endloop
  endfacet
  facet normal 0.987688 0 0.156436
    outer loop
      vertex -9.86941 -7 -29.5911
      vertex -9.89233 -15 -29.4463
      vertex -9.86941 -15 -29.5911
    endloop
  endfacet
  facet normal 0.965928 -0 0.258812
    outer loop
      vertex -9.86941 -15 -29.5911
      vertex -9.83148 -7 -29.7326
      vertex -9.86941 -7 -29.5911
    endloop
  endfacet
  facet normal 0.965928 0 0.258812
    outer loop
      vertex -9.83148 -7 -29.7326
      vertex -9.86941 -15 -29.5911
      vertex -9.83148 -15 -29.7326
    endloop
  endfacet
  facet normal 0.933578 -0 0.358373
    outer loop
      vertex -9.83148 -15 -29.7326
      vertex -9.77896 -7 -29.8694
      vertex -9.83148 -7 -29.7326
    endloop
  endfacet
  facet normal 0.933578 0 0.358373
    outer loop
      vertex -9.77896 -7 -29.8694
      vertex -9.83148 -15 -29.7326
      vertex -9.77896 -15 -29.8694
    endloop
  endfacet
  facet normal 0.777147 -0 0.62932
    outer loop
      vertex -9.63262 -15 -30.1229
      vertex -9.5404 -7 -30.2368
      vertex -9.63262 -7 -30.1229
    endloop
  endfacet
  facet normal 0.777147 0 0.62932
    outer loop
      vertex -9.5404 -7 -30.2368
      vertex -9.63262 -15 -30.1229
      vertex -9.5404 -15 -30.2368
    endloop
  endfacet
  facet normal 0.70711 -0 0.707104
    outer loop
      vertex -9.5404 -15 -30.2368
      vertex -9.43678 -7 -30.3404
      vertex -9.5404 -7 -30.2368
    endloop
  endfacet
  facet normal 0.70711 0 0.707104
    outer loop
      vertex -9.43678 -7 -30.3404
      vertex -9.5404 -15 -30.2368
      vertex -9.43678 -15 -30.3404
    endloop
  endfacet
  facet normal 0.83867 -0 0.54464
    outer loop
      vertex -9.71243 -15 -30
      vertex -9.63262 -7 -30.1229
      vertex -9.71243 -7 -30
    endloop
  endfacet
  facet normal 0.83867 0 0.54464
    outer loop
      vertex -9.63262 -7 -30.1229
      vertex -9.71243 -15 -30
      vertex -9.63262 -15 -30.1229
    endloop
  endfacet
  facet normal 0.544646 0 0.838666
    outer loop
      vertex -9.3229 -7 -30.4326
      vertex -9.2 -15 -30.5124
      vertex -9.2 -7 -30.5124
    endloop
  endfacet
  facet normal 0.544646 0 0.838666
    outer loop
      vertex -9.2 -15 -30.5124
      vertex -9.3229 -7 -30.4326
      vertex -9.3229 -15 -30.4326
    endloop
  endfacet
  facet normal 0.45399 0 0.891007
    outer loop
      vertex -9.2 -7 -30.5124
      vertex -9.06943 -15 -30.579
      vertex -9.06943 -7 -30.579
    endloop
  endfacet
  facet normal 0.45399 0 0.891007
    outer loop
      vertex -9.06943 -15 -30.579
      vertex -9.2 -7 -30.5124
      vertex -9.2 -15 -30.5124
    endloop
  endfacet
  facet normal 0.358354 0 0.933586
    outer loop
      vertex -9.06943 -7 -30.579
      vertex -8.93262 -15 -30.6315
      vertex -8.93262 -7 -30.6315
    endloop
  endfacet
  facet normal 0.358354 0 0.933586
    outer loop
      vertex -8.93262 -15 -30.6315
      vertex -9.06943 -7 -30.579
      vertex -9.06943 -15 -30.579
    endloop
  endfacet
  facet normal 0.0523585 -1.51513e-007 0.998628
    outer loop
      vertex -8.64634 -7 -30.6923
      vertex -8.63756 -15 -30.6928
      vertex -8.61414 -7 -30.694
    endloop
  endfacet
  facet normal 0.0524962 0 0.998621
    outer loop
      vertex -8.63756 -15 -30.6928
      vertex -8.64634 -7 -30.6923
      vertex -8.64634 -15 -30.6923
    endloop
  endfacet
  facet normal 0.0523469 0 0.998629
    outer loop
      vertex -8.61414 -7 -30.694
      vertex -8.5 -15 -30.7
      vertex -8.5 -7 -30.7
    endloop
  endfacet
  facet normal 0.0523401 -9.73119e-008 0.998629
    outer loop
      vertex -8.5 -15 -30.7
      vertex -8.61414 -7 -30.694
      vertex -8.63756 -15 -30.6928
    endloop
  endfacet
  facet normal 0.83867 0 -0.54464
    outer loop
      vertex -9.63262 -15 -28.4771
      vertex -9.71243 -7 -28.6
      vertex -9.63262 -7 -28.4771
    endloop
  endfacet
  facet normal 0.83867 0 -0.54464
    outer loop
      vertex -9.71243 -7 -28.6
      vertex -9.63262 -15 -28.4771
      vertex -9.71243 -15 -28.6
    endloop
  endfacet
  facet normal 0.987688 0 -0.156436
    outer loop
      vertex -9.86941 -15 -29.0089
      vertex -9.89233 -7 -29.1537
      vertex -9.86941 -7 -29.0089
    endloop
  endfacet
  facet normal 0.987688 0 -0.156436
    outer loop
      vertex -9.89233 -7 -29.1537
      vertex -9.86941 -15 -29.0089
      vertex -9.89233 -15 -29.1537
    endloop
  endfacet
  facet normal 0.998629 0 -0.0523368
    outer loop
      vertex -9.89233 -15 -29.1537
      vertex -9.9 -7 -29.3
      vertex -9.89233 -7 -29.1537
    endloop
  endfacet
  facet normal 0.998629 0 -0.0523368
    outer loop
      vertex -9.9 -7 -29.3
      vertex -9.89233 -15 -29.1537
      vertex -9.9 -15 -29.3
    endloop
  endfacet
  facet normal 0.258832 0 -0.965922
    outer loop
      vertex -8.93262 -15 -27.9685
      vertex -8.79108 -7 -27.9306
      vertex -8.79108 -15 -27.9306
    endloop
  endfacet
  facet normal 0.258832 0 -0.965922
    outer loop
      vertex -8.79108 -7 -27.9306
      vertex -8.93262 -15 -27.9685
      vertex -8.93262 -7 -27.9685
    endloop
  endfacet
  facet normal 0.358365 0 -0.933581
    outer loop
      vertex -9.06943 -15 -28.021
      vertex -8.93262 -7 -27.9685
      vertex -8.93262 -15 -27.9685
    endloop
  endfacet
  facet normal 0.358365 0 -0.933581
    outer loop
      vertex -8.93262 -7 -27.9685
      vertex -9.06943 -15 -28.021
      vertex -9.06943 -7 -28.021
    endloop
  endfacet
  facet normal 0.544646 0 -0.838666
    outer loop
      vertex -9.3229 -15 -28.1674
      vertex -9.2 -7 -28.0876
      vertex -9.2 -15 -28.0876
    endloop
  endfacet
  facet normal 0.544646 0 -0.838666
    outer loop
      vertex -9.2 -7 -28.0876
      vertex -9.3229 -15 -28.1674
      vertex -9.3229 -7 -28.1674
    endloop
  endfacet
  facet normal -0.891007 0 0.45399
    outer loop
      vertex -7.28756 -15 -30
      vertex -7.22104 -7 -29.8694
      vertex -7.28756 -7 -30
    endloop
  endfacet
  facet normal -0.891007 0 0.45399
    outer loop
      vertex -7.22104 -7 -29.8694
      vertex -7.28756 -15 -30
      vertex -7.22104 -15 -29.8694
    endloop
  endfacet
  facet normal -0.965928 0 0.258812
    outer loop
      vertex -7.16852 -15 -29.7326
      vertex -7.13059 -7 -29.5911
      vertex -7.16852 -7 -29.7326
    endloop
  endfacet
  facet normal -0.965928 0 0.258812
    outer loop
      vertex -7.13059 -7 -29.5911
      vertex -7.16852 -15 -29.7326
      vertex -7.13059 -15 -29.5911
    endloop
  endfacet
  facet normal -0.933578 0 -0.358373
    outer loop
      vertex -7.16852 -15 -28.8674
      vertex -7.22104 -7 -28.7306
      vertex -7.16852 -7 -28.8674
    endloop
  endfacet
  facet normal -0.933578 -0 -0.358373
    outer loop
      vertex -7.22104 -7 -28.7306
      vertex -7.16852 -15 -28.8674
      vertex -7.22104 -15 -28.7306
    endloop
  endfacet
  facet normal -0.777147 0 -0.62932
    outer loop
      vertex -7.36738 -15 -28.4771
      vertex -7.4596 -7 -28.3632
      vertex -7.36738 -7 -28.4771
    endloop
  endfacet
  facet normal -0.777147 -0 -0.62932
    outer loop
      vertex -7.4596 -7 -28.3632
      vertex -7.36738 -15 -28.4771
      vertex -7.4596 -15 -28.3632
    endloop
  endfacet
  facet normal -0.358365 0 -0.933581
    outer loop
      vertex -8.06738 -15 -27.9685
      vertex -7.93057 -7 -28.021
      vertex -7.93057 -15 -28.021
    endloop
  endfacet
  facet normal -0.358365 0 -0.933581
    outer loop
      vertex -7.93057 -7 -28.021
      vertex -8.06738 -15 -27.9685
      vertex -8.06738 -7 -27.9685
    endloop
  endfacet
  facet normal -0.544646 0 -0.838666
    outer loop
      vertex -7.8 -15 -28.0876
      vertex -7.6771 -7 -28.1674
      vertex -7.6771 -15 -28.1674
    endloop
  endfacet
  facet normal -0.544646 0 -0.838666
    outer loop
      vertex -7.6771 -7 -28.1674
      vertex -7.8 -15 -28.0876
      vertex -7.8 -7 -28.0876
    endloop
  endfacet
  facet normal -0.453979 0 -0.891012
    outer loop
      vertex -7.93057 -15 -28.021
      vertex -7.8 -7 -28.0876
      vertex -7.8 -15 -28.0876
    endloop
  endfacet
  facet normal -0.453979 0 -0.891012
    outer loop
      vertex -7.8 -7 -28.0876
      vertex -7.93057 -15 -28.021
      vertex -7.93057 -7 -28.021
    endloop
  endfacet
  facet normal -0.707104 0 -0.70711
    outer loop
      vertex -7.56322 -15 -28.2596
      vertex -7.4596 -7 -28.3632
      vertex -7.4596 -15 -28.3632
    endloop
  endfacet
  facet normal -0.707104 0 -0.70711
    outer loop
      vertex -7.4596 -7 -28.3632
      vertex -7.56322 -15 -28.2596
      vertex -7.56322 -7 -28.2596
    endloop
  endfacet
  facet normal -0.156425 0 -0.98769
    outer loop
      vertex -8.35366 -15 -27.9077
      vertex -8.20892 -7 -27.9306
      vertex -8.20892 -15 -27.9306
    endloop
  endfacet
  facet normal -0.156425 0 -0.98769
    outer loop
      vertex -8.20892 -7 -27.9306
      vertex -8.35366 -15 -27.9077
      vertex -8.35366 -7 -27.9077
    endloop
  endfacet
  facet normal -0.933578 0 0.358373
    outer loop
      vertex -7.22104 -15 -29.8694
      vertex -7.16852 -7 -29.7326
      vertex -7.22104 -7 -29.8694
    endloop
  endfacet
  facet normal -0.933578 0 0.358373
    outer loop
      vertex -7.16852 -7 -29.7326
      vertex -7.22104 -15 -29.8694
      vertex -7.16852 -15 -29.7326
    endloop
  endfacet
  facet normal -0.891007 0 -0.45399
    outer loop
      vertex -7.22104 -15 -28.7306
      vertex -7.28756 -7 -28.6
      vertex -7.22104 -7 -28.7306
    endloop
  endfacet
  facet normal -0.891007 -0 -0.45399
    outer loop
      vertex -7.28756 -7 -28.6
      vertex -7.22104 -15 -28.7306
      vertex -7.28756 -15 -28.6
    endloop
  endfacet
  facet normal -0.83867 0 -0.54464
    outer loop
      vertex -7.28756 -15 -28.6
      vertex -7.36738 -7 -28.4771
      vertex -7.28756 -7 -28.6
    endloop
  endfacet
  facet normal -0.83867 -0 -0.54464
    outer loop
      vertex -7.36738 -7 -28.4771
      vertex -7.28756 -15 -28.6
      vertex -7.36738 -15 -28.4771
    endloop
  endfacet
endsolid OpenSCAD_Model
