  0
SECTION
  2
BLOCKS
  0
ENDSEC
  0
SECTION
  2
ENTITIES
  0
LINE
  8
0
 10
581.75
 20
305
 11
-2.75
 21
305
  0
LINE
  8
0
 10
-2.75
 20
305
 11
-2.75
 21
-25
  0
LINE
  8
0
 10
-2.75
 20
-25
 11
581.75
 21
-25
  0
LINE
  8
0
 10
581.75
 20
-25
 11
581.75
 21
305
  0
LINE
  8
0
 10
2.10796
 20
285.089
 11
2.10796
 21
292.911
  0
LINE
  8
0
 10
2.10796
 20
292.911
 11
3.5327
 21
294.047
  0
LINE
  8
0
 10
3.5327
 20
294.047
 11
5.30933
 21
293.642
  0
LINE
  8
0
 10
5.30933
 20
293.642
 11
6.09999
 21
292
  0
LINE
  8
0
 10
6.09999
 20
292
 11
5.85921
 21
291.5
  0
LINE
  8
0
 10
5.85921
 20
291.5
 11
6.09999
 21
291
  0
LINE
  8
0
 10
6.09999
 20
291
 11
5.85921
 21
290.5
  0
LINE
  8
0
 10
5.85921
 20
290.5
 11
6.09999
 21
290
  0
LINE
  8
0
 10
6.09999
 20
290
 11
5.85921
 21
289.5
  0
LINE
  8
0
 10
5.85921
 20
289.5
 11
6.09999
 21
289
  0
LINE
  8
0
 10
6.09999
 20
289
 11
5.85921
 21
288.5
  0
LINE
  8
0
 10
5.85921
 20
288.5
 11
6.09999
 21
288
  0
LINE
  8
0
 10
6.09999
 20
288
 11
5.85921
 21
287.5
  0
LINE
  8
0
 10
5.85921
 20
287.5
 11
6.09999
 21
287
  0
LINE
  8
0
 10
6.09999
 20
287
 11
5.85921
 21
286.5
  0
LINE
  8
0
 10
5.85921
 20
286.5
 11
6.09999
 21
286
  0
LINE
  8
0
 10
6.09999
 20
286
 11
5.30933
 21
284.358
  0
LINE
  8
0
 10
5.30933
 20
284.358
 11
3.5327
 21
283.953
  0
LINE
  8
0
 10
3.5327
 20
283.953
 11
2.10796
 21
285.089
  0
LINE
  8
0
 10
573.108
 20
285.089
 11
573.108
 21
292.911
  0
LINE
  8
0
 10
573.108
 20
292.911
 11
574.533
 21
294.047
  0
LINE
  8
0
 10
574.533
 20
294.047
 11
576.309
 21
293.642
  0
LINE
  8
0
 10
576.309
 20
293.642
 11
577.1
 21
292
  0
LINE
  8
0
 10
577.1
 20
292
 11
576.859
 21
291.5
  0
LINE
  8
0
 10
576.859
 20
291.5
 11
577.1
 21
291
  0
LINE
  8
0
 10
577.1
 20
291
 11
576.859
 21
290.5
  0
LINE
  8
0
 10
576.859
 20
290.5
 11
577.1
 21
290
  0
LINE
  8
0
 10
577.1
 20
290
 11
576.859
 21
289.5
  0
LINE
  8
0
 10
576.859
 20
289.5
 11
577.1
 21
289
  0
LINE
  8
0
 10
577.1
 20
289
 11
576.859
 21
288.5
  0
LINE
  8
0
 10
576.859
 20
288.5
 11
577.1
 21
288
  0
LINE
  8
0
 10
577.1
 20
288
 11
576.859
 21
287.5
  0
LINE
  8
0
 10
576.859
 20
287.5
 11
577.1
 21
287
  0
LINE
  8
0
 10
577.1
 20
287
 11
576.859
 21
286.5
  0
LINE
  8
0
 10
576.859
 20
286.5
 11
577.1
 21
286
  0
LINE
  8
0
 10
577.1
 20
286
 11
576.309
 21
284.358
  0
LINE
  8
0
 10
576.309
 20
284.358
 11
574.533
 21
283.953
  0
LINE
  8
0
 10
574.533
 20
283.953
 11
573.108
 21
285.089
  0
LINE
  8
0
 10
552.367
 20
263.177
 11
552.367
 21
264.823
  0
LINE
  8
0
 10
552.367
 20
264.823
 11
553.933
 21
265.331
  0
LINE
  8
0
 10
553.933
 20
265.331
 11
554.9
 21
264
  0
LINE
  8
0
 10
554.9
 20
264
 11
553.933
 21
262.669
  0
LINE
  8
0
 10
553.933
 20
262.669
 11
552.367
 21
263.177
  0
LINE
  8
0
 10
25.3674
 20
251.177
 11
25.3674
 21
252.823
  0
LINE
  8
0
 10
25.3674
 20
252.823
 11
26.9326
 21
253.331
  0
LINE
  8
0
 10
26.9326
 20
253.331
 11
27.9
 21
252
  0
LINE
  8
0
 10
27.9
 20
252
 11
26.9326
 21
250.669
  0
LINE
  8
0
 10
26.9326
 20
250.669
 11
25.3674
 21
251.177
  0
LINE
  8
0
 10
552.367
 20
215.177
 11
552.367
 21
216.823
  0
LINE
  8
0
 10
552.367
 20
216.823
 11
553.933
 21
217.331
  0
LINE
  8
0
 10
553.933
 20
217.331
 11
554.9
 21
216
  0
LINE
  8
0
 10
554.9
 20
216
 11
553.933
 21
214.669
  0
LINE
  8
0
 10
553.933
 20
214.669
 11
552.367
 21
215.177
  0
LINE
  8
0
 10
25.3674
 20
206.177
 11
25.3674
 21
207.823
  0
LINE
  8
0
 10
25.3674
 20
207.823
 11
26.9326
 21
208.331
  0
LINE
  8
0
 10
26.9326
 20
208.331
 11
27.9
 21
207
  0
LINE
  8
0
 10
27.9
 20
207
 11
26.9326
 21
205.669
  0
LINE
  8
0
 10
26.9326
 20
205.669
 11
25.3674
 21
206.177
  0
LINE
  8
0
 10
573.108
 20
134.089
 11
573.108
 21
141.911
  0
LINE
  8
0
 10
573.108
 20
141.911
 11
574.533
 21
143.047
  0
LINE
  8
0
 10
574.533
 20
143.047
 11
576.309
 21
142.642
  0
LINE
  8
0
 10
576.309
 20
142.642
 11
577.1
 21
141
  0
LINE
  8
0
 10
577.1
 20
141
 11
576.859
 21
140.5
  0
LINE
  8
0
 10
576.859
 20
140.5
 11
577.1
 21
140
  0
LINE
  8
0
 10
577.1
 20
140
 11
576.859
 21
139.5
  0
LINE
  8
0
 10
576.859
 20
139.5
 11
577.1
 21
139
  0
LINE
  8
0
 10
577.1
 20
139
 11
576.859
 21
138.5
  0
LINE
  8
0
 10
576.859
 20
138.5
 11
577.1
 21
138
  0
LINE
  8
0
 10
577.1
 20
138
 11
576.859
 21
137.5
  0
LINE
  8
0
 10
576.859
 20
137.5
 11
577.1
 21
137
  0
LINE
  8
0
 10
577.1
 20
137
 11
576.859
 21
136.5
  0
LINE
  8
0
 10
576.859
 20
136.5
 11
577.1
 21
136
  0
LINE
  8
0
 10
577.1
 20
136
 11
576.859
 21
135.5
  0
LINE
  8
0
 10
576.859
 20
135.5
 11
577.1
 21
135
  0
LINE
  8
0
 10
577.1
 20
135
 11
576.309
 21
133.358
  0
LINE
  8
0
 10
576.309
 20
133.358
 11
574.533
 21
132.953
  0
LINE
  8
0
 10
574.533
 20
132.953
 11
573.108
 21
134.089
  0
LINE
  8
0
 10
2.10796
 20
134.089
 11
2.10796
 21
141.911
  0
LINE
  8
0
 10
2.10796
 20
141.911
 11
3.5327
 21
143.047
  0
LINE
  8
0
 10
3.5327
 20
143.047
 11
5.30933
 21
142.642
  0
LINE
  8
0
 10
5.30933
 20
142.642
 11
6.09999
 21
141
  0
LINE
  8
0
 10
6.09999
 20
141
 11
5.85921
 21
140.5
  0
LINE
  8
0
 10
5.85921
 20
140.5
 11
6.09999
 21
140
  0
LINE
  8
0
 10
6.09999
 20
140
 11
5.85921
 21
139.5
  0
LINE
  8
0
 10
5.85921
 20
139.5
 11
6.09999
 21
139
  0
LINE
  8
0
 10
6.09999
 20
139
 11
5.85921
 21
138.5
  0
LINE
  8
0
 10
5.85921
 20
138.5
 11
6.09999
 21
138
  0
LINE
  8
0
 10
6.09999
 20
138
 11
5.85921
 21
137.5
  0
LINE
  8
0
 10
5.85921
 20
137.5
 11
6.09999
 21
137
  0
LINE
  8
0
 10
6.09999
 20
137
 11
5.85921
 21
136.5
  0
LINE
  8
0
 10
5.85921
 20
136.5
 11
6.09999
 21
136
  0
LINE
  8
0
 10
6.09999
 20
136
 11
5.85921
 21
135.5
  0
LINE
  8
0
 10
5.85921
 20
135.5
 11
6.09999
 21
135
  0
LINE
  8
0
 10
6.09999
 20
135
 11
5.30933
 21
133.358
  0
LINE
  8
0
 10
5.30933
 20
133.358
 11
3.5327
 21
132.953
  0
LINE
  8
0
 10
3.5327
 20
132.953
 11
2.10796
 21
134.089
  0
LINE
  8
0
 10
552.367
 20
25.1771
 11
552.367
 21
26.8229
  0
LINE
  8
0
 10
552.367
 20
26.8229
 11
553.933
 21
27.3315
  0
LINE
  8
0
 10
553.933
 20
27.3315
 11
554.9
 21
26
  0
LINE
  8
0
 10
554.9
 20
26
 11
553.933
 21
24.6685
  0
LINE
  8
0
 10
553.933
 20
24.6685
 11
552.367
 21
25.1771
  0
LINE
  8
0
 10
25.3674
 20
19.1771
 11
25.3674
 21
20.8229
  0
LINE
  8
0
 10
25.3674
 20
20.8229
 11
26.9326
 21
21.3315
  0
LINE
  8
0
 10
26.9326
 20
21.3315
 11
27.9
 21
20
  0
LINE
  8
0
 10
27.9
 20
20
 11
26.9326
 21
18.6685
  0
LINE
  8
0
 10
26.9326
 20
18.6685
 11
25.3674
 21
19.1771
  0
LINE
  8
0
 10
2.10796
 20
-2.91115
 11
2.10796
 21
4.91115
  0
LINE
  8
0
 10
2.10796
 20
4.91115
 11
3.5327
 21
6.04735
  0
LINE
  8
0
 10
3.5327
 20
6.04735
 11
5.30933
 21
5.64185
  0
LINE
  8
0
 10
5.30933
 20
5.64185
 11
6.09999
 21
4
  0
LINE
  8
0
 10
6.09999
 20
4
 11
5.85921
 21
3.49998
  0
LINE
  8
0
 10
5.85921
 20
3.49998
 11
6.09999
 21
3
  0
LINE
  8
0
 10
6.09999
 20
3
 11
5.85921
 21
2.49998
  0
LINE
  8
0
 10
5.85921
 20
2.49998
 11
6.09999
 21
2
  0
LINE
  8
0
 10
6.09999
 20
2
 11
5.85921
 21
1.49998
  0
LINE
  8
0
 10
5.85921
 20
1.49998
 11
6.09999
 21
1
  0
LINE
  8
0
 10
6.09999
 20
1
 11
5.85921
 21
0.5
  0
LINE
  8
0
 10
5.85921
 20
0.5
 11
6.09999
 21
0
  0
LINE
  8
0
 10
6.09999
 20
0
 11
5.85921
 21
-0.5
  0
LINE
  8
0
 10
5.85921
 20
-0.5
 11
6.09999
 21
-1
  0
LINE
  8
0
 10
6.09999
 20
-1
 11
5.85921
 21
-1.49998
  0
LINE
  8
0
 10
5.85921
 20
-1.49998
 11
6.09999
 21
-2
  0
LINE
  8
0
 10
6.09999
 20
-2
 11
5.30933
 21
-3.64185
  0
LINE
  8
0
 10
5.30933
 20
-3.64185
 11
3.5327
 21
-4.04735
  0
LINE
  8
0
 10
3.5327
 20
-4.04735
 11
2.10796
 21
-2.91115
  0
LINE
  8
0
 10
573.108
 20
-2.91115
 11
573.108
 21
4.91115
  0
LINE
  8
0
 10
573.108
 20
4.91115
 11
574.533
 21
6.04735
  0
LINE
  8
0
 10
574.533
 20
6.04735
 11
576.309
 21
5.64185
  0
LINE
  8
0
 10
576.309
 20
5.64185
 11
577.1
 21
4
  0
LINE
  8
0
 10
577.1
 20
4
 11
576.859
 21
3.49998
  0
LINE
  8
0
 10
576.859
 20
3.49998
 11
577.1
 21
3
  0
LINE
  8
0
 10
577.1
 20
3
 11
576.859
 21
2.49998
  0
LINE
  8
0
 10
576.859
 20
2.49998
 11
577.1
 21
2
  0
LINE
  8
0
 10
577.1
 20
2
 11
576.859
 21
1.49998
  0
LINE
  8
0
 10
576.859
 20
1.49998
 11
577.1
 21
1
  0
LINE
  8
0
 10
577.1
 20
1
 11
576.859
 21
0.5
  0
LINE
  8
0
 10
576.859
 20
0.5
 11
577.1
 21
0
  0
LINE
  8
0
 10
577.1
 20
0
 11
576.859
 21
-0.5
  0
LINE
  8
0
 10
576.859
 20
-0.5
 11
577.1
 21
-1
  0
LINE
  8
0
 10
577.1
 20
-1
 11
576.859
 21
-1.49998
  0
LINE
  8
0
 10
576.859
 20
-1.49998
 11
577.1
 21
-2
  0
LINE
  8
0
 10
577.1
 20
-2
 11
576.309
 21
-3.64185
  0
LINE
  8
0
 10
576.309
 20
-3.64185
 11
574.533
 21
-4.04735
  0
LINE
  8
0
 10
574.533
 20
-4.04735
 11
573.108
 21
-2.91115
  0
LINE
  8
0
 10
552.367
 20
-7.82289
 11
552.367
 21
-6.17709
  0
LINE
  8
0
 10
552.367
 20
-6.17709
 11
553.933
 21
-5.66852
  0
LINE
  8
0
 10
553.933
 20
-5.66852
 11
554.9
 21
-7
  0
LINE
  8
0
 10
554.9
 20
-7
 11
553.933
 21
-8.33147
  0
LINE
  8
0
 10
553.933
 20
-8.33147
 11
552.367
 21
-7.82289
  0
LINE
  8
0
 10
25.3674
 20
-10.8229
 11
25.3674
 21
-9.17709
  0
LINE
  8
0
 10
25.3674
 20
-9.17709
 11
26.9326
 21
-8.66852
  0
LINE
  8
0
 10
26.9326
 20
-8.66852
 11
27.9
 21
-10
  0
LINE
  8
0
 10
27.9
 20
-10
 11
26.9326
 21
-11.3315
  0
LINE
  8
0
 10
26.9326
 20
-11.3315
 11
25.3674
 21
-10.8229
  0
ENDSEC
  0
SECTION
  2
OBJECTS
  0
DICTIONARY
  0
ENDSEC
  0
EOF
