solid OpenSCAD_Model
  facet normal -0.420301 0.901325 -0.10469
    outer loop
      vertex 61.0067 43.8845 6.12817
      vertex 65 45.7728 6.35345
      vertex 65 45.7507 6.16318
    endloop
  endfacet
  facet normal -0.420302 0.901326 -0.104677
    outer loop
      vertex 65 45.7728 6.35345
      vertex 61.0067 43.8845 6.12817
      vertex 60.9967 43.906 6.35345
    endloop
  endfacet
  facet normal 0.401883 -0.861878 -0.309282
    outer loop
      vertex 65 49.3812 6.52375
      vertex 59.6376 46.8206 6.69145
      vertex 59.6207 46.8567 6.56889
    endloop
  endfacet
  facet normal 0.401944 -0.861982 -0.308915
    outer loop
      vertex 59.6376 46.8206 6.69145
      vertex 65 49.3812 6.52375
      vertex 65 49.3211 6.69145
    endloop
  endfacet
  facet normal -0.401986 0.862041 -0.308694
    outer loop
      vertex 65 45.894 6.69145
      vertex 60.9655 43.9728 6.58021
      vertex 60.9502 44.0055 6.69145
    endloop
  endfacet
  facet normal -0.400947 0.860226 -0.315043
    outer loop
      vertex 65 45.894 6.69145
      vertex 60.9671 43.9694 6.56889
      vertex 60.9655 43.9728 6.58021
    endloop
  endfacet
  facet normal -0.401902 0.861862 -0.309304
    outer loop
      vertex 60.9671 43.9694 6.56889
      vertex 65 45.894 6.69145
      vertex 65 45.8379 6.53513
    endloop
  endfacet
  facet normal -0.420319 0.901351 -0.104397
    outer loop
      vertex 61.0124 43.8723 6
      vertex 65 45.7507 6.16318
      vertex 65 45.7318 6
    endloop
  endfacet
  facet normal -0.420311 0.901344 -0.104488
    outer loop
      vertex 65 45.7507 6.16318
      vertex 61.0124 43.8723 6
      vertex 61.0067 43.8845 6.12817
    endloop
  endfacet
  facet normal -0.31419 0.673779 -0.66881
    outer loop
      vertex 65 46.3524 7.26335
      vertex 60.8111 44.304 7.16757
      vertex 60.7747 44.3821 7.26335
    endloop
  endfacet
  facet normal -0.314104 0.673613 -0.669018
    outer loop
      vertex 60.8111 44.304 7.16757
      vertex 65 46.3524 7.26335
      vertex 65 46.2301 7.14021
    endloop
  endfacet
  facet normal -0.314024 0.673436 -0.669233
    outer loop
      vertex 60.8752 44.1666 6.99923
      vertex 65 46.2301 7.14021
      vertex 65 46.09 6.99923
    endloop
  endfacet
  facet normal -0.314024 0.673435 -0.669234
    outer loop
      vertex 65 46.2301 7.14021
      vertex 60.8752 44.1666 6.99923
      vertex 60.8111 44.304 7.16757
    endloop
  endfacet
  facet normal 0.366015 -0.784931 -0.499916
    outer loop
      vertex 65 49.3211 6.69145
      vertex 59.6648 46.7622 6.80306
      vertex 59.6376 46.8206 6.69145
    endloop
  endfacet
  facet normal 0.365981 -0.784865 -0.500045
    outer loop
      vertex 59.6648 46.7622 6.80306
      vertex 65 49.3211 6.69145
      vertex 65 49.2241 6.8437
    endloop
  endfacet
  facet normal 0.401883 -0.861878 0.309282
    outer loop
      vertex 59.6376 46.8206 5.30855
      vertex 65 49.3812 5.47625
      vertex 59.6207 46.8567 5.43111
    endloop
  endfacet
  facet normal 0.401944 -0.861982 0.308915
    outer loop
      vertex 65 49.3812 5.47625
      vertex 59.6376 46.8206 5.30855
      vertex 65 49.3211 5.30855
    endloop
  endfacet
  facet normal 0.0878226 -0.188337 0.97817
    outer loop
      vertex 60.0719 45.8892 4.3832
      vertex 65 47.9888 4.345
      vertex 65 48.1872 4.3832
    endloop
  endfacet
  facet normal 0.0878627 -0.188432 0.978148
    outer loop
      vertex 65 47.9888 4.345
      vertex 60.0719 45.8892 4.3832
      vertex 60.1655 45.6884 4.33611
    endloop
  endfacet
  facet normal -0.248375 0.532638 -0.809078
    outer loop
      vertex 60.7306 44.4766 7.3391
      vertex 65 46.3524 7.26335
      vertex 60.7747 44.3821 7.26335
    endloop
  endfacet
  facet normal -0.24843 0.53277 -0.808974
    outer loop
      vertex 65 46.3524 7.26335
      vertex 60.7306 44.4766 7.3391
      vertex 65 46.5011 7.36128
    endloop
  endfacet
  facet normal 0.31415 -0.673698 0.66891
    outer loop
      vertex 59.7767 46.5222 4.83242
      vertex 65 49.125 5.00076
      vertex 59.7127 46.6595 5.00076
    endloop
  endfacet
  facet normal 0.314134 -0.67367 0.668946
    outer loop
      vertex 65 49.125 5.00076
      vertex 59.7767 46.5222 4.83242
      vertex 65 48.9919 4.86672
    endloop
  endfacet
  facet normal 0 0 1
    outer loop
      vertex 60.2188 45.5741 4.30931
      vertex 65 47.4115 4.30931
      vertex 65 47.8036 4.30931
    endloop
  endfacet
  facet normal 0 0 1
    outer loop
      vertex 65 47.4115 4.30931
      vertex 60.2188 45.5741 4.30931
      vertex 60.369 45.252 4.30931
    endloop
  endfacet
  facet normal -0.314014 0.673415 0.669259
    outer loop
      vertex 65 46.2301 4.85979
      vertex 60.8752 44.1666 5.00076
      vertex 65 46.09 5.00076
    endloop
  endfacet
  facet normal -0.314025 0.673434 0.669234
    outer loop
      vertex 60.8752 44.1666 5.00076
      vertex 65 46.2301 4.85979
      vertex 60.8111 44.304 4.83242
    endloop
  endfacet
  facet normal -0.0878493 0.188392 0.978157
    outer loop
      vertex 60.4627 45.0512 4.35641
      vertex 65 47.0279 4.3832
      vertex 65 47.2103 4.34807
    endloop
  endfacet
  facet normal -0.0878435 0.188378 0.97816
    outer loop
      vertex 65 47.0279 4.3832
      vertex 60.4627 45.0512 4.35641
      vertex 60.5159 44.9369 4.3832
    endloop
  endfacet
  facet normal 0.366012 -0.784907 -0.499956
    outer loop
      vertex 65 49.2241 6.8437
      vertex 59.7127 46.6595 6.99923
      vertex 59.688 46.7125 6.89794
    endloop
  endfacet
  facet normal 0.365977 -0.784843 -0.500083
    outer loop
      vertex 59.7127 46.6595 6.99923
      vertex 65 49.2241 6.8437
      vertex 65 49.125 6.99923
    endloop
  endfacet
  facet normal 0.36588 -0.784639 -0.500474
    outer loop
      vertex 65 49.2241 6.8437
      vertex 59.688 46.7125 6.89794
      vertex 59.6648 46.7622 6.80306
    endloop
  endfacet
  facet normal 0.0878627 -0.188432 -0.978148
    outer loop
      vertex 60.0719 45.8892 7.6168
      vertex 65 47.9888 7.655
      vertex 60.1655 45.6884 7.66389
    endloop
  endfacet
  facet normal 0.0878226 -0.188337 -0.97817
    outer loop
      vertex 65 47.9888 7.655
      vertex 60.0719 45.8892 7.6168
      vertex 65 48.1872 7.6168
    endloop
  endfacet
  facet normal -0.366006 0.784914 -0.499949
    outer loop
      vertex 65 46.09 6.99923
      vertex 60.9024 44.1082 6.88763
      vertex 60.8752 44.1666 6.99923
    endloop
  endfacet
  facet normal -0.366085 0.78506 -0.499663
    outer loop
      vertex 60.9024 44.1082 6.88763
      vertex 65 46.09 6.99923
      vertex 65 45.9991 6.85641
    endloop
  endfacet
  facet normal -0.365993 0.784856 -0.50005
    outer loop
      vertex 60.9502 44.0055 6.69145
      vertex 65 45.9991 6.85641
      vertex 65 45.894 6.69145
    endloop
  endfacet
  facet normal -0.365994 0.784857 -0.500048
    outer loop
      vertex 65 45.9991 6.85641
      vertex 60.9502 44.0055 6.69145
      vertex 60.9024 44.1082 6.88763
    endloop
  endfacet
  facet normal -0.420319 0.901351 0.104397
    outer loop
      vertex 65 45.7507 5.83682
      vertex 61.0124 43.8723 6
      vertex 65 45.7318 6
    endloop
  endfacet
  facet normal -0.420311 0.901344 0.104488
    outer loop
      vertex 61.0124 43.8723 6
      vertex 65 45.7507 5.83682
      vertex 61.0067 43.8845 5.87183
    endloop
  endfacet
  facet normal -0.401959 0.861991 0.30887
    outer loop
      vertex 65 45.8379 5.46487
      vertex 60.9967 43.906 5.64655
      vertex 65 45.7728 5.64655
    endloop
  endfacet
  facet normal -0.401956 0.861985 0.308892
    outer loop
      vertex 60.9967 43.906 5.64655
      vertex 65 45.8379 5.46487
      vertex 60.9671 43.9694 5.43111
    endloop
  endfacet
  facet normal -0.401902 0.861862 0.309304
    outer loop
      vertex 65 45.894 5.30855
      vertex 60.9671 43.9694 5.43111
      vertex 65 45.8379 5.46487
    endloop
  endfacet
  facet normal -0.400947 0.860226 0.315043
    outer loop
      vertex 60.9671 43.9694 5.43111
      vertex 65 45.894 5.30855
      vertex 60.9655 43.9728 5.41979
    endloop
  endfacet
  facet normal -0.401986 0.862041 0.308694
    outer loop
      vertex 60.9655 43.9728 5.41979
      vertex 65 45.894 5.30855
      vertex 60.9502 44.0055 5.30855
    endloop
  endfacet
  facet normal 0.248372 -0.532624 0.809088
    outer loop
      vertex 59.8132 46.444 4.73665
      vertex 65 48.7073 4.63435
      vertex 65 48.8627 4.73665
    endloop
  endfacet
  facet normal 0.248438 -0.532781 0.808964
    outer loop
      vertex 65 48.7073 4.63435
      vertex 59.8132 46.444 4.73665
      vertex 59.8572 46.3495 4.6609
    endloop
  endfacet
  facet normal 0.0878936 -0.188497 0.978133
    outer loop
      vertex 60.1655 45.6884 4.33611
      vertex 65 47.8036 4.30931
      vertex 65 47.9888 4.345
    endloop
  endfacet
  facet normal 0.0878453 -0.188386 0.978158
    outer loop
      vertex 65 47.8036 4.30931
      vertex 60.1655 45.6884 4.33611
      vertex 60.2188 45.5741 4.30931
    endloop
  endfacet
  facet normal 0.420302 -0.901334 0.104608
    outer loop
      vertex 59.5912 46.9201 5.64655
      vertex 65 49.4833 6
      vertex 59.5755 46.9538 6
    endloop
  endfacet
  facet normal 0.420307 -0.901338 0.104555
    outer loop
      vertex 65 49.4833 6
      vertex 59.5912 46.9201 5.64655
      vertex 65 49.4423 5.64655
    endloop
  endfacet
  facet normal 0.401979 -0.862034 -0.308723
    outer loop
      vertex 65 49.4423 6.35345
      vertex 59.6207 46.8567 6.56889
      vertex 59.5912 46.9201 6.35345
    endloop
  endfacet
  facet normal 0.401891 -0.861894 -0.309229
    outer loop
      vertex 59.6207 46.8567 6.56889
      vertex 65 49.4423 6.35345
      vertex 65 49.3812 6.52375
    endloop
  endfacet
  facet normal 0.366015 -0.784931 0.499916
    outer loop
      vertex 59.6648 46.7622 5.19694
      vertex 65 49.3211 5.30855
      vertex 59.6376 46.8206 5.30855
    endloop
  endfacet
  facet normal 0.365981 -0.784865 0.500045
    outer loop
      vertex 65 49.3211 5.30855
      vertex 59.6648 46.7622 5.19694
      vertex 65 49.2241 5.1563
    endloop
  endfacet
  facet normal 0.420302 -0.901334 -0.104608
    outer loop
      vertex 65 49.4833 6
      vertex 59.5912 46.9201 6.35345
      vertex 59.5755 46.9538 6
    endloop
  endfacet
  facet normal 0.420307 -0.901338 -0.104555
    outer loop
      vertex 59.5912 46.9201 6.35345
      vertex 65 49.4833 6
      vertex 65 49.4423 6.35345
    endloop
  endfacet
  facet normal 0.0878453 -0.188386 -0.978158
    outer loop
      vertex 60.1655 45.6884 7.66389
      vertex 65 47.8036 7.69069
      vertex 60.2188 45.5741 7.69069
    endloop
  endfacet
  facet normal 0.0878936 -0.188497 -0.978133
    outer loop
      vertex 65 47.8036 7.69069
      vertex 60.1655 45.6884 7.66389
      vertex 65 47.9888 7.655
    endloop
  endfacet
  facet normal -0.365999 0.784868 0.500028
    outer loop
      vertex 65 45.9991 5.14358
      vertex 60.9502 44.0055 5.30855
      vertex 65 45.894 5.30855
    endloop
  endfacet
  facet normal -0.365993 0.784858 0.500048
    outer loop
      vertex 60.9502 44.0055 5.30855
      vertex 65 45.9991 5.14358
      vertex 60.9024 44.1082 5.11237
    endloop
  endfacet
  facet normal -0.366084 0.78506 0.499664
    outer loop
      vertex 65 46.09 5.00076
      vertex 60.9024 44.1082 5.11237
      vertex 65 45.9991 5.14358
    endloop
  endfacet
  facet normal -0.366015 0.784932 0.499916
    outer loop
      vertex 60.9024 44.1082 5.11237
      vertex 65 46.09 5.00076
      vertex 60.8752 44.1666 5.00076
    endloop
  endfacet
  facet normal 0.248438 -0.532781 -0.808964
    outer loop
      vertex 59.8132 46.444 7.26335
      vertex 65 48.7073 7.36565
      vertex 59.8572 46.3495 7.3391
    endloop
  endfacet
  facet normal 0.248372 -0.532624 -0.809088
    outer loop
      vertex 65 48.7073 7.36565
      vertex 59.8132 46.444 7.26335
      vertex 65 48.8627 7.26335
    endloop
  endfacet
  facet normal 0 0 -1
    outer loop
      vertex 60.2188 45.5741 7.69069
      vertex 65 47.4115 7.69069
      vertex 60.369 45.252 7.69069
    endloop
  endfacet
  facet normal -0 0 -1
    outer loop
      vertex 65 47.4115 7.69069
      vertex 60.2188 45.5741 7.69069
      vertex 65 47.8036 7.69069
    endloop
  endfacet
  facet normal -0.314105 0.673612 0.669017
    outer loop
      vertex 65 46.3524 4.73665
      vertex 60.8111 44.304 4.83242
      vertex 65 46.2301 4.85979
    endloop
  endfacet
  facet normal -0.314175 0.673747 0.668849
    outer loop
      vertex 60.8111 44.304 4.83242
      vertex 65 46.3524 4.73665
      vertex 60.7747 44.3821 4.73665
    endloop
  endfacet
  facet normal -0.248324 0.532531 0.809163
    outer loop
      vertex 60.6531 44.6427 4.52776
      vertex 65 46.5011 4.63872
      vertex 65 46.6697 4.52776
    endloop
  endfacet
  facet normal -0.248369 0.532642 0.809077
    outer loop
      vertex 65 46.5011 4.63872
      vertex 60.6531 44.6427 4.52776
      vertex 60.7306 44.4766 4.6609
    endloop
  endfacet
  facet normal -0.420301 0.901325 0.10469
    outer loop
      vertex 65 45.7728 5.64655
      vertex 61.0067 43.8845 5.87183
      vertex 65 45.7507 5.83682
    endloop
  endfacet
  facet normal -0.420302 0.901326 0.104677
    outer loop
      vertex 61.0067 43.8845 5.87183
      vertex 65 45.7728 5.64655
      vertex 60.9967 43.906 5.64655
    endloop
  endfacet
  facet normal -0.0878695 0.188434 0.978147
    outer loop
      vertex 60.369 45.252 4.30931
      vertex 65 47.2103 4.34807
      vertex 65 47.4115 4.30931
    endloop
  endfacet
  facet normal -0.0878691 0.188433 0.978147
    outer loop
      vertex 65 47.2103 4.34807
      vertex 60.369 45.252 4.30931
      vertex 60.4627 45.0512 4.35641
    endloop
  endfacet
  facet normal 0.171916 -0.368674 0.913523
    outer loop
      vertex 59.9347 46.1834 4.52776
      vertex 65 48.1872 4.3832
      vertex 65 48.5454 4.52776
    endloop
  endfacet
  facet normal 0.171924 -0.368693 0.913514
    outer loop
      vertex 65 48.1872 4.3832
      vertex 59.9347 46.1834 4.52776
      vertex 60.0719 45.8892 4.3832
    endloop
  endfacet
  facet normal 0.401979 -0.862034 0.308723
    outer loop
      vertex 59.6207 46.8567 5.43111
      vertex 65 49.4423 5.64655
      vertex 59.5912 46.9201 5.64655
    endloop
  endfacet
  facet normal 0.401891 -0.861894 0.309229
    outer loop
      vertex 65 49.4423 5.64655
      vertex 59.6207 46.8567 5.43111
      vertex 65 49.3812 5.47625
    endloop
  endfacet
  facet normal -0.17192 0.368683 -0.913518
    outer loop
      vertex 60.5583 44.846 7.57213
      vertex 65 46.6697 7.47224
      vertex 60.6531 44.6427 7.47224
    endloop
  endfacet
  facet normal -0.171933 0.368715 -0.913503
    outer loop
      vertex 60.5159 44.9369 7.6168
      vertex 65 46.6697 7.47224
      vertex 60.5583 44.846 7.57213
    endloop
  endfacet
  facet normal -0.171918 0.368674 -0.913523
    outer loop
      vertex 65 46.6697 7.47224
      vertex 60.5159 44.9369 7.6168
      vertex 65 47.0279 7.6168
    endloop
  endfacet
  facet normal -0.248369 0.532642 -0.809077
    outer loop
      vertex 60.6531 44.6427 7.47224
      vertex 65 46.5011 7.36128
      vertex 60.7306 44.4766 7.3391
    endloop
  endfacet
  facet normal -0.248324 0.532531 -0.809163
    outer loop
      vertex 65 46.5011 7.36128
      vertex 60.6531 44.6427 7.47224
      vertex 65 46.6697 7.47224
    endloop
  endfacet
  facet normal -0.401959 0.861991 -0.30887
    outer loop
      vertex 60.9967 43.906 6.35345
      vertex 65 45.8379 6.53513
      vertex 65 45.7728 6.35345
    endloop
  endfacet
  facet normal -0.401956 0.861985 -0.308892
    outer loop
      vertex 65 45.8379 6.53513
      vertex 60.9967 43.906 6.35345
      vertex 60.9671 43.9694 6.56889
    endloop
  endfacet
  facet normal -0.0878435 0.188378 -0.97816
    outer loop
      vertex 60.4627 45.0512 7.64359
      vertex 65 47.0279 7.6168
      vertex 60.5159 44.9369 7.6168
    endloop
  endfacet
  facet normal -0.0878493 0.188392 -0.978157
    outer loop
      vertex 65 47.0279 7.6168
      vertex 60.4627 45.0512 7.64359
      vertex 65 47.2103 7.65193
    endloop
  endfacet
  facet normal -0.171918 0.368674 0.913523
    outer loop
      vertex 60.5159 44.9369 4.3832
      vertex 65 46.6697 4.52776
      vertex 65 47.0279 4.3832
    endloop
  endfacet
  facet normal -0.17192 0.368683 0.913518
    outer loop
      vertex 65 46.6697 4.52776
      vertex 60.5583 44.846 4.42787
      vertex 60.6531 44.6427 4.52776
    endloop
  endfacet
  facet normal -0.171933 0.368715 0.913503
    outer loop
      vertex 65 46.6697 4.52776
      vertex 60.5159 44.9369 4.3832
      vertex 60.5583 44.846 4.42787
    endloop
  endfacet
  facet normal 0.248384 -0.53266 0.80906
    outer loop
      vertex 59.8572 46.3495 4.6609
      vertex 65 48.5454 4.52776
      vertex 65 48.7073 4.63435
    endloop
  endfacet
  facet normal 0.248375 -0.532639 0.809077
    outer loop
      vertex 65 48.5454 4.52776
      vertex 59.8572 46.3495 4.6609
      vertex 59.9347 46.1834 4.52776
    endloop
  endfacet
  facet normal 0.313445 -0.672236 0.670709
    outer loop
      vertex 59.7821 46.5106 4.81827
      vertex 65 48.9919 4.86672
      vertex 59.7767 46.5222 4.83242
    endloop
  endfacet
  facet normal 0.314044 -0.673466 0.669194
    outer loop
      vertex 59.8132 46.444 4.73665
      vertex 65 48.9919 4.86672
      vertex 59.7821 46.5106 4.81827
    endloop
  endfacet
  facet normal 0.314098 -0.673569 0.669064
    outer loop
      vertex 65 48.9919 4.86672
      vertex 59.8132 46.444 4.73665
      vertex 65 48.8627 4.73665
    endloop
  endfacet
  facet normal 0.248375 -0.532639 -0.809077
    outer loop
      vertex 59.8572 46.3495 7.3391
      vertex 65 48.5454 7.47224
      vertex 59.9347 46.1834 7.47224
    endloop
  endfacet
  facet normal 0.248384 -0.53266 -0.80906
    outer loop
      vertex 65 48.5454 7.47224
      vertex 59.8572 46.3495 7.3391
      vertex 65 48.7073 7.36565
    endloop
  endfacet
  facet normal 0.171924 -0.368693 -0.913514
    outer loop
      vertex 59.9347 46.1834 7.47224
      vertex 65 48.1872 7.6168
      vertex 60.0719 45.8892 7.6168
    endloop
  endfacet
  facet normal 0.171916 -0.368674 -0.913523
    outer loop
      vertex 65 48.1872 7.6168
      vertex 59.9347 46.1834 7.47224
      vertex 65 48.5454 7.47224
    endloop
  endfacet
  facet normal 0.314044 -0.673466 -0.669194
    outer loop
      vertex 65 48.9919 7.13328
      vertex 59.8132 46.444 7.26335
      vertex 59.7821 46.5106 7.18173
    endloop
  endfacet
  facet normal 0.313548 -0.672448 -0.670449
    outer loop
      vertex 65 48.9919 7.13328
      vertex 59.7821 46.5106 7.18173
      vertex 59.7767 46.5222 7.16757
    endloop
  endfacet
  facet normal 0.314098 -0.673569 -0.669064
    outer loop
      vertex 59.8132 46.444 7.26335
      vertex 65 48.9919 7.13328
      vertex 65 48.8627 7.26335
    endloop
  endfacet
  facet normal -0.0878691 0.188433 -0.978147
    outer loop
      vertex 60.369 45.252 7.69069
      vertex 65 47.2103 7.65193
      vertex 60.4627 45.0512 7.64359
    endloop
  endfacet
  facet normal -0.0878695 0.188434 -0.978147
    outer loop
      vertex 65 47.2103 7.65193
      vertex 60.369 45.252 7.69069
      vertex 65 47.4115 7.69069
    endloop
  endfacet
  facet normal -0.24843 0.53277 0.808974
    outer loop
      vertex 60.7306 44.4766 4.6609
      vertex 65 46.3524 4.73665
      vertex 65 46.5011 4.63872
    endloop
  endfacet
  facet normal -0.248375 0.532638 0.809078
    outer loop
      vertex 65 46.3524 4.73665
      vertex 60.7306 44.4766 4.6609
      vertex 60.7747 44.3821 4.73665
    endloop
  endfacet
  facet normal 0.36588 -0.784639 0.500474
    outer loop
      vertex 59.688 46.7125 5.10206
      vertex 65 49.2241 5.1563
      vertex 59.6648 46.7622 5.19694
    endloop
  endfacet
  facet normal 0.366021 -0.784926 0.499919
    outer loop
      vertex 59.7127 46.6595 5.00076
      vertex 65 49.2241 5.1563
      vertex 59.688 46.7125 5.10206
    endloop
  endfacet
  facet normal 0.365983 -0.784855 0.500059
    outer loop
      vertex 65 49.2241 5.1563
      vertex 59.7127 46.6595 5.00076
      vertex 65 49.125 5.00076
    endloop
  endfacet
  facet normal 0.31415 -0.673698 -0.66891
    outer loop
      vertex 65 49.125 6.99923
      vertex 59.7767 46.5222 7.16757
      vertex 59.7127 46.6595 6.99923
    endloop
  endfacet
  facet normal 0.314146 -0.673692 -0.668918
    outer loop
      vertex 59.7767 46.5222 7.16757
      vertex 65 49.125 6.99923
      vertex 65 48.9919 7.13328
    endloop
  endfacet
  facet normal -0.420225 0.901193 -0.106127
    outer loop
      vertex 58 41.7373 6.49899
      vertex 61.2921 43.2724 6.49899
      vertex 58 41.7325 6.45823
    endloop
  endfacet
  facet normal -0.314088 0.673569 0.669069
    outer loop
      vertex 60.9787 43.9445 4.21645
      vertex 58 42.2137 4.56057
      vertex 61.1206 43.6403 4.58931
    endloop
  endfacet
  facet normal -0.314039 0.673503 0.669158
    outer loop
      vertex 58 42.2137 4.56057
      vertex 60.9787 43.9445 4.21645
      vertex 58 42.5556 4.21645
    endloop
  endfacet
  facet normal -0.9063 -0.422636 -1.79685e-06
    outer loop
      vertex 60.194 45.6274 8.38685
      vertex 59.6213 46.8555 7.78355
      vertex 59.3734 47.3871 6.97617
    endloop
  endfacet
  facet normal -0.420308 0.901344 -0.1045
    outer loop
      vertex 58 41.6794 6
      vertex 61.2921 43.2724 6.49899
      vertex 61.3143 43.2249 6
    endloop
  endfacet
  facet normal -0.420317 0.901346 -0.104449
    outer loop
      vertex 61.2921 43.2724 6.49899
      vertex 58 41.6794 6
      vertex 58 41.7325 6.45823
    endloop
  endfacet
  facet normal -0.171904 0.368642 -0.913538
    outer loop
      vertex 58 43.4762 8.26925
      vertex 60.8071 44.3124 8.07846
      vertex 58 43.0034 8.07846
    endloop
  endfacet
  facet normal -0.171906 0.368648 -0.913536
    outer loop
      vertex 60.8071 44.3124 8.07846
      vertex 58 43.4762 8.26925
      vertex 60.6134 44.7278 8.28254
    endloop
  endfacet
  facet normal -0.906302 -0.422631 -3.48807e-05
    outer loop
      vertex 60.9787 43.9445 4.21645
      vertex 60.6531 44.6427 4.52776
      vertex 60.5583 44.846 4.42787
    endloop
  endfacet
  facet normal -0.906266 -0.422709 0.000177536
    outer loop
      vertex 60.9787 43.9445 4.21645
      vertex 60.7306 44.4766 4.6609
      vertex 60.6531 44.6427 4.52776
    endloop
  endfacet
  facet normal -0.906251 -0.422739 0.000221974
    outer loop
      vertex 60.9787 43.9445 4.21645
      vertex 60.7747 44.3821 4.73665
      vertex 60.7306 44.4766 4.6609
    endloop
  endfacet
  facet normal -0.906371 -0.422482 -4.12902e-05
    outer loop
      vertex 60.9787 43.9445 4.21645
      vertex 60.8111 44.304 4.83242
      vertex 60.7747 44.3821 4.73665
    endloop
  endfacet
  facet normal -0.90628 -0.422678 9.80876e-05
    outer loop
      vertex 60.9787 43.9445 4.21645
      vertex 60.8752 44.1666 5.00076
      vertex 60.8111 44.304 4.83242
    endloop
  endfacet
  facet normal -0.906469 -0.422272 -4.21182e-05
    outer loop
      vertex 60.9787 43.9445 4.21645
      vertex 60.9024 44.1082 5.11237
      vertex 60.8752 44.1666 5.00076
    endloop
  endfacet
  facet normal -0.906329 -0.422573 2.49332e-05
    outer loop
      vertex 61.2921 43.2724 5.50101
      vertex 60.9024 44.1082 5.11237
      vertex 60.9787 43.9445 4.21645
    endloop
  endfacet
  facet normal -0.906232 -0.422781 -0.0005183
    outer loop
      vertex 60.9024 44.1082 5.11237
      vertex 61.2921 43.2724 5.50101
      vertex 60.9502 44.0055 5.30855
    endloop
  endfacet
  facet normal -0.906328 -0.422575 0.000437167
    outer loop
      vertex 60.9502 44.0055 5.30855
      vertex 61.2921 43.2724 5.50101
      vertex 60.9655 43.9728 5.41979
    endloop
  endfacet
  facet normal -0.906299 -0.422637 0.00013979
    outer loop
      vertex 59.3734 47.3871 5.02383
      vertex 59.7127 46.6595 5.00076
      vertex 59.688 46.7125 5.10206
    endloop
  endfacet
  facet normal -0.906299 -0.422637 0.000148041
    outer loop
      vertex 59.3734 47.3871 5.02383
      vertex 59.7767 46.5222 4.83242
      vertex 59.7127 46.6595 5.00076
    endloop
  endfacet
  facet normal -0.906251 -0.422739 0.000707417
    outer loop
      vertex 59.7767 46.5222 4.83242
      vertex 59.3734 47.3871 5.02383
      vertex 59.7821 46.5106 4.81827
    endloop
  endfacet
  facet normal -0.906302 -0.422631 3.48807e-05
    outer loop
      vertex 60.6531 44.6427 7.47224
      vertex 60.9787 43.9445 7.78355
      vertex 60.5583 44.846 7.57213
    endloop
  endfacet
  facet normal -0.906266 -0.422709 -0.000177536
    outer loop
      vertex 60.7306 44.4766 7.3391
      vertex 60.9787 43.9445 7.78355
      vertex 60.6531 44.6427 7.47224
    endloop
  endfacet
  facet normal -0.906251 -0.422739 -0.000221974
    outer loop
      vertex 60.7747 44.3821 7.26335
      vertex 60.9787 43.9445 7.78355
      vertex 60.7306 44.4766 7.3391
    endloop
  endfacet
  facet normal -0.906371 -0.422482 4.12881e-05
    outer loop
      vertex 60.8111 44.304 7.16757
      vertex 60.9787 43.9445 7.78355
      vertex 60.7747 44.3821 7.26335
    endloop
  endfacet
  facet normal -0.90628 -0.422678 -9.80866e-05
    outer loop
      vertex 60.8752 44.1666 6.99923
      vertex 60.9787 43.9445 7.78355
      vertex 60.8111 44.304 7.16757
    endloop
  endfacet
  facet normal -0.906469 -0.422272 4.21192e-05
    outer loop
      vertex 60.9024 44.1082 6.88763
      vertex 60.9787 43.9445 7.78355
      vertex 60.8752 44.1666 6.99923
    endloop
  endfacet
  facet normal -0.906232 -0.422781 0.0005183
    outer loop
      vertex 61.2921 43.2724 6.49899
      vertex 60.9024 44.1082 6.88763
      vertex 60.9502 44.0055 6.69145
    endloop
  endfacet
  facet normal -0.906328 -0.422575 -0.000437167
    outer loop
      vertex 61.2921 43.2724 6.49899
      vertex 60.9502 44.0055 6.69145
      vertex 60.9655 43.9728 6.58021
    endloop
  endfacet
  facet normal -0.906329 -0.422573 -2.49332e-05
    outer loop
      vertex 60.9024 44.1082 6.88763
      vertex 61.2921 43.2724 6.49899
      vertex 60.9787 43.9445 7.78355
    endloop
  endfacet
  facet normal -0.906299 -0.422637 -0.000139803
    outer loop
      vertex 59.7127 46.6595 6.99923
      vertex 59.3734 47.3871 6.97617
      vertex 59.688 46.7125 6.89794
    endloop
  endfacet
  facet normal -0.906299 -0.422637 -0.000148039
    outer loop
      vertex 59.7767 46.5222 7.16757
      vertex 59.3734 47.3871 6.97617
      vertex 59.7127 46.6595 6.99923
    endloop
  endfacet
  facet normal -0.906251 -0.422738 -0.000706798
    outer loop
      vertex 59.3734 47.3871 6.97617
      vertex 59.7767 46.5222 7.16757
      vertex 59.7821 46.5106 7.18173
    endloop
  endfacet
  facet normal -0.906046 -0.423179 0.000437084
    outer loop
      vertex 61.2266 43.4129 6.97617
      vertex 61.1206 43.6403 7.41068
      vertex 60.9787 43.9445 7.78355
    endloop
  endfacet
  facet normal -0.171608 0.368029 0.913841
    outer loop
      vertex 60.6134 44.7278 3.71746
      vertex 58 43.5092 3.71746
      vertex 58 43.4762 3.73075
    endloop
  endfacet
  facet normal -0.906362 -0.422501 0.00120811
    outer loop
      vertex 61.2921 43.2724 5.50101
      vertex 60.9671 43.9694 5.43111
      vertex 60.9655 43.9728 5.41979
    endloop
  endfacet
  facet normal -0.906345 -0.422539 -9.38242e-05
    outer loop
      vertex 61.2921 43.2724 5.50101
      vertex 61.0067 43.8845 5.87183
      vertex 60.9967 43.906 5.64655
    endloop
  endfacet
  facet normal -0.906305 -0.422624 7.74397e-05
    outer loop
      vertex 61.0067 43.8845 5.87183
      vertex 61.2921 43.2724 5.50101
      vertex 61.0124 43.8723 6
    endloop
  endfacet
  facet normal -0.906322 -0.422587 0.000162943
    outer loop
      vertex 60.9671 43.9694 5.43111
      vertex 61.2921 43.2724 5.50101
      vertex 60.9967 43.906 5.64655
    endloop
  endfacet
  facet normal -0.906322 -0.422587 -0.000162943
    outer loop
      vertex 61.2921 43.2724 6.49899
      vertex 60.9671 43.9694 6.56889
      vertex 60.9967 43.906 6.35345
    endloop
  endfacet
  facet normal -0.906305 -0.422624 -7.74397e-05
    outer loop
      vertex 61.2921 43.2724 6.49899
      vertex 61.0067 43.8845 6.12817
      vertex 61.0124 43.8723 6
    endloop
  endfacet
  facet normal -0.90633 -0.422571 -0
    outer loop
      vertex 61.2921 43.2724 6.49899
      vertex 61.0124 43.8723 6
      vertex 61.2921 43.2724 5.50101
    endloop
  endfacet
  facet normal -0.906345 -0.422539 9.38242e-05
    outer loop
      vertex 61.0067 43.8845 6.12817
      vertex 61.2921 43.2724 6.49899
      vertex 60.9967 43.906 6.35345
    endloop
  endfacet
  facet normal -0.906362 -0.422501 -0.00120811
    outer loop
      vertex 60.9671 43.9694 6.56889
      vertex 61.2921 43.2724 6.49899
      vertex 60.9655 43.9728 6.58021
    endloop
  endfacet
  facet normal -0.906269 -0.422702 0
    outer loop
      vertex 59.3734 47.3871 5.02383
      vertex 59.5755 46.9538 6
      vertex 59.3734 47.3871 6.97617
    endloop
  endfacet
  facet normal -0.906302 -0.422631 3.87761e-05
    outer loop
      vertex 59.3734 47.3871 5.02383
      vertex 59.5912 46.9201 5.64655
      vertex 59.5755 46.9538 6
    endloop
  endfacet
  facet normal -0.906388 -0.422446 0.000207169
    outer loop
      vertex 59.3734 47.3871 5.02383
      vertex 59.6207 46.8567 5.43111
      vertex 59.5912 46.9201 5.64655
    endloop
  endfacet
  facet normal -0.906206 -0.422836 -0.000411898
    outer loop
      vertex 59.3734 47.3871 5.02383
      vertex 59.6376 46.8206 5.30855
      vertex 59.6207 46.8567 5.43111
    endloop
  endfacet
  facet normal -0.90633 -0.422571 0.000232443
    outer loop
      vertex 59.3734 47.3871 5.02383
      vertex 59.6648 46.7622 5.19694
      vertex 59.6376 46.8206 5.30855
    endloop
  endfacet
  facet normal -0.906284 -0.422669 -0.000201562
    outer loop
      vertex 59.6648 46.7622 5.19694
      vertex 59.3734 47.3871 5.02383
      vertex 59.688 46.7125 5.10206
    endloop
  endfacet
  facet normal -0.906302 -0.422631 -3.87761e-05
    outer loop
      vertex 59.5912 46.9201 6.35345
      vertex 59.3734 47.3871 6.97617
      vertex 59.5755 46.9538 6
    endloop
  endfacet
  facet normal -0.906388 -0.422446 -0.000207169
    outer loop
      vertex 59.6207 46.8567 6.56889
      vertex 59.3734 47.3871 6.97617
      vertex 59.5912 46.9201 6.35345
    endloop
  endfacet
  facet normal -0.906206 -0.422836 0.000411898
    outer loop
      vertex 59.6376 46.8206 6.69145
      vertex 59.3734 47.3871 6.97617
      vertex 59.6207 46.8567 6.56889
    endloop
  endfacet
  facet normal -0.90633 -0.422571 -0.000232443
    outer loop
      vertex 59.6648 46.7622 6.80306
      vertex 59.3734 47.3871 6.97617
      vertex 59.6376 46.8206 6.69145
    endloop
  endfacet
  facet normal -0.906284 -0.422669 0.000201562
    outer loop
      vertex 59.3734 47.3871 6.97617
      vertex 59.6648 46.7622 6.80306
      vertex 59.688 46.7125 6.89794
    endloop
  endfacet
  facet normal -0.906046 -0.423179 -0.000437035
    outer loop
      vertex 61.1206 43.6403 4.58931
      vertex 61.2266 43.4129 5.02383
      vertex 60.9787 43.9445 4.21645
    endloop
  endfacet
  facet normal 0.172552 -0.370013 -0.912862
    outer loop
      vertex 58 45.6515 8.07846
      vertex 59.7929 46.4876 8.07846
      vertex 58 45.629 8.08758
    endloop
  endfacet
  facet normal 0.366029 -0.784919 -0.499925
    outer loop
      vertex 59.3734 47.3871 6.97617
      vertex 58 46.4699 7.41068
      vertex 58 46.7372 6.991
    endloop
  endfacet
  facet normal 0.365964 -0.784875 -0.500041
    outer loop
      vertex 58 46.4699 7.41068
      vertex 59.3734 47.3871 6.97617
      vertex 59.4794 47.1597 7.41068
    endloop
  endfacet
  facet normal -0.906355 -0.422516 -0.000294933
    outer loop
      vertex 60.9787 43.9445 7.78355
      vertex 60.8071 44.3124 8.07846
      vertex 60.406 45.1726 8.38685
    endloop
  endfacet
  facet normal 0.401959 -0.861982 0.308896
    outer loop
      vertex 58 46.7467 5.02383
      vertex 59.3079 47.5276 5.50101
      vertex 58 46.9177 5.50101
    endloop
  endfacet
  facet normal 0.401927 -0.861971 0.308968
    outer loop
      vertex 59.3079 47.5276 5.50101
      vertex 58 46.7467 5.02383
      vertex 59.3734 47.3871 5.02383
    endloop
  endfacet
  facet normal -0.313891 0.673123 -0.669611
    outer loop
      vertex 58 42.2137 7.43943
      vertex 61.1206 43.6403 7.41068
      vertex 58 42.1851 7.41068
    endloop
  endfacet
  facet normal -0.906263 -0.422715 -6.55953e-05
    outer loop
      vertex 61.2266 43.4129 5.02383
      vertex 61.2921 43.2724 5.50101
      vertex 60.9787 43.9445 4.21645
    endloop
  endfacet
  facet normal -0.248591 0.53314 0.808681
    outer loop
      vertex 60.9787 43.9445 4.21645
      vertex 58 42.5885 4.19476
      vertex 58 42.5556 4.21645
    endloop
  endfacet
  facet normal 0.313552 -0.672348 0.670547
    outer loop
      vertex 59.6213 46.8555 4.21645
      vertex 58 46.1143 4.23139
      vertex 58 46.0994 4.21645
    endloop
  endfacet
  facet normal 0.366032 -0.784923 0.499917
    outer loop
      vertex 58 46.4699 4.58931
      vertex 59.3734 47.3871 5.02383
      vertex 58 46.7372 5.009
    endloop
  endfacet
  facet normal 0.365966 -0.78488 0.500032
    outer loop
      vertex 59.3734 47.3871 5.02383
      vertex 58 46.4699 4.58931
      vertex 59.4794 47.1597 4.58931
    endloop
  endfacet
  facet normal 0.171887 -0.3686 -0.913558
    outer loop
      vertex 58 45.629 8.08758
      vertex 59.9866 46.0722 8.28254
      vertex 58 45.1458 8.28254
    endloop
  endfacet
  facet normal 0.171896 -0.368652 -0.913536
    outer loop
      vertex 59.9866 46.0722 8.28254
      vertex 58 45.629 8.08758
      vertex 59.7929 46.4876 8.07846
    endloop
  endfacet
  facet normal -0.906366 -0.422493 0.000215411
    outer loop
      vertex 60.406 45.1726 8.38685
      vertex 60.194 45.6274 8.38685
      vertex 59.3734 47.3871 6.97617
    endloop
  endfacet
  facet normal -0.248412 0.532742 -0.808998
    outer loop
      vertex 58 43.0034 8.07846
      vertex 60.9787 43.9445 7.78355
      vertex 58 42.5885 7.80524
    endloop
  endfacet
  facet normal -0.248396 0.532675 -0.809047
    outer loop
      vertex 60.9787 43.9445 7.78355
      vertex 58 43.0034 8.07846
      vertex 60.8071 44.3124 8.07846
    endloop
  endfacet
  facet normal -0.366297 0.785505 -0.498807
    outer loop
      vertex 58 42.1851 7.41068
      vertex 61.1206 43.6403 7.41068
      vertex 58 42.1637 7.37698
    endloop
  endfacet
  facet normal -0.0878239 0.188346 -0.978168
    outer loop
      vertex 58 43.5441 8.28926
      vertex 60.6134 44.7278 8.28254
      vertex 58 43.5092 8.28254
    endloop
  endfacet
  facet normal 0.314039 -0.673514 0.669148
    outer loop
      vertex 58 46.1143 4.23139
      vertex 59.4794 47.1597 4.58931
      vertex 58 46.4699 4.58931
    endloop
  endfacet
  facet normal 0.314095 -0.673566 0.669069
    outer loop
      vertex 59.4794 47.1597 4.58931
      vertex 58 46.1143 4.23139
      vertex 59.6213 46.8555 4.21645
    endloop
  endfacet
  facet normal 0.172552 -0.370013 0.912862
    outer loop
      vertex 59.7929 46.4876 3.92154
      vertex 58 45.6515 3.92154
      vertex 58 45.629 3.91242
    endloop
  endfacet
  facet normal 0.0878035 -0.188291 0.97818
    outer loop
      vertex 60.194 45.6274 3.61315
      vertex 58 44.6336 3.61879
      vertex 58 44.6043 3.61315
    endloop
  endfacet
  facet normal 0 0 1
    outer loop
      vertex 58 44.6043 3.61315
      vertex 60.406 45.1726 3.61315
      vertex 60.194 45.6274 3.61315
    endloop
  endfacet
  facet normal 0 0 1
    outer loop
      vertex 60.406 45.1726 3.61315
      vertex 58 44.6043 3.61315
      vertex 58 44.0507 3.61315
    endloop
  endfacet
  facet normal -0.420308 0.901344 0.1045
    outer loop
      vertex 61.2921 43.2724 5.50101
      vertex 58 41.6794 6
      vertex 61.3143 43.2249 6
    endloop
  endfacet
  facet normal -0.420317 0.901346 0.104449
    outer loop
      vertex 58 41.6794 6
      vertex 61.2921 43.2724 5.50101
      vertex 58 41.7325 5.54177
    endloop
  endfacet
  facet normal -0.905939 -0.423407 0
    outer loop
      vertex 61.3143 43.2249 6
      vertex 61.2921 43.2724 6.49899
      vertex 61.2921 43.2724 5.50101
    endloop
  endfacet
  facet normal 0.401959 -0.861982 -0.308896
    outer loop
      vertex 59.3079 47.5276 6.49899
      vertex 58 46.7467 6.97617
      vertex 58 46.9177 6.49899
    endloop
  endfacet
  facet normal 0.401927 -0.861971 -0.308968
    outer loop
      vertex 58 46.7467 6.97617
      vertex 59.3079 47.5276 6.49899
      vertex 59.3734 47.3871 6.97617
    endloop
  endfacet
  facet normal -0.906385 -0.422453 0.000390079
    outer loop
      vertex 59.9866 46.0722 8.28254
      vertex 59.7929 46.4876 8.07846
      vertex 59.6213 46.8555 7.78355
    endloop
  endfacet
  facet normal 0.313552 -0.672348 -0.670547
    outer loop
      vertex 58 46.1143 7.76861
      vertex 59.6213 46.8555 7.78355
      vertex 58 46.0994 7.78355
    endloop
  endfacet
  facet normal -0.906325 -0.422581 -7.2591e-05
    outer loop
      vertex 60.8071 44.3124 8.07846
      vertex 60.6134 44.7278 8.28254
      vertex 60.406 45.1726 8.38685
    endloop
  endfacet
  facet normal -0.906371 -0.422482 0.000622478
    outer loop
      vertex 59.8132 46.444 7.26335
      vertex 59.3734 47.3871 6.97617
      vertex 59.7821 46.5106 7.18173
    endloop
  endfacet
  facet normal -0.906143 -0.422969 -0.00132338
    outer loop
      vertex 59.8572 46.3495 7.3391
      vertex 59.3734 47.3871 6.97617
      vertex 59.8132 46.444 7.26335
    endloop
  endfacet
  facet normal -0.906407 -0.422406 0.000638159
    outer loop
      vertex 59.9347 46.1834 7.47224
      vertex 59.3734 47.3871 6.97617
      vertex 59.8572 46.3495 7.3391
    endloop
  endfacet
  facet normal -0.906258 -0.422725 -0.000186474
    outer loop
      vertex 60.406 45.1726 8.38685
      vertex 59.9347 46.1834 7.47224
      vertex 60.0719 45.8892 7.6168
    endloop
  endfacet
  facet normal -0.906292 -0.422651 -8.80307e-05
    outer loop
      vertex 59.9347 46.1834 7.47224
      vertex 60.406 45.1726 8.38685
      vertex 59.3734 47.3871 6.97617
    endloop
  endfacet
  facet normal -0.906377 -0.422471 0.000101374
    outer loop
      vertex 60.1655 45.6884 7.66389
      vertex 60.406 45.1726 8.38685
      vertex 60.0719 45.8892 7.6168
    endloop
  endfacet
  facet normal -0.906301 -0.422633 -3.9381e-05
    outer loop
      vertex 60.2188 45.5741 7.69069
      vertex 60.406 45.1726 8.38685
      vertex 60.1655 45.6884 7.66389
    endloop
  endfacet
  facet normal -0.906305 -0.422624 -3.30619e-05
    outer loop
      vertex 60.369 45.252 7.69069
      vertex 60.406 45.1726 8.38685
      vertex 60.2188 45.5741 7.69069
    endloop
  endfacet
  facet normal -0.9062 -0.422848 -6.42737e-05
    outer loop
      vertex 60.4627 45.0512 7.64359
      vertex 60.406 45.1726 8.38685
      vertex 60.369 45.252 7.69069
    endloop
  endfacet
  facet normal -0.90663 -0.421926 -0.000247791
    outer loop
      vertex 60.5159 44.9369 7.6168
      vertex 60.406 45.1726 8.38685
      vertex 60.4627 45.0512 7.64359
    endloop
  endfacet
  facet normal -0.906249 -0.422745 5.74512e-05
    outer loop
      vertex 60.5583 44.846 7.57213
      vertex 60.406 45.1726 8.38685
      vertex 60.5159 44.9369 7.6168
    endloop
  endfacet
  facet normal -0.906299 -0.422637 4.72595e-06
    outer loop
      vertex 60.406 45.1726 8.38685
      vertex 60.5583 44.846 7.57213
      vertex 60.9787 43.9445 7.78355
    endloop
  endfacet
  facet normal 0 0 -1
    outer loop
      vertex 58 44.6043 8.38685
      vertex 60.406 45.1726 8.38685
      vertex 58 44.0507 8.38685
    endloop
  endfacet
  facet normal -0 0 -1
    outer loop
      vertex 60.406 45.1726 8.38685
      vertex 58 44.6043 8.38685
      vertex 60.194 45.6274 8.38685
    endloop
  endfacet
  facet normal -0.36599 0.784863 -0.500041
    outer loop
      vertex 58 41.9083 6.97617
      vertex 61.1206 43.6403 7.41068
      vertex 61.2266 43.4129 6.97617
    endloop
  endfacet
  facet normal -0.365966 0.784834 -0.500104
    outer loop
      vertex 61.1206 43.6403 7.41068
      vertex 58 41.9083 6.97617
      vertex 58 42.1637 7.37698
    endloop
  endfacet
  facet normal -0.906543 -0.422114 0.000150001
    outer loop
      vertex 59.3734 47.3871 6.97617
      vertex 59.3079 47.5276 6.49899
      vertex 59.2857 47.5751 6
    endloop
  endfacet
  facet normal 0.420282 -0.901346 -0.104587
    outer loop
      vertex 59.2857 47.5751 6
      vertex 58 46.9177 6.49899
      vertex 58 46.9756 6
    endloop
  endfacet
  facet normal 0.420314 -0.901341 -0.1045
    outer loop
      vertex 58 46.9177 6.49899
      vertex 59.2857 47.5751 6
      vertex 59.3079 47.5276 6.49899
    endloop
  endfacet
  facet normal 0.365473 -0.783793 0.502093
    outer loop
      vertex 59.3734 47.3871 5.02383
      vertex 58 46.7467 5.02383
      vertex 58 46.7372 5.009
    endloop
  endfacet
  facet normal -0.366324 0.785563 0.498696
    outer loop
      vertex 61.1206 43.6403 4.58931
      vertex 58 42.1851 4.58931
      vertex 58 42.1637 4.62302
    endloop
  endfacet
  facet normal -0.401934 0.861968 0.308968
    outer loop
      vertex 61.2266 43.4129 5.02383
      vertex 58 41.7373 5.50101
      vertex 61.2921 43.2724 5.50101
    endloop
  endfacet
  facet normal -0.401953 0.861984 0.308897
    outer loop
      vertex 58 41.7373 5.50101
      vertex 61.2266 43.4129 5.02383
      vertex 58 41.9083 5.02383
    endloop
  endfacet
  facet normal -0.365993 0.784868 0.500032
    outer loop
      vertex 61.1206 43.6403 4.58931
      vertex 58 41.9083 5.02383
      vertex 61.2266 43.4129 5.02383
    endloop
  endfacet
  facet normal -0.365964 0.784835 0.500104
    outer loop
      vertex 58 41.9083 5.02383
      vertex 61.1206 43.6403 4.58931
      vertex 58 42.1637 4.62302
    endloop
  endfacet
  facet normal -0.420225 0.901193 0.106127
    outer loop
      vertex 61.2921 43.2724 5.50101
      vertex 58 41.7373 5.50101
      vertex 58 41.7325 5.54177
    endloop
  endfacet
  facet normal 0.420282 -0.901346 0.104587
    outer loop
      vertex 58 46.9177 5.50101
      vertex 59.2857 47.5751 6
      vertex 58 46.9756 6
    endloop
  endfacet
  facet normal 0.420314 -0.901341 0.1045
    outer loop
      vertex 59.2857 47.5751 6
      vertex 58 46.9177 5.50101
      vertex 59.3079 47.5276 5.50101
    endloop
  endfacet
  facet normal -0.248396 0.532675 0.809047
    outer loop
      vertex 58 43.0034 3.92154
      vertex 60.9787 43.9445 4.21645
      vertex 60.8071 44.3124 3.92154
    endloop
  endfacet
  facet normal -0.248412 0.532742 0.808998
    outer loop
      vertex 60.9787 43.9445 4.21645
      vertex 58 43.0034 3.92154
      vertex 58 42.5885 4.19476
    endloop
  endfacet
  facet normal -0.171906 0.368648 0.913536
    outer loop
      vertex 58 43.4762 3.73075
      vertex 60.8071 44.3124 3.92154
      vertex 60.6134 44.7278 3.71746
    endloop
  endfacet
  facet normal -0.171904 0.368642 0.913538
    outer loop
      vertex 60.8071 44.3124 3.92154
      vertex 58 43.4762 3.73075
      vertex 58 43.0034 3.92154
    endloop
  endfacet
  facet normal 0.248414 -0.532689 -0.809032
    outer loop
      vertex 58 46.0994 7.78355
      vertex 59.7929 46.4876 8.07846
      vertex 58 45.6515 8.07846
    endloop
  endfacet
  facet normal 0.248412 -0.532668 -0.809047
    outer loop
      vertex 59.7929 46.4876 8.07846
      vertex 58 46.0994 7.78355
      vertex 59.6213 46.8555 7.78355
    endloop
  endfacet
  facet normal 0.314043 -0.673522 -0.669138
    outer loop
      vertex 59.4794 47.1597 7.41068
      vertex 58 46.1143 7.76861
      vertex 58 46.4699 7.41068
    endloop
  endfacet
  facet normal 0.314099 -0.673574 -0.669059
    outer loop
      vertex 58 46.1143 7.76861
      vertex 59.4794 47.1597 7.41068
      vertex 59.6213 46.8555 7.78355
    endloop
  endfacet
  facet normal -0.906046 -0.423179 -0.000437084
    outer loop
      vertex 59.6213 46.8555 7.78355
      vertex 59.4794 47.1597 7.41068
      vertex 59.3734 47.3871 6.97617
    endloop
  endfacet
  facet normal 0.365473 -0.783793 -0.502093
    outer loop
      vertex 58 46.7467 6.97617
      vertex 59.3734 47.3871 6.97617
      vertex 58 46.7372 6.991
    endloop
  endfacet
  facet normal -0.906263 -0.422715 6.55953e-05
    outer loop
      vertex 61.2921 43.2724 6.49899
      vertex 61.2266 43.4129 6.97617
      vertex 60.9787 43.9445 7.78355
    endloop
  endfacet
  facet normal -0.906335 -0.422559 0.000187543
    outer loop
      vertex 60.194 45.6274 8.38685
      vertex 59.9866 46.0722 8.28254
      vertex 59.6213 46.8555 7.78355
    endloop
  endfacet
  facet normal 0.0878662 -0.18843 -0.978148
    outer loop
      vertex 58 45.1458 8.28254
      vertex 60.194 45.6274 8.38685
      vertex 58 44.6336 8.38121
    endloop
  endfacet
  facet normal 0.0878636 -0.188417 -0.978151
    outer loop
      vertex 60.194 45.6274 8.38685
      vertex 58 45.1458 8.28254
      vertex 59.9866 46.0722 8.28254
    endloop
  endfacet
  facet normal -0.0878607 0.188428 -0.978149
    outer loop
      vertex 58 44.0507 8.38685
      vertex 60.6134 44.7278 8.28254
      vertex 58 43.5441 8.28926
    endloop
  endfacet
  facet normal -0.0878586 0.18842 -0.978151
    outer loop
      vertex 60.6134 44.7278 8.28254
      vertex 58 44.0507 8.38685
      vertex 60.406 45.1726 8.38685
    endloop
  endfacet
  facet normal -0.171608 0.368029 -0.913841
    outer loop
      vertex 58 43.5092 8.28254
      vertex 60.6134 44.7278 8.28254
      vertex 58 43.4762 8.26925
    endloop
  endfacet
  facet normal -0.906046 -0.423179 0.000437035
    outer loop
      vertex 59.4794 47.1597 4.58931
      vertex 59.6213 46.8555 4.21645
      vertex 59.3734 47.3871 5.02383
    endloop
  endfacet
  facet normal -0.9063 -0.422636 1.79685e-06
    outer loop
      vertex 59.6213 46.8555 4.21645
      vertex 60.194 45.6274 3.61315
      vertex 59.3734 47.3871 5.02383
    endloop
  endfacet
  facet normal -0.906371 -0.422482 -0.000622478
    outer loop
      vertex 59.3734 47.3871 5.02383
      vertex 59.8132 46.444 4.73665
      vertex 59.7821 46.5106 4.81827
    endloop
  endfacet
  facet normal -0.906143 -0.422969 0.00132338
    outer loop
      vertex 59.3734 47.3871 5.02383
      vertex 59.8572 46.3495 4.6609
      vertex 59.8132 46.444 4.73665
    endloop
  endfacet
  facet normal -0.906407 -0.422406 -0.000638159
    outer loop
      vertex 59.3734 47.3871 5.02383
      vertex 59.9347 46.1834 4.52776
      vertex 59.8572 46.3495 4.6609
    endloop
  endfacet
  facet normal -0.906292 -0.422651 8.80307e-05
    outer loop
      vertex 60.406 45.1726 3.61315
      vertex 59.9347 46.1834 4.52776
      vertex 59.3734 47.3871 5.02383
    endloop
  endfacet
  facet normal -0.906258 -0.422725 0.000186474
    outer loop
      vertex 59.9347 46.1834 4.52776
      vertex 60.406 45.1726 3.61315
      vertex 60.0719 45.8892 4.3832
    endloop
  endfacet
  facet normal -0.906377 -0.422471 -0.000101374
    outer loop
      vertex 60.406 45.1726 3.61315
      vertex 60.1655 45.6884 4.33611
      vertex 60.0719 45.8892 4.3832
    endloop
  endfacet
  facet normal -0.906301 -0.422633 3.9381e-05
    outer loop
      vertex 60.406 45.1726 3.61315
      vertex 60.2188 45.5741 4.30931
      vertex 60.1655 45.6884 4.33611
    endloop
  endfacet
  facet normal -0.906305 -0.422624 3.30619e-05
    outer loop
      vertex 60.406 45.1726 3.61315
      vertex 60.369 45.252 4.30931
      vertex 60.2188 45.5741 4.30931
    endloop
  endfacet
  facet normal -0.9062 -0.422848 6.42737e-05
    outer loop
      vertex 60.406 45.1726 3.61315
      vertex 60.4627 45.0512 4.35641
      vertex 60.369 45.252 4.30931
    endloop
  endfacet
  facet normal -0.90663 -0.421926 0.000247791
    outer loop
      vertex 60.406 45.1726 3.61315
      vertex 60.5159 44.9369 4.3832
      vertex 60.4627 45.0512 4.35641
    endloop
  endfacet
  facet normal -0.906249 -0.422745 -5.74512e-05
    outer loop
      vertex 60.406 45.1726 3.61315
      vertex 60.5583 44.846 4.42787
      vertex 60.5159 44.9369 4.3832
    endloop
  endfacet
  facet normal -0.906299 -0.422637 -4.72595e-06
    outer loop
      vertex 60.5583 44.846 4.42787
      vertex 60.406 45.1726 3.61315
      vertex 60.9787 43.9445 4.21645
    endloop
  endfacet
  facet normal 0.248412 -0.532668 0.809047
    outer loop
      vertex 58 46.0994 4.21645
      vertex 59.7929 46.4876 3.92154
      vertex 59.6213 46.8555 4.21645
    endloop
  endfacet
  facet normal 0.248414 -0.532689 0.809032
    outer loop
      vertex 59.7929 46.4876 3.92154
      vertex 58 46.0994 4.21645
      vertex 58 45.6515 3.92154
    endloop
  endfacet
  facet normal -0.313842 0.673018 0.669739
    outer loop
      vertex 61.1206 43.6403 4.58931
      vertex 58 42.2137 4.56057
      vertex 58 42.1851 4.58931
    endloop
  endfacet
  facet normal -0.906366 -0.422493 -0.000215411
    outer loop
      vertex 60.194 45.6274 3.61315
      vertex 60.406 45.1726 3.61315
      vertex 59.3734 47.3871 5.02383
    endloop
  endfacet
  facet normal -0.906245 -0.422754 0
    outer loop
      vertex 59.3734 47.3871 5.02383
      vertex 59.3734 47.3871 6.97617
      vertex 59.2857 47.5751 6
    endloop
  endfacet
  facet normal -0.906543 -0.422114 -0.000150001
    outer loop
      vertex 59.3079 47.5276 5.50101
      vertex 59.3734 47.3871 5.02383
      vertex 59.2857 47.5751 6
    endloop
  endfacet
  facet normal -0.314039 0.673503 -0.669158
    outer loop
      vertex 60.9787 43.9445 7.78355
      vertex 58 42.2137 7.43943
      vertex 58 42.5556 7.78355
    endloop
  endfacet
  facet normal -0.314093 0.673577 -0.669059
    outer loop
      vertex 58 42.2137 7.43943
      vertex 60.9787 43.9445 7.78355
      vertex 61.1206 43.6403 7.41068
    endloop
  endfacet
  facet normal -0.248591 0.53314 -0.808681
    outer loop
      vertex 58 42.5885 7.80524
      vertex 60.9787 43.9445 7.78355
      vertex 58 42.5556 7.78355
    endloop
  endfacet
  facet normal -0.401934 0.861968 -0.308968
    outer loop
      vertex 58 41.7373 6.49899
      vertex 61.2266 43.4129 6.97617
      vertex 61.2921 43.2724 6.49899
    endloop
  endfacet
  facet normal -0.401953 0.861984 -0.308897
    outer loop
      vertex 61.2266 43.4129 6.97617
      vertex 58 41.7373 6.49899
      vertex 58 41.9083 6.97617
    endloop
  endfacet
  facet normal 0.0878035 -0.188291 -0.97818
    outer loop
      vertex 58 44.6336 8.38121
      vertex 60.194 45.6274 8.38685
      vertex 58 44.6043 8.38685
    endloop
  endfacet
  facet normal -0.906335 -0.422559 -0.000187543
    outer loop
      vertex 59.9866 46.0722 3.71746
      vertex 60.194 45.6274 3.61315
      vertex 59.6213 46.8555 4.21645
    endloop
  endfacet
  facet normal -0.0878239 0.188346 0.978168
    outer loop
      vertex 60.6134 44.7278 3.71746
      vertex 58 43.5441 3.71074
      vertex 58 43.5092 3.71746
    endloop
  endfacet
  facet normal -0.906355 -0.422516 0.000294933
    outer loop
      vertex 60.8071 44.3124 3.92154
      vertex 60.9787 43.9445 4.21645
      vertex 60.406 45.1726 3.61315
    endloop
  endfacet
  facet normal -0.906325 -0.422581 7.2591e-05
    outer loop
      vertex 60.6134 44.7278 3.71746
      vertex 60.8071 44.3124 3.92154
      vertex 60.406 45.1726 3.61315
    endloop
  endfacet
  facet normal 0.0878636 -0.188417 0.978151
    outer loop
      vertex 58 45.1458 3.71746
      vertex 60.194 45.6274 3.61315
      vertex 59.9866 46.0722 3.71746
    endloop
  endfacet
  facet normal 0.0878662 -0.18843 0.978148
    outer loop
      vertex 60.194 45.6274 3.61315
      vertex 58 45.1458 3.71746
      vertex 58 44.6336 3.61879
    endloop
  endfacet
  facet normal 0.171896 -0.368652 0.913536
    outer loop
      vertex 58 45.629 3.91242
      vertex 59.9866 46.0722 3.71746
      vertex 59.7929 46.4876 3.92154
    endloop
  endfacet
  facet normal 0.171887 -0.3686 0.913558
    outer loop
      vertex 59.9866 46.0722 3.71746
      vertex 58 45.629 3.91242
      vertex 58 45.1458 3.71746
    endloop
  endfacet
  facet normal -0.906385 -0.422453 -0.000390079
    outer loop
      vertex 59.7929 46.4876 3.92154
      vertex 59.9866 46.0722 3.71746
      vertex 59.6213 46.8555 4.21645
    endloop
  endfacet
  facet normal -0.0878586 0.18842 0.978151
    outer loop
      vertex 58 44.0507 3.61315
      vertex 60.6134 44.7278 3.71746
      vertex 60.406 45.1726 3.61315
    endloop
  endfacet
  facet normal -0.0878607 0.188428 0.978149
    outer loop
      vertex 60.6134 44.7278 3.71746
      vertex 58 44.0507 3.61315
      vertex 58 43.5441 3.71074
    endloop
  endfacet
  facet normal 1 0 0
    outer loop
      vertex 65 52.3 13
      vertex 65 49.4833 6
      vertex 65 52.3 0
    endloop
  endfacet
  facet normal 1 0 0
    outer loop
      vertex 65 52.3 13
      vertex 65 49.4423 6.35345
      vertex 65 49.4833 6
    endloop
  endfacet
  facet normal 1 0 0
    outer loop
      vertex 65 52.3 13
      vertex 65 49.3812 6.52375
      vertex 65 49.4423 6.35345
    endloop
  endfacet
  facet normal 1 0 0
    outer loop
      vertex 65 52.3 13
      vertex 65 49.3211 6.69145
      vertex 65 49.3812 6.52375
    endloop
  endfacet
  facet normal 1 0 0
    outer loop
      vertex 65 52.3 13
      vertex 65 49.2241 6.8437
      vertex 65 49.3211 6.69145
    endloop
  endfacet
  facet normal 1 0 0
    outer loop
      vertex 65 52.3 13
      vertex 65 49.125 6.99923
      vertex 65 49.2241 6.8437
    endloop
  endfacet
  facet normal 1 0 0
    outer loop
      vertex 65 52.3 13
      vertex 65 48.9919 7.13328
      vertex 65 49.125 6.99923
    endloop
  endfacet
  facet normal 1 0 0
    outer loop
      vertex 65 52.3 13
      vertex 65 48.8627 7.26335
      vertex 65 48.9919 7.13328
    endloop
  endfacet
  facet normal 1 0 0
    outer loop
      vertex 65 52.3 13
      vertex 65 48.7073 7.36565
      vertex 65 48.8627 7.26335
    endloop
  endfacet
  facet normal 1 0 0
    outer loop
      vertex 65 52.3 13
      vertex 65 48.5454 7.47224
      vertex 65 48.7073 7.36565
    endloop
  endfacet
  facet normal 1 0 0
    outer loop
      vertex 65 52.3 13
      vertex 65 48.1872 7.6168
      vertex 65 48.5454 7.47224
    endloop
  endfacet
  facet normal 1 0 0
    outer loop
      vertex 65 52.3 13
      vertex 65 47.9888 7.655
      vertex 65 48.1872 7.6168
    endloop
  endfacet
  facet normal 1 0 0
    outer loop
      vertex 65 52.3 13
      vertex 65 47.8036 7.69069
      vertex 65 47.9888 7.655
    endloop
  endfacet
  facet normal 1 0 0
    outer loop
      vertex 65 52.3 13
      vertex 65 47.4115 7.69069
      vertex 65 47.8036 7.69069
    endloop
  endfacet
  facet normal 1 0 0
    outer loop
      vertex 65 52.3 13
      vertex 65 47.2103 7.65193
      vertex 65 47.4115 7.69069
    endloop
  endfacet
  facet normal 1 0 0
    outer loop
      vertex 65 52.3 13
      vertex 65 47.0279 7.6168
      vertex 65 47.2103 7.65193
    endloop
  endfacet
  facet normal 1 0 0
    outer loop
      vertex 65 52.3 13
      vertex 65 46.6697 7.47224
      vertex 65 47.0279 7.6168
    endloop
  endfacet
  facet normal 1 -0 0
    outer loop
      vertex 65 34.3 13
      vertex 65 46.6697 7.47224
      vertex 65 52.3 13
    endloop
  endfacet
  facet normal 1 0 0
    outer loop
      vertex 65 46.6697 7.47224
      vertex 65 34.3 13
      vertex 65 46.5011 7.36128
    endloop
  endfacet
  facet normal 1 0 0
    outer loop
      vertex 65 34.3 13
      vertex 65 46.2301 7.14021
      vertex 65 46.3524 7.26335
    endloop
  endfacet
  facet normal 1 0 0
    outer loop
      vertex 65 34.3 13
      vertex 65 45.9991 6.85641
      vertex 65 46.09 6.99923
    endloop
  endfacet
  facet normal 1 0 0
    outer loop
      vertex 65 34.3 13
      vertex 65 45.7507 6.16318
      vertex 65 45.7728 6.35345
    endloop
  endfacet
  facet normal 1 0 0
    outer loop
      vertex 65 45.7507 6.16318
      vertex 65 34.3 13
      vertex 65 45.7318 6
    endloop
  endfacet
  facet normal 1 0 0
    outer loop
      vertex 65 45.8379 6.53513
      vertex 65 34.3 13
      vertex 65 45.7728 6.35345
    endloop
  endfacet
  facet normal 1 0 0
    outer loop
      vertex 65 45.894 6.69145
      vertex 65 34.3 13
      vertex 65 45.8379 6.53513
    endloop
  endfacet
  facet normal 1 0 0
    outer loop
      vertex 65 45.9991 6.85641
      vertex 65 34.3 13
      vertex 65 45.894 6.69145
    endloop
  endfacet
  facet normal 1 0 0
    outer loop
      vertex 65 46.2301 7.14021
      vertex 65 34.3 13
      vertex 65 46.09 6.99923
    endloop
  endfacet
  facet normal 1 0 0
    outer loop
      vertex 65 46.5011 7.36128
      vertex 65 34.3 13
      vertex 65 46.3524 7.26335
    endloop
  endfacet
  facet normal 1 -0 0
    outer loop
      vertex 65 49.4423 5.64655
      vertex 65 52.3 0
      vertex 65 49.4833 6
    endloop
  endfacet
  facet normal 1 -0 0
    outer loop
      vertex 65 49.3812 5.47625
      vertex 65 52.3 0
      vertex 65 49.4423 5.64655
    endloop
  endfacet
  facet normal 1 -0 0
    outer loop
      vertex 65 49.3211 5.30855
      vertex 65 52.3 0
      vertex 65 49.3812 5.47625
    endloop
  endfacet
  facet normal 1 -0 0
    outer loop
      vertex 65 49.2241 5.1563
      vertex 65 52.3 0
      vertex 65 49.3211 5.30855
    endloop
  endfacet
  facet normal 1 -0 0
    outer loop
      vertex 65 49.125 5.00076
      vertex 65 52.3 0
      vertex 65 49.2241 5.1563
    endloop
  endfacet
  facet normal 1 -0 0
    outer loop
      vertex 65 48.9919 4.86672
      vertex 65 52.3 0
      vertex 65 49.125 5.00076
    endloop
  endfacet
  facet normal 1 -0 0
    outer loop
      vertex 65 48.8627 4.73665
      vertex 65 52.3 0
      vertex 65 48.9919 4.86672
    endloop
  endfacet
  facet normal 1 -0 0
    outer loop
      vertex 65 48.7073 4.63435
      vertex 65 52.3 0
      vertex 65 48.8627 4.73665
    endloop
  endfacet
  facet normal 1 -0 0
    outer loop
      vertex 65 48.5454 4.52776
      vertex 65 52.3 0
      vertex 65 48.7073 4.63435
    endloop
  endfacet
  facet normal 1 -0 0
    outer loop
      vertex 65 48.1872 4.3832
      vertex 65 52.3 0
      vertex 65 48.5454 4.52776
    endloop
  endfacet
  facet normal 1 -0 0
    outer loop
      vertex 65 47.9888 4.345
      vertex 65 52.3 0
      vertex 65 48.1872 4.3832
    endloop
  endfacet
  facet normal 1 -0 0
    outer loop
      vertex 65 47.8036 4.30931
      vertex 65 52.3 0
      vertex 65 47.9888 4.345
    endloop
  endfacet
  facet normal 1 -0 0
    outer loop
      vertex 65 47.4115 4.30931
      vertex 65 52.3 0
      vertex 65 47.8036 4.30931
    endloop
  endfacet
  facet normal 1 0 0
    outer loop
      vertex 65 47.2103 4.34807
      vertex 65 52.3 0
      vertex 65 47.4115 4.30931
    endloop
  endfacet
  facet normal 1 0 0
    outer loop
      vertex 65 47.0279 4.3832
      vertex 65 52.3 0
      vertex 65 47.2103 4.34807
    endloop
  endfacet
  facet normal 1 0 0
    outer loop
      vertex 65 34.3 0
      vertex 65 47.0279 4.3832
      vertex 65 46.6697 4.52776
    endloop
  endfacet
  facet normal 1 0 0
    outer loop
      vertex 65 34.3 0
      vertex 65 46.6697 4.52776
      vertex 65 46.5011 4.63872
    endloop
  endfacet
  facet normal 1 0 0
    outer loop
      vertex 65 34.3 0
      vertex 65 46.5011 4.63872
      vertex 65 46.3524 4.73665
    endloop
  endfacet
  facet normal 1 0 0
    outer loop
      vertex 65 34.3 0
      vertex 65 46.2301 4.85979
      vertex 65 46.09 5.00076
    endloop
  endfacet
  facet normal 1 0 0
    outer loop
      vertex 65 34.3 0
      vertex 65 45.9991 5.14358
      vertex 65 45.894 5.30855
    endloop
  endfacet
  facet normal 1 0 0
    outer loop
      vertex 65 34.3 0
      vertex 65 45.7507 5.83682
      vertex 65 45.7318 6
    endloop
  endfacet
  facet normal 1 0 0
    outer loop
      vertex 65 34.3 0
      vertex 65 45.7318 6
      vertex 65 34.3 13
    endloop
  endfacet
  facet normal 1 0 0
    outer loop
      vertex 65 45.7507 5.83682
      vertex 65 34.3 0
      vertex 65 45.7728 5.64655
    endloop
  endfacet
  facet normal 1 0 0
    outer loop
      vertex 65 45.7728 5.64655
      vertex 65 34.3 0
      vertex 65 45.8379 5.46487
    endloop
  endfacet
  facet normal 1 0 0
    outer loop
      vertex 65 45.8379 5.46487
      vertex 65 34.3 0
      vertex 65 45.894 5.30855
    endloop
  endfacet
  facet normal 1 0 0
    outer loop
      vertex 65 45.9991 5.14358
      vertex 65 34.3 0
      vertex 65 46.09 5.00076
    endloop
  endfacet
  facet normal 1 0 0
    outer loop
      vertex 65 46.2301 4.85979
      vertex 65 34.3 0
      vertex 65 46.3524 4.73665
    endloop
  endfacet
  facet normal 1 0 0
    outer loop
      vertex 65 47.0279 4.3832
      vertex 65 34.3 0
      vertex 65 52.3 0
    endloop
  endfacet
  facet normal -0 0 1
    outer loop
      vertex 58 52.3 13
      vertex 65 34.3 13
      vertex 65 52.3 13
    endloop
  endfacet
  facet normal 0 0 1
    outer loop
      vertex 65 34.3 13
      vertex 58 52.3 13
      vertex 58 34.3 13
    endloop
  endfacet
  facet normal 0 0 -1
    outer loop
      vertex 58 34.3 0
      vertex 65 52.3 0
      vertex 65 34.3 0
    endloop
  endfacet
  facet normal -0 0 -1
    outer loop
      vertex 65 52.3 0
      vertex 58 34.3 0
      vertex 58 52.3 0
    endloop
  endfacet
  facet normal -1 0 0
    outer loop
      vertex 58 52.3 0
      vertex 58 46.9756 6
      vertex 58 52.3 13
    endloop
  endfacet
  facet normal -1 0 0
    outer loop
      vertex 58 52.3 0
      vertex 58 46.9177 5.50101
      vertex 58 46.9756 6
    endloop
  endfacet
  facet normal -1 0 0
    outer loop
      vertex 58 52.3 0
      vertex 58 46.7467 5.02383
      vertex 58 46.9177 5.50101
    endloop
  endfacet
  facet normal -1 0 0
    outer loop
      vertex 58 52.3 0
      vertex 58 46.7372 5.009
      vertex 58 46.7467 5.02383
    endloop
  endfacet
  facet normal -1 0 0
    outer loop
      vertex 58 52.3 0
      vertex 58 46.4699 4.58931
      vertex 58 46.7372 5.009
    endloop
  endfacet
  facet normal -1 0 0
    outer loop
      vertex 58 52.3 0
      vertex 58 46.1143 4.23139
      vertex 58 46.4699 4.58931
    endloop
  endfacet
  facet normal -1 0 0
    outer loop
      vertex 58 52.3 0
      vertex 58 46.0994 4.21645
      vertex 58 46.1143 4.23139
    endloop
  endfacet
  facet normal -1 0 0
    outer loop
      vertex 58 52.3 0
      vertex 58 45.6515 3.92154
      vertex 58 46.0994 4.21645
    endloop
  endfacet
  facet normal -1 0 0
    outer loop
      vertex 58 52.3 0
      vertex 58 45.629 3.91242
      vertex 58 45.6515 3.92154
    endloop
  endfacet
  facet normal -1 0 0
    outer loop
      vertex 58 52.3 0
      vertex 58 45.1458 3.71746
      vertex 58 45.629 3.91242
    endloop
  endfacet
  facet normal -1 0 0
    outer loop
      vertex 58 52.3 0
      vertex 58 44.6336 3.61879
      vertex 58 45.1458 3.71746
    endloop
  endfacet
  facet normal -1 0 0
    outer loop
      vertex 58 52.3 0
      vertex 58 44.6043 3.61315
      vertex 58 44.6336 3.61879
    endloop
  endfacet
  facet normal -1 0 0
    outer loop
      vertex 58 52.3 0
      vertex 58 44.0507 3.61315
      vertex 58 44.6043 3.61315
    endloop
  endfacet
  facet normal -1 0 0
    outer loop
      vertex 58 34.3 0
      vertex 58 44.0507 3.61315
      vertex 58 52.3 0
    endloop
  endfacet
  facet normal -1 -0 0
    outer loop
      vertex 58 44.0507 3.61315
      vertex 58 34.3 0
      vertex 58 43.5441 3.71074
    endloop
  endfacet
  facet normal -1 -0 0
    outer loop
      vertex 58 43.5441 3.71074
      vertex 58 34.3 0
      vertex 58 43.5092 3.71746
    endloop
  endfacet
  facet normal -1 -0 0
    outer loop
      vertex 58 43.5092 3.71746
      vertex 58 34.3 0
      vertex 58 43.4762 3.73075
    endloop
  endfacet
  facet normal -1 0 0
    outer loop
      vertex 58 34.3 0
      vertex 58 42.5885 4.19476
      vertex 58 43.0034 3.92154
    endloop
  endfacet
  facet normal -1 0 0
    outer loop
      vertex 58 34.3 0
      vertex 58 42.2137 4.56057
      vertex 58 42.5556 4.21645
    endloop
  endfacet
  facet normal -1 0 0
    outer loop
      vertex 58 34.3 0
      vertex 58 42.1637 4.62302
      vertex 58 42.1851 4.58931
    endloop
  endfacet
  facet normal -1 -0 0
    outer loop
      vertex 58 41.7325 5.54177
      vertex 58 34.3 0
      vertex 58 41.6794 6
    endloop
  endfacet
  facet normal -1 -0 0
    outer loop
      vertex 58 41.7373 5.50101
      vertex 58 34.3 0
      vertex 58 41.7325 5.54177
    endloop
  endfacet
  facet normal -1 -0 0
    outer loop
      vertex 58 41.9083 5.02383
      vertex 58 34.3 0
      vertex 58 41.7373 5.50101
    endloop
  endfacet
  facet normal -1 -0 0
    outer loop
      vertex 58 42.1637 4.62302
      vertex 58 34.3 0
      vertex 58 41.9083 5.02383
    endloop
  endfacet
  facet normal -1 -0 0
    outer loop
      vertex 58 42.2137 4.56057
      vertex 58 34.3 0
      vertex 58 42.1851 4.58931
    endloop
  endfacet
  facet normal -1 -0 0
    outer loop
      vertex 58 42.5885 4.19476
      vertex 58 34.3 0
      vertex 58 42.5556 4.21645
    endloop
  endfacet
  facet normal -1 -0 0
    outer loop
      vertex 58 43.4762 3.73075
      vertex 58 34.3 0
      vertex 58 43.0034 3.92154
    endloop
  endfacet
  facet normal -1 0 0
    outer loop
      vertex 58 46.9177 6.49899
      vertex 58 52.3 13
      vertex 58 46.9756 6
    endloop
  endfacet
  facet normal -1 0 0
    outer loop
      vertex 58 46.7467 6.97617
      vertex 58 52.3 13
      vertex 58 46.9177 6.49899
    endloop
  endfacet
  facet normal -1 0 0
    outer loop
      vertex 58 46.7372 6.991
      vertex 58 52.3 13
      vertex 58 46.7467 6.97617
    endloop
  endfacet
  facet normal -1 0 0
    outer loop
      vertex 58 46.4699 7.41068
      vertex 58 52.3 13
      vertex 58 46.7372 6.991
    endloop
  endfacet
  facet normal -1 0 0
    outer loop
      vertex 58 46.1143 7.76861
      vertex 58 52.3 13
      vertex 58 46.4699 7.41068
    endloop
  endfacet
  facet normal -1 0 0
    outer loop
      vertex 58 46.0994 7.78355
      vertex 58 52.3 13
      vertex 58 46.1143 7.76861
    endloop
  endfacet
  facet normal -1 0 0
    outer loop
      vertex 58 45.6515 8.07846
      vertex 58 52.3 13
      vertex 58 46.0994 7.78355
    endloop
  endfacet
  facet normal -1 0 0
    outer loop
      vertex 58 45.629 8.08758
      vertex 58 52.3 13
      vertex 58 45.6515 8.07846
    endloop
  endfacet
  facet normal -1 0 0
    outer loop
      vertex 58 45.1458 8.28254
      vertex 58 52.3 13
      vertex 58 45.629 8.08758
    endloop
  endfacet
  facet normal -1 0 0
    outer loop
      vertex 58 44.6336 8.38121
      vertex 58 52.3 13
      vertex 58 45.1458 8.28254
    endloop
  endfacet
  facet normal -1 0 0
    outer loop
      vertex 58 44.6043 8.38685
      vertex 58 52.3 13
      vertex 58 44.6336 8.38121
    endloop
  endfacet
  facet normal -1 0 0
    outer loop
      vertex 58 44.0507 8.38685
      vertex 58 52.3 13
      vertex 58 44.6043 8.38685
    endloop
  endfacet
  facet normal -1 0 0
    outer loop
      vertex 58 34.3 13
      vertex 58 44.0507 8.38685
      vertex 58 43.5441 8.28926
    endloop
  endfacet
  facet normal -1 0 0
    outer loop
      vertex 58 34.3 13
      vertex 58 43.5441 8.28926
      vertex 58 43.5092 8.28254
    endloop
  endfacet
  facet normal -1 0 0
    outer loop
      vertex 58 34.3 13
      vertex 58 43.5092 8.28254
      vertex 58 43.4762 8.26925
    endloop
  endfacet
  facet normal -1 0 0
    outer loop
      vertex 58 34.3 13
      vertex 58 43.4762 8.26925
      vertex 58 43.0034 8.07846
    endloop
  endfacet
  facet normal -1 0 0
    outer loop
      vertex 58 34.3 13
      vertex 58 42.5885 7.80524
      vertex 58 42.5556 7.78355
    endloop
  endfacet
  facet normal -1 0 0
    outer loop
      vertex 58 34.3 13
      vertex 58 42.2137 7.43943
      vertex 58 42.1851 7.41068
    endloop
  endfacet
  facet normal -1 0 0
    outer loop
      vertex 58 34.3 13
      vertex 58 42.1637 7.37698
      vertex 58 41.9083 6.97617
    endloop
  endfacet
  facet normal -1 0 0
    outer loop
      vertex 58 34.3 13
      vertex 58 41.6794 6
      vertex 58 34.3 0
    endloop
  endfacet
  facet normal -1 0 0
    outer loop
      vertex 58 41.6794 6
      vertex 58 34.3 13
      vertex 58 41.7325 6.45823
    endloop
  endfacet
  facet normal -1 0 0
    outer loop
      vertex 58 41.7325 6.45823
      vertex 58 34.3 13
      vertex 58 41.7373 6.49899
    endloop
  endfacet
  facet normal -1 0 0
    outer loop
      vertex 58 41.7373 6.49899
      vertex 58 34.3 13
      vertex 58 41.9083 6.97617
    endloop
  endfacet
  facet normal -1 0 0
    outer loop
      vertex 58 42.1637 7.37698
      vertex 58 34.3 13
      vertex 58 42.1851 7.41068
    endloop
  endfacet
  facet normal -1 0 0
    outer loop
      vertex 58 44.0507 8.38685
      vertex 58 34.3 13
      vertex 58 52.3 13
    endloop
  endfacet
  facet normal -1 0 0
    outer loop
      vertex 58 42.5885 7.80524
      vertex 58 34.3 13
      vertex 58 43.0034 8.07846
    endloop
  endfacet
  facet normal -1 0 0
    outer loop
      vertex 58 42.2137 7.43943
      vertex 58 34.3 13
      vertex 58 42.5556 7.78355
    endloop
  endfacet
  facet normal 0 1 -0
    outer loop
      vertex 65 52.3 0
      vertex 58 52.3 13
      vertex 65 52.3 13
    endloop
  endfacet
  facet normal 0 1 0
    outer loop
      vertex 58 52.3 13
      vertex 65 52.3 0
      vertex 58 52.3 0
    endloop
  endfacet
  facet normal 0 -1 0
    outer loop
      vertex 58 34.3 0
      vertex 65 34.3 13
      vertex 58 34.3 13
    endloop
  endfacet
  facet normal 0 -1 -0
    outer loop
      vertex 65 34.3 13
      vertex 58 34.3 0
      vertex 65 34.3 0
    endloop
  endfacet
endsolid OpenSCAD_Model
