solid OpenSCAD_Model
  facet normal 0.951055 0.309022 0
    outer loop
      vertex -4.27082 -1.90149 -8.8
      vertex -4.57284 -0.971986 -22
      vertex -4.57284 -0.971986 -8.8
    endloop
  endfacet
  facet normal 0.951055 0.309022 0
    outer loop
      vertex -4.57284 -0.971986 -22
      vertex -4.27082 -1.90149 -8.8
      vertex -4.27082 -1.90149 -22
    endloop
  endfacet
  facet normal -0.951055 -0.309022 0
    outer loop
      vertex 4.57284 0.971986 -22
      vertex 4.27082 1.90149 -8.8
      vertex 4.27082 1.90149 -22
    endloop
  endfacet
  facet normal -0.951055 -0.309022 0
    outer loop
      vertex 4.27082 1.90149 -8.8
      vertex 4.57284 0.971986 -22
      vertex 4.57284 0.971986 -8.8
    endloop
  endfacet
  facet normal -0.994522 -0.104529 0
    outer loop
      vertex 4.675 0 -22
      vertex 4.57284 0.971986 -8.8
      vertex 4.57284 0.971986 -22
    endloop
  endfacet
  facet normal -0.994522 -0.104529 0
    outer loop
      vertex 4.57284 0.971986 -8.8
      vertex 4.675 0 -22
      vertex 4.675 0 -8.8
    endloop
  endfacet
  facet normal -0.866028 -0.499996 0
    outer loop
      vertex 4.27082 1.90149 -22
      vertex 3.78215 2.7479 -8.8
      vertex 3.78215 2.7479 -22
    endloop
  endfacet
  facet normal -0.866028 -0.499996 0
    outer loop
      vertex 3.78215 2.7479 -8.8
      vertex 4.27082 1.90149 -22
      vertex 4.27082 1.90149 -8.8
    endloop
  endfacet
  facet normal 0.866028 -0.499996 0
    outer loop
      vertex -4.27082 1.90149 -8.8
      vertex -3.78215 2.7479 -22
      vertex -3.78215 2.7479 -8.8
    endloop
  endfacet
  facet normal 0.866028 -0.499996 0
    outer loop
      vertex -3.78215 2.7479 -22
      vertex -4.27082 1.90149 -8.8
      vertex -4.27082 1.90149 -22
    endloop
  endfacet
  facet normal -0.58779 0.809013 0
    outer loop
      vertex 3.12818 -3.4742 -22
      vertex 2.3375 -4.04867 -8.8
      vertex 3.12818 -3.4742 -8.8
    endloop
  endfacet
  facet normal -0.58779 0.809013 0
    outer loop
      vertex 2.3375 -4.04867 -8.8
      vertex 3.12818 -3.4742 -22
      vertex 2.3375 -4.04867 -22
    endloop
  endfacet
  facet normal -0.406735 -0.913546 0
    outer loop
      vertex 1.44465 4.44619 -22
      vertex 2.3375 4.04867 -8.8
      vertex 1.44465 4.44619 -8.8
    endloop
  endfacet
  facet normal -0.406735 -0.913546 -0
    outer loop
      vertex 2.3375 4.04867 -8.8
      vertex 1.44465 4.44619 -22
      vertex 2.3375 4.04867 -22
    endloop
  endfacet
  facet normal -0.994522 0.104529 0
    outer loop
      vertex 4.57284 -0.971986 -22
      vertex 4.675 0 -8.8
      vertex 4.675 0 -22
    endloop
  endfacet
  facet normal -0.994522 0.104529 0
    outer loop
      vertex 4.675 0 -8.8
      vertex 4.57284 -0.971986 -22
      vertex 4.57284 -0.971986 -8.8
    endloop
  endfacet
  facet normal 0.743141 0.669134 0
    outer loop
      vertex -3.12818 -3.4742 -8.8
      vertex -3.78215 -2.7479 -22
      vertex -3.78215 -2.7479 -8.8
    endloop
  endfacet
  facet normal 0.743141 0.669134 0
    outer loop
      vertex -3.78215 -2.7479 -22
      vertex -3.12818 -3.4742 -8.8
      vertex -3.12818 -3.4742 -22
    endloop
  endfacet
  facet normal -0.743141 -0.669134 0
    outer loop
      vertex 3.78215 2.7479 -22
      vertex 3.12818 3.4742 -8.8
      vertex 3.12818 3.4742 -22
    endloop
  endfacet
  facet normal -0.743141 -0.669134 0
    outer loop
      vertex 3.12818 3.4742 -8.8
      vertex 3.78215 2.7479 -22
      vertex 3.78215 2.7479 -8.8
    endloop
  endfacet
  facet normal 0.743141 -0.669134 0
    outer loop
      vertex -3.78215 2.7479 -8.8
      vertex -3.12818 3.4742 -22
      vertex -3.12818 3.4742 -8.8
    endloop
  endfacet
  facet normal 0.743141 -0.669134 0
    outer loop
      vertex -3.12818 3.4742 -22
      vertex -3.78215 2.7479 -8.8
      vertex -3.78215 2.7479 -22
    endloop
  endfacet
  facet normal -0.743141 0.669134 0
    outer loop
      vertex 3.12818 -3.4742 -22
      vertex 3.78215 -2.7479 -8.8
      vertex 3.78215 -2.7479 -22
    endloop
  endfacet
  facet normal -0.743141 0.669134 0
    outer loop
      vertex 3.78215 -2.7479 -8.8
      vertex 3.12818 -3.4742 -22
      vertex 3.12818 -3.4742 -8.8
    endloop
  endfacet
  facet normal 0.994522 -0.104529 0
    outer loop
      vertex -4.675 0 -8.8
      vertex -4.57284 0.971986 -22
      vertex -4.57284 0.971986 -8.8
    endloop
  endfacet
  facet normal 0.994522 -0.104529 0
    outer loop
      vertex -4.57284 0.971986 -22
      vertex -4.675 0 -8.8
      vertex -4.675 0 -22
    endloop
  endfacet
  facet normal 0 0 -1
    outer loop
      vertex 4.125 0 -8.8
      vertex 4.675 0 -8.8
      vertex 4.57284 -0.971986 -8.8
    endloop
  endfacet
  facet normal 0 0 -1
    outer loop
      vertex 4.03486 -0.857636 -8.8
      vertex 4.57284 -0.971986 -8.8
      vertex 4.27082 -1.90149 -8.8
    endloop
  endfacet
  facet normal 0 0 -1
    outer loop
      vertex 4.675 0 -8.8
      vertex 4.125 0 -8.8
      vertex 4.57284 0.971986 -8.8
    endloop
  endfacet
  facet normal 0 0 -1
    outer loop
      vertex 4.03486 0.857636 -8.8
      vertex 4.57284 0.971986 -8.8
      vertex 4.125 0 -8.8
    endloop
  endfacet
  facet normal 0 0 -1
    outer loop
      vertex 4.57284 -0.971986 -8.8
      vertex 4.03486 -0.857636 -8.8
      vertex 4.125 0 -8.8
    endloop
  endfacet
  facet normal 0 0 -1
    outer loop
      vertex 3.76837 -1.67779 -8.8
      vertex 4.27082 -1.90149 -8.8
      vertex 3.78215 -2.7479 -8.8
    endloop
  endfacet
  facet normal 0 0 -1
    outer loop
      vertex 4.27082 -1.90149 -8.8
      vertex 3.76837 -1.67779 -8.8
      vertex 4.03486 -0.857636 -8.8
    endloop
  endfacet
  facet normal 0 0 -1
    outer loop
      vertex 3.78215 -2.7479 -8.8
      vertex 3.33719 -2.42461 -8.8
      vertex 3.76837 -1.67779 -8.8
    endloop
  endfacet
  facet normal 0 0 -1
    outer loop
      vertex 3.12818 -3.4742 -8.8
      vertex 3.33719 -2.42461 -8.8
      vertex 3.78215 -2.7479 -8.8
    endloop
  endfacet
  facet normal 0 0 -1
    outer loop
      vertex 3.12818 -3.4742 -8.8
      vertex 2.76016 -3.06547 -8.8
      vertex 3.33719 -2.42461 -8.8
    endloop
  endfacet
  facet normal 0 0 -1
    outer loop
      vertex 2.3375 -4.04867 -8.8
      vertex 2.76016 -3.06547 -8.8
      vertex 3.12818 -3.4742 -8.8
    endloop
  endfacet
  facet normal 0 0 -1
    outer loop
      vertex 2.3375 -4.04867 -8.8
      vertex 2.0625 -3.57235 -8.8
      vertex 2.76016 -3.06547 -8.8
    endloop
  endfacet
  facet normal 0 0 -1
    outer loop
      vertex 1.44465 -4.44619 -8.8
      vertex 2.0625 -3.57235 -8.8
      vertex 2.3375 -4.04867 -8.8
    endloop
  endfacet
  facet normal 0 0 -1
    outer loop
      vertex 1.44465 -4.44619 -8.8
      vertex 1.27469 -3.92311 -8.8
      vertex 2.0625 -3.57235 -8.8
    endloop
  endfacet
  facet normal 0 0 -1
    outer loop
      vertex 0.48867 -4.64939 -8.8
      vertex 1.27469 -3.92311 -8.8
      vertex 1.44465 -4.44619 -8.8
    endloop
  endfacet
  facet normal 0 0 -1
    outer loop
      vertex 0.48867 -4.64939 -8.8
      vertex 0.431179 -4.1024 -8.8
      vertex 1.27469 -3.92311 -8.8
    endloop
  endfacet
  facet normal 0 0 -1
    outer loop
      vertex 0.48867 -4.64939 -8.8
      vertex -0.431179 -4.1024 -8.8
      vertex 0.431179 -4.1024 -8.8
    endloop
  endfacet
  facet normal 0 0 -1
    outer loop
      vertex -0.48867 -4.64939 -8.8
      vertex -0.431179 -4.1024 -8.8
      vertex 0.48867 -4.64939 -8.8
    endloop
  endfacet
  facet normal 0 0 -1
    outer loop
      vertex -0.48867 -4.64939 -8.8
      vertex -1.27469 -3.92311 -8.8
      vertex -0.431179 -4.1024 -8.8
    endloop
  endfacet
  facet normal 0 0 -1
    outer loop
      vertex -1.44465 -4.44619 -8.8
      vertex -1.27469 -3.92311 -8.8
      vertex -0.48867 -4.64939 -8.8
    endloop
  endfacet
  facet normal 0 0 -1
    outer loop
      vertex -1.44465 -4.44619 -8.8
      vertex -2.0625 -3.57235 -8.8
      vertex -1.27469 -3.92311 -8.8
    endloop
  endfacet
  facet normal 0 0 -1
    outer loop
      vertex -2.3375 -4.04867 -8.8
      vertex -2.0625 -3.57235 -8.8
      vertex -1.44465 -4.44619 -8.8
    endloop
  endfacet
  facet normal 0 0 -1
    outer loop
      vertex -2.3375 -4.04867 -8.8
      vertex -2.76016 -3.06547 -8.8
      vertex -2.0625 -3.57235 -8.8
    endloop
  endfacet
  facet normal 0 0 -1
    outer loop
      vertex -3.12818 -3.4742 -8.8
      vertex -2.76016 -3.06547 -8.8
      vertex -2.3375 -4.04867 -8.8
    endloop
  endfacet
  facet normal 0 0 -1
    outer loop
      vertex -3.12818 -3.4742 -8.8
      vertex -3.33719 -2.42461 -8.8
      vertex -2.76016 -3.06547 -8.8
    endloop
  endfacet
  facet normal 0 0 -1
    outer loop
      vertex -3.78215 -2.7479 -8.8
      vertex -3.33719 -2.42461 -8.8
      vertex -3.12818 -3.4742 -8.8
    endloop
  endfacet
  facet normal -0 0 -1
    outer loop
      vertex -3.33719 -2.42461 -8.8
      vertex -3.78215 -2.7479 -8.8
      vertex -3.76837 -1.67779 -8.8
    endloop
  endfacet
  facet normal 0 0 -1
    outer loop
      vertex -4.27082 -1.90149 -8.8
      vertex -3.76837 -1.67779 -8.8
      vertex -3.78215 -2.7479 -8.8
    endloop
  endfacet
  facet normal 0 0 -1
    outer loop
      vertex -4.57284 -0.971986 -8.8
      vertex -4.03486 -0.857636 -8.8
      vertex -4.27082 -1.90149 -8.8
    endloop
  endfacet
  facet normal -0 0 -1
    outer loop
      vertex -3.76837 -1.67779 -8.8
      vertex -4.27082 -1.90149 -8.8
      vertex -4.03486 -0.857636 -8.8
    endloop
  endfacet
  facet normal -0 0 -1
    outer loop
      vertex 4.57284 0.971986 -8.8
      vertex 4.03486 0.857636 -8.8
      vertex 4.27082 1.90149 -8.8
    endloop
  endfacet
  facet normal 0 0 -1
    outer loop
      vertex 3.76837 1.67779 -8.8
      vertex 4.27082 1.90149 -8.8
      vertex 4.03486 0.857636 -8.8
    endloop
  endfacet
  facet normal -0 0 -1
    outer loop
      vertex 4.27082 1.90149 -8.8
      vertex 3.76837 1.67779 -8.8
      vertex 3.78215 2.7479 -8.8
    endloop
  endfacet
  facet normal 0 0 -1
    outer loop
      vertex 3.33719 2.42461 -8.8
      vertex 3.78215 2.7479 -8.8
      vertex 3.76837 1.67779 -8.8
    endloop
  endfacet
  facet normal 0 0 -1
    outer loop
      vertex 3.33719 2.42461 -8.8
      vertex 3.12818 3.4742 -8.8
      vertex 3.78215 2.7479 -8.8
    endloop
  endfacet
  facet normal 0 0 -1
    outer loop
      vertex 2.76016 3.06547 -8.8
      vertex 3.12818 3.4742 -8.8
      vertex 3.33719 2.42461 -8.8
    endloop
  endfacet
  facet normal 0 0 -1
    outer loop
      vertex 2.76016 3.06547 -8.8
      vertex 2.3375 4.04867 -8.8
      vertex 3.12818 3.4742 -8.8
    endloop
  endfacet
  facet normal 0 0 -1
    outer loop
      vertex 2.0625 3.57235 -8.8
      vertex 2.3375 4.04867 -8.8
      vertex 2.76016 3.06547 -8.8
    endloop
  endfacet
  facet normal 0 0 -1
    outer loop
      vertex 2.0625 3.57235 -8.8
      vertex 1.44465 4.44619 -8.8
      vertex 2.3375 4.04867 -8.8
    endloop
  endfacet
  facet normal 0 0 -1
    outer loop
      vertex 1.27469 3.92311 -8.8
      vertex 1.44465 4.44619 -8.8
      vertex 2.0625 3.57235 -8.8
    endloop
  endfacet
  facet normal 0 0 -1
    outer loop
      vertex 1.27469 3.92311 -8.8
      vertex 0.48867 4.64939 -8.8
      vertex 1.44465 4.44619 -8.8
    endloop
  endfacet
  facet normal 0 0 -1
    outer loop
      vertex 0.431179 4.1024 -8.8
      vertex 0.48867 4.64939 -8.8
      vertex 1.27469 3.92311 -8.8
    endloop
  endfacet
  facet normal 0 0 -1
    outer loop
      vertex -0.431179 4.1024 -8.8
      vertex 0.48867 4.64939 -8.8
      vertex 0.431179 4.1024 -8.8
    endloop
  endfacet
  facet normal 0 0 -1
    outer loop
      vertex -0.431179 4.1024 -8.8
      vertex -0.48867 4.64939 -8.8
      vertex 0.48867 4.64939 -8.8
    endloop
  endfacet
  facet normal 0 0 -1
    outer loop
      vertex -1.27469 3.92311 -8.8
      vertex -0.48867 4.64939 -8.8
      vertex -0.431179 4.1024 -8.8
    endloop
  endfacet
  facet normal 0 0 -1
    outer loop
      vertex -1.27469 3.92311 -8.8
      vertex -1.44465 4.44619 -8.8
      vertex -0.48867 4.64939 -8.8
    endloop
  endfacet
  facet normal 0 0 -1
    outer loop
      vertex -2.0625 3.57235 -8.8
      vertex -1.44465 4.44619 -8.8
      vertex -1.27469 3.92311 -8.8
    endloop
  endfacet
  facet normal 0 0 -1
    outer loop
      vertex -2.0625 3.57235 -8.8
      vertex -2.3375 4.04867 -8.8
      vertex -1.44465 4.44619 -8.8
    endloop
  endfacet
  facet normal 0 0 -1
    outer loop
      vertex -2.76016 3.06547 -8.8
      vertex -2.3375 4.04867 -8.8
      vertex -2.0625 3.57235 -8.8
    endloop
  endfacet
  facet normal 0 0 -1
    outer loop
      vertex -2.76016 3.06547 -8.8
      vertex -3.12818 3.4742 -8.8
      vertex -2.3375 4.04867 -8.8
    endloop
  endfacet
  facet normal 0 0 -1
    outer loop
      vertex -3.33719 2.42461 -8.8
      vertex -3.12818 3.4742 -8.8
      vertex -2.76016 3.06547 -8.8
    endloop
  endfacet
  facet normal 0 0 -1
    outer loop
      vertex -3.78215 2.7479 -8.8
      vertex -3.33719 2.42461 -8.8
      vertex -3.76837 1.67779 -8.8
    endloop
  endfacet
  facet normal 0 0 -1
    outer loop
      vertex -3.33719 2.42461 -8.8
      vertex -3.78215 2.7479 -8.8
      vertex -3.12818 3.4742 -8.8
    endloop
  endfacet
  facet normal 0 0 -1
    outer loop
      vertex -4.27082 1.90149 -8.8
      vertex -3.76837 1.67779 -8.8
      vertex -4.03486 0.857636 -8.8
    endloop
  endfacet
  facet normal 0 0 -1
    outer loop
      vertex -3.76837 1.67779 -8.8
      vertex -4.27082 1.90149 -8.8
      vertex -3.78215 2.7479 -8.8
    endloop
  endfacet
  facet normal 0 0 -1
    outer loop
      vertex -4.57284 0.971986 -8.8
      vertex -4.03486 0.857636 -8.8
      vertex -4.125 0 -8.8
    endloop
  endfacet
  facet normal -0 0 -1
    outer loop
      vertex -4.03486 -0.857636 -8.8
      vertex -4.57284 -0.971986 -8.8
      vertex -4.125 0 -8.8
    endloop
  endfacet
  facet normal 0 0 -1
    outer loop
      vertex -4.675 0 -8.8
      vertex -4.125 0 -8.8
      vertex -4.57284 -0.971986 -8.8
    endloop
  endfacet
  facet normal 0 0 -1
    outer loop
      vertex -4.03486 0.857636 -8.8
      vertex -4.57284 0.971986 -8.8
      vertex -4.27082 1.90149 -8.8
    endloop
  endfacet
  facet normal 0 0 -1
    outer loop
      vertex -4.125 0 -8.8
      vertex -4.675 0 -8.8
      vertex -4.57284 0.971986 -8.8
    endloop
  endfacet
  facet normal 0.406735 0.913546 -0
    outer loop
      vertex -1.44465 -4.44619 -22
      vertex -2.3375 -4.04867 -8.8
      vertex -1.44465 -4.44619 -8.8
    endloop
  endfacet
  facet normal 0.406735 0.913546 0
    outer loop
      vertex -2.3375 -4.04867 -8.8
      vertex -1.44465 -4.44619 -22
      vertex -2.3375 -4.04867 -22
    endloop
  endfacet
  facet normal 0 -1 0
    outer loop
      vertex -0.48867 4.64939 -22
      vertex 0.48867 4.64939 -8.8
      vertex -0.48867 4.64939 -8.8
    endloop
  endfacet
  facet normal 0 -1 -0
    outer loop
      vertex 0.48867 4.64939 -8.8
      vertex -0.48867 4.64939 -22
      vertex 0.48867 4.64939 -22
    endloop
  endfacet
  facet normal 0.58779 0.809013 -0
    outer loop
      vertex -2.3375 -4.04867 -22
      vertex -3.12818 -3.4742 -8.8
      vertex -2.3375 -4.04867 -8.8
    endloop
  endfacet
  facet normal 0.58779 0.809013 0
    outer loop
      vertex -3.12818 -3.4742 -8.8
      vertex -2.3375 -4.04867 -22
      vertex -3.12818 -3.4742 -22
    endloop
  endfacet
  facet normal -0.207912 0.978148 0
    outer loop
      vertex 1.44465 -4.44619 -22
      vertex 0.48867 -4.64939 -8.8
      vertex 1.44465 -4.44619 -8.8
    endloop
  endfacet
  facet normal -0.207912 0.978148 0
    outer loop
      vertex 0.48867 -4.64939 -8.8
      vertex 1.44465 -4.44619 -22
      vertex 0.48867 -4.64939 -22
    endloop
  endfacet
  facet normal -0.866028 0.499996 0
    outer loop
      vertex 3.78215 -2.7479 -22
      vertex 4.27082 -1.90149 -8.8
      vertex 4.27082 -1.90149 -22
    endloop
  endfacet
  facet normal -0.866028 0.499996 0
    outer loop
      vertex 4.27082 -1.90149 -8.8
      vertex 3.78215 -2.7479 -22
      vertex 3.78215 -2.7479 -8.8
    endloop
  endfacet
  facet normal 0.58779 -0.809013 0
    outer loop
      vertex -3.12818 3.4742 -22
      vertex -2.3375 4.04867 -8.8
      vertex -3.12818 3.4742 -8.8
    endloop
  endfacet
  facet normal 0.58779 -0.809013 0
    outer loop
      vertex -2.3375 4.04867 -8.8
      vertex -3.12818 3.4742 -22
      vertex -2.3375 4.04867 -22
    endloop
  endfacet
  facet normal 0.207912 0.978148 -0
    outer loop
      vertex -0.48867 -4.64939 -22
      vertex -1.44465 -4.44619 -8.8
      vertex -0.48867 -4.64939 -8.8
    endloop
  endfacet
  facet normal 0.207912 0.978148 0
    outer loop
      vertex -1.44465 -4.44619 -8.8
      vertex -0.48867 -4.64939 -22
      vertex -1.44465 -4.44619 -22
    endloop
  endfacet
  facet normal 0.994522 0.104529 0
    outer loop
      vertex -4.57284 -0.971986 -8.8
      vertex -4.675 0 -22
      vertex -4.675 0 -8.8
    endloop
  endfacet
  facet normal 0.994522 0.104529 0
    outer loop
      vertex -4.675 0 -22
      vertex -4.57284 -0.971986 -8.8
      vertex -4.57284 -0.971986 -22
    endloop
  endfacet
  facet normal 0.406735 -0.913546 0
    outer loop
      vertex -2.3375 4.04867 -22
      vertex -1.44465 4.44619 -8.8
      vertex -2.3375 4.04867 -8.8
    endloop
  endfacet
  facet normal 0.406735 -0.913546 0
    outer loop
      vertex -1.44465 4.44619 -8.8
      vertex -2.3375 4.04867 -22
      vertex -1.44465 4.44619 -22
    endloop
  endfacet
  facet normal 0.866028 0.499996 0
    outer loop
      vertex -3.78215 -2.7479 -8.8
      vertex -4.27082 -1.90149 -22
      vertex -4.27082 -1.90149 -8.8
    endloop
  endfacet
  facet normal 0.866028 0.499996 0
    outer loop
      vertex -4.27082 -1.90149 -22
      vertex -3.78215 -2.7479 -8.8
      vertex -3.78215 -2.7479 -22
    endloop
  endfacet
  facet normal -0.951055 0.309022 0
    outer loop
      vertex 4.27082 -1.90149 -22
      vertex 4.57284 -0.971986 -8.8
      vertex 4.57284 -0.971986 -22
    endloop
  endfacet
  facet normal -0.951055 0.309022 0
    outer loop
      vertex 4.57284 -0.971986 -8.8
      vertex 4.27082 -1.90149 -22
      vertex 4.27082 -1.90149 -8.8
    endloop
  endfacet
  facet normal -0.207912 -0.978148 0
    outer loop
      vertex 0.48867 4.64939 -22
      vertex 1.44465 4.44619 -8.8
      vertex 0.48867 4.64939 -8.8
    endloop
  endfacet
  facet normal -0.207912 -0.978148 -0
    outer loop
      vertex 1.44465 4.44619 -8.8
      vertex 0.48867 4.64939 -22
      vertex 1.44465 4.44619 -22
    endloop
  endfacet
  facet normal -0.58779 -0.809013 0
    outer loop
      vertex 2.3375 4.04867 -22
      vertex 3.12818 3.4742 -8.8
      vertex 2.3375 4.04867 -8.8
    endloop
  endfacet
  facet normal -0.58779 -0.809013 -0
    outer loop
      vertex 3.12818 3.4742 -8.8
      vertex 2.3375 4.04867 -22
      vertex 3.12818 3.4742 -22
    endloop
  endfacet
  facet normal 0.207912 -0.978148 0
    outer loop
      vertex -1.44465 4.44619 -22
      vertex -0.48867 4.64939 -8.8
      vertex -1.44465 4.44619 -8.8
    endloop
  endfacet
  facet normal 0.207912 -0.978148 0
    outer loop
      vertex -0.48867 4.64939 -8.8
      vertex -1.44465 4.44619 -22
      vertex -0.48867 4.64939 -22
    endloop
  endfacet
  facet normal -0.406735 0.913546 0
    outer loop
      vertex 2.3375 -4.04867 -22
      vertex 1.44465 -4.44619 -8.8
      vertex 2.3375 -4.04867 -8.8
    endloop
  endfacet
  facet normal -0.406735 0.913546 0
    outer loop
      vertex 1.44465 -4.44619 -8.8
      vertex 2.3375 -4.04867 -22
      vertex 1.44465 -4.44619 -22
    endloop
  endfacet
  facet normal 0 1 -0
    outer loop
      vertex 0.48867 -4.64939 -22
      vertex -0.48867 -4.64939 -8.8
      vertex 0.48867 -4.64939 -8.8
    endloop
  endfacet
  facet normal 0 1 0
    outer loop
      vertex -0.48867 -4.64939 -8.8
      vertex 0.48867 -4.64939 -22
      vertex -0.48867 -4.64939 -22
    endloop
  endfacet
  facet normal 0.951055 -0.309022 0
    outer loop
      vertex -4.57284 0.971986 -8.8
      vertex -4.27082 1.90149 -22
      vertex -4.27082 1.90149 -8.8
    endloop
  endfacet
  facet normal 0.951055 -0.309022 0
    outer loop
      vertex -4.27082 1.90149 -22
      vertex -4.57284 0.971986 -8.8
      vertex -4.57284 0.971986 -22
    endloop
  endfacet
  facet normal 0.743147 -0.669129 0
    outer loop
      vertex -3.33719 2.42461 2.75
      vertex -2.76016 3.06547 -8.8
      vertex -2.76016 3.06547 2.75
    endloop
  endfacet
  facet normal 0.743147 -0.669129 0
    outer loop
      vertex -2.76016 3.06547 -8.8
      vertex -3.33719 2.42461 2.75
      vertex -3.33719 2.42461 -8.8
    endloop
  endfacet
  facet normal -0.951055 -0.309023 0
    outer loop
      vertex 4.03486 0.857636 -8.8
      vertex 3.76837 1.67779 2.75
      vertex 3.76837 1.67779 -8.8
    endloop
  endfacet
  facet normal -0.951055 -0.309023 0
    outer loop
      vertex 3.76837 1.67779 2.75
      vertex 4.03486 0.857636 -8.8
      vertex 4.03486 0.857636 2.75
    endloop
  endfacet
  facet normal -0.994522 -0.104527 0
    outer loop
      vertex 4.125 0 -8.8
      vertex 4.03486 0.857636 2.75
      vertex 4.03486 0.857636 -8.8
    endloop
  endfacet
  facet normal -0.994522 -0.104527 0
    outer loop
      vertex 4.03486 0.857636 2.75
      vertex 4.125 0 -8.8
      vertex 4.125 0 2.75
    endloop
  endfacet
  facet normal -0.866024 -0.500003 0
    outer loop
      vertex 3.76837 1.67779 -8.8
      vertex 3.33719 2.42461 2.75
      vertex 3.33719 2.42461 -8.8
    endloop
  endfacet
  facet normal -0.866024 -0.500003 0
    outer loop
      vertex 3.33719 2.42461 2.75
      vertex 3.76837 1.67779 -8.8
      vertex 3.76837 1.67779 2.75
    endloop
  endfacet
  facet normal -0.951055 0.309023 0
    outer loop
      vertex 3.76837 -1.67779 -8.8
      vertex 4.03486 -0.857636 2.75
      vertex 4.03486 -0.857636 -8.8
    endloop
  endfacet
  facet normal -0.951055 0.309023 0
    outer loop
      vertex 4.03486 -0.857636 2.75
      vertex 3.76837 -1.67779 -8.8
      vertex 3.76837 -1.67779 2.75
    endloop
  endfacet
  facet normal 0.866024 0.500003 0
    outer loop
      vertex -3.33719 -2.42461 2.75
      vertex -3.76837 -1.67779 -8.8
      vertex -3.76837 -1.67779 2.75
    endloop
  endfacet
  facet normal 0.866024 0.500003 0
    outer loop
      vertex -3.76837 -1.67779 -8.8
      vertex -3.33719 -2.42461 2.75
      vertex -3.33719 -2.42461 -8.8
    endloop
  endfacet
  facet normal -0.994522 0.104527 0
    outer loop
      vertex 4.03486 -0.857636 -8.8
      vertex 4.125 0 2.75
      vertex 4.125 0 -8.8
    endloop
  endfacet
  facet normal -0.994522 0.104527 0
    outer loop
      vertex 4.125 0 2.75
      vertex 4.03486 -0.857636 -8.8
      vertex 4.03486 -0.857636 2.75
    endloop
  endfacet
  facet normal 0.587786 -0.809017 0
    outer loop
      vertex -2.76016 3.06547 -8.8
      vertex -2.0625 3.57235 2.75
      vertex -2.76016 3.06547 2.75
    endloop
  endfacet
  facet normal 0.587786 -0.809017 0
    outer loop
      vertex -2.0625 3.57235 2.75
      vertex -2.76016 3.06547 -8.8
      vertex -2.0625 3.57235 -8.8
    endloop
  endfacet
  facet normal -0.743147 -0.669129 0
    outer loop
      vertex 3.33719 2.42461 -8.8
      vertex 2.76016 3.06547 2.75
      vertex 2.76016 3.06547 -8.8
    endloop
  endfacet
  facet normal -0.743147 -0.669129 0
    outer loop
      vertex 2.76016 3.06547 2.75
      vertex 3.33719 2.42461 -8.8
      vertex 3.33719 2.42461 2.75
    endloop
  endfacet
  facet normal -0.406741 -0.913544 0
    outer loop
      vertex 1.27469 3.92311 -8.8
      vertex 2.0625 3.57235 2.75
      vertex 1.27469 3.92311 2.75
    endloop
  endfacet
  facet normal -0.406741 -0.913544 -0
    outer loop
      vertex 2.0625 3.57235 2.75
      vertex 1.27469 3.92311 -8.8
      vertex 2.0625 3.57235 -8.8
    endloop
  endfacet
  facet normal -0.743147 0.669129 0
    outer loop
      vertex 2.76016 -3.06547 -8.8
      vertex 3.33719 -2.42461 2.75
      vertex 3.33719 -2.42461 -8.8
    endloop
  endfacet
  facet normal -0.743147 0.669129 0
    outer loop
      vertex 3.33719 -2.42461 2.75
      vertex 2.76016 -3.06547 -8.8
      vertex 2.76016 -3.06547 2.75
    endloop
  endfacet
  facet normal 0.207907 0.978148 -0
    outer loop
      vertex -0.431179 -4.1024 -8.8
      vertex -1.27469 -3.92311 2.75
      vertex -0.431179 -4.1024 2.75
    endloop
  endfacet
  facet normal 0.207907 0.978148 0
    outer loop
      vertex -1.27469 -3.92311 2.75
      vertex -0.431179 -4.1024 -8.8
      vertex -1.27469 -3.92311 -8.8
    endloop
  endfacet
  facet normal -0.866024 0.500003 0
    outer loop
      vertex 3.33719 -2.42461 -8.8
      vertex 3.76837 -1.67779 2.75
      vertex 3.76837 -1.67779 -8.8
    endloop
  endfacet
  facet normal -0.866024 0.500003 0
    outer loop
      vertex 3.76837 -1.67779 2.75
      vertex 3.33719 -2.42461 -8.8
      vertex 3.33719 -2.42461 2.75
    endloop
  endfacet
  facet normal 0.406741 0.913544 -0
    outer loop
      vertex -1.27469 -3.92311 -8.8
      vertex -2.0625 -3.57235 2.75
      vertex -1.27469 -3.92311 2.75
    endloop
  endfacet
  facet normal 0.406741 0.913544 0
    outer loop
      vertex -2.0625 -3.57235 2.75
      vertex -1.27469 -3.92311 -8.8
      vertex -2.0625 -3.57235 -8.8
    endloop
  endfacet
  facet normal 0.406741 -0.913544 0
    outer loop
      vertex -2.0625 3.57235 -8.8
      vertex -1.27469 3.92311 2.75
      vertex -2.0625 3.57235 2.75
    endloop
  endfacet
  facet normal 0.406741 -0.913544 0
    outer loop
      vertex -1.27469 3.92311 2.75
      vertex -2.0625 3.57235 -8.8
      vertex -1.27469 3.92311 -8.8
    endloop
  endfacet
  facet normal 0.951055 -0.309023 0
    outer loop
      vertex -4.03486 0.857636 2.75
      vertex -3.76837 1.67779 -8.8
      vertex -3.76837 1.67779 2.75
    endloop
  endfacet
  facet normal 0.951055 -0.309023 0
    outer loop
      vertex -3.76837 1.67779 -8.8
      vertex -4.03486 0.857636 2.75
      vertex -4.03486 0.857636 -8.8
    endloop
  endfacet
  facet normal -0.207907 0.978148 0
    outer loop
      vertex 1.27469 -3.92311 -8.8
      vertex 0.431179 -4.1024 2.75
      vertex 1.27469 -3.92311 2.75
    endloop
  endfacet
  facet normal -0.207907 0.978148 0
    outer loop
      vertex 0.431179 -4.1024 2.75
      vertex 1.27469 -3.92311 -8.8
      vertex 0.431179 -4.1024 -8.8
    endloop
  endfacet
  facet normal -0.207907 -0.978148 0
    outer loop
      vertex 0.431179 4.1024 -8.8
      vertex 1.27469 3.92311 2.75
      vertex 0.431179 4.1024 2.75
    endloop
  endfacet
  facet normal -0.207907 -0.978148 -0
    outer loop
      vertex 1.27469 3.92311 2.75
      vertex 0.431179 4.1024 -8.8
      vertex 1.27469 3.92311 -8.8
    endloop
  endfacet
  facet normal -0.406741 0.913544 0
    outer loop
      vertex 2.0625 -3.57235 -8.8
      vertex 1.27469 -3.92311 2.75
      vertex 2.0625 -3.57235 2.75
    endloop
  endfacet
  facet normal -0.406741 0.913544 0
    outer loop
      vertex 1.27469 -3.92311 2.75
      vertex 2.0625 -3.57235 -8.8
      vertex 1.27469 -3.92311 -8.8
    endloop
  endfacet
  facet normal 0.951055 0.309023 0
    outer loop
      vertex -3.76837 -1.67779 2.75
      vertex -4.03486 -0.857636 -8.8
      vertex -4.03486 -0.857636 2.75
    endloop
  endfacet
  facet normal 0.951055 0.309023 0
    outer loop
      vertex -4.03486 -0.857636 -8.8
      vertex -3.76837 -1.67779 2.75
      vertex -3.76837 -1.67779 -8.8
    endloop
  endfacet
  facet normal 0.994522 -0.104527 0
    outer loop
      vertex -4.125 0 2.75
      vertex -4.03486 0.857636 -8.8
      vertex -4.03486 0.857636 2.75
    endloop
  endfacet
  facet normal 0.994522 -0.104527 0
    outer loop
      vertex -4.03486 0.857636 -8.8
      vertex -4.125 0 2.75
      vertex -4.125 0 -8.8
    endloop
  endfacet
  facet normal 0.207907 -0.978148 0
    outer loop
      vertex -1.27469 3.92311 -8.8
      vertex -0.431179 4.1024 2.75
      vertex -1.27469 3.92311 2.75
    endloop
  endfacet
  facet normal 0.207907 -0.978148 0
    outer loop
      vertex -0.431179 4.1024 2.75
      vertex -1.27469 3.92311 -8.8
      vertex -0.431179 4.1024 -8.8
    endloop
  endfacet
  facet normal -0.587786 -0.809017 0
    outer loop
      vertex 2.0625 3.57235 -8.8
      vertex 2.76016 3.06547 2.75
      vertex 2.0625 3.57235 2.75
    endloop
  endfacet
  facet normal -0.587786 -0.809017 -0
    outer loop
      vertex 2.76016 3.06547 2.75
      vertex 2.0625 3.57235 -8.8
      vertex 2.76016 3.06547 -8.8
    endloop
  endfacet
  facet normal 0 0 -1
    outer loop
      vertex 4 0 2.75
      vertex 4.125 0 2.75
      vertex 4.03486 -0.857636 2.75
    endloop
  endfacet
  facet normal 0 0 -1
    outer loop
      vertex 4.125 0 2.75
      vertex 4 0 2.75
      vertex 4.03486 0.857636 2.75
    endloop
  endfacet
  facet normal 0 0 -1
    outer loop
      vertex 4.03486 -0.857636 2.75
      vertex 3.91259 -0.831646 2.75
      vertex 4 0 2.75
    endloop
  endfacet
  facet normal 0 0 -1
    outer loop
      vertex 3.76837 -1.67779 2.75
      vertex 3.91259 -0.831646 2.75
      vertex 4.03486 -0.857636 2.75
    endloop
  endfacet
  facet normal 0 0 -1
    outer loop
      vertex 3.76837 -1.67779 2.75
      vertex 3.65418 -1.62695 2.75
      vertex 3.91259 -0.831646 2.75
    endloop
  endfacet
  facet normal 0 0 -1
    outer loop
      vertex 3.33719 -2.42461 2.75
      vertex 3.65418 -1.62695 2.75
      vertex 3.76837 -1.67779 2.75
    endloop
  endfacet
  facet normal 0 0 -1
    outer loop
      vertex 3.33719 -2.42461 2.75
      vertex 3.23607 -2.35114 2.75
      vertex 3.65418 -1.62695 2.75
    endloop
  endfacet
  facet normal 0 0 -1
    outer loop
      vertex 2.76016 -3.06547 2.75
      vertex 3.23607 -2.35114 2.75
      vertex 3.33719 -2.42461 2.75
    endloop
  endfacet
  facet normal 0 0 -1
    outer loop
      vertex 2.76016 -3.06547 2.75
      vertex 2.67652 -2.97258 2.75
      vertex 3.23607 -2.35114 2.75
    endloop
  endfacet
  facet normal 0 0 -1
    outer loop
      vertex 2.0625 -3.57235 2.75
      vertex 2.67652 -2.97258 2.75
      vertex 2.76016 -3.06547 2.75
    endloop
  endfacet
  facet normal 0 0 -1
    outer loop
      vertex 2.0625 -3.57235 2.75
      vertex 2 -3.4641 2.75
      vertex 2.67652 -2.97258 2.75
    endloop
  endfacet
  facet normal 0 0 -1
    outer loop
      vertex 1.27469 -3.92311 2.75
      vertex 2 -3.4641 2.75
      vertex 2.0625 -3.57235 2.75
    endloop
  endfacet
  facet normal 0 0 -1
    outer loop
      vertex 1.27469 -3.92311 2.75
      vertex 1.23607 -3.80423 2.75
      vertex 2 -3.4641 2.75
    endloop
  endfacet
  facet normal 0 0 -1
    outer loop
      vertex 0.431179 -4.1024 2.75
      vertex 1.23607 -3.80423 2.75
      vertex 1.27469 -3.92311 2.75
    endloop
  endfacet
  facet normal 0 0 -1
    outer loop
      vertex 0.431179 -4.1024 2.75
      vertex 0.418114 -3.97809 2.75
      vertex 1.23607 -3.80423 2.75
    endloop
  endfacet
  facet normal 0 0 -1
    outer loop
      vertex 0.431179 -4.1024 2.75
      vertex -0.418114 -3.97809 2.75
      vertex 0.418114 -3.97809 2.75
    endloop
  endfacet
  facet normal 0 0 -1
    outer loop
      vertex -0.431179 -4.1024 2.75
      vertex -0.418114 -3.97809 2.75
      vertex 0.431179 -4.1024 2.75
    endloop
  endfacet
  facet normal 0 0 -1
    outer loop
      vertex -0.431179 -4.1024 2.75
      vertex -1.23607 -3.80423 2.75
      vertex -0.418114 -3.97809 2.75
    endloop
  endfacet
  facet normal 0 0 -1
    outer loop
      vertex -1.27469 -3.92311 2.75
      vertex -1.23607 -3.80423 2.75
      vertex -0.431179 -4.1024 2.75
    endloop
  endfacet
  facet normal 0 0 -1
    outer loop
      vertex -1.27469 -3.92311 2.75
      vertex -2 -3.4641 2.75
      vertex -1.23607 -3.80423 2.75
    endloop
  endfacet
  facet normal 0 0 -1
    outer loop
      vertex -2.0625 -3.57235 2.75
      vertex -2 -3.4641 2.75
      vertex -1.27469 -3.92311 2.75
    endloop
  endfacet
  facet normal 0 0 -1
    outer loop
      vertex -2.0625 -3.57235 2.75
      vertex -2.67652 -2.97258 2.75
      vertex -2 -3.4641 2.75
    endloop
  endfacet
  facet normal 0 0 -1
    outer loop
      vertex -2.76016 -3.06547 2.75
      vertex -2.67652 -2.97258 2.75
      vertex -2.0625 -3.57235 2.75
    endloop
  endfacet
  facet normal 0 0 -1
    outer loop
      vertex -2.76016 -3.06547 2.75
      vertex -3.23607 -2.35114 2.75
      vertex -2.67652 -2.97258 2.75
    endloop
  endfacet
  facet normal 0 0 -1
    outer loop
      vertex -3.33719 -2.42461 2.75
      vertex -3.23607 -2.35114 2.75
      vertex -2.76016 -3.06547 2.75
    endloop
  endfacet
  facet normal 0 0 -1
    outer loop
      vertex -3.33719 -2.42461 2.75
      vertex -3.65418 -1.62695 2.75
      vertex -3.23607 -2.35114 2.75
    endloop
  endfacet
  facet normal 0 0 -1
    outer loop
      vertex -3.76837 -1.67779 2.75
      vertex -3.65418 -1.62695 2.75
      vertex -3.33719 -2.42461 2.75
    endloop
  endfacet
  facet normal 0 0 -1
    outer loop
      vertex -3.76837 -1.67779 2.75
      vertex -3.91259 -0.831646 2.75
      vertex -3.65418 -1.62695 2.75
    endloop
  endfacet
  facet normal -0 0 -1
    outer loop
      vertex -3.91259 -0.831646 2.75
      vertex -4.03486 -0.857636 2.75
      vertex -4 0 2.75
    endloop
  endfacet
  facet normal 0 0 -1
    outer loop
      vertex -4.03486 -0.857636 2.75
      vertex -3.91259 -0.831646 2.75
      vertex -3.76837 -1.67779 2.75
    endloop
  endfacet
  facet normal 0 0 -1
    outer loop
      vertex 3.91259 0.831646 2.75
      vertex 4.03486 0.857636 2.75
      vertex 4 0 2.75
    endloop
  endfacet
  facet normal 0 0 -1
    outer loop
      vertex 3.91259 0.831646 2.75
      vertex 3.76837 1.67779 2.75
      vertex 4.03486 0.857636 2.75
    endloop
  endfacet
  facet normal 0 0 -1
    outer loop
      vertex 3.65418 1.62695 2.75
      vertex 3.76837 1.67779 2.75
      vertex 3.91259 0.831646 2.75
    endloop
  endfacet
  facet normal 0 0 -1
    outer loop
      vertex 3.65418 1.62695 2.75
      vertex 3.33719 2.42461 2.75
      vertex 3.76837 1.67779 2.75
    endloop
  endfacet
  facet normal 0 0 -1
    outer loop
      vertex 3.23607 2.35114 2.75
      vertex 3.33719 2.42461 2.75
      vertex 3.65418 1.62695 2.75
    endloop
  endfacet
  facet normal 0 0 -1
    outer loop
      vertex 3.23607 2.35114 2.75
      vertex 2.76016 3.06547 2.75
      vertex 3.33719 2.42461 2.75
    endloop
  endfacet
  facet normal 0 0 -1
    outer loop
      vertex 2.67652 2.97258 2.75
      vertex 2.76016 3.06547 2.75
      vertex 3.23607 2.35114 2.75
    endloop
  endfacet
  facet normal 0 0 -1
    outer loop
      vertex 2.67652 2.97258 2.75
      vertex 2.0625 3.57235 2.75
      vertex 2.76016 3.06547 2.75
    endloop
  endfacet
  facet normal 0 0 -1
    outer loop
      vertex 2 3.4641 2.75
      vertex 2.0625 3.57235 2.75
      vertex 2.67652 2.97258 2.75
    endloop
  endfacet
  facet normal 0 0 -1
    outer loop
      vertex 2 3.4641 2.75
      vertex 1.27469 3.92311 2.75
      vertex 2.0625 3.57235 2.75
    endloop
  endfacet
  facet normal 0 0 -1
    outer loop
      vertex 1.23607 3.80423 2.75
      vertex 1.27469 3.92311 2.75
      vertex 2 3.4641 2.75
    endloop
  endfacet
  facet normal 0 0 -1
    outer loop
      vertex 1.23607 3.80423 2.75
      vertex 0.431179 4.1024 2.75
      vertex 1.27469 3.92311 2.75
    endloop
  endfacet
  facet normal 0 0 -1
    outer loop
      vertex 0.418114 3.97809 2.75
      vertex 0.431179 4.1024 2.75
      vertex 1.23607 3.80423 2.75
    endloop
  endfacet
  facet normal 0 0 -1
    outer loop
      vertex -0.418114 3.97809 2.75
      vertex 0.431179 4.1024 2.75
      vertex 0.418114 3.97809 2.75
    endloop
  endfacet
  facet normal 0 0 -1
    outer loop
      vertex -0.418114 3.97809 2.75
      vertex -0.431179 4.1024 2.75
      vertex 0.431179 4.1024 2.75
    endloop
  endfacet
  facet normal 0 0 -1
    outer loop
      vertex -1.23607 3.80423 2.75
      vertex -0.431179 4.1024 2.75
      vertex -0.418114 3.97809 2.75
    endloop
  endfacet
  facet normal 0 0 -1
    outer loop
      vertex -1.23607 3.80423 2.75
      vertex -1.27469 3.92311 2.75
      vertex -0.431179 4.1024 2.75
    endloop
  endfacet
  facet normal 0 0 -1
    outer loop
      vertex -2 3.4641 2.75
      vertex -1.27469 3.92311 2.75
      vertex -1.23607 3.80423 2.75
    endloop
  endfacet
  facet normal 0 0 -1
    outer loop
      vertex -2 3.4641 2.75
      vertex -2.0625 3.57235 2.75
      vertex -1.27469 3.92311 2.75
    endloop
  endfacet
  facet normal 0 0 -1
    outer loop
      vertex -2.67652 2.97258 2.75
      vertex -2.0625 3.57235 2.75
      vertex -2 3.4641 2.75
    endloop
  endfacet
  facet normal 0 0 -1
    outer loop
      vertex -2.67652 2.97258 2.75
      vertex -2.76016 3.06547 2.75
      vertex -2.0625 3.57235 2.75
    endloop
  endfacet
  facet normal 0 0 -1
    outer loop
      vertex -3.23607 2.35114 2.75
      vertex -2.76016 3.06547 2.75
      vertex -2.67652 2.97258 2.75
    endloop
  endfacet
  facet normal 0 0 -1
    outer loop
      vertex -3.23607 2.35114 2.75
      vertex -3.33719 2.42461 2.75
      vertex -2.76016 3.06547 2.75
    endloop
  endfacet
  facet normal 0 0 -1
    outer loop
      vertex -3.65418 1.62695 2.75
      vertex -3.33719 2.42461 2.75
      vertex -3.23607 2.35114 2.75
    endloop
  endfacet
  facet normal 0 0 -1
    outer loop
      vertex -3.65418 1.62695 2.75
      vertex -3.76837 1.67779 2.75
      vertex -3.33719 2.42461 2.75
    endloop
  endfacet
  facet normal 0 0 -1
    outer loop
      vertex -3.91259 0.831646 2.75
      vertex -3.76837 1.67779 2.75
      vertex -3.65418 1.62695 2.75
    endloop
  endfacet
  facet normal 0 0 -1
    outer loop
      vertex -3.91259 0.831646 2.75
      vertex -4.03486 0.857636 2.75
      vertex -3.76837 1.67779 2.75
    endloop
  endfacet
  facet normal 0 0 -1
    outer loop
      vertex -4 0 2.75
      vertex -4.03486 0.857636 2.75
      vertex -3.91259 0.831646 2.75
    endloop
  endfacet
  facet normal 0 0 -1
    outer loop
      vertex -4.125 0 2.75
      vertex -4 0 2.75
      vertex -4.03486 -0.857636 2.75
    endloop
  endfacet
  facet normal 0 0 -1
    outer loop
      vertex -4 0 2.75
      vertex -4.125 0 2.75
      vertex -4.03486 0.857636 2.75
    endloop
  endfacet
  facet normal -0.587786 0.809017 0
    outer loop
      vertex 2.76016 -3.06547 -8.8
      vertex 2.0625 -3.57235 2.75
      vertex 2.76016 -3.06547 2.75
    endloop
  endfacet
  facet normal -0.587786 0.809017 0
    outer loop
      vertex 2.0625 -3.57235 2.75
      vertex 2.76016 -3.06547 -8.8
      vertex 2.0625 -3.57235 -8.8
    endloop
  endfacet
  facet normal 0.994522 0.104527 0
    outer loop
      vertex -4.03486 -0.857636 2.75
      vertex -4.125 0 -8.8
      vertex -4.125 0 2.75
    endloop
  endfacet
  facet normal 0.994522 0.104527 0
    outer loop
      vertex -4.125 0 -8.8
      vertex -4.03486 -0.857636 2.75
      vertex -4.03486 -0.857636 -8.8
    endloop
  endfacet
  facet normal 0 1 -0
    outer loop
      vertex 0.431179 -4.1024 -8.8
      vertex -0.431179 -4.1024 2.75
      vertex 0.431179 -4.1024 2.75
    endloop
  endfacet
  facet normal 0 1 0
    outer loop
      vertex -0.431179 -4.1024 2.75
      vertex 0.431179 -4.1024 -8.8
      vertex -0.431179 -4.1024 -8.8
    endloop
  endfacet
  facet normal 0 -1 0
    outer loop
      vertex -0.431179 4.1024 -8.8
      vertex 0.431179 4.1024 2.75
      vertex -0.431179 4.1024 2.75
    endloop
  endfacet
  facet normal 0 -1 -0
    outer loop
      vertex 0.431179 4.1024 2.75
      vertex -0.431179 4.1024 -8.8
      vertex 0.431179 4.1024 -8.8
    endloop
  endfacet
  facet normal 0.743147 0.669129 0
    outer loop
      vertex -2.76016 -3.06547 2.75
      vertex -3.33719 -2.42461 -8.8
      vertex -3.33719 -2.42461 2.75
    endloop
  endfacet
  facet normal 0.743147 0.669129 0
    outer loop
      vertex -3.33719 -2.42461 -8.8
      vertex -2.76016 -3.06547 2.75
      vertex -2.76016 -3.06547 -8.8
    endloop
  endfacet
  facet normal 0.587786 0.809017 -0
    outer loop
      vertex -2.0625 -3.57235 -8.8
      vertex -2.76016 -3.06547 2.75
      vertex -2.0625 -3.57235 2.75
    endloop
  endfacet
  facet normal 0.587786 0.809017 0
    outer loop
      vertex -2.76016 -3.06547 2.75
      vertex -2.0625 -3.57235 -8.8
      vertex -2.76016 -3.06547 -8.8
    endloop
  endfacet
  facet normal 0.866024 -0.500003 0
    outer loop
      vertex -3.76837 1.67779 2.75
      vertex -3.33719 2.42461 -8.8
      vertex -3.33719 2.42461 2.75
    endloop
  endfacet
  facet normal 0.866024 -0.500003 0
    outer loop
      vertex -3.33719 2.42461 -8.8
      vertex -3.76837 1.67779 2.75
      vertex -3.76837 1.67779 -8.8
    endloop
  endfacet
  facet normal -0.743141 0.669135 0
    outer loop
      vertex -5.66312 4.1145 -22
      vertex -4.68391 5.20201 8
      vertex -4.68391 5.20201 -22
    endloop
  endfacet
  facet normal -0.743141 0.669135 0
    outer loop
      vertex -4.68391 5.20201 8
      vertex -5.66312 4.1145 -22
      vertex -5.66312 4.1145 8
    endloop
  endfacet
  facet normal 0.951058 0.309013 0
    outer loop
      vertex 6.84703 1.45538 8
      vertex 6.39482 2.84716 -22
      vertex 6.39482 2.84716 8
    endloop
  endfacet
  facet normal 0.951058 0.309013 0
    outer loop
      vertex 6.39482 2.84716 -22
      vertex 6.84703 1.45538 8
      vertex 6.84703 1.45538 -22
    endloop
  endfacet
  facet normal 0.994522 0.104531 0
    outer loop
      vertex 7 0 8
      vertex 6.84703 1.45538 -22
      vertex 6.84703 1.45538 8
    endloop
  endfacet
  facet normal 0.994522 0.104531 0
    outer loop
      vertex 6.84703 1.45538 -22
      vertex 7 0 8
      vertex 7 0 -22
    endloop
  endfacet
  facet normal 0.866025 0.5 0
    outer loop
      vertex 6.39482 2.84716 8
      vertex 5.66312 4.1145 -22
      vertex 5.66312 4.1145 8
    endloop
  endfacet
  facet normal 0.866025 0.5 0
    outer loop
      vertex 5.66312 4.1145 -22
      vertex 6.39482 2.84716 8
      vertex 6.39482 2.84716 -22
    endloop
  endfacet
  facet normal 0.951058 -0.309013 0
    outer loop
      vertex 6.39482 -2.84716 8
      vertex 6.84703 -1.45538 -22
      vertex 6.84703 -1.45538 8
    endloop
  endfacet
  facet normal 0.951058 -0.309013 0
    outer loop
      vertex 6.84703 -1.45538 -22
      vertex 6.39482 -2.84716 8
      vertex 6.39482 -2.84716 -22
    endloop
  endfacet
  facet normal -0.866025 -0.5 0
    outer loop
      vertex -5.66312 -4.1145 -22
      vertex -6.39482 -2.84716 8
      vertex -6.39482 -2.84716 -22
    endloop
  endfacet
  facet normal -0.866025 -0.5 0
    outer loop
      vertex -6.39482 -2.84716 8
      vertex -5.66312 -4.1145 -22
      vertex -5.66312 -4.1145 8
    endloop
  endfacet
  facet normal 0.994522 -0.104531 0
    outer loop
      vertex 6.84703 -1.45538 8
      vertex 7 0 -22
      vertex 7 0 8
    endloop
  endfacet
  facet normal 0.994522 -0.104531 0
    outer loop
      vertex 7 0 -22
      vertex 6.84703 -1.45538 8
      vertex 6.84703 -1.45538 -22
    endloop
  endfacet
  facet normal -0.587789 0.809014 0
    outer loop
      vertex -3.5 6.06218 -22
      vertex -4.68391 5.20201 8
      vertex -3.5 6.06218 8
    endloop
  endfacet
  facet normal -0.587789 0.809014 0
    outer loop
      vertex -4.68391 5.20201 8
      vertex -3.5 6.06218 -22
      vertex -4.68391 5.20201 -22
    endloop
  endfacet
  facet normal 0.743141 0.669135 0
    outer loop
      vertex 5.66312 4.1145 8
      vertex 4.68391 5.20201 -22
      vertex 4.68391 5.20201 8
    endloop
  endfacet
  facet normal 0.743141 0.669135 0
    outer loop
      vertex 4.68391 5.20201 -22
      vertex 5.66312 4.1145 8
      vertex 5.66312 4.1145 -22
    endloop
  endfacet
  facet normal 0.406738 0.913545 -0
    outer loop
      vertex 3.5 6.06218 -22
      vertex 2.16312 6.6574 8
      vertex 3.5 6.06218 8
    endloop
  endfacet
  facet normal 0.406738 0.913545 0
    outer loop
      vertex 2.16312 6.6574 8
      vertex 3.5 6.06218 -22
      vertex 2.16312 6.6574 -22
    endloop
  endfacet
  facet normal 0.743141 -0.669135 0
    outer loop
      vertex 4.68391 -5.20201 8
      vertex 5.66312 -4.1145 -22
      vertex 5.66312 -4.1145 8
    endloop
  endfacet
  facet normal 0.743141 -0.669135 0
    outer loop
      vertex 5.66312 -4.1145 -22
      vertex 4.68391 -5.20201 8
      vertex 4.68391 -5.20201 -22
    endloop
  endfacet
  facet normal -0.207907 -0.978149 0
    outer loop
      vertex -2.16312 -6.6574 -22
      vertex -0.731699 -6.96165 8
      vertex -2.16312 -6.6574 8
    endloop
  endfacet
  facet normal -0.207907 -0.978149 -0
    outer loop
      vertex -0.731699 -6.96165 8
      vertex -2.16312 -6.6574 -22
      vertex -0.731699 -6.96165 -22
    endloop
  endfacet
  facet normal 0.866025 -0.5 0
    outer loop
      vertex 5.66312 -4.1145 8
      vertex 6.39482 -2.84716 -22
      vertex 6.39482 -2.84716 8
    endloop
  endfacet
  facet normal 0.866025 -0.5 0
    outer loop
      vertex 6.39482 -2.84716 -22
      vertex 5.66312 -4.1145 8
      vertex 5.66312 -4.1145 -22
    endloop
  endfacet
  facet normal -0.406738 -0.913545 0
    outer loop
      vertex -3.5 -6.06218 -22
      vertex -2.16312 -6.6574 8
      vertex -3.5 -6.06218 8
    endloop
  endfacet
  facet normal -0.406738 -0.913545 -0
    outer loop
      vertex -2.16312 -6.6574 8
      vertex -3.5 -6.06218 -22
      vertex -2.16312 -6.6574 -22
    endloop
  endfacet
  facet normal -0.406738 0.913545 0
    outer loop
      vertex -2.16312 6.6574 -22
      vertex -3.5 6.06218 8
      vertex -2.16312 6.6574 8
    endloop
  endfacet
  facet normal -0.406738 0.913545 0
    outer loop
      vertex -3.5 6.06218 8
      vertex -2.16312 6.6574 -22
      vertex -3.5 6.06218 -22
    endloop
  endfacet
  facet normal -0.951058 0.309013 0
    outer loop
      vertex -6.84703 1.45538 -22
      vertex -6.39482 2.84716 8
      vertex -6.39482 2.84716 -22
    endloop
  endfacet
  facet normal -0.951058 0.309013 0
    outer loop
      vertex -6.39482 2.84716 8
      vertex -6.84703 1.45538 -22
      vertex -6.84703 1.45538 8
    endloop
  endfacet
  facet normal 0.207907 -0.978149 0
    outer loop
      vertex 0.731699 -6.96165 -22
      vertex 2.16312 -6.6574 8
      vertex 0.731699 -6.96165 8
    endloop
  endfacet
  facet normal 0.207907 -0.978149 0
    outer loop
      vertex 2.16312 -6.6574 8
      vertex 0.731699 -6.96165 -22
      vertex 2.16312 -6.6574 -22
    endloop
  endfacet
  facet normal 0.207907 0.978149 -0
    outer loop
      vertex 2.16312 6.6574 -22
      vertex 0.731699 6.96165 8
      vertex 2.16312 6.6574 8
    endloop
  endfacet
  facet normal 0.207907 0.978149 0
    outer loop
      vertex 0.731699 6.96165 8
      vertex 2.16312 6.6574 -22
      vertex 0.731699 6.96165 -22
    endloop
  endfacet
  facet normal 0.406738 -0.913545 0
    outer loop
      vertex 2.16312 -6.6574 -22
      vertex 3.5 -6.06218 8
      vertex 2.16312 -6.6574 8
    endloop
  endfacet
  facet normal 0.406738 -0.913545 0
    outer loop
      vertex 3.5 -6.06218 8
      vertex 2.16312 -6.6574 -22
      vertex 3.5 -6.06218 -22
    endloop
  endfacet
  facet normal -0.951058 -0.309013 0
    outer loop
      vertex -6.39482 -2.84716 -22
      vertex -6.84703 -1.45538 8
      vertex -6.84703 -1.45538 -22
    endloop
  endfacet
  facet normal -0.951058 -0.309013 0
    outer loop
      vertex -6.84703 -1.45538 8
      vertex -6.39482 -2.84716 -22
      vertex -6.39482 -2.84716 8
    endloop
  endfacet
  facet normal -0.994522 0.104531 0
    outer loop
      vertex -7 0 -22
      vertex -6.84703 1.45538 8
      vertex -6.84703 1.45538 -22
    endloop
  endfacet
  facet normal -0.994522 0.104531 0
    outer loop
      vertex -6.84703 1.45538 8
      vertex -7 0 -22
      vertex -7 0 8
    endloop
  endfacet
  facet normal -0.207907 0.978149 0
    outer loop
      vertex -0.731699 6.96165 -22
      vertex -2.16312 6.6574 8
      vertex -0.731699 6.96165 8
    endloop
  endfacet
  facet normal -0.207907 0.978149 0
    outer loop
      vertex -2.16312 6.6574 8
      vertex -0.731699 6.96165 -22
      vertex -2.16312 6.6574 -22
    endloop
  endfacet
  facet normal 0.587789 0.809014 -0
    outer loop
      vertex 4.68391 5.20201 -22
      vertex 3.5 6.06218 8
      vertex 4.68391 5.20201 8
    endloop
  endfacet
  facet normal 0.587789 0.809014 0
    outer loop
      vertex 3.5 6.06218 8
      vertex 4.68391 5.20201 -22
      vertex 3.5 6.06218 -22
    endloop
  endfacet
  facet normal 0 0 1
    outer loop
      vertex 4 0 8
      vertex 7 0 8
      vertex 6.84703 1.45538 8
    endloop
  endfacet
  facet normal 0 0 1
    outer loop
      vertex 3.91259 0.831646 8
      vertex 6.84703 1.45538 8
      vertex 6.39482 2.84716 8
    endloop
  endfacet
  facet normal 0 0 1
    outer loop
      vertex 7 0 8
      vertex 4 0 8
      vertex 6.84703 -1.45538 8
    endloop
  endfacet
  facet normal 0 0 1
    outer loop
      vertex 3.65418 1.62695 8
      vertex 6.39482 2.84716 8
      vertex 5.66312 4.1145 8
    endloop
  endfacet
  facet normal -0 0 1
    outer loop
      vertex 3.91259 -0.831646 8
      vertex 6.84703 -1.45538 8
      vertex 4 0 8
    endloop
  endfacet
  facet normal 0 0 1
    outer loop
      vertex 3.23607 2.35114 8
      vertex 5.66312 4.1145 8
      vertex 4.68391 5.20201 8
    endloop
  endfacet
  facet normal 0 0 1
    outer loop
      vertex 6.84703 -1.45538 8
      vertex 3.91259 -0.831646 8
      vertex 6.39482 -2.84716 8
    endloop
  endfacet
  facet normal -0 0 1
    outer loop
      vertex 3.65418 -1.62695 8
      vertex 6.39482 -2.84716 8
      vertex 3.91259 -0.831646 8
    endloop
  endfacet
  facet normal 0 0 1
    outer loop
      vertex 6.84703 1.45538 8
      vertex 3.91259 0.831646 8
      vertex 4 0 8
    endloop
  endfacet
  facet normal 0 0 1
    outer loop
      vertex 6.39482 2.84716 8
      vertex 3.65418 1.62695 8
      vertex 3.91259 0.831646 8
    endloop
  endfacet
  facet normal 0 0 1
    outer loop
      vertex 2.67652 2.97258 8
      vertex 4.68391 5.20201 8
      vertex 3.5 6.06218 8
    endloop
  endfacet
  facet normal 0 0 1
    outer loop
      vertex 5.66312 4.1145 8
      vertex 3.23607 2.35114 8
      vertex 3.65418 1.62695 8
    endloop
  endfacet
  facet normal 0 0 1
    outer loop
      vertex 4.68391 5.20201 8
      vertex 2.67652 2.97258 8
      vertex 3.23607 2.35114 8
    endloop
  endfacet
  facet normal 0 0 1
    outer loop
      vertex 2 3.4641 8
      vertex 3.5 6.06218 8
      vertex 2.16312 6.6574 8
    endloop
  endfacet
  facet normal 0 0 1
    outer loop
      vertex 3.5 6.06218 8
      vertex 2 3.4641 8
      vertex 2.67652 2.97258 8
    endloop
  endfacet
  facet normal 0 0 1
    outer loop
      vertex 2.16312 6.6574 8
      vertex 1.23607 3.80423 8
      vertex 2 3.4641 8
    endloop
  endfacet
  facet normal 0 0 1
    outer loop
      vertex 0.731699 6.96165 8
      vertex 1.23607 3.80423 8
      vertex 2.16312 6.6574 8
    endloop
  endfacet
  facet normal 0 0 1
    outer loop
      vertex 0.731699 6.96165 8
      vertex 0.418114 3.97809 8
      vertex 1.23607 3.80423 8
    endloop
  endfacet
  facet normal 0 0 1
    outer loop
      vertex 0.731699 6.96165 8
      vertex -0.418114 3.97809 8
      vertex 0.418114 3.97809 8
    endloop
  endfacet
  facet normal -0 0 1
    outer loop
      vertex -0.731699 6.96165 8
      vertex -0.418114 3.97809 8
      vertex 0.731699 6.96165 8
    endloop
  endfacet
  facet normal 0 0 1
    outer loop
      vertex -0.731699 6.96165 8
      vertex -1.23607 3.80423 8
      vertex -0.418114 3.97809 8
    endloop
  endfacet
  facet normal -0 0 1
    outer loop
      vertex -2.16312 6.6574 8
      vertex -1.23607 3.80423 8
      vertex -0.731699 6.96165 8
    endloop
  endfacet
  facet normal 0 0 1
    outer loop
      vertex -1.23607 3.80423 8
      vertex -2.16312 6.6574 8
      vertex -2 3.4641 8
    endloop
  endfacet
  facet normal -0 0 1
    outer loop
      vertex -3.5 6.06218 8
      vertex -2 3.4641 8
      vertex -2.16312 6.6574 8
    endloop
  endfacet
  facet normal 0 0 1
    outer loop
      vertex -2 3.4641 8
      vertex -3.5 6.06218 8
      vertex -2.67652 2.97258 8
    endloop
  endfacet
  facet normal -0 0 1
    outer loop
      vertex -4.68391 5.20201 8
      vertex -2.67652 2.97258 8
      vertex -3.5 6.06218 8
    endloop
  endfacet
  facet normal 0 0 1
    outer loop
      vertex -2.67652 2.97258 8
      vertex -4.68391 5.20201 8
      vertex -3.23607 2.35114 8
    endloop
  endfacet
  facet normal -0 0 1
    outer loop
      vertex -5.66312 4.1145 8
      vertex -3.23607 2.35114 8
      vertex -4.68391 5.20201 8
    endloop
  endfacet
  facet normal 0 0 1
    outer loop
      vertex -3.23607 2.35114 8
      vertex -5.66312 4.1145 8
      vertex -3.65418 1.62695 8
    endloop
  endfacet
  facet normal -0 0 1
    outer loop
      vertex -6.39482 2.84716 8
      vertex -3.65418 1.62695 8
      vertex -5.66312 4.1145 8
    endloop
  endfacet
  facet normal 0 0 1
    outer loop
      vertex 6.39482 -2.84716 8
      vertex 3.65418 -1.62695 8
      vertex 5.66312 -4.1145 8
    endloop
  endfacet
  facet normal -0 0 1
    outer loop
      vertex 3.23607 -2.35114 8
      vertex 5.66312 -4.1145 8
      vertex 3.65418 -1.62695 8
    endloop
  endfacet
  facet normal 0 0 1
    outer loop
      vertex 5.66312 -4.1145 8
      vertex 3.23607 -2.35114 8
      vertex 4.68391 -5.20201 8
    endloop
  endfacet
  facet normal -0 0 1
    outer loop
      vertex 2.67652 -2.97258 8
      vertex 4.68391 -5.20201 8
      vertex 3.23607 -2.35114 8
    endloop
  endfacet
  facet normal 0 0 1
    outer loop
      vertex 4.68391 -5.20201 8
      vertex 2.67652 -2.97258 8
      vertex 3.5 -6.06218 8
    endloop
  endfacet
  facet normal -0 0 1
    outer loop
      vertex 2 -3.4641 8
      vertex 3.5 -6.06218 8
      vertex 2.67652 -2.97258 8
    endloop
  endfacet
  facet normal 0 0 1
    outer loop
      vertex 3.5 -6.06218 8
      vertex 2 -3.4641 8
      vertex 2.16312 -6.6574 8
    endloop
  endfacet
  facet normal -0 0 1
    outer loop
      vertex 1.23607 -3.80423 8
      vertex 2.16312 -6.6574 8
      vertex 2 -3.4641 8
    endloop
  endfacet
  facet normal 0 0 1
    outer loop
      vertex 1.23607 -3.80423 8
      vertex 0.731699 -6.96165 8
      vertex 2.16312 -6.6574 8
    endloop
  endfacet
  facet normal -0 0 1
    outer loop
      vertex 0.418114 -3.97809 8
      vertex 0.731699 -6.96165 8
      vertex 1.23607 -3.80423 8
    endloop
  endfacet
  facet normal -0 0 1
    outer loop
      vertex -0.418114 -3.97809 8
      vertex 0.731699 -6.96165 8
      vertex 0.418114 -3.97809 8
    endloop
  endfacet
  facet normal 0 0 1
    outer loop
      vertex -0.418114 -3.97809 8
      vertex -0.731699 -6.96165 8
      vertex 0.731699 -6.96165 8
    endloop
  endfacet
  facet normal 0 0 1
    outer loop
      vertex -1.23607 -3.80423 8
      vertex -0.731699 -6.96165 8
      vertex -0.418114 -3.97809 8
    endloop
  endfacet
  facet normal 0 0 1
    outer loop
      vertex -2.16312 -6.6574 8
      vertex -1.23607 -3.80423 8
      vertex -2 -3.4641 8
    endloop
  endfacet
  facet normal 0 0 1
    outer loop
      vertex -1.23607 -3.80423 8
      vertex -2.16312 -6.6574 8
      vertex -0.731699 -6.96165 8
    endloop
  endfacet
  facet normal 0 0 1
    outer loop
      vertex -3.5 -6.06218 8
      vertex -2 -3.4641 8
      vertex -2.67652 -2.97258 8
    endloop
  endfacet
  facet normal 0 0 1
    outer loop
      vertex -4.68391 -5.20201 8
      vertex -2.67652 -2.97258 8
      vertex -3.23607 -2.35114 8
    endloop
  endfacet
  facet normal 0 0 1
    outer loop
      vertex -2 -3.4641 8
      vertex -3.5 -6.06218 8
      vertex -2.16312 -6.6574 8
    endloop
  endfacet
  facet normal 0 0 1
    outer loop
      vertex -5.66312 -4.1145 8
      vertex -3.23607 -2.35114 8
      vertex -3.65418 -1.62695 8
    endloop
  endfacet
  facet normal 0 0 1
    outer loop
      vertex -6.39482 -2.84716 8
      vertex -3.65418 -1.62695 8
      vertex -3.91259 -0.831646 8
    endloop
  endfacet
  facet normal 0 0 1
    outer loop
      vertex -6.84703 -1.45538 8
      vertex -3.91259 -0.831646 8
      vertex -4 0 8
    endloop
  endfacet
  facet normal 0 0 1
    outer loop
      vertex -3.65418 1.62695 8
      vertex -6.39482 2.84716 8
      vertex -3.91259 0.831646 8
    endloop
  endfacet
  facet normal 0 0 1
    outer loop
      vertex -2.67652 -2.97258 8
      vertex -4.68391 -5.20201 8
      vertex -3.5 -6.06218 8
    endloop
  endfacet
  facet normal -0 0 1
    outer loop
      vertex -6.84703 1.45538 8
      vertex -3.91259 0.831646 8
      vertex -6.39482 2.84716 8
    endloop
  endfacet
  facet normal 0 0 1
    outer loop
      vertex -3.23607 -2.35114 8
      vertex -5.66312 -4.1145 8
      vertex -4.68391 -5.20201 8
    endloop
  endfacet
  facet normal 0 0 1
    outer loop
      vertex -3.91259 0.831646 8
      vertex -6.84703 1.45538 8
      vertex -4 0 8
    endloop
  endfacet
  facet normal 0 0 1
    outer loop
      vertex -3.65418 -1.62695 8
      vertex -6.39482 -2.84716 8
      vertex -5.66312 -4.1145 8
    endloop
  endfacet
  facet normal 0 0 1
    outer loop
      vertex -7 0 8
      vertex -4 0 8
      vertex -6.84703 1.45538 8
    endloop
  endfacet
  facet normal 0 0 1
    outer loop
      vertex -3.91259 -0.831646 8
      vertex -6.84703 -1.45538 8
      vertex -6.39482 -2.84716 8
    endloop
  endfacet
  facet normal 0 0 1
    outer loop
      vertex -4 0 8
      vertex -7 0 8
      vertex -6.84703 -1.45538 8
    endloop
  endfacet
  facet normal 0.587789 -0.809014 0
    outer loop
      vertex 3.5 -6.06218 -22
      vertex 4.68391 -5.20201 8
      vertex 3.5 -6.06218 8
    endloop
  endfacet
  facet normal 0.587789 -0.809014 0
    outer loop
      vertex 4.68391 -5.20201 8
      vertex 3.5 -6.06218 -22
      vertex 4.68391 -5.20201 -22
    endloop
  endfacet
  facet normal -0.994522 -0.104531 0
    outer loop
      vertex -6.84703 -1.45538 -22
      vertex -7 0 8
      vertex -7 0 -22
    endloop
  endfacet
  facet normal -0.994522 -0.104531 0
    outer loop
      vertex -7 0 8
      vertex -6.84703 -1.45538 -22
      vertex -6.84703 -1.45538 8
    endloop
  endfacet
  facet normal 0 -1 0
    outer loop
      vertex -0.731699 -6.96165 -22
      vertex 0.731699 -6.96165 8
      vertex -0.731699 -6.96165 8
    endloop
  endfacet
  facet normal 0 -1 -0
    outer loop
      vertex 0.731699 -6.96165 8
      vertex -0.731699 -6.96165 -22
      vertex 0.731699 -6.96165 -22
    endloop
  endfacet
  facet normal 0 0 -1
    outer loop
      vertex 4.675 0 -22
      vertex 7 0 -22
      vertex 6.84703 -1.45538 -22
    endloop
  endfacet
  facet normal 0 0 -1
    outer loop
      vertex 4.57284 -0.971986 -22
      vertex 6.84703 -1.45538 -22
      vertex 6.39482 -2.84716 -22
    endloop
  endfacet
  facet normal 0 0 -1
    outer loop
      vertex 7 0 -22
      vertex 4.675 0 -22
      vertex 6.84703 1.45538 -22
    endloop
  endfacet
  facet normal 0 0 -1
    outer loop
      vertex 4.27082 -1.90149 -22
      vertex 6.39482 -2.84716 -22
      vertex 5.66312 -4.1145 -22
    endloop
  endfacet
  facet normal 0 0 -1
    outer loop
      vertex 4.57284 0.971986 -22
      vertex 6.84703 1.45538 -22
      vertex 4.675 0 -22
    endloop
  endfacet
  facet normal 0 0 -1
    outer loop
      vertex 3.78215 -2.7479 -22
      vertex 5.66312 -4.1145 -22
      vertex 4.68391 -5.20201 -22
    endloop
  endfacet
  facet normal -0 0 -1
    outer loop
      vertex 6.84703 1.45538 -22
      vertex 4.57284 0.971986 -22
      vertex 6.39482 2.84716 -22
    endloop
  endfacet
  facet normal 0 0 -1
    outer loop
      vertex 4.27082 1.90149 -22
      vertex 6.39482 2.84716 -22
      vertex 4.57284 0.971986 -22
    endloop
  endfacet
  facet normal 0 0 -1
    outer loop
      vertex 6.84703 -1.45538 -22
      vertex 4.57284 -0.971986 -22
      vertex 4.675 0 -22
    endloop
  endfacet
  facet normal 0 0 -1
    outer loop
      vertex 6.39482 -2.84716 -22
      vertex 4.27082 -1.90149 -22
      vertex 4.57284 -0.971986 -22
    endloop
  endfacet
  facet normal 0 0 -1
    outer loop
      vertex 5.66312 -4.1145 -22
      vertex 3.78215 -2.7479 -22
      vertex 4.27082 -1.90149 -22
    endloop
  endfacet
  facet normal 0 0 -1
    outer loop
      vertex 3.12818 -3.4742 -22
      vertex 4.68391 -5.20201 -22
      vertex 3.5 -6.06218 -22
    endloop
  endfacet
  facet normal 0 0 -1
    outer loop
      vertex 4.68391 -5.20201 -22
      vertex 3.12818 -3.4742 -22
      vertex 3.78215 -2.7479 -22
    endloop
  endfacet
  facet normal 0 0 -1
    outer loop
      vertex 3.5 -6.06218 -22
      vertex 2.3375 -4.04867 -22
      vertex 3.12818 -3.4742 -22
    endloop
  endfacet
  facet normal 0 0 -1
    outer loop
      vertex 2.16312 -6.6574 -22
      vertex 2.3375 -4.04867 -22
      vertex 3.5 -6.06218 -22
    endloop
  endfacet
  facet normal 0 0 -1
    outer loop
      vertex 2.16312 -6.6574 -22
      vertex 1.44465 -4.44619 -22
      vertex 2.3375 -4.04867 -22
    endloop
  endfacet
  facet normal 0 0 -1
    outer loop
      vertex 0.731699 -6.96165 -22
      vertex 1.44465 -4.44619 -22
      vertex 2.16312 -6.6574 -22
    endloop
  endfacet
  facet normal 0 0 -1
    outer loop
      vertex 0.731699 -6.96165 -22
      vertex 0.48867 -4.64939 -22
      vertex 1.44465 -4.44619 -22
    endloop
  endfacet
  facet normal 0 0 -1
    outer loop
      vertex 0.731699 -6.96165 -22
      vertex -0.48867 -4.64939 -22
      vertex 0.48867 -4.64939 -22
    endloop
  endfacet
  facet normal 0 0 -1
    outer loop
      vertex -0.731699 -6.96165 -22
      vertex -0.48867 -4.64939 -22
      vertex 0.731699 -6.96165 -22
    endloop
  endfacet
  facet normal 0 0 -1
    outer loop
      vertex -0.731699 -6.96165 -22
      vertex -1.44465 -4.44619 -22
      vertex -0.48867 -4.64939 -22
    endloop
  endfacet
  facet normal 0 0 -1
    outer loop
      vertex -2.16312 -6.6574 -22
      vertex -1.44465 -4.44619 -22
      vertex -0.731699 -6.96165 -22
    endloop
  endfacet
  facet normal 0 0 -1
    outer loop
      vertex -2.16312 -6.6574 -22
      vertex -2.3375 -4.04867 -22
      vertex -1.44465 -4.44619 -22
    endloop
  endfacet
  facet normal 0 0 -1
    outer loop
      vertex -3.5 -6.06218 -22
      vertex -2.3375 -4.04867 -22
      vertex -2.16312 -6.6574 -22
    endloop
  endfacet
  facet normal -0 0 -1
    outer loop
      vertex -2.3375 -4.04867 -22
      vertex -3.5 -6.06218 -22
      vertex -3.12818 -3.4742 -22
    endloop
  endfacet
  facet normal 0 0 -1
    outer loop
      vertex -4.68391 -5.20201 -22
      vertex -3.12818 -3.4742 -22
      vertex -3.5 -6.06218 -22
    endloop
  endfacet
  facet normal -0 0 -1
    outer loop
      vertex -3.12818 -3.4742 -22
      vertex -4.68391 -5.20201 -22
      vertex -3.78215 -2.7479 -22
    endloop
  endfacet
  facet normal 0 0 -1
    outer loop
      vertex -5.66312 -4.1145 -22
      vertex -3.78215 -2.7479 -22
      vertex -4.68391 -5.20201 -22
    endloop
  endfacet
  facet normal 0 0 -1
    outer loop
      vertex -6.39482 -2.84716 -22
      vertex -4.27082 -1.90149 -22
      vertex -5.66312 -4.1145 -22
    endloop
  endfacet
  facet normal -0 0 -1
    outer loop
      vertex -3.78215 -2.7479 -22
      vertex -5.66312 -4.1145 -22
      vertex -4.27082 -1.90149 -22
    endloop
  endfacet
  facet normal -0 0 -1
    outer loop
      vertex 6.39482 2.84716 -22
      vertex 4.27082 1.90149 -22
      vertex 5.66312 4.1145 -22
    endloop
  endfacet
  facet normal 0 0 -1
    outer loop
      vertex 3.78215 2.7479 -22
      vertex 5.66312 4.1145 -22
      vertex 4.27082 1.90149 -22
    endloop
  endfacet
  facet normal -0 0 -1
    outer loop
      vertex 5.66312 4.1145 -22
      vertex 3.78215 2.7479 -22
      vertex 4.68391 5.20201 -22
    endloop
  endfacet
  facet normal 0 0 -1
    outer loop
      vertex 3.12818 3.4742 -22
      vertex 4.68391 5.20201 -22
      vertex 3.78215 2.7479 -22
    endloop
  endfacet
  facet normal -0 0 -1
    outer loop
      vertex 4.68391 5.20201 -22
      vertex 3.12818 3.4742 -22
      vertex 3.5 6.06218 -22
    endloop
  endfacet
  facet normal 0 0 -1
    outer loop
      vertex 2.3375 4.04867 -22
      vertex 3.5 6.06218 -22
      vertex 3.12818 3.4742 -22
    endloop
  endfacet
  facet normal 0 0 -1
    outer loop
      vertex 2.3375 4.04867 -22
      vertex 2.16312 6.6574 -22
      vertex 3.5 6.06218 -22
    endloop
  endfacet
  facet normal 0 0 -1
    outer loop
      vertex 1.44465 4.44619 -22
      vertex 2.16312 6.6574 -22
      vertex 2.3375 4.04867 -22
    endloop
  endfacet
  facet normal 0 0 -1
    outer loop
      vertex 1.44465 4.44619 -22
      vertex 0.731699 6.96165 -22
      vertex 2.16312 6.6574 -22
    endloop
  endfacet
  facet normal 0 0 -1
    outer loop
      vertex 0.48867 4.64939 -22
      vertex 0.731699 6.96165 -22
      vertex 1.44465 4.44619 -22
    endloop
  endfacet
  facet normal 0 0 -1
    outer loop
      vertex -0.48867 4.64939 -22
      vertex 0.731699 6.96165 -22
      vertex 0.48867 4.64939 -22
    endloop
  endfacet
  facet normal 0 0 -1
    outer loop
      vertex -0.48867 4.64939 -22
      vertex -0.731699 6.96165 -22
      vertex 0.731699 6.96165 -22
    endloop
  endfacet
  facet normal 0 0 -1
    outer loop
      vertex -1.44465 4.44619 -22
      vertex -0.731699 6.96165 -22
      vertex -0.48867 4.64939 -22
    endloop
  endfacet
  facet normal 0 0 -1
    outer loop
      vertex -1.44465 4.44619 -22
      vertex -2.16312 6.6574 -22
      vertex -0.731699 6.96165 -22
    endloop
  endfacet
  facet normal 0 0 -1
    outer loop
      vertex -2.3375 4.04867 -22
      vertex -2.16312 6.6574 -22
      vertex -1.44465 4.44619 -22
    endloop
  endfacet
  facet normal 0 0 -1
    outer loop
      vertex -3.5 6.06218 -22
      vertex -2.3375 4.04867 -22
      vertex -3.12818 3.4742 -22
    endloop
  endfacet
  facet normal 0 0 -1
    outer loop
      vertex -2.3375 4.04867 -22
      vertex -3.5 6.06218 -22
      vertex -2.16312 6.6574 -22
    endloop
  endfacet
  facet normal 0 0 -1
    outer loop
      vertex -4.68391 5.20201 -22
      vertex -3.12818 3.4742 -22
      vertex -3.78215 2.7479 -22
    endloop
  endfacet
  facet normal 0 0 -1
    outer loop
      vertex -5.66312 4.1145 -22
      vertex -3.78215 2.7479 -22
      vertex -4.27082 1.90149 -22
    endloop
  endfacet
  facet normal 0 0 -1
    outer loop
      vertex -6.39482 2.84716 -22
      vertex -4.27082 1.90149 -22
      vertex -4.57284 0.971986 -22
    endloop
  endfacet
  facet normal 0 0 -1
    outer loop
      vertex -3.12818 3.4742 -22
      vertex -4.68391 5.20201 -22
      vertex -3.5 6.06218 -22
    endloop
  endfacet
  facet normal 0 0 -1
    outer loop
      vertex -6.84703 1.45538 -22
      vertex -4.57284 0.971986 -22
      vertex -4.675 0 -22
    endloop
  endfacet
  facet normal -0 0 -1
    outer loop
      vertex -4.27082 -1.90149 -22
      vertex -6.39482 -2.84716 -22
      vertex -4.57284 -0.971986 -22
    endloop
  endfacet
  facet normal 0 0 -1
    outer loop
      vertex -6.84703 -1.45538 -22
      vertex -4.57284 -0.971986 -22
      vertex -6.39482 -2.84716 -22
    endloop
  endfacet
  facet normal 0 0 -1
    outer loop
      vertex -3.78215 2.7479 -22
      vertex -5.66312 4.1145 -22
      vertex -4.68391 5.20201 -22
    endloop
  endfacet
  facet normal -0 0 -1
    outer loop
      vertex -4.57284 -0.971986 -22
      vertex -6.84703 -1.45538 -22
      vertex -4.675 0 -22
    endloop
  endfacet
  facet normal 0 0 -1
    outer loop
      vertex -4.27082 1.90149 -22
      vertex -6.39482 2.84716 -22
      vertex -5.66312 4.1145 -22
    endloop
  endfacet
  facet normal 0 0 -1
    outer loop
      vertex -7 0 -22
      vertex -4.675 0 -22
      vertex -6.84703 -1.45538 -22
    endloop
  endfacet
  facet normal 0 0 -1
    outer loop
      vertex -4.57284 0.971986 -22
      vertex -6.84703 1.45538 -22
      vertex -6.39482 2.84716 -22
    endloop
  endfacet
  facet normal 0 0 -1
    outer loop
      vertex -4.675 0 -22
      vertex -7 0 -22
      vertex -6.84703 1.45538 -22
    endloop
  endfacet
  facet normal 0 1 -0
    outer loop
      vertex 0.731699 6.96165 -22
      vertex -0.731699 6.96165 8
      vertex 0.731699 6.96165 8
    endloop
  endfacet
  facet normal 0 1 0
    outer loop
      vertex -0.731699 6.96165 8
      vertex 0.731699 6.96165 -22
      vertex -0.731699 6.96165 -22
    endloop
  endfacet
  facet normal -0.743141 -0.669135 0
    outer loop
      vertex -4.68391 -5.20201 -22
      vertex -5.66312 -4.1145 8
      vertex -5.66312 -4.1145 -22
    endloop
  endfacet
  facet normal -0.743141 -0.669135 0
    outer loop
      vertex -5.66312 -4.1145 8
      vertex -4.68391 -5.20201 -22
      vertex -4.68391 -5.20201 8
    endloop
  endfacet
  facet normal -0.587789 -0.809014 0
    outer loop
      vertex -4.68391 -5.20201 -22
      vertex -3.5 -6.06218 8
      vertex -4.68391 -5.20201 8
    endloop
  endfacet
  facet normal -0.587789 -0.809014 -0
    outer loop
      vertex -3.5 -6.06218 8
      vertex -4.68391 -5.20201 -22
      vertex -3.5 -6.06218 -22
    endloop
  endfacet
  facet normal -0.866025 0.5 0
    outer loop
      vertex -6.39482 2.84716 -22
      vertex -5.66312 4.1145 8
      vertex -5.66312 4.1145 -22
    endloop
  endfacet
  facet normal -0.866025 0.5 0
    outer loop
      vertex -5.66312 4.1145 8
      vertex -6.39482 2.84716 -22
      vertex -6.39482 2.84716 8
    endloop
  endfacet
  facet normal -0.587785 -0.809017 0
    outer loop
      vertex 2 3.4641 2.75
      vertex 2.67652 2.97258 8
      vertex 2 3.4641 8
    endloop
  endfacet
  facet normal -0.587785 -0.809017 -0
    outer loop
      vertex 2.67652 2.97258 8
      vertex 2 3.4641 2.75
      vertex 2.67652 2.97258 2.75
    endloop
  endfacet
  facet normal 0.587785 0.809017 -0
    outer loop
      vertex -2 -3.4641 2.75
      vertex -2.67652 -2.97258 8
      vertex -2 -3.4641 8
    endloop
  endfacet
  facet normal 0.587785 0.809017 0
    outer loop
      vertex -2.67652 -2.97258 8
      vertex -2 -3.4641 2.75
      vertex -2.67652 -2.97258 2.75
    endloop
  endfacet
  facet normal -0.406743 -0.913543 0
    outer loop
      vertex 1.23607 3.80423 2.75
      vertex 2 3.4641 8
      vertex 1.23607 3.80423 8
    endloop
  endfacet
  facet normal -0.406743 -0.913543 -0
    outer loop
      vertex 2 3.4641 8
      vertex 1.23607 3.80423 2.75
      vertex 2 3.4641 2.75
    endloop
  endfacet
  facet normal -0.994522 0.104529 0
    outer loop
      vertex 3.91259 -0.831646 2.75
      vertex 4 0 8
      vertex 4 0 2.75
    endloop
  endfacet
  facet normal -0.994522 0.104529 0
    outer loop
      vertex 4 0 8
      vertex 3.91259 -0.831646 2.75
      vertex 3.91259 -0.831646 8
    endloop
  endfacet
  facet normal -0.587785 0.809017 0
    outer loop
      vertex 2.67652 -2.97258 2.75
      vertex 2 -3.4641 8
      vertex 2.67652 -2.97258 8
    endloop
  endfacet
  facet normal -0.587785 0.809017 0
    outer loop
      vertex 2 -3.4641 8
      vertex 2.67652 -2.97258 2.75
      vertex 2 -3.4641 2.75
    endloop
  endfacet
  facet normal -0.743143 0.669133 0
    outer loop
      vertex 2.67652 -2.97258 2.75
      vertex 3.23607 -2.35114 8
      vertex 3.23607 -2.35114 2.75
    endloop
  endfacet
  facet normal -0.743143 0.669133 0
    outer loop
      vertex 3.23607 -2.35114 8
      vertex 2.67652 -2.97258 2.75
      vertex 2.67652 -2.97258 8
    endloop
  endfacet
  facet normal -0.866026 -0.499999 0
    outer loop
      vertex 3.65418 1.62695 2.75
      vertex 3.23607 2.35114 8
      vertex 3.23607 2.35114 2.75
    endloop
  endfacet
  facet normal -0.866026 -0.499999 0
    outer loop
      vertex 3.23607 2.35114 8
      vertex 3.65418 1.62695 2.75
      vertex 3.65418 1.62695 8
    endloop
  endfacet
  facet normal 0.743143 -0.669133 0
    outer loop
      vertex -3.23607 2.35114 8
      vertex -2.67652 2.97258 2.75
      vertex -2.67652 2.97258 8
    endloop
  endfacet
  facet normal 0.743143 -0.669133 0
    outer loop
      vertex -2.67652 2.97258 2.75
      vertex -3.23607 2.35114 8
      vertex -3.23607 2.35114 2.75
    endloop
  endfacet
  facet normal -0.743143 -0.669133 0
    outer loop
      vertex 3.23607 2.35114 2.75
      vertex 2.67652 2.97258 8
      vertex 2.67652 2.97258 2.75
    endloop
  endfacet
  facet normal -0.743143 -0.669133 0
    outer loop
      vertex 2.67652 2.97258 8
      vertex 3.23607 2.35114 2.75
      vertex 3.23607 2.35114 8
    endloop
  endfacet
  facet normal -0.994522 -0.104529 0
    outer loop
      vertex 4 0 2.75
      vertex 3.91259 0.831646 8
      vertex 3.91259 0.831646 2.75
    endloop
  endfacet
  facet normal -0.994522 -0.104529 0
    outer loop
      vertex 3.91259 0.831646 8
      vertex 4 0 2.75
      vertex 4 0 8
    endloop
  endfacet
  facet normal 0.743143 0.669133 0
    outer loop
      vertex -2.67652 -2.97258 8
      vertex -3.23607 -2.35114 2.75
      vertex -3.23607 -2.35114 8
    endloop
  endfacet
  facet normal 0.743143 0.669133 0
    outer loop
      vertex -3.23607 -2.35114 2.75
      vertex -2.67652 -2.97258 8
      vertex -2.67652 -2.97258 2.75
    endloop
  endfacet
  facet normal 0.951056 -0.309017 0
    outer loop
      vertex -3.91259 0.831646 8
      vertex -3.65418 1.62695 2.75
      vertex -3.65418 1.62695 8
    endloop
  endfacet
  facet normal 0.951056 -0.309017 0
    outer loop
      vertex -3.65418 1.62695 2.75
      vertex -3.91259 0.831646 8
      vertex -3.91259 0.831646 2.75
    endloop
  endfacet
  facet normal 0.207909 -0.978148 0
    outer loop
      vertex -1.23607 3.80423 2.75
      vertex -0.418114 3.97809 8
      vertex -1.23607 3.80423 8
    endloop
  endfacet
  facet normal 0.207909 -0.978148 0
    outer loop
      vertex -0.418114 3.97809 8
      vertex -1.23607 3.80423 2.75
      vertex -0.418114 3.97809 2.75
    endloop
  endfacet
  facet normal -0.951056 -0.309017 0
    outer loop
      vertex 3.91259 0.831646 2.75
      vertex 3.65418 1.62695 8
      vertex 3.65418 1.62695 2.75
    endloop
  endfacet
  facet normal -0.951056 -0.309017 0
    outer loop
      vertex 3.65418 1.62695 8
      vertex 3.91259 0.831646 2.75
      vertex 3.91259 0.831646 8
    endloop
  endfacet
  facet normal -0.207909 0.978148 0
    outer loop
      vertex 1.23607 -3.80423 2.75
      vertex 0.418114 -3.97809 8
      vertex 1.23607 -3.80423 8
    endloop
  endfacet
  facet normal -0.207909 0.978148 0
    outer loop
      vertex 0.418114 -3.97809 8
      vertex 1.23607 -3.80423 2.75
      vertex 0.418114 -3.97809 2.75
    endloop
  endfacet
  facet normal -0.406743 0.913543 0
    outer loop
      vertex 2 -3.4641 2.75
      vertex 1.23607 -3.80423 8
      vertex 2 -3.4641 8
    endloop
  endfacet
  facet normal -0.406743 0.913543 0
    outer loop
      vertex 1.23607 -3.80423 8
      vertex 2 -3.4641 2.75
      vertex 1.23607 -3.80423 2.75
    endloop
  endfacet
  facet normal 0.866026 0.499999 0
    outer loop
      vertex -3.23607 -2.35114 8
      vertex -3.65418 -1.62695 2.75
      vertex -3.65418 -1.62695 8
    endloop
  endfacet
  facet normal 0.866026 0.499999 0
    outer loop
      vertex -3.65418 -1.62695 2.75
      vertex -3.23607 -2.35114 8
      vertex -3.23607 -2.35114 2.75
    endloop
  endfacet
  facet normal 0.406743 -0.913543 0
    outer loop
      vertex -2 3.4641 2.75
      vertex -1.23607 3.80423 8
      vertex -2 3.4641 8
    endloop
  endfacet
  facet normal 0.406743 -0.913543 0
    outer loop
      vertex -1.23607 3.80423 8
      vertex -2 3.4641 2.75
      vertex -1.23607 3.80423 2.75
    endloop
  endfacet
  facet normal 0.994522 -0.104529 0
    outer loop
      vertex -4 0 8
      vertex -3.91259 0.831646 2.75
      vertex -3.91259 0.831646 8
    endloop
  endfacet
  facet normal 0.994522 -0.104529 0
    outer loop
      vertex -3.91259 0.831646 2.75
      vertex -4 0 8
      vertex -4 0 2.75
    endloop
  endfacet
  facet normal 0.866026 -0.499999 0
    outer loop
      vertex -3.65418 1.62695 8
      vertex -3.23607 2.35114 2.75
      vertex -3.23607 2.35114 8
    endloop
  endfacet
  facet normal 0.866026 -0.499999 0
    outer loop
      vertex -3.23607 2.35114 2.75
      vertex -3.65418 1.62695 8
      vertex -3.65418 1.62695 2.75
    endloop
  endfacet
  facet normal -0.866026 0.499999 0
    outer loop
      vertex 3.23607 -2.35114 2.75
      vertex 3.65418 -1.62695 8
      vertex 3.65418 -1.62695 2.75
    endloop
  endfacet
  facet normal -0.866026 0.499999 0
    outer loop
      vertex 3.65418 -1.62695 8
      vertex 3.23607 -2.35114 2.75
      vertex 3.23607 -2.35114 8
    endloop
  endfacet
  facet normal 0.406743 0.913543 -0
    outer loop
      vertex -1.23607 -3.80423 2.75
      vertex -2 -3.4641 8
      vertex -1.23607 -3.80423 8
    endloop
  endfacet
  facet normal 0.406743 0.913543 0
    outer loop
      vertex -2 -3.4641 8
      vertex -1.23607 -3.80423 2.75
      vertex -2 -3.4641 2.75
    endloop
  endfacet
  facet normal 0 1 -0
    outer loop
      vertex 0.418114 -3.97809 2.75
      vertex -0.418114 -3.97809 8
      vertex 0.418114 -3.97809 8
    endloop
  endfacet
  facet normal 0 1 0
    outer loop
      vertex -0.418114 -3.97809 8
      vertex 0.418114 -3.97809 2.75
      vertex -0.418114 -3.97809 2.75
    endloop
  endfacet
  facet normal -0.207909 -0.978148 0
    outer loop
      vertex 0.418114 3.97809 2.75
      vertex 1.23607 3.80423 8
      vertex 0.418114 3.97809 8
    endloop
  endfacet
  facet normal -0.207909 -0.978148 -0
    outer loop
      vertex 1.23607 3.80423 8
      vertex 0.418114 3.97809 2.75
      vertex 1.23607 3.80423 2.75
    endloop
  endfacet
  facet normal 0.951056 0.309017 0
    outer loop
      vertex -3.65418 -1.62695 8
      vertex -3.91259 -0.831646 2.75
      vertex -3.91259 -0.831646 8
    endloop
  endfacet
  facet normal 0.951056 0.309017 0
    outer loop
      vertex -3.91259 -0.831646 2.75
      vertex -3.65418 -1.62695 8
      vertex -3.65418 -1.62695 2.75
    endloop
  endfacet
  facet normal 0.587785 -0.809017 0
    outer loop
      vertex -2.67652 2.97258 2.75
      vertex -2 3.4641 8
      vertex -2.67652 2.97258 8
    endloop
  endfacet
  facet normal 0.587785 -0.809017 0
    outer loop
      vertex -2 3.4641 8
      vertex -2.67652 2.97258 2.75
      vertex -2 3.4641 2.75
    endloop
  endfacet
  facet normal 0.994522 0.104529 0
    outer loop
      vertex -3.91259 -0.831646 8
      vertex -4 0 2.75
      vertex -4 0 8
    endloop
  endfacet
  facet normal 0.994522 0.104529 0
    outer loop
      vertex -4 0 2.75
      vertex -3.91259 -0.831646 8
      vertex -3.91259 -0.831646 2.75
    endloop
  endfacet
  facet normal -0.951056 0.309017 0
    outer loop
      vertex 3.65418 -1.62695 2.75
      vertex 3.91259 -0.831646 8
      vertex 3.91259 -0.831646 2.75
    endloop
  endfacet
  facet normal -0.951056 0.309017 0
    outer loop
      vertex 3.91259 -0.831646 8
      vertex 3.65418 -1.62695 2.75
      vertex 3.65418 -1.62695 8
    endloop
  endfacet
  facet normal 0 -1 0
    outer loop
      vertex -0.418114 3.97809 2.75
      vertex 0.418114 3.97809 8
      vertex -0.418114 3.97809 8
    endloop
  endfacet
  facet normal 0 -1 -0
    outer loop
      vertex 0.418114 3.97809 8
      vertex -0.418114 3.97809 2.75
      vertex 0.418114 3.97809 2.75
    endloop
  endfacet
  facet normal 0.207909 0.978148 -0
    outer loop
      vertex -0.418114 -3.97809 2.75
      vertex -1.23607 -3.80423 8
      vertex -0.418114 -3.97809 8
    endloop
  endfacet
  facet normal 0.207909 0.978148 0
    outer loop
      vertex -1.23607 -3.80423 8
      vertex -0.418114 -3.97809 2.75
      vertex -1.23607 -3.80423 2.75
    endloop
  endfacet
endsolid OpenSCAD_Model
