  0
SECTION
  2
BLOCKS
  0
ENDSEC
  0
SECTION
  2
ENTITIES
  0
LINE
  8
0
 10
565.5
 20
243
 11
57.5
 21
243
  0
LINE
  8
0
 10
57.5
 20
243
 11
57.5
 21
-12
  0
LINE
  8
0
 10
57.5
 20
-12
 11
565.5
 21
-12
  0
LINE
  8
0
 10
565.5
 20
-12
 11
565.5
 21
243
  0
LINE
  8
0
 10
174.529
 20
231.295
 11
174.529
 21
232.705
  0
LINE
  8
0
 10
174.529
 20
232.705
 11
175.871
 21
233.141
  0
LINE
  8
0
 10
175.871
 20
233.141
 11
176.7
 21
232
  0
LINE
  8
0
 10
176.7
 20
232
 11
175.871
 21
230.859
  0
LINE
  8
0
 10
175.871
 20
230.859
 11
174.529
 21
231.295
  0
LINE
  8
0
 10
540.529
 20
231.295
 11
540.529
 21
232.705
  0
LINE
  8
0
 10
540.529
 20
232.705
 11
541.871
 21
233.141
  0
LINE
  8
0
 10
541.871
 20
233.141
 11
542.7
 21
232
  0
LINE
  8
0
 10
542.7
 20
232
 11
541.871
 21
230.859
  0
LINE
  8
0
 10
541.871
 20
230.859
 11
540.529
 21
231.295
  0
LINE
  8
0
 10
362.529
 20
231.295
 11
362.529
 21
232.705
  0
LINE
  8
0
 10
362.529
 20
232.705
 11
363.871
 21
233.141
  0
LINE
  8
0
 10
363.871
 20
233.141
 11
364.7
 21
232
  0
LINE
  8
0
 10
364.7
 20
232
 11
363.871
 21
230.859
  0
LINE
  8
0
 10
363.871
 20
230.859
 11
362.529
 21
231.295
  0
LINE
  8
0
 10
80.5292
 20
231.295
 11
80.5292
 21
232.705
  0
LINE
  8
0
 10
80.5292
 20
232.705
 11
81.8708
 21
233.141
  0
LINE
  8
0
 10
81.8708
 20
233.141
 11
82.7
 21
232
  0
LINE
  8
0
 10
82.7
 20
232
 11
81.8708
 21
230.859
  0
LINE
  8
0
 10
81.8708
 20
230.859
 11
80.5292
 21
231.295
  0
LINE
  8
0
 10
456.529
 20
231.295
 11
456.529
 21
232.705
  0
LINE
  8
0
 10
456.529
 20
232.705
 11
457.871
 21
233.141
  0
LINE
  8
0
 10
457.871
 20
233.141
 11
458.7
 21
232
  0
LINE
  8
0
 10
458.7
 20
232
 11
457.871
 21
230.859
  0
LINE
  8
0
 10
457.871
 20
230.859
 11
456.529
 21
231.295
  0
LINE
  8
0
 10
164.529
 20
231.295
 11
164.529
 21
232.705
  0
LINE
  8
0
 10
164.529
 20
232.705
 11
165.871
 21
233.141
  0
LINE
  8
0
 10
165.871
 20
233.141
 11
166.7
 21
232
  0
LINE
  8
0
 10
166.7
 20
232
 11
165.871
 21
230.859
  0
LINE
  8
0
 10
165.871
 20
230.859
 11
164.529
 21
231.295
  0
LINE
  8
0
 10
446.529
 20
231.295
 11
446.529
 21
232.705
  0
LINE
  8
0
 10
446.529
 20
232.705
 11
447.871
 21
233.141
  0
LINE
  8
0
 10
447.871
 20
233.141
 11
448.7
 21
232
  0
LINE
  8
0
 10
448.7
 20
232
 11
447.871
 21
230.859
  0
LINE
  8
0
 10
447.871
 20
230.859
 11
446.529
 21
231.295
  0
LINE
  8
0
 10
70.5292
 20
231.295
 11
70.5292
 21
232.705
  0
LINE
  8
0
 10
70.5292
 20
232.705
 11
71.8708
 21
233.141
  0
LINE
  8
0
 10
71.8708
 20
233.141
 11
72.7
 21
232
  0
LINE
  8
0
 10
72.7
 20
232
 11
71.8708
 21
230.859
  0
LINE
  8
0
 10
71.8708
 20
230.859
 11
70.5292
 21
231.295
  0
LINE
  8
0
 10
258.529
 20
231.295
 11
258.529
 21
232.705
  0
LINE
  8
0
 10
258.529
 20
232.705
 11
259.871
 21
233.141
  0
LINE
  8
0
 10
259.871
 20
233.141
 11
260.7
 21
232
  0
LINE
  8
0
 10
260.7
 20
232
 11
259.871
 21
230.859
  0
LINE
  8
0
 10
259.871
 20
230.859
 11
258.529
 21
231.295
  0
LINE
  8
0
 10
268.529
 20
231.295
 11
268.529
 21
232.705
  0
LINE
  8
0
 10
268.529
 20
232.705
 11
269.871
 21
233.141
  0
LINE
  8
0
 10
269.871
 20
233.141
 11
270.7
 21
232
  0
LINE
  8
0
 10
270.7
 20
232
 11
269.871
 21
230.859
  0
LINE
  8
0
 10
269.871
 20
230.859
 11
268.529
 21
231.295
  0
LINE
  8
0
 10
352.529
 20
231.295
 11
352.529
 21
232.705
  0
LINE
  8
0
 10
352.529
 20
232.705
 11
353.871
 21
233.141
  0
LINE
  8
0
 10
353.871
 20
233.141
 11
354.7
 21
232
  0
LINE
  8
0
 10
354.7
 20
232
 11
353.871
 21
230.859
  0
LINE
  8
0
 10
353.871
 20
230.859
 11
352.529
 21
231.295
  0
LINE
  8
0
 10
550.529
 20
231.295
 11
550.529
 21
232.705
  0
LINE
  8
0
 10
550.529
 20
232.705
 11
551.871
 21
233.141
  0
LINE
  8
0
 10
551.871
 20
233.141
 11
552.7
 21
232
  0
LINE
  8
0
 10
552.7
 20
232
 11
551.871
 21
230.859
  0
LINE
  8
0
 10
551.871
 20
230.859
 11
550.529
 21
231.295
  0
LINE
  8
0
 10
158.529
 20
189.795
 11
158.529
 21
191.205
  0
LINE
  8
0
 10
158.529
 20
191.205
 11
159.871
 21
191.641
  0
LINE
  8
0
 10
159.871
 20
191.641
 11
160.7
 21
190.5
  0
LINE
  8
0
 10
160.7
 20
190.5
 11
159.871
 21
189.359
  0
LINE
  8
0
 10
159.871
 20
189.359
 11
158.529
 21
189.795
  0
LINE
  8
0
 10
64.5292
 20
189.795
 11
64.5292
 21
191.205
  0
LINE
  8
0
 10
64.5292
 20
191.205
 11
65.8708
 21
191.641
  0
LINE
  8
0
 10
65.8708
 20
191.641
 11
66.7
 21
190.5
  0
LINE
  8
0
 10
66.7
 20
190.5
 11
65.8708
 21
189.359
  0
LINE
  8
0
 10
65.8708
 20
189.359
 11
64.5292
 21
189.795
  0
LINE
  8
0
 10
440.529
 20
189.795
 11
440.529
 21
191.205
  0
LINE
  8
0
 10
440.529
 20
191.205
 11
441.871
 21
191.641
  0
LINE
  8
0
 10
441.871
 20
191.641
 11
442.7
 21
190.5
  0
LINE
  8
0
 10
442.7
 20
190.5
 11
441.871
 21
189.359
  0
LINE
  8
0
 10
441.871
 20
189.359
 11
440.529
 21
189.795
  0
LINE
  8
0
 10
534.529
 20
189.795
 11
534.529
 21
191.205
  0
LINE
  8
0
 10
534.529
 20
191.205
 11
535.871
 21
191.641
  0
LINE
  8
0
 10
535.871
 20
191.641
 11
536.7
 21
190.5
  0
LINE
  8
0
 10
536.7
 20
190.5
 11
535.871
 21
189.359
  0
LINE
  8
0
 10
535.871
 20
189.359
 11
534.529
 21
189.795
  0
LINE
  8
0
 10
346.529
 20
189.795
 11
346.529
 21
191.205
  0
LINE
  8
0
 10
346.529
 20
191.205
 11
347.871
 21
191.641
  0
LINE
  8
0
 10
347.871
 20
191.641
 11
348.7
 21
190.5
  0
LINE
  8
0
 10
348.7
 20
190.5
 11
347.871
 21
189.359
  0
LINE
  8
0
 10
347.871
 20
189.359
 11
346.529
 21
189.795
  0
LINE
  8
0
 10
252.529
 20
189.795
 11
252.529
 21
191.205
  0
LINE
  8
0
 10
252.529
 20
191.205
 11
253.871
 21
191.641
  0
LINE
  8
0
 10
253.871
 20
191.641
 11
254.7
 21
190.5
  0
LINE
  8
0
 10
254.7
 20
190.5
 11
253.871
 21
189.359
  0
LINE
  8
0
 10
253.871
 20
189.359
 11
252.529
 21
189.795
  0
LINE
  8
0
 10
440.529
 20
179.795
 11
440.529
 21
181.205
  0
LINE
  8
0
 10
440.529
 20
181.205
 11
441.871
 21
181.641
  0
LINE
  8
0
 10
441.871
 20
181.641
 11
442.7
 21
180.5
  0
LINE
  8
0
 10
442.7
 20
180.5
 11
441.871
 21
179.359
  0
LINE
  8
0
 10
441.871
 20
179.359
 11
440.529
 21
179.795
  0
LINE
  8
0
 10
534.529
 20
179.795
 11
534.529
 21
181.205
  0
LINE
  8
0
 10
534.529
 20
181.205
 11
535.871
 21
181.641
  0
LINE
  8
0
 10
535.871
 20
181.641
 11
536.7
 21
180.5
  0
LINE
  8
0
 10
536.7
 20
180.5
 11
535.871
 21
179.359
  0
LINE
  8
0
 10
535.871
 20
179.359
 11
534.529
 21
179.795
  0
LINE
  8
0
 10
64.5292
 20
179.795
 11
64.5292
 21
181.205
  0
LINE
  8
0
 10
64.5292
 20
181.205
 11
65.8708
 21
181.641
  0
LINE
  8
0
 10
65.8708
 20
181.641
 11
66.7
 21
180.5
  0
LINE
  8
0
 10
66.7
 20
180.5
 11
65.8708
 21
179.359
  0
LINE
  8
0
 10
65.8708
 20
179.359
 11
64.5292
 21
179.795
  0
LINE
  8
0
 10
252.529
 20
179.795
 11
252.529
 21
181.205
  0
LINE
  8
0
 10
252.529
 20
181.205
 11
253.871
 21
181.641
  0
LINE
  8
0
 10
253.871
 20
181.641
 11
254.7
 21
180.5
  0
LINE
  8
0
 10
254.7
 20
180.5
 11
253.871
 21
179.359
  0
LINE
  8
0
 10
253.871
 20
179.359
 11
252.529
 21
179.795
  0
LINE
  8
0
 10
346.529
 20
179.795
 11
346.529
 21
181.205
  0
LINE
  8
0
 10
346.529
 20
181.205
 11
347.871
 21
181.641
  0
LINE
  8
0
 10
347.871
 20
181.641
 11
348.7
 21
180.5
  0
LINE
  8
0
 10
348.7
 20
180.5
 11
347.871
 21
179.359
  0
LINE
  8
0
 10
347.871
 20
179.359
 11
346.529
 21
179.795
  0
LINE
  8
0
 10
158.529
 20
179.795
 11
158.529
 21
181.205
  0
LINE
  8
0
 10
158.529
 20
181.205
 11
159.871
 21
181.641
  0
LINE
  8
0
 10
159.871
 20
181.641
 11
160.7
 21
180.5
  0
LINE
  8
0
 10
160.7
 20
180.5
 11
159.871
 21
179.359
  0
LINE
  8
0
 10
159.871
 20
179.359
 11
158.529
 21
179.795
  0
LINE
  8
0
 10
174.529
 20
92.7946
 11
174.529
 21
94.2053
  0
LINE
  8
0
 10
174.529
 20
94.2053
 11
175.871
 21
94.6413
  0
LINE
  8
0
 10
175.871
 20
94.6413
 11
176.7
 21
93.5
  0
LINE
  8
0
 10
176.7
 20
93.5
 11
175.871
 21
92.3587
  0
LINE
  8
0
 10
175.871
 20
92.3587
 11
174.529
 21
92.7946
  0
LINE
  8
0
 10
550.529
 20
92.7946
 11
550.529
 21
94.2053
  0
LINE
  8
0
 10
550.529
 20
94.2053
 11
551.871
 21
94.6413
  0
LINE
  8
0
 10
551.871
 20
94.6413
 11
552.7
 21
93.5
  0
LINE
  8
0
 10
552.7
 20
93.5
 11
551.871
 21
92.3587
  0
LINE
  8
0
 10
551.871
 20
92.3587
 11
550.529
 21
92.7946
  0
LINE
  8
0
 10
362.529
 20
92.7946
 11
362.529
 21
94.2053
  0
LINE
  8
0
 10
362.529
 20
94.2053
 11
363.871
 21
94.6413
  0
LINE
  8
0
 10
363.871
 20
94.6413
 11
364.7
 21
93.5
  0
LINE
  8
0
 10
364.7
 20
93.5
 11
363.871
 21
92.3587
  0
LINE
  8
0
 10
363.871
 20
92.3587
 11
362.529
 21
92.7946
  0
LINE
  8
0
 10
446.529
 20
92.7946
 11
446.529
 21
94.2053
  0
LINE
  8
0
 10
446.529
 20
94.2053
 11
447.871
 21
94.6413
  0
LINE
  8
0
 10
447.871
 20
94.6413
 11
448.7
 21
93.5
  0
LINE
  8
0
 10
448.7
 20
93.5
 11
447.871
 21
92.3587
  0
LINE
  8
0
 10
447.871
 20
92.3587
 11
446.529
 21
92.7946
  0
LINE
  8
0
 10
268.529
 20
92.7946
 11
268.529
 21
94.2053
  0
LINE
  8
0
 10
268.529
 20
94.2053
 11
269.871
 21
94.6413
  0
LINE
  8
0
 10
269.871
 20
94.6413
 11
270.7
 21
93.5
  0
LINE
  8
0
 10
270.7
 20
93.5
 11
269.871
 21
92.3587
  0
LINE
  8
0
 10
269.871
 20
92.3587
 11
268.529
 21
92.7946
  0
LINE
  8
0
 10
352.529
 20
92.7946
 11
352.529
 21
94.2053
  0
LINE
  8
0
 10
352.529
 20
94.2053
 11
353.871
 21
94.6413
  0
LINE
  8
0
 10
353.871
 20
94.6413
 11
354.7
 21
93.5
  0
LINE
  8
0
 10
354.7
 20
93.5
 11
353.871
 21
92.3587
  0
LINE
  8
0
 10
353.871
 20
92.3587
 11
352.529
 21
92.7946
  0
LINE
  8
0
 10
258.529
 20
92.7946
 11
258.529
 21
94.2053
  0
LINE
  8
0
 10
258.529
 20
94.2053
 11
259.871
 21
94.6413
  0
LINE
  8
0
 10
259.871
 20
94.6413
 11
260.7
 21
93.5
  0
LINE
  8
0
 10
260.7
 20
93.5
 11
259.871
 21
92.3587
  0
LINE
  8
0
 10
259.871
 20
92.3587
 11
258.529
 21
92.7946
  0
LINE
  8
0
 10
540.529
 20
92.7946
 11
540.529
 21
94.2053
  0
LINE
  8
0
 10
540.529
 20
94.2053
 11
541.871
 21
94.6413
  0
LINE
  8
0
 10
541.871
 20
94.6413
 11
542.7
 21
93.5
  0
LINE
  8
0
 10
542.7
 20
93.5
 11
541.871
 21
92.3587
  0
LINE
  8
0
 10
541.871
 20
92.3587
 11
540.529
 21
92.7946
  0
LINE
  8
0
 10
164.529
 20
92.7946
 11
164.529
 21
94.2053
  0
LINE
  8
0
 10
164.529
 20
94.2053
 11
165.871
 21
94.6413
  0
LINE
  8
0
 10
165.871
 20
94.6413
 11
166.7
 21
93.5
  0
LINE
  8
0
 10
166.7
 20
93.5
 11
165.871
 21
92.3587
  0
LINE
  8
0
 10
165.871
 20
92.3587
 11
164.529
 21
92.7946
  0
LINE
  8
0
 10
70.5292
 20
92.7946
 11
70.5292
 21
94.2053
  0
LINE
  8
0
 10
70.5292
 20
94.2053
 11
71.8708
 21
94.6413
  0
LINE
  8
0
 10
71.8708
 20
94.6413
 11
72.7
 21
93.5
  0
LINE
  8
0
 10
72.7
 20
93.5
 11
71.8708
 21
92.3587
  0
LINE
  8
0
 10
71.8708
 20
92.3587
 11
70.5292
 21
92.7946
  0
LINE
  8
0
 10
80.5292
 20
92.7946
 11
80.5292
 21
94.2053
  0
LINE
  8
0
 10
80.5292
 20
94.2053
 11
81.8708
 21
94.6413
  0
LINE
  8
0
 10
81.8708
 20
94.6413
 11
82.7
 21
93.5
  0
LINE
  8
0
 10
82.7
 20
93.5
 11
81.8708
 21
92.3587
  0
LINE
  8
0
 10
81.8708
 20
92.3587
 11
80.5292
 21
92.7946
  0
LINE
  8
0
 10
456.529
 20
92.7946
 11
456.529
 21
94.2053
  0
LINE
  8
0
 10
456.529
 20
94.2053
 11
457.871
 21
94.6413
  0
LINE
  8
0
 10
457.871
 20
94.6413
 11
458.7
 21
93.5
  0
LINE
  8
0
 10
458.7
 20
93.5
 11
457.871
 21
92.3587
  0
LINE
  8
0
 10
457.871
 20
92.3587
 11
456.529
 21
92.7946
  0
LINE
  8
0
 10
64.5292
 20
9.79465
 11
64.5292
 21
11.2053
  0
LINE
  8
0
 10
64.5292
 20
11.2053
 11
65.8708
 21
11.6413
  0
LINE
  8
0
 10
65.8708
 20
11.6413
 11
66.7
 21
10.5
  0
LINE
  8
0
 10
66.7
 20
10.5
 11
65.8708
 21
9.35872
  0
LINE
  8
0
 10
65.8708
 20
9.35872
 11
64.5292
 21
9.79465
  0
LINE
  8
0
 10
158.529
 20
9.79465
 11
158.529
 21
11.2053
  0
LINE
  8
0
 10
158.529
 20
11.2053
 11
159.871
 21
11.6413
  0
LINE
  8
0
 10
159.871
 20
11.6413
 11
160.7
 21
10.5
  0
LINE
  8
0
 10
160.7
 20
10.5
 11
159.871
 21
9.35872
  0
LINE
  8
0
 10
159.871
 20
9.35872
 11
158.529
 21
9.79465
  0
LINE
  8
0
 10
252.529
 20
9.79465
 11
252.529
 21
11.2053
  0
LINE
  8
0
 10
252.529
 20
11.2053
 11
253.871
 21
11.6413
  0
LINE
  8
0
 10
253.871
 20
11.6413
 11
254.7
 21
10.5
  0
LINE
  8
0
 10
254.7
 20
10.5
 11
253.871
 21
9.35872
  0
LINE
  8
0
 10
253.871
 20
9.35872
 11
252.529
 21
9.79465
  0
LINE
  8
0
 10
346.529
 20
9.79465
 11
346.529
 21
11.2053
  0
LINE
  8
0
 10
346.529
 20
11.2053
 11
347.871
 21
11.6413
  0
LINE
  8
0
 10
347.871
 20
11.6413
 11
348.7
 21
10.5
  0
LINE
  8
0
 10
348.7
 20
10.5
 11
347.871
 21
9.35872
  0
LINE
  8
0
 10
347.871
 20
9.35872
 11
346.529
 21
9.79465
  0
LINE
  8
0
 10
440.529
 20
9.79465
 11
440.529
 21
11.2053
  0
LINE
  8
0
 10
440.529
 20
11.2053
 11
441.871
 21
11.6413
  0
LINE
  8
0
 10
441.871
 20
11.6413
 11
442.7
 21
10.5
  0
LINE
  8
0
 10
442.7
 20
10.5
 11
441.871
 21
9.35872
  0
LINE
  8
0
 10
441.871
 20
9.35872
 11
440.529
 21
9.79465
  0
LINE
  8
0
 10
534.529
 20
9.79465
 11
534.529
 21
11.2053
  0
LINE
  8
0
 10
534.529
 20
11.2053
 11
535.871
 21
11.6413
  0
LINE
  8
0
 10
535.871
 20
11.6413
 11
536.7
 21
10.5
  0
LINE
  8
0
 10
536.7
 20
10.5
 11
535.871
 21
9.35872
  0
LINE
  8
0
 10
535.871
 20
9.35872
 11
534.529
 21
9.79465
  0
LINE
  8
0
 10
64.5292
 20
-0.205338
 11
64.5292
 21
1.20534
  0
LINE
  8
0
 10
64.5292
 20
1.20534
 11
65.8708
 21
1.64127
  0
LINE
  8
0
 10
65.8708
 20
1.64127
 11
66.7
 21
0.5
  0
LINE
  8
0
 10
66.7
 20
0.5
 11
65.8708
 21
-0.641266
  0
LINE
  8
0
 10
65.8708
 20
-0.641266
 11
64.5292
 21
-0.205338
  0
LINE
  8
0
 10
534.529
 20
-0.205338
 11
534.529
 21
1.20534
  0
LINE
  8
0
 10
534.529
 20
1.20534
 11
535.871
 21
1.64127
  0
LINE
  8
0
 10
535.871
 20
1.64127
 11
536.7
 21
0.5
  0
LINE
  8
0
 10
536.7
 20
0.5
 11
535.871
 21
-0.641266
  0
LINE
  8
0
 10
535.871
 20
-0.641266
 11
534.529
 21
-0.205338
  0
LINE
  8
0
 10
158.529
 20
-0.205338
 11
158.529
 21
1.20534
  0
LINE
  8
0
 10
158.529
 20
1.20534
 11
159.871
 21
1.64127
  0
LINE
  8
0
 10
159.871
 20
1.64127
 11
160.7
 21
0.5
  0
LINE
  8
0
 10
160.7
 20
0.5
 11
159.871
 21
-0.641266
  0
LINE
  8
0
 10
159.871
 20
-0.641266
 11
158.529
 21
-0.205338
  0
LINE
  8
0
 10
252.529
 20
-0.205338
 11
252.529
 21
1.20534
  0
LINE
  8
0
 10
252.529
 20
1.20534
 11
253.871
 21
1.64127
  0
LINE
  8
0
 10
253.871
 20
1.64127
 11
254.7
 21
0.5
  0
LINE
  8
0
 10
254.7
 20
0.5
 11
253.871
 21
-0.641266
  0
LINE
  8
0
 10
253.871
 20
-0.641266
 11
252.529
 21
-0.205338
  0
LINE
  8
0
 10
346.529
 20
-0.205338
 11
346.529
 21
1.20534
  0
LINE
  8
0
 10
346.529
 20
1.20534
 11
347.871
 21
1.64127
  0
LINE
  8
0
 10
347.871
 20
1.64127
 11
348.7
 21
0.5
  0
LINE
  8
0
 10
348.7
 20
0.5
 11
347.871
 21
-0.641266
  0
LINE
  8
0
 10
347.871
 20
-0.641266
 11
346.529
 21
-0.205338
  0
LINE
  8
0
 10
440.529
 20
-0.205338
 11
440.529
 21
1.20534
  0
LINE
  8
0
 10
440.529
 20
1.20534
 11
441.871
 21
1.64127
  0
LINE
  8
0
 10
441.871
 20
1.64127
 11
442.7
 21
0.5
  0
LINE
  8
0
 10
442.7
 20
0.5
 11
441.871
 21
-0.641266
  0
LINE
  8
0
 10
441.871
 20
-0.641266
 11
440.529
 21
-0.205338
  0
ENDSEC
  0
SECTION
  2
OBJECTS
  0
DICTIONARY
  0
ENDSEC
  0
EOF
