<?xml version="1.0" encoding="UTF-8" standalone="no"?>
<svg
   xmlns:dc="http://purl.org/dc/elements/1.1/"
   xmlns:cc="http://creativecommons.org/ns#"
   xmlns:rdf="http://www.w3.org/1999/02/22-rdf-syntax-ns#"
   xmlns:svg="http://www.w3.org/2000/svg"
   xmlns="http://www.w3.org/2000/svg"
   xmlns:sodipodi="http://sodipodi.sourceforge.net/DTD/sodipodi-0.dtd"
   xmlns:inkscape="http://www.inkscape.org/namespaces/inkscape"
   width="793.700787402"
   height="1122.51968504"
   version="1.1"
   id="svg12093"
   sodipodi:docname="3_sys_alu_no_zbed_strips.svg"
   inkscape:version="0.92.2 (5c3e80d, 2017-08-06)">
  <metadata
     id="metadata12097">
    <rdf:RDF>
      <cc:Work
         rdf:about="">
        <dc:format>image/svg+xml</dc:format>
        <dc:type
           rdf:resource="http://purl.org/dc/dcmitype/StillImage" />
        <dc:title></dc:title>
      </cc:Work>
    </rdf:RDF>
  </metadata>
  <sodipodi:namedview
     pagecolor="#ffffff"
     bordercolor="#666666"
     borderopacity="1"
     objecttolerance="10"
     gridtolerance="10"
     guidetolerance="10"
     inkscape:pageopacity="0"
     inkscape:pageshadow="2"
     inkscape:window-width="1920"
     inkscape:window-height="986"
     id="namedview12095"
     showgrid="false"
     inkscape:zoom="0.21024131"
     inkscape:cx="396.8504"
     inkscape:cy="672.75997"
     inkscape:window-x="-11"
     inkscape:window-y="-11"
     inkscape:window-maximized="1"
     inkscape:current-layer="g12091" />
  <desc
     id="desc11967">C:\cygwin64\home\rjdro\github_copy_dr.robotlab\dr.robotlab_library\BOM_inventory\build_wider\svgs_dxfs\3_sys_alu.dxf - scale = 1.000000, origin = (0.000000, 0.000000), method = manual</desc>
  <defs
     id="defs11981">
    <marker
       id="DistanceX"
       orient="auto"
       refX="0.0"
       refY="0.0"
       style="overflow:visible">
      <path
         d="M 3,-3 L -3,3 M 0,-5 L  0,5"
         style="stroke:#000000; stroke-width:0.5"
         id="path11969" />
    </marker>
    <pattern
       height="8"
       id="Hatch"
       patternUnits="userSpaceOnUse"
       width="8"
       x="0"
       y="0">
      <path
         d="M8 4 l-4,4"
         linecap="square"
         stroke="#000000"
         stroke-width="0.25"
         id="path11972" />
      <path
         d="M6 2 l-4,4"
         linecap="square"
         stroke="#000000"
         stroke-width="0.25"
         id="path11974" />
      <path
         d="M4 0 l-4,4"
         linecap="square"
         stroke="#000000"
         stroke-width="0.25"
         id="path11976" />
    </pattern>
    <symbol
       id="*MODEL_SPACE" />
    <symbol
       id="*PAPER_SPACE" />
  </defs>
  <g
     inkscape:groupmode="layer"
     inkscape:label="0"
     id="g11983" />
  <g
     inkscape:groupmode="layer"
     inkscape:label="Layer_1"
     id="g12091">
    <path
       d="M 585.883238,1110.034847 L 594.545235,1106.178255 L 602.215937,1100.605077 L 608.560441,1093.558866 L 613.301140,1085.347465 L 615.910828,1077.315666 L 677.874709,955.704983 L 678.035717,955.670967 L 685.253820,952.457159 L 691.646135,947.812876 L 696.933317,941.941039 L 700.884132,935.098205 L 703.325631,927.583332 L 704.151534,919.725317 L 703.325631,911.867301 L 700.884132,904.352466 L 696.933317,897.510009 L 691.646135,891.638135 L 685.253820,886.993474 L 678.035717,883.779742 L 670.306961,882.137159 L 662.576769,882.137159 L 662.576769,881.703269 L 655.017676,881.703269 L 655.017676,796.663899 L 450.923187,796.663899 L 450.923187,892.933757 L 446.802784,897.510047 L 442.851969,904.352466 L 440.410469,911.867339 L 439.584567,919.725354 L 440.410469,927.583370 L 442.851969,935.098205 L 446.802784,941.941039 L 452.089965,947.812876 L 458.482280,952.457159 L 462.953386,954.447874 L 531.569272,1089.113650 L 532.372762,1088.704139 L 535.175660,1093.558866 L 541.520164,1100.605077 L 549.190866,1106.178255 L 557.852863,1110.034847 L 567.127257,1112.005871 L 576.608882,1112.005871 L 585.883238,1110.034847 z"
       style="stroke:#000000;fill:none"
       id="path11985" />
    <path
       d="M 496.883339,837.226545 L 494.371427,836.692460 L 492.025550,835.648214 L 489.947943,834.138671 L 488.229732,832.230387 L 486.945827,830.006551 L 486.152126,827.564220 L 485.883780,825.010356 L 486.152126,822.456529 L 486.945827,820.014198 L 488.229732,817.790324 L 489.947943,815.882079 L 492.025550,814.372498 L 494.371427,813.328252 L 496.883339,812.794167 L 499.451150,812.794167 L 501.963024,813.328252 L 504.308939,814.372498 L 506.386620,815.882079 L 508.104643,817.790324 L 509.388624,820.014198 L 510.182324,822.456529 L 510.450671,825.010356 L 510.182324,827.564220 L 509.388624,830.006551 L 508.104643,832.230387 L 506.386620,834.138671 L 504.308939,835.648214 L 501.963024,836.692460 L 499.451150,837.226545 L 496.883339,837.226545 z"
       style="stroke:#000000;fill:none"
       id="path11987" />
    <path
       d="M 610.269128,837.226545 L 607.757140,836.692460 L 605.411225,835.648214 L 603.333808,834.138671 L 601.615521,832.230387 L 600.331540,830.006551 L 599.538028,827.564220 L 599.269682,825.010356 L 599.538028,822.456529 L 600.331540,820.014198 L 601.615521,817.790324 L 603.333808,815.882079 L 605.411339,814.372498 L 607.757140,813.328252 L 610.269128,812.794167 L 612.836939,812.794167 L 615.348813,813.328252 L 617.694841,814.372498 L 619.772409,815.882079 L 621.490620,817.790324 L 622.774526,820.014198 L 623.568227,822.456529 L 623.836573,825.010356 L 623.568227,827.564220 L 622.774526,830.006551 L 621.490620,832.230387 L 619.772409,834.138671 L 617.694841,835.648214 L 615.348813,836.692460 L 612.836939,837.226545 L 610.269128,837.226545 z"
       style="stroke:#000000;fill:none"
       id="path11989" />
    <path
       d="M 472.276724,932.317228 L 469.687748,931.766929 L 467.269644,930.690520 L 465.128126,929.134488 L 463.357039,927.167622 L 462.033449,924.875339 L 461.215521,922.357795 L 460.938860,919.725354 L 461.215521,917.092913 L 462.033449,914.575370 L 463.357039,912.283049 L 465.128126,910.316183 L 467.269644,908.760189 L 469.687748,907.683780 L 472.276724,907.133443 L 474.923943,907.133443 L 477.512844,907.683780 L 479.931024,908.760189 L 482.072542,910.316183 L 483.843628,912.283049 L 485.167143,914.575370 L 485.985033,917.092913 L 486.261694,919.725354 L 485.985033,922.357795 L 485.167143,924.875339 L 483.843628,927.167622 L 482.072542,929.134488 L 479.931024,930.690520 L 477.512844,931.766929 L 474.923943,932.317228 L 472.276724,932.317228 z"
       style="stroke:#000000;fill:none"
       id="path11991" />
    <path
       d="M 668.812044,932.317228 L 666.223143,931.766929 L 663.805039,930.690520 L 661.663521,929.134488 L 659.892435,927.167622 L 658.568844,924.875339 L 657.751030,922.357795 L 657.474369,919.725354 L 657.751030,917.092913 L 658.568844,914.575370 L 659.892435,912.283049 L 661.663521,910.316183 L 663.805039,908.760189 L 666.223143,907.683780 L 668.812044,907.133443 L 671.459339,907.133443 L 674.048239,907.683780 L 676.466343,908.760189 L 678.607937,910.316183 L 680.379024,912.283049 L 681.702614,914.575370 L 682.520542,917.092913 L 682.797203,919.725354 L 682.520542,922.357795 L 681.702614,924.875339 L 680.379024,927.167622 L 678.607937,929.134488 L 676.466343,930.690520 L 674.048239,931.766929 L 671.459339,932.317228 L 668.812044,932.317228 z"
       style="stroke:#000000;fill:none"
       id="path11993" />
    <path
       d="M 570.544630,1091.265449 L 567.955427,1090.715150 L 565.537323,1089.638551 L 563.395843,1088.082671 L 561.624643,1086.115654 L 560.301241,1083.823257 L 559.483313,1081.305865 L 559.206652,1078.673461 L 559.483313,1076.040945 L 559.931339,1074.662476 L 560.404838,1074.420964 L 560.646350,1073.677153 L 561.930369,1071.453317 L 563.648655,1069.544920 L 565.726148,1068.035528 L 568.072063,1066.991017 L 570.583975,1066.457235 L 573.151748,1066.457235 L 575.663660,1066.991017 L 578.009575,1068.035528 L 580.087068,1069.544920 L 581.805354,1071.453317 L 583.089373,1073.677153 L 583.882847,1076.119446 L 583.921020,1076.459981 L 584.320328,1076.663320 L 584.531603,1078.673424 L 584.254942,1081.305827 L 583.436939,1083.823219 L 582.113537,1086.115616 L 580.342337,1088.082633 L 578.200970,1089.638513 L 575.782866,1090.715112 L 573.193663,1091.265411 L 570.544630,1091.265449 z"
       style="stroke:#000000;fill:none"
       id="path11995" />
    <path
       d="M 316.436685,1045.150715 L 325.098557,1041.294123 L 332.769373,1035.720945 L 339.113768,1028.674734 L 343.854452,1020.463332 L 346.464253,1012.431496 L 408.428031,890.820850 L 408.589039,890.786835 L 415.807257,887.573027 L 422.199534,882.928743 L 427.486753,877.056907 L 431.437455,870.214035 L 433.879030,862.699200 L 434.704857,854.841184 L 433.879030,846.983206 L 431.437455,839.468372 L 427.486753,832.625915 L 422.199534,826.754041 L 415.807257,822.109380 L 408.589039,818.895647 L 400.860321,817.253065 L 393.130054,817.253065 L 393.130054,816.819175 L 211.712723,816.819175 L 211.712723,817.253065 L 203.982418,817.253065 L 196.253635,818.895647 L 189.035531,822.109380 L 182.643254,826.754041 L 177.356047,832.625915 L 173.405344,839.468372 L 170.963656,846.983206 L 170.137943,854.841184 L 170.963656,862.699238 L 173.405344,870.214072 L 177.356047,877.056907 L 182.643254,882.928743 L 189.035531,887.573027 L 193.506750,889.563780 L 262.122520,1024.229518 L 262.926006,1023.820006 L 265.729017,1028.674734 L 272.073407,1035.720945 L 279.744227,1041.294123 L 288.406095,1045.150715 L 297.680602,1047.121739 L 307.162065,1047.121739 L 316.436685,1045.150715 z"
       style="stroke:#000000;fill:none"
       id="path11997" />
    <path
       d="M 301.334993,868.957380 L 299.209500,868.505726 L 297.224489,867.622072 L 295.466593,866.344970 L 294.012684,864.729978 L 292.926297,862.848151 L 292.254788,860.781883 L 292.027638,858.620750 L 292.226442,856.730986 L 292.027638,854.841184 L 292.226442,852.951420 L 292.027638,851.061657 L 292.254788,848.900901 L 292.926297,846.834255 L 294.012684,844.952428 L 295.466593,843.337814 L 297.224602,842.060334 L 299.209500,841.176680 L 301.334993,840.725027 L 303.507791,840.725027 L 305.633170,841.176680 L 307.618178,842.060334 L 309.376074,843.337814 L 310.829983,844.952428 L 311.916484,846.834255 L 312.587879,848.900901 L 312.815029,851.061657 L 312.616603,852.951420 L 312.815029,854.841184 L 312.616603,856.730986 L 312.815029,858.620750 L 312.587879,860.781883 L 311.916484,862.848151 L 310.829983,864.729978 L 309.376074,866.344970 L 307.618178,867.622072 L 305.633170,868.505726 L 303.507791,868.957380 L 301.334993,868.957380 z"
       style="stroke:#000000;fill:none"
       id="path11999" />
    <path
       d="M 399.365518,867.433096 L 396.776542,866.882797 L 394.358438,865.806387 L 392.216920,864.250356 L 390.445833,862.283490 L 389.122129,859.991206 L 388.304315,857.473663 L 388.027654,854.841184 L 388.304315,852.208743 L 389.122129,849.691200 L 390.445833,847.398917 L 392.216920,845.432050 L 394.358438,843.876019 L 396.776542,842.799609 L 399.365518,842.249310 L 402.012737,842.249310 L 404.601638,842.799609 L 407.019817,843.876019 L 409.161335,845.432050 L 410.932346,847.398917 L 412.255937,849.691200 L 413.073827,852.208743 L 413.350488,854.841184 L 413.073827,857.473663 L 412.255937,859.991206 L 410.932346,862.283490 L 409.161335,864.250356 L 407.019817,865.806387 L 404.601638,866.882797 L 402.012737,867.433096 L 399.365518,867.433096 z"
       style="stroke:#000000;fill:none"
       id="path12001" />
    <path
       d="M 202.830040,867.433096 L 200.241154,866.882797 L 197.822937,865.806387 L 195.681453,864.250356 L 193.910442,862.283490 L 192.586851,859.991206 L 191.768961,857.473663 L 191.492300,854.841184 L 191.768961,852.208743 L 192.586851,849.691200 L 193.910442,847.398917 L 195.681453,845.432050 L 197.822937,843.876019 L 200.241154,842.799609 L 202.830040,842.249310 L 205.477221,842.249310 L 208.066235,842.799609 L 210.484339,843.876019 L 212.625819,845.432050 L 214.396944,847.398917 L 215.720534,849.691200 L 216.538424,852.208743 L 216.815085,854.841184 L 216.538424,857.473663 L 215.720534,859.991206 L 214.396944,862.283490 L 212.625819,864.250356 L 210.484339,865.806387 L 208.066235,866.882797 L 205.477221,867.433096 L 202.830040,867.433096 z"
       style="stroke:#000000;fill:none"
       id="path12003" />
    <path
       d="M 301.097904,1026.381317 L 298.508814,1025.831017 L 296.090706,1024.754419 L 293.949301,1023.198501 L 292.178101,1021.231521 L 290.854586,1018.939124 L 290.036583,1016.421732 L 289.759922,1013.789329 L 290.036583,1011.156813 L 290.484684,1009.778306 L 290.958183,1009.536794 L 291.200073,1008.792983 L 292.484092,1006.569184 L 294.202265,1004.660787 L 296.279871,1003.151395 L 298.625790,1002.106885 L 301.137589,1001.573102 L 303.705460,1001.573102 L 306.217259,1002.106885 L 308.563287,1003.151395 L 310.640780,1004.660787 L 312.359066,1006.569184 L 313.642972,1008.792983 L 314.436673,1011.235276 L 314.474468,1011.575811 L 314.873851,1011.779150 L 315.085126,1013.789291 L 314.808465,1016.421694 L 313.990500,1018.939087 L 312.667098,1021.231483 L 310.895898,1023.198463 L 308.754380,1024.754381 L 306.336276,1025.830980 L 303.747073,1026.381279 L 301.097904,1026.381317 z"
       style="stroke:#000000;fill:none"
       id="path12005" />
    <path
       d="M 302.172185,790.466608 L 306.939300,788.344403 L 311.160692,785.277317 L 314.652181,781.399521 L 317.261567,776.880340 L 318.873880,771.917820 L 319.419303,766.728151 L 318.873880,761.538898 L 317.261567,756.576000 L 314.652181,752.057197 L 311.160692,748.179402 L 310.203300,747.483591 L 310.203300,647.227465 L 193.083254,647.227465 L 193.083254,769.339427 L 269.773716,769.339427 L 270.044708,771.917820 L 271.656903,776.880340 L 274.265911,781.399521 L 277.757779,785.277317 L 281.979213,788.344403 L 286.745975,790.466608 L 291.850303,791.551332 L 297.068168,791.551332 L 302.172185,790.466608 z"
       style="stroke:#000000;fill:none"
       id="path12007" />
    <path
       d="M 230.664435,697.568504 L 228.461915,697.100220 L 226.404831,696.184441 L 224.583137,694.860850 L 223.076315,693.187276 L 221.950447,691.237417 L 221.254636,689.095937 L 221.019171,686.856189 L 221.254636,684.616819 L 221.950447,682.475339 L 223.076315,680.525102 L 224.583137,678.851528 L 226.404831,677.528315 L 228.461915,676.612157 L 230.664435,676.143874 L 232.916428,676.143874 L 235.118721,676.612157 L 237.175918,677.528315 L 238.997730,678.851528 L 240.504627,680.525102 L 241.630511,682.475339 L 242.326307,684.616819 L 242.561771,686.856189 L 242.326307,689.095937 L 241.630511,691.237417 L 240.504627,693.187276 L 238.997730,694.860850 L 237.175918,696.184441 L 235.118721,697.100220 L 232.916428,697.568504 L 230.664435,697.568504 z"
       style="stroke:#000000;fill:none"
       id="path12009" />
    <path
       d="M 294.452508,695.073260 L 292.636785,694.687370 L 290.940911,693.932220 L 289.439002,692.841071 L 288.197012,691.461543 L 287.268684,689.853732 L 286.694990,688.088315 L 286.500722,686.242016 L 286.694990,684.395717 L 287.268684,682.629921 L 288.197012,681.022488 L 289.439002,679.642583 L 290.940911,678.551433 L 292.636785,677.796661 L 294.452508,677.410394 L 296.309012,677.410394 L 298.125078,677.796661 L 299.820915,678.551433 L 301.322899,679.642583 L 302.564874,681.022488 L 303.493089,682.629921 L 304.066896,684.395717 L 304.260786,686.242016 L 304.066896,688.088315 L 303.493089,689.853732 L 302.564874,691.461543 L 301.322899,692.841071 L 299.820915,693.932220 L 298.125078,694.687370 L 296.309012,695.073260 L 294.452508,695.073260 z"
       style="stroke:#000000;fill:none"
       id="path12011" />
    <path
       d="M 293.333390,777.440466 L 291.130681,776.972183 L 289.073484,776.056403 L 287.252092,774.732813 L 285.745194,773.059238 L 284.619311,771.109380 L 283.923500,768.967521 L 283.688035,766.728151 L 283.923500,764.488781 L 284.619311,762.347339 L 285.745194,760.397102 L 287.252092,758.723528 L 289.073484,757.400315 L 291.130681,756.484157 L 293.333390,756.016252 L 295.585194,756.016252 L 297.787601,756.484157 L 299.844688,757.400315 L 301.666496,758.723528 L 303.173378,760.397102 L 304.299300,762.347339 L 304.995073,764.488781 L 305.230537,766.728151 L 304.995073,768.967521 L 304.299300,771.109380 L 303.173378,773.059238 L 301.666496,774.732813 L 299.844688,776.056403 L 297.787601,776.972183 L 295.585194,777.440466 L 293.333390,777.440466 z"
       style="stroke:#000000;fill:none"
       id="path12013" />
    <path
       d="M 480.938948,669.757493 L 481.896340,669.062098 L 485.387830,665.184302 L 487.997216,660.665046 L 489.609524,655.702602 L 490.154948,650.513272 L 489.609524,645.323641 L 487.997216,640.361121 L 485.387830,635.841940 L 481.896340,631.964145 L 477.674948,628.897058 L 472.907830,626.774854 L 467.803918,625.689751 L 462.585940,625.689751 L 457.481650,626.774854 L 452.714948,628.897058 L 448.493518,631.964145 L 445.001650,635.841940 L 442.392643,640.361121 L 440.780334,645.323641 L 440.453027,648.439483 L 363.818850,648.439483 L 363.818850,770.551408 L 480.938948,770.551408 L 480.938948,669.757493 z"
       style="stroke:#000000;fill:none"
       id="path12015" />
    <path
       d="M 464.069027,661.225172 L 461.866318,660.757002 L 459.809121,659.841146 L 457.987729,658.517556 L 456.480831,656.844397 L 455.354948,654.894198 L 454.659137,652.752680 L 454.423672,650.513272 L 454.659137,648.273600 L 455.354948,646.132082 L 456.480831,644.181846 L 457.987729,642.508649 L 459.809121,641.185058 L 461.866318,640.268901 L 464.069027,639.800995 L 466.320831,639.800995 L 468.523124,640.268901 L 470.580321,641.185058 L 472.402129,642.508649 L 473.909027,644.181846 L 475.034948,646.132082 L 475.730721,648.273600 L 475.966186,650.513272 L 475.730721,652.752680 L 475.034948,654.894198 L 473.909027,656.844397 L 472.402129,658.517556 L 470.580321,659.841146 L 468.523124,660.757002 L 466.320831,661.225172 L 464.069027,661.225172 z"
       style="stroke:#000000;fill:none"
       id="path12017" />
    <path
       d="M 401.630324,688.643036 L 399.427918,688.174753 L 397.370835,687.258935 L 395.549027,685.935345 L 394.042318,684.261770 L 392.916435,682.311572 L 392.220624,680.170054 L 391.985159,677.930759 L 392.220624,675.691389 L 392.916435,673.549493 L 394.042318,671.599710 L 395.549027,669.926098 L 397.370835,668.602507 L 399.427918,667.686690 L 401.630324,667.218369 L 403.882243,667.218369 L 406.085027,667.686690 L 408.142148,668.602507 L 409.963843,669.926098 L 411.470438,671.599710 L 412.596246,673.549493 L 413.292132,675.691389 L 413.527597,677.930759 L 413.292132,680.170054 L 412.596246,682.311572 L 411.470438,684.261770 L 409.963843,685.935345 L 408.142148,687.258935 L 406.085027,688.174753 L 403.882243,688.643036 L 401.630324,688.643036 z"
       style="stroke:#000000;fill:none"
       id="path12019" />
    <path
       d="M 464.957934,740.445128 L 463.141946,740.059238 L 461.446035,739.304126 L 459.944428,738.213052 L 458.702135,736.833449 L 457.773846,735.225751 L 457.200151,733.460069 L 457.006261,731.613959 L 457.200151,729.767660 L 457.773846,728.001865 L 458.702135,726.394469 L 459.944428,725.014942 L 461.446035,723.923452 L 463.141946,723.168643 L 464.957934,722.782337 L 466.814438,722.782337 L 468.630123,723.168643 L 470.326035,723.923452 L 471.828019,725.014942 L 473.070350,726.394469 L 473.998224,728.001865 L 474.571918,729.767660 L 474.766186,731.613959 L 474.571918,733.460069 L 473.998224,735.225751 L 473.070350,736.833449 L 471.828019,738.213052 L 470.326035,739.304126 L 468.630123,740.059238 L 466.814438,740.445128 L 464.957934,740.445128 z"
       style="stroke:#000000;fill:none"
       id="path12021" />
    <path
       d="M 547.463924,373.035530 L 450.368542,373.035530 L 392.499628,475.219162 L 392.499628,606.444661 L 547.463924,606.444661 L 547.463924,373.035530 z"
       style="stroke:#000000;fill:none"
       id="path12023" />
    <path
       d="M 528.014551,418.475339 L 526.436447,418.134047 L 524.962016,417.466658 L 523.656529,416.499288 L 522.576831,415.276989 L 521.769827,413.852183 L 521.271345,412.284926 L 521.102400,410.650129 L 521.271345,409.015370 L 521.769827,407.448076 L 522.576831,406.023269 L 523.656529,404.800970 L 524.962016,403.833562 L 526.436447,403.166173 L 528.014551,402.824882 L 529.628636,402.824882 L 531.206740,403.166173 L 532.681134,403.833562 L 533.986734,404.800970 L 535.066318,406.023269 L 535.873323,407.448076 L 536.371843,409.015370 L 536.540787,410.650129 L 536.371843,412.284926 L 535.873323,413.852183 L 535.066318,415.276989 L 533.986734,416.499288 L 532.681134,417.466658 L 531.206740,418.134047 L 529.628636,418.475339 L 528.014551,418.475339 z"
       style="stroke:#000000;fill:none"
       id="path12025" />
    <path
       d="M 447.037115,418.475339 L 445.458633,418.134047 L 443.984428,417.466620 L 442.678942,416.499288 L 441.599131,415.276951 L 440.792239,413.852183 L 440.293531,412.284926 L 440.124586,410.650091 L 440.293531,409.015332 L 440.792239,407.448076 L 441.599131,406.023269 L 442.678942,404.800932 L 443.984428,403.833562 L 445.458633,403.166135 L 447.037115,402.824844 L 448.650822,402.824844 L 450.229342,403.166135 L 451.703546,403.833562 L 453.009033,404.800932 L 454.088844,406.023269 L 454.895735,407.448076 L 455.394444,409.015332 L 455.563389,410.650091 L 455.394444,412.284926 L 454.895735,413.852183 L 454.088844,415.276951 L 453.009033,416.499288 L 451.703546,417.466620 L 450.229342,418.134047 L 448.650822,418.475339 L 447.037115,418.475339 z"
       style="stroke:#000000;fill:none"
       id="path12027" />
    <path
       d="M 528.925720,480.105071 L 527.704630,479.840126 L 526.564120,479.322709 L 525.554343,478.574665 L 524.718917,477.628687 L 524.094539,476.526728 L 523.708724,475.316372 L 523.578331,474.050532 L 523.708724,472.784769 L 524.094539,471.574413 L 524.718917,470.472454 L 525.554343,469.526476 L 526.564120,468.778431 L 527.704630,468.261052 L 528.925720,467.996107 L 530.173833,467.996107 L 531.395036,468.261052 L 532.535546,468.778431 L 533.545247,469.526476 L 534.380750,470.472454 L 535.005128,471.574413 L 535.390450,472.784769 L 535.521222,474.050532 L 535.390450,475.316372 L 535.005128,476.526728 L 534.380750,477.628687 L 533.545247,478.574665 L 532.535546,479.322709 L 531.395036,479.840126 L 530.173833,480.105071 L 528.925720,480.105071 z"
       style="stroke:#000000;fill:none"
       id="path12029" />
    <path
       d="M 466.702224,576.258822 L 457.817121,574.333493 L 449.518828,570.566740 L 442.170142,565.123616 L 436.092019,558.241890 L 431.550350,550.222110 L 428.743332,541.414980 L 427.793839,532.205140 L 428.743332,522.995339 L 431.550350,514.188170 L 436.092019,506.168428 L 442.170142,499.286627 L 449.518828,493.843540 L 457.817121,490.076787 L 466.702224,488.151458 L 475.785827,488.151458 L 484.670816,490.076787 L 492.969146,493.843540 L 500.317720,499.286627 L 506.395918,506.168428 L 510.937739,514.188170 L 513.744529,522.995339 L 514.694249,532.205140 L 513.744529,541.414980 L 510.937739,550.222110 L 506.395918,558.241890 L 500.317720,565.123616 L 492.969146,570.566740 L 484.670816,574.333493 L 475.785827,576.258822 L 466.702224,576.258822 z"
       style="stroke:#000000;fill:none"
       id="path12031" />
    <path
       d="M 413.624844,595.671345 L 412.403717,595.406400 L 411.263320,594.888945 L 410.253430,594.140976 L 409.418041,593.194961 L 408.793928,592.092964 L 408.408151,590.882608 L 408.277380,589.616806 L 408.408151,588.351005 L 408.793928,587.140649 L 409.418041,586.038690 L 410.253430,585.092712 L 411.263320,584.344668 L 412.403717,583.827288 L 413.624844,583.562343 L 414.873222,583.562343 L 416.094350,583.827288 L 417.234633,584.344668 L 418.244636,585.092712 L 419.079950,586.038690 L 419.704139,587.140649 L 420.089839,588.351005 L 420.220233,589.616806 L 420.089839,590.882608 L 419.704139,592.092964 L 419.079950,593.194961 L 418.244636,594.140976 L 417.234633,594.888945 L 416.094350,595.406400 L 414.873222,595.671345 L 413.624844,595.671345 z"
       style="stroke:#000000;fill:none"
       id="path12033" />
    <path
       d="M 372.106938,479.422299 L 314.238096,377.239007 L 217.142733,377.239007 L 217.142733,610.647383 L 372.106938,610.647383 L 372.106938,479.422299 z"
       style="stroke:#000000;fill:none"
       id="path12035" />
    <path
       d="M 315.955589,422.678702 L 314.377372,422.337411 L 312.902978,421.670022 L 311.597492,420.702652 L 310.517794,419.480315 L 309.710789,418.055509 L 309.212270,416.488252 L 309.043325,414.853493 L 309.212270,413.218734 L 309.710789,411.651439 L 310.517794,410.226633 L 311.597492,409.004334 L 312.902978,408.036964 L 314.377372,407.369575 L 315.955589,407.028283 L 317.569599,407.028283 L 319.147782,407.369575 L 320.622100,408.036964 L 321.927700,409.004334 L 323.007269,410.226633 L 323.814274,411.651439 L 324.312869,413.218734 L 324.481814,414.853493 L 324.312869,416.488252 L 323.814274,418.055509 L 323.007269,419.480315 L 321.927700,420.702652 L 320.622100,421.670022 L 319.147782,422.337411 L 317.569599,422.678702 L 315.955589,422.678702 z"
       style="stroke:#000000;fill:none"
       id="path12037" />
    <path
       d="M 234.978009,422.678702 L 233.399830,422.337411 L 231.925436,421.670022 L 230.619912,420.702652 L 229.540328,419.480315 L 228.733209,418.055509 L 228.234728,416.488252 L 228.065783,414.853493 L 228.234728,413.218734 L 228.733209,411.651439 L 229.540328,410.226633 L 230.619912,409.004334 L 231.925436,408.036964 L 233.399830,407.369575 L 234.978009,407.028283 L 236.592019,407.028283 L 238.170240,407.369575 L 239.644520,408.036964 L 240.950120,409.004334 L 242.029742,410.226633 L 242.836732,411.651439 L 243.335327,413.218734 L 243.504272,414.853493 L 243.335327,416.488252 L 242.836732,418.055509 L 242.029742,419.480315 L 240.950120,420.702652 L 239.644520,421.670022 L 238.170240,422.337411 L 236.592019,422.678702 L 234.978009,422.678702 z"
       style="stroke:#000000;fill:none"
       id="path12039" />
    <path
       d="M 234.432737,484.308170 L 233.211609,484.043225 L 232.071137,483.525808 L 231.061323,482.777802 L 230.225934,481.831824 L 229.601518,480.729865 L 229.215742,479.519509 L 229.085348,478.253707 L 229.215742,476.987906 L 229.601518,475.777550 L 230.225934,474.675591 L 231.061323,473.729613 L 232.071137,472.981606 L 233.211609,472.464151 L 234.432737,472.199206 L 235.680813,472.199206 L 236.902016,472.464151 L 238.042416,472.981606 L 239.052231,473.729613 L 239.887620,474.675591 L 240.512035,475.777550 L 240.897812,476.987906 L 241.028205,478.253707 L 240.897812,479.519509 L 240.512035,480.729865 L 239.887620,481.831824 L 239.052231,482.777802 L 238.042416,483.525808 L 236.902016,484.043225 L 235.680813,484.308170 L 234.432737,484.308170 z"
       style="stroke:#000000;fill:none"
       id="path12041" />
    <path
       d="M 288.820785,580.461581 L 279.935811,578.536252 L 271.637514,574.769537 L 264.288790,569.326450 L 258.210720,562.444687 L 253.668820,554.424983 L 250.862030,545.617852 L 249.912423,536.408050 L 250.862030,527.198287 L 253.668820,518.391156 L 258.210720,510.371452 L 264.288790,503.489650 L 271.637514,498.046602 L 279.935811,494.279887 L 288.820785,492.354557 L 297.904392,492.354557 L 306.789366,494.279887 L 315.087696,498.046602 L 322.436258,503.489650 L 328.514457,510.371452 L 333.056277,518.391156 L 335.863068,527.198287 L 336.812787,536.408050 L 335.863068,545.617852 L 333.056277,554.424983 L 328.514457,562.444687 L 322.436258,569.326450 L 315.087696,574.769537 L 306.789366,578.536252 L 297.904392,580.461581 L 288.820785,580.461581 z"
       style="stroke:#000000;fill:none"
       id="path12043" />
    <path
       d="M 349.733545,599.874028 L 348.512341,599.609083 L 347.371869,599.091666 L 346.362055,598.343660 L 345.526666,597.397682 L 344.902250,596.295685 L 344.516549,595.085367 L 344.386156,593.819528 L 344.516549,592.553726 L 344.902250,591.343408 L 345.526666,590.241449 L 346.362055,589.295433 L 347.371869,588.547465 L 348.512341,588.030009 L 349.733545,587.765065 L 350.981545,587.765065 L 352.202748,588.030009 L 353.343258,588.547465 L 354.353072,589.295433 L 355.188461,590.241449 L 355.812877,591.343408 L 356.198578,592.553726 L 356.328971,593.819528 L 356.198578,595.085367 L 355.812877,596.295685 L 355.188461,597.397682 L 354.353072,598.343660 L 353.343258,599.091666 L 352.202748,599.609083 L 350.981545,599.874028 L 349.733545,599.874028 z"
       style="stroke:#000000;fill:none"
       id="path12045" />
  </g>
</svg>
