<?xml version="1.0" encoding="UTF-8" standalone="no"?>
<!-- Created with Inkscape (http://www.inkscape.org/) -->

<svg
   xmlns:dc="http://purl.org/dc/elements/1.1/"
   xmlns:cc="http://creativecommons.org/ns#"
   xmlns:rdf="http://www.w3.org/1999/02/22-rdf-syntax-ns#"
   xmlns:svg="http://www.w3.org/2000/svg"
   xmlns="http://www.w3.org/2000/svg"
   xmlns:sodipodi="http://sodipodi.sourceforge.net/DTD/sodipodi-0.dtd"
   xmlns:inkscape="http://www.inkscape.org/namespaces/inkscape"
   width="210mm"
   height="297mm"
   viewBox="0 0 210 297"
   version="1.1"
   id="svg3184"
   inkscape:version="0.92.2 (5c3e80d, 2017-08-06)"
   sodipodi:docname="3_sys_alu_acrylic.svg">
  <defs
     id="defs3178" />
  <sodipodi:namedview
     id="base"
     pagecolor="#ffffff"
     bordercolor="#666666"
     borderopacity="1.0"
     inkscape:pageopacity="0.0"
     inkscape:pageshadow="2"
     inkscape:zoom="0.12374369"
     inkscape:cx="2695.7299"
     inkscape:cy="-1045.3692"
     inkscape:document-units="mm"
     inkscape:current-layer="layer1"
     showgrid="false"
     inkscape:window-width="1920"
     inkscape:window-height="986"
     inkscape:window-x="-11"
     inkscape:window-y="-11"
     inkscape:window-maximized="1" />
  <metadata
     id="metadata3181">
    <rdf:RDF>
      <cc:Work
         rdf:about="">
        <dc:format>image/svg+xml</dc:format>
        <dc:type
           rdf:resource="http://purl.org/dc/dcmitype/StillImage" />
        <dc:title></dc:title>
      </cc:Work>
    </rdf:RDF>
  </metadata>
  <g
     inkscape:label="Layer 1"
     inkscape:groupmode="layer"
     id="layer1">
    <path
       id="path3928"
       d="m 553.68892,291.75808 0.65534,-6.22771 1.93603,-5.95545 3.13183,-5.42304 4.19273,-4.65358 5.06888,-3.68067 5.72321,-2.54696 6.12879,-1.30194 h 6.26563 l 6.1288,1.30194 1.83015,0.81464 V -179.0634 l -2.35064,1.70634 -3.33859,1.48569 -3.5754,0.75982 h -3.65427 l -3.5754,-0.75982 -3.33859,-1.48569 -2.95701,-2.14665 -2.44553,-2.71476 -1.82713,-3.16308 -1.12988,-3.4746 -0.38162,-3.63237 0.38162,-3.63233 0.53048,-1.62947 H 21.815309 l 0.52955,1.62947 0.38202,3.63233 -0.38202,3.63237 -1.12943,3.4746 -1.82737,3.16308 -2.44552,2.71476 -2.95678,2.14665 -3.33863,1.48569 -3.5754097,0.75982 h -3.65427 l -3.16777003,-0.67295 v 446.64046 l 1.59036003,-0.70778 3.5754,-0.75945 h 3.65427 l 3.5751797,0.75945 3.33881,1.48574 2.95684,2.14707 2.44552,2.71456 1.82732,3.16345 1.12946,3.47401 0.38203,3.63283 -0.38203,3.63274 -1.12946,3.47412 -1.66222,2.87762 H 554.21438 Z"
       inkscape:connector-curvature="0"
       style="fill:none;stroke:#000000;stroke-width:0.49935853" />
    <path
       id="path3953"
       d="m 608.049,296.75113 h 598.8032 V 236.73882 H 608.049 Z m 268.2705,-13.43847 0.3787,0.0797 0.3527,0.15602 0.3127,0.22552 0.2586,0.28484 0.193,0.33205 0.1197,0.36455 0.04,0.38143 -0.04,0.38147 -0.1197,0.36454 -0.193,0.33206 -0.2586,0.28483 -0.3127,0.22515 -0.3527,0.15602 -0.3787,0.0797 h -0.3857 l -0.3787,-0.0797 -0.3527,-0.15602 -0.3127,-0.22515 -0.2587,-0.28483 -0.1929,-0.33206 -0.1197,-0.36454 -0.04,-0.38147 0.04,-0.38143 0.1197,-0.36455 0.1929,-0.33205 0.2587,-0.28484 0.3127,-0.22552 0.3527,-0.15602 0.3787,-0.0797 z m 49.9587,0 0.3787,0.0797 0.3528,0.15602 0.3126,0.22552 0.2587,0.28484 0.193,0.33205 0.1201,0.36455 0.04,0.38143 -0.04,0.38147 -0.1201,0.36454 -0.193,0.33206 -0.2587,0.28483 -0.3126,0.22515 -0.3528,0.15602 -0.3787,0.0797 h -0.3857 l -0.3786,-0.0797 -0.3527,-0.15602 -0.3127,-0.22515 -0.2587,-0.28483 -0.193,-0.33206 -0.1197,-0.36454 -0.04,-0.38147 0.04,-0.38143 0.1197,-0.36455 0.193,-0.33205 0.2587,-0.28484 0.3127,-0.22552 0.3527,-0.15602 0.3786,-0.0797 z m 49.9588,0 0.3787,0.0797 0.3527,0.15602 0.3127,0.22552 0.2587,0.28484 0.193,0.33205 0.1201,0.36455 0.04,0.38143 -0.04,0.38147 -0.1201,0.36454 -0.193,0.33206 -0.2587,0.28483 -0.3127,0.22515 -0.3527,0.15602 -0.3787,0.0797 h -0.3857 l -0.3787,-0.0797 -0.3527,-0.15602 -0.3127,-0.22515 -0.2587,-0.28483 -0.193,-0.33206 -0.12,-0.36454 -0.04,-0.38147 0.04,-0.38143 0.12,-0.36455 0.193,-0.33205 0.2587,-0.28484 0.3127,-0.22552 0.3527,-0.15602 0.3787,-0.0797 z m 120.1266,-4.70953 0.429,0.0907 0.4008,0.1768 0.3549,0.25612 0.2935,0.32337 0.2194,0.37701 0.1356,0.41418 0.046,0.433 -0.046,0.43299 -0.1356,0.41411 -0.2194,0.37701 -0.2935,0.32337 -0.3549,0.25612 -0.4008,0.1768 -0.429,0.0907 h -0.4386 l -0.4291,-0.0907 -0.4008,-0.1768 -0.3549,-0.25612 -0.2935,-0.32337 -0.2194,-0.37701 -0.1356,-0.41411 -0.046,-0.43299 0.046,-0.433 0.1356,-0.41418 0.2194,-0.37701 0.2935,-0.32337 0.3549,-0.25612 0.4008,-0.1768 0.4291,-0.0907 z m 50.7578,0 0.429,0.0907 0.4008,0.1768 0.355,0.25612 0.2934,0.32337 0.2194,0.37701 0.1356,0.41418 0.046,0.433 -0.046,0.43299 -0.1356,0.41411 -0.2194,0.37701 -0.2934,0.32337 -0.355,0.25612 -0.4008,0.1768 -0.429,0.0907 h -0.4387 l -0.429,-0.0907 -0.4008,-0.1768 -0.355,-0.25612 -0.2934,-0.32337 -0.2194,-0.37701 -0.1356,-0.41411 -0.046,-0.43299 0.046,-0.433 0.1356,-0.41418 0.2194,-0.37701 0.2934,-0.32337 0.355,-0.25612 0.4008,-0.1768 0.429,-0.0907 z M 973.0466,256.37597 v 22.81081 h -95.9208 v -22.81081 z m 178.8513,0.69426 v 20.82723 h -57.9518 v -20.82723 z m -56.9332,-5.54255 0.4291,0.0907 0.4008,0.17679 0.3549,0.25613 0.2935,0.32336 0.2194,0.37701 0.1355,0.41415 0.046,0.43303 -0.046,0.43303 -0.1355,0.41404 -0.2194,0.37701 -0.2935,0.32336 -0.3549,0.25613 -0.4008,0.17717 -0.4291,0.0907 h -0.4386 l -0.429,-0.0907 -0.4008,-0.17717 -0.355,-0.25613 -0.2934,-0.32336 -0.2194,-0.37701 -0.1356,-0.41404 -0.046,-0.43303 0.046,-0.43303 0.1356,-0.41415 0.2194,-0.37701 0.2934,-0.32336 0.355,-0.25613 0.4008,-0.17679 0.429,-0.0907 z m 52.1567,-0.99175 0.429,0.0903 0.4008,0.17679 0.355,0.25613 0.2934,0.32337 0.2194,0.37701 0.1356,0.41418 0.046,0.43303 -0.046,0.433 -0.1356,0.41407 -0.2194,0.37701 -0.2934,0.32337 -0.355,0.25612 -0.4008,0.17717 -0.429,0.0903 h -0.4387 l -0.429,-0.0903 -0.4008,-0.17717 -0.355,-0.25612 -0.2934,-0.32337 -0.2194,-0.37701 -0.1356,-0.41407 -0.046,-0.433 0.046,-0.43303 0.1356,-0.41418 0.2194,-0.37701 0.2934,-0.32337 0.355,-0.25613 0.4008,-0.17679 0.429,-0.0903 z m -270.8019,-1.93537 0.3787,0.0797 0.3527,0.15602 0.3127,0.22553 0.2586,0.28483 0.193,0.33206 0.1197,0.36454 0.04,0.38139 -0.04,0.38143 -0.1197,0.36455 -0.193,0.33205 -0.2586,0.28484 -0.3127,0.22515 -0.3527,0.15602 -0.3787,0.0797 h -0.3857 l -0.3787,-0.0797 -0.3527,-0.15602 -0.3127,-0.22515 -0.2587,-0.28484 -0.1929,-0.33205 -0.1197,-0.36455 -0.04,-0.38143 0.04,-0.38139 0.1197,-0.36454 0.1929,-0.33206 0.2587,-0.28483 0.3127,-0.22553 0.3527,-0.15602 0.3787,-0.0797 z m 49.9587,0 0.3787,0.0797 0.3528,0.15602 0.3126,0.22553 0.2587,0.28483 0.193,0.33206 0.1201,0.36454 0.04,0.38139 -0.04,0.38143 -0.1201,0.36455 -0.193,0.33205 -0.2587,0.28484 -0.3126,0.22515 -0.3528,0.15602 -0.3787,0.0797 h -0.3857 l -0.3786,-0.0797 -0.3527,-0.15602 -0.3127,-0.22515 -0.2587,-0.28484 -0.193,-0.33205 -0.1197,-0.36455 -0.04,-0.38143 0.04,-0.38139 0.1197,-0.36454 0.193,-0.33206 0.2587,-0.28483 0.3127,-0.22553 0.3527,-0.15602 0.3786,-0.0797 z m 49.9588,0 0.3787,0.0797 0.3527,0.15602 0.3127,0.22553 0.2587,0.28483 0.193,0.33206 0.1201,0.36454 0.04,0.38139 -0.04,0.38143 -0.1201,0.36455 -0.193,0.33205 -0.2587,0.28484 -0.3127,0.22515 -0.3527,0.15602 -0.3787,0.0797 h -0.3857 l -0.3787,-0.0797 -0.3527,-0.15602 -0.3127,-0.22515 -0.2587,-0.28484 -0.193,-0.33205 -0.12,-0.36455 -0.04,-0.38143 0.04,-0.38139 0.12,-0.36454 0.193,-0.33206 0.2587,-0.28483 0.3127,-0.22553 0.3527,-0.15602 0.3787,-0.0797 z"
       inkscape:connector-curvature="0"
       style="fill:none;stroke:#000000;stroke-width:0.4977324" />
    <path
       id="path3978"
       d="M 1205.9408,166.63104 H 607.13675 v 60.00227 h 598.80405 z m -533.87955,15.32933 -0.42904,-0.0907 -0.40075,-0.17681 -0.35497,-0.25611 -0.29343,-0.32338 -0.21941,-0.37701 -0.13557,-0.41418 -0.0457,-0.433 0.0457,-0.43302 0.13557,-0.41404 0.21941,-0.37701 0.29343,-0.32337 0.35497,-0.25612 0.40075,-0.1768 0.42904,-0.0907 h 0.43866 l 0.42908,0.0907 0.40071,0.1768 0.35498,0.25612 0.29343,0.32337 0.21941,0.37701 0.13557,0.41404 0.0457,0.43302 -0.0457,0.433 -0.13557,0.41418 -0.21941,0.37701 -0.29343,0.32338 -0.35498,0.25611 -0.40071,0.17681 -0.42908,0.0907 z m 46.78924,0.87614 -0.37798,-0.0797 -0.3531,-0.15602 -0.31268,-0.22552 -0.25869,-0.28484 -0.19335,-0.33206 -0.11933,-0.36492 -0.0404,-0.38142 0.0404,-0.38144 0.11933,-0.36492 0.19335,-0.33205 0.25869,-0.28484 0.31268,-0.22515 0.3531,-0.15601 0.37798,-0.0797 h 0.38647 l 0.37798,0.0797 0.35309,0.15601 0.31269,0.22515 0.25868,0.28484 0.19297,0.33205 0.11934,0.36492 0.0404,0.38144 -0.0404,0.38142 -0.11934,0.36492 -0.19297,0.33206 -0.25868,0.28484 -0.31269,0.22552 -0.35309,0.15602 -0.37798,0.0797 z m 219.81841,0 -0.3787,-0.0797 -0.3527,-0.15602 -0.3127,-0.22552 -0.2586,-0.28484 -0.193,-0.33206 -0.1197,-0.36492 -0.04,-0.38142 0.04,-0.38144 0.1197,-0.36492 0.193,-0.33205 0.2586,-0.28484 0.3127,-0.22515 0.3527,-0.15601 0.3787,-0.0797 h 0.3857 l 0.3787,0.0797 0.3527,0.15601 0.3127,0.22515 0.2587,0.28484 0.193,0.33205 0.1197,0.36492 0.04,0.38144 -0.04,0.38142 -0.1197,0.36492 -0.193,0.33206 -0.2587,0.28484 -0.3127,0.22552 -0.3527,0.15602 -0.3787,0.0797 z m -99.9176,0 -0.3786,-0.0797 -0.3527,-0.15602 -0.3127,-0.22552 -0.2587,-0.28484 -0.193,-0.33206 -0.1197,-0.36492 -0.04,-0.38142 0.04,-0.38144 0.1197,-0.36492 0.193,-0.33205 0.2587,-0.28484 0.3127,-0.22515 0.3527,-0.15601 0.3786,-0.0797 h 0.3857 l 0.3787,0.0797 0.3528,0.15601 0.3126,0.22515 0.2587,0.28484 0.193,0.33205 0.1201,0.36492 0.04,0.38144 -0.04,0.38142 -0.1201,0.36492 -0.193,0.33206 -0.2587,0.28484 -0.3126,0.22552 -0.3528,0.15602 -0.3787,0.0797 z m 49.9588,0 -0.3786,-0.0797 -0.3528,-0.15602 -0.3126,-0.22552 -0.2587,-0.28484 -0.193,-0.33206 -0.1201,-0.36492 -0.04,-0.38142 0.04,-0.38144 0.1201,-0.36492 0.193,-0.33205 0.2587,-0.28484 0.3126,-0.22515 0.3528,-0.15601 0.3786,-0.0797 h 0.3857 l 0.3787,0.0797 0.3527,0.15601 0.3127,0.22515 0.2587,0.28484 0.193,0.33205 0.1201,0.36492 0.04,0.38144 -0.04,0.38142 -0.1201,0.36492 -0.193,0.33206 -0.2587,0.28484 -0.3127,0.22552 -0.3527,0.15602 -0.3787,0.0797 z m -125.26878,1.73422 -0.42903,-0.0907 -0.40079,-0.17679 -0.35498,-0.25613 -0.29343,-0.32336 -0.2194,-0.37701 -0.13558,-0.41415 -0.0457,-0.43299 0.0457,-0.43304 0.13558,-0.41407 0.2194,-0.37701 0.29343,-0.32336 0.35498,-0.25613 0.40079,-0.17717 0.42903,-0.0907 h 0.43863 l 0.42903,0.0907 0.40079,0.17717 0.35499,0.25613 0.29342,0.32336 0.21941,0.37701 0.13557,0.41407 0.0457,0.43304 -0.0457,0.43299 -0.13557,0.41415 -0.21941,0.37701 -0.29342,0.32336 -0.35499,0.25613 -0.40079,0.17679 -0.42903,0.0907 z m 78.50038,25.20247 v -22.8108 h 95.9209 v 22.8108 z m -169.85896,1.9835 v -23.80254 h 95.92027 v 23.80254 z m 2.53339,5.38385 -0.42904,-0.0907 -0.40075,-0.17679 -0.35497,-0.25613 -0.29344,-0.32336 -0.2194,-0.37702 -0.13557,-0.41418 -0.0457,-0.43299 0.0457,-0.43304 0.13557,-0.41407 0.2194,-0.37701 0.29344,-0.32336 0.35497,-0.25613 0.40075,-0.17679 0.42904,-0.0907 h 0.43866 l 0.42908,0.0907 0.40071,0.17679 0.35498,0.25613 0.29342,0.32336 0.21942,0.37701 0.13556,0.41407 0.0461,0.43304 -0.0461,0.43299 -0.13556,0.41418 -0.21942,0.37702 -0.29342,0.32336 -0.35498,0.25613 -0.40071,0.17679 -0.42908,0.0907 z m 264.05277,0.40802 -0.3787,-0.0797 -0.3527,-0.15601 -0.3127,-0.22554 -0.2586,-0.28483 -0.193,-0.33205 -0.1197,-0.36455 -0.04,-0.38147 0.04,-0.38143 0.1197,-0.36492 0.193,-0.33206 0.2586,-0.28483 0.3127,-0.22515 0.3527,-0.15602 0.3787,-0.0797 h 0.3857 l 0.3787,0.0797 0.3527,0.15602 0.3127,0.22515 0.2587,0.28483 0.193,0.33206 0.1197,0.36492 0.04,0.38143 -0.04,0.38147 -0.1197,0.36455 -0.193,0.33205 -0.2587,0.28483 -0.3127,0.22554 -0.3527,0.15601 -0.3787,0.0797 z m -49.9588,0 -0.3786,-0.0797 -0.3528,-0.15601 -0.3126,-0.22554 -0.2587,-0.28483 -0.193,-0.33205 -0.1201,-0.36455 -0.04,-0.38147 0.04,-0.38143 0.1201,-0.36492 0.193,-0.33206 0.2587,-0.28483 0.3126,-0.22515 0.3528,-0.15602 0.3786,-0.0797 h 0.3857 l 0.3787,0.0797 0.3527,0.15602 0.3127,0.22515 0.2587,0.28483 0.193,0.33206 0.1201,0.36492 0.04,0.38143 -0.04,0.38147 -0.1201,0.36455 -0.193,0.33205 -0.2587,0.28483 -0.3127,0.22554 -0.3527,0.15601 -0.3787,0.0797 z m -117.90282,0 -0.37798,-0.0797 -0.35309,-0.15601 -0.31269,-0.22554 -0.25867,-0.28483 -0.19335,-0.33205 -0.11934,-0.36455 -0.0404,-0.38147 0.0404,-0.38143 0.11934,-0.36492 0.19335,-0.33206 0.25867,-0.28483 0.31269,-0.22515 0.35309,-0.15602 0.37798,-0.0797 h 0.38648 l 0.37797,0.0797 0.3531,0.15602 0.31268,0.22515 0.25869,0.28483 0.19297,0.33206 0.11933,0.36492 0.0404,0.38143 -0.0404,0.38147 -0.11933,0.36455 -0.19297,0.33205 -0.25869,0.28483 -0.31268,0.22554 -0.3531,0.15601 -0.37797,0.0797 z m -51.95679,0 -0.37798,-0.0797 -0.3531,-0.15601 -0.31268,-0.22554 -0.25869,-0.28483 -0.19335,-0.33205 -0.11933,-0.36455 -0.0404,-0.38147 0.0404,-0.38143 0.11933,-0.36492 0.19335,-0.33206 0.25869,-0.28483 0.31268,-0.22515 0.3531,-0.15602 0.37798,-0.0797 h 0.38647 l 0.37798,0.0797 0.35309,0.15602 0.31269,0.22515 0.25868,0.28483 0.19297,0.33206 0.11934,0.36492 0.0404,0.38143 -0.0404,0.38147 -0.11934,0.36455 -0.19297,0.33205 -0.25868,0.28483 -0.31269,0.22554 -0.35309,0.15601 -0.37798,0.0797 z m 119.90081,0 -0.3786,-0.0797 -0.3527,-0.15601 -0.3127,-0.22554 -0.2587,-0.28483 -0.193,-0.33205 -0.1197,-0.36455 -0.04,-0.38147 0.04,-0.38143 0.1197,-0.36492 0.193,-0.33206 0.2587,-0.28483 0.3127,-0.22515 0.3527,-0.15602 0.3786,-0.0797 h 0.3857 l 0.3787,0.0797 0.3528,0.15602 0.3126,0.22515 0.2587,0.28483 0.193,0.33206 0.1201,0.36492 0.04,0.38143 -0.04,0.38147 -0.1201,0.36455 -0.193,0.33205 -0.2587,0.28483 -0.3126,0.22554 -0.3528,0.15601 -0.3787,0.0797 z"
       inkscape:connector-curvature="0"
       style="fill:none;stroke:#000000;stroke-width:0.49773213" />
    <path
       id="path4003-3"
       d="M 1102.9698,95.131033 H 607.72617 v 60.012307 h 495.24363 z m -343.58942,16.215427 -0.37792,-0.0797 -0.35302,-0.15601 -0.31263,-0.22553 -0.25865,-0.28484 -0.19331,-0.33205 -0.11931,-0.36455 -0.0404,-0.38143 0.0404,-0.38143 0.11931,-0.36454 0.19331,-0.33206 0.25865,-0.28484 0.31263,-0.22515 0.35302,-0.15601 0.37792,-0.0797 h 0.38641 l 0.37792,0.0797 0.35302,0.15601 0.31263,0.22515 0.25865,0.28484 0.19293,0.33206 0.11931,0.36454 0.0404,0.38143 -0.0404,0.38143 -0.11931,0.36455 -0.19293,0.33205 -0.25865,0.28484 -0.31263,0.22553 -0.35302,0.15601 -0.37792,0.0797 z m 111.88842,0 -0.3786,-0.0797 -0.3527,-0.15601 -0.3126,-0.22553 -0.2587,-0.28484 -0.1929,-0.33205 -0.1197,-0.36455 -0.04,-0.38143 0.04,-0.38143 0.1197,-0.36454 0.1929,-0.33206 0.2587,-0.28484 0.3126,-0.22515 0.3527,-0.15601 0.3786,-0.0797 h 0.3856 l 0.3786,0.0797 0.3527,0.15601 0.3126,0.22515 0.2586,0.28484 0.193,0.33206 0.1197,0.36454 0.04,0.38143 -0.04,0.38143 -0.1197,0.36455 -0.193,0.33205 -0.2586,0.28484 -0.3126,0.22553 -0.3527,0.15601 -0.3786,0.0797 z m -211.78801,0 -0.37796,-0.0797 -0.35303,-0.15601 -0.31262,-0.22553 -0.25865,-0.28484 -0.19293,-0.33205 -0.11931,-0.36455 -0.0404,-0.38143 0.0404,-0.38143 0.11931,-0.36454 0.19293,-0.33206 0.25865,-0.28484 0.31262,-0.22515 0.35303,-0.15601 0.37796,-0.0797 h 0.38641 l 0.3779,0.0797 0.35304,0.15601 0.31263,0.22515 0.25863,0.28484 0.19332,0.33206 0.11932,0.36454 0.0404,0.38143 -0.0404,0.38143 -0.11932,0.36455 -0.19332,0.33205 -0.25863,0.28484 -0.31263,0.22553 -0.35304,0.15601 -0.3779,0.0797 z m 49.94977,0 -0.37791,-0.0797 -0.35303,-0.15601 -0.31263,-0.22553 -0.25864,-0.28484 -0.19332,-0.33205 -0.11931,-0.36455 -0.0404,-0.38143 0.0404,-0.38143 0.11931,-0.36454 0.19332,-0.33206 0.25864,-0.28484 0.31263,-0.22515 0.35303,-0.15601 0.37791,-0.0797 h 0.38642 l 0.37791,0.0797 0.35303,0.15601 0.31263,0.22515 0.25864,0.28484 0.19332,0.33206 0.11931,0.36454 0.0404,0.38143 -0.0404,0.38143 -0.11931,0.36455 -0.19332,0.33205 -0.25864,0.28484 -0.31263,0.22553 -0.35303,0.15601 -0.37791,0.0797 z m 111.88814,0 -0.3787,-0.0797 -0.3526,-0.15601 -0.3126,-0.22553 -0.2587,-0.28484 -0.1929,-0.33205 -0.1197,-0.36455 -0.04,-0.38143 0.04,-0.38143 0.1197,-0.36454 0.1929,-0.33206 0.2587,-0.28484 0.3126,-0.22515 0.3526,-0.15601 0.3787,-0.0797 h 0.3856 l 0.3787,0.0797 0.3526,0.15601 0.3126,0.22515 0.2587,0.28484 0.1929,0.33206 0.1201,0.36454 0.04,0.38143 -0.04,0.38143 -0.1201,0.36455 -0.1929,0.33205 -0.2587,0.28484 -0.3126,0.22553 -0.3526,0.15601 -0.3787,0.0797 z m 99.9002,0 -0.3786,-0.0797 -0.3527,-0.15601 -0.3126,-0.22553 -0.2587,-0.28484 -0.1929,-0.33205 -0.1197,-0.36455 -0.04,-0.38143 0.04,-0.38143 0.1197,-0.36454 0.1929,-0.33206 0.2587,-0.28484 0.3126,-0.22515 0.3527,-0.15601 0.3786,-0.0797 h 0.3856 l 0.3786,0.0797 0.3527,0.15601 0.3126,0.22515 0.2587,0.28484 0.1929,0.33206 0.1197,0.36454 0.04,0.38143 -0.04,0.38143 -0.1197,0.36455 -0.1929,0.33205 -0.2587,0.28484 -0.3126,0.22553 -0.3527,0.15601 -0.3786,0.0797 z m -96.7104,28.92025 v -26.77794 h 95.9042 v 26.77794 z m -161.83752,-1.98354 v -22.81086 h 95.90362 v 22.81086 z m 258.54792,7.77541 -0.3786,-0.0797 -0.3527,-0.15602 -0.3126,-0.22515 -0.2587,-0.28484 -0.1929,-0.33205 -0.1197,-0.36455 -0.04,-0.38147 0.04,-0.38143 0.1197,-0.36492 0.1929,-0.33206 0.2587,-0.28483 0.3126,-0.22515 0.3527,-0.15602 0.3786,-0.0797 h 0.3856 l 0.3786,0.0797 0.3527,0.15602 0.3126,0.22515 0.2587,0.28483 0.1929,0.33206 0.1197,0.36492 0.04,0.38143 -0.04,0.38147 -0.1197,0.36455 -0.1929,0.33205 -0.2587,0.28484 -0.3126,0.22515 -0.3527,0.15602 -0.3786,0.0797 z m -161.83852,0 -0.37792,-0.0797 -0.35302,-0.15602 -0.31263,-0.22515 -0.25865,-0.28484 -0.19331,-0.33205 -0.11931,-0.36455 -0.0404,-0.38147 0.0404,-0.38143 0.11931,-0.36492 0.19331,-0.33206 0.25865,-0.28483 0.31263,-0.22515 0.35302,-0.15602 0.37792,-0.0797 h 0.38641 l 0.37792,0.0797 0.35302,0.15602 0.31263,0.22515 0.25865,0.28483 0.19293,0.33206 0.11931,0.36492 0.0404,0.38143 -0.0404,0.38147 -0.11931,0.36455 -0.19293,0.33205 -0.25865,0.28484 -0.31263,0.22515 -0.35302,0.15602 -0.37792,0.0797 z m -49.94982,0 -0.37791,-0.0797 -0.35303,-0.15602 -0.31263,-0.22515 -0.25864,-0.28484 -0.19332,-0.33205 -0.11931,-0.36455 -0.0404,-0.38147 0.0404,-0.38143 0.11931,-0.36492 0.19332,-0.33206 0.25864,-0.28483 0.31263,-0.22515 0.35303,-0.15602 0.37791,-0.0797 h 0.38642 l 0.37791,0.0797 0.35303,0.15602 0.31263,0.22515 0.25864,0.28483 0.19332,0.33206 0.11931,0.36492 0.0404,0.38143 -0.0404,0.38147 -0.11931,0.36455 -0.19332,0.33205 -0.25864,0.28484 -0.31263,0.22515 -0.35303,0.15602 -0.37791,0.0797 z m 111.88814,0 -0.3787,-0.0797 -0.3526,-0.15602 -0.3126,-0.22515 -0.2587,-0.28484 -0.1929,-0.33205 -0.1197,-0.36455 -0.04,-0.38147 0.04,-0.38143 0.1197,-0.36492 0.1929,-0.33206 0.2587,-0.28483 0.3126,-0.22515 0.3526,-0.15602 0.3787,-0.0797 h 0.3856 l 0.3787,0.0797 0.3526,0.15602 0.3126,0.22515 0.2587,0.28483 0.1929,0.33206 0.1201,0.36492 0.04,0.38143 -0.04,0.38147 -0.1201,0.36455 -0.1929,0.33205 -0.2587,0.28484 -0.3126,0.22515 -0.3526,0.15602 -0.3787,0.0797 z m 49.9501,0 -0.3786,-0.0797 -0.3527,-0.15602 -0.3126,-0.22515 -0.2587,-0.28484 -0.1929,-0.33205 -0.1197,-0.36455 -0.04,-0.38147 0.04,-0.38143 0.1197,-0.36492 0.1929,-0.33206 0.2587,-0.28483 0.3126,-0.22515 0.3527,-0.15602 0.3786,-0.0797 h 0.3856 l 0.3786,0.0797 0.3527,0.15602 0.3126,0.22515 0.2586,0.28483 0.193,0.33206 0.1197,0.36492 0.04,0.38143 -0.04,0.38147 -0.1197,0.36455 -0.193,0.33205 -0.2586,0.28484 -0.3126,0.22515 -0.3527,0.15602 -0.3786,0.0797 z m -211.78801,0 -0.37796,-0.0797 -0.35303,-0.15602 -0.31262,-0.22515 -0.25865,-0.28484 -0.19293,-0.33205 -0.11931,-0.36455 -0.0404,-0.38147 0.0404,-0.38143 0.11931,-0.36492 0.19293,-0.33206 0.25865,-0.28483 0.31262,-0.22515 0.35303,-0.15602 0.37796,-0.0797 h 0.38641 l 0.3779,0.0797 0.35304,0.15602 0.31263,0.22515 0.25863,0.28483 0.19332,0.33206 0.11932,0.36492 0.0404,0.38143 -0.0404,0.38147 -0.11932,0.36455 -0.19332,0.33205 -0.25863,0.28484 -0.31263,0.22515 -0.35304,0.15602 -0.3779,0.0797 z"
       inkscape:connector-curvature="0"
       style="fill:none;stroke:#000000;stroke-width:0.49768969" />
    <path
       id="path871"
       d="M 1105.5249,17.267948 H 610.82146 V 77.280225 H 1105.5249 Z M 707.72396,71.329578 V 57.444717 h -4.99495 V 36.617456 h 4.99495 V 22.732595 h 89.90954 v 13.884861 h 4.9951 v 20.827261 h -4.9951 v 13.884861 z m -76.32361,-40.645126 -0.54793,-0.11597 -0.5118,-0.2259 -0.45324,-0.32677 -0.37492,-0.41335 -0.28017,-0.48162 -0.1733,-0.52902 -0.0586,-0.55313 0.0586,-0.55308 0.1733,-0.52903 0.28017,-0.48157 0.37492,-0.41339 0.45324,-0.326767 0.5118,-0.22628 0.54793,-0.1156 h 0.56025 l 0.54793,0.1156 0.51191,0.22628 0.45313,0.326767 0.37493,0.41339 0.28016,0.48157 0.17331,0.52903 0.0585,0.55308 -0.0585,0.55313 -0.17331,0.52902 -0.28016,0.48162 -0.37493,0.41335 -0.45313,0.32677 -0.51191,0.2259 -0.54793,0.11597 z m 14.54147,31.997952 -3.83882,-0.81008 -3.58539,-1.58477 -3.17513,-2.29024 -2.62606,-2.895467 -1.96232,-3.374317 -1.21288,-3.70555 -0.41019,-3.874967 0.41019,-3.874967 1.21288,-3.70559 1.96232,-3.374277 2.62606,-2.895497 3.17513,-2.2901 3.58539,-1.58476 3.83882,-0.810087 h 3.92469 l 3.83881,0.810087 3.5854,1.58476 3.17512,2.2901 2.62614,2.895497 1.96232,3.374277 1.2128,3.70559 0.41016,3.874967 -0.41016,3.874967 -1.2128,3.70555 -1.96232,3.374317 -2.62614,2.895467 -3.17512,2.29024 -3.5854,1.58477 -3.83881,0.81008 z m 18.83497,-31.006165 -0.54795,-0.1156 -0.5118,-0.2259 -0.45324,-0.326767 -0.37492,-0.41335 -0.28017,-0.48161 -0.17292,-0.52903 -0.0586,-0.55308 0.0586,-0.55309 0.17292,-0.52903 0.28017,-0.48161 0.37492,-0.41339 0.45324,-0.32677 0.5118,-0.2259 0.54795,-0.1156 h 0.56023 l 0.54793,0.1156 0.51192,0.2259 0.45312,0.32677 0.37494,0.41339 0.28015,0.48161 0.17293,0.52903 0.0586,0.55309 -0.0586,0.55308 -0.17293,0.52903 -0.28015,0.48161 -0.37494,0.41335 -0.45312,0.326767 -0.51192,0.2259 -0.54793,0.1156 z m 177.61901,1.80712 -0.3787,-0.0797 -0.3526,-0.15601 -0.3126,-0.22553 -0.2587,-0.28484 -0.1929,-0.33205 -0.1201,-0.36455 -0.04,-0.38143 0.04,-0.38143 0.1201,-0.364537 0.1929,-0.33206 0.2587,-0.28521 0.3126,-0.22515 0.3526,-0.15602 0.3787,-0.0797 h 0.3856 l 0.3786,0.0797 0.3527,0.15602 0.3126,0.22515 0.2587,0.28521 0.1929,0.33206 0.1197,0.364537 0.04,0.38143 -0.04,0.38143 -0.1197,0.36455 -0.1929,0.33205 -0.2587,0.28484 -0.3126,0.22553 -0.3527,0.15601 -0.3786,0.0797 z m 49.95,0 -0.3786,-0.0797 -0.3527,-0.15601 -0.3126,-0.22553 -0.2586,-0.28484 -0.193,-0.33205 -0.1197,-0.36455 -0.04,-0.38143 0.04,-0.38143 0.1197,-0.364537 0.193,-0.33206 0.2586,-0.28521 0.3126,-0.22515 0.3527,-0.15602 0.3786,-0.0797 h 0.3857 l 0.3785,0.0797 0.3527,0.15602 0.3126,0.22515 0.2587,0.28521 0.1929,0.33206 0.1197,0.364537 0.04,0.38143 -0.04,0.38143 -0.1197,0.36455 -0.1929,0.33205 -0.2587,0.28484 -0.3126,0.22553 -0.3527,0.15601 -0.3785,0.0797 z m -189.80995,0 -0.37796,-0.0797 -0.35303,-0.15601 -0.31262,-0.22553 -0.25865,-0.28484 -0.19331,-0.33205 -0.11931,-0.36455 -0.0404,-0.38143 0.0404,-0.38143 0.11931,-0.364537 0.19331,-0.33206 0.25865,-0.28521 0.31262,-0.22515 0.35303,-0.15602 0.37796,-0.0797 h 0.38637 l 0.37791,0.0797 0.35303,0.15602 0.31263,0.22515 0.25864,0.28521 0.19332,0.33206 0.11931,0.364537 0.0404,0.38143 -0.0404,0.38143 -0.11931,0.36455 -0.19332,0.33205 -0.25864,0.28484 -0.31263,0.22553 -0.35303,0.15601 -0.37791,0.0797 z m 239.75995,0 -0.3786,-0.0797 -0.3526,-0.15601 -0.3127,-0.22553 -0.2586,-0.28484 -0.1929,-0.33205 -0.1201,-0.36455 -0.04,-0.38143 0.04,-0.38143 0.1201,-0.364537 0.1929,-0.33206 0.2586,-0.28521 0.3127,-0.22515 0.3526,-0.15602 0.3786,-0.0797 h 0.3856 l 0.3787,0.0797 0.3527,0.15602 0.3126,0.22515 0.2586,0.28521 0.193,0.33206 0.1197,0.364537 0.04,0.38143 -0.04,0.38143 -0.1197,0.36455 -0.193,0.33205 -0.2586,0.28484 -0.3126,0.22553 -0.3527,0.15601 -0.3787,0.0797 z m -139.8604,0 -0.378,-0.0797 -0.353,-0.15601 -0.3126,-0.22553 -0.2587,-0.28484 -0.1933,-0.33205 -0.1193,-0.36455 -0.04,-0.38143 0.04,-0.38143 0.1193,-0.364537 0.1933,-0.33206 0.2587,-0.28521 0.3126,-0.22515 0.353,-0.15602 0.378,-0.0797 h 0.3864 l 0.3779,0.0797 0.353,0.15602 0.3126,0.22515 0.2587,0.28521 0.1929,0.33206 0.1193,0.364537 0.04,0.38143 -0.04,0.38143 -0.1193,0.36455 -0.1929,0.33205 -0.2587,0.28484 -0.3126,0.22553 -0.353,0.15601 -0.3779,0.0797 z m 43.1502,26.936675 V 37.609206 h 95.904 v 22.810828 z m -214.18525,2.939437 -0.54793,-0.1156 -0.5118,-0.22628 -0.45324,-0.326767 -0.37492,-0.41339 -0.28017,-0.48161 -0.1733,-0.52899 -0.0586,-0.55308 0.0586,-0.55313 0.1733,-0.52902 0.28017,-0.48162 0.37492,-0.41335 0.45324,-0.32677 0.5118,-0.2259 0.54793,-0.1156 h 0.56025 l 0.54793,0.1156 0.51191,0.2259 0.45313,0.32677 0.37493,0.41335 0.28016,0.48162 0.17331,0.52902 0.0585,0.55313 -0.0585,0.55308 -0.17331,0.52899 -0.28016,0.48161 -0.37493,0.41339 -0.45313,0.326767 -0.51191,0.22628 -0.54793,0.1156 z m 33.37644,0 -0.54795,-0.1156 -0.5118,-0.22628 -0.45324,-0.326767 -0.37492,-0.41339 -0.28017,-0.48161 -0.17292,-0.52899 -0.0586,-0.55308 0.0586,-0.55313 0.17292,-0.52902 0.28017,-0.48162 0.37492,-0.41335 0.45324,-0.32677 0.5118,-0.2259 0.54795,-0.1156 h 0.56023 l 0.54793,0.1156 0.51192,0.2259 0.45312,0.32677 0.37494,0.41335 0.28015,0.48162 0.17293,0.52902 0.0586,0.55313 -0.0586,0.55308 -0.17293,0.52899 -0.28015,0.48161 -0.37494,0.41339 -0.45312,0.326767 -0.51192,0.22628 -0.54793,0.1156 z m 137.65861,4.83597 -0.378,-0.0797 -0.353,-0.15601 -0.3126,-0.22515 -0.2587,-0.28522 -0.1933,-0.33205 -0.1193,-0.36455 -0.04,-0.38146 0.04,-0.38143 0.1193,-0.36493 0.1933,-0.33205 0.2587,-0.28484 0.3126,-0.22515 0.353,-0.15602 0.378,-0.0797 h 0.3864 l 0.3779,0.0797 0.353,0.15602 0.3126,0.22515 0.2587,0.28484 0.1929,0.33205 0.1193,0.36493 0.04,0.38143 -0.04,0.38146 -0.1193,0.36455 -0.1929,0.33205 -0.2587,0.28522 -0.3126,0.22515 -0.353,0.15601 -0.3779,0.0797 z m 139.8604,0 -0.3786,-0.0797 -0.3526,-0.15601 -0.3127,-0.22515 -0.2586,-0.28522 -0.1929,-0.33205 -0.1201,-0.36455 -0.04,-0.38146 0.04,-0.38143 0.1201,-0.36493 0.1929,-0.33205 0.2586,-0.28484 0.3127,-0.22515 0.3526,-0.15602 0.3786,-0.0797 h 0.3856 l 0.3787,0.0797 0.3527,0.15602 0.3126,0.22515 0.2586,0.28484 0.193,0.33205 0.1197,0.36493 0.04,0.38143 -0.04,0.38146 -0.1197,0.36455 -0.193,0.33205 -0.2586,0.28522 -0.3126,0.22515 -0.3527,0.15601 -0.3787,0.0797 z m -239.75995,0 -0.37796,-0.0797 -0.35303,-0.15601 -0.31262,-0.22515 -0.25865,-0.28522 -0.19331,-0.33205 -0.11931,-0.36455 -0.0404,-0.38146 0.0404,-0.38143 0.11931,-0.36493 0.19331,-0.33205 0.25865,-0.28484 0.31262,-0.22515 0.35303,-0.15602 0.37796,-0.0797 h 0.38637 l 0.37791,0.0797 0.35303,0.15602 0.31263,0.22515 0.25864,0.28484 0.19332,0.33205 0.11931,0.36493 0.0404,0.38143 -0.0404,0.38146 -0.11931,0.36455 -0.19332,0.33205 -0.25864,0.28522 -0.31263,0.22515 -0.35303,0.15601 -0.37791,0.0797 z m 189.80995,0 -0.3786,-0.0797 -0.3527,-0.15601 -0.3126,-0.22515 -0.2586,-0.28522 -0.193,-0.33205 -0.1197,-0.36455 -0.04,-0.38146 0.04,-0.38143 0.1197,-0.36493 0.193,-0.33205 0.2586,-0.28484 0.3126,-0.22515 0.3527,-0.15602 0.3786,-0.0797 h 0.3857 l 0.3785,0.0797 0.3527,0.15602 0.3126,0.22515 0.2587,0.28484 0.1929,0.33205 0.1197,0.36493 0.04,0.38143 -0.04,0.38146 -0.1197,0.36455 -0.1929,0.33205 -0.2587,0.28522 -0.3126,0.22515 -0.3527,0.15601 -0.3785,0.0797 z m -49.95,0 -0.3787,-0.0797 -0.3526,-0.15601 -0.3126,-0.22515 -0.2587,-0.28522 -0.1929,-0.33205 -0.1201,-0.36455 -0.04,-0.38146 0.04,-0.38143 0.1201,-0.36493 0.1929,-0.33205 0.2587,-0.28484 0.3126,-0.22515 0.3526,-0.15602 0.3787,-0.0797 h 0.3856 l 0.3786,0.0797 0.3527,0.15602 0.3126,0.22515 0.2587,0.28484 0.1929,0.33205 0.1197,0.36493 0.04,0.38143 -0.04,0.38146 -0.1197,0.36455 -0.1929,0.33205 -0.2587,0.28522 -0.3126,0.22515 -0.3527,0.15601 -0.3786,0.0797 z"
       inkscape:connector-curvature="0"
       style="fill:none;stroke:#000000;stroke-width:0.49768931" />
  </g>
</svg>
