<?xml version="1.0" encoding="UTF-8" standalone="no"?>
<svg
   xmlns:dc="http://purl.org/dc/elements/1.1/"
   xmlns:cc="http://creativecommons.org/ns#"
   xmlns:rdf="http://www.w3.org/1999/02/22-rdf-syntax-ns#"
   xmlns:svg="http://www.w3.org/2000/svg"
   xmlns="http://www.w3.org/2000/svg"
   xmlns:sodipodi="http://sodipodi.sourceforge.net/DTD/sodipodi-0.dtd"
   xmlns:inkscape="http://www.inkscape.org/namespaces/inkscape"
   width="793.700787402"
   height="1122.51968504"
   version="1.1"
   id="svg2229"
   sodipodi:docname="3_sys_acrylic_just_sidepanels.svg"
   inkscape:version="0.92.2 (5c3e80d, 2017-08-06)">
  <metadata
     id="metadata2233">
    <rdf:RDF>
      <cc:Work
         rdf:about="">
        <dc:format>image/svg+xml</dc:format>
        <dc:type
           rdf:resource="http://purl.org/dc/dcmitype/StillImage" />
        <dc:title></dc:title>
      </cc:Work>
    </rdf:RDF>
  </metadata>
  <sodipodi:namedview
     pagecolor="#ffffff"
     bordercolor="#666666"
     borderopacity="1"
     objecttolerance="10"
     gridtolerance="10"
     guidetolerance="10"
     inkscape:pageopacity="0"
     inkscape:pageshadow="2"
     inkscape:window-width="1920"
     inkscape:window-height="986"
     id="namedview2231"
     showgrid="false"
     inkscape:zoom="0.59465222"
     inkscape:cx="1003.2583"
     inkscape:cy="505.45713"
     inkscape:window-x="-11"
     inkscape:window-y="-11"
     inkscape:window-maximized="1"
     inkscape:current-layer="g2227" />
  <desc
     id="desc2085">C:\cygwin64\home\rjdro\github_copy_dr.robotlab\dr.robotlab_library\BOM_inventory\build2\3_sys_acrylic.dxf - scale = 1.000000, origin = (0.000000, 0.000000), method = manual</desc>
  <defs
     id="defs2099">
    <marker
       id="DistanceX"
       orient="auto"
       refX="0.0"
       refY="0.0"
       style="overflow:visible">
      <path
         d="M 3,-3 L -3,3 M 0,-5 L  0,5"
         style="stroke:#000000; stroke-width:0.5"
         id="path2087" />
    </marker>
    <pattern
       height="8"
       id="Hatch"
       patternUnits="userSpaceOnUse"
       width="8"
       x="0"
       y="0">
      <path
         d="M8 4 l-4,4"
         linecap="square"
         stroke="#000000"
         stroke-width="0.25"
         id="path2090" />
      <path
         d="M6 2 l-4,4"
         linecap="square"
         stroke="#000000"
         stroke-width="0.25"
         id="path2092" />
      <path
         d="M4 0 l-4,4"
         linecap="square"
         stroke="#000000"
         stroke-width="0.25"
         id="path2094" />
    </pattern>
    <symbol
       id="*MODEL_SPACE" />
    <symbol
       id="*PAPER_SPACE" />
  </defs>
  <g
     inkscape:groupmode="layer"
     inkscape:label="0"
     id="g2101" />
  <g
     inkscape:groupmode="layer"
     inkscape:label="Layer_1"
     id="g2227">
    <path
       d="M 0.5,895.20144 V 1122.0197 H 2263.6932 V 895.20144"
       style="fill:none;stroke:#000000"
       id="path2105"
       inkscape:connector-curvature="0"
       sodipodi:nodetypes="cccc" />
    <path
       d="m 1017.8836,1071.2286 1.4313,0.3012 1.3331,0.5897 1.1818,0.8524 0.9774,1.0765 0.7295,1.255 0.4524,1.3779 0.1512,1.4416 -0.1512,1.4418 -0.4524,1.3777 -0.7295,1.2551 -0.9774,1.0765 -1.1818,0.851 -1.3331,0.5896 -1.4313,0.3013 h -1.4577 l -1.4313,-0.3013 -1.3331,-0.5896 -1.1818,-0.851 -0.9778,-1.0765 -0.7291,-1.2551 -0.4524,-1.3777 -0.1512,-1.4418 0.1512,-1.4416 0.4524,-1.3779 0.7291,-1.255 0.9778,-1.0765 1.1818,-0.8524 1.3331,-0.5897 1.4313,-0.3012 z"
       style="fill:none;stroke:#000000"
       id="path2107"
       inkscape:connector-curvature="0" />
    <path
       d="m 1206.7039,1071.2286 1.4313,0.3012 1.3334,0.5897 1.1815,0.8524 0.9778,1.0765 0.7294,1.255 0.4539,1.3779 0.1512,1.4416 -0.1512,1.4418 -0.4539,1.3777 -0.7294,1.2551 -0.9778,1.0765 -1.1815,0.851 -1.3334,0.5896 -1.4313,0.3013 h -1.4578 l -1.4309,-0.3013 -1.333,-0.5896 -1.1819,-0.851 -0.9777,-1.0765 -0.7295,-1.2551 -0.4524,-1.3777 -0.1512,-1.4418 0.1512,-1.4416 0.4524,-1.3779 0.7295,-1.255 0.9777,-1.0765 1.1819,-0.8524 1.333,-0.5897 1.4309,-0.3012 z"
       style="fill:none;stroke:#000000"
       id="path2109"
       inkscape:connector-curvature="0" />
    <path
       d="m 1395.5246,1071.2286 1.4313,0.3012 1.333,0.5897 1.1819,0.8524 0.9777,1.0765 0.7295,1.255 0.4539,1.3779 0.1512,1.4416 -0.1512,1.4418 -0.4539,1.3777 -0.7295,1.2551 -0.9777,1.0765 -1.1819,0.851 -1.333,0.5896 -1.4313,0.3013 h -1.4578 l -1.4313,-0.3013 -1.333,-0.5896 -1.1819,-0.851 -0.9778,-1.0765 -0.7294,-1.2551 -0.4536,-1.3777 -0.1511,-1.4418 0.1511,-1.4416 0.4536,-1.3779 0.7294,-1.255 0.9778,-1.0765 1.1819,-0.8524 1.333,-0.5897 1.4313,-0.3012 z"
       style="fill:none;stroke:#000000"
       id="path2111"
       inkscape:connector-curvature="0" />
    <path
       d="m 1849.5464,1053.4288 1.6214,0.3428 1.5148,0.6682 1.3414,0.968 1.1093,1.2222 0.8292,1.425 0.5125,1.5654 0.1738,1.6365 -0.1738,1.6365 -0.5125,1.5651 -0.8292,1.4249 -1.1093,1.2222 -1.3414,0.968 -1.5148,0.6683 -1.6214,0.3428 h -1.6577 l -1.6218,-0.3428 -1.5149,-0.6683 -1.3413,-0.968 -1.1093,-1.2222 -0.8292,-1.4249 -0.5125,-1.5651 -0.1739,-1.6365 0.1739,-1.6365 0.5125,-1.5654 0.8292,-1.425 1.1093,-1.2222 1.3413,-0.968 1.5149,-0.6682 1.6218,-0.3428 z"
       style="fill:none;stroke:#000000"
       id="path2113"
       inkscape:connector-curvature="0" />
    <path
       d="m 2041.3869,1053.4288 1.6214,0.3428 1.5148,0.6682 1.3418,0.968 1.1089,1.2222 0.8292,1.425 0.5125,1.5654 0.1739,1.6365 -0.1739,1.6365 -0.5125,1.5651 -0.8292,1.4249 -1.1089,1.2222 -1.3418,0.968 -1.5148,0.6683 -1.6214,0.3428 h -1.6581 l -1.6214,-0.3428 -1.5149,-0.6683 -1.3417,-0.968 -1.1089,-1.2222 -0.8292,-1.4249 -0.5125,-1.5651 -0.1739,-1.6365 0.1739,-1.6365 0.5125,-1.5654 0.8292,-1.425 1.1089,-1.2222 1.3417,-0.968 1.5149,-0.6682 1.6214,-0.3428 z"
       style="fill:none;stroke:#000000"
       id="path2115"
       inkscape:connector-curvature="0" />
    <path
       d="m 1383.4664,969.42059 v 86.21411 h -362.5353 v -86.21411 z"
       style="fill:none;stroke:#000000"
       id="path2117"
       inkscape:connector-curvature="0" />
    <path
       d="m 2059.4398,972.04457 v 78.71713 h -219.0304 v -78.71713 z"
       style="fill:none;stroke:#000000"
       id="path2119"
       inkscape:connector-curvature="0" />
    <path
       d="m 1844.2592,951.09635 1.6218,0.3428 1.5148,0.66818 1.3414,0.96805 1.1093,1.22215 0.8292,1.42492 0.5121,1.56529 0.1739,1.63665 -0.1739,1.63665 -0.5121,1.56488 -0.8292,1.42492 -1.1093,1.22215 -1.3414,0.96804 -1.5148,0.66962 -1.6218,0.34281 h -1.6577 l -1.6214,-0.34281 -1.5149,-0.66962 -1.3417,-0.96804 -1.1089,-1.22215 -0.8292,-1.42492 -0.5125,-1.56488 -0.1739,-1.63665 0.1739,-1.63665 0.5125,-1.56529 0.8292,-1.42492 1.1089,-1.22215 1.3417,-0.96805 1.5149,-0.66818 1.6214,-0.3428 z"
       style="fill:none;stroke:#000000"
       id="path2121"
       inkscape:connector-curvature="0" />
    <path
       d="m 2041.3869,947.348 1.6214,0.34129 1.5148,0.66819 1.3418,0.96805 1.1089,1.22218 0.8292,1.42492 0.5125,1.56541 0.1739,1.63665 -0.1739,1.63653 -0.5125,1.56499 -0.8292,1.42492 -1.1089,1.22218 -1.3418,0.96802 -1.5148,0.66962 -1.6214,0.34129 h -1.6581 l -1.6214,-0.34129 -1.5149,-0.66962 -1.3417,-0.96802 -1.1089,-1.22218 -0.8292,-1.42492 -0.5125,-1.56499 -0.1739,-1.63653 0.1739,-1.63665 0.5125,-1.56541 0.8292,-1.42492 1.1089,-1.22218 1.3417,-0.96805 1.5149,-0.66819 1.6214,-0.34129 z"
       style="fill:none;stroke:#000000"
       id="path2123"
       inkscape:connector-curvature="0" />
    <path
       d="m 1017.8836,940.03322 1.4313,0.30123 1.3331,0.58968 1.1818,0.85239 0.9774,1.07653 0.7295,1.25503 0.4524,1.37779 0.1512,1.44147 -0.1512,1.44163 -0.4524,1.37782 -0.7295,1.25499 -0.9774,1.07656 -1.1818,0.85097 -1.3331,0.58968 -1.4313,0.30123 h -1.4577 l -1.4313,-0.30123 -1.3331,-0.58968 -1.1818,-0.85097 -0.9778,-1.07656 -0.7291,-1.25499 -0.4524,-1.37782 -0.1512,-1.44163 0.1512,-1.44147 0.4524,-1.37779 0.7291,-1.25503 0.9778,-1.07653 1.1818,-0.85239 1.3331,-0.58968 1.4313,-0.30123 z"
       style="fill:none;stroke:#000000"
       id="path2125"
       inkscape:connector-curvature="0" />
    <path
       d="m 1206.7039,940.03322 1.4313,0.30123 1.3334,0.58968 1.1815,0.85239 0.9778,1.07653 0.7294,1.25503 0.4539,1.37779 0.1512,1.44147 -0.1512,1.44163 -0.4539,1.37782 -0.7294,1.25499 -0.9778,1.07656 -1.1815,0.85097 -1.3334,0.58968 -1.4313,0.30123 h -1.4578 l -1.4309,-0.30123 -1.333,-0.58968 -1.1819,-0.85097 -0.9777,-1.07656 -0.7295,-1.25499 -0.4524,-1.37782 -0.1512,-1.44163 0.1512,-1.44147 0.4524,-1.37779 0.7295,-1.25503 0.9777,-1.07653 1.1819,-0.85239 1.333,-0.58968 1.4309,-0.30123 z"
       style="fill:none;stroke:#000000"
       id="path2127"
       inkscape:connector-curvature="0" />
    <path
       d="m 1395.5246,940.03322 1.4313,0.30123 1.333,0.58968 1.1819,0.85239 0.9777,1.07653 0.7295,1.25503 0.4539,1.37779 0.1512,1.44147 -0.1512,1.44163 -0.4539,1.37782 -0.7295,1.25499 -0.9777,1.07656 -1.1819,0.85097 -1.333,0.58968 -1.4313,0.30123 h -1.4578 l -1.4313,-0.30123 -1.333,-0.58968 -1.1819,-0.85097 -0.9778,-1.07656 -0.7294,-1.25499 -0.4536,-1.37782 -0.1511,-1.44163 0.1511,-1.44147 0.4536,-1.37779 0.7294,-1.25503 0.9778,-1.07653 1.1819,-0.85239 1.333,-0.58968 1.4313,-0.30123 z"
       style="fill:none;stroke:#000000"
       id="path2129"
       inkscape:connector-curvature="0" />
    <path
       d="M 0.5,667.42084 V 894.20107 H 2263.6964 V 667.42084 H 1871.6822 0.5"
       style="fill:none;stroke:#000000"
       id="path2131"
       inkscape:connector-curvature="0"
       sodipodi:nodetypes="cccccc" />
    <path
       d="m 245.88394,725.35846 -1.62157,-0.3428 -1.51465,-0.66826 -1.34162,-0.96797 -1.10902,-1.22223 -0.82927,-1.42492 -0.51239,-1.5654 -0.17272,-1.63654 0.17272,-1.63661 0.51239,-1.56487 0.82927,-1.42492 1.10902,-1.22219 1.34162,-0.96801 1.51465,-0.66822 1.62157,-0.34281 h 1.65792 l 1.62172,0.34281 1.5145,0.66822 1.34165,0.96801 1.10903,1.22219 0.82927,1.42492 0.51239,1.56487 0.17272,1.63661 -0.17272,1.63654 -0.51239,1.5654 -0.82927,1.42492 -1.10903,1.22223 -1.34165,0.96797 -1.5145,0.66826 -1.62172,0.3428 z"
       style="fill:none;stroke:#000000"
       id="path2133"
       inkscape:connector-curvature="0" />
    <path
       d="m 422.72516,728.66986 -1.42859,-0.30123 -1.33455,-0.58968 -1.18178,-0.85236 -0.97773,-1.07656 -0.73077,-1.25503 -0.45101,-1.37923 -0.15269,-1.44158 0.15269,-1.44167 0.45101,-1.37922 0.73077,-1.25499 0.97773,-1.07656 1.18178,-0.85097 1.33455,-0.58964 1.42859,-0.30123 h 1.46067 l 1.42859,0.30123 1.33451,0.58964 1.18182,0.85097 0.97769,1.07656 0.72934,1.25499 0.45105,1.37922 0.15269,1.44167 -0.15269,1.44158 -0.45105,1.37923 -0.72934,1.25503 -0.97769,1.07656 -1.18182,0.85236 -1.33451,0.58968 -1.42859,0.30123 z"
       style="fill:none;stroke:#000000"
       id="path2135"
       inkscape:connector-curvature="0" />
    <path
       d="m 1253.5349,728.66986 -1.4313,-0.30123 -1.333,-0.58968 -1.1819,-0.85236 -0.9774,-1.07656 -0.7294,-1.25503 -0.4525,-1.37923 -0.1511,-1.44158 0.1511,-1.44167 0.4525,-1.37922 0.7294,-1.25499 0.9774,-1.07656 1.1819,-0.85097 1.333,-0.58964 1.4313,-0.30123 h 1.4578 l 1.4313,0.30123 1.333,0.58964 1.1819,0.85097 0.9777,1.07656 0.7295,1.25499 0.4524,1.37922 0.1512,1.44167 -0.1512,1.44158 -0.4524,1.37923 -0.7295,1.25503 -0.9777,1.07656 -1.1819,0.85236 -1.333,0.58968 -1.4313,0.30123 z"
       style="fill:none;stroke:#000000"
       id="path2137"
       inkscape:connector-curvature="0" />
    <path
       d="m 875.89358,728.66986 -1.43093,-0.30123 -1.33304,-0.58968 -1.18186,-0.85236 -0.97777,-1.07656 -0.72945,-1.25503 -0.4524,-1.37923 -0.15118,-1.44158 0.15118,-1.44167 0.4524,-1.37922 0.72945,-1.25499 0.97777,-1.07656 1.18186,-0.85097 1.33304,-0.58964 1.43093,-0.30123 h 1.45776 l 1.43131,0.30123 1.33341,0.58964 1.18148,0.85097 0.97777,1.07656 0.72945,1.25499 0.45392,1.37922 0.15118,1.44167 -0.15118,1.44158 -0.45392,1.37923 -0.72945,1.25503 -0.97777,1.07656 -1.18148,0.85236 -1.33341,0.58968 -1.43131,0.30123 z"
       style="fill:none;stroke:#000000"
       id="path2139"
       inkscape:connector-curvature="0" />
    <path
       d="m 1064.7142,728.66986 -1.4309,-0.30123 -1.3334,-0.58968 -1.1815,-0.85236 -0.9778,-1.07656 -0.7294,-1.25503 -0.4539,-1.37923 -0.1512,-1.44158 0.1512,-1.44167 0.4539,-1.37922 0.7294,-1.25499 0.9778,-1.07656 1.1815,-0.85097 1.3334,-0.58964 1.4309,-0.30123 h 1.4578 l 1.4313,0.30123 1.333,0.58964 1.1819,0.85097 0.9778,1.07656 0.7294,1.25499 0.4539,1.37922 0.1512,1.44167 -0.1512,1.44158 -0.4539,1.37923 -0.7294,1.25503 -0.9778,1.07656 -1.1819,0.85236 -1.333,0.58968 -1.4313,0.30123 z"
       style="fill:none;stroke:#000000"
       id="path2141"
       inkscape:connector-curvature="0" />
    <path
       d="m 591.25743,735.22439 -1.62153,-0.3428 -1.5148,-0.66819 -1.34165,-0.96805 -1.10903,-1.22214 -0.82923,-1.42492 -0.51243,-1.56529 -0.17272,-1.6365 0.17272,-1.63669 0.51243,-1.56499 0.82923,-1.42492 1.10903,-1.22215 1.34165,-0.96805 1.5148,-0.66962 1.62153,-0.3428 h 1.65781 l 1.62154,0.3428 1.51479,0.66962 1.3417,0.96805 1.10898,1.22215 0.82927,1.42492 0.51239,1.56499 0.17273,1.63669 -0.17273,1.6365 -0.51239,1.56529 -0.82927,1.42492 -1.10898,1.22214 -1.3417,0.96805 -1.51479,0.66819 -1.62154,0.3428 z"
       style="fill:none;stroke:#000000"
       id="path2143"
       inkscape:connector-curvature="0" />
    <path
       d="m 887.95178,830.47782 v -86.21405 h 362.53572 v 86.21405 z"
       style="fill:none;stroke:#000000"
       id="path2145"
       inkscape:connector-curvature="0" />
    <path
       d="m 245.96516,837.97451 v -89.96235 h 362.5333 v 89.96235 z"
       style="fill:none;stroke:#000000"
       id="path2147"
       inkscape:connector-curvature="0" />
    <path
       d="m 255.54018,858.32292 -1.62157,-0.3428 -1.51465,-0.66818 -1.34162,-0.96805 -1.10906,-1.22215 -0.82923,-1.42496 -0.51239,-1.5654 -0.17272,-1.6365 0.17272,-1.63669 0.51239,-1.56499 0.82923,-1.42492 1.10906,-1.22214 1.34162,-0.96806 1.51465,-0.66818 1.62157,-0.3428 h 1.65792 l 1.62172,0.3428 1.5145,0.66818 1.34166,0.96806 1.10898,1.22214 0.82931,1.42492 0.51235,1.56499 0.17424,1.63669 -0.17424,1.6365 -0.51235,1.5654 -0.82931,1.42496 -1.10898,1.22215 -1.34166,0.96805 -1.5145,0.66818 -1.62172,0.3428 z"
       style="fill:none;stroke:#000000"
       id="path2149"
       inkscape:connector-curvature="0" />
    <path
       d="m 1253.5349,859.86505 -1.4313,-0.30123 -1.333,-0.58965 -1.1819,-0.85243 -0.9774,-1.07652 -0.7294,-1.255 -0.4525,-1.37782 -0.1511,-1.44178 0.1511,-1.44163 0.4525,-1.37922 0.7294,-1.25503 0.9774,-1.07652 1.1819,-0.85096 1.333,-0.58969 1.4313,-0.30122 h 1.4578 l 1.4313,0.30122 1.333,0.58969 1.1819,0.85096 0.9777,1.07652 0.7295,1.25503 0.4524,1.37922 0.1512,1.44163 -0.1512,1.44178 -0.4524,1.37782 -0.7295,1.255 -0.9777,1.07652 -1.1819,0.85243 -1.333,0.58965 -1.4313,0.30123 z"
       style="fill:none;stroke:#000000"
       id="path2151"
       inkscape:connector-curvature="0" />
    <path
       d="m 1064.7142,859.86505 -1.4309,-0.30123 -1.3334,-0.58965 -1.1815,-0.85243 -0.9778,-1.07652 -0.7294,-1.255 -0.4539,-1.37782 -0.1512,-1.44178 0.1512,-1.44163 0.4539,-1.37922 0.7294,-1.25503 0.9778,-1.07652 1.1815,-0.85096 1.3334,-0.58969 1.4309,-0.30122 h 1.4578 l 1.4313,0.30122 1.333,0.58969 1.1819,0.85096 0.9778,1.07652 0.7294,1.25503 0.4539,1.37922 0.1512,1.44163 -0.1512,1.44178 -0.4539,1.37782 -0.7294,1.255 -0.9778,1.07652 -1.1819,0.85243 -1.333,0.58965 -1.4313,0.30123 z"
       style="fill:none;stroke:#000000"
       id="path2153"
       inkscape:connector-curvature="0" />
    <path
       d="m 619.09728,859.86505 -1.42859,-0.30123 -1.33451,-0.58965 -1.18182,-0.85243 -0.97765,-1.07652 -0.73077,-1.255 -0.45105,-1.37782 -0.15269,-1.44178 0.15269,-1.44163 0.45105,-1.37922 0.73077,-1.25503 0.97765,-1.07652 1.18182,-0.85096 1.33451,-0.58969 1.42859,-0.30122 h 1.46071 l 1.42855,0.30122 1.33455,0.58969 1.18178,0.85096 0.97773,1.07652 0.72933,1.25503 0.45102,1.37922 0.15269,1.44163 -0.15269,1.44178 -0.45102,1.37782 -0.72933,1.255 -0.97773,1.07652 -1.18178,0.85243 -1.33455,0.58965 -1.42855,0.30123 z"
       style="fill:none;stroke:#000000"
       id="path2155"
       inkscape:connector-curvature="0" />
    <path
       d="m 422.72516,859.86505 -1.42859,-0.30123 -1.33455,-0.58965 -1.18178,-0.85243 -0.97773,-1.07652 -0.73077,-1.255 -0.45101,-1.37782 -0.15269,-1.44178 0.15269,-1.44163 0.45101,-1.37922 0.73077,-1.25503 0.97773,-1.07652 1.18178,-0.85096 1.33455,-0.58969 1.42859,-0.30122 h 1.46067 l 1.42859,0.30122 1.33451,0.58969 1.18182,0.85096 0.97769,1.07652 0.72934,1.25503 0.45105,1.37922 0.15269,1.44163 -0.15269,1.44178 -0.45105,1.37782 -0.72934,1.255 -0.97769,1.07652 -1.18182,0.85243 -1.33451,0.58965 -1.42859,0.30123 z"
       style="fill:none;stroke:#000000"
       id="path2157"
       inkscape:connector-curvature="0" />
    <path
       d="m 875.89358,859.86505 -1.43093,-0.30123 -1.33304,-0.58965 -1.18186,-0.85243 -0.97777,-1.07652 -0.72945,-1.255 -0.4524,-1.37782 -0.15118,-1.44178 0.15118,-1.44163 0.4524,-1.37922 0.72945,-1.25503 0.97777,-1.07652 1.18186,-0.85096 1.33304,-0.58969 1.43093,-0.30122 h 1.45776 l 1.43131,0.30122 1.33341,0.58969 1.18148,0.85096 0.97777,1.07652 0.72945,1.25503 0.45392,1.37922 0.15118,1.44163 -0.15118,1.44178 -0.45392,1.37782 -0.72945,1.255 -0.97777,1.07652 -1.18148,0.85243 -1.33341,0.58965 -1.43131,0.30123 z"
       style="fill:none;stroke:#000000"
       id="path2159"
       inkscape:connector-curvature="0" />
    <path
       d="M 1872.287,666.80908 V 439.99091 H 0.5 v 226.81817"
       style="fill:none;stroke:#000000"
       id="path2161"
       inkscape:connector-curvature="0"
       sodipodi:nodetypes="cccc" />
    <path
       d="m 573.68127,501.27756 -1.42836,-0.30122 -1.33425,-0.58965 -1.1816,-0.85239 -0.97757,-1.07657 -0.73062,-1.25499 -0.45094,-1.37783 -0.15269,-1.44162 0.15269,-1.44162 0.45094,-1.37779 0.73062,-1.25503 0.97757,-1.07656 1.1816,-0.85097 1.33425,-0.58964 1.42836,-0.30123 h 1.46044 l 1.42836,0.30123 1.33425,0.58964 1.18159,0.85097 0.97758,1.07656 0.72918,1.25503 0.45094,1.37779 0.15269,1.44162 -0.15269,1.44162 -0.45094,1.37783 -0.72918,1.25499 -0.97758,1.07657 -1.18159,0.85239 -1.33425,0.58965 -1.42836,0.30122 z"
       style="fill:none;stroke:#000000"
       id="path2163"
       inkscape:connector-curvature="0" />
    <path
       d="m 996.56663,501.27756 -1.43093,-0.30122 -1.33304,-0.58965 -1.18148,-0.85239 -0.97776,-1.07657 -0.72907,-1.25499 -0.45241,-1.37783 -0.15118,-1.44162 0.15118,-1.44162 0.45241,-1.37779 0.72907,-1.25503 0.97776,-1.07656 1.18148,-0.85097 1.33304,-0.58964 1.43093,-0.30123 h 1.45734 l 1.431,0.30123 1.33303,0.58964 1.1815,0.85097 0.9774,1.07656 0.7294,1.25503 0.4524,1.37779 0.1512,1.44162 -0.1512,1.44162 -0.4524,1.37783 -0.7294,1.25499 -0.9774,1.07657 -1.1815,0.85239 -1.33303,0.58965 -1.431,0.30122 z"
       style="fill:none;stroke:#000000"
       id="path2165"
       inkscape:connector-curvature="0" />
    <path
       d="m 196.10801,501.27756 -1.42851,-0.30122 -1.33429,-0.58965 -1.18155,-0.85239 -0.97758,-1.07657 -0.72918,-1.25499 -0.45094,-1.37783 -0.15269,-1.44162 0.15269,-1.44162 0.45094,-1.37779 0.72918,-1.25503 0.97758,-1.07656 1.18155,-0.85097 1.33429,-0.58964 1.42851,-0.30123 h 1.46045 l 1.42828,0.30123 1.33433,0.58964 1.18159,0.85097 0.9775,1.07656 0.73066,1.25503 0.45097,1.37779 0.15269,1.44162 -0.15269,1.44162 -0.45097,1.37783 -0.73066,1.25499 -0.9775,1.07657 -1.18159,0.85239 -1.33433,0.58965 -1.42828,0.30122 z"
       style="fill:none;stroke:#000000"
       id="path2167"
       inkscape:connector-curvature="0" />
    <path
       d="m 384.89454,501.27756 -1.42832,-0.30122 -1.33428,-0.58965 -1.1816,-0.85239 -0.97754,-1.07657 -0.73065,-1.25499 -0.45094,-1.37783 -0.15269,-1.44162 0.15269,-1.44162 0.45094,-1.37779 0.73065,-1.25503 0.97754,-1.07656 1.1816,-0.85097 1.33428,-0.58964 1.42832,-0.30123 h 1.46049 l 1.42832,0.30123 1.33429,0.58964 1.18159,0.85097 0.97754,1.07656 0.73066,1.25503 0.45093,1.37779 0.15269,1.44162 -0.15269,1.44162 -0.45093,1.37783 -0.73066,1.25499 -0.97754,1.07657 -1.18159,0.85239 -1.33429,0.58965 -1.42832,0.30122 z"
       style="fill:none;stroke:#000000"
       id="path2169"
       inkscape:connector-curvature="0" />
    <path
       d="m 807.77885,501.27756 -1.4313,-0.30122 -1.33267,-0.58965 -1.18148,-0.85239 -0.97776,-1.07657 -0.72907,-1.25499 -0.45241,-1.37783 -0.15118,-1.44162 0.15118,-1.44162 0.45241,-1.37779 0.72907,-1.25503 0.97776,-1.07656 1.18148,-0.85097 1.33267,-0.58964 1.4313,-0.30123 h 1.45739 l 1.4313,0.30123 1.33267,0.58964 1.18148,0.85097 0.97776,1.07656 0.72907,1.25503 0.45392,1.37779 0.15118,1.44162 -0.15118,1.44162 -0.45392,1.37783 -0.72907,1.25499 -0.97776,1.07657 -1.18148,0.85239 -1.33267,0.58965 -1.4313,0.30122 z"
       style="fill:none;stroke:#000000"
       id="path2171"
       inkscape:connector-curvature="0" />
    <path
       d="m 1185.3544,501.27756 -1.4309,-0.30122 -1.333,-0.58965 -1.1815,-0.85239 -0.9778,-1.07657 -0.729,-1.25499 -0.4525,-1.37783 -0.1511,-1.44162 0.1511,-1.44162 0.4525,-1.37779 0.729,-1.25503 0.9778,-1.07656 1.1815,-0.85097 1.333,-0.58964 1.4309,-0.30123 h 1.4574 l 1.431,0.30123 1.333,0.58964 1.1815,0.85097 0.9777,1.07656 0.7291,1.25503 0.4524,1.37779 0.1512,1.44162 -0.1512,1.44162 -0.4524,1.37783 -0.7291,1.25499 -0.9777,1.07657 -1.1815,0.85239 -1.333,0.58965 -1.431,0.30122 z"
       style="fill:none;stroke:#000000"
       id="path2173"
       inkscape:connector-curvature="0" />
    <path
       d="M 819.83479,610.58245 V 509.37448 h 362.47261 v 101.20797 z"
       style="fill:none;stroke:#000000"
       id="path2175"
       inkscape:connector-curvature="0" />
    <path
       d="M 208.16542,603.0856 V 516.87133 H 570.6358 v 86.21427 z"
       style="fill:none;stroke:#000000"
       id="path2177"
       inkscape:connector-curvature="0" />
    <path
       d="m 1185.3544,632.47298 -1.4309,-0.30123 -1.333,-0.58968 -1.1815,-0.85096 -0.9778,-1.07656 -0.729,-1.25499 -0.4525,-1.37783 -0.1511,-1.44178 0.1511,-1.44162 0.4525,-1.37923 0.729,-1.25503 0.9778,-1.07652 1.1815,-0.85096 1.333,-0.58968 1.4309,-0.30123 h 1.4574 l 1.431,0.30123 1.333,0.58968 1.1815,0.85096 0.9777,1.07652 0.7291,1.25503 0.4524,1.37923 0.1512,1.44162 -0.1512,1.44178 -0.4524,1.37783 -0.7291,1.25499 -0.9777,1.07656 -1.1815,0.85096 -1.333,0.58968 -1.431,0.30123 z"
       style="fill:none;stroke:#000000"
       id="path2179"
       inkscape:connector-curvature="0" />
    <path
       d="m 573.68127,632.47298 -1.42836,-0.30123 -1.33425,-0.58968 -1.1816,-0.85096 -0.97757,-1.07656 -0.73062,-1.25499 -0.45094,-1.37783 -0.15269,-1.44178 0.15269,-1.44162 0.45094,-1.37923 0.73062,-1.25503 0.97757,-1.07652 1.1816,-0.85096 1.33425,-0.58968 1.42836,-0.30123 h 1.46044 l 1.42836,0.30123 1.33425,0.58968 1.18159,0.85096 0.97758,1.07652 0.72918,1.25503 0.45094,1.37923 0.15269,1.44162 -0.15269,1.44178 -0.45094,1.37783 -0.72918,1.25499 -0.97758,1.07656 -1.18159,0.85096 -1.33425,0.58968 -1.42836,0.30123 z"
       style="fill:none;stroke:#000000"
       id="path2181"
       inkscape:connector-curvature="0" />
    <path
       d="m 384.89454,632.47298 -1.42832,-0.30123 -1.33428,-0.58968 -1.1816,-0.85096 -0.97754,-1.07656 -0.73065,-1.25499 -0.45094,-1.37783 -0.15269,-1.44178 0.15269,-1.44162 0.45094,-1.37923 0.73065,-1.25503 0.97754,-1.07652 1.1816,-0.85096 1.33428,-0.58968 1.42832,-0.30123 h 1.46049 l 1.42832,0.30123 1.33429,0.58968 1.18159,0.85096 0.97754,1.07652 0.73066,1.25503 0.45093,1.37923 0.15269,1.44162 -0.15269,1.44178 -0.45093,1.37783 -0.73066,1.25499 -0.97754,1.07656 -1.18159,0.85096 -1.33429,0.58968 -1.42832,0.30123 z"
       style="fill:none;stroke:#000000"
       id="path2183"
       inkscape:connector-curvature="0" />
    <path
       d="m 807.77885,632.47298 -1.4313,-0.30123 -1.33267,-0.58968 -1.18148,-0.85096 -0.97776,-1.07656 -0.72907,-1.25499 -0.45241,-1.37783 -0.15118,-1.44178 0.15118,-1.44162 0.45241,-1.37923 0.72907,-1.25503 0.97776,-1.07652 1.18148,-0.85096 1.33267,-0.58968 1.4313,-0.30123 h 1.45739 l 1.4313,0.30123 1.33267,0.58968 1.18148,0.85096 0.97776,1.07652 0.72907,1.25503 0.45392,1.37923 0.15118,1.44162 -0.15118,1.44178 -0.45392,1.37783 -0.72907,1.25499 -0.97776,1.07656 -1.18148,0.85096 -1.33267,0.58968 -1.4313,0.30123 z"
       style="fill:none;stroke:#000000"
       id="path2185"
       inkscape:connector-curvature="0" />
    <path
       d="m 996.56663,632.47298 -1.43093,-0.30123 -1.33304,-0.58968 -1.18148,-0.85096 -0.97776,-1.07656 -0.72907,-1.25499 -0.45241,-1.37783 -0.15118,-1.44178 0.15118,-1.44162 0.45241,-1.37923 0.72907,-1.25503 0.97776,-1.07652 1.18148,-0.85096 1.33304,-0.58968 1.43093,-0.30123 h 1.45734 l 1.431,0.30123 1.33303,0.58968 1.1815,0.85096 0.9774,1.07652 0.7294,1.25503 0.4524,1.37923 0.1512,1.44162 -0.1512,1.44178 -0.4524,1.37783 -0.7294,1.25499 -0.9774,1.07656 -1.1815,0.85096 -1.33303,0.58968 -1.431,0.30123 z"
       style="fill:none;stroke:#000000"
       id="path2187"
       inkscape:connector-curvature="0" />
    <path
       d="m 196.10801,632.47298 -1.42851,-0.30123 -1.33429,-0.58968 -1.18155,-0.85096 -0.97758,-1.07656 -0.72918,-1.25499 -0.45094,-1.37783 -0.15269,-1.44178 0.15269,-1.44162 0.45094,-1.37923 0.72918,-1.25503 0.97758,-1.07652 1.18155,-0.85096 1.33429,-0.58968 1.42851,-0.30123 h 1.46045 l 1.42828,0.30123 1.33433,0.58968 1.18159,0.85096 0.9775,1.07652 0.73066,1.25503 0.45097,1.37923 0.15269,1.44162 -0.15269,1.44178 -0.45097,1.37783 -0.73066,1.25499 -0.9775,1.07656 -1.18159,0.85096 -1.33433,0.58968 -1.42828,0.30123 z"
       style="fill:none;stroke:#000000"
       id="path2189"
       inkscape:connector-curvature="0" />
    <path
       d="M 1870.2452,440.52329 V 213.70524 H 0.5 v 226.81805"
       style="fill:none;stroke:#000000"
       id="path2191"
       inkscape:connector-curvature="0"
       sodipodi:nodetypes="cccc" />
    <path
       d="m 380.67213,418.03266 v -52.47822 h -18.87855 v -78.71721 h 18.87855 v -52.47821 h 339.81559 v 52.47821 h 18.87911 v 78.71721 h -18.87911 v 52.47822 z"
       style="fill:none;stroke:#000000"
       id="path2193"
       inkscape:connector-curvature="0" />
    <path
       d="m 92.204945,264.41328 -2.070917,-0.43831 -1.934362,-0.85379 -1.713033,-1.23504 -1.417021,-1.56227 -1.05891,-1.8203 -0.654992,-1.99944 -0.22148,-2.09057 0.22148,-2.09038 0.654992,-1.99948 1.05891,-1.82011 1.417021,-1.56242 1.713033,-1.23502 1.934362,-0.85524 2.070917,-0.43691 h 2.11748 l 2.070916,0.43691 1.934778,0.85524 1.712621,1.23502 1.41705,1.56242 1.05888,1.82011 0.65503,1.99948 0.2211,2.09038 -0.2211,2.09057 -0.65503,1.99944 -1.05888,1.8203 -1.41705,1.56227 -1.712621,1.23504 -1.934778,0.85379 -2.070916,0.43831 z"
       style="fill:none;stroke:#000000"
       id="path2195"
       inkscape:connector-curvature="0" />
    <path
       d="m 147.16483,385.35042 -14.50892,-3.06172 -13.55109,-5.98968 -12.00049,-8.65602 -9.925263,-10.9435 -7.416642,-12.75333 -4.584113,-14.00522 -1.550325,-14.64555 1.550325,-14.64554 4.584113,-14.00538 7.416642,-12.75317 9.925263,-10.94362 12.00049,-8.65549 13.55109,-5.98964 14.50892,-3.06175 h 14.83348 l 14.50888,3.06175 13.55112,5.98964 12.00046,8.65549 9.92556,10.94362 7.41665,12.75317 4.58381,14.00538 1.55021,14.64554 -1.55021,14.64555 -4.58381,14.00522 -7.41665,12.75333 -9.92556,10.9435 -12.00046,8.65602 -13.55112,5.98968 -14.50888,3.06172 z"
       style="fill:none;stroke:#000000"
       id="path2197"
       inkscape:connector-curvature="0" />
    <path
       d="m 218.35212,268.16177 -2.07099,-0.43691 -1.93436,-0.8538 -1.71304,-1.23502 -1.41702,-1.56227 -1.05891,-1.82026 -0.65355,-1.99949 -0.22149,-2.09038 0.22149,-2.09041 0.65355,-1.99949 1.05891,-1.82026 1.41702,-1.56242 1.71304,-1.23503 1.93436,-0.8538 2.07099,-0.43691 h 2.1174 l 2.07092,0.43691 1.93482,0.8538 1.71258,1.23503 1.41709,1.56242 1.05884,1.82026 0.65359,1.99949 0.22148,2.09041 -0.22148,2.09038 -0.65359,1.99949 -1.05884,1.82026 -1.41709,1.56227 -1.71258,1.23502 -1.93482,0.8538 -2.07092,0.43691 z"
       style="fill:none;stroke:#000000"
       id="path2199"
       inkscape:connector-curvature="0" />
    <path
       d="m 889.66806,274.99183 -1.4313,-0.30123 -1.33267,-0.58964 -1.18148,-0.8524 -0.97776,-1.07656 -0.72907,-1.25499 -0.45392,-1.37783 -0.15118,-1.44163 0.15118,-1.44162 0.45392,-1.37778 0.72907,-1.25503 0.97776,-1.07796 1.18148,-0.85096 1.33267,-0.58968 1.4313,-0.30123 h 1.45739 l 1.43093,0.30123 1.33304,0.58968 1.18148,0.85096 0.97776,1.07796 0.72907,1.25503 0.45241,1.37778 0.15118,1.44162 -0.15118,1.44163 -0.45241,1.37783 -0.72907,1.25499 -0.97776,1.07656 -1.18148,0.8524 -1.33304,0.58964 -1.43093,0.30123 z"
       style="fill:none;stroke:#000000"
       id="path2201"
       inkscape:connector-curvature="0" />
    <path
       d="m 1078.4555,274.99183 -1.431,-0.30123 -1.333,-0.58964 -1.1815,-0.8524 -0.9774,-1.07656 -0.7294,-1.25499 -0.4524,-1.37783 -0.1512,-1.44163 0.1512,-1.44162 0.4524,-1.37778 0.7294,-1.25503 0.9774,-1.07796 1.1815,-0.85096 1.333,-0.58968 1.431,-0.30123 h 1.4577 l 1.4306,0.30123 1.333,0.58968 1.1815,0.85096 0.9778,1.07796 0.729,1.25503 0.4524,1.37778 0.1512,1.44162 -0.1512,1.44163 -0.4524,1.37783 -0.729,1.25499 -0.9778,1.07656 -1.1815,0.8524 -1.333,0.58964 -1.4306,0.30123 z"
       style="fill:none;stroke:#000000"
       id="path2203"
       inkscape:connector-curvature="0" />
    <path
       d="m 361.06353,274.99183 -1.42851,-0.30123 -1.33429,-0.58964 -1.18156,-0.8524 -0.97757,-1.07656 -0.73062,-1.25499 -0.45094,-1.37783 -0.15269,-1.44163 0.15269,-1.44162 0.45094,-1.37778 0.73062,-1.25503 0.97757,-1.07796 1.18156,-0.85096 1.33429,-0.58968 1.42851,-0.30123 h 1.46029 l 1.42833,0.30123 1.33428,0.58968 1.1816,0.85096 0.97753,1.07796 0.73066,1.25503 0.45094,1.37778 0.15269,1.44162 -0.15269,1.44163 -0.45094,1.37783 -0.73066,1.25499 -0.97753,1.07656 -1.1816,0.8524 -1.33428,0.58964 -1.42833,0.30123 z"
       style="fill:none;stroke:#000000"
       id="path2205"
       inkscape:connector-curvature="0" />
    <path
       d="m 1267.2429,274.99183 -1.431,-0.30123 -1.3326,-0.58964 -1.1819,-0.8524 -0.9774,-1.07656 -0.729,-1.25499 -0.454,-1.37783 -0.1511,-1.44163 0.1511,-1.44162 0.454,-1.37778 0.729,-1.25503 0.9774,-1.07796 1.1819,-0.85096 1.3326,-0.58968 1.431,-0.30123 h 1.4574 l 1.4313,0.30123 1.333,0.58968 1.1815,0.85096 0.9774,1.07796 0.7294,1.25503 0.4524,1.37778 0.1512,1.44162 -0.1512,1.44163 -0.4524,1.37783 -0.7294,1.25499 -0.9774,1.07656 -1.1815,0.8524 -1.333,0.58964 -1.4313,0.30123 z"
       style="fill:none;stroke:#000000"
       id="path2207"
       inkscape:connector-curvature="0" />
    <path
       d="m 738.63663,274.99183 -1.42866,-0.30123 -1.33418,-0.58964 -1.18147,-0.8524 -0.97777,-1.07656 -0.73058,-1.25499 -0.4509,-1.37783 -0.15118,-1.44163 0.15118,-1.44162 0.4509,-1.37778 0.73058,-1.25503 0.97777,-1.07796 1.18147,-0.85096 1.33418,-0.58968 1.42866,-0.30123 h 1.46041 l 1.42828,0.30123 1.33418,0.58968 1.18148,0.85096 0.97776,1.07796 0.72907,1.25503 0.4509,1.37778 0.15118,1.44162 -0.15118,1.44163 -0.4509,1.37783 -0.72907,1.25499 -0.97776,1.07656 -1.18148,0.8524 -1.33418,0.58964 -1.42828,0.30123 z"
       style="fill:none;stroke:#000000"
       id="path2209"
       inkscape:connector-curvature="0" />
    <path
       d="m 901.724,376.79973 v -86.21415 h 362.4718 v 86.21415 z"
       style="fill:none;stroke:#000000"
       id="path2211"
       inkscape:connector-curvature="0" />
    <path
       d="m 92.204945,387.90942 -2.070917,-0.43692 -1.934362,-0.85523 -1.713033,-1.23502 -1.417021,-1.56242 -1.05891,-1.82026 -0.654992,-1.99933 -0.22148,-2.09038 0.22148,-2.09057 0.654992,-1.99945 1.05891,-1.8203 1.417021,-1.56226 1.713033,-1.23504 1.934362,-0.8538 2.070917,-0.43691 h 2.11748 l 2.070916,0.43691 1.934778,0.8538 1.712621,1.23504 1.41705,1.56226 1.05888,1.8203 0.65503,1.99945 0.2211,2.09057 -0.2211,2.09038 -0.65503,1.99933 -1.05888,1.82026 -1.41705,1.56242 -1.712621,1.23502 -1.934778,0.85523 -2.070916,0.43692 z"
       style="fill:none;stroke:#000000"
       id="path2213"
       inkscape:connector-curvature="0" />
    <path
       d="m 218.35212,387.90942 -2.07099,-0.43692 -1.93436,-0.85523 -1.71304,-1.23502 -1.41702,-1.56242 -1.05891,-1.82026 -0.65355,-1.99933 -0.22149,-2.09038 0.22149,-2.09057 0.65355,-1.99945 1.05891,-1.8203 1.41702,-1.56226 1.71304,-1.23504 1.93436,-0.8538 2.07099,-0.43691 h 2.1174 l 2.07092,0.43691 1.93482,0.8538 1.71258,1.23504 1.41709,1.56226 1.05884,1.8203 0.65359,1.99945 0.22148,2.09057 -0.22148,2.09038 -0.65359,1.99933 -1.05884,1.82026 -1.41709,1.56242 -1.71258,1.23502 -1.93482,0.85523 -2.07092,0.43692 z"
       style="fill:none;stroke:#000000"
       id="path2215"
       inkscape:connector-curvature="0" />
    <path
       d="m 738.63663,406.1871 -1.42866,-0.30123 -1.33418,-0.58964 -1.18147,-0.85096 -0.97777,-1.078 -0.73058,-1.25499 -0.4509,-1.37783 -0.15118,-1.44174 0.15118,-1.44162 0.4509,-1.37927 0.73058,-1.25499 0.97777,-1.07656 1.18147,-0.85096 1.33418,-0.58968 1.42866,-0.30123 h 1.46041 l 1.42828,0.30123 1.33418,0.58968 1.18148,0.85096 0.97776,1.07656 0.72907,1.25499 0.4509,1.37927 0.15118,1.44162 -0.15118,1.44174 -0.4509,1.37783 -0.72907,1.25499 -0.97776,1.078 -1.18148,0.85096 -1.33418,0.58964 -1.42828,0.30123 z"
       style="fill:none;stroke:#000000"
       id="path2217"
       inkscape:connector-curvature="0" />
    <path
       d="m 1267.2429,406.1871 -1.431,-0.30123 -1.3326,-0.58964 -1.1819,-0.85096 -0.9774,-1.078 -0.729,-1.25499 -0.454,-1.37783 -0.1511,-1.44174 0.1511,-1.44162 0.454,-1.37927 0.729,-1.25499 0.9774,-1.07656 1.1819,-0.85096 1.3326,-0.58968 1.431,-0.30123 h 1.4574 l 1.4313,0.30123 1.333,0.58968 1.1815,0.85096 0.9774,1.07656 0.7294,1.25499 0.4524,1.37927 0.1512,1.44162 -0.1512,1.44174 -0.4524,1.37783 -0.7294,1.25499 -0.9774,1.078 -1.1815,0.85096 -1.333,0.58964 -1.4313,0.30123 z"
       style="fill:none;stroke:#000000"
       id="path2219"
       inkscape:connector-curvature="0" />
    <path
       d="m 361.06353,406.1871 -1.42851,-0.30123 -1.33429,-0.58964 -1.18156,-0.85096 -0.97757,-1.078 -0.73062,-1.25499 -0.45094,-1.37783 -0.15269,-1.44174 0.15269,-1.44162 0.45094,-1.37927 0.73062,-1.25499 0.97757,-1.07656 1.18156,-0.85096 1.33429,-0.58968 1.42851,-0.30123 h 1.46029 l 1.42833,0.30123 1.33428,0.58968 1.1816,0.85096 0.97753,1.07656 0.73066,1.25499 0.45094,1.37927 0.15269,1.44162 -0.15269,1.44174 -0.45094,1.37783 -0.73066,1.25499 -0.97753,1.078 -1.1816,0.85096 -1.33428,0.58964 -1.42833,0.30123 z"
       style="fill:none;stroke:#000000"
       id="path2221"
       inkscape:connector-curvature="0" />
    <path
       d="m 1078.4555,406.1871 -1.431,-0.30123 -1.333,-0.58964 -1.1815,-0.85096 -0.9774,-1.078 -0.7294,-1.25499 -0.4524,-1.37783 -0.1512,-1.44174 0.1512,-1.44162 0.4524,-1.37927 0.7294,-1.25499 0.9774,-1.07656 1.1815,-0.85096 1.333,-0.58968 1.431,-0.30123 h 1.4577 l 1.4306,0.30123 1.333,0.58968 1.1815,0.85096 0.9778,1.07656 0.729,1.25499 0.4524,1.37927 0.1512,1.44162 -0.1512,1.44174 -0.4524,1.37783 -0.729,1.25499 -0.9778,1.078 -1.1815,0.85096 -1.333,0.58964 -1.4306,0.30123 z"
       style="fill:none;stroke:#000000"
       id="path2223"
       inkscape:connector-curvature="0" />
    <path
       d="m 889.66806,406.1871 -1.4313,-0.30123 -1.33267,-0.58964 -1.18148,-0.85096 -0.97776,-1.078 -0.72907,-1.25499 -0.45392,-1.37783 -0.15118,-1.44174 0.15118,-1.44162 0.45392,-1.37927 0.72907,-1.25499 0.97776,-1.07656 1.18148,-0.85096 1.33267,-0.58968 1.4313,-0.30123 h 1.45739 l 1.43093,0.30123 1.33304,0.58968 1.18148,0.85096 0.97776,1.07656 0.72907,1.25499 0.45241,1.37927 0.15118,1.44162 -0.15118,1.44174 -0.45241,1.37783 -0.72907,1.25499 -0.97776,1.078 -1.18148,0.85096 -1.33304,0.58964 -1.43093,0.30123 z"
       style="fill:none;stroke:#000000"
       id="path2225"
       inkscape:connector-curvature="0" />
  </g>
</svg>
