<?xml version="1.0" encoding="UTF-8" standalone="no"?>
<!-- Created with Inkscape (http://www.inkscape.org/) -->

<svg
   xmlns:dc="http://purl.org/dc/elements/1.1/"
   xmlns:cc="http://creativecommons.org/ns#"
   xmlns:rdf="http://www.w3.org/1999/02/22-rdf-syntax-ns#"
   xmlns:svg="http://www.w3.org/2000/svg"
   xmlns="http://www.w3.org/2000/svg"
   xmlns:sodipodi="http://sodipodi.sourceforge.net/DTD/sodipodi-0.dtd"
   xmlns:inkscape="http://www.inkscape.org/namespaces/inkscape"
   width="210mm"
   height="297mm"
   viewBox="0 0 210 297"
   version="1.1"
   id="svg3184"
   inkscape:version="0.92.2 (5c3e80d, 2017-08-06)"
   sodipodi:docname="3_sys_alu_complete.svg">
  <defs
     id="defs3178" />
  <sodipodi:namedview
     id="base"
     pagecolor="#ffffff"
     bordercolor="#666666"
     borderopacity="1.0"
     inkscape:pageopacity="0.0"
     inkscape:pageshadow="2"
     inkscape:zoom="0.35000001"
     inkscape:cx="633.21675"
     inkscape:cy="920.01714"
     inkscape:document-units="mm"
     inkscape:current-layer="layer1"
     showgrid="false"
     inkscape:window-width="1920"
     inkscape:window-height="986"
     inkscape:window-x="-11"
     inkscape:window-y="-11"
     inkscape:window-maximized="1" />
  <metadata
     id="metadata3181">
    <rdf:RDF>
      <cc:Work
         rdf:about="">
        <dc:format>image/svg+xml</dc:format>
        <dc:type
           rdf:resource="http://purl.org/dc/dcmitype/StillImage" />
        <dc:title />
      </cc:Work>
    </rdf:RDF>
  </metadata>
  <g
     inkscape:label="Layer 1"
     inkscape:groupmode="layer"
     id="layer1">
    <path
       d="m 155.01494,293.69672 2.29182,-1.02039 2.02954,-1.47457 1.67865,-1.86431 1.25431,-2.1726 0.69048,-2.12508 16.39461,-32.17616 0.0426,-0.009 1.90979,-0.85032 1.6913,-1.2288 1.3989,-1.55359 1.04532,-1.8105 0.64598,-1.98831 0.21852,-2.0791 -0.21852,-2.0791 -0.64598,-1.9883 -1.04532,-1.8104 -1.3989,-1.5536 -1.6913,-1.2289 -1.90979,-0.8503 -2.0449,-0.4346 h -2.04528 v -0.1148 h -2.00001 v -22.5 h -54 v 25.4714 l -1.09019,1.21081 -1.04532,1.81039 -0.64598,1.98831 -0.21852,2.0791 0.21852,2.0791 0.64598,1.9883 1.04532,1.8105 1.3989,1.55359 1.6913,1.2288 1.18298,0.52671 18.15462,35.63032 0.21259,-0.10835 0.7416,1.28448 1.67865,1.86431 2.02954,1.47457 2.29182,1.02039 2.45385,0.5215 h 2.50868 z"
       style="fill:none;stroke:#000000;stroke-width:1;stroke-miterlimit:4;stroke-dasharray:none;stroke-opacity:1"
       id="path3921"
       inkscape:connector-curvature="0" />
    <path
       d="m 131.46705,221.51619 -0.66461,-0.14131 -0.62068,-0.27629 -0.5497,-0.3994 -0.45461,-0.5049 -0.3397,-0.58839 -0.21,-0.6462 -0.071,-0.67571 0.071,-0.6757 0.21,-0.6462 0.3397,-0.5884 0.45461,-0.50489 0.5497,-0.39941 0.62068,-0.27629 0.66461,-0.14131 h 0.6794 l 0.6646,0.14131 0.62069,0.27629 0.54972,0.39941 0.45456,0.50489 0.33972,0.5884 0.21,0.6462 0.071,0.6757 -0.071,0.67571 -0.21,0.6462 -0.33972,0.58839 -0.45456,0.5049 -0.54972,0.3994 -0.62069,0.27629 -0.6646,0.14131 z"
       style="fill:none;stroke:#000000;stroke-width:1;stroke-miterlimit:4;stroke-dasharray:none;stroke-opacity:1"
       id="path3923"
       inkscape:connector-curvature="0" />
    <path
       d="m 161.46704,221.51619 -0.66463,-0.14131 -0.62069,-0.27629 -0.54965,-0.3994 -0.45463,-0.5049 -0.33972,-0.58839 -0.20995,-0.6462 -0.071,-0.67571 0.071,-0.6757 0.20995,-0.6462 0.33972,-0.5884 0.45463,-0.50489 0.54968,-0.39941 0.62066,-0.27629 0.66463,-0.14131 h 0.6794 l 0.6646,0.14131 0.62072,0.27629 0.54969,0.39941 0.45461,0.50489 0.3397,0.5884 0.21,0.6462 0.071,0.6757 -0.071,0.67571 -0.21,0.6462 -0.3397,0.58839 -0.45461,0.5049 -0.54969,0.3994 -0.62072,0.27629 -0.6646,0.14131 z"
       style="fill:none;stroke:#000000;stroke-width:1;stroke-miterlimit:4;stroke-dasharray:none;stroke-opacity:1"
       id="path3925"
       inkscape:connector-curvature="0" />
    <path
       d="m 124.95655,246.6756 -0.685,-0.1456 -0.63979,-0.2848 -0.56661,-0.4117 -0.4686,-0.5204 -0.3502,-0.6065 -0.21641,-0.6661 -0.0732,-0.6965 0.0732,-0.6965 0.21641,-0.6661 0.3502,-0.60651 0.4686,-0.5204 0.56661,-0.41169 0.63979,-0.2848 0.685,-0.14561 h 0.70041 l 0.68498,0.14561 0.63981,0.2848 0.56661,0.41169 0.4686,0.5204 0.35018,0.60651 0.2164,0.6661 0.0732,0.6965 -0.0732,0.6965 -0.2164,0.6661 -0.35018,0.6065 -0.4686,0.5204 -0.56661,0.4117 -0.63981,0.2848 -0.68498,0.1456 z"
       style="fill:none;stroke:#000000;stroke-width:1;stroke-miterlimit:4;stroke-dasharray:none;stroke-opacity:1"
       id="path3927"
       inkscape:connector-curvature="0" />
    <path
       d="m 176.95652,246.6756 -0.68498,-0.1456 -0.63979,-0.2848 -0.56661,-0.4117 -0.4686,-0.5204 -0.3502,-0.6065 -0.21638,-0.6661 -0.0732,-0.6965 0.0732,-0.6965 0.21638,-0.6661 0.3502,-0.60651 0.4686,-0.5204 0.56661,-0.41169 0.63979,-0.2848 0.68498,-0.14561 h 0.70043 l 0.68498,0.14561 0.63979,0.2848 0.56663,0.41169 0.4686,0.5204 0.3502,0.60651 0.21641,0.6661 0.0732,0.6965 -0.0732,0.6965 -0.21641,0.6661 -0.3502,0.6065 -0.4686,0.5204 -0.56663,0.4117 -0.63979,0.2848 -0.68498,0.1456 z"
       style="fill:none;stroke:#000000;stroke-width:1;stroke-miterlimit:4;stroke-dasharray:none;stroke-opacity:1"
       id="path3929"
       inkscape:connector-curvature="0" />
    <path
       d="m 150.9566,288.73065 -0.68506,-0.1456 -0.63979,-0.28485 -0.5666,-0.41166 -0.46863,-0.52044 -0.35015,-0.60653 -0.21641,-0.66606 -0.0732,-0.69649 0.0732,-0.69652 0.11854,-0.36472 0.12528,-0.0639 0.0639,-0.1968 0.33973,-0.58839 0.45463,-0.50493 0.54967,-0.39936 0.62069,-0.27636 0.66461,-0.14123 h 0.67939 l 0.66461,0.14123 0.62069,0.27636 0.54967,0.39936 0.45463,0.50493 0.33973,0.58839 0.20994,0.64619 0.0101,0.0901 0.10565,0.0538 0.0559,0.53184 -0.0732,0.69649 -0.21643,0.66606 -0.35015,0.60653 -0.46863,0.52044 -0.56657,0.41166 -0.63979,0.28485 -0.68506,0.1456 z"
       style="fill:none;stroke:#000000;stroke-width:1;stroke-miterlimit:4;stroke-dasharray:none;stroke-opacity:1"
       id="path3931"
       inkscape:connector-curvature="0" />
    <path
       d="m 83.723873,276.52946 2.291787,-1.02039 2.02957,-1.47457 1.678621,-1.86431 1.254306,-2.1726 0.69051,-2.12509 16.394583,-32.17615 0.0426,-0.009 1.90982,-0.85032 1.69129,-1.2288 1.39891,-1.55359 1.04529,-1.81051 0.646,-1.9883 0.2185,-2.0791 -0.2185,-2.07909 -0.646,-1.9883 -1.04529,-1.8104 -1.39891,-1.5536 -1.69129,-1.2289 -1.90982,-0.8503 -2.04489,-0.4346 h -2.0453 v -0.1148 H 56.015658 v 0.1148 h -2.04531 l -2.044907,0.4346 -1.90979,0.8503 -1.69129,1.2289 -1.398907,1.5536 -1.04529,1.8104 -0.64603,1.9883 -0.21847,2.07909 0.21847,2.07911 0.64603,1.9883 1.04529,1.8105 1.398907,1.55359 1.69129,1.2288 1.18301,0.52672 18.154589,35.63031 0.212589,-0.10835 0.74163,1.28448 1.67862,1.86431 2.029571,1.47457 2.291786,1.02039 2.45388,0.5215 h 2.508637 z"
       style="fill:none;stroke:#000000;stroke-width:1;stroke-miterlimit:4;stroke-dasharray:none;stroke-opacity:1"
       id="path3933"
       inkscape:connector-curvature="0" />
    <path
       d="m 79.728217,229.91164 -0.56237,-0.1195 -0.525201,-0.2338 -0.46511,-0.3379 -0.38468,-0.4273 -0.28744,-0.4979 -0.17767,-0.5467 -0.0601,-0.5718 0.0526,-0.5 -0.0526,-0.50001 0.0526,-0.5 -0.0526,-0.5 0.0601,-0.5717 0.17767,-0.5468 0.28744,-0.4979 0.38468,-0.4272 0.46514,-0.338 0.525171,-0.2338 0.56237,-0.1195 h 0.574886 l 0.56234,0.1195 0.5252,0.2338 0.46511,0.338 0.38468,0.4272 0.28747,0.4979 0.17764,0.5468 0.0601,0.5717 -0.0525,0.5 0.0525,0.5 -0.0525,0.50001 0.0525,0.5 -0.0601,0.5718 -0.17764,0.5467 -0.28747,0.4979 -0.38468,0.4273 -0.46511,0.3379 -0.5252,0.2338 -0.56234,0.1195 z"
       style="fill:none;stroke:#000000;stroke-width:1;stroke-miterlimit:4;stroke-dasharray:none;stroke-opacity:1"
       id="path3935"
       inkscape:connector-curvature="0" />
    <path
       d="m 105.66546,229.50834 -0.685,-0.1456 -0.63979,-0.2848 -0.56661,-0.4117 -0.4686,-0.5204 -0.35023,-0.6065 -0.21638,-0.6661 -0.0732,-0.69651 0.0732,-0.6965 0.21638,-0.6661 0.35023,-0.6065 0.4686,-0.5204 0.56661,-0.4117 0.63979,-0.2848 0.685,-0.1456 h 0.70041 l 0.68498,0.1456 0.63981,0.2848 0.56661,0.4117 0.46858,0.5204 0.3502,0.6065 0.2164,0.6661 0.0732,0.6965 -0.0732,0.69651 -0.2164,0.6661 -0.3502,0.6065 -0.46858,0.5204 -0.56661,0.4117 -0.63981,0.2848 -0.68498,0.1456 z"
       style="fill:none;stroke:#000000;stroke-width:1;stroke-miterlimit:4;stroke-dasharray:none;stroke-opacity:1"
       id="path3937"
       inkscape:connector-curvature="0" />
    <path
       d="m 53.665448,229.50834 -0.684976,-0.1456 -0.63982,-0.2848 -0.566601,-0.4117 -0.46858,-0.5204 -0.3502,-0.6065 -0.2164,-0.6661 -0.0732,-0.69651 0.0732,-0.6965 0.2164,-0.6661 0.3502,-0.6065 0.46858,-0.5204 0.566601,-0.4117 0.63982,-0.2848 0.684976,-0.1456 h 0.7004 l 0.68501,0.1456 0.63979,0.2848 0.5666,0.4117 0.46861,0.5204 0.3502,0.6065 0.2164,0.6661 0.0732,0.6965 -0.0732,0.69651 -0.2164,0.6661 -0.3502,0.6065 -0.46861,0.5204 -0.5666,0.4117 -0.63979,0.2848 -0.68501,0.1456 z"
       style="fill:none;stroke:#000000;stroke-width:1;stroke-miterlimit:4;stroke-dasharray:none;stroke-opacity:1"
       id="path3939"
       inkscape:connector-curvature="0" />
    <path
       d="m 79.665487,271.56339 -0.68503,-0.1456 -0.639791,-0.28485 -0.56658,-0.41167 -0.46863,-0.52043 -0.35018,-0.60653 -0.21643,-0.66606 -0.0732,-0.69649 0.0732,-0.69652 0.11856,-0.36473 0.12528,-0.0639 0.064,-0.1968 0.33973,-0.58838 0.4546,-0.50493 0.5497,-0.39936 0.620691,-0.27636 0.66458,-0.14123 h 0.679416 l 0.66458,0.14123 0.62072,0.27636 0.54967,0.39936 0.45463,0.50493 0.3397,0.58838 0.21,0.64619 0.01,0.0901 0.10567,0.0538 0.0559,0.53185 -0.0732,0.69649 -0.21642,0.66606 -0.35015,0.60653 -0.46863,0.52043 -0.56661,0.41167 -0.63979,0.28485 -0.68506,0.1456 z"
       style="fill:none;stroke:#000000;stroke-width:1;stroke-miterlimit:4;stroke-dasharray:none;stroke-opacity:1"
       id="path3941"
       inkscape:connector-curvature="0" />
    <path
       d="m 79.949724,209.14429 1.261299,-0.5615 1.11691,-0.8115 0.92379,-1.026 0.6904,-1.1957 0.426591,-1.313 0.14431,-1.3731 -0.14431,-1.37299 -0.426591,-1.3131 -0.6904,-1.1956 -0.92379,-1.026 -0.25331,-0.1841 V 171.2456 H 51.086611 v 32.30879 h 20.291018 l 0.0717,0.6822 0.42656,1.313 0.6903,1.1957 0.92389,1.026 1.116921,0.8115 1.261206,0.5615 1.35052,0.287 h 1.38056 z"
       style="fill:none;stroke:#000000;stroke-width:1;stroke-miterlimit:4;stroke-dasharray:none;stroke-opacity:1"
       id="path3983"
       inkscape:connector-curvature="0" />
    <path
       d="m 61.029965,184.565 -0.58275,-0.1239 -0.54427,-0.2423 -0.48199,-0.3502 -0.39868,-0.4428 -0.297886,-0.5159 -0.1841,-0.5666 -0.0623,-0.5926 0.0623,-0.5925 0.1841,-0.5666 0.297886,-0.516 0.39868,-0.4428 0.48199,-0.3501 0.54427,-0.2424 0.58275,-0.1239 h 0.59584 l 0.58269,0.1239 0.5443,0.2424 0.482021,0.3501 0.3987,0.4428 0.29789,0.516 0.184096,0.5666 0.0623,0.5925 -0.0623,0.5926 -0.184096,0.5666 -0.29789,0.5159 -0.3987,0.4428 -0.482021,0.3502 -0.5443,0.2423 -0.58269,0.1239 z"
       style="fill:none;stroke:#000000;stroke-width:1;stroke-miterlimit:4;stroke-dasharray:none;stroke-opacity:1"
       id="path3985"
       inkscape:connector-curvature="0" />
    <path
       d="m 77.907226,183.9048 -0.48041,-0.1021 -0.4487,-0.1998 -0.39738,-0.2887 -0.32861,-0.365 -0.24562,-0.4254 -0.15179,-0.4671 -0.0514,-0.4885 0.0514,-0.4885 0.15179,-0.4672 0.24562,-0.4253 0.32861,-0.3651 0.39738,-0.2887 0.4487,-0.1997 0.48041,-0.1022 h 0.4912 l 0.480501,0.1022 0.44869,0.1997 0.3974,0.2887 0.328606,0.3651 0.24559,0.4253 0.15182,0.4672 0.0513,0.4885 -0.0513,0.4885 -0.15182,0.4671 -0.24559,0.4254 -0.328606,0.365 -0.3974,0.2887 -0.44869,0.1998 -0.480501,0.1021 z"
       style="fill:none;stroke:#000000;stroke-width:1;stroke-miterlimit:4;stroke-dasharray:none;stroke-opacity:1"
       id="path3987"
       inkscape:connector-curvature="0" />
    <path
       d="m 77.611126,205.69779 -0.5828,-0.1239 -0.5443,-0.2423 -0.48191,-0.3502 -0.3987,-0.4428 -0.29789,-0.5159 -0.1841,-0.5667 -0.0623,-0.5925 0.0623,-0.5925 0.1841,-0.56659 0.29789,-0.516 0.3987,-0.4428 0.48191,-0.3501 0.5443,-0.2424 0.5828,-0.1238 h 0.59579 l 0.58272,0.1238 0.544271,0.2424 0.48202,0.3501 0.398696,0.4428 0.2979,0.516 0.18409,0.56659 0.0623,0.5925 -0.0623,0.5925 -0.18409,0.5667 -0.2979,0.5159 -0.398696,0.4428 -0.48202,0.3502 -0.544271,0.2423 -0.58272,0.1239 z"
       style="fill:none;stroke:#000000;stroke-width:1;stroke-miterlimit:4;stroke-dasharray:none;stroke-opacity:1"
       id="path3989"
       inkscape:connector-curvature="0" />
    <path
       d="m 127.24843,177.20667 0.25331,-0.18399 0.92379,-1.026 0.6904,-1.19572 0.42659,-1.31298 0.14431,-1.37301 -0.14431,-1.37309 -0.42659,-1.313 -0.6904,-1.1957 -0.92379,-1.026 -1.11691,-0.8115 -1.2613,-0.5615 -1.35041,-0.2871 h -1.38059 l -1.35051,0.2871 -1.26119,0.5615 -1.11692,0.8115 -0.92389,1.026 -0.6903,1.1957 -0.42659,1.313 -0.0866,0.8244 H 96.260404 v 32.30878 h 30.988026 z"
       style="fill:none;stroke:#000000;stroke-width:1;stroke-miterlimit:4;stroke-dasharray:none;stroke-opacity:1"
       id="path3991"
       inkscape:connector-curvature="0" />
    <path
       d="m 122.78493,174.94916 -0.5828,-0.12387 -0.5443,-0.24232 -0.48191,-0.3502 -0.3987,-0.44269 -0.29789,-0.51599 -0.1841,-0.56661 -0.0623,-0.59251 0.0623,-0.59258 0.1841,-0.56661 0.29789,-0.516 0.3987,-0.4427 0.48191,-0.3502 0.5443,-0.2424 0.5828,-0.1238 h 0.59579 l 0.58269,0.1238 0.5443,0.2424 0.48202,0.3502 0.3987,0.4427 0.2979,0.516 0.18409,0.56661 0.0623,0.59258 -0.0623,0.59251 -0.18409,0.56661 -0.2979,0.51599 -0.3987,0.44269 -0.48202,0.3502 -0.5443,0.24232 -0.58269,0.12387 z"
       style="fill:none;stroke:#000000;stroke-width:1;stroke-miterlimit:4;stroke-dasharray:none;stroke-opacity:1"
       id="path3993"
       inkscape:connector-curvature="0" />
    <path
       d="m 106.26469,182.20347 -0.58272,-0.1239 -0.54427,-0.24231 -0.48202,-0.3502 -0.39865,-0.4428 -0.29789,-0.51599 -0.1841,-0.56661 -0.0623,-0.59248 0.0623,-0.5925 0.1841,-0.56671 0.29789,-0.51588 0.39865,-0.44281 0.48202,-0.3502 0.54427,-0.24231 0.58272,-0.12391 h 0.59582 l 0.58282,0.12391 0.54428,0.24231 0.48199,0.3502 0.39862,0.44281 0.29787,0.51588 0.18412,0.56671 0.0623,0.5925 -0.0623,0.59248 -0.18412,0.56661 -0.29787,0.51599 -0.39862,0.4428 -0.48199,0.3502 -0.54428,0.24231 -0.58282,0.1239 z"
       style="fill:none;stroke:#000000;stroke-width:1;stroke-miterlimit:4;stroke-dasharray:none;stroke-opacity:1"
       id="path3995"
       inkscape:connector-curvature="0" />
    <path
       d="m 123.02012,195.90944 -0.48048,-0.1021 -0.44871,-0.19979 -0.3973,-0.28868 -0.32869,-0.36502 -0.24561,-0.42537 -0.15179,-0.46717 -0.0513,-0.48845 0.0513,-0.4885 0.15179,-0.4672 0.24561,-0.42529 0.32869,-0.365 0.3973,-0.28879 0.44871,-0.19971 0.48048,-0.10221 h 0.4912 l 0.4804,0.10221 0.44871,0.19971 0.3974,0.28879 0.3287,0.365 0.2455,0.42529 0.15179,0.4672 0.0514,0.4885 -0.0514,0.48845 -0.15179,0.46717 -0.2455,0.42537 -0.3287,0.36502 -0.3974,0.28868 -0.44871,0.19979 -0.4804,0.1021 z"
       style="fill:none;stroke:#000000;stroke-width:1;stroke-miterlimit:4;stroke-dasharray:none;stroke-opacity:1"
       id="path3997"
       inkscape:connector-curvature="0" />
    <path
       d="m 144.84983,98.698984 h -25.68982 l -15.31115,27.036086 v 34.72008 h 41.00097 z"
       style="fill:none;stroke:#000000;stroke-width:1;stroke-miterlimit:4;stroke-dasharray:none;stroke-opacity:1"
       id="path3999"
       inkscape:connector-curvature="0" />
    <path
       d="m 139.70385,110.7216 -0.41754,-0.0903 -0.39011,-0.17658 -0.34541,-0.25595 -0.28567,-0.3234 -0.21352,-0.37698 -0.13189,-0.41467 -0.0447,-0.43254 0.0447,-0.43253 0.13189,-0.41468 0.21352,-0.37698 0.28567,-0.3234 0.34541,-0.25596 0.39011,-0.17658 0.41754,-0.0903 h 0.42706 l 0.41754,0.0903 0.3901,0.17658 0.34544,0.25596 0.28564,0.3234 0.21352,0.37698 0.1319,0.41468 0.0447,0.43253 -0.0447,0.43254 -0.1319,0.41467 -0.21352,0.37698 -0.28564,0.3234 -0.34544,0.25595 -0.3901,0.17658 -0.41754,0.0903 z"
       style="fill:none;stroke:#000000;stroke-width:1;stroke-miterlimit:4;stroke-dasharray:none;stroke-opacity:1"
       id="path4001"
       inkscape:connector-curvature="0" />
    <path
       d="m 118.27857,110.7216 -0.41764,-0.0903 -0.39005,-0.17659 -0.34541,-0.25594 -0.2857,-0.32341 -0.21349,-0.37697 -0.13195,-0.41467 -0.0447,-0.43255 0.0447,-0.43253 0.13195,-0.41467 0.21349,-0.37698 0.2857,-0.32341 0.34541,-0.25595 0.39005,-0.17659 0.41764,-0.0903 h 0.42696 l 0.41765,0.0903 0.39005,0.17659 0.34541,0.25595 0.2857,0.32341 0.21349,0.37698 0.13195,0.41467 0.0447,0.43253 -0.0447,0.43255 -0.13195,0.41467 -0.21349,0.37697 -0.2857,0.32341 -0.34541,0.25594 -0.39005,0.17659 -0.41765,0.0903 z"
       style="fill:none;stroke:#000000;stroke-width:1;stroke-miterlimit:4;stroke-dasharray:none;stroke-opacity:1"
       id="path4003"
       inkscape:connector-curvature="0" />
    <path
       d="m 139.94493,127.0278 -0.32308,-0.0701 -0.30176,-0.1369 -0.26717,-0.19792 -0.22104,-0.25029 -0.1652,-0.29156 -0.10208,-0.32024 -0.0345,-0.33492 0.0345,-0.3349 0.10208,-0.32024 0.1652,-0.29156 0.22104,-0.25029 0.26717,-0.19792 0.30176,-0.13689 0.32308,-0.0701 h 0.33023 l 0.32311,0.0701 0.30176,0.13689 0.26715,0.19792 0.22106,0.25029 0.1652,0.29156 0.10195,0.32024 0.0346,0.3349 -0.0346,0.33492 -0.10195,0.32024 -0.1652,0.29156 -0.22106,0.25029 -0.26715,0.19792 -0.30176,0.1369 -0.32311,0.0701 z"
       style="fill:none;stroke:#000000;stroke-width:1;stroke-miterlimit:4;stroke-dasharray:none;stroke-opacity:1"
       id="path4005"
       inkscape:connector-curvature="0" />
    <path
       d="m 123.48163,152.46848 -2.35085,-0.50941 -2.19559,-0.99662 -1.94434,-1.44016 -1.60817,-1.82079 -1.20165,-2.1219 -0.74269,-2.33022 -0.25122,-2.43677 0.25122,-2.43676 0.74269,-2.33023 1.20165,-2.12189 1.60817,-1.82081 1.94434,-1.44015 2.19559,-0.99662 2.35085,-0.50941 h 2.40337 l 2.35082,0.50941 2.1956,0.99662 1.94431,1.44015 1.60819,1.82081 1.20169,2.12189 0.74263,2.33023 0.25128,2.43676 -0.25128,2.43677 -0.74263,2.33022 -1.20169,2.1219 -1.60819,1.82079 -1.94431,1.44016 -2.1956,0.99662 -2.35082,0.50941 z"
       style="fill:none;stroke:#000000;stroke-width:1;stroke-miterlimit:4;stroke-dasharray:none;stroke-opacity:1"
       id="path4007"
       inkscape:connector-curvature="0" />
    <path
       d="m 109.43824,157.60471 -0.32309,-0.0701 -0.30173,-0.13691 -0.2672,-0.1979 -0.22103,-0.2503 -0.16513,-0.29157 -0.10207,-0.32024 -0.0346,-0.33491 0.0346,-0.33491 0.10207,-0.32024 0.16513,-0.29156 0.22103,-0.25029 0.2672,-0.19792 0.30173,-0.13689 0.32309,-0.0701 h 0.3303 l 0.32309,0.0701 0.3017,0.13689 0.26723,0.19792 0.22101,0.25029 0.16515,0.29156 0.10205,0.32024 0.0345,0.33491 -0.0345,0.33491 -0.10205,0.32024 -0.16515,0.29157 -0.22101,0.2503 -0.26723,0.1979 -0.3017,0.13691 -0.32309,0.0701 z"
       style="fill:none;stroke:#000000;stroke-width:1;stroke-miterlimit:4;stroke-dasharray:none;stroke-opacity:1"
       id="path4009"
       inkscape:connector-curvature="0" />
    <path
       d="M 98.453294,126.84715 83.142163,99.811154 H 57.452348 v 61.755966 h 41.000946 z"
       style="fill:none;stroke:#000000;stroke-width:1;stroke-miterlimit:4;stroke-dasharray:none;stroke-opacity:1"
       id="path4011"
       inkscape:connector-curvature="0" />
    <path
       d="m 83.596583,111.83374 -0.41757,-0.0903 -0.3901,-0.17658 -0.34541,-0.25595 -0.28567,-0.32341 -0.21352,-0.37698 -0.1319,-0.41467 -0.0447,-0.43253 0.0447,-0.43253 0.1319,-0.41468 0.21352,-0.37698 0.28567,-0.3234 0.34541,-0.25595 0.3901,-0.17658 0.41757,-0.0903 h 0.42704 l 0.417561,0.0903 0.39008,0.17658 0.34544,0.25595 0.285636,0.3234 0.21352,0.37698 0.13192,0.41468 0.0447,0.43253 -0.0447,0.43253 -0.13192,0.41467 -0.21352,0.37698 -0.285636,0.32341 -0.34544,0.25595 -0.39008,0.17658 -0.417561,0.0903 z"
       style="fill:none;stroke:#000000;stroke-width:1;stroke-miterlimit:4;stroke-dasharray:none;stroke-opacity:1"
       id="path4013"
       inkscape:connector-curvature="0" />
    <path
       d="m 62.171265,111.83374 -0.41756,-0.0903 -0.3901,-0.17658 -0.34542,-0.25595 -0.28564,-0.32341 -0.21355,-0.37698 -0.13189,-0.41467 -0.0447,-0.43253 0.0447,-0.43253 0.13189,-0.41468 0.21355,-0.37698 0.28564,-0.3234 0.34542,-0.25595 0.3901,-0.17658 0.41756,-0.0903 h 0.42704 l 0.417571,0.0903 0.39007,0.17658 0.34544,0.25595 0.28565,0.3234 0.213516,0.37698 0.13192,0.41468 0.0447,0.43253 -0.0447,0.43253 -0.13192,0.41467 -0.213516,0.37698 -0.28565,0.32341 -0.34544,0.25595 -0.39007,0.17658 -0.417571,0.0903 z"
       style="fill:none;stroke:#000000;stroke-width:1;stroke-miterlimit:4;stroke-dasharray:none;stroke-opacity:1"
       id="path4015"
       inkscape:connector-curvature="0" />
    <path
       d="m 62.026995,128.13987 -0.32309,-0.0701 -0.30175,-0.1369 -0.26718,-0.19791 -0.22103,-0.25029 -0.16521,-0.29156 -0.10207,-0.32024 -0.0345,-0.33491 0.0345,-0.33491 0.10207,-0.32024 0.16521,-0.29156 0.22103,-0.25029 0.26718,-0.19791 0.30175,-0.13691 0.32309,-0.0701 h 0.33022 l 0.32311,0.0701 0.301731,0.13691 0.26718,0.19791 0.22103,0.25029 0.16521,0.29156 0.10207,0.32024 0.0345,0.33491 -0.0345,0.33491 -0.10207,0.32024 -0.16521,0.29156 -0.22103,0.25029 -0.26718,0.19791 -0.301731,0.1369 -0.32311,0.0701 z"
       style="fill:none;stroke:#000000;stroke-width:1;stroke-miterlimit:4;stroke-dasharray:none;stroke-opacity:1"
       id="path4017"
       inkscape:connector-curvature="0" />
    <path
       d="m 76.417166,153.58046 -2.350816,-0.50941 -2.195591,-0.99661 -1.94435,-1.44015 -1.608156,-1.8208 -1.201711,-2.12188 -0.74263,-2.33022 -0.25125,-2.43676 0.25125,-2.43675 0.74263,-2.33022 1.201711,-2.12188 1.608156,-1.82081 1.94435,-1.44014 2.195591,-0.99661 2.350816,-0.50941 h 2.403371 l 2.350816,0.50941 2.1956,0.99661 1.944307,1.44014 1.60819,1.82081 1.20169,2.12188 0.74263,2.33022 0.25128,2.43675 -0.25128,2.43676 -0.74263,2.33022 -1.20169,2.12188 -1.60819,1.8208 -1.944307,1.44015 -2.1956,0.99661 -2.350816,0.50941 z"
       style="fill:none;stroke:#000000;stroke-width:1;stroke-miterlimit:4;stroke-dasharray:none;stroke-opacity:1"
       id="path4019"
       inkscape:connector-curvature="0" />
    <path
       d="m 92.533667,158.71667 -0.32311,-0.0701 -0.30175,-0.1369 -0.26718,-0.19791 -0.22103,-0.25029 -0.16521,-0.29157 -0.10205,-0.32023 -0.0345,-0.33492 0.0345,-0.33491 0.10205,-0.32023 0.16521,-0.29156 0.22103,-0.2503 0.26718,-0.1979 0.30175,-0.13691 0.32311,-0.0701 h 0.3302 l 0.32311,0.0701 0.30176,0.13691 0.26718,0.1979 0.22103,0.2503 0.16521,0.29156 0.10205,0.32023 0.0345,0.33491 -0.0345,0.33492 -0.10205,0.32023 -0.16521,0.29157 -0.22103,0.25029 -0.26718,0.19791 -0.30176,0.1369 -0.32311,0.0701 z"
       style="fill:none;stroke:#000000;stroke-width:1;stroke-miterlimit:4;stroke-dasharray:none;stroke-opacity:1"
       id="path4021"
       inkscape:connector-curvature="0" />
    <path
       id="path2059"
       d="M 18.753441,296.75344 V -52.753441 H 0.24656057 V 296.75344 Z M 8.1464706,90.146327 l 0.0804,-0.38794 0.15738,-0.36243 0.2274,-0.32085 0.28752,-0.265301 0.33508,-0.19803 0.368,-0.12283 0.38478,-0.0416 0.3847604,0.0416 0.10227,0.034 0.10224,-0.034 0.38477,-0.0416 0.38477,0.0416 0.10227,0.034 0.10224,-0.034 0.38477,-0.0416 0.38475,0.0416 0.10227,0.034 0.10227,-0.034 0.38475,-0.0416 0.38475,0.0416 0.36799,0.12283 0.33509,0.19803 0.28755,0.265301 0.22733,0.32085 0.15742,0.36243 0.0804,0.38794 v 0.39663 l -0.0804,0.38794 -0.15742,0.36242 -0.22733,0.32086 -0.28755,0.2653 -0.33509,0.19803 -0.36799,0.12283 -0.38475,0.0416 -0.38475,-0.0416 -0.10227,-0.034 -0.10227,0.034 -0.38475,0.0416 -0.38477,-0.0416 -0.10224,-0.034 -0.10227,0.034 -0.38477,0.0416 -0.38477,-0.0416 -0.10224,-0.034 -0.10227,0.034 -0.3847604,0.0416 -0.38478,-0.0416 -0.368,-0.12283 -0.33508,-0.19803 -0.28752,-0.2653 -0.2274,-0.32086 -0.15738,-0.36242 -0.0804,-0.38794 z m 0,-15.97746 0.0804,-0.38793 0.15738,-0.36243 0.2274,-0.32086 0.28752,-0.2653 0.33508,-0.19803 0.368,-0.12283 0.38478,-0.0416 0.3847604,0.0416 0.10227,0.034 0.10224,-0.034 0.38477,-0.0416 0.38477,0.0416 0.10227,0.034 0.10224,-0.034 0.38477,-0.0416 0.38475,0.0416 0.10227,0.034 0.10227,-0.034 0.38475,-0.0416 0.38475,0.0416 0.36799,0.12283 0.33509,0.19803 0.28755,0.2653 0.22733,0.32086 0.15742,0.36243 0.0804,0.38793 v 0.39663 l -0.0804,0.38798 -0.15742,0.36242 -0.22733,0.32086 -0.28755,0.2653 -0.33509,0.19803 -0.36799,0.12283 -0.38475,0.0416 -0.38475,-0.0416 -0.10227,-0.034 -0.10227,0.034 -0.38475,0.0416 -0.38477,-0.0416 -0.10224,-0.034 -0.10227,0.034 -0.38477,0.0416 -0.38477,-0.0416 -0.10224,-0.034 -0.10227,0.034 -0.3847604,0.0416 -0.38478,-0.0416 -0.368,-0.12283 -0.33508,-0.19803 -0.28752,-0.2653 -0.2274,-0.32086 -0.15738,-0.36242 -0.0804,-0.38798 z m -2.43512,96.813033 0.0804,-0.38745 0.15738,-0.36243 0.2274,-0.32048 0.28752,-0.26568 0.33509,-0.1984 0.36796,-0.12207 0.38478,-0.0419 0.38476,0.0419 0.10224,0.034 0.10227,-0.034 0.38477,-0.0419 0.38477,0.0419 0.10224,0.034 0.10227,-0.034 0.38477,-0.0419 0.38477,0.0419 0.10223,0.034 0.1022704,-0.034 0.38478,-0.0419 0.38477,0.0419 0.10227,0.034 0.10223,-0.034 0.38478,-0.0419 0.38477,0.0419 0.36796,0.12207 0.33508,0.1984 0.28752,0.26568 0.22733,0.32048 0.15742,0.36243 0.0805,0.38745 v 0.39742 l -0.0805,0.38748 -0.15742,0.36243 -0.22733,0.32048 -0.28752,0.26568 -0.33508,0.19841 -0.36796,0.12207 -0.38477,0.0419 -0.38478,-0.0419 -0.10223,-0.034 -0.10227,0.034 -0.38477,0.0419 -0.38478,-0.0419 -0.1022704,-0.034 -0.10223,0.034 -0.38477,0.0419 -0.38477,-0.0419 -0.10227,-0.034 -0.10224,0.034 -0.38477,0.0419 -0.38477,-0.0419 -0.10227,-0.034 -0.10224,0.034 -0.38476,0.0419 -0.38478,-0.0419 -0.36796,-0.12207 -0.33509,-0.19841 -0.28752,-0.26568 -0.2274,-0.32048 -0.15738,-0.36243 -0.0804,-0.38748 z m 0,-176.7502706 0.0804,-0.38794 0.15738,-0.36243 0.2274,-0.32085 0.28752,-0.2653 0.33509,-0.19804 0.36796,-0.12282 0.38478,-0.0416 0.38476,0.0416 0.10224,0.034 0.10227,-0.034 0.38477,-0.0416 0.38477,0.0416 0.10224,0.034 0.10227,-0.034 0.38477,-0.0416 0.38477,0.0416 0.10223,0.034 0.1022704,-0.034 0.38478,-0.0416 0.38477,0.0416 0.10227,0.034 0.10223,-0.034 0.38478,-0.0416 0.38477,0.0416 0.36796,0.12282 0.33508,0.19804 0.28752,0.2653 0.22733,0.32085 0.15742,0.36243 0.0805,0.38794 v 0.39663 l -0.0805,0.38801 -0.15742,0.36243 -0.22733,0.32085 -0.28752,0.26531 -0.33508,0.19803 -0.36796,0.12282 -0.38477,0.0416 -0.38478,-0.0416 -0.10223,-0.034 -0.10227,0.034 -0.38477,0.0416 -0.38478,-0.0416 -0.1022704,-0.034 -0.10223,0.034 -0.38477,0.0416 -0.38477,-0.0416 -0.10227,-0.034 -0.10224,0.034 -0.38477,0.0416 -0.38477,-0.0416 -0.10227,-0.034 -0.10224,0.034 -0.38476,0.0416 -0.38478,-0.0416 -0.36796,-0.12282 -0.33509,-0.19803 -0.28752,-0.26531 -0.2274,-0.32085 -0.15738,-0.36243 -0.0804,-0.38801 z m 0,151.7854806 0.0804,-0.38749 0.15738,-0.36242 0.2274,-0.32048 0.28752,-0.26568 0.33509,-0.19841 0.36796,-0.12207 0.38478,-0.0419 0.38476,0.0419 0.10224,0.034 0.10227,-0.034 0.38477,-0.0419 0.38477,0.0419 0.10224,0.034 0.10227,-0.034 0.38477,-0.0419 0.38477,0.0419 0.10223,0.034 0.1022704,-0.034 0.38478,-0.0419 0.38477,0.0419 0.10227,0.034 0.10223,-0.034 0.38478,-0.0419 0.38477,0.0419 0.36796,0.12207 0.33508,0.19841 0.28752,0.26568 0.22733,0.32048 0.15742,0.36242 0.0805,0.38749 v 0.39746 l -0.0805,0.38744 -0.15742,0.36243 -0.22733,0.32048 -0.28752,0.26568 -0.33508,0.19841 -0.36796,0.12207 -0.38477,0.042 -0.38478,-0.042 -0.10223,-0.034 -0.10227,0.034 -0.38477,0.042 -0.38478,-0.042 -0.1022704,-0.034 -0.10223,0.034 -0.38477,0.042 -0.38477,-0.042 -0.10227,-0.034 -0.10224,0.034 -0.38477,0.042 -0.38477,-0.042 -0.10227,-0.034 -0.10224,0.034 -0.38476,0.042 -0.38478,-0.042 -0.36796,-0.12207 -0.33509,-0.19841 -0.28752,-0.26568 -0.2274,-0.32048 -0.15738,-0.36243 -0.0804,-0.38744 z m 0,-126.820661 0.0804,-0.38801 0.15738,-0.36243 0.2274,-0.32085 0.28752,-0.2653 0.33509,-0.19804 0.36796,-0.12282 0.38478,-0.0416 0.38476,0.0416 0.10224,0.034 0.10227,-0.034 0.38477,-0.0416 0.38477,0.0416 0.10224,0.034 0.10227,-0.034 0.38477,-0.0416 0.38477,0.0416 0.10223,0.034 0.1022704,-0.034 0.38478,-0.0416 0.38477,0.0416 0.10227,0.034 0.10223,-0.034 0.38478,-0.0416 0.38477,0.0416 0.36796,0.12282 0.33508,0.19804 0.28752,0.2653 0.22733,0.32085 0.15742,0.36243 0.0805,0.38801 v 0.39663 l -0.0805,0.38798 -0.15742,0.36243 -0.22733,0.32085 -0.28752,0.2653 -0.33508,0.19803 -0.36796,0.12245 -0.38477,0.0416 -0.38478,-0.0416 -0.10223,-0.034 -0.10227,0.034 -0.38477,0.0416 -0.38478,-0.0416 -0.1022704,-0.034 -0.10223,0.034 -0.38477,0.0416 -0.38477,-0.0416 -0.10227,-0.034 -0.10224,0.034 -0.38477,0.0416 -0.38477,-0.0416 -0.10227,-0.034 -0.10224,0.034 -0.38476,0.0416 -0.38478,-0.0416 -0.36796,-0.12245 -0.33509,-0.19803 -0.28752,-0.2653 -0.2274,-0.32085 -0.15738,-0.36243 -0.0804,-0.38798 z m 1.94809,222.186121 0.0804,-0.38744 0.15738,-0.36243 0.2274,-0.32048 0.28752,-0.26568 0.33509,-0.19841 0.36796,-0.12206 0.38477,-0.0419 0.38477,0.0419 0.3679604,0.12206 0.33505,0.19841 0.28752,0.26568 0.2274,0.32048 0.15738,0.36243 0.0804,0.38744 v 0.39747 l -0.0804,0.3874 -0.15738,0.36243 -0.2274,0.32048 -0.28752,0.26568 -0.33505,0.19841 -0.3679604,0.12207 -0.38477,0.042 -0.38477,-0.042 -0.36796,-0.12207 -0.33509,-0.19841 -0.28752,-0.26568 -0.2274,-0.32048 -0.15738,-0.36243 -0.0804,-0.3874 z m 0,-49.92957 0.0804,-0.38741 0.15738,-0.36243 0.2274,-0.32047 0.28752,-0.26568 0.33509,-0.19841 0.36796,-0.12207 0.38477,-0.0419 0.38477,0.0419 0.3679604,0.12207 0.33505,0.19841 0.28752,0.26568 0.2274,0.32047 0.15738,0.36243 0.0804,0.38741 v 0.39746 l -0.0804,0.38745 -0.15738,0.36242 -0.2274,0.32048 -0.28752,0.26568 -0.33505,0.19841 -0.3679604,0.12207 -0.38477,0.0419 -0.38477,-0.0419 -0.36796,-0.12207 -0.33509,-0.19841 -0.28752,-0.26568 -0.2274,-0.32048 -0.15738,-0.36242 -0.0804,-0.38745 z m 0,-134.809401 0.0804,-0.38794 0.15738,-0.36243 0.2274,-0.32085 0.28752,-0.2653 0.33509,-0.19804 0.36796,-0.12282 0.38477,-0.0416 0.38477,0.0416 0.3679604,0.12282 0.33505,0.19804 0.28752,0.2653 0.2274,0.32085 0.15738,0.36243 0.0804,0.38794 v 0.39663 l -0.0804,0.38793 -0.15738,0.36243 -0.2274,0.32086 -0.28752,0.2653 -0.33505,0.19803 -0.3679604,0.12283 -0.38477,0.0416 -0.38477,-0.0416 -0.36796,-0.12283 -0.33509,-0.19803 -0.28752,-0.2653 -0.2274,-0.32086 -0.15738,-0.36243 -0.0804,-0.38793 z m 0,53.923911 0.0804,-0.38794 0.15738,-0.36243 0.2274,-0.32085 0.28752,-0.2653 0.33509,-0.19803 0.36796,-0.12245 0.38477,-0.0416 0.38477,0.0416 0.3679604,0.12245 0.33505,0.19803 0.28752,0.2653 0.2274,0.32085 0.15738,0.36243 0.0804,0.38794 v 0.39663 l -0.0804,0.38797 -0.15738,0.36243 -0.2274,0.32086 -0.28752,0.2653 -0.33505,0.19841 -0.3679604,0.12282 -0.38477,0.0416 -0.38477,-0.0416 -0.36796,-0.12282 -0.33509,-0.19841 -0.28752,-0.2653 -0.2274,-0.32086 -0.15738,-0.36243 -0.0804,-0.38797 z"
       inkscape:connector-curvature="0"
       style="fill:none;stroke:#000000;stroke-width:0.49312115" />
    <path
       id="path2059-3"
       d="M 38.753441,296.75344 V -52.753451 H 20.246561 V 296.75344 Z m -10.60697,-206.607121 0.0804,-0.38794 0.15738,-0.36243 0.2274,-0.32085 0.28752,-0.2653 0.33508,-0.19803 0.368,-0.12283 0.38478,-0.0416 0.38476,0.0416 0.10227,0.034 0.10224,-0.034 0.38477,-0.0416 0.38477,0.0416 0.10227,0.034 0.10224,-0.034 0.38477,-0.0416 0.38475,0.0416 0.10227,0.034 0.10227,-0.034 0.38475,-0.0416 0.38475,0.0416 0.36799,0.12283 0.33509,0.19803 0.28755,0.2653 0.22733,0.32085 0.15742,0.36243 0.0804,0.38794 v 0.39663 l -0.0804,0.38794 -0.15742,0.36242 -0.22733,0.32086 -0.28755,0.2653 -0.33509,0.19803 -0.36799,0.12283 -0.38475,0.0416 -0.38475,-0.0416 -0.10227,-0.034 -0.10227,0.034 -0.38475,0.0416 -0.38477,-0.0416 -0.10224,-0.034 -0.10227,0.034 -0.38477,0.0416 -0.38477,-0.0416 -0.10224,-0.034 -0.10227,0.034 -0.38476,0.0416 -0.38478,-0.0416 -0.368,-0.12283 -0.33508,-0.19803 -0.28752,-0.2653 -0.2274,-0.32086 -0.15738,-0.36242 -0.0804,-0.38794 z m 0,-15.97746 0.0804,-0.38793 0.15738,-0.36243 0.2274,-0.32086 0.28752,-0.2653 0.33508,-0.19803 0.368,-0.12283 0.38478,-0.0416 0.38476,0.0416 0.10227,0.034 0.10224,-0.034 0.38477,-0.0416 0.38477,0.0416 0.10227,0.034 0.10224,-0.034 0.38477,-0.0416 0.38475,0.0416 0.10227,0.034 0.10227,-0.034 0.38475,-0.0416 0.38475,0.0416 0.36799,0.12283 0.33509,0.19803 0.28755,0.2653 0.22733,0.32086 0.15742,0.36243 0.0804,0.38793 v 0.39663 l -0.0804,0.38798 -0.15742,0.36242 -0.22733,0.32086 -0.28755,0.2653 -0.33509,0.19803 -0.36799,0.12283 -0.38475,0.0416 -0.38475,-0.0416 -0.10227,-0.034 -0.10227,0.034 -0.38475,0.0416 -0.38477,-0.0416 -0.10224,-0.034 -0.10227,0.034 -0.38477,0.0416 -0.38477,-0.0416 -0.10224,-0.034 -0.10227,0.034 -0.38476,0.0416 -0.38478,-0.0416 -0.368,-0.12283 -0.33508,-0.19803 -0.28752,-0.2653 -0.2274,-0.32086 -0.15738,-0.36242 -0.0804,-0.38798 z m -2.43512,96.813031 0.0804,-0.38745 0.15738,-0.36243 0.2274,-0.32048 0.28752,-0.26568 0.33509,-0.1984 0.36796,-0.12207 0.38478,-0.0419 0.38476,0.0419 0.10224,0.034 0.10227,-0.034 0.38477,-0.0419 0.38477,0.0419 0.10224,0.034 0.10227,-0.034 0.38477,-0.0419 0.38477,0.0419 0.10223,0.034 0.10227,-0.034 0.38478,-0.0419 0.38477,0.0419 0.10227,0.034 0.10223,-0.034 0.38478,-0.0419 0.38477,0.0419 0.36796,0.12207 0.33508,0.1984 0.28752,0.26568 0.22733,0.32048 0.15742,0.36243 0.0805,0.38745 v 0.39742 l -0.0805,0.38748 -0.15742,0.36243 -0.22733,0.32048 -0.28752,0.26568 -0.33508,0.19841 -0.36796,0.12208 -0.38477,0.0419 -0.38478,-0.0419 -0.10223,-0.034 -0.10227,0.034 -0.38477,0.0419 -0.38478,-0.0419 -0.10227,-0.034 -0.10223,0.034 -0.38477,0.0419 -0.38477,-0.0419 -0.10227,-0.034 -0.10224,0.034 -0.38477,0.0419 -0.38477,-0.0419 -0.10227,-0.034 -0.10224,0.034 -0.38476,0.0419 -0.38478,-0.0419 -0.36796,-0.12208 -0.33509,-0.19841 -0.28752,-0.26568 -0.2274,-0.32048 -0.15738,-0.36243 -0.0804,-0.38748 z m 0,-176.7502706 0.0804,-0.38794 0.15738,-0.36243 0.2274,-0.32085 0.28752,-0.2653 0.33509,-0.19804 0.36796,-0.12282 0.38478,-0.0416 0.38476,0.0416 0.10224,0.034 0.10227,-0.034 0.38477,-0.0416 0.38477,0.0416 0.10224,0.034 0.10227,-0.034 0.38477,-0.0416 0.38477,0.0416 0.10223,0.034 0.10227,-0.034 0.38478,-0.0416 0.38477,0.0416 0.10227,0.034 0.10223,-0.034 0.38478,-0.0416 0.38477,0.0416 0.36796,0.12282 0.33508,0.19804 0.28752,0.2653 0.22733,0.32085 0.15742,0.36243 0.0805,0.38794 v 0.39663 l -0.0805,0.38801 -0.15742,0.36243 -0.22733,0.32085 -0.28752,0.26531 -0.33508,0.19803 -0.36796,0.12282 -0.38477,0.0416 -0.38478,-0.0416 -0.10223,-0.034 -0.10227,0.034 -0.38477,0.0416 -0.38478,-0.0416 -0.10227,-0.034 -0.10223,0.034 -0.38477,0.0416 -0.38477,-0.0416 -0.10227,-0.034 -0.10224,0.034 -0.38477,0.0416 -0.38477,-0.0416 -0.10227,-0.034 -0.10224,0.034 -0.38476,0.0416 -0.38478,-0.0416 -0.36796,-0.12282 -0.33509,-0.19803 -0.28752,-0.26531 -0.2274,-0.32085 -0.15738,-0.36243 -0.0804,-0.38801 z m 0,151.7854806 0.0804,-0.38749 0.15738,-0.36242 0.2274,-0.32048 0.28752,-0.26568 0.33509,-0.19841 0.36796,-0.12207 0.38478,-0.0419 0.38476,0.0419 0.10224,0.034 0.10227,-0.034 0.38477,-0.0419 0.38477,0.0419 0.10224,0.034 0.10227,-0.034 0.38477,-0.0419 0.38477,0.0419 0.10223,0.034 0.10227,-0.034 0.38478,-0.0419 0.38477,0.0419 0.10227,0.034 0.10223,-0.034 0.38478,-0.0419 0.38477,0.0419 0.36796,0.12207 0.33508,0.19841 0.28752,0.26568 0.22733,0.32048 0.15742,0.36242 0.0805,0.38749 v 0.39746 l -0.0805,0.38744 -0.15742,0.36243 -0.22733,0.32048 -0.28752,0.26568 -0.33508,0.19841 -0.36796,0.12207 -0.38477,0.042 -0.38478,-0.042 -0.10223,-0.034 -0.10227,0.034 -0.38477,0.042 -0.38478,-0.042 -0.10227,-0.034 -0.10223,0.034 -0.38477,0.042 -0.38477,-0.042 -0.10227,-0.034 -0.10224,0.034 -0.38477,0.042 -0.38477,-0.042 -0.10227,-0.034 -0.10224,0.034 -0.38476,0.042 -0.38478,-0.042 -0.36796,-0.12207 -0.33509,-0.19841 -0.28752,-0.26568 -0.2274,-0.32048 -0.15738,-0.36243 -0.0804,-0.38744 z m 0,-126.820661 0.0804,-0.38801 0.15738,-0.36243 0.2274,-0.32085 0.28752,-0.2653 0.33509,-0.19804 0.36796,-0.12282 0.38478,-0.0416 0.38476,0.0416 0.10224,0.034 0.10227,-0.034 0.38477,-0.0416 0.38477,0.0416 0.10224,0.034 0.10227,-0.034 0.38477,-0.0416 0.38477,0.0416 0.10223,0.034 0.10227,-0.034 0.38478,-0.0416 0.38477,0.0416 0.10227,0.034 0.10223,-0.034 0.38478,-0.0416 0.38477,0.0416 0.36796,0.12282 0.33508,0.19804 0.28752,0.2653 0.22733,0.32085 0.15742,0.36243 0.0805,0.38801 v 0.39663 l -0.0805,0.38798 -0.15742,0.36243 -0.22733,0.32085 -0.28752,0.2653 -0.33508,0.19803 -0.36796,0.12245 -0.38477,0.0416 -0.38478,-0.0416 -0.10223,-0.034 -0.10227,0.034 -0.38477,0.0416 -0.38478,-0.0416 -0.10227,-0.034 -0.10223,0.034 -0.38477,0.0416 -0.38477,-0.0416 -0.10227,-0.034 -0.10224,0.034 -0.38477,0.0416 -0.38477,-0.0416 -0.10227,-0.034 -0.10224,0.034 -0.38476,0.0416 -0.38478,-0.0416 -0.36796,-0.12245 -0.33509,-0.19803 -0.28752,-0.2653 -0.2274,-0.32085 -0.15738,-0.36243 -0.0804,-0.38798 z m 1.94809,222.186141 0.0804,-0.38746 0.15738,-0.36243 0.2274,-0.32049 0.28752,-0.26566 0.33509,-0.19841 0.36796,-0.12206 0.38477,-0.0419 0.38477,0.0419 0.36796,0.12206 0.33505,0.19841 0.28752,0.26566 0.2274,0.32049 0.15738,0.36243 0.0804,0.38746 v 0.39745 l -0.0804,0.38741 -0.15738,0.36242 -0.2274,0.32049 -0.28752,0.26567 -0.33505,0.19841 -0.36796,0.12208 -0.38477,0.042 -0.38477,-0.042 -0.36796,-0.12208 -0.33509,-0.19841 -0.28752,-0.26567 -0.2274,-0.32049 -0.15738,-0.36242 -0.0804,-0.38741 z m 0,-49.92958 0.0804,-0.38742 0.15738,-0.36242 0.2274,-0.32048 0.28752,-0.26567 0.33509,-0.19842 0.36796,-0.12207 0.38477,-0.0419 0.38477,0.0419 0.36796,0.12207 0.33505,0.19842 0.28752,0.26567 0.2274,0.32048 0.15738,0.36242 0.0804,0.38742 v 0.39745 l -0.0804,0.38746 -0.15738,0.36241 -0.2274,0.32048 -0.28752,0.26568 -0.33505,0.19842 -0.36796,0.12206 -0.38477,0.0419 -0.38477,-0.0419 -0.36796,-0.12206 -0.33509,-0.19842 -0.28752,-0.26568 -0.2274,-0.32048 -0.15738,-0.36241 -0.0804,-0.38746 z m 0,-134.809411 0.0804,-0.38794 0.15738,-0.36243 0.2274,-0.32085 0.28752,-0.2653 0.33509,-0.19804 0.36796,-0.12282 0.38477,-0.0416 0.38477,0.0416 0.36796,0.12282 0.33505,0.19804 0.28752,0.2653 0.2274,0.32085 0.15738,0.36243 0.0804,0.38794 v 0.39663 l -0.0804,0.38793 -0.15738,0.36243 -0.2274,0.32086 -0.28752,0.2653 -0.33505,0.19803 -0.36796,0.12283 -0.38477,0.0416 -0.38477,-0.0416 -0.36796,-0.12283 -0.33509,-0.19803 -0.28752,-0.2653 -0.2274,-0.32086 -0.15738,-0.36243 -0.0804,-0.38793 z m 0,53.923911 0.0804,-0.38794 0.15738,-0.36243 0.2274,-0.32085 0.28752,-0.2653 0.33509,-0.19803 0.36796,-0.12245 0.38477,-0.0416 0.38477,0.0416 0.36796,0.12245 0.33505,0.19803 0.28752,0.2653 0.2274,0.32085 0.15738,0.36243 0.0804,0.38794 v 0.39663 l -0.0804,0.38797 -0.15738,0.36243 -0.2274,0.32086 -0.28752,0.2653 -0.33505,0.19841 -0.36796,0.12282 -0.38477,0.0416 -0.38477,-0.0416 -0.36796,-0.12282 -0.33509,-0.19841 -0.28752,-0.2653 -0.2274,-0.32086 -0.15738,-0.36243 -0.0804,-0.38797 z"
       inkscape:connector-curvature="0"
       style="fill:none;stroke:#000000;stroke-width:0.49312115" />
  </g>
</svg>
