  0
SECTION
  2
HEADER
  9
$ACADVER
  1
AC1014
  9
$HANDSEED
  5
FFFF
  9
$MEASUREMENT
 70
     1
  0
ENDSEC
  0
SECTION
  2
TABLES
  0
TABLE
  2
VPORT
  5
8
330
0
100
AcDbSymbolTable
 70
     4
  0
VPORT
  5
2E
330
8
100
AcDbSymbolTableRecord
100
AcDbViewportTableRecord
  2
*ACTIVE
 70
     0
 10
0.0
 20
0.0
 11
1.0
 21
1.0
 12
210.0
 22
148.5
 13
0.0
 23
0.0
 14
10.0
 24
10.0
 15
10.0
 25
10.0
 16
0.0
 26
0.0
 36
1.0
 17
0.0
 27
0.0
 37
0.0
 40
341.0
 41
1.24
 42
50.0
 43
0.0
 44
0.0
 50
0.0
 51
0.0
 71
     0
 72
   100
 73
     1
 74
     3
 75
     0
 76
     0
 77
     0
 78
     0
  0
ENDTAB
  0
TABLE
  2
LTYPE
  5
5
330
0
100
AcDbSymbolTable
 70
     1
  0
LTYPE
  5
14
330
5
100
AcDbSymbolTableRecord
100
AcDbLinetypeTableRecord
  2
BYBLOCK
 70
     0
  3

 72
    65
 73
     0
 40
0.0
  0
LTYPE
  5
15
330
5
100
AcDbSymbolTableRecord
100
AcDbLinetypeTableRecord
  2
BYLAYER
 70
     0
  3

 72
    65
 73
     0
 40
0.0
  0
LTYPE
  5
16
330
5
100
AcDbSymbolTableRecord
100
AcDbLinetypeTableRecord
  2
CONTINUOUS
 70
     0
  3
Solid line
 72
    65
 73
     0
 40
0.0
  0
ENDTAB
  0
TABLE
  2
LAYER
  5
2
100
AcDbSymbolTable
 70
2
  0
LAYER
  5
50
100
AcDbSymbolTableRecord
100
AcDbLayerTableRecord
  2
0
 70
0
  6
CONTINUOUS
  0
LAYER
  5
51
100
AcDbSymbolTableRecord
100
AcDbLayerTableRecord
  2
Layer_1
 70
0
  6
CONTINUOUS
  0
ENDTAB
  0
TABLE
  2
STYLE
  5
3
330
0
100
AcDbSymbolTable
 70
     1
  0
STYLE
  5
11
330
3
100
AcDbSymbolTableRecord
100
AcDbTextStyleTableRecord
  2
STANDARD
 70
     0
 40
0.0
 41
1.0
 50
0.0
 71
     0
 42
2.5
  3
txt
  4

  0
ENDTAB
  0
TABLE
  2
VIEW
  5
6
330
0
100
AcDbSymbolTable
 70
     0
  0
ENDTAB
  0
TABLE
  2
UCS
  5
7
330
0
100
AcDbSymbolTable
 70
     0
  0
ENDTAB
  0
TABLE
  2
APPID
  5
9
330
0
100
AcDbSymbolTable
 70
     2
  0
APPID
  5
12
330
9
100
AcDbSymbolTableRecord
100
AcDbRegAppTableRecord
  2
ACAD
 70
     0
  0
ENDTAB
  0
TABLE
  2
DIMSTYLE
  5
A
330
0
100
AcDbSymbolTable
 70
     1
  0
DIMSTYLE
105
27
330
A
100
AcDbSymbolTableRecord
100
AcDbDimStyleTableRecord
  2
ISO-25
 70
     0
  3

  4

  5

  6

  7

 40
1.0
 41
2.5
 42
0.625
 43
3.75
 44
1.25
 45
0.0
 46
0.0
 47
0.0
 48
0.0
140
2.5
141
2.5
142
0.0
143
0.03937007874016
144
1.0
145
0.0
146
1.0
147
0.625
 71
     0
 72
     0
 73
     0
 74
     0
 75
     0
 76
     0
 77
     1
 78
     8
170
     0
171
     3
172
     1
173
     0
174
     0
175
     0
176
     0
177
     0
178
     0
270
     2
271
     2
272
     2
273
     2
274
     3
340
11
275
     0
280
     0
281
     0
282
     0
283
     0
284
     8
285
     0
286
     0
287
     3
288
     0
  0
ENDTAB
  0
TABLE
  2
BLOCK_RECORD
  5
1
330
0
100
AcDbSymbolTable
 70
     1
  0
BLOCK_RECORD
  5
1F
330
1
100
AcDbSymbolTableRecord
100
AcDbBlockTableRecord
  2
*MODEL_SPACE
  0
BLOCK_RECORD
  5
1B
330
1
100
AcDbSymbolTableRecord
100
AcDbBlockTableRecord
  2
*PAPER_SPACE
  0
ENDTAB
  0
ENDSEC
  0
SECTION
  2
BLOCKS
  0
BLOCK
  5
20
330
1F
100
AcDbEntity
  8
0
100
AcDbBlockBegin
  2
*MODEL_SPACE
 70
     0
 10
0.0
 20
0.0
 30
0.0
  3
*MODEL_SPACE
  1

  0
ENDBLK
  5
21
330
1F
100
AcDbEntity
  8
0
100
AcDbBlockEnd
  0
BLOCK
  5
1C
330
1B
100
AcDbEntity
 67
     1
  8
0
100
AcDbBlockBegin
  2
*PAPER_SPACE
  1

  0
ENDBLK
  5
1D
330
1B
100
AcDbEntity
 67
     1
  8
0
100
AcDbBlockEnd
  0
ENDSEC
  0
SECTION
  2
ENTITIES
  0
LWPOLYLINE
  5
100
100
AcDbEntity
  8
Layer_1
 62
7
100
AcDbPolyline
 90
45
 70
1
 10
155.014940
 20
3.303280
 30
0.0
 10
157.306760
 20
4.323670
 30
0.0
 10
159.336300
 20
5.798240
 30
0.0
 10
161.014950
 20
7.662550
 30
0.0
 10
162.269260
 20
9.835150
 30
0.0
 10
162.959740
 20
11.960230
 30
0.0
 10
179.354350
 20
44.136390
 30
0.0
 10
179.396950
 20
44.145390
 30
0.0
 10
181.306740
 20
44.995710
 30
0.0
 10
182.998040
 20
46.224510
 30
0.0
 10
184.396940
 20
47.778100
 30
0.0
 10
185.442260
 20
49.588600
 30
0.0
 10
186.088240
 20
51.576910
 30
0.0
 10
186.306760
 20
53.656010
 30
0.0
 10
186.088240
 20
55.735110
 30
0.0
 10
185.442260
 20
57.723410
 30
0.0
 10
184.396940
 20
59.533810
 30
0.0
 10
182.998040
 20
61.087410
 30
0.0
 10
181.306740
 20
62.316310
 30
0.0
 10
179.396950
 20
63.166610
 30
0.0
 10
177.352050
 20
63.601210
 30
0.0
 10
175.306770
 20
63.601210
 30
0.0
 10
175.306770
 20
63.716010
 30
0.0
 10
173.306760
 20
63.716010
 30
0.0
 10
173.306760
 20
86.216010
 30
0.0
 10
119.306760
 20
86.216010
 30
0.0
 10
119.306760
 20
60.744610
 30
0.0
 10
118.216570
 20
59.533800
 30
0.0
 10
117.171250
 20
57.723410
 30
0.0
 10
116.525270
 20
55.735100
 30
0.0
 10
116.306750
 20
53.656000
 30
0.0
 10
116.525270
 20
51.576900
 30
0.0
 10
117.171250
 20
49.588600
 30
0.0
 10
118.216570
 20
47.778100
 30
0.0
 10
119.615470
 20
46.224510
 30
0.0
 10
121.306770
 20
44.995710
 30
0.0
 10
122.489750
 20
44.469000
 30
0.0
 10
140.644370
 20
8.838680
 30
0.0
 10
140.856960
 20
8.947030
 30
0.0
 10
141.598560
 20
7.662550
 30
0.0
 10
143.277210
 20
5.798240
 30
0.0
 10
145.306750
 20
4.323670
 30
0.0
 10
147.598570
 20
3.303280
 30
0.0
 10
150.052420
 20
2.781780
 30
0.0
 10
152.561100
 20
2.781780
 30
0.0
  0
LWPOLYLINE
  5
101
100
AcDbEntity
  8
Layer_1
 62
7
100
AcDbPolyline
 90
30
 70
1
 10
131.467050
 20
75.483810
 30
0.0
 10
130.802440
 20
75.625120
 30
0.0
 10
130.181760
 20
75.901410
 30
0.0
 10
129.632060
 20
76.300810
 30
0.0
 10
129.177450
 20
76.805710
 30
0.0
 10
128.837750
 20
77.394100
 30
0.0
 10
128.627750
 20
78.040300
 30
0.0
 10
128.556750
 20
78.716010
 30
0.0
 10
128.627750
 20
79.391710
 30
0.0
 10
128.837750
 20
80.037910
 30
0.0
 10
129.177450
 20
80.626310
 30
0.0
 10
129.632060
 20
81.131200
 30
0.0
 10
130.181760
 20
81.530610
 30
0.0
 10
130.802440
 20
81.806900
 30
0.0
 10
131.467050
 20
81.948210
 30
0.0
 10
132.146450
 20
81.948210
 30
0.0
 10
132.811050
 20
81.806900
 30
0.0
 10
133.431740
 20
81.530610
 30
0.0
 10
133.981460
 20
81.131200
 30
0.0
 10
134.436020
 20
80.626310
 30
0.0
 10
134.775740
 20
80.037910
 30
0.0
 10
134.985740
 20
79.391710
 30
0.0
 10
135.056740
 20
78.716010
 30
0.0
 10
134.985740
 20
78.040300
 30
0.0
 10
134.775740
 20
77.394100
 30
0.0
 10
134.436020
 20
76.805710
 30
0.0
 10
133.981460
 20
76.300810
 30
0.0
 10
133.431740
 20
75.901410
 30
0.0
 10
132.811050
 20
75.625120
 30
0.0
 10
132.146450
 20
75.483810
 30
0.0
  0
LWPOLYLINE
  5
102
100
AcDbEntity
  8
Layer_1
 62
7
100
AcDbPolyline
 90
30
 70
1
 10
161.467040
 20
75.483810
 30
0.0
 10
160.802410
 20
75.625120
 30
0.0
 10
160.181720
 20
75.901410
 30
0.0
 10
159.632070
 20
76.300810
 30
0.0
 10
159.177440
 20
76.805710
 30
0.0
 10
158.837720
 20
77.394100
 30
0.0
 10
158.627770
 20
78.040300
 30
0.0
 10
158.556770
 20
78.716010
 30
0.0
 10
158.627770
 20
79.391710
 30
0.0
 10
158.837720
 20
80.037910
 30
0.0
 10
159.177440
 20
80.626310
 30
0.0
 10
159.632070
 20
81.131200
 30
0.0
 10
160.181750
 20
81.530610
 30
0.0
 10
160.802410
 20
81.806900
 30
0.0
 10
161.467040
 20
81.948210
 30
0.0
 10
162.146440
 20
81.948210
 30
0.0
 10
162.811040
 20
81.806900
 30
0.0
 10
163.431760
 20
81.530610
 30
0.0
 10
163.981450
 20
81.131200
 30
0.0
 10
164.436060
 20
80.626310
 30
0.0
 10
164.775760
 20
80.037910
 30
0.0
 10
164.985760
 20
79.391710
 30
0.0
 10
165.056760
 20
78.716010
 30
0.0
 10
164.985760
 20
78.040300
 30
0.0
 10
164.775760
 20
77.394100
 30
0.0
 10
164.436060
 20
76.805710
 30
0.0
 10
163.981450
 20
76.300810
 30
0.0
 10
163.431760
 20
75.901410
 30
0.0
 10
162.811040
 20
75.625120
 30
0.0
 10
162.146440
 20
75.483810
 30
0.0
  0
LWPOLYLINE
  5
103
100
AcDbEntity
  8
Layer_1
 62
7
100
AcDbPolyline
 90
30
 70
1
 10
124.956550
 20
50.324400
 30
0.0
 10
124.271550
 20
50.470000
 30
0.0
 10
123.631760
 20
50.754800
 30
0.0
 10
123.065150
 20
51.166500
 30
0.0
 10
122.596550
 20
51.686900
 30
0.0
 10
122.246350
 20
52.293400
 30
0.0
 10
122.029940
 20
52.959500
 30
0.0
 10
121.956740
 20
53.656000
 30
0.0
 10
122.029940
 20
54.352500
 30
0.0
 10
122.246350
 20
55.018600
 30
0.0
 10
122.596550
 20
55.625110
 30
0.0
 10
123.065150
 20
56.145510
 30
0.0
 10
123.631760
 20
56.557200
 30
0.0
 10
124.271550
 20
56.842000
 30
0.0
 10
124.956550
 20
56.987610
 30
0.0
 10
125.656960
 20
56.987610
 30
0.0
 10
126.341940
 20
56.842000
 30
0.0
 10
126.981750
 20
56.557200
 30
0.0
 10
127.548360
 20
56.145510
 30
0.0
 10
128.016960
 20
55.625110
 30
0.0
 10
128.367140
 20
55.018600
 30
0.0
 10
128.583540
 20
54.352500
 30
0.0
 10
128.656740
 20
53.656000
 30
0.0
 10
128.583540
 20
52.959500
 30
0.0
 10
128.367140
 20
52.293400
 30
0.0
 10
128.016960
 20
51.686900
 30
0.0
 10
127.548360
 20
51.166500
 30
0.0
 10
126.981750
 20
50.754800
 30
0.0
 10
126.341940
 20
50.470000
 30
0.0
 10
125.656960
 20
50.324400
 30
0.0
  0
LWPOLYLINE
  5
104
100
AcDbEntity
  8
Layer_1
 62
7
100
AcDbPolyline
 90
30
 70
1
 10
176.956520
 20
50.324400
 30
0.0
 10
176.271540
 20
50.470000
 30
0.0
 10
175.631750
 20
50.754800
 30
0.0
 10
175.065140
 20
51.166500
 30
0.0
 10
174.596540
 20
51.686900
 30
0.0
 10
174.246340
 20
52.293400
 30
0.0
 10
174.029960
 20
52.959500
 30
0.0
 10
173.956760
 20
53.656000
 30
0.0
 10
174.029960
 20
54.352500
 30
0.0
 10
174.246340
 20
55.018600
 30
0.0
 10
174.596540
 20
55.625110
 30
0.0
 10
175.065140
 20
56.145510
 30
0.0
 10
175.631750
 20
56.557200
 30
0.0
 10
176.271540
 20
56.842000
 30
0.0
 10
176.956520
 20
56.987610
 30
0.0
 10
177.656950
 20
56.987610
 30
0.0
 10
178.341930
 20
56.842000
 30
0.0
 10
178.981720
 20
56.557200
 30
0.0
 10
179.548350
 20
56.145510
 30
0.0
 10
180.016950
 20
55.625110
 30
0.0
 10
180.367150
 20
55.018600
 30
0.0
 10
180.583560
 20
54.352500
 30
0.0
 10
180.656760
 20
53.656000
 30
0.0
 10
180.583560
 20
52.959500
 30
0.0
 10
180.367150
 20
52.293400
 30
0.0
 10
180.016950
 20
51.686900
 30
0.0
 10
179.548350
 20
51.166500
 30
0.0
 10
178.981720
 20
50.754800
 30
0.0
 10
178.341930
 20
50.470000
 30
0.0
 10
177.656950
 20
50.324400
 30
0.0
  0
LWPOLYLINE
  5
105
100
AcDbEntity
  8
Layer_1
 62
7
100
AcDbPolyline
 90
34
 70
1
 10
150.956600
 20
8.269350
 30
0.0
 10
150.271540
 20
8.414950
 30
0.0
 10
149.631750
 20
8.699800
 30
0.0
 10
149.065150
 20
9.111460
 30
0.0
 10
148.596520
 20
9.631900
 30
0.0
 10
148.246370
 20
10.238430
 30
0.0
 10
148.029960
 20
10.904490
 30
0.0
 10
147.956760
 20
11.600980
 30
0.0
 10
148.029960
 20
12.297500
 30
0.0
 10
148.148500
 20
12.662220
 30
0.0
 10
148.273780
 20
12.726120
 30
0.0
 10
148.337680
 20
12.922920
 30
0.0
 10
148.677410
 20
13.511310
 30
0.0
 10
149.132040
 20
14.016240
 30
0.0
 10
149.681710
 20
14.415600
 30
0.0
 10
150.302400
 20
14.691960
 30
0.0
 10
150.967010
 20
14.833190
 30
0.0
 10
151.646400
 20
14.833190
 30
0.0
 10
152.311010
 20
14.691960
 30
0.0
 10
152.931700
 20
14.415600
 30
0.0
 10
153.481370
 20
14.016240
 30
0.0
 10
153.936000
 20
13.511310
 30
0.0
 10
154.275730
 20
12.922920
 30
0.0
 10
154.485670
 20
12.276730
 30
0.0
 10
154.495770
 20
12.186630
 30
0.0
 10
154.601420
 20
12.132830
 30
0.0
 10
154.657320
 20
11.600990
 30
0.0
 10
154.584120
 20
10.904500
 30
0.0
 10
154.367690
 20
10.238440
 30
0.0
 10
154.017540
 20
9.631910
 30
0.0
 10
153.548910
 20
9.111470
 30
0.0
 10
152.982340
 20
8.699810
 30
0.0
 10
152.342550
 20
8.414960
 30
0.0
 10
151.657490
 20
8.269360
 30
0.0
  0
LWPOLYLINE
  5
106
100
AcDbEntity
  8
Layer_1
 62
7
100
AcDbPolyline
 90
47
 70
1
 10
83.723873
 20
20.470540
 30
0.0
 10
86.015660
 20
21.490930
 30
0.0
 10
88.045230
 20
22.965500
 30
0.0
 10
89.723851
 20
24.829810
 30
0.0
 10
90.978157
 20
27.002410
 30
0.0
 10
91.668667
 20
29.127500
 30
0.0
 10
108.063250
 20
61.303650
 30
0.0
 10
108.105850
 20
61.312650
 30
0.0
 10
110.015670
 20
62.162970
 30
0.0
 10
111.706960
 20
63.391770
 30
0.0
 10
113.105870
 20
64.945360
 30
0.0
 10
114.151160
 20
66.755870
 30
0.0
 10
114.797160
 20
68.744170
 30
0.0
 10
115.015660
 20
70.823270
 30
0.0
 10
114.797160
 20
72.902360
 30
0.0
 10
114.151160
 20
74.890660
 30
0.0
 10
113.105870
 20
76.701060
 30
0.0
 10
111.706960
 20
78.254660
 30
0.0
 10
110.015670
 20
79.483560
 30
0.0
 10
108.105850
 20
80.333860
 30
0.0
 10
106.060960
 20
80.768460
 30
0.0
 10
104.015660
 20
80.768460
 30
0.0
 10
104.015660
 20
80.883260
 30
0.0
 10
56.015658
 20
80.883260
 30
0.0
 10
56.015658
 20
80.768460
 30
0.0
 10
53.970348
 20
80.768460
 30
0.0
 10
51.925441
 20
80.333860
 30
0.0
 10
50.015651
 20
79.483560
 30
0.0
 10
48.324361
 20
78.254660
 30
0.0
 10
46.925454
 20
76.701060
 30
0.0
 10
45.880164
 20
74.890660
 30
0.0
 10
45.234134
 20
72.902360
 30
0.0
 10
45.015664
 20
70.823270
 30
0.0
 10
45.234134
 20
68.744160
 30
0.0
 10
45.880164
 20
66.755860
 30
0.0
 10
46.925454
 20
64.945360
 30
0.0
 10
48.324361
 20
63.391770
 30
0.0
 10
50.015651
 20
62.162970
 30
0.0
 10
51.198661
 20
61.636250
 30
0.0
 10
69.353250
 20
26.005940
 30
0.0
 10
69.565839
 20
26.114290
 30
0.0
 10
70.307469
 20
24.829810
 30
0.0
 10
71.986089
 20
22.965500
 30
0.0
 10
74.015660
 20
21.490930
 30
0.0
 10
76.307446
 20
20.470540
 30
0.0
 10
78.761326
 20
19.949040
 30
0.0
 10
81.269963
 20
19.949040
 30
0.0
  0
LWPOLYLINE
  5
107
100
AcDbEntity
  8
Layer_1
 62
7
100
AcDbPolyline
 90
38
 70
1
 10
79.728217
 20
67.088360
 30
0.0
 10
79.165847
 20
67.207860
 30
0.0
 10
78.640646
 20
67.441660
 30
0.0
 10
78.175536
 20
67.779560
 30
0.0
 10
77.790856
 20
68.206860
 30
0.0
 10
77.503416
 20
68.704760
 30
0.0
 10
77.325746
 20
69.251460
 30
0.0
 10
77.265646
 20
69.823260
 30
0.0
 10
77.318246
 20
70.323260
 30
0.0
 10
77.265646
 20
70.823270
 30
0.0
 10
77.318246
 20
71.323270
 30
0.0
 10
77.265646
 20
71.823270
 30
0.0
 10
77.325746
 20
72.394970
 30
0.0
 10
77.503416
 20
72.941770
 30
0.0
 10
77.790856
 20
73.439670
 30
0.0
 10
78.175536
 20
73.866870
 30
0.0
 10
78.640676
 20
74.204870
 30
0.0
 10
79.165847
 20
74.438670
 30
0.0
 10
79.728217
 20
74.558170
 30
0.0
 10
80.303103
 20
74.558170
 30
0.0
 10
80.865443
 20
74.438670
 30
0.0
 10
81.390643
 20
74.204870
 30
0.0
 10
81.855753
 20
73.866870
 30
0.0
 10
82.240433
 20
73.439670
 30
0.0
 10
82.527903
 20
72.941770
 30
0.0
 10
82.705543
 20
72.394970
 30
0.0
 10
82.765643
 20
71.823270
 30
0.0
 10
82.713143
 20
71.323270
 30
0.0
 10
82.765643
 20
70.823270
 30
0.0
 10
82.713143
 20
70.323260
 30
0.0
 10
82.765643
 20
69.823260
 30
0.0
 10
82.705543
 20
69.251460
 30
0.0
 10
82.527903
 20
68.704760
 30
0.0
 10
82.240433
 20
68.206860
 30
0.0
 10
81.855753
 20
67.779560
 30
0.0
 10
81.390643
 20
67.441660
 30
0.0
 10
80.865443
 20
67.207860
 30
0.0
 10
80.303103
 20
67.088360
 30
0.0
  0
LWPOLYLINE
  5
108
100
AcDbEntity
  8
Layer_1
 62
7
100
AcDbPolyline
 90
30
 70
1
 10
105.665460
 20
67.491660
 30
0.0
 10
104.980460
 20
67.637260
 30
0.0
 10
104.340670
 20
67.922060
 30
0.0
 10
103.774060
 20
68.333760
 30
0.0
 10
103.305460
 20
68.854160
 30
0.0
 10
102.955230
 20
69.460660
 30
0.0
 10
102.738850
 20
70.126760
 30
0.0
 10
102.665650
 20
70.823270
 30
0.0
 10
102.738850
 20
71.519770
 30
0.0
 10
102.955230
 20
72.185870
 30
0.0
 10
103.305460
 20
72.792370
 30
0.0
 10
103.774060
 20
73.312770
 30
0.0
 10
104.340670
 20
73.724470
 30
0.0
 10
104.980460
 20
74.009270
 30
0.0
 10
105.665460
 20
74.154870
 30
0.0
 10
106.365870
 20
74.154870
 30
0.0
 10
107.050850
 20
74.009270
 30
0.0
 10
107.690660
 20
73.724470
 30
0.0
 10
108.257270
 20
73.312770
 30
0.0
 10
108.725850
 20
72.792370
 30
0.0
 10
109.076050
 20
72.185870
 30
0.0
 10
109.292450
 20
71.519770
 30
0.0
 10
109.365650
 20
70.823270
 30
0.0
 10
109.292450
 20
70.126760
 30
0.0
 10
109.076050
 20
69.460660
 30
0.0
 10
108.725850
 20
68.854160
 30
0.0
 10
108.257270
 20
68.333760
 30
0.0
 10
107.690660
 20
67.922060
 30
0.0
 10
107.050850
 20
67.637260
 30
0.0
 10
106.365870
 20
67.491660
 30
0.0
  0
LWPOLYLINE
  5
109
100
AcDbEntity
  8
Layer_1
 62
7
100
AcDbPolyline
 90
30
 70
1
 10
53.665448
 20
67.491660
 30
0.0
 10
52.980472
 20
67.637260
 30
0.0
 10
52.340652
 20
67.922060
 30
0.0
 10
51.774051
 20
68.333760
 30
0.0
 10
51.305471
 20
68.854160
 30
0.0
 10
50.955271
 20
69.460660
 30
0.0
 10
50.738871
 20
70.126760
 30
0.0
 10
50.665671
 20
70.823270
 30
0.0
 10
50.738871
 20
71.519770
 30
0.0
 10
50.955271
 20
72.185870
 30
0.0
 10
51.305471
 20
72.792370
 30
0.0
 10
51.774051
 20
73.312770
 30
0.0
 10
52.340652
 20
73.724470
 30
0.0
 10
52.980472
 20
74.009270
 30
0.0
 10
53.665448
 20
74.154870
 30
0.0
 10
54.365848
 20
74.154870
 30
0.0
 10
55.050858
 20
74.009270
 30
0.0
 10
55.690648
 20
73.724470
 30
0.0
 10
56.257248
 20
73.312770
 30
0.0
 10
56.725858
 20
72.792370
 30
0.0
 10
57.076058
 20
72.185870
 30
0.0
 10
57.292458
 20
71.519770
 30
0.0
 10
57.365658
 20
70.823270
 30
0.0
 10
57.292458
 20
70.126760
 30
0.0
 10
57.076058
 20
69.460660
 30
0.0
 10
56.725858
 20
68.854160
 30
0.0
 10
56.257248
 20
68.333760
 30
0.0
 10
55.690648
 20
67.922060
 30
0.0
 10
55.050858
 20
67.637260
 30
0.0
 10
54.365848
 20
67.491660
 30
0.0
  0
LWPOLYLINE
  5
10a
100
AcDbEntity
  8
Layer_1
 62
7
100
AcDbPolyline
 90
34
 70
1
 10
79.665487
 20
25.436610
 30
0.0
 10
78.980457
 20
25.582210
 30
0.0
 10
78.340666
 20
25.867060
 30
0.0
 10
77.774086
 20
26.278730
 30
0.0
 10
77.305456
 20
26.799160
 30
0.0
 10
76.955276
 20
27.405690
 30
0.0
 10
76.738846
 20
28.071750
 30
0.0
 10
76.665646
 20
28.768240
 30
0.0
 10
76.738846
 20
29.464760
 30
0.0
 10
76.857406
 20
29.829490
 30
0.0
 10
76.982686
 20
29.893390
 30
0.0
 10
77.046686
 20
30.090190
 30
0.0
 10
77.386416
 20
30.678570
 30
0.0
 10
77.841016
 20
31.183500
 30
0.0
 10
78.390716
 20
31.582860
 30
0.0
 10
79.011407
 20
31.859220
 30
0.0
 10
79.675987
 20
32.000450
 30
0.0
 10
80.355403
 20
32.000450
 30
0.0
 10
81.019983
 20
31.859220
 30
0.0
 10
81.640703
 20
31.582860
 30
0.0
 10
82.190373
 20
31.183500
 30
0.0
 10
82.645003
 20
30.678570
 30
0.0
 10
82.984703
 20
30.090190
 30
0.0
 10
83.194703
 20
29.444000
 30
0.0
 10
83.204703
 20
29.353900
 30
0.0
 10
83.310373
 20
29.300100
 30
0.0
 10
83.366273
 20
28.768250
 30
0.0
 10
83.293073
 20
28.071760
 30
0.0
 10
83.076653
 20
27.405700
 30
0.0
 10
82.726503
 20
26.799170
 30
0.0
 10
82.257873
 20
26.278740
 30
0.0
 10
81.691263
 20
25.867070
 30
0.0
 10
81.051473
 20
25.582220
 30
0.0
 10
80.366413
 20
25.436620
 30
0.0
  0
LWPOLYLINE
  5
10b
100
AcDbEntity
  8
Layer_1
 62
7
100
AcDbPolyline
 90
24
 70
1
 10
79.949724
 20
87.855710
 30
0.0
 10
81.211023
 20
88.417210
 30
0.0
 10
82.327933
 20
89.228710
 30
0.0
 10
83.251723
 20
90.254710
 30
0.0
 10
83.942123
 20
91.450410
 30
0.0
 10
84.368714
 20
92.763410
 30
0.0
 10
84.513024
 20
94.136510
 30
0.0
 10
84.368714
 20
95.509500
 30
0.0
 10
83.942123
 20
96.822600
 30
0.0
 10
83.251723
 20
98.018200
 30
0.0
 10
82.327933
 20
99.044200
 30
0.0
 10
82.074623
 20
99.228300
 30
0.0
 10
82.074623
 20
125.754400
 30
0.0
 10
51.086611
 20
125.754400
 30
0.0
 10
51.086611
 20
93.445610
 30
0.0
 10
71.377629
 20
93.445610
 30
0.0
 10
71.449329
 20
92.763410
 30
0.0
 10
71.875889
 20
91.450410
 30
0.0
 10
72.566189
 20
90.254710
 30
0.0
 10
73.490079
 20
89.228710
 30
0.0
 10
74.607000
 20
88.417210
 30
0.0
 10
75.868206
 20
87.855710
 30
0.0
 10
77.218726
 20
87.568710
 30
0.0
 10
78.599286
 20
87.568710
 30
0.0
  0
LWPOLYLINE
  5
10c
100
AcDbEntity
  8
Layer_1
 62
7
100
AcDbPolyline
 90
30
 70
1
 10
61.029965
 20
112.435000
 30
0.0
 10
60.447215
 20
112.558900
 30
0.0
 10
59.902945
 20
112.801200
 30
0.0
 10
59.420955
 20
113.151400
 30
0.0
 10
59.022275
 20
113.594200
 30
0.0
 10
58.724389
 20
114.110100
 30
0.0
 10
58.540289
 20
114.676700
 30
0.0
 10
58.477989
 20
115.269300
 30
0.0
 10
58.540289
 20
115.861800
 30
0.0
 10
58.724389
 20
116.428400
 30
0.0
 10
59.022275
 20
116.944400
 30
0.0
 10
59.420955
 20
117.387200
 30
0.0
 10
59.902945
 20
117.737300
 30
0.0
 10
60.447215
 20
117.979700
 30
0.0
 10
61.029965
 20
118.103600
 30
0.0
 10
61.625805
 20
118.103600
 30
0.0
 10
62.208495
 20
117.979700
 30
0.0
 10
62.752795
 20
117.737300
 30
0.0
 10
63.234816
 20
117.387200
 30
0.0
 10
63.633516
 20
116.944400
 30
0.0
 10
63.931406
 20
116.428400
 30
0.0
 10
64.115502
 20
115.861800
 30
0.0
 10
64.177802
 20
115.269300
 30
0.0
 10
64.115502
 20
114.676700
 30
0.0
 10
63.931406
 20
114.110100
 30
0.0
 10
63.633516
 20
113.594200
 30
0.0
 10
63.234816
 20
113.151400
 30
0.0
 10
62.752795
 20
112.801200
 30
0.0
 10
62.208495
 20
112.558900
 30
0.0
 10
61.625805
 20
112.435000
 30
0.0
  0
LWPOLYLINE
  5
10d
100
AcDbEntity
  8
Layer_1
 62
7
100
AcDbPolyline
 90
30
 70
1
 10
77.907226
 20
113.095200
 30
0.0
 10
77.426816
 20
113.197300
 30
0.0
 10
76.978116
 20
113.397100
 30
0.0
 10
76.580736
 20
113.685800
 30
0.0
 10
76.252126
 20
114.050800
 30
0.0
 10
76.006506
 20
114.476200
 30
0.0
 10
75.854716
 20
114.943300
 30
0.0
 10
75.803316
 20
115.431800
 30
0.0
 10
75.854716
 20
115.920300
 30
0.0
 10
76.006506
 20
116.387500
 30
0.0
 10
76.252126
 20
116.812800
 30
0.0
 10
76.580736
 20
117.177900
 30
0.0
 10
76.978116
 20
117.466600
 30
0.0
 10
77.426816
 20
117.666300
 30
0.0
 10
77.907226
 20
117.768500
 30
0.0
 10
78.398426
 20
117.768500
 30
0.0
 10
78.878927
 20
117.666300
 30
0.0
 10
79.327617
 20
117.466600
 30
0.0
 10
79.725017
 20
117.177900
 30
0.0
 10
80.053623
 20
116.812800
 30
0.0
 10
80.299213
 20
116.387500
 30
0.0
 10
80.451033
 20
115.920300
 30
0.0
 10
80.502333
 20
115.431800
 30
0.0
 10
80.451033
 20
114.943300
 30
0.0
 10
80.299213
 20
114.476200
 30
0.0
 10
80.053623
 20
114.050800
 30
0.0
 10
79.725017
 20
113.685800
 30
0.0
 10
79.327617
 20
113.397100
 30
0.0
 10
78.878927
 20
113.197300
 30
0.0
 10
78.398426
 20
113.095200
 30
0.0
  0
LWPOLYLINE
  5
10e
100
AcDbEntity
  8
Layer_1
 62
7
100
AcDbPolyline
 90
30
 70
1
 10
77.611126
 20
91.302210
 30
0.0
 10
77.028326
 20
91.426110
 30
0.0
 10
76.484026
 20
91.668410
 30
0.0
 10
76.002116
 20
92.018610
 30
0.0
 10
75.603416
 20
92.461410
 30
0.0
 10
75.305526
 20
92.977310
 30
0.0
 10
75.121426
 20
93.544010
 30
0.0
 10
75.059126
 20
94.136510
 30
0.0
 10
75.121426
 20
94.729010
 30
0.0
 10
75.305526
 20
95.295600
 30
0.0
 10
75.603416
 20
95.811600
 30
0.0
 10
76.002116
 20
96.254400
 30
0.0
 10
76.484026
 20
96.604500
 30
0.0
 10
77.028326
 20
96.846900
 30
0.0
 10
77.611126
 20
96.970700
 30
0.0
 10
78.206916
 20
96.970700
 30
0.0
 10
78.789636
 20
96.846900
 30
0.0
 10
79.333907
 20
96.604500
 30
0.0
 10
79.815927
 20
96.254400
 30
0.0
 10
80.214623
 20
95.811600
 30
0.0
 10
80.512523
 20
95.295600
 30
0.0
 10
80.696613
 20
94.729010
 30
0.0
 10
80.758913
 20
94.136510
 30
0.0
 10
80.696613
 20
93.544010
 30
0.0
 10
80.512523
 20
92.977310
 30
0.0
 10
80.214623
 20
92.461410
 30
0.0
 10
79.815927
 20
92.018610
 30
0.0
 10
79.333907
 20
91.668410
 30
0.0
 10
78.789636
 20
91.426110
 30
0.0
 10
78.206916
 20
91.302210
 30
0.0
  0
LWPOLYLINE
  5
10f
100
AcDbEntity
  8
Layer_1
 62
7
100
AcDbPolyline
 90
24
 70
1
 10
127.248430
 20
119.793330
 30
0.0
 10
127.501740
 20
119.977320
 30
0.0
 10
128.425530
 20
121.003320
 30
0.0
 10
129.115930
 20
122.199040
 30
0.0
 10
129.542520
 20
123.512020
 30
0.0
 10
129.686830
 20
124.885030
 30
0.0
 10
129.542520
 20
126.258120
 30
0.0
 10
129.115930
 20
127.571120
 30
0.0
 10
128.425530
 20
128.766820
 30
0.0
 10
127.501740
 20
129.792820
 30
0.0
 10
126.384830
 20
130.604320
 30
0.0
 10
125.123530
 20
131.165820
 30
0.0
 10
123.773120
 20
131.452920
 30
0.0
 10
122.392530
 20
131.452920
 30
0.0
 10
121.042020
 20
131.165820
 30
0.0
 10
119.780830
 20
130.604320
 30
0.0
 10
118.663910
 20
129.792820
 30
0.0
 10
117.740020
 20
128.766820
 30
0.0
 10
117.049720
 20
127.571120
 30
0.0
 10
116.623130
 20
126.258120
 30
0.0
 10
116.536530
 20
125.433720
 30
0.0
 10
96.260404
 20
125.433720
 30
0.0
 10
96.260404
 20
93.124940
 30
0.0
 10
127.248430
 20
93.124940
 30
0.0
  0
LWPOLYLINE
  5
110
100
AcDbEntity
  8
Layer_1
 62
7
100
AcDbPolyline
 90
30
 70
1
 10
122.784930
 20
122.050840
 30
0.0
 10
122.202130
 20
122.174710
 30
0.0
 10
121.657830
 20
122.417030
 30
0.0
 10
121.175920
 20
122.767230
 30
0.0
 10
120.777220
 20
123.209920
 30
0.0
 10
120.479330
 20
123.725910
 30
0.0
 10
120.295230
 20
124.292520
 30
0.0
 10
120.232930
 20
124.885030
 30
0.0
 10
120.295230
 20
125.477610
 30
0.0
 10
120.479330
 20
126.044220
 30
0.0
 10
120.777220
 20
126.560220
 30
0.0
 10
121.175920
 20
127.002920
 30
0.0
 10
121.657830
 20
127.353120
 30
0.0
 10
122.202130
 20
127.595520
 30
0.0
 10
122.784930
 20
127.719320
 30
0.0
 10
123.380720
 20
127.719320
 30
0.0
 10
123.963410
 20
127.595520
 30
0.0
 10
124.507710
 20
127.353120
 30
0.0
 10
124.989730
 20
127.002920
 30
0.0
 10
125.388430
 20
126.560220
 30
0.0
 10
125.686330
 20
126.044220
 30
0.0
 10
125.870420
 20
125.477610
 30
0.0
 10
125.932720
 20
124.885030
 30
0.0
 10
125.870420
 20
124.292520
 30
0.0
 10
125.686330
 20
123.725910
 30
0.0
 10
125.388430
 20
123.209920
 30
0.0
 10
124.989730
 20
122.767230
 30
0.0
 10
124.507710
 20
122.417030
 30
0.0
 10
123.963410
 20
122.174710
 30
0.0
 10
123.380720
 20
122.050840
 30
0.0
  0
LWPOLYLINE
  5
111
100
AcDbEntity
  8
Layer_1
 62
7
100
AcDbPolyline
 90
30
 70
1
 10
106.264690
 20
114.796530
 30
0.0
 10
105.681970
 20
114.920430
 30
0.0
 10
105.137700
 20
115.162740
 30
0.0
 10
104.655680
 20
115.512940
 30
0.0
 10
104.257030
 20
115.955740
 30
0.0
 10
103.959140
 20
116.471730
 30
0.0
 10
103.775040
 20
117.038340
 30
0.0
 10
103.712740
 20
117.630820
 30
0.0
 10
103.775040
 20
118.223320
 30
0.0
 10
103.959140
 20
118.790030
 30
0.0
 10
104.257030
 20
119.305910
 30
0.0
 10
104.655680
 20
119.748720
 30
0.0
 10
105.137700
 20
120.098920
 30
0.0
 10
105.681970
 20
120.341230
 30
0.0
 10
106.264690
 20
120.465140
 30
0.0
 10
106.860510
 20
120.465140
 30
0.0
 10
107.443330
 20
120.341230
 30
0.0
 10
107.987610
 20
120.098920
 30
0.0
 10
108.469600
 20
119.748720
 30
0.0
 10
108.868220
 20
119.305910
 30
0.0
 10
109.166090
 20
118.790030
 30
0.0
 10
109.350210
 20
118.223320
 30
0.0
 10
109.412510
 20
117.630820
 30
0.0
 10
109.350210
 20
117.038340
 30
0.0
 10
109.166090
 20
116.471730
 30
0.0
 10
108.868220
 20
115.955740
 30
0.0
 10
108.469600
 20
115.512940
 30
0.0
 10
107.987610
 20
115.162740
 30
0.0
 10
107.443330
 20
114.920430
 30
0.0
 10
106.860510
 20
114.796530
 30
0.0
  0
LWPOLYLINE
  5
112
100
AcDbEntity
  8
Layer_1
 62
7
100
AcDbPolyline
 90
30
 70
1
 10
123.020120
 20
101.090560
 30
0.0
 10
122.539640
 20
101.192660
 30
0.0
 10
122.090930
 20
101.392450
 30
0.0
 10
121.693630
 20
101.681130
 30
0.0
 10
121.364940
 20
102.046150
 30
0.0
 10
121.119330
 20
102.471520
 30
0.0
 10
120.967540
 20
102.938690
 30
0.0
 10
120.916240
 20
103.427140
 30
0.0
 10
120.967540
 20
103.915640
 30
0.0
 10
121.119330
 20
104.382840
 30
0.0
 10
121.364940
 20
104.808130
 30
0.0
 10
121.693630
 20
105.173130
 30
0.0
 10
122.090930
 20
105.461920
 30
0.0
 10
122.539640
 20
105.661630
 30
0.0
 10
123.020120
 20
105.763840
 30
0.0
 10
123.511320
 20
105.763840
 30
0.0
 10
123.991720
 20
105.661630
 30
0.0
 10
124.440430
 20
105.461920
 30
0.0
 10
124.837830
 20
105.173130
 30
0.0
 10
125.166530
 20
104.808130
 30
0.0
 10
125.412030
 20
104.382840
 30
0.0
 10
125.563820
 20
103.915640
 30
0.0
 10
125.615220
 20
103.427140
 30
0.0
 10
125.563820
 20
102.938690
 30
0.0
 10
125.412030
 20
102.471520
 30
0.0
 10
125.166530
 20
102.046150
 30
0.0
 10
124.837830
 20
101.681130
 30
0.0
 10
124.440430
 20
101.392450
 30
0.0
 10
123.991720
 20
101.192660
 30
0.0
 10
123.511320
 20
101.090560
 30
0.0
  0
LWPOLYLINE
  5
113
100
AcDbEntity
  8
Layer_1
 62
7
100
AcDbPolyline
 90
5
 70
1
 10
144.849830
 20
198.301016
 30
0.0
 10
119.160010
 20
198.301016
 30
0.0
 10
103.848860
 20
171.264930
 30
0.0
 10
103.848860
 20
136.544850
 30
0.0
 10
144.849830
 20
136.544850
 30
0.0
  0
LWPOLYLINE
  5
114
100
AcDbEntity
  8
Layer_1
 62
7
100
AcDbPolyline
 90
30
 70
1
 10
139.703850
 20
186.278400
 30
0.0
 10
139.286310
 20
186.368700
 30
0.0
 10
138.896200
 20
186.545280
 30
0.0
 10
138.550790
 20
186.801230
 30
0.0
 10
138.265120
 20
187.124630
 30
0.0
 10
138.051600
 20
187.501610
 30
0.0
 10
137.919710
 20
187.916280
 30
0.0
 10
137.875010
 20
188.348820
 30
0.0
 10
137.919710
 20
188.781350
 30
0.0
 10
138.051600
 20
189.196030
 30
0.0
 10
138.265120
 20
189.573010
 30
0.0
 10
138.550790
 20
189.896410
 30
0.0
 10
138.896200
 20
190.152370
 30
0.0
 10
139.286310
 20
190.328950
 30
0.0
 10
139.703850
 20
190.419250
 30
0.0
 10
140.130910
 20
190.419250
 30
0.0
 10
140.548450
 20
190.328950
 30
0.0
 10
140.938550
 20
190.152370
 30
0.0
 10
141.283990
 20
189.896410
 30
0.0
 10
141.569630
 20
189.573010
 30
0.0
 10
141.783150
 20
189.196030
 30
0.0
 10
141.915050
 20
188.781350
 30
0.0
 10
141.959750
 20
188.348820
 30
0.0
 10
141.915050
 20
187.916280
 30
0.0
 10
141.783150
 20
187.501610
 30
0.0
 10
141.569630
 20
187.124630
 30
0.0
 10
141.283990
 20
186.801230
 30
0.0
 10
140.938550
 20
186.545280
 30
0.0
 10
140.548450
 20
186.368700
 30
0.0
 10
140.130910
 20
186.278400
 30
0.0
  0
LWPOLYLINE
  5
115
100
AcDbEntity
  8
Layer_1
 62
7
100
AcDbPolyline
 90
30
 70
1
 10
118.278570
 20
186.278400
 30
0.0
 10
117.860930
 20
186.368700
 30
0.0
 10
117.470880
 20
186.545290
 30
0.0
 10
117.125470
 20
186.801230
 30
0.0
 10
116.839770
 20
187.124640
 30
0.0
 10
116.626280
 20
187.501610
 30
0.0
 10
116.494330
 20
187.916280
 30
0.0
 10
116.449630
 20
188.348830
 30
0.0
 10
116.494330
 20
188.781360
 30
0.0
 10
116.626280
 20
189.196030
 30
0.0
 10
116.839770
 20
189.573010
 30
0.0
 10
117.125470
 20
189.896420
 30
0.0
 10
117.470880
 20
190.152370
 30
0.0
 10
117.860930
 20
190.328960
 30
0.0
 10
118.278570
 20
190.419260
 30
0.0
 10
118.705530
 20
190.419260
 30
0.0
 10
119.123180
 20
190.328960
 30
0.0
 10
119.513230
 20
190.152370
 30
0.0
 10
119.858640
 20
189.896420
 30
0.0
 10
120.144340
 20
189.573010
 30
0.0
 10
120.357830
 20
189.196030
 30
0.0
 10
120.489780
 20
188.781360
 30
0.0
 10
120.534480
 20
188.348830
 30
0.0
 10
120.489780
 20
187.916280
 30
0.0
 10
120.357830
 20
187.501610
 30
0.0
 10
120.144340
 20
187.124640
 30
0.0
 10
119.858640
 20
186.801230
 30
0.0
 10
119.513230
 20
186.545290
 30
0.0
 10
119.123180
 20
186.368700
 30
0.0
 10
118.705530
 20
186.278400
 30
0.0
  0
LWPOLYLINE
  5
116
100
AcDbEntity
  8
Layer_1
 62
7
100
AcDbPolyline
 90
30
 70
1
 10
139.944930
 20
169.972200
 30
0.0
 10
139.621850
 20
170.042300
 30
0.0
 10
139.320090
 20
170.179200
 30
0.0
 10
139.052920
 20
170.377120
 30
0.0
 10
138.831880
 20
170.627410
 30
0.0
 10
138.666680
 20
170.918970
 30
0.0
 10
138.564600
 20
171.239210
 30
0.0
 10
138.530100
 20
171.574130
 30
0.0
 10
138.564600
 20
171.909030
 30
0.0
 10
138.666680
 20
172.229270
 30
0.0
 10
138.831880
 20
172.520830
 30
0.0
 10
139.052920
 20
172.771120
 30
0.0
 10
139.320090
 20
172.969040
 30
0.0
 10
139.621850
 20
173.105930
 30
0.0
 10
139.944930
 20
173.176030
 30
0.0
 10
140.275160
 20
173.176030
 30
0.0
 10
140.598270
 20
173.105930
 30
0.0
 10
140.900030
 20
172.969040
 30
0.0
 10
141.167180
 20
172.771120
 30
0.0
 10
141.388240
 20
172.520830
 30
0.0
 10
141.553440
 20
172.229270
 30
0.0
 10
141.655390
 20
171.909030
 30
0.0
 10
141.689990
 20
171.574130
 30
0.0
 10
141.655390
 20
171.239210
 30
0.0
 10
141.553440
 20
170.918970
 30
0.0
 10
141.388240
 20
170.627410
 30
0.0
 10
141.167180
 20
170.377120
 30
0.0
 10
140.900030
 20
170.179200
 30
0.0
 10
140.598270
 20
170.042300
 30
0.0
 10
140.275160
 20
169.972200
 30
0.0
  0
LWPOLYLINE
  5
117
100
AcDbEntity
  8
Layer_1
 62
7
100
AcDbPolyline
 90
30
 70
1
 10
123.481630
 20
144.531520
 30
0.0
 10
121.130780
 20
145.040930
 30
0.0
 10
118.935190
 20
146.037550
 30
0.0
 10
116.990850
 20
147.477710
 30
0.0
 10
115.382680
 20
149.298500
 30
0.0
 10
114.181030
 20
151.420400
 30
0.0
 10
113.438340
 20
153.750620
 30
0.0
 10
113.187120
 20
156.187390
 30
0.0
 10
113.438340
 20
158.624150
 30
0.0
 10
114.181030
 20
160.954380
 30
0.0
 10
115.382680
 20
163.076270
 30
0.0
 10
116.990850
 20
164.897080
 30
0.0
 10
118.935190
 20
166.337230
 30
0.0
 10
121.130780
 20
167.333850
 30
0.0
 10
123.481630
 20
167.843260
 30
0.0
 10
125.885000
 20
167.843260
 30
0.0
 10
128.235820
 20
167.333850
 30
0.0
 10
130.431420
 20
166.337230
 30
0.0
 10
132.375730
 20
164.897080
 30
0.0
 10
133.983920
 20
163.076270
 30
0.0
 10
135.185610
 20
160.954380
 30
0.0
 10
135.928240
 20
158.624150
 30
0.0
 10
136.179520
 20
156.187390
 30
0.0
 10
135.928240
 20
153.750620
 30
0.0
 10
135.185610
 20
151.420400
 30
0.0
 10
133.983920
 20
149.298500
 30
0.0
 10
132.375730
 20
147.477710
 30
0.0
 10
130.431420
 20
146.037550
 30
0.0
 10
128.235820
 20
145.040930
 30
0.0
 10
125.885000
 20
144.531520
 30
0.0
  0
LWPOLYLINE
  5
118
100
AcDbEntity
  8
Layer_1
 62
7
100
AcDbPolyline
 90
30
 70
1
 10
109.438240
 20
139.395290
 30
0.0
 10
109.115150
 20
139.465390
 30
0.0
 10
108.813420
 20
139.602300
 30
0.0
 10
108.546220
 20
139.800200
 30
0.0
 10
108.325190
 20
140.050500
 30
0.0
 10
108.160060
 20
140.342070
 30
0.0
 10
108.057990
 20
140.662310
 30
0.0
 10
108.023390
 20
140.997220
 30
0.0
 10
108.057990
 20
141.332130
 30
0.0
 10
108.160060
 20
141.652370
 30
0.0
 10
108.325190
 20
141.943930
 30
0.0
 10
108.546220
 20
142.194220
 30
0.0
 10
108.813420
 20
142.392140
 30
0.0
 10
109.115150
 20
142.529030
 30
0.0
 10
109.438240
 20
142.599130
 30
0.0
 10
109.768540
 20
142.599130
 30
0.0
 10
110.091630
 20
142.529030
 30
0.0
 10
110.393330
 20
142.392140
 30
0.0
 10
110.660560
 20
142.194220
 30
0.0
 10
110.881570
 20
141.943930
 30
0.0
 10
111.046720
 20
141.652370
 30
0.0
 10
111.148770
 20
141.332130
 30
0.0
 10
111.183270
 20
140.997220
 30
0.0
 10
111.148770
 20
140.662310
 30
0.0
 10
111.046720
 20
140.342070
 30
0.0
 10
110.881570
 20
140.050500
 30
0.0
 10
110.660560
 20
139.800200
 30
0.0
 10
110.393330
 20
139.602300
 30
0.0
 10
110.091630
 20
139.465390
 30
0.0
 10
109.768540
 20
139.395290
 30
0.0
  0
LWPOLYLINE
  5
119
100
AcDbEntity
  8
Layer_1
 62
7
100
AcDbPolyline
 90
5
 70
1
 10
98.453294
 20
170.152850
 30
0.0
 10
83.142163
 20
197.188846
 30
0.0
 10
57.452348
 20
197.188846
 30
0.0
 10
57.452348
 20
135.432880
 30
0.0
 10
98.453294
 20
135.432880
 30
0.0
  0
LWPOLYLINE
  5
11a
100
AcDbEntity
  8
Layer_1
 62
7
100
AcDbPolyline
 90
30
 70
1
 10
83.596583
 20
185.166260
 30
0.0
 10
83.179013
 20
185.256560
 30
0.0
 10
82.788913
 20
185.433140
 30
0.0
 10
82.443503
 20
185.689090
 30
0.0
 10
82.157833
 20
186.012500
 30
0.0
 10
81.944313
 20
186.389480
 30
0.0
 10
81.812413
 20
186.804150
 30
0.0
 10
81.767713
 20
187.236680
 30
0.0
 10
81.812413
 20
187.669210
 30
0.0
 10
81.944313
 20
188.083890
 30
0.0
 10
82.157833
 20
188.460870
 30
0.0
 10
82.443503
 20
188.784270
 30
0.0
 10
82.788913
 20
189.040220
 30
0.0
 10
83.179013
 20
189.216800
 30
0.0
 10
83.596583
 20
189.307100
 30
0.0
 10
84.023623
 20
189.307100
 30
0.0
 10
84.441184
 20
189.216800
 30
0.0
 10
84.831264
 20
189.040220
 30
0.0
 10
85.176704
 20
188.784270
 30
0.0
 10
85.462340
 20
188.460870
 30
0.0
 10
85.675860
 20
188.083890
 30
0.0
 10
85.807780
 20
187.669210
 30
0.0
 10
85.852480
 20
187.236680
 30
0.0
 10
85.807780
 20
186.804150
 30
0.0
 10
85.675860
 20
186.389480
 30
0.0
 10
85.462340
 20
186.012500
 30
0.0
 10
85.176704
 20
185.689090
 30
0.0
 10
84.831264
 20
185.433140
 30
0.0
 10
84.441184
 20
185.256560
 30
0.0
 10
84.023623
 20
185.166260
 30
0.0
  0
LWPOLYLINE
  5
11b
100
AcDbEntity
  8
Layer_1
 62
7
100
AcDbPolyline
 90
30
 70
1
 10
62.171265
 20
185.166260
 30
0.0
 10
61.753705
 20
185.256560
 30
0.0
 10
61.363605
 20
185.433140
 30
0.0
 10
61.018185
 20
185.689090
 30
0.0
 10
60.732545
 20
186.012500
 30
0.0
 10
60.518995
 20
186.389480
 30
0.0
 10
60.387105
 20
186.804150
 30
0.0
 10
60.342405
 20
187.236680
 30
0.0
 10
60.387105
 20
187.669210
 30
0.0
 10
60.518995
 20
188.083890
 30
0.0
 10
60.732545
 20
188.460870
 30
0.0
 10
61.018185
 20
188.784270
 30
0.0
 10
61.363605
 20
189.040220
 30
0.0
 10
61.753705
 20
189.216800
 30
0.0
 10
62.171265
 20
189.307100
 30
0.0
 10
62.598305
 20
189.307100
 30
0.0
 10
63.015876
 20
189.216800
 30
0.0
 10
63.405946
 20
189.040220
 30
0.0
 10
63.751386
 20
188.784270
 30
0.0
 10
64.037036
 20
188.460870
 30
0.0
 10
64.250552
 20
188.083890
 30
0.0
 10
64.382472
 20
187.669210
 30
0.0
 10
64.427172
 20
187.236680
 30
0.0
 10
64.382472
 20
186.804150
 30
0.0
 10
64.250552
 20
186.389480
 30
0.0
 10
64.037036
 20
186.012500
 30
0.0
 10
63.751386
 20
185.689090
 30
0.0
 10
63.405946
 20
185.433140
 30
0.0
 10
63.015876
 20
185.256560
 30
0.0
 10
62.598305
 20
185.166260
 30
0.0
  0
LWPOLYLINE
  5
11c
100
AcDbEntity
  8
Layer_1
 62
7
100
AcDbPolyline
 90
30
 70
1
 10
62.026995
 20
168.860130
 30
0.0
 10
61.703905
 20
168.930230
 30
0.0
 10
61.402155
 20
169.067130
 30
0.0
 10
61.134975
 20
169.265040
 30
0.0
 10
60.913945
 20
169.515330
 30
0.0
 10
60.748735
 20
169.806890
 30
0.0
 10
60.646665
 20
170.127130
 30
0.0
 10
60.612165
 20
170.462040
 30
0.0
 10
60.646665
 20
170.796950
 30
0.0
 10
60.748735
 20
171.117190
 30
0.0
 10
60.913945
 20
171.408750
 30
0.0
 10
61.134975
 20
171.659040
 30
0.0
 10
61.402155
 20
171.856950
 30
0.0
 10
61.703905
 20
171.993860
 30
0.0
 10
62.026995
 20
172.063960
 30
0.0
 10
62.357215
 20
172.063960
 30
0.0
 10
62.680325
 20
171.993860
 30
0.0
 10
62.982056
 20
171.856950
 30
0.0
 10
63.249236
 20
171.659040
 30
0.0
 10
63.470266
 20
171.408750
 30
0.0
 10
63.635476
 20
171.117190
 30
0.0
 10
63.737546
 20
170.796950
 30
0.0
 10
63.772046
 20
170.462040
 30
0.0
 10
63.737546
 20
170.127130
 30
0.0
 10
63.635476
 20
169.806890
 30
0.0
 10
63.470266
 20
169.515330
 30
0.0
 10
63.249236
 20
169.265040
 30
0.0
 10
62.982056
 20
169.067130
 30
0.0
 10
62.680325
 20
168.930230
 30
0.0
 10
62.357215
 20
168.860130
 30
0.0
  0
LWPOLYLINE
  5
11d
100
AcDbEntity
  8
Layer_1
 62
7
100
AcDbPolyline
 90
30
 70
1
 10
76.417166
 20
143.419540
 30
0.0
 10
74.066350
 20
143.928950
 30
0.0
 10
71.870759
 20
144.925560
 30
0.0
 10
69.926409
 20
146.365710
 30
0.0
 10
68.318253
 20
148.186510
 30
0.0
 10
67.116542
 20
150.308390
 30
0.0
 10
66.373912
 20
152.638610
 30
0.0
 10
66.122662
 20
155.075370
 30
0.0
 10
66.373912
 20
157.512120
 30
0.0
 10
67.116542
 20
159.842340
 30
0.0
 10
68.318253
 20
161.964220
 30
0.0
 10
69.926409
 20
163.785030
 30
0.0
 10
71.870759
 20
165.225170
 30
0.0
 10
74.066350
 20
166.221780
 30
0.0
 10
76.417166
 20
166.731190
 30
0.0
 10
78.820537
 20
166.731190
 30
0.0
 10
81.171353
 20
166.221780
 30
0.0
 10
83.366953
 20
165.225170
 30
0.0
 10
85.311260
 20
163.785030
 30
0.0
 10
86.919450
 20
161.964220
 30
0.0
 10
88.121140
 20
159.842340
 30
0.0
 10
88.863770
 20
157.512120
 30
0.0
 10
89.115050
 20
155.075370
 30
0.0
 10
88.863770
 20
152.638610
 30
0.0
 10
88.121140
 20
150.308390
 30
0.0
 10
86.919450
 20
148.186510
 30
0.0
 10
85.311260
 20
146.365710
 30
0.0
 10
83.366953
 20
144.925560
 30
0.0
 10
81.171353
 20
143.928950
 30
0.0
 10
78.820537
 20
143.419540
 30
0.0
  0
LWPOLYLINE
  5
11e
100
AcDbEntity
  8
Layer_1
 62
7
100
AcDbPolyline
 90
30
 70
1
 10
92.533667
 20
138.283330
 30
0.0
 10
92.210557
 20
138.353430
 30
0.0
 10
91.908807
 20
138.490330
 30
0.0
 10
91.641627
 20
138.688240
 30
0.0
 10
91.420597
 20
138.938530
 30
0.0
 10
91.255387
 20
139.230100
 30
0.0
 10
91.153337
 20
139.550330
 30
0.0
 10
91.118837
 20
139.885250
 30
0.0
 10
91.153337
 20
140.220160
 30
0.0
 10
91.255387
 20
140.540390
 30
0.0
 10
91.420597
 20
140.831950
 30
0.0
 10
91.641627
 20
141.082250
 30
0.0
 10
91.908807
 20
141.280150
 30
0.0
 10
92.210557
 20
141.417060
 30
0.0
 10
92.533667
 20
141.487160
 30
0.0
 10
92.863867
 20
141.487160
 30
0.0
 10
93.186977
 20
141.417060
 30
0.0
 10
93.488737
 20
141.280150
 30
0.0
 10
93.755917
 20
141.082250
 30
0.0
 10
93.976947
 20
140.831950
 30
0.0
 10
94.142157
 20
140.540390
 30
0.0
 10
94.244207
 20
140.220160
 30
0.0
 10
94.278707
 20
139.885250
 30
0.0
 10
94.244207
 20
139.550330
 30
0.0
 10
94.142157
 20
139.230100
 30
0.0
 10
93.976947
 20
138.938530
 30
0.0
 10
93.755917
 20
138.688240
 30
0.0
 10
93.488737
 20
138.490330
 30
0.0
 10
93.186977
 20
138.353430
 30
0.0
 10
92.863867
 20
138.283330
 30
0.0
  0
LWPOLYLINE
  5
11f
100
AcDbEntity
  8
Layer_1
 62
7
100
AcDbPolyline
 90
4
 70
1
 10
18.753441
 20
0.246560
 30
0.0
 10
18.753441
 20
349.753441
 30
0.0
 10
0.246561
 20
349.753441
 30
0.0
 10
0.246561
 20
0.246560
 30
0.0
  0
LWPOLYLINE
  5
120
100
AcDbEntity
  8
Layer_1
 62
7
100
AcDbPolyline
 90
54
 70
1
 10
8.146471
 20
206.853673
 30
0.0
 10
8.226871
 20
207.241613
 30
0.0
 10
8.384251
 20
207.604043
 30
0.0
 10
8.611651
 20
207.924893
 30
0.0
 10
8.899171
 20
208.190194
 30
0.0
 10
9.234251
 20
208.388224
 30
0.0
 10
9.602251
 20
208.511054
 30
0.0
 10
9.987031
 20
208.552654
 30
0.0
 10
10.371791
 20
208.511054
 30
0.0
 10
10.474061
 20
208.477054
 30
0.0
 10
10.576301
 20
208.511054
 30
0.0
 10
10.961071
 20
208.552654
 30
0.0
 10
11.345841
 20
208.511054
 30
0.0
 10
11.448111
 20
208.477054
 30
0.0
 10
11.550351
 20
208.511054
 30
0.0
 10
11.935121
 20
208.552654
 30
0.0
 10
12.319871
 20
208.511054
 30
0.0
 10
12.422141
 20
208.477054
 30
0.0
 10
12.524411
 20
208.511054
 30
0.0
 10
12.909161
 20
208.552654
 30
0.0
 10
13.293911
 20
208.511054
 30
0.0
 10
13.661901
 20
208.388224
 30
0.0
 10
13.996991
 20
208.190194
 30
0.0
 10
14.284541
 20
207.924893
 30
0.0
 10
14.511871
 20
207.604043
 30
0.0
 10
14.669291
 20
207.241613
 30
0.0
 10
14.749691
 20
206.853673
 30
0.0
 10
14.749691
 20
206.457043
 30
0.0
 10
14.669291
 20
206.069103
 30
0.0
 10
14.511871
 20
205.706683
 30
0.0
 10
14.284541
 20
205.385823
 30
0.0
 10
13.996991
 20
205.120523
 30
0.0
 10
13.661901
 20
204.922493
 30
0.0
 10
13.293911
 20
204.799663
 30
0.0
 10
12.909161
 20
204.758063
 30
0.0
 10
12.524411
 20
204.799663
 30
0.0
 10
12.422141
 20
204.833663
 30
0.0
 10
12.319871
 20
204.799663
 30
0.0
 10
11.935121
 20
204.758063
 30
0.0
 10
11.550351
 20
204.799663
 30
0.0
 10
11.448111
 20
204.833663
 30
0.0
 10
11.345841
 20
204.799663
 30
0.0
 10
10.961071
 20
204.758063
 30
0.0
 10
10.576301
 20
204.799663
 30
0.0
 10
10.474061
 20
204.833663
 30
0.0
 10
10.371791
 20
204.799663
 30
0.0
 10
9.987031
 20
204.758063
 30
0.0
 10
9.602251
 20
204.799663
 30
0.0
 10
9.234251
 20
204.922493
 30
0.0
 10
8.899171
 20
205.120523
 30
0.0
 10
8.611651
 20
205.385823
 30
0.0
 10
8.384251
 20
205.706683
 30
0.0
 10
8.226871
 20
206.069103
 30
0.0
 10
8.146471
 20
206.457043
 30
0.0
  0
LWPOLYLINE
  5
121
100
AcDbEntity
  8
Layer_1
 62
7
100
AcDbPolyline
 90
54
 70
1
 10
8.146471
 20
222.831133
 30
0.0
 10
8.226871
 20
223.219063
 30
0.0
 10
8.384251
 20
223.581493
 30
0.0
 10
8.611651
 20
223.902353
 30
0.0
 10
8.899171
 20
224.167653
 30
0.0
 10
9.234251
 20
224.365683
 30
0.0
 10
9.602251
 20
224.488513
 30
0.0
 10
9.987031
 20
224.530113
 30
0.0
 10
10.371791
 20
224.488513
 30
0.0
 10
10.474061
 20
224.454513
 30
0.0
 10
10.576301
 20
224.488513
 30
0.0
 10
10.961071
 20
224.530113
 30
0.0
 10
11.345841
 20
224.488513
 30
0.0
 10
11.448111
 20
224.454513
 30
0.0
 10
11.550351
 20
224.488513
 30
0.0
 10
11.935121
 20
224.530113
 30
0.0
 10
12.319871
 20
224.488513
 30
0.0
 10
12.422141
 20
224.454513
 30
0.0
 10
12.524411
 20
224.488513
 30
0.0
 10
12.909161
 20
224.530113
 30
0.0
 10
13.293911
 20
224.488513
 30
0.0
 10
13.661901
 20
224.365683
 30
0.0
 10
13.996991
 20
224.167653
 30
0.0
 10
14.284541
 20
223.902353
 30
0.0
 10
14.511871
 20
223.581493
 30
0.0
 10
14.669291
 20
223.219063
 30
0.0
 10
14.749691
 20
222.831133
 30
0.0
 10
14.749691
 20
222.434503
 30
0.0
 10
14.669291
 20
222.046523
 30
0.0
 10
14.511871
 20
221.684103
 30
0.0
 10
14.284541
 20
221.363243
 30
0.0
 10
13.996991
 20
221.097943
 30
0.0
 10
13.661901
 20
220.899913
 30
0.0
 10
13.293911
 20
220.777083
 30
0.0
 10
12.909161
 20
220.735483
 30
0.0
 10
12.524411
 20
220.777083
 30
0.0
 10
12.422141
 20
220.811083
 30
0.0
 10
12.319871
 20
220.777083
 30
0.0
 10
11.935121
 20
220.735483
 30
0.0
 10
11.550351
 20
220.777083
 30
0.0
 10
11.448111
 20
220.811083
 30
0.0
 10
11.345841
 20
220.777083
 30
0.0
 10
10.961071
 20
220.735483
 30
0.0
 10
10.576301
 20
220.777083
 30
0.0
 10
10.474061
 20
220.811083
 30
0.0
 10
10.371791
 20
220.777083
 30
0.0
 10
9.987031
 20
220.735483
 30
0.0
 10
9.602251
 20
220.777083
 30
0.0
 10
9.234251
 20
220.899913
 30
0.0
 10
8.899171
 20
221.097943
 30
0.0
 10
8.611651
 20
221.363243
 30
0.0
 10
8.384251
 20
221.684103
 30
0.0
 10
8.226871
 20
222.046523
 30
0.0
 10
8.146471
 20
222.434503
 30
0.0
  0
LWPOLYLINE
  5
122
100
AcDbEntity
  8
Layer_1
 62
7
100
AcDbPolyline
 90
62
 70
1
 10
5.711351
 20
126.018100
 30
0.0
 10
5.791751
 20
126.405550
 30
0.0
 10
5.949131
 20
126.767980
 30
0.0
 10
6.176531
 20
127.088460
 30
0.0
 10
6.464051
 20
127.354140
 30
0.0
 10
6.799141
 20
127.552540
 30
0.0
 10
7.167101
 20
127.674610
 30
0.0
 10
7.551881
 20
127.716510
 30
0.0
 10
7.936641
 20
127.674610
 30
0.0
 10
8.038881
 20
127.640610
 30
0.0
 10
8.141151
 20
127.674610
 30
0.0
 10
8.525921
 20
127.716510
 30
0.0
 10
8.910691
 20
127.674610
 30
0.0
 10
9.012931
 20
127.640610
 30
0.0
 10
9.115201
 20
127.674610
 30
0.0
 10
9.499971
 20
127.716510
 30
0.0
 10
9.884741
 20
127.674610
 30
0.0
 10
9.986971
 20
127.640610
 30
0.0
 10
10.089241
 20
127.674610
 30
0.0
 10
10.474021
 20
127.716510
 30
0.0
 10
10.858791
 20
127.674610
 30
0.0
 10
10.961061
 20
127.640610
 30
0.0
 10
11.063291
 20
127.674610
 30
0.0
 10
11.448071
 20
127.716510
 30
0.0
 10
11.832841
 20
127.674610
 30
0.0
 10
12.200801
 20
127.552540
 30
0.0
 10
12.535881
 20
127.354140
 30
0.0
 10
12.823401
 20
127.088460
 30
0.0
 10
13.050731
 20
126.767980
 30
0.0
 10
13.208151
 20
126.405550
 30
0.0
 10
13.288651
 20
126.018100
 30
0.0
 10
13.288651
 20
125.620680
 30
0.0
 10
13.208151
 20
125.233200
 30
0.0
 10
13.050731
 20
124.870770
 30
0.0
 10
12.823401
 20
124.550290
 30
0.0
 10
12.535881
 20
124.284610
 30
0.0
 10
12.200801
 20
124.086200
 30
0.0
 10
11.832841
 20
123.964130
 30
0.0
 10
11.448071
 20
123.922230
 30
0.0
 10
11.063291
 20
123.964130
 30
0.0
 10
10.961061
 20
123.998130
 30
0.0
 10
10.858791
 20
123.964130
 30
0.0
 10
10.474021
 20
123.922230
 30
0.0
 10
10.089241
 20
123.964130
 30
0.0
 10
9.986971
 20
123.998130
 30
0.0
 10
9.884741
 20
123.964130
 30
0.0
 10
9.499971
 20
123.922230
 30
0.0
 10
9.115201
 20
123.964130
 30
0.0
 10
9.012931
 20
123.998130
 30
0.0
 10
8.910691
 20
123.964130
 30
0.0
 10
8.525921
 20
123.922230
 30
0.0
 10
8.141151
 20
123.964130
 30
0.0
 10
8.038881
 20
123.998130
 30
0.0
 10
7.936641
 20
123.964130
 30
0.0
 10
7.551881
 20
123.922230
 30
0.0
 10
7.167101
 20
123.964130
 30
0.0
 10
6.799141
 20
124.086200
 30
0.0
 10
6.464051
 20
124.284610
 30
0.0
 10
6.176531
 20
124.550290
 30
0.0
 10
5.949131
 20
124.870770
 30
0.0
 10
5.791751
 20
125.233200
 30
0.0
 10
5.711351
 20
125.620680
 30
0.0
  0
LWPOLYLINE
  5
123
100
AcDbEntity
  8
Layer_1
 62
7
100
AcDbPolyline
 90
62
 70
1
 10
5.711351
 20
302.768371
 30
0.0
 10
5.791751
 20
303.156311
 30
0.0
 10
5.949131
 20
303.518741
 30
0.0
 10
6.176531
 20
303.839591
 30
0.0
 10
6.464051
 20
304.104891
 30
0.0
 10
6.799141
 20
304.302931
 30
0.0
 10
7.167101
 20
304.425751
 30
0.0
 10
7.551881
 20
304.467351
 30
0.0
 10
7.936641
 20
304.425751
 30
0.0
 10
8.038881
 20
304.391751
 30
0.0
 10
8.141151
 20
304.425751
 30
0.0
 10
8.525921
 20
304.467351
 30
0.0
 10
8.910691
 20
304.425751
 30
0.0
 10
9.012931
 20
304.391751
 30
0.0
 10
9.115201
 20
304.425751
 30
0.0
 10
9.499971
 20
304.467351
 30
0.0
 10
9.884741
 20
304.425751
 30
0.0
 10
9.986971
 20
304.391751
 30
0.0
 10
10.089241
 20
304.425751
 30
0.0
 10
10.474021
 20
304.467351
 30
0.0
 10
10.858791
 20
304.425751
 30
0.0
 10
10.961061
 20
304.391751
 30
0.0
 10
11.063291
 20
304.425751
 30
0.0
 10
11.448071
 20
304.467351
 30
0.0
 10
11.832841
 20
304.425751
 30
0.0
 10
12.200801
 20
304.302931
 30
0.0
 10
12.535881
 20
304.104891
 30
0.0
 10
12.823401
 20
303.839591
 30
0.0
 10
13.050731
 20
303.518741
 30
0.0
 10
13.208151
 20
303.156311
 30
0.0
 10
13.288651
 20
302.768371
 30
0.0
 10
13.288651
 20
302.371741
 30
0.0
 10
13.208151
 20
301.983731
 30
0.0
 10
13.050731
 20
301.621301
 30
0.0
 10
12.823401
 20
301.300451
 30
0.0
 10
12.535881
 20
301.035141
 30
0.0
 10
12.200801
 20
300.837111
 30
0.0
 10
11.832841
 20
300.714291
 30
0.0
 10
11.448071
 20
300.672691
 30
0.0
 10
11.063291
 20
300.714291
 30
0.0
 10
10.961061
 20
300.748291
 30
0.0
 10
10.858791
 20
300.714291
 30
0.0
 10
10.474021
 20
300.672691
 30
0.0
 10
10.089241
 20
300.714291
 30
0.0
 10
9.986971
 20
300.748291
 30
0.0
 10
9.884741
 20
300.714291
 30
0.0
 10
9.499971
 20
300.672691
 30
0.0
 10
9.115201
 20
300.714291
 30
0.0
 10
9.012931
 20
300.748291
 30
0.0
 10
8.910691
 20
300.714291
 30
0.0
 10
8.525921
 20
300.672691
 30
0.0
 10
8.141151
 20
300.714291
 30
0.0
 10
8.038881
 20
300.748291
 30
0.0
 10
7.936641
 20
300.714291
 30
0.0
 10
7.551881
 20
300.672691
 30
0.0
 10
7.167101
 20
300.714291
 30
0.0
 10
6.799141
 20
300.837111
 30
0.0
 10
6.464051
 20
301.035141
 30
0.0
 10
6.176531
 20
301.300451
 30
0.0
 10
5.949131
 20
301.621301
 30
0.0
 10
5.791751
 20
301.983731
 30
0.0
 10
5.711351
 20
302.371741
 30
0.0
  0
LWPOLYLINE
  5
124
100
AcDbEntity
  8
Layer_1
 62
7
100
AcDbPolyline
 90
62
 70
1
 10
5.711351
 20
150.982890
 30
0.0
 10
5.791751
 20
151.370380
 30
0.0
 10
5.949131
 20
151.732800
 30
0.0
 10
6.176531
 20
152.053280
 30
0.0
 10
6.464051
 20
152.318960
 30
0.0
 10
6.799141
 20
152.517370
 30
0.0
 10
7.167101
 20
152.639440
 30
0.0
 10
7.551881
 20
152.681340
 30
0.0
 10
7.936641
 20
152.639440
 30
0.0
 10
8.038881
 20
152.605440
 30
0.0
 10
8.141151
 20
152.639440
 30
0.0
 10
8.525921
 20
152.681340
 30
0.0
 10
8.910691
 20
152.639440
 30
0.0
 10
9.012931
 20
152.605440
 30
0.0
 10
9.115201
 20
152.639440
 30
0.0
 10
9.499971
 20
152.681340
 30
0.0
 10
9.884741
 20
152.639440
 30
0.0
 10
9.986971
 20
152.605440
 30
0.0
 10
10.089241
 20
152.639440
 30
0.0
 10
10.474021
 20
152.681340
 30
0.0
 10
10.858791
 20
152.639440
 30
0.0
 10
10.961061
 20
152.605440
 30
0.0
 10
11.063291
 20
152.639440
 30
0.0
 10
11.448071
 20
152.681340
 30
0.0
 10
11.832841
 20
152.639440
 30
0.0
 10
12.200801
 20
152.517370
 30
0.0
 10
12.535881
 20
152.318960
 30
0.0
 10
12.823401
 20
152.053280
 30
0.0
 10
13.050731
 20
151.732800
 30
0.0
 10
13.208151
 20
151.370380
 30
0.0
 10
13.288651
 20
150.982890
 30
0.0
 10
13.288651
 20
150.585430
 30
0.0
 10
13.208151
 20
150.197990
 30
0.0
 10
13.050731
 20
149.835560
 30
0.0
 10
12.823401
 20
149.515080
 30
0.0
 10
12.535881
 20
149.249400
 30
0.0
 10
12.200801
 20
149.050990
 30
0.0
 10
11.832841
 20
148.928920
 30
0.0
 10
11.448071
 20
148.886920
 30
0.0
 10
11.063291
 20
148.928920
 30
0.0
 10
10.961061
 20
148.962920
 30
0.0
 10
10.858791
 20
148.928920
 30
0.0
 10
10.474021
 20
148.886920
 30
0.0
 10
10.089241
 20
148.928920
 30
0.0
 10
9.986971
 20
148.962920
 30
0.0
 10
9.884741
 20
148.928920
 30
0.0
 10
9.499971
 20
148.886920
 30
0.0
 10
9.115201
 20
148.928920
 30
0.0
 10
9.012931
 20
148.962920
 30
0.0
 10
8.910691
 20
148.928920
 30
0.0
 10
8.525921
 20
148.886920
 30
0.0
 10
8.141151
 20
148.928920
 30
0.0
 10
8.038881
 20
148.962920
 30
0.0
 10
7.936641
 20
148.928920
 30
0.0
 10
7.551881
 20
148.886920
 30
0.0
 10
7.167101
 20
148.928920
 30
0.0
 10
6.799141
 20
149.050990
 30
0.0
 10
6.464051
 20
149.249400
 30
0.0
 10
6.176531
 20
149.515080
 30
0.0
 10
5.949131
 20
149.835560
 30
0.0
 10
5.791751
 20
150.197990
 30
0.0
 10
5.711351
 20
150.585430
 30
0.0
  0
LWPOLYLINE
  5
125
100
AcDbEntity
  8
Layer_1
 62
7
100
AcDbPolyline
 90
62
 70
1
 10
5.711351
 20
277.803551
 30
0.0
 10
5.791751
 20
278.191561
 30
0.0
 10
5.949131
 20
278.553991
 30
0.0
 10
6.176531
 20
278.874841
 30
0.0
 10
6.464051
 20
279.140141
 30
0.0
 10
6.799141
 20
279.338181
 30
0.0
 10
7.167101
 20
279.461001
 30
0.0
 10
7.551881
 20
279.502601
 30
0.0
 10
7.936641
 20
279.461001
 30
0.0
 10
8.038881
 20
279.427001
 30
0.0
 10
8.141151
 20
279.461001
 30
0.0
 10
8.525921
 20
279.502601
 30
0.0
 10
8.910691
 20
279.461001
 30
0.0
 10
9.012931
 20
279.427001
 30
0.0
 10
9.115201
 20
279.461001
 30
0.0
 10
9.499971
 20
279.502601
 30
0.0
 10
9.884741
 20
279.461001
 30
0.0
 10
9.986971
 20
279.427001
 30
0.0
 10
10.089241
 20
279.461001
 30
0.0
 10
10.474021
 20
279.502601
 30
0.0
 10
10.858791
 20
279.461001
 30
0.0
 10
10.961061
 20
279.427001
 30
0.0
 10
11.063291
 20
279.461001
 30
0.0
 10
11.448071
 20
279.502601
 30
0.0
 10
11.832841
 20
279.461001
 30
0.0
 10
12.200801
 20
279.338181
 30
0.0
 10
12.535881
 20
279.140141
 30
0.0
 10
12.823401
 20
278.874841
 30
0.0
 10
13.050731
 20
278.553991
 30
0.0
 10
13.208151
 20
278.191561
 30
0.0
 10
13.288651
 20
277.803551
 30
0.0
 10
13.288651
 20
277.406921
 30
0.0
 10
13.208151
 20
277.018941
 30
0.0
 10
13.050731
 20
276.656511
 30
0.0
 10
12.823401
 20
276.335661
 30
0.0
 10
12.535881
 20
276.070361
 30
0.0
 10
12.200801
 20
275.872331
 30
0.0
 10
11.832841
 20
275.749881
 30
0.0
 10
11.448071
 20
275.708281
 30
0.0
 10
11.063291
 20
275.749881
 30
0.0
 10
10.961061
 20
275.783881
 30
0.0
 10
10.858791
 20
275.749881
 30
0.0
 10
10.474021
 20
275.708281
 30
0.0
 10
10.089241
 20
275.749881
 30
0.0
 10
9.986971
 20
275.783881
 30
0.0
 10
9.884741
 20
275.749881
 30
0.0
 10
9.499971
 20
275.708281
 30
0.0
 10
9.115201
 20
275.749881
 30
0.0
 10
9.012931
 20
275.783881
 30
0.0
 10
8.910691
 20
275.749881
 30
0.0
 10
8.525921
 20
275.708281
 30
0.0
 10
8.141151
 20
275.749881
 30
0.0
 10
8.038881
 20
275.783881
 30
0.0
 10
7.936641
 20
275.749881
 30
0.0
 10
7.551881
 20
275.708281
 30
0.0
 10
7.167101
 20
275.749881
 30
0.0
 10
6.799141
 20
275.872331
 30
0.0
 10
6.464051
 20
276.070361
 30
0.0
 10
6.176531
 20
276.335661
 30
0.0
 10
5.949131
 20
276.656511
 30
0.0
 10
5.791751
 20
277.018941
 30
0.0
 10
5.711351
 20
277.406921
 30
0.0
  0
LWPOLYLINE
  5
126
100
AcDbEntity
  8
Layer_1
 62
7
100
AcDbPolyline
 90
30
 70
1
 10
7.659441
 20
55.617430
 30
0.0
 10
7.739841
 20
56.004870
 30
0.0
 10
7.897221
 20
56.367300
 30
0.0
 10
8.124621
 20
56.687780
 30
0.0
 10
8.412141
 20
56.953460
 30
0.0
 10
8.747231
 20
57.151870
 30
0.0
 10
9.115191
 20
57.273930
 30
0.0
 10
9.499961
 20
57.315830
 30
0.0
 10
9.884731
 20
57.273930
 30
0.0
 10
10.252691
 20
57.151870
 30
0.0
 10
10.587741
 20
56.953460
 30
0.0
 10
10.875261
 20
56.687780
 30
0.0
 10
11.102661
 20
56.367300
 30
0.0
 10
11.260041
 20
56.004870
 30
0.0
 10
11.340441
 20
55.617430
 30
0.0
 10
11.340441
 20
55.219960
 30
0.0
 10
11.260041
 20
54.832560
 30
0.0
 10
11.102661
 20
54.470130
 30
0.0
 10
10.875261
 20
54.149650
 30
0.0
 10
10.587741
 20
53.883970
 30
0.0
 10
10.252691
 20
53.685560
 30
0.0
 10
9.884731
 20
53.563490
 30
0.0
 10
9.499961
 20
53.521490
 30
0.0
 10
9.115191
 20
53.563490
 30
0.0
 10
8.747231
 20
53.685560
 30
0.0
 10
8.412141
 20
53.883970
 30
0.0
 10
8.124621
 20
54.149650
 30
0.0
 10
7.897221
 20
54.470130
 30
0.0
 10
7.739841
 20
54.832560
 30
0.0
 10
7.659441
 20
55.219960
 30
0.0
  0
LWPOLYLINE
  5
127
100
AcDbEntity
  8
Layer_1
 62
7
100
AcDbPolyline
 90
30
 70
1
 10
7.659441
 20
105.547000
 30
0.0
 10
7.739841
 20
105.934410
 30
0.0
 10
7.897221
 20
106.296840
 30
0.0
 10
8.124621
 20
106.617310
 30
0.0
 10
8.412141
 20
106.882990
 30
0.0
 10
8.747231
 20
107.081400
 30
0.0
 10
9.115191
 20
107.203470
 30
0.0
 10
9.499961
 20
107.245370
 30
0.0
 10
9.884731
 20
107.203470
 30
0.0
 10
10.252691
 20
107.081400
 30
0.0
 10
10.587741
 20
106.882990
 30
0.0
 10
10.875261
 20
106.617310
 30
0.0
 10
11.102661
 20
106.296840
 30
0.0
 10
11.260041
 20
105.934410
 30
0.0
 10
11.340441
 20
105.547000
 30
0.0
 10
11.340441
 20
105.149540
 30
0.0
 10
11.260041
 20
104.762090
 30
0.0
 10
11.102661
 20
104.399670
 30
0.0
 10
10.875261
 20
104.079190
 30
0.0
 10
10.587741
 20
103.813510
 30
0.0
 10
10.252691
 20
103.615100
 30
0.0
 10
9.884731
 20
103.493030
 30
0.0
 10
9.499961
 20
103.451130
 30
0.0
 10
9.115191
 20
103.493030
 30
0.0
 10
8.747231
 20
103.615100
 30
0.0
 10
8.412141
 20
103.813510
 30
0.0
 10
8.124621
 20
104.079190
 30
0.0
 10
7.897221
 20
104.399670
 30
0.0
 10
7.739841
 20
104.762090
 30
0.0
 10
7.659441
 20
105.149540
 30
0.0
  0
LWPOLYLINE
  5
128
100
AcDbEntity
  8
Layer_1
 62
7
100
AcDbPolyline
 90
30
 70
1
 10
7.659441
 20
240.356401
 30
0.0
 10
7.739841
 20
240.744341
 30
0.0
 10
7.897221
 20
241.106771
 30
0.0
 10
8.124621
 20
241.427621
 30
0.0
 10
8.412141
 20
241.692921
 30
0.0
 10
8.747231
 20
241.890961
 30
0.0
 10
9.115191
 20
242.013781
 30
0.0
 10
9.499961
 20
242.055381
 30
0.0
 10
9.884731
 20
242.013781
 30
0.0
 10
10.252691
 20
241.890961
 30
0.0
 10
10.587741
 20
241.692921
 30
0.0
 10
10.875261
 20
241.427621
 30
0.0
 10
11.102661
 20
241.106771
 30
0.0
 10
11.260041
 20
240.744341
 30
0.0
 10
11.340441
 20
240.356401
 30
0.0
 10
11.340441
 20
239.959771
 30
0.0
 10
11.260041
 20
239.571841
 30
0.0
 10
11.102661
 20
239.209411
 30
0.0
 10
10.875261
 20
238.888551
 30
0.0
 10
10.587741
 20
238.623251
 30
0.0
 10
10.252691
 20
238.425221
 30
0.0
 10
9.884731
 20
238.302391
 30
0.0
 10
9.499961
 20
238.260791
 30
0.0
 10
9.115191
 20
238.302391
 30
0.0
 10
8.747231
 20
238.425221
 30
0.0
 10
8.412141
 20
238.623251
 30
0.0
 10
8.124621
 20
238.888551
 30
0.0
 10
7.897221
 20
239.209411
 30
0.0
 10
7.739841
 20
239.571841
 30
0.0
 10
7.659441
 20
239.959771
 30
0.0
  0
LWPOLYLINE
  5
129
100
AcDbEntity
  8
Layer_1
 62
7
100
AcDbPolyline
 90
30
 70
1
 10
7.659441
 20
186.432490
 30
0.0
 10
7.739841
 20
186.820430
 30
0.0
 10
7.897221
 20
187.182860
 30
0.0
 10
8.124621
 20
187.503710
 30
0.0
 10
8.412141
 20
187.769010
 30
0.0
 10
8.747231
 20
187.967040
 30
0.0
 10
9.115191
 20
188.089490
 30
0.0
 10
9.499961
 20
188.131090
 30
0.0
 10
9.884731
 20
188.089490
 30
0.0
 10
10.252691
 20
187.967040
 30
0.0
 10
10.587741
 20
187.769010
 30
0.0
 10
10.875261
 20
187.503710
 30
0.0
 10
11.102661
 20
187.182860
 30
0.0
 10
11.260041
 20
186.820430
 30
0.0
 10
11.340441
 20
186.432490
 30
0.0
 10
11.340441
 20
186.035860
 30
0.0
 10
11.260041
 20
185.647890
 30
0.0
 10
11.102661
 20
185.285460
 30
0.0
 10
10.875261
 20
184.964600
 30
0.0
 10
10.587741
 20
184.699300
 30
0.0
 10
10.252691
 20
184.500890
 30
0.0
 10
9.884731
 20
184.378070
 30
0.0
 10
9.499961
 20
184.336470
 30
0.0
 10
9.115191
 20
184.378070
 30
0.0
 10
8.747231
 20
184.500890
 30
0.0
 10
8.412141
 20
184.699300
 30
0.0
 10
8.124621
 20
184.964600
 30
0.0
 10
7.897221
 20
185.285460
 30
0.0
 10
7.739841
 20
185.647890
 30
0.0
 10
7.659441
 20
186.035860
 30
0.0
  0
LWPOLYLINE
  5
12a
100
AcDbEntity
  8
Layer_1
 62
7
100
AcDbPolyline
 90
4
 70
1
 10
38.753441
 20
0.246560
 30
0.0
 10
38.753441
 20
349.753451
 30
0.0
 10
20.246561
 20
349.753451
 30
0.0
 10
20.246561
 20
0.246560
 30
0.0
  0
LWPOLYLINE
  5
12b
100
AcDbEntity
  8
Layer_1
 62
7
100
AcDbPolyline
 90
54
 70
1
 10
28.146471
 20
206.853681
 30
0.0
 10
28.226871
 20
207.241621
 30
0.0
 10
28.384251
 20
207.604051
 30
0.0
 10
28.611651
 20
207.924901
 30
0.0
 10
28.899171
 20
208.190201
 30
0.0
 10
29.234251
 20
208.388231
 30
0.0
 10
29.602251
 20
208.511061
 30
0.0
 10
29.987031
 20
208.552661
 30
0.0
 10
30.371791
 20
208.511061
 30
0.0
 10
30.474061
 20
208.477061
 30
0.0
 10
30.576301
 20
208.511061
 30
0.0
 10
30.961071
 20
208.552661
 30
0.0
 10
31.345841
 20
208.511061
 30
0.0
 10
31.448111
 20
208.477061
 30
0.0
 10
31.550351
 20
208.511061
 30
0.0
 10
31.935121
 20
208.552661
 30
0.0
 10
32.319871
 20
208.511061
 30
0.0
 10
32.422141
 20
208.477061
 30
0.0
 10
32.524411
 20
208.511061
 30
0.0
 10
32.909161
 20
208.552661
 30
0.0
 10
33.293911
 20
208.511061
 30
0.0
 10
33.661901
 20
208.388231
 30
0.0
 10
33.996991
 20
208.190201
 30
0.0
 10
34.284541
 20
207.924901
 30
0.0
 10
34.511871
 20
207.604051
 30
0.0
 10
34.669291
 20
207.241621
 30
0.0
 10
34.749691
 20
206.853681
 30
0.0
 10
34.749691
 20
206.457051
 30
0.0
 10
34.669291
 20
206.069111
 30
0.0
 10
34.511871
 20
205.706691
 30
0.0
 10
34.284541
 20
205.385831
 30
0.0
 10
33.996991
 20
205.120531
 30
0.0
 10
33.661901
 20
204.922501
 30
0.0
 10
33.293911
 20
204.799671
 30
0.0
 10
32.909161
 20
204.758071
 30
0.0
 10
32.524411
 20
204.799671
 30
0.0
 10
32.422141
 20
204.833671
 30
0.0
 10
32.319871
 20
204.799671
 30
0.0
 10
31.935121
 20
204.758071
 30
0.0
 10
31.550351
 20
204.799671
 30
0.0
 10
31.448111
 20
204.833671
 30
0.0
 10
31.345841
 20
204.799671
 30
0.0
 10
30.961071
 20
204.758071
 30
0.0
 10
30.576301
 20
204.799671
 30
0.0
 10
30.474061
 20
204.833671
 30
0.0
 10
30.371791
 20
204.799671
 30
0.0
 10
29.987031
 20
204.758071
 30
0.0
 10
29.602251
 20
204.799671
 30
0.0
 10
29.234251
 20
204.922501
 30
0.0
 10
28.899171
 20
205.120531
 30
0.0
 10
28.611651
 20
205.385831
 30
0.0
 10
28.384251
 20
205.706691
 30
0.0
 10
28.226871
 20
206.069111
 30
0.0
 10
28.146471
 20
206.457051
 30
0.0
  0
LWPOLYLINE
  5
12c
100
AcDbEntity
  8
Layer_1
 62
7
100
AcDbPolyline
 90
54
 70
1
 10
28.146471
 20
222.831141
 30
0.0
 10
28.226871
 20
223.219071
 30
0.0
 10
28.384251
 20
223.581501
 30
0.0
 10
28.611651
 20
223.902361
 30
0.0
 10
28.899171
 20
224.167661
 30
0.0
 10
29.234251
 20
224.365691
 30
0.0
 10
29.602251
 20
224.488521
 30
0.0
 10
29.987031
 20
224.530121
 30
0.0
 10
30.371791
 20
224.488521
 30
0.0
 10
30.474061
 20
224.454521
 30
0.0
 10
30.576301
 20
224.488521
 30
0.0
 10
30.961071
 20
224.530121
 30
0.0
 10
31.345841
 20
224.488521
 30
0.0
 10
31.448111
 20
224.454521
 30
0.0
 10
31.550351
 20
224.488521
 30
0.0
 10
31.935121
 20
224.530121
 30
0.0
 10
32.319871
 20
224.488521
 30
0.0
 10
32.422141
 20
224.454521
 30
0.0
 10
32.524411
 20
224.488521
 30
0.0
 10
32.909161
 20
224.530121
 30
0.0
 10
33.293911
 20
224.488521
 30
0.0
 10
33.661901
 20
224.365691
 30
0.0
 10
33.996991
 20
224.167661
 30
0.0
 10
34.284541
 20
223.902361
 30
0.0
 10
34.511871
 20
223.581501
 30
0.0
 10
34.669291
 20
223.219071
 30
0.0
 10
34.749691
 20
222.831141
 30
0.0
 10
34.749691
 20
222.434511
 30
0.0
 10
34.669291
 20
222.046531
 30
0.0
 10
34.511871
 20
221.684111
 30
0.0
 10
34.284541
 20
221.363251
 30
0.0
 10
33.996991
 20
221.097951
 30
0.0
 10
33.661901
 20
220.899921
 30
0.0
 10
33.293911
 20
220.777091
 30
0.0
 10
32.909161
 20
220.735491
 30
0.0
 10
32.524411
 20
220.777091
 30
0.0
 10
32.422141
 20
220.811091
 30
0.0
 10
32.319871
 20
220.777091
 30
0.0
 10
31.935121
 20
220.735491
 30
0.0
 10
31.550351
 20
220.777091
 30
0.0
 10
31.448111
 20
220.811091
 30
0.0
 10
31.345841
 20
220.777091
 30
0.0
 10
30.961071
 20
220.735491
 30
0.0
 10
30.576301
 20
220.777091
 30
0.0
 10
30.474061
 20
220.811091
 30
0.0
 10
30.371791
 20
220.777091
 30
0.0
 10
29.987031
 20
220.735491
 30
0.0
 10
29.602251
 20
220.777091
 30
0.0
 10
29.234251
 20
220.899921
 30
0.0
 10
28.899171
 20
221.097951
 30
0.0
 10
28.611651
 20
221.363251
 30
0.0
 10
28.384251
 20
221.684111
 30
0.0
 10
28.226871
 20
222.046531
 30
0.0
 10
28.146471
 20
222.434511
 30
0.0
  0
LWPOLYLINE
  5
12d
100
AcDbEntity
  8
Layer_1
 62
7
100
AcDbPolyline
 90
62
 70
1
 10
25.711351
 20
126.018110
 30
0.0
 10
25.791751
 20
126.405560
 30
0.0
 10
25.949131
 20
126.767990
 30
0.0
 10
26.176531
 20
127.088470
 30
0.0
 10
26.464051
 20
127.354150
 30
0.0
 10
26.799141
 20
127.552550
 30
0.0
 10
27.167101
 20
127.674620
 30
0.0
 10
27.551881
 20
127.716520
 30
0.0
 10
27.936641
 20
127.674620
 30
0.0
 10
28.038881
 20
127.640620
 30
0.0
 10
28.141151
 20
127.674620
 30
0.0
 10
28.525921
 20
127.716520
 30
0.0
 10
28.910691
 20
127.674620
 30
0.0
 10
29.012931
 20
127.640620
 30
0.0
 10
29.115201
 20
127.674620
 30
0.0
 10
29.499971
 20
127.716520
 30
0.0
 10
29.884741
 20
127.674620
 30
0.0
 10
29.986971
 20
127.640620
 30
0.0
 10
30.089241
 20
127.674620
 30
0.0
 10
30.474021
 20
127.716520
 30
0.0
 10
30.858791
 20
127.674620
 30
0.0
 10
30.961061
 20
127.640620
 30
0.0
 10
31.063291
 20
127.674620
 30
0.0
 10
31.448071
 20
127.716520
 30
0.0
 10
31.832841
 20
127.674620
 30
0.0
 10
32.200801
 20
127.552550
 30
0.0
 10
32.535881
 20
127.354150
 30
0.0
 10
32.823401
 20
127.088470
 30
0.0
 10
33.050731
 20
126.767990
 30
0.0
 10
33.208151
 20
126.405560
 30
0.0
 10
33.288651
 20
126.018110
 30
0.0
 10
33.288651
 20
125.620690
 30
0.0
 10
33.208151
 20
125.233210
 30
0.0
 10
33.050731
 20
124.870780
 30
0.0
 10
32.823401
 20
124.550300
 30
0.0
 10
32.535881
 20
124.284620
 30
0.0
 10
32.200801
 20
124.086210
 30
0.0
 10
31.832841
 20
123.964130
 30
0.0
 10
31.448071
 20
123.922230
 30
0.0
 10
31.063291
 20
123.964130
 30
0.0
 10
30.961061
 20
123.998130
 30
0.0
 10
30.858791
 20
123.964130
 30
0.0
 10
30.474021
 20
123.922230
 30
0.0
 10
30.089241
 20
123.964130
 30
0.0
 10
29.986971
 20
123.998130
 30
0.0
 10
29.884741
 20
123.964130
 30
0.0
 10
29.499971
 20
123.922230
 30
0.0
 10
29.115201
 20
123.964130
 30
0.0
 10
29.012931
 20
123.998130
 30
0.0
 10
28.910691
 20
123.964130
 30
0.0
 10
28.525921
 20
123.922230
 30
0.0
 10
28.141151
 20
123.964130
 30
0.0
 10
28.038881
 20
123.998130
 30
0.0
 10
27.936641
 20
123.964130
 30
0.0
 10
27.551881
 20
123.922230
 30
0.0
 10
27.167101
 20
123.964130
 30
0.0
 10
26.799141
 20
124.086210
 30
0.0
 10
26.464051
 20
124.284620
 30
0.0
 10
26.176531
 20
124.550300
 30
0.0
 10
25.949131
 20
124.870780
 30
0.0
 10
25.791751
 20
125.233210
 30
0.0
 10
25.711351
 20
125.620690
 30
0.0
  0
LWPOLYLINE
  5
12e
100
AcDbEntity
  8
Layer_1
 62
7
100
AcDbPolyline
 90
62
 70
1
 10
25.711351
 20
302.768381
 30
0.0
 10
25.791751
 20
303.156321
 30
0.0
 10
25.949131
 20
303.518751
 30
0.0
 10
26.176531
 20
303.839601
 30
0.0
 10
26.464051
 20
304.104901
 30
0.0
 10
26.799141
 20
304.302941
 30
0.0
 10
27.167101
 20
304.425761
 30
0.0
 10
27.551881
 20
304.467361
 30
0.0
 10
27.936641
 20
304.425761
 30
0.0
 10
28.038881
 20
304.391761
 30
0.0
 10
28.141151
 20
304.425761
 30
0.0
 10
28.525921
 20
304.467361
 30
0.0
 10
28.910691
 20
304.425761
 30
0.0
 10
29.012931
 20
304.391761
 30
0.0
 10
29.115201
 20
304.425761
 30
0.0
 10
29.499971
 20
304.467361
 30
0.0
 10
29.884741
 20
304.425761
 30
0.0
 10
29.986971
 20
304.391761
 30
0.0
 10
30.089241
 20
304.425761
 30
0.0
 10
30.474021
 20
304.467361
 30
0.0
 10
30.858791
 20
304.425761
 30
0.0
 10
30.961061
 20
304.391761
 30
0.0
 10
31.063291
 20
304.425761
 30
0.0
 10
31.448071
 20
304.467361
 30
0.0
 10
31.832841
 20
304.425761
 30
0.0
 10
32.200801
 20
304.302941
 30
0.0
 10
32.535881
 20
304.104901
 30
0.0
 10
32.823401
 20
303.839601
 30
0.0
 10
33.050731
 20
303.518751
 30
0.0
 10
33.208151
 20
303.156321
 30
0.0
 10
33.288651
 20
302.768381
 30
0.0
 10
33.288651
 20
302.371751
 30
0.0
 10
33.208151
 20
301.983741
 30
0.0
 10
33.050731
 20
301.621311
 30
0.0
 10
32.823401
 20
301.300461
 30
0.0
 10
32.535881
 20
301.035151
 30
0.0
 10
32.200801
 20
300.837121
 30
0.0
 10
31.832841
 20
300.714301
 30
0.0
 10
31.448071
 20
300.672701
 30
0.0
 10
31.063291
 20
300.714301
 30
0.0
 10
30.961061
 20
300.748301
 30
0.0
 10
30.858791
 20
300.714301
 30
0.0
 10
30.474021
 20
300.672701
 30
0.0
 10
30.089241
 20
300.714301
 30
0.0
 10
29.986971
 20
300.748301
 30
0.0
 10
29.884741
 20
300.714301
 30
0.0
 10
29.499971
 20
300.672701
 30
0.0
 10
29.115201
 20
300.714301
 30
0.0
 10
29.012931
 20
300.748301
 30
0.0
 10
28.910691
 20
300.714301
 30
0.0
 10
28.525921
 20
300.672701
 30
0.0
 10
28.141151
 20
300.714301
 30
0.0
 10
28.038881
 20
300.748301
 30
0.0
 10
27.936641
 20
300.714301
 30
0.0
 10
27.551881
 20
300.672701
 30
0.0
 10
27.167101
 20
300.714301
 30
0.0
 10
26.799141
 20
300.837121
 30
0.0
 10
26.464051
 20
301.035151
 30
0.0
 10
26.176531
 20
301.300461
 30
0.0
 10
25.949131
 20
301.621311
 30
0.0
 10
25.791751
 20
301.983741
 30
0.0
 10
25.711351
 20
302.371751
 30
0.0
  0
LWPOLYLINE
  5
12f
100
AcDbEntity
  8
Layer_1
 62
7
100
AcDbPolyline
 90
62
 70
1
 10
25.711351
 20
150.982900
 30
0.0
 10
25.791751
 20
151.370390
 30
0.0
 10
25.949131
 20
151.732810
 30
0.0
 10
26.176531
 20
152.053290
 30
0.0
 10
26.464051
 20
152.318970
 30
0.0
 10
26.799141
 20
152.517380
 30
0.0
 10
27.167101
 20
152.639450
 30
0.0
 10
27.551881
 20
152.681350
 30
0.0
 10
27.936641
 20
152.639450
 30
0.0
 10
28.038881
 20
152.605450
 30
0.0
 10
28.141151
 20
152.639450
 30
0.0
 10
28.525921
 20
152.681350
 30
0.0
 10
28.910691
 20
152.639450
 30
0.0
 10
29.012931
 20
152.605450
 30
0.0
 10
29.115201
 20
152.639450
 30
0.0
 10
29.499971
 20
152.681350
 30
0.0
 10
29.884741
 20
152.639450
 30
0.0
 10
29.986971
 20
152.605450
 30
0.0
 10
30.089241
 20
152.639450
 30
0.0
 10
30.474021
 20
152.681350
 30
0.0
 10
30.858791
 20
152.639450
 30
0.0
 10
30.961061
 20
152.605450
 30
0.0
 10
31.063291
 20
152.639450
 30
0.0
 10
31.448071
 20
152.681350
 30
0.0
 10
31.832841
 20
152.639450
 30
0.0
 10
32.200801
 20
152.517380
 30
0.0
 10
32.535881
 20
152.318970
 30
0.0
 10
32.823401
 20
152.053290
 30
0.0
 10
33.050731
 20
151.732810
 30
0.0
 10
33.208151
 20
151.370390
 30
0.0
 10
33.288651
 20
150.982900
 30
0.0
 10
33.288651
 20
150.585440
 30
0.0
 10
33.208151
 20
150.198000
 30
0.0
 10
33.050731
 20
149.835570
 30
0.0
 10
32.823401
 20
149.515090
 30
0.0
 10
32.535881
 20
149.249410
 30
0.0
 10
32.200801
 20
149.051000
 30
0.0
 10
31.832841
 20
148.928930
 30
0.0
 10
31.448071
 20
148.886930
 30
0.0
 10
31.063291
 20
148.928930
 30
0.0
 10
30.961061
 20
148.962930
 30
0.0
 10
30.858791
 20
148.928930
 30
0.0
 10
30.474021
 20
148.886930
 30
0.0
 10
30.089241
 20
148.928930
 30
0.0
 10
29.986971
 20
148.962930
 30
0.0
 10
29.884741
 20
148.928930
 30
0.0
 10
29.499971
 20
148.886930
 30
0.0
 10
29.115201
 20
148.928930
 30
0.0
 10
29.012931
 20
148.962930
 30
0.0
 10
28.910691
 20
148.928930
 30
0.0
 10
28.525921
 20
148.886930
 30
0.0
 10
28.141151
 20
148.928930
 30
0.0
 10
28.038881
 20
148.962930
 30
0.0
 10
27.936641
 20
148.928930
 30
0.0
 10
27.551881
 20
148.886930
 30
0.0
 10
27.167101
 20
148.928930
 30
0.0
 10
26.799141
 20
149.051000
 30
0.0
 10
26.464051
 20
149.249410
 30
0.0
 10
26.176531
 20
149.515090
 30
0.0
 10
25.949131
 20
149.835570
 30
0.0
 10
25.791751
 20
150.198000
 30
0.0
 10
25.711351
 20
150.585440
 30
0.0
  0
LWPOLYLINE
  5
130
100
AcDbEntity
  8
Layer_1
 62
7
100
AcDbPolyline
 90
62
 70
1
 10
25.711351
 20
277.803561
 30
0.0
 10
25.791751
 20
278.191571
 30
0.0
 10
25.949131
 20
278.554001
 30
0.0
 10
26.176531
 20
278.874851
 30
0.0
 10
26.464051
 20
279.140151
 30
0.0
 10
26.799141
 20
279.338191
 30
0.0
 10
27.167101
 20
279.461011
 30
0.0
 10
27.551881
 20
279.502611
 30
0.0
 10
27.936641
 20
279.461011
 30
0.0
 10
28.038881
 20
279.427011
 30
0.0
 10
28.141151
 20
279.461011
 30
0.0
 10
28.525921
 20
279.502611
 30
0.0
 10
28.910691
 20
279.461011
 30
0.0
 10
29.012931
 20
279.427011
 30
0.0
 10
29.115201
 20
279.461011
 30
0.0
 10
29.499971
 20
279.502611
 30
0.0
 10
29.884741
 20
279.461011
 30
0.0
 10
29.986971
 20
279.427011
 30
0.0
 10
30.089241
 20
279.461011
 30
0.0
 10
30.474021
 20
279.502611
 30
0.0
 10
30.858791
 20
279.461011
 30
0.0
 10
30.961061
 20
279.427011
 30
0.0
 10
31.063291
 20
279.461011
 30
0.0
 10
31.448071
 20
279.502611
 30
0.0
 10
31.832841
 20
279.461011
 30
0.0
 10
32.200801
 20
279.338191
 30
0.0
 10
32.535881
 20
279.140151
 30
0.0
 10
32.823401
 20
278.874851
 30
0.0
 10
33.050731
 20
278.554001
 30
0.0
 10
33.208151
 20
278.191571
 30
0.0
 10
33.288651
 20
277.803561
 30
0.0
 10
33.288651
 20
277.406931
 30
0.0
 10
33.208151
 20
277.018951
 30
0.0
 10
33.050731
 20
276.656521
 30
0.0
 10
32.823401
 20
276.335671
 30
0.0
 10
32.535881
 20
276.070371
 30
0.0
 10
32.200801
 20
275.872341
 30
0.0
 10
31.832841
 20
275.749891
 30
0.0
 10
31.448071
 20
275.708291
 30
0.0
 10
31.063291
 20
275.749891
 30
0.0
 10
30.961061
 20
275.783891
 30
0.0
 10
30.858791
 20
275.749891
 30
0.0
 10
30.474021
 20
275.708291
 30
0.0
 10
30.089241
 20
275.749891
 30
0.0
 10
29.986971
 20
275.783891
 30
0.0
 10
29.884741
 20
275.749891
 30
0.0
 10
29.499971
 20
275.708291
 30
0.0
 10
29.115201
 20
275.749891
 30
0.0
 10
29.012931
 20
275.783891
 30
0.0
 10
28.910691
 20
275.749891
 30
0.0
 10
28.525921
 20
275.708291
 30
0.0
 10
28.141151
 20
275.749891
 30
0.0
 10
28.038881
 20
275.783891
 30
0.0
 10
27.936641
 20
275.749891
 30
0.0
 10
27.551881
 20
275.708291
 30
0.0
 10
27.167101
 20
275.749891
 30
0.0
 10
26.799141
 20
275.872341
 30
0.0
 10
26.464051
 20
276.070371
 30
0.0
 10
26.176531
 20
276.335671
 30
0.0
 10
25.949131
 20
276.656521
 30
0.0
 10
25.791751
 20
277.018951
 30
0.0
 10
25.711351
 20
277.406931
 30
0.0
  0
LWPOLYLINE
  5
131
100
AcDbEntity
  8
Layer_1
 62
7
100
AcDbPolyline
 90
30
 70
1
 10
27.659441
 20
55.617420
 30
0.0
 10
27.739841
 20
56.004880
 30
0.0
 10
27.897221
 20
56.367310
 30
0.0
 10
28.124621
 20
56.687800
 30
0.0
 10
28.412141
 20
56.953460
 30
0.0
 10
28.747231
 20
57.151870
 30
0.0
 10
29.115191
 20
57.273930
 30
0.0
 10
29.499961
 20
57.315830
 30
0.0
 10
29.884731
 20
57.273930
 30
0.0
 10
30.252691
 20
57.151870
 30
0.0
 10
30.587741
 20
56.953460
 30
0.0
 10
30.875261
 20
56.687800
 30
0.0
 10
31.102661
 20
56.367310
 30
0.0
 10
31.260041
 20
56.004880
 30
0.0
 10
31.340441
 20
55.617420
 30
0.0
 10
31.340441
 20
55.219970
 30
0.0
 10
31.260041
 20
54.832560
 30
0.0
 10
31.102661
 20
54.470140
 30
0.0
 10
30.875261
 20
54.149650
 30
0.0
 10
30.587741
 20
53.883980
 30
0.0
 10
30.252691
 20
53.685570
 30
0.0
 10
29.884731
 20
53.563490
 30
0.0
 10
29.499961
 20
53.521490
 30
0.0
 10
29.115191
 20
53.563490
 30
0.0
 10
28.747231
 20
53.685570
 30
0.0
 10
28.412141
 20
53.883980
 30
0.0
 10
28.124621
 20
54.149650
 30
0.0
 10
27.897221
 20
54.470140
 30
0.0
 10
27.739841
 20
54.832560
 30
0.0
 10
27.659441
 20
55.219970
 30
0.0
  0
LWPOLYLINE
  5
132
100
AcDbEntity
  8
Layer_1
 62
7
100
AcDbPolyline
 90
30
 70
1
 10
27.659441
 20
105.547000
 30
0.0
 10
27.739841
 20
105.934420
 30
0.0
 10
27.897221
 20
106.296840
 30
0.0
 10
28.124621
 20
106.617320
 30
0.0
 10
28.412141
 20
106.882990
 30
0.0
 10
28.747231
 20
107.081410
 30
0.0
 10
29.115191
 20
107.203480
 30
0.0
 10
29.499961
 20
107.245380
 30
0.0
 10
29.884731
 20
107.203480
 30
0.0
 10
30.252691
 20
107.081410
 30
0.0
 10
30.587741
 20
106.882990
 30
0.0
 10
30.875261
 20
106.617320
 30
0.0
 10
31.102661
 20
106.296840
 30
0.0
 10
31.260041
 20
105.934420
 30
0.0
 10
31.340441
 20
105.547000
 30
0.0
 10
31.340441
 20
105.149550
 30
0.0
 10
31.260041
 20
104.762090
 30
0.0
 10
31.102661
 20
104.399680
 30
0.0
 10
30.875261
 20
104.079200
 30
0.0
 10
30.587741
 20
103.813520
 30
0.0
 10
30.252691
 20
103.615100
 30
0.0
 10
29.884731
 20
103.493040
 30
0.0
 10
29.499961
 20
103.451140
 30
0.0
 10
29.115191
 20
103.493040
 30
0.0
 10
28.747231
 20
103.615100
 30
0.0
 10
28.412141
 20
103.813520
 30
0.0
 10
28.124621
 20
104.079200
 30
0.0
 10
27.897221
 20
104.399680
 30
0.0
 10
27.739841
 20
104.762090
 30
0.0
 10
27.659441
 20
105.149550
 30
0.0
  0
LWPOLYLINE
  5
133
100
AcDbEntity
  8
Layer_1
 62
7
100
AcDbPolyline
 90
30
 70
1
 10
27.659441
 20
240.356411
 30
0.0
 10
27.739841
 20
240.744351
 30
0.0
 10
27.897221
 20
241.106781
 30
0.0
 10
28.124621
 20
241.427631
 30
0.0
 10
28.412141
 20
241.692931
 30
0.0
 10
28.747231
 20
241.890971
 30
0.0
 10
29.115191
 20
242.013791
 30
0.0
 10
29.499961
 20
242.055391
 30
0.0
 10
29.884731
 20
242.013791
 30
0.0
 10
30.252691
 20
241.890971
 30
0.0
 10
30.587741
 20
241.692931
 30
0.0
 10
30.875261
 20
241.427631
 30
0.0
 10
31.102661
 20
241.106781
 30
0.0
 10
31.260041
 20
240.744351
 30
0.0
 10
31.340441
 20
240.356411
 30
0.0
 10
31.340441
 20
239.959781
 30
0.0
 10
31.260041
 20
239.571851
 30
0.0
 10
31.102661
 20
239.209421
 30
0.0
 10
30.875261
 20
238.888561
 30
0.0
 10
30.587741
 20
238.623261
 30
0.0
 10
30.252691
 20
238.425231
 30
0.0
 10
29.884731
 20
238.302401
 30
0.0
 10
29.499961
 20
238.260801
 30
0.0
 10
29.115191
 20
238.302401
 30
0.0
 10
28.747231
 20
238.425231
 30
0.0
 10
28.412141
 20
238.623261
 30
0.0
 10
28.124621
 20
238.888561
 30
0.0
 10
27.897221
 20
239.209421
 30
0.0
 10
27.739841
 20
239.571851
 30
0.0
 10
27.659441
 20
239.959781
 30
0.0
  0
LWPOLYLINE
  5
134
100
AcDbEntity
  8
Layer_1
 62
7
100
AcDbPolyline
 90
30
 70
1
 10
27.659441
 20
186.432500
 30
0.0
 10
27.739841
 20
186.820440
 30
0.0
 10
27.897221
 20
187.182870
 30
0.0
 10
28.124621
 20
187.503720
 30
0.0
 10
28.412141
 20
187.769020
 30
0.0
 10
28.747231
 20
187.967050
 30
0.0
 10
29.115191
 20
188.089500
 30
0.0
 10
29.499961
 20
188.131100
 30
0.0
 10
29.884731
 20
188.089500
 30
0.0
 10
30.252691
 20
187.967050
 30
0.0
 10
30.587741
 20
187.769020
 30
0.0
 10
30.875261
 20
187.503720
 30
0.0
 10
31.102661
 20
187.182870
 30
0.0
 10
31.260041
 20
186.820440
 30
0.0
 10
31.340441
 20
186.432500
 30
0.0
 10
31.340441
 20
186.035870
 30
0.0
 10
31.260041
 20
185.647900
 30
0.0
 10
31.102661
 20
185.285470
 30
0.0
 10
30.875261
 20
184.964610
 30
0.0
 10
30.587741
 20
184.699310
 30
0.0
 10
30.252691
 20
184.500900
 30
0.0
 10
29.884731
 20
184.378080
 30
0.0
 10
29.499961
 20
184.336480
 30
0.0
 10
29.115191
 20
184.378080
 30
0.0
 10
28.747231
 20
184.500900
 30
0.0
 10
28.412141
 20
184.699310
 30
0.0
 10
28.124621
 20
184.964610
 30
0.0
 10
27.897221
 20
185.285470
 30
0.0
 10
27.739841
 20
185.647900
 30
0.0
 10
27.659441
 20
186.035870
 30
0.0
  0
ENDSEC
  0
SECTION
  2
OBJECTS
  0
DICTIONARY
  5
C
330
0
100
AcDbDictionary
  3
ACAD_GROUP
350
D
  3
ACAD_MLINESTYLE
350
17
  0
DICTIONARY
  5
D
330
C
100
AcDbDictionary
  0
DICTIONARY
  5
1A
330
C
100
AcDbDictionary
  0
DICTIONARY
  5
17
330
C
100
AcDbDictionary
  3
STANDARD
350
18
  0
DICTIONARY
  5
19
330
C
100
AcDbDictionary
  0
ENDSEC
  0
EOF
