  0
SECTION
  2
HEADER
  9
$ACADVER
  1
AC1014
  9
$HANDSEED
  5
FFFF
  9
$MEASUREMENT
 70
     1
  0
ENDSEC
  0
SECTION
  2
TABLES
  0
TABLE
  2
VPORT
  5
8
330
0
100
AcDbSymbolTable
 70
     4
  0
VPORT
  5
2E
330
8
100
AcDbSymbolTableRecord
100
AcDbViewportTableRecord
  2
*ACTIVE
 70
     0
 10
0.0
 20
0.0
 11
1.0
 21
1.0
 12
210.0
 22
148.5
 13
0.0
 23
0.0
 14
10.0
 24
10.0
 15
10.0
 25
10.0
 16
0.0
 26
0.0
 36
1.0
 17
0.0
 27
0.0
 37
0.0
 40
341.0
 41
1.24
 42
50.0
 43
0.0
 44
0.0
 50
0.0
 51
0.0
 71
     0
 72
   100
 73
     1
 74
     3
 75
     0
 76
     0
 77
     0
 78
     0
  0
ENDTAB
  0
TABLE
  2
LTYPE
  5
5
330
0
100
AcDbSymbolTable
 70
     1
  0
LTYPE
  5
14
330
5
100
AcDbSymbolTableRecord
100
AcDbLinetypeTableRecord
  2
BYBLOCK
 70
     0
  3

 72
    65
 73
     0
 40
0.0
  0
LTYPE
  5
15
330
5
100
AcDbSymbolTableRecord
100
AcDbLinetypeTableRecord
  2
BYLAYER
 70
     0
  3

 72
    65
 73
     0
 40
0.0
  0
LTYPE
  5
16
330
5
100
AcDbSymbolTableRecord
100
AcDbLinetypeTableRecord
  2
CONTINUOUS
 70
     0
  3
Solid line
 72
    65
 73
     0
 40
0.0
  0
ENDTAB
  0
TABLE
  2
LAYER
  5
2
100
AcDbSymbolTable
 70
2
  0
LAYER
  5
50
100
AcDbSymbolTableRecord
100
AcDbLayerTableRecord
  2
0
 70
0
  6
CONTINUOUS
  0
LAYER
  5
51
100
AcDbSymbolTableRecord
100
AcDbLayerTableRecord
  2
Layer_1
 70
0
  6
CONTINUOUS
  0
ENDTAB
  0
TABLE
  2
STYLE
  5
3
330
0
100
AcDbSymbolTable
 70
     1
  0
STYLE
  5
11
330
3
100
AcDbSymbolTableRecord
100
AcDbTextStyleTableRecord
  2
STANDARD
 70
     0
 40
0.0
 41
1.0
 50
0.0
 71
     0
 42
2.5
  3
txt
  4

  0
ENDTAB
  0
TABLE
  2
VIEW
  5
6
330
0
100
AcDbSymbolTable
 70
     0
  0
ENDTAB
  0
TABLE
  2
UCS
  5
7
330
0
100
AcDbSymbolTable
 70
     0
  0
ENDTAB
  0
TABLE
  2
APPID
  5
9
330
0
100
AcDbSymbolTable
 70
     2
  0
APPID
  5
12
330
9
100
AcDbSymbolTableRecord
100
AcDbRegAppTableRecord
  2
ACAD
 70
     0
  0
ENDTAB
  0
TABLE
  2
DIMSTYLE
  5
A
330
0
100
AcDbSymbolTable
 70
     1
  0
DIMSTYLE
105
27
330
A
100
AcDbSymbolTableRecord
100
AcDbDimStyleTableRecord
  2
ISO-25
 70
     0
  3

  4

  5

  6

  7

 40
1.0
 41
2.5
 42
0.625
 43
3.75
 44
1.25
 45
0.0
 46
0.0
 47
0.0
 48
0.0
140
2.5
141
2.5
142
0.0
143
0.03937007874016
144
1.0
145
0.0
146
1.0
147
0.625
 71
     0
 72
     0
 73
     0
 74
     0
 75
     0
 76
     0
 77
     1
 78
     8
170
     0
171
     3
172
     1
173
     0
174
     0
175
     0
176
     0
177
     0
178
     0
270
     2
271
     2
272
     2
273
     2
274
     3
340
11
275
     0
280
     0
281
     0
282
     0
283
     0
284
     8
285
     0
286
     0
287
     3
288
     0
  0
ENDTAB
  0
TABLE
  2
BLOCK_RECORD
  5
1
330
0
100
AcDbSymbolTable
 70
     1
  0
BLOCK_RECORD
  5
1F
330
1
100
AcDbSymbolTableRecord
100
AcDbBlockTableRecord
  2
*MODEL_SPACE
  0
BLOCK_RECORD
  5
1B
330
1
100
AcDbSymbolTableRecord
100
AcDbBlockTableRecord
  2
*PAPER_SPACE
  0
ENDTAB
  0
ENDSEC
  0
SECTION
  2
BLOCKS
  0
BLOCK
  5
20
330
1F
100
AcDbEntity
  8
0
100
AcDbBlockBegin
  2
*MODEL_SPACE
 70
     0
 10
0.0
 20
0.0
 30
0.0
  3
*MODEL_SPACE
  1

  0
ENDBLK
  5
21
330
1F
100
AcDbEntity
  8
0
100
AcDbBlockEnd
  0
BLOCK
  5
1C
330
1B
100
AcDbEntity
 67
     1
  8
0
100
AcDbBlockBegin
  2
*PAPER_SPACE
  1

  0
ENDBLK
  5
1D
330
1B
100
AcDbEntity
 67
     1
  8
0
100
AcDbBlockEnd
  0
ENDSEC
  0
SECTION
  2
ENTITIES
  0
LWPOLYLINE
  5
100
100
AcDbEntity
  8
Layer_1
 62
7
100
AcDbPolyline
 90
52
 70
1
 10
553.688920
 20
5.241920
 30
0.0
 10
554.344260
 20
11.469630
 30
0.0
 10
556.280290
 20
17.425080
 30
0.0
 10
559.412120
 20
22.848120
 30
0.0
 10
563.604850
 20
27.501700
 30
0.0
 10
568.673730
 20
31.182370
 30
0.0
 10
574.396940
 20
33.729330
 30
0.0
 10
580.525730
 20
35.031270
 30
0.0
 10
586.791360
 20
35.031270
 30
0.0
 10
592.920160
 20
33.729330
 30
0.0
 10
594.750310
 20
32.914690
 30
0.0
 10
594.750310
 20
476.063400
 30
0.0
 10
592.399670
 20
474.357060
 30
0.0
 10
589.061080
 20
472.871370
 30
0.0
 10
585.485680
 20
472.111550
 30
0.0
 10
581.831410
 20
472.111550
 30
0.0
 10
578.256010
 20
472.871370
 30
0.0
 10
574.917420
 20
474.357060
 30
0.0
 10
571.960410
 20
476.503710
 30
0.0
 10
569.514880
 20
479.218470
 30
0.0
 10
567.687750
 20
482.381550
 30
0.0
 10
566.557870
 20
485.856150
 30
0.0
 10
566.176250
 20
489.488520
 30
0.0
 10
566.557870
 20
493.120850
 30
0.0
 10
567.088350
 20
494.750320
 30
0.0
 10
21.815309
 20
494.750320
 30
0.0
 10
22.344859
 20
493.120850
 30
0.0
 10
22.726879
 20
489.488520
 30
0.0
 10
22.344859
 20
485.856150
 30
0.0
 10
21.215429
 20
482.381550
 30
0.0
 10
19.388059
 20
479.218470
 30
0.0
 10
16.942539
 20
476.503710
 30
0.0
 10
13.985759
 20
474.357060
 30
0.0
 10
10.647129
 20
472.871370
 30
0.0
 10
7.071719
 20
472.111550
 30
0.0
 10
3.417449
 20
472.111550
 30
0.0
 10
0.249679
 20
472.784500
 30
0.0
 10
0.249679
 20
26.144040
 30
0.0
 10
1.840039
 20
26.851820
 30
0.0
 10
5.415439
 20
27.611270
 30
0.0
 10
9.069709
 20
27.611270
 30
0.0
 10
12.644889
 20
26.851820
 30
0.0
 10
15.983699
 20
25.366080
 30
0.0
 10
18.940539
 20
23.219010
 30
0.0
 10
21.386059
 20
20.504450
 30
0.0
 10
23.213379
 20
17.341000
 30
0.0
 10
24.342839
 20
13.866990
 30
0.0
 10
24.724869
 20
10.234160
 30
0.0
 10
24.342839
 20
6.601420
 30
0.0
 10
23.213379
 20
3.127300
 30
0.0
 10
21.551159
 20
0.249680
 30
0.0
 10
554.214380
 20
0.249680
 30
0.0
  0
LWPOLYLINE
  5
101
100
AcDbEntity
  8
Layer_1
 62
7
100
AcDbPolyline
 90
4
 70
1
 10
608.049000
 20
0.248870
 30
0.0
 10
1206.852200
 20
0.248870
 30
0.0
 10
1206.852200
 20
60.261180
 30
0.0
 10
608.049000
 20
60.261180
 30
0.0
  0
LWPOLYLINE
  5
102
100
AcDbEntity
  8
Layer_1
 62
7
100
AcDbPolyline
 90
30
 70
1
 10
876.319500
 20
13.687340
 30
0.0
 10
876.698200
 20
13.607640
 30
0.0
 10
877.050900
 20
13.451620
 30
0.0
 10
877.363600
 20
13.226100
 30
0.0
 10
877.622200
 20
12.941260
 30
0.0
 10
877.815200
 20
12.609210
 30
0.0
 10
877.934900
 20
12.244660
 30
0.0
 10
877.974900
 20
11.863230
 30
0.0
 10
877.934900
 20
11.481760
 30
0.0
 10
877.815200
 20
11.117220
 30
0.0
 10
877.622200
 20
10.785160
 30
0.0
 10
877.363600
 20
10.500330
 30
0.0
 10
877.050900
 20
10.275180
 30
0.0
 10
876.698200
 20
10.119160
 30
0.0
 10
876.319500
 20
10.039460
 30
0.0
 10
875.933800
 20
10.039460
 30
0.0
 10
875.555100
 20
10.119160
 30
0.0
 10
875.202400
 20
10.275180
 30
0.0
 10
874.889700
 20
10.500330
 30
0.0
 10
874.631000
 20
10.785160
 30
0.0
 10
874.438100
 20
11.117220
 30
0.0
 10
874.318400
 20
11.481760
 30
0.0
 10
874.278400
 20
11.863230
 30
0.0
 10
874.318400
 20
12.244660
 30
0.0
 10
874.438100
 20
12.609210
 30
0.0
 10
874.631000
 20
12.941260
 30
0.0
 10
874.889700
 20
13.226100
 30
0.0
 10
875.202400
 20
13.451620
 30
0.0
 10
875.555100
 20
13.607640
 30
0.0
 10
875.933800
 20
13.687340
 30
0.0
  0
LWPOLYLINE
  5
103
100
AcDbEntity
  8
Layer_1
 62
7
100
AcDbPolyline
 90
30
 70
1
 10
926.278200
 20
13.687340
 30
0.0
 10
926.656900
 20
13.607640
 30
0.0
 10
927.009700
 20
13.451620
 30
0.0
 10
927.322300
 20
13.226100
 30
0.0
 10
927.581000
 20
12.941260
 30
0.0
 10
927.774000
 20
12.609210
 30
0.0
 10
927.894100
 20
12.244660
 30
0.0
 10
927.934100
 20
11.863230
 30
0.0
 10
927.894100
 20
11.481760
 30
0.0
 10
927.774000
 20
11.117220
 30
0.0
 10
927.581000
 20
10.785160
 30
0.0
 10
927.322300
 20
10.500330
 30
0.0
 10
927.009700
 20
10.275180
 30
0.0
 10
926.656900
 20
10.119160
 30
0.0
 10
926.278200
 20
10.039460
 30
0.0
 10
925.892500
 20
10.039460
 30
0.0
 10
925.513900
 20
10.119160
 30
0.0
 10
925.161200
 20
10.275180
 30
0.0
 10
924.848500
 20
10.500330
 30
0.0
 10
924.589800
 20
10.785160
 30
0.0
 10
924.396800
 20
11.117220
 30
0.0
 10
924.277100
 20
11.481760
 30
0.0
 10
924.237100
 20
11.863230
 30
0.0
 10
924.277100
 20
12.244660
 30
0.0
 10
924.396800
 20
12.609210
 30
0.0
 10
924.589800
 20
12.941260
 30
0.0
 10
924.848500
 20
13.226100
 30
0.0
 10
925.161200
 20
13.451620
 30
0.0
 10
925.513900
 20
13.607640
 30
0.0
 10
925.892500
 20
13.687340
 30
0.0
  0
LWPOLYLINE
  5
104
100
AcDbEntity
  8
Layer_1
 62
7
100
AcDbPolyline
 90
30
 70
1
 10
976.237000
 20
13.687340
 30
0.0
 10
976.615700
 20
13.607640
 30
0.0
 10
976.968400
 20
13.451620
 30
0.0
 10
977.281100
 20
13.226100
 30
0.0
 10
977.539800
 20
12.941260
 30
0.0
 10
977.732800
 20
12.609210
 30
0.0
 10
977.852900
 20
12.244660
 30
0.0
 10
977.892900
 20
11.863230
 30
0.0
 10
977.852900
 20
11.481760
 30
0.0
 10
977.732800
 20
11.117220
 30
0.0
 10
977.539800
 20
10.785160
 30
0.0
 10
977.281100
 20
10.500330
 30
0.0
 10
976.968400
 20
10.275180
 30
0.0
 10
976.615700
 20
10.119160
 30
0.0
 10
976.237000
 20
10.039460
 30
0.0
 10
975.851300
 20
10.039460
 30
0.0
 10
975.472600
 20
10.119160
 30
0.0
 10
975.119900
 20
10.275180
 30
0.0
 10
974.807200
 20
10.500330
 30
0.0
 10
974.548500
 20
10.785160
 30
0.0
 10
974.355500
 20
11.117220
 30
0.0
 10
974.235500
 20
11.481760
 30
0.0
 10
974.195500
 20
11.863230
 30
0.0
 10
974.235500
 20
12.244660
 30
0.0
 10
974.355500
 20
12.609210
 30
0.0
 10
974.548500
 20
12.941260
 30
0.0
 10
974.807200
 20
13.226100
 30
0.0
 10
975.119900
 20
13.451620
 30
0.0
 10
975.472600
 20
13.607640
 30
0.0
 10
975.851300
 20
13.687340
 30
0.0
  0
LWPOLYLINE
  5
105
100
AcDbEntity
  8
Layer_1
 62
7
100
AcDbPolyline
 90
30
 70
1
 10
1096.363600
 20
18.396870
 30
0.0
 10
1096.792600
 20
18.306170
 30
0.0
 10
1097.193400
 20
18.129370
 30
0.0
 10
1097.548300
 20
17.873250
 30
0.0
 10
1097.841800
 20
17.549880
 30
0.0
 10
1098.061200
 20
17.172870
 30
0.0
 10
1098.196800
 20
16.758690
 30
0.0
 10
1098.242800
 20
16.325690
 30
0.0
 10
1098.196800
 20
15.892700
 30
0.0
 10
1098.061200
 20
15.478590
 30
0.0
 10
1097.841800
 20
15.101580
 30
0.0
 10
1097.548300
 20
14.778210
 30
0.0
 10
1097.193400
 20
14.522090
 30
0.0
 10
1096.792600
 20
14.345290
 30
0.0
 10
1096.363600
 20
14.254590
 30
0.0
 10
1095.925000
 20
14.254590
 30
0.0
 10
1095.495900
 20
14.345290
 30
0.0
 10
1095.095100
 20
14.522090
 30
0.0
 10
1094.740200
 20
14.778210
 30
0.0
 10
1094.446700
 20
15.101580
 30
0.0
 10
1094.227300
 20
15.478590
 30
0.0
 10
1094.091700
 20
15.892700
 30
0.0
 10
1094.045700
 20
16.325690
 30
0.0
 10
1094.091700
 20
16.758690
 30
0.0
 10
1094.227300
 20
17.172870
 30
0.0
 10
1094.446700
 20
17.549880
 30
0.0
 10
1094.740200
 20
17.873250
 30
0.0
 10
1095.095100
 20
18.129370
 30
0.0
 10
1095.495900
 20
18.306170
 30
0.0
 10
1095.925000
 20
18.396870
 30
0.0
  0
LWPOLYLINE
  5
106
100
AcDbEntity
  8
Layer_1
 62
7
100
AcDbPolyline
 90
30
 70
1
 10
1147.121400
 20
18.396870
 30
0.0
 10
1147.550400
 20
18.306170
 30
0.0
 10
1147.951200
 20
18.129370
 30
0.0
 10
1148.306200
 20
17.873250
 30
0.0
 10
1148.599600
 20
17.549880
 30
0.0
 10
1148.819000
 20
17.172870
 30
0.0
 10
1148.954600
 20
16.758690
 30
0.0
 10
1149.000600
 20
16.325690
 30
0.0
 10
1148.954600
 20
15.892700
 30
0.0
 10
1148.819000
 20
15.478590
 30
0.0
 10
1148.599600
 20
15.101580
 30
0.0
 10
1148.306200
 20
14.778210
 30
0.0
 10
1147.951200
 20
14.522090
 30
0.0
 10
1147.550400
 20
14.345290
 30
0.0
 10
1147.121400
 20
14.254590
 30
0.0
 10
1146.682700
 20
14.254590
 30
0.0
 10
1146.253700
 20
14.345290
 30
0.0
 10
1145.852900
 20
14.522090
 30
0.0
 10
1145.497900
 20
14.778210
 30
0.0
 10
1145.204500
 20
15.101580
 30
0.0
 10
1144.985100
 20
15.478590
 30
0.0
 10
1144.849500
 20
15.892700
 30
0.0
 10
1144.803500
 20
16.325690
 30
0.0
 10
1144.849500
 20
16.758690
 30
0.0
 10
1144.985100
 20
17.172870
 30
0.0
 10
1145.204500
 20
17.549880
 30
0.0
 10
1145.497900
 20
17.873250
 30
0.0
 10
1145.852900
 20
18.129370
 30
0.0
 10
1146.253700
 20
18.306170
 30
0.0
 10
1146.682700
 20
18.396870
 30
0.0
  0
LWPOLYLINE
  5
107
100
AcDbEntity
  8
Layer_1
 62
7
100
AcDbPolyline
 90
4
 70
1
 10
973.046600
 20
40.624030
 30
0.0
 10
973.046600
 20
17.813220
 30
0.0
 10
877.125800
 20
17.813220
 30
0.0
 10
877.125800
 20
40.624030
 30
0.0
  0
LWPOLYLINE
  5
108
100
AcDbEntity
  8
Layer_1
 62
7
100
AcDbPolyline
 90
4
 70
1
 10
1151.897900
 20
39.929770
 30
0.0
 10
1151.897900
 20
19.102540
 30
0.0
 10
1093.946100
 20
19.102540
 30
0.0
 10
1093.946100
 20
39.929770
 30
0.0
  0
LWPOLYLINE
  5
109
100
AcDbEntity
  8
Layer_1
 62
7
100
AcDbPolyline
 90
30
 70
1
 10
1094.964700
 20
45.472320
 30
0.0
 10
1095.393800
 20
45.381620
 30
0.0
 10
1095.794600
 20
45.204830
 30
0.0
 10
1096.149500
 20
44.948700
 30
0.0
 10
1096.443000
 20
44.625340
 30
0.0
 10
1096.662400
 20
44.248330
 30
0.0
 10
1096.797900
 20
43.834180
 30
0.0
 10
1096.843900
 20
43.401150
 30
0.0
 10
1096.797900
 20
42.968120
 30
0.0
 10
1096.662400
 20
42.554080
 30
0.0
 10
1096.443000
 20
42.177070
 30
0.0
 10
1096.149500
 20
41.853710
 30
0.0
 10
1095.794600
 20
41.597580
 30
0.0
 10
1095.393800
 20
41.420410
 30
0.0
 10
1094.964700
 20
41.329710
 30
0.0
 10
1094.526100
 20
41.329710
 30
0.0
 10
1094.097100
 20
41.420410
 30
0.0
 10
1093.696300
 20
41.597580
 30
0.0
 10
1093.341300
 20
41.853710
 30
0.0
 10
1093.047900
 20
42.177070
 30
0.0
 10
1092.828500
 20
42.554080
 30
0.0
 10
1092.692900
 20
42.968120
 30
0.0
 10
1092.646900
 20
43.401150
 30
0.0
 10
1092.692900
 20
43.834180
 30
0.0
 10
1092.828500
 20
44.248330
 30
0.0
 10
1093.047900
 20
44.625340
 30
0.0
 10
1093.341300
 20
44.948700
 30
0.0
 10
1093.696300
 20
45.204830
 30
0.0
 10
1094.097100
 20
45.381620
 30
0.0
 10
1094.526100
 20
45.472320
 30
0.0
  0
LWPOLYLINE
  5
10a
100
AcDbEntity
  8
Layer_1
 62
7
100
AcDbPolyline
 90
30
 70
1
 10
1147.121400
 20
46.464070
 30
0.0
 10
1147.550400
 20
46.373770
 30
0.0
 10
1147.951200
 20
46.196980
 30
0.0
 10
1148.306200
 20
45.940850
 30
0.0
 10
1148.599600
 20
45.617480
 30
0.0
 10
1148.819000
 20
45.240470
 30
0.0
 10
1148.954600
 20
44.826290
 30
0.0
 10
1149.000600
 20
44.393260
 30
0.0
 10
1148.954600
 20
43.960260
 30
0.0
 10
1148.819000
 20
43.546190
 30
0.0
 10
1148.599600
 20
43.169180
 30
0.0
 10
1148.306200
 20
42.845810
 30
0.0
 10
1147.951200
 20
42.589690
 30
0.0
 10
1147.550400
 20
42.412520
 30
0.0
 10
1147.121400
 20
42.322220
 30
0.0
 10
1146.682700
 20
42.322220
 30
0.0
 10
1146.253700
 20
42.412520
 30
0.0
 10
1145.852900
 20
42.589690
 30
0.0
 10
1145.497900
 20
42.845810
 30
0.0
 10
1145.204500
 20
43.169180
 30
0.0
 10
1144.985100
 20
43.546190
 30
0.0
 10
1144.849500
 20
43.960260
 30
0.0
 10
1144.803500
 20
44.393260
 30
0.0
 10
1144.849500
 20
44.826290
 30
0.0
 10
1144.985100
 20
45.240470
 30
0.0
 10
1145.204500
 20
45.617480
 30
0.0
 10
1145.497900
 20
45.940850
 30
0.0
 10
1145.852900
 20
46.196980
 30
0.0
 10
1146.253700
 20
46.373770
 30
0.0
 10
1146.682700
 20
46.464070
 30
0.0
  0
LWPOLYLINE
  5
10b
100
AcDbEntity
  8
Layer_1
 62
7
100
AcDbPolyline
 90
30
 70
1
 10
876.319500
 20
48.399440
 30
0.0
 10
876.698200
 20
48.319740
 30
0.0
 10
877.050900
 20
48.163720
 30
0.0
 10
877.363600
 20
47.938190
 30
0.0
 10
877.622200
 20
47.653360
 30
0.0
 10
877.815200
 20
47.321300
 30
0.0
 10
877.934900
 20
46.956760
 30
0.0
 10
877.974900
 20
46.575370
 30
0.0
 10
877.934900
 20
46.193940
 30
0.0
 10
877.815200
 20
45.829390
 30
0.0
 10
877.622200
 20
45.497340
 30
0.0
 10
877.363600
 20
45.212500
 30
0.0
 10
877.050900
 20
44.987350
 30
0.0
 10
876.698200
 20
44.831330
 30
0.0
 10
876.319500
 20
44.751630
 30
0.0
 10
875.933800
 20
44.751630
 30
0.0
 10
875.555100
 20
44.831330
 30
0.0
 10
875.202400
 20
44.987350
 30
0.0
 10
874.889700
 20
45.212500
 30
0.0
 10
874.631000
 20
45.497340
 30
0.0
 10
874.438100
 20
45.829390
 30
0.0
 10
874.318400
 20
46.193940
 30
0.0
 10
874.278400
 20
46.575370
 30
0.0
 10
874.318400
 20
46.956760
 30
0.0
 10
874.438100
 20
47.321300
 30
0.0
 10
874.631000
 20
47.653360
 30
0.0
 10
874.889700
 20
47.938190
 30
0.0
 10
875.202400
 20
48.163720
 30
0.0
 10
875.555100
 20
48.319740
 30
0.0
 10
875.933800
 20
48.399440
 30
0.0
  0
LWPOLYLINE
  5
10c
100
AcDbEntity
  8
Layer_1
 62
7
100
AcDbPolyline
 90
30
 70
1
 10
926.278200
 20
48.399440
 30
0.0
 10
926.656900
 20
48.319740
 30
0.0
 10
927.009700
 20
48.163720
 30
0.0
 10
927.322300
 20
47.938190
 30
0.0
 10
927.581000
 20
47.653360
 30
0.0
 10
927.774000
 20
47.321300
 30
0.0
 10
927.894100
 20
46.956760
 30
0.0
 10
927.934100
 20
46.575370
 30
0.0
 10
927.894100
 20
46.193940
 30
0.0
 10
927.774000
 20
45.829390
 30
0.0
 10
927.581000
 20
45.497340
 30
0.0
 10
927.322300
 20
45.212500
 30
0.0
 10
927.009700
 20
44.987350
 30
0.0
 10
926.656900
 20
44.831330
 30
0.0
 10
926.278200
 20
44.751630
 30
0.0
 10
925.892500
 20
44.751630
 30
0.0
 10
925.513900
 20
44.831330
 30
0.0
 10
925.161200
 20
44.987350
 30
0.0
 10
924.848500
 20
45.212500
 30
0.0
 10
924.589800
 20
45.497340
 30
0.0
 10
924.396800
 20
45.829390
 30
0.0
 10
924.277100
 20
46.193940
 30
0.0
 10
924.237100
 20
46.575370
 30
0.0
 10
924.277100
 20
46.956760
 30
0.0
 10
924.396800
 20
47.321300
 30
0.0
 10
924.589800
 20
47.653360
 30
0.0
 10
924.848500
 20
47.938190
 30
0.0
 10
925.161200
 20
48.163720
 30
0.0
 10
925.513900
 20
48.319740
 30
0.0
 10
925.892500
 20
48.399440
 30
0.0
  0
LWPOLYLINE
  5
10d
100
AcDbEntity
  8
Layer_1
 62
7
100
AcDbPolyline
 90
30
 70
1
 10
976.237000
 20
48.399440
 30
0.0
 10
976.615700
 20
48.319740
 30
0.0
 10
976.968400
 20
48.163720
 30
0.0
 10
977.281100
 20
47.938190
 30
0.0
 10
977.539800
 20
47.653360
 30
0.0
 10
977.732800
 20
47.321300
 30
0.0
 10
977.852900
 20
46.956760
 30
0.0
 10
977.892900
 20
46.575370
 30
0.0
 10
977.852900
 20
46.193940
 30
0.0
 10
977.732800
 20
45.829390
 30
0.0
 10
977.539800
 20
45.497340
 30
0.0
 10
977.281100
 20
45.212500
 30
0.0
 10
976.968400
 20
44.987350
 30
0.0
 10
976.615700
 20
44.831330
 30
0.0
 10
976.237000
 20
44.751630
 30
0.0
 10
975.851300
 20
44.751630
 30
0.0
 10
975.472600
 20
44.831330
 30
0.0
 10
975.119900
 20
44.987350
 30
0.0
 10
974.807200
 20
45.212500
 30
0.0
 10
974.548500
 20
45.497340
 30
0.0
 10
974.355500
 20
45.829390
 30
0.0
 10
974.235500
 20
46.193940
 30
0.0
 10
974.195500
 20
46.575370
 30
0.0
 10
974.235500
 20
46.956760
 30
0.0
 10
974.355500
 20
47.321300
 30
0.0
 10
974.548500
 20
47.653360
 30
0.0
 10
974.807200
 20
47.938190
 30
0.0
 10
975.119900
 20
48.163720
 30
0.0
 10
975.472600
 20
48.319740
 30
0.0
 10
975.851300
 20
48.399440
 30
0.0
  0
LWPOLYLINE
  5
10e
100
AcDbEntity
  8
Layer_1
 62
7
100
AcDbPolyline
 90
4
 70
1
 10
1205.940800
 20
130.368960
 30
0.0
 10
607.136750
 20
130.368960
 30
0.0
 10
607.136750
 20
70.366690
 30
0.0
 10
1205.940800
 20
70.366690
 30
0.0
  0
LWPOLYLINE
  5
10f
100
AcDbEntity
  8
Layer_1
 62
7
100
AcDbPolyline
 90
30
 70
1
 10
672.061250
 20
115.039630
 30
0.0
 10
671.632210
 20
115.130330
 30
0.0
 10
671.231460
 20
115.307140
 30
0.0
 10
670.876490
 20
115.563250
 30
0.0
 10
670.583060
 20
115.886630
 30
0.0
 10
670.363650
 20
116.263640
 30
0.0
 10
670.228080
 20
116.677820
 30
0.0
 10
670.182380
 20
117.110820
 30
0.0
 10
670.228080
 20
117.543840
 30
0.0
 10
670.363650
 20
117.957880
 30
0.0
 10
670.583060
 20
118.334890
 30
0.0
 10
670.876490
 20
118.658260
 30
0.0
 10
671.231460
 20
118.914380
 30
0.0
 10
671.632210
 20
119.091180
 30
0.0
 10
672.061250
 20
119.181880
 30
0.0
 10
672.499910
 20
119.181880
 30
0.0
 10
672.928990
 20
119.091180
 30
0.0
 10
673.329700
 20
118.914380
 30
0.0
 10
673.684680
 20
118.658260
 30
0.0
 10
673.978110
 20
118.334890
 30
0.0
 10
674.197520
 20
117.957880
 30
0.0
 10
674.333090
 20
117.543840
 30
0.0
 10
674.378790
 20
117.110820
 30
0.0
 10
674.333090
 20
116.677820
 30
0.0
 10
674.197520
 20
116.263640
 30
0.0
 10
673.978110
 20
115.886630
 30
0.0
 10
673.684680
 20
115.563250
 30
0.0
 10
673.329700
 20
115.307140
 30
0.0
 10
672.928990
 20
115.130330
 30
0.0
 10
672.499910
 20
115.039630
 30
0.0
  0
LWPOLYLINE
  5
110
100
AcDbEntity
  8
Layer_1
 62
7
100
AcDbPolyline
 90
30
 70
1
 10
718.850490
 20
114.163490
 30
0.0
 10
718.472510
 20
114.243190
 30
0.0
 10
718.119410
 20
114.399210
 30
0.0
 10
717.806730
 20
114.624730
 30
0.0
 10
717.548040
 20
114.909570
 30
0.0
 10
717.354690
 20
115.241630
 30
0.0
 10
717.235360
 20
115.606550
 30
0.0
 10
717.194960
 20
115.987970
 30
0.0
 10
717.235360
 20
116.369410
 30
0.0
 10
717.354690
 20
116.734330
 30
0.0
 10
717.548040
 20
117.066380
 30
0.0
 10
717.806730
 20
117.351220
 30
0.0
 10
718.119410
 20
117.576370
 30
0.0
 10
718.472510
 20
117.732380
 30
0.0
 10
718.850490
 20
117.812080
 30
0.0
 10
719.236960
 20
117.812080
 30
0.0
 10
719.614940
 20
117.732380
 30
0.0
 10
719.968030
 20
117.576370
 30
0.0
 10
720.280720
 20
117.351220
 30
0.0
 10
720.539400
 20
117.066380
 30
0.0
 10
720.732370
 20
116.734330
 30
0.0
 10
720.851710
 20
116.369410
 30
0.0
 10
720.892110
 20
115.987970
 30
0.0
 10
720.851710
 20
115.606550
 30
0.0
 10
720.732370
 20
115.241630
 30
0.0
 10
720.539400
 20
114.909570
 30
0.0
 10
720.280720
 20
114.624730
 30
0.0
 10
719.968030
 20
114.399210
 30
0.0
 10
719.614940
 20
114.243190
 30
0.0
 10
719.236960
 20
114.163490
 30
0.0
  0
LWPOLYLINE
  5
111
100
AcDbEntity
  8
Layer_1
 62
7
100
AcDbPolyline
 90
30
 70
1
 10
938.668900
 20
114.163490
 30
0.0
 10
938.290200
 20
114.243190
 30
0.0
 10
937.937500
 20
114.399210
 30
0.0
 10
937.624800
 20
114.624730
 30
0.0
 10
937.366200
 20
114.909570
 30
0.0
 10
937.173200
 20
115.241630
 30
0.0
 10
937.053500
 20
115.606550
 30
0.0
 10
937.013500
 20
115.987970
 30
0.0
 10
937.053500
 20
116.369410
 30
0.0
 10
937.173200
 20
116.734330
 30
0.0
 10
937.366200
 20
117.066380
 30
0.0
 10
937.624800
 20
117.351220
 30
0.0
 10
937.937500
 20
117.576370
 30
0.0
 10
938.290200
 20
117.732380
 30
0.0
 10
938.668900
 20
117.812080
 30
0.0
 10
939.054600
 20
117.812080
 30
0.0
 10
939.433300
 20
117.732380
 30
0.0
 10
939.786000
 20
117.576370
 30
0.0
 10
940.098700
 20
117.351220
 30
0.0
 10
940.357400
 20
117.066380
 30
0.0
 10
940.550400
 20
116.734330
 30
0.0
 10
940.670100
 20
116.369410
 30
0.0
 10
940.710100
 20
115.987970
 30
0.0
 10
940.670100
 20
115.606550
 30
0.0
 10
940.550400
 20
115.241630
 30
0.0
 10
940.357400
 20
114.909570
 30
0.0
 10
940.098700
 20
114.624730
 30
0.0
 10
939.786000
 20
114.399210
 30
0.0
 10
939.433300
 20
114.243190
 30
0.0
 10
939.054600
 20
114.163490
 30
0.0
  0
LWPOLYLINE
  5
112
100
AcDbEntity
  8
Layer_1
 62
7
100
AcDbPolyline
 90
30
 70
1
 10
838.751300
 20
114.163490
 30
0.0
 10
838.372700
 20
114.243190
 30
0.0
 10
838.020000
 20
114.399210
 30
0.0
 10
837.707300
 20
114.624730
 30
0.0
 10
837.448600
 20
114.909570
 30
0.0
 10
837.255600
 20
115.241630
 30
0.0
 10
837.135900
 20
115.606550
 30
0.0
 10
837.095900
 20
115.987970
 30
0.0
 10
837.135900
 20
116.369410
 30
0.0
 10
837.255600
 20
116.734330
 30
0.0
 10
837.448600
 20
117.066380
 30
0.0
 10
837.707300
 20
117.351220
 30
0.0
 10
838.020000
 20
117.576370
 30
0.0
 10
838.372700
 20
117.732380
 30
0.0
 10
838.751300
 20
117.812080
 30
0.0
 10
839.137000
 20
117.812080
 30
0.0
 10
839.515700
 20
117.732380
 30
0.0
 10
839.868500
 20
117.576370
 30
0.0
 10
840.181100
 20
117.351220
 30
0.0
 10
840.439800
 20
117.066380
 30
0.0
 10
840.632800
 20
116.734330
 30
0.0
 10
840.752900
 20
116.369410
 30
0.0
 10
840.792900
 20
115.987970
 30
0.0
 10
840.752900
 20
115.606550
 30
0.0
 10
840.632800
 20
115.241630
 30
0.0
 10
840.439800
 20
114.909570
 30
0.0
 10
840.181100
 20
114.624730
 30
0.0
 10
839.868500
 20
114.399210
 30
0.0
 10
839.515700
 20
114.243190
 30
0.0
 10
839.137000
 20
114.163490
 30
0.0
  0
LWPOLYLINE
  5
113
100
AcDbEntity
  8
Layer_1
 62
7
100
AcDbPolyline
 90
30
 70
1
 10
888.710100
 20
114.163490
 30
0.0
 10
888.331500
 20
114.243190
 30
0.0
 10
887.978700
 20
114.399210
 30
0.0
 10
887.666100
 20
114.624730
 30
0.0
 10
887.407400
 20
114.909570
 30
0.0
 10
887.214400
 20
115.241630
 30
0.0
 10
887.094300
 20
115.606550
 30
0.0
 10
887.054300
 20
115.987970
 30
0.0
 10
887.094300
 20
116.369410
 30
0.0
 10
887.214400
 20
116.734330
 30
0.0
 10
887.407400
 20
117.066380
 30
0.0
 10
887.666100
 20
117.351220
 30
0.0
 10
887.978700
 20
117.576370
 30
0.0
 10
888.331500
 20
117.732380
 30
0.0
 10
888.710100
 20
117.812080
 30
0.0
 10
889.095800
 20
117.812080
 30
0.0
 10
889.474500
 20
117.732380
 30
0.0
 10
889.827200
 20
117.576370
 30
0.0
 10
890.139900
 20
117.351220
 30
0.0
 10
890.398600
 20
117.066380
 30
0.0
 10
890.591600
 20
116.734330
 30
0.0
 10
890.711700
 20
116.369410
 30
0.0
 10
890.751700
 20
115.987970
 30
0.0
 10
890.711700
 20
115.606550
 30
0.0
 10
890.591600
 20
115.241630
 30
0.0
 10
890.398600
 20
114.909570
 30
0.0
 10
890.139900
 20
114.624730
 30
0.0
 10
889.827200
 20
114.399210
 30
0.0
 10
889.474500
 20
114.243190
 30
0.0
 10
889.095800
 20
114.163490
 30
0.0
  0
LWPOLYLINE
  5
114
100
AcDbEntity
  8
Layer_1
 62
7
100
AcDbPolyline
 90
30
 70
1
 10
763.441320
 20
112.429270
 30
0.0
 10
763.012290
 20
112.519970
 30
0.0
 10
762.611500
 20
112.696760
 30
0.0
 10
762.256520
 20
112.952890
 30
0.0
 10
761.963090
 20
113.276250
 30
0.0
 10
761.743690
 20
113.653260
 30
0.0
 10
761.608110
 20
114.067410
 30
0.0
 10
761.562410
 20
114.500400
 30
0.0
 10
761.608110
 20
114.933440
 30
0.0
 10
761.743690
 20
115.347510
 30
0.0
 10
761.963090
 20
115.724520
 30
0.0
 10
762.256520
 20
116.047880
 30
0.0
 10
762.611500
 20
116.304010
 30
0.0
 10
763.012290
 20
116.481180
 30
0.0
 10
763.441320
 20
116.571880
 30
0.0
 10
763.879950
 20
116.571880
 30
0.0
 10
764.308980
 20
116.481180
 30
0.0
 10
764.709770
 20
116.304010
 30
0.0
 10
765.064760
 20
116.047880
 30
0.0
 10
765.358180
 20
115.724520
 30
0.0
 10
765.577590
 20
115.347510
 30
0.0
 10
765.713160
 20
114.933440
 30
0.0
 10
765.758860
 20
114.500400
 30
0.0
 10
765.713160
 20
114.067410
 30
0.0
 10
765.577590
 20
113.653260
 30
0.0
 10
765.358180
 20
113.276250
 30
0.0
 10
765.064760
 20
112.952890
 30
0.0
 10
764.709770
 20
112.696760
 30
0.0
 10
764.308980
 20
112.519970
 30
0.0
 10
763.879950
 20
112.429270
 30
0.0
  0
LWPOLYLINE
  5
115
100
AcDbEntity
  8
Layer_1
 62
7
100
AcDbPolyline
 90
4
 70
1
 10
841.941700
 20
87.226800
 30
0.0
 10
841.941700
 20
110.037600
 30
0.0
 10
937.862600
 20
110.037600
 30
0.0
 10
937.862600
 20
87.226800
 30
0.0
  0
LWPOLYLINE
  5
116
100
AcDbEntity
  8
Layer_1
 62
7
100
AcDbPolyline
 90
4
 70
1
 10
672.082740
 20
85.243300
 30
0.0
 10
672.082740
 20
109.045840
 30
0.0
 10
768.003010
 20
109.045840
 30
0.0
 10
768.003010
 20
85.243300
 30
0.0
  0
LWPOLYLINE
  5
117
100
AcDbEntity
  8
Layer_1
 62
7
100
AcDbPolyline
 90
30
 70
1
 10
674.616130
 20
79.859450
 30
0.0
 10
674.187090
 20
79.950150
 30
0.0
 10
673.786340
 20
80.126940
 30
0.0
 10
673.431370
 20
80.383070
 30
0.0
 10
673.137930
 20
80.706430
 30
0.0
 10
672.918530
 20
81.083450
 30
0.0
 10
672.782960
 20
81.497630
 30
0.0
 10
672.737260
 20
81.930620
 30
0.0
 10
672.782960
 20
82.363660
 30
0.0
 10
672.918530
 20
82.777730
 30
0.0
 10
673.137930
 20
83.154740
 30
0.0
 10
673.431370
 20
83.478100
 30
0.0
 10
673.786340
 20
83.734230
 30
0.0
 10
674.187090
 20
83.911020
 30
0.0
 10
674.616130
 20
84.001720
 30
0.0
 10
675.054790
 20
84.001720
 30
0.0
 10
675.483870
 20
83.911020
 30
0.0
 10
675.884580
 20
83.734230
 30
0.0
 10
676.239560
 20
83.478100
 30
0.0
 10
676.532980
 20
83.154740
 30
0.0
 10
676.752400
 20
82.777730
 30
0.0
 10
676.887960
 20
82.363660
 30
0.0
 10
676.934060
 20
81.930620
 30
0.0
 10
676.887960
 20
81.497630
 30
0.0
 10
676.752400
 20
81.083450
 30
0.0
 10
676.532980
 20
80.706430
 30
0.0
 10
676.239560
 20
80.383070
 30
0.0
 10
675.884580
 20
80.126940
 30
0.0
 10
675.483870
 20
79.950150
 30
0.0
 10
675.054790
 20
79.859450
 30
0.0
  0
LWPOLYLINE
  5
118
100
AcDbEntity
  8
Layer_1
 62
7
100
AcDbPolyline
 90
30
 70
1
 10
938.668900
 20
79.451430
 30
0.0
 10
938.290200
 20
79.531130
 30
0.0
 10
937.937500
 20
79.687140
 30
0.0
 10
937.624800
 20
79.912680
 30
0.0
 10
937.366200
 20
80.197510
 30
0.0
 10
937.173200
 20
80.529560
 30
0.0
 10
937.053500
 20
80.894110
 30
0.0
 10
937.013500
 20
81.275580
 30
0.0
 10
937.053500
 20
81.657010
 30
0.0
 10
937.173200
 20
82.021930
 30
0.0
 10
937.366200
 20
82.353990
 30
0.0
 10
937.624800
 20
82.638820
 30
0.0
 10
937.937500
 20
82.863970
 30
0.0
 10
938.290200
 20
83.019990
 30
0.0
 10
938.668900
 20
83.099690
 30
0.0
 10
939.054600
 20
83.099690
 30
0.0
 10
939.433300
 20
83.019990
 30
0.0
 10
939.786000
 20
82.863970
 30
0.0
 10
940.098700
 20
82.638820
 30
0.0
 10
940.357400
 20
82.353990
 30
0.0
 10
940.550400
 20
82.021930
 30
0.0
 10
940.670100
 20
81.657010
 30
0.0
 10
940.710100
 20
81.275580
 30
0.0
 10
940.670100
 20
80.894110
 30
0.0
 10
940.550400
 20
80.529560
 30
0.0
 10
940.357400
 20
80.197510
 30
0.0
 10
940.098700
 20
79.912680
 30
0.0
 10
939.786000
 20
79.687140
 30
0.0
 10
939.433300
 20
79.531130
 30
0.0
 10
939.054600
 20
79.451430
 30
0.0
  0
LWPOLYLINE
  5
119
100
AcDbEntity
  8
Layer_1
 62
7
100
AcDbPolyline
 90
30
 70
1
 10
888.710100
 20
79.451430
 30
0.0
 10
888.331500
 20
79.531130
 30
0.0
 10
887.978700
 20
79.687140
 30
0.0
 10
887.666100
 20
79.912680
 30
0.0
 10
887.407400
 20
80.197510
 30
0.0
 10
887.214400
 20
80.529560
 30
0.0
 10
887.094300
 20
80.894110
 30
0.0
 10
887.054300
 20
81.275580
 30
0.0
 10
887.094300
 20
81.657010
 30
0.0
 10
887.214400
 20
82.021930
 30
0.0
 10
887.407400
 20
82.353990
 30
0.0
 10
887.666100
 20
82.638820
 30
0.0
 10
887.978700
 20
82.863970
 30
0.0
 10
888.331500
 20
83.019990
 30
0.0
 10
888.710100
 20
83.099690
 30
0.0
 10
889.095800
 20
83.099690
 30
0.0
 10
889.474500
 20
83.019990
 30
0.0
 10
889.827200
 20
82.863970
 30
0.0
 10
890.139900
 20
82.638820
 30
0.0
 10
890.398600
 20
82.353990
 30
0.0
 10
890.591600
 20
82.021930
 30
0.0
 10
890.711700
 20
81.657010
 30
0.0
 10
890.751700
 20
81.275580
 30
0.0
 10
890.711700
 20
80.894110
 30
0.0
 10
890.591600
 20
80.529560
 30
0.0
 10
890.398600
 20
80.197510
 30
0.0
 10
890.139900
 20
79.912680
 30
0.0
 10
889.827200
 20
79.687140
 30
0.0
 10
889.474500
 20
79.531130
 30
0.0
 10
889.095800
 20
79.451430
 30
0.0
  0
LWPOLYLINE
  5
11a
100
AcDbEntity
  8
Layer_1
 62
7
100
AcDbPolyline
 90
30
 70
1
 10
770.807280
 20
79.451430
 30
0.0
 10
770.429300
 20
79.531130
 30
0.0
 10
770.076210
 20
79.687140
 30
0.0
 10
769.763520
 20
79.912680
 30
0.0
 10
769.504850
 20
80.197510
 30
0.0
 10
769.311500
 20
80.529560
 30
0.0
 10
769.192160
 20
80.894110
 30
0.0
 10
769.151760
 20
81.275580
 30
0.0
 10
769.192160
 20
81.657010
 30
0.0
 10
769.311500
 20
82.021930
 30
0.0
 10
769.504850
 20
82.353990
 30
0.0
 10
769.763520
 20
82.638820
 30
0.0
 10
770.076210
 20
82.863970
 30
0.0
 10
770.429300
 20
83.019990
 30
0.0
 10
770.807280
 20
83.099690
 30
0.0
 10
771.193760
 20
83.099690
 30
0.0
 10
771.571730
 20
83.019990
 30
0.0
 10
771.924830
 20
82.863970
 30
0.0
 10
772.237510
 20
82.638820
 30
0.0
 10
772.496200
 20
82.353990
 30
0.0
 10
772.689170
 20
82.021930
 30
0.0
 10
772.808500
 20
81.657010
 30
0.0
 10
772.848900
 20
81.275580
 30
0.0
 10
772.808500
 20
80.894110
 30
0.0
 10
772.689170
 20
80.529560
 30
0.0
 10
772.496200
 20
80.197510
 30
0.0
 10
772.237510
 20
79.912680
 30
0.0
 10
771.924830
 20
79.687140
 30
0.0
 10
771.571730
 20
79.531130
 30
0.0
 10
771.193760
 20
79.451430
 30
0.0
  0
LWPOLYLINE
  5
11b
100
AcDbEntity
  8
Layer_1
 62
7
100
AcDbPolyline
 90
30
 70
1
 10
718.850490
 20
79.451430
 30
0.0
 10
718.472510
 20
79.531130
 30
0.0
 10
718.119410
 20
79.687140
 30
0.0
 10
717.806730
 20
79.912680
 30
0.0
 10
717.548040
 20
80.197510
 30
0.0
 10
717.354690
 20
80.529560
 30
0.0
 10
717.235360
 20
80.894110
 30
0.0
 10
717.194960
 20
81.275580
 30
0.0
 10
717.235360
 20
81.657010
 30
0.0
 10
717.354690
 20
82.021930
 30
0.0
 10
717.548040
 20
82.353990
 30
0.0
 10
717.806730
 20
82.638820
 30
0.0
 10
718.119410
 20
82.863970
 30
0.0
 10
718.472510
 20
83.019990
 30
0.0
 10
718.850490
 20
83.099690
 30
0.0
 10
719.236960
 20
83.099690
 30
0.0
 10
719.614940
 20
83.019990
 30
0.0
 10
719.968030
 20
82.863970
 30
0.0
 10
720.280720
 20
82.638820
 30
0.0
 10
720.539400
 20
82.353990
 30
0.0
 10
720.732370
 20
82.021930
 30
0.0
 10
720.851710
 20
81.657010
 30
0.0
 10
720.892110
 20
81.275580
 30
0.0
 10
720.851710
 20
80.894110
 30
0.0
 10
720.732370
 20
80.529560
 30
0.0
 10
720.539400
 20
80.197510
 30
0.0
 10
720.280720
 20
79.912680
 30
0.0
 10
719.968030
 20
79.687140
 30
0.0
 10
719.614940
 20
79.531130
 30
0.0
 10
719.236960
 20
79.451430
 30
0.0
  0
LWPOLYLINE
  5
11c
100
AcDbEntity
  8
Layer_1
 62
7
100
AcDbPolyline
 90
30
 70
1
 10
838.751300
 20
79.451430
 30
0.0
 10
838.372700
 20
79.531130
 30
0.0
 10
838.020000
 20
79.687140
 30
0.0
 10
837.707300
 20
79.912680
 30
0.0
 10
837.448600
 20
80.197510
 30
0.0
 10
837.255600
 20
80.529560
 30
0.0
 10
837.135900
 20
80.894110
 30
0.0
 10
837.095900
 20
81.275580
 30
0.0
 10
837.135900
 20
81.657010
 30
0.0
 10
837.255600
 20
82.021930
 30
0.0
 10
837.448600
 20
82.353990
 30
0.0
 10
837.707300
 20
82.638820
 30
0.0
 10
838.020000
 20
82.863970
 30
0.0
 10
838.372700
 20
83.019990
 30
0.0
 10
838.751300
 20
83.099690
 30
0.0
 10
839.137000
 20
83.099690
 30
0.0
 10
839.515700
 20
83.019990
 30
0.0
 10
839.868500
 20
82.863970
 30
0.0
 10
840.181100
 20
82.638820
 30
0.0
 10
840.439800
 20
82.353990
 30
0.0
 10
840.632800
 20
82.021930
 30
0.0
 10
840.752900
 20
81.657010
 30
0.0
 10
840.792900
 20
81.275580
 30
0.0
 10
840.752900
 20
80.894110
 30
0.0
 10
840.632800
 20
80.529560
 30
0.0
 10
840.439800
 20
80.197510
 30
0.0
 10
840.181100
 20
79.912680
 30
0.0
 10
839.868500
 20
79.687140
 30
0.0
 10
839.515700
 20
79.531130
 30
0.0
 10
839.137000
 20
79.451430
 30
0.0
  0
LWPOLYLINE
  5
11d
100
AcDbEntity
  8
Layer_1
 62
7
100
AcDbPolyline
 90
4
 70
1
 10
1102.969800
 20
201.868967
 30
0.0
 10
607.726170
 20
201.868967
 30
0.0
 10
607.726170
 20
141.856660
 30
0.0
 10
1102.969800
 20
141.856660
 30
0.0
  0
LWPOLYLINE
  5
11e
100
AcDbEntity
  8
Layer_1
 62
7
100
AcDbPolyline
 90
30
 70
1
 10
759.380380
 20
185.653540
 30
0.0
 10
759.002460
 20
185.733240
 30
0.0
 10
758.649440
 20
185.889250
 30
0.0
 10
758.336810
 20
186.114780
 30
0.0
 10
758.078160
 20
186.399620
 30
0.0
 10
757.884850
 20
186.731670
 30
0.0
 10
757.765540
 20
187.096220
 30
0.0
 10
757.725140
 20
187.477650
 30
0.0
 10
757.765540
 20
187.859080
 30
0.0
 10
757.884850
 20
188.223620
 30
0.0
 10
758.078160
 20
188.555680
 30
0.0
 10
758.336810
 20
188.840520
 30
0.0
 10
758.649440
 20
189.065670
 30
0.0
 10
759.002460
 20
189.221680
 30
0.0
 10
759.380380
 20
189.301380
 30
0.0
 10
759.766790
 20
189.301380
 30
0.0
 10
760.144710
 20
189.221680
 30
0.0
 10
760.497730
 20
189.065670
 30
0.0
 10
760.810360
 20
188.840520
 30
0.0
 10
761.069010
 20
188.555680
 30
0.0
 10
761.261940
 20
188.223620
 30
0.0
 10
761.381250
 20
187.859080
 30
0.0
 10
761.421650
 20
187.477650
 30
0.0
 10
761.381250
 20
187.096220
 30
0.0
 10
761.261940
 20
186.731670
 30
0.0
 10
761.069010
 20
186.399620
 30
0.0
 10
760.810360
 20
186.114780
 30
0.0
 10
760.497730
 20
185.889250
 30
0.0
 10
760.144710
 20
185.733240
 30
0.0
 10
759.766790
 20
185.653540
 30
0.0
  0
LWPOLYLINE
  5
11f
100
AcDbEntity
  8
Layer_1
 62
7
100
AcDbPolyline
 90
30
 70
1
 10
871.268800
 20
185.653540
 30
0.0
 10
870.890200
 20
185.733240
 30
0.0
 10
870.537500
 20
185.889250
 30
0.0
 10
870.224900
 20
186.114780
 30
0.0
 10
869.966200
 20
186.399620
 30
0.0
 10
869.773300
 20
186.731670
 30
0.0
 10
869.653600
 20
187.096220
 30
0.0
 10
869.613600
 20
187.477650
 30
0.0
 10
869.653600
 20
187.859080
 30
0.0
 10
869.773300
 20
188.223620
 30
0.0
 10
869.966200
 20
188.555680
 30
0.0
 10
870.224900
 20
188.840520
 30
0.0
 10
870.537500
 20
189.065670
 30
0.0
 10
870.890200
 20
189.221680
 30
0.0
 10
871.268800
 20
189.301380
 30
0.0
 10
871.654400
 20
189.301380
 30
0.0
 10
872.033000
 20
189.221680
 30
0.0
 10
872.385700
 20
189.065670
 30
0.0
 10
872.698300
 20
188.840520
 30
0.0
 10
872.956900
 20
188.555680
 30
0.0
 10
873.149900
 20
188.223620
 30
0.0
 10
873.269600
 20
187.859080
 30
0.0
 10
873.309600
 20
187.477650
 30
0.0
 10
873.269600
 20
187.096220
 30
0.0
 10
873.149900
 20
186.731670
 30
0.0
 10
872.956900
 20
186.399620
 30
0.0
 10
872.698300
 20
186.114780
 30
0.0
 10
872.385700
 20
185.889250
 30
0.0
 10
872.033000
 20
185.733240
 30
0.0
 10
871.654400
 20
185.653540
 30
0.0
  0
LWPOLYLINE
  5
120
100
AcDbEntity
  8
Layer_1
 62
7
100
AcDbPolyline
 90
30
 70
1
 10
659.480790
 20
185.653540
 30
0.0
 10
659.102830
 20
185.733240
 30
0.0
 10
658.749800
 20
185.889250
 30
0.0
 10
658.437180
 20
186.114780
 30
0.0
 10
658.178530
 20
186.399620
 30
0.0
 10
657.985600
 20
186.731670
 30
0.0
 10
657.866290
 20
187.096220
 30
0.0
 10
657.825890
 20
187.477650
 30
0.0
 10
657.866290
 20
187.859080
 30
0.0
 10
657.985600
 20
188.223620
 30
0.0
 10
658.178530
 20
188.555680
 30
0.0
 10
658.437180
 20
188.840520
 30
0.0
 10
658.749800
 20
189.065670
 30
0.0
 10
659.102830
 20
189.221680
 30
0.0
 10
659.480790
 20
189.301380
 30
0.0
 10
659.867200
 20
189.301380
 30
0.0
 10
660.245100
 20
189.221680
 30
0.0
 10
660.598140
 20
189.065670
 30
0.0
 10
660.910770
 20
188.840520
 30
0.0
 10
661.169400
 20
188.555680
 30
0.0
 10
661.362720
 20
188.223620
 30
0.0
 10
661.482040
 20
187.859080
 30
0.0
 10
661.522440
 20
187.477650
 30
0.0
 10
661.482040
 20
187.096220
 30
0.0
 10
661.362720
 20
186.731670
 30
0.0
 10
661.169400
 20
186.399620
 30
0.0
 10
660.910770
 20
186.114780
 30
0.0
 10
660.598140
 20
185.889250
 30
0.0
 10
660.245100
 20
185.733240
 30
0.0
 10
659.867200
 20
185.653540
 30
0.0
  0
LWPOLYLINE
  5
121
100
AcDbEntity
  8
Layer_1
 62
7
100
AcDbPolyline
 90
30
 70
1
 10
709.430560
 20
185.653540
 30
0.0
 10
709.052650
 20
185.733240
 30
0.0
 10
708.699620
 20
185.889250
 30
0.0
 10
708.386990
 20
186.114780
 30
0.0
 10
708.128350
 20
186.399620
 30
0.0
 10
707.935030
 20
186.731670
 30
0.0
 10
707.815720
 20
187.096220
 30
0.0
 10
707.775320
 20
187.477650
 30
0.0
 10
707.815720
 20
187.859080
 30
0.0
 10
707.935030
 20
188.223620
 30
0.0
 10
708.128350
 20
188.555680
 30
0.0
 10
708.386990
 20
188.840520
 30
0.0
 10
708.699620
 20
189.065670
 30
0.0
 10
709.052650
 20
189.221680
 30
0.0
 10
709.430560
 20
189.301380
 30
0.0
 10
709.816980
 20
189.301380
 30
0.0
 10
710.194890
 20
189.221680
 30
0.0
 10
710.547920
 20
189.065670
 30
0.0
 10
710.860550
 20
188.840520
 30
0.0
 10
711.119190
 20
188.555680
 30
0.0
 10
711.312510
 20
188.223620
 30
0.0
 10
711.431820
 20
187.859080
 30
0.0
 10
711.472220
 20
187.477650
 30
0.0
 10
711.431820
 20
187.096220
 30
0.0
 10
711.312510
 20
186.731670
 30
0.0
 10
711.119190
 20
186.399620
 30
0.0
 10
710.860550
 20
186.114780
 30
0.0
 10
710.547920
 20
185.889250
 30
0.0
 10
710.194890
 20
185.733240
 30
0.0
 10
709.816980
 20
185.653540
 30
0.0
  0
LWPOLYLINE
  5
122
100
AcDbEntity
  8
Layer_1
 62
7
100
AcDbPolyline
 90
30
 70
1
 10
821.318700
 20
185.653540
 30
0.0
 10
820.940000
 20
185.733240
 30
0.0
 10
820.587400
 20
185.889250
 30
0.0
 10
820.274800
 20
186.114780
 30
0.0
 10
820.016100
 20
186.399620
 30
0.0
 10
819.823200
 20
186.731670
 30
0.0
 10
819.703500
 20
187.096220
 30
0.0
 10
819.663500
 20
187.477650
 30
0.0
 10
819.703500
 20
187.859080
 30
0.0
 10
819.823200
 20
188.223620
 30
0.0
 10
820.016100
 20
188.555680
 30
0.0
 10
820.274800
 20
188.840520
 30
0.0
 10
820.587400
 20
189.065670
 30
0.0
 10
820.940000
 20
189.221680
 30
0.0
 10
821.318700
 20
189.301380
 30
0.0
 10
821.704300
 20
189.301380
 30
0.0
 10
822.083000
 20
189.221680
 30
0.0
 10
822.435600
 20
189.065670
 30
0.0
 10
822.748200
 20
188.840520
 30
0.0
 10
823.006900
 20
188.555680
 30
0.0
 10
823.199800
 20
188.223620
 30
0.0
 10
823.319900
 20
187.859080
 30
0.0
 10
823.359900
 20
187.477650
 30
0.0
 10
823.319900
 20
187.096220
 30
0.0
 10
823.199800
 20
186.731670
 30
0.0
 10
823.006900
 20
186.399620
 30
0.0
 10
822.748200
 20
186.114780
 30
0.0
 10
822.435600
 20
185.889250
 30
0.0
 10
822.083000
 20
185.733240
 30
0.0
 10
821.704300
 20
185.653540
 30
0.0
  0
LWPOLYLINE
  5
123
100
AcDbEntity
  8
Layer_1
 62
7
100
AcDbPolyline
 90
30
 70
1
 10
921.218900
 20
185.653540
 30
0.0
 10
920.840300
 20
185.733240
 30
0.0
 10
920.487600
 20
185.889250
 30
0.0
 10
920.175000
 20
186.114780
 30
0.0
 10
919.916300
 20
186.399620
 30
0.0
 10
919.723400
 20
186.731670
 30
0.0
 10
919.603700
 20
187.096220
 30
0.0
 10
919.563700
 20
187.477650
 30
0.0
 10
919.603700
 20
187.859080
 30
0.0
 10
919.723400
 20
188.223620
 30
0.0
 10
919.916300
 20
188.555680
 30
0.0
 10
920.175000
 20
188.840520
 30
0.0
 10
920.487600
 20
189.065670
 30
0.0
 10
920.840300
 20
189.221680
 30
0.0
 10
921.218900
 20
189.301380
 30
0.0
 10
921.604500
 20
189.301380
 30
0.0
 10
921.983100
 20
189.221680
 30
0.0
 10
922.335800
 20
189.065670
 30
0.0
 10
922.648400
 20
188.840520
 30
0.0
 10
922.907100
 20
188.555680
 30
0.0
 10
923.100000
 20
188.223620
 30
0.0
 10
923.219700
 20
187.859080
 30
0.0
 10
923.259700
 20
187.477650
 30
0.0
 10
923.219700
 20
187.096220
 30
0.0
 10
923.100000
 20
186.731670
 30
0.0
 10
922.907100
 20
186.399620
 30
0.0
 10
922.648400
 20
186.114780
 30
0.0
 10
922.335800
 20
185.889250
 30
0.0
 10
921.983100
 20
185.733240
 30
0.0
 10
921.604500
 20
185.653540
 30
0.0
  0
LWPOLYLINE
  5
124
100
AcDbEntity
  8
Layer_1
 62
7
100
AcDbPolyline
 90
4
 70
1
 10
824.508500
 20
156.733290
 30
0.0
 10
824.508500
 20
183.511230
 30
0.0
 10
920.412700
 20
183.511230
 30
0.0
 10
920.412700
 20
156.733290
 30
0.0
  0
LWPOLYLINE
  5
125
100
AcDbEntity
  8
Layer_1
 62
7
100
AcDbPolyline
 90
4
 70
1
 10
662.670980
 20
158.716830
 30
0.0
 10
662.670980
 20
181.527690
 30
0.0
 10
758.574600
 20
181.527690
 30
0.0
 10
758.574600
 20
158.716830
 30
0.0
  0
LWPOLYLINE
  5
126
100
AcDbEntity
  8
Layer_1
 62
7
100
AcDbPolyline
 90
30
 70
1
 10
921.218900
 20
150.941420
 30
0.0
 10
920.840300
 20
151.021120
 30
0.0
 10
920.487600
 20
151.177140
 30
0.0
 10
920.175000
 20
151.402290
 30
0.0
 10
919.916300
 20
151.687130
 30
0.0
 10
919.723400
 20
152.019180
 30
0.0
 10
919.603700
 20
152.383730
 30
0.0
 10
919.563700
 20
152.765200
 30
0.0
 10
919.603700
 20
153.146630
 30
0.0
 10
919.723400
 20
153.511550
 30
0.0
 10
919.916300
 20
153.843610
 30
0.0
 10
920.175000
 20
154.128440
 30
0.0
 10
920.487600
 20
154.353590
 30
0.0
 10
920.840300
 20
154.509610
 30
0.0
 10
921.218900
 20
154.589310
 30
0.0
 10
921.604500
 20
154.589310
 30
0.0
 10
921.983100
 20
154.509610
 30
0.0
 10
922.335800
 20
154.353590
 30
0.0
 10
922.648400
 20
154.128440
 30
0.0
 10
922.907100
 20
153.843610
 30
0.0
 10
923.100000
 20
153.511550
 30
0.0
 10
923.219700
 20
153.146630
 30
0.0
 10
923.259700
 20
152.765200
 30
0.0
 10
923.219700
 20
152.383730
 30
0.0
 10
923.100000
 20
152.019180
 30
0.0
 10
922.907100
 20
151.687130
 30
0.0
 10
922.648400
 20
151.402290
 30
0.0
 10
922.335800
 20
151.177140
 30
0.0
 10
921.983100
 20
151.021120
 30
0.0
 10
921.604500
 20
150.941420
 30
0.0
  0
LWPOLYLINE
  5
127
100
AcDbEntity
  8
Layer_1
 62
7
100
AcDbPolyline
 90
30
 70
1
 10
759.380380
 20
150.941420
 30
0.0
 10
759.002460
 20
151.021120
 30
0.0
 10
758.649440
 20
151.177140
 30
0.0
 10
758.336810
 20
151.402290
 30
0.0
 10
758.078160
 20
151.687130
 30
0.0
 10
757.884850
 20
152.019180
 30
0.0
 10
757.765540
 20
152.383730
 30
0.0
 10
757.725140
 20
152.765200
 30
0.0
 10
757.765540
 20
153.146630
 30
0.0
 10
757.884850
 20
153.511550
 30
0.0
 10
758.078160
 20
153.843610
 30
0.0
 10
758.336810
 20
154.128440
 30
0.0
 10
758.649440
 20
154.353590
 30
0.0
 10
759.002460
 20
154.509610
 30
0.0
 10
759.380380
 20
154.589310
 30
0.0
 10
759.766790
 20
154.589310
 30
0.0
 10
760.144710
 20
154.509610
 30
0.0
 10
760.497730
 20
154.353590
 30
0.0
 10
760.810360
 20
154.128440
 30
0.0
 10
761.069010
 20
153.843610
 30
0.0
 10
761.261940
 20
153.511550
 30
0.0
 10
761.381250
 20
153.146630
 30
0.0
 10
761.421650
 20
152.765200
 30
0.0
 10
761.381250
 20
152.383730
 30
0.0
 10
761.261940
 20
152.019180
 30
0.0
 10
761.069010
 20
151.687130
 30
0.0
 10
760.810360
 20
151.402290
 30
0.0
 10
760.497730
 20
151.177140
 30
0.0
 10
760.144710
 20
151.021120
 30
0.0
 10
759.766790
 20
150.941420
 30
0.0
  0
LWPOLYLINE
  5
128
100
AcDbEntity
  8
Layer_1
 62
7
100
AcDbPolyline
 90
30
 70
1
 10
709.430560
 20
150.941420
 30
0.0
 10
709.052650
 20
151.021120
 30
0.0
 10
708.699620
 20
151.177140
 30
0.0
 10
708.386990
 20
151.402290
 30
0.0
 10
708.128350
 20
151.687130
 30
0.0
 10
707.935030
 20
152.019180
 30
0.0
 10
707.815720
 20
152.383730
 30
0.0
 10
707.775320
 20
152.765200
 30
0.0
 10
707.815720
 20
153.146630
 30
0.0
 10
707.935030
 20
153.511550
 30
0.0
 10
708.128350
 20
153.843610
 30
0.0
 10
708.386990
 20
154.128440
 30
0.0
 10
708.699620
 20
154.353590
 30
0.0
 10
709.052650
 20
154.509610
 30
0.0
 10
709.430560
 20
154.589310
 30
0.0
 10
709.816980
 20
154.589310
 30
0.0
 10
710.194890
 20
154.509610
 30
0.0
 10
710.547920
 20
154.353590
 30
0.0
 10
710.860550
 20
154.128440
 30
0.0
 10
711.119190
 20
153.843610
 30
0.0
 10
711.312510
 20
153.511550
 30
0.0
 10
711.431820
 20
153.146630
 30
0.0
 10
711.472220
 20
152.765200
 30
0.0
 10
711.431820
 20
152.383730
 30
0.0
 10
711.312510
 20
152.019180
 30
0.0
 10
711.119190
 20
151.687130
 30
0.0
 10
710.860550
 20
151.402290
 30
0.0
 10
710.547920
 20
151.177140
 30
0.0
 10
710.194890
 20
151.021120
 30
0.0
 10
709.816980
 20
150.941420
 30
0.0
  0
LWPOLYLINE
  5
129
100
AcDbEntity
  8
Layer_1
 62
7
100
AcDbPolyline
 90
30
 70
1
 10
821.318700
 20
150.941420
 30
0.0
 10
820.940000
 20
151.021120
 30
0.0
 10
820.587400
 20
151.177140
 30
0.0
 10
820.274800
 20
151.402290
 30
0.0
 10
820.016100
 20
151.687130
 30
0.0
 10
819.823200
 20
152.019180
 30
0.0
 10
819.703500
 20
152.383730
 30
0.0
 10
819.663500
 20
152.765200
 30
0.0
 10
819.703500
 20
153.146630
 30
0.0
 10
819.823200
 20
153.511550
 30
0.0
 10
820.016100
 20
153.843610
 30
0.0
 10
820.274800
 20
154.128440
 30
0.0
 10
820.587400
 20
154.353590
 30
0.0
 10
820.940000
 20
154.509610
 30
0.0
 10
821.318700
 20
154.589310
 30
0.0
 10
821.704300
 20
154.589310
 30
0.0
 10
822.083000
 20
154.509610
 30
0.0
 10
822.435600
 20
154.353590
 30
0.0
 10
822.748200
 20
154.128440
 30
0.0
 10
823.006900
 20
153.843610
 30
0.0
 10
823.199800
 20
153.511550
 30
0.0
 10
823.319900
 20
153.146630
 30
0.0
 10
823.359900
 20
152.765200
 30
0.0
 10
823.319900
 20
152.383730
 30
0.0
 10
823.199800
 20
152.019180
 30
0.0
 10
823.006900
 20
151.687130
 30
0.0
 10
822.748200
 20
151.402290
 30
0.0
 10
822.435600
 20
151.177140
 30
0.0
 10
822.083000
 20
151.021120
 30
0.0
 10
821.704300
 20
150.941420
 30
0.0
  0
LWPOLYLINE
  5
12a
100
AcDbEntity
  8
Layer_1
 62
7
100
AcDbPolyline
 90
30
 70
1
 10
871.268800
 20
150.941420
 30
0.0
 10
870.890200
 20
151.021120
 30
0.0
 10
870.537500
 20
151.177140
 30
0.0
 10
870.224900
 20
151.402290
 30
0.0
 10
869.966200
 20
151.687130
 30
0.0
 10
869.773300
 20
152.019180
 30
0.0
 10
869.653600
 20
152.383730
 30
0.0
 10
869.613600
 20
152.765200
 30
0.0
 10
869.653600
 20
153.146630
 30
0.0
 10
869.773300
 20
153.511550
 30
0.0
 10
869.966200
 20
153.843610
 30
0.0
 10
870.224900
 20
154.128440
 30
0.0
 10
870.537500
 20
154.353590
 30
0.0
 10
870.890200
 20
154.509610
 30
0.0
 10
871.268800
 20
154.589310
 30
0.0
 10
871.654400
 20
154.589310
 30
0.0
 10
872.033000
 20
154.509610
 30
0.0
 10
872.385700
 20
154.353590
 30
0.0
 10
872.698300
 20
154.128440
 30
0.0
 10
872.956900
 20
153.843610
 30
0.0
 10
873.149900
 20
153.511550
 30
0.0
 10
873.269600
 20
153.146630
 30
0.0
 10
873.309600
 20
152.765200
 30
0.0
 10
873.269600
 20
152.383730
 30
0.0
 10
873.149900
 20
152.019180
 30
0.0
 10
872.956900
 20
151.687130
 30
0.0
 10
872.698300
 20
151.402290
 30
0.0
 10
872.385700
 20
151.177140
 30
0.0
 10
872.033000
 20
151.021120
 30
0.0
 10
871.654400
 20
150.941420
 30
0.0
  0
LWPOLYLINE
  5
12b
100
AcDbEntity
  8
Layer_1
 62
7
100
AcDbPolyline
 90
30
 70
1
 10
659.480790
 20
150.941420
 30
0.0
 10
659.102830
 20
151.021120
 30
0.0
 10
658.749800
 20
151.177140
 30
0.0
 10
658.437180
 20
151.402290
 30
0.0
 10
658.178530
 20
151.687130
 30
0.0
 10
657.985600
 20
152.019180
 30
0.0
 10
657.866290
 20
152.383730
 30
0.0
 10
657.825890
 20
152.765200
 30
0.0
 10
657.866290
 20
153.146630
 30
0.0
 10
657.985600
 20
153.511550
 30
0.0
 10
658.178530
 20
153.843610
 30
0.0
 10
658.437180
 20
154.128440
 30
0.0
 10
658.749800
 20
154.353590
 30
0.0
 10
659.102830
 20
154.509610
 30
0.0
 10
659.480790
 20
154.589310
 30
0.0
 10
659.867200
 20
154.589310
 30
0.0
 10
660.245100
 20
154.509610
 30
0.0
 10
660.598140
 20
154.353590
 30
0.0
 10
660.910770
 20
154.128440
 30
0.0
 10
661.169400
 20
153.843610
 30
0.0
 10
661.362720
 20
153.511550
 30
0.0
 10
661.482040
 20
153.146630
 30
0.0
 10
661.522440
 20
152.765200
 30
0.0
 10
661.482040
 20
152.383730
 30
0.0
 10
661.362720
 20
152.019180
 30
0.0
 10
661.169400
 20
151.687130
 30
0.0
 10
660.910770
 20
151.402290
 30
0.0
 10
660.598140
 20
151.177140
 30
0.0
 10
660.245100
 20
151.021120
 30
0.0
 10
659.867200
 20
150.941420
 30
0.0
  0
LWPOLYLINE
  5
12c
100
AcDbEntity
  8
Layer_1
 62
7
100
AcDbPolyline
 90
4
 70
1
 10
1105.524900
 20
279.732052
 30
0.0
 10
610.821460
 20
279.732052
 30
0.0
 10
610.821460
 20
219.719775
 30
0.0
 10
1105.524900
 20
219.719775
 30
0.0
  0
LWPOLYLINE
  5
12d
100
AcDbEntity
  8
Layer_1
 62
7
100
AcDbPolyline
 90
12
 70
1
 10
707.723960
 20
225.670422
 30
0.0
 10
707.723960
 20
239.555283
 30
0.0
 10
702.729010
 20
239.555283
 30
0.0
 10
702.729010
 20
260.382544
 30
0.0
 10
707.723960
 20
260.382544
 30
0.0
 10
707.723960
 20
274.267405
 30
0.0
 10
797.633500
 20
274.267405
 30
0.0
 10
797.633500
 20
260.382544
 30
0.0
 10
802.628600
 20
260.382544
 30
0.0
 10
802.628600
 20
239.555283
 30
0.0
 10
797.633500
 20
239.555283
 30
0.0
 10
797.633500
 20
225.670422
 30
0.0
  0
LWPOLYLINE
  5
12e
100
AcDbEntity
  8
Layer_1
 62
7
100
AcDbPolyline
 90
30
 70
1
 10
631.400350
 20
266.315548
 30
0.0
 10
630.852420
 20
266.431518
 30
0.0
 10
630.340620
 20
266.657418
 30
0.0
 10
629.887380
 20
266.984188
 30
0.0
 10
629.512460
 20
267.397538
 30
0.0
 10
629.232290
 20
267.879158
 30
0.0
 10
629.058990
 20
268.408178
 30
0.0
 10
629.000390
 20
268.961308
 30
0.0
 10
629.058990
 20
269.514388
 30
0.0
 10
629.232290
 20
270.043418
 30
0.0
 10
629.512460
 20
270.524988
 30
0.0
 10
629.887380
 20
270.938378
 30
0.0
 10
630.340620
 20
271.265145
 30
0.0
 10
630.852420
 20
271.491425
 30
0.0
 10
631.400350
 20
271.607025
 30
0.0
 10
631.960600
 20
271.607025
 30
0.0
 10
632.508530
 20
271.491425
 30
0.0
 10
633.020440
 20
271.265145
 30
0.0
 10
633.473570
 20
270.938378
 30
0.0
 10
633.848500
 20
270.524988
 30
0.0
 10
634.128660
 20
270.043418
 30
0.0
 10
634.301970
 20
269.514388
 30
0.0
 10
634.360470
 20
268.961308
 30
0.0
 10
634.301970
 20
268.408178
 30
0.0
 10
634.128660
 20
267.879158
 30
0.0
 10
633.848500
 20
267.397538
 30
0.0
 10
633.473570
 20
266.984188
 30
0.0
 10
633.020440
 20
266.657418
 30
0.0
 10
632.508530
 20
266.431518
 30
0.0
 10
631.960600
 20
266.315548
 30
0.0
  0
LWPOLYLINE
  5
12f
100
AcDbEntity
  8
Layer_1
 62
7
100
AcDbPolyline
 90
30
 70
1
 10
645.941820
 20
234.317596
 30
0.0
 10
642.103000
 20
235.127676
 30
0.0
 10
638.517610
 20
236.712446
 30
0.0
 10
635.342480
 20
239.002686
 30
0.0
 10
632.716420
 20
241.898153
 30
0.0
 10
630.754100
 20
245.272470
 30
0.0
 10
629.541220
 20
248.978020
 30
0.0
 10
629.131030
 20
252.852987
 30
0.0
 10
629.541220
 20
256.727954
 30
0.0
 10
630.754100
 20
260.433544
 30
0.0
 10
632.716420
 20
263.807821
 30
0.0
 10
635.342480
 20
266.703318
 30
0.0
 10
638.517610
 20
268.993418
 30
0.0
 10
642.103000
 20
270.578178
 30
0.0
 10
645.941820
 20
271.388265
 30
0.0
 10
649.866510
 20
271.388265
 30
0.0
 10
653.705320
 20
270.578178
 30
0.0
 10
657.290720
 20
268.993418
 30
0.0
 10
660.465840
 20
266.703318
 30
0.0
 10
663.091980
 20
263.807821
 30
0.0
 10
665.054300
 20
260.433544
 30
0.0
 10
666.267100
 20
256.727954
 30
0.0
 10
666.677260
 20
252.852987
 30
0.0
 10
666.267100
 20
248.978020
 30
0.0
 10
665.054300
 20
245.272470
 30
0.0
 10
663.091980
 20
241.898153
 30
0.0
 10
660.465840
 20
239.002686
 30
0.0
 10
657.290720
 20
236.712446
 30
0.0
 10
653.705320
 20
235.127676
 30
0.0
 10
649.866510
 20
234.317596
 30
0.0
  0
LWPOLYLINE
  5
130
100
AcDbEntity
  8
Layer_1
 62
7
100
AcDbPolyline
 90
30
 70
1
 10
664.776790
 20
265.323761
 30
0.0
 10
664.228840
 20
265.439361
 30
0.0
 10
663.717040
 20
265.665261
 30
0.0
 10
663.263800
 20
265.992028
 30
0.0
 10
662.888880
 20
266.405378
 30
0.0
 10
662.608710
 20
266.886988
 30
0.0
 10
662.435790
 20
267.416018
 30
0.0
 10
662.377190
 20
267.969098
 30
0.0
 10
662.435790
 20
268.522188
 30
0.0
 10
662.608710
 20
269.051218
 30
0.0
 10
662.888880
 20
269.532828
 30
0.0
 10
663.263800
 20
269.946218
 30
0.0
 10
663.717040
 20
270.272988
 30
0.0
 10
664.228840
 20
270.498888
 30
0.0
 10
664.776790
 20
270.614488
 30
0.0
 10
665.337020
 20
270.614488
 30
0.0
 10
665.884950
 20
270.498888
 30
0.0
 10
666.396870
 20
270.272988
 30
0.0
 10
666.849990
 20
269.946218
 30
0.0
 10
667.224930
 20
269.532828
 30
0.0
 10
667.505080
 20
269.051218
 30
0.0
 10
667.678010
 20
268.522188
 30
0.0
 10
667.736610
 20
267.969098
 30
0.0
 10
667.678010
 20
267.416018
 30
0.0
 10
667.505080
 20
266.886988
 30
0.0
 10
667.224930
 20
266.405378
 30
0.0
 10
666.849990
 20
265.992028
 30
0.0
 10
666.396870
 20
265.665261
 30
0.0
 10
665.884950
 20
265.439361
 30
0.0
 10
665.337020
 20
265.323761
 30
0.0
  0
LWPOLYLINE
  5
131
100
AcDbEntity
  8
Layer_1
 62
7
100
AcDbPolyline
 90
30
 70
1
 10
842.395800
 20
263.516641
 30
0.0
 10
842.017100
 20
263.596341
 30
0.0
 10
841.664500
 20
263.752351
 30
0.0
 10
841.351900
 20
263.977881
 30
0.0
 10
841.093200
 20
264.262721
 30
0.0
 10
840.900300
 20
264.594771
 30
0.0
 10
840.780200
 20
264.959321
 30
0.0
 10
840.740200
 20
265.340751
 30
0.0
 10
840.780200
 20
265.722181
 30
0.0
 10
840.900300
 20
266.086718
 30
0.0
 10
841.093200
 20
266.418778
 30
0.0
 10
841.351900
 20
266.703988
 30
0.0
 10
841.664500
 20
266.929138
 30
0.0
 10
842.017100
 20
267.085158
 30
0.0
 10
842.395800
 20
267.164858
 30
0.0
 10
842.781400
 20
267.164858
 30
0.0
 10
843.160000
 20
267.085158
 30
0.0
 10
843.512700
 20
266.929138
 30
0.0
 10
843.825300
 20
266.703988
 30
0.0
 10
844.084000
 20
266.418778
 30
0.0
 10
844.276900
 20
266.086718
 30
0.0
 10
844.396600
 20
265.722181
 30
0.0
 10
844.436600
 20
265.340751
 30
0.0
 10
844.396600
 20
264.959321
 30
0.0
 10
844.276900
 20
264.594771
 30
0.0
 10
844.084000
 20
264.262721
 30
0.0
 10
843.825300
 20
263.977881
 30
0.0
 10
843.512700
 20
263.752351
 30
0.0
 10
843.160000
 20
263.596341
 30
0.0
 10
842.781400
 20
263.516641
 30
0.0
  0
LWPOLYLINE
  5
132
100
AcDbEntity
  8
Layer_1
 62
7
100
AcDbPolyline
 90
30
 70
1
 10
892.345800
 20
263.516641
 30
0.0
 10
891.967200
 20
263.596341
 30
0.0
 10
891.614500
 20
263.752351
 30
0.0
 10
891.301900
 20
263.977881
 30
0.0
 10
891.043300
 20
264.262721
 30
0.0
 10
890.850300
 20
264.594771
 30
0.0
 10
890.730600
 20
264.959321
 30
0.0
 10
890.690600
 20
265.340751
 30
0.0
 10
890.730600
 20
265.722181
 30
0.0
 10
890.850300
 20
266.086718
 30
0.0
 10
891.043300
 20
266.418778
 30
0.0
 10
891.301900
 20
266.703988
 30
0.0
 10
891.614500
 20
266.929138
 30
0.0
 10
891.967200
 20
267.085158
 30
0.0
 10
892.345800
 20
267.164858
 30
0.0
 10
892.731500
 20
267.164858
 30
0.0
 10
893.110000
 20
267.085158
 30
0.0
 10
893.462700
 20
266.929138
 30
0.0
 10
893.775300
 20
266.703988
 30
0.0
 10
894.034000
 20
266.418778
 30
0.0
 10
894.226900
 20
266.086718
 30
0.0
 10
894.346600
 20
265.722181
 30
0.0
 10
894.386600
 20
265.340751
 30
0.0
 10
894.346600
 20
264.959321
 30
0.0
 10
894.226900
 20
264.594771
 30
0.0
 10
894.034000
 20
264.262721
 30
0.0
 10
893.775300
 20
263.977881
 30
0.0
 10
893.462700
 20
263.752351
 30
0.0
 10
893.110000
 20
263.596341
 30
0.0
 10
892.731500
 20
263.516641
 30
0.0
  0
LWPOLYLINE
  5
133
100
AcDbEntity
  8
Layer_1
 62
7
100
AcDbPolyline
 90
30
 70
1
 10
702.535850
 20
263.516641
 30
0.0
 10
702.157890
 20
263.596341
 30
0.0
 10
701.804860
 20
263.752351
 30
0.0
 10
701.492240
 20
263.977881
 30
0.0
 10
701.233590
 20
264.262721
 30
0.0
 10
701.040280
 20
264.594771
 30
0.0
 10
700.920970
 20
264.959321
 30
0.0
 10
700.880570
 20
265.340751
 30
0.0
 10
700.920970
 20
265.722181
 30
0.0
 10
701.040280
 20
266.086718
 30
0.0
 10
701.233590
 20
266.418778
 30
0.0
 10
701.492240
 20
266.703988
 30
0.0
 10
701.804860
 20
266.929138
 30
0.0
 10
702.157890
 20
267.085158
 30
0.0
 10
702.535850
 20
267.164858
 30
0.0
 10
702.922220
 20
267.164858
 30
0.0
 10
703.300130
 20
267.085158
 30
0.0
 10
703.653160
 20
266.929138
 30
0.0
 10
703.965790
 20
266.703988
 30
0.0
 10
704.224430
 20
266.418778
 30
0.0
 10
704.417750
 20
266.086718
 30
0.0
 10
704.537060
 20
265.722181
 30
0.0
 10
704.577460
 20
265.340751
 30
0.0
 10
704.537060
 20
264.959321
 30
0.0
 10
704.417750
 20
264.594771
 30
0.0
 10
704.224430
 20
264.262721
 30
0.0
 10
703.965790
 20
263.977881
 30
0.0
 10
703.653160
 20
263.752351
 30
0.0
 10
703.300130
 20
263.596341
 30
0.0
 10
702.922220
 20
263.516641
 30
0.0
  0
LWPOLYLINE
  5
134
100
AcDbEntity
  8
Layer_1
 62
7
100
AcDbPolyline
 90
30
 70
1
 10
942.295800
 20
263.516641
 30
0.0
 10
941.917200
 20
263.596341
 30
0.0
 10
941.564600
 20
263.752351
 30
0.0
 10
941.251900
 20
263.977881
 30
0.0
 10
940.993300
 20
264.262721
 30
0.0
 10
940.800400
 20
264.594771
 30
0.0
 10
940.680300
 20
264.959321
 30
0.0
 10
940.640300
 20
265.340751
 30
0.0
 10
940.680300
 20
265.722181
 30
0.0
 10
940.800400
 20
266.086718
 30
0.0
 10
940.993300
 20
266.418778
 30
0.0
 10
941.251900
 20
266.703988
 30
0.0
 10
941.564600
 20
266.929138
 30
0.0
 10
941.917200
 20
267.085158
 30
0.0
 10
942.295800
 20
267.164858
 30
0.0
 10
942.681400
 20
267.164858
 30
0.0
 10
943.060100
 20
267.085158
 30
0.0
 10
943.412800
 20
266.929138
 30
0.0
 10
943.725400
 20
266.703988
 30
0.0
 10
943.984000
 20
266.418778
 30
0.0
 10
944.177000
 20
266.086718
 30
0.0
 10
944.296700
 20
265.722181
 30
0.0
 10
944.336700
 20
265.340751
 30
0.0
 10
944.296700
 20
264.959321
 30
0.0
 10
944.177000
 20
264.594771
 30
0.0
 10
943.984000
 20
264.262721
 30
0.0
 10
943.725400
 20
263.977881
 30
0.0
 10
943.412800
 20
263.752351
 30
0.0
 10
943.060100
 20
263.596341
 30
0.0
 10
942.681400
 20
263.516641
 30
0.0
  0
LWPOLYLINE
  5
135
100
AcDbEntity
  8
Layer_1
 62
7
100
AcDbPolyline
 90
30
 70
1
 10
802.435400
 20
263.516641
 30
0.0
 10
802.057400
 20
263.596341
 30
0.0
 10
801.704400
 20
263.752351
 30
0.0
 10
801.391800
 20
263.977881
 30
0.0
 10
801.133100
 20
264.262721
 30
0.0
 10
800.939800
 20
264.594771
 30
0.0
 10
800.820500
 20
264.959321
 30
0.0
 10
800.780500
 20
265.340751
 30
0.0
 10
800.820500
 20
265.722181
 30
0.0
 10
800.939800
 20
266.086718
 30
0.0
 10
801.133100
 20
266.418778
 30
0.0
 10
801.391800
 20
266.703988
 30
0.0
 10
801.704400
 20
266.929138
 30
0.0
 10
802.057400
 20
267.085158
 30
0.0
 10
802.435400
 20
267.164858
 30
0.0
 10
802.821800
 20
267.164858
 30
0.0
 10
803.199700
 20
267.085158
 30
0.0
 10
803.552700
 20
266.929138
 30
0.0
 10
803.865300
 20
266.703988
 30
0.0
 10
804.124000
 20
266.418778
 30
0.0
 10
804.316900
 20
266.086718
 30
0.0
 10
804.436200
 20
265.722181
 30
0.0
 10
804.476200
 20
265.340751
 30
0.0
 10
804.436200
 20
264.959321
 30
0.0
 10
804.316900
 20
264.594771
 30
0.0
 10
804.124000
 20
264.262721
 30
0.0
 10
803.865300
 20
263.977881
 30
0.0
 10
803.552700
 20
263.752351
 30
0.0
 10
803.199700
 20
263.596341
 30
0.0
 10
802.821800
 20
263.516641
 30
0.0
  0
LWPOLYLINE
  5
136
100
AcDbEntity
  8
Layer_1
 62
7
100
AcDbPolyline
 90
4
 70
1
 10
845.585600
 20
236.579966
 30
0.0
 10
845.585600
 20
259.390794
 30
0.0
 10
941.489600
 20
259.390794
 30
0.0
 10
941.489600
 20
236.579966
 30
0.0
  0
LWPOLYLINE
  5
137
100
AcDbEntity
  8
Layer_1
 62
7
100
AcDbPolyline
 90
30
 70
1
 10
631.400350
 20
233.640529
 30
0.0
 10
630.852420
 20
233.756129
 30
0.0
 10
630.340620
 20
233.982409
 30
0.0
 10
629.887380
 20
234.309176
 30
0.0
 10
629.512460
 20
234.722566
 30
0.0
 10
629.232290
 20
235.204176
 30
0.0
 10
629.058990
 20
235.733166
 30
0.0
 10
629.000390
 20
236.286246
 30
0.0
 10
629.058990
 20
236.839376
 30
0.0
 10
629.232290
 20
237.368396
 30
0.0
 10
629.512460
 20
237.850016
 30
0.0
 10
629.887380
 20
238.263366
 30
0.0
 10
630.340620
 20
238.590136
 30
0.0
 10
630.852420
 20
238.816036
 30
0.0
 10
631.400350
 20
238.931636
 30
0.0
 10
631.960600
 20
238.931636
 30
0.0
 10
632.508530
 20
238.816036
 30
0.0
 10
633.020440
 20
238.590136
 30
0.0
 10
633.473570
 20
238.263366
 30
0.0
 10
633.848500
 20
237.850016
 30
0.0
 10
634.128660
 20
237.368396
 30
0.0
 10
634.301970
 20
236.839376
 30
0.0
 10
634.360470
 20
236.286246
 30
0.0
 10
634.301970
 20
235.733166
 30
0.0
 10
634.128660
 20
235.204176
 30
0.0
 10
633.848500
 20
234.722566
 30
0.0
 10
633.473570
 20
234.309176
 30
0.0
 10
633.020440
 20
233.982409
 30
0.0
 10
632.508530
 20
233.756129
 30
0.0
 10
631.960600
 20
233.640529
 30
0.0
  0
LWPOLYLINE
  5
138
100
AcDbEntity
  8
Layer_1
 62
7
100
AcDbPolyline
 90
30
 70
1
 10
664.776790
 20
233.640529
 30
0.0
 10
664.228840
 20
233.756129
 30
0.0
 10
663.717040
 20
233.982409
 30
0.0
 10
663.263800
 20
234.309176
 30
0.0
 10
662.888880
 20
234.722566
 30
0.0
 10
662.608710
 20
235.204176
 30
0.0
 10
662.435790
 20
235.733166
 30
0.0
 10
662.377190
 20
236.286246
 30
0.0
 10
662.435790
 20
236.839376
 30
0.0
 10
662.608710
 20
237.368396
 30
0.0
 10
662.888880
 20
237.850016
 30
0.0
 10
663.263800
 20
238.263366
 30
0.0
 10
663.717040
 20
238.590136
 30
0.0
 10
664.228840
 20
238.816036
 30
0.0
 10
664.776790
 20
238.931636
 30
0.0
 10
665.337020
 20
238.931636
 30
0.0
 10
665.884950
 20
238.816036
 30
0.0
 10
666.396870
 20
238.590136
 30
0.0
 10
666.849990
 20
238.263366
 30
0.0
 10
667.224930
 20
237.850016
 30
0.0
 10
667.505080
 20
237.368396
 30
0.0
 10
667.678010
 20
236.839376
 30
0.0
 10
667.736610
 20
236.286246
 30
0.0
 10
667.678010
 20
235.733166
 30
0.0
 10
667.505080
 20
235.204176
 30
0.0
 10
667.224930
 20
234.722566
 30
0.0
 10
666.849990
 20
234.309176
 30
0.0
 10
666.396870
 20
233.982409
 30
0.0
 10
665.884950
 20
233.756129
 30
0.0
 10
665.337020
 20
233.640529
 30
0.0
  0
LWPOLYLINE
  5
139
100
AcDbEntity
  8
Layer_1
 62
7
100
AcDbPolyline
 90
30
 70
1
 10
802.435400
 20
228.804559
 30
0.0
 10
802.057400
 20
228.884259
 30
0.0
 10
801.704400
 20
229.040269
 30
0.0
 10
801.391800
 20
229.265419
 30
0.0
 10
801.133100
 20
229.550639
 30
0.0
 10
800.939800
 20
229.882689
 30
0.0
 10
800.820500
 20
230.247239
 30
0.0
 10
800.780500
 20
230.628699
 30
0.0
 10
800.820500
 20
231.010129
 30
0.0
 10
800.939800
 20
231.375059
 30
0.0
 10
801.133100
 20
231.707109
 30
0.0
 10
801.391800
 20
231.991949
 30
0.0
 10
801.704400
 20
232.217099
 30
0.0
 10
802.057400
 20
232.373119
 30
0.0
 10
802.435400
 20
232.452819
 30
0.0
 10
802.821800
 20
232.452819
 30
0.0
 10
803.199700
 20
232.373119
 30
0.0
 10
803.552700
 20
232.217099
 30
0.0
 10
803.865300
 20
231.991949
 30
0.0
 10
804.124000
 20
231.707109
 30
0.0
 10
804.316900
 20
231.375059
 30
0.0
 10
804.436200
 20
231.010129
 30
0.0
 10
804.476200
 20
230.628699
 30
0.0
 10
804.436200
 20
230.247239
 30
0.0
 10
804.316900
 20
229.882689
 30
0.0
 10
804.124000
 20
229.550639
 30
0.0
 10
803.865300
 20
229.265419
 30
0.0
 10
803.552700
 20
229.040269
 30
0.0
 10
803.199700
 20
228.884259
 30
0.0
 10
802.821800
 20
228.804559
 30
0.0
  0
LWPOLYLINE
  5
13a
100
AcDbEntity
  8
Layer_1
 62
7
100
AcDbPolyline
 90
30
 70
1
 10
942.295800
 20
228.804559
 30
0.0
 10
941.917200
 20
228.884259
 30
0.0
 10
941.564600
 20
229.040269
 30
0.0
 10
941.251900
 20
229.265419
 30
0.0
 10
940.993300
 20
229.550639
 30
0.0
 10
940.800400
 20
229.882689
 30
0.0
 10
940.680300
 20
230.247239
 30
0.0
 10
940.640300
 20
230.628699
 30
0.0
 10
940.680300
 20
231.010129
 30
0.0
 10
940.800400
 20
231.375059
 30
0.0
 10
940.993300
 20
231.707109
 30
0.0
 10
941.251900
 20
231.991949
 30
0.0
 10
941.564600
 20
232.217099
 30
0.0
 10
941.917200
 20
232.373119
 30
0.0
 10
942.295800
 20
232.452819
 30
0.0
 10
942.681400
 20
232.452819
 30
0.0
 10
943.060100
 20
232.373119
 30
0.0
 10
943.412800
 20
232.217099
 30
0.0
 10
943.725400
 20
231.991949
 30
0.0
 10
943.984000
 20
231.707109
 30
0.0
 10
944.177000
 20
231.375059
 30
0.0
 10
944.296700
 20
231.010129
 30
0.0
 10
944.336700
 20
230.628699
 30
0.0
 10
944.296700
 20
230.247239
 30
0.0
 10
944.177000
 20
229.882689
 30
0.0
 10
943.984000
 20
229.550639
 30
0.0
 10
943.725400
 20
229.265419
 30
0.0
 10
943.412800
 20
229.040269
 30
0.0
 10
943.060100
 20
228.884259
 30
0.0
 10
942.681400
 20
228.804559
 30
0.0
  0
LWPOLYLINE
  5
13b
100
AcDbEntity
  8
Layer_1
 62
7
100
AcDbPolyline
 90
30
 70
1
 10
702.535850
 20
228.804559
 30
0.0
 10
702.157890
 20
228.884259
 30
0.0
 10
701.804860
 20
229.040269
 30
0.0
 10
701.492240
 20
229.265419
 30
0.0
 10
701.233590
 20
229.550639
 30
0.0
 10
701.040280
 20
229.882689
 30
0.0
 10
700.920970
 20
230.247239
 30
0.0
 10
700.880570
 20
230.628699
 30
0.0
 10
700.920970
 20
231.010129
 30
0.0
 10
701.040280
 20
231.375059
 30
0.0
 10
701.233590
 20
231.707109
 30
0.0
 10
701.492240
 20
231.991949
 30
0.0
 10
701.804860
 20
232.217099
 30
0.0
 10
702.157890
 20
232.373119
 30
0.0
 10
702.535850
 20
232.452819
 30
0.0
 10
702.922220
 20
232.452819
 30
0.0
 10
703.300130
 20
232.373119
 30
0.0
 10
703.653160
 20
232.217099
 30
0.0
 10
703.965790
 20
231.991949
 30
0.0
 10
704.224430
 20
231.707109
 30
0.0
 10
704.417750
 20
231.375059
 30
0.0
 10
704.537060
 20
231.010129
 30
0.0
 10
704.577460
 20
230.628699
 30
0.0
 10
704.537060
 20
230.247239
 30
0.0
 10
704.417750
 20
229.882689
 30
0.0
 10
704.224430
 20
229.550639
 30
0.0
 10
703.965790
 20
229.265419
 30
0.0
 10
703.653160
 20
229.040269
 30
0.0
 10
703.300130
 20
228.884259
 30
0.0
 10
702.922220
 20
228.804559
 30
0.0
  0
LWPOLYLINE
  5
13c
100
AcDbEntity
  8
Layer_1
 62
7
100
AcDbPolyline
 90
30
 70
1
 10
892.345800
 20
228.804559
 30
0.0
 10
891.967200
 20
228.884259
 30
0.0
 10
891.614500
 20
229.040269
 30
0.0
 10
891.301900
 20
229.265419
 30
0.0
 10
891.043300
 20
229.550639
 30
0.0
 10
890.850300
 20
229.882689
 30
0.0
 10
890.730600
 20
230.247239
 30
0.0
 10
890.690600
 20
230.628699
 30
0.0
 10
890.730600
 20
231.010129
 30
0.0
 10
890.850300
 20
231.375059
 30
0.0
 10
891.043300
 20
231.707109
 30
0.0
 10
891.301900
 20
231.991949
 30
0.0
 10
891.614500
 20
232.217099
 30
0.0
 10
891.967200
 20
232.373119
 30
0.0
 10
892.345800
 20
232.452819
 30
0.0
 10
892.731500
 20
232.452819
 30
0.0
 10
893.110000
 20
232.373119
 30
0.0
 10
893.462700
 20
232.217099
 30
0.0
 10
893.775300
 20
231.991949
 30
0.0
 10
894.034000
 20
231.707109
 30
0.0
 10
894.226900
 20
231.375059
 30
0.0
 10
894.346600
 20
231.010129
 30
0.0
 10
894.386600
 20
230.628699
 30
0.0
 10
894.346600
 20
230.247239
 30
0.0
 10
894.226900
 20
229.882689
 30
0.0
 10
894.034000
 20
229.550639
 30
0.0
 10
893.775300
 20
229.265419
 30
0.0
 10
893.462700
 20
229.040269
 30
0.0
 10
893.110000
 20
228.884259
 30
0.0
 10
892.731500
 20
228.804559
 30
0.0
  0
LWPOLYLINE
  5
13d
100
AcDbEntity
  8
Layer_1
 62
7
100
AcDbPolyline
 90
30
 70
1
 10
842.395800
 20
228.804559
 30
0.0
 10
842.017100
 20
228.884259
 30
0.0
 10
841.664500
 20
229.040269
 30
0.0
 10
841.351900
 20
229.265419
 30
0.0
 10
841.093200
 20
229.550639
 30
0.0
 10
840.900300
 20
229.882689
 30
0.0
 10
840.780200
 20
230.247239
 30
0.0
 10
840.740200
 20
230.628699
 30
0.0
 10
840.780200
 20
231.010129
 30
0.0
 10
840.900300
 20
231.375059
 30
0.0
 10
841.093200
 20
231.707109
 30
0.0
 10
841.351900
 20
231.991949
 30
0.0
 10
841.664500
 20
232.217099
 30
0.0
 10
842.017100
 20
232.373119
 30
0.0
 10
842.395800
 20
232.452819
 30
0.0
 10
842.781400
 20
232.452819
 30
0.0
 10
843.160000
 20
232.373119
 30
0.0
 10
843.512700
 20
232.217099
 30
0.0
 10
843.825300
 20
231.991949
 30
0.0
 10
844.084000
 20
231.707109
 30
0.0
 10
844.276900
 20
231.375059
 30
0.0
 10
844.396600
 20
231.010129
 30
0.0
 10
844.436600
 20
230.628699
 30
0.0
 10
844.396600
 20
230.247239
 30
0.0
 10
844.276900
 20
229.882689
 30
0.0
 10
844.084000
 20
229.550639
 30
0.0
 10
843.825300
 20
229.265419
 30
0.0
 10
843.512700
 20
229.040269
 30
0.0
 10
843.160000
 20
228.884259
 30
0.0
 10
842.781400
 20
228.804559
 30
0.0
  0
ENDSEC
  0
SECTION
  2
OBJECTS
  0
DICTIONARY
  5
C
330
0
100
AcDbDictionary
  3
ACAD_GROUP
350
D
  3
ACAD_MLINESTYLE
350
17
  0
DICTIONARY
  5
D
330
C
100
AcDbDictionary
  0
DICTIONARY
  5
1A
330
C
100
AcDbDictionary
  0
DICTIONARY
  5
17
330
C
100
AcDbDictionary
  3
STANDARD
350
18
  0
DICTIONARY
  5
19
330
C
100
AcDbDictionary
  0
ENDSEC
  0
EOF
