<?xml version="1.0" standalone="no"?>
<!DOCTYPE svg PUBLIC "-//W3C//DTD SVG 1.1//EN" "http://www.w3.org/Graphics/SVG/1.1/DTD/svg11.dtd">
<svg width="600" height="61" viewBox="-75 -61 600 61" xmlns="http://www.w3.org/2000/svg" version="1.1">
<title>OpenSCAD Model</title>
<path d="
M 524.3,-60.5 L -75,-60.5 L -75,-0 L 524.3,-0 z
M -10.0215,-45.0435 L -10.4509,-45.1348 L -10.852,-45.3133 L -11.2072,-45.5714 L -11.5009,-45.8976 L -11.7204,-46.2778
 L -11.8561,-46.6954 L -11.902,-47.132 L -11.8561,-47.5686 L -11.7204,-47.9861 L -11.5009,-48.3663 L -11.2072,-48.6926
 L -10.852,-48.9507 L -10.4509,-49.1292 L -10.0215,-49.2205 L -9.58249,-49.2205 L -9.15306,-49.1292 L -8.752,-48.9507
 L -8.39682,-48.6926 L -8.10306,-48.3663 L -7.88354,-47.9861 L -7.74788,-47.5686 L -7.702,-47.132 L -7.74788,-46.6954
 L -7.88354,-46.2778 L -8.10306,-45.8976 L -8.39682,-45.5714 L -8.752,-45.3133 L -9.15306,-45.1348 L -9.58249,-45.0435
 z
M 36.8066,-44.1601 L 36.4283,-44.2405 L 36.075,-44.3978 L 35.7621,-44.6252 L 35.5033,-44.9126 L 35.3099,-45.2475
 L 35.1904,-45.6154 L 35.15,-46 L 35.1904,-46.3846 L 35.3099,-46.7525 L 35.5033,-47.0874 L 35.7621,-47.3748
 L 36.075,-47.6021 L 36.4283,-47.7594 L 36.8066,-47.8399 L 37.1934,-47.8399 L 37.5717,-47.7594 L 37.925,-47.6021
 L 38.2379,-47.3748 L 38.4967,-47.0874 L 38.69,-46.7525 L 38.8096,-46.3846 L 38.85,-46 L 38.8096,-45.6154
 L 38.69,-45.2475 L 38.4967,-44.9126 L 38.2379,-44.6252 L 37.925,-44.3978 L 37.5717,-44.2405 L 37.1934,-44.1601
 z
M 256.807,-44.1601 L 256.428,-44.2405 L 256.075,-44.3978 L 255.762,-44.6252 L 255.503,-44.9126 L 255.31,-45.2475
 L 255.19,-45.6154 L 255.15,-46 L 255.19,-46.3846 L 255.31,-46.7525 L 255.503,-47.0874 L 255.762,-47.3748
 L 256.075,-47.6021 L 256.428,-47.7594 L 256.807,-47.8399 L 257.193,-47.8399 L 257.572,-47.7594 L 257.925,-47.6021
 L 258.238,-47.3748 L 258.497,-47.0874 L 258.69,-46.7525 L 258.81,-46.3846 L 258.85,-46 L 258.81,-45.6154
 L 258.69,-45.2475 L 258.497,-44.9126 L 258.238,-44.6252 L 257.925,-44.3978 L 257.572,-44.2405 L 257.193,-44.1601
 z
M 156.807,-44.1601 L 156.428,-44.2405 L 156.075,-44.3978 L 155.762,-44.6252 L 155.503,-44.9126 L 155.31,-45.2475
 L 155.19,-45.6154 L 155.15,-46 L 155.19,-46.3846 L 155.31,-46.7525 L 155.503,-47.0874 L 155.762,-47.3748
 L 156.075,-47.6021 L 156.428,-47.7594 L 156.807,-47.8399 L 157.193,-47.8399 L 157.572,-47.7594 L 157.925,-47.6021
 L 158.238,-47.3748 L 158.497,-47.0874 L 158.69,-46.7525 L 158.81,-46.3846 L 158.85,-46 L 158.81,-45.6154
 L 158.69,-45.2475 L 158.497,-44.9126 L 158.238,-44.6252 L 157.925,-44.3978 L 157.572,-44.2405 L 157.193,-44.1601
 z
M 206.807,-44.1601 L 206.428,-44.2405 L 206.075,-44.3978 L 205.762,-44.6252 L 205.503,-44.9126 L 205.31,-45.2475
 L 205.19,-45.6154 L 205.15,-46 L 205.19,-46.3846 L 205.31,-46.7525 L 205.503,-47.0874 L 205.762,-47.3748
 L 206.075,-47.6021 L 206.428,-47.7594 L 206.807,-47.8399 L 207.193,-47.8399 L 207.572,-47.7594 L 207.925,-47.6021
 L 208.238,-47.3748 L 208.497,-47.0874 L 208.69,-46.7525 L 208.81,-46.3846 L 208.85,-46 L 208.81,-45.6154
 L 208.69,-45.2475 L 208.497,-44.9126 L 208.238,-44.6252 L 207.925,-44.3978 L 207.572,-44.2405 L 207.193,-44.1601
 z
M 81.4345,-42.4115 L 81.0051,-42.5028 L 80.604,-42.6813 L 80.2488,-42.9394 L 79.9551,-43.2656 L 79.7355,-43.6458
 L 79.5999,-44.0634 L 79.554,-44.5 L 79.5999,-44.9366 L 79.7355,-45.3541 L 79.9551,-45.7343 L 80.2488,-46.0606
 L 80.604,-46.3186 L 81.0051,-46.4972 L 81.4345,-46.5885 L 81.8735,-46.5885 L 82.3029,-46.4972 L 82.704,-46.3186
 L 83.0592,-46.0606 L 83.3529,-45.7343 L 83.5724,-45.3541 L 83.7081,-44.9366 L 83.754,-44.5 L 83.7081,-44.0634
 L 83.5724,-43.6458 L 83.3529,-43.2656 L 83.0592,-42.9394 L 82.704,-42.6813 L 82.3029,-42.5028 L 81.8735,-42.4115
 z
M 160,-17 L 160,-40 L 256,-40 L 256,-17 z
M -10,-15 L -10,-39 L 86,-39 L 86,-15 z
M -7.46451,-9.5715 L -7.89392,-9.66278 L -8.295,-9.84134 L -8.65016,-10.0994 L -8.94392,-10.4256 L -9.16344,-10.8058
 L -9.2991,-11.2234 L -9.34499,-11.66 L -9.2991,-12.0966 L -9.16344,-12.5141 L -8.94392,-12.8943 L -8.65016,-13.2206
 L -8.295,-13.4787 L -7.89392,-13.6572 L -7.46451,-13.7485 L -7.02548,-13.7485 L -6.59605,-13.6572 L -6.19499,-13.4787
 L -5.83981,-13.2206 L -5.54605,-12.8943 L -5.32655,-12.5141 L -5.19089,-12.0966 L -5.14499,-11.66 L -5.19089,-11.2234
 L -5.32655,-10.8058 L -5.54605,-10.4256 L -5.83981,-10.0994 L -6.19499,-9.84134 L -6.59605,-9.66278 L -7.02548,-9.5715
 z
M 256.807,-9.16013 L 256.428,-9.24054 L 256.075,-9.39784 L 255.762,-9.62517 L 255.503,-9.91258 L 255.31,-10.2475
 L 255.19,-10.6154 L 255.15,-11 L 255.19,-11.3846 L 255.31,-11.7525 L 255.503,-12.0874 L 255.762,-12.3748
 L 256.075,-12.6021 L 256.428,-12.7594 L 256.807,-12.8399 L 257.193,-12.8399 L 257.572,-12.7594 L 257.925,-12.6021
 L 258.238,-12.3748 L 258.497,-12.0874 L 258.69,-11.7525 L 258.81,-11.3846 L 258.85,-11 L 258.81,-10.6154
 L 258.69,-10.2475 L 258.497,-9.91258 L 258.238,-9.62517 L 257.925,-9.39784 L 257.572,-9.24054 L 257.193,-9.16013
 z
M 206.807,-9.16013 L 206.428,-9.24054 L 206.075,-9.39784 L 205.762,-9.62517 L 205.503,-9.91258 L 205.31,-10.2475
 L 205.19,-10.6154 L 205.15,-11 L 205.19,-11.3846 L 205.31,-11.7525 L 205.503,-12.0874 L 205.762,-12.3748
 L 206.075,-12.6021 L 206.428,-12.7594 L 206.807,-12.8399 L 207.193,-12.8399 L 207.572,-12.7594 L 207.925,-12.6021
 L 208.238,-12.3748 L 208.497,-12.0874 L 208.69,-11.7525 L 208.81,-11.3846 L 208.85,-11 L 208.81,-10.6154
 L 208.69,-10.2475 L 208.497,-9.91258 L 208.238,-9.62517 L 207.925,-9.39784 L 207.572,-9.24054 L 207.193,-9.16013
 z
M 88.8066,-9.16013 L 88.4283,-9.24054 L 88.075,-9.39784 L 87.7621,-9.62517 L 87.5033,-9.91258 L 87.3099,-10.2475
 L 87.1904,-10.6154 L 87.15,-11 L 87.1904,-11.3846 L 87.3099,-11.7525 L 87.5033,-12.0874 L 87.7621,-12.3748
 L 88.075,-12.6021 L 88.4283,-12.7594 L 88.8066,-12.8399 L 89.1934,-12.8399 L 89.5717,-12.7594 L 89.925,-12.6021
 L 90.2379,-12.3748 L 90.4967,-12.0874 L 90.69,-11.7525 L 90.8096,-11.3846 L 90.85,-11 L 90.8096,-10.6154
 L 90.69,-10.2475 L 90.4967,-9.91258 L 90.2379,-9.62517 L 89.925,-9.39784 L 89.5717,-9.24054 L 89.1934,-9.16013
 z
M 36.8066,-9.16013 L 36.4283,-9.24054 L 36.075,-9.39784 L 35.7621,-9.62517 L 35.5033,-9.91258 L 35.3099,-10.2475
 L 35.1904,-10.6154 L 35.15,-11 L 35.1904,-11.3846 L 35.3099,-11.7525 L 35.5033,-12.0874 L 35.7621,-12.3748
 L 36.075,-12.6021 L 36.4283,-12.7594 L 36.8066,-12.8399 L 37.1934,-12.8399 L 37.5717,-12.7594 L 37.925,-12.6021
 L 38.2379,-12.3748 L 38.4967,-12.0874 L 38.69,-11.7525 L 38.8096,-11.3846 L 38.85,-11 L 38.8096,-10.6154
 L 38.69,-10.2475 L 38.4967,-9.91258 L 38.2379,-9.62517 L 37.925,-9.39784 L 37.5717,-9.24054 L 37.1934,-9.16013
 z
M 156.807,-9.16013 L 156.428,-9.24054 L 156.075,-9.39784 L 155.762,-9.62517 L 155.503,-9.91258 L 155.31,-10.2475
 L 155.19,-10.6154 L 155.15,-11 L 155.19,-11.3846 L 155.31,-11.7525 L 155.503,-12.0874 L 155.762,-12.3748
 L 156.075,-12.6021 L 156.428,-12.7594 L 156.807,-12.8399 L 157.193,-12.8399 L 157.572,-12.7594 L 157.925,-12.6021
 L 158.238,-12.3748 L 158.497,-12.0874 L 158.69,-11.7525 L 158.81,-11.3846 L 158.85,-11 L 158.81,-10.6154
 L 158.69,-10.2475 L 158.497,-9.91258 L 158.238,-9.62517 L 157.925,-9.39784 L 157.572,-9.24054 L 157.193,-9.16013
 z
" stroke="black" fill="lightgray" stroke-width="0.5"/></svg>
