<?xml version="1.0" standalone="no"?>
<!DOCTYPE svg PUBLIC "-//W3C//DTD SVG 1.1//EN" "http://www.w3.org/Graphics/SVG/1.1/DTD/svg11.dtd">
<svg width="596" height="496" viewBox="-112 -468 596 496" xmlns="http://www.w3.org/2000/svg" version="1.1">
<title>OpenSCAD Model</title>
<path d="
M 442,23 L 442.656,16.7626 L 444.594,10.7979 L 447.729,5.36644 L 451.926,0.705643 L 457,-2.98076
 L 462.729,-5.53169 L 468.864,-6.83565 L 475.136,-6.83565 L 481.271,-5.53169 L 483.103,-4.71581 L 483.103,-448.554
 L 480.75,-446.845 L 477.408,-445.357 L 473.829,-444.596 L 470.171,-444.596 L 466.592,-445.357 L 463.25,-446.845
 L 460.29,-448.995 L 457.842,-451.714 L 456.013,-454.882 L 454.882,-458.362 L 454.5,-462 L 454.882,-465.638
 L 455.413,-467.27 L -90.4125,-467.27 L -89.8824,-465.638 L -89.5,-462 L -89.8824,-458.362 L -91.013,-454.882
 L -92.8422,-451.714 L -95.2902,-448.995 L -98.25,-446.845 L -101.592,-445.357 L -105.171,-444.596 L -108.829,-444.596
 L -112,-445.27 L -112,2.0654 L -110.408,1.35651 L -106.829,0.595856 L -103.171,0.595856 L -99.5922,1.35651
 L -96.25,2.84454 L -93.2902,4.99496 L -90.8422,7.71375 L -89.013,10.8821 L -87.8824,14.3615 L -87.5,18
 L -87.8824,21.6384 L -89.013,25.1179 L -90.6769,28 L 442.526,28 z
" stroke="black" fill="lightgray" stroke-width="0.5"/></svg>
