<?xml version="1.0" encoding="UTF-8" standalone="no"?>
<!-- Created with Inkscape (http://www.inkscape.org/) -->

<svg
   xmlns:dc="http://purl.org/dc/elements/1.1/"
   xmlns:cc="http://creativecommons.org/ns#"
   xmlns:rdf="http://www.w3.org/1999/02/22-rdf-syntax-ns#"
   xmlns:svg="http://www.w3.org/2000/svg"
   xmlns="http://www.w3.org/2000/svg"
   xmlns:sodipodi="http://sodipodi.sourceforge.net/DTD/sodipodi-0.dtd"
   xmlns:inkscape="http://www.inkscape.org/namespaces/inkscape"
   width="210mm"
   height="297mm"
   viewBox="0 0 210 297"
   version="1.1"
   id="svg3184"
   inkscape:version="0.92.2 (5c3e80d, 2017-08-06)"
   sodipodi:docname="bottom_x1_wider_ponoko.svg">
  <defs
     id="defs3178" />
  <sodipodi:namedview
     id="base"
     pagecolor="#ffffff"
     bordercolor="#666666"
     borderopacity="1.0"
     inkscape:pageopacity="0.0"
     inkscape:pageshadow="2"
     inkscape:zoom="0.061871843"
     inkscape:cx="2695.7299"
     inkscape:cy="-1045.3692"
     inkscape:document-units="mm"
     inkscape:current-layer="layer1"
     showgrid="false"
     inkscape:window-width="1920"
     inkscape:window-height="986"
     inkscape:window-x="-11"
     inkscape:window-y="-11"
     inkscape:window-maximized="1" />
  <metadata
     id="metadata3181">
    <rdf:RDF>
      <cc:Work
         rdf:about="">
        <dc:format>image/svg+xml</dc:format>
        <dc:type
           rdf:resource="http://purl.org/dc/dcmitype/StillImage" />
        <dc:title></dc:title>
      </cc:Work>
    </rdf:RDF>
  </metadata>
  <g
     inkscape:label="Layer 1"
     inkscape:groupmode="layer"
     id="layer1">
    <path
       id="path3928"
       d="m 553.68892,291.75808 0.65534,-6.22771 1.93603,-5.95545 3.13183,-5.42304 4.19273,-4.65358 5.06888,-3.68067 5.72321,-2.54696 6.12879,-1.30194 h 6.26563 l 6.1288,1.30194 1.83015,0.81464 V -179.0634 l -2.35064,1.70634 -3.33859,1.48569 -3.5754,0.75982 h -3.65427 l -3.5754,-0.75982 -3.33859,-1.48569 -2.95701,-2.14665 -2.44553,-2.71476 -1.82713,-3.16308 -1.12988,-3.4746 -0.38162,-3.63237 0.38162,-3.63233 0.53048,-1.62947 H 21.815309 l 0.52955,1.62947 0.38202,3.63233 -0.38202,3.63237 -1.12943,3.4746 -1.82737,3.16308 -2.44552,2.71476 -2.95678,2.14665 -3.33863,1.48569 -3.5754097,0.75982 h -3.65427 l -3.16777003,-0.67295 v 446.64046 l 1.59036003,-0.70778 3.5754,-0.75945 h 3.65427 l 3.5751797,0.75945 3.33881,1.48574 2.95684,2.14707 2.44552,2.71456 1.82732,3.16345 1.12946,3.47401 0.38203,3.63283 -0.38203,3.63274 -1.12946,3.47412 -1.66222,2.87762 H 554.21438 Z"
       inkscape:connector-curvature="0"
       style="fill:none;stroke:#0000ff;stroke-width:0.01;stroke-opacity:1;stroke-miterlimit:4;stroke-dasharray:none" />
  </g>
</svg>
