<?xml version="1.0" standalone="no"?>
<!DOCTYPE svg PUBLIC "-//W3C//DTD SVG 1.1//EN" "http://www.w3.org/Graphics/SVG/1.1/DTD/svg11.dtd">
<svg width="600" height="61" viewBox="-75 -65 600 61" xmlns="http://www.w3.org/2000/svg" version="1.1">
<title>OpenSCAD Model</title>
<path d="
M 524.3,-64.51 L -75,-64.51 L -75,-4 L 524.3,-4 z
M 255.807,-50.9601 L 255.428,-51.0405 L 255.075,-51.1978 L 254.762,-51.4252 L 254.503,-51.7126 L 254.31,-52.0475
 L 254.19,-52.4154 L 254.15,-52.8 L 254.19,-53.1846 L 254.31,-53.5525 L 254.503,-53.8874 L 254.762,-54.1748
 L 255.075,-54.4021 L 255.428,-54.5594 L 255.807,-54.6399 L 256.193,-54.6399 L 256.572,-54.5594 L 256.925,-54.4021
 L 257.238,-54.1748 L 257.497,-53.8874 L 257.69,-53.5525 L 257.81,-53.1846 L 257.85,-52.8 L 257.81,-52.4154
 L 257.69,-52.0475 L 257.497,-51.7126 L 257.238,-51.4252 L 256.925,-51.1978 L 256.572,-51.0405 L 256.193,-50.9601
 z
M 205.807,-50.9601 L 205.428,-51.0405 L 205.075,-51.1978 L 204.762,-51.4252 L 204.503,-51.7126 L 204.31,-52.0475
 L 204.19,-52.4154 L 204.15,-52.8 L 204.19,-53.1846 L 204.31,-53.5525 L 204.503,-53.8874 L 204.762,-54.1748
 L 205.075,-54.4021 L 205.428,-54.5594 L 205.807,-54.6399 L 206.193,-54.6399 L 206.572,-54.5594 L 206.925,-54.4021
 L 207.238,-54.1748 L 207.497,-53.8874 L 207.69,-53.5525 L 207.81,-53.1846 L 207.85,-52.8 L 207.81,-52.4154
 L 207.69,-52.0475 L 207.497,-51.7126 L 207.238,-51.4252 L 206.925,-51.1978 L 206.572,-51.0405 L 206.193,-50.9601
 z
M 155.807,-50.9601 L 155.428,-51.0405 L 155.075,-51.1978 L 154.762,-51.4252 L 154.503,-51.7126 L 154.31,-52.0475
 L 154.19,-52.4154 L 154.15,-52.8 L 154.19,-53.1846 L 154.31,-53.5525 L 154.503,-53.8874 L 154.762,-54.1748
 L 155.075,-54.4021 L 155.428,-54.5594 L 155.807,-54.6399 L 156.193,-54.6399 L 156.572,-54.5594 L 156.925,-54.4021
 L 157.238,-54.1748 L 157.497,-53.8874 L 157.69,-53.5525 L 157.81,-53.1846 L 157.85,-52.8 L 157.81,-52.4154
 L 157.69,-52.0475 L 157.497,-51.7126 L 157.238,-51.4252 L 156.925,-51.1978 L 156.572,-51.0405 L 156.193,-50.9601
 z
M 35.5805,-46.2115 L 35.1511,-46.3028 L 34.75,-46.4813 L 34.3948,-46.7394 L 34.1011,-47.0656 L 33.8815,-47.4458
 L 33.7459,-47.8634 L 33.7,-48.3 L 33.7459,-48.7366 L 33.8815,-49.1541 L 34.1011,-49.5343 L 34.3948,-49.8606
 L 34.75,-50.1187 L 35.1511,-50.2972 L 35.5805,-50.3885 L 36.0195,-50.3885 L 36.4489,-50.2972 L 36.85,-50.1187
 L 37.2052,-49.8606 L 37.4989,-49.5343 L 37.7184,-49.1541 L 37.8541,-48.7366 L 37.9,-48.3 L 37.8541,-47.8634
 L 37.7184,-47.4458 L 37.4989,-47.0656 L 37.2052,-46.7394 L 36.85,-46.4813 L 36.4489,-46.3028 L 36.0195,-46.2115
 z
M -15.2195,-46.2115 L -15.6489,-46.3028 L -16.05,-46.4813 L -16.4052,-46.7394 L -16.6989,-47.0656 L -16.9184,-47.4458
 L -17.0541,-47.8634 L -17.1,-48.3 L -17.0541,-48.7366 L -16.9184,-49.1541 L -16.6989,-49.5343 L -16.4052,-49.8606
 L -16.05,-50.1187 L -15.6489,-50.2972 L -15.2195,-50.3885 L -14.7805,-50.3885 L -14.3511,-50.2972 L -13.95,-50.1187
 L -13.5948,-49.8606 L -13.3011,-49.5343 L -13.0815,-49.1541 L -12.9459,-48.7366 L -12.9,-48.3 L -12.9459,-47.8634
 L -13.0815,-47.4458 L -13.3011,-47.0656 L -13.5948,-46.7394 L -13.95,-46.4813 L -14.3511,-46.3028 L -14.7805,-46.2115
 z
M 159,-23.8 L 159,-46.8 L 255,-46.8 L 255,-23.8 z
M -20,-24.5 L -20,-45.5 L 38,-45.5 L 38,-24.5 z
M 36.9805,-18.9115 L 36.5511,-19.0028 L 36.15,-19.1813 L 35.7948,-19.4394 L 35.5011,-19.7656 L 35.2816,-20.1458
 L 35.1459,-20.5634 L 35.1,-21 L 35.1459,-21.4366 L 35.2816,-21.8541 L 35.5011,-22.2343 L 35.7948,-22.5606
 L 36.15,-22.8186 L 36.5511,-22.9972 L 36.9805,-23.0885 L 37.4195,-23.0885 L 37.8489,-22.9972 L 38.25,-22.8186
 L 38.6052,-22.5606 L 38.8989,-22.2343 L 39.1184,-21.8541 L 39.2541,-21.4366 L 39.3,-21 L 39.2541,-20.5634
 L 39.1184,-20.1458 L 38.8989,-19.7656 L 38.6052,-19.4394 L 38.25,-19.1813 L 37.8489,-19.0028 L 37.4195,-18.9115
 z
M -15.2195,-17.9115 L -15.6489,-18.0028 L -16.05,-18.1813 L -16.4052,-18.4394 L -16.6989,-18.7656 L -16.9184,-19.1458
 L -17.0541,-19.5634 L -17.1,-20 L -17.0541,-20.4366 L -16.9184,-20.8541 L -16.6989,-21.2343 L -16.4052,-21.5606
 L -16.05,-21.8186 L -15.6489,-21.9972 L -15.2195,-22.0885 L -14.7805,-22.0885 L -14.3511,-21.9972 L -13.95,-21.8186
 L -13.5948,-21.5606 L -13.3011,-21.2343 L -13.0815,-20.8541 L -12.9459,-20.4366 L -12.9,-20 L -12.9459,-19.5634
 L -13.0815,-19.1458 L -13.3011,-18.7656 L -13.5948,-18.4394 L -13.95,-18.1813 L -14.3511,-18.0028 L -14.7805,-17.9115
 z
M 255.807,-15.9601 L 255.428,-16.0405 L 255.075,-16.1978 L 254.762,-16.4252 L 254.503,-16.7126 L 254.31,-17.0475
 L 254.19,-17.4154 L 254.15,-17.8 L 254.19,-18.1846 L 254.31,-18.5525 L 254.503,-18.8874 L 254.762,-19.1748
 L 255.075,-19.4021 L 255.428,-19.5594 L 255.807,-19.6399 L 256.193,-19.6399 L 256.572,-19.5594 L 256.925,-19.4021
 L 257.238,-19.1748 L 257.497,-18.8874 L 257.69,-18.5525 L 257.81,-18.1846 L 257.85,-17.8 L 257.81,-17.4154
 L 257.69,-17.0475 L 257.497,-16.7126 L 257.238,-16.4252 L 256.925,-16.1978 L 256.572,-16.0405 L 256.193,-15.9601
 z
M 205.807,-15.9601 L 205.428,-16.0405 L 205.075,-16.1978 L 204.762,-16.4252 L 204.503,-16.7126 L 204.31,-17.0475
 L 204.19,-17.4154 L 204.15,-17.8 L 204.19,-18.1846 L 204.31,-18.5525 L 204.503,-18.8874 L 204.762,-19.1748
 L 205.075,-19.4021 L 205.428,-19.5594 L 205.807,-19.6399 L 206.193,-19.6399 L 206.572,-19.5594 L 206.925,-19.4021
 L 207.238,-19.1748 L 207.497,-18.8874 L 207.69,-18.5525 L 207.81,-18.1846 L 207.85,-17.8 L 207.81,-17.4154
 L 207.69,-17.0475 L 207.497,-16.7126 L 207.238,-16.4252 L 206.925,-16.1978 L 206.572,-16.0405 L 206.193,-15.9601
 z
M 155.807,-15.9601 L 155.428,-16.0405 L 155.075,-16.1978 L 154.762,-16.4252 L 154.503,-16.7126 L 154.31,-17.0475
 L 154.19,-17.4154 L 154.15,-17.8 L 154.19,-18.1846 L 154.31,-18.5525 L 154.503,-18.8874 L 154.762,-19.1748
 L 155.075,-19.4021 L 155.428,-19.5594 L 155.807,-19.6399 L 156.193,-19.6399 L 156.572,-19.5594 L 156.925,-19.4021
 L 157.238,-19.1748 L 157.497,-18.8874 L 157.69,-18.5525 L 157.81,-18.1846 L 157.85,-17.8 L 157.81,-17.4154
 L 157.69,-17.0475 L 157.497,-16.7126 L 157.238,-16.4252 L 156.925,-16.1978 L 156.572,-16.0405 L 156.193,-15.9601
 z
" stroke="black" fill="lightgray" stroke-width="0.5"/></svg>
