<?xml version="1.0" standalone="no"?>
<!DOCTYPE svg PUBLIC "-//W3C//DTD SVG 1.1//EN" "http://www.w3.org/Graphics/SVG/1.1/DTD/svg11.dtd">
<svg width="350" height="19" viewBox="-77 -17 350 19" xmlns="http://www.w3.org/2000/svg" version="1.1">
<title>OpenSCAD Model</title>
<path d="
M 273,-17 L -77,-17 L -77,2 L 273,2 z
M 66.1014,-6.1104 L 65.7129,-6.19298 L 65.35,-6.35454 L 65.0286,-6.58801 L 64.7629,-6.88319 L 64.5643,-7.22719
 L 64.4415,-7.60497 L 64.4,-8 L 64.4415,-8.39502 L 64.4756,-8.5 L 64.4415,-8.60497 L 64.4,-9
 L 64.4415,-9.39502 L 64.4756,-9.5 L 64.4415,-9.60497 L 64.4,-10 L 64.4415,-10.395 L 64.4756,-10.5
 L 64.4415,-10.605 L 64.4,-11 L 64.4415,-11.395 L 64.5643,-11.7728 L 64.7629,-12.1168 L 65.0286,-12.412
 L 65.35,-12.6454 L 65.7129,-12.807 L 66.1014,-12.8896 L 66.4986,-12.8896 L 66.8871,-12.807 L 67.25,-12.6454
 L 67.5714,-12.412 L 67.8371,-12.1168 L 68.0357,-11.7728 L 68.1585,-11.395 L 68.2,-11 L 68.1585,-10.605
 L 68.1244,-10.5 L 68.1585,-10.395 L 68.2,-10 L 68.1585,-9.60497 L 68.1244,-9.5 L 68.1585,-9.39502
 L 68.2,-9 L 68.1585,-8.60497 L 68.1244,-8.5 L 68.1585,-8.39502 L 68.2,-8 L 68.1585,-7.60497
 L 68.0357,-7.22719 L 67.8371,-6.88319 L 67.5714,-6.58801 L 67.25,-6.35454 L 66.8871,-6.19298 L 66.4986,-6.1104
 z
M 50.1014,-6.1104 L 49.7129,-6.19298 L 49.35,-6.35454 L 49.0286,-6.58801 L 48.7629,-6.88319 L 48.5643,-7.22719
 L 48.4415,-7.60497 L 48.4,-8 L 48.4415,-8.39502 L 48.4756,-8.5 L 48.4415,-8.60497 L 48.4,-9
 L 48.4415,-9.39502 L 48.4756,-9.5 L 48.4415,-9.60497 L 48.4,-10 L 48.4415,-10.395 L 48.4756,-10.5
 L 48.4415,-10.605 L 48.4,-11 L 48.4415,-11.395 L 48.5643,-11.7728 L 48.7629,-12.1168 L 49.0286,-12.412
 L 49.35,-12.6454 L 49.7129,-12.807 L 50.1014,-12.8896 L 50.4986,-12.8896 L 50.8871,-12.807 L 51.25,-12.6454
 L 51.5713,-12.412 L 51.8371,-12.1168 L 52.0357,-11.7728 L 52.1585,-11.395 L 52.2,-11 L 52.1585,-10.605
 L 52.1244,-10.5 L 52.1585,-10.395 L 52.2,-10 L 52.1585,-9.60497 L 52.1244,-9.5 L 52.1585,-9.39502
 L 52.2,-9 L 52.1585,-8.60497 L 52.1244,-8.5 L 52.1585,-8.39502 L 52.2,-8 L 52.1585,-7.60497
 L 52.0357,-7.22719 L 51.8371,-6.88319 L 51.5713,-6.58801 L 51.25,-6.35454 L 50.8871,-6.19298 L 50.4986,-6.1104
 z
M 147.051,-3.6104 L 146.663,-3.69298 L 146.3,-3.85454 L 145.979,-4.08801 L 145.713,-4.38319 L 145.514,-4.72719
 L 145.392,-5.10497 L 145.35,-5.5 L 145.392,-5.89502 L 145.426,-5.99998 L 145.392,-6.10497 L 145.35,-6.5
 L 145.392,-6.89502 L 145.426,-6.99998 L 145.392,-7.10497 L 145.35,-7.5 L 145.392,-7.89502 L 145.426,-7.99998
 L 145.392,-8.10497 L 145.35,-8.5 L 145.392,-8.89502 L 145.426,-9 L 145.392,-9.10497 L 145.35,-9.5
 L 145.392,-9.89502 L 145.514,-10.2728 L 145.713,-10.6168 L 145.979,-10.912 L 146.3,-11.1454 L 146.663,-11.307
 L 147.051,-11.3896 L 147.449,-11.3896 L 147.837,-11.307 L 148.2,-11.1454 L 148.521,-10.912 L 148.787,-10.6168
 L 148.986,-10.2728 L 149.108,-9.89502 L 149.15,-9.5 L 149.108,-9.10497 L 149.074,-9 L 149.108,-8.89502
 L 149.15,-8.5 L 149.108,-8.10497 L 149.074,-7.99998 L 149.108,-7.89502 L 149.15,-7.5 L 149.108,-7.10497
 L 149.074,-6.99998 L 149.108,-6.89502 L 149.15,-6.5 L 149.108,-6.10497 L 149.074,-5.99998 L 149.108,-5.89502
 L 149.15,-5.5 L 149.108,-5.10497 L 148.986,-4.72719 L 148.787,-4.38319 L 148.521,-4.08801 L 148.2,-3.85454
 L 147.837,-3.69298 L 147.449,-3.6104 z
M -29.9486,-3.6104 L -30.3371,-3.69298 L -30.7,-3.85454 L -31.0213,-4.08801 L -31.2871,-4.38319 L -31.4857,-4.72719
 L -31.6085,-5.10497 L -31.65,-5.5 L -31.6085,-5.89502 L -31.5744,-5.99998 L -31.6085,-6.10497 L -31.65,-6.5
 L -31.6085,-6.89502 L -31.5744,-6.99998 L -31.6085,-7.10497 L -31.65,-7.5 L -31.6085,-7.89502 L -31.5744,-7.99998
 L -31.6085,-8.10497 L -31.65,-8.5 L -31.6085,-8.89502 L -31.5744,-9 L -31.6085,-9.10497 L -31.65,-9.5
 L -31.6085,-9.89502 L -31.4857,-10.2728 L -31.2871,-10.6168 L -31.0213,-10.912 L -30.7,-11.1454 L -30.3371,-11.307
 L -29.9486,-11.3896 L -29.5514,-11.3896 L -29.1629,-11.307 L -28.8,-11.1454 L -28.4786,-10.912 L -28.2129,-10.6168
 L -28.0143,-10.2728 L -27.8915,-9.89502 L -27.85,-9.5 L -27.8915,-9.10497 L -27.9256,-9 L -27.8915,-8.89502
 L -27.85,-8.5 L -27.8915,-8.10497 L -27.9256,-7.99998 L -27.8915,-7.89502 L -27.85,-7.5 L -27.8915,-7.10497
 L -27.9256,-6.99998 L -27.8915,-6.89502 L -27.85,-6.5 L -27.8915,-6.10497 L -27.9256,-5.99998 L -27.8915,-5.89502
 L -27.85,-5.5 L -27.8915,-5.10497 L -28.0143,-4.72719 L -28.2129,-4.38319 L -28.4786,-4.08801 L -28.8,-3.85454
 L -29.1629,-3.69298 L -29.5514,-3.6104 z
M 122.051,-3.6104 L 121.663,-3.69298 L 121.3,-3.85454 L 120.979,-4.08801 L 120.713,-4.38319 L 120.514,-4.72719
 L 120.392,-5.10497 L 120.35,-5.5 L 120.392,-5.89502 L 120.426,-5.99998 L 120.392,-6.10497 L 120.35,-6.5
 L 120.392,-6.89502 L 120.426,-6.99998 L 120.392,-7.10497 L 120.35,-7.5 L 120.392,-7.89502 L 120.426,-7.99998
 L 120.392,-8.10497 L 120.35,-8.5 L 120.392,-8.89502 L 120.426,-9 L 120.392,-9.10497 L 120.35,-9.5
 L 120.392,-9.89502 L 120.514,-10.2728 L 120.713,-10.6168 L 120.979,-10.912 L 121.3,-11.1454 L 121.663,-11.307
 L 122.051,-11.3896 L 122.449,-11.3896 L 122.837,-11.307 L 123.2,-11.1454 L 123.521,-10.912 L 123.787,-10.6168
 L 123.986,-10.2728 L 124.108,-9.89502 L 124.15,-9.5 L 124.108,-9.10497 L 124.074,-9 L 124.108,-8.89502
 L 124.15,-8.5 L 124.108,-8.10497 L 124.074,-7.99998 L 124.108,-7.89502 L 124.15,-7.5 L 124.108,-7.10497
 L 124.074,-6.99998 L 124.108,-6.89502 L 124.15,-6.5 L 124.108,-6.10497 L 124.074,-5.99998 L 124.108,-5.89502
 L 124.15,-5.5 L 124.108,-5.10497 L 123.986,-4.72719 L 123.787,-4.38319 L 123.521,-4.08801 L 123.2,-3.85454
 L 122.837,-3.69298 L 122.449,-3.6104 z
M -4.94859,-3.6104 L -5.33713,-3.69298 L -5.7,-3.85454 L -6.02135,-4.08801 L -6.28712,-4.38319 L -6.48573,-4.72719
 L -6.60847,-5.10497 L -6.64999,-5.5 L -6.60847,-5.89502 L -6.57437,-5.99998 L -6.60847,-6.10497 L -6.64999,-6.5
 L -6.60847,-6.89502 L -6.57437,-6.99998 L -6.60847,-7.10497 L -6.64999,-7.5 L -6.60847,-7.89502 L -6.57437,-7.99998
 L -6.60847,-8.10497 L -6.64999,-8.5 L -6.60847,-8.89502 L -6.57437,-9 L -6.60847,-9.10497 L -6.64999,-9.5
 L -6.60847,-9.89502 L -6.48573,-10.2728 L -6.28712,-10.6168 L -6.02135,-10.912 L -5.7,-11.1454 L -5.33713,-11.307
 L -4.94859,-11.3896 L -4.55139,-11.3896 L -4.16286,-11.307 L -3.79999,-11.1454 L -3.47864,-10.912 L -3.21286,-10.6168
 L -3.01425,-10.2728 L -2.89151,-9.89502 L -2.84999,-9.5 L -2.89151,-9.10497 L -2.92561,-9 L -2.89151,-8.89502
 L -2.84999,-8.5 L -2.89151,-8.10497 L -2.92561,-7.99998 L -2.89151,-7.89502 L -2.84999,-7.5 L -2.89151,-7.10497
 L -2.92561,-6.99998 L -2.89151,-6.89502 L -2.84999,-6.5 L -2.89151,-6.10497 L -2.92561,-5.99998 L -2.89151,-5.89502
 L -2.84999,-5.5 L -2.89151,-5.10497 L -3.01425,-4.72719 L -3.21286,-4.38319 L -3.47864,-4.08801 L -3.79999,-3.85454
 L -4.16286,-3.69298 L -4.55139,-3.6104 z
M 217.551,-5.6104 L 217.163,-5.69298 L 216.8,-5.85454 L 216.479,-6.08801 L 216.213,-6.38319 L 216.014,-6.72719
 L 215.892,-7.10497 L 215.85,-7.5 L 215.892,-7.89502 L 216.014,-8.2728 L 216.213,-8.61679 L 216.479,-8.91197
 L 216.8,-9.14545 L 217.163,-9.30701 L 217.551,-9.38959 L 217.949,-9.38959 L 218.337,-9.30701 L 218.7,-9.14545
 L 219.021,-8.91197 L 219.287,-8.61679 L 219.486,-8.2728 L 219.608,-7.89502 L 219.65,-7.5 L 219.608,-7.10497
 L 219.486,-6.72719 L 219.287,-6.38319 L 219.021,-6.08801 L 218.7,-5.85454 L 218.337,-5.69298 L 217.949,-5.6104
 z
M 167.551,-5.6104 L 167.163,-5.69298 L 166.8,-5.85454 L 166.479,-6.08801 L 166.213,-6.38319 L 166.014,-6.72719
 L 165.892,-7.10497 L 165.85,-7.5 L 165.892,-7.89502 L 166.014,-8.2728 L 166.213,-8.61679 L 166.479,-8.91197
 L 166.8,-9.14545 L 167.163,-9.30701 L 167.551,-9.38959 L 167.949,-9.38959 L 168.337,-9.30701 L 168.7,-9.14545
 L 169.021,-8.91197 L 169.287,-8.61679 L 169.486,-8.2728 L 169.608,-7.89502 L 169.65,-7.5 L 169.608,-7.10497
 L 169.486,-6.72719 L 169.287,-6.38319 L 169.021,-6.08801 L 168.7,-5.85454 L 168.337,-5.69298 L 167.949,-5.6104
 z
M 32.5514,-5.6104 L 32.1629,-5.69298 L 31.8,-5.85454 L 31.4786,-6.08801 L 31.2129,-6.38319 L 31.0143,-6.72719
 L 30.8915,-7.10497 L 30.85,-7.5 L 30.8915,-7.89502 L 31.0143,-8.2728 L 31.2129,-8.61679 L 31.4786,-8.91197
 L 31.8,-9.14545 L 32.1629,-9.30701 L 32.5514,-9.38959 L 32.9486,-9.38959 L 33.3371,-9.30701 L 33.7,-9.14545
 L 34.0213,-8.91197 L 34.2871,-8.61679 L 34.4857,-8.2728 L 34.6085,-7.89502 L 34.65,-7.5 L 34.6085,-7.10497
 L 34.4857,-6.72719 L 34.2871,-6.38319 L 34.0213,-6.08801 L 33.7,-5.85454 L 33.3371,-5.69298 L 32.9486,-5.6104
 z
M 86.5514,-5.6104 L 86.1629,-5.69298 L 85.8,-5.85454 L 85.4787,-6.08801 L 85.2129,-6.38319 L 85.0143,-6.72719
 L 84.8915,-7.10497 L 84.85,-7.5 L 84.8915,-7.89502 L 85.0143,-8.2728 L 85.2129,-8.61679 L 85.4787,-8.91197
 L 85.8,-9.14545 L 86.1629,-9.30701 L 86.5514,-9.38959 L 86.9486,-9.38959 L 87.3371,-9.30701 L 87.7,-9.14545
 L 88.0213,-8.91197 L 88.2871,-8.61679 L 88.4857,-8.2728 L 88.6085,-7.89502 L 88.65,-7.5 L 88.6085,-7.10497
 L 88.4857,-6.72719 L 88.2871,-6.38319 L 88.0213,-6.08801 L 87.7,-5.85454 L 87.3371,-5.69298 L 86.9486,-5.6104
 z
" stroke="black" fill="lightgray" stroke-width="0.5"/></svg>
