<?xml version="1.0" standalone="no"?>
<!DOCTYPE svg PUBLIC "-//W3C//DTD SVG 1.1//EN" "http://www.w3.org/Graphics/SVG/1.1/DTD/svg11.dtd">
<svg width="496" height="61" viewBox="-97 -61 496 61" xmlns="http://www.w3.org/2000/svg" version="1.1">
<title>OpenSCAD Model</title>
<path d="
M 398.2,-60.51 L -97,-60.51 L -97,-0 L 398.2,-0 z
M 0,-6 L 0,-20 L -5,-20 L -5,-41 L 0,-41 L 0,-55
 L 90,-55 L 90,-41 L 95,-41 L 95,-20 L 90,-20 L 90,-6
 z
M -76.4004,-46.9822 L -76.9489,-47.0988 L -77.4612,-47.3269 L -77.9149,-47.6565 L -78.2902,-48.0733 L -78.5706,-48.5589
 L -78.7439,-49.0923 L -78.8025,-49.65 L -78.7439,-50.2077 L -78.5706,-50.7411 L -78.2902,-51.2267 L -77.9149,-51.6435
 L -77.4612,-51.9731 L -76.9489,-52.2012 L -76.4004,-52.3178 L -75.8396,-52.3178 L -75.2911,-52.2012 L -74.7787,-51.9731
 L -74.3251,-51.6435 L -73.9498,-51.2267 L -73.6694,-50.7411 L -73.4961,-50.2077 L -73.4375,-49.65 L -73.4961,-49.0923
 L -73.6694,-48.5589 L -73.9498,-48.0733 L -74.3251,-47.6565 L -74.7787,-47.3269 L -75.2911,-47.0988 L -75.8396,-46.9822
 z
M -61.8443,-14.7189 L -65.687,-15.5357 L -69.276,-17.1336 L -72.4543,-19.4428 L -75.083,-22.3623 L -77.0473,-25.7646
 L -78.2614,-29.5009 L -78.672,-33.408 L -78.2614,-37.3151 L -77.0473,-41.0514 L -75.083,-44.4537 L -72.4543,-47.3732
 L -69.276,-49.6823 L -65.687,-51.2802 L -61.8443,-52.097 L -57.9157,-52.097 L -54.073,-51.2802 L -50.484,-49.6823
 L -47.3057,-47.3732 L -44.6769,-44.4537 L -42.7126,-41.0514 L -41.4986,-37.3151 L -41.088,-33.408 L -41.4986,-29.5009
 L -42.7126,-25.7646 L -44.6769,-22.3623 L -47.3057,-19.4428 L -50.484,-17.1336 L -54.073,-15.5357 L -57.9157,-14.7189
 z
M -42.9904,-45.9822 L -43.5389,-46.0988 L -44.0512,-46.3269 L -44.5049,-46.6565 L -44.8802,-47.0733 L -45.1606,-47.5589
 L -45.3339,-48.0923 L -45.3925,-48.65 L -45.3339,-49.2077 L -45.1606,-49.7411 L -44.8802,-50.2267 L -44.5049,-50.6435
 L -44.0512,-50.9731 L -43.5389,-51.2012 L -42.9904,-51.3178 L -42.4296,-51.3178 L -41.8811,-51.2012 L -41.3687,-50.9731
 L -40.9151,-50.6435 L -40.5398,-50.2267 L -40.2594,-49.7411 L -40.0861,-49.2077 L -40.0275,-48.65 L -40.0861,-48.0923
 L -40.2594,-47.5589 L -40.5398,-47.0733 L -40.9151,-46.6565 L -41.3687,-46.3269 L -41.8811,-46.0988 L -42.4296,-45.9822
 z
M 134.807,-44.1601 L 134.428,-44.2405 L 134.075,-44.3978 L 133.762,-44.6252 L 133.503,-44.9126 L 133.31,-45.2475
 L 133.19,-45.6154 L 133.15,-46 L 133.19,-46.3846 L 133.31,-46.7525 L 133.503,-47.0874 L 133.762,-47.3748
 L 134.075,-47.6021 L 134.428,-47.7594 L 134.807,-47.8399 L 135.193,-47.8399 L 135.572,-47.7594 L 135.925,-47.6021
 L 136.238,-47.3748 L 136.497,-47.0874 L 136.69,-46.7525 L 136.81,-46.3846 L 136.85,-46 L 136.81,-45.6154
 L 136.69,-45.2475 L 136.497,-44.9126 L 136.238,-44.6252 L 135.925,-44.3978 L 135.572,-44.2405 L 135.193,-44.1601
 z
M 184.807,-44.1601 L 184.428,-44.2405 L 184.075,-44.3978 L 183.762,-44.6252 L 183.503,-44.9126 L 183.31,-45.2475
 L 183.19,-45.6154 L 183.15,-46 L 183.19,-46.3846 L 183.31,-46.7525 L 183.503,-47.0874 L 183.762,-47.3748
 L 184.075,-47.6021 L 184.428,-47.7594 L 184.807,-47.8399 L 185.193,-47.8399 L 185.572,-47.7594 L 185.925,-47.6021
 L 186.238,-47.3748 L 186.497,-47.0874 L 186.69,-46.7525 L 186.81,-46.3846 L 186.85,-46 L 186.81,-45.6154
 L 186.69,-45.2475 L 186.497,-44.9126 L 186.238,-44.6252 L 185.925,-44.3978 L 185.572,-44.2405 L 185.193,-44.1601
 z
M -5.19337,-44.1601 L -5.57167,-44.2405 L -5.92499,-44.3978 L -6.23788,-44.6252 L -6.49667,-44.9126 L -6.69005,-45.2475
 L -6.80957,-45.6154 L -6.84999,-46 L -6.80957,-46.3846 L -6.69005,-46.7525 L -6.49667,-47.0874 L -6.23788,-47.3748
 L -5.92499,-47.6021 L -5.57167,-47.7594 L -5.19337,-47.8399 L -4.80661,-47.8399 L -4.42831,-47.7594 L -4.075,-47.6021
 L -3.7621,-47.3748 L -3.50331,-47.0874 L -3.30994,-46.7525 L -3.19041,-46.3846 L -3.14999,-46 L -3.19041,-45.6154
 L -3.30994,-45.2475 L -3.50331,-44.9126 L -3.7621,-44.6252 L -4.075,-44.3978 L -4.42831,-44.2405 L -4.80661,-44.1601
 z
M 234.807,-44.1601 L 234.428,-44.2405 L 234.075,-44.3978 L 233.762,-44.6252 L 233.503,-44.9126 L 233.31,-45.2475
 L 233.19,-45.6154 L 233.15,-46 L 233.19,-46.3846 L 233.31,-46.7525 L 233.503,-47.0874 L 233.762,-47.3748
 L 234.075,-47.6021 L 234.428,-47.7594 L 234.807,-47.8399 L 235.193,-47.8399 L 235.572,-47.7594 L 235.925,-47.6021
 L 236.238,-47.3748 L 236.497,-47.0874 L 236.69,-46.7525 L 236.81,-46.3846 L 236.85,-46 L 236.81,-45.6154
 L 236.69,-45.2475 L 236.497,-44.9126 L 236.238,-44.6252 L 235.925,-44.3978 L 235.572,-44.2405 L 235.193,-44.1601
 z
M 94.8066,-44.1601 L 94.4283,-44.2405 L 94.075,-44.3978 L 93.7621,-44.6252 L 93.5033,-44.9126 L 93.3099,-45.2475
 L 93.1904,-45.6154 L 93.15,-46 L 93.1904,-46.3846 L 93.3099,-46.7525 L 93.5033,-47.0874 L 93.7621,-47.3748
 L 94.075,-47.6021 L 94.4283,-47.7594 L 94.8066,-47.8399 L 95.1934,-47.8399 L 95.5717,-47.7594 L 95.925,-47.6021
 L 96.2379,-47.3748 L 96.4967,-47.0874 L 96.69,-46.7525 L 96.8096,-46.3846 L 96.85,-46 L 96.8096,-45.6154
 L 96.69,-45.2475 L 96.4967,-44.9126 L 96.2379,-44.6252 L 95.925,-44.3978 L 95.5717,-44.2405 L 95.1934,-44.1601
 z
M 138,-17 L 138,-40 L 234,-40 L 234,-17 z
M -76.4004,-14.0362 L -76.9489,-14.1528 L -77.4612,-14.3809 L -77.9149,-14.7105 L -78.2902,-15.1273 L -78.5706,-15.6129
 L -78.7439,-16.1463 L -78.8025,-16.704 L -78.7439,-17.2617 L -78.5706,-17.7951 L -78.2902,-18.2807 L -77.9149,-18.6975
 L -77.4612,-19.0271 L -76.9489,-19.2552 L -76.4004,-19.3718 L -75.8396,-19.3718 L -75.2911,-19.2552 L -74.7787,-19.0271
 L -74.3251,-18.6975 L -73.9498,-18.2807 L -73.6694,-17.7951 L -73.4961,-17.2617 L -73.4375,-16.704 L -73.4961,-16.1463
 L -73.6694,-15.6129 L -73.9498,-15.1273 L -74.3251,-14.7105 L -74.7787,-14.3809 L -75.2911,-14.1528 L -75.8396,-14.0362
 z
M -42.9904,-14.0362 L -43.5389,-14.1528 L -44.0512,-14.3809 L -44.5049,-14.7105 L -44.8802,-15.1273 L -45.1606,-15.6129
 L -45.3339,-16.1463 L -45.3925,-16.704 L -45.3339,-17.2617 L -45.1606,-17.7951 L -44.8802,-18.2807 L -44.5049,-18.6975
 L -44.0512,-19.0271 L -43.5389,-19.2552 L -42.9904,-19.3718 L -42.4296,-19.3718 L -41.8811,-19.2552 L -41.3687,-19.0271
 L -40.9151,-18.6975 L -40.5398,-18.2807 L -40.2594,-17.7951 L -40.0861,-17.2617 L -40.0275,-16.704 L -40.0861,-16.1463
 L -40.2594,-15.6129 L -40.5398,-15.1273 L -40.9151,-14.7105 L -41.3687,-14.3809 L -41.8811,-14.1528 L -42.4296,-14.0362
 z
M 94.8066,-9.16013 L 94.4283,-9.24054 L 94.075,-9.39784 L 93.7621,-9.62517 L 93.5033,-9.91258 L 93.3099,-10.2475
 L 93.1904,-10.6154 L 93.15,-11 L 93.1904,-11.3846 L 93.3099,-11.7525 L 93.5033,-12.0874 L 93.7621,-12.3748
 L 94.075,-12.6021 L 94.4283,-12.7594 L 94.8066,-12.8399 L 95.1934,-12.8399 L 95.5717,-12.7594 L 95.925,-12.6021
 L 96.2379,-12.3748 L 96.4967,-12.0874 L 96.69,-11.7525 L 96.8096,-11.3846 L 96.85,-11 L 96.8096,-10.6154
 L 96.69,-10.2475 L 96.4967,-9.91258 L 96.2379,-9.62517 L 95.925,-9.39784 L 95.5717,-9.24054 L 95.1934,-9.16013
 z
M 234.807,-9.16013 L 234.428,-9.24054 L 234.075,-9.39784 L 233.762,-9.62517 L 233.503,-9.91258 L 233.31,-10.2475
 L 233.19,-10.6154 L 233.15,-11 L 233.19,-11.3846 L 233.31,-11.7525 L 233.503,-12.0874 L 233.762,-12.3748
 L 234.075,-12.6021 L 234.428,-12.7594 L 234.807,-12.8399 L 235.193,-12.8399 L 235.572,-12.7594 L 235.925,-12.6021
 L 236.238,-12.3748 L 236.497,-12.0874 L 236.69,-11.7525 L 236.81,-11.3846 L 236.85,-11 L 236.81,-10.6154
 L 236.69,-10.2475 L 236.497,-9.91258 L 236.238,-9.62517 L 235.925,-9.39784 L 235.572,-9.24054 L 235.193,-9.16013
 z
M -5.19337,-9.16013 L -5.57167,-9.24054 L -5.92499,-9.39784 L -6.23788,-9.62517 L -6.49667,-9.91258 L -6.69005,-10.2475
 L -6.80957,-10.6154 L -6.84999,-11 L -6.80957,-11.3846 L -6.69005,-11.7525 L -6.49667,-12.0874 L -6.23788,-12.3748
 L -5.92499,-12.6021 L -5.57167,-12.7594 L -5.19337,-12.8399 L -4.80661,-12.8399 L -4.42831,-12.7594 L -4.075,-12.6021
 L -3.7621,-12.3748 L -3.50331,-12.0874 L -3.30994,-11.7525 L -3.19041,-11.3846 L -3.14999,-11 L -3.19041,-10.6154
 L -3.30994,-10.2475 L -3.50331,-9.91258 L -3.7621,-9.62517 L -4.075,-9.39784 L -4.42831,-9.24054 L -4.80661,-9.16013
 z
M 184.807,-9.16013 L 184.428,-9.24054 L 184.075,-9.39784 L 183.762,-9.62517 L 183.503,-9.91258 L 183.31,-10.2475
 L 183.19,-10.6154 L 183.15,-11 L 183.19,-11.3846 L 183.31,-11.7525 L 183.503,-12.0874 L 183.762,-12.3748
 L 184.075,-12.6021 L 184.428,-12.7594 L 184.807,-12.8399 L 185.193,-12.8399 L 185.572,-12.7594 L 185.925,-12.6021
 L 186.238,-12.3748 L 186.497,-12.0874 L 186.69,-11.7525 L 186.81,-11.3846 L 186.85,-11 L 186.81,-10.6154
 L 186.69,-10.2475 L 186.497,-9.91258 L 186.238,-9.62517 L 185.925,-9.39784 L 185.572,-9.24054 L 185.193,-9.16013
 z
M 134.807,-9.16013 L 134.428,-9.24054 L 134.075,-9.39784 L 133.762,-9.62517 L 133.503,-9.91258 L 133.31,-10.2475
 L 133.19,-10.6154 L 133.15,-11 L 133.19,-11.3846 L 133.31,-11.7525 L 133.503,-12.0874 L 133.762,-12.3748
 L 134.075,-12.6021 L 134.428,-12.7594 L 134.807,-12.8399 L 135.193,-12.8399 L 135.572,-12.7594 L 135.925,-12.6021
 L 136.238,-12.3748 L 136.497,-12.0874 L 136.69,-11.7525 L 136.81,-11.3846 L 136.85,-11 L 136.81,-10.6154
 L 136.69,-10.2475 L 136.497,-9.91258 L 136.238,-9.62517 L 135.925,-9.39784 L 135.572,-9.24054 L 135.193,-9.16013
 z
" stroke="black" fill="lightgray" stroke-width="0.5"/></svg>
