<?xml version="1.0" standalone="no"?>
<!DOCTYPE svg PUBLIC "-//W3C//DTD SVG 1.1//EN" "http://www.w3.org/Graphics/SVG/1.1/DTD/svg11.dtd">
<svg width="584" height="330" viewBox="19 -310 584 330" xmlns="http://www.w3.org/2000/svg" version="1.1">
<title>OpenSCAD Model</title>
<path d="
M 58,-54 L 566,-54 L 566,20 L 602.75,20 L 602.75,-310 L 566,-310
 L 566,-225 L 58,-225 L 58,-310 L 19.25,-310 L 19.25,20 L 58,20
 z
M 25.7805,-288.911 L 25.3511,-289.003 L 24.95,-289.181 L 24.5948,-289.439 L 24.3011,-289.766 L 24.0815,-290.146
 L 23.9459,-290.563 L 23.9,-291 L 23.9459,-291.437 L 23.9665,-291.5 L 23.9459,-291.563 L 23.9,-292
 L 23.9459,-292.437 L 23.9665,-292.5 L 23.9459,-292.563 L 23.9,-293 L 23.9459,-293.437 L 23.9665,-293.5
 L 23.9459,-293.563 L 23.9,-294 L 23.9459,-294.437 L 23.9665,-294.5 L 23.9459,-294.563 L 23.9,-295
 L 23.9459,-295.437 L 23.9665,-295.5 L 23.9459,-295.563 L 23.9,-296 L 23.9459,-296.437 L 23.9665,-296.5
 L 23.9459,-296.563 L 23.9,-297 L 23.9459,-297.437 L 24.0815,-297.854 L 24.3011,-298.234 L 24.5948,-298.561
 L 24.95,-298.819 L 25.3511,-298.997 L 25.7805,-299.089 L 26.2195,-299.089 L 26.6489,-298.997 L 27.05,-298.819
 L 27.4052,-298.561 L 27.6989,-298.234 L 27.9184,-297.854 L 28.0541,-297.437 L 28.1,-297 L 28.0541,-296.563
 L 28.0335,-296.5 L 28.0541,-296.437 L 28.1,-296 L 28.0541,-295.563 L 28.0335,-295.5 L 28.0541,-295.437
 L 28.1,-295 L 28.0541,-294.563 L 28.0335,-294.5 L 28.0541,-294.437 L 28.1,-294 L 28.0541,-293.563
 L 28.0335,-293.5 L 28.0541,-293.437 L 28.1,-293 L 28.0541,-292.563 L 28.0335,-292.5 L 28.0541,-292.437
 L 28.1,-292 L 28.0541,-291.563 L 28.0335,-291.5 L 28.0541,-291.437 L 28.1,-291 L 28.0541,-290.563
 L 27.9184,-290.146 L 27.6989,-289.766 L 27.4052,-289.439 L 27.05,-289.181 L 26.6489,-289.003 L 26.2195,-288.911
 z
M 594.781,-288.911 L 594.351,-289.003 L 593.95,-289.181 L 593.595,-289.439 L 593.301,-289.766 L 593.082,-290.146
 L 592.946,-290.563 L 592.9,-291 L 592.946,-291.437 L 592.966,-291.5 L 592.946,-291.563 L 592.9,-292
 L 592.946,-292.437 L 592.966,-292.5 L 592.946,-292.563 L 592.9,-293 L 592.946,-293.437 L 592.966,-293.5
 L 592.946,-293.563 L 592.9,-294 L 592.946,-294.437 L 592.966,-294.5 L 592.946,-294.563 L 592.9,-295
 L 592.946,-295.437 L 592.966,-295.5 L 592.946,-295.563 L 592.9,-296 L 592.946,-296.437 L 592.966,-296.5
 L 592.946,-296.563 L 592.9,-297 L 592.946,-297.437 L 593.082,-297.854 L 593.301,-298.234 L 593.595,-298.561
 L 593.95,-298.819 L 594.351,-298.997 L 594.781,-299.089 L 595.219,-299.089 L 595.649,-298.997 L 596.05,-298.819
 L 596.405,-298.561 L 596.699,-298.234 L 596.918,-297.854 L 597.054,-297.437 L 597.1,-297 L 597.054,-296.563
 L 597.034,-296.5 L 597.054,-296.437 L 597.1,-296 L 597.054,-295.563 L 597.034,-295.5 L 597.054,-295.437
 L 597.1,-295 L 597.054,-294.563 L 597.034,-294.5 L 597.054,-294.437 L 597.1,-294 L 597.054,-293.563
 L 597.034,-293.5 L 597.054,-293.437 L 597.1,-293 L 597.054,-292.563 L 597.034,-292.5 L 597.054,-292.437
 L 597.1,-292 L 597.054,-291.563 L 597.034,-291.5 L 597.054,-291.437 L 597.1,-291 L 597.054,-290.563
 L 596.918,-290.146 L 596.699,-289.766 L 596.405,-289.439 L 596.05,-289.181 L 595.649,-289.003 L 595.219,-288.911
 z
M 574.354,-265.608 L 574.067,-265.669 L 573.8,-265.788 L 573.563,-265.96 L 573.367,-266.177 L 573.221,-266.431
 L 573.131,-266.709 L 573.1,-267 L 573.131,-267.291 L 573.221,-267.569 L 573.367,-267.823 L 573.563,-268.04
 L 573.8,-268.212 L 574.067,-268.331 L 574.354,-268.392 L 574.646,-268.392 L 574.933,-268.331 L 575.2,-268.212
 L 575.437,-268.04 L 575.633,-267.823 L 575.779,-267.569 L 575.869,-267.291 L 575.9,-267 L 575.869,-266.709
 L 575.779,-266.431 L 575.633,-266.177 L 575.437,-265.96 L 575.2,-265.788 L 574.933,-265.669 L 574.646,-265.608
 z
M 47.3537,-253.608 L 47.0674,-253.669 L 46.8,-253.788 L 46.5632,-253.96 L 46.3674,-254.177 L 46.221,-254.431
 L 46.1306,-254.709 L 46.1,-255 L 46.1306,-255.291 L 46.221,-255.569 L 46.3674,-255.823 L 46.5632,-256.04
 L 46.8,-256.212 L 47.0674,-256.331 L 47.3537,-256.392 L 47.6463,-256.392 L 47.9326,-256.331 L 48.2,-256.212
 L 48.4368,-256.04 L 48.6326,-255.823 L 48.779,-255.569 L 48.8694,-255.291 L 48.9,-255 L 48.8694,-254.709
 L 48.779,-254.431 L 48.6326,-254.177 L 48.4368,-253.96 L 48.2,-253.788 L 47.9326,-253.669 L 47.6463,-253.608
 z
M 574.354,-217.608 L 574.067,-217.669 L 573.8,-217.788 L 573.563,-217.96 L 573.367,-218.177 L 573.221,-218.431
 L 573.131,-218.709 L 573.1,-219 L 573.131,-219.291 L 573.221,-219.569 L 573.367,-219.823 L 573.563,-220.04
 L 573.8,-220.212 L 574.067,-220.331 L 574.354,-220.392 L 574.646,-220.392 L 574.933,-220.331 L 575.2,-220.212
 L 575.437,-220.04 L 575.633,-219.823 L 575.779,-219.569 L 575.869,-219.291 L 575.9,-219 L 575.869,-218.709
 L 575.779,-218.431 L 575.633,-218.177 L 575.437,-217.96 L 575.2,-217.788 L 574.933,-217.669 L 574.646,-217.608
 z
M 47.3537,-208.608 L 47.0674,-208.669 L 46.8,-208.788 L 46.5632,-208.96 L 46.3674,-209.177 L 46.221,-209.431
 L 46.1306,-209.709 L 46.1,-210 L 46.1306,-210.291 L 46.221,-210.569 L 46.3674,-210.823 L 46.5632,-211.04
 L 46.8,-211.212 L 47.0674,-211.331 L 47.3537,-211.392 L 47.6463,-211.392 L 47.9326,-211.331 L 48.2,-211.212
 L 48.4368,-211.04 L 48.6326,-210.823 L 48.779,-210.569 L 48.8694,-210.291 L 48.9,-210 L 48.8694,-209.709
 L 48.779,-209.431 L 48.6326,-209.177 L 48.4368,-208.96 L 48.2,-208.788 L 47.9326,-208.669 L 47.6463,-208.608
 z
M 587.202,-181.166 L 586.619,-181.289 L 586.075,-181.532 L 585.593,-181.882 L 585.194,-182.325 L 584.896,-182.841
 L 584.712,-183.407 L 584.65,-184 L 584.712,-184.593 L 584.896,-185.159 L 585.194,-185.675 L 585.593,-186.118
 L 586.075,-186.468 L 586.619,-186.711 L 587.202,-186.834 L 587.798,-186.834 L 588.381,-186.711 L 588.925,-186.468
 L 589.407,-186.118 L 589.806,-185.675 L 590.104,-185.159 L 590.288,-184.593 L 590.35,-184 L 590.288,-183.407
 L 590.104,-182.841 L 589.806,-182.325 L 589.407,-181.882 L 588.925,-181.532 L 588.381,-181.289 L 587.798,-181.166
 z
M 35.2021,-181.166 L 34.6193,-181.289 L 34.075,-181.532 L 33.593,-181.882 L 33.1943,-182.325 L 32.8964,-182.841
 L 32.7123,-183.407 L 32.65,-184 L 32.7123,-184.593 L 32.8964,-185.159 L 33.1943,-185.675 L 33.593,-186.118
 L 34.075,-186.468 L 34.6193,-186.711 L 35.2021,-186.834 L 35.7979,-186.834 L 36.3807,-186.711 L 36.925,-186.468
 L 37.407,-186.118 L 37.8057,-185.675 L 38.1036,-185.159 L 38.2877,-184.593 L 38.35,-184 L 38.2877,-183.407
 L 38.1036,-182.841 L 37.8057,-182.325 L 37.407,-181.882 L 36.925,-181.532 L 36.3807,-181.289 L 35.7979,-181.166
 z
M 595.354,-181.608 L 595.067,-181.669 L 594.8,-181.788 L 594.563,-181.96 L 594.367,-182.177 L 594.221,-182.431
 L 594.131,-182.709 L 594.1,-183 L 594.131,-183.291 L 594.221,-183.569 L 594.367,-183.823 L 594.563,-184.04
 L 594.8,-184.212 L 595.067,-184.331 L 595.354,-184.392 L 595.646,-184.392 L 595.933,-184.331 L 596.2,-184.212
 L 596.437,-184.04 L 596.633,-183.823 L 596.779,-183.569 L 596.869,-183.291 L 596.9,-183 L 596.869,-182.709
 L 596.779,-182.431 L 596.633,-182.177 L 596.437,-181.96 L 596.2,-181.788 L 595.933,-181.669 L 595.646,-181.608
 z
M 27.3537,-181.608 L 27.0674,-181.669 L 26.8,-181.788 L 26.5632,-181.96 L 26.3674,-182.177 L 26.221,-182.431
 L 26.1306,-182.709 L 26.1,-183 L 26.1306,-183.291 L 26.221,-183.569 L 26.3674,-183.823 L 26.5632,-184.04
 L 26.8,-184.212 L 27.0674,-184.331 L 27.3537,-184.392 L 27.6463,-184.392 L 27.9326,-184.331 L 28.2,-184.212
 L 28.4368,-184.04 L 28.6326,-183.823 L 28.779,-183.569 L 28.8694,-183.291 L 28.9,-183 L 28.8694,-182.709
 L 28.779,-182.431 L 28.6326,-182.177 L 28.4368,-181.96 L 28.2,-181.788 L 27.9326,-181.669 L 27.6463,-181.608
 z
M 595.354,-171.608 L 595.067,-171.669 L 594.8,-171.788 L 594.563,-171.96 L 594.367,-172.177 L 594.221,-172.431
 L 594.131,-172.709 L 594.1,-173 L 594.131,-173.291 L 594.221,-173.569 L 594.367,-173.823 L 594.563,-174.04
 L 594.8,-174.212 L 595.067,-174.331 L 595.354,-174.392 L 595.646,-174.392 L 595.933,-174.331 L 596.2,-174.212
 L 596.437,-174.04 L 596.633,-173.823 L 596.779,-173.569 L 596.869,-173.291 L 596.9,-173 L 596.869,-172.709
 L 596.779,-172.431 L 596.633,-172.177 L 596.437,-171.96 L 596.2,-171.788 L 595.933,-171.669 L 595.646,-171.608
 z
M 27.3537,-171.608 L 27.0674,-171.669 L 26.8,-171.788 L 26.5632,-171.96 L 26.3674,-172.177 L 26.221,-172.431
 L 26.1306,-172.709 L 26.1,-173 L 26.1306,-173.291 L 26.221,-173.569 L 26.3674,-173.823 L 26.5632,-174.04
 L 26.8,-174.212 L 27.0674,-174.331 L 27.3537,-174.392 L 27.6463,-174.392 L 27.9326,-174.331 L 28.2,-174.212
 L 28.4368,-174.04 L 28.6326,-173.823 L 28.779,-173.569 L 28.8694,-173.291 L 28.9,-173 L 28.8694,-172.709
 L 28.779,-172.431 L 28.6326,-172.177 L 28.4368,-171.96 L 28.2,-171.788 L 27.9326,-171.669 L 27.6463,-171.608
 z
M 25.7805,-137.911 L 25.3511,-138.003 L 24.95,-138.181 L 24.5948,-138.439 L 24.3011,-138.766 L 24.0815,-139.146
 L 23.9459,-139.563 L 23.9,-140 L 23.9459,-140.437 L 23.9665,-140.5 L 23.9459,-140.563 L 23.9,-141
 L 23.9459,-141.437 L 23.9665,-141.5 L 23.9459,-141.563 L 23.9,-142 L 23.9459,-142.437 L 23.9665,-142.5
 L 23.9459,-142.563 L 23.9,-143 L 23.9459,-143.437 L 23.9665,-143.5 L 23.9459,-143.563 L 23.9,-144
 L 23.9459,-144.437 L 23.9665,-144.5 L 23.9459,-144.563 L 23.9,-145 L 23.9459,-145.437 L 23.9665,-145.5
 L 23.9459,-145.563 L 23.9,-146 L 23.9459,-146.437 L 24.0815,-146.854 L 24.3011,-147.234 L 24.5948,-147.561
 L 24.95,-147.819 L 25.3511,-147.997 L 25.7805,-148.089 L 26.2195,-148.089 L 26.6489,-147.997 L 27.05,-147.819
 L 27.4052,-147.561 L 27.6989,-147.234 L 27.9184,-146.854 L 28.0541,-146.437 L 28.1,-146 L 28.0541,-145.563
 L 28.0335,-145.5 L 28.0541,-145.437 L 28.1,-145 L 28.0541,-144.563 L 28.0335,-144.5 L 28.0541,-144.437
 L 28.1,-144 L 28.0541,-143.563 L 28.0335,-143.5 L 28.0541,-143.437 L 28.1,-143 L 28.0541,-142.563
 L 28.0335,-142.5 L 28.0541,-142.437 L 28.1,-142 L 28.0541,-141.563 L 28.0335,-141.5 L 28.0541,-141.437
 L 28.1,-141 L 28.0541,-140.563 L 28.0335,-140.5 L 28.0541,-140.437 L 28.1,-140 L 28.0541,-139.563
 L 27.9184,-139.146 L 27.6989,-138.766 L 27.4052,-138.439 L 27.05,-138.181 L 26.6489,-138.003 L 26.2195,-137.911
 z
M 594.781,-137.911 L 594.351,-138.003 L 593.95,-138.181 L 593.595,-138.439 L 593.301,-138.766 L 593.082,-139.146
 L 592.946,-139.563 L 592.9,-140 L 592.946,-140.437 L 592.966,-140.5 L 592.946,-140.563 L 592.9,-141
 L 592.946,-141.437 L 592.966,-141.5 L 592.946,-141.563 L 592.9,-142 L 592.946,-142.437 L 592.966,-142.5
 L 592.946,-142.563 L 592.9,-143 L 592.946,-143.437 L 592.966,-143.5 L 592.946,-143.563 L 592.9,-144
 L 592.946,-144.437 L 592.966,-144.5 L 592.946,-144.563 L 592.9,-145 L 592.946,-145.437 L 592.966,-145.5
 L 592.946,-145.563 L 592.9,-146 L 592.946,-146.437 L 593.082,-146.854 L 593.301,-147.234 L 593.595,-147.561
 L 593.95,-147.819 L 594.351,-147.997 L 594.781,-148.089 L 595.219,-148.089 L 595.649,-147.997 L 596.05,-147.819
 L 596.405,-147.561 L 596.699,-147.234 L 596.918,-146.854 L 597.054,-146.437 L 597.1,-146 L 597.054,-145.563
 L 597.034,-145.5 L 597.054,-145.437 L 597.1,-145 L 597.054,-144.563 L 597.034,-144.5 L 597.054,-144.437
 L 597.1,-144 L 597.054,-143.563 L 597.034,-143.5 L 597.054,-143.437 L 597.1,-143 L 597.054,-142.563
 L 597.034,-142.5 L 597.054,-142.437 L 597.1,-142 L 597.054,-141.563 L 597.034,-141.5 L 597.054,-141.437
 L 597.1,-141 L 597.054,-140.563 L 597.034,-140.5 L 597.054,-140.437 L 597.1,-140 L 597.054,-139.563
 L 596.918,-139.146 L 596.699,-138.766 L 596.405,-138.439 L 596.05,-138.181 L 595.649,-138.003 L 595.219,-137.911
 z
M 574.354,-27.6077 L 574.067,-27.6685 L 573.8,-27.7876 L 573.563,-27.9596 L 573.367,-28.1771 L 573.221,-28.4306
 L 573.131,-28.7089 L 573.1,-29 L 573.131,-29.2911 L 573.221,-29.5694 L 573.367,-29.8229 L 573.563,-30.0404
 L 573.8,-30.2124 L 574.067,-30.3315 L 574.354,-30.3923 L 574.646,-30.3923 L 574.933,-30.3315 L 575.2,-30.2124
 L 575.437,-30.0404 L 575.633,-29.8229 L 575.779,-29.5694 L 575.869,-29.2911 L 575.9,-29 L 575.869,-28.7089
 L 575.779,-28.4306 L 575.633,-28.1771 L 575.437,-27.9596 L 575.2,-27.7876 L 574.933,-27.6685 L 574.646,-27.6077
 z
M 47.3537,-21.6077 L 47.0674,-21.6685 L 46.8,-21.7876 L 46.5632,-21.9596 L 46.3674,-22.1771 L 46.221,-22.4306
 L 46.1306,-22.7089 L 46.1,-23 L 46.1306,-23.2911 L 46.221,-23.5694 L 46.3674,-23.8229 L 46.5632,-24.0404
 L 46.8,-24.2124 L 47.0674,-24.3315 L 47.3537,-24.3923 L 47.6463,-24.3923 L 47.9326,-24.3315 L 48.2,-24.2124
 L 48.4368,-24.0404 L 48.6326,-23.8229 L 48.779,-23.5694 L 48.8694,-23.2911 L 48.9,-23 L 48.8694,-22.7089
 L 48.779,-22.4306 L 48.6326,-22.1771 L 48.4368,-21.9596 L 48.2,-21.7876 L 47.9326,-21.6685 L 47.6463,-21.6077
 z
M 35.2021,-1.1656 L 34.6193,-1.28947 L 34.075,-1.53181 L 33.593,-1.88203 L 33.1943,-2.3248 L 32.8964,-2.84079
 L 32.7123,-3.40744 L 32.65,-4 L 32.7123,-4.59254 L 32.8964,-5.15919 L 33.1943,-5.67519 L 33.593,-6.11795
 L 34.075,-6.46817 L 34.6193,-6.71051 L 35.2021,-6.83438 L 35.7979,-6.83438 L 36.3807,-6.71051 L 36.925,-6.46817
 L 37.407,-6.11795 L 37.8057,-5.67519 L 38.1036,-5.15919 L 38.2877,-4.59254 L 38.35,-4 L 38.2877,-3.40744
 L 38.1036,-2.84079 L 37.8057,-2.3248 L 37.407,-1.88203 L 36.925,-1.53181 L 36.3807,-1.28947 L 35.7979,-1.1656
 z
M 587.202,-1.1656 L 586.619,-1.28947 L 586.075,-1.53181 L 585.593,-1.88203 L 585.194,-2.3248 L 584.896,-2.84079
 L 584.712,-3.40744 L 584.65,-4 L 584.712,-4.59254 L 584.896,-5.15919 L 585.194,-5.67519 L 585.593,-6.11795
 L 586.075,-6.46817 L 586.619,-6.71051 L 587.202,-6.83438 L 587.798,-6.83438 L 588.381,-6.71051 L 588.925,-6.46817
 L 589.407,-6.11795 L 589.806,-5.67519 L 590.104,-5.15919 L 590.288,-4.59254 L 590.35,-4 L 590.288,-3.40744
 L 590.104,-2.84079 L 589.806,-2.3248 L 589.407,-1.88203 L 588.925,-1.53181 L 588.381,-1.28947 L 587.798,-1.1656
 z
M 574.354,5.39232 L 574.067,5.33147 L 573.8,5.21243 L 573.563,5.04039 L 573.367,4.82289 L 573.221,4.56943
 L 573.131,4.29106 L 573.1,3.99998 L 573.131,3.70892 L 573.221,3.43056 L 573.367,3.17709 L 573.563,2.95959
 L 573.8,2.78755 L 574.067,2.66852 L 574.354,2.60767 L 574.646,2.60767 L 574.933,2.66852 L 575.2,2.78755
 L 575.437,2.95959 L 575.633,3.17709 L 575.779,3.43056 L 575.869,3.70892 L 575.9,4 L 575.869,4.29106
 L 575.779,4.56943 L 575.633,4.82289 L 575.437,5.04039 L 575.2,5.21243 L 574.933,5.33147 L 574.646,5.39232
 z
M 47.3537,8.39232 L 47.0674,8.33147 L 46.8,8.21243 L 46.5632,8.04039 L 46.3674,7.82289 L 46.221,7.56943
 L 46.1306,7.29106 L 46.1,6.99998 L 46.1306,6.70892 L 46.221,6.43056 L 46.3674,6.17709 L 46.5632,5.95959
 L 46.8,5.78755 L 47.0674,5.66852 L 47.3537,5.60767 L 47.6463,5.60767 L 47.9326,5.66852 L 48.2,5.78755
 L 48.4368,5.95959 L 48.6326,6.17709 L 48.779,6.43056 L 48.8694,6.70892 L 48.9,7 L 48.8694,7.29106
 L 48.779,7.56943 L 48.6326,7.82289 L 48.4368,8.04039 L 48.2,8.21243 L 47.9326,8.33147 L 47.6463,8.39232
 z
" stroke="black" fill="lightgray" stroke-width="0.5"/></svg>
