<?xml version="1.0" standalone="no"?>
<!DOCTYPE svg PUBLIC "-//W3C//DTD SVG 1.1//EN" "http://www.w3.org/Graphics/SVG/1.1/DTD/svg11.dtd">
<svg width="509" height="255" viewBox="57 -243 509 255" xmlns="http://www.w3.org/2000/svg" version="1.1">
<title>OpenSCAD Model</title>
<path d="
M 565.5,-243 L 57.5,-243 L 57.5,12 L 565.5,12 z
M 175.375,-230.807 L 175.129,-230.859 L 174.9,-230.961 L 174.697,-231.108 L 174.529,-231.295 L 174.404,-231.512
 L 174.326,-231.751 L 174.3,-232 L 174.326,-232.249 L 174.404,-232.488 L 174.529,-232.705 L 174.697,-232.892
 L 174.9,-233.039 L 175.129,-233.141 L 175.375,-233.193 L 175.625,-233.193 L 175.871,-233.141 L 176.1,-233.039
 L 176.303,-232.892 L 176.471,-232.705 L 176.596,-232.488 L 176.674,-232.249 L 176.7,-232 L 176.674,-231.751
 L 176.596,-231.512 L 176.471,-231.295 L 176.303,-231.108 L 176.1,-230.961 L 175.871,-230.859 L 175.625,-230.807
 z
M 81.3746,-230.807 L 81.1292,-230.859 L 80.9,-230.961 L 80.697,-231.108 L 80.5292,-231.295 L 80.4037,-231.512
 L 80.3262,-231.751 L 80.3,-232 L 80.3262,-232.249 L 80.4037,-232.488 L 80.5292,-232.705 L 80.697,-232.892
 L 80.9,-233.039 L 81.1292,-233.141 L 81.3746,-233.193 L 81.6254,-233.193 L 81.8708,-233.141 L 82.1,-233.039
 L 82.3029,-232.892 L 82.4708,-232.705 L 82.5963,-232.488 L 82.6738,-232.249 L 82.7,-232 L 82.6738,-231.751
 L 82.5963,-231.512 L 82.4708,-231.295 L 82.3029,-231.108 L 82.1,-230.961 L 81.8708,-230.859 L 81.6254,-230.807
 z
M 457.375,-230.807 L 457.129,-230.859 L 456.9,-230.961 L 456.697,-231.108 L 456.529,-231.295 L 456.404,-231.512
 L 456.326,-231.751 L 456.3,-232 L 456.326,-232.249 L 456.404,-232.488 L 456.529,-232.705 L 456.697,-232.892
 L 456.9,-233.039 L 457.129,-233.141 L 457.375,-233.193 L 457.625,-233.193 L 457.871,-233.141 L 458.1,-233.039
 L 458.303,-232.892 L 458.471,-232.705 L 458.596,-232.488 L 458.674,-232.249 L 458.7,-232 L 458.674,-231.751
 L 458.596,-231.512 L 458.471,-231.295 L 458.303,-231.108 L 458.1,-230.961 L 457.871,-230.859 L 457.625,-230.807
 z
M 269.375,-230.807 L 269.129,-230.859 L 268.9,-230.961 L 268.697,-231.108 L 268.529,-231.295 L 268.404,-231.512
 L 268.326,-231.751 L 268.3,-232 L 268.326,-232.249 L 268.404,-232.488 L 268.529,-232.705 L 268.697,-232.892
 L 268.9,-233.039 L 269.129,-233.141 L 269.375,-233.193 L 269.625,-233.193 L 269.871,-233.141 L 270.1,-233.039
 L 270.303,-232.892 L 270.471,-232.705 L 270.596,-232.488 L 270.674,-232.249 L 270.7,-232 L 270.674,-231.751
 L 270.596,-231.512 L 270.471,-231.295 L 270.303,-231.108 L 270.1,-230.961 L 269.871,-230.859 L 269.625,-230.807
 z
M 363.375,-230.807 L 363.129,-230.859 L 362.9,-230.961 L 362.697,-231.108 L 362.529,-231.295 L 362.404,-231.512
 L 362.326,-231.751 L 362.3,-232 L 362.326,-232.249 L 362.404,-232.488 L 362.529,-232.705 L 362.697,-232.892
 L 362.9,-233.039 L 363.129,-233.141 L 363.375,-233.193 L 363.625,-233.193 L 363.871,-233.141 L 364.1,-233.039
 L 364.303,-232.892 L 364.471,-232.705 L 364.596,-232.488 L 364.674,-232.249 L 364.7,-232 L 364.674,-231.751
 L 364.596,-231.512 L 364.471,-231.295 L 364.303,-231.108 L 364.1,-230.961 L 363.871,-230.859 L 363.625,-230.807
 z
M 551.375,-230.807 L 551.129,-230.859 L 550.9,-230.961 L 550.697,-231.108 L 550.529,-231.295 L 550.404,-231.512
 L 550.326,-231.751 L 550.3,-232 L 550.326,-232.249 L 550.404,-232.488 L 550.529,-232.705 L 550.697,-232.892
 L 550.9,-233.039 L 551.129,-233.141 L 551.375,-233.193 L 551.625,-233.193 L 551.871,-233.141 L 552.1,-233.039
 L 552.303,-232.892 L 552.471,-232.705 L 552.596,-232.488 L 552.674,-232.249 L 552.7,-232 L 552.674,-231.751
 L 552.596,-231.512 L 552.471,-231.295 L 552.303,-231.108 L 552.1,-230.961 L 551.871,-230.859 L 551.625,-230.807
 z
M 259.375,-230.807 L 259.129,-230.859 L 258.9,-230.961 L 258.697,-231.108 L 258.529,-231.295 L 258.404,-231.512
 L 258.326,-231.751 L 258.3,-232 L 258.326,-232.249 L 258.404,-232.488 L 258.529,-232.705 L 258.697,-232.892
 L 258.9,-233.039 L 259.129,-233.141 L 259.375,-233.193 L 259.625,-233.193 L 259.871,-233.141 L 260.1,-233.039
 L 260.303,-232.892 L 260.471,-232.705 L 260.596,-232.488 L 260.674,-232.249 L 260.7,-232 L 260.674,-231.751
 L 260.596,-231.512 L 260.471,-231.295 L 260.303,-231.108 L 260.1,-230.961 L 259.871,-230.859 L 259.625,-230.807
 z
M 447.375,-230.807 L 447.129,-230.859 L 446.9,-230.961 L 446.697,-231.108 L 446.529,-231.295 L 446.404,-231.512
 L 446.326,-231.751 L 446.3,-232 L 446.326,-232.249 L 446.404,-232.488 L 446.529,-232.705 L 446.697,-232.892
 L 446.9,-233.039 L 447.129,-233.141 L 447.375,-233.193 L 447.625,-233.193 L 447.871,-233.141 L 448.1,-233.039
 L 448.303,-232.892 L 448.471,-232.705 L 448.596,-232.488 L 448.674,-232.249 L 448.7,-232 L 448.674,-231.751
 L 448.596,-231.512 L 448.471,-231.295 L 448.303,-231.108 L 448.1,-230.961 L 447.871,-230.859 L 447.625,-230.807
 z
M 353.375,-230.807 L 353.129,-230.859 L 352.9,-230.961 L 352.697,-231.108 L 352.529,-231.295 L 352.404,-231.512
 L 352.326,-231.751 L 352.3,-232 L 352.326,-232.249 L 352.404,-232.488 L 352.529,-232.705 L 352.697,-232.892
 L 352.9,-233.039 L 353.129,-233.141 L 353.375,-233.193 L 353.625,-233.193 L 353.871,-233.141 L 354.1,-233.039
 L 354.303,-232.892 L 354.471,-232.705 L 354.596,-232.488 L 354.674,-232.249 L 354.7,-232 L 354.674,-231.751
 L 354.596,-231.512 L 354.471,-231.295 L 354.303,-231.108 L 354.1,-230.961 L 353.871,-230.859 L 353.625,-230.807
 z
M 165.375,-230.807 L 165.129,-230.859 L 164.9,-230.961 L 164.697,-231.108 L 164.529,-231.295 L 164.404,-231.512
 L 164.326,-231.751 L 164.3,-232 L 164.326,-232.249 L 164.404,-232.488 L 164.529,-232.705 L 164.697,-232.892
 L 164.9,-233.039 L 165.129,-233.141 L 165.375,-233.193 L 165.625,-233.193 L 165.871,-233.141 L 166.1,-233.039
 L 166.303,-232.892 L 166.471,-232.705 L 166.596,-232.488 L 166.674,-232.249 L 166.7,-232 L 166.674,-231.751
 L 166.596,-231.512 L 166.471,-231.295 L 166.303,-231.108 L 166.1,-230.961 L 165.871,-230.859 L 165.625,-230.807
 z
M 71.3746,-230.807 L 71.1292,-230.859 L 70.9,-230.961 L 70.697,-231.108 L 70.5292,-231.295 L 70.4037,-231.512
 L 70.3262,-231.751 L 70.3,-232 L 70.3262,-232.249 L 70.4037,-232.488 L 70.5292,-232.705 L 70.697,-232.892
 L 70.9,-233.039 L 71.1292,-233.141 L 71.3746,-233.193 L 71.6254,-233.193 L 71.8708,-233.141 L 72.1,-233.039
 L 72.3029,-232.892 L 72.4708,-232.705 L 72.5963,-232.488 L 72.6738,-232.249 L 72.7,-232 L 72.6738,-231.751
 L 72.5963,-231.512 L 72.4708,-231.295 L 72.3029,-231.108 L 72.1,-230.961 L 71.8708,-230.859 L 71.6254,-230.807
 z
M 541.375,-230.807 L 541.129,-230.859 L 540.9,-230.961 L 540.697,-231.108 L 540.529,-231.295 L 540.404,-231.512
 L 540.326,-231.751 L 540.3,-232 L 540.326,-232.249 L 540.404,-232.488 L 540.529,-232.705 L 540.697,-232.892
 L 540.9,-233.039 L 541.129,-233.141 L 541.375,-233.193 L 541.625,-233.193 L 541.871,-233.141 L 542.1,-233.039
 L 542.303,-232.892 L 542.471,-232.705 L 542.596,-232.488 L 542.674,-232.249 L 542.7,-232 L 542.674,-231.751
 L 542.596,-231.512 L 542.471,-231.295 L 542.303,-231.108 L 542.1,-230.961 L 541.871,-230.859 L 541.625,-230.807
 z
M 65.3746,-189.307 L 65.1292,-189.359 L 64.9,-189.461 L 64.697,-189.608 L 64.5292,-189.795 L 64.4037,-190.012
 L 64.3262,-190.251 L 64.3,-190.5 L 64.3262,-190.749 L 64.4037,-190.988 L 64.5292,-191.205 L 64.697,-191.392
 L 64.9,-191.539 L 65.1292,-191.641 L 65.3746,-191.693 L 65.6254,-191.693 L 65.8708,-191.641 L 66.1,-191.539
 L 66.3029,-191.392 L 66.4708,-191.205 L 66.5963,-190.988 L 66.6738,-190.749 L 66.7,-190.5 L 66.6738,-190.251
 L 66.5963,-190.012 L 66.4708,-189.795 L 66.3029,-189.608 L 66.1,-189.461 L 65.8708,-189.359 L 65.6254,-189.307
 z
M 253.375,-189.307 L 253.129,-189.359 L 252.9,-189.461 L 252.697,-189.608 L 252.529,-189.795 L 252.404,-190.012
 L 252.326,-190.251 L 252.3,-190.5 L 252.326,-190.749 L 252.404,-190.988 L 252.529,-191.205 L 252.697,-191.392
 L 252.9,-191.539 L 253.129,-191.641 L 253.375,-191.693 L 253.625,-191.693 L 253.871,-191.641 L 254.1,-191.539
 L 254.303,-191.392 L 254.471,-191.205 L 254.596,-190.988 L 254.674,-190.749 L 254.7,-190.5 L 254.674,-190.251
 L 254.596,-190.012 L 254.471,-189.795 L 254.303,-189.608 L 254.1,-189.461 L 253.871,-189.359 L 253.625,-189.307
 z
M 441.375,-189.307 L 441.129,-189.359 L 440.9,-189.461 L 440.697,-189.608 L 440.529,-189.795 L 440.404,-190.012
 L 440.326,-190.251 L 440.3,-190.5 L 440.326,-190.749 L 440.404,-190.988 L 440.529,-191.205 L 440.697,-191.392
 L 440.9,-191.539 L 441.129,-191.641 L 441.375,-191.693 L 441.625,-191.693 L 441.871,-191.641 L 442.1,-191.539
 L 442.303,-191.392 L 442.471,-191.205 L 442.596,-190.988 L 442.674,-190.749 L 442.7,-190.5 L 442.674,-190.251
 L 442.596,-190.012 L 442.471,-189.795 L 442.303,-189.608 L 442.1,-189.461 L 441.871,-189.359 L 441.625,-189.307
 z
M 347.375,-189.307 L 347.129,-189.359 L 346.9,-189.461 L 346.697,-189.608 L 346.529,-189.795 L 346.404,-190.012
 L 346.326,-190.251 L 346.3,-190.5 L 346.326,-190.749 L 346.404,-190.988 L 346.529,-191.205 L 346.697,-191.392
 L 346.9,-191.539 L 347.129,-191.641 L 347.375,-191.693 L 347.625,-191.693 L 347.871,-191.641 L 348.1,-191.539
 L 348.303,-191.392 L 348.471,-191.205 L 348.596,-190.988 L 348.674,-190.749 L 348.7,-190.5 L 348.674,-190.251
 L 348.596,-190.012 L 348.471,-189.795 L 348.303,-189.608 L 348.1,-189.461 L 347.871,-189.359 L 347.625,-189.307
 z
M 159.375,-189.307 L 159.129,-189.359 L 158.9,-189.461 L 158.697,-189.608 L 158.529,-189.795 L 158.404,-190.012
 L 158.326,-190.251 L 158.3,-190.5 L 158.326,-190.749 L 158.404,-190.988 L 158.529,-191.205 L 158.697,-191.392
 L 158.9,-191.539 L 159.129,-191.641 L 159.375,-191.693 L 159.625,-191.693 L 159.871,-191.641 L 160.1,-191.539
 L 160.303,-191.392 L 160.471,-191.205 L 160.596,-190.988 L 160.674,-190.749 L 160.7,-190.5 L 160.674,-190.251
 L 160.596,-190.012 L 160.471,-189.795 L 160.303,-189.608 L 160.1,-189.461 L 159.871,-189.359 L 159.625,-189.307
 z
M 535.375,-189.307 L 535.129,-189.359 L 534.9,-189.461 L 534.697,-189.608 L 534.529,-189.795 L 534.404,-190.012
 L 534.326,-190.251 L 534.3,-190.5 L 534.326,-190.749 L 534.404,-190.988 L 534.529,-191.205 L 534.697,-191.392
 L 534.9,-191.539 L 535.129,-191.641 L 535.375,-191.693 L 535.625,-191.693 L 535.871,-191.641 L 536.1,-191.539
 L 536.303,-191.392 L 536.471,-191.205 L 536.596,-190.988 L 536.674,-190.749 L 536.7,-190.5 L 536.674,-190.251
 L 536.596,-190.012 L 536.471,-189.795 L 536.303,-189.608 L 536.1,-189.461 L 535.871,-189.359 L 535.625,-189.307
 z
M 347.375,-179.307 L 347.129,-179.359 L 346.9,-179.461 L 346.697,-179.608 L 346.529,-179.795 L 346.404,-180.012
 L 346.326,-180.251 L 346.3,-180.5 L 346.326,-180.749 L 346.404,-180.988 L 346.529,-181.205 L 346.697,-181.392
 L 346.9,-181.539 L 347.129,-181.641 L 347.375,-181.693 L 347.625,-181.693 L 347.871,-181.641 L 348.1,-181.539
 L 348.303,-181.392 L 348.471,-181.205 L 348.596,-180.988 L 348.674,-180.749 L 348.7,-180.5 L 348.674,-180.251
 L 348.596,-180.012 L 348.471,-179.795 L 348.303,-179.608 L 348.1,-179.461 L 347.871,-179.359 L 347.625,-179.307
 z
M 159.375,-179.307 L 159.129,-179.359 L 158.9,-179.461 L 158.697,-179.608 L 158.529,-179.795 L 158.404,-180.012
 L 158.326,-180.251 L 158.3,-180.5 L 158.326,-180.749 L 158.404,-180.988 L 158.529,-181.205 L 158.697,-181.392
 L 158.9,-181.539 L 159.129,-181.641 L 159.375,-181.693 L 159.625,-181.693 L 159.871,-181.641 L 160.1,-181.539
 L 160.303,-181.392 L 160.471,-181.205 L 160.596,-180.988 L 160.674,-180.749 L 160.7,-180.5 L 160.674,-180.251
 L 160.596,-180.012 L 160.471,-179.795 L 160.303,-179.608 L 160.1,-179.461 L 159.871,-179.359 L 159.625,-179.307
 z
M 441.375,-179.307 L 441.129,-179.359 L 440.9,-179.461 L 440.697,-179.608 L 440.529,-179.795 L 440.404,-180.012
 L 440.326,-180.251 L 440.3,-180.5 L 440.326,-180.749 L 440.404,-180.988 L 440.529,-181.205 L 440.697,-181.392
 L 440.9,-181.539 L 441.129,-181.641 L 441.375,-181.693 L 441.625,-181.693 L 441.871,-181.641 L 442.1,-181.539
 L 442.303,-181.392 L 442.471,-181.205 L 442.596,-180.988 L 442.674,-180.749 L 442.7,-180.5 L 442.674,-180.251
 L 442.596,-180.012 L 442.471,-179.795 L 442.303,-179.608 L 442.1,-179.461 L 441.871,-179.359 L 441.625,-179.307
 z
M 535.375,-179.307 L 535.129,-179.359 L 534.9,-179.461 L 534.697,-179.608 L 534.529,-179.795 L 534.404,-180.012
 L 534.326,-180.251 L 534.3,-180.5 L 534.326,-180.749 L 534.404,-180.988 L 534.529,-181.205 L 534.697,-181.392
 L 534.9,-181.539 L 535.129,-181.641 L 535.375,-181.693 L 535.625,-181.693 L 535.871,-181.641 L 536.1,-181.539
 L 536.303,-181.392 L 536.471,-181.205 L 536.596,-180.988 L 536.674,-180.749 L 536.7,-180.5 L 536.674,-180.251
 L 536.596,-180.012 L 536.471,-179.795 L 536.303,-179.608 L 536.1,-179.461 L 535.871,-179.359 L 535.625,-179.307
 z
M 253.375,-179.307 L 253.129,-179.359 L 252.9,-179.461 L 252.697,-179.608 L 252.529,-179.795 L 252.404,-180.012
 L 252.326,-180.251 L 252.3,-180.5 L 252.326,-180.749 L 252.404,-180.988 L 252.529,-181.205 L 252.697,-181.392
 L 252.9,-181.539 L 253.129,-181.641 L 253.375,-181.693 L 253.625,-181.693 L 253.871,-181.641 L 254.1,-181.539
 L 254.303,-181.392 L 254.471,-181.205 L 254.596,-180.988 L 254.674,-180.749 L 254.7,-180.5 L 254.674,-180.251
 L 254.596,-180.012 L 254.471,-179.795 L 254.303,-179.608 L 254.1,-179.461 L 253.871,-179.359 L 253.625,-179.307
 z
M 65.3746,-179.307 L 65.1292,-179.359 L 64.9,-179.461 L 64.697,-179.608 L 64.5292,-179.795 L 64.4037,-180.012
 L 64.3262,-180.251 L 64.3,-180.5 L 64.3262,-180.749 L 64.4037,-180.988 L 64.5292,-181.205 L 64.697,-181.392
 L 64.9,-181.539 L 65.1292,-181.641 L 65.3746,-181.693 L 65.6254,-181.693 L 65.8708,-181.641 L 66.1,-181.539
 L 66.3029,-181.392 L 66.4708,-181.205 L 66.5963,-180.988 L 66.6738,-180.749 L 66.7,-180.5 L 66.6738,-180.251
 L 66.5963,-180.012 L 66.4708,-179.795 L 66.3029,-179.608 L 66.1,-179.461 L 65.8708,-179.359 L 65.6254,-179.307
 z
M 551.375,-92.3066 L 551.129,-92.3587 L 550.9,-92.4608 L 550.697,-92.6082 L 550.529,-92.7946 L 550.404,-93.0119
 L 550.326,-93.2505 L 550.3,-93.5 L 550.326,-93.7495 L 550.404,-93.9881 L 550.529,-94.2053 L 550.697,-94.3918
 L 550.9,-94.5392 L 551.129,-94.6413 L 551.375,-94.6934 L 551.625,-94.6934 L 551.871,-94.6413 L 552.1,-94.5392
 L 552.303,-94.3918 L 552.471,-94.2053 L 552.596,-93.9881 L 552.674,-93.7495 L 552.7,-93.5 L 552.674,-93.2505
 L 552.596,-93.0119 L 552.471,-92.7946 L 552.303,-92.6082 L 552.1,-92.4608 L 551.871,-92.3587 L 551.625,-92.3066
 z
M 269.375,-92.3066 L 269.129,-92.3587 L 268.9,-92.4608 L 268.697,-92.6082 L 268.529,-92.7946 L 268.404,-93.0119
 L 268.326,-93.2505 L 268.3,-93.5 L 268.326,-93.7495 L 268.404,-93.9881 L 268.529,-94.2053 L 268.697,-94.3918
 L 268.9,-94.5392 L 269.129,-94.6413 L 269.375,-94.6934 L 269.625,-94.6934 L 269.871,-94.6413 L 270.1,-94.5392
 L 270.303,-94.3918 L 270.471,-94.2053 L 270.596,-93.9881 L 270.674,-93.7495 L 270.7,-93.5 L 270.674,-93.2505
 L 270.596,-93.0119 L 270.471,-92.7946 L 270.303,-92.6082 L 270.1,-92.4608 L 269.871,-92.3587 L 269.625,-92.3066
 z
M 81.3746,-92.3066 L 81.1292,-92.3587 L 80.9,-92.4608 L 80.697,-92.6082 L 80.5292,-92.7946 L 80.4037,-93.0119
 L 80.3262,-93.2505 L 80.3,-93.5 L 80.3262,-93.7495 L 80.4037,-93.9881 L 80.5292,-94.2053 L 80.697,-94.3918
 L 80.9,-94.5392 L 81.1292,-94.6413 L 81.3746,-94.6934 L 81.6254,-94.6934 L 81.8708,-94.6413 L 82.1,-94.5392
 L 82.3029,-94.3918 L 82.4708,-94.2053 L 82.5963,-93.9881 L 82.6738,-93.7495 L 82.7,-93.5 L 82.6738,-93.2505
 L 82.5963,-93.0119 L 82.4708,-92.7946 L 82.3029,-92.6082 L 82.1,-92.4608 L 81.8708,-92.3587 L 81.6254,-92.3066
 z
M 457.375,-92.3066 L 457.129,-92.3587 L 456.9,-92.4608 L 456.697,-92.6082 L 456.529,-92.7946 L 456.404,-93.0119
 L 456.326,-93.2505 L 456.3,-93.5 L 456.326,-93.7495 L 456.404,-93.9881 L 456.529,-94.2053 L 456.697,-94.3918
 L 456.9,-94.5392 L 457.129,-94.6413 L 457.375,-94.6934 L 457.625,-94.6934 L 457.871,-94.6413 L 458.1,-94.5392
 L 458.303,-94.3918 L 458.471,-94.2053 L 458.596,-93.9881 L 458.674,-93.7495 L 458.7,-93.5 L 458.674,-93.2505
 L 458.596,-93.0119 L 458.471,-92.7946 L 458.303,-92.6082 L 458.1,-92.4608 L 457.871,-92.3587 L 457.625,-92.3066
 z
M 363.375,-92.3066 L 363.129,-92.3587 L 362.9,-92.4608 L 362.697,-92.6082 L 362.529,-92.7946 L 362.404,-93.0119
 L 362.326,-93.2505 L 362.3,-93.5 L 362.326,-93.7495 L 362.404,-93.9881 L 362.529,-94.2053 L 362.697,-94.3918
 L 362.9,-94.5392 L 363.129,-94.6413 L 363.375,-94.6934 L 363.625,-94.6934 L 363.871,-94.6413 L 364.1,-94.5392
 L 364.303,-94.3918 L 364.471,-94.2053 L 364.596,-93.9881 L 364.674,-93.7495 L 364.7,-93.5 L 364.674,-93.2505
 L 364.596,-93.0119 L 364.471,-92.7946 L 364.303,-92.6082 L 364.1,-92.4608 L 363.871,-92.3587 L 363.625,-92.3066
 z
M 175.375,-92.3066 L 175.129,-92.3587 L 174.9,-92.4608 L 174.697,-92.6082 L 174.529,-92.7946 L 174.404,-93.0119
 L 174.326,-93.2505 L 174.3,-93.5 L 174.326,-93.7495 L 174.404,-93.9881 L 174.529,-94.2053 L 174.697,-94.3918
 L 174.9,-94.5392 L 175.129,-94.6413 L 175.375,-94.6934 L 175.625,-94.6934 L 175.871,-94.6413 L 176.1,-94.5392
 L 176.303,-94.3918 L 176.471,-94.2053 L 176.596,-93.9881 L 176.674,-93.7495 L 176.7,-93.5 L 176.674,-93.2505
 L 176.596,-93.0119 L 176.471,-92.7946 L 176.303,-92.6082 L 176.1,-92.4608 L 175.871,-92.3587 L 175.625,-92.3066
 z
M 541.375,-92.3066 L 541.129,-92.3587 L 540.9,-92.4608 L 540.697,-92.6082 L 540.529,-92.7946 L 540.404,-93.0119
 L 540.326,-93.2505 L 540.3,-93.5 L 540.326,-93.7495 L 540.404,-93.9881 L 540.529,-94.2053 L 540.697,-94.3918
 L 540.9,-94.5392 L 541.129,-94.6413 L 541.375,-94.6934 L 541.625,-94.6934 L 541.871,-94.6413 L 542.1,-94.5392
 L 542.303,-94.3918 L 542.471,-94.2053 L 542.596,-93.9881 L 542.674,-93.7495 L 542.7,-93.5 L 542.674,-93.2505
 L 542.596,-93.0119 L 542.471,-92.7946 L 542.303,-92.6082 L 542.1,-92.4608 L 541.871,-92.3587 L 541.625,-92.3066
 z
M 447.375,-92.3066 L 447.129,-92.3587 L 446.9,-92.4608 L 446.697,-92.6082 L 446.529,-92.7946 L 446.404,-93.0119
 L 446.326,-93.2505 L 446.3,-93.5 L 446.326,-93.7495 L 446.404,-93.9881 L 446.529,-94.2053 L 446.697,-94.3918
 L 446.9,-94.5392 L 447.129,-94.6413 L 447.375,-94.6934 L 447.625,-94.6934 L 447.871,-94.6413 L 448.1,-94.5392
 L 448.303,-94.3918 L 448.471,-94.2053 L 448.596,-93.9881 L 448.674,-93.7495 L 448.7,-93.5 L 448.674,-93.2505
 L 448.596,-93.0119 L 448.471,-92.7946 L 448.303,-92.6082 L 448.1,-92.4608 L 447.871,-92.3587 L 447.625,-92.3066
 z
M 165.375,-92.3066 L 165.129,-92.3587 L 164.9,-92.4608 L 164.697,-92.6082 L 164.529,-92.7946 L 164.404,-93.0119
 L 164.326,-93.2505 L 164.3,-93.5 L 164.326,-93.7495 L 164.404,-93.9881 L 164.529,-94.2053 L 164.697,-94.3918
 L 164.9,-94.5392 L 165.129,-94.6413 L 165.375,-94.6934 L 165.625,-94.6934 L 165.871,-94.6413 L 166.1,-94.5392
 L 166.303,-94.3918 L 166.471,-94.2053 L 166.596,-93.9881 L 166.674,-93.7495 L 166.7,-93.5 L 166.674,-93.2505
 L 166.596,-93.0119 L 166.471,-92.7946 L 166.303,-92.6082 L 166.1,-92.4608 L 165.871,-92.3587 L 165.625,-92.3066
 z
M 71.3746,-92.3066 L 71.1292,-92.3587 L 70.9,-92.4608 L 70.697,-92.6082 L 70.5292,-92.7946 L 70.4037,-93.0119
 L 70.3262,-93.2505 L 70.3,-93.5 L 70.3262,-93.7495 L 70.4037,-93.9881 L 70.5292,-94.2053 L 70.697,-94.3918
 L 70.9,-94.5392 L 71.1292,-94.6413 L 71.3746,-94.6934 L 71.6254,-94.6934 L 71.8708,-94.6413 L 72.1,-94.5392
 L 72.3029,-94.3918 L 72.4708,-94.2053 L 72.5963,-93.9881 L 72.6738,-93.7495 L 72.7,-93.5 L 72.6738,-93.2505
 L 72.5963,-93.0119 L 72.4708,-92.7946 L 72.3029,-92.6082 L 72.1,-92.4608 L 71.8708,-92.3587 L 71.6254,-92.3066
 z
M 259.375,-92.3066 L 259.129,-92.3587 L 258.9,-92.4608 L 258.697,-92.6082 L 258.529,-92.7946 L 258.404,-93.0119
 L 258.326,-93.2505 L 258.3,-93.5 L 258.326,-93.7495 L 258.404,-93.9881 L 258.529,-94.2053 L 258.697,-94.3918
 L 258.9,-94.5392 L 259.129,-94.6413 L 259.375,-94.6934 L 259.625,-94.6934 L 259.871,-94.6413 L 260.1,-94.5392
 L 260.303,-94.3918 L 260.471,-94.2053 L 260.596,-93.9881 L 260.674,-93.7495 L 260.7,-93.5 L 260.674,-93.2505
 L 260.596,-93.0119 L 260.471,-92.7946 L 260.303,-92.6082 L 260.1,-92.4608 L 259.871,-92.3587 L 259.625,-92.3066
 z
M 353.375,-92.3066 L 353.129,-92.3587 L 352.9,-92.4608 L 352.697,-92.6082 L 352.529,-92.7946 L 352.404,-93.0119
 L 352.326,-93.2505 L 352.3,-93.5 L 352.326,-93.7495 L 352.404,-93.9881 L 352.529,-94.2053 L 352.697,-94.3918
 L 352.9,-94.5392 L 353.129,-94.6413 L 353.375,-94.6934 L 353.625,-94.6934 L 353.871,-94.6413 L 354.1,-94.5392
 L 354.303,-94.3918 L 354.471,-94.2053 L 354.596,-93.9881 L 354.674,-93.7495 L 354.7,-93.5 L 354.674,-93.2505
 L 354.596,-93.0119 L 354.471,-92.7946 L 354.303,-92.6082 L 354.1,-92.4608 L 353.871,-92.3587 L 353.625,-92.3066
 z
M 159.375,-9.30656 L 159.129,-9.35872 L 158.9,-9.46075 L 158.697,-9.60822 L 158.529,-9.79465 L 158.404,-10.0119
 L 158.326,-10.2505 L 158.3,-10.5 L 158.326,-10.7495 L 158.404,-10.9881 L 158.529,-11.2053 L 158.697,-11.3918
 L 158.9,-11.5392 L 159.129,-11.6413 L 159.375,-11.6934 L 159.625,-11.6934 L 159.871,-11.6413 L 160.1,-11.5392
 L 160.303,-11.3918 L 160.471,-11.2053 L 160.596,-10.9881 L 160.674,-10.7495 L 160.7,-10.5 L 160.674,-10.2505
 L 160.596,-10.0119 L 160.471,-9.79465 L 160.303,-9.60822 L 160.1,-9.46075 L 159.871,-9.35872 L 159.625,-9.30656
 z
M 65.3746,-9.30656 L 65.1292,-9.35872 L 64.9,-9.46075 L 64.697,-9.60822 L 64.5292,-9.79465 L 64.4037,-10.0119
 L 64.3262,-10.2505 L 64.3,-10.5 L 64.3262,-10.7495 L 64.4037,-10.9881 L 64.5292,-11.2053 L 64.697,-11.3918
 L 64.9,-11.5392 L 65.1292,-11.6413 L 65.3746,-11.6934 L 65.6254,-11.6934 L 65.8708,-11.6413 L 66.1,-11.5392
 L 66.3029,-11.3918 L 66.4708,-11.2053 L 66.5963,-10.9881 L 66.6738,-10.7495 L 66.7,-10.5 L 66.6738,-10.2505
 L 66.5963,-10.0119 L 66.4708,-9.79465 L 66.3029,-9.60822 L 66.1,-9.46075 L 65.8708,-9.35872 L 65.6254,-9.30656
 z
M 535.375,-9.30656 L 535.129,-9.35872 L 534.9,-9.46075 L 534.697,-9.60822 L 534.529,-9.79465 L 534.404,-10.0119
 L 534.326,-10.2505 L 534.3,-10.5 L 534.326,-10.7495 L 534.404,-10.9881 L 534.529,-11.2053 L 534.697,-11.3918
 L 534.9,-11.5392 L 535.129,-11.6413 L 535.375,-11.6934 L 535.625,-11.6934 L 535.871,-11.6413 L 536.1,-11.5392
 L 536.303,-11.3918 L 536.471,-11.2053 L 536.596,-10.9881 L 536.674,-10.7495 L 536.7,-10.5 L 536.674,-10.2505
 L 536.596,-10.0119 L 536.471,-9.79465 L 536.303,-9.60822 L 536.1,-9.46075 L 535.871,-9.35872 L 535.625,-9.30656
 z
M 441.375,-9.30656 L 441.129,-9.35872 L 440.9,-9.46075 L 440.697,-9.60822 L 440.529,-9.79465 L 440.404,-10.0119
 L 440.326,-10.2505 L 440.3,-10.5 L 440.326,-10.7495 L 440.404,-10.9881 L 440.529,-11.2053 L 440.697,-11.3918
 L 440.9,-11.5392 L 441.129,-11.6413 L 441.375,-11.6934 L 441.625,-11.6934 L 441.871,-11.6413 L 442.1,-11.5392
 L 442.303,-11.3918 L 442.471,-11.2053 L 442.596,-10.9881 L 442.674,-10.7495 L 442.7,-10.5 L 442.674,-10.2505
 L 442.596,-10.0119 L 442.471,-9.79465 L 442.303,-9.60822 L 442.1,-9.46075 L 441.871,-9.35872 L 441.625,-9.30656
 z
M 253.375,-9.30656 L 253.129,-9.35872 L 252.9,-9.46075 L 252.697,-9.60822 L 252.529,-9.79465 L 252.404,-10.0119
 L 252.326,-10.2505 L 252.3,-10.5 L 252.326,-10.7495 L 252.404,-10.9881 L 252.529,-11.2053 L 252.697,-11.3918
 L 252.9,-11.5392 L 253.129,-11.6413 L 253.375,-11.6934 L 253.625,-11.6934 L 253.871,-11.6413 L 254.1,-11.5392
 L 254.303,-11.3918 L 254.471,-11.2053 L 254.596,-10.9881 L 254.674,-10.7495 L 254.7,-10.5 L 254.674,-10.2505
 L 254.596,-10.0119 L 254.471,-9.79465 L 254.303,-9.60822 L 254.1,-9.46075 L 253.871,-9.35872 L 253.625,-9.30656
 z
M 347.375,-9.30656 L 347.129,-9.35872 L 346.9,-9.46075 L 346.697,-9.60822 L 346.529,-9.79465 L 346.404,-10.0119
 L 346.326,-10.2505 L 346.3,-10.5 L 346.326,-10.7495 L 346.404,-10.9881 L 346.529,-11.2053 L 346.697,-11.3918
 L 346.9,-11.5392 L 347.129,-11.6413 L 347.375,-11.6934 L 347.625,-11.6934 L 347.871,-11.6413 L 348.1,-11.5392
 L 348.303,-11.3918 L 348.471,-11.2053 L 348.596,-10.9881 L 348.674,-10.7495 L 348.7,-10.5 L 348.674,-10.2505
 L 348.596,-10.0119 L 348.471,-9.79465 L 348.303,-9.60822 L 348.1,-9.46075 L 347.871,-9.35872 L 347.625,-9.30656
 z
M 441.375,0.69342 L 441.129,0.641266 L 440.9,0.53923 L 440.697,0.391769 L 440.529,0.205338 L 440.404,-0.0119019
 L 440.326,-0.250504 L 440.3,-0.5 L 440.326,-0.749481 L 440.404,-0.988083 L 440.529,-1.20534 L 440.697,-1.39177
 L 440.9,-1.53923 L 441.129,-1.64127 L 441.375,-1.69342 L 441.625,-1.69342 L 441.871,-1.64127 L 442.1,-1.53923
 L 442.303,-1.39177 L 442.471,-1.20534 L 442.596,-0.988083 L 442.674,-0.749481 L 442.7,-0.5 L 442.674,-0.250504
 L 442.596,-0.0119019 L 442.471,0.205338 L 442.303,0.391769 L 442.1,0.53923 L 441.871,0.641266 L 441.625,0.69342
 z
M 535.375,0.69342 L 535.129,0.641266 L 534.9,0.53923 L 534.697,0.391769 L 534.529,0.205338 L 534.404,-0.0119019
 L 534.326,-0.250504 L 534.3,-0.5 L 534.326,-0.749481 L 534.404,-0.988083 L 534.529,-1.20534 L 534.697,-1.39177
 L 534.9,-1.53923 L 535.129,-1.64127 L 535.375,-1.69342 L 535.625,-1.69342 L 535.871,-1.64127 L 536.1,-1.53923
 L 536.303,-1.39177 L 536.471,-1.20534 L 536.596,-0.988083 L 536.674,-0.749481 L 536.7,-0.5 L 536.674,-0.250504
 L 536.596,-0.0119019 L 536.471,0.205338 L 536.303,0.391769 L 536.1,0.53923 L 535.871,0.641266 L 535.625,0.69342
 z
M 159.375,0.69342 L 159.129,0.641266 L 158.9,0.53923 L 158.697,0.391769 L 158.529,0.205338 L 158.404,-0.0119019
 L 158.326,-0.250504 L 158.3,-0.5 L 158.326,-0.749481 L 158.404,-0.988083 L 158.529,-1.20534 L 158.697,-1.39177
 L 158.9,-1.53923 L 159.129,-1.64127 L 159.375,-1.69342 L 159.625,-1.69342 L 159.871,-1.64127 L 160.1,-1.53923
 L 160.303,-1.39177 L 160.471,-1.20534 L 160.596,-0.988083 L 160.674,-0.749481 L 160.7,-0.5 L 160.674,-0.250504
 L 160.596,-0.0119019 L 160.471,0.205338 L 160.303,0.391769 L 160.1,0.53923 L 159.871,0.641266 L 159.625,0.69342
 z
M 347.375,0.69342 L 347.129,0.641266 L 346.9,0.53923 L 346.697,0.391769 L 346.529,0.205338 L 346.404,-0.0119019
 L 346.326,-0.250504 L 346.3,-0.5 L 346.326,-0.749481 L 346.404,-0.988083 L 346.529,-1.20534 L 346.697,-1.39177
 L 346.9,-1.53923 L 347.129,-1.64127 L 347.375,-1.69342 L 347.625,-1.69342 L 347.871,-1.64127 L 348.1,-1.53923
 L 348.303,-1.39177 L 348.471,-1.20534 L 348.596,-0.988083 L 348.674,-0.749481 L 348.7,-0.5 L 348.674,-0.250504
 L 348.596,-0.0119019 L 348.471,0.205338 L 348.303,0.391769 L 348.1,0.53923 L 347.871,0.641266 L 347.625,0.69342
 z
M 65.3746,0.69342 L 65.1292,0.641266 L 64.9,0.53923 L 64.697,0.391769 L 64.5292,0.205338 L 64.4037,-0.0119019
 L 64.3262,-0.250504 L 64.3,-0.5 L 64.3262,-0.749481 L 64.4037,-0.988083 L 64.5292,-1.20534 L 64.697,-1.39177
 L 64.9,-1.53923 L 65.1292,-1.64127 L 65.3746,-1.69342 L 65.6254,-1.69342 L 65.8708,-1.64127 L 66.1,-1.53923
 L 66.3029,-1.39177 L 66.4708,-1.20534 L 66.5963,-0.988083 L 66.6738,-0.749481 L 66.7,-0.5 L 66.6738,-0.250504
 L 66.5963,-0.0119019 L 66.4708,0.205338 L 66.3029,0.391769 L 66.1,0.53923 L 65.8708,0.641266 L 65.6254,0.69342
 z
M 253.375,0.69342 L 253.129,0.641266 L 252.9,0.53923 L 252.697,0.391769 L 252.529,0.205338 L 252.404,-0.0119019
 L 252.326,-0.250504 L 252.3,-0.5 L 252.326,-0.749481 L 252.404,-0.988083 L 252.529,-1.20534 L 252.697,-1.39177
 L 252.9,-1.53923 L 253.129,-1.64127 L 253.375,-1.69342 L 253.625,-1.69342 L 253.871,-1.64127 L 254.1,-1.53923
 L 254.303,-1.39177 L 254.471,-1.20534 L 254.596,-0.988083 L 254.674,-0.749481 L 254.7,-0.5 L 254.674,-0.250504
 L 254.596,-0.0119019 L 254.471,0.205338 L 254.303,0.391769 L 254.1,0.53923 L 253.871,0.641266 L 253.625,0.69342
 z
" stroke="black" fill="lightgray" stroke-width="0.5"/></svg>
