  0
SECTION
  2
HEADER
  9
$ACADVER
  1
AC1014
  9
$HANDSEED
  5
FFFF
  9
$MEASUREMENT
 70
     1
  0
ENDSEC
  0
SECTION
  2
TABLES
  0
TABLE
  2
VPORT
  5
8
330
0
100
AcDbSymbolTable
 70
     4
  0
VPORT
  5
2E
330
8
100
AcDbSymbolTableRecord
100
AcDbViewportTableRecord
  2
*ACTIVE
 70
     0
 10
0.0
 20
0.0
 11
1.0
 21
1.0
 12
210.0
 22
148.5
 13
0.0
 23
0.0
 14
10.0
 24
10.0
 15
10.0
 25
10.0
 16
0.0
 26
0.0
 36
1.0
 17
0.0
 27
0.0
 37
0.0
 40
341.0
 41
1.24
 42
50.0
 43
0.0
 44
0.0
 50
0.0
 51
0.0
 71
     0
 72
   100
 73
     1
 74
     3
 75
     0
 76
     0
 77
     0
 78
     0
  0
ENDTAB
  0
TABLE
  2
LTYPE
  5
5
330
0
100
AcDbSymbolTable
 70
     1
  0
LTYPE
  5
14
330
5
100
AcDbSymbolTableRecord
100
AcDbLinetypeTableRecord
  2
BYBLOCK
 70
     0
  3

 72
    65
 73
     0
 40
0.0
  0
LTYPE
  5
15
330
5
100
AcDbSymbolTableRecord
100
AcDbLinetypeTableRecord
  2
BYLAYER
 70
     0
  3

 72
    65
 73
     0
 40
0.0
  0
LTYPE
  5
16
330
5
100
AcDbSymbolTableRecord
100
AcDbLinetypeTableRecord
  2
CONTINUOUS
 70
     0
  3
Solid line
 72
    65
 73
     0
 40
0.0
  0
ENDTAB
  0
TABLE
  2
LAYER
  5
2
100
AcDbSymbolTable
 70
2
  0
LAYER
  5
50
100
AcDbSymbolTableRecord
100
AcDbLayerTableRecord
  2
0
 70
0
  6
CONTINUOUS
  0
LAYER
  5
51
100
AcDbSymbolTableRecord
100
AcDbLayerTableRecord
  2
Layer_1
 70
0
  6
CONTINUOUS
  0
ENDTAB
  0
TABLE
  2
STYLE
  5
3
330
0
100
AcDbSymbolTable
 70
     1
  0
STYLE
  5
11
330
3
100
AcDbSymbolTableRecord
100
AcDbTextStyleTableRecord
  2
STANDARD
 70
     0
 40
0.0
 41
1.0
 50
0.0
 71
     0
 42
2.5
  3
txt
  4

  0
ENDTAB
  0
TABLE
  2
VIEW
  5
6
330
0
100
AcDbSymbolTable
 70
     0
  0
ENDTAB
  0
TABLE
  2
UCS
  5
7
330
0
100
AcDbSymbolTable
 70
     0
  0
ENDTAB
  0
TABLE
  2
APPID
  5
9
330
0
100
AcDbSymbolTable
 70
     2
  0
APPID
  5
12
330
9
100
AcDbSymbolTableRecord
100
AcDbRegAppTableRecord
  2
ACAD
 70
     0
  0
ENDTAB
  0
TABLE
  2
DIMSTYLE
  5
A
330
0
100
AcDbSymbolTable
 70
     1
  0
DIMSTYLE
105
27
330
A
100
AcDbSymbolTableRecord
100
AcDbDimStyleTableRecord
  2
ISO-25
 70
     0
  3

  4

  5

  6

  7

 40
1.0
 41
2.5
 42
0.625
 43
3.75
 44
1.25
 45
0.0
 46
0.0
 47
0.0
 48
0.0
140
2.5
141
2.5
142
0.0
143
0.03937007874016
144
1.0
145
0.0
146
1.0
147
0.625
 71
     0
 72
     0
 73
     0
 74
     0
 75
     0
 76
     0
 77
     1
 78
     8
170
     0
171
     3
172
     1
173
     0
174
     0
175
     0
176
     0
177
     0
178
     0
270
     2
271
     2
272
     2
273
     2
274
     3
340
11
275
     0
280
     0
281
     0
282
     0
283
     0
284
     8
285
     0
286
     0
287
     3
288
     0
  0
ENDTAB
  0
TABLE
  2
BLOCK_RECORD
  5
1
330
0
100
AcDbSymbolTable
 70
     1
  0
BLOCK_RECORD
  5
1F
330
1
100
AcDbSymbolTableRecord
100
AcDbBlockTableRecord
  2
*MODEL_SPACE
  0
BLOCK_RECORD
  5
1B
330
1
100
AcDbSymbolTableRecord
100
AcDbBlockTableRecord
  2
*PAPER_SPACE
  0
ENDTAB
  0
ENDSEC
  0
SECTION
  2
BLOCKS
  0
BLOCK
  5
20
330
1F
100
AcDbEntity
  8
0
100
AcDbBlockBegin
  2
*MODEL_SPACE
 70
     0
 10
0.0
 20
0.0
 30
0.0
  3
*MODEL_SPACE
  1

  0
ENDBLK
  5
21
330
1F
100
AcDbEntity
  8
0
100
AcDbBlockEnd
  0
BLOCK
  5
1C
330
1B
100
AcDbEntity
 67
     1
  8
0
100
AcDbBlockBegin
  2
*PAPER_SPACE
  1

  0
ENDBLK
  5
1D
330
1B
100
AcDbEntity
 67
     1
  8
0
100
AcDbBlockEnd
  0
ENDSEC
  0
SECTION
  2
ENTITIES
  0
LWPOLYLINE
  5
100
100
AcDbEntity
  8
Layer_1
 62
5
100
AcDbPolyline
 90
4
 70
1
 10
507.750370
 20
254.750367
 30
0.0
 10
0.249632
 20
254.750367
 30
0.0
 10
0.249632
 20
0.249630
 30
0.0
 10
507.750370
 20
0.249630
 30
0.0
  0
LWPOLYLINE
  5
101
100
AcDbEntity
  8
Layer_1
 62
5
100
AcDbPolyline
 90
30
 70
1
 10
118.008800
 20
242.581265
 30
0.0
 10
117.763000
 20
242.633415
 30
0.0
 10
117.534190
 20
242.735073
 30
0.0
 10
117.331420
 20
242.881702
 30
0.0
 10
117.163770
 20
243.068390
 30
0.0
 10
117.038790
 20
243.284933
 30
0.0
 10
116.960990
 20
243.523394
 30
0.0
 10
116.934590
 20
243.772060
 30
0.0
 10
116.960990
 20
244.020725
 30
0.0
 10
117.038790
 20
244.259186
 30
0.0
 10
117.163770
 20
244.475729
 30
0.0
 10
117.331420
 20
244.662417
 30
0.0
 10
117.534190
 20
244.809046
 30
0.0
 10
117.763000
 20
244.910704
 30
0.0
 10
118.008800
 20
244.962854
 30
0.0
 10
118.258760
 20
244.962854
 30
0.0
 10
118.504560
 20
244.910704
 30
0.0
 10
118.733380
 20
244.809046
 30
0.0
 10
118.936150
 20
244.662417
 30
0.0
 10
119.103790
 20
244.475729
 30
0.0
 10
119.228770
 20
244.259186
 30
0.0
 10
119.306570
 20
244.020725
 30
0.0
 10
119.332970
 20
243.772060
 30
0.0
 10
119.306570
 20
243.523394
 30
0.0
 10
119.228770
 20
243.284933
 30
0.0
 10
119.103790
 20
243.068390
 30
0.0
 10
118.936150
 20
242.881702
 30
0.0
 10
118.733380
 20
242.735073
 30
0.0
 10
118.504560
 20
242.633415
 30
0.0
 10
118.258760
 20
242.581265
 30
0.0
  0
LWPOLYLINE
  5
102
100
AcDbEntity
  8
Layer_1
 62
5
100
AcDbPolyline
 90
30
 70
1
 10
24.100772
 20
242.581265
 30
0.0
 10
23.855612
 20
242.633415
 30
0.0
 10
23.626642
 20
242.735073
 30
0.0
 10
23.423843
 20
242.881702
 30
0.0
 10
23.256197
 20
243.068390
 30
0.0
 10
23.130840
 20
243.284933
 30
0.0
 10
23.053400
 20
243.523394
 30
0.0
 10
23.027340
 20
243.772060
 30
0.0
 10
23.053400
 20
244.020725
 30
0.0
 10
23.130840
 20
244.259186
 30
0.0
 10
23.256197
 20
244.475729
 30
0.0
 10
23.423843
 20
244.662417
 30
0.0
 10
23.626642
 20
244.809046
 30
0.0
 10
23.855612
 20
244.910704
 30
0.0
 10
24.100772
 20
244.962854
 30
0.0
 10
24.351332
 20
244.962854
 30
0.0
 10
24.596492
 20
244.910704
 30
0.0
 10
24.825462
 20
244.809046
 30
0.0
 10
25.028152
 20
244.662417
 30
0.0
 10
25.195872
 20
244.475729
 30
0.0
 10
25.321272
 20
244.259186
 30
0.0
 10
25.398672
 20
244.020725
 30
0.0
 10
25.424772
 20
243.772060
 30
0.0
 10
25.398672
 20
243.523394
 30
0.0
 10
25.321272
 20
243.284933
 30
0.0
 10
25.195872
 20
243.068390
 30
0.0
 10
25.028152
 20
242.881702
 30
0.0
 10
24.825462
 20
242.735073
 30
0.0
 10
24.596492
 20
242.633415
 30
0.0
 10
24.351332
 20
242.581265
 30
0.0
  0
LWPOLYLINE
  5
103
100
AcDbEntity
  8
Layer_1
 62
5
100
AcDbPolyline
 90
30
 70
1
 10
399.731610
 20
242.581265
 30
0.0
 10
399.485800
 20
242.633415
 30
0.0
 10
399.256990
 20
242.735073
 30
0.0
 10
399.054220
 20
242.881702
 30
0.0
 10
398.886200
 20
243.068390
 30
0.0
 10
398.761220
 20
243.284933
 30
0.0
 10
398.683420
 20
243.523394
 30
0.0
 10
398.657020
 20
243.772060
 30
0.0
 10
398.683420
 20
244.020725
 30
0.0
 10
398.761220
 20
244.259186
 30
0.0
 10
398.886200
 20
244.475729
 30
0.0
 10
399.054220
 20
244.662417
 30
0.0
 10
399.256990
 20
244.809046
 30
0.0
 10
399.485800
 20
244.910704
 30
0.0
 10
399.731610
 20
244.962854
 30
0.0
 10
399.981190
 20
244.962854
 30
0.0
 10
400.226990
 20
244.910704
 30
0.0
 10
400.455800
 20
244.809046
 30
0.0
 10
400.658570
 20
244.662417
 30
0.0
 10
400.826220
 20
244.475729
 30
0.0
 10
400.951200
 20
244.259186
 30
0.0
 10
401.029000
 20
244.020725
 30
0.0
 10
401.055400
 20
243.772060
 30
0.0
 10
401.029000
 20
243.523394
 30
0.0
 10
400.951200
 20
243.284933
 30
0.0
 10
400.826220
 20
243.068390
 30
0.0
 10
400.658570
 20
242.881702
 30
0.0
 10
400.455800
 20
242.735073
 30
0.0
 10
400.226990
 20
242.633415
 30
0.0
 10
399.981190
 20
242.581265
 30
0.0
  0
LWPOLYLINE
  5
104
100
AcDbEntity
  8
Layer_1
 62
5
100
AcDbPolyline
 90
30
 70
1
 10
211.916400
 20
242.581265
 30
0.0
 10
211.670600
 20
242.633415
 30
0.0
 10
211.441790
 20
242.735073
 30
0.0
 10
211.239020
 20
242.881702
 30
0.0
 10
211.071000
 20
243.068390
 30
0.0
 10
210.946020
 20
243.284933
 30
0.0
 10
210.868220
 20
243.523394
 30
0.0
 10
210.841720
 20
243.772060
 30
0.0
 10
210.868220
 20
244.020725
 30
0.0
 10
210.946020
 20
244.259186
 30
0.0
 10
211.071000
 20
244.475729
 30
0.0
 10
211.239020
 20
244.662417
 30
0.0
 10
211.441790
 20
244.809046
 30
0.0
 10
211.670600
 20
244.910704
 30
0.0
 10
211.916400
 20
244.962854
 30
0.0
 10
212.166360
 20
244.962854
 30
0.0
 10
212.412170
 20
244.910704
 30
0.0
 10
212.640980
 20
244.809046
 30
0.0
 10
212.843750
 20
244.662417
 30
0.0
 10
213.011770
 20
244.475729
 30
0.0
 10
213.136750
 20
244.259186
 30
0.0
 10
213.214550
 20
244.020725
 30
0.0
 10
213.240950
 20
243.772060
 30
0.0
 10
213.214550
 20
243.523394
 30
0.0
 10
213.136750
 20
243.284933
 30
0.0
 10
213.011770
 20
243.068390
 30
0.0
 10
212.843750
 20
242.881702
 30
0.0
 10
212.640980
 20
242.735073
 30
0.0
 10
212.412170
 20
242.633415
 30
0.0
 10
212.166360
 20
242.581265
 30
0.0
  0
LWPOLYLINE
  5
105
100
AcDbEntity
  8
Layer_1
 62
5
100
AcDbPolyline
 90
30
 70
1
 10
305.824010
 20
242.581265
 30
0.0
 10
305.578200
 20
242.633415
 30
0.0
 10
305.349390
 20
242.735073
 30
0.0
 10
305.146620
 20
242.881702
 30
0.0
 10
304.978980
 20
243.068390
 30
0.0
 10
304.854000
 20
243.284933
 30
0.0
 10
304.776200
 20
243.523394
 30
0.0
 10
304.749700
 20
243.772060
 30
0.0
 10
304.776200
 20
244.020725
 30
0.0
 10
304.854000
 20
244.259186
 30
0.0
 10
304.978980
 20
244.475729
 30
0.0
 10
305.146620
 20
244.662417
 30
0.0
 10
305.349390
 20
244.809046
 30
0.0
 10
305.578200
 20
244.910704
 30
0.0
 10
305.824010
 20
244.962854
 30
0.0
 10
306.073590
 20
244.962854
 30
0.0
 10
306.319390
 20
244.910704
 30
0.0
 10
306.548200
 20
244.809046
 30
0.0
 10
306.750970
 20
244.662417
 30
0.0
 10
306.918620
 20
244.475729
 30
0.0
 10
307.043600
 20
244.259186
 30
0.0
 10
307.121400
 20
244.020725
 30
0.0
 10
307.147900
 20
243.772060
 30
0.0
 10
307.121400
 20
243.523394
 30
0.0
 10
307.043600
 20
243.284933
 30
0.0
 10
306.918620
 20
243.068390
 30
0.0
 10
306.750970
 20
242.881702
 30
0.0
 10
306.548200
 20
242.735073
 30
0.0
 10
306.319390
 20
242.633415
 30
0.0
 10
306.073590
 20
242.581265
 30
0.0
  0
LWPOLYLINE
  5
106
100
AcDbEntity
  8
Layer_1
 62
5
100
AcDbPolyline
 90
30
 70
1
 10
493.639250
 20
242.581265
 30
0.0
 10
493.393440
 20
242.633415
 30
0.0
 10
493.164630
 20
242.735073
 30
0.0
 10
492.961860
 20
242.881702
 30
0.0
 10
492.793840
 20
243.068390
 30
0.0
 10
492.668860
 20
243.284933
 30
0.0
 10
492.591060
 20
243.523394
 30
0.0
 10
492.564660
 20
243.772060
 30
0.0
 10
492.591060
 20
244.020725
 30
0.0
 10
492.668860
 20
244.259186
 30
0.0
 10
492.793840
 20
244.475729
 30
0.0
 10
492.961860
 20
244.662417
 30
0.0
 10
493.164630
 20
244.809046
 30
0.0
 10
493.393440
 20
244.910704
 30
0.0
 10
493.639250
 20
244.962854
 30
0.0
 10
493.888830
 20
244.962854
 30
0.0
 10
494.134630
 20
244.910704
 30
0.0
 10
494.363440
 20
244.809046
 30
0.0
 10
494.566210
 20
244.662417
 30
0.0
 10
494.734240
 20
244.475729
 30
0.0
 10
494.859210
 20
244.259186
 30
0.0
 10
494.937010
 20
244.020725
 30
0.0
 10
494.963510
 20
243.772060
 30
0.0
 10
494.937010
 20
243.523394
 30
0.0
 10
494.859210
 20
243.284933
 30
0.0
 10
494.734240
 20
243.068390
 30
0.0
 10
494.566210
 20
242.881702
 30
0.0
 10
494.363440
 20
242.735073
 30
0.0
 10
494.134630
 20
242.633415
 30
0.0
 10
493.888830
 20
242.581265
 30
0.0
  0
LWPOLYLINE
  5
107
100
AcDbEntity
  8
Layer_1
 62
5
100
AcDbPolyline
 90
30
 70
1
 10
201.926240
 20
242.581265
 30
0.0
 10
201.680440
 20
242.633415
 30
0.0
 10
201.451630
 20
242.735073
 30
0.0
 10
201.248860
 20
242.881702
 30
0.0
 10
201.081210
 20
243.068390
 30
0.0
 10
200.956230
 20
243.284933
 30
0.0
 10
200.878430
 20
243.523394
 30
0.0
 10
200.851930
 20
243.772060
 30
0.0
 10
200.878430
 20
244.020725
 30
0.0
 10
200.956230
 20
244.259186
 30
0.0
 10
201.081210
 20
244.475729
 30
0.0
 10
201.248860
 20
244.662417
 30
0.0
 10
201.451630
 20
244.809046
 30
0.0
 10
201.680440
 20
244.910704
 30
0.0
 10
201.926240
 20
244.962854
 30
0.0
 10
202.175820
 20
244.962854
 30
0.0
 10
202.421630
 20
244.910704
 30
0.0
 10
202.650440
 20
244.809046
 30
0.0
 10
202.853210
 20
244.662417
 30
0.0
 10
203.020850
 20
244.475729
 30
0.0
 10
203.145830
 20
244.259186
 30
0.0
 10
203.223630
 20
244.020725
 30
0.0
 10
203.250130
 20
243.772060
 30
0.0
 10
203.223630
 20
243.523394
 30
0.0
 10
203.145830
 20
243.284933
 30
0.0
 10
203.020850
 20
243.068390
 30
0.0
 10
202.853210
 20
242.881702
 30
0.0
 10
202.650440
 20
242.735073
 30
0.0
 10
202.421630
 20
242.633415
 30
0.0
 10
202.175820
 20
242.581265
 30
0.0
  0
LWPOLYLINE
  5
108
100
AcDbEntity
  8
Layer_1
 62
5
100
AcDbPolyline
 90
30
 70
1
 10
389.741450
 20
242.581265
 30
0.0
 10
389.495640
 20
242.633415
 30
0.0
 10
389.266830
 20
242.735073
 30
0.0
 10
389.064060
 20
242.881702
 30
0.0
 10
388.896420
 20
243.068390
 30
0.0
 10
388.771440
 20
243.284933
 30
0.0
 10
388.693640
 20
243.523394
 30
0.0
 10
388.667240
 20
243.772060
 30
0.0
 10
388.693640
 20
244.020725
 30
0.0
 10
388.771440
 20
244.259186
 30
0.0
 10
388.896420
 20
244.475729
 30
0.0
 10
389.064060
 20
244.662417
 30
0.0
 10
389.266830
 20
244.809046
 30
0.0
 10
389.495640
 20
244.910704
 30
0.0
 10
389.741450
 20
244.962854
 30
0.0
 10
389.991410
 20
244.962854
 30
0.0
 10
390.237210
 20
244.910704
 30
0.0
 10
390.466020
 20
244.809046
 30
0.0
 10
390.668790
 20
244.662417
 30
0.0
 10
390.836440
 20
244.475729
 30
0.0
 10
390.961410
 20
244.259186
 30
0.0
 10
391.039210
 20
244.020725
 30
0.0
 10
391.065710
 20
243.772060
 30
0.0
 10
391.039210
 20
243.523394
 30
0.0
 10
390.961410
 20
243.284933
 30
0.0
 10
390.836440
 20
243.068390
 30
0.0
 10
390.668790
 20
242.881702
 30
0.0
 10
390.466020
 20
242.735073
 30
0.0
 10
390.237210
 20
242.633415
 30
0.0
 10
389.991410
 20
242.581265
 30
0.0
  0
LWPOLYLINE
  5
109
100
AcDbEntity
  8
Layer_1
 62
5
100
AcDbPolyline
 90
30
 70
1
 10
295.833850
 20
242.581265
 30
0.0
 10
295.588040
 20
242.633415
 30
0.0
 10
295.359230
 20
242.735073
 30
0.0
 10
295.156460
 20
242.881702
 30
0.0
 10
294.988440
 20
243.068390
 30
0.0
 10
294.863460
 20
243.284933
 30
0.0
 10
294.785660
 20
243.523394
 30
0.0
 10
294.759260
 20
243.772060
 30
0.0
 10
294.785660
 20
244.020725
 30
0.0
 10
294.863460
 20
244.259186
 30
0.0
 10
294.988440
 20
244.475729
 30
0.0
 10
295.156460
 20
244.662417
 30
0.0
 10
295.359230
 20
244.809046
 30
0.0
 10
295.588040
 20
244.910704
 30
0.0
 10
295.833850
 20
244.962854
 30
0.0
 10
296.083800
 20
244.962854
 30
0.0
 10
296.329610
 20
244.910704
 30
0.0
 10
296.558420
 20
244.809046
 30
0.0
 10
296.761190
 20
244.662417
 30
0.0
 10
296.929210
 20
244.475729
 30
0.0
 10
297.054190
 20
244.259186
 30
0.0
 10
297.131990
 20
244.020725
 30
0.0
 10
297.158390
 20
243.772060
 30
0.0
 10
297.131990
 20
243.523394
 30
0.0
 10
297.054190
 20
243.284933
 30
0.0
 10
296.929210
 20
243.068390
 30
0.0
 10
296.761190
 20
242.881702
 30
0.0
 10
296.558420
 20
242.735073
 30
0.0
 10
296.329610
 20
242.633415
 30
0.0
 10
296.083800
 20
242.581265
 30
0.0
  0
LWPOLYLINE
  5
10a
100
AcDbEntity
  8
Layer_1
 62
5
100
AcDbPolyline
 90
30
 70
1
 10
108.018600
 20
242.581265
 30
0.0
 10
107.772800
 20
242.633415
 30
0.0
 10
107.543990
 20
242.735073
 30
0.0
 10
107.341220
 20
242.881702
 30
0.0
 10
107.173570
 20
243.068390
 30
0.0
 10
107.048590
 20
243.284933
 30
0.0
 10
106.970790
 20
243.523394
 30
0.0
 10
106.944390
 20
243.772060
 30
0.0
 10
106.970790
 20
244.020725
 30
0.0
 10
107.048590
 20
244.259186
 30
0.0
 10
107.173570
 20
244.475729
 30
0.0
 10
107.341220
 20
244.662417
 30
0.0
 10
107.543990
 20
244.809046
 30
0.0
 10
107.772800
 20
244.910704
 30
0.0
 10
108.018600
 20
244.962854
 30
0.0
 10
108.268180
 20
244.962854
 30
0.0
 10
108.513990
 20
244.910704
 30
0.0
 10
108.742800
 20
244.809046
 30
0.0
 10
108.945570
 20
244.662417
 30
0.0
 10
109.113220
 20
244.475729
 30
0.0
 10
109.238190
 20
244.259186
 30
0.0
 10
109.315990
 20
244.020725
 30
0.0
 10
109.342490
 20
243.772060
 30
0.0
 10
109.315990
 20
243.523394
 30
0.0
 10
109.238190
 20
243.284933
 30
0.0
 10
109.113220
 20
243.068390
 30
0.0
 10
108.945570
 20
242.881702
 30
0.0
 10
108.742800
 20
242.735073
 30
0.0
 10
108.513990
 20
242.633415
 30
0.0
 10
108.268180
 20
242.581265
 30
0.0
  0
LWPOLYLINE
  5
10b
100
AcDbEntity
  8
Layer_1
 62
5
100
AcDbPolyline
 90
30
 70
1
 10
14.110597
 20
242.581265
 30
0.0
 10
13.865433
 20
242.633415
 30
0.0
 10
13.636468
 20
242.735073
 30
0.0
 10
13.433669
 20
242.881702
 30
0.0
 10
13.266023
 20
243.068390
 30
0.0
 10
13.140628
 20
243.284933
 30
0.0
 10
13.063228
 20
243.523394
 30
0.0
 10
13.037168
 20
243.772060
 30
0.0
 10
13.063228
 20
244.020725
 30
0.0
 10
13.140628
 20
244.259186
 30
0.0
 10
13.266023
 20
244.475729
 30
0.0
 10
13.433669
 20
244.662417
 30
0.0
 10
13.636468
 20
244.809046
 30
0.0
 10
13.865433
 20
244.910704
 30
0.0
 10
14.110597
 20
244.962854
 30
0.0
 10
14.361160
 20
244.962854
 30
0.0
 10
14.606323
 20
244.910704
 30
0.0
 10
14.835288
 20
244.809046
 30
0.0
 10
15.037974
 20
244.662417
 30
0.0
 10
15.205696
 20
244.475729
 30
0.0
 10
15.331091
 20
244.259186
 30
0.0
 10
15.408491
 20
244.020725
 30
0.0
 10
15.434551
 20
243.772060
 30
0.0
 10
15.408491
 20
243.523394
 30
0.0
 10
15.331091
 20
243.284933
 30
0.0
 10
15.205696
 20
243.068390
 30
0.0
 10
15.037974
 20
242.881702
 30
0.0
 10
14.835288
 20
242.735073
 30
0.0
 10
14.606323
 20
242.633415
 30
0.0
 10
14.361160
 20
242.581265
 30
0.0
  0
LWPOLYLINE
  5
10c
100
AcDbEntity
  8
Layer_1
 62
5
100
AcDbPolyline
 90
30
 70
1
 10
483.649050
 20
242.581265
 30
0.0
 10
483.403250
 20
242.633415
 30
0.0
 10
483.174430
 20
242.735073
 30
0.0
 10
482.971660
 20
242.881702
 30
0.0
 10
482.803640
 20
243.068390
 30
0.0
 10
482.678660
 20
243.284933
 30
0.0
 10
482.600860
 20
243.523394
 30
0.0
 10
482.574460
 20
243.772060
 30
0.0
 10
482.600860
 20
244.020725
 30
0.0
 10
482.678660
 20
244.259186
 30
0.0
 10
482.803640
 20
244.475729
 30
0.0
 10
482.971660
 20
244.662417
 30
0.0
 10
483.174430
 20
244.809046
 30
0.0
 10
483.403250
 20
244.910704
 30
0.0
 10
483.649050
 20
244.962854
 30
0.0
 10
483.898630
 20
244.962854
 30
0.0
 10
484.144430
 20
244.910704
 30
0.0
 10
484.373260
 20
244.809046
 30
0.0
 10
484.576010
 20
244.662417
 30
0.0
 10
484.744040
 20
244.475729
 30
0.0
 10
484.869020
 20
244.259186
 30
0.0
 10
484.946820
 20
244.020725
 30
0.0
 10
484.973220
 20
243.772060
 30
0.0
 10
484.946820
 20
243.523394
 30
0.0
 10
484.869020
 20
243.284933
 30
0.0
 10
484.744040
 20
243.068390
 30
0.0
 10
484.576010
 20
242.881702
 30
0.0
 10
484.373260
 20
242.735073
 30
0.0
 10
484.144430
 20
242.633415
 30
0.0
 10
483.898630
 20
242.581265
 30
0.0
  0
LWPOLYLINE
  5
10d
100
AcDbEntity
  8
Layer_1
 62
5
100
AcDbPolyline
 90
30
 70
1
 10
8.116493
 20
201.162519
 30
0.0
 10
7.871330
 20
201.214669
 30
0.0
 10
7.642365
 20
201.316327
 30
0.0
 10
7.439566
 20
201.462956
 30
0.0
 10
7.271920
 20
201.649644
 30
0.0
 10
7.146563
 20
201.866187
 30
0.0
 10
7.069163
 20
202.104649
 30
0.0
 10
7.043103
 20
202.353314
 30
0.0
 10
7.069163
 20
202.601979
 30
0.0
 10
7.146563
 20
202.840441
 30
0.0
 10
7.271920
 20
203.056984
 30
0.0
 10
7.439566
 20
203.243671
 30
0.0
 10
7.642365
 20
203.390301
 30
0.0
 10
7.871330
 20
203.491959
 30
0.0
 10
8.116493
 20
203.544109
 30
0.0
 10
8.367057
 20
203.544109
 30
0.0
 10
8.612220
 20
203.491959
 30
0.0
 10
8.841185
 20
203.390301
 30
0.0
 10
9.043870
 20
203.243671
 30
0.0
 10
9.211592
 20
203.056984
 30
0.0
 10
9.336987
 20
202.840441
 30
0.0
 10
9.414387
 20
202.601979
 30
0.0
 10
9.440447
 20
202.353314
 30
0.0
 10
9.414387
 20
202.104649
 30
0.0
 10
9.336987
 20
201.866187
 30
0.0
 10
9.211592
 20
201.649644
 30
0.0
 10
9.043870
 20
201.462956
 30
0.0
 10
8.841185
 20
201.316327
 30
0.0
 10
8.612220
 20
201.214669
 30
0.0
 10
8.367057
 20
201.162519
 30
0.0
  0
LWPOLYLINE
  5
10e
100
AcDbEntity
  8
Layer_1
 62
5
100
AcDbPolyline
 90
30
 70
1
 10
195.932140
 20
201.162519
 30
0.0
 10
195.686340
 20
201.214669
 30
0.0
 10
195.457520
 20
201.316327
 30
0.0
 10
195.254760
 20
201.462956
 30
0.0
 10
195.086740
 20
201.649644
 30
0.0
 10
194.961760
 20
201.866187
 30
0.0
 10
194.883960
 20
202.104649
 30
0.0
 10
194.857560
 20
202.353314
 30
0.0
 10
194.883960
 20
202.601979
 30
0.0
 10
194.961760
 20
202.840441
 30
0.0
 10
195.086740
 20
203.056984
 30
0.0
 10
195.254760
 20
203.243671
 30
0.0
 10
195.457520
 20
203.390301
 30
0.0
 10
195.686340
 20
203.491959
 30
0.0
 10
195.932140
 20
203.544109
 30
0.0
 10
196.181720
 20
203.544109
 30
0.0
 10
196.427530
 20
203.491959
 30
0.0
 10
196.656340
 20
203.390301
 30
0.0
 10
196.859100
 20
203.243671
 30
0.0
 10
197.026750
 20
203.056984
 30
0.0
 10
197.151730
 20
202.840441
 30
0.0
 10
197.229530
 20
202.601979
 30
0.0
 10
197.255930
 20
202.353314
 30
0.0
 10
197.229530
 20
202.104649
 30
0.0
 10
197.151730
 20
201.866187
 30
0.0
 10
197.026750
 20
201.649644
 30
0.0
 10
196.859100
 20
201.462956
 30
0.0
 10
196.656340
 20
201.316327
 30
0.0
 10
196.427530
 20
201.214669
 30
0.0
 10
196.181720
 20
201.162519
 30
0.0
  0
LWPOLYLINE
  5
10f
100
AcDbEntity
  8
Layer_1
 62
5
100
AcDbPolyline
 90
30
 70
1
 10
383.747340
 20
201.162519
 30
0.0
 10
383.501540
 20
201.214669
 30
0.0
 10
383.272720
 20
201.316327
 30
0.0
 10
383.069970
 20
201.462956
 30
0.0
 10
382.901940
 20
201.649644
 30
0.0
 10
382.776960
 20
201.866187
 30
0.0
 10
382.699160
 20
202.104649
 30
0.0
 10
382.672760
 20
202.353314
 30
0.0
 10
382.699160
 20
202.601979
 30
0.0
 10
382.776960
 20
202.840441
 30
0.0
 10
382.901940
 20
203.056984
 30
0.0
 10
383.069970
 20
203.243671
 30
0.0
 10
383.272720
 20
203.390301
 30
0.0
 10
383.501540
 20
203.491959
 30
0.0
 10
383.747340
 20
203.544109
 30
0.0
 10
383.996920
 20
203.544109
 30
0.0
 10
384.242730
 20
203.491959
 30
0.0
 10
384.471550
 20
203.390301
 30
0.0
 10
384.674310
 20
203.243671
 30
0.0
 10
384.842330
 20
203.056984
 30
0.0
 10
384.967310
 20
202.840441
 30
0.0
 10
385.045110
 20
202.601979
 30
0.0
 10
385.071510
 20
202.353314
 30
0.0
 10
385.045110
 20
202.104649
 30
0.0
 10
384.967310
 20
201.866187
 30
0.0
 10
384.842330
 20
201.649644
 30
0.0
 10
384.674310
 20
201.462956
 30
0.0
 10
384.471550
 20
201.316327
 30
0.0
 10
384.242730
 20
201.214669
 30
0.0
 10
383.996920
 20
201.162519
 30
0.0
  0
LWPOLYLINE
  5
110
100
AcDbEntity
  8
Layer_1
 62
5
100
AcDbPolyline
 90
30
 70
1
 10
289.839740
 20
201.162519
 30
0.0
 10
289.593940
 20
201.214669
 30
0.0
 10
289.365120
 20
201.316327
 30
0.0
 10
289.162370
 20
201.462956
 30
0.0
 10
288.994720
 20
201.649644
 30
0.0
 10
288.869740
 20
201.866187
 30
0.0
 10
288.791940
 20
202.104649
 30
0.0
 10
288.765540
 20
202.353314
 30
0.0
 10
288.791940
 20
202.601979
 30
0.0
 10
288.869740
 20
202.840441
 30
0.0
 10
288.994720
 20
203.056984
 30
0.0
 10
289.162370
 20
203.243671
 30
0.0
 10
289.365120
 20
203.390301
 30
0.0
 10
289.593940
 20
203.491959
 30
0.0
 10
289.839740
 20
203.544109
 30
0.0
 10
290.089320
 20
203.544109
 30
0.0
 10
290.335130
 20
203.491959
 30
0.0
 10
290.563950
 20
203.390301
 30
0.0
 10
290.766700
 20
203.243671
 30
0.0
 10
290.934730
 20
203.056984
 30
0.0
 10
291.059710
 20
202.840441
 30
0.0
 10
291.137510
 20
202.601979
 30
0.0
 10
291.163910
 20
202.353314
 30
0.0
 10
291.137510
 20
202.104649
 30
0.0
 10
291.059710
 20
201.866187
 30
0.0
 10
290.934730
 20
201.649644
 30
0.0
 10
290.766700
 20
201.462956
 30
0.0
 10
290.563950
 20
201.316327
 30
0.0
 10
290.335130
 20
201.214669
 30
0.0
 10
290.089320
 20
201.162519
 30
0.0
  0
LWPOLYLINE
  5
111
100
AcDbEntity
  8
Layer_1
 62
5
100
AcDbPolyline
 90
30
 70
1
 10
102.024500
 20
201.162519
 30
0.0
 10
101.778700
 20
201.214669
 30
0.0
 10
101.549880
 20
201.316327
 30
0.0
 10
101.347120
 20
201.462956
 30
0.0
 10
101.179480
 20
201.649644
 30
0.0
 10
101.054500
 20
201.866187
 30
0.0
 10
100.976700
 20
202.104649
 30
0.0
 10
100.950300
 20
202.353314
 30
0.0
 10
100.976700
 20
202.601979
 30
0.0
 10
101.054500
 20
202.840441
 30
0.0
 10
101.179480
 20
203.056984
 30
0.0
 10
101.347120
 20
203.243671
 30
0.0
 10
101.549880
 20
203.390301
 30
0.0
 10
101.778700
 20
203.491959
 30
0.0
 10
102.024500
 20
203.544109
 30
0.0
 10
102.274460
 20
203.544109
 30
0.0
 10
102.520270
 20
203.491959
 30
0.0
 10
102.749080
 20
203.390301
 30
0.0
 10
102.951840
 20
203.243671
 30
0.0
 10
103.119490
 20
203.056984
 30
0.0
 10
103.244470
 20
202.840441
 30
0.0
 10
103.322270
 20
202.601979
 30
0.0
 10
103.348670
 20
202.353314
 30
0.0
 10
103.322270
 20
202.104649
 30
0.0
 10
103.244470
 20
201.866187
 30
0.0
 10
103.119490
 20
201.649644
 30
0.0
 10
102.951840
 20
201.462956
 30
0.0
 10
102.749080
 20
201.316327
 30
0.0
 10
102.520270
 20
201.214669
 30
0.0
 10
102.274460
 20
201.162519
 30
0.0
  0
LWPOLYLINE
  5
112
100
AcDbEntity
  8
Layer_1
 62
5
100
AcDbPolyline
 90
30
 70
1
 10
477.654940
 20
201.162519
 30
0.0
 10
477.409140
 20
201.214669
 30
0.0
 10
477.180330
 20
201.316327
 30
0.0
 10
476.977570
 20
201.462956
 30
0.0
 10
476.809540
 20
201.649644
 30
0.0
 10
476.684570
 20
201.866187
 30
0.0
 10
476.606770
 20
202.104649
 30
0.0
 10
476.580270
 20
202.353314
 30
0.0
 10
476.606770
 20
202.601979
 30
0.0
 10
476.684570
 20
202.840441
 30
0.0
 10
476.809540
 20
203.056984
 30
0.0
 10
476.977570
 20
203.243671
 30
0.0
 10
477.180330
 20
203.390301
 30
0.0
 10
477.409140
 20
203.491959
 30
0.0
 10
477.654940
 20
203.544109
 30
0.0
 10
477.904900
 20
203.544109
 30
0.0
 10
478.150710
 20
203.491959
 30
0.0
 10
478.379530
 20
203.390301
 30
0.0
 10
478.582290
 20
203.243671
 30
0.0
 10
478.750310
 20
203.056984
 30
0.0
 10
478.875290
 20
202.840441
 30
0.0
 10
478.953090
 20
202.601979
 30
0.0
 10
478.979490
 20
202.353314
 30
0.0
 10
478.953090
 20
202.104649
 30
0.0
 10
478.875290
 20
201.866187
 30
0.0
 10
478.750310
 20
201.649644
 30
0.0
 10
478.582290
 20
201.462956
 30
0.0
 10
478.379530
 20
201.316327
 30
0.0
 10
478.150710
 20
201.214669
 30
0.0
 10
477.904900
 20
201.162519
 30
0.0
  0
LWPOLYLINE
  5
113
100
AcDbEntity
  8
Layer_1
 62
5
100
AcDbPolyline
 90
30
 70
1
 10
289.839740
 20
191.182090
 30
0.0
 10
289.593940
 20
191.234190
 30
0.0
 10
289.365120
 20
191.335850
 30
0.0
 10
289.162370
 20
191.482480
 30
0.0
 10
288.994720
 20
191.669160
 30
0.0
 10
288.869740
 20
191.885710
 30
0.0
 10
288.791940
 20
192.124170
 30
0.0
 10
288.765540
 20
192.372830
 30
0.0
 10
288.791940
 20
192.621500
 30
0.0
 10
288.869740
 20
192.859960
 30
0.0
 10
288.994720
 20
193.076500
 30
0.0
 10
289.162370
 20
193.263190
 30
0.0
 10
289.365120
 20
193.409820
 30
0.0
 10
289.593940
 20
193.511480
 30
0.0
 10
289.839740
 20
193.563680
 30
0.0
 10
290.089320
 20
193.563680
 30
0.0
 10
290.335130
 20
193.511480
 30
0.0
 10
290.563950
 20
193.409820
 30
0.0
 10
290.766700
 20
193.263190
 30
0.0
 10
290.934730
 20
193.076500
 30
0.0
 10
291.059710
 20
192.859960
 30
0.0
 10
291.137510
 20
192.621500
 30
0.0
 10
291.163910
 20
192.372830
 30
0.0
 10
291.137510
 20
192.124170
 30
0.0
 10
291.059710
 20
191.885710
 30
0.0
 10
290.934730
 20
191.669160
 30
0.0
 10
290.766700
 20
191.482480
 30
0.0
 10
290.563950
 20
191.335850
 30
0.0
 10
290.335130
 20
191.234190
 30
0.0
 10
290.089320
 20
191.182090
 30
0.0
  0
LWPOLYLINE
  5
114
100
AcDbEntity
  8
Layer_1
 62
5
100
AcDbPolyline
 90
30
 70
1
 10
102.024500
 20
191.182090
 30
0.0
 10
101.778700
 20
191.234190
 30
0.0
 10
101.549880
 20
191.335850
 30
0.0
 10
101.347120
 20
191.482480
 30
0.0
 10
101.179480
 20
191.669160
 30
0.0
 10
101.054500
 20
191.885710
 30
0.0
 10
100.976700
 20
192.124170
 30
0.0
 10
100.950300
 20
192.372830
 30
0.0
 10
100.976700
 20
192.621500
 30
0.0
 10
101.054500
 20
192.859960
 30
0.0
 10
101.179480
 20
193.076500
 30
0.0
 10
101.347120
 20
193.263190
 30
0.0
 10
101.549880
 20
193.409820
 30
0.0
 10
101.778700
 20
193.511480
 30
0.0
 10
102.024500
 20
193.563680
 30
0.0
 10
102.274460
 20
193.563680
 30
0.0
 10
102.520270
 20
193.511480
 30
0.0
 10
102.749080
 20
193.409820
 30
0.0
 10
102.951840
 20
193.263190
 30
0.0
 10
103.119490
 20
193.076500
 30
0.0
 10
103.244470
 20
192.859960
 30
0.0
 10
103.322270
 20
192.621500
 30
0.0
 10
103.348670
 20
192.372830
 30
0.0
 10
103.322270
 20
192.124170
 30
0.0
 10
103.244470
 20
191.885710
 30
0.0
 10
103.119490
 20
191.669160
 30
0.0
 10
102.951840
 20
191.482480
 30
0.0
 10
102.749080
 20
191.335850
 30
0.0
 10
102.520270
 20
191.234190
 30
0.0
 10
102.274460
 20
191.182090
 30
0.0
  0
LWPOLYLINE
  5
115
100
AcDbEntity
  8
Layer_1
 62
5
100
AcDbPolyline
 90
30
 70
1
 10
383.747340
 20
191.182090
 30
0.0
 10
383.501540
 20
191.234190
 30
0.0
 10
383.272720
 20
191.335850
 30
0.0
 10
383.069970
 20
191.482480
 30
0.0
 10
382.901940
 20
191.669160
 30
0.0
 10
382.776960
 20
191.885710
 30
0.0
 10
382.699160
 20
192.124170
 30
0.0
 10
382.672760
 20
192.372830
 30
0.0
 10
382.699160
 20
192.621500
 30
0.0
 10
382.776960
 20
192.859960
 30
0.0
 10
382.901940
 20
193.076500
 30
0.0
 10
383.069970
 20
193.263190
 30
0.0
 10
383.272720
 20
193.409820
 30
0.0
 10
383.501540
 20
193.511480
 30
0.0
 10
383.747340
 20
193.563680
 30
0.0
 10
383.996920
 20
193.563680
 30
0.0
 10
384.242730
 20
193.511480
 30
0.0
 10
384.471550
 20
193.409820
 30
0.0
 10
384.674310
 20
193.263190
 30
0.0
 10
384.842330
 20
193.076500
 30
0.0
 10
384.967310
 20
192.859960
 30
0.0
 10
385.045110
 20
192.621500
 30
0.0
 10
385.071510
 20
192.372830
 30
0.0
 10
385.045110
 20
192.124170
 30
0.0
 10
384.967310
 20
191.885710
 30
0.0
 10
384.842330
 20
191.669160
 30
0.0
 10
384.674310
 20
191.482480
 30
0.0
 10
384.471550
 20
191.335850
 30
0.0
 10
384.242730
 20
191.234190
 30
0.0
 10
383.996920
 20
191.182090
 30
0.0
  0
LWPOLYLINE
  5
116
100
AcDbEntity
  8
Layer_1
 62
5
100
AcDbPolyline
 90
30
 70
1
 10
477.654940
 20
191.182090
 30
0.0
 10
477.409140
 20
191.234190
 30
0.0
 10
477.180330
 20
191.335850
 30
0.0
 10
476.977570
 20
191.482480
 30
0.0
 10
476.809540
 20
191.669160
 30
0.0
 10
476.684570
 20
191.885710
 30
0.0
 10
476.606770
 20
192.124170
 30
0.0
 10
476.580270
 20
192.372830
 30
0.0
 10
476.606770
 20
192.621500
 30
0.0
 10
476.684570
 20
192.859960
 30
0.0
 10
476.809540
 20
193.076500
 30
0.0
 10
476.977570
 20
193.263190
 30
0.0
 10
477.180330
 20
193.409820
 30
0.0
 10
477.409140
 20
193.511480
 30
0.0
 10
477.654940
 20
193.563680
 30
0.0
 10
477.904900
 20
193.563680
 30
0.0
 10
478.150710
 20
193.511480
 30
0.0
 10
478.379530
 20
193.409820
 30
0.0
 10
478.582290
 20
193.263190
 30
0.0
 10
478.750310
 20
193.076500
 30
0.0
 10
478.875290
 20
192.859960
 30
0.0
 10
478.953090
 20
192.621500
 30
0.0
 10
478.979490
 20
192.372830
 30
0.0
 10
478.953090
 20
192.124170
 30
0.0
 10
478.875290
 20
191.885710
 30
0.0
 10
478.750310
 20
191.669160
 30
0.0
 10
478.582290
 20
191.482480
 30
0.0
 10
478.379530
 20
191.335850
 30
0.0
 10
478.150710
 20
191.234190
 30
0.0
 10
477.904900
 20
191.182090
 30
0.0
  0
LWPOLYLINE
  5
117
100
AcDbEntity
  8
Layer_1
 62
5
100
AcDbPolyline
 90
30
 70
1
 10
195.932140
 20
191.182090
 30
0.0
 10
195.686340
 20
191.234190
 30
0.0
 10
195.457520
 20
191.335850
 30
0.0
 10
195.254760
 20
191.482480
 30
0.0
 10
195.086740
 20
191.669160
 30
0.0
 10
194.961760
 20
191.885710
 30
0.0
 10
194.883960
 20
192.124170
 30
0.0
 10
194.857560
 20
192.372830
 30
0.0
 10
194.883960
 20
192.621500
 30
0.0
 10
194.961760
 20
192.859960
 30
0.0
 10
195.086740
 20
193.076500
 30
0.0
 10
195.254760
 20
193.263190
 30
0.0
 10
195.457520
 20
193.409820
 30
0.0
 10
195.686340
 20
193.511480
 30
0.0
 10
195.932140
 20
193.563680
 30
0.0
 10
196.181720
 20
193.563680
 30
0.0
 10
196.427530
 20
193.511480
 30
0.0
 10
196.656340
 20
193.409820
 30
0.0
 10
196.859100
 20
193.263190
 30
0.0
 10
197.026750
 20
193.076500
 30
0.0
 10
197.151730
 20
192.859960
 30
0.0
 10
197.229530
 20
192.621500
 30
0.0
 10
197.255930
 20
192.372830
 30
0.0
 10
197.229530
 20
192.124170
 30
0.0
 10
197.151730
 20
191.885710
 30
0.0
 10
197.026750
 20
191.669160
 30
0.0
 10
196.859100
 20
191.482480
 30
0.0
 10
196.656340
 20
191.335850
 30
0.0
 10
196.427530
 20
191.234190
 30
0.0
 10
196.181720
 20
191.182090
 30
0.0
  0
LWPOLYLINE
  5
118
100
AcDbEntity
  8
Layer_1
 62
5
100
AcDbPolyline
 90
30
 70
1
 10
8.116493
 20
191.182090
 30
0.0
 10
7.871330
 20
191.234190
 30
0.0
 10
7.642365
 20
191.335850
 30
0.0
 10
7.439566
 20
191.482480
 30
0.0
 10
7.271920
 20
191.669160
 30
0.0
 10
7.146563
 20
191.885710
 30
0.0
 10
7.069163
 20
192.124170
 30
0.0
 10
7.043103
 20
192.372830
 30
0.0
 10
7.069163
 20
192.621500
 30
0.0
 10
7.146563
 20
192.859960
 30
0.0
 10
7.271920
 20
193.076500
 30
0.0
 10
7.439566
 20
193.263190
 30
0.0
 10
7.642365
 20
193.409820
 30
0.0
 10
7.871330
 20
193.511480
 30
0.0
 10
8.116493
 20
193.563680
 30
0.0
 10
8.367057
 20
193.563680
 30
0.0
 10
8.612220
 20
193.511480
 30
0.0
 10
8.841185
 20
193.409820
 30
0.0
 10
9.043870
 20
193.263190
 30
0.0
 10
9.211592
 20
193.076500
 30
0.0
 10
9.336987
 20
192.859960
 30
0.0
 10
9.414387
 20
192.621500
 30
0.0
 10
9.440447
 20
192.372830
 30
0.0
 10
9.414387
 20
192.124170
 30
0.0
 10
9.336987
 20
191.885710
 30
0.0
 10
9.211592
 20
191.669160
 30
0.0
 10
9.043870
 20
191.482480
 30
0.0
 10
8.841185
 20
191.335850
 30
0.0
 10
8.612220
 20
191.234190
 30
0.0
 10
8.367057
 20
191.182090
 30
0.0
  0
LWPOLYLINE
  5
119
100
AcDbEntity
  8
Layer_1
 62
5
100
AcDbPolyline
 90
30
 70
1
 10
493.639250
 20
104.352010
 30
0.0
 10
493.393440
 20
104.404110
 30
0.0
 10
493.164630
 20
104.505760
 30
0.0
 10
492.961860
 20
104.652770
 30
0.0
 10
492.793840
 20
104.838700
 30
0.0
 10
492.668860
 20
105.055620
 30
0.0
 10
492.591060
 20
105.293710
 30
0.0
 10
492.564660
 20
105.542750
 30
0.0
 10
492.591060
 20
105.791790
 30
0.0
 10
492.668860
 20
106.029880
 30
0.0
 10
492.793840
 20
106.246800
 30
0.0
 10
492.961860
 20
106.432730
 30
0.0
 10
493.164630
 20
106.579740
 30
0.0
 10
493.393440
 20
106.681400
 30
0.0
 10
493.639250
 20
106.733500
 30
0.0
 10
493.888830
 20
106.733500
 30
0.0
 10
494.134630
 20
106.681400
 30
0.0
 10
494.363440
 20
106.579740
 30
0.0
 10
494.566210
 20
106.432730
 30
0.0
 10
494.734240
 20
106.246800
 30
0.0
 10
494.859210
 20
106.029880
 30
0.0
 10
494.937010
 20
105.791790
 30
0.0
 10
494.963510
 20
105.542750
 30
0.0
 10
494.937010
 20
105.293710
 30
0.0
 10
494.859210
 20
105.055620
 30
0.0
 10
494.734240
 20
104.838700
 30
0.0
 10
494.566210
 20
104.652770
 30
0.0
 10
494.363440
 20
104.505760
 30
0.0
 10
494.134630
 20
104.404110
 30
0.0
 10
493.888830
 20
104.352010
 30
0.0
  0
LWPOLYLINE
  5
11a
100
AcDbEntity
  8
Layer_1
 62
5
100
AcDbPolyline
 90
30
 70
1
 10
211.916400
 20
104.352010
 30
0.0
 10
211.670600
 20
104.404110
 30
0.0
 10
211.441790
 20
104.505760
 30
0.0
 10
211.239020
 20
104.652770
 30
0.0
 10
211.071000
 20
104.838700
 30
0.0
 10
210.946020
 20
105.055620
 30
0.0
 10
210.868220
 20
105.293710
 30
0.0
 10
210.841720
 20
105.542750
 30
0.0
 10
210.868220
 20
105.791790
 30
0.0
 10
210.946020
 20
106.029880
 30
0.0
 10
211.071000
 20
106.246800
 30
0.0
 10
211.239020
 20
106.432730
 30
0.0
 10
211.441790
 20
106.579740
 30
0.0
 10
211.670600
 20
106.681400
 30
0.0
 10
211.916400
 20
106.733500
 30
0.0
 10
212.166360
 20
106.733500
 30
0.0
 10
212.412170
 20
106.681400
 30
0.0
 10
212.640980
 20
106.579740
 30
0.0
 10
212.843750
 20
106.432730
 30
0.0
 10
213.011770
 20
106.246800
 30
0.0
 10
213.136750
 20
106.029880
 30
0.0
 10
213.214550
 20
105.791790
 30
0.0
 10
213.240950
 20
105.542750
 30
0.0
 10
213.214550
 20
105.293710
 30
0.0
 10
213.136750
 20
105.055620
 30
0.0
 10
213.011770
 20
104.838700
 30
0.0
 10
212.843750
 20
104.652770
 30
0.0
 10
212.640980
 20
104.505760
 30
0.0
 10
212.412170
 20
104.404110
 30
0.0
 10
212.166360
 20
104.352010
 30
0.0
  0
LWPOLYLINE
  5
11b
100
AcDbEntity
  8
Layer_1
 62
5
100
AcDbPolyline
 90
30
 70
1
 10
24.100772
 20
104.352010
 30
0.0
 10
23.855612
 20
104.404110
 30
0.0
 10
23.626642
 20
104.505760
 30
0.0
 10
23.423843
 20
104.652770
 30
0.0
 10
23.256197
 20
104.838700
 30
0.0
 10
23.130840
 20
105.055620
 30
0.0
 10
23.053400
 20
105.293710
 30
0.0
 10
23.027340
 20
105.542750
 30
0.0
 10
23.053400
 20
105.791790
 30
0.0
 10
23.130840
 20
106.029880
 30
0.0
 10
23.256197
 20
106.246800
 30
0.0
 10
23.423843
 20
106.432730
 30
0.0
 10
23.626642
 20
106.579740
 30
0.0
 10
23.855612
 20
106.681400
 30
0.0
 10
24.100772
 20
106.733500
 30
0.0
 10
24.351332
 20
106.733500
 30
0.0
 10
24.596492
 20
106.681400
 30
0.0
 10
24.825462
 20
106.579740
 30
0.0
 10
25.028152
 20
106.432730
 30
0.0
 10
25.195872
 20
106.246800
 30
0.0
 10
25.321272
 20
106.029880
 30
0.0
 10
25.398672
 20
105.791790
 30
0.0
 10
25.424772
 20
105.542750
 30
0.0
 10
25.398672
 20
105.293710
 30
0.0
 10
25.321272
 20
105.055620
 30
0.0
 10
25.195872
 20
104.838700
 30
0.0
 10
25.028152
 20
104.652770
 30
0.0
 10
24.825462
 20
104.505760
 30
0.0
 10
24.596492
 20
104.404110
 30
0.0
 10
24.351332
 20
104.352010
 30
0.0
  0
LWPOLYLINE
  5
11c
100
AcDbEntity
  8
Layer_1
 62
5
100
AcDbPolyline
 90
30
 70
1
 10
399.731610
 20
104.352010
 30
0.0
 10
399.485800
 20
104.404110
 30
0.0
 10
399.256990
 20
104.505760
 30
0.0
 10
399.054220
 20
104.652770
 30
0.0
 10
398.886200
 20
104.838700
 30
0.0
 10
398.761220
 20
105.055620
 30
0.0
 10
398.683420
 20
105.293710
 30
0.0
 10
398.657020
 20
105.542750
 30
0.0
 10
398.683420
 20
105.791790
 30
0.0
 10
398.761220
 20
106.029880
 30
0.0
 10
398.886200
 20
106.246800
 30
0.0
 10
399.054220
 20
106.432730
 30
0.0
 10
399.256990
 20
106.579740
 30
0.0
 10
399.485800
 20
106.681400
 30
0.0
 10
399.731610
 20
106.733500
 30
0.0
 10
399.981190
 20
106.733500
 30
0.0
 10
400.226990
 20
106.681400
 30
0.0
 10
400.455800
 20
106.579740
 30
0.0
 10
400.658570
 20
106.432730
 30
0.0
 10
400.826220
 20
106.246800
 30
0.0
 10
400.951200
 20
106.029880
 30
0.0
 10
401.029000
 20
105.791790
 30
0.0
 10
401.055400
 20
105.542750
 30
0.0
 10
401.029000
 20
105.293710
 30
0.0
 10
400.951200
 20
105.055620
 30
0.0
 10
400.826220
 20
104.838700
 30
0.0
 10
400.658570
 20
104.652770
 30
0.0
 10
400.455800
 20
104.505760
 30
0.0
 10
400.226990
 20
104.404110
 30
0.0
 10
399.981190
 20
104.352010
 30
0.0
  0
LWPOLYLINE
  5
11d
100
AcDbEntity
  8
Layer_1
 62
5
100
AcDbPolyline
 90
30
 70
1
 10
305.824010
 20
104.352010
 30
0.0
 10
305.578200
 20
104.404110
 30
0.0
 10
305.349390
 20
104.505760
 30
0.0
 10
305.146620
 20
104.652770
 30
0.0
 10
304.978980
 20
104.838700
 30
0.0
 10
304.854000
 20
105.055620
 30
0.0
 10
304.776200
 20
105.293710
 30
0.0
 10
304.749700
 20
105.542750
 30
0.0
 10
304.776200
 20
105.791790
 30
0.0
 10
304.854000
 20
106.029880
 30
0.0
 10
304.978980
 20
106.246800
 30
0.0
 10
305.146620
 20
106.432730
 30
0.0
 10
305.349390
 20
106.579740
 30
0.0
 10
305.578200
 20
106.681400
 30
0.0
 10
305.824010
 20
106.733500
 30
0.0
 10
306.073590
 20
106.733500
 30
0.0
 10
306.319390
 20
106.681400
 30
0.0
 10
306.548200
 20
106.579740
 30
0.0
 10
306.750970
 20
106.432730
 30
0.0
 10
306.918620
 20
106.246800
 30
0.0
 10
307.043600
 20
106.029880
 30
0.0
 10
307.121400
 20
105.791790
 30
0.0
 10
307.147900
 20
105.542750
 30
0.0
 10
307.121400
 20
105.293710
 30
0.0
 10
307.043600
 20
105.055620
 30
0.0
 10
306.918620
 20
104.838700
 30
0.0
 10
306.750970
 20
104.652770
 30
0.0
 10
306.548200
 20
104.505760
 30
0.0
 10
306.319390
 20
104.404110
 30
0.0
 10
306.073590
 20
104.352010
 30
0.0
  0
LWPOLYLINE
  5
11e
100
AcDbEntity
  8
Layer_1
 62
5
100
AcDbPolyline
 90
30
 70
1
 10
118.008800
 20
104.352010
 30
0.0
 10
117.763000
 20
104.404110
 30
0.0
 10
117.534190
 20
104.505760
 30
0.0
 10
117.331420
 20
104.652770
 30
0.0
 10
117.163770
 20
104.838700
 30
0.0
 10
117.038790
 20
105.055620
 30
0.0
 10
116.960990
 20
105.293710
 30
0.0
 10
116.934590
 20
105.542750
 30
0.0
 10
116.960990
 20
105.791790
 30
0.0
 10
117.038790
 20
106.029880
 30
0.0
 10
117.163770
 20
106.246800
 30
0.0
 10
117.331420
 20
106.432730
 30
0.0
 10
117.534190
 20
106.579740
 30
0.0
 10
117.763000
 20
106.681400
 30
0.0
 10
118.008800
 20
106.733500
 30
0.0
 10
118.258760
 20
106.733500
 30
0.0
 10
118.504560
 20
106.681400
 30
0.0
 10
118.733380
 20
106.579740
 30
0.0
 10
118.936150
 20
106.432730
 30
0.0
 10
119.103790
 20
106.246800
 30
0.0
 10
119.228770
 20
106.029880
 30
0.0
 10
119.306570
 20
105.791790
 30
0.0
 10
119.332970
 20
105.542750
 30
0.0
 10
119.306570
 20
105.293710
 30
0.0
 10
119.228770
 20
105.055620
 30
0.0
 10
119.103790
 20
104.838700
 30
0.0
 10
118.936150
 20
104.652770
 30
0.0
 10
118.733380
 20
104.505760
 30
0.0
 10
118.504560
 20
104.404110
 30
0.0
 10
118.258760
 20
104.352010
 30
0.0
  0
LWPOLYLINE
  5
11f
100
AcDbEntity
  8
Layer_1
 62
5
100
AcDbPolyline
 90
30
 70
1
 10
483.649050
 20
104.352010
 30
0.0
 10
483.403250
 20
104.404110
 30
0.0
 10
483.174430
 20
104.505760
 30
0.0
 10
482.971660
 20
104.652770
 30
0.0
 10
482.803640
 20
104.838700
 30
0.0
 10
482.678660
 20
105.055620
 30
0.0
 10
482.600860
 20
105.293710
 30
0.0
 10
482.574460
 20
105.542750
 30
0.0
 10
482.600860
 20
105.791790
 30
0.0
 10
482.678660
 20
106.029880
 30
0.0
 10
482.803640
 20
106.246800
 30
0.0
 10
482.971660
 20
106.432730
 30
0.0
 10
483.174430
 20
106.579740
 30
0.0
 10
483.403250
 20
106.681400
 30
0.0
 10
483.649050
 20
106.733500
 30
0.0
 10
483.898630
 20
106.733500
 30
0.0
 10
484.144430
 20
106.681400
 30
0.0
 10
484.373260
 20
106.579740
 30
0.0
 10
484.576010
 20
106.432730
 30
0.0
 10
484.744040
 20
106.246800
 30
0.0
 10
484.869020
 20
106.029880
 30
0.0
 10
484.946820
 20
105.791790
 30
0.0
 10
484.973220
 20
105.542750
 30
0.0
 10
484.946820
 20
105.293710
 30
0.0
 10
484.869020
 20
105.055620
 30
0.0
 10
484.744040
 20
104.838700
 30
0.0
 10
484.576010
 20
104.652770
 30
0.0
 10
484.373260
 20
104.505760
 30
0.0
 10
484.144430
 20
104.404110
 30
0.0
 10
483.898630
 20
104.352010
 30
0.0
  0
LWPOLYLINE
  5
120
100
AcDbEntity
  8
Layer_1
 62
5
100
AcDbPolyline
 90
30
 70
1
 10
389.741450
 20
104.352010
 30
0.0
 10
389.495640
 20
104.404110
 30
0.0
 10
389.266830
 20
104.505760
 30
0.0
 10
389.064060
 20
104.652770
 30
0.0
 10
388.896420
 20
104.838700
 30
0.0
 10
388.771440
 20
105.055620
 30
0.0
 10
388.693640
 20
105.293710
 30
0.0
 10
388.667240
 20
105.542750
 30
0.0
 10
388.693640
 20
105.791790
 30
0.0
 10
388.771440
 20
106.029880
 30
0.0
 10
388.896420
 20
106.246800
 30
0.0
 10
389.064060
 20
106.432730
 30
0.0
 10
389.266830
 20
106.579740
 30
0.0
 10
389.495640
 20
106.681400
 30
0.0
 10
389.741450
 20
106.733500
 30
0.0
 10
389.991410
 20
106.733500
 30
0.0
 10
390.237210
 20
106.681400
 30
0.0
 10
390.466020
 20
106.579740
 30
0.0
 10
390.668790
 20
106.432730
 30
0.0
 10
390.836440
 20
106.246800
 30
0.0
 10
390.961410
 20
106.029880
 30
0.0
 10
391.039210
 20
105.791790
 30
0.0
 10
391.065710
 20
105.542750
 30
0.0
 10
391.039210
 20
105.293710
 30
0.0
 10
390.961410
 20
105.055620
 30
0.0
 10
390.836440
 20
104.838700
 30
0.0
 10
390.668790
 20
104.652770
 30
0.0
 10
390.466020
 20
104.505760
 30
0.0
 10
390.237210
 20
104.404110
 30
0.0
 10
389.991410
 20
104.352010
 30
0.0
  0
LWPOLYLINE
  5
121
100
AcDbEntity
  8
Layer_1
 62
5
100
AcDbPolyline
 90
30
 70
1
 10
108.018600
 20
104.352010
 30
0.0
 10
107.772800
 20
104.404110
 30
0.0
 10
107.543990
 20
104.505760
 30
0.0
 10
107.341220
 20
104.652770
 30
0.0
 10
107.173570
 20
104.838700
 30
0.0
 10
107.048590
 20
105.055620
 30
0.0
 10
106.970790
 20
105.293710
 30
0.0
 10
106.944390
 20
105.542750
 30
0.0
 10
106.970790
 20
105.791790
 30
0.0
 10
107.048590
 20
106.029880
 30
0.0
 10
107.173570
 20
106.246800
 30
0.0
 10
107.341220
 20
106.432730
 30
0.0
 10
107.543990
 20
106.579740
 30
0.0
 10
107.772800
 20
106.681400
 30
0.0
 10
108.018600
 20
106.733500
 30
0.0
 10
108.268180
 20
106.733500
 30
0.0
 10
108.513990
 20
106.681400
 30
0.0
 10
108.742800
 20
106.579740
 30
0.0
 10
108.945570
 20
106.432730
 30
0.0
 10
109.113220
 20
106.246800
 30
0.0
 10
109.238190
 20
106.029880
 30
0.0
 10
109.315990
 20
105.791790
 30
0.0
 10
109.342490
 20
105.542750
 30
0.0
 10
109.315990
 20
105.293710
 30
0.0
 10
109.238190
 20
105.055620
 30
0.0
 10
109.113220
 20
104.838700
 30
0.0
 10
108.945570
 20
104.652770
 30
0.0
 10
108.742800
 20
104.505760
 30
0.0
 10
108.513990
 20
104.404110
 30
0.0
 10
108.268180
 20
104.352010
 30
0.0
  0
LWPOLYLINE
  5
122
100
AcDbEntity
  8
Layer_1
 62
5
100
AcDbPolyline
 90
30
 70
1
 10
14.110597
 20
104.352010
 30
0.0
 10
13.865433
 20
104.404110
 30
0.0
 10
13.636468
 20
104.505760
 30
0.0
 10
13.433669
 20
104.652770
 30
0.0
 10
13.266023
 20
104.838700
 30
0.0
 10
13.140628
 20
105.055620
 30
0.0
 10
13.063228
 20
105.293710
 30
0.0
 10
13.037168
 20
105.542750
 30
0.0
 10
13.063228
 20
105.791790
 30
0.0
 10
13.140628
 20
106.029880
 30
0.0
 10
13.266023
 20
106.246800
 30
0.0
 10
13.433669
 20
106.432730
 30
0.0
 10
13.636468
 20
106.579740
 30
0.0
 10
13.865433
 20
106.681400
 30
0.0
 10
14.110597
 20
106.733500
 30
0.0
 10
14.361160
 20
106.733500
 30
0.0
 10
14.606323
 20
106.681400
 30
0.0
 10
14.835288
 20
106.579740
 30
0.0
 10
15.037974
 20
106.432730
 30
0.0
 10
15.205696
 20
106.246800
 30
0.0
 10
15.331091
 20
106.029880
 30
0.0
 10
15.408491
 20
105.791790
 30
0.0
 10
15.434551
 20
105.542750
 30
0.0
 10
15.408491
 20
105.293710
 30
0.0
 10
15.331091
 20
105.055620
 30
0.0
 10
15.205696
 20
104.838700
 30
0.0
 10
15.037974
 20
104.652770
 30
0.0
 10
14.835288
 20
104.505760
 30
0.0
 10
14.606323
 20
104.404110
 30
0.0
 10
14.361160
 20
104.352010
 30
0.0
  0
LWPOLYLINE
  5
123
100
AcDbEntity
  8
Layer_1
 62
5
100
AcDbPolyline
 90
30
 70
1
 10
201.926240
 20
104.352010
 30
0.0
 10
201.680440
 20
104.404110
 30
0.0
 10
201.451630
 20
104.505760
 30
0.0
 10
201.248860
 20
104.652770
 30
0.0
 10
201.081210
 20
104.838700
 30
0.0
 10
200.956230
 20
105.055620
 30
0.0
 10
200.878430
 20
105.293710
 30
0.0
 10
200.851930
 20
105.542750
 30
0.0
 10
200.878430
 20
105.791790
 30
0.0
 10
200.956230
 20
106.029880
 30
0.0
 10
201.081210
 20
106.246800
 30
0.0
 10
201.248860
 20
106.432730
 30
0.0
 10
201.451630
 20
106.579740
 30
0.0
 10
201.680440
 20
106.681400
 30
0.0
 10
201.926240
 20
106.733500
 30
0.0
 10
202.175820
 20
106.733500
 30
0.0
 10
202.421630
 20
106.681400
 30
0.0
 10
202.650440
 20
106.579740
 30
0.0
 10
202.853210
 20
106.432730
 30
0.0
 10
203.020850
 20
106.246800
 30
0.0
 10
203.145830
 20
106.029880
 30
0.0
 10
203.223630
 20
105.791790
 30
0.0
 10
203.250130
 20
105.542750
 30
0.0
 10
203.223630
 20
105.293710
 30
0.0
 10
203.145830
 20
105.055620
 30
0.0
 10
203.020850
 20
104.838700
 30
0.0
 10
202.853210
 20
104.652770
 30
0.0
 10
202.650440
 20
104.505760
 30
0.0
 10
202.421630
 20
104.404110
 30
0.0
 10
202.175820
 20
104.352010
 30
0.0
  0
LWPOLYLINE
  5
124
100
AcDbEntity
  8
Layer_1
 62
5
100
AcDbPolyline
 90
30
 70
1
 10
295.833850
 20
104.352010
 30
0.0
 10
295.588040
 20
104.404110
 30
0.0
 10
295.359230
 20
104.505760
 30
0.0
 10
295.156460
 20
104.652770
 30
0.0
 10
294.988440
 20
104.838700
 30
0.0
 10
294.863460
 20
105.055620
 30
0.0
 10
294.785660
 20
105.293710
 30
0.0
 10
294.759260
 20
105.542750
 30
0.0
 10
294.785660
 20
105.791790
 30
0.0
 10
294.863460
 20
106.029880
 30
0.0
 10
294.988440
 20
106.246800
 30
0.0
 10
295.156460
 20
106.432730
 30
0.0
 10
295.359230
 20
106.579740
 30
0.0
 10
295.588040
 20
106.681400
 30
0.0
 10
295.833850
 20
106.733500
 30
0.0
 10
296.083800
 20
106.733500
 30
0.0
 10
296.329610
 20
106.681400
 30
0.0
 10
296.558420
 20
106.579740
 30
0.0
 10
296.761190
 20
106.432730
 30
0.0
 10
296.929210
 20
106.246800
 30
0.0
 10
297.054190
 20
106.029880
 30
0.0
 10
297.131990
 20
105.791790
 30
0.0
 10
297.158390
 20
105.542750
 30
0.0
 10
297.131990
 20
105.293710
 30
0.0
 10
297.054190
 20
105.055620
 30
0.0
 10
296.929210
 20
104.838700
 30
0.0
 10
296.761190
 20
104.652770
 30
0.0
 10
296.558420
 20
104.505760
 30
0.0
 10
296.329610
 20
104.404110
 30
0.0
 10
296.083800
 20
104.352010
 30
0.0
  0
LWPOLYLINE
  5
125
100
AcDbEntity
  8
Layer_1
 62
5
100
AcDbPolyline
 90
30
 70
1
 10
102.024500
 20
21.514510
 30
0.0
 10
101.778700
 20
21.566710
 30
0.0
 10
101.549880
 20
21.668370
 30
0.0
 10
101.347120
 20
21.815380
 30
0.0
 10
101.179480
 20
22.001310
 30
0.0
 10
101.054500
 20
22.218230
 30
0.0
 10
100.976700
 20
22.456320
 30
0.0
 10
100.950300
 20
22.705360
 30
0.0
 10
100.976700
 20
22.954400
 30
0.0
 10
101.054500
 20
23.192490
 30
0.0
 10
101.179480
 20
23.409410
 30
0.0
 10
101.347120
 20
23.595720
 30
0.0
 10
101.549880
 20
23.742720
 30
0.0
 10
101.778700
 20
23.844380
 30
0.0
 10
102.024500
 20
23.896480
 30
0.0
 10
102.274460
 20
23.896480
 30
0.0
 10
102.520270
 20
23.844380
 30
0.0
 10
102.749080
 20
23.742720
 30
0.0
 10
102.951840
 20
23.595720
 30
0.0
 10
103.119490
 20
23.409410
 30
0.0
 10
103.244470
 20
23.192490
 30
0.0
 10
103.322270
 20
22.954400
 30
0.0
 10
103.348670
 20
22.705360
 30
0.0
 10
103.322270
 20
22.456320
 30
0.0
 10
103.244470
 20
22.218230
 30
0.0
 10
103.119490
 20
22.001310
 30
0.0
 10
102.951840
 20
21.815380
 30
0.0
 10
102.749080
 20
21.668370
 30
0.0
 10
102.520270
 20
21.566710
 30
0.0
 10
102.274460
 20
21.514510
 30
0.0
  0
LWPOLYLINE
  5
126
100
AcDbEntity
  8
Layer_1
 62
5
100
AcDbPolyline
 90
30
 70
1
 10
8.116493
 20
21.514510
 30
0.0
 10
7.871330
 20
21.566710
 30
0.0
 10
7.642365
 20
21.668370
 30
0.0
 10
7.439566
 20
21.815380
 30
0.0
 10
7.271920
 20
22.001310
 30
0.0
 10
7.146563
 20
22.218230
 30
0.0
 10
7.069163
 20
22.456320
 30
0.0
 10
7.043103
 20
22.705360
 30
0.0
 10
7.069163
 20
22.954400
 30
0.0
 10
7.146563
 20
23.192490
 30
0.0
 10
7.271920
 20
23.409410
 30
0.0
 10
7.439566
 20
23.595720
 30
0.0
 10
7.642365
 20
23.742720
 30
0.0
 10
7.871330
 20
23.844380
 30
0.0
 10
8.116493
 20
23.896480
 30
0.0
 10
8.367057
 20
23.896480
 30
0.0
 10
8.612220
 20
23.844380
 30
0.0
 10
8.841185
 20
23.742720
 30
0.0
 10
9.043870
 20
23.595720
 30
0.0
 10
9.211592
 20
23.409410
 30
0.0
 10
9.336987
 20
23.192490
 30
0.0
 10
9.414387
 20
22.954400
 30
0.0
 10
9.440447
 20
22.705360
 30
0.0
 10
9.414387
 20
22.456320
 30
0.0
 10
9.336987
 20
22.218230
 30
0.0
 10
9.211592
 20
22.001310
 30
0.0
 10
9.043870
 20
21.815380
 30
0.0
 10
8.841185
 20
21.668370
 30
0.0
 10
8.612220
 20
21.566710
 30
0.0
 10
8.367057
 20
21.514510
 30
0.0
  0
LWPOLYLINE
  5
127
100
AcDbEntity
  8
Layer_1
 62
5
100
AcDbPolyline
 90
30
 70
1
 10
477.654940
 20
21.514510
 30
0.0
 10
477.409140
 20
21.566710
 30
0.0
 10
477.180330
 20
21.668370
 30
0.0
 10
476.977570
 20
21.815380
 30
0.0
 10
476.809540
 20
22.001310
 30
0.0
 10
476.684570
 20
22.218230
 30
0.0
 10
476.606770
 20
22.456320
 30
0.0
 10
476.580270
 20
22.705360
 30
0.0
 10
476.606770
 20
22.954400
 30
0.0
 10
476.684570
 20
23.192490
 30
0.0
 10
476.809540
 20
23.409410
 30
0.0
 10
476.977570
 20
23.595720
 30
0.0
 10
477.180330
 20
23.742720
 30
0.0
 10
477.409140
 20
23.844380
 30
0.0
 10
477.654940
 20
23.896480
 30
0.0
 10
477.904900
 20
23.896480
 30
0.0
 10
478.150710
 20
23.844380
 30
0.0
 10
478.379530
 20
23.742720
 30
0.0
 10
478.582290
 20
23.595720
 30
0.0
 10
478.750310
 20
23.409410
 30
0.0
 10
478.875290
 20
23.192490
 30
0.0
 10
478.953090
 20
22.954400
 30
0.0
 10
478.979490
 20
22.705360
 30
0.0
 10
478.953090
 20
22.456320
 30
0.0
 10
478.875290
 20
22.218230
 30
0.0
 10
478.750310
 20
22.001310
 30
0.0
 10
478.582290
 20
21.815380
 30
0.0
 10
478.379530
 20
21.668370
 30
0.0
 10
478.150710
 20
21.566710
 30
0.0
 10
477.904900
 20
21.514510
 30
0.0
  0
LWPOLYLINE
  5
128
100
AcDbEntity
  8
Layer_1
 62
5
100
AcDbPolyline
 90
30
 70
1
 10
383.747340
 20
21.514510
 30
0.0
 10
383.501540
 20
21.566710
 30
0.0
 10
383.272720
 20
21.668370
 30
0.0
 10
383.069970
 20
21.815380
 30
0.0
 10
382.901940
 20
22.001310
 30
0.0
 10
382.776960
 20
22.218230
 30
0.0
 10
382.699160
 20
22.456320
 30
0.0
 10
382.672760
 20
22.705360
 30
0.0
 10
382.699160
 20
22.954400
 30
0.0
 10
382.776960
 20
23.192490
 30
0.0
 10
382.901940
 20
23.409410
 30
0.0
 10
383.069970
 20
23.595720
 30
0.0
 10
383.272720
 20
23.742720
 30
0.0
 10
383.501540
 20
23.844380
 30
0.0
 10
383.747340
 20
23.896480
 30
0.0
 10
383.996920
 20
23.896480
 30
0.0
 10
384.242730
 20
23.844380
 30
0.0
 10
384.471550
 20
23.742720
 30
0.0
 10
384.674310
 20
23.595720
 30
0.0
 10
384.842330
 20
23.409410
 30
0.0
 10
384.967310
 20
23.192490
 30
0.0
 10
385.045110
 20
22.954400
 30
0.0
 10
385.071510
 20
22.705360
 30
0.0
 10
385.045110
 20
22.456320
 30
0.0
 10
384.967310
 20
22.218230
 30
0.0
 10
384.842330
 20
22.001310
 30
0.0
 10
384.674310
 20
21.815380
 30
0.0
 10
384.471550
 20
21.668370
 30
0.0
 10
384.242730
 20
21.566710
 30
0.0
 10
383.996920
 20
21.514510
 30
0.0
  0
LWPOLYLINE
  5
129
100
AcDbEntity
  8
Layer_1
 62
5
100
AcDbPolyline
 90
30
 70
1
 10
195.932140
 20
21.514510
 30
0.0
 10
195.686340
 20
21.566710
 30
0.0
 10
195.457520
 20
21.668370
 30
0.0
 10
195.254760
 20
21.815380
 30
0.0
 10
195.086740
 20
22.001310
 30
0.0
 10
194.961760
 20
22.218230
 30
0.0
 10
194.883960
 20
22.456320
 30
0.0
 10
194.857560
 20
22.705360
 30
0.0
 10
194.883960
 20
22.954400
 30
0.0
 10
194.961760
 20
23.192490
 30
0.0
 10
195.086740
 20
23.409410
 30
0.0
 10
195.254760
 20
23.595720
 30
0.0
 10
195.457520
 20
23.742720
 30
0.0
 10
195.686340
 20
23.844380
 30
0.0
 10
195.932140
 20
23.896480
 30
0.0
 10
196.181720
 20
23.896480
 30
0.0
 10
196.427530
 20
23.844380
 30
0.0
 10
196.656340
 20
23.742720
 30
0.0
 10
196.859100
 20
23.595720
 30
0.0
 10
197.026750
 20
23.409410
 30
0.0
 10
197.151730
 20
23.192490
 30
0.0
 10
197.229530
 20
22.954400
 30
0.0
 10
197.255930
 20
22.705360
 30
0.0
 10
197.229530
 20
22.456320
 30
0.0
 10
197.151730
 20
22.218230
 30
0.0
 10
197.026750
 20
22.001310
 30
0.0
 10
196.859100
 20
21.815380
 30
0.0
 10
196.656340
 20
21.668370
 30
0.0
 10
196.427530
 20
21.566710
 30
0.0
 10
196.181720
 20
21.514510
 30
0.0
  0
LWPOLYLINE
  5
12a
100
AcDbEntity
  8
Layer_1
 62
5
100
AcDbPolyline
 90
30
 70
1
 10
289.839740
 20
21.514510
 30
0.0
 10
289.593940
 20
21.566710
 30
0.0
 10
289.365120
 20
21.668370
 30
0.0
 10
289.162370
 20
21.815380
 30
0.0
 10
288.994720
 20
22.001310
 30
0.0
 10
288.869740
 20
22.218230
 30
0.0
 10
288.791940
 20
22.456320
 30
0.0
 10
288.765540
 20
22.705360
 30
0.0
 10
288.791940
 20
22.954400
 30
0.0
 10
288.869740
 20
23.192490
 30
0.0
 10
288.994720
 20
23.409410
 30
0.0
 10
289.162370
 20
23.595720
 30
0.0
 10
289.365120
 20
23.742720
 30
0.0
 10
289.593940
 20
23.844380
 30
0.0
 10
289.839740
 20
23.896480
 30
0.0
 10
290.089320
 20
23.896480
 30
0.0
 10
290.335130
 20
23.844380
 30
0.0
 10
290.563950
 20
23.742720
 30
0.0
 10
290.766700
 20
23.595720
 30
0.0
 10
290.934730
 20
23.409410
 30
0.0
 10
291.059710
 20
23.192490
 30
0.0
 10
291.137510
 20
22.954400
 30
0.0
 10
291.163910
 20
22.705360
 30
0.0
 10
291.137510
 20
22.456320
 30
0.0
 10
291.059710
 20
22.218230
 30
0.0
 10
290.934730
 20
22.001310
 30
0.0
 10
290.766700
 20
21.815380
 30
0.0
 10
290.563950
 20
21.668370
 30
0.0
 10
290.335130
 20
21.566710
 30
0.0
 10
290.089320
 20
21.514510
 30
0.0
  0
LWPOLYLINE
  5
12b
100
AcDbEntity
  8
Layer_1
 62
5
100
AcDbPolyline
 90
30
 70
1
 10
383.747340
 20
11.534080
 30
0.0
 10
383.501540
 20
11.586180
 30
0.0
 10
383.272720
 20
11.687840
 30
0.0
 10
383.069970
 20
11.834850
 30
0.0
 10
382.901940
 20
12.020780
 30
0.0
 10
382.776960
 20
12.237700
 30
0.0
 10
382.699160
 20
12.475780
 30
0.0
 10
382.672760
 20
12.724830
 30
0.0
 10
382.699160
 20
12.973870
 30
0.0
 10
382.776960
 20
13.211950
 30
0.0
 10
382.901940
 20
13.428870
 30
0.0
 10
383.069970
 20
13.614810
 30
0.0
 10
383.272720
 20
13.761810
 30
0.0
 10
383.501540
 20
13.863470
 30
0.0
 10
383.747340
 20
13.915570
 30
0.0
 10
383.996920
 20
13.915570
 30
0.0
 10
384.242730
 20
13.863470
 30
0.0
 10
384.471550
 20
13.761810
 30
0.0
 10
384.674310
 20
13.614810
 30
0.0
 10
384.842330
 20
13.428870
 30
0.0
 10
384.967310
 20
13.211950
 30
0.0
 10
385.045110
 20
12.973870
 30
0.0
 10
385.071510
 20
12.724830
 30
0.0
 10
385.045110
 20
12.475780
 30
0.0
 10
384.967310
 20
12.237700
 30
0.0
 10
384.842330
 20
12.020780
 30
0.0
 10
384.674310
 20
11.834850
 30
0.0
 10
384.471550
 20
11.687840
 30
0.0
 10
384.242730
 20
11.586180
 30
0.0
 10
383.996920
 20
11.534080
 30
0.0
  0
LWPOLYLINE
  5
12c
100
AcDbEntity
  8
Layer_1
 62
5
100
AcDbPolyline
 90
30
 70
1
 10
477.654940
 20
11.534080
 30
0.0
 10
477.409140
 20
11.586180
 30
0.0
 10
477.180330
 20
11.687840
 30
0.0
 10
476.977570
 20
11.834850
 30
0.0
 10
476.809540
 20
12.020780
 30
0.0
 10
476.684570
 20
12.237700
 30
0.0
 10
476.606770
 20
12.475780
 30
0.0
 10
476.580270
 20
12.724830
 30
0.0
 10
476.606770
 20
12.973870
 30
0.0
 10
476.684570
 20
13.211950
 30
0.0
 10
476.809540
 20
13.428870
 30
0.0
 10
476.977570
 20
13.614810
 30
0.0
 10
477.180330
 20
13.761810
 30
0.0
 10
477.409140
 20
13.863470
 30
0.0
 10
477.654940
 20
13.915570
 30
0.0
 10
477.904900
 20
13.915570
 30
0.0
 10
478.150710
 20
13.863470
 30
0.0
 10
478.379530
 20
13.761810
 30
0.0
 10
478.582290
 20
13.614810
 30
0.0
 10
478.750310
 20
13.428870
 30
0.0
 10
478.875290
 20
13.211950
 30
0.0
 10
478.953090
 20
12.973870
 30
0.0
 10
478.979490
 20
12.724830
 30
0.0
 10
478.953090
 20
12.475780
 30
0.0
 10
478.875290
 20
12.237700
 30
0.0
 10
478.750310
 20
12.020780
 30
0.0
 10
478.582290
 20
11.834850
 30
0.0
 10
478.379530
 20
11.687840
 30
0.0
 10
478.150710
 20
11.586180
 30
0.0
 10
477.904900
 20
11.534080
 30
0.0
  0
LWPOLYLINE
  5
12d
100
AcDbEntity
  8
Layer_1
 62
5
100
AcDbPolyline
 90
30
 70
1
 10
102.024500
 20
11.534080
 30
0.0
 10
101.778700
 20
11.586180
 30
0.0
 10
101.549880
 20
11.687840
 30
0.0
 10
101.347120
 20
11.834850
 30
0.0
 10
101.179480
 20
12.020780
 30
0.0
 10
101.054500
 20
12.237700
 30
0.0
 10
100.976700
 20
12.475780
 30
0.0
 10
100.950300
 20
12.724830
 30
0.0
 10
100.976700
 20
12.973870
 30
0.0
 10
101.054500
 20
13.211950
 30
0.0
 10
101.179480
 20
13.428870
 30
0.0
 10
101.347120
 20
13.614810
 30
0.0
 10
101.549880
 20
13.761810
 30
0.0
 10
101.778700
 20
13.863470
 30
0.0
 10
102.024500
 20
13.915570
 30
0.0
 10
102.274460
 20
13.915570
 30
0.0
 10
102.520270
 20
13.863470
 30
0.0
 10
102.749080
 20
13.761810
 30
0.0
 10
102.951840
 20
13.614810
 30
0.0
 10
103.119490
 20
13.428870
 30
0.0
 10
103.244470
 20
13.211950
 30
0.0
 10
103.322270
 20
12.973870
 30
0.0
 10
103.348670
 20
12.724830
 30
0.0
 10
103.322270
 20
12.475780
 30
0.0
 10
103.244470
 20
12.237700
 30
0.0
 10
103.119490
 20
12.020780
 30
0.0
 10
102.951840
 20
11.834850
 30
0.0
 10
102.749080
 20
11.687840
 30
0.0
 10
102.520270
 20
11.586180
 30
0.0
 10
102.274460
 20
11.534080
 30
0.0
  0
LWPOLYLINE
  5
12e
100
AcDbEntity
  8
Layer_1
 62
5
100
AcDbPolyline
 90
30
 70
1
 10
289.839740
 20
11.534080
 30
0.0
 10
289.593940
 20
11.586180
 30
0.0
 10
289.365120
 20
11.687840
 30
0.0
 10
289.162370
 20
11.834850
 30
0.0
 10
288.994720
 20
12.020780
 30
0.0
 10
288.869740
 20
12.237700
 30
0.0
 10
288.791940
 20
12.475780
 30
0.0
 10
288.765540
 20
12.724830
 30
0.0
 10
288.791940
 20
12.973870
 30
0.0
 10
288.869740
 20
13.211950
 30
0.0
 10
288.994720
 20
13.428870
 30
0.0
 10
289.162370
 20
13.614810
 30
0.0
 10
289.365120
 20
13.761810
 30
0.0
 10
289.593940
 20
13.863470
 30
0.0
 10
289.839740
 20
13.915570
 30
0.0
 10
290.089320
 20
13.915570
 30
0.0
 10
290.335130
 20
13.863470
 30
0.0
 10
290.563950
 20
13.761810
 30
0.0
 10
290.766700
 20
13.614810
 30
0.0
 10
290.934730
 20
13.428870
 30
0.0
 10
291.059710
 20
13.211950
 30
0.0
 10
291.137510
 20
12.973870
 30
0.0
 10
291.163910
 20
12.724830
 30
0.0
 10
291.137510
 20
12.475780
 30
0.0
 10
291.059710
 20
12.237700
 30
0.0
 10
290.934730
 20
12.020780
 30
0.0
 10
290.766700
 20
11.834850
 30
0.0
 10
290.563950
 20
11.687840
 30
0.0
 10
290.335130
 20
11.586180
 30
0.0
 10
290.089320
 20
11.534080
 30
0.0
  0
LWPOLYLINE
  5
12f
100
AcDbEntity
  8
Layer_1
 62
5
100
AcDbPolyline
 90
30
 70
1
 10
8.116493
 20
11.534080
 30
0.0
 10
7.871330
 20
11.586180
 30
0.0
 10
7.642365
 20
11.687840
 30
0.0
 10
7.439566
 20
11.834850
 30
0.0
 10
7.271920
 20
12.020780
 30
0.0
 10
7.146563
 20
12.237700
 30
0.0
 10
7.069163
 20
12.475780
 30
0.0
 10
7.043103
 20
12.724830
 30
0.0
 10
7.069163
 20
12.973870
 30
0.0
 10
7.146563
 20
13.211950
 30
0.0
 10
7.271920
 20
13.428870
 30
0.0
 10
7.439566
 20
13.614810
 30
0.0
 10
7.642365
 20
13.761810
 30
0.0
 10
7.871330
 20
13.863470
 30
0.0
 10
8.116493
 20
13.915570
 30
0.0
 10
8.367057
 20
13.915570
 30
0.0
 10
8.612220
 20
13.863470
 30
0.0
 10
8.841185
 20
13.761810
 30
0.0
 10
9.043870
 20
13.614810
 30
0.0
 10
9.211592
 20
13.428870
 30
0.0
 10
9.336987
 20
13.211950
 30
0.0
 10
9.414387
 20
12.973870
 30
0.0
 10
9.440447
 20
12.724830
 30
0.0
 10
9.414387
 20
12.475780
 30
0.0
 10
9.336987
 20
12.237700
 30
0.0
 10
9.211592
 20
12.020780
 30
0.0
 10
9.043870
 20
11.834850
 30
0.0
 10
8.841185
 20
11.687840
 30
0.0
 10
8.612220
 20
11.586180
 30
0.0
 10
8.367057
 20
11.534080
 30
0.0
  0
LWPOLYLINE
  5
130
100
AcDbEntity
  8
Layer_1
 62
5
100
AcDbPolyline
 90
30
 70
1
 10
195.932140
 20
11.534080
 30
0.0
 10
195.686340
 20
11.586180
 30
0.0
 10
195.457520
 20
11.687840
 30
0.0
 10
195.254760
 20
11.834850
 30
0.0
 10
195.086740
 20
12.020780
 30
0.0
 10
194.961760
 20
12.237700
 30
0.0
 10
194.883960
 20
12.475780
 30
0.0
 10
194.857560
 20
12.724830
 30
0.0
 10
194.883960
 20
12.973870
 30
0.0
 10
194.961760
 20
13.211950
 30
0.0
 10
195.086740
 20
13.428870
 30
0.0
 10
195.254760
 20
13.614810
 30
0.0
 10
195.457520
 20
13.761810
 30
0.0
 10
195.686340
 20
13.863470
 30
0.0
 10
195.932140
 20
13.915570
 30
0.0
 10
196.181720
 20
13.915570
 30
0.0
 10
196.427530
 20
13.863470
 30
0.0
 10
196.656340
 20
13.761810
 30
0.0
 10
196.859100
 20
13.614810
 30
0.0
 10
197.026750
 20
13.428870
 30
0.0
 10
197.151730
 20
13.211950
 30
0.0
 10
197.229530
 20
12.973870
 30
0.0
 10
197.255930
 20
12.724830
 30
0.0
 10
197.229530
 20
12.475780
 30
0.0
 10
197.151730
 20
12.237700
 30
0.0
 10
197.026750
 20
12.020780
 30
0.0
 10
196.859100
 20
11.834850
 30
0.0
 10
196.656340
 20
11.687840
 30
0.0
 10
196.427530
 20
11.586180
 30
0.0
 10
196.181720
 20
11.534080
 30
0.0
  0
ENDSEC
  0
SECTION
  2
OBJECTS
  0
DICTIONARY
  5
C
330
0
100
AcDbDictionary
  3
ACAD_GROUP
350
D
  3
ACAD_MLINESTYLE
350
17
  0
DICTIONARY
  5
D
330
C
100
AcDbDictionary
  0
DICTIONARY
  5
1A
330
C
100
AcDbDictionary
  0
DICTIONARY
  5
17
330
C
100
AcDbDictionary
  3
STANDARD
350
18
  0
DICTIONARY
  5
19
330
C
100
AcDbDictionary
  0
ENDSEC
  0
EOF
