<?xml version="1.0" standalone="no"?>
<!DOCTYPE svg PUBLIC "-//W3C//DTD SVG 1.1//EN" "http://www.w3.org/Graphics/SVG/1.1/DTD/svg11.dtd">
<svg width="496" height="61" viewBox="-97 -61 496 61" xmlns="http://www.w3.org/2000/svg" version="1.1">
<title>OpenSCAD Model</title>
<path d="
M 398.74,-60.51 L -97,-60.51 L -97,-0 L 398.74,-0 z
M 54.8066,-44.1601 L 54.4283,-44.2405 L 54.075,-44.3978 L 53.7621,-44.6252 L 53.5033,-44.9126 L 53.3099,-45.2475
 L 53.1904,-45.6154 L 53.15,-46 L 53.1904,-46.3846 L 53.3099,-46.7525 L 53.5033,-47.0874 L 53.7621,-47.3748
 L 54.075,-47.6021 L 54.4283,-47.7594 L 54.8066,-47.8399 L 55.1934,-47.8399 L 55.5717,-47.7594 L 55.925,-47.6021
 L 56.2379,-47.3748 L 56.4967,-47.0874 L 56.69,-46.7525 L 56.8096,-46.3846 L 56.85,-46 L 56.8096,-45.6154
 L 56.69,-45.2475 L 56.4967,-44.9126 L 56.2379,-44.6252 L 55.925,-44.3978 L 55.5717,-44.2405 L 55.1934,-44.1601
 z
M 166.807,-44.1601 L 166.428,-44.2405 L 166.075,-44.3978 L 165.762,-44.6252 L 165.503,-44.9126 L 165.31,-45.2475
 L 165.19,-45.6154 L 165.15,-46 L 165.19,-46.3846 L 165.31,-46.7525 L 165.503,-47.0874 L 165.762,-47.3748
 L 166.075,-47.6021 L 166.428,-47.7594 L 166.807,-47.8399 L 167.193,-47.8399 L 167.572,-47.7594 L 167.925,-47.6021
 L 168.238,-47.3748 L 168.497,-47.0874 L 168.69,-46.7525 L 168.81,-46.3846 L 168.85,-46 L 168.81,-45.6154
 L 168.69,-45.2475 L 168.497,-44.9126 L 168.238,-44.6252 L 167.925,-44.3978 L 167.572,-44.2405 L 167.193,-44.1601
 z
M -45.1934,-44.1601 L -45.5717,-44.2405 L -45.925,-44.3978 L -46.2379,-44.6252 L -46.4967,-44.9126 L -46.69,-45.2475
 L -46.8096,-45.6154 L -46.85,-46 L -46.8096,-46.3846 L -46.69,-46.7525 L -46.4967,-47.0874 L -46.2379,-47.3748
 L -45.925,-47.6021 L -45.5717,-47.7594 L -45.1934,-47.8399 L -44.8066,-47.8399 L -44.4283,-47.7594 L -44.075,-47.6021
 L -43.7621,-47.3748 L -43.5033,-47.0874 L -43.3099,-46.7525 L -43.1904,-46.3846 L -43.15,-46 L -43.1904,-45.6154
 L -43.3099,-45.2475 L -43.5033,-44.9126 L -43.7621,-44.6252 L -44.075,-44.3978 L -44.4283,-44.2405 L -44.8066,-44.1601
 z
M 4.80661,-44.1601 L 4.42831,-44.2405 L 4.075,-44.3978 L 3.7621,-44.6252 L 3.50331,-44.9126 L 3.30994,-45.2475
 L 3.19041,-45.6154 L 3.14999,-46 L 3.19041,-46.3846 L 3.30994,-46.7525 L 3.50331,-47.0874 L 3.7621,-47.3748
 L 4.075,-47.6021 L 4.42831,-47.7594 L 4.80661,-47.8399 L 5.19337,-47.8399 L 5.57167,-47.7594 L 5.92499,-47.6021
 L 6.23788,-47.3748 L 6.49667,-47.0874 L 6.69005,-46.7525 L 6.80957,-46.3846 L 6.84999,-46 L 6.80957,-45.6154
 L 6.69005,-45.2475 L 6.49667,-44.9126 L 6.23788,-44.6252 L 5.92499,-44.3978 L 5.57167,-44.2405 L 5.19337,-44.1601
 z
M 116.807,-44.1601 L 116.428,-44.2405 L 116.075,-44.3978 L 115.762,-44.6252 L 115.503,-44.9126 L 115.31,-45.2475
 L 115.19,-45.6154 L 115.15,-46 L 115.19,-46.3846 L 115.31,-46.7525 L 115.503,-47.0874 L 115.762,-47.3748
 L 116.075,-47.6021 L 116.428,-47.7594 L 116.807,-47.8399 L 117.193,-47.8399 L 117.572,-47.7594 L 117.925,-47.6021
 L 118.238,-47.3748 L 118.497,-47.0874 L 118.69,-46.7525 L 118.81,-46.3846 L 118.85,-46 L 118.81,-45.6154
 L 118.69,-45.2475 L 118.497,-44.9126 L 118.238,-44.6252 L 117.925,-44.3978 L 117.572,-44.2405 L 117.193,-44.1601
 z
M 216.807,-44.1601 L 216.428,-44.2405 L 216.075,-44.3978 L 215.762,-44.6252 L 215.503,-44.9126 L 215.31,-45.2475
 L 215.19,-45.6154 L 215.15,-46 L 215.19,-46.3846 L 215.31,-46.7525 L 215.503,-47.0874 L 215.762,-47.3748
 L 216.075,-47.6021 L 216.428,-47.7594 L 216.807,-47.8399 L 217.193,-47.8399 L 217.572,-47.7594 L 217.925,-47.6021
 L 218.238,-47.3748 L 218.497,-47.0874 L 218.69,-46.7525 L 218.81,-46.3846 L 218.85,-46 L 218.81,-45.6154
 L 218.69,-45.2475 L 218.497,-44.9126 L 218.238,-44.6252 L 217.925,-44.3978 L 217.572,-44.2405 L 217.193,-44.1601
 z
M 120,-15 L 120,-42 L 216,-42 L 216,-15 z
M -42,-17 L -42,-40 L 54,-40 L 54,-17 z
M 216.807,-9.16013 L 216.428,-9.24054 L 216.075,-9.39784 L 215.762,-9.62517 L 215.503,-9.91258 L 215.31,-10.2475
 L 215.19,-10.6154 L 215.15,-11 L 215.19,-11.3846 L 215.31,-11.7525 L 215.503,-12.0874 L 215.762,-12.3748
 L 216.075,-12.6021 L 216.428,-12.7594 L 216.807,-12.8399 L 217.193,-12.8399 L 217.572,-12.7594 L 217.925,-12.6021
 L 218.238,-12.3748 L 218.497,-12.0874 L 218.69,-11.7525 L 218.81,-11.3846 L 218.85,-11 L 218.81,-10.6154
 L 218.69,-10.2475 L 218.497,-9.91258 L 218.238,-9.62517 L 217.925,-9.39784 L 217.572,-9.24054 L 217.193,-9.16013
 z
M 54.8066,-9.16013 L 54.4283,-9.24054 L 54.075,-9.39784 L 53.7621,-9.62517 L 53.5033,-9.91258 L 53.3099,-10.2475
 L 53.1904,-10.6154 L 53.15,-11 L 53.1904,-11.3846 L 53.3099,-11.7525 L 53.5033,-12.0874 L 53.7621,-12.3748
 L 54.075,-12.6021 L 54.4283,-12.7594 L 54.8066,-12.8399 L 55.1934,-12.8399 L 55.5717,-12.7594 L 55.925,-12.6021
 L 56.2379,-12.3748 L 56.4967,-12.0874 L 56.69,-11.7525 L 56.8096,-11.3846 L 56.85,-11 L 56.8096,-10.6154
 L 56.69,-10.2475 L 56.4967,-9.91258 L 56.2379,-9.62517 L 55.925,-9.39784 L 55.5717,-9.24054 L 55.1934,-9.16013
 z
M 4.80661,-9.16013 L 4.42831,-9.24054 L 4.075,-9.39784 L 3.7621,-9.62517 L 3.50331,-9.91258 L 3.30994,-10.2475
 L 3.19041,-10.6154 L 3.14999,-11 L 3.19041,-11.3846 L 3.30994,-11.7525 L 3.50331,-12.0874 L 3.7621,-12.3748
 L 4.075,-12.6021 L 4.42831,-12.7594 L 4.80661,-12.8399 L 5.19337,-12.8399 L 5.57167,-12.7594 L 5.92499,-12.6021
 L 6.23788,-12.3748 L 6.49667,-12.0874 L 6.69005,-11.7525 L 6.80957,-11.3846 L 6.84999,-11 L 6.80957,-10.6154
 L 6.69005,-10.2475 L 6.49667,-9.91258 L 6.23788,-9.62517 L 5.92499,-9.39784 L 5.57167,-9.24054 L 5.19337,-9.16013
 z
M 116.807,-9.16013 L 116.428,-9.24054 L 116.075,-9.39784 L 115.762,-9.62517 L 115.503,-9.91258 L 115.31,-10.2475
 L 115.19,-10.6154 L 115.15,-11 L 115.19,-11.3846 L 115.31,-11.7525 L 115.503,-12.0874 L 115.762,-12.3748
 L 116.075,-12.6021 L 116.428,-12.7594 L 116.807,-12.8399 L 117.193,-12.8399 L 117.572,-12.7594 L 117.925,-12.6021
 L 118.238,-12.3748 L 118.497,-12.0874 L 118.69,-11.7525 L 118.81,-11.3846 L 118.85,-11 L 118.81,-10.6154
 L 118.69,-10.2475 L 118.497,-9.91258 L 118.238,-9.62517 L 117.925,-9.39784 L 117.572,-9.24054 L 117.193,-9.16013
 z
M 166.807,-9.16013 L 166.428,-9.24054 L 166.075,-9.39784 L 165.762,-9.62517 L 165.503,-9.91258 L 165.31,-10.2475
 L 165.19,-10.6154 L 165.15,-11 L 165.19,-11.3846 L 165.31,-11.7525 L 165.503,-12.0874 L 165.762,-12.3748
 L 166.075,-12.6021 L 166.428,-12.7594 L 166.807,-12.8399 L 167.193,-12.8399 L 167.572,-12.7594 L 167.925,-12.6021
 L 168.238,-12.3748 L 168.497,-12.0874 L 168.69,-11.7525 L 168.81,-11.3846 L 168.85,-11 L 168.81,-10.6154
 L 168.69,-10.2475 L 168.497,-9.91258 L 168.238,-9.62517 L 167.925,-9.39784 L 167.572,-9.24054 L 167.193,-9.16013
 z
M -45.1934,-9.16013 L -45.5717,-9.24054 L -45.925,-9.39784 L -46.2379,-9.62517 L -46.4967,-9.91258 L -46.69,-10.2475
 L -46.8096,-10.6154 L -46.85,-11 L -46.8096,-11.3846 L -46.69,-11.7525 L -46.4967,-12.0874 L -46.2379,-12.3748
 L -45.925,-12.6021 L -45.5717,-12.7594 L -45.1934,-12.8399 L -44.8066,-12.8399 L -44.4283,-12.7594 L -44.075,-12.6021
 L -43.7621,-12.3748 L -43.5033,-12.0874 L -43.3099,-11.7525 L -43.1904,-11.3846 L -43.15,-11 L -43.1904,-10.6154
 L -43.3099,-10.2475 L -43.5033,-9.91258 L -43.7621,-9.62517 L -44.075,-9.39784 L -44.4283,-9.24054 L -44.8066,-9.16013
 z
" stroke="black" fill="lightgray" stroke-width="0.5"/></svg>
