  0
SECTION
  2
BLOCKS
  0
ENDSEC
  0
SECTION
  2
ENTITIES
  0
LINE
  8
0
 10
558.104
 20
2
 11
-75.896
 21
2
  0
LINE
  8
0
 10
-75.896
 20
2
 11
-75.896
 21
-638
  0
LINE
  8
0
 10
-75.896
 20
-638
 11
558.104
 21
-638
  0
LINE
  8
0
 10
558.104
 20
-638
 11
558.104
 21
2
  0
LINE
  8
0
 10
500.486
 20
-7.9021
 11
499.928
 21
-7.61803
  0
LINE
  8
0
 10
499.928
 20
-7.61803
 11
499.486
 21
-7.17557
  0
LINE
  8
0
 10
499.486
 20
-7.17557
 11
499.202
 21
-6.61803
  0
LINE
  8
0
 10
499.202
 20
-6.61803
 11
499.104
 21
-6
  0
LINE
  8
0
 10
499.104
 20
-6
 11
499.202
 21
-5.38196
  0
LINE
  8
0
 10
499.202
 20
-5.38196
 11
499.486
 21
-4.82442
  0
LINE
  8
0
 10
499.486
 20
-4.82442
 11
499.928
 21
-4.38196
  0
LINE
  8
0
 10
499.928
 20
-4.38196
 11
500.486
 21
-4.09789
  0
LINE
  8
0
 10
500.486
 20
-4.09789
 11
501.104
 21
-4
  0
LINE
  8
0
 10
501.104
 20
-4
 11
501.722
 21
-4.09789
  0
LINE
  8
0
 10
501.722
 20
-4.09789
 11
502.28
 21
-4.38196
  0
LINE
  8
0
 10
502.28
 20
-4.38196
 11
502.722
 21
-4.82442
  0
LINE
  8
0
 10
502.722
 20
-4.82442
 11
503.006
 21
-5.38196
  0
LINE
  8
0
 10
503.006
 20
-5.38196
 11
503.104
 21
-6
  0
LINE
  8
0
 10
503.104
 20
-6
 11
503.006
 21
-6.61803
  0
LINE
  8
0
 10
503.006
 20
-6.61803
 11
502.722
 21
-7.17557
  0
LINE
  8
0
 10
502.722
 20
-7.17557
 11
502.28
 21
-7.61803
  0
LINE
  8
0
 10
502.28
 20
-7.61803
 11
501.722
 21
-7.9021
  0
LINE
  8
0
 10
501.722
 20
-7.9021
 11
501.104
 21
-8
  0
LINE
  8
0
 10
501.104
 20
-8
 11
500.486
 21
-7.9021
  0
LINE
  8
0
 10
-29.514
 20
-7.9021
 11
-30.0716
 21
-7.61803
  0
LINE
  8
0
 10
-30.0716
 20
-7.61803
 11
-30.514
 21
-7.17557
  0
LINE
  8
0
 10
-30.514
 20
-7.17557
 11
-30.7981
 21
-6.61803
  0
LINE
  8
0
 10
-30.7981
 20
-6.61803
 11
-30.896
 21
-6
  0
LINE
  8
0
 10
-30.896
 20
-6
 11
-30.7981
 21
-5.38196
  0
LINE
  8
0
 10
-30.7981
 20
-5.38196
 11
-30.514
 21
-4.82442
  0
LINE
  8
0
 10
-30.514
 20
-4.82442
 11
-30.0716
 21
-4.38196
  0
LINE
  8
0
 10
-30.0716
 20
-4.38196
 11
-29.514
 21
-4.09789
  0
LINE
  8
0
 10
-29.514
 20
-4.09789
 11
-28.896
 21
-4
  0
LINE
  8
0
 10
-28.896
 20
-4
 11
-28.278
 21
-4.09789
  0
LINE
  8
0
 10
-28.278
 20
-4.09789
 11
-27.7204
 21
-4.38196
  0
LINE
  8
0
 10
-27.7204
 20
-4.38196
 11
-27.278
 21
-4.82442
  0
LINE
  8
0
 10
-27.278
 20
-4.82442
 11
-26.9939
 21
-5.38196
  0
LINE
  8
0
 10
-26.9939
 20
-5.38196
 11
-26.896
 21
-6
  0
LINE
  8
0
 10
-26.896
 20
-6
 11
-26.9939
 21
-6.61803
  0
LINE
  8
0
 10
-26.9939
 20
-6.61803
 11
-27.278
 21
-7.17557
  0
LINE
  8
0
 10
-27.278
 20
-7.17557
 11
-27.7204
 21
-7.61803
  0
LINE
  8
0
 10
-27.7204
 20
-7.61803
 11
-28.278
 21
-7.9021
  0
LINE
  8
0
 10
-28.278
 20
-7.9021
 11
-28.896
 21
-8
  0
LINE
  8
0
 10
-28.896
 20
-8
 11
-29.514
 21
-7.9021
  0
LINE
  8
0
 10
240.486
 20
-7.9021
 11
239.928
 21
-7.61803
  0
LINE
  8
0
 10
239.928
 20
-7.61803
 11
239.486
 21
-7.17557
  0
LINE
  8
0
 10
239.486
 20
-7.17557
 11
239.202
 21
-6.61803
  0
LINE
  8
0
 10
239.202
 20
-6.61803
 11
239.104
 21
-6
  0
LINE
  8
0
 10
239.104
 20
-6
 11
239.202
 21
-5.38196
  0
LINE
  8
0
 10
239.202
 20
-5.38196
 11
239.486
 21
-4.82442
  0
LINE
  8
0
 10
239.486
 20
-4.82442
 11
239.928
 21
-4.38196
  0
LINE
  8
0
 10
239.928
 20
-4.38196
 11
240.486
 21
-4.09789
  0
LINE
  8
0
 10
240.486
 20
-4.09789
 11
241.104
 21
-4
  0
LINE
  8
0
 10
241.104
 20
-4
 11
241.722
 21
-4.09789
  0
LINE
  8
0
 10
241.722
 20
-4.09789
 11
242.28
 21
-4.38196
  0
LINE
  8
0
 10
242.28
 20
-4.38196
 11
242.722
 21
-4.82442
  0
LINE
  8
0
 10
242.722
 20
-4.82442
 11
243.006
 21
-5.38196
  0
LINE
  8
0
 10
243.006
 20
-5.38196
 11
243.104
 21
-6
  0
LINE
  8
0
 10
243.104
 20
-6
 11
243.006
 21
-6.61803
  0
LINE
  8
0
 10
243.006
 20
-6.61803
 11
242.722
 21
-7.17557
  0
LINE
  8
0
 10
242.722
 20
-7.17557
 11
242.28
 21
-7.61803
  0
LINE
  8
0
 10
242.28
 20
-7.61803
 11
241.722
 21
-7.9021
  0
LINE
  8
0
 10
241.722
 20
-7.9021
 11
241.104
 21
-8
  0
LINE
  8
0
 10
241.104
 20
-8
 11
240.486
 21
-7.9021
  0
LINE
  8
0
 10
-64.514
 20
-32.9021
 11
-65.0716
 21
-32.618
  0
LINE
  8
0
 10
-65.0716
 20
-32.618
 11
-65.514
 21
-32.1756
  0
LINE
  8
0
 10
-65.514
 20
-32.1756
 11
-65.7981
 21
-31.618
  0
LINE
  8
0
 10
-65.7981
 20
-31.618
 11
-65.896
 21
-31
  0
LINE
  8
0
 10
-65.896
 20
-31
 11
-65.7981
 21
-30.382
  0
LINE
  8
0
 10
-65.7981
 20
-30.382
 11
-65.514
 21
-29.8244
  0
LINE
  8
0
 10
-65.514
 20
-29.8244
 11
-65.0716
 21
-29.382
  0
LINE
  8
0
 10
-65.0716
 20
-29.382
 11
-64.514
 21
-29.0979
  0
LINE
  8
0
 10
-64.514
 20
-29.0979
 11
-63.896
 21
-29
  0
LINE
  8
0
 10
-63.896
 20
-29
 11
-63.278
 21
-29.0979
  0
LINE
  8
0
 10
-63.278
 20
-29.0979
 11
-62.7204
 21
-29.382
  0
LINE
  8
0
 10
-62.7204
 20
-29.382
 11
-62.278
 21
-29.8244
  0
LINE
  8
0
 10
-62.278
 20
-29.8244
 11
-61.9939
 21
-30.382
  0
LINE
  8
0
 10
-61.9939
 20
-30.382
 11
-61.896
 21
-31
  0
LINE
  8
0
 10
-61.896
 20
-31
 11
-61.9939
 21
-31.618
  0
LINE
  8
0
 10
-61.9939
 20
-31.618
 11
-62.278
 21
-32.1756
  0
LINE
  8
0
 10
-62.278
 20
-32.1756
 11
-62.7204
 21
-32.618
  0
LINE
  8
0
 10
-62.7204
 20
-32.618
 11
-63.278
 21
-32.9021
  0
LINE
  8
0
 10
-63.278
 20
-32.9021
 11
-63.896
 21
-33
  0
LINE
  8
0
 10
-63.896
 20
-33
 11
-64.514
 21
-32.9021
  0
LINE
  8
0
 10
545.486
 20
-32.9021
 11
544.928
 21
-32.618
  0
LINE
  8
0
 10
544.928
 20
-32.618
 11
544.486
 21
-32.1756
  0
LINE
  8
0
 10
544.486
 20
-32.1756
 11
544.202
 21
-31.618
  0
LINE
  8
0
 10
544.202
 20
-31.618
 11
544.104
 21
-31
  0
LINE
  8
0
 10
544.104
 20
-31
 11
544.202
 21
-30.382
  0
LINE
  8
0
 10
544.202
 20
-30.382
 11
544.486
 21
-29.8244
  0
LINE
  8
0
 10
544.486
 20
-29.8244
 11
544.928
 21
-29.382
  0
LINE
  8
0
 10
544.928
 20
-29.382
 11
545.486
 21
-29.0979
  0
LINE
  8
0
 10
545.486
 20
-29.0979
 11
546.104
 21
-29
  0
LINE
  8
0
 10
546.104
 20
-29
 11
546.722
 21
-29.0979
  0
LINE
  8
0
 10
546.722
 20
-29.0979
 11
547.28
 21
-29.382
  0
LINE
  8
0
 10
547.28
 20
-29.382
 11
547.722
 21
-29.8244
  0
LINE
  8
0
 10
547.722
 20
-29.8244
 11
548.006
 21
-30.382
  0
LINE
  8
0
 10
548.006
 20
-30.382
 11
548.104
 21
-31
  0
LINE
  8
0
 10
548.104
 20
-31
 11
548.006
 21
-31.618
  0
LINE
  8
0
 10
548.006
 20
-31.618
 11
547.722
 21
-32.1756
  0
LINE
  8
0
 10
547.722
 20
-32.1756
 11
547.28
 21
-32.618
  0
LINE
  8
0
 10
547.28
 20
-32.618
 11
546.722
 21
-32.9021
  0
LINE
  8
0
 10
546.722
 20
-32.9021
 11
546.104
 21
-33
  0
LINE
  8
0
 10
546.104
 20
-33
 11
545.486
 21
-32.9021
  0
LINE
  8
0
 10
-64.514
 20
-307.902
 11
-65.0716
 21
-307.618
  0
LINE
  8
0
 10
-65.0716
 20
-307.618
 11
-65.514
 21
-307.176
  0
LINE
  8
0
 10
-65.514
 20
-307.176
 11
-65.7981
 21
-306.618
  0
LINE
  8
0
 10
-65.7981
 20
-306.618
 11
-65.896
 21
-306
  0
LINE
  8
0
 10
-65.896
 20
-306
 11
-65.7981
 21
-305.382
  0
LINE
  8
0
 10
-65.7981
 20
-305.382
 11
-65.514
 21
-304.824
  0
LINE
  8
0
 10
-65.514
 20
-304.824
 11
-65.0716
 21
-304.382
  0
LINE
  8
0
 10
-65.0716
 20
-304.382
 11
-64.514
 21
-304.098
  0
LINE
  8
0
 10
-64.514
 20
-304.098
 11
-63.896
 21
-304
  0
LINE
  8
0
 10
-63.896
 20
-304
 11
-63.278
 21
-304.098
  0
LINE
  8
0
 10
-63.278
 20
-304.098
 11
-62.7204
 21
-304.382
  0
LINE
  8
0
 10
-62.7204
 20
-304.382
 11
-62.278
 21
-304.824
  0
LINE
  8
0
 10
-62.278
 20
-304.824
 11
-61.9939
 21
-305.382
  0
LINE
  8
0
 10
-61.9939
 20
-305.382
 11
-61.896
 21
-306
  0
LINE
  8
0
 10
-61.896
 20
-306
 11
-61.9939
 21
-306.618
  0
LINE
  8
0
 10
-61.9939
 20
-306.618
 11
-62.278
 21
-307.176
  0
LINE
  8
0
 10
-62.278
 20
-307.176
 11
-62.7204
 21
-307.618
  0
LINE
  8
0
 10
-62.7204
 20
-307.618
 11
-63.278
 21
-307.902
  0
LINE
  8
0
 10
-63.278
 20
-307.902
 11
-63.896
 21
-308
  0
LINE
  8
0
 10
-63.896
 20
-308
 11
-64.514
 21
-307.902
  0
LINE
  8
0
 10
545.486
 20
-307.902
 11
544.928
 21
-307.618
  0
LINE
  8
0
 10
544.928
 20
-307.618
 11
544.486
 21
-307.176
  0
LINE
  8
0
 10
544.486
 20
-307.176
 11
544.202
 21
-306.618
  0
LINE
  8
0
 10
544.202
 20
-306.618
 11
544.104
 21
-306
  0
LINE
  8
0
 10
544.104
 20
-306
 11
544.202
 21
-305.382
  0
LINE
  8
0
 10
544.202
 20
-305.382
 11
544.486
 21
-304.824
  0
LINE
  8
0
 10
544.486
 20
-304.824
 11
544.928
 21
-304.382
  0
LINE
  8
0
 10
544.928
 20
-304.382
 11
545.486
 21
-304.098
  0
LINE
  8
0
 10
545.486
 20
-304.098
 11
546.104
 21
-304
  0
LINE
  8
0
 10
546.104
 20
-304
 11
546.722
 21
-304.098
  0
LINE
  8
0
 10
546.722
 20
-304.098
 11
547.28
 21
-304.382
  0
LINE
  8
0
 10
547.28
 20
-304.382
 11
547.722
 21
-304.824
  0
LINE
  8
0
 10
547.722
 20
-304.824
 11
548.006
 21
-305.382
  0
LINE
  8
0
 10
548.006
 20
-305.382
 11
548.104
 21
-306
  0
LINE
  8
0
 10
548.104
 20
-306
 11
548.006
 21
-306.618
  0
LINE
  8
0
 10
548.006
 20
-306.618
 11
547.722
 21
-307.176
  0
LINE
  8
0
 10
547.722
 20
-307.176
 11
547.28
 21
-307.618
  0
LINE
  8
0
 10
547.28
 20
-307.618
 11
546.722
 21
-307.902
  0
LINE
  8
0
 10
546.722
 20
-307.902
 11
546.104
 21
-308
  0
LINE
  8
0
 10
546.104
 20
-308
 11
545.486
 21
-307.902
  0
LINE
  8
0
 10
-64.514
 20
-607.902
 11
-65.0716
 21
-607.618
  0
LINE
  8
0
 10
-65.0716
 20
-607.618
 11
-65.514
 21
-607.176
  0
LINE
  8
0
 10
-65.514
 20
-607.176
 11
-65.7981
 21
-606.618
  0
LINE
  8
0
 10
-65.7981
 20
-606.618
 11
-65.896
 21
-606
  0
LINE
  8
0
 10
-65.896
 20
-606
 11
-65.7981
 21
-605.382
  0
LINE
  8
0
 10
-65.7981
 20
-605.382
 11
-65.514
 21
-604.824
  0
LINE
  8
0
 10
-65.514
 20
-604.824
 11
-65.0716
 21
-604.382
  0
LINE
  8
0
 10
-65.0716
 20
-604.382
 11
-64.514
 21
-604.098
  0
LINE
  8
0
 10
-64.514
 20
-604.098
 11
-63.896
 21
-604
  0
LINE
  8
0
 10
-63.896
 20
-604
 11
-63.278
 21
-604.098
  0
LINE
  8
0
 10
-63.278
 20
-604.098
 11
-62.7204
 21
-604.382
  0
LINE
  8
0
 10
-62.7204
 20
-604.382
 11
-62.278
 21
-604.824
  0
LINE
  8
0
 10
-62.278
 20
-604.824
 11
-61.9939
 21
-605.382
  0
LINE
  8
0
 10
-61.9939
 20
-605.382
 11
-61.896
 21
-606
  0
LINE
  8
0
 10
-61.896
 20
-606
 11
-61.9939
 21
-606.618
  0
LINE
  8
0
 10
-61.9939
 20
-606.618
 11
-62.278
 21
-607.176
  0
LINE
  8
0
 10
-62.278
 20
-607.176
 11
-62.7204
 21
-607.618
  0
LINE
  8
0
 10
-62.7204
 20
-607.618
 11
-63.278
 21
-607.902
  0
LINE
  8
0
 10
-63.278
 20
-607.902
 11
-63.896
 21
-608
  0
LINE
  8
0
 10
-63.896
 20
-608
 11
-64.514
 21
-607.902
  0
LINE
  8
0
 10
545.486
 20
-607.902
 11
544.928
 21
-607.618
  0
LINE
  8
0
 10
544.928
 20
-607.618
 11
544.486
 21
-607.176
  0
LINE
  8
0
 10
544.486
 20
-607.176
 11
544.202
 21
-606.618
  0
LINE
  8
0
 10
544.202
 20
-606.618
 11
544.104
 21
-606
  0
LINE
  8
0
 10
544.104
 20
-606
 11
544.202
 21
-605.382
  0
LINE
  8
0
 10
544.202
 20
-605.382
 11
544.486
 21
-604.824
  0
LINE
  8
0
 10
544.486
 20
-604.824
 11
544.928
 21
-604.382
  0
LINE
  8
0
 10
544.928
 20
-604.382
 11
545.486
 21
-604.098
  0
LINE
  8
0
 10
545.486
 20
-604.098
 11
546.104
 21
-604
  0
LINE
  8
0
 10
546.104
 20
-604
 11
546.722
 21
-604.098
  0
LINE
  8
0
 10
546.722
 20
-604.098
 11
547.28
 21
-604.382
  0
LINE
  8
0
 10
547.28
 20
-604.382
 11
547.722
 21
-604.824
  0
LINE
  8
0
 10
547.722
 20
-604.824
 11
548.006
 21
-605.382
  0
LINE
  8
0
 10
548.006
 20
-605.382
 11
548.104
 21
-606
  0
LINE
  8
0
 10
548.104
 20
-606
 11
548.006
 21
-606.618
  0
LINE
  8
0
 10
548.006
 20
-606.618
 11
547.722
 21
-607.176
  0
LINE
  8
0
 10
547.722
 20
-607.176
 11
547.28
 21
-607.618
  0
LINE
  8
0
 10
547.28
 20
-607.618
 11
546.722
 21
-607.902
  0
LINE
  8
0
 10
546.722
 20
-607.902
 11
546.104
 21
-608
  0
LINE
  8
0
 10
546.104
 20
-608
 11
545.486
 21
-607.902
  0
LINE
  8
0
 10
500.486
 20
-631.902
 11
499.928
 21
-631.618
  0
LINE
  8
0
 10
499.928
 20
-631.618
 11
499.486
 21
-631.176
  0
LINE
  8
0
 10
499.486
 20
-631.176
 11
499.202
 21
-630.618
  0
LINE
  8
0
 10
499.202
 20
-630.618
 11
499.104
 21
-630
  0
LINE
  8
0
 10
499.104
 20
-630
 11
499.202
 21
-629.382
  0
LINE
  8
0
 10
499.202
 20
-629.382
 11
499.486
 21
-628.824
  0
LINE
  8
0
 10
499.486
 20
-628.824
 11
499.928
 21
-628.382
  0
LINE
  8
0
 10
499.928
 20
-628.382
 11
500.486
 21
-628.098
  0
LINE
  8
0
 10
500.486
 20
-628.098
 11
501.104
 21
-628
  0
LINE
  8
0
 10
501.104
 20
-628
 11
501.722
 21
-628.098
  0
LINE
  8
0
 10
501.722
 20
-628.098
 11
502.28
 21
-628.382
  0
LINE
  8
0
 10
502.28
 20
-628.382
 11
502.722
 21
-628.824
  0
LINE
  8
0
 10
502.722
 20
-628.824
 11
503.006
 21
-629.382
  0
LINE
  8
0
 10
503.006
 20
-629.382
 11
503.104
 21
-630
  0
LINE
  8
0
 10
503.104
 20
-630
 11
503.006
 21
-630.618
  0
LINE
  8
0
 10
503.006
 20
-630.618
 11
502.722
 21
-631.176
  0
LINE
  8
0
 10
502.722
 20
-631.176
 11
502.28
 21
-631.618
  0
LINE
  8
0
 10
502.28
 20
-631.618
 11
501.722
 21
-631.902
  0
LINE
  8
0
 10
501.722
 20
-631.902
 11
501.104
 21
-632
  0
LINE
  8
0
 10
501.104
 20
-632
 11
500.486
 21
-631.902
  0
LINE
  8
0
 10
240.486
 20
-631.902
 11
239.928
 21
-631.618
  0
LINE
  8
0
 10
239.928
 20
-631.618
 11
239.486
 21
-631.176
  0
LINE
  8
0
 10
239.486
 20
-631.176
 11
239.202
 21
-630.618
  0
LINE
  8
0
 10
239.202
 20
-630.618
 11
239.104
 21
-630
  0
LINE
  8
0
 10
239.104
 20
-630
 11
239.202
 21
-629.382
  0
LINE
  8
0
 10
239.202
 20
-629.382
 11
239.486
 21
-628.824
  0
LINE
  8
0
 10
239.486
 20
-628.824
 11
239.928
 21
-628.382
  0
LINE
  8
0
 10
239.928
 20
-628.382
 11
240.486
 21
-628.098
  0
LINE
  8
0
 10
240.486
 20
-628.098
 11
241.104
 21
-628
  0
LINE
  8
0
 10
241.104
 20
-628
 11
241.722
 21
-628.098
  0
LINE
  8
0
 10
241.722
 20
-628.098
 11
242.28
 21
-628.382
  0
LINE
  8
0
 10
242.28
 20
-628.382
 11
242.722
 21
-628.824
  0
LINE
  8
0
 10
242.722
 20
-628.824
 11
243.006
 21
-629.382
  0
LINE
  8
0
 10
243.006
 20
-629.382
 11
243.104
 21
-630
  0
LINE
  8
0
 10
243.104
 20
-630
 11
243.006
 21
-630.618
  0
LINE
  8
0
 10
243.006
 20
-630.618
 11
242.722
 21
-631.176
  0
LINE
  8
0
 10
242.722
 20
-631.176
 11
242.28
 21
-631.618
  0
LINE
  8
0
 10
242.28
 20
-631.618
 11
241.722
 21
-631.902
  0
LINE
  8
0
 10
241.722
 20
-631.902
 11
241.104
 21
-632
  0
LINE
  8
0
 10
241.104
 20
-632
 11
240.486
 21
-631.902
  0
LINE
  8
0
 10
-29.514
 20
-631.902
 11
-30.0716
 21
-631.618
  0
LINE
  8
0
 10
-30.0716
 20
-631.618
 11
-30.514
 21
-631.176
  0
LINE
  8
0
 10
-30.514
 20
-631.176
 11
-30.7981
 21
-630.618
  0
LINE
  8
0
 10
-30.7981
 20
-630.618
 11
-30.896
 21
-630
  0
LINE
  8
0
 10
-30.896
 20
-630
 11
-30.7981
 21
-629.382
  0
LINE
  8
0
 10
-30.7981
 20
-629.382
 11
-30.514
 21
-628.824
  0
LINE
  8
0
 10
-30.514
 20
-628.824
 11
-30.0716
 21
-628.382
  0
LINE
  8
0
 10
-30.0716
 20
-628.382
 11
-29.514
 21
-628.098
  0
LINE
  8
0
 10
-29.514
 20
-628.098
 11
-28.896
 21
-628
  0
LINE
  8
0
 10
-28.896
 20
-628
 11
-28.278
 21
-628.098
  0
LINE
  8
0
 10
-28.278
 20
-628.098
 11
-27.7204
 21
-628.382
  0
LINE
  8
0
 10
-27.7204
 20
-628.382
 11
-27.278
 21
-628.824
  0
LINE
  8
0
 10
-27.278
 20
-628.824
 11
-26.9939
 21
-629.382
  0
LINE
  8
0
 10
-26.9939
 20
-629.382
 11
-26.896
 21
-630
  0
LINE
  8
0
 10
-26.896
 20
-630
 11
-26.9939
 21
-630.618
  0
LINE
  8
0
 10
-26.9939
 20
-630.618
 11
-27.278
 21
-631.176
  0
LINE
  8
0
 10
-27.278
 20
-631.176
 11
-27.7204
 21
-631.618
  0
LINE
  8
0
 10
-27.7204
 20
-631.618
 11
-28.278
 21
-631.902
  0
LINE
  8
0
 10
-28.278
 20
-631.902
 11
-28.896
 21
-632
  0
LINE
  8
0
 10
-28.896
 20
-632
 11
-29.514
 21
-631.902
  0
ENDSEC
  0
SECTION
  2
OBJECTS
  0
DICTIONARY
  0
ENDSEC
  0
EOF
