  0
SECTION
  2
BLOCKS
  0
ENDSEC
  0
SECTION
  2
ENTITIES
  0
LINE
  8
0
 10
554.104
 20
415.272
 11
-72.896
 21
415.272
  0
LINE
  8
0
 10
-72.896
 20
415.272
 11
-72.896
 21
-131.728
  0
LINE
  8
0
 10
-72.896
 20
-131.728
 11
554.104
 21
-131.728
  0
LINE
  8
0
 10
554.104
 20
-131.728
 11
554.104
 21
415.272
  0
LINE
  8
0
 10
-64.1051
 20
402.983
 11
-64.514
 21
403.07
  0
LINE
  8
0
 10
-64.514
 20
403.07
 11
-64.896
 21
403.24
  0
LINE
  8
0
 10
-64.896
 20
403.24
 11
-65.2343
 21
403.486
  0
LINE
  8
0
 10
-65.2343
 20
403.486
 11
-65.514
 21
403.796
  0
LINE
  8
0
 10
-65.514
 20
403.796
 11
-65.7231
 21
404.159
  0
LINE
  8
0
 10
-65.7231
 20
404.159
 11
-65.8523
 21
404.556
  0
LINE
  8
0
 10
-65.8523
 20
404.556
 11
-65.896
 21
404.972
  0
LINE
  8
0
 10
-65.896
 20
404.972
 11
-65.8523
 21
405.388
  0
LINE
  8
0
 10
-65.8523
 20
405.388
 11
-65.7231
 21
405.785
  0
LINE
  8
0
 10
-65.7231
 20
405.785
 11
-65.514
 21
406.148
  0
LINE
  8
0
 10
-65.514
 20
406.148
 11
-65.2343
 21
406.458
  0
LINE
  8
0
 10
-65.2343
 20
406.458
 11
-64.896
 21
406.704
  0
LINE
  8
0
 10
-64.896
 20
406.704
 11
-64.514
 21
406.874
  0
LINE
  8
0
 10
-64.514
 20
406.874
 11
-64.1051
 21
406.961
  0
LINE
  8
0
 10
-64.1051
 20
406.961
 11
-63.6869
 21
406.961
  0
LINE
  8
0
 10
-63.6869
 20
406.961
 11
-63.278
 21
406.874
  0
LINE
  8
0
 10
-63.278
 20
406.874
 11
-62.896
 21
406.704
  0
LINE
  8
0
 10
-62.896
 20
406.704
 11
-62.5577
 21
406.458
  0
LINE
  8
0
 10
-62.5577
 20
406.458
 11
-62.278
 21
406.148
  0
LINE
  8
0
 10
-62.278
 20
406.148
 11
-62.0689
 21
405.785
  0
LINE
  8
0
 10
-62.0689
 20
405.785
 11
-61.9397
 21
405.388
  0
LINE
  8
0
 10
-61.9397
 20
405.388
 11
-61.896
 21
404.972
  0
LINE
  8
0
 10
-61.896
 20
404.972
 11
-61.9397
 21
404.556
  0
LINE
  8
0
 10
-61.9397
 20
404.556
 11
-62.0689
 21
404.159
  0
LINE
  8
0
 10
-62.0689
 20
404.159
 11
-62.278
 21
403.796
  0
LINE
  8
0
 10
-62.278
 20
403.796
 11
-62.5577
 21
403.486
  0
LINE
  8
0
 10
-62.5577
 20
403.486
 11
-62.896
 21
403.24
  0
LINE
  8
0
 10
-62.896
 20
403.24
 11
-63.278
 21
403.07
  0
LINE
  8
0
 10
-63.278
 20
403.07
 11
-63.6869
 21
402.983
  0
LINE
  8
0
 10
-63.6869
 20
402.983
 11
-64.1051
 21
402.983
  0
LINE
  8
0
 10
385.895
 20
402.983
 11
385.486
 21
403.07
  0
LINE
  8
0
 10
385.486
 20
403.07
 11
385.104
 21
403.24
  0
LINE
  8
0
 10
385.104
 20
403.24
 11
384.766
 21
403.486
  0
LINE
  8
0
 10
384.766
 20
403.486
 11
384.486
 21
403.796
  0
LINE
  8
0
 10
384.486
 20
403.796
 11
384.277
 21
404.159
  0
LINE
  8
0
 10
384.277
 20
404.159
 11
384.148
 21
404.556
  0
LINE
  8
0
 10
384.148
 20
404.556
 11
384.104
 21
404.972
  0
LINE
  8
0
 10
384.104
 20
404.972
 11
384.148
 21
405.388
  0
LINE
  8
0
 10
384.148
 20
405.388
 11
384.277
 21
405.785
  0
LINE
  8
0
 10
384.277
 20
405.785
 11
384.486
 21
406.148
  0
LINE
  8
0
 10
384.486
 20
406.148
 11
384.766
 21
406.458
  0
LINE
  8
0
 10
384.766
 20
406.458
 11
385.104
 21
406.704
  0
LINE
  8
0
 10
385.104
 20
406.704
 11
385.486
 21
406.874
  0
LINE
  8
0
 10
385.486
 20
406.874
 11
385.895
 21
406.961
  0
LINE
  8
0
 10
385.895
 20
406.961
 11
386.313
 21
406.961
  0
LINE
  8
0
 10
386.313
 20
406.961
 11
386.722
 21
406.874
  0
LINE
  8
0
 10
386.722
 20
406.874
 11
387.104
 21
406.704
  0
LINE
  8
0
 10
387.104
 20
406.704
 11
387.442
 21
406.458
  0
LINE
  8
0
 10
387.442
 20
406.458
 11
387.722
 21
406.148
  0
LINE
  8
0
 10
387.722
 20
406.148
 11
387.931
 21
405.785
  0
LINE
  8
0
 10
387.931
 20
405.785
 11
388.06
 21
405.388
  0
LINE
  8
0
 10
388.06
 20
405.388
 11
388.104
 21
404.972
  0
LINE
  8
0
 10
388.104
 20
404.972
 11
388.06
 21
404.556
  0
LINE
  8
0
 10
388.06
 20
404.556
 11
387.931
 21
404.159
  0
LINE
  8
0
 10
387.931
 20
404.159
 11
387.722
 21
403.796
  0
LINE
  8
0
 10
387.722
 20
403.796
 11
387.442
 21
403.486
  0
LINE
  8
0
 10
387.442
 20
403.486
 11
387.104
 21
403.24
  0
LINE
  8
0
 10
387.104
 20
403.24
 11
386.722
 21
403.07
  0
LINE
  8
0
 10
386.722
 20
403.07
 11
386.313
 21
402.983
  0
LINE
  8
0
 10
386.313
 20
402.983
 11
385.895
 21
402.983
  0
LINE
  8
0
 10
135.895
 20
402.983
 11
135.486
 21
403.07
  0
LINE
  8
0
 10
135.486
 20
403.07
 11
135.104
 21
403.24
  0
LINE
  8
0
 10
135.104
 20
403.24
 11
134.766
 21
403.486
  0
LINE
  8
0
 10
134.766
 20
403.486
 11
134.486
 21
403.796
  0
LINE
  8
0
 10
134.486
 20
403.796
 11
134.277
 21
404.159
  0
LINE
  8
0
 10
134.277
 20
404.159
 11
134.148
 21
404.556
  0
LINE
  8
0
 10
134.148
 20
404.556
 11
134.104
 21
404.972
  0
LINE
  8
0
 10
134.104
 20
404.972
 11
134.148
 21
405.388
  0
LINE
  8
0
 10
134.148
 20
405.388
 11
134.277
 21
405.785
  0
LINE
  8
0
 10
134.277
 20
405.785
 11
134.486
 21
406.148
  0
LINE
  8
0
 10
134.486
 20
406.148
 11
134.766
 21
406.458
  0
LINE
  8
0
 10
134.766
 20
406.458
 11
135.104
 21
406.704
  0
LINE
  8
0
 10
135.104
 20
406.704
 11
135.486
 21
406.874
  0
LINE
  8
0
 10
135.486
 20
406.874
 11
135.895
 21
406.961
  0
LINE
  8
0
 10
135.895
 20
406.961
 11
136.313
 21
406.961
  0
LINE
  8
0
 10
136.313
 20
406.961
 11
136.722
 21
406.874
  0
LINE
  8
0
 10
136.722
 20
406.874
 11
137.104
 21
406.704
  0
LINE
  8
0
 10
137.104
 20
406.704
 11
137.442
 21
406.458
  0
LINE
  8
0
 10
137.442
 20
406.458
 11
137.722
 21
406.148
  0
LINE
  8
0
 10
137.722
 20
406.148
 11
137.931
 21
405.785
  0
LINE
  8
0
 10
137.931
 20
405.785
 11
138.06
 21
405.388
  0
LINE
  8
0
 10
138.06
 20
405.388
 11
138.104
 21
404.972
  0
LINE
  8
0
 10
138.104
 20
404.972
 11
138.06
 21
404.556
  0
LINE
  8
0
 10
138.06
 20
404.556
 11
137.931
 21
404.159
  0
LINE
  8
0
 10
137.931
 20
404.159
 11
137.722
 21
403.796
  0
LINE
  8
0
 10
137.722
 20
403.796
 11
137.442
 21
403.486
  0
LINE
  8
0
 10
137.442
 20
403.486
 11
137.104
 21
403.24
  0
LINE
  8
0
 10
137.104
 20
403.24
 11
136.722
 21
403.07
  0
LINE
  8
0
 10
136.722
 20
403.07
 11
136.313
 21
402.983
  0
LINE
  8
0
 10
136.313
 20
402.983
 11
135.895
 21
402.983
  0
LINE
  8
0
 10
545.895
 20
402.983
 11
545.486
 21
403.07
  0
LINE
  8
0
 10
545.486
 20
403.07
 11
545.104
 21
403.24
  0
LINE
  8
0
 10
545.104
 20
403.24
 11
544.766
 21
403.486
  0
LINE
  8
0
 10
544.766
 20
403.486
 11
544.486
 21
403.796
  0
LINE
  8
0
 10
544.486
 20
403.796
 11
544.277
 21
404.159
  0
LINE
  8
0
 10
544.277
 20
404.159
 11
544.148
 21
404.556
  0
LINE
  8
0
 10
544.148
 20
404.556
 11
544.104
 21
404.972
  0
LINE
  8
0
 10
544.104
 20
404.972
 11
544.148
 21
405.388
  0
LINE
  8
0
 10
544.148
 20
405.388
 11
544.277
 21
405.785
  0
LINE
  8
0
 10
544.277
 20
405.785
 11
544.486
 21
406.148
  0
LINE
  8
0
 10
544.486
 20
406.148
 11
544.766
 21
406.458
  0
LINE
  8
0
 10
544.766
 20
406.458
 11
545.104
 21
406.704
  0
LINE
  8
0
 10
545.104
 20
406.704
 11
545.486
 21
406.874
  0
LINE
  8
0
 10
545.486
 20
406.874
 11
545.895
 21
406.961
  0
LINE
  8
0
 10
545.895
 20
406.961
 11
546.313
 21
406.961
  0
LINE
  8
0
 10
546.313
 20
406.961
 11
546.722
 21
406.874
  0
LINE
  8
0
 10
546.722
 20
406.874
 11
547.104
 21
406.704
  0
LINE
  8
0
 10
547.104
 20
406.704
 11
547.442
 21
406.458
  0
LINE
  8
0
 10
547.442
 20
406.458
 11
547.722
 21
406.148
  0
LINE
  8
0
 10
547.722
 20
406.148
 11
547.931
 21
405.785
  0
LINE
  8
0
 10
547.931
 20
405.785
 11
548.06
 21
405.388
  0
LINE
  8
0
 10
548.06
 20
405.388
 11
548.104
 21
404.972
  0
LINE
  8
0
 10
548.104
 20
404.972
 11
548.06
 21
404.556
  0
LINE
  8
0
 10
548.06
 20
404.556
 11
547.931
 21
404.159
  0
LINE
  8
0
 10
547.931
 20
404.159
 11
547.722
 21
403.796
  0
LINE
  8
0
 10
547.722
 20
403.796
 11
547.442
 21
403.486
  0
LINE
  8
0
 10
547.442
 20
403.486
 11
547.104
 21
403.24
  0
LINE
  8
0
 10
547.104
 20
403.24
 11
546.722
 21
403.07
  0
LINE
  8
0
 10
546.722
 20
403.07
 11
546.313
 21
402.983
  0
LINE
  8
0
 10
546.313
 20
402.983
 11
545.895
 21
402.983
  0
LINE
  8
0
 10
545.895
 20
252.983
 11
545.486
 21
253.07
  0
LINE
  8
0
 10
545.486
 20
253.07
 11
545.104
 21
253.24
  0
LINE
  8
0
 10
545.104
 20
253.24
 11
544.766
 21
253.486
  0
LINE
  8
0
 10
544.766
 20
253.486
 11
544.486
 21
253.796
  0
LINE
  8
0
 10
544.486
 20
253.796
 11
544.277
 21
254.159
  0
LINE
  8
0
 10
544.277
 20
254.159
 11
544.148
 21
254.556
  0
LINE
  8
0
 10
544.148
 20
254.556
 11
544.104
 21
254.972
  0
LINE
  8
0
 10
544.104
 20
254.972
 11
544.148
 21
255.388
  0
LINE
  8
0
 10
544.148
 20
255.388
 11
544.277
 21
255.785
  0
LINE
  8
0
 10
544.277
 20
255.785
 11
544.486
 21
256.148
  0
LINE
  8
0
 10
544.486
 20
256.148
 11
544.766
 21
256.458
  0
LINE
  8
0
 10
544.766
 20
256.458
 11
545.104
 21
256.704
  0
LINE
  8
0
 10
545.104
 20
256.704
 11
545.486
 21
256.874
  0
LINE
  8
0
 10
545.486
 20
256.874
 11
545.895
 21
256.961
  0
LINE
  8
0
 10
545.895
 20
256.961
 11
546.313
 21
256.961
  0
LINE
  8
0
 10
546.313
 20
256.961
 11
546.722
 21
256.874
  0
LINE
  8
0
 10
546.722
 20
256.874
 11
547.104
 21
256.704
  0
LINE
  8
0
 10
547.104
 20
256.704
 11
547.442
 21
256.458
  0
LINE
  8
0
 10
547.442
 20
256.458
 11
547.722
 21
256.148
  0
LINE
  8
0
 10
547.722
 20
256.148
 11
547.931
 21
255.785
  0
LINE
  8
0
 10
547.931
 20
255.785
 11
548.06
 21
255.388
  0
LINE
  8
0
 10
548.06
 20
255.388
 11
548.104
 21
254.972
  0
LINE
  8
0
 10
548.104
 20
254.972
 11
548.06
 21
254.556
  0
LINE
  8
0
 10
548.06
 20
254.556
 11
547.931
 21
254.159
  0
LINE
  8
0
 10
547.931
 20
254.159
 11
547.722
 21
253.796
  0
LINE
  8
0
 10
547.722
 20
253.796
 11
547.442
 21
253.486
  0
LINE
  8
0
 10
547.442
 20
253.486
 11
547.104
 21
253.24
  0
LINE
  8
0
 10
547.104
 20
253.24
 11
546.722
 21
253.07
  0
LINE
  8
0
 10
546.722
 20
253.07
 11
546.313
 21
252.983
  0
LINE
  8
0
 10
546.313
 20
252.983
 11
545.895
 21
252.983
  0
LINE
  8
0
 10
-64.1051
 20
252.983
 11
-64.514
 21
253.07
  0
LINE
  8
0
 10
-64.514
 20
253.07
 11
-64.896
 21
253.24
  0
LINE
  8
0
 10
-64.896
 20
253.24
 11
-65.2343
 21
253.486
  0
LINE
  8
0
 10
-65.2343
 20
253.486
 11
-65.514
 21
253.796
  0
LINE
  8
0
 10
-65.514
 20
253.796
 11
-65.7231
 21
254.159
  0
LINE
  8
0
 10
-65.7231
 20
254.159
 11
-65.8523
 21
254.556
  0
LINE
  8
0
 10
-65.8523
 20
254.556
 11
-65.896
 21
254.972
  0
LINE
  8
0
 10
-65.896
 20
254.972
 11
-65.8523
 21
255.388
  0
LINE
  8
0
 10
-65.8523
 20
255.388
 11
-65.7231
 21
255.785
  0
LINE
  8
0
 10
-65.7231
 20
255.785
 11
-65.514
 21
256.148
  0
LINE
  8
0
 10
-65.514
 20
256.148
 11
-65.2343
 21
256.458
  0
LINE
  8
0
 10
-65.2343
 20
256.458
 11
-64.896
 21
256.704
  0
LINE
  8
0
 10
-64.896
 20
256.704
 11
-64.514
 21
256.874
  0
LINE
  8
0
 10
-64.514
 20
256.874
 11
-64.1051
 21
256.961
  0
LINE
  8
0
 10
-64.1051
 20
256.961
 11
-63.6869
 21
256.961
  0
LINE
  8
0
 10
-63.6869
 20
256.961
 11
-63.278
 21
256.874
  0
LINE
  8
0
 10
-63.278
 20
256.874
 11
-62.896
 21
256.704
  0
LINE
  8
0
 10
-62.896
 20
256.704
 11
-62.5577
 21
256.458
  0
LINE
  8
0
 10
-62.5577
 20
256.458
 11
-62.278
 21
256.148
  0
LINE
  8
0
 10
-62.278
 20
256.148
 11
-62.0689
 21
255.785
  0
LINE
  8
0
 10
-62.0689
 20
255.785
 11
-61.9397
 21
255.388
  0
LINE
  8
0
 10
-61.9397
 20
255.388
 11
-61.896
 21
254.972
  0
LINE
  8
0
 10
-61.896
 20
254.972
 11
-61.9397
 21
254.556
  0
LINE
  8
0
 10
-61.9397
 20
254.556
 11
-62.0689
 21
254.159
  0
LINE
  8
0
 10
-62.0689
 20
254.159
 11
-62.278
 21
253.796
  0
LINE
  8
0
 10
-62.278
 20
253.796
 11
-62.5577
 21
253.486
  0
LINE
  8
0
 10
-62.5577
 20
253.486
 11
-62.896
 21
253.24
  0
LINE
  8
0
 10
-62.896
 20
253.24
 11
-63.278
 21
253.07
  0
LINE
  8
0
 10
-63.278
 20
253.07
 11
-63.6869
 21
252.983
  0
LINE
  8
0
 10
-63.6869
 20
252.983
 11
-64.1051
 21
252.983
  0
LINE
  8
0
 10
-64.1051
 20
52.983
 11
-64.514
 21
53.0699
  0
LINE
  8
0
 10
-64.514
 20
53.0699
 11
-64.896
 21
53.2399
  0
LINE
  8
0
 10
-64.896
 20
53.2399
 11
-65.2343
 21
53.4857
  0
LINE
  8
0
 10
-65.2343
 20
53.4857
 11
-65.514
 21
53.7964
  0
LINE
  8
0
 10
-65.514
 20
53.7964
 11
-65.7231
 21
54.1585
  0
LINE
  8
0
 10
-65.7231
 20
54.1585
 11
-65.8523
 21
54.5562
  0
LINE
  8
0
 10
-65.8523
 20
54.5562
 11
-65.896
 21
54.972
  0
LINE
  8
0
 10
-65.896
 20
54.972
 11
-65.8523
 21
55.3878
  0
LINE
  8
0
 10
-65.8523
 20
55.3878
 11
-65.7231
 21
55.7855
  0
LINE
  8
0
 10
-65.7231
 20
55.7855
 11
-65.514
 21
56.1476
  0
LINE
  8
0
 10
-65.514
 20
56.1476
 11
-65.2343
 21
56.4583
  0
LINE
  8
0
 10
-65.2343
 20
56.4583
 11
-64.896
 21
56.704
  0
LINE
  8
0
 10
-64.896
 20
56.704
 11
-64.514
 21
56.8741
  0
LINE
  8
0
 10
-64.514
 20
56.8741
 11
-64.1051
 21
56.961
  0
LINE
  8
0
 10
-64.1051
 20
56.961
 11
-63.6869
 21
56.961
  0
LINE
  8
0
 10
-63.6869
 20
56.961
 11
-63.278
 21
56.8741
  0
LINE
  8
0
 10
-63.278
 20
56.8741
 11
-62.896
 21
56.704
  0
LINE
  8
0
 10
-62.896
 20
56.704
 11
-62.5577
 21
56.4583
  0
LINE
  8
0
 10
-62.5577
 20
56.4583
 11
-62.278
 21
56.1476
  0
LINE
  8
0
 10
-62.278
 20
56.1476
 11
-62.0689
 21
55.7855
  0
LINE
  8
0
 10
-62.0689
 20
55.7855
 11
-61.9397
 21
55.3878
  0
LINE
  8
0
 10
-61.9397
 20
55.3878
 11
-61.896
 21
54.972
  0
LINE
  8
0
 10
-61.896
 20
54.972
 11
-61.9397
 21
54.5562
  0
LINE
  8
0
 10
-61.9397
 20
54.5562
 11
-62.0689
 21
54.1585
  0
LINE
  8
0
 10
-62.0689
 20
54.1585
 11
-62.278
 21
53.7964
  0
LINE
  8
0
 10
-62.278
 20
53.7964
 11
-62.5577
 21
53.4857
  0
LINE
  8
0
 10
-62.5577
 20
53.4857
 11
-62.896
 21
53.2399
  0
LINE
  8
0
 10
-62.896
 20
53.2399
 11
-63.278
 21
53.0699
  0
LINE
  8
0
 10
-63.278
 20
53.0699
 11
-63.6869
 21
52.983
  0
LINE
  8
0
 10
-63.6869
 20
52.983
 11
-64.1051
 21
52.983
  0
LINE
  8
0
 10
545.895
 20
52.983
 11
545.486
 21
53.0699
  0
LINE
  8
0
 10
545.486
 20
53.0699
 11
545.104
 21
53.2399
  0
LINE
  8
0
 10
545.104
 20
53.2399
 11
544.766
 21
53.4857
  0
LINE
  8
0
 10
544.766
 20
53.4857
 11
544.486
 21
53.7964
  0
LINE
  8
0
 10
544.486
 20
53.7964
 11
544.277
 21
54.1585
  0
LINE
  8
0
 10
544.277
 20
54.1585
 11
544.148
 21
54.5562
  0
LINE
  8
0
 10
544.148
 20
54.5562
 11
544.104
 21
54.972
  0
LINE
  8
0
 10
544.104
 20
54.972
 11
544.148
 21
55.3878
  0
LINE
  8
0
 10
544.148
 20
55.3878
 11
544.277
 21
55.7855
  0
LINE
  8
0
 10
544.277
 20
55.7855
 11
544.486
 21
56.1476
  0
LINE
  8
0
 10
544.486
 20
56.1476
 11
544.766
 21
56.4583
  0
LINE
  8
0
 10
544.766
 20
56.4583
 11
545.104
 21
56.704
  0
LINE
  8
0
 10
545.104
 20
56.704
 11
545.486
 21
56.8741
  0
LINE
  8
0
 10
545.486
 20
56.8741
 11
545.895
 21
56.961
  0
LINE
  8
0
 10
545.895
 20
56.961
 11
546.313
 21
56.961
  0
LINE
  8
0
 10
546.313
 20
56.961
 11
546.722
 21
56.8741
  0
LINE
  8
0
 10
546.722
 20
56.8741
 11
547.104
 21
56.704
  0
LINE
  8
0
 10
547.104
 20
56.704
 11
547.442
 21
56.4583
  0
LINE
  8
0
 10
547.442
 20
56.4583
 11
547.722
 21
56.1476
  0
LINE
  8
0
 10
547.722
 20
56.1476
 11
547.931
 21
55.7855
  0
LINE
  8
0
 10
547.931
 20
55.7855
 11
548.06
 21
55.3878
  0
LINE
  8
0
 10
548.06
 20
55.3878
 11
548.104
 21
54.972
  0
LINE
  8
0
 10
548.104
 20
54.972
 11
548.06
 21
54.5562
  0
LINE
  8
0
 10
548.06
 20
54.5562
 11
547.931
 21
54.1585
  0
LINE
  8
0
 10
547.931
 20
54.1585
 11
547.722
 21
53.7964
  0
LINE
  8
0
 10
547.722
 20
53.7964
 11
547.442
 21
53.4857
  0
LINE
  8
0
 10
547.442
 20
53.4857
 11
547.104
 21
53.2399
  0
LINE
  8
0
 10
547.104
 20
53.2399
 11
546.722
 21
53.0699
  0
LINE
  8
0
 10
546.722
 20
53.0699
 11
546.313
 21
52.983
  0
LINE
  8
0
 10
546.313
 20
52.983
 11
545.895
 21
52.983
  0
LINE
  8
0
 10
385.895
 20
-127.017
 11
385.486
 21
-126.93
  0
LINE
  8
0
 10
385.486
 20
-126.93
 11
385.104
 21
-126.76
  0
LINE
  8
0
 10
385.104
 20
-126.76
 11
384.766
 21
-126.514
  0
LINE
  8
0
 10
384.766
 20
-126.514
 11
384.486
 21
-126.204
  0
LINE
  8
0
 10
384.486
 20
-126.204
 11
384.277
 21
-125.841
  0
LINE
  8
0
 10
384.277
 20
-125.841
 11
384.148
 21
-125.444
  0
LINE
  8
0
 10
384.148
 20
-125.444
 11
384.104
 21
-125.028
  0
LINE
  8
0
 10
384.104
 20
-125.028
 11
384.148
 21
-124.612
  0
LINE
  8
0
 10
384.148
 20
-124.612
 11
384.277
 21
-124.215
  0
LINE
  8
0
 10
384.277
 20
-124.215
 11
384.486
 21
-123.852
  0
LINE
  8
0
 10
384.486
 20
-123.852
 11
384.766
 21
-123.542
  0
LINE
  8
0
 10
384.766
 20
-123.542
 11
385.104
 21
-123.296
  0
LINE
  8
0
 10
385.104
 20
-123.296
 11
385.486
 21
-123.126
  0
LINE
  8
0
 10
385.486
 20
-123.126
 11
385.895
 21
-123.039
  0
LINE
  8
0
 10
385.895
 20
-123.039
 11
386.313
 21
-123.039
  0
LINE
  8
0
 10
386.313
 20
-123.039
 11
386.722
 21
-123.126
  0
LINE
  8
0
 10
386.722
 20
-123.126
 11
387.104
 21
-123.296
  0
LINE
  8
0
 10
387.104
 20
-123.296
 11
387.442
 21
-123.542
  0
LINE
  8
0
 10
387.442
 20
-123.542
 11
387.722
 21
-123.852
  0
LINE
  8
0
 10
387.722
 20
-123.852
 11
387.931
 21
-124.215
  0
LINE
  8
0
 10
387.931
 20
-124.215
 11
388.06
 21
-124.612
  0
LINE
  8
0
 10
388.06
 20
-124.612
 11
388.104
 21
-125.028
  0
LINE
  8
0
 10
388.104
 20
-125.028
 11
388.06
 21
-125.444
  0
LINE
  8
0
 10
388.06
 20
-125.444
 11
387.931
 21
-125.841
  0
LINE
  8
0
 10
387.931
 20
-125.841
 11
387.722
 21
-126.204
  0
LINE
  8
0
 10
387.722
 20
-126.204
 11
387.442
 21
-126.514
  0
LINE
  8
0
 10
387.442
 20
-126.514
 11
387.104
 21
-126.76
  0
LINE
  8
0
 10
387.104
 20
-126.76
 11
386.722
 21
-126.93
  0
LINE
  8
0
 10
386.722
 20
-126.93
 11
386.313
 21
-127.017
  0
LINE
  8
0
 10
386.313
 20
-127.017
 11
385.895
 21
-127.017
  0
LINE
  8
0
 10
-64.1051
 20
-127.017
 11
-64.514
 21
-126.93
  0
LINE
  8
0
 10
-64.514
 20
-126.93
 11
-64.896
 21
-126.76
  0
LINE
  8
0
 10
-64.896
 20
-126.76
 11
-65.2343
 21
-126.514
  0
LINE
  8
0
 10
-65.2343
 20
-126.514
 11
-65.514
 21
-126.204
  0
LINE
  8
0
 10
-65.514
 20
-126.204
 11
-65.7231
 21
-125.841
  0
LINE
  8
0
 10
-65.7231
 20
-125.841
 11
-65.8523
 21
-125.444
  0
LINE
  8
0
 10
-65.8523
 20
-125.444
 11
-65.896
 21
-125.028
  0
LINE
  8
0
 10
-65.896
 20
-125.028
 11
-65.8523
 21
-124.612
  0
LINE
  8
0
 10
-65.8523
 20
-124.612
 11
-65.7231
 21
-124.215
  0
LINE
  8
0
 10
-65.7231
 20
-124.215
 11
-65.514
 21
-123.852
  0
LINE
  8
0
 10
-65.514
 20
-123.852
 11
-65.2343
 21
-123.542
  0
LINE
  8
0
 10
-65.2343
 20
-123.542
 11
-64.896
 21
-123.296
  0
LINE
  8
0
 10
-64.896
 20
-123.296
 11
-64.514
 21
-123.126
  0
LINE
  8
0
 10
-64.514
 20
-123.126
 11
-64.1051
 21
-123.039
  0
LINE
  8
0
 10
-64.1051
 20
-123.039
 11
-63.6869
 21
-123.039
  0
LINE
  8
0
 10
-63.6869
 20
-123.039
 11
-63.278
 21
-123.126
  0
LINE
  8
0
 10
-63.278
 20
-123.126
 11
-62.896
 21
-123.296
  0
LINE
  8
0
 10
-62.896
 20
-123.296
 11
-62.5577
 21
-123.542
  0
LINE
  8
0
 10
-62.5577
 20
-123.542
 11
-62.278
 21
-123.852
  0
LINE
  8
0
 10
-62.278
 20
-123.852
 11
-62.0689
 21
-124.215
  0
LINE
  8
0
 10
-62.0689
 20
-124.215
 11
-61.9397
 21
-124.612
  0
LINE
  8
0
 10
-61.9397
 20
-124.612
 11
-61.896
 21
-125.028
  0
LINE
  8
0
 10
-61.896
 20
-125.028
 11
-61.9397
 21
-125.444
  0
LINE
  8
0
 10
-61.9397
 20
-125.444
 11
-62.0689
 21
-125.841
  0
LINE
  8
0
 10
-62.0689
 20
-125.841
 11
-62.278
 21
-126.204
  0
LINE
  8
0
 10
-62.278
 20
-126.204
 11
-62.5577
 21
-126.514
  0
LINE
  8
0
 10
-62.5577
 20
-126.514
 11
-62.896
 21
-126.76
  0
LINE
  8
0
 10
-62.896
 20
-126.76
 11
-63.278
 21
-126.93
  0
LINE
  8
0
 10
-63.278
 20
-126.93
 11
-63.6869
 21
-127.017
  0
LINE
  8
0
 10
-63.6869
 20
-127.017
 11
-64.1051
 21
-127.017
  0
LINE
  8
0
 10
135.895
 20
-127.017
 11
135.486
 21
-126.93
  0
LINE
  8
0
 10
135.486
 20
-126.93
 11
135.104
 21
-126.76
  0
LINE
  8
0
 10
135.104
 20
-126.76
 11
134.766
 21
-126.514
  0
LINE
  8
0
 10
134.766
 20
-126.514
 11
134.486
 21
-126.204
  0
LINE
  8
0
 10
134.486
 20
-126.204
 11
134.277
 21
-125.841
  0
LINE
  8
0
 10
134.277
 20
-125.841
 11
134.148
 21
-125.444
  0
LINE
  8
0
 10
134.148
 20
-125.444
 11
134.104
 21
-125.028
  0
LINE
  8
0
 10
134.104
 20
-125.028
 11
134.148
 21
-124.612
  0
LINE
  8
0
 10
134.148
 20
-124.612
 11
134.277
 21
-124.215
  0
LINE
  8
0
 10
134.277
 20
-124.215
 11
134.486
 21
-123.852
  0
LINE
  8
0
 10
134.486
 20
-123.852
 11
134.766
 21
-123.542
  0
LINE
  8
0
 10
134.766
 20
-123.542
 11
135.104
 21
-123.296
  0
LINE
  8
0
 10
135.104
 20
-123.296
 11
135.486
 21
-123.126
  0
LINE
  8
0
 10
135.486
 20
-123.126
 11
135.895
 21
-123.039
  0
LINE
  8
0
 10
135.895
 20
-123.039
 11
136.313
 21
-123.039
  0
LINE
  8
0
 10
136.313
 20
-123.039
 11
136.722
 21
-123.126
  0
LINE
  8
0
 10
136.722
 20
-123.126
 11
137.104
 21
-123.296
  0
LINE
  8
0
 10
137.104
 20
-123.296
 11
137.442
 21
-123.542
  0
LINE
  8
0
 10
137.442
 20
-123.542
 11
137.722
 21
-123.852
  0
LINE
  8
0
 10
137.722
 20
-123.852
 11
137.931
 21
-124.215
  0
LINE
  8
0
 10
137.931
 20
-124.215
 11
138.06
 21
-124.612
  0
LINE
  8
0
 10
138.06
 20
-124.612
 11
138.104
 21
-125.028
  0
LINE
  8
0
 10
138.104
 20
-125.028
 11
138.06
 21
-125.444
  0
LINE
  8
0
 10
138.06
 20
-125.444
 11
137.931
 21
-125.841
  0
LINE
  8
0
 10
137.931
 20
-125.841
 11
137.722
 21
-126.204
  0
LINE
  8
0
 10
137.722
 20
-126.204
 11
137.442
 21
-126.514
  0
LINE
  8
0
 10
137.442
 20
-126.514
 11
137.104
 21
-126.76
  0
LINE
  8
0
 10
137.104
 20
-126.76
 11
136.722
 21
-126.93
  0
LINE
  8
0
 10
136.722
 20
-126.93
 11
136.313
 21
-127.017
  0
LINE
  8
0
 10
136.313
 20
-127.017
 11
135.895
 21
-127.017
  0
LINE
  8
0
 10
545.895
 20
-127.017
 11
545.486
 21
-126.93
  0
LINE
  8
0
 10
545.486
 20
-126.93
 11
545.104
 21
-126.76
  0
LINE
  8
0
 10
545.104
 20
-126.76
 11
544.766
 21
-126.514
  0
LINE
  8
0
 10
544.766
 20
-126.514
 11
544.486
 21
-126.204
  0
LINE
  8
0
 10
544.486
 20
-126.204
 11
544.277
 21
-125.841
  0
LINE
  8
0
 10
544.277
 20
-125.841
 11
544.148
 21
-125.444
  0
LINE
  8
0
 10
544.148
 20
-125.444
 11
544.104
 21
-125.028
  0
LINE
  8
0
 10
544.104
 20
-125.028
 11
544.148
 21
-124.612
  0
LINE
  8
0
 10
544.148
 20
-124.612
 11
544.277
 21
-124.215
  0
LINE
  8
0
 10
544.277
 20
-124.215
 11
544.486
 21
-123.852
  0
LINE
  8
0
 10
544.486
 20
-123.852
 11
544.766
 21
-123.542
  0
LINE
  8
0
 10
544.766
 20
-123.542
 11
545.104
 21
-123.296
  0
LINE
  8
0
 10
545.104
 20
-123.296
 11
545.486
 21
-123.126
  0
LINE
  8
0
 10
545.486
 20
-123.126
 11
545.895
 21
-123.039
  0
LINE
  8
0
 10
545.895
 20
-123.039
 11
546.313
 21
-123.039
  0
LINE
  8
0
 10
546.313
 20
-123.039
 11
546.722
 21
-123.126
  0
LINE
  8
0
 10
546.722
 20
-123.126
 11
547.104
 21
-123.296
  0
LINE
  8
0
 10
547.104
 20
-123.296
 11
547.442
 21
-123.542
  0
LINE
  8
0
 10
547.442
 20
-123.542
 11
547.722
 21
-123.852
  0
LINE
  8
0
 10
547.722
 20
-123.852
 11
547.931
 21
-124.215
  0
LINE
  8
0
 10
547.931
 20
-124.215
 11
548.06
 21
-124.612
  0
LINE
  8
0
 10
548.06
 20
-124.612
 11
548.104
 21
-125.028
  0
LINE
  8
0
 10
548.104
 20
-125.028
 11
548.06
 21
-125.444
  0
LINE
  8
0
 10
548.06
 20
-125.444
 11
547.931
 21
-125.841
  0
LINE
  8
0
 10
547.931
 20
-125.841
 11
547.722
 21
-126.204
  0
LINE
  8
0
 10
547.722
 20
-126.204
 11
547.442
 21
-126.514
  0
LINE
  8
0
 10
547.442
 20
-126.514
 11
547.104
 21
-126.76
  0
LINE
  8
0
 10
547.104
 20
-126.76
 11
546.722
 21
-126.93
  0
LINE
  8
0
 10
546.722
 20
-126.93
 11
546.313
 21
-127.017
  0
LINE
  8
0
 10
546.313
 20
-127.017
 11
545.895
 21
-127.017
  0
ENDSEC
  0
SECTION
  2
OBJECTS
  0
DICTIONARY
  0
ENDSEC
  0
EOF
