<?xml version="1.0" encoding="UTF-8" standalone="no"?>
<svg
   xmlns:dc="http://purl.org/dc/elements/1.1/"
   xmlns:cc="http://creativecommons.org/ns#"
   xmlns:rdf="http://www.w3.org/1999/02/22-rdf-syntax-ns#"
   xmlns:svg="http://www.w3.org/2000/svg"
   xmlns="http://www.w3.org/2000/svg"
   xmlns:sodipodi="http://sodipodi.sourceforge.net/DTD/sodipodi-0.dtd"
   xmlns:inkscape="http://www.inkscape.org/namespaces/inkscape"
   width="210mm"
   height="297mm"
   viewBox="0 0 210 297"
   version="1.1"
   id="svg8"
   inkscape:version="1.0.2 (e86c8708, 2021-01-15)"
   sodipodi:docname="drawing.svg">
  <defs
     id="defs2">
    <marker
       id="DistanceX"
       orient="auto"
       refX="0.0"
       refY="0.0"
       style="overflow:visible">
      <path
         d="M 3,-3 L -3,3 M 0,-5 L  0,5"
         style="stroke:#000000; stroke-width:0.5"
         id="path191" />
    </marker>
    <pattern
       id="Hatch"
       patternUnits="userSpaceOnUse"
       width="8"
       height="8"
       x="0"
       y="0">
      <path
         d="M8 4 l-4,4"
         stroke="#000000"
         stroke-width="0.25"
         linecap="square"
         id="path194" />
      <path
         d="M6 2 l-4,4"
         stroke="#000000"
         stroke-width="0.25"
         linecap="square"
         id="path196" />
      <path
         d="M4 0 l-4,4"
         stroke="#000000"
         stroke-width="0.25"
         linecap="square"
         id="path198" />
    </pattern>
    <marker
       id="DistanceX-3"
       orient="auto"
       refX="0.0"
       refY="0.0"
       style="overflow:visible">
      <path
         d="M 3,-3 L -3,3 M 0,-5 L  0,5"
         style="stroke:#000000; stroke-width:0.5"
         id="path286" />
    </marker>
    <pattern
       id="Hatch-9"
       patternUnits="userSpaceOnUse"
       width="8"
       height="8"
       x="0"
       y="0">
      <path
         d="M8 4 l-4,4"
         stroke="#000000"
         stroke-width="0.25"
         linecap="square"
         id="path289" />
      <path
         d="M6 2 l-4,4"
         stroke="#000000"
         stroke-width="0.25"
         linecap="square"
         id="path291" />
      <path
         d="M4 0 l-4,4"
         stroke="#000000"
         stroke-width="0.25"
         linecap="square"
         id="path293" />
    </pattern>
    <marker
       id="DistanceX-7"
       orient="auto"
       refX="0.0"
       refY="0.0"
       style="overflow:visible">
      <path
         d="M 3,-3 L -3,3 M 0,-5 L  0,5"
         style="stroke:#000000; stroke-width:0.5"
         id="path327" />
    </marker>
    <pattern
       id="Hatch-6"
       patternUnits="userSpaceOnUse"
       width="8"
       height="8"
       x="0"
       y="0">
      <path
         d="M8 4 l-4,4"
         stroke="#000000"
         stroke-width="0.25"
         linecap="square"
         id="path330" />
      <path
         d="M6 2 l-4,4"
         stroke="#000000"
         stroke-width="0.25"
         linecap="square"
         id="path332" />
      <path
         d="M4 0 l-4,4"
         stroke="#000000"
         stroke-width="0.25"
         linecap="square"
         id="path334" />
    </pattern>
    <marker
       id="DistanceX-2"
       orient="auto"
       refX="0.0"
       refY="0.0"
       style="overflow:visible">
      <path
         d="M 3,-3 L -3,3 M 0,-5 L  0,5"
         style="stroke:#000000; stroke-width:0.5"
         id="path368" />
    </marker>
    <pattern
       id="Hatch-7"
       patternUnits="userSpaceOnUse"
       width="8"
       height="8"
       x="0"
       y="0">
      <path
         d="M8 4 l-4,4"
         stroke="#000000"
         stroke-width="0.25"
         linecap="square"
         id="path371" />
      <path
         d="M6 2 l-4,4"
         stroke="#000000"
         stroke-width="0.25"
         linecap="square"
         id="path373" />
      <path
         d="M4 0 l-4,4"
         stroke="#000000"
         stroke-width="0.25"
         linecap="square"
         id="path375" />
    </pattern>
    <marker
       id="DistanceX-0"
       orient="auto"
       refX="0.0"
       refY="0.0"
       style="overflow:visible">
      <path
         d="M 3,-3 L -3,3 M 0,-5 L  0,5"
         style="stroke:#000000; stroke-width:0.5"
         id="path409" />
    </marker>
    <pattern
       id="Hatch-3"
       patternUnits="userSpaceOnUse"
       width="8"
       height="8"
       x="0"
       y="0">
      <path
         d="M8 4 l-4,4"
         stroke="#000000"
         stroke-width="0.25"
         linecap="square"
         id="path412" />
      <path
         d="M6 2 l-4,4"
         stroke="#000000"
         stroke-width="0.25"
         linecap="square"
         id="path414" />
      <path
         d="M4 0 l-4,4"
         stroke="#000000"
         stroke-width="0.25"
         linecap="square"
         id="path416" />
    </pattern>
    <marker
       id="DistanceX-9"
       orient="auto"
       refX="0.0"
       refY="0.0"
       style="overflow:visible">
      <path
         d="M 3,-3 L -3,3 M 0,-5 L  0,5"
         style="stroke:#000000; stroke-width:0.5"
         id="path450" />
    </marker>
    <pattern
       id="Hatch-99"
       patternUnits="userSpaceOnUse"
       width="8"
       height="8"
       x="0"
       y="0">
      <path
         d="M8 4 l-4,4"
         stroke="#000000"
         stroke-width="0.25"
         linecap="square"
         id="path453" />
      <path
         d="M6 2 l-4,4"
         stroke="#000000"
         stroke-width="0.25"
         linecap="square"
         id="path455" />
      <path
         d="M4 0 l-4,4"
         stroke="#000000"
         stroke-width="0.25"
         linecap="square"
         id="path457" />
    </pattern>
    <marker
       id="DistanceX-1"
       orient="auto"
       refX="0.0"
       refY="0.0"
       style="overflow:visible">
      <path
         d="M 3,-3 L -3,3 M 0,-5 L  0,5"
         style="stroke:#000000; stroke-width:0.5"
         id="path491" />
    </marker>
    <pattern
       id="Hatch-72"
       patternUnits="userSpaceOnUse"
       width="8"
       height="8"
       x="0"
       y="0">
      <path
         d="M8 4 l-4,4"
         stroke="#000000"
         stroke-width="0.25"
         linecap="square"
         id="path494" />
      <path
         d="M6 2 l-4,4"
         stroke="#000000"
         stroke-width="0.25"
         linecap="square"
         id="path496" />
      <path
         d="M4 0 l-4,4"
         stroke="#000000"
         stroke-width="0.25"
         linecap="square"
         id="path498" />
    </pattern>
    <marker
       id="DistanceX-36"
       orient="auto"
       refX="0.0"
       refY="0.0"
       style="overflow:visible">
      <path
         d="M 3,-3 L -3,3 M 0,-5 L  0,5"
         style="stroke:#000000; stroke-width:0.5"
         id="path532" />
    </marker>
    <pattern
       id="Hatch-5"
       patternUnits="userSpaceOnUse"
       width="8"
       height="8"
       x="0"
       y="0">
      <path
         d="M8 4 l-4,4"
         stroke="#000000"
         stroke-width="0.25"
         linecap="square"
         id="path535" />
      <path
         d="M6 2 l-4,4"
         stroke="#000000"
         stroke-width="0.25"
         linecap="square"
         id="path537" />
      <path
         d="M4 0 l-4,4"
         stroke="#000000"
         stroke-width="0.25"
         linecap="square"
         id="path539" />
    </pattern>
  </defs>
  <sodipodi:namedview
     id="base"
     pagecolor="#ffffff"
     bordercolor="#666666"
     borderopacity="1.0"
     inkscape:pageopacity="0.0"
     inkscape:pageshadow="2"
     inkscape:zoom="0.0875"
     inkscape:cx="400"
     inkscape:cy="560"
     inkscape:document-units="mm"
     inkscape:current-layer="layer1"
     inkscape:document-rotation="0"
     showgrid="false"
     inkscape:window-width="1252"
     inkscape:window-height="796"
     inkscape:window-x="0"
     inkscape:window-y="25"
     inkscape:window-maximized="0" />
  <metadata
     id="metadata5">
    <rdf:RDF>
      <cc:Work
         rdf:about="">
        <dc:format>image/svg+xml</dc:format>
        <dc:type
           rdf:resource="http://purl.org/dc/dcmitype/StillImage" />
        <dc:title></dc:title>
      </cc:Work>
    </rdf:RDF>
  </metadata>
  <g
     inkscape:label="Layer 1"
     inkscape:groupmode="layer"
     id="layer1">
    <g
       inkscape:label="0"
       id="g308"
       transform="matrix(0.26458333,0,0,0.26458333,731.82455,-1012.0714)">
      <path
         d="M 2109.3694,1126.2992 H -286.85102"
         style="fill:none;stroke:#000000"
         id="path300" />
      <path
         d="M -286.85102,1126.2992 V 3643.4646"
         style="fill:none;stroke:#000000"
         id="path302" />
      <path
         d="M -286.85102,3643.4646 H 2109.3694"
         style="fill:none;stroke:#000000"
         id="path304" />
      <path
         d="M 2109.3694,3643.4646 V 1126.2992"
         style="fill:none;stroke:#000000"
         id="path306" />
    </g>
    <g
       inkscape:label="0"
       id="g349"
       transform="matrix(0.26458333,0,0,0.26458333,743.82456,70.200575)">
      <path
         d="M 2094.2513,-447.01228 H -275.51244"
         style="fill:none;stroke:#000000"
         id="path341" />
      <path
         d="M -275.51244,-447.01228 V 1620.3893"
         style="fill:none;stroke:#000000"
         id="path343" />
      <path
         d="M -275.51244,1620.3893 H 2094.2513"
         style="fill:none;stroke:#000000"
         id="path345" />
      <path
         d="M 2094.2513,1620.3893 V -447.01228"
         style="fill:none;stroke:#000000"
         id="path347" />
    </g>
    <g
       inkscape:label="0"
       id="g390"
       transform="matrix(0.26458333,0,0,0.26458333,3.9285635,87.200575)">
      <path
         d="M 2520.9449,-511.26425 H 3.779528"
         style="fill:none;stroke:#000000"
         id="path382" />
      <path
         d="M 3.779528,-511.26425 V 1639.2869"
         style="fill:none;stroke:#000000"
         id="path384" />
      <path
         d="M 3.779528,1639.2869 H 2520.9449"
         style="fill:none;stroke:#000000"
         id="path386" />
      <path
         d="M 2520.9449,1639.2869 V -511.26425"
         style="fill:none;stroke:#000000"
         id="path388" />
    </g>
    <g
       inkscape:label="0"
       id="g431"
       transform="matrix(0.26458333,0,0,0.26458333,414.82456,-1002.0714)">
      <path
         d="M 911.25921,1126.2992 H -313.30772"
         style="fill:none;stroke:#000000"
         id="path423" />
      <path
         d="M -313.30772,1126.2992 V 3605.6693"
         style="fill:none;stroke:#000000"
         id="path425" />
      <path
         d="M -313.30772,3605.6693 H 911.25921"
         style="fill:none;stroke:#000000"
         id="path427" />
      <path
         d="M 911.25921,3605.6693 V 1126.2992"
         style="fill:none;stroke:#000000"
         id="path429" />
    </g>
    <g
       inkscape:label="0"
       id="g472"
       transform="matrix(0.26458333,0,0,0.26458333,-335.07144,-481.7994)">
      <path
         d="M 2520.9449,-511.26425 H 3.779528"
         style="fill:none;stroke:#000000"
         id="path464" />
      <path
         d="M 3.779528,-511.26425 V 1639.2869"
         style="fill:none;stroke:#000000"
         id="path466" />
      <path
         d="M 3.779528,1639.2869 H 2520.9449"
         style="fill:none;stroke:#000000"
         id="path468" />
      <path
         d="M 2520.9449,1639.2869 V -511.26425"
         style="fill:none;stroke:#000000"
         id="path470" />
    </g>
    <g
       inkscape:label="0"
       id="g513"
       transform="matrix(0.26458333,0,0,0.26458333,-899.17542,-1002.0714)">
      <path
         d="M 2135.8261,1126.2992 H 911.25921"
         style="fill:none;stroke:#000000"
         id="path505" />
      <path
         d="M 911.25921,1126.2992 V 3605.6693"
         style="fill:none;stroke:#000000"
         id="path507" />
      <path
         d="M 911.25921,3605.6693 H 2135.8261"
         style="fill:none;stroke:#000000"
         id="path509" />
      <path
         d="M 2135.8261,3605.6693 V 1126.2992"
         style="fill:none;stroke:#000000"
         id="path511" />
    </g>
    <g
       inkscape:label="0"
       id="g554"
       transform="matrix(0.26458333,0,0,0.26458333,-567.17542,87.200575)">
      <path
         d="M 2162.2828,-511.26425 H -343.54394"
         style="fill:none;stroke:#000000"
         id="path546" />
      <path
         d="M -343.54394,-511.26425 V 1703.5389"
         style="fill:none;stroke:#000000"
         id="path548" />
      <path
         d="M -343.54394,1703.5389 H 2162.2828"
         style="fill:none;stroke:#000000"
         id="path550" />
      <path
         d="M 2162.2828,1703.5389 V -511.26425"
         style="fill:none;stroke:#000000"
         id="path552" />
    </g>
  </g>
</svg>
