  0
SECTION
  2
HEADER
  9
$ACADVER
  1
AC1014
  9
$HANDSEED
  5
FFFF
  9
$MEASUREMENT
 70
     1
  0
ENDSEC
  0
SECTION
  2
TABLES
  0
TABLE
  2
VPORT
  5
8
330
0
100
AcDbSymbolTable
 70
     4
  0
VPORT
  5
2E
330
8
100
AcDbSymbolTableRecord
100
AcDbViewportTableRecord
  2
*ACTIVE
 70
     0
 10
0.0
 20
0.0
 11
1.0
 21
1.0
 12
210.0
 22
148.5
 13
0.0
 23
0.0
 14
10.0
 24
10.0
 15
10.0
 25
10.0
 16
0.0
 26
0.0
 36
1.0
 17
0.0
 27
0.0
 37
0.0
 40
341.0
 41
1.24
 42
50.0
 43
0.0
 44
0.0
 50
0.0
 51
0.0
 71
     0
 72
   100
 73
     1
 74
     3
 75
     0
 76
     0
 77
     0
 78
     0
  0
ENDTAB
  0
TABLE
  2
LTYPE
  5
5
330
0
100
AcDbSymbolTable
 70
     1
  0
LTYPE
  5
14
330
5
100
AcDbSymbolTableRecord
100
AcDbLinetypeTableRecord
  2
BYBLOCK
 70
     0
  3

 72
    65
 73
     0
 40
0.0
  0
LTYPE
  5
15
330
5
100
AcDbSymbolTableRecord
100
AcDbLinetypeTableRecord
  2
BYLAYER
 70
     0
  3

 72
    65
 73
     0
 40
0.0
  0
LTYPE
  5
16
330
5
100
AcDbSymbolTableRecord
100
AcDbLinetypeTableRecord
  2
CONTINUOUS
 70
     0
  3
Solid line
 72
    65
 73
     0
 40
0.0
  0
ENDTAB
  0
TABLE
  2
LAYER
  5
2
100
AcDbSymbolTable
 70
2
  0
LAYER
  5
50
100
AcDbSymbolTableRecord
100
AcDbLayerTableRecord
  2
0
 70
0
  6
CONTINUOUS
  0
LAYER
  5
51
100
AcDbSymbolTableRecord
100
AcDbLayerTableRecord
  2
Layer_1
 70
0
  6
CONTINUOUS
  0
ENDTAB
  0
TABLE
  2
STYLE
  5
3
330
0
100
AcDbSymbolTable
 70
     1
  0
STYLE
  5
11
330
3
100
AcDbSymbolTableRecord
100
AcDbTextStyleTableRecord
  2
STANDARD
 70
     0
 40
0.0
 41
1.0
 50
0.0
 71
     0
 42
2.5
  3
txt
  4

  0
ENDTAB
  0
TABLE
  2
VIEW
  5
6
330
0
100
AcDbSymbolTable
 70
     0
  0
ENDTAB
  0
TABLE
  2
UCS
  5
7
330
0
100
AcDbSymbolTable
 70
     0
  0
ENDTAB
  0
TABLE
  2
APPID
  5
9
330
0
100
AcDbSymbolTable
 70
     2
  0
APPID
  5
12
330
9
100
AcDbSymbolTableRecord
100
AcDbRegAppTableRecord
  2
ACAD
 70
     0
  0
ENDTAB
  0
TABLE
  2
DIMSTYLE
  5
A
330
0
100
AcDbSymbolTable
 70
     1
  0
DIMSTYLE
105
27
330
A
100
AcDbSymbolTableRecord
100
AcDbDimStyleTableRecord
  2
ISO-25
 70
     0
  3

  4

  5

  6

  7

 40
1.0
 41
2.5
 42
0.625
 43
3.75
 44
1.25
 45
0.0
 46
0.0
 47
0.0
 48
0.0
140
2.5
141
2.5
142
0.0
143
0.03937007874016
144
1.0
145
0.0
146
1.0
147
0.625
 71
     0
 72
     0
 73
     0
 74
     0
 75
     0
 76
     0
 77
     1
 78
     8
170
     0
171
     3
172
     1
173
     0
174
     0
175
     0
176
     0
177
     0
178
     0
270
     2
271
     2
272
     2
273
     2
274
     3
340
11
275
     0
280
     0
281
     0
282
     0
283
     0
284
     8
285
     0
286
     0
287
     3
288
     0
  0
ENDTAB
  0
TABLE
  2
BLOCK_RECORD
  5
1
330
0
100
AcDbSymbolTable
 70
     1
  0
BLOCK_RECORD
  5
1F
330
1
100
AcDbSymbolTableRecord
100
AcDbBlockTableRecord
  2
*MODEL_SPACE
  0
BLOCK_RECORD
  5
1B
330
1
100
AcDbSymbolTableRecord
100
AcDbBlockTableRecord
  2
*PAPER_SPACE
  0
ENDTAB
  0
ENDSEC
  0
SECTION
  2
BLOCKS
  0
BLOCK
  5
20
330
1F
100
AcDbEntity
  8
0
100
AcDbBlockBegin
  2
*MODEL_SPACE
 70
     0
 10
0.0
 20
0.0
 30
0.0
  3
*MODEL_SPACE
  1

  0
ENDBLK
  5
21
330
1F
100
AcDbEntity
  8
0
100
AcDbBlockEnd
  0
BLOCK
  5
1C
330
1B
100
AcDbEntity
 67
     1
  8
0
100
AcDbBlockBegin
  2
*PAPER_SPACE
  1

  0
ENDBLK
  5
1D
330
1B
100
AcDbEntity
 67
     1
  8
0
100
AcDbBlockEnd
  0
ENDSEC
  0
SECTION
  2
ENTITIES
  0
LWPOLYLINE
  5
100
100
AcDbEntity
  8
Layer_1
 62
7
100
AcDbPolyline
 90
4
 70
1
 10
397.328271
 20
134.327828
 30
0.0
 10
-270.670882
 20
134.327828
 30
0.0
 10
-270.670882
 20
-452.671433
 30
0.0
 10
397.328271
 20
-452.671433
 30
0.0
  0
LWPOLYLINE
  5
101
100
AcDbEntity
  8
Layer_1
 62
7
100
AcDbPolyline
 90
30
 70
1
 10
49.119715
 20
123.588841
 30
0.0
 10
48.710715
 20
123.675841
 30
0.0
 10
48.328715
 20
123.845841
 30
0.0
 10
47.990716
 20
124.091840
 30
0.0
 10
47.710716
 20
124.401841
 30
0.0
 10
47.501716
 20
124.764841
 30
0.0
 10
47.372716
 20
125.161840
 30
0.0
 10
47.328716
 20
125.577838
 30
0.0
 10
47.372716
 20
125.993840
 30
0.0
 10
47.501716
 20
126.390839
 30
0.0
 10
47.710716
 20
126.753838
 30
0.0
 10
47.990716
 20
127.063837
 30
0.0
 10
48.328715
 20
127.309836
 30
0.0
 10
48.710715
 20
127.479838
 30
0.0
 10
49.119715
 20
127.566836
 30
0.0
 10
49.537714
 20
127.566836
 30
0.0
 10
49.946712
 20
127.479838
 30
0.0
 10
50.328711
 20
127.309836
 30
0.0
 10
50.666711
 20
127.063837
 30
0.0
 10
50.946711
 20
126.753838
 30
0.0
 10
51.155711
 20
126.390839
 30
0.0
 10
51.284711
 20
125.993840
 30
0.0
 10
51.328711
 20
125.577838
 30
0.0
 10
51.284711
 20
125.161840
 30
0.0
 10
51.155711
 20
124.764841
 30
0.0
 10
50.946711
 20
124.401841
 30
0.0
 10
50.666711
 20
124.091840
 30
0.0
 10
50.328711
 20
123.845841
 30
0.0
 10
49.946712
 20
123.675841
 30
0.0
 10
49.537714
 20
123.588841
 30
0.0
  0
LWPOLYLINE
  5
102
100
AcDbEntity
  8
Layer_1
 62
7
100
AcDbPolyline
 90
30
 70
1
 10
344.119333
 20
123.588841
 30
0.0
 10
343.710341
 20
123.675841
 30
0.0
 10
343.328336
 20
123.845841
 30
0.0
 10
342.990331
 20
124.091840
 30
0.0
 10
342.710349
 20
124.401841
 30
0.0
 10
342.501355
 20
124.764841
 30
0.0
 10
342.372344
 20
125.161840
 30
0.0
 10
342.328344
 20
125.577838
 30
0.0
 10
342.372344
 20
125.993840
 30
0.0
 10
342.501355
 20
126.390839
 30
0.0
 10
342.710349
 20
126.753838
 30
0.0
 10
342.990331
 20
127.063837
 30
0.0
 10
343.328336
 20
127.309836
 30
0.0
 10
343.710341
 20
127.479838
 30
0.0
 10
344.119333
 20
127.566836
 30
0.0
 10
344.537348
 20
127.566836
 30
0.0
 10
344.946340
 20
127.479838
 30
0.0
 10
345.328345
 20
127.309836
 30
0.0
 10
345.666350
 20
127.063837
 30
0.0
 10
345.946332
 20
126.753838
 30
0.0
 10
346.155352
 20
126.390839
 30
0.0
 10
346.284336
 20
125.993840
 30
0.0
 10
346.328337
 20
125.577838
 30
0.0
 10
346.284336
 20
125.161840
 30
0.0
 10
346.155352
 20
124.764841
 30
0.0
 10
345.946332
 20
124.401841
 30
0.0
 10
345.666350
 20
124.091840
 30
0.0
 10
345.328345
 20
123.845841
 30
0.0
 10
344.946340
 20
123.675841
 30
0.0
 10
344.537348
 20
123.588841
 30
0.0
  0
LWPOLYLINE
  5
103
100
AcDbEntity
  8
Layer_1
 62
7
100
AcDbPolyline
 90
30
 70
1
 10
-220.880045
 20
123.588841
 30
0.0
 10
-221.288945
 20
123.675841
 30
0.0
 10
-221.670944
 20
123.845841
 30
0.0
 10
-222.009245
 20
124.091840
 30
0.0
 10
-222.288944
 20
124.401841
 30
0.0
 10
-222.498044
 20
124.764841
 30
0.0
 10
-222.627242
 20
125.161840
 30
0.0
 10
-222.670944
 20
125.577838
 30
0.0
 10
-222.627242
 20
125.993840
 30
0.0
 10
-222.498044
 20
126.390839
 30
0.0
 10
-222.288944
 20
126.753838
 30
0.0
 10
-222.009245
 20
127.063837
 30
0.0
 10
-221.670944
 20
127.309836
 30
0.0
 10
-221.288945
 20
127.479838
 30
0.0
 10
-220.880045
 20
127.566836
 30
0.0
 10
-220.461848
 20
127.566836
 30
0.0
 10
-220.052948
 20
127.479838
 30
0.0
 10
-219.670948
 20
127.309836
 30
0.0
 10
-219.332647
 20
127.063837
 30
0.0
 10
-219.052948
 20
126.753838
 30
0.0
 10
-218.843848
 20
126.390839
 30
0.0
 10
-218.714647
 20
125.993840
 30
0.0
 10
-218.670949
 20
125.577838
 30
0.0
 10
-218.714647
 20
125.161840
 30
0.0
 10
-218.843848
 20
124.764841
 30
0.0
 10
-219.052948
 20
124.401841
 30
0.0
 10
-219.332647
 20
124.091840
 30
0.0
 10
-219.670948
 20
123.845841
 30
0.0
 10
-220.052948
 20
123.675841
 30
0.0
 10
-220.461848
 20
123.588841
 30
0.0
  0
LWPOLYLINE
  5
104
100
AcDbEntity
  8
Layer_1
 62
7
100
AcDbPolyline
 90
30
 70
1
 10
387.869296
 20
100.338872
 30
0.0
 10
387.460277
 20
100.425872
 30
0.0
 10
387.078299
 20
100.595872
 30
0.0
 10
386.740294
 20
100.841871
 30
0.0
 10
386.460286
 20
101.151869
 30
0.0
 10
386.251292
 20
101.514869
 30
0.0
 10
386.122281
 20
101.911868
 30
0.0
 10
386.078281
 20
102.327869
 30
0.0
 10
386.122281
 20
102.743868
 30
0.0
 10
386.251292
 20
103.140867
 30
0.0
 10
386.460286
 20
103.503867
 30
0.0
 10
386.740294
 20
103.813868
 30
0.0
 10
387.078299
 20
104.059867
 30
0.0
 10
387.460277
 20
104.229866
 30
0.0
 10
387.869296
 20
104.316867
 30
0.0
 10
388.287285
 20
104.316867
 30
0.0
 10
388.696277
 20
104.229866
 30
0.0
 10
389.078282
 20
104.059867
 30
0.0
 10
389.416287
 20
103.813868
 30
0.0
 10
389.696295
 20
103.503867
 30
0.0
 10
389.905289
 20
103.140867
 30
0.0
 10
390.034273
 20
102.743868
 30
0.0
 10
390.078273
 20
102.327869
 30
0.0
 10
390.034273
 20
101.911868
 30
0.0
 10
389.905289
 20
101.514869
 30
0.0
 10
389.696295
 20
101.151869
 30
0.0
 10
389.416287
 20
100.841871
 30
0.0
 10
389.078282
 20
100.595872
 30
0.0
 10
388.696277
 20
100.425872
 30
0.0
 10
388.287285
 20
100.338872
 30
0.0
  0
LWPOLYLINE
  5
105
100
AcDbEntity
  8
Layer_1
 62
7
100
AcDbPolyline
 90
30
 70
1
 10
-262.129992
 20
100.338872
 30
0.0
 10
-262.538892
 20
100.425872
 30
0.0
 10
-262.920892
 20
100.595872
 30
0.0
 10
-263.259193
 20
100.841871
 30
0.0
 10
-263.538892
 20
101.151869
 30
0.0
 10
-263.747991
 20
101.514869
 30
0.0
 10
-263.877193
 20
101.911868
 30
0.0
 10
-263.920891
 20
102.327869
 30
0.0
 10
-263.877193
 20
102.743868
 30
0.0
 10
-263.747991
 20
103.140867
 30
0.0
 10
-263.538892
 20
103.503867
 30
0.0
 10
-263.259193
 20
103.813868
 30
0.0
 10
-262.920892
 20
104.059867
 30
0.0
 10
-262.538892
 20
104.229866
 30
0.0
 10
-262.129992
 20
104.316867
 30
0.0
 10
-261.711795
 20
104.316867
 30
0.0
 10
-261.302895
 20
104.229866
 30
0.0
 10
-260.920896
 20
104.059867
 30
0.0
 10
-260.582595
 20
103.813868
 30
0.0
 10
-260.302896
 20
103.503867
 30
0.0
 10
-260.093796
 20
103.140867
 30
0.0
 10
-259.964597
 20
102.743868
 30
0.0
 10
-259.920896
 20
102.327869
 30
0.0
 10
-259.964597
 20
101.911868
 30
0.0
 10
-260.093796
 20
101.514869
 30
0.0
 10
-260.302896
 20
101.151869
 30
0.0
 10
-260.582595
 20
100.841871
 30
0.0
 10
-260.920896
 20
100.595872
 30
0.0
 10
-261.302895
 20
100.425872
 30
0.0
 10
-261.711795
 20
100.338872
 30
0.0
  0
LWPOLYLINE
  5
106
100
AcDbEntity
  8
Layer_1
 62
7
100
AcDbPolyline
 90
30
 70
1
 10
387.869296
 20
-124.660844
 30
0.0
 10
387.460277
 20
-124.573847
 30
0.0
 10
387.078299
 20
-124.403844
 30
0.0
 10
386.740294
 20
-124.157846
 30
0.0
 10
386.460286
 20
-123.847847
 30
0.0
 10
386.251292
 20
-123.484847
 30
0.0
 10
386.122281
 20
-123.087848
 30
0.0
 10
386.078281
 20
-122.671847
 30
0.0
 10
386.122281
 20
-122.255849
 30
0.0
 10
386.251292
 20
-121.858850
 30
0.0
 10
386.460286
 20
-121.495850
 30
0.0
 10
386.740294
 20
-121.185848
 30
0.0
 10
387.078299
 20
-120.939850
 30
0.0
 10
387.460277
 20
-120.769850
 30
0.0
 10
387.869296
 20
-120.682850
 30
0.0
 10
388.287285
 20
-120.682850
 30
0.0
 10
388.696277
 20
-120.769850
 30
0.0
 10
389.078282
 20
-120.939850
 30
0.0
 10
389.416287
 20
-121.185848
 30
0.0
 10
389.696295
 20
-121.495850
 30
0.0
 10
389.905289
 20
-121.858850
 30
0.0
 10
390.034273
 20
-122.255849
 30
0.0
 10
390.078273
 20
-122.671847
 30
0.0
 10
390.034273
 20
-123.087848
 30
0.0
 10
389.905289
 20
-123.484847
 30
0.0
 10
389.696295
 20
-123.847847
 30
0.0
 10
389.416287
 20
-124.157846
 30
0.0
 10
389.078282
 20
-124.403844
 30
0.0
 10
388.696277
 20
-124.573847
 30
0.0
 10
388.287285
 20
-124.660844
 30
0.0
  0
LWPOLYLINE
  5
107
100
AcDbEntity
  8
Layer_1
 62
7
100
AcDbPolyline
 90
30
 70
1
 10
-262.129992
 20
-124.660844
 30
0.0
 10
-262.538892
 20
-124.573847
 30
0.0
 10
-262.920892
 20
-124.403844
 30
0.0
 10
-263.259193
 20
-124.157846
 30
0.0
 10
-263.538892
 20
-123.847847
 30
0.0
 10
-263.747991
 20
-123.484847
 30
0.0
 10
-263.877193
 20
-123.087848
 30
0.0
 10
-263.920891
 20
-122.671847
 30
0.0
 10
-263.877193
 20
-122.255849
 30
0.0
 10
-263.747991
 20
-121.858850
 30
0.0
 10
-263.538892
 20
-121.495850
 30
0.0
 10
-263.259193
 20
-121.185848
 30
0.0
 10
-262.920892
 20
-120.939850
 30
0.0
 10
-262.538892
 20
-120.769850
 30
0.0
 10
-262.129992
 20
-120.682850
 30
0.0
 10
-261.711795
 20
-120.682850
 30
0.0
 10
-261.302895
 20
-120.769850
 30
0.0
 10
-260.920896
 20
-120.939850
 30
0.0
 10
-260.582595
 20
-121.185848
 30
0.0
 10
-260.302896
 20
-121.495850
 30
0.0
 10
-260.093796
 20
-121.858850
 30
0.0
 10
-259.964597
 20
-122.255849
 30
0.0
 10
-259.920896
 20
-122.671847
 30
0.0
 10
-259.964597
 20
-123.087848
 30
0.0
 10
-260.093796
 20
-123.484847
 30
0.0
 10
-260.302896
 20
-123.847847
 30
0.0
 10
-260.582595
 20
-124.157846
 30
0.0
 10
-260.920896
 20
-124.403844
 30
0.0
 10
-261.302895
 20
-124.573847
 30
0.0
 10
-261.711795
 20
-124.660844
 30
0.0
  0
LWPOLYLINE
  5
108
100
AcDbEntity
  8
Layer_1
 62
7
100
AcDbPolyline
 90
30
 70
1
 10
387.869296
 20
-404.660493
 30
0.0
 10
387.460277
 20
-404.573498
 30
0.0
 10
387.078299
 20
-404.403503
 30
0.0
 10
386.740294
 20
-404.157494
 30
0.0
 10
386.460286
 20
-403.847482
 30
0.0
 10
386.251292
 20
-403.484501
 30
0.0
 10
386.122281
 20
-403.087494
 30
0.0
 10
386.078281
 20
-402.671490
 30
0.0
 10
386.122281
 20
-402.255486
 30
0.0
 10
386.251292
 20
-401.858506
 30
0.0
 10
386.460286
 20
-401.495498
 30
0.0
 10
386.740294
 20
-401.185486
 30
0.0
 10
387.078299
 20
-400.939503
 30
0.0
 10
387.460277
 20
-400.769509
 30
0.0
 10
387.869296
 20
-400.682487
 30
0.0
 10
388.287285
 20
-400.682487
 30
0.0
 10
388.696277
 20
-400.769509
 30
0.0
 10
389.078282
 20
-400.939503
 30
0.0
 10
389.416287
 20
-401.185486
 30
0.0
 10
389.696295
 20
-401.495498
 30
0.0
 10
389.905289
 20
-401.858506
 30
0.0
 10
390.034273
 20
-402.255486
 30
0.0
 10
390.078273
 20
-402.671490
 30
0.0
 10
390.034273
 20
-403.087494
 30
0.0
 10
389.905289
 20
-403.484501
 30
0.0
 10
389.696295
 20
-403.847482
 30
0.0
 10
389.416287
 20
-404.157494
 30
0.0
 10
389.078282
 20
-404.403503
 30
0.0
 10
388.696277
 20
-404.573498
 30
0.0
 10
388.287285
 20
-404.660493
 30
0.0
  0
LWPOLYLINE
  5
109
100
AcDbEntity
  8
Layer_1
 62
7
100
AcDbPolyline
 90
30
 70
1
 10
-262.129992
 20
-404.660493
 30
0.0
 10
-262.538892
 20
-404.573498
 30
0.0
 10
-262.920892
 20
-404.403503
 30
0.0
 10
-263.259193
 20
-404.157494
 30
0.0
 10
-263.538892
 20
-403.847482
 30
0.0
 10
-263.747991
 20
-403.484501
 30
0.0
 10
-263.877193
 20
-403.087494
 30
0.0
 10
-263.920891
 20
-402.671490
 30
0.0
 10
-263.877193
 20
-402.255486
 30
0.0
 10
-263.747991
 20
-401.858506
 30
0.0
 10
-263.538892
 20
-401.495498
 30
0.0
 10
-263.259193
 20
-401.185486
 30
0.0
 10
-262.920892
 20
-400.939503
 30
0.0
 10
-262.538892
 20
-400.769509
 30
0.0
 10
-262.129992
 20
-400.682487
 30
0.0
 10
-261.711795
 20
-400.682487
 30
0.0
 10
-261.302895
 20
-400.769509
 30
0.0
 10
-260.920896
 20
-400.939503
 30
0.0
 10
-260.582595
 20
-401.185486
 30
0.0
 10
-260.302896
 20
-401.495498
 30
0.0
 10
-260.093796
 20
-401.858506
 30
0.0
 10
-259.964597
 20
-402.255486
 30
0.0
 10
-259.920896
 20
-402.671490
 30
0.0
 10
-259.964597
 20
-403.087494
 30
0.0
 10
-260.093796
 20
-403.484501
 30
0.0
 10
-260.302896
 20
-403.847482
 30
0.0
 10
-260.582595
 20
-404.157494
 30
0.0
 10
-260.920896
 20
-404.403503
 30
0.0
 10
-261.302895
 20
-404.573498
 30
0.0
 10
-261.711795
 20
-404.660493
 30
0.0
  0
LWPOLYLINE
  5
10a
100
AcDbEntity
  8
Layer_1
 62
7
100
AcDbPolyline
 90
30
 70
1
 10
364.119321
 20
-445.910438
 30
0.0
 10
363.710328
 20
-445.823443
 30
0.0
 10
363.328324
 20
-445.653448
 30
0.0
 10
362.990319
 20
-445.407439
 30
0.0
 10
362.710311
 20
-445.097453
 30
0.0
 10
362.501316
 20
-444.734445
 30
0.0
 10
362.372332
 20
-444.337439
 30
0.0
 10
362.328332
 20
-443.921435
 30
0.0
 10
362.372332
 20
-443.505431
 30
0.0
 10
362.501316
 20
-443.108451
 30
0.0
 10
362.710311
 20
-442.745443
 30
0.0
 10
362.990319
 20
-442.435457
 30
0.0
 10
363.328324
 20
-442.189448
 30
0.0
 10
363.710328
 20
-442.019453
 30
0.0
 10
364.119321
 20
-441.932459
 30
0.0
 10
364.537309
 20
-441.932459
 30
0.0
 10
364.946328
 20
-442.019453
 30
0.0
 10
365.328306
 20
-442.189448
 30
0.0
 10
365.666311
 20
-442.435457
 30
0.0
 10
365.946319
 20
-442.745443
 30
0.0
 10
366.155313
 20
-443.108451
 30
0.0
 10
366.284324
 20
-443.505431
 30
0.0
 10
366.328324
 20
-443.921435
 30
0.0
 10
366.284324
 20
-444.337439
 30
0.0
 10
366.155313
 20
-444.734445
 30
0.0
 10
365.946319
 20
-445.097453
 30
0.0
 10
365.666311
 20
-445.407439
 30
0.0
 10
365.328306
 20
-445.653448
 30
0.0
 10
364.946328
 20
-445.823443
 30
0.0
 10
364.537309
 20
-445.910438
 30
0.0
  0
LWPOLYLINE
  5
10b
100
AcDbEntity
  8
Layer_1
 62
7
100
AcDbPolyline
 90
30
 70
1
 10
49.119715
 20
-445.910438
 30
0.0
 10
48.710715
 20
-445.823443
 30
0.0
 10
48.328715
 20
-445.653448
 30
0.0
 10
47.990716
 20
-445.407439
 30
0.0
 10
47.710716
 20
-445.097453
 30
0.0
 10
47.501716
 20
-444.734445
 30
0.0
 10
47.372716
 20
-444.337439
 30
0.0
 10
47.328716
 20
-443.921435
 30
0.0
 10
47.372716
 20
-443.505431
 30
0.0
 10
47.501716
 20
-443.108451
 30
0.0
 10
47.710716
 20
-442.745443
 30
0.0
 10
47.990716
 20
-442.435457
 30
0.0
 10
48.328715
 20
-442.189448
 30
0.0
 10
48.710715
 20
-442.019453
 30
0.0
 10
49.119715
 20
-441.932459
 30
0.0
 10
49.537714
 20
-441.932459
 30
0.0
 10
49.946712
 20
-442.019453
 30
0.0
 10
50.328711
 20
-442.189448
 30
0.0
 10
50.666711
 20
-442.435457
 30
0.0
 10
50.946711
 20
-442.745443
 30
0.0
 10
51.155711
 20
-443.108451
 30
0.0
 10
51.284711
 20
-443.505431
 30
0.0
 10
51.328711
 20
-443.921435
 30
0.0
 10
51.284711
 20
-444.337439
 30
0.0
 10
51.155711
 20
-444.734445
 30
0.0
 10
50.946711
 20
-445.097453
 30
0.0
 10
50.666711
 20
-445.407439
 30
0.0
 10
50.328711
 20
-445.653448
 30
0.0
 10
49.946712
 20
-445.823443
 30
0.0
 10
49.537714
 20
-445.910438
 30
0.0
  0
LWPOLYLINE
  5
10c
100
AcDbEntity
  8
Layer_1
 62
7
100
AcDbPolyline
 90
30
 70
1
 10
-240.880019
 20
-445.910438
 30
0.0
 10
-241.288919
 20
-445.823443
 30
0.0
 10
-241.670919
 20
-445.653448
 30
0.0
 10
-242.009220
 20
-445.407439
 30
0.0
 10
-242.288918
 20
-445.097453
 30
0.0
 10
-242.498018
 20
-444.734445
 30
0.0
 10
-242.627217
 20
-444.337439
 30
0.0
 10
-242.670918
 20
-443.921435
 30
0.0
 10
-242.627217
 20
-443.505431
 30
0.0
 10
-242.498018
 20
-443.108451
 30
0.0
 10
-242.288918
 20
-442.745443
 30
0.0
 10
-242.009220
 20
-442.435457
 30
0.0
 10
-241.670919
 20
-442.189448
 30
0.0
 10
-241.288919
 20
-442.019453
 30
0.0
 10
-240.880019
 20
-441.932459
 30
0.0
 10
-240.461822
 20
-441.932459
 30
0.0
 10
-240.052922
 20
-442.019453
 30
0.0
 10
-239.670923
 20
-442.189448
 30
0.0
 10
-239.332621
 20
-442.435457
 30
0.0
 10
-239.052923
 20
-442.745443
 30
0.0
 10
-238.843823
 20
-443.108451
 30
0.0
 10
-238.714624
 20
-443.505431
 30
0.0
 10
-238.670923
 20
-443.921435
 30
0.0
 10
-238.714624
 20
-444.337439
 30
0.0
 10
-238.843823
 20
-444.734445
 30
0.0
 10
-239.052923
 20
-445.097453
 30
0.0
 10
-239.332621
 20
-445.407439
 30
0.0
 10
-239.670923
 20
-445.653448
 30
0.0
 10
-240.052922
 20
-445.823443
 30
0.0
 10
-240.461822
 20
-445.910438
 30
0.0
  0
LWPOLYLINE
  5
10d
100
AcDbEntity
  8
Layer_1
 62
7
100
AcDbPolyline
 90
4
 70
1
 10
1041.141223
 20
43.674829
 30
0.0
 10
417.142001
 20
43.674829
 30
0.0
 10
417.142001
 20
-525.324446
 30
0.0
 10
1041.141223
 20
-525.324446
 30
0.0
  0
LWPOLYLINE
  5
10e
100
AcDbEntity
  8
Layer_1
 62
7
100
AcDbPolyline
 90
30
 70
1
 10
1006.932255
 20
33.785841
 30
0.0
 10
1006.523263
 20
33.872841
 30
0.0
 10
1006.141258
 20
34.042841
 30
0.0
 10
1005.803253
 20
34.288842
 30
0.0
 10
1005.523271
 20
34.598841
 30
0.0
 10
1005.314251
 20
34.961841
 30
0.0
 10
1005.185267
 20
35.358840
 30
0.0
 10
1005.141267
 20
35.774838
 30
0.0
 10
1005.185267
 20
36.190840
 30
0.0
 10
1005.314251
 20
36.587838
 30
0.0
 10
1005.523271
 20
36.950838
 30
0.0
 10
1005.803253
 20
37.260837
 30
0.0
 10
1006.141258
 20
37.506838
 30
0.0
 10
1006.523263
 20
37.676838
 30
0.0
 10
1006.932255
 20
37.763838
 30
0.0
 10
1007.350270
 20
37.763838
 30
0.0
 10
1007.759262
 20
37.676838
 30
0.0
 10
1008.141267
 20
37.506838
 30
0.0
 10
1008.479246
 20
37.260837
 30
0.0
 10
1008.759254
 20
36.950838
 30
0.0
 10
1008.968248
 20
36.587838
 30
0.0
 10
1009.097259
 20
36.190840
 30
0.0
 10
1009.141259
 20
35.774838
 30
0.0
 10
1009.097259
 20
35.358840
 30
0.0
 10
1008.968248
 20
34.961841
 30
0.0
 10
1008.759254
 20
34.598841
 30
0.0
 10
1008.479246
 20
34.288842
 30
0.0
 10
1008.141267
 20
34.042841
 30
0.0
 10
1007.759262
 20
33.872841
 30
0.0
 10
1007.350270
 20
33.785841
 30
0.0
  0
LWPOLYLINE
  5
10f
100
AcDbEntity
  8
Layer_1
 62
7
100
AcDbPolyline
 90
30
 70
1
 10
736.932606
 20
33.785841
 30
0.0
 10
736.523587
 20
33.872841
 30
0.0
 10
736.141609
 20
34.042841
 30
0.0
 10
735.803604
 20
34.288842
 30
0.0
 10
735.523596
 20
34.598841
 30
0.0
 10
735.314602
 20
34.961841
 30
0.0
 10
735.185591
 20
35.358840
 30
0.0
 10
735.141591
 20
35.774838
 30
0.0
 10
735.185591
 20
36.190840
 30
0.0
 10
735.314602
 20
36.587838
 30
0.0
 10
735.523596
 20
36.950838
 30
0.0
 10
735.803604
 20
37.260837
 30
0.0
 10
736.141609
 20
37.506838
 30
0.0
 10
736.523587
 20
37.676838
 30
0.0
 10
736.932606
 20
37.763838
 30
0.0
 10
737.350595
 20
37.763838
 30
0.0
 10
737.759587
 20
37.676838
 30
0.0
 10
738.141592
 20
37.506838
 30
0.0
 10
738.479597
 20
37.260837
 30
0.0
 10
738.759605
 20
36.950838
 30
0.0
 10
738.968599
 20
36.587838
 30
0.0
 10
739.097583
 20
36.190840
 30
0.0
 10
739.141583
 20
35.774838
 30
0.0
 10
739.097583
 20
35.358840
 30
0.0
 10
738.968599
 20
34.961841
 30
0.0
 10
738.759605
 20
34.598841
 30
0.0
 10
738.479597
 20
34.288842
 30
0.0
 10
738.141592
 20
34.042841
 30
0.0
 10
737.759587
 20
33.872841
 30
0.0
 10
737.350595
 20
33.785841
 30
0.0
  0
LWPOLYLINE
  5
110
100
AcDbEntity
  8
Layer_1
 62
7
100
AcDbPolyline
 90
30
 70
1
 10
436.932876
 20
33.785841
 30
0.0
 10
436.523977
 20
33.872841
 30
0.0
 10
436.141977
 20
34.042841
 30
0.0
 10
435.803678
 20
34.288842
 30
0.0
 10
435.523978
 20
34.598841
 30
0.0
 10
435.314878
 20
34.961841
 30
0.0
 10
435.185679
 20
35.358840
 30
0.0
 10
435.141979
 20
35.774838
 30
0.0
 10
435.185679
 20
36.190840
 30
0.0
 10
435.314878
 20
36.587838
 30
0.0
 10
435.523978
 20
36.950838
 30
0.0
 10
435.803678
 20
37.260837
 30
0.0
 10
436.141977
 20
37.506838
 30
0.0
 10
436.523977
 20
37.676838
 30
0.0
 10
436.932876
 20
37.763838
 30
0.0
 10
437.350976
 20
37.763838
 30
0.0
 10
437.759975
 20
37.676838
 30
0.0
 10
438.141975
 20
37.506838
 30
0.0
 10
438.480274
 20
37.260837
 30
0.0
 10
438.759974
 20
36.950838
 30
0.0
 10
438.969074
 20
36.587838
 30
0.0
 10
439.098273
 20
36.190840
 30
0.0
 10
439.141974
 20
35.774838
 30
0.0
 10
439.098273
 20
35.358840
 30
0.0
 10
438.969074
 20
34.961841
 30
0.0
 10
438.759974
 20
34.598841
 30
0.0
 10
438.480274
 20
34.288842
 30
0.0
 10
438.141975
 20
34.042841
 30
0.0
 10
437.759975
 20
33.872841
 30
0.0
 10
437.350976
 20
33.785841
 30
0.0
  0
LWPOLYLINE
  5
111
100
AcDbEntity
  8
Layer_1
 62
7
100
AcDbPolyline
 90
30
 70
1
 10
1027.932234
 20
4.185880
 30
0.0
 10
1027.523242
 20
4.272880
 30
0.0
 10
1027.141237
 20
4.442880
 30
0.0
 10
1026.803232
 20
4.688879
 30
0.0
 10
1026.523224
 20
4.998877
 30
0.0
 10
1026.314230
 20
5.361877
 30
0.0
 10
1026.185246
 20
5.758876
 30
0.0
 10
1026.141246
 20
6.174877
 30
0.0
 10
1026.185246
 20
6.590876
 30
0.0
 10
1026.314230
 20
6.987875
 30
0.0
 10
1026.523224
 20
7.350875
 30
0.0
 10
1026.803232
 20
7.660876
 30
0.0
 10
1027.141237
 20
7.906875
 30
0.0
 10
1027.523242
 20
8.076874
 30
0.0
 10
1027.932234
 20
8.163875
 30
0.0
 10
1028.350223
 20
8.163875
 30
0.0
 10
1028.759242
 20
8.076874
 30
0.0
 10
1029.141220
 20
7.906875
 30
0.0
 10
1029.479225
 20
7.660876
 30
0.0
 10
1029.759233
 20
7.350875
 30
0.0
 10
1029.968227
 20
6.987875
 30
0.0
 10
1030.097238
 20
6.590876
 30
0.0
 10
1030.141238
 20
6.174877
 30
0.0
 10
1030.097238
 20
5.758876
 30
0.0
 10
1029.968227
 20
5.361877
 30
0.0
 10
1029.759233
 20
4.998877
 30
0.0
 10
1029.479225
 20
4.688879
 30
0.0
 10
1029.141220
 20
4.442880
 30
0.0
 10
1028.759242
 20
4.272880
 30
0.0
 10
1028.350223
 20
4.185880
 30
0.0
  0
LWPOLYLINE
  5
112
100
AcDbEntity
  8
Layer_1
 62
7
100
AcDbPolyline
 90
30
 70
1
 10
423.932933
 20
4.185880
 30
0.0
 10
423.523953
 20
4.272880
 30
0.0
 10
423.141994
 20
4.442880
 30
0.0
 10
422.803724
 20
4.688879
 30
0.0
 10
422.523955
 20
4.998877
 30
0.0
 10
422.314895
 20
5.361877
 30
0.0
 10
422.185695
 20
5.758876
 30
0.0
 10
422.141995
 20
6.174877
 30
0.0
 10
422.185695
 20
6.590876
 30
0.0
 10
422.314895
 20
6.987875
 30
0.0
 10
422.523955
 20
7.350875
 30
0.0
 10
422.803724
 20
7.660876
 30
0.0
 10
423.141994
 20
7.906875
 30
0.0
 10
423.523953
 20
8.076874
 30
0.0
 10
423.932933
 20
8.163875
 30
0.0
 10
424.351042
 20
8.163875
 30
0.0
 10
424.760022
 20
8.076874
 30
0.0
 10
425.141991
 20
7.906875
 30
0.0
 10
425.480251
 20
7.660876
 30
0.0
 10
425.760020
 20
7.350875
 30
0.0
 10
425.969080
 20
6.987875
 30
0.0
 10
426.098270
 20
6.590876
 30
0.0
 10
426.141990
 20
6.174877
 30
0.0
 10
426.098270
 20
5.758876
 30
0.0
 10
425.969080
 20
5.361877
 30
0.0
 10
425.760020
 20
4.998877
 30
0.0
 10
425.480251
 20
4.688879
 30
0.0
 10
425.141991
 20
4.442880
 30
0.0
 10
424.760022
 20
4.272880
 30
0.0
 10
424.351042
 20
4.185880
 30
0.0
  0
LWPOLYLINE
  5
113
100
AcDbEntity
  8
Layer_1
 62
7
100
AcDbPolyline
 90
30
 70
1
 10
1027.932234
 20
-235.813819
 30
0.0
 10
1027.523242
 20
-235.726819
 30
0.0
 10
1027.141237
 20
-235.556819
 30
0.0
 10
1026.803232
 20
-235.310818
 30
0.0
 10
1026.523224
 20
-235.000819
 30
0.0
 10
1026.314230
 20
-234.637819
 30
0.0
 10
1026.185246
 20
-234.240821
 30
0.0
 10
1026.141246
 20
-233.824822
 30
0.0
 10
1026.185246
 20
-233.408821
 30
0.0
 10
1026.314230
 20
-233.011822
 30
0.0
 10
1026.523224
 20
-232.648822
 30
0.0
 10
1026.803232
 20
-232.338823
 30
0.0
 10
1027.141237
 20
-232.092822
 30
0.0
 10
1027.523242
 20
-231.922822
 30
0.0
 10
1027.932234
 20
-231.835822
 30
0.0
 10
1028.350223
 20
-231.835822
 30
0.0
 10
1028.759242
 20
-231.922822
 30
0.0
 10
1029.141220
 20
-232.092822
 30
0.0
 10
1029.479225
 20
-232.338823
 30
0.0
 10
1029.759233
 20
-232.648822
 30
0.0
 10
1029.968227
 20
-233.011822
 30
0.0
 10
1030.097238
 20
-233.408821
 30
0.0
 10
1030.141238
 20
-233.824822
 30
0.0
 10
1030.097238
 20
-234.240821
 30
0.0
 10
1029.968227
 20
-234.637819
 30
0.0
 10
1029.759233
 20
-235.000819
 30
0.0
 10
1029.479225
 20
-235.310818
 30
0.0
 10
1029.141220
 20
-235.556819
 30
0.0
 10
1028.759242
 20
-235.726819
 30
0.0
 10
1028.350223
 20
-235.813819
 30
0.0
  0
LWPOLYLINE
  5
114
100
AcDbEntity
  8
Layer_1
 62
7
100
AcDbPolyline
 90
30
 70
1
 10
423.932933
 20
-235.813819
 30
0.0
 10
423.523953
 20
-235.726819
 30
0.0
 10
423.141994
 20
-235.556819
 30
0.0
 10
422.803724
 20
-235.310818
 30
0.0
 10
422.523955
 20
-235.000819
 30
0.0
 10
422.314895
 20
-234.637819
 30
0.0
 10
422.185695
 20
-234.240821
 30
0.0
 10
422.141995
 20
-233.824822
 30
0.0
 10
422.185695
 20
-233.408821
 30
0.0
 10
422.314895
 20
-233.011822
 30
0.0
 10
422.523955
 20
-232.648822
 30
0.0
 10
422.803724
 20
-232.338823
 30
0.0
 10
423.141994
 20
-232.092822
 30
0.0
 10
423.523953
 20
-231.922822
 30
0.0
 10
423.932933
 20
-231.835822
 30
0.0
 10
424.351042
 20
-231.835822
 30
0.0
 10
424.760022
 20
-231.922822
 30
0.0
 10
425.141991
 20
-232.092822
 30
0.0
 10
425.480251
 20
-232.338823
 30
0.0
 10
425.760020
 20
-232.648822
 30
0.0
 10
425.969080
 20
-233.011822
 30
0.0
 10
426.098270
 20
-233.408821
 30
0.0
 10
426.141990
 20
-233.824822
 30
0.0
 10
426.098270
 20
-234.240821
 30
0.0
 10
425.969080
 20
-234.637819
 30
0.0
 10
425.760020
 20
-235.000819
 30
0.0
 10
425.480251
 20
-235.310818
 30
0.0
 10
425.141991
 20
-235.556819
 30
0.0
 10
424.760022
 20
-235.726819
 30
0.0
 10
424.351042
 20
-235.813819
 30
0.0
  0
LWPOLYLINE
  5
115
100
AcDbEntity
  8
Layer_1
 62
7
100
AcDbPolyline
 90
30
 70
1
 10
423.932933
 20
-475.813505
 30
0.0
 10
423.523953
 20
-475.726616
 30
0.0
 10
423.141994
 20
-475.556622
 30
0.0
 10
422.803724
 20
-475.310824
 30
0.0
 10
422.523955
 20
-475.000124
 30
0.0
 10
422.314895
 20
-474.638016
 30
0.0
 10
422.185695
 20
-474.240321
 30
0.0
 10
422.141995
 20
-473.824529
 30
0.0
 10
422.185695
 20
-473.408710
 30
0.0
 10
422.314895
 20
-473.011016
 30
0.0
 10
422.523955
 20
-472.648907
 30
0.0
 10
422.803724
 20
-472.338208
 30
0.0
 10
423.141994
 20
-472.092410
 30
0.0
 10
423.523953
 20
-471.922415
 30
0.0
 10
423.932933
 20
-471.835526
 30
0.0
 10
424.351042
 20
-471.835526
 30
0.0
 10
424.760022
 20
-471.922415
 30
0.0
 10
425.141991
 20
-472.092410
 30
0.0
 10
425.480251
 20
-472.338208
 30
0.0
 10
425.760020
 20
-472.648907
 30
0.0
 10
425.969080
 20
-473.011016
 30
0.0
 10
426.098270
 20
-473.408710
 30
0.0
 10
426.141990
 20
-473.824529
 30
0.0
 10
426.098270
 20
-474.240321
 30
0.0
 10
425.969080
 20
-474.638016
 30
0.0
 10
425.760020
 20
-475.000124
 30
0.0
 10
425.480251
 20
-475.310824
 30
0.0
 10
425.141991
 20
-475.556622
 30
0.0
 10
424.760022
 20
-475.726616
 30
0.0
 10
424.351042
 20
-475.813505
 30
0.0
  0
LWPOLYLINE
  5
116
100
AcDbEntity
  8
Layer_1
 62
7
100
AcDbPolyline
 90
30
 70
1
 10
1027.932234
 20
-475.813505
 30
0.0
 10
1027.523242
 20
-475.726616
 30
0.0
 10
1027.141237
 20
-475.556622
 30
0.0
 10
1026.803232
 20
-475.310824
 30
0.0
 10
1026.523224
 20
-475.000124
 30
0.0
 10
1026.314230
 20
-474.638016
 30
0.0
 10
1026.185246
 20
-474.240321
 30
0.0
 10
1026.141246
 20
-473.824529
 30
0.0
 10
1026.185246
 20
-473.408710
 30
0.0
 10
1026.314230
 20
-473.011016
 30
0.0
 10
1026.523224
 20
-472.648907
 30
0.0
 10
1026.803232
 20
-472.338208
 30
0.0
 10
1027.141237
 20
-472.092410
 30
0.0
 10
1027.523242
 20
-471.922415
 30
0.0
 10
1027.932234
 20
-471.835526
 30
0.0
 10
1028.350223
 20
-471.835526
 30
0.0
 10
1028.759242
 20
-471.922415
 30
0.0
 10
1029.141220
 20
-472.092410
 30
0.0
 10
1029.479225
 20
-472.338208
 30
0.0
 10
1029.759233
 20
-472.648907
 30
0.0
 10
1029.968227
 20
-473.011016
 30
0.0
 10
1030.097238
 20
-473.408710
 30
0.0
 10
1030.141238
 20
-473.824529
 30
0.0
 10
1030.097238
 20
-474.240321
 30
0.0
 10
1029.968227
 20
-474.638016
 30
0.0
 10
1029.759233
 20
-475.000124
 30
0.0
 10
1029.479225
 20
-475.310824
 30
0.0
 10
1029.141220
 20
-475.556622
 30
0.0
 10
1028.759242
 20
-475.726616
 30
0.0
 10
1028.350223
 20
-475.813505
 30
0.0
  0
LWPOLYLINE
  5
117
100
AcDbEntity
  8
Layer_1
 62
7
100
AcDbPolyline
 90
30
 70
1
 10
736.932606
 20
-515.813454
 30
0.0
 10
736.523587
 20
-515.726459
 30
0.0
 10
736.141609
 20
-515.556465
 30
0.0
 10
735.803604
 20
-515.310456
 30
0.0
 10
735.523596
 20
-515.000470
 30
0.0
 10
735.314602
 20
-514.637462
 30
0.0
 10
735.185591
 20
-514.240455
 30
0.0
 10
735.141591
 20
-513.824478
 30
0.0
 10
735.185591
 20
-513.408474
 30
0.0
 10
735.314602
 20
-513.011467
 30
0.0
 10
735.523596
 20
-512.648460
 30
0.0
 10
735.803604
 20
-512.338474
 30
0.0
 10
736.141609
 20
-512.092465
 30
0.0
 10
736.523587
 20
-511.922470
 30
0.0
 10
736.932606
 20
-511.835475
 30
0.0
 10
737.350595
 20
-511.835475
 30
0.0
 10
737.759587
 20
-511.922470
 30
0.0
 10
738.141592
 20
-512.092465
 30
0.0
 10
738.479597
 20
-512.338474
 30
0.0
 10
738.759605
 20
-512.648460
 30
0.0
 10
738.968599
 20
-513.011467
 30
0.0
 10
739.097583
 20
-513.408474
 30
0.0
 10
739.141583
 20
-513.824478
 30
0.0
 10
739.097583
 20
-514.240455
 30
0.0
 10
738.968599
 20
-514.637462
 30
0.0
 10
738.759605
 20
-515.000470
 30
0.0
 10
738.479597
 20
-515.310456
 30
0.0
 10
738.141592
 20
-515.556465
 30
0.0
 10
737.759587
 20
-515.726459
 30
0.0
 10
737.350595
 20
-515.813454
 30
0.0
  0
LWPOLYLINE
  5
118
100
AcDbEntity
  8
Layer_1
 62
7
100
AcDbPolyline
 90
30
 70
1
 10
436.932876
 20
-515.813454
 30
0.0
 10
436.523977
 20
-515.726459
 30
0.0
 10
436.141977
 20
-515.556465
 30
0.0
 10
435.803678
 20
-515.310456
 30
0.0
 10
435.523978
 20
-515.000470
 30
0.0
 10
435.314878
 20
-514.637462
 30
0.0
 10
435.185679
 20
-514.240455
 30
0.0
 10
435.141979
 20
-513.824478
 30
0.0
 10
435.185679
 20
-513.408474
 30
0.0
 10
435.314878
 20
-513.011467
 30
0.0
 10
435.523978
 20
-512.648460
 30
0.0
 10
435.803678
 20
-512.338474
 30
0.0
 10
436.141977
 20
-512.092465
 30
0.0
 10
436.523977
 20
-511.922470
 30
0.0
 10
436.932876
 20
-511.835475
 30
0.0
 10
437.350976
 20
-511.835475
 30
0.0
 10
437.759975
 20
-511.922470
 30
0.0
 10
438.141975
 20
-512.092465
 30
0.0
 10
438.480274
 20
-512.338474
 30
0.0
 10
438.759974
 20
-512.648460
 30
0.0
 10
438.969074
 20
-513.011467
 30
0.0
 10
439.098273
 20
-513.408474
 30
0.0
 10
439.141974
 20
-513.824478
 30
0.0
 10
439.098273
 20
-514.240455
 30
0.0
 10
438.969074
 20
-514.637462
 30
0.0
 10
438.759974
 20
-515.000470
 30
0.0
 10
438.480274
 20
-515.310456
 30
0.0
 10
438.141975
 20
-515.556465
 30
0.0
 10
437.759975
 20
-515.726459
 30
0.0
 10
437.350976
 20
-515.813454
 30
0.0
  0
LWPOLYLINE
  5
119
100
AcDbEntity
  8
Layer_1
 62
7
100
AcDbPolyline
 90
30
 70
1
 10
1006.932255
 20
-515.813454
 30
0.0
 10
1006.523263
 20
-515.726459
 30
0.0
 10
1006.141258
 20
-515.556465
 30
0.0
 10
1005.803253
 20
-515.310456
 30
0.0
 10
1005.523271
 20
-515.000470
 30
0.0
 10
1005.314251
 20
-514.637462
 30
0.0
 10
1005.185267
 20
-514.240455
 30
0.0
 10
1005.141267
 20
-513.824478
 30
0.0
 10
1005.185267
 20
-513.408474
 30
0.0
 10
1005.314251
 20
-513.011467
 30
0.0
 10
1005.523271
 20
-512.648460
 30
0.0
 10
1005.803253
 20
-512.338474
 30
0.0
 10
1006.141258
 20
-512.092465
 30
0.0
 10
1006.523263
 20
-511.922470
 30
0.0
 10
1006.932255
 20
-511.835475
 30
0.0
 10
1007.350270
 20
-511.835475
 30
0.0
 10
1007.759262
 20
-511.922470
 30
0.0
 10
1008.141267
 20
-512.092465
 30
0.0
 10
1008.479246
 20
-512.338474
 30
0.0
 10
1008.759254
 20
-512.648460
 30
0.0
 10
1008.968248
 20
-513.011467
 30
0.0
 10
1009.097259
 20
-513.408474
 30
0.0
 10
1009.141259
 20
-513.824478
 30
0.0
 10
1009.097259
 20
-514.240455
 30
0.0
 10
1008.968248
 20
-514.637462
 30
0.0
 10
1008.759254
 20
-515.000470
 30
0.0
 10
1008.479246
 20
-515.310456
 30
0.0
 10
1008.141267
 20
-515.556465
 30
0.0
 10
1007.759262
 20
-515.726459
 30
0.0
 10
1007.350270
 20
-515.813454
 30
0.0
  0
LWPOLYLINE
  5
11a
100
AcDbEntity
  8
Layer_1
 62
7
100
AcDbPolyline
 90
4
 70
1
 10
-290.429777
 20
46.547829
 30
0.0
 10
-914.428999
 20
46.547829
 30
0.0
 10
-914.428999
 20
-522.451446
 30
0.0
 10
-290.429777
 20
-522.451446
 30
0.0
  0
LWPOLYLINE
  5
11b
100
AcDbEntity
  8
Layer_1
 62
7
100
AcDbPolyline
 90
30
 70
1
 10
-324.638745
 20
36.658841
 30
0.0
 10
-325.047737
 20
36.745841
 30
0.0
 10
-325.429742
 20
36.915841
 30
0.0
 10
-325.767747
 20
37.161842
 30
0.0
 10
-326.047729
 20
37.471841
 30
0.0
 10
-326.256749
 20
37.834841
 30
0.0
 10
-326.385733
 20
38.231840
 30
0.0
 10
-326.429733
 20
38.647838
 30
0.0
 10
-326.385733
 20
39.063840
 30
0.0
 10
-326.256749
 20
39.460838
 30
0.0
 10
-326.047729
 20
39.823838
 30
0.0
 10
-325.767747
 20
40.133837
 30
0.0
 10
-325.429742
 20
40.379838
 30
0.0
 10
-325.047737
 20
40.549838
 30
0.0
 10
-324.638745
 20
40.636838
 30
0.0
 10
-324.220730
 20
40.636838
 30
0.0
 10
-323.811738
 20
40.549838
 30
0.0
 10
-323.429733
 20
40.379838
 30
0.0
 10
-323.091754
 20
40.133837
 30
0.0
 10
-322.811746
 20
39.823838
 30
0.0
 10
-322.602752
 20
39.460838
 30
0.0
 10
-322.473741
 20
39.063840
 30
0.0
 10
-322.429741
 20
38.647838
 30
0.0
 10
-322.473741
 20
38.231840
 30
0.0
 10
-322.602752
 20
37.834841
 30
0.0
 10
-322.811746
 20
37.471841
 30
0.0
 10
-323.091754
 20
37.161842
 30
0.0
 10
-323.429733
 20
36.915841
 30
0.0
 10
-323.811738
 20
36.745841
 30
0.0
 10
-324.220730
 20
36.658841
 30
0.0
  0
LWPOLYLINE
  5
11c
100
AcDbEntity
  8
Layer_1
 62
7
100
AcDbPolyline
 90
30
 70
1
 10
-594.638394
 20
36.658841
 30
0.0
 10
-595.047413
 20
36.745841
 30
0.0
 10
-595.429391
 20
36.915841
 30
0.0
 10
-595.767396
 20
37.161842
 30
0.0
 10
-596.047404
 20
37.471841
 30
0.0
 10
-596.256398
 20
37.834841
 30
0.0
 10
-596.385409
 20
38.231840
 30
0.0
 10
-596.429409
 20
38.647838
 30
0.0
 10
-596.385409
 20
39.063840
 30
0.0
 10
-596.256398
 20
39.460838
 30
0.0
 10
-596.047404
 20
39.823838
 30
0.0
 10
-595.767396
 20
40.133837
 30
0.0
 10
-595.429391
 20
40.379838
 30
0.0
 10
-595.047413
 20
40.549838
 30
0.0
 10
-594.638394
 20
40.636838
 30
0.0
 10
-594.220405
 20
40.636838
 30
0.0
 10
-593.811413
 20
40.549838
 30
0.0
 10
-593.429408
 20
40.379838
 30
0.0
 10
-593.091403
 20
40.133837
 30
0.0
 10
-592.811395
 20
39.823838
 30
0.0
 10
-592.602401
 20
39.460838
 30
0.0
 10
-592.473417
 20
39.063840
 30
0.0
 10
-592.429417
 20
38.647838
 30
0.0
 10
-592.473417
 20
38.231840
 30
0.0
 10
-592.602401
 20
37.834841
 30
0.0
 10
-592.811395
 20
37.471841
 30
0.0
 10
-593.091403
 20
37.161842
 30
0.0
 10
-593.429408
 20
36.915841
 30
0.0
 10
-593.811413
 20
36.745841
 30
0.0
 10
-594.220405
 20
36.658841
 30
0.0
  0
LWPOLYLINE
  5
11d
100
AcDbEntity
  8
Layer_1
 62
7
100
AcDbPolyline
 90
30
 70
1
 10
-894.638124
 20
36.658841
 30
0.0
 10
-895.047023
 20
36.745841
 30
0.0
 10
-895.429023
 20
36.915841
 30
0.0
 10
-895.767322
 20
37.161842
 30
0.0
 10
-896.047022
 20
37.471841
 30
0.0
 10
-896.256122
 20
37.834841
 30
0.0
 10
-896.385321
 20
38.231840
 30
0.0
 10
-896.429021
 20
38.647838
 30
0.0
 10
-896.385321
 20
39.063840
 30
0.0
 10
-896.256122
 20
39.460838
 30
0.0
 10
-896.047022
 20
39.823838
 30
0.0
 10
-895.767322
 20
40.133837
 30
0.0
 10
-895.429023
 20
40.379838
 30
0.0
 10
-895.047023
 20
40.549838
 30
0.0
 10
-894.638124
 20
40.636838
 30
0.0
 10
-894.220024
 20
40.636838
 30
0.0
 10
-893.811025
 20
40.549838
 30
0.0
 10
-893.429025
 20
40.379838
 30
0.0
 10
-893.090726
 20
40.133837
 30
0.0
 10
-892.811026
 20
39.823838
 30
0.0
 10
-892.601926
 20
39.460838
 30
0.0
 10
-892.472727
 20
39.063840
 30
0.0
 10
-892.429026
 20
38.647838
 30
0.0
 10
-892.472727
 20
38.231840
 30
0.0
 10
-892.601926
 20
37.834841
 30
0.0
 10
-892.811026
 20
37.471841
 30
0.0
 10
-893.090726
 20
37.161842
 30
0.0
 10
-893.429025
 20
36.915841
 30
0.0
 10
-893.811025
 20
36.745841
 30
0.0
 10
-894.220024
 20
36.658841
 30
0.0
  0
LWPOLYLINE
  5
11e
100
AcDbEntity
  8
Layer_1
 62
7
100
AcDbPolyline
 90
30
 70
1
 10
-303.638766
 20
7.058880
 30
0.0
 10
-304.047758
 20
7.145880
 30
0.0
 10
-304.429763
 20
7.315880
 30
0.0
 10
-304.767768
 20
7.561879
 30
0.0
 10
-305.047776
 20
7.871877
 30
0.0
 10
-305.256770
 20
8.234877
 30
0.0
 10
-305.385754
 20
8.631876
 30
0.0
 10
-305.429754
 20
9.047877
 30
0.0
 10
-305.385754
 20
9.463876
 30
0.0
 10
-305.256770
 20
9.860875
 30
0.0
 10
-305.047776
 20
10.223875
 30
0.0
 10
-304.767768
 20
10.533876
 30
0.0
 10
-304.429763
 20
10.779875
 30
0.0
 10
-304.047758
 20
10.949874
 30
0.0
 10
-303.638766
 20
11.036875
 30
0.0
 10
-303.220777
 20
11.036875
 30
0.0
 10
-302.811758
 20
10.949874
 30
0.0
 10
-302.429780
 20
10.779875
 30
0.0
 10
-302.091775
 20
10.533876
 30
0.0
 10
-301.811767
 20
10.223875
 30
0.0
 10
-301.602773
 20
9.860875
 30
0.0
 10
-301.473762
 20
9.463876
 30
0.0
 10
-301.429762
 20
9.047877
 30
0.0
 10
-301.473762
 20
8.631876
 30
0.0
 10
-301.602773
 20
8.234877
 30
0.0
 10
-301.811767
 20
7.871877
 30
0.0
 10
-302.091775
 20
7.561879
 30
0.0
 10
-302.429780
 20
7.315880
 30
0.0
 10
-302.811758
 20
7.145880
 30
0.0
 10
-303.220777
 20
7.058880
 30
0.0
  0
LWPOLYLINE
  5
11f
100
AcDbEntity
  8
Layer_1
 62
7
100
AcDbPolyline
 90
30
 70
1
 10
-907.638067
 20
7.058880
 30
0.0
 10
-908.047047
 20
7.145880
 30
0.0
 10
-908.429006
 20
7.315880
 30
0.0
 10
-908.767276
 20
7.561879
 30
0.0
 10
-909.047045
 20
7.871877
 30
0.0
 10
-909.256105
 20
8.234877
 30
0.0
 10
-909.385305
 20
8.631876
 30
0.0
 10
-909.429005
 20
9.047877
 30
0.0
 10
-909.385305
 20
9.463876
 30
0.0
 10
-909.256105
 20
9.860875
 30
0.0
 10
-909.047045
 20
10.223875
 30
0.0
 10
-908.767276
 20
10.533876
 30
0.0
 10
-908.429006
 20
10.779875
 30
0.0
 10
-908.047047
 20
10.949874
 30
0.0
 10
-907.638067
 20
11.036875
 30
0.0
 10
-907.219958
 20
11.036875
 30
0.0
 10
-906.810978
 20
10.949874
 30
0.0
 10
-906.429009
 20
10.779875
 30
0.0
 10
-906.090749
 20
10.533876
 30
0.0
 10
-905.810980
 20
10.223875
 30
0.0
 10
-905.601920
 20
9.860875
 30
0.0
 10
-905.472730
 20
9.463876
 30
0.0
 10
-905.429010
 20
9.047877
 30
0.0
 10
-905.472730
 20
8.631876
 30
0.0
 10
-905.601920
 20
8.234877
 30
0.0
 10
-905.810980
 20
7.871877
 30
0.0
 10
-906.090749
 20
7.561879
 30
0.0
 10
-906.429009
 20
7.315880
 30
0.0
 10
-906.810978
 20
7.145880
 30
0.0
 10
-907.219958
 20
7.058880
 30
0.0
  0
LWPOLYLINE
  5
120
100
AcDbEntity
  8
Layer_1
 62
7
100
AcDbPolyline
 90
30
 70
1
 10
-303.638766
 20
-232.940819
 30
0.0
 10
-304.047758
 20
-232.853819
 30
0.0
 10
-304.429763
 20
-232.683819
 30
0.0
 10
-304.767768
 20
-232.437818
 30
0.0
 10
-305.047776
 20
-232.127819
 30
0.0
 10
-305.256770
 20
-231.764819
 30
0.0
 10
-305.385754
 20
-231.367821
 30
0.0
 10
-305.429754
 20
-230.951822
 30
0.0
 10
-305.385754
 20
-230.535821
 30
0.0
 10
-305.256770
 20
-230.138822
 30
0.0
 10
-305.047776
 20
-229.775822
 30
0.0
 10
-304.767768
 20
-229.465823
 30
0.0
 10
-304.429763
 20
-229.219822
 30
0.0
 10
-304.047758
 20
-229.049822
 30
0.0
 10
-303.638766
 20
-228.962822
 30
0.0
 10
-303.220777
 20
-228.962822
 30
0.0
 10
-302.811758
 20
-229.049822
 30
0.0
 10
-302.429780
 20
-229.219822
 30
0.0
 10
-302.091775
 20
-229.465823
 30
0.0
 10
-301.811767
 20
-229.775822
 30
0.0
 10
-301.602773
 20
-230.138822
 30
0.0
 10
-301.473762
 20
-230.535821
 30
0.0
 10
-301.429762
 20
-230.951822
 30
0.0
 10
-301.473762
 20
-231.367821
 30
0.0
 10
-301.602773
 20
-231.764819
 30
0.0
 10
-301.811767
 20
-232.127819
 30
0.0
 10
-302.091775
 20
-232.437818
 30
0.0
 10
-302.429780
 20
-232.683819
 30
0.0
 10
-302.811758
 20
-232.853819
 30
0.0
 10
-303.220777
 20
-232.940819
 30
0.0
  0
LWPOLYLINE
  5
121
100
AcDbEntity
  8
Layer_1
 62
7
100
AcDbPolyline
 90
30
 70
1
 10
-907.638067
 20
-232.940819
 30
0.0
 10
-908.047047
 20
-232.853819
 30
0.0
 10
-908.429006
 20
-232.683819
 30
0.0
 10
-908.767276
 20
-232.437818
 30
0.0
 10
-909.047045
 20
-232.127819
 30
0.0
 10
-909.256105
 20
-231.764819
 30
0.0
 10
-909.385305
 20
-231.367821
 30
0.0
 10
-909.429005
 20
-230.951822
 30
0.0
 10
-909.385305
 20
-230.535821
 30
0.0
 10
-909.256105
 20
-230.138822
 30
0.0
 10
-909.047045
 20
-229.775822
 30
0.0
 10
-908.767276
 20
-229.465823
 30
0.0
 10
-908.429006
 20
-229.219822
 30
0.0
 10
-908.047047
 20
-229.049822
 30
0.0
 10
-907.638067
 20
-228.962822
 30
0.0
 10
-907.219958
 20
-228.962822
 30
0.0
 10
-906.810978
 20
-229.049822
 30
0.0
 10
-906.429009
 20
-229.219822
 30
0.0
 10
-906.090749
 20
-229.465823
 30
0.0
 10
-905.810980
 20
-229.775822
 30
0.0
 10
-905.601920
 20
-230.138822
 30
0.0
 10
-905.472730
 20
-230.535821
 30
0.0
 10
-905.429010
 20
-230.951822
 30
0.0
 10
-905.472730
 20
-231.367821
 30
0.0
 10
-905.601920
 20
-231.764819
 30
0.0
 10
-905.810980
 20
-232.127819
 30
0.0
 10
-906.090749
 20
-232.437818
 30
0.0
 10
-906.429009
 20
-232.683819
 30
0.0
 10
-906.810978
 20
-232.853819
 30
0.0
 10
-907.219958
 20
-232.940819
 30
0.0
  0
LWPOLYLINE
  5
122
100
AcDbEntity
  8
Layer_1
 62
7
100
AcDbPolyline
 90
30
 70
1
 10
-907.638067
 20
-472.940505
 30
0.0
 10
-908.047047
 20
-472.853616
 30
0.0
 10
-908.429006
 20
-472.683622
 30
0.0
 10
-908.767276
 20
-472.437824
 30
0.0
 10
-909.047045
 20
-472.127124
 30
0.0
 10
-909.256105
 20
-471.765016
 30
0.0
 10
-909.385305
 20
-471.367321
 30
0.0
 10
-909.429005
 20
-470.951529
 30
0.0
 10
-909.385305
 20
-470.535710
 30
0.0
 10
-909.256105
 20
-470.138016
 30
0.0
 10
-909.047045
 20
-469.775907
 30
0.0
 10
-908.767276
 20
-469.465208
 30
0.0
 10
-908.429006
 20
-469.219410
 30
0.0
 10
-908.047047
 20
-469.049415
 30
0.0
 10
-907.638067
 20
-468.962526
 30
0.0
 10
-907.219958
 20
-468.962526
 30
0.0
 10
-906.810978
 20
-469.049415
 30
0.0
 10
-906.429009
 20
-469.219410
 30
0.0
 10
-906.090749
 20
-469.465208
 30
0.0
 10
-905.810980
 20
-469.775907
 30
0.0
 10
-905.601920
 20
-470.138016
 30
0.0
 10
-905.472730
 20
-470.535710
 30
0.0
 10
-905.429010
 20
-470.951529
 30
0.0
 10
-905.472730
 20
-471.367321
 30
0.0
 10
-905.601920
 20
-471.765016
 30
0.0
 10
-905.810980
 20
-472.127124
 30
0.0
 10
-906.090749
 20
-472.437824
 30
0.0
 10
-906.429009
 20
-472.683622
 30
0.0
 10
-906.810978
 20
-472.853616
 30
0.0
 10
-907.219958
 20
-472.940505
 30
0.0
  0
LWPOLYLINE
  5
123
100
AcDbEntity
  8
Layer_1
 62
7
100
AcDbPolyline
 90
30
 70
1
 10
-303.638766
 20
-472.940505
 30
0.0
 10
-304.047758
 20
-472.853616
 30
0.0
 10
-304.429763
 20
-472.683622
 30
0.0
 10
-304.767768
 20
-472.437824
 30
0.0
 10
-305.047776
 20
-472.127124
 30
0.0
 10
-305.256770
 20
-471.765016
 30
0.0
 10
-305.385754
 20
-471.367321
 30
0.0
 10
-305.429754
 20
-470.951529
 30
0.0
 10
-305.385754
 20
-470.535710
 30
0.0
 10
-305.256770
 20
-470.138016
 30
0.0
 10
-305.047776
 20
-469.775907
 30
0.0
 10
-304.767768
 20
-469.465208
 30
0.0
 10
-304.429763
 20
-469.219410
 30
0.0
 10
-304.047758
 20
-469.049415
 30
0.0
 10
-303.638766
 20
-468.962526
 30
0.0
 10
-303.220777
 20
-468.962526
 30
0.0
 10
-302.811758
 20
-469.049415
 30
0.0
 10
-302.429780
 20
-469.219410
 30
0.0
 10
-302.091775
 20
-469.465208
 30
0.0
 10
-301.811767
 20
-469.775907
 30
0.0
 10
-301.602773
 20
-470.138016
 30
0.0
 10
-301.473762
 20
-470.535710
 30
0.0
 10
-301.429762
 20
-470.951529
 30
0.0
 10
-301.473762
 20
-471.367321
 30
0.0
 10
-301.602773
 20
-471.765016
 30
0.0
 10
-301.811767
 20
-472.127124
 30
0.0
 10
-302.091775
 20
-472.437824
 30
0.0
 10
-302.429780
 20
-472.683622
 30
0.0
 10
-302.811758
 20
-472.853616
 30
0.0
 10
-303.220777
 20
-472.940505
 30
0.0
  0
LWPOLYLINE
  5
124
100
AcDbEntity
  8
Layer_1
 62
7
100
AcDbPolyline
 90
30
 70
1
 10
-594.638394
 20
-512.940454
 30
0.0
 10
-595.047413
 20
-512.853459
 30
0.0
 10
-595.429391
 20
-512.683465
 30
0.0
 10
-595.767396
 20
-512.437456
 30
0.0
 10
-596.047404
 20
-512.127470
 30
0.0
 10
-596.256398
 20
-511.764462
 30
0.0
 10
-596.385409
 20
-511.367455
 30
0.0
 10
-596.429409
 20
-510.951478
 30
0.0
 10
-596.385409
 20
-510.535474
 30
0.0
 10
-596.256398
 20
-510.138467
 30
0.0
 10
-596.047404
 20
-509.775460
 30
0.0
 10
-595.767396
 20
-509.465474
 30
0.0
 10
-595.429391
 20
-509.219465
 30
0.0
 10
-595.047413
 20
-509.049470
 30
0.0
 10
-594.638394
 20
-508.962475
 30
0.0
 10
-594.220405
 20
-508.962475
 30
0.0
 10
-593.811413
 20
-509.049470
 30
0.0
 10
-593.429408
 20
-509.219465
 30
0.0
 10
-593.091403
 20
-509.465474
 30
0.0
 10
-592.811395
 20
-509.775460
 30
0.0
 10
-592.602401
 20
-510.138467
 30
0.0
 10
-592.473417
 20
-510.535474
 30
0.0
 10
-592.429417
 20
-510.951478
 30
0.0
 10
-592.473417
 20
-511.367455
 30
0.0
 10
-592.602401
 20
-511.764462
 30
0.0
 10
-592.811395
 20
-512.127470
 30
0.0
 10
-593.091403
 20
-512.437456
 30
0.0
 10
-593.429408
 20
-512.683465
 30
0.0
 10
-593.811413
 20
-512.853459
 30
0.0
 10
-594.220405
 20
-512.940454
 30
0.0
  0
LWPOLYLINE
  5
125
100
AcDbEntity
  8
Layer_1
 62
7
100
AcDbPolyline
 90
30
 70
1
 10
-894.638124
 20
-512.940454
 30
0.0
 10
-895.047023
 20
-512.853459
 30
0.0
 10
-895.429023
 20
-512.683465
 30
0.0
 10
-895.767322
 20
-512.437456
 30
0.0
 10
-896.047022
 20
-512.127470
 30
0.0
 10
-896.256122
 20
-511.764462
 30
0.0
 10
-896.385321
 20
-511.367455
 30
0.0
 10
-896.429021
 20
-510.951478
 30
0.0
 10
-896.385321
 20
-510.535474
 30
0.0
 10
-896.256122
 20
-510.138467
 30
0.0
 10
-896.047022
 20
-509.775460
 30
0.0
 10
-895.767322
 20
-509.465474
 30
0.0
 10
-895.429023
 20
-509.219465
 30
0.0
 10
-895.047023
 20
-509.049470
 30
0.0
 10
-894.638124
 20
-508.962475
 30
0.0
 10
-894.220024
 20
-508.962475
 30
0.0
 10
-893.811025
 20
-509.049470
 30
0.0
 10
-893.429025
 20
-509.219465
 30
0.0
 10
-893.090726
 20
-509.465474
 30
0.0
 10
-892.811026
 20
-509.775460
 30
0.0
 10
-892.601926
 20
-510.138467
 30
0.0
 10
-892.472727
 20
-510.535474
 30
0.0
 10
-892.429026
 20
-510.951478
 30
0.0
 10
-892.472727
 20
-511.367455
 30
0.0
 10
-892.601926
 20
-511.764462
 30
0.0
 10
-892.811026
 20
-512.127470
 30
0.0
 10
-893.090726
 20
-512.437456
 30
0.0
 10
-893.429025
 20
-512.683465
 30
0.0
 10
-893.811025
 20
-512.853459
 30
0.0
 10
-894.220024
 20
-512.940454
 30
0.0
  0
LWPOLYLINE
  5
126
100
AcDbEntity
  8
Layer_1
 62
7
100
AcDbPolyline
 90
30
 70
1
 10
-324.638745
 20
-512.940454
 30
0.0
 10
-325.047737
 20
-512.853459
 30
0.0
 10
-325.429742
 20
-512.683465
 30
0.0
 10
-325.767747
 20
-512.437456
 30
0.0
 10
-326.047729
 20
-512.127470
 30
0.0
 10
-326.256749
 20
-511.764462
 30
0.0
 10
-326.385733
 20
-511.367455
 30
0.0
 10
-326.429733
 20
-510.951478
 30
0.0
 10
-326.385733
 20
-510.535474
 30
0.0
 10
-326.256749
 20
-510.138467
 30
0.0
 10
-326.047729
 20
-509.775460
 30
0.0
 10
-325.767747
 20
-509.465474
 30
0.0
 10
-325.429742
 20
-509.219465
 30
0.0
 10
-325.047737
 20
-509.049470
 30
0.0
 10
-324.638745
 20
-508.962475
 30
0.0
 10
-324.220730
 20
-508.962475
 30
0.0
 10
-323.811738
 20
-509.049470
 30
0.0
 10
-323.429733
 20
-509.219465
 30
0.0
 10
-323.091754
 20
-509.465474
 30
0.0
 10
-322.811746
 20
-509.775460
 30
0.0
 10
-322.602752
 20
-510.138467
 30
0.0
 10
-322.473741
 20
-510.535474
 30
0.0
 10
-322.429741
 20
-510.951478
 30
0.0
 10
-322.473741
 20
-511.367455
 30
0.0
 10
-322.602752
 20
-511.764462
 30
0.0
 10
-322.811746
 20
-512.127470
 30
0.0
 10
-323.091754
 20
-512.437456
 30
0.0
 10
-323.429733
 20
-512.683465
 30
0.0
 10
-323.811738
 20
-512.853459
 30
0.0
 10
-324.220730
 20
-512.940454
 30
0.0
  0
LWPOLYLINE
  5
127
100
AcDbEntity
  8
Layer_1
 62
7
100
AcDbPolyline
 90
4
 70
1
 10
1056.662270
 20
703.536362
 30
0.0
 10
406.663095
 20
703.536362
 30
0.0
 10
406.663095
 20
65.537187
 30
0.0
 10
1056.662270
 20
65.537187
 30
0.0
  0
LWPOLYLINE
  5
128
100
AcDbEntity
  8
Layer_1
 62
7
100
AcDbPolyline
 90
30
 70
1
 10
423.469674
 20
538.696575
 30
0.0
 10
423.091374
 20
538.777591
 30
0.0
 10
422.738076
 20
538.934568
 30
0.0
 10
422.425175
 20
539.161580
 30
0.0
 10
422.166375
 20
539.449579
 30
0.0
 10
421.972976
 20
539.784567
 30
0.0
 10
421.853477
 20
540.151570
 30
0.0
 10
421.813075
 20
540.536565
 30
0.0
 10
421.853477
 20
540.921586
 30
0.0
 10
421.972976
 20
541.288589
 30
0.0
 10
422.166375
 20
541.623578
 30
0.0
 10
422.425175
 20
541.911576
 30
0.0
 10
422.738076
 20
542.138589
 30
0.0
 10
423.091374
 20
542.295566
 30
0.0
 10
423.469674
 20
542.376581
 30
0.0
 10
423.856473
 20
542.376581
 30
0.0
 10
424.234774
 20
542.295566
 30
0.0
 10
424.588072
 20
542.138589
 30
0.0
 10
424.900973
 20
541.911576
 30
0.0
 10
425.159772
 20
541.623578
 30
0.0
 10
425.353172
 20
541.288589
 30
0.0
 10
425.472671
 20
540.921586
 30
0.0
 10
425.513073
 20
540.536565
 30
0.0
 10
425.472671
 20
540.151570
 30
0.0
 10
425.353172
 20
539.784567
 30
0.0
 10
425.159772
 20
539.449579
 30
0.0
 10
424.900973
 20
539.161580
 30
0.0
 10
424.588072
 20
538.934568
 30
0.0
 10
424.234774
 20
538.777591
 30
0.0
 10
423.856473
 20
538.696575
 30
0.0
  0
LWPOLYLINE
  5
129
100
AcDbEntity
  8
Layer_1
 62
7
100
AcDbPolyline
 90
30
 70
1
 10
423.469674
 20
508.696620
 30
0.0
 10
423.091374
 20
508.777609
 30
0.0
 10
422.738076
 20
508.934613
 30
0.0
 10
422.425175
 20
509.161625
 30
0.0
 10
422.166375
 20
509.449623
 30
0.0
 10
421.972976
 20
509.784612
 30
0.0
 10
421.853477
 20
510.151615
 30
0.0
 10
421.813075
 20
510.536610
 30
0.0
 10
421.853477
 20
510.921605
 30
0.0
 10
421.972976
 20
511.288608
 30
0.0
 10
422.166375
 20
511.623623
 30
0.0
 10
422.425175
 20
511.911621
 30
0.0
 10
422.738076
 20
512.138607
 30
0.0
 10
423.091374
 20
512.295611
 30
0.0
 10
423.469674
 20
512.376626
 30
0.0
 10
423.856473
 20
512.376626
 30
0.0
 10
424.234774
 20
512.295611
 30
0.0
 10
424.588072
 20
512.138607
 30
0.0
 10
424.900973
 20
511.911621
 30
0.0
 10
425.159772
 20
511.623623
 30
0.0
 10
425.353172
 20
511.288608
 30
0.0
 10
425.472671
 20
510.921605
 30
0.0
 10
425.513073
 20
510.536610
 30
0.0
 10
425.472671
 20
510.151615
 30
0.0
 10
425.353172
 20
509.784612
 30
0.0
 10
425.159772
 20
509.449623
 30
0.0
 10
424.900973
 20
509.161625
 30
0.0
 10
424.588072
 20
508.934613
 30
0.0
 10
424.234774
 20
508.777609
 30
0.0
 10
423.856473
 20
508.696620
 30
0.0
  0
LWPOLYLINE
  5
12a
100
AcDbEntity
  8
Layer_1
 62
7
100
AcDbPolyline
 90
30
 70
1
 10
1047.969290
 20
373.696796
 30
0.0
 10
1047.590301
 20
373.777785
 30
0.0
 10
1047.237294
 20
373.934788
 30
0.0
 10
1046.924293
 20
374.161800
 30
0.0
 10
1046.665292
 20
374.449799
 30
0.0
 10
1046.472279
 20
374.784788
 30
0.0
 10
1046.352291
 20
375.151791
 30
0.0
 10
1046.312286
 20
375.536785
 30
0.0
 10
1046.352291
 20
375.921780
 30
0.0
 10
1046.472279
 20
376.288783
 30
0.0
 10
1046.665292
 20
376.623772
 30
0.0
 10
1046.924293
 20
376.911797
 30
0.0
 10
1047.237294
 20
377.138782
 30
0.0
 10
1047.590301
 20
377.295786
 30
0.0
 10
1047.969290
 20
377.376775
 30
0.0
 10
1048.355290
 20
377.376775
 30
0.0
 10
1048.734278
 20
377.295786
 30
0.0
 10
1049.087285
 20
377.138782
 30
0.0
 10
1049.400287
 20
376.911797
 30
0.0
 10
1049.659287
 20
376.623772
 30
0.0
 10
1049.852274
 20
376.288783
 30
0.0
 10
1049.972289
 20
375.921780
 30
0.0
 10
1050.012294
 20
375.536785
 30
0.0
 10
1049.972289
 20
375.151791
 30
0.0
 10
1049.852274
 20
374.784788
 30
0.0
 10
1049.659287
 20
374.449799
 30
0.0
 10
1049.400287
 20
374.161800
 30
0.0
 10
1049.087285
 20
373.934788
 30
0.0
 10
1048.734278
 20
373.777785
 30
0.0
 10
1048.355290
 20
373.696796
 30
0.0
  0
LWPOLYLINE
  5
12b
100
AcDbEntity
  8
Layer_1
 62
7
100
AcDbPolyline
 90
30
 70
1
 10
423.469674
 20
238.696971
 30
0.0
 10
423.091374
 20
238.777960
 30
0.0
 10
422.738076
 20
238.934964
 30
0.0
 10
422.425175
 20
239.161949
 30
0.0
 10
422.166375
 20
239.449948
 30
0.0
 10
421.972976
 20
239.784963
 30
0.0
 10
421.853477
 20
240.151966
 30
0.0
 10
421.813075
 20
240.536961
 30
0.0
 10
421.853477
 20
240.921956
 30
0.0
 10
421.972976
 20
241.288959
 30
0.0
 10
422.166375
 20
241.623947
 30
0.0
 10
422.425175
 20
241.911946
 30
0.0
 10
422.738076
 20
242.138958
 30
0.0
 10
423.091374
 20
242.295962
 30
0.0
 10
423.469674
 20
242.376950
 30
0.0
 10
423.856473
 20
242.376950
 30
0.0
 10
424.234774
 20
242.295962
 30
0.0
 10
424.588072
 20
242.138958
 30
0.0
 10
424.900973
 20
241.911946
 30
0.0
 10
425.159772
 20
241.623947
 30
0.0
 10
425.353172
 20
241.288959
 30
0.0
 10
425.472671
 20
240.921956
 30
0.0
 10
425.513073
 20
240.536961
 30
0.0
 10
425.472671
 20
240.151966
 30
0.0
 10
425.353172
 20
239.784963
 30
0.0
 10
425.159772
 20
239.449948
 30
0.0
 10
424.900973
 20
239.161949
 30
0.0
 10
424.588072
 20
238.934964
 30
0.0
 10
424.234774
 20
238.777960
 30
0.0
 10
423.856473
 20
238.696971
 30
0.0
  0
LWPOLYLINE
  5
12c
100
AcDbEntity
  8
Layer_1
 62
7
100
AcDbPolyline
 90
30
 70
1
 10
423.469674
 20
208.696990
 30
0.0
 10
423.091374
 20
208.778005
 30
0.0
 10
422.738076
 20
208.935009
 30
0.0
 10
422.425175
 20
209.161994
 30
0.0
 10
422.166375
 20
209.449993
 30
0.0
 10
421.972976
 20
209.785008
 30
0.0
 10
421.853477
 20
210.151985
 30
0.0
 10
421.813075
 20
210.537006
 30
0.0
 10
421.853477
 20
210.922000
 30
0.0
 10
421.972976
 20
211.289003
 30
0.0
 10
422.166375
 20
211.623992
 30
0.0
 10
422.425175
 20
211.911991
 30
0.0
 10
422.738076
 20
212.139003
 30
0.0
 10
423.091374
 20
212.295980
 30
0.0
 10
423.469674
 20
212.376995
 30
0.0
 10
423.856473
 20
212.376995
 30
0.0
 10
424.234774
 20
212.295980
 30
0.0
 10
424.588072
 20
212.139003
 30
0.0
 10
424.900973
 20
211.911991
 30
0.0
 10
425.159772
 20
211.623992
 30
0.0
 10
425.353172
 20
211.289003
 30
0.0
 10
425.472671
 20
210.922000
 30
0.0
 10
425.513073
 20
210.537006
 30
0.0
 10
425.472671
 20
210.151985
 30
0.0
 10
425.353172
 20
209.785008
 30
0.0
 10
425.159772
 20
209.449993
 30
0.0
 10
424.900973
 20
209.161994
 30
0.0
 10
424.588072
 20
208.935009
 30
0.0
 10
424.234774
 20
208.778005
 30
0.0
 10
423.856473
 20
208.696990
 30
0.0
  0
LWPOLYLINE
  5
12d
100
AcDbEntity
  8
Layer_1
 62
7
100
AcDbPolyline
 90
4
 70
1
 10
374.912292
 20
703.535850
 30
0.0
 10
-252.086908
 20
703.535850
 30
0.0
 10
-252.086908
 20
156.536538
 30
0.0
 10
374.912292
 20
156.536538
 30
0.0
  0
LWPOLYLINE
  5
12e
100
AcDbEntity
  8
Layer_1
 62
7
100
AcDbPolyline
 90
30
 70
1
 10
-243.296019
 20
691.246867
 30
0.0
 10
-243.704918
 20
691.333867
 30
0.0
 10
-244.086918
 20
691.503867
 30
0.0
 10
-244.425217
 20
691.749865
 30
0.0
 10
-244.704918
 20
692.059864
 30
0.0
 10
-244.914018
 20
692.422864
 30
0.0
 10
-245.043216
 20
692.819866
 30
0.0
 10
-245.086918
 20
693.235864
 30
0.0
 10
-245.043216
 20
693.651863
 30
0.0
 10
-244.914018
 20
694.048864
 30
0.0
 10
-244.704918
 20
694.411861
 30
0.0
 10
-244.425217
 20
694.721863
 30
0.0
 10
-244.086918
 20
694.967861
 30
0.0
 10
-243.704918
 20
695.137861
 30
0.0
 10
-243.296019
 20
695.224861
 30
0.0
 10
-242.877819
 20
695.224861
 30
0.0
 10
-242.468919
 20
695.137861
 30
0.0
 10
-242.086919
 20
694.967861
 30
0.0
 10
-241.748621
 20
694.721863
 30
0.0
 10
-241.468922
 20
694.411861
 30
0.0
 10
-241.259822
 20
694.048864
 30
0.0
 10
-241.130621
 20
693.651863
 30
0.0
 10
-241.086923
 20
693.235864
 30
0.0
 10
-241.130621
 20
692.819866
 30
0.0
 10
-241.259822
 20
692.422864
 30
0.0
 10
-241.468922
 20
692.059864
 30
0.0
 10
-241.748621
 20
691.749865
 30
0.0
 10
-242.086919
 20
691.503867
 30
0.0
 10
-242.468919
 20
691.333867
 30
0.0
 10
-242.877819
 20
691.246867
 30
0.0
  0
LWPOLYLINE
  5
12f
100
AcDbEntity
  8
Layer_1
 62
7
100
AcDbPolyline
 90
30
 70
1
 10
206.703517
 20
691.246867
 30
0.0
 10
206.294525
 20
691.333867
 30
0.0
 10
205.912520
 20
691.503867
 30
0.0
 10
205.574515
 20
691.749865
 30
0.0
 10
205.294507
 20
692.059864
 30
0.0
 10
205.085513
 20
692.422864
 30
0.0
 10
204.956529
 20
692.819866
 30
0.0
 10
204.912528
 20
693.235864
 30
0.0
 10
204.956529
 20
693.651863
 30
0.0
 10
205.085513
 20
694.048864
 30
0.0
 10
205.294507
 20
694.411861
 30
0.0
 10
205.574515
 20
694.721863
 30
0.0
 10
205.912520
 20
694.967861
 30
0.0
 10
206.294525
 20
695.137861
 30
0.0
 10
206.703517
 20
695.224861
 30
0.0
 10
207.121505
 20
695.224861
 30
0.0
 10
207.530524
 20
695.137861
 30
0.0
 10
207.912503
 20
694.967861
 30
0.0
 10
208.250508
 20
694.721863
 30
0.0
 10
208.530516
 20
694.411861
 30
0.0
 10
208.739510
 20
694.048864
 30
0.0
 10
208.868520
 20
693.651863
 30
0.0
 10
208.912521
 20
693.235864
 30
0.0
 10
208.868520
 20
692.819866
 30
0.0
 10
208.739510
 20
692.422864
 30
0.0
 10
208.530516
 20
692.059864
 30
0.0
 10
208.250508
 20
691.749865
 30
0.0
 10
207.912503
 20
691.503867
 30
0.0
 10
207.530524
 20
691.333867
 30
0.0
 10
207.121505
 20
691.246867
 30
0.0
  0
LWPOLYLINE
  5
130
100
AcDbEntity
  8
Layer_1
 62
7
100
AcDbPolyline
 90
30
 70
1
 10
-43.296171
 20
691.246867
 30
0.0
 10
-43.705171
 20
691.333867
 30
0.0
 10
-44.087171
 20
691.503867
 30
0.0
 10
-44.425170
 20
691.749865
 30
0.0
 10
-44.705170
 20
692.059864
 30
0.0
 10
-44.914170
 20
692.422864
 30
0.0
 10
-45.043170
 20
692.819866
 30
0.0
 10
-45.087170
 20
693.235864
 30
0.0
 10
-45.043170
 20
693.651863
 30
0.0
 10
-44.914170
 20
694.048864
 30
0.0
 10
-44.705170
 20
694.411861
 30
0.0
 10
-44.425170
 20
694.721863
 30
0.0
 10
-44.087171
 20
694.967861
 30
0.0
 10
-43.705171
 20
695.137861
 30
0.0
 10
-43.296171
 20
695.224861
 30
0.0
 10
-42.878172
 20
695.224861
 30
0.0
 10
-42.469171
 20
695.137861
 30
0.0
 10
-42.087172
 20
694.967861
 30
0.0
 10
-41.749172
 20
694.721863
 30
0.0
 10
-41.469175
 20
694.411861
 30
0.0
 10
-41.260173
 20
694.048864
 30
0.0
 10
-41.131175
 20
693.651863
 30
0.0
 10
-41.087175
 20
693.235864
 30
0.0
 10
-41.131175
 20
692.819866
 30
0.0
 10
-41.260173
 20
692.422864
 30
0.0
 10
-41.469175
 20
692.059864
 30
0.0
 10
-41.749172
 20
691.749865
 30
0.0
 10
-42.087172
 20
691.503867
 30
0.0
 10
-42.469171
 20
691.333867
 30
0.0
 10
-42.878172
 20
691.246867
 30
0.0
  0
LWPOLYLINE
  5
131
100
AcDbEntity
  8
Layer_1
 62
7
100
AcDbPolyline
 90
30
 70
1
 10
366.703313
 20
691.246867
 30
0.0
 10
366.294321
 20
691.333867
 30
0.0
 10
365.912316
 20
691.503867
 30
0.0
 10
365.574311
 20
691.749865
 30
0.0
 10
365.294303
 20
692.059864
 30
0.0
 10
365.085309
 20
692.422864
 30
0.0
 10
364.956324
 20
692.819866
 30
0.0
 10
364.912324
 20
693.235864
 30
0.0
 10
364.956324
 20
693.651863
 30
0.0
 10
365.085309
 20
694.048864
 30
0.0
 10
365.294303
 20
694.411861
 30
0.0
 10
365.574311
 20
694.721863
 30
0.0
 10
365.912316
 20
694.967861
 30
0.0
 10
366.294321
 20
695.137861
 30
0.0
 10
366.703313
 20
695.224861
 30
0.0
 10
367.121301
 20
695.224861
 30
0.0
 10
367.530320
 20
695.137861
 30
0.0
 10
367.912299
 20
694.967861
 30
0.0
 10
368.250303
 20
694.721863
 30
0.0
 10
368.530312
 20
694.411861
 30
0.0
 10
368.739306
 20
694.048864
 30
0.0
 10
368.868316
 20
693.651863
 30
0.0
 10
368.912317
 20
693.235864
 30
0.0
 10
368.868316
 20
692.819866
 30
0.0
 10
368.739306
 20
692.422864
 30
0.0
 10
368.530312
 20
692.059864
 30
0.0
 10
368.250303
 20
691.749865
 30
0.0
 10
367.912299
 20
691.503867
 30
0.0
 10
367.530320
 20
691.333867
 30
0.0
 10
367.121301
 20
691.246867
 30
0.0
  0
LWPOLYLINE
  5
132
100
AcDbEntity
  8
Layer_1
 62
7
100
AcDbPolyline
 90
30
 70
1
 10
366.703313
 20
541.247057
 30
0.0
 10
366.294321
 20
541.334054
 30
0.0
 10
365.912316
 20
541.504054
 30
0.0
 10
365.574311
 20
541.750055
 30
0.0
 10
365.294303
 20
542.060054
 30
0.0
 10
365.085309
 20
542.423054
 30
0.0
 10
364.956324
 20
542.820053
 30
0.0
 10
364.912324
 20
543.236054
 30
0.0
 10
364.956324
 20
543.652053
 30
0.0
 10
365.085309
 20
544.049051
 30
0.0
 10
365.294303
 20
544.412051
 30
0.0
 10
365.574311
 20
544.722050
 30
0.0
 10
365.912316
 20
544.968051
 30
0.0
 10
366.294321
 20
545.138051
 30
0.0
 10
366.703313
 20
545.225051
 30
0.0
 10
367.121301
 20
545.225051
 30
0.0
 10
367.530320
 20
545.138051
 30
0.0
 10
367.912299
 20
544.968051
 30
0.0
 10
368.250303
 20
544.722050
 30
0.0
 10
368.530312
 20
544.412051
 30
0.0
 10
368.739306
 20
544.049051
 30
0.0
 10
368.868316
 20
543.652053
 30
0.0
 10
368.912317
 20
543.236054
 30
0.0
 10
368.868316
 20
542.820053
 30
0.0
 10
368.739306
 20
542.423054
 30
0.0
 10
368.530312
 20
542.060054
 30
0.0
 10
368.250303
 20
541.750055
 30
0.0
 10
367.912299
 20
541.504054
 30
0.0
 10
367.530320
 20
541.334054
 30
0.0
 10
367.121301
 20
541.247057
 30
0.0
  0
LWPOLYLINE
  5
133
100
AcDbEntity
  8
Layer_1
 62
7
100
AcDbPolyline
 90
30
 70
1
 10
-243.296019
 20
541.247057
 30
0.0
 10
-243.704918
 20
541.334054
 30
0.0
 10
-244.086918
 20
541.504054
 30
0.0
 10
-244.425217
 20
541.750055
 30
0.0
 10
-244.704918
 20
542.060054
 30
0.0
 10
-244.914018
 20
542.423054
 30
0.0
 10
-245.043216
 20
542.820053
 30
0.0
 10
-245.086918
 20
543.236054
 30
0.0
 10
-245.043216
 20
543.652053
 30
0.0
 10
-244.914018
 20
544.049051
 30
0.0
 10
-244.704918
 20
544.412051
 30
0.0
 10
-244.425217
 20
544.722050
 30
0.0
 10
-244.086918
 20
544.968051
 30
0.0
 10
-243.704918
 20
545.138051
 30
0.0
 10
-243.296019
 20
545.225051
 30
0.0
 10
-242.877819
 20
545.225051
 30
0.0
 10
-242.468919
 20
545.138051
 30
0.0
 10
-242.086919
 20
544.968051
 30
0.0
 10
-241.748621
 20
544.722050
 30
0.0
 10
-241.468922
 20
544.412051
 30
0.0
 10
-241.259822
 20
544.049051
 30
0.0
 10
-241.130621
 20
543.652053
 30
0.0
 10
-241.086923
 20
543.236054
 30
0.0
 10
-241.130621
 20
542.820053
 30
0.0
 10
-241.259822
 20
542.423054
 30
0.0
 10
-241.468922
 20
542.060054
 30
0.0
 10
-241.748621
 20
541.750055
 30
0.0
 10
-242.086919
 20
541.504054
 30
0.0
 10
-242.468919
 20
541.334054
 30
0.0
 10
-242.877819
 20
541.247057
 30
0.0
  0
LWPOLYLINE
  5
134
100
AcDbEntity
  8
Layer_1
 62
7
100
AcDbPolyline
 90
30
 70
1
 10
-243.296019
 20
341.247306
 30
0.0
 10
-243.704918
 20
341.334209
 30
0.0
 10
-244.086918
 20
341.504206
 30
0.0
 10
-244.425217
 20
341.750006
 30
0.0
 10
-244.704918
 20
342.060706
 30
0.0
 10
-244.914018
 20
342.422806
 30
0.0
 10
-245.043216
 20
342.820506
 30
0.0
 10
-245.086918
 20
343.236304
 30
0.0
 10
-245.043216
 20
343.652104
 30
0.0
 10
-244.914018
 20
344.049804
 30
0.0
 10
-244.704918
 20
344.411904
 30
0.0
 10
-244.425217
 20
344.722604
 30
0.0
 10
-244.086918
 20
344.968304
 30
0.0
 10
-243.704918
 20
345.138402
 30
0.0
 10
-243.296019
 20
345.225301
 30
0.0
 10
-242.877819
 20
345.225301
 30
0.0
 10
-242.468919
 20
345.138402
 30
0.0
 10
-242.086919
 20
344.968304
 30
0.0
 10
-241.748621
 20
344.722604
 30
0.0
 10
-241.468922
 20
344.411904
 30
0.0
 10
-241.259822
 20
344.049804
 30
0.0
 10
-241.130621
 20
343.652104
 30
0.0
 10
-241.086923
 20
343.236304
 30
0.0
 10
-241.130621
 20
342.820506
 30
0.0
 10
-241.259822
 20
342.422806
 30
0.0
 10
-241.468922
 20
342.060706
 30
0.0
 10
-241.748621
 20
341.750006
 30
0.0
 10
-242.086919
 20
341.504206
 30
0.0
 10
-242.468919
 20
341.334209
 30
0.0
 10
-242.877819
 20
341.247306
 30
0.0
  0
LWPOLYLINE
  5
135
100
AcDbEntity
  8
Layer_1
 62
7
100
AcDbPolyline
 90
30
 70
1
 10
366.703313
 20
341.247306
 30
0.0
 10
366.294321
 20
341.334209
 30
0.0
 10
365.912316
 20
341.504206
 30
0.0
 10
365.574311
 20
341.750006
 30
0.0
 10
365.294303
 20
342.060706
 30
0.0
 10
365.085309
 20
342.422806
 30
0.0
 10
364.956324
 20
342.820506
 30
0.0
 10
364.912324
 20
343.236304
 30
0.0
 10
364.956324
 20
343.652104
 30
0.0
 10
365.085309
 20
344.049804
 30
0.0
 10
365.294303
 20
344.411904
 30
0.0
 10
365.574311
 20
344.722604
 30
0.0
 10
365.912316
 20
344.968304
 30
0.0
 10
366.294321
 20
345.138402
 30
0.0
 10
366.703313
 20
345.225301
 30
0.0
 10
367.121301
 20
345.225301
 30
0.0
 10
367.530320
 20
345.138402
 30
0.0
 10
367.912299
 20
344.968304
 30
0.0
 10
368.250303
 20
344.722604
 30
0.0
 10
368.530312
 20
344.411904
 30
0.0
 10
368.739306
 20
344.049804
 30
0.0
 10
368.868316
 20
343.652104
 30
0.0
 10
368.912317
 20
343.236304
 30
0.0
 10
368.868316
 20
342.820506
 30
0.0
 10
368.739306
 20
342.422806
 30
0.0
 10
368.530312
 20
342.060706
 30
0.0
 10
368.250303
 20
341.750006
 30
0.0
 10
367.912299
 20
341.504206
 30
0.0
 10
367.530320
 20
341.334209
 30
0.0
 10
367.121301
 20
341.247306
 30
0.0
  0
LWPOLYLINE
  5
136
100
AcDbEntity
  8
Layer_1
 62
7
100
AcDbPolyline
 90
30
 70
1
 10
206.703517
 20
161.247544
 30
0.0
 10
206.294525
 20
161.334539
 30
0.0
 10
205.912520
 20
161.504533
 30
0.0
 10
205.574515
 20
161.750543
 30
0.0
 10
205.294507
 20
162.060528
 30
0.0
 10
205.085513
 20
162.423536
 30
0.0
 10
204.956529
 20
162.820543
 30
0.0
 10
204.912528
 20
163.236520
 30
0.0
 10
204.956529
 20
163.652524
 30
0.0
 10
205.085513
 20
164.049531
 30
0.0
 10
205.294507
 20
164.412539
 30
0.0
 10
205.574515
 20
164.722524
 30
0.0
 10
205.912520
 20
164.968533
 30
0.0
 10
206.294525
 20
165.138528
 30
0.0
 10
206.703517
 20
165.225523
 30
0.0
 10
207.121505
 20
165.225523
 30
0.0
 10
207.530524
 20
165.138528
 30
0.0
 10
207.912503
 20
164.968533
 30
0.0
 10
208.250508
 20
164.722524
 30
0.0
 10
208.530516
 20
164.412539
 30
0.0
 10
208.739510
 20
164.049531
 30
0.0
 10
208.868520
 20
163.652524
 30
0.0
 10
208.912521
 20
163.236520
 30
0.0
 10
208.868520
 20
162.820543
 30
0.0
 10
208.739510
 20
162.423536
 30
0.0
 10
208.530516
 20
162.060528
 30
0.0
 10
208.250508
 20
161.750543
 30
0.0
 10
207.912503
 20
161.504533
 30
0.0
 10
207.530524
 20
161.334539
 30
0.0
 10
207.121505
 20
161.247544
 30
0.0
  0
LWPOLYLINE
  5
137
100
AcDbEntity
  8
Layer_1
 62
7
100
AcDbPolyline
 90
30
 70
1
 10
-243.296019
 20
161.247544
 30
0.0
 10
-243.704918
 20
161.334539
 30
0.0
 10
-244.086918
 20
161.504533
 30
0.0
 10
-244.425217
 20
161.750543
 30
0.0
 10
-244.704918
 20
162.060528
 30
0.0
 10
-244.914018
 20
162.423536
 30
0.0
 10
-245.043216
 20
162.820543
 30
0.0
 10
-245.086918
 20
163.236520
 30
0.0
 10
-245.043216
 20
163.652524
 30
0.0
 10
-244.914018
 20
164.049531
 30
0.0
 10
-244.704918
 20
164.412539
 30
0.0
 10
-244.425217
 20
164.722524
 30
0.0
 10
-244.086918
 20
164.968533
 30
0.0
 10
-243.704918
 20
165.138528
 30
0.0
 10
-243.296019
 20
165.225523
 30
0.0
 10
-242.877819
 20
165.225523
 30
0.0
 10
-242.468919
 20
165.138528
 30
0.0
 10
-242.086919
 20
164.968533
 30
0.0
 10
-241.748621
 20
164.722524
 30
0.0
 10
-241.468922
 20
164.412539
 30
0.0
 10
-241.259822
 20
164.049531
 30
0.0
 10
-241.130621
 20
163.652524
 30
0.0
 10
-241.086923
 20
163.236520
 30
0.0
 10
-241.130621
 20
162.820543
 30
0.0
 10
-241.259822
 20
162.423536
 30
0.0
 10
-241.468922
 20
162.060528
 30
0.0
 10
-241.748621
 20
161.750543
 30
0.0
 10
-242.086919
 20
161.504533
 30
0.0
 10
-242.468919
 20
161.334539
 30
0.0
 10
-242.877819
 20
161.247544
 30
0.0
  0
LWPOLYLINE
  5
138
100
AcDbEntity
  8
Layer_1
 62
7
100
AcDbPolyline
 90
30
 70
1
 10
-43.296171
 20
161.247544
 30
0.0
 10
-43.705171
 20
161.334539
 30
0.0
 10
-44.087171
 20
161.504533
 30
0.0
 10
-44.425170
 20
161.750543
 30
0.0
 10
-44.705170
 20
162.060528
 30
0.0
 10
-44.914170
 20
162.423536
 30
0.0
 10
-45.043170
 20
162.820543
 30
0.0
 10
-45.087170
 20
163.236520
 30
0.0
 10
-45.043170
 20
163.652524
 30
0.0
 10
-44.914170
 20
164.049531
 30
0.0
 10
-44.705170
 20
164.412539
 30
0.0
 10
-44.425170
 20
164.722524
 30
0.0
 10
-44.087171
 20
164.968533
 30
0.0
 10
-43.705171
 20
165.138528
 30
0.0
 10
-43.296171
 20
165.225523
 30
0.0
 10
-42.878172
 20
165.225523
 30
0.0
 10
-42.469171
 20
165.138528
 30
0.0
 10
-42.087172
 20
164.968533
 30
0.0
 10
-41.749172
 20
164.722524
 30
0.0
 10
-41.469175
 20
164.412539
 30
0.0
 10
-41.260173
 20
164.049531
 30
0.0
 10
-41.131175
 20
163.652524
 30
0.0
 10
-41.087175
 20
163.236520
 30
0.0
 10
-41.131175
 20
162.820543
 30
0.0
 10
-41.260173
 20
162.423536
 30
0.0
 10
-41.469175
 20
162.060528
 30
0.0
 10
-41.749172
 20
161.750543
 30
0.0
 10
-42.087172
 20
161.504533
 30
0.0
 10
-42.469171
 20
161.334539
 30
0.0
 10
-42.878172
 20
161.247544
 30
0.0
  0
LWPOLYLINE
  5
139
100
AcDbEntity
  8
Layer_1
 62
7
100
AcDbPolyline
 90
30
 70
1
 10
366.703313
 20
161.247544
 30
0.0
 10
366.294321
 20
161.334539
 30
0.0
 10
365.912316
 20
161.504533
 30
0.0
 10
365.574311
 20
161.750543
 30
0.0
 10
365.294303
 20
162.060528
 30
0.0
 10
365.085309
 20
162.423536
 30
0.0
 10
364.956324
 20
162.820543
 30
0.0
 10
364.912324
 20
163.236520
 30
0.0
 10
364.956324
 20
163.652524
 30
0.0
 10
365.085309
 20
164.049531
 30
0.0
 10
365.294303
 20
164.412539
 30
0.0
 10
365.574311
 20
164.722524
 30
0.0
 10
365.912316
 20
164.968533
 30
0.0
 10
366.294321
 20
165.138528
 30
0.0
 10
366.703313
 20
165.225523
 30
0.0
 10
367.121301
 20
165.225523
 30
0.0
 10
367.530320
 20
165.138528
 30
0.0
 10
367.912299
 20
164.968533
 30
0.0
 10
368.250303
 20
164.722524
 30
0.0
 10
368.530312
 20
164.412539
 30
0.0
 10
368.739306
 20
164.049531
 30
0.0
 10
368.868316
 20
163.652524
 30
0.0
 10
368.912317
 20
163.236520
 30
0.0
 10
368.868316
 20
162.820543
 30
0.0
 10
368.739306
 20
162.423536
 30
0.0
 10
368.530312
 20
162.060528
 30
0.0
 10
368.250303
 20
161.750543
 30
0.0
 10
367.912299
 20
161.504533
 30
0.0
 10
367.530320
 20
161.334539
 30
0.0
 10
367.121301
 20
161.247544
 30
0.0
  0
LWPOLYLINE
  5
13a
100
AcDbEntity
  8
Layer_1
 62
7
100
AcDbPolyline
 90
4
 70
1
 10
-280.959716
 20
707.714380
 30
0.0
 10
-914.958903
 20
707.714380
 30
0.0
 10
-914.958903
 20
67.715169
 30
0.0
 10
-280.959716
 20
67.715169
 30
0.0
  0
LWPOLYLINE
  5
13b
100
AcDbEntity
  8
Layer_1
 62
7
100
AcDbPolyline
 90
20
 70
1
 10
-338.577638
 20
697.812281
 30
0.0
 10
-339.135618
 20
698.096364
 30
0.0
 10
-339.577630
 20
698.538800
 30
0.0
 10
-339.861633
 20
699.096356
 30
0.0
 10
-339.959635
 20
699.714369
 30
0.0
 10
-339.861633
 20
700.332408
 30
0.0
 10
-339.577630
 20
700.889964
 30
0.0
 10
-339.135618
 20
701.332426
 30
0.0
 10
-338.577638
 20
701.616482
 30
0.0
 10
-337.959625
 20
701.714378
 30
0.0
 10
-337.341639
 20
701.616482
 30
0.0
 10
-336.783633
 20
701.332426
 30
0.0
 10
-336.341621
 20
700.889964
 30
0.0
 10
-336.057644
 20
700.332408
 30
0.0
 10
-335.959643
 20
699.714369
 30
0.0
 10
-336.057644
 20
699.096356
 30
0.0
 10
-336.341621
 20
698.538800
 30
0.0
 10
-336.783633
 20
698.096364
 30
0.0
 10
-337.341639
 20
697.812281
 30
0.0
 10
-337.959625
 20
697.714386
 30
0.0
  0
LWPOLYLINE
  5
13c
100
AcDbEntity
  8
Layer_1
 62
7
100
AcDbPolyline
 90
20
 70
1
 10
-868.576964
 20
697.812281
 30
0.0
 10
-869.134562
 20
698.096364
 30
0.0
 10
-869.576961
 20
698.538800
 30
0.0
 10
-869.861062
 20
699.096356
 30
0.0
 10
-869.958960
 20
699.714369
 30
0.0
 10
-869.861062
 20
700.332408
 30
0.0
 10
-869.576961
 20
700.889964
 30
0.0
 10
-869.134562
 20
701.332426
 30
0.0
 10
-868.576964
 20
701.616482
 30
0.0
 10
-867.958964
 20
701.714378
 30
0.0
 10
-867.340964
 20
701.616482
 30
0.0
 10
-866.783366
 20
701.332426
 30
0.0
 10
-866.340965
 20
700.889964
 30
0.0
 10
-866.056866
 20
700.332408
 30
0.0
 10
-865.958965
 20
699.714369
 30
0.0
 10
-866.056866
 20
699.096356
 30
0.0
 10
-866.340965
 20
698.538800
 30
0.0
 10
-866.783366
 20
698.096364
 30
0.0
 10
-867.340964
 20
697.812281
 30
0.0
 10
-867.958964
 20
697.714386
 30
0.0
  0
LWPOLYLINE
  5
13d
100
AcDbEntity
  8
Layer_1
 62
7
100
AcDbPolyline
 90
20
 70
1
 10
-598.577304
 20
697.812281
 30
0.0
 10
-599.135302
 20
698.096364
 30
0.0
 10
-599.577301
 20
698.538800
 30
0.0
 10
-599.861302
 20
699.096356
 30
0.0
 10
-599.959301
 20
699.714369
 30
0.0
 10
-599.861302
 20
700.332408
 30
0.0
 10
-599.577301
 20
700.889964
 30
0.0
 10
-599.135302
 20
701.332426
 30
0.0
 10
-598.577304
 20
701.616482
 30
0.0
 10
-597.959304
 20
701.714378
 30
0.0
 10
-597.341305
 20
701.616482
 30
0.0
 10
-596.783304
 20
701.332426
 30
0.0
 10
-596.341305
 20
700.889964
 30
0.0
 10
-596.057307
 20
700.332408
 30
0.0
 10
-595.959306
 20
699.714369
 30
0.0
 10
-596.057307
 20
699.096356
 30
0.0
 10
-596.341305
 20
698.538800
 30
0.0
 10
-596.783304
 20
698.096364
 30
0.0
 10
-597.341305
 20
697.812281
 30
0.0
 10
-597.959304
 20
697.714386
 30
0.0
  0
LWPOLYLINE
  5
13e
100
AcDbEntity
  8
Layer_1
 62
7
100
AcDbPolyline
 90
20
 70
1
 10
-903.576918
 20
672.812310
 30
0.0
 10
-904.134519
 20
673.096419
 30
0.0
 10
-904.576918
 20
673.538802
 30
0.0
 10
-904.861017
 20
674.096411
 30
0.0
 10
-904.958918
 20
674.714424
 30
0.0
 10
-904.861017
 20
675.332410
 30
0.0
 10
-904.576918
 20
675.890019
 30
0.0
 10
-904.134519
 20
676.332402
 30
0.0
 10
-903.576918
 20
676.616511
 30
0.0
 10
-902.958919
 20
676.714407
 30
0.0
 10
-902.340919
 20
676.616511
 30
0.0
 10
-901.783321
 20
676.332402
 30
0.0
 10
-901.340922
 20
675.890019
 30
0.0
 10
-901.056821
 20
675.332410
 30
0.0
 10
-900.958923
 20
674.714424
 30
0.0
 10
-901.056821
 20
674.096411
 30
0.0
 10
-901.340922
 20
673.538802
 30
0.0
 10
-901.783321
 20
673.096419
 30
0.0
 10
-902.340919
 20
672.812310
 30
0.0
 10
-902.958919
 20
672.714414
 30
0.0
  0
LWPOLYLINE
  5
13f
100
AcDbEntity
  8
Layer_1
 62
7
100
AcDbPolyline
 90
20
 70
1
 10
-293.577679
 20
672.812310
 30
0.0
 10
-294.135685
 20
673.096419
 30
0.0
 10
-294.577697
 20
673.538802
 30
0.0
 10
-294.861674
 20
674.096411
 30
0.0
 10
-294.959676
 20
674.714424
 30
0.0
 10
-294.861674
 20
675.332410
 30
0.0
 10
-294.577697
 20
675.890019
 30
0.0
 10
-294.135685
 20
676.332402
 30
0.0
 10
-293.577679
 20
676.616511
 30
0.0
 10
-292.959693
 20
676.714407
 30
0.0
 10
-292.341680
 20
676.616511
 30
0.0
 10
-291.783701
 20
676.332402
 30
0.0
 10
-291.341688
 20
675.890019
 30
0.0
 10
-291.057685
 20
675.332410
 30
0.0
 10
-290.959683
 20
674.714424
 30
0.0
 10
-291.057685
 20
674.096411
 30
0.0
 10
-291.341688
 20
673.538802
 30
0.0
 10
-291.783701
 20
673.096419
 30
0.0
 10
-292.341680
 20
672.812310
 30
0.0
 10
-292.959693
 20
672.714414
 30
0.0
  0
LWPOLYLINE
  5
140
100
AcDbEntity
  8
Layer_1
 62
7
100
AcDbPolyline
 90
20
 70
1
 10
-903.576918
 20
397.812757
 30
0.0
 10
-904.134519
 20
398.096760
 30
0.0
 10
-904.576918
 20
398.538772
 30
0.0
 10
-904.861017
 20
399.096752
 30
0.0
 10
-904.958918
 20
399.714764
 30
0.0
 10
-904.861017
 20
400.332751
 30
0.0
 10
-904.576918
 20
400.890757
 30
0.0
 10
-904.134519
 20
401.332769
 30
0.0
 10
-903.576918
 20
401.616746
 30
0.0
 10
-902.958919
 20
401.714747
 30
0.0
 10
-902.340919
 20
401.616746
 30
0.0
 10
-901.783321
 20
401.332769
 30
0.0
 10
-901.340922
 20
400.890757
 30
0.0
 10
-901.056821
 20
400.332751
 30
0.0
 10
-900.958923
 20
399.714764
 30
0.0
 10
-901.056821
 20
399.096752
 30
0.0
 10
-901.340922
 20
398.538772
 30
0.0
 10
-901.783321
 20
398.096760
 30
0.0
 10
-902.340919
 20
397.812757
 30
0.0
 10
-902.958919
 20
397.714755
 30
0.0
  0
LWPOLYLINE
  5
141
100
AcDbEntity
  8
Layer_1
 62
7
100
AcDbPolyline
 90
20
 70
1
 10
-293.577679
 20
397.812757
 30
0.0
 10
-294.135685
 20
398.096760
 30
0.0
 10
-294.577697
 20
398.538772
 30
0.0
 10
-294.861674
 20
399.096752
 30
0.0
 10
-294.959676
 20
399.714764
 30
0.0
 10
-294.861674
 20
400.332751
 30
0.0
 10
-294.577697
 20
400.890757
 30
0.0
 10
-294.135685
 20
401.332769
 30
0.0
 10
-293.577679
 20
401.616746
 30
0.0
 10
-292.959693
 20
401.714747
 30
0.0
 10
-292.341680
 20
401.616746
 30
0.0
 10
-291.783701
 20
401.332769
 30
0.0
 10
-291.341688
 20
400.890757
 30
0.0
 10
-291.057685
 20
400.332751
 30
0.0
 10
-290.959683
 20
399.714764
 30
0.0
 10
-291.057685
 20
399.096752
 30
0.0
 10
-291.341688
 20
398.538772
 30
0.0
 10
-291.783701
 20
398.096760
 30
0.0
 10
-292.341680
 20
397.812757
 30
0.0
 10
-292.959693
 20
397.714755
 30
0.0
  0
LWPOLYLINE
  5
142
100
AcDbEntity
  8
Layer_1
 62
7
100
AcDbPolyline
 90
20
 70
1
 10
-903.576918
 20
97.813153
 30
0.0
 10
-904.134519
 20
98.097129
 30
0.0
 10
-904.576918
 20
98.539142
 30
0.0
 10
-904.861017
 20
99.097147
 30
0.0
 10
-904.958918
 20
99.715134
 30
0.0
 10
-904.861017
 20
100.333147
 30
0.0
 10
-904.576918
 20
100.891126
 30
0.0
 10
-904.134519
 20
101.333138
 30
0.0
 10
-903.576918
 20
101.617142
 30
0.0
 10
-902.958919
 20
101.715143
 30
0.0
 10
-902.340919
 20
101.617142
 30
0.0
 10
-901.783321
 20
101.333138
 30
0.0
 10
-901.340922
 20
100.891126
 30
0.0
 10
-901.056821
 20
100.333147
 30
0.0
 10
-900.958923
 20
99.715134
 30
0.0
 10
-901.056821
 20
99.097147
 30
0.0
 10
-901.340922
 20
98.539142
 30
0.0
 10
-901.783321
 20
98.097129
 30
0.0
 10
-902.340919
 20
97.813153
 30
0.0
 10
-902.958919
 20
97.715151
 30
0.0
  0
LWPOLYLINE
  5
143
100
AcDbEntity
  8
Layer_1
 62
7
100
AcDbPolyline
 90
20
 70
1
 10
-293.577679
 20
97.813153
 30
0.0
 10
-294.135685
 20
98.097129
 30
0.0
 10
-294.577697
 20
98.539142
 30
0.0
 10
-294.861674
 20
99.097147
 30
0.0
 10
-294.959676
 20
99.715134
 30
0.0
 10
-294.861674
 20
100.333147
 30
0.0
 10
-294.577697
 20
100.891126
 30
0.0
 10
-294.135685
 20
101.333138
 30
0.0
 10
-293.577679
 20
101.617142
 30
0.0
 10
-292.959693
 20
101.715143
 30
0.0
 10
-292.341680
 20
101.617142
 30
0.0
 10
-291.783701
 20
101.333138
 30
0.0
 10
-291.341688
 20
100.891126
 30
0.0
 10
-291.057685
 20
100.333147
 30
0.0
 10
-290.959683
 20
99.715134
 30
0.0
 10
-291.057685
 20
99.097147
 30
0.0
 10
-291.341688
 20
98.539142
 30
0.0
 10
-291.783701
 20
98.097129
 30
0.0
 10
-292.341680
 20
97.813153
 30
0.0
 10
-292.959693
 20
97.715151
 30
0.0
  0
LWPOLYLINE
  5
144
100
AcDbEntity
  8
Layer_1
 62
7
100
AcDbPolyline
 90
20
 70
1
 10
-338.577638
 20
73.813173
 30
0.0
 10
-339.135618
 20
74.097176
 30
0.0
 10
-339.577630
 20
74.539162
 30
0.0
 10
-339.861633
 20
75.097167
 30
0.0
 10
-339.959635
 20
75.715180
 30
0.0
 10
-339.861633
 20
76.333167
 30
0.0
 10
-339.577630
 20
76.891172
 30
0.0
 10
-339.135618
 20
77.333158
 30
0.0
 10
-338.577638
 20
77.617162
 30
0.0
 10
-337.959625
 20
77.715163
 30
0.0
 10
-337.341639
 20
77.617162
 30
0.0
 10
-336.783633
 20
77.333158
 30
0.0
 10
-336.341621
 20
76.891172
 30
0.0
 10
-336.057644
 20
76.333167
 30
0.0
 10
-335.959643
 20
75.715180
 30
0.0
 10
-336.057644
 20
75.097167
 30
0.0
 10
-336.341621
 20
74.539162
 30
0.0
 10
-336.783633
 20
74.097176
 30
0.0
 10
-337.341639
 20
73.813173
 30
0.0
 10
-337.959625
 20
73.715171
 30
0.0
  0
LWPOLYLINE
  5
145
100
AcDbEntity
  8
Layer_1
 62
7
100
AcDbPolyline
 90
20
 70
1
 10
-598.577304
 20
73.813173
 30
0.0
 10
-599.135302
 20
74.097176
 30
0.0
 10
-599.577301
 20
74.539162
 30
0.0
 10
-599.861302
 20
75.097167
 30
0.0
 10
-599.959301
 20
75.715180
 30
0.0
 10
-599.861302
 20
76.333167
 30
0.0
 10
-599.577301
 20
76.891172
 30
0.0
 10
-599.135302
 20
77.333158
 30
0.0
 10
-598.577304
 20
77.617162
 30
0.0
 10
-597.959304
 20
77.715163
 30
0.0
 10
-597.341305
 20
77.617162
 30
0.0
 10
-596.783304
 20
77.333158
 30
0.0
 10
-596.341305
 20
76.891172
 30
0.0
 10
-596.057307
 20
76.333167
 30
0.0
 10
-595.959306
 20
75.715180
 30
0.0
 10
-596.057307
 20
75.097167
 30
0.0
 10
-596.341305
 20
74.539162
 30
0.0
 10
-596.783304
 20
74.097176
 30
0.0
 10
-597.341305
 20
73.813173
 30
0.0
 10
-597.959304
 20
73.715171
 30
0.0
  0
LWPOLYLINE
  5
146
100
AcDbEntity
  8
Layer_1
 62
7
100
AcDbPolyline
 90
20
 70
1
 10
-868.576964
 20
73.813173
 30
0.0
 10
-869.134562
 20
74.097176
 30
0.0
 10
-869.576961
 20
74.539162
 30
0.0
 10
-869.861062
 20
75.097167
 30
0.0
 10
-869.958960
 20
75.715180
 30
0.0
 10
-869.861062
 20
76.333167
 30
0.0
 10
-869.576961
 20
76.891172
 30
0.0
 10
-869.134562
 20
77.333158
 30
0.0
 10
-868.576964
 20
77.617162
 30
0.0
 10
-867.958964
 20
77.715163
 30
0.0
 10
-867.340964
 20
77.617162
 30
0.0
 10
-866.783366
 20
77.333158
 30
0.0
 10
-866.340965
 20
76.891172
 30
0.0
 10
-866.056866
 20
76.333167
 30
0.0
 10
-865.958965
 20
75.715180
 30
0.0
 10
-866.056866
 20
75.097167
 30
0.0
 10
-866.340965
 20
74.539162
 30
0.0
 10
-866.783366
 20
74.097176
 30
0.0
 10
-867.340964
 20
73.813173
 30
0.0
 10
-867.958964
 20
73.715171
 30
0.0
  0
ENDSEC
  0
SECTION
  2
OBJECTS
  0
DICTIONARY
  5
C
330
0
100
AcDbDictionary
  3
ACAD_GROUP
350
D
  3
ACAD_MLINESTYLE
350
17
  0
DICTIONARY
  5
D
330
C
100
AcDbDictionary
  0
DICTIONARY
  5
1A
330
C
100
AcDbDictionary
  0
DICTIONARY
  5
17
330
C
100
AcDbDictionary
  3
STANDARD
350
18
  0
DICTIONARY
  5
19
330
C
100
AcDbDictionary
  0
ENDSEC
  0
EOF
