  0
SECTION
  2
BLOCKS
  0
ENDSEC
  0
SECTION
  2
ENTITIES
  0
LINE
  8
0
 10
574.454
 20
1
 11
-75.546
 21
1
  0
LINE
  8
0
 10
-75.546
 20
1
 11
-75.546
 21
-637
  0
LINE
  8
0
 10
-75.546
 20
-637
 11
574.454
 21
-637
  0
LINE
  8
0
 10
574.454
 20
-637
 11
574.454
 21
1
  0
LINE
  8
0
 10
-58.7394
 20
-163.84
 11
-59.1177
 21
-163.759
  0
LINE
  8
0
 10
-59.1177
 20
-163.759
 11
-59.471
 21
-163.602
  0
LINE
  8
0
 10
-59.471
 20
-163.602
 11
-59.7839
 21
-163.375
  0
LINE
  8
0
 10
-59.7839
 20
-163.375
 11
-60.0427
 21
-163.087
  0
LINE
  8
0
 10
-60.0427
 20
-163.087
 11
-60.2361
 21
-162.752
  0
LINE
  8
0
 10
-60.2361
 20
-162.752
 11
-60.3556
 21
-162.385
  0
LINE
  8
0
 10
-60.3556
 20
-162.385
 11
-60.396
 21
-162
  0
LINE
  8
0
 10
-60.396
 20
-162
 11
-60.3556
 21
-161.615
  0
LINE
  8
0
 10
-60.3556
 20
-161.615
 11
-60.2361
 21
-161.248
  0
LINE
  8
0
 10
-60.2361
 20
-161.248
 11
-60.0427
 21
-160.913
  0
LINE
  8
0
 10
-60.0427
 20
-160.913
 11
-59.7839
 21
-160.625
  0
LINE
  8
0
 10
-59.7839
 20
-160.625
 11
-59.471
 21
-160.398
  0
LINE
  8
0
 10
-59.471
 20
-160.398
 11
-59.1177
 21
-160.241
  0
LINE
  8
0
 10
-59.1177
 20
-160.241
 11
-58.7394
 21
-160.16
  0
LINE
  8
0
 10
-58.7394
 20
-160.16
 11
-58.3526
 21
-160.16
  0
LINE
  8
0
 10
-58.3526
 20
-160.16
 11
-57.9743
 21
-160.241
  0
LINE
  8
0
 10
-57.9743
 20
-160.241
 11
-57.621
 21
-160.398
  0
LINE
  8
0
 10
-57.621
 20
-160.398
 11
-57.3081
 21
-160.625
  0
LINE
  8
0
 10
-57.3081
 20
-160.625
 11
-57.0493
 21
-160.913
  0
LINE
  8
0
 10
-57.0493
 20
-160.913
 11
-56.8559
 21
-161.248
  0
LINE
  8
0
 10
-56.8559
 20
-161.248
 11
-56.7364
 21
-161.615
  0
LINE
  8
0
 10
-56.7364
 20
-161.615
 11
-56.696
 21
-162
  0
LINE
  8
0
 10
-56.696
 20
-162
 11
-56.7364
 21
-162.385
  0
LINE
  8
0
 10
-56.7364
 20
-162.385
 11
-56.8559
 21
-162.752
  0
LINE
  8
0
 10
-56.8559
 20
-162.752
 11
-57.0493
 21
-163.087
  0
LINE
  8
0
 10
-57.0493
 20
-163.087
 11
-57.3081
 21
-163.375
  0
LINE
  8
0
 10
-57.3081
 20
-163.375
 11
-57.621
 21
-163.602
  0
LINE
  8
0
 10
-57.621
 20
-163.602
 11
-57.9743
 21
-163.759
  0
LINE
  8
0
 10
-57.9743
 20
-163.759
 11
-58.3526
 21
-163.84
  0
LINE
  8
0
 10
-58.3526
 20
-163.84
 11
-58.7394
 21
-163.84
  0
LINE
  8
0
 10
-58.7394
 20
-193.84
 11
-59.1177
 21
-193.759
  0
LINE
  8
0
 10
-59.1177
 20
-193.759
 11
-59.471
 21
-193.602
  0
LINE
  8
0
 10
-59.471
 20
-193.602
 11
-59.7839
 21
-193.375
  0
LINE
  8
0
 10
-59.7839
 20
-193.375
 11
-60.0427
 21
-193.087
  0
LINE
  8
0
 10
-60.0427
 20
-193.087
 11
-60.2361
 21
-192.752
  0
LINE
  8
0
 10
-60.2361
 20
-192.752
 11
-60.3556
 21
-192.385
  0
LINE
  8
0
 10
-60.3556
 20
-192.385
 11
-60.396
 21
-192
  0
LINE
  8
0
 10
-60.396
 20
-192
 11
-60.3556
 21
-191.615
  0
LINE
  8
0
 10
-60.3556
 20
-191.615
 11
-60.2361
 21
-191.248
  0
LINE
  8
0
 10
-60.2361
 20
-191.248
 11
-60.0427
 21
-190.913
  0
LINE
  8
0
 10
-60.0427
 20
-190.913
 11
-59.7839
 21
-190.625
  0
LINE
  8
0
 10
-59.7839
 20
-190.625
 11
-59.471
 21
-190.398
  0
LINE
  8
0
 10
-59.471
 20
-190.398
 11
-59.1177
 21
-190.241
  0
LINE
  8
0
 10
-59.1177
 20
-190.241
 11
-58.7394
 21
-190.16
  0
LINE
  8
0
 10
-58.7394
 20
-190.16
 11
-58.3526
 21
-190.16
  0
LINE
  8
0
 10
-58.3526
 20
-190.16
 11
-57.9743
 21
-190.241
  0
LINE
  8
0
 10
-57.9743
 20
-190.241
 11
-57.621
 21
-190.398
  0
LINE
  8
0
 10
-57.621
 20
-190.398
 11
-57.3081
 21
-190.625
  0
LINE
  8
0
 10
-57.3081
 20
-190.625
 11
-57.0493
 21
-190.913
  0
LINE
  8
0
 10
-57.0493
 20
-190.913
 11
-56.8559
 21
-191.248
  0
LINE
  8
0
 10
-56.8559
 20
-191.248
 11
-56.7364
 21
-191.615
  0
LINE
  8
0
 10
-56.7364
 20
-191.615
 11
-56.696
 21
-192
  0
LINE
  8
0
 10
-56.696
 20
-192
 11
-56.7364
 21
-192.385
  0
LINE
  8
0
 10
-56.7364
 20
-192.385
 11
-56.8559
 21
-192.752
  0
LINE
  8
0
 10
-56.8559
 20
-192.752
 11
-57.0493
 21
-193.087
  0
LINE
  8
0
 10
-57.0493
 20
-193.087
 11
-57.3081
 21
-193.375
  0
LINE
  8
0
 10
-57.3081
 20
-193.375
 11
-57.621
 21
-193.602
  0
LINE
  8
0
 10
-57.621
 20
-193.602
 11
-57.9743
 21
-193.759
  0
LINE
  8
0
 10
-57.9743
 20
-193.759
 11
-58.3526
 21
-193.84
  0
LINE
  8
0
 10
-58.3526
 20
-193.84
 11
-58.7394
 21
-193.84
  0
LINE
  8
0
 10
565.761
 20
-328.84
 11
565.382
 21
-328.759
  0
LINE
  8
0
 10
565.382
 20
-328.759
 11
565.029
 21
-328.602
  0
LINE
  8
0
 10
565.029
 20
-328.602
 11
564.716
 21
-328.375
  0
LINE
  8
0
 10
564.716
 20
-328.375
 11
564.457
 21
-328.087
  0
LINE
  8
0
 10
564.457
 20
-328.087
 11
564.264
 21
-327.752
  0
LINE
  8
0
 10
564.264
 20
-327.752
 11
564.144
 21
-327.385
  0
LINE
  8
0
 10
564.144
 20
-327.385
 11
564.104
 21
-327
  0
LINE
  8
0
 10
564.104
 20
-327
 11
564.144
 21
-326.615
  0
LINE
  8
0
 10
564.144
 20
-326.615
 11
564.264
 21
-326.248
  0
LINE
  8
0
 10
564.264
 20
-326.248
 11
564.457
 21
-325.913
  0
LINE
  8
0
 10
564.457
 20
-325.913
 11
564.716
 21
-325.625
  0
LINE
  8
0
 10
564.716
 20
-325.625
 11
565.029
 21
-325.398
  0
LINE
  8
0
 10
565.029
 20
-325.398
 11
565.382
 21
-325.241
  0
LINE
  8
0
 10
565.382
 20
-325.241
 11
565.761
 21
-325.16
  0
LINE
  8
0
 10
565.761
 20
-325.16
 11
566.147
 21
-325.16
  0
LINE
  8
0
 10
566.147
 20
-325.16
 11
566.526
 21
-325.241
  0
LINE
  8
0
 10
566.526
 20
-325.241
 11
566.879
 21
-325.398
  0
LINE
  8
0
 10
566.879
 20
-325.398
 11
567.192
 21
-325.625
  0
LINE
  8
0
 10
567.192
 20
-325.625
 11
567.451
 21
-325.913
  0
LINE
  8
0
 10
567.451
 20
-325.913
 11
567.644
 21
-326.248
  0
LINE
  8
0
 10
567.644
 20
-326.248
 11
567.764
 21
-326.615
  0
LINE
  8
0
 10
567.764
 20
-326.615
 11
567.804
 21
-327
  0
LINE
  8
0
 10
567.804
 20
-327
 11
567.764
 21
-327.385
  0
LINE
  8
0
 10
567.764
 20
-327.385
 11
567.644
 21
-327.752
  0
LINE
  8
0
 10
567.644
 20
-327.752
 11
567.451
 21
-328.087
  0
LINE
  8
0
 10
567.451
 20
-328.087
 11
567.192
 21
-328.375
  0
LINE
  8
0
 10
567.192
 20
-328.375
 11
566.879
 21
-328.602
  0
LINE
  8
0
 10
566.879
 20
-328.602
 11
566.526
 21
-328.759
  0
LINE
  8
0
 10
566.526
 20
-328.759
 11
566.147
 21
-328.84
  0
LINE
  8
0
 10
566.147
 20
-328.84
 11
565.761
 21
-328.84
  0
LINE
  8
0
 10
-58.7394
 20
-463.84
 11
-59.1177
 21
-463.759
  0
LINE
  8
0
 10
-59.1177
 20
-463.759
 11
-59.471
 21
-463.602
  0
LINE
  8
0
 10
-59.471
 20
-463.602
 11
-59.7839
 21
-463.375
  0
LINE
  8
0
 10
-59.7839
 20
-463.375
 11
-60.0427
 21
-463.087
  0
LINE
  8
0
 10
-60.0427
 20
-463.087
 11
-60.2361
 21
-462.752
  0
LINE
  8
0
 10
-60.2361
 20
-462.752
 11
-60.3556
 21
-462.385
  0
LINE
  8
0
 10
-60.3556
 20
-462.385
 11
-60.396
 21
-462
  0
LINE
  8
0
 10
-60.396
 20
-462
 11
-60.3556
 21
-461.615
  0
LINE
  8
0
 10
-60.3556
 20
-461.615
 11
-60.2361
 21
-461.248
  0
LINE
  8
0
 10
-60.2361
 20
-461.248
 11
-60.0427
 21
-460.913
  0
LINE
  8
0
 10
-60.0427
 20
-460.913
 11
-59.7839
 21
-460.625
  0
LINE
  8
0
 10
-59.7839
 20
-460.625
 11
-59.471
 21
-460.398
  0
LINE
  8
0
 10
-59.471
 20
-460.398
 11
-59.1177
 21
-460.241
  0
LINE
  8
0
 10
-59.1177
 20
-460.241
 11
-58.7394
 21
-460.16
  0
LINE
  8
0
 10
-58.7394
 20
-460.16
 11
-58.3526
 21
-460.16
  0
LINE
  8
0
 10
-58.3526
 20
-460.16
 11
-57.9743
 21
-460.241
  0
LINE
  8
0
 10
-57.9743
 20
-460.241
 11
-57.621
 21
-460.398
  0
LINE
  8
0
 10
-57.621
 20
-460.398
 11
-57.3081
 21
-460.625
  0
LINE
  8
0
 10
-57.3081
 20
-460.625
 11
-57.0493
 21
-460.913
  0
LINE
  8
0
 10
-57.0493
 20
-460.913
 11
-56.8559
 21
-461.248
  0
LINE
  8
0
 10
-56.8559
 20
-461.248
 11
-56.7364
 21
-461.615
  0
LINE
  8
0
 10
-56.7364
 20
-461.615
 11
-56.696
 21
-462
  0
LINE
  8
0
 10
-56.696
 20
-462
 11
-56.7364
 21
-462.385
  0
LINE
  8
0
 10
-56.7364
 20
-462.385
 11
-56.8559
 21
-462.752
  0
LINE
  8
0
 10
-56.8559
 20
-462.752
 11
-57.0493
 21
-463.087
  0
LINE
  8
0
 10
-57.0493
 20
-463.087
 11
-57.3081
 21
-463.375
  0
LINE
  8
0
 10
-57.3081
 20
-463.375
 11
-57.621
 21
-463.602
  0
LINE
  8
0
 10
-57.621
 20
-463.602
 11
-57.9743
 21
-463.759
  0
LINE
  8
0
 10
-57.9743
 20
-463.759
 11
-58.3526
 21
-463.84
  0
LINE
  8
0
 10
-58.3526
 20
-463.84
 11
-58.7394
 21
-463.84
  0
LINE
  8
0
 10
-58.7394
 20
-493.84
 11
-59.1177
 21
-493.759
  0
LINE
  8
0
 10
-59.1177
 20
-493.759
 11
-59.471
 21
-493.602
  0
LINE
  8
0
 10
-59.471
 20
-493.602
 11
-59.7839
 21
-493.375
  0
LINE
  8
0
 10
-59.7839
 20
-493.375
 11
-60.0427
 21
-493.087
  0
LINE
  8
0
 10
-60.0427
 20
-493.087
 11
-60.2361
 21
-492.752
  0
LINE
  8
0
 10
-60.2361
 20
-492.752
 11
-60.3556
 21
-492.385
  0
LINE
  8
0
 10
-60.3556
 20
-492.385
 11
-60.396
 21
-492
  0
LINE
  8
0
 10
-60.396
 20
-492
 11
-60.3556
 21
-491.615
  0
LINE
  8
0
 10
-60.3556
 20
-491.615
 11
-60.2361
 21
-491.248
  0
LINE
  8
0
 10
-60.2361
 20
-491.248
 11
-60.0427
 21
-490.913
  0
LINE
  8
0
 10
-60.0427
 20
-490.913
 11
-59.7839
 21
-490.625
  0
LINE
  8
0
 10
-59.7839
 20
-490.625
 11
-59.471
 21
-490.398
  0
LINE
  8
0
 10
-59.471
 20
-490.398
 11
-59.1177
 21
-490.241
  0
LINE
  8
0
 10
-59.1177
 20
-490.241
 11
-58.7394
 21
-490.16
  0
LINE
  8
0
 10
-58.7394
 20
-490.16
 11
-58.3526
 21
-490.16
  0
LINE
  8
0
 10
-58.3526
 20
-490.16
 11
-57.9743
 21
-490.241
  0
LINE
  8
0
 10
-57.9743
 20
-490.241
 11
-57.621
 21
-490.398
  0
LINE
  8
0
 10
-57.621
 20
-490.398
 11
-57.3081
 21
-490.625
  0
LINE
  8
0
 10
-57.3081
 20
-490.625
 11
-57.0493
 21
-490.913
  0
LINE
  8
0
 10
-57.0493
 20
-490.913
 11
-56.8559
 21
-491.248
  0
LINE
  8
0
 10
-56.8559
 20
-491.248
 11
-56.7364
 21
-491.615
  0
LINE
  8
0
 10
-56.7364
 20
-491.615
 11
-56.696
 21
-492
  0
LINE
  8
0
 10
-56.696
 20
-492
 11
-56.7364
 21
-492.385
  0
LINE
  8
0
 10
-56.7364
 20
-492.385
 11
-56.8559
 21
-492.752
  0
LINE
  8
0
 10
-56.8559
 20
-492.752
 11
-57.0493
 21
-493.087
  0
LINE
  8
0
 10
-57.0493
 20
-493.087
 11
-57.3081
 21
-493.375
  0
LINE
  8
0
 10
-57.3081
 20
-493.375
 11
-57.621
 21
-493.602
  0
LINE
  8
0
 10
-57.621
 20
-493.602
 11
-57.9743
 21
-493.759
  0
LINE
  8
0
 10
-57.9743
 20
-493.759
 11
-58.3526
 21
-493.84
  0
LINE
  8
0
 10
-58.3526
 20
-493.84
 11
-58.7394
 21
-493.84
  0
ENDSEC
  0
SECTION
  2
OBJECTS
  0
DICTIONARY
  0
ENDSEC
  0
EOF
