  0
SECTION
  2
BLOCKS
  0
ENDSEC
  0
SECTION
  2
ENTITIES
  0
LINE
  8
0
 10
623
 20
432.272
 11
-1
 21
432.272
  0
LINE
  8
0
 10
-1
 20
432.272
 11
-1
 21
-136.728
  0
LINE
  8
0
 10
-1
 20
-136.728
 11
623
 21
-136.728
  0
LINE
  8
0
 10
623
 20
-136.728
 11
623
 21
432.272
  0
LINE
  8
0
 10
588.791
 20
422.383
 11
588.382
 21
422.47
  0
LINE
  8
0
 10
588.382
 20
422.47
 11
588
 21
422.64
  0
LINE
  8
0
 10
588
 20
422.64
 11
587.662
 21
422.886
  0
LINE
  8
0
 10
587.662
 20
422.886
 11
587.382
 21
423.196
  0
LINE
  8
0
 10
587.382
 20
423.196
 11
587.173
 21
423.559
  0
LINE
  8
0
 10
587.173
 20
423.559
 11
587.044
 21
423.956
  0
LINE
  8
0
 10
587.044
 20
423.956
 11
587
 21
424.372
  0
LINE
  8
0
 10
587
 20
424.372
 11
587.044
 21
424.788
  0
LINE
  8
0
 10
587.044
 20
424.788
 11
587.173
 21
425.185
  0
LINE
  8
0
 10
587.173
 20
425.185
 11
587.382
 21
425.548
  0
LINE
  8
0
 10
587.382
 20
425.548
 11
587.662
 21
425.858
  0
LINE
  8
0
 10
587.662
 20
425.858
 11
588
 21
426.104
  0
LINE
  8
0
 10
588
 20
426.104
 11
588.382
 21
426.274
  0
LINE
  8
0
 10
588.382
 20
426.274
 11
588.791
 21
426.361
  0
LINE
  8
0
 10
588.791
 20
426.361
 11
589.209
 21
426.361
  0
LINE
  8
0
 10
589.209
 20
426.361
 11
589.618
 21
426.274
  0
LINE
  8
0
 10
589.618
 20
426.274
 11
590
 21
426.104
  0
LINE
  8
0
 10
590
 20
426.104
 11
590.338
 21
425.858
  0
LINE
  8
0
 10
590.338
 20
425.858
 11
590.618
 21
425.548
  0
LINE
  8
0
 10
590.618
 20
425.548
 11
590.827
 21
425.185
  0
LINE
  8
0
 10
590.827
 20
425.185
 11
590.956
 21
424.788
  0
LINE
  8
0
 10
590.956
 20
424.788
 11
591
 21
424.372
  0
LINE
  8
0
 10
591
 20
424.372
 11
590.956
 21
423.956
  0
LINE
  8
0
 10
590.956
 20
423.956
 11
590.827
 21
423.559
  0
LINE
  8
0
 10
590.827
 20
423.559
 11
590.618
 21
423.196
  0
LINE
  8
0
 10
590.618
 20
423.196
 11
590.338
 21
422.886
  0
LINE
  8
0
 10
590.338
 20
422.886
 11
590
 21
422.64
  0
LINE
  8
0
 10
590
 20
422.64
 11
589.618
 21
422.47
  0
LINE
  8
0
 10
589.618
 20
422.47
 11
589.209
 21
422.383
  0
LINE
  8
0
 10
589.209
 20
422.383
 11
588.791
 21
422.383
  0
LINE
  8
0
 10
318.791
 20
422.383
 11
318.382
 21
422.47
  0
LINE
  8
0
 10
318.382
 20
422.47
 11
318
 21
422.64
  0
LINE
  8
0
 10
318
 20
422.64
 11
317.662
 21
422.886
  0
LINE
  8
0
 10
317.662
 20
422.886
 11
317.382
 21
423.196
  0
LINE
  8
0
 10
317.382
 20
423.196
 11
317.173
 21
423.559
  0
LINE
  8
0
 10
317.173
 20
423.559
 11
317.044
 21
423.956
  0
LINE
  8
0
 10
317.044
 20
423.956
 11
317
 21
424.372
  0
LINE
  8
0
 10
317
 20
424.372
 11
317.044
 21
424.788
  0
LINE
  8
0
 10
317.044
 20
424.788
 11
317.173
 21
425.185
  0
LINE
  8
0
 10
317.173
 20
425.185
 11
317.382
 21
425.548
  0
LINE
  8
0
 10
317.382
 20
425.548
 11
317.662
 21
425.858
  0
LINE
  8
0
 10
317.662
 20
425.858
 11
318
 21
426.104
  0
LINE
  8
0
 10
318
 20
426.104
 11
318.382
 21
426.274
  0
LINE
  8
0
 10
318.382
 20
426.274
 11
318.791
 21
426.361
  0
LINE
  8
0
 10
318.791
 20
426.361
 11
319.209
 21
426.361
  0
LINE
  8
0
 10
319.209
 20
426.361
 11
319.618
 21
426.274
  0
LINE
  8
0
 10
319.618
 20
426.274
 11
320
 21
426.104
  0
LINE
  8
0
 10
320
 20
426.104
 11
320.338
 21
425.858
  0
LINE
  8
0
 10
320.338
 20
425.858
 11
320.618
 21
425.548
  0
LINE
  8
0
 10
320.618
 20
425.548
 11
320.827
 21
425.185
  0
LINE
  8
0
 10
320.827
 20
425.185
 11
320.956
 21
424.788
  0
LINE
  8
0
 10
320.956
 20
424.788
 11
321
 21
424.372
  0
LINE
  8
0
 10
321
 20
424.372
 11
320.956
 21
423.956
  0
LINE
  8
0
 10
320.956
 20
423.956
 11
320.827
 21
423.559
  0
LINE
  8
0
 10
320.827
 20
423.559
 11
320.618
 21
423.196
  0
LINE
  8
0
 10
320.618
 20
423.196
 11
320.338
 21
422.886
  0
LINE
  8
0
 10
320.338
 20
422.886
 11
320
 21
422.64
  0
LINE
  8
0
 10
320
 20
422.64
 11
319.618
 21
422.47
  0
LINE
  8
0
 10
319.618
 20
422.47
 11
319.209
 21
422.383
  0
LINE
  8
0
 10
319.209
 20
422.383
 11
318.791
 21
422.383
  0
LINE
  8
0
 10
18.7909
 20
422.383
 11
18.382
 21
422.47
  0
LINE
  8
0
 10
18.382
 20
422.47
 11
18
 21
422.64
  0
LINE
  8
0
 10
18
 20
422.64
 11
17.6617
 21
422.886
  0
LINE
  8
0
 10
17.6617
 20
422.886
 11
17.382
 21
423.196
  0
LINE
  8
0
 10
17.382
 20
423.196
 11
17.1729
 21
423.559
  0
LINE
  8
0
 10
17.1729
 20
423.559
 11
17.0437
 21
423.956
  0
LINE
  8
0
 10
17.0437
 20
423.956
 11
17
 21
424.372
  0
LINE
  8
0
 10
17
 20
424.372
 11
17.0437
 21
424.788
  0
LINE
  8
0
 10
17.0437
 20
424.788
 11
17.1729
 21
425.185
  0
LINE
  8
0
 10
17.1729
 20
425.185
 11
17.382
 21
425.548
  0
LINE
  8
0
 10
17.382
 20
425.548
 11
17.6617
 21
425.858
  0
LINE
  8
0
 10
17.6617
 20
425.858
 11
18
 21
426.104
  0
LINE
  8
0
 10
18
 20
426.104
 11
18.382
 21
426.274
  0
LINE
  8
0
 10
18.382
 20
426.274
 11
18.7909
 21
426.361
  0
LINE
  8
0
 10
18.7909
 20
426.361
 11
19.209
 21
426.361
  0
LINE
  8
0
 10
19.209
 20
426.361
 11
19.618
 21
426.274
  0
LINE
  8
0
 10
19.618
 20
426.274
 11
20
 21
426.104
  0
LINE
  8
0
 10
20
 20
426.104
 11
20.3383
 21
425.858
  0
LINE
  8
0
 10
20.3383
 20
425.858
 11
20.618
 21
425.548
  0
LINE
  8
0
 10
20.618
 20
425.548
 11
20.8271
 21
425.185
  0
LINE
  8
0
 10
20.8271
 20
425.185
 11
20.9563
 21
424.788
  0
LINE
  8
0
 10
20.9563
 20
424.788
 11
21
 21
424.372
  0
LINE
  8
0
 10
21
 20
424.372
 11
20.9563
 21
423.956
  0
LINE
  8
0
 10
20.9563
 20
423.956
 11
20.8271
 21
423.559
  0
LINE
  8
0
 10
20.8271
 20
423.559
 11
20.618
 21
423.196
  0
LINE
  8
0
 10
20.618
 20
423.196
 11
20.3383
 21
422.886
  0
LINE
  8
0
 10
20.3383
 20
422.886
 11
20
 21
422.64
  0
LINE
  8
0
 10
20
 20
422.64
 11
19.618
 21
422.47
  0
LINE
  8
0
 10
19.618
 20
422.47
 11
19.209
 21
422.383
  0
LINE
  8
0
 10
19.209
 20
422.383
 11
18.7909
 21
422.383
  0
LINE
  8
0
 10
609.791
 20
392.783
 11
609.382
 21
392.87
  0
LINE
  8
0
 10
609.382
 20
392.87
 11
609
 21
393.04
  0
LINE
  8
0
 10
609
 20
393.04
 11
608.662
 21
393.286
  0
LINE
  8
0
 10
608.662
 20
393.286
 11
608.382
 21
393.596
  0
LINE
  8
0
 10
608.382
 20
393.596
 11
608.173
 21
393.959
  0
LINE
  8
0
 10
608.173
 20
393.959
 11
608.044
 21
394.356
  0
LINE
  8
0
 10
608.044
 20
394.356
 11
608
 21
394.772
  0
LINE
  8
0
 10
608
 20
394.772
 11
608.044
 21
395.188
  0
LINE
  8
0
 10
608.044
 20
395.188
 11
608.173
 21
395.585
  0
LINE
  8
0
 10
608.173
 20
395.585
 11
608.382
 21
395.948
  0
LINE
  8
0
 10
608.382
 20
395.948
 11
608.662
 21
396.258
  0
LINE
  8
0
 10
608.662
 20
396.258
 11
609
 21
396.504
  0
LINE
  8
0
 10
609
 20
396.504
 11
609.382
 21
396.674
  0
LINE
  8
0
 10
609.382
 20
396.674
 11
609.791
 21
396.761
  0
LINE
  8
0
 10
609.791
 20
396.761
 11
610.209
 21
396.761
  0
LINE
  8
0
 10
610.209
 20
396.761
 11
610.618
 21
396.674
  0
LINE
  8
0
 10
610.618
 20
396.674
 11
611
 21
396.504
  0
LINE
  8
0
 10
611
 20
396.504
 11
611.338
 21
396.258
  0
LINE
  8
0
 10
611.338
 20
396.258
 11
611.618
 21
395.948
  0
LINE
  8
0
 10
611.618
 20
395.948
 11
611.827
 21
395.585
  0
LINE
  8
0
 10
611.827
 20
395.585
 11
611.956
 21
395.188
  0
LINE
  8
0
 10
611.956
 20
395.188
 11
612
 21
394.772
  0
LINE
  8
0
 10
612
 20
394.772
 11
611.956
 21
394.356
  0
LINE
  8
0
 10
611.956
 20
394.356
 11
611.827
 21
393.959
  0
LINE
  8
0
 10
611.827
 20
393.959
 11
611.618
 21
393.596
  0
LINE
  8
0
 10
611.618
 20
393.596
 11
611.338
 21
393.286
  0
LINE
  8
0
 10
611.338
 20
393.286
 11
611
 21
393.04
  0
LINE
  8
0
 10
611
 20
393.04
 11
610.618
 21
392.87
  0
LINE
  8
0
 10
610.618
 20
392.87
 11
610.209
 21
392.783
  0
LINE
  8
0
 10
610.209
 20
392.783
 11
609.791
 21
392.783
  0
LINE
  8
0
 10
5.79094
 20
392.783
 11
5.38196
 21
392.87
  0
LINE
  8
0
 10
5.38196
 20
392.87
 11
5
 21
393.04
  0
LINE
  8
0
 10
5
 20
393.04
 11
4.66173
 21
393.286
  0
LINE
  8
0
 10
4.66173
 20
393.286
 11
4.38196
 21
393.596
  0
LINE
  8
0
 10
4.38196
 20
393.596
 11
4.1729
 21
393.959
  0
LINE
  8
0
 10
4.1729
 20
393.959
 11
4.0437
 21
394.356
  0
LINE
  8
0
 10
4.0437
 20
394.356
 11
4
 21
394.772
  0
LINE
  8
0
 10
4
 20
394.772
 11
4.0437
 21
395.188
  0
LINE
  8
0
 10
4.0437
 20
395.188
 11
4.1729
 21
395.585
  0
LINE
  8
0
 10
4.1729
 20
395.585
 11
4.38196
 21
395.948
  0
LINE
  8
0
 10
4.38196
 20
395.948
 11
4.66173
 21
396.258
  0
LINE
  8
0
 10
4.66173
 20
396.258
 11
5
 21
396.504
  0
LINE
  8
0
 10
5
 20
396.504
 11
5.38196
 21
396.674
  0
LINE
  8
0
 10
5.38196
 20
396.674
 11
5.79094
 21
396.761
  0
LINE
  8
0
 10
5.79094
 20
396.761
 11
6.20905
 21
396.761
  0
LINE
  8
0
 10
6.20905
 20
396.761
 11
6.61803
 21
396.674
  0
LINE
  8
0
 10
6.61803
 20
396.674
 11
7
 21
396.504
  0
LINE
  8
0
 10
7
 20
396.504
 11
7.33826
 21
396.258
  0
LINE
  8
0
 10
7.33826
 20
396.258
 11
7.61803
 21
395.948
  0
LINE
  8
0
 10
7.61803
 20
395.948
 11
7.82709
 21
395.585
  0
LINE
  8
0
 10
7.82709
 20
395.585
 11
7.95628
 21
395.188
  0
LINE
  8
0
 10
7.95628
 20
395.188
 11
8
 21
394.772
  0
LINE
  8
0
 10
8
 20
394.772
 11
7.95628
 21
394.356
  0
LINE
  8
0
 10
7.95628
 20
394.356
 11
7.82709
 21
393.959
  0
LINE
  8
0
 10
7.82709
 20
393.959
 11
7.61803
 21
393.596
  0
LINE
  8
0
 10
7.61803
 20
393.596
 11
7.33826
 21
393.286
  0
LINE
  8
0
 10
7.33826
 20
393.286
 11
7
 21
393.04
  0
LINE
  8
0
 10
7
 20
393.04
 11
6.61803
 21
392.87
  0
LINE
  8
0
 10
6.61803
 20
392.87
 11
6.20905
 21
392.783
  0
LINE
  8
0
 10
6.20905
 20
392.783
 11
5.79094
 21
392.783
  0
LINE
  8
0
 10
609.791
 20
152.783
 11
609.382
 21
152.87
  0
LINE
  8
0
 10
609.382
 20
152.87
 11
609
 21
153.04
  0
LINE
  8
0
 10
609
 20
153.04
 11
608.662
 21
153.286
  0
LINE
  8
0
 10
608.662
 20
153.286
 11
608.382
 21
153.596
  0
LINE
  8
0
 10
608.382
 20
153.596
 11
608.173
 21
153.959
  0
LINE
  8
0
 10
608.173
 20
153.959
 11
608.044
 21
154.356
  0
LINE
  8
0
 10
608.044
 20
154.356
 11
608
 21
154.772
  0
LINE
  8
0
 10
608
 20
154.772
 11
608.044
 21
155.188
  0
LINE
  8
0
 10
608.044
 20
155.188
 11
608.173
 21
155.585
  0
LINE
  8
0
 10
608.173
 20
155.585
 11
608.382
 21
155.948
  0
LINE
  8
0
 10
608.382
 20
155.948
 11
608.662
 21
156.258
  0
LINE
  8
0
 10
608.662
 20
156.258
 11
609
 21
156.504
  0
LINE
  8
0
 10
609
 20
156.504
 11
609.382
 21
156.674
  0
LINE
  8
0
 10
609.382
 20
156.674
 11
609.791
 21
156.761
  0
LINE
  8
0
 10
609.791
 20
156.761
 11
610.209
 21
156.761
  0
LINE
  8
0
 10
610.209
 20
156.761
 11
610.618
 21
156.674
  0
LINE
  8
0
 10
610.618
 20
156.674
 11
611
 21
156.504
  0
LINE
  8
0
 10
611
 20
156.504
 11
611.338
 21
156.258
  0
LINE
  8
0
 10
611.338
 20
156.258
 11
611.618
 21
155.948
  0
LINE
  8
0
 10
611.618
 20
155.948
 11
611.827
 21
155.585
  0
LINE
  8
0
 10
611.827
 20
155.585
 11
611.956
 21
155.188
  0
LINE
  8
0
 10
611.956
 20
155.188
 11
612
 21
154.772
  0
LINE
  8
0
 10
612
 20
154.772
 11
611.956
 21
154.356
  0
LINE
  8
0
 10
611.956
 20
154.356
 11
611.827
 21
153.959
  0
LINE
  8
0
 10
611.827
 20
153.959
 11
611.618
 21
153.596
  0
LINE
  8
0
 10
611.618
 20
153.596
 11
611.338
 21
153.286
  0
LINE
  8
0
 10
611.338
 20
153.286
 11
611
 21
153.04
  0
LINE
  8
0
 10
611
 20
153.04
 11
610.618
 21
152.87
  0
LINE
  8
0
 10
610.618
 20
152.87
 11
610.209
 21
152.783
  0
LINE
  8
0
 10
610.209
 20
152.783
 11
609.791
 21
152.783
  0
LINE
  8
0
 10
5.79094
 20
152.783
 11
5.38196
 21
152.87
  0
LINE
  8
0
 10
5.38196
 20
152.87
 11
5
 21
153.04
  0
LINE
  8
0
 10
5
 20
153.04
 11
4.66173
 21
153.286
  0
LINE
  8
0
 10
4.66173
 20
153.286
 11
4.38196
 21
153.596
  0
LINE
  8
0
 10
4.38196
 20
153.596
 11
4.1729
 21
153.959
  0
LINE
  8
0
 10
4.1729
 20
153.959
 11
4.0437
 21
154.356
  0
LINE
  8
0
 10
4.0437
 20
154.356
 11
4
 21
154.772
  0
LINE
  8
0
 10
4
 20
154.772
 11
4.0437
 21
155.188
  0
LINE
  8
0
 10
4.0437
 20
155.188
 11
4.1729
 21
155.585
  0
LINE
  8
0
 10
4.1729
 20
155.585
 11
4.38196
 21
155.948
  0
LINE
  8
0
 10
4.38196
 20
155.948
 11
4.66173
 21
156.258
  0
LINE
  8
0
 10
4.66173
 20
156.258
 11
5
 21
156.504
  0
LINE
  8
0
 10
5
 20
156.504
 11
5.38196
 21
156.674
  0
LINE
  8
0
 10
5.38196
 20
156.674
 11
5.79094
 21
156.761
  0
LINE
  8
0
 10
5.79094
 20
156.761
 11
6.20905
 21
156.761
  0
LINE
  8
0
 10
6.20905
 20
156.761
 11
6.61803
 21
156.674
  0
LINE
  8
0
 10
6.61803
 20
156.674
 11
7
 21
156.504
  0
LINE
  8
0
 10
7
 20
156.504
 11
7.33826
 21
156.258
  0
LINE
  8
0
 10
7.33826
 20
156.258
 11
7.61803
 21
155.948
  0
LINE
  8
0
 10
7.61803
 20
155.948
 11
7.82709
 21
155.585
  0
LINE
  8
0
 10
7.82709
 20
155.585
 11
7.95628
 21
155.188
  0
LINE
  8
0
 10
7.95628
 20
155.188
 11
8
 21
154.772
  0
LINE
  8
0
 10
8
 20
154.772
 11
7.95628
 21
154.356
  0
LINE
  8
0
 10
7.95628
 20
154.356
 11
7.82709
 21
153.959
  0
LINE
  8
0
 10
7.82709
 20
153.959
 11
7.61803
 21
153.596
  0
LINE
  8
0
 10
7.61803
 20
153.596
 11
7.33826
 21
153.286
  0
LINE
  8
0
 10
7.33826
 20
153.286
 11
7
 21
153.04
  0
LINE
  8
0
 10
7
 20
153.04
 11
6.61803
 21
152.87
  0
LINE
  8
0
 10
6.61803
 20
152.87
 11
6.20905
 21
152.783
  0
LINE
  8
0
 10
6.20905
 20
152.783
 11
5.79094
 21
152.783
  0
LINE
  8
0
 10
5.79094
 20
-87.217
 11
5.38196
 21
-87.1301
  0
LINE
  8
0
 10
5.38196
 20
-87.1301
 11
5
 21
-86.9601
  0
LINE
  8
0
 10
5
 20
-86.9601
 11
4.66173
 21
-86.7143
  0
LINE
  8
0
 10
4.66173
 20
-86.7143
 11
4.38196
 21
-86.4036
  0
LINE
  8
0
 10
4.38196
 20
-86.4036
 11
4.1729
 21
-86.0415
  0
LINE
  8
0
 10
4.1729
 20
-86.0415
 11
4.0437
 21
-85.6438
  0
LINE
  8
0
 10
4.0437
 20
-85.6438
 11
4
 21
-85.228
  0
LINE
  8
0
 10
4
 20
-85.228
 11
4.0437
 21
-84.8122
  0
LINE
  8
0
 10
4.0437
 20
-84.8122
 11
4.1729
 21
-84.4145
  0
LINE
  8
0
 10
4.1729
 20
-84.4145
 11
4.38196
 21
-84.0524
  0
LINE
  8
0
 10
4.38196
 20
-84.0524
 11
4.66173
 21
-83.7417
  0
LINE
  8
0
 10
4.66173
 20
-83.7417
 11
5
 21
-83.4959
  0
LINE
  8
0
 10
5
 20
-83.4959
 11
5.38196
 21
-83.3259
  0
LINE
  8
0
 10
5.38196
 20
-83.3259
 11
5.79094
 21
-83.239
  0
LINE
  8
0
 10
5.79094
 20
-83.239
 11
6.20905
 21
-83.239
  0
LINE
  8
0
 10
6.20905
 20
-83.239
 11
6.61803
 21
-83.3259
  0
LINE
  8
0
 10
6.61803
 20
-83.3259
 11
7
 21
-83.4959
  0
LINE
  8
0
 10
7
 20
-83.4959
 11
7.33826
 21
-83.7417
  0
LINE
  8
0
 10
7.33826
 20
-83.7417
 11
7.61803
 21
-84.0524
  0
LINE
  8
0
 10
7.61803
 20
-84.0524
 11
7.82709
 21
-84.4145
  0
LINE
  8
0
 10
7.82709
 20
-84.4145
 11
7.95628
 21
-84.8122
  0
LINE
  8
0
 10
7.95628
 20
-84.8122
 11
8
 21
-85.228
  0
LINE
  8
0
 10
8
 20
-85.228
 11
7.95628
 21
-85.6438
  0
LINE
  8
0
 10
7.95628
 20
-85.6438
 11
7.82709
 21
-86.0415
  0
LINE
  8
0
 10
7.82709
 20
-86.0415
 11
7.61803
 21
-86.4036
  0
LINE
  8
0
 10
7.61803
 20
-86.4036
 11
7.33826
 21
-86.7143
  0
LINE
  8
0
 10
7.33826
 20
-86.7143
 11
7
 21
-86.9601
  0
LINE
  8
0
 10
7
 20
-86.9601
 11
6.61803
 21
-87.1301
  0
LINE
  8
0
 10
6.61803
 20
-87.1301
 11
6.20905
 21
-87.217
  0
LINE
  8
0
 10
6.20905
 20
-87.217
 11
5.79094
 21
-87.217
  0
LINE
  8
0
 10
609.791
 20
-87.217
 11
609.382
 21
-87.1301
  0
LINE
  8
0
 10
609.382
 20
-87.1301
 11
609
 21
-86.9601
  0
LINE
  8
0
 10
609
 20
-86.9601
 11
608.662
 21
-86.7143
  0
LINE
  8
0
 10
608.662
 20
-86.7143
 11
608.382
 21
-86.4036
  0
LINE
  8
0
 10
608.382
 20
-86.4036
 11
608.173
 21
-86.0415
  0
LINE
  8
0
 10
608.173
 20
-86.0415
 11
608.044
 21
-85.6438
  0
LINE
  8
0
 10
608.044
 20
-85.6438
 11
608
 21
-85.228
  0
LINE
  8
0
 10
608
 20
-85.228
 11
608.044
 21
-84.8122
  0
LINE
  8
0
 10
608.044
 20
-84.8122
 11
608.173
 21
-84.4145
  0
LINE
  8
0
 10
608.173
 20
-84.4145
 11
608.382
 21
-84.0524
  0
LINE
  8
0
 10
608.382
 20
-84.0524
 11
608.662
 21
-83.7417
  0
LINE
  8
0
 10
608.662
 20
-83.7417
 11
609
 21
-83.4959
  0
LINE
  8
0
 10
609
 20
-83.4959
 11
609.382
 21
-83.3259
  0
LINE
  8
0
 10
609.382
 20
-83.3259
 11
609.791
 21
-83.239
  0
LINE
  8
0
 10
609.791
 20
-83.239
 11
610.209
 21
-83.239
  0
LINE
  8
0
 10
610.209
 20
-83.239
 11
610.618
 21
-83.3259
  0
LINE
  8
0
 10
610.618
 20
-83.3259
 11
611
 21
-83.4959
  0
LINE
  8
0
 10
611
 20
-83.4959
 11
611.338
 21
-83.7417
  0
LINE
  8
0
 10
611.338
 20
-83.7417
 11
611.618
 21
-84.0524
  0
LINE
  8
0
 10
611.618
 20
-84.0524
 11
611.827
 21
-84.4145
  0
LINE
  8
0
 10
611.827
 20
-84.4145
 11
611.956
 21
-84.8122
  0
LINE
  8
0
 10
611.956
 20
-84.8122
 11
612
 21
-85.228
  0
LINE
  8
0
 10
612
 20
-85.228
 11
611.956
 21
-85.6438
  0
LINE
  8
0
 10
611.956
 20
-85.6438
 11
611.827
 21
-86.0415
  0
LINE
  8
0
 10
611.827
 20
-86.0415
 11
611.618
 21
-86.4036
  0
LINE
  8
0
 10
611.618
 20
-86.4036
 11
611.338
 21
-86.7143
  0
LINE
  8
0
 10
611.338
 20
-86.7143
 11
611
 21
-86.9601
  0
LINE
  8
0
 10
611
 20
-86.9601
 11
610.618
 21
-87.1301
  0
LINE
  8
0
 10
610.618
 20
-87.1301
 11
610.209
 21
-87.217
  0
LINE
  8
0
 10
610.209
 20
-87.217
 11
609.791
 21
-87.217
  0
LINE
  8
0
 10
318.791
 20
-127.217
 11
318.382
 21
-127.13
  0
LINE
  8
0
 10
318.382
 20
-127.13
 11
318
 21
-126.96
  0
LINE
  8
0
 10
318
 20
-126.96
 11
317.662
 21
-126.714
  0
LINE
  8
0
 10
317.662
 20
-126.714
 11
317.382
 21
-126.404
  0
LINE
  8
0
 10
317.382
 20
-126.404
 11
317.173
 21
-126.041
  0
LINE
  8
0
 10
317.173
 20
-126.041
 11
317.044
 21
-125.644
  0
LINE
  8
0
 10
317.044
 20
-125.644
 11
317
 21
-125.228
  0
LINE
  8
0
 10
317
 20
-125.228
 11
317.044
 21
-124.812
  0
LINE
  8
0
 10
317.044
 20
-124.812
 11
317.173
 21
-124.415
  0
LINE
  8
0
 10
317.173
 20
-124.415
 11
317.382
 21
-124.052
  0
LINE
  8
0
 10
317.382
 20
-124.052
 11
317.662
 21
-123.742
  0
LINE
  8
0
 10
317.662
 20
-123.742
 11
318
 21
-123.496
  0
LINE
  8
0
 10
318
 20
-123.496
 11
318.382
 21
-123.326
  0
LINE
  8
0
 10
318.382
 20
-123.326
 11
318.791
 21
-123.239
  0
LINE
  8
0
 10
318.791
 20
-123.239
 11
319.209
 21
-123.239
  0
LINE
  8
0
 10
319.209
 20
-123.239
 11
319.618
 21
-123.326
  0
LINE
  8
0
 10
319.618
 20
-123.326
 11
320
 21
-123.496
  0
LINE
  8
0
 10
320
 20
-123.496
 11
320.338
 21
-123.742
  0
LINE
  8
0
 10
320.338
 20
-123.742
 11
320.618
 21
-124.052
  0
LINE
  8
0
 10
320.618
 20
-124.052
 11
320.827
 21
-124.415
  0
LINE
  8
0
 10
320.827
 20
-124.415
 11
320.956
 21
-124.812
  0
LINE
  8
0
 10
320.956
 20
-124.812
 11
321
 21
-125.228
  0
LINE
  8
0
 10
321
 20
-125.228
 11
320.956
 21
-125.644
  0
LINE
  8
0
 10
320.956
 20
-125.644
 11
320.827
 21
-126.041
  0
LINE
  8
0
 10
320.827
 20
-126.041
 11
320.618
 21
-126.404
  0
LINE
  8
0
 10
320.618
 20
-126.404
 11
320.338
 21
-126.714
  0
LINE
  8
0
 10
320.338
 20
-126.714
 11
320
 21
-126.96
  0
LINE
  8
0
 10
320
 20
-126.96
 11
319.618
 21
-127.13
  0
LINE
  8
0
 10
319.618
 20
-127.13
 11
319.209
 21
-127.217
  0
LINE
  8
0
 10
319.209
 20
-127.217
 11
318.791
 21
-127.217
  0
LINE
  8
0
 10
18.7909
 20
-127.217
 11
18.382
 21
-127.13
  0
LINE
  8
0
 10
18.382
 20
-127.13
 11
18
 21
-126.96
  0
LINE
  8
0
 10
18
 20
-126.96
 11
17.6617
 21
-126.714
  0
LINE
  8
0
 10
17.6617
 20
-126.714
 11
17.382
 21
-126.404
  0
LINE
  8
0
 10
17.382
 20
-126.404
 11
17.1729
 21
-126.041
  0
LINE
  8
0
 10
17.1729
 20
-126.041
 11
17.0437
 21
-125.644
  0
LINE
  8
0
 10
17.0437
 20
-125.644
 11
17
 21
-125.228
  0
LINE
  8
0
 10
17
 20
-125.228
 11
17.0437
 21
-124.812
  0
LINE
  8
0
 10
17.0437
 20
-124.812
 11
17.1729
 21
-124.415
  0
LINE
  8
0
 10
17.1729
 20
-124.415
 11
17.382
 21
-124.052
  0
LINE
  8
0
 10
17.382
 20
-124.052
 11
17.6617
 21
-123.742
  0
LINE
  8
0
 10
17.6617
 20
-123.742
 11
18
 21
-123.496
  0
LINE
  8
0
 10
18
 20
-123.496
 11
18.382
 21
-123.326
  0
LINE
  8
0
 10
18.382
 20
-123.326
 11
18.7909
 21
-123.239
  0
LINE
  8
0
 10
18.7909
 20
-123.239
 11
19.209
 21
-123.239
  0
LINE
  8
0
 10
19.209
 20
-123.239
 11
19.618
 21
-123.326
  0
LINE
  8
0
 10
19.618
 20
-123.326
 11
20
 21
-123.496
  0
LINE
  8
0
 10
20
 20
-123.496
 11
20.3383
 21
-123.742
  0
LINE
  8
0
 10
20.3383
 20
-123.742
 11
20.618
 21
-124.052
  0
LINE
  8
0
 10
20.618
 20
-124.052
 11
20.8271
 21
-124.415
  0
LINE
  8
0
 10
20.8271
 20
-124.415
 11
20.9563
 21
-124.812
  0
LINE
  8
0
 10
20.9563
 20
-124.812
 11
21
 21
-125.228
  0
LINE
  8
0
 10
21
 20
-125.228
 11
20.9563
 21
-125.644
  0
LINE
  8
0
 10
20.9563
 20
-125.644
 11
20.8271
 21
-126.041
  0
LINE
  8
0
 10
20.8271
 20
-126.041
 11
20.618
 21
-126.404
  0
LINE
  8
0
 10
20.618
 20
-126.404
 11
20.3383
 21
-126.714
  0
LINE
  8
0
 10
20.3383
 20
-126.714
 11
20
 21
-126.96
  0
LINE
  8
0
 10
20
 20
-126.96
 11
19.618
 21
-127.13
  0
LINE
  8
0
 10
19.618
 20
-127.13
 11
19.209
 21
-127.217
  0
LINE
  8
0
 10
19.209
 20
-127.217
 11
18.7909
 21
-127.217
  0
LINE
  8
0
 10
588.791
 20
-127.217
 11
588.382
 21
-127.13
  0
LINE
  8
0
 10
588.382
 20
-127.13
 11
588
 21
-126.96
  0
LINE
  8
0
 10
588
 20
-126.96
 11
587.662
 21
-126.714
  0
LINE
  8
0
 10
587.662
 20
-126.714
 11
587.382
 21
-126.404
  0
LINE
  8
0
 10
587.382
 20
-126.404
 11
587.173
 21
-126.041
  0
LINE
  8
0
 10
587.173
 20
-126.041
 11
587.044
 21
-125.644
  0
LINE
  8
0
 10
587.044
 20
-125.644
 11
587
 21
-125.228
  0
LINE
  8
0
 10
587
 20
-125.228
 11
587.044
 21
-124.812
  0
LINE
  8
0
 10
587.044
 20
-124.812
 11
587.173
 21
-124.415
  0
LINE
  8
0
 10
587.173
 20
-124.415
 11
587.382
 21
-124.052
  0
LINE
  8
0
 10
587.382
 20
-124.052
 11
587.662
 21
-123.742
  0
LINE
  8
0
 10
587.662
 20
-123.742
 11
588
 21
-123.496
  0
LINE
  8
0
 10
588
 20
-123.496
 11
588.382
 21
-123.326
  0
LINE
  8
0
 10
588.382
 20
-123.326
 11
588.791
 21
-123.239
  0
LINE
  8
0
 10
588.791
 20
-123.239
 11
589.209
 21
-123.239
  0
LINE
  8
0
 10
589.209
 20
-123.239
 11
589.618
 21
-123.326
  0
LINE
  8
0
 10
589.618
 20
-123.326
 11
590
 21
-123.496
  0
LINE
  8
0
 10
590
 20
-123.496
 11
590.338
 21
-123.742
  0
LINE
  8
0
 10
590.338
 20
-123.742
 11
590.618
 21
-124.052
  0
LINE
  8
0
 10
590.618
 20
-124.052
 11
590.827
 21
-124.415
  0
LINE
  8
0
 10
590.827
 20
-124.415
 11
590.956
 21
-124.812
  0
LINE
  8
0
 10
590.956
 20
-124.812
 11
591
 21
-125.228
  0
LINE
  8
0
 10
591
 20
-125.228
 11
590.956
 21
-125.644
  0
LINE
  8
0
 10
590.956
 20
-125.644
 11
590.827
 21
-126.041
  0
LINE
  8
0
 10
590.827
 20
-126.041
 11
590.618
 21
-126.404
  0
LINE
  8
0
 10
590.618
 20
-126.404
 11
590.338
 21
-126.714
  0
LINE
  8
0
 10
590.338
 20
-126.714
 11
590
 21
-126.96
  0
LINE
  8
0
 10
590
 20
-126.96
 11
589.618
 21
-127.13
  0
LINE
  8
0
 10
589.618
 20
-127.13
 11
589.209
 21
-127.217
  0
LINE
  8
0
 10
589.209
 20
-127.217
 11
588.791
 21
-127.217
  0
ENDSEC
  0
SECTION
  2
OBJECTS
  0
DICTIONARY
  0
ENDSEC
  0
EOF
