  0
SECTION
  2
BLOCKS
  0
ENDSEC
  0
SECTION
  2
ENTITIES
  0
LINE
  8
0
 10
575.104
 20
433.272
 11
-92.896
 21
433.272
  0
LINE
  8
0
 10
-92.896
 20
433.272
 11
-92.896
 21
-153.728
  0
LINE
  8
0
 10
-92.896
 20
-153.728
 11
575.104
 21
-153.728
  0
LINE
  8
0
 10
575.104
 20
-153.728
 11
575.104
 21
433.272
  0
LINE
  8
0
 10
226.895
 20
422.533
 11
226.486
 21
422.62
  0
LINE
  8
0
 10
226.486
 20
422.62
 11
226.104
 21
422.79
  0
LINE
  8
0
 10
226.104
 20
422.79
 11
225.766
 21
423.036
  0
LINE
  8
0
 10
225.766
 20
423.036
 11
225.486
 21
423.346
  0
LINE
  8
0
 10
225.486
 20
423.346
 11
225.277
 21
423.709
  0
LINE
  8
0
 10
225.277
 20
423.709
 11
225.148
 21
424.106
  0
LINE
  8
0
 10
225.148
 20
424.106
 11
225.104
 21
424.522
  0
LINE
  8
0
 10
225.104
 20
424.522
 11
225.148
 21
424.938
  0
LINE
  8
0
 10
225.148
 20
424.938
 11
225.277
 21
425.335
  0
LINE
  8
0
 10
225.277
 20
425.335
 11
225.486
 21
425.698
  0
LINE
  8
0
 10
225.486
 20
425.698
 11
225.766
 21
426.008
  0
LINE
  8
0
 10
225.766
 20
426.008
 11
226.104
 21
426.254
  0
LINE
  8
0
 10
226.104
 20
426.254
 11
226.486
 21
426.424
  0
LINE
  8
0
 10
226.486
 20
426.424
 11
226.895
 21
426.511
  0
LINE
  8
0
 10
226.895
 20
426.511
 11
227.313
 21
426.511
  0
LINE
  8
0
 10
227.313
 20
426.511
 11
227.722
 21
426.424
  0
LINE
  8
0
 10
227.722
 20
426.424
 11
228.104
 21
426.254
  0
LINE
  8
0
 10
228.104
 20
426.254
 11
228.442
 21
426.008
  0
LINE
  8
0
 10
228.442
 20
426.008
 11
228.722
 21
425.698
  0
LINE
  8
0
 10
228.722
 20
425.698
 11
228.931
 21
425.335
  0
LINE
  8
0
 10
228.931
 20
425.335
 11
229.06
 21
424.938
  0
LINE
  8
0
 10
229.06
 20
424.938
 11
229.104
 21
424.522
  0
LINE
  8
0
 10
229.104
 20
424.522
 11
229.06
 21
424.106
  0
LINE
  8
0
 10
229.06
 20
424.106
 11
228.931
 21
423.709
  0
LINE
  8
0
 10
228.931
 20
423.709
 11
228.722
 21
423.346
  0
LINE
  8
0
 10
228.722
 20
423.346
 11
228.442
 21
423.036
  0
LINE
  8
0
 10
228.442
 20
423.036
 11
228.104
 21
422.79
  0
LINE
  8
0
 10
228.104
 20
422.79
 11
227.722
 21
422.62
  0
LINE
  8
0
 10
227.722
 20
422.62
 11
227.313
 21
422.533
  0
LINE
  8
0
 10
227.313
 20
422.533
 11
226.895
 21
422.533
  0
LINE
  8
0
 10
521.895
 20
422.533
 11
521.486
 21
422.62
  0
LINE
  8
0
 10
521.486
 20
422.62
 11
521.104
 21
422.79
  0
LINE
  8
0
 10
521.104
 20
422.79
 11
520.766
 21
423.036
  0
LINE
  8
0
 10
520.766
 20
423.036
 11
520.486
 21
423.346
  0
LINE
  8
0
 10
520.486
 20
423.346
 11
520.277
 21
423.709
  0
LINE
  8
0
 10
520.277
 20
423.709
 11
520.148
 21
424.106
  0
LINE
  8
0
 10
520.148
 20
424.106
 11
520.104
 21
424.522
  0
LINE
  8
0
 10
520.104
 20
424.522
 11
520.148
 21
424.938
  0
LINE
  8
0
 10
520.148
 20
424.938
 11
520.277
 21
425.335
  0
LINE
  8
0
 10
520.277
 20
425.335
 11
520.486
 21
425.698
  0
LINE
  8
0
 10
520.486
 20
425.698
 11
520.766
 21
426.008
  0
LINE
  8
0
 10
520.766
 20
426.008
 11
521.104
 21
426.254
  0
LINE
  8
0
 10
521.104
 20
426.254
 11
521.486
 21
426.424
  0
LINE
  8
0
 10
521.486
 20
426.424
 11
521.895
 21
426.511
  0
LINE
  8
0
 10
521.895
 20
426.511
 11
522.313
 21
426.511
  0
LINE
  8
0
 10
522.313
 20
426.511
 11
522.722
 21
426.424
  0
LINE
  8
0
 10
522.722
 20
426.424
 11
523.104
 21
426.254
  0
LINE
  8
0
 10
523.104
 20
426.254
 11
523.442
 21
426.008
  0
LINE
  8
0
 10
523.442
 20
426.008
 11
523.722
 21
425.698
  0
LINE
  8
0
 10
523.722
 20
425.698
 11
523.931
 21
425.335
  0
LINE
  8
0
 10
523.931
 20
425.335
 11
524.06
 21
424.938
  0
LINE
  8
0
 10
524.06
 20
424.938
 11
524.104
 21
424.522
  0
LINE
  8
0
 10
524.104
 20
424.522
 11
524.06
 21
424.106
  0
LINE
  8
0
 10
524.06
 20
424.106
 11
523.931
 21
423.709
  0
LINE
  8
0
 10
523.931
 20
423.709
 11
523.722
 21
423.346
  0
LINE
  8
0
 10
523.722
 20
423.346
 11
523.442
 21
423.036
  0
LINE
  8
0
 10
523.442
 20
423.036
 11
523.104
 21
422.79
  0
LINE
  8
0
 10
523.104
 20
422.79
 11
522.722
 21
422.62
  0
LINE
  8
0
 10
522.722
 20
422.62
 11
522.313
 21
422.533
  0
LINE
  8
0
 10
522.313
 20
422.533
 11
521.895
 21
422.533
  0
LINE
  8
0
 10
-43.1051
 20
422.533
 11
-43.514
 21
422.62
  0
LINE
  8
0
 10
-43.514
 20
422.62
 11
-43.896
 21
422.79
  0
LINE
  8
0
 10
-43.896
 20
422.79
 11
-44.2343
 21
423.036
  0
LINE
  8
0
 10
-44.2343
 20
423.036
 11
-44.514
 21
423.346
  0
LINE
  8
0
 10
-44.514
 20
423.346
 11
-44.7231
 21
423.709
  0
LINE
  8
0
 10
-44.7231
 20
423.709
 11
-44.8523
 21
424.106
  0
LINE
  8
0
 10
-44.8523
 20
424.106
 11
-44.896
 21
424.522
  0
LINE
  8
0
 10
-44.896
 20
424.522
 11
-44.8523
 21
424.938
  0
LINE
  8
0
 10
-44.8523
 20
424.938
 11
-44.7231
 21
425.335
  0
LINE
  8
0
 10
-44.7231
 20
425.335
 11
-44.514
 21
425.698
  0
LINE
  8
0
 10
-44.514
 20
425.698
 11
-44.2343
 21
426.008
  0
LINE
  8
0
 10
-44.2343
 20
426.008
 11
-43.896
 21
426.254
  0
LINE
  8
0
 10
-43.896
 20
426.254
 11
-43.514
 21
426.424
  0
LINE
  8
0
 10
-43.514
 20
426.424
 11
-43.1051
 21
426.511
  0
LINE
  8
0
 10
-43.1051
 20
426.511
 11
-42.6869
 21
426.511
  0
LINE
  8
0
 10
-42.6869
 20
426.511
 11
-42.278
 21
426.424
  0
LINE
  8
0
 10
-42.278
 20
426.424
 11
-41.896
 21
426.254
  0
LINE
  8
0
 10
-41.896
 20
426.254
 11
-41.5577
 21
426.008
  0
LINE
  8
0
 10
-41.5577
 20
426.008
 11
-41.278
 21
425.698
  0
LINE
  8
0
 10
-41.278
 20
425.698
 11
-41.0689
 21
425.335
  0
LINE
  8
0
 10
-41.0689
 20
425.335
 11
-40.9397
 21
424.938
  0
LINE
  8
0
 10
-40.9397
 20
424.938
 11
-40.896
 21
424.522
  0
LINE
  8
0
 10
-40.896
 20
424.522
 11
-40.9397
 21
424.106
  0
LINE
  8
0
 10
-40.9397
 20
424.106
 11
-41.0689
 21
423.709
  0
LINE
  8
0
 10
-41.0689
 20
423.709
 11
-41.278
 21
423.346
  0
LINE
  8
0
 10
-41.278
 20
423.346
 11
-41.5577
 21
423.036
  0
LINE
  8
0
 10
-41.5577
 20
423.036
 11
-41.896
 21
422.79
  0
LINE
  8
0
 10
-41.896
 20
422.79
 11
-42.278
 21
422.62
  0
LINE
  8
0
 10
-42.278
 20
422.62
 11
-42.6869
 21
422.533
  0
LINE
  8
0
 10
-42.6869
 20
422.533
 11
-43.1051
 21
422.533
  0
LINE
  8
0
 10
565.645
 20
399.283
 11
565.236
 21
399.37
  0
LINE
  8
0
 10
565.236
 20
399.37
 11
564.854
 21
399.54
  0
LINE
  8
0
 10
564.854
 20
399.54
 11
564.516
 21
399.786
  0
LINE
  8
0
 10
564.516
 20
399.786
 11
564.236
 21
400.096
  0
LINE
  8
0
 10
564.236
 20
400.096
 11
564.027
 21
400.459
  0
LINE
  8
0
 10
564.027
 20
400.459
 11
563.898
 21
400.856
  0
LINE
  8
0
 10
563.898
 20
400.856
 11
563.854
 21
401.272
  0
LINE
  8
0
 10
563.854
 20
401.272
 11
563.898
 21
401.688
  0
LINE
  8
0
 10
563.898
 20
401.688
 11
564.027
 21
402.085
  0
LINE
  8
0
 10
564.027
 20
402.085
 11
564.236
 21
402.448
  0
LINE
  8
0
 10
564.236
 20
402.448
 11
564.516
 21
402.758
  0
LINE
  8
0
 10
564.516
 20
402.758
 11
564.854
 21
403.004
  0
LINE
  8
0
 10
564.854
 20
403.004
 11
565.236
 21
403.174
  0
LINE
  8
0
 10
565.236
 20
403.174
 11
565.645
 21
403.261
  0
LINE
  8
0
 10
565.645
 20
403.261
 11
566.063
 21
403.261
  0
LINE
  8
0
 10
566.063
 20
403.261
 11
566.472
 21
403.174
  0
LINE
  8
0
 10
566.472
 20
403.174
 11
566.854
 21
403.004
  0
LINE
  8
0
 10
566.854
 20
403.004
 11
567.192
 21
402.758
  0
LINE
  8
0
 10
567.192
 20
402.758
 11
567.472
 21
402.448
  0
LINE
  8
0
 10
567.472
 20
402.448
 11
567.681
 21
402.085
  0
LINE
  8
0
 10
567.681
 20
402.085
 11
567.81
 21
401.688
  0
LINE
  8
0
 10
567.81
 20
401.688
 11
567.854
 21
401.272
  0
LINE
  8
0
 10
567.854
 20
401.272
 11
567.81
 21
400.856
  0
LINE
  8
0
 10
567.81
 20
400.856
 11
567.681
 21
400.459
  0
LINE
  8
0
 10
567.681
 20
400.459
 11
567.472
 21
400.096
  0
LINE
  8
0
 10
567.472
 20
400.096
 11
567.192
 21
399.786
  0
LINE
  8
0
 10
567.192
 20
399.786
 11
566.854
 21
399.54
  0
LINE
  8
0
 10
566.854
 20
399.54
 11
566.472
 21
399.37
  0
LINE
  8
0
 10
566.472
 20
399.37
 11
566.063
 21
399.283
  0
LINE
  8
0
 10
566.063
 20
399.283
 11
565.645
 21
399.283
  0
LINE
  8
0
 10
-84.3551
 20
399.283
 11
-84.764
 21
399.37
  0
LINE
  8
0
 10
-84.764
 20
399.37
 11
-85.146
 21
399.54
  0
LINE
  8
0
 10
-85.146
 20
399.54
 11
-85.4843
 21
399.786
  0
LINE
  8
0
 10
-85.4843
 20
399.786
 11
-85.764
 21
400.096
  0
LINE
  8
0
 10
-85.764
 20
400.096
 11
-85.9731
 21
400.459
  0
LINE
  8
0
 10
-85.9731
 20
400.459
 11
-86.1023
 21
400.856
  0
LINE
  8
0
 10
-86.1023
 20
400.856
 11
-86.146
 21
401.272
  0
LINE
  8
0
 10
-86.146
 20
401.272
 11
-86.1023
 21
401.688
  0
LINE
  8
0
 10
-86.1023
 20
401.688
 11
-85.9731
 21
402.085
  0
LINE
  8
0
 10
-85.9731
 20
402.085
 11
-85.764
 21
402.448
  0
LINE
  8
0
 10
-85.764
 20
402.448
 11
-85.4843
 21
402.758
  0
LINE
  8
0
 10
-85.4843
 20
402.758
 11
-85.146
 21
403.004
  0
LINE
  8
0
 10
-85.146
 20
403.004
 11
-84.764
 21
403.174
  0
LINE
  8
0
 10
-84.764
 20
403.174
 11
-84.3551
 21
403.261
  0
LINE
  8
0
 10
-84.3551
 20
403.261
 11
-83.9369
 21
403.261
  0
LINE
  8
0
 10
-83.9369
 20
403.261
 11
-83.528
 21
403.174
  0
LINE
  8
0
 10
-83.528
 20
403.174
 11
-83.146
 21
403.004
  0
LINE
  8
0
 10
-83.146
 20
403.004
 11
-82.8077
 21
402.758
  0
LINE
  8
0
 10
-82.8077
 20
402.758
 11
-82.528
 21
402.448
  0
LINE
  8
0
 10
-82.528
 20
402.448
 11
-82.3189
 21
402.085
  0
LINE
  8
0
 10
-82.3189
 20
402.085
 11
-82.1897
 21
401.688
  0
LINE
  8
0
 10
-82.1897
 20
401.688
 11
-82.146
 21
401.272
  0
LINE
  8
0
 10
-82.146
 20
401.272
 11
-82.1897
 21
400.856
  0
LINE
  8
0
 10
-82.1897
 20
400.856
 11
-82.3189
 21
400.459
  0
LINE
  8
0
 10
-82.3189
 20
400.459
 11
-82.528
 21
400.096
  0
LINE
  8
0
 10
-82.528
 20
400.096
 11
-82.8077
 21
399.786
  0
LINE
  8
0
 10
-82.8077
 20
399.786
 11
-83.146
 21
399.54
  0
LINE
  8
0
 10
-83.146
 20
399.54
 11
-83.528
 21
399.37
  0
LINE
  8
0
 10
-83.528
 20
399.37
 11
-83.9369
 21
399.283
  0
LINE
  8
0
 10
-83.9369
 20
399.283
 11
-84.3551
 21
399.283
  0
LINE
  8
0
 10
565.645
 20
174.283
 11
565.236
 21
174.37
  0
LINE
  8
0
 10
565.236
 20
174.37
 11
564.854
 21
174.54
  0
LINE
  8
0
 10
564.854
 20
174.54
 11
564.516
 21
174.786
  0
LINE
  8
0
 10
564.516
 20
174.786
 11
564.236
 21
175.096
  0
LINE
  8
0
 10
564.236
 20
175.096
 11
564.027
 21
175.459
  0
LINE
  8
0
 10
564.027
 20
175.459
 11
563.898
 21
175.856
  0
LINE
  8
0
 10
563.898
 20
175.856
 11
563.854
 21
176.272
  0
LINE
  8
0
 10
563.854
 20
176.272
 11
563.898
 21
176.688
  0
LINE
  8
0
 10
563.898
 20
176.688
 11
564.027
 21
177.085
  0
LINE
  8
0
 10
564.027
 20
177.085
 11
564.236
 21
177.448
  0
LINE
  8
0
 10
564.236
 20
177.448
 11
564.516
 21
177.758
  0
LINE
  8
0
 10
564.516
 20
177.758
 11
564.854
 21
178.004
  0
LINE
  8
0
 10
564.854
 20
178.004
 11
565.236
 21
178.174
  0
LINE
  8
0
 10
565.236
 20
178.174
 11
565.645
 21
178.261
  0
LINE
  8
0
 10
565.645
 20
178.261
 11
566.063
 21
178.261
  0
LINE
  8
0
 10
566.063
 20
178.261
 11
566.472
 21
178.174
  0
LINE
  8
0
 10
566.472
 20
178.174
 11
566.854
 21
178.004
  0
LINE
  8
0
 10
566.854
 20
178.004
 11
567.192
 21
177.758
  0
LINE
  8
0
 10
567.192
 20
177.758
 11
567.472
 21
177.448
  0
LINE
  8
0
 10
567.472
 20
177.448
 11
567.681
 21
177.085
  0
LINE
  8
0
 10
567.681
 20
177.085
 11
567.81
 21
176.688
  0
LINE
  8
0
 10
567.81
 20
176.688
 11
567.854
 21
176.272
  0
LINE
  8
0
 10
567.854
 20
176.272
 11
567.81
 21
175.856
  0
LINE
  8
0
 10
567.81
 20
175.856
 11
567.681
 21
175.459
  0
LINE
  8
0
 10
567.681
 20
175.459
 11
567.472
 21
175.096
  0
LINE
  8
0
 10
567.472
 20
175.096
 11
567.192
 21
174.786
  0
LINE
  8
0
 10
567.192
 20
174.786
 11
566.854
 21
174.54
  0
LINE
  8
0
 10
566.854
 20
174.54
 11
566.472
 21
174.37
  0
LINE
  8
0
 10
566.472
 20
174.37
 11
566.063
 21
174.283
  0
LINE
  8
0
 10
566.063
 20
174.283
 11
565.645
 21
174.283
  0
LINE
  8
0
 10
-84.3551
 20
174.283
 11
-84.764
 21
174.37
  0
LINE
  8
0
 10
-84.764
 20
174.37
 11
-85.146
 21
174.54
  0
LINE
  8
0
 10
-85.146
 20
174.54
 11
-85.4843
 21
174.786
  0
LINE
  8
0
 10
-85.4843
 20
174.786
 11
-85.764
 21
175.096
  0
LINE
  8
0
 10
-85.764
 20
175.096
 11
-85.9731
 21
175.459
  0
LINE
  8
0
 10
-85.9731
 20
175.459
 11
-86.1023
 21
175.856
  0
LINE
  8
0
 10
-86.1023
 20
175.856
 11
-86.146
 21
176.272
  0
LINE
  8
0
 10
-86.146
 20
176.272
 11
-86.1023
 21
176.688
  0
LINE
  8
0
 10
-86.1023
 20
176.688
 11
-85.9731
 21
177.085
  0
LINE
  8
0
 10
-85.9731
 20
177.085
 11
-85.764
 21
177.448
  0
LINE
  8
0
 10
-85.764
 20
177.448
 11
-85.4843
 21
177.758
  0
LINE
  8
0
 10
-85.4843
 20
177.758
 11
-85.146
 21
178.004
  0
LINE
  8
0
 10
-85.146
 20
178.004
 11
-84.764
 21
178.174
  0
LINE
  8
0
 10
-84.764
 20
178.174
 11
-84.3551
 21
178.261
  0
LINE
  8
0
 10
-84.3551
 20
178.261
 11
-83.9369
 21
178.261
  0
LINE
  8
0
 10
-83.9369
 20
178.261
 11
-83.528
 21
178.174
  0
LINE
  8
0
 10
-83.528
 20
178.174
 11
-83.146
 21
178.004
  0
LINE
  8
0
 10
-83.146
 20
178.004
 11
-82.8077
 21
177.758
  0
LINE
  8
0
 10
-82.8077
 20
177.758
 11
-82.528
 21
177.448
  0
LINE
  8
0
 10
-82.528
 20
177.448
 11
-82.3189
 21
177.085
  0
LINE
  8
0
 10
-82.3189
 20
177.085
 11
-82.1897
 21
176.688
  0
LINE
  8
0
 10
-82.1897
 20
176.688
 11
-82.146
 21
176.272
  0
LINE
  8
0
 10
-82.146
 20
176.272
 11
-82.1897
 21
175.856
  0
LINE
  8
0
 10
-82.1897
 20
175.856
 11
-82.3189
 21
175.459
  0
LINE
  8
0
 10
-82.3189
 20
175.459
 11
-82.528
 21
175.096
  0
LINE
  8
0
 10
-82.528
 20
175.096
 11
-82.8077
 21
174.786
  0
LINE
  8
0
 10
-82.8077
 20
174.786
 11
-83.146
 21
174.54
  0
LINE
  8
0
 10
-83.146
 20
174.54
 11
-83.528
 21
174.37
  0
LINE
  8
0
 10
-83.528
 20
174.37
 11
-83.9369
 21
174.283
  0
LINE
  8
0
 10
-83.9369
 20
174.283
 11
-84.3551
 21
174.283
  0
LINE
  8
0
 10
565.645
 20
-105.717
 11
565.236
 21
-105.63
  0
LINE
  8
0
 10
565.236
 20
-105.63
 11
564.854
 21
-105.46
  0
LINE
  8
0
 10
564.854
 20
-105.46
 11
564.516
 21
-105.214
  0
LINE
  8
0
 10
564.516
 20
-105.214
 11
564.236
 21
-104.904
  0
LINE
  8
0
 10
564.236
 20
-104.904
 11
564.027
 21
-104.541
  0
LINE
  8
0
 10
564.027
 20
-104.541
 11
563.898
 21
-104.144
  0
LINE
  8
0
 10
563.898
 20
-104.144
 11
563.854
 21
-103.728
  0
LINE
  8
0
 10
563.854
 20
-103.728
 11
563.898
 21
-103.312
  0
LINE
  8
0
 10
563.898
 20
-103.312
 11
564.027
 21
-102.915
  0
LINE
  8
0
 10
564.027
 20
-102.915
 11
564.236
 21
-102.552
  0
LINE
  8
0
 10
564.236
 20
-102.552
 11
564.516
 21
-102.242
  0
LINE
  8
0
 10
564.516
 20
-102.242
 11
564.854
 21
-101.996
  0
LINE
  8
0
 10
564.854
 20
-101.996
 11
565.236
 21
-101.826
  0
LINE
  8
0
 10
565.236
 20
-101.826
 11
565.645
 21
-101.739
  0
LINE
  8
0
 10
565.645
 20
-101.739
 11
566.063
 21
-101.739
  0
LINE
  8
0
 10
566.063
 20
-101.739
 11
566.472
 21
-101.826
  0
LINE
  8
0
 10
566.472
 20
-101.826
 11
566.854
 21
-101.996
  0
LINE
  8
0
 10
566.854
 20
-101.996
 11
567.192
 21
-102.242
  0
LINE
  8
0
 10
567.192
 20
-102.242
 11
567.472
 21
-102.552
  0
LINE
  8
0
 10
567.472
 20
-102.552
 11
567.681
 21
-102.915
  0
LINE
  8
0
 10
567.681
 20
-102.915
 11
567.81
 21
-103.312
  0
LINE
  8
0
 10
567.81
 20
-103.312
 11
567.854
 21
-103.728
  0
LINE
  8
0
 10
567.854
 20
-103.728
 11
567.81
 21
-104.144
  0
LINE
  8
0
 10
567.81
 20
-104.144
 11
567.681
 21
-104.541
  0
LINE
  8
0
 10
567.681
 20
-104.541
 11
567.472
 21
-104.904
  0
LINE
  8
0
 10
567.472
 20
-104.904
 11
567.192
 21
-105.214
  0
LINE
  8
0
 10
567.192
 20
-105.214
 11
566.854
 21
-105.46
  0
LINE
  8
0
 10
566.854
 20
-105.46
 11
566.472
 21
-105.63
  0
LINE
  8
0
 10
566.472
 20
-105.63
 11
566.063
 21
-105.717
  0
LINE
  8
0
 10
566.063
 20
-105.717
 11
565.645
 21
-105.717
  0
LINE
  8
0
 10
-84.3551
 20
-105.717
 11
-84.764
 21
-105.63
  0
LINE
  8
0
 10
-84.764
 20
-105.63
 11
-85.146
 21
-105.46
  0
LINE
  8
0
 10
-85.146
 20
-105.46
 11
-85.4843
 21
-105.214
  0
LINE
  8
0
 10
-85.4843
 20
-105.214
 11
-85.764
 21
-104.904
  0
LINE
  8
0
 10
-85.764
 20
-104.904
 11
-85.9731
 21
-104.541
  0
LINE
  8
0
 10
-85.9731
 20
-104.541
 11
-86.1023
 21
-104.144
  0
LINE
  8
0
 10
-86.1023
 20
-104.144
 11
-86.146
 21
-103.728
  0
LINE
  8
0
 10
-86.146
 20
-103.728
 11
-86.1023
 21
-103.312
  0
LINE
  8
0
 10
-86.1023
 20
-103.312
 11
-85.9731
 21
-102.915
  0
LINE
  8
0
 10
-85.9731
 20
-102.915
 11
-85.764
 21
-102.552
  0
LINE
  8
0
 10
-85.764
 20
-102.552
 11
-85.4843
 21
-102.242
  0
LINE
  8
0
 10
-85.4843
 20
-102.242
 11
-85.146
 21
-101.996
  0
LINE
  8
0
 10
-85.146
 20
-101.996
 11
-84.764
 21
-101.826
  0
LINE
  8
0
 10
-84.764
 20
-101.826
 11
-84.3551
 21
-101.739
  0
LINE
  8
0
 10
-84.3551
 20
-101.739
 11
-83.9369
 21
-101.739
  0
LINE
  8
0
 10
-83.9369
 20
-101.739
 11
-83.528
 21
-101.826
  0
LINE
  8
0
 10
-83.528
 20
-101.826
 11
-83.146
 21
-101.996
  0
LINE
  8
0
 10
-83.146
 20
-101.996
 11
-82.8077
 21
-102.242
  0
LINE
  8
0
 10
-82.8077
 20
-102.242
 11
-82.528
 21
-102.552
  0
LINE
  8
0
 10
-82.528
 20
-102.552
 11
-82.3189
 21
-102.915
  0
LINE
  8
0
 10
-82.3189
 20
-102.915
 11
-82.1897
 21
-103.312
  0
LINE
  8
0
 10
-82.1897
 20
-103.312
 11
-82.146
 21
-103.728
  0
LINE
  8
0
 10
-82.146
 20
-103.728
 11
-82.1897
 21
-104.144
  0
LINE
  8
0
 10
-82.1897
 20
-104.144
 11
-82.3189
 21
-104.541
  0
LINE
  8
0
 10
-82.3189
 20
-104.541
 11
-82.528
 21
-104.904
  0
LINE
  8
0
 10
-82.528
 20
-104.904
 11
-82.8077
 21
-105.214
  0
LINE
  8
0
 10
-82.8077
 20
-105.214
 11
-83.146
 21
-105.46
  0
LINE
  8
0
 10
-83.146
 20
-105.46
 11
-83.528
 21
-105.63
  0
LINE
  8
0
 10
-83.528
 20
-105.63
 11
-83.9369
 21
-105.717
  0
LINE
  8
0
 10
-83.9369
 20
-105.717
 11
-84.3551
 21
-105.717
  0
LINE
  8
0
 10
541.895
 20
-146.967
 11
541.486
 21
-146.88
  0
LINE
  8
0
 10
541.486
 20
-146.88
 11
541.104
 21
-146.71
  0
LINE
  8
0
 10
541.104
 20
-146.71
 11
540.766
 21
-146.464
  0
LINE
  8
0
 10
540.766
 20
-146.464
 11
540.486
 21
-146.154
  0
LINE
  8
0
 10
540.486
 20
-146.154
 11
540.277
 21
-145.791
  0
LINE
  8
0
 10
540.277
 20
-145.791
 11
540.148
 21
-145.394
  0
LINE
  8
0
 10
540.148
 20
-145.394
 11
540.104
 21
-144.978
  0
LINE
  8
0
 10
540.104
 20
-144.978
 11
540.148
 21
-144.562
  0
LINE
  8
0
 10
540.148
 20
-144.562
 11
540.277
 21
-144.165
  0
LINE
  8
0
 10
540.277
 20
-144.165
 11
540.486
 21
-143.802
  0
LINE
  8
0
 10
540.486
 20
-143.802
 11
540.766
 21
-143.492
  0
LINE
  8
0
 10
540.766
 20
-143.492
 11
541.104
 21
-143.246
  0
LINE
  8
0
 10
541.104
 20
-143.246
 11
541.486
 21
-143.076
  0
LINE
  8
0
 10
541.486
 20
-143.076
 11
541.895
 21
-142.989
  0
LINE
  8
0
 10
541.895
 20
-142.989
 11
542.313
 21
-142.989
  0
LINE
  8
0
 10
542.313
 20
-142.989
 11
542.722
 21
-143.076
  0
LINE
  8
0
 10
542.722
 20
-143.076
 11
543.104
 21
-143.246
  0
LINE
  8
0
 10
543.104
 20
-143.246
 11
543.442
 21
-143.492
  0
LINE
  8
0
 10
543.442
 20
-143.492
 11
543.722
 21
-143.802
  0
LINE
  8
0
 10
543.722
 20
-143.802
 11
543.931
 21
-144.165
  0
LINE
  8
0
 10
543.931
 20
-144.165
 11
544.06
 21
-144.562
  0
LINE
  8
0
 10
544.06
 20
-144.562
 11
544.104
 21
-144.978
  0
LINE
  8
0
 10
544.104
 20
-144.978
 11
544.06
 21
-145.394
  0
LINE
  8
0
 10
544.06
 20
-145.394
 11
543.931
 21
-145.791
  0
LINE
  8
0
 10
543.931
 20
-145.791
 11
543.722
 21
-146.154
  0
LINE
  8
0
 10
543.722
 20
-146.154
 11
543.442
 21
-146.464
  0
LINE
  8
0
 10
543.442
 20
-146.464
 11
543.104
 21
-146.71
  0
LINE
  8
0
 10
543.104
 20
-146.71
 11
542.722
 21
-146.88
  0
LINE
  8
0
 10
542.722
 20
-146.88
 11
542.313
 21
-146.967
  0
LINE
  8
0
 10
542.313
 20
-146.967
 11
541.895
 21
-146.967
  0
LINE
  8
0
 10
226.895
 20
-146.967
 11
226.486
 21
-146.88
  0
LINE
  8
0
 10
226.486
 20
-146.88
 11
226.104
 21
-146.71
  0
LINE
  8
0
 10
226.104
 20
-146.71
 11
225.766
 21
-146.464
  0
LINE
  8
0
 10
225.766
 20
-146.464
 11
225.486
 21
-146.154
  0
LINE
  8
0
 10
225.486
 20
-146.154
 11
225.277
 21
-145.791
  0
LINE
  8
0
 10
225.277
 20
-145.791
 11
225.148
 21
-145.394
  0
LINE
  8
0
 10
225.148
 20
-145.394
 11
225.104
 21
-144.978
  0
LINE
  8
0
 10
225.104
 20
-144.978
 11
225.148
 21
-144.562
  0
LINE
  8
0
 10
225.148
 20
-144.562
 11
225.277
 21
-144.165
  0
LINE
  8
0
 10
225.277
 20
-144.165
 11
225.486
 21
-143.802
  0
LINE
  8
0
 10
225.486
 20
-143.802
 11
225.766
 21
-143.492
  0
LINE
  8
0
 10
225.766
 20
-143.492
 11
226.104
 21
-143.246
  0
LINE
  8
0
 10
226.104
 20
-143.246
 11
226.486
 21
-143.076
  0
LINE
  8
0
 10
226.486
 20
-143.076
 11
226.895
 21
-142.989
  0
LINE
  8
0
 10
226.895
 20
-142.989
 11
227.313
 21
-142.989
  0
LINE
  8
0
 10
227.313
 20
-142.989
 11
227.722
 21
-143.076
  0
LINE
  8
0
 10
227.722
 20
-143.076
 11
228.104
 21
-143.246
  0
LINE
  8
0
 10
228.104
 20
-143.246
 11
228.442
 21
-143.492
  0
LINE
  8
0
 10
228.442
 20
-143.492
 11
228.722
 21
-143.802
  0
LINE
  8
0
 10
228.722
 20
-143.802
 11
228.931
 21
-144.165
  0
LINE
  8
0
 10
228.931
 20
-144.165
 11
229.06
 21
-144.562
  0
LINE
  8
0
 10
229.06
 20
-144.562
 11
229.104
 21
-144.978
  0
LINE
  8
0
 10
229.104
 20
-144.978
 11
229.06
 21
-145.394
  0
LINE
  8
0
 10
229.06
 20
-145.394
 11
228.931
 21
-145.791
  0
LINE
  8
0
 10
228.931
 20
-145.791
 11
228.722
 21
-146.154
  0
LINE
  8
0
 10
228.722
 20
-146.154
 11
228.442
 21
-146.464
  0
LINE
  8
0
 10
228.442
 20
-146.464
 11
228.104
 21
-146.71
  0
LINE
  8
0
 10
228.104
 20
-146.71
 11
227.722
 21
-146.88
  0
LINE
  8
0
 10
227.722
 20
-146.88
 11
227.313
 21
-146.967
  0
LINE
  8
0
 10
227.313
 20
-146.967
 11
226.895
 21
-146.967
  0
LINE
  8
0
 10
-63.1051
 20
-146.967
 11
-63.514
 21
-146.88
  0
LINE
  8
0
 10
-63.514
 20
-146.88
 11
-63.896
 21
-146.71
  0
LINE
  8
0
 10
-63.896
 20
-146.71
 11
-64.2343
 21
-146.464
  0
LINE
  8
0
 10
-64.2343
 20
-146.464
 11
-64.514
 21
-146.154
  0
LINE
  8
0
 10
-64.514
 20
-146.154
 11
-64.7231
 21
-145.791
  0
LINE
  8
0
 10
-64.7231
 20
-145.791
 11
-64.8523
 21
-145.394
  0
LINE
  8
0
 10
-64.8523
 20
-145.394
 11
-64.896
 21
-144.978
  0
LINE
  8
0
 10
-64.896
 20
-144.978
 11
-64.8523
 21
-144.562
  0
LINE
  8
0
 10
-64.8523
 20
-144.562
 11
-64.7231
 21
-144.165
  0
LINE
  8
0
 10
-64.7231
 20
-144.165
 11
-64.514
 21
-143.802
  0
LINE
  8
0
 10
-64.514
 20
-143.802
 11
-64.2343
 21
-143.492
  0
LINE
  8
0
 10
-64.2343
 20
-143.492
 11
-63.896
 21
-143.246
  0
LINE
  8
0
 10
-63.896
 20
-143.246
 11
-63.514
 21
-143.076
  0
LINE
  8
0
 10
-63.514
 20
-143.076
 11
-63.1051
 21
-142.989
  0
LINE
  8
0
 10
-63.1051
 20
-142.989
 11
-62.6869
 21
-142.989
  0
LINE
  8
0
 10
-62.6869
 20
-142.989
 11
-62.278
 21
-143.076
  0
LINE
  8
0
 10
-62.278
 20
-143.076
 11
-61.896
 21
-143.246
  0
LINE
  8
0
 10
-61.896
 20
-143.246
 11
-61.5577
 21
-143.492
  0
LINE
  8
0
 10
-61.5577
 20
-143.492
 11
-61.278
 21
-143.802
  0
LINE
  8
0
 10
-61.278
 20
-143.802
 11
-61.0689
 21
-144.165
  0
LINE
  8
0
 10
-61.0689
 20
-144.165
 11
-60.9397
 21
-144.562
  0
LINE
  8
0
 10
-60.9397
 20
-144.562
 11
-60.896
 21
-144.978
  0
LINE
  8
0
 10
-60.896
 20
-144.978
 11
-60.9397
 21
-145.394
  0
LINE
  8
0
 10
-60.9397
 20
-145.394
 11
-61.0689
 21
-145.791
  0
LINE
  8
0
 10
-61.0689
 20
-145.791
 11
-61.278
 21
-146.154
  0
LINE
  8
0
 10
-61.278
 20
-146.154
 11
-61.5577
 21
-146.464
  0
LINE
  8
0
 10
-61.5577
 20
-146.464
 11
-61.896
 21
-146.71
  0
LINE
  8
0
 10
-61.896
 20
-146.71
 11
-62.278
 21
-146.88
  0
LINE
  8
0
 10
-62.278
 20
-146.88
 11
-62.6869
 21
-146.967
  0
LINE
  8
0
 10
-62.6869
 20
-146.967
 11
-63.1051
 21
-146.967
  0
ENDSEC
  0
SECTION
  2
OBJECTS
  0
DICTIONARY
  0
ENDSEC
  0
EOF
