  0
SECTION
  2
BLOCKS
  0
ENDSEC
  0
SECTION
  2
ENTITIES
  0
LINE
  8
0
 10
67
 20
79
 11
375
 21
79
  0
LINE
  8
0
 10
375
 20
79
 11
375
 21
50
  0
LINE
  8
0
 10
375
 20
50
 11
411.75
 21
50
  0
LINE
  8
0
 10
411.75
 20
50
 11
411.75
 21
380
  0
LINE
  8
0
 10
411.75
 20
380
 11
375
 21
380
  0
LINE
  8
0
 10
375
 20
380
 11
375
 21
250
  0
LINE
  8
0
 10
375
 20
250
 11
67
 21
250
  0
LINE
  8
0
 10
67
 20
250
 11
67
 21
380
  0
LINE
  8
0
 10
67
 20
380
 11
28.25
 21
380
  0
LINE
  8
0
 10
28.25
 20
380
 11
28.25
 21
50
  0
LINE
  8
0
 10
28.25
 20
50
 11
67
 21
50
  0
LINE
  8
0
 10
67
 20
50
 11
67
 21
79
  0
LINE
  8
0
 10
403.78
 20
313.911
 11
403.351
 21
314.003
  0
LINE
  8
0
 10
403.351
 20
314.003
 11
402.95
 21
314.181
  0
LINE
  8
0
 10
402.95
 20
314.181
 11
402.595
 21
314.439
  0
LINE
  8
0
 10
402.595
 20
314.439
 11
402.301
 21
314.766
  0
LINE
  8
0
 10
402.301
 20
314.766
 11
402.082
 21
315.146
  0
LINE
  8
0
 10
402.082
 20
315.146
 11
401.946
 21
315.563
  0
LINE
  8
0
 10
401.946
 20
315.563
 11
401.9
 21
316
  0
LINE
  8
0
 10
401.9
 20
316
 11
401.946
 21
316.437
  0
LINE
  8
0
 10
401.946
 20
316.437
 11
401.966
 21
316.5
  0
LINE
  8
0
 10
401.966
 20
316.5
 11
401.946
 21
316.563
  0
LINE
  8
0
 10
401.946
 20
316.563
 11
401.9
 21
317
  0
LINE
  8
0
 10
401.9
 20
317
 11
401.946
 21
317.437
  0
LINE
  8
0
 10
401.946
 20
317.437
 11
401.966
 21
317.5
  0
LINE
  8
0
 10
401.966
 20
317.5
 11
401.946
 21
317.563
  0
LINE
  8
0
 10
401.946
 20
317.563
 11
401.9
 21
318
  0
LINE
  8
0
 10
401.9
 20
318
 11
401.946
 21
318.437
  0
LINE
  8
0
 10
401.946
 20
318.437
 11
401.966
 21
318.5
  0
LINE
  8
0
 10
401.966
 20
318.5
 11
401.946
 21
318.563
  0
LINE
  8
0
 10
401.946
 20
318.563
 11
401.9
 21
319
  0
LINE
  8
0
 10
401.9
 20
319
 11
401.946
 21
319.437
  0
LINE
  8
0
 10
401.946
 20
319.437
 11
401.966
 21
319.5
  0
LINE
  8
0
 10
401.966
 20
319.5
 11
401.946
 21
319.563
  0
LINE
  8
0
 10
401.946
 20
319.563
 11
401.9
 21
320
  0
LINE
  8
0
 10
401.9
 20
320
 11
401.946
 21
320.437
  0
LINE
  8
0
 10
401.946
 20
320.437
 11
401.966
 21
320.5
  0
LINE
  8
0
 10
401.966
 20
320.5
 11
401.946
 21
320.563
  0
LINE
  8
0
 10
401.946
 20
320.563
 11
401.9
 21
321
  0
LINE
  8
0
 10
401.9
 20
321
 11
401.946
 21
321.437
  0
LINE
  8
0
 10
401.946
 20
321.437
 11
401.966
 21
321.5
  0
LINE
  8
0
 10
401.966
 20
321.5
 11
401.946
 21
321.563
  0
LINE
  8
0
 10
401.946
 20
321.563
 11
401.9
 21
322
  0
LINE
  8
0
 10
401.9
 20
322
 11
401.946
 21
322.437
  0
LINE
  8
0
 10
401.946
 20
322.437
 11
402.082
 21
322.854
  0
LINE
  8
0
 10
402.082
 20
322.854
 11
402.301
 21
323.234
  0
LINE
  8
0
 10
402.301
 20
323.234
 11
402.595
 21
323.561
  0
LINE
  8
0
 10
402.595
 20
323.561
 11
402.95
 21
323.819
  0
LINE
  8
0
 10
402.95
 20
323.819
 11
403.351
 21
323.997
  0
LINE
  8
0
 10
403.351
 20
323.997
 11
403.78
 21
324.089
  0
LINE
  8
0
 10
403.78
 20
324.089
 11
404.22
 21
324.089
  0
LINE
  8
0
 10
404.22
 20
324.089
 11
404.649
 21
323.997
  0
LINE
  8
0
 10
404.649
 20
323.997
 11
405.05
 21
323.819
  0
LINE
  8
0
 10
405.05
 20
323.819
 11
405.405
 21
323.561
  0
LINE
  8
0
 10
405.405
 20
323.561
 11
405.699
 21
323.234
  0
LINE
  8
0
 10
405.699
 20
323.234
 11
405.918
 21
322.854
  0
LINE
  8
0
 10
405.918
 20
322.854
 11
406.054
 21
322.437
  0
LINE
  8
0
 10
406.054
 20
322.437
 11
406.1
 21
322
  0
LINE
  8
0
 10
406.1
 20
322
 11
406.054
 21
321.563
  0
LINE
  8
0
 10
406.054
 20
321.563
 11
406.034
 21
321.5
  0
LINE
  8
0
 10
406.034
 20
321.5
 11
406.054
 21
321.437
  0
LINE
  8
0
 10
406.054
 20
321.437
 11
406.1
 21
321
  0
LINE
  8
0
 10
406.1
 20
321
 11
406.054
 21
320.563
  0
LINE
  8
0
 10
406.054
 20
320.563
 11
406.034
 21
320.5
  0
LINE
  8
0
 10
406.034
 20
320.5
 11
406.054
 21
320.437
  0
LINE
  8
0
 10
406.054
 20
320.437
 11
406.1
 21
320
  0
LINE
  8
0
 10
406.1
 20
320
 11
406.054
 21
319.563
  0
LINE
  8
0
 10
406.054
 20
319.563
 11
406.034
 21
319.5
  0
LINE
  8
0
 10
406.034
 20
319.5
 11
406.054
 21
319.437
  0
LINE
  8
0
 10
406.054
 20
319.437
 11
406.1
 21
319
  0
LINE
  8
0
 10
406.1
 20
319
 11
406.054
 21
318.563
  0
LINE
  8
0
 10
406.054
 20
318.563
 11
406.034
 21
318.5
  0
LINE
  8
0
 10
406.034
 20
318.5
 11
406.054
 21
318.437
  0
LINE
  8
0
 10
406.054
 20
318.437
 11
406.1
 21
318
  0
LINE
  8
0
 10
406.1
 20
318
 11
406.054
 21
317.563
  0
LINE
  8
0
 10
406.054
 20
317.563
 11
406.034
 21
317.5
  0
LINE
  8
0
 10
406.034
 20
317.5
 11
406.054
 21
317.437
  0
LINE
  8
0
 10
406.054
 20
317.437
 11
406.1
 21
317
  0
LINE
  8
0
 10
406.1
 20
317
 11
406.054
 21
316.563
  0
LINE
  8
0
 10
406.054
 20
316.563
 11
406.034
 21
316.5
  0
LINE
  8
0
 10
406.034
 20
316.5
 11
406.054
 21
316.437
  0
LINE
  8
0
 10
406.054
 20
316.437
 11
406.1
 21
316
  0
LINE
  8
0
 10
406.1
 20
316
 11
406.054
 21
315.563
  0
LINE
  8
0
 10
406.054
 20
315.563
 11
405.918
 21
315.146
  0
LINE
  8
0
 10
405.918
 20
315.146
 11
405.699
 21
314.766
  0
LINE
  8
0
 10
405.699
 20
314.766
 11
405.405
 21
314.439
  0
LINE
  8
0
 10
405.405
 20
314.439
 11
405.05
 21
314.181
  0
LINE
  8
0
 10
405.05
 20
314.181
 11
404.649
 21
314.003
  0
LINE
  8
0
 10
404.649
 20
314.003
 11
404.22
 21
313.911
  0
LINE
  8
0
 10
404.22
 20
313.911
 11
403.78
 21
313.911
  0
LINE
  8
0
 10
34.7805
 20
313.911
 11
34.3511
 21
314.003
  0
LINE
  8
0
 10
34.3511
 20
314.003
 11
33.95
 21
314.181
  0
LINE
  8
0
 10
33.95
 20
314.181
 11
33.5948
 21
314.439
  0
LINE
  8
0
 10
33.5948
 20
314.439
 11
33.3011
 21
314.766
  0
LINE
  8
0
 10
33.3011
 20
314.766
 11
33.0815
 21
315.146
  0
LINE
  8
0
 10
33.0815
 20
315.146
 11
32.9459
 21
315.563
  0
LINE
  8
0
 10
32.9459
 20
315.563
 11
32.9
 21
316
  0
LINE
  8
0
 10
32.9
 20
316
 11
32.9459
 21
316.437
  0
LINE
  8
0
 10
32.9459
 20
316.437
 11
32.9665
 21
316.5
  0
LINE
  8
0
 10
32.9665
 20
316.5
 11
32.9459
 21
316.563
  0
LINE
  8
0
 10
32.9459
 20
316.563
 11
32.9
 21
317
  0
LINE
  8
0
 10
32.9
 20
317
 11
32.9459
 21
317.437
  0
LINE
  8
0
 10
32.9459
 20
317.437
 11
32.9665
 21
317.5
  0
LINE
  8
0
 10
32.9665
 20
317.5
 11
32.9459
 21
317.563
  0
LINE
  8
0
 10
32.9459
 20
317.563
 11
32.9
 21
318
  0
LINE
  8
0
 10
32.9
 20
318
 11
32.9459
 21
318.437
  0
LINE
  8
0
 10
32.9459
 20
318.437
 11
32.9665
 21
318.5
  0
LINE
  8
0
 10
32.9665
 20
318.5
 11
32.9459
 21
318.563
  0
LINE
  8
0
 10
32.9459
 20
318.563
 11
32.9
 21
319
  0
LINE
  8
0
 10
32.9
 20
319
 11
32.9459
 21
319.437
  0
LINE
  8
0
 10
32.9459
 20
319.437
 11
32.9665
 21
319.5
  0
LINE
  8
0
 10
32.9665
 20
319.5
 11
32.9459
 21
319.563
  0
LINE
  8
0
 10
32.9459
 20
319.563
 11
32.9
 21
320
  0
LINE
  8
0
 10
32.9
 20
320
 11
32.9459
 21
320.437
  0
LINE
  8
0
 10
32.9459
 20
320.437
 11
32.9665
 21
320.5
  0
LINE
  8
0
 10
32.9665
 20
320.5
 11
32.9459
 21
320.563
  0
LINE
  8
0
 10
32.9459
 20
320.563
 11
32.9
 21
321
  0
LINE
  8
0
 10
32.9
 20
321
 11
32.9459
 21
321.437
  0
LINE
  8
0
 10
32.9459
 20
321.437
 11
32.9665
 21
321.5
  0
LINE
  8
0
 10
32.9665
 20
321.5
 11
32.9459
 21
321.563
  0
LINE
  8
0
 10
32.9459
 20
321.563
 11
32.9
 21
322
  0
LINE
  8
0
 10
32.9
 20
322
 11
32.9459
 21
322.437
  0
LINE
  8
0
 10
32.9459
 20
322.437
 11
33.0815
 21
322.854
  0
LINE
  8
0
 10
33.0815
 20
322.854
 11
33.3011
 21
323.234
  0
LINE
  8
0
 10
33.3011
 20
323.234
 11
33.5948
 21
323.561
  0
LINE
  8
0
 10
33.5948
 20
323.561
 11
33.95
 21
323.819
  0
LINE
  8
0
 10
33.95
 20
323.819
 11
34.3511
 21
323.997
  0
LINE
  8
0
 10
34.3511
 20
323.997
 11
34.7805
 21
324.089
  0
LINE
  8
0
 10
34.7805
 20
324.089
 11
35.2195
 21
324.089
  0
LINE
  8
0
 10
35.2195
 20
324.089
 11
35.6489
 21
323.997
  0
LINE
  8
0
 10
35.6489
 20
323.997
 11
36.05
 21
323.819
  0
LINE
  8
0
 10
36.05
 20
323.819
 11
36.4052
 21
323.561
  0
LINE
  8
0
 10
36.4052
 20
323.561
 11
36.6989
 21
323.234
  0
LINE
  8
0
 10
36.6989
 20
323.234
 11
36.9184
 21
322.854
  0
LINE
  8
0
 10
36.9184
 20
322.854
 11
37.0541
 21
322.437
  0
LINE
  8
0
 10
37.0541
 20
322.437
 11
37.1
 21
322
  0
LINE
  8
0
 10
37.1
 20
322
 11
37.0541
 21
321.563
  0
LINE
  8
0
 10
37.0541
 20
321.563
 11
37.0335
 21
321.5
  0
LINE
  8
0
 10
37.0335
 20
321.5
 11
37.0541
 21
321.437
  0
LINE
  8
0
 10
37.0541
 20
321.437
 11
37.1
 21
321
  0
LINE
  8
0
 10
37.1
 20
321
 11
37.0541
 21
320.563
  0
LINE
  8
0
 10
37.0541
 20
320.563
 11
37.0335
 21
320.5
  0
LINE
  8
0
 10
37.0335
 20
320.5
 11
37.0541
 21
320.437
  0
LINE
  8
0
 10
37.0541
 20
320.437
 11
37.1
 21
320
  0
LINE
  8
0
 10
37.1
 20
320
 11
37.0541
 21
319.563
  0
LINE
  8
0
 10
37.0541
 20
319.563
 11
37.0335
 21
319.5
  0
LINE
  8
0
 10
37.0335
 20
319.5
 11
37.0541
 21
319.437
  0
LINE
  8
0
 10
37.0541
 20
319.437
 11
37.1
 21
319
  0
LINE
  8
0
 10
37.1
 20
319
 11
37.0541
 21
318.563
  0
LINE
  8
0
 10
37.0541
 20
318.563
 11
37.0335
 21
318.5
  0
LINE
  8
0
 10
37.0335
 20
318.5
 11
37.0541
 21
318.437
  0
LINE
  8
0
 10
37.0541
 20
318.437
 11
37.1
 21
318
  0
LINE
  8
0
 10
37.1
 20
318
 11
37.0541
 21
317.563
  0
LINE
  8
0
 10
37.0541
 20
317.563
 11
37.0335
 21
317.5
  0
LINE
  8
0
 10
37.0335
 20
317.5
 11
37.0541
 21
317.437
  0
LINE
  8
0
 10
37.0541
 20
317.437
 11
37.1
 21
317
  0
LINE
  8
0
 10
37.1
 20
317
 11
37.0541
 21
316.563
  0
LINE
  8
0
 10
37.0541
 20
316.563
 11
37.0335
 21
316.5
  0
LINE
  8
0
 10
37.0335
 20
316.5
 11
37.0541
 21
316.437
  0
LINE
  8
0
 10
37.0541
 20
316.437
 11
37.1
 21
316
  0
LINE
  8
0
 10
37.1
 20
316
 11
37.0541
 21
315.563
  0
LINE
  8
0
 10
37.0541
 20
315.563
 11
36.9184
 21
315.146
  0
LINE
  8
0
 10
36.9184
 20
315.146
 11
36.6989
 21
314.766
  0
LINE
  8
0
 10
36.6989
 20
314.766
 11
36.4052
 21
314.439
  0
LINE
  8
0
 10
36.4052
 20
314.439
 11
36.05
 21
314.181
  0
LINE
  8
0
 10
36.05
 20
314.181
 11
35.6489
 21
314.003
  0
LINE
  8
0
 10
35.6489
 20
314.003
 11
35.2195
 21
313.911
  0
LINE
  8
0
 10
35.2195
 20
313.911
 11
34.7805
 21
313.911
  0
LINE
  8
0
 10
392.343
 20
313.508
 11
392.036
 21
313.573
  0
LINE
  8
0
 10
392.036
 20
313.573
 11
391.75
 21
313.701
  0
LINE
  8
0
 10
391.75
 20
313.701
 11
391.496
 21
313.885
  0
LINE
  8
0
 10
391.496
 20
313.885
 11
391.286
 21
314.118
  0
LINE
  8
0
 10
391.286
 20
314.118
 11
391.13
 21
314.39
  0
LINE
  8
0
 10
391.13
 20
314.39
 11
391.033
 21
314.688
  0
LINE
  8
0
 10
391.033
 20
314.688
 11
391
 21
315
  0
LINE
  8
0
 10
391
 20
315
 11
391.033
 21
315.312
  0
LINE
  8
0
 10
391.033
 20
315.312
 11
391.13
 21
315.61
  0
LINE
  8
0
 10
391.13
 20
315.61
 11
391.286
 21
315.882
  0
LINE
  8
0
 10
391.286
 20
315.882
 11
391.496
 21
316.115
  0
LINE
  8
0
 10
391.496
 20
316.115
 11
391.75
 21
316.299
  0
LINE
  8
0
 10
391.75
 20
316.299
 11
392.036
 21
316.427
  0
LINE
  8
0
 10
392.036
 20
316.427
 11
392.343
 21
316.492
  0
LINE
  8
0
 10
392.343
 20
316.492
 11
392.657
 21
316.492
  0
LINE
  8
0
 10
392.657
 20
316.492
 11
392.964
 21
316.427
  0
LINE
  8
0
 10
392.964
 20
316.427
 11
393.25
 21
316.299
  0
LINE
  8
0
 10
393.25
 20
316.299
 11
393.504
 21
316.115
  0
LINE
  8
0
 10
393.504
 20
316.115
 11
393.714
 21
315.882
  0
LINE
  8
0
 10
393.714
 20
315.882
 11
393.87
 21
315.61
  0
LINE
  8
0
 10
393.87
 20
315.61
 11
393.967
 21
315.312
  0
LINE
  8
0
 10
393.967
 20
315.312
 11
394
 21
315
  0
LINE
  8
0
 10
394
 20
315
 11
393.967
 21
314.688
  0
LINE
  8
0
 10
393.967
 20
314.688
 11
393.87
 21
314.39
  0
LINE
  8
0
 10
393.87
 20
314.39
 11
393.714
 21
314.118
  0
LINE
  8
0
 10
393.714
 20
314.118
 11
393.504
 21
313.885
  0
LINE
  8
0
 10
393.504
 20
313.885
 11
393.25
 21
313.701
  0
LINE
  8
0
 10
393.25
 20
313.701
 11
392.964
 21
313.573
  0
LINE
  8
0
 10
392.964
 20
313.573
 11
392.657
 21
313.508
  0
LINE
  8
0
 10
392.657
 20
313.508
 11
392.343
 21
313.508
  0
LINE
  8
0
 10
47.3432
 20
298.508
 11
47.0365
 21
298.573
  0
LINE
  8
0
 10
47.0365
 20
298.573
 11
46.75
 21
298.701
  0
LINE
  8
0
 10
46.75
 20
298.701
 11
46.4963
 21
298.885
  0
LINE
  8
0
 10
46.4963
 20
298.885
 11
46.2865
 21
299.118
  0
LINE
  8
0
 10
46.2865
 20
299.118
 11
46.1297
 21
299.39
  0
LINE
  8
0
 10
46.1297
 20
299.39
 11
46.0328
 21
299.688
  0
LINE
  8
0
 10
46.0328
 20
299.688
 11
46
 21
300
  0
LINE
  8
0
 10
46
 20
300
 11
46.0328
 21
300.312
  0
LINE
  8
0
 10
46.0328
 20
300.312
 11
46.1297
 21
300.61
  0
LINE
  8
0
 10
46.1297
 20
300.61
 11
46.2865
 21
300.882
  0
LINE
  8
0
 10
46.2865
 20
300.882
 11
46.4963
 21
301.115
  0
LINE
  8
0
 10
46.4963
 20
301.115
 11
46.75
 21
301.299
  0
LINE
  8
0
 10
46.75
 20
301.299
 11
47.0365
 21
301.427
  0
LINE
  8
0
 10
47.0365
 20
301.427
 11
47.3432
 21
301.492
  0
LINE
  8
0
 10
47.3432
 20
301.492
 11
47.6568
 21
301.492
  0
LINE
  8
0
 10
47.6568
 20
301.492
 11
47.9635
 21
301.427
  0
LINE
  8
0
 10
47.9635
 20
301.427
 11
48.25
 21
301.299
  0
LINE
  8
0
 10
48.25
 20
301.299
 11
48.5037
 21
301.115
  0
LINE
  8
0
 10
48.5037
 20
301.115
 11
48.7135
 21
300.882
  0
LINE
  8
0
 10
48.7135
 20
300.882
 11
48.8703
 21
300.61
  0
LINE
  8
0
 10
48.8703
 20
300.61
 11
48.9672
 21
300.312
  0
LINE
  8
0
 10
48.9672
 20
300.312
 11
49
 21
300
  0
LINE
  8
0
 10
49
 20
300
 11
48.9672
 21
299.688
  0
LINE
  8
0
 10
48.9672
 20
299.688
 11
48.8703
 21
299.39
  0
LINE
  8
0
 10
48.8703
 20
299.39
 11
48.7135
 21
299.118
  0
LINE
  8
0
 10
48.7135
 20
299.118
 11
48.5037
 21
298.885
  0
LINE
  8
0
 10
48.5037
 20
298.885
 11
48.25
 21
298.701
  0
LINE
  8
0
 10
48.25
 20
298.701
 11
47.9635
 21
298.573
  0
LINE
  8
0
 10
47.9635
 20
298.573
 11
47.6568
 21
298.508
  0
LINE
  8
0
 10
47.6568
 20
298.508
 11
47.3432
 21
298.508
  0
LINE
  8
0
 10
392.343
 20
265.508
 11
392.036
 21
265.573
  0
LINE
  8
0
 10
392.036
 20
265.573
 11
391.75
 21
265.701
  0
LINE
  8
0
 10
391.75
 20
265.701
 11
391.496
 21
265.885
  0
LINE
  8
0
 10
391.496
 20
265.885
 11
391.286
 21
266.118
  0
LINE
  8
0
 10
391.286
 20
266.118
 11
391.13
 21
266.39
  0
LINE
  8
0
 10
391.13
 20
266.39
 11
391.033
 21
266.688
  0
LINE
  8
0
 10
391.033
 20
266.688
 11
391
 21
267
  0
LINE
  8
0
 10
391
 20
267
 11
391.033
 21
267.312
  0
LINE
  8
0
 10
391.033
 20
267.312
 11
391.13
 21
267.61
  0
LINE
  8
0
 10
391.13
 20
267.61
 11
391.286
 21
267.882
  0
LINE
  8
0
 10
391.286
 20
267.882
 11
391.496
 21
268.115
  0
LINE
  8
0
 10
391.496
 20
268.115
 11
391.75
 21
268.299
  0
LINE
  8
0
 10
391.75
 20
268.299
 11
392.036
 21
268.427
  0
LINE
  8
0
 10
392.036
 20
268.427
 11
392.343
 21
268.492
  0
LINE
  8
0
 10
392.343
 20
268.492
 11
392.657
 21
268.492
  0
LINE
  8
0
 10
392.657
 20
268.492
 11
392.964
 21
268.427
  0
LINE
  8
0
 10
392.964
 20
268.427
 11
393.25
 21
268.299
  0
LINE
  8
0
 10
393.25
 20
268.299
 11
393.504
 21
268.115
  0
LINE
  8
0
 10
393.504
 20
268.115
 11
393.714
 21
267.882
  0
LINE
  8
0
 10
393.714
 20
267.882
 11
393.87
 21
267.61
  0
LINE
  8
0
 10
393.87
 20
267.61
 11
393.967
 21
267.312
  0
LINE
  8
0
 10
393.967
 20
267.312
 11
394
 21
267
  0
LINE
  8
0
 10
394
 20
267
 11
393.967
 21
266.688
  0
LINE
  8
0
 10
393.967
 20
266.688
 11
393.87
 21
266.39
  0
LINE
  8
0
 10
393.87
 20
266.39
 11
393.714
 21
266.118
  0
LINE
  8
0
 10
393.714
 20
266.118
 11
393.504
 21
265.885
  0
LINE
  8
0
 10
393.504
 20
265.885
 11
393.25
 21
265.701
  0
LINE
  8
0
 10
393.25
 20
265.701
 11
392.964
 21
265.573
  0
LINE
  8
0
 10
392.964
 20
265.573
 11
392.657
 21
265.508
  0
LINE
  8
0
 10
392.657
 20
265.508
 11
392.343
 21
265.508
  0
LINE
  8
0
 10
47.3432
 20
253.508
 11
47.0365
 21
253.573
  0
LINE
  8
0
 10
47.0365
 20
253.573
 11
46.75
 21
253.701
  0
LINE
  8
0
 10
46.75
 20
253.701
 11
46.4963
 21
253.885
  0
LINE
  8
0
 10
46.4963
 20
253.885
 11
46.2865
 21
254.118
  0
LINE
  8
0
 10
46.2865
 20
254.118
 11
46.1297
 21
254.39
  0
LINE
  8
0
 10
46.1297
 20
254.39
 11
46.0328
 21
254.688
  0
LINE
  8
0
 10
46.0328
 20
254.688
 11
46
 21
255
  0
LINE
  8
0
 10
46
 20
255
 11
46.0328
 21
255.312
  0
LINE
  8
0
 10
46.0328
 20
255.312
 11
46.1297
 21
255.61
  0
LINE
  8
0
 10
46.1297
 20
255.61
 11
46.2865
 21
255.882
  0
LINE
  8
0
 10
46.2865
 20
255.882
 11
46.4963
 21
256.115
  0
LINE
  8
0
 10
46.4963
 20
256.115
 11
46.75
 21
256.299
  0
LINE
  8
0
 10
46.75
 20
256.299
 11
47.0365
 21
256.427
  0
LINE
  8
0
 10
47.0365
 20
256.427
 11
47.3432
 21
256.492
  0
LINE
  8
0
 10
47.3432
 20
256.492
 11
47.6568
 21
256.492
  0
LINE
  8
0
 10
47.6568
 20
256.492
 11
47.9635
 21
256.427
  0
LINE
  8
0
 10
47.9635
 20
256.427
 11
48.25
 21
256.299
  0
LINE
  8
0
 10
48.25
 20
256.299
 11
48.5037
 21
256.115
  0
LINE
  8
0
 10
48.5037
 20
256.115
 11
48.7135
 21
255.882
  0
LINE
  8
0
 10
48.7135
 20
255.882
 11
48.8703
 21
255.61
  0
LINE
  8
0
 10
48.8703
 20
255.61
 11
48.9672
 21
255.312
  0
LINE
  8
0
 10
48.9672
 20
255.312
 11
49
 21
255
  0
LINE
  8
0
 10
49
 20
255
 11
48.9672
 21
254.688
  0
LINE
  8
0
 10
48.9672
 20
254.688
 11
48.8703
 21
254.39
  0
LINE
  8
0
 10
48.8703
 20
254.39
 11
48.7135
 21
254.118
  0
LINE
  8
0
 10
48.7135
 20
254.118
 11
48.5037
 21
253.885
  0
LINE
  8
0
 10
48.5037
 20
253.885
 11
48.25
 21
253.701
  0
LINE
  8
0
 10
48.25
 20
253.701
 11
47.9635
 21
253.573
  0
LINE
  8
0
 10
47.9635
 20
253.573
 11
47.6568
 21
253.508
  0
LINE
  8
0
 10
47.6568
 20
253.508
 11
47.3432
 21
253.508
  0
LINE
  8
0
 10
347.343
 20
234.908
 11
347.036
 21
234.973
  0
LINE
  8
0
 10
347.036
 20
234.973
 11
346.75
 21
235.101
  0
LINE
  8
0
 10
346.75
 20
235.101
 11
346.496
 21
235.285
  0
LINE
  8
0
 10
346.496
 20
235.285
 11
346.286
 21
235.518
  0
LINE
  8
0
 10
346.286
 20
235.518
 11
346.13
 21
235.79
  0
LINE
  8
0
 10
346.13
 20
235.79
 11
346.033
 21
236.088
  0
LINE
  8
0
 10
346.033
 20
236.088
 11
346
 21
236.4
  0
LINE
  8
0
 10
346
 20
236.4
 11
346.033
 21
236.712
  0
LINE
  8
0
 10
346.033
 20
236.712
 11
346.13
 21
237.01
  0
LINE
  8
0
 10
346.13
 20
237.01
 11
346.286
 21
237.282
  0
LINE
  8
0
 10
346.286
 20
237.282
 11
346.496
 21
237.515
  0
LINE
  8
0
 10
346.496
 20
237.515
 11
346.75
 21
237.699
  0
LINE
  8
0
 10
346.75
 20
237.699
 11
347.036
 21
237.827
  0
LINE
  8
0
 10
347.036
 20
237.827
 11
347.343
 21
237.892
  0
LINE
  8
0
 10
347.343
 20
237.892
 11
347.657
 21
237.892
  0
LINE
  8
0
 10
347.657
 20
237.892
 11
347.964
 21
237.827
  0
LINE
  8
0
 10
347.964
 20
237.827
 11
348.25
 21
237.699
  0
LINE
  8
0
 10
348.25
 20
237.699
 11
348.504
 21
237.515
  0
LINE
  8
0
 10
348.504
 20
237.515
 11
348.714
 21
237.282
  0
LINE
  8
0
 10
348.714
 20
237.282
 11
348.87
 21
237.01
  0
LINE
  8
0
 10
348.87
 20
237.01
 11
348.967
 21
236.712
  0
LINE
  8
0
 10
348.967
 20
236.712
 11
349
 21
236.4
  0
LINE
  8
0
 10
349
 20
236.4
 11
348.967
 21
236.088
  0
LINE
  8
0
 10
348.967
 20
236.088
 11
348.87
 21
235.79
  0
LINE
  8
0
 10
348.87
 20
235.79
 11
348.714
 21
235.518
  0
LINE
  8
0
 10
348.714
 20
235.518
 11
348.504
 21
235.285
  0
LINE
  8
0
 10
348.504
 20
235.285
 11
348.25
 21
235.101
  0
LINE
  8
0
 10
348.25
 20
235.101
 11
347.964
 21
234.973
  0
LINE
  8
0
 10
347.964
 20
234.973
 11
347.657
 21
234.908
  0
LINE
  8
0
 10
347.657
 20
234.908
 11
347.343
 21
234.908
  0
LINE
  8
0
 10
397.343
 20
234.908
 11
397.036
 21
234.973
  0
LINE
  8
0
 10
397.036
 20
234.973
 11
396.75
 21
235.101
  0
LINE
  8
0
 10
396.75
 20
235.101
 11
396.496
 21
235.285
  0
LINE
  8
0
 10
396.496
 20
235.285
 11
396.286
 21
235.518
  0
LINE
  8
0
 10
396.286
 20
235.518
 11
396.13
 21
235.79
  0
LINE
  8
0
 10
396.13
 20
235.79
 11
396.033
 21
236.088
  0
LINE
  8
0
 10
396.033
 20
236.088
 11
396
 21
236.4
  0
LINE
  8
0
 10
396
 20
236.4
 11
396.033
 21
236.712
  0
LINE
  8
0
 10
396.033
 20
236.712
 11
396.13
 21
237.01
  0
LINE
  8
0
 10
396.13
 20
237.01
 11
396.286
 21
237.282
  0
LINE
  8
0
 10
396.286
 20
237.282
 11
396.496
 21
237.515
  0
LINE
  8
0
 10
396.496
 20
237.515
 11
396.75
 21
237.699
  0
LINE
  8
0
 10
396.75
 20
237.699
 11
397.036
 21
237.827
  0
LINE
  8
0
 10
397.036
 20
237.827
 11
397.343
 21
237.892
  0
LINE
  8
0
 10
397.343
 20
237.892
 11
397.657
 21
237.892
  0
LINE
  8
0
 10
397.657
 20
237.892
 11
397.964
 21
237.827
  0
LINE
  8
0
 10
397.964
 20
237.827
 11
398.25
 21
237.699
  0
LINE
  8
0
 10
398.25
 20
237.699
 11
398.504
 21
237.515
  0
LINE
  8
0
 10
398.504
 20
237.515
 11
398.714
 21
237.282
  0
LINE
  8
0
 10
398.714
 20
237.282
 11
398.87
 21
237.01
  0
LINE
  8
0
 10
398.87
 20
237.01
 11
398.967
 21
236.712
  0
LINE
  8
0
 10
398.967
 20
236.712
 11
399
 21
236.4
  0
LINE
  8
0
 10
399
 20
236.4
 11
398.967
 21
236.088
  0
LINE
  8
0
 10
398.967
 20
236.088
 11
398.87
 21
235.79
  0
LINE
  8
0
 10
398.87
 20
235.79
 11
398.714
 21
235.518
  0
LINE
  8
0
 10
398.714
 20
235.518
 11
398.504
 21
235.285
  0
LINE
  8
0
 10
398.504
 20
235.285
 11
398.25
 21
235.101
  0
LINE
  8
0
 10
398.25
 20
235.101
 11
397.964
 21
234.973
  0
LINE
  8
0
 10
397.964
 20
234.973
 11
397.657
 21
234.908
  0
LINE
  8
0
 10
397.657
 20
234.908
 11
397.343
 21
234.908
  0
LINE
  8
0
 10
197.343
 20
234.908
 11
197.036
 21
234.973
  0
LINE
  8
0
 10
197.036
 20
234.973
 11
196.75
 21
235.101
  0
LINE
  8
0
 10
196.75
 20
235.101
 11
196.496
 21
235.285
  0
LINE
  8
0
 10
196.496
 20
235.285
 11
196.286
 21
235.518
  0
LINE
  8
0
 10
196.286
 20
235.518
 11
196.13
 21
235.79
  0
LINE
  8
0
 10
196.13
 20
235.79
 11
196.033
 21
236.088
  0
LINE
  8
0
 10
196.033
 20
236.088
 11
196
 21
236.4
  0
LINE
  8
0
 10
196
 20
236.4
 11
196.033
 21
236.712
  0
LINE
  8
0
 10
196.033
 20
236.712
 11
196.13
 21
237.01
  0
LINE
  8
0
 10
196.13
 20
237.01
 11
196.286
 21
237.282
  0
LINE
  8
0
 10
196.286
 20
237.282
 11
196.496
 21
237.515
  0
LINE
  8
0
 10
196.496
 20
237.515
 11
196.75
 21
237.699
  0
LINE
  8
0
 10
196.75
 20
237.699
 11
197.036
 21
237.827
  0
LINE
  8
0
 10
197.036
 20
237.827
 11
197.343
 21
237.892
  0
LINE
  8
0
 10
197.343
 20
237.892
 11
197.657
 21
237.892
  0
LINE
  8
0
 10
197.657
 20
237.892
 11
197.964
 21
237.827
  0
LINE
  8
0
 10
197.964
 20
237.827
 11
198.25
 21
237.699
  0
LINE
  8
0
 10
198.25
 20
237.699
 11
198.504
 21
237.515
  0
LINE
  8
0
 10
198.504
 20
237.515
 11
198.714
 21
237.282
  0
LINE
  8
0
 10
198.714
 20
237.282
 11
198.87
 21
237.01
  0
LINE
  8
0
 10
198.87
 20
237.01
 11
198.967
 21
236.712
  0
LINE
  8
0
 10
198.967
 20
236.712
 11
199
 21
236.4
  0
LINE
  8
0
 10
199
 20
236.4
 11
198.967
 21
236.088
  0
LINE
  8
0
 10
198.967
 20
236.088
 11
198.87
 21
235.79
  0
LINE
  8
0
 10
198.87
 20
235.79
 11
198.714
 21
235.518
  0
LINE
  8
0
 10
198.714
 20
235.518
 11
198.504
 21
235.285
  0
LINE
  8
0
 10
198.504
 20
235.285
 11
198.25
 21
235.101
  0
LINE
  8
0
 10
198.25
 20
235.101
 11
197.964
 21
234.973
  0
LINE
  8
0
 10
197.964
 20
234.973
 11
197.657
 21
234.908
  0
LINE
  8
0
 10
197.657
 20
234.908
 11
197.343
 21
234.908
  0
LINE
  8
0
 10
147.343
 20
234.908
 11
147.036
 21
234.973
  0
LINE
  8
0
 10
147.036
 20
234.973
 11
146.75
 21
235.101
  0
LINE
  8
0
 10
146.75
 20
235.101
 11
146.496
 21
235.285
  0
LINE
  8
0
 10
146.496
 20
235.285
 11
146.286
 21
235.518
  0
LINE
  8
0
 10
146.286
 20
235.518
 11
146.13
 21
235.79
  0
LINE
  8
0
 10
146.13
 20
235.79
 11
146.033
 21
236.088
  0
LINE
  8
0
 10
146.033
 20
236.088
 11
146
 21
236.4
  0
LINE
  8
0
 10
146
 20
236.4
 11
146.033
 21
236.712
  0
LINE
  8
0
 10
146.033
 20
236.712
 11
146.13
 21
237.01
  0
LINE
  8
0
 10
146.13
 20
237.01
 11
146.286
 21
237.282
  0
LINE
  8
0
 10
146.286
 20
237.282
 11
146.496
 21
237.515
  0
LINE
  8
0
 10
146.496
 20
237.515
 11
146.75
 21
237.699
  0
LINE
  8
0
 10
146.75
 20
237.699
 11
147.036
 21
237.827
  0
LINE
  8
0
 10
147.036
 20
237.827
 11
147.343
 21
237.892
  0
LINE
  8
0
 10
147.343
 20
237.892
 11
147.657
 21
237.892
  0
LINE
  8
0
 10
147.657
 20
237.892
 11
147.964
 21
237.827
  0
LINE
  8
0
 10
147.964
 20
237.827
 11
148.25
 21
237.699
  0
LINE
  8
0
 10
148.25
 20
237.699
 11
148.504
 21
237.515
  0
LINE
  8
0
 10
148.504
 20
237.515
 11
148.714
 21
237.282
  0
LINE
  8
0
 10
148.714
 20
237.282
 11
148.87
 21
237.01
  0
LINE
  8
0
 10
148.87
 20
237.01
 11
148.967
 21
236.712
  0
LINE
  8
0
 10
148.967
 20
236.712
 11
149
 21
236.4
  0
LINE
  8
0
 10
149
 20
236.4
 11
148.967
 21
236.088
  0
LINE
  8
0
 10
148.967
 20
236.088
 11
148.87
 21
235.79
  0
LINE
  8
0
 10
148.87
 20
235.79
 11
148.714
 21
235.518
  0
LINE
  8
0
 10
148.714
 20
235.518
 11
148.504
 21
235.285
  0
LINE
  8
0
 10
148.504
 20
235.285
 11
148.25
 21
235.101
  0
LINE
  8
0
 10
148.25
 20
235.101
 11
147.964
 21
234.973
  0
LINE
  8
0
 10
147.964
 20
234.973
 11
147.657
 21
234.908
  0
LINE
  8
0
 10
147.657
 20
234.908
 11
147.343
 21
234.908
  0
LINE
  8
0
 10
247.343
 20
234.908
 11
247.036
 21
234.973
  0
LINE
  8
0
 10
247.036
 20
234.973
 11
246.75
 21
235.101
  0
LINE
  8
0
 10
246.75
 20
235.101
 11
246.496
 21
235.285
  0
LINE
  8
0
 10
246.496
 20
235.285
 11
246.286
 21
235.518
  0
LINE
  8
0
 10
246.286
 20
235.518
 11
246.13
 21
235.79
  0
LINE
  8
0
 10
246.13
 20
235.79
 11
246.033
 21
236.088
  0
LINE
  8
0
 10
246.033
 20
236.088
 11
246
 21
236.4
  0
LINE
  8
0
 10
246
 20
236.4
 11
246.033
 21
236.712
  0
LINE
  8
0
 10
246.033
 20
236.712
 11
246.13
 21
237.01
  0
LINE
  8
0
 10
246.13
 20
237.01
 11
246.286
 21
237.282
  0
LINE
  8
0
 10
246.286
 20
237.282
 11
246.496
 21
237.515
  0
LINE
  8
0
 10
246.496
 20
237.515
 11
246.75
 21
237.699
  0
LINE
  8
0
 10
246.75
 20
237.699
 11
247.036
 21
237.827
  0
LINE
  8
0
 10
247.036
 20
237.827
 11
247.343
 21
237.892
  0
LINE
  8
0
 10
247.343
 20
237.892
 11
247.657
 21
237.892
  0
LINE
  8
0
 10
247.657
 20
237.892
 11
247.964
 21
237.827
  0
LINE
  8
0
 10
247.964
 20
237.827
 11
248.25
 21
237.699
  0
LINE
  8
0
 10
248.25
 20
237.699
 11
248.504
 21
237.515
  0
LINE
  8
0
 10
248.504
 20
237.515
 11
248.714
 21
237.282
  0
LINE
  8
0
 10
248.714
 20
237.282
 11
248.87
 21
237.01
  0
LINE
  8
0
 10
248.87
 20
237.01
 11
248.967
 21
236.712
  0
LINE
  8
0
 10
248.967
 20
236.712
 11
249
 21
236.4
  0
LINE
  8
0
 10
249
 20
236.4
 11
248.967
 21
236.088
  0
LINE
  8
0
 10
248.967
 20
236.088
 11
248.87
 21
235.79
  0
LINE
  8
0
 10
248.87
 20
235.79
 11
248.714
 21
235.518
  0
LINE
  8
0
 10
248.714
 20
235.518
 11
248.504
 21
235.285
  0
LINE
  8
0
 10
248.504
 20
235.285
 11
248.25
 21
235.101
  0
LINE
  8
0
 10
248.25
 20
235.101
 11
247.964
 21
234.973
  0
LINE
  8
0
 10
247.964
 20
234.973
 11
247.657
 21
234.908
  0
LINE
  8
0
 10
247.657
 20
234.908
 11
247.343
 21
234.908
  0
LINE
  8
0
 10
47.3432
 20
234.908
 11
47.0365
 21
234.973
  0
LINE
  8
0
 10
47.0365
 20
234.973
 11
46.75
 21
235.101
  0
LINE
  8
0
 10
46.75
 20
235.101
 11
46.4963
 21
235.285
  0
LINE
  8
0
 10
46.4963
 20
235.285
 11
46.2865
 21
235.518
  0
LINE
  8
0
 10
46.2865
 20
235.518
 11
46.1297
 21
235.79
  0
LINE
  8
0
 10
46.1297
 20
235.79
 11
46.0328
 21
236.088
  0
LINE
  8
0
 10
46.0328
 20
236.088
 11
46
 21
236.4
  0
LINE
  8
0
 10
46
 20
236.4
 11
46.0328
 21
236.712
  0
LINE
  8
0
 10
46.0328
 20
236.712
 11
46.1297
 21
237.01
  0
LINE
  8
0
 10
46.1297
 20
237.01
 11
46.2865
 21
237.282
  0
LINE
  8
0
 10
46.2865
 20
237.282
 11
46.4963
 21
237.515
  0
LINE
  8
0
 10
46.4963
 20
237.515
 11
46.75
 21
237.699
  0
LINE
  8
0
 10
46.75
 20
237.699
 11
47.0365
 21
237.827
  0
LINE
  8
0
 10
47.0365
 20
237.827
 11
47.3432
 21
237.892
  0
LINE
  8
0
 10
47.3432
 20
237.892
 11
47.6568
 21
237.892
  0
LINE
  8
0
 10
47.6568
 20
237.892
 11
47.9635
 21
237.827
  0
LINE
  8
0
 10
47.9635
 20
237.827
 11
48.25
 21
237.699
  0
LINE
  8
0
 10
48.25
 20
237.699
 11
48.5037
 21
237.515
  0
LINE
  8
0
 10
48.5037
 20
237.515
 11
48.7135
 21
237.282
  0
LINE
  8
0
 10
48.7135
 20
237.282
 11
48.8703
 21
237.01
  0
LINE
  8
0
 10
48.8703
 20
237.01
 11
48.9672
 21
236.712
  0
LINE
  8
0
 10
48.9672
 20
236.712
 11
49
 21
236.4
  0
LINE
  8
0
 10
49
 20
236.4
 11
48.9672
 21
236.088
  0
LINE
  8
0
 10
48.9672
 20
236.088
 11
48.8703
 21
235.79
  0
LINE
  8
0
 10
48.8703
 20
235.79
 11
48.7135
 21
235.518
  0
LINE
  8
0
 10
48.7135
 20
235.518
 11
48.5037
 21
235.285
  0
LINE
  8
0
 10
48.5037
 20
235.285
 11
48.25
 21
235.101
  0
LINE
  8
0
 10
48.25
 20
235.101
 11
47.9635
 21
234.973
  0
LINE
  8
0
 10
47.9635
 20
234.973
 11
47.6568
 21
234.908
  0
LINE
  8
0
 10
47.6568
 20
234.908
 11
47.3432
 21
234.908
  0
LINE
  8
0
 10
97.3432
 20
234.908
 11
97.0365
 21
234.973
  0
LINE
  8
0
 10
97.0365
 20
234.973
 11
96.75
 21
235.101
  0
LINE
  8
0
 10
96.75
 20
235.101
 11
96.4963
 21
235.285
  0
LINE
  8
0
 10
96.4963
 20
235.285
 11
96.2865
 21
235.518
  0
LINE
  8
0
 10
96.2865
 20
235.518
 11
96.1297
 21
235.79
  0
LINE
  8
0
 10
96.1297
 20
235.79
 11
96.0328
 21
236.088
  0
LINE
  8
0
 10
96.0328
 20
236.088
 11
96
 21
236.4
  0
LINE
  8
0
 10
96
 20
236.4
 11
96.0328
 21
236.712
  0
LINE
  8
0
 10
96.0328
 20
236.712
 11
96.1297
 21
237.01
  0
LINE
  8
0
 10
96.1297
 20
237.01
 11
96.2865
 21
237.282
  0
LINE
  8
0
 10
96.2865
 20
237.282
 11
96.4963
 21
237.515
  0
LINE
  8
0
 10
96.4963
 20
237.515
 11
96.75
 21
237.699
  0
LINE
  8
0
 10
96.75
 20
237.699
 11
97.0365
 21
237.827
  0
LINE
  8
0
 10
97.0365
 20
237.827
 11
97.3432
 21
237.892
  0
LINE
  8
0
 10
97.3432
 20
237.892
 11
97.6568
 21
237.892
  0
LINE
  8
0
 10
97.6568
 20
237.892
 11
97.9635
 21
237.827
  0
LINE
  8
0
 10
97.9635
 20
237.827
 11
98.25
 21
237.699
  0
LINE
  8
0
 10
98.25
 20
237.699
 11
98.5037
 21
237.515
  0
LINE
  8
0
 10
98.5037
 20
237.515
 11
98.7135
 21
237.282
  0
LINE
  8
0
 10
98.7135
 20
237.282
 11
98.8703
 21
237.01
  0
LINE
  8
0
 10
98.8703
 20
237.01
 11
98.9672
 21
236.712
  0
LINE
  8
0
 10
98.9672
 20
236.712
 11
99
 21
236.4
  0
LINE
  8
0
 10
99
 20
236.4
 11
98.9672
 21
236.088
  0
LINE
  8
0
 10
98.9672
 20
236.088
 11
98.8703
 21
235.79
  0
LINE
  8
0
 10
98.8703
 20
235.79
 11
98.7135
 21
235.518
  0
LINE
  8
0
 10
98.7135
 20
235.518
 11
98.5037
 21
235.285
  0
LINE
  8
0
 10
98.5037
 20
235.285
 11
98.25
 21
235.101
  0
LINE
  8
0
 10
98.25
 20
235.101
 11
97.9635
 21
234.973
  0
LINE
  8
0
 10
97.9635
 20
234.973
 11
97.6568
 21
234.908
  0
LINE
  8
0
 10
97.6568
 20
234.908
 11
97.3432
 21
234.908
  0
LINE
  8
0
 10
297.343
 20
234.908
 11
297.036
 21
234.973
  0
LINE
  8
0
 10
297.036
 20
234.973
 11
296.75
 21
235.101
  0
LINE
  8
0
 10
296.75
 20
235.101
 11
296.496
 21
235.285
  0
LINE
  8
0
 10
296.496
 20
235.285
 11
296.286
 21
235.518
  0
LINE
  8
0
 10
296.286
 20
235.518
 11
296.13
 21
235.79
  0
LINE
  8
0
 10
296.13
 20
235.79
 11
296.033
 21
236.088
  0
LINE
  8
0
 10
296.033
 20
236.088
 11
296
 21
236.4
  0
LINE
  8
0
 10
296
 20
236.4
 11
296.033
 21
236.712
  0
LINE
  8
0
 10
296.033
 20
236.712
 11
296.13
 21
237.01
  0
LINE
  8
0
 10
296.13
 20
237.01
 11
296.286
 21
237.282
  0
LINE
  8
0
 10
296.286
 20
237.282
 11
296.496
 21
237.515
  0
LINE
  8
0
 10
296.496
 20
237.515
 11
296.75
 21
237.699
  0
LINE
  8
0
 10
296.75
 20
237.699
 11
297.036
 21
237.827
  0
LINE
  8
0
 10
297.036
 20
237.827
 11
297.343
 21
237.892
  0
LINE
  8
0
 10
297.343
 20
237.892
 11
297.657
 21
237.892
  0
LINE
  8
0
 10
297.657
 20
237.892
 11
297.964
 21
237.827
  0
LINE
  8
0
 10
297.964
 20
237.827
 11
298.25
 21
237.699
  0
LINE
  8
0
 10
298.25
 20
237.699
 11
298.504
 21
237.515
  0
LINE
  8
0
 10
298.504
 20
237.515
 11
298.714
 21
237.282
  0
LINE
  8
0
 10
298.714
 20
237.282
 11
298.87
 21
237.01
  0
LINE
  8
0
 10
298.87
 20
237.01
 11
298.967
 21
236.712
  0
LINE
  8
0
 10
298.967
 20
236.712
 11
299
 21
236.4
  0
LINE
  8
0
 10
299
 20
236.4
 11
298.967
 21
236.088
  0
LINE
  8
0
 10
298.967
 20
236.088
 11
298.87
 21
235.79
  0
LINE
  8
0
 10
298.87
 20
235.79
 11
298.714
 21
235.518
  0
LINE
  8
0
 10
298.714
 20
235.518
 11
298.504
 21
235.285
  0
LINE
  8
0
 10
298.504
 20
235.285
 11
298.25
 21
235.101
  0
LINE
  8
0
 10
298.25
 20
235.101
 11
297.964
 21
234.973
  0
LINE
  8
0
 10
297.964
 20
234.973
 11
297.657
 21
234.908
  0
LINE
  8
0
 10
297.657
 20
234.908
 11
297.343
 21
234.908
  0
LINE
  8
0
 10
370.343
 20
234.508
 11
370.036
 21
234.573
  0
LINE
  8
0
 10
370.036
 20
234.573
 11
369.75
 21
234.701
  0
LINE
  8
0
 10
369.75
 20
234.701
 11
369.496
 21
234.885
  0
LINE
  8
0
 10
369.496
 20
234.885
 11
369.286
 21
235.118
  0
LINE
  8
0
 10
369.286
 20
235.118
 11
369.13
 21
235.39
  0
LINE
  8
0
 10
369.13
 20
235.39
 11
369.033
 21
235.688
  0
LINE
  8
0
 10
369.033
 20
235.688
 11
369
 21
236
  0
LINE
  8
0
 10
369
 20
236
 11
369.033
 21
236.312
  0
LINE
  8
0
 10
369.033
 20
236.312
 11
369.13
 21
236.61
  0
LINE
  8
0
 10
369.13
 20
236.61
 11
369.286
 21
236.882
  0
LINE
  8
0
 10
369.286
 20
236.882
 11
369.496
 21
237.115
  0
LINE
  8
0
 10
369.496
 20
237.115
 11
369.75
 21
237.299
  0
LINE
  8
0
 10
369.75
 20
237.299
 11
370.036
 21
237.427
  0
LINE
  8
0
 10
370.036
 20
237.427
 11
370.343
 21
237.492
  0
LINE
  8
0
 10
370.343
 20
237.492
 11
370.657
 21
237.492
  0
LINE
  8
0
 10
370.657
 20
237.492
 11
370.964
 21
237.427
  0
LINE
  8
0
 10
370.964
 20
237.427
 11
371.25
 21
237.299
  0
LINE
  8
0
 10
371.25
 20
237.299
 11
371.504
 21
237.115
  0
LINE
  8
0
 10
371.504
 20
237.115
 11
371.714
 21
236.882
  0
LINE
  8
0
 10
371.714
 20
236.882
 11
371.87
 21
236.61
  0
LINE
  8
0
 10
371.87
 20
236.61
 11
371.967
 21
236.312
  0
LINE
  8
0
 10
371.967
 20
236.312
 11
372
 21
236
  0
LINE
  8
0
 10
372
 20
236
 11
371.967
 21
235.688
  0
LINE
  8
0
 10
371.967
 20
235.688
 11
371.87
 21
235.39
  0
LINE
  8
0
 10
371.87
 20
235.39
 11
371.714
 21
235.118
  0
LINE
  8
0
 10
371.714
 20
235.118
 11
371.504
 21
234.885
  0
LINE
  8
0
 10
371.504
 20
234.885
 11
371.25
 21
234.701
  0
LINE
  8
0
 10
371.25
 20
234.701
 11
370.964
 21
234.573
  0
LINE
  8
0
 10
370.964
 20
234.573
 11
370.657
 21
234.508
  0
LINE
  8
0
 10
370.657
 20
234.508
 11
370.343
 21
234.508
  0
LINE
  8
0
 10
168.343
 20
234.508
 11
168.036
 21
234.573
  0
LINE
  8
0
 10
168.036
 20
234.573
 11
167.75
 21
234.701
  0
LINE
  8
0
 10
167.75
 20
234.701
 11
167.496
 21
234.885
  0
LINE
  8
0
 10
167.496
 20
234.885
 11
167.286
 21
235.118
  0
LINE
  8
0
 10
167.286
 20
235.118
 11
167.13
 21
235.39
  0
LINE
  8
0
 10
167.13
 20
235.39
 11
167.033
 21
235.688
  0
LINE
  8
0
 10
167.033
 20
235.688
 11
167
 21
236
  0
LINE
  8
0
 10
167
 20
236
 11
167.033
 21
236.312
  0
LINE
  8
0
 10
167.033
 20
236.312
 11
167.13
 21
236.61
  0
LINE
  8
0
 10
167.13
 20
236.61
 11
167.286
 21
236.882
  0
LINE
  8
0
 10
167.286
 20
236.882
 11
167.496
 21
237.115
  0
LINE
  8
0
 10
167.496
 20
237.115
 11
167.75
 21
237.299
  0
LINE
  8
0
 10
167.75
 20
237.299
 11
168.036
 21
237.427
  0
LINE
  8
0
 10
168.036
 20
237.427
 11
168.343
 21
237.492
  0
LINE
  8
0
 10
168.343
 20
237.492
 11
168.657
 21
237.492
  0
LINE
  8
0
 10
168.657
 20
237.492
 11
168.964
 21
237.427
  0
LINE
  8
0
 10
168.964
 20
237.427
 11
169.25
 21
237.299
  0
LINE
  8
0
 10
169.25
 20
237.299
 11
169.504
 21
237.115
  0
LINE
  8
0
 10
169.504
 20
237.115
 11
169.714
 21
236.882
  0
LINE
  8
0
 10
169.714
 20
236.882
 11
169.87
 21
236.61
  0
LINE
  8
0
 10
169.87
 20
236.61
 11
169.967
 21
236.312
  0
LINE
  8
0
 10
169.967
 20
236.312
 11
170
 21
236
  0
LINE
  8
0
 10
170
 20
236
 11
169.967
 21
235.688
  0
LINE
  8
0
 10
169.967
 20
235.688
 11
169.87
 21
235.39
  0
LINE
  8
0
 10
169.87
 20
235.39
 11
169.714
 21
235.118
  0
LINE
  8
0
 10
169.714
 20
235.118
 11
169.504
 21
234.885
  0
LINE
  8
0
 10
169.504
 20
234.885
 11
169.25
 21
234.701
  0
LINE
  8
0
 10
169.25
 20
234.701
 11
168.964
 21
234.573
  0
LINE
  8
0
 10
168.964
 20
234.573
 11
168.657
 21
234.508
  0
LINE
  8
0
 10
168.657
 20
234.508
 11
168.343
 21
234.508
  0
LINE
  8
0
 10
268.343
 20
234.508
 11
268.036
 21
234.573
  0
LINE
  8
0
 10
268.036
 20
234.573
 11
267.75
 21
234.701
  0
LINE
  8
0
 10
267.75
 20
234.701
 11
267.496
 21
234.885
  0
LINE
  8
0
 10
267.496
 20
234.885
 11
267.286
 21
235.118
  0
LINE
  8
0
 10
267.286
 20
235.118
 11
267.13
 21
235.39
  0
LINE
  8
0
 10
267.13
 20
235.39
 11
267.033
 21
235.688
  0
LINE
  8
0
 10
267.033
 20
235.688
 11
267
 21
236
  0
LINE
  8
0
 10
267
 20
236
 11
267.033
 21
236.312
  0
LINE
  8
0
 10
267.033
 20
236.312
 11
267.13
 21
236.61
  0
LINE
  8
0
 10
267.13
 20
236.61
 11
267.286
 21
236.882
  0
LINE
  8
0
 10
267.286
 20
236.882
 11
267.496
 21
237.115
  0
LINE
  8
0
 10
267.496
 20
237.115
 11
267.75
 21
237.299
  0
LINE
  8
0
 10
267.75
 20
237.299
 11
268.036
 21
237.427
  0
LINE
  8
0
 10
268.036
 20
237.427
 11
268.343
 21
237.492
  0
LINE
  8
0
 10
268.343
 20
237.492
 11
268.657
 21
237.492
  0
LINE
  8
0
 10
268.657
 20
237.492
 11
268.964
 21
237.427
  0
LINE
  8
0
 10
268.964
 20
237.427
 11
269.25
 21
237.299
  0
LINE
  8
0
 10
269.25
 20
237.299
 11
269.504
 21
237.115
  0
LINE
  8
0
 10
269.504
 20
237.115
 11
269.714
 21
236.882
  0
LINE
  8
0
 10
269.714
 20
236.882
 11
269.87
 21
236.61
  0
LINE
  8
0
 10
269.87
 20
236.61
 11
269.967
 21
236.312
  0
LINE
  8
0
 10
269.967
 20
236.312
 11
270
 21
236
  0
LINE
  8
0
 10
270
 20
236
 11
269.967
 21
235.688
  0
LINE
  8
0
 10
269.967
 20
235.688
 11
269.87
 21
235.39
  0
LINE
  8
0
 10
269.87
 20
235.39
 11
269.714
 21
235.118
  0
LINE
  8
0
 10
269.714
 20
235.118
 11
269.504
 21
234.885
  0
LINE
  8
0
 10
269.504
 20
234.885
 11
269.25
 21
234.701
  0
LINE
  8
0
 10
269.25
 20
234.701
 11
268.964
 21
234.573
  0
LINE
  8
0
 10
268.964
 20
234.573
 11
268.657
 21
234.508
  0
LINE
  8
0
 10
268.657
 20
234.508
 11
268.343
 21
234.508
  0
LINE
  8
0
 10
67.3432
 20
234.508
 11
67.0365
 21
234.573
  0
LINE
  8
0
 10
67.0365
 20
234.573
 11
66.75
 21
234.701
  0
LINE
  8
0
 10
66.75
 20
234.701
 11
66.4963
 21
234.885
  0
LINE
  8
0
 10
66.4963
 20
234.885
 11
66.2865
 21
235.118
  0
LINE
  8
0
 10
66.2865
 20
235.118
 11
66.1297
 21
235.39
  0
LINE
  8
0
 10
66.1297
 20
235.39
 11
66.0328
 21
235.688
  0
LINE
  8
0
 10
66.0328
 20
235.688
 11
66
 21
236
  0
LINE
  8
0
 10
66
 20
236
 11
66.0328
 21
236.312
  0
LINE
  8
0
 10
66.0328
 20
236.312
 11
66.1297
 21
236.61
  0
LINE
  8
0
 10
66.1297
 20
236.61
 11
66.2865
 21
236.882
  0
LINE
  8
0
 10
66.2865
 20
236.882
 11
66.4963
 21
237.115
  0
LINE
  8
0
 10
66.4963
 20
237.115
 11
66.75
 21
237.299
  0
LINE
  8
0
 10
66.75
 20
237.299
 11
67.0365
 21
237.427
  0
LINE
  8
0
 10
67.0365
 20
237.427
 11
67.3432
 21
237.492
  0
LINE
  8
0
 10
67.3432
 20
237.492
 11
67.6568
 21
237.492
  0
LINE
  8
0
 10
67.6568
 20
237.492
 11
67.9635
 21
237.427
  0
LINE
  8
0
 10
67.9635
 20
237.427
 11
68.25
 21
237.299
  0
LINE
  8
0
 10
68.25
 20
237.299
 11
68.5037
 21
237.115
  0
LINE
  8
0
 10
68.5037
 20
237.115
 11
68.7135
 21
236.882
  0
LINE
  8
0
 10
68.7135
 20
236.882
 11
68.8703
 21
236.61
  0
LINE
  8
0
 10
68.8703
 20
236.61
 11
68.9672
 21
236.312
  0
LINE
  8
0
 10
68.9672
 20
236.312
 11
69
 21
236
  0
LINE
  8
0
 10
69
 20
236
 11
68.9672
 21
235.688
  0
LINE
  8
0
 10
68.9672
 20
235.688
 11
68.8703
 21
235.39
  0
LINE
  8
0
 10
68.8703
 20
235.39
 11
68.7135
 21
235.118
  0
LINE
  8
0
 10
68.7135
 20
235.118
 11
68.5037
 21
234.885
  0
LINE
  8
0
 10
68.5037
 20
234.885
 11
68.25
 21
234.701
  0
LINE
  8
0
 10
68.25
 20
234.701
 11
67.9635
 21
234.573
  0
LINE
  8
0
 10
67.9635
 20
234.573
 11
67.6568
 21
234.508
  0
LINE
  8
0
 10
67.6568
 20
234.508
 11
67.3432
 21
234.508
  0
LINE
  8
0
 10
392.343
 20
217.508
 11
392.036
 21
217.573
  0
LINE
  8
0
 10
392.036
 20
217.573
 11
391.75
 21
217.701
  0
LINE
  8
0
 10
391.75
 20
217.701
 11
391.496
 21
217.885
  0
LINE
  8
0
 10
391.496
 20
217.885
 11
391.286
 21
218.118
  0
LINE
  8
0
 10
391.286
 20
218.118
 11
391.13
 21
218.39
  0
LINE
  8
0
 10
391.13
 20
218.39
 11
391.033
 21
218.688
  0
LINE
  8
0
 10
391.033
 20
218.688
 11
391
 21
219
  0
LINE
  8
0
 10
391
 20
219
 11
391.033
 21
219.312
  0
LINE
  8
0
 10
391.033
 20
219.312
 11
391.13
 21
219.61
  0
LINE
  8
0
 10
391.13
 20
219.61
 11
391.286
 21
219.882
  0
LINE
  8
0
 10
391.286
 20
219.882
 11
391.496
 21
220.115
  0
LINE
  8
0
 10
391.496
 20
220.115
 11
391.75
 21
220.299
  0
LINE
  8
0
 10
391.75
 20
220.299
 11
392.036
 21
220.427
  0
LINE
  8
0
 10
392.036
 20
220.427
 11
392.343
 21
220.492
  0
LINE
  8
0
 10
392.343
 20
220.492
 11
392.657
 21
220.492
  0
LINE
  8
0
 10
392.657
 20
220.492
 11
392.964
 21
220.427
  0
LINE
  8
0
 10
392.964
 20
220.427
 11
393.25
 21
220.299
  0
LINE
  8
0
 10
393.25
 20
220.299
 11
393.504
 21
220.115
  0
LINE
  8
0
 10
393.504
 20
220.115
 11
393.714
 21
219.882
  0
LINE
  8
0
 10
393.714
 20
219.882
 11
393.87
 21
219.61
  0
LINE
  8
0
 10
393.87
 20
219.61
 11
393.967
 21
219.312
  0
LINE
  8
0
 10
393.967
 20
219.312
 11
394
 21
219
  0
LINE
  8
0
 10
394
 20
219
 11
393.967
 21
218.688
  0
LINE
  8
0
 10
393.967
 20
218.688
 11
393.87
 21
218.39
  0
LINE
  8
0
 10
393.87
 20
218.39
 11
393.714
 21
218.118
  0
LINE
  8
0
 10
393.714
 20
218.118
 11
393.504
 21
217.885
  0
LINE
  8
0
 10
393.504
 20
217.885
 11
393.25
 21
217.701
  0
LINE
  8
0
 10
393.25
 20
217.701
 11
392.964
 21
217.573
  0
LINE
  8
0
 10
392.964
 20
217.573
 11
392.657
 21
217.508
  0
LINE
  8
0
 10
392.657
 20
217.508
 11
392.343
 21
217.508
  0
LINE
  8
0
 10
47.3432
 20
208.508
 11
47.0365
 21
208.573
  0
LINE
  8
0
 10
47.0365
 20
208.573
 11
46.75
 21
208.701
  0
LINE
  8
0
 10
46.75
 20
208.701
 11
46.4963
 21
208.885
  0
LINE
  8
0
 10
46.4963
 20
208.885
 11
46.2865
 21
209.118
  0
LINE
  8
0
 10
46.2865
 20
209.118
 11
46.1297
 21
209.39
  0
LINE
  8
0
 10
46.1297
 20
209.39
 11
46.0328
 21
209.688
  0
LINE
  8
0
 10
46.0328
 20
209.688
 11
46
 21
210
  0
LINE
  8
0
 10
46
 20
210
 11
46.0328
 21
210.312
  0
LINE
  8
0
 10
46.0328
 20
210.312
 11
46.1297
 21
210.61
  0
LINE
  8
0
 10
46.1297
 20
210.61
 11
46.2865
 21
210.882
  0
LINE
  8
0
 10
46.2865
 20
210.882
 11
46.4963
 21
211.115
  0
LINE
  8
0
 10
46.4963
 20
211.115
 11
46.75
 21
211.299
  0
LINE
  8
0
 10
46.75
 20
211.299
 11
47.0365
 21
211.427
  0
LINE
  8
0
 10
47.0365
 20
211.427
 11
47.3432
 21
211.492
  0
LINE
  8
0
 10
47.3432
 20
211.492
 11
47.6568
 21
211.492
  0
LINE
  8
0
 10
47.6568
 20
211.492
 11
47.9635
 21
211.427
  0
LINE
  8
0
 10
47.9635
 20
211.427
 11
48.25
 21
211.299
  0
LINE
  8
0
 10
48.25
 20
211.299
 11
48.5037
 21
211.115
  0
LINE
  8
0
 10
48.5037
 20
211.115
 11
48.7135
 21
210.882
  0
LINE
  8
0
 10
48.7135
 20
210.882
 11
48.8703
 21
210.61
  0
LINE
  8
0
 10
48.8703
 20
210.61
 11
48.9672
 21
210.312
  0
LINE
  8
0
 10
48.9672
 20
210.312
 11
49
 21
210
  0
LINE
  8
0
 10
49
 20
210
 11
48.9672
 21
209.688
  0
LINE
  8
0
 10
48.9672
 20
209.688
 11
48.8703
 21
209.39
  0
LINE
  8
0
 10
48.8703
 20
209.39
 11
48.7135
 21
209.118
  0
LINE
  8
0
 10
48.7135
 20
209.118
 11
48.5037
 21
208.885
  0
LINE
  8
0
 10
48.5037
 20
208.885
 11
48.25
 21
208.701
  0
LINE
  8
0
 10
48.25
 20
208.701
 11
47.9635
 21
208.573
  0
LINE
  8
0
 10
47.9635
 20
208.573
 11
47.6568
 21
208.508
  0
LINE
  8
0
 10
47.6568
 20
208.508
 11
47.3432
 21
208.508
  0
LINE
  8
0
 10
67.3432
 20
186.508
 11
67.0365
 21
186.573
  0
LINE
  8
0
 10
67.0365
 20
186.573
 11
66.75
 21
186.701
  0
LINE
  8
0
 10
66.75
 20
186.701
 11
66.4963
 21
186.885
  0
LINE
  8
0
 10
66.4963
 20
186.885
 11
66.2865
 21
187.118
  0
LINE
  8
0
 10
66.2865
 20
187.118
 11
66.1297
 21
187.39
  0
LINE
  8
0
 10
66.1297
 20
187.39
 11
66.0328
 21
187.688
  0
LINE
  8
0
 10
66.0328
 20
187.688
 11
66
 21
188
  0
LINE
  8
0
 10
66
 20
188
 11
66.0328
 21
188.312
  0
LINE
  8
0
 10
66.0328
 20
188.312
 11
66.1297
 21
188.61
  0
LINE
  8
0
 10
66.1297
 20
188.61
 11
66.2865
 21
188.882
  0
LINE
  8
0
 10
66.2865
 20
188.882
 11
66.4963
 21
189.115
  0
LINE
  8
0
 10
66.4963
 20
189.115
 11
66.75
 21
189.299
  0
LINE
  8
0
 10
66.75
 20
189.299
 11
67.0365
 21
189.427
  0
LINE
  8
0
 10
67.0365
 20
189.427
 11
67.3432
 21
189.492
  0
LINE
  8
0
 10
67.3432
 20
189.492
 11
67.6568
 21
189.492
  0
LINE
  8
0
 10
67.6568
 20
189.492
 11
67.9635
 21
189.427
  0
LINE
  8
0
 10
67.9635
 20
189.427
 11
68.25
 21
189.299
  0
LINE
  8
0
 10
68.25
 20
189.299
 11
68.5037
 21
189.115
  0
LINE
  8
0
 10
68.5037
 20
189.115
 11
68.7135
 21
188.882
  0
LINE
  8
0
 10
68.7135
 20
188.882
 11
68.8703
 21
188.61
  0
LINE
  8
0
 10
68.8703
 20
188.61
 11
68.9672
 21
188.312
  0
LINE
  8
0
 10
68.9672
 20
188.312
 11
69
 21
188
  0
LINE
  8
0
 10
69
 20
188
 11
68.9672
 21
187.688
  0
LINE
  8
0
 10
68.9672
 20
187.688
 11
68.8703
 21
187.39
  0
LINE
  8
0
 10
68.8703
 20
187.39
 11
68.7135
 21
187.118
  0
LINE
  8
0
 10
68.7135
 20
187.118
 11
68.5037
 21
186.885
  0
LINE
  8
0
 10
68.5037
 20
186.885
 11
68.25
 21
186.701
  0
LINE
  8
0
 10
68.25
 20
186.701
 11
67.9635
 21
186.573
  0
LINE
  8
0
 10
67.9635
 20
186.573
 11
67.6568
 21
186.508
  0
LINE
  8
0
 10
67.6568
 20
186.508
 11
67.3432
 21
186.508
  0
LINE
  8
0
 10
168.343
 20
186.508
 11
168.036
 21
186.573
  0
LINE
  8
0
 10
168.036
 20
186.573
 11
167.75
 21
186.701
  0
LINE
  8
0
 10
167.75
 20
186.701
 11
167.496
 21
186.885
  0
LINE
  8
0
 10
167.496
 20
186.885
 11
167.286
 21
187.118
  0
LINE
  8
0
 10
167.286
 20
187.118
 11
167.13
 21
187.39
  0
LINE
  8
0
 10
167.13
 20
187.39
 11
167.033
 21
187.688
  0
LINE
  8
0
 10
167.033
 20
187.688
 11
167
 21
188
  0
LINE
  8
0
 10
167
 20
188
 11
167.033
 21
188.312
  0
LINE
  8
0
 10
167.033
 20
188.312
 11
167.13
 21
188.61
  0
LINE
  8
0
 10
167.13
 20
188.61
 11
167.286
 21
188.882
  0
LINE
  8
0
 10
167.286
 20
188.882
 11
167.496
 21
189.115
  0
LINE
  8
0
 10
167.496
 20
189.115
 11
167.75
 21
189.299
  0
LINE
  8
0
 10
167.75
 20
189.299
 11
168.036
 21
189.427
  0
LINE
  8
0
 10
168.036
 20
189.427
 11
168.343
 21
189.492
  0
LINE
  8
0
 10
168.343
 20
189.492
 11
168.657
 21
189.492
  0
LINE
  8
0
 10
168.657
 20
189.492
 11
168.964
 21
189.427
  0
LINE
  8
0
 10
168.964
 20
189.427
 11
169.25
 21
189.299
  0
LINE
  8
0
 10
169.25
 20
189.299
 11
169.504
 21
189.115
  0
LINE
  8
0
 10
169.504
 20
189.115
 11
169.714
 21
188.882
  0
LINE
  8
0
 10
169.714
 20
188.882
 11
169.87
 21
188.61
  0
LINE
  8
0
 10
169.87
 20
188.61
 11
169.967
 21
188.312
  0
LINE
  8
0
 10
169.967
 20
188.312
 11
170
 21
188
  0
LINE
  8
0
 10
170
 20
188
 11
169.967
 21
187.688
  0
LINE
  8
0
 10
169.967
 20
187.688
 11
169.87
 21
187.39
  0
LINE
  8
0
 10
169.87
 20
187.39
 11
169.714
 21
187.118
  0
LINE
  8
0
 10
169.714
 20
187.118
 11
169.504
 21
186.885
  0
LINE
  8
0
 10
169.504
 20
186.885
 11
169.25
 21
186.701
  0
LINE
  8
0
 10
169.25
 20
186.701
 11
168.964
 21
186.573
  0
LINE
  8
0
 10
168.964
 20
186.573
 11
168.657
 21
186.508
  0
LINE
  8
0
 10
168.657
 20
186.508
 11
168.343
 21
186.508
  0
LINE
  8
0
 10
369.13
 20
188.61
 11
369.286
 21
188.882
  0
LINE
  8
0
 10
369.286
 20
188.882
 11
369.496
 21
189.115
  0
LINE
  8
0
 10
369.496
 20
189.115
 11
369.75
 21
189.299
  0
LINE
  8
0
 10
369.75
 20
189.299
 11
370.036
 21
189.427
  0
LINE
  8
0
 10
370.036
 20
189.427
 11
370.343
 21
189.492
  0
LINE
  8
0
 10
370.343
 20
189.492
 11
370.657
 21
189.492
  0
LINE
  8
0
 10
370.657
 20
189.492
 11
370.964
 21
189.427
  0
LINE
  8
0
 10
370.964
 20
189.427
 11
371.25
 21
189.299
  0
LINE
  8
0
 10
371.25
 20
189.299
 11
371.504
 21
189.115
  0
LINE
  8
0
 10
371.504
 20
189.115
 11
371.714
 21
188.882
  0
LINE
  8
0
 10
371.714
 20
188.882
 11
371.87
 21
188.61
  0
LINE
  8
0
 10
371.87
 20
188.61
 11
371.967
 21
188.312
  0
LINE
  8
0
 10
371.967
 20
188.312
 11
372
 21
188
  0
LINE
  8
0
 10
372
 20
188
 11
371.967
 21
187.688
  0
LINE
  8
0
 10
371.967
 20
187.688
 11
371.87
 21
187.39
  0
LINE
  8
0
 10
371.87
 20
187.39
 11
371.714
 21
187.118
  0
LINE
  8
0
 10
371.714
 20
187.118
 11
371.504
 21
186.885
  0
LINE
  8
0
 10
371.504
 20
186.885
 11
371.25
 21
186.701
  0
LINE
  8
0
 10
371.25
 20
186.701
 11
370.964
 21
186.573
  0
LINE
  8
0
 10
370.964
 20
186.573
 11
370.657
 21
186.508
  0
LINE
  8
0
 10
370.657
 20
186.508
 11
370.343
 21
186.508
  0
LINE
  8
0
 10
370.343
 20
186.508
 11
370.036
 21
186.573
  0
LINE
  8
0
 10
370.036
 20
186.573
 11
369.75
 21
186.701
  0
LINE
  8
0
 10
369.75
 20
186.701
 11
369.496
 21
186.885
  0
LINE
  8
0
 10
369.496
 20
186.885
 11
369.286
 21
187.118
  0
LINE
  8
0
 10
369.286
 20
187.118
 11
369.13
 21
187.39
  0
LINE
  8
0
 10
369.13
 20
187.39
 11
369.033
 21
187.688
  0
LINE
  8
0
 10
369.033
 20
187.688
 11
369
 21
188
  0
LINE
  8
0
 10
369
 20
188
 11
369.033
 21
188.312
  0
LINE
  8
0
 10
369.033
 20
188.312
 11
369.13
 21
188.61
  0
LINE
  8
0
 10
392.343
 20
169.508
 11
392.036
 21
169.573
  0
LINE
  8
0
 10
392.036
 20
169.573
 11
391.75
 21
169.701
  0
LINE
  8
0
 10
391.75
 20
169.701
 11
391.496
 21
169.885
  0
LINE
  8
0
 10
391.496
 20
169.885
 11
391.286
 21
170.118
  0
LINE
  8
0
 10
391.286
 20
170.118
 11
391.13
 21
170.39
  0
LINE
  8
0
 10
391.13
 20
170.39
 11
391.033
 21
170.688
  0
LINE
  8
0
 10
391.033
 20
170.688
 11
391
 21
171
  0
LINE
  8
0
 10
391
 20
171
 11
391.033
 21
171.312
  0
LINE
  8
0
 10
391.033
 20
171.312
 11
391.13
 21
171.61
  0
LINE
  8
0
 10
391.13
 20
171.61
 11
391.286
 21
171.882
  0
LINE
  8
0
 10
391.286
 20
171.882
 11
391.496
 21
172.115
  0
LINE
  8
0
 10
391.496
 20
172.115
 11
391.75
 21
172.299
  0
LINE
  8
0
 10
391.75
 20
172.299
 11
392.036
 21
172.427
  0
LINE
  8
0
 10
392.036
 20
172.427
 11
392.343
 21
172.492
  0
LINE
  8
0
 10
392.343
 20
172.492
 11
392.657
 21
172.492
  0
LINE
  8
0
 10
392.657
 20
172.492
 11
392.964
 21
172.427
  0
LINE
  8
0
 10
392.964
 20
172.427
 11
393.25
 21
172.299
  0
LINE
  8
0
 10
393.25
 20
172.299
 11
393.504
 21
172.115
  0
LINE
  8
0
 10
393.504
 20
172.115
 11
393.714
 21
171.882
  0
LINE
  8
0
 10
393.714
 20
171.882
 11
393.87
 21
171.61
  0
LINE
  8
0
 10
393.87
 20
171.61
 11
393.967
 21
171.312
  0
LINE
  8
0
 10
393.967
 20
171.312
 11
394
 21
171
  0
LINE
  8
0
 10
394
 20
171
 11
393.967
 21
170.688
  0
LINE
  8
0
 10
393.967
 20
170.688
 11
393.87
 21
170.39
  0
LINE
  8
0
 10
393.87
 20
170.39
 11
393.714
 21
170.118
  0
LINE
  8
0
 10
393.714
 20
170.118
 11
393.504
 21
169.885
  0
LINE
  8
0
 10
393.504
 20
169.885
 11
393.25
 21
169.701
  0
LINE
  8
0
 10
393.25
 20
169.701
 11
392.964
 21
169.573
  0
LINE
  8
0
 10
392.964
 20
169.573
 11
392.657
 21
169.508
  0
LINE
  8
0
 10
392.657
 20
169.508
 11
392.343
 21
169.508
  0
LINE
  8
0
 10
47.3432
 20
163.508
 11
47.0365
 21
163.573
  0
LINE
  8
0
 10
47.0365
 20
163.573
 11
46.75
 21
163.701
  0
LINE
  8
0
 10
46.75
 20
163.701
 11
46.4963
 21
163.885
  0
LINE
  8
0
 10
46.4963
 20
163.885
 11
46.2865
 21
164.118
  0
LINE
  8
0
 10
46.2865
 20
164.118
 11
46.1297
 21
164.39
  0
LINE
  8
0
 10
46.1297
 20
164.39
 11
46.0328
 21
164.688
  0
LINE
  8
0
 10
46.0328
 20
164.688
 11
46
 21
165
  0
LINE
  8
0
 10
46
 20
165
 11
46.0328
 21
165.312
  0
LINE
  8
0
 10
46.0328
 20
165.312
 11
46.1297
 21
165.61
  0
LINE
  8
0
 10
46.1297
 20
165.61
 11
46.2865
 21
165.882
  0
LINE
  8
0
 10
46.2865
 20
165.882
 11
46.4963
 21
166.115
  0
LINE
  8
0
 10
46.4963
 20
166.115
 11
46.75
 21
166.299
  0
LINE
  8
0
 10
46.75
 20
166.299
 11
47.0365
 21
166.427
  0
LINE
  8
0
 10
47.0365
 20
166.427
 11
47.3432
 21
166.492
  0
LINE
  8
0
 10
47.3432
 20
166.492
 11
47.6568
 21
166.492
  0
LINE
  8
0
 10
47.6568
 20
166.492
 11
47.9635
 21
166.427
  0
LINE
  8
0
 10
47.9635
 20
166.427
 11
48.25
 21
166.299
  0
LINE
  8
0
 10
48.25
 20
166.299
 11
48.5037
 21
166.115
  0
LINE
  8
0
 10
48.5037
 20
166.115
 11
48.7135
 21
165.882
  0
LINE
  8
0
 10
48.7135
 20
165.882
 11
48.8703
 21
165.61
  0
LINE
  8
0
 10
48.8703
 20
165.61
 11
48.9672
 21
165.312
  0
LINE
  8
0
 10
48.9672
 20
165.312
 11
49
 21
165
  0
LINE
  8
0
 10
49
 20
165
 11
48.9672
 21
164.688
  0
LINE
  8
0
 10
48.9672
 20
164.688
 11
48.8703
 21
164.39
  0
LINE
  8
0
 10
48.8703
 20
164.39
 11
48.7135
 21
164.118
  0
LINE
  8
0
 10
48.7135
 20
164.118
 11
48.5037
 21
163.885
  0
LINE
  8
0
 10
48.5037
 20
163.885
 11
48.25
 21
163.701
  0
LINE
  8
0
 10
48.25
 20
163.701
 11
47.9635
 21
163.573
  0
LINE
  8
0
 10
47.9635
 20
163.573
 11
47.6568
 21
163.508
  0
LINE
  8
0
 10
47.6568
 20
163.508
 11
47.3432
 21
163.508
  0
LINE
  8
0
 10
268.343
 20
133.508
 11
268.036
 21
133.573
  0
LINE
  8
0
 10
268.036
 20
133.573
 11
267.75
 21
133.701
  0
LINE
  8
0
 10
267.75
 20
133.701
 11
267.496
 21
133.885
  0
LINE
  8
0
 10
267.496
 20
133.885
 11
267.286
 21
134.118
  0
LINE
  8
0
 10
267.286
 20
134.118
 11
267.13
 21
134.39
  0
LINE
  8
0
 10
267.13
 20
134.39
 11
267.033
 21
134.688
  0
LINE
  8
0
 10
267.033
 20
134.688
 11
267
 21
135
  0
LINE
  8
0
 10
267
 20
135
 11
267.033
 21
135.312
  0
LINE
  8
0
 10
267.033
 20
135.312
 11
267.13
 21
135.61
  0
LINE
  8
0
 10
267.13
 20
135.61
 11
267.286
 21
135.882
  0
LINE
  8
0
 10
267.286
 20
135.882
 11
267.496
 21
136.115
  0
LINE
  8
0
 10
267.496
 20
136.115
 11
267.75
 21
136.299
  0
LINE
  8
0
 10
267.75
 20
136.299
 11
268.036
 21
136.427
  0
LINE
  8
0
 10
268.036
 20
136.427
 11
268.343
 21
136.492
  0
LINE
  8
0
 10
268.343
 20
136.492
 11
268.657
 21
136.492
  0
LINE
  8
0
 10
268.657
 20
136.492
 11
268.964
 21
136.427
  0
LINE
  8
0
 10
268.964
 20
136.427
 11
269.25
 21
136.299
  0
LINE
  8
0
 10
269.25
 20
136.299
 11
269.504
 21
136.115
  0
LINE
  8
0
 10
269.504
 20
136.115
 11
269.714
 21
135.882
  0
LINE
  8
0
 10
269.714
 20
135.882
 11
269.87
 21
135.61
  0
LINE
  8
0
 10
269.87
 20
135.61
 11
269.967
 21
135.312
  0
LINE
  8
0
 10
269.967
 20
135.312
 11
270
 21
135
  0
LINE
  8
0
 10
270
 20
135
 11
269.967
 21
134.688
  0
LINE
  8
0
 10
269.967
 20
134.688
 11
269.87
 21
134.39
  0
LINE
  8
0
 10
269.87
 20
134.39
 11
269.714
 21
134.118
  0
LINE
  8
0
 10
269.714
 20
134.118
 11
269.504
 21
133.885
  0
LINE
  8
0
 10
269.504
 20
133.885
 11
269.25
 21
133.701
  0
LINE
  8
0
 10
269.25
 20
133.701
 11
268.964
 21
133.573
  0
LINE
  8
0
 10
268.964
 20
133.573
 11
268.657
 21
133.508
  0
LINE
  8
0
 10
268.657
 20
133.508
 11
268.343
 21
133.508
  0
LINE
  8
0
 10
147.343
 20
133.508
 11
147.036
 21
133.573
  0
LINE
  8
0
 10
147.036
 20
133.573
 11
146.75
 21
133.701
  0
LINE
  8
0
 10
146.75
 20
133.701
 11
146.496
 21
133.885
  0
LINE
  8
0
 10
146.496
 20
133.885
 11
146.286
 21
134.118
  0
LINE
  8
0
 10
146.286
 20
134.118
 11
146.13
 21
134.39
  0
LINE
  8
0
 10
146.13
 20
134.39
 11
146.033
 21
134.688
  0
LINE
  8
0
 10
146.033
 20
134.688
 11
146
 21
135
  0
LINE
  8
0
 10
146
 20
135
 11
146.033
 21
135.312
  0
LINE
  8
0
 10
146.033
 20
135.312
 11
146.13
 21
135.61
  0
LINE
  8
0
 10
146.13
 20
135.61
 11
146.286
 21
135.882
  0
LINE
  8
0
 10
146.286
 20
135.882
 11
146.496
 21
136.115
  0
LINE
  8
0
 10
146.496
 20
136.115
 11
146.75
 21
136.299
  0
LINE
  8
0
 10
146.75
 20
136.299
 11
147.036
 21
136.427
  0
LINE
  8
0
 10
147.036
 20
136.427
 11
147.343
 21
136.492
  0
LINE
  8
0
 10
147.343
 20
136.492
 11
147.657
 21
136.492
  0
LINE
  8
0
 10
147.657
 20
136.492
 11
147.964
 21
136.427
  0
LINE
  8
0
 10
147.964
 20
136.427
 11
148.25
 21
136.299
  0
LINE
  8
0
 10
148.25
 20
136.299
 11
148.504
 21
136.115
  0
LINE
  8
0
 10
148.504
 20
136.115
 11
148.714
 21
135.882
  0
LINE
  8
0
 10
148.714
 20
135.882
 11
148.87
 21
135.61
  0
LINE
  8
0
 10
148.87
 20
135.61
 11
148.967
 21
135.312
  0
LINE
  8
0
 10
148.967
 20
135.312
 11
149
 21
135
  0
LINE
  8
0
 10
149
 20
135
 11
148.967
 21
134.688
  0
LINE
  8
0
 10
148.967
 20
134.688
 11
148.87
 21
134.39
  0
LINE
  8
0
 10
148.87
 20
134.39
 11
148.714
 21
134.118
  0
LINE
  8
0
 10
148.714
 20
134.118
 11
148.504
 21
133.885
  0
LINE
  8
0
 10
148.504
 20
133.885
 11
148.25
 21
133.701
  0
LINE
  8
0
 10
148.25
 20
133.701
 11
147.964
 21
133.573
  0
LINE
  8
0
 10
147.964
 20
133.573
 11
147.657
 21
133.508
  0
LINE
  8
0
 10
147.657
 20
133.508
 11
147.343
 21
133.508
  0
LINE
  8
0
 10
168.343
 20
133.508
 11
168.036
 21
133.573
  0
LINE
  8
0
 10
168.036
 20
133.573
 11
167.75
 21
133.701
  0
LINE
  8
0
 10
167.75
 20
133.701
 11
167.496
 21
133.885
  0
LINE
  8
0
 10
167.496
 20
133.885
 11
167.286
 21
134.118
  0
LINE
  8
0
 10
167.286
 20
134.118
 11
167.13
 21
134.39
  0
LINE
  8
0
 10
167.13
 20
134.39
 11
167.033
 21
134.688
  0
LINE
  8
0
 10
167.033
 20
134.688
 11
167
 21
135
  0
LINE
  8
0
 10
167
 20
135
 11
167.033
 21
135.312
  0
LINE
  8
0
 10
167.033
 20
135.312
 11
167.13
 21
135.61
  0
LINE
  8
0
 10
167.13
 20
135.61
 11
167.286
 21
135.882
  0
LINE
  8
0
 10
167.286
 20
135.882
 11
167.496
 21
136.115
  0
LINE
  8
0
 10
167.496
 20
136.115
 11
167.75
 21
136.299
  0
LINE
  8
0
 10
167.75
 20
136.299
 11
168.036
 21
136.427
  0
LINE
  8
0
 10
168.036
 20
136.427
 11
168.343
 21
136.492
  0
LINE
  8
0
 10
168.343
 20
136.492
 11
168.657
 21
136.492
  0
LINE
  8
0
 10
168.657
 20
136.492
 11
168.964
 21
136.427
  0
LINE
  8
0
 10
168.964
 20
136.427
 11
169.25
 21
136.299
  0
LINE
  8
0
 10
169.25
 20
136.299
 11
169.504
 21
136.115
  0
LINE
  8
0
 10
169.504
 20
136.115
 11
169.714
 21
135.882
  0
LINE
  8
0
 10
169.714
 20
135.882
 11
169.87
 21
135.61
  0
LINE
  8
0
 10
169.87
 20
135.61
 11
169.967
 21
135.312
  0
LINE
  8
0
 10
169.967
 20
135.312
 11
170
 21
135
  0
LINE
  8
0
 10
170
 20
135
 11
169.967
 21
134.688
  0
LINE
  8
0
 10
169.967
 20
134.688
 11
169.87
 21
134.39
  0
LINE
  8
0
 10
169.87
 20
134.39
 11
169.714
 21
134.118
  0
LINE
  8
0
 10
169.714
 20
134.118
 11
169.504
 21
133.885
  0
LINE
  8
0
 10
169.504
 20
133.885
 11
169.25
 21
133.701
  0
LINE
  8
0
 10
169.25
 20
133.701
 11
168.964
 21
133.573
  0
LINE
  8
0
 10
168.964
 20
133.573
 11
168.657
 21
133.508
  0
LINE
  8
0
 10
168.657
 20
133.508
 11
168.343
 21
133.508
  0
LINE
  8
0
 10
247.343
 20
133.508
 11
247.036
 21
133.573
  0
LINE
  8
0
 10
247.036
 20
133.573
 11
246.75
 21
133.701
  0
LINE
  8
0
 10
246.75
 20
133.701
 11
246.496
 21
133.885
  0
LINE
  8
0
 10
246.496
 20
133.885
 11
246.286
 21
134.118
  0
LINE
  8
0
 10
246.286
 20
134.118
 11
246.13
 21
134.39
  0
LINE
  8
0
 10
246.13
 20
134.39
 11
246.033
 21
134.688
  0
LINE
  8
0
 10
246.033
 20
134.688
 11
246
 21
135
  0
LINE
  8
0
 10
246
 20
135
 11
246.033
 21
135.312
  0
LINE
  8
0
 10
246.033
 20
135.312
 11
246.13
 21
135.61
  0
LINE
  8
0
 10
246.13
 20
135.61
 11
246.286
 21
135.882
  0
LINE
  8
0
 10
246.286
 20
135.882
 11
246.496
 21
136.115
  0
LINE
  8
0
 10
246.496
 20
136.115
 11
246.75
 21
136.299
  0
LINE
  8
0
 10
246.75
 20
136.299
 11
247.036
 21
136.427
  0
LINE
  8
0
 10
247.036
 20
136.427
 11
247.343
 21
136.492
  0
LINE
  8
0
 10
247.343
 20
136.492
 11
247.657
 21
136.492
  0
LINE
  8
0
 10
247.657
 20
136.492
 11
247.964
 21
136.427
  0
LINE
  8
0
 10
247.964
 20
136.427
 11
248.25
 21
136.299
  0
LINE
  8
0
 10
248.25
 20
136.299
 11
248.504
 21
136.115
  0
LINE
  8
0
 10
248.504
 20
136.115
 11
248.714
 21
135.882
  0
LINE
  8
0
 10
248.714
 20
135.882
 11
248.87
 21
135.61
  0
LINE
  8
0
 10
248.87
 20
135.61
 11
248.967
 21
135.312
  0
LINE
  8
0
 10
248.967
 20
135.312
 11
249
 21
135
  0
LINE
  8
0
 10
249
 20
135
 11
248.967
 21
134.688
  0
LINE
  8
0
 10
248.967
 20
134.688
 11
248.87
 21
134.39
  0
LINE
  8
0
 10
248.87
 20
134.39
 11
248.714
 21
134.118
  0
LINE
  8
0
 10
248.714
 20
134.118
 11
248.504
 21
133.885
  0
LINE
  8
0
 10
248.504
 20
133.885
 11
248.25
 21
133.701
  0
LINE
  8
0
 10
248.25
 20
133.701
 11
247.964
 21
133.573
  0
LINE
  8
0
 10
247.964
 20
133.573
 11
247.657
 21
133.508
  0
LINE
  8
0
 10
247.657
 20
133.508
 11
247.343
 21
133.508
  0
LINE
  8
0
 10
197.343
 20
133.508
 11
197.036
 21
133.573
  0
LINE
  8
0
 10
197.036
 20
133.573
 11
196.75
 21
133.701
  0
LINE
  8
0
 10
196.75
 20
133.701
 11
196.496
 21
133.885
  0
LINE
  8
0
 10
196.496
 20
133.885
 11
196.286
 21
134.118
  0
LINE
  8
0
 10
196.286
 20
134.118
 11
196.13
 21
134.39
  0
LINE
  8
0
 10
196.13
 20
134.39
 11
196.033
 21
134.688
  0
LINE
  8
0
 10
196.033
 20
134.688
 11
196
 21
135
  0
LINE
  8
0
 10
196
 20
135
 11
196.033
 21
135.312
  0
LINE
  8
0
 10
196.033
 20
135.312
 11
196.13
 21
135.61
  0
LINE
  8
0
 10
196.13
 20
135.61
 11
196.286
 21
135.882
  0
LINE
  8
0
 10
196.286
 20
135.882
 11
196.496
 21
136.115
  0
LINE
  8
0
 10
196.496
 20
136.115
 11
196.75
 21
136.299
  0
LINE
  8
0
 10
196.75
 20
136.299
 11
197.036
 21
136.427
  0
LINE
  8
0
 10
197.036
 20
136.427
 11
197.343
 21
136.492
  0
LINE
  8
0
 10
197.343
 20
136.492
 11
197.657
 21
136.492
  0
LINE
  8
0
 10
197.657
 20
136.492
 11
197.964
 21
136.427
  0
LINE
  8
0
 10
197.964
 20
136.427
 11
198.25
 21
136.299
  0
LINE
  8
0
 10
198.25
 20
136.299
 11
198.504
 21
136.115
  0
LINE
  8
0
 10
198.504
 20
136.115
 11
198.714
 21
135.882
  0
LINE
  8
0
 10
198.714
 20
135.882
 11
198.87
 21
135.61
  0
LINE
  8
0
 10
198.87
 20
135.61
 11
198.967
 21
135.312
  0
LINE
  8
0
 10
198.967
 20
135.312
 11
199
 21
135
  0
LINE
  8
0
 10
199
 20
135
 11
198.967
 21
134.688
  0
LINE
  8
0
 10
198.967
 20
134.688
 11
198.87
 21
134.39
  0
LINE
  8
0
 10
198.87
 20
134.39
 11
198.714
 21
134.118
  0
LINE
  8
0
 10
198.714
 20
134.118
 11
198.504
 21
133.885
  0
LINE
  8
0
 10
198.504
 20
133.885
 11
198.25
 21
133.701
  0
LINE
  8
0
 10
198.25
 20
133.701
 11
197.964
 21
133.573
  0
LINE
  8
0
 10
197.964
 20
133.573
 11
197.657
 21
133.508
  0
LINE
  8
0
 10
197.657
 20
133.508
 11
197.343
 21
133.508
  0
LINE
  8
0
 10
297.343
 20
133.508
 11
297.036
 21
133.573
  0
LINE
  8
0
 10
297.036
 20
133.573
 11
296.75
 21
133.701
  0
LINE
  8
0
 10
296.75
 20
133.701
 11
296.496
 21
133.885
  0
LINE
  8
0
 10
296.496
 20
133.885
 11
296.286
 21
134.118
  0
LINE
  8
0
 10
296.286
 20
134.118
 11
296.13
 21
134.39
  0
LINE
  8
0
 10
296.13
 20
134.39
 11
296.033
 21
134.688
  0
LINE
  8
0
 10
296.033
 20
134.688
 11
296
 21
135
  0
LINE
  8
0
 10
296
 20
135
 11
296.033
 21
135.312
  0
LINE
  8
0
 10
296.033
 20
135.312
 11
296.13
 21
135.61
  0
LINE
  8
0
 10
296.13
 20
135.61
 11
296.286
 21
135.882
  0
LINE
  8
0
 10
296.286
 20
135.882
 11
296.496
 21
136.115
  0
LINE
  8
0
 10
296.496
 20
136.115
 11
296.75
 21
136.299
  0
LINE
  8
0
 10
296.75
 20
136.299
 11
297.036
 21
136.427
  0
LINE
  8
0
 10
297.036
 20
136.427
 11
297.343
 21
136.492
  0
LINE
  8
0
 10
297.343
 20
136.492
 11
297.657
 21
136.492
  0
LINE
  8
0
 10
297.657
 20
136.492
 11
297.964
 21
136.427
  0
LINE
  8
0
 10
297.964
 20
136.427
 11
298.25
 21
136.299
  0
LINE
  8
0
 10
298.25
 20
136.299
 11
298.504
 21
136.115
  0
LINE
  8
0
 10
298.504
 20
136.115
 11
298.714
 21
135.882
  0
LINE
  8
0
 10
298.714
 20
135.882
 11
298.87
 21
135.61
  0
LINE
  8
0
 10
298.87
 20
135.61
 11
298.967
 21
135.312
  0
LINE
  8
0
 10
298.967
 20
135.312
 11
299
 21
135
  0
LINE
  8
0
 10
299
 20
135
 11
298.967
 21
134.688
  0
LINE
  8
0
 10
298.967
 20
134.688
 11
298.87
 21
134.39
  0
LINE
  8
0
 10
298.87
 20
134.39
 11
298.714
 21
134.118
  0
LINE
  8
0
 10
298.714
 20
134.118
 11
298.504
 21
133.885
  0
LINE
  8
0
 10
298.504
 20
133.885
 11
298.25
 21
133.701
  0
LINE
  8
0
 10
298.25
 20
133.701
 11
297.964
 21
133.573
  0
LINE
  8
0
 10
297.964
 20
133.573
 11
297.657
 21
133.508
  0
LINE
  8
0
 10
297.657
 20
133.508
 11
297.343
 21
133.508
  0
LINE
  8
0
 10
67.3432
 20
133.508
 11
67.0365
 21
133.573
  0
LINE
  8
0
 10
67.0365
 20
133.573
 11
66.75
 21
133.701
  0
LINE
  8
0
 10
66.75
 20
133.701
 11
66.4963
 21
133.885
  0
LINE
  8
0
 10
66.4963
 20
133.885
 11
66.2865
 21
134.118
  0
LINE
  8
0
 10
66.2865
 20
134.118
 11
66.1297
 21
134.39
  0
LINE
  8
0
 10
66.1297
 20
134.39
 11
66.0328
 21
134.688
  0
LINE
  8
0
 10
66.0328
 20
134.688
 11
66
 21
135
  0
LINE
  8
0
 10
66
 20
135
 11
66.0328
 21
135.312
  0
LINE
  8
0
 10
66.0328
 20
135.312
 11
66.1297
 21
135.61
  0
LINE
  8
0
 10
66.1297
 20
135.61
 11
66.2865
 21
135.882
  0
LINE
  8
0
 10
66.2865
 20
135.882
 11
66.4963
 21
136.115
  0
LINE
  8
0
 10
66.4963
 20
136.115
 11
66.75
 21
136.299
  0
LINE
  8
0
 10
66.75
 20
136.299
 11
67.0365
 21
136.427
  0
LINE
  8
0
 10
67.0365
 20
136.427
 11
67.3432
 21
136.492
  0
LINE
  8
0
 10
67.3432
 20
136.492
 11
67.6568
 21
136.492
  0
LINE
  8
0
 10
67.6568
 20
136.492
 11
67.9635
 21
136.427
  0
LINE
  8
0
 10
67.9635
 20
136.427
 11
68.25
 21
136.299
  0
LINE
  8
0
 10
68.25
 20
136.299
 11
68.5037
 21
136.115
  0
LINE
  8
0
 10
68.5037
 20
136.115
 11
68.7135
 21
135.882
  0
LINE
  8
0
 10
68.7135
 20
135.882
 11
68.8703
 21
135.61
  0
LINE
  8
0
 10
68.8703
 20
135.61
 11
68.9672
 21
135.312
  0
LINE
  8
0
 10
68.9672
 20
135.312
 11
69
 21
135
  0
LINE
  8
0
 10
69
 20
135
 11
68.9672
 21
134.688
  0
LINE
  8
0
 10
68.9672
 20
134.688
 11
68.8703
 21
134.39
  0
LINE
  8
0
 10
68.8703
 20
134.39
 11
68.7135
 21
134.118
  0
LINE
  8
0
 10
68.7135
 20
134.118
 11
68.5037
 21
133.885
  0
LINE
  8
0
 10
68.5037
 20
133.885
 11
68.25
 21
133.701
  0
LINE
  8
0
 10
68.25
 20
133.701
 11
67.9635
 21
133.573
  0
LINE
  8
0
 10
67.9635
 20
133.573
 11
67.6568
 21
133.508
  0
LINE
  8
0
 10
67.6568
 20
133.508
 11
67.3432
 21
133.508
  0
LINE
  8
0
 10
47.3432
 20
133.508
 11
47.0365
 21
133.573
  0
LINE
  8
0
 10
47.0365
 20
133.573
 11
46.75
 21
133.701
  0
LINE
  8
0
 10
46.75
 20
133.701
 11
46.4963
 21
133.885
  0
LINE
  8
0
 10
46.4963
 20
133.885
 11
46.2865
 21
134.118
  0
LINE
  8
0
 10
46.2865
 20
134.118
 11
46.1297
 21
134.39
  0
LINE
  8
0
 10
46.1297
 20
134.39
 11
46.0328
 21
134.688
  0
LINE
  8
0
 10
46.0328
 20
134.688
 11
46
 21
135
  0
LINE
  8
0
 10
46
 20
135
 11
46.0328
 21
135.312
  0
LINE
  8
0
 10
46.0328
 20
135.312
 11
46.1297
 21
135.61
  0
LINE
  8
0
 10
46.1297
 20
135.61
 11
46.2865
 21
135.882
  0
LINE
  8
0
 10
46.2865
 20
135.882
 11
46.4963
 21
136.115
  0
LINE
  8
0
 10
46.4963
 20
136.115
 11
46.75
 21
136.299
  0
LINE
  8
0
 10
46.75
 20
136.299
 11
47.0365
 21
136.427
  0
LINE
  8
0
 10
47.0365
 20
136.427
 11
47.3432
 21
136.492
  0
LINE
  8
0
 10
47.3432
 20
136.492
 11
47.6568
 21
136.492
  0
LINE
  8
0
 10
47.6568
 20
136.492
 11
47.9635
 21
136.427
  0
LINE
  8
0
 10
47.9635
 20
136.427
 11
48.25
 21
136.299
  0
LINE
  8
0
 10
48.25
 20
136.299
 11
48.5037
 21
136.115
  0
LINE
  8
0
 10
48.5037
 20
136.115
 11
48.7135
 21
135.882
  0
LINE
  8
0
 10
48.7135
 20
135.882
 11
48.8703
 21
135.61
  0
LINE
  8
0
 10
48.8703
 20
135.61
 11
48.9672
 21
135.312
  0
LINE
  8
0
 10
48.9672
 20
135.312
 11
49
 21
135
  0
LINE
  8
0
 10
49
 20
135
 11
48.9672
 21
134.688
  0
LINE
  8
0
 10
48.9672
 20
134.688
 11
48.8703
 21
134.39
  0
LINE
  8
0
 10
48.8703
 20
134.39
 11
48.7135
 21
134.118
  0
LINE
  8
0
 10
48.7135
 20
134.118
 11
48.5037
 21
133.885
  0
LINE
  8
0
 10
48.5037
 20
133.885
 11
48.25
 21
133.701
  0
LINE
  8
0
 10
48.25
 20
133.701
 11
47.9635
 21
133.573
  0
LINE
  8
0
 10
47.9635
 20
133.573
 11
47.6568
 21
133.508
  0
LINE
  8
0
 10
47.6568
 20
133.508
 11
47.3432
 21
133.508
  0
LINE
  8
0
 10
397.343
 20
133.508
 11
397.036
 21
133.573
  0
LINE
  8
0
 10
397.036
 20
133.573
 11
396.75
 21
133.701
  0
LINE
  8
0
 10
396.75
 20
133.701
 11
396.496
 21
133.885
  0
LINE
  8
0
 10
396.496
 20
133.885
 11
396.286
 21
134.118
  0
LINE
  8
0
 10
396.286
 20
134.118
 11
396.13
 21
134.39
  0
LINE
  8
0
 10
396.13
 20
134.39
 11
396.033
 21
134.688
  0
LINE
  8
0
 10
396.033
 20
134.688
 11
396
 21
135
  0
LINE
  8
0
 10
396
 20
135
 11
396.033
 21
135.312
  0
LINE
  8
0
 10
396.033
 20
135.312
 11
396.13
 21
135.61
  0
LINE
  8
0
 10
396.13
 20
135.61
 11
396.286
 21
135.882
  0
LINE
  8
0
 10
396.286
 20
135.882
 11
396.496
 21
136.115
  0
LINE
  8
0
 10
396.496
 20
136.115
 11
396.75
 21
136.299
  0
LINE
  8
0
 10
396.75
 20
136.299
 11
397.036
 21
136.427
  0
LINE
  8
0
 10
397.036
 20
136.427
 11
397.343
 21
136.492
  0
LINE
  8
0
 10
397.343
 20
136.492
 11
397.657
 21
136.492
  0
LINE
  8
0
 10
397.657
 20
136.492
 11
397.964
 21
136.427
  0
LINE
  8
0
 10
397.964
 20
136.427
 11
398.25
 21
136.299
  0
LINE
  8
0
 10
398.25
 20
136.299
 11
398.504
 21
136.115
  0
LINE
  8
0
 10
398.504
 20
136.115
 11
398.714
 21
135.882
  0
LINE
  8
0
 10
398.714
 20
135.882
 11
398.87
 21
135.61
  0
LINE
  8
0
 10
398.87
 20
135.61
 11
398.967
 21
135.312
  0
LINE
  8
0
 10
398.967
 20
135.312
 11
399
 21
135
  0
LINE
  8
0
 10
399
 20
135
 11
398.967
 21
134.688
  0
LINE
  8
0
 10
398.967
 20
134.688
 11
398.87
 21
134.39
  0
LINE
  8
0
 10
398.87
 20
134.39
 11
398.714
 21
134.118
  0
LINE
  8
0
 10
398.714
 20
134.118
 11
398.504
 21
133.885
  0
LINE
  8
0
 10
398.504
 20
133.885
 11
398.25
 21
133.701
  0
LINE
  8
0
 10
398.25
 20
133.701
 11
397.964
 21
133.573
  0
LINE
  8
0
 10
397.964
 20
133.573
 11
397.657
 21
133.508
  0
LINE
  8
0
 10
397.657
 20
133.508
 11
397.343
 21
133.508
  0
LINE
  8
0
 10
347.343
 20
133.508
 11
347.036
 21
133.573
  0
LINE
  8
0
 10
347.036
 20
133.573
 11
346.75
 21
133.701
  0
LINE
  8
0
 10
346.75
 20
133.701
 11
346.496
 21
133.885
  0
LINE
  8
0
 10
346.496
 20
133.885
 11
346.286
 21
134.118
  0
LINE
  8
0
 10
346.286
 20
134.118
 11
346.13
 21
134.39
  0
LINE
  8
0
 10
346.13
 20
134.39
 11
346.033
 21
134.688
  0
LINE
  8
0
 10
346.033
 20
134.688
 11
346
 21
135
  0
LINE
  8
0
 10
346
 20
135
 11
346.033
 21
135.312
  0
LINE
  8
0
 10
346.033
 20
135.312
 11
346.13
 21
135.61
  0
LINE
  8
0
 10
346.13
 20
135.61
 11
346.286
 21
135.882
  0
LINE
  8
0
 10
346.286
 20
135.882
 11
346.496
 21
136.115
  0
LINE
  8
0
 10
346.496
 20
136.115
 11
346.75
 21
136.299
  0
LINE
  8
0
 10
346.75
 20
136.299
 11
347.036
 21
136.427
  0
LINE
  8
0
 10
347.036
 20
136.427
 11
347.343
 21
136.492
  0
LINE
  8
0
 10
347.343
 20
136.492
 11
347.657
 21
136.492
  0
LINE
  8
0
 10
347.657
 20
136.492
 11
347.964
 21
136.427
  0
LINE
  8
0
 10
347.964
 20
136.427
 11
348.25
 21
136.299
  0
LINE
  8
0
 10
348.25
 20
136.299
 11
348.504
 21
136.115
  0
LINE
  8
0
 10
348.504
 20
136.115
 11
348.714
 21
135.882
  0
LINE
  8
0
 10
348.714
 20
135.882
 11
348.87
 21
135.61
  0
LINE
  8
0
 10
348.87
 20
135.61
 11
348.967
 21
135.312
  0
LINE
  8
0
 10
348.967
 20
135.312
 11
349
 21
135
  0
LINE
  8
0
 10
349
 20
135
 11
348.967
 21
134.688
  0
LINE
  8
0
 10
348.967
 20
134.688
 11
348.87
 21
134.39
  0
LINE
  8
0
 10
348.87
 20
134.39
 11
348.714
 21
134.118
  0
LINE
  8
0
 10
348.714
 20
134.118
 11
348.504
 21
133.885
  0
LINE
  8
0
 10
348.504
 20
133.885
 11
348.25
 21
133.701
  0
LINE
  8
0
 10
348.25
 20
133.701
 11
347.964
 21
133.573
  0
LINE
  8
0
 10
347.964
 20
133.573
 11
347.657
 21
133.508
  0
LINE
  8
0
 10
347.657
 20
133.508
 11
347.343
 21
133.508
  0
LINE
  8
0
 10
97.3432
 20
133.508
 11
97.0365
 21
133.573
  0
LINE
  8
0
 10
97.0365
 20
133.573
 11
96.75
 21
133.701
  0
LINE
  8
0
 10
96.75
 20
133.701
 11
96.4963
 21
133.885
  0
LINE
  8
0
 10
96.4963
 20
133.885
 11
96.2865
 21
134.118
  0
LINE
  8
0
 10
96.2865
 20
134.118
 11
96.1297
 21
134.39
  0
LINE
  8
0
 10
96.1297
 20
134.39
 11
96.0328
 21
134.688
  0
LINE
  8
0
 10
96.0328
 20
134.688
 11
96
 21
135
  0
LINE
  8
0
 10
96
 20
135
 11
96.0328
 21
135.312
  0
LINE
  8
0
 10
96.0328
 20
135.312
 11
96.1297
 21
135.61
  0
LINE
  8
0
 10
96.1297
 20
135.61
 11
96.2865
 21
135.882
  0
LINE
  8
0
 10
96.2865
 20
135.882
 11
96.4963
 21
136.115
  0
LINE
  8
0
 10
96.4963
 20
136.115
 11
96.75
 21
136.299
  0
LINE
  8
0
 10
96.75
 20
136.299
 11
97.0365
 21
136.427
  0
LINE
  8
0
 10
97.0365
 20
136.427
 11
97.3432
 21
136.492
  0
LINE
  8
0
 10
97.3432
 20
136.492
 11
97.6568
 21
136.492
  0
LINE
  8
0
 10
97.6568
 20
136.492
 11
97.9635
 21
136.427
  0
LINE
  8
0
 10
97.9635
 20
136.427
 11
98.25
 21
136.299
  0
LINE
  8
0
 10
98.25
 20
136.299
 11
98.5037
 21
136.115
  0
LINE
  8
0
 10
98.5037
 20
136.115
 11
98.7135
 21
135.882
  0
LINE
  8
0
 10
98.7135
 20
135.882
 11
98.8703
 21
135.61
  0
LINE
  8
0
 10
98.8703
 20
135.61
 11
98.9672
 21
135.312
  0
LINE
  8
0
 10
98.9672
 20
135.312
 11
99
 21
135
  0
LINE
  8
0
 10
99
 20
135
 11
98.9672
 21
134.688
  0
LINE
  8
0
 10
98.9672
 20
134.688
 11
98.8703
 21
134.39
  0
LINE
  8
0
 10
98.8703
 20
134.39
 11
98.7135
 21
134.118
  0
LINE
  8
0
 10
98.7135
 20
134.118
 11
98.5037
 21
133.885
  0
LINE
  8
0
 10
98.5037
 20
133.885
 11
98.25
 21
133.701
  0
LINE
  8
0
 10
98.25
 20
133.701
 11
97.9635
 21
133.573
  0
LINE
  8
0
 10
97.9635
 20
133.573
 11
97.6568
 21
133.508
  0
LINE
  8
0
 10
97.6568
 20
133.508
 11
97.3432
 21
133.508
  0
LINE
  8
0
 10
370.343
 20
133.508
 11
370.036
 21
133.573
  0
LINE
  8
0
 10
370.036
 20
133.573
 11
369.75
 21
133.701
  0
LINE
  8
0
 10
369.75
 20
133.701
 11
369.496
 21
133.885
  0
LINE
  8
0
 10
369.496
 20
133.885
 11
369.286
 21
134.118
  0
LINE
  8
0
 10
369.286
 20
134.118
 11
369.13
 21
134.39
  0
LINE
  8
0
 10
369.13
 20
134.39
 11
369.033
 21
134.688
  0
LINE
  8
0
 10
369.033
 20
134.688
 11
369
 21
135
  0
LINE
  8
0
 10
369
 20
135
 11
369.033
 21
135.312
  0
LINE
  8
0
 10
369.033
 20
135.312
 11
369.13
 21
135.61
  0
LINE
  8
0
 10
369.13
 20
135.61
 11
369.286
 21
135.882
  0
LINE
  8
0
 10
369.286
 20
135.882
 11
369.496
 21
136.115
  0
LINE
  8
0
 10
369.496
 20
136.115
 11
369.75
 21
136.299
  0
LINE
  8
0
 10
369.75
 20
136.299
 11
370.036
 21
136.427
  0
LINE
  8
0
 10
370.036
 20
136.427
 11
370.343
 21
136.492
  0
LINE
  8
0
 10
370.343
 20
136.492
 11
370.657
 21
136.492
  0
LINE
  8
0
 10
370.657
 20
136.492
 11
370.964
 21
136.427
  0
LINE
  8
0
 10
370.964
 20
136.427
 11
371.25
 21
136.299
  0
LINE
  8
0
 10
371.25
 20
136.299
 11
371.504
 21
136.115
  0
LINE
  8
0
 10
371.504
 20
136.115
 11
371.714
 21
135.882
  0
LINE
  8
0
 10
371.714
 20
135.882
 11
371.87
 21
135.61
  0
LINE
  8
0
 10
371.87
 20
135.61
 11
371.967
 21
135.312
  0
LINE
  8
0
 10
371.967
 20
135.312
 11
372
 21
135
  0
LINE
  8
0
 10
372
 20
135
 11
371.967
 21
134.688
  0
LINE
  8
0
 10
371.967
 20
134.688
 11
371.87
 21
134.39
  0
LINE
  8
0
 10
371.87
 20
134.39
 11
371.714
 21
134.118
  0
LINE
  8
0
 10
371.714
 20
134.118
 11
371.504
 21
133.885
  0
LINE
  8
0
 10
371.504
 20
133.885
 11
371.25
 21
133.701
  0
LINE
  8
0
 10
371.25
 20
133.701
 11
370.964
 21
133.573
  0
LINE
  8
0
 10
370.964
 20
133.573
 11
370.657
 21
133.508
  0
LINE
  8
0
 10
370.657
 20
133.508
 11
370.343
 21
133.508
  0
LINE
  8
0
 10
392.343
 20
121.508
 11
392.036
 21
121.573
  0
LINE
  8
0
 10
392.036
 20
121.573
 11
391.75
 21
121.701
  0
LINE
  8
0
 10
391.75
 20
121.701
 11
391.496
 21
121.885
  0
LINE
  8
0
 10
391.496
 20
121.885
 11
391.286
 21
122.118
  0
LINE
  8
0
 10
391.286
 20
122.118
 11
391.13
 21
122.39
  0
LINE
  8
0
 10
391.13
 20
122.39
 11
391.033
 21
122.688
  0
LINE
  8
0
 10
391.033
 20
122.688
 11
391
 21
123
  0
LINE
  8
0
 10
391
 20
123
 11
391.033
 21
123.312
  0
LINE
  8
0
 10
391.033
 20
123.312
 11
391.13
 21
123.61
  0
LINE
  8
0
 10
391.13
 20
123.61
 11
391.286
 21
123.882
  0
LINE
  8
0
 10
391.286
 20
123.882
 11
391.496
 21
124.115
  0
LINE
  8
0
 10
391.496
 20
124.115
 11
391.75
 21
124.299
  0
LINE
  8
0
 10
391.75
 20
124.299
 11
392.036
 21
124.427
  0
LINE
  8
0
 10
392.036
 20
124.427
 11
392.343
 21
124.492
  0
LINE
  8
0
 10
392.343
 20
124.492
 11
392.657
 21
124.492
  0
LINE
  8
0
 10
392.657
 20
124.492
 11
392.964
 21
124.427
  0
LINE
  8
0
 10
392.964
 20
124.427
 11
393.25
 21
124.299
  0
LINE
  8
0
 10
393.25
 20
124.299
 11
393.504
 21
124.115
  0
LINE
  8
0
 10
393.504
 20
124.115
 11
393.714
 21
123.882
  0
LINE
  8
0
 10
393.714
 20
123.882
 11
393.87
 21
123.61
  0
LINE
  8
0
 10
393.87
 20
123.61
 11
393.967
 21
123.312
  0
LINE
  8
0
 10
393.967
 20
123.312
 11
394
 21
123
  0
LINE
  8
0
 10
394
 20
123
 11
393.967
 21
122.688
  0
LINE
  8
0
 10
393.967
 20
122.688
 11
393.87
 21
122.39
  0
LINE
  8
0
 10
393.87
 20
122.39
 11
393.714
 21
122.118
  0
LINE
  8
0
 10
393.714
 20
122.118
 11
393.504
 21
121.885
  0
LINE
  8
0
 10
393.504
 20
121.885
 11
393.25
 21
121.701
  0
LINE
  8
0
 10
393.25
 20
121.701
 11
392.964
 21
121.573
  0
LINE
  8
0
 10
392.964
 20
121.573
 11
392.657
 21
121.508
  0
LINE
  8
0
 10
392.657
 20
121.508
 11
392.343
 21
121.508
  0
LINE
  8
0
 10
47.3432
 20
118.508
 11
47.0365
 21
118.573
  0
LINE
  8
0
 10
47.0365
 20
118.573
 11
46.75
 21
118.701
  0
LINE
  8
0
 10
46.75
 20
118.701
 11
46.4963
 21
118.885
  0
LINE
  8
0
 10
46.4963
 20
118.885
 11
46.2865
 21
119.118
  0
LINE
  8
0
 10
46.2865
 20
119.118
 11
46.1297
 21
119.39
  0
LINE
  8
0
 10
46.1297
 20
119.39
 11
46.0328
 21
119.688
  0
LINE
  8
0
 10
46.0328
 20
119.688
 11
46
 21
120
  0
LINE
  8
0
 10
46
 20
120
 11
46.0328
 21
120.312
  0
LINE
  8
0
 10
46.0328
 20
120.312
 11
46.1297
 21
120.61
  0
LINE
  8
0
 10
46.1297
 20
120.61
 11
46.2865
 21
120.882
  0
LINE
  8
0
 10
46.2865
 20
120.882
 11
46.4963
 21
121.115
  0
LINE
  8
0
 10
46.4963
 20
121.115
 11
46.75
 21
121.299
  0
LINE
  8
0
 10
46.75
 20
121.299
 11
47.0365
 21
121.427
  0
LINE
  8
0
 10
47.0365
 20
121.427
 11
47.3432
 21
121.492
  0
LINE
  8
0
 10
47.3432
 20
121.492
 11
47.6568
 21
121.492
  0
LINE
  8
0
 10
47.6568
 20
121.492
 11
47.9635
 21
121.427
  0
LINE
  8
0
 10
47.9635
 20
121.427
 11
48.25
 21
121.299
  0
LINE
  8
0
 10
48.25
 20
121.299
 11
48.5037
 21
121.115
  0
LINE
  8
0
 10
48.5037
 20
121.115
 11
48.7135
 21
120.882
  0
LINE
  8
0
 10
48.7135
 20
120.882
 11
48.8703
 21
120.61
  0
LINE
  8
0
 10
48.8703
 20
120.61
 11
48.9672
 21
120.312
  0
LINE
  8
0
 10
48.9672
 20
120.312
 11
49
 21
120
  0
LINE
  8
0
 10
49
 20
120
 11
48.9672
 21
119.688
  0
LINE
  8
0
 10
48.9672
 20
119.688
 11
48.8703
 21
119.39
  0
LINE
  8
0
 10
48.8703
 20
119.39
 11
48.7135
 21
119.118
  0
LINE
  8
0
 10
48.7135
 20
119.118
 11
48.5037
 21
118.885
  0
LINE
  8
0
 10
48.5037
 20
118.885
 11
48.25
 21
118.701
  0
LINE
  8
0
 10
48.25
 20
118.701
 11
47.9635
 21
118.573
  0
LINE
  8
0
 10
47.9635
 20
118.573
 11
47.6568
 21
118.508
  0
LINE
  8
0
 10
47.6568
 20
118.508
 11
47.3432
 21
118.508
  0
LINE
  8
0
 10
403.78
 20
95.9115
 11
403.351
 21
96.0028
  0
LINE
  8
0
 10
403.351
 20
96.0028
 11
402.95
 21
96.1813
  0
LINE
  8
0
 10
402.95
 20
96.1813
 11
402.595
 21
96.4394
  0
LINE
  8
0
 10
402.595
 20
96.4394
 11
402.301
 21
96.7656
  0
LINE
  8
0
 10
402.301
 20
96.7656
 11
402.082
 21
97.1458
  0
LINE
  8
0
 10
402.082
 20
97.1458
 11
401.946
 21
97.5634
  0
LINE
  8
0
 10
401.946
 20
97.5634
 11
401.9
 21
98
  0
LINE
  8
0
 10
401.9
 20
98
 11
401.946
 21
98.4366
  0
LINE
  8
0
 10
401.946
 20
98.4366
 11
401.966
 21
98.5
  0
LINE
  8
0
 10
401.966
 20
98.5
 11
401.946
 21
98.5634
  0
LINE
  8
0
 10
401.946
 20
98.5634
 11
401.9
 21
99
  0
LINE
  8
0
 10
401.9
 20
99
 11
401.946
 21
99.4366
  0
LINE
  8
0
 10
401.946
 20
99.4366
 11
401.966
 21
99.5
  0
LINE
  8
0
 10
401.966
 20
99.5
 11
401.946
 21
99.5634
  0
LINE
  8
0
 10
401.946
 20
99.5634
 11
401.9
 21
100
  0
LINE
  8
0
 10
401.9
 20
100
 11
401.946
 21
100.437
  0
LINE
  8
0
 10
401.946
 20
100.437
 11
401.966
 21
100.5
  0
LINE
  8
0
 10
401.966
 20
100.5
 11
401.946
 21
100.563
  0
LINE
  8
0
 10
401.946
 20
100.563
 11
401.9
 21
101
  0
LINE
  8
0
 10
401.9
 20
101
 11
401.946
 21
101.437
  0
LINE
  8
0
 10
401.946
 20
101.437
 11
401.966
 21
101.5
  0
LINE
  8
0
 10
401.966
 20
101.5
 11
401.946
 21
101.563
  0
LINE
  8
0
 10
401.946
 20
101.563
 11
401.9
 21
102
  0
LINE
  8
0
 10
401.9
 20
102
 11
401.946
 21
102.437
  0
LINE
  8
0
 10
401.946
 20
102.437
 11
401.966
 21
102.5
  0
LINE
  8
0
 10
401.966
 20
102.5
 11
401.946
 21
102.563
  0
LINE
  8
0
 10
401.946
 20
102.563
 11
401.9
 21
103
  0
LINE
  8
0
 10
401.9
 20
103
 11
401.946
 21
103.437
  0
LINE
  8
0
 10
401.946
 20
103.437
 11
401.966
 21
103.5
  0
LINE
  8
0
 10
401.966
 20
103.5
 11
401.946
 21
103.563
  0
LINE
  8
0
 10
401.946
 20
103.563
 11
401.9
 21
104
  0
LINE
  8
0
 10
401.9
 20
104
 11
401.946
 21
104.437
  0
LINE
  8
0
 10
401.946
 20
104.437
 11
402.082
 21
104.854
  0
LINE
  8
0
 10
402.082
 20
104.854
 11
402.301
 21
105.234
  0
LINE
  8
0
 10
402.301
 20
105.234
 11
402.595
 21
105.561
  0
LINE
  8
0
 10
402.595
 20
105.561
 11
402.95
 21
105.819
  0
LINE
  8
0
 10
402.95
 20
105.819
 11
403.351
 21
105.997
  0
LINE
  8
0
 10
403.351
 20
105.997
 11
403.78
 21
106.088
  0
LINE
  8
0
 10
403.78
 20
106.088
 11
404.22
 21
106.088
  0
LINE
  8
0
 10
404.22
 20
106.088
 11
404.649
 21
105.997
  0
LINE
  8
0
 10
404.649
 20
105.997
 11
405.05
 21
105.819
  0
LINE
  8
0
 10
405.05
 20
105.819
 11
405.405
 21
105.561
  0
LINE
  8
0
 10
405.405
 20
105.561
 11
405.699
 21
105.234
  0
LINE
  8
0
 10
405.699
 20
105.234
 11
405.918
 21
104.854
  0
LINE
  8
0
 10
405.918
 20
104.854
 11
406.054
 21
104.437
  0
LINE
  8
0
 10
406.054
 20
104.437
 11
406.1
 21
104
  0
LINE
  8
0
 10
406.1
 20
104
 11
406.054
 21
103.563
  0
LINE
  8
0
 10
406.054
 20
103.563
 11
406.034
 21
103.5
  0
LINE
  8
0
 10
406.034
 20
103.5
 11
406.054
 21
103.437
  0
LINE
  8
0
 10
406.054
 20
103.437
 11
406.1
 21
103
  0
LINE
  8
0
 10
406.1
 20
103
 11
406.054
 21
102.563
  0
LINE
  8
0
 10
406.054
 20
102.563
 11
406.034
 21
102.5
  0
LINE
  8
0
 10
406.034
 20
102.5
 11
406.054
 21
102.437
  0
LINE
  8
0
 10
406.054
 20
102.437
 11
406.1
 21
102
  0
LINE
  8
0
 10
406.1
 20
102
 11
406.054
 21
101.563
  0
LINE
  8
0
 10
406.054
 20
101.563
 11
406.034
 21
101.5
  0
LINE
  8
0
 10
406.034
 20
101.5
 11
406.054
 21
101.437
  0
LINE
  8
0
 10
406.054
 20
101.437
 11
406.1
 21
101
  0
LINE
  8
0
 10
406.1
 20
101
 11
406.054
 21
100.563
  0
LINE
  8
0
 10
406.054
 20
100.563
 11
406.034
 21
100.5
  0
LINE
  8
0
 10
406.034
 20
100.5
 11
406.054
 21
100.437
  0
LINE
  8
0
 10
406.054
 20
100.437
 11
406.1
 21
100
  0
LINE
  8
0
 10
406.1
 20
100
 11
406.054
 21
99.5634
  0
LINE
  8
0
 10
406.054
 20
99.5634
 11
406.034
 21
99.5
  0
LINE
  8
0
 10
406.034
 20
99.5
 11
406.054
 21
99.4366
  0
LINE
  8
0
 10
406.054
 20
99.4366
 11
406.1
 21
99
  0
LINE
  8
0
 10
406.1
 20
99
 11
406.054
 21
98.5634
  0
LINE
  8
0
 10
406.054
 20
98.5634
 11
406.034
 21
98.5
  0
LINE
  8
0
 10
406.034
 20
98.5
 11
406.054
 21
98.4366
  0
LINE
  8
0
 10
406.054
 20
98.4366
 11
406.1
 21
98
  0
LINE
  8
0
 10
406.1
 20
98
 11
406.054
 21
97.5634
  0
LINE
  8
0
 10
406.054
 20
97.5634
 11
405.918
 21
97.1458
  0
LINE
  8
0
 10
405.918
 20
97.1458
 11
405.699
 21
96.7656
  0
LINE
  8
0
 10
405.699
 20
96.7656
 11
405.405
 21
96.4394
  0
LINE
  8
0
 10
405.405
 20
96.4394
 11
405.05
 21
96.1813
  0
LINE
  8
0
 10
405.05
 20
96.1813
 11
404.649
 21
96.0028
  0
LINE
  8
0
 10
404.649
 20
96.0028
 11
404.22
 21
95.9115
  0
LINE
  8
0
 10
404.22
 20
95.9115
 11
403.78
 21
95.9115
  0
LINE
  8
0
 10
34.7805
 20
95.9115
 11
34.3511
 21
96.0028
  0
LINE
  8
0
 10
34.3511
 20
96.0028
 11
33.95
 21
96.1813
  0
LINE
  8
0
 10
33.95
 20
96.1813
 11
33.5948
 21
96.4394
  0
LINE
  8
0
 10
33.5948
 20
96.4394
 11
33.3011
 21
96.7656
  0
LINE
  8
0
 10
33.3011
 20
96.7656
 11
33.0815
 21
97.1458
  0
LINE
  8
0
 10
33.0815
 20
97.1458
 11
32.9459
 21
97.5634
  0
LINE
  8
0
 10
32.9459
 20
97.5634
 11
32.9
 21
98
  0
LINE
  8
0
 10
32.9
 20
98
 11
32.9459
 21
98.4366
  0
LINE
  8
0
 10
32.9459
 20
98.4366
 11
32.9665
 21
98.5
  0
LINE
  8
0
 10
32.9665
 20
98.5
 11
32.9459
 21
98.5634
  0
LINE
  8
0
 10
32.9459
 20
98.5634
 11
32.9
 21
99
  0
LINE
  8
0
 10
32.9
 20
99
 11
32.9459
 21
99.4366
  0
LINE
  8
0
 10
32.9459
 20
99.4366
 11
32.9665
 21
99.5
  0
LINE
  8
0
 10
32.9665
 20
99.5
 11
32.9459
 21
99.5634
  0
LINE
  8
0
 10
32.9459
 20
99.5634
 11
32.9
 21
100
  0
LINE
  8
0
 10
32.9
 20
100
 11
32.9459
 21
100.437
  0
LINE
  8
0
 10
32.9459
 20
100.437
 11
32.9665
 21
100.5
  0
LINE
  8
0
 10
32.9665
 20
100.5
 11
32.9459
 21
100.563
  0
LINE
  8
0
 10
32.9459
 20
100.563
 11
32.9
 21
101
  0
LINE
  8
0
 10
32.9
 20
101
 11
32.9459
 21
101.437
  0
LINE
  8
0
 10
32.9459
 20
101.437
 11
32.9665
 21
101.5
  0
LINE
  8
0
 10
32.9665
 20
101.5
 11
32.9459
 21
101.563
  0
LINE
  8
0
 10
32.9459
 20
101.563
 11
32.9
 21
102
  0
LINE
  8
0
 10
32.9
 20
102
 11
32.9459
 21
102.437
  0
LINE
  8
0
 10
32.9459
 20
102.437
 11
32.9665
 21
102.5
  0
LINE
  8
0
 10
32.9665
 20
102.5
 11
32.9459
 21
102.563
  0
LINE
  8
0
 10
32.9459
 20
102.563
 11
32.9
 21
103
  0
LINE
  8
0
 10
32.9
 20
103
 11
32.9459
 21
103.437
  0
LINE
  8
0
 10
32.9459
 20
103.437
 11
32.9665
 21
103.5
  0
LINE
  8
0
 10
32.9665
 20
103.5
 11
32.9459
 21
103.563
  0
LINE
  8
0
 10
32.9459
 20
103.563
 11
32.9
 21
104
  0
LINE
  8
0
 10
32.9
 20
104
 11
32.9459
 21
104.437
  0
LINE
  8
0
 10
32.9459
 20
104.437
 11
33.0815
 21
104.854
  0
LINE
  8
0
 10
33.0815
 20
104.854
 11
33.3011
 21
105.234
  0
LINE
  8
0
 10
33.3011
 20
105.234
 11
33.5948
 21
105.561
  0
LINE
  8
0
 10
33.5948
 20
105.561
 11
33.95
 21
105.819
  0
LINE
  8
0
 10
33.95
 20
105.819
 11
34.3511
 21
105.997
  0
LINE
  8
0
 10
34.3511
 20
105.997
 11
34.7805
 21
106.088
  0
LINE
  8
0
 10
34.7805
 20
106.088
 11
35.2195
 21
106.088
  0
LINE
  8
0
 10
35.2195
 20
106.088
 11
35.6489
 21
105.997
  0
LINE
  8
0
 10
35.6489
 20
105.997
 11
36.05
 21
105.819
  0
LINE
  8
0
 10
36.05
 20
105.819
 11
36.4052
 21
105.561
  0
LINE
  8
0
 10
36.4052
 20
105.561
 11
36.6989
 21
105.234
  0
LINE
  8
0
 10
36.6989
 20
105.234
 11
36.9184
 21
104.854
  0
LINE
  8
0
 10
36.9184
 20
104.854
 11
37.0541
 21
104.437
  0
LINE
  8
0
 10
37.0541
 20
104.437
 11
37.1
 21
104
  0
LINE
  8
0
 10
37.1
 20
104
 11
37.0541
 21
103.563
  0
LINE
  8
0
 10
37.0541
 20
103.563
 11
37.0335
 21
103.5
  0
LINE
  8
0
 10
37.0335
 20
103.5
 11
37.0541
 21
103.437
  0
LINE
  8
0
 10
37.0541
 20
103.437
 11
37.1
 21
103
  0
LINE
  8
0
 10
37.1
 20
103
 11
37.0541
 21
102.563
  0
LINE
  8
0
 10
37.0541
 20
102.563
 11
37.0335
 21
102.5
  0
LINE
  8
0
 10
37.0335
 20
102.5
 11
37.0541
 21
102.437
  0
LINE
  8
0
 10
37.0541
 20
102.437
 11
37.1
 21
102
  0
LINE
  8
0
 10
37.1
 20
102
 11
37.0541
 21
101.563
  0
LINE
  8
0
 10
37.0541
 20
101.563
 11
37.0335
 21
101.5
  0
LINE
  8
0
 10
37.0335
 20
101.5
 11
37.0541
 21
101.437
  0
LINE
  8
0
 10
37.0541
 20
101.437
 11
37.1
 21
101
  0
LINE
  8
0
 10
37.1
 20
101
 11
37.0541
 21
100.563
  0
LINE
  8
0
 10
37.0541
 20
100.563
 11
37.0335
 21
100.5
  0
LINE
  8
0
 10
37.0335
 20
100.5
 11
37.0541
 21
100.437
  0
LINE
  8
0
 10
37.0541
 20
100.437
 11
37.1
 21
100
  0
LINE
  8
0
 10
37.1
 20
100
 11
37.0541
 21
99.5634
  0
LINE
  8
0
 10
37.0541
 20
99.5634
 11
37.0335
 21
99.5
  0
LINE
  8
0
 10
37.0335
 20
99.5
 11
37.0541
 21
99.4366
  0
LINE
  8
0
 10
37.0541
 20
99.4366
 11
37.1
 21
99
  0
LINE
  8
0
 10
37.1
 20
99
 11
37.0541
 21
98.5634
  0
LINE
  8
0
 10
37.0541
 20
98.5634
 11
37.0335
 21
98.5
  0
LINE
  8
0
 10
37.0335
 20
98.5
 11
37.0541
 21
98.4366
  0
LINE
  8
0
 10
37.0541
 20
98.4366
 11
37.1
 21
98
  0
LINE
  8
0
 10
37.1
 20
98
 11
37.0541
 21
97.5634
  0
LINE
  8
0
 10
37.0541
 20
97.5634
 11
36.9184
 21
97.1458
  0
LINE
  8
0
 10
36.9184
 20
97.1458
 11
36.6989
 21
96.7656
  0
LINE
  8
0
 10
36.6989
 20
96.7656
 11
36.4052
 21
96.4394
  0
LINE
  8
0
 10
36.4052
 20
96.4394
 11
36.05
 21
96.1813
  0
LINE
  8
0
 10
36.05
 20
96.1813
 11
35.6489
 21
96.0028
  0
LINE
  8
0
 10
35.6489
 20
96.0028
 11
35.2195
 21
95.9115
  0
LINE
  8
0
 10
35.2195
 20
95.9115
 11
34.7805
 21
95.9115
  0
LINE
  8
0
 10
243.343
 20
94.5082
 11
243.036
 21
94.5734
  0
LINE
  8
0
 10
243.036
 20
94.5734
 11
242.75
 21
94.701
  0
LINE
  8
0
 10
242.75
 20
94.701
 11
242.496
 21
94.8853
  0
LINE
  8
0
 10
242.496
 20
94.8853
 11
242.286
 21
95.1183
  0
LINE
  8
0
 10
242.286
 20
95.1183
 11
242.13
 21
95.3899
  0
LINE
  8
0
 10
242.13
 20
95.3899
 11
242.033
 21
95.6881
  0
LINE
  8
0
 10
242.033
 20
95.6881
 11
242
 21
96
  0
LINE
  8
0
 10
242
 20
96
 11
242.033
 21
96.3119
  0
LINE
  8
0
 10
242.033
 20
96.3119
 11
242.13
 21
96.6101
  0
LINE
  8
0
 10
242.13
 20
96.6101
 11
242.286
 21
96.8817
  0
LINE
  8
0
 10
242.286
 20
96.8817
 11
242.496
 21
97.1147
  0
LINE
  8
0
 10
242.496
 20
97.1147
 11
242.75
 21
97.299
  0
LINE
  8
0
 10
242.75
 20
97.299
 11
243.036
 21
97.4266
  0
LINE
  8
0
 10
243.036
 20
97.4266
 11
243.343
 21
97.4918
  0
LINE
  8
0
 10
243.343
 20
97.4918
 11
243.657
 21
97.4918
  0
LINE
  8
0
 10
243.657
 20
97.4918
 11
243.964
 21
97.4266
  0
LINE
  8
0
 10
243.964
 20
97.4266
 11
244.25
 21
97.299
  0
LINE
  8
0
 10
244.25
 20
97.299
 11
244.504
 21
97.1147
  0
LINE
  8
0
 10
244.504
 20
97.1147
 11
244.714
 21
96.8817
  0
LINE
  8
0
 10
244.714
 20
96.8817
 11
244.87
 21
96.6101
  0
LINE
  8
0
 10
244.87
 20
96.6101
 11
244.967
 21
96.3119
  0
LINE
  8
0
 10
244.967
 20
96.3119
 11
245
 21
96
  0
LINE
  8
0
 10
245
 20
96
 11
244.967
 21
95.6881
  0
LINE
  8
0
 10
244.967
 20
95.6881
 11
244.87
 21
95.3899
  0
LINE
  8
0
 10
244.87
 20
95.3899
 11
244.714
 21
95.1183
  0
LINE
  8
0
 10
244.714
 20
95.1183
 11
244.504
 21
94.8853
  0
LINE
  8
0
 10
244.504
 20
94.8853
 11
244.25
 21
94.701
  0
LINE
  8
0
 10
244.25
 20
94.701
 11
243.964
 21
94.5734
  0
LINE
  8
0
 10
243.964
 20
94.5734
 11
243.657
 21
94.5082
  0
LINE
  8
0
 10
243.657
 20
94.5082
 11
243.343
 21
94.5082
  0
LINE
  8
0
 10
345.343
 20
94.5082
 11
345.036
 21
94.5734
  0
LINE
  8
0
 10
345.036
 20
94.5734
 11
344.75
 21
94.701
  0
LINE
  8
0
 10
344.75
 20
94.701
 11
344.496
 21
94.8853
  0
LINE
  8
0
 10
344.496
 20
94.8853
 11
344.286
 21
95.1183
  0
LINE
  8
0
 10
344.286
 20
95.1183
 11
344.13
 21
95.3899
  0
LINE
  8
0
 10
344.13
 20
95.3899
 11
344.033
 21
95.6881
  0
LINE
  8
0
 10
344.033
 20
95.6881
 11
344
 21
96
  0
LINE
  8
0
 10
344
 20
96
 11
344.033
 21
96.3119
  0
LINE
  8
0
 10
344.033
 20
96.3119
 11
344.13
 21
96.6101
  0
LINE
  8
0
 10
344.13
 20
96.6101
 11
344.286
 21
96.8817
  0
LINE
  8
0
 10
344.286
 20
96.8817
 11
344.496
 21
97.1147
  0
LINE
  8
0
 10
344.496
 20
97.1147
 11
344.75
 21
97.299
  0
LINE
  8
0
 10
344.75
 20
97.299
 11
345.036
 21
97.4266
  0
LINE
  8
0
 10
345.036
 20
97.4266
 11
345.343
 21
97.4918
  0
LINE
  8
0
 10
345.343
 20
97.4918
 11
345.657
 21
97.4918
  0
LINE
  8
0
 10
345.657
 20
97.4918
 11
345.964
 21
97.4266
  0
LINE
  8
0
 10
345.964
 20
97.4266
 11
346.25
 21
97.299
  0
LINE
  8
0
 10
346.25
 20
97.299
 11
346.504
 21
97.1147
  0
LINE
  8
0
 10
346.504
 20
97.1147
 11
346.714
 21
96.8817
  0
LINE
  8
0
 10
346.714
 20
96.8817
 11
346.87
 21
96.6101
  0
LINE
  8
0
 10
346.87
 20
96.6101
 11
346.967
 21
96.3119
  0
LINE
  8
0
 10
346.967
 20
96.3119
 11
347
 21
96
  0
LINE
  8
0
 10
347
 20
96
 11
346.967
 21
95.6881
  0
LINE
  8
0
 10
346.967
 20
95.6881
 11
346.87
 21
95.3899
  0
LINE
  8
0
 10
346.87
 20
95.3899
 11
346.714
 21
95.1183
  0
LINE
  8
0
 10
346.714
 20
95.1183
 11
346.504
 21
94.8853
  0
LINE
  8
0
 10
346.504
 20
94.8853
 11
346.25
 21
94.701
  0
LINE
  8
0
 10
346.25
 20
94.701
 11
345.964
 21
94.5734
  0
LINE
  8
0
 10
345.964
 20
94.5734
 11
345.657
 21
94.5082
  0
LINE
  8
0
 10
345.657
 20
94.5082
 11
345.343
 21
94.5082
  0
LINE
  8
0
 10
92.3432
 20
94.5082
 11
92.0365
 21
94.5734
  0
LINE
  8
0
 10
92.0365
 20
94.5734
 11
91.75
 21
94.701
  0
LINE
  8
0
 10
91.75
 20
94.701
 11
91.4963
 21
94.8853
  0
LINE
  8
0
 10
91.4963
 20
94.8853
 11
91.2865
 21
95.1183
  0
LINE
  8
0
 10
91.2865
 20
95.1183
 11
91.1297
 21
95.3899
  0
LINE
  8
0
 10
91.1297
 20
95.3899
 11
91.0328
 21
95.6881
  0
LINE
  8
0
 10
91.0328
 20
95.6881
 11
91
 21
96
  0
LINE
  8
0
 10
91
 20
96
 11
91.0328
 21
96.3119
  0
LINE
  8
0
 10
91.0328
 20
96.3119
 11
91.1297
 21
96.6101
  0
LINE
  8
0
 10
91.1297
 20
96.6101
 11
91.2865
 21
96.8817
  0
LINE
  8
0
 10
91.2865
 20
96.8817
 11
91.4963
 21
97.1147
  0
LINE
  8
0
 10
91.4963
 20
97.1147
 11
91.75
 21
97.299
  0
LINE
  8
0
 10
91.75
 20
97.299
 11
92.0365
 21
97.4266
  0
LINE
  8
0
 10
92.0365
 20
97.4266
 11
92.3432
 21
97.4918
  0
LINE
  8
0
 10
92.3432
 20
97.4918
 11
92.6568
 21
97.4918
  0
LINE
  8
0
 10
92.6568
 20
97.4918
 11
92.9635
 21
97.4266
  0
LINE
  8
0
 10
92.9635
 20
97.4266
 11
93.25
 21
97.299
  0
LINE
  8
0
 10
93.25
 20
97.299
 11
93.5037
 21
97.1147
  0
LINE
  8
0
 10
93.5037
 20
97.1147
 11
93.7135
 21
96.8817
  0
LINE
  8
0
 10
93.7135
 20
96.8817
 11
93.8703
 21
96.6101
  0
LINE
  8
0
 10
93.8703
 20
96.6101
 11
93.9672
 21
96.3119
  0
LINE
  8
0
 10
93.9672
 20
96.3119
 11
94
 21
96
  0
LINE
  8
0
 10
94
 20
96
 11
93.9672
 21
95.6881
  0
LINE
  8
0
 10
93.9672
 20
95.6881
 11
93.8703
 21
95.3899
  0
LINE
  8
0
 10
93.8703
 20
95.3899
 11
93.7135
 21
95.1183
  0
LINE
  8
0
 10
93.7135
 20
95.1183
 11
93.5037
 21
94.8853
  0
LINE
  8
0
 10
93.5037
 20
94.8853
 11
93.25
 21
94.701
  0
LINE
  8
0
 10
93.25
 20
94.701
 11
92.9635
 21
94.5734
  0
LINE
  8
0
 10
92.9635
 20
94.5734
 11
92.6568
 21
94.5082
  0
LINE
  8
0
 10
92.6568
 20
94.5082
 11
92.3432
 21
94.5082
  0
LINE
  8
0
 10
193.343
 20
94.5082
 11
193.036
 21
94.5734
  0
LINE
  8
0
 10
193.036
 20
94.5734
 11
192.75
 21
94.701
  0
LINE
  8
0
 10
192.75
 20
94.701
 11
192.496
 21
94.8853
  0
LINE
  8
0
 10
192.496
 20
94.8853
 11
192.286
 21
95.1183
  0
LINE
  8
0
 10
192.286
 20
95.1183
 11
192.13
 21
95.3899
  0
LINE
  8
0
 10
192.13
 20
95.3899
 11
192.033
 21
95.6881
  0
LINE
  8
0
 10
192.033
 20
95.6881
 11
192
 21
96
  0
LINE
  8
0
 10
192
 20
96
 11
192.033
 21
96.3119
  0
LINE
  8
0
 10
192.033
 20
96.3119
 11
192.13
 21
96.6101
  0
LINE
  8
0
 10
192.13
 20
96.6101
 11
192.286
 21
96.8817
  0
LINE
  8
0
 10
192.286
 20
96.8817
 11
192.496
 21
97.1147
  0
LINE
  8
0
 10
192.496
 20
97.1147
 11
192.75
 21
97.299
  0
LINE
  8
0
 10
192.75
 20
97.299
 11
193.036
 21
97.4266
  0
LINE
  8
0
 10
193.036
 20
97.4266
 11
193.343
 21
97.4918
  0
LINE
  8
0
 10
193.343
 20
97.4918
 11
193.657
 21
97.4918
  0
LINE
  8
0
 10
193.657
 20
97.4918
 11
193.964
 21
97.4266
  0
LINE
  8
0
 10
193.964
 20
97.4266
 11
194.25
 21
97.299
  0
LINE
  8
0
 10
194.25
 20
97.299
 11
194.504
 21
97.1147
  0
LINE
  8
0
 10
194.504
 20
97.1147
 11
194.714
 21
96.8817
  0
LINE
  8
0
 10
194.714
 20
96.8817
 11
194.87
 21
96.6101
  0
LINE
  8
0
 10
194.87
 20
96.6101
 11
194.967
 21
96.3119
  0
LINE
  8
0
 10
194.967
 20
96.3119
 11
195
 21
96
  0
LINE
  8
0
 10
195
 20
96
 11
194.967
 21
95.6881
  0
LINE
  8
0
 10
194.967
 20
95.6881
 11
194.87
 21
95.3899
  0
LINE
  8
0
 10
194.87
 20
95.3899
 11
194.714
 21
95.1183
  0
LINE
  8
0
 10
194.714
 20
95.1183
 11
194.504
 21
94.8853
  0
LINE
  8
0
 10
194.504
 20
94.8853
 11
194.25
 21
94.701
  0
LINE
  8
0
 10
194.25
 20
94.701
 11
193.964
 21
94.5734
  0
LINE
  8
0
 10
193.964
 20
94.5734
 11
193.657
 21
94.5082
  0
LINE
  8
0
 10
193.657
 20
94.5082
 11
193.343
 21
94.5082
  0
LINE
  8
0
 10
67.3432
 20
90.5082
 11
67.0365
 21
90.5734
  0
LINE
  8
0
 10
67.0365
 20
90.5734
 11
66.75
 21
90.701
  0
LINE
  8
0
 10
66.75
 20
90.701
 11
66.4963
 21
90.8853
  0
LINE
  8
0
 10
66.4963
 20
90.8853
 11
66.2865
 21
91.1183
  0
LINE
  8
0
 10
66.2865
 20
91.1183
 11
66.1297
 21
91.3899
  0
LINE
  8
0
 10
66.1297
 20
91.3899
 11
66.0328
 21
91.6881
  0
LINE
  8
0
 10
66.0328
 20
91.6881
 11
66
 21
92
  0
LINE
  8
0
 10
66
 20
92
 11
66.0328
 21
92.3119
  0
LINE
  8
0
 10
66.0328
 20
92.3119
 11
66.1297
 21
92.6101
  0
LINE
  8
0
 10
66.1297
 20
92.6101
 11
66.2865
 21
92.8817
  0
LINE
  8
0
 10
66.2865
 20
92.8817
 11
66.4963
 21
93.1147
  0
LINE
  8
0
 10
66.4963
 20
93.1147
 11
66.75
 21
93.299
  0
LINE
  8
0
 10
66.75
 20
93.299
 11
67.0365
 21
93.4266
  0
LINE
  8
0
 10
67.0365
 20
93.4266
 11
67.3432
 21
93.4918
  0
LINE
  8
0
 10
67.3432
 20
93.4918
 11
67.6568
 21
93.4918
  0
LINE
  8
0
 10
67.6568
 20
93.4918
 11
67.9635
 21
93.4266
  0
LINE
  8
0
 10
67.9635
 20
93.4266
 11
68.25
 21
93.299
  0
LINE
  8
0
 10
68.25
 20
93.299
 11
68.5037
 21
93.1147
  0
LINE
  8
0
 10
68.5037
 20
93.1147
 11
68.7135
 21
92.8817
  0
LINE
  8
0
 10
68.7135
 20
92.8817
 11
68.8703
 21
92.6101
  0
LINE
  8
0
 10
68.8703
 20
92.6101
 11
68.9672
 21
92.3119
  0
LINE
  8
0
 10
68.9672
 20
92.3119
 11
69
 21
92
  0
LINE
  8
0
 10
69
 20
92
 11
68.9672
 21
91.6881
  0
LINE
  8
0
 10
68.9672
 20
91.6881
 11
68.8703
 21
91.3899
  0
LINE
  8
0
 10
68.8703
 20
91.3899
 11
68.7135
 21
91.1183
  0
LINE
  8
0
 10
68.7135
 20
91.1183
 11
68.5037
 21
90.8853
  0
LINE
  8
0
 10
68.5037
 20
90.8853
 11
68.25
 21
90.701
  0
LINE
  8
0
 10
68.25
 20
90.701
 11
67.9635
 21
90.5734
  0
LINE
  8
0
 10
67.9635
 20
90.5734
 11
67.6568
 21
90.5082
  0
LINE
  8
0
 10
67.6568
 20
90.5082
 11
67.3432
 21
90.5082
  0
LINE
  8
0
 10
168.343
 20
90.5082
 11
168.036
 21
90.5734
  0
LINE
  8
0
 10
168.036
 20
90.5734
 11
167.75
 21
90.701
  0
LINE
  8
0
 10
167.75
 20
90.701
 11
167.496
 21
90.8853
  0
LINE
  8
0
 10
167.496
 20
90.8853
 11
167.286
 21
91.1183
  0
LINE
  8
0
 10
167.286
 20
91.1183
 11
167.13
 21
91.3899
  0
LINE
  8
0
 10
167.13
 20
91.3899
 11
167.033
 21
91.6881
  0
LINE
  8
0
 10
167.033
 20
91.6881
 11
167
 21
92
  0
LINE
  8
0
 10
167
 20
92
 11
167.033
 21
92.3119
  0
LINE
  8
0
 10
167.033
 20
92.3119
 11
167.13
 21
92.6101
  0
LINE
  8
0
 10
167.13
 20
92.6101
 11
167.286
 21
92.8817
  0
LINE
  8
0
 10
167.286
 20
92.8817
 11
167.496
 21
93.1147
  0
LINE
  8
0
 10
167.496
 20
93.1147
 11
167.75
 21
93.299
  0
LINE
  8
0
 10
167.75
 20
93.299
 11
168.036
 21
93.4266
  0
LINE
  8
0
 10
168.036
 20
93.4266
 11
168.343
 21
93.4918
  0
LINE
  8
0
 10
168.343
 20
93.4918
 11
168.657
 21
93.4918
  0
LINE
  8
0
 10
168.657
 20
93.4918
 11
168.964
 21
93.4266
  0
LINE
  8
0
 10
168.964
 20
93.4266
 11
169.25
 21
93.299
  0
LINE
  8
0
 10
169.25
 20
93.299
 11
169.504
 21
93.1147
  0
LINE
  8
0
 10
169.504
 20
93.1147
 11
169.714
 21
92.8817
  0
LINE
  8
0
 10
169.714
 20
92.8817
 11
169.87
 21
92.6101
  0
LINE
  8
0
 10
169.87
 20
92.6101
 11
169.967
 21
92.3119
  0
LINE
  8
0
 10
169.967
 20
92.3119
 11
170
 21
92
  0
LINE
  8
0
 10
170
 20
92
 11
169.967
 21
91.6881
  0
LINE
  8
0
 10
169.967
 20
91.6881
 11
169.87
 21
91.3899
  0
LINE
  8
0
 10
169.87
 20
91.3899
 11
169.714
 21
91.1183
  0
LINE
  8
0
 10
169.714
 20
91.1183
 11
169.504
 21
90.8853
  0
LINE
  8
0
 10
169.504
 20
90.8853
 11
169.25
 21
90.701
  0
LINE
  8
0
 10
169.25
 20
90.701
 11
168.964
 21
90.5734
  0
LINE
  8
0
 10
168.964
 20
90.5734
 11
168.657
 21
90.5082
  0
LINE
  8
0
 10
168.657
 20
90.5082
 11
168.343
 21
90.5082
  0
LINE
  8
0
 10
268.343
 20
90.5082
 11
268.036
 21
90.5734
  0
LINE
  8
0
 10
268.036
 20
90.5734
 11
267.75
 21
90.701
  0
LINE
  8
0
 10
267.75
 20
90.701
 11
267.496
 21
90.8853
  0
LINE
  8
0
 10
267.496
 20
90.8853
 11
267.286
 21
91.1183
  0
LINE
  8
0
 10
267.286
 20
91.1183
 11
267.13
 21
91.3899
  0
LINE
  8
0
 10
267.13
 20
91.3899
 11
267.033
 21
91.6881
  0
LINE
  8
0
 10
267.033
 20
91.6881
 11
267
 21
92
  0
LINE
  8
0
 10
267
 20
92
 11
267.033
 21
92.3119
  0
LINE
  8
0
 10
267.033
 20
92.3119
 11
267.13
 21
92.6101
  0
LINE
  8
0
 10
267.13
 20
92.6101
 11
267.286
 21
92.8817
  0
LINE
  8
0
 10
267.286
 20
92.8817
 11
267.496
 21
93.1147
  0
LINE
  8
0
 10
267.496
 20
93.1147
 11
267.75
 21
93.299
  0
LINE
  8
0
 10
267.75
 20
93.299
 11
268.036
 21
93.4266
  0
LINE
  8
0
 10
268.036
 20
93.4266
 11
268.343
 21
93.4918
  0
LINE
  8
0
 10
268.343
 20
93.4918
 11
268.657
 21
93.4918
  0
LINE
  8
0
 10
268.657
 20
93.4918
 11
268.964
 21
93.4266
  0
LINE
  8
0
 10
268.964
 20
93.4266
 11
269.25
 21
93.299
  0
LINE
  8
0
 10
269.25
 20
93.299
 11
269.504
 21
93.1147
  0
LINE
  8
0
 10
269.504
 20
93.1147
 11
269.714
 21
92.8817
  0
LINE
  8
0
 10
269.714
 20
92.8817
 11
269.87
 21
92.6101
  0
LINE
  8
0
 10
269.87
 20
92.6101
 11
269.967
 21
92.3119
  0
LINE
  8
0
 10
269.967
 20
92.3119
 11
270
 21
92
  0
LINE
  8
0
 10
270
 20
92
 11
269.967
 21
91.6881
  0
LINE
  8
0
 10
269.967
 20
91.6881
 11
269.87
 21
91.3899
  0
LINE
  8
0
 10
269.87
 20
91.3899
 11
269.714
 21
91.1183
  0
LINE
  8
0
 10
269.714
 20
91.1183
 11
269.504
 21
90.8853
  0
LINE
  8
0
 10
269.504
 20
90.8853
 11
269.25
 21
90.701
  0
LINE
  8
0
 10
269.25
 20
90.701
 11
268.964
 21
90.5734
  0
LINE
  8
0
 10
268.964
 20
90.5734
 11
268.657
 21
90.5082
  0
LINE
  8
0
 10
268.657
 20
90.5082
 11
268.343
 21
90.5082
  0
LINE
  8
0
 10
370.343
 20
90.5082
 11
370.036
 21
90.5734
  0
LINE
  8
0
 10
370.036
 20
90.5734
 11
369.75
 21
90.701
  0
LINE
  8
0
 10
369.75
 20
90.701
 11
369.496
 21
90.8853
  0
LINE
  8
0
 10
369.496
 20
90.8853
 11
369.286
 21
91.1183
  0
LINE
  8
0
 10
369.286
 20
91.1183
 11
369.13
 21
91.3899
  0
LINE
  8
0
 10
369.13
 20
91.3899
 11
369.033
 21
91.6881
  0
LINE
  8
0
 10
369.033
 20
91.6881
 11
369
 21
92
  0
LINE
  8
0
 10
369
 20
92
 11
369.033
 21
92.3119
  0
LINE
  8
0
 10
369.033
 20
92.3119
 11
369.13
 21
92.6101
  0
LINE
  8
0
 10
369.13
 20
92.6101
 11
369.286
 21
92.8817
  0
LINE
  8
0
 10
369.286
 20
92.8817
 11
369.496
 21
93.1147
  0
LINE
  8
0
 10
369.496
 20
93.1147
 11
369.75
 21
93.299
  0
LINE
  8
0
 10
369.75
 20
93.299
 11
370.036
 21
93.4266
  0
LINE
  8
0
 10
370.036
 20
93.4266
 11
370.343
 21
93.4918
  0
LINE
  8
0
 10
370.343
 20
93.4918
 11
370.657
 21
93.4918
  0
LINE
  8
0
 10
370.657
 20
93.4918
 11
370.964
 21
93.4266
  0
LINE
  8
0
 10
370.964
 20
93.4266
 11
371.25
 21
93.299
  0
LINE
  8
0
 10
371.25
 20
93.299
 11
371.504
 21
93.1147
  0
LINE
  8
0
 10
371.504
 20
93.1147
 11
371.714
 21
92.8817
  0
LINE
  8
0
 10
371.714
 20
92.8817
 11
371.87
 21
92.6101
  0
LINE
  8
0
 10
371.87
 20
92.6101
 11
371.967
 21
92.3119
  0
LINE
  8
0
 10
371.967
 20
92.3119
 11
372
 21
92
  0
LINE
  8
0
 10
372
 20
92
 11
371.967
 21
91.6881
  0
LINE
  8
0
 10
371.967
 20
91.6881
 11
371.87
 21
91.3899
  0
LINE
  8
0
 10
371.87
 20
91.3899
 11
371.714
 21
91.1183
  0
LINE
  8
0
 10
371.714
 20
91.1183
 11
371.504
 21
90.8853
  0
LINE
  8
0
 10
371.504
 20
90.8853
 11
371.25
 21
90.701
  0
LINE
  8
0
 10
371.25
 20
90.701
 11
370.964
 21
90.5734
  0
LINE
  8
0
 10
370.964
 20
90.5734
 11
370.657
 21
90.5082
  0
LINE
  8
0
 10
370.657
 20
90.5082
 11
370.343
 21
90.5082
  0
LINE
  8
0
 10
47.3432
 20
81.5082
 11
47.0365
 21
81.5734
  0
LINE
  8
0
 10
47.0365
 20
81.5734
 11
46.75
 21
81.701
  0
LINE
  8
0
 10
46.75
 20
81.701
 11
46.4963
 21
81.8853
  0
LINE
  8
0
 10
46.4963
 20
81.8853
 11
46.2865
 21
82.1183
  0
LINE
  8
0
 10
46.2865
 20
82.1183
 11
46.1297
 21
82.3899
  0
LINE
  8
0
 10
46.1297
 20
82.3899
 11
46.0328
 21
82.6881
  0
LINE
  8
0
 10
46.0328
 20
82.6881
 11
46
 21
83
  0
LINE
  8
0
 10
46
 20
83
 11
46.0328
 21
83.3119
  0
LINE
  8
0
 10
46.0328
 20
83.3119
 11
46.1297
 21
83.6101
  0
LINE
  8
0
 10
46.1297
 20
83.6101
 11
46.2865
 21
83.8817
  0
LINE
  8
0
 10
46.2865
 20
83.8817
 11
46.4963
 21
84.1147
  0
LINE
  8
0
 10
46.4963
 20
84.1147
 11
46.75
 21
84.299
  0
LINE
  8
0
 10
46.75
 20
84.299
 11
47.0365
 21
84.4266
  0
LINE
  8
0
 10
47.0365
 20
84.4266
 11
47.3432
 21
84.4918
  0
LINE
  8
0
 10
47.3432
 20
84.4918
 11
47.6568
 21
84.4918
  0
LINE
  8
0
 10
47.6568
 20
84.4918
 11
47.9635
 21
84.4266
  0
LINE
  8
0
 10
47.9635
 20
84.4266
 11
48.25
 21
84.299
  0
LINE
  8
0
 10
48.25
 20
84.299
 11
48.5037
 21
84.1147
  0
LINE
  8
0
 10
48.5037
 20
84.1147
 11
48.7135
 21
83.8817
  0
LINE
  8
0
 10
48.7135
 20
83.8817
 11
48.8703
 21
83.6101
  0
LINE
  8
0
 10
48.8703
 20
83.6101
 11
48.9672
 21
83.3119
  0
LINE
  8
0
 10
48.9672
 20
83.3119
 11
49
 21
83
  0
LINE
  8
0
 10
49
 20
83
 11
48.9672
 21
82.6881
  0
LINE
  8
0
 10
48.9672
 20
82.6881
 11
48.8703
 21
82.3899
  0
LINE
  8
0
 10
48.8703
 20
82.3899
 11
48.7135
 21
82.1183
  0
LINE
  8
0
 10
48.7135
 20
82.1183
 11
48.5037
 21
81.8853
  0
LINE
  8
0
 10
48.5037
 20
81.8853
 11
48.25
 21
81.701
  0
LINE
  8
0
 10
48.25
 20
81.701
 11
47.9635
 21
81.5734
  0
LINE
  8
0
 10
47.9635
 20
81.5734
 11
47.6568
 21
81.5082
  0
LINE
  8
0
 10
47.6568
 20
81.5082
 11
47.3432
 21
81.5082
  0
LINE
  8
0
 10
347.343
 20
81.5082
 11
347.036
 21
81.5734
  0
LINE
  8
0
 10
347.036
 20
81.5734
 11
346.75
 21
81.701
  0
LINE
  8
0
 10
346.75
 20
81.701
 11
346.496
 21
81.8853
  0
LINE
  8
0
 10
346.496
 20
81.8853
 11
346.286
 21
82.1183
  0
LINE
  8
0
 10
346.286
 20
82.1183
 11
346.13
 21
82.3899
  0
LINE
  8
0
 10
346.13
 20
82.3899
 11
346.033
 21
82.6881
  0
LINE
  8
0
 10
346.033
 20
82.6881
 11
346
 21
83
  0
LINE
  8
0
 10
346
 20
83
 11
346.033
 21
83.3119
  0
LINE
  8
0
 10
346.033
 20
83.3119
 11
346.13
 21
83.6101
  0
LINE
  8
0
 10
346.13
 20
83.6101
 11
346.286
 21
83.8817
  0
LINE
  8
0
 10
346.286
 20
83.8817
 11
346.496
 21
84.1147
  0
LINE
  8
0
 10
346.496
 20
84.1147
 11
346.75
 21
84.299
  0
LINE
  8
0
 10
346.75
 20
84.299
 11
347.036
 21
84.4266
  0
LINE
  8
0
 10
347.036
 20
84.4266
 11
347.343
 21
84.4918
  0
LINE
  8
0
 10
347.343
 20
84.4918
 11
347.657
 21
84.4918
  0
LINE
  8
0
 10
347.657
 20
84.4918
 11
347.964
 21
84.4266
  0
LINE
  8
0
 10
347.964
 20
84.4266
 11
348.25
 21
84.299
  0
LINE
  8
0
 10
348.25
 20
84.299
 11
348.504
 21
84.1147
  0
LINE
  8
0
 10
348.504
 20
84.1147
 11
348.714
 21
83.8817
  0
LINE
  8
0
 10
348.714
 20
83.8817
 11
348.87
 21
83.6101
  0
LINE
  8
0
 10
348.87
 20
83.6101
 11
348.967
 21
83.3119
  0
LINE
  8
0
 10
348.967
 20
83.3119
 11
349
 21
83
  0
LINE
  8
0
 10
349
 20
83
 11
348.967
 21
82.6881
  0
LINE
  8
0
 10
348.967
 20
82.6881
 11
348.87
 21
82.3899
  0
LINE
  8
0
 10
348.87
 20
82.3899
 11
348.714
 21
82.1183
  0
LINE
  8
0
 10
348.714
 20
82.1183
 11
348.504
 21
81.8853
  0
LINE
  8
0
 10
348.504
 20
81.8853
 11
348.25
 21
81.701
  0
LINE
  8
0
 10
348.25
 20
81.701
 11
347.964
 21
81.5734
  0
LINE
  8
0
 10
347.964
 20
81.5734
 11
347.657
 21
81.5082
  0
LINE
  8
0
 10
347.657
 20
81.5082
 11
347.343
 21
81.5082
  0
LINE
  8
0
 10
147.343
 20
81.5082
 11
147.036
 21
81.5734
  0
LINE
  8
0
 10
147.036
 20
81.5734
 11
146.75
 21
81.701
  0
LINE
  8
0
 10
146.75
 20
81.701
 11
146.496
 21
81.8853
  0
LINE
  8
0
 10
146.496
 20
81.8853
 11
146.286
 21
82.1183
  0
LINE
  8
0
 10
146.286
 20
82.1183
 11
146.13
 21
82.3899
  0
LINE
  8
0
 10
146.13
 20
82.3899
 11
146.033
 21
82.6881
  0
LINE
  8
0
 10
146.033
 20
82.6881
 11
146
 21
83
  0
LINE
  8
0
 10
146
 20
83
 11
146.033
 21
83.3119
  0
LINE
  8
0
 10
146.033
 20
83.3119
 11
146.13
 21
83.6101
  0
LINE
  8
0
 10
146.13
 20
83.6101
 11
146.286
 21
83.8817
  0
LINE
  8
0
 10
146.286
 20
83.8817
 11
146.496
 21
84.1147
  0
LINE
  8
0
 10
146.496
 20
84.1147
 11
146.75
 21
84.299
  0
LINE
  8
0
 10
146.75
 20
84.299
 11
147.036
 21
84.4266
  0
LINE
  8
0
 10
147.036
 20
84.4266
 11
147.343
 21
84.4918
  0
LINE
  8
0
 10
147.343
 20
84.4918
 11
147.657
 21
84.4918
  0
LINE
  8
0
 10
147.657
 20
84.4918
 11
147.964
 21
84.4266
  0
LINE
  8
0
 10
147.964
 20
84.4266
 11
148.25
 21
84.299
  0
LINE
  8
0
 10
148.25
 20
84.299
 11
148.504
 21
84.1147
  0
LINE
  8
0
 10
148.504
 20
84.1147
 11
148.714
 21
83.8817
  0
LINE
  8
0
 10
148.714
 20
83.8817
 11
148.87
 21
83.6101
  0
LINE
  8
0
 10
148.87
 20
83.6101
 11
148.967
 21
83.3119
  0
LINE
  8
0
 10
148.967
 20
83.3119
 11
149
 21
83
  0
LINE
  8
0
 10
149
 20
83
 11
148.967
 21
82.6881
  0
LINE
  8
0
 10
148.967
 20
82.6881
 11
148.87
 21
82.3899
  0
LINE
  8
0
 10
148.87
 20
82.3899
 11
148.714
 21
82.1183
  0
LINE
  8
0
 10
148.714
 20
82.1183
 11
148.504
 21
81.8853
  0
LINE
  8
0
 10
148.504
 20
81.8853
 11
148.25
 21
81.701
  0
LINE
  8
0
 10
148.25
 20
81.701
 11
147.964
 21
81.5734
  0
LINE
  8
0
 10
147.964
 20
81.5734
 11
147.657
 21
81.5082
  0
LINE
  8
0
 10
147.657
 20
81.5082
 11
147.343
 21
81.5082
  0
LINE
  8
0
 10
97.3432
 20
81.5082
 11
97.0365
 21
81.5734
  0
LINE
  8
0
 10
97.0365
 20
81.5734
 11
96.75
 21
81.701
  0
LINE
  8
0
 10
96.75
 20
81.701
 11
96.4963
 21
81.8853
  0
LINE
  8
0
 10
96.4963
 20
81.8853
 11
96.2865
 21
82.1183
  0
LINE
  8
0
 10
96.2865
 20
82.1183
 11
96.1297
 21
82.3899
  0
LINE
  8
0
 10
96.1297
 20
82.3899
 11
96.0328
 21
82.6881
  0
LINE
  8
0
 10
96.0328
 20
82.6881
 11
96
 21
83
  0
LINE
  8
0
 10
96
 20
83
 11
96.0328
 21
83.3119
  0
LINE
  8
0
 10
96.0328
 20
83.3119
 11
96.1297
 21
83.6101
  0
LINE
  8
0
 10
96.1297
 20
83.6101
 11
96.2865
 21
83.8817
  0
LINE
  8
0
 10
96.2865
 20
83.8817
 11
96.4963
 21
84.1147
  0
LINE
  8
0
 10
96.4963
 20
84.1147
 11
96.75
 21
84.299
  0
LINE
  8
0
 10
96.75
 20
84.299
 11
97.0365
 21
84.4266
  0
LINE
  8
0
 10
97.0365
 20
84.4266
 11
97.3432
 21
84.4918
  0
LINE
  8
0
 10
97.3432
 20
84.4918
 11
97.6568
 21
84.4918
  0
LINE
  8
0
 10
97.6568
 20
84.4918
 11
97.9635
 21
84.4266
  0
LINE
  8
0
 10
97.9635
 20
84.4266
 11
98.25
 21
84.299
  0
LINE
  8
0
 10
98.25
 20
84.299
 11
98.5037
 21
84.1147
  0
LINE
  8
0
 10
98.5037
 20
84.1147
 11
98.7135
 21
83.8817
  0
LINE
  8
0
 10
98.7135
 20
83.8817
 11
98.8703
 21
83.6101
  0
LINE
  8
0
 10
98.8703
 20
83.6101
 11
98.9672
 21
83.3119
  0
LINE
  8
0
 10
98.9672
 20
83.3119
 11
99
 21
83
  0
LINE
  8
0
 10
99
 20
83
 11
98.9672
 21
82.6881
  0
LINE
  8
0
 10
98.9672
 20
82.6881
 11
98.8703
 21
82.3899
  0
LINE
  8
0
 10
98.8703
 20
82.3899
 11
98.7135
 21
82.1183
  0
LINE
  8
0
 10
98.7135
 20
82.1183
 11
98.5037
 21
81.8853
  0
LINE
  8
0
 10
98.5037
 20
81.8853
 11
98.25
 21
81.701
  0
LINE
  8
0
 10
98.25
 20
81.701
 11
97.9635
 21
81.5734
  0
LINE
  8
0
 10
97.9635
 20
81.5734
 11
97.6568
 21
81.5082
  0
LINE
  8
0
 10
97.6568
 20
81.5082
 11
97.3432
 21
81.5082
  0
LINE
  8
0
 10
247.343
 20
81.5082
 11
247.036
 21
81.5734
  0
LINE
  8
0
 10
247.036
 20
81.5734
 11
246.75
 21
81.701
  0
LINE
  8
0
 10
246.75
 20
81.701
 11
246.496
 21
81.8853
  0
LINE
  8
0
 10
246.496
 20
81.8853
 11
246.286
 21
82.1183
  0
LINE
  8
0
 10
246.286
 20
82.1183
 11
246.13
 21
82.3899
  0
LINE
  8
0
 10
246.13
 20
82.3899
 11
246.033
 21
82.6881
  0
LINE
  8
0
 10
246.033
 20
82.6881
 11
246
 21
83
  0
LINE
  8
0
 10
246
 20
83
 11
246.033
 21
83.3119
  0
LINE
  8
0
 10
246.033
 20
83.3119
 11
246.13
 21
83.6101
  0
LINE
  8
0
 10
246.13
 20
83.6101
 11
246.286
 21
83.8817
  0
LINE
  8
0
 10
246.286
 20
83.8817
 11
246.496
 21
84.1147
  0
LINE
  8
0
 10
246.496
 20
84.1147
 11
246.75
 21
84.299
  0
LINE
  8
0
 10
246.75
 20
84.299
 11
247.036
 21
84.4266
  0
LINE
  8
0
 10
247.036
 20
84.4266
 11
247.343
 21
84.4918
  0
LINE
  8
0
 10
247.343
 20
84.4918
 11
247.657
 21
84.4918
  0
LINE
  8
0
 10
247.657
 20
84.4918
 11
247.964
 21
84.4266
  0
LINE
  8
0
 10
247.964
 20
84.4266
 11
248.25
 21
84.299
  0
LINE
  8
0
 10
248.25
 20
84.299
 11
248.504
 21
84.1147
  0
LINE
  8
0
 10
248.504
 20
84.1147
 11
248.714
 21
83.8817
  0
LINE
  8
0
 10
248.714
 20
83.8817
 11
248.87
 21
83.6101
  0
LINE
  8
0
 10
248.87
 20
83.6101
 11
248.967
 21
83.3119
  0
LINE
  8
0
 10
248.967
 20
83.3119
 11
249
 21
83
  0
LINE
  8
0
 10
249
 20
83
 11
248.967
 21
82.6881
  0
LINE
  8
0
 10
248.967
 20
82.6881
 11
248.87
 21
82.3899
  0
LINE
  8
0
 10
248.87
 20
82.3899
 11
248.714
 21
82.1183
  0
LINE
  8
0
 10
248.714
 20
82.1183
 11
248.504
 21
81.8853
  0
LINE
  8
0
 10
248.504
 20
81.8853
 11
248.25
 21
81.701
  0
LINE
  8
0
 10
248.25
 20
81.701
 11
247.964
 21
81.5734
  0
LINE
  8
0
 10
247.964
 20
81.5734
 11
247.657
 21
81.5082
  0
LINE
  8
0
 10
247.657
 20
81.5082
 11
247.343
 21
81.5082
  0
LINE
  8
0
 10
297.343
 20
81.5082
 11
297.036
 21
81.5734
  0
LINE
  8
0
 10
297.036
 20
81.5734
 11
296.75
 21
81.701
  0
LINE
  8
0
 10
296.75
 20
81.701
 11
296.496
 21
81.8853
  0
LINE
  8
0
 10
296.496
 20
81.8853
 11
296.286
 21
82.1183
  0
LINE
  8
0
 10
296.286
 20
82.1183
 11
296.13
 21
82.3899
  0
LINE
  8
0
 10
296.13
 20
82.3899
 11
296.033
 21
82.6881
  0
LINE
  8
0
 10
296.033
 20
82.6881
 11
296
 21
83
  0
LINE
  8
0
 10
296
 20
83
 11
296.033
 21
83.3119
  0
LINE
  8
0
 10
296.033
 20
83.3119
 11
296.13
 21
83.6101
  0
LINE
  8
0
 10
296.13
 20
83.6101
 11
296.286
 21
83.8817
  0
LINE
  8
0
 10
296.286
 20
83.8817
 11
296.496
 21
84.1147
  0
LINE
  8
0
 10
296.496
 20
84.1147
 11
296.75
 21
84.299
  0
LINE
  8
0
 10
296.75
 20
84.299
 11
297.036
 21
84.4266
  0
LINE
  8
0
 10
297.036
 20
84.4266
 11
297.343
 21
84.4918
  0
LINE
  8
0
 10
297.343
 20
84.4918
 11
297.657
 21
84.4918
  0
LINE
  8
0
 10
297.657
 20
84.4918
 11
297.964
 21
84.4266
  0
LINE
  8
0
 10
297.964
 20
84.4266
 11
298.25
 21
84.299
  0
LINE
  8
0
 10
298.25
 20
84.299
 11
298.504
 21
84.1147
  0
LINE
  8
0
 10
298.504
 20
84.1147
 11
298.714
 21
83.8817
  0
LINE
  8
0
 10
298.714
 20
83.8817
 11
298.87
 21
83.6101
  0
LINE
  8
0
 10
298.87
 20
83.6101
 11
298.967
 21
83.3119
  0
LINE
  8
0
 10
298.967
 20
83.3119
 11
299
 21
83
  0
LINE
  8
0
 10
299
 20
83
 11
298.967
 21
82.6881
  0
LINE
  8
0
 10
298.967
 20
82.6881
 11
298.87
 21
82.3899
  0
LINE
  8
0
 10
298.87
 20
82.3899
 11
298.714
 21
82.1183
  0
LINE
  8
0
 10
298.714
 20
82.1183
 11
298.504
 21
81.8853
  0
LINE
  8
0
 10
298.504
 20
81.8853
 11
298.25
 21
81.701
  0
LINE
  8
0
 10
298.25
 20
81.701
 11
297.964
 21
81.5734
  0
LINE
  8
0
 10
297.964
 20
81.5734
 11
297.657
 21
81.5082
  0
LINE
  8
0
 10
297.657
 20
81.5082
 11
297.343
 21
81.5082
  0
LINE
  8
0
 10
197.343
 20
81.5082
 11
197.036
 21
81.5734
  0
LINE
  8
0
 10
197.036
 20
81.5734
 11
196.75
 21
81.701
  0
LINE
  8
0
 10
196.75
 20
81.701
 11
196.496
 21
81.8853
  0
LINE
  8
0
 10
196.496
 20
81.8853
 11
196.286
 21
82.1183
  0
LINE
  8
0
 10
196.286
 20
82.1183
 11
196.13
 21
82.3899
  0
LINE
  8
0
 10
196.13
 20
82.3899
 11
196.033
 21
82.6881
  0
LINE
  8
0
 10
196.033
 20
82.6881
 11
196
 21
83
  0
LINE
  8
0
 10
196
 20
83
 11
196.033
 21
83.3119
  0
LINE
  8
0
 10
196.033
 20
83.3119
 11
196.13
 21
83.6101
  0
LINE
  8
0
 10
196.13
 20
83.6101
 11
196.286
 21
83.8817
  0
LINE
  8
0
 10
196.286
 20
83.8817
 11
196.496
 21
84.1147
  0
LINE
  8
0
 10
196.496
 20
84.1147
 11
196.75
 21
84.299
  0
LINE
  8
0
 10
196.75
 20
84.299
 11
197.036
 21
84.4266
  0
LINE
  8
0
 10
197.036
 20
84.4266
 11
197.343
 21
84.4918
  0
LINE
  8
0
 10
197.343
 20
84.4918
 11
197.657
 21
84.4918
  0
LINE
  8
0
 10
197.657
 20
84.4918
 11
197.964
 21
84.4266
  0
LINE
  8
0
 10
197.964
 20
84.4266
 11
198.25
 21
84.299
  0
LINE
  8
0
 10
198.25
 20
84.299
 11
198.504
 21
84.1147
  0
LINE
  8
0
 10
198.504
 20
84.1147
 11
198.714
 21
83.8817
  0
LINE
  8
0
 10
198.714
 20
83.8817
 11
198.87
 21
83.6101
  0
LINE
  8
0
 10
198.87
 20
83.6101
 11
198.967
 21
83.3119
  0
LINE
  8
0
 10
198.967
 20
83.3119
 11
199
 21
83
  0
LINE
  8
0
 10
199
 20
83
 11
198.967
 21
82.6881
  0
LINE
  8
0
 10
198.967
 20
82.6881
 11
198.87
 21
82.3899
  0
LINE
  8
0
 10
198.87
 20
82.3899
 11
198.714
 21
82.1183
  0
LINE
  8
0
 10
198.714
 20
82.1183
 11
198.504
 21
81.8853
  0
LINE
  8
0
 10
198.504
 20
81.8853
 11
198.25
 21
81.701
  0
LINE
  8
0
 10
198.25
 20
81.701
 11
197.964
 21
81.5734
  0
LINE
  8
0
 10
197.964
 20
81.5734
 11
197.657
 21
81.5082
  0
LINE
  8
0
 10
197.657
 20
81.5082
 11
197.343
 21
81.5082
  0
LINE
  8
0
 10
47.3432
 20
73.5082
 11
47.0365
 21
73.5734
  0
LINE
  8
0
 10
47.0365
 20
73.5734
 11
46.75
 21
73.701
  0
LINE
  8
0
 10
46.75
 20
73.701
 11
46.4963
 21
73.8853
  0
LINE
  8
0
 10
46.4963
 20
73.8853
 11
46.2865
 21
74.1183
  0
LINE
  8
0
 10
46.2865
 20
74.1183
 11
46.1297
 21
74.3899
  0
LINE
  8
0
 10
46.1297
 20
74.3899
 11
46.0328
 21
74.6881
  0
LINE
  8
0
 10
46.0328
 20
74.6881
 11
46
 21
75
  0
LINE
  8
0
 10
46
 20
75
 11
46.0328
 21
75.3119
  0
LINE
  8
0
 10
46.0328
 20
75.3119
 11
46.1297
 21
75.6101
  0
LINE
  8
0
 10
46.1297
 20
75.6101
 11
46.2865
 21
75.8817
  0
LINE
  8
0
 10
46.2865
 20
75.8817
 11
46.4963
 21
76.1147
  0
LINE
  8
0
 10
46.4963
 20
76.1147
 11
46.75
 21
76.299
  0
LINE
  8
0
 10
46.75
 20
76.299
 11
47.0365
 21
76.4266
  0
LINE
  8
0
 10
47.0365
 20
76.4266
 11
47.3432
 21
76.4918
  0
LINE
  8
0
 10
47.3432
 20
76.4918
 11
47.6568
 21
76.4918
  0
LINE
  8
0
 10
47.6568
 20
76.4918
 11
47.9635
 21
76.4266
  0
LINE
  8
0
 10
47.9635
 20
76.4266
 11
48.25
 21
76.299
  0
LINE
  8
0
 10
48.25
 20
76.299
 11
48.5037
 21
76.1147
  0
LINE
  8
0
 10
48.5037
 20
76.1147
 11
48.7135
 21
75.8817
  0
LINE
  8
0
 10
48.7135
 20
75.8817
 11
48.8703
 21
75.6101
  0
LINE
  8
0
 10
48.8703
 20
75.6101
 11
48.9672
 21
75.3119
  0
LINE
  8
0
 10
48.9672
 20
75.3119
 11
49
 21
75
  0
LINE
  8
0
 10
49
 20
75
 11
48.9672
 21
74.6881
  0
LINE
  8
0
 10
48.9672
 20
74.6881
 11
48.8703
 21
74.3899
  0
LINE
  8
0
 10
48.8703
 20
74.3899
 11
48.7135
 21
74.1183
  0
LINE
  8
0
 10
48.7135
 20
74.1183
 11
48.5037
 21
73.8853
  0
LINE
  8
0
 10
48.5037
 20
73.8853
 11
48.25
 21
73.701
  0
LINE
  8
0
 10
48.25
 20
73.701
 11
47.9635
 21
73.5734
  0
LINE
  8
0
 10
47.9635
 20
73.5734
 11
47.6568
 21
73.5082
  0
LINE
  8
0
 10
47.6568
 20
73.5082
 11
47.3432
 21
73.5082
  0
LINE
  8
0
 10
392.343
 20
73.5082
 11
392.036
 21
73.5734
  0
LINE
  8
0
 10
392.036
 20
73.5734
 11
391.75
 21
73.701
  0
LINE
  8
0
 10
391.75
 20
73.701
 11
391.496
 21
73.8853
  0
LINE
  8
0
 10
391.496
 20
73.8853
 11
391.286
 21
74.1183
  0
LINE
  8
0
 10
391.286
 20
74.1183
 11
391.13
 21
74.3899
  0
LINE
  8
0
 10
391.13
 20
74.3899
 11
391.033
 21
74.6881
  0
LINE
  8
0
 10
391.033
 20
74.6881
 11
391
 21
75
  0
LINE
  8
0
 10
391
 20
75
 11
391.033
 21
75.3119
  0
LINE
  8
0
 10
391.033
 20
75.3119
 11
391.13
 21
75.6101
  0
LINE
  8
0
 10
391.13
 20
75.6101
 11
391.286
 21
75.8817
  0
LINE
  8
0
 10
391.286
 20
75.8817
 11
391.496
 21
76.1147
  0
LINE
  8
0
 10
391.496
 20
76.1147
 11
391.75
 21
76.299
  0
LINE
  8
0
 10
391.75
 20
76.299
 11
392.036
 21
76.4266
  0
LINE
  8
0
 10
392.036
 20
76.4266
 11
392.343
 21
76.4918
  0
LINE
  8
0
 10
392.343
 20
76.4918
 11
392.657
 21
76.4918
  0
LINE
  8
0
 10
392.657
 20
76.4918
 11
392.964
 21
76.4266
  0
LINE
  8
0
 10
392.964
 20
76.4266
 11
393.25
 21
76.299
  0
LINE
  8
0
 10
393.25
 20
76.299
 11
393.504
 21
76.1147
  0
LINE
  8
0
 10
393.504
 20
76.1147
 11
393.714
 21
75.8817
  0
LINE
  8
0
 10
393.714
 20
75.8817
 11
393.87
 21
75.6101
  0
LINE
  8
0
 10
393.87
 20
75.6101
 11
393.967
 21
75.3119
  0
LINE
  8
0
 10
393.967
 20
75.3119
 11
394
 21
75
  0
LINE
  8
0
 10
394
 20
75
 11
393.967
 21
74.6881
  0
LINE
  8
0
 10
393.967
 20
74.6881
 11
393.87
 21
74.3899
  0
LINE
  8
0
 10
393.87
 20
74.3899
 11
393.714
 21
74.1183
  0
LINE
  8
0
 10
393.714
 20
74.1183
 11
393.504
 21
73.8853
  0
LINE
  8
0
 10
393.504
 20
73.8853
 11
393.25
 21
73.701
  0
LINE
  8
0
 10
393.25
 20
73.701
 11
392.964
 21
73.5734
  0
LINE
  8
0
 10
392.964
 20
73.5734
 11
392.657
 21
73.5082
  0
LINE
  8
0
 10
392.657
 20
73.5082
 11
392.343
 21
73.5082
  0
LINE
  8
0
 10
269.87
 20
187.39
 11
269.714
 21
187.118
  0
LINE
  8
0
 10
269.714
 20
187.118
 11
269.504
 21
186.885
  0
LINE
  8
0
 10
269.504
 20
186.885
 11
269.25
 21
186.701
  0
LINE
  8
0
 10
269.25
 20
186.701
 11
268.964
 21
186.573
  0
LINE
  8
0
 10
268.964
 20
186.573
 11
268.657
 21
186.508
  0
LINE
  8
0
 10
268.657
 20
186.508
 11
268.343
 21
186.508
  0
LINE
  8
0
 10
268.343
 20
186.508
 11
268.036
 21
186.573
  0
LINE
  8
0
 10
268.036
 20
186.573
 11
267.75
 21
186.701
  0
LINE
  8
0
 10
267.75
 20
186.701
 11
267.496
 21
186.885
  0
LINE
  8
0
 10
267.496
 20
186.885
 11
267.286
 21
187.118
  0
LINE
  8
0
 10
267.286
 20
187.118
 11
267.13
 21
187.39
  0
LINE
  8
0
 10
267.13
 20
187.39
 11
267.033
 21
187.688
  0
LINE
  8
0
 10
267.033
 20
187.688
 11
267
 21
188
  0
LINE
  8
0
 10
267
 20
188
 11
267.033
 21
188.312
  0
LINE
  8
0
 10
267.033
 20
188.312
 11
267.13
 21
188.61
  0
LINE
  8
0
 10
267.13
 20
188.61
 11
267.286
 21
188.882
  0
LINE
  8
0
 10
267.286
 20
188.882
 11
267.496
 21
189.115
  0
LINE
  8
0
 10
267.496
 20
189.115
 11
267.75
 21
189.299
  0
LINE
  8
0
 10
267.75
 20
189.299
 11
268.036
 21
189.427
  0
LINE
  8
0
 10
268.036
 20
189.427
 11
268.343
 21
189.492
  0
LINE
  8
0
 10
268.343
 20
189.492
 11
268.657
 21
189.492
  0
LINE
  8
0
 10
268.657
 20
189.492
 11
268.964
 21
189.427
  0
LINE
  8
0
 10
268.964
 20
189.427
 11
269.25
 21
189.299
  0
LINE
  8
0
 10
269.25
 20
189.299
 11
269.504
 21
189.115
  0
LINE
  8
0
 10
269.504
 20
189.115
 11
269.714
 21
188.882
  0
LINE
  8
0
 10
269.714
 20
188.882
 11
269.87
 21
188.61
  0
LINE
  8
0
 10
269.87
 20
188.61
 11
269.967
 21
188.312
  0
LINE
  8
0
 10
269.967
 20
188.312
 11
270
 21
188
  0
LINE
  8
0
 10
270
 20
188
 11
269.967
 21
187.688
  0
LINE
  8
0
 10
269.967
 20
187.688
 11
269.87
 21
187.39
  0
ENDSEC
  0
SECTION
  2
OBJECTS
  0
DICTIONARY
  0
ENDSEC
  0
EOF
