<?xml version="1.0" standalone="no"?>
<!DOCTYPE svg PUBLIC "-//W3C//DTD SVG 1.1//EN" "http://www.w3.org/Graphics/SVG/1.1/DTD/svg11.dtd">
<svg width="326" height="155" viewBox="57 -243 326 155" xmlns="http://www.w3.org/2000/svg" version="1.1">
<title>OpenSCAD Model</title>
<path d="
M 382.5,-243 L 57.5,-243 L 57.5,-88 L 382.5,-88 z
M 197.343,-234.908 L 197.036,-234.973 L 196.75,-235.101 L 196.496,-235.285 L 196.286,-235.518 L 196.13,-235.79
 L 196.033,-236.088 L 196,-236.4 L 196.033,-236.712 L 196.13,-237.01 L 196.286,-237.282 L 196.496,-237.515
 L 196.75,-237.699 L 197.036,-237.827 L 197.343,-237.892 L 197.657,-237.892 L 197.964,-237.827 L 198.25,-237.699
 L 198.504,-237.515 L 198.714,-237.282 L 198.87,-237.01 L 198.967,-236.712 L 199,-236.4 L 198.967,-236.088
 L 198.87,-235.79 L 198.714,-235.518 L 198.504,-235.285 L 198.25,-235.101 L 197.964,-234.973 L 197.657,-234.908
 z
M 347.343,-234.908 L 347.036,-234.973 L 346.75,-235.101 L 346.496,-235.285 L 346.286,-235.518 L 346.13,-235.79
 L 346.033,-236.088 L 346,-236.4 L 346.033,-236.712 L 346.13,-237.01 L 346.286,-237.282 L 346.496,-237.515
 L 346.75,-237.699 L 347.036,-237.827 L 347.343,-237.892 L 347.657,-237.892 L 347.964,-237.827 L 348.25,-237.699
 L 348.504,-237.515 L 348.714,-237.282 L 348.87,-237.01 L 348.967,-236.712 L 349,-236.4 L 348.967,-236.088
 L 348.87,-235.79 L 348.714,-235.518 L 348.504,-235.285 L 348.25,-235.101 L 347.964,-234.973 L 347.657,-234.908
 z
M 247.343,-234.908 L 247.036,-234.973 L 246.75,-235.101 L 246.496,-235.285 L 246.286,-235.518 L 246.13,-235.79
 L 246.033,-236.088 L 246,-236.4 L 246.033,-236.712 L 246.13,-237.01 L 246.286,-237.282 L 246.496,-237.515
 L 246.75,-237.699 L 247.036,-237.827 L 247.343,-237.892 L 247.657,-237.892 L 247.964,-237.827 L 248.25,-237.699
 L 248.504,-237.515 L 248.714,-237.282 L 248.87,-237.01 L 248.967,-236.712 L 249,-236.4 L 248.967,-236.088
 L 248.87,-235.79 L 248.714,-235.518 L 248.504,-235.285 L 248.25,-235.101 L 247.964,-234.973 L 247.657,-234.908
 z
M 147.343,-234.908 L 147.036,-234.973 L 146.75,-235.101 L 146.496,-235.285 L 146.286,-235.518 L 146.13,-235.79
 L 146.033,-236.088 L 146,-236.4 L 146.033,-236.712 L 146.13,-237.01 L 146.286,-237.282 L 146.496,-237.515
 L 146.75,-237.699 L 147.036,-237.827 L 147.343,-237.892 L 147.657,-237.892 L 147.964,-237.827 L 148.25,-237.699
 L 148.504,-237.515 L 148.714,-237.282 L 148.87,-237.01 L 148.967,-236.712 L 149,-236.4 L 148.967,-236.088
 L 148.87,-235.79 L 148.714,-235.518 L 148.504,-235.285 L 148.25,-235.101 L 147.964,-234.973 L 147.657,-234.908
 z
M 97.3432,-234.908 L 97.0365,-234.973 L 96.75,-235.101 L 96.4963,-235.285 L 96.2865,-235.518 L 96.1297,-235.79
 L 96.0328,-236.088 L 96,-236.4 L 96.0328,-236.712 L 96.1297,-237.01 L 96.2865,-237.282 L 96.4963,-237.515
 L 96.75,-237.699 L 97.0365,-237.827 L 97.3432,-237.892 L 97.6568,-237.892 L 97.9635,-237.827 L 98.25,-237.699
 L 98.5037,-237.515 L 98.7135,-237.282 L 98.8703,-237.01 L 98.9672,-236.712 L 99,-236.4 L 98.9672,-236.088
 L 98.8703,-235.79 L 98.7135,-235.518 L 98.5037,-235.285 L 98.25,-235.101 L 97.9635,-234.973 L 97.6568,-234.908
 z
M 297.343,-234.908 L 297.036,-234.973 L 296.75,-235.101 L 296.496,-235.285 L 296.286,-235.518 L 296.13,-235.79
 L 296.033,-236.088 L 296,-236.4 L 296.033,-236.712 L 296.13,-237.01 L 296.286,-237.282 L 296.496,-237.515
 L 296.75,-237.699 L 297.036,-237.827 L 297.343,-237.892 L 297.657,-237.892 L 297.964,-237.827 L 298.25,-237.699
 L 298.504,-237.515 L 298.714,-237.282 L 298.87,-237.01 L 298.967,-236.712 L 299,-236.4 L 298.967,-236.088
 L 298.87,-235.79 L 298.714,-235.518 L 298.504,-235.285 L 298.25,-235.101 L 297.964,-234.973 L 297.657,-234.908
 z
M 268.343,-234.508 L 268.036,-234.573 L 267.75,-234.701 L 267.496,-234.885 L 267.286,-235.118 L 267.13,-235.39
 L 267.033,-235.688 L 267,-236 L 267.033,-236.312 L 267.13,-236.61 L 267.286,-236.882 L 267.496,-237.115
 L 267.75,-237.299 L 268.036,-237.427 L 268.343,-237.492 L 268.657,-237.492 L 268.964,-237.427 L 269.25,-237.299
 L 269.504,-237.115 L 269.714,-236.882 L 269.87,-236.61 L 269.967,-236.312 L 270,-236 L 269.967,-235.688
 L 269.87,-235.39 L 269.714,-235.118 L 269.504,-234.885 L 269.25,-234.701 L 268.964,-234.573 L 268.657,-234.508
 z
M 370.343,-234.508 L 370.036,-234.573 L 369.75,-234.701 L 369.496,-234.885 L 369.286,-235.118 L 369.13,-235.39
 L 369.033,-235.688 L 369,-236 L 369.033,-236.312 L 369.13,-236.61 L 369.286,-236.882 L 369.496,-237.115
 L 369.75,-237.299 L 370.036,-237.427 L 370.343,-237.492 L 370.657,-237.492 L 370.964,-237.427 L 371.25,-237.299
 L 371.504,-237.115 L 371.714,-236.882 L 371.87,-236.61 L 371.967,-236.312 L 372,-236 L 371.967,-235.688
 L 371.87,-235.39 L 371.714,-235.118 L 371.504,-234.885 L 371.25,-234.701 L 370.964,-234.573 L 370.657,-234.508
 z
M 168.343,-234.508 L 168.036,-234.573 L 167.75,-234.701 L 167.496,-234.885 L 167.286,-235.118 L 167.13,-235.39
 L 167.033,-235.688 L 167,-236 L 167.033,-236.312 L 167.13,-236.61 L 167.286,-236.882 L 167.496,-237.115
 L 167.75,-237.299 L 168.036,-237.427 L 168.343,-237.492 L 168.657,-237.492 L 168.964,-237.427 L 169.25,-237.299
 L 169.504,-237.115 L 169.714,-236.882 L 169.87,-236.61 L 169.967,-236.312 L 170,-236 L 169.967,-235.688
 L 169.87,-235.39 L 169.714,-235.118 L 169.504,-234.885 L 169.25,-234.701 L 168.964,-234.573 L 168.657,-234.508
 z
M 67.3432,-234.508 L 67.0365,-234.573 L 66.75,-234.701 L 66.4963,-234.885 L 66.2865,-235.118 L 66.1297,-235.39
 L 66.0328,-235.688 L 66,-236 L 66.0328,-236.312 L 66.1297,-236.61 L 66.2865,-236.882 L 66.4963,-237.115
 L 66.75,-237.299 L 67.0365,-237.427 L 67.3432,-237.492 L 67.6568,-237.492 L 67.9635,-237.427 L 68.25,-237.299
 L 68.5037,-237.115 L 68.7135,-236.882 L 68.8703,-236.61 L 68.9672,-236.312 L 69,-236 L 68.9672,-235.688
 L 68.8703,-235.39 L 68.7135,-235.118 L 68.5037,-234.885 L 68.25,-234.701 L 67.9635,-234.573 L 67.6568,-234.508
 z
M 369.13,-188.61 L 369.286,-188.882 L 369.496,-189.115 L 369.75,-189.299 L 370.036,-189.427 L 370.343,-189.492
 L 370.657,-189.492 L 370.964,-189.427 L 371.25,-189.299 L 371.504,-189.115 L 371.714,-188.882 L 371.87,-188.61
 L 371.967,-188.312 L 372,-188 L 371.967,-187.688 L 371.87,-187.39 L 371.714,-187.118 L 371.504,-186.885
 L 371.25,-186.701 L 370.964,-186.573 L 370.657,-186.508 L 370.343,-186.508 L 370.036,-186.573 L 369.75,-186.701
 L 369.496,-186.885 L 369.286,-187.118 L 369.13,-187.39 L 369.033,-187.688 L 369,-188 L 369.033,-188.312
 z
M 167.13,-188.61 L 167.286,-188.882 L 167.496,-189.115 L 167.75,-189.299 L 168.036,-189.427 L 168.343,-189.492
 L 168.657,-189.492 L 168.964,-189.427 L 169.25,-189.299 L 169.504,-189.115 L 169.714,-188.882 L 169.87,-188.61
 L 169.967,-188.312 L 170,-188 L 169.967,-187.688 L 169.87,-187.39 L 169.714,-187.118 L 169.504,-186.885
 L 169.25,-186.701 L 168.964,-186.573 L 168.657,-186.508 L 168.343,-186.508 L 168.036,-186.573 L 167.75,-186.701
 L 167.496,-186.885 L 167.286,-187.118 L 167.13,-187.39 L 167.033,-187.688 L 167,-188 L 167.033,-188.312
 z
M 97.3432,-133.508 L 97.0365,-133.573 L 96.75,-133.701 L 96.4963,-133.885 L 96.2865,-134.118 L 96.1297,-134.39
 L 96.0328,-134.688 L 96,-135 L 96.0328,-135.312 L 96.1297,-135.61 L 96.2865,-135.882 L 96.4963,-136.115
 L 96.75,-136.299 L 97.0365,-136.427 L 97.3432,-136.492 L 97.6568,-136.492 L 97.9635,-136.427 L 98.25,-136.299
 L 98.5037,-136.115 L 98.7135,-135.882 L 98.8703,-135.61 L 98.9672,-135.312 L 99,-135 L 98.9672,-134.688
 L 98.8703,-134.39 L 98.7135,-134.118 L 98.5037,-133.885 L 98.25,-133.701 L 97.9635,-133.573 L 97.6568,-133.508
 z
M 268.343,-133.508 L 268.036,-133.573 L 267.75,-133.701 L 267.496,-133.885 L 267.286,-134.118 L 267.13,-134.39
 L 267.033,-134.688 L 267,-135 L 267.033,-135.312 L 267.13,-135.61 L 267.286,-135.882 L 267.496,-136.115
 L 267.75,-136.299 L 268.036,-136.427 L 268.343,-136.492 L 268.657,-136.492 L 268.964,-136.427 L 269.25,-136.299
 L 269.504,-136.115 L 269.714,-135.882 L 269.87,-135.61 L 269.967,-135.312 L 270,-135 L 269.967,-134.688
 L 269.87,-134.39 L 269.714,-134.118 L 269.504,-133.885 L 269.25,-133.701 L 268.964,-133.573 L 268.657,-133.508
 z
M 347.343,-133.508 L 347.036,-133.573 L 346.75,-133.701 L 346.496,-133.885 L 346.286,-134.118 L 346.13,-134.39
 L 346.033,-134.688 L 346,-135 L 346.033,-135.312 L 346.13,-135.61 L 346.286,-135.882 L 346.496,-136.115
 L 346.75,-136.299 L 347.036,-136.427 L 347.343,-136.492 L 347.657,-136.492 L 347.964,-136.427 L 348.25,-136.299
 L 348.504,-136.115 L 348.714,-135.882 L 348.87,-135.61 L 348.967,-135.312 L 349,-135 L 348.967,-134.688
 L 348.87,-134.39 L 348.714,-134.118 L 348.504,-133.885 L 348.25,-133.701 L 347.964,-133.573 L 347.657,-133.508
 z
M 370.343,-133.508 L 370.036,-133.573 L 369.75,-133.701 L 369.496,-133.885 L 369.286,-134.118 L 369.13,-134.39
 L 369.033,-134.688 L 369,-135 L 369.033,-135.312 L 369.13,-135.61 L 369.286,-135.882 L 369.496,-136.115
 L 369.75,-136.299 L 370.036,-136.427 L 370.343,-136.492 L 370.657,-136.492 L 370.964,-136.427 L 371.25,-136.299
 L 371.504,-136.115 L 371.714,-135.882 L 371.87,-135.61 L 371.967,-135.312 L 372,-135 L 371.967,-134.688
 L 371.87,-134.39 L 371.714,-134.118 L 371.504,-133.885 L 371.25,-133.701 L 370.964,-133.573 L 370.657,-133.508
 z
M 147.343,-133.508 L 147.036,-133.573 L 146.75,-133.701 L 146.496,-133.885 L 146.286,-134.118 L 146.13,-134.39
 L 146.033,-134.688 L 146,-135 L 146.033,-135.312 L 146.13,-135.61 L 146.286,-135.882 L 146.496,-136.115
 L 146.75,-136.299 L 147.036,-136.427 L 147.343,-136.492 L 147.657,-136.492 L 147.964,-136.427 L 148.25,-136.299
 L 148.504,-136.115 L 148.714,-135.882 L 148.87,-135.61 L 148.967,-135.312 L 149,-135 L 148.967,-134.688
 L 148.87,-134.39 L 148.714,-134.118 L 148.504,-133.885 L 148.25,-133.701 L 147.964,-133.573 L 147.657,-133.508
 z
M 247.343,-133.508 L 247.036,-133.573 L 246.75,-133.701 L 246.496,-133.885 L 246.286,-134.118 L 246.13,-134.39
 L 246.033,-134.688 L 246,-135 L 246.033,-135.312 L 246.13,-135.61 L 246.286,-135.882 L 246.496,-136.115
 L 246.75,-136.299 L 247.036,-136.427 L 247.343,-136.492 L 247.657,-136.492 L 247.964,-136.427 L 248.25,-136.299
 L 248.504,-136.115 L 248.714,-135.882 L 248.87,-135.61 L 248.967,-135.312 L 249,-135 L 248.967,-134.688
 L 248.87,-134.39 L 248.714,-134.118 L 248.504,-133.885 L 248.25,-133.701 L 247.964,-133.573 L 247.657,-133.508
 z
M 67.3432,-133.508 L 67.0365,-133.573 L 66.75,-133.701 L 66.4963,-133.885 L 66.2865,-134.118 L 66.1297,-134.39
 L 66.0328,-134.688 L 66,-135 L 66.0328,-135.312 L 66.1297,-135.61 L 66.2865,-135.882 L 66.4963,-136.115
 L 66.75,-136.299 L 67.0365,-136.427 L 67.3432,-136.492 L 67.6568,-136.492 L 67.9635,-136.427 L 68.25,-136.299
 L 68.5037,-136.115 L 68.7135,-135.882 L 68.8703,-135.61 L 68.9672,-135.312 L 69,-135 L 68.9672,-134.688
 L 68.8703,-134.39 L 68.7135,-134.118 L 68.5037,-133.885 L 68.25,-133.701 L 67.9635,-133.573 L 67.6568,-133.508
 z
M 297.343,-133.508 L 297.036,-133.573 L 296.75,-133.701 L 296.496,-133.885 L 296.286,-134.118 L 296.13,-134.39
 L 296.033,-134.688 L 296,-135 L 296.033,-135.312 L 296.13,-135.61 L 296.286,-135.882 L 296.496,-136.115
 L 296.75,-136.299 L 297.036,-136.427 L 297.343,-136.492 L 297.657,-136.492 L 297.964,-136.427 L 298.25,-136.299
 L 298.504,-136.115 L 298.714,-135.882 L 298.87,-135.61 L 298.967,-135.312 L 299,-135 L 298.967,-134.688
 L 298.87,-134.39 L 298.714,-134.118 L 298.504,-133.885 L 298.25,-133.701 L 297.964,-133.573 L 297.657,-133.508
 z
M 196.13,-135.61 L 196.286,-135.882 L 196.496,-136.115 L 196.75,-136.299 L 197.036,-136.427 L 197.343,-136.492
 L 197.657,-136.492 L 197.964,-136.427 L 198.25,-136.299 L 198.504,-136.115 L 198.714,-135.882 L 198.87,-135.61
 L 198.967,-135.312 L 199,-135 L 198.967,-134.688 L 198.87,-134.39 L 198.714,-134.118 L 198.504,-133.885
 L 198.25,-133.701 L 197.964,-133.573 L 197.657,-133.508 L 197.343,-133.508 L 197.036,-133.573 L 196.75,-133.701
 L 196.496,-133.885 L 196.286,-134.118 L 196.13,-134.39 L 196.033,-134.688 L 196,-135 L 196.033,-135.312
 z
M 345.343,-94.5082 L 345.036,-94.5734 L 344.75,-94.701 L 344.496,-94.8853 L 344.286,-95.1183 L 344.13,-95.3899
 L 344.033,-95.6881 L 344,-96 L 344.033,-96.3119 L 344.13,-96.6101 L 344.286,-96.8817 L 344.496,-97.1147
 L 344.75,-97.299 L 345.036,-97.4266 L 345.343,-97.4918 L 345.657,-97.4918 L 345.964,-97.4266 L 346.25,-97.299
 L 346.504,-97.1147 L 346.714,-96.8817 L 346.87,-96.6101 L 346.967,-96.3119 L 347,-96 L 346.967,-95.6881
 L 346.87,-95.3899 L 346.714,-95.1183 L 346.504,-94.8853 L 346.25,-94.701 L 345.964,-94.5734 L 345.657,-94.5082
 z
M 243.343,-94.5082 L 243.036,-94.5734 L 242.75,-94.701 L 242.496,-94.8853 L 242.286,-95.1183 L 242.13,-95.3899
 L 242.033,-95.6881 L 242,-96 L 242.033,-96.3119 L 242.13,-96.6101 L 242.286,-96.8817 L 242.496,-97.1147
 L 242.75,-97.299 L 243.036,-97.4266 L 243.343,-97.4918 L 243.657,-97.4918 L 243.964,-97.4266 L 244.25,-97.299
 L 244.504,-97.1147 L 244.714,-96.8817 L 244.87,-96.6101 L 244.967,-96.3119 L 245,-96 L 244.967,-95.6881
 L 244.87,-95.3899 L 244.714,-95.1183 L 244.504,-94.8853 L 244.25,-94.701 L 243.964,-94.5734 L 243.657,-94.5082
 z
M 193.343,-94.5082 L 193.036,-94.5734 L 192.75,-94.701 L 192.496,-94.8853 L 192.286,-95.1183 L 192.13,-95.3899
 L 192.033,-95.6881 L 192,-96 L 192.033,-96.3119 L 192.13,-96.6101 L 192.286,-96.8817 L 192.496,-97.1147
 L 192.75,-97.299 L 193.036,-97.4266 L 193.343,-97.4918 L 193.657,-97.4918 L 193.964,-97.4266 L 194.25,-97.299
 L 194.504,-97.1147 L 194.714,-96.8817 L 194.87,-96.6101 L 194.967,-96.3119 L 195,-96 L 194.967,-95.6881
 L 194.87,-95.3899 L 194.714,-95.1183 L 194.504,-94.8853 L 194.25,-94.701 L 193.964,-94.5734 L 193.657,-94.5082
 z
M 92.3432,-94.5082 L 92.0365,-94.5734 L 91.75,-94.701 L 91.4963,-94.8853 L 91.2865,-95.1183 L 91.1297,-95.3899
 L 91.0328,-95.6881 L 91,-96 L 91.0328,-96.3119 L 91.1297,-96.6101 L 91.2865,-96.8817 L 91.4963,-97.1147
 L 91.75,-97.299 L 92.0365,-97.4266 L 92.3432,-97.4918 L 92.6568,-97.4918 L 92.9635,-97.4266 L 93.25,-97.299
 L 93.5037,-97.1147 L 93.7135,-96.8817 L 93.8703,-96.6101 L 93.9672,-96.3119 L 94,-96 L 93.9672,-95.6881
 L 93.8703,-95.3899 L 93.7135,-95.1183 L 93.5037,-94.8853 L 93.25,-94.701 L 92.9635,-94.5734 L 92.6568,-94.5082
 z
M 268.343,-90.5082 L 268.036,-90.5734 L 267.75,-90.701 L 267.496,-90.8853 L 267.286,-91.1183 L 267.13,-91.3899
 L 267.033,-91.6881 L 267,-92 L 267.033,-92.3119 L 267.13,-92.6101 L 267.286,-92.8817 L 267.496,-93.1147
 L 267.75,-93.299 L 268.036,-93.4266 L 268.343,-93.4918 L 268.657,-93.4918 L 268.964,-93.4266 L 269.25,-93.299
 L 269.504,-93.1147 L 269.714,-92.8817 L 269.87,-92.6101 L 269.967,-92.3119 L 270,-92 L 269.967,-91.6881
 L 269.87,-91.3899 L 269.714,-91.1183 L 269.504,-90.8853 L 269.25,-90.701 L 268.964,-90.5734 L 268.657,-90.5082
 z
M 168.343,-90.5082 L 168.036,-90.5734 L 167.75,-90.701 L 167.496,-90.8853 L 167.286,-91.1183 L 167.13,-91.3899
 L 167.033,-91.6881 L 167,-92 L 167.033,-92.3119 L 167.13,-92.6101 L 167.286,-92.8817 L 167.496,-93.1147
 L 167.75,-93.299 L 168.036,-93.4266 L 168.343,-93.4918 L 168.657,-93.4918 L 168.964,-93.4266 L 169.25,-93.299
 L 169.504,-93.1147 L 169.714,-92.8817 L 169.87,-92.6101 L 169.967,-92.3119 L 170,-92 L 169.967,-91.6881
 L 169.87,-91.3899 L 169.714,-91.1183 L 169.504,-90.8853 L 169.25,-90.701 L 168.964,-90.5734 L 168.657,-90.5082
 z
M 67.3432,-90.5082 L 67.0365,-90.5734 L 66.75,-90.701 L 66.4963,-90.8853 L 66.2865,-91.1183 L 66.1297,-91.3899
 L 66.0328,-91.6881 L 66,-92 L 66.0328,-92.3119 L 66.1297,-92.6101 L 66.2865,-92.8817 L 66.4963,-93.1147
 L 66.75,-93.299 L 67.0365,-93.4266 L 67.3432,-93.4918 L 67.6568,-93.4918 L 67.9635,-93.4266 L 68.25,-93.299
 L 68.5037,-93.1147 L 68.7135,-92.8817 L 68.8703,-92.6101 L 68.9672,-92.3119 L 69,-92 L 68.9672,-91.6881
 L 68.8703,-91.3899 L 68.7135,-91.1183 L 68.5037,-90.8853 L 68.25,-90.701 L 67.9635,-90.5734 L 67.6568,-90.5082
 z
M 370.343,-90.5082 L 370.036,-90.5734 L 369.75,-90.701 L 369.496,-90.8853 L 369.286,-91.1183 L 369.13,-91.3899
 L 369.033,-91.6881 L 369,-92 L 369.033,-92.3119 L 369.13,-92.6101 L 369.286,-92.8817 L 369.496,-93.1147
 L 369.75,-93.299 L 370.036,-93.4266 L 370.343,-93.4918 L 370.657,-93.4918 L 370.964,-93.4266 L 371.25,-93.299
 L 371.504,-93.1147 L 371.714,-92.8817 L 371.87,-92.6101 L 371.967,-92.3119 L 372,-92 L 371.967,-91.6881
 L 371.87,-91.3899 L 371.714,-91.1183 L 371.504,-90.8853 L 371.25,-90.701 L 370.964,-90.5734 L 370.657,-90.5082
 z
M 68.8703,-187.39 L 68.7135,-187.118 L 68.5037,-186.885 L 68.25,-186.701 L 67.9635,-186.573 L 67.6568,-186.508
 L 67.3432,-186.508 L 67.0365,-186.573 L 66.75,-186.701 L 66.4963,-186.885 L 66.2865,-187.118 L 66.1297,-187.39
 L 66.0328,-187.688 L 66,-188 L 66.0328,-188.312 L 66.1297,-188.61 L 66.2865,-188.882 L 66.4963,-189.115
 L 66.75,-189.299 L 67.0365,-189.427 L 67.3432,-189.492 L 67.6568,-189.492 L 67.9635,-189.427 L 68.25,-189.299
 L 68.5037,-189.115 L 68.7135,-188.882 L 68.8703,-188.61 L 68.9672,-188.312 L 69,-188 L 68.9672,-187.688
 z
M 269.87,-187.39 L 269.714,-187.118 L 269.504,-186.885 L 269.25,-186.701 L 268.964,-186.573 L 268.657,-186.508
 L 268.343,-186.508 L 268.036,-186.573 L 267.75,-186.701 L 267.496,-186.885 L 267.286,-187.118 L 267.13,-187.39
 L 267.033,-187.688 L 267,-188 L 267.033,-188.312 L 267.13,-188.61 L 267.286,-188.882 L 267.496,-189.115
 L 267.75,-189.299 L 268.036,-189.427 L 268.343,-189.492 L 268.657,-189.492 L 268.964,-189.427 L 269.25,-189.299
 L 269.504,-189.115 L 269.714,-188.882 L 269.87,-188.61 L 269.967,-188.312 L 270,-188 L 269.967,-187.688
 z
M 169.87,-134.39 L 169.714,-134.118 L 169.504,-133.885 L 169.25,-133.701 L 168.964,-133.573 L 168.657,-133.508
 L 168.343,-133.508 L 168.036,-133.573 L 167.75,-133.701 L 167.496,-133.885 L 167.286,-134.118 L 167.13,-134.39
 L 167.033,-134.688 L 167,-135 L 167.033,-135.312 L 167.13,-135.61 L 167.286,-135.882 L 167.496,-136.115
 L 167.75,-136.299 L 168.036,-136.427 L 168.343,-136.492 L 168.657,-136.492 L 168.964,-136.427 L 169.25,-136.299
 L 169.504,-136.115 L 169.714,-135.882 L 169.87,-135.61 L 169.967,-135.312 L 170,-135 L 169.967,-134.688
 z
" stroke="black" fill="lightgray" stroke-width="0.5"/></svg>
