<?xml version="1.0" encoding="UTF-8" standalone="no"?>
<svg
   xmlns:dc="http://purl.org/dc/elements/1.1/"
   xmlns:cc="http://creativecommons.org/ns#"
   xmlns:rdf="http://www.w3.org/1999/02/22-rdf-syntax-ns#"
   xmlns:svg="http://www.w3.org/2000/svg"
   xmlns="http://www.w3.org/2000/svg"
   xmlns:sodipodi="http://sodipodi.sourceforge.net/DTD/sodipodi-0.dtd"
   xmlns:inkscape="http://www.inkscape.org/namespaces/inkscape"
   width="793.700787402"
   height="1122.51968504"
   version="1.1"
   id="svg4057"
   sodipodi:docname="alu_complete_left_right_resized_aluminum_bed.svg"
   inkscape:version="0.92.2 (5c3e80d, 2017-08-06)">
  <metadata
     id="metadata4061">
    <rdf:RDF>
      <cc:Work
         rdf:about="">
        <dc:format>image/svg+xml</dc:format>
        <dc:type
           rdf:resource="http://purl.org/dc/dcmitype/StillImage" />
        <dc:title></dc:title>
      </cc:Work>
    </rdf:RDF>
  </metadata>
  <sodipodi:namedview
     pagecolor="#ffffff"
     bordercolor="#666666"
     borderopacity="1"
     objecttolerance="10"
     gridtolerance="10"
     guidetolerance="10"
     inkscape:pageopacity="0"
     inkscape:pageshadow="2"
     inkscape:window-width="1920"
     inkscape:window-height="986"
     id="namedview4059"
     showgrid="false"
     inkscape:zoom="0.50000001"
     inkscape:cx="2171.707"
     inkscape:cy="834.82154"
     inkscape:window-x="-11"
     inkscape:window-y="-11"
     inkscape:window-maximized="1"
     inkscape:current-layer="g4055" />
  <desc
     id="desc3699">C:\cygwin64\home\rjdro\github_copy_dr.robotlab\dr.robotlab_library\svgs_v2\big_blue_2018\alu_complete_again.dxf - scale = 1.000000, origin = (0.000000, 0.000000), method = manual</desc>
  <defs
     id="defs3713">
    <marker
       id="DistanceX"
       orient="auto"
       refX="0.0"
       refY="0.0"
       style="overflow:visible">
      <path
         d="M 3,-3 L -3,3 M 0,-5 L  0,5"
         style="stroke:#000000; stroke-width:0.5"
         id="path3701" />
    </marker>
    <pattern
       height="8"
       id="Hatch"
       patternUnits="userSpaceOnUse"
       width="8"
       x="0"
       y="0">
      <path
         d="M8 4 l-4,4"
         linecap="square"
         stroke="#000000"
         stroke-width="0.25"
         id="path3704" />
      <path
         d="M6 2 l-4,4"
         linecap="square"
         stroke="#000000"
         stroke-width="0.25"
         id="path3706" />
      <path
         d="M4 0 l-4,4"
         linecap="square"
         stroke="#000000"
         stroke-width="0.25"
         id="path3708" />
    </pattern>
    <symbol
       id="*MODEL_SPACE" />
    <symbol
       id="*PAPER_SPACE" />
  </defs>
  <g
     inkscape:groupmode="layer"
     inkscape:label="0"
     id="g3715" />
  <g
     inkscape:groupmode="layer"
     inkscape:label="Layer_1"
     id="g4055">
    <path
       d="M 4429.267000,244.663000 L 3084.043801,244.663000 L 3084.043801,321.733659 L 3006.657800,321.733659 L 3006.657800,244.663000 L 2912.284800,244.663000 L 2897.185002,259.701249 L 2897.185002,586.781409 L 2909.453601,598.999911 L 4432.098198,598.999911 L 4441.128200,590.006710 L 4441.128200,256.475921 L 4429.267000,244.663000 z"
       style="stroke:#000000;fill:none;stroke-opacity:1;stroke-width:3.77952756;stroke-miterlimit:4;stroke-dasharray:none"
       id="path3881" />
    <path
       d="M 2945.254998,562.524408 L 2944.791300,564.715510 L 2943.873899,566.761810 L 2942.552700,568.573909 L 2940.880399,570.072911 L 2938.932499,571.192611 L 2936.796000,571.884609 L 2934.557401,572.118909 L 2932.318802,571.884609 L 2930.182299,571.192611 L 2928.234399,570.072911 L 2926.562101,568.573909 L 2925.240900,566.761810 L 2924.323499,564.715510 L 2923.859800,562.524408 L 2923.859800,560.284509 L 2924.323499,558.093411 L 2925.240900,556.047209 L 2926.562101,554.235009 L 2928.234399,552.736108 L 2930.182299,551.616408 L 2932.318802,550.924411 L 2934.557401,550.690110 L 2936.796000,550.924411 L 2938.932499,551.616408 L 2940.880399,552.736108 L 2942.552700,554.235009 L 2943.873899,556.047209 L 2944.791300,558.093411 L 2945.254998,560.284509 L 2945.254998,562.524408 z"
       style="stroke:#000000;fill:none;stroke-opacity:1;stroke-width:3.77952756;stroke-miterlimit:4;stroke-dasharray:none"
       id="path3883" />
    <path
       d="M 3037.740499,453.497700 L 3037.276898,455.688771 L 3036.359501,457.735041 L 3035.038299,459.547181 L 3033.366002,461.046100 L 3031.418101,462.165781 L 3029.281500,462.857779 L 3027.043000,463.092110 L 3024.804401,462.857779 L 3022.667902,462.165781 L 3020.719899,461.046100 L 3019.047700,459.547181 L 3017.726498,457.735041 L 3016.809101,455.688771 L 3016.345398,453.497700 L 3016.345398,451.257729 L 3016.809101,449.066661 L 3017.726498,447.020391 L 3019.047700,445.208289 L 3020.719899,443.709332 L 3022.667902,442.589609 L 3024.804401,441.897570 L 3027.043000,441.663239 L 3029.281500,441.897570 L 3031.418101,442.589609 L 3033.366002,443.709332 L 3035.038299,445.208289 L 3036.359501,447.020391 L 3037.276898,449.066661 L 3037.740499,451.257729 L 3037.740499,453.497700 z"
       style="stroke:#000000;fill:none;stroke-opacity:1;stroke-width:3.77952756;stroke-miterlimit:4;stroke-dasharray:none"
       id="path3885" />
    <path
       d="M 3150.988199,284.318449 L 3150.524500,286.509369 L 3149.607099,288.555640 L 3148.285999,290.367931 L 3146.613698,291.866850 L 3144.665700,292.986569 L 3142.529201,293.678600 L 3140.290602,293.912931 L 3138.052101,293.678600 L 3135.915500,292.986569 L 3133.967599,291.866850 L 3132.295298,290.367931 L 3130.974100,288.555640 L 3130.056801,286.509369 L 3129.593099,284.318449 L 3129.593099,282.078361 L 3130.056801,279.887259 L 3130.974100,277.840981 L 3132.295298,276.028891 L 3133.967599,274.529930 L 3135.915500,273.410211 L 3138.052101,272.718168 L 3140.290602,272.483841 L 3142.529201,272.718168 L 3144.665700,273.410211 L 3146.613698,274.529930 L 3148.285999,276.028891 L 3149.607099,277.840981 L 3150.524500,279.887259 L 3150.988199,282.078361 L 3150.988199,284.318449 z"
       style="stroke:#000000;fill:none;stroke-opacity:1;stroke-width:3.77952756;stroke-miterlimit:4;stroke-dasharray:none"
       id="path3887" />
    <path
       d="M 3430.959099,485.085812 L 3227.113300,485.085812 L 3227.113300,420.421580 L 3430.959099,420.421580 L 3430.959099,485.085812 z"
       style="stroke:#000000;fill:none;stroke-opacity:1;stroke-width:3.77952756;stroke-miterlimit:4;stroke-dasharray:none"
       id="path3889" />
    <path
       d="M 3758.750801,562.524408 L 3758.287102,564.715510 L 3757.369701,566.761810 L 3756.048499,568.573909 L 3754.376202,570.072911 L 3752.428301,571.192611 L 3750.291798,571.884609 L 3748.053199,572.118909 L 3745.814600,571.884609 L 3743.678101,571.192611 L 3741.730099,570.072911 L 3740.057900,568.573909 L 3738.736702,566.761810 L 3737.819301,564.715510 L 3737.355602,562.524408 L 3737.355602,560.284509 L 3737.819301,558.093411 L 3738.736702,556.047209 L 3740.057900,554.235009 L 3741.730099,552.736108 L 3743.678101,551.616408 L 3745.814600,550.924411 L 3748.053199,550.690110 L 3750.291798,550.924411 L 3752.428301,551.616408 L 3754.376202,552.736108 L 3756.048499,554.235009 L 3757.369701,556.047209 L 3758.287102,558.093411 L 3758.750801,560.284509 L 3758.750801,562.524408 z"
       style="stroke:#000000;fill:none;stroke-opacity:1;stroke-width:3.77952756;stroke-miterlimit:4;stroke-dasharray:none"
       id="path3891" />
    <path
       d="M 3773.850399,284.318449 L 3773.386700,286.509369 L 3772.469299,288.555640 L 3771.148101,290.367931 L 3769.475800,291.866850 L 3767.527899,292.986569 L 3765.391400,293.678600 L 3763.152801,293.912931 L 3760.914300,293.678600 L 3758.777700,292.986569 L 3756.829799,291.866850 L 3755.157502,290.367931 L 3753.836300,288.555640 L 3752.919001,286.509369 L 3752.455298,284.318449 L 3752.455298,282.078361 L 3752.919001,279.887259 L 3753.836300,277.840981 L 3755.157502,276.028891 L 3756.829799,274.529930 L 3758.777700,273.410211 L 3760.914300,272.718168 L 3763.152801,272.483841 L 3765.391400,272.718168 L 3767.527899,273.410211 L 3769.475800,274.529930 L 3771.148101,276.028891 L 3772.469299,277.840981 L 3773.386700,279.887259 L 3773.850399,282.078361 L 3773.850399,284.318449 z"
       style="stroke:#000000;fill:none;stroke-opacity:1;stroke-width:3.77952756;stroke-miterlimit:4;stroke-dasharray:none"
       id="path3893" />
    <path
       d="M 4253.892098,485.085812 L 4050.046299,485.085812 L 4050.046299,420.421580 L 4253.892098,420.421580 L 4253.892098,485.085812 z"
       style="stroke:#000000;fill:none;stroke-opacity:1;stroke-width:3.77952756;stroke-miterlimit:4;stroke-dasharray:none"
       id="path3895" />
    <path
       d="M 4358.964801,284.318449 L 4358.496801,286.509369 L 4357.582299,288.555640 L 4356.259699,290.367931 L 4354.588301,291.866850 L 4352.640299,292.986569 L 4350.501502,293.678600 L 4348.264600,293.912931 L 4346.027800,293.678600 L 4343.888500,292.986569 L 4341.940800,291.866850 L 4340.269202,290.367931 L 4338.946602,288.555640 L 4338.032100,286.509369 L 4337.564100,284.318449 L 4337.564100,282.078361 L 4338.032100,279.887259 L 4338.946602,277.840981 L 4340.269202,276.028891 L 4341.940800,274.529930 L 4343.888500,273.410211 L 4346.027800,272.718168 L 4348.264600,272.483841 L 4350.501502,272.718168 L 4352.640299,273.410211 L 4354.588301,274.529930 L 4356.259699,276.028891 L 4357.582299,277.840981 L 4358.496801,279.887259 L 4358.964801,282.078361 L 4358.964801,284.318449 z"
       style="stroke:#000000;fill:none;stroke-opacity:1;stroke-width:3.77952756;stroke-miterlimit:4;stroke-dasharray:none"
       id="path3897" />
    <path
       d="M 4358.964801,453.497700 L 4358.496801,455.688771 L 4357.582299,457.735041 L 4356.259699,459.547181 L 4354.588301,461.046100 L 4352.640299,462.165781 L 4350.501502,462.857779 L 4348.264600,463.092110 L 4346.027800,462.857779 L 4343.888500,462.165781 L 4341.940800,461.046100 L 4340.269202,459.547181 L 4338.946602,457.735041 L 4338.032100,455.688771 L 4337.564100,453.497700 L 4337.564100,451.257729 L 4338.032100,449.066661 L 4338.946602,447.020391 L 4340.269202,445.208289 L 4341.940800,443.709332 L 4343.888500,442.589609 L 4346.027800,441.897570 L 4348.264600,441.663239 L 4350.501502,441.897570 L 4352.640299,442.589609 L 4354.588301,443.709332 L 4356.259699,445.208289 L 4357.582299,447.020391 L 4358.496801,449.066661 L 4358.964801,451.257729 L 4358.964801,453.497700 z"
       style="stroke:#000000;fill:none;stroke-opacity:1;stroke-width:3.77952756;stroke-miterlimit:4;stroke-dasharray:none"
       id="path3899" />
    <path
       d="M 2907.000000,223.119281 L 4429.644801,223.119281 L 4441.913201,210.900779 L 4441.913201,-116.179491 L 4426.813500,-131.217630 L 4332.440500,-131.217630 L 4332.440500,-54.146937 L 4255.054602,-54.146937 L 4255.054602,-131.217630 L 2909.831100,-131.217630 L 2897.969998,-119.405170 L 2897.969998,214.126481 L 2907.000000,223.119281 z"
       style="stroke:#000000;fill:none;stroke-opacity:1;stroke-width:3.77952756;stroke-miterlimit:4;stroke-dasharray:none"
       id="path3901" />
    <path
       d="M 4393.843400,184.403580 L 4394.307099,182.211681 L 4395.224500,180.166579 L 4396.545600,178.354379 L 4398.217901,176.854379 L 4400.165802,175.734580 L 4402.302399,175.042579 L 4404.541002,174.809378 L 4406.779499,175.042579 L 4408.916100,175.734580 L 4410.863800,176.854379 L 4412.536101,178.354379 L 4413.857299,180.166579 L 4414.774700,182.211681 L 4415.238399,184.403580 L 4415.238399,186.644281 L 4414.774700,188.836078 L 4413.857299,190.881180 L 4412.536101,192.693279 L 4410.863800,194.193381 L 4408.916100,195.314581 L 4406.779499,196.006579 L 4404.541002,196.239780 L 4402.302399,196.006579 L 4400.165802,195.314581 L 4398.217901,194.193381 L 4396.545600,192.693279 L 4395.224500,190.881180 L 4394.307099,188.836078 L 4393.843400,186.644281 L 4393.843400,184.403580 z"
       style="stroke:#000000;fill:none;stroke-opacity:1;stroke-width:3.77952756;stroke-miterlimit:4;stroke-dasharray:none"
       id="path3903" />
    <path
       d="M 4301.357802,75.376789 L 4301.821500,73.185010 L 4302.738901,71.139870 L 4304.060100,69.327772 L 4305.732401,67.827681 L 4307.680101,66.707962 L 4309.816800,66.015931 L 4312.055399,65.782730 L 4314.293802,66.015931 L 4316.430501,66.707962 L 4318.378299,67.827681 L 4320.050600,69.327772 L 4321.371700,71.139870 L 4322.289101,73.185010 L 4322.752800,75.376789 L 4322.752800,77.617599 L 4322.289101,79.809351 L 4321.371700,81.854529 L 4320.050600,83.666619 L 4318.378299,85.166710 L 4316.430501,86.287869 L 4314.293802,86.979912 L 4312.055399,87.213101 L 4309.816800,86.979912 L 4307.680101,86.287869 L 4305.732401,85.166710 L 4304.060100,83.666619 L 4302.738901,81.854529 L 4301.821500,79.809351 L 4301.357802,77.617599 L 4301.357802,75.376789 z"
       style="stroke:#000000;fill:none;stroke-opacity:1;stroke-width:3.77952756;stroke-miterlimit:4;stroke-dasharray:none"
       id="path3905" />
    <path
       d="M 4188.110101,-93.802677 L 4188.573800,-95.994467 L 4189.491201,-98.039607 L 4190.812399,-99.851739 L 4192.484700,-101.351800 L 4194.432401,-102.471519 L 4196.569202,-103.163509 L 4198.807699,-103.396709 L 4201.046101,-103.163509 L 4203.182801,-102.471519 L 4205.130599,-101.351800 L 4206.802900,-99.851739 L 4208.124000,-98.039607 L 4209.041499,-95.994467 L 4209.505100,-93.802677 L 4209.505100,-91.561878 L 4209.041499,-89.370089 L 4208.124000,-87.324949 L 4206.802900,-85.512858 L 4205.130599,-84.012756 L 4203.182801,-82.891638 L 4201.046101,-82.199649 L 4198.807699,-81.966448 L 4196.569202,-82.199649 L 4194.432401,-82.891638 L 4192.484700,-84.012756 L 4190.812399,-85.512858 L 4189.491201,-87.324949 L 4188.573800,-89.370089 L 4188.110101,-91.561878 L 4188.110101,-93.802677 z"
       style="stroke:#000000;fill:none;stroke-opacity:1;stroke-width:3.77952756;stroke-miterlimit:4;stroke-dasharray:none"
       id="path3907" />
    <path
       d="M 3908.139201,44.541060 L 4111.985000,44.541060 L 4111.985000,109.205182 L 3908.139201,109.205182 L 3908.139201,44.541060 z"
       style="stroke:#000000;fill:none;stroke-opacity:1;stroke-width:3.77952756;stroke-miterlimit:4;stroke-dasharray:none"
       id="path3909" />
    <path
       d="M 3580.347500,184.403580 L 3580.811199,182.211681 L 3581.728600,180.166579 L 3583.049802,178.354379 L 3584.722001,176.854379 L 3586.669999,175.734580 L 3588.806498,175.042579 L 3591.045101,174.809378 L 3593.283700,175.042579 L 3595.420199,175.734580 L 3597.368100,176.854379 L 3599.040401,178.354379 L 3600.361599,180.166579 L 3601.279000,182.211681 L 3601.742699,184.403580 L 3601.742699,186.644281 L 3601.279000,188.836078 L 3600.361599,190.881180 L 3599.040401,192.693279 L 3597.368100,194.193381 L 3595.420199,195.314581 L 3593.283700,196.006579 L 3591.045101,196.239780 L 3588.806498,196.006579 L 3586.669999,195.314581 L 3584.722001,194.193381 L 3583.049802,192.693279 L 3581.728600,190.881180 L 3580.811199,188.836078 L 3580.347500,186.644281 L 3580.347500,184.403580 z"
       style="stroke:#000000;fill:none;stroke-opacity:1;stroke-width:3.77952756;stroke-miterlimit:4;stroke-dasharray:none"
       id="path3911" />
    <path
       d="M 3565.247902,-93.802677 L 3565.711601,-95.994467 L 3566.629002,-98.039607 L 3567.950101,-99.851739 L 3569.622399,-101.351800 L 3571.570201,-102.471519 L 3573.706900,-103.163509 L 3575.945401,-103.396709 L 3578.183902,-103.163509 L 3580.320601,-102.471519 L 3582.268399,-101.351800 L 3583.940598,-99.851739 L 3585.261800,-98.039607 L 3586.179201,-95.994467 L 3586.642900,-93.802677 L 3586.642900,-91.561878 L 3586.179201,-89.370089 L 3585.261800,-87.324949 L 3583.940598,-85.512858 L 3582.268399,-84.012756 L 3580.320601,-82.891638 L 3578.183902,-82.199649 L 3575.945401,-81.966448 L 3573.706900,-82.199649 L 3571.570201,-82.891638 L 3569.622399,-84.012756 L 3567.950101,-85.512858 L 3566.629002,-87.324949 L 3565.711601,-89.370089 L 3565.247902,-91.561878 L 3565.247902,-93.802677 z"
       style="stroke:#000000;fill:none;stroke-opacity:1;stroke-width:3.77952756;stroke-miterlimit:4;stroke-dasharray:none"
       id="path3913" />
    <path
       d="M 3085.206002,44.541060 L 3289.051801,44.541060 L 3289.051801,109.205182 L 3085.206002,109.205182 L 3085.206002,44.541060 z"
       style="stroke:#000000;fill:none;stroke-opacity:1;stroke-width:3.77952756;stroke-miterlimit:4;stroke-dasharray:none"
       id="path3915" />
    <path
       d="M 2980.133401,75.376789 L 2980.601401,73.185010 L 2981.515899,71.139870 L 2982.838500,69.327772 L 2984.509999,67.827681 L 2986.457900,66.707962 L 2988.596700,66.015931 L 2990.833701,65.782730 L 2993.070399,66.015931 L 2995.209698,66.707962 L 2997.157398,67.827681 L 2998.829000,69.327772 L 3000.151601,71.139870 L 3001.066099,73.185010 L 3001.534099,75.376789 L 3001.534099,77.617599 L 3001.066099,79.809351 L 3000.151601,81.854529 L 2998.829000,83.666619 L 2997.157398,85.166710 L 2995.209698,86.287869 L 2993.070399,86.979912 L 2990.833701,87.213101 L 2988.596700,86.979912 L 2986.457900,86.287869 L 2984.509999,85.166710 L 2982.838500,83.666619 L 2981.515899,81.854529 L 2980.601401,79.809351 L 2980.133401,77.617599 L 2980.133401,75.376789 z"
       style="stroke:#000000;fill:none;stroke-opacity:1;stroke-width:3.77952756;stroke-miterlimit:4;stroke-dasharray:none"
       id="path3917" />
    <path
       d="M 2980.133401,-93.802677 L 2980.601401,-95.994467 L 2981.515899,-98.039607 L 2982.838500,-99.851739 L 2984.509999,-101.351800 L 2986.457900,-102.471519 L 2988.596700,-103.163509 L 2990.833701,-103.396709 L 2993.070399,-103.163509 L 2995.209698,-102.471519 L 2997.157398,-101.351800 L 2998.829000,-99.851739 L 3000.151601,-98.039607 L 3001.066099,-95.994467 L 3001.534099,-93.802677 L 3001.534099,-91.561878 L 3001.066099,-89.370089 L 3000.151601,-87.324949 L 2998.829000,-85.512858 L 2997.157398,-84.012756 L 2995.209698,-82.891638 L 2993.070399,-82.199649 L 2990.833701,-81.966448 L 2988.596700,-82.199649 L 2986.457900,-82.891638 L 2984.509999,-84.012756 L 2982.838500,-85.512858 L 2981.515899,-87.324949 L 2980.601401,-89.370089 L 2980.133401,-91.561878 L 2980.133401,-93.802677 z"
       style="stroke:#000000;fill:none;stroke-opacity:1;stroke-width:3.77952756;stroke-miterlimit:4;stroke-dasharray:none"
       id="path3919" />
    <path
       d="m 1998.8356,535.36262 8.662,-3.85659 7.6707,-5.57318 6.3445,-7.04621 4.7407,-8.2114 2.6097,-8.0318 61.9639,-121.61068 0.161,-0.034 7.2181,-3.21381 6.3923,-4.64428 5.2872,-5.87184 3.9508,-6.84283 2.4415,-7.51487 0.8259,-7.85802 -0.8259,-7.85802 -2.4415,-7.51483 -3.9508,-6.84246 -5.2872,-5.87187 -6.3923,-4.64466 -7.2181,-3.21374 -7.7288,-1.64258 h -7.7302 v -0.43389 h -7.5591 v -85.03935 h -204.0945 v 96.26984 l -4.1204,4.57629 -3.9508,6.84242 -2.4415,7.51487 -0.8259,7.85802 0.8259,7.85801 2.4415,7.51484 3.9508,6.84283 5.2872,5.87184 6.3923,4.64428 4.4711,1.99072 68.6159,134.66577 0.8035,-0.40951 2.8029,4.85473 6.3445,7.04621 7.6707,5.57318 8.662,3.85659 9.2744,1.97102 h 9.4816 z"
       style="fill:none;stroke:#000000;stroke-width:3.77952766;stroke-miterlimit:4;stroke-dasharray:none;stroke-opacity:1"
       id="path3921"
       inkscape:connector-curvature="0" />
    <path
       d="m 1909.8357,262.55433 -2.5119,-0.53409 -2.3459,-1.04424 -2.0776,-1.50955 -1.7182,-1.9083 -1.2839,-2.22384 -0.7937,-2.44233 -0.2684,-2.55386 0.2684,-2.55383 0.7937,-2.44233 1.2839,-2.22387 1.7182,-1.90823 2.0776,-1.50959 2.3459,-1.04424 2.5119,-0.53409 h 2.5678 l 2.5119,0.53409 2.3459,1.04424 2.0777,1.50959 1.718,1.90823 1.284,2.22387 0.7937,2.44233 0.2683,2.55383 -0.2683,2.55386 -0.7937,2.44233 -1.284,2.22384 -1.718,1.9083 -2.0777,1.50955 -2.3459,1.04424 -2.5119,0.53409 z"
       style="fill:none;stroke:#000000;stroke-width:3.77952766;stroke-miterlimit:4;stroke-dasharray:none;stroke-opacity:1"
       id="path3923"
       inkscape:connector-curvature="0" />
    <path
       d="m 2023.2215,262.55433 -2.512,-0.53409 -2.3459,-1.04424 -2.0774,-1.50955 -1.7183,-1.9083 -1.284,-2.22384 -0.7935,-2.44233 -0.2684,-2.55386 0.2684,-2.55383 0.7935,-2.44233 1.284,-2.22387 1.7183,-1.90823 2.0775,-1.50959 2.3458,-1.04424 2.512,-0.53409 h 2.5678 l 2.5119,0.53409 2.346,1.04424 2.0776,1.50959 1.7182,1.90823 1.2839,2.22387 0.7937,2.44233 0.2683,2.55383 -0.2683,2.55386 -0.7937,2.44233 -1.2839,2.22384 -1.7182,1.9083 -2.0776,1.50955 -2.346,1.04424 -2.5119,0.53409 z"
       style="fill:none;stroke:#000000;stroke-width:3.77952766;stroke-miterlimit:4;stroke-dasharray:none;stroke-opacity:1"
       id="path3925"
       inkscape:connector-curvature="0" />
    <path
       d="m 1885.2291,357.645 -2.589,-0.5503 -2.4181,-1.07641 -2.1415,-1.55603 -1.7711,-1.96687 -1.3236,-2.29228 -0.8179,-2.51754 -0.2767,-2.63244 0.2767,-2.63244 0.8179,-2.51755 1.3236,-2.29232 1.7711,-1.96686 2.1415,-1.556 2.4181,-1.07641 2.589,-0.55033 h 2.6472 l 2.5889,0.55033 2.4182,1.07641 2.1415,1.556 1.7711,1.96686 1.3235,2.29232 0.8179,2.51755 0.2766,2.63244 -0.2766,2.63244 -0.8179,2.51754 -1.3235,2.29228 -1.7711,1.96687 -2.1415,1.55603 -2.4182,1.07641 -2.5889,0.5503 z"
       style="fill:none;stroke:#000000;stroke-width:3.77952766;stroke-miterlimit:4;stroke-dasharray:none;stroke-opacity:1"
       id="path3927"
       inkscape:connector-curvature="0" />
    <path
       d="m 2081.7644,357.645 -2.5889,-0.5503 -2.4181,-1.07641 -2.1415,-1.55603 -1.7711,-1.96687 -1.3236,-2.29228 -0.8178,-2.51754 -0.2767,-2.63244 0.2767,-2.63244 0.8178,-2.51755 1.3236,-2.29232 1.7711,-1.96686 2.1415,-1.556 2.4181,-1.07641 2.5889,-0.55033 h 2.6473 l 2.5889,0.55033 2.4181,1.07641 2.1416,1.556 1.7711,1.96686 1.3236,2.29232 0.8179,2.51755 0.2766,2.63244 -0.2766,2.63244 -0.8179,2.51754 -1.3236,2.29228 -1.7711,1.96687 -2.1416,1.55603 -2.4181,1.07641 -2.5889,0.5503 z"
       style="fill:none;stroke:#000000;stroke-width:3.77952766;stroke-miterlimit:4;stroke-dasharray:none;stroke-opacity:1"
       id="path3929"
       inkscape:connector-curvature="0" />
    <path
       d="m 1983.497,516.59322 -2.5892,-0.5503 -2.4181,-1.0766 -2.1415,-1.55588 -1.7712,-1.96701 -1.3234,-2.2924 -0.8179,-2.51739 -0.2767,-2.63241 0.2767,-2.63251 0.448,-1.37847 0.4735,-0.24151 0.2415,-0.74381 1.284,-2.22384 1.7183,-1.9084 2.0775,-1.50939 2.3459,-1.04451 2.5119,-0.53378 h 2.5678 l 2.5119,0.53378 2.3459,1.04451 2.0775,1.50939 1.7183,1.9084 1.284,2.22384 0.7935,2.44229 0.038,0.34053 0.3993,0.20334 0.2113,2.01011 -0.2767,2.6324 -0.818,2.51739 -1.3234,2.2924 -1.7712,1.96702 -2.1414,1.55588 -2.4181,1.07659 -2.5892,0.5503 z"
       style="fill:none;stroke:#000000;stroke-width:3.77952766;stroke-miterlimit:4;stroke-dasharray:none;stroke-opacity:1"
       id="path3931"
       inkscape:connector-curvature="0" />
    <path
       d="m 1729.389,470.47849 8.6619,-3.85659 7.6708,-5.57318 6.3444,-7.04621 4.7407,-8.2114 2.6098,-8.03184 61.9638,-121.61065 0.161,-0.034 7.2182,-3.21381 6.3923,-4.64428 5.2872,-5.87184 3.9507,-6.84287 2.4416,-7.51484 0.8258,-7.85801 -0.8258,-7.85801 -2.4416,-7.51483 -3.9507,-6.84246 -5.2872,-5.87186 -6.3923,-4.64466 -7.2182,-3.21373 -7.7287,-1.64258 h -7.7303 v -0.43389 H 1624.665 v 0.43389 h -7.7303 l -7.7288,1.64258 -7.2181,3.21373 -6.3923,4.64466 -5.2872,5.87186 -3.9507,6.84246 -2.4417,7.51483 -0.8257,7.85801 0.8257,7.85805 2.4417,7.51484 3.9507,6.84283 5.2872,5.87184 6.3923,4.64428 4.4712,1.99072 68.6158,134.66577 0.8035,-0.40951 2.803,4.85473 6.3444,7.04621 7.6708,5.57318 8.6619,3.85659 9.2745,1.97102 h 9.4815 z"
       style="fill:none;stroke:#000000;stroke-width:3.77952766;stroke-miterlimit:4;stroke-dasharray:none;stroke-opacity:1"
       id="path3933"
       inkscape:connector-curvature="0" />
    <path
       d="m 1714.2873,294.28515 -2.1255,-0.45165 -1.985,-0.88365 -1.7579,-1.27711 -1.4539,-1.61499 -1.0864,-1.88183 -0.6715,-2.06626 -0.2271,-2.16114 0.1988,-1.88976 -0.1988,-1.8898 0.1988,-1.88977 -0.1988,-1.88975 0.2271,-2.16076 0.6715,-2.06664 1.0864,-1.88183 1.4539,-1.61461 1.758,-1.27748 1.9849,-0.88366 2.1255,-0.45165 h 2.1728 l 2.1254,0.45165 1.985,0.88366 1.7579,1.27748 1.4539,1.61461 1.0865,1.88183 0.6714,2.06664 0.2272,2.16076 -0.1984,1.88975 0.1984,1.88977 -0.1984,1.8898 0.1984,1.88976 -0.2272,2.16114 -0.6714,2.06626 -1.0865,1.88183 -1.4539,1.61499 -1.7579,1.27711 -1.985,0.88365 -2.1254,0.45165 z"
       style="fill:none;stroke:#000000;stroke-width:3.77952766;stroke-miterlimit:4;stroke-dasharray:none;stroke-opacity:1"
       id="path3935"
       inkscape:connector-curvature="0" />
    <path
       d="m 1812.3179,292.76087 -2.589,-0.5503 -2.4181,-1.07641 -2.1415,-1.55603 -1.7711,-1.96687 -1.3237,-2.29228 -0.8178,-2.51754 -0.2767,-2.63248 0.2767,-2.63243 0.8178,-2.51755 1.3237,-2.29228 1.7711,-1.96687 2.1415,-1.55603 2.4181,-1.07641 2.589,-0.5503 h 2.6472 l 2.5889,0.5503 2.4182,1.07641 2.1415,1.55603 1.771,1.96687 1.3236,2.29228 0.8179,2.51755 0.2767,2.63243 -0.2767,2.63248 -0.8179,2.51754 -1.3236,2.29228 -1.771,1.96687 -2.1415,1.55603 -2.4182,1.07641 -2.5889,0.5503 z"
       style="fill:none;stroke:#000000;stroke-width:3.77952766;stroke-miterlimit:4;stroke-dasharray:none;stroke-opacity:1"
       id="path3937"
       inkscape:connector-curvature="0" />
    <path
       d="m 1615.7823,292.76087 -2.5889,-0.5503 -2.4182,-1.07641 -2.1415,-1.55603 -1.771,-1.96687 -1.3236,-2.29228 -0.8179,-2.51754 -0.2767,-2.63248 0.2767,-2.63243 0.8179,-2.51755 1.3236,-2.29228 1.771,-1.96687 2.1415,-1.55603 2.4182,-1.07641 2.5889,-0.5503 h 2.6472 l 2.589,0.5503 2.4181,1.07641 2.1415,1.55603 1.7711,1.96687 1.3236,2.29228 0.8179,2.51755 0.2767,2.63243 -0.2767,2.63248 -0.8179,2.51754 -1.3236,2.29228 -1.7711,1.96687 -2.1415,1.55603 -2.4181,1.07641 -2.589,0.5503 z"
       style="fill:none;stroke:#000000;stroke-width:3.77952766;stroke-miterlimit:4;stroke-dasharray:none;stroke-opacity:1"
       id="path3939"
       inkscape:connector-curvature="0" />
    <path
       d="m 1714.0502,451.70909 -2.5891,-0.5503 -2.4181,-1.0766 -2.1414,-1.55592 -1.7712,-1.96698 -1.3235,-2.29239 -0.818,-2.51739 -0.2766,-2.63241 0.2766,-2.63251 0.4481,-1.37851 0.4735,-0.24151 0.2419,-0.74381 1.284,-2.2238 1.7182,-1.9084 2.0776,-1.50939 2.3459,-1.04451 2.5118,-0.53378 h 2.5679 l 2.5118,0.53378 2.346,1.04451 2.0775,1.50939 1.7183,1.9084 1.2839,2.2238 0.7937,2.44229 0.038,0.34053 0.3994,0.20334 0.2113,2.01015 -0.2767,2.6324 -0.818,2.51739 -1.3234,2.2924 -1.7712,1.96698 -2.1415,1.55591 -2.4181,1.0766 -2.5892,0.5503 z"
       style="fill:none;stroke:#000000;stroke-width:3.77952766;stroke-miterlimit:4;stroke-dasharray:none;stroke-opacity:1"
       id="path3941"
       inkscape:connector-curvature="0" />
    <path
       d="m 1715.1245,215.79439 4.7671,-2.1222 4.2214,-3.06709 3.4915,-3.8778 2.6094,-4.51918 1.6123,-4.96252 0.5454,-5.18967 -0.5454,-5.18928 -1.6123,-4.96289 -2.6094,-4.51881 -3.4915,-3.87779 -0.9574,-0.69582 V 72.55522 h -117.1201 v 122.11199 h 76.6905 l 0.271,2.57839 1.6122,4.96252 2.609,4.51918 3.4919,3.8778 4.2214,3.06709 4.7668,2.1222 5.1043,1.08473 h 5.2179 z"
       style="fill:none;stroke:#000000;stroke-width:3.77952766;stroke-miterlimit:4;stroke-dasharray:none;stroke-opacity:1"
       id="path3983"
       inkscape:connector-curvature="0" />
    <path
       d="m 1643.6167,122.89626 -2.2025,-0.46828 -2.0571,-0.91578 -1.8217,-1.32359 -1.5068,-1.67358 -1.1259,-1.94986 -0.6958,-2.14148 -0.2354,-2.23975 0.2354,-2.23937 0.6958,-2.14148 1.1259,-1.95023 1.5068,-1.67358 1.8217,-1.32321 2.0571,-0.91616 2.2025,-0.46828 h 2.252 l 2.2023,0.46828 2.0572,0.91616 1.8218,1.32321 1.5069,1.67358 1.1259,1.95023 0.6958,2.14148 0.2355,2.23937 -0.2355,2.23975 -0.6958,2.14148 -1.1259,1.94986 -1.5069,1.67358 -1.8218,1.32359 -2.0572,0.91578 -2.2023,0.46828 z"
       style="fill:none;stroke:#000000;stroke-width:3.77952766;stroke-miterlimit:4;stroke-dasharray:none;stroke-opacity:1"
       id="path3985"
       inkscape:connector-curvature="0" />
    <path
       d="m 1707.4048,120.40101 -1.8157,-0.38589 -1.6959,-0.75514 -1.5019,-1.09116 -1.242,-1.37952 -0.9283,-1.60781 -0.5737,-1.76542 -0.1943,-1.8463 0.1943,-1.8463 0.5737,-1.76579 0.9283,-1.60744 1.242,-1.3799 1.5019,-1.09115 1.6959,-0.75477 1.8157,-0.38627 h 1.8565 l 1.8161,0.38627 1.6958,0.75477 1.502,1.09115 1.242,1.3799 0.9282,1.60744 0.5738,1.76579 0.1939,1.8463 -0.1939,1.8463 -0.5738,1.76542 -0.9282,1.60781 -1.242,1.37952 -1.502,1.09116 -1.6958,0.75514 -1.8161,0.38589 z"
       style="fill:none;stroke:#000000;stroke-width:3.77952766;stroke-miterlimit:4;stroke-dasharray:none;stroke-opacity:1"
       id="path3987"
       inkscape:connector-curvature="0" />
    <path
       d="m 1706.2857,202.76825 -2.2027,-0.46828 -2.0572,-0.91578 -1.8214,-1.32359 -1.5069,-1.67358 -1.1259,-1.94986 -0.6958,-2.14186 -0.2355,-2.23937 0.2355,-2.23937 0.6958,-2.14147 1.1259,-1.95023 1.5069,-1.67358 1.8214,-1.32321 2.0572,-0.91616 2.2027,-0.4679 h 2.2518 l 2.2024,0.4679 2.0571,0.91616 1.8218,1.32321 1.5069,1.67358 1.1259,1.95023 0.6958,2.14147 0.2354,2.23937 -0.2354,2.23937 -0.6958,2.14186 -1.1259,1.94986 -1.5069,1.67358 -1.8218,1.32359 -2.0571,0.91578 -2.2024,0.46828 z"
       style="fill:none;stroke:#000000;stroke-width:3.77952766;stroke-miterlimit:4;stroke-dasharray:none;stroke-opacity:1"
       id="path3989"
       inkscape:connector-curvature="0" />
    <path
       d="m 1893.8913,95.08523 0.9574,-0.69539 3.4915,-3.8778 2.6094,-4.51922 1.6123,-4.96247 0.5454,-5.18933 -0.5454,-5.18963 -1.6123,-4.96252 -2.6094,-4.51917 -3.4915,-3.87779 -4.2214,-3.06709 -4.7671,-2.12221 -5.1039,-1.0851 h -5.218 l -5.1043,1.0851 -4.7667,2.12221 -4.2214,3.06709 -3.4919,3.87779 -2.609,4.51917 -1.6123,4.96252 -0.3273,3.11584 h -76.6342 v 122.11196 h 117.1201 z"
       style="fill:none;stroke:#000000;stroke-width:3.77952766;stroke-miterlimit:4;stroke-dasharray:none;stroke-opacity:1"
       id="path3991"
       inkscape:connector-curvature="0" />
    <path
       d="m 1877.0214,86.55291 -2.2027,-0.46817 -2.0572,-0.91582 -1.8214,-1.32359 -1.5069,-1.67319 -1.1259,-1.95019 -0.6958,-2.14152 -0.2355,-2.23941 0.2355,-2.23967 0.6958,-2.14152 1.1259,-1.95024 1.5069,-1.67319 1.8214,-1.32359 2.0572,-0.91616 2.2027,-0.46791 h 2.2518 l 2.2023,0.46791 2.0572,0.91616 1.8218,1.32359 1.5069,1.67319 1.1259,1.95024 0.6958,2.14152 0.2354,2.23967 -0.2354,2.23941 -0.6958,2.14152 -1.1259,1.95019 -1.5069,1.67319 -1.8218,1.32359 -2.0572,0.91582 -2.2023,0.46817 z"
       style="fill:none;stroke:#000000;stroke-width:3.77952766;stroke-miterlimit:4;stroke-dasharray:none;stroke-opacity:1"
       id="path3993"
       inkscape:connector-curvature="0" />
    <path
       d="m 1814.5827,113.9708 -2.2024,-0.46828 -2.0571,-0.91582 -1.8218,-1.32359 -1.5067,-1.67358 -1.1259,-1.95019 -0.6958,-2.14152 -0.2354,-2.2393 0.2354,-2.23939 0.6958,-2.14189 1.1259,-1.94979 1.5067,-1.67361 1.8218,-1.32359 2.0571,-0.91582 2.2024,-0.46829 h 2.2519 l 2.2028,0.46829 2.0571,0.91582 1.8217,1.32359 1.5066,1.67361 1.1258,1.94979 0.6959,2.14189 0.2355,2.23939 -0.2355,2.2393 -0.6959,2.14152 -1.1258,1.95019 -1.5066,1.67358 -1.8217,1.32359 -2.0571,0.91582 -2.2028,0.46828 z"
       style="fill:none;stroke:#000000;stroke-width:3.77952766;stroke-miterlimit:4;stroke-dasharray:none;stroke-opacity:1"
       id="path3995"
       inkscape:connector-curvature="0" />
    <path
       d="m 1877.9103,165.77289 -1.816,-0.3859 -1.6959,-0.7551 -1.5016,-1.0911 -1.2423,-1.37959 -0.9283,-1.6077 -0.5737,-1.76569 -0.1939,-1.84611 0.1939,-1.8463 0.5737,-1.76579 0.9283,-1.6074 1.2423,-1.37953 1.5016,-1.09149 1.6959,-0.75481 1.816,-0.3863 h 1.8565 l 1.8157,0.3863 1.6959,0.75481 1.502,1.09149 1.2423,1.37953 0.9279,1.6074 0.5737,1.76579 0.1942,1.8463 -0.1942,1.84611 -0.5737,1.76569 -0.9279,1.6077 -1.2423,1.37959 -1.502,1.0911 -1.6959,0.7551 -1.8157,0.3859 z"
       style="fill:none;stroke:#000000;stroke-width:3.77952766;stroke-miterlimit:4;stroke-dasharray:none;stroke-opacity:1"
       id="path3997"
       inkscape:connector-curvature="0" />
    <path
       d="m 1960.4163,-201.63672 h -97.0954 L 1805.452,-99.4531 V 31.77243 h 154.9643 z"
       style="fill:none;stroke:#000000;stroke-width:3.77952766;stroke-miterlimit:4;stroke-dasharray:none;stroke-opacity:1"
       id="path3999"
       inkscape:connector-curvature="0" />
    <path
       d="m 1940.9669,-156.1969 -1.5781,-0.34112 -1.4744,-0.66741 -1.3055,-0.96735 -1.0797,-1.22232 -0.807,-1.42479 -0.4985,-1.56726 -0.1688,-1.6348 0.1688,-1.63476 0.4985,-1.56729 0.807,-1.4248 1.0797,-1.22231 1.3055,-0.96739 1.4744,-0.66741 1.5781,-0.34113 h 1.6141 l 1.5781,0.34113 1.4744,0.66741 1.3056,0.96739 1.0796,1.22231 0.807,1.4248 0.4985,1.56729 0.1688,1.63476 -0.1688,1.6348 -0.4985,1.56726 -0.807,1.42479 -1.0796,1.22232 -1.3056,0.96735 -1.4744,0.66741 -1.5781,0.34112 z"
       style="fill:none;stroke:#000000;stroke-width:3.77952766;stroke-miterlimit:4;stroke-dasharray:none;stroke-opacity:1"
       id="path4001"
       inkscape:connector-curvature="0" />
    <path
       d="m 1859.9895,-156.1969 -1.5785,-0.34112 -1.4742,-0.66741 -1.3055,-0.96735 -1.0798,-1.22232 -0.8069,-1.42479 -0.4987,-1.56726 -0.1688,-1.6348 0.1688,-1.63476 0.4987,-1.56729 0.8069,-1.4248 1.0798,-1.22231 1.3055,-0.96739 1.4742,-0.66741 1.5785,-0.34113 h 1.6137 l 1.5785,0.34113 1.4742,0.66741 1.3055,0.96739 1.0798,1.22231 0.8069,1.4248 0.4987,1.56729 0.1688,1.63476 -0.1688,1.6348 -0.4987,1.56726 -0.8069,1.42479 -1.0798,1.22232 -1.3055,0.96735 -1.4742,0.66741 -1.5785,0.34112 z"
       style="fill:none;stroke:#000000;stroke-width:3.77952766;stroke-miterlimit:4;stroke-dasharray:none;stroke-opacity:1"
       id="path4003"
       inkscape:connector-curvature="0" />
    <path
       d="m 1941.8781,-94.56717 -1.2211,-0.26482 -1.1405,-0.51743 -1.0098,-0.74802 -0.8354,-0.94598 -0.6244,-1.10199 -0.3858,-1.21034 -0.1303,-1.26583 0.1303,-1.26579 0.3858,-1.21034 0.6244,-1.10195 0.8354,-0.94598 1.0098,-0.74806 1.1405,-0.51739 1.2211,-0.26482 h 1.2481 l 1.2212,0.26482 1.1405,0.51739 1.0097,0.74806 0.8355,0.94598 0.6244,1.10195 0.3853,1.21034 0.1307,1.26579 -0.1307,1.26583 -0.3853,1.21034 -0.6244,1.10199 -0.8355,0.94598 -1.0097,0.74802 -1.1405,0.51743 -1.2212,0.26482 z"
       style="fill:none;stroke:#000000;stroke-width:3.77952766;stroke-miterlimit:4;stroke-dasharray:none;stroke-opacity:1"
       id="path4005"
       inkscape:connector-curvature="0" />
    <path
       d="m 1879.6546,1.58657 -8.8851,-1.92534 -8.2983,-3.76675 -7.3487,-5.44309 -6.0781,-6.88176 -4.5417,-8.01976 -2.807,-8.80714 -0.9495,-9.20984 0.9495,-9.2098 2.807,-8.80718 4.5417,-8.01971 6.0781,-6.881801 7.3487,-5.443098 8.2983,-3.766742 8.8851,-1.925348 h 9.0836 l 8.885,1.925348 8.2983,3.766742 7.3486,5.443098 6.0782,6.881801 4.5418,8.01971 2.8068,8.80718 0.9497,9.2098 -0.9497,9.20984 -2.8068,8.80714 -4.5418,8.01976 -6.0782,6.88176 -7.3486,5.44309 -8.2983,3.76675 -8.885,1.92534 z"
       style="fill:none;stroke:#000000;stroke-width:3.77952766;stroke-miterlimit:4;stroke-dasharray:none;stroke-opacity:1"
       id="path4007"
       inkscape:connector-curvature="0" />
    <path
       d="m 1826.5772,20.99911 -1.2211,-0.26482 -1.1404,-0.51747 -1.0099,-0.74798 -0.8354,-0.94601 -0.6241,-1.102 -0.3858,-1.21033 -0.1307,-1.2658 0.1307,-1.26583 0.3858,-1.21034 0.6241,-1.10195 0.8354,-0.94597 1.0099,-0.74806 1.1404,-0.5174 1.2211,-0.26481 h 1.2484 l 1.2211,0.26481 1.1403,0.5174 1.01,0.74806 0.8353,0.94597 0.6242,1.10195 0.3857,1.21034 0.1304,1.26583 -0.1304,1.2658 -0.3857,1.21033 -0.6242,1.102 -0.8353,0.94601 -1.01,0.74798 -1.1403,0.51747 -1.2211,0.26482 z"
       style="fill:none;stroke:#000000;stroke-width:3.77952766;stroke-miterlimit:4;stroke-dasharray:none;stroke-opacity:1"
       id="path4009"
       inkscape:connector-curvature="0" />
    <path
       d="M 1785.059301,-95.249949 L 1727.190399,-197.433260 L 1630.095001,-197.433260 L 1630.095001,35.975138 L 1785.059301,35.975138 L 1785.059301,-95.249949 z"
       style="stroke:#000000;fill:none;stroke-opacity:1;stroke-width:3.77952756;stroke-miterlimit:4;stroke-dasharray:none"
       id="path4011" />
    <path
       d="M 1728.907899,-151.993561 L 1727.329701,-152.334690 L 1725.855300,-153.002060 L 1724.549802,-153.969449 L 1723.470100,-155.191771 L 1722.663099,-156.616569 L 1722.164598,-158.183819 L 1721.995801,-159.818589 L 1722.164598,-161.453352 L 1722.663099,-163.020639 L 1723.470100,-164.445441 L 1724.549802,-165.667759 L 1725.855300,-166.635111 L 1727.329701,-167.302518 L 1728.907899,-167.643651 L 1730.521901,-167.643651 L 1732.100100,-167.302518 L 1733.574399,-166.635111 L 1734.879999,-165.667759 L 1735.959598,-164.445441 L 1736.766599,-163.020639 L 1737.265198,-161.453352 L 1737.433999,-159.818589 L 1737.265198,-158.183819 L 1736.766599,-156.616569 L 1735.959598,-155.191771 L 1734.879999,-153.969449 L 1733.574399,-153.002060 L 1732.100100,-152.334690 L 1730.521901,-151.993561 L 1728.907899,-151.993561 z"
       style="stroke:#000000;fill:none;stroke-opacity:1;stroke-width:3.77952756;stroke-miterlimit:4;stroke-dasharray:none"
       id="path4013" />
    <path
       d="M 1647.930300,-151.993561 L 1646.352098,-152.334690 L 1644.877701,-153.002060 L 1643.572199,-153.969449 L 1642.492600,-155.191771 L 1641.685500,-156.616569 L 1641.187000,-158.183819 L 1641.018198,-159.818589 L 1641.187000,-161.453352 L 1641.685500,-163.020639 L 1642.492600,-164.445441 L 1643.572199,-165.667759 L 1644.877701,-166.635111 L 1646.352098,-167.302518 L 1647.930300,-167.643651 L 1649.544299,-167.643651 L 1651.122501,-167.302518 L 1652.596800,-166.635111 L 1653.902400,-165.667759 L 1654.981999,-164.445441 L 1655.789000,-163.020639 L 1656.287599,-161.453352 L 1656.456401,-159.818589 L 1656.287599,-158.183819 L 1655.789000,-156.616569 L 1654.981999,-155.191771 L 1653.902400,-153.969449 L 1652.596800,-153.002060 L 1651.122501,-152.334690 L 1649.544299,-151.993561 L 1647.930300,-151.993561 z"
       style="stroke:#000000;fill:none;stroke-opacity:1;stroke-width:3.77952756;stroke-miterlimit:4;stroke-dasharray:none"
       id="path4015" />
    <path
       d="M 1647.385002,-90.364059 L 1646.163900,-90.628879 L 1645.023402,-91.146312 L 1644.013599,-91.894329 L 1643.178198,-92.840311 L 1642.553802,-93.942259 L 1642.167999,-95.152600 L 1642.037700,-96.418431 L 1642.167999,-97.684229 L 1642.553802,-98.894570 L 1643.178198,-99.996529 L 1644.013599,-100.942500 L 1645.023402,-101.690521 L 1646.163900,-102.207961 L 1647.385002,-102.472770 L 1648.633100,-102.472770 L 1649.854299,-102.207961 L 1650.994700,-101.690521 L 1652.004499,-100.942500 L 1652.839899,-99.996529 L 1653.464300,-98.894570 L 1653.850099,-97.684229 L 1653.980398,-96.418431 L 1653.850099,-95.152600 L 1653.464300,-93.942259 L 1652.839899,-92.840311 L 1652.004499,-91.894329 L 1650.994700,-91.146312 L 1649.854299,-90.628879 L 1648.633100,-90.364059 L 1647.385002,-90.364059 z"
       style="stroke:#000000;fill:none;stroke-opacity:1;stroke-width:3.77952756;stroke-miterlimit:4;stroke-dasharray:none"
       id="path4017" />
    <path
       d="M 1701.773099,5.789352 L 1692.888098,3.864011 L 1684.589802,0.097300 L 1677.241100,-5.345809 L 1671.163000,-12.227539 L 1666.621100,-20.247262 L 1663.814302,-29.054381 L 1662.864699,-38.264190 L 1663.814302,-47.473969 L 1666.621100,-56.281081 L 1671.163000,-64.300811 L 1677.241100,-71.182579 L 1684.589802,-76.625639 L 1692.888098,-80.392362 L 1701.773099,-82.317698 L 1710.856702,-82.317698 L 1719.741698,-80.392362 L 1728.039999,-76.625639 L 1735.388598,-71.182579 L 1741.466801,-64.300811 L 1746.008598,-56.281081 L 1748.815400,-47.473969 L 1749.765101,-38.264190 L 1748.815400,-29.054381 L 1746.008598,-20.247262 L 1741.466801,-12.227539 L 1735.388598,-5.345809 L 1728.039999,0.097300 L 1719.741698,3.864011 L 1710.856702,5.789352 L 1701.773099,5.789352 z"
       style="stroke:#000000;fill:none;stroke-opacity:1;stroke-width:3.77952756;stroke-miterlimit:4;stroke-dasharray:none"
       id="path4019" />
    <path
       d="M 1762.685900,25.201799 L 1761.464700,24.936990 L 1760.324202,24.419562 L 1759.314399,23.671529 L 1758.478998,22.725558 L 1757.854602,21.623562 L 1757.468901,20.413259 L 1757.338500,19.147431 L 1757.468901,17.881629 L 1757.854602,16.671300 L 1758.478998,15.569340 L 1759.314399,14.623329 L 1760.324202,13.875341 L 1761.464700,13.357909 L 1762.685900,13.093089 L 1763.933900,13.093089 L 1765.155099,13.357909 L 1766.295602,13.875341 L 1767.305401,14.623329 L 1768.140801,15.569340 L 1768.765198,16.671300 L 1769.150899,17.881629 L 1769.281300,19.147431 L 1769.150899,20.413259 L 1768.765198,21.623562 L 1768.140801,22.725558 L 1767.305401,23.671529 L 1766.295602,24.419562 L 1765.155099,24.936990 L 1763.933900,25.201799 L 1762.685900,25.201799 z"
       style="stroke:#000000;fill:none;stroke-opacity:1;stroke-width:3.77952756;stroke-miterlimit:4;stroke-dasharray:none"
       id="path4021" />
    <path
       id="path4129"
       d="M 3120.309,895.67707 H 1572.5791 V 1121.5815 H 3120.309 Z m -677.0818,50.5864 -1.4297,-0.3003 -1.3316,-0.5872 -1.1807,-0.849 -0.9769,-1.0729 -0.7281,-1.2503 -0.4526,-1.3735 -0.151,-1.4359 0.151,-1.4358 0.4526,-1.3735 0.7281,-1.2503 0.9769,-1.073 1.1807,-0.8486 1.3316,-0.5872 1.4297,-0.3006 h 1.456 l 1.4297,0.3006 1.3316,0.5872 1.1807,0.8486 0.9769,1.073 0.7281,1.2503 0.4526,1.3735 0.151,1.4358 -0.151,1.4359 -0.4526,1.3735 -0.7281,1.2503 -0.9769,1.0729 -1.1807,0.849 -1.3316,0.5872 -1.4297,0.3003 z m 377.219,0 -1.4297,-0.3003 -1.3315,-0.5872 -1.1807,-0.849 -0.977,-1.0729 -0.728,-1.2503 -0.4527,-1.3735 -0.1508,-1.4359 0.1508,-1.4358 0.4527,-1.3735 0.728,-1.2503 0.977,-1.073 1.1807,-0.8486 1.3315,-0.5872 1.4297,-0.3006 h 1.4561 l 1.4297,0.3006 1.3315,0.5872 1.1807,0.8486 0.9771,1.073 0.728,1.2503 0.4527,1.3735 0.1509,1.4358 -0.1509,1.4359 -0.4527,1.3735 -0.728,1.2503 -0.9771,1.0729 -1.1807,0.849 -1.3315,0.5872 -1.4297,0.3003 z m -188.6095,0 -1.4296,-0.3003 -1.3316,-0.5872 -1.1807,-0.849 -0.9771,-1.0729 -0.7279,-1.2503 -0.4528,-1.3735 -0.1508,-1.4359 0.1508,-1.4358 0.4528,-1.3735 0.7279,-1.2503 0.9771,-1.073 1.1807,-0.8486 1.3316,-0.5872 1.4296,-0.3006 h 1.4561 l 1.4296,0.3006 1.3316,0.5872 1.1807,0.8486 0.977,1.073 0.7281,1.2503 0.4526,1.3735 0.1509,1.4358 -0.1509,1.4359 -0.4526,1.3735 -0.7281,1.2503 -0.977,1.0729 -1.1807,0.849 -1.3316,0.5872 -1.4296,0.3003 z m -642.1287,17.7281 -1.6183,-0.3409 -1.5127,-0.6664 -1.3391,-0.9635 -1.109,-1.2179 -0.8261,-1.4194 -0.5131,-1.559 -0.1735,-1.63 0.1735,-1.63 0.5131,-1.5587 0.8261,-1.4194 1.109,-1.2182 1.3391,-0.9635 1.5127,-0.6664 1.6183,-0.3409 h 1.6597 l 1.6183,0.3409 1.5126,0.6664 1.3392,0.9635 1.109,1.2182 0.8261,1.4194 0.513,1.5587 0.1735,1.63 -0.1735,1.63 -0.513,1.559 -0.8261,1.4194 -1.109,1.2179 -1.3392,0.9635 -1.5126,0.6664 -1.6183,0.3409 z m -191.6254,0 -1.6199,-0.3409 -1.513,-0.6664 -1.3398,-0.9635 -1.108,-1.2179 -0.8283,-1.4194 -0.5115,-1.559 -0.1736,-1.63 0.1736,-1.63 0.5115,-1.5587 0.8283,-1.4194 1.108,-1.2182 1.3398,-0.9635 1.513,-0.6664 1.6199,-0.3409 h 1.6559 l 1.6198,0.3409 1.5131,0.6664 1.3399,0.9635 1.1078,1.2182 0.828,1.4194 0.5119,1.5587 0.1735,1.63 -0.1735,1.63 -0.5119,1.559 -0.828,1.4194 -1.1078,1.2179 -1.3399,0.9635 -1.5131,0.6664 -1.6198,0.3409 z m 657.1892,83.66983 v -85.86683 h 362.1303 v 85.86683 z m -675.2222,-2.6133 v -78.40023 h 218.7871 v 78.40023 z m 214.9395,20.8637 -1.6184,-0.3409 -1.5126,-0.6664 -1.3391,-0.9635 -1.1091,-1.2179 -0.8261,-1.4194 -0.513,-1.559 -0.1735,-1.63 0.1735,-1.63 0.513,-1.5586 0.8261,-1.4195 1.1091,-1.2182 1.3391,-0.9631 1.5126,-0.6668 1.6184,-0.3409 h 1.6597 l 1.6182,0.3409 1.5127,0.6668 1.3392,0.9631 1.109,1.2182 0.826,1.4195 0.5131,1.5586 0.1735,1.63 -0.1735,1.63 -0.5131,1.559 -0.826,1.4194 -1.109,1.2179 -1.3392,0.9635 -1.5127,0.6664 -1.6182,0.3409 z m -196.9065,3.7334 -1.6199,-0.3409 -1.513,-0.6664 -1.3398,-0.9636 -1.108,-1.2178 -0.8283,-1.4194 -0.5115,-1.5591 -0.1736,-1.6299 0.1736,-1.63 0.5115,-1.5587 0.8283,-1.4194 1.108,-1.2182 1.3398,-0.9632 1.513,-0.6668 1.6199,-0.3408 h 1.6559 l 1.6198,0.3408 1.5131,0.6668 1.3399,0.9632 1.1078,1.2182 0.828,1.4194 0.5119,1.5587 0.1735,1.63 -0.1735,1.6299 -0.5119,1.5591 -0.828,1.4194 -1.1078,1.2178 -1.3399,0.9636 -1.5131,0.6664 -1.6198,0.3409 z m 1022.3636,7.2852 -1.4297,-0.3002 -1.3315,-0.5873 -1.1807,-0.849 -0.977,-1.0729 -0.728,-1.2503 -0.4527,-1.3735 -0.1508,-1.4359 0.1508,-1.4358 0.4527,-1.3735 0.728,-1.2503 0.977,-1.073 1.1807,-0.8486 1.3315,-0.5872 1.4297,-0.3006 h 1.4561 l 1.4297,0.3006 1.3315,0.5872 1.1807,0.8486 0.9771,1.073 0.728,1.2503 0.4527,1.3735 0.1509,1.4358 -0.1509,1.4359 -0.4527,1.3735 -0.728,1.2503 -0.9771,1.0729 -1.1807,0.849 -1.3315,0.5873 -1.4297,0.3002 z m -188.6095,0 -1.4296,-0.3002 -1.3316,-0.5873 -1.1807,-0.849 -0.9771,-1.0729 -0.7279,-1.2503 -0.4528,-1.3735 -0.1508,-1.4359 0.1508,-1.4358 0.4528,-1.3735 0.7279,-1.2503 0.9771,-1.073 1.1807,-0.8486 1.3316,-0.5872 1.4296,-0.3006 h 1.4561 l 1.4296,0.3006 1.3316,0.5872 1.1807,0.8486 0.977,1.073 0.7281,1.2503 0.4526,1.3735 0.1509,1.4358 -0.1509,1.4359 -0.4526,1.3735 -0.7281,1.2503 -0.977,1.0729 -1.1807,0.849 -1.3316,0.5873 -1.4296,0.3002 z m -188.6095,0 -1.4297,-0.3002 -1.3316,-0.5873 -1.1807,-0.849 -0.9769,-1.0729 -0.7281,-1.2503 -0.4526,-1.3735 -0.151,-1.4359 0.151,-1.4358 0.4526,-1.3735 0.7281,-1.2503 0.9769,-1.073 1.1807,-0.8486 1.3316,-0.5872 1.4297,-0.3006 h 1.456 l 1.4297,0.3006 1.3316,0.5872 1.1807,0.8486 0.9769,1.073 0.7281,1.2503 0.4526,1.3735 0.151,1.4358 -0.151,1.4359 -0.4526,1.3735 -0.7281,1.2503 -0.9769,1.0729 -1.1807,0.849 -1.3316,0.5873 -1.4297,0.3002 z"
       inkscape:connector-curvature="0"
       style="fill:none;stroke:#000000;stroke-width:3.77952756;stroke-opacity:1;stroke-miterlimit:4;stroke-dasharray:none" />
    <path
       id="path4188"
       d="M 3122.1927,654.7988 H 1573.2239 v 226.7804 h 1548.9688 z m -1303.6614,57.9374 -1.621,-0.3395 -1.5143,-0.6693 -1.3409,-0.9674 -1.1088,-1.2227 -0.8287,-1.425 -0.5123,-1.5653 -0.1732,-1.6366 0.1732,-1.6367 0.5123,-1.5649 0.8287,-1.4254 1.1088,-1.2227 1.3409,-0.9674 1.5143,-0.6696 1.621,-0.3396 h 1.6574 l 1.621,0.3396 1.5143,0.6696 1.3409,0.9674 1.1088,1.2227 0.8286,1.4254 0.5124,1.5649 0.1732,1.6367 -0.1732,1.6366 -0.5124,1.5653 -0.8286,1.425 -1.1088,1.2227 -1.3409,0.9674 -1.5143,0.6693 -1.621,0.3395 z m 176.7874,3.3114 -1.4308,-0.2981 -1.3326,-0.5896 -1.1816,-0.8523 -0.9778,-1.0775 -0.7287,-1.2552 -0.453,-1.379 -0.151,-1.4419 0.151,-1.4412 0.453,-1.3794 0.7287,-1.2552 0.9778,-1.0771 1.1816,-0.8523 1.3326,-0.5896 1.4308,-0.3019 h 1.4573 l 1.4308,0.3019 1.3326,0.5896 1.1817,0.8523 0.9778,1.0771 0.7286,1.2552 0.453,1.3794 0.151,1.4412 -0.151,1.4419 -0.453,1.379 -0.7286,1.2552 -0.9778,1.0775 -1.1817,0.8523 -1.3326,0.5896 -1.4308,0.2981 z m 830.5463,0 -1.4308,-0.2981 -1.3327,-0.5896 -1.1816,-0.8523 -0.9778,-1.0775 -0.7285,-1.2552 -0.4532,-1.379 -0.151,-1.4419 0.151,-1.4412 0.4532,-1.3794 0.7285,-1.2552 0.9778,-1.0771 1.1816,-0.8523 1.3327,-0.5896 1.4308,-0.3019 h 1.4573 l 1.4306,0.3019 1.3328,0.5896 1.1816,0.8523 0.9778,1.0771 0.7287,1.2552 0.4529,1.3794 0.1511,1.4412 -0.1511,1.4419 -0.4529,1.379 -0.7287,1.2552 -0.9778,1.0775 -1.1816,0.8523 -1.3328,0.5896 -1.4306,0.2981 z m -377.5209,0 -1.4311,-0.2981 -1.3324,-0.5896 -1.1818,-0.8523 -0.9776,-1.0775 -0.7287,-1.2552 -0.453,-1.379 -0.151,-1.4419 0.151,-1.4412 0.453,-1.3794 0.7287,-1.2552 0.9776,-1.0771 1.1818,-0.8523 1.3324,-0.5896 1.4311,-0.3019 h 1.4569 l 1.4312,0.3019 1.3324,0.5896 1.1817,0.8523 0.9777,1.0771 0.7286,1.2552 0.453,1.3794 0.1511,1.4412 -0.1511,1.4419 -0.453,1.379 -0.7286,1.2552 -0.9777,1.0775 -1.1817,0.8523 -1.3324,0.5896 -1.4312,0.2981 z m 188.7604,0 -1.4308,-0.2981 -1.3327,-0.5896 -1.1817,-0.8523 -0.9777,-1.0775 -0.7288,-1.2552 -0.4527,-1.379 -0.1511,-1.4419 0.1511,-1.4412 0.4527,-1.3794 0.7288,-1.2552 0.9777,-1.0771 1.1817,-0.8523 1.3327,-0.5896 1.4308,-0.3019 h 1.4573 l 1.4308,0.3019 1.3325,0.5896 1.1817,0.8523 0.9779,1.0771 0.7285,1.2552 0.453,1.3794 0.151,1.4412 -0.151,1.4419 -0.453,1.379 -0.7285,1.2552 -0.9779,1.0775 -1.1817,0.8523 -1.3325,0.5896 -1.4308,0.2981 z m -473.3094,6.5549 -1.6196,-0.3395 -1.5139,-0.6689 -1.3402,-0.9674 -1.1099,-1.2231 -0.8268,-1.4255 -0.5134,-1.5657 -0.1736,-1.6362 0.1736,-1.6367 0.5134,-1.5649 0.8268,-1.425 1.1099,-1.2231 1.3402,-0.9674 1.5139,-0.6693 1.6196,-0.3395 h 1.6611 l 1.6195,0.3395 1.5139,0.6693 1.3402,0.9674 1.1099,1.2231 0.8268,1.425 0.5134,1.5649 0.1736,1.6367 -0.1736,1.6362 -0.5134,1.5657 -0.8268,1.4255 -1.1099,1.2231 -1.3402,0.9674 -1.5139,0.6689 -1.6195,0.3395 z m 296.603,95.2537 v -86.2145 h 362.4203 v 86.2145 z m -641.7856,7.4965 v -89.9623 h 362.4202 v 89.9623 z m 9.5721,20.3485 -1.6211,-0.3395 -1.5143,-0.6697 -1.3409,-0.967 -1.1088,-1.2223 -0.829,-1.4254 -0.512,-1.5657 -0.1732,-1.6363 0.1732,-1.6366 0.512,-1.5649 0.829,-1.4254 1.1088,-1.2227 1.3409,-0.9674 1.5143,-0.6697 1.6211,-0.3395 h 1.6573 l 1.6211,0.3395 1.5142,0.6697 1.3409,0.9674 1.1088,1.2227 0.8287,1.4254 0.5122,1.5649 0.1734,1.6366 -0.1734,1.6363 -0.5122,1.5657 -0.8287,1.4254 -1.1088,1.2223 -1.3409,0.967 -1.5142,0.6697 -1.6211,0.3395 z m 997.6804,1.5419 -1.4308,-0.298 -1.3327,-0.5897 -1.1816,-0.8519 -0.9778,-1.0775 -0.7285,-1.2552 -0.4532,-1.3793 -0.151,-1.4416 0.151,-1.4416 0.4532,-1.3789 0.7285,-1.2556 0.9778,-1.0771 1.1816,-0.8519 1.3327,-0.5897 1.4308,-0.3018 h 1.4573 l 1.4306,0.3018 1.3328,0.5897 1.1816,0.8519 0.9778,1.0771 0.7287,1.2556 0.4529,1.3789 0.1511,1.4416 -0.1511,1.4416 -0.4529,1.3793 -0.7287,1.2552 -0.9778,1.0775 -1.1816,0.8519 -1.3328,0.5897 -1.4306,0.298 z m -634.2353,0 -1.4308,-0.298 -1.3327,-0.5897 -1.1816,-0.8519 -0.9778,-1.0775 -0.7286,-1.2552 -0.453,-1.3793 -0.151,-1.4416 0.151,-1.4416 0.453,-1.3789 0.7286,-1.2556 0.9778,-1.0771 1.1816,-0.8519 1.3327,-0.5897 1.4308,-0.3018 h 1.4572 l 1.4308,0.3018 1.3327,0.5897 1.1817,0.8519 0.9775,1.0771 0.7288,1.2556 0.4531,1.3789 0.151,1.4416 -0.151,1.4416 -0.4531,1.3793 -0.7288,1.2552 -0.9775,1.0775 -1.1817,0.8519 -1.3327,0.5897 -1.4308,0.298 z m 256.7144,0 -1.4311,-0.298 -1.3324,-0.5897 -1.1818,-0.8519 -0.9776,-1.0775 -0.7287,-1.2552 -0.453,-1.3793 -0.151,-1.4416 0.151,-1.4416 0.453,-1.3789 0.7287,-1.2556 0.9776,-1.0771 1.1818,-0.8519 1.3324,-0.5897 1.4311,-0.3018 h 1.4569 l 1.4312,0.3018 1.3324,0.5897 1.1817,0.8519 0.9777,1.0771 0.7286,1.2556 0.453,1.3789 0.1511,1.4416 -0.1511,1.4416 -0.453,1.3793 -0.7286,1.2552 -0.9777,1.0775 -1.1817,0.8519 -1.3324,0.5897 -1.4312,0.298 z m -453.0254,0 -1.4308,-0.298 -1.3326,-0.5897 -1.1816,-0.8519 -0.9778,-1.0775 -0.7287,-1.2552 -0.453,-1.3793 -0.151,-1.4416 0.151,-1.4416 0.453,-1.3789 0.7287,-1.2556 0.9778,-1.0771 1.1816,-0.8519 1.3326,-0.5897 1.4308,-0.3018 h 1.4573 l 1.4308,0.3018 1.3326,0.5897 1.1817,0.8519 0.9778,1.0771 0.7286,1.2556 0.453,1.3789 0.151,1.4416 -0.151,1.4416 -0.453,1.3793 -0.7286,1.2552 -0.9778,1.0775 -1.1817,0.8519 -1.3326,0.5897 -1.4308,0.298 z m 641.7858,0 -1.4308,-0.298 -1.3327,-0.5897 -1.1817,-0.8519 -0.9777,-1.0775 -0.7288,-1.2552 -0.4527,-1.3793 -0.1511,-1.4416 0.1511,-1.4416 0.4527,-1.3789 0.7288,-1.2556 0.9777,-1.0771 1.1817,-0.8519 1.3327,-0.5897 1.4308,-0.3018 h 1.4573 l 1.4308,0.3018 1.3325,0.5897 1.1817,0.8519 0.9779,1.0771 0.7285,1.2556 0.453,1.3789 0.151,1.4416 -0.151,1.4416 -0.453,1.3793 -0.7285,1.2552 -0.9779,1.0775 -1.1817,0.8519 -1.3325,0.5897 -1.4308,0.298 z"
       inkscape:connector-curvature="0"
       style="fill:none;stroke:#000000;stroke-width:3.77952756;stroke-opacity:1;stroke-miterlimit:4;stroke-dasharray:none" />
    <path
       id="path4288"
       d="m 1397.66,1102.704 2.4763,-23.5428 7.3158,-22.5133 11.8343,-20.5005 15.8434,-17.5916 19.1539,-13.9144 21.6264,-9.62834 23.1591,-4.92132 h 23.6763 l 23.159,4.92132 6.9156,3.07971 V -238.23802 h -37.7491 v -37.74432 H 38.692758 v 37.74432 H 0.94366742 V 1083.832 H 38.692758 v 37.744 H 1399.6456 Z m 72.5387,-1292.89732 -5.7907,-1.23044 -5.4057,-2.40809 -4.7866,-3.47626 -3.9637,-4.401 -2.9595,-5.12189 -1.827,-5.63144 -0.6192,-5.88435 0.6192,-5.88432 1.827,-5.63144 2.9595,-5.12193 3.9637,-4.40096 4.7866,-3.47625 5.4057,-2.4081 5.7907,-1.23048 h 5.9191 l 5.7907,1.23048 5.4056,2.4081 4.7866,3.47625 3.9637,4.40096 2.9595,5.12193 1.8271,5.63144 0.619,5.88432 -0.619,5.88435 -1.8271,5.63144 -2.9595,5.12189 -3.9637,4.401 -4.7866,3.47626 -5.4056,2.40809 -5.7907,1.23044 z m -1396.71638,0 -5.7892,-1.23044 -5.40718,-2.40809 -4.788473,-3.47626 -3.960257,-4.401 -2.959528,-5.12189 -1.828943,-5.63144 -0.618708,-5.88435 0.618708,-5.88432 1.828943,-5.63144 2.959528,-5.12193 3.960257,-4.40096 4.788473,-3.47625 5.40718,-2.4081 5.7892,-1.23048 h 5.919058 l 5.7892,1.23048 5.40718,2.4081 4.788472,3.47625 3.960257,4.40096 2.959523,5.12193 1.82895,5.63144 0.61871,5.88432 -0.61871,5.88435 -1.82895,5.63144 -2.959523,5.12189 -3.960257,4.401 -4.788472,3.47626 -5.40718,2.40809 -5.7892,1.23044 z m 338.20543,67.6076 -1.04942,-0.33975 -0.95884,-0.55109 -0.81914,-0.73979 -0.64929,-0.89454 -0.44922,-1.00777 -0.23027,-1.08325 v -1.10214 l 0.23027,-1.08328 0.44922,-1.00777 0.64929,-0.89451 0.81914,-0.73982 0.95884,-0.55105 1.04942,-0.33976 1.0985,-0.11715 1.0985,0.11715 1.04942,0.33976 0.95882,0.55105 0.81916,0.73982 0.64929,0.89451 0.44921,1.00777 0.23028,1.08328 v 1.10214 l -0.23028,1.08325 -0.44921,1.00777 -0.64929,0.89454 -0.81916,0.73979 -0.95882,0.55109 -1.04942,0.33975 -1.0985,0.11716 z m 864.45415,44.153303 -1.0494,-0.339753 -0.9589,-0.551051 -0.8191,-0.739786 -0.6493,-0.894546 -0.4491,-1.007772 -0.2303,-1.083281 v -1.102139 l 0.2303,-1.083243 0.4491,-1.007772 0.6493,-0.894546 0.8191,-0.739786 0.9589,-0.551051 1.0494,-0.339753 1.0985,-0.117157 1.0985,0.117157 1.0494,0.339753 0.9589,0.551051 0.8192,0.739786 0.6492,0.894546 0.4492,1.007772 0.2303,1.083243 v 1.102139 l -0.2303,1.083281 -0.4492,1.007772 -0.6492,0.894546 -0.8192,0.739786 -0.9589,0.551051 -1.0494,0.339753 -1.0985,0.117157 z m -181.1956,0 -1.0495,-0.339753 -0.9588,-0.551051 -0.8191,-0.739786 -0.6493,-0.894546 -0.4493,-1.007772 -0.2302,-1.083281 v -1.102139 l 0.2302,-1.083243 0.4493,-1.007772 0.6493,-0.894546 0.8191,-0.739786 0.9588,-0.551051 1.0495,-0.339753 1.0985,-0.117157 1.0985,0.117157 1.0494,0.339753 0.9588,0.551051 0.8192,0.739786 0.6493,0.894546 0.4492,1.007772 0.2303,1.083243 v 1.102139 l -0.2303,1.083281 -0.4492,1.007772 -0.6493,0.894546 -0.8192,0.739786 -0.9588,0.551051 -1.0494,0.339753 -1.0985,0.117157 z m -856.91343,10.458931 -1.42805,-0.305741 -1.33367,-0.592584 -1.18117,-0.856792 -0.97695,-1.087022 -0.73006,-1.26442 -0.45111,-1.385242 -0.15251,-1.453155 0.15251,-1.453156 0.45111,-1.385204 0.73006,-1.26442 0.97695,-1.08706 1.18117,-0.856791 1.33367,-0.592585 1.42805,-0.305741 h 1.46014 l 1.42805,0.305741 1.33367,0.592585 1.18117,0.856791 0.97694,1.08706 0.72969,1.26442 0.45149,1.385204 0.1525,1.453156 -0.1525,1.453155 -0.45149,1.385242 -0.72969,1.26442 -0.97694,1.087022 -1.18117,0.856792 -1.33367,0.592584 -1.42805,0.305741 z m 339.74333,0 -1.4307,-0.305741 -1.33254,-0.592584 -1.18154,-0.856792 -0.9777,-1.087022 -0.72856,-1.26442 -0.45299,-1.385242 -0.151,-1.453155 0.151,-1.453156 0.45299,-1.385204 0.72856,-1.26442 0.9777,-1.08706 1.18154,-0.856791 1.33254,-0.592585 1.4307,-0.305741 h 1.45711 l 1.43069,0.305741 1.33255,0.592585 1.18154,0.856791 0.9777,1.08706 0.72856,1.26442 0.453,1.385204 0.15099,1.453156 -0.15099,1.453155 -0.453,1.385242 -0.72856,1.26442 -0.9777,1.087022 -1.18154,0.856792 -1.33255,0.592584 -1.43069,0.305741 z m 339.74181,0 -1.43069,-0.305741 -1.33254,-0.592584 -1.18154,-0.856792 -0.9777,-1.087022 -0.72856,-1.26442 -0.453,-1.385242 -0.15099,-1.453155 0.15099,-1.453156 0.453,-1.385204 0.72856,-1.26442 0.9777,-1.08706 1.18154,-0.856791 1.33254,-0.592585 1.43069,-0.305741 h 1.45712 l 1.4307,0.305741 1.33253,0.592585 1.18155,0.856791 0.9777,1.08706 0.72856,1.26442 0.45299,1.385204 0.151,1.453156 -0.151,1.453155 -0.45299,1.385242 -0.72856,1.26442 -0.9777,1.087022 -1.18155,0.856792 -1.33253,0.592584 -1.4307,0.305741 z m 339.74179,0 -1.4307,-0.305741 -1.3325,-0.592584 -1.1816,-0.856792 -0.9776,-1.087022 -0.7286,-1.26442 -0.453,-1.385242 -0.151,-1.453155 0.151,-1.453156 0.453,-1.385204 0.7286,-1.26442 0.9776,-1.08706 1.1816,-0.856791 1.3325,-0.592585 1.4307,-0.305741 h 1.4571 l 1.4308,0.305741 1.3325,0.592585 1.1815,0.856791 0.9777,1.08706 0.7286,1.26442 0.4529,1.385204 0.151,1.453156 -0.151,1.453155 -0.4529,1.385242 -0.7286,1.26442 -0.9777,1.087022 -1.1815,0.856792 -1.3325,0.592584 -1.4308,0.305741 z m -509.93356,18.657006 -1.04942,-0.339754 -0.95884,-0.551088 -0.81915,-0.739786 -0.64928,-0.894546 -0.44921,-1.007772 -0.23028,-1.083243 v -1.10214 l 0.23028,-1.083281 0.44921,-1.007772 0.64928,-0.894508 0.81915,-0.739786 0.95884,-0.551088 1.04942,-0.339754 1.0985,-0.117156 1.09849,0.117156 1.04943,0.339754 0.95883,0.551088 0.81915,0.739786 0.64929,0.894508 0.44921,1.007772 0.23027,1.083281 v 1.10214 l -0.23027,1.083243 -0.44921,1.007772 -0.64929,0.894546 -0.81915,0.739786 -0.95883,0.551088 -1.04943,0.339754 -1.09849,0.117156 z m -9.39575,166.26742 -1.04942,-0.33975 -0.95883,-0.55109 -0.81915,-0.73978 -0.64929,-0.89455 -0.44922,-1.00777 -0.23026,-1.08324 v -1.10214 l 0.23026,-1.08325 0.44922,-1.00781 0.64929,-0.8945 0.81915,-0.73979 0.95883,-0.55109 1.04942,-0.33975 1.0985,-0.11716 1.0985,0.11716 1.04942,0.33975 0.95883,0.55109 0.81915,0.73979 0.64929,0.8945 0.44921,1.00781 0.23028,1.08325 v 1.10214 l -0.23028,1.08324 -0.44921,1.00777 -0.64929,0.89455 -0.81915,0.73978 -0.95883,0.55109 -1.04942,0.33975 -1.0985,0.11716 z m -326.24274,85.48333 -1.04942,-0.33976 -0.95884,-0.55105 -0.81914,-0.73978 -0.64929,-0.89455 -0.44922,-1.00777 -0.23027,-1.08328 v -1.10214 l 0.23027,-1.08325 0.44922,-1.00777 0.64929,-0.89454 0.81914,-0.73979 0.95884,-0.55109 1.04942,-0.33975 1.0985,-0.11716 1.0985,0.11716 1.04942,0.33975 0.95882,0.55109 0.81916,0.73979 0.64929,0.89454 0.44921,1.00777 0.23028,1.08325 v 1.10214 l -0.23028,1.08328 -0.44921,1.00777 -0.64929,0.89455 -0.81916,0.73978 -0.95882,0.55105 -1.04942,0.33976 -1.0985,0.11715 z m 845.57205,69.29098 -1.4307,-0.30574 -1.3325,-0.59258 -1.1816,-0.8568 -0.9776,-1.08702 -0.7286,-1.26446 -0.453,-1.3852 -0.151,-1.45316 0.151,-1.45315 0.453,-1.38521 0.7286,-1.26445 0.9776,-1.08703 1.1816,-0.85679 1.3325,-0.59258 1.4307,-0.30574 h 1.4571 l 1.4308,0.30574 1.3325,0.59258 1.1815,0.85679 0.9777,1.08703 0.7286,1.26445 0.4529,1.38521 0.151,1.45315 -0.151,1.45316 -0.4529,1.3852 -0.7286,1.26446 -0.9777,1.08702 -1.1815,0.8568 -1.3325,0.59258 -1.4308,0.30574 z m -339.74179,0 -1.43069,-0.30574 -1.33254,-0.59258 -1.18154,-0.8568 -0.9777,-1.08702 -0.72856,-1.26446 -0.453,-1.3852 -0.15099,-1.45316 0.15099,-1.45315 0.453,-1.38521 0.72856,-1.26445 0.9777,-1.08703 1.18154,-0.85679 1.33254,-0.59258 1.43069,-0.30574 h 1.45712 l 1.4307,0.30574 1.33253,0.59258 1.18155,0.85679 0.9777,1.08703 0.72856,1.26445 0.45299,1.38521 0.151,1.45315 -0.151,1.45316 -0.45299,1.3852 -0.72856,1.26446 -0.9777,1.08702 -1.18155,0.8568 -1.33253,0.59258 -1.4307,0.30574 z m -339.74181,0 -1.4307,-0.30574 -1.33254,-0.59258 -1.18154,-0.8568 -0.9777,-1.08702 -0.72856,-1.26446 -0.45299,-1.3852 -0.151,-1.45316 0.151,-1.45315 0.45299,-1.38521 0.72856,-1.26445 0.9777,-1.08703 1.18154,-0.85679 1.33254,-0.59258 1.4307,-0.30574 h 1.45711 l 1.43069,0.30574 1.33255,0.59258 1.18154,0.85679 0.9777,1.08703 0.72856,1.26445 0.453,1.38521 0.15099,1.45315 -0.15099,1.45316 -0.453,1.3852 -0.72856,1.26446 -0.9777,1.08702 -1.18154,0.8568 -1.33255,0.59258 -1.43069,0.30574 z m -339.74333,0 -1.42805,-0.30574 -1.33367,-0.59258 -1.18117,-0.8568 -0.97695,-1.08702 -0.73006,-1.26446 -0.45111,-1.3852 -0.15251,-1.45316 0.15251,-1.45315 0.45111,-1.38521 0.73006,-1.26445 0.97695,-1.08703 1.18117,-0.85679 1.33367,-0.59258 1.42805,-0.30574 h 1.46014 l 1.42805,0.30574 1.33367,0.59258 1.18117,0.85679 0.97694,1.08703 0.72969,1.26445 0.45149,1.38521 0.1525,1.45315 -0.1525,1.45316 -0.45149,1.3852 -0.72969,1.26446 -0.97694,1.08702 -1.18117,0.8568 -1.33367,0.59258 -1.42805,0.30574 z m 856.91343,-2.91009 -1.0495,-0.33975 -0.9588,-0.55105 -0.8191,-0.73979 -0.6493,-0.89455 -0.4493,-1.00777 -0.2302,-1.08328 v -1.1021 l 0.2302,-1.08328 0.4493,-1.00777 0.6493,-0.89455 0.8191,-0.73978 0.9588,-0.55106 1.0495,-0.33975 1.0985,-0.11716 1.0985,0.11716 1.0494,0.33975 0.9588,0.55106 0.8192,0.73978 0.6493,0.89455 0.4492,1.00777 0.2303,1.08328 v 1.1021 l -0.2303,1.08328 -0.4492,1.00777 -0.6493,0.89455 -0.8192,0.73979 -0.9588,0.55105 -1.0494,0.33975 -1.0985,0.11716 z m 181.1956,0 -1.0494,-0.33975 -0.9589,-0.55105 -0.8191,-0.73979 -0.6493,-0.89455 -0.4491,-1.00777 -0.2303,-1.08328 v -1.1021 l 0.2303,-1.08328 0.4491,-1.00777 0.6493,-0.89455 0.8191,-0.73978 0.9589,-0.55106 1.0494,-0.33975 1.0985,-0.11716 1.0985,0.11716 1.0494,0.33975 0.9589,0.55106 0.8192,0.73978 0.6492,0.89455 0.4492,1.00777 0.2303,1.08328 v 1.1021 l -0.2303,1.08328 -0.4492,1.00777 -0.6492,0.89455 -0.8192,0.73979 -0.9589,0.55105 -1.0494,0.33975 -1.0985,0.11716 z m 14.2729,141.09199 -1.0494,-0.33976 -0.9588,-0.55105 -0.8191,-0.73982 -0.6493,-0.89451 -0.4493,-1.00777 -0.2302,-1.08328 v -1.10214 l 0.2302,-1.08324 0.4493,-1.00778 0.6493,-0.89454 0.8191,-0.73979 0.9588,-0.55109 1.0494,-0.33975 1.0986,-0.11716 1.0984,0.11716 1.0495,0.33975 0.9588,0.55109 0.8191,0.73979 0.6494,0.89454 0.4492,1.00778 0.2303,1.08324 v 1.10214 l -0.2303,1.08328 -0.4492,1.00777 -0.6494,0.89451 -0.8191,0.73982 -0.9588,0.55105 -1.0495,0.33976 -1.0984,0.11715 z m -326.65415,0.9436 -1.04942,-0.33976 -0.95884,-0.55105 -0.81914,-0.73978 -0.64929,-0.89455 -0.44921,-1.00777 -0.23028,-1.08328 v -1.10214 l 0.23028,-1.08324 0.44921,-1.00778 0.64929,-0.89454 0.81914,-0.73979 0.95884,-0.55105 1.04942,-0.33975 1.0985,-0.11716 1.0985,0.11716 1.04942,0.33975 0.95883,0.55105 0.81915,0.73979 0.64929,0.89454 0.44921,1.00778 0.23027,1.08324 v 1.10214 l -0.23027,1.08328 -0.44921,1.00777 -0.64929,0.89455 -0.81915,0.73978 -0.95883,0.55105 -1.04942,0.33976 -1.0985,0.11715 z m -189.13427,112.82524 -1.0834,-0.23015 -1.00789,-0.44916 -0.89467,-0.6492 -0.73987,-0.81904 -0.55114,-0.95872 -0.33974,-1.0493 -0.11702,-1.09836 0.11702,-1.09836 0.33974,-1.04927 0.55114,-0.95872 0.73987,-0.81903 0.89467,-0.6492 1.00789,-0.44916 1.0834,-0.23016 h 1.10227 l 1.0834,0.23016 1.00791,0.44916 0.89465,0.6492 0.73988,0.81903 0.55114,0.95872 0.33974,1.04927 0.11702,1.09836 -0.11702,1.09836 -0.33974,1.0493 -0.55114,0.95872 -0.73988,0.81904 -0.89465,0.6492 -1.00791,0.44916 -1.0834,0.23015 z m -209.80189,14.72029 -1.0834,-0.23016 -1.00791,-0.44916 -0.89465,-0.6492 -0.73988,-0.81907 -0.55114,-0.95868 -0.33974,-1.04931 -0.11702,-1.09836 0.11702,-1.09836 0.33974,-1.04926 0.55114,-0.95872 0.73988,-0.81904 0.89465,-0.64923 1.00791,-0.44913 1.0834,-0.23015 h 1.10227 l 1.0834,0.23015 1.0079,0.44913 0.89465,0.64923 0.73989,0.81904 0.55113,0.95872 0.33974,1.04926 0.11702,1.09836 -0.11702,1.09836 -0.33974,1.04931 -0.55113,0.95868 -0.73989,0.81907 -0.89465,0.6492 -1.0079,0.44916 -1.0834,0.23016 z m -418.92922,51.64931 -1.08075,-0.23016 -1.00942,-0.44916 -0.8939,-0.6492 -0.73912,-0.81907 -0.55265,-0.95868 -0.34126,-1.04931 -0.11551,-1.09836 0.11551,-1.09836 0.34126,-1.0493 0.55265,-0.95868 0.73912,-0.81908 0.8939,-0.64919 1.00942,-0.44917 1.08075,-0.23015 h 1.10454 l 1.08076,0.23015 1.0094,0.44917 0.8939,0.64919 0.73913,0.81908 0.55265,0.95868 0.34125,1.0493 0.11551,1.09836 -0.11551,1.09836 -0.34125,1.04931 -0.55265,0.95868 -0.73913,0.81907 -0.8939,0.6492 -1.0094,0.44916 -1.08076,0.23016 z m 771.62274,21.37836 -1.43069,-0.30574 -1.33254,-0.59259 -1.18154,-0.85683 -0.9777,-1.08702 -0.72856,-1.26442 -0.453,-1.38524 -0.15099,-1.45316 0.15099,-1.45315 0.453,-1.3852 0.72856,-1.26442 0.9777,-1.08706 1.18154,-0.8568 1.33254,-0.59258 1.43069,-0.30574 h 1.45712 l 1.4307,0.30574 1.33253,0.59258 1.18155,0.8568 0.9777,1.08706 0.72856,1.26442 0.45299,1.3852 0.151,1.45315 -0.151,1.45316 -0.45299,1.38524 -0.72856,1.26442 -0.9777,1.08702 -1.18155,0.85683 -1.33253,0.59259 -1.4307,0.30574 z m 339.74179,0 -1.4307,-0.30574 -1.3325,-0.59259 -1.1816,-0.85683 -0.9776,-1.08702 -0.7286,-1.26442 -0.453,-1.38524 -0.151,-1.45316 0.151,-1.45315 0.453,-1.3852 0.7286,-1.26442 0.9776,-1.08706 1.1816,-0.8568 1.3325,-0.59258 1.4307,-0.30574 h 1.4571 l 1.4308,0.30574 1.3325,0.59258 1.1815,0.8568 0.9777,1.08706 0.7286,1.26442 0.4529,1.3852 0.151,1.45315 -0.151,1.45316 -0.4529,1.38524 -0.7286,1.26442 -0.9777,1.08702 -1.1815,0.85683 -1.3325,0.59259 -1.4308,0.30574 z m -1019.22693,0 -1.42805,-0.30574 -1.33367,-0.59259 -1.18117,-0.85683 -0.97695,-1.08702 -0.73006,-1.26442 -0.45111,-1.38524 -0.15251,-1.45316 0.15251,-1.45315 0.45111,-1.3852 0.73006,-1.26442 0.97695,-1.08706 1.18117,-0.8568 1.33367,-0.59258 1.42805,-0.30574 h 1.46014 l 1.42805,0.30574 1.33367,0.59258 1.18117,0.8568 0.97694,1.08706 0.72969,1.26442 0.45149,1.3852 0.1525,1.45315 -0.1525,1.45316 -0.45149,1.38524 -0.72969,1.26442 -0.97694,1.08702 -1.18117,0.85683 -1.33367,0.59259 -1.42805,0.30574 z m 339.74333,0 -1.4307,-0.30574 -1.33254,-0.59259 -1.18154,-0.85683 -0.9777,-1.08702 -0.72856,-1.26442 -0.45299,-1.38524 -0.151,-1.45316 0.151,-1.45315 0.45299,-1.3852 0.72856,-1.26442 0.9777,-1.08706 1.18154,-0.8568 1.33254,-0.59258 1.4307,-0.30574 h 1.45711 l 1.43069,0.30574 1.33255,0.59258 1.18154,0.8568 0.9777,1.08706 0.72856,1.26442 0.453,1.3852 0.15099,1.45315 -0.15099,1.45316 -0.453,1.38524 -0.72856,1.26442 -0.9777,1.08702 -1.18154,0.85683 -1.33255,0.59259 -1.43069,0.30574 z m -268.26505,108.66612 -1.08075,-0.23054 -1.00942,-0.44935 -0.8939,-0.64927 -0.73912,-0.81896 -0.55265,-0.9588 -0.34125,-1.04911 -0.11552,-1.09825 0.11552,-1.09862 0.34125,-1.04912 0.55265,-0.95879 0.73912,-0.81896 0.8939,-0.64928 1.00942,-0.44935 1.08075,-0.23053 h 1.10454 l 1.08076,0.23053 1.0094,0.44935 0.89391,0.64928 0.73912,0.81896 0.55265,0.95879 0.34125,1.04912 0.11551,1.09862 -0.11551,1.09825 -0.34125,1.04911 -0.55265,0.9588 -0.73912,0.81896 -0.89391,0.64927 -1.0094,0.44935 -1.08076,0.23054 z m 465.49272,4.00826 -1.08339,-0.23054 -1.00791,-0.44897 -0.89465,-0.64927 -0.73988,-0.81896 -0.55114,-0.9588 -0.33975,-1.04949 -0.11702,-1.09825 0.11702,-1.09825 0.33975,-1.04949 0.55114,-0.95879 0.73988,-0.81896 0.89465,-0.64928 1.00791,-0.44897 1.08339,-0.23053 h 1.10228 l 1.0834,0.23053 1.00789,0.44897 0.89466,0.64928 0.73988,0.81896 0.55114,0.95879 0.33974,1.04949 0.11702,1.09825 -0.11702,1.09825 -0.33974,1.04949 -0.55114,0.9588 -0.73988,0.81896 -0.89466,0.64927 -1.00789,0.44897 -1.0834,0.23054 z m -209.88494,7.54903 -1.0834,-0.23054 -1.0079,-0.44935 -0.89465,-0.64927 -0.73989,-0.81896 -0.55113,-0.9588 -0.33974,-1.04911 -0.11703,-1.09825 0.11703,-1.09862 0.33974,-1.04912 0.55113,-0.95879 0.73989,-0.81896 0.89465,-0.64928 1.0079,-0.44935 1.0834,-0.23053 h 1.10227 l 1.0834,0.23053 1.0079,0.44935 0.89466,0.64928 0.73987,0.81896 0.55115,0.95879 0.33974,1.04912 0.11702,1.09862 -0.11702,1.09825 -0.33974,1.04911 -0.55115,0.9588 -0.73987,0.81896 -0.89466,0.64927 -1.0079,0.44935 -1.0834,0.23054 z m 726.23967,15.26132 -1.0494,-0.34013 -0.9589,-0.5529 -0.8191,-0.73885 -0.6493,-0.89379 -0.4492,-1.00792 -0.2303,-1.08313 v -1.10202 l 0.2303,-1.08351 0.4492,-1.00755 0.6493,-0.89454 0.8191,-0.73998 0.9589,-0.55101 1.0494,-0.34013 1.0985,-0.11716 1.0985,0.11716 1.0494,0.34013 0.9589,0.55101 0.8191,0.73998 0.6493,0.89454 0.4491,1.00755 0.2303,1.08351 v 1.10202 l -0.2303,1.08313 -0.4491,1.00792 -0.6493,0.89379 -0.8191,0.73885 -0.9589,0.5529 -1.0494,0.34013 -1.0985,0.11716 z m -661.25084,58.25432 -1.0834,-0.23053 -1.0079,-0.44973 -0.89465,-0.6489 -0.73989,-0.82123 -0.55113,-0.9569 -0.33974,-1.05025 -0.11702,-1.09862 0.11702,-1.09901 0.33974,-1.05025 0.55113,-0.9569 0.73989,-0.82085 0.89465,-0.64927 1.0079,-0.44936 1.0834,-0.23053 h 1.10227 l 1.0834,0.23053 1.00791,0.44936 0.89465,0.64927 0.73988,0.82085 0.55114,0.9569 0.33974,1.05025 0.11702,1.09901 -0.11702,1.09862 -0.33974,1.05025 -0.55114,0.9569 -0.73988,0.82123 -0.89465,0.6489 -1.00791,0.44973 -1.0834,0.23053 z m 333.65289,8.76821 -1.04942,-0.34013 -0.95884,-0.5529 -0.81914,-0.73884 -0.64929,-0.89379 -0.44921,-1.00944 -0.23028,-1.08048 v -1.1043 l 0.23028,-1.08086 0.44921,-1.00905 0.64929,-0.89379 0.81914,-0.73922 0.95884,-0.55253 1.04942,-0.34013 1.0985,-0.11716 1.0985,0.11716 1.04942,0.34013 0.95883,0.55253 0.81915,0.73922 0.64929,0.89379 0.44921,1.00905 0.23027,1.08086 v 1.1043 l -0.23027,1.08048 -0.44921,1.00944 -0.64929,0.89379 -0.81915,0.73884 -0.95883,0.5529 -1.04942,0.34013 -1.0985,0.11716 z m -391.98656,105.01182 -1.0834,-0.23053 -1.00789,-0.44935 -0.89466,-0.64927 -0.73989,-0.82086 -0.55113,-0.9569 -0.33974,-1.05063 -0.11702,-1.09862 0.11702,-1.09863 0.33974,-1.05063 0.55113,-0.95652 0.73989,-0.82123 0.89466,-0.64889 1.00789,-0.44973 1.0834,-0.23054 h 1.10227 l 1.0834,0.23054 1.00791,0.44973 0.89465,0.64889 0.73988,0.82123 0.55114,0.95652 0.33974,1.05063 0.11702,1.09863 -0.11702,1.09862 -0.33974,1.05063 -0.55114,0.9569 -0.73988,0.82086 -0.89465,0.64927 -1.00791,0.44935 -1.0834,0.23053 z m 259.15128,0 -1.0834,-0.23053 -1.00789,-0.44935 -0.89465,-0.64927 -0.73989,-0.82086 -0.55113,-0.9569 -0.33975,-1.05063 -0.11702,-1.09862 0.11702,-1.09863 0.33975,-1.05063 0.55113,-0.95652 0.73989,-0.82123 0.89465,-0.64889 1.00789,-0.44973 1.0834,-0.23054 h 1.10228 l 1.08339,0.23054 1.00791,0.44973 0.89465,0.64889 0.73988,0.82123 0.55114,0.95652 0.33975,1.05063 0.11702,1.09863 -0.11702,1.09862 -0.33975,1.05063 -0.55114,0.9569 -0.73988,0.82086 -0.89465,0.64927 -1.00791,0.44935 -1.08339,0.23053 z m -339.22842,2.18176 -1.0834,-0.23054 -1.00791,-0.44973 -0.89465,-0.64889 -0.73988,-0.82123 -0.55113,-0.95652 -0.33974,-1.05063 -0.11703,-1.09863 0.11703,-1.09862 0.33974,-1.05063 0.55113,-0.9569 0.73988,-0.82085 0.89465,-0.64928 1.00791,-0.44935 1.0834,-0.23053 h 1.10227 l 1.0834,0.23053 1.0079,0.44935 0.89466,0.64928 0.73988,0.82085 0.55113,0.9569 0.33974,1.05063 0.11702,1.09862 -0.11702,1.09863 -0.33974,1.05063 -0.55113,0.95652 -0.73988,0.82123 -0.89466,0.64889 -1.0079,0.44973 -1.0834,0.23054 z m -253.66408,29.99771 -1.42805,-0.30234 -1.33367,-0.59372 -1.18117,-0.85827 -0.97695,-1.08464 -0.73006,-1.26415 -0.45111,-1.38887 -0.15251,-1.45161 0.15251,-1.4516 0.45111,-1.3885 0.73006,-1.26415 0.97695,-1.08464 1.18117,-0.85789 1.33367,-0.59372 1.42805,-0.30612 h 1.46014 l 1.42805,0.30612 1.33367,0.59372 1.18117,0.85789 0.97694,1.08464 0.72969,1.26415 0.45149,1.3885 0.1525,1.4516 -0.1525,1.45161 -0.45149,1.38887 -0.72969,1.26415 -0.97694,1.08464 -1.18117,0.85827 -1.33367,0.59372 -1.42805,0.30234 z m 1019.22693,0 -1.4307,-0.30234 -1.3325,-0.59372 -1.1816,-0.85827 -0.9776,-1.08464 -0.7286,-1.26415 -0.453,-1.38887 -0.151,-1.45161 0.151,-1.4516 0.453,-1.3885 0.7286,-1.26415 0.9776,-1.08464 1.1816,-0.85789 1.3325,-0.59372 1.4307,-0.30612 h 1.4571 l 1.4308,0.30612 1.3325,0.59372 1.1815,0.85789 0.9777,1.08464 0.7286,1.26415 0.4529,1.3885 0.151,1.4516 -0.151,1.45161 -0.4529,1.38887 -0.7286,1.26415 -0.9777,1.08464 -1.1815,0.85827 -1.3325,0.59372 -1.4308,0.30234 z m -679.4836,0 -1.4307,-0.30234 -1.33254,-0.59372 -1.18154,-0.85827 -0.9777,-1.08464 -0.72856,-1.26415 -0.45299,-1.38887 -0.151,-1.45161 0.151,-1.4516 0.45299,-1.3885 0.72856,-1.26415 0.9777,-1.08464 1.18154,-0.85789 1.33254,-0.59372 1.4307,-0.30612 h 1.45711 l 1.43069,0.30612 1.33255,0.59372 1.18154,0.85789 0.9777,1.08464 0.72856,1.26415 0.453,1.3885 0.15099,1.4516 -0.15099,1.45161 -0.453,1.38887 -0.72856,1.26415 -0.9777,1.08464 -1.18154,0.85827 -1.33255,0.59372 -1.43069,0.30234 z m 339.74181,0 -1.43069,-0.30234 -1.33254,-0.59372 -1.18154,-0.85827 -0.9777,-1.08464 -0.72856,-1.26415 -0.453,-1.38887 -0.15099,-1.45161 0.15099,-1.4516 0.453,-1.3885 0.72856,-1.26415 0.9777,-1.08464 1.18154,-0.85789 1.33254,-0.59372 1.43069,-0.30612 h 1.45712 l 1.4307,0.30612 1.33253,0.59372 1.18155,0.85789 0.9777,1.08464 0.72856,1.26415 0.45299,1.3885 0.151,1.4516 -0.151,1.45161 -0.45299,1.38887 -0.72856,1.26415 -0.9777,1.08464 -1.18155,0.85827 -1.33253,0.59372 -1.4307,0.30234 z"
       inkscape:connector-curvature="0"
       style="fill:none;stroke:#000000;stroke-width:3.77952756;stroke-opacity:1;stroke-miterlimit:4;stroke-dasharray:none" />
    <path
       id="path155"
       d="m 4536.931,651.2666 h -1399.34 v 226.8171 h 1399.34 z m -1321.4744,50.7081 -2.0733,-0.4371 -1.9368,-0.8552 -1.7146,-1.2353 -1.4187,-1.5625 -1.0599,-1.8201 -0.655,-1.9995 -0.223,-2.0906 0.223,-2.0905 0.655,-1.9992 1.0599,-1.8204 1.4187,-1.5621 1.7146,-1.2357 1.9368,-0.8549 2.0733,-0.4371 h 2.1198 l 2.0733,0.4371 1.9365,0.8549 1.715,1.2357 1.4186,1.5621 1.0598,1.8204 0.6551,1.9992 0.2231,2.0905 -0.2231,2.0906 -0.6551,1.9995 -1.0598,1.8201 -1.4186,1.5625 -1.715,1.2353 -1.9365,0.8552 -2.0733,0.4371 z m 55.0215,120.9364 -14.5256,-3.0618 -13.5659,-5.9896 -12.0138,-8.6558 -9.9369,-10.9435 -7.4245,-12.7535 -4.5892,-14.0049 -1.5521,-14.6457 1.5521,-14.6453 4.5892,-14.0054 7.4245,-12.7531 9.9369,-10.9435 12.0138,-8.6554 13.5659,-5.9899 14.5256,-3.0615 h 14.8499 l 14.5252,3.0615 13.5663,5.9899 12.0138,8.6554 9.9364,10.9435 7.425,12.7531 4.5889,14.0054 1.5524,14.6453 -1.5524,14.6457 -4.5889,14.0049 -7.425,12.7535 -9.9364,10.9435 -12.0138,8.6558 -13.5663,5.9896 -14.5252,3.0618 z m 71.2669,-117.1882 -2.0733,-0.4371 -1.9368,-0.8548 -1.7146,-1.2357 -1.4187,-1.5621 -1.0599,-1.8205 -0.6551,-1.9995 -0.2229,-2.0902 0.2229,-2.0905 0.6551,-1.9996 1.0599,-1.82 1.4187,-1.5625 1.7146,-1.2353 1.9368,-0.8553 2.0733,-0.437 h 2.1198 l 2.0733,0.437 1.9365,0.8553 1.7149,1.2353 1.4186,1.5625 1.0599,1.82 0.6551,1.9996 0.223,2.0905 -0.223,2.0902 -0.6551,1.9995 -1.0599,1.8205 -1.4186,1.5621 -1.7149,1.2357 -1.9365,0.8548 -2.0733,0.4371 z m 861.0643,6.8301 -1.4326,-0.2985 -1.3343,-0.5897 -1.1831,-0.8522 -0.9791,-1.0774 -0.7295,-1.2553 -0.4536,-1.3789 -0.1512,-1.4419 0.1512,-1.4416 0.4536,-1.3788 0.7295,-1.2554 0.9791,-1.0773 1.1831,-0.8519 1.3343,-0.5897 1.4326,-0.3022 h 1.459 l 1.4327,0.3022 1.3343,0.5897 1.1832,0.8519 0.9789,1.0773 0.7295,1.2554 0.4536,1.3788 0.1512,1.4416 -0.1512,1.4419 -0.4536,1.3789 -0.7295,1.2553 -0.9789,1.0774 -1.1832,0.8522 -1.3343,0.5897 -1.4327,0.2985 z m -188.9978,0 -1.4326,-0.2985 -1.3343,-0.5897 -1.1832,-0.8522 -0.979,-1.0774 -0.7296,-1.2553 -0.4536,-1.3789 -0.1512,-1.4419 0.1512,-1.4416 0.4536,-1.3788 0.7296,-1.2554 0.979,-1.0773 1.1832,-0.8519 1.3343,-0.5897 1.4326,-0.3022 h 1.459 l 1.4327,0.3022 1.3343,0.5897 1.1831,0.8519 0.979,1.0773 0.7295,1.2554 0.4536,1.3788 0.1512,1.4416 -0.1512,1.4419 -0.4536,1.3789 -0.7295,1.2553 -0.979,1.0774 -1.1831,0.8522 -1.3343,0.5897 -1.4327,0.2985 z m 377.9956,0 -1.4325,-0.2985 -1.3344,-0.5897 -1.1831,-0.8522 -0.9791,-1.0774 -0.7295,-1.2553 -0.4536,-1.3789 -0.1512,-1.4419 0.1512,-1.4416 0.4536,-1.3788 0.7295,-1.2554 0.9791,-1.0773 1.1831,-0.8519 1.3344,-0.5897 1.4325,-0.3022 h 1.4591 l 1.4326,0.3022 1.3344,0.5897 1.1831,0.8519 0.9789,1.0773 0.7296,1.2554 0.4536,1.3788 0.1512,1.4416 -0.1512,1.4419 -0.4536,1.3789 -0.7296,1.2553 -0.9789,1.0774 -1.1831,0.8522 -1.3344,0.5897 -1.4326,0.2985 z m -907.1911,0 -1.43,-0.2985 -1.3354,-0.5897 -1.1827,-0.8522 -0.9783,-1.0774 -0.731,-1.2553 -0.4517,-1.3789 -0.1512,-1.4419 0.1512,-1.4416 0.4517,-1.3788 0.731,-1.2554 0.9783,-1.0773 1.1827,-0.8519 1.3354,-0.5897 1.43,-0.3022 h 1.4621 l 1.43,0.3022 1.3354,0.5897 1.1828,0.8519 0.9782,1.0773 0.7306,1.2554 0.4521,1.3788 0.1513,1.4416 -0.1513,1.4419 -0.4521,1.3789 -0.7306,1.2553 -0.9782,1.0774 -1.1828,0.8522 -1.3354,0.5897 -1.43,0.2985 z m 377.9972,0 -1.4326,-0.2985 -1.3343,-0.5897 -1.1832,-0.8522 -0.9789,-1.0774 -0.7296,-1.2553 -0.4536,-1.3789 -0.1512,-1.4419 0.1512,-1.4416 0.4536,-1.3788 0.7296,-1.2554 0.9789,-1.0773 1.1832,-0.8519 1.3343,-0.5897 1.4326,-0.3022 h 1.4591 l 1.4326,0.3022 1.3343,0.5897 1.1831,0.8519 0.979,1.0773 0.7295,1.2554 0.4536,1.3788 0.1512,1.4416 -0.1512,1.4419 -0.4536,1.3789 -0.7295,1.2553 -0.979,1.0774 -1.1831,0.8522 -1.3343,0.5897 -1.4326,0.2985 z m -236.3078,4.3073 -1.546,-0.3249 -1.4439,-0.6373 -1.2776,-0.9214 -1.0584,-1.1646 -0.79,-1.3573 -0.4877,-1.4907 -0.1663,-1.5587 0.1663,-1.5587 0.4877,-1.4906 0.79,-1.3574 1.0584,-1.1646 1.2776,-0.921 1.4439,-0.6377 1.546,-0.3249 h 1.5801 l 1.546,0.3249 1.4439,0.6377 1.2776,0.921 1.0584,1.1646 0.79,1.3574 0.4877,1.4906 0.1663,1.5587 -0.1663,1.5587 -0.4877,1.4907 -0.79,1.3573 -1.0584,1.1646 -1.2776,0.9214 -1.4439,0.6373 -1.546,0.3249 z m 64.2593,0 -1.546,-0.3249 -1.444,-0.6373 -1.2776,-0.9214 -1.0584,-1.1646 -0.79,-1.3573 -0.4876,-1.4907 -0.1663,-1.5587 0.1663,-1.5587 0.4876,-1.4906 0.79,-1.3574 1.0584,-1.1646 1.2776,-0.921 1.444,-0.6377 1.546,-0.3249 h 1.58 l 1.546,0.3249 1.444,0.6377 1.2775,0.921 1.0584,1.1646 0.79,1.3574 0.4877,1.4906 0.1663,1.5587 -0.1663,1.5587 -0.4877,1.4907 -0.79,1.3573 -1.0584,1.1646 -1.2775,0.9214 -1.444,0.6373 -1.546,0.3249 z m -128.5186,0 -1.5459,-0.3249 -1.444,-0.6373 -1.2776,-0.9214 -1.0584,-1.1646 -0.7901,-1.3573 -0.4875,-1.4907 -0.1663,-1.5587 0.1663,-1.5587 0.4875,-1.4906 0.7901,-1.3574 1.0584,-1.1646 1.2776,-0.921 1.444,-0.6377 1.5459,-0.3249 h 1.5801 l 1.546,0.3249 1.444,0.6377 1.2775,0.921 1.0584,1.1646 0.79,1.3574 0.4877,1.4906 0.1663,1.5587 -0.1663,1.5587 -0.4877,1.4907 -0.79,1.3573 -1.0584,1.1646 -1.2775,0.9214 -1.444,0.6373 -1.546,0.3249 z m 192.7778,0 -1.546,-0.3249 -1.4439,-0.6373 -1.2776,-0.9214 -1.0584,-1.1646 -0.79,-1.3573 -0.4877,-1.4907 -0.1663,-1.5587 0.1663,-1.5587 0.4877,-1.4906 0.79,-1.3574 1.0584,-1.1646 1.2776,-0.921 1.4439,-0.6377 1.546,-0.3249 h 1.5801 l 1.546,0.3249 1.4439,0.6377 1.2776,0.921 1.0584,1.1646 0.7901,1.3574 0.4876,1.4906 0.1663,1.5587 -0.1663,1.5587 -0.4876,1.4907 -0.7901,1.3573 -1.0584,1.1646 -1.2776,0.9214 -1.4439,0.6373 -1.546,0.3249 z m -269.4769,86.255 v -78.717 h 377.9957 v 78.717 z m 540.5339,11.245 v -86.2134 h 362.8758 v 86.2134 z m -684.1359,11.1098 -2.0733,-0.4371 -1.9368,-0.8549 -1.7146,-1.2357 -1.4187,-1.5624 -1.0599,-1.8201 -0.6551,-1.9995 -0.2229,-2.0906 0.2229,-2.0902 0.6551,-1.9995 1.0599,-1.8201 1.4187,-1.5625 1.7146,-1.2356 1.9368,-0.8549 2.0733,-0.4371 h 2.1198 l 2.0733,0.4371 1.9365,0.8549 1.7149,1.2356 1.4186,1.5625 1.0599,1.8201 0.6551,1.9995 0.223,2.0902 -0.223,2.0906 -0.6551,1.9995 -1.0599,1.8201 -1.4186,1.5624 -1.7149,1.2357 -1.9365,0.8549 -2.0733,0.4371 z m -126.2884,0 -2.0733,-0.4371 -1.9368,-0.8549 -1.7146,-1.2357 -1.4187,-1.5624 -1.0599,-1.8201 -0.655,-1.9995 -0.223,-2.0906 0.223,-2.0902 0.655,-1.9995 1.0599,-1.8201 1.4187,-1.5625 1.7146,-1.2356 1.9368,-0.8549 2.0733,-0.4371 h 2.1198 l 2.0733,0.4371 1.9365,0.8549 1.715,1.2356 1.4186,1.5625 1.0598,1.8201 0.6551,1.9995 0.2231,2.0902 -0.2231,2.0906 -0.6551,1.9995 -1.0598,1.8201 -1.4186,1.5624 -1.715,1.2357 -1.9365,0.8549 -2.0733,0.4371 z m 539.3673,0.094 -1.546,-0.3249 -1.4439,-0.6373 -1.2776,-0.9213 -1.0584,-1.1647 -0.79,-1.3573 -0.4877,-1.4907 -0.1663,-1.5587 0.1663,-1.5586 0.4877,-1.4907 0.79,-1.3573 1.0584,-1.1647 1.2776,-0.921 1.4439,-0.6377 1.546,-0.3248 h 1.5801 l 1.546,0.3248 1.4439,0.6377 1.2776,0.921 1.0584,1.1647 0.7901,1.3573 0.4876,1.4907 0.1663,1.5586 -0.1663,1.5587 -0.4876,1.4907 -0.7901,1.3573 -1.0584,1.1647 -1.2776,0.9213 -1.4439,0.6373 -1.546,0.3249 z m -128.5185,0 -1.546,-0.3249 -1.4439,-0.6373 -1.2776,-0.9213 -1.0584,-1.1647 -0.79,-1.3573 -0.4877,-1.4907 -0.1663,-1.5587 0.1663,-1.5586 0.4877,-1.4907 0.79,-1.3573 1.0584,-1.1647 1.2776,-0.921 1.4439,-0.6377 1.546,-0.3248 h 1.5801 l 1.546,0.3248 1.4439,0.6377 1.2776,0.921 1.0584,1.1647 0.79,1.3573 0.4877,1.4907 0.1663,1.5586 -0.1663,1.5587 -0.4877,1.4907 -0.79,1.3573 -1.0584,1.1647 -1.2776,0.9213 -1.4439,0.6373 -1.546,0.3249 z m -64.2593,0 -1.5459,-0.3249 -1.444,-0.6373 -1.2776,-0.9213 -1.0584,-1.1647 -0.7901,-1.3573 -0.4875,-1.4907 -0.1663,-1.5587 0.1663,-1.5586 0.4875,-1.4907 0.7901,-1.3573 1.0584,-1.1647 1.2776,-0.921 1.444,-0.6377 1.5459,-0.3248 h 1.5801 l 1.546,0.3248 1.444,0.6377 1.2775,0.921 1.0584,1.1647 0.79,1.3573 0.4877,1.4907 0.1663,1.5586 -0.1663,1.5587 -0.4877,1.4907 -0.79,1.3573 -1.0584,1.1647 -1.2775,0.9213 -1.444,0.6373 -1.546,0.3249 z m 128.5186,0 -1.546,-0.3249 -1.444,-0.6373 -1.2776,-0.9213 -1.0584,-1.1647 -0.79,-1.3573 -0.4876,-1.4907 -0.1663,-1.5587 0.1663,-1.5586 0.4876,-1.4907 0.79,-1.3573 1.0584,-1.1647 1.2776,-0.921 1.444,-0.6377 1.546,-0.3248 h 1.58 l 1.546,0.3248 1.444,0.6377 1.2775,0.921 1.0584,1.1647 0.79,1.3573 0.4877,1.4907 0.1663,1.5586 -0.1663,1.5587 -0.4877,1.4907 -0.79,1.3573 -1.0584,1.1647 -1.2775,0.9213 -1.444,0.6373 -1.546,0.3249 z m 701.2424,18.1827 -1.4325,-0.2984 -1.3344,-0.5893 -1.1831,-0.8523 -0.9791,-1.0774 -0.7295,-1.2553 -0.4536,-1.3788 -0.1512,-1.4416 0.1512,-1.4419 0.4536,-1.3789 0.7295,-1.2553 0.9791,-1.0774 1.1831,-0.8519 1.3344,-0.5897 1.4325,-0.3022 h 1.4591 l 1.4326,0.3022 1.3344,0.5897 1.1831,0.8519 0.9789,1.0774 0.7296,1.2553 0.4536,1.3789 0.1512,1.4419 -0.1512,1.4416 -0.4536,1.3788 -0.7296,1.2553 -0.9789,1.0774 -1.1831,0.8523 -1.3344,0.5893 -1.4326,0.2984 z m -907.1911,0 -1.43,-0.2984 -1.3354,-0.5893 -1.1827,-0.8523 -0.9783,-1.0774 -0.731,-1.2553 -0.4517,-1.3788 -0.1512,-1.4416 0.1512,-1.4419 0.4517,-1.3789 0.731,-1.2553 0.9783,-1.0774 1.1827,-0.8519 1.3354,-0.5897 1.43,-0.3022 h 1.4621 l 1.43,0.3022 1.3354,0.5897 1.1828,0.8519 0.9782,1.0774 0.7306,1.2553 0.4521,1.3789 0.1513,1.4419 -0.1513,1.4416 -0.4521,1.3788 -0.7306,1.2553 -0.9782,1.0774 -1.1828,0.8523 -1.3354,0.5893 -1.43,0.2984 z m 529.1955,0 -1.4326,-0.2984 -1.3343,-0.5893 -1.1832,-0.8523 -0.979,-1.0774 -0.7296,-1.2553 -0.4536,-1.3788 -0.1512,-1.4416 0.1512,-1.4419 0.4536,-1.3789 0.7296,-1.2553 0.979,-1.0774 1.1832,-0.8519 1.3343,-0.5897 1.4326,-0.3022 h 1.459 l 1.4327,0.3022 1.3343,0.5897 1.1831,0.8519 0.979,1.0774 0.7295,1.2553 0.4536,1.3789 0.1512,1.4419 -0.1512,1.4416 -0.4536,1.3788 -0.7295,1.2553 -0.979,1.0774 -1.1831,0.8523 -1.3343,0.5893 -1.4327,0.2984 z m 188.9978,0 -1.4326,-0.2984 -1.3343,-0.5893 -1.1831,-0.8523 -0.9791,-1.0774 -0.7295,-1.2553 -0.4536,-1.3788 -0.1512,-1.4416 0.1512,-1.4419 0.4536,-1.3789 0.7295,-1.2553 0.9791,-1.0774 1.1831,-0.8519 1.3343,-0.5897 1.4326,-0.3022 h 1.459 l 1.4327,0.3022 1.3343,0.5897 1.1832,0.8519 0.9789,1.0774 0.7295,1.2553 0.4536,1.3789 0.1512,1.4419 -0.1512,1.4416 -0.4536,1.3788 -0.7295,1.2553 -0.9789,1.0774 -1.1832,0.8523 -1.3343,0.5893 -1.4327,0.2984 z m -340.1961,0 -1.4326,-0.2984 -1.3343,-0.5893 -1.1832,-0.8523 -0.9789,-1.0774 -0.7296,-1.2553 -0.4536,-1.3788 -0.1512,-1.4416 0.1512,-1.4419 0.4536,-1.3789 0.7296,-1.2553 0.9789,-1.0774 1.1832,-0.8519 1.3343,-0.5897 1.4326,-0.3022 h 1.4591 l 1.4326,0.3022 1.3343,0.5897 1.1831,0.8519 0.979,1.0774 0.7295,1.2553 0.4536,1.3789 0.1512,1.4419 -0.1512,1.4416 -0.4536,1.3788 -0.7295,1.2553 -0.979,1.0774 -1.1831,0.8523 -1.3343,0.5893 -1.4326,0.2984 z"
       inkscape:connector-curvature="0"
       style="fill:none;stroke:#000000;stroke-width:3.77952756;stroke-opacity:1;stroke-miterlimit:4;stroke-dasharray:none" />
    <path
       id="path205"
       d="M 4536.6617,893.2658 H 3137.3204 v 226.8185 h 1399.3413 z m -826.3527,61.2866 -1.4305,-0.2985 -1.3324,-0.5897 -1.1814,-0.8526 -0.9776,-1.077 -0.7285,-1.2557 -0.4529,-1.3788 -0.151,-1.4416 0.151,-1.4419 0.4529,-1.3789 0.7285,-1.2553 0.9776,-1.0774 1.1814,-0.8522 1.3324,-0.5893 1.4305,-0.3022 h 1.457 l 1.4304,0.3022 1.3325,0.5893 1.1813,0.8522 0.9777,1.0774 0.7284,1.2553 0.4529,1.3789 0.151,1.4419 -0.151,1.4416 -0.4529,1.3788 -0.7284,1.2557 -0.9777,1.077 -1.1813,0.8526 -1.3325,0.5897 -1.4304,0.2985 z m 422.7389,0 -1.4305,-0.2985 -1.3324,-0.5897 -1.1813,-0.8526 -0.9777,-1.077 -0.7284,-1.2557 -0.4529,-1.3788 -0.151,-1.4416 0.151,-1.4419 0.4529,-1.3789 0.7284,-1.2553 0.9777,-1.0774 1.1813,-0.8522 1.3324,-0.5893 1.4305,-0.3022 h 1.4569 l 1.4306,0.3022 1.3323,0.5893 1.1815,0.8522 0.9775,1.0774 0.7286,1.2553 0.4529,1.3789 0.151,1.4419 -0.151,1.4416 -0.4529,1.3788 -0.7286,1.2557 -0.9775,1.077 -1.1815,0.8526 -1.3323,0.5897 -1.4306,0.2985 z m -800.1859,0 -1.4278,-0.2985 -1.3336,-0.5897 -1.181,-0.8526 -0.9769,-1.077 -0.7299,-1.2557 -0.4511,-1.3788 -0.1509,-1.4416 0.1509,-1.4419 0.4511,-1.3789 0.7299,-1.2553 0.9769,-1.0774 1.181,-0.8522 1.3336,-0.5893 1.4278,-0.3022 h 1.46 l 1.4279,0.3022 1.3335,0.5893 1.181,0.8522 0.9769,1.0774 0.7295,1.2553 0.4515,1.3789 0.1509,1.4419 -0.1509,1.4416 -0.4515,1.3788 -0.7295,1.2557 -0.9769,1.077 -1.181,0.8526 -1.3335,0.5897 -1.4279,0.2985 z m 988.9087,0 -1.4306,-0.2985 -1.3323,-0.5897 -1.1814,-0.8526 -0.9776,-1.077 -0.7285,-1.2557 -0.4529,-1.3788 -0.151,-1.4416 0.151,-1.4419 0.4529,-1.3789 0.7285,-1.2553 0.9776,-1.0774 1.1814,-0.8522 1.3323,-0.5893 1.4306,-0.3022 h 1.4569 l 1.4305,0.3022 1.3324,0.5893 1.1814,0.8522 0.9776,1.0774 0.7285,1.2553 0.4529,1.3789 0.151,1.4419 -0.151,1.4416 -0.4529,1.3788 -0.7285,1.2557 -0.9776,1.077 -1.1814,0.8526 -1.3324,0.5897 -1.4305,0.2985 z m -800.1845,0 -1.4304,-0.2985 -1.3325,-0.5897 -1.1813,-0.8526 -0.9777,-1.077 -0.7284,-1.2557 -0.4529,-1.3788 -0.151,-1.4416 0.151,-1.4419 0.4529,-1.3789 0.7284,-1.2553 0.9777,-1.0774 1.1813,-0.8522 1.3325,-0.5893 1.4304,-0.3022 h 1.457 l 1.4305,0.3022 1.3324,0.5893 1.1814,0.8522 0.9776,1.0774 0.7285,1.2553 0.4529,1.3789 0.151,1.4419 -0.151,1.4416 -0.4529,1.3788 -0.7285,1.2557 -0.9776,1.077 -1.1814,0.8526 -1.3324,0.5897 -1.4305,0.2985 z m 422.739,0 -1.4305,-0.2985 -1.3324,-0.5897 -1.1814,-0.8526 -0.9776,-1.077 -0.7284,-1.2557 -0.453,-1.3788 -0.1509,-1.4416 0.1509,-1.4419 0.453,-1.3789 0.7284,-1.2553 0.9776,-1.0774 1.1814,-0.8522 1.3324,-0.5893 1.4305,-0.3022 h 1.4569 l 1.4305,0.3022 1.3324,0.5893 1.1815,0.8522 0.9775,1.0774 0.7285,1.2553 0.453,1.3789 0.1509,1.4419 -0.1509,1.4416 -0.453,1.3788 -0.7285,1.2557 -0.9775,1.077 -1.1815,0.8526 -1.3324,0.5897 -1.4305,0.2985 z m 12.0518,109.3052 V 962.6494 h 362.3477 v 101.2082 z m -611.4616,-7.4968 v -86.2142 h 362.3476 v 86.2142 z m 976.8553,29.3872 -1.4306,-0.2984 -1.3323,-0.5897 -1.1814,-0.8519 -0.9776,-1.0774 -0.7285,-1.2553 -0.4529,-1.3792 -0.151,-1.4416 0.151,-1.4415 0.4529,-1.3793 0.7285,-1.2553 0.9776,-1.0774 1.1814,-0.8518 1.3323,-0.5897 1.4306,-0.3022 h 1.4569 l 1.4305,0.3022 1.3324,0.5897 1.1814,0.8518 0.9776,1.0774 0.7285,1.2553 0.4529,1.3793 0.151,1.4415 -0.151,1.4416 -0.4529,1.3792 -0.7285,1.2553 -0.9776,1.0774 -1.1814,0.8519 -1.3324,0.5897 -1.4305,0.2984 z m -988.9087,0 -1.4278,-0.2984 -1.3336,-0.5897 -1.181,-0.8519 -0.9769,-1.0774 -0.7299,-1.2553 -0.4511,-1.3792 -0.1509,-1.4416 0.1509,-1.4415 0.4511,-1.3793 0.7299,-1.2553 0.9769,-1.0774 1.181,-0.8518 1.3336,-0.5897 1.4278,-0.3022 h 1.46 l 1.4279,0.3022 1.3335,0.5897 1.181,0.8518 0.9769,1.0774 0.7295,1.2553 0.4515,1.3793 0.1509,1.4415 -0.1509,1.4416 -0.4515,1.3792 -0.7295,1.2553 -0.9769,1.0774 -1.181,0.8519 -1.3335,0.5897 -1.4279,0.2984 z m 800.1859,0 -1.4305,-0.2984 -1.3324,-0.5897 -1.1813,-0.8519 -0.9777,-1.0774 -0.7284,-1.2553 -0.4529,-1.3792 -0.151,-1.4416 0.151,-1.4415 0.4529,-1.3793 0.7284,-1.2553 0.9777,-1.0774 1.1813,-0.8518 1.3324,-0.5897 1.4305,-0.3022 h 1.4569 l 1.4306,0.3022 1.3323,0.5897 1.1815,0.8518 0.9775,1.0774 0.7286,1.2553 0.4529,1.3793 0.151,1.4415 -0.151,1.4416 -0.4529,1.3792 -0.7286,1.2553 -0.9775,1.0774 -1.1815,0.8519 -1.3323,0.5897 -1.4306,0.2984 z m -422.7389,0 -1.4305,-0.2984 -1.3324,-0.5897 -1.1814,-0.8519 -0.9776,-1.0774 -0.7285,-1.2553 -0.4529,-1.3792 -0.151,-1.4416 0.151,-1.4415 0.4529,-1.3793 0.7285,-1.2553 0.9776,-1.0774 1.1814,-0.8518 1.3324,-0.5897 1.4305,-0.3022 h 1.457 l 1.4304,0.3022 1.3325,0.5897 1.1813,0.8518 0.9777,1.0774 0.7284,1.2553 0.4529,1.3793 0.151,1.4415 -0.151,1.4416 -0.4529,1.3792 -0.7284,1.2553 -0.9777,1.0774 -1.1813,0.8519 -1.3325,0.5897 -1.4304,0.2984 z m 234.0162,0 -1.4305,-0.2984 -1.3324,-0.5897 -1.1814,-0.8519 -0.9776,-1.0774 -0.7284,-1.2553 -0.453,-1.3792 -0.1509,-1.4416 0.1509,-1.4415 0.453,-1.3793 0.7284,-1.2553 0.9776,-1.0774 1.1814,-0.8518 1.3324,-0.5897 1.4305,-0.3022 h 1.4569 l 1.4305,0.3022 1.3324,0.5897 1.1815,0.8518 0.9775,1.0774 0.7285,1.2553 0.453,1.3793 0.1509,1.4415 -0.1509,1.4416 -0.453,1.3792 -0.7285,1.2553 -0.9775,1.0774 -1.1815,0.8519 -1.3324,0.5897 -1.4305,0.2984 z m -422.739,0 -1.4304,-0.2984 -1.3325,-0.5897 -1.1813,-0.8519 -0.9777,-1.0774 -0.7284,-1.2553 -0.4529,-1.3792 -0.151,-1.4416 0.151,-1.4415 0.4529,-1.3793 0.7284,-1.2553 0.9777,-1.0774 1.1813,-0.8518 1.3325,-0.5897 1.4304,-0.3022 h 1.457 l 1.4305,0.3022 1.3324,0.5897 1.1814,0.8518 0.9776,1.0774 0.7285,1.2553 0.4529,1.3793 0.151,1.4415 -0.151,1.4416 -0.4529,1.3792 -0.7285,1.2553 -0.9776,1.0774 -1.1814,0.8519 -1.3324,0.5897 -1.4305,0.2984 z"
       inkscape:connector-curvature="0"
       style="fill:none;stroke:#000000;stroke-width:3.77952756;stroke-opacity:1;stroke-miterlimit:4;stroke-dasharray:none" />
  </g>
</svg>
