<?xml version="1.0" standalone="no"?>
<!DOCTYPE svg PUBLIC "-//W3C//DTD SVG 1.1//EN" "http://www.w3.org/Graphics/SVG/1.1/DTD/svg11.dtd">
<svg width="350" height="15" viewBox="-77 -15 350 15" xmlns="http://www.w3.org/2000/svg" version="1.1">
<title>OpenSCAD Model</title>
<path d="
M 273,-15 L -77,-15 L -77,-0 L 273,-0 z
M 66.5514,-5.6104 L 66.1629,-5.69298 L 65.8,-5.85454 L 65.4787,-6.08801 L 65.2129,-6.38319 L 65.0143,-6.72719
 L 64.8915,-7.10497 L 64.85,-7.5 L 64.8915,-7.89502 L 65.0143,-8.2728 L 65.2129,-8.61679 L 65.4787,-8.91197
 L 65.8,-9.14545 L 66.1629,-9.30701 L 66.5514,-9.38959 L 66.9486,-9.38959 L 67.3371,-9.30701 L 67.7,-9.14545
 L 68.0213,-8.91197 L 68.2871,-8.61679 L 68.4857,-8.2728 L 68.6085,-7.89502 L 68.65,-7.5 L 68.6085,-7.10497
 L 68.4857,-6.72719 L 68.2871,-6.38319 L 68.0213,-6.08801 L 67.7,-5.85454 L 67.3371,-5.69298 L 66.9486,-5.6104
 z
M 167.551,-5.6104 L 167.163,-5.69298 L 166.8,-5.85454 L 166.479,-6.08801 L 166.213,-6.38319 L 166.014,-6.72719
 L 165.892,-7.10497 L 165.85,-7.5 L 165.892,-7.89502 L 166.014,-8.2728 L 166.213,-8.61679 L 166.479,-8.91197
 L 166.8,-9.14545 L 167.163,-9.30701 L 167.551,-9.38959 L 167.949,-9.38959 L 168.337,-9.30701 L 168.7,-9.14545
 L 169.021,-8.91197 L 169.287,-8.61679 L 169.486,-8.2728 L 169.608,-7.89502 L 169.65,-7.5 L 169.608,-7.10497
 L 169.486,-6.72719 L 169.287,-6.38319 L 169.021,-6.08801 L 168.7,-5.85454 L 168.337,-5.69298 L 167.949,-5.6104
 z
M 41.3537,-6.10767 L 41.0674,-6.16852 L 40.8,-6.28755 L 40.5632,-6.45959 L 40.3674,-6.67709 L 40.221,-6.93056
 L 40.1306,-7.20892 L 40.1,-7.5 L 40.1306,-7.79106 L 40.221,-8.06943 L 40.3674,-8.32289 L 40.5632,-8.54039
 L 40.8,-8.71243 L 41.0674,-8.83147 L 41.3537,-8.89232 L 41.6463,-8.89232 L 41.9326,-8.83147 L 42.2,-8.71243
 L 42.4368,-8.54039 L 42.6326,-8.32289 L 42.779,-8.06943 L 42.8694,-7.79106 L 42.9,-7.5 L 42.8694,-7.20892
 L 42.779,-6.93056 L 42.6326,-6.67709 L 42.4368,-6.45959 L 42.2,-6.28755 L 41.9326,-6.16852 L 41.6463,-6.10767
 z
M 188.104,-6.10767 L 187.817,-6.16852 L 187.55,-6.28755 L 187.313,-6.45959 L 187.117,-6.67709 L 186.971,-6.93056
 L 186.881,-7.20892 L 186.85,-7.5 L 186.881,-7.79106 L 186.971,-8.06943 L 187.117,-8.32289 L 187.313,-8.54039
 L 187.55,-8.71243 L 187.817,-8.83147 L 188.104,-8.89232 L 188.396,-8.89232 L 188.683,-8.83147 L 188.95,-8.71243
 L 189.187,-8.54039 L 189.383,-8.32289 L 189.529,-8.06943 L 189.619,-7.79106 L 189.65,-7.5 L 189.619,-7.20892
 L 189.529,-6.93056 L 189.383,-6.67709 L 189.187,-6.45959 L 188.95,-6.28755 L 188.683,-6.16852 L 188.396,-6.10767
 z
M 213.104,-6.10767 L 212.817,-6.16852 L 212.55,-6.28755 L 212.313,-6.45959 L 212.117,-6.67709 L 211.971,-6.93056
 L 211.881,-7.20892 L 211.85,-7.5 L 211.881,-7.79106 L 211.971,-8.06943 L 212.117,-8.32289 L 212.313,-8.54039
 L 212.55,-8.71243 L 212.817,-8.83147 L 213.104,-8.89232 L 213.396,-8.89232 L 213.683,-8.83147 L 213.95,-8.71243
 L 214.187,-8.54039 L 214.383,-8.32289 L 214.529,-8.06943 L 214.619,-7.79106 L 214.65,-7.5 L 214.619,-7.20892
 L 214.529,-6.93056 L 214.383,-6.67709 L 214.187,-6.45959 L 213.95,-6.28755 L 213.683,-6.16852 L 213.396,-6.10767
 z
M 31.3537,-6.10767 L 31.0674,-6.16852 L 30.8,-6.28755 L 30.5632,-6.45959 L 30.3674,-6.67709 L 30.221,-6.93056
 L 30.1306,-7.20892 L 30.1,-7.5 L 30.1306,-7.79106 L 30.221,-8.06943 L 30.3674,-8.32289 L 30.5632,-8.54039
 L 30.8,-8.71243 L 31.0674,-8.83147 L 31.3537,-8.89232 L 31.6463,-8.89232 L 31.9326,-8.83147 L 32.2,-8.71243
 L 32.4368,-8.54039 L 32.6326,-8.32289 L 32.779,-8.06943 L 32.8694,-7.79106 L 32.9,-7.5 L 32.8694,-7.20892
 L 32.779,-6.93056 L 32.6326,-6.67709 L 32.4368,-6.45959 L 32.2,-6.28755 L 31.9326,-6.16852 L 31.6463,-6.10767
 z
M -4.89633,-6.10767 L -5.18262,-6.16852 L -5.45,-6.28755 L -5.68678,-6.45959 L -5.88261,-6.67709 L -6.02896,-6.93056
 L -6.1194,-7.20892 L -6.14999,-7.5 L -6.1194,-7.79106 L -6.02896,-8.06943 L -5.88261,-8.32289 L -5.68678,-8.54039
 L -5.45,-8.71243 L -5.18262,-8.83147 L -4.89633,-8.89232 L -4.60365,-8.89232 L -4.31737,-8.83147 L -4.04999,-8.71243
 L -3.8132,-8.54039 L -3.61737,-8.32289 L -3.47102,-8.06943 L -3.38058,-7.79106 L -3.34999,-7.5 L -3.38058,-7.20892
 L -3.47102,-6.93056 L -3.61737,-6.67709 L -3.8132,-6.45959 L -4.04999,-6.28755 L -4.31737,-6.16852 L -4.60365,-6.10767
 z
M 101.154,-6.10767 L 100.867,-6.16852 L 100.6,-6.28755 L 100.363,-6.45959 L 100.167,-6.67709 L 100.021,-6.93056
 L 99.9306,-7.20892 L 99.9,-7.5 L 99.9306,-7.79106 L 100.021,-8.06943 L 100.167,-8.32289 L 100.363,-8.54039
 L 100.6,-8.71243 L 100.867,-8.83147 L 101.154,-8.89232 L 101.446,-8.89232 L 101.733,-8.83147 L 102,-8.71243
 L 102.237,-8.54039 L 102.433,-8.32289 L 102.579,-8.06943 L 102.669,-7.79106 L 102.7,-7.5 L 102.669,-7.20892
 L 102.579,-6.93056 L 102.433,-6.67709 L 102.237,-6.45959 L 102,-6.28755 L 101.733,-6.16852 L 101.446,-6.10767
 z
M 16.1037,-6.10767 L 15.8174,-6.16852 L 15.55,-6.28755 L 15.3132,-6.45959 L 15.1174,-6.67709 L 14.971,-6.93056
 L 14.8806,-7.20892 L 14.85,-7.5 L 14.8806,-7.79106 L 14.971,-8.06943 L 15.1174,-8.32289 L 15.3132,-8.54039
 L 15.55,-8.71243 L 15.8174,-8.83147 L 16.1037,-8.89232 L 16.3963,-8.89232 L 16.6826,-8.83147 L 16.95,-8.71243
 L 17.1868,-8.54039 L 17.3826,-8.32289 L 17.529,-8.06943 L 17.6194,-7.79106 L 17.65,-7.5 L 17.6194,-7.20892
 L 17.529,-6.93056 L 17.3826,-6.67709 L 17.1868,-6.45959 L 16.95,-6.28755 L 16.6826,-6.16852 L 16.3963,-6.10767
 z
M 85.1537,-6.10767 L 84.8674,-6.16852 L 84.6,-6.28755 L 84.3632,-6.45959 L 84.1674,-6.67709 L 84.021,-6.93056
 L 83.9306,-7.20892 L 83.9,-7.5 L 83.9306,-7.79106 L 84.021,-8.06943 L 84.1674,-8.32289 L 84.3632,-8.54039
 L 84.6,-8.71243 L 84.8674,-8.83147 L 85.1537,-8.89232 L 85.4463,-8.89232 L 85.7326,-8.83147 L 86,-8.71243
 L 86.2368,-8.54039 L 86.4326,-8.32289 L 86.579,-8.06943 L 86.6694,-7.79106 L 86.7,-7.5 L 86.6694,-7.20892
 L 86.579,-6.93056 L 86.4326,-6.67709 L 86.2368,-6.45959 L 86,-6.28755 L 85.7326,-6.16852 L 85.4463,-6.10767
 z
M -29.8963,-6.10767 L -30.1826,-6.16852 L -30.45,-6.28755 L -30.6868,-6.45959 L -30.8826,-6.67709 L -31.029,-6.93056
 L -31.1194,-7.20892 L -31.15,-7.5 L -31.1194,-7.79106 L -31.029,-8.06943 L -30.8826,-8.32289 L -30.6868,-8.54039
 L -30.45,-8.71243 L -30.1826,-8.83147 L -29.8963,-8.89232 L -29.6037,-8.89232 L -29.3174,-8.83147 L -29.05,-8.71243
 L -28.8132,-8.54039 L -28.6174,-8.32289 L -28.471,-8.06943 L -28.3806,-7.79106 L -28.35,-7.5 L -28.3806,-7.20892
 L -28.471,-6.93056 L -28.6174,-6.67709 L -28.8132,-6.45959 L -29.05,-6.28755 L -29.3174,-6.16852 L -29.6037,-6.10767
 z
" stroke="black" fill="lightgray" stroke-width="0.5"/></svg>
