<?xml version="1.0" standalone="no"?>
<!DOCTYPE svg PUBLIC "-//W3C//DTD SVG 1.1//EN" "http://www.w3.org/Graphics/SVG/1.1/DTD/svg11.dtd">
<svg width="371" height="61" viewBox="0 -61 371 61" xmlns="http://www.w3.org/2000/svg" version="1.1">
<title>OpenSCAD Model</title>
<path d="
M 370.2,-60.51 L 0,-60.51 L 0,-0 L 370.2,-0 z
M 20.5996,-46.9822 L 20.0511,-47.0988 L 19.5387,-47.3269 L 19.0851,-47.6565 L 18.7098,-48.0733 L 18.4294,-48.5589
 L 18.2561,-49.0923 L 18.1975,-49.65 L 18.2561,-50.2077 L 18.4294,-50.7411 L 18.7098,-51.2267 L 19.0851,-51.6435
 L 19.5387,-51.9731 L 20.0511,-52.2012 L 20.5996,-52.3178 L 21.1604,-52.3178 L 21.7089,-52.2012 L 22.2212,-51.9731
 L 22.6749,-51.6435 L 23.0502,-51.2267 L 23.3306,-50.7411 L 23.5039,-50.2077 L 23.5625,-49.65 L 23.5039,-49.0923
 L 23.3306,-48.5589 L 23.0502,-48.0733 L 22.6749,-47.6565 L 22.2212,-47.3269 L 21.7089,-47.0988 L 21.1604,-46.9822
 z
M 35.1557,-14.7189 L 31.3129,-15.5357 L 27.724,-17.1336 L 24.5457,-19.4428 L 21.9169,-22.3623 L 19.9527,-25.7646
 L 18.7386,-29.5009 L 18.328,-33.408 L 18.7386,-37.3151 L 19.9527,-41.0514 L 21.9169,-44.4537 L 24.5457,-47.3732
 L 27.724,-49.6823 L 31.3129,-51.2802 L 35.1557,-52.097 L 39.0843,-52.097 L 42.927,-51.2802 L 46.516,-49.6823
 L 49.6943,-47.3732 L 52.323,-44.4537 L 54.2873,-41.0514 L 55.5013,-37.3151 L 55.912,-33.408 L 55.5013,-29.5009
 L 54.2873,-25.7646 L 52.323,-22.3623 L 49.6943,-19.4428 L 46.516,-17.1336 L 42.927,-15.5357 L 39.0843,-14.7189
 z
M 54.0096,-45.9822 L 53.4611,-46.0988 L 52.9487,-46.3269 L 52.4951,-46.6565 L 52.1198,-47.0733 L 51.8394,-47.5589
 L 51.6661,-48.0923 L 51.6075,-48.65 L 51.6661,-49.2077 L 51.8394,-49.7411 L 52.1198,-50.2267 L 52.4951,-50.6435
 L 52.9487,-50.9731 L 53.4611,-51.2012 L 54.0096,-51.3178 L 54.5704,-51.3178 L 55.1189,-51.2012 L 55.6312,-50.9731
 L 56.0849,-50.6435 L 56.4602,-50.2267 L 56.7406,-49.7411 L 56.9139,-49.2077 L 56.9725,-48.65 L 56.9139,-48.0923
 L 56.7406,-47.5589 L 56.4602,-47.0733 L 56.0849,-46.6565 L 55.6312,-46.3269 L 55.1189,-46.0988 L 54.5704,-45.9822
 z
M 281.807,-44.1601 L 281.428,-44.2405 L 281.075,-44.3978 L 280.762,-44.6252 L 280.503,-44.9126 L 280.31,-45.2475
 L 280.19,-45.6154 L 280.15,-46 L 280.19,-46.3846 L 280.31,-46.7525 L 280.503,-47.0874 L 280.762,-47.3748
 L 281.075,-47.6021 L 281.428,-47.7594 L 281.807,-47.8399 L 282.193,-47.8399 L 282.572,-47.7594 L 282.925,-47.6021
 L 283.238,-47.3748 L 283.497,-47.0874 L 283.69,-46.7525 L 283.81,-46.3846 L 283.85,-46 L 283.81,-45.6154
 L 283.69,-45.2475 L 283.497,-44.9126 L 283.238,-44.6252 L 282.925,-44.3978 L 282.572,-44.2405 L 282.193,-44.1601
 z
M 231.807,-44.1601 L 231.428,-44.2405 L 231.075,-44.3978 L 230.762,-44.6252 L 230.503,-44.9126 L 230.31,-45.2475
 L 230.19,-45.6154 L 230.15,-46 L 230.19,-46.3846 L 230.31,-46.7525 L 230.503,-47.0874 L 230.762,-47.3748
 L 231.075,-47.6021 L 231.428,-47.7594 L 231.807,-47.8399 L 232.193,-47.8399 L 232.572,-47.7594 L 232.925,-47.6021
 L 233.238,-47.3748 L 233.497,-47.0874 L 233.69,-46.7525 L 233.81,-46.3846 L 233.85,-46 L 233.81,-45.6154
 L 233.69,-45.2475 L 233.497,-44.9126 L 233.238,-44.6252 L 232.925,-44.3978 L 232.572,-44.2405 L 232.193,-44.1601
 z
M 331.807,-44.1601 L 331.428,-44.2405 L 331.075,-44.3978 L 330.762,-44.6252 L 330.503,-44.9126 L 330.31,-45.2475
 L 330.19,-45.6154 L 330.15,-46 L 330.19,-46.3846 L 330.31,-46.7525 L 330.503,-47.0874 L 330.762,-47.3748
 L 331.075,-47.6021 L 331.428,-47.7594 L 331.807,-47.8399 L 332.193,-47.8399 L 332.572,-47.7594 L 332.925,-47.6021
 L 333.238,-47.3748 L 333.497,-47.0874 L 333.69,-46.7525 L 333.81,-46.3846 L 333.85,-46 L 333.81,-45.6154
 L 333.69,-45.2475 L 333.497,-44.9126 L 333.238,-44.6252 L 332.925,-44.3978 L 332.572,-44.2405 L 332.193,-44.1601
 z
M 91.8066,-44.1601 L 91.4283,-44.2405 L 91.075,-44.3978 L 90.7621,-44.6252 L 90.5033,-44.9126 L 90.3099,-45.2475
 L 90.1904,-45.6154 L 90.15,-46 L 90.1904,-46.3846 L 90.3099,-46.7525 L 90.5033,-47.0874 L 90.7621,-47.3748
 L 91.075,-47.6021 L 91.4283,-47.7594 L 91.8066,-47.8399 L 92.1934,-47.8399 L 92.5717,-47.7594 L 92.925,-47.6021
 L 93.2379,-47.3748 L 93.4967,-47.0874 L 93.69,-46.7525 L 93.8096,-46.3846 L 93.85,-46 L 93.8096,-45.6154
 L 93.69,-45.2475 L 93.4967,-44.9126 L 93.2379,-44.6252 L 92.925,-44.3978 L 92.5717,-44.2405 L 92.1934,-44.1601
 z
M 191.807,-44.1601 L 191.428,-44.2405 L 191.075,-44.3978 L 190.762,-44.6252 L 190.503,-44.9126 L 190.31,-45.2475
 L 190.19,-45.6154 L 190.15,-46 L 190.19,-46.3846 L 190.31,-46.7525 L 190.503,-47.0874 L 190.762,-47.3748
 L 191.075,-47.6021 L 191.428,-47.7594 L 191.807,-47.8399 L 192.193,-47.8399 L 192.572,-47.7594 L 192.925,-47.6021
 L 193.238,-47.3748 L 193.497,-47.0874 L 193.69,-46.7525 L 193.81,-46.3846 L 193.85,-46 L 193.81,-45.6154
 L 193.69,-45.2475 L 193.497,-44.9126 L 193.238,-44.6252 L 192.925,-44.3978 L 192.572,-44.2405 L 192.193,-44.1601
 z
M 129.291,-43.011 L 128.882,-43.0979 L 128.5,-43.2679 L 128.162,-43.5137 L 127.882,-43.8244 L 127.673,-44.1865
 L 127.544,-44.5842 L 127.5,-45 L 127.544,-45.4158 L 127.673,-45.8135 L 127.882,-46.1756 L 128.162,-46.4863
 L 128.5,-46.732 L 128.882,-46.9021 L 129.291,-46.989 L 129.709,-46.989 L 130.118,-46.9021 L 130.5,-46.732
 L 130.838,-46.4863 L 131.118,-46.1756 L 131.327,-45.8135 L 131.456,-45.4158 L 131.5,-45 L 131.456,-44.5842
 L 131.327,-44.1865 L 131.118,-43.8244 L 130.838,-43.5137 L 130.5,-43.2679 L 130.118,-43.0979 L 129.709,-43.011
 z
M 146.291,-43.011 L 145.882,-43.0979 L 145.5,-43.2679 L 145.162,-43.5137 L 144.882,-43.8244 L 144.673,-44.1865
 L 144.544,-44.5842 L 144.5,-45 L 144.544,-45.4158 L 144.673,-45.8135 L 144.882,-46.1756 L 145.162,-46.4863
 L 145.5,-46.732 L 145.882,-46.9021 L 146.291,-46.989 L 146.709,-46.989 L 147.118,-46.9021 L 147.5,-46.732
 L 147.838,-46.4863 L 148.118,-46.1756 L 148.327,-45.8135 L 148.456,-45.4158 L 148.5,-45 L 148.456,-44.5842
 L 148.327,-44.1865 L 148.118,-43.8244 L 147.838,-43.5137 L 147.5,-43.2679 L 147.118,-43.0979 L 146.709,-43.011
 z
M 112.291,-43.011 L 111.882,-43.0979 L 111.5,-43.2679 L 111.162,-43.5137 L 110.882,-43.8244 L 110.673,-44.1865
 L 110.544,-44.5842 L 110.5,-45 L 110.544,-45.4158 L 110.673,-45.8135 L 110.882,-46.1756 L 111.162,-46.4863
 L 111.5,-46.732 L 111.882,-46.9021 L 112.291,-46.989 L 112.709,-46.989 L 113.118,-46.9021 L 113.5,-46.732
 L 113.838,-46.4863 L 114.118,-46.1756 L 114.327,-45.8135 L 114.456,-45.4158 L 114.5,-45 L 114.456,-44.5842
 L 114.327,-44.1865 L 114.118,-43.8244 L 113.838,-43.5137 L 113.5,-43.2679 L 113.118,-43.0979 L 112.709,-43.011
 z
M 163.291,-43.011 L 162.882,-43.0979 L 162.5,-43.2679 L 162.162,-43.5137 L 161.882,-43.8244 L 161.673,-44.1865
 L 161.544,-44.5842 L 161.5,-45 L 161.544,-45.4158 L 161.673,-45.8135 L 161.882,-46.1756 L 162.162,-46.4863
 L 162.5,-46.732 L 162.882,-46.9021 L 163.291,-46.989 L 163.709,-46.989 L 164.118,-46.9021 L 164.5,-46.732
 L 164.838,-46.4863 L 165.118,-46.1756 L 165.327,-45.8135 L 165.456,-45.4158 L 165.5,-45 L 165.456,-44.5842
 L 165.327,-44.1865 L 165.118,-43.8244 L 164.838,-43.5137 L 164.5,-43.2679 L 164.118,-43.0979 L 163.709,-43.011
 z
M 92,-20 L 92,-41 L 192,-41 L 192,-20 z
M 235,-17 L 235,-40 L 331,-40 L 331,-17 z
M 54.0096,-14.0362 L 53.4611,-14.1528 L 52.9487,-14.3809 L 52.4951,-14.7105 L 52.1198,-15.1273 L 51.8394,-15.6129
 L 51.6661,-16.1463 L 51.6075,-16.704 L 51.6661,-17.2617 L 51.8394,-17.7951 L 52.1198,-18.2807 L 52.4951,-18.6975
 L 52.9487,-19.0271 L 53.4611,-19.2552 L 54.0096,-19.3718 L 54.5704,-19.3718 L 55.1189,-19.2552 L 55.6312,-19.0271
 L 56.0849,-18.6975 L 56.4602,-18.2807 L 56.7406,-17.7951 L 56.9139,-17.2617 L 56.9725,-16.704 L 56.9139,-16.1463
 L 56.7406,-15.6129 L 56.4602,-15.1273 L 56.0849,-14.7105 L 55.6312,-14.3809 L 55.1189,-14.1528 L 54.5704,-14.0362
 z
M 20.5996,-14.0362 L 20.0511,-14.1528 L 19.5387,-14.3809 L 19.0851,-14.7105 L 18.7098,-15.1273 L 18.4294,-15.6129
 L 18.2561,-16.1463 L 18.1975,-16.704 L 18.2561,-17.2617 L 18.4294,-17.7951 L 18.7098,-18.2807 L 19.0851,-18.6975
 L 19.5387,-19.0271 L 20.0511,-19.2552 L 20.5996,-19.3718 L 21.1604,-19.3718 L 21.7089,-19.2552 L 22.2212,-19.0271
 L 22.6749,-18.6975 L 23.0502,-18.2807 L 23.3306,-17.7951 L 23.5039,-17.2617 L 23.5625,-16.704 L 23.5039,-16.1463
 L 23.3306,-15.6129 L 23.0502,-15.1273 L 22.6749,-14.7105 L 22.2212,-14.3809 L 21.7089,-14.1528 L 21.1604,-14.0362
 z
M 163.291,-14.011 L 162.882,-14.0979 L 162.5,-14.2679 L 162.162,-14.5137 L 161.882,-14.8244 L 161.673,-15.1865
 L 161.544,-15.5842 L 161.5,-16 L 161.544,-16.4158 L 161.673,-16.8135 L 161.882,-17.1756 L 162.162,-17.4863
 L 162.5,-17.732 L 162.882,-17.9021 L 163.291,-17.989 L 163.709,-17.989 L 164.118,-17.9021 L 164.5,-17.732
 L 164.838,-17.4863 L 165.118,-17.1756 L 165.327,-16.8135 L 165.456,-16.4158 L 165.5,-16 L 165.456,-15.5842
 L 165.327,-15.1865 L 165.118,-14.8244 L 164.838,-14.5137 L 164.5,-14.2679 L 164.118,-14.0979 L 163.709,-14.011
 z
M 129.291,-14.011 L 128.882,-14.0979 L 128.5,-14.2679 L 128.162,-14.5137 L 127.882,-14.8244 L 127.673,-15.1865
 L 127.544,-15.5842 L 127.5,-16 L 127.544,-16.4158 L 127.673,-16.8135 L 127.882,-17.1756 L 128.162,-17.4863
 L 128.5,-17.732 L 128.882,-17.9021 L 129.291,-17.989 L 129.709,-17.989 L 130.118,-17.9021 L 130.5,-17.732
 L 130.838,-17.4863 L 131.118,-17.1756 L 131.327,-16.8135 L 131.456,-16.4158 L 131.5,-16 L 131.456,-15.5842
 L 131.327,-15.1865 L 131.118,-14.8244 L 130.838,-14.5137 L 130.5,-14.2679 L 130.118,-14.0979 L 129.709,-14.011
 z
M 112.291,-14.011 L 111.882,-14.0979 L 111.5,-14.2679 L 111.162,-14.5137 L 110.882,-14.8244 L 110.673,-15.1865
 L 110.544,-15.5842 L 110.5,-16 L 110.544,-16.4158 L 110.673,-16.8135 L 110.882,-17.1756 L 111.162,-17.4863
 L 111.5,-17.732 L 111.882,-17.9021 L 112.291,-17.989 L 112.709,-17.989 L 113.118,-17.9021 L 113.5,-17.732
 L 113.838,-17.4863 L 114.118,-17.1756 L 114.327,-16.8135 L 114.456,-16.4158 L 114.5,-16 L 114.456,-15.5842
 L 114.327,-15.1865 L 114.118,-14.8244 L 113.838,-14.5137 L 113.5,-14.2679 L 113.118,-14.0979 L 112.709,-14.011
 z
M 146.291,-14.011 L 145.882,-14.0979 L 145.5,-14.2679 L 145.162,-14.5137 L 144.882,-14.8244 L 144.673,-15.1865
 L 144.544,-15.5842 L 144.5,-16 L 144.544,-16.4158 L 144.673,-16.8135 L 144.882,-17.1756 L 145.162,-17.4863
 L 145.5,-17.732 L 145.882,-17.9021 L 146.291,-17.989 L 146.709,-17.989 L 147.118,-17.9021 L 147.5,-17.732
 L 147.838,-17.4863 L 148.118,-17.1756 L 148.327,-16.8135 L 148.456,-16.4158 L 148.5,-16 L 148.456,-15.5842
 L 148.327,-15.1865 L 148.118,-14.8244 L 147.838,-14.5137 L 147.5,-14.2679 L 147.118,-14.0979 L 146.709,-14.011
 z
M 331.807,-9.16013 L 331.428,-9.24054 L 331.075,-9.39784 L 330.762,-9.62517 L 330.503,-9.91258 L 330.31,-10.2475
 L 330.19,-10.6154 L 330.15,-11 L 330.19,-11.3846 L 330.31,-11.7525 L 330.503,-12.0874 L 330.762,-12.3748
 L 331.075,-12.6021 L 331.428,-12.7594 L 331.807,-12.8399 L 332.193,-12.8399 L 332.572,-12.7594 L 332.925,-12.6021
 L 333.238,-12.3748 L 333.497,-12.0874 L 333.69,-11.7525 L 333.81,-11.3846 L 333.85,-11 L 333.81,-10.6154
 L 333.69,-10.2475 L 333.497,-9.91258 L 333.238,-9.62517 L 332.925,-9.39784 L 332.572,-9.24054 L 332.193,-9.16013
 z
M 91.8066,-9.16013 L 91.4283,-9.24054 L 91.075,-9.39784 L 90.7621,-9.62517 L 90.5033,-9.91258 L 90.3099,-10.2475
 L 90.1904,-10.6154 L 90.15,-11 L 90.1904,-11.3846 L 90.3099,-11.7525 L 90.5033,-12.0874 L 90.7621,-12.3748
 L 91.075,-12.6021 L 91.4283,-12.7594 L 91.8066,-12.8399 L 92.1934,-12.8399 L 92.5717,-12.7594 L 92.925,-12.6021
 L 93.2379,-12.3748 L 93.4967,-12.0874 L 93.69,-11.7525 L 93.8096,-11.3846 L 93.85,-11 L 93.8096,-10.6154
 L 93.69,-10.2475 L 93.4967,-9.91258 L 93.2379,-9.62517 L 92.925,-9.39784 L 92.5717,-9.24054 L 92.1934,-9.16013
 z
M 231.807,-9.16013 L 231.428,-9.24054 L 231.075,-9.39784 L 230.762,-9.62517 L 230.503,-9.91258 L 230.31,-10.2475
 L 230.19,-10.6154 L 230.15,-11 L 230.19,-11.3846 L 230.31,-11.7525 L 230.503,-12.0874 L 230.762,-12.3748
 L 231.075,-12.6021 L 231.428,-12.7594 L 231.807,-12.8399 L 232.193,-12.8399 L 232.572,-12.7594 L 232.925,-12.6021
 L 233.238,-12.3748 L 233.497,-12.0874 L 233.69,-11.7525 L 233.81,-11.3846 L 233.85,-11 L 233.81,-10.6154
 L 233.69,-10.2475 L 233.497,-9.91258 L 233.238,-9.62517 L 232.925,-9.39784 L 232.572,-9.24054 L 232.193,-9.16013
 z
M 281.807,-9.16013 L 281.428,-9.24054 L 281.075,-9.39784 L 280.762,-9.62517 L 280.503,-9.91258 L 280.31,-10.2475
 L 280.19,-10.6154 L 280.15,-11 L 280.19,-11.3846 L 280.31,-11.7525 L 280.503,-12.0874 L 280.762,-12.3748
 L 281.075,-12.6021 L 281.428,-12.7594 L 281.807,-12.8399 L 282.193,-12.8399 L 282.572,-12.7594 L 282.925,-12.6021
 L 283.238,-12.3748 L 283.497,-12.0874 L 283.69,-11.7525 L 283.81,-11.3846 L 283.85,-11 L 283.81,-10.6154
 L 283.69,-10.2475 L 283.497,-9.91258 L 283.238,-9.62517 L 282.925,-9.39784 L 282.572,-9.24054 L 282.193,-9.16013
 z
M 191.807,-9.16013 L 191.428,-9.24054 L 191.075,-9.39784 L 190.762,-9.62517 L 190.503,-9.91258 L 190.31,-10.2475
 L 190.19,-10.6154 L 190.15,-11 L 190.19,-11.3846 L 190.31,-11.7525 L 190.503,-12.0874 L 190.762,-12.3748
 L 191.075,-12.6021 L 191.428,-12.7594 L 191.807,-12.8399 L 192.193,-12.8399 L 192.572,-12.7594 L 192.925,-12.6021
 L 193.238,-12.3748 L 193.497,-12.0874 L 193.69,-11.7525 L 193.81,-11.3846 L 193.85,-11 L 193.81,-10.6154
 L 193.69,-10.2475 L 193.497,-9.91258 L 193.238,-9.62517 L 192.925,-9.39784 L 192.572,-9.24054 L 192.193,-9.16013
 z
" stroke="black" fill="lightgray" stroke-width="0.5"/></svg>
