<?xml version="1.0" standalone="no"?>
<!DOCTYPE svg PUBLIC "-//W3C//DTD SVG 1.1//EN" "http://www.w3.org/Graphics/SVG/1.1/DTD/svg11.dtd">
<svg width="351" height="15" viewBox="-83 -15 351 15" xmlns="http://www.w3.org/2000/svg" version="1.1">
<title>OpenSCAD Model</title>
<path d="
M 267.5,-15 L -82.5,-15 L -82.5,-0 L 267.5,-0 z
M 95.6037,-7.60767 L 95.3174,-7.66852 L 95.05,-7.78755 L 94.8132,-7.95959 L 94.6174,-8.17709 L 94.471,-8.43056
 L 94.3806,-8.70892 L 94.35,-9 L 94.3806,-9.29106 L 94.471,-9.56943 L 94.6174,-9.82289 L 94.8132,-10.0404
 L 95.05,-10.2124 L 95.3174,-10.3315 L 95.6037,-10.3923 L 95.8963,-10.3923 L 96.1826,-10.3315 L 96.45,-10.2124
 L 96.6868,-10.0404 L 96.8826,-9.82289 L 97.029,-9.56943 L 97.1194,-9.29106 L 97.15,-9 L 97.1194,-8.70892
 L 97.029,-8.43056 L 96.8826,-8.17709 L 96.6868,-7.95959 L 96.45,-7.78755 L 96.1826,-7.66852 L 95.8963,-7.60767
 z
M 79.6037,-7.60767 L 79.3174,-7.66852 L 79.05,-7.78755 L 78.8132,-7.95959 L 78.6174,-8.17709 L 78.471,-8.43056
 L 78.3806,-8.70892 L 78.35,-9 L 78.3806,-9.29106 L 78.471,-9.56943 L 78.6174,-9.82289 L 78.8132,-10.0404
 L 79.05,-10.2124 L 79.3174,-10.3315 L 79.6037,-10.3923 L 79.8963,-10.3923 L 80.1826,-10.3315 L 80.45,-10.2124
 L 80.6868,-10.0404 L 80.8826,-9.82289 L 81.029,-9.56943 L 81.1194,-9.29106 L 81.15,-9 L 81.1194,-8.70892
 L 81.029,-8.43056 L 80.8826,-8.17709 L 80.6868,-7.95959 L 80.45,-7.78755 L 80.1826,-7.66852 L 79.8963,-7.60767
 z
M -35.3963,-6.60767 L -35.6826,-6.66852 L -35.95,-6.78755 L -36.1868,-6.95959 L -36.3826,-7.17709 L -36.529,-7.43056
 L -36.6194,-7.70892 L -36.65,-8 L -36.6194,-8.29106 L -36.529,-8.56943 L -36.3826,-8.82289 L -36.1868,-9.04039
 L -35.95,-9.21243 L -35.6826,-9.33147 L -35.3963,-9.39232 L -35.1037,-9.39232 L -34.8174,-9.33147 L -34.55,-9.21243
 L -34.3132,-9.04039 L -34.1174,-8.82289 L -33.971,-8.56943 L -33.8806,-8.29106 L -33.85,-8 L -33.8806,-7.70892
 L -33.971,-7.43056 L -34.1174,-7.17709 L -34.3132,-6.95959 L -34.55,-6.78755 L -34.8174,-6.66852 L -35.1037,-6.60767
 z
M 207.604,-6.60767 L 207.317,-6.66852 L 207.05,-6.78755 L 206.813,-6.95959 L 206.617,-7.17709 L 206.471,-7.43056
 L 206.381,-7.70892 L 206.35,-8 L 206.381,-8.29106 L 206.471,-8.56943 L 206.617,-8.82289 L 206.813,-9.04039
 L 207.05,-9.21243 L 207.317,-9.33147 L 207.604,-9.39232 L 207.896,-9.39232 L 208.183,-9.33147 L 208.45,-9.21243
 L 208.687,-9.04039 L 208.883,-8.82289 L 209.029,-8.56943 L 209.119,-8.29106 L 209.15,-8 L 209.119,-7.70892
 L 209.029,-7.43056 L 208.883,-7.17709 L 208.687,-6.95959 L 208.45,-6.78755 L 208.183,-6.66852 L 207.896,-6.60767
 z
M -10.3963,-6.60767 L -10.6826,-6.66852 L -10.95,-6.78755 L -11.1868,-6.95959 L -11.3826,-7.17709 L -11.529,-7.43056
 L -11.6194,-7.70892 L -11.65,-8 L -11.6194,-8.29106 L -11.529,-8.56943 L -11.3826,-8.82289 L -11.1868,-9.04039
 L -10.95,-9.21243 L -10.6826,-9.33147 L -10.3963,-9.39232 L -10.1037,-9.39232 L -9.81737,-9.33147 L -9.54999,-9.21243
 L -9.3132,-9.04039 L -9.11737,-8.82289 L -8.97102,-8.56943 L -8.88058,-8.29106 L -8.84999,-8 L -8.88058,-7.70892
 L -8.97102,-7.43056 L -9.11737,-7.17709 L -9.3132,-6.95959 L -9.54999,-6.78755 L -9.81737,-6.66852 L -10.1037,-6.60767
 z
M 182.604,-6.60767 L 182.317,-6.66852 L 182.05,-6.78755 L 181.813,-6.95959 L 181.617,-7.17709 L 181.471,-7.43056
 L 181.381,-7.70892 L 181.35,-8 L 181.381,-8.29106 L 181.471,-8.56943 L 181.617,-8.82289 L 181.813,-9.04039
 L 182.05,-9.21243 L 182.317,-9.33147 L 182.604,-9.39232 L 182.896,-9.39232 L 183.183,-9.33147 L 183.45,-9.21243
 L 183.687,-9.04039 L 183.883,-8.82289 L 184.029,-8.56943 L 184.119,-8.29106 L 184.15,-8 L 184.119,-7.70892
 L 184.029,-7.43056 L 183.883,-7.17709 L 183.687,-6.95959 L 183.45,-6.78755 L 183.183,-6.66852 L 182.896,-6.60767
 z
M 162.051,-5.6104 L 161.663,-5.69298 L 161.3,-5.85454 L 160.979,-6.08801 L 160.713,-6.38319 L 160.514,-6.72719
 L 160.392,-7.10497 L 160.35,-7.5 L 160.392,-7.89502 L 160.514,-8.2728 L 160.713,-8.61679 L 160.979,-8.91197
 L 161.3,-9.14545 L 161.663,-9.30701 L 162.051,-9.38959 L 162.449,-9.38959 L 162.837,-9.30701 L 163.2,-9.14545
 L 163.521,-8.91197 L 163.787,-8.61679 L 163.986,-8.2728 L 164.108,-7.89502 L 164.15,-7.5 L 164.108,-7.10497
 L 163.986,-6.72719 L 163.787,-6.38319 L 163.521,-6.08801 L 163.2,-5.85454 L 162.837,-5.69298 L 162.449,-5.6104
 z
M 61.0514,-5.6104 L 60.6629,-5.69298 L 60.3,-5.85454 L 59.9787,-6.08801 L 59.7129,-6.38319 L 59.5143,-6.72719
 L 59.3915,-7.10497 L 59.35,-7.5 L 59.3915,-7.89502 L 59.5143,-8.2728 L 59.7129,-8.61679 L 59.9787,-8.91197
 L 60.3,-9.14545 L 60.6629,-9.30701 L 61.0514,-9.38959 L 61.4486,-9.38959 L 61.8371,-9.30701 L 62.2,-9.14545
 L 62.5213,-8.91197 L 62.7871,-8.61679 L 62.9857,-8.2728 L 63.1085,-7.89502 L 63.15,-7.5 L 63.1085,-7.10497
 L 62.9857,-6.72719 L 62.7871,-6.38319 L 62.5213,-6.08801 L 62.2,-5.85454 L 61.8371,-5.69298 L 61.4486,-5.6104
 z
M 41.3537,-6.10767 L 41.0674,-6.16852 L 40.8,-6.28755 L 40.5632,-6.45959 L 40.3674,-6.67709 L 40.221,-6.93056
 L 40.1306,-7.20892 L 40.1,-7.5 L 40.1306,-7.79106 L 40.221,-8.06943 L 40.3674,-8.32289 L 40.5632,-8.54039
 L 40.8,-8.71243 L 41.0674,-8.83147 L 41.3537,-8.89232 L 41.6463,-8.89232 L 41.9326,-8.83147 L 42.2,-8.71243
 L 42.4368,-8.54039 L 42.6326,-8.32289 L 42.779,-8.06943 L 42.8694,-7.79106 L 42.9,-7.5 L 42.8694,-7.20892
 L 42.779,-6.93056 L 42.6326,-6.67709 L 42.4368,-6.45959 L 42.2,-6.28755 L 41.9326,-6.16852 L 41.6463,-6.10767
 z
M 16.1037,-6.10767 L 15.8174,-6.16852 L 15.55,-6.28755 L 15.3132,-6.45959 L 15.1174,-6.67709 L 14.971,-6.93056
 L 14.8806,-7.20892 L 14.85,-7.5 L 14.8806,-7.79106 L 14.971,-8.06943 L 15.1174,-8.32289 L 15.3132,-8.54039
 L 15.55,-8.71243 L 15.8174,-8.83147 L 16.1037,-8.89232 L 16.3963,-8.89232 L 16.6826,-8.83147 L 16.95,-8.71243
 L 17.1868,-8.54039 L 17.3826,-8.32289 L 17.529,-8.06943 L 17.6194,-7.79106 L 17.65,-7.5 L 17.6194,-7.20892
 L 17.529,-6.93056 L 17.3826,-6.67709 L 17.1868,-6.45959 L 16.95,-6.28755 L 16.6826,-6.16852 L 16.3963,-6.10767
 z
M 31.3537,-6.10767 L 31.0674,-6.16852 L 30.8,-6.28755 L 30.5632,-6.45959 L 30.3674,-6.67709 L 30.221,-6.93056
 L 30.1306,-7.20892 L 30.1,-7.5 L 30.1306,-7.79106 L 30.221,-8.06943 L 30.3674,-8.32289 L 30.5632,-8.54039
 L 30.8,-8.71243 L 31.0674,-8.83147 L 31.3537,-8.89232 L 31.6463,-8.89232 L 31.9326,-8.83147 L 32.2,-8.71243
 L 32.4368,-8.54039 L 32.6326,-8.32289 L 32.779,-8.06943 L 32.8694,-7.79106 L 32.9,-7.5 L 32.8694,-7.20892
 L 32.779,-6.93056 L 32.6326,-6.67709 L 32.4368,-6.45959 L 32.2,-6.28755 L 31.9326,-6.16852 L 31.6463,-6.10767
 z
" stroke="black" fill="lightgray" stroke-width="0.5"/></svg>
