solid OpenSCAD_Model
  facet normal 0 0 -1
    outer loop
      vertex 180 23 29
      vertex 182 115.234 29
      vertex 182 23 29
    endloop
  endfacet
  facet normal -0 0 -1
    outer loop
      vertex 182 115.234 29
      vertex 180 23 29
      vertex 180 115.234 29
    endloop
  endfacet
  facet normal 1 0 0
    outer loop
      vertex 182 69 66.5
      vertex 182 61.5 49.35
      vertex 182 63.1021 48.425
    endloop
  endfacet
  facet normal 1 -0 0
    outer loop
      vertex 182 56.25 53
      vertex 182 61.5 49.35
      vertex 182 69 66.5
    endloop
  endfacet
  facet normal 1 0 0
    outer loop
      vertex 182 59.8979 48.425
      vertex 182 56.25 53
      vertex 182 59.8979 46.575
    endloop
  endfacet
  facet normal 1 0 0
    outer loop
      vertex 182 61.5 49.35
      vertex 182 56.25 53
      vertex 182 59.8979 48.425
    endloop
  endfacet
  facet normal 1 0 0
    outer loop
      vertex 182 69 66.5
      vertex 182 39.75 53
      vertex 182 56.25 53
    endloop
  endfacet
  facet normal 1 0 0
    outer loop
      vertex 182 36.1021 46.575
      vertex 182 39.75 53
      vertex 182 36.1021 48.425
    endloop
  endfacet
  facet normal 1 0 0
    outer loop
      vertex 182 39.75 53
      vertex 182 34.5 49.35
      vertex 182 36.1021 48.425
    endloop
  endfacet
  facet normal 1 0 0
    outer loop
      vertex 182 23 66.5
      vertex 182 34.5 49.35
      vertex 182 39.75 53
    endloop
  endfacet
  facet normal 1 0 0
    outer loop
      vertex 182 23 29
      vertex 182 32.8979 48.425
      vertex 182 23 66.5
    endloop
  endfacet
  facet normal 1 0 0
    outer loop
      vertex 182 34.5 49.35
      vertex 182 23 66.5
      vertex 182 32.8979 48.425
    endloop
  endfacet
  facet normal 1 -0 0
    outer loop
      vertex 182 23 66.5
      vertex 182 39.75 53
      vertex 182 69 66.5
    endloop
  endfacet
  facet normal 1 0 0
    outer loop
      vertex 182 69 66.5
      vertex 182 82.5 66.5
      vertex 182 78.5 69.15
    endloop
  endfacet
  facet normal 1 0 0
    outer loop
      vertex 182 82.5 66.5
      vertex 182 78.4 46.85
      vertex 182 80.0022 45.925
    endloop
  endfacet
  facet normal 1 0 0
    outer loop
      vertex 182 69 66.5
      vertex 182 78.5 69.15
      vertex 182 76.8979 70.075
    endloop
  endfacet
  facet normal 1 0 0
    outer loop
      vertex 182 82.5 66.5
      vertex 182 69 66.5
      vertex 182 78.4 46.85
    endloop
  endfacet
  facet normal 1 0 0
    outer loop
      vertex 182 101.5 66.5
      vertex 182 87.3431 50.6569
      vertex 182 98.6569 50.6569
    endloop
  endfacet
  facet normal 1 0 0
    outer loop
      vertex 182 80.0022 45.925
      vertex 182 87.3431 50.6569
      vertex 182 82.5 66.5
    endloop
  endfacet
  facet normal 1 -0 0
    outer loop
      vertex 182 82.5 66.5
      vertex 182 87.3431 50.6569
      vertex 182 101.5 66.5
    endloop
  endfacet
  facet normal 1 -0 0
    outer loop
      vertex 182 107.102 71.925
      vertex 182 115 68.8386
      vertex 182 115 84
    endloop
  endfacet
  facet normal 1 -0 0
    outer loop
      vertex 182 105.5 69.15
      vertex 182 115 68.8386
      vertex 182 107.102 70.075
    endloop
  endfacet
  facet normal 1 0 0
    outer loop
      vertex 182 115 68.8386
      vertex 182 107.102 71.925
      vertex 182 107.102 70.075
    endloop
  endfacet
  facet normal 1 0 0
    outer loop
      vertex 182 115 84
      vertex 182 105.5 72.85
      vertex 182 107.102 71.925
    endloop
  endfacet
  facet normal 1 -0 0
    outer loop
      vertex 182 101.5 75.5
      vertex 182 105.5 72.85
      vertex 182 115 84
    endloop
  endfacet
  facet normal 1 0 0
    outer loop
      vertex 182 103.898 71.925
      vertex 182 101.5 75.5
      vertex 182 103.898 70.075
    endloop
  endfacet
  facet normal 1 0 0
    outer loop
      vertex 182 105.5 72.85
      vertex 182 101.5 75.5
      vertex 182 103.898 71.925
    endloop
  endfacet
  facet normal 1 0 0
    outer loop
      vertex 182 115 84
      vertex 182 82.5 75.5
      vertex 182 101.5 75.5
    endloop
  endfacet
  facet normal 1 0 0
    outer loop
      vertex 182 82.5 75.5
      vertex 182 80.1021 71.925
      vertex 182 82.5 66.5
    endloop
  endfacet
  facet normal 1 0 0
    outer loop
      vertex 182 82.5 75.5
      vertex 182 78.5 72.85
      vertex 182 80.1021 71.925
    endloop
  endfacet
  facet normal 1 0 0
    outer loop
      vertex 182 69 84
      vertex 182 78.5 72.85
      vertex 182 82.5 75.5
    endloop
  endfacet
  facet normal 1 0 0
    outer loop
      vertex 182 69 66.5
      vertex 182 76.8979 70.075
      vertex 182 76.8979 71.925
    endloop
  endfacet
  facet normal 1 0 0
    outer loop
      vertex 182 78.4 46.85
      vertex 182 69 66.5
      vertex 182 76.7979 45.925
    endloop
  endfacet
  facet normal 1 0 0
    outer loop
      vertex 182 69 66.5
      vertex 182 76.8979 71.925
      vertex 182 69 84
    endloop
  endfacet
  facet normal 1 0 0
    outer loop
      vertex 182 78.5 72.85
      vertex 182 69 84
      vertex 182 76.8979 71.925
    endloop
  endfacet
  facet normal 1 -0 0
    outer loop
      vertex 182 69 84
      vertex 182 82.5 75.5
      vertex 182 115 84
    endloop
  endfacet
  facet normal 1 0 0
    outer loop
      vertex 182 115 68.8386
      vertex 182 107.6 46.85
      vertex 182 109.202 45.925
    endloop
  endfacet
  facet normal 1 0 0
    outer loop
      vertex 182 115 68.8386
      vertex 182 105.5 69.15
      vertex 182 107.6 46.85
    endloop
  endfacet
  facet normal 1 -0 0
    outer loop
      vertex 182 98.6569 50.6569
      vertex 182 107.6 46.85
      vertex 182 101.5 66.5
    endloop
  endfacet
  facet normal 1 -0 0
    outer loop
      vertex 182 101.5 66.5
      vertex 182 107.6 46.85
      vertex 182 105.5 69.15
    endloop
  endfacet
  facet normal 1 0 0
    outer loop
      vertex 182 143.482 69.4708
      vertex 182 147 65.5
      vertex 182 146.542 67.3589
    endloop
  endfacet
  facet normal 1 0 -0
    outer loop
      vertex 182 136.065 43.2891
      vertex 182 147 65.5
      vertex 182 135.664 44.5218
    endloop
  endfacet
  facet normal 1 0 0
    outer loop
      vertex 182 143.482 69.4708
      vertex 182 146.542 67.3589
      vertex 182 145.272 68.7919
    endloop
  endfacet
  facet normal 1 -0 -0
    outer loop
      vertex 182 136.2 42
      vertex 182 147 32.5
      vertex 182 136.065 43.2891
    endloop
  endfacet
  facet normal 1 0 0
    outer loop
      vertex 182 147 65.5
      vertex 182 143.482 69.4708
      vertex 182 134.445 62.5709
    endloop
  endfacet
  facet normal 1 -0 0
    outer loop
      vertex 182 136.065 40.7109
      vertex 182 147 32.5
      vertex 182 136.2 42
    endloop
  endfacet
  facet normal 1 -0 0
    outer loop
      vertex 182 135.664 39.4782
      vertex 182 147 32.5
      vertex 182 136.065 40.7109
    endloop
  endfacet
  facet normal 1 -0 0
    outer loop
      vertex 182 135.016 38.3557
      vertex 182 147 32.5
      vertex 182 135.664 39.4782
    endloop
  endfacet
  facet normal 1 0 0
    outer loop
      vertex 182 147 65.5
      vertex 182 136.065 43.2891
      vertex 182 147 32.5
    endloop
  endfacet
  facet normal 1 0 0
    outer loop
      vertex 182 147 65.5
      vertex 182 135.016 45.6443
      vertex 182 135.664 44.5218
    endloop
  endfacet
  facet normal 1 0 0
    outer loop
      vertex 182 147 65.5
      vertex 182 134.445 62.5709
      vertex 182 132.543 55.5
    endloop
  endfacet
  facet normal 1 0 0
    outer loop
      vertex 182 143.482 69.4708
      vertex 182 133.789 62.5709
      vertex 182 134.445 62.5709
    endloop
  endfacet
  facet normal 1 0 0
    outer loop
      vertex 182 132.476 57.4346
      vertex 182 131.959 57.4346
      vertex 182 132.215 56.2767
    endloop
  endfacet
  facet normal 1 0 0
    outer loop
      vertex 182 133.789 62.5709
      vertex 182 131.959 57.4346
      vertex 182 132.476 57.4346
    endloop
  endfacet
  facet normal 1 0 0
    outer loop
      vertex 182 133.789 62.5709
      vertex 182 130.696 62.5709
      vertex 182 131.959 57.4346
    endloop
  endfacet
  facet normal 1 0 0
    outer loop
      vertex 182 143.482 69.4708
      vertex 182 130.696 62.5709
      vertex 182 133.789 62.5709
    endloop
  endfacet
  facet normal 1 0 0
    outer loop
      vertex 182 143.482 69.4708
      vertex 182 130 62.5709
      vertex 182 130.696 62.5709
    endloop
  endfacet
  facet normal 1 0 0
    outer loop
      vertex 182 129.087 61.7651
      vertex 182 130 62.5709
      vertex 182 129.087 62.5948
    endloop
  endfacet
  facet normal 1 -0 0
    outer loop
      vertex 182 117.482 69.4708
      vertex 182 130 62.5709
      vertex 182 143.482 69.4708
    endloop
  endfacet
  facet normal 1 0 0
    outer loop
      vertex 182 130 62.5709
      vertex 182 117.482 69.4708
      vertex 182 129.087 62.5948
    endloop
  endfacet
  facet normal 1 0 0
    outer loop
      vertex 182 125.812 56.04
      vertex 182 109.202 45.925
      vertex 182 124.984 45.6443
    endloop
  endfacet
  facet normal 1 0 0
    outer loop
      vertex 182 124.984 45.6443
      vertex 182 109.202 45.925
      vertex 182 124.336 44.5218
    endloop
  endfacet
  facet normal 1 0 0
    outer loop
      vertex 182 124.336 44.5218
      vertex 182 109.202 45.925
      vertex 182 123.935 43.2891
    endloop
  endfacet
  facet normal 1 0 0
    outer loop
      vertex 182 125.326 58.9633
      vertex 182 115 68.8386
      vertex 182 125.188 57.473
    endloop
  endfacet
  facet normal 1 -0 0
    outer loop
      vertex 182 115 68.8386
      vertex 182 125.326 58.9633
      vertex 182 117.482 69.4708
    endloop
  endfacet
  facet normal 1 0 0
    outer loop
      vertex 182 125.939 62.5948
      vertex 182 117.482 69.4708
      vertex 182 125.326 58.9633
    endloop
  endfacet
  facet normal 1 0 0
    outer loop
      vertex 182 129.087 62.5948
      vertex 182 117.482 69.4708
      vertex 182 125.939 62.5948
    endloop
  endfacet
  facet normal 1 0 -0
    outer loop
      vertex 182 143.482 28.5292
      vertex 182 147 32.5
      vertex 182 135.016 38.3557
    endloop
  endfacet
  facet normal 1 0 0
    outer loop
      vertex 182 146.542 30.6411
      vertex 182 143.482 28.5292
      vertex 182 145.272 29.2081
    endloop
  endfacet
  facet normal 1 0 0
    outer loop
      vertex 182 147 32.5
      vertex 182 143.482 28.5292
      vertex 182 146.542 30.6411
    endloop
  endfacet
  facet normal 1 -0 0
    outer loop
      vertex 182 134.149 37.3925
      vertex 182 143.482 28.5292
      vertex 182 135.016 38.3557
    endloop
  endfacet
  facet normal 1 -0 0
    outer loop
      vertex 182 133.1 36.6306
      vertex 182 143.482 28.5292
      vertex 182 134.149 37.3925
    endloop
  endfacet
  facet normal 1 -0 0
    outer loop
      vertex 182 131.916 36.1035
      vertex 182 143.482 28.5292
      vertex 182 133.1 36.6306
    endloop
  endfacet
  facet normal 1 -0 0
    outer loop
      vertex 182 130.648 35.834
      vertex 182 143.482 28.5292
      vertex 182 131.916 36.1035
    endloop
  endfacet
  facet normal 1 0 0
    outer loop
      vertex 182 117.482 28.5292
      vertex 182 130.648 35.834
      vertex 182 129.352 35.834
    endloop
  endfacet
  facet normal 1 0 0
    outer loop
      vertex 182 117.482 28.5292
      vertex 182 129.352 35.834
      vertex 182 128.084 36.1035
    endloop
  endfacet
  facet normal 1 0 0
    outer loop
      vertex 182 117.482 28.5292
      vertex 182 128.084 36.1035
      vertex 182 126.9 36.6306
    endloop
  endfacet
  facet normal 1 -0 0
    outer loop
      vertex 182 109.202 44.075
      vertex 182 123.935 43.2891
      vertex 182 109.202 45.925
    endloop
  endfacet
  facet normal 1 0 0
    outer loop
      vertex 182 130.648 35.834
      vertex 182 117.482 28.5292
      vertex 182 143.482 28.5292
    endloop
  endfacet
  facet normal 1 0 0
    outer loop
      vertex 182 125.851 37.3925
      vertex 182 117.482 28.5292
      vertex 182 126.9 36.6306
    endloop
  endfacet
  facet normal 1 0 0
    outer loop
      vertex 182 124.984 38.3557
      vertex 182 117.482 28.5292
      vertex 182 125.851 37.3925
    endloop
  endfacet
  facet normal 1 0 0
    outer loop
      vertex 182 124.336 39.4782
      vertex 182 117.482 28.5292
      vertex 182 124.984 38.3557
    endloop
  endfacet
  facet normal 1 0 0
    outer loop
      vertex 182 115.234 29
      vertex 182 124.336 39.4782
      vertex 182 123.935 40.7109
    endloop
  endfacet
  facet normal 1 0 0
    outer loop
      vertex 182 123.935 43.2891
      vertex 182 109.202 44.075
      vertex 182 123.8 42
    endloop
  endfacet
  facet normal 1 0 0
    outer loop
      vertex 182 115 68.8386
      vertex 182 117.482 69.4708
      vertex 182 115.582 69.2401
    endloop
  endfacet
  facet normal 1 0 0
    outer loop
      vertex 182 123.8 42
      vertex 182 109.202 44.075
      vertex 182 123.935 40.7109
    endloop
  endfacet
  facet normal 1 0 -0
    outer loop
      vertex 182 115.234 29
      vertex 182 123.935 40.7109
      vertex 182 109.202 44.075
    endloop
  endfacet
  facet normal 1 0 0
    outer loop
      vertex 182 125.188 57.473
      vertex 182 115 68.8386
      vertex 182 109.202 45.925
    endloop
  endfacet
  facet normal 1 0 0
    outer loop
      vertex 182 124.336 39.4782
      vertex 182 115.234 29
      vertex 182 117.482 28.5292
    endloop
  endfacet
  facet normal 1 0 0
    outer loop
      vertex 182 117.482 28.5292
      vertex 182 115.234 29
      vertex 182 115.582 28.7599
    endloop
  endfacet
  facet normal 1 -0 0
    outer loop
      vertex 182 107.6 43.15
      vertex 182 115.234 29
      vertex 182 109.202 44.075
    endloop
  endfacet
  facet normal 1 0 0
    outer loop
      vertex 182 98.6569 39.3431
      vertex 182 107.6 43.15
      vertex 182 105.998 44.075
    endloop
  endfacet
  facet normal 1 0 0
    outer loop
      vertex 182 101.5 66.5
      vertex 182 105.5 69.15
      vertex 182 103.898 70.075
    endloop
  endfacet
  facet normal 1 0 0
    outer loop
      vertex 182 101.5 66.5
      vertex 182 103.898 70.075
      vertex 182 101.5 75.5
    endloop
  endfacet
  facet normal 1 0 0
    outer loop
      vertex 182 107.6 46.85
      vertex 182 98.6569 50.6569
      vertex 182 105.998 45.925
    endloop
  endfacet
  facet normal 1 0 0
    outer loop
      vertex 182 105.998 45.925
      vertex 182 98.6569 50.6569
      vertex 182 105.998 44.075
    endloop
  endfacet
  facet normal 1 0 0
    outer loop
      vertex 182 98.6569 39.3431
      vertex 182 105.998 44.075
      vertex 182 98.6569 50.6569
    endloop
  endfacet
  facet normal 1 0 0
    outer loop
      vertex 182 107.6 43.15
      vertex 182 98.6569 39.3431
      vertex 182 115.234 29
    endloop
  endfacet
  facet normal 1 -0 0
    outer loop
      vertex 182 87.3431 39.3431
      vertex 182 115.234 29
      vertex 182 98.6569 39.3431
    endloop
  endfacet
  facet normal 1 -0 0
    outer loop
      vertex 182 80.1021 70.075
      vertex 182 82.5 66.5
      vertex 182 80.1021 71.925
    endloop
  endfacet
  facet normal 1 -0 0
    outer loop
      vertex 182 78.5 69.15
      vertex 182 82.5 66.5
      vertex 182 80.1021 70.075
    endloop
  endfacet
  facet normal 1 0 0
    outer loop
      vertex 182 87.3431 50.6569
      vertex 182 80.0022 45.925
      vertex 182 87.3431 39.3431
    endloop
  endfacet
  facet normal 1 -0 0
    outer loop
      vertex 182 80.0022 44.075
      vertex 182 87.3431 39.3431
      vertex 182 80.0022 45.925
    endloop
  endfacet
  facet normal 1 -0 0
    outer loop
      vertex 182 78.4 43.15
      vertex 182 87.3431 39.3431
      vertex 182 80.0022 44.075
    endloop
  endfacet
  facet normal 1 -0 0
    outer loop
      vertex 182 63.1021 48.425
      vertex 182 76.7979 45.925
      vertex 182 69 66.5
    endloop
  endfacet
  facet normal 1 -0 0
    outer loop
      vertex 182 63.1021 46.575
      vertex 182 76.7979 45.925
      vertex 182 63.1021 48.425
    endloop
  endfacet
  facet normal 1 0 0
    outer loop
      vertex 182 76.7979 45.925
      vertex 182 63.1021 46.575
      vertex 182 76.7979 44.075
    endloop
  endfacet
  facet normal 1 -0 0
    outer loop
      vertex 182 61.5 45.65
      vertex 182 76.7979 44.075
      vertex 182 63.1021 46.575
    endloop
  endfacet
  facet normal 1 0 0
    outer loop
      vertex 182 56.25 39
      vertex 182 76.7979 44.075
      vertex 182 61.5 45.65
    endloop
  endfacet
  facet normal 1 0 0
    outer loop
      vertex 182 78.4 43.15
      vertex 182 56.25 39
      vertex 182 87.3431 39.3431
    endloop
  endfacet
  facet normal 1 0 0
    outer loop
      vertex 182 76.7979 44.075
      vertex 182 56.25 39
      vertex 182 78.4 43.15
    endloop
  endfacet
  facet normal 1 0 0
    outer loop
      vertex 182 56.25 39
      vertex 182 59.8979 46.575
      vertex 182 56.25 53
    endloop
  endfacet
  facet normal 1 0 0
    outer loop
      vertex 182 56.25 39
      vertex 182 61.5 45.65
      vertex 182 59.8979 46.575
    endloop
  endfacet
  facet normal 1 0 0
    outer loop
      vertex 182 87.3431 39.3431
      vertex 182 56.25 39
      vertex 182 115.234 29
    endloop
  endfacet
  facet normal 1 0 0
    outer loop
      vertex 182 23 29
      vertex 182 56.25 39
      vertex 182 39.75 39
    endloop
  endfacet
  facet normal 1 0 0
    outer loop
      vertex 182 39.75 53
      vertex 182 36.1021 46.575
      vertex 182 39.75 39
    endloop
  endfacet
  facet normal 1 -0 0
    outer loop
      vertex 182 34.5 45.65
      vertex 182 39.75 39
      vertex 182 36.1021 46.575
    endloop
  endfacet
  facet normal 1 0 0
    outer loop
      vertex 182 23 29
      vertex 182 34.5 45.65
      vertex 182 32.8979 46.575
    endloop
  endfacet
  facet normal 1 0 0
    outer loop
      vertex 182 56.25 39
      vertex 182 23 29
      vertex 182 115.234 29
    endloop
  endfacet
  facet normal 1 0 0
    outer loop
      vertex 182 34.5 45.65
      vertex 182 23 29
      vertex 182 39.75 39
    endloop
  endfacet
  facet normal 1 0 0
    outer loop
      vertex 182 32.8979 48.425
      vertex 182 23 29
      vertex 182 32.8979 46.575
    endloop
  endfacet
  facet normal 1 0 0
    outer loop
      vertex 182 147 65.5
      vertex 182 132.543 55.5
      vertex 182 135.016 45.6443
    endloop
  endfacet
  facet normal 1 0 0
    outer loop
      vertex 182 135.016 45.6443
      vertex 182 132.543 55.5
      vertex 182 134.149 46.6075
    endloop
  endfacet
  facet normal 1 0 0
    outer loop
      vertex 182 134.149 46.6075
      vertex 182 132.543 55.5
      vertex 182 133.1 47.3694
    endloop
  endfacet
  facet normal 1 0 0
    outer loop
      vertex 182 132.543 55.5
      vertex 182 131.916 47.8966
      vertex 182 133.1 47.3694
    endloop
  endfacet
  facet normal 1 -0 0
    outer loop
      vertex 182 131.883 55.5
      vertex 182 131.916 47.8966
      vertex 182 132.543 55.5
    endloop
  endfacet
  facet normal 1 0 0
    outer loop
      vertex 182 131.883 55.5
      vertex 182 130.648 48.166
      vertex 182 131.916 47.8966
    endloop
  endfacet
  facet normal 1 -0 0
    outer loop
      vertex 182 129.386 58.0182
      vertex 182 131.883 55.5
      vertex 182 130 62.5709
    endloop
  endfacet
  facet normal 1 -0 0
    outer loop
      vertex 182 128.885 56.3588
      vertex 182 131.883 55.5
      vertex 182 129.386 58.0182
    endloop
  endfacet
  facet normal 1 0 0
    outer loop
      vertex 182 127.222 55.5
      vertex 182 131.883 55.5
      vertex 182 128.885 56.3588
    endloop
  endfacet
  facet normal 1 0 0
    outer loop
      vertex 182 131.883 55.5
      vertex 182 129.352 48.166
      vertex 182 130.648 48.166
    endloop
  endfacet
  facet normal 1 0 0
    outer loop
      vertex 182 131.883 55.5
      vertex 182 127.222 55.5
      vertex 182 129.352 48.166
    endloop
  endfacet
  facet normal 1 0 0
    outer loop
      vertex 182 129.352 48.166
      vertex 182 127.222 55.5
      vertex 182 128.084 47.8966
    endloop
  endfacet
  facet normal 1 0 0
    outer loop
      vertex 182 127.222 55.5
      vertex 182 126.9 47.3694
      vertex 182 128.084 47.8966
    endloop
  endfacet
  facet normal 1 0 0
    outer loop
      vertex 182 125.812 56.04
      vertex 182 126.9 47.3694
      vertex 182 127.222 55.5
    endloop
  endfacet
  facet normal 1 0 0
    outer loop
      vertex 182 126.9 47.3694
      vertex 182 125.812 56.04
      vertex 182 125.851 46.6075
    endloop
  endfacet
  facet normal 1 0 0
    outer loop
      vertex 182 109.202 45.925
      vertex 182 125.812 56.04
      vertex 182 125.188 57.473
    endloop
  endfacet
  facet normal 1 0 0
    outer loop
      vertex 182 125.812 56.04
      vertex 182 124.984 45.6443
      vertex 182 125.851 46.6075
    endloop
  endfacet
  facet normal 1 0 0
    outer loop
      vertex 182 128.816 59.6674
      vertex 182 130 62.5709
      vertex 182 129.087 61.7651
    endloop
  endfacet
  facet normal 1 0 0
    outer loop
      vertex 182 130 62.5709
      vertex 182 128.816 59.6674
      vertex 182 129.386 58.0182
    endloop
  endfacet
  facet normal 1 0 0
    outer loop
      vertex 182 129.087 61.7651
      vertex 182 127.416 60.3091
      vertex 182 128.816 59.6674
    endloop
  endfacet
  facet normal 1 -0 0
    outer loop
      vertex 182 126.562 61.7651
      vertex 182 127.416 60.3091
      vertex 182 129.087 61.7651
    endloop
  endfacet
  facet normal 1 0 0
    outer loop
      vertex 182 127.416 60.3091
      vertex 182 126.562 61.7651
      vertex 182 126.22 59.8647
    endloop
  endfacet
  facet normal 1 0 0
    outer loop
      vertex 182 126.004 57.5499
      vertex 182 128.561 57.9404
      vertex 182 128.188 59.1128
    endloop
  endfacet
  facet normal 1 0 0
    outer loop
      vertex 182 128.561 57.9404
      vertex 182 126.004 57.5499
      vertex 182 128.172 56.6869
    endloop
  endfacet
  facet normal 1 0 0
    outer loop
      vertex 182 126.056 58.8573
      vertex 182 128.188 59.1128
      vertex 182 127.209 59.5417
    endloop
  endfacet
  facet normal 1 0 0
    outer loop
      vertex 182 126.056 58.8573
      vertex 182 127.209 59.5417
      vertex 182 126.531 59.3512
    endloop
  endfacet
  facet normal 1 0 -0
    outer loop
      vertex 182 126.425 56.5493
      vertex 182 128.172 56.6869
      vertex 182 126.004 57.5499
    endloop
  endfacet
  facet normal 1 0 0
    outer loop
      vertex 182 128.188 59.1128
      vertex 182 126.056 58.8573
      vertex 182 126.004 57.5499
    endloop
  endfacet
  facet normal 1 0 0
    outer loop
      vertex 182 128.172 56.6869
      vertex 182 126.425 56.5493
      vertex 182 127.222 56.2144
    endloop
  endfacet
  facet normal 1 0 0
    outer loop
      vertex 182 125.326 58.9633
      vertex 182 126.004 57.5499
      vertex 182 126.056 58.8573
    endloop
  endfacet
  facet normal 1 0 0
    outer loop
      vertex 182 126.004 57.5499
      vertex 182 125.326 58.9633
      vertex 182 125.188 57.473
    endloop
  endfacet
  facet normal -1 0 0
    outer loop
      vertex 180 76.7979 45.925
      vertex 180 63.1021 48.425
      vertex 180 69 66.5
    endloop
  endfacet
  facet normal -1 0 0
    outer loop
      vertex 180 61.5 49.35
      vertex 180 69 66.5
      vertex 180 63.1021 48.425
    endloop
  endfacet
  facet normal -1 0 0
    outer loop
      vertex 180 56.25 53
      vertex 180 61.5 49.35
      vertex 180 59.8979 48.425
    endloop
  endfacet
  facet normal -1 0 0
    outer loop
      vertex 180 59.8979 46.575
      vertex 180 56.25 53
      vertex 180 59.8979 48.425
    endloop
  endfacet
  facet normal -1 0 0
    outer loop
      vertex 180 61.5 49.35
      vertex 180 56.25 53
      vertex 180 69 66.5
    endloop
  endfacet
  facet normal -1 0 0
    outer loop
      vertex 180 39.75 53
      vertex 180 69 66.5
      vertex 180 56.25 53
    endloop
  endfacet
  facet normal -1 0 0
    outer loop
      vertex 180 36.1021 48.425
      vertex 180 39.75 53
      vertex 180 36.1021 46.575
    endloop
  endfacet
  facet normal -1 0 0
    outer loop
      vertex 180 34.5 49.35
      vertex 180 39.75 53
      vertex 180 36.1021 48.425
    endloop
  endfacet
  facet normal -1 0 0
    outer loop
      vertex 180 23 66.5
      vertex 180 34.5 49.35
      vertex 180 32.8979 48.425
    endloop
  endfacet
  facet normal -1 0 0
    outer loop
      vertex 180 39.75 53
      vertex 180 23 66.5
      vertex 180 69 66.5
    endloop
  endfacet
  facet normal -1 0 0
    outer loop
      vertex 180 34.5 49.35
      vertex 180 23 66.5
      vertex 180 39.75 53
    endloop
  endfacet
  facet normal -1 0 0
    outer loop
      vertex 180 23 66.5
      vertex 180 32.8979 48.425
      vertex 180 23 29
    endloop
  endfacet
  facet normal -1 0 0
    outer loop
      vertex 180 98.6569 50.6569
      vertex 180 107.6 46.85
      vertex 180 105.998 45.925
    endloop
  endfacet
  facet normal -1 0 0
    outer loop
      vertex 180 107.6 46.85
      vertex 180 105.5 69.15
      vertex 180 107.102 70.075
    endloop
  endfacet
  facet normal -1 0 0
    outer loop
      vertex 180 107.6 46.85
      vertex 180 115 68.8386
      vertex 180 109.202 45.925
    endloop
  endfacet
  facet normal -1 -0 0
    outer loop
      vertex 180 115 68.8386
      vertex 180 107.6 46.85
      vertex 180 107.102 70.075
    endloop
  endfacet
  facet normal -1 0 0
    outer loop
      vertex 180 107.102 71.925
      vertex 180 115 68.8386
      vertex 180 107.102 70.075
    endloop
  endfacet
  facet normal -1 0 0
    outer loop
      vertex 180 115 68.8386
      vertex 180 107.102 71.925
      vertex 180 115 84
    endloop
  endfacet
  facet normal -1 0 0
    outer loop
      vertex 180 105.5 72.85
      vertex 180 115 84
      vertex 180 107.102 71.925
    endloop
  endfacet
  facet normal -1 0 0
    outer loop
      vertex 180 101.5 75.5
      vertex 180 105.5 72.85
      vertex 180 103.898 71.925
    endloop
  endfacet
  facet normal -1 0 0
    outer loop
      vertex 180 101.5 75.5
      vertex 180 103.898 71.925
      vertex 180 101.5 66.5
    endloop
  endfacet
  facet normal -1 0 0
    outer loop
      vertex 180 105.5 72.85
      vertex 180 101.5 75.5
      vertex 180 115 84
    endloop
  endfacet
  facet normal -1 0 0
    outer loop
      vertex 180 82.5 75.5
      vertex 180 115 84
      vertex 180 101.5 75.5
    endloop
  endfacet
  facet normal -1 0 0
    outer loop
      vertex 180 80.1021 71.925
      vertex 180 82.5 75.5
      vertex 180 80.1021 70.075
    endloop
  endfacet
  facet normal -1 0 0
    outer loop
      vertex 180 78.5 72.85
      vertex 180 82.5 75.5
      vertex 180 80.1021 71.925
    endloop
  endfacet
  facet normal -1 0 0
    outer loop
      vertex 180 69 84
      vertex 180 78.5 72.85
      vertex 180 76.8979 71.925
    endloop
  endfacet
  facet normal -1 -0 0
    outer loop
      vertex 180 76.8979 70.075
      vertex 180 69 66.5
      vertex 180 76.8979 71.925
    endloop
  endfacet
  facet normal -1 0 0
    outer loop
      vertex 180 82.5 75.5
      vertex 180 69 84
      vertex 180 115 84
    endloop
  endfacet
  facet normal -1 0 0
    outer loop
      vertex 180 78.5 72.85
      vertex 180 69 84
      vertex 180 82.5 75.5
    endloop
  endfacet
  facet normal -1 0 0
    outer loop
      vertex 180 69 84
      vertex 180 76.8979 71.925
      vertex 180 69 66.5
    endloop
  endfacet
  facet normal -1 0 0
    outer loop
      vertex 180 107.6 46.85
      vertex 180 98.6569 50.6569
      vertex 180 101.5 66.5
    endloop
  endfacet
  facet normal -1 0 0
    outer loop
      vertex 180 87.3431 50.6569
      vertex 180 101.5 66.5
      vertex 180 98.6569 50.6569
    endloop
  endfacet
  facet normal -1 -0 0
    outer loop
      vertex 180 101.5 66.5
      vertex 180 87.3431 50.6569
      vertex 180 82.5 66.5
    endloop
  endfacet
  facet normal -1 -0 0
    outer loop
      vertex 180 87.3431 50.6569
      vertex 180 78.4 46.85
      vertex 180 82.5 66.5
    endloop
  endfacet
  facet normal -1 0 0
    outer loop
      vertex 180 82.5 66.5
      vertex 180 78.5 69.15
      vertex 180 80.1021 70.075
    endloop
  endfacet
  facet normal -1 0 0
    outer loop
      vertex 180 69 66.5
      vertex 180 82.5 66.5
      vertex 180 78.4 46.85
    endloop
  endfacet
  facet normal -1 0 0
    outer loop
      vertex 180 82.5 66.5
      vertex 180 69 66.5
      vertex 180 78.5 69.15
    endloop
  endfacet
  facet normal -1 -0 0
    outer loop
      vertex 180 78.5 69.15
      vertex 180 69 66.5
      vertex 180 76.8979 70.075
    endloop
  endfacet
  facet normal -1 0 0
    outer loop
      vertex 180 69 66.5
      vertex 180 78.4 46.85
      vertex 180 76.7979 45.925
    endloop
  endfacet
  facet normal -1 0 0
    outer loop
      vertex 180 143.482 28.5292
      vertex 180 147 32.5
      vertex 180 146.542 30.6411
    endloop
  endfacet
  facet normal -1 0 0
    outer loop
      vertex 180 147 32.5
      vertex 180 136.065 43.2891
      vertex 180 147 65.5
    endloop
  endfacet
  facet normal -1 0 0
    outer loop
      vertex 180 143.482 28.5292
      vertex 180 146.542 30.6411
      vertex 180 145.272 29.2081
    endloop
  endfacet
  facet normal -1 0 0
    outer loop
      vertex 180 135.664 44.5218
      vertex 180 147 65.5
      vertex 180 136.065 43.2891
    endloop
  endfacet
  facet normal -1 -0 0
    outer loop
      vertex 180 147 32.5
      vertex 180 143.482 28.5292
      vertex 180 135.016 38.3557
    endloop
  endfacet
  facet normal -1 0 0
    outer loop
      vertex 180 135.016 45.6443
      vertex 180 147 65.5
      vertex 180 135.664 44.5218
    endloop
  endfacet
  facet normal -1 0 0
    outer loop
      vertex 180 147 32.5
      vertex 180 136.2 42
      vertex 180 136.065 43.2891
    endloop
  endfacet
  facet normal -1 0 0
    outer loop
      vertex 180 147 32.5
      vertex 180 136.065 40.7109
      vertex 180 136.2 42
    endloop
  endfacet
  facet normal -1 0 0
    outer loop
      vertex 180 147 32.5
      vertex 180 135.664 39.4782
      vertex 180 136.065 40.7109
    endloop
  endfacet
  facet normal -1 0 0
    outer loop
      vertex 180 147 32.5
      vertex 180 135.016 38.3557
      vertex 180 135.664 39.4782
    endloop
  endfacet
  facet normal -1 0 0
    outer loop
      vertex 180 143.482 28.5292
      vertex 180 134.149 37.3925
      vertex 180 135.016 38.3557
    endloop
  endfacet
  facet normal -1 0 0
    outer loop
      vertex 180 143.482 28.5292
      vertex 180 133.1 36.6306
      vertex 180 134.149 37.3925
    endloop
  endfacet
  facet normal -1 0 0
    outer loop
      vertex 180 143.482 28.5292
      vertex 180 131.916 36.1035
      vertex 180 133.1 36.6306
    endloop
  endfacet
  facet normal -1 0 0
    outer loop
      vertex 180 143.482 28.5292
      vertex 180 130.648 35.834
      vertex 180 131.916 36.1035
    endloop
  endfacet
  facet normal -1 0 0
    outer loop
      vertex 180 117.482 28.5292
      vertex 180 130.648 35.834
      vertex 180 143.482 28.5292
    endloop
  endfacet
  facet normal -1 -0 0
    outer loop
      vertex 180 130.648 35.834
      vertex 180 117.482 28.5292
      vertex 180 129.352 35.834
    endloop
  endfacet
  facet normal -1 -0 0
    outer loop
      vertex 180 129.352 35.834
      vertex 180 117.482 28.5292
      vertex 180 128.084 36.1035
    endloop
  endfacet
  facet normal -1 -0 0
    outer loop
      vertex 180 124.336 39.4782
      vertex 180 115.234 29
      vertex 180 123.935 40.7109
    endloop
  endfacet
  facet normal -1 0 0
    outer loop
      vertex 180 115.234 29
      vertex 180 124.336 39.4782
      vertex 180 117.482 28.5292
    endloop
  endfacet
  facet normal -1 -0 0
    outer loop
      vertex 180 124.984 38.3557
      vertex 180 117.482 28.5292
      vertex 180 124.336 39.4782
    endloop
  endfacet
  facet normal -1 -0 0
    outer loop
      vertex 180 125.851 37.3925
      vertex 180 117.482 28.5292
      vertex 180 124.984 38.3557
    endloop
  endfacet
  facet normal -1 -0 0
    outer loop
      vertex 180 126.9 36.6306
      vertex 180 117.482 28.5292
      vertex 180 125.851 37.3925
    endloop
  endfacet
  facet normal -1 -0 0
    outer loop
      vertex 180 128.084 36.1035
      vertex 180 117.482 28.5292
      vertex 180 126.9 36.6306
    endloop
  endfacet
  facet normal -1 0 0
    outer loop
      vertex 180 134.149 46.6075
      vertex 180 147 65.5
      vertex 180 135.016 45.6443
    endloop
  endfacet
  facet normal -1 0 0
    outer loop
      vertex 180 133.1 47.3694
      vertex 180 147 65.5
      vertex 180 134.149 46.6075
    endloop
  endfacet
  facet normal -1 0 0
    outer loop
      vertex 180 131.916 47.8966
      vertex 180 147 65.5
      vertex 180 133.1 47.3694
    endloop
  endfacet
  facet normal -1 0 0
    outer loop
      vertex 180 147 65.5
      vertex 180 143.482 69.4708
      vertex 180 146.542 67.3589
    endloop
  endfacet
  facet normal -1 0 0
    outer loop
      vertex 180 146.542 67.3589
      vertex 180 143.482 69.4708
      vertex 180 145.272 68.7919
    endloop
  endfacet
  facet normal -1 -0 0
    outer loop
      vertex 180 147 65.5
      vertex 180 131.916 47.8966
      vertex 180 143.482 69.4708
    endloop
  endfacet
  facet normal -1 0 0
    outer loop
      vertex 180 130.648 48.166
      vertex 180 143.482 69.4708
      vertex 180 131.916 47.8966
    endloop
  endfacet
  facet normal -1 0 0
    outer loop
      vertex 180 117.482 69.4708
      vertex 180 130.648 48.166
      vertex 180 129.352 48.166
    endloop
  endfacet
  facet normal -1 0 0
    outer loop
      vertex 180 117.482 69.4708
      vertex 180 129.352 48.166
      vertex 180 128.084 47.8966
    endloop
  endfacet
  facet normal -1 0 0
    outer loop
      vertex 180 117.482 69.4708
      vertex 180 128.084 47.8966
      vertex 180 126.9 47.3694
    endloop
  endfacet
  facet normal -1 0 0
    outer loop
      vertex 180 115 68.8386
      vertex 180 126.9 47.3694
      vertex 180 125.851 46.6075
    endloop
  endfacet
  facet normal -1 0 0
    outer loop
      vertex 180 124.336 44.5218
      vertex 180 109.202 45.925
      vertex 180 124.984 45.6443
    endloop
  endfacet
  facet normal -1 0 0
    outer loop
      vertex 180 109.202 44.075
      vertex 180 123.935 40.7109
      vertex 180 115.234 29
    endloop
  endfacet
  facet normal -1 0 0
    outer loop
      vertex 180 123.935 40.7109
      vertex 180 109.202 44.075
      vertex 180 123.8 42
    endloop
  endfacet
  facet normal -1 0 0
    outer loop
      vertex 180 130.648 48.166
      vertex 180 117.482 69.4708
      vertex 180 143.482 69.4708
    endloop
  endfacet
  facet normal -1 0 0
    outer loop
      vertex 180 123.935 43.2891
      vertex 180 109.202 45.925
      vertex 180 124.336 44.5218
    endloop
  endfacet
  facet normal -1 0 0
    outer loop
      vertex 180 123.8 42
      vertex 180 109.202 44.075
      vertex 180 123.935 43.2891
    endloop
  endfacet
  facet normal -1 0 0
    outer loop
      vertex 180 115.234 29
      vertex 180 117.482 28.5292
      vertex 180 115.582 28.7599
    endloop
  endfacet
  facet normal -1 0 0
    outer loop
      vertex 180 124.984 45.6443
      vertex 180 109.202 45.925
      vertex 180 125.851 46.6075
    endloop
  endfacet
  facet normal -1 0 0
    outer loop
      vertex 180 109.202 45.925
      vertex 180 123.935 43.2891
      vertex 180 109.202 44.075
    endloop
  endfacet
  facet normal -1 0 0
    outer loop
      vertex 180 126.9 47.3694
      vertex 180 115 68.8386
      vertex 180 117.482 69.4708
    endloop
  endfacet
  facet normal -1 -0 0
    outer loop
      vertex 180 125.851 46.6075
      vertex 180 109.202 45.925
      vertex 180 115 68.8386
    endloop
  endfacet
  facet normal -1 0 0
    outer loop
      vertex 180 117.482 69.4708
      vertex 180 115 68.8386
      vertex 180 115.582 69.2401
    endloop
  endfacet
  facet normal -1 0 0
    outer loop
      vertex 180 115.234 29
      vertex 180 107.6 43.15
      vertex 180 109.202 44.075
    endloop
  endfacet
  facet normal -1 0 0
    outer loop
      vertex 180 98.6569 39.3431
      vertex 180 107.6 43.15
      vertex 180 115.234 29
    endloop
  endfacet
  facet normal -1 0 0
    outer loop
      vertex 180 98.6569 39.3431
      vertex 180 105.998 45.925
      vertex 180 105.998 44.075
    endloop
  endfacet
  facet normal -1 0 0
    outer loop
      vertex 180 107.6 46.85
      vertex 180 101.5 66.5
      vertex 180 105.5 69.15
    endloop
  endfacet
  facet normal -1 -0 0
    outer loop
      vertex 180 103.898 70.075
      vertex 180 101.5 66.5
      vertex 180 103.898 71.925
    endloop
  endfacet
  facet normal -1 -0 0
    outer loop
      vertex 180 105.5 69.15
      vertex 180 101.5 66.5
      vertex 180 103.898 70.075
    endloop
  endfacet
  facet normal -1 0 0
    outer loop
      vertex 180 98.6569 50.6569
      vertex 180 105.998 45.925
      vertex 180 98.6569 39.3431
    endloop
  endfacet
  facet normal -1 -0 0
    outer loop
      vertex 180 107.6 43.15
      vertex 180 98.6569 39.3431
      vertex 180 105.998 44.075
    endloop
  endfacet
  facet normal -1 0 0
    outer loop
      vertex 180 115.234 29
      vertex 180 87.3431 39.3431
      vertex 180 98.6569 39.3431
    endloop
  endfacet
  facet normal -1 0 0
    outer loop
      vertex 180 80.0022 44.075
      vertex 180 87.3431 50.6569
      vertex 180 87.3431 39.3431
    endloop
  endfacet
  facet normal -1 0 0
    outer loop
      vertex 180 82.5 66.5
      vertex 180 80.1021 70.075
      vertex 180 82.5 75.5
    endloop
  endfacet
  facet normal -1 0 0
    outer loop
      vertex 180 80.0022 45.925
      vertex 180 87.3431 50.6569
      vertex 180 80.0022 44.075
    endloop
  endfacet
  facet normal -1 0 0
    outer loop
      vertex 180 78.4 46.85
      vertex 180 87.3431 50.6569
      vertex 180 80.0022 45.925
    endloop
  endfacet
  facet normal -1 0 0
    outer loop
      vertex 180 87.3431 39.3431
      vertex 180 78.4 43.15
      vertex 180 80.0022 44.075
    endloop
  endfacet
  facet normal -1 0 0
    outer loop
      vertex 180 63.1021 46.575
      vertex 180 76.7979 45.925
      vertex 180 76.7979 44.075
    endloop
  endfacet
  facet normal -1 0 0
    outer loop
      vertex 180 63.1021 48.425
      vertex 180 76.7979 45.925
      vertex 180 63.1021 46.575
    endloop
  endfacet
  facet normal -1 0 0
    outer loop
      vertex 180 56.25 39
      vertex 180 76.7979 44.075
      vertex 180 78.4 43.15
    endloop
  endfacet
  facet normal -1 0 0
    outer loop
      vertex 180 56.25 39
      vertex 180 78.4 43.15
      vertex 180 87.3431 39.3431
    endloop
  endfacet
  facet normal -1 0 0
    outer loop
      vertex 180 56.25 39
      vertex 180 87.3431 39.3431
      vertex 180 115.234 29
    endloop
  endfacet
  facet normal -1 -0 0
    outer loop
      vertex 180 76.7979 44.075
      vertex 180 56.25 39
      vertex 180 61.5 45.65
    endloop
  endfacet
  facet normal -1 0 0
    outer loop
      vertex 180 56.25 53
      vertex 180 59.8979 46.575
      vertex 180 56.25 39
    endloop
  endfacet
  facet normal -1 -0 0
    outer loop
      vertex 180 61.5 45.65
      vertex 180 56.25 39
      vertex 180 59.8979 46.575
    endloop
  endfacet
  facet normal -1 0 0
    outer loop
      vertex 180 76.7979 44.075
      vertex 180 61.5 45.65
      vertex 180 63.1021 46.575
    endloop
  endfacet
  facet normal -1 0 0
    outer loop
      vertex 180 23 29
      vertex 180 56.25 39
      vertex 180 115.234 29
    endloop
  endfacet
  facet normal -1 0 0
    outer loop
      vertex 180 39.75 39
      vertex 180 36.1021 46.575
      vertex 180 39.75 53
    endloop
  endfacet
  facet normal -1 0 0
    outer loop
      vertex 180 39.75 39
      vertex 180 34.5 45.65
      vertex 180 36.1021 46.575
    endloop
  endfacet
  facet normal -1 0 0
    outer loop
      vertex 180 23 29
      vertex 180 34.5 45.65
      vertex 180 39.75 39
    endloop
  endfacet
  facet normal -1 -0 0
    outer loop
      vertex 180 32.8979 46.575
      vertex 180 23 29
      vertex 180 32.8979 48.425
    endloop
  endfacet
  facet normal -1 -0 0
    outer loop
      vertex 180 34.5 45.65
      vertex 180 23 29
      vertex 180 32.8979 46.575
    endloop
  endfacet
  facet normal -1 -0 0
    outer loop
      vertex 180 56.25 39
      vertex 180 23 29
      vertex 180 39.75 39
    endloop
  endfacet
  facet normal -0 0 1
    outer loop
      vertex 180 69 66.5
      vertex 182 23 66.5
      vertex 182 69 66.5
    endloop
  endfacet
  facet normal 0 0 1
    outer loop
      vertex 182 23 66.5
      vertex 180 69 66.5
      vertex 180 23 66.5
    endloop
  endfacet
  facet normal 0 -1 0
    outer loop
      vertex 180 23 29
      vertex 182 23 66.5
      vertex 180 23 66.5
    endloop
  endfacet
  facet normal 0 -1 -0
    outer loop
      vertex 182 23 66.5
      vertex 180 23 29
      vertex 182 23 29
    endloop
  endfacet
  facet normal 0 -1 0
    outer loop
      vertex 180 36.1021 46.575
      vertex 182 36.1021 48.425
      vertex 180 36.1021 48.425
    endloop
  endfacet
  facet normal 0 -1 -0
    outer loop
      vertex 182 36.1021 48.425
      vertex 180 36.1021 46.575
      vertex 182 36.1021 46.575
    endloop
  endfacet
  facet normal 0 -0.500011 0.866019
    outer loop
      vertex 180 36.1021 46.575
      vertex 182 34.5 45.65
      vertex 182 36.1021 46.575
    endloop
  endfacet
  facet normal 0 -0.500011 0.866019
    outer loop
      vertex 182 34.5 45.65
      vertex 180 36.1021 46.575
      vertex 180 34.5 45.65
    endloop
  endfacet
  facet normal 0 -0.500011 -0.866019
    outer loop
      vertex 180 34.5 49.35
      vertex 182 36.1021 48.425
      vertex 182 34.5 49.35
    endloop
  endfacet
  facet normal -0 -0.500011 -0.866019
    outer loop
      vertex 182 36.1021 48.425
      vertex 180 34.5 49.35
      vertex 180 36.1021 48.425
    endloop
  endfacet
  facet normal 0 0.500011 -0.866019
    outer loop
      vertex 180 32.8979 48.425
      vertex 182 34.5 49.35
      vertex 182 32.8979 48.425
    endloop
  endfacet
  facet normal 0 0.500011 -0.866019
    outer loop
      vertex 182 34.5 49.35
      vertex 180 32.8979 48.425
      vertex 180 34.5 49.35
    endloop
  endfacet
  facet normal -0 0.500011 0.866019
    outer loop
      vertex 180 34.5 45.65
      vertex 182 32.8979 46.575
      vertex 182 34.5 45.65
    endloop
  endfacet
  facet normal 0 0.500011 0.866019
    outer loop
      vertex 182 32.8979 46.575
      vertex 180 34.5 45.65
      vertex 180 32.8979 46.575
    endloop
  endfacet
  facet normal 0 1 -0
    outer loop
      vertex 182 32.8979 46.575
      vertex 180 32.8979 48.425
      vertex 182 32.8979 48.425
    endloop
  endfacet
  facet normal 0 1 0
    outer loop
      vertex 180 32.8979 48.425
      vertex 182 32.8979 46.575
      vertex 180 32.8979 46.575
    endloop
  endfacet
  facet normal 0 -1 0
    outer loop
      vertex 180 63.1021 46.575
      vertex 182 63.1021 48.425
      vertex 180 63.1021 48.425
    endloop
  endfacet
  facet normal 0 -1 -0
    outer loop
      vertex 182 63.1021 48.425
      vertex 180 63.1021 46.575
      vertex 182 63.1021 46.575
    endloop
  endfacet
  facet normal 0 -0.500011 0.866019
    outer loop
      vertex 180 63.1021 46.575
      vertex 182 61.5 45.65
      vertex 182 63.1021 46.575
    endloop
  endfacet
  facet normal 0 -0.500011 0.866019
    outer loop
      vertex 182 61.5 45.65
      vertex 180 63.1021 46.575
      vertex 180 61.5 45.65
    endloop
  endfacet
  facet normal 0 -0.500011 -0.866019
    outer loop
      vertex 180 61.5 49.35
      vertex 182 63.1021 48.425
      vertex 182 61.5 49.35
    endloop
  endfacet
  facet normal -0 -0.500011 -0.866019
    outer loop
      vertex 182 63.1021 48.425
      vertex 180 61.5 49.35
      vertex 180 63.1021 48.425
    endloop
  endfacet
  facet normal 0 0.500011 -0.866019
    outer loop
      vertex 180 59.8979 48.425
      vertex 182 61.5 49.35
      vertex 182 59.8979 48.425
    endloop
  endfacet
  facet normal 0 0.500011 -0.866019
    outer loop
      vertex 182 61.5 49.35
      vertex 180 59.8979 48.425
      vertex 180 61.5 49.35
    endloop
  endfacet
  facet normal -0 0.500011 0.866019
    outer loop
      vertex 180 61.5 45.65
      vertex 182 59.8979 46.575
      vertex 182 61.5 45.65
    endloop
  endfacet
  facet normal 0 0.500011 0.866019
    outer loop
      vertex 182 59.8979 46.575
      vertex 180 61.5 45.65
      vertex 180 59.8979 46.575
    endloop
  endfacet
  facet normal 0 1 -0
    outer loop
      vertex 182 59.8979 46.575
      vertex 180 59.8979 48.425
      vertex 182 59.8979 48.425
    endloop
  endfacet
  facet normal 0 1 0
    outer loop
      vertex 180 59.8979 48.425
      vertex 182 59.8979 46.575
      vertex 180 59.8979 46.575
    endloop
  endfacet
  facet normal -0 0 1
    outer loop
      vertex 180 56.25 39
      vertex 182 39.75 39
      vertex 182 56.25 39
    endloop
  endfacet
  facet normal 0 0 1
    outer loop
      vertex 182 39.75 39
      vertex 180 56.25 39
      vertex 180 39.75 39
    endloop
  endfacet
  facet normal 0 0 -1
    outer loop
      vertex 180 39.75 53
      vertex 182 56.25 53
      vertex 182 39.75 53
    endloop
  endfacet
  facet normal -0 0 -1
    outer loop
      vertex 182 56.25 53
      vertex 180 39.75 53
      vertex 180 56.25 53
    endloop
  endfacet
  facet normal 0 -1 0
    outer loop
      vertex 180 56.25 39
      vertex 182 56.25 53
      vertex 180 56.25 53
    endloop
  endfacet
  facet normal 0 -1 -0
    outer loop
      vertex 182 56.25 53
      vertex 180 56.25 39
      vertex 182 56.25 39
    endloop
  endfacet
  facet normal 0 1 -0
    outer loop
      vertex 182 39.75 39
      vertex 180 39.75 53
      vertex 182 39.75 53
    endloop
  endfacet
  facet normal 0 1 0
    outer loop
      vertex 180 39.75 53
      vertex 182 39.75 39
      vertex 180 39.75 39
    endloop
  endfacet
  facet normal 1 0 0
    outer loop
      vertex 183 129.087 62.5948
      vertex 183 126.562 61.7651
      vertex 183 129.087 61.7651
    endloop
  endfacet
  facet normal 1 -0 0
    outer loop
      vertex 183 125.939 62.5948
      vertex 183 126.562 61.7651
      vertex 183 129.087 62.5948
    endloop
  endfacet
  facet normal 1 0 0
    outer loop
      vertex 183 125.939 62.5948
      vertex 183 126.22 59.8647
      vertex 183 126.562 61.7651
    endloop
  endfacet
  facet normal 1 0 0
    outer loop
      vertex 183 125.326 58.9633
      vertex 183 126.22 59.8647
      vertex 183 125.939 62.5948
    endloop
  endfacet
  facet normal 1 0 0
    outer loop
      vertex 183 126.22 59.8647
      vertex 183 125.326 58.9633
      vertex 183 126.056 58.8573
    endloop
  endfacet
  facet normal 1 0 0
    outer loop
      vertex 183 129.386 58.0182
      vertex 183 128.188 59.1128
      vertex 183 128.561 57.9404
    endloop
  endfacet
  facet normal 1 0 0
    outer loop
      vertex 183 127.416 60.3091
      vertex 183 128.188 59.1128
      vertex 183 128.816 59.6674
    endloop
  endfacet
  facet normal 1 0 0
    outer loop
      vertex 183 127.416 60.3091
      vertex 183 127.209 59.5417
      vertex 183 128.188 59.1128
    endloop
  endfacet
  facet normal 1 -0 0
    outer loop
      vertex 183 126.22 59.8647
      vertex 183 127.209 59.5417
      vertex 183 127.416 60.3091
    endloop
  endfacet
  facet normal 1 0 0
    outer loop
      vertex 183 127.209 59.5417
      vertex 183 126.22 59.8647
      vertex 183 126.531 59.3512
    endloop
  endfacet
  facet normal 1 0 0
    outer loop
      vertex 183 126.531 59.3512
      vertex 183 126.22 59.8647
      vertex 183 126.056 58.8573
    endloop
  endfacet
  facet normal 1 -0 0
    outer loop
      vertex 183 128.188 59.1128
      vertex 183 129.386 58.0182
      vertex 183 128.816 59.6674
    endloop
  endfacet
  facet normal 1 0 0
    outer loop
      vertex 183 129.386 58.0182
      vertex 183 128.561 57.9404
      vertex 183 128.885 56.3588
    endloop
  endfacet
  facet normal 1 -0 0
    outer loop
      vertex 183 128.172 56.6869
      vertex 183 128.885 56.3588
      vertex 183 128.561 57.9404
    endloop
  endfacet
  facet normal 1 0 0
    outer loop
      vertex 183 127.222 55.5
      vertex 183 128.172 56.6869
      vertex 183 127.222 56.2144
    endloop
  endfacet
  facet normal 1 0 0
    outer loop
      vertex 183 128.172 56.6869
      vertex 183 127.222 55.5
      vertex 183 128.885 56.3588
    endloop
  endfacet
  facet normal 1 0 0
    outer loop
      vertex 183 126.425 56.5493
      vertex 183 127.222 55.5
      vertex 183 127.222 56.2144
    endloop
  endfacet
  facet normal 1 0 0
    outer loop
      vertex 183 126.425 56.5493
      vertex 183 125.812 56.04
      vertex 183 127.222 55.5
    endloop
  endfacet
  facet normal 1 0 0
    outer loop
      vertex 183 126.004 57.5499
      vertex 183 125.812 56.04
      vertex 183 126.425 56.5493
    endloop
  endfacet
  facet normal 1 0 -0
    outer loop
      vertex 183 125.812 56.04
      vertex 183 126.004 57.5499
      vertex 183 125.188 57.473
    endloop
  endfacet
  facet normal 0 0.95732 -0.289031
    outer loop
      vertex 183 128.885 56.3588
      vertex 182 129.386 58.0182
      vertex 183 129.386 58.0182
    endloop
  endfacet
  facet normal 0 0.95732 -0.289031
    outer loop
      vertex 182 129.386 58.0182
      vertex 183 128.885 56.3588
      vertex 182 128.885 56.3588
    endloop
  endfacet
  facet normal 0 0.945141 0.326662
    outer loop
      vertex 183 129.386 58.0182
      vertex 182 128.816 59.6674
      vertex 183 128.816 59.6674
    endloop
  endfacet
  facet normal 0 0.945141 0.326662
    outer loop
      vertex 182 128.816 59.6674
      vertex 183 129.386 58.0182
      vertex 182 129.386 58.0182
    endloop
  endfacet
  facet normal -0 0.416673 0.909057
    outer loop
      vertex 182 128.816 59.6674
      vertex 183 127.416 60.3091
      vertex 183 128.816 59.6674
    endloop
  endfacet
  facet normal 0 0.416673 0.909057
    outer loop
      vertex 183 127.416 60.3091
      vertex 182 128.816 59.6674
      vertex 182 127.416 60.3091
    endloop
  endfacet
  facet normal 0 -0.348305 0.937381
    outer loop
      vertex 182 127.416 60.3091
      vertex 183 126.22 59.8647
      vertex 183 127.416 60.3091
    endloop
  endfacet
  facet normal 0 -0.348305 0.937381
    outer loop
      vertex 183 126.22 59.8647
      vertex 182 127.416 60.3091
      vertex 182 126.22 59.8647
    endloop
  endfacet
  facet normal 0 0.98419 -0.177117
    outer loop
      vertex 183 126.22 59.8647
      vertex 182 126.562 61.7651
      vertex 183 126.562 61.7651
    endloop
  endfacet
  facet normal 0 0.98419 -0.177117
    outer loop
      vertex 182 126.562 61.7651
      vertex 183 126.22 59.8647
      vertex 182 126.22 59.8647
    endloop
  endfacet
  facet normal 0 0 -1
    outer loop
      vertex 182 126.562 61.7651
      vertex 183 129.087 61.7651
      vertex 183 126.562 61.7651
    endloop
  endfacet
  facet normal -0 0 -1
    outer loop
      vertex 183 129.087 61.7651
      vertex 182 126.562 61.7651
      vertex 182 129.087 61.7651
    endloop
  endfacet
  facet normal 0 1 -0
    outer loop
      vertex 183 129.087 61.7651
      vertex 182 129.087 62.5948
      vertex 183 129.087 62.5948
    endloop
  endfacet
  facet normal 0 1 0
    outer loop
      vertex 182 129.087 62.5948
      vertex 183 129.087 61.7651
      vertex 182 129.087 61.7651
    endloop
  endfacet
  facet normal -0 0 1
    outer loop
      vertex 182 129.087 62.5948
      vertex 183 125.939 62.5948
      vertex 183 129.087 62.5948
    endloop
  endfacet
  facet normal 0 0 1
    outer loop
      vertex 183 125.939 62.5948
      vertex 182 129.087 62.5948
      vertex 182 125.939 62.5948
    endloop
  endfacet
  facet normal 0 -0.986051 0.166446
    outer loop
      vertex 182 125.326 58.9633
      vertex 183 125.939 62.5948
      vertex 182 125.939 62.5948
    endloop
  endfacet
  facet normal 0 -0.986051 0.166446
    outer loop
      vertex 183 125.939 62.5948
      vertex 182 125.326 58.9633
      vertex 183 125.326 58.9633
    endloop
  endfacet
  facet normal 0 -0.143698 -0.989622
    outer loop
      vertex 182 125.326 58.9633
      vertex 183 126.056 58.8573
      vertex 183 125.326 58.9633
    endloop
  endfacet
  facet normal -0 -0.143698 -0.989622
    outer loop
      vertex 183 126.056 58.8573
      vertex 182 125.326 58.9633
      vertex 182 126.056 58.8573
    endloop
  endfacet
  facet normal 0 0.720763 -0.693182
    outer loop
      vertex 183 126.056 58.8573
      vertex 182 126.531 59.3512
      vertex 183 126.531 59.3512
    endloop
  endfacet
  facet normal 0 0.720763 -0.693182
    outer loop
      vertex 182 126.531 59.3512
      vertex 183 126.056 58.8573
      vertex 182 126.056 58.8573
    endloop
  endfacet
  facet normal 0 0.270499 -0.96272
    outer loop
      vertex 182 126.531 59.3512
      vertex 183 127.209 59.5417
      vertex 183 126.531 59.3512
    endloop
  endfacet
  facet normal 0 0.270499 -0.96272
    outer loop
      vertex 183 127.209 59.5417
      vertex 182 126.531 59.3512
      vertex 182 127.209 59.5417
    endloop
  endfacet
  facet normal 0 -0.40128 -0.915955
    outer loop
      vertex 182 127.209 59.5417
      vertex 183 128.188 59.1128
      vertex 183 127.209 59.5417
    endloop
  endfacet
  facet normal -0 -0.40128 -0.915955
    outer loop
      vertex 183 128.188 59.1128
      vertex 182 127.209 59.5417
      vertex 182 128.188 59.1128
    endloop
  endfacet
  facet normal 0 -0.952934 -0.303177
    outer loop
      vertex 182 128.561 57.9404
      vertex 183 128.188 59.1128
      vertex 182 128.188 59.1128
    endloop
  endfacet
  facet normal 0 -0.952934 -0.303177
    outer loop
      vertex 183 128.188 59.1128
      vertex 182 128.561 57.9404
      vertex 183 128.561 57.9404
    endloop
  endfacet
  facet normal 0 -0.955068 0.296387
    outer loop
      vertex 182 128.172 56.6869
      vertex 183 128.561 57.9404
      vertex 182 128.561 57.9404
    endloop
  endfacet
  facet normal 0 -0.955068 0.296387
    outer loop
      vertex 183 128.561 57.9404
      vertex 182 128.172 56.6869
      vertex 183 128.172 56.6869
    endloop
  endfacet
  facet normal 0 -0.445328 0.895368
    outer loop
      vertex 182 128.172 56.6869
      vertex 183 127.222 56.2144
      vertex 183 128.172 56.6869
    endloop
  endfacet
  facet normal 0 -0.445328 0.895368
    outer loop
      vertex 183 127.222 56.2144
      vertex 182 128.172 56.6869
      vertex 182 127.222 56.2144
    endloop
  endfacet
  facet normal -0 0.38739 0.921916
    outer loop
      vertex 182 127.222 56.2144
      vertex 183 126.425 56.5493
      vertex 183 127.222 56.2144
    endloop
  endfacet
  facet normal 0 0.38739 0.921916
    outer loop
      vertex 183 126.425 56.5493
      vertex 182 127.222 56.2144
      vertex 182 126.425 56.5493
    endloop
  endfacet
  facet normal 0 0.921736 0.387818
    outer loop
      vertex 183 126.425 56.5493
      vertex 182 126.004 57.5499
      vertex 183 126.004 57.5499
    endloop
  endfacet
  facet normal 0 0.921736 0.387818
    outer loop
      vertex 182 126.004 57.5499
      vertex 183 126.425 56.5493
      vertex 182 126.425 56.5493
    endloop
  endfacet
  facet normal 0 -0.0938245 0.995589
    outer loop
      vertex 182 126.004 57.5499
      vertex 183 125.188 57.473
      vertex 183 126.004 57.5499
    endloop
  endfacet
  facet normal 0 -0.0938245 0.995589
    outer loop
      vertex 183 125.188 57.473
      vertex 182 126.004 57.5499
      vertex 182 125.188 57.473
    endloop
  endfacet
  facet normal 0 -0.916846 -0.399241
    outer loop
      vertex 182 125.812 56.04
      vertex 183 125.188 57.473
      vertex 182 125.188 57.473
    endloop
  endfacet
  facet normal 0 -0.916846 -0.399241
    outer loop
      vertex 183 125.188 57.473
      vertex 182 125.812 56.04
      vertex 183 125.812 56.04
    endloop
  endfacet
  facet normal 0 -0.357647 -0.933857
    outer loop
      vertex 182 125.812 56.04
      vertex 183 127.222 55.5
      vertex 183 125.812 56.04
    endloop
  endfacet
  facet normal -0 -0.357647 -0.933857
    outer loop
      vertex 183 127.222 55.5
      vertex 182 125.812 56.04
      vertex 182 127.222 55.5
    endloop
  endfacet
  facet normal 0 0.458844 -0.888517
    outer loop
      vertex 182 127.222 55.5
      vertex 183 128.885 56.3588
      vertex 183 127.222 55.5
    endloop
  endfacet
  facet normal 0 0.458844 -0.888517
    outer loop
      vertex 183 128.885 56.3588
      vertex 182 127.222 55.5
      vertex 182 128.885 56.3588
    endloop
  endfacet
  facet normal 1 0 0
    outer loop
      vertex 183 132.476 57.4346
      vertex 183 134.445 62.5709
      vertex 183 133.789 62.5709
    endloop
  endfacet
  facet normal 1 0 0
    outer loop
      vertex 183 134.445 62.5709
      vertex 183 132.476 57.4346
      vertex 183 132.543 55.5
    endloop
  endfacet
  facet normal 1 -0 0
    outer loop
      vertex 183 132.215 56.2767
      vertex 183 132.543 55.5
      vertex 183 132.476 57.4346
    endloop
  endfacet
  facet normal 1 0 0
    outer loop
      vertex 183 132.215 56.2767
      vertex 183 131.883 55.5
      vertex 183 132.543 55.5
    endloop
  endfacet
  facet normal 1 0 0
    outer loop
      vertex 183 131.959 57.4346
      vertex 183 131.883 55.5
      vertex 183 132.215 56.2767
    endloop
  endfacet
  facet normal 1 -0 0
    outer loop
      vertex 183 130 62.5709
      vertex 183 131.959 57.4346
      vertex 183 130.696 62.5709
    endloop
  endfacet
  facet normal 1 0 0
    outer loop
      vertex 183 131.959 57.4346
      vertex 183 130 62.5709
      vertex 183 131.883 55.5
    endloop
  endfacet
  facet normal -0 0 1
    outer loop
      vertex 182 134.445 62.5709
      vertex 183 133.789 62.5709
      vertex 183 134.445 62.5709
    endloop
  endfacet
  facet normal 0 0 1
    outer loop
      vertex 183 133.789 62.5709
      vertex 182 134.445 62.5709
      vertex 182 133.789 62.5709
    endloop
  endfacet
  facet normal 0 -0.968845 0.247667
    outer loop
      vertex 182 132.476 57.4346
      vertex 183 133.789 62.5709
      vertex 182 133.789 62.5709
    endloop
  endfacet
  facet normal 0 -0.968845 0.247667
    outer loop
      vertex 183 133.789 62.5709
      vertex 182 132.476 57.4346
      vertex 183 132.476 57.4346
    endloop
  endfacet
  facet normal 0 -0.975524 0.219891
    outer loop
      vertex 182 132.215 56.2767
      vertex 183 132.476 57.4346
      vertex 182 132.476 57.4346
    endloop
  endfacet
  facet normal 0 -0.975524 0.219891
    outer loop
      vertex 183 132.476 57.4346
      vertex 182 132.215 56.2767
      vertex 183 132.215 56.2767
    endloop
  endfacet
  facet normal 0 0.976421 0.215877
    outer loop
      vertex 183 132.215 56.2767
      vertex 182 131.959 57.4346
      vertex 183 131.959 57.4346
    endloop
  endfacet
  facet normal 0 0.976421 0.215877
    outer loop
      vertex 182 131.959 57.4346
      vertex 183 132.215 56.2767
      vertex 182 132.215 56.2767
    endloop
  endfacet
  facet normal 0 0.971073 0.238784
    outer loop
      vertex 183 131.959 57.4346
      vertex 182 130.696 62.5709
      vertex 183 130.696 62.5709
    endloop
  endfacet
  facet normal 0 0.971073 0.238784
    outer loop
      vertex 182 130.696 62.5709
      vertex 183 131.959 57.4346
      vertex 182 131.959 57.4346
    endloop
  endfacet
  facet normal -0 0 1
    outer loop
      vertex 182 130.696 62.5709
      vertex 183 130 62.5709
      vertex 183 130.696 62.5709
    endloop
  endfacet
  facet normal 0 0 1
    outer loop
      vertex 183 130 62.5709
      vertex 182 130.696 62.5709
      vertex 182 130 62.5709
    endloop
  endfacet
  facet normal 0 -0.966322 -0.257334
    outer loop
      vertex 182 131.883 55.5
      vertex 183 130 62.5709
      vertex 182 130 62.5709
    endloop
  endfacet
  facet normal 0 -0.966322 -0.257334
    outer loop
      vertex 183 130 62.5709
      vertex 182 131.883 55.5
      vertex 183 131.883 55.5
    endloop
  endfacet
  facet normal 0 0 -1
    outer loop
      vertex 182 131.883 55.5
      vertex 183 132.543 55.5
      vertex 183 131.883 55.5
    endloop
  endfacet
  facet normal -0 0 -1
    outer loop
      vertex 183 132.543 55.5
      vertex 182 131.883 55.5
      vertex 182 132.543 55.5
    endloop
  endfacet
  facet normal 0 0.965674 -0.259756
    outer loop
      vertex 183 132.543 55.5
      vertex 182 134.445 62.5709
      vertex 183 134.445 62.5709
    endloop
  endfacet
  facet normal 0 0.965674 -0.259756
    outer loop
      vertex 182 134.445 62.5709
      vertex 183 132.543 55.5
      vertex 182 132.543 55.5
    endloop
  endfacet
  facet normal -0 0.354624 0.935009
    outer loop
      vertex 180 145.272 68.7919
      vertex 182 143.482 69.4708
      vertex 182 145.272 68.7919
    endloop
  endfacet
  facet normal 0 0.354624 0.935009
    outer loop
      vertex 182 143.482 69.4708
      vertex 180 145.272 68.7919
      vertex 180 143.482 69.4708
    endloop
  endfacet
  facet normal 0 -0.567893 -0.823102
    outer loop
      vertex 180 115.234 29
      vertex 182 115.582 28.7599
      vertex 182 115.234 29
    endloop
  endfacet
  facet normal -0 -0.567893 -0.823102
    outer loop
      vertex 182 115.582 28.7599
      vertex 180 115.234 29
      vertex 180 115.582 28.7599
    endloop
  endfacet
  facet normal 0 0.748388 0.663261
    outer loop
      vertex 182 146.542 67.3589
      vertex 180 145.272 68.7919
      vertex 182 145.272 68.7919
    endloop
  endfacet
  facet normal 0 0.748388 0.663261
    outer loop
      vertex 180 145.272 68.7919
      vertex 182 146.542 67.3589
      vertex 180 146.542 67.3589
    endloop
  endfacet
  facet normal 0 0.748388 -0.663261
    outer loop
      vertex 182 145.272 29.2081
      vertex 180 146.542 30.6411
      vertex 182 146.542 30.6411
    endloop
  endfacet
  facet normal 0 0.748388 -0.663261
    outer loop
      vertex 180 146.542 30.6411
      vertex 182 145.272 29.2081
      vertex 180 145.272 29.2081
    endloop
  endfacet
  facet normal 0 -0.567849 0.823133
    outer loop
      vertex 180 115.582 69.2401
      vertex 182 115 68.8386
      vertex 182 115.582 69.2401
    endloop
  endfacet
  facet normal 0 -0.567849 0.823133
    outer loop
      vertex 182 115 68.8386
      vertex 180 115.582 69.2401
      vertex 180 115 68.8386
    endloop
  endfacet
  facet normal -0 0 1
    outer loop
      vertex 180 143.482 69.4708
      vertex 182 117.482 69.4708
      vertex 182 143.482 69.4708
    endloop
  endfacet
  facet normal 0 0 1
    outer loop
      vertex 182 117.482 69.4708
      vertex 180 143.482 69.4708
      vertex 180 117.482 69.4708
    endloop
  endfacet
  facet normal 0 -0.120536 0.992709
    outer loop
      vertex 180 117.482 69.4708
      vertex 182 115.582 69.2401
      vertex 182 117.482 69.4708
    endloop
  endfacet
  facet normal 0 -0.120536 0.992709
    outer loop
      vertex 182 115.582 69.2401
      vertex 180 117.482 69.4708
      vertex 180 115.582 69.2401
    endloop
  endfacet
  facet normal 0 0 -1
    outer loop
      vertex 180 117.482 28.5292
      vertex 182 143.482 28.5292
      vertex 182 117.482 28.5292
    endloop
  endfacet
  facet normal -0 0 -1
    outer loop
      vertex 182 143.482 28.5292
      vertex 180 117.482 28.5292
      vertex 180 143.482 28.5292
    endloop
  endfacet
  facet normal 0 0.354624 -0.935009
    outer loop
      vertex 180 143.482 28.5292
      vertex 182 145.272 29.2081
      vertex 182 143.482 28.5292
    endloop
  endfacet
  facet normal 0 0.354624 -0.935009
    outer loop
      vertex 182 145.272 29.2081
      vertex 180 143.482 28.5292
      vertex 180 145.272 29.2081
    endloop
  endfacet
  facet normal 0 0.970963 -0.239228
    outer loop
      vertex 182 146.542 30.6411
      vertex 180 147 32.5
      vertex 182 147 32.5
    endloop
  endfacet
  facet normal 0 0.970963 -0.239228
    outer loop
      vertex 180 147 32.5
      vertex 182 146.542 30.6411
      vertex 180 146.542 30.6411
    endloop
  endfacet
  facet normal 0 0.970963 0.239228
    outer loop
      vertex 182 147 65.5
      vertex 180 146.542 67.3589
      vertex 182 146.542 67.3589
    endloop
  endfacet
  facet normal 0 0.970963 0.239228
    outer loop
      vertex 180 146.542 67.3589
      vertex 182 147 65.5
      vertex 180 147 65.5
    endloop
  endfacet
  facet normal 0 1 -0
    outer loop
      vertex 182 147 32.5
      vertex 180 147 65.5
      vertex 182 147 65.5
    endloop
  endfacet
  facet normal 0 1 0
    outer loop
      vertex 180 147 65.5
      vertex 182 147 32.5
      vertex 180 147 32.5
    endloop
  endfacet
  facet normal 0 -0.120536 -0.992709
    outer loop
      vertex 180 115.582 28.7599
      vertex 182 117.482 28.5292
      vertex 182 115.582 28.7599
    endloop
  endfacet
  facet normal -0 -0.120536 -0.992709
    outer loop
      vertex 182 117.482 28.5292
      vertex 180 115.582 28.7599
      vertex 180 117.482 28.5292
    endloop
  endfacet
  facet normal 0 -0.406768 -0.913531
    outer loop
      vertex 180 131.916 47.8966
      vertex 182 133.1 47.3694
      vertex 182 131.916 47.8966
    endloop
  endfacet
  facet normal -0 -0.406768 -0.913531
    outer loop
      vertex 182 133.1 47.3694
      vertex 180 131.916 47.8966
      vertex 180 133.1 47.3694
    endloop
  endfacet
  facet normal 0 -0.95095 -0.309346
    outer loop
      vertex 180 136.065 43.2891
      vertex 182 135.664 44.5218
      vertex 180 135.664 44.5218
    endloop
  endfacet
  facet normal 0 -0.95095 -0.309346
    outer loop
      vertex 182 135.664 44.5218
      vertex 180 136.065 43.2891
      vertex 182 136.065 43.2891
    endloop
  endfacet
  facet normal 0 -0.994561 -0.104155
    outer loop
      vertex 180 136.2 42
      vertex 182 136.065 43.2891
      vertex 180 136.065 43.2891
    endloop
  endfacet
  facet normal 0 -0.994561 -0.104155
    outer loop
      vertex 182 136.065 43.2891
      vertex 180 136.2 42
      vertex 182 136.2 42
    endloop
  endfacet
  facet normal 0 -0.866051 -0.499956
    outer loop
      vertex 180 135.664 44.5218
      vertex 182 135.016 45.6443
      vertex 180 135.016 45.6443
    endloop
  endfacet
  facet normal 0 -0.866051 -0.499956
    outer loop
      vertex 182 135.016 45.6443
      vertex 180 135.664 44.5218
      vertex 182 135.664 44.5218
    endloop
  endfacet
  facet normal 0 -0.207822 -0.978167
    outer loop
      vertex 180 130.648 48.166
      vertex 182 131.916 47.8966
      vertex 182 130.648 48.166
    endloop
  endfacet
  facet normal -0 -0.207822 -0.978167
    outer loop
      vertex 182 131.916 47.8966
      vertex 180 130.648 48.166
      vertex 180 131.916 47.8966
    endloop
  endfacet
  facet normal 0 -0.95095 0.309346
    outer loop
      vertex 180 135.664 39.4782
      vertex 182 136.065 40.7109
      vertex 180 136.065 40.7109
    endloop
  endfacet
  facet normal 0 -0.95095 0.309346
    outer loop
      vertex 182 136.065 40.7109
      vertex 180 135.664 39.4782
      vertex 182 135.664 39.4782
    endloop
  endfacet
  facet normal -0 0.406704 0.91356
    outer loop
      vertex 180 128.084 36.1035
      vertex 182 126.9 36.6306
      vertex 182 128.084 36.1035
    endloop
  endfacet
  facet normal 0 0.406704 0.91356
    outer loop
      vertex 182 126.9 36.6306
      vertex 180 128.084 36.1035
      vertex 180 126.9 36.6306
    endloop
  endfacet
  facet normal -0 0.587663 0.809106
    outer loop
      vertex 180 126.9 36.6306
      vertex 182 125.851 37.3925
      vertex 182 126.9 36.6306
    endloop
  endfacet
  facet normal 0 0.587663 0.809106
    outer loop
      vertex 182 125.851 37.3925
      vertex 180 126.9 36.6306
      vertex 180 125.851 37.3925
    endloop
  endfacet
  facet normal 0 -0.743248 -0.669016
    outer loop
      vertex 180 135.016 45.6443
      vertex 182 134.149 46.6075
      vertex 180 134.149 46.6075
    endloop
  endfacet
  facet normal 0 -0.743248 -0.669016
    outer loop
      vertex 182 134.149 46.6075
      vertex 180 135.016 45.6443
      vertex 182 135.016 45.6443
    endloop
  endfacet
  facet normal 0 -0.587663 0.809106
    outer loop
      vertex 180 134.149 37.3925
      vertex 182 133.1 36.6306
      vertex 182 134.149 37.3925
    endloop
  endfacet
  facet normal 0 -0.587663 0.809106
    outer loop
      vertex 182 133.1 36.6306
      vertex 180 134.149 37.3925
      vertex 180 133.1 36.6306
    endloop
  endfacet
  facet normal 0 0.743248 -0.669016
    outer loop
      vertex 182 124.984 45.6443
      vertex 180 125.851 46.6075
      vertex 182 125.851 46.6075
    endloop
  endfacet
  facet normal 0 0.743248 -0.669016
    outer loop
      vertex 180 125.851 46.6075
      vertex 182 124.984 45.6443
      vertex 180 124.984 45.6443
    endloop
  endfacet
  facet normal 0 -0.994561 0.104155
    outer loop
      vertex 180 136.065 40.7109
      vertex 182 136.2 42
      vertex 180 136.2 42
    endloop
  endfacet
  facet normal 0 -0.994561 0.104155
    outer loop
      vertex 182 136.2 42
      vertex 180 136.065 40.7109
      vertex 182 136.065 40.7109
    endloop
  endfacet
  facet normal -0 0.207896 0.978151
    outer loop
      vertex 180 129.352 35.834
      vertex 182 128.084 36.1035
      vertex 182 129.352 35.834
    endloop
  endfacet
  facet normal 0 0.207896 0.978151
    outer loop
      vertex 182 128.084 36.1035
      vertex 180 129.352 35.834
      vertex 180 128.084 36.1035
    endloop
  endfacet
  facet normal 0 0.406768 -0.913531
    outer loop
      vertex 180 126.9 47.3694
      vertex 182 128.084 47.8966
      vertex 182 126.9 47.3694
    endloop
  endfacet
  facet normal 0 0.406768 -0.913531
    outer loop
      vertex 182 128.084 47.8966
      vertex 180 126.9 47.3694
      vertex 180 128.084 47.8966
    endloop
  endfacet
  facet normal 0 0.587663 -0.809106
    outer loop
      vertex 180 125.851 46.6075
      vertex 182 126.9 47.3694
      vertex 182 125.851 46.6075
    endloop
  endfacet
  facet normal 0 0.587663 -0.809106
    outer loop
      vertex 182 126.9 47.3694
      vertex 180 125.851 46.6075
      vertex 180 126.9 47.3694
    endloop
  endfacet
  facet normal 0 0.866051 0.499956
    outer loop
      vertex 182 124.984 38.3557
      vertex 180 124.336 39.4782
      vertex 182 124.336 39.4782
    endloop
  endfacet
  facet normal 0 0.866051 0.499956
    outer loop
      vertex 180 124.336 39.4782
      vertex 182 124.984 38.3557
      vertex 180 124.984 38.3557
    endloop
  endfacet
  facet normal 0 0.866051 -0.499956
    outer loop
      vertex 182 124.336 44.5218
      vertex 180 124.984 45.6443
      vertex 182 124.984 45.6443
    endloop
  endfacet
  facet normal 0 0.866051 -0.499956
    outer loop
      vertex 180 124.984 45.6443
      vertex 182 124.336 44.5218
      vertex 180 124.336 44.5218
    endloop
  endfacet
  facet normal 0 0.95095 -0.309346
    outer loop
      vertex 182 123.935 43.2891
      vertex 180 124.336 44.5218
      vertex 182 124.336 44.5218
    endloop
  endfacet
  facet normal 0 0.95095 -0.309346
    outer loop
      vertex 180 124.336 44.5218
      vertex 182 123.935 43.2891
      vertex 180 123.935 43.2891
    endloop
  endfacet
  facet normal 0 0.207822 -0.978167
    outer loop
      vertex 180 128.084 47.8966
      vertex 182 129.352 48.166
      vertex 182 128.084 47.8966
    endloop
  endfacet
  facet normal 0 0.207822 -0.978167
    outer loop
      vertex 182 129.352 48.166
      vertex 180 128.084 47.8966
      vertex 180 129.352 48.166
    endloop
  endfacet
  facet normal 0 -0.207896 0.978151
    outer loop
      vertex 180 131.916 36.1035
      vertex 182 130.648 35.834
      vertex 182 131.916 36.1035
    endloop
  endfacet
  facet normal 0 -0.207896 0.978151
    outer loop
      vertex 182 130.648 35.834
      vertex 180 131.916 36.1035
      vertex 180 130.648 35.834
    endloop
  endfacet
  facet normal 0 0 -1
    outer loop
      vertex 180 129.352 48.166
      vertex 182 130.648 48.166
      vertex 182 129.352 48.166
    endloop
  endfacet
  facet normal -0 0 -1
    outer loop
      vertex 182 130.648 48.166
      vertex 180 129.352 48.166
      vertex 180 130.648 48.166
    endloop
  endfacet
  facet normal 0 -0.866051 0.499956
    outer loop
      vertex 180 135.016 38.3557
      vertex 182 135.664 39.4782
      vertex 180 135.664 39.4782
    endloop
  endfacet
  facet normal 0 -0.866051 0.499956
    outer loop
      vertex 182 135.664 39.4782
      vertex 180 135.016 38.3557
      vertex 182 135.016 38.3557
    endloop
  endfacet
  facet normal 0 -0.406704 0.91356
    outer loop
      vertex 180 133.1 36.6306
      vertex 182 131.916 36.1035
      vertex 182 133.1 36.6306
    endloop
  endfacet
  facet normal 0 -0.406704 0.91356
    outer loop
      vertex 182 131.916 36.1035
      vertex 180 133.1 36.6306
      vertex 180 131.916 36.1035
    endloop
  endfacet
  facet normal 0 0.994561 -0.104155
    outer loop
      vertex 182 123.8 42
      vertex 180 123.935 43.2891
      vertex 182 123.935 43.2891
    endloop
  endfacet
  facet normal 0 0.994561 -0.104155
    outer loop
      vertex 180 123.935 43.2891
      vertex 182 123.8 42
      vertex 180 123.8 42
    endloop
  endfacet
  facet normal 0 -0.743248 0.669016
    outer loop
      vertex 180 134.149 37.3925
      vertex 182 135.016 38.3557
      vertex 180 135.016 38.3557
    endloop
  endfacet
  facet normal 0 -0.743248 0.669016
    outer loop
      vertex 182 135.016 38.3557
      vertex 180 134.149 37.3925
      vertex 182 134.149 37.3925
    endloop
  endfacet
  facet normal 0 -0.587663 -0.809106
    outer loop
      vertex 180 133.1 47.3694
      vertex 182 134.149 46.6075
      vertex 182 133.1 47.3694
    endloop
  endfacet
  facet normal -0 -0.587663 -0.809106
    outer loop
      vertex 182 134.149 46.6075
      vertex 180 133.1 47.3694
      vertex 180 134.149 46.6075
    endloop
  endfacet
  facet normal -0 0 1
    outer loop
      vertex 180 130.648 35.834
      vertex 182 129.352 35.834
      vertex 182 130.648 35.834
    endloop
  endfacet
  facet normal 0 0 1
    outer loop
      vertex 182 129.352 35.834
      vertex 180 130.648 35.834
      vertex 180 129.352 35.834
    endloop
  endfacet
  facet normal 0 0.95095 0.309346
    outer loop
      vertex 182 124.336 39.4782
      vertex 180 123.935 40.7109
      vertex 182 123.935 40.7109
    endloop
  endfacet
  facet normal 0 0.95095 0.309346
    outer loop
      vertex 180 123.935 40.7109
      vertex 182 124.336 39.4782
      vertex 180 124.336 39.4782
    endloop
  endfacet
  facet normal 0 0.743248 0.669016
    outer loop
      vertex 182 125.851 37.3925
      vertex 180 124.984 38.3557
      vertex 182 124.984 38.3557
    endloop
  endfacet
  facet normal 0 0.743248 0.669016
    outer loop
      vertex 180 124.984 38.3557
      vertex 182 125.851 37.3925
      vertex 180 125.851 37.3925
    endloop
  endfacet
  facet normal 0 0.994561 0.104155
    outer loop
      vertex 182 123.935 40.7109
      vertex 180 123.8 42
      vertex 182 123.8 42
    endloop
  endfacet
  facet normal 0 0.994561 0.104155
    outer loop
      vertex 180 123.8 42
      vertex 182 123.935 40.7109
      vertex 180 123.935 40.7109
    endloop
  endfacet
  facet normal 0 -1 0
    outer loop
      vertex 180 109.202 44.075
      vertex 182 109.202 45.925
      vertex 180 109.202 45.925
    endloop
  endfacet
  facet normal 0 -1 -0
    outer loop
      vertex 182 109.202 45.925
      vertex 180 109.202 44.075
      vertex 182 109.202 44.075
    endloop
  endfacet
  facet normal 0 -0.500034 -0.866006
    outer loop
      vertex 180 107.6 46.85
      vertex 182 109.202 45.925
      vertex 182 107.6 46.85
    endloop
  endfacet
  facet normal -0 -0.500034 -0.866006
    outer loop
      vertex 182 109.202 45.925
      vertex 180 107.6 46.85
      vertex 180 109.202 45.925
    endloop
  endfacet
  facet normal 0 1 -0
    outer loop
      vertex 182 105.998 44.075
      vertex 180 105.998 45.925
      vertex 182 105.998 45.925
    endloop
  endfacet
  facet normal 0 1 0
    outer loop
      vertex 180 105.998 45.925
      vertex 182 105.998 44.075
      vertex 180 105.998 44.075
    endloop
  endfacet
  facet normal 0 0.500034 -0.866006
    outer loop
      vertex 180 105.998 45.925
      vertex 182 107.6 46.85
      vertex 182 105.998 45.925
    endloop
  endfacet
  facet normal 0 0.500034 -0.866006
    outer loop
      vertex 182 107.6 46.85
      vertex 180 105.998 45.925
      vertex 180 107.6 46.85
    endloop
  endfacet
  facet normal -0 0.500034 0.866006
    outer loop
      vertex 180 107.6 43.15
      vertex 182 105.998 44.075
      vertex 182 107.6 43.15
    endloop
  endfacet
  facet normal 0 0.500034 0.866006
    outer loop
      vertex 182 105.998 44.075
      vertex 180 107.6 43.15
      vertex 180 105.998 44.075
    endloop
  endfacet
  facet normal 0 -0.500034 0.866006
    outer loop
      vertex 180 109.202 44.075
      vertex 182 107.6 43.15
      vertex 182 109.202 44.075
    endloop
  endfacet
  facet normal 0 -0.500034 0.866006
    outer loop
      vertex 182 107.6 43.15
      vertex 180 109.202 44.075
      vertex 180 107.6 43.15
    endloop
  endfacet
  facet normal -0 0 1
    outer loop
      vertex 180 98.6569 39.3431
      vertex 182 87.3431 39.3431
      vertex 182 98.6569 39.3431
    endloop
  endfacet
  facet normal 0 0 1
    outer loop
      vertex 182 87.3431 39.3431
      vertex 180 98.6569 39.3431
      vertex 180 87.3431 39.3431
    endloop
  endfacet
  facet normal 0 1 -0
    outer loop
      vertex 182 87.3431 39.3431
      vertex 180 87.3431 50.6569
      vertex 182 87.3431 50.6569
    endloop
  endfacet
  facet normal 0 1 0
    outer loop
      vertex 180 87.3431 50.6569
      vertex 182 87.3431 39.3431
      vertex 180 87.3431 39.3431
    endloop
  endfacet
  facet normal 0 0 -1
    outer loop
      vertex 180 87.3431 50.6569
      vertex 182 98.6569 50.6569
      vertex 182 87.3431 50.6569
    endloop
  endfacet
  facet normal -0 0 -1
    outer loop
      vertex 182 98.6569 50.6569
      vertex 180 87.3431 50.6569
      vertex 180 98.6569 50.6569
    endloop
  endfacet
  facet normal 0 -1 0
    outer loop
      vertex 180 98.6569 39.3431
      vertex 182 98.6569 50.6569
      vertex 180 98.6569 50.6569
    endloop
  endfacet
  facet normal 0 -1 -0
    outer loop
      vertex 182 98.6569 50.6569
      vertex 180 98.6569 39.3431
      vertex 182 98.6569 39.3431
    endloop
  endfacet
  facet normal 0 -1 0
    outer loop
      vertex 180 80.0022 44.075
      vertex 182 80.0022 45.925
      vertex 180 80.0022 45.925
    endloop
  endfacet
  facet normal 0 -1 -0
    outer loop
      vertex 182 80.0022 45.925
      vertex 180 80.0022 44.075
      vertex 182 80.0022 44.075
    endloop
  endfacet
  facet normal 0 -0.499988 -0.866033
    outer loop
      vertex 180 78.4 46.85
      vertex 182 80.0022 45.925
      vertex 182 78.4 46.85
    endloop
  endfacet
  facet normal -0 -0.499988 -0.866033
    outer loop
      vertex 182 80.0022 45.925
      vertex 180 78.4 46.85
      vertex 180 80.0022 45.925
    endloop
  endfacet
  facet normal 0 1 -0
    outer loop
      vertex 182 76.7979 44.075
      vertex 180 76.7979 45.925
      vertex 182 76.7979 45.925
    endloop
  endfacet
  facet normal 0 1 0
    outer loop
      vertex 180 76.7979 45.925
      vertex 182 76.7979 44.075
      vertex 180 76.7979 44.075
    endloop
  endfacet
  facet normal 0 0.500011 -0.866019
    outer loop
      vertex 180 76.7979 45.925
      vertex 182 78.4 46.85
      vertex 182 76.7979 45.925
    endloop
  endfacet
  facet normal 0 0.500011 -0.866019
    outer loop
      vertex 182 78.4 46.85
      vertex 180 76.7979 45.925
      vertex 180 78.4 46.85
    endloop
  endfacet
  facet normal -0 0.500011 0.866019
    outer loop
      vertex 180 78.4 43.15
      vertex 182 76.7979 44.075
      vertex 182 78.4 43.15
    endloop
  endfacet
  facet normal 0 0.500011 0.866019
    outer loop
      vertex 182 76.7979 44.075
      vertex 180 78.4 43.15
      vertex 180 76.7979 44.075
    endloop
  endfacet
  facet normal 0 -0.499988 0.866033
    outer loop
      vertex 180 80.0022 44.075
      vertex 182 78.4 43.15
      vertex 182 80.0022 44.075
    endloop
  endfacet
  facet normal 0 -0.499988 0.866033
    outer loop
      vertex 182 78.4 43.15
      vertex 180 80.0022 44.075
      vertex 180 78.4 43.15
    endloop
  endfacet
  facet normal 0 1 -0
    outer loop
      vertex 182 103.898 70.075
      vertex 180 103.898 71.925
      vertex 182 103.898 71.925
    endloop
  endfacet
  facet normal 0 1 0
    outer loop
      vertex 180 103.898 71.925
      vertex 182 103.898 70.075
      vertex 180 103.898 70.075
    endloop
  endfacet
  facet normal 0 0.500034 -0.866006
    outer loop
      vertex 180 103.898 71.925
      vertex 182 105.5 72.85
      vertex 182 103.898 71.925
    endloop
  endfacet
  facet normal 0 0.500034 -0.866006
    outer loop
      vertex 182 105.5 72.85
      vertex 180 103.898 71.925
      vertex 180 105.5 72.85
    endloop
  endfacet
  facet normal -0 0.500034 0.866006
    outer loop
      vertex 180 105.5 69.15
      vertex 182 103.898 70.075
      vertex 182 105.5 69.15
    endloop
  endfacet
  facet normal 0 0.500034 0.866006
    outer loop
      vertex 182 103.898 70.075
      vertex 180 105.5 69.15
      vertex 180 103.898 70.075
    endloop
  endfacet
  facet normal 0 -0.500034 0.866006
    outer loop
      vertex 180 107.102 70.075
      vertex 182 105.5 69.15
      vertex 182 107.102 70.075
    endloop
  endfacet
  facet normal 0 -0.500034 0.866006
    outer loop
      vertex 182 105.5 69.15
      vertex 180 107.102 70.075
      vertex 180 105.5 69.15
    endloop
  endfacet
  facet normal 0 -0.500034 -0.866006
    outer loop
      vertex 180 105.5 72.85
      vertex 182 107.102 71.925
      vertex 182 105.5 72.85
    endloop
  endfacet
  facet normal -0 -0.500034 -0.866006
    outer loop
      vertex 182 107.102 71.925
      vertex 180 105.5 72.85
      vertex 180 107.102 71.925
    endloop
  endfacet
  facet normal 0 -1 0
    outer loop
      vertex 180 107.102 70.075
      vertex 182 107.102 71.925
      vertex 180 107.102 71.925
    endloop
  endfacet
  facet normal 0 -1 -0
    outer loop
      vertex 182 107.102 71.925
      vertex 180 107.102 70.075
      vertex 182 107.102 70.075
    endloop
  endfacet
  facet normal 0 1 -0
    outer loop
      vertex 182 76.8979 70.075
      vertex 180 76.8979 71.925
      vertex 182 76.8979 71.925
    endloop
  endfacet
  facet normal 0 1 0
    outer loop
      vertex 180 76.8979 71.925
      vertex 182 76.8979 70.075
      vertex 180 76.8979 70.075
    endloop
  endfacet
  facet normal 0 0.500011 -0.866019
    outer loop
      vertex 180 76.8979 71.925
      vertex 182 78.5 72.85
      vertex 182 76.8979 71.925
    endloop
  endfacet
  facet normal 0 0.500011 -0.866019
    outer loop
      vertex 182 78.5 72.85
      vertex 180 76.8979 71.925
      vertex 180 78.5 72.85
    endloop
  endfacet
  facet normal -0 0.500011 0.866019
    outer loop
      vertex 180 78.5 69.15
      vertex 182 76.8979 70.075
      vertex 182 78.5 69.15
    endloop
  endfacet
  facet normal 0 0.500011 0.866019
    outer loop
      vertex 182 76.8979 70.075
      vertex 180 78.5 69.15
      vertex 180 76.8979 70.075
    endloop
  endfacet
  facet normal 0 -0.500011 0.866019
    outer loop
      vertex 180 80.1021 70.075
      vertex 182 78.5 69.15
      vertex 182 80.1021 70.075
    endloop
  endfacet
  facet normal 0 -0.500011 0.866019
    outer loop
      vertex 182 78.5 69.15
      vertex 180 80.1021 70.075
      vertex 180 78.5 69.15
    endloop
  endfacet
  facet normal 0 -0.500011 -0.866019
    outer loop
      vertex 180 78.5 72.85
      vertex 182 80.1021 71.925
      vertex 182 78.5 72.85
    endloop
  endfacet
  facet normal -0 -0.500011 -0.866019
    outer loop
      vertex 182 80.1021 71.925
      vertex 180 78.5 72.85
      vertex 180 80.1021 71.925
    endloop
  endfacet
  facet normal 0 -1 0
    outer loop
      vertex 180 80.1021 70.075
      vertex 182 80.1021 71.925
      vertex 180 80.1021 71.925
    endloop
  endfacet
  facet normal 0 -1 -0
    outer loop
      vertex 182 80.1021 71.925
      vertex 180 80.1021 70.075
      vertex 182 80.1021 70.075
    endloop
  endfacet
  facet normal 0 0 -1
    outer loop
      vertex 180 82.5 75.5
      vertex 182 101.5 75.5
      vertex 182 82.5 75.5
    endloop
  endfacet
  facet normal -0 0 -1
    outer loop
      vertex 182 101.5 75.5
      vertex 180 82.5 75.5
      vertex 180 101.5 75.5
    endloop
  endfacet
  facet normal -0 0 1
    outer loop
      vertex 180 101.5 66.5
      vertex 182 82.5 66.5
      vertex 182 101.5 66.5
    endloop
  endfacet
  facet normal 0 0 1
    outer loop
      vertex 182 82.5 66.5
      vertex 180 101.5 66.5
      vertex 180 82.5 66.5
    endloop
  endfacet
  facet normal 0 1 -0
    outer loop
      vertex 182 82.5 66.5
      vertex 180 82.5 75.5
      vertex 182 82.5 75.5
    endloop
  endfacet
  facet normal 0 1 0
    outer loop
      vertex 180 82.5 75.5
      vertex 182 82.5 66.5
      vertex 180 82.5 66.5
    endloop
  endfacet
  facet normal 0 -1 0
    outer loop
      vertex 180 101.5 66.5
      vertex 182 101.5 75.5
      vertex 180 101.5 75.5
    endloop
  endfacet
  facet normal 0 -1 -0
    outer loop
      vertex 182 101.5 75.5
      vertex 180 101.5 66.5
      vertex 182 101.5 66.5
    endloop
  endfacet
  facet normal -0 0 1
    outer loop
      vertex 180 115 84
      vertex 182 69 84
      vertex 182 115 84
    endloop
  endfacet
  facet normal 0 0 1
    outer loop
      vertex 182 69 84
      vertex 180 115 84
      vertex 180 69 84
    endloop
  endfacet
  facet normal 0 -1 0
    outer loop
      vertex 180 69 66.5
      vertex 182 69 84
      vertex 180 69 84
    endloop
  endfacet
  facet normal 0 -1 -0
    outer loop
      vertex 182 69 84
      vertex 180 69 66.5
      vertex 182 69 66.5
    endloop
  endfacet
  facet normal 0 1 -0
    outer loop
      vertex 182 115 68.8386
      vertex 180 115 84
      vertex 182 115 84
    endloop
  endfacet
  facet normal 0 1 0
    outer loop
      vertex 180 115 84
      vertex 182 115 68.8386
      vertex 180 115 68.8386
    endloop
  endfacet
endsolid OpenSCAD_Model
