solid OpenSCAD_Model
  facet normal 0 0 1
    outer loop
      vertex 13.4821 19.4708 1
      vertex 17 15.5 1
      vertex 16.5418 17.3589 1
    endloop
  endfacet
  facet normal 0 0 1
    outer loop
      vertex 17 15.5 1
      vertex 5.66398 -4.47823 1
      vertex 17 -15.5 1
    endloop
  endfacet
  facet normal 0 0 1
    outer loop
      vertex 13.4821 19.4708 1
      vertex 16.5418 17.3589 1
      vertex 15.2723 18.7919 1
    endloop
  endfacet
  facet normal -0 -0 1
    outer loop
      vertex 6.2 -7 1
      vertex 17 -15.5 1
      vertex 6.06452 -5.71095 1
    endloop
  endfacet
  facet normal 0 0 1
    outer loop
      vertex 17 15.5 1
      vertex 13.4821 19.4708 1
      vertex 4.44507 13.5709 1
    endloop
  endfacet
  facet normal -0 0 1
    outer loop
      vertex 6.06452 -8.28905 1
      vertex 17 -15.5 1
      vertex 6.2 -7 1
    endloop
  endfacet
  facet normal -0 0 1
    outer loop
      vertex 5.66398 -9.52177 1
      vertex 17 -15.5 1
      vertex 6.06452 -8.28905 1
    endloop
  endfacet
  facet normal -0 0 1
    outer loop
      vertex 5.0159 -10.6443 1
      vertex 17 -15.5 1
      vertex 5.66398 -9.52177 1
    endloop
  endfacet
  facet normal 0 0 1
    outer loop
      vertex 17 -15.5 1
      vertex 5.66398 -4.47823 1
      vertex 6.06452 -5.71095 1
    endloop
  endfacet
  facet normal 0 0 1
    outer loop
      vertex 17 15.5 1
      vertex 5.0159 -3.35573 1
      vertex 5.66398 -4.47823 1
    endloop
  endfacet
  facet normal 0 0 1
    outer loop
      vertex 17 15.5 1
      vertex 4.44507 13.5709 1
      vertex 2.54297 6.5 1
    endloop
  endfacet
  facet normal 0 0 1
    outer loop
      vertex 13.4821 19.4708 1
      vertex 3.78882 13.5709 1
      vertex 4.44507 13.5709 1
    endloop
  endfacet
  facet normal 0 0 1
    outer loop
      vertex 2.47632 8.43457 1
      vertex 1.95935 8.43457 1
      vertex 2.21484 7.27673 1
    endloop
  endfacet
  facet normal 0 0 1
    outer loop
      vertex 3.78882 13.5709 1
      vertex 1.95935 8.43457 1
      vertex 2.47632 8.43457 1
    endloop
  endfacet
  facet normal 0 0 1
    outer loop
      vertex 3.78882 13.5709 1
      vertex 0.696411 13.5709 1
      vertex 1.95935 8.43457 1
    endloop
  endfacet
  facet normal 0 0 1
    outer loop
      vertex 13.4821 19.4708 1
      vertex 0.696411 13.5709 1
      vertex 3.78882 13.5709 1
    endloop
  endfacet
  facet normal 0 0 1
    outer loop
      vertex 13.4821 19.4708 1
      vertex 0 13.5709 1
      vertex 0.696411 13.5709 1
    endloop
  endfacet
  facet normal 0 0 1
    outer loop
      vertex -0.912598 12.7651 1
      vertex 0 13.5709 1
      vertex -0.912598 13.5948 1
    endloop
  endfacet
  facet normal -0 0 1
    outer loop
      vertex -12.5179 19.4708 1
      vertex 0 13.5709 1
      vertex 13.4821 19.4708 1
    endloop
  endfacet
  facet normal 0 0 1
    outer loop
      vertex 0 13.5709 1
      vertex -12.5179 19.4708 1
      vertex -0.912598 13.5948 1
    endloop
  endfacet
  facet normal 0 0 1
    outer loop
      vertex -4.8125 8.47302 1
      vertex -5.66398 -4.47823 1
      vertex -5.0159 -3.35573 1
    endloop
  endfacet
  facet normal 0 0 1
    outer loop
      vertex -16.8838 16.4573 1
      vertex -5.66398 -4.47823 1
      vertex -4.8125 8.47302 1
    endloop
  endfacet
  facet normal 0 0 1
    outer loop
      vertex -5.66398 -4.47823 1
      vertex -16.8838 16.4573 1
      vertex -6.06452 -5.71095 1
    endloop
  endfacet
  facet normal 0 0 1
    outer loop
      vertex -4.67407 9.96326 1
      vertex -16.8838 16.4573 1
      vertex -4.8125 8.47302 1
    endloop
  endfacet
  facet normal -0 0 1
    outer loop
      vertex -16.8838 16.4573 1
      vertex -4.67407 9.96326 1
      vertex -12.5179 19.4708 1
    endloop
  endfacet
  facet normal 0 0 1
    outer loop
      vertex -4.06055 13.5948 1
      vertex -12.5179 19.4708 1
      vertex -4.67407 9.96326 1
    endloop
  endfacet
  facet normal 0 0 1
    outer loop
      vertex -0.912598 13.5948 1
      vertex -12.5179 19.4708 1
      vertex -4.06055 13.5948 1
    endloop
  endfacet
  facet normal 0 0 1
    outer loop
      vertex 17 -15.5 1
      vertex 13.4821 -19.4708 1
      vertex 16.5418 -17.3589 1
    endloop
  endfacet
  facet normal 0 0 1
    outer loop
      vertex 16.5418 -17.3589 1
      vertex 13.4821 -19.4708 1
      vertex 15.2723 -18.7919 1
    endloop
  endfacet
  facet normal 0 0 1
    outer loop
      vertex 17 -15.5 1
      vertex 5.0159 -10.6443 1
      vertex 13.4821 -19.4708 1
    endloop
  endfacet
  facet normal -0 0 1
    outer loop
      vertex 4.14861 -11.6075 1
      vertex 13.4821 -19.4708 1
      vertex 5.0159 -10.6443 1
    endloop
  endfacet
  facet normal -0 0 1
    outer loop
      vertex 3.1 -12.3694 1
      vertex 13.4821 -19.4708 1
      vertex 4.14861 -11.6075 1
    endloop
  endfacet
  facet normal -0 0 1
    outer loop
      vertex 1.9159 -12.8966 1
      vertex 13.4821 -19.4708 1
      vertex 3.1 -12.3694 1
    endloop
  endfacet
  facet normal -0 0 1
    outer loop
      vertex 0.648076 -13.166 1
      vertex 13.4821 -19.4708 1
      vertex 1.9159 -12.8966 1
    endloop
  endfacet
  facet normal 0 0 1
    outer loop
      vertex -12.5179 -19.4708 1
      vertex 0.648076 -13.166 1
      vertex -0.648076 -13.166 1
    endloop
  endfacet
  facet normal 0 0 1
    outer loop
      vertex -12.5179 -19.4708 1
      vertex -0.648076 -13.166 1
      vertex -1.9159 -12.8966 1
    endloop
  endfacet
  facet normal 0 0 1
    outer loop
      vertex -16.8838 -16.4573 1
      vertex -6.06452 -5.71095 1
      vertex -16.8838 16.4573 1
    endloop
  endfacet
  facet normal 0 0 1
    outer loop
      vertex 0.648076 -13.166 1
      vertex -12.5179 -19.4708 1
      vertex 13.4821 -19.4708 1
    endloop
  endfacet
  facet normal 0 0 1
    outer loop
      vertex -3.1 -12.3694 1
      vertex -12.5179 -19.4708 1
      vertex -1.9159 -12.8966 1
    endloop
  endfacet
  facet normal 0 0 1
    outer loop
      vertex -4.14861 -11.6075 1
      vertex -12.5179 -19.4708 1
      vertex -3.1 -12.3694 1
    endloop
  endfacet
  facet normal 0 0 1
    outer loop
      vertex -5.0159 -10.6443 1
      vertex -12.5179 -19.4708 1
      vertex -4.14861 -11.6075 1
    endloop
  endfacet
  facet normal 0 0 1
    outer loop
      vertex -5.66398 -9.52177 1
      vertex -12.5179 -19.4708 1
      vertex -5.0159 -10.6443 1
    endloop
  endfacet
  facet normal 0 0 1
    outer loop
      vertex -16.8838 -16.4573 1
      vertex -5.66398 -9.52177 1
      vertex -6.06452 -8.28905 1
    endloop
  endfacet
  facet normal 0 0 1
    outer loop
      vertex -6.06452 -5.71095 1
      vertex -16.8838 -16.4573 1
      vertex -6.2 -7 1
    endloop
  endfacet
  facet normal 0 0 1
    outer loop
      vertex -16.8838 16.4573 1
      vertex -12.5179 19.4708 1
      vertex -14.4184 19.2401 1
    endloop
  endfacet
  facet normal 0 0 1
    outer loop
      vertex -6.2 -7 1
      vertex -16.8838 -16.4573 1
      vertex -6.06452 -8.28905 1
    endloop
  endfacet
  facet normal 0 0 1
    outer loop
      vertex -16.8838 16.4573 1
      vertex -14.4184 19.2401 1
      vertex -15.994 18.1525 1
    endloop
  endfacet
  facet normal 0 0 1
    outer loop
      vertex -5.66398 -9.52177 1
      vertex -16.8838 -16.4573 1
      vertex -12.5179 -19.4708 1
    endloop
  endfacet
  facet normal 0 0 1
    outer loop
      vertex -12.5179 -19.4708 1
      vertex -16.8838 -16.4573 1
      vertex -14.4184 -19.2401 1
    endloop
  endfacet
  facet normal 0 0 1
    outer loop
      vertex -14.4184 -19.2401 1
      vertex -16.8838 -16.4573 1
      vertex -15.994 -18.1525 1
    endloop
  endfacet
  facet normal 0 0 1
    outer loop
      vertex 17 15.5 1
      vertex 2.54297 6.5 1
      vertex 5.0159 -3.35573 1
    endloop
  endfacet
  facet normal 0 0 1
    outer loop
      vertex 5.0159 -3.35573 1
      vertex 2.54297 6.5 1
      vertex 4.14861 -2.3925 1
    endloop
  endfacet
  facet normal 0 0 1
    outer loop
      vertex 4.14861 -2.3925 1
      vertex 2.54297 6.5 1
      vertex 3.1 -1.63064 1
    endloop
  endfacet
  facet normal 0 0 1
    outer loop
      vertex 2.54297 6.5 1
      vertex 1.9159 -1.10345 1
      vertex 3.1 -1.63064 1
    endloop
  endfacet
  facet normal -0 0 1
    outer loop
      vertex 1.8833 6.5 1
      vertex 1.9159 -1.10345 1
      vertex 2.54297 6.5 1
    endloop
  endfacet
  facet normal 0 0 1
    outer loop
      vertex 1.8833 6.5 1
      vertex 0.648076 -0.833963 1
      vertex 1.9159 -1.10345 1
    endloop
  endfacet
  facet normal -0 0 1
    outer loop
      vertex -0.61438 9.01819 1
      vertex 1.8833 6.5 1
      vertex 0 13.5709 1
    endloop
  endfacet
  facet normal -0 0 1
    outer loop
      vertex -1.11511 7.35876 1
      vertex 1.8833 6.5 1
      vertex -0.61438 9.01819 1
    endloop
  endfacet
  facet normal 0 0 1
    outer loop
      vertex -2.77795 6.5 1
      vertex 1.8833 6.5 1
      vertex -1.11511 7.35876 1
    endloop
  endfacet
  facet normal 0 0 1
    outer loop
      vertex 1.8833 6.5 1
      vertex -0.648076 -0.833963 1
      vertex 0.648076 -0.833963 1
    endloop
  endfacet
  facet normal 0 0 1
    outer loop
      vertex 1.8833 6.5 1
      vertex -2.77795 6.5 1
      vertex -0.648076 -0.833963 1
    endloop
  endfacet
  facet normal 0 0 1
    outer loop
      vertex -0.648076 -0.833963 1
      vertex -2.77795 6.5 1
      vertex -1.9159 -1.10345 1
    endloop
  endfacet
  facet normal 0 0 1
    outer loop
      vertex -2.77795 6.5 1
      vertex -3.1 -1.63064 1
      vertex -1.9159 -1.10345 1
    endloop
  endfacet
  facet normal 0 0 1
    outer loop
      vertex -4.18787 7.04004 1
      vertex -3.1 -1.63064 1
      vertex -2.77795 6.5 1
    endloop
  endfacet
  facet normal 0 0 1
    outer loop
      vertex -3.1 -1.63064 1
      vertex -4.18787 7.04004 1
      vertex -4.14861 -2.3925 1
    endloop
  endfacet
  facet normal 0 0 1
    outer loop
      vertex -5.0159 -3.35573 1
      vertex -4.18787 7.04004 1
      vertex -4.8125 8.47302 1
    endloop
  endfacet
  facet normal 0 0 1
    outer loop
      vertex -4.18787 7.04004 1
      vertex -5.0159 -3.35573 1
      vertex -4.14861 -2.3925 1
    endloop
  endfacet
  facet normal 0 0 1
    outer loop
      vertex -1.18433 10.6674 1
      vertex 0 13.5709 1
      vertex -0.912598 12.7651 1
    endloop
  endfacet
  facet normal 0 0 1
    outer loop
      vertex 0 13.5709 1
      vertex -1.18433 10.6674 1
      vertex -0.61438 9.01819 1
    endloop
  endfacet
  facet normal 0 0 1
    outer loop
      vertex -0.912598 12.7651 1
      vertex -2.58398 11.3091 1
      vertex -1.18433 10.6674 1
    endloop
  endfacet
  facet normal -0 0 1
    outer loop
      vertex -3.43848 12.7651 1
      vertex -2.58398 11.3091 1
      vertex -0.912598 12.7651 1
    endloop
  endfacet
  facet normal 0 0 1
    outer loop
      vertex -2.58398 11.3091 1
      vertex -3.43848 12.7651 1
      vertex -3.78027 10.8647 1
    endloop
  endfacet
  facet normal 0 0 1
    outer loop
      vertex -3.99561 8.54993 1
      vertex -1.43896 8.94043 1
      vertex -1.81238 10.1128 1
    endloop
  endfacet
  facet normal 0 0 1
    outer loop
      vertex -1.43896 8.94043 1
      vertex -3.99561 8.54993 1
      vertex -1.82776 7.68689 1
    endloop
  endfacet
  facet normal 0 0 1
    outer loop
      vertex -3.94434 9.8573 1
      vertex -1.81238 10.1128 1
      vertex -2.79077 10.5417 1
    endloop
  endfacet
  facet normal 0 0 1
    outer loop
      vertex -3.94434 9.8573 1
      vertex -2.79077 10.5417 1
      vertex -3.46924 10.3512 1
    endloop
  endfacet
  facet normal 0 -0 1
    outer loop
      vertex -3.5752 7.54932 1
      vertex -1.82776 7.68689 1
      vertex -3.99561 8.54993 1
    endloop
  endfacet
  facet normal 0 0 1
    outer loop
      vertex -1.81238 10.1128 1
      vertex -3.94434 9.8573 1
      vertex -3.99561 8.54993 1
    endloop
  endfacet
  facet normal 0 0 1
    outer loop
      vertex -1.82776 7.68689 1
      vertex -3.5752 7.54932 1
      vertex -2.77795 7.21436 1
    endloop
  endfacet
  facet normal 0 0 1
    outer loop
      vertex -4.67407 9.96326 1
      vertex -3.99561 8.54993 1
      vertex -3.94434 9.8573 1
    endloop
  endfacet
  facet normal 0 0 1
    outer loop
      vertex -3.99561 8.54993 1
      vertex -4.67407 9.96326 1
      vertex -4.8125 8.47302 1
    endloop
  endfacet
  facet normal 0 0 1
    outer loop
      vertex -0.912598 13.5948 2
      vertex -3.43848 12.7651 2
      vertex -0.912598 12.7651 2
    endloop
  endfacet
  facet normal -0 0 1
    outer loop
      vertex -4.06055 13.5948 2
      vertex -3.43848 12.7651 2
      vertex -0.912598 13.5948 2
    endloop
  endfacet
  facet normal 0 0 1
    outer loop
      vertex -4.06055 13.5948 2
      vertex -3.78027 10.8647 2
      vertex -3.43848 12.7651 2
    endloop
  endfacet
  facet normal 0 0 1
    outer loop
      vertex -4.67407 9.96326 2
      vertex -3.78027 10.8647 2
      vertex -4.06055 13.5948 2
    endloop
  endfacet
  facet normal 0 0 1
    outer loop
      vertex -3.78027 10.8647 2
      vertex -4.67407 9.96326 2
      vertex -3.94434 9.8573 2
    endloop
  endfacet
  facet normal 0 0 1
    outer loop
      vertex -0.61438 9.01819 2
      vertex -1.81238 10.1128 2
      vertex -1.43896 8.94043 2
    endloop
  endfacet
  facet normal 0 0 1
    outer loop
      vertex -2.58398 11.3091 2
      vertex -1.81238 10.1128 2
      vertex -1.18433 10.6674 2
    endloop
  endfacet
  facet normal 0 0 1
    outer loop
      vertex -2.58398 11.3091 2
      vertex -2.79077 10.5417 2
      vertex -1.81238 10.1128 2
    endloop
  endfacet
  facet normal -0 0 1
    outer loop
      vertex -3.78027 10.8647 2
      vertex -2.79077 10.5417 2
      vertex -2.58398 11.3091 2
    endloop
  endfacet
  facet normal 0 0 1
    outer loop
      vertex -2.79077 10.5417 2
      vertex -3.78027 10.8647 2
      vertex -3.46924 10.3512 2
    endloop
  endfacet
  facet normal 0 0 1
    outer loop
      vertex -3.46924 10.3512 2
      vertex -3.78027 10.8647 2
      vertex -3.94434 9.8573 2
    endloop
  endfacet
  facet normal -0 0 1
    outer loop
      vertex -1.81238 10.1128 2
      vertex -0.61438 9.01819 2
      vertex -1.18433 10.6674 2
    endloop
  endfacet
  facet normal 0 0 1
    outer loop
      vertex -0.61438 9.01819 2
      vertex -1.43896 8.94043 2
      vertex -1.11511 7.35876 2
    endloop
  endfacet
  facet normal -0 0 1
    outer loop
      vertex -1.82776 7.68689 2
      vertex -1.11511 7.35876 2
      vertex -1.43896 8.94043 2
    endloop
  endfacet
  facet normal 0 0 1
    outer loop
      vertex -2.77795 6.5 2
      vertex -1.82776 7.68689 2
      vertex -2.77795 7.21436 2
    endloop
  endfacet
  facet normal 0 0 1
    outer loop
      vertex -1.82776 7.68689 2
      vertex -2.77795 6.5 2
      vertex -1.11511 7.35876 2
    endloop
  endfacet
  facet normal 0 0 1
    outer loop
      vertex -3.5752 7.54932 2
      vertex -2.77795 6.5 2
      vertex -2.77795 7.21436 2
    endloop
  endfacet
  facet normal 0 0 1
    outer loop
      vertex -3.5752 7.54932 2
      vertex -4.18787 7.04004 2
      vertex -2.77795 6.5 2
    endloop
  endfacet
  facet normal 0 0 1
    outer loop
      vertex -3.99561 8.54993 2
      vertex -4.18787 7.04004 2
      vertex -3.5752 7.54932 2
    endloop
  endfacet
  facet normal 0 -0 1
    outer loop
      vertex -4.18787 7.04004 2
      vertex -3.99561 8.54993 2
      vertex -4.8125 8.47302 2
    endloop
  endfacet
  facet normal 0.957364 -0.288883 0
    outer loop
      vertex -1.11511 7.35876 2
      vertex -0.61438 9.01819 1
      vertex -0.61438 9.01819 2
    endloop
  endfacet
  facet normal 0.957364 -0.288883 0
    outer loop
      vertex -0.61438 9.01819 1
      vertex -1.11511 7.35876 2
      vertex -1.11511 7.35876 1
    endloop
  endfacet
  facet normal 0.945151 0.326634 0
    outer loop
      vertex -0.61438 9.01819 2
      vertex -1.18433 10.6674 1
      vertex -1.18433 10.6674 2
    endloop
  endfacet
  facet normal 0.945151 0.326634 0
    outer loop
      vertex -1.18433 10.6674 1
      vertex -0.61438 9.01819 2
      vertex -0.61438 9.01819 1
    endloop
  endfacet
  facet normal 0.416759 0.909017 -0
    outer loop
      vertex -1.18433 10.6674 1
      vertex -2.58398 11.3091 2
      vertex -1.18433 10.6674 2
    endloop
  endfacet
  facet normal 0.416759 0.909017 0
    outer loop
      vertex -2.58398 11.3091 2
      vertex -1.18433 10.6674 1
      vertex -2.58398 11.3091 1
    endloop
  endfacet
  facet normal -0.34823 0.937409 0
    outer loop
      vertex -2.58398 11.3091 1
      vertex -3.78027 10.8647 2
      vertex -2.58398 11.3091 2
    endloop
  endfacet
  facet normal -0.34823 0.937409 0
    outer loop
      vertex -3.78027 10.8647 2
      vertex -2.58398 11.3091 1
      vertex -3.78027 10.8647 1
    endloop
  endfacet
  facet normal 0.984209 -0.177012 0
    outer loop
      vertex -3.78027 10.8647 2
      vertex -3.43848 12.7651 1
      vertex -3.43848 12.7651 2
    endloop
  endfacet
  facet normal 0.984209 -0.177012 0
    outer loop
      vertex -3.43848 12.7651 1
      vertex -3.78027 10.8647 2
      vertex -3.78027 10.8647 1
    endloop
  endfacet
  facet normal 0 -1 0
    outer loop
      vertex -3.43848 12.7651 1
      vertex -0.912598 12.7651 2
      vertex -3.43848 12.7651 2
    endloop
  endfacet
  facet normal 0 -1 -0
    outer loop
      vertex -0.912598 12.7651 2
      vertex -3.43848 12.7651 1
      vertex -0.912598 12.7651 1
    endloop
  endfacet
  facet normal 1 -0 0
    outer loop
      vertex -0.912598 12.7651 2
      vertex -0.912598 13.5948 1
      vertex -0.912598 13.5948 2
    endloop
  endfacet
  facet normal 1 0 0
    outer loop
      vertex -0.912598 13.5948 1
      vertex -0.912598 12.7651 2
      vertex -0.912598 12.7651 1
    endloop
  endfacet
  facet normal 0 1 -0
    outer loop
      vertex -0.912598 13.5948 1
      vertex -4.06055 13.5948 2
      vertex -0.912598 13.5948 2
    endloop
  endfacet
  facet normal 0 1 0
    outer loop
      vertex -4.06055 13.5948 2
      vertex -0.912598 13.5948 1
      vertex -4.06055 13.5948 1
    endloop
  endfacet
  facet normal -0.986028 0.166582 0
    outer loop
      vertex -4.67407 9.96326 1
      vertex -4.06055 13.5948 2
      vertex -4.06055 13.5948 1
    endloop
  endfacet
  facet normal -0.986028 0.166582 0
    outer loop
      vertex -4.06055 13.5948 2
      vertex -4.67407 9.96326 1
      vertex -4.67407 9.96326 2
    endloop
  endfacet
  facet normal -0.143697 -0.989622 0
    outer loop
      vertex -4.67407 9.96326 1
      vertex -3.94434 9.8573 2
      vertex -4.67407 9.96326 2
    endloop
  endfacet
  facet normal -0.143697 -0.989622 -0
    outer loop
      vertex -3.94434 9.8573 2
      vertex -4.67407 9.96326 1
      vertex -3.94434 9.8573 1
    endloop
  endfacet
  facet normal 0.72069 -0.693257 0
    outer loop
      vertex -3.94434 9.8573 2
      vertex -3.46924 10.3512 1
      vertex -3.46924 10.3512 2
    endloop
  endfacet
  facet normal 0.72069 -0.693257 0
    outer loop
      vertex -3.46924 10.3512 1
      vertex -3.94434 9.8573 2
      vertex -3.94434 9.8573 1
    endloop
  endfacet
  facet normal 0.270325 -0.962769 0
    outer loop
      vertex -3.46924 10.3512 1
      vertex -2.79077 10.5417 2
      vertex -3.46924 10.3512 2
    endloop
  endfacet
  facet normal 0.270325 -0.962769 0
    outer loop
      vertex -2.79077 10.5417 2
      vertex -3.46924 10.3512 1
      vertex -2.79077 10.5417 1
    endloop
  endfacet
  facet normal -0.40149 -0.915863 0
    outer loop
      vertex -2.79077 10.5417 1
      vertex -1.81238 10.1128 2
      vertex -2.79077 10.5417 2
    endloop
  endfacet
  facet normal -0.40149 -0.915863 -0
    outer loop
      vertex -1.81238 10.1128 2
      vertex -2.79077 10.5417 1
      vertex -1.81238 10.1128 1
    endloop
  endfacet
  facet normal -0.952833 -0.303494 0
    outer loop
      vertex -1.43896 8.94043 1
      vertex -1.81238 10.1128 2
      vertex -1.81238 10.1128 1
    endloop
  endfacet
  facet normal -0.952833 -0.303494 0
    outer loop
      vertex -1.81238 10.1128 2
      vertex -1.43896 8.94043 1
      vertex -1.43896 8.94043 2
    endloop
  endfacet
  facet normal -0.955114 0.29624 0
    outer loop
      vertex -1.82776 7.68689 1
      vertex -1.43896 8.94043 2
      vertex -1.43896 8.94043 1
    endloop
  endfacet
  facet normal -0.955114 0.29624 0
    outer loop
      vertex -1.43896 8.94043 2
      vertex -1.82776 7.68689 1
      vertex -1.82776 7.68689 2
    endloop
  endfacet
  facet normal -0.445279 0.895392 0
    outer loop
      vertex -1.82776 7.68689 1
      vertex -2.77795 7.21436 2
      vertex -1.82776 7.68689 2
    endloop
  endfacet
  facet normal -0.445279 0.895392 0
    outer loop
      vertex -2.77795 7.21436 2
      vertex -1.82776 7.68689 1
      vertex -2.77795 7.21436 1
    endloop
  endfacet
  facet normal 0.387346 0.921935 -0
    outer loop
      vertex -2.77795 7.21436 1
      vertex -3.5752 7.54932 2
      vertex -2.77795 7.21436 2
    endloop
  endfacet
  facet normal 0.387346 0.921935 0
    outer loop
      vertex -3.5752 7.54932 2
      vertex -2.77795 7.21436 1
      vertex -3.5752 7.54932 1
    endloop
  endfacet
  facet normal 0.921932 0.387353 0
    outer loop
      vertex -3.5752 7.54932 2
      vertex -3.99561 8.54993 1
      vertex -3.99561 8.54993 2
    endloop
  endfacet
  facet normal 0.921932 0.387353 0
    outer loop
      vertex -3.99561 8.54993 1
      vertex -3.5752 7.54932 2
      vertex -3.5752 7.54932 1
    endloop
  endfacet
  facet normal -0.0937352 0.995597 0
    outer loop
      vertex -3.99561 8.54993 1
      vertex -4.8125 8.47302 2
      vertex -3.99561 8.54993 2
    endloop
  endfacet
  facet normal -0.0937352 0.995597 0
    outer loop
      vertex -4.8125 8.47302 2
      vertex -3.99561 8.54993 1
      vertex -4.8125 8.47302 1
    endloop
  endfacet
  facet normal -0.916697 -0.399584 0
    outer loop
      vertex -4.18787 7.04004 1
      vertex -4.8125 8.47302 2
      vertex -4.8125 8.47302 1
    endloop
  endfacet
  facet normal -0.916697 -0.399584 0
    outer loop
      vertex -4.8125 8.47302 2
      vertex -4.18787 7.04004 1
      vertex -4.18787 7.04004 2
    endloop
  endfacet
  facet normal -0.357688 -0.933841 0
    outer loop
      vertex -4.18787 7.04004 1
      vertex -2.77795 6.5 2
      vertex -4.18787 7.04004 2
    endloop
  endfacet
  facet normal -0.357688 -0.933841 -0
    outer loop
      vertex -2.77795 6.5 2
      vertex -4.18787 7.04004 1
      vertex -2.77795 6.5 1
    endloop
  endfacet
  facet normal 0.458862 -0.888507 0
    outer loop
      vertex -2.77795 6.5 1
      vertex -1.11511 7.35876 2
      vertex -2.77795 6.5 2
    endloop
  endfacet
  facet normal 0.458862 -0.888507 0
    outer loop
      vertex -1.11511 7.35876 2
      vertex -2.77795 6.5 1
      vertex -1.11511 7.35876 1
    endloop
  endfacet
  facet normal 0 0 1
    outer loop
      vertex 2.47632 8.43457 2
      vertex 4.44507 13.5709 2
      vertex 3.78882 13.5709 2
    endloop
  endfacet
  facet normal 0 0 1
    outer loop
      vertex 4.44507 13.5709 2
      vertex 2.47632 8.43457 2
      vertex 2.54297 6.5 2
    endloop
  endfacet
  facet normal -0 0 1
    outer loop
      vertex 2.21484 7.27673 2
      vertex 2.54297 6.5 2
      vertex 2.47632 8.43457 2
    endloop
  endfacet
  facet normal 0 0 1
    outer loop
      vertex 2.21484 7.27673 2
      vertex 1.8833 6.5 2
      vertex 2.54297 6.5 2
    endloop
  endfacet
  facet normal 0 0 1
    outer loop
      vertex 1.95935 8.43457 2
      vertex 1.8833 6.5 2
      vertex 2.21484 7.27673 2
    endloop
  endfacet
  facet normal -0 0 1
    outer loop
      vertex 0 13.5709 2
      vertex 1.95935 8.43457 2
      vertex 0.696411 13.5709 2
    endloop
  endfacet
  facet normal 0 0 1
    outer loop
      vertex 1.95935 8.43457 2
      vertex 0 13.5709 2
      vertex 1.8833 6.5 2
    endloop
  endfacet
  facet normal 0 1 -0
    outer loop
      vertex 4.44507 13.5709 1
      vertex 3.78882 13.5709 2
      vertex 4.44507 13.5709 2
    endloop
  endfacet
  facet normal 0 1 0
    outer loop
      vertex 3.78882 13.5709 2
      vertex 4.44507 13.5709 1
      vertex 3.78882 13.5709 1
    endloop
  endfacet
  facet normal -0.968868 0.247577 0
    outer loop
      vertex 2.47632 8.43457 1
      vertex 3.78882 13.5709 2
      vertex 3.78882 13.5709 1
    endloop
  endfacet
  facet normal -0.968868 0.247577 0
    outer loop
      vertex 3.78882 13.5709 2
      vertex 2.47632 8.43457 1
      vertex 2.47632 8.43457 2
    endloop
  endfacet
  facet normal -0.975435 0.220287 0
    outer loop
      vertex 2.21484 7.27673 1
      vertex 2.47632 8.43457 2
      vertex 2.47632 8.43457 1
    endloop
  endfacet
  facet normal -0.975435 0.220287 0
    outer loop
      vertex 2.47632 8.43457 2
      vertex 2.21484 7.27673 1
      vertex 2.21484 7.27673 2
    endloop
  endfacet
  facet normal 0.976509 0.215477 0
    outer loop
      vertex 2.21484 7.27673 2
      vertex 1.95935 8.43457 1
      vertex 1.95935 8.43457 2
    endloop
  endfacet
  facet normal 0.976509 0.215477 0
    outer loop
      vertex 1.95935 8.43457 1
      vertex 2.21484 7.27673 2
      vertex 2.21484 7.27673 1
    endloop
  endfacet
  facet normal 0.971076 0.238772 0
    outer loop
      vertex 1.95935 8.43457 2
      vertex 0.696411 13.5709 1
      vertex 0.696411 13.5709 2
    endloop
  endfacet
  facet normal 0.971076 0.238772 0
    outer loop
      vertex 0.696411 13.5709 1
      vertex 1.95935 8.43457 2
      vertex 1.95935 8.43457 1
    endloop
  endfacet
  facet normal 0 1 -0
    outer loop
      vertex 0.696411 13.5709 1
      vertex 0 13.5709 2
      vertex 0.696411 13.5709 2
    endloop
  endfacet
  facet normal 0 1 0
    outer loop
      vertex 0 13.5709 2
      vertex 0.696411 13.5709 1
      vertex 0 13.5709 1
    endloop
  endfacet
  facet normal -0.966312 -0.257373 0
    outer loop
      vertex 1.8833 6.5 1
      vertex 0 13.5709 2
      vertex 0 13.5709 1
    endloop
  endfacet
  facet normal -0.966312 -0.257373 0
    outer loop
      vertex 0 13.5709 2
      vertex 1.8833 6.5 1
      vertex 1.8833 6.5 2
    endloop
  endfacet
  facet normal 0 -1 0
    outer loop
      vertex 1.8833 6.5 1
      vertex 2.54297 6.5 2
      vertex 1.8833 6.5 2
    endloop
  endfacet
  facet normal 0 -1 -0
    outer loop
      vertex 2.54297 6.5 2
      vertex 1.8833 6.5 1
      vertex 2.54297 6.5 1
    endloop
  endfacet
  facet normal 0.965671 -0.259769 0
    outer loop
      vertex 2.54297 6.5 2
      vertex 4.44507 13.5709 1
      vertex 4.44507 13.5709 2
    endloop
  endfacet
  facet normal 0.965671 -0.259769 0
    outer loop
      vertex 4.44507 13.5709 1
      vertex 2.54297 6.5 2
      vertex 2.54297 6.5 1
    endloop
  endfacet
  facet normal 0.35459 0.935022 -0
    outer loop
      vertex 15.2723 18.7919 -1
      vertex 13.4821 19.4708 1
      vertex 15.2723 18.7919 1
    endloop
  endfacet
  facet normal 0.35459 0.935022 0
    outer loop
      vertex 13.4821 19.4708 1
      vertex 15.2723 18.7919 -1
      vertex 13.4821 19.4708 -1
    endloop
  endfacet
  facet normal -0.56808 -0.822974 0
    outer loop
      vertex -15.994 -18.1525 -1
      vertex -14.4184 -19.2401 1
      vertex -15.994 -18.1525 1
    endloop
  endfacet
  facet normal -0.56808 -0.822974 -0
    outer loop
      vertex -14.4184 -19.2401 1
      vertex -15.994 -18.1525 -1
      vertex -14.4184 -19.2401 -1
    endloop
  endfacet
  facet normal -0.885437 -0.46476 0
    outer loop
      vertex -15.994 -18.1525 -1
      vertex -16.8838 -16.4573 1
      vertex -16.8838 -16.4573 -1
    endloop
  endfacet
  facet normal -0.885437 -0.46476 0
    outer loop
      vertex -16.8838 -16.4573 1
      vertex -15.994 -18.1525 -1
      vertex -15.994 -18.1525 1
    endloop
  endfacet
  facet normal 0.748518 -0.663115 0
    outer loop
      vertex 15.2723 -18.7919 1
      vertex 16.5418 -17.3589 -1
      vertex 16.5418 -17.3589 1
    endloop
  endfacet
  facet normal 0.748518 -0.663115 0
    outer loop
      vertex 16.5418 -17.3589 -1
      vertex 15.2723 -18.7919 1
      vertex 15.2723 -18.7919 -1
    endloop
  endfacet
  facet normal -0.56808 0.822974 0
    outer loop
      vertex -14.4184 19.2401 -1
      vertex -15.994 18.1525 1
      vertex -14.4184 19.2401 1
    endloop
  endfacet
  facet normal -0.56808 0.822974 0
    outer loop
      vertex -15.994 18.1525 1
      vertex -14.4184 19.2401 -1
      vertex -15.994 18.1525 -1
    endloop
  endfacet
  facet normal 0 1 -0
    outer loop
      vertex 13.4821 19.4708 -1
      vertex -12.5179 19.4708 1
      vertex 13.4821 19.4708 1
    endloop
  endfacet
  facet normal 0 1 0
    outer loop
      vertex -12.5179 19.4708 1
      vertex 13.4821 19.4708 -1
      vertex -12.5179 19.4708 -1
    endloop
  endfacet
  facet normal -0.120505 0.992713 0
    outer loop
      vertex -12.5179 19.4708 -1
      vertex -14.4184 19.2401 1
      vertex -12.5179 19.4708 1
    endloop
  endfacet
  facet normal -0.120505 0.992713 0
    outer loop
      vertex -14.4184 19.2401 1
      vertex -12.5179 19.4708 -1
      vertex -14.4184 19.2401 -1
    endloop
  endfacet
  facet normal 0 -1 0
    outer loop
      vertex -12.5179 -19.4708 -1
      vertex 13.4821 -19.4708 1
      vertex -12.5179 -19.4708 1
    endloop
  endfacet
  facet normal 0 -1 -0
    outer loop
      vertex 13.4821 -19.4708 1
      vertex -12.5179 -19.4708 -1
      vertex 13.4821 -19.4708 -1
    endloop
  endfacet
  facet normal -0.885437 0.46476 0
    outer loop
      vertex -16.8838 16.4573 -1
      vertex -15.994 18.1525 1
      vertex -15.994 18.1525 -1
    endloop
  endfacet
  facet normal -0.885437 0.46476 0
    outer loop
      vertex -15.994 18.1525 1
      vertex -16.8838 16.4573 -1
      vertex -16.8838 16.4573 1
    endloop
  endfacet
  facet normal -1 0 0
    outer loop
      vertex -16.8838 -16.4573 -1
      vertex -16.8838 16.4573 1
      vertex -16.8838 16.4573 -1
    endloop
  endfacet
  facet normal -1 -0 0
    outer loop
      vertex -16.8838 16.4573 1
      vertex -16.8838 -16.4573 -1
      vertex -16.8838 -16.4573 1
    endloop
  endfacet
  facet normal 0.35459 -0.935022 0
    outer loop
      vertex 13.4821 -19.4708 -1
      vertex 15.2723 -18.7919 1
      vertex 13.4821 -19.4708 1
    endloop
  endfacet
  facet normal 0.35459 -0.935022 0
    outer loop
      vertex 15.2723 -18.7919 1
      vertex 13.4821 -19.4708 -1
      vertex 15.2723 -18.7919 -1
    endloop
  endfacet
  facet normal 0.970939 -0.239327 0
    outer loop
      vertex 16.5418 -17.3589 1
      vertex 17 -15.5 -1
      vertex 17 -15.5 1
    endloop
  endfacet
  facet normal 0.970939 -0.239327 0
    outer loop
      vertex 17 -15.5 -1
      vertex 16.5418 -17.3589 1
      vertex 16.5418 -17.3589 -1
    endloop
  endfacet
  facet normal 0.970939 0.239327 0
    outer loop
      vertex 17 15.5 1
      vertex 16.5418 17.3589 -1
      vertex 16.5418 17.3589 1
    endloop
  endfacet
  facet normal 0.970939 0.239327 0
    outer loop
      vertex 16.5418 17.3589 -1
      vertex 17 15.5 1
      vertex 17 15.5 -1
    endloop
  endfacet
  facet normal 0.748518 0.663115 0
    outer loop
      vertex 16.5418 17.3589 1
      vertex 15.2723 18.7919 -1
      vertex 15.2723 18.7919 1
    endloop
  endfacet
  facet normal 0.748518 0.663115 0
    outer loop
      vertex 15.2723 18.7919 -1
      vertex 16.5418 17.3589 1
      vertex 16.5418 17.3589 -1
    endloop
  endfacet
  facet normal 0 0 -1
    outer loop
      vertex 13.4821 -19.4708 -1
      vertex 17 -15.5 -1
      vertex 16.5418 -17.3589 -1
    endloop
  endfacet
  facet normal 0 0 -1
    outer loop
      vertex 5.66398 -4.47823 -1
      vertex 17 -15.5 -1
      vertex 6.06452 -5.71095 -1
    endloop
  endfacet
  facet normal 0 0 -1
    outer loop
      vertex 13.4821 -19.4708 -1
      vertex 16.5418 -17.3589 -1
      vertex 15.2723 -18.7919 -1
    endloop
  endfacet
  facet normal 0 0 -1
    outer loop
      vertex 17 -15.5 -1
      vertex 5.66398 -4.47823 -1
      vertex 17 15.5 -1
    endloop
  endfacet
  facet normal 0 0 -1
    outer loop
      vertex 5.0159 -10.6443 -1
      vertex 17 -15.5 -1
      vertex 13.4821 -19.4708 -1
    endloop
  endfacet
  facet normal 0 0 -1
    outer loop
      vertex 5.0159 -3.35573 -1
      vertex 17 15.5 -1
      vertex 5.66398 -4.47823 -1
    endloop
  endfacet
  facet normal 0 0 -1
    outer loop
      vertex 17 -15.5 -1
      vertex 6.2 -7 -1
      vertex 6.06452 -5.71095 -1
    endloop
  endfacet
  facet normal 0 0 -1
    outer loop
      vertex 17 -15.5 -1
      vertex 6.06452 -8.28905 -1
      vertex 6.2 -7 -1
    endloop
  endfacet
  facet normal 0 0 -1
    outer loop
      vertex 17 -15.5 -1
      vertex 5.66398 -9.52177 -1
      vertex 6.06452 -8.28905 -1
    endloop
  endfacet
  facet normal 0 0 -1
    outer loop
      vertex 17 -15.5 -1
      vertex 5.0159 -10.6443 -1
      vertex 5.66398 -9.52177 -1
    endloop
  endfacet
  facet normal 0 0 -1
    outer loop
      vertex 13.4821 -19.4708 -1
      vertex 4.14861 -11.6075 -1
      vertex 5.0159 -10.6443 -1
    endloop
  endfacet
  facet normal 0 0 -1
    outer loop
      vertex 13.4821 -19.4708 -1
      vertex 3.1 -12.3694 -1
      vertex 4.14861 -11.6075 -1
    endloop
  endfacet
  facet normal 0 0 -1
    outer loop
      vertex 13.4821 -19.4708 -1
      vertex 1.9159 -12.8966 -1
      vertex 3.1 -12.3694 -1
    endloop
  endfacet
  facet normal 0 0 -1
    outer loop
      vertex 13.4821 -19.4708 -1
      vertex 0.648076 -13.166 -1
      vertex 1.9159 -12.8966 -1
    endloop
  endfacet
  facet normal 0 0 -1
    outer loop
      vertex -12.5179 -19.4708 -1
      vertex 0.648076 -13.166 -1
      vertex 13.4821 -19.4708 -1
    endloop
  endfacet
  facet normal -0 0 -1
    outer loop
      vertex 0.648076 -13.166 -1
      vertex -12.5179 -19.4708 -1
      vertex -0.648076 -13.166 -1
    endloop
  endfacet
  facet normal -0 0 -1
    outer loop
      vertex -5.66398 -9.52177 -1
      vertex -16.8838 -16.4573 -1
      vertex -6.06452 -8.28905 -1
    endloop
  endfacet
  facet normal 0 0 -1
    outer loop
      vertex -16.8838 -16.4573 -1
      vertex -5.66398 -9.52177 -1
      vertex -12.5179 -19.4708 -1
    endloop
  endfacet
  facet normal -0 0 -1
    outer loop
      vertex -5.0159 -10.6443 -1
      vertex -12.5179 -19.4708 -1
      vertex -5.66398 -9.52177 -1
    endloop
  endfacet
  facet normal -0 0 -1
    outer loop
      vertex -4.14861 -11.6075 -1
      vertex -12.5179 -19.4708 -1
      vertex -5.0159 -10.6443 -1
    endloop
  endfacet
  facet normal -0 0 -1
    outer loop
      vertex -3.1 -12.3694 -1
      vertex -12.5179 -19.4708 -1
      vertex -4.14861 -11.6075 -1
    endloop
  endfacet
  facet normal -0 0 -1
    outer loop
      vertex -1.9159 -12.8966 -1
      vertex -12.5179 -19.4708 -1
      vertex -3.1 -12.3694 -1
    endloop
  endfacet
  facet normal -0 0 -1
    outer loop
      vertex -0.648076 -13.166 -1
      vertex -12.5179 -19.4708 -1
      vertex -1.9159 -12.8966 -1
    endloop
  endfacet
  facet normal 0 0 -1
    outer loop
      vertex 4.14861 -2.3925 -1
      vertex 17 15.5 -1
      vertex 5.0159 -3.35573 -1
    endloop
  endfacet
  facet normal 0 0 -1
    outer loop
      vertex 3.1 -1.63064 -1
      vertex 17 15.5 -1
      vertex 4.14861 -2.3925 -1
    endloop
  endfacet
  facet normal 0 0 -1
    outer loop
      vertex 1.9159 -1.10345 -1
      vertex 17 15.5 -1
      vertex 3.1 -1.63064 -1
    endloop
  endfacet
  facet normal 0 0 -1
    outer loop
      vertex 17 15.5 -1
      vertex 13.4821 19.4708 -1
      vertex 16.5418 17.3589 -1
    endloop
  endfacet
  facet normal 0 0 -1
    outer loop
      vertex 16.5418 17.3589 -1
      vertex 13.4821 19.4708 -1
      vertex 15.2723 18.7919 -1
    endloop
  endfacet
  facet normal -0 0 -1
    outer loop
      vertex 17 15.5 -1
      vertex 1.9159 -1.10345 -1
      vertex 13.4821 19.4708 -1
    endloop
  endfacet
  facet normal 0 0 -1
    outer loop
      vertex 0.648076 -0.833963 -1
      vertex 13.4821 19.4708 -1
      vertex 1.9159 -1.10345 -1
    endloop
  endfacet
  facet normal 0 0 -1
    outer loop
      vertex -12.5179 19.4708 -1
      vertex 0.648076 -0.833963 -1
      vertex -0.648076 -0.833963 -1
    endloop
  endfacet
  facet normal 0 0 -1
    outer loop
      vertex -12.5179 19.4708 -1
      vertex -0.648076 -0.833963 -1
      vertex -1.9159 -1.10345 -1
    endloop
  endfacet
  facet normal 0 0 -1
    outer loop
      vertex -12.5179 19.4708 -1
      vertex -1.9159 -1.10345 -1
      vertex -3.1 -1.63064 -1
    endloop
  endfacet
  facet normal 0 0 -1
    outer loop
      vertex -16.8838 16.4573 -1
      vertex -3.1 -1.63064 -1
      vertex -4.14861 -2.3925 -1
    endloop
  endfacet
  facet normal 0 0 -1
    outer loop
      vertex -16.8838 16.4573 -1
      vertex -4.14861 -2.3925 -1
      vertex -5.0159 -3.35573 -1
    endloop
  endfacet
  facet normal -0 0 -1
    outer loop
      vertex -6.06452 -8.28905 -1
      vertex -16.8838 -16.4573 -1
      vertex -6.2 -7 -1
    endloop
  endfacet
  facet normal -0 0 -1
    outer loop
      vertex -6.2 -7 -1
      vertex -16.8838 -16.4573 -1
      vertex -6.06452 -5.71095 -1
    endloop
  endfacet
  facet normal 0 0 -1
    outer loop
      vertex 0.648076 -0.833963 -1
      vertex -12.5179 19.4708 -1
      vertex 13.4821 19.4708 -1
    endloop
  endfacet
  facet normal 0 0 -1
    outer loop
      vertex -16.8838 16.4573 -1
      vertex -5.0159 -3.35573 -1
      vertex -5.66398 -4.47823 -1
    endloop
  endfacet
  facet normal 0 0 -1
    outer loop
      vertex -16.8838 16.4573 -1
      vertex -6.06452 -5.71095 -1
      vertex -16.8838 -16.4573 -1
    endloop
  endfacet
  facet normal 0 0 -1
    outer loop
      vertex -16.8838 -16.4573 -1
      vertex -12.5179 -19.4708 -1
      vertex -14.4184 -19.2401 -1
    endloop
  endfacet
  facet normal 0 0 -1
    outer loop
      vertex -6.06452 -5.71095 -1
      vertex -16.8838 16.4573 -1
      vertex -5.66398 -4.47823 -1
    endloop
  endfacet
  facet normal 0 0 -1
    outer loop
      vertex -16.8838 -16.4573 -1
      vertex -14.4184 -19.2401 -1
      vertex -15.994 -18.1525 -1
    endloop
  endfacet
  facet normal 0 0 -1
    outer loop
      vertex -3.1 -1.63064 -1
      vertex -16.8838 16.4573 -1
      vertex -12.5179 19.4708 -1
    endloop
  endfacet
  facet normal 0 0 -1
    outer loop
      vertex -12.5179 19.4708 -1
      vertex -16.8838 16.4573 -1
      vertex -14.4184 19.2401 -1
    endloop
  endfacet
  facet normal 0 0 -1
    outer loop
      vertex -14.4184 19.2401 -1
      vertex -16.8838 16.4573 -1
      vertex -15.994 18.1525 -1
    endloop
  endfacet
  facet normal 1 -0 0
    outer loop
      vertex 17 -15.5 1
      vertex 17 15.5 -1
      vertex 17 15.5 1
    endloop
  endfacet
  facet normal 1 0 0
    outer loop
      vertex 17 15.5 -1
      vertex 17 -15.5 1
      vertex 17 -15.5 -1
    endloop
  endfacet
  facet normal -0.120505 -0.992713 0
    outer loop
      vertex -14.4184 -19.2401 -1
      vertex -12.5179 -19.4708 1
      vertex -14.4184 -19.2401 1
    endloop
  endfacet
  facet normal -0.120505 -0.992713 -0
    outer loop
      vertex -12.5179 -19.4708 1
      vertex -14.4184 -19.2401 -1
      vertex -12.5179 -19.4708 -1
    endloop
  endfacet
  facet normal -0.406733 -0.913547 0
    outer loop
      vertex 1.9159 -1.10345 -1
      vertex 3.1 -1.63064 1
      vertex 1.9159 -1.10345 1
    endloop
  endfacet
  facet normal -0.406733 -0.913547 -0
    outer loop
      vertex 3.1 -1.63064 1
      vertex 1.9159 -1.10345 -1
      vertex 3.1 -1.63064 -1
    endloop
  endfacet
  facet normal -0.951055 -0.30902 0
    outer loop
      vertex 6.06452 -5.71095 -1
      vertex 5.66398 -4.47823 1
      vertex 5.66398 -4.47823 -1
    endloop
  endfacet
  facet normal -0.951055 -0.30902 0
    outer loop
      vertex 5.66398 -4.47823 1
      vertex 6.06452 -5.71095 -1
      vertex 6.06452 -5.71095 1
    endloop
  endfacet
  facet normal -0.994522 -0.104525 0
    outer loop
      vertex 6.2 -7 -1
      vertex 6.06452 -5.71095 1
      vertex 6.06452 -5.71095 -1
    endloop
  endfacet
  facet normal -0.994522 -0.104525 0
    outer loop
      vertex 6.06452 -5.71095 1
      vertex 6.2 -7 -1
      vertex 6.2 -7 1
    endloop
  endfacet
  facet normal -0.866024 -0.500003 0
    outer loop
      vertex 5.66398 -4.47823 -1
      vertex 5.0159 -3.35573 1
      vertex 5.0159 -3.35573 -1
    endloop
  endfacet
  facet normal -0.866024 -0.500003 0
    outer loop
      vertex 5.0159 -3.35573 1
      vertex 5.66398 -4.47823 -1
      vertex 5.66398 -4.47823 1
    endloop
  endfacet
  facet normal -0.207914 -0.978147 0
    outer loop
      vertex 0.648076 -0.833963 -1
      vertex 1.9159 -1.10345 1
      vertex 0.648076 -0.833963 1
    endloop
  endfacet
  facet normal -0.207914 -0.978147 -0
    outer loop
      vertex 1.9159 -1.10345 1
      vertex 0.648076 -0.833963 -1
      vertex 1.9159 -1.10345 -1
    endloop
  endfacet
  facet normal -0.951055 0.30902 0
    outer loop
      vertex 5.66398 -9.52177 -1
      vertex 6.06452 -8.28905 1
      vertex 6.06452 -8.28905 -1
    endloop
  endfacet
  facet normal -0.951055 0.30902 0
    outer loop
      vertex 6.06452 -8.28905 1
      vertex 5.66398 -9.52177 -1
      vertex 5.66398 -9.52177 1
    endloop
  endfacet
  facet normal 0.40674 0.913544 -0
    outer loop
      vertex -1.9159 -12.8966 -1
      vertex -3.1 -12.3694 1
      vertex -1.9159 -12.8966 1
    endloop
  endfacet
  facet normal 0.40674 0.913544 0
    outer loop
      vertex -3.1 -12.3694 1
      vertex -1.9159 -12.8966 -1
      vertex -3.1 -12.3694 -1
    endloop
  endfacet
  facet normal 0.587806 0.809002 -0
    outer loop
      vertex -3.1 -12.3694 -1
      vertex -4.14861 -11.6075 1
      vertex -3.1 -12.3694 1
    endloop
  endfacet
  facet normal 0.587806 0.809002 0
    outer loop
      vertex -4.14861 -11.6075 1
      vertex -3.1 -12.3694 -1
      vertex -4.14861 -11.6075 -1
    endloop
  endfacet
  facet normal -0.743147 -0.669128 0
    outer loop
      vertex 5.0159 -3.35573 -1
      vertex 4.14861 -2.3925 1
      vertex 4.14861 -2.3925 -1
    endloop
  endfacet
  facet normal -0.743147 -0.669128 0
    outer loop
      vertex 4.14861 -2.3925 1
      vertex 5.0159 -3.35573 -1
      vertex 5.0159 -3.35573 1
    endloop
  endfacet
  facet normal -0.587806 0.809002 0
    outer loop
      vertex 4.14861 -11.6075 -1
      vertex 3.1 -12.3694 1
      vertex 4.14861 -11.6075 1
    endloop
  endfacet
  facet normal -0.587806 0.809002 0
    outer loop
      vertex 3.1 -12.3694 1
      vertex 4.14861 -11.6075 -1
      vertex 3.1 -12.3694 -1
    endloop
  endfacet
  facet normal 0.743147 -0.669128 0
    outer loop
      vertex -5.0159 -3.35573 1
      vertex -4.14861 -2.3925 -1
      vertex -4.14861 -2.3925 1
    endloop
  endfacet
  facet normal 0.743147 -0.669128 0
    outer loop
      vertex -4.14861 -2.3925 -1
      vertex -5.0159 -3.35573 1
      vertex -5.0159 -3.35573 -1
    endloop
  endfacet
  facet normal -0.994522 0.104525 0
    outer loop
      vertex 6.06452 -8.28905 -1
      vertex 6.2 -7 1
      vertex 6.2 -7 -1
    endloop
  endfacet
  facet normal -0.994522 0.104525 0
    outer loop
      vertex 6.2 -7 1
      vertex 6.06452 -8.28905 -1
      vertex 6.06452 -8.28905 1
    endloop
  endfacet
  facet normal 0.207849 0.978161 -0
    outer loop
      vertex -0.648076 -13.166 -1
      vertex -1.9159 -12.8966 1
      vertex -0.648076 -13.166 1
    endloop
  endfacet
  facet normal 0.207849 0.978161 0
    outer loop
      vertex -1.9159 -12.8966 1
      vertex -0.648076 -13.166 -1
      vertex -1.9159 -12.8966 -1
    endloop
  endfacet
  facet normal 0.406733 -0.913547 0
    outer loop
      vertex -3.1 -1.63064 -1
      vertex -1.9159 -1.10345 1
      vertex -3.1 -1.63064 1
    endloop
  endfacet
  facet normal 0.406733 -0.913547 0
    outer loop
      vertex -1.9159 -1.10345 1
      vertex -3.1 -1.63064 -1
      vertex -1.9159 -1.10345 -1
    endloop
  endfacet
  facet normal 0.587785 -0.809017 0
    outer loop
      vertex -4.14861 -2.3925 -1
      vertex -3.1 -1.63064 1
      vertex -4.14861 -2.3925 1
    endloop
  endfacet
  facet normal 0.587785 -0.809017 0
    outer loop
      vertex -3.1 -1.63064 1
      vertex -4.14861 -2.3925 -1
      vertex -3.1 -1.63064 -1
    endloop
  endfacet
  facet normal 0.86603 0.499992 0
    outer loop
      vertex -5.0159 -10.6443 1
      vertex -5.66398 -9.52177 -1
      vertex -5.66398 -9.52177 1
    endloop
  endfacet
  facet normal 0.86603 0.499992 0
    outer loop
      vertex -5.66398 -9.52177 -1
      vertex -5.0159 -10.6443 1
      vertex -5.0159 -10.6443 -1
    endloop
  endfacet
  facet normal 0.866024 -0.500003 0
    outer loop
      vertex -5.66398 -4.47823 1
      vertex -5.0159 -3.35573 -1
      vertex -5.0159 -3.35573 1
    endloop
  endfacet
  facet normal 0.866024 -0.500003 0
    outer loop
      vertex -5.0159 -3.35573 -1
      vertex -5.66398 -4.47823 1
      vertex -5.66398 -4.47823 -1
    endloop
  endfacet
  facet normal 0.951055 -0.30902 0
    outer loop
      vertex -6.06452 -5.71095 1
      vertex -5.66398 -4.47823 -1
      vertex -5.66398 -4.47823 1
    endloop
  endfacet
  facet normal 0.951055 -0.30902 0
    outer loop
      vertex -5.66398 -4.47823 -1
      vertex -6.06452 -5.71095 1
      vertex -6.06452 -5.71095 -1
    endloop
  endfacet
  facet normal 0.207914 -0.978147 0
    outer loop
      vertex -1.9159 -1.10345 -1
      vertex -0.648076 -0.833963 1
      vertex -1.9159 -1.10345 1
    endloop
  endfacet
  facet normal 0.207914 -0.978147 0
    outer loop
      vertex -0.648076 -0.833963 1
      vertex -1.9159 -1.10345 -1
      vertex -0.648076 -0.833963 -1
    endloop
  endfacet
  facet normal -0.207849 0.978161 0
    outer loop
      vertex 1.9159 -12.8966 -1
      vertex 0.648076 -13.166 1
      vertex 1.9159 -12.8966 1
    endloop
  endfacet
  facet normal -0.207849 0.978161 0
    outer loop
      vertex 0.648076 -13.166 1
      vertex 1.9159 -12.8966 -1
      vertex 0.648076 -13.166 -1
    endloop
  endfacet
  facet normal 0 -1 0
    outer loop
      vertex -0.648076 -0.833963 -1
      vertex 0.648076 -0.833963 1
      vertex -0.648076 -0.833963 1
    endloop
  endfacet
  facet normal 0 -1 -0
    outer loop
      vertex 0.648076 -0.833963 1
      vertex -0.648076 -0.833963 -1
      vertex 0.648076 -0.833963 -1
    endloop
  endfacet
  facet normal -0.86603 0.499992 0
    outer loop
      vertex 5.0159 -10.6443 -1
      vertex 5.66398 -9.52177 1
      vertex 5.66398 -9.52177 -1
    endloop
  endfacet
  facet normal -0.86603 0.499992 0
    outer loop
      vertex 5.66398 -9.52177 1
      vertex 5.0159 -10.6443 -1
      vertex 5.0159 -10.6443 1
    endloop
  endfacet
  facet normal -0.40674 0.913544 0
    outer loop
      vertex 3.1 -12.3694 -1
      vertex 1.9159 -12.8966 1
      vertex 3.1 -12.3694 1
    endloop
  endfacet
  facet normal -0.40674 0.913544 0
    outer loop
      vertex 1.9159 -12.8966 1
      vertex 3.1 -12.3694 -1
      vertex 1.9159 -12.8966 -1
    endloop
  endfacet
  facet normal 0.994522 -0.104525 0
    outer loop
      vertex -6.2 -7 1
      vertex -6.06452 -5.71095 -1
      vertex -6.06452 -5.71095 1
    endloop
  endfacet
  facet normal 0.994522 -0.104525 0
    outer loop
      vertex -6.06452 -5.71095 -1
      vertex -6.2 -7 1
      vertex -6.2 -7 -1
    endloop
  endfacet
  facet normal -0.743137 0.669139 0
    outer loop
      vertex 4.14861 -11.6075 -1
      vertex 5.0159 -10.6443 1
      vertex 5.0159 -10.6443 -1
    endloop
  endfacet
  facet normal -0.743137 0.669139 0
    outer loop
      vertex 5.0159 -10.6443 1
      vertex 4.14861 -11.6075 -1
      vertex 4.14861 -11.6075 1
    endloop
  endfacet
  facet normal -0.587785 -0.809017 0
    outer loop
      vertex 3.1 -1.63064 -1
      vertex 4.14861 -2.3925 1
      vertex 3.1 -1.63064 1
    endloop
  endfacet
  facet normal -0.587785 -0.809017 -0
    outer loop
      vertex 4.14861 -2.3925 1
      vertex 3.1 -1.63064 -1
      vertex 4.14861 -2.3925 -1
    endloop
  endfacet
  facet normal 0 1 -0
    outer loop
      vertex 0.648076 -13.166 -1
      vertex -0.648076 -13.166 1
      vertex 0.648076 -13.166 1
    endloop
  endfacet
  facet normal 0 1 0
    outer loop
      vertex -0.648076 -13.166 1
      vertex 0.648076 -13.166 -1
      vertex -0.648076 -13.166 -1
    endloop
  endfacet
  facet normal 0.951055 0.30902 0
    outer loop
      vertex -5.66398 -9.52177 1
      vertex -6.06452 -8.28905 -1
      vertex -6.06452 -8.28905 1
    endloop
  endfacet
  facet normal 0.951055 0.30902 0
    outer loop
      vertex -6.06452 -8.28905 -1
      vertex -5.66398 -9.52177 1
      vertex -5.66398 -9.52177 -1
    endloop
  endfacet
  facet normal 0.743137 0.669139 0
    outer loop
      vertex -4.14861 -11.6075 1
      vertex -5.0159 -10.6443 -1
      vertex -5.0159 -10.6443 1
    endloop
  endfacet
  facet normal 0.743137 0.669139 0
    outer loop
      vertex -5.0159 -10.6443 -1
      vertex -4.14861 -11.6075 1
      vertex -4.14861 -11.6075 -1
    endloop
  endfacet
  facet normal 0.994522 0.104525 0
    outer loop
      vertex -6.06452 -8.28905 1
      vertex -6.2 -7 -1
      vertex -6.2 -7 1
    endloop
  endfacet
  facet normal 0.994522 0.104525 0
    outer loop
      vertex -6.2 -7 -1
      vertex -6.06452 -8.28905 1
      vertex -6.06452 -8.28905 -1
    endloop
  endfacet
endsolid OpenSCAD_Model
