solid OpenSCAD_Model
  facet normal -0 0 1
    outer loop
      vertex 11.4808 52.3658 -37.0574
      vertex 12.2426 48 -37.0574
      vertex 12.2426 64 -37.0574
    endloop
  endfacet
  facet normal 0 0 1
    outer loop
      vertex 12.2426 48 -37.0574
      vertex 11.4808 52.3658 -37.0574
      vertex 11.5 52 -37.0574
    endloop
  endfacet
  facet normal 0 0 1
    outer loop
      vertex 12.2426 64 -37.0574
      vertex 11.4235 52.7277 -37.0574
      vertex 11.4808 52.3658 -37.0574
    endloop
  endfacet
  facet normal 0 0 1
    outer loop
      vertex 12.2426 64 -37.0574
      vertex 11.3287 53.0816 -37.0574
      vertex 11.4235 52.7277 -37.0574
    endloop
  endfacet
  facet normal 0 0 1
    outer loop
      vertex 12.2426 64 -37.0574
      vertex 11.1974 53.4236 -37.0574
      vertex 11.3287 53.0816 -37.0574
    endloop
  endfacet
  facet normal 0 0 1
    outer loop
      vertex 12.2426 64 -37.0574
      vertex 11.0311 53.75 -37.0574
      vertex 11.1974 53.4236 -37.0574
    endloop
  endfacet
  facet normal 0 0 1
    outer loop
      vertex 12.2426 64 -37.0574
      vertex 10.8316 54.0572 -37.0574
      vertex 11.0311 53.75 -37.0574
    endloop
  endfacet
  facet normal 0 0 1
    outer loop
      vertex 12.2426 64 -37.0574
      vertex 10.601 54.342 -37.0574
      vertex 10.8316 54.0572 -37.0574
    endloop
  endfacet
  facet normal 0 0 1
    outer loop
      vertex 12.2426 64 -37.0574
      vertex 10.342 54.601 -37.0574
      vertex 10.601 54.342 -37.0574
    endloop
  endfacet
  facet normal 0 0 1
    outer loop
      vertex 12.2426 64 -37.0574
      vertex 10.0572 54.8316 -37.0574
      vertex 10.342 54.601 -37.0574
    endloop
  endfacet
  facet normal 0 0 1
    outer loop
      vertex 12.2426 64 -37.0574
      vertex 9.75 55.0311 -37.0574
      vertex 10.0572 54.8316 -37.0574
    endloop
  endfacet
  facet normal 0 0 1
    outer loop
      vertex 12.2426 64 -37.0574
      vertex 9.42358 55.1974 -37.0574
      vertex 9.75 55.0311 -37.0574
    endloop
  endfacet
  facet normal 0 0 1
    outer loop
      vertex 12.2426 64 -37.0574
      vertex 9.08156 55.3287 -37.0574
      vertex 9.42358 55.1974 -37.0574
    endloop
  endfacet
  facet normal 0 0 1
    outer loop
      vertex 12.2426 64 -37.0574
      vertex 8.72769 55.4235 -37.0574
      vertex 9.08156 55.3287 -37.0574
    endloop
  endfacet
  facet normal 0 0 1
    outer loop
      vertex 12.2426 64 -37.0574
      vertex 8.36585 55.4808 -37.0574
      vertex 8.72769 55.4235 -37.0574
    endloop
  endfacet
  facet normal 0 0 1
    outer loop
      vertex 12.2426 64 -37.0574
      vertex 8 55.5 -37.0574
      vertex 8.36585 55.4808 -37.0574
    endloop
  endfacet
  facet normal -0 0 1
    outer loop
      vertex 3.75736 64 -37.0574
      vertex 8 55.5 -37.0574
      vertex 12.2426 64 -37.0574
    endloop
  endfacet
  facet normal 0 0 1
    outer loop
      vertex 8 55.5 -37.0574
      vertex 3.75736 64 -37.0574
      vertex 7.63415 55.4808 -37.0574
    endloop
  endfacet
  facet normal 0 0 1
    outer loop
      vertex 7.63415 55.4808 -37.0574
      vertex 3.75736 64 -37.0574
      vertex 7.27231 55.4235 -37.0574
    endloop
  endfacet
  facet normal 0 0 1
    outer loop
      vertex 7.27231 55.4235 -37.0574
      vertex 3.75736 64 -37.0574
      vertex 6.91844 55.3287 -37.0574
    endloop
  endfacet
  facet normal 0 0 1
    outer loop
      vertex 6.91844 55.3287 -37.0574
      vertex 3.75736 64 -37.0574
      vertex 6.57642 55.1974 -37.0574
    endloop
  endfacet
  facet normal 0 0 1
    outer loop
      vertex 6.57642 55.1974 -37.0574
      vertex 3.75736 64 -37.0574
      vertex 6.25 55.0311 -37.0574
    endloop
  endfacet
  facet normal 0 0 1
    outer loop
      vertex 6.25 55.0311 -37.0574
      vertex 3.75736 64 -37.0574
      vertex 5.94275 54.8316 -37.0574
    endloop
  endfacet
  facet normal 0 0 1
    outer loop
      vertex 5.94275 54.8316 -37.0574
      vertex 3.75736 64 -37.0574
      vertex 5.65804 54.601 -37.0574
    endloop
  endfacet
  facet normal 0 0 1
    outer loop
      vertex 5.65804 54.601 -37.0574
      vertex 3.75736 64 -37.0574
      vertex 5.39899 54.342 -37.0574
    endloop
  endfacet
  facet normal 0 0 1
    outer loop
      vertex 3.75736 48 -37.0574
      vertex 4.51917 52.3658 -37.0574
      vertex 3.75736 64 -37.0574
    endloop
  endfacet
  facet normal 0 0 1
    outer loop
      vertex 4.57648 52.7277 -37.0574
      vertex 3.75736 64 -37.0574
      vertex 4.51917 52.3658 -37.0574
    endloop
  endfacet
  facet normal 0 0 1
    outer loop
      vertex 4.6713 53.0816 -37.0574
      vertex 3.75736 64 -37.0574
      vertex 4.57648 52.7277 -37.0574
    endloop
  endfacet
  facet normal 0 0 1
    outer loop
      vertex 4.80259 53.4236 -37.0574
      vertex 3.75736 64 -37.0574
      vertex 4.6713 53.0816 -37.0574
    endloop
  endfacet
  facet normal 0 0 1
    outer loop
      vertex 4.96891 53.75 -37.0574
      vertex 3.75736 64 -37.0574
      vertex 4.80259 53.4236 -37.0574
    endloop
  endfacet
  facet normal 0 0 1
    outer loop
      vertex 5.16844 54.0572 -37.0574
      vertex 3.75736 64 -37.0574
      vertex 4.96891 53.75 -37.0574
    endloop
  endfacet
  facet normal 0 0 1
    outer loop
      vertex 5.39899 54.342 -37.0574
      vertex 3.75736 64 -37.0574
      vertex 5.16844 54.0572 -37.0574
    endloop
  endfacet
  facet normal -0 0 1
    outer loop
      vertex 11.4808 51.6342 -37.0574
      vertex 12.2426 48 -37.0574
      vertex 11.5 52 -37.0574
    endloop
  endfacet
  facet normal -0 0 1
    outer loop
      vertex 11.4235 51.2723 -37.0574
      vertex 12.2426 48 -37.0574
      vertex 11.4808 51.6342 -37.0574
    endloop
  endfacet
  facet normal -0 0 1
    outer loop
      vertex 11.3287 50.9184 -37.0574
      vertex 12.2426 48 -37.0574
      vertex 11.4235 51.2723 -37.0574
    endloop
  endfacet
  facet normal -0 0 1
    outer loop
      vertex 11.1974 50.5764 -37.0574
      vertex 12.2426 48 -37.0574
      vertex 11.3287 50.9184 -37.0574
    endloop
  endfacet
  facet normal -0 0 1
    outer loop
      vertex 11.0311 50.25 -37.0574
      vertex 12.2426 48 -37.0574
      vertex 11.1974 50.5764 -37.0574
    endloop
  endfacet
  facet normal -0 0 1
    outer loop
      vertex 10.8316 49.9428 -37.0574
      vertex 12.2426 48 -37.0574
      vertex 11.0311 50.25 -37.0574
    endloop
  endfacet
  facet normal -0 0 1
    outer loop
      vertex 10.601 49.658 -37.0574
      vertex 12.2426 48 -37.0574
      vertex 10.8316 49.9428 -37.0574
    endloop
  endfacet
  facet normal -0 0 1
    outer loop
      vertex 10.342 49.399 -37.0574
      vertex 12.2426 48 -37.0574
      vertex 10.601 49.658 -37.0574
    endloop
  endfacet
  facet normal -0 0 1
    outer loop
      vertex 10.0572 49.1684 -37.0574
      vertex 12.2426 48 -37.0574
      vertex 10.342 49.399 -37.0574
    endloop
  endfacet
  facet normal -0 0 1
    outer loop
      vertex 9.75 48.9689 -37.0574
      vertex 12.2426 48 -37.0574
      vertex 10.0572 49.1684 -37.0574
    endloop
  endfacet
  facet normal -0 0 1
    outer loop
      vertex 9.42358 48.8026 -37.0574
      vertex 12.2426 48 -37.0574
      vertex 9.75 48.9689 -37.0574
    endloop
  endfacet
  facet normal -0 0 1
    outer loop
      vertex 9.08156 48.6713 -37.0574
      vertex 12.2426 48 -37.0574
      vertex 9.42358 48.8026 -37.0574
    endloop
  endfacet
  facet normal -0 0 1
    outer loop
      vertex 8.72769 48.5765 -37.0574
      vertex 12.2426 48 -37.0574
      vertex 9.08156 48.6713 -37.0574
    endloop
  endfacet
  facet normal -0 0 1
    outer loop
      vertex 8.36585 48.5192 -37.0574
      vertex 12.2426 48 -37.0574
      vertex 8.72769 48.5765 -37.0574
    endloop
  endfacet
  facet normal -0 0 1
    outer loop
      vertex 8 48.5 -37.0574
      vertex 12.2426 48 -37.0574
      vertex 8.36585 48.5192 -37.0574
    endloop
  endfacet
  facet normal 0 0 1
    outer loop
      vertex 3.75736 48 -37.0574
      vertex 8 48.5 -37.0574
      vertex 7.63415 48.5192 -37.0574
    endloop
  endfacet
  facet normal 0 0 1
    outer loop
      vertex 4.51917 52.3658 -37.0574
      vertex 3.75736 48 -37.0574
      vertex 4.5 52 -37.0574
    endloop
  endfacet
  facet normal 0 0 1
    outer loop
      vertex 8 48.5 -37.0574
      vertex 3.75736 48 -37.0574
      vertex 12.2426 48 -37.0574
    endloop
  endfacet
  facet normal 0 0 1
    outer loop
      vertex 7.27231 48.5765 -37.0574
      vertex 3.75736 48 -37.0574
      vertex 7.63415 48.5192 -37.0574
    endloop
  endfacet
  facet normal 0 0 1
    outer loop
      vertex 6.91844 48.6713 -37.0574
      vertex 3.75736 48 -37.0574
      vertex 7.27231 48.5765 -37.0574
    endloop
  endfacet
  facet normal 0 0 1
    outer loop
      vertex 6.57642 48.8026 -37.0574
      vertex 3.75736 48 -37.0574
      vertex 6.91844 48.6713 -37.0574
    endloop
  endfacet
  facet normal 0 0 1
    outer loop
      vertex 6.25 48.9689 -37.0574
      vertex 3.75736 48 -37.0574
      vertex 6.57642 48.8026 -37.0574
    endloop
  endfacet
  facet normal 0 0 1
    outer loop
      vertex 5.94275 49.1684 -37.0574
      vertex 3.75736 48 -37.0574
      vertex 6.25 48.9689 -37.0574
    endloop
  endfacet
  facet normal 0 0 1
    outer loop
      vertex 5.65804 49.399 -37.0574
      vertex 3.75736 48 -37.0574
      vertex 5.94275 49.1684 -37.0574
    endloop
  endfacet
  facet normal 0 0 1
    outer loop
      vertex 5.39899 49.658 -37.0574
      vertex 3.75736 48 -37.0574
      vertex 5.65804 49.399 -37.0574
    endloop
  endfacet
  facet normal 0 0 1
    outer loop
      vertex 5.16844 49.9428 -37.0574
      vertex 3.75736 48 -37.0574
      vertex 5.39899 49.658 -37.0574
    endloop
  endfacet
  facet normal 0 0 1
    outer loop
      vertex 4.96891 50.25 -37.0574
      vertex 3.75736 48 -37.0574
      vertex 5.16844 49.9428 -37.0574
    endloop
  endfacet
  facet normal 0 0 1
    outer loop
      vertex 4.80259 50.5764 -37.0574
      vertex 3.75736 48 -37.0574
      vertex 4.96891 50.25 -37.0574
    endloop
  endfacet
  facet normal 0 0 1
    outer loop
      vertex 4.6713 50.9184 -37.0574
      vertex 3.75736 48 -37.0574
      vertex 4.80259 50.5764 -37.0574
    endloop
  endfacet
  facet normal 0 0 1
    outer loop
      vertex 4.57648 51.2723 -37.0574
      vertex 3.75736 48 -37.0574
      vertex 4.6713 50.9184 -37.0574
    endloop
  endfacet
  facet normal 0 0 1
    outer loop
      vertex 4.51917 51.6342 -37.0574
      vertex 3.75736 48 -37.0574
      vertex 4.57648 51.2723 -37.0574
    endloop
  endfacet
  facet normal 0 0 1
    outer loop
      vertex 4.5 52 -37.0574
      vertex 3.75736 48 -37.0574
      vertex 4.51917 51.6342 -37.0574
    endloop
  endfacet
  facet normal 1 0 0
    outer loop
      vertex 12.2426 64 -37.0574
      vertex 12.2426 48 -37.0574
      vertex 12.2426 64 -37.5426
    endloop
  endfacet
  facet normal 1 -0 0
    outer loop
      vertex 12.2426 64 -37.5426
      vertex 12.2426 72 -42.0574
      vertex 12.2426 72 -37.5426
    endloop
  endfacet
  facet normal 1 0 0
    outer loop
      vertex 12.2426 48 -42.0574
      vertex 12.2426 64 -37.5426
      vertex 12.2426 48 -37.0574
    endloop
  endfacet
  facet normal 1 0 0
    outer loop
      vertex 12.2426 64 -37.5426
      vertex 12.2426 48 -42.0574
      vertex 12.2426 72 -42.0574
    endloop
  endfacet
  facet normal 0 -1 0
    outer loop
      vertex 3.75736 48 -42.0574
      vertex 12.2426 48 -37.0574
      vertex 3.75736 48 -37.0574
    endloop
  endfacet
  facet normal 0 -1 -0
    outer loop
      vertex 12.2426 48 -37.0574
      vertex 3.75736 48 -42.0574
      vertex 12.2426 48 -42.0574
    endloop
  endfacet
  facet normal -1 0 0
    outer loop
      vertex 3.75736 72 -42.0574
      vertex 3.75736 64 -37.5426
      vertex 3.75736 72 -37.5426
    endloop
  endfacet
  facet normal -1 0 0
    outer loop
      vertex 3.75736 48 -42.0574
      vertex 3.75736 64 -37.5426
      vertex 3.75736 72 -42.0574
    endloop
  endfacet
  facet normal -1 0 0
    outer loop
      vertex 3.75736 48 -37.0574
      vertex 3.75736 64 -37.5426
      vertex 3.75736 48 -42.0574
    endloop
  endfacet
  facet normal -1 0 0
    outer loop
      vertex 3.75736 64 -37.5426
      vertex 3.75736 48 -37.0574
      vertex 3.75736 64 -37.0574
    endloop
  endfacet
  facet normal 0 1 -0
    outer loop
      vertex 12.2426 72 -42.0574
      vertex 3.75736 72 -37.5426
      vertex 12.2426 72 -37.5426
    endloop
  endfacet
  facet normal 0 1 0
    outer loop
      vertex 3.75736 72 -37.5426
      vertex 12.2426 72 -42.0574
      vertex 3.75736 72 -42.0574
    endloop
  endfacet
  facet normal 0 1 0
    outer loop
      vertex 12.2426 72 -29.0574
      vertex 8 72 -31.4
      vertex 3.75736 72 -29.0574
    endloop
  endfacet
  facet normal 0 1 0
    outer loop
      vertex 12.2426 72 -29.0574
      vertex 8.14634 72 -31.4077
      vertex 8 72 -31.4
    endloop
  endfacet
  facet normal 0 1 0
    outer loop
      vertex 12.2426 72 -29.0574
      vertex 8.29108 72 -31.4306
      vertex 8.14634 72 -31.4077
    endloop
  endfacet
  facet normal 0 1 0
    outer loop
      vertex 12.2426 72 -29.0574
      vertex 8.43262 72 -31.4685
      vertex 8.29108 72 -31.4306
    endloop
  endfacet
  facet normal 0 1 0
    outer loop
      vertex 12.2426 72 -29.0574
      vertex 8.56943 72 -31.521
      vertex 8.43262 72 -31.4685
    endloop
  endfacet
  facet normal 0 1 0
    outer loop
      vertex 12.2426 72 -29.0574
      vertex 8.7 72 -31.5876
      vertex 8.56943 72 -31.521
    endloop
  endfacet
  facet normal 0 1 0
    outer loop
      vertex 12.2426 72 -29.0574
      vertex 8.8229 72 -31.6674
      vertex 8.7 72 -31.5876
    endloop
  endfacet
  facet normal 0 1 0
    outer loop
      vertex 12.2426 72 -29.0574
      vertex 8.93678 72 -31.7596
      vertex 8.8229 72 -31.6674
    endloop
  endfacet
  facet normal 0 1 0
    outer loop
      vertex 12.2426 72 -29.0574
      vertex 9.0404 72 -31.8632
      vertex 8.93678 72 -31.7596
    endloop
  endfacet
  facet normal 0 1 0
    outer loop
      vertex 12.2426 72 -29.0574
      vertex 9.13262 72 -31.9771
      vertex 9.0404 72 -31.8632
    endloop
  endfacet
  facet normal 0 1 0
    outer loop
      vertex 12.2426 72 -29.0574
      vertex 9.21244 72 -32.1
      vertex 9.13262 72 -31.9771
    endloop
  endfacet
  facet normal 0 1 0
    outer loop
      vertex 12.2426 72 -29.0574
      vertex 9.27896 72 -32.2306
      vertex 9.21244 72 -32.1
    endloop
  endfacet
  facet normal 0 1 0
    outer loop
      vertex 12.2426 72 -29.0574
      vertex 9.33148 72 -32.3674
      vertex 9.27896 72 -32.2306
    endloop
  endfacet
  facet normal 0 1 0
    outer loop
      vertex 12.2426 72 -29.0574
      vertex 9.36941 72 -32.5089
      vertex 9.33148 72 -32.3674
    endloop
  endfacet
  facet normal 0 1 0
    outer loop
      vertex 12.2426 72 -29.0574
      vertex 9.39233 72 -32.6537
      vertex 9.36941 72 -32.5089
    endloop
  endfacet
  facet normal 0 1 0
    outer loop
      vertex 12.2426 72 -29.0574
      vertex 9.39402 72 -32.6859
      vertex 9.39233 72 -32.6537
    endloop
  endfacet
  facet normal 0 1 0
    outer loop
      vertex 12.2426 72 -29.0574
      vertex 9.4 72 -32.8
      vertex 9.39402 72 -32.6859
    endloop
  endfacet
  facet normal 0 1 0
    outer loop
      vertex 12.2426 72 -29.0574
      vertex 9.39831 72 -32.8322
      vertex 9.4 72 -32.8
    endloop
  endfacet
  facet normal 0 1 0
    outer loop
      vertex 12.2426 72 -29.0574
      vertex 9.39233 72 -32.9463
      vertex 9.39831 72 -32.8322
    endloop
  endfacet
  facet normal 0 1 -0
    outer loop
      vertex 12.2426 72 -37.5426
      vertex 9.39233 72 -32.9463
      vertex 12.2426 72 -29.0574
    endloop
  endfacet
  facet normal 0 1 0
    outer loop
      vertex 9.39233 72 -32.9463
      vertex 12.2426 72 -37.5426
      vertex 9.36941 72 -33.0911
    endloop
  endfacet
  facet normal 0 1 0
    outer loop
      vertex 9.36941 72 -33.0911
      vertex 12.2426 72 -37.5426
      vertex 9.33148 72 -33.2326
    endloop
  endfacet
  facet normal 0 1 0
    outer loop
      vertex 9.33148 72 -33.2326
      vertex 12.2426 72 -37.5426
      vertex 9.27896 72 -33.3694
    endloop
  endfacet
  facet normal 0 1 0
    outer loop
      vertex 8.29108 72 -34.1694
      vertex 12.2426 72 -37.5426
      vertex 8.14634 72 -34.1923
    endloop
  endfacet
  facet normal 0 1 0
    outer loop
      vertex 8.43262 72 -34.1315
      vertex 12.2426 72 -37.5426
      vertex 8.29108 72 -34.1694
    endloop
  endfacet
  facet normal 0 1 0
    outer loop
      vertex 8.56943 72 -34.079
      vertex 12.2426 72 -37.5426
      vertex 8.43262 72 -34.1315
    endloop
  endfacet
  facet normal 0 1 0
    outer loop
      vertex 8.7 72 -34.0124
      vertex 12.2426 72 -37.5426
      vertex 8.56943 72 -34.079
    endloop
  endfacet
  facet normal 0 1 0
    outer loop
      vertex 8.8229 72 -33.9326
      vertex 12.2426 72 -37.5426
      vertex 8.7 72 -34.0124
    endloop
  endfacet
  facet normal 0 1 0
    outer loop
      vertex 8.93678 72 -33.8404
      vertex 12.2426 72 -37.5426
      vertex 8.8229 72 -33.9326
    endloop
  endfacet
  facet normal 0 1 0
    outer loop
      vertex 9.0404 72 -33.7368
      vertex 12.2426 72 -37.5426
      vertex 8.93678 72 -33.8404
    endloop
  endfacet
  facet normal 0 1 0
    outer loop
      vertex 9.13262 72 -33.6229
      vertex 12.2426 72 -37.5426
      vertex 9.0404 72 -33.7368
    endloop
  endfacet
  facet normal 0 1 0
    outer loop
      vertex 9.21244 72 -33.5
      vertex 12.2426 72 -37.5426
      vertex 9.13262 72 -33.6229
    endloop
  endfacet
  facet normal 0 1 0
    outer loop
      vertex 9.27896 72 -33.3694
      vertex 12.2426 72 -37.5426
      vertex 9.21244 72 -33.5
    endloop
  endfacet
  facet normal 0 1 -0
    outer loop
      vertex 7.85366 72 -31.4077
      vertex 3.75736 72 -29.0574
      vertex 8 72 -31.4
    endloop
  endfacet
  facet normal 0 1 -0
    outer loop
      vertex 7.70892 72 -31.4306
      vertex 3.75736 72 -29.0574
      vertex 7.85366 72 -31.4077
    endloop
  endfacet
  facet normal 0 1 -0
    outer loop
      vertex 7.56738 72 -31.4685
      vertex 3.75736 72 -29.0574
      vertex 7.70892 72 -31.4306
    endloop
  endfacet
  facet normal 0 1 -0
    outer loop
      vertex 7.43057 72 -31.521
      vertex 3.75736 72 -29.0574
      vertex 7.56738 72 -31.4685
    endloop
  endfacet
  facet normal 0 1 -0
    outer loop
      vertex 7.3 72 -31.5876
      vertex 3.75736 72 -29.0574
      vertex 7.43057 72 -31.521
    endloop
  endfacet
  facet normal 0 1 -0
    outer loop
      vertex 7.1771 72 -31.6674
      vertex 3.75736 72 -29.0574
      vertex 7.3 72 -31.5876
    endloop
  endfacet
  facet normal 0 1 -0
    outer loop
      vertex 7.06322 72 -31.7596
      vertex 3.75736 72 -29.0574
      vertex 7.1771 72 -31.6674
    endloop
  endfacet
  facet normal 0 1 -0
    outer loop
      vertex 6.9596 72 -31.8632
      vertex 3.75736 72 -29.0574
      vertex 7.06322 72 -31.7596
    endloop
  endfacet
  facet normal 0 1 -0
    outer loop
      vertex 6.86738 72 -31.9771
      vertex 3.75736 72 -29.0574
      vertex 6.9596 72 -31.8632
    endloop
  endfacet
  facet normal 0 1 -0
    outer loop
      vertex 6.78757 72 -32.1
      vertex 3.75736 72 -29.0574
      vertex 6.86738 72 -31.9771
    endloop
  endfacet
  facet normal 0 1 -0
    outer loop
      vertex 6.72104 72 -32.2306
      vertex 3.75736 72 -29.0574
      vertex 6.78757 72 -32.1
    endloop
  endfacet
  facet normal 0 1 -0
    outer loop
      vertex 6.66852 72 -32.3674
      vertex 3.75736 72 -29.0574
      vertex 6.72104 72 -32.2306
    endloop
  endfacet
  facet normal 0 1 -0
    outer loop
      vertex 6.63059 72 -32.5089
      vertex 3.75736 72 -29.0574
      vertex 6.66852 72 -32.3674
    endloop
  endfacet
  facet normal 0 1 -0
    outer loop
      vertex 6.60767 72 -32.6537
      vertex 3.75736 72 -29.0574
      vertex 6.63059 72 -32.5089
    endloop
  endfacet
  facet normal 0 1 -0
    outer loop
      vertex 6.60598 72 -32.6859
      vertex 3.75736 72 -29.0574
      vertex 6.60767 72 -32.6537
    endloop
  endfacet
  facet normal 0 1 -0
    outer loop
      vertex 6.6 72 -32.8
      vertex 3.75736 72 -29.0574
      vertex 6.60598 72 -32.6859
    endloop
  endfacet
  facet normal 0 1 0
    outer loop
      vertex 6.60169 72 -32.8322
      vertex 3.75736 72 -29.0574
      vertex 6.6 72 -32.8
    endloop
  endfacet
  facet normal 0 1 0
    outer loop
      vertex 6.60767 72 -32.9463
      vertex 3.75736 72 -29.0574
      vertex 6.60169 72 -32.8322
    endloop
  endfacet
  facet normal 0 1 0
    outer loop
      vertex 3.75736 72 -37.5426
      vertex 6.60767 72 -32.9463
      vertex 6.63059 72 -33.0911
    endloop
  endfacet
  facet normal 0 1 0
    outer loop
      vertex 3.75736 72 -37.5426
      vertex 6.63059 72 -33.0911
      vertex 6.66852 72 -33.2326
    endloop
  endfacet
  facet normal 0 1 0
    outer loop
      vertex 3.75736 72 -37.5426
      vertex 6.66852 72 -33.2326
      vertex 6.72104 72 -33.3694
    endloop
  endfacet
  facet normal 0 1 0
    outer loop
      vertex 3.75736 72 -37.5426
      vertex 6.72104 72 -33.3694
      vertex 6.78757 72 -33.5
    endloop
  endfacet
  facet normal 0 1 0
    outer loop
      vertex 3.75736 72 -37.5426
      vertex 6.78757 72 -33.5
      vertex 6.86738 72 -33.6229
    endloop
  endfacet
  facet normal 0 1 0
    outer loop
      vertex 8.14634 72 -34.1923
      vertex 12.2426 72 -37.5426
      vertex 8 72 -34.2
    endloop
  endfacet
  facet normal 0 1 0
    outer loop
      vertex 3.75736 72 -37.5426
      vertex 8 72 -34.2
      vertex 12.2426 72 -37.5426
    endloop
  endfacet
  facet normal 0 1 0
    outer loop
      vertex 8 72 -34.2
      vertex 3.75736 72 -37.5426
      vertex 7.85366 72 -34.1923
    endloop
  endfacet
  facet normal 0 1 0
    outer loop
      vertex 7.85366 72 -34.1923
      vertex 3.75736 72 -37.5426
      vertex 7.70892 72 -34.1694
    endloop
  endfacet
  facet normal 0 1 0
    outer loop
      vertex 7.70892 72 -34.1694
      vertex 3.75736 72 -37.5426
      vertex 7.56738 72 -34.1315
    endloop
  endfacet
  facet normal 0 1 0
    outer loop
      vertex 7.56738 72 -34.1315
      vertex 3.75736 72 -37.5426
      vertex 7.43057 72 -34.079
    endloop
  endfacet
  facet normal 0 1 0
    outer loop
      vertex 7.43057 72 -34.079
      vertex 3.75736 72 -37.5426
      vertex 7.3 72 -34.0124
    endloop
  endfacet
  facet normal 0 1 0
    outer loop
      vertex 7.3 72 -34.0124
      vertex 3.75736 72 -37.5426
      vertex 7.1771 72 -33.9326
    endloop
  endfacet
  facet normal 0 1 0
    outer loop
      vertex 3.75736 72 -37.5426
      vertex 7.06322 72 -33.8404
      vertex 7.1771 72 -33.9326
    endloop
  endfacet
  facet normal 0 1 0
    outer loop
      vertex 3.75736 72 -37.5426
      vertex 6.9596 72 -33.7368
      vertex 7.06322 72 -33.8404
    endloop
  endfacet
  facet normal 0 1 0
    outer loop
      vertex 3.75736 72 -37.5426
      vertex 6.86738 72 -33.6229
      vertex 6.9596 72 -33.7368
    endloop
  endfacet
  facet normal 0 1 0
    outer loop
      vertex 6.60767 72 -32.9463
      vertex 3.75736 72 -37.5426
      vertex 3.75736 72 -29.0574
    endloop
  endfacet
  facet normal 0 0 -1
    outer loop
      vertex 3.75736 48 -42.0574
      vertex 12.2426 72 -42.0574
      vertex 12.2426 48 -42.0574
    endloop
  endfacet
  facet normal -0 0 -1
    outer loop
      vertex 12.2426 72 -42.0574
      vertex 3.75736 48 -42.0574
      vertex 3.75736 72 -42.0574
    endloop
  endfacet
  facet normal 0.0523341 0.99863 -0
    outer loop
      vertex 8.36585 55.4808 -37.0574
      vertex 8 55.5 -29.3
      vertex 8.36585 55.4808 -29.3
    endloop
  endfacet
  facet normal 0.0523341 0.99863 0
    outer loop
      vertex 8 55.5 -29.3
      vertex 8.36585 55.4808 -37.0574
      vertex 8 55.5 -37.0574
    endloop
  endfacet
  facet normal 0.0523341 -0.99863 0
    outer loop
      vertex 8 48.5 -37.0574
      vertex 8.36585 48.5192 -29.3
      vertex 8 48.5 -29.3
    endloop
  endfacet
  facet normal 0.0523341 -0.99863 0
    outer loop
      vertex 8.36585 48.5192 -29.3
      vertex 8 48.5 -37.0574
      vertex 8.36585 48.5192 -37.0574
    endloop
  endfacet
  facet normal -0.99863 0.0523342 0
    outer loop
      vertex 4.5 52 -37.0574
      vertex 4.51917 52.3658 -29.3
      vertex 4.51917 52.3658 -37.0574
    endloop
  endfacet
  facet normal -0.99863 0.0523342 0
    outer loop
      vertex 4.51917 52.3658 -29.3
      vertex 4.5 52 -37.0574
      vertex 4.5 52 -29.3
    endloop
  endfacet
  facet normal 0.777147 -0.629319 0
    outer loop
      vertex 10.601 49.658 -29.3
      vertex 10.8316 49.9428 -37.0574
      vertex 10.8316 49.9428 -29.3
    endloop
  endfacet
  facet normal 0.777147 -0.629319 0
    outer loop
      vertex 10.8316 49.9428 -37.0574
      vertex 10.601 49.658 -29.3
      vertex 10.601 49.658 -37.0574
    endloop
  endfacet
  facet normal 0.965925 -0.258821 0
    outer loop
      vertex 11.3287 50.9184 -29.3
      vertex 11.4235 51.2723 -37.0574
      vertex 11.4235 51.2723 -29.3
    endloop
  endfacet
  facet normal 0.965925 -0.258821 0
    outer loop
      vertex 11.4235 51.2723 -37.0574
      vertex 11.3287 50.9184 -29.3
      vertex 11.3287 50.9184 -37.0574
    endloop
  endfacet
  facet normal 0.93358 0.358368 0
    outer loop
      vertex 11.3287 53.0816 -29.3
      vertex 11.1974 53.4236 -37.0574
      vertex 11.1974 53.4236 -29.3
    endloop
  endfacet
  facet normal 0.93358 0.358368 0
    outer loop
      vertex 11.1974 53.4236 -37.0574
      vertex 11.3287 53.0816 -29.3
      vertex 11.3287 53.0816 -37.0574
    endloop
  endfacet
  facet normal 0.965925 0.258821 0
    outer loop
      vertex 11.4235 52.7277 -29.3
      vertex 11.3287 53.0816 -37.0574
      vertex 11.3287 53.0816 -29.3
    endloop
  endfacet
  facet normal 0.965925 0.258821 0
    outer loop
      vertex 11.3287 53.0816 -37.0574
      vertex 11.4235 52.7277 -29.3
      vertex 11.4235 52.7277 -37.0574
    endloop
  endfacet
  facet normal 0.453992 -0.891006 0
    outer loop
      vertex 9.42358 48.8026 -37.0574
      vertex 9.75 48.9689 -29.3
      vertex 9.42358 48.8026 -29.3
    endloop
  endfacet
  facet normal 0.453992 -0.891006 0
    outer loop
      vertex 9.75 48.9689 -29.3
      vertex 9.42358 48.8026 -37.0574
      vertex 9.75 48.9689 -37.0574
    endloop
  endfacet
  facet normal 0.987688 -0.156434 0
    outer loop
      vertex 11.4235 51.2723 -29.3
      vertex 11.4808 51.6342 -37.0574
      vertex 11.4808 51.6342 -29.3
    endloop
  endfacet
  facet normal 0.987688 -0.156434 0
    outer loop
      vertex 11.4808 51.6342 -37.0574
      vertex 11.4235 51.2723 -29.3
      vertex 11.4235 51.2723 -37.0574
    endloop
  endfacet
  facet normal -0.156439 0.987688 0
    outer loop
      vertex 7.63415 55.4808 -37.0574
      vertex 7.27231 55.4235 -29.3
      vertex 7.63415 55.4808 -29.3
    endloop
  endfacet
  facet normal -0.156439 0.987688 0
    outer loop
      vertex 7.27231 55.4235 -29.3
      vertex 7.63415 55.4808 -37.0574
      vertex 7.27231 55.4235 -37.0574
    endloop
  endfacet
  facet normal -0.987688 0.156434 0
    outer loop
      vertex 4.51917 52.3658 -37.0574
      vertex 4.57648 52.7277 -29.3
      vertex 4.57648 52.7277 -37.0574
    endloop
  endfacet
  facet normal -0.987688 0.156434 0
    outer loop
      vertex 4.57648 52.7277 -29.3
      vertex 4.51917 52.3658 -37.0574
      vertex 4.51917 52.3658 -29.3
    endloop
  endfacet
  facet normal 0.15644 0.987687 -0
    outer loop
      vertex 8.72769 55.4235 -37.0574
      vertex 8.36585 55.4808 -29.3
      vertex 8.72769 55.4235 -29.3
    endloop
  endfacet
  facet normal 0.15644 0.987687 0
    outer loop
      vertex 8.36585 55.4808 -29.3
      vertex 8.72769 55.4235 -37.0574
      vertex 8.36585 55.4808 -37.0574
    endloop
  endfacet
  facet normal 0.358363 0.933582 -0
    outer loop
      vertex 9.42358 55.1974 -37.0574
      vertex 9.08156 55.3287 -29.3
      vertex 9.42358 55.1974 -29.3
    endloop
  endfacet
  facet normal 0.358363 0.933582 0
    outer loop
      vertex 9.08156 55.3287 -29.3
      vertex 9.42358 55.1974 -37.0574
      vertex 9.08156 55.3287 -37.0574
    endloop
  endfacet
  facet normal 0.707105 0.707108 -0
    outer loop
      vertex 10.601 54.342 -37.0574
      vertex 10.342 54.601 -29.3
      vertex 10.601 54.342 -29.3
    endloop
  endfacet
  facet normal 0.707105 0.707108 0
    outer loop
      vertex 10.342 54.601 -29.3
      vertex 10.601 54.342 -37.0574
      vertex 10.342 54.601 -37.0574
    endloop
  endfacet
  facet normal 0.544643 0.838668 -0
    outer loop
      vertex 10.0572 54.8316 -37.0574
      vertex 9.75 55.0311 -29.3
      vertex 10.0572 54.8316 -29.3
    endloop
  endfacet
  facet normal 0.544643 0.838668 0
    outer loop
      vertex 9.75 55.0311 -29.3
      vertex 10.0572 54.8316 -37.0574
      vertex 9.75 55.0311 -37.0574
    endloop
  endfacet
  facet normal 0.987688 0.156434 0
    outer loop
      vertex 11.4808 52.3658 -29.3
      vertex 11.4235 52.7277 -37.0574
      vertex 11.4235 52.7277 -29.3
    endloop
  endfacet
  facet normal 0.987688 0.156434 0
    outer loop
      vertex 11.4235 52.7277 -37.0574
      vertex 11.4808 52.3658 -29.3
      vertex 11.4808 52.3658 -37.0574
    endloop
  endfacet
  facet normal 0.891008 0.453988 0
    outer loop
      vertex 11.1974 53.4236 -29.3
      vertex 11.0311 53.75 -37.0574
      vertex 11.0311 53.75 -29.3
    endloop
  endfacet
  facet normal 0.891008 0.453988 0
    outer loop
      vertex 11.0311 53.75 -37.0574
      vertex 11.1974 53.4236 -29.3
      vertex 11.1974 53.4236 -37.0574
    endloop
  endfacet
  facet normal 0.777147 0.629319 0
    outer loop
      vertex 10.8316 54.0572 -29.3
      vertex 10.601 54.342 -37.0574
      vertex 10.601 54.342 -29.3
    endloop
  endfacet
  facet normal 0.777147 0.629319 0
    outer loop
      vertex 10.601 54.342 -37.0574
      vertex 10.8316 54.0572 -29.3
      vertex 10.8316 54.0572 -37.0574
    endloop
  endfacet
  facet normal 0.258817 -0.965926 0
    outer loop
      vertex 8.72769 48.5765 -37.0574
      vertex 9.08156 48.6713 -29.3
      vertex 8.72769 48.5765 -29.3
    endloop
  endfacet
  facet normal 0.258817 -0.965926 0
    outer loop
      vertex 9.08156 48.6713 -29.3
      vertex 8.72769 48.5765 -37.0574
      vertex 9.08156 48.6713 -37.0574
    endloop
  endfacet
  facet normal 0.62932 -0.777146 0
    outer loop
      vertex 10.0572 49.1684 -37.0574
      vertex 10.342 49.399 -29.3
      vertex 10.0572 49.1684 -29.3
    endloop
  endfacet
  facet normal 0.62932 -0.777146 0
    outer loop
      vertex 10.342 49.399 -29.3
      vertex 10.0572 49.1684 -37.0574
      vertex 10.342 49.399 -37.0574
    endloop
  endfacet
  facet normal 0.707105 -0.707108 0
    outer loop
      vertex 10.342 49.399 -37.0574
      vertex 10.601 49.658 -29.3
      vertex 10.342 49.399 -29.3
    endloop
  endfacet
  facet normal 0.707105 -0.707108 0
    outer loop
      vertex 10.601 49.658 -29.3
      vertex 10.342 49.399 -37.0574
      vertex 10.601 49.658 -37.0574
    endloop
  endfacet
  facet normal 0.544643 -0.838668 0
    outer loop
      vertex 9.75 48.9689 -37.0574
      vertex 10.0572 49.1684 -29.3
      vertex 9.75 48.9689 -29.3
    endloop
  endfacet
  facet normal 0.544643 -0.838668 0
    outer loop
      vertex 10.0572 49.1684 -29.3
      vertex 9.75 48.9689 -37.0574
      vertex 10.0572 49.1684 -37.0574
    endloop
  endfacet
  facet normal 0.358363 -0.933582 0
    outer loop
      vertex 9.08156 48.6713 -37.0574
      vertex 9.42358 48.8026 -29.3
      vertex 9.08156 48.6713 -29.3
    endloop
  endfacet
  facet normal 0.358363 -0.933582 0
    outer loop
      vertex 9.42358 48.8026 -29.3
      vertex 9.08156 48.6713 -37.0574
      vertex 9.42358 48.8026 -37.0574
    endloop
  endfacet
  facet normal 0.15644 -0.987687 0
    outer loop
      vertex 8.36585 48.5192 -37.0574
      vertex 8.72769 48.5765 -29.3
      vertex 8.36585 48.5192 -29.3
    endloop
  endfacet
  facet normal 0.15644 -0.987687 0
    outer loop
      vertex 8.72769 48.5765 -29.3
      vertex 8.36585 48.5192 -37.0574
      vertex 8.72769 48.5765 -37.0574
    endloop
  endfacet
  facet normal 0.891008 -0.453988 0
    outer loop
      vertex 11.0311 50.25 -29.3
      vertex 11.1974 50.5764 -37.0574
      vertex 11.1974 50.5764 -29.3
    endloop
  endfacet
  facet normal 0.891008 -0.453988 0
    outer loop
      vertex 11.1974 50.5764 -37.0574
      vertex 11.0311 50.25 -29.3
      vertex 11.0311 50.25 -37.0574
    endloop
  endfacet
  facet normal 0.93358 -0.358368 0
    outer loop
      vertex 11.1974 50.5764 -29.3
      vertex 11.3287 50.9184 -37.0574
      vertex 11.3287 50.9184 -29.3
    endloop
  endfacet
  facet normal 0.93358 -0.358368 0
    outer loop
      vertex 11.3287 50.9184 -37.0574
      vertex 11.1974 50.5764 -29.3
      vertex 11.1974 50.5764 -37.0574
    endloop
  endfacet
  facet normal 0.838669 -0.544641 0
    outer loop
      vertex 10.8316 49.9428 -29.3
      vertex 11.0311 50.25 -37.0574
      vertex 11.0311 50.25 -29.3
    endloop
  endfacet
  facet normal 0.838669 -0.544641 0
    outer loop
      vertex 11.0311 50.25 -37.0574
      vertex 10.8316 49.9428 -29.3
      vertex 10.8316 49.9428 -37.0574
    endloop
  endfacet
  facet normal 0.998629 -0.0523368 0
    outer loop
      vertex 11.4808 51.6342 -29.3
      vertex 11.5 52 -37.0574
      vertex 11.5 52 -29.3
    endloop
  endfacet
  facet normal 0.998629 -0.0523368 0
    outer loop
      vertex 11.5 52 -37.0574
      vertex 11.4808 51.6342 -29.3
      vertex 11.4808 51.6342 -37.0574
    endloop
  endfacet
  facet normal -0.0523341 0.99863 0
    outer loop
      vertex 8 55.5 -37.0574
      vertex 7.63415 55.4808 -29.3
      vertex 8 55.5 -29.3
    endloop
  endfacet
  facet normal -0.0523341 0.99863 0
    outer loop
      vertex 7.63415 55.4808 -29.3
      vertex 8 55.5 -37.0574
      vertex 7.63415 55.4808 -37.0574
    endloop
  endfacet
  facet normal -0.629321 0.777145 0
    outer loop
      vertex 5.94275 54.8316 -37.0574
      vertex 5.65804 54.601 -29.3
      vertex 5.94275 54.8316 -29.3
    endloop
  endfacet
  facet normal -0.629321 0.777145 0
    outer loop
      vertex 5.65804 54.601 -29.3
      vertex 5.94275 54.8316 -37.0574
      vertex 5.65804 54.601 -37.0574
    endloop
  endfacet
  facet normal -0.453992 -0.891006 0
    outer loop
      vertex 6.25 48.9689 -37.0574
      vertex 6.57642 48.8026 -29.3
      vertex 6.25 48.9689 -29.3
    endloop
  endfacet
  facet normal -0.453992 -0.891006 -0
    outer loop
      vertex 6.57642 48.8026 -29.3
      vertex 6.25 48.9689 -37.0574
      vertex 6.57642 48.8026 -37.0574
    endloop
  endfacet
  facet normal 0.258817 0.965926 -0
    outer loop
      vertex 9.08156 55.3287 -37.0574
      vertex 8.72769 55.4235 -29.3
      vertex 9.08156 55.3287 -29.3
    endloop
  endfacet
  facet normal 0.258817 0.965926 0
    outer loop
      vertex 8.72769 55.4235 -29.3
      vertex 9.08156 55.3287 -37.0574
      vertex 8.72769 55.4235 -37.0574
    endloop
  endfacet
  facet normal 0.453992 0.891006 -0
    outer loop
      vertex 9.75 55.0311 -37.0574
      vertex 9.42358 55.1974 -29.3
      vertex 9.75 55.0311 -29.3
    endloop
  endfacet
  facet normal 0.453992 0.891006 0
    outer loop
      vertex 9.42358 55.1974 -29.3
      vertex 9.75 55.0311 -37.0574
      vertex 9.42358 55.1974 -37.0574
    endloop
  endfacet
  facet normal 0.62932 0.777146 -0
    outer loop
      vertex 10.342 54.601 -37.0574
      vertex 10.0572 54.8316 -29.3
      vertex 10.342 54.601 -29.3
    endloop
  endfacet
  facet normal 0.62932 0.777146 0
    outer loop
      vertex 10.0572 54.8316 -29.3
      vertex 10.342 54.601 -37.0574
      vertex 10.0572 54.8316 -37.0574
    endloop
  endfacet
  facet normal 0.998629 0.0523368 0
    outer loop
      vertex 11.5 52 -29.3
      vertex 11.4808 52.3658 -37.0574
      vertex 11.4808 52.3658 -29.3
    endloop
  endfacet
  facet normal 0.998629 0.0523368 0
    outer loop
      vertex 11.4808 52.3658 -37.0574
      vertex 11.5 52 -29.3
      vertex 11.5 52 -37.0574
    endloop
  endfacet
  facet normal 0.838669 0.544641 0
    outer loop
      vertex 11.0311 53.75 -29.3
      vertex 10.8316 54.0572 -37.0574
      vertex 10.8316 54.0572 -29.3
    endloop
  endfacet
  facet normal 0.838669 0.544641 0
    outer loop
      vertex 10.8316 54.0572 -37.0574
      vertex 11.0311 53.75 -29.3
      vertex 11.0311 53.75 -37.0574
    endloop
  endfacet
  facet normal -0.838671 0.544639 0
    outer loop
      vertex 4.96891 53.75 -37.0574
      vertex 5.16844 54.0572 -29.3
      vertex 5.16844 54.0572 -37.0574
    endloop
  endfacet
  facet normal -0.838671 0.544639 0
    outer loop
      vertex 5.16844 54.0572 -29.3
      vertex 4.96891 53.75 -37.0574
      vertex 4.96891 53.75 -29.3
    endloop
  endfacet
  facet normal -0.707104 0.707109 0
    outer loop
      vertex 5.65804 54.601 -37.0574
      vertex 5.39899 54.342 -29.3
      vertex 5.65804 54.601 -29.3
    endloop
  endfacet
  facet normal -0.707104 0.707109 0
    outer loop
      vertex 5.39899 54.342 -29.3
      vertex 5.65804 54.601 -37.0574
      vertex 5.39899 54.342 -37.0574
    endloop
  endfacet
  facet normal -0.358364 0.933582 0
    outer loop
      vertex 6.91844 55.3287 -37.0574
      vertex 6.57642 55.1974 -29.3
      vertex 6.91844 55.3287 -29.3
    endloop
  endfacet
  facet normal -0.358364 0.933582 0
    outer loop
      vertex 6.57642 55.1974 -29.3
      vertex 6.91844 55.3287 -37.0574
      vertex 6.57642 55.1974 -37.0574
    endloop
  endfacet
  facet normal -0.544642 0.838668 0
    outer loop
      vertex 6.25 55.0311 -37.0574
      vertex 5.94275 54.8316 -29.3
      vertex 6.25 55.0311 -29.3
    endloop
  endfacet
  facet normal -0.544642 0.838668 0
    outer loop
      vertex 5.94275 54.8316 -29.3
      vertex 6.25 55.0311 -37.0574
      vertex 5.94275 54.8316 -37.0574
    endloop
  endfacet
  facet normal -0.544642 -0.838668 0
    outer loop
      vertex 5.94275 49.1684 -37.0574
      vertex 6.25 48.9689 -29.3
      vertex 5.94275 49.1684 -29.3
    endloop
  endfacet
  facet normal -0.544642 -0.838668 -0
    outer loop
      vertex 6.25 48.9689 -29.3
      vertex 5.94275 49.1684 -37.0574
      vertex 6.25 48.9689 -37.0574
    endloop
  endfacet
  facet normal -0.891007 0.45399 0
    outer loop
      vertex 4.80259 53.4236 -37.0574
      vertex 4.96891 53.75 -29.3
      vertex 4.96891 53.75 -37.0574
    endloop
  endfacet
  facet normal -0.891007 0.45399 0
    outer loop
      vertex 4.96891 53.75 -29.3
      vertex 4.80259 53.4236 -37.0574
      vertex 4.80259 53.4236 -29.3
    endloop
  endfacet
  facet normal -0.777147 0.629319 0
    outer loop
      vertex 5.16844 54.0572 -37.0574
      vertex 5.39899 54.342 -29.3
      vertex 5.39899 54.342 -37.0574
    endloop
  endfacet
  facet normal -0.777147 0.629319 0
    outer loop
      vertex 5.39899 54.342 -29.3
      vertex 5.16844 54.0572 -37.0574
      vertex 5.16844 54.0572 -29.3
    endloop
  endfacet
  facet normal -0.258817 0.965926 0
    outer loop
      vertex 7.27231 55.4235 -37.0574
      vertex 6.91844 55.3287 -29.3
      vertex 7.27231 55.4235 -29.3
    endloop
  endfacet
  facet normal -0.258817 0.965926 0
    outer loop
      vertex 6.91844 55.3287 -29.3
      vertex 7.27231 55.4235 -37.0574
      vertex 6.91844 55.3287 -37.0574
    endloop
  endfacet
  facet normal -0.453992 0.891006 0
    outer loop
      vertex 6.57642 55.1974 -37.0574
      vertex 6.25 55.0311 -29.3
      vertex 6.57642 55.1974 -29.3
    endloop
  endfacet
  facet normal -0.453992 0.891006 0
    outer loop
      vertex 6.25 55.0311 -29.3
      vertex 6.57642 55.1974 -37.0574
      vertex 6.25 55.0311 -37.0574
    endloop
  endfacet
  facet normal -0.99863 -0.0523342 0
    outer loop
      vertex 4.51917 51.6342 -37.0574
      vertex 4.5 52 -29.3
      vertex 4.5 52 -37.0574
    endloop
  endfacet
  facet normal -0.99863 -0.0523342 0
    outer loop
      vertex 4.5 52 -29.3
      vertex 4.51917 51.6342 -37.0574
      vertex 4.51917 51.6342 -29.3
    endloop
  endfacet
  facet normal 0 0 1
    outer loop
      vertex 11.4808 52.3658 -29.3
      vertex 11.4808 51.6342 -29.3
      vertex 11.5 52 -29.3
    endloop
  endfacet
  facet normal 0 0 1
    outer loop
      vertex 11.4235 52.7277 -29.3
      vertex 11.4808 51.6342 -29.3
      vertex 11.4808 52.3658 -29.3
    endloop
  endfacet
  facet normal 0 0 1
    outer loop
      vertex 11.4235 52.7277 -29.3
      vertex 11.4235 51.2723 -29.3
      vertex 11.4808 51.6342 -29.3
    endloop
  endfacet
  facet normal 0 0 1
    outer loop
      vertex 11.3287 53.0816 -29.3
      vertex 11.4235 51.2723 -29.3
      vertex 11.4235 52.7277 -29.3
    endloop
  endfacet
  facet normal 0 0 1
    outer loop
      vertex 11.3287 53.0816 -29.3
      vertex 11.3287 50.9184 -29.3
      vertex 11.4235 51.2723 -29.3
    endloop
  endfacet
  facet normal 0 0 1
    outer loop
      vertex 11.1974 53.4236 -29.3
      vertex 11.3287 50.9184 -29.3
      vertex 11.3287 53.0816 -29.3
    endloop
  endfacet
  facet normal 0 0 1
    outer loop
      vertex 11.1974 53.4236 -29.3
      vertex 11.1974 50.5764 -29.3
      vertex 11.3287 50.9184 -29.3
    endloop
  endfacet
  facet normal 0 0 1
    outer loop
      vertex 11.0311 53.75 -29.3
      vertex 11.1974 50.5764 -29.3
      vertex 11.1974 53.4236 -29.3
    endloop
  endfacet
  facet normal 0 0 1
    outer loop
      vertex 11.0311 53.75 -29.3
      vertex 11.0311 50.25 -29.3
      vertex 11.1974 50.5764 -29.3
    endloop
  endfacet
  facet normal 0 0 1
    outer loop
      vertex 10.8316 54.0572 -29.3
      vertex 11.0311 50.25 -29.3
      vertex 11.0311 53.75 -29.3
    endloop
  endfacet
  facet normal 0 0 1
    outer loop
      vertex 10.8316 54.0572 -29.3
      vertex 10.8316 49.9428 -29.3
      vertex 11.0311 50.25 -29.3
    endloop
  endfacet
  facet normal 0 0 1
    outer loop
      vertex 10.601 54.342 -29.3
      vertex 10.8316 49.9428 -29.3
      vertex 10.8316 54.0572 -29.3
    endloop
  endfacet
  facet normal 0 0 1
    outer loop
      vertex 10.601 54.342 -29.3
      vertex 10.601 49.658 -29.3
      vertex 10.8316 49.9428 -29.3
    endloop
  endfacet
  facet normal 0 0 1
    outer loop
      vertex 10.342 54.601 -29.3
      vertex 10.601 49.658 -29.3
      vertex 10.601 54.342 -29.3
    endloop
  endfacet
  facet normal 0 0 1
    outer loop
      vertex 10.342 54.601 -29.3
      vertex 10.342 49.399 -29.3
      vertex 10.601 49.658 -29.3
    endloop
  endfacet
  facet normal 0 0 1
    outer loop
      vertex 10.0572 54.8316 -29.3
      vertex 10.342 49.399 -29.3
      vertex 10.342 54.601 -29.3
    endloop
  endfacet
  facet normal 0 0 1
    outer loop
      vertex 10.0572 54.8316 -29.3
      vertex 10.0572 49.1684 -29.3
      vertex 10.342 49.399 -29.3
    endloop
  endfacet
  facet normal 0 0 1
    outer loop
      vertex 9.75 55.0311 -29.3
      vertex 10.0572 49.1684 -29.3
      vertex 10.0572 54.8316 -29.3
    endloop
  endfacet
  facet normal 0 0 1
    outer loop
      vertex 9.75 55.0311 -29.3
      vertex 9.75 48.9689 -29.3
      vertex 10.0572 49.1684 -29.3
    endloop
  endfacet
  facet normal 0 0 1
    outer loop
      vertex 9.42358 55.1974 -29.3
      vertex 9.75 48.9689 -29.3
      vertex 9.75 55.0311 -29.3
    endloop
  endfacet
  facet normal 0 0 1
    outer loop
      vertex 9.42358 55.1974 -29.3
      vertex 9.42358 48.8026 -29.3
      vertex 9.75 48.9689 -29.3
    endloop
  endfacet
  facet normal 0 0 1
    outer loop
      vertex 9.08156 55.3287 -29.3
      vertex 9.42358 48.8026 -29.3
      vertex 9.42358 55.1974 -29.3
    endloop
  endfacet
  facet normal 0 0 1
    outer loop
      vertex 9.08156 55.3287 -29.3
      vertex 9.08156 48.6713 -29.3
      vertex 9.42358 48.8026 -29.3
    endloop
  endfacet
  facet normal 0 0 1
    outer loop
      vertex 8.72769 55.4235 -29.3
      vertex 9.08156 48.6713 -29.3
      vertex 9.08156 55.3287 -29.3
    endloop
  endfacet
  facet normal 0 0 1
    outer loop
      vertex 8.72769 55.4235 -29.3
      vertex 8.72769 48.5765 -29.3
      vertex 9.08156 48.6713 -29.3
    endloop
  endfacet
  facet normal 0 0 1
    outer loop
      vertex 8.36585 55.4808 -29.3
      vertex 8.72769 48.5765 -29.3
      vertex 8.72769 55.4235 -29.3
    endloop
  endfacet
  facet normal 0 0 1
    outer loop
      vertex 8.36585 55.4808 -29.3
      vertex 8.36585 48.5192 -29.3
      vertex 8.72769 48.5765 -29.3
    endloop
  endfacet
  facet normal 0 0 1
    outer loop
      vertex 8 55.5 -29.3
      vertex 8.36585 48.5192 -29.3
      vertex 8.36585 55.4808 -29.3
    endloop
  endfacet
  facet normal 0 0 1
    outer loop
      vertex 8 55.5 -29.3
      vertex 8 48.5 -29.3
      vertex 8.36585 48.5192 -29.3
    endloop
  endfacet
  facet normal -0 0 1
    outer loop
      vertex 7.63415 55.4808 -29.3
      vertex 8 48.5 -29.3
      vertex 8 55.5 -29.3
    endloop
  endfacet
  facet normal 0 0 1
    outer loop
      vertex 7.63415 55.4808 -29.3
      vertex 7.63415 48.5192 -29.3
      vertex 8 48.5 -29.3
    endloop
  endfacet
  facet normal -0 0 1
    outer loop
      vertex 7.27231 55.4235 -29.3
      vertex 7.63415 48.5192 -29.3
      vertex 7.63415 55.4808 -29.3
    endloop
  endfacet
  facet normal 0 0 1
    outer loop
      vertex 7.27231 55.4235 -29.3
      vertex 7.27231 48.5765 -29.3
      vertex 7.63415 48.5192 -29.3
    endloop
  endfacet
  facet normal -0 0 1
    outer loop
      vertex 6.91844 55.3287 -29.3
      vertex 7.27231 48.5765 -29.3
      vertex 7.27231 55.4235 -29.3
    endloop
  endfacet
  facet normal 0 0 1
    outer loop
      vertex 6.91844 55.3287 -29.3
      vertex 6.91844 48.6713 -29.3
      vertex 7.27231 48.5765 -29.3
    endloop
  endfacet
  facet normal -0 0 1
    outer loop
      vertex 6.57642 55.1974 -29.3
      vertex 6.91844 48.6713 -29.3
      vertex 6.91844 55.3287 -29.3
    endloop
  endfacet
  facet normal 0 0 1
    outer loop
      vertex 6.57642 55.1974 -29.3
      vertex 6.57642 48.8026 -29.3
      vertex 6.91844 48.6713 -29.3
    endloop
  endfacet
  facet normal -0 0 1
    outer loop
      vertex 6.25 55.0311 -29.3
      vertex 6.57642 48.8026 -29.3
      vertex 6.57642 55.1974 -29.3
    endloop
  endfacet
  facet normal 0 0 1
    outer loop
      vertex 6.25 55.0311 -29.3
      vertex 6.25 48.9689 -29.3
      vertex 6.57642 48.8026 -29.3
    endloop
  endfacet
  facet normal -0 0 1
    outer loop
      vertex 5.94275 54.8316 -29.3
      vertex 6.25 48.9689 -29.3
      vertex 6.25 55.0311 -29.3
    endloop
  endfacet
  facet normal 0 0 1
    outer loop
      vertex 5.94275 54.8316 -29.3
      vertex 5.94275 49.1684 -29.3
      vertex 6.25 48.9689 -29.3
    endloop
  endfacet
  facet normal -0 0 1
    outer loop
      vertex 5.65804 54.601 -29.3
      vertex 5.94275 49.1684 -29.3
      vertex 5.94275 54.8316 -29.3
    endloop
  endfacet
  facet normal 0 0 1
    outer loop
      vertex 5.65804 54.601 -29.3
      vertex 5.65804 49.399 -29.3
      vertex 5.94275 49.1684 -29.3
    endloop
  endfacet
  facet normal -0 0 1
    outer loop
      vertex 5.39899 54.342 -29.3
      vertex 5.65804 49.399 -29.3
      vertex 5.65804 54.601 -29.3
    endloop
  endfacet
  facet normal 0 0 1
    outer loop
      vertex 5.39899 54.342 -29.3
      vertex 5.39899 49.658 -29.3
      vertex 5.65804 49.399 -29.3
    endloop
  endfacet
  facet normal -0 0 1
    outer loop
      vertex 5.16844 54.0572 -29.3
      vertex 5.39899 49.658 -29.3
      vertex 5.39899 54.342 -29.3
    endloop
  endfacet
  facet normal 0 0 1
    outer loop
      vertex 5.16844 54.0572 -29.3
      vertex 5.16844 49.9428 -29.3
      vertex 5.39899 49.658 -29.3
    endloop
  endfacet
  facet normal -0 0 1
    outer loop
      vertex 4.96891 53.75 -29.3
      vertex 5.16844 49.9428 -29.3
      vertex 5.16844 54.0572 -29.3
    endloop
  endfacet
  facet normal 0 0 1
    outer loop
      vertex 4.96891 53.75 -29.3
      vertex 4.96891 50.25 -29.3
      vertex 5.16844 49.9428 -29.3
    endloop
  endfacet
  facet normal -0 0 1
    outer loop
      vertex 4.80259 53.4236 -29.3
      vertex 4.96891 50.25 -29.3
      vertex 4.96891 53.75 -29.3
    endloop
  endfacet
  facet normal 0 0 1
    outer loop
      vertex 4.80259 53.4236 -29.3
      vertex 4.80259 50.5764 -29.3
      vertex 4.96891 50.25 -29.3
    endloop
  endfacet
  facet normal -0 0 1
    outer loop
      vertex 4.6713 53.0816 -29.3
      vertex 4.80259 50.5764 -29.3
      vertex 4.80259 53.4236 -29.3
    endloop
  endfacet
  facet normal 0 0 1
    outer loop
      vertex 4.6713 53.0816 -29.3
      vertex 4.6713 50.9184 -29.3
      vertex 4.80259 50.5764 -29.3
    endloop
  endfacet
  facet normal -0 0 1
    outer loop
      vertex 4.57648 52.7277 -29.3
      vertex 4.6713 50.9184 -29.3
      vertex 4.6713 53.0816 -29.3
    endloop
  endfacet
  facet normal 0 0 1
    outer loop
      vertex 4.57648 52.7277 -29.3
      vertex 4.57648 51.2723 -29.3
      vertex 4.6713 50.9184 -29.3
    endloop
  endfacet
  facet normal -0 0 1
    outer loop
      vertex 4.51917 52.3658 -29.3
      vertex 4.57648 51.2723 -29.3
      vertex 4.57648 52.7277 -29.3
    endloop
  endfacet
  facet normal 0 0 1
    outer loop
      vertex 4.51917 52.3658 -29.3
      vertex 4.51917 51.6342 -29.3
      vertex 4.57648 51.2723 -29.3
    endloop
  endfacet
  facet normal 0 -0 1
    outer loop
      vertex 4.51917 51.6342 -29.3
      vertex 4.51917 52.3658 -29.3
      vertex 4.5 52 -29.3
    endloop
  endfacet
  facet normal -0.965925 -0.258821 0
    outer loop
      vertex 4.6713 50.9184 -37.0574
      vertex 4.57648 51.2723 -29.3
      vertex 4.57648 51.2723 -37.0574
    endloop
  endfacet
  facet normal -0.965925 -0.258821 0
    outer loop
      vertex 4.57648 51.2723 -29.3
      vertex 4.6713 50.9184 -37.0574
      vertex 4.6713 50.9184 -29.3
    endloop
  endfacet
  facet normal -0.987688 -0.156434 0
    outer loop
      vertex 4.57648 51.2723 -37.0574
      vertex 4.51917 51.6342 -29.3
      vertex 4.51917 51.6342 -37.0574
    endloop
  endfacet
  facet normal -0.987688 -0.156434 0
    outer loop
      vertex 4.51917 51.6342 -29.3
      vertex 4.57648 51.2723 -37.0574
      vertex 4.57648 51.2723 -29.3
    endloop
  endfacet
  facet normal -0.777147 -0.629319 0
    outer loop
      vertex 5.39899 49.658 -37.0574
      vertex 5.16844 49.9428 -29.3
      vertex 5.16844 49.9428 -37.0574
    endloop
  endfacet
  facet normal -0.777147 -0.629319 0
    outer loop
      vertex 5.16844 49.9428 -29.3
      vertex 5.39899 49.658 -37.0574
      vertex 5.39899 49.658 -29.3
    endloop
  endfacet
  facet normal -0.93358 -0.358368 0
    outer loop
      vertex 4.80259 50.5764 -37.0574
      vertex 4.6713 50.9184 -29.3
      vertex 4.6713 50.9184 -37.0574
    endloop
  endfacet
  facet normal -0.93358 -0.358368 0
    outer loop
      vertex 4.6713 50.9184 -29.3
      vertex 4.80259 50.5764 -37.0574
      vertex 4.80259 50.5764 -29.3
    endloop
  endfacet
  facet normal -0.838671 -0.544639 0
    outer loop
      vertex 5.16844 49.9428 -37.0574
      vertex 4.96891 50.25 -29.3
      vertex 4.96891 50.25 -37.0574
    endloop
  endfacet
  facet normal -0.838671 -0.544639 0
    outer loop
      vertex 4.96891 50.25 -29.3
      vertex 5.16844 49.9428 -37.0574
      vertex 5.16844 49.9428 -29.3
    endloop
  endfacet
  facet normal -0.707104 -0.707109 0
    outer loop
      vertex 5.39899 49.658 -37.0574
      vertex 5.65804 49.399 -29.3
      vertex 5.39899 49.658 -29.3
    endloop
  endfacet
  facet normal -0.707104 -0.707109 -0
    outer loop
      vertex 5.65804 49.399 -29.3
      vertex 5.39899 49.658 -37.0574
      vertex 5.65804 49.399 -37.0574
    endloop
  endfacet
  facet normal -0.629321 -0.777145 0
    outer loop
      vertex 5.65804 49.399 -37.0574
      vertex 5.94275 49.1684 -29.3
      vertex 5.65804 49.399 -29.3
    endloop
  endfacet
  facet normal -0.629321 -0.777145 -0
    outer loop
      vertex 5.94275 49.1684 -29.3
      vertex 5.65804 49.399 -37.0574
      vertex 5.94275 49.1684 -37.0574
    endloop
  endfacet
  facet normal -0.358364 -0.933582 0
    outer loop
      vertex 6.57642 48.8026 -37.0574
      vertex 6.91844 48.6713 -29.3
      vertex 6.57642 48.8026 -29.3
    endloop
  endfacet
  facet normal -0.358364 -0.933582 -0
    outer loop
      vertex 6.91844 48.6713 -29.3
      vertex 6.57642 48.8026 -37.0574
      vertex 6.91844 48.6713 -37.0574
    endloop
  endfacet
  facet normal -0.258817 -0.965926 0
    outer loop
      vertex 6.91844 48.6713 -37.0574
      vertex 7.27231 48.5765 -29.3
      vertex 6.91844 48.6713 -29.3
    endloop
  endfacet
  facet normal -0.258817 -0.965926 -0
    outer loop
      vertex 7.27231 48.5765 -29.3
      vertex 6.91844 48.6713 -37.0574
      vertex 7.27231 48.5765 -37.0574
    endloop
  endfacet
  facet normal -0.156439 -0.987688 0
    outer loop
      vertex 7.27231 48.5765 -37.0574
      vertex 7.63415 48.5192 -29.3
      vertex 7.27231 48.5765 -29.3
    endloop
  endfacet
  facet normal -0.156439 -0.987688 -0
    outer loop
      vertex 7.63415 48.5192 -29.3
      vertex 7.27231 48.5765 -37.0574
      vertex 7.63415 48.5192 -37.0574
    endloop
  endfacet
  facet normal -0.0523341 -0.99863 0
    outer loop
      vertex 7.63415 48.5192 -37.0574
      vertex 8 48.5 -29.3
      vertex 7.63415 48.5192 -29.3
    endloop
  endfacet
  facet normal -0.0523341 -0.99863 -0
    outer loop
      vertex 8 48.5 -29.3
      vertex 7.63415 48.5192 -37.0574
      vertex 8 48.5 -37.0574
    endloop
  endfacet
  facet normal -0.891007 -0.45399 0
    outer loop
      vertex 4.96891 50.25 -37.0574
      vertex 4.80259 50.5764 -29.3
      vertex 4.80259 50.5764 -37.0574
    endloop
  endfacet
  facet normal -0.891007 -0.45399 0
    outer loop
      vertex 4.80259 50.5764 -29.3
      vertex 4.96891 50.25 -37.0574
      vertex 4.96891 50.25 -29.3
    endloop
  endfacet
  facet normal -0.93358 0.358368 0
    outer loop
      vertex 4.6713 53.0816 -37.0574
      vertex 4.80259 53.4236 -29.3
      vertex 4.80259 53.4236 -37.0574
    endloop
  endfacet
  facet normal -0.93358 0.358368 0
    outer loop
      vertex 4.80259 53.4236 -29.3
      vertex 4.6713 53.0816 -37.0574
      vertex 4.6713 53.0816 -29.3
    endloop
  endfacet
  facet normal -0.965925 0.258821 0
    outer loop
      vertex 4.57648 52.7277 -37.0574
      vertex 4.6713 53.0816 -29.3
      vertex 4.6713 53.0816 -37.0574
    endloop
  endfacet
  facet normal -0.965925 0.258821 0
    outer loop
      vertex 4.6713 53.0816 -29.3
      vertex 4.57648 52.7277 -37.0574
      vertex 4.57648 52.7277 -29.3
    endloop
  endfacet
  facet normal -0 0 1
    outer loop
      vertex 3.75736 72 -29.0574
      vertex 12.2426 64 -29.0574
      vertex 12.2426 72 -29.0574
    endloop
  endfacet
  facet normal 0 0 1
    outer loop
      vertex 12.2426 64 -29.0574
      vertex 3.75736 72 -29.0574
      vertex 3.75736 64 -29.0574
    endloop
  endfacet
  facet normal 1 -0 0
    outer loop
      vertex 12.2426 64 -29.0574
      vertex 12.2426 72 -37.5426
      vertex 12.2426 72 -29.0574
    endloop
  endfacet
  facet normal 1 0 0
    outer loop
      vertex 12.2426 72 -37.5426
      vertex 12.2426 64 -29.0574
      vertex 12.2426 64 -37.5426
    endloop
  endfacet
  facet normal 0 -1 0
    outer loop
      vertex 3.75736 64 -29.0574
      vertex 8 64 -31.4
      vertex 12.2426 64 -29.0574
    endloop
  endfacet
  facet normal 0 -1 0
    outer loop
      vertex 3.75736 64 -29.0574
      vertex 7.85366 64 -31.4077
      vertex 8 64 -31.4
    endloop
  endfacet
  facet normal 0 -1 0
    outer loop
      vertex 3.75736 64 -29.0574
      vertex 7.70892 64 -31.4306
      vertex 7.85366 64 -31.4077
    endloop
  endfacet
  facet normal 0 -1 0
    outer loop
      vertex 3.75736 64 -29.0574
      vertex 7.56738 64 -31.4685
      vertex 7.70892 64 -31.4306
    endloop
  endfacet
  facet normal 0 -1 0
    outer loop
      vertex 3.75736 64 -29.0574
      vertex 7.43057 64 -31.521
      vertex 7.56738 64 -31.4685
    endloop
  endfacet
  facet normal 0 -1 0
    outer loop
      vertex 3.75736 64 -29.0574
      vertex 7.3 64 -31.5876
      vertex 7.43057 64 -31.521
    endloop
  endfacet
  facet normal 0 -1 0
    outer loop
      vertex 3.75736 64 -29.0574
      vertex 7.1771 64 -31.6674
      vertex 7.3 64 -31.5876
    endloop
  endfacet
  facet normal 0 -1 0
    outer loop
      vertex 3.75736 64 -29.0574
      vertex 7.06322 64 -31.7596
      vertex 7.1771 64 -31.6674
    endloop
  endfacet
  facet normal 0 -1 0
    outer loop
      vertex 3.75736 64 -29.0574
      vertex 6.9596 64 -31.8632
      vertex 7.06322 64 -31.7596
    endloop
  endfacet
  facet normal 0 -1 0
    outer loop
      vertex 3.75736 64 -29.0574
      vertex 6.86738 64 -31.9771
      vertex 6.9596 64 -31.8632
    endloop
  endfacet
  facet normal 0 -1 0
    outer loop
      vertex 3.75736 64 -29.0574
      vertex 6.78757 64 -32.1
      vertex 6.86738 64 -31.9771
    endloop
  endfacet
  facet normal 0 -1 0
    outer loop
      vertex 3.75736 64 -29.0574
      vertex 6.72104 64 -32.2306
      vertex 6.78757 64 -32.1
    endloop
  endfacet
  facet normal 0 -1 0
    outer loop
      vertex 3.75736 64 -29.0574
      vertex 6.66852 64 -32.3674
      vertex 6.72104 64 -32.2306
    endloop
  endfacet
  facet normal 0 -1 0
    outer loop
      vertex 3.75736 64 -29.0574
      vertex 6.63059 64 -32.5089
      vertex 6.66852 64 -32.3674
    endloop
  endfacet
  facet normal 0 -1 0
    outer loop
      vertex 3.75736 64 -29.0574
      vertex 6.60767 64 -32.6537
      vertex 6.63059 64 -32.5089
    endloop
  endfacet
  facet normal 0 -1 0
    outer loop
      vertex 3.75736 64 -29.0574
      vertex 6.60721 64 -32.6624
      vertex 6.60767 64 -32.6537
    endloop
  endfacet
  facet normal 0 -1 0
    outer loop
      vertex 3.75736 64 -29.0574
      vertex 6.6 64 -32.8
      vertex 6.60721 64 -32.6624
    endloop
  endfacet
  facet normal 0 -1 0
    outer loop
      vertex 3.75736 64 -29.0574
      vertex 6.60046 64 -32.8088
      vertex 6.6 64 -32.8
    endloop
  endfacet
  facet normal 0 -1 0
    outer loop
      vertex 3.75736 64 -37.0574
      vertex 6.60046 64 -32.8088
      vertex 3.75736 64 -29.0574
    endloop
  endfacet
  facet normal 0 -1 -0
    outer loop
      vertex 6.60046 64 -32.8088
      vertex 3.75736 64 -37.0574
      vertex 6.60767 64 -32.9463
    endloop
  endfacet
  facet normal 0 -1 -0
    outer loop
      vertex 6.60767 64 -32.9463
      vertex 3.75736 64 -37.0574
      vertex 6.63059 64 -33.0911
    endloop
  endfacet
  facet normal 0 -1 -0
    outer loop
      vertex 6.63059 64 -33.0911
      vertex 3.75736 64 -37.0574
      vertex 6.66852 64 -33.2326
    endloop
  endfacet
  facet normal 0 -1 -0
    outer loop
      vertex 6.66852 64 -33.2326
      vertex 3.75736 64 -37.0574
      vertex 6.72104 64 -33.3694
    endloop
  endfacet
  facet normal 0 -1 -0
    outer loop
      vertex 6.72104 64 -33.3694
      vertex 3.75736 64 -37.0574
      vertex 6.78757 64 -33.5
    endloop
  endfacet
  facet normal 0 -1 -0
    outer loop
      vertex 7.85366 64 -34.1923
      vertex 3.75736 64 -37.0574
      vertex 8 64 -34.2
    endloop
  endfacet
  facet normal 0 -1 -0
    outer loop
      vertex 7.70892 64 -34.1694
      vertex 3.75736 64 -37.0574
      vertex 7.85366 64 -34.1923
    endloop
  endfacet
  facet normal 0 -1 -0
    outer loop
      vertex 7.56738 64 -34.1315
      vertex 3.75736 64 -37.0574
      vertex 7.70892 64 -34.1694
    endloop
  endfacet
  facet normal 0 -1 -0
    outer loop
      vertex 7.43057 64 -34.079
      vertex 3.75736 64 -37.0574
      vertex 7.56738 64 -34.1315
    endloop
  endfacet
  facet normal 0 -1 -0
    outer loop
      vertex 7.3 64 -34.0124
      vertex 3.75736 64 -37.0574
      vertex 7.43057 64 -34.079
    endloop
  endfacet
  facet normal 0 -1 -0
    outer loop
      vertex 7.1771 64 -33.9326
      vertex 3.75736 64 -37.0574
      vertex 7.3 64 -34.0124
    endloop
  endfacet
  facet normal 0 -1 -0
    outer loop
      vertex 7.06322 64 -33.8404
      vertex 3.75736 64 -37.0574
      vertex 7.1771 64 -33.9326
    endloop
  endfacet
  facet normal 0 -1 -0
    outer loop
      vertex 6.9596 64 -33.7368
      vertex 3.75736 64 -37.0574
      vertex 7.06322 64 -33.8404
    endloop
  endfacet
  facet normal 0 -1 -0
    outer loop
      vertex 6.86738 64 -33.6229
      vertex 3.75736 64 -37.0574
      vertex 6.9596 64 -33.7368
    endloop
  endfacet
  facet normal 0 -1 -0
    outer loop
      vertex 6.78757 64 -33.5
      vertex 3.75736 64 -37.0574
      vertex 6.86738 64 -33.6229
    endloop
  endfacet
  facet normal 0 -1 0
    outer loop
      vertex 3.75736 64 -37.5426
      vertex 3.75736 64 -37.0574
      vertex 3.75736 64 -29.0574
    endloop
  endfacet
  facet normal 0 -1 0
    outer loop
      vertex 8.14634 64 -31.4077
      vertex 12.2426 64 -29.0574
      vertex 8 64 -31.4
    endloop
  endfacet
  facet normal 0 -1 0
    outer loop
      vertex 8.29108 64 -31.4306
      vertex 12.2426 64 -29.0574
      vertex 8.14634 64 -31.4077
    endloop
  endfacet
  facet normal 0 -1 0
    outer loop
      vertex 8.43262 64 -31.4685
      vertex 12.2426 64 -29.0574
      vertex 8.29108 64 -31.4306
    endloop
  endfacet
  facet normal 0 -1 0
    outer loop
      vertex 8.56943 64 -31.521
      vertex 12.2426 64 -29.0574
      vertex 8.43262 64 -31.4685
    endloop
  endfacet
  facet normal 0 -1 0
    outer loop
      vertex 8.7 64 -31.5876
      vertex 12.2426 64 -29.0574
      vertex 8.56943 64 -31.521
    endloop
  endfacet
  facet normal 0 -1 0
    outer loop
      vertex 8.8229 64 -31.6674
      vertex 12.2426 64 -29.0574
      vertex 8.7 64 -31.5876
    endloop
  endfacet
  facet normal 0 -1 0
    outer loop
      vertex 8.93678 64 -31.7596
      vertex 12.2426 64 -29.0574
      vertex 8.8229 64 -31.6674
    endloop
  endfacet
  facet normal 0 -1 0
    outer loop
      vertex 9.0404 64 -31.8632
      vertex 12.2426 64 -29.0574
      vertex 8.93678 64 -31.7596
    endloop
  endfacet
  facet normal 0 -1 0
    outer loop
      vertex 9.13262 64 -31.9771
      vertex 12.2426 64 -29.0574
      vertex 9.0404 64 -31.8632
    endloop
  endfacet
  facet normal 0 -1 0
    outer loop
      vertex 9.21244 64 -32.1
      vertex 12.2426 64 -29.0574
      vertex 9.13262 64 -31.9771
    endloop
  endfacet
  facet normal 0 -1 0
    outer loop
      vertex 9.27896 64 -32.2306
      vertex 12.2426 64 -29.0574
      vertex 9.21244 64 -32.1
    endloop
  endfacet
  facet normal 0 -1 0
    outer loop
      vertex 9.33148 64 -32.3674
      vertex 12.2426 64 -29.0574
      vertex 9.27896 64 -32.2306
    endloop
  endfacet
  facet normal 0 -1 0
    outer loop
      vertex 9.36941 64 -32.5089
      vertex 12.2426 64 -29.0574
      vertex 9.33148 64 -32.3674
    endloop
  endfacet
  facet normal 0 -1 0
    outer loop
      vertex 9.39233 64 -32.6537
      vertex 12.2426 64 -29.0574
      vertex 9.36941 64 -32.5089
    endloop
  endfacet
  facet normal 0 -1 0
    outer loop
      vertex 9.39279 64 -32.6624
      vertex 12.2426 64 -29.0574
      vertex 9.39233 64 -32.6537
    endloop
  endfacet
  facet normal 0 -1 0
    outer loop
      vertex 9.4 64 -32.8
      vertex 12.2426 64 -29.0574
      vertex 9.39279 64 -32.6624
    endloop
  endfacet
  facet normal 0 -1 0
    outer loop
      vertex 9.39954 64 -32.8088
      vertex 12.2426 64 -29.0574
      vertex 9.4 64 -32.8
    endloop
  endfacet
  facet normal 0 -1 0
    outer loop
      vertex 12.2426 64 -37.0574
      vertex 9.39954 64 -32.8088
      vertex 9.39233 64 -32.9463
    endloop
  endfacet
  facet normal 0 -1 0
    outer loop
      vertex 12.2426 64 -37.0574
      vertex 9.39233 64 -32.9463
      vertex 9.36941 64 -33.0911
    endloop
  endfacet
  facet normal 0 -1 0
    outer loop
      vertex 12.2426 64 -37.0574
      vertex 9.36941 64 -33.0911
      vertex 9.33148 64 -33.2326
    endloop
  endfacet
  facet normal 0 -1 0
    outer loop
      vertex 12.2426 64 -37.0574
      vertex 9.33148 64 -33.2326
      vertex 9.27896 64 -33.3694
    endloop
  endfacet
  facet normal 0 -1 0
    outer loop
      vertex 12.2426 64 -37.0574
      vertex 9.27896 64 -33.3694
      vertex 9.21244 64 -33.5
    endloop
  endfacet
  facet normal 0 -1 0
    outer loop
      vertex 12.2426 64 -37.0574
      vertex 9.21244 64 -33.5
      vertex 9.13262 64 -33.6229
    endloop
  endfacet
  facet normal 0 -1 0
    outer loop
      vertex 12.2426 64 -37.0574
      vertex 8 64 -34.2
      vertex 3.75736 64 -37.0574
    endloop
  endfacet
  facet normal 0 -1 0
    outer loop
      vertex 8 64 -34.2
      vertex 12.2426 64 -37.0574
      vertex 8.14634 64 -34.1923
    endloop
  endfacet
  facet normal 0 -1 0
    outer loop
      vertex 8.14634 64 -34.1923
      vertex 12.2426 64 -37.0574
      vertex 8.29108 64 -34.1694
    endloop
  endfacet
  facet normal 0 -1 0
    outer loop
      vertex 8.29108 64 -34.1694
      vertex 12.2426 64 -37.0574
      vertex 8.43262 64 -34.1315
    endloop
  endfacet
  facet normal 0 -1 0
    outer loop
      vertex 8.43262 64 -34.1315
      vertex 12.2426 64 -37.0574
      vertex 8.56943 64 -34.079
    endloop
  endfacet
  facet normal 0 -1 0
    outer loop
      vertex 8.56943 64 -34.079
      vertex 12.2426 64 -37.0574
      vertex 8.7 64 -34.0124
    endloop
  endfacet
  facet normal 0 -1 0
    outer loop
      vertex 12.2426 64 -37.0574
      vertex 8.8229 64 -33.9326
      vertex 8.7 64 -34.0124
    endloop
  endfacet
  facet normal 0 -1 0
    outer loop
      vertex 12.2426 64 -37.0574
      vertex 8.93678 64 -33.8404
      vertex 8.8229 64 -33.9326
    endloop
  endfacet
  facet normal 0 -1 0
    outer loop
      vertex 12.2426 64 -37.0574
      vertex 9.0404 64 -33.7368
      vertex 8.93678 64 -33.8404
    endloop
  endfacet
  facet normal 0 -1 0
    outer loop
      vertex 12.2426 64 -37.0574
      vertex 9.13262 64 -33.6229
      vertex 9.0404 64 -33.7368
    endloop
  endfacet
  facet normal 0 -1 0
    outer loop
      vertex 9.39954 64 -32.8088
      vertex 12.2426 64 -37.0574
      vertex 12.2426 64 -29.0574
    endloop
  endfacet
  facet normal 0 -1 0
    outer loop
      vertex 12.2426 64 -37.0574
      vertex 12.2426 64 -37.5426
      vertex 12.2426 64 -29.0574
    endloop
  endfacet
  facet normal -1 0 0
    outer loop
      vertex 3.75736 64 -37.5426
      vertex 3.75736 72 -29.0574
      vertex 3.75736 72 -37.5426
    endloop
  endfacet
  facet normal -1 -0 0
    outer loop
      vertex 3.75736 72 -29.0574
      vertex 3.75736 64 -37.5426
      vertex 3.75736 64 -29.0574
    endloop
  endfacet
  facet normal 0.998629 3.58904e-008 0.0523394
    outer loop
      vertex 6.60046 64 -32.8088
      vertex 6.60767 72 -32.9463
      vertex 6.60169 72 -32.8322
    endloop
  endfacet
  facet normal 0.998629 0 0.0523374
    outer loop
      vertex 6.60767 72 -32.9463
      vertex 6.60046 64 -32.8088
      vertex 6.60767 64 -32.9463
    endloop
  endfacet
  facet normal 0.987688 -0 0.156436
    outer loop
      vertex 6.60767 64 -32.9463
      vertex 6.63059 72 -33.0911
      vertex 6.60767 72 -32.9463
    endloop
  endfacet
  facet normal 0.987688 0 0.156436
    outer loop
      vertex 6.63059 72 -33.0911
      vertex 6.60767 64 -32.9463
      vertex 6.63059 64 -33.0911
    endloop
  endfacet
  facet normal 0.99863 -0 0.0523275
    outer loop
      vertex 6.6 64 -32.8
      vertex 6.60169 72 -32.8322
      vertex 6.6 72 -32.8
    endloop
  endfacet
  facet normal 0.99863 3.20628e-009 0.0523283
    outer loop
      vertex 6.60169 72 -32.8322
      vertex 6.6 64 -32.8
      vertex 6.60046 64 -32.8088
    endloop
  endfacet
  facet normal -0.998629 0 -0.0523394
    outer loop
      vertex 9.4 64 -32.8
      vertex 9.39402 72 -32.6859
      vertex 9.4 72 -32.8
    endloop
  endfacet
  facet normal -0.998629 1.96099e-008 -0.0523408
    outer loop
      vertex 9.39402 72 -32.6859
      vertex 9.4 64 -32.8
      vertex 9.39279 64 -32.6624
    endloop
  endfacet
  facet normal -0.987689 0 -0.15643
    outer loop
      vertex 9.39233 64 -32.6537
      vertex 9.36941 72 -32.5089
      vertex 9.39233 72 -32.6537
    endloop
  endfacet
  facet normal -0.987689 -0 -0.15643
    outer loop
      vertex 9.36941 72 -32.5089
      vertex 9.39233 64 -32.6537
      vertex 9.36941 64 -32.5089
    endloop
  endfacet
  facet normal -0.0523498 0 0.998629
    outer loop
      vertex 8 72 -34.2
      vertex 8.14634 64 -34.1923
      vertex 8.14634 72 -34.1923
    endloop
  endfacet
  facet normal -0.0523498 0 0.998629
    outer loop
      vertex 8.14634 64 -34.1923
      vertex 8 72 -34.2
      vertex 8 64 -34.2
    endloop
  endfacet
  facet normal 0.0523365 0 -0.99863
    outer loop
      vertex 7.85366 64 -31.4077
      vertex 8 72 -31.4
      vertex 8 64 -31.4
    endloop
  endfacet
  facet normal 0.0523365 0 -0.99863
    outer loop
      vertex 8 72 -31.4
      vertex 7.85366 64 -31.4077
      vertex 7.85366 72 -31.4077
    endloop
  endfacet
  facet normal 0.629319 0 0.777147
    outer loop
      vertex 7.06322 72 -33.8404
      vertex 7.1771 64 -33.9326
      vertex 7.1771 72 -33.9326
    endloop
  endfacet
  facet normal 0.629319 0 0.777147
    outer loop
      vertex 7.1771 64 -33.9326
      vertex 7.06322 72 -33.8404
      vertex 7.06322 64 -33.8404
    endloop
  endfacet
  facet normal -0.156425 0 0.98769
    outer loop
      vertex 8.14634 72 -34.1923
      vertex 8.29108 64 -34.1694
      vertex 8.29108 72 -34.1694
    endloop
  endfacet
  facet normal -0.156425 0 0.98769
    outer loop
      vertex 8.29108 64 -34.1694
      vertex 8.14634 72 -34.1923
      vertex 8.14634 64 -34.1923
    endloop
  endfacet
  facet normal -0.99863 6.03975e-008 0.0523275
    outer loop
      vertex 9.39954 64 -32.8088
      vertex 9.4 72 -32.8
      vertex 9.39831 72 -32.8322
    endloop
  endfacet
  facet normal -0.998627 0 0.0523824
    outer loop
      vertex 9.4 72 -32.8
      vertex 9.39954 64 -32.8088
      vertex 9.4 64 -32.8
    endloop
  endfacet
  facet normal 0.7071 0 -0.707113
    outer loop
      vertex 6.9596 64 -31.8632
      vertex 7.06322 72 -31.7596
      vertex 7.06322 64 -31.7596
    endloop
  endfacet
  facet normal 0.7071 0 -0.707113
    outer loop
      vertex 7.06322 72 -31.7596
      vertex 6.9596 64 -31.8632
      vertex 6.9596 72 -31.8632
    endloop
  endfacet
  facet normal 0.965924 0 -0.258825
    outer loop
      vertex 6.66852 64 -32.3674
      vertex 6.63059 72 -32.5089
      vertex 6.66852 72 -32.3674
    endloop
  endfacet
  facet normal 0.965924 0 -0.258825
    outer loop
      vertex 6.63059 72 -32.5089
      vertex 6.66852 64 -32.3674
      vertex 6.63059 64 -32.5089
    endloop
  endfacet
  facet normal -0.629324 0 -0.777143
    outer loop
      vertex 8.8229 64 -31.6674
      vertex 8.93678 72 -31.7596
      vertex 8.93678 64 -31.7596
    endloop
  endfacet
  facet normal -0.629324 0 -0.777143
    outer loop
      vertex 8.93678 72 -31.7596
      vertex 8.8229 64 -31.6674
      vertex 8.8229 72 -31.6674
    endloop
  endfacet
  facet normal -0.777147 0 -0.62932
    outer loop
      vertex 9.13262 64 -31.9771
      vertex 9.0404 72 -31.8632
      vertex 9.13262 72 -31.9771
    endloop
  endfacet
  facet normal -0.777147 -0 -0.62932
    outer loop
      vertex 9.0404 72 -31.8632
      vertex 9.13262 64 -31.9771
      vertex 9.0404 64 -31.8632
    endloop
  endfacet
  facet normal -0.933582 0 -0.358365
    outer loop
      vertex 9.33148 64 -32.3674
      vertex 9.27896 72 -32.2306
      vertex 9.33148 72 -32.3674
    endloop
  endfacet
  facet normal -0.933582 -0 -0.358365
    outer loop
      vertex 9.27896 72 -32.2306
      vertex 9.33148 64 -32.3674
      vertex 9.27896 64 -32.2306
    endloop
  endfacet
  facet normal 0.77715 -0 0.629316
    outer loop
      vertex 6.86738 64 -33.6229
      vertex 6.9596 72 -33.7368
      vertex 6.86738 72 -33.6229
    endloop
  endfacet
  facet normal 0.77715 0 0.629316
    outer loop
      vertex 6.9596 72 -33.7368
      vertex 6.86738 64 -33.6229
      vertex 6.9596 64 -33.7368
    endloop
  endfacet
  facet normal 0.544637 0 0.838672
    outer loop
      vertex 7.1771 72 -33.9326
      vertex 7.3 64 -34.0124
      vertex 7.3 72 -34.0124
    endloop
  endfacet
  facet normal 0.544637 0 0.838672
    outer loop
      vertex 7.3 64 -34.0124
      vertex 7.1771 72 -33.9326
      vertex 7.1771 64 -33.9326
    endloop
  endfacet
  facet normal -0.707117 0 0.707097
    outer loop
      vertex 8.93678 64 -33.8404
      vertex 9.0404 72 -33.7368
      vertex 8.93678 72 -33.8404
    endloop
  endfacet
  facet normal -0.707117 0 0.707097
    outer loop
      vertex 9.0404 72 -33.7368
      vertex 8.93678 64 -33.8404
      vertex 9.0404 64 -33.7368
    endloop
  endfacet
  facet normal 0.987688 0 -0.156436
    outer loop
      vertex 6.63059 64 -32.5089
      vertex 6.60767 72 -32.6537
      vertex 6.63059 72 -32.5089
    endloop
  endfacet
  facet normal 0.987688 0 -0.156436
    outer loop
      vertex 6.60767 72 -32.6537
      vertex 6.63059 64 -32.5089
      vertex 6.60767 64 -32.6537
    endloop
  endfacet
  facet normal 0.25882 0 -0.965926
    outer loop
      vertex 7.56738 64 -31.4685
      vertex 7.70892 72 -31.4306
      vertex 7.70892 64 -31.4306
    endloop
  endfacet
  facet normal 0.25882 0 -0.965926
    outer loop
      vertex 7.70892 72 -31.4306
      vertex 7.56738 64 -31.4685
      vertex 7.56738 72 -31.4685
    endloop
  endfacet
  facet normal 0.629327 0 -0.777141
    outer loop
      vertex 7.06322 64 -31.7596
      vertex 7.1771 72 -31.6674
      vertex 7.1771 64 -31.6674
    endloop
  endfacet
  facet normal 0.629327 0 -0.777141
    outer loop
      vertex 7.1771 72 -31.6674
      vertex 7.06322 64 -31.7596
      vertex 7.06322 72 -31.7596
    endloop
  endfacet
  facet normal 0.838667 0 -0.544644
    outer loop
      vertex 6.86738 64 -31.9771
      vertex 6.78757 72 -32.1
      vertex 6.86738 72 -31.9771
    endloop
  endfacet
  facet normal 0.838667 0 -0.544644
    outer loop
      vertex 6.78757 72 -32.1
      vertex 6.86738 64 -31.9771
      vertex 6.78757 64 -32.1
    endloop
  endfacet
  facet normal 0.891007 0 -0.45399
    outer loop
      vertex 6.78757 64 -32.1
      vertex 6.72104 72 -32.2306
      vertex 6.78757 72 -32.1
    endloop
  endfacet
  facet normal 0.891007 0 -0.45399
    outer loop
      vertex 6.72104 72 -32.2306
      vertex 6.78757 64 -32.1
      vertex 6.72104 64 -32.2306
    endloop
  endfacet
  facet normal -0.258818 0 -0.965926
    outer loop
      vertex 8.29108 64 -31.4306
      vertex 8.43262 72 -31.4685
      vertex 8.43262 64 -31.4685
    endloop
  endfacet
  facet normal -0.258818 0 -0.965926
    outer loop
      vertex 8.43262 72 -31.4685
      vertex 8.29108 64 -31.4306
      vertex 8.29108 72 -31.4306
    endloop
  endfacet
  facet normal -0.453992 0 -0.891006
    outer loop
      vertex 8.56943 64 -31.521
      vertex 8.7 72 -31.5876
      vertex 8.7 64 -31.5876
    endloop
  endfacet
  facet normal -0.453992 0 -0.891006
    outer loop
      vertex 8.7 72 -31.5876
      vertex 8.56943 64 -31.521
      vertex 8.56943 72 -31.521
    endloop
  endfacet
  facet normal -0.544637 0 -0.838672
    outer loop
      vertex 8.7 64 -31.5876
      vertex 8.8229 72 -31.6674
      vertex 8.8229 64 -31.6674
    endloop
  endfacet
  facet normal -0.544637 0 -0.838672
    outer loop
      vertex 8.8229 72 -31.6674
      vertex 8.7 64 -31.5876
      vertex 8.7 72 -31.5876
    endloop
  endfacet
  facet normal -0.89101 0 -0.453985
    outer loop
      vertex 9.27896 64 -32.2306
      vertex 9.21244 72 -32.1
      vertex 9.27896 72 -32.2306
    endloop
  endfacet
  facet normal -0.89101 -0 -0.453985
    outer loop
      vertex 9.21244 72 -32.1
      vertex 9.27896 64 -32.2306
      vertex 9.21244 64 -32.1
    endloop
  endfacet
  facet normal -0.99863 5.86485e-008 -0.0523275
    outer loop
      vertex 9.39279 64 -32.6624
      vertex 9.39233 72 -32.6537
      vertex 9.39402 72 -32.6859
    endloop
  endfacet
  facet normal -0.998633 -0 -0.0522742
    outer loop
      vertex 9.39233 72 -32.6537
      vertex 9.39279 64 -32.6624
      vertex 9.39233 64 -32.6537
    endloop
  endfacet
  facet normal 0.965926 -0 0.258818
    outer loop
      vertex 6.63059 64 -33.0911
      vertex 6.66852 72 -33.2326
      vertex 6.63059 72 -33.0911
    endloop
  endfacet
  facet normal 0.965926 0 0.258818
    outer loop
      vertex 6.66852 72 -33.2326
      vertex 6.63059 64 -33.0911
      vertex 6.66852 64 -33.2326
    endloop
  endfacet
  facet normal 0.933581 -0 0.358368
    outer loop
      vertex 6.66852 64 -33.2326
      vertex 6.72104 72 -33.3694
      vertex 6.66852 72 -33.2326
    endloop
  endfacet
  facet normal 0.933581 0 0.358368
    outer loop
      vertex 6.72104 72 -33.3694
      vertex 6.66852 64 -33.2326
      vertex 6.72104 64 -33.3694
    endloop
  endfacet
  facet normal 0.891007 -0 0.45399
    outer loop
      vertex 6.72104 64 -33.3694
      vertex 6.78757 72 -33.5
      vertex 6.72104 72 -33.3694
    endloop
  endfacet
  facet normal 0.891007 0 0.45399
    outer loop
      vertex 6.78757 72 -33.5
      vertex 6.72104 64 -33.3694
      vertex 6.78757 64 -33.5
    endloop
  endfacet
  facet normal 0.707113 -0 0.7071
    outer loop
      vertex 6.9596 64 -33.7368
      vertex 7.06322 72 -33.8404
      vertex 6.9596 72 -33.7368
    endloop
  endfacet
  facet normal 0.707113 0 0.7071
    outer loop
      vertex 7.06322 72 -33.8404
      vertex 6.9596 64 -33.7368
      vertex 7.06322 64 -33.8404
    endloop
  endfacet
  facet normal 0.838667 -0 0.544644
    outer loop
      vertex 6.78757 64 -33.5
      vertex 6.86738 72 -33.6229
      vertex 6.78757 72 -33.5
    endloop
  endfacet
  facet normal 0.838667 0 0.544644
    outer loop
      vertex 6.86738 72 -33.6229
      vertex 6.78757 64 -33.5
      vertex 6.86738 64 -33.6229
    endloop
  endfacet
  facet normal 0.0523494 0 0.998629
    outer loop
      vertex 7.85366 72 -34.1923
      vertex 8 64 -34.2
      vertex 8 72 -34.2
    endloop
  endfacet
  facet normal 0.0523494 0 0.998629
    outer loop
      vertex 8 64 -34.2
      vertex 7.85366 72 -34.1923
      vertex 7.85366 64 -34.1923
    endloop
  endfacet
  facet normal 0.258808 0 0.965929
    outer loop
      vertex 7.56738 72 -34.1315
      vertex 7.70892 64 -34.1694
      vertex 7.70892 72 -34.1694
    endloop
  endfacet
  facet normal 0.258808 0 0.965929
    outer loop
      vertex 7.70892 64 -34.1694
      vertex 7.56738 72 -34.1315
      vertex 7.56738 64 -34.1315
    endloop
  endfacet
  facet normal -0.998629 0 0.0523394
    outer loop
      vertex 9.39233 64 -32.9463
      vertex 9.39831 72 -32.8322
      vertex 9.39233 72 -32.9463
    endloop
  endfacet
  facet normal -0.99863 7.91725e-008 0.0523339
    outer loop
      vertex 9.39831 72 -32.8322
      vertex 9.39233 64 -32.9463
      vertex 9.39954 64 -32.8088
    endloop
  endfacet
  facet normal -0.629316 0 0.77715
    outer loop
      vertex 8.8229 72 -33.9326
      vertex 8.93678 64 -33.8404
      vertex 8.93678 72 -33.8404
    endloop
  endfacet
  facet normal -0.629316 0 0.77715
    outer loop
      vertex 8.93678 64 -33.8404
      vertex 8.8229 72 -33.9326
      vertex 8.8229 64 -33.9326
    endloop
  endfacet
  facet normal -0.933578 0 0.358373
    outer loop
      vertex 9.27896 64 -33.3694
      vertex 9.33148 72 -33.2326
      vertex 9.27896 72 -33.3694
    endloop
  endfacet
  facet normal -0.933578 0 0.358373
    outer loop
      vertex 9.33148 72 -33.2326
      vertex 9.27896 64 -33.3694
      vertex 9.33148 64 -33.2326
    endloop
  endfacet
  facet normal 0.156437 0 -0.987688
    outer loop
      vertex 7.70892 64 -31.4306
      vertex 7.85366 72 -31.4077
      vertex 7.85366 64 -31.4077
    endloop
  endfacet
  facet normal 0.156437 0 -0.987688
    outer loop
      vertex 7.85366 72 -31.4077
      vertex 7.70892 64 -31.4306
      vertex 7.70892 72 -31.4306
    endloop
  endfacet
  facet normal 0.358365 0 -0.933581
    outer loop
      vertex 7.43057 64 -31.521
      vertex 7.56738 72 -31.4685
      vertex 7.56738 64 -31.4685
    endloop
  endfacet
  facet normal 0.358365 0 -0.933581
    outer loop
      vertex 7.56738 72 -31.4685
      vertex 7.43057 64 -31.521
      vertex 7.43057 72 -31.521
    endloop
  endfacet
  facet normal 0.45399 0 -0.891007
    outer loop
      vertex 7.3 64 -31.5876
      vertex 7.43057 72 -31.521
      vertex 7.43057 64 -31.521
    endloop
  endfacet
  facet normal 0.45399 0 -0.891007
    outer loop
      vertex 7.43057 72 -31.521
      vertex 7.3 64 -31.5876
      vertex 7.3 72 -31.5876
    endloop
  endfacet
  facet normal 0.544637 0 -0.838672
    outer loop
      vertex 7.1771 64 -31.6674
      vertex 7.3 72 -31.5876
      vertex 7.3 64 -31.5876
    endloop
  endfacet
  facet normal 0.544637 0 -0.838672
    outer loop
      vertex 7.3 72 -31.5876
      vertex 7.1771 64 -31.6674
      vertex 7.1771 72 -31.6674
    endloop
  endfacet
  facet normal 0.77715 0 -0.629316
    outer loop
      vertex 6.9596 64 -31.8632
      vertex 6.86738 72 -31.9771
      vertex 6.9596 72 -31.8632
    endloop
  endfacet
  facet normal 0.77715 0 -0.629316
    outer loop
      vertex 6.86738 72 -31.9771
      vertex 6.9596 64 -31.8632
      vertex 6.86738 64 -31.9771
    endloop
  endfacet
  facet normal 0.933584 0 -0.358359
    outer loop
      vertex 6.72104 64 -32.2306
      vertex 6.66852 72 -32.3674
      vertex 6.72104 72 -32.2306
    endloop
  endfacet
  facet normal 0.933584 0 -0.358359
    outer loop
      vertex 6.66852 72 -32.3674
      vertex 6.72104 64 -32.2306
      vertex 6.66852 64 -32.3674
    endloop
  endfacet
  facet normal 0.998629 0 -0.0523423
    outer loop
      vertex 6.60767 64 -32.6537
      vertex 6.60598 72 -32.6859
      vertex 6.60767 72 -32.6537
    endloop
  endfacet
  facet normal 0.99863 5.63167e-008 -0.0523283
    outer loop
      vertex 6.60598 72 -32.6859
      vertex 6.60767 64 -32.6537
      vertex 6.60721 64 -32.6624
    endloop
  endfacet
  facet normal 0.99863 3.58427e-008 -0.0523353
    outer loop
      vertex 6.60721 64 -32.6624
      vertex 6.6 72 -32.8
      vertex 6.60598 72 -32.6859
    endloop
  endfacet
  facet normal 0.998629 0 -0.0523374
    outer loop
      vertex 6.6 72 -32.8
      vertex 6.60721 64 -32.6624
      vertex 6.6 64 -32.8
    endloop
  endfacet
  facet normal -0.707104 0 -0.70711
    outer loop
      vertex 8.93678 64 -31.7596
      vertex 9.0404 72 -31.8632
      vertex 9.0404 64 -31.8632
    endloop
  endfacet
  facet normal -0.707104 0 -0.70711
    outer loop
      vertex 9.0404 72 -31.8632
      vertex 8.93678 64 -31.7596
      vertex 8.93678 72 -31.7596
    endloop
  endfacet
  facet normal -0.358365 0 -0.933581
    outer loop
      vertex 8.43262 64 -31.4685
      vertex 8.56943 72 -31.521
      vertex 8.56943 64 -31.521
    endloop
  endfacet
  facet normal -0.358365 0 -0.933581
    outer loop
      vertex 8.56943 72 -31.521
      vertex 8.43262 64 -31.4685
      vertex 8.43262 72 -31.4685
    endloop
  endfacet
  facet normal -0.156437 0 -0.987688
    outer loop
      vertex 8.14634 64 -31.4077
      vertex 8.29108 72 -31.4306
      vertex 8.29108 64 -31.4306
    endloop
  endfacet
  facet normal -0.156437 0 -0.987688
    outer loop
      vertex 8.29108 72 -31.4306
      vertex 8.14634 64 -31.4077
      vertex 8.14634 72 -31.4077
    endloop
  endfacet
  facet normal -0.0523368 0 -0.998629
    outer loop
      vertex 8 64 -31.4
      vertex 8.14634 72 -31.4077
      vertex 8.14634 64 -31.4077
    endloop
  endfacet
  facet normal -0.0523368 0 -0.998629
    outer loop
      vertex 8.14634 72 -31.4077
      vertex 8 64 -31.4
      vertex 8 72 -31.4
    endloop
  endfacet
  facet normal 0.156425 0 0.98769
    outer loop
      vertex 7.70892 72 -34.1694
      vertex 7.85366 64 -34.1923
      vertex 7.85366 72 -34.1923
    endloop
  endfacet
  facet normal 0.156425 0 0.98769
    outer loop
      vertex 7.85366 64 -34.1923
      vertex 7.70892 72 -34.1694
      vertex 7.70892 64 -34.1694
    endloop
  endfacet
  facet normal -0.358377 0 0.933577
    outer loop
      vertex 8.43262 72 -34.1315
      vertex 8.56943 64 -34.079
      vertex 8.56943 72 -34.079
    endloop
  endfacet
  facet normal -0.358377 0 0.933577
    outer loop
      vertex 8.56943 64 -34.079
      vertex 8.43262 72 -34.1315
      vertex 8.43262 64 -34.1315
    endloop
  endfacet
  facet normal -0.544637 0 0.838672
    outer loop
      vertex 8.7 72 -34.0124
      vertex 8.8229 64 -33.9326
      vertex 8.8229 72 -33.9326
    endloop
  endfacet
  facet normal -0.544637 0 0.838672
    outer loop
      vertex 8.8229 64 -33.9326
      vertex 8.7 72 -34.0124
      vertex 8.7 64 -34.0124
    endloop
  endfacet
  facet normal -0.453992 0 0.891006
    outer loop
      vertex 8.56943 72 -34.079
      vertex 8.7 64 -34.0124
      vertex 8.7 72 -34.0124
    endloop
  endfacet
  facet normal -0.453992 0 0.891006
    outer loop
      vertex 8.7 64 -34.0124
      vertex 8.56943 72 -34.079
      vertex 8.56943 64 -34.079
    endloop
  endfacet
  facet normal -0.987689 0 0.15643
    outer loop
      vertex 9.36941 64 -33.0911
      vertex 9.39233 72 -32.9463
      vertex 9.36941 72 -33.0911
    endloop
  endfacet
  facet normal -0.987689 0 0.15643
    outer loop
      vertex 9.39233 72 -32.9463
      vertex 9.36941 64 -33.0911
      vertex 9.39233 64 -32.9463
    endloop
  endfacet
  facet normal -0.965926 0 0.258818
    outer loop
      vertex 9.33148 64 -33.2326
      vertex 9.36941 72 -33.0911
      vertex 9.33148 72 -33.2326
    endloop
  endfacet
  facet normal -0.965926 0 0.258818
    outer loop
      vertex 9.36941 72 -33.0911
      vertex 9.33148 64 -33.2326
      vertex 9.36941 64 -33.0911
    endloop
  endfacet
  facet normal -0.965924 0 -0.258825
    outer loop
      vertex 9.36941 64 -32.5089
      vertex 9.33148 72 -32.3674
      vertex 9.36941 72 -32.5089
    endloop
  endfacet
  facet normal -0.965924 -0 -0.258825
    outer loop
      vertex 9.33148 72 -32.3674
      vertex 9.36941 64 -32.5089
      vertex 9.33148 64 -32.3674
    endloop
  endfacet
  facet normal -0.838667 0 -0.544644
    outer loop
      vertex 9.21244 64 -32.1
      vertex 9.13262 72 -31.9771
      vertex 9.21244 72 -32.1
    endloop
  endfacet
  facet normal -0.838667 -0 -0.544644
    outer loop
      vertex 9.13262 72 -31.9771
      vertex 9.21244 64 -32.1
      vertex 9.13262 64 -31.9771
    endloop
  endfacet
  facet normal 0.45399 0 0.891007
    outer loop
      vertex 7.3 72 -34.0124
      vertex 7.43057 64 -34.079
      vertex 7.43057 72 -34.079
    endloop
  endfacet
  facet normal 0.45399 0 0.891007
    outer loop
      vertex 7.43057 64 -34.079
      vertex 7.3 72 -34.0124
      vertex 7.3 64 -34.0124
    endloop
  endfacet
  facet normal 0.358377 0 0.933577
    outer loop
      vertex 7.43057 72 -34.079
      vertex 7.56738 64 -34.1315
      vertex 7.56738 72 -34.1315
    endloop
  endfacet
  facet normal 0.358377 0 0.933577
    outer loop
      vertex 7.56738 64 -34.1315
      vertex 7.43057 72 -34.079
      vertex 7.43057 64 -34.079
    endloop
  endfacet
  facet normal -0.258806 0 0.965929
    outer loop
      vertex 8.29108 72 -34.1694
      vertex 8.43262 64 -34.1315
      vertex 8.43262 72 -34.1315
    endloop
  endfacet
  facet normal -0.258806 0 0.965929
    outer loop
      vertex 8.43262 64 -34.1315
      vertex 8.29108 72 -34.1694
      vertex 8.29108 64 -34.1694
    endloop
  endfacet
  facet normal -0.838667 0 0.544644
    outer loop
      vertex 9.13262 64 -33.6229
      vertex 9.21244 72 -33.5
      vertex 9.13262 72 -33.6229
    endloop
  endfacet
  facet normal -0.838667 0 0.544644
    outer loop
      vertex 9.21244 72 -33.5
      vertex 9.13262 64 -33.6229
      vertex 9.21244 64 -33.5
    endloop
  endfacet
  facet normal -0.89101 0 0.453985
    outer loop
      vertex 9.21244 64 -33.5
      vertex 9.27896 72 -33.3694
      vertex 9.21244 72 -33.5
    endloop
  endfacet
  facet normal -0.89101 0 0.453985
    outer loop
      vertex 9.27896 72 -33.3694
      vertex 9.21244 64 -33.5
      vertex 9.27896 64 -33.3694
    endloop
  endfacet
  facet normal -0.777147 0 0.62932
    outer loop
      vertex 9.0404 64 -33.7368
      vertex 9.13262 72 -33.6229
      vertex 9.0404 72 -33.7368
    endloop
  endfacet
  facet normal -0.777147 0 0.62932
    outer loop
      vertex 9.13262 72 -33.6229
      vertex 9.0404 64 -33.7368
      vertex 9.13262 64 -33.6229
    endloop
  endfacet
endsolid OpenSCAD_Model
