solid OpenSCAD_Model
  facet normal -0.258819 -0.965926 0
    outer loop
      vertex -18.4788 31.787 23.1
      vertex -16.6919 31.3081 23.6
      vertex -18.4788 31.787 23.6
    endloop
  endfacet
  facet normal -0.258819 -0.965926 -0
    outer loop
      vertex -16.6919 31.3081 23.6
      vertex -18.4788 31.787 23.1
      vertex -16.6919 31.3081 23.1
    endloop
  endfacet
  facet normal 0.707107 -0.707107 0
    outer loop
      vertex -19.787 30.4788 23.6
      vertex -18.4788 31.787 23.1
      vertex -18.4788 31.787 23.6
    endloop
  endfacet
  facet normal 0.707107 -0.707107 0
    outer loop
      vertex -18.4788 31.787 23.1
      vertex -19.787 30.4788 23.6
      vertex -19.787 30.4788 23.1
    endloop
  endfacet
  facet normal 0.965926 0.258819 0
    outer loop
      vertex -19.3081 28.6919 23.6
      vertex -19.787 30.4788 23.1
      vertex -19.787 30.4788 23.6
    endloop
  endfacet
  facet normal 0.965926 0.258819 0
    outer loop
      vertex -19.787 30.4788 23.1
      vertex -19.3081 28.6919 23.6
      vertex -19.3081 28.6919 23.1
    endloop
  endfacet
  facet normal -0.965926 -0.25882 0
    outer loop
      vertex -16.213 29.5212 23.1
      vertex -16.6919 31.3081 23.6
      vertex -16.6919 31.3081 23.1
    endloop
  endfacet
  facet normal -0.965926 -0.25882 0
    outer loop
      vertex -16.6919 31.3081 23.6
      vertex -16.213 29.5212 23.1
      vertex -16.213 29.5212 23.6
    endloop
  endfacet
  facet normal -0.707107 0.707107 0
    outer loop
      vertex -17.5212 28.213 23.1
      vertex -16.213 29.5212 23.6
      vertex -16.213 29.5212 23.1
    endloop
  endfacet
  facet normal -0.707107 0.707107 0
    outer loop
      vertex -16.213 29.5212 23.6
      vertex -17.5212 28.213 23.1
      vertex -17.5212 28.213 23.6
    endloop
  endfacet
  facet normal 0.25882 0.965926 -0
    outer loop
      vertex -17.5212 28.213 23.1
      vertex -19.3081 28.6919 23.6
      vertex -17.5212 28.213 23.6
    endloop
  endfacet
  facet normal 0.25882 0.965926 0
    outer loop
      vertex -19.3081 28.6919 23.6
      vertex -17.5212 28.213 23.1
      vertex -19.3081 28.6919 23.1
    endloop
  endfacet
  facet normal -0.258819 -0.965926 0
    outer loop
      vertex 17.5212 31.787 23.1
      vertex 19.3081 31.3081 23.6
      vertex 17.5212 31.787 23.6
    endloop
  endfacet
  facet normal -0.258819 -0.965926 -0
    outer loop
      vertex 19.3081 31.3081 23.6
      vertex 17.5212 31.787 23.1
      vertex 19.3081 31.3081 23.1
    endloop
  endfacet
  facet normal 0.707107 -0.707107 0
    outer loop
      vertex 16.213 30.4788 23.6
      vertex 17.5212 31.787 23.1
      vertex 17.5212 31.787 23.6
    endloop
  endfacet
  facet normal 0.707107 -0.707107 0
    outer loop
      vertex 17.5212 31.787 23.1
      vertex 16.213 30.4788 23.6
      vertex 16.213 30.4788 23.1
    endloop
  endfacet
  facet normal 0.965926 0.25882 0
    outer loop
      vertex 16.6919 28.6919 23.6
      vertex 16.213 30.4788 23.1
      vertex 16.213 30.4788 23.6
    endloop
  endfacet
  facet normal 0.965926 0.25882 0
    outer loop
      vertex 16.213 30.4788 23.1
      vertex 16.6919 28.6919 23.6
      vertex 16.6919 28.6919 23.1
    endloop
  endfacet
  facet normal -0.965926 -0.258819 0
    outer loop
      vertex 19.787 29.5212 23.1
      vertex 19.3081 31.3081 23.6
      vertex 19.3081 31.3081 23.1
    endloop
  endfacet
  facet normal -0.965926 -0.258819 0
    outer loop
      vertex 19.3081 31.3081 23.6
      vertex 19.787 29.5212 23.1
      vertex 19.787 29.5212 23.6
    endloop
  endfacet
  facet normal -0.707107 0.707107 0
    outer loop
      vertex 18.4788 28.213 23.1
      vertex 19.787 29.5212 23.6
      vertex 19.787 29.5212 23.1
    endloop
  endfacet
  facet normal -0.707107 0.707107 0
    outer loop
      vertex 19.787 29.5212 23.6
      vertex 18.4788 28.213 23.1
      vertex 18.4788 28.213 23.6
    endloop
  endfacet
  facet normal 0.25882 0.965926 -0
    outer loop
      vertex 18.4788 28.213 23.1
      vertex 16.6919 28.6919 23.6
      vertex 18.4788 28.213 23.6
    endloop
  endfacet
  facet normal 0.25882 0.965926 0
    outer loop
      vertex 16.6919 28.6919 23.6
      vertex 18.4788 28.213 23.1
      vertex 16.6919 28.6919 23.1
    endloop
  endfacet
  facet normal -0.25882 -0.965926 0
    outer loop
      vertex 17.5212 -28.213 23.1
      vertex 19.3081 -28.6919 23.6
      vertex 17.5212 -28.213 23.6
    endloop
  endfacet
  facet normal -0.25882 -0.965926 -0
    outer loop
      vertex 19.3081 -28.6919 23.6
      vertex 17.5212 -28.213 23.1
      vertex 19.3081 -28.6919 23.1
    endloop
  endfacet
  facet normal 0.707107 -0.707107 0
    outer loop
      vertex 16.213 -29.5212 23.6
      vertex 17.5212 -28.213 23.1
      vertex 17.5212 -28.213 23.6
    endloop
  endfacet
  facet normal 0.707107 -0.707107 0
    outer loop
      vertex 17.5212 -28.213 23.1
      vertex 16.213 -29.5212 23.6
      vertex 16.213 -29.5212 23.1
    endloop
  endfacet
  facet normal 0.258819 0.965926 -0
    outer loop
      vertex 18.4788 -31.787 23.1
      vertex 16.6919 -31.3081 23.6
      vertex 18.4788 -31.787 23.6
    endloop
  endfacet
  facet normal 0.258819 0.965926 0
    outer loop
      vertex 16.6919 -31.3081 23.6
      vertex 18.4788 -31.787 23.1
      vertex 16.6919 -31.3081 23.1
    endloop
  endfacet
  facet normal 0.965926 0.25882 0
    outer loop
      vertex 16.6919 -31.3081 23.6
      vertex 16.213 -29.5212 23.1
      vertex 16.213 -29.5212 23.6
    endloop
  endfacet
  facet normal 0.965926 0.25882 0
    outer loop
      vertex 16.213 -29.5212 23.1
      vertex 16.6919 -31.3081 23.6
      vertex 16.6919 -31.3081 23.1
    endloop
  endfacet
  facet normal -0.965926 -0.258819 0
    outer loop
      vertex 19.787 -30.4788 23.1
      vertex 19.3081 -28.6919 23.6
      vertex 19.3081 -28.6919 23.1
    endloop
  endfacet
  facet normal -0.965926 -0.258819 0
    outer loop
      vertex 19.3081 -28.6919 23.6
      vertex 19.787 -30.4788 23.1
      vertex 19.787 -30.4788 23.6
    endloop
  endfacet
  facet normal -0.707107 0.707107 0
    outer loop
      vertex 18.4788 -31.787 23.1
      vertex 19.787 -30.4788 23.6
      vertex 19.787 -30.4788 23.1
    endloop
  endfacet
  facet normal -0.707107 0.707107 0
    outer loop
      vertex 19.787 -30.4788 23.6
      vertex 18.4788 -31.787 23.1
      vertex 18.4788 -31.787 23.6
    endloop
  endfacet
  facet normal -0.25882 -0.965926 0
    outer loop
      vertex -18.4788 -28.213 23.1
      vertex -16.6919 -28.6919 23.6
      vertex -18.4788 -28.213 23.6
    endloop
  endfacet
  facet normal -0.25882 -0.965926 -0
    outer loop
      vertex -16.6919 -28.6919 23.6
      vertex -18.4788 -28.213 23.1
      vertex -16.6919 -28.6919 23.1
    endloop
  endfacet
  facet normal 0.707107 -0.707107 0
    outer loop
      vertex -19.787 -29.5212 23.6
      vertex -18.4788 -28.213 23.1
      vertex -18.4788 -28.213 23.6
    endloop
  endfacet
  facet normal 0.707107 -0.707107 0
    outer loop
      vertex -18.4788 -28.213 23.1
      vertex -19.787 -29.5212 23.6
      vertex -19.787 -29.5212 23.1
    endloop
  endfacet
  facet normal 0.965926 0.258819 0
    outer loop
      vertex -19.3081 -31.3081 23.6
      vertex -19.787 -29.5212 23.1
      vertex -19.787 -29.5212 23.6
    endloop
  endfacet
  facet normal 0.965926 0.258819 0
    outer loop
      vertex -19.787 -29.5212 23.1
      vertex -19.3081 -31.3081 23.6
      vertex -19.3081 -31.3081 23.1
    endloop
  endfacet
  facet normal -0.965926 -0.25882 0
    outer loop
      vertex -16.213 -30.4788 23.1
      vertex -16.6919 -28.6919 23.6
      vertex -16.6919 -28.6919 23.1
    endloop
  endfacet
  facet normal -0.965926 -0.25882 0
    outer loop
      vertex -16.6919 -28.6919 23.6
      vertex -16.213 -30.4788 23.1
      vertex -16.213 -30.4788 23.6
    endloop
  endfacet
  facet normal -0.707107 0.707107 0
    outer loop
      vertex -17.5212 -31.787 23.1
      vertex -16.213 -30.4788 23.6
      vertex -16.213 -30.4788 23.1
    endloop
  endfacet
  facet normal -0.707107 0.707107 0
    outer loop
      vertex -16.213 -30.4788 23.6
      vertex -17.5212 -31.787 23.1
      vertex -17.5212 -31.787 23.6
    endloop
  endfacet
  facet normal 0.258819 0.965926 -0
    outer loop
      vertex -17.5212 -31.787 23.1
      vertex -19.3081 -31.3081 23.6
      vertex -17.5212 -31.787 23.6
    endloop
  endfacet
  facet normal 0.258819 0.965926 0
    outer loop
      vertex -19.3081 -31.3081 23.6
      vertex -17.5212 -31.787 23.1
      vertex -19.3081 -31.3081 23.1
    endloop
  endfacet
  facet normal -1 0 0
    outer loop
      vertex -22 -47.5 23.1
      vertex -22 47.5 23.6
      vertex -22 47.5 23.1
    endloop
  endfacet
  facet normal -1 -0 0
    outer loop
      vertex -22 47.5 23.6
      vertex -22 -47.5 23.1
      vertex -22 -47.5 23.6
    endloop
  endfacet
  facet normal 0 0 1
    outer loop
      vertex -16.213 -20.4788 23.6
      vertex -16.6919 -28.6919 23.6
      vertex -16.213 -30.4788 23.6
    endloop
  endfacet
  facet normal -0 0 1
    outer loop
      vertex -17.5212 -21.787 23.6
      vertex -16.6919 -28.6919 23.6
      vertex -16.213 -20.4788 23.6
    endloop
  endfacet
  facet normal 0 0 1
    outer loop
      vertex -17.5212 -21.787 23.6
      vertex -18.4788 -28.213 23.6
      vertex -16.6919 -28.6919 23.6
    endloop
  endfacet
  facet normal 0 0 1
    outer loop
      vertex -19.3081 -21.3081 23.6
      vertex -18.4788 -28.213 23.6
      vertex -17.5212 -21.787 23.6
    endloop
  endfacet
  facet normal 0 0 1
    outer loop
      vertex -19.787 -29.5212 23.6
      vertex -19.3081 -21.3081 23.6
      vertex -19.787 -19.5212 23.6
    endloop
  endfacet
  facet normal 0 0 1
    outer loop
      vertex -19.3081 -21.3081 23.6
      vertex -19.787 -29.5212 23.6
      vertex -18.4788 -28.213 23.6
    endloop
  endfacet
  facet normal 0 0 1
    outer loop
      vertex -16.213 -7.47882 23.6
      vertex -16.6919 -18.6919 23.6
      vertex -16.213 -20.4788 23.6
    endloop
  endfacet
  facet normal -0 0 1
    outer loop
      vertex -17.5212 -8.78696 23.6
      vertex -16.6919 -18.6919 23.6
      vertex -16.213 -7.47882 23.6
    endloop
  endfacet
  facet normal 0 0 1
    outer loop
      vertex -17.5212 -8.78696 23.6
      vertex -18.4788 -18.213 23.6
      vertex -16.6919 -18.6919 23.6
    endloop
  endfacet
  facet normal 0 0 1
    outer loop
      vertex -19.3081 -8.30815 23.6
      vertex -18.4788 -18.213 23.6
      vertex -17.5212 -8.78696 23.6
    endloop
  endfacet
  facet normal 0 0 1
    outer loop
      vertex -19.787 -19.5212 23.6
      vertex -19.3081 -8.30815 23.6
      vertex -19.787 -6.52118 23.6
    endloop
  endfacet
  facet normal 0 0 1
    outer loop
      vertex -19.3081 -8.30815 23.6
      vertex -19.787 -19.5212 23.6
      vertex -18.4788 -18.213 23.6
    endloop
  endfacet
  facet normal 0 0 1
    outer loop
      vertex -16.213 6.52118 23.6
      vertex -16.6919 -5.69185 23.6
      vertex -16.213 -7.47882 23.6
    endloop
  endfacet
  facet normal -0 0 1
    outer loop
      vertex -17.5212 5.21304 23.6
      vertex -16.6919 -5.69185 23.6
      vertex -16.213 6.52118 23.6
    endloop
  endfacet
  facet normal 0 0 1
    outer loop
      vertex -17.5212 5.21304 23.6
      vertex -18.4788 -5.21304 23.6
      vertex -16.6919 -5.69185 23.6
    endloop
  endfacet
  facet normal 0 0 1
    outer loop
      vertex -19.3081 5.69185 23.6
      vertex -18.4788 -5.21304 23.6
      vertex -17.5212 5.21304 23.6
    endloop
  endfacet
  facet normal 0 0 1
    outer loop
      vertex -19.787 -6.52118 23.6
      vertex -19.3081 5.69185 23.6
      vertex -19.787 7.47882 23.6
    endloop
  endfacet
  facet normal 0 0 1
    outer loop
      vertex -19.3081 5.69185 23.6
      vertex -19.787 -6.52118 23.6
      vertex -18.4788 -5.21304 23.6
    endloop
  endfacet
  facet normal 0 0 1
    outer loop
      vertex -16.213 19.5212 23.6
      vertex -16.6919 8.30815 23.6
      vertex -16.213 6.52118 23.6
    endloop
  endfacet
  facet normal -0 0 1
    outer loop
      vertex -17.5212 18.213 23.6
      vertex -16.6919 8.30815 23.6
      vertex -16.213 19.5212 23.6
    endloop
  endfacet
  facet normal 0 0 1
    outer loop
      vertex -17.5212 18.213 23.6
      vertex -18.4788 8.78696 23.6
      vertex -16.6919 8.30815 23.6
    endloop
  endfacet
  facet normal 0 0 1
    outer loop
      vertex -19.3081 18.6919 23.6
      vertex -18.4788 8.78696 23.6
      vertex -17.5212 18.213 23.6
    endloop
  endfacet
  facet normal 0 0 1
    outer loop
      vertex -19.787 7.47882 23.6
      vertex -19.3081 18.6919 23.6
      vertex -19.787 20.4788 23.6
    endloop
  endfacet
  facet normal 0 0 1
    outer loop
      vertex -19.3081 18.6919 23.6
      vertex -19.787 7.47882 23.6
      vertex -18.4788 8.78696 23.6
    endloop
  endfacet
  facet normal 0 0 1
    outer loop
      vertex -16.213 29.5212 23.6
      vertex -16.6919 21.3081 23.6
      vertex -16.213 19.5212 23.6
    endloop
  endfacet
  facet normal -0 0 1
    outer loop
      vertex -17.5212 28.213 23.6
      vertex -16.6919 21.3081 23.6
      vertex -16.213 29.5212 23.6
    endloop
  endfacet
  facet normal 0 0 1
    outer loop
      vertex -17.5212 28.213 23.6
      vertex -18.4788 21.787 23.6
      vertex -16.6919 21.3081 23.6
    endloop
  endfacet
  facet normal 0 0 1
    outer loop
      vertex -19.3081 28.6919 23.6
      vertex -18.4788 21.787 23.6
      vertex -17.5212 28.213 23.6
    endloop
  endfacet
  facet normal 0 0 1
    outer loop
      vertex -19.787 20.4788 23.6
      vertex -19.3081 28.6919 23.6
      vertex -19.787 30.4788 23.6
    endloop
  endfacet
  facet normal 0 0 1
    outer loop
      vertex -19.3081 28.6919 23.6
      vertex -19.787 20.4788 23.6
      vertex -18.4788 21.787 23.6
    endloop
  endfacet
  facet normal 0 0 1
    outer loop
      vertex 14 -38.5 23.6
      vertex 9.30815 -40.6919 23.6
      vertex 9.78696 -42.4788 23.6
    endloop
  endfacet
  facet normal 0 0 1
    outer loop
      vertex 14 -38.5 23.6
      vertex 7.52118 -40.213 23.6
      vertex 9.30815 -40.6919 23.6
    endloop
  endfacet
  facet normal -0 0 1
    outer loop
      vertex -6.69185 -40.6919 23.6
      vertex 6.21304 -41.5212 23.6
      vertex 7.52118 -40.213 23.6
    endloop
  endfacet
  facet normal -0 0 1
    outer loop
      vertex -13 -38.5 23.6
      vertex 7.52118 -40.213 23.6
      vertex 14 -38.5 23.6
    endloop
  endfacet
  facet normal 0 0 1
    outer loop
      vertex 6.21304 -41.5212 23.6
      vertex -6.69185 -40.6919 23.6
      vertex -6.21304 -42.4788 23.6
    endloop
  endfacet
  facet normal 0 0 1
    outer loop
      vertex 7.52118 -40.213 23.6
      vertex -8.47882 -40.213 23.6
      vertex -6.69185 -40.6919 23.6
    endloop
  endfacet
  facet normal 0 0 1
    outer loop
      vertex -8.47882 -40.213 23.6
      vertex -13 -38.5 23.6
      vertex -9.78696 -41.5212 23.6
    endloop
  endfacet
  facet normal 0 0 1
    outer loop
      vertex 7.52118 -40.213 23.6
      vertex -13 -38.5 23.6
      vertex -8.47882 -40.213 23.6
    endloop
  endfacet
  facet normal 0 0 1
    outer loop
      vertex 19.787 -20.4788 23.6
      vertex 19.3081 -28.6919 23.6
      vertex 19.787 -30.4788 23.6
    endloop
  endfacet
  facet normal -0 0 1
    outer loop
      vertex 18.4788 -21.787 23.6
      vertex 19.3081 -28.6919 23.6
      vertex 19.787 -20.4788 23.6
    endloop
  endfacet
  facet normal 0 0 1
    outer loop
      vertex 18.4788 -21.787 23.6
      vertex 17.5212 -28.213 23.6
      vertex 19.3081 -28.6919 23.6
    endloop
  endfacet
  facet normal 0 0 1
    outer loop
      vertex 16.6919 -21.3081 23.6
      vertex 17.5212 -28.213 23.6
      vertex 18.4788 -21.787 23.6
    endloop
  endfacet
  facet normal 0 0 1
    outer loop
      vertex 16.213 -29.5212 23.6
      vertex 16.6919 -21.3081 23.6
      vertex 16.213 -19.5212 23.6
    endloop
  endfacet
  facet normal 0 0 1
    outer loop
      vertex 16.6919 -21.3081 23.6
      vertex 16.213 -29.5212 23.6
      vertex 17.5212 -28.213 23.6
    endloop
  endfacet
  facet normal 0 0 1
    outer loop
      vertex 19.787 -7.47882 23.6
      vertex 19.3081 -18.6919 23.6
      vertex 19.787 -20.4788 23.6
    endloop
  endfacet
  facet normal -0 0 1
    outer loop
      vertex 18.4788 -8.78696 23.6
      vertex 19.3081 -18.6919 23.6
      vertex 19.787 -7.47882 23.6
    endloop
  endfacet
  facet normal 0 0 1
    outer loop
      vertex 18.4788 -8.78696 23.6
      vertex 17.5212 -18.213 23.6
      vertex 19.3081 -18.6919 23.6
    endloop
  endfacet
  facet normal 0 0 1
    outer loop
      vertex 16.6919 -8.30815 23.6
      vertex 17.5212 -18.213 23.6
      vertex 18.4788 -8.78696 23.6
    endloop
  endfacet
  facet normal 0 0 1
    outer loop
      vertex 16.213 -19.5212 23.6
      vertex 16.6919 -8.30815 23.6
      vertex 16.213 -6.52118 23.6
    endloop
  endfacet
  facet normal 0 0 1
    outer loop
      vertex 16.6919 -8.30815 23.6
      vertex 16.213 -19.5212 23.6
      vertex 17.5212 -18.213 23.6
    endloop
  endfacet
  facet normal 0 0 1
    outer loop
      vertex 19.787 6.52118 23.6
      vertex 19.3081 -5.69185 23.6
      vertex 19.787 -7.47882 23.6
    endloop
  endfacet
  facet normal -0 0 1
    outer loop
      vertex 18.4788 5.21304 23.6
      vertex 19.3081 -5.69185 23.6
      vertex 19.787 6.52118 23.6
    endloop
  endfacet
  facet normal 0 0 1
    outer loop
      vertex 18.4788 5.21304 23.6
      vertex 17.5212 -5.21304 23.6
      vertex 19.3081 -5.69185 23.6
    endloop
  endfacet
  facet normal 0 0 1
    outer loop
      vertex 16.6919 5.69185 23.6
      vertex 17.5212 -5.21304 23.6
      vertex 18.4788 5.21304 23.6
    endloop
  endfacet
  facet normal 0 0 1
    outer loop
      vertex 16.213 -6.52118 23.6
      vertex 16.6919 5.69185 23.6
      vertex 16.213 7.47882 23.6
    endloop
  endfacet
  facet normal 0 0 1
    outer loop
      vertex 16.6919 5.69185 23.6
      vertex 16.213 -6.52118 23.6
      vertex 17.5212 -5.21304 23.6
    endloop
  endfacet
  facet normal 0 0 1
    outer loop
      vertex 19.787 19.5212 23.6
      vertex 19.3081 8.30815 23.6
      vertex 19.787 6.52118 23.6
    endloop
  endfacet
  facet normal -0 0 1
    outer loop
      vertex 18.4788 18.213 23.6
      vertex 19.3081 8.30815 23.6
      vertex 19.787 19.5212 23.6
    endloop
  endfacet
  facet normal 0 0 1
    outer loop
      vertex 18.4788 18.213 23.6
      vertex 17.5212 8.78696 23.6
      vertex 19.3081 8.30815 23.6
    endloop
  endfacet
  facet normal 0 0 1
    outer loop
      vertex 16.6919 18.6919 23.6
      vertex 17.5212 8.78696 23.6
      vertex 18.4788 18.213 23.6
    endloop
  endfacet
  facet normal 0 0 1
    outer loop
      vertex 16.213 7.47882 23.6
      vertex 16.6919 18.6919 23.6
      vertex 16.213 20.4788 23.6
    endloop
  endfacet
  facet normal 0 0 1
    outer loop
      vertex 16.6919 18.6919 23.6
      vertex 16.213 7.47882 23.6
      vertex 17.5212 8.78696 23.6
    endloop
  endfacet
  facet normal 0 0 1
    outer loop
      vertex 19.787 29.5212 23.6
      vertex 19.3081 21.3081 23.6
      vertex 19.787 19.5212 23.6
    endloop
  endfacet
  facet normal -0 0 1
    outer loop
      vertex 18.4788 28.213 23.6
      vertex 19.3081 21.3081 23.6
      vertex 19.787 29.5212 23.6
    endloop
  endfacet
  facet normal 0 0 1
    outer loop
      vertex 18.4788 28.213 23.6
      vertex 17.5212 21.787 23.6
      vertex 19.3081 21.3081 23.6
    endloop
  endfacet
  facet normal 0 0 1
    outer loop
      vertex 16.6919 28.6919 23.6
      vertex 17.5212 21.787 23.6
      vertex 18.4788 28.213 23.6
    endloop
  endfacet
  facet normal 0 0 1
    outer loop
      vertex 16.213 20.4788 23.6
      vertex 16.6919 28.6919 23.6
      vertex 16.213 30.4788 23.6
    endloop
  endfacet
  facet normal 0 0 1
    outer loop
      vertex 16.6919 28.6919 23.6
      vertex 16.213 20.4788 23.6
      vertex 17.5212 21.787 23.6
    endloop
  endfacet
  facet normal 0 0 1
    outer loop
      vertex 19.787 19.5212 23.6
      vertex 23 47.5 23.6
      vertex 19.787 29.5212 23.6
    endloop
  endfacet
  facet normal 0 0 1
    outer loop
      vertex 23 47.5 23.6
      vertex 19.3081 31.3081 23.6
      vertex 19.787 29.5212 23.6
    endloop
  endfacet
  facet normal -0 0 1
    outer loop
      vertex 14 38.5 23.6
      vertex 19.3081 31.3081 23.6
      vertex 23 47.5 23.6
    endloop
  endfacet
  facet normal 0 0 1
    outer loop
      vertex 19.3081 31.3081 23.6
      vertex 14 38.5 23.6
      vertex 17.5212 31.787 23.6
    endloop
  endfacet
  facet normal 0 0 1
    outer loop
      vertex 14 38.5 23.6
      vertex 16.213 20.4788 23.6
      vertex 16.213 30.4788 23.6
    endloop
  endfacet
  facet normal 0 0 1
    outer loop
      vertex 16.213 20.4788 23.6
      vertex 14 38.5 23.6
      vertex 16.213 7.47882 23.6
    endloop
  endfacet
  facet normal 0 0 1
    outer loop
      vertex 16.213 7.47882 23.6
      vertex 14 38.5 23.6
      vertex 16.213 -6.52118 23.6
    endloop
  endfacet
  facet normal 0 0 1
    outer loop
      vertex 14 -38.5 23.6
      vertex 16.213 -6.52118 23.6
      vertex 14 38.5 23.6
    endloop
  endfacet
  facet normal 0 0 1
    outer loop
      vertex 16.213 -6.52118 23.6
      vertex 14 -38.5 23.6
      vertex 16.213 -19.5212 23.6
    endloop
  endfacet
  facet normal 0 0 1
    outer loop
      vertex 17.5212 31.787 23.6
      vertex 14 38.5 23.6
      vertex 16.213 30.4788 23.6
    endloop
  endfacet
  facet normal -0 0 1
    outer loop
      vertex 9.30815 43.3081 23.6
      vertex 14 38.5 23.6
      vertex 23 47.5 23.6
    endloop
  endfacet
  facet normal 0 0 1
    outer loop
      vertex 14 38.5 23.6
      vertex 9.30815 43.3081 23.6
      vertex 9.78696 41.5212 23.6
    endloop
  endfacet
  facet normal 0 0 1
    outer loop
      vertex 23 47.5 23.6
      vertex 7.52118 43.787 23.6
      vertex 9.30815 43.3081 23.6
    endloop
  endfacet
  facet normal -0 0 1
    outer loop
      vertex -6.69185 43.3081 23.6
      vertex 6.21304 42.4788 23.6
      vertex 7.52118 43.787 23.6
    endloop
  endfacet
  facet normal -0 0 1
    outer loop
      vertex -22 47.5 23.6
      vertex 7.52118 43.787 23.6
      vertex 23 47.5 23.6
    endloop
  endfacet
  facet normal 0 0 1
    outer loop
      vertex 6.21304 42.4788 23.6
      vertex -6.69185 43.3081 23.6
      vertex -6.21304 41.5212 23.6
    endloop
  endfacet
  facet normal 0 0 1
    outer loop
      vertex 7.52118 43.787 23.6
      vertex -8.47882 43.787 23.6
      vertex -6.69185 43.3081 23.6
    endloop
  endfacet
  facet normal 0 0 1
    outer loop
      vertex -16.213 19.5212 23.6
      vertex -13 38.5 23.6
      vertex -16.213 29.5212 23.6
    endloop
  endfacet
  facet normal 0 0 1
    outer loop
      vertex -13 38.5 23.6
      vertex -16.6919 31.3081 23.6
      vertex -16.213 29.5212 23.6
    endloop
  endfacet
  facet normal 0 0 1
    outer loop
      vertex -13 38.5 23.6
      vertex -18.4788 31.787 23.6
      vertex -16.6919 31.3081 23.6
    endloop
  endfacet
  facet normal 0 0 1
    outer loop
      vertex -22 47.5 23.6
      vertex -13 38.5 23.6
      vertex -9.78696 42.4788 23.6
    endloop
  endfacet
  facet normal 0 0 1
    outer loop
      vertex -13 38.5 23.6
      vertex -22 47.5 23.6
      vertex -18.4788 31.787 23.6
    endloop
  endfacet
  facet normal 0 0 1
    outer loop
      vertex -22 47.5 23.6
      vertex -19.787 20.4788 23.6
      vertex -19.787 30.4788 23.6
    endloop
  endfacet
  facet normal 0 0 1
    outer loop
      vertex -19.787 20.4788 23.6
      vertex -22 47.5 23.6
      vertex -19.787 7.47882 23.6
    endloop
  endfacet
  facet normal 0 0 1
    outer loop
      vertex -19.787 7.47882 23.6
      vertex -22 47.5 23.6
      vertex -19.787 -6.52118 23.6
    endloop
  endfacet
  facet normal 0 0 1
    outer loop
      vertex -22 -47.5 23.6
      vertex -19.787 -6.52118 23.6
      vertex -22 47.5 23.6
    endloop
  endfacet
  facet normal 0 0 1
    outer loop
      vertex -19.787 -6.52118 23.6
      vertex -22 -47.5 23.6
      vertex -19.787 -19.5212 23.6
    endloop
  endfacet
  facet normal 0 0 1
    outer loop
      vertex -18.4788 31.787 23.6
      vertex -22 47.5 23.6
      vertex -19.787 30.4788 23.6
    endloop
  endfacet
  facet normal 0 0 1
    outer loop
      vertex -8.47882 43.787 23.6
      vertex -22 47.5 23.6
      vertex -9.78696 42.4788 23.6
    endloop
  endfacet
  facet normal 0 0 1
    outer loop
      vertex 7.52118 43.787 23.6
      vertex -22 47.5 23.6
      vertex -8.47882 43.787 23.6
    endloop
  endfacet
  facet normal 0 0 1
    outer loop
      vertex 19.787 6.52118 23.6
      vertex 23 47.5 23.6
      vertex 19.787 19.5212 23.6
    endloop
  endfacet
  facet normal 0 0 1
    outer loop
      vertex 23 47.5 23.6
      vertex 19.787 6.52118 23.6
      vertex 23 -47.5 23.6
    endloop
  endfacet
  facet normal -0 0 1
    outer loop
      vertex 19.787 -7.47882 23.6
      vertex 23 -47.5 23.6
      vertex 19.787 6.52118 23.6
    endloop
  endfacet
  facet normal -0 0 1
    outer loop
      vertex 19.787 -20.4788 23.6
      vertex 23 -47.5 23.6
      vertex 19.787 -7.47882 23.6
    endloop
  endfacet
  facet normal -0 0 1
    outer loop
      vertex 19.787 -30.4788 23.6
      vertex 23 -47.5 23.6
      vertex 19.787 -20.4788 23.6
    endloop
  endfacet
  facet normal -0 0 1
    outer loop
      vertex 18.4788 -31.787 23.6
      vertex 23 -47.5 23.6
      vertex 19.787 -30.4788 23.6
    endloop
  endfacet
  facet normal 0 0 1
    outer loop
      vertex 14 -38.5 23.6
      vertex 18.4788 -31.787 23.6
      vertex 16.6919 -31.3081 23.6
    endloop
  endfacet
  facet normal 0 0 1
    outer loop
      vertex 16.213 -19.5212 23.6
      vertex 14 -38.5 23.6
      vertex 16.213 -29.5212 23.6
    endloop
  endfacet
  facet normal 0 0 1
    outer loop
      vertex 14 -38.5 23.6
      vertex 16.6919 -31.3081 23.6
      vertex 16.213 -29.5212 23.6
    endloop
  endfacet
  facet normal 0 0 1
    outer loop
      vertex 18.4788 -31.787 23.6
      vertex 14 -38.5 23.6
      vertex 23 -47.5 23.6
    endloop
  endfacet
  facet normal -0 0 1
    outer loop
      vertex 9.78696 -42.4788 23.6
      vertex 23 -47.5 23.6
      vertex 14 -38.5 23.6
    endloop
  endfacet
  facet normal -0 0 1
    outer loop
      vertex 8.47882 -43.787 23.6
      vertex 23 -47.5 23.6
      vertex 9.78696 -42.4788 23.6
    endloop
  endfacet
  facet normal -0 0 1
    outer loop
      vertex -6.21304 -42.4788 23.6
      vertex 6.69185 -43.3081 23.6
      vertex 6.21304 -41.5212 23.6
    endloop
  endfacet
  facet normal 0 0 1
    outer loop
      vertex -7.52118 -43.787 23.6
      vertex 6.69185 -43.3081 23.6
      vertex -6.21304 -42.4788 23.6
    endloop
  endfacet
  facet normal 0 0 1
    outer loop
      vertex 6.69185 -43.3081 23.6
      vertex -7.52118 -43.787 23.6
      vertex 8.47882 -43.787 23.6
    endloop
  endfacet
  facet normal 0 0 1
    outer loop
      vertex 8.47882 -43.787 23.6
      vertex -7.52118 -43.787 23.6
      vertex 23 -47.5 23.6
    endloop
  endfacet
  facet normal 0 0 1
    outer loop
      vertex -13 -38.5 23.6
      vertex -9.30815 -43.3081 23.6
      vertex -9.78696 -41.5212 23.6
    endloop
  endfacet
  facet normal 0 0 1
    outer loop
      vertex -16.213 6.52118 23.6
      vertex -13 38.5 23.6
      vertex -16.213 19.5212 23.6
    endloop
  endfacet
  facet normal 0 0 1
    outer loop
      vertex -13 38.5 23.6
      vertex -16.213 6.52118 23.6
      vertex -13 -38.5 23.6
    endloop
  endfacet
  facet normal -0 0 1
    outer loop
      vertex -16.213 -7.47882 23.6
      vertex -13 -38.5 23.6
      vertex -16.213 6.52118 23.6
    endloop
  endfacet
  facet normal -0 0 1
    outer loop
      vertex -16.213 -20.4788 23.6
      vertex -13 -38.5 23.6
      vertex -16.213 -7.47882 23.6
    endloop
  endfacet
  facet normal -0 0 1
    outer loop
      vertex -16.213 -30.4788 23.6
      vertex -13 -38.5 23.6
      vertex -16.213 -20.4788 23.6
    endloop
  endfacet
  facet normal -0 0 1
    outer loop
      vertex -17.5212 -31.787 23.6
      vertex -13 -38.5 23.6
      vertex -16.213 -30.4788 23.6
    endloop
  endfacet
  facet normal 0 0 1
    outer loop
      vertex -19.3081 -31.3081 23.6
      vertex -13 -38.5 23.6
      vertex -17.5212 -31.787 23.6
    endloop
  endfacet
  facet normal 0 0 1
    outer loop
      vertex -22 -47.5 23.6
      vertex -13 -38.5 23.6
      vertex -19.3081 -31.3081 23.6
    endloop
  endfacet
  facet normal 0 0 1
    outer loop
      vertex -7.52118 -43.787 23.6
      vertex -22 -47.5 23.6
      vertex 23 -47.5 23.6
    endloop
  endfacet
  facet normal 0 0 1
    outer loop
      vertex -9.30815 -43.3081 23.6
      vertex -22 -47.5 23.6
      vertex -7.52118 -43.787 23.6
    endloop
  endfacet
  facet normal 0 0 1
    outer loop
      vertex -13 -38.5 23.6
      vertex -22 -47.5 23.6
      vertex -9.30815 -43.3081 23.6
    endloop
  endfacet
  facet normal 0 0 1
    outer loop
      vertex -19.787 -29.5212 23.6
      vertex -22 -47.5 23.6
      vertex -19.3081 -31.3081 23.6
    endloop
  endfacet
  facet normal 0 0 1
    outer loop
      vertex -19.787 -19.5212 23.6
      vertex -22 -47.5 23.6
      vertex -19.787 -29.5212 23.6
    endloop
  endfacet
  facet normal -0 0 1
    outer loop
      vertex 8.47882 40.213 23.6
      vertex 14 38.5 23.6
      vertex 9.78696 41.5212 23.6
    endloop
  endfacet
  facet normal 0 0 1
    outer loop
      vertex -7.52118 40.213 23.6
      vertex 8.47882 40.213 23.6
      vertex 6.69185 40.6919 23.6
    endloop
  endfacet
  facet normal -0 0 1
    outer loop
      vertex -6.21304 41.5212 23.6
      vertex 6.69185 40.6919 23.6
      vertex 6.21304 42.4788 23.6
    endloop
  endfacet
  facet normal 0 0 1
    outer loop
      vertex -7.52118 40.213 23.6
      vertex 6.69185 40.6919 23.6
      vertex -6.21304 41.5212 23.6
    endloop
  endfacet
  facet normal 0 0 1
    outer loop
      vertex 8.47882 40.213 23.6
      vertex -7.52118 40.213 23.6
      vertex 14 38.5 23.6
    endloop
  endfacet
  facet normal 0 0 1
    outer loop
      vertex -7.52118 40.213 23.6
      vertex -13 38.5 23.6
      vertex 14 38.5 23.6
    endloop
  endfacet
  facet normal 0 0 1
    outer loop
      vertex -9.30815 40.6919 23.6
      vertex -13 38.5 23.6
      vertex -7.52118 40.213 23.6
    endloop
  endfacet
  facet normal 0 0 1
    outer loop
      vertex -13 38.5 23.6
      vertex -9.30815 40.6919 23.6
      vertex -9.78696 42.4788 23.6
    endloop
  endfacet
  facet normal 1 -0 0
    outer loop
      vertex 23 -47.5 23.6
      vertex 23 47.5 23.1
      vertex 23 47.5 23.6
    endloop
  endfacet
  facet normal 1 0 0
    outer loop
      vertex 23 47.5 23.1
      vertex 23 -47.5 23.6
      vertex 23 -47.5 23.1
    endloop
  endfacet
  facet normal 0 0 -1
    outer loop
      vertex -16.6919 21.3081 23.1
      vertex -16.213 29.5212 23.1
      vertex -16.213 19.5212 23.1
    endloop
  endfacet
  facet normal 0 0 -1
    outer loop
      vertex -16.6919 21.3081 23.1
      vertex -17.5212 28.213 23.1
      vertex -16.213 29.5212 23.1
    endloop
  endfacet
  facet normal 0 0 -1
    outer loop
      vertex -18.4788 21.787 23.1
      vertex -17.5212 28.213 23.1
      vertex -16.6919 21.3081 23.1
    endloop
  endfacet
  facet normal 0 0 -1
    outer loop
      vertex -18.4788 21.787 23.1
      vertex -19.3081 28.6919 23.1
      vertex -17.5212 28.213 23.1
    endloop
  endfacet
  facet normal 0 0 -1
    outer loop
      vertex -19.787 20.4788 23.1
      vertex -19.3081 28.6919 23.1
      vertex -18.4788 21.787 23.1
    endloop
  endfacet
  facet normal -0 0 -1
    outer loop
      vertex -19.3081 28.6919 23.1
      vertex -19.787 20.4788 23.1
      vertex -19.787 30.4788 23.1
    endloop
  endfacet
  facet normal 0 0 -1
    outer loop
      vertex -16.6919 8.30815 23.1
      vertex -16.213 19.5212 23.1
      vertex -16.213 6.52118 23.1
    endloop
  endfacet
  facet normal 0 0 -1
    outer loop
      vertex -16.6919 8.30815 23.1
      vertex -17.5212 18.213 23.1
      vertex -16.213 19.5212 23.1
    endloop
  endfacet
  facet normal 0 0 -1
    outer loop
      vertex -18.4788 8.78696 23.1
      vertex -17.5212 18.213 23.1
      vertex -16.6919 8.30815 23.1
    endloop
  endfacet
  facet normal 0 0 -1
    outer loop
      vertex -18.4788 8.78696 23.1
      vertex -19.3081 18.6919 23.1
      vertex -17.5212 18.213 23.1
    endloop
  endfacet
  facet normal 0 0 -1
    outer loop
      vertex -19.787 7.47882 23.1
      vertex -19.3081 18.6919 23.1
      vertex -18.4788 8.78696 23.1
    endloop
  endfacet
  facet normal -0 0 -1
    outer loop
      vertex -19.3081 18.6919 23.1
      vertex -19.787 7.47882 23.1
      vertex -19.787 20.4788 23.1
    endloop
  endfacet
  facet normal 0 0 -1
    outer loop
      vertex -16.6919 -5.69185 23.1
      vertex -16.213 6.52118 23.1
      vertex -16.213 -7.47882 23.1
    endloop
  endfacet
  facet normal 0 0 -1
    outer loop
      vertex -16.6919 -5.69185 23.1
      vertex -17.5212 5.21304 23.1
      vertex -16.213 6.52118 23.1
    endloop
  endfacet
  facet normal 0 0 -1
    outer loop
      vertex -18.4788 -5.21304 23.1
      vertex -17.5212 5.21304 23.1
      vertex -16.6919 -5.69185 23.1
    endloop
  endfacet
  facet normal 0 0 -1
    outer loop
      vertex -18.4788 -5.21304 23.1
      vertex -19.3081 5.69185 23.1
      vertex -17.5212 5.21304 23.1
    endloop
  endfacet
  facet normal 0 0 -1
    outer loop
      vertex -19.787 -6.52118 23.1
      vertex -19.3081 5.69185 23.1
      vertex -18.4788 -5.21304 23.1
    endloop
  endfacet
  facet normal -0 0 -1
    outer loop
      vertex -19.3081 5.69185 23.1
      vertex -19.787 -6.52118 23.1
      vertex -19.787 7.47882 23.1
    endloop
  endfacet
  facet normal 0 0 -1
    outer loop
      vertex -16.6919 -18.6919 23.1
      vertex -16.213 -7.47882 23.1
      vertex -16.213 -20.4788 23.1
    endloop
  endfacet
  facet normal 0 0 -1
    outer loop
      vertex -16.6919 -18.6919 23.1
      vertex -17.5212 -8.78696 23.1
      vertex -16.213 -7.47882 23.1
    endloop
  endfacet
  facet normal 0 0 -1
    outer loop
      vertex -18.4788 -18.213 23.1
      vertex -17.5212 -8.78696 23.1
      vertex -16.6919 -18.6919 23.1
    endloop
  endfacet
  facet normal 0 0 -1
    outer loop
      vertex -18.4788 -18.213 23.1
      vertex -19.3081 -8.30815 23.1
      vertex -17.5212 -8.78696 23.1
    endloop
  endfacet
  facet normal 0 0 -1
    outer loop
      vertex -19.787 -19.5212 23.1
      vertex -19.3081 -8.30815 23.1
      vertex -18.4788 -18.213 23.1
    endloop
  endfacet
  facet normal -0 0 -1
    outer loop
      vertex -19.3081 -8.30815 23.1
      vertex -19.787 -19.5212 23.1
      vertex -19.787 -6.52118 23.1
    endloop
  endfacet
  facet normal 0 0 -1
    outer loop
      vertex -16.6919 -28.6919 23.1
      vertex -16.213 -20.4788 23.1
      vertex -16.213 -30.4788 23.1
    endloop
  endfacet
  facet normal 0 0 -1
    outer loop
      vertex -16.6919 -28.6919 23.1
      vertex -17.5212 -21.787 23.1
      vertex -16.213 -20.4788 23.1
    endloop
  endfacet
  facet normal 0 0 -1
    outer loop
      vertex -18.4788 -28.213 23.1
      vertex -17.5212 -21.787 23.1
      vertex -16.6919 -28.6919 23.1
    endloop
  endfacet
  facet normal 0 0 -1
    outer loop
      vertex -18.4788 -28.213 23.1
      vertex -19.3081 -21.3081 23.1
      vertex -17.5212 -21.787 23.1
    endloop
  endfacet
  facet normal 0 0 -1
    outer loop
      vertex -19.787 -29.5212 23.1
      vertex -19.3081 -21.3081 23.1
      vertex -18.4788 -28.213 23.1
    endloop
  endfacet
  facet normal -0 0 -1
    outer loop
      vertex -19.3081 -21.3081 23.1
      vertex -19.787 -29.5212 23.1
      vertex -19.787 -19.5212 23.1
    endloop
  endfacet
  facet normal 0 0 -1
    outer loop
      vertex 14 38.5 23.1
      vertex 8.47882 40.213 23.1
      vertex 9.78696 41.5212 23.1
    endloop
  endfacet
  facet normal 0 0 -1
    outer loop
      vertex -7.52118 40.213 23.1
      vertex 8.47882 40.213 23.1
      vertex 14 38.5 23.1
    endloop
  endfacet
  facet normal 0 0 -1
    outer loop
      vertex 6.69185 40.6919 23.1
      vertex -6.21304 41.5212 23.1
      vertex 6.21304 42.4788 23.1
    endloop
  endfacet
  facet normal 0 0 -1
    outer loop
      vertex 8.47882 40.213 23.1
      vertex -7.52118 40.213 23.1
      vertex 6.69185 40.6919 23.1
    endloop
  endfacet
  facet normal -0 0 -1
    outer loop
      vertex 6.69185 40.6919 23.1
      vertex -7.52118 40.213 23.1
      vertex -6.21304 41.5212 23.1
    endloop
  endfacet
  facet normal -0 0 -1
    outer loop
      vertex -9.30815 40.6919 23.1
      vertex -13 38.5 23.1
      vertex -9.78696 42.4788 23.1
    endloop
  endfacet
  facet normal -0 0 -1
    outer loop
      vertex -7.52118 40.213 23.1
      vertex -13 38.5 23.1
      vertex -9.30815 40.6919 23.1
    endloop
  endfacet
  facet normal 0 0 -1
    outer loop
      vertex -13 38.5 23.1
      vertex -7.52118 40.213 23.1
      vertex 14 38.5 23.1
    endloop
  endfacet
  facet normal 0 0 -1
    outer loop
      vertex 19.3081 21.3081 23.1
      vertex 19.787 29.5212 23.1
      vertex 19.787 19.5212 23.1
    endloop
  endfacet
  facet normal 0 0 -1
    outer loop
      vertex 19.3081 21.3081 23.1
      vertex 18.4788 28.213 23.1
      vertex 19.787 29.5212 23.1
    endloop
  endfacet
  facet normal 0 0 -1
    outer loop
      vertex 17.5212 21.787 23.1
      vertex 18.4788 28.213 23.1
      vertex 19.3081 21.3081 23.1
    endloop
  endfacet
  facet normal 0 0 -1
    outer loop
      vertex 17.5212 21.787 23.1
      vertex 16.6919 28.6919 23.1
      vertex 18.4788 28.213 23.1
    endloop
  endfacet
  facet normal 0 0 -1
    outer loop
      vertex 16.213 20.4788 23.1
      vertex 16.6919 28.6919 23.1
      vertex 17.5212 21.787 23.1
    endloop
  endfacet
  facet normal -0 0 -1
    outer loop
      vertex 16.6919 28.6919 23.1
      vertex 16.213 20.4788 23.1
      vertex 16.213 30.4788 23.1
    endloop
  endfacet
  facet normal 0 0 -1
    outer loop
      vertex 19.3081 8.30815 23.1
      vertex 19.787 19.5212 23.1
      vertex 19.787 6.52118 23.1
    endloop
  endfacet
  facet normal 0 0 -1
    outer loop
      vertex 19.3081 8.30815 23.1
      vertex 18.4788 18.213 23.1
      vertex 19.787 19.5212 23.1
    endloop
  endfacet
  facet normal 0 0 -1
    outer loop
      vertex 17.5212 8.78696 23.1
      vertex 18.4788 18.213 23.1
      vertex 19.3081 8.30815 23.1
    endloop
  endfacet
  facet normal 0 0 -1
    outer loop
      vertex 17.5212 8.78696 23.1
      vertex 16.6919 18.6919 23.1
      vertex 18.4788 18.213 23.1
    endloop
  endfacet
  facet normal 0 0 -1
    outer loop
      vertex 16.213 7.47882 23.1
      vertex 16.6919 18.6919 23.1
      vertex 17.5212 8.78696 23.1
    endloop
  endfacet
  facet normal -0 0 -1
    outer loop
      vertex 16.6919 18.6919 23.1
      vertex 16.213 7.47882 23.1
      vertex 16.213 20.4788 23.1
    endloop
  endfacet
  facet normal 0 0 -1
    outer loop
      vertex 19.3081 -5.69185 23.1
      vertex 19.787 6.52118 23.1
      vertex 19.787 -7.47882 23.1
    endloop
  endfacet
  facet normal 0 0 -1
    outer loop
      vertex 19.3081 -5.69185 23.1
      vertex 18.4788 5.21304 23.1
      vertex 19.787 6.52118 23.1
    endloop
  endfacet
  facet normal 0 0 -1
    outer loop
      vertex 17.5212 -5.21304 23.1
      vertex 18.4788 5.21304 23.1
      vertex 19.3081 -5.69185 23.1
    endloop
  endfacet
  facet normal 0 0 -1
    outer loop
      vertex 17.5212 -5.21304 23.1
      vertex 16.6919 5.69185 23.1
      vertex 18.4788 5.21304 23.1
    endloop
  endfacet
  facet normal 0 0 -1
    outer loop
      vertex 16.213 -6.52118 23.1
      vertex 16.6919 5.69185 23.1
      vertex 17.5212 -5.21304 23.1
    endloop
  endfacet
  facet normal -0 0 -1
    outer loop
      vertex 16.6919 5.69185 23.1
      vertex 16.213 -6.52118 23.1
      vertex 16.213 7.47882 23.1
    endloop
  endfacet
  facet normal 0 0 -1
    outer loop
      vertex 19.3081 -18.6919 23.1
      vertex 19.787 -7.47882 23.1
      vertex 19.787 -20.4788 23.1
    endloop
  endfacet
  facet normal 0 0 -1
    outer loop
      vertex 19.3081 -18.6919 23.1
      vertex 18.4788 -8.78696 23.1
      vertex 19.787 -7.47882 23.1
    endloop
  endfacet
  facet normal 0 0 -1
    outer loop
      vertex 17.5212 -18.213 23.1
      vertex 18.4788 -8.78696 23.1
      vertex 19.3081 -18.6919 23.1
    endloop
  endfacet
  facet normal 0 0 -1
    outer loop
      vertex 17.5212 -18.213 23.1
      vertex 16.6919 -8.30815 23.1
      vertex 18.4788 -8.78696 23.1
    endloop
  endfacet
  facet normal 0 0 -1
    outer loop
      vertex 16.213 -19.5212 23.1
      vertex 16.6919 -8.30815 23.1
      vertex 17.5212 -18.213 23.1
    endloop
  endfacet
  facet normal -0 0 -1
    outer loop
      vertex 16.6919 -8.30815 23.1
      vertex 16.213 -19.5212 23.1
      vertex 16.213 -6.52118 23.1
    endloop
  endfacet
  facet normal 0 0 -1
    outer loop
      vertex 19.3081 -28.6919 23.1
      vertex 19.787 -20.4788 23.1
      vertex 19.787 -30.4788 23.1
    endloop
  endfacet
  facet normal 0 0 -1
    outer loop
      vertex 19.3081 -28.6919 23.1
      vertex 18.4788 -21.787 23.1
      vertex 19.787 -20.4788 23.1
    endloop
  endfacet
  facet normal 0 0 -1
    outer loop
      vertex 17.5212 -28.213 23.1
      vertex 18.4788 -21.787 23.1
      vertex 19.3081 -28.6919 23.1
    endloop
  endfacet
  facet normal 0 0 -1
    outer loop
      vertex 17.5212 -28.213 23.1
      vertex 16.6919 -21.3081 23.1
      vertex 18.4788 -21.787 23.1
    endloop
  endfacet
  facet normal 0 0 -1
    outer loop
      vertex 16.213 -29.5212 23.1
      vertex 16.6919 -21.3081 23.1
      vertex 17.5212 -28.213 23.1
    endloop
  endfacet
  facet normal -0 0 -1
    outer loop
      vertex 16.6919 -21.3081 23.1
      vertex 16.213 -29.5212 23.1
      vertex 16.213 -19.5212 23.1
    endloop
  endfacet
  facet normal 0 0 -1
    outer loop
      vertex 19.787 -20.4788 23.1
      vertex 23 -47.5 23.1
      vertex 19.787 -30.4788 23.1
    endloop
  endfacet
  facet normal 0 0 -1
    outer loop
      vertex 23 -47.5 23.1
      vertex 18.4788 -31.787 23.1
      vertex 19.787 -30.4788 23.1
    endloop
  endfacet
  facet normal 0 0 -1
    outer loop
      vertex 14 -38.5 23.1
      vertex 18.4788 -31.787 23.1
      vertex 23 -47.5 23.1
    endloop
  endfacet
  facet normal 0 0 -1
    outer loop
      vertex 14 -38.5 23.1
      vertex 16.213 -19.5212 23.1
      vertex 16.213 -29.5212 23.1
    endloop
  endfacet
  facet normal -0 0 -1
    outer loop
      vertex 16.213 -19.5212 23.1
      vertex 14 -38.5 23.1
      vertex 16.213 -6.52118 23.1
    endloop
  endfacet
  facet normal -0 0 -1
    outer loop
      vertex 16.213 -6.52118 23.1
      vertex 14 -38.5 23.1
      vertex 16.213 7.47882 23.1
    endloop
  endfacet
  facet normal 0 0 -1
    outer loop
      vertex 14 38.5 23.1
      vertex 16.213 7.47882 23.1
      vertex 14 -38.5 23.1
    endloop
  endfacet
  facet normal 0 0 -1
    outer loop
      vertex 16.213 7.47882 23.1
      vertex 14 38.5 23.1
      vertex 16.213 20.4788 23.1
    endloop
  endfacet
  facet normal -0 0 -1
    outer loop
      vertex 16.6919 -31.3081 23.1
      vertex 14 -38.5 23.1
      vertex 16.213 -29.5212 23.1
    endloop
  endfacet
  facet normal -0 0 -1
    outer loop
      vertex 18.4788 -31.787 23.1
      vertex 14 -38.5 23.1
      vertex 16.6919 -31.3081 23.1
    endloop
  endfacet
  facet normal 0 0 -1
    outer loop
      vertex 23 -47.5 23.1
      vertex 9.78696 -42.4788 23.1
      vertex 14 -38.5 23.1
    endloop
  endfacet
  facet normal 0 0 -1
    outer loop
      vertex 23 -47.5 23.1
      vertex 8.47882 -43.787 23.1
      vertex 9.78696 -42.4788 23.1
    endloop
  endfacet
  facet normal 0 0 -1
    outer loop
      vertex 6.69185 -43.3081 23.1
      vertex -6.21304 -42.4788 23.1
      vertex 6.21304 -41.5212 23.1
    endloop
  endfacet
  facet normal 0 0 -1
    outer loop
      vertex -7.52118 -43.787 23.1
      vertex 6.69185 -43.3081 23.1
      vertex 8.47882 -43.787 23.1
    endloop
  endfacet
  facet normal 0 0 -1
    outer loop
      vertex -7.52118 -43.787 23.1
      vertex 8.47882 -43.787 23.1
      vertex 23 -47.5 23.1
    endloop
  endfacet
  facet normal -0 0 -1
    outer loop
      vertex 6.69185 -43.3081 23.1
      vertex -7.52118 -43.787 23.1
      vertex -6.21304 -42.4788 23.1
    endloop
  endfacet
  facet normal 0 0 -1
    outer loop
      vertex -9.30815 -43.3081 23.1
      vertex -13 -38.5 23.1
      vertex -9.78696 -41.5212 23.1
    endloop
  endfacet
  facet normal 0 0 -1
    outer loop
      vertex -16.213 -20.4788 23.1
      vertex -13 -38.5 23.1
      vertex -16.213 -30.4788 23.1
    endloop
  endfacet
  facet normal 0 0 -1
    outer loop
      vertex -13 -38.5 23.1
      vertex -17.5212 -31.787 23.1
      vertex -16.213 -30.4788 23.1
    endloop
  endfacet
  facet normal 0 0 -1
    outer loop
      vertex -13 -38.5 23.1
      vertex -19.3081 -31.3081 23.1
      vertex -17.5212 -31.787 23.1
    endloop
  endfacet
  facet normal 0 0 -1
    outer loop
      vertex -22 -47.5 23.1
      vertex -13 -38.5 23.1
      vertex -9.30815 -43.3081 23.1
    endloop
  endfacet
  facet normal 0 0 -1
    outer loop
      vertex -22 -47.5 23.1
      vertex -19.787 -19.5212 23.1
      vertex -19.787 -29.5212 23.1
    endloop
  endfacet
  facet normal -0 0 -1
    outer loop
      vertex -19.787 -19.5212 23.1
      vertex -22 -47.5 23.1
      vertex -19.787 -6.52118 23.1
    endloop
  endfacet
  facet normal -0 0 -1
    outer loop
      vertex -19.787 -6.52118 23.1
      vertex -22 -47.5 23.1
      vertex -19.787 7.47882 23.1
    endloop
  endfacet
  facet normal 0 0 -1
    outer loop
      vertex -22 47.5 23.1
      vertex -19.787 7.47882 23.1
      vertex -22 -47.5 23.1
    endloop
  endfacet
  facet normal 0 0 -1
    outer loop
      vertex -19.787 7.47882 23.1
      vertex -22 47.5 23.1
      vertex -19.787 20.4788 23.1
    endloop
  endfacet
  facet normal -0 0 -1
    outer loop
      vertex -19.3081 -31.3081 23.1
      vertex -22 -47.5 23.1
      vertex -19.787 -29.5212 23.1
    endloop
  endfacet
  facet normal -0 0 -1
    outer loop
      vertex -13 -38.5 23.1
      vertex -22 -47.5 23.1
      vertex -19.3081 -31.3081 23.1
    endloop
  endfacet
  facet normal -0 0 -1
    outer loop
      vertex -7.52118 -43.787 23.1
      vertex -22 -47.5 23.1
      vertex -9.30815 -43.3081 23.1
    endloop
  endfacet
  facet normal 0 0 -1
    outer loop
      vertex -22 -47.5 23.1
      vertex -7.52118 -43.787 23.1
      vertex 23 -47.5 23.1
    endloop
  endfacet
  facet normal 0 0 -1
    outer loop
      vertex 19.787 -7.47882 23.1
      vertex 23 -47.5 23.1
      vertex 19.787 -20.4788 23.1
    endloop
  endfacet
  facet normal 0 0 -1
    outer loop
      vertex 23 -47.5 23.1
      vertex 19.787 -7.47882 23.1
      vertex 23 47.5 23.1
    endloop
  endfacet
  facet normal 0 0 -1
    outer loop
      vertex 19.787 6.52118 23.1
      vertex 23 47.5 23.1
      vertex 19.787 -7.47882 23.1
    endloop
  endfacet
  facet normal 0 0 -1
    outer loop
      vertex 19.787 19.5212 23.1
      vertex 23 47.5 23.1
      vertex 19.787 6.52118 23.1
    endloop
  endfacet
  facet normal 0 0 -1
    outer loop
      vertex 19.787 29.5212 23.1
      vertex 23 47.5 23.1
      vertex 19.787 19.5212 23.1
    endloop
  endfacet
  facet normal 0 0 -1
    outer loop
      vertex 19.3081 31.3081 23.1
      vertex 23 47.5 23.1
      vertex 19.787 29.5212 23.1
    endloop
  endfacet
  facet normal 0 0 -1
    outer loop
      vertex 14 38.5 23.1
      vertex 19.3081 31.3081 23.1
      vertex 17.5212 31.787 23.1
    endloop
  endfacet
  facet normal 0 0 -1
    outer loop
      vertex 14 38.5 23.1
      vertex 17.5212 31.787 23.1
      vertex 16.213 30.4788 23.1
    endloop
  endfacet
  facet normal 0 0 -1
    outer loop
      vertex 16.213 20.4788 23.1
      vertex 14 38.5 23.1
      vertex 16.213 30.4788 23.1
    endloop
  endfacet
  facet normal 0 0 -1
    outer loop
      vertex 19.3081 31.3081 23.1
      vertex 14 38.5 23.1
      vertex 23 47.5 23.1
    endloop
  endfacet
  facet normal 0 0 -1
    outer loop
      vertex 9.30815 43.3081 23.1
      vertex 14 38.5 23.1
      vertex 9.78696 41.5212 23.1
    endloop
  endfacet
  facet normal 0 0 -1
    outer loop
      vertex 14 38.5 23.1
      vertex 9.30815 43.3081 23.1
      vertex 23 47.5 23.1
    endloop
  endfacet
  facet normal 0 0 -1
    outer loop
      vertex 7.52118 43.787 23.1
      vertex 23 47.5 23.1
      vertex 9.30815 43.3081 23.1
    endloop
  endfacet
  facet normal 0 0 -1
    outer loop
      vertex -6.69185 43.3081 23.1
      vertex 6.21304 42.4788 23.1
      vertex -6.21304 41.5212 23.1
    endloop
  endfacet
  facet normal 0 0 -1
    outer loop
      vertex 6.21304 42.4788 23.1
      vertex -6.69185 43.3081 23.1
      vertex 7.52118 43.787 23.1
    endloop
  endfacet
  facet normal 0 0 -1
    outer loop
      vertex -8.47882 43.787 23.1
      vertex 7.52118 43.787 23.1
      vertex -6.69185 43.3081 23.1
    endloop
  endfacet
  facet normal 0 0 -1
    outer loop
      vertex -22 47.5 23.1
      vertex 7.52118 43.787 23.1
      vertex -8.47882 43.787 23.1
    endloop
  endfacet
  facet normal 0 0 -1
    outer loop
      vertex -16.213 -7.47882 23.1
      vertex -13 -38.5 23.1
      vertex -16.213 -20.4788 23.1
    endloop
  endfacet
  facet normal 0 0 -1
    outer loop
      vertex -13 -38.5 23.1
      vertex -16.213 -7.47882 23.1
      vertex -13 38.5 23.1
    endloop
  endfacet
  facet normal 0 0 -1
    outer loop
      vertex -16.213 6.52118 23.1
      vertex -13 38.5 23.1
      vertex -16.213 -7.47882 23.1
    endloop
  endfacet
  facet normal 0 0 -1
    outer loop
      vertex -16.213 19.5212 23.1
      vertex -13 38.5 23.1
      vertex -16.213 6.52118 23.1
    endloop
  endfacet
  facet normal 0 0 -1
    outer loop
      vertex -16.213 29.5212 23.1
      vertex -13 38.5 23.1
      vertex -16.213 19.5212 23.1
    endloop
  endfacet
  facet normal 0 0 -1
    outer loop
      vertex -16.6919 31.3081 23.1
      vertex -13 38.5 23.1
      vertex -16.213 29.5212 23.1
    endloop
  endfacet
  facet normal 0 0 -1
    outer loop
      vertex -18.4788 31.787 23.1
      vertex -13 38.5 23.1
      vertex -16.6919 31.3081 23.1
    endloop
  endfacet
  facet normal 0 0 -1
    outer loop
      vertex -22 47.5 23.1
      vertex -13 38.5 23.1
      vertex -18.4788 31.787 23.1
    endloop
  endfacet
  facet normal 0 0 -1
    outer loop
      vertex -22 47.5 23.1
      vertex -18.4788 31.787 23.1
      vertex -19.787 30.4788 23.1
    endloop
  endfacet
  facet normal 0 0 -1
    outer loop
      vertex 7.52118 43.787 23.1
      vertex -22 47.5 23.1
      vertex 23 47.5 23.1
    endloop
  endfacet
  facet normal 0 0 -1
    outer loop
      vertex -9.78696 42.4788 23.1
      vertex -22 47.5 23.1
      vertex -8.47882 43.787 23.1
    endloop
  endfacet
  facet normal 0 0 -1
    outer loop
      vertex -13 38.5 23.1
      vertex -22 47.5 23.1
      vertex -9.78696 42.4788 23.1
    endloop
  endfacet
  facet normal 0 0 -1
    outer loop
      vertex -19.787 20.4788 23.1
      vertex -22 47.5 23.1
      vertex -19.787 30.4788 23.1
    endloop
  endfacet
  facet normal 0 0 -1
    outer loop
      vertex 9.30815 -40.6919 23.1
      vertex 14 -38.5 23.1
      vertex 9.78696 -42.4788 23.1
    endloop
  endfacet
  facet normal 0 0 -1
    outer loop
      vertex 7.52118 -40.213 23.1
      vertex 14 -38.5 23.1
      vertex 9.30815 -40.6919 23.1
    endloop
  endfacet
  facet normal 0 0 -1
    outer loop
      vertex -6.69185 -40.6919 23.1
      vertex 6.21304 -41.5212 23.1
      vertex -6.21304 -42.4788 23.1
    endloop
  endfacet
  facet normal 0 0 -1
    outer loop
      vertex 6.21304 -41.5212 23.1
      vertex -6.69185 -40.6919 23.1
      vertex 7.52118 -40.213 23.1
    endloop
  endfacet
  facet normal 0 0 -1
    outer loop
      vertex -8.47882 -40.213 23.1
      vertex 7.52118 -40.213 23.1
      vertex -6.69185 -40.6919 23.1
    endloop
  endfacet
  facet normal 0 0 -1
    outer loop
      vertex -13 -38.5 23.1
      vertex 7.52118 -40.213 23.1
      vertex -8.47882 -40.213 23.1
    endloop
  endfacet
  facet normal 0 0 -1
    outer loop
      vertex 7.52118 -40.213 23.1
      vertex -13 -38.5 23.1
      vertex 14 -38.5 23.1
    endloop
  endfacet
  facet normal 0 0 -1
    outer loop
      vertex -13 -38.5 23.1
      vertex -8.47882 -40.213 23.1
      vertex -9.78696 -41.5212 23.1
    endloop
  endfacet
  facet normal 0 -1 0
    outer loop
      vertex -22 -47.5 23.1
      vertex 23 -47.5 23.6
      vertex -22 -47.5 23.6
    endloop
  endfacet
  facet normal 0 -1 -0
    outer loop
      vertex 23 -47.5 23.6
      vertex -22 -47.5 23.1
      vertex 23 -47.5 23.1
    endloop
  endfacet
  facet normal 0 1 -0
    outer loop
      vertex 23 47.5 23.1
      vertex -22 47.5 23.6
      vertex 23 47.5 23.6
    endloop
  endfacet
  facet normal 0 1 0
    outer loop
      vertex -22 47.5 23.6
      vertex 23 47.5 23.1
      vertex -22 47.5 23.1
    endloop
  endfacet
  facet normal 1 -0 0
    outer loop
      vertex -13 -38.5 23.6
      vertex -13 38.5 23.1
      vertex -13 38.5 23.6
    endloop
  endfacet
  facet normal 1 0 0
    outer loop
      vertex -13 38.5 23.1
      vertex -13 -38.5 23.6
      vertex -13 -38.5 23.1
    endloop
  endfacet
  facet normal -1 0 0
    outer loop
      vertex 14 -38.5 23.1
      vertex 14 38.5 23.6
      vertex 14 38.5 23.1
    endloop
  endfacet
  facet normal -1 -0 0
    outer loop
      vertex 14 38.5 23.6
      vertex 14 -38.5 23.1
      vertex 14 -38.5 23.6
    endloop
  endfacet
  facet normal 0 1 -0
    outer loop
      vertex 14 -38.5 23.1
      vertex -13 -38.5 23.6
      vertex 14 -38.5 23.6
    endloop
  endfacet
  facet normal 0 1 0
    outer loop
      vertex -13 -38.5 23.6
      vertex 14 -38.5 23.1
      vertex -13 -38.5 23.1
    endloop
  endfacet
  facet normal 0 -1 0
    outer loop
      vertex -13 38.5 23.1
      vertex 14 38.5 23.6
      vertex -13 38.5 23.6
    endloop
  endfacet
  facet normal 0 -1 -0
    outer loop
      vertex 14 38.5 23.6
      vertex -13 38.5 23.1
      vertex 14 38.5 23.1
    endloop
  endfacet
  facet normal -0.258819 -0.965926 0
    outer loop
      vertex -18.4788 8.78696 23.1
      vertex -16.6919 8.30815 23.6
      vertex -18.4788 8.78696 23.6
    endloop
  endfacet
  facet normal -0.258819 -0.965926 -0
    outer loop
      vertex -16.6919 8.30815 23.6
      vertex -18.4788 8.78696 23.1
      vertex -16.6919 8.30815 23.1
    endloop
  endfacet
  facet normal 0.707107 -0.707107 0
    outer loop
      vertex -19.787 7.47882 23.6
      vertex -18.4788 8.78696 23.1
      vertex -18.4788 8.78696 23.6
    endloop
  endfacet
  facet normal 0.707107 -0.707107 0
    outer loop
      vertex -18.4788 8.78696 23.1
      vertex -19.787 7.47882 23.6
      vertex -19.787 7.47882 23.1
    endloop
  endfacet
  facet normal 0.965926 0.258819 0
    outer loop
      vertex -19.3081 5.69185 23.6
      vertex -19.787 7.47882 23.1
      vertex -19.787 7.47882 23.6
    endloop
  endfacet
  facet normal 0.965926 0.258819 0
    outer loop
      vertex -19.787 7.47882 23.1
      vertex -19.3081 5.69185 23.6
      vertex -19.3081 5.69185 23.1
    endloop
  endfacet
  facet normal -0.965926 -0.25882 0
    outer loop
      vertex -16.213 6.52118 23.1
      vertex -16.6919 8.30815 23.6
      vertex -16.6919 8.30815 23.1
    endloop
  endfacet
  facet normal -0.965926 -0.25882 0
    outer loop
      vertex -16.6919 8.30815 23.6
      vertex -16.213 6.52118 23.1
      vertex -16.213 6.52118 23.6
    endloop
  endfacet
  facet normal -0.707107 0.707107 0
    outer loop
      vertex -17.5212 5.21304 23.1
      vertex -16.213 6.52118 23.6
      vertex -16.213 6.52118 23.1
    endloop
  endfacet
  facet normal -0.707107 0.707107 0
    outer loop
      vertex -16.213 6.52118 23.6
      vertex -17.5212 5.21304 23.1
      vertex -17.5212 5.21304 23.6
    endloop
  endfacet
  facet normal 0.258819 0.965926 -0
    outer loop
      vertex -17.5212 5.21304 23.1
      vertex -19.3081 5.69185 23.6
      vertex -17.5212 5.21304 23.6
    endloop
  endfacet
  facet normal 0.258819 0.965926 0
    outer loop
      vertex -19.3081 5.69185 23.6
      vertex -17.5212 5.21304 23.1
      vertex -19.3081 5.69185 23.1
    endloop
  endfacet
  facet normal -0.258819 -0.965926 0
    outer loop
      vertex 17.5212 8.78696 23.1
      vertex 19.3081 8.30815 23.6
      vertex 17.5212 8.78696 23.6
    endloop
  endfacet
  facet normal -0.258819 -0.965926 -0
    outer loop
      vertex 19.3081 8.30815 23.6
      vertex 17.5212 8.78696 23.1
      vertex 19.3081 8.30815 23.1
    endloop
  endfacet
  facet normal 0.707107 -0.707107 0
    outer loop
      vertex 16.213 7.47882 23.6
      vertex 17.5212 8.78696 23.1
      vertex 17.5212 8.78696 23.6
    endloop
  endfacet
  facet normal 0.707107 -0.707107 0
    outer loop
      vertex 17.5212 8.78696 23.1
      vertex 16.213 7.47882 23.6
      vertex 16.213 7.47882 23.1
    endloop
  endfacet
  facet normal 0.965926 0.25882 0
    outer loop
      vertex 16.6919 5.69185 23.6
      vertex 16.213 7.47882 23.1
      vertex 16.213 7.47882 23.6
    endloop
  endfacet
  facet normal 0.965926 0.25882 0
    outer loop
      vertex 16.213 7.47882 23.1
      vertex 16.6919 5.69185 23.6
      vertex 16.6919 5.69185 23.1
    endloop
  endfacet
  facet normal -0.965926 -0.258819 0
    outer loop
      vertex 19.787 6.52118 23.1
      vertex 19.3081 8.30815 23.6
      vertex 19.3081 8.30815 23.1
    endloop
  endfacet
  facet normal -0.965926 -0.258819 0
    outer loop
      vertex 19.3081 8.30815 23.6
      vertex 19.787 6.52118 23.1
      vertex 19.787 6.52118 23.6
    endloop
  endfacet
  facet normal -0.707107 0.707107 0
    outer loop
      vertex 18.4788 5.21304 23.1
      vertex 19.787 6.52118 23.6
      vertex 19.787 6.52118 23.1
    endloop
  endfacet
  facet normal -0.707107 0.707107 0
    outer loop
      vertex 19.787 6.52118 23.6
      vertex 18.4788 5.21304 23.1
      vertex 18.4788 5.21304 23.6
    endloop
  endfacet
  facet normal 0.258819 0.965926 -0
    outer loop
      vertex 18.4788 5.21304 23.1
      vertex 16.6919 5.69185 23.6
      vertex 18.4788 5.21304 23.6
    endloop
  endfacet
  facet normal 0.258819 0.965926 0
    outer loop
      vertex 16.6919 5.69185 23.6
      vertex 18.4788 5.21304 23.1
      vertex 16.6919 5.69185 23.1
    endloop
  endfacet
  facet normal -0.258819 -0.965926 0
    outer loop
      vertex 17.5212 -5.21304 23.1
      vertex 19.3081 -5.69185 23.6
      vertex 17.5212 -5.21304 23.6
    endloop
  endfacet
  facet normal -0.258819 -0.965926 -0
    outer loop
      vertex 19.3081 -5.69185 23.6
      vertex 17.5212 -5.21304 23.1
      vertex 19.3081 -5.69185 23.1
    endloop
  endfacet
  facet normal 0.707107 -0.707107 0
    outer loop
      vertex 16.213 -6.52118 23.6
      vertex 17.5212 -5.21304 23.1
      vertex 17.5212 -5.21304 23.6
    endloop
  endfacet
  facet normal 0.707107 -0.707107 0
    outer loop
      vertex 17.5212 -5.21304 23.1
      vertex 16.213 -6.52118 23.6
      vertex 16.213 -6.52118 23.1
    endloop
  endfacet
  facet normal 0.965926 0.25882 0
    outer loop
      vertex 16.6919 -8.30815 23.6
      vertex 16.213 -6.52118 23.1
      vertex 16.213 -6.52118 23.6
    endloop
  endfacet
  facet normal 0.965926 0.25882 0
    outer loop
      vertex 16.213 -6.52118 23.1
      vertex 16.6919 -8.30815 23.6
      vertex 16.6919 -8.30815 23.1
    endloop
  endfacet
  facet normal -0.965926 -0.258819 0
    outer loop
      vertex 19.787 -7.47882 23.1
      vertex 19.3081 -5.69185 23.6
      vertex 19.3081 -5.69185 23.1
    endloop
  endfacet
  facet normal -0.965926 -0.258819 0
    outer loop
      vertex 19.3081 -5.69185 23.6
      vertex 19.787 -7.47882 23.1
      vertex 19.787 -7.47882 23.6
    endloop
  endfacet
  facet normal -0.707107 0.707107 0
    outer loop
      vertex 18.4788 -8.78696 23.1
      vertex 19.787 -7.47882 23.6
      vertex 19.787 -7.47882 23.1
    endloop
  endfacet
  facet normal -0.707107 0.707107 0
    outer loop
      vertex 19.787 -7.47882 23.6
      vertex 18.4788 -8.78696 23.1
      vertex 18.4788 -8.78696 23.6
    endloop
  endfacet
  facet normal 0.258819 0.965926 -0
    outer loop
      vertex 18.4788 -8.78696 23.1
      vertex 16.6919 -8.30815 23.6
      vertex 18.4788 -8.78696 23.6
    endloop
  endfacet
  facet normal 0.258819 0.965926 0
    outer loop
      vertex 16.6919 -8.30815 23.6
      vertex 18.4788 -8.78696 23.1
      vertex 16.6919 -8.30815 23.1
    endloop
  endfacet
  facet normal -0.258819 -0.965926 0
    outer loop
      vertex -18.4788 -5.21304 23.1
      vertex -16.6919 -5.69185 23.6
      vertex -18.4788 -5.21304 23.6
    endloop
  endfacet
  facet normal -0.258819 -0.965926 -0
    outer loop
      vertex -16.6919 -5.69185 23.6
      vertex -18.4788 -5.21304 23.1
      vertex -16.6919 -5.69185 23.1
    endloop
  endfacet
  facet normal 0.707107 -0.707107 0
    outer loop
      vertex -19.787 -6.52118 23.6
      vertex -18.4788 -5.21304 23.1
      vertex -18.4788 -5.21304 23.6
    endloop
  endfacet
  facet normal 0.707107 -0.707107 0
    outer loop
      vertex -18.4788 -5.21304 23.1
      vertex -19.787 -6.52118 23.6
      vertex -19.787 -6.52118 23.1
    endloop
  endfacet
  facet normal 0.965926 0.258819 0
    outer loop
      vertex -19.3081 -8.30815 23.6
      vertex -19.787 -6.52118 23.1
      vertex -19.787 -6.52118 23.6
    endloop
  endfacet
  facet normal 0.965926 0.258819 0
    outer loop
      vertex -19.787 -6.52118 23.1
      vertex -19.3081 -8.30815 23.6
      vertex -19.3081 -8.30815 23.1
    endloop
  endfacet
  facet normal -0.965926 -0.25882 0
    outer loop
      vertex -16.213 -7.47882 23.1
      vertex -16.6919 -5.69185 23.6
      vertex -16.6919 -5.69185 23.1
    endloop
  endfacet
  facet normal -0.965926 -0.25882 0
    outer loop
      vertex -16.6919 -5.69185 23.6
      vertex -16.213 -7.47882 23.1
      vertex -16.213 -7.47882 23.6
    endloop
  endfacet
  facet normal -0.707107 0.707107 0
    outer loop
      vertex -17.5212 -8.78696 23.1
      vertex -16.213 -7.47882 23.6
      vertex -16.213 -7.47882 23.1
    endloop
  endfacet
  facet normal -0.707107 0.707107 0
    outer loop
      vertex -16.213 -7.47882 23.6
      vertex -17.5212 -8.78696 23.1
      vertex -17.5212 -8.78696 23.6
    endloop
  endfacet
  facet normal 0.258819 0.965926 -0
    outer loop
      vertex -17.5212 -8.78696 23.1
      vertex -19.3081 -8.30815 23.6
      vertex -17.5212 -8.78696 23.6
    endloop
  endfacet
  facet normal 0.258819 0.965926 0
    outer loop
      vertex -19.3081 -8.30815 23.6
      vertex -17.5212 -8.78696 23.1
      vertex -19.3081 -8.30815 23.1
    endloop
  endfacet
  facet normal -0.25882 -0.965926 0
    outer loop
      vertex 7.52118 43.787 23.1
      vertex 9.30815 43.3081 23.6
      vertex 7.52118 43.787 23.6
    endloop
  endfacet
  facet normal -0.25882 -0.965926 -0
    outer loop
      vertex 9.30815 43.3081 23.6
      vertex 7.52118 43.787 23.1
      vertex 9.30815 43.3081 23.1
    endloop
  endfacet
  facet normal 0.707108 -0.707106 0
    outer loop
      vertex 6.21304 42.4788 23.6
      vertex 7.52118 43.787 23.1
      vertex 7.52118 43.787 23.6
    endloop
  endfacet
  facet normal 0.707108 -0.707106 0
    outer loop
      vertex 7.52118 43.787 23.1
      vertex 6.21304 42.4788 23.6
      vertex 6.21304 42.4788 23.1
    endloop
  endfacet
  facet normal 0.25882 0.965926 -0
    outer loop
      vertex 8.47882 40.213 23.1
      vertex 6.69185 40.6919 23.6
      vertex 8.47882 40.213 23.6
    endloop
  endfacet
  facet normal 0.25882 0.965926 0
    outer loop
      vertex 6.69185 40.6919 23.6
      vertex 8.47882 40.213 23.1
      vertex 6.69185 40.6919 23.1
    endloop
  endfacet
  facet normal 0.965926 0.258819 0
    outer loop
      vertex 6.69185 40.6919 23.6
      vertex 6.21304 42.4788 23.1
      vertex 6.21304 42.4788 23.6
    endloop
  endfacet
  facet normal 0.965926 0.258819 0
    outer loop
      vertex 6.21304 42.4788 23.1
      vertex 6.69185 40.6919 23.6
      vertex 6.69185 40.6919 23.1
    endloop
  endfacet
  facet normal -0.965926 -0.258819 0
    outer loop
      vertex 9.78696 41.5212 23.1
      vertex 9.30815 43.3081 23.6
      vertex 9.30815 43.3081 23.1
    endloop
  endfacet
  facet normal -0.965926 -0.258819 0
    outer loop
      vertex 9.30815 43.3081 23.6
      vertex 9.78696 41.5212 23.1
      vertex 9.78696 41.5212 23.6
    endloop
  endfacet
  facet normal -0.707107 0.707107 0
    outer loop
      vertex 8.47882 40.213 23.1
      vertex 9.78696 41.5212 23.6
      vertex 9.78696 41.5212 23.1
    endloop
  endfacet
  facet normal -0.707107 0.707107 0
    outer loop
      vertex 9.78696 41.5212 23.6
      vertex 8.47882 40.213 23.1
      vertex 8.47882 40.213 23.6
    endloop
  endfacet
  facet normal -0.25882 -0.965926 0
    outer loop
      vertex -8.47882 43.787 23.1
      vertex -6.69185 43.3081 23.6
      vertex -8.47882 43.787 23.6
    endloop
  endfacet
  facet normal -0.25882 -0.965926 -0
    outer loop
      vertex -6.69185 43.3081 23.6
      vertex -8.47882 43.787 23.1
      vertex -6.69185 43.3081 23.1
    endloop
  endfacet
  facet normal 0.707108 -0.707106 0
    outer loop
      vertex -9.78696 42.4788 23.6
      vertex -8.47882 43.787 23.1
      vertex -8.47882 43.787 23.6
    endloop
  endfacet
  facet normal 0.707108 -0.707106 0
    outer loop
      vertex -8.47882 43.787 23.1
      vertex -9.78696 42.4788 23.6
      vertex -9.78696 42.4788 23.1
    endloop
  endfacet
  facet normal 0.965926 0.258819 0
    outer loop
      vertex -9.30815 40.6919 23.6
      vertex -9.78696 42.4788 23.1
      vertex -9.78696 42.4788 23.6
    endloop
  endfacet
  facet normal 0.965926 0.258819 0
    outer loop
      vertex -9.78696 42.4788 23.1
      vertex -9.30815 40.6919 23.6
      vertex -9.30815 40.6919 23.1
    endloop
  endfacet
  facet normal -0.965926 -0.258819 0
    outer loop
      vertex -6.21304 41.5212 23.1
      vertex -6.69185 43.3081 23.6
      vertex -6.69185 43.3081 23.1
    endloop
  endfacet
  facet normal -0.965926 -0.258819 0
    outer loop
      vertex -6.69185 43.3081 23.6
      vertex -6.21304 41.5212 23.1
      vertex -6.21304 41.5212 23.6
    endloop
  endfacet
  facet normal -0.707107 0.707107 0
    outer loop
      vertex -7.52118 40.213 23.1
      vertex -6.21304 41.5212 23.6
      vertex -6.21304 41.5212 23.1
    endloop
  endfacet
  facet normal -0.707107 0.707107 0
    outer loop
      vertex -6.21304 41.5212 23.6
      vertex -7.52118 40.213 23.1
      vertex -7.52118 40.213 23.6
    endloop
  endfacet
  facet normal 0.25882 0.965926 -0
    outer loop
      vertex -7.52118 40.213 23.1
      vertex -9.30815 40.6919 23.6
      vertex -7.52118 40.213 23.6
    endloop
  endfacet
  facet normal 0.25882 0.965926 0
    outer loop
      vertex -9.30815 40.6919 23.6
      vertex -7.52118 40.213 23.1
      vertex -9.30815 40.6919 23.1
    endloop
  endfacet
  facet normal -0.25882 -0.965926 0
    outer loop
      vertex 7.52118 -40.213 23.1
      vertex 9.30815 -40.6919 23.6
      vertex 7.52118 -40.213 23.6
    endloop
  endfacet
  facet normal -0.25882 -0.965926 -0
    outer loop
      vertex 9.30815 -40.6919 23.6
      vertex 7.52118 -40.213 23.1
      vertex 9.30815 -40.6919 23.1
    endloop
  endfacet
  facet normal 0.707107 -0.707107 0
    outer loop
      vertex 6.21304 -41.5212 23.6
      vertex 7.52118 -40.213 23.1
      vertex 7.52118 -40.213 23.6
    endloop
  endfacet
  facet normal 0.707107 -0.707107 0
    outer loop
      vertex 7.52118 -40.213 23.1
      vertex 6.21304 -41.5212 23.6
      vertex 6.21304 -41.5212 23.1
    endloop
  endfacet
  facet normal 0.965926 0.258819 0
    outer loop
      vertex 6.69185 -43.3081 23.6
      vertex 6.21304 -41.5212 23.1
      vertex 6.21304 -41.5212 23.6
    endloop
  endfacet
  facet normal 0.965926 0.258819 0
    outer loop
      vertex 6.21304 -41.5212 23.1
      vertex 6.69185 -43.3081 23.6
      vertex 6.69185 -43.3081 23.1
    endloop
  endfacet
  facet normal -0.965926 -0.258819 0
    outer loop
      vertex 9.78696 -42.4788 23.1
      vertex 9.30815 -40.6919 23.6
      vertex 9.30815 -40.6919 23.1
    endloop
  endfacet
  facet normal -0.965926 -0.258819 0
    outer loop
      vertex 9.30815 -40.6919 23.6
      vertex 9.78696 -42.4788 23.1
      vertex 9.78696 -42.4788 23.6
    endloop
  endfacet
  facet normal -0.707108 0.707106 0
    outer loop
      vertex 8.47882 -43.787 23.1
      vertex 9.78696 -42.4788 23.6
      vertex 9.78696 -42.4788 23.1
    endloop
  endfacet
  facet normal -0.707108 0.707106 0
    outer loop
      vertex 9.78696 -42.4788 23.6
      vertex 8.47882 -43.787 23.1
      vertex 8.47882 -43.787 23.6
    endloop
  endfacet
  facet normal 0.25882 0.965926 -0
    outer loop
      vertex 8.47882 -43.787 23.1
      vertex 6.69185 -43.3081 23.6
      vertex 8.47882 -43.787 23.6
    endloop
  endfacet
  facet normal 0.25882 0.965926 0
    outer loop
      vertex 6.69185 -43.3081 23.6
      vertex 8.47882 -43.787 23.1
      vertex 6.69185 -43.3081 23.1
    endloop
  endfacet
  facet normal -0.25882 -0.965926 0
    outer loop
      vertex -8.47882 -40.213 23.1
      vertex -6.69185 -40.6919 23.6
      vertex -8.47882 -40.213 23.6
    endloop
  endfacet
  facet normal -0.25882 -0.965926 -0
    outer loop
      vertex -6.69185 -40.6919 23.6
      vertex -8.47882 -40.213 23.1
      vertex -6.69185 -40.6919 23.1
    endloop
  endfacet
  facet normal 0.707107 -0.707107 0
    outer loop
      vertex -9.78696 -41.5212 23.6
      vertex -8.47882 -40.213 23.1
      vertex -8.47882 -40.213 23.6
    endloop
  endfacet
  facet normal 0.707107 -0.707107 0
    outer loop
      vertex -8.47882 -40.213 23.1
      vertex -9.78696 -41.5212 23.6
      vertex -9.78696 -41.5212 23.1
    endloop
  endfacet
  facet normal 0.965926 0.258819 0
    outer loop
      vertex -9.30815 -43.3081 23.6
      vertex -9.78696 -41.5212 23.1
      vertex -9.78696 -41.5212 23.6
    endloop
  endfacet
  facet normal 0.965926 0.258819 0
    outer loop
      vertex -9.78696 -41.5212 23.1
      vertex -9.30815 -43.3081 23.6
      vertex -9.30815 -43.3081 23.1
    endloop
  endfacet
  facet normal -0.965926 -0.258819 0
    outer loop
      vertex -6.21304 -42.4788 23.1
      vertex -6.69185 -40.6919 23.6
      vertex -6.69185 -40.6919 23.1
    endloop
  endfacet
  facet normal -0.965926 -0.258819 0
    outer loop
      vertex -6.69185 -40.6919 23.6
      vertex -6.21304 -42.4788 23.1
      vertex -6.21304 -42.4788 23.6
    endloop
  endfacet
  facet normal -0.707108 0.707106 0
    outer loop
      vertex -7.52118 -43.787 23.1
      vertex -6.21304 -42.4788 23.6
      vertex -6.21304 -42.4788 23.1
    endloop
  endfacet
  facet normal -0.707108 0.707106 0
    outer loop
      vertex -6.21304 -42.4788 23.6
      vertex -7.52118 -43.787 23.1
      vertex -7.52118 -43.787 23.6
    endloop
  endfacet
  facet normal 0.25882 0.965926 -0
    outer loop
      vertex -7.52118 -43.787 23.1
      vertex -9.30815 -43.3081 23.6
      vertex -7.52118 -43.787 23.6
    endloop
  endfacet
  facet normal 0.25882 0.965926 0
    outer loop
      vertex -9.30815 -43.3081 23.6
      vertex -7.52118 -43.787 23.1
      vertex -9.30815 -43.3081 23.1
    endloop
  endfacet
  facet normal -0.258819 -0.965926 0
    outer loop
      vertex -18.4788 21.787 23.1
      vertex -16.6919 21.3081 23.6
      vertex -18.4788 21.787 23.6
    endloop
  endfacet
  facet normal -0.258819 -0.965926 -0
    outer loop
      vertex -16.6919 21.3081 23.6
      vertex -18.4788 21.787 23.1
      vertex -16.6919 21.3081 23.1
    endloop
  endfacet
  facet normal 0.707107 -0.707107 0
    outer loop
      vertex -19.787 20.4788 23.6
      vertex -18.4788 21.787 23.1
      vertex -18.4788 21.787 23.6
    endloop
  endfacet
  facet normal 0.707107 -0.707107 0
    outer loop
      vertex -18.4788 21.787 23.1
      vertex -19.787 20.4788 23.6
      vertex -19.787 20.4788 23.1
    endloop
  endfacet
  facet normal 0.965926 0.258819 0
    outer loop
      vertex -19.3081 18.6919 23.6
      vertex -19.787 20.4788 23.1
      vertex -19.787 20.4788 23.6
    endloop
  endfacet
  facet normal 0.965926 0.258819 0
    outer loop
      vertex -19.787 20.4788 23.1
      vertex -19.3081 18.6919 23.6
      vertex -19.3081 18.6919 23.1
    endloop
  endfacet
  facet normal -0.965926 -0.25882 0
    outer loop
      vertex -16.213 19.5212 23.1
      vertex -16.6919 21.3081 23.6
      vertex -16.6919 21.3081 23.1
    endloop
  endfacet
  facet normal -0.965926 -0.25882 0
    outer loop
      vertex -16.6919 21.3081 23.6
      vertex -16.213 19.5212 23.1
      vertex -16.213 19.5212 23.6
    endloop
  endfacet
  facet normal -0.707107 0.707107 0
    outer loop
      vertex -17.5212 18.213 23.1
      vertex -16.213 19.5212 23.6
      vertex -16.213 19.5212 23.1
    endloop
  endfacet
  facet normal -0.707107 0.707107 0
    outer loop
      vertex -16.213 19.5212 23.6
      vertex -17.5212 18.213 23.1
      vertex -17.5212 18.213 23.6
    endloop
  endfacet
  facet normal 0.25882 0.965926 -0
    outer loop
      vertex -17.5212 18.213 23.1
      vertex -19.3081 18.6919 23.6
      vertex -17.5212 18.213 23.6
    endloop
  endfacet
  facet normal 0.25882 0.965926 0
    outer loop
      vertex -19.3081 18.6919 23.6
      vertex -17.5212 18.213 23.1
      vertex -19.3081 18.6919 23.1
    endloop
  endfacet
  facet normal -0.25882 -0.965926 0
    outer loop
      vertex -18.4788 -18.213 23.1
      vertex -16.6919 -18.6919 23.6
      vertex -18.4788 -18.213 23.6
    endloop
  endfacet
  facet normal -0.25882 -0.965926 -0
    outer loop
      vertex -16.6919 -18.6919 23.6
      vertex -18.4788 -18.213 23.1
      vertex -16.6919 -18.6919 23.1
    endloop
  endfacet
  facet normal 0.707107 -0.707107 0
    outer loop
      vertex -19.787 -19.5212 23.6
      vertex -18.4788 -18.213 23.1
      vertex -18.4788 -18.213 23.6
    endloop
  endfacet
  facet normal 0.707107 -0.707107 0
    outer loop
      vertex -18.4788 -18.213 23.1
      vertex -19.787 -19.5212 23.6
      vertex -19.787 -19.5212 23.1
    endloop
  endfacet
  facet normal 0.965926 0.258819 0
    outer loop
      vertex -19.3081 -21.3081 23.6
      vertex -19.787 -19.5212 23.1
      vertex -19.787 -19.5212 23.6
    endloop
  endfacet
  facet normal 0.965926 0.258819 0
    outer loop
      vertex -19.787 -19.5212 23.1
      vertex -19.3081 -21.3081 23.6
      vertex -19.3081 -21.3081 23.1
    endloop
  endfacet
  facet normal -0.965926 -0.25882 0
    outer loop
      vertex -16.213 -20.4788 23.1
      vertex -16.6919 -18.6919 23.6
      vertex -16.6919 -18.6919 23.1
    endloop
  endfacet
  facet normal -0.965926 -0.25882 0
    outer loop
      vertex -16.6919 -18.6919 23.6
      vertex -16.213 -20.4788 23.1
      vertex -16.213 -20.4788 23.6
    endloop
  endfacet
  facet normal -0.707107 0.707107 0
    outer loop
      vertex -17.5212 -21.787 23.1
      vertex -16.213 -20.4788 23.6
      vertex -16.213 -20.4788 23.1
    endloop
  endfacet
  facet normal -0.707107 0.707107 0
    outer loop
      vertex -16.213 -20.4788 23.6
      vertex -17.5212 -21.787 23.1
      vertex -17.5212 -21.787 23.6
    endloop
  endfacet
  facet normal 0.258819 0.965926 -0
    outer loop
      vertex -17.5212 -21.787 23.1
      vertex -19.3081 -21.3081 23.6
      vertex -17.5212 -21.787 23.6
    endloop
  endfacet
  facet normal 0.258819 0.965926 0
    outer loop
      vertex -19.3081 -21.3081 23.6
      vertex -17.5212 -21.787 23.1
      vertex -19.3081 -21.3081 23.1
    endloop
  endfacet
  facet normal -0.258819 -0.965926 0
    outer loop
      vertex 17.5212 21.787 23.1
      vertex 19.3081 21.3081 23.6
      vertex 17.5212 21.787 23.6
    endloop
  endfacet
  facet normal -0.258819 -0.965926 -0
    outer loop
      vertex 19.3081 21.3081 23.6
      vertex 17.5212 21.787 23.1
      vertex 19.3081 21.3081 23.1
    endloop
  endfacet
  facet normal 0.707107 -0.707107 0
    outer loop
      vertex 16.213 20.4788 23.6
      vertex 17.5212 21.787 23.1
      vertex 17.5212 21.787 23.6
    endloop
  endfacet
  facet normal 0.707107 -0.707107 0
    outer loop
      vertex 17.5212 21.787 23.1
      vertex 16.213 20.4788 23.6
      vertex 16.213 20.4788 23.1
    endloop
  endfacet
  facet normal 0.25882 0.965926 -0
    outer loop
      vertex 18.4788 18.213 23.1
      vertex 16.6919 18.6919 23.6
      vertex 18.4788 18.213 23.6
    endloop
  endfacet
  facet normal 0.25882 0.965926 0
    outer loop
      vertex 16.6919 18.6919 23.6
      vertex 18.4788 18.213 23.1
      vertex 16.6919 18.6919 23.1
    endloop
  endfacet
  facet normal 0.965926 0.25882 0
    outer loop
      vertex 16.6919 18.6919 23.6
      vertex 16.213 20.4788 23.1
      vertex 16.213 20.4788 23.6
    endloop
  endfacet
  facet normal 0.965926 0.25882 0
    outer loop
      vertex 16.213 20.4788 23.1
      vertex 16.6919 18.6919 23.6
      vertex 16.6919 18.6919 23.1
    endloop
  endfacet
  facet normal -0.965926 -0.258819 0
    outer loop
      vertex 19.787 19.5212 23.1
      vertex 19.3081 21.3081 23.6
      vertex 19.3081 21.3081 23.1
    endloop
  endfacet
  facet normal -0.965926 -0.258819 0
    outer loop
      vertex 19.3081 21.3081 23.6
      vertex 19.787 19.5212 23.1
      vertex 19.787 19.5212 23.6
    endloop
  endfacet
  facet normal -0.707107 0.707107 0
    outer loop
      vertex 18.4788 18.213 23.1
      vertex 19.787 19.5212 23.6
      vertex 19.787 19.5212 23.1
    endloop
  endfacet
  facet normal -0.707107 0.707107 0
    outer loop
      vertex 19.787 19.5212 23.6
      vertex 18.4788 18.213 23.1
      vertex 18.4788 18.213 23.6
    endloop
  endfacet
  facet normal -0.25882 -0.965926 0
    outer loop
      vertex 17.5212 -18.213 23.1
      vertex 19.3081 -18.6919 23.6
      vertex 17.5212 -18.213 23.6
    endloop
  endfacet
  facet normal -0.25882 -0.965926 -0
    outer loop
      vertex 19.3081 -18.6919 23.6
      vertex 17.5212 -18.213 23.1
      vertex 19.3081 -18.6919 23.1
    endloop
  endfacet
  facet normal 0.707107 -0.707107 0
    outer loop
      vertex 16.213 -19.5212 23.6
      vertex 17.5212 -18.213 23.1
      vertex 17.5212 -18.213 23.6
    endloop
  endfacet
  facet normal 0.707107 -0.707107 0
    outer loop
      vertex 17.5212 -18.213 23.1
      vertex 16.213 -19.5212 23.6
      vertex 16.213 -19.5212 23.1
    endloop
  endfacet
  facet normal 0.965926 0.25882 0
    outer loop
      vertex 16.6919 -21.3081 23.6
      vertex 16.213 -19.5212 23.1
      vertex 16.213 -19.5212 23.6
    endloop
  endfacet
  facet normal 0.965926 0.25882 0
    outer loop
      vertex 16.213 -19.5212 23.1
      vertex 16.6919 -21.3081 23.6
      vertex 16.6919 -21.3081 23.1
    endloop
  endfacet
  facet normal -0.965926 -0.258819 0
    outer loop
      vertex 19.787 -20.4788 23.1
      vertex 19.3081 -18.6919 23.6
      vertex 19.3081 -18.6919 23.1
    endloop
  endfacet
  facet normal -0.965926 -0.258819 0
    outer loop
      vertex 19.3081 -18.6919 23.6
      vertex 19.787 -20.4788 23.1
      vertex 19.787 -20.4788 23.6
    endloop
  endfacet
  facet normal -0.707107 0.707107 0
    outer loop
      vertex 18.4788 -21.787 23.1
      vertex 19.787 -20.4788 23.6
      vertex 19.787 -20.4788 23.1
    endloop
  endfacet
  facet normal -0.707107 0.707107 0
    outer loop
      vertex 19.787 -20.4788 23.6
      vertex 18.4788 -21.787 23.1
      vertex 18.4788 -21.787 23.6
    endloop
  endfacet
  facet normal 0.258819 0.965926 -0
    outer loop
      vertex 18.4788 -21.787 23.1
      vertex 16.6919 -21.3081 23.6
      vertex 18.4788 -21.787 23.6
    endloop
  endfacet
  facet normal 0.258819 0.965926 0
    outer loop
      vertex 16.6919 -21.3081 23.6
      vertex 18.4788 -21.787 23.1
      vertex 16.6919 -21.3081 23.1
    endloop
  endfacet
endsolid OpenSCAD_Model
