solid OpenSCAD_Model
  facet normal -1 0 0
    outer loop
      vertex 0 0 0
      vertex 0 60 4
      vertex 0 60 0
    endloop
  endfacet
  facet normal -1 -0 0
    outer loop
      vertex 0 60 4
      vertex 0 0 0
      vertex 0 0 4
    endloop
  endfacet
  facet normal 0 0 1
    outer loop
      vertex 14.8776 49.2275 4
      vertex 25 60 4
      vertex 14.9454 49.4802 4
    endloop
  endfacet
  facet normal 0 0 1
    outer loop
      vertex 25 0 4
      vertex 14.9863 10.2613 4
      vertex 15 10 4
    endloop
  endfacet
  facet normal 0 0 1
    outer loop
      vertex 14.7839 48.9832 4
      vertex 25 60 4
      vertex 14.8776 49.2275 4
    endloop
  endfacet
  facet normal 0 0 1
    outer loop
      vertex 25 0 4
      vertex 14.9454 10.5198 4
      vertex 14.9863 10.2613 4
    endloop
  endfacet
  facet normal 0 0 1
    outer loop
      vertex 14.6651 48.75 4
      vertex 25 60 4
      vertex 14.7839 48.9832 4
    endloop
  endfacet
  facet normal 0 0 1
    outer loop
      vertex 25 0 4
      vertex 14.8776 10.7725 4
      vertex 14.9454 10.5198 4
    endloop
  endfacet
  facet normal 0 0 1
    outer loop
      vertex 25 60 4
      vertex 14.6651 48.75 4
      vertex 25 0 4
    endloop
  endfacet
  facet normal 0 0 1
    outer loop
      vertex 25 0 4
      vertex 14.7839 11.0168 4
      vertex 14.8776 10.7725 4
    endloop
  endfacet
  facet normal -0 0 1
    outer loop
      vertex 14.6651 11.25 4
      vertex 25 0 4
      vertex 14.6651 48.75 4
    endloop
  endfacet
  facet normal 0 0 1
    outer loop
      vertex 25 0 4
      vertex 14.6651 11.25 4
      vertex 14.7839 11.0168 4
    endloop
  endfacet
  facet normal -0 0 1
    outer loop
      vertex 14.5225 48.5305 4
      vertex 14.6651 11.25 4
      vertex 14.6651 48.75 4
    endloop
  endfacet
  facet normal 0 0 1
    outer loop
      vertex 14.5225 48.5305 4
      vertex 14.5225 11.4695 4
      vertex 14.6651 11.25 4
    endloop
  endfacet
  facet normal -0 0 1
    outer loop
      vertex 14.3579 48.3272 4
      vertex 14.5225 11.4695 4
      vertex 14.5225 48.5305 4
    endloop
  endfacet
  facet normal 0 0 1
    outer loop
      vertex 14.3579 48.3272 4
      vertex 14.3579 11.6728 4
      vertex 14.5225 11.4695 4
    endloop
  endfacet
  facet normal -0 0 1
    outer loop
      vertex 14.1728 48.1421 4
      vertex 14.3579 11.6728 4
      vertex 14.3579 48.3272 4
    endloop
  endfacet
  facet normal 0 0 1
    outer loop
      vertex 14.1728 48.1421 4
      vertex 14.1728 11.8579 4
      vertex 14.3579 11.6728 4
    endloop
  endfacet
  facet normal -0 0 1
    outer loop
      vertex 13.9695 47.9775 4
      vertex 14.1728 11.8579 4
      vertex 14.1728 48.1421 4
    endloop
  endfacet
  facet normal 0 0 1
    outer loop
      vertex 13.9695 47.9775 4
      vertex 13.9695 12.0225 4
      vertex 14.1728 11.8579 4
    endloop
  endfacet
  facet normal -0 0 1
    outer loop
      vertex 13.75 47.8349 4
      vertex 13.9695 12.0225 4
      vertex 13.9695 47.9775 4
    endloop
  endfacet
  facet normal 0 0 1
    outer loop
      vertex 13.75 47.8349 4
      vertex 13.75 12.1651 4
      vertex 13.9695 12.0225 4
    endloop
  endfacet
  facet normal -0 0 1
    outer loop
      vertex 13.5168 47.7161 4
      vertex 13.75 12.1651 4
      vertex 13.75 47.8349 4
    endloop
  endfacet
  facet normal 0 0 1
    outer loop
      vertex 13.5168 47.7161 4
      vertex 13.5168 12.2839 4
      vertex 13.75 12.1651 4
    endloop
  endfacet
  facet normal -0 0 1
    outer loop
      vertex 13.2725 47.6224 4
      vertex 13.5168 12.2839 4
      vertex 13.5168 47.7161 4
    endloop
  endfacet
  facet normal 0 0 1
    outer loop
      vertex 13.2725 47.6224 4
      vertex 13.2725 12.3776 4
      vertex 13.5168 12.2839 4
    endloop
  endfacet
  facet normal -0 0 1
    outer loop
      vertex 13.0198 47.5546 4
      vertex 13.2725 12.3776 4
      vertex 13.2725 47.6224 4
    endloop
  endfacet
  facet normal 0 0 1
    outer loop
      vertex 13.0198 47.5546 4
      vertex 13.0198 12.4454 4
      vertex 13.2725 12.3776 4
    endloop
  endfacet
  facet normal -0 0 1
    outer loop
      vertex 12.7613 47.5137 4
      vertex 13.0198 12.4454 4
      vertex 13.0198 47.5546 4
    endloop
  endfacet
  facet normal 0 0 1
    outer loop
      vertex 12.7613 47.5137 4
      vertex 12.7613 12.4863 4
      vertex 13.0198 12.4454 4
    endloop
  endfacet
  facet normal -0 0 1
    outer loop
      vertex 12.5 47.5 4
      vertex 12.7613 12.4863 4
      vertex 12.7613 47.5137 4
    endloop
  endfacet
  facet normal 0 0 1
    outer loop
      vertex 12.5 47.5 4
      vertex 12.5 12.5 4
      vertex 12.7613 12.4863 4
    endloop
  endfacet
  facet normal 0 0 1
    outer loop
      vertex 12.2387 47.5137 4
      vertex 12.5 12.5 4
      vertex 12.5 47.5 4
    endloop
  endfacet
  facet normal 0 0 1
    outer loop
      vertex 12.2387 47.5137 4
      vertex 12.2387 12.4863 4
      vertex 12.5 12.5 4
    endloop
  endfacet
  facet normal 0 0 1
    outer loop
      vertex 11.9802 47.5546 4
      vertex 12.2387 12.4863 4
      vertex 12.2387 47.5137 4
    endloop
  endfacet
  facet normal 0 0 1
    outer loop
      vertex 11.9802 47.5546 4
      vertex 11.9802 12.4454 4
      vertex 12.2387 12.4863 4
    endloop
  endfacet
  facet normal 0 0 1
    outer loop
      vertex 11.7275 47.6224 4
      vertex 11.9802 12.4454 4
      vertex 11.9802 47.5546 4
    endloop
  endfacet
  facet normal 0 0 1
    outer loop
      vertex 11.7275 47.6224 4
      vertex 11.7275 12.3776 4
      vertex 11.9802 12.4454 4
    endloop
  endfacet
  facet normal 0 0 1
    outer loop
      vertex 11.4832 47.7161 4
      vertex 11.7275 12.3776 4
      vertex 11.7275 47.6224 4
    endloop
  endfacet
  facet normal 0 0 1
    outer loop
      vertex 11.4832 47.7161 4
      vertex 11.4832 12.2839 4
      vertex 11.7275 12.3776 4
    endloop
  endfacet
  facet normal 0 0 1
    outer loop
      vertex 11.4832 47.7161 4
      vertex 11.25 12.1651 4
      vertex 11.4832 12.2839 4
    endloop
  endfacet
  facet normal 0 0 1
    outer loop
      vertex 11.25 47.8349 4
      vertex 11.25 12.1651 4
      vertex 11.4832 47.7161 4
    endloop
  endfacet
  facet normal 0 0 1
    outer loop
      vertex 11.0305 47.9775 4
      vertex 11.25 12.1651 4
      vertex 11.25 47.8349 4
    endloop
  endfacet
  facet normal 0 0 1
    outer loop
      vertex 11.0305 47.9775 4
      vertex 11.0305 12.0225 4
      vertex 11.25 12.1651 4
    endloop
  endfacet
  facet normal 0 0 1
    outer loop
      vertex 10.8272 48.1421 4
      vertex 11.0305 12.0225 4
      vertex 11.0305 47.9775 4
    endloop
  endfacet
  facet normal 0 0 1
    outer loop
      vertex 10.8272 48.1421 4
      vertex 10.8272 11.8579 4
      vertex 11.0305 12.0225 4
    endloop
  endfacet
  facet normal 0 0 1
    outer loop
      vertex 10.6421 48.3272 4
      vertex 10.8272 11.8579 4
      vertex 10.8272 48.1421 4
    endloop
  endfacet
  facet normal 0 0 1
    outer loop
      vertex 10.6421 48.3272 4
      vertex 10.6421 11.6728 4
      vertex 10.8272 11.8579 4
    endloop
  endfacet
  facet normal 0 0 1
    outer loop
      vertex 10.4775 48.5305 4
      vertex 10.6421 11.6728 4
      vertex 10.6421 48.3272 4
    endloop
  endfacet
  facet normal 0 0 1
    outer loop
      vertex 10.4775 48.5305 4
      vertex 10.4775 11.4695 4
      vertex 10.6421 11.6728 4
    endloop
  endfacet
  facet normal 0 0 1
    outer loop
      vertex 10.3349 48.75 4
      vertex 10.4775 11.4695 4
      vertex 10.4775 48.5305 4
    endloop
  endfacet
  facet normal 0 0 1
    outer loop
      vertex 10.3349 48.75 4
      vertex 10.3349 11.25 4
      vertex 10.4775 11.4695 4
    endloop
  endfacet
  facet normal 0 0 1
    outer loop
      vertex 0 60 4
      vertex 10.3349 48.75 4
      vertex 10.2161 48.9832 4
    endloop
  endfacet
  facet normal 0 0 1
    outer loop
      vertex 10.3349 48.75 4
      vertex 0 60 4
      vertex 10.3349 11.25 4
    endloop
  endfacet
  facet normal 0 0 1
    outer loop
      vertex 0 60 4
      vertex 10.2161 48.9832 4
      vertex 10.1224 49.2275 4
    endloop
  endfacet
  facet normal 0 0 1
    outer loop
      vertex 0 0 4
      vertex 10.3349 11.25 4
      vertex 0 60 4
    endloop
  endfacet
  facet normal 0 0 1
    outer loop
      vertex 0 60 4
      vertex 10.1224 49.2275 4
      vertex 10.0546 49.4802 4
    endloop
  endfacet
  facet normal 0 0 1
    outer loop
      vertex 10.3349 11.25 4
      vertex 0 0 4
      vertex 10.2161 11.0168 4
    endloop
  endfacet
  facet normal 0 0 1
    outer loop
      vertex 0 60 4
      vertex 10.0546 49.4802 4
      vertex 10.0137 49.7387 4
    endloop
  endfacet
  facet normal 0 0 1
    outer loop
      vertex 10.2161 11.0168 4
      vertex 0 0 4
      vertex 10.1224 10.7725 4
    endloop
  endfacet
  facet normal 0 0 1
    outer loop
      vertex 0 60 4
      vertex 10.0137 49.7387 4
      vertex 10 50 4
    endloop
  endfacet
  facet normal 0 0 1
    outer loop
      vertex 10.1224 10.7725 4
      vertex 0 0 4
      vertex 10.0546 10.5198 4
    endloop
  endfacet
  facet normal 0 0 1
    outer loop
      vertex 14.9863 49.7387 4
      vertex 25 60 4
      vertex 15 50 4
    endloop
  endfacet
  facet normal 0 0 1
    outer loop
      vertex 25 60 4
      vertex 14.9863 50.2613 4
      vertex 15 50 4
    endloop
  endfacet
  facet normal 0 0 1
    outer loop
      vertex 25 60 4
      vertex 14.9454 50.5198 4
      vertex 14.9863 50.2613 4
    endloop
  endfacet
  facet normal 0 0 1
    outer loop
      vertex 25 60 4
      vertex 14.8776 50.7725 4
      vertex 14.9454 50.5198 4
    endloop
  endfacet
  facet normal 0 0 1
    outer loop
      vertex 25 60 4
      vertex 14.7839 51.0168 4
      vertex 14.8776 50.7725 4
    endloop
  endfacet
  facet normal 0 0 1
    outer loop
      vertex 25 60 4
      vertex 14.6651 51.25 4
      vertex 14.7839 51.0168 4
    endloop
  endfacet
  facet normal 0 0 1
    outer loop
      vertex 25 60 4
      vertex 14.5225 51.4695 4
      vertex 14.6651 51.25 4
    endloop
  endfacet
  facet normal 0 0 1
    outer loop
      vertex 25 60 4
      vertex 14.3579 51.6728 4
      vertex 14.5225 51.4695 4
    endloop
  endfacet
  facet normal 0 0 1
    outer loop
      vertex 25 60 4
      vertex 14.1728 51.8579 4
      vertex 14.3579 51.6728 4
    endloop
  endfacet
  facet normal 0 0 1
    outer loop
      vertex 25 60 4
      vertex 13.9695 52.0225 4
      vertex 14.1728 51.8579 4
    endloop
  endfacet
  facet normal 0 0 1
    outer loop
      vertex 25 60 4
      vertex 13.75 52.1651 4
      vertex 13.9695 52.0225 4
    endloop
  endfacet
  facet normal 0 0 1
    outer loop
      vertex 25 60 4
      vertex 13.5168 52.2839 4
      vertex 13.75 52.1651 4
    endloop
  endfacet
  facet normal 0 0 1
    outer loop
      vertex 25 60 4
      vertex 13.2725 52.3776 4
      vertex 13.5168 52.2839 4
    endloop
  endfacet
  facet normal 0 0 1
    outer loop
      vertex 25 60 4
      vertex 13.0198 52.4454 4
      vertex 13.2725 52.3776 4
    endloop
  endfacet
  facet normal 0 0 1
    outer loop
      vertex 25 60 4
      vertex 12.7613 52.4863 4
      vertex 13.0198 52.4454 4
    endloop
  endfacet
  facet normal 0 0 1
    outer loop
      vertex 25 60 4
      vertex 12.5 52.5 4
      vertex 12.7613 52.4863 4
    endloop
  endfacet
  facet normal -0 0 1
    outer loop
      vertex 0 60 4
      vertex 12.5 52.5 4
      vertex 25 60 4
    endloop
  endfacet
  facet normal 0 0 1
    outer loop
      vertex 12.5 52.5 4
      vertex 0 60 4
      vertex 12.2387 52.4863 4
    endloop
  endfacet
  facet normal 0 0 1
    outer loop
      vertex 12.2387 52.4863 4
      vertex 0 60 4
      vertex 11.9802 52.4454 4
    endloop
  endfacet
  facet normal 0 0 1
    outer loop
      vertex 11.9802 52.4454 4
      vertex 0 60 4
      vertex 11.7275 52.3776 4
    endloop
  endfacet
  facet normal 0 0 1
    outer loop
      vertex 11.7275 52.3776 4
      vertex 0 60 4
      vertex 11.4832 52.2839 4
    endloop
  endfacet
  facet normal 0 0 1
    outer loop
      vertex 10.0546 10.5198 4
      vertex 0 0 4
      vertex 10.0137 10.2613 4
    endloop
  endfacet
  facet normal 0 0 1
    outer loop
      vertex 10.0137 50.2613 4
      vertex 0 60 4
      vertex 10 50 4
    endloop
  endfacet
  facet normal 0 0 1
    outer loop
      vertex 10.0546 50.5198 4
      vertex 0 60 4
      vertex 10.0137 50.2613 4
    endloop
  endfacet
  facet normal 0 0 1
    outer loop
      vertex 10.1224 50.7725 4
      vertex 0 60 4
      vertex 10.0546 50.5198 4
    endloop
  endfacet
  facet normal 0 0 1
    outer loop
      vertex 10.2161 51.0168 4
      vertex 0 60 4
      vertex 10.1224 50.7725 4
    endloop
  endfacet
  facet normal 0 0 1
    outer loop
      vertex 10.3349 51.25 4
      vertex 0 60 4
      vertex 10.2161 51.0168 4
    endloop
  endfacet
  facet normal 0 0 1
    outer loop
      vertex 10.4775 51.4695 4
      vertex 0 60 4
      vertex 10.3349 51.25 4
    endloop
  endfacet
  facet normal 0 0 1
    outer loop
      vertex 10.6421 51.6728 4
      vertex 0 60 4
      vertex 10.4775 51.4695 4
    endloop
  endfacet
  facet normal 0 0 1
    outer loop
      vertex 10.8272 51.8579 4
      vertex 0 60 4
      vertex 10.6421 51.6728 4
    endloop
  endfacet
  facet normal 0 0 1
    outer loop
      vertex 11.0305 52.0225 4
      vertex 0 60 4
      vertex 10.8272 51.8579 4
    endloop
  endfacet
  facet normal 0 0 1
    outer loop
      vertex 11.25 52.1651 4
      vertex 0 60 4
      vertex 11.0305 52.0225 4
    endloop
  endfacet
  facet normal 0 0 1
    outer loop
      vertex 11.4832 52.2839 4
      vertex 0 60 4
      vertex 11.25 52.1651 4
    endloop
  endfacet
  facet normal 0 0 1
    outer loop
      vertex 14.9454 49.4802 4
      vertex 25 60 4
      vertex 14.9863 49.7387 4
    endloop
  endfacet
  facet normal -0 0 1
    outer loop
      vertex 14.9863 9.73868 4
      vertex 25 0 4
      vertex 15 10 4
    endloop
  endfacet
  facet normal -0 0 1
    outer loop
      vertex 14.9454 9.48022 4
      vertex 25 0 4
      vertex 14.9863 9.73868 4
    endloop
  endfacet
  facet normal -0 0 1
    outer loop
      vertex 14.8776 9.22746 4
      vertex 25 0 4
      vertex 14.9454 9.48022 4
    endloop
  endfacet
  facet normal -0 0 1
    outer loop
      vertex 14.7839 8.98316 4
      vertex 25 0 4
      vertex 14.8776 9.22746 4
    endloop
  endfacet
  facet normal -0 0 1
    outer loop
      vertex 14.6651 8.75 4
      vertex 25 0 4
      vertex 14.7839 8.98316 4
    endloop
  endfacet
  facet normal -0 0 1
    outer loop
      vertex 14.5225 8.53054 4
      vertex 25 0 4
      vertex 14.6651 8.75 4
    endloop
  endfacet
  facet normal -0 0 1
    outer loop
      vertex 14.3579 8.32717 4
      vertex 25 0 4
      vertex 14.5225 8.53054 4
    endloop
  endfacet
  facet normal -0 0 1
    outer loop
      vertex 14.1728 8.14214 4
      vertex 25 0 4
      vertex 14.3579 8.32717 4
    endloop
  endfacet
  facet normal -0 0 1
    outer loop
      vertex 13.9695 7.97746 4
      vertex 25 0 4
      vertex 14.1728 8.14214 4
    endloop
  endfacet
  facet normal -0 0 1
    outer loop
      vertex 13.75 7.83494 4
      vertex 25 0 4
      vertex 13.9695 7.97746 4
    endloop
  endfacet
  facet normal -0 0 1
    outer loop
      vertex 13.5168 7.71614 4
      vertex 25 0 4
      vertex 13.75 7.83494 4
    endloop
  endfacet
  facet normal -0 0 1
    outer loop
      vertex 13.2725 7.62236 4
      vertex 25 0 4
      vertex 13.5168 7.71614 4
    endloop
  endfacet
  facet normal -0 0 1
    outer loop
      vertex 13.0198 7.55463 4
      vertex 25 0 4
      vertex 13.2725 7.62236 4
    endloop
  endfacet
  facet normal -0 0 1
    outer loop
      vertex 12.7613 7.51369 4
      vertex 25 0 4
      vertex 13.0198 7.55463 4
    endloop
  endfacet
  facet normal -0 0 1
    outer loop
      vertex 12.5 7.5 4
      vertex 25 0 4
      vertex 12.7613 7.51369 4
    endloop
  endfacet
  facet normal 0 0 1
    outer loop
      vertex 0 0 4
      vertex 12.5 7.5 4
      vertex 12.2387 7.51369 4
    endloop
  endfacet
  facet normal 0 0 1
    outer loop
      vertex 0 0 4
      vertex 12.2387 7.51369 4
      vertex 11.9802 7.55463 4
    endloop
  endfacet
  facet normal 0 0 1
    outer loop
      vertex 0 0 4
      vertex 11.9802 7.55463 4
      vertex 11.7275 7.62236 4
    endloop
  endfacet
  facet normal 0 0 1
    outer loop
      vertex 0 0 4
      vertex 11.7275 7.62236 4
      vertex 11.4832 7.71614 4
    endloop
  endfacet
  facet normal 0 0 1
    outer loop
      vertex 0 0 4
      vertex 11.4832 7.71614 4
      vertex 11.25 7.83494 4
    endloop
  endfacet
  facet normal 0 0 1
    outer loop
      vertex 10.0137 10.2613 4
      vertex 0 0 4
      vertex 10 10 4
    endloop
  endfacet
  facet normal 0 0 1
    outer loop
      vertex 10 10 4
      vertex 0 0 4
      vertex 10.0137 9.73868 4
    endloop
  endfacet
  facet normal 0 0 1
    outer loop
      vertex 12.5 7.5 4
      vertex 0 0 4
      vertex 25 0 4
    endloop
  endfacet
  facet normal 0 0 1
    outer loop
      vertex 11.0305 7.97746 4
      vertex 0 0 4
      vertex 11.25 7.83494 4
    endloop
  endfacet
  facet normal 0 0 1
    outer loop
      vertex 10.8272 8.14214 4
      vertex 0 0 4
      vertex 11.0305 7.97746 4
    endloop
  endfacet
  facet normal 0 0 1
    outer loop
      vertex 10.6421 8.32717 4
      vertex 0 0 4
      vertex 10.8272 8.14214 4
    endloop
  endfacet
  facet normal 0 0 1
    outer loop
      vertex 10.4775 8.53054 4
      vertex 0 0 4
      vertex 10.6421 8.32717 4
    endloop
  endfacet
  facet normal 0 0 1
    outer loop
      vertex 10.3349 8.75 4
      vertex 0 0 4
      vertex 10.4775 8.53054 4
    endloop
  endfacet
  facet normal 0 0 1
    outer loop
      vertex 10.2161 8.98316 4
      vertex 0 0 4
      vertex 10.3349 8.75 4
    endloop
  endfacet
  facet normal 0 0 1
    outer loop
      vertex 10.1224 9.22746 4
      vertex 0 0 4
      vertex 10.2161 8.98316 4
    endloop
  endfacet
  facet normal 0 0 1
    outer loop
      vertex 10.0546 9.48022 4
      vertex 0 0 4
      vertex 10.1224 9.22746 4
    endloop
  endfacet
  facet normal 0 0 1
    outer loop
      vertex 10.0137 9.73868 4
      vertex 0 0 4
      vertex 10.0546 9.48022 4
    endloop
  endfacet
  facet normal 1 -0 0
    outer loop
      vertex 25 0 4
      vertex 25 60 0
      vertex 25 60 4
    endloop
  endfacet
  facet normal 1 0 0
    outer loop
      vertex 25 60 0
      vertex 25 0 4
      vertex 25 0 0
    endloop
  endfacet
  facet normal 0 1 -0
    outer loop
      vertex 25 60 0
      vertex 0 60 4
      vertex 25 60 4
    endloop
  endfacet
  facet normal 0 1 0
    outer loop
      vertex 0 60 4
      vertex 25 60 0
      vertex 0 60 0
    endloop
  endfacet
  facet normal 0 0 -1
    outer loop
      vertex 14.8776 10.7725 0
      vertex 25 0 0
      vertex 14.9454 10.5198 0
    endloop
  endfacet
  facet normal 0 0 -1
    outer loop
      vertex 25 60 0
      vertex 14.9863 49.7387 0
      vertex 15 50 0
    endloop
  endfacet
  facet normal 0 0 -1
    outer loop
      vertex 14.7839 11.0168 0
      vertex 25 0 0
      vertex 14.8776 10.7725 0
    endloop
  endfacet
  facet normal 0 0 -1
    outer loop
      vertex 25 60 0
      vertex 14.9454 49.4802 0
      vertex 14.9863 49.7387 0
    endloop
  endfacet
  facet normal 0 0 -1
    outer loop
      vertex 14.6651 11.25 0
      vertex 25 0 0
      vertex 14.7839 11.0168 0
    endloop
  endfacet
  facet normal 0 0 -1
    outer loop
      vertex 25 60 0
      vertex 14.8776 49.2275 0
      vertex 14.9454 49.4802 0
    endloop
  endfacet
  facet normal 0 0 -1
    outer loop
      vertex 25 0 0
      vertex 14.6651 11.25 0
      vertex 25 60 0
    endloop
  endfacet
  facet normal 0 0 -1
    outer loop
      vertex 25 60 0
      vertex 14.7839 48.9832 0
      vertex 14.8776 49.2275 0
    endloop
  endfacet
  facet normal 0 0 -1
    outer loop
      vertex 14.6651 48.75 0
      vertex 25 60 0
      vertex 14.6651 11.25 0
    endloop
  endfacet
  facet normal 0 0 -1
    outer loop
      vertex 25 60 0
      vertex 14.6651 48.75 0
      vertex 14.7839 48.9832 0
    endloop
  endfacet
  facet normal 0 0 -1
    outer loop
      vertex 14.5225 11.4695 0
      vertex 14.6651 48.75 0
      vertex 14.6651 11.25 0
    endloop
  endfacet
  facet normal 0 0 -1
    outer loop
      vertex 14.5225 11.4695 0
      vertex 14.5225 48.5305 0
      vertex 14.6651 48.75 0
    endloop
  endfacet
  facet normal 0 0 -1
    outer loop
      vertex 14.3579 11.6728 0
      vertex 14.5225 48.5305 0
      vertex 14.5225 11.4695 0
    endloop
  endfacet
  facet normal 0 0 -1
    outer loop
      vertex 14.3579 11.6728 0
      vertex 14.3579 48.3272 0
      vertex 14.5225 48.5305 0
    endloop
  endfacet
  facet normal 0 0 -1
    outer loop
      vertex 14.1728 11.8579 0
      vertex 14.3579 48.3272 0
      vertex 14.3579 11.6728 0
    endloop
  endfacet
  facet normal 0 0 -1
    outer loop
      vertex 14.1728 11.8579 0
      vertex 14.1728 48.1421 0
      vertex 14.3579 48.3272 0
    endloop
  endfacet
  facet normal 0 0 -1
    outer loop
      vertex 13.9695 12.0225 0
      vertex 14.1728 48.1421 0
      vertex 14.1728 11.8579 0
    endloop
  endfacet
  facet normal 0 0 -1
    outer loop
      vertex 13.9695 12.0225 0
      vertex 13.9695 47.9775 0
      vertex 14.1728 48.1421 0
    endloop
  endfacet
  facet normal 0 0 -1
    outer loop
      vertex 13.75 12.1651 0
      vertex 13.9695 47.9775 0
      vertex 13.9695 12.0225 0
    endloop
  endfacet
  facet normal 0 0 -1
    outer loop
      vertex 13.75 12.1651 0
      vertex 13.75 47.8349 0
      vertex 13.9695 47.9775 0
    endloop
  endfacet
  facet normal 0 0 -1
    outer loop
      vertex 13.5168 12.2839 0
      vertex 13.75 47.8349 0
      vertex 13.75 12.1651 0
    endloop
  endfacet
  facet normal 0 0 -1
    outer loop
      vertex 13.5168 12.2839 0
      vertex 13.5168 47.7161 0
      vertex 13.75 47.8349 0
    endloop
  endfacet
  facet normal 0 0 -1
    outer loop
      vertex 13.2725 12.3776 0
      vertex 13.5168 47.7161 0
      vertex 13.5168 12.2839 0
    endloop
  endfacet
  facet normal 0 0 -1
    outer loop
      vertex 13.2725 12.3776 0
      vertex 13.2725 47.6224 0
      vertex 13.5168 47.7161 0
    endloop
  endfacet
  facet normal 0 0 -1
    outer loop
      vertex 13.0198 12.4454 0
      vertex 13.2725 47.6224 0
      vertex 13.2725 12.3776 0
    endloop
  endfacet
  facet normal 0 0 -1
    outer loop
      vertex 13.0198 12.4454 0
      vertex 13.0198 47.5546 0
      vertex 13.2725 47.6224 0
    endloop
  endfacet
  facet normal 0 0 -1
    outer loop
      vertex 12.7613 12.4863 0
      vertex 13.0198 47.5546 0
      vertex 13.0198 12.4454 0
    endloop
  endfacet
  facet normal 0 0 -1
    outer loop
      vertex 12.7613 12.4863 0
      vertex 12.7613 47.5137 0
      vertex 13.0198 47.5546 0
    endloop
  endfacet
  facet normal 0 0 -1
    outer loop
      vertex 12.5 12.5 0
      vertex 12.7613 47.5137 0
      vertex 12.7613 12.4863 0
    endloop
  endfacet
  facet normal 0 0 -1
    outer loop
      vertex 12.5 12.5 0
      vertex 12.5 47.5 0
      vertex 12.7613 47.5137 0
    endloop
  endfacet
  facet normal 0 0 -1
    outer loop
      vertex 12.2387 12.4863 0
      vertex 12.5 47.5 0
      vertex 12.5 12.5 0
    endloop
  endfacet
  facet normal 0 0 -1
    outer loop
      vertex 12.2387 12.4863 0
      vertex 12.2387 47.5137 0
      vertex 12.5 47.5 0
    endloop
  endfacet
  facet normal 0 0 -1
    outer loop
      vertex 11.9802 12.4454 0
      vertex 12.2387 47.5137 0
      vertex 12.2387 12.4863 0
    endloop
  endfacet
  facet normal 0 0 -1
    outer loop
      vertex 11.9802 12.4454 0
      vertex 11.9802 47.5546 0
      vertex 12.2387 47.5137 0
    endloop
  endfacet
  facet normal 0 0 -1
    outer loop
      vertex 11.7275 12.3776 0
      vertex 11.9802 47.5546 0
      vertex 11.9802 12.4454 0
    endloop
  endfacet
  facet normal 0 0 -1
    outer loop
      vertex 11.7275 12.3776 0
      vertex 11.7275 47.6224 0
      vertex 11.9802 47.5546 0
    endloop
  endfacet
  facet normal 0 0 -1
    outer loop
      vertex 11.4832 12.2839 0
      vertex 11.7275 47.6224 0
      vertex 11.7275 12.3776 0
    endloop
  endfacet
  facet normal 0 0 -1
    outer loop
      vertex 11.4832 12.2839 0
      vertex 11.4832 47.7161 0
      vertex 11.7275 47.6224 0
    endloop
  endfacet
  facet normal 0 0 -1
    outer loop
      vertex 11.25 12.1651 0
      vertex 11.4832 47.7161 0
      vertex 11.4832 12.2839 0
    endloop
  endfacet
  facet normal 0 0 -1
    outer loop
      vertex 11.25 12.1651 0
      vertex 11.25 47.8349 0
      vertex 11.4832 47.7161 0
    endloop
  endfacet
  facet normal 0 0 -1
    outer loop
      vertex 11.0305 12.0225 0
      vertex 11.25 47.8349 0
      vertex 11.25 12.1651 0
    endloop
  endfacet
  facet normal 0 0 -1
    outer loop
      vertex 11.0305 12.0225 0
      vertex 11.0305 47.9775 0
      vertex 11.25 47.8349 0
    endloop
  endfacet
  facet normal 0 0 -1
    outer loop
      vertex 10.8272 11.8579 0
      vertex 11.0305 47.9775 0
      vertex 11.0305 12.0225 0
    endloop
  endfacet
  facet normal 0 0 -1
    outer loop
      vertex 10.8272 11.8579 0
      vertex 10.8272 48.1421 0
      vertex 11.0305 47.9775 0
    endloop
  endfacet
  facet normal 0 0 -1
    outer loop
      vertex 10.6421 11.6728 0
      vertex 10.8272 48.1421 0
      vertex 10.8272 11.8579 0
    endloop
  endfacet
  facet normal 0 0 -1
    outer loop
      vertex 10.6421 11.6728 0
      vertex 10.6421 48.3272 0
      vertex 10.8272 48.1421 0
    endloop
  endfacet
  facet normal 0 0 -1
    outer loop
      vertex 10.4775 11.4695 0
      vertex 10.6421 48.3272 0
      vertex 10.6421 11.6728 0
    endloop
  endfacet
  facet normal 0 0 -1
    outer loop
      vertex 10.4775 11.4695 0
      vertex 10.4775 48.5305 0
      vertex 10.6421 48.3272 0
    endloop
  endfacet
  facet normal 0 0 -1
    outer loop
      vertex 10.3349 11.25 0
      vertex 10.4775 48.5305 0
      vertex 10.4775 11.4695 0
    endloop
  endfacet
  facet normal 0 0 -1
    outer loop
      vertex 10.3349 11.25 0
      vertex 10.3349 48.75 0
      vertex 10.4775 48.5305 0
    endloop
  endfacet
  facet normal 0 0 -1
    outer loop
      vertex 0 0 0
      vertex 10.3349 11.25 0
      vertex 10.2161 11.0168 0
    endloop
  endfacet
  facet normal -0 0 -1
    outer loop
      vertex 10.3349 11.25 0
      vertex 0 0 0
      vertex 10.3349 48.75 0
    endloop
  endfacet
  facet normal 0 0 -1
    outer loop
      vertex 0 0 0
      vertex 10.2161 11.0168 0
      vertex 10.1224 10.7725 0
    endloop
  endfacet
  facet normal 0 0 -1
    outer loop
      vertex 0 60 0
      vertex 10.3349 48.75 0
      vertex 0 0 0
    endloop
  endfacet
  facet normal 0 0 -1
    outer loop
      vertex 0 0 0
      vertex 10.1224 10.7725 0
      vertex 10.0546 10.5198 0
    endloop
  endfacet
  facet normal 0 0 -1
    outer loop
      vertex 10.3349 48.75 0
      vertex 0 60 0
      vertex 10.2161 48.9832 0
    endloop
  endfacet
  facet normal 0 0 -1
    outer loop
      vertex 0 0 0
      vertex 10.0546 10.5198 0
      vertex 10.0137 10.2613 0
    endloop
  endfacet
  facet normal 0 0 -1
    outer loop
      vertex 10.2161 48.9832 0
      vertex 0 60 0
      vertex 10.1224 49.2275 0
    endloop
  endfacet
  facet normal 0 0 -1
    outer loop
      vertex 0 0 0
      vertex 10.0137 10.2613 0
      vertex 10 10 0
    endloop
  endfacet
  facet normal 0 0 -1
    outer loop
      vertex 10.1224 49.2275 0
      vertex 0 60 0
      vertex 10.0546 49.4802 0
    endloop
  endfacet
  facet normal 0 0 -1
    outer loop
      vertex 14.9863 10.2613 0
      vertex 25 0 0
      vertex 15 10 0
    endloop
  endfacet
  facet normal 0 0 -1
    outer loop
      vertex 25 0 0
      vertex 14.9863 9.73868 0
      vertex 15 10 0
    endloop
  endfacet
  facet normal 0 0 -1
    outer loop
      vertex 25 0 0
      vertex 14.9454 9.48022 0
      vertex 14.9863 9.73868 0
    endloop
  endfacet
  facet normal 0 0 -1
    outer loop
      vertex 25 0 0
      vertex 14.8776 9.22746 0
      vertex 14.9454 9.48022 0
    endloop
  endfacet
  facet normal 0 0 -1
    outer loop
      vertex 25 0 0
      vertex 14.7839 8.98316 0
      vertex 14.8776 9.22746 0
    endloop
  endfacet
  facet normal 0 0 -1
    outer loop
      vertex 25 0 0
      vertex 14.6651 8.75 0
      vertex 14.7839 8.98316 0
    endloop
  endfacet
  facet normal 0 0 -1
    outer loop
      vertex 25 0 0
      vertex 14.5225 8.53054 0
      vertex 14.6651 8.75 0
    endloop
  endfacet
  facet normal 0 0 -1
    outer loop
      vertex 25 0 0
      vertex 14.3579 8.32717 0
      vertex 14.5225 8.53054 0
    endloop
  endfacet
  facet normal 0 0 -1
    outer loop
      vertex 25 0 0
      vertex 14.1728 8.14214 0
      vertex 14.3579 8.32717 0
    endloop
  endfacet
  facet normal 0 0 -1
    outer loop
      vertex 25 0 0
      vertex 13.9695 7.97746 0
      vertex 14.1728 8.14214 0
    endloop
  endfacet
  facet normal 0 0 -1
    outer loop
      vertex 25 0 0
      vertex 13.75 7.83494 0
      vertex 13.9695 7.97746 0
    endloop
  endfacet
  facet normal 0 0 -1
    outer loop
      vertex 25 0 0
      vertex 13.5168 7.71614 0
      vertex 13.75 7.83494 0
    endloop
  endfacet
  facet normal 0 0 -1
    outer loop
      vertex 25 0 0
      vertex 13.2725 7.62236 0
      vertex 13.5168 7.71614 0
    endloop
  endfacet
  facet normal 0 0 -1
    outer loop
      vertex 25 0 0
      vertex 13.0198 7.55463 0
      vertex 13.2725 7.62236 0
    endloop
  endfacet
  facet normal 0 0 -1
    outer loop
      vertex 25 0 0
      vertex 12.7613 7.51369 0
      vertex 13.0198 7.55463 0
    endloop
  endfacet
  facet normal 0 0 -1
    outer loop
      vertex 25 0 0
      vertex 12.5 7.5 0
      vertex 12.7613 7.51369 0
    endloop
  endfacet
  facet normal 0 0 -1
    outer loop
      vertex 0 0 0
      vertex 12.5 7.5 0
      vertex 25 0 0
    endloop
  endfacet
  facet normal -0 0 -1
    outer loop
      vertex 12.5 7.5 0
      vertex 0 0 0
      vertex 12.2387 7.51369 0
    endloop
  endfacet
  facet normal -0 0 -1
    outer loop
      vertex 12.2387 7.51369 0
      vertex 0 0 0
      vertex 11.9802 7.55463 0
    endloop
  endfacet
  facet normal -0 0 -1
    outer loop
      vertex 11.9802 7.55463 0
      vertex 0 0 0
      vertex 11.7275 7.62236 0
    endloop
  endfacet
  facet normal -0 0 -1
    outer loop
      vertex 11.7275 7.62236 0
      vertex 0 0 0
      vertex 11.4832 7.71614 0
    endloop
  endfacet
  facet normal 0 0 -1
    outer loop
      vertex 10.0546 49.4802 0
      vertex 0 60 0
      vertex 10.0137 49.7387 0
    endloop
  endfacet
  facet normal -0 0 -1
    outer loop
      vertex 10.0137 9.73868 0
      vertex 0 0 0
      vertex 10 10 0
    endloop
  endfacet
  facet normal -0 0 -1
    outer loop
      vertex 10.0546 9.48022 0
      vertex 0 0 0
      vertex 10.0137 9.73868 0
    endloop
  endfacet
  facet normal -0 0 -1
    outer loop
      vertex 10.1224 9.22746 0
      vertex 0 0 0
      vertex 10.0546 9.48022 0
    endloop
  endfacet
  facet normal -0 0 -1
    outer loop
      vertex 10.2161 8.98316 0
      vertex 0 0 0
      vertex 10.1224 9.22746 0
    endloop
  endfacet
  facet normal -0 0 -1
    outer loop
      vertex 10.3349 8.75 0
      vertex 0 0 0
      vertex 10.2161 8.98316 0
    endloop
  endfacet
  facet normal -0 0 -1
    outer loop
      vertex 10.4775 8.53054 0
      vertex 0 0 0
      vertex 10.3349 8.75 0
    endloop
  endfacet
  facet normal -0 0 -1
    outer loop
      vertex 10.6421 8.32717 0
      vertex 0 0 0
      vertex 10.4775 8.53054 0
    endloop
  endfacet
  facet normal -0 0 -1
    outer loop
      vertex 10.8272 8.14214 0
      vertex 0 0 0
      vertex 10.6421 8.32717 0
    endloop
  endfacet
  facet normal -0 0 -1
    outer loop
      vertex 11.0305 7.97746 0
      vertex 0 0 0
      vertex 10.8272 8.14214 0
    endloop
  endfacet
  facet normal -0 0 -1
    outer loop
      vertex 11.25 7.83494 0
      vertex 0 0 0
      vertex 11.0305 7.97746 0
    endloop
  endfacet
  facet normal -0 0 -1
    outer loop
      vertex 11.4832 7.71614 0
      vertex 0 0 0
      vertex 11.25 7.83494 0
    endloop
  endfacet
  facet normal 0 0 -1
    outer loop
      vertex 14.9454 10.5198 0
      vertex 25 0 0
      vertex 14.9863 10.2613 0
    endloop
  endfacet
  facet normal 0 0 -1
    outer loop
      vertex 14.9863 50.2613 0
      vertex 25 60 0
      vertex 15 50 0
    endloop
  endfacet
  facet normal 0 0 -1
    outer loop
      vertex 14.9454 50.5198 0
      vertex 25 60 0
      vertex 14.9863 50.2613 0
    endloop
  endfacet
  facet normal 0 0 -1
    outer loop
      vertex 14.8776 50.7725 0
      vertex 25 60 0
      vertex 14.9454 50.5198 0
    endloop
  endfacet
  facet normal 0 0 -1
    outer loop
      vertex 14.7839 51.0168 0
      vertex 25 60 0
      vertex 14.8776 50.7725 0
    endloop
  endfacet
  facet normal 0 0 -1
    outer loop
      vertex 14.6651 51.25 0
      vertex 25 60 0
      vertex 14.7839 51.0168 0
    endloop
  endfacet
  facet normal 0 0 -1
    outer loop
      vertex 14.5225 51.4695 0
      vertex 25 60 0
      vertex 14.6651 51.25 0
    endloop
  endfacet
  facet normal 0 0 -1
    outer loop
      vertex 14.3579 51.6728 0
      vertex 25 60 0
      vertex 14.5225 51.4695 0
    endloop
  endfacet
  facet normal 0 0 -1
    outer loop
      vertex 14.1728 51.8579 0
      vertex 25 60 0
      vertex 14.3579 51.6728 0
    endloop
  endfacet
  facet normal 0 0 -1
    outer loop
      vertex 13.9695 52.0225 0
      vertex 25 60 0
      vertex 14.1728 51.8579 0
    endloop
  endfacet
  facet normal 0 0 -1
    outer loop
      vertex 13.75 52.1651 0
      vertex 25 60 0
      vertex 13.9695 52.0225 0
    endloop
  endfacet
  facet normal 0 0 -1
    outer loop
      vertex 13.5168 52.2839 0
      vertex 25 60 0
      vertex 13.75 52.1651 0
    endloop
  endfacet
  facet normal 0 0 -1
    outer loop
      vertex 13.2725 52.3776 0
      vertex 25 60 0
      vertex 13.5168 52.2839 0
    endloop
  endfacet
  facet normal 0 0 -1
    outer loop
      vertex 13.0198 52.4454 0
      vertex 25 60 0
      vertex 13.2725 52.3776 0
    endloop
  endfacet
  facet normal 0 0 -1
    outer loop
      vertex 12.7613 52.4863 0
      vertex 25 60 0
      vertex 13.0198 52.4454 0
    endloop
  endfacet
  facet normal 0 0 -1
    outer loop
      vertex 12.5 52.5 0
      vertex 25 60 0
      vertex 12.7613 52.4863 0
    endloop
  endfacet
  facet normal 0 0 -1
    outer loop
      vertex 0 60 0
      vertex 12.5 52.5 0
      vertex 12.2387 52.4863 0
    endloop
  endfacet
  facet normal 0 0 -1
    outer loop
      vertex 0 60 0
      vertex 12.2387 52.4863 0
      vertex 11.9802 52.4454 0
    endloop
  endfacet
  facet normal 0 0 -1
    outer loop
      vertex 0 60 0
      vertex 11.9802 52.4454 0
      vertex 11.7275 52.3776 0
    endloop
  endfacet
  facet normal 0 0 -1
    outer loop
      vertex 0 60 0
      vertex 11.7275 52.3776 0
      vertex 11.4832 52.2839 0
    endloop
  endfacet
  facet normal 0 0 -1
    outer loop
      vertex 0 60 0
      vertex 11.4832 52.2839 0
      vertex 11.25 52.1651 0
    endloop
  endfacet
  facet normal 0 0 -1
    outer loop
      vertex 10.0137 49.7387 0
      vertex 0 60 0
      vertex 10 50 0
    endloop
  endfacet
  facet normal 0 0 -1
    outer loop
      vertex 10 50 0
      vertex 0 60 0
      vertex 10.0137 50.2613 0
    endloop
  endfacet
  facet normal 0 0 -1
    outer loop
      vertex 12.5 52.5 0
      vertex 0 60 0
      vertex 25 60 0
    endloop
  endfacet
  facet normal 0 0 -1
    outer loop
      vertex 11.0305 52.0225 0
      vertex 0 60 0
      vertex 11.25 52.1651 0
    endloop
  endfacet
  facet normal 0 0 -1
    outer loop
      vertex 10.8272 51.8579 0
      vertex 0 60 0
      vertex 11.0305 52.0225 0
    endloop
  endfacet
  facet normal 0 0 -1
    outer loop
      vertex 10.6421 51.6728 0
      vertex 0 60 0
      vertex 10.8272 51.8579 0
    endloop
  endfacet
  facet normal 0 0 -1
    outer loop
      vertex 10.4775 51.4695 0
      vertex 0 60 0
      vertex 10.6421 51.6728 0
    endloop
  endfacet
  facet normal 0 0 -1
    outer loop
      vertex 10.3349 51.25 0
      vertex 0 60 0
      vertex 10.4775 51.4695 0
    endloop
  endfacet
  facet normal 0 0 -1
    outer loop
      vertex 10.2161 51.0168 0
      vertex 0 60 0
      vertex 10.3349 51.25 0
    endloop
  endfacet
  facet normal 0 0 -1
    outer loop
      vertex 10.1224 50.7725 0
      vertex 0 60 0
      vertex 10.2161 51.0168 0
    endloop
  endfacet
  facet normal 0 0 -1
    outer loop
      vertex 10.0546 50.5198 0
      vertex 0 60 0
      vertex 10.1224 50.7725 0
    endloop
  endfacet
  facet normal 0 0 -1
    outer loop
      vertex 10.0137 50.2613 0
      vertex 0 60 0
      vertex 10.0546 50.5198 0
    endloop
  endfacet
  facet normal 0 -1 0
    outer loop
      vertex 0 0 0
      vertex 25 0 4
      vertex 0 0 4
    endloop
  endfacet
  facet normal 0 -1 -0
    outer loop
      vertex 25 0 4
      vertex 0 0 0
      vertex 25 0 0
    endloop
  endfacet
  facet normal -0.998629 -0.0523377 0
    outer loop
      vertex 15 10 0
      vertex 14.9863 10.2613 4
      vertex 14.9863 10.2613 0
    endloop
  endfacet
  facet normal -0.998629 -0.0523377 0
    outer loop
      vertex 14.9863 10.2613 4
      vertex 15 10 0
      vertex 15 10 4
    endloop
  endfacet
  facet normal 0.0523375 -0.998629 0
    outer loop
      vertex 12.2387 12.4863 0
      vertex 12.5 12.5 4
      vertex 12.2387 12.4863 4
    endloop
  endfacet
  facet normal 0.0523375 -0.998629 0
    outer loop
      vertex 12.5 12.5 4
      vertex 12.2387 12.4863 0
      vertex 12.5 12.5 0
    endloop
  endfacet
  facet normal -0.0523341 0.99863 0
    outer loop
      vertex 12.7613 7.51369 0
      vertex 12.5 7.5 4
      vertex 12.7613 7.51369 4
    endloop
  endfacet
  facet normal -0.0523341 0.99863 0
    outer loop
      vertex 12.5 7.5 4
      vertex 12.7613 7.51369 0
      vertex 12.5 7.5 0
    endloop
  endfacet
  facet normal -0.62932 -0.777146 0
    outer loop
      vertex 13.9695 12.0225 0
      vertex 14.1728 11.8579 4
      vertex 13.9695 12.0225 4
    endloop
  endfacet
  facet normal -0.62932 -0.777146 -0
    outer loop
      vertex 14.1728 11.8579 4
      vertex 13.9695 12.0225 0
      vertex 14.1728 11.8579 0
    endloop
  endfacet
  facet normal 0.777146 -0.62932 0
    outer loop
      vertex 10.4775 11.4695 4
      vertex 10.6421 11.6728 0
      vertex 10.6421 11.6728 4
    endloop
  endfacet
  facet normal 0.777146 -0.62932 0
    outer loop
      vertex 10.6421 11.6728 0
      vertex 10.4775 11.4695 4
      vertex 10.4775 11.4695 0
    endloop
  endfacet
  facet normal 0.453991 -0.891006 0
    outer loop
      vertex 11.25 12.1651 0
      vertex 11.4832 12.2839 4
      vertex 11.25 12.1651 4
    endloop
  endfacet
  facet normal 0.453991 -0.891006 0
    outer loop
      vertex 11.4832 12.2839 4
      vertex 11.25 12.1651 0
      vertex 11.4832 12.2839 0
    endloop
  endfacet
  facet normal 0.93358 0.358368 0
    outer loop
      vertex 10.2161 8.98316 4
      vertex 10.1224 9.22746 0
      vertex 10.1224 9.22746 4
    endloop
  endfacet
  facet normal 0.93358 0.358368 0
    outer loop
      vertex 10.1224 9.22746 0
      vertex 10.2161 8.98316 4
      vertex 10.2161 8.98316 0
    endloop
  endfacet
  facet normal -0.891007 -0.45399 0
    outer loop
      vertex 14.7839 11.0168 0
      vertex 14.6651 11.25 4
      vertex 14.6651 11.25 0
    endloop
  endfacet
  facet normal -0.891007 -0.45399 0
    outer loop
      vertex 14.6651 11.25 4
      vertex 14.7839 11.0168 0
      vertex 14.7839 11.0168 4
    endloop
  endfacet
  facet normal -0.258821 -0.965925 0
    outer loop
      vertex 13.0198 12.4454 0
      vertex 13.2725 12.3776 4
      vertex 13.0198 12.4454 4
    endloop
  endfacet
  facet normal -0.258821 -0.965925 -0
    outer loop
      vertex 13.2725 12.3776 4
      vertex 13.0198 12.4454 0
      vertex 13.2725 12.3776 0
    endloop
  endfacet
  facet normal 0.93358 -0.358368 0
    outer loop
      vertex 10.1224 10.7725 4
      vertex 10.2161 11.0168 0
      vertex 10.2161 11.0168 4
    endloop
  endfacet
  facet normal 0.93358 -0.358368 0
    outer loop
      vertex 10.2161 11.0168 0
      vertex 10.1224 10.7725 4
      vertex 10.1224 10.7725 0
    endloop
  endfacet
  facet normal 0.891007 -0.45399 0
    outer loop
      vertex 10.2161 11.0168 4
      vertex 10.3349 11.25 0
      vertex 10.3349 11.25 4
    endloop
  endfacet
  facet normal 0.891007 -0.45399 0
    outer loop
      vertex 10.3349 11.25 0
      vertex 10.2161 11.0168 4
      vertex 10.2161 11.0168 0
    endloop
  endfacet
  facet normal 0.987688 -0.156434 0
    outer loop
      vertex 10.0137 10.2613 4
      vertex 10.0546 10.5198 0
      vertex 10.0546 10.5198 4
    endloop
  endfacet
  facet normal 0.987688 -0.156434 0
    outer loop
      vertex 10.0546 10.5198 0
      vertex 10.0137 10.2613 4
      vertex 10.0137 10.2613 0
    endloop
  endfacet
  facet normal 0.258821 -0.965925 0
    outer loop
      vertex 11.7275 12.3776 0
      vertex 11.9802 12.4454 4
      vertex 11.7275 12.3776 4
    endloop
  endfacet
  facet normal 0.258821 -0.965925 0
    outer loop
      vertex 11.9802 12.4454 4
      vertex 11.7275 12.3776 0
      vertex 11.9802 12.4454 0
    endloop
  endfacet
  facet normal -0.358368 0.93358 0
    outer loop
      vertex 13.5168 7.71614 0
      vertex 13.2725 7.62236 4
      vertex 13.5168 7.71614 4
    endloop
  endfacet
  facet normal -0.358368 0.93358 0
    outer loop
      vertex 13.2725 7.62236 4
      vertex 13.5168 7.71614 0
      vertex 13.2725 7.62236 0
    endloop
  endfacet
  facet normal -0.777146 0.62932 0
    outer loop
      vertex 14.3579 8.32717 0
      vertex 14.5225 8.53054 4
      vertex 14.5225 8.53054 0
    endloop
  endfacet
  facet normal -0.777146 0.62932 0
    outer loop
      vertex 14.5225 8.53054 4
      vertex 14.3579 8.32717 0
      vertex 14.3579 8.32717 4
    endloop
  endfacet
  facet normal -0.93358 0.358368 0
    outer loop
      vertex 14.7839 8.98316 0
      vertex 14.8776 9.22746 4
      vertex 14.8776 9.22746 0
    endloop
  endfacet
  facet normal -0.93358 0.358368 0
    outer loop
      vertex 14.8776 9.22746 4
      vertex 14.7839 8.98316 0
      vertex 14.7839 8.98316 4
    endloop
  endfacet
  facet normal -0.987688 0.156434 0
    outer loop
      vertex 14.9454 9.48022 0
      vertex 14.9863 9.73868 4
      vertex 14.9863 9.73868 0
    endloop
  endfacet
  facet normal -0.987688 0.156434 0
    outer loop
      vertex 14.9863 9.73868 4
      vertex 14.9454 9.48022 0
      vertex 14.9454 9.48022 4
    endloop
  endfacet
  facet normal 0.258821 0.965925 -0
    outer loop
      vertex 11.9802 7.55463 0
      vertex 11.7275 7.62236 4
      vertex 11.9802 7.55463 4
    endloop
  endfacet
  facet normal 0.258821 0.965925 0
    outer loop
      vertex 11.7275 7.62236 4
      vertex 11.9802 7.55463 0
      vertex 11.7275 7.62236 0
    endloop
  endfacet
  facet normal 0.156434 0.987688 -0
    outer loop
      vertex 12.2387 7.51369 0
      vertex 11.9802 7.55463 4
      vertex 12.2387 7.51369 4
    endloop
  endfacet
  facet normal 0.156434 0.987688 0
    outer loop
      vertex 11.9802 7.55463 4
      vertex 12.2387 7.51369 0
      vertex 11.9802 7.55463 0
    endloop
  endfacet
  facet normal 0.62932 0.777146 -0
    outer loop
      vertex 11.0305 7.97746 0
      vertex 10.8272 8.14214 4
      vertex 11.0305 7.97746 4
    endloop
  endfacet
  facet normal 0.62932 0.777146 0
    outer loop
      vertex 10.8272 8.14214 4
      vertex 11.0305 7.97746 0
      vertex 10.8272 8.14214 0
    endloop
  endfacet
  facet normal 0.707107 0.707107 0
    outer loop
      vertex 10.8272 8.14214 4
      vertex 10.6421 8.32717 0
      vertex 10.6421 8.32717 4
    endloop
  endfacet
  facet normal 0.707107 0.707107 0
    outer loop
      vertex 10.6421 8.32717 0
      vertex 10.8272 8.14214 4
      vertex 10.8272 8.14214 0
    endloop
  endfacet
  facet normal -0.965925 -0.258821 0
    outer loop
      vertex 14.9454 10.5198 0
      vertex 14.8776 10.7725 4
      vertex 14.8776 10.7725 0
    endloop
  endfacet
  facet normal -0.965925 -0.258821 0
    outer loop
      vertex 14.8776 10.7725 4
      vertex 14.9454 10.5198 0
      vertex 14.9454 10.5198 4
    endloop
  endfacet
  facet normal -0.987688 -0.156434 0
    outer loop
      vertex 14.9863 10.2613 0
      vertex 14.9454 10.5198 4
      vertex 14.9454 10.5198 0
    endloop
  endfacet
  facet normal -0.987688 -0.156434 0
    outer loop
      vertex 14.9454 10.5198 4
      vertex 14.9863 10.2613 0
      vertex 14.9863 10.2613 4
    endloop
  endfacet
  facet normal -0.93358 -0.358368 0
    outer loop
      vertex 14.8776 10.7725 0
      vertex 14.7839 11.0168 4
      vertex 14.7839 11.0168 0
    endloop
  endfacet
  facet normal -0.93358 -0.358368 0
    outer loop
      vertex 14.7839 11.0168 4
      vertex 14.8776 10.7725 0
      vertex 14.8776 10.7725 4
    endloop
  endfacet
  facet normal -0.777146 -0.62932 0
    outer loop
      vertex 14.5225 11.4695 0
      vertex 14.3579 11.6728 4
      vertex 14.3579 11.6728 0
    endloop
  endfacet
  facet normal -0.777146 -0.62932 0
    outer loop
      vertex 14.3579 11.6728 4
      vertex 14.5225 11.4695 0
      vertex 14.5225 11.4695 4
    endloop
  endfacet
  facet normal -0.83867 -0.54464 0
    outer loop
      vertex 14.6651 11.25 0
      vertex 14.5225 11.4695 4
      vertex 14.5225 11.4695 0
    endloop
  endfacet
  facet normal -0.83867 -0.54464 0
    outer loop
      vertex 14.5225 11.4695 4
      vertex 14.6651 11.25 0
      vertex 14.6651 11.25 4
    endloop
  endfacet
  facet normal -0.156434 -0.987688 0
    outer loop
      vertex 12.7613 12.4863 0
      vertex 13.0198 12.4454 4
      vertex 12.7613 12.4863 4
    endloop
  endfacet
  facet normal -0.156434 -0.987688 -0
    outer loop
      vertex 13.0198 12.4454 4
      vertex 12.7613 12.4863 0
      vertex 13.0198 12.4454 0
    endloop
  endfacet
  facet normal -0.0523377 -0.998629 0
    outer loop
      vertex 12.5 12.5 0
      vertex 12.7613 12.4863 4
      vertex 12.5 12.5 4
    endloop
  endfacet
  facet normal -0.0523377 -0.998629 -0
    outer loop
      vertex 12.7613 12.4863 4
      vertex 12.5 12.5 0
      vertex 12.7613 12.4863 0
    endloop
  endfacet
  facet normal -0.45399 -0.891007 0
    outer loop
      vertex 13.5168 12.2839 0
      vertex 13.75 12.1651 4
      vertex 13.5168 12.2839 4
    endloop
  endfacet
  facet normal -0.45399 -0.891007 -0
    outer loop
      vertex 13.75 12.1651 4
      vertex 13.5168 12.2839 0
      vertex 13.75 12.1651 0
    endloop
  endfacet
  facet normal -0.54464 -0.83867 0
    outer loop
      vertex 13.75 12.1651 0
      vertex 13.9695 12.0225 4
      vertex 13.75 12.1651 4
    endloop
  endfacet
  facet normal -0.54464 -0.83867 -0
    outer loop
      vertex 13.9695 12.0225 4
      vertex 13.75 12.1651 0
      vertex 13.9695 12.0225 0
    endloop
  endfacet
  facet normal 0.83867 -0.54464 0
    outer loop
      vertex 10.3349 11.25 4
      vertex 10.4775 11.4695 0
      vertex 10.4775 11.4695 4
    endloop
  endfacet
  facet normal 0.83867 -0.54464 0
    outer loop
      vertex 10.4775 11.4695 0
      vertex 10.3349 11.25 4
      vertex 10.3349 11.25 0
    endloop
  endfacet
  facet normal 0.965925 -0.258821 0
    outer loop
      vertex 10.0546 10.5198 4
      vertex 10.1224 10.7725 0
      vertex 10.1224 10.7725 4
    endloop
  endfacet
  facet normal 0.965925 -0.258821 0
    outer loop
      vertex 10.1224 10.7725 0
      vertex 10.0546 10.5198 4
      vertex 10.0546 10.5198 0
    endloop
  endfacet
  facet normal 0.99863 -0.0523341 0
    outer loop
      vertex 10 10 4
      vertex 10.0137 10.2613 0
      vertex 10.0137 10.2613 4
    endloop
  endfacet
  facet normal 0.99863 -0.0523341 0
    outer loop
      vertex 10.0137 10.2613 0
      vertex 10 10 4
      vertex 10 10 0
    endloop
  endfacet
  facet normal 0.544638 -0.838671 0
    outer loop
      vertex 11.0305 12.0225 0
      vertex 11.25 12.1651 4
      vertex 11.0305 12.0225 4
    endloop
  endfacet
  facet normal 0.544638 -0.838671 0
    outer loop
      vertex 11.25 12.1651 4
      vertex 11.0305 12.0225 0
      vertex 11.25 12.1651 0
    endloop
  endfacet
  facet normal 0.62932 -0.777146 0
    outer loop
      vertex 10.8272 11.8579 0
      vertex 11.0305 12.0225 4
      vertex 10.8272 11.8579 4
    endloop
  endfacet
  facet normal 0.62932 -0.777146 0
    outer loop
      vertex 11.0305 12.0225 4
      vertex 10.8272 11.8579 0
      vertex 11.0305 12.0225 0
    endloop
  endfacet
  facet normal 0.156434 -0.987688 0
    outer loop
      vertex 11.9802 12.4454 0
      vertex 12.2387 12.4863 4
      vertex 11.9802 12.4454 4
    endloop
  endfacet
  facet normal 0.156434 -0.987688 0
    outer loop
      vertex 12.2387 12.4863 4
      vertex 11.9802 12.4454 0
      vertex 12.2387 12.4863 0
    endloop
  endfacet
  facet normal -0.998629 0.0523375 0
    outer loop
      vertex 14.9863 9.73868 0
      vertex 15 10 4
      vertex 15 10 0
    endloop
  endfacet
  facet normal -0.998629 0.0523375 0
    outer loop
      vertex 15 10 4
      vertex 14.9863 9.73868 0
      vertex 14.9863 9.73868 4
    endloop
  endfacet
  facet normal -0.156434 0.987688 0
    outer loop
      vertex 13.0198 7.55463 0
      vertex 12.7613 7.51369 4
      vertex 13.0198 7.55463 4
    endloop
  endfacet
  facet normal -0.156434 0.987688 0
    outer loop
      vertex 12.7613 7.51369 4
      vertex 13.0198 7.55463 0
      vertex 12.7613 7.51369 0
    endloop
  endfacet
  facet normal -0.54464 0.83867 0
    outer loop
      vertex 13.9695 7.97746 0
      vertex 13.75 7.83494 4
      vertex 13.9695 7.97746 4
    endloop
  endfacet
  facet normal -0.54464 0.83867 0
    outer loop
      vertex 13.75 7.83494 4
      vertex 13.9695 7.97746 0
      vertex 13.75 7.83494 0
    endloop
  endfacet
  facet normal -0.707107 0.707107 0
    outer loop
      vertex 14.1728 8.14214 0
      vertex 14.3579 8.32717 4
      vertex 14.3579 8.32717 0
    endloop
  endfacet
  facet normal -0.707107 0.707107 0
    outer loop
      vertex 14.3579 8.32717 4
      vertex 14.1728 8.14214 0
      vertex 14.1728 8.14214 4
    endloop
  endfacet
  facet normal -0.62932 0.777146 0
    outer loop
      vertex 14.1728 8.14214 0
      vertex 13.9695 7.97746 4
      vertex 14.1728 8.14214 4
    endloop
  endfacet
  facet normal -0.62932 0.777146 0
    outer loop
      vertex 13.9695 7.97746 4
      vertex 14.1728 8.14214 0
      vertex 13.9695 7.97746 0
    endloop
  endfacet
  facet normal -0.838671 0.544638 0
    outer loop
      vertex 14.5225 8.53054 0
      vertex 14.6651 8.75 4
      vertex 14.6651 8.75 0
    endloop
  endfacet
  facet normal -0.838671 0.544638 0
    outer loop
      vertex 14.6651 8.75 4
      vertex 14.5225 8.53054 0
      vertex 14.5225 8.53054 4
    endloop
  endfacet
  facet normal -0.891006 0.453991 0
    outer loop
      vertex 14.6651 8.75 0
      vertex 14.7839 8.98316 4
      vertex 14.7839 8.98316 0
    endloop
  endfacet
  facet normal -0.891006 0.453991 0
    outer loop
      vertex 14.7839 8.98316 4
      vertex 14.6651 8.75 0
      vertex 14.6651 8.75 4
    endloop
  endfacet
  facet normal 0.54464 0.83867 -0
    outer loop
      vertex 11.25 7.83494 0
      vertex 11.0305 7.97746 4
      vertex 11.25 7.83494 4
    endloop
  endfacet
  facet normal 0.54464 0.83867 0
    outer loop
      vertex 11.0305 7.97746 4
      vertex 11.25 7.83494 0
      vertex 11.0305 7.97746 0
    endloop
  endfacet
  facet normal 0.45399 0.891007 -0
    outer loop
      vertex 11.4832 7.71614 0
      vertex 11.25 7.83494 4
      vertex 11.4832 7.71614 4
    endloop
  endfacet
  facet normal 0.45399 0.891007 0
    outer loop
      vertex 11.25 7.83494 4
      vertex 11.4832 7.71614 0
      vertex 11.25 7.83494 0
    endloop
  endfacet
  facet normal 0.358368 0.93358 -0
    outer loop
      vertex 11.7275 7.62236 0
      vertex 11.4832 7.71614 4
      vertex 11.7275 7.62236 4
    endloop
  endfacet
  facet normal 0.358368 0.93358 0
    outer loop
      vertex 11.4832 7.71614 4
      vertex 11.7275 7.62236 0
      vertex 11.4832 7.71614 0
    endloop
  endfacet
  facet normal 0.0523339 0.99863 -0
    outer loop
      vertex 12.5 7.5 0
      vertex 12.2387 7.51369 4
      vertex 12.5 7.5 4
    endloop
  endfacet
  facet normal 0.0523339 0.99863 0
    outer loop
      vertex 12.2387 7.51369 4
      vertex 12.5 7.5 0
      vertex 12.2387 7.51369 0
    endloop
  endfacet
  facet normal 0.838671 0.544638 0
    outer loop
      vertex 10.4775 8.53054 4
      vertex 10.3349 8.75 0
      vertex 10.3349 8.75 4
    endloop
  endfacet
  facet normal 0.838671 0.544638 0
    outer loop
      vertex 10.3349 8.75 0
      vertex 10.4775 8.53054 4
      vertex 10.4775 8.53054 0
    endloop
  endfacet
  facet normal 0.987688 0.156434 0
    outer loop
      vertex 10.0546 9.48022 4
      vertex 10.0137 9.73868 0
      vertex 10.0137 9.73868 4
    endloop
  endfacet
  facet normal 0.987688 0.156434 0
    outer loop
      vertex 10.0137 9.73868 0
      vertex 10.0546 9.48022 4
      vertex 10.0546 9.48022 0
    endloop
  endfacet
  facet normal -0.707107 -0.707107 0
    outer loop
      vertex 14.3579 11.6728 0
      vertex 14.1728 11.8579 4
      vertex 14.1728 11.8579 0
    endloop
  endfacet
  facet normal -0.707107 -0.707107 0
    outer loop
      vertex 14.1728 11.8579 4
      vertex 14.3579 11.6728 0
      vertex 14.3579 11.6728 4
    endloop
  endfacet
  facet normal -0.358368 -0.93358 0
    outer loop
      vertex 13.2725 12.3776 0
      vertex 13.5168 12.2839 4
      vertex 13.2725 12.3776 4
    endloop
  endfacet
  facet normal -0.358368 -0.93358 -0
    outer loop
      vertex 13.5168 12.2839 4
      vertex 13.2725 12.3776 0
      vertex 13.5168 12.2839 0
    endloop
  endfacet
  facet normal 0.99863 0.0523339 0
    outer loop
      vertex 10.0137 9.73868 4
      vertex 10 10 0
      vertex 10 10 4
    endloop
  endfacet
  facet normal 0.99863 0.0523339 0
    outer loop
      vertex 10 10 0
      vertex 10.0137 9.73868 4
      vertex 10.0137 9.73868 0
    endloop
  endfacet
  facet normal 0.707107 -0.707107 0
    outer loop
      vertex 10.6421 11.6728 4
      vertex 10.8272 11.8579 0
      vertex 10.8272 11.8579 4
    endloop
  endfacet
  facet normal 0.707107 -0.707107 0
    outer loop
      vertex 10.8272 11.8579 0
      vertex 10.6421 11.6728 4
      vertex 10.6421 11.6728 0
    endloop
  endfacet
  facet normal 0.358368 -0.93358 0
    outer loop
      vertex 11.4832 12.2839 0
      vertex 11.7275 12.3776 4
      vertex 11.4832 12.2839 4
    endloop
  endfacet
  facet normal 0.358368 -0.93358 0
    outer loop
      vertex 11.7275 12.3776 4
      vertex 11.4832 12.2839 0
      vertex 11.7275 12.3776 0
    endloop
  endfacet
  facet normal -0.258821 0.965925 0
    outer loop
      vertex 13.2725 7.62236 0
      vertex 13.0198 7.55463 4
      vertex 13.2725 7.62236 4
    endloop
  endfacet
  facet normal -0.258821 0.965925 0
    outer loop
      vertex 13.0198 7.55463 4
      vertex 13.2725 7.62236 0
      vertex 13.0198 7.55463 0
    endloop
  endfacet
  facet normal -0.45399 0.891007 0
    outer loop
      vertex 13.75 7.83494 0
      vertex 13.5168 7.71614 4
      vertex 13.75 7.83494 4
    endloop
  endfacet
  facet normal -0.45399 0.891007 0
    outer loop
      vertex 13.5168 7.71614 4
      vertex 13.75 7.83494 0
      vertex 13.5168 7.71614 0
    endloop
  endfacet
  facet normal -0.965925 0.258821 0
    outer loop
      vertex 14.8776 9.22746 0
      vertex 14.9454 9.48022 4
      vertex 14.9454 9.48022 0
    endloop
  endfacet
  facet normal -0.965925 0.258821 0
    outer loop
      vertex 14.9454 9.48022 4
      vertex 14.8776 9.22746 0
      vertex 14.8776 9.22746 4
    endloop
  endfacet
  facet normal 0.777146 0.62932 0
    outer loop
      vertex 10.6421 8.32717 4
      vertex 10.4775 8.53054 0
      vertex 10.4775 8.53054 4
    endloop
  endfacet
  facet normal 0.777146 0.62932 0
    outer loop
      vertex 10.4775 8.53054 0
      vertex 10.6421 8.32717 4
      vertex 10.6421 8.32717 0
    endloop
  endfacet
  facet normal 0.891006 0.453991 0
    outer loop
      vertex 10.3349 8.75 4
      vertex 10.2161 8.98316 0
      vertex 10.2161 8.98316 4
    endloop
  endfacet
  facet normal 0.891006 0.453991 0
    outer loop
      vertex 10.2161 8.98316 0
      vertex 10.3349 8.75 4
      vertex 10.3349 8.75 0
    endloop
  endfacet
  facet normal 0.965925 0.258821 0
    outer loop
      vertex 10.1224 9.22746 4
      vertex 10.0546 9.48022 0
      vertex 10.0546 9.48022 4
    endloop
  endfacet
  facet normal 0.965925 0.258821 0
    outer loop
      vertex 10.0546 9.48022 0
      vertex 10.1224 9.22746 4
      vertex 10.1224 9.22746 0
    endloop
  endfacet
  facet normal -0.998629 -0.0523375 0
    outer loop
      vertex 15 50 0
      vertex 14.9863 50.2613 4
      vertex 14.9863 50.2613 0
    endloop
  endfacet
  facet normal -0.998629 -0.0523375 0
    outer loop
      vertex 14.9863 50.2613 4
      vertex 15 50 0
      vertex 15 50 4
    endloop
  endfacet
  facet normal 0.0523339 -0.99863 0
    outer loop
      vertex 12.2387 52.4863 0
      vertex 12.5 52.5 4
      vertex 12.2387 52.4863 4
    endloop
  endfacet
  facet normal 0.0523339 -0.99863 0
    outer loop
      vertex 12.5 52.5 4
      vertex 12.2387 52.4863 0
      vertex 12.5 52.5 0
    endloop
  endfacet
  facet normal -0.0523341 0.99863 0
    outer loop
      vertex 12.7613 47.5137 0
      vertex 12.5 47.5 4
      vertex 12.7613 47.5137 4
    endloop
  endfacet
  facet normal -0.0523341 0.99863 0
    outer loop
      vertex 12.5 47.5 4
      vertex 12.7613 47.5137 0
      vertex 12.5 47.5 0
    endloop
  endfacet
  facet normal -0.62932 -0.777146 0
    outer loop
      vertex 13.9695 52.0225 0
      vertex 14.1728 51.8579 4
      vertex 13.9695 52.0225 4
    endloop
  endfacet
  facet normal -0.62932 -0.777146 -0
    outer loop
      vertex 14.1728 51.8579 4
      vertex 13.9695 52.0225 0
      vertex 14.1728 51.8579 0
    endloop
  endfacet
  facet normal 0.777143 -0.629324 0
    outer loop
      vertex 10.4775 51.4695 4
      vertex 10.6421 51.6728 0
      vertex 10.6421 51.6728 4
    endloop
  endfacet
  facet normal 0.777143 -0.629324 0
    outer loop
      vertex 10.6421 51.6728 0
      vertex 10.4775 51.4695 4
      vertex 10.4775 51.4695 0
    endloop
  endfacet
  facet normal 0.453994 -0.891005 0
    outer loop
      vertex 11.25 52.1651 0
      vertex 11.4832 52.2839 4
      vertex 11.25 52.1651 4
    endloop
  endfacet
  facet normal 0.453994 -0.891005 0
    outer loop
      vertex 11.4832 52.2839 4
      vertex 11.25 52.1651 0
      vertex 11.4832 52.2839 0
    endloop
  endfacet
  facet normal 0.933579 0.358371 0
    outer loop
      vertex 10.2161 48.9832 4
      vertex 10.1224 49.2275 0
      vertex 10.1224 49.2275 4
    endloop
  endfacet
  facet normal 0.933579 0.358371 0
    outer loop
      vertex 10.1224 49.2275 0
      vertex 10.2161 48.9832 4
      vertex 10.2161 48.9832 0
    endloop
  endfacet
  facet normal -0.891006 -0.453991 0
    outer loop
      vertex 14.7839 51.0168 0
      vertex 14.6651 51.25 4
      vertex 14.6651 51.25 0
    endloop
  endfacet
  facet normal -0.891006 -0.453991 0
    outer loop
      vertex 14.6651 51.25 4
      vertex 14.7839 51.0168 0
      vertex 14.7839 51.0168 4
    endloop
  endfacet
  facet normal -0.258827 -0.965924 0
    outer loop
      vertex 13.0198 52.4454 0
      vertex 13.2725 52.3776 4
      vertex 13.0198 52.4454 4
    endloop
  endfacet
  facet normal -0.258827 -0.965924 -0
    outer loop
      vertex 13.2725 52.3776 4
      vertex 13.0198 52.4454 0
      vertex 13.2725 52.3776 0
    endloop
  endfacet
  facet normal 0.933581 -0.358366 0
    outer loop
      vertex 10.1224 50.7725 4
      vertex 10.2161 51.0168 0
      vertex 10.2161 51.0168 4
    endloop
  endfacet
  facet normal 0.933581 -0.358366 0
    outer loop
      vertex 10.2161 51.0168 0
      vertex 10.1224 50.7725 4
      vertex 10.1224 50.7725 0
    endloop
  endfacet
  facet normal 0.891006 -0.453991 0
    outer loop
      vertex 10.2161 51.0168 4
      vertex 10.3349 51.25 0
      vertex 10.3349 51.25 4
    endloop
  endfacet
  facet normal 0.891006 -0.453991 0
    outer loop
      vertex 10.3349 51.25 0
      vertex 10.2161 51.0168 4
      vertex 10.2161 51.0168 0
    endloop
  endfacet
  facet normal 0.987688 -0.156434 0
    outer loop
      vertex 10.0137 50.2613 4
      vertex 10.0546 50.5198 0
      vertex 10.0546 50.5198 4
    endloop
  endfacet
  facet normal 0.987688 -0.156434 0
    outer loop
      vertex 10.0546 50.5198 0
      vertex 10.0137 50.2613 4
      vertex 10.0137 50.2613 0
    endloop
  endfacet
  facet normal 0.258827 -0.965924 0
    outer loop
      vertex 11.7275 52.3776 0
      vertex 11.9802 52.4454 4
      vertex 11.7275 52.3776 4
    endloop
  endfacet
  facet normal 0.258827 -0.965924 0
    outer loop
      vertex 11.9802 52.4454 4
      vertex 11.7275 52.3776 0
      vertex 11.9802 52.4454 0
    endloop
  endfacet
  facet normal -0.358365 0.933582 0
    outer loop
      vertex 13.5168 47.7161 0
      vertex 13.2725 47.6224 4
      vertex 13.5168 47.7161 4
    endloop
  endfacet
  facet normal -0.358365 0.933582 0
    outer loop
      vertex 13.2725 47.6224 4
      vertex 13.5168 47.7161 0
      vertex 13.2725 47.6224 0
    endloop
  endfacet
  facet normal -0.777149 0.629317 0
    outer loop
      vertex 14.3579 48.3272 0
      vertex 14.5225 48.5305 4
      vertex 14.5225 48.5305 0
    endloop
  endfacet
  facet normal -0.777149 0.629317 0
    outer loop
      vertex 14.5225 48.5305 4
      vertex 14.3579 48.3272 0
      vertex 14.3579 48.3272 4
    endloop
  endfacet
  facet normal -0.933579 0.358371 0
    outer loop
      vertex 14.7839 48.9832 0
      vertex 14.8776 49.2275 4
      vertex 14.8776 49.2275 0
    endloop
  endfacet
  facet normal -0.933579 0.358371 0
    outer loop
      vertex 14.8776 49.2275 4
      vertex 14.7839 48.9832 0
      vertex 14.7839 48.9832 4
    endloop
  endfacet
  facet normal -0.987688 0.156434 0
    outer loop
      vertex 14.9454 49.4802 0
      vertex 14.9863 49.7387 4
      vertex 14.9863 49.7387 0
    endloop
  endfacet
  facet normal -0.987688 0.156434 0
    outer loop
      vertex 14.9863 49.7387 4
      vertex 14.9454 49.4802 0
      vertex 14.9454 49.4802 4
    endloop
  endfacet
  facet normal 0.258827 0.965924 -0
    outer loop
      vertex 11.9802 47.5546 0
      vertex 11.7275 47.6224 4
      vertex 11.9802 47.5546 4
    endloop
  endfacet
  facet normal 0.258827 0.965924 0
    outer loop
      vertex 11.7275 47.6224 4
      vertex 11.9802 47.5546 0
      vertex 11.7275 47.6224 0
    endloop
  endfacet
  facet normal 0.156434 0.987688 -0
    outer loop
      vertex 12.2387 47.5137 0
      vertex 11.9802 47.5546 4
      vertex 12.2387 47.5137 4
    endloop
  endfacet
  facet normal 0.156434 0.987688 0
    outer loop
      vertex 11.9802 47.5546 4
      vertex 12.2387 47.5137 0
      vertex 11.9802 47.5546 0
    endloop
  endfacet
  facet normal 0.62932 0.777146 -0
    outer loop
      vertex 11.0305 47.9775 0
      vertex 10.8272 48.1421 4
      vertex 11.0305 47.9775 4
    endloop
  endfacet
  facet normal 0.62932 0.777146 0
    outer loop
      vertex 10.8272 48.1421 4
      vertex 11.0305 47.9775 0
      vertex 10.8272 48.1421 0
    endloop
  endfacet
  facet normal 0.707107 0.707107 0
    outer loop
      vertex 10.8272 48.1421 4
      vertex 10.6421 48.3272 0
      vertex 10.6421 48.3272 4
    endloop
  endfacet
  facet normal 0.707107 0.707107 0
    outer loop
      vertex 10.6421 48.3272 0
      vertex 10.8272 48.1421 4
      vertex 10.8272 48.1421 0
    endloop
  endfacet
  facet normal -0.965925 -0.258822 0
    outer loop
      vertex 14.9454 50.5198 0
      vertex 14.8776 50.7725 4
      vertex 14.8776 50.7725 0
    endloop
  endfacet
  facet normal -0.965925 -0.258822 0
    outer loop
      vertex 14.8776 50.7725 4
      vertex 14.9454 50.5198 0
      vertex 14.9454 50.5198 4
    endloop
  endfacet
  facet normal -0.987688 -0.156434 0
    outer loop
      vertex 14.9863 50.2613 0
      vertex 14.9454 50.5198 4
      vertex 14.9454 50.5198 0
    endloop
  endfacet
  facet normal -0.987688 -0.156434 0
    outer loop
      vertex 14.9454 50.5198 4
      vertex 14.9863 50.2613 0
      vertex 14.9863 50.2613 4
    endloop
  endfacet
  facet normal -0.933581 -0.358366 0
    outer loop
      vertex 14.8776 50.7725 0
      vertex 14.7839 51.0168 4
      vertex 14.7839 51.0168 0
    endloop
  endfacet
  facet normal -0.933581 -0.358366 0
    outer loop
      vertex 14.7839 51.0168 4
      vertex 14.8776 50.7725 0
      vertex 14.8776 50.7725 4
    endloop
  endfacet
  facet normal -0.777143 -0.629324 0
    outer loop
      vertex 14.5225 51.4695 0
      vertex 14.3579 51.6728 4
      vertex 14.3579 51.6728 0
    endloop
  endfacet
  facet normal -0.777143 -0.629324 0
    outer loop
      vertex 14.3579 51.6728 4
      vertex 14.5225 51.4695 0
      vertex 14.5225 51.4695 4
    endloop
  endfacet
  facet normal -0.707107 -0.707107 0
    outer loop
      vertex 14.3579 51.6728 0
      vertex 14.1728 51.8579 4
      vertex 14.1728 51.8579 0
    endloop
  endfacet
  facet normal -0.707107 -0.707107 0
    outer loop
      vertex 14.1728 51.8579 4
      vertex 14.3579 51.6728 0
      vertex 14.3579 51.6728 4
    endloop
  endfacet
  facet normal -0.838671 -0.544638 0
    outer loop
      vertex 14.6651 51.25 0
      vertex 14.5225 51.4695 4
      vertex 14.5225 51.4695 0
    endloop
  endfacet
  facet normal -0.838671 -0.544638 0
    outer loop
      vertex 14.5225 51.4695 4
      vertex 14.6651 51.25 0
      vertex 14.6651 51.25 4
    endloop
  endfacet
  facet normal -0.156434 -0.987688 0
    outer loop
      vertex 12.7613 52.4863 0
      vertex 13.0198 52.4454 4
      vertex 12.7613 52.4863 4
    endloop
  endfacet
  facet normal -0.156434 -0.987688 -0
    outer loop
      vertex 13.0198 52.4454 4
      vertex 12.7613 52.4863 0
      vertex 13.0198 52.4454 0
    endloop
  endfacet
  facet normal -0.0523341 -0.99863 0
    outer loop
      vertex 12.5 52.5 0
      vertex 12.7613 52.4863 4
      vertex 12.5 52.5 4
    endloop
  endfacet
  facet normal -0.0523341 -0.99863 -0
    outer loop
      vertex 12.7613 52.4863 4
      vertex 12.5 52.5 0
      vertex 12.7613 52.4863 0
    endloop
  endfacet
  facet normal -0.453992 -0.891006 0
    outer loop
      vertex 13.5168 52.2839 0
      vertex 13.75 52.1651 4
      vertex 13.5168 52.2839 4
    endloop
  endfacet
  facet normal -0.453992 -0.891006 -0
    outer loop
      vertex 13.75 52.1651 4
      vertex 13.5168 52.2839 0
      vertex 13.75 52.1651 0
    endloop
  endfacet
  facet normal -0.358365 -0.933582 0
    outer loop
      vertex 13.2725 52.3776 0
      vertex 13.5168 52.2839 4
      vertex 13.2725 52.3776 4
    endloop
  endfacet
  facet normal -0.358365 -0.933582 -0
    outer loop
      vertex 13.5168 52.2839 4
      vertex 13.2725 52.3776 0
      vertex 13.5168 52.2839 0
    endloop
  endfacet
  facet normal -0.54464 -0.83867 0
    outer loop
      vertex 13.75 52.1651 0
      vertex 13.9695 52.0225 4
      vertex 13.75 52.1651 4
    endloop
  endfacet
  facet normal -0.54464 -0.83867 -0
    outer loop
      vertex 13.9695 52.0225 4
      vertex 13.75 52.1651 0
      vertex 13.9695 52.0225 0
    endloop
  endfacet
  facet normal 0.838671 -0.544638 0
    outer loop
      vertex 10.3349 51.25 4
      vertex 10.4775 51.4695 0
      vertex 10.4775 51.4695 4
    endloop
  endfacet
  facet normal 0.838671 -0.544638 0
    outer loop
      vertex 10.4775 51.4695 0
      vertex 10.3349 51.25 4
      vertex 10.3349 51.25 0
    endloop
  endfacet
  facet normal 0.965925 -0.258822 0
    outer loop
      vertex 10.0546 50.5198 4
      vertex 10.1224 50.7725 0
      vertex 10.1224 50.7725 4
    endloop
  endfacet
  facet normal 0.965925 -0.258822 0
    outer loop
      vertex 10.1224 50.7725 0
      vertex 10.0546 50.5198 4
      vertex 10.0546 50.5198 0
    endloop
  endfacet
  facet normal 0.99863 -0.0523339 0
    outer loop
      vertex 10 50 4
      vertex 10.0137 50.2613 0
      vertex 10.0137 50.2613 4
    endloop
  endfacet
  facet normal 0.99863 -0.0523339 0
    outer loop
      vertex 10.0137 50.2613 0
      vertex 10 50 4
      vertex 10 50 0
    endloop
  endfacet
  facet normal 0.544638 -0.838671 0
    outer loop
      vertex 11.0305 52.0225 0
      vertex 11.25 52.1651 4
      vertex 11.0305 52.0225 4
    endloop
  endfacet
  facet normal 0.544638 -0.838671 0
    outer loop
      vertex 11.25 52.1651 4
      vertex 11.0305 52.0225 0
      vertex 11.25 52.1651 0
    endloop
  endfacet
  facet normal 0.62932 -0.777146 0
    outer loop
      vertex 10.8272 51.8579 0
      vertex 11.0305 52.0225 4
      vertex 10.8272 51.8579 4
    endloop
  endfacet
  facet normal 0.62932 -0.777146 0
    outer loop
      vertex 11.0305 52.0225 4
      vertex 10.8272 51.8579 0
      vertex 11.0305 52.0225 0
    endloop
  endfacet
  facet normal 0.707107 -0.707107 0
    outer loop
      vertex 10.6421 51.6728 4
      vertex 10.8272 51.8579 0
      vertex 10.8272 51.8579 4
    endloop
  endfacet
  facet normal 0.707107 -0.707107 0
    outer loop
      vertex 10.8272 51.8579 0
      vertex 10.6421 51.6728 4
      vertex 10.6421 51.6728 0
    endloop
  endfacet
  facet normal 0.156434 -0.987688 0
    outer loop
      vertex 11.9802 52.4454 0
      vertex 12.2387 52.4863 4
      vertex 11.9802 52.4454 4
    endloop
  endfacet
  facet normal 0.156434 -0.987688 0
    outer loop
      vertex 12.2387 52.4863 4
      vertex 11.9802 52.4454 0
      vertex 12.2387 52.4863 0
    endloop
  endfacet
  facet normal -0.998629 0.0523375 0
    outer loop
      vertex 14.9863 49.7387 0
      vertex 15 50 4
      vertex 15 50 0
    endloop
  endfacet
  facet normal -0.998629 0.0523375 0
    outer loop
      vertex 15 50 4
      vertex 14.9863 49.7387 0
      vertex 14.9863 49.7387 4
    endloop
  endfacet
  facet normal -0.156434 0.987688 0
    outer loop
      vertex 13.0198 47.5546 0
      vertex 12.7613 47.5137 4
      vertex 13.0198 47.5546 4
    endloop
  endfacet
  facet normal -0.156434 0.987688 0
    outer loop
      vertex 12.7613 47.5137 4
      vertex 13.0198 47.5546 0
      vertex 12.7613 47.5137 0
    endloop
  endfacet
  facet normal -0.54463 0.838677 0
    outer loop
      vertex 13.9695 47.9775 0
      vertex 13.75 47.8349 4
      vertex 13.9695 47.9775 4
    endloop
  endfacet
  facet normal -0.54463 0.838677 0
    outer loop
      vertex 13.75 47.8349 4
      vertex 13.9695 47.9775 0
      vertex 13.75 47.8349 0
    endloop
  endfacet
  facet normal -0.707107 0.707107 0
    outer loop
      vertex 14.1728 48.1421 0
      vertex 14.3579 48.3272 4
      vertex 14.3579 48.3272 0
    endloop
  endfacet
  facet normal -0.707107 0.707107 0
    outer loop
      vertex 14.3579 48.3272 4
      vertex 14.1728 48.1421 0
      vertex 14.1728 48.1421 4
    endloop
  endfacet
  facet normal -0.838671 0.544638 0
    outer loop
      vertex 14.5225 48.5305 0
      vertex 14.6651 48.75 4
      vertex 14.6651 48.75 0
    endloop
  endfacet
  facet normal -0.838671 0.544638 0
    outer loop
      vertex 14.6651 48.75 4
      vertex 14.5225 48.5305 0
      vertex 14.5225 48.5305 4
    endloop
  endfacet
  facet normal -0.891006 0.453991 0
    outer loop
      vertex 14.6651 48.75 0
      vertex 14.7839 48.9832 4
      vertex 14.7839 48.9832 0
    endloop
  endfacet
  facet normal -0.891006 0.453991 0
    outer loop
      vertex 14.7839 48.9832 4
      vertex 14.6651 48.75 0
      vertex 14.6651 48.75 4
    endloop
  endfacet
  facet normal 0.54463 0.838677 -0
    outer loop
      vertex 11.25 47.8349 0
      vertex 11.0305 47.9775 4
      vertex 11.25 47.8349 4
    endloop
  endfacet
  facet normal 0.54463 0.838677 0
    outer loop
      vertex 11.0305 47.9775 4
      vertex 11.25 47.8349 0
      vertex 11.0305 47.9775 0
    endloop
  endfacet
  facet normal 0.453992 0.891006 -0
    outer loop
      vertex 11.4832 47.7161 0
      vertex 11.25 47.8349 4
      vertex 11.4832 47.7161 4
    endloop
  endfacet
  facet normal 0.453992 0.891006 0
    outer loop
      vertex 11.25 47.8349 4
      vertex 11.4832 47.7161 0
      vertex 11.25 47.8349 0
    endloop
  endfacet
  facet normal 0.358365 0.933582 -0
    outer loop
      vertex 11.7275 47.6224 0
      vertex 11.4832 47.7161 4
      vertex 11.7275 47.6224 4
    endloop
  endfacet
  facet normal 0.358365 0.933582 0
    outer loop
      vertex 11.4832 47.7161 4
      vertex 11.7275 47.6224 0
      vertex 11.4832 47.7161 0
    endloop
  endfacet
  facet normal 0.0523339 0.99863 -0
    outer loop
      vertex 12.5 47.5 0
      vertex 12.2387 47.5137 4
      vertex 12.5 47.5 4
    endloop
  endfacet
  facet normal 0.0523339 0.99863 0
    outer loop
      vertex 12.2387 47.5137 4
      vertex 12.5 47.5 0
      vertex 12.2387 47.5137 0
    endloop
  endfacet
  facet normal 0.838671 0.544638 0
    outer loop
      vertex 10.4775 48.5305 4
      vertex 10.3349 48.75 0
      vertex 10.3349 48.75 4
    endloop
  endfacet
  facet normal 0.838671 0.544638 0
    outer loop
      vertex 10.3349 48.75 0
      vertex 10.4775 48.5305 4
      vertex 10.4775 48.5305 0
    endloop
  endfacet
  facet normal 0.891006 0.453991 0
    outer loop
      vertex 10.3349 48.75 4
      vertex 10.2161 48.9832 0
      vertex 10.2161 48.9832 4
    endloop
  endfacet
  facet normal 0.891006 0.453991 0
    outer loop
      vertex 10.2161 48.9832 0
      vertex 10.3349 48.75 4
      vertex 10.3349 48.75 0
    endloop
  endfacet
  facet normal 0.987688 0.156434 0
    outer loop
      vertex 10.0546 49.4802 4
      vertex 10.0137 49.7387 0
      vertex 10.0137 49.7387 4
    endloop
  endfacet
  facet normal 0.987688 0.156434 0
    outer loop
      vertex 10.0137 49.7387 0
      vertex 10.0546 49.4802 4
      vertex 10.0546 49.4802 0
    endloop
  endfacet
  facet normal 0.99863 0.0523339 0
    outer loop
      vertex 10.0137 49.7387 4
      vertex 10 50 0
      vertex 10 50 4
    endloop
  endfacet
  facet normal 0.99863 0.0523339 0
    outer loop
      vertex 10 50 0
      vertex 10.0137 49.7387 4
      vertex 10.0137 49.7387 0
    endloop
  endfacet
  facet normal 0.358365 -0.933582 0
    outer loop
      vertex 11.4832 52.2839 0
      vertex 11.7275 52.3776 4
      vertex 11.4832 52.2839 4
    endloop
  endfacet
  facet normal 0.358365 -0.933582 0
    outer loop
      vertex 11.7275 52.3776 4
      vertex 11.4832 52.2839 0
      vertex 11.7275 52.3776 0
    endloop
  endfacet
  facet normal -0.258827 0.965924 0
    outer loop
      vertex 13.2725 47.6224 0
      vertex 13.0198 47.5546 4
      vertex 13.2725 47.6224 4
    endloop
  endfacet
  facet normal -0.258827 0.965924 0
    outer loop
      vertex 13.0198 47.5546 4
      vertex 13.2725 47.6224 0
      vertex 13.0198 47.5546 0
    endloop
  endfacet
  facet normal -0.453992 0.891006 0
    outer loop
      vertex 13.75 47.8349 0
      vertex 13.5168 47.7161 4
      vertex 13.75 47.8349 4
    endloop
  endfacet
  facet normal -0.453992 0.891006 0
    outer loop
      vertex 13.5168 47.7161 4
      vertex 13.75 47.8349 0
      vertex 13.5168 47.7161 0
    endloop
  endfacet
  facet normal -0.62932 0.777146 0
    outer loop
      vertex 14.1728 48.1421 0
      vertex 13.9695 47.9775 4
      vertex 14.1728 48.1421 4
    endloop
  endfacet
  facet normal -0.62932 0.777146 0
    outer loop
      vertex 13.9695 47.9775 4
      vertex 14.1728 48.1421 0
      vertex 13.9695 47.9775 0
    endloop
  endfacet
  facet normal -0.965926 0.258818 0
    outer loop
      vertex 14.8776 49.2275 0
      vertex 14.9454 49.4802 4
      vertex 14.9454 49.4802 0
    endloop
  endfacet
  facet normal -0.965926 0.258818 0
    outer loop
      vertex 14.9454 49.4802 4
      vertex 14.8776 49.2275 0
      vertex 14.8776 49.2275 4
    endloop
  endfacet
  facet normal 0.777149 0.629317 0
    outer loop
      vertex 10.6421 48.3272 4
      vertex 10.4775 48.5305 0
      vertex 10.4775 48.5305 4
    endloop
  endfacet
  facet normal 0.777149 0.629317 0
    outer loop
      vertex 10.4775 48.5305 0
      vertex 10.6421 48.3272 4
      vertex 10.6421 48.3272 0
    endloop
  endfacet
  facet normal 0.965926 0.258818 0
    outer loop
      vertex 10.1224 49.2275 4
      vertex 10.0546 49.4802 0
      vertex 10.0546 49.4802 4
    endloop
  endfacet
  facet normal 0.965926 0.258818 0
    outer loop
      vertex 10.0546 49.4802 0
      vertex 10.1224 49.2275 4
      vertex 10.1224 49.2275 0
    endloop
  endfacet
endsolid OpenSCAD_Model
