solid OpenSCAD_Model
  facet normal -1 0 0
    outer loop
      vertex -2 45 26
      vertex -2 50 36
      vertex -2 50 26
    endloop
  endfacet
  facet normal -1 -0 0
    outer loop
      vertex -2 50 36
      vertex -2 45 26
      vertex -2 45 36
    endloop
  endfacet
  facet normal -0 0 1
    outer loop
      vertex -2 50 36
      vertex 11 45 36
      vertex 11 50 36
    endloop
  endfacet
  facet normal 0 0 1
    outer loop
      vertex 11 45 36
      vertex -2 50 36
      vertex -2 45 36
    endloop
  endfacet
  facet normal 1 -0 0
    outer loop
      vertex 11 45 36
      vertex 11 50 34
      vertex 11 50 36
    endloop
  endfacet
  facet normal 1 0 0
    outer loop
      vertex 11 50 34
      vertex 11 45 36
      vertex 11 45 34
    endloop
  endfacet
  facet normal 0 0 -1
    outer loop
      vertex 14 45 26
      vertex 7 50 26
      vertex 14 75 26
    endloop
  endfacet
  facet normal 0 0 -1
    outer loop
      vertex -2 45 26
      vertex 7 50 26
      vertex 14 45 26
    endloop
  endfacet
  facet normal -0 0 -1
    outer loop
      vertex 7 50 26
      vertex -2 45 26
      vertex -2 50 26
    endloop
  endfacet
  facet normal -0 0 -1
    outer loop
      vertex 14 75 26
      vertex 7 50 26
      vertex 7 75 26
    endloop
  endfacet
  facet normal 0 -1 0
    outer loop
      vertex 11 45 34
      vertex 10.3589 45 31.3426
      vertex 10.5 45 31.35
    endloop
  endfacet
  facet normal 0 -1 0
    outer loop
      vertex 3.80701 45 31.5871
      vertex 10.2193 45 31.3205
      vertex 10.3589 45 31.3426
    endloop
  endfacet
  facet normal 0 -1 0
    outer loop
      vertex 3.80701 45 31.5871
      vertex 10.0828 45 31.2839
      vertex 10.2193 45 31.3205
    endloop
  endfacet
  facet normal 0 -1 0
    outer loop
      vertex 3.80701 45 31.5871
      vertex 9.9509 45 31.2333
      vertex 10.0828 45 31.2839
    endloop
  endfacet
  facet normal 0 -1 0
    outer loop
      vertex 9.26671 45 30.5491
      vertex 3.85848 45 31.395
      vertex 3.88959 45 31.1986
    endloop
  endfacet
  facet normal 0 -1 0
    outer loop
      vertex 3.80701 45 31.5871
      vertex 9.825 45 31.1691
      vertex 9.9509 45 31.2333
    endloop
  endfacet
  facet normal 0 -1 0
    outer loop
      vertex 3.80701 45 31.5871
      vertex 9.70649 45 31.0922
      vertex 9.825 45 31.1691
    endloop
  endfacet
  facet normal 0 -1 0
    outer loop
      vertex 3.80701 45 31.5871
      vertex 9.59667 45 31.0032
      vertex 9.70649 45 31.0922
    endloop
  endfacet
  facet normal 0 -1 0
    outer loop
      vertex 9.21607 45 30.4172
      vertex 3.88959 45 31.1986
      vertex 3.9 45 31
    endloop
  endfacet
  facet normal 0 -1 0
    outer loop
      vertex 3.80701 45 31.5871
      vertex 9.49675 45 30.9033
      vertex 9.59667 45 31.0032
    endloop
  endfacet
  facet normal 0 -1 0
    outer loop
      vertex 9.1795 45 30.2807
      vertex 3.9 45 31
      vertex 3.88959 45 30.8014
    endloop
  endfacet
  facet normal 0 -1 0
    outer loop
      vertex 3.80701 45 31.5871
      vertex 9.40783 45 30.7935
      vertex 9.49675 45 30.9033
    endloop
  endfacet
  facet normal 0 -1 0
    outer loop
      vertex 3.80701 45 31.5871
      vertex 9.33086 45 30.675
      vertex 9.40783 45 30.7935
    endloop
  endfacet
  facet normal 0 -1 0
    outer loop
      vertex 9.1574 45 30.1411
      vertex 3.88959 45 30.8014
      vertex 3.85848 45 30.605
    endloop
  endfacet
  facet normal 0 -1 0
    outer loop
      vertex 3.85848 45 31.395
      vertex 9.26671 45 30.5491
      vertex 9.33086 45 30.675
    endloop
  endfacet
  facet normal 0 -1 0
    outer loop
      vertex 3.88959 45 31.1986
      vertex 9.21607 45 30.4172
      vertex 9.26671 45 30.5491
    endloop
  endfacet
  facet normal 0 -1 0
    outer loop
      vertex 9.15 45 30
      vertex 3.85848 45 30.605
      vertex 3.80701 45 30.4129
    endloop
  endfacet
  facet normal 0 -1 0
    outer loop
      vertex 3.9 45 31
      vertex 9.1795 45 30.2807
      vertex 9.21607 45 30.4172
    endloop
  endfacet
  facet normal 0 -1 0
    outer loop
      vertex 9.1795 45 29.7193
      vertex 3.80701 45 30.4129
      vertex 3.73574 45 30.2272
    endloop
  endfacet
  facet normal 0 -1 0
    outer loop
      vertex 3.88959 45 30.8014
      vertex 9.1574 45 30.1411
      vertex 9.1795 45 30.2807
    endloop
  endfacet
  facet normal 0 -1 0
    outer loop
      vertex 9.21607 45 29.5828
      vertex 3.73574 45 30.2272
      vertex 3.64545 45 30.05
    endloop
  endfacet
  facet normal 0 -1 0
    outer loop
      vertex 3.85848 45 30.605
      vertex 9.15 45 30
      vertex 9.1574 45 30.1411
    endloop
  endfacet
  facet normal 0 -1 0
    outer loop
      vertex 9.26671 45 29.4509
      vertex 3.64545 45 30.05
      vertex 3.53713 45 29.8832
    endloop
  endfacet
  facet normal 0 -1 0
    outer loop
      vertex 3.80701 45 30.4129
      vertex 9.1574 45 29.8589
      vertex 9.15 45 30
    endloop
  endfacet
  facet normal 0 -1 0
    outer loop
      vertex 9.33086 45 29.325
      vertex 3.53713 45 29.8832
      vertex 3.41197 45 29.7287
    endloop
  endfacet
  facet normal 0 -1 0
    outer loop
      vertex 3.80701 45 30.4129
      vertex 9.1795 45 29.7193
      vertex 9.1574 45 29.8589
    endloop
  endfacet
  facet normal 0 -1 0
    outer loop
      vertex 9.40783 45 29.2065
      vertex 3.41197 45 29.7287
      vertex 3.27135 45 29.588
    endloop
  endfacet
  facet normal 0 -1 0
    outer loop
      vertex 3.73574 45 30.2272
      vertex 9.21607 45 29.5828
      vertex 9.1795 45 29.7193
    endloop
  endfacet
  facet normal 0 -1 0
    outer loop
      vertex 9.49675 45 29.0967
      vertex 3.27135 45 29.588
      vertex 3.11679 45 29.4629
    endloop
  endfacet
  facet normal 0 -1 0
    outer loop
      vertex 3.64545 45 30.05
      vertex 9.26671 45 29.4509
      vertex 9.21607 45 29.5828
    endloop
  endfacet
  facet normal 0 -1 0
    outer loop
      vertex 9.59667 45 28.9968
      vertex 3.11679 45 29.4629
      vertex 2.95 45 29.3546
    endloop
  endfacet
  facet normal 0 -1 0
    outer loop
      vertex 3.53713 45 29.8832
      vertex 9.33086 45 29.325
      vertex 9.26671 45 29.4509
    endloop
  endfacet
  facet normal 0 -1 0
    outer loop
      vertex 9.70649 45 28.9078
      vertex 2.95 45 29.3546
      vertex 2.7728 45 29.2643
    endloop
  endfacet
  facet normal 0 -1 0
    outer loop
      vertex 3.41197 45 29.7287
      vertex 9.40783 45 29.2065
      vertex 9.33086 45 29.325
    endloop
  endfacet
  facet normal 0 -1 0
    outer loop
      vertex 9.825 45 28.8309
      vertex 2.7728 45 29.2643
      vertex 2.58713 45 29.193
    endloop
  endfacet
  facet normal 0 -1 0
    outer loop
      vertex -2 45 26
      vertex 2.58713 45 29.193
      vertex 2.39503 45 29.1415
    endloop
  endfacet
  facet normal 0 -1 0
    outer loop
      vertex -2 45 26
      vertex 2.39503 45 29.1415
      vertex 2.1986 45 29.1104
    endloop
  endfacet
  facet normal 0 -1 0
    outer loop
      vertex -2 45 26
      vertex 2.1986 45 29.1104
      vertex 2 45 29.1
    endloop
  endfacet
  facet normal 0 -1 0
    outer loop
      vertex 3.27135 45 29.588
      vertex 9.49675 45 29.0967
      vertex 9.40783 45 29.2065
    endloop
  endfacet
  facet normal 0 -1 0
    outer loop
      vertex 2.58713 45 32.807
      vertex 11 45 36
      vertex -2 45 36
    endloop
  endfacet
  facet normal 0 -1 0
    outer loop
      vertex 2.39503 45 32.8585
      vertex -2 45 36
      vertex 2.1986 45 32.8896
    endloop
  endfacet
  facet normal 0 -1 0
    outer loop
      vertex 2.1986 45 32.8896
      vertex -2 45 36
      vertex 2 45 32.9
    endloop
  endfacet
  facet normal 0 -1 0
    outer loop
      vertex -2 45 36
      vertex 1.8014 45 32.8896
      vertex 2 45 32.9
    endloop
  endfacet
  facet normal 0 -1 0
    outer loop
      vertex -2 45 36
      vertex 1.60497 45 32.8585
      vertex 1.8014 45 32.8896
    endloop
  endfacet
  facet normal 0 -1 0
    outer loop
      vertex -2 45 36
      vertex 1.41287 45 32.807
      vertex 1.60497 45 32.8585
    endloop
  endfacet
  facet normal 0 -1 0
    outer loop
      vertex -2 45 36
      vertex 1.2272 45 32.7357
      vertex 1.41287 45 32.807
    endloop
  endfacet
  facet normal 0 -1 0
    outer loop
      vertex -2 45 36
      vertex 1.05 45 32.6454
      vertex 1.2272 45 32.7357
    endloop
  endfacet
  facet normal 0 -1 0
    outer loop
      vertex -2 45 36
      vertex 0.883207 45 32.5371
      vertex 1.05 45 32.6454
    endloop
  endfacet
  facet normal 0 -1 0
    outer loop
      vertex -2 45 36
      vertex 0.728651 45 32.412
      vertex 0.883207 45 32.5371
    endloop
  endfacet
  facet normal 0 -1 0
    outer loop
      vertex -2 45 36
      vertex 0.588024 45 32.2713
      vertex 0.728651 45 32.412
    endloop
  endfacet
  facet normal 0 -1 0
    outer loop
      vertex -2 45 36
      vertex 0.462867 45 32.1168
      vertex 0.588024 45 32.2713
    endloop
  endfacet
  facet normal 0 -1 0
    outer loop
      vertex -2 45 36
      vertex 0.354551 45 31.95
      vertex 0.462867 45 32.1168
    endloop
  endfacet
  facet normal 0 -1 0
    outer loop
      vertex -2 45 36
      vertex 0.264263 45 31.7728
      vertex 0.354551 45 31.95
    endloop
  endfacet
  facet normal 0 -1 0
    outer loop
      vertex -2 45 36
      vertex 0.192992 45 31.5871
      vertex 0.264263 45 31.7728
    endloop
  endfacet
  facet normal 0 -1 0
    outer loop
      vertex -2 45 36
      vertex 0.14152 45 31.395
      vertex 0.192992 45 31.5871
    endloop
  endfacet
  facet normal 0 -1 0
    outer loop
      vertex -2 45 36
      vertex 0.110408 45 31.1986
      vertex 0.14152 45 31.395
    endloop
  endfacet
  facet normal 0 -1 0
    outer loop
      vertex -2 45 36
      vertex 0.0999994 45 31
      vertex 0.110408 45 31.1986
    endloop
  endfacet
  facet normal 0 -1 0
    outer loop
      vertex -2 45 26
      vertex 0.0999994 45 31
      vertex -2 45 36
    endloop
  endfacet
  facet normal 0 -1 -0
    outer loop
      vertex 0.0999994 45 31
      vertex -2 45 26
      vertex 0.110408 45 30.8014
    endloop
  endfacet
  facet normal 0 -1 -0
    outer loop
      vertex 0.110408 45 30.8014
      vertex -2 45 26
      vertex 0.14152 45 30.605
    endloop
  endfacet
  facet normal 0 -1 -0
    outer loop
      vertex 0.14152 45 30.605
      vertex -2 45 26
      vertex 0.192992 45 30.4129
    endloop
  endfacet
  facet normal 0 -1 0
    outer loop
      vertex 3.11679 45 29.4629
      vertex 9.59667 45 28.9968
      vertex 9.49675 45 29.0967
    endloop
  endfacet
  facet normal 0 -1 0
    outer loop
      vertex 2.95 45 29.3546
      vertex 9.70649 45 28.9078
      vertex 9.59667 45 28.9968
    endloop
  endfacet
  facet normal 0 -1 0
    outer loop
      vertex 2.7728 45 29.2643
      vertex 9.825 45 28.8309
      vertex 9.70649 45 28.9078
    endloop
  endfacet
  facet normal 0 -1 0
    outer loop
      vertex 2.58713 45 29.193
      vertex 9.9509 45 28.7667
      vertex 9.825 45 28.8309
    endloop
  endfacet
  facet normal 0 -1 -0
    outer loop
      vertex 2.58713 45 29.193
      vertex -2 45 26
      vertex 9.9509 45 28.7667
    endloop
  endfacet
  facet normal 0 -1 0
    outer loop
      vertex 14 45 26
      vertex 9.9509 45 28.7667
      vertex -2 45 26
    endloop
  endfacet
  facet normal 0 -1 0
    outer loop
      vertex 9.9509 45 28.7667
      vertex 14 45 26
      vertex 10.0828 45 28.7161
    endloop
  endfacet
  facet normal 0 -1 0
    outer loop
      vertex -2 45 26
      vertex 2 45 29.1
      vertex 1.8014 45 29.1104
    endloop
  endfacet
  facet normal 0 -1 0
    outer loop
      vertex 10.2193 45 28.6795
      vertex 14 45 26
      vertex 10.3589 45 28.6574
    endloop
  endfacet
  facet normal 0 -1 0
    outer loop
      vertex 10.0828 45 28.7161
      vertex 14 45 26
      vertex 10.2193 45 28.6795
    endloop
  endfacet
  facet normal 0 -1 -0
    outer loop
      vertex 1.60497 45 29.1415
      vertex -2 45 26
      vertex 1.8014 45 29.1104
    endloop
  endfacet
  facet normal 0 -1 -0
    outer loop
      vertex 1.41287 45 29.193
      vertex -2 45 26
      vertex 1.60497 45 29.1415
    endloop
  endfacet
  facet normal 0 -1 -0
    outer loop
      vertex 1.2272 45 29.2643
      vertex -2 45 26
      vertex 1.41287 45 29.193
    endloop
  endfacet
  facet normal 0 -1 -0
    outer loop
      vertex 1.05 45 29.3546
      vertex -2 45 26
      vertex 1.2272 45 29.2643
    endloop
  endfacet
  facet normal 0 -1 -0
    outer loop
      vertex 0.883207 45 29.4629
      vertex -2 45 26
      vertex 1.05 45 29.3546
    endloop
  endfacet
  facet normal 0 -1 -0
    outer loop
      vertex 0.728651 45 29.588
      vertex -2 45 26
      vertex 0.883207 45 29.4629
    endloop
  endfacet
  facet normal 0 -1 -0
    outer loop
      vertex 0.588024 45 29.7287
      vertex -2 45 26
      vertex 0.728651 45 29.588
    endloop
  endfacet
  facet normal 0 -1 -0
    outer loop
      vertex 0.462867 45 29.8832
      vertex -2 45 26
      vertex 0.588024 45 29.7287
    endloop
  endfacet
  facet normal 0 -1 -0
    outer loop
      vertex 0.354551 45 30.05
      vertex -2 45 26
      vertex 0.462867 45 29.8832
    endloop
  endfacet
  facet normal 0 -1 -0
    outer loop
      vertex 0.264263 45 30.2272
      vertex -2 45 26
      vertex 0.354551 45 30.05
    endloop
  endfacet
  facet normal 0 -1 -0
    outer loop
      vertex 0.192992 45 30.4129
      vertex -2 45 26
      vertex 0.264263 45 30.2272
    endloop
  endfacet
  facet normal 0 -1 0
    outer loop
      vertex 2.58713 45 32.807
      vertex -2 45 36
      vertex 2.39503 45 32.8585
    endloop
  endfacet
  facet normal 0 -1 0
    outer loop
      vertex 2.7728 45 32.7357
      vertex 11 45 36
      vertex 2.58713 45 32.807
    endloop
  endfacet
  facet normal 0 -1 0
    outer loop
      vertex 2.95 45 32.6454
      vertex 11 45 36
      vertex 2.7728 45 32.7357
    endloop
  endfacet
  facet normal 0 -1 0
    outer loop
      vertex 3.11679 45 32.5371
      vertex 11 45 36
      vertex 2.95 45 32.6454
    endloop
  endfacet
  facet normal 0 -1 0
    outer loop
      vertex 3.27135 45 32.412
      vertex 11 45 36
      vertex 3.11679 45 32.5371
    endloop
  endfacet
  facet normal 0 -1 0
    outer loop
      vertex 3.41197 45 32.2713
      vertex 11 45 36
      vertex 3.27135 45 32.412
    endloop
  endfacet
  facet normal 0 -1 -0
    outer loop
      vertex 11 45 36
      vertex 3.41197 45 32.2713
      vertex 11 45 34
    endloop
  endfacet
  facet normal 0 -1 0
    outer loop
      vertex 3.53713 45 32.1168
      vertex 11 45 34
      vertex 3.41197 45 32.2713
    endloop
  endfacet
  facet normal 0 -1 0
    outer loop
      vertex 3.64545 45 31.95
      vertex 11 45 34
      vertex 3.53713 45 32.1168
    endloop
  endfacet
  facet normal 0 -1 0
    outer loop
      vertex 3.73574 45 31.7728
      vertex 11 45 34
      vertex 3.64545 45 31.95
    endloop
  endfacet
  facet normal 0 -1 0
    outer loop
      vertex 10.3589 45 31.3426
      vertex 11 45 34
      vertex 3.73574 45 31.7728
    endloop
  endfacet
  facet normal 0 -1 0
    outer loop
      vertex 10.3589 45 31.3426
      vertex 3.73574 45 31.7728
      vertex 3.80701 45 31.5871
    endloop
  endfacet
  facet normal 0 -1 0
    outer loop
      vertex 9.33086 45 30.675
      vertex 3.80701 45 31.5871
      vertex 3.85848 45 31.395
    endloop
  endfacet
  facet normal 0 -1 0
    outer loop
      vertex 10.6411 45 31.3426
      vertex 11 45 34
      vertex 10.5 45 31.35
    endloop
  endfacet
  facet normal 0 -1 0
    outer loop
      vertex 10.7807 45 31.3205
      vertex 11 45 34
      vertex 10.6411 45 31.3426
    endloop
  endfacet
  facet normal 0 -1 0
    outer loop
      vertex 10.9172 45 31.2839
      vertex 11 45 34
      vertex 10.7807 45 31.3205
    endloop
  endfacet
  facet normal 0 -1 0
    outer loop
      vertex 11.0491 45 31.2333
      vertex 11 45 34
      vertex 10.9172 45 31.2839
    endloop
  endfacet
  facet normal 0 -1 0
    outer loop
      vertex 11.175 45 31.1691
      vertex 11 45 34
      vertex 11.0491 45 31.2333
    endloop
  endfacet
  facet normal 0 -1 0
    outer loop
      vertex 11.2935 45 31.0922
      vertex 11 45 34
      vertex 11.175 45 31.1691
    endloop
  endfacet
  facet normal 0 -1 0
    outer loop
      vertex 11 45 34
      vertex 11.2935 45 31.0922
      vertex 14 45 34
    endloop
  endfacet
  facet normal 0 -1 0
    outer loop
      vertex 11.4033 45 31.0032
      vertex 14 45 34
      vertex 11.2935 45 31.0922
    endloop
  endfacet
  facet normal 0 -1 0
    outer loop
      vertex 11.5032 45 30.9033
      vertex 14 45 34
      vertex 11.4033 45 31.0032
    endloop
  endfacet
  facet normal 0 -1 0
    outer loop
      vertex 11.5922 45 30.7935
      vertex 14 45 34
      vertex 11.5032 45 30.9033
    endloop
  endfacet
  facet normal 0 -1 0
    outer loop
      vertex 11.6691 45 30.675
      vertex 14 45 34
      vertex 11.5922 45 30.7935
    endloop
  endfacet
  facet normal 0 -1 0
    outer loop
      vertex 11.7333 45 30.5491
      vertex 14 45 34
      vertex 11.6691 45 30.675
    endloop
  endfacet
  facet normal 0 -1 0
    outer loop
      vertex 11.7839 45 30.4172
      vertex 14 45 34
      vertex 11.7333 45 30.5491
    endloop
  endfacet
  facet normal 0 -1 0
    outer loop
      vertex 11.8205 45 30.2807
      vertex 14 45 34
      vertex 11.7839 45 30.4172
    endloop
  endfacet
  facet normal 0 -1 0
    outer loop
      vertex 11.8426 45 30.1411
      vertex 14 45 34
      vertex 11.8205 45 30.2807
    endloop
  endfacet
  facet normal 0 -1 0
    outer loop
      vertex 11.85 45 30
      vertex 14 45 34
      vertex 11.8426 45 30.1411
    endloop
  endfacet
  facet normal 0 -1 0
    outer loop
      vertex 14 45 26
      vertex 11.85 45 30
      vertex 11.8426 45 29.8589
    endloop
  endfacet
  facet normal 0 -1 0
    outer loop
      vertex 14 45 26
      vertex 11.8426 45 29.8589
      vertex 11.8205 45 29.7193
    endloop
  endfacet
  facet normal 0 -1 0
    outer loop
      vertex 14 45 26
      vertex 11.8205 45 29.7193
      vertex 11.7839 45 29.5828
    endloop
  endfacet
  facet normal 0 -1 0
    outer loop
      vertex 14 45 26
      vertex 11.7839 45 29.5828
      vertex 11.7333 45 29.4509
    endloop
  endfacet
  facet normal 0 -1 0
    outer loop
      vertex 10.3589 45 28.6574
      vertex 14 45 26
      vertex 10.5 45 28.65
    endloop
  endfacet
  facet normal 0 -1 0
    outer loop
      vertex 10.5 45 28.65
      vertex 14 45 26
      vertex 10.6411 45 28.6574
    endloop
  endfacet
  facet normal 0 -1 0
    outer loop
      vertex 11.85 45 30
      vertex 14 45 26
      vertex 14 45 34
    endloop
  endfacet
  facet normal 0 -1 0
    outer loop
      vertex 11.6691 45 29.325
      vertex 14 45 26
      vertex 11.7333 45 29.4509
    endloop
  endfacet
  facet normal 0 -1 0
    outer loop
      vertex 11.5922 45 29.2065
      vertex 14 45 26
      vertex 11.6691 45 29.325
    endloop
  endfacet
  facet normal 0 -1 0
    outer loop
      vertex 11.5032 45 29.0967
      vertex 14 45 26
      vertex 11.5922 45 29.2065
    endloop
  endfacet
  facet normal 0 -1 0
    outer loop
      vertex 11.4033 45 28.9968
      vertex 14 45 26
      vertex 11.5032 45 29.0967
    endloop
  endfacet
  facet normal 0 -1 0
    outer loop
      vertex 11.2935 45 28.9078
      vertex 14 45 26
      vertex 11.4033 45 28.9968
    endloop
  endfacet
  facet normal 0 -1 0
    outer loop
      vertex 11.175 45 28.8309
      vertex 14 45 26
      vertex 11.2935 45 28.9078
    endloop
  endfacet
  facet normal 0 -1 0
    outer loop
      vertex 11.0491 45 28.7667
      vertex 14 45 26
      vertex 11.175 45 28.8309
    endloop
  endfacet
  facet normal 0 -1 0
    outer loop
      vertex 10.9172 45 28.7161
      vertex 14 45 26
      vertex 11.0491 45 28.7667
    endloop
  endfacet
  facet normal 0 -1 0
    outer loop
      vertex 10.7807 45 28.6795
      vertex 14 45 26
      vertex 10.9172 45 28.7161
    endloop
  endfacet
  facet normal 0 -1 0
    outer loop
      vertex 10.6411 45 28.6574
      vertex 14 45 26
      vertex 10.7807 45 28.6795
    endloop
  endfacet
  facet normal 0 1 0
    outer loop
      vertex -2 50 36
      vertex 2.1986 50 32.8896
      vertex 2 50 32.9
    endloop
  endfacet
  facet normal 0 1 0
    outer loop
      vertex -2 50 36
      vertex 2.39503 50 32.8585
      vertex 2.1986 50 32.8896
    endloop
  endfacet
  facet normal 0 1 0
    outer loop
      vertex 7 50 34
      vertex 2.58713 50 32.807
      vertex 2.39503 50 32.8585
    endloop
  endfacet
  facet normal 0 1 0
    outer loop
      vertex 7 50 34
      vertex 2.7728 50 32.7357
      vertex 2.58713 50 32.807
    endloop
  endfacet
  facet normal 0 1 0
    outer loop
      vertex 7 50 34
      vertex 2.95 50 32.6454
      vertex 2.7728 50 32.7357
    endloop
  endfacet
  facet normal 0 1 0
    outer loop
      vertex 7 50 34
      vertex 3.11679 50 32.5371
      vertex 2.95 50 32.6454
    endloop
  endfacet
  facet normal 0 1 0
    outer loop
      vertex 7 50 34
      vertex 3.27135 50 32.412
      vertex 3.11679 50 32.5371
    endloop
  endfacet
  facet normal 0 1 0
    outer loop
      vertex 7 50 34
      vertex 3.41197 50 32.2713
      vertex 3.27135 50 32.412
    endloop
  endfacet
  facet normal 0 1 0
    outer loop
      vertex 7 50 34
      vertex 3.53713 50 32.1168
      vertex 3.41197 50 32.2713
    endloop
  endfacet
  facet normal 0 1 0
    outer loop
      vertex 7 50 34
      vertex 3.64545 50 31.95
      vertex 3.53713 50 32.1168
    endloop
  endfacet
  facet normal 0 1 0
    outer loop
      vertex 7 50 34
      vertex 3.73574 50 31.7728
      vertex 3.64545 50 31.95
    endloop
  endfacet
  facet normal 0 1 0
    outer loop
      vertex 7 50 34
      vertex 3.80701 50 31.5871
      vertex 3.73574 50 31.7728
    endloop
  endfacet
  facet normal 0 1 0
    outer loop
      vertex 7 50 34
      vertex 3.85848 50 31.395
      vertex 3.80701 50 31.5871
    endloop
  endfacet
  facet normal 0 1 0
    outer loop
      vertex 7 50 34
      vertex 3.88959 50 31.1986
      vertex 3.85848 50 31.395
    endloop
  endfacet
  facet normal 0 1 0
    outer loop
      vertex 7 50 34
      vertex 3.9 50 31
      vertex 3.88959 50 31.1986
    endloop
  endfacet
  facet normal 0 1 0
    outer loop
      vertex 7 50 34
      vertex 3.88959 50 30.8014
      vertex 3.9 50 31
    endloop
  endfacet
  facet normal 0 1 0
    outer loop
      vertex 7 50 34
      vertex 3.85848 50 30.605
      vertex 3.88959 50 30.8014
    endloop
  endfacet
  facet normal 0 1 -0
    outer loop
      vertex 7 50 26
      vertex 3.85848 50 30.605
      vertex 7 50 34
    endloop
  endfacet
  facet normal 0 1 0
    outer loop
      vertex 3.85848 50 30.605
      vertex 7 50 26
      vertex 3.80701 50 30.4129
    endloop
  endfacet
  facet normal 0 1 0
    outer loop
      vertex 3.80701 50 30.4129
      vertex 7 50 26
      vertex 3.73574 50 30.2272
    endloop
  endfacet
  facet normal 0 1 0
    outer loop
      vertex 3.73574 50 30.2272
      vertex 7 50 26
      vertex 3.64545 50 30.05
    endloop
  endfacet
  facet normal 0 1 0
    outer loop
      vertex 3.64545 50 30.05
      vertex 7 50 26
      vertex 3.53713 50 29.8832
    endloop
  endfacet
  facet normal 0 1 0
    outer loop
      vertex -2 50 26
      vertex 2.1986 50 29.1104
      vertex 7 50 26
    endloop
  endfacet
  facet normal 0 1 0
    outer loop
      vertex 2.39503 50 29.1415
      vertex 7 50 26
      vertex 2.1986 50 29.1104
    endloop
  endfacet
  facet normal 0 1 0
    outer loop
      vertex 2.58713 50 29.193
      vertex 7 50 26
      vertex 2.39503 50 29.1415
    endloop
  endfacet
  facet normal 0 1 0
    outer loop
      vertex 2.7728 50 29.2643
      vertex 7 50 26
      vertex 2.58713 50 29.193
    endloop
  endfacet
  facet normal 0 1 0
    outer loop
      vertex 2.95 50 29.3546
      vertex 7 50 26
      vertex 2.7728 50 29.2643
    endloop
  endfacet
  facet normal 0 1 0
    outer loop
      vertex 3.11679 50 29.4629
      vertex 7 50 26
      vertex 2.95 50 29.3546
    endloop
  endfacet
  facet normal 0 1 0
    outer loop
      vertex 3.27135 50 29.588
      vertex 7 50 26
      vertex 3.11679 50 29.4629
    endloop
  endfacet
  facet normal 0 1 0
    outer loop
      vertex 3.41197 50 29.7287
      vertex 7 50 26
      vertex 3.27135 50 29.588
    endloop
  endfacet
  facet normal 0 1 0
    outer loop
      vertex 3.53713 50 29.8832
      vertex 7 50 26
      vertex 3.41197 50 29.7287
    endloop
  endfacet
  facet normal 0 1 0
    outer loop
      vertex 7 50 34
      vertex 11 50 36
      vertex 11 50 34
    endloop
  endfacet
  facet normal 0 1 0
    outer loop
      vertex 11 50 36
      vertex 7 50 34
      vertex -2 50 36
    endloop
  endfacet
  facet normal 0 1 -0
    outer loop
      vertex 2.39503 50 32.8585
      vertex -2 50 36
      vertex 7 50 34
    endloop
  endfacet
  facet normal 0 1 -0
    outer loop
      vertex 1.8014 50 32.8896
      vertex -2 50 36
      vertex 2 50 32.9
    endloop
  endfacet
  facet normal 0 1 -0
    outer loop
      vertex 1.60497 50 32.8585
      vertex -2 50 36
      vertex 1.8014 50 32.8896
    endloop
  endfacet
  facet normal 0 1 -0
    outer loop
      vertex 1.41287 50 32.807
      vertex -2 50 36
      vertex 1.60497 50 32.8585
    endloop
  endfacet
  facet normal 0 1 -0
    outer loop
      vertex 1.2272 50 32.7357
      vertex -2 50 36
      vertex 1.41287 50 32.807
    endloop
  endfacet
  facet normal 0 1 -0
    outer loop
      vertex 1.05 50 32.6454
      vertex -2 50 36
      vertex 1.2272 50 32.7357
    endloop
  endfacet
  facet normal 0 1 -0
    outer loop
      vertex 0.883207 50 32.5371
      vertex -2 50 36
      vertex 1.05 50 32.6454
    endloop
  endfacet
  facet normal 0 1 -0
    outer loop
      vertex 0.728651 50 32.412
      vertex -2 50 36
      vertex 0.883207 50 32.5371
    endloop
  endfacet
  facet normal 0 1 -0
    outer loop
      vertex 0.588024 50 32.2713
      vertex -2 50 36
      vertex 0.728651 50 32.412
    endloop
  endfacet
  facet normal 0 1 -0
    outer loop
      vertex 0.462867 50 32.1168
      vertex -2 50 36
      vertex 0.588024 50 32.2713
    endloop
  endfacet
  facet normal 0 1 -0
    outer loop
      vertex 0.354551 50 31.95
      vertex -2 50 36
      vertex 0.462867 50 32.1168
    endloop
  endfacet
  facet normal 0 1 -0
    outer loop
      vertex 0.264263 50 31.7728
      vertex -2 50 36
      vertex 0.354551 50 31.95
    endloop
  endfacet
  facet normal 0 1 -0
    outer loop
      vertex 0.192992 50 31.5871
      vertex -2 50 36
      vertex 0.264263 50 31.7728
    endloop
  endfacet
  facet normal 0 1 -0
    outer loop
      vertex 0.14152 50 31.395
      vertex -2 50 36
      vertex 0.192992 50 31.5871
    endloop
  endfacet
  facet normal 0 1 -0
    outer loop
      vertex 0.110408 50 31.1986
      vertex -2 50 36
      vertex 0.14152 50 31.395
    endloop
  endfacet
  facet normal 0 1 -0
    outer loop
      vertex 0.0999994 50 31
      vertex -2 50 36
      vertex 0.110408 50 31.1986
    endloop
  endfacet
  facet normal 0 1 0
    outer loop
      vertex -2 50 26
      vertex 0.0999994 50 31
      vertex 0.110408 50 30.8014
    endloop
  endfacet
  facet normal 0 1 0
    outer loop
      vertex -2 50 26
      vertex 0.110408 50 30.8014
      vertex 0.14152 50 30.605
    endloop
  endfacet
  facet normal 0 1 0
    outer loop
      vertex -2 50 26
      vertex 0.14152 50 30.605
      vertex 0.192992 50 30.4129
    endloop
  endfacet
  facet normal 0 1 0
    outer loop
      vertex -2 50 26
      vertex 0.192992 50 30.4129
      vertex 0.264263 50 30.2272
    endloop
  endfacet
  facet normal 0 1 0
    outer loop
      vertex 2.1986 50 29.1104
      vertex -2 50 26
      vertex 2 50 29.1
    endloop
  endfacet
  facet normal 0 1 0
    outer loop
      vertex 2 50 29.1
      vertex -2 50 26
      vertex 1.8014 50 29.1104
    endloop
  endfacet
  facet normal 0 1 0
    outer loop
      vertex 1.8014 50 29.1104
      vertex -2 50 26
      vertex 1.60497 50 29.1415
    endloop
  endfacet
  facet normal 0 1 0
    outer loop
      vertex 1.60497 50 29.1415
      vertex -2 50 26
      vertex 1.41287 50 29.193
    endloop
  endfacet
  facet normal 0 1 0
    outer loop
      vertex 1.41287 50 29.193
      vertex -2 50 26
      vertex 1.2272 50 29.2643
    endloop
  endfacet
  facet normal 0 1 0
    outer loop
      vertex 0.0999994 50 31
      vertex -2 50 26
      vertex -2 50 36
    endloop
  endfacet
  facet normal 0 1 0
    outer loop
      vertex 0.354551 50 30.05
      vertex -2 50 26
      vertex 0.264263 50 30.2272
    endloop
  endfacet
  facet normal 0 1 0
    outer loop
      vertex 0.462867 50 29.8832
      vertex -2 50 26
      vertex 0.354551 50 30.05
    endloop
  endfacet
  facet normal 0 1 0
    outer loop
      vertex 0.588024 50 29.7287
      vertex -2 50 26
      vertex 0.462867 50 29.8832
    endloop
  endfacet
  facet normal 0 1 0
    outer loop
      vertex 0.728651 50 29.588
      vertex -2 50 26
      vertex 0.588024 50 29.7287
    endloop
  endfacet
  facet normal 0 1 0
    outer loop
      vertex 0.883207 50 29.4629
      vertex -2 50 26
      vertex 0.728651 50 29.588
    endloop
  endfacet
  facet normal 0 1 0
    outer loop
      vertex 1.05 50 29.3546
      vertex -2 50 26
      vertex 0.883207 50 29.4629
    endloop
  endfacet
  facet normal 0 1 0
    outer loop
      vertex 1.2272 50 29.2643
      vertex -2 50 26
      vertex 1.05 50 29.3546
    endloop
  endfacet
  facet normal -1 0 0
    outer loop
      vertex 7 50 26
      vertex 7 75 34
      vertex 7 75 26
    endloop
  endfacet
  facet normal -1 -0 0
    outer loop
      vertex 7 75 34
      vertex 7 50 26
      vertex 7 50 34
    endloop
  endfacet
  facet normal 0 0 1
    outer loop
      vertex 14 75 34
      vertex 11 50 34
      vertex 14 45 34
    endloop
  endfacet
  facet normal -0 0 1
    outer loop
      vertex 7 75 34
      vertex 11 50 34
      vertex 14 75 34
    endloop
  endfacet
  facet normal 0 0 1
    outer loop
      vertex 11 50 34
      vertex 7 75 34
      vertex 7 50 34
    endloop
  endfacet
  facet normal 0 0 1
    outer loop
      vertex 14 45 34
      vertex 11 50 34
      vertex 11 45 34
    endloop
  endfacet
  facet normal 1 -0 0
    outer loop
      vertex 14 45 34
      vertex 14 75 26
      vertex 14 75 34
    endloop
  endfacet
  facet normal 1 0 0
    outer loop
      vertex 14 75 26
      vertex 14 45 34
      vertex 14 45 26
    endloop
  endfacet
  facet normal 0 1 0
    outer loop
      vertex 14 75 34
      vertex 10.5 75 31.35
      vertex 7 75 34
    endloop
  endfacet
  facet normal 0 1 0
    outer loop
      vertex 14 75 34
      vertex 10.6411 75 31.3426
      vertex 10.5 75 31.35
    endloop
  endfacet
  facet normal 0 1 0
    outer loop
      vertex 14 75 34
      vertex 10.7807 75 31.3205
      vertex 10.6411 75 31.3426
    endloop
  endfacet
  facet normal 0 1 0
    outer loop
      vertex 14 75 34
      vertex 10.9172 75 31.2839
      vertex 10.7807 75 31.3205
    endloop
  endfacet
  facet normal 0 1 0
    outer loop
      vertex 14 75 34
      vertex 11.0491 75 31.2333
      vertex 10.9172 75 31.2839
    endloop
  endfacet
  facet normal 0 1 0
    outer loop
      vertex 14 75 34
      vertex 11.175 75 31.1691
      vertex 11.0491 75 31.2333
    endloop
  endfacet
  facet normal 0 1 0
    outer loop
      vertex 14 75 34
      vertex 11.2935 75 31.0922
      vertex 11.175 75 31.1691
    endloop
  endfacet
  facet normal 0 1 0
    outer loop
      vertex 14 75 34
      vertex 11.4033 75 31.0032
      vertex 11.2935 75 31.0922
    endloop
  endfacet
  facet normal 0 1 0
    outer loop
      vertex 14 75 34
      vertex 11.5032 75 30.9033
      vertex 11.4033 75 31.0032
    endloop
  endfacet
  facet normal 0 1 0
    outer loop
      vertex 14 75 34
      vertex 11.5922 75 30.7935
      vertex 11.5032 75 30.9033
    endloop
  endfacet
  facet normal 0 1 0
    outer loop
      vertex 14 75 34
      vertex 11.6691 75 30.675
      vertex 11.5922 75 30.7935
    endloop
  endfacet
  facet normal 0 1 0
    outer loop
      vertex 14 75 34
      vertex 11.7333 75 30.5491
      vertex 11.6691 75 30.675
    endloop
  endfacet
  facet normal 0 1 0
    outer loop
      vertex 14 75 34
      vertex 11.7839 75 30.4172
      vertex 11.7333 75 30.5491
    endloop
  endfacet
  facet normal 0 1 0
    outer loop
      vertex 14 75 34
      vertex 11.8205 75 30.2807
      vertex 11.7839 75 30.4172
    endloop
  endfacet
  facet normal 0 1 0
    outer loop
      vertex 14 75 34
      vertex 11.8426 75 30.1411
      vertex 11.8205 75 30.2807
    endloop
  endfacet
  facet normal 0 1 0
    outer loop
      vertex 14 75 34
      vertex 11.85 75 30
      vertex 11.8426 75 30.1411
    endloop
  endfacet
  facet normal 0 1 -0
    outer loop
      vertex 14 75 26
      vertex 11.85 75 30
      vertex 14 75 34
    endloop
  endfacet
  facet normal 0 1 0
    outer loop
      vertex 11.85 75 30
      vertex 14 75 26
      vertex 11.8426 75 29.8589
    endloop
  endfacet
  facet normal 0 1 0
    outer loop
      vertex 11.8426 75 29.8589
      vertex 14 75 26
      vertex 11.8205 75 29.7193
    endloop
  endfacet
  facet normal 0 1 0
    outer loop
      vertex 11.8205 75 29.7193
      vertex 14 75 26
      vertex 11.7839 75 29.5828
    endloop
  endfacet
  facet normal 0 1 0
    outer loop
      vertex 10.6411 75 28.6574
      vertex 14 75 26
      vertex 10.5 75 28.65
    endloop
  endfacet
  facet normal 0 1 0
    outer loop
      vertex 10.7807 75 28.6795
      vertex 14 75 26
      vertex 10.6411 75 28.6574
    endloop
  endfacet
  facet normal 0 1 0
    outer loop
      vertex 10.9172 75 28.7161
      vertex 14 75 26
      vertex 10.7807 75 28.6795
    endloop
  endfacet
  facet normal 0 1 0
    outer loop
      vertex 11.0491 75 28.7667
      vertex 14 75 26
      vertex 10.9172 75 28.7161
    endloop
  endfacet
  facet normal 0 1 0
    outer loop
      vertex 11.175 75 28.8309
      vertex 14 75 26
      vertex 11.0491 75 28.7667
    endloop
  endfacet
  facet normal 0 1 0
    outer loop
      vertex 11.2935 75 28.9078
      vertex 14 75 26
      vertex 11.175 75 28.8309
    endloop
  endfacet
  facet normal 0 1 0
    outer loop
      vertex 11.4033 75 28.9968
      vertex 14 75 26
      vertex 11.2935 75 28.9078
    endloop
  endfacet
  facet normal 0 1 0
    outer loop
      vertex 11.5032 75 29.0967
      vertex 14 75 26
      vertex 11.4033 75 28.9968
    endloop
  endfacet
  facet normal 0 1 0
    outer loop
      vertex 11.5922 75 29.2065
      vertex 14 75 26
      vertex 11.5032 75 29.0967
    endloop
  endfacet
  facet normal 0 1 0
    outer loop
      vertex 11.6691 75 29.325
      vertex 14 75 26
      vertex 11.5922 75 29.2065
    endloop
  endfacet
  facet normal 0 1 0
    outer loop
      vertex 11.7333 75 29.4509
      vertex 14 75 26
      vertex 11.6691 75 29.325
    endloop
  endfacet
  facet normal 0 1 0
    outer loop
      vertex 11.7839 75 29.5828
      vertex 14 75 26
      vertex 11.7333 75 29.4509
    endloop
  endfacet
  facet normal 0 1 -0
    outer loop
      vertex 10.3589 75 31.3426
      vertex 7 75 34
      vertex 10.5 75 31.35
    endloop
  endfacet
  facet normal 0 1 -0
    outer loop
      vertex 10.2193 75 31.3205
      vertex 7 75 34
      vertex 10.3589 75 31.3426
    endloop
  endfacet
  facet normal 0 1 -0
    outer loop
      vertex 10.0828 75 31.2839
      vertex 7 75 34
      vertex 10.2193 75 31.3205
    endloop
  endfacet
  facet normal 0 1 -0
    outer loop
      vertex 9.9509 75 31.2333
      vertex 7 75 34
      vertex 10.0828 75 31.2839
    endloop
  endfacet
  facet normal 0 1 -0
    outer loop
      vertex 9.825 75 31.1691
      vertex 7 75 34
      vertex 9.9509 75 31.2333
    endloop
  endfacet
  facet normal 0 1 -0
    outer loop
      vertex 9.70649 75 31.0922
      vertex 7 75 34
      vertex 9.825 75 31.1691
    endloop
  endfacet
  facet normal 0 1 -0
    outer loop
      vertex 9.59667 75 31.0032
      vertex 7 75 34
      vertex 9.70649 75 31.0922
    endloop
  endfacet
  facet normal 0 1 -0
    outer loop
      vertex 9.49675 75 30.9033
      vertex 7 75 34
      vertex 9.59667 75 31.0032
    endloop
  endfacet
  facet normal 0 1 -0
    outer loop
      vertex 9.40783 75 30.7935
      vertex 7 75 34
      vertex 9.49675 75 30.9033
    endloop
  endfacet
  facet normal 0 1 -0
    outer loop
      vertex 9.33086 75 30.675
      vertex 7 75 34
      vertex 9.40783 75 30.7935
    endloop
  endfacet
  facet normal 0 1 -0
    outer loop
      vertex 9.26671 75 30.5491
      vertex 7 75 34
      vertex 9.33086 75 30.675
    endloop
  endfacet
  facet normal 0 1 -0
    outer loop
      vertex 9.21607 75 30.4172
      vertex 7 75 34
      vertex 9.26671 75 30.5491
    endloop
  endfacet
  facet normal 0 1 -0
    outer loop
      vertex 9.1795 75 30.2807
      vertex 7 75 34
      vertex 9.21607 75 30.4172
    endloop
  endfacet
  facet normal 0 1 -0
    outer loop
      vertex 9.1574 75 30.1411
      vertex 7 75 34
      vertex 9.1795 75 30.2807
    endloop
  endfacet
  facet normal 0 1 -0
    outer loop
      vertex 9.15 75 30
      vertex 7 75 34
      vertex 9.1574 75 30.1411
    endloop
  endfacet
  facet normal 0 1 0
    outer loop
      vertex 7 75 26
      vertex 9.15 75 30
      vertex 9.1574 75 29.8589
    endloop
  endfacet
  facet normal 0 1 0
    outer loop
      vertex 7 75 26
      vertex 9.1574 75 29.8589
      vertex 9.1795 75 29.7193
    endloop
  endfacet
  facet normal 0 1 0
    outer loop
      vertex 7 75 26
      vertex 9.1795 75 29.7193
      vertex 9.21607 75 29.5828
    endloop
  endfacet
  facet normal 0 1 0
    outer loop
      vertex 7 75 26
      vertex 9.21607 75 29.5828
      vertex 9.26671 75 29.4509
    endloop
  endfacet
  facet normal 0 1 0
    outer loop
      vertex 7 75 26
      vertex 10.5 75 28.65
      vertex 14 75 26
    endloop
  endfacet
  facet normal 0 1 0
    outer loop
      vertex 10.5 75 28.65
      vertex 7 75 26
      vertex 10.3589 75 28.6574
    endloop
  endfacet
  facet normal 0 1 0
    outer loop
      vertex 10.3589 75 28.6574
      vertex 7 75 26
      vertex 10.2193 75 28.6795
    endloop
  endfacet
  facet normal 0 1 0
    outer loop
      vertex 10.2193 75 28.6795
      vertex 7 75 26
      vertex 10.0828 75 28.7161
    endloop
  endfacet
  facet normal 0 1 0
    outer loop
      vertex 10.0828 75 28.7161
      vertex 7 75 26
      vertex 9.9509 75 28.7667
    endloop
  endfacet
  facet normal 0 1 0
    outer loop
      vertex 9.9509 75 28.7667
      vertex 7 75 26
      vertex 9.825 75 28.8309
    endloop
  endfacet
  facet normal 0 1 0
    outer loop
      vertex 9.15 75 30
      vertex 7 75 26
      vertex 7 75 34
    endloop
  endfacet
  facet normal 0 1 0
    outer loop
      vertex 9.33086 75 29.325
      vertex 7 75 26
      vertex 9.26671 75 29.4509
    endloop
  endfacet
  facet normal 0 1 0
    outer loop
      vertex 9.40783 75 29.2065
      vertex 7 75 26
      vertex 9.33086 75 29.325
    endloop
  endfacet
  facet normal 0 1 0
    outer loop
      vertex 9.49675 75 29.0967
      vertex 7 75 26
      vertex 9.40783 75 29.2065
    endloop
  endfacet
  facet normal 0 1 0
    outer loop
      vertex 9.59667 75 28.9968
      vertex 7 75 26
      vertex 9.49675 75 29.0967
    endloop
  endfacet
  facet normal 0 1 0
    outer loop
      vertex 9.70649 75 28.9078
      vertex 7 75 26
      vertex 9.59667 75 28.9968
    endloop
  endfacet
  facet normal 0 1 0
    outer loop
      vertex 9.825 75 28.8309
      vertex 7 75 26
      vertex 9.70649 75 28.9078
    endloop
  endfacet
  facet normal -0.998629 0 -0.0523381
    outer loop
      vertex 11.85 45 30
      vertex 11.8426 75 30.1411
      vertex 11.85 75 30
    endloop
  endfacet
  facet normal -0.998629 -0 -0.0523381
    outer loop
      vertex 11.8426 75 30.1411
      vertex 11.85 45 30
      vertex 11.8426 45 30.1411
    endloop
  endfacet
  facet normal -0.987689 0 -0.156433
    outer loop
      vertex 11.8426 45 30.1411
      vertex 11.8205 75 30.2807
      vertex 11.8426 75 30.1411
    endloop
  endfacet
  facet normal -0.987689 -0 -0.156433
    outer loop
      vertex 11.8205 75 30.2807
      vertex 11.8426 45 30.1411
      vertex 11.8205 45 30.2807
    endloop
  endfacet
  facet normal 0.0523311 0 -0.99863
    outer loop
      vertex 10.3589 45 31.3426
      vertex 10.5 75 31.35
      vertex 10.5 45 31.35
    endloop
  endfacet
  facet normal 0.0523311 0 -0.99863
    outer loop
      vertex 10.5 75 31.35
      vertex 10.3589 45 31.3426
      vertex 10.3589 75 31.3426
    endloop
  endfacet
  facet normal -0.70711 0 -0.707103
    outer loop
      vertex 11.5032 45 30.9033
      vertex 11.4033 75 31.0032
      vertex 11.5032 75 30.9033
    endloop
  endfacet
  facet normal -0.70711 -0 -0.707103
    outer loop
      vertex 11.4033 75 31.0032
      vertex 11.5032 45 30.9033
      vertex 11.4033 45 31.0032
    endloop
  endfacet
  facet normal 0.358368 0 -0.93358
    outer loop
      vertex 9.9509 45 31.2333
      vertex 10.0828 75 31.2839
      vertex 10.0828 45 31.2839
    endloop
  endfacet
  facet normal 0.358368 0 -0.93358
    outer loop
      vertex 10.0828 75 31.2839
      vertex 9.9509 45 31.2333
      vertex 9.9509 75 31.2333
    endloop
  endfacet
  facet normal -0.933582 0 -0.358364
    outer loop
      vertex 11.7839 45 30.4172
      vertex 11.7333 75 30.5491
      vertex 11.7839 75 30.4172
    endloop
  endfacet
  facet normal -0.933582 -0 -0.358364
    outer loop
      vertex 11.7333 75 30.5491
      vertex 11.7839 45 30.4172
      vertex 11.7333 45 30.5491
    endloop
  endfacet
  facet normal -0.544639 0 -0.83867
    outer loop
      vertex 11.175 45 31.1691
      vertex 11.2935 75 31.0922
      vertex 11.2935 45 31.0922
    endloop
  endfacet
  facet normal -0.544639 0 -0.83867
    outer loop
      vertex 11.2935 75 31.0922
      vertex 11.175 45 31.1691
      vertex 11.175 75 31.1691
    endloop
  endfacet
  facet normal 0.933582 0 -0.358364
    outer loop
      vertex 9.26671 45 30.5491
      vertex 9.21607 75 30.4172
      vertex 9.26671 75 30.5491
    endloop
  endfacet
  facet normal 0.933582 0 -0.358364
    outer loop
      vertex 9.21607 75 30.4172
      vertex 9.26671 45 30.5491
      vertex 9.21607 45 30.4172
    endloop
  endfacet
  facet normal 0.777145 0 -0.629322
    outer loop
      vertex 9.49675 45 30.9033
      vertex 9.40783 75 30.7935
      vertex 9.49675 75 30.9033
    endloop
  endfacet
  facet normal 0.777145 0 -0.629322
    outer loop
      vertex 9.40783 75 30.7935
      vertex 9.49675 45 30.9033
      vertex 9.40783 45 30.7935
    endloop
  endfacet
  facet normal 0.258823 0 -0.965925
    outer loop
      vertex 10.0828 45 31.2839
      vertex 10.2193 75 31.3205
      vertex 10.2193 45 31.3205
    endloop
  endfacet
  facet normal 0.258823 0 -0.965925
    outer loop
      vertex 10.2193 75 31.3205
      vertex 10.0828 45 31.2839
      vertex 10.0828 75 31.2839
    endloop
  endfacet
  facet normal -0.15644 0 0.987687
    outer loop
      vertex 10.6411 75 28.6574
      vertex 10.7807 45 28.6795
      vertex 10.7807 75 28.6795
    endloop
  endfacet
  facet normal -0.15644 0 0.987687
    outer loop
      vertex 10.7807 45 28.6795
      vertex 10.6411 75 28.6574
      vertex 10.6411 45 28.6574
    endloop
  endfacet
  facet normal -0.965926 0 -0.25882
    outer loop
      vertex 11.8205 45 30.2807
      vertex 11.7839 75 30.4172
      vertex 11.8205 75 30.2807
    endloop
  endfacet
  facet normal -0.965926 -0 -0.25882
    outer loop
      vertex 11.7839 75 30.4172
      vertex 11.8205 45 30.2807
      vertex 11.7839 45 30.4172
    endloop
  endfacet
  facet normal -0.838672 0 -0.544636
    outer loop
      vertex 11.6691 45 30.675
      vertex 11.5922 75 30.7935
      vertex 11.6691 75 30.675
    endloop
  endfacet
  facet normal -0.838672 -0 -0.544636
    outer loop
      vertex 11.5922 75 30.7935
      vertex 11.6691 45 30.675
      vertex 11.5922 45 30.7935
    endloop
  endfacet
  facet normal -0.891005 0 -0.453993
    outer loop
      vertex 11.7333 45 30.5491
      vertex 11.6691 75 30.675
      vertex 11.7333 75 30.5491
    endloop
  endfacet
  facet normal -0.891005 -0 -0.453993
    outer loop
      vertex 11.6691 75 30.675
      vertex 11.7333 45 30.5491
      vertex 11.6691 45 30.675
    endloop
  endfacet
  facet normal -0.156427 0 -0.987689
    outer loop
      vertex 10.6411 45 31.3426
      vertex 10.7807 75 31.3205
      vertex 10.7807 45 31.3205
    endloop
  endfacet
  facet normal -0.156427 0 -0.987689
    outer loop
      vertex 10.7807 75 31.3205
      vertex 10.6411 45 31.3426
      vertex 10.6411 75 31.3426
    endloop
  endfacet
  facet normal -0.258823 0 -0.965925
    outer loop
      vertex 10.7807 45 31.3205
      vertex 10.9172 75 31.2839
      vertex 10.9172 45 31.2839
    endloop
  endfacet
  facet normal -0.258823 0 -0.965925
    outer loop
      vertex 10.9172 75 31.2839
      vertex 10.7807 45 31.3205
      vertex 10.7807 75 31.3205
    endloop
  endfacet
  facet normal -0.629315 0 -0.777151
    outer loop
      vertex 11.2935 45 31.0922
      vertex 11.4033 75 31.0032
      vertex 11.4033 45 31.0032
    endloop
  endfacet
  facet normal -0.629315 0 -0.777151
    outer loop
      vertex 11.4033 75 31.0032
      vertex 11.2935 45 31.0922
      vertex 11.2935 75 31.0922
    endloop
  endfacet
  facet normal 0.987689 0 -0.156433
    outer loop
      vertex 9.1795 45 30.2807
      vertex 9.1574 75 30.1411
      vertex 9.1795 75 30.2807
    endloop
  endfacet
  facet normal 0.987689 0 -0.156433
    outer loop
      vertex 9.1574 75 30.1411
      vertex 9.1795 45 30.2807
      vertex 9.1574 45 30.1411
    endloop
  endfacet
  facet normal 0.838672 0 -0.544636
    outer loop
      vertex 9.40783 45 30.7935
      vertex 9.33086 75 30.675
      vertex 9.40783 75 30.7935
    endloop
  endfacet
  facet normal 0.838672 0 -0.544636
    outer loop
      vertex 9.33086 75 30.675
      vertex 9.40783 45 30.7935
      vertex 9.33086 45 30.675
    endloop
  endfacet
  facet normal 0.965926 0 -0.25882
    outer loop
      vertex 9.21607 45 30.4172
      vertex 9.1795 75 30.2807
      vertex 9.21607 75 30.4172
    endloop
  endfacet
  facet normal 0.965926 0 -0.25882
    outer loop
      vertex 9.1795 75 30.2807
      vertex 9.21607 45 30.4172
      vertex 9.1795 45 30.2807
    endloop
  endfacet
  facet normal 0.544639 0 -0.83867
    outer loop
      vertex 9.70649 45 31.0922
      vertex 9.825 75 31.1691
      vertex 9.825 45 31.1691
    endloop
  endfacet
  facet normal 0.544639 0 -0.83867
    outer loop
      vertex 9.825 75 31.1691
      vertex 9.70649 45 31.0922
      vertex 9.70649 75 31.0922
    endloop
  endfacet
  facet normal 0.45399 0 -0.891007
    outer loop
      vertex 9.825 45 31.1691
      vertex 9.9509 75 31.2333
      vertex 9.9509 45 31.2333
    endloop
  endfacet
  facet normal 0.45399 0 -0.891007
    outer loop
      vertex 9.9509 75 31.2333
      vertex 9.825 45 31.1691
      vertex 9.825 75 31.1691
    endloop
  endfacet
  facet normal 0.156427 0 -0.987689
    outer loop
      vertex 10.2193 45 31.3205
      vertex 10.3589 75 31.3426
      vertex 10.3589 45 31.3426
    endloop
  endfacet
  facet normal 0.156427 0 -0.987689
    outer loop
      vertex 10.3589 75 31.3426
      vertex 10.2193 45 31.3205
      vertex 10.2193 75 31.3205
    endloop
  endfacet
  facet normal -0.998629 0 0.0523381
    outer loop
      vertex 11.8426 45 29.8589
      vertex 11.85 75 30
      vertex 11.8426 75 29.8589
    endloop
  endfacet
  facet normal -0.998629 0 0.0523381
    outer loop
      vertex 11.85 75 30
      vertex 11.8426 45 29.8589
      vertex 11.85 45 30
    endloop
  endfacet
  facet normal -0.45399 0 0.891007
    outer loop
      vertex 11.0491 75 28.7667
      vertex 11.175 45 28.8309
      vertex 11.175 75 28.8309
    endloop
  endfacet
  facet normal -0.45399 0 0.891007
    outer loop
      vertex 11.175 45 28.8309
      vertex 11.0491 75 28.7667
      vertex 11.0491 45 28.7667
    endloop
  endfacet
  facet normal 0.891005 -0 0.453993
    outer loop
      vertex 9.26671 45 29.4509
      vertex 9.33086 75 29.325
      vertex 9.26671 75 29.4509
    endloop
  endfacet
  facet normal 0.891005 0 0.453993
    outer loop
      vertex 9.33086 75 29.325
      vertex 9.26671 45 29.4509
      vertex 9.33086 45 29.325
    endloop
  endfacet
  facet normal 0.93358 -0 0.358368
    outer loop
      vertex 9.21607 45 29.5828
      vertex 9.26671 75 29.4509
      vertex 9.21607 75 29.5828
    endloop
  endfacet
  facet normal 0.93358 0 0.358368
    outer loop
      vertex 9.26671 75 29.4509
      vertex 9.21607 45 29.5828
      vertex 9.26671 45 29.4509
    endloop
  endfacet
  facet normal 0.77715 -0 0.629315
    outer loop
      vertex 9.40783 45 29.2065
      vertex 9.49675 75 29.0967
      vertex 9.40783 75 29.2065
    endloop
  endfacet
  facet normal 0.77715 0 0.629315
    outer loop
      vertex 9.49675 75 29.0967
      vertex 9.40783 45 29.2065
      vertex 9.49675 45 29.0967
    endloop
  endfacet
  facet normal -0.0523314 0 0.99863
    outer loop
      vertex 10.5 75 28.65
      vertex 10.6411 45 28.6574
      vertex 10.6411 75 28.6574
    endloop
  endfacet
  facet normal -0.0523314 0 0.99863
    outer loop
      vertex 10.6411 45 28.6574
      vertex 10.5 75 28.65
      vertex 10.5 45 28.65
    endloop
  endfacet
  facet normal -0.777145 0 -0.629322
    outer loop
      vertex 11.5922 45 30.7935
      vertex 11.5032 75 30.9033
      vertex 11.5922 75 30.7935
    endloop
  endfacet
  facet normal -0.777145 -0 -0.629322
    outer loop
      vertex 11.5032 75 30.9033
      vertex 11.5922 45 30.7935
      vertex 11.5032 45 30.9033
    endloop
  endfacet
  facet normal -0.0523314 0 -0.99863
    outer loop
      vertex 10.5 45 31.35
      vertex 10.6411 75 31.3426
      vertex 10.6411 45 31.3426
    endloop
  endfacet
  facet normal -0.0523314 0 -0.99863
    outer loop
      vertex 10.6411 75 31.3426
      vertex 10.5 45 31.35
      vertex 10.5 75 31.35
    endloop
  endfacet
  facet normal -0.45399 0 -0.891007
    outer loop
      vertex 11.0491 45 31.2333
      vertex 11.175 75 31.1691
      vertex 11.175 45 31.1691
    endloop
  endfacet
  facet normal -0.45399 0 -0.891007
    outer loop
      vertex 11.175 75 31.1691
      vertex 11.0491 45 31.2333
      vertex 11.0491 75 31.2333
    endloop
  endfacet
  facet normal -0.358368 0 -0.93358
    outer loop
      vertex 10.9172 45 31.2839
      vertex 11.0491 75 31.2333
      vertex 11.0491 45 31.2333
    endloop
  endfacet
  facet normal -0.358368 0 -0.93358
    outer loop
      vertex 11.0491 75 31.2333
      vertex 10.9172 45 31.2839
      vertex 10.9172 75 31.2839
    endloop
  endfacet
  facet normal 0.891005 0 -0.453993
    outer loop
      vertex 9.33086 45 30.675
      vertex 9.26671 75 30.5491
      vertex 9.33086 75 30.675
    endloop
  endfacet
  facet normal 0.891005 0 -0.453993
    outer loop
      vertex 9.26671 75 30.5491
      vertex 9.33086 45 30.675
      vertex 9.26671 45 30.5491
    endloop
  endfacet
  facet normal 0.998629 0 -0.0523381
    outer loop
      vertex 9.1574 45 30.1411
      vertex 9.15 75 30
      vertex 9.1574 75 30.1411
    endloop
  endfacet
  facet normal 0.998629 0 -0.0523381
    outer loop
      vertex 9.15 75 30
      vertex 9.1574 45 30.1411
      vertex 9.15 45 30
    endloop
  endfacet
  facet normal 0.998629 -0 0.0523381
    outer loop
      vertex 9.15 45 30
      vertex 9.1574 75 29.8589
      vertex 9.15 75 30
    endloop
  endfacet
  facet normal 0.998629 0 0.0523381
    outer loop
      vertex 9.1574 75 29.8589
      vertex 9.15 45 30
      vertex 9.1574 45 29.8589
    endloop
  endfacet
  facet normal 0.629315 0 -0.777151
    outer loop
      vertex 9.59667 45 31.0032
      vertex 9.70649 75 31.0922
      vertex 9.70649 45 31.0922
    endloop
  endfacet
  facet normal 0.629315 0 -0.777151
    outer loop
      vertex 9.70649 75 31.0922
      vertex 9.59667 45 31.0032
      vertex 9.59667 75 31.0032
    endloop
  endfacet
  facet normal 0.70711 0 -0.707103
    outer loop
      vertex 9.59667 45 31.0032
      vertex 9.49675 75 30.9033
      vertex 9.59667 75 31.0032
    endloop
  endfacet
  facet normal 0.70711 0 -0.707103
    outer loop
      vertex 9.49675 75 30.9033
      vertex 9.59667 45 31.0032
      vertex 9.49675 45 30.9033
    endloop
  endfacet
  facet normal -0.891005 0 0.453993
    outer loop
      vertex 11.6691 45 29.325
      vertex 11.7333 75 29.4509
      vertex 11.6691 75 29.325
    endloop
  endfacet
  facet normal -0.891005 0 0.453993
    outer loop
      vertex 11.7333 75 29.4509
      vertex 11.6691 45 29.325
      vertex 11.7333 45 29.4509
    endloop
  endfacet
  facet normal -0.707103 0 0.70711
    outer loop
      vertex 11.4033 75 28.9968
      vertex 11.5032 45 29.0967
      vertex 11.5032 75 29.0967
    endloop
  endfacet
  facet normal -0.707103 0 0.70711
    outer loop
      vertex 11.5032 45 29.0967
      vertex 11.4033 75 28.9968
      vertex 11.4033 45 28.9968
    endloop
  endfacet
  facet normal 0.25881 0 0.965928
    outer loop
      vertex 10.0828 75 28.7161
      vertex 10.2193 45 28.6795
      vertex 10.2193 75 28.6795
    endloop
  endfacet
  facet normal 0.25881 0 0.965928
    outer loop
      vertex 10.2193 45 28.6795
      vertex 10.0828 75 28.7161
      vertex 10.0828 45 28.7161
    endloop
  endfacet
  facet normal 0.629323 0 0.777144
    outer loop
      vertex 9.59667 75 28.9968
      vertex 9.70649 45 28.9078
      vertex 9.70649 75 28.9078
    endloop
  endfacet
  facet normal 0.629323 0 0.777144
    outer loop
      vertex 9.70649 45 28.9078
      vertex 9.59667 75 28.9968
      vertex 9.59667 45 28.9968
    endloop
  endfacet
  facet normal 0.838672 -0 0.544636
    outer loop
      vertex 9.33086 45 29.325
      vertex 9.40783 75 29.2065
      vertex 9.33086 75 29.325
    endloop
  endfacet
  facet normal 0.838672 0 0.544636
    outer loop
      vertex 9.40783 75 29.2065
      vertex 9.33086 45 29.325
      vertex 9.40783 45 29.2065
    endloop
  endfacet
  facet normal 0.707103 0 0.70711
    outer loop
      vertex 9.49675 75 29.0967
      vertex 9.59667 45 28.9968
      vertex 9.59667 75 28.9968
    endloop
  endfacet
  facet normal 0.707103 0 0.70711
    outer loop
      vertex 9.59667 45 28.9968
      vertex 9.49675 75 29.0967
      vertex 9.49675 45 29.0967
    endloop
  endfacet
  facet normal 0.965927 -0 0.258816
    outer loop
      vertex 9.1795 45 29.7193
      vertex 9.21607 75 29.5828
      vertex 9.1795 75 29.7193
    endloop
  endfacet
  facet normal 0.965927 0 0.258816
    outer loop
      vertex 9.21607 75 29.5828
      vertex 9.1795 45 29.7193
      vertex 9.21607 45 29.5828
    endloop
  endfacet
  facet normal 0.987689 -0 0.156433
    outer loop
      vertex 9.1574 45 29.8589
      vertex 9.1795 75 29.7193
      vertex 9.1574 75 29.8589
    endloop
  endfacet
  facet normal 0.987689 0 0.156433
    outer loop
      vertex 9.1795 75 29.7193
      vertex 9.1574 45 29.8589
      vertex 9.1795 45 29.7193
    endloop
  endfacet
  facet normal -0.25881 0 0.965928
    outer loop
      vertex 10.7807 75 28.6795
      vertex 10.9172 45 28.7161
      vertex 10.9172 75 28.7161
    endloop
  endfacet
  facet normal -0.25881 0 0.965928
    outer loop
      vertex 10.9172 45 28.7161
      vertex 10.7807 75 28.6795
      vertex 10.7807 45 28.6795
    endloop
  endfacet
  facet normal -0.358368 0 0.93358
    outer loop
      vertex 10.9172 75 28.7161
      vertex 11.0491 45 28.7667
      vertex 11.0491 75 28.7667
    endloop
  endfacet
  facet normal -0.358368 0 0.93358
    outer loop
      vertex 11.0491 45 28.7667
      vertex 10.9172 75 28.7161
      vertex 10.9172 45 28.7161
    endloop
  endfacet
  facet normal -0.965927 0 0.258816
    outer loop
      vertex 11.7839 45 29.5828
      vertex 11.8205 75 29.7193
      vertex 11.7839 75 29.5828
    endloop
  endfacet
  facet normal -0.965927 0 0.258816
    outer loop
      vertex 11.8205 75 29.7193
      vertex 11.7839 45 29.5828
      vertex 11.8205 45 29.7193
    endloop
  endfacet
  facet normal -0.987689 0 0.156433
    outer loop
      vertex 11.8205 45 29.7193
      vertex 11.8426 75 29.8589
      vertex 11.8205 75 29.7193
    endloop
  endfacet
  facet normal -0.987689 0 0.156433
    outer loop
      vertex 11.8426 75 29.8589
      vertex 11.8205 45 29.7193
      vertex 11.8426 45 29.8589
    endloop
  endfacet
  facet normal -0.629323 0 0.777144
    outer loop
      vertex 11.2935 75 28.9078
      vertex 11.4033 45 28.9968
      vertex 11.4033 75 28.9968
    endloop
  endfacet
  facet normal -0.629323 0 0.777144
    outer loop
      vertex 11.4033 45 28.9968
      vertex 11.2935 75 28.9078
      vertex 11.2935 45 28.9078
    endloop
  endfacet
  facet normal -0.544639 0 0.83867
    outer loop
      vertex 11.175 75 28.8309
      vertex 11.2935 45 28.9078
      vertex 11.2935 75 28.9078
    endloop
  endfacet
  facet normal -0.544639 0 0.83867
    outer loop
      vertex 11.2935 45 28.9078
      vertex 11.175 75 28.8309
      vertex 11.175 45 28.8309
    endloop
  endfacet
  facet normal -0.93358 0 0.358368
    outer loop
      vertex 11.7333 45 29.4509
      vertex 11.7839 75 29.5828
      vertex 11.7333 75 29.4509
    endloop
  endfacet
  facet normal -0.93358 0 0.358368
    outer loop
      vertex 11.7839 75 29.5828
      vertex 11.7333 45 29.4509
      vertex 11.7839 45 29.5828
    endloop
  endfacet
  facet normal -0.77715 0 0.629315
    outer loop
      vertex 11.5032 45 29.0967
      vertex 11.5922 75 29.2065
      vertex 11.5032 75 29.0967
    endloop
  endfacet
  facet normal -0.77715 0 0.629315
    outer loop
      vertex 11.5922 75 29.2065
      vertex 11.5032 45 29.0967
      vertex 11.5922 45 29.2065
    endloop
  endfacet
  facet normal -0.838672 0 0.544636
    outer loop
      vertex 11.5922 45 29.2065
      vertex 11.6691 75 29.325
      vertex 11.5922 75 29.2065
    endloop
  endfacet
  facet normal -0.838672 0 0.544636
    outer loop
      vertex 11.6691 75 29.325
      vertex 11.5922 45 29.2065
      vertex 11.6691 45 29.325
    endloop
  endfacet
  facet normal 0.15644 0 0.987687
    outer loop
      vertex 10.2193 75 28.6795
      vertex 10.3589 45 28.6574
      vertex 10.3589 75 28.6574
    endloop
  endfacet
  facet normal 0.15644 0 0.987687
    outer loop
      vertex 10.3589 45 28.6574
      vertex 10.2193 75 28.6795
      vertex 10.2193 45 28.6795
    endloop
  endfacet
  facet normal 0.0523311 0 0.99863
    outer loop
      vertex 10.3589 75 28.6574
      vertex 10.5 45 28.65
      vertex 10.5 75 28.65
    endloop
  endfacet
  facet normal 0.0523311 0 0.99863
    outer loop
      vertex 10.5 45 28.65
      vertex 10.3589 75 28.6574
      vertex 10.3589 45 28.6574
    endloop
  endfacet
  facet normal 0.544639 0 0.83867
    outer loop
      vertex 9.70649 75 28.9078
      vertex 9.825 45 28.8309
      vertex 9.825 75 28.8309
    endloop
  endfacet
  facet normal 0.544639 0 0.83867
    outer loop
      vertex 9.825 45 28.8309
      vertex 9.70649 75 28.9078
      vertex 9.70649 45 28.9078
    endloop
  endfacet
  facet normal 0.45399 0 0.891007
    outer loop
      vertex 9.825 75 28.8309
      vertex 9.9509 45 28.7667
      vertex 9.9509 75 28.7667
    endloop
  endfacet
  facet normal 0.45399 0 0.891007
    outer loop
      vertex 9.9509 45 28.7667
      vertex 9.825 75 28.8309
      vertex 9.825 45 28.8309
    endloop
  endfacet
  facet normal 0.358368 0 0.93358
    outer loop
      vertex 9.9509 75 28.7667
      vertex 10.0828 45 28.7161
      vertex 10.0828 75 28.7161
    endloop
  endfacet
  facet normal 0.358368 0 0.93358
    outer loop
      vertex 10.0828 45 28.7161
      vertex 9.9509 75 28.7667
      vertex 9.9509 45 28.7667
    endloop
  endfacet
  facet normal -0.99863 0 -0.0523358
    outer loop
      vertex 3.9 45 31
      vertex 3.88959 50 31.1986
      vertex 3.9 50 31
    endloop
  endfacet
  facet normal -0.99863 -0 -0.0523358
    outer loop
      vertex 3.88959 50 31.1986
      vertex 3.9 45 31
      vertex 3.88959 45 31.1986
    endloop
  endfacet
  facet normal -0.987688 0 -0.156439
    outer loop
      vertex 3.88959 45 31.1986
      vertex 3.85848 50 31.395
      vertex 3.88959 50 31.1986
    endloop
  endfacet
  facet normal -0.987688 -0 -0.156439
    outer loop
      vertex 3.85848 50 31.395
      vertex 3.88959 45 31.1986
      vertex 3.85848 45 31.395
    endloop
  endfacet
  facet normal 0.0523454 0 -0.998629
    outer loop
      vertex 1.8014 45 32.8896
      vertex 2 50 32.9
      vertex 2 45 32.9
    endloop
  endfacet
  facet normal 0.0523454 0 -0.998629
    outer loop
      vertex 2 50 32.9
      vertex 1.8014 45 32.8896
      vertex 1.8014 50 32.8896
    endloop
  endfacet
  facet normal -0.629318 0 -0.777148
    outer loop
      vertex 3.11679 45 32.5371
      vertex 3.27135 50 32.412
      vertex 3.27135 45 32.412
    endloop
  endfacet
  facet normal -0.629318 0 -0.777148
    outer loop
      vertex 3.27135 50 32.412
      vertex 3.11679 45 32.5371
      vertex 3.11679 50 32.5371
    endloop
  endfacet
  facet normal 0.777146 0 -0.629321
    outer loop
      vertex 0.588024 45 32.2713
      vertex 0.462867 50 32.1168
      vertex 0.588024 50 32.2713
    endloop
  endfacet
  facet normal 0.777146 0 -0.629321
    outer loop
      vertex 0.462867 50 32.1168
      vertex 0.588024 45 32.2713
      vertex 0.462867 45 32.1168
    endloop
  endfacet
  facet normal 0.453998 0 -0.891002
    outer loop
      vertex 1.05 45 32.6454
      vertex 1.2272 50 32.7357
      vertex 1.2272 45 32.7357
    endloop
  endfacet
  facet normal 0.453998 0 -0.891002
    outer loop
      vertex 1.2272 50 32.7357
      vertex 1.05 45 32.6454
      vertex 1.05 50 32.6454
    endloop
  endfacet
  facet normal -0.156432 0 0.987689
    outer loop
      vertex 2.1986 50 29.1104
      vertex 2.39503 45 29.1415
      vertex 2.39503 50 29.1415
    endloop
  endfacet
  facet normal -0.156432 0 0.987689
    outer loop
      vertex 2.39503 45 29.1415
      vertex 2.1986 50 29.1104
      vertex 2.1986 45 29.1104
    endloop
  endfacet
  facet normal -0.891006 0 -0.453991
    outer loop
      vertex 3.73574 45 31.7728
      vertex 3.64545 50 31.95
      vertex 3.73574 50 31.7728
    endloop
  endfacet
  facet normal -0.891006 -0 -0.453991
    outer loop
      vertex 3.64545 50 31.95
      vertex 3.73574 45 31.7728
      vertex 3.64545 45 31.95
    endloop
  endfacet
  facet normal -0.358362 0 -0.933583
    outer loop
      vertex 2.58713 45 32.807
      vertex 2.7728 50 32.7357
      vertex 2.7728 45 32.7357
    endloop
  endfacet
  facet normal -0.358362 0 -0.933583
    outer loop
      vertex 2.7728 50 32.7357
      vertex 2.58713 45 32.807
      vertex 2.58713 50 32.807
    endloop
  endfacet
  facet normal 0.933582 0 -0.358365
    outer loop
      vertex 0.264263 45 31.7728
      vertex 0.192992 50 31.5871
      vertex 0.264263 50 31.7728
    endloop
  endfacet
  facet normal 0.933582 0 -0.358365
    outer loop
      vertex 0.192992 50 31.5871
      vertex 0.264263 45 31.7728
      vertex 0.192992 45 31.5871
    endloop
  endfacet
  facet normal 0.891006 0 -0.453991
    outer loop
      vertex 0.354551 45 31.95
      vertex 0.264263 50 31.7728
      vertex 0.354551 50 31.95
    endloop
  endfacet
  facet normal 0.891006 0 -0.453991
    outer loop
      vertex 0.264263 50 31.7728
      vertex 0.354551 45 31.95
      vertex 0.264263 45 31.7728
    endloop
  endfacet
  facet normal 0.258813 0 -0.965927
    outer loop
      vertex 1.41287 45 32.807
      vertex 1.60497 50 32.8585
      vertex 1.60497 45 32.8585
    endloop
  endfacet
  facet normal 0.258813 0 -0.965927
    outer loop
      vertex 1.60497 50 32.8585
      vertex 1.41287 45 32.807
      vertex 1.41287 50 32.807
    endloop
  endfacet
  facet normal -0.777146 0 0.629321
    outer loop
      vertex 3.41197 45 29.7287
      vertex 3.53713 50 29.8832
      vertex 3.41197 50 29.7287
    endloop
  endfacet
  facet normal -0.777146 0 0.629321
    outer loop
      vertex 3.53713 50 29.8832
      vertex 3.41197 45 29.7287
      vertex 3.53713 45 29.8832
    endloop
  endfacet
  facet normal -0.965926 0 0.258819
    outer loop
      vertex 3.80701 45 30.4129
      vertex 3.85848 50 30.605
      vertex 3.80701 50 30.4129
    endloop
  endfacet
  facet normal -0.965926 0 0.258819
    outer loop
      vertex 3.85848 50 30.605
      vertex 3.80701 45 30.4129
      vertex 3.85848 45 30.605
    endloop
  endfacet
  facet normal 0.358362 0 0.933583
    outer loop
      vertex 1.2272 50 29.2643
      vertex 1.41287 45 29.193
      vertex 1.41287 50 29.193
    endloop
  endfacet
  facet normal 0.358362 0 0.933583
    outer loop
      vertex 1.41287 45 29.193
      vertex 1.2272 50 29.2643
      vertex 1.2272 45 29.2643
    endloop
  endfacet
  facet normal 0.629318 0 0.777148
    outer loop
      vertex 0.728651 50 29.588
      vertex 0.883207 45 29.4629
      vertex 0.883207 50 29.4629
    endloop
  endfacet
  facet normal 0.629318 0 0.777148
    outer loop
      vertex 0.883207 45 29.4629
      vertex 0.728651 50 29.588
      vertex 0.728651 45 29.588
    endloop
  endfacet
  facet normal -0.965926 0 -0.258817
    outer loop
      vertex 3.85848 45 31.395
      vertex 3.80701 50 31.5871
      vertex 3.85848 50 31.395
    endloop
  endfacet
  facet normal -0.965926 -0 -0.258817
    outer loop
      vertex 3.80701 50 31.5871
      vertex 3.85848 45 31.395
      vertex 3.80701 45 31.5871
    endloop
  endfacet
  facet normal -0.933582 0 -0.358365
    outer loop
      vertex 3.80701 45 31.5871
      vertex 3.73574 50 31.7728
      vertex 3.80701 50 31.5871
    endloop
  endfacet
  facet normal -0.933582 -0 -0.358365
    outer loop
      vertex 3.73574 50 31.7728
      vertex 3.80701 45 31.5871
      vertex 3.73574 45 31.7728
    endloop
  endfacet
  facet normal -0.777146 0 -0.629321
    outer loop
      vertex 3.53713 45 32.1168
      vertex 3.41197 50 32.2713
      vertex 3.53713 50 32.1168
    endloop
  endfacet
  facet normal -0.777146 -0 -0.629321
    outer loop
      vertex 3.41197 50 32.2713
      vertex 3.53713 45 32.1168
      vertex 3.41197 45 32.2713
    endloop
  endfacet
  facet normal -0.156442 0 -0.987687
    outer loop
      vertex 2.1986 45 32.8896
      vertex 2.39503 50 32.8585
      vertex 2.39503 45 32.8585
    endloop
  endfacet
  facet normal -0.156442 0 -0.987687
    outer loop
      vertex 2.39503 50 32.8585
      vertex 2.1986 45 32.8896
      vertex 2.1986 50 32.8896
    endloop
  endfacet
  facet normal 0.987688 0 -0.156439
    outer loop
      vertex 0.14152 45 31.395
      vertex 0.110408 50 31.1986
      vertex 0.14152 50 31.395
    endloop
  endfacet
  facet normal 0.987688 0 -0.156439
    outer loop
      vertex 0.110408 50 31.1986
      vertex 0.14152 45 31.395
      vertex 0.110408 45 31.1986
    endloop
  endfacet
  facet normal 0.629318 0 -0.777148
    outer loop
      vertex 0.728651 45 32.412
      vertex 0.883207 50 32.5371
      vertex 0.883207 45 32.5371
    endloop
  endfacet
  facet normal 0.629318 0 -0.777148
    outer loop
      vertex 0.883207 50 32.5371
      vertex 0.728651 45 32.412
      vertex 0.728651 50 32.412
    endloop
  endfacet
  facet normal 0.156442 0 -0.987687
    outer loop
      vertex 1.60497 45 32.8585
      vertex 1.8014 50 32.8896
      vertex 1.8014 45 32.8896
    endloop
  endfacet
  facet normal 0.156442 0 -0.987687
    outer loop
      vertex 1.8014 50 32.8896
      vertex 1.60497 45 32.8585
      vertex 1.60497 50 32.8585
    endloop
  endfacet
  facet normal -0.358362 0 0.933583
    outer loop
      vertex 2.58713 50 29.193
      vertex 2.7728 45 29.2643
      vertex 2.7728 50 29.2643
    endloop
  endfacet
  facet normal -0.358362 0 0.933583
    outer loop
      vertex 2.7728 45 29.2643
      vertex 2.58713 50 29.193
      vertex 2.58713 45 29.193
    endloop
  endfacet
  facet normal -0.707107 0 0.707107
    outer loop
      vertex 3.27135 45 29.588
      vertex 3.41197 50 29.7287
      vertex 3.27135 50 29.588
    endloop
  endfacet
  facet normal -0.707107 0 0.707107
    outer loop
      vertex 3.41197 50 29.7287
      vertex 3.27135 45 29.588
      vertex 3.41197 45 29.7287
    endloop
  endfacet
  facet normal -0.933582 0 0.358365
    outer loop
      vertex 3.73574 45 30.2272
      vertex 3.80701 50 30.4129
      vertex 3.73574 50 30.2272
    endloop
  endfacet
  facet normal -0.933582 0 0.358365
    outer loop
      vertex 3.80701 50 30.4129
      vertex 3.73574 45 30.2272
      vertex 3.80701 45 30.4129
    endloop
  endfacet
  facet normal -0.838672 0 0.544637
    outer loop
      vertex 3.53713 45 29.8832
      vertex 3.64545 50 30.05
      vertex 3.53713 50 29.8832
    endloop
  endfacet
  facet normal -0.838672 0 0.544637
    outer loop
      vertex 3.64545 50 30.05
      vertex 3.53713 45 29.8832
      vertex 3.64545 45 30.05
    endloop
  endfacet
  facet normal -0.891006 0 0.453991
    outer loop
      vertex 3.64545 45 30.05
      vertex 3.73574 50 30.2272
      vertex 3.64545 50 30.05
    endloop
  endfacet
  facet normal -0.891006 0 0.453991
    outer loop
      vertex 3.73574 50 30.2272
      vertex 3.64545 45 30.05
      vertex 3.73574 45 30.2272
    endloop
  endfacet
  facet normal 0.544641 0 0.838669
    outer loop
      vertex 0.883207 50 29.4629
      vertex 1.05 45 29.3546
      vertex 1.05 50 29.3546
    endloop
  endfacet
  facet normal 0.544641 0 0.838669
    outer loop
      vertex 1.05 45 29.3546
      vertex 0.883207 50 29.4629
      vertex 0.883207 45 29.4629
    endloop
  endfacet
  facet normal 0.453991 0 0.891006
    outer loop
      vertex 1.05 50 29.3546
      vertex 1.2272 45 29.2643
      vertex 1.2272 50 29.2643
    endloop
  endfacet
  facet normal 0.453991 0 0.891006
    outer loop
      vertex 1.2272 45 29.2643
      vertex 1.05 50 29.3546
      vertex 1.05 45 29.3546
    endloop
  endfacet
  facet normal 0.258822 0 0.965925
    outer loop
      vertex 1.41287 50 29.193
      vertex 1.60497 45 29.1415
      vertex 1.60497 50 29.1415
    endloop
  endfacet
  facet normal 0.258822 0 0.965925
    outer loop
      vertex 1.60497 45 29.1415
      vertex 1.41287 50 29.193
      vertex 1.41287 45 29.193
    endloop
  endfacet
  facet normal 0.838672 -0 0.544637
    outer loop
      vertex 0.354551 45 30.05
      vertex 0.462867 50 29.8832
      vertex 0.354551 50 30.05
    endloop
  endfacet
  facet normal 0.838672 0 0.544637
    outer loop
      vertex 0.462867 50 29.8832
      vertex 0.354551 45 30.05
      vertex 0.462867 45 29.8832
    endloop
  endfacet
  facet normal 0.933582 -0 0.358365
    outer loop
      vertex 0.192992 45 30.4129
      vertex 0.264263 50 30.2272
      vertex 0.192992 50 30.4129
    endloop
  endfacet
  facet normal 0.933582 0 0.358365
    outer loop
      vertex 0.264263 50 30.2272
      vertex 0.192992 45 30.4129
      vertex 0.264263 45 30.2272
    endloop
  endfacet
  facet normal 0.987688 -0 0.156437
    outer loop
      vertex 0.110408 45 30.8014
      vertex 0.14152 50 30.605
      vertex 0.110408 50 30.8014
    endloop
  endfacet
  facet normal 0.987688 0 0.156437
    outer loop
      vertex 0.14152 50 30.605
      vertex 0.110408 45 30.8014
      vertex 0.14152 45 30.605
    endloop
  endfacet
  facet normal -0.707112 0 -0.707102
    outer loop
      vertex 3.41197 45 32.2713
      vertex 3.27135 50 32.412
      vertex 3.41197 50 32.2713
    endloop
  endfacet
  facet normal -0.707112 -0 -0.707102
    outer loop
      vertex 3.27135 50 32.412
      vertex 3.41197 45 32.2713
      vertex 3.27135 45 32.412
    endloop
  endfacet
  facet normal -0.838669 0 -0.544642
    outer loop
      vertex 3.64545 45 31.95
      vertex 3.53713 50 32.1168
      vertex 3.64545 50 31.95
    endloop
  endfacet
  facet normal -0.838669 -0 -0.544642
    outer loop
      vertex 3.53713 50 32.1168
      vertex 3.64545 45 31.95
      vertex 3.53713 45 32.1168
    endloop
  endfacet
  facet normal -0.258813 0 -0.965927
    outer loop
      vertex 2.39503 45 32.8585
      vertex 2.58713 50 32.807
      vertex 2.58713 45 32.807
    endloop
  endfacet
  facet normal -0.258813 0 -0.965927
    outer loop
      vertex 2.58713 50 32.807
      vertex 2.39503 45 32.8585
      vertex 2.39503 50 32.8585
    endloop
  endfacet
  facet normal -0.0523457 0 -0.998629
    outer loop
      vertex 2 45 32.9
      vertex 2.1986 50 32.8896
      vertex 2.1986 45 32.8896
    endloop
  endfacet
  facet normal -0.0523457 0 -0.998629
    outer loop
      vertex 2.1986 50 32.8896
      vertex 2 45 32.9
      vertex 2 50 32.9
    endloop
  endfacet
  facet normal -0.544634 0 -0.838674
    outer loop
      vertex 2.95 45 32.6454
      vertex 3.11679 50 32.5371
      vertex 3.11679 45 32.5371
    endloop
  endfacet
  facet normal -0.544634 0 -0.838674
    outer loop
      vertex 3.11679 50 32.5371
      vertex 2.95 45 32.6454
      vertex 2.95 50 32.6454
    endloop
  endfacet
  facet normal -0.453998 0 -0.891002
    outer loop
      vertex 2.7728 45 32.7357
      vertex 2.95 50 32.6454
      vertex 2.95 45 32.6454
    endloop
  endfacet
  facet normal -0.453998 0 -0.891002
    outer loop
      vertex 2.95 50 32.6454
      vertex 2.7728 45 32.7357
      vertex 2.7728 50 32.7357
    endloop
  endfacet
  facet normal 0.838669 0 -0.544642
    outer loop
      vertex 0.462867 45 32.1168
      vertex 0.354551 50 31.95
      vertex 0.462867 50 32.1168
    endloop
  endfacet
  facet normal 0.838669 0 -0.544642
    outer loop
      vertex 0.354551 50 31.95
      vertex 0.462867 45 32.1168
      vertex 0.354551 45 31.95
    endloop
  endfacet
  facet normal 0.965926 0 -0.258817
    outer loop
      vertex 0.192992 45 31.5871
      vertex 0.14152 50 31.395
      vertex 0.192992 50 31.5871
    endloop
  endfacet
  facet normal 0.965926 0 -0.258817
    outer loop
      vertex 0.14152 50 31.395
      vertex 0.192992 45 31.5871
      vertex 0.14152 45 31.395
    endloop
  endfacet
  facet normal 0.99863 0 -0.0523358
    outer loop
      vertex 0.110408 45 31.1986
      vertex 0.0999994 50 31
      vertex 0.110408 50 31.1986
    endloop
  endfacet
  facet normal 0.99863 0 -0.0523358
    outer loop
      vertex 0.0999994 50 31
      vertex 0.110408 45 31.1986
      vertex 0.0999994 45 31
    endloop
  endfacet
  facet normal 0.99863 -0 0.0523358
    outer loop
      vertex 0.0999994 45 31
      vertex 0.110408 50 30.8014
      vertex 0.0999994 50 31
    endloop
  endfacet
  facet normal 0.99863 0 0.0523358
    outer loop
      vertex 0.110408 50 30.8014
      vertex 0.0999994 45 31
      vertex 0.110408 45 30.8014
    endloop
  endfacet
  facet normal 0.707112 0 -0.707102
    outer loop
      vertex 0.728651 45 32.412
      vertex 0.588024 50 32.2713
      vertex 0.728651 50 32.412
    endloop
  endfacet
  facet normal 0.707112 0 -0.707102
    outer loop
      vertex 0.588024 50 32.2713
      vertex 0.728651 45 32.412
      vertex 0.588024 45 32.2713
    endloop
  endfacet
  facet normal 0.544634 0 -0.838674
    outer loop
      vertex 0.883207 45 32.5371
      vertex 1.05 50 32.6454
      vertex 1.05 45 32.6454
    endloop
  endfacet
  facet normal 0.544634 0 -0.838674
    outer loop
      vertex 1.05 50 32.6454
      vertex 0.883207 45 32.5371
      vertex 0.883207 50 32.5371
    endloop
  endfacet
  facet normal 0.358362 0 -0.933583
    outer loop
      vertex 1.2272 45 32.7357
      vertex 1.41287 50 32.807
      vertex 1.41287 45 32.807
    endloop
  endfacet
  facet normal 0.358362 0 -0.933583
    outer loop
      vertex 1.41287 50 32.807
      vertex 1.2272 45 32.7357
      vertex 1.2272 50 32.7357
    endloop
  endfacet
  facet normal -0.258822 0 0.965925
    outer loop
      vertex 2.39503 50 29.1415
      vertex 2.58713 45 29.193
      vertex 2.58713 50 29.193
    endloop
  endfacet
  facet normal -0.258822 0 0.965925
    outer loop
      vertex 2.58713 45 29.193
      vertex 2.39503 50 29.1415
      vertex 2.39503 45 29.1415
    endloop
  endfacet
  facet normal -0.453991 0 0.891006
    outer loop
      vertex 2.7728 50 29.2643
      vertex 2.95 45 29.3546
      vertex 2.95 50 29.3546
    endloop
  endfacet
  facet normal -0.453991 0 0.891006
    outer loop
      vertex 2.95 45 29.3546
      vertex 2.7728 50 29.2643
      vertex 2.7728 45 29.2643
    endloop
  endfacet
  facet normal -0.544641 0 0.838669
    outer loop
      vertex 2.95 50 29.3546
      vertex 3.11679 45 29.4629
      vertex 3.11679 50 29.4629
    endloop
  endfacet
  facet normal -0.544641 0 0.838669
    outer loop
      vertex 3.11679 45 29.4629
      vertex 2.95 50 29.3546
      vertex 2.95 45 29.3546
    endloop
  endfacet
  facet normal -0.629318 0 0.777148
    outer loop
      vertex 3.11679 50 29.4629
      vertex 3.27135 45 29.588
      vertex 3.27135 50 29.588
    endloop
  endfacet
  facet normal -0.629318 0 0.777148
    outer loop
      vertex 3.27135 45 29.588
      vertex 3.11679 50 29.4629
      vertex 3.11679 45 29.4629
    endloop
  endfacet
  facet normal -0.987688 0 0.156437
    outer loop
      vertex 3.85848 45 30.605
      vertex 3.88959 50 30.8014
      vertex 3.85848 50 30.605
    endloop
  endfacet
  facet normal -0.987688 0 0.156437
    outer loop
      vertex 3.88959 50 30.8014
      vertex 3.85848 45 30.605
      vertex 3.88959 45 30.8014
    endloop
  endfacet
  facet normal -0.99863 0 0.0523358
    outer loop
      vertex 3.88959 45 30.8014
      vertex 3.9 50 31
      vertex 3.88959 50 30.8014
    endloop
  endfacet
  facet normal -0.99863 0 0.0523358
    outer loop
      vertex 3.9 50 31
      vertex 3.88959 45 30.8014
      vertex 3.9 45 31
    endloop
  endfacet
  facet normal 0.156432 0 0.987689
    outer loop
      vertex 1.60497 50 29.1415
      vertex 1.8014 45 29.1104
      vertex 1.8014 50 29.1104
    endloop
  endfacet
  facet normal 0.156432 0 0.987689
    outer loop
      vertex 1.8014 45 29.1104
      vertex 1.60497 50 29.1415
      vertex 1.60497 45 29.1415
    endloop
  endfacet
  facet normal 0.0523457 0 0.998629
    outer loop
      vertex 1.8014 50 29.1104
      vertex 2 45 29.1
      vertex 2 50 29.1
    endloop
  endfacet
  facet normal 0.0523457 0 0.998629
    outer loop
      vertex 2 45 29.1
      vertex 1.8014 50 29.1104
      vertex 1.8014 45 29.1104
    endloop
  endfacet
  facet normal -0.0523454 0 0.998629
    outer loop
      vertex 2 50 29.1
      vertex 2.1986 45 29.1104
      vertex 2.1986 50 29.1104
    endloop
  endfacet
  facet normal -0.0523454 0 0.998629
    outer loop
      vertex 2.1986 45 29.1104
      vertex 2 50 29.1
      vertex 2 45 29.1
    endloop
  endfacet
  facet normal 0.707107 -0 0.707107
    outer loop
      vertex 0.588024 45 29.7287
      vertex 0.728651 50 29.588
      vertex 0.588024 50 29.7287
    endloop
  endfacet
  facet normal 0.707107 0 0.707107
    outer loop
      vertex 0.728651 50 29.588
      vertex 0.588024 45 29.7287
      vertex 0.728651 45 29.588
    endloop
  endfacet
  facet normal 0.777146 -0 0.629321
    outer loop
      vertex 0.462867 45 29.8832
      vertex 0.588024 50 29.7287
      vertex 0.462867 50 29.8832
    endloop
  endfacet
  facet normal 0.777146 0 0.629321
    outer loop
      vertex 0.588024 50 29.7287
      vertex 0.462867 45 29.8832
      vertex 0.588024 45 29.7287
    endloop
  endfacet
  facet normal 0.891006 -0 0.453991
    outer loop
      vertex 0.264263 45 30.2272
      vertex 0.354551 50 30.05
      vertex 0.264263 50 30.2272
    endloop
  endfacet
  facet normal 0.891006 0 0.453991
    outer loop
      vertex 0.354551 50 30.05
      vertex 0.264263 45 30.2272
      vertex 0.354551 45 30.05
    endloop
  endfacet
  facet normal 0.965926 -0 0.258819
    outer loop
      vertex 0.14152 45 30.605
      vertex 0.192992 50 30.4129
      vertex 0.14152 50 30.605
    endloop
  endfacet
  facet normal 0.965926 0 0.258819
    outer loop
      vertex 0.192992 50 30.4129
      vertex 0.14152 45 30.605
      vertex 0.192992 45 30.4129
    endloop
  endfacet
endsolid OpenSCAD_Model
