solid OpenSCAD_Model
  facet normal 0.994522 0.104529 0
    outer loop
      vertex 6 0 5
      vertex 5.86889 1.24747 0
      vertex 5.86889 1.24747 5
    endloop
  endfacet
  facet normal 0.994522 0.104529 0
    outer loop
      vertex 5.86889 1.24747 0
      vertex 6 0 5
      vertex 6 0 0
    endloop
  endfacet
  facet normal -0.994522 0.104529 0
    outer loop
      vertex -6 0 0
      vertex -5.86889 1.24747 5
      vertex -5.86889 1.24747 0
    endloop
  endfacet
  facet normal -0.994522 0.104529 0
    outer loop
      vertex -5.86889 1.24747 5
      vertex -6 0 0
      vertex -6 0 5
    endloop
  endfacet
  facet normal 0 1 -0
    outer loop
      vertex 0.627171 5.96713 0
      vertex -0.627171 5.96713 5
      vertex 0.627171 5.96713 5
    endloop
  endfacet
  facet normal 0 1 0
    outer loop
      vertex -0.627171 5.96713 5
      vertex 0.627171 5.96713 0
      vertex -0.627171 5.96713 0
    endloop
  endfacet
  facet normal 0 -1 0
    outer loop
      vertex -0.627171 -5.96713 0
      vertex 0.627171 -5.96713 5
      vertex -0.627171 -5.96713 5
    endloop
  endfacet
  facet normal 0 -1 -0
    outer loop
      vertex 0.627171 -5.96713 5
      vertex -0.627171 -5.96713 0
      vertex 0.627171 -5.96713 0
    endloop
  endfacet
  facet normal 0.587786 0.809017 -0
    outer loop
      vertex 4.01478 4.45887 0
      vertex 3 5.19615 5
      vertex 4.01478 4.45887 5
    endloop
  endfacet
  facet normal 0.587786 0.809017 0
    outer loop
      vertex 3 5.19615 5
      vertex 4.01478 4.45887 0
      vertex 3 5.19615 0
    endloop
  endfacet
  facet normal 0.406737 0.913545 -0
    outer loop
      vertex 3 5.19615 0
      vertex 1.8541 5.70634 5
      vertex 3 5.19615 5
    endloop
  endfacet
  facet normal 0.406737 0.913545 0
    outer loop
      vertex 1.8541 5.70634 5
      vertex 3 5.19615 0
      vertex 1.8541 5.70634 0
    endloop
  endfacet
  facet normal -0.743145 0.669131 0
    outer loop
      vertex -4.8541 3.52671 0
      vertex -4.01478 4.45887 5
      vertex -4.01478 4.45887 0
    endloop
  endfacet
  facet normal -0.743145 0.669131 0
    outer loop
      vertex -4.01478 4.45887 5
      vertex -4.8541 3.52671 0
      vertex -4.8541 3.52671 5
    endloop
  endfacet
  facet normal -0.866025 0.5 0
    outer loop
      vertex -5.48127 2.44042 0
      vertex -4.8541 3.52671 5
      vertex -4.8541 3.52671 0
    endloop
  endfacet
  facet normal -0.866025 0.5 0
    outer loop
      vertex -4.8541 3.52671 5
      vertex -5.48127 2.44042 0
      vertex -5.48127 2.44042 5
    endloop
  endfacet
  facet normal -0.406737 0.913545 0
    outer loop
      vertex -1.8541 5.70634 0
      vertex -3 5.19615 5
      vertex -1.8541 5.70634 5
    endloop
  endfacet
  facet normal -0.406737 0.913545 0
    outer loop
      vertex -3 5.19615 5
      vertex -1.8541 5.70634 0
      vertex -3 5.19615 0
    endloop
  endfacet
  facet normal 0.951057 -0.309017 0
    outer loop
      vertex 5.48127 -2.44042 5
      vertex 5.86889 -1.24747 0
      vertex 5.86889 -1.24747 5
    endloop
  endfacet
  facet normal 0.951057 -0.309017 0
    outer loop
      vertex 5.86889 -1.24747 0
      vertex 5.48127 -2.44042 5
      vertex 5.48127 -2.44042 0
    endloop
  endfacet
  facet normal 0.866025 0.5 0
    outer loop
      vertex 5.48127 2.44042 5
      vertex 4.8541 3.52671 0
      vertex 4.8541 3.52671 5
    endloop
  endfacet
  facet normal 0.866025 0.5 0
    outer loop
      vertex 4.8541 3.52671 0
      vertex 5.48127 2.44042 5
      vertex 5.48127 2.44042 0
    endloop
  endfacet
  facet normal 0.951057 0.309017 0
    outer loop
      vertex 5.86889 1.24747 5
      vertex 5.48127 2.44042 0
      vertex 5.48127 2.44042 5
    endloop
  endfacet
  facet normal 0.951057 0.309017 0
    outer loop
      vertex 5.48127 2.44042 0
      vertex 5.86889 1.24747 5
      vertex 5.86889 1.24747 0
    endloop
  endfacet
  facet normal 0.743145 0.669131 0
    outer loop
      vertex 4.8541 3.52671 5
      vertex 4.01478 4.45887 0
      vertex 4.01478 4.45887 5
    endloop
  endfacet
  facet normal 0.743145 0.669131 0
    outer loop
      vertex 4.01478 4.45887 0
      vertex 4.8541 3.52671 5
      vertex 4.8541 3.52671 0
    endloop
  endfacet
  facet normal 0.207911 0.978148 -0
    outer loop
      vertex 1.8541 5.70634 0
      vertex 0.627171 5.96713 5
      vertex 1.8541 5.70634 5
    endloop
  endfacet
  facet normal 0.207911 0.978148 0
    outer loop
      vertex 0.627171 5.96713 5
      vertex 1.8541 5.70634 0
      vertex 0.627171 5.96713 0
    endloop
  endfacet
  facet normal -0.951057 0.309017 0
    outer loop
      vertex -5.86889 1.24747 0
      vertex -5.48127 2.44042 5
      vertex -5.48127 2.44042 0
    endloop
  endfacet
  facet normal -0.951057 0.309017 0
    outer loop
      vertex -5.48127 2.44042 5
      vertex -5.86889 1.24747 0
      vertex -5.86889 1.24747 5
    endloop
  endfacet
  facet normal 0 0 1
    outer loop
      vertex 2.5 0 5
      vertex 6 0 5
      vertex 5.86889 1.24747 5
    endloop
  endfacet
  facet normal 0 0 1
    outer loop
      vertex 2.44537 0.519779 5
      vertex 5.86889 1.24747 5
      vertex 5.48127 2.44042 5
    endloop
  endfacet
  facet normal 0 0 1
    outer loop
      vertex 6 0 5
      vertex 2.5 0 5
      vertex 5.86889 -1.24747 5
    endloop
  endfacet
  facet normal 0 0 1
    outer loop
      vertex 2.28386 1.01684 5
      vertex 5.48127 2.44042 5
      vertex 4.8541 3.52671 5
    endloop
  endfacet
  facet normal -0 0 1
    outer loop
      vertex 2.44537 -0.519779 5
      vertex 5.86889 -1.24747 5
      vertex 2.5 0 5
    endloop
  endfacet
  facet normal 0 0 1
    outer loop
      vertex 2.02254 1.46946 5
      vertex 4.8541 3.52671 5
      vertex 4.01478 4.45887 5
    endloop
  endfacet
  facet normal 0 0 1
    outer loop
      vertex 5.86889 -1.24747 5
      vertex 2.44537 -0.519779 5
      vertex 5.48127 -2.44042 5
    endloop
  endfacet
  facet normal 0 0 1
    outer loop
      vertex 1.67283 1.85786 5
      vertex 4.01478 4.45887 5
      vertex 3 5.19615 5
    endloop
  endfacet
  facet normal -0 0 1
    outer loop
      vertex 2.28386 -1.01684 5
      vertex 5.48127 -2.44042 5
      vertex 2.44537 -0.519779 5
    endloop
  endfacet
  facet normal 0 0 1
    outer loop
      vertex 5.48127 -2.44042 5
      vertex 2.28386 -1.01684 5
      vertex 4.8541 -3.52671 5
    endloop
  endfacet
  facet normal 0 0 1
    outer loop
      vertex 5.86889 1.24747 5
      vertex 2.44537 0.519779 5
      vertex 2.5 0 5
    endloop
  endfacet
  facet normal 0 0 1
    outer loop
      vertex 5.48127 2.44042 5
      vertex 2.28386 1.01684 5
      vertex 2.44537 0.519779 5
    endloop
  endfacet
  facet normal 0 0 1
    outer loop
      vertex 4.8541 3.52671 5
      vertex 2.02254 1.46946 5
      vertex 2.28386 1.01684 5
    endloop
  endfacet
  facet normal 0 0 1
    outer loop
      vertex 1.25 2.16506 5
      vertex 3 5.19615 5
      vertex 1.8541 5.70634 5
    endloop
  endfacet
  facet normal 0 0 1
    outer loop
      vertex 4.01478 4.45887 5
      vertex 1.67283 1.85786 5
      vertex 2.02254 1.46946 5
    endloop
  endfacet
  facet normal 0 0 1
    outer loop
      vertex 3 5.19615 5
      vertex 1.25 2.16506 5
      vertex 1.67283 1.85786 5
    endloop
  endfacet
  facet normal 0 0 1
    outer loop
      vertex 1.8541 5.70634 5
      vertex 0.772542 2.37764 5
      vertex 1.25 2.16506 5
    endloop
  endfacet
  facet normal 0 0 1
    outer loop
      vertex 0.627171 5.96713 5
      vertex 0.772542 2.37764 5
      vertex 1.8541 5.70634 5
    endloop
  endfacet
  facet normal 0 0 1
    outer loop
      vertex 0.627171 5.96713 5
      vertex 0.261321 2.4863 5
      vertex 0.772542 2.37764 5
    endloop
  endfacet
  facet normal 0 0 1
    outer loop
      vertex 0.627171 5.96713 5
      vertex -0.261321 2.4863 5
      vertex 0.261321 2.4863 5
    endloop
  endfacet
  facet normal -0 0 1
    outer loop
      vertex -0.627171 5.96713 5
      vertex -0.261321 2.4863 5
      vertex 0.627171 5.96713 5
    endloop
  endfacet
  facet normal 0 0 1
    outer loop
      vertex -0.627171 5.96713 5
      vertex -0.772542 2.37764 5
      vertex -0.261321 2.4863 5
    endloop
  endfacet
  facet normal -0 0 1
    outer loop
      vertex -1.8541 5.70634 5
      vertex -0.772542 2.37764 5
      vertex -0.627171 5.96713 5
    endloop
  endfacet
  facet normal 0 0 1
    outer loop
      vertex -0.772542 2.37764 5
      vertex -1.8541 5.70634 5
      vertex -1.25 2.16506 5
    endloop
  endfacet
  facet normal -0 0 1
    outer loop
      vertex -3 5.19615 5
      vertex -1.25 2.16506 5
      vertex -1.8541 5.70634 5
    endloop
  endfacet
  facet normal 0 0 1
    outer loop
      vertex -1.25 2.16506 5
      vertex -3 5.19615 5
      vertex -1.67283 1.85786 5
    endloop
  endfacet
  facet normal -0 0 1
    outer loop
      vertex -4.01478 4.45887 5
      vertex -1.67283 1.85786 5
      vertex -3 5.19615 5
    endloop
  endfacet
  facet normal 0 0 1
    outer loop
      vertex -1.67283 1.85786 5
      vertex -4.01478 4.45887 5
      vertex -2.02254 1.46946 5
    endloop
  endfacet
  facet normal 0 0 1
    outer loop
      vertex -2.02254 1.46946 5
      vertex -4.8541 3.52671 5
      vertex -2.28386 1.01684 5
    endloop
  endfacet
  facet normal -0 0 1
    outer loop
      vertex -4.8541 3.52671 5
      vertex -2.02254 1.46946 5
      vertex -4.01478 4.45887 5
    endloop
  endfacet
  facet normal -0 0 1
    outer loop
      vertex 2.02254 -1.46946 5
      vertex 4.8541 -3.52671 5
      vertex 2.28386 -1.01684 5
    endloop
  endfacet
  facet normal 0 0 1
    outer loop
      vertex 4.8541 -3.52671 5
      vertex 2.02254 -1.46946 5
      vertex 4.01478 -4.45887 5
    endloop
  endfacet
  facet normal -0 0 1
    outer loop
      vertex 1.67283 -1.85786 5
      vertex 4.01478 -4.45887 5
      vertex 2.02254 -1.46946 5
    endloop
  endfacet
  facet normal 0 0 1
    outer loop
      vertex 4.01478 -4.45887 5
      vertex 1.67283 -1.85786 5
      vertex 3 -5.19615 5
    endloop
  endfacet
  facet normal -0 0 1
    outer loop
      vertex 1.25 -2.16506 5
      vertex 3 -5.19615 5
      vertex 1.67283 -1.85786 5
    endloop
  endfacet
  facet normal 0 0 1
    outer loop
      vertex 3 -5.19615 5
      vertex 1.25 -2.16506 5
      vertex 1.8541 -5.70634 5
    endloop
  endfacet
  facet normal -0 0 1
    outer loop
      vertex 0.772542 -2.37764 5
      vertex 1.8541 -5.70634 5
      vertex 1.25 -2.16506 5
    endloop
  endfacet
  facet normal 0 0 1
    outer loop
      vertex 0.772542 -2.37764 5
      vertex 0.627171 -5.96713 5
      vertex 1.8541 -5.70634 5
    endloop
  endfacet
  facet normal -0 0 1
    outer loop
      vertex 0.261321 -2.4863 5
      vertex 0.627171 -5.96713 5
      vertex 0.772542 -2.37764 5
    endloop
  endfacet
  facet normal -0 0 1
    outer loop
      vertex -0.261321 -2.4863 5
      vertex 0.627171 -5.96713 5
      vertex 0.261321 -2.4863 5
    endloop
  endfacet
  facet normal 0 0 1
    outer loop
      vertex -0.261321 -2.4863 5
      vertex -0.627171 -5.96713 5
      vertex 0.627171 -5.96713 5
    endloop
  endfacet
  facet normal 0 0 1
    outer loop
      vertex -0.772542 -2.37764 5
      vertex -0.627171 -5.96713 5
      vertex -0.261321 -2.4863 5
    endloop
  endfacet
  facet normal 0 0 1
    outer loop
      vertex -1.8541 -5.70634 5
      vertex -0.772542 -2.37764 5
      vertex -1.25 -2.16506 5
    endloop
  endfacet
  facet normal 0 0 1
    outer loop
      vertex -3 -5.19615 5
      vertex -1.25 -2.16506 5
      vertex -1.67283 -1.85786 5
    endloop
  endfacet
  facet normal 0 0 1
    outer loop
      vertex -0.772542 -2.37764 5
      vertex -1.8541 -5.70634 5
      vertex -0.627171 -5.96713 5
    endloop
  endfacet
  facet normal 0 0 1
    outer loop
      vertex -4.01478 -4.45887 5
      vertex -1.67283 -1.85786 5
      vertex -2.02254 -1.46946 5
    endloop
  endfacet
  facet normal 0 0 1
    outer loop
      vertex -4.8541 -3.52671 5
      vertex -2.02254 -1.46946 5
      vertex -2.28386 -1.01684 5
    endloop
  endfacet
  facet normal 0 0 1
    outer loop
      vertex -5.48127 -2.44042 5
      vertex -2.28386 -1.01684 5
      vertex -2.44537 -0.519779 5
    endloop
  endfacet
  facet normal 0 0 1
    outer loop
      vertex -1.25 -2.16506 5
      vertex -3 -5.19615 5
      vertex -1.8541 -5.70634 5
    endloop
  endfacet
  facet normal 0 0 1
    outer loop
      vertex -5.86889 -1.24747 5
      vertex -2.44537 -0.519779 5
      vertex -2.5 0 5
    endloop
  endfacet
  facet normal -0 0 1
    outer loop
      vertex -5.48127 2.44042 5
      vertex -2.28386 1.01684 5
      vertex -4.8541 3.52671 5
    endloop
  endfacet
  facet normal 0 0 1
    outer loop
      vertex -2.28386 1.01684 5
      vertex -5.48127 2.44042 5
      vertex -2.44537 0.519779 5
    endloop
  endfacet
  facet normal 0 0 1
    outer loop
      vertex -1.67283 -1.85786 5
      vertex -4.01478 -4.45887 5
      vertex -3 -5.19615 5
    endloop
  endfacet
  facet normal -0 0 1
    outer loop
      vertex -5.86889 1.24747 5
      vertex -2.44537 0.519779 5
      vertex -5.48127 2.44042 5
    endloop
  endfacet
  facet normal 0 0 1
    outer loop
      vertex -2.02254 -1.46946 5
      vertex -4.8541 -3.52671 5
      vertex -4.01478 -4.45887 5
    endloop
  endfacet
  facet normal 0 0 1
    outer loop
      vertex -2.44537 0.519779 5
      vertex -5.86889 1.24747 5
      vertex -2.5 0 5
    endloop
  endfacet
  facet normal 0 0 1
    outer loop
      vertex -2.28386 -1.01684 5
      vertex -5.48127 -2.44042 5
      vertex -4.8541 -3.52671 5
    endloop
  endfacet
  facet normal 0 0 1
    outer loop
      vertex -6 0 5
      vertex -2.5 0 5
      vertex -5.86889 1.24747 5
    endloop
  endfacet
  facet normal 0 0 1
    outer loop
      vertex -2.44537 -0.519779 5
      vertex -5.86889 -1.24747 5
      vertex -5.48127 -2.44042 5
    endloop
  endfacet
  facet normal 0 0 1
    outer loop
      vertex -2.5 0 5
      vertex -6 0 5
      vertex -5.86889 -1.24747 5
    endloop
  endfacet
  facet normal -0.587785 0.809017 0
    outer loop
      vertex -3 5.19615 0
      vertex -4.01478 4.45887 5
      vertex -3 5.19615 5
    endloop
  endfacet
  facet normal -0.587785 0.809017 0
    outer loop
      vertex -4.01478 4.45887 5
      vertex -3 5.19615 0
      vertex -4.01478 4.45887 0
    endloop
  endfacet
  facet normal -0.207911 0.978148 0
    outer loop
      vertex -0.627171 5.96713 0
      vertex -1.8541 5.70634 5
      vertex -0.627171 5.96713 5
    endloop
  endfacet
  facet normal -0.207911 0.978148 0
    outer loop
      vertex -1.8541 5.70634 5
      vertex -0.627171 5.96713 0
      vertex -1.8541 5.70634 0
    endloop
  endfacet
  facet normal 0.994522 -0.104529 0
    outer loop
      vertex 5.86889 -1.24747 5
      vertex 6 0 0
      vertex 6 0 5
    endloop
  endfacet
  facet normal 0.994522 -0.104529 0
    outer loop
      vertex 6 0 0
      vertex 5.86889 -1.24747 5
      vertex 5.86889 -1.24747 0
    endloop
  endfacet
  facet normal 0 0 -1
    outer loop
      vertex 2.5 0 0
      vertex 6 0 0
      vertex 5.86889 -1.24747 0
    endloop
  endfacet
  facet normal 0 0 -1
    outer loop
      vertex 2.44537 -0.519779 0
      vertex 5.86889 -1.24747 0
      vertex 5.48127 -2.44042 0
    endloop
  endfacet
  facet normal 0 0 -1
    outer loop
      vertex 6 0 0
      vertex 2.5 0 0
      vertex 5.86889 1.24747 0
    endloop
  endfacet
  facet normal 0 0 -1
    outer loop
      vertex 2.28386 -1.01684 0
      vertex 5.48127 -2.44042 0
      vertex 4.8541 -3.52671 0
    endloop
  endfacet
  facet normal 0 0 -1
    outer loop
      vertex 2.44537 0.519779 0
      vertex 5.86889 1.24747 0
      vertex 2.5 0 0
    endloop
  endfacet
  facet normal 0 0 -1
    outer loop
      vertex 2.02254 -1.46946 0
      vertex 4.8541 -3.52671 0
      vertex 4.01478 -4.45887 0
    endloop
  endfacet
  facet normal -0 0 -1
    outer loop
      vertex 5.86889 1.24747 0
      vertex 2.44537 0.519779 0
      vertex 5.48127 2.44042 0
    endloop
  endfacet
  facet normal 0 0 -1
    outer loop
      vertex 1.67283 -1.85786 0
      vertex 4.01478 -4.45887 0
      vertex 3 -5.19615 0
    endloop
  endfacet
  facet normal 0 0 -1
    outer loop
      vertex 2.28386 1.01684 0
      vertex 5.48127 2.44042 0
      vertex 2.44537 0.519779 0
    endloop
  endfacet
  facet normal -0 0 -1
    outer loop
      vertex 5.48127 2.44042 0
      vertex 2.28386 1.01684 0
      vertex 4.8541 3.52671 0
    endloop
  endfacet
  facet normal 0 0 -1
    outer loop
      vertex 5.86889 -1.24747 0
      vertex 2.44537 -0.519779 0
      vertex 2.5 0 0
    endloop
  endfacet
  facet normal 0 0 -1
    outer loop
      vertex 5.48127 -2.44042 0
      vertex 2.28386 -1.01684 0
      vertex 2.44537 -0.519779 0
    endloop
  endfacet
  facet normal 0 0 -1
    outer loop
      vertex 4.8541 -3.52671 0
      vertex 2.02254 -1.46946 0
      vertex 2.28386 -1.01684 0
    endloop
  endfacet
  facet normal 0 0 -1
    outer loop
      vertex 1.25 -2.16506 0
      vertex 3 -5.19615 0
      vertex 1.8541 -5.70634 0
    endloop
  endfacet
  facet normal 0 0 -1
    outer loop
      vertex 4.01478 -4.45887 0
      vertex 1.67283 -1.85786 0
      vertex 2.02254 -1.46946 0
    endloop
  endfacet
  facet normal 0 0 -1
    outer loop
      vertex 3 -5.19615 0
      vertex 1.25 -2.16506 0
      vertex 1.67283 -1.85786 0
    endloop
  endfacet
  facet normal 0 0 -1
    outer loop
      vertex 1.8541 -5.70634 0
      vertex 0.772542 -2.37764 0
      vertex 1.25 -2.16506 0
    endloop
  endfacet
  facet normal 0 0 -1
    outer loop
      vertex 0.627171 -5.96713 0
      vertex 0.772542 -2.37764 0
      vertex 1.8541 -5.70634 0
    endloop
  endfacet
  facet normal 0 0 -1
    outer loop
      vertex 0.627171 -5.96713 0
      vertex 0.261321 -2.4863 0
      vertex 0.772542 -2.37764 0
    endloop
  endfacet
  facet normal 0 0 -1
    outer loop
      vertex 0.627171 -5.96713 0
      vertex -0.261321 -2.4863 0
      vertex 0.261321 -2.4863 0
    endloop
  endfacet
  facet normal 0 0 -1
    outer loop
      vertex -0.627171 -5.96713 0
      vertex -0.261321 -2.4863 0
      vertex 0.627171 -5.96713 0
    endloop
  endfacet
  facet normal 0 0 -1
    outer loop
      vertex -0.627171 -5.96713 0
      vertex -0.772542 -2.37764 0
      vertex -0.261321 -2.4863 0
    endloop
  endfacet
  facet normal 0 0 -1
    outer loop
      vertex -1.8541 -5.70634 0
      vertex -0.772542 -2.37764 0
      vertex -0.627171 -5.96713 0
    endloop
  endfacet
  facet normal -0 0 -1
    outer loop
      vertex -0.772542 -2.37764 0
      vertex -1.8541 -5.70634 0
      vertex -1.25 -2.16506 0
    endloop
  endfacet
  facet normal 0 0 -1
    outer loop
      vertex -3 -5.19615 0
      vertex -1.25 -2.16506 0
      vertex -1.8541 -5.70634 0
    endloop
  endfacet
  facet normal -0 0 -1
    outer loop
      vertex -1.25 -2.16506 0
      vertex -3 -5.19615 0
      vertex -1.67283 -1.85786 0
    endloop
  endfacet
  facet normal 0 0 -1
    outer loop
      vertex -4.01478 -4.45887 0
      vertex -1.67283 -1.85786 0
      vertex -3 -5.19615 0
    endloop
  endfacet
  facet normal -0 0 -1
    outer loop
      vertex -1.67283 -1.85786 0
      vertex -4.01478 -4.45887 0
      vertex -2.02254 -1.46946 0
    endloop
  endfacet
  facet normal 0 0 -1
    outer loop
      vertex -4.8541 -3.52671 0
      vertex -2.02254 -1.46946 0
      vertex -4.01478 -4.45887 0
    endloop
  endfacet
  facet normal -0 0 -1
    outer loop
      vertex -2.02254 -1.46946 0
      vertex -4.8541 -3.52671 0
      vertex -2.28386 -1.01684 0
    endloop
  endfacet
  facet normal 0 0 -1
    outer loop
      vertex -5.48127 -2.44042 0
      vertex -2.28386 -1.01684 0
      vertex -4.8541 -3.52671 0
    endloop
  endfacet
  facet normal -0 0 -1
    outer loop
      vertex -2.28386 -1.01684 0
      vertex -5.48127 -2.44042 0
      vertex -2.44537 -0.519779 0
    endloop
  endfacet
  facet normal 0 0 -1
    outer loop
      vertex -2.5 0 0
      vertex -4.01478 4.45887 0
      vertex -3 5.19615 0
    endloop
  endfacet
  facet normal 0 0 -1
    outer loop
      vertex -5.86889 -1.24747 0
      vertex -2.44537 -0.519779 0
      vertex -5.48127 -2.44042 0
    endloop
  endfacet
  facet normal 0 0 -1
    outer loop
      vertex -2.5 0 0
      vertex -4.8541 3.52671 0
      vertex -4.01478 4.45887 0
    endloop
  endfacet
  facet normal -0 0 -1
    outer loop
      vertex -2.44537 -0.519779 0
      vertex -5.86889 -1.24747 0
      vertex -2.5 0 0
    endloop
  endfacet
  facet normal 0 0 -1
    outer loop
      vertex -2.5 0 0
      vertex -5.48127 2.44042 0
      vertex -4.8541 3.52671 0
    endloop
  endfacet
  facet normal 0 0 -1
    outer loop
      vertex -6 0 0
      vertex -2.5 0 0
      vertex -5.86889 -1.24747 0
    endloop
  endfacet
  facet normal 0 0 -1
    outer loop
      vertex -2.5 0 0
      vertex -5.86889 1.24747 0
      vertex -5.48127 2.44042 0
    endloop
  endfacet
  facet normal 0 0 -1
    outer loop
      vertex -2.5 0 0
      vertex -6 0 0
      vertex -5.86889 1.24747 0
    endloop
  endfacet
  facet normal 0 0 -1
    outer loop
      vertex 2.02254 1.46946 0
      vertex 4.8541 3.52671 0
      vertex 2.28386 1.01684 0
    endloop
  endfacet
  facet normal -0 0 -1
    outer loop
      vertex 4.8541 3.52671 0
      vertex 2.02254 1.46946 0
      vertex 4.01478 4.45887 0
    endloop
  endfacet
  facet normal 0 0 -1
    outer loop
      vertex 1.67283 1.85786 0
      vertex 4.01478 4.45887 0
      vertex 2.02254 1.46946 0
    endloop
  endfacet
  facet normal -0 0 -1
    outer loop
      vertex 4.01478 4.45887 0
      vertex 1.67283 1.85786 0
      vertex 3 5.19615 0
    endloop
  endfacet
  facet normal 0 0 -1
    outer loop
      vertex 1.25 2.16506 0
      vertex 3 5.19615 0
      vertex 1.67283 1.85786 0
    endloop
  endfacet
  facet normal -0 0 -1
    outer loop
      vertex 3 5.19615 0
      vertex 1.25 2.16506 0
      vertex 1.8541 5.70634 0
    endloop
  endfacet
  facet normal 0 0 -1
    outer loop
      vertex 0.772542 2.37764 0
      vertex 1.8541 5.70634 0
      vertex 1.25 2.16506 0
    endloop
  endfacet
  facet normal 0 0 -1
    outer loop
      vertex 0.772542 2.37764 0
      vertex 0.627171 5.96713 0
      vertex 1.8541 5.70634 0
    endloop
  endfacet
  facet normal 0 0 -1
    outer loop
      vertex 0.261321 2.4863 0
      vertex 0.627171 5.96713 0
      vertex 0.772542 2.37764 0
    endloop
  endfacet
  facet normal 0 0 -1
    outer loop
      vertex -0.261321 2.4863 0
      vertex 0.627171 5.96713 0
      vertex 0.261321 2.4863 0
    endloop
  endfacet
  facet normal 0 0 -1
    outer loop
      vertex -0.261321 2.4863 0
      vertex -0.627171 5.96713 0
      vertex 0.627171 5.96713 0
    endloop
  endfacet
  facet normal 0 0 -1
    outer loop
      vertex -0.772542 2.37764 0
      vertex -0.627171 5.96713 0
      vertex -0.261321 2.4863 0
    endloop
  endfacet
  facet normal 0 0 -1
    outer loop
      vertex -1.8541 5.70634 0
      vertex -0.772542 2.37764 0
      vertex -1.25 2.16506 0
    endloop
  endfacet
  facet normal 0 0 -1
    outer loop
      vertex -3 5.19615 0
      vertex -1.25 2.16506 0
      vertex -1.67283 1.85786 0
    endloop
  endfacet
  facet normal 0 0 -1
    outer loop
      vertex -0.772542 2.37764 0
      vertex -1.8541 5.70634 0
      vertex -0.627171 5.96713 0
    endloop
  endfacet
  facet normal 0 0 -1
    outer loop
      vertex -3 5.19615 0
      vertex -1.67283 1.85786 0
      vertex -2.02254 1.46946 0
    endloop
  endfacet
  facet normal 0 0 -1
    outer loop
      vertex -3 5.19615 0
      vertex -2.02254 1.46946 0
      vertex -2.28386 1.01684 0
    endloop
  endfacet
  facet normal 0 0 -1
    outer loop
      vertex -3 5.19615 0
      vertex -2.28386 1.01684 0
      vertex -2.44537 0.519779 0
    endloop
  endfacet
  facet normal 0 0 -1
    outer loop
      vertex -1.25 2.16506 0
      vertex -3 5.19615 0
      vertex -1.8541 5.70634 0
    endloop
  endfacet
  facet normal 0 0 -1
    outer loop
      vertex -3 5.19615 0
      vertex -2.44537 0.519779 0
      vertex -2.5 0 0
    endloop
  endfacet
  facet normal 0.207911 -0.978148 0
    outer loop
      vertex 0.627171 -5.96713 0
      vertex 1.8541 -5.70634 5
      vertex 0.627171 -5.96713 5
    endloop
  endfacet
  facet normal 0.207911 -0.978148 0
    outer loop
      vertex 1.8541 -5.70634 5
      vertex 0.627171 -5.96713 0
      vertex 1.8541 -5.70634 0
    endloop
  endfacet
  facet normal 0.866025 -0.5 0
    outer loop
      vertex 4.8541 -3.52671 5
      vertex 5.48127 -2.44042 0
      vertex 5.48127 -2.44042 5
    endloop
  endfacet
  facet normal 0.866025 -0.5 0
    outer loop
      vertex 5.48127 -2.44042 0
      vertex 4.8541 -3.52671 5
      vertex 4.8541 -3.52671 0
    endloop
  endfacet
  facet normal -0.866025 -0.5 0
    outer loop
      vertex -4.8541 -3.52671 0
      vertex -5.48127 -2.44042 5
      vertex -5.48127 -2.44042 0
    endloop
  endfacet
  facet normal -0.866025 -0.5 0
    outer loop
      vertex -5.48127 -2.44042 5
      vertex -4.8541 -3.52671 0
      vertex -4.8541 -3.52671 5
    endloop
  endfacet
  facet normal 0.587786 -0.809017 0
    outer loop
      vertex 3 -5.19615 0
      vertex 4.01478 -4.45887 5
      vertex 3 -5.19615 5
    endloop
  endfacet
  facet normal 0.587786 -0.809017 0
    outer loop
      vertex 4.01478 -4.45887 5
      vertex 3 -5.19615 0
      vertex 4.01478 -4.45887 0
    endloop
  endfacet
  facet normal 0.406737 -0.913545 0
    outer loop
      vertex 1.8541 -5.70634 0
      vertex 3 -5.19615 5
      vertex 1.8541 -5.70634 5
    endloop
  endfacet
  facet normal 0.406737 -0.913545 0
    outer loop
      vertex 3 -5.19615 5
      vertex 1.8541 -5.70634 0
      vertex 3 -5.19615 0
    endloop
  endfacet
  facet normal -0.207911 -0.978148 0
    outer loop
      vertex -1.8541 -5.70634 0
      vertex -0.627171 -5.96713 5
      vertex -1.8541 -5.70634 5
    endloop
  endfacet
  facet normal -0.207911 -0.978148 -0
    outer loop
      vertex -0.627171 -5.96713 5
      vertex -1.8541 -5.70634 0
      vertex -0.627171 -5.96713 0
    endloop
  endfacet
  facet normal -0.743145 -0.669131 0
    outer loop
      vertex -4.01478 -4.45887 0
      vertex -4.8541 -3.52671 5
      vertex -4.8541 -3.52671 0
    endloop
  endfacet
  facet normal -0.743145 -0.669131 0
    outer loop
      vertex -4.8541 -3.52671 5
      vertex -4.01478 -4.45887 0
      vertex -4.01478 -4.45887 5
    endloop
  endfacet
  facet normal -0.951057 -0.309017 0
    outer loop
      vertex -5.48127 -2.44042 0
      vertex -5.86889 -1.24747 5
      vertex -5.86889 -1.24747 0
    endloop
  endfacet
  facet normal -0.951057 -0.309017 0
    outer loop
      vertex -5.86889 -1.24747 5
      vertex -5.48127 -2.44042 0
      vertex -5.48127 -2.44042 5
    endloop
  endfacet
  facet normal -0.994522 -0.104529 0
    outer loop
      vertex -5.86889 -1.24747 0
      vertex -6 0 5
      vertex -6 0 0
    endloop
  endfacet
  facet normal -0.994522 -0.104529 0
    outer loop
      vertex -6 0 5
      vertex -5.86889 -1.24747 0
      vertex -5.86889 -1.24747 5
    endloop
  endfacet
  facet normal 0.743145 -0.669131 0
    outer loop
      vertex 4.01478 -4.45887 5
      vertex 4.8541 -3.52671 0
      vertex 4.8541 -3.52671 5
    endloop
  endfacet
  facet normal 0.743145 -0.669131 0
    outer loop
      vertex 4.8541 -3.52671 0
      vertex 4.01478 -4.45887 5
      vertex 4.01478 -4.45887 0
    endloop
  endfacet
  facet normal -0.406737 -0.913545 0
    outer loop
      vertex -3 -5.19615 0
      vertex -1.8541 -5.70634 5
      vertex -3 -5.19615 5
    endloop
  endfacet
  facet normal -0.406737 -0.913545 -0
    outer loop
      vertex -1.8541 -5.70634 5
      vertex -3 -5.19615 0
      vertex -1.8541 -5.70634 0
    endloop
  endfacet
  facet normal -0.587786 -0.809017 0
    outer loop
      vertex -4.01478 -4.45887 0
      vertex -3 -5.19615 5
      vertex -4.01478 -4.45887 5
    endloop
  endfacet
  facet normal -0.587786 -0.809017 -0
    outer loop
      vertex -3 -5.19615 5
      vertex -4.01478 -4.45887 0
      vertex -3 -5.19615 0
    endloop
  endfacet
  facet normal -0.994522 -0.104529 0
    outer loop
      vertex 2.5 0 0
      vertex 2.44537 0.519779 5
      vertex 2.44537 0.519779 0
    endloop
  endfacet
  facet normal -0.994522 -0.104529 0
    outer loop
      vertex 2.44537 0.519779 5
      vertex 2.5 0 0
      vertex 2.5 0 5
    endloop
  endfacet
  facet normal 0.994522 -0.104529 0
    outer loop
      vertex -2.5 0 5
      vertex -2.44537 0.519779 0
      vertex -2.44537 0.519779 5
    endloop
  endfacet
  facet normal 0.994522 -0.104529 0
    outer loop
      vertex -2.44537 0.519779 0
      vertex -2.5 0 5
      vertex -2.5 0 0
    endloop
  endfacet
  facet normal 0 -1 0
    outer loop
      vertex -0.261321 2.4863 0
      vertex 0.261321 2.4863 5
      vertex -0.261321 2.4863 5
    endloop
  endfacet
  facet normal 0 -1 -0
    outer loop
      vertex 0.261321 2.4863 5
      vertex -0.261321 2.4863 0
      vertex 0.261321 2.4863 0
    endloop
  endfacet
  facet normal 0 1 -0
    outer loop
      vertex 0.261321 -2.4863 0
      vertex -0.261321 -2.4863 5
      vertex 0.261321 -2.4863 5
    endloop
  endfacet
  facet normal 0 1 0
    outer loop
      vertex -0.261321 -2.4863 5
      vertex 0.261321 -2.4863 0
      vertex -0.261321 -2.4863 0
    endloop
  endfacet
  facet normal -0.587786 -0.809017 0
    outer loop
      vertex 1.25 2.16506 0
      vertex 1.67283 1.85786 5
      vertex 1.25 2.16506 5
    endloop
  endfacet
  facet normal -0.587786 -0.809017 -0
    outer loop
      vertex 1.67283 1.85786 5
      vertex 1.25 2.16506 0
      vertex 1.67283 1.85786 0
    endloop
  endfacet
  facet normal 0.587785 -0.809017 0
    outer loop
      vertex -1.67283 1.85786 0
      vertex -1.25 2.16506 5
      vertex -1.67283 1.85786 5
    endloop
  endfacet
  facet normal 0.587785 -0.809017 0
    outer loop
      vertex -1.25 2.16506 5
      vertex -1.67283 1.85786 0
      vertex -1.25 2.16506 0
    endloop
  endfacet
  facet normal 0.207912 -0.978148 0
    outer loop
      vertex -0.772542 2.37764 0
      vertex -0.261321 2.4863 5
      vertex -0.772542 2.37764 5
    endloop
  endfacet
  facet normal 0.207912 -0.978148 0
    outer loop
      vertex -0.261321 2.4863 5
      vertex -0.772542 2.37764 0
      vertex -0.261321 2.4863 0
    endloop
  endfacet
  facet normal -0.866025 -0.5 0
    outer loop
      vertex 2.28386 1.01684 0
      vertex 2.02254 1.46946 5
      vertex 2.02254 1.46946 0
    endloop
  endfacet
  facet normal -0.866025 -0.5 0
    outer loop
      vertex 2.02254 1.46946 5
      vertex 2.28386 1.01684 0
      vertex 2.28386 1.01684 5
    endloop
  endfacet
  facet normal -0.951056 -0.309018 0
    outer loop
      vertex 2.44537 0.519779 0
      vertex 2.28386 1.01684 5
      vertex 2.28386 1.01684 0
    endloop
  endfacet
  facet normal -0.951056 -0.309018 0
    outer loop
      vertex 2.28386 1.01684 5
      vertex 2.44537 0.519779 0
      vertex 2.44537 0.519779 5
    endloop
  endfacet
  facet normal -0.743145 -0.669131 0
    outer loop
      vertex 2.02254 1.46946 0
      vertex 1.67283 1.85786 5
      vertex 1.67283 1.85786 0
    endloop
  endfacet
  facet normal -0.743145 -0.669131 0
    outer loop
      vertex 1.67283 1.85786 5
      vertex 2.02254 1.46946 0
      vertex 2.02254 1.46946 5
    endloop
  endfacet
  facet normal -0.207912 -0.978148 0
    outer loop
      vertex 0.261321 2.4863 0
      vertex 0.772542 2.37764 5
      vertex 0.261321 2.4863 5
    endloop
  endfacet
  facet normal -0.207912 -0.978148 -0
    outer loop
      vertex 0.772542 2.37764 5
      vertex 0.261321 2.4863 0
      vertex 0.772542 2.37764 0
    endloop
  endfacet
  facet normal -0.406736 -0.913546 0
    outer loop
      vertex 0.772542 2.37764 0
      vertex 1.25 2.16506 5
      vertex 0.772542 2.37764 5
    endloop
  endfacet
  facet normal -0.406736 -0.913546 -0
    outer loop
      vertex 1.25 2.16506 5
      vertex 0.772542 2.37764 0
      vertex 1.25 2.16506 0
    endloop
  endfacet
  facet normal 0.866025 -0.5 0
    outer loop
      vertex -2.28386 1.01684 5
      vertex -2.02254 1.46946 0
      vertex -2.02254 1.46946 5
    endloop
  endfacet
  facet normal 0.866025 -0.5 0
    outer loop
      vertex -2.02254 1.46946 0
      vertex -2.28386 1.01684 5
      vertex -2.28386 1.01684 0
    endloop
  endfacet
  facet normal 0.743145 -0.669131 0
    outer loop
      vertex -2.02254 1.46946 5
      vertex -1.67283 1.85786 0
      vertex -1.67283 1.85786 5
    endloop
  endfacet
  facet normal 0.743145 -0.669131 0
    outer loop
      vertex -1.67283 1.85786 0
      vertex -2.02254 1.46946 5
      vertex -2.02254 1.46946 0
    endloop
  endfacet
  facet normal 0.951056 -0.309018 0
    outer loop
      vertex -2.44537 0.519779 5
      vertex -2.28386 1.01684 0
      vertex -2.28386 1.01684 5
    endloop
  endfacet
  facet normal 0.951056 -0.309018 0
    outer loop
      vertex -2.28386 1.01684 0
      vertex -2.44537 0.519779 5
      vertex -2.44537 0.519779 0
    endloop
  endfacet
  facet normal 0.406737 -0.913545 0
    outer loop
      vertex -1.25 2.16506 0
      vertex -0.772542 2.37764 5
      vertex -1.25 2.16506 5
    endloop
  endfacet
  facet normal 0.406737 -0.913545 0
    outer loop
      vertex -0.772542 2.37764 5
      vertex -1.25 2.16506 0
      vertex -0.772542 2.37764 0
    endloop
  endfacet
  facet normal -0.994522 0.104529 0
    outer loop
      vertex 2.44537 -0.519779 0
      vertex 2.5 0 5
      vertex 2.5 0 0
    endloop
  endfacet
  facet normal -0.994522 0.104529 0
    outer loop
      vertex 2.5 0 5
      vertex 2.44537 -0.519779 0
      vertex 2.44537 -0.519779 5
    endloop
  endfacet
  facet normal -0.743145 0.669131 0
    outer loop
      vertex 1.67283 -1.85786 0
      vertex 2.02254 -1.46946 5
      vertex 2.02254 -1.46946 0
    endloop
  endfacet
  facet normal -0.743145 0.669131 0
    outer loop
      vertex 2.02254 -1.46946 5
      vertex 1.67283 -1.85786 0
      vertex 1.67283 -1.85786 5
    endloop
  endfacet
  facet normal -0.951056 0.309018 0
    outer loop
      vertex 2.28386 -1.01684 0
      vertex 2.44537 -0.519779 5
      vertex 2.44537 -0.519779 0
    endloop
  endfacet
  facet normal -0.951056 0.309018 0
    outer loop
      vertex 2.44537 -0.519779 5
      vertex 2.28386 -1.01684 0
      vertex 2.28386 -1.01684 5
    endloop
  endfacet
  facet normal -0.866025 0.5 0
    outer loop
      vertex 2.02254 -1.46946 0
      vertex 2.28386 -1.01684 5
      vertex 2.28386 -1.01684 0
    endloop
  endfacet
  facet normal -0.866025 0.5 0
    outer loop
      vertex 2.28386 -1.01684 5
      vertex 2.02254 -1.46946 0
      vertex 2.02254 -1.46946 5
    endloop
  endfacet
  facet normal 0.587786 0.809017 -0
    outer loop
      vertex -1.25 -2.16506 0
      vertex -1.67283 -1.85786 5
      vertex -1.25 -2.16506 5
    endloop
  endfacet
  facet normal 0.587786 0.809017 0
    outer loop
      vertex -1.67283 -1.85786 5
      vertex -1.25 -2.16506 0
      vertex -1.67283 -1.85786 0
    endloop
  endfacet
  facet normal 0.866025 0.5 0
    outer loop
      vertex -2.02254 -1.46946 5
      vertex -2.28386 -1.01684 0
      vertex -2.28386 -1.01684 5
    endloop
  endfacet
  facet normal 0.866025 0.5 0
    outer loop
      vertex -2.28386 -1.01684 0
      vertex -2.02254 -1.46946 5
      vertex -2.02254 -1.46946 0
    endloop
  endfacet
  facet normal 0.994522 0.104529 0
    outer loop
      vertex -2.44537 -0.519779 5
      vertex -2.5 0 0
      vertex -2.5 0 5
    endloop
  endfacet
  facet normal 0.994522 0.104529 0
    outer loop
      vertex -2.5 0 0
      vertex -2.44537 -0.519779 5
      vertex -2.44537 -0.519779 0
    endloop
  endfacet
  facet normal -0.207912 0.978148 0
    outer loop
      vertex 0.772542 -2.37764 0
      vertex 0.261321 -2.4863 5
      vertex 0.772542 -2.37764 5
    endloop
  endfacet
  facet normal -0.207912 0.978148 0
    outer loop
      vertex 0.261321 -2.4863 5
      vertex 0.772542 -2.37764 0
      vertex 0.261321 -2.4863 0
    endloop
  endfacet
  facet normal -0.587786 0.809017 0
    outer loop
      vertex 1.67283 -1.85786 0
      vertex 1.25 -2.16506 5
      vertex 1.67283 -1.85786 5
    endloop
  endfacet
  facet normal -0.587786 0.809017 0
    outer loop
      vertex 1.25 -2.16506 5
      vertex 1.67283 -1.85786 0
      vertex 1.25 -2.16506 0
    endloop
  endfacet
  facet normal 0.406736 0.913546 -0
    outer loop
      vertex -0.772542 -2.37764 0
      vertex -1.25 -2.16506 5
      vertex -0.772542 -2.37764 5
    endloop
  endfacet
  facet normal 0.406736 0.913546 0
    outer loop
      vertex -1.25 -2.16506 5
      vertex -0.772542 -2.37764 0
      vertex -1.25 -2.16506 0
    endloop
  endfacet
  facet normal 0.743145 0.669131 0
    outer loop
      vertex -1.67283 -1.85786 5
      vertex -2.02254 -1.46946 0
      vertex -2.02254 -1.46946 5
    endloop
  endfacet
  facet normal 0.743145 0.669131 0
    outer loop
      vertex -2.02254 -1.46946 0
      vertex -1.67283 -1.85786 5
      vertex -1.67283 -1.85786 0
    endloop
  endfacet
  facet normal 0.951056 0.309018 0
    outer loop
      vertex -2.28386 -1.01684 5
      vertex -2.44537 -0.519779 0
      vertex -2.44537 -0.519779 5
    endloop
  endfacet
  facet normal 0.951056 0.309018 0
    outer loop
      vertex -2.44537 -0.519779 0
      vertex -2.28386 -1.01684 5
      vertex -2.28386 -1.01684 0
    endloop
  endfacet
  facet normal -0.406736 0.913546 0
    outer loop
      vertex 1.25 -2.16506 0
      vertex 0.772542 -2.37764 5
      vertex 1.25 -2.16506 5
    endloop
  endfacet
  facet normal -0.406736 0.913546 0
    outer loop
      vertex 0.772542 -2.37764 5
      vertex 1.25 -2.16506 0
      vertex 0.772542 -2.37764 0
    endloop
  endfacet
  facet normal 0.207912 0.978148 -0
    outer loop
      vertex -0.261321 -2.4863 0
      vertex -0.772542 -2.37764 5
      vertex -0.261321 -2.4863 5
    endloop
  endfacet
  facet normal 0.207912 0.978148 0
    outer loop
      vertex -0.772542 -2.37764 5
      vertex -0.261321 -2.4863 0
      vertex -0.772542 -2.37764 0
    endloop
  endfacet
endsolid OpenSCAD_Model
