solid OpenSCAD_Model
  facet normal -1 0 0
    outer loop
      vertex 84.5 4 -1
      vertex 84.5 8.54872e-015 10.5
      vertex 84.5 4 10.5
    endloop
  endfacet
  facet normal -1 0 -0
    outer loop
      vertex 84.5 8.54872e-015 10.5
      vertex 84.5 4 -1
      vertex 84.5 5.9952e-015 -1
    endloop
  endfacet
  facet normal 0 -1 2.22045e-016
    outer loop
      vertex 74.5 5.10703e-015 -5
      vertex 84.5 5.9952e-015 -1
      vertex 74.5 5.9952e-015 -1
    endloop
  endfacet
  facet normal 0 -1 2.22045e-016
    outer loop
      vertex 84.5 5.9952e-015 -1
      vertex 74.5 5.10703e-015 -5
      vertex 104.5 5.9952e-015 -1
    endloop
  endfacet
  facet normal 0 -1 2.22045e-016
    outer loop
      vertex 114.5 5.10703e-015 -5
      vertex 104.5 5.9952e-015 -1
      vertex 74.5 5.10703e-015 -5
    endloop
  endfacet
  facet normal 0 -1 2.22045e-016
    outer loop
      vertex 104.5 5.9952e-015 -1
      vertex 114.5 5.10703e-015 -5
      vertex 114.5 5.9952e-015 -1
    endloop
  endfacet
  facet normal 0 -1 2.22045e-016
    outer loop
      vertex 84.5 8.54872e-015 10.5
      vertex 94.1864 7.54587e-015 5.98357
      vertex 104.5 8.54872e-015 10.5
    endloop
  endfacet
  facet normal 4.81042e-022 -1 2.22046e-016
    outer loop
      vertex 84.5 8.54872e-015 10.5
      vertex 93.573 7.51691e-015 5.85317
      vertex 94.1864 7.54587e-015 5.98357
    endloop
  endfacet
  facet normal -2.0857e-022 -1 2.22044e-016
    outer loop
      vertex 84.5 8.54872e-015 10.5
      vertex 93 7.46027e-015 5.59808
      vertex 93.573 7.51691e-015 5.85317
    endloop
  endfacet
  facet normal -1.8468e-022 -1 2.22044e-016
    outer loop
      vertex 84.5 8.54872e-015 10.5
      vertex 92.4926 7.37842e-015 5.22943
      vertex 93 7.46027e-015 5.59808
    endloop
  endfacet
  facet normal 2.04612e-022 -1 2.22045e-016
    outer loop
      vertex 84.5 8.54872e-015 10.5
      vertex 92.073 7.27493e-015 4.76336
      vertex 92.4926 7.37842e-015 5.22943
    endloop
  endfacet
  facet normal 4.10942e-022 -1 2.22045e-016
    outer loop
      vertex 84.5 8.54872e-015 10.5
      vertex 91.7594 7.15432e-015 4.22021
      vertex 92.073 7.27493e-015 4.76336
    endloop
  endfacet
  facet normal -2.85271e-022 -1 2.22044e-016
    outer loop
      vertex 84.5 8.54872e-015 10.5
      vertex 91.5656 7.02188e-015 3.62373
      vertex 91.7594 7.15432e-015 4.22021
    endloop
  endfacet
  facet normal -2.99705e-023 -1 2.22045e-016
    outer loop
      vertex 84.5 5.9952e-015 -1
      vertex 91.5656 7.02188e-015 3.62373
      vertex 84.5 8.54872e-015 10.5
    endloop
  endfacet
  facet normal 2.06397e-022 -1 2.22044e-016
    outer loop
      vertex 91.5656 7.02188e-015 3.62373
      vertex 84.5 5.9952e-015 -1
      vertex 91.5 6.88338e-015 3
    endloop
  endfacet
  facet normal 0 -1 2.22045e-016
    outer loop
      vertex 91.5 6.88338e-015 3
      vertex 84.5 5.9952e-015 -1
      vertex 91.5656 6.74489e-015 2.37626
    endloop
  endfacet
  facet normal -1.46845e-022 -1 2.22045e-016
    outer loop
      vertex 91.5656 6.74489e-015 2.37626
      vertex 84.5 5.9952e-015 -1
      vertex 91.7594 6.61244e-015 1.77979
    endloop
  endfacet
  facet normal 0 -1 2.22045e-016
    outer loop
      vertex 94.1864 6.2209e-015 0.0164337
      vertex 84.5 5.9952e-015 -1
      vertex 94.8136 6.2209e-015 0.0164337
    endloop
  endfacet
  facet normal 0 -1 2.22045e-016
    outer loop
      vertex 93.573 6.24985e-015 0.14683
      vertex 84.5 5.9952e-015 -1
      vertex 94.1864 6.2209e-015 0.0164337
    endloop
  endfacet
  facet normal -8.17258e-023 -1 2.22045e-016
    outer loop
      vertex 93 6.30649e-015 0.401923
      vertex 84.5 5.9952e-015 -1
      vertex 93.573 6.24985e-015 0.14683
    endloop
  endfacet
  facet normal 9.7517e-023 -1 2.22044e-016
    outer loop
      vertex 92.4926 6.38835e-015 0.770565
      vertex 84.5 5.9952e-015 -1
      vertex 93 6.30649e-015 0.401923
    endloop
  endfacet
  facet normal -8.39109e-023 -1 2.22045e-016
    outer loop
      vertex 92.073 6.49184e-015 1.23664
      vertex 84.5 5.9952e-015 -1
      vertex 92.4926 6.38835e-015 0.770565
    endloop
  endfacet
  facet normal 2.20635e-022 -1 2.22044e-016
    outer loop
      vertex 91.7594 6.61244e-015 1.77979
      vertex 84.5 5.9952e-015 -1
      vertex 92.073 6.49184e-015 1.23664
    endloop
  endfacet
  facet normal 0 -1 2.22045e-016
    outer loop
      vertex 94.8136 7.54587e-015 5.98357
      vertex 104.5 8.54872e-015 10.5
      vertex 94.1864 7.54587e-015 5.98357
    endloop
  endfacet
  facet normal -4.81042e-022 -1 2.22046e-016
    outer loop
      vertex 95.427 7.51691e-015 5.85317
      vertex 104.5 8.54872e-015 10.5
      vertex 94.8136 7.54587e-015 5.98357
    endloop
  endfacet
  facet normal 2.0857e-022 -1 2.22044e-016
    outer loop
      vertex 96 7.46027e-015 5.59808
      vertex 104.5 8.54872e-015 10.5
      vertex 95.427 7.51691e-015 5.85317
    endloop
  endfacet
  facet normal 1.8468e-022 -1 2.22044e-016
    outer loop
      vertex 96.5074 7.37842e-015 5.22943
      vertex 104.5 8.54872e-015 10.5
      vertex 96 7.46027e-015 5.59808
    endloop
  endfacet
  facet normal -2.04612e-022 -1 2.22045e-016
    outer loop
      vertex 96.927 7.27493e-015 4.76336
      vertex 104.5 8.54872e-015 10.5
      vertex 96.5074 7.37842e-015 5.22943
    endloop
  endfacet
  facet normal -4.10942e-022 -1 2.22045e-016
    outer loop
      vertex 97.2406 7.15432e-015 4.22021
      vertex 104.5 8.54872e-015 10.5
      vertex 96.927 7.27493e-015 4.76336
    endloop
  endfacet
  facet normal 2.85271e-022 -1 2.22044e-016
    outer loop
      vertex 97.4344 7.02188e-015 3.62373
      vertex 104.5 8.54872e-015 10.5
      vertex 97.2406 7.15432e-015 4.22021
    endloop
  endfacet
  facet normal -2.06397e-022 -1 2.22044e-016
    outer loop
      vertex 104.5 5.9952e-015 -1
      vertex 97.4344 7.02188e-015 3.62373
      vertex 97.5 6.88338e-015 3
    endloop
  endfacet
  facet normal 0 -1 2.22045e-016
    outer loop
      vertex 104.5 5.9952e-015 -1
      vertex 97.5 6.88338e-015 3
      vertex 97.4344 6.74489e-015 2.37626
    endloop
  endfacet
  facet normal 1.46845e-022 -1 2.22045e-016
    outer loop
      vertex 104.5 5.9952e-015 -1
      vertex 97.4344 6.74489e-015 2.37626
      vertex 97.2406 6.61244e-015 1.77979
    endloop
  endfacet
  facet normal -2.20635e-022 -1 2.22044e-016
    outer loop
      vertex 104.5 5.9952e-015 -1
      vertex 97.2406 6.61244e-015 1.77979
      vertex 96.927 6.49184e-015 1.23664
    endloop
  endfacet
  facet normal 2.99705e-023 -1 2.22045e-016
    outer loop
      vertex 97.4344 7.02188e-015 3.62373
      vertex 104.5 5.9952e-015 -1
      vertex 104.5 8.54872e-015 10.5
    endloop
  endfacet
  facet normal 8.39109e-023 -1 2.22045e-016
    outer loop
      vertex 96.5074 6.38835e-015 0.770565
      vertex 104.5 5.9952e-015 -1
      vertex 96.927 6.49184e-015 1.23664
    endloop
  endfacet
  facet normal -9.7517e-023 -1 2.22044e-016
    outer loop
      vertex 96 6.30649e-015 0.401923
      vertex 104.5 5.9952e-015 -1
      vertex 96.5074 6.38835e-015 0.770565
    endloop
  endfacet
  facet normal 8.17258e-023 -1 2.22045e-016
    outer loop
      vertex 95.427 6.24985e-015 0.14683
      vertex 104.5 5.9952e-015 -1
      vertex 96 6.30649e-015 0.401923
    endloop
  endfacet
  facet normal 0 -1 2.22045e-016
    outer loop
      vertex 94.8136 6.2209e-015 0.0164337
      vertex 104.5 5.9952e-015 -1
      vertex 95.427 6.24985e-015 0.14683
    endloop
  endfacet
  facet normal 0 -1 2.22045e-016
    outer loop
      vertex 104.5 5.9952e-015 -1
      vertex 94.8136 6.2209e-015 0.0164337
      vertex 84.5 5.9952e-015 -1
    endloop
  endfacet
  facet normal 1 -0 0
    outer loop
      vertex 104.5 8.54872e-015 10.5
      vertex 104.5 4 -1
      vertex 104.5 4 10.5
    endloop
  endfacet
  facet normal 1 0 0
    outer loop
      vertex 104.5 4 -1
      vertex 104.5 8.54872e-015 10.5
      vertex 104.5 5.9952e-015 -1
    endloop
  endfacet
  facet normal -0 0 1
    outer loop
      vertex 84.5 4 10.5
      vertex 104.5 8.54872e-015 10.5
      vertex 104.5 4 10.5
    endloop
  endfacet
  facet normal 0 0 1
    outer loop
      vertex 104.5 8.54872e-015 10.5
      vertex 84.5 4 10.5
      vertex 84.5 8.54872e-015 10.5
    endloop
  endfacet
  facet normal 0 1 0
    outer loop
      vertex 104.5 4 10.5
      vertex 101.925 4 10.4246
      vertex 84.5 4 10.5
    endloop
  endfacet
  facet normal 0 1 -0
    outer loop
      vertex 104.5 4 -1
      vertex 101.925 4 10.4246
      vertex 104.5 4 10.5
    endloop
  endfacet
  facet normal 0 1 0
    outer loop
      vertex 101.925 4 10.4246
      vertex 104.5 4 -1
      vertex 101.925 4 -1
    endloop
  endfacet
  facet normal 0 1 -0
    outer loop
      vertex 87.0754 4 10.4246
      vertex 84.5 4 10.5
      vertex 101.925 4 10.4246
    endloop
  endfacet
  facet normal 0 1 0
    outer loop
      vertex 84.5 4 -1
      vertex 87.0754 4 10.4246
      vertex 87.0754 4 -1
    endloop
  endfacet
  facet normal 0 1 0
    outer loop
      vertex 87.0754 4 10.4246
      vertex 84.5 4 -1
      vertex 84.5 4 10.5
    endloop
  endfacet
  facet normal 0 1 0
    outer loop
      vertex 100.864 4 9.36396
      vertex 94.8136 4 5.98357
      vertex 88.136 4 9.36396
    endloop
  endfacet
  facet normal 0 1 0
    outer loop
      vertex 100.864 4 9.36396
      vertex 95.427 4 5.85317
      vertex 94.8136 4 5.98357
    endloop
  endfacet
  facet normal 0 1 0
    outer loop
      vertex 100.864 4 9.36396
      vertex 96 4 5.59808
      vertex 95.427 4 5.85317
    endloop
  endfacet
  facet normal 0 1 0
    outer loop
      vertex 100.864 4 9.36396
      vertex 96.5074 4 5.22943
      vertex 96 4 5.59808
    endloop
  endfacet
  facet normal 0 1 0
    outer loop
      vertex 100.864 4 9.36396
      vertex 96.927 4 4.76336
      vertex 96.5074 4 5.22943
    endloop
  endfacet
  facet normal 0 1 0
    outer loop
      vertex 100.864 4 9.36396
      vertex 97.2406 4 4.22021
      vertex 96.927 4 4.76336
    endloop
  endfacet
  facet normal 0 1 0
    outer loop
      vertex 100.864 4 9.36396
      vertex 97.4344 4 3.62373
      vertex 97.2406 4 4.22021
    endloop
  endfacet
  facet normal 0 1 0
    outer loop
      vertex 100.864 4 9.36396
      vertex 97.5 4 3
      vertex 97.4344 4 3.62373
    endloop
  endfacet
  facet normal 0 1 -0
    outer loop
      vertex 100.864 4 -3.36396
      vertex 97.5 4 3
      vertex 100.864 4 9.36396
    endloop
  endfacet
  facet normal 0 1 0
    outer loop
      vertex 97.5 4 3
      vertex 100.864 4 -3.36396
      vertex 97.4344 4 2.37626
    endloop
  endfacet
  facet normal 0 1 0
    outer loop
      vertex 94.8136 4 0.0164337
      vertex 100.864 4 -3.36396
      vertex 94.1864 4 0.0164337
    endloop
  endfacet
  facet normal 0 1 0
    outer loop
      vertex 95.427 4 0.14683
      vertex 100.864 4 -3.36396
      vertex 94.8136 4 0.0164337
    endloop
  endfacet
  facet normal 0 1 0
    outer loop
      vertex 96 4 0.401923
      vertex 100.864 4 -3.36396
      vertex 95.427 4 0.14683
    endloop
  endfacet
  facet normal 0 1 0
    outer loop
      vertex 96.5074 4 0.770565
      vertex 100.864 4 -3.36396
      vertex 96 4 0.401923
    endloop
  endfacet
  facet normal 0 1 0
    outer loop
      vertex 96.927 4 1.23664
      vertex 100.864 4 -3.36396
      vertex 96.5074 4 0.770565
    endloop
  endfacet
  facet normal 0 1 0
    outer loop
      vertex 97.2406 4 1.77979
      vertex 100.864 4 -3.36396
      vertex 96.927 4 1.23664
    endloop
  endfacet
  facet normal 0 1 0
    outer loop
      vertex 97.4344 4 2.37626
      vertex 100.864 4 -3.36396
      vertex 97.2406 4 1.77979
    endloop
  endfacet
  facet normal 0 1 -0
    outer loop
      vertex 94.1864 4 5.98357
      vertex 88.136 4 9.36396
      vertex 94.8136 4 5.98357
    endloop
  endfacet
  facet normal 0 1 -0
    outer loop
      vertex 93.573 4 5.85317
      vertex 88.136 4 9.36396
      vertex 94.1864 4 5.98357
    endloop
  endfacet
  facet normal 0 1 -0
    outer loop
      vertex 93 4 5.59808
      vertex 88.136 4 9.36396
      vertex 93.573 4 5.85317
    endloop
  endfacet
  facet normal 0 1 -0
    outer loop
      vertex 92.4926 4 5.22943
      vertex 88.136 4 9.36396
      vertex 93 4 5.59808
    endloop
  endfacet
  facet normal 0 1 -0
    outer loop
      vertex 92.073 4 4.76336
      vertex 88.136 4 9.36396
      vertex 92.4926 4 5.22943
    endloop
  endfacet
  facet normal 0 1 -0
    outer loop
      vertex 91.7594 4 4.22021
      vertex 88.136 4 9.36396
      vertex 92.073 4 4.76336
    endloop
  endfacet
  facet normal 0 1 -0
    outer loop
      vertex 91.5656 4 3.62373
      vertex 88.136 4 9.36396
      vertex 91.7594 4 4.22021
    endloop
  endfacet
  facet normal 0 1 -0
    outer loop
      vertex 91.5 4 3
      vertex 88.136 4 9.36396
      vertex 91.5656 4 3.62373
    endloop
  endfacet
  facet normal 0 1 0
    outer loop
      vertex 88.136 4 -3.36396
      vertex 91.5 4 3
      vertex 91.5656 4 2.37626
    endloop
  endfacet
  facet normal 0 1 0
    outer loop
      vertex 88.136 4 -3.36396
      vertex 91.5656 4 2.37626
      vertex 91.7594 4 1.77979
    endloop
  endfacet
  facet normal 0 1 0
    outer loop
      vertex 88.136 4 -3.36396
      vertex 94.1864 4 0.0164337
      vertex 100.864 4 -3.36396
    endloop
  endfacet
  facet normal 0 1 0
    outer loop
      vertex 94.1864 4 0.0164337
      vertex 88.136 4 -3.36396
      vertex 93.573 4 0.14683
    endloop
  endfacet
  facet normal 0 1 0
    outer loop
      vertex 91.5 4 3
      vertex 88.136 4 -3.36396
      vertex 88.136 4 9.36396
    endloop
  endfacet
  facet normal 0 1 0
    outer loop
      vertex 92.073 4 1.23664
      vertex 88.136 4 -3.36396
      vertex 91.7594 4 1.77979
    endloop
  endfacet
  facet normal 0 1 0
    outer loop
      vertex 92.4926 4 0.770565
      vertex 88.136 4 -3.36396
      vertex 92.073 4 1.23664
    endloop
  endfacet
  facet normal 0 1 0
    outer loop
      vertex 93 4 0.401923
      vertex 88.136 4 -3.36396
      vertex 92.4926 4 0.770565
    endloop
  endfacet
  facet normal 0 1 0
    outer loop
      vertex 93.573 4 0.14683
      vertex 88.136 4 -3.36396
      vertex 93 4 0.401923
    endloop
  endfacet
  facet normal -0.994522 0 -0.104532
    outer loop
      vertex 97.5 4 3
      vertex 97.4344 7.02188e-015 3.62373
      vertex 97.4344 4 3.62373
    endloop
  endfacet
  facet normal -0.994522 0 -0.104532
    outer loop
      vertex 97.4344 7.02188e-015 3.62373
      vertex 97.5 4 3
      vertex 97.5 6.88338e-015 3
    endloop
  endfacet
  facet normal 0.207912 0 -0.978148
    outer loop
      vertex 93.573 7.51691e-015 5.85317
      vertex 94.1864 4 5.98357
      vertex 94.1864 7.54587e-015 5.98357
    endloop
  endfacet
  facet normal 0.207912 0 -0.978148
    outer loop
      vertex 94.1864 4 5.98357
      vertex 93.573 7.51691e-015 5.85317
      vertex 93.573 4 5.85317
    endloop
  endfacet
  facet normal -0.207912 0 0.978148
    outer loop
      vertex 94.8136 4 0.0164337
      vertex 95.427 6.24985e-015 0.14683
      vertex 95.427 4 0.14683
    endloop
  endfacet
  facet normal -0.207912 0 0.978148
    outer loop
      vertex 95.427 6.24985e-015 0.14683
      vertex 94.8136 4 0.0164337
      vertex 94.8136 6.2209e-015 0.0164337
    endloop
  endfacet
  facet normal -0.406735 0 0.913546
    outer loop
      vertex 95.427 4 0.14683
      vertex 96 6.30649e-015 0.401923
      vertex 96 4 0.401923
    endloop
  endfacet
  facet normal -0.406735 0 0.913546
    outer loop
      vertex 96 6.30649e-015 0.401923
      vertex 95.427 4 0.14683
      vertex 95.427 6.24985e-015 0.14683
    endloop
  endfacet
  facet normal -0.587785 0 -0.809017
    outer loop
      vertex 96 7.46027e-015 5.59808
      vertex 96.5074 4 5.22943
      vertex 96.5074 7.37842e-015 5.22943
    endloop
  endfacet
  facet normal -0.587785 0 -0.809017
    outer loop
      vertex 96.5074 4 5.22943
      vertex 96 7.46027e-015 5.59808
      vertex 96 4 5.59808
    endloop
  endfacet
  facet normal 0.743148 0 -0.669127
    outer loop
      vertex 92.4926 7.37842e-015 5.22943
      vertex 92.073 4 4.76336
      vertex 92.4926 4 5.22943
    endloop
  endfacet
  facet normal 0.743148 0 -0.669127
    outer loop
      vertex 92.073 4 4.76336
      vertex 92.4926 7.37842e-015 5.22943
      vertex 92.073 7.27493e-015 4.76336
    endloop
  endfacet
  facet normal 0.587785 0 -0.809017
    outer loop
      vertex 92.4926 7.37842e-015 5.22943
      vertex 93 4 5.59808
      vertex 93 7.46027e-015 5.59808
    endloop
  endfacet
  facet normal 0.587785 0 -0.809017
    outer loop
      vertex 93 4 5.59808
      vertex 92.4926 7.37842e-015 5.22943
      vertex 92.4926 4 5.22943
    endloop
  endfacet
  facet normal -0.866022 0 -0.500007
    outer loop
      vertex 97.2406 4 4.22021
      vertex 96.927 7.27493e-015 4.76336
      vertex 96.927 4 4.76336
    endloop
  endfacet
  facet normal -0.866022 0 -0.500007
    outer loop
      vertex 96.927 7.27493e-015 4.76336
      vertex 97.2406 4 4.22021
      vertex 97.2406 7.15432e-015 4.22021
    endloop
  endfacet
  facet normal -0.951059 0 -0.309011
    outer loop
      vertex 97.4344 4 3.62373
      vertex 97.2406 7.15432e-015 4.22021
      vertex 97.2406 4 4.22021
    endloop
  endfacet
  facet normal -0.951059 0 -0.309011
    outer loop
      vertex 97.2406 7.15432e-015 4.22021
      vertex 97.4344 4 3.62373
      vertex 97.4344 7.02188e-015 3.62373
    endloop
  endfacet
  facet normal -0.743148 0 -0.669127
    outer loop
      vertex 96.927 4 4.76336
      vertex 96.5074 7.37842e-015 5.22943
      vertex 96.5074 4 5.22943
    endloop
  endfacet
  facet normal -0.743148 0 -0.669127
    outer loop
      vertex 96.5074 7.37842e-015 5.22943
      vertex 96.927 4 4.76336
      vertex 96.927 7.27493e-015 4.76336
    endloop
  endfacet
  facet normal -0.207912 0 -0.978148
    outer loop
      vertex 94.8136 7.54587e-015 5.98357
      vertex 95.427 4 5.85317
      vertex 95.427 7.51691e-015 5.85317
    endloop
  endfacet
  facet normal -0.207912 0 -0.978148
    outer loop
      vertex 95.427 4 5.85317
      vertex 94.8136 7.54587e-015 5.98357
      vertex 94.8136 4 5.98357
    endloop
  endfacet
  facet normal 0 0 -1
    outer loop
      vertex 94.1864 7.54587e-015 5.98357
      vertex 94.8136 4 5.98357
      vertex 94.8136 7.54587e-015 5.98357
    endloop
  endfacet
  facet normal -0 0 -1
    outer loop
      vertex 94.8136 4 5.98357
      vertex 94.1864 7.54587e-015 5.98357
      vertex 94.1864 4 5.98357
    endloop
  endfacet
  facet normal -0.406735 0 -0.913546
    outer loop
      vertex 95.427 7.51691e-015 5.85317
      vertex 96 4 5.59808
      vertex 96 7.46027e-015 5.59808
    endloop
  endfacet
  facet normal -0.406735 0 -0.913546
    outer loop
      vertex 96 4 5.59808
      vertex 95.427 7.51691e-015 5.85317
      vertex 95.427 4 5.85317
    endloop
  endfacet
  facet normal 0.951059 0 -0.309011
    outer loop
      vertex 91.7594 7.15432e-015 4.22021
      vertex 91.5656 4 3.62373
      vertex 91.7594 4 4.22021
    endloop
  endfacet
  facet normal 0.951059 0 -0.309011
    outer loop
      vertex 91.5656 4 3.62373
      vertex 91.7594 7.15432e-015 4.22021
      vertex 91.5656 7.02188e-015 3.62373
    endloop
  endfacet
  facet normal 0.866022 0 -0.500007
    outer loop
      vertex 92.073 7.27493e-015 4.76336
      vertex 91.7594 4 4.22021
      vertex 92.073 4 4.76336
    endloop
  endfacet
  facet normal 0.866022 0 -0.500007
    outer loop
      vertex 91.7594 4 4.22021
      vertex 92.073 7.27493e-015 4.76336
      vertex 91.7594 7.15432e-015 4.22021
    endloop
  endfacet
  facet normal 0.994522 0 -0.104532
    outer loop
      vertex 91.5656 7.02188e-015 3.62373
      vertex 91.5 4 3
      vertex 91.5656 4 3.62373
    endloop
  endfacet
  facet normal 0.994522 0 -0.104532
    outer loop
      vertex 91.5 4 3
      vertex 91.5656 7.02188e-015 3.62373
      vertex 91.5 6.88338e-015 3
    endloop
  endfacet
  facet normal 0.406735 0 -0.913546
    outer loop
      vertex 93 7.46027e-015 5.59808
      vertex 93.573 4 5.85317
      vertex 93.573 7.51691e-015 5.85317
    endloop
  endfacet
  facet normal 0.406735 0 -0.913546
    outer loop
      vertex 93.573 4 5.85317
      vertex 93 7.46027e-015 5.59808
      vertex 93 4 5.59808
    endloop
  endfacet
  facet normal -0.994522 0 0.104532
    outer loop
      vertex 97.4344 4 2.37626
      vertex 97.5 6.88338e-015 3
      vertex 97.5 4 3
    endloop
  endfacet
  facet normal -0.994522 0 0.104532
    outer loop
      vertex 97.5 6.88338e-015 3
      vertex 97.4344 4 2.37626
      vertex 97.4344 6.74489e-015 2.37626
    endloop
  endfacet
  facet normal -0.743148 0 0.669127
    outer loop
      vertex 96.5074 4 0.770565
      vertex 96.927 6.49184e-015 1.23664
      vertex 96.927 4 1.23664
    endloop
  endfacet
  facet normal -0.743148 0 0.669127
    outer loop
      vertex 96.927 6.49184e-015 1.23664
      vertex 96.5074 4 0.770565
      vertex 96.5074 6.38835e-015 0.770565
    endloop
  endfacet
  facet normal 0.994522 -0 0.104532
    outer loop
      vertex 91.5 6.88338e-015 3
      vertex 91.5656 4 2.37626
      vertex 91.5 4 3
    endloop
  endfacet
  facet normal 0.994522 0 0.104532
    outer loop
      vertex 91.5656 4 2.37626
      vertex 91.5 6.88338e-015 3
      vertex 91.5656 6.74489e-015 2.37626
    endloop
  endfacet
  facet normal -0.866022 0 0.500007
    outer loop
      vertex 96.927 4 1.23664
      vertex 97.2406 6.61244e-015 1.77979
      vertex 97.2406 4 1.77979
    endloop
  endfacet
  facet normal -0.866022 0 0.500007
    outer loop
      vertex 97.2406 6.61244e-015 1.77979
      vertex 96.927 4 1.23664
      vertex 96.927 6.49184e-015 1.23664
    endloop
  endfacet
  facet normal 0.406735 0 0.913546
    outer loop
      vertex 93 4 0.401923
      vertex 93.573 6.24985e-015 0.14683
      vertex 93.573 4 0.14683
    endloop
  endfacet
  facet normal 0.406735 0 0.913546
    outer loop
      vertex 93.573 6.24985e-015 0.14683
      vertex 93 4 0.401923
      vertex 93 6.30649e-015 0.401923
    endloop
  endfacet
  facet normal 0.743148 -0 0.669127
    outer loop
      vertex 92.073 6.49184e-015 1.23664
      vertex 92.4926 4 0.770565
      vertex 92.073 4 1.23664
    endloop
  endfacet
  facet normal 0.743148 0 0.669127
    outer loop
      vertex 92.4926 4 0.770565
      vertex 92.073 6.49184e-015 1.23664
      vertex 92.4926 6.38835e-015 0.770565
    endloop
  endfacet
  facet normal 0.951059 -0 0.309011
    outer loop
      vertex 91.5656 6.74489e-015 2.37626
      vertex 91.7594 4 1.77979
      vertex 91.5656 4 2.37626
    endloop
  endfacet
  facet normal 0.951059 0 0.309011
    outer loop
      vertex 91.7594 4 1.77979
      vertex 91.5656 6.74489e-015 2.37626
      vertex 91.7594 6.61244e-015 1.77979
    endloop
  endfacet
  facet normal -0.587785 0 0.809017
    outer loop
      vertex 96 4 0.401923
      vertex 96.5074 6.38835e-015 0.770565
      vertex 96.5074 4 0.770565
    endloop
  endfacet
  facet normal -0.587785 0 0.809017
    outer loop
      vertex 96.5074 6.38835e-015 0.770565
      vertex 96 4 0.401923
      vertex 96 6.30649e-015 0.401923
    endloop
  endfacet
  facet normal -0.951059 0 0.309011
    outer loop
      vertex 97.2406 4 1.77979
      vertex 97.4344 6.74489e-015 2.37626
      vertex 97.4344 4 2.37626
    endloop
  endfacet
  facet normal -0.951059 0 0.309011
    outer loop
      vertex 97.4344 6.74489e-015 2.37626
      vertex 97.2406 4 1.77979
      vertex 97.2406 6.61244e-015 1.77979
    endloop
  endfacet
  facet normal 0.207912 0 0.978148
    outer loop
      vertex 93.573 4 0.14683
      vertex 94.1864 6.2209e-015 0.0164337
      vertex 94.1864 4 0.0164337
    endloop
  endfacet
  facet normal 0.207912 0 0.978148
    outer loop
      vertex 94.1864 6.2209e-015 0.0164337
      vertex 93.573 4 0.14683
      vertex 93.573 6.24985e-015 0.14683
    endloop
  endfacet
  facet normal 0.587785 0 0.809017
    outer loop
      vertex 92.4926 4 0.770565
      vertex 93 6.30649e-015 0.401923
      vertex 93 4 0.401923
    endloop
  endfacet
  facet normal 0.587785 0 0.809017
    outer loop
      vertex 93 6.30649e-015 0.401923
      vertex 92.4926 4 0.770565
      vertex 92.4926 6.38835e-015 0.770565
    endloop
  endfacet
  facet normal 0.866022 -0 0.500007
    outer loop
      vertex 91.7594 6.61244e-015 1.77979
      vertex 92.073 4 1.23664
      vertex 91.7594 4 1.77979
    endloop
  endfacet
  facet normal 0.866022 0 0.500007
    outer loop
      vertex 92.073 4 1.23664
      vertex 91.7594 6.61244e-015 1.77979
      vertex 92.073 6.49184e-015 1.23664
    endloop
  endfacet
  facet normal -0 0 1
    outer loop
      vertex 94.1864 4 0.0164337
      vertex 94.8136 6.2209e-015 0.0164337
      vertex 94.8136 4 0.0164337
    endloop
  endfacet
  facet normal 0 0 1
    outer loop
      vertex 94.8136 6.2209e-015 0.0164337
      vertex 94.1864 4 0.0164337
      vertex 94.1864 6.2209e-015 0.0164337
    endloop
  endfacet
  facet normal -1 0 0
    outer loop
      vertex 74.5 21 -5
      vertex 74.5 5.9952e-015 -1
      vertex 74.5 21 -1
    endloop
  endfacet
  facet normal -1 0 -0
    outer loop
      vertex 74.5 5.9952e-015 -1
      vertex 74.5 21 -5
      vertex 74.5 5.10703e-015 -5
    endloop
  endfacet
  facet normal 1 -0 0
    outer loop
      vertex 87.5 15 -1
      vertex 87.5 21 -3.4
      vertex 87.5 21 -1
    endloop
  endfacet
  facet normal 1 0 0
    outer loop
      vertex 87.5 21 -3.4
      vertex 87.5 15 -1
      vertex 87.5 15 -3.4
    endloop
  endfacet
  facet normal 0 1 0
    outer loop
      vertex 114.5 21 -1
      vertex 101.5 21 -3.4
      vertex 101.5 21 -1
    endloop
  endfacet
  facet normal 0 1 0
    outer loop
      vertex 101.5 21 -3.4
      vertex 114.5 21 -5
      vertex 87.5 21 -3.4
    endloop
  endfacet
  facet normal 0 1 -0
    outer loop
      vertex 114.5 21 -5
      vertex 101.5 21 -3.4
      vertex 114.5 21 -1
    endloop
  endfacet
  facet normal 0 1 -0
    outer loop
      vertex 87.5 21 -3.4
      vertex 74.5 21 -1
      vertex 87.5 21 -1
    endloop
  endfacet
  facet normal 0 1 0
    outer loop
      vertex 87.5 21 -3.4
      vertex 74.5 21 -5
      vertex 74.5 21 -1
    endloop
  endfacet
  facet normal 0 1 0
    outer loop
      vertex 74.5 21 -5
      vertex 87.5 21 -3.4
      vertex 114.5 21 -5
    endloop
  endfacet
  facet normal 0 0 -1
    outer loop
      vertex 114.5 5.10703e-015 -5
      vertex 110.95 9.8 -5
      vertex 114.5 21 -5
    endloop
  endfacet
  facet normal 0 0 -1
    outer loop
      vertex 114.5 5.10703e-015 -5
      vertex 110.896 9.29062 -5
      vertex 110.95 9.8 -5
    endloop
  endfacet
  facet normal 0 0 -1
    outer loop
      vertex 114.5 5.10703e-015 -5
      vertex 110.738 8.80349 -5
      vertex 110.896 9.29062 -5
    endloop
  endfacet
  facet normal 0 0 -1
    outer loop
      vertex 114.5 5.10703e-015 -5
      vertex 110.482 8.35993 -5
      vertex 110.738 8.80349 -5
    endloop
  endfacet
  facet normal 0 0 -1
    outer loop
      vertex 114.5 5.10703e-015 -5
      vertex 110.139 7.97929 -5
      vertex 110.482 8.35993 -5
    endloop
  endfacet
  facet normal 0 0 -1
    outer loop
      vertex 114.5 5.10703e-015 -5
      vertex 109.725 7.67824 -5
      vertex 110.139 7.97929 -5
    endloop
  endfacet
  facet normal 0 0 -1
    outer loop
      vertex 114.5 5.10703e-015 -5
      vertex 109.257 7.46991 -5
      vertex 109.725 7.67824 -5
    endloop
  endfacet
  facet normal 0 0 -1
    outer loop
      vertex 114.5 5.10703e-015 -5
      vertex 108.756 7.36342 -5
      vertex 109.257 7.46991 -5
    endloop
  endfacet
  facet normal 0 0 -1
    outer loop
      vertex 114.5 5.10703e-015 -5
      vertex 108.244 7.36342 -5
      vertex 108.756 7.36342 -5
    endloop
  endfacet
  facet normal 0 0 -1
    outer loop
      vertex 114.5 5.10703e-015 -5
      vertex 107.743 7.46991 -5
      vertex 108.244 7.36342 -5
    endloop
  endfacet
  facet normal 0 0 -1
    outer loop
      vertex 114.5 5.10703e-015 -5
      vertex 107.275 7.67824 -5
      vertex 107.743 7.46991 -5
    endloop
  endfacet
  facet normal 0 0 -1
    outer loop
      vertex 81.725 7.67824 -5
      vertex 107.275 7.67824 -5
      vertex 114.5 5.10703e-015 -5
    endloop
  endfacet
  facet normal 0 0 -1
    outer loop
      vertex 106.104 9.29062 -5
      vertex 82.95 9.8 -5
      vertex 106.05 9.8 -5
    endloop
  endfacet
  facet normal 0 0 -1
    outer loop
      vertex 82.8965 9.29062 -5
      vertex 106.104 9.29062 -5
      vertex 106.262 8.80349 -5
    endloop
  endfacet
  facet normal 0 0 -1
    outer loop
      vertex 82.7382 8.80349 -5
      vertex 106.262 8.80349 -5
      vertex 106.518 8.35993 -5
    endloop
  endfacet
  facet normal 0 0 -1
    outer loop
      vertex 82.4821 8.35993 -5
      vertex 106.518 8.35993 -5
      vertex 106.861 7.97929 -5
    endloop
  endfacet
  facet normal 0 0 -1
    outer loop
      vertex 107.275 7.67824 -5
      vertex 81.725 7.67824 -5
      vertex 106.861 7.97929 -5
    endloop
  endfacet
  facet normal 0 0 -1
    outer loop
      vertex 106.104 9.29062 -5
      vertex 82.8965 9.29062 -5
      vertex 82.95 9.8 -5
    endloop
  endfacet
  facet normal 0 0 -1
    outer loop
      vertex 106.262 8.80349 -5
      vertex 82.7382 8.80349 -5
      vertex 82.8965 9.29062 -5
    endloop
  endfacet
  facet normal 0 0 -1
    outer loop
      vertex 106.518 8.35993 -5
      vertex 82.4821 8.35993 -5
      vertex 82.7382 8.80349 -5
    endloop
  endfacet
  facet normal 0 0 -1
    outer loop
      vertex 106.861 7.97929 -5
      vertex 82.1394 7.97929 -5
      vertex 82.4821 8.35993 -5
    endloop
  endfacet
  facet normal -0 0 -1
    outer loop
      vertex 106.861 7.97929 -5
      vertex 81.725 7.67824 -5
      vertex 82.1394 7.97929 -5
    endloop
  endfacet
  facet normal 0 0 -1
    outer loop
      vertex 74.5 5.10703e-015 -5
      vertex 81.725 7.67824 -5
      vertex 114.5 5.10703e-015 -5
    endloop
  endfacet
  facet normal 0 0 -1
    outer loop
      vertex 81.725 7.67824 -5
      vertex 74.5 5.10703e-015 -5
      vertex 81.2571 7.46991 -5
    endloop
  endfacet
  facet normal 0 0 -1
    outer loop
      vertex 81.2571 7.46991 -5
      vertex 74.5 5.10703e-015 -5
      vertex 80.7561 7.36342 -5
    endloop
  endfacet
  facet normal -0 0 -1
    outer loop
      vertex 80.7561 7.36342 -5
      vertex 74.5 5.10703e-015 -5
      vertex 80.2439 7.36342 -5
    endloop
  endfacet
  facet normal -0 0 -1
    outer loop
      vertex 78.1035 9.29062 -5
      vertex 74.5 5.10703e-015 -5
      vertex 78.05 9.8 -5
    endloop
  endfacet
  facet normal -0 0 -1
    outer loop
      vertex 78.2618 8.80349 -5
      vertex 74.5 5.10703e-015 -5
      vertex 78.1035 9.29062 -5
    endloop
  endfacet
  facet normal -0 0 -1
    outer loop
      vertex 78.5179 8.35993 -5
      vertex 74.5 5.10703e-015 -5
      vertex 78.2618 8.80349 -5
    endloop
  endfacet
  facet normal -0 0 -1
    outer loop
      vertex 78.8606 7.97929 -5
      vertex 74.5 5.10703e-015 -5
      vertex 78.5179 8.35993 -5
    endloop
  endfacet
  facet normal -0 0 -1
    outer loop
      vertex 79.275 7.67824 -5
      vertex 74.5 5.10703e-015 -5
      vertex 78.8606 7.97929 -5
    endloop
  endfacet
  facet normal -0 0 -1
    outer loop
      vertex 79.7429 7.46991 -5
      vertex 74.5 5.10703e-015 -5
      vertex 79.275 7.67824 -5
    endloop
  endfacet
  facet normal -0 0 -1
    outer loop
      vertex 80.2439 7.36342 -5
      vertex 74.5 5.10703e-015 -5
      vertex 79.7429 7.46991 -5
    endloop
  endfacet
  facet normal 0 0 -1
    outer loop
      vertex 110.896 10.3094 -5
      vertex 114.5 21 -5
      vertex 110.95 9.8 -5
    endloop
  endfacet
  facet normal 0 0 -1
    outer loop
      vertex 110.738 10.7965 -5
      vertex 114.5 21 -5
      vertex 110.896 10.3094 -5
    endloop
  endfacet
  facet normal 0 0 -1
    outer loop
      vertex 110.482 11.2401 -5
      vertex 114.5 21 -5
      vertex 110.738 10.7965 -5
    endloop
  endfacet
  facet normal 0 0 -1
    outer loop
      vertex 110.139 11.6207 -5
      vertex 114.5 21 -5
      vertex 110.482 11.2401 -5
    endloop
  endfacet
  facet normal 0 0 -1
    outer loop
      vertex 109.725 11.9218 -5
      vertex 114.5 21 -5
      vertex 110.139 11.6207 -5
    endloop
  endfacet
  facet normal 0 0 -1
    outer loop
      vertex 109.257 12.1301 -5
      vertex 114.5 21 -5
      vertex 109.725 11.9218 -5
    endloop
  endfacet
  facet normal 0 0 -1
    outer loop
      vertex 108.756 12.2366 -5
      vertex 114.5 21 -5
      vertex 109.257 12.1301 -5
    endloop
  endfacet
  facet normal 0 0 -1
    outer loop
      vertex 108.244 12.2366 -5
      vertex 114.5 21 -5
      vertex 108.756 12.2366 -5
    endloop
  endfacet
  facet normal 0 0 -1
    outer loop
      vertex 107.743 12.1301 -5
      vertex 114.5 21 -5
      vertex 108.244 12.2366 -5
    endloop
  endfacet
  facet normal 0 0 -1
    outer loop
      vertex 107.275 11.9218 -5
      vertex 114.5 21 -5
      vertex 107.743 12.1301 -5
    endloop
  endfacet
  facet normal 0 0 -1
    outer loop
      vertex 81.725 11.9218 -5
      vertex 107.275 11.9218 -5
      vertex 106.861 11.6207 -5
    endloop
  endfacet
  facet normal 0 0 -1
    outer loop
      vertex 82.1394 11.6207 -5
      vertex 106.861 11.6207 -5
      vertex 106.518 11.2401 -5
    endloop
  endfacet
  facet normal 0 0 -1
    outer loop
      vertex 82.95 9.8 -5
      vertex 106.104 10.3094 -5
      vertex 106.05 9.8 -5
    endloop
  endfacet
  facet normal 0 0 -1
    outer loop
      vertex 82.8965 10.3094 -5
      vertex 106.104 10.3094 -5
      vertex 82.95 9.8 -5
    endloop
  endfacet
  facet normal 0 0 -1
    outer loop
      vertex 106.104 10.3094 -5
      vertex 82.8965 10.3094 -5
      vertex 106.262 10.7965 -5
    endloop
  endfacet
  facet normal 0 0 -1
    outer loop
      vertex 82.7382 10.7965 -5
      vertex 106.262 10.7965 -5
      vertex 82.8965 10.3094 -5
    endloop
  endfacet
  facet normal 0 0 -1
    outer loop
      vertex 106.262 10.7965 -5
      vertex 82.7382 10.7965 -5
      vertex 106.518 11.2401 -5
    endloop
  endfacet
  facet normal 0 0 -1
    outer loop
      vertex 82.4821 11.2401 -5
      vertex 106.518 11.2401 -5
      vertex 82.7382 10.7965 -5
    endloop
  endfacet
  facet normal 0 0 -1
    outer loop
      vertex 82.1394 11.6207 -5
      vertex 106.518 11.2401 -5
      vertex 82.4821 11.2401 -5
    endloop
  endfacet
  facet normal 0 0 -1
    outer loop
      vertex 81.725 11.9218 -5
      vertex 106.861 11.6207 -5
      vertex 82.1394 11.6207 -5
    endloop
  endfacet
  facet normal 0 0 -1
    outer loop
      vertex 107.275 11.9218 -5
      vertex 81.725 11.9218 -5
      vertex 114.5 21 -5
    endloop
  endfacet
  facet normal 0 0 -1
    outer loop
      vertex 74.5 21 -5
      vertex 81.725 11.9218 -5
      vertex 81.2571 12.1301 -5
    endloop
  endfacet
  facet normal 0 0 -1
    outer loop
      vertex 74.5 21 -5
      vertex 81.2571 12.1301 -5
      vertex 80.7561 12.2366 -5
    endloop
  endfacet
  facet normal 0 0 -1
    outer loop
      vertex 74.5 21 -5
      vertex 80.7561 12.2366 -5
      vertex 80.2439 12.2366 -5
    endloop
  endfacet
  facet normal 0 0 -1
    outer loop
      vertex 74.5 21 -5
      vertex 80.2439 12.2366 -5
      vertex 79.7429 12.1301 -5
    endloop
  endfacet
  facet normal 0 0 -1
    outer loop
      vertex 74.5 21 -5
      vertex 78.05 9.8 -5
      vertex 74.5 5.10703e-015 -5
    endloop
  endfacet
  facet normal 0 0 -1
    outer loop
      vertex 78.05 9.8 -5
      vertex 74.5 21 -5
      vertex 78.1035 10.3094 -5
    endloop
  endfacet
  facet normal 0 0 -1
    outer loop
      vertex 81.725 11.9218 -5
      vertex 74.5 21 -5
      vertex 114.5 21 -5
    endloop
  endfacet
  facet normal 0 0 -1
    outer loop
      vertex 79.275 11.9218 -5
      vertex 74.5 21 -5
      vertex 79.7429 12.1301 -5
    endloop
  endfacet
  facet normal 0 0 -1
    outer loop
      vertex 78.8606 11.6207 -5
      vertex 74.5 21 -5
      vertex 79.275 11.9218 -5
    endloop
  endfacet
  facet normal 0 0 -1
    outer loop
      vertex 78.5179 11.2401 -5
      vertex 74.5 21 -5
      vertex 78.8606 11.6207 -5
    endloop
  endfacet
  facet normal 0 0 -1
    outer loop
      vertex 78.2618 10.7965 -5
      vertex 74.5 21 -5
      vertex 78.5179 11.2401 -5
    endloop
  endfacet
  facet normal 0 0 -1
    outer loop
      vertex 78.1035 10.3094 -5
      vertex 74.5 21 -5
      vertex 78.2618 10.7965 -5
    endloop
  endfacet
  facet normal 0 0 1
    outer loop
      vertex 87.5 21 -1
      vertex 87.0754 15 -1
      vertex 87.5 15 -1
    endloop
  endfacet
  facet normal -0 0 1
    outer loop
      vertex 82.95 9.8 -1
      vertex 87.0754 4 -1
      vertex 87.0754 15 -1
    endloop
  endfacet
  facet normal 0 0 1
    outer loop
      vertex 80.7561 12.2366 -1
      vertex 87.0754 15 -1
      vertex 87.5 21 -1
    endloop
  endfacet
  facet normal -0 0 1
    outer loop
      vertex 82.7382 8.80349 -1
      vertex 87.0754 4 -1
      vertex 82.8965 9.29062 -1
    endloop
  endfacet
  facet normal 0 0 1
    outer loop
      vertex 87.0754 4 -1
      vertex 82.95 9.8 -1
      vertex 82.8965 9.29062 -1
    endloop
  endfacet
  facet normal 0 0 1
    outer loop
      vertex 87.0754 15 -1
      vertex 82.8965 10.3094 -1
      vertex 82.95 9.8 -1
    endloop
  endfacet
  facet normal 0 0 1
    outer loop
      vertex 87.0754 15 -1
      vertex 82.7382 10.7965 -1
      vertex 82.8965 10.3094 -1
    endloop
  endfacet
  facet normal 0 0 1
    outer loop
      vertex 87.0754 15 -1
      vertex 82.4821 11.2401 -1
      vertex 82.7382 10.7965 -1
    endloop
  endfacet
  facet normal 0 0 1
    outer loop
      vertex 87.0754 15 -1
      vertex 82.1394 11.6207 -1
      vertex 82.4821 11.2401 -1
    endloop
  endfacet
  facet normal 0 0 1
    outer loop
      vertex 87.0754 15 -1
      vertex 81.725 11.9218 -1
      vertex 82.1394 11.6207 -1
    endloop
  endfacet
  facet normal 0 0 1
    outer loop
      vertex 87.0754 15 -1
      vertex 81.2571 12.1301 -1
      vertex 81.725 11.9218 -1
    endloop
  endfacet
  facet normal 0 0 1
    outer loop
      vertex 87.0754 15 -1
      vertex 80.7561 12.2366 -1
      vertex 81.2571 12.1301 -1
    endloop
  endfacet
  facet normal -0 0 1
    outer loop
      vertex 74.5 21 -1
      vertex 80.7561 12.2366 -1
      vertex 87.5 21 -1
    endloop
  endfacet
  facet normal 0 0 1
    outer loop
      vertex 80.7561 12.2366 -1
      vertex 74.5 21 -1
      vertex 80.2439 12.2366 -1
    endloop
  endfacet
  facet normal 0 0 1
    outer loop
      vertex 80.2439 12.2366 -1
      vertex 74.5 21 -1
      vertex 79.7429 12.1301 -1
    endloop
  endfacet
  facet normal 0 0 1
    outer loop
      vertex 79.7429 12.1301 -1
      vertex 74.5 21 -1
      vertex 79.275 11.9218 -1
    endloop
  endfacet
  facet normal 0 0 1
    outer loop
      vertex 78.1035 10.3094 -1
      vertex 74.5 21 -1
      vertex 78.05 9.8 -1
    endloop
  endfacet
  facet normal 0 0 1
    outer loop
      vertex 78.2618 10.7965 -1
      vertex 74.5 21 -1
      vertex 78.1035 10.3094 -1
    endloop
  endfacet
  facet normal 0 0 1
    outer loop
      vertex 78.5179 11.2401 -1
      vertex 74.5 21 -1
      vertex 78.2618 10.7965 -1
    endloop
  endfacet
  facet normal 0 0 1
    outer loop
      vertex 78.8606 11.6207 -1
      vertex 74.5 21 -1
      vertex 78.5179 11.2401 -1
    endloop
  endfacet
  facet normal 0 0 1
    outer loop
      vertex 79.275 11.9218 -1
      vertex 74.5 21 -1
      vertex 78.8606 11.6207 -1
    endloop
  endfacet
  facet normal 0 0 1
    outer loop
      vertex 87.0754 4 -1
      vertex 82.7382 8.80349 -1
      vertex 84.5 4 -1
    endloop
  endfacet
  facet normal -0 0 1
    outer loop
      vertex 82.4821 8.35993 -1
      vertex 84.5 4 -1
      vertex 82.7382 8.80349 -1
    endloop
  endfacet
  facet normal -0 0 1
    outer loop
      vertex 82.1394 7.97929 -1
      vertex 84.5 4 -1
      vertex 82.4821 8.35993 -1
    endloop
  endfacet
  facet normal -0 0 1
    outer loop
      vertex 81.725 7.67824 -1
      vertex 84.5 4 -1
      vertex 82.1394 7.97929 -1
    endloop
  endfacet
  facet normal -0 0 1
    outer loop
      vertex 81.2571 7.46991 -1
      vertex 84.5 4 -1
      vertex 81.725 7.67824 -1
    endloop
  endfacet
  facet normal -0 0 1
    outer loop
      vertex 80.7561 7.36342 -1
      vertex 84.5 4 -1
      vertex 81.2571 7.46991 -1
    endloop
  endfacet
  facet normal -0 0 1
    outer loop
      vertex 80.2439 7.36342 -1
      vertex 84.5 4 -1
      vertex 80.7561 7.36342 -1
    endloop
  endfacet
  facet normal 0 0 1
    outer loop
      vertex 84.5 4 -1
      vertex 80.2439 7.36342 -1
      vertex 84.5 5.9952e-015 -1
    endloop
  endfacet
  facet normal 0 0 1
    outer loop
      vertex 74.5 5.9952e-015 -1
      vertex 80.2439 7.36342 -1
      vertex 79.7429 7.46991 -1
    endloop
  endfacet
  facet normal 0 0 1
    outer loop
      vertex 74.5 5.9952e-015 -1
      vertex 79.7429 7.46991 -1
      vertex 79.275 7.67824 -1
    endloop
  endfacet
  facet normal 0 0 1
    outer loop
      vertex 74.5 5.9952e-015 -1
      vertex 79.275 7.67824 -1
      vertex 78.8606 7.97929 -1
    endloop
  endfacet
  facet normal 0 0 1
    outer loop
      vertex 74.5 5.9952e-015 -1
      vertex 78.8606 7.97929 -1
      vertex 78.5179 8.35993 -1
    endloop
  endfacet
  facet normal 0 0 1
    outer loop
      vertex 74.5 5.9952e-015 -1
      vertex 78.05 9.8 -1
      vertex 74.5 21 -1
    endloop
  endfacet
  facet normal 0 0 1
    outer loop
      vertex 80.2439 7.36342 -1
      vertex 74.5 5.9952e-015 -1
      vertex 84.5 5.9952e-015 -1
    endloop
  endfacet
  facet normal 0 0 1
    outer loop
      vertex 78.2618 8.80349 -1
      vertex 74.5 5.9952e-015 -1
      vertex 78.5179 8.35993 -1
    endloop
  endfacet
  facet normal 0 0 1
    outer loop
      vertex 78.1035 9.29062 -1
      vertex 74.5 5.9952e-015 -1
      vertex 78.2618 8.80349 -1
    endloop
  endfacet
  facet normal 0 0 1
    outer loop
      vertex 78.05 9.8 -1
      vertex 74.5 5.9952e-015 -1
      vertex 78.1035 9.29062 -1
    endloop
  endfacet
  facet normal -1 0 0
    outer loop
      vertex 101.5 15 -3.4
      vertex 101.5 21 -1
      vertex 101.5 21 -3.4
    endloop
  endfacet
  facet normal -1 -0 0
    outer loop
      vertex 101.5 21 -1
      vertex 101.5 15 -3.4
      vertex 101.5 15 -1
    endloop
  endfacet
  facet normal 1 -0 0
    outer loop
      vertex 114.5 5.9952e-015 -1
      vertex 114.5 21 -5
      vertex 114.5 21 -1
    endloop
  endfacet
  facet normal 1 0 0
    outer loop
      vertex 114.5 21 -5
      vertex 114.5 5.9952e-015 -1
      vertex 114.5 5.10703e-015 -5
    endloop
  endfacet
  facet normal 0 0 1
    outer loop
      vertex 114.5 21 -1
      vertex 110.95 9.8 -1
      vertex 114.5 5.9952e-015 -1
    endloop
  endfacet
  facet normal 0 0 1
    outer loop
      vertex 114.5 21 -1
      vertex 110.896 10.3094 -1
      vertex 110.95 9.8 -1
    endloop
  endfacet
  facet normal 0 0 1
    outer loop
      vertex 114.5 21 -1
      vertex 110.738 10.7965 -1
      vertex 110.896 10.3094 -1
    endloop
  endfacet
  facet normal 0 0 1
    outer loop
      vertex 114.5 21 -1
      vertex 110.482 11.2401 -1
      vertex 110.738 10.7965 -1
    endloop
  endfacet
  facet normal 0 0 1
    outer loop
      vertex 114.5 21 -1
      vertex 110.139 11.6207 -1
      vertex 110.482 11.2401 -1
    endloop
  endfacet
  facet normal 0 0 1
    outer loop
      vertex 114.5 21 -1
      vertex 109.725 11.9218 -1
      vertex 110.139 11.6207 -1
    endloop
  endfacet
  facet normal 0 0 1
    outer loop
      vertex 114.5 21 -1
      vertex 109.257 12.1301 -1
      vertex 109.725 11.9218 -1
    endloop
  endfacet
  facet normal 0 0 1
    outer loop
      vertex 114.5 21 -1
      vertex 108.756 12.2366 -1
      vertex 109.257 12.1301 -1
    endloop
  endfacet
  facet normal 0 0 1
    outer loop
      vertex 114.5 21 -1
      vertex 108.244 12.2366 -1
      vertex 108.756 12.2366 -1
    endloop
  endfacet
  facet normal -0 0 1
    outer loop
      vertex 101.5 21 -1
      vertex 108.244 12.2366 -1
      vertex 114.5 21 -1
    endloop
  endfacet
  facet normal -0 -0 1
    outer loop
      vertex 101.925 15 -1
      vertex 108.244 12.2366 -1
      vertex 101.5 21 -1
    endloop
  endfacet
  facet normal 0 0 1
    outer loop
      vertex 108.244 12.2366 -1
      vertex 101.925 15 -1
      vertex 107.743 12.1301 -1
    endloop
  endfacet
  facet normal 0 0 1
    outer loop
      vertex 107.743 12.1301 -1
      vertex 101.925 15 -1
      vertex 107.275 11.9218 -1
    endloop
  endfacet
  facet normal 0 0 1
    outer loop
      vertex 101.925 15 -1
      vertex 106.05 9.8 -1
      vertex 106.104 10.3094 -1
    endloop
  endfacet
  facet normal 0 0 1
    outer loop
      vertex 106.05 9.8 -1
      vertex 101.925 15 -1
      vertex 101.925 4 -1
    endloop
  endfacet
  facet normal 0 0 1
    outer loop
      vertex 106.262 10.7965 -1
      vertex 101.925 15 -1
      vertex 106.104 10.3094 -1
    endloop
  endfacet
  facet normal 0 0 1
    outer loop
      vertex 106.518 11.2401 -1
      vertex 101.925 15 -1
      vertex 106.262 10.7965 -1
    endloop
  endfacet
  facet normal 0 0 1
    outer loop
      vertex 106.861 11.6207 -1
      vertex 101.925 15 -1
      vertex 106.518 11.2401 -1
    endloop
  endfacet
  facet normal 0 0 1
    outer loop
      vertex 107.275 11.9218 -1
      vertex 101.925 15 -1
      vertex 106.861 11.6207 -1
    endloop
  endfacet
  facet normal 0 0 1
    outer loop
      vertex 101.925 15 -1
      vertex 101.5 21 -1
      vertex 101.5 15 -1
    endloop
  endfacet
  facet normal -0 0 1
    outer loop
      vertex 110.896 9.29062 -1
      vertex 114.5 5.9952e-015 -1
      vertex 110.95 9.8 -1
    endloop
  endfacet
  facet normal -0 0 1
    outer loop
      vertex 110.738 8.80349 -1
      vertex 114.5 5.9952e-015 -1
      vertex 110.896 9.29062 -1
    endloop
  endfacet
  facet normal -0 0 1
    outer loop
      vertex 110.482 8.35993 -1
      vertex 114.5 5.9952e-015 -1
      vertex 110.738 8.80349 -1
    endloop
  endfacet
  facet normal -0 0 1
    outer loop
      vertex 110.139 7.97929 -1
      vertex 114.5 5.9952e-015 -1
      vertex 110.482 8.35993 -1
    endloop
  endfacet
  facet normal -0 0 1
    outer loop
      vertex 109.725 7.67824 -1
      vertex 114.5 5.9952e-015 -1
      vertex 110.139 7.97929 -1
    endloop
  endfacet
  facet normal -0 0 1
    outer loop
      vertex 109.257 7.46991 -1
      vertex 114.5 5.9952e-015 -1
      vertex 109.725 7.67824 -1
    endloop
  endfacet
  facet normal -0 0 1
    outer loop
      vertex 108.756 7.36342 -1
      vertex 114.5 5.9952e-015 -1
      vertex 109.257 7.46991 -1
    endloop
  endfacet
  facet normal 0 0 1
    outer loop
      vertex 104.5 4 -1
      vertex 108.756 7.36342 -1
      vertex 108.244 7.36342 -1
    endloop
  endfacet
  facet normal 0 0 1
    outer loop
      vertex 104.5 4 -1
      vertex 108.244 7.36342 -1
      vertex 107.743 7.46991 -1
    endloop
  endfacet
  facet normal 0 0 1
    outer loop
      vertex 104.5 4 -1
      vertex 107.743 7.46991 -1
      vertex 107.275 7.67824 -1
    endloop
  endfacet
  facet normal 0 0 1
    outer loop
      vertex 104.5 4 -1
      vertex 107.275 7.67824 -1
      vertex 106.861 7.97929 -1
    endloop
  endfacet
  facet normal 0 0 1
    outer loop
      vertex 104.5 4 -1
      vertex 106.104 9.29062 -1
      vertex 106.05 9.8 -1
    endloop
  endfacet
  facet normal 0 0 1
    outer loop
      vertex 104.5 4 -1
      vertex 106.262 8.80349 -1
      vertex 106.104 9.29062 -1
    endloop
  endfacet
  facet normal 0 0 1
    outer loop
      vertex 104.5 4 -1
      vertex 106.518 8.35993 -1
      vertex 106.262 8.80349 -1
    endloop
  endfacet
  facet normal 0 0 1
    outer loop
      vertex 104.5 4 -1
      vertex 106.861 7.97929 -1
      vertex 106.518 8.35993 -1
    endloop
  endfacet
  facet normal 0 0 1
    outer loop
      vertex 108.756 7.36342 -1
      vertex 104.5 4 -1
      vertex 114.5 5.9952e-015 -1
    endloop
  endfacet
  facet normal 0 0 1
    outer loop
      vertex 114.5 5.9952e-015 -1
      vertex 104.5 4 -1
      vertex 104.5 5.9952e-015 -1
    endloop
  endfacet
  facet normal 0 0 1
    outer loop
      vertex 106.05 9.8 -1
      vertex 101.925 4 -1
      vertex 104.5 4 -1
    endloop
  endfacet
  facet normal -0 0 1
    outer loop
      vertex 87.5 21 -3.4
      vertex 101.5 15 -3.4
      vertex 101.5 21 -3.4
    endloop
  endfacet
  facet normal 0 0 1
    outer loop
      vertex 101.5 15 -3.4
      vertex 87.5 21 -3.4
      vertex 87.5 15 -3.4
    endloop
  endfacet
  facet normal -1 0 0
    outer loop
      vertex 87.0754 4 -1
      vertex 87.0754 15 10.4246
      vertex 87.0754 15 -1
    endloop
  endfacet
  facet normal -1 -0 0
    outer loop
      vertex 87.0754 15 10.4246
      vertex 87.0754 4 -1
      vertex 87.0754 4 10.4246
    endloop
  endfacet
  facet normal -0 0 1
    outer loop
      vertex 87.0754 15 10.4246
      vertex 101.925 4 10.4246
      vertex 101.925 15 10.4246
    endloop
  endfacet
  facet normal 0 0 1
    outer loop
      vertex 101.925 4 10.4246
      vertex 87.0754 15 10.4246
      vertex 87.0754 4 10.4246
    endloop
  endfacet
  facet normal 0 1 -0
    outer loop
      vertex 88.136 15 -3.36396
      vertex 87.5 15 -1
      vertex 88.136 15 9.36396
    endloop
  endfacet
  facet normal 0 1 0
    outer loop
      vertex 88.136 15 -3.36396
      vertex 87.5 15 -3.4
      vertex 87.5 15 -1
    endloop
  endfacet
  facet normal 0 1 0
    outer loop
      vertex 87.5 15 -3.4
      vertex 88.136 15 -3.36396
      vertex 101.5 15 -3.4
    endloop
  endfacet
  facet normal 0 1 0
    outer loop
      vertex 101.925 15 10.4246
      vertex 100.864 15 9.36396
      vertex 87.0754 15 10.4246
    endloop
  endfacet
  facet normal 0 1 -0
    outer loop
      vertex 101.925 15 -1
      vertex 100.864 15 9.36396
      vertex 101.925 15 10.4246
    endloop
  endfacet
  facet normal 0 1 -0
    outer loop
      vertex 101.5 15 -1
      vertex 100.864 15 9.36396
      vertex 101.925 15 -1
    endloop
  endfacet
  facet normal 0 1 0
    outer loop
      vertex 101.5 15 -1
      vertex 100.864 15 -3.36396
      vertex 100.864 15 9.36396
    endloop
  endfacet
  facet normal 0 1 0
    outer loop
      vertex 100.864 15 -3.36396
      vertex 101.5 15 -3.4
      vertex 88.136 15 -3.36396
    endloop
  endfacet
  facet normal 0 1 -0
    outer loop
      vertex 101.5 15 -3.4
      vertex 100.864 15 -3.36396
      vertex 101.5 15 -1
    endloop
  endfacet
  facet normal 0 1 -0
    outer loop
      vertex 88.136 15 9.36396
      vertex 87.0754 15 10.4246
      vertex 100.864 15 9.36396
    endloop
  endfacet
  facet normal 0 1 0
    outer loop
      vertex 87.0754 15 -1
      vertex 88.136 15 9.36396
      vertex 87.5 15 -1
    endloop
  endfacet
  facet normal 0 1 0
    outer loop
      vertex 88.136 15 9.36396
      vertex 87.0754 15 -1
      vertex 87.0754 15 10.4246
    endloop
  endfacet
  facet normal 1 -0 0
    outer loop
      vertex 101.925 4 10.4246
      vertex 101.925 15 -1
      vertex 101.925 15 10.4246
    endloop
  endfacet
  facet normal 1 0 0
    outer loop
      vertex 101.925 15 -1
      vertex 101.925 4 10.4246
      vertex 101.925 4 -1
    endloop
  endfacet
  facet normal 1 -0 0
    outer loop
      vertex 88.136 4 9.36396
      vertex 88.136 15 -3.36396
      vertex 88.136 15 9.36396
    endloop
  endfacet
  facet normal 1 0 0
    outer loop
      vertex 88.136 15 -3.36396
      vertex 88.136 4 9.36396
      vertex 88.136 4 -3.36396
    endloop
  endfacet
  facet normal 0 0 -1
    outer loop
      vertex 88.136 4 9.36396
      vertex 100.864 15 9.36396
      vertex 100.864 4 9.36396
    endloop
  endfacet
  facet normal -0 0 -1
    outer loop
      vertex 100.864 15 9.36396
      vertex 88.136 4 9.36396
      vertex 88.136 15 9.36396
    endloop
  endfacet
  facet normal -1 0 0
    outer loop
      vertex 100.864 4 -3.36396
      vertex 100.864 15 9.36396
      vertex 100.864 15 -3.36396
    endloop
  endfacet
  facet normal -1 -0 0
    outer loop
      vertex 100.864 15 9.36396
      vertex 100.864 4 -3.36396
      vertex 100.864 4 9.36396
    endloop
  endfacet
  facet normal -0 0 1
    outer loop
      vertex 88.136 15 -3.36396
      vertex 100.864 4 -3.36396
      vertex 100.864 15 -3.36396
    endloop
  endfacet
  facet normal 0 0 1
    outer loop
      vertex 100.864 4 -3.36396
      vertex 88.136 15 -3.36396
      vertex 88.136 4 -3.36396
    endloop
  endfacet
  facet normal -0.994522 0.104523 0
    outer loop
      vertex 82.8965 9.29062 -5
      vertex 82.95 9.8 -1
      vertex 82.95 9.8 -5
    endloop
  endfacet
  facet normal -0.994522 0.104523 0
    outer loop
      vertex 82.95 9.8 -1
      vertex 82.8965 9.29062 -5
      vertex 82.8965 9.29062 -1
    endloop
  endfacet
  facet normal -0.951059 0.309011 0
    outer loop
      vertex 82.7382 8.80349 -5
      vertex 82.8965 9.29062 -1
      vertex 82.8965 9.29062 -5
    endloop
  endfacet
  facet normal -0.951059 0.309011 0
    outer loop
      vertex 82.8965 9.29062 -1
      vertex 82.7382 8.80349 -5
      vertex 82.7382 8.80349 -1
    endloop
  endfacet
  facet normal 0.207911 0.978148 -0
    outer loop
      vertex 80.2439 7.36342 -5
      vertex 79.7429 7.46991 -1
      vertex 80.2439 7.36342 -1
    endloop
  endfacet
  facet normal 0.207911 0.978148 0
    outer loop
      vertex 79.7429 7.46991 -1
      vertex 80.2439 7.36342 -5
      vertex 79.7429 7.46991 -5
    endloop
  endfacet
  facet normal -0.587781 0.80902 0
    outer loop
      vertex 82.1394 7.97929 -5
      vertex 81.725 7.67824 -1
      vertex 82.1394 7.97929 -1
    endloop
  endfacet
  facet normal -0.587781 0.80902 0
    outer loop
      vertex 81.725 7.67824 -1
      vertex 82.1394 7.97929 -5
      vertex 81.725 7.67824 -5
    endloop
  endfacet
  facet normal 0.587781 0.80902 -0
    outer loop
      vertex 79.275 7.67824 -5
      vertex 78.8606 7.97929 -1
      vertex 79.275 7.67824 -1
    endloop
  endfacet
  facet normal 0.587781 0.80902 0
    outer loop
      vertex 78.8606 7.97929 -1
      vertex 79.275 7.67824 -5
      vertex 78.8606 7.97929 -5
    endloop
  endfacet
  facet normal -0.951058 -0.309011 0
    outer loop
      vertex 82.8965 10.3094 -5
      vertex 82.7382 10.7965 -1
      vertex 82.7382 10.7965 -5
    endloop
  endfacet
  facet normal -0.951058 -0.309011 0
    outer loop
      vertex 82.7382 10.7965 -1
      vertex 82.8965 10.3094 -5
      vertex 82.8965 10.3094 -1
    endloop
  endfacet
  facet normal -0.866024 0.500002 0
    outer loop
      vertex 82.4821 8.35993 -5
      vertex 82.7382 8.80349 -1
      vertex 82.7382 8.80349 -5
    endloop
  endfacet
  facet normal -0.866024 0.500002 0
    outer loop
      vertex 82.7382 8.80349 -1
      vertex 82.4821 8.35993 -5
      vertex 82.4821 8.35993 -1
    endloop
  endfacet
  facet normal -0.207911 0.978148 0
    outer loop
      vertex 81.2571 7.46991 -5
      vertex 80.7561 7.36342 -1
      vertex 81.2571 7.46991 -1
    endloop
  endfacet
  facet normal -0.207911 0.978148 0
    outer loop
      vertex 80.7561 7.36342 -1
      vertex 81.2571 7.46991 -5
      vertex 80.7561 7.36342 -5
    endloop
  endfacet
  facet normal -0.406741 0.913544 0
    outer loop
      vertex 81.725 7.67824 -5
      vertex 81.2571 7.46991 -1
      vertex 81.725 7.67824 -1
    endloop
  endfacet
  facet normal -0.406741 0.913544 0
    outer loop
      vertex 81.2571 7.46991 -1
      vertex 81.725 7.67824 -5
      vertex 81.2571 7.46991 -5
    endloop
  endfacet
  facet normal 0.951059 0.309011 0
    outer loop
      vertex 78.2618 8.80349 -1
      vertex 78.1035 9.29062 -5
      vertex 78.1035 9.29062 -1
    endloop
  endfacet
  facet normal 0.951059 0.309011 0
    outer loop
      vertex 78.1035 9.29062 -5
      vertex 78.2618 8.80349 -1
      vertex 78.2618 8.80349 -5
    endloop
  endfacet
  facet normal 0.406741 0.913544 -0
    outer loop
      vertex 79.7429 7.46991 -5
      vertex 79.275 7.67824 -1
      vertex 79.7429 7.46991 -1
    endloop
  endfacet
  facet normal 0.406741 0.913544 0
    outer loop
      vertex 79.275 7.67824 -1
      vertex 79.7429 7.46991 -5
      vertex 79.275 7.67824 -5
    endloop
  endfacet
  facet normal -0.994522 -0.104523 0
    outer loop
      vertex 82.95 9.8 -5
      vertex 82.8965 10.3094 -1
      vertex 82.8965 10.3094 -5
    endloop
  endfacet
  facet normal -0.994522 -0.104523 0
    outer loop
      vertex 82.8965 10.3094 -1
      vertex 82.95 9.8 -5
      vertex 82.95 9.8 -1
    endloop
  endfacet
  facet normal 0 -1 0
    outer loop
      vertex 80.2439 12.2366 -5
      vertex 80.7561 12.2366 -1
      vertex 80.2439 12.2366 -1
    endloop
  endfacet
  facet normal 0 -1 -0
    outer loop
      vertex 80.7561 12.2366 -1
      vertex 80.2439 12.2366 -5
      vertex 80.7561 12.2366 -5
    endloop
  endfacet
  facet normal 0.951058 -0.309011 0
    outer loop
      vertex 78.1035 10.3094 -1
      vertex 78.2618 10.7965 -5
      vertex 78.2618 10.7965 -1
    endloop
  endfacet
  facet normal 0.951058 -0.309011 0
    outer loop
      vertex 78.2618 10.7965 -5
      vertex 78.1035 10.3094 -1
      vertex 78.1035 10.3094 -5
    endloop
  endfacet
  facet normal -0.207911 -0.978148 0
    outer loop
      vertex 80.7561 12.2366 -5
      vertex 81.2571 12.1301 -1
      vertex 80.7561 12.2366 -1
    endloop
  endfacet
  facet normal -0.207911 -0.978148 -0
    outer loop
      vertex 81.2571 12.1301 -1
      vertex 80.7561 12.2366 -5
      vertex 81.2571 12.1301 -5
    endloop
  endfacet
  facet normal -0.743146 0.669129 0
    outer loop
      vertex 82.1394 7.97929 -5
      vertex 82.4821 8.35993 -1
      vertex 82.4821 8.35993 -5
    endloop
  endfacet
  facet normal -0.743146 0.669129 0
    outer loop
      vertex 82.4821 8.35993 -1
      vertex 82.1394 7.97929 -5
      vertex 82.1394 7.97929 -1
    endloop
  endfacet
  facet normal 0 1 -0
    outer loop
      vertex 80.7561 7.36342 -5
      vertex 80.2439 7.36342 -1
      vertex 80.7561 7.36342 -1
    endloop
  endfacet
  facet normal 0 1 0
    outer loop
      vertex 80.2439 7.36342 -1
      vertex 80.7561 7.36342 -5
      vertex 80.2439 7.36342 -5
    endloop
  endfacet
  facet normal 0.994522 0.104523 0
    outer loop
      vertex 78.1035 9.29062 -1
      vertex 78.05 9.8 -5
      vertex 78.05 9.8 -1
    endloop
  endfacet
  facet normal 0.994522 0.104523 0
    outer loop
      vertex 78.05 9.8 -5
      vertex 78.1035 9.29062 -1
      vertex 78.1035 9.29062 -5
    endloop
  endfacet
  facet normal 0.994522 -0.104523 0
    outer loop
      vertex 78.05 9.8 -1
      vertex 78.1035 10.3094 -5
      vertex 78.1035 10.3094 -1
    endloop
  endfacet
  facet normal 0.994522 -0.104523 0
    outer loop
      vertex 78.1035 10.3094 -5
      vertex 78.05 9.8 -1
      vertex 78.05 9.8 -5
    endloop
  endfacet
  facet normal 0.743146 0.669129 0
    outer loop
      vertex 78.8606 7.97929 -1
      vertex 78.5179 8.35993 -5
      vertex 78.5179 8.35993 -1
    endloop
  endfacet
  facet normal 0.743146 0.669129 0
    outer loop
      vertex 78.5179 8.35993 -5
      vertex 78.8606 7.97929 -1
      vertex 78.8606 7.97929 -5
    endloop
  endfacet
  facet normal 0.866024 0.500002 0
    outer loop
      vertex 78.5179 8.35993 -1
      vertex 78.2618 8.80349 -5
      vertex 78.2618 8.80349 -1
    endloop
  endfacet
  facet normal 0.866024 0.500002 0
    outer loop
      vertex 78.2618 8.80349 -5
      vertex 78.5179 8.35993 -1
      vertex 78.5179 8.35993 -5
    endloop
  endfacet
  facet normal 0.743147 -0.669128 0
    outer loop
      vertex 78.5179 11.2401 -1
      vertex 78.8606 11.6207 -5
      vertex 78.8606 11.6207 -1
    endloop
  endfacet
  facet normal 0.743147 -0.669128 0
    outer loop
      vertex 78.8606 11.6207 -5
      vertex 78.5179 11.2401 -1
      vertex 78.5179 11.2401 -5
    endloop
  endfacet
  facet normal -0.406741 -0.913544 0
    outer loop
      vertex 81.2571 12.1301 -5
      vertex 81.725 11.9218 -1
      vertex 81.2571 12.1301 -1
    endloop
  endfacet
  facet normal -0.406741 -0.913544 -0
    outer loop
      vertex 81.725 11.9218 -1
      vertex 81.2571 12.1301 -5
      vertex 81.725 11.9218 -5
    endloop
  endfacet
  facet normal 0.866024 -0.500002 0
    outer loop
      vertex 78.2618 10.7965 -1
      vertex 78.5179 11.2401 -5
      vertex 78.5179 11.2401 -1
    endloop
  endfacet
  facet normal 0.866024 -0.500002 0
    outer loop
      vertex 78.5179 11.2401 -5
      vertex 78.2618 10.7965 -1
      vertex 78.2618 10.7965 -5
    endloop
  endfacet
  facet normal -0.58778 -0.809021 0
    outer loop
      vertex 81.725 11.9218 -5
      vertex 82.1394 11.6207 -1
      vertex 81.725 11.9218 -1
    endloop
  endfacet
  facet normal -0.58778 -0.809021 -0
    outer loop
      vertex 82.1394 11.6207 -1
      vertex 81.725 11.9218 -5
      vertex 82.1394 11.6207 -5
    endloop
  endfacet
  facet normal -0.743147 -0.669128 0
    outer loop
      vertex 82.4821 11.2401 -5
      vertex 82.1394 11.6207 -1
      vertex 82.1394 11.6207 -5
    endloop
  endfacet
  facet normal -0.743147 -0.669128 0
    outer loop
      vertex 82.1394 11.6207 -1
      vertex 82.4821 11.2401 -5
      vertex 82.4821 11.2401 -1
    endloop
  endfacet
  facet normal -0.866024 -0.500002 0
    outer loop
      vertex 82.7382 10.7965 -5
      vertex 82.4821 11.2401 -1
      vertex 82.4821 11.2401 -5
    endloop
  endfacet
  facet normal -0.866024 -0.500002 0
    outer loop
      vertex 82.4821 11.2401 -1
      vertex 82.7382 10.7965 -5
      vertex 82.7382 10.7965 -1
    endloop
  endfacet
  facet normal 0.207911 -0.978148 0
    outer loop
      vertex 79.7429 12.1301 -5
      vertex 80.2439 12.2366 -1
      vertex 79.7429 12.1301 -1
    endloop
  endfacet
  facet normal 0.207911 -0.978148 0
    outer loop
      vertex 80.2439 12.2366 -1
      vertex 79.7429 12.1301 -5
      vertex 80.2439 12.2366 -5
    endloop
  endfacet
  facet normal 0.58778 -0.809021 0
    outer loop
      vertex 78.8606 11.6207 -5
      vertex 79.275 11.9218 -1
      vertex 78.8606 11.6207 -1
    endloop
  endfacet
  facet normal 0.58778 -0.809021 0
    outer loop
      vertex 79.275 11.9218 -1
      vertex 78.8606 11.6207 -5
      vertex 79.275 11.9218 -5
    endloop
  endfacet
  facet normal 0.406741 -0.913544 0
    outer loop
      vertex 79.275 11.9218 -5
      vertex 79.7429 12.1301 -1
      vertex 79.275 11.9218 -1
    endloop
  endfacet
  facet normal 0.406741 -0.913544 0
    outer loop
      vertex 79.7429 12.1301 -1
      vertex 79.275 11.9218 -5
      vertex 79.7429 12.1301 -5
    endloop
  endfacet
  facet normal -0.994522 0.104523 0
    outer loop
      vertex 110.896 9.29062 -5
      vertex 110.95 9.8 -1
      vertex 110.95 9.8 -5
    endloop
  endfacet
  facet normal -0.994522 0.104523 0
    outer loop
      vertex 110.95 9.8 -1
      vertex 110.896 9.29062 -5
      vertex 110.896 9.29062 -1
    endloop
  endfacet
  facet normal -0.951059 0.309011 0
    outer loop
      vertex 110.738 8.80349 -5
      vertex 110.896 9.29062 -1
      vertex 110.896 9.29062 -5
    endloop
  endfacet
  facet normal -0.951059 0.309011 0
    outer loop
      vertex 110.896 9.29062 -1
      vertex 110.738 8.80349 -5
      vertex 110.738 8.80349 -1
    endloop
  endfacet
  facet normal 0.207911 0.978148 -0
    outer loop
      vertex 108.244 7.36342 -5
      vertex 107.743 7.46991 -1
      vertex 108.244 7.36342 -1
    endloop
  endfacet
  facet normal 0.207911 0.978148 0
    outer loop
      vertex 107.743 7.46991 -1
      vertex 108.244 7.36342 -5
      vertex 107.743 7.46991 -5
    endloop
  endfacet
  facet normal -0.587781 0.80902 0
    outer loop
      vertex 110.139 7.97929 -5
      vertex 109.725 7.67824 -1
      vertex 110.139 7.97929 -1
    endloop
  endfacet
  facet normal -0.587781 0.80902 0
    outer loop
      vertex 109.725 7.67824 -1
      vertex 110.139 7.97929 -5
      vertex 109.725 7.67824 -5
    endloop
  endfacet
  facet normal 0.587781 0.80902 -0
    outer loop
      vertex 107.275 7.67824 -5
      vertex 106.861 7.97929 -1
      vertex 107.275 7.67824 -1
    endloop
  endfacet
  facet normal 0.587781 0.80902 0
    outer loop
      vertex 106.861 7.97929 -1
      vertex 107.275 7.67824 -5
      vertex 106.861 7.97929 -5
    endloop
  endfacet
  facet normal -0.951058 -0.309011 0
    outer loop
      vertex 110.896 10.3094 -5
      vertex 110.738 10.7965 -1
      vertex 110.738 10.7965 -5
    endloop
  endfacet
  facet normal -0.951058 -0.309011 0
    outer loop
      vertex 110.738 10.7965 -1
      vertex 110.896 10.3094 -5
      vertex 110.896 10.3094 -1
    endloop
  endfacet
  facet normal -0.866024 0.500002 0
    outer loop
      vertex 110.482 8.35993 -5
      vertex 110.738 8.80349 -1
      vertex 110.738 8.80349 -5
    endloop
  endfacet
  facet normal -0.866024 0.500002 0
    outer loop
      vertex 110.738 8.80349 -1
      vertex 110.482 8.35993 -5
      vertex 110.482 8.35993 -1
    endloop
  endfacet
  facet normal -0.207911 0.978148 0
    outer loop
      vertex 109.257 7.46991 -5
      vertex 108.756 7.36342 -1
      vertex 109.257 7.46991 -1
    endloop
  endfacet
  facet normal -0.207911 0.978148 0
    outer loop
      vertex 108.756 7.36342 -1
      vertex 109.257 7.46991 -5
      vertex 108.756 7.36342 -5
    endloop
  endfacet
  facet normal -0.406741 0.913544 0
    outer loop
      vertex 109.725 7.67824 -5
      vertex 109.257 7.46991 -1
      vertex 109.725 7.67824 -1
    endloop
  endfacet
  facet normal -0.406741 0.913544 0
    outer loop
      vertex 109.257 7.46991 -1
      vertex 109.725 7.67824 -5
      vertex 109.257 7.46991 -5
    endloop
  endfacet
  facet normal 0.951059 0.309011 0
    outer loop
      vertex 106.262 8.80349 -1
      vertex 106.104 9.29062 -5
      vertex 106.104 9.29062 -1
    endloop
  endfacet
  facet normal 0.951059 0.309011 0
    outer loop
      vertex 106.104 9.29062 -5
      vertex 106.262 8.80349 -1
      vertex 106.262 8.80349 -5
    endloop
  endfacet
  facet normal 0.406741 0.913544 -0
    outer loop
      vertex 107.743 7.46991 -5
      vertex 107.275 7.67824 -1
      vertex 107.743 7.46991 -1
    endloop
  endfacet
  facet normal 0.406741 0.913544 0
    outer loop
      vertex 107.275 7.67824 -1
      vertex 107.743 7.46991 -5
      vertex 107.275 7.67824 -5
    endloop
  endfacet
  facet normal -0.994522 -0.104523 0
    outer loop
      vertex 110.95 9.8 -5
      vertex 110.896 10.3094 -1
      vertex 110.896 10.3094 -5
    endloop
  endfacet
  facet normal -0.994522 -0.104523 0
    outer loop
      vertex 110.896 10.3094 -1
      vertex 110.95 9.8 -5
      vertex 110.95 9.8 -1
    endloop
  endfacet
  facet normal 0 -1 0
    outer loop
      vertex 108.244 12.2366 -5
      vertex 108.756 12.2366 -1
      vertex 108.244 12.2366 -1
    endloop
  endfacet
  facet normal 0 -1 -0
    outer loop
      vertex 108.756 12.2366 -1
      vertex 108.244 12.2366 -5
      vertex 108.756 12.2366 -5
    endloop
  endfacet
  facet normal 0.951058 -0.309011 0
    outer loop
      vertex 106.104 10.3094 -1
      vertex 106.262 10.7965 -5
      vertex 106.262 10.7965 -1
    endloop
  endfacet
  facet normal 0.951058 -0.309011 0
    outer loop
      vertex 106.262 10.7965 -5
      vertex 106.104 10.3094 -1
      vertex 106.104 10.3094 -5
    endloop
  endfacet
  facet normal -0.207911 -0.978148 0
    outer loop
      vertex 108.756 12.2366 -5
      vertex 109.257 12.1301 -1
      vertex 108.756 12.2366 -1
    endloop
  endfacet
  facet normal -0.207911 -0.978148 -0
    outer loop
      vertex 109.257 12.1301 -1
      vertex 108.756 12.2366 -5
      vertex 109.257 12.1301 -5
    endloop
  endfacet
  facet normal -0.743146 0.669129 0
    outer loop
      vertex 110.139 7.97929 -5
      vertex 110.482 8.35993 -1
      vertex 110.482 8.35993 -5
    endloop
  endfacet
  facet normal -0.743146 0.669129 0
    outer loop
      vertex 110.482 8.35993 -1
      vertex 110.139 7.97929 -5
      vertex 110.139 7.97929 -1
    endloop
  endfacet
  facet normal 0 1 -0
    outer loop
      vertex 108.756 7.36342 -5
      vertex 108.244 7.36342 -1
      vertex 108.756 7.36342 -1
    endloop
  endfacet
  facet normal 0 1 0
    outer loop
      vertex 108.244 7.36342 -1
      vertex 108.756 7.36342 -5
      vertex 108.244 7.36342 -5
    endloop
  endfacet
  facet normal 0.994522 0.104523 0
    outer loop
      vertex 106.104 9.29062 -1
      vertex 106.05 9.8 -5
      vertex 106.05 9.8 -1
    endloop
  endfacet
  facet normal 0.994522 0.104523 0
    outer loop
      vertex 106.05 9.8 -5
      vertex 106.104 9.29062 -1
      vertex 106.104 9.29062 -5
    endloop
  endfacet
  facet normal 0.994522 -0.104523 0
    outer loop
      vertex 106.05 9.8 -1
      vertex 106.104 10.3094 -5
      vertex 106.104 10.3094 -1
    endloop
  endfacet
  facet normal 0.994522 -0.104523 0
    outer loop
      vertex 106.104 10.3094 -5
      vertex 106.05 9.8 -1
      vertex 106.05 9.8 -5
    endloop
  endfacet
  facet normal 0.743146 0.669129 0
    outer loop
      vertex 106.861 7.97929 -1
      vertex 106.518 8.35993 -5
      vertex 106.518 8.35993 -1
    endloop
  endfacet
  facet normal 0.743146 0.669129 0
    outer loop
      vertex 106.518 8.35993 -5
      vertex 106.861 7.97929 -1
      vertex 106.861 7.97929 -5
    endloop
  endfacet
  facet normal 0.866024 0.500002 0
    outer loop
      vertex 106.518 8.35993 -1
      vertex 106.262 8.80349 -5
      vertex 106.262 8.80349 -1
    endloop
  endfacet
  facet normal 0.866024 0.500002 0
    outer loop
      vertex 106.262 8.80349 -5
      vertex 106.518 8.35993 -1
      vertex 106.518 8.35993 -5
    endloop
  endfacet
  facet normal 0.743147 -0.669128 0
    outer loop
      vertex 106.518 11.2401 -1
      vertex 106.861 11.6207 -5
      vertex 106.861 11.6207 -1
    endloop
  endfacet
  facet normal 0.743147 -0.669128 0
    outer loop
      vertex 106.861 11.6207 -5
      vertex 106.518 11.2401 -1
      vertex 106.518 11.2401 -5
    endloop
  endfacet
  facet normal -0.406741 -0.913544 0
    outer loop
      vertex 109.257 12.1301 -5
      vertex 109.725 11.9218 -1
      vertex 109.257 12.1301 -1
    endloop
  endfacet
  facet normal -0.406741 -0.913544 -0
    outer loop
      vertex 109.725 11.9218 -1
      vertex 109.257 12.1301 -5
      vertex 109.725 11.9218 -5
    endloop
  endfacet
  facet normal 0.866024 -0.500002 0
    outer loop
      vertex 106.262 10.7965 -1
      vertex 106.518 11.2401 -5
      vertex 106.518 11.2401 -1
    endloop
  endfacet
  facet normal 0.866024 -0.500002 0
    outer loop
      vertex 106.518 11.2401 -5
      vertex 106.262 10.7965 -1
      vertex 106.262 10.7965 -5
    endloop
  endfacet
  facet normal -0.58778 -0.809021 0
    outer loop
      vertex 109.725 11.9218 -5
      vertex 110.139 11.6207 -1
      vertex 109.725 11.9218 -1
    endloop
  endfacet
  facet normal -0.58778 -0.809021 -0
    outer loop
      vertex 110.139 11.6207 -1
      vertex 109.725 11.9218 -5
      vertex 110.139 11.6207 -5
    endloop
  endfacet
  facet normal -0.743147 -0.669128 0
    outer loop
      vertex 110.482 11.2401 -5
      vertex 110.139 11.6207 -1
      vertex 110.139 11.6207 -5
    endloop
  endfacet
  facet normal -0.743147 -0.669128 0
    outer loop
      vertex 110.139 11.6207 -1
      vertex 110.482 11.2401 -5
      vertex 110.482 11.2401 -1
    endloop
  endfacet
  facet normal -0.866024 -0.500002 0
    outer loop
      vertex 110.738 10.7965 -5
      vertex 110.482 11.2401 -1
      vertex 110.482 11.2401 -5
    endloop
  endfacet
  facet normal -0.866024 -0.500002 0
    outer loop
      vertex 110.482 11.2401 -1
      vertex 110.738 10.7965 -5
      vertex 110.738 10.7965 -1
    endloop
  endfacet
  facet normal 0.207911 -0.978148 0
    outer loop
      vertex 107.743 12.1301 -5
      vertex 108.244 12.2366 -1
      vertex 107.743 12.1301 -1
    endloop
  endfacet
  facet normal 0.207911 -0.978148 0
    outer loop
      vertex 108.244 12.2366 -1
      vertex 107.743 12.1301 -5
      vertex 108.244 12.2366 -5
    endloop
  endfacet
  facet normal 0.58778 -0.809021 0
    outer loop
      vertex 106.861 11.6207 -5
      vertex 107.275 11.9218 -1
      vertex 106.861 11.6207 -1
    endloop
  endfacet
  facet normal 0.58778 -0.809021 0
    outer loop
      vertex 107.275 11.9218 -1
      vertex 106.861 11.6207 -5
      vertex 107.275 11.9218 -5
    endloop
  endfacet
  facet normal 0.406741 -0.913544 0
    outer loop
      vertex 107.275 11.9218 -5
      vertex 107.743 12.1301 -1
      vertex 107.275 11.9218 -1
    endloop
  endfacet
  facet normal 0.406741 -0.913544 0
    outer loop
      vertex 107.743 12.1301 -1
      vertex 107.275 11.9218 -5
      vertex 107.743 12.1301 -5
    endloop
  endfacet
endsolid OpenSCAD_Model
