solid OpenSCAD_Model
  facet normal -1 0 0
    outer loop
      vertex 125 142.5 148
      vertex 125 157.5 154
      vertex 125 157.5 148
    endloop
  endfacet
  facet normal -1 -0 0
    outer loop
      vertex 125 157.5 154
      vertex 125 142.5 148
      vertex 125 142.5 154
    endloop
  endfacet
  facet normal 0 0 1
    outer loop
      vertex 157.066 150.624 154
      vertex 137.934 150.624 154
      vertex 138 150 154
    endloop
  endfacet
  facet normal 0 0 1
    outer loop
      vertex 155 157.5 154
      vertex 137.741 151.22 154
      vertex 137.934 150.624 154
    endloop
  endfacet
  facet normal 0 0 1
    outer loop
      vertex 155 157.5 154
      vertex 137.427 151.763 154
      vertex 137.741 151.22 154
    endloop
  endfacet
  facet normal 0 0 1
    outer loop
      vertex 155 157.5 154
      vertex 137.007 152.229 154
      vertex 137.427 151.763 154
    endloop
  endfacet
  facet normal 0 0 1
    outer loop
      vertex 155 157.5 154
      vertex 136.5 152.598 154
      vertex 137.007 152.229 154
    endloop
  endfacet
  facet normal 0 0 1
    outer loop
      vertex 155 157.5 154
      vertex 135.927 152.853 154
      vertex 136.5 152.598 154
    endloop
  endfacet
  facet normal 0 0 1
    outer loop
      vertex 155 157.5 154
      vertex 135.314 152.984 154
      vertex 135.927 152.853 154
    endloop
  endfacet
  facet normal -0 0 1
    outer loop
      vertex 125 157.5 154
      vertex 135.314 152.984 154
      vertex 155 157.5 154
    endloop
  endfacet
  facet normal 0 0 1
    outer loop
      vertex 135.314 152.984 154
      vertex 125 157.5 154
      vertex 134.686 152.984 154
    endloop
  endfacet
  facet normal 0 0 1
    outer loop
      vertex 132.066 150.624 154
      vertex 125 157.5 154
      vertex 132 150 154
    endloop
  endfacet
  facet normal 0 0 1
    outer loop
      vertex 132.259 151.22 154
      vertex 125 157.5 154
      vertex 132.066 150.624 154
    endloop
  endfacet
  facet normal 0 0 1
    outer loop
      vertex 132.573 151.763 154
      vertex 125 157.5 154
      vertex 132.259 151.22 154
    endloop
  endfacet
  facet normal 0 0 1
    outer loop
      vertex 132.993 152.229 154
      vertex 125 157.5 154
      vertex 132.573 151.763 154
    endloop
  endfacet
  facet normal 0 0 1
    outer loop
      vertex 133.5 152.598 154
      vertex 125 157.5 154
      vertex 132.993 152.229 154
    endloop
  endfacet
  facet normal 0 0 1
    outer loop
      vertex 134.073 152.853 154
      vertex 125 157.5 154
      vertex 133.5 152.598 154
    endloop
  endfacet
  facet normal 0 0 1
    outer loop
      vertex 134.686 152.984 154
      vertex 125 157.5 154
      vertex 134.073 152.853 154
    endloop
  endfacet
  facet normal 0 0 1
    outer loop
      vertex 168 157.5 154
      vertex 163 150 154
      vertex 168 142.5 154
    endloop
  endfacet
  facet normal 0 0 1
    outer loop
      vertex 168 157.5 154
      vertex 162.934 150.624 154
      vertex 163 150 154
    endloop
  endfacet
  facet normal 0 0 1
    outer loop
      vertex 168 157.5 154
      vertex 162.741 151.22 154
      vertex 162.934 150.624 154
    endloop
  endfacet
  facet normal 0 0 1
    outer loop
      vertex 168 157.5 154
      vertex 162.427 151.763 154
      vertex 162.741 151.22 154
    endloop
  endfacet
  facet normal 0 0 1
    outer loop
      vertex 168 157.5 154
      vertex 162.007 152.229 154
      vertex 162.427 151.763 154
    endloop
  endfacet
  facet normal 0 0 1
    outer loop
      vertex 168 157.5 154
      vertex 161.5 152.598 154
      vertex 162.007 152.229 154
    endloop
  endfacet
  facet normal 0 0 1
    outer loop
      vertex 168 157.5 154
      vertex 160.927 152.853 154
      vertex 161.5 152.598 154
    endloop
  endfacet
  facet normal 0 0 1
    outer loop
      vertex 168 157.5 154
      vertex 160.314 152.984 154
      vertex 160.927 152.853 154
    endloop
  endfacet
  facet normal -0 0 1
    outer loop
      vertex 155 157.5 154
      vertex 160.314 152.984 154
      vertex 168 157.5 154
    endloop
  endfacet
  facet normal 0 0 1
    outer loop
      vertex 160.314 152.984 154
      vertex 155 157.5 154
      vertex 159.686 152.984 154
    endloop
  endfacet
  facet normal 0 0 1
    outer loop
      vertex 159.686 152.984 154
      vertex 155 157.5 154
      vertex 159.073 152.853 154
    endloop
  endfacet
  facet normal 0 0 1
    outer loop
      vertex 137.934 150.624 154
      vertex 157.066 150.624 154
      vertex 155 157.5 154
    endloop
  endfacet
  facet normal 0 0 1
    outer loop
      vertex 157.259 151.22 154
      vertex 155 157.5 154
      vertex 157.066 150.624 154
    endloop
  endfacet
  facet normal 0 0 1
    outer loop
      vertex 157.573 151.763 154
      vertex 155 157.5 154
      vertex 157.259 151.22 154
    endloop
  endfacet
  facet normal 0 0 1
    outer loop
      vertex 157.993 152.229 154
      vertex 155 157.5 154
      vertex 157.573 151.763 154
    endloop
  endfacet
  facet normal 0 0 1
    outer loop
      vertex 158.5 152.598 154
      vertex 155 157.5 154
      vertex 157.993 152.229 154
    endloop
  endfacet
  facet normal 0 0 1
    outer loop
      vertex 159.073 152.853 154
      vertex 155 157.5 154
      vertex 158.5 152.598 154
    endloop
  endfacet
  facet normal -0 0 1
    outer loop
      vertex 162.934 149.376 154
      vertex 168 142.5 154
      vertex 163 150 154
    endloop
  endfacet
  facet normal -0 0 1
    outer loop
      vertex 162.741 148.78 154
      vertex 168 142.5 154
      vertex 162.934 149.376 154
    endloop
  endfacet
  facet normal -0 0 1
    outer loop
      vertex 162.427 148.237 154
      vertex 168 142.5 154
      vertex 162.741 148.78 154
    endloop
  endfacet
  facet normal -0 0 1
    outer loop
      vertex 162.007 147.771 154
      vertex 168 142.5 154
      vertex 162.427 148.237 154
    endloop
  endfacet
  facet normal -0 0 1
    outer loop
      vertex 161.5 147.402 154
      vertex 168 142.5 154
      vertex 162.007 147.771 154
    endloop
  endfacet
  facet normal -0 0 1
    outer loop
      vertex 160.927 147.147 154
      vertex 168 142.5 154
      vertex 161.5 147.402 154
    endloop
  endfacet
  facet normal -0 0 1
    outer loop
      vertex 160.314 147.016 154
      vertex 168 142.5 154
      vertex 160.927 147.147 154
    endloop
  endfacet
  facet normal -0 0 1
    outer loop
      vertex 159.686 147.016 154
      vertex 168 142.5 154
      vertex 160.314 147.016 154
    endloop
  endfacet
  facet normal 0 0 1
    outer loop
      vertex 159.073 147.147 154
      vertex 168 142.5 154
      vertex 159.686 147.016 154
    endloop
  endfacet
  facet normal 0 0 1
    outer loop
      vertex 135.927 147.147 154
      vertex 159.073 147.147 154
      vertex 158.5 147.402 154
    endloop
  endfacet
  facet normal 0 0 1
    outer loop
      vertex 157.066 150.624 154
      vertex 138 150 154
      vertex 157 150 154
    endloop
  endfacet
  facet normal 0 0 1
    outer loop
      vertex 157 150 154
      vertex 138 150 154
      vertex 157.066 149.376 154
    endloop
  endfacet
  facet normal 0 0 1
    outer loop
      vertex 137.934 149.376 154
      vertex 157.066 149.376 154
      vertex 138 150 154
    endloop
  endfacet
  facet normal 0 0 1
    outer loop
      vertex 157.066 149.376 154
      vertex 137.934 149.376 154
      vertex 157.259 148.78 154
    endloop
  endfacet
  facet normal 0 0 1
    outer loop
      vertex 137.741 148.78 154
      vertex 157.259 148.78 154
      vertex 137.934 149.376 154
    endloop
  endfacet
  facet normal 0 0 1
    outer loop
      vertex 157.259 148.78 154
      vertex 137.741 148.78 154
      vertex 157.573 148.237 154
    endloop
  endfacet
  facet normal 0 0 1
    outer loop
      vertex 137.427 148.237 154
      vertex 157.573 148.237 154
      vertex 137.741 148.78 154
    endloop
  endfacet
  facet normal 0 0 1
    outer loop
      vertex 157.573 148.237 154
      vertex 137.427 148.237 154
      vertex 157.993 147.771 154
    endloop
  endfacet
  facet normal 0 0 1
    outer loop
      vertex 137.007 147.771 154
      vertex 157.993 147.771 154
      vertex 137.427 148.237 154
    endloop
  endfacet
  facet normal 0 0 1
    outer loop
      vertex 157.993 147.771 154
      vertex 137.007 147.771 154
      vertex 158.5 147.402 154
    endloop
  endfacet
  facet normal 0 0 1
    outer loop
      vertex 136.5 147.402 154
      vertex 158.5 147.402 154
      vertex 137.007 147.771 154
    endloop
  endfacet
  facet normal 0 0 1
    outer loop
      vertex 135.927 147.147 154
      vertex 158.5 147.402 154
      vertex 136.5 147.402 154
    endloop
  endfacet
  facet normal 0 0 1
    outer loop
      vertex 159.073 147.147 154
      vertex 135.927 147.147 154
      vertex 168 142.5 154
    endloop
  endfacet
  facet normal 0 0 1
    outer loop
      vertex 125 142.5 154
      vertex 135.927 147.147 154
      vertex 135.314 147.016 154
    endloop
  endfacet
  facet normal 0 0 1
    outer loop
      vertex 125 142.5 154
      vertex 135.314 147.016 154
      vertex 134.686 147.016 154
    endloop
  endfacet
  facet normal 0 0 1
    outer loop
      vertex 125 142.5 154
      vertex 132 150 154
      vertex 125 157.5 154
    endloop
  endfacet
  facet normal 0 0 1
    outer loop
      vertex 132 150 154
      vertex 125 142.5 154
      vertex 132.066 149.376 154
    endloop
  endfacet
  facet normal 0 0 1
    outer loop
      vertex 132.066 149.376 154
      vertex 125 142.5 154
      vertex 132.259 148.78 154
    endloop
  endfacet
  facet normal 0 0 1
    outer loop
      vertex 135.927 147.147 154
      vertex 125 142.5 154
      vertex 168 142.5 154
    endloop
  endfacet
  facet normal 0 0 1
    outer loop
      vertex 134.073 147.147 154
      vertex 125 142.5 154
      vertex 134.686 147.016 154
    endloop
  endfacet
  facet normal 0 0 1
    outer loop
      vertex 133.5 147.402 154
      vertex 125 142.5 154
      vertex 134.073 147.147 154
    endloop
  endfacet
  facet normal 0 0 1
    outer loop
      vertex 132.993 147.771 154
      vertex 125 142.5 154
      vertex 133.5 147.402 154
    endloop
  endfacet
  facet normal 0 0 1
    outer loop
      vertex 132.573 148.237 154
      vertex 125 142.5 154
      vertex 132.993 147.771 154
    endloop
  endfacet
  facet normal 0 0 1
    outer loop
      vertex 132.259 148.78 154
      vertex 125 142.5 154
      vertex 132.573 148.237 154
    endloop
  endfacet
  facet normal 1 0 0
    outer loop
      vertex 168 168.84 157.807
      vertex 168 177.5 163
      vertex 168 168.84 158.193
    endloop
  endfacet
  facet normal 1 0 0
    outer loop
      vertex 168 177.5 163
      vertex 168 168.759 158.572
      vertex 168 168.84 158.193
    endloop
  endfacet
  facet normal 1 0 0
    outer loop
      vertex 168 177.5 163
      vertex 168 168.602 158.925
      vertex 168 168.759 158.572
    endloop
  endfacet
  facet normal 1 0 0
    outer loop
      vertex 168 177.5 163
      vertex 168 168.375 159.238
      vertex 168 168.602 158.925
    endloop
  endfacet
  facet normal 1 0 0
    outer loop
      vertex 168 177.5 163
      vertex 168 168.087 159.497
      vertex 168 168.375 159.238
    endloop
  endfacet
  facet normal 1 0 0
    outer loop
      vertex 168 177.5 163
      vertex 168 167.752 159.69
      vertex 168 168.087 159.497
    endloop
  endfacet
  facet normal 1 0 0
    outer loop
      vertex 168 177.5 163
      vertex 168 167.385 159.81
      vertex 168 167.752 159.69
    endloop
  endfacet
  facet normal 1 0 0
    outer loop
      vertex 168 177.5 163
      vertex 168 167 159.85
      vertex 168 167.385 159.81
    endloop
  endfacet
  facet normal 1 -0 0
    outer loop
      vertex 168 157.5 163
      vertex 168 167 159.85
      vertex 168 177.5 163
    endloop
  endfacet
  facet normal 1 0 0
    outer loop
      vertex 168 157.5 154
      vertex 168 165.16 158.193
      vertex 168 157.5 163
    endloop
  endfacet
  facet normal 1 0 0
    outer loop
      vertex 168 165.241 158.572
      vertex 168 157.5 163
      vertex 168 165.16 158.193
    endloop
  endfacet
  facet normal 1 0 0
    outer loop
      vertex 168 165.398 158.925
      vertex 168 157.5 163
      vertex 168 165.241 158.572
    endloop
  endfacet
  facet normal 1 0 0
    outer loop
      vertex 168 165.625 159.238
      vertex 168 157.5 163
      vertex 168 165.398 158.925
    endloop
  endfacet
  facet normal 1 0 0
    outer loop
      vertex 168 165.913 159.497
      vertex 168 157.5 163
      vertex 168 165.625 159.238
    endloop
  endfacet
  facet normal 1 0 0
    outer loop
      vertex 168 166.248 159.69
      vertex 168 157.5 163
      vertex 168 165.913 159.497
    endloop
  endfacet
  facet normal 1 0 0
    outer loop
      vertex 168 166.615 159.81
      vertex 168 157.5 163
      vertex 168 166.248 159.69
    endloop
  endfacet
  facet normal 1 0 0
    outer loop
      vertex 168 167 159.85
      vertex 168 157.5 163
      vertex 168 166.615 159.81
    endloop
  endfacet
  facet normal 1 0 0
    outer loop
      vertex 168 168.759 157.428
      vertex 168 177.5 163
      vertex 168 168.84 157.807
    endloop
  endfacet
  facet normal 1 0 0
    outer loop
      vertex 168 177.5 163
      vertex 168 168.759 157.428
      vertex 168 177.5 148
    endloop
  endfacet
  facet normal 1 -0 0
    outer loop
      vertex 168 168.602 157.075
      vertex 168 177.5 148
      vertex 168 168.759 157.428
    endloop
  endfacet
  facet normal 1 -0 0
    outer loop
      vertex 168 168.375 156.762
      vertex 168 177.5 148
      vertex 168 168.602 157.075
    endloop
  endfacet
  facet normal 1 -0 0
    outer loop
      vertex 168 168.087 156.503
      vertex 168 177.5 148
      vertex 168 168.375 156.762
    endloop
  endfacet
  facet normal 1 -0 0
    outer loop
      vertex 168 167.752 156.31
      vertex 168 177.5 148
      vertex 168 168.087 156.503
    endloop
  endfacet
  facet normal 1 -0 0
    outer loop
      vertex 168 167.385 156.19
      vertex 168 177.5 148
      vertex 168 167.752 156.31
    endloop
  endfacet
  facet normal 1 -0 0
    outer loop
      vertex 168 167 156.15
      vertex 168 177.5 148
      vertex 168 167.385 156.19
    endloop
  endfacet
  facet normal 1 0 0
    outer loop
      vertex 168 166.615 156.19
      vertex 168 177.5 148
      vertex 168 167 156.15
    endloop
  endfacet
  facet normal 1 0 0
    outer loop
      vertex 168 157.5 154
      vertex 168 166.615 156.19
      vertex 168 166.248 156.31
    endloop
  endfacet
  facet normal 1 0 0
    outer loop
      vertex 168 157.5 154
      vertex 168 166.248 156.31
      vertex 168 165.913 156.503
    endloop
  endfacet
  facet normal 1 0 0
    outer loop
      vertex 168 165.16 158.193
      vertex 168 157.5 154
      vertex 168 165.16 157.807
    endloop
  endfacet
  facet normal 1 0 0
    outer loop
      vertex 168 165.16 157.807
      vertex 168 157.5 154
      vertex 168 165.241 157.428
    endloop
  endfacet
  facet normal 1 0 0
    outer loop
      vertex 168 165.241 157.428
      vertex 168 157.5 154
      vertex 168 165.398 157.075
    endloop
  endfacet
  facet normal 1 0 0
    outer loop
      vertex 168 165.398 157.075
      vertex 168 157.5 154
      vertex 168 165.625 156.762
    endloop
  endfacet
  facet normal 1 0 0
    outer loop
      vertex 168 165.625 156.762
      vertex 168 157.5 154
      vertex 168 165.913 156.503
    endloop
  endfacet
  facet normal 1 0 0
    outer loop
      vertex 168 166.615 156.19
      vertex 168 157.5 154
      vertex 168 177.5 148
    endloop
  endfacet
  facet normal 1 0 0
    outer loop
      vertex 168 142.5 148
      vertex 168 157.5 154
      vertex 168 142.5 154
    endloop
  endfacet
  facet normal 1 0 0
    outer loop
      vertex 168 157.5 154
      vertex 168 142.5 148
      vertex 168 177.5 148
    endloop
  endfacet
  facet normal 0 -1 0
    outer loop
      vertex 155 157.5 154
      vertex 168 157.5 163
      vertex 155 157.5 163
    endloop
  endfacet
  facet normal 0 -1 -0
    outer loop
      vertex 168 157.5 163
      vertex 155 157.5 154
      vertex 168 157.5 154
    endloop
  endfacet
  facet normal 0 1 -0
    outer loop
      vertex 155 157.5 148
      vertex 125 157.5 154
      vertex 155 157.5 154
    endloop
  endfacet
  facet normal 0 1 0
    outer loop
      vertex 125 157.5 154
      vertex 155 157.5 148
      vertex 125 157.5 148
    endloop
  endfacet
  facet normal 0 0 -1
    outer loop
      vertex 162.934 150.624 148
      vertex 168 142.5 148
      vertex 163 150 148
    endloop
  endfacet
  facet normal 0 0 -1
    outer loop
      vertex 168 142.5 148
      vertex 162.934 149.376 148
      vertex 163 150 148
    endloop
  endfacet
  facet normal 0 0 -1
    outer loop
      vertex 168 142.5 148
      vertex 162.741 148.78 148
      vertex 162.934 149.376 148
    endloop
  endfacet
  facet normal 0 0 -1
    outer loop
      vertex 168 142.5 148
      vertex 162.427 148.237 148
      vertex 162.741 148.78 148
    endloop
  endfacet
  facet normal 0 0 -1
    outer loop
      vertex 168 142.5 148
      vertex 162.007 147.771 148
      vertex 162.427 148.237 148
    endloop
  endfacet
  facet normal 0 0 -1
    outer loop
      vertex 168 142.5 148
      vertex 161.5 147.402 148
      vertex 162.007 147.771 148
    endloop
  endfacet
  facet normal 0 0 -1
    outer loop
      vertex 168 142.5 148
      vertex 160.927 147.147 148
      vertex 161.5 147.402 148
    endloop
  endfacet
  facet normal 0 0 -1
    outer loop
      vertex 168 142.5 148
      vertex 160.314 147.016 148
      vertex 160.927 147.147 148
    endloop
  endfacet
  facet normal 0 0 -1
    outer loop
      vertex 168 142.5 148
      vertex 159.686 147.016 148
      vertex 160.314 147.016 148
    endloop
  endfacet
  facet normal 0 0 -1
    outer loop
      vertex 168 142.5 148
      vertex 159.073 147.147 148
      vertex 159.686 147.016 148
    endloop
  endfacet
  facet normal 0 0 -1
    outer loop
      vertex 135.927 147.147 148
      vertex 159.073 147.147 148
      vertex 168 142.5 148
    endloop
  endfacet
  facet normal 0 0 -1
    outer loop
      vertex 138 150 148
      vertex 157 150 148
      vertex 157.066 149.376 148
    endloop
  endfacet
  facet normal 0 0 -1
    outer loop
      vertex 137.934 150.624 148
      vertex 157 150 148
      vertex 138 150 148
    endloop
  endfacet
  facet normal 0 0 -1
    outer loop
      vertex 137.934 149.376 148
      vertex 157.066 149.376 148
      vertex 157.259 148.78 148
    endloop
  endfacet
  facet normal 0 0 -1
    outer loop
      vertex 137.741 148.78 148
      vertex 157.259 148.78 148
      vertex 157.573 148.237 148
    endloop
  endfacet
  facet normal 0 0 -1
    outer loop
      vertex 137.427 148.237 148
      vertex 157.573 148.237 148
      vertex 157.993 147.771 148
    endloop
  endfacet
  facet normal 0 0 -1
    outer loop
      vertex 137.007 147.771 148
      vertex 157.993 147.771 148
      vertex 158.5 147.402 148
    endloop
  endfacet
  facet normal 0 0 -1
    outer loop
      vertex 159.073 147.147 148
      vertex 135.927 147.147 148
      vertex 158.5 147.402 148
    endloop
  endfacet
  facet normal 0 0 -1
    outer loop
      vertex 157.066 149.376 148
      vertex 137.934 149.376 148
      vertex 138 150 148
    endloop
  endfacet
  facet normal 0 0 -1
    outer loop
      vertex 157.259 148.78 148
      vertex 137.741 148.78 148
      vertex 137.934 149.376 148
    endloop
  endfacet
  facet normal 0 0 -1
    outer loop
      vertex 157.573 148.237 148
      vertex 137.427 148.237 148
      vertex 137.741 148.78 148
    endloop
  endfacet
  facet normal 0 0 -1
    outer loop
      vertex 157.993 147.771 148
      vertex 137.007 147.771 148
      vertex 137.427 148.237 148
    endloop
  endfacet
  facet normal 0 0 -1
    outer loop
      vertex 158.5 147.402 148
      vertex 136.5 147.402 148
      vertex 137.007 147.771 148
    endloop
  endfacet
  facet normal -0 0 -1
    outer loop
      vertex 158.5 147.402 148
      vertex 135.927 147.147 148
      vertex 136.5 147.402 148
    endloop
  endfacet
  facet normal 0 0 -1
    outer loop
      vertex 125 142.5 148
      vertex 135.927 147.147 148
      vertex 168 142.5 148
    endloop
  endfacet
  facet normal 0 0 -1
    outer loop
      vertex 135.927 147.147 148
      vertex 125 142.5 148
      vertex 135.314 147.016 148
    endloop
  endfacet
  facet normal -0 0 -1
    outer loop
      vertex 132.066 149.376 148
      vertex 125 142.5 148
      vertex 132 150 148
    endloop
  endfacet
  facet normal -0 0 -1
    outer loop
      vertex 132.259 148.78 148
      vertex 125 142.5 148
      vertex 132.066 149.376 148
    endloop
  endfacet
  facet normal -0 0 -1
    outer loop
      vertex 132.573 148.237 148
      vertex 125 142.5 148
      vertex 132.259 148.78 148
    endloop
  endfacet
  facet normal -0 0 -1
    outer loop
      vertex 132.993 147.771 148
      vertex 125 142.5 148
      vertex 132.573 148.237 148
    endloop
  endfacet
  facet normal -0 0 -1
    outer loop
      vertex 133.5 147.402 148
      vertex 125 142.5 148
      vertex 132.993 147.771 148
    endloop
  endfacet
  facet normal -0 0 -1
    outer loop
      vertex 134.073 147.147 148
      vertex 125 142.5 148
      vertex 133.5 147.402 148
    endloop
  endfacet
  facet normal -0 0 -1
    outer loop
      vertex 134.686 147.016 148
      vertex 125 142.5 148
      vertex 134.073 147.147 148
    endloop
  endfacet
  facet normal -0 0 -1
    outer loop
      vertex 135.314 147.016 148
      vertex 125 142.5 148
      vertex 134.686 147.016 148
    endloop
  endfacet
  facet normal 0 0 -1
    outer loop
      vertex 162.741 151.22 148
      vertex 168 142.5 148
      vertex 162.934 150.624 148
    endloop
  endfacet
  facet normal 0 0 -1
    outer loop
      vertex 168 142.5 148
      vertex 162.741 151.22 148
      vertex 168 177.5 148
    endloop
  endfacet
  facet normal 0 0 -1
    outer loop
      vertex 162.427 151.763 148
      vertex 168 177.5 148
      vertex 162.741 151.22 148
    endloop
  endfacet
  facet normal 0 0 -1
    outer loop
      vertex 162.007 152.229 148
      vertex 168 177.5 148
      vertex 162.427 151.763 148
    endloop
  endfacet
  facet normal 0 0 -1
    outer loop
      vertex 161.5 152.598 148
      vertex 168 177.5 148
      vertex 162.007 152.229 148
    endloop
  endfacet
  facet normal 0 0 -1
    outer loop
      vertex 160.927 152.853 148
      vertex 168 177.5 148
      vertex 161.5 152.598 148
    endloop
  endfacet
  facet normal 0 0 -1
    outer loop
      vertex 155 157.5 148
      vertex 160.927 152.853 148
      vertex 160.314 152.984 148
    endloop
  endfacet
  facet normal 0 0 -1
    outer loop
      vertex 155 157.5 148
      vertex 160.314 152.984 148
      vertex 159.686 152.984 148
    endloop
  endfacet
  facet normal 0 0 -1
    outer loop
      vertex 155 157.5 148
      vertex 159.686 152.984 148
      vertex 159.073 152.853 148
    endloop
  endfacet
  facet normal 0 0 -1
    outer loop
      vertex 155 157.5 148
      vertex 159.073 152.853 148
      vertex 158.5 152.598 148
    endloop
  endfacet
  facet normal 0 0 -1
    outer loop
      vertex 155 157.5 148
      vertex 158.5 152.598 148
      vertex 157.993 152.229 148
    endloop
  endfacet
  facet normal 0 0 -1
    outer loop
      vertex 155 157.5 148
      vertex 157.993 152.229 148
      vertex 157.573 151.763 148
    endloop
  endfacet
  facet normal 0 0 -1
    outer loop
      vertex 155 157.5 148
      vertex 157.573 151.763 148
      vertex 157.259 151.22 148
    endloop
  endfacet
  facet normal 0 0 -1
    outer loop
      vertex 155 157.5 148
      vertex 157.066 150.624 148
      vertex 157 150 148
    endloop
  endfacet
  facet normal 0 0 -1
    outer loop
      vertex 155 157.5 148
      vertex 157.259 151.22 148
      vertex 157.066 150.624 148
    endloop
  endfacet
  facet normal 0 0 -1
    outer loop
      vertex 160.927 152.853 148
      vertex 155 157.5 148
      vertex 168 177.5 148
    endloop
  endfacet
  facet normal -0 0 -1
    outer loop
      vertex 168 177.5 148
      vertex 155 157.5 148
      vertex 155 177.5 148
    endloop
  endfacet
  facet normal 0 0 -1
    outer loop
      vertex 157 150 148
      vertex 137.934 150.624 148
      vertex 155 157.5 148
    endloop
  endfacet
  facet normal 0 0 -1
    outer loop
      vertex 137.741 151.22 148
      vertex 155 157.5 148
      vertex 137.934 150.624 148
    endloop
  endfacet
  facet normal 0 0 -1
    outer loop
      vertex 137.427 151.763 148
      vertex 155 157.5 148
      vertex 137.741 151.22 148
    endloop
  endfacet
  facet normal 0 0 -1
    outer loop
      vertex 137.007 152.229 148
      vertex 155 157.5 148
      vertex 137.427 151.763 148
    endloop
  endfacet
  facet normal 0 0 -1
    outer loop
      vertex 136.5 152.598 148
      vertex 155 157.5 148
      vertex 137.007 152.229 148
    endloop
  endfacet
  facet normal 0 0 -1
    outer loop
      vertex 135.927 152.853 148
      vertex 155 157.5 148
      vertex 136.5 152.598 148
    endloop
  endfacet
  facet normal 0 0 -1
    outer loop
      vertex 135.314 152.984 148
      vertex 155 157.5 148
      vertex 135.927 152.853 148
    endloop
  endfacet
  facet normal 0 0 -1
    outer loop
      vertex 125 157.5 148
      vertex 135.314 152.984 148
      vertex 134.686 152.984 148
    endloop
  endfacet
  facet normal 0 0 -1
    outer loop
      vertex 125 157.5 148
      vertex 134.686 152.984 148
      vertex 134.073 152.853 148
    endloop
  endfacet
  facet normal 0 0 -1
    outer loop
      vertex 125 157.5 148
      vertex 132 150 148
      vertex 125 142.5 148
    endloop
  endfacet
  facet normal 0 0 -1
    outer loop
      vertex 132 150 148
      vertex 125 157.5 148
      vertex 132.066 150.624 148
    endloop
  endfacet
  facet normal 0 0 -1
    outer loop
      vertex 132.066 150.624 148
      vertex 125 157.5 148
      vertex 132.259 151.22 148
    endloop
  endfacet
  facet normal 0 0 -1
    outer loop
      vertex 135.314 152.984 148
      vertex 125 157.5 148
      vertex 155 157.5 148
    endloop
  endfacet
  facet normal 0 0 -1
    outer loop
      vertex 133.5 152.598 148
      vertex 125 157.5 148
      vertex 134.073 152.853 148
    endloop
  endfacet
  facet normal 0 0 -1
    outer loop
      vertex 132.993 152.229 148
      vertex 125 157.5 148
      vertex 133.5 152.598 148
    endloop
  endfacet
  facet normal 0 0 -1
    outer loop
      vertex 132.573 151.763 148
      vertex 125 157.5 148
      vertex 132.993 152.229 148
    endloop
  endfacet
  facet normal 0 0 -1
    outer loop
      vertex 132.259 151.22 148
      vertex 125 157.5 148
      vertex 132.573 151.763 148
    endloop
  endfacet
  facet normal 0 -1 0
    outer loop
      vertex 125 142.5 148
      vertex 168 142.5 154
      vertex 125 142.5 154
    endloop
  endfacet
  facet normal 0 -1 -0
    outer loop
      vertex 168 142.5 154
      vertex 125 142.5 148
      vertex 168 142.5 148
    endloop
  endfacet
  facet normal -1 0 0
    outer loop
      vertex 155 168.759 157.428
      vertex 155 177.5 163
      vertex 155 177.5 148
    endloop
  endfacet
  facet normal -1 0 0
    outer loop
      vertex 155 177.5 163
      vertex 155 168.759 157.428
      vertex 155 168.84 157.807
    endloop
  endfacet
  facet normal -1 0 0
    outer loop
      vertex 155 177.5 148
      vertex 155 168.602 157.075
      vertex 155 168.759 157.428
    endloop
  endfacet
  facet normal -1 0 0
    outer loop
      vertex 155 177.5 148
      vertex 155 168.375 156.762
      vertex 155 168.602 157.075
    endloop
  endfacet
  facet normal -1 0 0
    outer loop
      vertex 155 177.5 148
      vertex 155 168.087 156.503
      vertex 155 168.375 156.762
    endloop
  endfacet
  facet normal -1 0 0
    outer loop
      vertex 155 177.5 148
      vertex 155 167.752 156.31
      vertex 155 168.087 156.503
    endloop
  endfacet
  facet normal -1 0 0
    outer loop
      vertex 155 177.5 148
      vertex 155 167.385 156.19
      vertex 155 167.752 156.31
    endloop
  endfacet
  facet normal -1 0 0
    outer loop
      vertex 155 177.5 148
      vertex 155 167 156.15
      vertex 155 167.385 156.19
    endloop
  endfacet
  facet normal -1 0 0
    outer loop
      vertex 155 157.5 148
      vertex 155 167 156.15
      vertex 155 177.5 148
    endloop
  endfacet
  facet normal -1 -0 0
    outer loop
      vertex 155 167 156.15
      vertex 155 157.5 148
      vertex 155 166.615 156.19
    endloop
  endfacet
  facet normal -1 -0 0
    outer loop
      vertex 155 166.615 156.19
      vertex 155 157.5 148
      vertex 155 166.248 156.31
    endloop
  endfacet
  facet normal -1 -0 0
    outer loop
      vertex 155 165.241 157.428
      vertex 155 157.5 154
      vertex 155 165.16 157.807
    endloop
  endfacet
  facet normal -1 -0 0
    outer loop
      vertex 155 165.398 157.075
      vertex 155 157.5 154
      vertex 155 165.241 157.428
    endloop
  endfacet
  facet normal -1 -0 0
    outer loop
      vertex 155 165.625 156.762
      vertex 155 157.5 154
      vertex 155 165.398 157.075
    endloop
  endfacet
  facet normal -1 -0 0
    outer loop
      vertex 155 165.913 156.503
      vertex 155 157.5 154
      vertex 155 165.625 156.762
    endloop
  endfacet
  facet normal -1 0 0
    outer loop
      vertex 155 157.5 154
      vertex 155 165.913 156.503
      vertex 155 157.5 148
    endloop
  endfacet
  facet normal -1 -0 0
    outer loop
      vertex 155 166.248 156.31
      vertex 155 157.5 148
      vertex 155 165.913 156.503
    endloop
  endfacet
  facet normal -1 0 0
    outer loop
      vertex 155 168.84 158.193
      vertex 155 177.5 163
      vertex 155 168.84 157.807
    endloop
  endfacet
  facet normal -1 0 0
    outer loop
      vertex 155 168.759 158.572
      vertex 155 177.5 163
      vertex 155 168.84 158.193
    endloop
  endfacet
  facet normal -1 0 0
    outer loop
      vertex 155 168.602 158.925
      vertex 155 177.5 163
      vertex 155 168.759 158.572
    endloop
  endfacet
  facet normal -1 0 0
    outer loop
      vertex 155 168.375 159.238
      vertex 155 177.5 163
      vertex 155 168.602 158.925
    endloop
  endfacet
  facet normal -1 0 0
    outer loop
      vertex 155 168.087 159.497
      vertex 155 177.5 163
      vertex 155 168.375 159.238
    endloop
  endfacet
  facet normal -1 0 0
    outer loop
      vertex 155 167.752 159.69
      vertex 155 177.5 163
      vertex 155 168.087 159.497
    endloop
  endfacet
  facet normal -1 0 0
    outer loop
      vertex 155 167.385 159.81
      vertex 155 177.5 163
      vertex 155 167.752 159.69
    endloop
  endfacet
  facet normal -1 0 0
    outer loop
      vertex 155 167 159.85
      vertex 155 177.5 163
      vertex 155 167.385 159.81
    endloop
  endfacet
  facet normal -1 0 0
    outer loop
      vertex 155 157.5 163
      vertex 155 167 159.85
      vertex 155 166.615 159.81
    endloop
  endfacet
  facet normal -1 -0 0
    outer loop
      vertex 155 165.16 157.807
      vertex 155 157.5 154
      vertex 155 165.16 158.193
    endloop
  endfacet
  facet normal -1 0 0
    outer loop
      vertex 155 157.5 163
      vertex 155 165.16 158.193
      vertex 155 157.5 154
    endloop
  endfacet
  facet normal -1 0 0
    outer loop
      vertex 155 165.16 158.193
      vertex 155 157.5 163
      vertex 155 165.241 158.572
    endloop
  endfacet
  facet normal -1 0 0
    outer loop
      vertex 155 165.241 158.572
      vertex 155 157.5 163
      vertex 155 165.398 158.925
    endloop
  endfacet
  facet normal -1 0 0
    outer loop
      vertex 155 165.398 158.925
      vertex 155 157.5 163
      vertex 155 165.625 159.238
    endloop
  endfacet
  facet normal -1 0 0
    outer loop
      vertex 155 167 159.85
      vertex 155 157.5 163
      vertex 155 177.5 163
    endloop
  endfacet
  facet normal -1 0 0
    outer loop
      vertex 155 166.248 159.69
      vertex 155 157.5 163
      vertex 155 166.615 159.81
    endloop
  endfacet
  facet normal -1 0 0
    outer loop
      vertex 155 165.913 159.497
      vertex 155 157.5 163
      vertex 155 166.248 159.69
    endloop
  endfacet
  facet normal -1 0 0
    outer loop
      vertex 155 165.625 159.238
      vertex 155 157.5 163
      vertex 155 165.913 159.497
    endloop
  endfacet
  facet normal -0 0 1
    outer loop
      vertex 155 177.5 163
      vertex 168 157.5 163
      vertex 168 177.5 163
    endloop
  endfacet
  facet normal 0 0 1
    outer loop
      vertex 168 157.5 163
      vertex 155 177.5 163
      vertex 155 157.5 163
    endloop
  endfacet
  facet normal 0 1 -0
    outer loop
      vertex 168 177.5 148
      vertex 155 177.5 163
      vertex 168 177.5 163
    endloop
  endfacet
  facet normal 0 1 0
    outer loop
      vertex 155 177.5 163
      vertex 168 177.5 148
      vertex 155 177.5 148
    endloop
  endfacet
  facet normal -0.994523 -0.10452 0
    outer loop
      vertex 138 150 148
      vertex 137.934 150.624 154
      vertex 137.934 150.624 148
    endloop
  endfacet
  facet normal -0.994523 -0.10452 0
    outer loop
      vertex 137.934 150.624 154
      vertex 138 150 148
      vertex 138 150 154
    endloop
  endfacet
  facet normal 0.20792 -0.978146 0
    outer loop
      vertex 134.073 152.853 148
      vertex 134.686 152.984 154
      vertex 134.073 152.853 154
    endloop
  endfacet
  facet normal 0.20792 -0.978146 0
    outer loop
      vertex 134.686 152.984 154
      vertex 134.073 152.853 148
      vertex 134.686 152.984 148
    endloop
  endfacet
  facet normal -0.20792 0.978146 0
    outer loop
      vertex 135.927 147.147 148
      vertex 135.314 147.016 154
      vertex 135.927 147.147 154
    endloop
  endfacet
  facet normal -0.20792 0.978146 0
    outer loop
      vertex 135.314 147.016 154
      vertex 135.927 147.147 148
      vertex 135.314 147.016 148
    endloop
  endfacet
  facet normal -0.406719 0.913554 0
    outer loop
      vertex 136.5 147.402 148
      vertex 135.927 147.147 154
      vertex 136.5 147.402 154
    endloop
  endfacet
  facet normal -0.406719 0.913554 0
    outer loop
      vertex 135.927 147.147 154
      vertex 136.5 147.402 148
      vertex 135.927 147.147 148
    endloop
  endfacet
  facet normal -0.587801 -0.809005 0
    outer loop
      vertex 136.5 152.598 148
      vertex 137.007 152.229 154
      vertex 136.5 152.598 154
    endloop
  endfacet
  facet normal -0.587801 -0.809005 -0
    outer loop
      vertex 137.007 152.229 154
      vertex 136.5 152.598 148
      vertex 137.007 152.229 148
    endloop
  endfacet
  facet normal 0.743143 -0.669133 0
    outer loop
      vertex 132.573 151.763 154
      vertex 132.993 152.229 148
      vertex 132.993 152.229 154
    endloop
  endfacet
  facet normal 0.743143 -0.669133 0
    outer loop
      vertex 132.993 152.229 148
      vertex 132.573 151.763 154
      vertex 132.573 151.763 148
    endloop
  endfacet
  facet normal 0.587801 -0.809005 0
    outer loop
      vertex 132.993 152.229 148
      vertex 133.5 152.598 154
      vertex 132.993 152.229 154
    endloop
  endfacet
  facet normal 0.587801 -0.809005 0
    outer loop
      vertex 133.5 152.598 154
      vertex 132.993 152.229 148
      vertex 133.5 152.598 148
    endloop
  endfacet
  facet normal -0.866023 -0.500004 0
    outer loop
      vertex 137.741 151.22 148
      vertex 137.427 151.763 154
      vertex 137.427 151.763 148
    endloop
  endfacet
  facet normal -0.866023 -0.500004 0
    outer loop
      vertex 137.427 151.763 154
      vertex 137.741 151.22 148
      vertex 137.741 151.22 154
    endloop
  endfacet
  facet normal -0.951052 -0.309029 0
    outer loop
      vertex 137.934 150.624 148
      vertex 137.741 151.22 154
      vertex 137.741 151.22 148
    endloop
  endfacet
  facet normal -0.951052 -0.309029 0
    outer loop
      vertex 137.741 151.22 154
      vertex 137.934 150.624 148
      vertex 137.934 150.624 154
    endloop
  endfacet
  facet normal -0.743143 -0.669133 0
    outer loop
      vertex 137.427 151.763 148
      vertex 137.007 152.229 154
      vertex 137.007 152.229 148
    endloop
  endfacet
  facet normal -0.743143 -0.669133 0
    outer loop
      vertex 137.007 152.229 154
      vertex 137.427 151.763 148
      vertex 137.427 151.763 154
    endloop
  endfacet
  facet normal -0.20792 -0.978146 0
    outer loop
      vertex 135.314 152.984 148
      vertex 135.927 152.853 154
      vertex 135.314 152.984 154
    endloop
  endfacet
  facet normal -0.20792 -0.978146 -0
    outer loop
      vertex 135.927 152.853 154
      vertex 135.314 152.984 148
      vertex 135.927 152.853 148
    endloop
  endfacet
  facet normal 0 -1 0
    outer loop
      vertex 134.686 152.984 148
      vertex 135.314 152.984 154
      vertex 134.686 152.984 154
    endloop
  endfacet
  facet normal 0 -1 -0
    outer loop
      vertex 135.314 152.984 154
      vertex 134.686 152.984 148
      vertex 135.314 152.984 148
    endloop
  endfacet
  facet normal -0.406719 -0.913554 0
    outer loop
      vertex 135.927 152.853 148
      vertex 136.5 152.598 154
      vertex 135.927 152.853 154
    endloop
  endfacet
  facet normal -0.406719 -0.913554 -0
    outer loop
      vertex 136.5 152.598 154
      vertex 135.927 152.853 148
      vertex 136.5 152.598 148
    endloop
  endfacet
  facet normal 0.951052 -0.309029 0
    outer loop
      vertex 132.066 150.624 154
      vertex 132.259 151.22 148
      vertex 132.259 151.22 154
    endloop
  endfacet
  facet normal 0.951052 -0.309029 0
    outer loop
      vertex 132.259 151.22 148
      vertex 132.066 150.624 154
      vertex 132.066 150.624 148
    endloop
  endfacet
  facet normal 0.866023 -0.500004 0
    outer loop
      vertex 132.259 151.22 154
      vertex 132.573 151.763 148
      vertex 132.573 151.763 154
    endloop
  endfacet
  facet normal 0.866023 -0.500004 0
    outer loop
      vertex 132.573 151.763 148
      vertex 132.259 151.22 154
      vertex 132.259 151.22 148
    endloop
  endfacet
  facet normal 0.994523 -0.10452 0
    outer loop
      vertex 132 150 154
      vertex 132.066 150.624 148
      vertex 132.066 150.624 154
    endloop
  endfacet
  facet normal 0.994523 -0.10452 0
    outer loop
      vertex 132.066 150.624 148
      vertex 132 150 154
      vertex 132 150 148
    endloop
  endfacet
  facet normal 0.406719 -0.913554 0
    outer loop
      vertex 133.5 152.598 148
      vertex 134.073 152.853 154
      vertex 133.5 152.598 154
    endloop
  endfacet
  facet normal 0.406719 -0.913554 0
    outer loop
      vertex 134.073 152.853 154
      vertex 133.5 152.598 148
      vertex 134.073 152.853 148
    endloop
  endfacet
  facet normal -0.994523 0.10452 0
    outer loop
      vertex 137.934 149.376 148
      vertex 138 150 154
      vertex 138 150 148
    endloop
  endfacet
  facet normal -0.994523 0.10452 0
    outer loop
      vertex 138 150 154
      vertex 137.934 149.376 148
      vertex 137.934 149.376 154
    endloop
  endfacet
  facet normal -0.743143 0.669133 0
    outer loop
      vertex 137.007 147.771 148
      vertex 137.427 148.237 154
      vertex 137.427 148.237 148
    endloop
  endfacet
  facet normal -0.743143 0.669133 0
    outer loop
      vertex 137.427 148.237 154
      vertex 137.007 147.771 148
      vertex 137.007 147.771 154
    endloop
  endfacet
  facet normal 0.994523 0.10452 0
    outer loop
      vertex 132.066 149.376 154
      vertex 132 150 148
      vertex 132 150 154
    endloop
  endfacet
  facet normal 0.994523 0.10452 0
    outer loop
      vertex 132 150 148
      vertex 132.066 149.376 154
      vertex 132.066 149.376 148
    endloop
  endfacet
  facet normal -0.866023 0.500004 0
    outer loop
      vertex 137.427 148.237 148
      vertex 137.741 148.78 154
      vertex 137.741 148.78 148
    endloop
  endfacet
  facet normal -0.866023 0.500004 0
    outer loop
      vertex 137.741 148.78 154
      vertex 137.427 148.237 148
      vertex 137.427 148.237 154
    endloop
  endfacet
  facet normal 0.406719 0.913554 -0
    outer loop
      vertex 134.073 147.147 148
      vertex 133.5 147.402 154
      vertex 134.073 147.147 154
    endloop
  endfacet
  facet normal 0.406719 0.913554 0
    outer loop
      vertex 133.5 147.402 154
      vertex 134.073 147.147 148
      vertex 133.5 147.402 148
    endloop
  endfacet
  facet normal 0.743143 0.669133 0
    outer loop
      vertex 132.993 147.771 154
      vertex 132.573 148.237 148
      vertex 132.573 148.237 154
    endloop
  endfacet
  facet normal 0.743143 0.669133 0
    outer loop
      vertex 132.573 148.237 148
      vertex 132.993 147.771 154
      vertex 132.993 147.771 148
    endloop
  endfacet
  facet normal -0.587801 0.809005 0
    outer loop
      vertex 137.007 147.771 148
      vertex 136.5 147.402 154
      vertex 137.007 147.771 154
    endloop
  endfacet
  facet normal -0.587801 0.809005 0
    outer loop
      vertex 136.5 147.402 154
      vertex 137.007 147.771 148
      vertex 136.5 147.402 148
    endloop
  endfacet
  facet normal -0.951052 0.309029 0
    outer loop
      vertex 137.741 148.78 148
      vertex 137.934 149.376 154
      vertex 137.934 149.376 148
    endloop
  endfacet
  facet normal -0.951052 0.309029 0
    outer loop
      vertex 137.934 149.376 154
      vertex 137.741 148.78 148
      vertex 137.741 148.78 154
    endloop
  endfacet
  facet normal 0 1 -0
    outer loop
      vertex 135.314 147.016 148
      vertex 134.686 147.016 154
      vertex 135.314 147.016 154
    endloop
  endfacet
  facet normal 0 1 0
    outer loop
      vertex 134.686 147.016 154
      vertex 135.314 147.016 148
      vertex 134.686 147.016 148
    endloop
  endfacet
  facet normal 0.20792 0.978146 -0
    outer loop
      vertex 134.686 147.016 148
      vertex 134.073 147.147 154
      vertex 134.686 147.016 154
    endloop
  endfacet
  facet normal 0.20792 0.978146 0
    outer loop
      vertex 134.073 147.147 154
      vertex 134.686 147.016 148
      vertex 134.073 147.147 148
    endloop
  endfacet
  facet normal 0.587801 0.809005 -0
    outer loop
      vertex 133.5 147.402 148
      vertex 132.993 147.771 154
      vertex 133.5 147.402 154
    endloop
  endfacet
  facet normal 0.587801 0.809005 0
    outer loop
      vertex 132.993 147.771 154
      vertex 133.5 147.402 148
      vertex 132.993 147.771 148
    endloop
  endfacet
  facet normal 0.866023 0.500004 0
    outer loop
      vertex 132.573 148.237 154
      vertex 132.259 148.78 148
      vertex 132.259 148.78 154
    endloop
  endfacet
  facet normal 0.866023 0.500004 0
    outer loop
      vertex 132.259 148.78 148
      vertex 132.573 148.237 154
      vertex 132.573 148.237 148
    endloop
  endfacet
  facet normal 0.951052 0.309029 0
    outer loop
      vertex 132.259 148.78 154
      vertex 132.066 149.376 148
      vertex 132.066 149.376 154
    endloop
  endfacet
  facet normal 0.951052 0.309029 0
    outer loop
      vertex 132.066 149.376 148
      vertex 132.259 148.78 154
      vertex 132.259 148.78 148
    endloop
  endfacet
  facet normal -0.994523 -0.10452 0
    outer loop
      vertex 163 150 148
      vertex 162.934 150.624 154
      vertex 162.934 150.624 148
    endloop
  endfacet
  facet normal -0.994523 -0.10452 0
    outer loop
      vertex 162.934 150.624 154
      vertex 163 150 148
      vertex 163 150 154
    endloop
  endfacet
  facet normal 0.20792 -0.978146 0
    outer loop
      vertex 159.073 152.853 148
      vertex 159.686 152.984 154
      vertex 159.073 152.853 154
    endloop
  endfacet
  facet normal 0.20792 -0.978146 0
    outer loop
      vertex 159.686 152.984 154
      vertex 159.073 152.853 148
      vertex 159.686 152.984 148
    endloop
  endfacet
  facet normal -0.20792 0.978146 0
    outer loop
      vertex 160.927 147.147 148
      vertex 160.314 147.016 154
      vertex 160.927 147.147 154
    endloop
  endfacet
  facet normal -0.20792 0.978146 0
    outer loop
      vertex 160.314 147.016 154
      vertex 160.927 147.147 148
      vertex 160.314 147.016 148
    endloop
  endfacet
  facet normal -0.406719 0.913554 0
    outer loop
      vertex 161.5 147.402 148
      vertex 160.927 147.147 154
      vertex 161.5 147.402 154
    endloop
  endfacet
  facet normal -0.406719 0.913554 0
    outer loop
      vertex 160.927 147.147 154
      vertex 161.5 147.402 148
      vertex 160.927 147.147 148
    endloop
  endfacet
  facet normal -0.587801 -0.809005 0
    outer loop
      vertex 161.5 152.598 148
      vertex 162.007 152.229 154
      vertex 161.5 152.598 154
    endloop
  endfacet
  facet normal -0.587801 -0.809005 -0
    outer loop
      vertex 162.007 152.229 154
      vertex 161.5 152.598 148
      vertex 162.007 152.229 148
    endloop
  endfacet
  facet normal 0.743143 -0.669133 0
    outer loop
      vertex 157.573 151.763 154
      vertex 157.993 152.229 148
      vertex 157.993 152.229 154
    endloop
  endfacet
  facet normal 0.743143 -0.669133 0
    outer loop
      vertex 157.993 152.229 148
      vertex 157.573 151.763 154
      vertex 157.573 151.763 148
    endloop
  endfacet
  facet normal 0.587801 -0.809005 0
    outer loop
      vertex 157.993 152.229 148
      vertex 158.5 152.598 154
      vertex 157.993 152.229 154
    endloop
  endfacet
  facet normal 0.587801 -0.809005 0
    outer loop
      vertex 158.5 152.598 154
      vertex 157.993 152.229 148
      vertex 158.5 152.598 148
    endloop
  endfacet
  facet normal -0.866023 -0.500004 0
    outer loop
      vertex 162.741 151.22 148
      vertex 162.427 151.763 154
      vertex 162.427 151.763 148
    endloop
  endfacet
  facet normal -0.866023 -0.500004 0
    outer loop
      vertex 162.427 151.763 154
      vertex 162.741 151.22 148
      vertex 162.741 151.22 154
    endloop
  endfacet
  facet normal -0.951052 -0.309029 0
    outer loop
      vertex 162.934 150.624 148
      vertex 162.741 151.22 154
      vertex 162.741 151.22 148
    endloop
  endfacet
  facet normal -0.951052 -0.309029 0
    outer loop
      vertex 162.741 151.22 154
      vertex 162.934 150.624 148
      vertex 162.934 150.624 154
    endloop
  endfacet
  facet normal -0.743143 -0.669133 0
    outer loop
      vertex 162.427 151.763 148
      vertex 162.007 152.229 154
      vertex 162.007 152.229 148
    endloop
  endfacet
  facet normal -0.743143 -0.669133 0
    outer loop
      vertex 162.007 152.229 154
      vertex 162.427 151.763 148
      vertex 162.427 151.763 154
    endloop
  endfacet
  facet normal -0.20792 -0.978146 0
    outer loop
      vertex 160.314 152.984 148
      vertex 160.927 152.853 154
      vertex 160.314 152.984 154
    endloop
  endfacet
  facet normal -0.20792 -0.978146 -0
    outer loop
      vertex 160.927 152.853 154
      vertex 160.314 152.984 148
      vertex 160.927 152.853 148
    endloop
  endfacet
  facet normal 0 -1 0
    outer loop
      vertex 159.686 152.984 148
      vertex 160.314 152.984 154
      vertex 159.686 152.984 154
    endloop
  endfacet
  facet normal 0 -1 -0
    outer loop
      vertex 160.314 152.984 154
      vertex 159.686 152.984 148
      vertex 160.314 152.984 148
    endloop
  endfacet
  facet normal -0.406719 -0.913554 0
    outer loop
      vertex 160.927 152.853 148
      vertex 161.5 152.598 154
      vertex 160.927 152.853 154
    endloop
  endfacet
  facet normal -0.406719 -0.913554 -0
    outer loop
      vertex 161.5 152.598 154
      vertex 160.927 152.853 148
      vertex 161.5 152.598 148
    endloop
  endfacet
  facet normal 0.951052 -0.309029 0
    outer loop
      vertex 157.066 150.624 154
      vertex 157.259 151.22 148
      vertex 157.259 151.22 154
    endloop
  endfacet
  facet normal 0.951052 -0.309029 0
    outer loop
      vertex 157.259 151.22 148
      vertex 157.066 150.624 154
      vertex 157.066 150.624 148
    endloop
  endfacet
  facet normal 0.866023 -0.500004 0
    outer loop
      vertex 157.259 151.22 154
      vertex 157.573 151.763 148
      vertex 157.573 151.763 154
    endloop
  endfacet
  facet normal 0.866023 -0.500004 0
    outer loop
      vertex 157.573 151.763 148
      vertex 157.259 151.22 154
      vertex 157.259 151.22 148
    endloop
  endfacet
  facet normal 0.994523 -0.10452 0
    outer loop
      vertex 157 150 154
      vertex 157.066 150.624 148
      vertex 157.066 150.624 154
    endloop
  endfacet
  facet normal 0.994523 -0.10452 0
    outer loop
      vertex 157.066 150.624 148
      vertex 157 150 154
      vertex 157 150 148
    endloop
  endfacet
  facet normal 0.406719 -0.913554 0
    outer loop
      vertex 158.5 152.598 148
      vertex 159.073 152.853 154
      vertex 158.5 152.598 154
    endloop
  endfacet
  facet normal 0.406719 -0.913554 0
    outer loop
      vertex 159.073 152.853 154
      vertex 158.5 152.598 148
      vertex 159.073 152.853 148
    endloop
  endfacet
  facet normal -0.994523 0.10452 0
    outer loop
      vertex 162.934 149.376 148
      vertex 163 150 154
      vertex 163 150 148
    endloop
  endfacet
  facet normal -0.994523 0.10452 0
    outer loop
      vertex 163 150 154
      vertex 162.934 149.376 148
      vertex 162.934 149.376 154
    endloop
  endfacet
  facet normal -0.743143 0.669133 0
    outer loop
      vertex 162.007 147.771 148
      vertex 162.427 148.237 154
      vertex 162.427 148.237 148
    endloop
  endfacet
  facet normal -0.743143 0.669133 0
    outer loop
      vertex 162.427 148.237 154
      vertex 162.007 147.771 148
      vertex 162.007 147.771 154
    endloop
  endfacet
  facet normal 0.994523 0.10452 0
    outer loop
      vertex 157.066 149.376 154
      vertex 157 150 148
      vertex 157 150 154
    endloop
  endfacet
  facet normal 0.994523 0.10452 0
    outer loop
      vertex 157 150 148
      vertex 157.066 149.376 154
      vertex 157.066 149.376 148
    endloop
  endfacet
  facet normal -0.866023 0.500004 0
    outer loop
      vertex 162.427 148.237 148
      vertex 162.741 148.78 154
      vertex 162.741 148.78 148
    endloop
  endfacet
  facet normal -0.866023 0.500004 0
    outer loop
      vertex 162.741 148.78 154
      vertex 162.427 148.237 148
      vertex 162.427 148.237 154
    endloop
  endfacet
  facet normal 0.406719 0.913554 -0
    outer loop
      vertex 159.073 147.147 148
      vertex 158.5 147.402 154
      vertex 159.073 147.147 154
    endloop
  endfacet
  facet normal 0.406719 0.913554 0
    outer loop
      vertex 158.5 147.402 154
      vertex 159.073 147.147 148
      vertex 158.5 147.402 148
    endloop
  endfacet
  facet normal 0.743143 0.669133 0
    outer loop
      vertex 157.993 147.771 154
      vertex 157.573 148.237 148
      vertex 157.573 148.237 154
    endloop
  endfacet
  facet normal 0.743143 0.669133 0
    outer loop
      vertex 157.573 148.237 148
      vertex 157.993 147.771 154
      vertex 157.993 147.771 148
    endloop
  endfacet
  facet normal 0.951052 0.309029 0
    outer loop
      vertex 157.259 148.78 154
      vertex 157.066 149.376 148
      vertex 157.066 149.376 154
    endloop
  endfacet
  facet normal 0.951052 0.309029 0
    outer loop
      vertex 157.066 149.376 148
      vertex 157.259 148.78 154
      vertex 157.259 148.78 148
    endloop
  endfacet
  facet normal -0.587801 0.809005 0
    outer loop
      vertex 162.007 147.771 148
      vertex 161.5 147.402 154
      vertex 162.007 147.771 154
    endloop
  endfacet
  facet normal -0.587801 0.809005 0
    outer loop
      vertex 161.5 147.402 154
      vertex 162.007 147.771 148
      vertex 161.5 147.402 148
    endloop
  endfacet
  facet normal -0.951052 0.309029 0
    outer loop
      vertex 162.741 148.78 148
      vertex 162.934 149.376 154
      vertex 162.934 149.376 148
    endloop
  endfacet
  facet normal -0.951052 0.309029 0
    outer loop
      vertex 162.934 149.376 154
      vertex 162.741 148.78 148
      vertex 162.741 148.78 154
    endloop
  endfacet
  facet normal 0.20792 0.978146 -0
    outer loop
      vertex 159.686 147.016 148
      vertex 159.073 147.147 154
      vertex 159.686 147.016 154
    endloop
  endfacet
  facet normal 0.20792 0.978146 0
    outer loop
      vertex 159.073 147.147 154
      vertex 159.686 147.016 148
      vertex 159.073 147.147 148
    endloop
  endfacet
  facet normal 0.587801 0.809005 -0
    outer loop
      vertex 158.5 147.402 148
      vertex 157.993 147.771 154
      vertex 158.5 147.402 154
    endloop
  endfacet
  facet normal 0.587801 0.809005 0
    outer loop
      vertex 157.993 147.771 154
      vertex 158.5 147.402 148
      vertex 157.993 147.771 148
    endloop
  endfacet
  facet normal 0.866023 0.500004 0
    outer loop
      vertex 157.573 148.237 154
      vertex 157.259 148.78 148
      vertex 157.259 148.78 154
    endloop
  endfacet
  facet normal 0.866023 0.500004 0
    outer loop
      vertex 157.259 148.78 148
      vertex 157.573 148.237 154
      vertex 157.573 148.237 148
    endloop
  endfacet
  facet normal 0 1 -0
    outer loop
      vertex 160.314 147.016 148
      vertex 159.686 147.016 154
      vertex 160.314 147.016 154
    endloop
  endfacet
  facet normal 0 1 0
    outer loop
      vertex 159.686 147.016 154
      vertex 160.314 147.016 148
      vertex 159.686 147.016 148
    endloop
  endfacet
  facet normal 0 -0.104549 0.99452
    outer loop
      vertex 155 167.385 156.19
      vertex 168 167 156.15
      vertex 168 167.385 156.19
    endloop
  endfacet
  facet normal 0 -0.104549 0.99452
    outer loop
      vertex 168 167 156.15
      vertex 155 167.385 156.19
      vertex 155 167 156.15
    endloop
  endfacet
  facet normal 0 0.104549 -0.99452
    outer loop
      vertex 155 166.615 159.81
      vertex 168 167 159.85
      vertex 168 166.615 159.81
    endloop
  endfacet
  facet normal 0 0.104549 -0.99452
    outer loop
      vertex 168 167 159.85
      vertex 155 166.615 159.81
      vertex 155 167 159.85
    endloop
  endfacet
  facet normal 0 1 -0
    outer loop
      vertex 168 165.16 157.807
      vertex 155 165.16 158.193
      vertex 168 165.16 158.193
    endloop
  endfacet
  facet normal 0 1 0
    outer loop
      vertex 155 165.16 158.193
      vertex 168 165.16 157.807
      vertex 155 165.16 157.807
    endloop
  endfacet
  facet normal 0 0.66913 -0.743145
    outer loop
      vertex 155 165.625 159.238
      vertex 168 165.913 159.497
      vertex 168 165.625 159.238
    endloop
  endfacet
  facet normal 0 0.66913 -0.743145
    outer loop
      vertex 168 165.913 159.497
      vertex 155 165.625 159.238
      vertex 155 165.913 159.497
    endloop
  endfacet
  facet normal 0 -0.30901 0.951059
    outer loop
      vertex 155 167.752 156.31
      vertex 168 167.385 156.19
      vertex 168 167.752 156.31
    endloop
  endfacet
  facet normal 0 -0.30901 0.951059
    outer loop
      vertex 168 167.385 156.19
      vertex 155 167.752 156.31
      vertex 155 167.385 156.19
    endloop
  endfacet
  facet normal 0 -0.66913 -0.743145
    outer loop
      vertex 155 168.087 159.497
      vertex 168 168.375 159.238
      vertex 168 168.087 159.497
    endloop
  endfacet
  facet normal -0 -0.66913 -0.743145
    outer loop
      vertex 168 168.375 159.238
      vertex 155 168.087 159.497
      vertex 155 168.375 159.238
    endloop
  endfacet
  facet normal 0 -0.913535 -0.406761
    outer loop
      vertex 155 168.759 158.572
      vertex 168 168.602 158.925
      vertex 155 168.602 158.925
    endloop
  endfacet
  facet normal 0 -0.913535 -0.406761
    outer loop
      vertex 168 168.602 158.925
      vertex 155 168.759 158.572
      vertex 168 168.759 158.572
    endloop
  endfacet
  facet normal -0 0.669152 0.743125
    outer loop
      vertex 155 165.913 156.503
      vertex 168 165.625 156.762
      vertex 168 165.913 156.503
    endloop
  endfacet
  facet normal 0 0.669152 0.743125
    outer loop
      vertex 168 165.625 156.762
      vertex 155 165.913 156.503
      vertex 155 165.625 156.762
    endloop
  endfacet
  facet normal -0 0.499988 0.866033
    outer loop
      vertex 155 166.248 156.31
      vertex 168 165.913 156.503
      vertex 168 166.248 156.31
    endloop
  endfacet
  facet normal 0 0.499988 0.866033
    outer loop
      vertex 168 165.913 156.503
      vertex 155 166.248 156.31
      vertex 155 165.913 156.503
    endloop
  endfacet
  facet normal 0 0.30901 -0.951059
    outer loop
      vertex 155 166.248 159.69
      vertex 168 166.615 159.81
      vertex 168 166.248 159.69
    endloop
  endfacet
  facet normal 0 0.30901 -0.951059
    outer loop
      vertex 168 166.615 159.81
      vertex 155 166.248 159.69
      vertex 155 166.615 159.81
    endloop
  endfacet
  facet normal 0 -0.499988 0.866033
    outer loop
      vertex 155 168.087 156.503
      vertex 168 167.752 156.31
      vertex 168 168.087 156.503
    endloop
  endfacet
  facet normal 0 -0.499988 0.866033
    outer loop
      vertex 168 167.752 156.31
      vertex 155 168.087 156.503
      vertex 155 167.752 156.31
    endloop
  endfacet
  facet normal 0 -0.978155 0.207877
    outer loop
      vertex 155 168.759 157.428
      vertex 168 168.84 157.807
      vertex 155 168.84 157.807
    endloop
  endfacet
  facet normal 0 -0.978155 0.207877
    outer loop
      vertex 168 168.84 157.807
      vertex 155 168.759 157.428
      vertex 168 168.759 157.428
    endloop
  endfacet
  facet normal 0 -0.809012 0.587792
    outer loop
      vertex 155 168.375 156.762
      vertex 168 168.602 157.075
      vertex 155 168.602 157.075
    endloop
  endfacet
  facet normal 0 -0.809012 0.587792
    outer loop
      vertex 168 168.602 157.075
      vertex 155 168.375 156.762
      vertex 168 168.375 156.762
    endloop
  endfacet
  facet normal 0 -0.30901 -0.951059
    outer loop
      vertex 155 167.385 159.81
      vertex 168 167.752 159.69
      vertex 168 167.385 159.81
    endloop
  endfacet
  facet normal -0 -0.30901 -0.951059
    outer loop
      vertex 168 167.752 159.69
      vertex 155 167.385 159.81
      vertex 155 167.752 159.69
    endloop
  endfacet
  facet normal 0 -0.500017 -0.866015
    outer loop
      vertex 155 167.752 159.69
      vertex 168 168.087 159.497
      vertex 168 167.752 159.69
    endloop
  endfacet
  facet normal -0 -0.500017 -0.866015
    outer loop
      vertex 168 168.087 159.497
      vertex 155 167.752 159.69
      vertex 155 168.087 159.497
    endloop
  endfacet
  facet normal 0 -0.104549 -0.99452
    outer loop
      vertex 155 167 159.85
      vertex 168 167.385 159.81
      vertex 168 167 159.85
    endloop
  endfacet
  facet normal -0 -0.104549 -0.99452
    outer loop
      vertex 168 167.385 159.81
      vertex 155 167 159.85
      vertex 155 167.385 159.81
    endloop
  endfacet
  facet normal 0 -0.809012 -0.587792
    outer loop
      vertex 155 168.602 158.925
      vertex 168 168.375 159.238
      vertex 155 168.375 159.238
    endloop
  endfacet
  facet normal 0 -0.809012 -0.587792
    outer loop
      vertex 168 168.375 159.238
      vertex 155 168.602 158.925
      vertex 168 168.602 158.925
    endloop
  endfacet
  facet normal 0 -0.978155 -0.207877
    outer loop
      vertex 155 168.84 158.193
      vertex 168 168.759 158.572
      vertex 155 168.759 158.572
    endloop
  endfacet
  facet normal 0 -0.978155 -0.207877
    outer loop
      vertex 168 168.759 158.572
      vertex 155 168.84 158.193
      vertex 168 168.84 158.193
    endloop
  endfacet
  facet normal -0 0.104549 0.99452
    outer loop
      vertex 155 167 156.15
      vertex 168 166.615 156.19
      vertex 168 167 156.15
    endloop
  endfacet
  facet normal 0 0.104549 0.99452
    outer loop
      vertex 168 166.615 156.19
      vertex 155 167 156.15
      vertex 155 166.615 156.19
    endloop
  endfacet
  facet normal 0 0.978155 0.207877
    outer loop
      vertex 168 165.241 157.428
      vertex 155 165.16 157.807
      vertex 168 165.16 157.807
    endloop
  endfacet
  facet normal 0 0.978155 0.207877
    outer loop
      vertex 155 165.16 157.807
      vertex 168 165.241 157.428
      vertex 155 165.241 157.428
    endloop
  endfacet
  facet normal 0 0.809012 0.587792
    outer loop
      vertex 168 165.625 156.762
      vertex 155 165.398 157.075
      vertex 168 165.398 157.075
    endloop
  endfacet
  facet normal 0 0.809012 0.587792
    outer loop
      vertex 155 165.398 157.075
      vertex 168 165.625 156.762
      vertex 155 165.625 156.762
    endloop
  endfacet
  facet normal 0 0.913535 -0.406761
    outer loop
      vertex 168 165.241 158.572
      vertex 155 165.398 158.925
      vertex 168 165.398 158.925
    endloop
  endfacet
  facet normal 0 0.913535 -0.406761
    outer loop
      vertex 155 165.398 158.925
      vertex 168 165.241 158.572
      vertex 155 165.241 158.572
    endloop
  endfacet
  facet normal 0 0.809012 -0.587792
    outer loop
      vertex 168 165.398 158.925
      vertex 155 165.625 159.238
      vertex 168 165.625 159.238
    endloop
  endfacet
  facet normal 0 0.809012 -0.587792
    outer loop
      vertex 155 165.625 159.238
      vertex 168 165.398 158.925
      vertex 155 165.398 158.925
    endloop
  endfacet
  facet normal 0 0.978155 -0.207877
    outer loop
      vertex 168 165.16 158.193
      vertex 155 165.241 158.572
      vertex 168 165.241 158.572
    endloop
  endfacet
  facet normal 0 0.978155 -0.207877
    outer loop
      vertex 155 165.241 158.572
      vertex 168 165.16 158.193
      vertex 155 165.16 158.193
    endloop
  endfacet
  facet normal 0 0.500017 -0.866015
    outer loop
      vertex 155 165.913 159.497
      vertex 168 166.248 159.69
      vertex 168 165.913 159.497
    endloop
  endfacet
  facet normal 0 0.500017 -0.866015
    outer loop
      vertex 168 166.248 159.69
      vertex 155 165.913 159.497
      vertex 155 166.248 159.69
    endloop
  endfacet
  facet normal 0 -0.669152 0.743125
    outer loop
      vertex 155 168.375 156.762
      vertex 168 168.087 156.503
      vertex 168 168.375 156.762
    endloop
  endfacet
  facet normal 0 -0.669152 0.743125
    outer loop
      vertex 168 168.087 156.503
      vertex 155 168.375 156.762
      vertex 155 168.087 156.503
    endloop
  endfacet
  facet normal 0 -1 0
    outer loop
      vertex 155 168.84 157.807
      vertex 168 168.84 158.193
      vertex 155 168.84 158.193
    endloop
  endfacet
  facet normal 0 -1 -0
    outer loop
      vertex 168 168.84 158.193
      vertex 155 168.84 157.807
      vertex 168 168.84 157.807
    endloop
  endfacet
  facet normal 0 -0.913535 0.406761
    outer loop
      vertex 155 168.602 157.075
      vertex 168 168.759 157.428
      vertex 155 168.759 157.428
    endloop
  endfacet
  facet normal 0 -0.913535 0.406761
    outer loop
      vertex 168 168.759 157.428
      vertex 155 168.602 157.075
      vertex 168 168.602 157.075
    endloop
  endfacet
  facet normal 0 0.913535 0.406761
    outer loop
      vertex 168 165.398 157.075
      vertex 155 165.241 157.428
      vertex 168 165.241 157.428
    endloop
  endfacet
  facet normal 0 0.913535 0.406761
    outer loop
      vertex 155 165.241 157.428
      vertex 168 165.398 157.075
      vertex 155 165.398 157.075
    endloop
  endfacet
  facet normal -0 0.30901 0.951059
    outer loop
      vertex 155 166.615 156.19
      vertex 168 166.248 156.31
      vertex 168 166.615 156.19
    endloop
  endfacet
  facet normal 0 0.30901 0.951059
    outer loop
      vertex 168 166.248 156.31
      vertex 155 166.615 156.19
      vertex 155 166.248 156.31
    endloop
  endfacet
endsolid OpenSCAD_Model
