solid OpenSCAD_Model
  facet normal 0 0 1
    outer loop
      vertex -13 25 5
      vertex -15.4 15 5
      vertex -13 7 5
    endloop
  endfacet
  facet normal 0 0 1
    outer loop
      vertex -13 25 5
      vertex -15.4568 15.5406 5
      vertex -15.4 15 5
    endloop
  endfacet
  facet normal 0 0 1
    outer loop
      vertex -13 25 5
      vertex -15.6248 16.0575 5
      vertex -15.4568 15.5406 5
    endloop
  endfacet
  facet normal 0 0 1
    outer loop
      vertex -13 25 5
      vertex -15.8966 16.5282 5
      vertex -15.6248 16.0575 5
    endloop
  endfacet
  facet normal 0 0 1
    outer loop
      vertex -13 25 5
      vertex -16.2603 16.9322 5
      vertex -15.8966 16.5282 5
    endloop
  endfacet
  facet normal 0 0 1
    outer loop
      vertex -13 25 5
      vertex -16.7 17.2517 5
      vertex -16.2603 16.9322 5
    endloop
  endfacet
  facet normal 0 0 1
    outer loop
      vertex -13 25 5
      vertex -17.1966 17.4727 5
      vertex -16.7 17.2517 5
    endloop
  endfacet
  facet normal 0 0 1
    outer loop
      vertex -13 25 5
      vertex -17.7282 17.5858 5
      vertex -17.1966 17.4727 5
    endloop
  endfacet
  facet normal 0 0 1
    outer loop
      vertex -13 25 5
      vertex -18.2718 17.5858 5
      vertex -17.7282 17.5858 5
    endloop
  endfacet
  facet normal -0 0 1
    outer loop
      vertex -23 25 5
      vertex -18.2718 17.5858 5
      vertex -13 25 5
    endloop
  endfacet
  facet normal 0 0 1
    outer loop
      vertex -18.2718 17.5858 5
      vertex -23 25 5
      vertex -18.8034 17.4727 5
    endloop
  endfacet
  facet normal 0 0 1
    outer loop
      vertex -18.8034 17.4727 5
      vertex -23 25 5
      vertex -19.3 17.2517 5
    endloop
  endfacet
  facet normal 0 0 1
    outer loop
      vertex -19.3 17.2517 5
      vertex -23 25 5
      vertex -19.7397 16.9322 5
    endloop
  endfacet
  facet normal 0 0 1
    outer loop
      vertex -20.5432 15.5406 5
      vertex -23 25 5
      vertex -20.6 15 5
    endloop
  endfacet
  facet normal 0 0 1
    outer loop
      vertex -20.3752 16.0575 5
      vertex -23 25 5
      vertex -20.5432 15.5406 5
    endloop
  endfacet
  facet normal 0 0 1
    outer loop
      vertex -20.1034 16.5282 5
      vertex -23 25 5
      vertex -20.3752 16.0575 5
    endloop
  endfacet
  facet normal 0 0 1
    outer loop
      vertex -19.7397 16.9322 5
      vertex -23 25 5
      vertex -20.1034 16.5282 5
    endloop
  endfacet
  facet normal -0 0 1
    outer loop
      vertex -15.4568 14.4594 5
      vertex -13 7 5
      vertex -15.4 15 5
    endloop
  endfacet
  facet normal -0 0 1
    outer loop
      vertex -15.6248 13.9425 5
      vertex -13 7 5
      vertex -15.4568 14.4594 5
    endloop
  endfacet
  facet normal -0 0 1
    outer loop
      vertex -15.8966 13.4718 5
      vertex -13 7 5
      vertex -15.6248 13.9425 5
    endloop
  endfacet
  facet normal -0 0 1
    outer loop
      vertex -16.2603 13.0678 5
      vertex -13 7 5
      vertex -15.8966 13.4718 5
    endloop
  endfacet
  facet normal -0 0 1
    outer loop
      vertex -16.7 12.7483 5
      vertex -13 7 5
      vertex -16.2603 13.0678 5
    endloop
  endfacet
  facet normal -0 0 1
    outer loop
      vertex -17.1966 12.5273 5
      vertex -13 7 5
      vertex -16.7 12.7483 5
    endloop
  endfacet
  facet normal -0 0 1
    outer loop
      vertex -17.7282 12.4142 5
      vertex -13 7 5
      vertex -17.1966 12.5273 5
    endloop
  endfacet
  facet normal -0 0 1
    outer loop
      vertex -18.2718 12.4142 5
      vertex -13 7 5
      vertex -17.7282 12.4142 5
    endloop
  endfacet
  facet normal 0 0 1
    outer loop
      vertex -23 7 5
      vertex -18.2718 12.4142 5
      vertex -18.8034 12.5273 5
    endloop
  endfacet
  facet normal 0 0 1
    outer loop
      vertex -23 7 5
      vertex -18.8034 12.5273 5
      vertex -19.3 12.7483 5
    endloop
  endfacet
  facet normal 0 0 1
    outer loop
      vertex -23 7 5
      vertex -19.3 12.7483 5
      vertex -19.7397 13.0678 5
    endloop
  endfacet
  facet normal 0 0 1
    outer loop
      vertex -23 7 5
      vertex -20.6 15 5
      vertex -23 25 5
    endloop
  endfacet
  facet normal 0 0 1
    outer loop
      vertex -18.2718 12.4142 5
      vertex -23 7 5
      vertex -13 7 5
    endloop
  endfacet
  facet normal 0 0 1
    outer loop
      vertex -20.1034 13.4718 5
      vertex -23 7 5
      vertex -19.7397 13.0678 5
    endloop
  endfacet
  facet normal 0 0 1
    outer loop
      vertex -20.3752 13.9425 5
      vertex -23 7 5
      vertex -20.1034 13.4718 5
    endloop
  endfacet
  facet normal 0 0 1
    outer loop
      vertex -20.5432 14.4594 5
      vertex -23 7 5
      vertex -20.3752 13.9425 5
    endloop
  endfacet
  facet normal 0 0 1
    outer loop
      vertex -20.6 15 5
      vertex -23 7 5
      vertex -20.5432 14.4594 5
    endloop
  endfacet
  facet normal 0 1 -0
    outer loop
      vertex -13 28 -4.88498e-015
      vertex -23 28 -1.55431e-015
      vertex -13 28 -3.77476e-015
    endloop
  endfacet
  facet normal 0 1 0
    outer loop
      vertex -23 28 -1.55431e-015
      vertex -13 28 -4.88498e-015
      vertex -23 28 -4.88498e-015
    endloop
  endfacet
  facet normal 0 2.22045e-016 -1
    outer loop
      vertex -8 7 -9.54792e-015
      vertex -13 28 -4.88498e-015
      vertex -8 33 -3.77476e-015
    endloop
  endfacet
  facet normal -4.77782e-022 2.22044e-016 -1
    outer loop
      vertex -15.4568 15.5406 -7.65153e-015
      vertex -8 7 -9.54792e-015
      vertex -15.4 15 -7.77156e-015
    endloop
  endfacet
  facet normal 7.60565e-022 2.22045e-016 -1
    outer loop
      vertex -8 7 -9.54792e-015
      vertex -15.4568 14.4594 -7.89159e-015
      vertex -15.4 15 -7.77156e-015
    endloop
  endfacet
  facet normal 4.28637e-023 2.22045e-016 -1
    outer loop
      vertex -8 7 -9.54792e-015
      vertex -15.6248 13.9425 -8.00638e-015
      vertex -15.4568 14.4594 -7.89159e-015
    endloop
  endfacet
  facet normal 3.64064e-023 2.22045e-016 -1
    outer loop
      vertex -8 7 -9.54792e-015
      vertex -15.8966 13.4718 -8.1109e-015
      vertex -15.6248 13.9425 -8.00638e-015
    endloop
  endfacet
  facet normal -9.58008e-022 2.22043e-016 -1
    outer loop
      vertex -8 7 -9.54792e-015
      vertex -16.2603 13.0678 -8.20059e-015
      vertex -15.8966 13.4718 -8.1109e-015
    endloop
  endfacet
  facet normal -2.54947e-023 2.22045e-016 -1
    outer loop
      vertex -8 7 -9.54792e-015
      vertex -16.7 12.7483 -8.27153e-015
      vertex -16.2603 13.0678 -8.20059e-015
    endloop
  endfacet
  facet normal 7.44727e-022 2.22046e-016 -1
    outer loop
      vertex -8 7 -9.54792e-015
      vertex -17.1966 12.5273 -8.32062e-015
      vertex -16.7 12.7483 -8.27153e-015
    endloop
  endfacet
  facet normal -8.76677e-022 2.22043e-016 -1
    outer loop
      vertex -8 7 -9.54792e-015
      vertex -17.7282 12.4142 -8.34571e-015
      vertex -17.1966 12.5273 -8.32062e-015
    endloop
  endfacet
  facet normal 0 2.22045e-016 -1
    outer loop
      vertex -8 7 -9.54792e-015
      vertex -18.2718 12.4142 -8.34571e-015
      vertex -17.7282 12.4142 -8.34571e-015
    endloop
  endfacet
  facet normal 0 2.22045e-016 -1
    outer loop
      vertex -28 7 -9.54792e-015
      vertex -18.2718 12.4142 -8.34571e-015
      vertex -8 7 -9.54792e-015
    endloop
  endfacet
  facet normal 8.76677e-022 2.22043e-016 -1
    outer loop
      vertex -18.2718 12.4142 -8.34571e-015
      vertex -28 7 -9.54792e-015
      vertex -18.8034 12.5273 -8.32062e-015
    endloop
  endfacet
  facet normal -7.60565e-022 2.22045e-016 -1
    outer loop
      vertex -28 7 -9.54792e-015
      vertex -20.6 15 -7.77156e-015
      vertex -20.5432 14.4594 -7.89159e-015
    endloop
  endfacet
  facet normal -7.44727e-022 2.22046e-016 -1
    outer loop
      vertex -18.8034 12.5273 -8.32062e-015
      vertex -28 7 -9.54792e-015
      vertex -19.3 12.7483 -8.27153e-015
    endloop
  endfacet
  facet normal 2.54947e-023 2.22045e-016 -1
    outer loop
      vertex -28 7 -9.54792e-015
      vertex -19.7397 13.0678 -8.20059e-015
      vertex -19.3 12.7483 -8.27153e-015
    endloop
  endfacet
  facet normal 9.58008e-022 2.22043e-016 -1
    outer loop
      vertex -28 7 -9.54792e-015
      vertex -20.1034 13.4718 -8.1109e-015
      vertex -19.7397 13.0678 -8.20059e-015
    endloop
  endfacet
  facet normal -3.64064e-023 2.22045e-016 -1
    outer loop
      vertex -28 7 -9.54792e-015
      vertex -20.3752 13.9425 -8.00638e-015
      vertex -20.1034 13.4718 -8.1109e-015
    endloop
  endfacet
  facet normal -4.28637e-023 2.22045e-016 -1
    outer loop
      vertex -28 7 -9.54792e-015
      vertex -20.5432 14.4594 -7.89159e-015
      vertex -20.3752 13.9425 -8.00638e-015
    endloop
  endfacet
  facet normal 0 2.22045e-016 -1
    outer loop
      vertex -20.6 15 -7.77156e-015
      vertex -28 7 -9.54792e-015
      vertex -23 28 -4.88498e-015
    endloop
  endfacet
  facet normal 0 2.22045e-016 -1
    outer loop
      vertex -28 33 -3.77476e-015
      vertex -23 28 -4.88498e-015
      vertex -28 7 -9.54792e-015
    endloop
  endfacet
  facet normal 0 2.22045e-016 -1
    outer loop
      vertex -23 28 -4.88498e-015
      vertex -28 33 -3.77476e-015
      vertex -23 33 -3.77476e-015
    endloop
  endfacet
  facet normal 0 2.22045e-016 -1
    outer loop
      vertex -8 33 -3.77476e-015
      vertex -13 28 -4.88498e-015
      vertex -13 33 -3.77476e-015
    endloop
  endfacet
  facet normal 3.90457e-023 2.22045e-016 -1
    outer loop
      vertex -8 7 -9.54792e-015
      vertex -15.4568 15.5406 -7.65153e-015
      vertex -13 28 -4.88498e-015
    endloop
  endfacet
  facet normal 8.17133e-022 2.22044e-016 -1
    outer loop
      vertex -15.6248 16.0575 -7.53675e-015
      vertex -13 28 -4.88498e-015
      vertex -15.4568 15.5406 -7.65153e-015
    endloop
  endfacet
  facet normal 4.44881e-023 2.22045e-016 -1
    outer loop
      vertex -15.8966 16.5282 -7.43222e-015
      vertex -13 28 -4.88498e-015
      vertex -15.6248 16.0575 -7.53675e-015
    endloop
  endfacet
  facet normal 3.2022e-023 2.22045e-016 -1
    outer loop
      vertex -16.2603 16.9322 -7.34253e-015
      vertex -13 28 -4.88498e-015
      vertex -15.8966 16.5282 -7.43222e-015
    endloop
  endfacet
  facet normal 2.29003e-023 2.22045e-016 -1
    outer loop
      vertex -16.7 17.2517 -7.27159e-015
      vertex -13 28 -4.88498e-015
      vertex -16.2603 16.9322 -7.34253e-015
    endloop
  endfacet
  facet normal -7.24347e-022 2.22045e-016 -1
    outer loop
      vertex -17.1966 17.4727 -7.2225e-015
      vertex -13 28 -4.88498e-015
      vertex -16.7 17.2517 -7.27159e-015
    endloop
  endfacet
  facet normal 7.34355e-022 2.22044e-016 -1
    outer loop
      vertex -17.7282 17.5858 -7.19741e-015
      vertex -13 28 -4.88498e-015
      vertex -17.1966 17.4727 -7.2225e-015
    endloop
  endfacet
  facet normal 0 2.22045e-016 -1
    outer loop
      vertex -18.2718 17.5858 -7.19741e-015
      vertex -13 28 -4.88498e-015
      vertex -17.7282 17.5858 -7.19741e-015
    endloop
  endfacet
  facet normal -7.34355e-022 2.22044e-016 -1
    outer loop
      vertex -23 28 -4.88498e-015
      vertex -18.2718 17.5858 -7.19741e-015
      vertex -18.8034 17.4727 -7.2225e-015
    endloop
  endfacet
  facet normal 7.24347e-022 2.22045e-016 -1
    outer loop
      vertex -23 28 -4.88498e-015
      vertex -18.8034 17.4727 -7.2225e-015
      vertex -19.3 17.2517 -7.27159e-015
    endloop
  endfacet
  facet normal -2.29003e-023 2.22045e-016 -1
    outer loop
      vertex -23 28 -4.88498e-015
      vertex -19.3 17.2517 -7.27159e-015
      vertex -19.7397 16.9322 -7.34253e-015
    endloop
  endfacet
  facet normal -3.2022e-023 2.22045e-016 -1
    outer loop
      vertex -23 28 -4.88498e-015
      vertex -19.7397 16.9322 -7.34253e-015
      vertex -20.1034 16.5282 -7.43222e-015
    endloop
  endfacet
  facet normal 0 2.22045e-016 -1
    outer loop
      vertex -18.2718 17.5858 -7.19741e-015
      vertex -23 28 -4.88498e-015
      vertex -13 28 -4.88498e-015
    endloop
  endfacet
  facet normal -4.44882e-023 2.22045e-016 -1
    outer loop
      vertex -20.3752 16.0575 -7.53675e-015
      vertex -23 28 -4.88498e-015
      vertex -20.1034 16.5282 -7.43222e-015
    endloop
  endfacet
  facet normal -8.1713e-022 2.22044e-016 -1
    outer loop
      vertex -20.5432 15.5406 -7.65153e-015
      vertex -23 28 -4.88498e-015
      vertex -20.3752 16.0575 -7.53675e-015
    endloop
  endfacet
  facet normal -1.35211e-021 2.22044e-016 -1
    outer loop
      vertex -23 28 -4.88498e-015
      vertex -20.5432 15.5406 -7.65153e-015
      vertex -20.6 15 -7.77156e-015
    endloop
  endfacet
  facet normal -1 0 0
    outer loop
      vertex -28 33 -3.77476e-015
      vertex -28 23 -1.55431e-015
      vertex -28 33 6.66134e-016
    endloop
  endfacet
  facet normal -1 -0 0
    outer loop
      vertex -28 23 -1.55431e-015
      vertex -28 7 -9.54792e-015
      vertex -28 23 3
    endloop
  endfacet
  facet normal -1 0 0
    outer loop
      vertex -28 7 -9.54792e-015
      vertex -28 23 -1.55431e-015
      vertex -28 33 -3.77476e-015
    endloop
  endfacet
  facet normal -1 0 0
    outer loop
      vertex -28 7 10
      vertex -28 23 3
      vertex -28 7 -9.54792e-015
    endloop
  endfacet
  facet normal -1 0 0
    outer loop
      vertex -28 23 3
      vertex -28 7 10
      vertex -28 30 10
    endloop
  endfacet
  facet normal 0 -1 0
    outer loop
      vertex -28 7 10
      vertex -23 7 5
      vertex -23 7 10
    endloop
  endfacet
  facet normal 0 -1 -0
    outer loop
      vertex -23 7 5
      vertex -28 7 -9.54792e-015
      vertex -13 7 5
    endloop
  endfacet
  facet normal 0 -1 0
    outer loop
      vertex -28 7 -9.54792e-015
      vertex -23 7 5
      vertex -28 7 10
    endloop
  endfacet
  facet normal 0 -1 0
    outer loop
      vertex -13 7 5
      vertex -8 7 10
      vertex -13 7 10
    endloop
  endfacet
  facet normal 0 -1 0
    outer loop
      vertex -13 7 5
      vertex -8 7 -9.54792e-015
      vertex -8 7 10
    endloop
  endfacet
  facet normal 0 -1 0
    outer loop
      vertex -8 7 -9.54792e-015
      vertex -13 7 5
      vertex -28 7 -9.54792e-015
    endloop
  endfacet
  facet normal 1 -0 0
    outer loop
      vertex -8 7 10
      vertex -8 33 -3.77476e-015
      vertex -8 33 10
    endloop
  endfacet
  facet normal 1 0 0
    outer loop
      vertex -8 33 -3.77476e-015
      vertex -8 7 10
      vertex -8 7 -9.54792e-015
    endloop
  endfacet
  facet normal -0 0 1
    outer loop
      vertex -13 30 10
      vertex -8 7 10
      vertex -8 30 10
    endloop
  endfacet
  facet normal 0 0 1
    outer loop
      vertex -8 7 10
      vertex -13 30 10
      vertex -13 7 10
    endloop
  endfacet
  facet normal 0 0 0
    outer loop
      vertex -8 30 10
      vertex -8 7 10
      vertex -8 33 10
    endloop
  endfacet
  facet normal 0 1 0
    outer loop
      vertex -13 33 -3.77476e-015
      vertex -13 33 -2.66454e-015
      vertex -8 33 -3.77476e-015
    endloop
  endfacet
  facet normal -1 0 0
    outer loop
      vertex -13 28 -4.88498e-015
      vertex -13 33 -2.66454e-015
      vertex -13 33 -3.77476e-015
    endloop
  endfacet
  facet normal -1 0 0
    outer loop
      vertex -13 33 -2.66454e-015
      vertex -13 28 -4.88498e-015
      vertex -13 28 -3.77476e-015
    endloop
  endfacet
  facet normal -1 0 0
    outer loop
      vertex -13 7 10
      vertex -13 25 5
      vertex -13 7 5
    endloop
  endfacet
  facet normal -1 0 0
    outer loop
      vertex -13 25 5
      vertex -13 7 10
      vertex -13 30 10
    endloop
  endfacet
  facet normal -0 0 1
    outer loop
      vertex -28 30 10
      vertex -23 7 10
      vertex -23 30 10
    endloop
  endfacet
  facet normal 0 0 1
    outer loop
      vertex -23 7 10
      vertex -28 30 10
      vertex -28 7 10
    endloop
  endfacet
  facet normal 0 1 -0
    outer loop
      vertex -23 33 -3.77476e-015
      vertex -28 33 6.66134e-016
      vertex -23 33 -4.44089e-016
    endloop
  endfacet
  facet normal 0 1 0
    outer loop
      vertex -28 33 6.66134e-016
      vertex -23 33 -3.77476e-015
      vertex -28 33 -3.77476e-015
    endloop
  endfacet
  facet normal 1 -0 0
    outer loop
      vertex -23 28 -1.55431e-015
      vertex -23 33 -3.77476e-015
      vertex -23 33 -4.44089e-016
    endloop
  endfacet
  facet normal 1 0 0
    outer loop
      vertex -23 33 -3.77476e-015
      vertex -23 28 -1.55431e-015
      vertex -23 28 -4.88498e-015
    endloop
  endfacet
  facet normal 1 -0 0
    outer loop
      vertex -23 7 10
      vertex -23 26.4298 6.42977
      vertex -23 30 10
    endloop
  endfacet
  facet normal 1 0 0
    outer loop
      vertex -23 7 10
      vertex -23 25 5
      vertex -23 26.4298 6.42977
    endloop
  endfacet
  facet normal 1 0 0
    outer loop
      vertex -23 25 5
      vertex -23 7 10
      vertex -23 7 5
    endloop
  endfacet
  facet normal 0.866027 -0.499998 0
    outer loop
      vertex -20.3752 16.0575 5
      vertex -20.1034 16.5282 -7.43222e-015
      vertex -20.1034 16.5282 5
    endloop
  endfacet
  facet normal 0.866027 -0.499998 0
    outer loop
      vertex -20.1034 16.5282 -7.43222e-015
      vertex -20.3752 16.0575 5
      vertex -20.3752 16.0575 -7.53675e-015
    endloop
  endfacet
  facet normal 0.994522 0.104528 0
    outer loop
      vertex -20.5432 14.4594 5
      vertex -20.6 15 -7.77156e-015
      vertex -20.6 15 5
    endloop
  endfacet
  facet normal 0.994522 0.104528 0
    outer loop
      vertex -20.6 15 -7.77156e-015
      vertex -20.5432 14.4594 5
      vertex -20.5432 14.4594 -7.89159e-015
    endloop
  endfacet
  facet normal 0.743144 -0.669131 0
    outer loop
      vertex -20.1034 16.5282 5
      vertex -19.7397 16.9322 -7.34253e-015
      vertex -19.7397 16.9322 5
    endloop
  endfacet
  facet normal 0.743144 -0.669131 0
    outer loop
      vertex -19.7397 16.9322 -7.34253e-015
      vertex -20.1034 16.5282 5
      vertex -20.1034 16.5282 -7.43222e-015
    endloop
  endfacet
  facet normal 0.207909 -0.978148 0
    outer loop
      vertex -18.8034 17.4727 5
      vertex -18.2718 17.5858 -7.19741e-015
      vertex -18.2718 17.5858 5
    endloop
  endfacet
  facet normal 0.207909 -0.978148 0
    outer loop
      vertex -18.2718 17.5858 -7.19741e-015
      vertex -18.8034 17.4727 5
      vertex -18.8034 17.4727 -7.2225e-015
    endloop
  endfacet
  facet normal -0.587783 -0.809019 0
    outer loop
      vertex -16.7 17.2517 -7.27159e-015
      vertex -16.2603 16.9322 5
      vertex -16.7 17.2517 5
    endloop
  endfacet
  facet normal -0.587783 -0.809019 -0
    outer loop
      vertex -16.2603 16.9322 5
      vertex -16.7 17.2517 -7.27159e-015
      vertex -16.2603 16.9322 -7.34253e-015
    endloop
  endfacet
  facet normal -0.951057 -0.309017 0
    outer loop
      vertex -15.4568 15.5406 -7.65153e-015
      vertex -15.6248 16.0575 5
      vertex -15.6248 16.0575 -7.53675e-015
    endloop
  endfacet
  facet normal -0.951057 -0.309017 0
    outer loop
      vertex -15.6248 16.0575 5
      vertex -15.4568 15.5406 -7.65153e-015
      vertex -15.4568 15.5406 5
    endloop
  endfacet
  facet normal -0.743144 -0.669131 0
    outer loop
      vertex -15.8966 16.5282 -7.43222e-015
      vertex -16.2603 16.9322 5
      vertex -16.2603 16.9322 -7.34253e-015
    endloop
  endfacet
  facet normal -0.743144 -0.669131 0
    outer loop
      vertex -16.2603 16.9322 5
      vertex -15.8966 16.5282 -7.43222e-015
      vertex -15.8966 16.5282 5
    endloop
  endfacet
  facet normal 0.406738 0.913545 0
    outer loop
      vertex -18.8034 12.5273 5
      vertex -19.3 12.7483 -8.27153e-015
      vertex -19.3 12.7483 5
    endloop
  endfacet
  facet normal 0.406738 0.913545 0
    outer loop
      vertex -19.3 12.7483 -8.27153e-015
      vertex -18.8034 12.5273 5
      vertex -18.8034 12.5273 -8.32062e-015
    endloop
  endfacet
  facet normal 0.951056 -0.309019 0
    outer loop
      vertex -20.5432 15.5406 5
      vertex -20.3752 16.0575 -7.53675e-015
      vertex -20.3752 16.0575 5
    endloop
  endfacet
  facet normal 0.951056 -0.309019 0
    outer loop
      vertex -20.3752 16.0575 -7.53675e-015
      vertex -20.5432 15.5406 5
      vertex -20.5432 15.5406 -7.65153e-015
    endloop
  endfacet
  facet normal 0.587783 -0.809019 0
    outer loop
      vertex -19.7397 16.9322 5
      vertex -19.3 17.2517 -7.27159e-015
      vertex -19.3 17.2517 5
    endloop
  endfacet
  facet normal 0.587783 -0.809019 0
    outer loop
      vertex -19.3 17.2517 -7.27159e-015
      vertex -19.7397 16.9322 5
      vertex -19.7397 16.9322 -7.34253e-015
    endloop
  endfacet
  facet normal -0.207909 -0.978148 0
    outer loop
      vertex -17.7282 17.5858 -7.19741e-015
      vertex -17.1966 17.4727 5
      vertex -17.7282 17.5858 5
    endloop
  endfacet
  facet normal -0.207909 -0.978148 -0
    outer loop
      vertex -17.1966 17.4727 5
      vertex -17.7282 17.5858 -7.19741e-015
      vertex -17.1966 17.4727 -7.2225e-015
    endloop
  endfacet
  facet normal 0.40674 -0.913544 0
    outer loop
      vertex -19.3 17.2517 5
      vertex -18.8034 17.4727 -7.2225e-015
      vertex -18.8034 17.4727 5
    endloop
  endfacet
  facet normal 0.40674 -0.913544 0
    outer loop
      vertex -18.8034 17.4727 -7.2225e-015
      vertex -19.3 17.2517 5
      vertex -19.3 17.2517 -7.27159e-015
    endloop
  endfacet
  facet normal -0.994522 0.104528 0
    outer loop
      vertex -15.4568 14.4594 -7.89159e-015
      vertex -15.4 15 5
      vertex -15.4 15 -7.77156e-015
    endloop
  endfacet
  facet normal -0.994522 0.104528 0
    outer loop
      vertex -15.4 15 5
      vertex -15.4568 14.4594 -7.89159e-015
      vertex -15.4568 14.4594 5
    endloop
  endfacet
  facet normal -0.866026 -0.499999 0
    outer loop
      vertex -15.6248 16.0575 -7.53675e-015
      vertex -15.8966 16.5282 5
      vertex -15.8966 16.5282 -7.43222e-015
    endloop
  endfacet
  facet normal -0.866026 -0.499999 0
    outer loop
      vertex -15.8966 16.5282 5
      vertex -15.6248 16.0575 -7.53675e-015
      vertex -15.6248 16.0575 5
    endloop
  endfacet
  facet normal -0.40674 -0.913544 0
    outer loop
      vertex -17.1966 17.4727 -7.2225e-015
      vertex -16.7 17.2517 5
      vertex -17.1966 17.4727 5
    endloop
  endfacet
  facet normal -0.40674 -0.913544 -0
    outer loop
      vertex -16.7 17.2517 5
      vertex -17.1966 17.4727 -7.2225e-015
      vertex -16.7 17.2517 -7.27159e-015
    endloop
  endfacet
  facet normal 0.994522 -0.104528 0
    outer loop
      vertex -20.6 15 5
      vertex -20.5432 15.5406 -7.65153e-015
      vertex -20.5432 15.5406 5
    endloop
  endfacet
  facet normal 0.994522 -0.104528 0
    outer loop
      vertex -20.5432 15.5406 -7.65153e-015
      vertex -20.6 15 5
      vertex -20.6 15 -7.77156e-015
    endloop
  endfacet
  facet normal -0.743144 0.669131 0
    outer loop
      vertex -16.2603 13.0678 -8.20059e-015
      vertex -15.8966 13.4718 5
      vertex -15.8966 13.4718 -8.1109e-015
    endloop
  endfacet
  facet normal -0.743144 0.669131 0
    outer loop
      vertex -15.8966 13.4718 5
      vertex -16.2603 13.0678 -8.20059e-015
      vertex -16.2603 13.0678 5
    endloop
  endfacet
  facet normal 0.951056 0.309019 0
    outer loop
      vertex -20.3752 13.9425 5
      vertex -20.5432 14.4594 -7.89159e-015
      vertex -20.5432 14.4594 5
    endloop
  endfacet
  facet normal 0.951056 0.309019 0
    outer loop
      vertex -20.5432 14.4594 -7.89159e-015
      vertex -20.3752 13.9425 5
      vertex -20.3752 13.9425 -8.00638e-015
    endloop
  endfacet
  facet normal 0.743144 0.669131 0
    outer loop
      vertex -19.7397 13.0678 5
      vertex -20.1034 13.4718 -8.1109e-015
      vertex -20.1034 13.4718 5
    endloop
  endfacet
  facet normal 0.743144 0.669131 0
    outer loop
      vertex -20.1034 13.4718 -8.1109e-015
      vertex -19.7397 13.0678 5
      vertex -19.7397 13.0678 -8.20059e-015
    endloop
  endfacet
  facet normal 0 -1 0
    outer loop
      vertex -18.2718 17.5858 -7.19741e-015
      vertex -17.7282 17.5858 5
      vertex -18.2718 17.5858 5
    endloop
  endfacet
  facet normal 0 -1 -0
    outer loop
      vertex -17.7282 17.5858 5
      vertex -18.2718 17.5858 -7.19741e-015
      vertex -17.7282 17.5858 -7.19741e-015
    endloop
  endfacet
  facet normal -0.994522 -0.104528 0
    outer loop
      vertex -15.4 15 -7.77156e-015
      vertex -15.4568 15.5406 5
      vertex -15.4568 15.5406 -7.65153e-015
    endloop
  endfacet
  facet normal -0.994522 -0.104528 0
    outer loop
      vertex -15.4568 15.5406 5
      vertex -15.4 15 -7.77156e-015
      vertex -15.4 15 5
    endloop
  endfacet
  facet normal -0.951056 0.309018 0
    outer loop
      vertex -15.6248 13.9425 -8.00638e-015
      vertex -15.4568 14.4594 5
      vertex -15.4568 14.4594 -7.89159e-015
    endloop
  endfacet
  facet normal -0.951056 0.309018 0
    outer loop
      vertex -15.4568 14.4594 5
      vertex -15.6248 13.9425 -8.00638e-015
      vertex -15.6248 13.9425 5
    endloop
  endfacet
  facet normal 0.866027 0.499998 0
    outer loop
      vertex -20.1034 13.4718 5
      vertex -20.3752 13.9425 -8.00638e-015
      vertex -20.3752 13.9425 5
    endloop
  endfacet
  facet normal 0.866027 0.499998 0
    outer loop
      vertex -20.3752 13.9425 -8.00638e-015
      vertex -20.1034 13.4718 5
      vertex -20.1034 13.4718 -8.1109e-015
    endloop
  endfacet
  facet normal 0.587783 0.809019 0
    outer loop
      vertex -19.3 12.7483 5
      vertex -19.7397 13.0678 -8.20059e-015
      vertex -19.7397 13.0678 5
    endloop
  endfacet
  facet normal 0.587783 0.809019 0
    outer loop
      vertex -19.7397 13.0678 -8.20059e-015
      vertex -19.3 12.7483 5
      vertex -19.3 12.7483 -8.27153e-015
    endloop
  endfacet
  facet normal 0 1 -0
    outer loop
      vertex -17.7282 12.4142 -8.34571e-015
      vertex -18.2718 12.4142 5
      vertex -17.7282 12.4142 5
    endloop
  endfacet
  facet normal 0 1 0
    outer loop
      vertex -18.2718 12.4142 5
      vertex -17.7282 12.4142 -8.34571e-015
      vertex -18.2718 12.4142 -8.34571e-015
    endloop
  endfacet
  facet normal 0.207911 0.978148 0
    outer loop
      vertex -18.2718 12.4142 5
      vertex -18.8034 12.5273 -8.32062e-015
      vertex -18.8034 12.5273 5
    endloop
  endfacet
  facet normal 0.207911 0.978148 0
    outer loop
      vertex -18.8034 12.5273 -8.32062e-015
      vertex -18.2718 12.4142 5
      vertex -18.2718 12.4142 -8.34571e-015
    endloop
  endfacet
  facet normal -0.866026 0.499999 0
    outer loop
      vertex -15.8966 13.4718 -8.1109e-015
      vertex -15.6248 13.9425 5
      vertex -15.6248 13.9425 -8.00638e-015
    endloop
  endfacet
  facet normal -0.866026 0.499999 0
    outer loop
      vertex -15.6248 13.9425 5
      vertex -15.8966 13.4718 -8.1109e-015
      vertex -15.8966 13.4718 5
    endloop
  endfacet
  facet normal -0.587783 0.809019 0
    outer loop
      vertex -16.2603 13.0678 -8.20059e-015
      vertex -16.7 12.7483 5
      vertex -16.2603 13.0678 5
    endloop
  endfacet
  facet normal -0.587783 0.809019 0
    outer loop
      vertex -16.7 12.7483 5
      vertex -16.2603 13.0678 -8.20059e-015
      vertex -16.7 12.7483 -8.27153e-015
    endloop
  endfacet
  facet normal -0.207911 0.978148 0
    outer loop
      vertex -17.1966 12.5273 -8.32062e-015
      vertex -17.7282 12.4142 5
      vertex -17.1966 12.5273 5
    endloop
  endfacet
  facet normal -0.207911 0.978148 0
    outer loop
      vertex -17.7282 12.4142 5
      vertex -17.1966 12.5273 -8.32062e-015
      vertex -17.7282 12.4142 -8.34571e-015
    endloop
  endfacet
  facet normal -0.406738 0.913545 0
    outer loop
      vertex -16.7 12.7483 -8.27153e-015
      vertex -17.1966 12.5273 5
      vertex -16.7 12.7483 5
    endloop
  endfacet
  facet normal -0.406738 0.913545 0
    outer loop
      vertex -17.1966 12.5273 5
      vertex -16.7 12.7483 -8.27153e-015
      vertex -17.1966 12.5273 -8.32062e-015
    endloop
  endfacet
  facet normal 0 1 0
    outer loop
      vertex -8 50 27
      vertex -17.7282 50 22.5858
      vertex -28 50 27
    endloop
  endfacet
  facet normal 0 1 0
    outer loop
      vertex -8 50 27
      vertex -17.1966 50 22.4727
      vertex -17.7282 50 22.5858
    endloop
  endfacet
  facet normal 0 1 0
    outer loop
      vertex -8 50 27
      vertex -16.7 50 22.2517
      vertex -17.1966 50 22.4727
    endloop
  endfacet
  facet normal 0 1 0
    outer loop
      vertex -8 50 27
      vertex -16.2603 50 21.9322
      vertex -16.7 50 22.2517
    endloop
  endfacet
  facet normal 0 1 0
    outer loop
      vertex -8 50 27
      vertex -15.8966 50 21.5282
      vertex -16.2603 50 21.9322
    endloop
  endfacet
  facet normal 0 1 0
    outer loop
      vertex -8 50 27
      vertex -15.6248 50 21.0575
      vertex -15.8966 50 21.5282
    endloop
  endfacet
  facet normal 0 1 0
    outer loop
      vertex -8 50 27
      vertex -15.4568 50 20.5406
      vertex -15.6248 50 21.0575
    endloop
  endfacet
  facet normal 0 1 0
    outer loop
      vertex -8 50 27
      vertex -15.4 50 20
      vertex -15.4568 50 20.5406
    endloop
  endfacet
  facet normal 0 1 0
    outer loop
      vertex -8 50 27
      vertex -15.4568 50 19.4594
      vertex -15.4 50 20
    endloop
  endfacet
  facet normal 0 1 0
    outer loop
      vertex -15.5 50 13
      vertex -15.4568 50 19.4594
      vertex -8 50 27
    endloop
  endfacet
  facet normal 0 1 0
    outer loop
      vertex -15.4568 50 19.4594
      vertex -15.5 50 13
      vertex -15.6248 50 18.9425
    endloop
  endfacet
  facet normal 0 1 0
    outer loop
      vertex -15.6248 50 18.9425
      vertex -15.5 50 13
      vertex -15.8966 50 18.4718
    endloop
  endfacet
  facet normal 0 1 0
    outer loop
      vertex -17.7282 50 17.4142
      vertex -15.5 50 13
      vertex -18.2718 50 17.4142
    endloop
  endfacet
  facet normal 0 1 0
    outer loop
      vertex -17.1966 50 17.5273
      vertex -15.5 50 13
      vertex -17.7282 50 17.4142
    endloop
  endfacet
  facet normal 0 1 0
    outer loop
      vertex -16.7 50 17.7483
      vertex -15.5 50 13
      vertex -17.1966 50 17.5273
    endloop
  endfacet
  facet normal 0 1 0
    outer loop
      vertex -16.2603 50 18.0678
      vertex -15.5 50 13
      vertex -16.7 50 17.7483
    endloop
  endfacet
  facet normal 0 1 0
    outer loop
      vertex -15.8966 50 18.4718
      vertex -15.5 50 13
      vertex -16.2603 50 18.0678
    endloop
  endfacet
  facet normal 0 1 -0
    outer loop
      vertex -8 50 0
      vertex -15.5 50 13
      vertex -8 50 27
    endloop
  endfacet
  facet normal 0 1 0
    outer loop
      vertex -15.5 50 13
      vertex -8 50 0
      vertex -15.5 50 1.66533e-015
    endloop
  endfacet
  facet normal 0 1 -0
    outer loop
      vertex -18.2718 50 22.5858
      vertex -28 50 27
      vertex -17.7282 50 22.5858
    endloop
  endfacet
  facet normal 0 1 -0
    outer loop
      vertex -18.8034 50 22.4727
      vertex -28 50 27
      vertex -18.2718 50 22.5858
    endloop
  endfacet
  facet normal 0 1 -0
    outer loop
      vertex -19.3 50 22.2517
      vertex -28 50 27
      vertex -18.8034 50 22.4727
    endloop
  endfacet
  facet normal 0 1 -0
    outer loop
      vertex -19.7397 50 21.9322
      vertex -28 50 27
      vertex -19.3 50 22.2517
    endloop
  endfacet
  facet normal 0 1 -0
    outer loop
      vertex -20.1034 50 21.5282
      vertex -28 50 27
      vertex -19.7397 50 21.9322
    endloop
  endfacet
  facet normal 0 1 -0
    outer loop
      vertex -20.3752 50 21.0575
      vertex -28 50 27
      vertex -20.1034 50 21.5282
    endloop
  endfacet
  facet normal 0 1 -0
    outer loop
      vertex -20.5432 50 20.5406
      vertex -28 50 27
      vertex -20.3752 50 21.0575
    endloop
  endfacet
  facet normal 0 1 -0
    outer loop
      vertex -20.6 50 20
      vertex -28 50 27
      vertex -20.5432 50 20.5406
    endloop
  endfacet
  facet normal 0 1 0
    outer loop
      vertex -20.5432 50 19.4594
      vertex -28 50 27
      vertex -20.6 50 20
    endloop
  endfacet
  facet normal 0 1 -0
    outer loop
      vertex -20.5 50 13
      vertex -20.5432 50 19.4594
      vertex -20.3752 50 18.9425
    endloop
  endfacet
  facet normal 0 1 0
    outer loop
      vertex -20.5 50 13
      vertex -20.3752 50 18.9425
      vertex -20.1034 50 18.4718
    endloop
  endfacet
  facet normal 0 1 0
    outer loop
      vertex -20.5 50 13
      vertex -20.1034 50 18.4718
      vertex -19.7397 50 18.0678
    endloop
  endfacet
  facet normal 0 1 0
    outer loop
      vertex -20.5 50 13
      vertex -18.2718 50 17.4142
      vertex -15.5 50 13
    endloop
  endfacet
  facet normal 0 1 0
    outer loop
      vertex -18.2718 50 17.4142
      vertex -20.5 50 13
      vertex -18.8034 50 17.5273
    endloop
  endfacet
  facet normal 0 1 0
    outer loop
      vertex -18.8034 50 17.5273
      vertex -20.5 50 13
      vertex -19.3 50 17.7483
    endloop
  endfacet
  facet normal 0 1 0
    outer loop
      vertex -19.3 50 17.7483
      vertex -20.5 50 13
      vertex -19.7397 50 18.0678
    endloop
  endfacet
  facet normal 0 1 0
    outer loop
      vertex -20.5432 50 19.4594
      vertex -20.5 50 13
      vertex -28 50 27
    endloop
  endfacet
  facet normal 0 1 0
    outer loop
      vertex -20.5 50 13
      vertex -28 50 4.44089e-015
      vertex -28 50 27
    endloop
  endfacet
  facet normal -0 1 0
    outer loop
      vertex -28 50 4.44089e-015
      vertex -20.5 50 13
      vertex -20.5 50 2.77556e-015
    endloop
  endfacet
  facet normal -1 0 0
    outer loop
      vertex -28 50 4.44089e-015
      vertex -28 47 27
      vertex -28 50 27
    endloop
  endfacet
  facet normal -1 0 0
    outer loop
      vertex -28 23 3
      vertex -28 50 4.44089e-015
      vertex -28 23 -1.55431e-015
    endloop
  endfacet
  facet normal -1 0 0
    outer loop
      vertex -28 50 4.44089e-015
      vertex -28 23 3
      vertex -28 47 27
    endloop
  endfacet
  facet normal 1 0 0
    outer loop
      vertex -8 44.1074 24.1074
      vertex -8 30 10
      vertex -8 33 10
    endloop
  endfacet
  facet normal 1 0 0
    outer loop
      vertex -8 44.1074 24.1074
      vertex -8 50 27
      vertex -8 47 27
    endloop
  endfacet
  facet normal 1 0 0
    outer loop
      vertex -8 50 27
      vertex -8 44.1074 24.1074
      vertex -8 50 0
    endloop
  endfacet
  facet normal 1 -0 0
    outer loop
      vertex -8 33 10
      vertex -8 50 0
      vertex -8 44.1074 24.1074
    endloop
  endfacet
  facet normal 1 0 0
    outer loop
      vertex -8 50 0
      vertex -8 33 10
      vertex -8 33 -3.77476e-015
    endloop
  endfacet
  facet normal -2.22045e-016 2.22045e-016 -1
    outer loop
      vertex -23 33 -4.44089e-016
      vertex -13 33 -2.66454e-015
      vertex -13 28 -3.77476e-015
    endloop
  endfacet
  facet normal -2.22045e-016 2.22045e-016 -1
    outer loop
      vertex -15.5 50 1.66533e-015
      vertex -20.5 50 2.77556e-015
      vertex -15.5 52 2.10942e-015
    endloop
  endfacet
  facet normal -2.22045e-016 2.22045e-016 -1
    outer loop
      vertex -13 33 -2.66454e-015
      vertex -23 33 -4.44089e-016
      vertex -15.5 50 1.66533e-015
    endloop
  endfacet
  facet normal -2.22045e-016 2.22045e-016 -1
    outer loop
      vertex -23 33 -4.44089e-016
      vertex -13 28 -3.77476e-015
      vertex -23 28 -1.55431e-015
    endloop
  endfacet
  facet normal -2.22045e-016 2.22045e-016 -1
    outer loop
      vertex -15.5 50 1.66533e-015
      vertex -23 33 -4.44089e-016
      vertex -20.5 50 2.77556e-015
    endloop
  endfacet
  facet normal -2.22045e-016 2.22045e-016 -1
    outer loop
      vertex -28 50 4.44089e-015
      vertex -23 33 -4.44089e-016
      vertex -28 33 6.66134e-016
    endloop
  endfacet
  facet normal -2.22045e-016 2.22045e-016 -1
    outer loop
      vertex -23 33 -4.44089e-016
      vertex -28 50 4.44089e-015
      vertex -20.5 50 2.77556e-015
    endloop
  endfacet
  facet normal -2.22045e-016 2.22045e-016 -1
    outer loop
      vertex -13 33 -2.66454e-015
      vertex -8 50 0
      vertex -8 33 -3.77476e-015
    endloop
  endfacet
  facet normal -2.22045e-016 2.22045e-016 -1
    outer loop
      vertex -8 50 0
      vertex -13 33 -2.66454e-015
      vertex -15.5 50 1.66533e-015
    endloop
  endfacet
  facet normal -2.22045e-016 2.22045e-016 -1
    outer loop
      vertex -15.5 52 2.10942e-015
      vertex -20.5 50 2.77556e-015
      vertex -20.5 52 3.21965e-015
    endloop
  endfacet
  facet normal 0 0 0
    outer loop
      vertex -28 33 6.66134e-016
      vertex -28 23 -1.55431e-015
      vertex -28 50 4.44089e-015
    endloop
  endfacet
  facet normal -0 0 1
    outer loop
      vertex -28 50 27
      vertex -8 47 27
      vertex -8 50 27
    endloop
  endfacet
  facet normal 0 0 1
    outer loop
      vertex -8 47 27
      vertex -28 50 27
      vertex -28 47 27
    endloop
  endfacet
  facet normal 0 -0.707107 0.707107
    outer loop
      vertex -28 47 27
      vertex -22.5 45 25
      vertex -8 47 27
    endloop
  endfacet
  facet normal 0 -0.707107 0.707107
    outer loop
      vertex -28 30 10
      vertex -22.5 45 25
      vertex -28 47 27
    endloop
  endfacet
  facet normal 0 -0.707107 0.707107
    outer loop
      vertex -23 30 10
      vertex -22.5 45 25
      vertex -28 30 10
    endloop
  endfacet
  facet normal 5.62553e-007 -0.707107 0.707107
    outer loop
      vertex -23 30 10
      vertex -22.5 27.019 7.01903
      vertex -22.5 45 25
    endloop
  endfacet
  facet normal 1.2374e-006 -0.707107 0.707107
    outer loop
      vertex -22.5 27.019 7.01903
      vertex -23 30 10
      vertex -23 26.4298 6.42977
    endloop
  endfacet
  facet normal 0 -0.707107 0.707107
    outer loop
      vertex -13 45 25
      vertex -8 47 27
      vertex -22.5 45 25
    endloop
  endfacet
  facet normal 1.86506e-007 -0.707107 0.707107
    outer loop
      vertex -13 45 25
      vertex -8 44.1074 24.1074
      vertex -8 47 27
    endloop
  endfacet
  facet normal 2.6974e-007 -0.707107 0.707107
    outer loop
      vertex -8 44.1074 24.1074
      vertex -13 45 25
      vertex -13 38.2149 18.2149
    endloop
  endfacet
  facet normal -1 0 0
    outer loop
      vertex -28 47 27
      vertex -28 23 3
      vertex -28 30 10
    endloop
  endfacet
  facet normal 1.15189e-006 -0.707107 0.707107
    outer loop
      vertex -23 26.4298 6.42977
      vertex -22.5 25 5
      vertex -22.5 27.019 7.01903
    endloop
  endfacet
  facet normal 0 -0.707107 0.707107
    outer loop
      vertex -22.5 25 5
      vertex -23 26.4298 6.42977
      vertex -23 25 5
    endloop
  endfacet
  facet normal 1.57072e-007 -0.707107 0.707107
    outer loop
      vertex -13 38.2149 18.2149
      vertex -8 30 10
      vertex -8 44.1074 24.1074
    endloop
  endfacet
  facet normal 0 -0.707107 0.707107
    outer loop
      vertex -8 30 10
      vertex -13 38.2149 18.2149
      vertex -13 30 10
    endloop
  endfacet
  facet normal 0 0 0
    outer loop
      vertex -22.5 25 5
      vertex -23 25 5
      vertex -13 25 5
    endloop
  endfacet
  facet normal 0 0 0
    outer loop
      vertex -13 38.2149 18.2149
      vertex -13 25 5
      vertex -13 30 10
    endloop
  endfacet
  facet normal 0 -1 0
    outer loop
      vertex -17.7282 45 22.5858
      vertex -22.5 45 25
      vertex -18.2718 45 22.5858
    endloop
  endfacet
  facet normal 0 -1 0
    outer loop
      vertex -22.5 45 25
      vertex -18.8034 45 22.4727
      vertex -18.2718 45 22.5858
    endloop
  endfacet
  facet normal 0 -1 0
    outer loop
      vertex -22.5 45 25
      vertex -19.3 45 22.2517
      vertex -18.8034 45 22.4727
    endloop
  endfacet
  facet normal 0 -1 0
    outer loop
      vertex -22.5 45 25
      vertex -19.7397 45 21.9322
      vertex -19.3 45 22.2517
    endloop
  endfacet
  facet normal 0 -1 0
    outer loop
      vertex -22.5 45 25
      vertex -20.1034 45 21.5282
      vertex -19.7397 45 21.9322
    endloop
  endfacet
  facet normal 0 -1 0
    outer loop
      vertex -22.5 45 25
      vertex -20.3752 45 21.0575
      vertex -20.1034 45 21.5282
    endloop
  endfacet
  facet normal 0 -1 0
    outer loop
      vertex -22.5 45 25
      vertex -20.5432 45 20.5406
      vertex -20.3752 45 21.0575
    endloop
  endfacet
  facet normal 0 -1 0
    outer loop
      vertex -22.5 45 25
      vertex -20.6 45 20
      vertex -20.5432 45 20.5406
    endloop
  endfacet
  facet normal 0 -1 0
    outer loop
      vertex -22.5 45 25
      vertex -20.5432 45 19.4594
      vertex -20.6 45 20
    endloop
  endfacet
  facet normal 0 -1 0
    outer loop
      vertex -22.5 45 5
      vertex -20.5432 45 19.4594
      vertex -22.5 45 25
    endloop
  endfacet
  facet normal 0 -1 -0
    outer loop
      vertex -18.2718 45 17.4142
      vertex -22.5 45 5
      vertex -17.7282 45 17.4142
    endloop
  endfacet
  facet normal 0 -1 -0
    outer loop
      vertex -18.8034 45 17.5273
      vertex -22.5 45 5
      vertex -18.2718 45 17.4142
    endloop
  endfacet
  facet normal 0 -1 -0
    outer loop
      vertex -19.3 45 17.7483
      vertex -22.5 45 5
      vertex -18.8034 45 17.5273
    endloop
  endfacet
  facet normal 0 -1 -0
    outer loop
      vertex -19.7397 45 18.0678
      vertex -22.5 45 5
      vertex -19.3 45 17.7483
    endloop
  endfacet
  facet normal 0 -1 -0
    outer loop
      vertex -20.1034 45 18.4718
      vertex -22.5 45 5
      vertex -19.7397 45 18.0678
    endloop
  endfacet
  facet normal 0 -1 -0
    outer loop
      vertex -20.3752 45 18.9425
      vertex -22.5 45 5
      vertex -20.1034 45 18.4718
    endloop
  endfacet
  facet normal 0 -1 -0
    outer loop
      vertex -20.5432 45 19.4594
      vertex -22.5 45 5
      vertex -20.3752 45 18.9425
    endloop
  endfacet
  facet normal 0 -1 0
    outer loop
      vertex -22.5 45 25
      vertex -17.7282 45 22.5858
      vertex -13 45 25
    endloop
  endfacet
  facet normal 0 -1 0
    outer loop
      vertex -17.1966 45 22.4727
      vertex -13 45 25
      vertex -17.7282 45 22.5858
    endloop
  endfacet
  facet normal 0 -1 0
    outer loop
      vertex -16.7 45 22.2517
      vertex -13 45 25
      vertex -17.1966 45 22.4727
    endloop
  endfacet
  facet normal 0 -1 0
    outer loop
      vertex -16.2603 45 21.9322
      vertex -13 45 25
      vertex -16.7 45 22.2517
    endloop
  endfacet
  facet normal 0 -1 0
    outer loop
      vertex -15.8966 45 21.5282
      vertex -13 45 25
      vertex -16.2603 45 21.9322
    endloop
  endfacet
  facet normal 0 -1 0
    outer loop
      vertex -15.6248 45 21.0575
      vertex -13 45 25
      vertex -15.8966 45 21.5282
    endloop
  endfacet
  facet normal 0 -1 0
    outer loop
      vertex -15.4568 45 20.5406
      vertex -13 45 25
      vertex -15.6248 45 21.0575
    endloop
  endfacet
  facet normal 0 -1 0
    outer loop
      vertex -15.4 45 20
      vertex -13 45 25
      vertex -15.4568 45 20.5406
    endloop
  endfacet
  facet normal 0 -1 0
    outer loop
      vertex -15.4568 45 19.4594
      vertex -13 45 25
      vertex -15.4 45 20
    endloop
  endfacet
  facet normal 0 -1 0
    outer loop
      vertex -13 45 5
      vertex -15.4568 45 19.4594
      vertex -15.6248 45 18.9425
    endloop
  endfacet
  facet normal 0 -1 0
    outer loop
      vertex -13 45 5
      vertex -17.7282 45 17.4142
      vertex -22.5 45 5
    endloop
  endfacet
  facet normal 0 -1 0
    outer loop
      vertex -17.7282 45 17.4142
      vertex -13 45 5
      vertex -17.1966 45 17.5273
    endloop
  endfacet
  facet normal 0 -1 0
    outer loop
      vertex -17.1966 45 17.5273
      vertex -13 45 5
      vertex -16.7 45 17.7483
    endloop
  endfacet
  facet normal 0 -1 0
    outer loop
      vertex -16.7 45 17.7483
      vertex -13 45 5
      vertex -16.2603 45 18.0678
    endloop
  endfacet
  facet normal 0 -1 0
    outer loop
      vertex -16.2603 45 18.0678
      vertex -13 45 5
      vertex -15.8966 45 18.4718
    endloop
  endfacet
  facet normal 0 -1 0
    outer loop
      vertex -15.4568 45 19.4594
      vertex -13 45 5
      vertex -13 45 25
    endloop
  endfacet
  facet normal 0 -1 0
    outer loop
      vertex -15.8966 45 18.4718
      vertex -13 45 5
      vertex -15.6248 45 18.9425
    endloop
  endfacet
  facet normal 1 -0 0
    outer loop
      vertex -22.5 27.019 7.01903
      vertex -22.5 45 5
      vertex -22.5 45 25
    endloop
  endfacet
  facet normal 1 0 0
    outer loop
      vertex -22.5 45 5
      vertex -22.5 27.019 7.01903
      vertex -22.5 25 5
    endloop
  endfacet
  facet normal -1 0 0
    outer loop
      vertex -13 45 5
      vertex -13 38.2149 18.2149
      vertex -13 45 25
    endloop
  endfacet
  facet normal -1 0 -0
    outer loop
      vertex -13 38.2149 18.2149
      vertex -13 45 5
      vertex -13 25 5
    endloop
  endfacet
  facet normal -0 0 1
    outer loop
      vertex -22.5 45 5
      vertex -13 25 5
      vertex -13 45 5
    endloop
  endfacet
  facet normal 0 0 1
    outer loop
      vertex -13 25 5
      vertex -22.5 45 5
      vertex -22.5 25 5
    endloop
  endfacet
  facet normal 0.994522 -0 0.104528
    outer loop
      vertex -20.6 45 20
      vertex -20.5432 50 19.4594
      vertex -20.6 50 20
    endloop
  endfacet
  facet normal 0.994522 0 0.104528
    outer loop
      vertex -20.5432 50 19.4594
      vertex -20.6 45 20
      vertex -20.5432 45 19.4594
    endloop
  endfacet
  facet normal -0.743144 0 0.669131
    outer loop
      vertex -16.2603 45 18.0678
      vertex -15.8966 50 18.4718
      vertex -16.2603 50 18.0678
    endloop
  endfacet
  facet normal -0.743144 0 0.669131
    outer loop
      vertex -15.8966 50 18.4718
      vertex -16.2603 45 18.0678
      vertex -15.8966 45 18.4718
    endloop
  endfacet
  facet normal -0.994522 0 0.104528
    outer loop
      vertex -15.4568 45 19.4594
      vertex -15.4 50 20
      vertex -15.4568 50 19.4594
    endloop
  endfacet
  facet normal -0.994522 0 0.104528
    outer loop
      vertex -15.4 50 20
      vertex -15.4568 45 19.4594
      vertex -15.4 45 20
    endloop
  endfacet
  facet normal 0.587787 0 -0.809016
    outer loop
      vertex -19.7397 45 21.9322
      vertex -19.3 50 22.2517
      vertex -19.3 45 22.2517
    endloop
  endfacet
  facet normal 0.587787 0 -0.809016
    outer loop
      vertex -19.3 50 22.2517
      vertex -19.7397 45 21.9322
      vertex -19.7397 50 21.9322
    endloop
  endfacet
  facet normal 0.866025 0 -0.500001
    outer loop
      vertex -20.1034 45 21.5282
      vertex -20.3752 50 21.0575
      vertex -20.1034 50 21.5282
    endloop
  endfacet
  facet normal 0.866025 0 -0.500001
    outer loop
      vertex -20.3752 50 21.0575
      vertex -20.1034 45 21.5282
      vertex -20.3752 45 21.0575
    endloop
  endfacet
  facet normal 0.743144 0 -0.669131
    outer loop
      vertex -19.7397 45 21.9322
      vertex -20.1034 50 21.5282
      vertex -19.7397 50 21.9322
    endloop
  endfacet
  facet normal 0.743144 0 -0.669131
    outer loop
      vertex -20.1034 50 21.5282
      vertex -19.7397 45 21.9322
      vertex -20.1034 45 21.5282
    endloop
  endfacet
  facet normal -0.406737 0 0.913545
    outer loop
      vertex -17.1966 50 17.5273
      vertex -16.7 45 17.7483
      vertex -16.7 50 17.7483
    endloop
  endfacet
  facet normal -0.406737 0 0.913545
    outer loop
      vertex -16.7 45 17.7483
      vertex -17.1966 50 17.5273
      vertex -17.1966 45 17.5273
    endloop
  endfacet
  facet normal -0.951056 0 -0.309018
    outer loop
      vertex -15.4568 45 20.5406
      vertex -15.6248 50 21.0575
      vertex -15.4568 50 20.5406
    endloop
  endfacet
  facet normal -0.951056 -0 -0.309018
    outer loop
      vertex -15.6248 50 21.0575
      vertex -15.4568 45 20.5406
      vertex -15.6248 45 21.0575
    endloop
  endfacet
  facet normal 0.951057 0 -0.309016
    outer loop
      vertex -20.3752 45 21.0575
      vertex -20.5432 50 20.5406
      vertex -20.3752 50 21.0575
    endloop
  endfacet
  facet normal 0.951057 0 -0.309016
    outer loop
      vertex -20.5432 50 20.5406
      vertex -20.3752 45 21.0575
      vertex -20.5432 45 20.5406
    endloop
  endfacet
  facet normal 0.40674 0 -0.913544
    outer loop
      vertex -19.3 45 22.2517
      vertex -18.8034 50 22.4727
      vertex -18.8034 45 22.4727
    endloop
  endfacet
  facet normal 0.40674 0 -0.913544
    outer loop
      vertex -18.8034 50 22.4727
      vertex -19.3 45 22.2517
      vertex -19.3 50 22.2517
    endloop
  endfacet
  facet normal -0.994522 0 -0.104528
    outer loop
      vertex -15.4 45 20
      vertex -15.4568 50 20.5406
      vertex -15.4 50 20
    endloop
  endfacet
  facet normal -0.994522 -0 -0.104528
    outer loop
      vertex -15.4568 50 20.5406
      vertex -15.4 45 20
      vertex -15.4568 45 20.5406
    endloop
  endfacet
  facet normal 0.866025 -0 0.500001
    outer loop
      vertex -20.3752 45 18.9425
      vertex -20.1034 50 18.4718
      vertex -20.3752 50 18.9425
    endloop
  endfacet
  facet normal 0.866025 0 0.500001
    outer loop
      vertex -20.1034 50 18.4718
      vertex -20.3752 45 18.9425
      vertex -20.1034 45 18.4718
    endloop
  endfacet
  facet normal -0.951056 0 0.309018
    outer loop
      vertex -15.6248 45 18.9425
      vertex -15.4568 50 19.4594
      vertex -15.6248 50 18.9425
    endloop
  endfacet
  facet normal -0.951056 0 0.309018
    outer loop
      vertex -15.4568 50 19.4594
      vertex -15.6248 45 18.9425
      vertex -15.4568 45 19.4594
    endloop
  endfacet
  facet normal -0.743144 0 -0.669131
    outer loop
      vertex -15.8966 45 21.5282
      vertex -16.2603 50 21.9322
      vertex -15.8966 50 21.5282
    endloop
  endfacet
  facet normal -0.743144 -0 -0.669131
    outer loop
      vertex -16.2603 50 21.9322
      vertex -15.8966 45 21.5282
      vertex -16.2603 45 21.9322
    endloop
  endfacet
  facet normal -0.40674 0 -0.913544
    outer loop
      vertex -17.1966 45 22.4727
      vertex -16.7 50 22.2517
      vertex -16.7 45 22.2517
    endloop
  endfacet
  facet normal -0.40674 0 -0.913544
    outer loop
      vertex -16.7 50 22.2517
      vertex -17.1966 45 22.4727
      vertex -17.1966 50 22.4727
    endloop
  endfacet
  facet normal 0 0 -1
    outer loop
      vertex -18.2718 45 22.5858
      vertex -17.7282 50 22.5858
      vertex -17.7282 45 22.5858
    endloop
  endfacet
  facet normal -0 0 -1
    outer loop
      vertex -17.7282 50 22.5858
      vertex -18.2718 45 22.5858
      vertex -18.2718 50 22.5858
    endloop
  endfacet
  facet normal 0.994522 0 -0.104528
    outer loop
      vertex -20.5432 45 20.5406
      vertex -20.6 50 20
      vertex -20.5432 50 20.5406
    endloop
  endfacet
  facet normal 0.994522 0 -0.104528
    outer loop
      vertex -20.6 50 20
      vertex -20.5432 45 20.5406
      vertex -20.6 45 20
    endloop
  endfacet
  facet normal 0.951057 -0 0.309016
    outer loop
      vertex -20.5432 45 19.4594
      vertex -20.3752 50 18.9425
      vertex -20.5432 50 19.4594
    endloop
  endfacet
  facet normal 0.951057 0 0.309016
    outer loop
      vertex -20.3752 50 18.9425
      vertex -20.5432 45 19.4594
      vertex -20.3752 45 18.9425
    endloop
  endfacet
  facet normal 0.743144 -0 0.669131
    outer loop
      vertex -20.1034 45 18.4718
      vertex -19.7397 50 18.0678
      vertex -20.1034 50 18.4718
    endloop
  endfacet
  facet normal 0.743144 0 0.669131
    outer loop
      vertex -19.7397 50 18.0678
      vertex -20.1034 45 18.4718
      vertex -19.7397 45 18.0678
    endloop
  endfacet
  facet normal -0.866026 0 0.499999
    outer loop
      vertex -15.8966 45 18.4718
      vertex -15.6248 50 18.9425
      vertex -15.8966 50 18.4718
    endloop
  endfacet
  facet normal -0.866026 0 0.499999
    outer loop
      vertex -15.6248 50 18.9425
      vertex -15.8966 45 18.4718
      vertex -15.6248 45 18.9425
    endloop
  endfacet
  facet normal -0.587787 0 0.809016
    outer loop
      vertex -16.7 50 17.7483
      vertex -16.2603 45 18.0678
      vertex -16.2603 50 18.0678
    endloop
  endfacet
  facet normal -0.587787 0 0.809016
    outer loop
      vertex -16.2603 45 18.0678
      vertex -16.7 50 17.7483
      vertex -16.7 45 17.7483
    endloop
  endfacet
  facet normal -0.866026 0 -0.499999
    outer loop
      vertex -15.6248 45 21.0575
      vertex -15.8966 50 21.5282
      vertex -15.6248 50 21.0575
    endloop
  endfacet
  facet normal -0.866026 -0 -0.499999
    outer loop
      vertex -15.8966 50 21.5282
      vertex -15.6248 45 21.0575
      vertex -15.8966 45 21.5282
    endloop
  endfacet
  facet normal 0.207909 0 -0.978148
    outer loop
      vertex -18.8034 45 22.4727
      vertex -18.2718 50 22.5858
      vertex -18.2718 45 22.5858
    endloop
  endfacet
  facet normal 0.207909 0 -0.978148
    outer loop
      vertex -18.2718 50 22.5858
      vertex -18.8034 45 22.4727
      vertex -18.8034 50 22.4727
    endloop
  endfacet
  facet normal -0.207909 0 -0.978148
    outer loop
      vertex -17.7282 45 22.5858
      vertex -17.1966 50 22.4727
      vertex -17.1966 45 22.4727
    endloop
  endfacet
  facet normal -0.207909 0 -0.978148
    outer loop
      vertex -17.1966 50 22.4727
      vertex -17.7282 45 22.5858
      vertex -17.7282 50 22.5858
    endloop
  endfacet
  facet normal -0.207912 0 0.978148
    outer loop
      vertex -17.7282 50 17.4142
      vertex -17.1966 45 17.5273
      vertex -17.1966 50 17.5273
    endloop
  endfacet
  facet normal -0.207912 0 0.978148
    outer loop
      vertex -17.1966 45 17.5273
      vertex -17.7282 50 17.4142
      vertex -17.7282 45 17.4142
    endloop
  endfacet
  facet normal -0 0 1
    outer loop
      vertex -18.2718 50 17.4142
      vertex -17.7282 45 17.4142
      vertex -17.7282 50 17.4142
    endloop
  endfacet
  facet normal 0 0 1
    outer loop
      vertex -17.7282 45 17.4142
      vertex -18.2718 50 17.4142
      vertex -18.2718 45 17.4142
    endloop
  endfacet
  facet normal 0.587787 0 0.809016
    outer loop
      vertex -19.7397 50 18.0678
      vertex -19.3 45 17.7483
      vertex -19.3 50 17.7483
    endloop
  endfacet
  facet normal 0.587787 0 0.809016
    outer loop
      vertex -19.3 45 17.7483
      vertex -19.7397 50 18.0678
      vertex -19.7397 45 18.0678
    endloop
  endfacet
  facet normal -0.587787 0 -0.809016
    outer loop
      vertex -16.7 45 22.2517
      vertex -16.2603 50 21.9322
      vertex -16.2603 45 21.9322
    endloop
  endfacet
  facet normal -0.587787 0 -0.809016
    outer loop
      vertex -16.2603 50 21.9322
      vertex -16.7 45 22.2517
      vertex -16.7 50 22.2517
    endloop
  endfacet
  facet normal 0.406737 0 0.913545
    outer loop
      vertex -19.3 50 17.7483
      vertex -18.8034 45 17.5273
      vertex -18.8034 50 17.5273
    endloop
  endfacet
  facet normal 0.406737 0 0.913545
    outer loop
      vertex -18.8034 45 17.5273
      vertex -19.3 50 17.7483
      vertex -19.3 45 17.7483
    endloop
  endfacet
  facet normal 0.207912 0 0.978148
    outer loop
      vertex -18.8034 50 17.5273
      vertex -18.2718 45 17.4142
      vertex -18.2718 50 17.4142
    endloop
  endfacet
  facet normal 0.207912 0 0.978148
    outer loop
      vertex -18.2718 45 17.4142
      vertex -18.8034 50 17.5273
      vertex -18.8034 45 17.5273
    endloop
  endfacet
  facet normal 0 1 0
    outer loop
      vertex -15.5 52 13
      vertex -20.5 52 3.21965e-015
      vertex -20.5 52 13
    endloop
  endfacet
  facet normal -0 1 0
    outer loop
      vertex -20.5 52 3.21965e-015
      vertex -15.5 52 13
      vertex -15.5 52 2.10942e-015
    endloop
  endfacet
  facet normal -1 0 0
    outer loop
      vertex -20.5 50 2.77556e-015
      vertex -20.5 52 13
      vertex -20.5 52 3.21965e-015
    endloop
  endfacet
  facet normal -1 -0 0
    outer loop
      vertex -20.5 52 13
      vertex -20.5 50 2.77556e-015
      vertex -20.5 50 13
    endloop
  endfacet
  facet normal 1 -0 0
    outer loop
      vertex -15.5 50 13
      vertex -15.5 52 2.10942e-015
      vertex -15.5 52 13
    endloop
  endfacet
  facet normal 1 0 0
    outer loop
      vertex -15.5 52 2.10942e-015
      vertex -15.5 50 13
      vertex -15.5 50 1.66533e-015
    endloop
  endfacet
  facet normal -0 0 1
    outer loop
      vertex -20.5 52 13
      vertex -15.5 50 13
      vertex -15.5 52 13
    endloop
  endfacet
  facet normal 0 0 1
    outer loop
      vertex -15.5 50 13
      vertex -20.5 52 13
      vertex -20.5 50 13
    endloop
  endfacet
endsolid OpenSCAD_Model
