solid OpenSCAD_Model
  facet normal -1 0 0
    outer loop
      vertex 233.5 23 144
      vertex 233.5 27 148
      vertex 233.5 27 144
    endloop
  endfacet
  facet normal -1 -0 0
    outer loop
      vertex 233.5 27 148
      vertex 233.5 23 144
      vertex 233.5 23 148
    endloop
  endfacet
  facet normal -0 0 1
    outer loop
      vertex 233.5 27 148
      vertex 243.5 23 148
      vertex 243.5 27 148
    endloop
  endfacet
  facet normal 0 0 1
    outer loop
      vertex 243.5 23 148
      vertex 233.5 27 148
      vertex 233.5 23 148
    endloop
  endfacet
  facet normal 1 -0 0
    outer loop
      vertex 243.5 23 148
      vertex 243.5 27 144
      vertex 243.5 27 148
    endloop
  endfacet
  facet normal 1 0 0
    outer loop
      vertex 243.5 27 144
      vertex 243.5 23 148
      vertex 243.5 23 144
    endloop
  endfacet
  facet normal 0 0 -1
    outer loop
      vertex 338 38 140
      vertex 350 23 140
      vertex 350 18 140
    endloop
  endfacet
  facet normal 0 0 -1
    outer loop
      vertex 350 23 140
      vertex 348.391 33.7202 140
      vertex 349.25 34.1029 140
    endloop
  endfacet
  facet normal 0 0 -1
    outer loop
      vertex 350 23 140
      vertex 347.47 33.5247 140
      vertex 348.391 33.7202 140
    endloop
  endfacet
  facet normal 0 0 -1
    outer loop
      vertex 350 23 140
      vertex 346.53 33.5247 140
      vertex 347.47 33.5247 140
    endloop
  endfacet
  facet normal 0 0 -1
    outer loop
      vertex 350 23 140
      vertex 345.609 33.7202 140
      vertex 346.53 33.5247 140
    endloop
  endfacet
  facet normal 0 0 -1
    outer loop
      vertex 350 23 140
      vertex 344.75 34.1029 140
      vertex 345.609 33.7202 140
    endloop
  endfacet
  facet normal 0 0 -1
    outer loop
      vertex 350 23 140
      vertex 343.989 34.6558 140
      vertex 344.75 34.1029 140
    endloop
  endfacet
  facet normal 0 0 -1
    outer loop
      vertex 350 23 140
      vertex 338 38 140
      vertex 343.989 34.6558 140
    endloop
  endfacet
  facet normal 0 0 -1
    outer loop
      vertex 343.989 34.6558 140
      vertex 338 38 140
      vertex 343.359 35.355 140
    endloop
  endfacet
  facet normal 0 0 -1
    outer loop
      vertex 342.598 37.0644 140
      vertex 338 38 140
      vertex 342.5 38 140
    endloop
  endfacet
  facet normal 0 0 -1
    outer loop
      vertex 342.889 36.1697 140
      vertex 338 38 140
      vertex 342.598 37.0644 140
    endloop
  endfacet
  facet normal 0 0 -1
    outer loop
      vertex 343.359 35.355 140
      vertex 338 38 140
      vertex 342.889 36.1697 140
    endloop
  endfacet
  facet normal 0 0 -1
    outer loop
      vertex 350 18 140
      vertex 277.5 38 140
      vertex 338 38 140
    endloop
  endfacet
  facet normal 0 0 -1
    outer loop
      vertex 271.402 38.9356 140
      vertex 277.5 38 140
      vertex 271.5 38 140
    endloop
  endfacet
  facet normal 0 0 -1
    outer loop
      vertex 269.25 34.1029 140
      vertex 277.5 38 140
      vertex 350 18 140
    endloop
  endfacet
  facet normal -0 0 -1
    outer loop
      vertex 277.5 38 140
      vertex 271.402 37.0644 140
      vertex 271.5 38 140
    endloop
  endfacet
  facet normal 0 0 -1
    outer loop
      vertex 277.5 38 140
      vertex 271.111 36.1697 140
      vertex 271.402 37.0644 140
    endloop
  endfacet
  facet normal 0 0 -1
    outer loop
      vertex 277.5 38 140
      vertex 270.641 35.355 140
      vertex 271.111 36.1697 140
    endloop
  endfacet
  facet normal 0 0 -1
    outer loop
      vertex 277.5 38 140
      vertex 270.011 34.6558 140
      vertex 270.641 35.355 140
    endloop
  endfacet
  facet normal 0 0 -1
    outer loop
      vertex 277.5 38 140
      vertex 269.25 34.1029 140
      vertex 270.011 34.6558 140
    endloop
  endfacet
  facet normal 0 0 -1
    outer loop
      vertex 350 18 140
      vertex 268.391 33.7202 140
      vertex 269.25 34.1029 140
    endloop
  endfacet
  facet normal 0 0 -1
    outer loop
      vertex 350 18 140
      vertex 267.47 33.5247 140
      vertex 268.391 33.7202 140
    endloop
  endfacet
  facet normal 0 0 -1
    outer loop
      vertex 230 18 140
      vertex 267.47 33.5247 140
      vertex 350 18 140
    endloop
  endfacet
  facet normal 0 0 -1
    outer loop
      vertex 262.598 37.0644 140
      vertex 257.5 38 140
      vertex 262.5 38 140
    endloop
  endfacet
  facet normal 0 0 -1
    outer loop
      vertex 262.889 36.1697 140
      vertex 257.5 38 140
      vertex 262.598 37.0644 140
    endloop
  endfacet
  facet normal 0 0 -1
    outer loop
      vertex 263.359 35.355 140
      vertex 257.5 38 140
      vertex 262.889 36.1697 140
    endloop
  endfacet
  facet normal 0 0 -1
    outer loop
      vertex 263.989 34.6558 140
      vertex 257.5 38 140
      vertex 263.359 35.355 140
    endloop
  endfacet
  facet normal 0 0 -1
    outer loop
      vertex 230 18 140
      vertex 263.989 34.6558 140
      vertex 264.75 34.1029 140
    endloop
  endfacet
  facet normal -0 0 -1
    outer loop
      vertex 267.47 33.5247 140
      vertex 230 18 140
      vertex 266.53 33.5247 140
    endloop
  endfacet
  facet normal 0 0 -1
    outer loop
      vertex 230 18 140
      vertex 265.609 33.7202 140
      vertex 266.53 33.5247 140
    endloop
  endfacet
  facet normal 0 0 -1
    outer loop
      vertex 230 18 140
      vertex 264.75 34.1029 140
      vertex 265.609 33.7202 140
    endloop
  endfacet
  facet normal -0 0 -1
    outer loop
      vertex 263.989 34.6558 140
      vertex 230 18 140
      vertex 257.5 38 140
    endloop
  endfacet
  facet normal -0 0 -1
    outer loop
      vertex 257.5 38 140
      vertex 230 18 140
      vertex 230 38 140
    endloop
  endfacet
  facet normal 0 0 -1
    outer loop
      vertex 358 23 140
      vertex 351.5 38 140
      vertex 358 53 140
    endloop
  endfacet
  facet normal 0 0 -1
    outer loop
      vertex 358 23 140
      vertex 351.402 37.0644 140
      vertex 351.5 38 140
    endloop
  endfacet
  facet normal 0 0 -1
    outer loop
      vertex 358 23 140
      vertex 351.111 36.1697 140
      vertex 351.402 37.0644 140
    endloop
  endfacet
  facet normal 0 0 -1
    outer loop
      vertex 358 23 140
      vertex 350.641 35.355 140
      vertex 351.111 36.1697 140
    endloop
  endfacet
  facet normal 0 0 -1
    outer loop
      vertex 358 23 140
      vertex 350.011 34.6558 140
      vertex 350.641 35.355 140
    endloop
  endfacet
  facet normal 0 0 -1
    outer loop
      vertex 350 23 140
      vertex 350.011 34.6558 140
      vertex 358 23 140
    endloop
  endfacet
  facet normal 0 0 -1
    outer loop
      vertex 350.011 34.6558 140
      vertex 350 23 140
      vertex 349.25 34.1029 140
    endloop
  endfacet
  facet normal 0 0 -1
    outer loop
      vertex 351.402 38.9356 140
      vertex 358 53 140
      vertex 351.5 38 140
    endloop
  endfacet
  facet normal 0 0 -1
    outer loop
      vertex 351.111 39.8303 140
      vertex 358 53 140
      vertex 351.402 38.9356 140
    endloop
  endfacet
  facet normal 0 0 -1
    outer loop
      vertex 350.641 40.645 140
      vertex 358 53 140
      vertex 351.111 39.8303 140
    endloop
  endfacet
  facet normal 0 0 -1
    outer loop
      vertex 350.011 41.3442 140
      vertex 358 53 140
      vertex 350.641 40.645 140
    endloop
  endfacet
  facet normal 0 0 -1
    outer loop
      vertex 349.25 41.8971 140
      vertex 358 53 140
      vertex 350.011 41.3442 140
    endloop
  endfacet
  facet normal 0 0 -1
    outer loop
      vertex 348.391 42.2798 140
      vertex 358 53 140
      vertex 349.25 41.8971 140
    endloop
  endfacet
  facet normal 0 0 -1
    outer loop
      vertex 347.47 42.4753 140
      vertex 358 53 140
      vertex 348.391 42.2798 140
    endloop
  endfacet
  facet normal 0 0 -1
    outer loop
      vertex 338 53 140
      vertex 347.47 42.4753 140
      vertex 346.53 42.4753 140
    endloop
  endfacet
  facet normal 0 0 -1
    outer loop
      vertex 338 53 140
      vertex 346.53 42.4753 140
      vertex 345.609 42.2798 140
    endloop
  endfacet
  facet normal 0 0 -1
    outer loop
      vertex 338 53 140
      vertex 345.609 42.2798 140
      vertex 344.75 41.8971 140
    endloop
  endfacet
  facet normal 0 0 -1
    outer loop
      vertex 338 53 140
      vertex 344.75 41.8971 140
      vertex 343.989 41.3442 140
    endloop
  endfacet
  facet normal 0 0 -1
    outer loop
      vertex 338 38 140
      vertex 342.598 38.9356 140
      vertex 342.5 38 140
    endloop
  endfacet
  facet normal 0 0 -1
    outer loop
      vertex 338 38 140
      vertex 342.889 39.8303 140
      vertex 342.598 38.9356 140
    endloop
  endfacet
  facet normal 0 0 -1
    outer loop
      vertex 338 38 140
      vertex 343.359 40.645 140
      vertex 342.889 39.8303 140
    endloop
  endfacet
  facet normal 0 0 -1
    outer loop
      vertex 338 53 140
      vertex 343.359 40.645 140
      vertex 338 38 140
    endloop
  endfacet
  facet normal 0 0 -1
    outer loop
      vertex 343.359 40.645 140
      vertex 338 53 140
      vertex 343.989 41.3442 140
    endloop
  endfacet
  facet normal 0 0 -1
    outer loop
      vertex 347.47 42.4753 140
      vertex 338 53 140
      vertex 358 53 140
    endloop
  endfacet
  facet normal 0 0 -1
    outer loop
      vertex 271.111 39.8303 140
      vertex 277.5 38 140
      vertex 271.402 38.9356 140
    endloop
  endfacet
  facet normal 0 0 -1
    outer loop
      vertex 270.641 40.645 140
      vertex 277.5 38 140
      vertex 271.111 39.8303 140
    endloop
  endfacet
  facet normal 0 0 -1
    outer loop
      vertex 277.5 38 140
      vertex 270.641 40.645 140
      vertex 277.5 53 140
    endloop
  endfacet
  facet normal 0 0 -1
    outer loop
      vertex 270.011 41.3442 140
      vertex 277.5 53 140
      vertex 270.641 40.645 140
    endloop
  endfacet
  facet normal 0 0 -1
    outer loop
      vertex 269.25 41.8971 140
      vertex 277.5 53 140
      vertex 270.011 41.3442 140
    endloop
  endfacet
  facet normal 0 0 -1
    outer loop
      vertex 268.391 42.2798 140
      vertex 277.5 53 140
      vertex 269.25 41.8971 140
    endloop
  endfacet
  facet normal 0 0 -1
    outer loop
      vertex 267.47 42.4753 140
      vertex 277.5 53 140
      vertex 268.391 42.2798 140
    endloop
  endfacet
  facet normal 0 0 -1
    outer loop
      vertex 257.5 53 140
      vertex 267.47 42.4753 140
      vertex 266.53 42.4753 140
    endloop
  endfacet
  facet normal 0 0 -1
    outer loop
      vertex 257.5 53 140
      vertex 266.53 42.4753 140
      vertex 265.609 42.2798 140
    endloop
  endfacet
  facet normal 0 0 -1
    outer loop
      vertex 257.5 53 140
      vertex 265.609 42.2798 140
      vertex 264.75 41.8971 140
    endloop
  endfacet
  facet normal 0 0 -1
    outer loop
      vertex 257.5 53 140
      vertex 264.75 41.8971 140
      vertex 263.989 41.3442 140
    endloop
  endfacet
  facet normal 0 0 -1
    outer loop
      vertex 257.5 38 140
      vertex 262.598 38.9356 140
      vertex 262.5 38 140
    endloop
  endfacet
  facet normal 0 0 -1
    outer loop
      vertex 257.5 38 140
      vertex 262.889 39.8303 140
      vertex 262.598 38.9356 140
    endloop
  endfacet
  facet normal 0 0 -1
    outer loop
      vertex 257.5 38 140
      vertex 263.359 40.645 140
      vertex 262.889 39.8303 140
    endloop
  endfacet
  facet normal 0 0 -1
    outer loop
      vertex 257.5 53 140
      vertex 263.359 40.645 140
      vertex 257.5 38 140
    endloop
  endfacet
  facet normal 0 0 -1
    outer loop
      vertex 263.359 40.645 140
      vertex 257.5 53 140
      vertex 263.989 41.3442 140
    endloop
  endfacet
  facet normal 0 0 -1
    outer loop
      vertex 267.47 42.4753 140
      vertex 257.5 53 140
      vertex 277.5 53 140
    endloop
  endfacet
  facet normal 0 -1 0
    outer loop
      vertex 230 18 140
      vertex 350 18 150
      vertex 230 18 150
    endloop
  endfacet
  facet normal 0 -1 -0
    outer loop
      vertex 350 18 150
      vertex 230 18 140
      vertex 350 18 140
    endloop
  endfacet
  facet normal 0 1 -0
    outer loop
      vertex 243.5 27 144
      vertex 233.5 27 148
      vertex 243.5 27 148
    endloop
  endfacet
  facet normal 0 1 0
    outer loop
      vertex 233.5 27 148
      vertex 243.5 27 144
      vertex 233.5 27 144
    endloop
  endfacet
  facet normal -1 0 0
    outer loop
      vertex 260 23 144
      vertex 260 27 148
      vertex 260 27 144
    endloop
  endfacet
  facet normal -1 -0 0
    outer loop
      vertex 260 27 148
      vertex 260 23 144
      vertex 260 23 148
    endloop
  endfacet
  facet normal -0 0 1
    outer loop
      vertex 260 27 148
      vertex 270 23 148
      vertex 270 27 148
    endloop
  endfacet
  facet normal 0 0 1
    outer loop
      vertex 270 23 148
      vertex 260 27 148
      vertex 260 23 148
    endloop
  endfacet
  facet normal 1 -0 0
    outer loop
      vertex 270 23 148
      vertex 270 27 144
      vertex 270 27 148
    endloop
  endfacet
  facet normal 1 0 0
    outer loop
      vertex 270 27 144
      vertex 270 23 148
      vertex 270 23 144
    endloop
  endfacet
  facet normal 0 1 -0
    outer loop
      vertex 270 27 144
      vertex 260 27 148
      vertex 270 27 148
    endloop
  endfacet
  facet normal 0 1 0
    outer loop
      vertex 260 27 148
      vertex 270 27 144
      vertex 260 27 144
    endloop
  endfacet
  facet normal -1 0 0
    outer loop
      vertex 286.5 23 144
      vertex 286.5 27 148
      vertex 286.5 27 144
    endloop
  endfacet
  facet normal -1 -0 0
    outer loop
      vertex 286.5 27 148
      vertex 286.5 23 144
      vertex 286.5 23 148
    endloop
  endfacet
  facet normal -0 0 1
    outer loop
      vertex 286.5 27 148
      vertex 296.5 23 148
      vertex 296.5 27 148
    endloop
  endfacet
  facet normal 0 0 1
    outer loop
      vertex 296.5 23 148
      vertex 286.5 27 148
      vertex 286.5 23 148
    endloop
  endfacet
  facet normal 1 -0 0
    outer loop
      vertex 296.5 23 148
      vertex 296.5 27 144
      vertex 296.5 27 148
    endloop
  endfacet
  facet normal 1 0 0
    outer loop
      vertex 296.5 27 144
      vertex 296.5 23 148
      vertex 296.5 23 144
    endloop
  endfacet
  facet normal 0 1 -0
    outer loop
      vertex 296.5 27 144
      vertex 286.5 27 148
      vertex 296.5 27 148
    endloop
  endfacet
  facet normal 0 1 0
    outer loop
      vertex 286.5 27 148
      vertex 296.5 27 144
      vertex 286.5 27 144
    endloop
  endfacet
  facet normal -1 0 0
    outer loop
      vertex 313 23 144
      vertex 313 27 148
      vertex 313 27 144
    endloop
  endfacet
  facet normal -1 -0 0
    outer loop
      vertex 313 27 148
      vertex 313 23 144
      vertex 313 23 148
    endloop
  endfacet
  facet normal -0 0 1
    outer loop
      vertex 313 27 148
      vertex 323 23 148
      vertex 323 27 148
    endloop
  endfacet
  facet normal 0 0 1
    outer loop
      vertex 323 23 148
      vertex 313 27 148
      vertex 313 23 148
    endloop
  endfacet
  facet normal 1 -0 0
    outer loop
      vertex 323 23 148
      vertex 323 27 144
      vertex 323 27 148
    endloop
  endfacet
  facet normal 1 0 0
    outer loop
      vertex 323 27 144
      vertex 323 23 148
      vertex 323 23 144
    endloop
  endfacet
  facet normal 0 1 -0
    outer loop
      vertex 323 27 144
      vertex 313 27 148
      vertex 323 27 148
    endloop
  endfacet
  facet normal 0 1 0
    outer loop
      vertex 313 27 148
      vertex 323 27 144
      vertex 313 27 144
    endloop
  endfacet
  facet normal -1 0 0
    outer loop
      vertex 339.5 23 144
      vertex 339.5 27 148
      vertex 339.5 27 144
    endloop
  endfacet
  facet normal -1 -0 0
    outer loop
      vertex 339.5 27 148
      vertex 339.5 23 144
      vertex 339.5 23 148
    endloop
  endfacet
  facet normal -0 0 1
    outer loop
      vertex 339.5 27 148
      vertex 349.5 23 148
      vertex 349.5 27 148
    endloop
  endfacet
  facet normal 0 0 1
    outer loop
      vertex 349.5 23 148
      vertex 339.5 27 148
      vertex 339.5 23 148
    endloop
  endfacet
  facet normal 1 -0 0
    outer loop
      vertex 349.5 23 148
      vertex 349.5 27 144
      vertex 349.5 27 148
    endloop
  endfacet
  facet normal 1 0 0
    outer loop
      vertex 349.5 27 144
      vertex 349.5 23 148
      vertex 349.5 23 144
    endloop
  endfacet
  facet normal 0 1 -0
    outer loop
      vertex 349.5 27 144
      vertex 339.5 27 148
      vertex 349.5 27 148
    endloop
  endfacet
  facet normal 0 1 0
    outer loop
      vertex 339.5 27 148
      vertex 349.5 27 144
      vertex 339.5 27 144
    endloop
  endfacet
  facet normal -1 0 0
    outer loop
      vertex 230 38 140
      vertex 230 23 144
      vertex 230 38 144
    endloop
  endfacet
  facet normal -1 0 0
    outer loop
      vertex 230 18 140
      vertex 230 23 144
      vertex 230 38 140
    endloop
  endfacet
  facet normal -1 0 0
    outer loop
      vertex 230 18 150
      vertex 230 23 144
      vertex 230 18 140
    endloop
  endfacet
  facet normal -1 0 0
    outer loop
      vertex 230 23 144
      vertex 230 18 150
      vertex 230 23 150
    endloop
  endfacet
  facet normal -0 0 1
    outer loop
      vertex 230 38 144
      vertex 243.5 27 144
      vertex 257.5 38 144
    endloop
  endfacet
  facet normal 0 0 1
    outer loop
      vertex 243.5 27 144
      vertex 230 38 144
      vertex 233.5 27 144
    endloop
  endfacet
  facet normal 0 0 1
    outer loop
      vertex 230 23 144
      vertex 233.5 27 144
      vertex 230 38 144
    endloop
  endfacet
  facet normal 0 0 1
    outer loop
      vertex 233.5 27 144
      vertex 230 23 144
      vertex 233.5 23 144
    endloop
  endfacet
  facet normal -0 0 1
    outer loop
      vertex 269.25 34.1029 144
      vertex 270 27 144
      vertex 270.011 34.6558 144
    endloop
  endfacet
  facet normal -0 0 1
    outer loop
      vertex 268.391 33.7202 144
      vertex 270 27 144
      vertex 269.25 34.1029 144
    endloop
  endfacet
  facet normal -0 0 1
    outer loop
      vertex 267.47 33.5247 144
      vertex 270 27 144
      vertex 268.391 33.7202 144
    endloop
  endfacet
  facet normal -0 0 1
    outer loop
      vertex 266.53 33.5247 144
      vertex 270 27 144
      vertex 267.47 33.5247 144
    endloop
  endfacet
  facet normal 0 0 1
    outer loop
      vertex 265.609 33.7202 144
      vertex 270 27 144
      vertex 266.53 33.5247 144
    endloop
  endfacet
  facet normal 0 0 1
    outer loop
      vertex 260 27 144
      vertex 265.609 33.7202 144
      vertex 264.75 34.1029 144
    endloop
  endfacet
  facet normal 0 0 1
    outer loop
      vertex 260 27 144
      vertex 264.75 34.1029 144
      vertex 263.989 34.6558 144
    endloop
  endfacet
  facet normal 0 0 1
    outer loop
      vertex 260 27 144
      vertex 263.989 34.6558 144
      vertex 263.359 35.355 144
    endloop
  endfacet
  facet normal 0 0 1
    outer loop
      vertex 265.609 33.7202 144
      vertex 260 27 144
      vertex 270 27 144
    endloop
  endfacet
  facet normal 0 0 1
    outer loop
      vertex 257.5 38 144
      vertex 263.359 35.355 144
      vertex 262.889 36.1697 144
    endloop
  endfacet
  facet normal 0 0 1
    outer loop
      vertex 257.5 38 144
      vertex 262.889 36.1697 144
      vertex 262.598 37.0644 144
    endloop
  endfacet
  facet normal -0 0 1
    outer loop
      vertex 257.5 38 144
      vertex 262.598 37.0644 144
      vertex 262.5 38 144
    endloop
  endfacet
  facet normal -0 0 1
    outer loop
      vertex 270.641 40.645 144
      vertex 277.5 38 144
      vertex 277.5 53 144
    endloop
  endfacet
  facet normal 0 0 1
    outer loop
      vertex 277.5 38 144
      vertex 271.402 38.9356 144
      vertex 271.5 38 144
    endloop
  endfacet
  facet normal 0 0 1
    outer loop
      vertex 277.5 38 144
      vertex 271.111 39.8303 144
      vertex 271.402 38.9356 144
    endloop
  endfacet
  facet normal 0 0 1
    outer loop
      vertex 277.5 38 144
      vertex 270.641 40.645 144
      vertex 271.111 39.8303 144
    endloop
  endfacet
  facet normal 0 0 1
    outer loop
      vertex 277.5 53 144
      vertex 270.011 41.3442 144
      vertex 270.641 40.645 144
    endloop
  endfacet
  facet normal 0 0 1
    outer loop
      vertex 277.5 53 144
      vertex 269.25 41.8971 144
      vertex 270.011 41.3442 144
    endloop
  endfacet
  facet normal 0 0 1
    outer loop
      vertex 277.5 53 144
      vertex 268.391 42.2798 144
      vertex 269.25 41.8971 144
    endloop
  endfacet
  facet normal 0 0 1
    outer loop
      vertex 277.5 53 144
      vertex 267.47 42.4753 144
      vertex 268.391 42.2798 144
    endloop
  endfacet
  facet normal -0 0 1
    outer loop
      vertex 257.5 53 144
      vertex 267.47 42.4753 144
      vertex 277.5 53 144
    endloop
  endfacet
  facet normal 0 0 1
    outer loop
      vertex 267.47 42.4753 144
      vertex 257.5 53 144
      vertex 266.53 42.4753 144
    endloop
  endfacet
  facet normal 0 0 1
    outer loop
      vertex 266.53 42.4753 144
      vertex 257.5 53 144
      vertex 265.609 42.2798 144
    endloop
  endfacet
  facet normal 0 0 1
    outer loop
      vertex 265.609 42.2798 144
      vertex 257.5 53 144
      vertex 264.75 41.8971 144
    endloop
  endfacet
  facet normal 0 0 1
    outer loop
      vertex 257.5 38 144
      vertex 262.5 38 144
      vertex 262.598 38.9356 144
    endloop
  endfacet
  facet normal 0 0 1
    outer loop
      vertex 264.75 41.8971 144
      vertex 257.5 53 144
      vertex 263.989 41.3442 144
    endloop
  endfacet
  facet normal 0 0 1
    outer loop
      vertex 257.5 53 144
      vertex 263.359 40.645 144
      vertex 263.989 41.3442 144
    endloop
  endfacet
  facet normal 0 0 1
    outer loop
      vertex 257.5 38 144
      vertex 263.359 40.645 144
      vertex 257.5 53 144
    endloop
  endfacet
  facet normal 0 0 1
    outer loop
      vertex 263.359 40.645 144
      vertex 257.5 38 144
      vertex 262.889 39.8303 144
    endloop
  endfacet
  facet normal 0 0 1
    outer loop
      vertex 262.889 39.8303 144
      vertex 257.5 38 144
      vertex 262.598 38.9356 144
    endloop
  endfacet
  facet normal 0 0 1
    outer loop
      vertex 263.359 35.355 144
      vertex 257.5 38 144
      vertex 260 27 144
    endloop
  endfacet
  facet normal 0 0 1
    outer loop
      vertex 243.5 27 144
      vertex 260 27 144
      vertex 257.5 38 144
    endloop
  endfacet
  facet normal 0 0 1
    outer loop
      vertex 260 27 144
      vertex 243.5 27 144
      vertex 260 23 144
    endloop
  endfacet
  facet normal 0 0 1
    outer loop
      vertex 260 23 144
      vertex 243.5 27 144
      vertex 243.5 23 144
    endloop
  endfacet
  facet normal 0 0 1
    outer loop
      vertex 338 38 144
      vertex 313 27 144
      vertex 323 27 144
    endloop
  endfacet
  facet normal 0 0 1
    outer loop
      vertex 313 27 144
      vertex 296.5 27 144
      vertex 313 23 144
    endloop
  endfacet
  facet normal -0 0 1
    outer loop
      vertex 277.5 38 144
      vertex 313 27 144
      vertex 338 38 144
    endloop
  endfacet
  facet normal 0 0 1
    outer loop
      vertex 313 27 144
      vertex 277.5 38 144
      vertex 296.5 27 144
    endloop
  endfacet
  facet normal 0 0 1
    outer loop
      vertex 296.5 27 144
      vertex 277.5 38 144
      vertex 286.5 27 144
    endloop
  endfacet
  facet normal 0 0 1
    outer loop
      vertex 270 27 144
      vertex 286.5 27 144
      vertex 277.5 38 144
    endloop
  endfacet
  facet normal 0 0 1
    outer loop
      vertex 271.402 37.0644 144
      vertex 277.5 38 144
      vertex 271.5 38 144
    endloop
  endfacet
  facet normal 0 0 1
    outer loop
      vertex 271.111 36.1697 144
      vertex 277.5 38 144
      vertex 271.402 37.0644 144
    endloop
  endfacet
  facet normal 0 0 1
    outer loop
      vertex 270.641 35.355 144
      vertex 277.5 38 144
      vertex 271.111 36.1697 144
    endloop
  endfacet
  facet normal 0 0 1
    outer loop
      vertex 270 27 144
      vertex 277.5 38 144
      vertex 270.641 35.355 144
    endloop
  endfacet
  facet normal 0 0 1
    outer loop
      vertex 270 27 144
      vertex 270.641 35.355 144
      vertex 270.011 34.6558 144
    endloop
  endfacet
  facet normal 0 0 1
    outer loop
      vertex 286.5 27 144
      vertex 270 27 144
      vertex 286.5 23 144
    endloop
  endfacet
  facet normal 0 0 1
    outer loop
      vertex 286.5 23 144
      vertex 270 27 144
      vertex 270 23 144
    endloop
  endfacet
  facet normal 0 0 1
    outer loop
      vertex 358 53 144
      vertex 351.5 38 144
      vertex 358 23 144
    endloop
  endfacet
  facet normal 0 0 1
    outer loop
      vertex 358 53 144
      vertex 351.402 38.9356 144
      vertex 351.5 38 144
    endloop
  endfacet
  facet normal 0 0 1
    outer loop
      vertex 358 53 144
      vertex 351.111 39.8303 144
      vertex 351.402 38.9356 144
    endloop
  endfacet
  facet normal 0 0 1
    outer loop
      vertex 358 53 144
      vertex 350.641 40.645 144
      vertex 351.111 39.8303 144
    endloop
  endfacet
  facet normal 0 0 1
    outer loop
      vertex 358 53 144
      vertex 350.011 41.3442 144
      vertex 350.641 40.645 144
    endloop
  endfacet
  facet normal 0 0 1
    outer loop
      vertex 358 53 144
      vertex 349.25 41.8971 144
      vertex 350.011 41.3442 144
    endloop
  endfacet
  facet normal 0 0 1
    outer loop
      vertex 358 53 144
      vertex 348.391 42.2798 144
      vertex 349.25 41.8971 144
    endloop
  endfacet
  facet normal 0 0 1
    outer loop
      vertex 358 53 144
      vertex 347.47 42.4753 144
      vertex 348.391 42.2798 144
    endloop
  endfacet
  facet normal -0 0 1
    outer loop
      vertex 338 53 144
      vertex 347.47 42.4753 144
      vertex 358 53 144
    endloop
  endfacet
  facet normal 0 0 1
    outer loop
      vertex 347.47 42.4753 144
      vertex 338 53 144
      vertex 346.53 42.4753 144
    endloop
  endfacet
  facet normal 0 0 1
    outer loop
      vertex 346.53 42.4753 144
      vertex 338 53 144
      vertex 345.609 42.2798 144
    endloop
  endfacet
  facet normal 0 0 1
    outer loop
      vertex 345.609 42.2798 144
      vertex 338 53 144
      vertex 344.75 41.8971 144
    endloop
  endfacet
  facet normal 0 0 1
    outer loop
      vertex 338 38 144
      vertex 342.5 38 144
      vertex 342.598 38.9356 144
    endloop
  endfacet
  facet normal 0 0 1
    outer loop
      vertex 344.75 41.8971 144
      vertex 338 53 144
      vertex 343.989 41.3442 144
    endloop
  endfacet
  facet normal 0 0 1
    outer loop
      vertex 338 53 144
      vertex 343.359 40.645 144
      vertex 343.989 41.3442 144
    endloop
  endfacet
  facet normal 0 0 1
    outer loop
      vertex 338 38 144
      vertex 343.359 40.645 144
      vertex 338 53 144
    endloop
  endfacet
  facet normal 0 0 1
    outer loop
      vertex 343.359 40.645 144
      vertex 338 38 144
      vertex 342.889 39.8303 144
    endloop
  endfacet
  facet normal 0 0 1
    outer loop
      vertex 342.889 39.8303 144
      vertex 338 38 144
      vertex 342.598 38.9356 144
    endloop
  endfacet
  facet normal 0 0 1
    outer loop
      vertex 342.5 38 144
      vertex 338 38 144
      vertex 339.5 27 144
    endloop
  endfacet
  facet normal 0 0 1
    outer loop
      vertex 323 27 144
      vertex 339.5 27 144
      vertex 338 38 144
    endloop
  endfacet
  facet normal 0 0 1
    outer loop
      vertex 339.5 27 144
      vertex 323 27 144
      vertex 339.5 23 144
    endloop
  endfacet
  facet normal 0 0 1
    outer loop
      vertex 339.5 23 144
      vertex 323 27 144
      vertex 323 23 144
    endloop
  endfacet
  facet normal -0 0 1
    outer loop
      vertex 351.402 37.0644 144
      vertex 358 23 144
      vertex 351.5 38 144
    endloop
  endfacet
  facet normal -0 0 1
    outer loop
      vertex 351.111 36.1697 144
      vertex 358 23 144
      vertex 351.402 37.0644 144
    endloop
  endfacet
  facet normal -0 0 1
    outer loop
      vertex 350.641 35.355 144
      vertex 358 23 144
      vertex 351.111 36.1697 144
    endloop
  endfacet
  facet normal 0 0 1
    outer loop
      vertex 349.5 27 144
      vertex 350.641 35.355 144
      vertex 350.011 34.6558 144
    endloop
  endfacet
  facet normal 0 0 1
    outer loop
      vertex 350.641 35.355 144
      vertex 349.5 27 144
      vertex 358 23 144
    endloop
  endfacet
  facet normal 0 0 1
    outer loop
      vertex 358 23 144
      vertex 349.5 27 144
      vertex 350 23 144
    endloop
  endfacet
  facet normal -0 0 1
    outer loop
      vertex 349.25 34.1029 144
      vertex 349.5 27 144
      vertex 350.011 34.6558 144
    endloop
  endfacet
  facet normal -0 0 1
    outer loop
      vertex 348.391 33.7202 144
      vertex 349.5 27 144
      vertex 349.25 34.1029 144
    endloop
  endfacet
  facet normal -0 0 1
    outer loop
      vertex 347.47 33.5247 144
      vertex 349.5 27 144
      vertex 348.391 33.7202 144
    endloop
  endfacet
  facet normal -0 0 1
    outer loop
      vertex 346.53 33.5247 144
      vertex 349.5 27 144
      vertex 347.47 33.5247 144
    endloop
  endfacet
  facet normal 0 0 1
    outer loop
      vertex 345.609 33.7202 144
      vertex 349.5 27 144
      vertex 346.53 33.5247 144
    endloop
  endfacet
  facet normal 0 0 1
    outer loop
      vertex 339.5 27 144
      vertex 345.609 33.7202 144
      vertex 344.75 34.1029 144
    endloop
  endfacet
  facet normal 0 0 1
    outer loop
      vertex 339.5 27 144
      vertex 344.75 34.1029 144
      vertex 343.989 34.6558 144
    endloop
  endfacet
  facet normal 0 0 1
    outer loop
      vertex 339.5 27 144
      vertex 343.989 34.6558 144
      vertex 343.359 35.355 144
    endloop
  endfacet
  facet normal 0 0 1
    outer loop
      vertex 345.609 33.7202 144
      vertex 339.5 27 144
      vertex 349.5 27 144
    endloop
  endfacet
  facet normal 0 0 1
    outer loop
      vertex 342.889 36.1697 144
      vertex 339.5 27 144
      vertex 343.359 35.355 144
    endloop
  endfacet
  facet normal 0 0 1
    outer loop
      vertex 342.598 37.0644 144
      vertex 339.5 27 144
      vertex 342.889 36.1697 144
    endloop
  endfacet
  facet normal 0 0 1
    outer loop
      vertex 339.5 27 144
      vertex 342.598 37.0644 144
      vertex 342.5 38 144
    endloop
  endfacet
  facet normal 0 0 1
    outer loop
      vertex 350 23 144
      vertex 349.5 27 144
      vertex 349.5 23 144
    endloop
  endfacet
  facet normal 0 0 1
    outer loop
      vertex 313 23 144
      vertex 296.5 27 144
      vertex 296.5 23 144
    endloop
  endfacet
  facet normal 1 -0 0
    outer loop
      vertex 350 18 150
      vertex 350 23 144
      vertex 350 23 150
    endloop
  endfacet
  facet normal 1 0 0
    outer loop
      vertex 350 18 140
      vertex 350 23 144
      vertex 350 18 150
    endloop
  endfacet
  facet normal 1 0 0
    outer loop
      vertex 350 23 144
      vertex 350 18 140
      vertex 350 23 140
    endloop
  endfacet
  facet normal 0 1 -0
    outer loop
      vertex 257.5 38 140
      vertex 230 38 144
      vertex 257.5 38 144
    endloop
  endfacet
  facet normal 0 1 0
    outer loop
      vertex 230 38 144
      vertex 257.5 38 140
      vertex 230 38 140
    endloop
  endfacet
  facet normal 0 1 -0
    outer loop
      vertex 338 38 140
      vertex 277.5 38 144
      vertex 338 38 144
    endloop
  endfacet
  facet normal 0 1 0
    outer loop
      vertex 277.5 38 144
      vertex 338 38 140
      vertex 277.5 38 140
    endloop
  endfacet
  facet normal -0 0 1
    outer loop
      vertex 230 23 150
      vertex 350 18 150
      vertex 350 23 150
    endloop
  endfacet
  facet normal 0 0 1
    outer loop
      vertex 350 18 150
      vertex 230 23 150
      vertex 230 18 150
    endloop
  endfacet
  facet normal 0 1 -0
    outer loop
      vertex 260 23 144
      vertex 243.5 23 148
      vertex 260 23 148
    endloop
  endfacet
  facet normal 0 1 0
    outer loop
      vertex 243.5 23 148
      vertex 260 23 144
      vertex 243.5 23 144
    endloop
  endfacet
  facet normal 0 1 -0
    outer loop
      vertex 286.5 23 144
      vertex 270 23 148
      vertex 286.5 23 148
    endloop
  endfacet
  facet normal 0 1 0
    outer loop
      vertex 270 23 148
      vertex 286.5 23 144
      vertex 270 23 144
    endloop
  endfacet
  facet normal 0 1 -0
    outer loop
      vertex 313 23 144
      vertex 296.5 23 148
      vertex 313 23 148
    endloop
  endfacet
  facet normal 0 1 0
    outer loop
      vertex 296.5 23 148
      vertex 313 23 144
      vertex 296.5 23 144
    endloop
  endfacet
  facet normal 0 1 -0
    outer loop
      vertex 339.5 23 144
      vertex 323 23 148
      vertex 339.5 23 148
    endloop
  endfacet
  facet normal 0 1 0
    outer loop
      vertex 323 23 148
      vertex 339.5 23 144
      vertex 323 23 144
    endloop
  endfacet
  facet normal 0 1 0
    outer loop
      vertex 339.5 23 148
      vertex 350 23 150
      vertex 349.5 23 148
    endloop
  endfacet
  facet normal 0 1 -0
    outer loop
      vertex 350 23 144
      vertex 349.5 23 148
      vertex 350 23 150
    endloop
  endfacet
  facet normal 0 1 0
    outer loop
      vertex 349.5 23 148
      vertex 350 23 144
      vertex 349.5 23 144
    endloop
  endfacet
  facet normal 0 1 0
    outer loop
      vertex 323 23 148
      vertex 350 23 150
      vertex 339.5 23 148
    endloop
  endfacet
  facet normal 0 1 0
    outer loop
      vertex 313 23 148
      vertex 350 23 150
      vertex 323 23 148
    endloop
  endfacet
  facet normal 0 1 0
    outer loop
      vertex 296.5 23 148
      vertex 350 23 150
      vertex 313 23 148
    endloop
  endfacet
  facet normal 0 1 0
    outer loop
      vertex 350 23 150
      vertex 296.5 23 148
      vertex 230 23 150
    endloop
  endfacet
  facet normal 0 1 -0
    outer loop
      vertex 286.5 23 148
      vertex 230 23 150
      vertex 296.5 23 148
    endloop
  endfacet
  facet normal 0 1 -0
    outer loop
      vertex 270 23 148
      vertex 230 23 150
      vertex 286.5 23 148
    endloop
  endfacet
  facet normal 0 1 -0
    outer loop
      vertex 260 23 148
      vertex 230 23 150
      vertex 270 23 148
    endloop
  endfacet
  facet normal 0 1 -0
    outer loop
      vertex 243.5 23 148
      vertex 230 23 150
      vertex 260 23 148
    endloop
  endfacet
  facet normal 0 1 -0
    outer loop
      vertex 233.5 23 148
      vertex 230 23 150
      vertex 243.5 23 148
    endloop
  endfacet
  facet normal 0 1 0
    outer loop
      vertex 230 23 144
      vertex 233.5 23 148
      vertex 233.5 23 144
    endloop
  endfacet
  facet normal 0 1 0
    outer loop
      vertex 233.5 23 148
      vertex 230 23 144
      vertex 230 23 150
    endloop
  endfacet
  facet normal -1 0 0
    outer loop
      vertex 257.5 38 140
      vertex 257.5 53 144
      vertex 257.5 53 140
    endloop
  endfacet
  facet normal -1 -0 0
    outer loop
      vertex 257.5 53 144
      vertex 257.5 38 140
      vertex 257.5 38 144
    endloop
  endfacet
  facet normal 1 -0 0
    outer loop
      vertex 277.5 38 144
      vertex 277.5 53 140
      vertex 277.5 53 144
    endloop
  endfacet
  facet normal 1 0 0
    outer loop
      vertex 277.5 53 140
      vertex 277.5 38 144
      vertex 277.5 38 140
    endloop
  endfacet
  facet normal 0 1 -0
    outer loop
      vertex 277.5 53 140
      vertex 257.5 53 144
      vertex 277.5 53 144
    endloop
  endfacet
  facet normal 0 1 0
    outer loop
      vertex 257.5 53 144
      vertex 277.5 53 140
      vertex 257.5 53 140
    endloop
  endfacet
  facet normal -1 0 0
    outer loop
      vertex 338 38 140
      vertex 338 53 144
      vertex 338 53 140
    endloop
  endfacet
  facet normal -1 -0 0
    outer loop
      vertex 338 53 144
      vertex 338 38 140
      vertex 338 38 144
    endloop
  endfacet
  facet normal 1 -0 0
    outer loop
      vertex 358 23 144
      vertex 358 53 140
      vertex 358 53 144
    endloop
  endfacet
  facet normal 1 0 0
    outer loop
      vertex 358 53 140
      vertex 358 23 144
      vertex 358 23 140
    endloop
  endfacet
  facet normal 0 -1 0
    outer loop
      vertex 350 23 140
      vertex 358 23 144
      vertex 350 23 144
    endloop
  endfacet
  facet normal 0 -1 -0
    outer loop
      vertex 358 23 144
      vertex 350 23 140
      vertex 358 23 140
    endloop
  endfacet
  facet normal 0 1 -0
    outer loop
      vertex 358 53 140
      vertex 338 53 144
      vertex 358 53 144
    endloop
  endfacet
  facet normal 0 1 0
    outer loop
      vertex 338 53 144
      vertex 358 53 140
      vertex 338 53 140
    endloop
  endfacet
  facet normal -0.994523 -0.10452 0
    outer loop
      vertex 271.5 38 140
      vertex 271.402 38.9356 144
      vertex 271.402 38.9356 140
    endloop
  endfacet
  facet normal -0.994523 -0.10452 0
    outer loop
      vertex 271.402 38.9356 144
      vertex 271.5 38 140
      vertex 271.5 38 144
    endloop
  endfacet
  facet normal 0 -1 0
    outer loop
      vertex 266.53 42.4753 140
      vertex 267.47 42.4753 144
      vertex 266.53 42.4753 144
    endloop
  endfacet
  facet normal 0 -1 -0
    outer loop
      vertex 267.47 42.4753 144
      vertex 266.53 42.4753 140
      vertex 267.47 42.4753 140
    endloop
  endfacet
  facet normal 0 1 -0
    outer loop
      vertex 267.47 33.5247 140
      vertex 266.53 33.5247 144
      vertex 267.47 33.5247 144
    endloop
  endfacet
  facet normal 0 1 0
    outer loop
      vertex 266.53 33.5247 144
      vertex 267.47 33.5247 140
      vertex 266.53 33.5247 140
    endloop
  endfacet
  facet normal -0.743145 -0.66913 0
    outer loop
      vertex 270.641 40.645 140
      vertex 270.011 41.3442 144
      vertex 270.011 41.3442 140
    endloop
  endfacet
  facet normal -0.743145 -0.66913 0
    outer loop
      vertex 270.011 41.3442 144
      vertex 270.641 40.645 140
      vertex 270.641 40.645 144
    endloop
  endfacet
  facet normal -0.951056 -0.309017 0
    outer loop
      vertex 271.402 38.9356 140
      vertex 271.111 39.8303 144
      vertex 271.111 39.8303 140
    endloop
  endfacet
  facet normal -0.951056 -0.309017 0
    outer loop
      vertex 271.111 39.8303 144
      vertex 271.402 38.9356 140
      vertex 271.402 38.9356 144
    endloop
  endfacet
  facet normal 0.743145 -0.66913 0
    outer loop
      vertex 263.359 40.645 144
      vertex 263.989 41.3442 140
      vertex 263.989 41.3442 144
    endloop
  endfacet
  facet normal 0.743145 -0.66913 0
    outer loop
      vertex 263.989 41.3442 140
      vertex 263.359 40.645 144
      vertex 263.359 40.645 140
    endloop
  endfacet
  facet normal 0.406732 -0.913547 0
    outer loop
      vertex 264.75 41.8971 140
      vertex 265.609 42.2798 144
      vertex 264.75 41.8971 144
    endloop
  endfacet
  facet normal 0.406732 -0.913547 0
    outer loop
      vertex 265.609 42.2798 144
      vertex 264.75 41.8971 140
      vertex 265.609 42.2798 140
    endloop
  endfacet
  facet normal -0.743147 0.669128 0
    outer loop
      vertex 270.011 34.6558 140
      vertex 270.641 35.355 144
      vertex 270.641 35.355 140
    endloop
  endfacet
  facet normal -0.743147 0.669128 0
    outer loop
      vertex 270.641 35.355 144
      vertex 270.011 34.6558 140
      vertex 270.011 34.6558 144
    endloop
  endfacet
  facet normal 0.951056 0.309018 0
    outer loop
      vertex 262.889 36.1697 144
      vertex 262.598 37.0644 140
      vertex 262.598 37.0644 144
    endloop
  endfacet
  facet normal 0.951056 0.309018 0
    outer loop
      vertex 262.598 37.0644 140
      vertex 262.889 36.1697 144
      vertex 262.889 36.1697 140
    endloop
  endfacet
  facet normal -0.866017 -0.500015 0
    outer loop
      vertex 271.111 39.8303 140
      vertex 270.641 40.645 144
      vertex 270.641 40.645 140
    endloop
  endfacet
  facet normal -0.866017 -0.500015 0
    outer loop
      vertex 270.641 40.645 144
      vertex 271.111 39.8303 140
      vertex 271.111 39.8303 144
    endloop
  endfacet
  facet normal -0.406732 -0.913547 0
    outer loop
      vertex 268.391 42.2798 140
      vertex 269.25 41.8971 144
      vertex 268.391 42.2798 144
    endloop
  endfacet
  facet normal -0.406732 -0.913547 -0
    outer loop
      vertex 269.25 41.8971 144
      vertex 268.391 42.2798 140
      vertex 269.25 41.8971 140
    endloop
  endfacet
  facet normal -0.207913 -0.978147 0
    outer loop
      vertex 267.47 42.4753 140
      vertex 268.391 42.2798 144
      vertex 267.47 42.4753 144
    endloop
  endfacet
  facet normal -0.207913 -0.978147 -0
    outer loop
      vertex 268.391 42.2798 144
      vertex 267.47 42.4753 140
      vertex 268.391 42.2798 140
    endloop
  endfacet
  facet normal -0.587791 -0.809013 0
    outer loop
      vertex 269.25 41.8971 140
      vertex 270.011 41.3442 144
      vertex 269.25 41.8971 144
    endloop
  endfacet
  facet normal -0.587791 -0.809013 -0
    outer loop
      vertex 270.011 41.3442 144
      vertex 269.25 41.8971 140
      vertex 270.011 41.3442 140
    endloop
  endfacet
  facet normal 0.951056 -0.309017 0
    outer loop
      vertex 262.598 38.9356 144
      vertex 262.889 39.8303 140
      vertex 262.889 39.8303 144
    endloop
  endfacet
  facet normal 0.951056 -0.309017 0
    outer loop
      vertex 262.889 39.8303 140
      vertex 262.598 38.9356 144
      vertex 262.598 38.9356 140
    endloop
  endfacet
  facet normal 0.866017 -0.500015 0
    outer loop
      vertex 262.889 39.8303 144
      vertex 263.359 40.645 140
      vertex 263.359 40.645 144
    endloop
  endfacet
  facet normal 0.866017 -0.500015 0
    outer loop
      vertex 263.359 40.645 140
      vertex 262.889 39.8303 144
      vertex 262.889 39.8303 140
    endloop
  endfacet
  facet normal 0.994523 -0.10452 0
    outer loop
      vertex 262.5 38 144
      vertex 262.598 38.9356 140
      vertex 262.598 38.9356 144
    endloop
  endfacet
  facet normal 0.994523 -0.10452 0
    outer loop
      vertex 262.598 38.9356 140
      vertex 262.5 38 144
      vertex 262.5 38 140
    endloop
  endfacet
  facet normal 0.587791 -0.809013 0
    outer loop
      vertex 263.989 41.3442 140
      vertex 264.75 41.8971 144
      vertex 263.989 41.3442 144
    endloop
  endfacet
  facet normal 0.587791 -0.809013 0
    outer loop
      vertex 264.75 41.8971 144
      vertex 263.989 41.3442 140
      vertex 264.75 41.8971 140
    endloop
  endfacet
  facet normal 0.207913 -0.978147 0
    outer loop
      vertex 265.609 42.2798 140
      vertex 266.53 42.4753 144
      vertex 265.609 42.2798 144
    endloop
  endfacet
  facet normal 0.207913 -0.978147 0
    outer loop
      vertex 266.53 42.4753 144
      vertex 265.609 42.2798 140
      vertex 266.53 42.4753 140
    endloop
  endfacet
  facet normal -0.994523 0.10452 0
    outer loop
      vertex 271.402 37.0644 140
      vertex 271.5 38 144
      vertex 271.5 38 140
    endloop
  endfacet
  facet normal -0.994523 0.10452 0
    outer loop
      vertex 271.5 38 144
      vertex 271.402 37.0644 140
      vertex 271.402 37.0644 144
    endloop
  endfacet
  facet normal -0.207913 0.978147 0
    outer loop
      vertex 268.391 33.7202 140
      vertex 267.47 33.5247 144
      vertex 268.391 33.7202 144
    endloop
  endfacet
  facet normal -0.207913 0.978147 0
    outer loop
      vertex 267.47 33.5247 144
      vertex 268.391 33.7202 140
      vertex 267.47 33.5247 140
    endloop
  endfacet
  facet normal -0.587788 0.809015 0
    outer loop
      vertex 270.011 34.6558 140
      vertex 269.25 34.1029 144
      vertex 270.011 34.6558 144
    endloop
  endfacet
  facet normal -0.587788 0.809015 0
    outer loop
      vertex 269.25 34.1029 144
      vertex 270.011 34.6558 140
      vertex 269.25 34.1029 140
    endloop
  endfacet
  facet normal 0.587788 0.809015 -0
    outer loop
      vertex 264.75 34.1029 140
      vertex 263.989 34.6558 144
      vertex 264.75 34.1029 144
    endloop
  endfacet
  facet normal 0.587788 0.809015 0
    outer loop
      vertex 263.989 34.6558 144
      vertex 264.75 34.1029 140
      vertex 263.989 34.6558 140
    endloop
  endfacet
  facet normal 0.207913 0.978147 -0
    outer loop
      vertex 266.53 33.5247 140
      vertex 265.609 33.7202 144
      vertex 266.53 33.5247 144
    endloop
  endfacet
  facet normal 0.207913 0.978147 0
    outer loop
      vertex 265.609 33.7202 144
      vertex 266.53 33.5247 140
      vertex 265.609 33.7202 140
    endloop
  endfacet
  facet normal 0.866017 0.500015 0
    outer loop
      vertex 263.359 35.355 144
      vertex 262.889 36.1697 140
      vertex 262.889 36.1697 144
    endloop
  endfacet
  facet normal 0.866017 0.500015 0
    outer loop
      vertex 262.889 36.1697 140
      vertex 263.359 35.355 144
      vertex 263.359 35.355 140
    endloop
  endfacet
  facet normal 0.743147 0.669128 0
    outer loop
      vertex 263.989 34.6558 144
      vertex 263.359 35.355 140
      vertex 263.359 35.355 144
    endloop
  endfacet
  facet normal 0.743147 0.669128 0
    outer loop
      vertex 263.359 35.355 140
      vertex 263.989 34.6558 144
      vertex 263.989 34.6558 140
    endloop
  endfacet
  facet normal 0.994523 0.10452 0
    outer loop
      vertex 262.598 37.0644 144
      vertex 262.5 38 140
      vertex 262.5 38 144
    endloop
  endfacet
  facet normal 0.994523 0.10452 0
    outer loop
      vertex 262.5 38 140
      vertex 262.598 37.0644 144
      vertex 262.598 37.0644 140
    endloop
  endfacet
  facet normal -0.406732 0.913547 0
    outer loop
      vertex 269.25 34.1029 140
      vertex 268.391 33.7202 144
      vertex 269.25 34.1029 144
    endloop
  endfacet
  facet normal -0.406732 0.913547 0
    outer loop
      vertex 268.391 33.7202 144
      vertex 269.25 34.1029 140
      vertex 268.391 33.7202 140
    endloop
  endfacet
  facet normal -0.951056 0.309018 0
    outer loop
      vertex 271.111 36.1697 140
      vertex 271.402 37.0644 144
      vertex 271.402 37.0644 140
    endloop
  endfacet
  facet normal -0.951056 0.309018 0
    outer loop
      vertex 271.402 37.0644 144
      vertex 271.111 36.1697 140
      vertex 271.111 36.1697 144
    endloop
  endfacet
  facet normal -0.866017 0.500015 0
    outer loop
      vertex 270.641 35.355 140
      vertex 271.111 36.1697 144
      vertex 271.111 36.1697 140
    endloop
  endfacet
  facet normal -0.866017 0.500015 0
    outer loop
      vertex 271.111 36.1697 144
      vertex 270.641 35.355 140
      vertex 270.641 35.355 144
    endloop
  endfacet
  facet normal 0.406732 0.913547 -0
    outer loop
      vertex 265.609 33.7202 140
      vertex 264.75 34.1029 144
      vertex 265.609 33.7202 144
    endloop
  endfacet
  facet normal 0.406732 0.913547 0
    outer loop
      vertex 264.75 34.1029 144
      vertex 265.609 33.7202 140
      vertex 264.75 34.1029 140
    endloop
  endfacet
  facet normal -0.994523 -0.10452 0
    outer loop
      vertex 351.5 38 140
      vertex 351.402 38.9356 144
      vertex 351.402 38.9356 140
    endloop
  endfacet
  facet normal -0.994523 -0.10452 0
    outer loop
      vertex 351.402 38.9356 144
      vertex 351.5 38 140
      vertex 351.5 38 144
    endloop
  endfacet
  facet normal 0.994523 0.10452 0
    outer loop
      vertex 342.598 37.0644 144
      vertex 342.5 38 140
      vertex 342.5 38 144
    endloop
  endfacet
  facet normal 0.994523 0.10452 0
    outer loop
      vertex 342.5 38 140
      vertex 342.598 37.0644 144
      vertex 342.598 37.0644 140
    endloop
  endfacet
  facet normal 0 -1 0
    outer loop
      vertex 346.53 42.4753 140
      vertex 347.47 42.4753 144
      vertex 346.53 42.4753 144
    endloop
  endfacet
  facet normal 0 -1 -0
    outer loop
      vertex 347.47 42.4753 144
      vertex 346.53 42.4753 140
      vertex 347.47 42.4753 140
    endloop
  endfacet
  facet normal 0 1 -0
    outer loop
      vertex 347.47 33.5247 140
      vertex 346.53 33.5247 144
      vertex 347.47 33.5247 144
    endloop
  endfacet
  facet normal 0 1 0
    outer loop
      vertex 346.53 33.5247 144
      vertex 347.47 33.5247 140
      vertex 346.53 33.5247 140
    endloop
  endfacet
  facet normal -0.743145 -0.66913 0
    outer loop
      vertex 350.641 40.645 140
      vertex 350.011 41.3442 144
      vertex 350.011 41.3442 140
    endloop
  endfacet
  facet normal -0.743145 -0.66913 0
    outer loop
      vertex 350.011 41.3442 144
      vertex 350.641 40.645 140
      vertex 350.641 40.645 144
    endloop
  endfacet
  facet normal -0.951056 -0.309017 0
    outer loop
      vertex 351.402 38.9356 140
      vertex 351.111 39.8303 144
      vertex 351.111 39.8303 140
    endloop
  endfacet
  facet normal -0.951056 -0.309017 0
    outer loop
      vertex 351.111 39.8303 144
      vertex 351.402 38.9356 140
      vertex 351.402 38.9356 144
    endloop
  endfacet
  facet normal 0.743145 -0.66913 0
    outer loop
      vertex 343.359 40.645 144
      vertex 343.989 41.3442 140
      vertex 343.989 41.3442 144
    endloop
  endfacet
  facet normal 0.743145 -0.66913 0
    outer loop
      vertex 343.989 41.3442 140
      vertex 343.359 40.645 144
      vertex 343.359 40.645 140
    endloop
  endfacet
  facet normal 0.406732 -0.913547 0
    outer loop
      vertex 344.75 41.8971 140
      vertex 345.609 42.2798 144
      vertex 344.75 41.8971 144
    endloop
  endfacet
  facet normal 0.406732 -0.913547 0
    outer loop
      vertex 345.609 42.2798 144
      vertex 344.75 41.8971 140
      vertex 345.609 42.2798 140
    endloop
  endfacet
  facet normal -0.743147 0.669128 0
    outer loop
      vertex 350.011 34.6558 140
      vertex 350.641 35.355 144
      vertex 350.641 35.355 140
    endloop
  endfacet
  facet normal -0.743147 0.669128 0
    outer loop
      vertex 350.641 35.355 144
      vertex 350.011 34.6558 140
      vertex 350.011 34.6558 144
    endloop
  endfacet
  facet normal 0.951056 0.309018 0
    outer loop
      vertex 342.889 36.1697 144
      vertex 342.598 37.0644 140
      vertex 342.598 37.0644 144
    endloop
  endfacet
  facet normal 0.951056 0.309018 0
    outer loop
      vertex 342.598 37.0644 140
      vertex 342.889 36.1697 144
      vertex 342.889 36.1697 140
    endloop
  endfacet
  facet normal -0.866017 -0.500015 0
    outer loop
      vertex 351.111 39.8303 140
      vertex 350.641 40.645 144
      vertex 350.641 40.645 140
    endloop
  endfacet
  facet normal -0.866017 -0.500015 0
    outer loop
      vertex 350.641 40.645 144
      vertex 351.111 39.8303 140
      vertex 351.111 39.8303 144
    endloop
  endfacet
  facet normal -0.406732 -0.913547 0
    outer loop
      vertex 348.391 42.2798 140
      vertex 349.25 41.8971 144
      vertex 348.391 42.2798 144
    endloop
  endfacet
  facet normal -0.406732 -0.913547 -0
    outer loop
      vertex 349.25 41.8971 144
      vertex 348.391 42.2798 140
      vertex 349.25 41.8971 140
    endloop
  endfacet
  facet normal -0.207913 -0.978147 0
    outer loop
      vertex 347.47 42.4753 140
      vertex 348.391 42.2798 144
      vertex 347.47 42.4753 144
    endloop
  endfacet
  facet normal -0.207913 -0.978147 -0
    outer loop
      vertex 348.391 42.2798 144
      vertex 347.47 42.4753 140
      vertex 348.391 42.2798 140
    endloop
  endfacet
  facet normal -0.587791 -0.809013 0
    outer loop
      vertex 349.25 41.8971 140
      vertex 350.011 41.3442 144
      vertex 349.25 41.8971 144
    endloop
  endfacet
  facet normal -0.587791 -0.809013 -0
    outer loop
      vertex 350.011 41.3442 144
      vertex 349.25 41.8971 140
      vertex 350.011 41.3442 140
    endloop
  endfacet
  facet normal 0.951056 -0.309017 0
    outer loop
      vertex 342.598 38.9356 144
      vertex 342.889 39.8303 140
      vertex 342.889 39.8303 144
    endloop
  endfacet
  facet normal 0.951056 -0.309017 0
    outer loop
      vertex 342.889 39.8303 140
      vertex 342.598 38.9356 144
      vertex 342.598 38.9356 140
    endloop
  endfacet
  facet normal 0.866017 -0.500015 0
    outer loop
      vertex 342.889 39.8303 144
      vertex 343.359 40.645 140
      vertex 343.359 40.645 144
    endloop
  endfacet
  facet normal 0.866017 -0.500015 0
    outer loop
      vertex 343.359 40.645 140
      vertex 342.889 39.8303 144
      vertex 342.889 39.8303 140
    endloop
  endfacet
  facet normal 0.994523 -0.10452 0
    outer loop
      vertex 342.5 38 144
      vertex 342.598 38.9356 140
      vertex 342.598 38.9356 144
    endloop
  endfacet
  facet normal 0.994523 -0.10452 0
    outer loop
      vertex 342.598 38.9356 140
      vertex 342.5 38 144
      vertex 342.5 38 140
    endloop
  endfacet
  facet normal 0.587791 -0.809013 0
    outer loop
      vertex 343.989 41.3442 140
      vertex 344.75 41.8971 144
      vertex 343.989 41.3442 144
    endloop
  endfacet
  facet normal 0.587791 -0.809013 0
    outer loop
      vertex 344.75 41.8971 144
      vertex 343.989 41.3442 140
      vertex 344.75 41.8971 140
    endloop
  endfacet
  facet normal 0.207913 -0.978147 0
    outer loop
      vertex 345.609 42.2798 140
      vertex 346.53 42.4753 144
      vertex 345.609 42.2798 144
    endloop
  endfacet
  facet normal 0.207913 -0.978147 0
    outer loop
      vertex 346.53 42.4753 144
      vertex 345.609 42.2798 140
      vertex 346.53 42.4753 140
    endloop
  endfacet
  facet normal -0.994523 0.10452 0
    outer loop
      vertex 351.402 37.0644 140
      vertex 351.5 38 144
      vertex 351.5 38 140
    endloop
  endfacet
  facet normal -0.994523 0.10452 0
    outer loop
      vertex 351.5 38 144
      vertex 351.402 37.0644 140
      vertex 351.402 37.0644 144
    endloop
  endfacet
  facet normal -0.207913 0.978147 0
    outer loop
      vertex 348.391 33.7202 140
      vertex 347.47 33.5247 144
      vertex 348.391 33.7202 144
    endloop
  endfacet
  facet normal -0.207913 0.978147 0
    outer loop
      vertex 347.47 33.5247 144
      vertex 348.391 33.7202 140
      vertex 347.47 33.5247 140
    endloop
  endfacet
  facet normal -0.587788 0.809015 0
    outer loop
      vertex 350.011 34.6558 140
      vertex 349.25 34.1029 144
      vertex 350.011 34.6558 144
    endloop
  endfacet
  facet normal -0.587788 0.809015 0
    outer loop
      vertex 349.25 34.1029 144
      vertex 350.011 34.6558 140
      vertex 349.25 34.1029 140
    endloop
  endfacet
  facet normal 0.587788 0.809015 -0
    outer loop
      vertex 344.75 34.1029 140
      vertex 343.989 34.6558 144
      vertex 344.75 34.1029 144
    endloop
  endfacet
  facet normal 0.587788 0.809015 0
    outer loop
      vertex 343.989 34.6558 144
      vertex 344.75 34.1029 140
      vertex 343.989 34.6558 140
    endloop
  endfacet
  facet normal 0.207913 0.978147 -0
    outer loop
      vertex 346.53 33.5247 140
      vertex 345.609 33.7202 144
      vertex 346.53 33.5247 144
    endloop
  endfacet
  facet normal 0.207913 0.978147 0
    outer loop
      vertex 345.609 33.7202 144
      vertex 346.53 33.5247 140
      vertex 345.609 33.7202 140
    endloop
  endfacet
  facet normal 0.866017 0.500015 0
    outer loop
      vertex 343.359 35.355 144
      vertex 342.889 36.1697 140
      vertex 342.889 36.1697 144
    endloop
  endfacet
  facet normal 0.866017 0.500015 0
    outer loop
      vertex 342.889 36.1697 140
      vertex 343.359 35.355 144
      vertex 343.359 35.355 140
    endloop
  endfacet
  facet normal 0.743147 0.669128 0
    outer loop
      vertex 343.989 34.6558 144
      vertex 343.359 35.355 140
      vertex 343.359 35.355 144
    endloop
  endfacet
  facet normal 0.743147 0.669128 0
    outer loop
      vertex 343.359 35.355 140
      vertex 343.989 34.6558 144
      vertex 343.989 34.6558 140
    endloop
  endfacet
  facet normal -0.406732 0.913547 0
    outer loop
      vertex 349.25 34.1029 140
      vertex 348.391 33.7202 144
      vertex 349.25 34.1029 144
    endloop
  endfacet
  facet normal -0.406732 0.913547 0
    outer loop
      vertex 348.391 33.7202 144
      vertex 349.25 34.1029 140
      vertex 348.391 33.7202 140
    endloop
  endfacet
  facet normal -0.951056 0.309018 0
    outer loop
      vertex 351.111 36.1697 140
      vertex 351.402 37.0644 144
      vertex 351.402 37.0644 140
    endloop
  endfacet
  facet normal -0.951056 0.309018 0
    outer loop
      vertex 351.402 37.0644 144
      vertex 351.111 36.1697 140
      vertex 351.111 36.1697 144
    endloop
  endfacet
  facet normal -0.866017 0.500015 0
    outer loop
      vertex 350.641 35.355 140
      vertex 351.111 36.1697 144
      vertex 351.111 36.1697 140
    endloop
  endfacet
  facet normal -0.866017 0.500015 0
    outer loop
      vertex 351.111 36.1697 144
      vertex 350.641 35.355 140
      vertex 350.641 35.355 144
    endloop
  endfacet
  facet normal 0.406732 0.913547 -0
    outer loop
      vertex 345.609 33.7202 140
      vertex 344.75 34.1029 144
      vertex 345.609 33.7202 144
    endloop
  endfacet
  facet normal 0.406732 0.913547 0
    outer loop
      vertex 344.75 34.1029 144
      vertex 345.609 33.7202 140
      vertex 344.75 34.1029 140
    endloop
  endfacet
endsolid OpenSCAD_Model
