solid OpenSCAD_Model
  facet normal -1 0 0
    outer loop
      vertex 3 -12.2895 11.1193
      vertex 3 -6 18
      vertex 3 -6 0
    endloop
  endfacet
  facet normal -1 0 0
    outer loop
      vertex 3 -6 18
      vertex 3 -12.2895 11.1193
      vertex 3 -12.1656 11.7021
    endloop
  endfacet
  facet normal -1 0 0
    outer loop
      vertex 3 -6 0
      vertex 3 -12.5318 10.575
      vertex 3 -12.2895 11.1193
    endloop
  endfacet
  facet normal -1 0 0
    outer loop
      vertex 3 -6 0
      vertex 3 -12.882 10.093
      vertex 3 -12.5318 10.575
    endloop
  endfacet
  facet normal -1 0 0
    outer loop
      vertex 3 -6 0
      vertex 3 -13.3248 9.6943
      vertex 3 -12.882 10.093
    endloop
  endfacet
  facet normal -1 0 0
    outer loop
      vertex 3 -6 0
      vertex 3 -13.8408 9.39639
      vertex 3 -13.3248 9.6943
    endloop
  endfacet
  facet normal -1 0 0
    outer loop
      vertex 3 -6 0
      vertex 3 -14.4075 9.21228
      vertex 3 -13.8408 9.39639
    endloop
  endfacet
  facet normal -1 0 0
    outer loop
      vertex 3 -6 0
      vertex 3 -15 9.15
      vertex 3 -14.4075 9.21228
    endloop
  endfacet
  facet normal -1 0 0
    outer loop
      vertex 3 -24 0
      vertex 3 -15 9.15
      vertex 3 -6 0
    endloop
  endfacet
  facet normal -1 -0 0
    outer loop
      vertex 3 -15 9.15
      vertex 3 -24 0
      vertex 3 -15.5925 9.21228
    endloop
  endfacet
  facet normal -1 -0 0
    outer loop
      vertex 3 -15.5925 9.21228
      vertex 3 -24 0
      vertex 3 -16.1592 9.39639
    endloop
  endfacet
  facet normal -1 -0 0
    outer loop
      vertex 3 -16.1592 9.39639
      vertex 3 -24 0
      vertex 3 -16.6752 9.6943
    endloop
  endfacet
  facet normal -1 0 0
    outer loop
      vertex 3 -17.7105 11.1193
      vertex 3 -24 18
      vertex 3 -17.8344 11.7021
    endloop
  endfacet
  facet normal -1 0 0
    outer loop
      vertex 3 -24 18
      vertex 3 -17.7105 11.1193
      vertex 3 -24 0
    endloop
  endfacet
  facet normal -1 -0 0
    outer loop
      vertex 3 -17.4682 10.575
      vertex 3 -24 0
      vertex 3 -17.7105 11.1193
    endloop
  endfacet
  facet normal -1 -0 0
    outer loop
      vertex 3 -17.118 10.093
      vertex 3 -24 0
      vertex 3 -17.4682 10.575
    endloop
  endfacet
  facet normal -1 -0 0
    outer loop
      vertex 3 -16.6752 9.6943
      vertex 3 -24 0
      vertex 3 -17.118 10.093
    endloop
  endfacet
  facet normal -1 0 0
    outer loop
      vertex 3 -12.1656 12.2979
      vertex 3 -6 18
      vertex 3 -12.1656 11.7021
    endloop
  endfacet
  facet normal -1 0 0
    outer loop
      vertex 3 -12.2895 12.8807
      vertex 3 -6 18
      vertex 3 -12.1656 12.2979
    endloop
  endfacet
  facet normal -1 0 0
    outer loop
      vertex 3 -12.5318 13.425
      vertex 3 -6 18
      vertex 3 -12.2895 12.8807
    endloop
  endfacet
  facet normal -1 0 0
    outer loop
      vertex 3 -12.882 13.907
      vertex 3 -6 18
      vertex 3 -12.5318 13.425
    endloop
  endfacet
  facet normal -1 0 0
    outer loop
      vertex 3 -13.3248 14.3057
      vertex 3 -6 18
      vertex 3 -12.882 13.907
    endloop
  endfacet
  facet normal -1 0 0
    outer loop
      vertex 3 -13.8408 14.6036
      vertex 3 -6 18
      vertex 3 -13.3248 14.3057
    endloop
  endfacet
  facet normal -1 0 0
    outer loop
      vertex 3 -14.4075 14.7877
      vertex 3 -6 18
      vertex 3 -13.8408 14.6036
    endloop
  endfacet
  facet normal -1 0 0
    outer loop
      vertex 3 -15 14.85
      vertex 3 -6 18
      vertex 3 -14.4075 14.7877
    endloop
  endfacet
  facet normal -1 0 0
    outer loop
      vertex 3 -24 18
      vertex 3 -15 14.85
      vertex 3 -15.5925 14.7877
    endloop
  endfacet
  facet normal -1 0 0
    outer loop
      vertex 3 -24 18
      vertex 3 -15.5925 14.7877
      vertex 3 -16.1592 14.6036
    endloop
  endfacet
  facet normal -1 0 0
    outer loop
      vertex 3 -17.8344 11.7021
      vertex 3 -24 18
      vertex 3 -17.8344 12.2979
    endloop
  endfacet
  facet normal -1 0 0
    outer loop
      vertex 3 -17.8344 12.2979
      vertex 3 -24 18
      vertex 3 -17.7105 12.8807
    endloop
  endfacet
  facet normal -1 0 0
    outer loop
      vertex 3 -15 14.85
      vertex 3 -24 18
      vertex 3 -6 18
    endloop
  endfacet
  facet normal -1 0 0
    outer loop
      vertex 3 -16.6752 14.3057
      vertex 3 -24 18
      vertex 3 -16.1592 14.6036
    endloop
  endfacet
  facet normal -1 0 0
    outer loop
      vertex 3 -17.118 13.907
      vertex 3 -24 18
      vertex 3 -16.6752 14.3057
    endloop
  endfacet
  facet normal -1 0 0
    outer loop
      vertex 3 -17.4682 13.425
      vertex 3 -24 18
      vertex 3 -17.118 13.907
    endloop
  endfacet
  facet normal -1 0 0
    outer loop
      vertex 3 -17.7105 12.8807
      vertex 3 -24 18
      vertex 3 -17.4682 13.425
    endloop
  endfacet
  facet normal -0 0 1
    outer loop
      vertex 3 -6 18
      vertex 8 -24 18
      vertex 8 -6 18
    endloop
  endfacet
  facet normal 0 0 1
    outer loop
      vertex 8 -24 18
      vertex 3 -6 18
      vertex 3 -24 18
    endloop
  endfacet
  facet normal 1 0 0
    outer loop
      vertex 8 -12.1656 11.7021
      vertex 8 -6 18
      vertex 8 -12.1656 12.2979
    endloop
  endfacet
  facet normal 1 0 0
    outer loop
      vertex 8 -6 18
      vertex 8 -12.2895 12.8807
      vertex 8 -12.1656 12.2979
    endloop
  endfacet
  facet normal 1 0 0
    outer loop
      vertex 8 -6 18
      vertex 8 -12.5318 13.425
      vertex 8 -12.2895 12.8807
    endloop
  endfacet
  facet normal 1 0 0
    outer loop
      vertex 8 -6 18
      vertex 8 -12.882 13.907
      vertex 8 -12.5318 13.425
    endloop
  endfacet
  facet normal 1 0 0
    outer loop
      vertex 8 -6 18
      vertex 8 -13.3248 14.3057
      vertex 8 -12.882 13.907
    endloop
  endfacet
  facet normal 1 0 0
    outer loop
      vertex 8 -6 18
      vertex 8 -13.8408 14.6036
      vertex 8 -13.3248 14.3057
    endloop
  endfacet
  facet normal 1 0 0
    outer loop
      vertex 8 -6 18
      vertex 8 -14.4075 14.7877
      vertex 8 -13.8408 14.6036
    endloop
  endfacet
  facet normal 1 0 0
    outer loop
      vertex 8 -6 18
      vertex 8 -15 14.85
      vertex 8 -14.4075 14.7877
    endloop
  endfacet
  facet normal 1 -0 0
    outer loop
      vertex 8 -24 18
      vertex 8 -15 14.85
      vertex 8 -6 18
    endloop
  endfacet
  facet normal 1 0 0
    outer loop
      vertex 8 -15 14.85
      vertex 8 -24 18
      vertex 8 -15.5925 14.7877
    endloop
  endfacet
  facet normal 1 0 0
    outer loop
      vertex 8 -17.8344 12.2979
      vertex 8 -24 18
      vertex 8 -17.8344 11.7021
    endloop
  endfacet
  facet normal 1 0 0
    outer loop
      vertex 8 -17.7105 12.8807
      vertex 8 -24 18
      vertex 8 -17.8344 12.2979
    endloop
  endfacet
  facet normal 1 0 0
    outer loop
      vertex 8 -17.4682 13.425
      vertex 8 -24 18
      vertex 8 -17.7105 12.8807
    endloop
  endfacet
  facet normal 1 0 0
    outer loop
      vertex 8 -17.118 13.907
      vertex 8 -24 18
      vertex 8 -17.4682 13.425
    endloop
  endfacet
  facet normal 1 0 0
    outer loop
      vertex 8 -16.6752 14.3057
      vertex 8 -24 18
      vertex 8 -17.118 13.907
    endloop
  endfacet
  facet normal 1 0 0
    outer loop
      vertex 8 -16.1592 14.6036
      vertex 8 -24 18
      vertex 8 -16.6752 14.3057
    endloop
  endfacet
  facet normal 1 0 0
    outer loop
      vertex 8 -15.5925 14.7877
      vertex 8 -24 18
      vertex 8 -16.1592 14.6036
    endloop
  endfacet
  facet normal 1 0 0
    outer loop
      vertex 8 -6 18
      vertex 8 -12.1656 11.7021
      vertex 8 -6 5
    endloop
  endfacet
  facet normal 1 -0 0
    outer loop
      vertex 8 -12.2895 11.1193
      vertex 8 -6 5
      vertex 8 -12.1656 11.7021
    endloop
  endfacet
  facet normal 1 -0 0
    outer loop
      vertex 8 -12.5318 10.575
      vertex 8 -6 5
      vertex 8 -12.2895 11.1193
    endloop
  endfacet
  facet normal 1 -0 0
    outer loop
      vertex 8 -12.882 10.093
      vertex 8 -6 5
      vertex 8 -12.5318 10.575
    endloop
  endfacet
  facet normal 1 -0 0
    outer loop
      vertex 8 -13.3248 9.6943
      vertex 8 -6 5
      vertex 8 -12.882 10.093
    endloop
  endfacet
  facet normal 1 -0 0
    outer loop
      vertex 8 -13.8408 9.39639
      vertex 8 -6 5
      vertex 8 -13.3248 9.6943
    endloop
  endfacet
  facet normal 1 -0 0
    outer loop
      vertex 8 -14.4075 9.21228
      vertex 8 -6 5
      vertex 8 -13.8408 9.39639
    endloop
  endfacet
  facet normal 1 -0 0
    outer loop
      vertex 8 -15 9.15
      vertex 8 -6 5
      vertex 8 -14.4075 9.21228
    endloop
  endfacet
  facet normal 1 0 0
    outer loop
      vertex 8 -24 5
      vertex 8 -15 9.15
      vertex 8 -15.5925 9.21228
    endloop
  endfacet
  facet normal 1 0 0
    outer loop
      vertex 8 -24 5
      vertex 8 -15.5925 9.21228
      vertex 8 -16.1592 9.39639
    endloop
  endfacet
  facet normal 1 0 0
    outer loop
      vertex 8 -24 5
      vertex 8 -17.8344 11.7021
      vertex 8 -24 18
    endloop
  endfacet
  facet normal 1 0 0
    outer loop
      vertex 8 -17.8344 11.7021
      vertex 8 -24 5
      vertex 8 -17.7105 11.1193
    endloop
  endfacet
  facet normal 1 0 0
    outer loop
      vertex 8 -17.7105 11.1193
      vertex 8 -24 5
      vertex 8 -17.4682 10.575
    endloop
  endfacet
  facet normal 1 0 0
    outer loop
      vertex 8 -15 9.15
      vertex 8 -24 5
      vertex 8 -6 5
    endloop
  endfacet
  facet normal 1 0 0
    outer loop
      vertex 8 -16.6752 9.6943
      vertex 8 -24 5
      vertex 8 -16.1592 9.39639
    endloop
  endfacet
  facet normal 1 0 0
    outer loop
      vertex 8 -17.118 10.093
      vertex 8 -24 5
      vertex 8 -16.6752 9.6943
    endloop
  endfacet
  facet normal 1 0 0
    outer loop
      vertex 8 -17.4682 10.575
      vertex 8 -24 5
      vertex 8 -17.118 10.093
    endloop
  endfacet
  facet normal 0 0 -1
    outer loop
      vertex 3 -24 0
      vertex 42 -6 0
      vertex 42 -24 0
    endloop
  endfacet
  facet normal -0 0 -1
    outer loop
      vertex 42 -6 0
      vertex 3 -24 0
      vertex 3 -6 0
    endloop
  endfacet
  facet normal 0 -1 0
    outer loop
      vertex 3 -24 18
      vertex 8 -24 5
      vertex 8 -24 18
    endloop
  endfacet
  facet normal 0 -1 -0
    outer loop
      vertex 8 -24 5
      vertex 3 -24 0
      vertex 37 -24 5
    endloop
  endfacet
  facet normal 0 -1 0
    outer loop
      vertex 3 -24 0
      vertex 8 -24 5
      vertex 3 -24 18
    endloop
  endfacet
  facet normal 0 -1 0
    outer loop
      vertex 37 -24 5
      vertex 42 -24 18
      vertex 37 -24 18
    endloop
  endfacet
  facet normal 0 -1 0
    outer loop
      vertex 37 -24 5
      vertex 42 -24 0
      vertex 42 -24 18
    endloop
  endfacet
  facet normal 0 -1 0
    outer loop
      vertex 42 -24 0
      vertex 37 -24 5
      vertex 3 -24 0
    endloop
  endfacet
  facet normal 0 1 0
    outer loop
      vertex 42 -6 18
      vertex 37 -6 5
      vertex 37 -6 18
    endloop
  endfacet
  facet normal 0 1 0
    outer loop
      vertex 37 -6 5
      vertex 42 -6 0
      vertex 8 -6 5
    endloop
  endfacet
  facet normal 0 1 -0
    outer loop
      vertex 42 -6 0
      vertex 37 -6 5
      vertex 42 -6 18
    endloop
  endfacet
  facet normal 0 1 -0
    outer loop
      vertex 8 -6 5
      vertex 3 -6 18
      vertex 8 -6 18
    endloop
  endfacet
  facet normal 0 1 0
    outer loop
      vertex 8 -6 5
      vertex 3 -6 0
      vertex 3 -6 18
    endloop
  endfacet
  facet normal 0 1 0
    outer loop
      vertex 3 -6 0
      vertex 8 -6 5
      vertex 42 -6 0
    endloop
  endfacet
  facet normal -0 0 1
    outer loop
      vertex 8 -6 5
      vertex 37 -24 5
      vertex 37 -6 5
    endloop
  endfacet
  facet normal 0 0 1
    outer loop
      vertex 37 -24 5
      vertex 8 -6 5
      vertex 8 -24 5
    endloop
  endfacet
  facet normal 1 0 0
    outer loop
      vertex 42 -12.1656 11.7021
      vertex 42 -6 18
      vertex 42 -12.1656 12.2979
    endloop
  endfacet
  facet normal 1 0 0
    outer loop
      vertex 42 -6 18
      vertex 42 -12.2895 12.8807
      vertex 42 -12.1656 12.2979
    endloop
  endfacet
  facet normal 1 0 0
    outer loop
      vertex 42 -6 18
      vertex 42 -12.5318 13.425
      vertex 42 -12.2895 12.8807
    endloop
  endfacet
  facet normal 1 0 0
    outer loop
      vertex 42 -6 18
      vertex 42 -12.882 13.907
      vertex 42 -12.5318 13.425
    endloop
  endfacet
  facet normal 1 0 0
    outer loop
      vertex 42 -6 18
      vertex 42 -13.3248 14.3057
      vertex 42 -12.882 13.907
    endloop
  endfacet
  facet normal 1 0 0
    outer loop
      vertex 42 -6 18
      vertex 42 -13.8408 14.6036
      vertex 42 -13.3248 14.3057
    endloop
  endfacet
  facet normal 1 0 0
    outer loop
      vertex 42 -6 18
      vertex 42 -14.4075 14.7877
      vertex 42 -13.8408 14.6036
    endloop
  endfacet
  facet normal 1 0 0
    outer loop
      vertex 42 -6 18
      vertex 42 -15 14.85
      vertex 42 -14.4075 14.7877
    endloop
  endfacet
  facet normal 1 -0 0
    outer loop
      vertex 42 -24 18
      vertex 42 -15 14.85
      vertex 42 -6 18
    endloop
  endfacet
  facet normal 1 0 0
    outer loop
      vertex 42 -15 14.85
      vertex 42 -24 18
      vertex 42 -15.5925 14.7877
    endloop
  endfacet
  facet normal 1 0 0
    outer loop
      vertex 42 -17.8344 12.2979
      vertex 42 -24 18
      vertex 42 -17.8344 11.7021
    endloop
  endfacet
  facet normal 1 0 0
    outer loop
      vertex 42 -17.7105 12.8807
      vertex 42 -24 18
      vertex 42 -17.8344 12.2979
    endloop
  endfacet
  facet normal 1 0 0
    outer loop
      vertex 42 -17.4682 13.425
      vertex 42 -24 18
      vertex 42 -17.7105 12.8807
    endloop
  endfacet
  facet normal 1 0 0
    outer loop
      vertex 42 -17.118 13.907
      vertex 42 -24 18
      vertex 42 -17.4682 13.425
    endloop
  endfacet
  facet normal 1 0 0
    outer loop
      vertex 42 -16.6752 14.3057
      vertex 42 -24 18
      vertex 42 -17.118 13.907
    endloop
  endfacet
  facet normal 1 0 0
    outer loop
      vertex 42 -16.1592 14.6036
      vertex 42 -24 18
      vertex 42 -16.6752 14.3057
    endloop
  endfacet
  facet normal 1 0 0
    outer loop
      vertex 42 -15.5925 14.7877
      vertex 42 -24 18
      vertex 42 -16.1592 14.6036
    endloop
  endfacet
  facet normal 1 0 0
    outer loop
      vertex 42 -12.2895 11.1193
      vertex 42 -6 18
      vertex 42 -12.1656 11.7021
    endloop
  endfacet
  facet normal 1 0 0
    outer loop
      vertex 42 -6 18
      vertex 42 -12.2895 11.1193
      vertex 42 -6 0
    endloop
  endfacet
  facet normal 1 -0 0
    outer loop
      vertex 42 -12.5318 10.575
      vertex 42 -6 0
      vertex 42 -12.2895 11.1193
    endloop
  endfacet
  facet normal 1 -0 0
    outer loop
      vertex 42 -12.882 10.093
      vertex 42 -6 0
      vertex 42 -12.5318 10.575
    endloop
  endfacet
  facet normal 1 -0 0
    outer loop
      vertex 42 -13.3248 9.6943
      vertex 42 -6 0
      vertex 42 -12.882 10.093
    endloop
  endfacet
  facet normal 1 -0 0
    outer loop
      vertex 42 -13.8408 9.39639
      vertex 42 -6 0
      vertex 42 -13.3248 9.6943
    endloop
  endfacet
  facet normal 1 -0 0
    outer loop
      vertex 42 -14.4075 9.21228
      vertex 42 -6 0
      vertex 42 -13.8408 9.39639
    endloop
  endfacet
  facet normal 1 -0 0
    outer loop
      vertex 42 -15 9.15
      vertex 42 -6 0
      vertex 42 -14.4075 9.21228
    endloop
  endfacet
  facet normal 1 0 0
    outer loop
      vertex 42 -24 0
      vertex 42 -15 9.15
      vertex 42 -15.5925 9.21228
    endloop
  endfacet
  facet normal 1 0 0
    outer loop
      vertex 42 -24 0
      vertex 42 -15.5925 9.21228
      vertex 42 -16.1592 9.39639
    endloop
  endfacet
  facet normal 1 0 0
    outer loop
      vertex 42 -24 0
      vertex 42 -16.1592 9.39639
      vertex 42 -16.6752 9.6943
    endloop
  endfacet
  facet normal 1 0 0
    outer loop
      vertex 42 -24 0
      vertex 42 -16.6752 9.6943
      vertex 42 -17.118 10.093
    endloop
  endfacet
  facet normal 1 0 0
    outer loop
      vertex 42 -24 18
      vertex 42 -17.7105 11.1193
      vertex 42 -17.8344 11.7021
    endloop
  endfacet
  facet normal 1 0 0
    outer loop
      vertex 42 -24 0
      vertex 42 -17.7105 11.1193
      vertex 42 -24 18
    endloop
  endfacet
  facet normal 1 0 0
    outer loop
      vertex 42 -17.7105 11.1193
      vertex 42 -24 0
      vertex 42 -17.4682 10.575
    endloop
  endfacet
  facet normal 1 0 0
    outer loop
      vertex 42 -15 9.15
      vertex 42 -24 0
      vertex 42 -6 0
    endloop
  endfacet
  facet normal 1 0 0
    outer loop
      vertex 42 -17.4682 10.575
      vertex 42 -24 0
      vertex 42 -17.118 10.093
    endloop
  endfacet
  facet normal -1 0 0
    outer loop
      vertex 37 -6 5
      vertex 37 -12.1656 11.7021
      vertex 37 -6 18
    endloop
  endfacet
  facet normal -1 0 0
    outer loop
      vertex 37 -6 5
      vertex 37 -12.2895 11.1193
      vertex 37 -12.1656 11.7021
    endloop
  endfacet
  facet normal -1 0 0
    outer loop
      vertex 37 -6 5
      vertex 37 -12.5318 10.575
      vertex 37 -12.2895 11.1193
    endloop
  endfacet
  facet normal -1 0 0
    outer loop
      vertex 37 -6 5
      vertex 37 -12.882 10.093
      vertex 37 -12.5318 10.575
    endloop
  endfacet
  facet normal -1 0 0
    outer loop
      vertex 37 -6 5
      vertex 37 -13.3248 9.6943
      vertex 37 -12.882 10.093
    endloop
  endfacet
  facet normal -1 0 0
    outer loop
      vertex 37 -6 5
      vertex 37 -13.8408 9.39639
      vertex 37 -13.3248 9.6943
    endloop
  endfacet
  facet normal -1 0 0
    outer loop
      vertex 37 -6 5
      vertex 37 -14.4075 9.21228
      vertex 37 -13.8408 9.39639
    endloop
  endfacet
  facet normal -1 0 0
    outer loop
      vertex 37 -6 5
      vertex 37 -15 9.15
      vertex 37 -14.4075 9.21228
    endloop
  endfacet
  facet normal -1 0 0
    outer loop
      vertex 37 -24 5
      vertex 37 -15 9.15
      vertex 37 -6 5
    endloop
  endfacet
  facet normal -1 -0 0
    outer loop
      vertex 37 -15 9.15
      vertex 37 -24 5
      vertex 37 -15.5925 9.21228
    endloop
  endfacet
  facet normal -1 0 0
    outer loop
      vertex 37 -24 18
      vertex 37 -17.8344 11.7021
      vertex 37 -24 5
    endloop
  endfacet
  facet normal -1 -0 0
    outer loop
      vertex 37 -17.7105 11.1193
      vertex 37 -24 5
      vertex 37 -17.8344 11.7021
    endloop
  endfacet
  facet normal -1 -0 0
    outer loop
      vertex 37 -17.4682 10.575
      vertex 37 -24 5
      vertex 37 -17.7105 11.1193
    endloop
  endfacet
  facet normal -1 -0 0
    outer loop
      vertex 37 -17.118 10.093
      vertex 37 -24 5
      vertex 37 -17.4682 10.575
    endloop
  endfacet
  facet normal -1 -0 0
    outer loop
      vertex 37 -16.6752 9.6943
      vertex 37 -24 5
      vertex 37 -17.118 10.093
    endloop
  endfacet
  facet normal -1 -0 0
    outer loop
      vertex 37 -16.1592 9.39639
      vertex 37 -24 5
      vertex 37 -16.6752 9.6943
    endloop
  endfacet
  facet normal -1 -0 0
    outer loop
      vertex 37 -15.5925 9.21228
      vertex 37 -24 5
      vertex 37 -16.1592 9.39639
    endloop
  endfacet
  facet normal -1 0 0
    outer loop
      vertex 37 -12.1656 12.2979
      vertex 37 -6 18
      vertex 37 -12.1656 11.7021
    endloop
  endfacet
  facet normal -1 0 0
    outer loop
      vertex 37 -12.2895 12.8807
      vertex 37 -6 18
      vertex 37 -12.1656 12.2979
    endloop
  endfacet
  facet normal -1 0 0
    outer loop
      vertex 37 -12.5318 13.425
      vertex 37 -6 18
      vertex 37 -12.2895 12.8807
    endloop
  endfacet
  facet normal -1 0 0
    outer loop
      vertex 37 -12.882 13.907
      vertex 37 -6 18
      vertex 37 -12.5318 13.425
    endloop
  endfacet
  facet normal -1 0 0
    outer loop
      vertex 37 -13.3248 14.3057
      vertex 37 -6 18
      vertex 37 -12.882 13.907
    endloop
  endfacet
  facet normal -1 0 0
    outer loop
      vertex 37 -13.8408 14.6036
      vertex 37 -6 18
      vertex 37 -13.3248 14.3057
    endloop
  endfacet
  facet normal -1 0 0
    outer loop
      vertex 37 -14.4075 14.7877
      vertex 37 -6 18
      vertex 37 -13.8408 14.6036
    endloop
  endfacet
  facet normal -1 0 0
    outer loop
      vertex 37 -15 14.85
      vertex 37 -6 18
      vertex 37 -14.4075 14.7877
    endloop
  endfacet
  facet normal -1 0 0
    outer loop
      vertex 37 -24 18
      vertex 37 -15 14.85
      vertex 37 -15.5925 14.7877
    endloop
  endfacet
  facet normal -1 0 0
    outer loop
      vertex 37 -24 18
      vertex 37 -15.5925 14.7877
      vertex 37 -16.1592 14.6036
    endloop
  endfacet
  facet normal -1 0 0
    outer loop
      vertex 37 -17.8344 11.7021
      vertex 37 -24 18
      vertex 37 -17.8344 12.2979
    endloop
  endfacet
  facet normal -1 0 0
    outer loop
      vertex 37 -17.8344 12.2979
      vertex 37 -24 18
      vertex 37 -17.7105 12.8807
    endloop
  endfacet
  facet normal -1 0 0
    outer loop
      vertex 37 -17.7105 12.8807
      vertex 37 -24 18
      vertex 37 -17.4682 13.425
    endloop
  endfacet
  facet normal -1 0 0
    outer loop
      vertex 37 -15 14.85
      vertex 37 -24 18
      vertex 37 -6 18
    endloop
  endfacet
  facet normal -1 0 0
    outer loop
      vertex 37 -16.6752 14.3057
      vertex 37 -24 18
      vertex 37 -16.1592 14.6036
    endloop
  endfacet
  facet normal -1 0 0
    outer loop
      vertex 37 -17.118 13.907
      vertex 37 -24 18
      vertex 37 -16.6752 14.3057
    endloop
  endfacet
  facet normal -1 0 0
    outer loop
      vertex 37 -17.4682 13.425
      vertex 37 -24 18
      vertex 37 -17.118 13.907
    endloop
  endfacet
  facet normal -0 0 1
    outer loop
      vertex 37 -6 18
      vertex 42 -24 18
      vertex 42 -6 18
    endloop
  endfacet
  facet normal 0 0 1
    outer loop
      vertex 42 -24 18
      vertex 37 -6 18
      vertex 37 -24 18
    endloop
  endfacet
  facet normal 0 -0.913546 0.406736
    outer loop
      vertex 3 -12.5318 10.575
      vertex 8 -12.2895 11.1193
      vertex 3 -12.2895 11.1193
    endloop
  endfacet
  facet normal 0 -0.913546 0.406736
    outer loop
      vertex 8 -12.2895 11.1193
      vertex 3 -12.5318 10.575
      vertex 8 -12.5318 10.575
    endloop
  endfacet
  facet normal 0 1 -0
    outer loop
      vertex 8 -17.8344 11.7021
      vertex 3 -17.8344 12.2979
      vertex 8 -17.8344 12.2979
    endloop
  endfacet
  facet normal 0 1 0
    outer loop
      vertex 3 -17.8344 12.2979
      vertex 8 -17.8344 11.7021
      vertex 3 -17.8344 11.7021
    endloop
  endfacet
  facet normal -0 0.104529 0.994522
    outer loop
      vertex 3 -15 9.15
      vertex 8 -15.5925 9.21228
      vertex 8 -15 9.15
    endloop
  endfacet
  facet normal 0 0.104529 0.994522
    outer loop
      vertex 8 -15.5925 9.21228
      vertex 3 -15 9.15
      vertex 3 -15.5925 9.21228
    endloop
  endfacet
  facet normal 0 -0.913546 -0.406736
    outer loop
      vertex 3 -12.2895 12.8807
      vertex 8 -12.5318 13.425
      vertex 3 -12.5318 13.425
    endloop
  endfacet
  facet normal 0 -0.913546 -0.406736
    outer loop
      vertex 8 -12.5318 13.425
      vertex 3 -12.2895 12.8807
      vertex 8 -12.2895 12.8807
    endloop
  endfacet
  facet normal 0 -0.309016 -0.951057
    outer loop
      vertex 3 -14.4075 14.7877
      vertex 8 -13.8408 14.6036
      vertex 8 -14.4075 14.7877
    endloop
  endfacet
  facet normal -0 -0.309016 -0.951057
    outer loop
      vertex 8 -13.8408 14.6036
      vertex 3 -14.4075 14.7877
      vertex 3 -13.8408 14.6036
    endloop
  endfacet
  facet normal -0 0.669132 0.743144
    outer loop
      vertex 3 -16.6752 9.6943
      vertex 8 -17.118 10.093
      vertex 8 -16.6752 9.6943
    endloop
  endfacet
  facet normal 0 0.669132 0.743144
    outer loop
      vertex 8 -17.118 10.093
      vertex 3 -16.6752 9.6943
      vertex 3 -17.118 10.093
    endloop
  endfacet
  facet normal 0 0.499999 -0.866026
    outer loop
      vertex 3 -16.6752 14.3057
      vertex 8 -16.1592 14.6036
      vertex 8 -16.6752 14.3057
    endloop
  endfacet
  facet normal 0 0.499999 -0.866026
    outer loop
      vertex 8 -16.1592 14.6036
      vertex 3 -16.6752 14.3057
      vertex 3 -16.1592 14.6036
    endloop
  endfacet
  facet normal 0 0.978147 -0.207915
    outer loop
      vertex 8 -17.8344 12.2979
      vertex 3 -17.7105 12.8807
      vertex 8 -17.7105 12.8807
    endloop
  endfacet
  facet normal 0 0.978147 -0.207915
    outer loop
      vertex 3 -17.7105 12.8807
      vertex 8 -17.8344 12.2979
      vertex 3 -17.8344 12.2979
    endloop
  endfacet
  facet normal 0 -0.5 0.866025
    outer loop
      vertex 3 -13.3248 9.6943
      vertex 8 -13.8408 9.39639
      vertex 8 -13.3248 9.6943
    endloop
  endfacet
  facet normal 0 -0.5 0.866025
    outer loop
      vertex 8 -13.8408 9.39639
      vertex 3 -13.3248 9.6943
      vertex 3 -13.8408 9.39639
    endloop
  endfacet
  facet normal 0 -0.309016 0.951057
    outer loop
      vertex 3 -13.8408 9.39639
      vertex 8 -14.4075 9.21228
      vertex 8 -13.8408 9.39639
    endloop
  endfacet
  facet normal 0 -0.309016 0.951057
    outer loop
      vertex 8 -14.4075 9.21228
      vertex 3 -13.8408 9.39639
      vertex 3 -14.4075 9.21228
    endloop
  endfacet
  facet normal 0 -0.669131 0.743144
    outer loop
      vertex 3 -12.882 10.093
      vertex 8 -13.3248 9.6943
      vertex 8 -12.882 10.093
    endloop
  endfacet
  facet normal 0 -0.669131 0.743144
    outer loop
      vertex 8 -13.3248 9.6943
      vertex 3 -12.882 10.093
      vertex 3 -13.3248 9.6943
    endloop
  endfacet
  facet normal 0 -1 0
    outer loop
      vertex 3 -12.1656 11.7021
      vertex 8 -12.1656 12.2979
      vertex 3 -12.1656 12.2979
    endloop
  endfacet
  facet normal 0 -1 -0
    outer loop
      vertex 8 -12.1656 12.2979
      vertex 3 -12.1656 11.7021
      vertex 8 -12.1656 11.7021
    endloop
  endfacet
  facet normal 0 0.104529 -0.994522
    outer loop
      vertex 3 -15.5925 14.7877
      vertex 8 -15 14.85
      vertex 8 -15.5925 14.7877
    endloop
  endfacet
  facet normal 0 0.104529 -0.994522
    outer loop
      vertex 8 -15 14.85
      vertex 3 -15.5925 14.7877
      vertex 3 -15 14.85
    endloop
  endfacet
  facet normal 0 -0.5 -0.866025
    outer loop
      vertex 3 -13.8408 14.6036
      vertex 8 -13.3248 14.3057
      vertex 8 -13.8408 14.6036
    endloop
  endfacet
  facet normal -0 -0.5 -0.866025
    outer loop
      vertex 8 -13.3248 14.3057
      vertex 3 -13.8408 14.6036
      vertex 3 -13.3248 14.3057
    endloop
  endfacet
  facet normal 0 -0.809017 -0.587786
    outer loop
      vertex 3 -12.5318 13.425
      vertex 8 -12.882 13.907
      vertex 3 -12.882 13.907
    endloop
  endfacet
  facet normal 0 -0.809017 -0.587786
    outer loop
      vertex 8 -12.882 13.907
      vertex 3 -12.5318 13.425
      vertex 8 -12.5318 13.425
    endloop
  endfacet
  facet normal 0 -0.978148 -0.207912
    outer loop
      vertex 3 -12.1656 12.2979
      vertex 8 -12.2895 12.8807
      vertex 3 -12.2895 12.8807
    endloop
  endfacet
  facet normal 0 -0.978148 -0.207912
    outer loop
      vertex 8 -12.2895 12.8807
      vertex 3 -12.1656 12.2979
      vertex 8 -12.1656 12.2979
    endloop
  endfacet
  facet normal 0 -0.669131 -0.743144
    outer loop
      vertex 3 -13.3248 14.3057
      vertex 8 -12.882 13.907
      vertex 8 -13.3248 14.3057
    endloop
  endfacet
  facet normal -0 -0.669131 -0.743144
    outer loop
      vertex 8 -12.882 13.907
      vertex 3 -13.3248 14.3057
      vertex 3 -12.882 13.907
    endloop
  endfacet
  facet normal 0 -0.104529 0.994522
    outer loop
      vertex 3 -14.4075 9.21228
      vertex 8 -15 9.15
      vertex 8 -14.4075 9.21228
    endloop
  endfacet
  facet normal 0 -0.104529 0.994522
    outer loop
      vertex 8 -15 9.15
      vertex 3 -14.4075 9.21228
      vertex 3 -15 9.15
    endloop
  endfacet
  facet normal 0 0.978147 0.207915
    outer loop
      vertex 8 -17.7105 11.1193
      vertex 3 -17.8344 11.7021
      vertex 8 -17.8344 11.7021
    endloop
  endfacet
  facet normal 0 0.978147 0.207915
    outer loop
      vertex 3 -17.8344 11.7021
      vertex 8 -17.7105 11.1193
      vertex 3 -17.7105 11.1193
    endloop
  endfacet
  facet normal -0 0.499999 0.866026
    outer loop
      vertex 3 -16.1592 9.39639
      vertex 8 -16.6752 9.6943
      vertex 8 -16.1592 9.39639
    endloop
  endfacet
  facet normal 0 0.499999 0.866026
    outer loop
      vertex 8 -16.6752 9.6943
      vertex 3 -16.1592 9.39639
      vertex 3 -16.6752 9.6943
    endloop
  endfacet
  facet normal -0 0.309016 0.951057
    outer loop
      vertex 3 -15.5925 9.21228
      vertex 8 -16.1592 9.39639
      vertex 8 -15.5925 9.21228
    endloop
  endfacet
  facet normal 0 0.309016 0.951057
    outer loop
      vertex 8 -16.1592 9.39639
      vertex 3 -15.5925 9.21228
      vertex 3 -16.1592 9.39639
    endloop
  endfacet
  facet normal 0 0.913547 0.406734
    outer loop
      vertex 8 -17.4682 10.575
      vertex 3 -17.7105 11.1193
      vertex 8 -17.7105 11.1193
    endloop
  endfacet
  facet normal 0 0.913547 0.406734
    outer loop
      vertex 3 -17.7105 11.1193
      vertex 8 -17.4682 10.575
      vertex 3 -17.4682 10.575
    endloop
  endfacet
  facet normal 0 0.809015 0.587788
    outer loop
      vertex 8 -17.118 10.093
      vertex 3 -17.4682 10.575
      vertex 8 -17.4682 10.575
    endloop
  endfacet
  facet normal 0 0.809015 0.587788
    outer loop
      vertex 3 -17.4682 10.575
      vertex 8 -17.118 10.093
      vertex 3 -17.118 10.093
    endloop
  endfacet
  facet normal 0 0.913547 -0.406734
    outer loop
      vertex 8 -17.7105 12.8807
      vertex 3 -17.4682 13.425
      vertex 8 -17.4682 13.425
    endloop
  endfacet
  facet normal 0 0.913547 -0.406734
    outer loop
      vertex 3 -17.4682 13.425
      vertex 8 -17.7105 12.8807
      vertex 3 -17.7105 12.8807
    endloop
  endfacet
  facet normal 0 0.669132 -0.743144
    outer loop
      vertex 3 -17.118 13.907
      vertex 8 -16.6752 14.3057
      vertex 8 -17.118 13.907
    endloop
  endfacet
  facet normal 0 0.669132 -0.743144
    outer loop
      vertex 8 -16.6752 14.3057
      vertex 3 -17.118 13.907
      vertex 3 -16.6752 14.3057
    endloop
  endfacet
  facet normal 0 0.309016 -0.951057
    outer loop
      vertex 3 -16.1592 14.6036
      vertex 8 -15.5925 14.7877
      vertex 8 -16.1592 14.6036
    endloop
  endfacet
  facet normal 0 0.309016 -0.951057
    outer loop
      vertex 8 -15.5925 14.7877
      vertex 3 -16.1592 14.6036
      vertex 3 -15.5925 14.7877
    endloop
  endfacet
  facet normal 0 0.809015 -0.587788
    outer loop
      vertex 8 -17.4682 13.425
      vertex 3 -17.118 13.907
      vertex 8 -17.118 13.907
    endloop
  endfacet
  facet normal 0 0.809015 -0.587788
    outer loop
      vertex 3 -17.118 13.907
      vertex 8 -17.4682 13.425
      vertex 3 -17.4682 13.425
    endloop
  endfacet
  facet normal 0 -0.809017 0.587786
    outer loop
      vertex 3 -12.882 10.093
      vertex 8 -12.5318 10.575
      vertex 3 -12.5318 10.575
    endloop
  endfacet
  facet normal 0 -0.809017 0.587786
    outer loop
      vertex 8 -12.5318 10.575
      vertex 3 -12.882 10.093
      vertex 8 -12.882 10.093
    endloop
  endfacet
  facet normal 0 -0.978148 0.207912
    outer loop
      vertex 3 -12.2895 11.1193
      vertex 8 -12.1656 11.7021
      vertex 3 -12.1656 11.7021
    endloop
  endfacet
  facet normal 0 -0.978148 0.207912
    outer loop
      vertex 8 -12.1656 11.7021
      vertex 3 -12.2895 11.1193
      vertex 8 -12.2895 11.1193
    endloop
  endfacet
  facet normal 0 -0.104529 -0.994522
    outer loop
      vertex 3 -15 14.85
      vertex 8 -14.4075 14.7877
      vertex 8 -15 14.85
    endloop
  endfacet
  facet normal -0 -0.104529 -0.994522
    outer loop
      vertex 8 -14.4075 14.7877
      vertex 3 -15 14.85
      vertex 3 -14.4075 14.7877
    endloop
  endfacet
  facet normal 0 -0.104529 0.994522
    outer loop
      vertex 37 -14.4075 9.21228
      vertex 42 -15 9.15
      vertex 42 -14.4075 9.21228
    endloop
  endfacet
  facet normal 0 -0.104529 0.994522
    outer loop
      vertex 42 -15 9.15
      vertex 37 -14.4075 9.21228
      vertex 37 -15 9.15
    endloop
  endfacet
  facet normal 0 0.104529 -0.994522
    outer loop
      vertex 37 -15.5925 14.7877
      vertex 42 -15 14.85
      vertex 42 -15.5925 14.7877
    endloop
  endfacet
  facet normal 0 0.104529 -0.994522
    outer loop
      vertex 42 -15 14.85
      vertex 37 -15.5925 14.7877
      vertex 37 -15 14.85
    endloop
  endfacet
  facet normal 0 1 -0
    outer loop
      vertex 42 -17.8344 11.7021
      vertex 37 -17.8344 12.2979
      vertex 42 -17.8344 12.2979
    endloop
  endfacet
  facet normal 0 1 0
    outer loop
      vertex 37 -17.8344 12.2979
      vertex 42 -17.8344 11.7021
      vertex 37 -17.8344 11.7021
    endloop
  endfacet
  facet normal 0 0.809015 -0.587788
    outer loop
      vertex 42 -17.4682 13.425
      vertex 37 -17.118 13.907
      vertex 42 -17.118 13.907
    endloop
  endfacet
  facet normal 0 0.809015 -0.587788
    outer loop
      vertex 37 -17.118 13.907
      vertex 42 -17.4682 13.425
      vertex 37 -17.4682 13.425
    endloop
  endfacet
  facet normal 0 -0.669131 -0.743144
    outer loop
      vertex 37 -13.3248 14.3057
      vertex 42 -12.882 13.907
      vertex 42 -13.3248 14.3057
    endloop
  endfacet
  facet normal -0 -0.669131 -0.743144
    outer loop
      vertex 42 -12.882 13.907
      vertex 37 -13.3248 14.3057
      vertex 37 -12.882 13.907
    endloop
  endfacet
  facet normal 0 -0.913546 -0.406736
    outer loop
      vertex 37 -12.2895 12.8807
      vertex 42 -12.5318 13.425
      vertex 37 -12.5318 13.425
    endloop
  endfacet
  facet normal 0 -0.913546 -0.406736
    outer loop
      vertex 42 -12.5318 13.425
      vertex 37 -12.2895 12.8807
      vertex 42 -12.2895 12.8807
    endloop
  endfacet
  facet normal -0 0.669132 0.743144
    outer loop
      vertex 37 -16.6752 9.6943
      vertex 42 -17.118 10.093
      vertex 42 -16.6752 9.6943
    endloop
  endfacet
  facet normal 0 0.669132 0.743144
    outer loop
      vertex 42 -17.118 10.093
      vertex 37 -16.6752 9.6943
      vertex 37 -17.118 10.093
    endloop
  endfacet
  facet normal -0 0.499999 0.866026
    outer loop
      vertex 37 -16.1592 9.39639
      vertex 42 -16.6752 9.6943
      vertex 42 -16.1592 9.39639
    endloop
  endfacet
  facet normal 0 0.499999 0.866026
    outer loop
      vertex 42 -16.6752 9.6943
      vertex 37 -16.1592 9.39639
      vertex 37 -16.6752 9.6943
    endloop
  endfacet
  facet normal 0 0.499999 -0.866026
    outer loop
      vertex 37 -16.6752 14.3057
      vertex 42 -16.1592 14.6036
      vertex 42 -16.6752 14.3057
    endloop
  endfacet
  facet normal 0 0.499999 -0.866026
    outer loop
      vertex 42 -16.1592 14.6036
      vertex 37 -16.6752 14.3057
      vertex 37 -16.1592 14.6036
    endloop
  endfacet
  facet normal 0 -0.309016 0.951057
    outer loop
      vertex 37 -13.8408 9.39639
      vertex 42 -14.4075 9.21228
      vertex 42 -13.8408 9.39639
    endloop
  endfacet
  facet normal 0 -0.309016 0.951057
    outer loop
      vertex 42 -14.4075 9.21228
      vertex 37 -13.8408 9.39639
      vertex 37 -14.4075 9.21228
    endloop
  endfacet
  facet normal 0 -0.669131 0.743144
    outer loop
      vertex 37 -12.882 10.093
      vertex 42 -13.3248 9.6943
      vertex 42 -12.882 10.093
    endloop
  endfacet
  facet normal 0 -0.669131 0.743144
    outer loop
      vertex 42 -13.3248 9.6943
      vertex 37 -12.882 10.093
      vertex 37 -13.3248 9.6943
    endloop
  endfacet
  facet normal 0 -1 0
    outer loop
      vertex 37 -12.1656 11.7021
      vertex 42 -12.1656 12.2979
      vertex 37 -12.1656 12.2979
    endloop
  endfacet
  facet normal 0 -1 -0
    outer loop
      vertex 42 -12.1656 12.2979
      vertex 37 -12.1656 11.7021
      vertex 42 -12.1656 11.7021
    endloop
  endfacet
  facet normal 0 -0.913546 0.406736
    outer loop
      vertex 37 -12.5318 10.575
      vertex 42 -12.2895 11.1193
      vertex 37 -12.2895 11.1193
    endloop
  endfacet
  facet normal 0 -0.913546 0.406736
    outer loop
      vertex 42 -12.2895 11.1193
      vertex 37 -12.5318 10.575
      vertex 42 -12.5318 10.575
    endloop
  endfacet
  facet normal 0 -0.309016 -0.951057
    outer loop
      vertex 37 -14.4075 14.7877
      vertex 42 -13.8408 14.6036
      vertex 42 -14.4075 14.7877
    endloop
  endfacet
  facet normal -0 -0.309016 -0.951057
    outer loop
      vertex 42 -13.8408 14.6036
      vertex 37 -14.4075 14.7877
      vertex 37 -13.8408 14.6036
    endloop
  endfacet
  facet normal 0 -0.5 -0.866025
    outer loop
      vertex 37 -13.8408 14.6036
      vertex 42 -13.3248 14.3057
      vertex 42 -13.8408 14.6036
    endloop
  endfacet
  facet normal -0 -0.5 -0.866025
    outer loop
      vertex 42 -13.3248 14.3057
      vertex 37 -13.8408 14.6036
      vertex 37 -13.3248 14.3057
    endloop
  endfacet
  facet normal 0 -0.104529 -0.994522
    outer loop
      vertex 37 -15 14.85
      vertex 42 -14.4075 14.7877
      vertex 42 -15 14.85
    endloop
  endfacet
  facet normal -0 -0.104529 -0.994522
    outer loop
      vertex 42 -14.4075 14.7877
      vertex 37 -15 14.85
      vertex 37 -14.4075 14.7877
    endloop
  endfacet
  facet normal 0 -0.809017 -0.587786
    outer loop
      vertex 37 -12.5318 13.425
      vertex 42 -12.882 13.907
      vertex 37 -12.882 13.907
    endloop
  endfacet
  facet normal 0 -0.809017 -0.587786
    outer loop
      vertex 42 -12.882 13.907
      vertex 37 -12.5318 13.425
      vertex 42 -12.5318 13.425
    endloop
  endfacet
  facet normal 0 -0.978148 -0.207912
    outer loop
      vertex 37 -12.1656 12.2979
      vertex 42 -12.2895 12.8807
      vertex 37 -12.2895 12.8807
    endloop
  endfacet
  facet normal 0 -0.978148 -0.207912
    outer loop
      vertex 42 -12.2895 12.8807
      vertex 37 -12.1656 12.2979
      vertex 42 -12.1656 12.2979
    endloop
  endfacet
  facet normal 0 0.978147 0.207915
    outer loop
      vertex 42 -17.7105 11.1193
      vertex 37 -17.8344 11.7021
      vertex 42 -17.8344 11.7021
    endloop
  endfacet
  facet normal 0 0.978147 0.207915
    outer loop
      vertex 37 -17.8344 11.7021
      vertex 42 -17.7105 11.1193
      vertex 37 -17.7105 11.1193
    endloop
  endfacet
  facet normal 0 0.809015 0.587788
    outer loop
      vertex 42 -17.118 10.093
      vertex 37 -17.4682 10.575
      vertex 42 -17.4682 10.575
    endloop
  endfacet
  facet normal 0 0.809015 0.587788
    outer loop
      vertex 37 -17.4682 10.575
      vertex 42 -17.118 10.093
      vertex 37 -17.118 10.093
    endloop
  endfacet
  facet normal 0 0.913547 -0.406734
    outer loop
      vertex 42 -17.7105 12.8807
      vertex 37 -17.4682 13.425
      vertex 42 -17.4682 13.425
    endloop
  endfacet
  facet normal 0 0.913547 -0.406734
    outer loop
      vertex 37 -17.4682 13.425
      vertex 42 -17.7105 12.8807
      vertex 37 -17.7105 12.8807
    endloop
  endfacet
  facet normal 0 0.978147 -0.207915
    outer loop
      vertex 42 -17.8344 12.2979
      vertex 37 -17.7105 12.8807
      vertex 42 -17.7105 12.8807
    endloop
  endfacet
  facet normal 0 0.978147 -0.207915
    outer loop
      vertex 37 -17.7105 12.8807
      vertex 42 -17.8344 12.2979
      vertex 37 -17.8344 12.2979
    endloop
  endfacet
  facet normal 0 0.669132 -0.743144
    outer loop
      vertex 37 -17.118 13.907
      vertex 42 -16.6752 14.3057
      vertex 42 -17.118 13.907
    endloop
  endfacet
  facet normal 0 0.669132 -0.743144
    outer loop
      vertex 42 -16.6752 14.3057
      vertex 37 -17.118 13.907
      vertex 37 -16.6752 14.3057
    endloop
  endfacet
  facet normal 0 0.309016 -0.951057
    outer loop
      vertex 37 -16.1592 14.6036
      vertex 42 -15.5925 14.7877
      vertex 42 -16.1592 14.6036
    endloop
  endfacet
  facet normal 0 0.309016 -0.951057
    outer loop
      vertex 42 -15.5925 14.7877
      vertex 37 -16.1592 14.6036
      vertex 37 -15.5925 14.7877
    endloop
  endfacet
  facet normal 0 -0.5 0.866025
    outer loop
      vertex 37 -13.3248 9.6943
      vertex 42 -13.8408 9.39639
      vertex 42 -13.3248 9.6943
    endloop
  endfacet
  facet normal 0 -0.5 0.866025
    outer loop
      vertex 42 -13.8408 9.39639
      vertex 37 -13.3248 9.6943
      vertex 37 -13.8408 9.39639
    endloop
  endfacet
  facet normal 0 -0.809017 0.587786
    outer loop
      vertex 37 -12.882 10.093
      vertex 42 -12.5318 10.575
      vertex 37 -12.5318 10.575
    endloop
  endfacet
  facet normal 0 -0.809017 0.587786
    outer loop
      vertex 42 -12.5318 10.575
      vertex 37 -12.882 10.093
      vertex 42 -12.882 10.093
    endloop
  endfacet
  facet normal 0 -0.978148 0.207912
    outer loop
      vertex 37 -12.2895 11.1193
      vertex 42 -12.1656 11.7021
      vertex 37 -12.1656 11.7021
    endloop
  endfacet
  facet normal 0 -0.978148 0.207912
    outer loop
      vertex 42 -12.1656 11.7021
      vertex 37 -12.2895 11.1193
      vertex 42 -12.2895 11.1193
    endloop
  endfacet
  facet normal 0 0.913547 0.406734
    outer loop
      vertex 42 -17.4682 10.575
      vertex 37 -17.7105 11.1193
      vertex 42 -17.7105 11.1193
    endloop
  endfacet
  facet normal 0 0.913547 0.406734
    outer loop
      vertex 37 -17.7105 11.1193
      vertex 42 -17.4682 10.575
      vertex 37 -17.4682 10.575
    endloop
  endfacet
  facet normal -0 0.309016 0.951057
    outer loop
      vertex 37 -15.5925 9.21228
      vertex 42 -16.1592 9.39639
      vertex 42 -15.5925 9.21228
    endloop
  endfacet
  facet normal 0 0.309016 0.951057
    outer loop
      vertex 42 -16.1592 9.39639
      vertex 37 -15.5925 9.21228
      vertex 37 -16.1592 9.39639
    endloop
  endfacet
  facet normal -0 0.104529 0.994522
    outer loop
      vertex 37 -15 9.15
      vertex 42 -15.5925 9.21228
      vertex 42 -15 9.15
    endloop
  endfacet
  facet normal 0 0.104529 0.994522
    outer loop
      vertex 42 -15.5925 9.21228
      vertex 37 -15 9.15
      vertex 37 -15.5925 9.21228
    endloop
  endfacet
endsolid OpenSCAD_Model
