  0
SECTION
  2
HEADER
  9
$ACADVER
  1
AC1014
  9
$HANDSEED
  5
FFFF
  9
$MEASUREMENT
 70
     1
  0
ENDSEC
  0
SECTION
  2
TABLES
  0
TABLE
  2
VPORT
  5
8
330
0
100
AcDbSymbolTable
 70
     4
  0
VPORT
  5
2E
330
8
100
AcDbSymbolTableRecord
100
AcDbViewportTableRecord
  2
*ACTIVE
 70
     0
 10
0.0
 20
0.0
 11
1.0
 21
1.0
 12
210.0
 22
148.5
 13
0.0
 23
0.0
 14
10.0
 24
10.0
 15
10.0
 25
10.0
 16
0.0
 26
0.0
 36
1.0
 17
0.0
 27
0.0
 37
0.0
 40
341.0
 41
1.24
 42
50.0
 43
0.0
 44
0.0
 50
0.0
 51
0.0
 71
     0
 72
   100
 73
     1
 74
     3
 75
     0
 76
     0
 77
     0
 78
     0
  0
ENDTAB
  0
TABLE
  2
LTYPE
  5
5
330
0
100
AcDbSymbolTable
 70
     1
  0
LTYPE
  5
14
330
5
100
AcDbSymbolTableRecord
100
AcDbLinetypeTableRecord
  2
BYBLOCK
 70
     0
  3

 72
    65
 73
     0
 40
0.0
  0
LTYPE
  5
15
330
5
100
AcDbSymbolTableRecord
100
AcDbLinetypeTableRecord
  2
BYLAYER
 70
     0
  3

 72
    65
 73
     0
 40
0.0
  0
LTYPE
  5
16
330
5
100
AcDbSymbolTableRecord
100
AcDbLinetypeTableRecord
  2
CONTINUOUS
 70
     0
  3
Solid line
 72
    65
 73
     0
 40
0.0
  0
ENDTAB
  0
TABLE
  2
LAYER
  5
2
100
AcDbSymbolTable
 70
2
  0
LAYER
  5
50
100
AcDbSymbolTableRecord
100
AcDbLayerTableRecord
  2
0
 70
0
  6
CONTINUOUS
  0
LAYER
  5
51
100
AcDbSymbolTableRecord
100
AcDbLayerTableRecord
  2
Layer_1
 70
0
  6
CONTINUOUS
  0
ENDTAB
  0
TABLE
  2
STYLE
  5
3
330
0
100
AcDbSymbolTable
 70
     1
  0
STYLE
  5
11
330
3
100
AcDbSymbolTableRecord
100
AcDbTextStyleTableRecord
  2
STANDARD
 70
     0
 40
0.0
 41
1.0
 50
0.0
 71
     0
 42
2.5
  3
txt
  4

  0
ENDTAB
  0
TABLE
  2
VIEW
  5
6
330
0
100
AcDbSymbolTable
 70
     0
  0
ENDTAB
  0
TABLE
  2
UCS
  5
7
330
0
100
AcDbSymbolTable
 70
     0
  0
ENDTAB
  0
TABLE
  2
APPID
  5
9
330
0
100
AcDbSymbolTable
 70
     2
  0
APPID
  5
12
330
9
100
AcDbSymbolTableRecord
100
AcDbRegAppTableRecord
  2
ACAD
 70
     0
  0
ENDTAB
  0
TABLE
  2
DIMSTYLE
  5
A
330
0
100
AcDbSymbolTable
 70
     1
  0
DIMSTYLE
105
27
330
A
100
AcDbSymbolTableRecord
100
AcDbDimStyleTableRecord
  2
ISO-25
 70
     0
  3

  4

  5

  6

  7

 40
1.0
 41
2.5
 42
0.625
 43
3.75
 44
1.25
 45
0.0
 46
0.0
 47
0.0
 48
0.0
140
2.5
141
2.5
142
0.0
143
0.03937007874016
144
1.0
145
0.0
146
1.0
147
0.625
 71
     0
 72
     0
 73
     0
 74
     0
 75
     0
 76
     0
 77
     1
 78
     8
170
     0
171
     3
172
     1
173
     0
174
     0
175
     0
176
     0
177
     0
178
     0
270
     2
271
     2
272
     2
273
     2
274
     3
340
11
275
     0
280
     0
281
     0
282
     0
283
     0
284
     8
285
     0
286
     0
287
     3
288
     0
  0
ENDTAB
  0
TABLE
  2
BLOCK_RECORD
  5
1
330
0
100
AcDbSymbolTable
 70
     1
  0
BLOCK_RECORD
  5
1F
330
1
100
AcDbSymbolTableRecord
100
AcDbBlockTableRecord
  2
*MODEL_SPACE
  0
BLOCK_RECORD
  5
1B
330
1
100
AcDbSymbolTableRecord
100
AcDbBlockTableRecord
  2
*PAPER_SPACE
  0
ENDTAB
  0
ENDSEC
  0
SECTION
  2
BLOCKS
  0
BLOCK
  5
20
330
1F
100
AcDbEntity
  8
0
100
AcDbBlockBegin
  2
*MODEL_SPACE
 70
     0
 10
0.0
 20
0.0
 30
0.0
  3
*MODEL_SPACE
  1

  0
ENDBLK
  5
21
330
1F
100
AcDbEntity
  8
0
100
AcDbBlockEnd
  0
BLOCK
  5
1C
330
1B
100
AcDbEntity
 67
     1
  8
0
100
AcDbBlockBegin
  2
*PAPER_SPACE
  1

  0
ENDBLK
  5
1D
330
1B
100
AcDbEntity
 67
     1
  8
0
100
AcDbBlockEnd
  0
ENDSEC
  0
SECTION
  2
ENTITIES
  0
LWPOLYLINE
  5
100
100
AcDbEntity
  8
Layer_1
 62
5
100
AcDbPolyline
 90
4
 70
0
 10
0.132292
 20
60.144619
 30
0.0
 10
0.132292
 20
0.132288
 30
0.0
 10
598.935493
 20
0.132288
 30
0.0
 10
598.935493
 20
60.144619
 30
0.0
  0
LWPOLYLINE
  5
101
100
AcDbEntity
  8
Layer_1
 62
5
100
AcDbPolyline
 90
31
 70
1
 10
489.359152
 20
18.280297
 30
0.0
 10
489.788147
 20
18.189598
 30
0.0
 10
490.188938
 20
18.012803
 30
0.0
 10
490.543850
 20
17.756686
 30
0.0
 10
490.837352
 20
17.433313
 30
0.0
 10
491.056745
 20
17.056281
 30
0.0
 10
491.192344
 20
16.642103
 30
0.0
 10
491.238328
 20
16.209112
 30
0.0
 10
491.192344
 20
15.776121
 30
0.0
 10
491.056745
 20
15.362022
 30
0.0
 10
490.837352
 20
14.985017
 30
0.0
 10
490.543850
 20
14.661643
 30
0.0
 10
490.188938
 20
14.405527
 30
0.0
 10
489.788147
 20
14.228706
 30
0.0
 10
489.359152
 20
14.138006
 30
0.0
 10
488.920552
 20
14.138006
 30
0.0
 10
488.491451
 20
14.228706
 30
0.0
 10
488.090633
 20
14.405527
 30
0.0
 10
487.735748
 20
14.661643
 30
0.0
 10
487.442245
 20
14.985017
 30
0.0
 10
487.222853
 20
15.362022
 30
0.0
 10
487.087254
 20
15.776121
 30
0.0
 10
487.041243
 20
16.209112
 30
0.0
 10
487.087254
 20
16.642103
 30
0.0
 10
487.222853
 20
17.056281
 30
0.0
 10
487.442245
 20
17.433313
 30
0.0
 10
487.735748
 20
17.756686
 30
0.0
 10
488.090633
 20
18.012803
 30
0.0
 10
488.491451
 20
18.189598
 30
0.0
 10
488.920552
 20
18.280297
 30
0.0
 10
489.359152
 20
18.280297
 30
0.0
  0
LWPOLYLINE
  5
102
100
AcDbEntity
  8
Layer_1
 62
5
100
AcDbPolyline
 90
31
 70
1
 10
540.116951
 20
18.280297
 30
0.0
 10
540.545946
 20
18.189598
 30
0.0
 10
540.946737
 20
18.012803
 30
0.0
 10
541.301755
 20
17.756686
 30
0.0
 10
541.595151
 20
17.433313
 30
0.0
 10
541.814544
 20
17.056281
 30
0.0
 10
541.950143
 20
16.642103
 30
0.0
 10
541.996154
 20
16.209112
 30
0.0
 10
541.950143
 20
15.776121
 30
0.0
 10
541.814544
 20
15.362022
 30
0.0
 10
541.595151
 20
14.985017
 30
0.0
 10
541.301755
 20
14.661643
 30
0.0
 10
540.946737
 20
14.405527
 30
0.0
 10
540.545946
 20
14.228706
 30
0.0
 10
540.116951
 20
14.138006
 30
0.0
 10
539.678245
 20
14.138006
 30
0.0
 10
539.249250
 20
14.228706
 30
0.0
 10
538.848432
 20
14.405527
 30
0.0
 10
538.493441
 20
14.661643
 30
0.0
 10
538.200044
 20
14.985017
 30
0.0
 10
537.980652
 20
15.362022
 30
0.0
 10
537.845053
 20
15.776121
 30
0.0
 10
537.799042
 20
16.209112
 30
0.0
 10
537.845053
 20
16.642103
 30
0.0
 10
537.980652
 20
17.056281
 30
0.0
 10
538.200044
 20
17.433313
 30
0.0
 10
538.493441
 20
17.756686
 30
0.0
 10
538.848432
 20
18.012803
 30
0.0
 10
539.249250
 20
18.189598
 30
0.0
 10
539.678245
 20
18.280297
 30
0.0
 10
540.116951
 20
18.280297
 30
0.0
  0
LWPOLYLINE
  5
103
100
AcDbEntity
  8
Layer_1
 62
5
100
AcDbPolyline
 90
5
 70
1
 10
544.893447
 20
39.813208
 30
0.0
 10
544.893447
 20
18.985967
 30
0.0
 10
486.941654
 20
18.985967
 30
0.0
 10
486.941654
 20
39.813208
 30
0.0
 10
544.893447
 20
39.813208
 30
0.0
  0
LWPOLYLINE
  5
104
100
AcDbEntity
  8
Layer_1
 62
5
100
AcDbPolyline
 90
31
 70
1
 10
487.960247
 20
45.355757
 30
0.0
 10
488.389348
 20
45.265058
 30
0.0
 10
488.790139
 20
45.088269
 30
0.0
 10
489.145051
 20
44.832139
 30
0.0
 10
489.438553
 20
44.508779
 30
0.0
 10
489.657946
 20
44.131768
 30
0.0
 10
489.793439
 20
43.717619
 30
0.0
 10
489.839450
 20
43.284588
 30
0.0
 10
489.793439
 20
42.851558
 30
0.0
 10
489.657946
 20
42.437517
 30
0.0
 10
489.438553
 20
42.060507
 30
0.0
 10
489.145051
 20
41.737146
 30
0.0
 10
488.790139
 20
41.481019
 30
0.0
 10
488.389348
 20
41.303849
 30
0.0
 10
487.960247
 20
41.213147
 30
0.0
 10
487.521647
 20
41.213147
 30
0.0
 10
487.092651
 20
41.303849
 30
0.0
 10
486.691834
 20
41.481019
 30
0.0
 10
486.336843
 20
41.737146
 30
0.0
 10
486.043446
 20
42.060507
 30
0.0
 10
485.824054
 20
42.437517
 30
0.0
 10
485.688455
 20
42.851558
 30
0.0
 10
485.642444
 20
43.284588
 30
0.0
 10
485.688455
 20
43.717619
 30
0.0
 10
485.824054
 20
44.131768
 30
0.0
 10
486.043446
 20
44.508779
 30
0.0
 10
486.336843
 20
44.832139
 30
0.0
 10
486.691834
 20
45.088269
 30
0.0
 10
487.092651
 20
45.265058
 30
0.0
 10
487.521647
 20
45.355757
 30
0.0
 10
487.960247
 20
45.355757
 30
0.0
  0
LWPOLYLINE
  5
105
100
AcDbEntity
  8
Layer_1
 62
5
100
AcDbPolyline
 90
31
 70
1
 10
540.116951
 20
46.347508
 30
0.0
 10
540.545946
 20
46.257209
 30
0.0
 10
540.946737
 20
46.080417
 30
0.0
 10
541.301755
 20
45.824287
 30
0.0
 10
541.595151
 20
45.500918
 30
0.0
 10
541.814544
 20
45.123908
 30
0.0
 10
541.950143
 20
44.709727
 30
0.0
 10
541.996154
 20
44.276697
 30
0.0
 10
541.950143
 20
43.843698
 30
0.0
 10
541.814544
 20
43.429628
 30
0.0
 10
541.595151
 20
43.052618
 30
0.0
 10
541.301755
 20
42.729249
 30
0.0
 10
540.946737
 20
42.473127
 30
0.0
 10
540.545946
 20
42.295957
 30
0.0
 10
540.116951
 20
42.205657
 30
0.0
 10
539.678245
 20
42.205657
 30
0.0
 10
539.249250
 20
42.295957
 30
0.0
 10
538.848432
 20
42.473127
 30
0.0
 10
538.493441
 20
42.729249
 30
0.0
 10
538.200044
 20
43.052618
 30
0.0
 10
537.980652
 20
43.429628
 30
0.0
 10
537.845053
 20
43.843698
 30
0.0
 10
537.799042
 20
44.276697
 30
0.0
 10
537.845053
 20
44.709727
 30
0.0
 10
537.980652
 20
45.123908
 30
0.0
 10
538.200044
 20
45.500918
 30
0.0
 10
538.493441
 20
45.824287
 30
0.0
 10
538.848432
 20
46.080417
 30
0.0
 10
539.249250
 20
46.257209
 30
0.0
 10
539.678245
 20
46.347508
 30
0.0
 10
540.116951
 20
46.347508
 30
0.0
  0
LWPOLYLINE
  5
106
100
AcDbEntity
  8
Layer_1
 62
5
100
AcDbPolyline
 90
6
 70
1
 10
0.132292
 20
120.411569
 30
0.0
 10
0.132292
 20
60.409300
 30
0.0
 10
598.936339
 20
60.409300
 30
0.0
 10
598.936339
 20
120.411569
 30
0.0
 10
495.215915
 20
120.411569
 30
0.0
 10
0.132292
 20
120.411569
 30
0.0
  0
LWPOLYLINE
  5
107
100
AcDbEntity
  8
Layer_1
 62
5
100
AcDbPolyline
 90
2
 70
0
 10
0.132292
 20
180.846329
 30
0.0
 10
0.132292
 20
120.336322
 30
0.0
  0
LWPOLYLINE
  5
108
100
AcDbEntity
  8
Layer_1
 62
5
100
AcDbPolyline
 90
2
 70
0
 10
500.332288
 20
120.336322
 30
0.0
 10
500.332288
 20
180.846329
 30
0.0
  0
LWPOLYLINE
  5
109
100
AcDbEntity
  8
Layer_1
 62
5
100
AcDbPolyline
 90
12
 70
1
 10
97.132291
 20
122.336334
 30
0.0
 10
97.132291
 20
136.336338
 30
0.0
 10
92.132291
 20
136.336338
 30
0.0
 10
92.132291
 20
157.336330
 30
0.0
 10
97.132291
 20
157.336330
 30
0.0
 10
97.132291
 20
171.336328
 30
0.0
 10
187.132291
 20
171.336328
 30
0.0
 10
187.132291
 20
157.336330
 30
0.0
 10
192.132291
 20
157.336330
 30
0.0
 10
192.132291
 20
136.336338
 30
0.0
 10
187.132291
 20
136.336338
 30
0.0
 10
187.132291
 20
122.336334
 30
0.0
  0
LWPOLYLINE
  5
10a
100
AcDbEntity
  8
Layer_1
 62
5
100
AcDbPolyline
 90
60
 70
1
 10
20.731890
 20
163.318530
 30
0.0
 10
20.454591
 20
163.362430
 30
0.0
 10
20.183390
 20
163.435129
 30
0.0
 10
19.921191
 20
163.535729
 30
0.0
 10
19.671091
 20
163.663229
 30
0.0
 10
19.435591
 20
163.816129
 30
0.0
 10
19.217391
 20
163.992829
 30
0.0
 10
19.018790
 20
164.191427
 30
0.0
 10
18.842090
 20
164.409629
 30
0.0
 10
18.689190
 20
164.645029
 30
0.0
 10
18.561690
 20
164.895230
 30
0.0
 10
18.461090
 20
165.157429
 30
0.0
 10
18.388391
 20
165.428630
 30
0.0
 10
18.344491
 20
165.705929
 30
0.0
 10
18.329780
 20
165.986329
 30
0.0
 10
18.344502
 20
166.266729
 30
0.0
 10
18.388391
 20
166.544028
 30
0.0
 10
18.461090
 20
166.815229
 30
0.0
 10
18.561690
 20
167.077428
 30
0.0
 10
18.689190
 20
167.327528
 30
0.0
 10
18.842090
 20
167.563029
 30
0.0
 10
19.018790
 20
167.781228
 30
0.0
 10
19.217391
 20
167.979830
 30
0.0
 10
19.435591
 20
168.156529
 30
0.0
 10
19.671091
 20
168.309429
 30
0.0
 10
19.921191
 20
168.436929
 30
0.0
 10
20.183390
 20
168.537529
 30
0.0
 10
20.454591
 20
168.610228
 30
0.0
 10
20.731890
 20
168.654128
 30
0.0
 10
21.012290
 20
168.668839
 30
0.0
 10
21.292690
 20
168.654118
 30
0.0
 10
21.569992
 20
168.610228
 30
0.0
 10
21.841190
 20
168.537529
 30
0.0
 10
22.103390
 20
168.436929
 30
0.0
 10
22.353590
 20
168.309429
 30
0.0
 10
22.588990
 20
168.156529
 30
0.0
 10
22.807192
 20
167.979830
 30
0.0
 10
23.005791
 20
167.781228
 30
0.0
 10
23.182490
 20
167.563029
 30
0.0
 10
23.335390
 20
167.327528
 30
0.0
 10
23.462890
 20
167.077428
 30
0.0
 10
23.563490
 20
166.815229
 30
0.0
 10
23.636192
 20
166.544028
 30
0.0
 10
23.680092
 20
166.266729
 30
0.0
 10
23.694803
 20
165.986329
 30
0.0
 10
23.680081
 20
165.705929
 30
0.0
 10
23.636192
 20
165.428630
 30
0.0
 10
23.563490
 20
165.157429
 30
0.0
 10
23.462890
 20
164.895230
 30
0.0
 10
23.335390
 20
164.645029
 30
0.0
 10
23.182490
 20
164.409629
 30
0.0
 10
23.005791
 20
164.191427
 30
0.0
 10
22.807192
 20
163.992829
 30
0.0
 10
22.588990
 20
163.816129
 30
0.0
 10
22.353590
 20
163.663229
 30
0.0
 10
22.103390
 20
163.535729
 30
0.0
 10
21.841190
 20
163.435129
 30
0.0
 10
21.569992
 20
163.362430
 30
0.0
 10
21.292690
 20
163.318530
 30
0.0
 10
21.012290
 20
163.303819
 30
0.0
  0
LWPOLYLINE
  5
10b
100
AcDbEntity
  8
Layer_1
 62
5
100
AcDbPolyline
 90
60
 70
1
 10
35.287990
 20
131.055228
 30
0.0
 10
33.345191
 20
131.362938
 30
0.0
 10
31.445290
 20
131.872023
 30
0.0
 10
29.608891
 20
132.576926
 30
0.0
 10
27.856291
 20
133.469921
 30
0.0
 10
26.206590
 20
134.541219
 30
0.0
 10
24.677992
 20
135.779125
 30
0.0
 10
23.287090
 20
137.170040
 30
0.0
 10
22.049290
 20
138.698617
 30
0.0
 10
20.977990
 20
140.348320
 30
0.0
 10
20.084992
 20
142.100920
 30
0.0
 10
19.379991
 20
143.937340
 30
0.0
 10
18.870890
 20
145.837234
 30
0.0
 10
18.563291
 20
147.780017
 30
0.0
 10
18.460291
 20
149.744328
 30
0.0
 10
18.563291
 20
151.708629
 30
0.0
 10
18.870890
 20
153.651428
 30
0.0
 10
19.379991
 20
155.551329
 30
0.0
 10
20.084992
 20
157.387728
 30
0.0
 10
20.977990
 20
159.140328
 30
0.0
 10
22.049290
 20
160.790029
 30
0.0
 10
23.287090
 20
162.318630
 30
0.0
 10
24.677992
 20
163.709529
 30
0.0
 10
26.206590
 20
164.947329
 30
0.0
 10
27.856291
 20
166.018629
 30
0.0
 10
29.608891
 20
166.911627
 30
0.0
 10
31.445290
 20
167.616528
 30
0.0
 10
33.345191
 20
168.125628
 30
0.0
 10
35.287990
 20
168.433328
 30
0.0
 10
37.252291
 20
168.536328
 30
0.0
 10
39.216592
 20
168.433328
 30
0.0
 10
41.159390
 20
168.125628
 30
0.0
 10
43.059292
 20
167.616528
 30
0.0
 10
44.895691
 20
166.911627
 30
0.0
 10
46.648291
 20
166.018629
 30
0.0
 10
48.297992
 20
164.947329
 30
0.0
 10
49.826590
 20
163.709529
 30
0.0
 10
51.217491
 20
162.318630
 30
0.0
 10
52.455392
 20
160.790029
 30
0.0
 10
53.526592
 20
159.140328
 30
0.0
 10
54.419691
 20
157.387728
 30
0.0
 10
55.124591
 20
155.551329
 30
0.0
 10
55.633691
 20
153.651428
 30
0.0
 10
55.941391
 20
151.708629
 30
0.0
 10
56.044290
 20
149.744328
 30
0.0
 10
55.941391
 20
147.780017
 30
0.0
 10
55.633691
 20
145.837234
 30
0.0
 10
55.124591
 20
143.937340
 30
0.0
 10
54.419691
 20
142.100920
 30
0.0
 10
53.526592
 20
140.348320
 30
0.0
 10
52.455392
 20
138.698617
 30
0.0
 10
51.217491
 20
137.170040
 30
0.0
 10
49.826590
 20
135.779125
 30
0.0
 10
48.297992
 20
134.541219
 30
0.0
 10
46.648291
 20
133.469921
 30
0.0
 10
44.895691
 20
132.576926
 30
0.0
 10
43.059292
 20
131.872023
 30
0.0
 10
41.159390
 20
131.362938
 30
0.0
 10
39.216592
 20
131.055228
 30
0.0
 10
37.252291
 20
130.952331
 30
0.0
  0
LWPOLYLINE
  5
10c
100
AcDbEntity
  8
Layer_1
 62
5
100
AcDbPolyline
 90
60
 70
1
 10
54.141891
 20
162.318529
 30
0.0
 10
53.864592
 20
162.362429
 30
0.0
 10
53.593391
 20
162.435129
 30
0.0
 10
53.331192
 20
162.535728
 30
0.0
 10
53.081092
 20
162.663229
 30
0.0
 10
52.845592
 20
162.816129
 30
0.0
 10
52.627390
 20
162.992828
 30
0.0
 10
52.428791
 20
163.191429
 30
0.0
 10
52.252092
 20
163.409629
 30
0.0
 10
52.099191
 20
163.645028
 30
0.0
 10
51.971691
 20
163.895229
 30
0.0
 10
51.871092
 20
164.157429
 30
0.0
 10
51.798392
 20
164.428629
 30
0.0
 10
51.754490
 20
164.705928
 30
0.0
 10
51.739805
 20
164.986328
 30
0.0
 10
51.754476
 20
165.266729
 30
0.0
 10
51.798392
 20
165.544028
 30
0.0
 10
51.871092
 20
165.815228
 30
0.0
 10
51.971691
 20
166.077428
 30
0.0
 10
52.099191
 20
166.327528
 30
0.0
 10
52.252092
 20
166.563028
 30
0.0
 10
52.428791
 20
166.781227
 30
0.0
 10
52.627390
 20
166.979829
 30
0.0
 10
52.845592
 20
167.156528
 30
0.0
 10
53.081092
 20
167.309428
 30
0.0
 10
53.331192
 20
167.436928
 30
0.0
 10
53.593391
 20
167.537528
 30
0.0
 10
53.864592
 20
167.610228
 30
0.0
 10
54.141891
 20
167.654127
 30
0.0
 10
54.422291
 20
167.668838
 30
0.0
 10
54.702691
 20
167.654117
 30
0.0
 10
54.979991
 20
167.610228
 30
0.0
 10
55.251191
 20
167.537528
 30
0.0
 10
55.513391
 20
167.436928
 30
0.0
 10
55.763591
 20
167.309428
 30
0.0
 10
55.998991
 20
167.156528
 30
0.0
 10
56.217190
 20
166.979829
 30
0.0
 10
56.415792
 20
166.781227
 30
0.0
 10
56.592491
 20
166.563028
 30
0.0
 10
56.745391
 20
166.327528
 30
0.0
 10
56.872891
 20
166.077428
 30
0.0
 10
56.973491
 20
165.815228
 30
0.0
 10
57.046191
 20
165.544028
 30
0.0
 10
57.090090
 20
165.266729
 30
0.0
 10
57.104801
 20
164.986328
 30
0.0
 10
57.090080
 20
164.705928
 30
0.0
 10
57.046191
 20
164.428629
 30
0.0
 10
56.973491
 20
164.157429
 30
0.0
 10
56.872891
 20
163.895229
 30
0.0
 10
56.745391
 20
163.645028
 30
0.0
 10
56.592491
 20
163.409629
 30
0.0
 10
56.415792
 20
163.191429
 30
0.0
 10
56.217190
 20
162.992828
 30
0.0
 10
55.998991
 20
162.816129
 30
0.0
 10
55.763591
 20
162.663229
 30
0.0
 10
55.513391
 20
162.535728
 30
0.0
 10
55.251191
 20
162.435129
 30
0.0
 10
54.979991
 20
162.362429
 30
0.0
 10
54.702691
 20
162.318529
 30
0.0
 10
54.422291
 20
162.303819
 30
0.0
  0
LWPOLYLINE
  5
10d
100
AcDbEntity
  8
Layer_1
 62
5
100
AcDbPolyline
 90
60
 70
1
 10
91.985961
 20
160.944030
 30
0.0
 10
91.841211
 20
160.966916
 30
0.0
 10
91.699671
 20
161.004828
 30
0.0
 10
91.562861
 20
161.057329
 30
0.0
 10
91.432291
 20
161.123928
 30
0.0
 10
91.309401
 20
161.203729
 30
0.0
 10
91.195511
 20
161.295928
 30
0.0
 10
91.091901
 20
161.399528
 30
0.0
 10
90.999681
 20
161.513429
 30
0.0
 10
90.919861
 20
161.636328
 30
0.0
 10
90.853331
 20
161.766929
 30
0.0
 10
90.800821
 20
161.903729
 30
0.0
 10
90.762891
 20
162.045228
 30
0.0
 10
90.739970
 20
162.190029
 30
0.0
 10
90.732300
 20
162.336328
 30
0.0
 10
90.739971
 20
162.482629
 30
0.0
 10
90.762892
 20
162.627428
 30
0.0
 10
90.800821
 20
162.768930
 30
0.0
 10
90.853331
 20
162.905730
 30
0.0
 10
90.919861
 20
163.036328
 30
0.0
 10
90.999681
 20
163.159230
 30
0.0
 10
91.091901
 20
163.273128
 30
0.0
 10
91.195511
 20
163.376728
 30
0.0
 10
91.309401
 20
163.468930
 30
0.0
 10
91.432291
 20
163.548728
 30
0.0
 10
91.562861
 20
163.615329
 30
0.0
 10
91.699671
 20
163.667828
 30
0.0
 10
91.841211
 20
163.705729
 30
0.0
 10
91.985961
 20
163.728616
 30
0.0
 10
92.132291
 20
163.736328
 30
0.0
 10
92.278641
 20
163.728629
 30
0.0
 10
92.423371
 20
163.705742
 30
0.0
 10
92.564921
 20
163.667828
 30
0.0
 10
92.701731
 20
163.615329
 30
0.0
 10
92.832301
 20
163.548728
 30
0.0
 10
92.955201
 20
163.468930
 30
0.0
 10
93.069071
 20
163.376728
 30
0.0
 10
93.172701
 20
163.273128
 30
0.0
 10
93.264921
 20
163.159230
 30
0.0
 10
93.344741
 20
163.036328
 30
0.0
 10
93.411271
 20
162.905730
 30
0.0
 10
93.463771
 20
162.768930
 30
0.0
 10
93.501711
 20
162.627428
 30
0.0
 10
93.524621
 20
162.482629
 30
0.0
 10
93.532302
 20
162.336328
 30
0.0
 10
93.524620
 20
162.190029
 30
0.0
 10
93.501711
 20
162.045228
 30
0.0
 10
93.463771
 20
161.903729
 30
0.0
 10
93.411271
 20
161.766929
 30
0.0
 10
93.344741
 20
161.636328
 30
0.0
 10
93.264921
 20
161.513429
 30
0.0
 10
93.172701
 20
161.399528
 30
0.0
 10
93.069071
 20
161.295928
 30
0.0
 10
92.955201
 20
161.203729
 30
0.0
 10
92.832301
 20
161.123928
 30
0.0
 10
92.701731
 20
161.057329
 30
0.0
 10
92.564921
 20
161.004828
 30
0.0
 10
92.423371
 20
160.966929
 30
0.0
 10
92.278641
 20
160.944043
 30
0.0
 10
92.132291
 20
160.936330
 30
0.0
  0
LWPOLYLINE
  5
10e
100
AcDbEntity
  8
Layer_1
 62
5
100
AcDbPolyline
 90
60
 70
1
 10
191.985990
 20
160.944030
 30
0.0
 10
191.841191
 20
160.966916
 30
0.0
 10
191.699690
 20
161.004828
 30
0.0
 10
191.562889
 20
161.057329
 30
0.0
 10
191.432291
 20
161.123928
 30
0.0
 10
191.309392
 20
161.203729
 30
0.0
 10
191.195492
 20
161.295928
 30
0.0
 10
191.091891
 20
161.399528
 30
0.0
 10
190.999689
 20
161.513429
 30
0.0
 10
190.919891
 20
161.636328
 30
0.0
 10
190.853290
 20
161.766929
 30
0.0
 10
190.800792
 20
161.903729
 30
0.0
 10
190.762890
 20
162.045228
 30
0.0
 10
190.740004
 20
162.190029
 30
0.0
 10
190.732291
 20
162.336328
 30
0.0
 10
190.739990
 20
162.482629
 30
0.0
 10
190.762877
 20
162.627428
 30
0.0
 10
190.800792
 20
162.768930
 30
0.0
 10
190.853290
 20
162.905730
 30
0.0
 10
190.919891
 20
163.036328
 30
0.0
 10
190.999689
 20
163.159230
 30
0.0
 10
191.091891
 20
163.273128
 30
0.0
 10
191.195492
 20
163.376728
 30
0.0
 10
191.309392
 20
163.468930
 30
0.0
 10
191.432291
 20
163.548728
 30
0.0
 10
191.562889
 20
163.615329
 30
0.0
 10
191.699690
 20
163.667828
 30
0.0
 10
191.841191
 20
163.705729
 30
0.0
 10
191.985990
 20
163.728616
 30
0.0
 10
192.132291
 20
163.736328
 30
0.0
 10
192.278590
 20
163.728629
 30
0.0
 10
192.423391
 20
163.705742
 30
0.0
 10
192.564890
 20
163.667828
 30
0.0
 10
192.701691
 20
163.615329
 30
0.0
 10
192.832291
 20
163.548728
 30
0.0
 10
192.955190
 20
163.468930
 30
0.0
 10
193.069091
 20
163.376728
 30
0.0
 10
193.172691
 20
163.273128
 30
0.0
 10
193.264891
 20
163.159230
 30
0.0
 10
193.344692
 20
163.036328
 30
0.0
 10
193.411290
 20
162.905730
 30
0.0
 10
193.463791
 20
162.768930
 30
0.0
 10
193.501690
 20
162.627428
 30
0.0
 10
193.524576
 20
162.482629
 30
0.0
 10
193.532289
 20
162.336328
 30
0.0
 10
193.524592
 20
162.190029
 30
0.0
 10
193.501703
 20
162.045228
 30
0.0
 10
193.463791
 20
161.903729
 30
0.0
 10
193.411290
 20
161.766929
 30
0.0
 10
193.344692
 20
161.636328
 30
0.0
 10
193.264891
 20
161.513429
 30
0.0
 10
193.172691
 20
161.399528
 30
0.0
 10
193.069091
 20
161.295928
 30
0.0
 10
192.955190
 20
161.203729
 30
0.0
 10
192.832291
 20
161.123928
 30
0.0
 10
192.701691
 20
161.057329
 30
0.0
 10
192.564890
 20
161.004828
 30
0.0
 10
192.423391
 20
160.966929
 30
0.0
 10
192.278590
 20
160.944043
 30
0.0
 10
192.132291
 20
160.936330
 30
0.0
  0
LWPOLYLINE
  5
10f
100
AcDbEntity
  8
Layer_1
 62
5
100
AcDbPolyline
 90
60
 70
1
 10
231.991292
 20
160.993729
 30
0.0
 10
231.851290
 20
161.015822
 30
0.0
 10
231.715291
 20
161.052429
 30
0.0
 10
231.583291
 20
161.103028
 30
0.0
 10
231.457291
 20
161.167229
 30
0.0
 10
231.338292
 20
161.244128
 30
0.0
 10
231.229292
 20
161.333028
 30
0.0
 10
231.129290
 20
161.433030
 30
0.0
 10
231.040292
 20
161.542829
 30
0.0
 10
230.963290
 20
161.661328
 30
0.0
 10
230.899290
 20
161.787228
 30
0.0
 10
230.848292
 20
161.919128
 30
0.0
 10
230.812290
 20
162.055629
 30
0.0
 10
230.789297
 20
162.195228
 30
0.0
 10
230.782281
 20
162.336328
 30
0.0
 10
230.789303
 20
162.477428
 30
0.0
 10
230.812284
 20
162.617030
 30
0.0
 10
230.848292
 20
162.753528
 30
0.0
 10
230.899290
 20
162.885428
 30
0.0
 10
230.963290
 20
163.011328
 30
0.0
 10
231.040292
 20
163.129829
 30
0.0
 10
231.129290
 20
163.239629
 30
0.0
 10
231.229292
 20
163.339530
 30
0.0
 10
231.338292
 20
163.428528
 30
0.0
 10
231.457291
 20
163.505429
 30
0.0
 10
231.583291
 20
163.569628
 30
0.0
 10
231.715291
 20
163.620229
 30
0.0
 10
231.851290
 20
163.656829
 30
0.0
 10
231.991292
 20
163.678922
 30
0.0
 10
232.132291
 20
163.686338
 30
0.0
 10
232.273290
 20
163.678922
 30
0.0
 10
232.413291
 20
163.656837
 30
0.0
 10
232.549290
 20
163.620229
 30
0.0
 10
232.681291
 20
163.569628
 30
0.0
 10
232.807290
 20
163.505429
 30
0.0
 10
232.926289
 20
163.428528
 30
0.0
 10
233.035290
 20
163.339530
 30
0.0
 10
233.135292
 20
163.239629
 30
0.0
 10
233.224292
 20
163.129829
 30
0.0
 10
233.301291
 20
163.011328
 30
0.0
 10
233.365291
 20
162.885428
 30
0.0
 10
233.416290
 20
162.753528
 30
0.0
 10
233.452292
 20
162.617030
 30
0.0
 10
233.475284
 20
162.477428
 30
0.0
 10
233.482277
 20
162.336328
 30
0.0
 10
233.475305
 20
162.195228
 30
0.0
 10
233.452300
 20
162.055629
 30
0.0
 10
233.416290
 20
161.919128
 30
0.0
 10
233.365291
 20
161.787228
 30
0.0
 10
233.301291
 20
161.661328
 30
0.0
 10
233.224292
 20
161.542829
 30
0.0
 10
233.135292
 20
161.433030
 30
0.0
 10
233.035290
 20
161.333028
 30
0.0
 10
232.926289
 20
161.244128
 30
0.0
 10
232.807290
 20
161.167229
 30
0.0
 10
232.681291
 20
161.103028
 30
0.0
 10
232.549290
 20
161.052429
 30
0.0
 10
232.413291
 20
161.015830
 30
0.0
 10
232.273290
 20
160.993737
 30
0.0
 10
232.132291
 20
160.986321
 30
0.0
  0
LWPOLYLINE
  5
110
100
AcDbEntity
  8
Layer_1
 62
5
100
AcDbPolyline
 90
60
 70
1
 10
331.991290
 20
160.993729
 30
0.0
 10
331.851291
 20
161.015822
 30
0.0
 10
331.715290
 20
161.052429
 30
0.0
 10
331.583292
 20
161.103028
 30
0.0
 10
331.457289
 20
161.167229
 30
0.0
 10
331.338290
 20
161.244128
 30
0.0
 10
331.229290
 20
161.333028
 30
0.0
 10
331.129291
 20
161.433030
 30
0.0
 10
331.040290
 20
161.542829
 30
0.0
 10
330.963291
 20
161.661328
 30
0.0
 10
330.899291
 20
161.787228
 30
0.0
 10
330.848290
 20
161.919128
 30
0.0
 10
330.812291
 20
162.055629
 30
0.0
 10
330.789299
 20
162.195228
 30
0.0
 10
330.782279
 20
162.336328
 30
0.0
 10
330.789301
 20
162.477428
 30
0.0
 10
330.812291
 20
162.617030
 30
0.0
 10
330.848290
 20
162.753528
 30
0.0
 10
330.899291
 20
162.885428
 30
0.0
 10
330.963291
 20
163.011328
 30
0.0
 10
331.040290
 20
163.129829
 30
0.0
 10
331.129291
 20
163.239629
 30
0.0
 10
331.229290
 20
163.339530
 30
0.0
 10
331.338290
 20
163.428528
 30
0.0
 10
331.457289
 20
163.505429
 30
0.0
 10
331.583292
 20
163.569628
 30
0.0
 10
331.715290
 20
163.620229
 30
0.0
 10
331.851291
 20
163.656829
 30
0.0
 10
331.991290
 20
163.678922
 30
0.0
 10
332.132292
 20
163.686338
 30
0.0
 10
332.273291
 20
163.678922
 30
0.0
 10
332.413290
 20
163.656837
 30
0.0
 10
332.549291
 20
163.620229
 30
0.0
 10
332.681292
 20
163.569628
 30
0.0
 10
332.807291
 20
163.505429
 30
0.0
 10
332.926290
 20
163.428528
 30
0.0
 10
333.035291
 20
163.339530
 30
0.0
 10
333.135290
 20
163.239629
 30
0.0
 10
333.224291
 20
163.129829
 30
0.0
 10
333.301290
 20
163.011328
 30
0.0
 10
333.365290
 20
162.885428
 30
0.0
 10
333.416291
 20
162.753528
 30
0.0
 10
333.452290
 20
162.617030
 30
0.0
 10
333.475282
 20
162.477428
 30
0.0
 10
333.482302
 20
162.336328
 30
0.0
 10
333.475280
 20
162.195228
 30
0.0
 10
333.452298
 20
162.055629
 30
0.0
 10
333.416291
 20
161.919128
 30
0.0
 10
333.365290
 20
161.787228
 30
0.0
 10
333.301290
 20
161.661328
 30
0.0
 10
333.224291
 20
161.542829
 30
0.0
 10
333.135290
 20
161.433030
 30
0.0
 10
333.035291
 20
161.333028
 30
0.0
 10
332.926290
 20
161.244128
 30
0.0
 10
332.807291
 20
161.167229
 30
0.0
 10
332.681292
 20
161.103028
 30
0.0
 10
332.549291
 20
161.052429
 30
0.0
 10
332.413290
 20
161.015830
 30
0.0
 10
332.273291
 20
160.993737
 30
0.0
 10
332.132292
 20
160.986321
 30
0.0
  0
LWPOLYLINE
  5
111
100
AcDbEntity
  8
Layer_1
 62
5
100
AcDbPolyline
 90
4
 70
1
 10
235.132290
 20
133.336333
 30
0.0
 10
235.132290
 20
156.336329
 30
0.0
 10
331.132291
 20
156.336329
 30
0.0
 10
331.132291
 20
133.336333
 30
0.0
  0
LWPOLYLINE
  5
112
100
AcDbEntity
  8
Layer_1
 62
5
100
AcDbPolyline
 90
30
 70
0
 10
20.731890
 20
130.372523
 30
0.0
 10
20.454591
 20
130.416418
 30
0.0
 10
20.183390
 20
130.489125
 30
0.0
 10
19.921191
 20
130.589720
 30
0.0
 10
19.671091
 20
130.717223
 30
0.0
 10
19.435591
 20
130.870125
 30
0.0
 10
19.217391
 20
131.046840
 30
0.0
 10
19.018790
 20
131.245331
 30
0.0
 10
18.842090
 20
131.463639
 30
0.0
 10
18.689190
 20
131.699038
 30
0.0
 10
18.561690
 20
131.949228
 30
0.0
 10
18.461090
 20
132.211430
 30
0.0
 10
18.388391
 20
132.482628
 30
0.0
 10
18.344491
 20
132.759938
 30
0.0
 10
18.329780
 20
133.040317
 30
0.0
 10
18.344502
 20
133.320723
 30
0.0
 10
18.388391
 20
133.598032
 30
0.0
 10
18.461090
 20
133.869230
 30
0.0
 10
18.561690
 20
134.131432
 30
0.0
 10
18.689190
 20
134.381517
 30
0.0
 10
18.842090
 20
134.617022
 30
0.0
 10
19.018790
 20
134.835224
 30
0.0
 10
19.217391
 20
135.033820
 30
0.0
 10
19.435591
 20
135.210535
 30
0.0
 10
19.671091
 20
135.363438
 30
0.0
 10
19.921191
 20
135.490941
 30
0.0
 10
20.183390
 20
135.591535
 30
0.0
 10
20.454591
 20
135.664217
 30
0.0
 10
20.731890
 20
135.708137
 30
0.0
 10
21.012290
 20
135.722689
 30
0.0
  0
LWPOLYLINE
  5
113
100
AcDbEntity
  8
Layer_1
 62
5
100
AcDbPolyline
 90
2
 70
0
 10
21.012290
 20
135.722822
 30
0.0
 10
21.292690
 20
135.708270
 30
0.0
  0
LWPOLYLINE
  5
114
100
AcDbEntity
  8
Layer_1
 62
5
100
AcDbPolyline
 90
30
 70
0
 10
21.292690
 20
135.708137
 30
0.0
 10
21.569992
 20
135.664217
 30
0.0
 10
21.841190
 20
135.591535
 30
0.0
 10
22.103390
 20
135.490941
 30
0.0
 10
22.353590
 20
135.363438
 30
0.0
 10
22.588990
 20
135.210535
 30
0.0
 10
22.807192
 20
135.033820
 30
0.0
 10
23.005791
 20
134.835224
 30
0.0
 10
23.182490
 20
134.617022
 30
0.0
 10
23.335390
 20
134.381517
 30
0.0
 10
23.462890
 20
134.131432
 30
0.0
 10
23.563490
 20
133.869230
 30
0.0
 10
23.636192
 20
133.598032
 30
0.0
 10
23.680092
 20
133.320723
 30
0.0
 10
23.694803
 20
133.040317
 30
0.0
 10
23.680081
 20
132.759938
 30
0.0
 10
23.636192
 20
132.482628
 30
0.0
 10
23.563490
 20
132.211430
 30
0.0
 10
23.462890
 20
131.949228
 30
0.0
 10
23.335390
 20
131.699038
 30
0.0
 10
23.182490
 20
131.463639
 30
0.0
 10
23.005791
 20
131.245331
 30
0.0
 10
22.807192
 20
131.046840
 30
0.0
 10
22.588990
 20
130.870125
 30
0.0
 10
22.353590
 20
130.717223
 30
0.0
 10
22.103390
 20
130.589720
 30
0.0
 10
21.841190
 20
130.489125
 30
0.0
 10
21.569992
 20
130.416418
 30
0.0
 10
21.292690
 20
130.372523
 30
0.0
 10
21.012290
 20
130.357707
 30
0.0
  0
LWPOLYLINE
  5
115
100
AcDbEntity
  8
Layer_1
 62
5
100
AcDbPolyline
 90
2
 70
0
 10
21.012290
 20
130.357839
 30
0.0
 10
20.731890
 20
130.372656
 30
0.0
  0
LWPOLYLINE
  5
116
100
AcDbEntity
  8
Layer_1
 62
5
100
AcDbPolyline
 90
30
 70
0
 10
54.141891
 20
130.372523
 30
0.0
 10
53.864592
 20
130.416418
 30
0.0
 10
53.593391
 20
130.489125
 30
0.0
 10
53.331192
 20
130.589720
 30
0.0
 10
53.081092
 20
130.717223
 30
0.0
 10
52.845592
 20
130.870125
 30
0.0
 10
52.627390
 20
131.046840
 30
0.0
 10
52.428791
 20
131.245331
 30
0.0
 10
52.252092
 20
131.463639
 30
0.0
 10
52.099191
 20
131.699038
 30
0.0
 10
51.971691
 20
131.949228
 30
0.0
 10
51.871092
 20
132.211430
 30
0.0
 10
51.798392
 20
132.482628
 30
0.0
 10
51.754490
 20
132.759938
 30
0.0
 10
51.739805
 20
133.040317
 30
0.0
 10
51.754476
 20
133.320723
 30
0.0
 10
51.798392
 20
133.598032
 30
0.0
 10
51.871092
 20
133.869230
 30
0.0
 10
51.971691
 20
134.131432
 30
0.0
 10
52.099191
 20
134.381517
 30
0.0
 10
52.252092
 20
134.617022
 30
0.0
 10
52.428791
 20
134.835224
 30
0.0
 10
52.627390
 20
135.033820
 30
0.0
 10
52.845592
 20
135.210535
 30
0.0
 10
53.081092
 20
135.363438
 30
0.0
 10
53.331192
 20
135.490941
 30
0.0
 10
53.593391
 20
135.591535
 30
0.0
 10
53.864592
 20
135.664217
 30
0.0
 10
54.141891
 20
135.708137
 30
0.0
 10
54.422291
 20
135.722689
 30
0.0
  0
LWPOLYLINE
  5
117
100
AcDbEntity
  8
Layer_1
 62
5
100
AcDbPolyline
 90
2
 70
0
 10
54.422291
 20
135.722822
 30
0.0
 10
54.702691
 20
135.708270
 30
0.0
  0
LWPOLYLINE
  5
118
100
AcDbEntity
  8
Layer_1
 62
5
100
AcDbPolyline
 90
30
 70
0
 10
54.702691
 20
135.708137
 30
0.0
 10
54.979991
 20
135.664217
 30
0.0
 10
55.251191
 20
135.591535
 30
0.0
 10
55.513391
 20
135.490941
 30
0.0
 10
55.763591
 20
135.363438
 30
0.0
 10
55.998991
 20
135.210535
 30
0.0
 10
56.217190
 20
135.033820
 30
0.0
 10
56.415792
 20
134.835224
 30
0.0
 10
56.592491
 20
134.617022
 30
0.0
 10
56.745391
 20
134.381517
 30
0.0
 10
56.872891
 20
134.131432
 30
0.0
 10
56.973491
 20
133.869230
 30
0.0
 10
57.046191
 20
133.598032
 30
0.0
 10
57.090090
 20
133.320723
 30
0.0
 10
57.104801
 20
133.040317
 30
0.0
 10
57.090080
 20
132.759938
 30
0.0
 10
57.046191
 20
132.482628
 30
0.0
 10
56.973491
 20
132.211430
 30
0.0
 10
56.872891
 20
131.949228
 30
0.0
 10
56.745391
 20
131.699038
 30
0.0
 10
56.592491
 20
131.463639
 30
0.0
 10
56.415792
 20
131.245331
 30
0.0
 10
56.217190
 20
131.046840
 30
0.0
 10
55.998991
 20
130.870125
 30
0.0
 10
55.763591
 20
130.717223
 30
0.0
 10
55.513391
 20
130.589720
 30
0.0
 10
55.251191
 20
130.489125
 30
0.0
 10
54.979991
 20
130.416418
 30
0.0
 10
54.702691
 20
130.372523
 30
0.0
 10
54.422291
 20
130.357707
 30
0.0
  0
LWPOLYLINE
  5
119
100
AcDbEntity
  8
Layer_1
 62
5
100
AcDbPolyline
 90
2
 70
0
 10
54.422291
 20
130.357839
 30
0.0
 10
54.141891
 20
130.372656
 30
0.0
  0
LWPOLYLINE
  5
11a
100
AcDbEntity
  8
Layer_1
 62
5
100
AcDbPolyline
 90
2
 70
0
 10
91.985961
 20
125.944007
 30
0.0
 10
91.841211
 20
125.967026
 30
0.0
  0
LWPOLYLINE
  5
11b
100
AcDbEntity
  8
Layer_1
 62
5
100
AcDbPolyline
 90
28
 70
0
 10
91.841211
 20
125.966920
 30
0.0
 10
91.699671
 20
126.004861
 30
0.0
 10
91.562861
 20
126.057354
 30
0.0
 10
91.432291
 20
126.123871
 30
0.0
 10
91.309401
 20
126.203695
 30
0.0
 10
91.195511
 20
126.295929
 30
0.0
 10
91.091901
 20
126.399540
 30
0.0
 10
90.999681
 20
126.513417
 30
0.0
 10
90.919861
 20
126.636316
 30
0.0
 10
90.853331
 20
126.766940
 30
0.0
 10
90.800821
 20
126.903730
 30
0.0
 10
90.762891
 20
127.045229
 30
0.0
 10
90.739970
 20
127.190036
 30
0.0
 10
90.732300
 20
127.336324
 30
0.0
 10
90.739971
 20
127.482638
 30
0.0
 10
90.762892
 20
127.627418
 30
0.0
 10
90.800821
 20
127.768918
 30
0.0
 10
90.853331
 20
127.905734
 30
0.0
 10
90.919861
 20
128.036332
 30
0.0
 10
90.999681
 20
128.159231
 30
0.0
 10
91.091901
 20
128.273134
 30
0.0
 10
91.195511
 20
128.376718
 30
0.0
 10
91.309401
 20
128.468926
 30
0.0
 10
91.432291
 20
128.548724
 30
0.0
 10
91.562861
 20
128.615320
 30
0.0
 10
91.699671
 20
128.667839
 30
0.0
 10
91.841211
 20
128.705728
 30
0.0
 10
91.985961
 20
128.728747
 30
0.0
  0
LWPOLYLINE
  5
11c
100
AcDbEntity
  8
Layer_1
 62
5
100
AcDbPolyline
 90
4
 70
0
 10
91.985961
 20
128.728641
 30
0.0
 10
92.132291
 20
128.736314
 30
0.0
 10
92.278641
 20
128.728667
 30
0.0
 10
92.423371
 20
128.705622
 30
0.0
  0
LWPOLYLINE
  5
11d
100
AcDbEntity
  8
Layer_1
 62
5
100
AcDbPolyline
 90
28
 70
0
 10
92.423371
 20
128.705728
 30
0.0
 10
92.564921
 20
128.667839
 30
0.0
 10
92.701731
 20
128.615320
 30
0.0
 10
92.832301
 20
128.548724
 30
0.0
 10
92.955201
 20
128.468926
 30
0.0
 10
93.069071
 20
128.376718
 30
0.0
 10
93.172701
 20
128.273134
 30
0.0
 10
93.264921
 20
128.159231
 30
0.0
 10
93.344741
 20
128.036332
 30
0.0
 10
93.411271
 20
127.905734
 30
0.0
 10
93.463771
 20
127.768918
 30
0.0
 10
93.501711
 20
127.627418
 30
0.0
 10
93.524621
 20
127.482638
 30
0.0
 10
93.532302
 20
127.336324
 30
0.0
 10
93.524620
 20
127.190036
 30
0.0
 10
93.501711
 20
127.045229
 30
0.0
 10
93.463771
 20
126.903730
 30
0.0
 10
93.411271
 20
126.766940
 30
0.0
 10
93.344741
 20
126.636316
 30
0.0
 10
93.264921
 20
126.513417
 30
0.0
 10
93.172701
 20
126.399540
 30
0.0
 10
93.069071
 20
126.295929
 30
0.0
 10
92.955201
 20
126.203695
 30
0.0
 10
92.832301
 20
126.123871
 30
0.0
 10
92.701731
 20
126.057354
 30
0.0
 10
92.564921
 20
126.004861
 30
0.0
 10
92.423371
 20
125.966920
 30
0.0
 10
92.278641
 20
125.943901
 30
0.0
  0
LWPOLYLINE
  5
11e
100
AcDbEntity
  8
Layer_1
 62
5
100
AcDbPolyline
 90
3
 70
0
 10
92.278641
 20
125.944007
 30
0.0
 10
92.132291
 20
125.936334
 30
0.0
 10
91.985961
 20
125.943980
 30
0.0
  0
LWPOLYLINE
  5
11f
100
AcDbEntity
  8
Layer_1
 62
5
100
AcDbPolyline
 90
2
 70
0
 10
191.985990
 20
125.944007
 30
0.0
 10
191.841191
 20
125.967026
 30
0.0
  0
LWPOLYLINE
  5
120
100
AcDbEntity
  8
Layer_1
 62
5
100
AcDbPolyline
 90
28
 70
0
 10
191.841191
 20
125.966920
 30
0.0
 10
191.699690
 20
126.004861
 30
0.0
 10
191.562889
 20
126.057354
 30
0.0
 10
191.432291
 20
126.123871
 30
0.0
 10
191.309392
 20
126.203695
 30
0.0
 10
191.195492
 20
126.295929
 30
0.0
 10
191.091891
 20
126.399540
 30
0.0
 10
190.999689
 20
126.513417
 30
0.0
 10
190.919891
 20
126.636316
 30
0.0
 10
190.853290
 20
126.766940
 30
0.0
 10
190.800792
 20
126.903730
 30
0.0
 10
190.762890
 20
127.045229
 30
0.0
 10
190.740004
 20
127.190036
 30
0.0
 10
190.732291
 20
127.336324
 30
0.0
 10
190.739990
 20
127.482638
 30
0.0
 10
190.762877
 20
127.627418
 30
0.0
 10
190.800792
 20
127.768918
 30
0.0
 10
190.853290
 20
127.905734
 30
0.0
 10
190.919891
 20
128.036332
 30
0.0
 10
190.999689
 20
128.159231
 30
0.0
 10
191.091891
 20
128.273134
 30
0.0
 10
191.195492
 20
128.376718
 30
0.0
 10
191.309392
 20
128.468926
 30
0.0
 10
191.432291
 20
128.548724
 30
0.0
 10
191.562889
 20
128.615320
 30
0.0
 10
191.699690
 20
128.667839
 30
0.0
 10
191.841191
 20
128.705728
 30
0.0
 10
191.985990
 20
128.728747
 30
0.0
  0
LWPOLYLINE
  5
121
100
AcDbEntity
  8
Layer_1
 62
5
100
AcDbPolyline
 90
4
 70
0
 10
191.985990
 20
128.728641
 30
0.0
 10
192.132291
 20
128.736314
 30
0.0
 10
192.278590
 20
128.728667
 30
0.0
 10
192.423391
 20
128.705622
 30
0.0
  0
LWPOLYLINE
  5
122
100
AcDbEntity
  8
Layer_1
 62
5
100
AcDbPolyline
 90
28
 70
0
 10
192.423391
 20
128.705728
 30
0.0
 10
192.564890
 20
128.667839
 30
0.0
 10
192.701691
 20
128.615320
 30
0.0
 10
192.832291
 20
128.548724
 30
0.0
 10
192.955190
 20
128.468926
 30
0.0
 10
193.069091
 20
128.376718
 30
0.0
 10
193.172691
 20
128.273134
 30
0.0
 10
193.264891
 20
128.159231
 30
0.0
 10
193.344692
 20
128.036332
 30
0.0
 10
193.411290
 20
127.905734
 30
0.0
 10
193.463791
 20
127.768918
 30
0.0
 10
193.501690
 20
127.627418
 30
0.0
 10
193.524576
 20
127.482638
 30
0.0
 10
193.532289
 20
127.336324
 30
0.0
 10
193.524592
 20
127.190036
 30
0.0
 10
193.501703
 20
127.045229
 30
0.0
 10
193.463791
 20
126.903730
 30
0.0
 10
193.411290
 20
126.766940
 30
0.0
 10
193.344692
 20
126.636316
 30
0.0
 10
193.264891
 20
126.513417
 30
0.0
 10
193.172691
 20
126.399540
 30
0.0
 10
193.069091
 20
126.295929
 30
0.0
 10
192.955190
 20
126.203695
 30
0.0
 10
192.832291
 20
126.123871
 30
0.0
 10
192.701691
 20
126.057354
 30
0.0
 10
192.564890
 20
126.004861
 30
0.0
 10
192.423391
 20
125.966920
 30
0.0
 10
192.278590
 20
125.943901
 30
0.0
  0
LWPOLYLINE
  5
123
100
AcDbEntity
  8
Layer_1
 62
5
100
AcDbPolyline
 90
3
 70
0
 10
192.278590
 20
125.944007
 30
0.0
 10
192.132291
 20
125.936334
 30
0.0
 10
191.985990
 20
125.943980
 30
0.0
  0
LWPOLYLINE
  5
124
100
AcDbEntity
  8
Layer_1
 62
5
100
AcDbPolyline
 90
2
 70
0
 10
231.991292
 20
125.993722
 30
0.0
 10
231.851290
 20
126.015683
 30
0.0
  0
LWPOLYLINE
  5
125
100
AcDbEntity
  8
Layer_1
 62
5
100
AcDbPolyline
 90
28
 70
0
 10
231.851290
 20
126.015815
 30
0.0
 10
231.715291
 20
126.052380
 30
0.0
 10
231.583291
 20
126.103048
 30
0.0
 10
231.457291
 20
126.167183
 30
0.0
 10
231.338292
 20
126.244150
 30
0.0
 10
231.229292
 20
126.333077
 30
0.0
 10
231.129290
 20
126.433036
 30
0.0
 10
231.040292
 20
126.542838
 30
0.0
 10
230.963290
 20
126.661319
 30
0.0
 10
230.899290
 20
126.787234
 30
0.0
 10
230.848292
 20
126.919129
 30
0.0
 10
230.812290
 20
127.055627
 30
0.0
 10
230.789297
 20
127.195222
 30
0.0
 10
230.782281
 20
127.336324
 30
0.0
 10
230.789303
 20
127.477426
 30
0.0
 10
230.812284
 20
127.617020
 30
0.0
 10
230.848292
 20
127.753519
 30
0.0
 10
230.899290
 20
127.885440
 30
0.0
 10
230.963290
 20
128.011329
 30
0.0
 10
231.040292
 20
128.129836
 30
0.0
 10
231.129290
 20
128.239638
 30
0.0
 10
231.229292
 20
128.339518
 30
0.0
 10
231.338292
 20
128.428524
 30
0.0
 10
231.457291
 20
128.505438
 30
0.0
 10
231.583291
 20
128.569626
 30
0.0
 10
231.715291
 20
128.620241
 30
0.0
 10
231.851290
 20
128.656833
 30
0.0
 10
231.991292
 20
128.678793
 30
0.0
  0
LWPOLYLINE
  5
126
100
AcDbEntity
  8
Layer_1
 62
5
100
AcDbPolyline
 90
4
 70
0
 10
231.991292
 20
128.678925
 30
0.0
 10
232.132291
 20
128.686334
 30
0.0
 10
232.273290
 20
128.678925
 30
0.0
 10
232.413291
 20
128.656965
 30
0.0
  0
LWPOLYLINE
  5
127
100
AcDbEntity
  8
Layer_1
 62
5
100
AcDbPolyline
 90
28
 70
0
 10
232.413291
 20
128.656833
 30
0.0
 10
232.549290
 20
128.620241
 30
0.0
 10
232.681291
 20
128.569626
 30
0.0
 10
232.807290
 20
128.505438
 30
0.0
 10
232.926289
 20
128.428524
 30
0.0
 10
233.035290
 20
128.339518
 30
0.0
 10
233.135292
 20
128.239638
 30
0.0
 10
233.224292
 20
128.129836
 30
0.0
 10
233.301291
 20
128.011329
 30
0.0
 10
233.365291
 20
127.885440
 30
0.0
 10
233.416290
 20
127.753519
 30
0.0
 10
233.452292
 20
127.617020
 30
0.0
 10
233.475284
 20
127.477426
 30
0.0
 10
233.482277
 20
127.336324
 30
0.0
 10
233.475305
 20
127.195222
 30
0.0
 10
233.452300
 20
127.055627
 30
0.0
 10
233.416290
 20
126.919129
 30
0.0
 10
233.365291
 20
126.787234
 30
0.0
 10
233.301291
 20
126.661319
 30
0.0
 10
233.224292
 20
126.542838
 30
0.0
 10
233.135292
 20
126.433036
 30
0.0
 10
233.035290
 20
126.333077
 30
0.0
 10
232.926289
 20
126.244150
 30
0.0
 10
232.807290
 20
126.167183
 30
0.0
 10
232.681291
 20
126.103048
 30
0.0
 10
232.549290
 20
126.052380
 30
0.0
 10
232.413291
 20
126.015815
 30
0.0
 10
232.273290
 20
125.993854
 30
0.0
  0
LWPOLYLINE
  5
128
100
AcDbEntity
  8
Layer_1
 62
5
100
AcDbPolyline
 90
3
 70
0
 10
232.273290
 20
125.993722
 30
0.0
 10
232.132291
 20
125.986314
 30
0.0
 10
231.991292
 20
125.993722
 30
0.0
  0
LWPOLYLINE
  5
129
100
AcDbEntity
  8
Layer_1
 62
5
100
AcDbPolyline
 90
2
 70
0
 10
331.991290
 20
125.993722
 30
0.0
 10
331.851291
 20
126.015683
 30
0.0
  0
LWPOLYLINE
  5
12a
100
AcDbEntity
  8
Layer_1
 62
5
100
AcDbPolyline
 90
28
 70
0
 10
331.851291
 20
126.015815
 30
0.0
 10
331.715290
 20
126.052380
 30
0.0
 10
331.583292
 20
126.103048
 30
0.0
 10
331.457289
 20
126.167183
 30
0.0
 10
331.338290
 20
126.244150
 30
0.0
 10
331.229290
 20
126.333077
 30
0.0
 10
331.129291
 20
126.433036
 30
0.0
 10
331.040290
 20
126.542838
 30
0.0
 10
330.963291
 20
126.661319
 30
0.0
 10
330.899291
 20
126.787234
 30
0.0
 10
330.848290
 20
126.919129
 30
0.0
 10
330.812291
 20
127.055627
 30
0.0
 10
330.789299
 20
127.195222
 30
0.0
 10
330.782279
 20
127.336324
 30
0.0
 10
330.789301
 20
127.477426
 30
0.0
 10
330.812291
 20
127.617020
 30
0.0
 10
330.848290
 20
127.753519
 30
0.0
 10
330.899291
 20
127.885440
 30
0.0
 10
330.963291
 20
128.011329
 30
0.0
 10
331.040290
 20
128.129836
 30
0.0
 10
331.129291
 20
128.239638
 30
0.0
 10
331.229290
 20
128.339518
 30
0.0
 10
331.338290
 20
128.428524
 30
0.0
 10
331.457289
 20
128.505438
 30
0.0
 10
331.583292
 20
128.569626
 30
0.0
 10
331.715290
 20
128.620241
 30
0.0
 10
331.851291
 20
128.656833
 30
0.0
 10
331.991290
 20
128.678793
 30
0.0
  0
LWPOLYLINE
  5
12b
100
AcDbEntity
  8
Layer_1
 62
5
100
AcDbPolyline
 90
4
 70
0
 10
331.991290
 20
128.678925
 30
0.0
 10
332.132292
 20
128.686334
 30
0.0
 10
332.273291
 20
128.678925
 30
0.0
 10
332.413290
 20
128.656965
 30
0.0
  0
LWPOLYLINE
  5
12c
100
AcDbEntity
  8
Layer_1
 62
5
100
AcDbPolyline
 90
28
 70
0
 10
332.413290
 20
128.656833
 30
0.0
 10
332.549291
 20
128.620241
 30
0.0
 10
332.681292
 20
128.569626
 30
0.0
 10
332.807291
 20
128.505438
 30
0.0
 10
332.926290
 20
128.428524
 30
0.0
 10
333.035291
 20
128.339518
 30
0.0
 10
333.135290
 20
128.239638
 30
0.0
 10
333.224291
 20
128.129836
 30
0.0
 10
333.301290
 20
128.011329
 30
0.0
 10
333.365290
 20
127.885440
 30
0.0
 10
333.416291
 20
127.753519
 30
0.0
 10
333.452290
 20
127.617020
 30
0.0
 10
333.475282
 20
127.477426
 30
0.0
 10
333.482302
 20
127.336324
 30
0.0
 10
333.475280
 20
127.195222
 30
0.0
 10
333.452298
 20
127.055627
 30
0.0
 10
333.416291
 20
126.919129
 30
0.0
 10
333.365290
 20
126.787234
 30
0.0
 10
333.301290
 20
126.661319
 30
0.0
 10
333.224291
 20
126.542838
 30
0.0
 10
333.135290
 20
126.433036
 30
0.0
 10
333.035291
 20
126.333077
 30
0.0
 10
332.926290
 20
126.244150
 30
0.0
 10
332.807291
 20
126.167183
 30
0.0
 10
332.681292
 20
126.103048
 30
0.0
 10
332.549291
 20
126.052380
 30
0.0
 10
332.413290
 20
126.015815
 30
0.0
 10
332.273291
 20
125.993854
 30
0.0
  0
LWPOLYLINE
  5
12d
100
AcDbEntity
  8
Layer_1
 62
5
100
AcDbPolyline
 90
3
 70
0
 10
332.273291
 20
125.993722
 30
0.0
 10
332.132292
 20
125.986314
 30
0.0
 10
331.991290
 20
125.993722
 30
0.0
  0
LWPOLYLINE
  5
12e
100
AcDbEntity
  8
Layer_1
 62
5
100
AcDbPolyline
 90
4
 70
1
 10
500.861462
 20
241.356326
 30
0.0
 10
0.121452
 20
241.356326
 30
0.0
 10
0.121452
 20
180.846329
 30
0.0
 10
500.861462
 20
180.846329
 30
0.0
  0
LWPOLYLINE
  5
12f
100
AcDbEntity
  8
Layer_1
 62
5
100
AcDbPolyline
 90
2
 70
0
 10
213.975450
 20
221.454050
 30
0.0
 10
213.830450
 20
221.477069
 30
0.0
  0
LWPOLYLINE
  5
130
100
AcDbEntity
  8
Layer_1
 62
5
100
AcDbPolyline
 90
28
 70
0
 10
213.830450
 20
221.476936
 30
0.0
 10
213.688451
 20
221.514825
 30
0.0
 10
213.552450
 20
221.567345
 30
0.0
 10
213.421449
 20
221.633940
 30
0.0
 10
213.298450
 20
221.713739
 30
0.0
 10
213.184452
 20
221.805946
 30
0.0
 10
213.081452
 20
221.909530
 30
0.0
 10
212.988451
 20
222.023433
 30
0.0
 10
212.909452
 20
222.146332
 30
0.0
 10
212.842451
 20
222.276931
 30
0.0
 10
212.790450
 20
222.413747
 30
0.0
 10
212.752451
 20
222.555246
 30
0.0
 10
212.729458
 20
222.700026
 30
0.0
 10
212.721460
 20
222.846340
 30
0.0
 10
212.729442
 20
222.992629
 30
0.0
 10
212.752443
 20
223.137435
 30
0.0
 10
212.790450
 20
223.278934
 30
0.0
 10
212.842451
 20
223.415724
 30
0.0
 10
212.909452
 20
223.546322
 30
0.0
 10
212.988451
 20
223.669248
 30
0.0
 10
213.081452
 20
223.783124
 30
0.0
 10
213.184452
 20
223.886735
 30
0.0
 10
213.298450
 20
223.978942
 30
0.0
 10
213.421449
 20
224.058741
 30
0.0
 10
213.552450
 20
224.125336
 30
0.0
 10
213.688451
 20
224.177830
 30
0.0
 10
213.830450
 20
224.215744
 30
0.0
 10
213.975450
 20
224.238763
 30
0.0
  0
LWPOLYLINE
  5
131
100
AcDbEntity
  8
Layer_1
 62
5
100
AcDbPolyline
 90
4
 70
0
 10
213.975450
 20
224.238631
 30
0.0
 10
214.121450
 20
224.246304
 30
0.0
 10
214.267449
 20
224.238657
 30
0.0
 10
214.412452
 20
224.215612
 30
0.0
  0
LWPOLYLINE
  5
132
100
AcDbEntity
  8
Layer_1
 62
5
100
AcDbPolyline
 90
28
 70
0
 10
214.412452
 20
224.215744
 30
0.0
 10
214.554451
 20
224.177830
 30
0.0
 10
214.690452
 20
224.125336
 30
0.0
 10
214.821450
 20
224.058741
 30
0.0
 10
214.944452
 20
223.978942
 30
0.0
 10
215.058450
 20
223.886735
 30
0.0
 10
215.161450
 20
223.783124
 30
0.0
 10
215.254451
 20
223.669248
 30
0.0
 10
215.333450
 20
223.546322
 30
0.0
 10
215.400451
 20
223.415724
 30
0.0
 10
215.452452
 20
223.278934
 30
0.0
 10
215.490451
 20
223.137435
 30
0.0
 10
215.513444
 20
222.992629
 30
0.0
 10
215.521442
 20
222.846340
 30
0.0
 10
215.513460
 20
222.700026
 30
0.0
 10
215.490459
 20
222.555246
 30
0.0
 10
215.452452
 20
222.413747
 30
0.0
 10
215.400451
 20
222.276931
 30
0.0
 10
215.333450
 20
222.146332
 30
0.0
 10
215.254451
 20
222.023433
 30
0.0
 10
215.161450
 20
221.909530
 30
0.0
 10
215.058450
 20
221.805946
 30
0.0
 10
214.944452
 20
221.713739
 30
0.0
 10
214.821450
 20
221.633940
 30
0.0
 10
214.690452
 20
221.567345
 30
0.0
 10
214.554451
 20
221.514825
 30
0.0
 10
214.412452
 20
221.476936
 30
0.0
 10
214.267449
 20
221.453918
 30
0.0
  0
LWPOLYLINE
  5
133
100
AcDbEntity
  8
Layer_1
 62
5
100
AcDbPolyline
 90
3
 70
0
 10
214.267449
 20
221.454050
 30
0.0
 10
214.121450
 20
221.446377
 30
0.0
 10
213.975450
 20
221.453997
 30
0.0
  0
LWPOLYLINE
  5
134
100
AcDbEntity
  8
Layer_1
 62
5
100
AcDbPolyline
 90
28
 70
0
 10
314.412450
 20
224.215744
 30
0.0
 10
314.554452
 20
224.177830
 30
0.0
 10
314.690450
 20
224.125336
 30
0.0
 10
314.821451
 20
224.058741
 30
0.0
 10
314.944450
 20
223.978942
 30
0.0
 10
315.058451
 20
223.886735
 30
0.0
 10
315.161451
 20
223.783124
 30
0.0
 10
315.254452
 20
223.669248
 30
0.0
 10
315.333451
 20
223.546322
 30
0.0
 10
315.400452
 20
223.415724
 30
0.0
 10
315.452450
 20
223.278934
 30
0.0
 10
315.490450
 20
223.137435
 30
0.0
 10
315.513442
 20
222.992629
 30
0.0
 10
315.521441
 20
222.846340
 30
0.0
 10
315.513461
 20
222.700026
 30
0.0
 10
315.490458
 20
222.555246
 30
0.0
 10
315.452450
 20
222.413747
 30
0.0
 10
315.400452
 20
222.276931
 30
0.0
 10
315.333451
 20
222.146332
 30
0.0
 10
315.254452
 20
222.023433
 30
0.0
 10
315.161451
 20
221.909530
 30
0.0
 10
315.058451
 20
221.805946
 30
0.0
 10
314.944450
 20
221.713739
 30
0.0
 10
314.821451
 20
221.633940
 30
0.0
 10
314.690450
 20
221.567345
 30
0.0
 10
314.554452
 20
221.514825
 30
0.0
 10
314.412450
 20
221.476936
 30
0.0
 10
314.267450
 20
221.453918
 30
0.0
  0
LWPOLYLINE
  5
135
100
AcDbEntity
  8
Layer_1
 62
5
100
AcDbPolyline
 90
4
 70
0
 10
314.267450
 20
221.454050
 30
0.0
 10
314.121451
 20
221.446377
 30
0.0
 10
313.975451
 20
221.453997
 30
0.0
 10
313.830451
 20
221.477069
 30
0.0
  0
LWPOLYLINE
  5
136
100
AcDbEntity
  8
Layer_1
 62
5
100
AcDbPolyline
 90
28
 70
0
 10
313.830451
 20
221.476936
 30
0.0
 10
313.688450
 20
221.514825
 30
0.0
 10
313.552451
 20
221.567345
 30
0.0
 10
313.421451
 20
221.633940
 30
0.0
 10
313.298451
 20
221.713739
 30
0.0
 10
313.184450
 20
221.805946
 30
0.0
 10
313.081450
 20
221.909530
 30
0.0
 10
312.988452
 20
222.023433
 30
0.0
 10
312.909450
 20
222.146332
 30
0.0
 10
312.842452
 20
222.276931
 30
0.0
 10
312.790451
 20
222.413747
 30
0.0
 10
312.752452
 20
222.555246
 30
0.0
 10
312.729459
 20
222.700026
 30
0.0
 10
312.721461
 20
222.846340
 30
0.0
 10
312.729441
 20
222.992629
 30
0.0
 10
312.752444
 20
223.137435
 30
0.0
 10
312.790451
 20
223.278934
 30
0.0
 10
312.842452
 20
223.415724
 30
0.0
 10
312.909450
 20
223.546322
 30
0.0
 10
312.988452
 20
223.669248
 30
0.0
 10
313.081450
 20
223.783124
 30
0.0
 10
313.184450
 20
223.886735
 30
0.0
 10
313.298451
 20
223.978942
 30
0.0
 10
313.421451
 20
224.058741
 30
0.0
 10
313.552451
 20
224.125336
 30
0.0
 10
313.688450
 20
224.177830
 30
0.0
 10
313.830451
 20
224.215744
 30
0.0
 10
313.975451
 20
224.238763
 30
0.0
  0
LWPOLYLINE
  5
137
100
AcDbEntity
  8
Layer_1
 62
5
100
AcDbPolyline
 90
4
 70
0
 10
313.975451
 20
224.238631
 30
0.0
 10
314.121451
 20
224.246304
 30
0.0
 10
314.267450
 20
224.238657
 30
0.0
 10
314.412450
 20
224.215612
 30
0.0
  0
LWPOLYLINE
  5
138
100
AcDbEntity
  8
Layer_1
 62
5
100
AcDbPolyline
 90
2
 70
0
 10
51.975152
 20
221.454050
 30
0.0
 10
51.830351
 20
221.477069
 30
0.0
  0
LWPOLYLINE
  5
139
100
AcDbEntity
  8
Layer_1
 62
5
100
AcDbPolyline
 90
28
 70
0
 10
51.830351
 20
221.476936
 30
0.0
 10
51.688852
 20
221.514825
 30
0.0
 10
51.552052
 20
221.567345
 30
0.0
 10
51.421451
 20
221.633940
 30
0.0
 10
51.298552
 20
221.713739
 30
0.0
 10
51.184651
 20
221.805946
 30
0.0
 10
51.081051
 20
221.909530
 30
0.0
 10
50.988852
 20
222.023433
 30
0.0
 10
50.909051
 20
222.146332
 30
0.0
 10
50.842450
 20
222.276931
 30
0.0
 10
50.789951
 20
222.413747
 30
0.0
 10
50.752052
 20
222.555246
 30
0.0
 10
50.729139
 20
222.700026
 30
0.0
 10
50.721450
 20
222.846340
 30
0.0
 10
50.729150
 20
222.992629
 30
0.0
 10
50.752063
 20
223.137435
 30
0.0
 10
50.789951
 20
223.278934
 30
0.0
 10
50.842450
 20
223.415724
 30
0.0
 10
50.909051
 20
223.546322
 30
0.0
 10
50.988852
 20
223.669248
 30
0.0
 10
51.081051
 20
223.783124
 30
0.0
 10
51.184651
 20
223.886735
 30
0.0
 10
51.298552
 20
223.978942
 30
0.0
 10
51.421451
 20
224.058741
 30
0.0
 10
51.552052
 20
224.125336
 30
0.0
 10
51.688852
 20
224.177830
 30
0.0
 10
51.830351
 20
224.215744
 30
0.0
 10
51.975152
 20
224.238763
 30
0.0
  0
LWPOLYLINE
  5
13a
100
AcDbEntity
  8
Layer_1
 62
5
100
AcDbPolyline
 90
4
 70
0
 10
51.975152
 20
224.238631
 30
0.0
 10
52.121451
 20
224.246304
 30
0.0
 10
52.267752
 20
224.238657
 30
0.0
 10
52.412551
 20
224.215612
 30
0.0
  0
LWPOLYLINE
  5
13b
100
AcDbEntity
  8
Layer_1
 62
5
100
AcDbPolyline
 90
28
 70
0
 10
52.412551
 20
224.215744
 30
0.0
 10
52.554050
 20
224.177830
 30
0.0
 10
52.690850
 20
224.125336
 30
0.0
 10
52.821451
 20
224.058741
 30
0.0
 10
52.944350
 20
223.978942
 30
0.0
 10
53.058250
 20
223.886735
 30
0.0
 10
53.161851
 20
223.783124
 30
0.0
 10
53.254050
 20
223.669248
 30
0.0
 10
53.333851
 20
223.546322
 30
0.0
 10
53.400452
 20
223.415724
 30
0.0
 10
53.452951
 20
223.278934
 30
0.0
 10
53.490852
 20
223.137435
 30
0.0
 10
53.513765
 20
222.992629
 30
0.0
 10
53.521451
 20
222.846340
 30
0.0
 10
53.513752
 20
222.700026
 30
0.0
 10
53.490839
 20
222.555246
 30
0.0
 10
53.452951
 20
222.413747
 30
0.0
 10
53.400452
 20
222.276931
 30
0.0
 10
53.333851
 20
222.146332
 30
0.0
 10
53.254050
 20
222.023433
 30
0.0
 10
53.161851
 20
221.909530
 30
0.0
 10
53.058250
 20
221.805946
 30
0.0
 10
52.944350
 20
221.713739
 30
0.0
 10
52.821451
 20
221.633940
 30
0.0
 10
52.690850
 20
221.567345
 30
0.0
 10
52.554050
 20
221.514825
 30
0.0
 10
52.412551
 20
221.476936
 30
0.0
 10
52.267752
 20
221.453918
 30
0.0
  0
LWPOLYLINE
  5
13c
100
AcDbEntity
  8
Layer_1
 62
5
100
AcDbPolyline
 90
3
 70
0
 10
52.267752
 20
221.454050
 30
0.0
 10
52.121451
 20
221.446377
 30
0.0
 10
51.975152
 20
221.453997
 30
0.0
  0
LWPOLYLINE
  5
13d
100
AcDbEntity
  8
Layer_1
 62
5
100
AcDbPolyline
 90
2
 70
0
 10
151.975151
 20
221.454050
 30
0.0
 10
151.830349
 20
221.477069
 30
0.0
  0
LWPOLYLINE
  5
13e
100
AcDbEntity
  8
Layer_1
 62
5
100
AcDbPolyline
 90
28
 70
0
 10
151.830349
 20
221.476936
 30
0.0
 10
151.688850
 20
221.514825
 30
0.0
 10
151.552050
 20
221.567345
 30
0.0
 10
151.421452
 20
221.633940
 30
0.0
 10
151.298550
 20
221.713739
 30
0.0
 10
151.184650
 20
221.805946
 30
0.0
 10
151.081052
 20
221.909530
 30
0.0
 10
150.988850
 20
222.023433
 30
0.0
 10
150.909052
 20
222.146332
 30
0.0
 10
150.842451
 20
222.276931
 30
0.0
 10
150.789950
 20
222.413747
 30
0.0
 10
150.752051
 20
222.555246
 30
0.0
 10
150.729164
 20
222.700026
 30
0.0
 10
150.721452
 20
222.846340
 30
0.0
 10
150.729151
 20
222.992629
 30
0.0
 10
150.752037
 20
223.137435
 30
0.0
 10
150.789950
 20
223.278934
 30
0.0
 10
150.842451
 20
223.415724
 30
0.0
 10
150.909052
 20
223.546322
 30
0.0
 10
150.988850
 20
223.669248
 30
0.0
 10
151.081052
 20
223.783124
 30
0.0
 10
151.184650
 20
223.886735
 30
0.0
 10
151.298550
 20
223.978942
 30
0.0
 10
151.421452
 20
224.058741
 30
0.0
 10
151.552050
 20
224.125336
 30
0.0
 10
151.688850
 20
224.177830
 30
0.0
 10
151.830349
 20
224.215744
 30
0.0
 10
151.975151
 20
224.238763
 30
0.0
  0
LWPOLYLINE
  5
13f
100
AcDbEntity
  8
Layer_1
 62
5
100
AcDbPolyline
 90
4
 70
0
 10
151.975151
 20
224.238631
 30
0.0
 10
152.121452
 20
224.246304
 30
0.0
 10
152.267751
 20
224.238657
 30
0.0
 10
152.412552
 20
224.215612
 30
0.0
  0
LWPOLYLINE
  5
140
100
AcDbEntity
  8
Layer_1
 62
5
100
AcDbPolyline
 90
28
 70
0
 10
152.412552
 20
224.215744
 30
0.0
 10
152.554051
 20
224.177830
 30
0.0
 10
152.690851
 20
224.125336
 30
0.0
 10
152.821449
 20
224.058741
 30
0.0
 10
152.944351
 20
223.978942
 30
0.0
 10
153.058252
 20
223.886735
 30
0.0
 10
153.161852
 20
223.783124
 30
0.0
 10
153.254051
 20
223.669248
 30
0.0
 10
153.333850
 20
223.546322
 30
0.0
 10
153.400450
 20
223.415724
 30
0.0
 10
153.452952
 20
223.278934
 30
0.0
 10
153.490851
 20
223.137435
 30
0.0
 10
153.513737
 20
222.992629
 30
0.0
 10
153.521450
 20
222.846340
 30
0.0
 10
153.513750
 20
222.700026
 30
0.0
 10
153.490864
 20
222.555246
 30
0.0
 10
153.452952
 20
222.413747
 30
0.0
 10
153.400450
 20
222.276931
 30
0.0
 10
153.333850
 20
222.146332
 30
0.0
 10
153.254051
 20
222.023433
 30
0.0
 10
153.161852
 20
221.909530
 30
0.0
 10
153.058252
 20
221.805946
 30
0.0
 10
152.944351
 20
221.713739
 30
0.0
 10
152.821449
 20
221.633940
 30
0.0
 10
152.690851
 20
221.567345
 30
0.0
 10
152.554051
 20
221.514825
 30
0.0
 10
152.412552
 20
221.476936
 30
0.0
 10
152.267751
 20
221.453918
 30
0.0
  0
LWPOLYLINE
  5
141
100
AcDbEntity
  8
Layer_1
 62
5
100
AcDbPolyline
 90
3
 70
0
 10
152.267751
 20
221.454050
 30
0.0
 10
152.121452
 20
221.446377
 30
0.0
 10
151.975151
 20
221.453997
 30
0.0
  0
LWPOLYLINE
  5
142
100
AcDbEntity
  8
Layer_1
 62
5
100
AcDbPolyline
 90
4
 70
1
 10
217.121452
 20
191.846328
 30
0.0
 10
217.121452
 20
218.846343
 30
0.0
 10
313.121450
 20
218.846343
 30
0.0
 10
313.121450
 20
191.846328
 30
0.0
  0
LWPOLYLINE
  5
143
100
AcDbEntity
  8
Layer_1
 62
5
100
AcDbPolyline
 90
4
 70
1
 10
55.121450
 20
193.846340
 30
0.0
 10
55.121450
 20
216.846331
 30
0.0
 10
151.121451
 20
216.846331
 30
0.0
 10
151.121451
 20
193.846340
 30
0.0
  0
LWPOLYLINE
  5
144
100
AcDbEntity
  8
Layer_1
 62
5
100
AcDbPolyline
 90
2
 70
0
 10
51.975152
 20
186.454014
 30
0.0
 10
51.830351
 20
186.477033
 30
0.0
  0
LWPOLYLINE
  5
145
100
AcDbEntity
  8
Layer_1
 62
5
100
AcDbPolyline
 90
28
 70
0
 10
51.830351
 20
186.476927
 30
0.0
 10
51.688852
 20
186.514868
 30
0.0
 10
51.552052
 20
186.567362
 30
0.0
 10
51.421451
 20
186.633878
 30
0.0
 10
51.298552
 20
186.713703
 30
0.0
 10
51.184651
 20
186.805936
 30
0.0
 10
51.081051
 20
186.909547
 30
0.0
 10
50.988852
 20
187.023424
 30
0.0
 10
50.909051
 20
187.146323
 30
0.0
 10
50.842450
 20
187.276948
 30
0.0
 10
50.789951
 20
187.413737
 30
0.0
 10
50.752052
 20
187.555236
 30
0.0
 10
50.729139
 20
187.700043
 30
0.0
 10
50.721450
 20
187.846331
 30
0.0
 10
50.729150
 20
187.992646
 30
0.0
 10
50.752063
 20
188.137426
 30
0.0
 10
50.789951
 20
188.278925
 30
0.0
 10
50.842450
 20
188.415741
 30
0.0
 10
50.909051
 20
188.546339
 30
0.0
 10
50.988852
 20
188.669238
 30
0.0
 10
51.081051
 20
188.783141
 30
0.0
 10
51.184651
 20
188.886726
 30
0.0
 10
51.298552
 20
188.978933
 30
0.0
 10
51.421451
 20
189.058731
 30
0.0
 10
51.552052
 20
189.125327
 30
0.0
 10
51.688852
 20
189.177847
 30
0.0
 10
51.830351
 20
189.215735
 30
0.0
 10
51.975152
 20
189.238754
 30
0.0
  0
LWPOLYLINE
  5
146
100
AcDbEntity
  8
Layer_1
 62
5
100
AcDbPolyline
 90
4
 70
0
 10
51.975152
 20
189.238648
 30
0.0
 10
52.121451
 20
189.246321
 30
0.0
 10
52.267752
 20
189.238674
 30
0.0
 10
52.412551
 20
189.215629
 30
0.0
  0
LWPOLYLINE
  5
147
100
AcDbEntity
  8
Layer_1
 62
5
100
AcDbPolyline
 90
28
 70
0
 10
52.412551
 20
189.215735
 30
0.0
 10
52.554050
 20
189.177847
 30
0.0
 10
52.690850
 20
189.125327
 30
0.0
 10
52.821451
 20
189.058731
 30
0.0
 10
52.944350
 20
188.978933
 30
0.0
 10
53.058250
 20
188.886726
 30
0.0
 10
53.161851
 20
188.783141
 30
0.0
 10
53.254050
 20
188.669238
 30
0.0
 10
53.333851
 20
188.546339
 30
0.0
 10
53.400452
 20
188.415741
 30
0.0
 10
53.452951
 20
188.278925
 30
0.0
 10
53.490852
 20
188.137426
 30
0.0
 10
53.513765
 20
187.992646
 30
0.0
 10
53.521451
 20
187.846331
 30
0.0
 10
53.513752
 20
187.700043
 30
0.0
 10
53.490839
 20
187.555236
 30
0.0
 10
53.452951
 20
187.413737
 30
0.0
 10
53.400452
 20
187.276948
 30
0.0
 10
53.333851
 20
187.146323
 30
0.0
 10
53.254050
 20
187.023424
 30
0.0
 10
53.161851
 20
186.909547
 30
0.0
 10
53.058250
 20
186.805936
 30
0.0
 10
52.944350
 20
186.713703
 30
0.0
 10
52.821451
 20
186.633878
 30
0.0
 10
52.690850
 20
186.567362
 30
0.0
 10
52.554050
 20
186.514868
 30
0.0
 10
52.412551
 20
186.476927
 30
0.0
 10
52.267752
 20
186.453908
 30
0.0
  0
LWPOLYLINE
  5
148
100
AcDbEntity
  8
Layer_1
 62
5
100
AcDbPolyline
 90
3
 70
0
 10
52.267752
 20
186.454014
 30
0.0
 10
52.121451
 20
186.446341
 30
0.0
 10
51.975152
 20
186.453988
 30
0.0
  0
LWPOLYLINE
  5
149
100
AcDbEntity
  8
Layer_1
 62
5
100
AcDbPolyline
 90
2
 70
0
 10
313.975451
 20
186.454014
 30
0.0
 10
313.830451
 20
186.477033
 30
0.0
  0
LWPOLYLINE
  5
14a
100
AcDbEntity
  8
Layer_1
 62
5
100
AcDbPolyline
 90
28
 70
0
 10
313.830451
 20
186.476927
 30
0.0
 10
313.688450
 20
186.514868
 30
0.0
 10
313.552451
 20
186.567362
 30
0.0
 10
313.421451
 20
186.633878
 30
0.0
 10
313.298451
 20
186.713703
 30
0.0
 10
313.184450
 20
186.805936
 30
0.0
 10
313.081450
 20
186.909547
 30
0.0
 10
312.988452
 20
187.023424
 30
0.0
 10
312.909450
 20
187.146323
 30
0.0
 10
312.842452
 20
187.276948
 30
0.0
 10
312.790451
 20
187.413737
 30
0.0
 10
312.752452
 20
187.555236
 30
0.0
 10
312.729459
 20
187.700043
 30
0.0
 10
312.721461
 20
187.846331
 30
0.0
 10
312.729441
 20
187.992646
 30
0.0
 10
312.752444
 20
188.137426
 30
0.0
 10
312.790451
 20
188.278925
 30
0.0
 10
312.842452
 20
188.415741
 30
0.0
 10
312.909450
 20
188.546339
 30
0.0
 10
312.988452
 20
188.669238
 30
0.0
 10
313.081450
 20
188.783141
 30
0.0
 10
313.184450
 20
188.886726
 30
0.0
 10
313.298451
 20
188.978933
 30
0.0
 10
313.421451
 20
189.058731
 30
0.0
 10
313.552451
 20
189.125327
 30
0.0
 10
313.688450
 20
189.177847
 30
0.0
 10
313.830451
 20
189.215735
 30
0.0
 10
313.975451
 20
189.238754
 30
0.0
  0
LWPOLYLINE
  5
14b
100
AcDbEntity
  8
Layer_1
 62
5
100
AcDbPolyline
 90
4
 70
0
 10
313.975451
 20
189.238648
 30
0.0
 10
314.121451
 20
189.246321
 30
0.0
 10
314.267450
 20
189.238674
 30
0.0
 10
314.412450
 20
189.215629
 30
0.0
  0
LWPOLYLINE
  5
14c
100
AcDbEntity
  8
Layer_1
 62
5
100
AcDbPolyline
 90
28
 70
0
 10
314.412450
 20
189.215735
 30
0.0
 10
314.554452
 20
189.177847
 30
0.0
 10
314.690450
 20
189.125327
 30
0.0
 10
314.821451
 20
189.058731
 30
0.0
 10
314.944450
 20
188.978933
 30
0.0
 10
315.058451
 20
188.886726
 30
0.0
 10
315.161451
 20
188.783141
 30
0.0
 10
315.254452
 20
188.669238
 30
0.0
 10
315.333451
 20
188.546339
 30
0.0
 10
315.400452
 20
188.415741
 30
0.0
 10
315.452450
 20
188.278925
 30
0.0
 10
315.490450
 20
188.137426
 30
0.0
 10
315.513442
 20
187.992646
 30
0.0
 10
315.521441
 20
187.846331
 30
0.0
 10
315.513461
 20
187.700043
 30
0.0
 10
315.490458
 20
187.555236
 30
0.0
 10
315.452450
 20
187.413737
 30
0.0
 10
315.400452
 20
187.276948
 30
0.0
 10
315.333451
 20
187.146323
 30
0.0
 10
315.254452
 20
187.023424
 30
0.0
 10
315.161451
 20
186.909547
 30
0.0
 10
315.058451
 20
186.805936
 30
0.0
 10
314.944450
 20
186.713703
 30
0.0
 10
314.821451
 20
186.633878
 30
0.0
 10
314.690450
 20
186.567362
 30
0.0
 10
314.554452
 20
186.514868
 30
0.0
 10
314.412450
 20
186.476927
 30
0.0
 10
314.267450
 20
186.453908
 30
0.0
  0
LWPOLYLINE
  5
14d
100
AcDbEntity
  8
Layer_1
 62
5
100
AcDbPolyline
 90
3
 70
0
 10
314.267450
 20
186.454014
 30
0.0
 10
314.121451
 20
186.446341
 30
0.0
 10
313.975451
 20
186.453988
 30
0.0
  0
LWPOLYLINE
  5
14e
100
AcDbEntity
  8
Layer_1
 62
5
100
AcDbPolyline
 90
2
 70
0
 10
151.975151
 20
186.454014
 30
0.0
 10
151.830349
 20
186.477033
 30
0.0
  0
LWPOLYLINE
  5
14f
100
AcDbEntity
  8
Layer_1
 62
5
100
AcDbPolyline
 90
28
 70
0
 10
151.830349
 20
186.476927
 30
0.0
 10
151.688850
 20
186.514868
 30
0.0
 10
151.552050
 20
186.567362
 30
0.0
 10
151.421452
 20
186.633878
 30
0.0
 10
151.298550
 20
186.713703
 30
0.0
 10
151.184650
 20
186.805936
 30
0.0
 10
151.081052
 20
186.909547
 30
0.0
 10
150.988850
 20
187.023424
 30
0.0
 10
150.909052
 20
187.146323
 30
0.0
 10
150.842451
 20
187.276948
 30
0.0
 10
150.789950
 20
187.413737
 30
0.0
 10
150.752051
 20
187.555236
 30
0.0
 10
150.729164
 20
187.700043
 30
0.0
 10
150.721452
 20
187.846331
 30
0.0
 10
150.729151
 20
187.992646
 30
0.0
 10
150.752037
 20
188.137426
 30
0.0
 10
150.789950
 20
188.278925
 30
0.0
 10
150.842451
 20
188.415741
 30
0.0
 10
150.909052
 20
188.546339
 30
0.0
 10
150.988850
 20
188.669238
 30
0.0
 10
151.081052
 20
188.783141
 30
0.0
 10
151.184650
 20
188.886726
 30
0.0
 10
151.298550
 20
188.978933
 30
0.0
 10
151.421452
 20
189.058731
 30
0.0
 10
151.552050
 20
189.125327
 30
0.0
 10
151.688850
 20
189.177847
 30
0.0
 10
151.830349
 20
189.215735
 30
0.0
 10
151.975151
 20
189.238754
 30
0.0
  0
LWPOLYLINE
  5
150
100
AcDbEntity
  8
Layer_1
 62
5
100
AcDbPolyline
 90
4
 70
0
 10
151.975151
 20
189.238648
 30
0.0
 10
152.121452
 20
189.246321
 30
0.0
 10
152.267751
 20
189.238674
 30
0.0
 10
152.412552
 20
189.215629
 30
0.0
  0
LWPOLYLINE
  5
151
100
AcDbEntity
  8
Layer_1
 62
5
100
AcDbPolyline
 90
28
 70
0
 10
152.412552
 20
189.215735
 30
0.0
 10
152.554051
 20
189.177847
 30
0.0
 10
152.690851
 20
189.125327
 30
0.0
 10
152.821449
 20
189.058731
 30
0.0
 10
152.944351
 20
188.978933
 30
0.0
 10
153.058252
 20
188.886726
 30
0.0
 10
153.161852
 20
188.783141
 30
0.0
 10
153.254051
 20
188.669238
 30
0.0
 10
153.333850
 20
188.546339
 30
0.0
 10
153.400450
 20
188.415741
 30
0.0
 10
153.452952
 20
188.278925
 30
0.0
 10
153.490851
 20
188.137426
 30
0.0
 10
153.513737
 20
187.992646
 30
0.0
 10
153.521450
 20
187.846331
 30
0.0
 10
153.513750
 20
187.700043
 30
0.0
 10
153.490864
 20
187.555236
 30
0.0
 10
153.452952
 20
187.413737
 30
0.0
 10
153.400450
 20
187.276948
 30
0.0
 10
153.333850
 20
187.146323
 30
0.0
 10
153.254051
 20
187.023424
 30
0.0
 10
153.161852
 20
186.909547
 30
0.0
 10
153.058252
 20
186.805936
 30
0.0
 10
152.944351
 20
186.713703
 30
0.0
 10
152.821449
 20
186.633878
 30
0.0
 10
152.690851
 20
186.567362
 30
0.0
 10
152.554051
 20
186.514868
 30
0.0
 10
152.412552
 20
186.476927
 30
0.0
 10
152.267751
 20
186.453908
 30
0.0
  0
LWPOLYLINE
  5
152
100
AcDbEntity
  8
Layer_1
 62
5
100
AcDbPolyline
 90
3
 70
0
 10
152.267751
 20
186.454014
 30
0.0
 10
152.121452
 20
186.446341
 30
0.0
 10
151.975151
 20
186.453988
 30
0.0
  0
LWPOLYLINE
  5
153
100
AcDbEntity
  8
Layer_1
 62
5
100
AcDbPolyline
 90
2
 70
0
 10
213.975450
 20
186.454014
 30
0.0
 10
213.830450
 20
186.477033
 30
0.0
  0
LWPOLYLINE
  5
154
100
AcDbEntity
  8
Layer_1
 62
5
100
AcDbPolyline
 90
28
 70
0
 10
213.830450
 20
186.476927
 30
0.0
 10
213.688451
 20
186.514868
 30
0.0
 10
213.552450
 20
186.567362
 30
0.0
 10
213.421449
 20
186.633878
 30
0.0
 10
213.298450
 20
186.713703
 30
0.0
 10
213.184452
 20
186.805936
 30
0.0
 10
213.081452
 20
186.909547
 30
0.0
 10
212.988451
 20
187.023424
 30
0.0
 10
212.909452
 20
187.146323
 30
0.0
 10
212.842451
 20
187.276948
 30
0.0
 10
212.790450
 20
187.413737
 30
0.0
 10
212.752451
 20
187.555236
 30
0.0
 10
212.729458
 20
187.700043
 30
0.0
 10
212.721460
 20
187.846331
 30
0.0
 10
212.729442
 20
187.992646
 30
0.0
 10
212.752443
 20
188.137426
 30
0.0
 10
212.790450
 20
188.278925
 30
0.0
 10
212.842451
 20
188.415741
 30
0.0
 10
212.909452
 20
188.546339
 30
0.0
 10
212.988451
 20
188.669238
 30
0.0
 10
213.081452
 20
188.783141
 30
0.0
 10
213.184452
 20
188.886726
 30
0.0
 10
213.298450
 20
188.978933
 30
0.0
 10
213.421449
 20
189.058731
 30
0.0
 10
213.552450
 20
189.125327
 30
0.0
 10
213.688451
 20
189.177847
 30
0.0
 10
213.830450
 20
189.215735
 30
0.0
 10
213.975450
 20
189.238754
 30
0.0
  0
LWPOLYLINE
  5
155
100
AcDbEntity
  8
Layer_1
 62
5
100
AcDbPolyline
 90
4
 70
0
 10
213.975450
 20
189.238648
 30
0.0
 10
214.121450
 20
189.246321
 30
0.0
 10
214.267449
 20
189.238674
 30
0.0
 10
214.412452
 20
189.215629
 30
0.0
  0
LWPOLYLINE
  5
156
100
AcDbEntity
  8
Layer_1
 62
5
100
AcDbPolyline
 90
28
 70
0
 10
214.412452
 20
189.215735
 30
0.0
 10
214.554451
 20
189.177847
 30
0.0
 10
214.690452
 20
189.125327
 30
0.0
 10
214.821450
 20
189.058731
 30
0.0
 10
214.944452
 20
188.978933
 30
0.0
 10
215.058450
 20
188.886726
 30
0.0
 10
215.161450
 20
188.783141
 30
0.0
 10
215.254451
 20
188.669238
 30
0.0
 10
215.333450
 20
188.546339
 30
0.0
 10
215.400451
 20
188.415741
 30
0.0
 10
215.452452
 20
188.278925
 30
0.0
 10
215.490451
 20
188.137426
 30
0.0
 10
215.513444
 20
187.992646
 30
0.0
 10
215.521442
 20
187.846331
 30
0.0
 10
215.513460
 20
187.700043
 30
0.0
 10
215.490459
 20
187.555236
 30
0.0
 10
215.452452
 20
187.413737
 30
0.0
 10
215.400451
 20
187.276948
 30
0.0
 10
215.333450
 20
187.146323
 30
0.0
 10
215.254451
 20
187.023424
 30
0.0
 10
215.161450
 20
186.909547
 30
0.0
 10
215.058450
 20
186.805936
 30
0.0
 10
214.944452
 20
186.713703
 30
0.0
 10
214.821450
 20
186.633878
 30
0.0
 10
214.690452
 20
186.567362
 30
0.0
 10
214.554451
 20
186.514868
 30
0.0
 10
214.412452
 20
186.476927
 30
0.0
 10
214.267449
 20
186.453908
 30
0.0
  0
LWPOLYLINE
  5
157
100
AcDbEntity
  8
Layer_1
 62
5
100
AcDbPolyline
 90
3
 70
0
 10
214.267449
 20
186.454014
 30
0.0
 10
214.121450
 20
186.446341
 30
0.0
 10
213.975450
 20
186.453988
 30
0.0
  0
LWPOLYLINE
  5
158
100
AcDbEntity
  8
Layer_1
 62
5
100
AcDbPolyline
 90
2
 70
0
 10
269.833894
 20
48.996623
 30
0.0
 10
269.688895
 20
49.019377
 30
0.0
  0
LWPOLYLINE
  5
159
100
AcDbEntity
  8
Layer_1
 62
5
100
AcDbPolyline
 90
28
 70
0
 10
269.688895
 20
49.019535
 30
0.0
 10
269.546895
 20
49.057424
 30
0.0
 10
269.410894
 20
49.109917
 30
0.0
 10
269.279894
 20
49.176539
 30
0.0
 10
269.156894
 20
49.256338
 30
0.0
 10
269.042896
 20
49.348518
 30
0.0
 10
268.939896
 20
49.452129
 30
0.0
 10
268.846895
 20
49.566032
 30
0.0
 10
268.767896
 20
49.688931
 30
0.0
 10
268.700896
 20
49.819530
 30
0.0
 10
268.648894
 20
49.956319
 30
0.0
 10
268.610895
 20
50.097818
 30
0.0
 10
268.587903
 20
50.242625
 30
0.0
 10
268.579904
 20
50.388939
 30
0.0
 10
268.587887
 20
50.535228
 30
0.0
 10
268.610887
 20
50.680034
 30
0.0
 10
268.648894
 20
50.821533
 30
0.0
 10
268.700896
 20
50.958323
 30
0.0
 10
268.767896
 20
51.088921
 30
0.0
 10
268.846895
 20
51.211820
 30
0.0
 10
268.939896
 20
51.325723
 30
0.0
 10
269.042896
 20
51.429334
 30
0.0
 10
269.156894
 20
51.521541
 30
0.0
 10
269.279894
 20
51.601340
 30
0.0
 10
269.410894
 20
51.667935
 30
0.0
 10
269.546895
 20
51.720429
 30
0.0
 10
269.688895
 20
51.758317
 30
0.0
 10
269.833894
 20
51.781336
 30
0.0
  0
LWPOLYLINE
  5
15a
100
AcDbEntity
  8
Layer_1
 62
5
100
AcDbPolyline
 90
4
 70
0
 10
269.833894
 20
51.781230
 30
0.0
 10
269.979894
 20
51.788903
 30
0.0
 10
270.125894
 20
51.781256
 30
0.0
 10
270.270896
 20
51.758211
 30
0.0
  0
LWPOLYLINE
  5
15b
100
AcDbEntity
  8
Layer_1
 62
5
100
AcDbPolyline
 90
28
 70
0
 10
270.270896
 20
51.758317
 30
0.0
 10
270.412895
 20
51.720429
 30
0.0
 10
270.548896
 20
51.667935
 30
0.0
 10
270.679894
 20
51.601340
 30
0.0
 10
270.802896
 20
51.521541
 30
0.0
 10
270.916895
 20
51.429334
 30
0.0
 10
271.019894
 20
51.325723
 30
0.0
 10
271.112895
 20
51.211820
 30
0.0
 10
271.191895
 20
51.088921
 30
0.0
 10
271.258895
 20
50.958323
 30
0.0
 10
271.310896
 20
50.821533
 30
0.0
 10
271.348896
 20
50.680034
 30
0.0
 10
271.371888
 20
50.535228
 30
0.0
 10
271.379886
 20
50.388939
 30
0.0
 10
271.371904
 20
50.242625
 30
0.0
 10
271.348904
 20
50.097818
 30
0.0
 10
271.310896
 20
49.956319
 30
0.0
 10
271.258895
 20
49.819530
 30
0.0
 10
271.191895
 20
49.688931
 30
0.0
 10
271.112895
 20
49.566032
 30
0.0
 10
271.019894
 20
49.452129
 30
0.0
 10
270.916895
 20
49.348518
 30
0.0
 10
270.802896
 20
49.256338
 30
0.0
 10
270.679894
 20
49.176539
 30
0.0
 10
270.548896
 20
49.109917
 30
0.0
 10
270.412895
 20
49.057424
 30
0.0
 10
270.270896
 20
49.019535
 30
0.0
 10
270.125894
 20
48.996781
 30
0.0
  0
LWPOLYLINE
  5
15c
100
AcDbEntity
  8
Layer_1
 62
5
100
AcDbPolyline
 90
3
 70
0
 10
270.125894
 20
48.996623
 30
0.0
 10
269.979894
 20
48.988950
 30
0.0
 10
269.833894
 20
48.996596
 30
0.0
  0
LWPOLYLINE
  5
15d
100
AcDbEntity
  8
Layer_1
 62
5
100
AcDbPolyline
 90
28
 70
0
 10
370.270881
 20
51.758317
 30
0.0
 10
370.412883
 20
51.720429
 30
0.0
 10
370.548905
 20
51.667935
 30
0.0
 10
370.679901
 20
51.601340
 30
0.0
 10
370.802905
 20
51.521541
 30
0.0
 10
370.916888
 20
51.429334
 30
0.0
 10
371.019890
 20
51.325723
 30
0.0
 10
371.112891
 20
51.211820
 30
0.0
 10
371.191896
 20
51.088921
 30
0.0
 10
371.258888
 20
50.958323
 30
0.0
 10
371.310905
 20
50.821533
 30
0.0
 10
371.348900
 20
50.680034
 30
0.0
 10
371.371918
 20
50.535228
 30
0.0
 10
371.379829
 20
50.388939
 30
0.0
 10
371.371945
 20
50.242625
 30
0.0
 10
371.348873
 20
50.097818
 30
0.0
 10
371.310905
 20
49.956319
 30
0.0
 10
371.258888
 20
49.819530
 30
0.0
 10
371.191896
 20
49.688931
 30
0.0
 10
371.112891
 20
49.566032
 30
0.0
 10
371.019890
 20
49.452129
 30
0.0
 10
370.916888
 20
49.348518
 30
0.0
 10
370.802905
 20
49.256338
 30
0.0
 10
370.679901
 20
49.176539
 30
0.0
 10
370.548905
 20
49.109917
 30
0.0
 10
370.412883
 20
49.057424
 30
0.0
 10
370.270881
 20
49.019535
 30
0.0
 10
370.125890
 20
48.996781
 30
0.0
  0
LWPOLYLINE
  5
15e
100
AcDbEntity
  8
Layer_1
 62
5
100
AcDbPolyline
 90
4
 70
0
 10
370.125890
 20
48.996623
 30
0.0
 10
369.979893
 20
48.988950
 30
0.0
 10
369.833895
 20
48.996596
 30
0.0
 10
369.688904
 20
49.019377
 30
0.0
  0
LWPOLYLINE
  5
15f
100
AcDbEntity
  8
Layer_1
 62
5
100
AcDbPolyline
 90
28
 70
0
 10
369.688904
 20
49.019535
 30
0.0
 10
369.546902
 20
49.057424
 30
0.0
 10
369.410906
 20
49.109917
 30
0.0
 10
369.279884
 20
49.176539
 30
0.0
 10
369.156906
 20
49.256338
 30
0.0
 10
369.042897
 20
49.348518
 30
0.0
 10
368.939895
 20
49.452129
 30
0.0
 10
368.846894
 20
49.566032
 30
0.0
 10
368.767889
 20
49.688931
 30
0.0
 10
368.700897
 20
49.819530
 30
0.0
 10
368.648906
 20
49.956319
 30
0.0
 10
368.610885
 20
50.097818
 30
0.0
 10
368.587867
 20
50.242625
 30
0.0
 10
368.579956
 20
50.388939
 30
0.0
 10
368.587840
 20
50.535228
 30
0.0
 10
368.610912
 20
50.680034
 30
0.0
 10
368.648906
 20
50.821533
 30
0.0
 10
368.700897
 20
50.958323
 30
0.0
 10
368.767889
 20
51.088921
 30
0.0
 10
368.846894
 20
51.211820
 30
0.0
 10
368.939895
 20
51.325723
 30
0.0
 10
369.042897
 20
51.429334
 30
0.0
 10
369.156906
 20
51.521541
 30
0.0
 10
369.279884
 20
51.601340
 30
0.0
 10
369.410906
 20
51.667935
 30
0.0
 10
369.546902
 20
51.720429
 30
0.0
 10
369.688904
 20
51.758317
 30
0.0
 10
369.833895
 20
51.781336
 30
0.0
  0
LWPOLYLINE
  5
160
100
AcDbEntity
  8
Layer_1
 62
5
100
AcDbPolyline
 90
4
 70
0
 10
369.833895
 20
51.781230
 30
0.0
 10
369.979893
 20
51.788903
 30
0.0
 10
370.125890
 20
51.781256
 30
0.0
 10
370.270881
 20
51.758211
 30
0.0
  0
LWPOLYLINE
  5
161
100
AcDbEntity
  8
Layer_1
 62
5
100
AcDbPolyline
 90
4
 70
1
 10
272.979896
 20
19.388927
 30
0.0
 10
272.979896
 20
46.388916
 30
0.0
 10
368.979900
 20
46.388916
 30
0.0
 10
368.979900
 20
19.388927
 30
0.0
  0
LWPOLYLINE
  5
162
100
AcDbEntity
  8
Layer_1
 62
5
100
AcDbPolyline
 90
2
 70
0
 10
369.833895
 20
13.996613
 30
0.0
 10
369.688904
 20
14.019632
 30
0.0
  0
LWPOLYLINE
  5
163
100
AcDbEntity
  8
Layer_1
 62
5
100
AcDbPolyline
 90
28
 70
0
 10
369.688904
 20
14.019526
 30
0.0
 10
369.546902
 20
14.057467
 30
0.0
 10
369.410906
 20
14.109961
 30
0.0
 10
369.279884
 20
14.176477
 30
0.0
 10
369.156906
 20
14.256302
 30
0.0
 10
369.042897
 20
14.348535
 30
0.0
 10
368.939895
 20
14.452146
 30
0.0
 10
368.846894
 20
14.566023
 30
0.0
 10
368.767889
 20
14.688922
 30
0.0
 10
368.700897
 20
14.819547
 30
0.0
 10
368.648906
 20
14.956336
 30
0.0
 10
368.610885
 20
15.097835
 30
0.0
 10
368.587867
 20
15.242642
 30
0.0
 10
368.579956
 20
15.388930
 30
0.0
 10
368.587840
 20
15.535245
 30
0.0
 10
368.610912
 20
15.680025
 30
0.0
 10
368.648906
 20
15.821524
 30
0.0
 10
368.700897
 20
15.958340
 30
0.0
 10
368.767889
 20
16.088938
 30
0.0
 10
368.846894
 20
16.211837
 30
0.0
 10
368.939895
 20
16.325740
 30
0.0
 10
369.042897
 20
16.429325
 30
0.0
 10
369.156906
 20
16.521532
 30
0.0
 10
369.279884
 20
16.601330
 30
0.0
 10
369.410906
 20
16.667926
 30
0.0
 10
369.546902
 20
16.720446
 30
0.0
 10
369.688904
 20
16.758334
 30
0.0
 10
369.833895
 20
16.781353
 30
0.0
  0
LWPOLYLINE
  5
164
100
AcDbEntity
  8
Layer_1
 62
5
100
AcDbPolyline
 90
4
 70
0
 10
369.833895
 20
16.781247
 30
0.0
 10
369.979893
 20
16.788920
 30
0.0
 10
370.125890
 20
16.781273
 30
0.0
 10
370.270881
 20
16.758228
 30
0.0
  0
LWPOLYLINE
  5
165
100
AcDbEntity
  8
Layer_1
 62
5
100
AcDbPolyline
 90
28
 70
0
 10
370.270881
 20
16.758334
 30
0.0
 10
370.412883
 20
16.720446
 30
0.0
 10
370.548905
 20
16.667926
 30
0.0
 10
370.679901
 20
16.601330
 30
0.0
 10
370.802905
 20
16.521532
 30
0.0
 10
370.916888
 20
16.429325
 30
0.0
 10
371.019890
 20
16.325740
 30
0.0
 10
371.112891
 20
16.211837
 30
0.0
 10
371.191896
 20
16.088938
 30
0.0
 10
371.258888
 20
15.958340
 30
0.0
 10
371.310905
 20
15.821524
 30
0.0
 10
371.348900
 20
15.680025
 30
0.0
 10
371.371918
 20
15.535245
 30
0.0
 10
371.379829
 20
15.388930
 30
0.0
 10
371.371945
 20
15.242642
 30
0.0
 10
371.348873
 20
15.097835
 30
0.0
 10
371.310905
 20
14.956336
 30
0.0
 10
371.258888
 20
14.819547
 30
0.0
 10
371.191896
 20
14.688922
 30
0.0
 10
371.112891
 20
14.566023
 30
0.0
 10
371.019890
 20
14.452146
 30
0.0
 10
370.916888
 20
14.348535
 30
0.0
 10
370.802905
 20
14.256302
 30
0.0
 10
370.679901
 20
14.176477
 30
0.0
 10
370.548905
 20
14.109961
 30
0.0
 10
370.412883
 20
14.057467
 30
0.0
 10
370.270881
 20
14.019526
 30
0.0
 10
370.125890
 20
13.996507
 30
0.0
  0
LWPOLYLINE
  5
166
100
AcDbEntity
  8
Layer_1
 62
5
100
AcDbPolyline
 90
3
 70
0
 10
370.125890
 20
13.996613
 30
0.0
 10
369.979893
 20
13.988940
 30
0.0
 10
369.833895
 20
13.996587
 30
0.0
  0
LWPOLYLINE
  5
167
100
AcDbEntity
  8
Layer_1
 62
5
100
AcDbPolyline
 90
2
 70
0
 10
269.833894
 20
13.996613
 30
0.0
 10
269.688895
 20
14.019632
 30
0.0
  0
LWPOLYLINE
  5
168
100
AcDbEntity
  8
Layer_1
 62
5
100
AcDbPolyline
 90
28
 70
0
 10
269.688895
 20
14.019526
 30
0.0
 10
269.546895
 20
14.057467
 30
0.0
 10
269.410894
 20
14.109961
 30
0.0
 10
269.279894
 20
14.176477
 30
0.0
 10
269.156894
 20
14.256302
 30
0.0
 10
269.042896
 20
14.348535
 30
0.0
 10
268.939896
 20
14.452146
 30
0.0
 10
268.846895
 20
14.566023
 30
0.0
 10
268.767896
 20
14.688922
 30
0.0
 10
268.700896
 20
14.819547
 30
0.0
 10
268.648894
 20
14.956336
 30
0.0
 10
268.610895
 20
15.097835
 30
0.0
 10
268.587903
 20
15.242642
 30
0.0
 10
268.579904
 20
15.388930
 30
0.0
 10
268.587887
 20
15.535245
 30
0.0
 10
268.610887
 20
15.680025
 30
0.0
 10
268.648894
 20
15.821524
 30
0.0
 10
268.700896
 20
15.958340
 30
0.0
 10
268.767896
 20
16.088938
 30
0.0
 10
268.846895
 20
16.211837
 30
0.0
 10
268.939896
 20
16.325740
 30
0.0
 10
269.042896
 20
16.429325
 30
0.0
 10
269.156894
 20
16.521532
 30
0.0
 10
269.279894
 20
16.601330
 30
0.0
 10
269.410894
 20
16.667926
 30
0.0
 10
269.546895
 20
16.720446
 30
0.0
 10
269.688895
 20
16.758334
 30
0.0
 10
269.833894
 20
16.781353
 30
0.0
  0
LWPOLYLINE
  5
169
100
AcDbEntity
  8
Layer_1
 62
5
100
AcDbPolyline
 90
4
 70
0
 10
269.833894
 20
16.781247
 30
0.0
 10
269.979894
 20
16.788920
 30
0.0
 10
270.125894
 20
16.781273
 30
0.0
 10
270.270896
 20
16.758228
 30
0.0
  0
LWPOLYLINE
  5
16a
100
AcDbEntity
  8
Layer_1
 62
5
100
AcDbPolyline
 90
28
 70
0
 10
270.270896
 20
16.758334
 30
0.0
 10
270.412895
 20
16.720446
 30
0.0
 10
270.548896
 20
16.667926
 30
0.0
 10
270.679894
 20
16.601330
 30
0.0
 10
270.802896
 20
16.521532
 30
0.0
 10
270.916895
 20
16.429325
 30
0.0
 10
271.019894
 20
16.325740
 30
0.0
 10
271.112895
 20
16.211837
 30
0.0
 10
271.191895
 20
16.088938
 30
0.0
 10
271.258895
 20
15.958340
 30
0.0
 10
271.310896
 20
15.821524
 30
0.0
 10
271.348896
 20
15.680025
 30
0.0
 10
271.371888
 20
15.535245
 30
0.0
 10
271.379886
 20
15.388930
 30
0.0
 10
271.371904
 20
15.242642
 30
0.0
 10
271.348904
 20
15.097835
 30
0.0
 10
271.310896
 20
14.956336
 30
0.0
 10
271.258895
 20
14.819547
 30
0.0
 10
271.191895
 20
14.688922
 30
0.0
 10
271.112895
 20
14.566023
 30
0.0
 10
271.019894
 20
14.452146
 30
0.0
 10
270.916895
 20
14.348535
 30
0.0
 10
270.802896
 20
14.256302
 30
0.0
 10
270.679894
 20
14.176477
 30
0.0
 10
270.548896
 20
14.109961
 30
0.0
 10
270.412895
 20
14.057467
 30
0.0
 10
270.270896
 20
14.019526
 30
0.0
 10
270.125894
 20
13.996507
 30
0.0
  0
LWPOLYLINE
  5
16b
100
AcDbEntity
  8
Layer_1
 62
5
100
AcDbPolyline
 90
3
 70
0
 10
270.125894
 20
13.996613
 30
0.0
 10
269.979894
 20
13.988940
 30
0.0
 10
269.833894
 20
13.996587
 30
0.0
  0
LWPOLYLINE
  5
16c
100
AcDbEntity
  8
Layer_1
 62
5
100
AcDbPolyline
 90
60
 70
1
 10
216.483168
 20
105.264383
 30
0.0
 10
216.338176
 20
105.287269
 30
0.0
 10
216.196175
 20
105.325181
 30
0.0
 10
216.060179
 20
105.377682
 30
0.0
 10
215.929184
 20
105.444281
 30
0.0
 10
215.806179
 20
105.524082
 30
0.0
 10
215.692170
 20
105.616281
 30
0.0
 10
215.589168
 20
105.719881
 30
0.0
 10
215.496166
 20
105.833782
 30
0.0
 10
215.417162
 20
105.956681
 30
0.0
 10
215.350169
 20
106.087282
 30
0.0
 10
215.298179
 20
106.224082
 30
0.0
 10
215.260158
 20
106.365581
 30
0.0
 10
215.237139
 20
106.510382
 30
0.0
 10
215.229228
 20
106.656681
 30
0.0
 10
215.237113
 20
106.802982
 30
0.0
 10
215.260185
 20
106.947781
 30
0.0
 10
215.298179
 20
107.089283
 30
0.0
 10
215.350169
 20
107.226083
 30
0.0
 10
215.417162
 20
107.356681
 30
0.0
 10
215.496166
 20
107.479583
 30
0.0
 10
215.589168
 20
107.593481
 30
0.0
 10
215.692170
 20
107.697081
 30
0.0
 10
215.806179
 20
107.789283
 30
0.0
 10
215.929184
 20
107.869081
 30
0.0
 10
216.060179
 20
107.935682
 30
0.0
 10
216.196175
 20
107.988181
 30
0.0
 10
216.338176
 20
108.026082
 30
0.0
 10
216.483168
 20
108.048969
 30
0.0
 10
216.629165
 20
108.056681
 30
0.0
 10
216.775162
 20
108.048982
 30
0.0
 10
216.920180
 20
108.026096
 30
0.0
 10
217.062182
 20
107.988181
 30
0.0
 10
217.198178
 20
107.935682
 30
0.0
 10
217.329173
 20
107.869081
 30
0.0
 10
217.452178
 20
107.789283
 30
0.0
 10
217.566161
 20
107.697081
 30
0.0
 10
217.669163
 20
107.593481
 30
0.0
 10
217.762164
 20
107.479583
 30
0.0
 10
217.841169
 20
107.356681
 30
0.0
 10
217.908161
 20
107.226083
 30
0.0
 10
217.960178
 20
107.089283
 30
0.0
 10
217.998172
 20
106.947781
 30
0.0
 10
218.021191
 20
106.802982
 30
0.0
 10
218.029102
 20
106.656681
 30
0.0
 10
218.021244
 20
106.510382
 30
0.0
 10
217.998146
 20
106.365581
 30
0.0
 10
217.960178
 20
106.224082
 30
0.0
 10
217.908161
 20
106.087282
 30
0.0
 10
217.841169
 20
105.956681
 30
0.0
 10
217.762164
 20
105.833782
 30
0.0
 10
217.669163
 20
105.719881
 30
0.0
 10
217.566161
 20
105.616281
 30
0.0
 10
217.452178
 20
105.524082
 30
0.0
 10
217.329173
 20
105.444281
 30
0.0
 10
217.198178
 20
105.377682
 30
0.0
 10
217.062182
 20
105.325181
 30
0.0
 10
216.920180
 20
105.287282
 30
0.0
 10
216.775162
 20
105.264396
 30
0.0
 10
216.629165
 20
105.256683
 30
0.0
  0
LWPOLYLINE
  5
16d
100
AcDbEntity
  8
Layer_1
 62
5
100
AcDbPolyline
 90
60
 70
1
 10
266.920160
 20
108.026082
 30
0.0
 10
267.062162
 20
107.988181
 30
0.0
 10
267.198184
 20
107.935682
 30
0.0
 10
267.329179
 20
107.869081
 30
0.0
 10
267.452184
 20
107.789283
 30
0.0
 10
267.566166
 20
107.697081
 30
0.0
 10
267.669169
 20
107.593481
 30
0.0
 10
267.762170
 20
107.479583
 30
0.0
 10
267.841174
 20
107.356681
 30
0.0
 10
267.908167
 20
107.226083
 30
0.0
 10
267.960184
 20
107.089283
 30
0.0
 10
267.998178
 20
106.947781
 30
0.0
 10
268.021197
 20
106.802982
 30
0.0
 10
268.029108
 20
106.656681
 30
0.0
 10
268.021223
 20
106.510382
 30
0.0
 10
267.998152
 20
106.365581
 30
0.0
 10
267.960184
 20
106.224082
 30
0.0
 10
267.908167
 20
106.087282
 30
0.0
 10
267.841174
 20
105.956681
 30
0.0
 10
267.762170
 20
105.833782
 30
0.0
 10
267.669169
 20
105.719881
 30
0.0
 10
267.566166
 20
105.616281
 30
0.0
 10
267.452184
 20
105.524082
 30
0.0
 10
267.329179
 20
105.444281
 30
0.0
 10
267.198184
 20
105.377682
 30
0.0
 10
267.062162
 20
105.325181
 30
0.0
 10
266.920160
 20
105.287282
 30
0.0
 10
266.775168
 20
105.264396
 30
0.0
 10
266.629171
 20
105.256683
 30
0.0
 10
266.483174
 20
105.264380
 30
0.0
 10
266.338182
 20
105.287269
 30
0.0
 10
266.196180
 20
105.325181
 30
0.0
 10
266.060185
 20
105.377682
 30
0.0
 10
265.929163
 20
105.444281
 30
0.0
 10
265.806185
 20
105.524082
 30
0.0
 10
265.692176
 20
105.616281
 30
0.0
 10
265.589173
 20
105.719881
 30
0.0
 10
265.496172
 20
105.833782
 30
0.0
 10
265.417168
 20
105.956681
 30
0.0
 10
265.350175
 20
106.087282
 30
0.0
 10
265.298158
 20
106.224082
 30
0.0
 10
265.260164
 20
106.365581
 30
0.0
 10
265.237145
 20
106.510382
 30
0.0
 10
265.229234
 20
106.656681
 30
0.0
 10
265.237119
 20
106.802982
 30
0.0
 10
265.260190
 20
106.947781
 30
0.0
 10
265.298185
 20
107.089283
 30
0.0
 10
265.350175
 20
107.226083
 30
0.0
 10
265.417168
 20
107.356681
 30
0.0
 10
265.496172
 20
107.479583
 30
0.0
 10
265.589173
 20
107.593481
 30
0.0
 10
265.692176
 20
107.697081
 30
0.0
 10
265.806185
 20
107.789283
 30
0.0
 10
265.929163
 20
107.869081
 30
0.0
 10
266.060158
 20
107.935682
 30
0.0
 10
266.196180
 20
107.988181
 30
0.0
 10
266.338182
 20
108.026082
 30
0.0
 10
266.483174
 20
108.048969
 30
0.0
 10
266.629171
 20
108.056681
 30
0.0
 10
266.775168
 20
108.048982
 30
0.0
  0
LWPOLYLINE
  5
16e
100
AcDbEntity
  8
Layer_1
 62
5
100
AcDbPolyline
 90
60
 70
1
 10
316.483180
 20
105.264383
 30
0.0
 10
316.338162
 20
105.287269
 30
0.0
 10
316.196160
 20
105.325181
 30
0.0
 10
316.060164
 20
105.377682
 30
0.0
 10
315.929169
 20
105.444281
 30
0.0
 10
315.806164
 20
105.524082
 30
0.0
 10
315.692181
 20
105.616281
 30
0.0
 10
315.589179
 20
105.719881
 30
0.0
 10
315.496178
 20
105.833782
 30
0.0
 10
315.417174
 20
105.956681
 30
0.0
 10
315.350181
 20
106.087282
 30
0.0
 10
315.298164
 20
106.224082
 30
0.0
 10
315.260170
 20
106.365581
 30
0.0
 10
315.237151
 20
106.510382
 30
0.0
 10
315.229240
 20
106.656681
 30
0.0
 10
315.237098
 20
106.802982
 30
0.0
 10
315.260196
 20
106.947781
 30
0.0
 10
315.298164
 20
107.089283
 30
0.0
 10
315.350181
 20
107.226083
 30
0.0
 10
315.417174
 20
107.356681
 30
0.0
 10
315.496178
 20
107.479583
 30
0.0
 10
315.589179
 20
107.593481
 30
0.0
 10
315.692181
 20
107.697081
 30
0.0
 10
315.806164
 20
107.789283
 30
0.0
 10
315.929169
 20
107.869081
 30
0.0
 10
316.060164
 20
107.935682
 30
0.0
 10
316.196160
 20
107.988181
 30
0.0
 10
316.338162
 20
108.026082
 30
0.0
 10
316.483180
 20
108.048969
 30
0.0
 10
316.629177
 20
108.056681
 30
0.0
 10
316.775174
 20
108.048982
 30
0.0
 10
316.920166
 20
108.026096
 30
0.0
 10
317.062168
 20
107.988181
 30
0.0
 10
317.198163
 20
107.935682
 30
0.0
 10
317.329185
 20
107.869081
 30
0.0
 10
317.452163
 20
107.789283
 30
0.0
 10
317.566172
 20
107.697081
 30
0.0
 10
317.669175
 20
107.593481
 30
0.0
 10
317.762176
 20
107.479583
 30
0.0
 10
317.841180
 20
107.356681
 30
0.0
 10
317.908173
 20
107.226083
 30
0.0
 10
317.960163
 20
107.089283
 30
0.0
 10
317.998184
 20
106.947781
 30
0.0
 10
318.021203
 20
106.802982
 30
0.0
 10
318.029114
 20
106.656681
 30
0.0
 10
318.021229
 20
106.510382
 30
0.0
 10
317.998158
 20
106.365581
 30
0.0
 10
317.960163
 20
106.224082
 30
0.0
 10
317.908173
 20
106.087282
 30
0.0
 10
317.841180
 20
105.956681
 30
0.0
 10
317.762176
 20
105.833782
 30
0.0
 10
317.669175
 20
105.719881
 30
0.0
 10
317.566172
 20
105.616281
 30
0.0
 10
317.452163
 20
105.524082
 30
0.0
 10
317.329159
 20
105.444281
 30
0.0
 10
317.198163
 20
105.377682
 30
0.0
 10
317.062167
 20
105.325181
 30
0.0
 10
316.920166
 20
105.287282
 30
0.0
 10
316.775174
 20
105.264396
 30
0.0
 10
316.629177
 20
105.256683
 30
0.0
  0
LWPOLYLINE
  5
16f
100
AcDbEntity
  8
Layer_1
 62
5
100
AcDbPolyline
 90
4
 70
1
 10
219.629170
 20
77.656686
 30
0.0
 10
219.629170
 20
100.656682
 30
0.0
 10
315.629158
 20
100.656682
 30
0.0
 10
315.629158
 20
77.656686
 30
0.0
  0
LWPOLYLINE
  5
170
100
AcDbEntity
  8
Layer_1
 62
5
100
AcDbPolyline
 90
2
 70
0
 10
316.483180
 20
70.264360
 30
0.0
 10
316.338162
 20
70.287379
 30
0.0
  0
LWPOLYLINE
  5
171
100
AcDbEntity
  8
Layer_1
 62
5
100
AcDbPolyline
 90
28
 70
0
 10
316.338162
 20
70.287273
 30
0.0
 10
316.196160
 20
70.325214
 30
0.0
 10
316.060164
 20
70.377708
 30
0.0
 10
315.929169
 20
70.444224
 30
0.0
 10
315.806164
 20
70.524049
 30
0.0
 10
315.692181
 20
70.616282
 30
0.0
 10
315.589179
 20
70.719893
 30
0.0
 10
315.496178
 20
70.833770
 30
0.0
 10
315.417174
 20
70.956669
 30
0.0
 10
315.350181
 20
71.087294
 30
0.0
 10
315.298164
 20
71.224083
 30
0.0
 10
315.260170
 20
71.365582
 30
0.0
 10
315.237151
 20
71.510389
 30
0.0
 10
315.229240
 20
71.656677
 30
0.0
 10
315.237098
 20
71.802991
 30
0.0
 10
315.260196
 20
71.947771
 30
0.0
 10
315.298164
 20
72.089271
 30
0.0
 10
315.350181
 20
72.226087
 30
0.0
 10
315.417174
 20
72.356685
 30
0.0
 10
315.496178
 20
72.479584
 30
0.0
 10
315.589179
 20
72.593487
 30
0.0
 10
315.692181
 20
72.697071
 30
0.0
 10
315.806164
 20
72.789279
 30
0.0
 10
315.929169
 20
72.869077
 30
0.0
 10
316.060164
 20
72.935673
 30
0.0
 10
316.196160
 20
72.988193
 30
0.0
 10
316.338162
 20
73.026081
 30
0.0
 10
316.483180
 20
73.049100
 30
0.0
  0
LWPOLYLINE
  5
172
100
AcDbEntity
  8
Layer_1
 62
5
100
AcDbPolyline
 90
4
 70
0
 10
316.483180
 20
73.048994
 30
0.0
 10
316.629177
 20
73.056667
 30
0.0
 10
316.775174
 20
73.049020
 30
0.0
 10
316.920166
 20
73.025975
 30
0.0
  0
LWPOLYLINE
  5
173
100
AcDbEntity
  8
Layer_1
 62
5
100
AcDbPolyline
 90
28
 70
0
 10
316.920166
 20
73.026081
 30
0.0
 10
317.062168
 20
72.988193
 30
0.0
 10
317.198163
 20
72.935673
 30
0.0
 10
317.329185
 20
72.869077
 30
0.0
 10
317.452163
 20
72.789279
 30
0.0
 10
317.566172
 20
72.697071
 30
0.0
 10
317.669175
 20
72.593487
 30
0.0
 10
317.762176
 20
72.479584
 30
0.0
 10
317.841180
 20
72.356685
 30
0.0
 10
317.908173
 20
72.226087
 30
0.0
 10
317.960163
 20
72.089271
 30
0.0
 10
317.998184
 20
71.947771
 30
0.0
 10
318.021203
 20
71.802991
 30
0.0
 10
318.029114
 20
71.656677
 30
0.0
 10
318.021229
 20
71.510389
 30
0.0
 10
317.998158
 20
71.365582
 30
0.0
 10
317.960163
 20
71.224083
 30
0.0
 10
317.908173
 20
71.087294
 30
0.0
 10
317.841180
 20
70.956669
 30
0.0
 10
317.762176
 20
70.833770
 30
0.0
 10
317.669175
 20
70.719893
 30
0.0
 10
317.566172
 20
70.616282
 30
0.0
 10
317.452163
 20
70.524049
 30
0.0
 10
317.329159
 20
70.444224
 30
0.0
 10
317.198163
 20
70.377708
 30
0.0
 10
317.062167
 20
70.325214
 30
0.0
 10
316.920166
 20
70.287273
 30
0.0
 10
316.775174
 20
70.264254
 30
0.0
  0
LWPOLYLINE
  5
174
100
AcDbEntity
  8
Layer_1
 62
5
100
AcDbPolyline
 90
3
 70
0
 10
316.775174
 20
70.264360
 30
0.0
 10
316.629177
 20
70.256687
 30
0.0
 10
316.483180
 20
70.264334
 30
0.0
  0
LWPOLYLINE
  5
175
100
AcDbEntity
  8
Layer_1
 62
5
100
AcDbPolyline
 90
2
 70
0
 10
266.483174
 20
70.264360
 30
0.0
 10
266.338182
 20
70.287379
 30
0.0
  0
LWPOLYLINE
  5
176
100
AcDbEntity
  8
Layer_1
 62
5
100
AcDbPolyline
 90
28
 70
0
 10
266.338182
 20
70.287273
 30
0.0
 10
266.196180
 20
70.325214
 30
0.0
 10
266.060185
 20
70.377708
 30
0.0
 10
265.929163
 20
70.444224
 30
0.0
 10
265.806185
 20
70.524049
 30
0.0
 10
265.692176
 20
70.616282
 30
0.0
 10
265.589173
 20
70.719893
 30
0.0
 10
265.496172
 20
70.833770
 30
0.0
 10
265.417168
 20
70.956669
 30
0.0
 10
265.350175
 20
71.087294
 30
0.0
 10
265.298158
 20
71.224083
 30
0.0
 10
265.260164
 20
71.365582
 30
0.0
 10
265.237145
 20
71.510389
 30
0.0
 10
265.229234
 20
71.656677
 30
0.0
 10
265.237119
 20
71.802991
 30
0.0
 10
265.260190
 20
71.947771
 30
0.0
 10
265.298185
 20
72.089271
 30
0.0
 10
265.350175
 20
72.226087
 30
0.0
 10
265.417168
 20
72.356685
 30
0.0
 10
265.496172
 20
72.479584
 30
0.0
 10
265.589173
 20
72.593487
 30
0.0
 10
265.692176
 20
72.697071
 30
0.0
 10
265.806185
 20
72.789279
 30
0.0
 10
265.929163
 20
72.869077
 30
0.0
 10
266.060158
 20
72.935673
 30
0.0
 10
266.196180
 20
72.988193
 30
0.0
 10
266.338182
 20
73.026081
 30
0.0
 10
266.483174
 20
73.049100
 30
0.0
  0
LWPOLYLINE
  5
177
100
AcDbEntity
  8
Layer_1
 62
5
100
AcDbPolyline
 90
4
 70
0
 10
266.483174
 20
73.048994
 30
0.0
 10
266.629171
 20
73.056667
 30
0.0
 10
266.775168
 20
73.049020
 30
0.0
 10
266.920186
 20
73.025975
 30
0.0
  0
LWPOLYLINE
  5
178
100
AcDbEntity
  8
Layer_1
 62
5
100
AcDbPolyline
 90
28
 70
0
 10
266.920160
 20
73.026081
 30
0.0
 10
267.062162
 20
72.988193
 30
0.0
 10
267.198184
 20
72.935673
 30
0.0
 10
267.329179
 20
72.869077
 30
0.0
 10
267.452184
 20
72.789279
 30
0.0
 10
267.566166
 20
72.697071
 30
0.0
 10
267.669169
 20
72.593487
 30
0.0
 10
267.762170
 20
72.479584
 30
0.0
 10
267.841174
 20
72.356685
 30
0.0
 10
267.908167
 20
72.226087
 30
0.0
 10
267.960184
 20
72.089271
 30
0.0
 10
267.998178
 20
71.947771
 30
0.0
 10
268.021197
 20
71.802991
 30
0.0
 10
268.029108
 20
71.656677
 30
0.0
 10
268.021223
 20
71.510389
 30
0.0
 10
267.998152
 20
71.365582
 30
0.0
 10
267.960184
 20
71.224083
 30
0.0
 10
267.908167
 20
71.087294
 30
0.0
 10
267.841174
 20
70.956669
 30
0.0
 10
267.762170
 20
70.833770
 30
0.0
 10
267.669169
 20
70.719893
 30
0.0
 10
267.566166
 20
70.616282
 30
0.0
 10
267.452184
 20
70.524049
 30
0.0
 10
267.329179
 20
70.444224
 30
0.0
 10
267.198184
 20
70.377708
 30
0.0
 10
267.062162
 20
70.325214
 30
0.0
 10
266.920160
 20
70.287273
 30
0.0
 10
266.775168
 20
70.264254
 30
0.0
  0
LWPOLYLINE
  5
179
100
AcDbEntity
  8
Layer_1
 62
5
100
AcDbPolyline
 90
3
 70
0
 10
266.775168
 20
70.264360
 30
0.0
 10
266.629171
 20
70.256687
 30
0.0
 10
266.483174
 20
70.264334
 30
0.0
  0
LWPOLYLINE
  5
17a
100
AcDbEntity
  8
Layer_1
 62
5
100
AcDbPolyline
 90
2
 70
0
 10
216.483168
 20
70.264360
 30
0.0
 10
216.338176
 20
70.287379
 30
0.0
  0
LWPOLYLINE
  5
17b
100
AcDbEntity
  8
Layer_1
 62
5
100
AcDbPolyline
 90
28
 70
0
 10
216.338176
 20
70.287273
 30
0.0
 10
216.196175
 20
70.325214
 30
0.0
 10
216.060179
 20
70.377708
 30
0.0
 10
215.929184
 20
70.444224
 30
0.0
 10
215.806179
 20
70.524049
 30
0.0
 10
215.692170
 20
70.616282
 30
0.0
 10
215.589168
 20
70.719893
 30
0.0
 10
215.496166
 20
70.833770
 30
0.0
 10
215.417162
 20
70.956669
 30
0.0
 10
215.350169
 20
71.087294
 30
0.0
 10
215.298179
 20
71.224083
 30
0.0
 10
215.260158
 20
71.365582
 30
0.0
 10
215.237139
 20
71.510389
 30
0.0
 10
215.229228
 20
71.656677
 30
0.0
 10
215.237113
 20
71.802991
 30
0.0
 10
215.260185
 20
71.947771
 30
0.0
 10
215.298179
 20
72.089271
 30
0.0
 10
215.350169
 20
72.226087
 30
0.0
 10
215.417162
 20
72.356685
 30
0.0
 10
215.496166
 20
72.479584
 30
0.0
 10
215.589168
 20
72.593487
 30
0.0
 10
215.692170
 20
72.697071
 30
0.0
 10
215.806179
 20
72.789279
 30
0.0
 10
215.929184
 20
72.869077
 30
0.0
 10
216.060179
 20
72.935673
 30
0.0
 10
216.196175
 20
72.988193
 30
0.0
 10
216.338176
 20
73.026081
 30
0.0
 10
216.483168
 20
73.049100
 30
0.0
  0
LWPOLYLINE
  5
17c
100
AcDbEntity
  8
Layer_1
 62
5
100
AcDbPolyline
 90
4
 70
0
 10
216.483168
 20
73.048994
 30
0.0
 10
216.629165
 20
73.056667
 30
0.0
 10
216.775162
 20
73.049020
 30
0.0
 10
216.920180
 20
73.025975
 30
0.0
  0
LWPOLYLINE
  5
17d
100
AcDbEntity
  8
Layer_1
 62
5
100
AcDbPolyline
 90
28
 70
0
 10
216.920180
 20
73.026081
 30
0.0
 10
217.062182
 20
72.988193
 30
0.0
 10
217.198178
 20
72.935673
 30
0.0
 10
217.329173
 20
72.869077
 30
0.0
 10
217.452178
 20
72.789279
 30
0.0
 10
217.566161
 20
72.697071
 30
0.0
 10
217.669163
 20
72.593487
 30
0.0
 10
217.762164
 20
72.479584
 30
0.0
 10
217.841169
 20
72.356685
 30
0.0
 10
217.908161
 20
72.226087
 30
0.0
 10
217.960178
 20
72.089271
 30
0.0
 10
217.998172
 20
71.947771
 30
0.0
 10
218.021191
 20
71.802991
 30
0.0
 10
218.029102
 20
71.656677
 30
0.0
 10
218.021244
 20
71.510389
 30
0.0
 10
217.998146
 20
71.365582
 30
0.0
 10
217.960178
 20
71.224083
 30
0.0
 10
217.908161
 20
71.087294
 30
0.0
 10
217.841169
 20
70.956669
 30
0.0
 10
217.762164
 20
70.833770
 30
0.0
 10
217.669163
 20
70.719893
 30
0.0
 10
217.566161
 20
70.616282
 30
0.0
 10
217.452178
 20
70.524049
 30
0.0
 10
217.329173
 20
70.444224
 30
0.0
 10
217.198178
 20
70.377708
 30
0.0
 10
217.062182
 20
70.325214
 30
0.0
 10
216.920180
 20
70.287273
 30
0.0
 10
216.775162
 20
70.264254
 30
0.0
  0
LWPOLYLINE
  5
17e
100
AcDbEntity
  8
Layer_1
 62
5
100
AcDbPolyline
 90
3
 70
0
 10
216.775162
 20
70.264360
 30
0.0
 10
216.629165
 20
70.256687
 30
0.0
 10
216.483168
 20
70.264334
 30
0.0
  0
ENDSEC
  0
SECTION
  2
OBJECTS
  0
DICTIONARY
  5
C
330
0
100
AcDbDictionary
  3
ACAD_GROUP
350
D
  3
ACAD_MLINESTYLE
350
17
  0
DICTIONARY
  5
D
330
C
100
AcDbDictionary
  0
DICTIONARY
  5
1A
330
C
100
AcDbDictionary
  0
DICTIONARY
  5
17
330
C
100
AcDbDictionary
  3
STANDARD
350
18
  0
DICTIONARY
  5
19
330
C
100
AcDbDictionary
  0
ENDSEC
  0
EOF
