  0
SECTION
  2
BLOCKS
  0
ENDSEC
  0
SECTION
  2
ENTITIES
  0
LINE
  8
0
 10
599.3
 20
60.5
 11
0
 21
60.5
  0
LINE
  8
0
 10
0
 20
60.5
 11
0
 21
0
  0
LINE
  8
0
 10
0
 20
0
 11
599.3
 21
0
  0
LINE
  8
0
 10
599.3
 20
0
 11
599.3
 21
60.5
  0
LINE
  8
0
 10
230.867
 20
45.1771
 11
230.867
 21
46.8229
  0
LINE
  8
0
 10
230.867
 20
46.8229
 11
232.433
 21
47.3315
  0
LINE
  8
0
 10
232.433
 20
47.3315
 11
233.4
 21
46
  0
LINE
  8
0
 10
233.4
 20
46
 11
232.433
 21
44.6685
  0
LINE
  8
0
 10
232.433
 20
44.6685
 11
230.867
 21
45.1771
  0
LINE
  8
0
 10
330.867
 20
45.1771
 11
330.867
 21
46.8229
  0
LINE
  8
0
 10
330.867
 20
46.8229
 11
332.433
 21
47.3315
  0
LINE
  8
0
 10
332.433
 20
47.3315
 11
333.4
 21
46
  0
LINE
  8
0
 10
333.4
 20
46
 11
332.433
 21
44.6685
  0
LINE
  8
0
 10
332.433
 20
44.6685
 11
330.867
 21
45.1771
  0
LINE
  8
0
 10
280.867
 20
45.1771
 11
280.867
 21
46.8229
  0
LINE
  8
0
 10
280.867
 20
46.8229
 11
282.433
 21
47.3315
  0
LINE
  8
0
 10
282.433
 20
47.3315
 11
283.4
 21
46
  0
LINE
  8
0
 10
283.4
 20
46
 11
282.433
 21
44.6685
  0
LINE
  8
0
 10
282.433
 20
44.6685
 11
280.867
 21
45.1771
  0
LINE
  8
0
 10
235
 20
17
 11
235
 21
40
  0
LINE
  8
0
 10
235
 20
40
 11
331
 21
40
  0
LINE
  8
0
 10
331
 20
40
 11
331
 21
17
  0
LINE
  8
0
 10
331
 20
17
 11
235
 21
17
  0
LINE
  8
0
 10
330.867
 20
10.1771
 11
330.867
 21
11.8229
  0
LINE
  8
0
 10
330.867
 20
11.8229
 11
332.433
 21
12.3315
  0
LINE
  8
0
 10
332.433
 20
12.3315
 11
333.4
 21
11
  0
LINE
  8
0
 10
333.4
 20
11
 11
332.433
 21
9.66852
  0
LINE
  8
0
 10
332.433
 20
9.66852
 11
330.867
 21
10.1771
  0
LINE
  8
0
 10
230.867
 20
10.1771
 11
230.867
 21
11.8229
  0
LINE
  8
0
 10
230.867
 20
11.8229
 11
232.433
 21
12.3315
  0
LINE
  8
0
 10
232.433
 20
12.3315
 11
233.4
 21
11
  0
LINE
  8
0
 10
233.4
 20
11
 11
232.433
 21
9.66852
  0
LINE
  8
0
 10
232.433
 20
9.66852
 11
230.867
 21
10.1771
  0
LINE
  8
0
 10
280.867
 20
10.1771
 11
280.867
 21
11.8229
  0
LINE
  8
0
 10
280.867
 20
11.8229
 11
282.433
 21
12.3315
  0
LINE
  8
0
 10
282.433
 20
12.3315
 11
283.4
 21
11
  0
LINE
  8
0
 10
283.4
 20
11
 11
282.433
 21
9.66852
  0
LINE
  8
0
 10
282.433
 20
9.66852
 11
280.867
 21
10.1771
  0
ENDSEC
  0
SECTION
  2
OBJECTS
  0
DICTIONARY
  0
ENDSEC
  0
EOF
