solid OpenSCAD_Model
  facet normal 1 -0 0
    outer loop
      vertex 46 -14 -42
      vertex 46 4 -46
      vertex 46 4 -42
    endloop
  endfacet
  facet normal 1 0 0
    outer loop
      vertex 46 4 -46
      vertex 46 -14 -42
      vertex 46 -14 -46
    endloop
  endfacet
  facet normal 0 0 1
    outer loop
      vertex -10 4 -42
      vertex -10.042 -3.68668 -42
      vertex -10 -3.60427 -42
    endloop
  endfacet
  facet normal 0 0 1
    outer loop
      vertex -35.765 -4.27381 -42
      vertex -10.042 -3.68668 -42
      vertex -10 4 -42
    endloop
  endfacet
  facet normal 0 0 1
    outer loop
      vertex -10.042 -3.68668 -42
      vertex -35.765 -4.27381 -42
      vertex -10.25 -5 -42
    endloop
  endfacet
  facet normal 0 0 1
    outer loop
      vertex -10.25 -5 -42
      vertex -35.765 -4.27381 -42
      vertex -35.65 -5 -42
    endloop
  endfacet
  facet normal 0 0 1
    outer loop
      vertex -10 4 -42
      vertex -36.0988 -3.6187 -42
      vertex -35.765 -4.27381 -42
    endloop
  endfacet
  facet normal 0 0 1
    outer loop
      vertex -10 4 -42
      vertex -36.6187 -3.09881 -42
      vertex -36.0988 -3.6187 -42
    endloop
  endfacet
  facet normal 0 0 1
    outer loop
      vertex -10 4 -42
      vertex -37.2738 -2.76502 -42
      vertex -36.6187 -3.09881 -42
    endloop
  endfacet
  facet normal -0 0 1
    outer loop
      vertex -46 4 -42
      vertex -37.2738 -2.76502 -42
      vertex -10 4 -42
    endloop
  endfacet
  facet normal 0 0 1
    outer loop
      vertex -37.2738 -2.76502 -42
      vertex -46 4 -42
      vertex -38 -2.65 -42
    endloop
  endfacet
  facet normal 0 0 1
    outer loop
      vertex -40.235 -4.27381 -42
      vertex -46 4 -42
      vertex -40.35 -5 -42
    endloop
  endfacet
  facet normal 0 0 1
    outer loop
      vertex -39.9012 -3.6187 -42
      vertex -46 4 -42
      vertex -40.235 -4.27381 -42
    endloop
  endfacet
  facet normal 0 0 1
    outer loop
      vertex -39.3813 -3.09881 -42
      vertex -46 4 -42
      vertex -39.9012 -3.6187 -42
    endloop
  endfacet
  facet normal 0 0 1
    outer loop
      vertex -38.7262 -2.76502 -42
      vertex -46 4 -42
      vertex -39.3813 -3.09881 -42
    endloop
  endfacet
  facet normal 0 0 1
    outer loop
      vertex -38 -2.65 -42
      vertex -46 4 -42
      vertex -38.7262 -2.76502 -42
    endloop
  endfacet
  facet normal 0 0 1
    outer loop
      vertex -10.042 -6.31332 -42
      vertex -10 -14 -42
      vertex -10 -6.39573 -42
    endloop
  endfacet
  facet normal -0 0 1
    outer loop
      vertex -35.765 -5.72619 -42
      vertex -10.042 -6.31332 -42
      vertex -10.25 -5 -42
    endloop
  endfacet
  facet normal 0 0 1
    outer loop
      vertex -35.765 -5.72619 -42
      vertex -10.25 -5 -42
      vertex -35.65 -5 -42
    endloop
  endfacet
  facet normal 0 0 1
    outer loop
      vertex -10.042 -6.31332 -42
      vertex -35.765 -5.72619 -42
      vertex -10 -14 -42
    endloop
  endfacet
  facet normal -0 0 1
    outer loop
      vertex -36.0988 -6.3813 -42
      vertex -10 -14 -42
      vertex -35.765 -5.72619 -42
    endloop
  endfacet
  facet normal -0 0 1
    outer loop
      vertex -36.6187 -6.90119 -42
      vertex -10 -14 -42
      vertex -36.0988 -6.3813 -42
    endloop
  endfacet
  facet normal -0 0 1
    outer loop
      vertex -37.2738 -7.23498 -42
      vertex -10 -14 -42
      vertex -36.6187 -6.90119 -42
    endloop
  endfacet
  facet normal 0 0 1
    outer loop
      vertex -46 -14 -42
      vertex -37.2738 -7.23498 -42
      vertex -38 -7.35 -42
    endloop
  endfacet
  facet normal 0 0 1
    outer loop
      vertex -46 -14 -42
      vertex -38 -7.35 -42
      vertex -38.7262 -7.23498 -42
    endloop
  endfacet
  facet normal 0 0 1
    outer loop
      vertex -46 -14 -42
      vertex -40.35 -5 -42
      vertex -46 4 -42
    endloop
  endfacet
  facet normal 0 0 1
    outer loop
      vertex -40.35 -5 -42
      vertex -46 -14 -42
      vertex -40.235 -5.72619 -42
    endloop
  endfacet
  facet normal 0 0 1
    outer loop
      vertex -37.2738 -7.23498 -42
      vertex -46 -14 -42
      vertex -10 -14 -42
    endloop
  endfacet
  facet normal 0 0 1
    outer loop
      vertex -39.3813 -6.90119 -42
      vertex -46 -14 -42
      vertex -38.7262 -7.23498 -42
    endloop
  endfacet
  facet normal 0 0 1
    outer loop
      vertex -39.9012 -6.3813 -42
      vertex -46 -14 -42
      vertex -39.3813 -6.90119 -42
    endloop
  endfacet
  facet normal 0 0 1
    outer loop
      vertex -40.235 -5.72619 -42
      vertex -46 -14 -42
      vertex -39.9012 -6.3813 -42
    endloop
  endfacet
  facet normal 0 0 1
    outer loop
      vertex 46 4 -42
      vertex 40.35 -5 -42
      vertex 46 -14 -42
    endloop
  endfacet
  facet normal 0 0 1
    outer loop
      vertex 46 4 -42
      vertex 40.235 -4.27381 -42
      vertex 40.35 -5 -42
    endloop
  endfacet
  facet normal 0 0 1
    outer loop
      vertex 46 4 -42
      vertex 39.9012 -3.6187 -42
      vertex 40.235 -4.27381 -42
    endloop
  endfacet
  facet normal 0 0 1
    outer loop
      vertex 46 4 -42
      vertex 39.3813 -3.09881 -42
      vertex 39.9012 -3.6187 -42
    endloop
  endfacet
  facet normal 0 0 1
    outer loop
      vertex 46 4 -42
      vertex 38.7262 -2.76502 -42
      vertex 39.3813 -3.09881 -42
    endloop
  endfacet
  facet normal 0 0 1
    outer loop
      vertex 46 4 -42
      vertex 38 -2.65 -42
      vertex 38.7262 -2.76502 -42
    endloop
  endfacet
  facet normal 0 0 1
    outer loop
      vertex 46 4 -42
      vertex 37.2738 -2.76502 -42
      vertex 38 -2.65 -42
    endloop
  endfacet
  facet normal -0 0 1
    outer loop
      vertex 13 4 -42
      vertex 37.2738 -2.76502 -42
      vertex 46 4 -42
    endloop
  endfacet
  facet normal 0 0 1
    outer loop
      vertex 35.765 -4.27381 -42
      vertex 13 4 -42
      vertex 35.65 -5 -42
    endloop
  endfacet
  facet normal 0 0 1
    outer loop
      vertex 36.0988 -3.6187 -42
      vertex 13 4 -42
      vertex 35.765 -4.27381 -42
    endloop
  endfacet
  facet normal 0 0 1
    outer loop
      vertex 36.6187 -3.09881 -42
      vertex 13 4 -42
      vertex 36.0988 -3.6187 -42
    endloop
  endfacet
  facet normal 0 0 1
    outer loop
      vertex 37.2738 -2.76502 -42
      vertex 13 4 -42
      vertex 36.6187 -3.09881 -42
    endloop
  endfacet
  facet normal -0 0 1
    outer loop
      vertex 40.235 -5.72619 -42
      vertex 46 -14 -42
      vertex 40.35 -5 -42
    endloop
  endfacet
  facet normal -0 0 1
    outer loop
      vertex 39.9012 -6.3813 -42
      vertex 46 -14 -42
      vertex 40.235 -5.72619 -42
    endloop
  endfacet
  facet normal -0 0 1
    outer loop
      vertex 39.3813 -6.90119 -42
      vertex 46 -14 -42
      vertex 39.9012 -6.3813 -42
    endloop
  endfacet
  facet normal -0 0 1
    outer loop
      vertex 38.7262 -7.23498 -42
      vertex 46 -14 -42
      vertex 39.3813 -6.90119 -42
    endloop
  endfacet
  facet normal -0 0 1
    outer loop
      vertex 38 -7.35 -42
      vertex 46 -14 -42
      vertex 38.7262 -7.23498 -42
    endloop
  endfacet
  facet normal 0 0 1
    outer loop
      vertex 37.2738 -7.23498 -42
      vertex 46 -14 -42
      vertex 38 -7.35 -42
    endloop
  endfacet
  facet normal 0 0 1
    outer loop
      vertex 13 -14 -42
      vertex 37.2738 -7.23498 -42
      vertex 36.6187 -6.90119 -42
    endloop
  endfacet
  facet normal 0 0 1
    outer loop
      vertex 13 -14 -42
      vertex 35.65 -5 -42
      vertex 13 4 -42
    endloop
  endfacet
  facet normal 0 0 1
    outer loop
      vertex 35.65 -5 -42
      vertex 13 -14 -42
      vertex 35.765 -5.72619 -42
    endloop
  endfacet
  facet normal 0 0 1
    outer loop
      vertex 35.765 -5.72619 -42
      vertex 13 -14 -42
      vertex 36.0988 -6.3813 -42
    endloop
  endfacet
  facet normal 0 0 1
    outer loop
      vertex 36.0988 -6.3813 -42
      vertex 13 -14 -42
      vertex 36.6187 -6.90119 -42
    endloop
  endfacet
  facet normal 0 0 1
    outer loop
      vertex 37.2738 -7.23498 -42
      vertex 13 -14 -42
      vertex 46 -14 -42
    endloop
  endfacet
  facet normal 0 0 -1
    outer loop
      vertex -4.15 -5 -42
      vertex -1.75 -5 -42
      vertex -1.95801 -6.31332 -42
    endloop
  endfacet
  facet normal 0 0 -1
    outer loop
      vertex -4.24055 -5.57168 -42
      vertex -1.95801 -6.31332 -42
      vertex -2.56168 -7.49809 -42
    endloop
  endfacet
  facet normal 0 0 -1
    outer loop
      vertex -1.75 -5 -42
      vertex -4.15 -5 -42
      vertex -1.95801 -3.68668 -42
    endloop
  endfacet
  facet normal 0 0 -1
    outer loop
      vertex -4.50332 -6.0874 -42
      vertex -2.56168 -7.49809 -42
      vertex -3.50191 -8.43832 -42
    endloop
  endfacet
  facet normal 0 0 -1
    outer loop
      vertex -4.24055 -4.42832 -42
      vertex -1.95801 -3.68668 -42
      vertex -4.15 -5 -42
    endloop
  endfacet
  facet normal -0 0 -1
    outer loop
      vertex -1.95801 -3.68668 -42
      vertex -4.24055 -4.42832 -42
      vertex -2.56168 -2.50191 -42
    endloop
  endfacet
  facet normal 0 0 -1
    outer loop
      vertex -1.95801 -6.31332 -42
      vertex -4.24055 -5.57168 -42
      vertex -4.15 -5 -42
    endloop
  endfacet
  facet normal 0 0 -1
    outer loop
      vertex -2.56168 -7.49809 -42
      vertex -4.50332 -6.0874 -42
      vertex -4.24055 -5.57168 -42
    endloop
  endfacet
  facet normal 0 0 -1
    outer loop
      vertex -4.9126 -6.49668 -42
      vertex -3.50191 -8.43832 -42
      vertex -4.68668 -9.04199 -42
    endloop
  endfacet
  facet normal 0 0 -1
    outer loop
      vertex -3.50191 -8.43832 -42
      vertex -4.9126 -6.49668 -42
      vertex -4.50332 -6.0874 -42
    endloop
  endfacet
  facet normal 0 0 -1
    outer loop
      vertex -4.68668 -9.04199 -42
      vertex -5.42832 -6.75945 -42
      vertex -4.9126 -6.49668 -42
    endloop
  endfacet
  facet normal 0 0 -1
    outer loop
      vertex -6 -9.25 -42
      vertex -5.42832 -6.75945 -42
      vertex -4.68668 -9.04199 -42
    endloop
  endfacet
  facet normal 0 0 -1
    outer loop
      vertex -6 -9.25 -42
      vertex -6 -6.85 -42
      vertex -5.42832 -6.75945 -42
    endloop
  endfacet
  facet normal 0 0 -1
    outer loop
      vertex -6 -9.25 -42
      vertex -6.57168 -6.75945 -42
      vertex -6 -6.85 -42
    endloop
  endfacet
  facet normal 0 0 -1
    outer loop
      vertex -7.31332 -9.04199 -42
      vertex -6.57168 -6.75945 -42
      vertex -6 -9.25 -42
    endloop
  endfacet
  facet normal -0 0 -1
    outer loop
      vertex -6.57168 -6.75945 -42
      vertex -7.31332 -9.04199 -42
      vertex -7.0874 -6.49668 -42
    endloop
  endfacet
  facet normal 0 0 -1
    outer loop
      vertex -8.49809 -8.43832 -42
      vertex -7.0874 -6.49668 -42
      vertex -7.31332 -9.04199 -42
    endloop
  endfacet
  facet normal -0 0 -1
    outer loop
      vertex -7.0874 -6.49668 -42
      vertex -8.49809 -8.43832 -42
      vertex -7.49668 -6.0874 -42
    endloop
  endfacet
  facet normal 0 0 -1
    outer loop
      vertex -9.43832 -7.49809 -42
      vertex -7.49668 -6.0874 -42
      vertex -8.49809 -8.43832 -42
    endloop
  endfacet
  facet normal 0 0 -1
    outer loop
      vertex -10 -6.39573 -42
      vertex -7.49668 -6.0874 -42
      vertex -9.43832 -7.49809 -42
    endloop
  endfacet
  facet normal 0 0 -1
    outer loop
      vertex -4.50332 -3.9126 -42
      vertex -2.56168 -2.50191 -42
      vertex -4.24055 -4.42832 -42
    endloop
  endfacet
  facet normal -0 0 -1
    outer loop
      vertex -2.56168 -2.50191 -42
      vertex -4.50332 -3.9126 -42
      vertex -3.50191 -1.56168 -42
    endloop
  endfacet
  facet normal 0 0 -1
    outer loop
      vertex -4.9126 -3.50332 -42
      vertex -3.50191 -1.56168 -42
      vertex -4.50332 -3.9126 -42
    endloop
  endfacet
  facet normal -0 0 -1
    outer loop
      vertex -3.50191 -1.56168 -42
      vertex -4.9126 -3.50332 -42
      vertex -4.68668 -0.95801 -42
    endloop
  endfacet
  facet normal 0 0 -1
    outer loop
      vertex -5.42832 -3.24055 -42
      vertex -4.68668 -0.95801 -42
      vertex -4.9126 -3.50332 -42
    endloop
  endfacet
  facet normal 0 0 -1
    outer loop
      vertex -6 -3.15 -42
      vertex -4.68668 -0.95801 -42
      vertex -5.42832 -3.24055 -42
    endloop
  endfacet
  facet normal 0 0 -1
    outer loop
      vertex -6 -3.15 -42
      vertex -6 -0.75 -42
      vertex -4.68668 -0.95801 -42
    endloop
  endfacet
  facet normal 0 0 -1
    outer loop
      vertex -6.57168 -3.24055 -42
      vertex -6 -0.75 -42
      vertex -6 -3.15 -42
    endloop
  endfacet
  facet normal 0 0 -1
    outer loop
      vertex -7.31332 -0.95801 -42
      vertex -6.57168 -3.24055 -42
      vertex -7.0874 -3.50332 -42
    endloop
  endfacet
  facet normal 0 0 -1
    outer loop
      vertex -6.57168 -3.24055 -42
      vertex -7.31332 -0.95801 -42
      vertex -6 -0.75 -42
    endloop
  endfacet
  facet normal 0 0 -1
    outer loop
      vertex -8.49809 -1.56168 -42
      vertex -7.0874 -3.50332 -42
      vertex -7.49668 -3.9126 -42
    endloop
  endfacet
  facet normal 0 0 -1
    outer loop
      vertex -10 -3.60427 -42
      vertex -7.49668 -3.9126 -42
      vertex -7.75945 -4.42832 -42
    endloop
  endfacet
  facet normal 0 0 -1
    outer loop
      vertex -10 -3.60427 -42
      vertex -7.75945 -4.42832 -42
      vertex -7.85 -5 -42
    endloop
  endfacet
  facet normal -0 0 -1
    outer loop
      vertex -7.49668 -6.0874 -42
      vertex -10 -6.39573 -42
      vertex -7.75945 -5.57168 -42
    endloop
  endfacet
  facet normal 0 0 -1
    outer loop
      vertex -7.0874 -3.50332 -42
      vertex -8.49809 -1.56168 -42
      vertex -7.31332 -0.95801 -42
    endloop
  endfacet
  facet normal -0 0 -1
    outer loop
      vertex -7.75945 -5.57168 -42
      vertex -10 -6.39573 -42
      vertex -7.85 -5 -42
    endloop
  endfacet
  facet normal 0 0 -1
    outer loop
      vertex -10 -3.60427 -42
      vertex -7.85 -5 -42
      vertex -10 -6.39573 -42
    endloop
  endfacet
  facet normal 0 0 -1
    outer loop
      vertex -7.49668 -3.9126 -42
      vertex -10 -3.60427 -42
      vertex -9.43832 -2.50191 -42
    endloop
  endfacet
  facet normal 0 0 -1
    outer loop
      vertex -7.49668 -3.9126 -42
      vertex -9.43832 -2.50191 -42
      vertex -8.49809 -1.56168 -42
    endloop
  endfacet
  facet normal 0 0 -1
    outer loop
      vertex 46 -14 -46
      vertex 40.35 -5 -46
      vertex 46 4 -46
    endloop
  endfacet
  facet normal 0 0 -1
    outer loop
      vertex 46 -14 -46
      vertex 40.235 -5.72619 -46
      vertex 40.35 -5 -46
    endloop
  endfacet
  facet normal 0 0 -1
    outer loop
      vertex 46 -14 -46
      vertex 39.9012 -6.3813 -46
      vertex 40.235 -5.72619 -46
    endloop
  endfacet
  facet normal 0 0 -1
    outer loop
      vertex 46 -14 -46
      vertex 39.3813 -6.90119 -46
      vertex 39.9012 -6.3813 -46
    endloop
  endfacet
  facet normal 0 0 -1
    outer loop
      vertex 46 -14 -46
      vertex 38.7262 -7.23498 -46
      vertex 39.3813 -6.90119 -46
    endloop
  endfacet
  facet normal 0 0 -1
    outer loop
      vertex 46 -14 -46
      vertex 38 -7.35 -46
      vertex 38.7262 -7.23498 -46
    endloop
  endfacet
  facet normal 0 0 -1
    outer loop
      vertex 46 -14 -46
      vertex 37.2738 -7.23498 -46
      vertex 38 -7.35 -46
    endloop
  endfacet
  facet normal 0 0 -1
    outer loop
      vertex 8.49809 -8.43832 -46
      vertex 37.2738 -7.23498 -46
      vertex 46 -14 -46
    endloop
  endfacet
  facet normal 0 0 -1
    outer loop
      vertex 35.765 -5.72619 -46
      vertex 10.25 -5 -46
      vertex 35.65 -5 -46
    endloop
  endfacet
  facet normal 0 0 -1
    outer loop
      vertex 10.042 -6.31332 -46
      vertex 35.765 -5.72619 -46
      vertex 36.0988 -6.3813 -46
    endloop
  endfacet
  facet normal 0 0 -1
    outer loop
      vertex 9.43832 -7.49809 -46
      vertex 36.0988 -6.3813 -46
      vertex 36.6187 -6.90119 -46
    endloop
  endfacet
  facet normal -0 0 -1
    outer loop
      vertex 37.2738 -7.23498 -46
      vertex 8.49809 -8.43832 -46
      vertex 36.6187 -6.90119 -46
    endloop
  endfacet
  facet normal -0 0 -1
    outer loop
      vertex 35.765 -5.72619 -46
      vertex 10.042 -6.31332 -46
      vertex 10.25 -5 -46
    endloop
  endfacet
  facet normal -0 0 -1
    outer loop
      vertex 36.0988 -6.3813 -46
      vertex 9.43832 -7.49809 -46
      vertex 10.042 -6.31332 -46
    endloop
  endfacet
  facet normal 0 0 -1
    outer loop
      vertex 36.6187 -6.90119 -46
      vertex 8.49809 -8.43832 -46
      vertex 9.43832 -7.49809 -46
    endloop
  endfacet
  facet normal 0 0 -1
    outer loop
      vertex 46 -14 -46
      vertex 7.31332 -9.04199 -46
      vertex 8.49809 -8.43832 -46
    endloop
  endfacet
  facet normal 0 0 -1
    outer loop
      vertex 46 -14 -46
      vertex 6 -9.25 -46
      vertex 7.31332 -9.04199 -46
    endloop
  endfacet
  facet normal 0 0 -1
    outer loop
      vertex 1.95801 -6.31332 -46
      vertex -1.75 -5 -46
      vertex 1.75 -5 -46
    endloop
  endfacet
  facet normal 0 0 -1
    outer loop
      vertex -1.95801 -6.31332 -46
      vertex 1.95801 -6.31332 -46
      vertex 2.56168 -7.49809 -46
    endloop
  endfacet
  facet normal 0 0 -1
    outer loop
      vertex -2.56168 -7.49809 -46
      vertex 2.56168 -7.49809 -46
      vertex 3.50191 -8.43832 -46
    endloop
  endfacet
  facet normal 0 0 -1
    outer loop
      vertex 1.95801 -6.31332 -46
      vertex -1.95801 -6.31332 -46
      vertex -1.75 -5 -46
    endloop
  endfacet
  facet normal 0 0 -1
    outer loop
      vertex -3.50191 -8.43832 -46
      vertex 3.50191 -8.43832 -46
      vertex 4.68668 -9.04199 -46
    endloop
  endfacet
  facet normal 0 0 -1
    outer loop
      vertex 2.56168 -7.49809 -46
      vertex -2.56168 -7.49809 -46
      vertex -1.95801 -6.31332 -46
    endloop
  endfacet
  facet normal 0 0 -1
    outer loop
      vertex 3.50191 -8.43832 -46
      vertex -3.50191 -8.43832 -46
      vertex -2.56168 -7.49809 -46
    endloop
  endfacet
  facet normal 0 0 -1
    outer loop
      vertex -4.68668 -9.04199 -46
      vertex 4.68668 -9.04199 -46
      vertex 6 -9.25 -46
    endloop
  endfacet
  facet normal 0 0 -1
    outer loop
      vertex -6 -9.25 -46
      vertex 6 -9.25 -46
      vertex 46 -14 -46
    endloop
  endfacet
  facet normal 0 0 -1
    outer loop
      vertex 4.68668 -9.04199 -46
      vertex -4.68668 -9.04199 -46
      vertex -3.50191 -8.43832 -46
    endloop
  endfacet
  facet normal 0 0 -1
    outer loop
      vertex 6 -9.25 -46
      vertex -6 -9.25 -46
      vertex -4.68668 -9.04199 -46
    endloop
  endfacet
  facet normal 0 0 -1
    outer loop
      vertex -35.765 -5.72619 -46
      vertex -10.25 -5 -46
      vertex -10.042 -6.31332 -46
    endloop
  endfacet
  facet normal 0 0 -1
    outer loop
      vertex -36.0988 -6.3813 -46
      vertex -10.042 -6.31332 -46
      vertex -9.43832 -7.49809 -46
    endloop
  endfacet
  facet normal 0 0 -1
    outer loop
      vertex -36.6187 -6.90119 -46
      vertex -9.43832 -7.49809 -46
      vertex -8.49809 -8.43832 -46
    endloop
  endfacet
  facet normal 0 0 -1
    outer loop
      vertex -46 -14 -46
      vertex -8.49809 -8.43832 -46
      vertex -7.31332 -9.04199 -46
    endloop
  endfacet
  facet normal 0 0 -1
    outer loop
      vertex -46 -14 -46
      vertex -7.31332 -9.04199 -46
      vertex -6 -9.25 -46
    endloop
  endfacet
  facet normal -0 0 -1
    outer loop
      vertex -10.25 -5 -46
      vertex -35.765 -5.72619 -46
      vertex -35.65 -5 -46
    endloop
  endfacet
  facet normal -0 0 -1
    outer loop
      vertex -10.042 -6.31332 -46
      vertex -36.0988 -6.3813 -46
      vertex -35.765 -5.72619 -46
    endloop
  endfacet
  facet normal 0 0 -1
    outer loop
      vertex -9.43832 -7.49809 -46
      vertex -36.6187 -6.90119 -46
      vertex -36.0988 -6.3813 -46
    endloop
  endfacet
  facet normal 0 0 -1
    outer loop
      vertex -46 -14 -46
      vertex -6 -9.25 -46
      vertex 46 -14 -46
    endloop
  endfacet
  facet normal -0 0 -1
    outer loop
      vertex -8.49809 -8.43832 -46
      vertex -46 -14 -46
      vertex -37.2738 -7.23498 -46
    endloop
  endfacet
  facet normal 0 0 -1
    outer loop
      vertex -8.49809 -8.43832 -46
      vertex -37.2738 -7.23498 -46
      vertex -36.6187 -6.90119 -46
    endloop
  endfacet
  facet normal -0 0 -1
    outer loop
      vertex -40.235 -5.72619 -46
      vertex -46 -14 -46
      vertex -40.35 -5 -46
    endloop
  endfacet
  facet normal -0 0 -1
    outer loop
      vertex -39.9012 -6.3813 -46
      vertex -46 -14 -46
      vertex -40.235 -5.72619 -46
    endloop
  endfacet
  facet normal -0 0 -1
    outer loop
      vertex -39.3813 -6.90119 -46
      vertex -46 -14 -46
      vertex -39.9012 -6.3813 -46
    endloop
  endfacet
  facet normal -0 0 -1
    outer loop
      vertex -38.7262 -7.23498 -46
      vertex -46 -14 -46
      vertex -39.3813 -6.90119 -46
    endloop
  endfacet
  facet normal -0 0 -1
    outer loop
      vertex -38 -7.35 -46
      vertex -46 -14 -46
      vertex -38.7262 -7.23498 -46
    endloop
  endfacet
  facet normal 0 0 -1
    outer loop
      vertex -37.2738 -7.23498 -46
      vertex -46 -14 -46
      vertex -38 -7.35 -46
    endloop
  endfacet
  facet normal 0 0 -1
    outer loop
      vertex 40.235 -4.27381 -46
      vertex 46 4 -46
      vertex 40.35 -5 -46
    endloop
  endfacet
  facet normal 0 0 -1
    outer loop
      vertex 39.9012 -3.6187 -46
      vertex 46 4 -46
      vertex 40.235 -4.27381 -46
    endloop
  endfacet
  facet normal 0 0 -1
    outer loop
      vertex 39.3813 -3.09881 -46
      vertex 46 4 -46
      vertex 39.9012 -3.6187 -46
    endloop
  endfacet
  facet normal 0 0 -1
    outer loop
      vertex 38.7262 -2.76502 -46
      vertex 46 4 -46
      vertex 39.3813 -3.09881 -46
    endloop
  endfacet
  facet normal 0 0 -1
    outer loop
      vertex 38 -2.65 -46
      vertex 46 4 -46
      vertex 38.7262 -2.76502 -46
    endloop
  endfacet
  facet normal 0 0 -1
    outer loop
      vertex 37.2738 -2.76502 -46
      vertex 46 4 -46
      vertex 38 -2.65 -46
    endloop
  endfacet
  facet normal 0 0 -1
    outer loop
      vertex 8.49809 -1.56168 -46
      vertex 37.2738 -2.76502 -46
      vertex 36.6187 -3.09881 -46
    endloop
  endfacet
  facet normal 0 0 -1
    outer loop
      vertex 10.25 -5 -46
      vertex 35.765 -4.27381 -46
      vertex 35.65 -5 -46
    endloop
  endfacet
  facet normal 0 0 -1
    outer loop
      vertex 10.042 -3.68668 -46
      vertex 35.765 -4.27381 -46
      vertex 10.25 -5 -46
    endloop
  endfacet
  facet normal 0 0 -1
    outer loop
      vertex 35.765 -4.27381 -46
      vertex 10.042 -3.68668 -46
      vertex 36.0988 -3.6187 -46
    endloop
  endfacet
  facet normal 0 0 -1
    outer loop
      vertex 9.43832 -2.50191 -46
      vertex 36.0988 -3.6187 -46
      vertex 10.042 -3.68668 -46
    endloop
  endfacet
  facet normal 0 0 -1
    outer loop
      vertex 36.0988 -3.6187 -46
      vertex 9.43832 -2.50191 -46
      vertex 36.6187 -3.09881 -46
    endloop
  endfacet
  facet normal 0 0 -1
    outer loop
      vertex 8.49809 -1.56168 -46
      vertex 36.6187 -3.09881 -46
      vertex 9.43832 -2.50191 -46
    endloop
  endfacet
  facet normal 0 0 -1
    outer loop
      vertex 37.2738 -2.76502 -46
      vertex 8.49809 -1.56168 -46
      vertex 46 4 -46
    endloop
  endfacet
  facet normal 0 0 -1
    outer loop
      vertex 7.31332 -0.95801 -46
      vertex 46 4 -46
      vertex 8.49809 -1.56168 -46
    endloop
  endfacet
  facet normal 0 0 -1
    outer loop
      vertex 6 -0.75 -46
      vertex 46 4 -46
      vertex 7.31332 -0.95801 -46
    endloop
  endfacet
  facet normal 0 0 -1
    outer loop
      vertex -1.75 -5 -46
      vertex 1.95801 -3.68668 -46
      vertex 1.75 -5 -46
    endloop
  endfacet
  facet normal 0 0 -1
    outer loop
      vertex -1.95801 -3.68668 -46
      vertex 1.95801 -3.68668 -46
      vertex -1.75 -5 -46
    endloop
  endfacet
  facet normal 0 0 -1
    outer loop
      vertex 1.95801 -3.68668 -46
      vertex -1.95801 -3.68668 -46
      vertex 2.56168 -2.50191 -46
    endloop
  endfacet
  facet normal 0 0 -1
    outer loop
      vertex -2.56168 -2.50191 -46
      vertex 2.56168 -2.50191 -46
      vertex -1.95801 -3.68668 -46
    endloop
  endfacet
  facet normal 0 0 -1
    outer loop
      vertex 2.56168 -2.50191 -46
      vertex -2.56168 -2.50191 -46
      vertex 3.50191 -1.56168 -46
    endloop
  endfacet
  facet normal 0 0 -1
    outer loop
      vertex -3.50191 -1.56168 -46
      vertex 3.50191 -1.56168 -46
      vertex -2.56168 -2.50191 -46
    endloop
  endfacet
  facet normal 0 0 -1
    outer loop
      vertex 3.50191 -1.56168 -46
      vertex -3.50191 -1.56168 -46
      vertex 4.68668 -0.95801 -46
    endloop
  endfacet
  facet normal 0 0 -1
    outer loop
      vertex -4.68668 -0.95801 -46
      vertex 4.68668 -0.95801 -46
      vertex -3.50191 -1.56168 -46
    endloop
  endfacet
  facet normal 0 0 -1
    outer loop
      vertex 4.68668 -0.95801 -46
      vertex -4.68668 -0.95801 -46
      vertex 6 -0.75 -46
    endloop
  endfacet
  facet normal 0 0 -1
    outer loop
      vertex -6 -0.75 -46
      vertex 6 -0.75 -46
      vertex -4.68668 -0.95801 -46
    endloop
  endfacet
  facet normal 0 0 -1
    outer loop
      vertex 6 -0.75 -46
      vertex -6 -0.75 -46
      vertex 46 4 -46
    endloop
  endfacet
  facet normal 0 0 -1
    outer loop
      vertex -35.765 -4.27381 -46
      vertex -10.25 -5 -46
      vertex -35.65 -5 -46
    endloop
  endfacet
  facet normal 0 0 -1
    outer loop
      vertex -10.25 -5 -46
      vertex -35.765 -4.27381 -46
      vertex -10.042 -3.68668 -46
    endloop
  endfacet
  facet normal 0 0 -1
    outer loop
      vertex -36.0988 -3.6187 -46
      vertex -10.042 -3.68668 -46
      vertex -35.765 -4.27381 -46
    endloop
  endfacet
  facet normal 0 0 -1
    outer loop
      vertex -10.042 -3.68668 -46
      vertex -36.0988 -3.6187 -46
      vertex -9.43832 -2.50191 -46
    endloop
  endfacet
  facet normal 0 0 -1
    outer loop
      vertex -36.6187 -3.09881 -46
      vertex -9.43832 -2.50191 -46
      vertex -36.0988 -3.6187 -46
    endloop
  endfacet
  facet normal -0 0 -1
    outer loop
      vertex -9.43832 -2.50191 -46
      vertex -36.6187 -3.09881 -46
      vertex -8.49809 -1.56168 -46
    endloop
  endfacet
  facet normal 0 0 -1
    outer loop
      vertex -37.2738 -2.76502 -46
      vertex -8.49809 -1.56168 -46
      vertex -36.6187 -3.09881 -46
    endloop
  endfacet
  facet normal 0 0 -1
    outer loop
      vertex -46 4 -46
      vertex -8.49809 -1.56168 -46
      vertex -37.2738 -2.76502 -46
    endloop
  endfacet
  facet normal 0 0 -1
    outer loop
      vertex -7.31332 -0.95801 -46
      vertex -46 4 -46
      vertex -6 -0.75 -46
    endloop
  endfacet
  facet normal 0 0 -1
    outer loop
      vertex -8.49809 -1.56168 -46
      vertex -46 4 -46
      vertex -7.31332 -0.95801 -46
    endloop
  endfacet
  facet normal 0 0 -1
    outer loop
      vertex -46 4 -46
      vertex -37.2738 -2.76502 -46
      vertex -38 -2.65 -46
    endloop
  endfacet
  facet normal 0 0 -1
    outer loop
      vertex -46 4 -46
      vertex -40.35 -5 -46
      vertex -46 -14 -46
    endloop
  endfacet
  facet normal 0 0 -1
    outer loop
      vertex -40.35 -5 -46
      vertex -46 4 -46
      vertex -40.235 -4.27381 -46
    endloop
  endfacet
  facet normal 0 0 -1
    outer loop
      vertex -6 -0.75 -46
      vertex -46 4 -46
      vertex 46 4 -46
    endloop
  endfacet
  facet normal 0 0 -1
    outer loop
      vertex -38.7262 -2.76502 -46
      vertex -46 4 -46
      vertex -38 -2.65 -46
    endloop
  endfacet
  facet normal 0 0 -1
    outer loop
      vertex -39.3813 -3.09881 -46
      vertex -46 4 -46
      vertex -38.7262 -2.76502 -46
    endloop
  endfacet
  facet normal 0 0 -1
    outer loop
      vertex -39.9012 -3.6187 -46
      vertex -46 4 -46
      vertex -39.3813 -3.09881 -46
    endloop
  endfacet
  facet normal 0 0 -1
    outer loop
      vertex -40.235 -4.27381 -46
      vertex -46 4 -46
      vertex -39.9012 -3.6187 -46
    endloop
  endfacet
  facet normal -1 0 0
    outer loop
      vertex -46 -14 -46
      vertex -46 4 -42
      vertex -46 4 -46
    endloop
  endfacet
  facet normal -1 -0 0
    outer loop
      vertex -46 4 -42
      vertex -46 -14 -46
      vertex -46 -14 -42
    endloop
  endfacet
  facet normal 0 1 -0
    outer loop
      vertex 46 4 -46
      vertex 13 4 -42
      vertex 46 4 -42
    endloop
  endfacet
  facet normal 0 1 0
    outer loop
      vertex 13 4 -42
      vertex 46 4 -46
      vertex -10 4 -42
    endloop
  endfacet
  facet normal 0 1 0
    outer loop
      vertex -46 4 -46
      vertex -10 4 -42
      vertex 46 4 -46
    endloop
  endfacet
  facet normal 0 1 0
    outer loop
      vertex -10 4 -42
      vertex -46 4 -46
      vertex -46 4 -42
    endloop
  endfacet
  facet normal 0 1 -0
    outer loop
      vertex 13 4 -42
      vertex -10 4 -39
      vertex 13 4 -39
    endloop
  endfacet
  facet normal 0 1 0
    outer loop
      vertex -10 4 -39
      vertex 13 4 -42
      vertex -10 4 -42
    endloop
  endfacet
  facet normal 0 -1 0
    outer loop
      vertex -46 -14 -46
      vertex -10 -14 -42
      vertex -46 -14 -42
    endloop
  endfacet
  facet normal 0 -1 -0
    outer loop
      vertex -10 -14 -42
      vertex -46 -14 -46
      vertex 13 -14 -42
    endloop
  endfacet
  facet normal 0 -1 0
    outer loop
      vertex 46 -14 -46
      vertex 13 -14 -42
      vertex -46 -14 -46
    endloop
  endfacet
  facet normal 0 -1 0
    outer loop
      vertex 13 -14 -42
      vertex 46 -14 -46
      vertex 46 -14 -42
    endloop
  endfacet
  facet normal 0 -1 0
    outer loop
      vertex -10 -14 -42
      vertex 13 -14 -39
      vertex -10 -14 -39
    endloop
  endfacet
  facet normal 0 -1 -0
    outer loop
      vertex 13 -14 -39
      vertex -10 -14 -42
      vertex 13 -14 -42
    endloop
  endfacet
  facet normal 1 -0 0
    outer loop
      vertex 13 -14 -39
      vertex 13 4 -42
      vertex 13 4 -39
    endloop
  endfacet
  facet normal 1 0 0
    outer loop
      vertex 13 4 -42
      vertex 13 -14 -39
      vertex 13 -14 -42
    endloop
  endfacet
  facet normal 0 0 1
    outer loop
      vertex 13 4 -39
      vertex 7.85 -5 -39
      vertex 13 -14 -39
    endloop
  endfacet
  facet normal 0 0 1
    outer loop
      vertex 13 4 -39
      vertex 7.75945 -4.42832 -39
      vertex 7.85 -5 -39
    endloop
  endfacet
  facet normal 0 0 1
    outer loop
      vertex 13 4 -39
      vertex 7.49668 -3.9126 -39
      vertex 7.75945 -4.42832 -39
    endloop
  endfacet
  facet normal 0 0 1
    outer loop
      vertex 13 4 -39
      vertex 7.0874 -3.50332 -39
      vertex 7.49668 -3.9126 -39
    endloop
  endfacet
  facet normal 0 0 1
    outer loop
      vertex 13 4 -39
      vertex 6.57168 -3.24055 -39
      vertex 7.0874 -3.50332 -39
    endloop
  endfacet
  facet normal 0 0 1
    outer loop
      vertex 13 4 -39
      vertex 6 -3.15 -39
      vertex 6.57168 -3.24055 -39
    endloop
  endfacet
  facet normal 0 0 1
    outer loop
      vertex 13 4 -39
      vertex 5.42832 -3.24055 -39
      vertex 6 -3.15 -39
    endloop
  endfacet
  facet normal -0 0 1
    outer loop
      vertex -10 4 -39
      vertex 5.42832 -3.24055 -39
      vertex 13 4 -39
    endloop
  endfacet
  facet normal 0 0 1
    outer loop
      vertex 4.24055 -4.42832 -39
      vertex -4.15 -5 -39
      vertex 4.15 -5 -39
    endloop
  endfacet
  facet normal 0 0 1
    outer loop
      vertex -4.24055 -4.42832 -39
      vertex 4.24055 -4.42832 -39
      vertex 4.50332 -3.9126 -39
    endloop
  endfacet
  facet normal 0 0 1
    outer loop
      vertex -4.50332 -3.9126 -39
      vertex 4.50332 -3.9126 -39
      vertex 4.9126 -3.50332 -39
    endloop
  endfacet
  facet normal 0 0 1
    outer loop
      vertex 5.42832 -3.24055 -39
      vertex -10 4 -39
      vertex 4.9126 -3.50332 -39
    endloop
  endfacet
  facet normal 0 0 1
    outer loop
      vertex 4.24055 -4.42832 -39
      vertex -4.24055 -4.42832 -39
      vertex -4.15 -5 -39
    endloop
  endfacet
  facet normal 0 0 1
    outer loop
      vertex 4.50332 -3.9126 -39
      vertex -4.50332 -3.9126 -39
      vertex -4.24055 -4.42832 -39
    endloop
  endfacet
  facet normal 0 0 1
    outer loop
      vertex 4.9126 -3.50332 -39
      vertex -4.9126 -3.50332 -39
      vertex -4.50332 -3.9126 -39
    endloop
  endfacet
  facet normal 0 0 1
    outer loop
      vertex 4.9126 -3.50332 -39
      vertex -10 4 -39
      vertex -4.9126 -3.50332 -39
    endloop
  endfacet
  facet normal 0 0 1
    outer loop
      vertex -4.9126 -3.50332 -39
      vertex -10 4 -39
      vertex -5.42832 -3.24055 -39
    endloop
  endfacet
  facet normal 0 0 1
    outer loop
      vertex -5.42832 -3.24055 -39
      vertex -10 4 -39
      vertex -6 -3.15 -39
    endloop
  endfacet
  facet normal 0 0 1
    outer loop
      vertex -7.75945 -4.42832 -39
      vertex -10 4 -39
      vertex -7.85 -5 -39
    endloop
  endfacet
  facet normal 0 0 1
    outer loop
      vertex -7.49668 -3.9126 -39
      vertex -10 4 -39
      vertex -7.75945 -4.42832 -39
    endloop
  endfacet
  facet normal 0 0 1
    outer loop
      vertex -7.0874 -3.50332 -39
      vertex -10 4 -39
      vertex -7.49668 -3.9126 -39
    endloop
  endfacet
  facet normal 0 0 1
    outer loop
      vertex -6.57168 -3.24055 -39
      vertex -10 4 -39
      vertex -7.0874 -3.50332 -39
    endloop
  endfacet
  facet normal 0 0 1
    outer loop
      vertex -6 -3.15 -39
      vertex -10 4 -39
      vertex -6.57168 -3.24055 -39
    endloop
  endfacet
  facet normal -0 0 1
    outer loop
      vertex 7.75945 -5.57168 -39
      vertex 13 -14 -39
      vertex 7.85 -5 -39
    endloop
  endfacet
  facet normal -0 0 1
    outer loop
      vertex 7.49668 -6.0874 -39
      vertex 13 -14 -39
      vertex 7.75945 -5.57168 -39
    endloop
  endfacet
  facet normal -0 0 1
    outer loop
      vertex 7.0874 -6.49668 -39
      vertex 13 -14 -39
      vertex 7.49668 -6.0874 -39
    endloop
  endfacet
  facet normal -0 0 1
    outer loop
      vertex 6.57168 -6.75945 -39
      vertex 13 -14 -39
      vertex 7.0874 -6.49668 -39
    endloop
  endfacet
  facet normal -0 0 1
    outer loop
      vertex 6 -6.85 -39
      vertex 13 -14 -39
      vertex 6.57168 -6.75945 -39
    endloop
  endfacet
  facet normal 0 0 1
    outer loop
      vertex 5.42832 -6.75945 -39
      vertex 13 -14 -39
      vertex 6 -6.85 -39
    endloop
  endfacet
  facet normal 0 0 1
    outer loop
      vertex -10 -14 -39
      vertex 5.42832 -6.75945 -39
      vertex 4.9126 -6.49668 -39
    endloop
  endfacet
  facet normal -0 0 1
    outer loop
      vertex -4.15 -5 -39
      vertex 4.24055 -5.57168 -39
      vertex 4.15 -5 -39
    endloop
  endfacet
  facet normal 0 0 1
    outer loop
      vertex -4.24055 -5.57168 -39
      vertex 4.24055 -5.57168 -39
      vertex -4.15 -5 -39
    endloop
  endfacet
  facet normal 0 0 1
    outer loop
      vertex 4.24055 -5.57168 -39
      vertex -4.24055 -5.57168 -39
      vertex 4.50332 -6.0874 -39
    endloop
  endfacet
  facet normal 0 0 1
    outer loop
      vertex -4.50332 -6.0874 -39
      vertex 4.50332 -6.0874 -39
      vertex -4.24055 -5.57168 -39
    endloop
  endfacet
  facet normal 0 0 1
    outer loop
      vertex 4.50332 -6.0874 -39
      vertex -4.50332 -6.0874 -39
      vertex 4.9126 -6.49668 -39
    endloop
  endfacet
  facet normal 0 0 1
    outer loop
      vertex -4.9126 -6.49668 -39
      vertex 4.9126 -6.49668 -39
      vertex -4.50332 -6.0874 -39
    endloop
  endfacet
  facet normal 0 0 1
    outer loop
      vertex -10 -14 -39
      vertex 4.9126 -6.49668 -39
      vertex -4.9126 -6.49668 -39
    endloop
  endfacet
  facet normal 0 0 1
    outer loop
      vertex -10 -14 -39
      vertex -4.9126 -6.49668 -39
      vertex -5.42832 -6.75945 -39
    endloop
  endfacet
  facet normal 0 0 1
    outer loop
      vertex -10 -14 -39
      vertex -5.42832 -6.75945 -39
      vertex -6 -6.85 -39
    endloop
  endfacet
  facet normal 0 0 1
    outer loop
      vertex -10 -14 -39
      vertex -6 -6.85 -39
      vertex -6.57168 -6.75945 -39
    endloop
  endfacet
  facet normal 0 0 1
    outer loop
      vertex -10 -14 -39
      vertex -7.85 -5 -39
      vertex -10 4 -39
    endloop
  endfacet
  facet normal 0 0 1
    outer loop
      vertex 5.42832 -6.75945 -39
      vertex -10 -14 -39
      vertex 13 -14 -39
    endloop
  endfacet
  facet normal 0 0 1
    outer loop
      vertex -7.0874 -6.49668 -39
      vertex -10 -14 -39
      vertex -6.57168 -6.75945 -39
    endloop
  endfacet
  facet normal 0 0 1
    outer loop
      vertex -7.49668 -6.0874 -39
      vertex -10 -14 -39
      vertex -7.0874 -6.49668 -39
    endloop
  endfacet
  facet normal 0 0 1
    outer loop
      vertex -7.75945 -5.57168 -39
      vertex -10 -14 -39
      vertex -7.49668 -6.0874 -39
    endloop
  endfacet
  facet normal 0 0 1
    outer loop
      vertex -7.85 -5 -39
      vertex -10 -14 -39
      vertex -7.75945 -5.57168 -39
    endloop
  endfacet
  facet normal -1 0 0
    outer loop
      vertex -10 -3.60427 -42
      vertex -10 4 -39
      vertex -10 4 -42
    endloop
  endfacet
  facet normal -1 0 0
    outer loop
      vertex -10 -6.39573 -42
      vertex -10 4 -39
      vertex -10 -3.60427 -42
    endloop
  endfacet
  facet normal -1 0 0
    outer loop
      vertex -10 -14 -39
      vertex -10 -6.39573 -42
      vertex -10 -14 -42
    endloop
  endfacet
  facet normal -1 0 0
    outer loop
      vertex -10 -6.39573 -42
      vertex -10 -14 -39
      vertex -10 4 -39
    endloop
  endfacet
  facet normal -0.891008 -0.453987 0
    outer loop
      vertex -4.24055 -4.42832 -42
      vertex -4.50332 -3.9126 -39
      vertex -4.50332 -3.9126 -42
    endloop
  endfacet
  facet normal -0.891008 -0.453987 0
    outer loop
      vertex -4.50332 -3.9126 -39
      vertex -4.24055 -4.42832 -42
      vertex -4.24055 -4.42832 -39
    endloop
  endfacet
  facet normal -0.987687 -0.156443 0
    outer loop
      vertex -4.15 -5 -42
      vertex -4.24055 -4.42832 -39
      vertex -4.24055 -4.42832 -42
    endloop
  endfacet
  facet normal -0.987687 -0.156443 0
    outer loop
      vertex -4.24055 -4.42832 -39
      vertex -4.15 -5 -42
      vertex -4.15 -5 -39
    endloop
  endfacet
  facet normal -0.707107 -0.707107 0
    outer loop
      vertex -4.50332 -3.9126 -42
      vertex -4.9126 -3.50332 -39
      vertex -4.9126 -3.50332 -42
    endloop
  endfacet
  facet normal -0.707107 -0.707107 0
    outer loop
      vertex -4.9126 -3.50332 -39
      vertex -4.50332 -3.9126 -42
      vertex -4.50332 -3.9126 -39
    endloop
  endfacet
  facet normal 0.453987 0.891008 -0
    outer loop
      vertex -6.57168 -6.75945 -42
      vertex -7.0874 -6.49668 -39
      vertex -6.57168 -6.75945 -39
    endloop
  endfacet
  facet normal 0.453987 0.891008 0
    outer loop
      vertex -7.0874 -6.49668 -39
      vertex -6.57168 -6.75945 -42
      vertex -7.0874 -6.49668 -42
    endloop
  endfacet
  facet normal -0.156443 -0.987687 0
    outer loop
      vertex -6 -3.15 -42
      vertex -5.42832 -3.24055 -39
      vertex -6 -3.15 -39
    endloop
  endfacet
  facet normal -0.156443 -0.987687 -0
    outer loop
      vertex -5.42832 -3.24055 -39
      vertex -6 -3.15 -42
      vertex -5.42832 -3.24055 -42
    endloop
  endfacet
  facet normal 0.156443 -0.987687 0
    outer loop
      vertex -6.57168 -3.24055 -42
      vertex -6 -3.15 -39
      vertex -6.57168 -3.24055 -39
    endloop
  endfacet
  facet normal 0.156443 -0.987687 0
    outer loop
      vertex -6 -3.15 -39
      vertex -6.57168 -3.24055 -42
      vertex -6 -3.15 -42
    endloop
  endfacet
  facet normal -0.707107 0.707107 0
    outer loop
      vertex -4.9126 -6.49668 -42
      vertex -4.50332 -6.0874 -39
      vertex -4.50332 -6.0874 -42
    endloop
  endfacet
  facet normal -0.707107 0.707107 0
    outer loop
      vertex -4.50332 -6.0874 -39
      vertex -4.9126 -6.49668 -42
      vertex -4.9126 -6.49668 -39
    endloop
  endfacet
  facet normal 0.707107 0.707107 0
    outer loop
      vertex -7.0874 -6.49668 -39
      vertex -7.49668 -6.0874 -42
      vertex -7.49668 -6.0874 -39
    endloop
  endfacet
  facet normal 0.707107 0.707107 0
    outer loop
      vertex -7.49668 -6.0874 -42
      vertex -7.0874 -6.49668 -39
      vertex -7.0874 -6.49668 -42
    endloop
  endfacet
  facet normal -0.453987 -0.891008 0
    outer loop
      vertex -5.42832 -3.24055 -42
      vertex -4.9126 -3.50332 -39
      vertex -5.42832 -3.24055 -39
    endloop
  endfacet
  facet normal -0.453987 -0.891008 -0
    outer loop
      vertex -4.9126 -3.50332 -39
      vertex -5.42832 -3.24055 -42
      vertex -4.9126 -3.50332 -42
    endloop
  endfacet
  facet normal 0.707107 -0.707107 0
    outer loop
      vertex -7.49668 -3.9126 -39
      vertex -7.0874 -3.50332 -42
      vertex -7.0874 -3.50332 -39
    endloop
  endfacet
  facet normal 0.707107 -0.707107 0
    outer loop
      vertex -7.0874 -3.50332 -42
      vertex -7.49668 -3.9126 -39
      vertex -7.49668 -3.9126 -42
    endloop
  endfacet
  facet normal 0.453987 -0.891008 0
    outer loop
      vertex -7.0874 -3.50332 -42
      vertex -6.57168 -3.24055 -39
      vertex -7.0874 -3.50332 -39
    endloop
  endfacet
  facet normal 0.453987 -0.891008 0
    outer loop
      vertex -6.57168 -3.24055 -39
      vertex -7.0874 -3.50332 -42
      vertex -6.57168 -3.24055 -42
    endloop
  endfacet
  facet normal 0.891008 0.453987 0
    outer loop
      vertex -7.49668 -6.0874 -39
      vertex -7.75945 -5.57168 -42
      vertex -7.75945 -5.57168 -39
    endloop
  endfacet
  facet normal 0.891008 0.453987 0
    outer loop
      vertex -7.75945 -5.57168 -42
      vertex -7.49668 -6.0874 -39
      vertex -7.49668 -6.0874 -42
    endloop
  endfacet
  facet normal -0.453987 0.891008 0
    outer loop
      vertex -4.9126 -6.49668 -42
      vertex -5.42832 -6.75945 -39
      vertex -4.9126 -6.49668 -39
    endloop
  endfacet
  facet normal -0.453987 0.891008 0
    outer loop
      vertex -5.42832 -6.75945 -39
      vertex -4.9126 -6.49668 -42
      vertex -5.42832 -6.75945 -42
    endloop
  endfacet
  facet normal 0.891008 -0.453987 0
    outer loop
      vertex -7.75945 -4.42832 -39
      vertex -7.49668 -3.9126 -42
      vertex -7.49668 -3.9126 -39
    endloop
  endfacet
  facet normal 0.891008 -0.453987 0
    outer loop
      vertex -7.49668 -3.9126 -42
      vertex -7.75945 -4.42832 -39
      vertex -7.75945 -4.42832 -42
    endloop
  endfacet
  facet normal -0.156443 0.987687 0
    outer loop
      vertex -5.42832 -6.75945 -42
      vertex -6 -6.85 -39
      vertex -5.42832 -6.75945 -39
    endloop
  endfacet
  facet normal -0.156443 0.987687 0
    outer loop
      vertex -6 -6.85 -39
      vertex -5.42832 -6.75945 -42
      vertex -6 -6.85 -42
    endloop
  endfacet
  facet normal 0.987687 0.156443 0
    outer loop
      vertex -7.75945 -5.57168 -39
      vertex -7.85 -5 -42
      vertex -7.85 -5 -39
    endloop
  endfacet
  facet normal 0.987687 0.156443 0
    outer loop
      vertex -7.85 -5 -42
      vertex -7.75945 -5.57168 -39
      vertex -7.75945 -5.57168 -42
    endloop
  endfacet
  facet normal 0.987687 -0.156443 0
    outer loop
      vertex -7.85 -5 -39
      vertex -7.75945 -4.42832 -42
      vertex -7.75945 -4.42832 -39
    endloop
  endfacet
  facet normal 0.987687 -0.156443 0
    outer loop
      vertex -7.75945 -4.42832 -42
      vertex -7.85 -5 -39
      vertex -7.85 -5 -42
    endloop
  endfacet
  facet normal -0.891008 0.453987 0
    outer loop
      vertex -4.50332 -6.0874 -42
      vertex -4.24055 -5.57168 -39
      vertex -4.24055 -5.57168 -42
    endloop
  endfacet
  facet normal -0.891008 0.453987 0
    outer loop
      vertex -4.24055 -5.57168 -39
      vertex -4.50332 -6.0874 -42
      vertex -4.50332 -6.0874 -39
    endloop
  endfacet
  facet normal -0.987687 0.156443 0
    outer loop
      vertex -4.24055 -5.57168 -42
      vertex -4.15 -5 -39
      vertex -4.15 -5 -42
    endloop
  endfacet
  facet normal -0.987687 0.156443 0
    outer loop
      vertex -4.15 -5 -39
      vertex -4.24055 -5.57168 -42
      vertex -4.24055 -5.57168 -39
    endloop
  endfacet
  facet normal 0.156443 0.987687 -0
    outer loop
      vertex -6 -6.85 -42
      vertex -6.57168 -6.75945 -39
      vertex -6 -6.85 -39
    endloop
  endfacet
  facet normal 0.156443 0.987687 0
    outer loop
      vertex -6.57168 -6.75945 -39
      vertex -6 -6.85 -42
      vertex -6.57168 -6.75945 -42
    endloop
  endfacet
  facet normal 0.987687 0.156443 0
    outer loop
      vertex 4.24055 -5.57168 -39
      vertex 4.15 -5 -42
      vertex 4.15 -5 -39
    endloop
  endfacet
  facet normal 0.987687 0.156443 0
    outer loop
      vertex 4.15 -5 -42
      vertex 4.24055 -5.57168 -39
      vertex 4.24055 -5.57168 -42
    endloop
  endfacet
  facet normal -0.891008 -0.453987 0
    outer loop
      vertex 7.75945 -4.42832 -42
      vertex 7.49668 -3.9126 -39
      vertex 7.49668 -3.9126 -42
    endloop
  endfacet
  facet normal -0.891008 -0.453987 0
    outer loop
      vertex 7.49668 -3.9126 -39
      vertex 7.75945 -4.42832 -42
      vertex 7.75945 -4.42832 -39
    endloop
  endfacet
  facet normal -0.987687 -0.156443 0
    outer loop
      vertex 7.85 -5 -42
      vertex 7.75945 -4.42832 -39
      vertex 7.75945 -4.42832 -42
    endloop
  endfacet
  facet normal -0.987687 -0.156443 0
    outer loop
      vertex 7.75945 -4.42832 -39
      vertex 7.85 -5 -42
      vertex 7.85 -5 -39
    endloop
  endfacet
  facet normal -0.707107 -0.707107 0
    outer loop
      vertex 7.49668 -3.9126 -42
      vertex 7.0874 -3.50332 -39
      vertex 7.0874 -3.50332 -42
    endloop
  endfacet
  facet normal -0.707107 -0.707107 0
    outer loop
      vertex 7.0874 -3.50332 -39
      vertex 7.49668 -3.9126 -42
      vertex 7.49668 -3.9126 -39
    endloop
  endfacet
  facet normal -0.707107 0.707107 0
    outer loop
      vertex 7.0874 -6.49668 -42
      vertex 7.49668 -6.0874 -39
      vertex 7.49668 -6.0874 -42
    endloop
  endfacet
  facet normal -0.707107 0.707107 0
    outer loop
      vertex 7.49668 -6.0874 -39
      vertex 7.0874 -6.49668 -42
      vertex 7.0874 -6.49668 -39
    endloop
  endfacet
  facet normal -0.156443 -0.987687 0
    outer loop
      vertex 6 -3.15 -42
      vertex 6.57168 -3.24055 -39
      vertex 6 -3.15 -39
    endloop
  endfacet
  facet normal -0.156443 -0.987687 -0
    outer loop
      vertex 6.57168 -3.24055 -39
      vertex 6 -3.15 -42
      vertex 6.57168 -3.24055 -42
    endloop
  endfacet
  facet normal 0.891008 0.453987 0
    outer loop
      vertex 4.50332 -6.0874 -39
      vertex 4.24055 -5.57168 -42
      vertex 4.24055 -5.57168 -39
    endloop
  endfacet
  facet normal 0.891008 0.453987 0
    outer loop
      vertex 4.24055 -5.57168 -42
      vertex 4.50332 -6.0874 -39
      vertex 4.50332 -6.0874 -42
    endloop
  endfacet
  facet normal -0.453987 -0.891008 0
    outer loop
      vertex 6.57168 -3.24055 -42
      vertex 7.0874 -3.50332 -39
      vertex 6.57168 -3.24055 -39
    endloop
  endfacet
  facet normal -0.453987 -0.891008 -0
    outer loop
      vertex 7.0874 -3.50332 -39
      vertex 6.57168 -3.24055 -42
      vertex 7.0874 -3.50332 -42
    endloop
  endfacet
  facet normal 0.156443 0.987687 -0
    outer loop
      vertex 6 -6.85 -42
      vertex 5.42832 -6.75945 -39
      vertex 6 -6.85 -39
    endloop
  endfacet
  facet normal 0.156443 0.987687 0
    outer loop
      vertex 5.42832 -6.75945 -39
      vertex 6 -6.85 -42
      vertex 5.42832 -6.75945 -42
    endloop
  endfacet
  facet normal 0.453987 -0.891008 0
    outer loop
      vertex 4.9126 -3.50332 -42
      vertex 5.42832 -3.24055 -39
      vertex 4.9126 -3.50332 -39
    endloop
  endfacet
  facet normal 0.453987 -0.891008 0
    outer loop
      vertex 5.42832 -3.24055 -39
      vertex 4.9126 -3.50332 -42
      vertex 5.42832 -3.24055 -42
    endloop
  endfacet
  facet normal -0.156443 0.987687 0
    outer loop
      vertex 6.57168 -6.75945 -42
      vertex 6 -6.85 -39
      vertex 6.57168 -6.75945 -39
    endloop
  endfacet
  facet normal -0.156443 0.987687 0
    outer loop
      vertex 6 -6.85 -39
      vertex 6.57168 -6.75945 -42
      vertex 6 -6.85 -42
    endloop
  endfacet
  facet normal -0.453987 0.891008 0
    outer loop
      vertex 7.0874 -6.49668 -42
      vertex 6.57168 -6.75945 -39
      vertex 7.0874 -6.49668 -39
    endloop
  endfacet
  facet normal -0.453987 0.891008 0
    outer loop
      vertex 6.57168 -6.75945 -39
      vertex 7.0874 -6.49668 -42
      vertex 6.57168 -6.75945 -42
    endloop
  endfacet
  facet normal 0.707107 0.707107 0
    outer loop
      vertex 4.9126 -6.49668 -39
      vertex 4.50332 -6.0874 -42
      vertex 4.50332 -6.0874 -39
    endloop
  endfacet
  facet normal 0.707107 0.707107 0
    outer loop
      vertex 4.50332 -6.0874 -42
      vertex 4.9126 -6.49668 -39
      vertex 4.9126 -6.49668 -42
    endloop
  endfacet
  facet normal 0.156443 -0.987687 0
    outer loop
      vertex 5.42832 -3.24055 -42
      vertex 6 -3.15 -39
      vertex 5.42832 -3.24055 -39
    endloop
  endfacet
  facet normal 0.156443 -0.987687 0
    outer loop
      vertex 6 -3.15 -39
      vertex 5.42832 -3.24055 -42
      vertex 6 -3.15 -42
    endloop
  endfacet
  facet normal 0.891008 -0.453987 0
    outer loop
      vertex 4.24055 -4.42832 -39
      vertex 4.50332 -3.9126 -42
      vertex 4.50332 -3.9126 -39
    endloop
  endfacet
  facet normal 0.891008 -0.453987 0
    outer loop
      vertex 4.50332 -3.9126 -42
      vertex 4.24055 -4.42832 -39
      vertex 4.24055 -4.42832 -42
    endloop
  endfacet
  facet normal 0.707107 -0.707107 0
    outer loop
      vertex 4.50332 -3.9126 -39
      vertex 4.9126 -3.50332 -42
      vertex 4.9126 -3.50332 -39
    endloop
  endfacet
  facet normal 0.707107 -0.707107 0
    outer loop
      vertex 4.9126 -3.50332 -42
      vertex 4.50332 -3.9126 -39
      vertex 4.50332 -3.9126 -42
    endloop
  endfacet
  facet normal -0.891008 0.453987 0
    outer loop
      vertex 7.49668 -6.0874 -42
      vertex 7.75945 -5.57168 -39
      vertex 7.75945 -5.57168 -42
    endloop
  endfacet
  facet normal -0.891008 0.453987 0
    outer loop
      vertex 7.75945 -5.57168 -39
      vertex 7.49668 -6.0874 -42
      vertex 7.49668 -6.0874 -39
    endloop
  endfacet
  facet normal -0.987687 0.156443 0
    outer loop
      vertex 7.75945 -5.57168 -42
      vertex 7.85 -5 -39
      vertex 7.85 -5 -42
    endloop
  endfacet
  facet normal -0.987687 0.156443 0
    outer loop
      vertex 7.85 -5 -39
      vertex 7.75945 -5.57168 -42
      vertex 7.75945 -5.57168 -39
    endloop
  endfacet
  facet normal 0.453987 0.891008 -0
    outer loop
      vertex 5.42832 -6.75945 -42
      vertex 4.9126 -6.49668 -39
      vertex 5.42832 -6.75945 -39
    endloop
  endfacet
  facet normal 0.453987 0.891008 0
    outer loop
      vertex 4.9126 -6.49668 -39
      vertex 5.42832 -6.75945 -42
      vertex 4.9126 -6.49668 -42
    endloop
  endfacet
  facet normal 0.987687 -0.156443 0
    outer loop
      vertex 4.15 -5 -39
      vertex 4.24055 -4.42832 -42
      vertex 4.24055 -4.42832 -39
    endloop
  endfacet
  facet normal 0.987687 -0.156443 0
    outer loop
      vertex 4.24055 -4.42832 -42
      vertex 4.15 -5 -39
      vertex 4.15 -5 -42
    endloop
  endfacet
  facet normal -0.891007 -0.45399 0
    outer loop
      vertex -1.95801 -3.68668 -46
      vertex -2.56168 -2.50191 -42
      vertex -2.56168 -2.50191 -46
    endloop
  endfacet
  facet normal -0.891007 -0.45399 0
    outer loop
      vertex -2.56168 -2.50191 -42
      vertex -1.95801 -3.68668 -46
      vertex -1.95801 -3.68668 -42
    endloop
  endfacet
  facet normal -0.987688 -0.156435 0
    outer loop
      vertex -1.75 -5 -46
      vertex -1.95801 -3.68668 -42
      vertex -1.95801 -3.68668 -46
    endloop
  endfacet
  facet normal -0.987688 -0.156435 0
    outer loop
      vertex -1.95801 -3.68668 -42
      vertex -1.75 -5 -46
      vertex -1.75 -5 -42
    endloop
  endfacet
  facet normal -0.707107 -0.707107 0
    outer loop
      vertex -2.56168 -2.50191 -46
      vertex -3.50191 -1.56168 -42
      vertex -3.50191 -1.56168 -46
    endloop
  endfacet
  facet normal -0.707107 -0.707107 0
    outer loop
      vertex -3.50191 -1.56168 -42
      vertex -2.56168 -2.50191 -46
      vertex -2.56168 -2.50191 -42
    endloop
  endfacet
  facet normal 0.987689 -0.156428 0
    outer loop
      vertex -10.25 -5 -42
      vertex -10.042 -3.68668 -46
      vertex -10.042 -3.68668 -42
    endloop
  endfacet
  facet normal 0.987689 -0.156428 0
    outer loop
      vertex -10.042 -3.68668 -46
      vertex -10.25 -5 -42
      vertex -10.25 -5 -46
    endloop
  endfacet
  facet normal 0.156435 -0.987688 0
    outer loop
      vertex -7.31332 -0.95801 -46
      vertex -6 -0.75 -42
      vertex -7.31332 -0.95801 -42
    endloop
  endfacet
  facet normal 0.156435 -0.987688 0
    outer loop
      vertex -6 -0.75 -42
      vertex -7.31332 -0.95801 -46
      vertex -6 -0.75 -46
    endloop
  endfacet
  facet normal 0.707107 0.707107 0
    outer loop
      vertex -8.49809 -8.43832 -42
      vertex -9.43832 -7.49809 -46
      vertex -9.43832 -7.49809 -42
    endloop
  endfacet
  facet normal 0.707107 0.707107 0
    outer loop
      vertex -9.43832 -7.49809 -46
      vertex -8.49809 -8.43832 -42
      vertex -8.49809 -8.43832 -46
    endloop
  endfacet
  facet normal -0.156435 -0.987688 0
    outer loop
      vertex -6 -0.75 -46
      vertex -4.68668 -0.95801 -42
      vertex -6 -0.75 -42
    endloop
  endfacet
  facet normal -0.156435 -0.987688 -0
    outer loop
      vertex -4.68668 -0.95801 -42
      vertex -6 -0.75 -46
      vertex -4.68668 -0.95801 -46
    endloop
  endfacet
  facet normal -0.707107 0.707107 0
    outer loop
      vertex -3.50191 -8.43832 -46
      vertex -2.56168 -7.49809 -42
      vertex -2.56168 -7.49809 -46
    endloop
  endfacet
  facet normal -0.707107 0.707107 0
    outer loop
      vertex -2.56168 -7.49809 -42
      vertex -3.50191 -8.43832 -46
      vertex -3.50191 -8.43832 -42
    endloop
  endfacet
  facet normal 0.707107 -0.707107 0
    outer loop
      vertex -9.43832 -2.50191 -42
      vertex -8.49809 -1.56168 -46
      vertex -8.49809 -1.56168 -42
    endloop
  endfacet
  facet normal 0.707107 -0.707107 0
    outer loop
      vertex -8.49809 -1.56168 -46
      vertex -9.43832 -2.50191 -42
      vertex -9.43832 -2.50191 -46
    endloop
  endfacet
  facet normal 0.45399 0.891007 -0
    outer loop
      vertex -7.31332 -9.04199 -46
      vertex -8.49809 -8.43832 -42
      vertex -7.31332 -9.04199 -42
    endloop
  endfacet
  facet normal 0.45399 0.891007 0
    outer loop
      vertex -8.49809 -8.43832 -42
      vertex -7.31332 -9.04199 -46
      vertex -8.49809 -8.43832 -46
    endloop
  endfacet
  facet normal 0.890963 0.454076 0
    outer loop
      vertex -10 -6.39573 -42
      vertex -10.042 -6.31332 -46
      vertex -10.042 -6.31332 -42
    endloop
  endfacet
  facet normal 0.891007 0.45399 -0
    outer loop
      vertex -9.43832 -7.49809 -46
      vertex -10 -6.39573 -42
      vertex -9.43832 -7.49809 -42
    endloop
  endfacet
  facet normal 0.891004 0.453996 -2.08152e-06
    outer loop
      vertex -10 -6.39573 -42
      vertex -9.43832 -7.49809 -46
      vertex -10.042 -6.31332 -46
    endloop
  endfacet
  facet normal 0.45399 -0.891007 0
    outer loop
      vertex -8.49809 -1.56168 -46
      vertex -7.31332 -0.95801 -42
      vertex -8.49809 -1.56168 -42
    endloop
  endfacet
  facet normal 0.45399 -0.891007 0
    outer loop
      vertex -7.31332 -0.95801 -42
      vertex -8.49809 -1.56168 -46
      vertex -7.31332 -0.95801 -46
    endloop
  endfacet
  facet normal 0.891007 -0.45399 0
    outer loop
      vertex -10 -3.60427 -42
      vertex -9.43832 -2.50191 -46
      vertex -9.43832 -2.50191 -42
    endloop
  endfacet
  facet normal 0.890963 -0.454076 0
    outer loop
      vertex -10.042 -3.68668 -46
      vertex -10 -3.60427 -42
      vertex -10.042 -3.68668 -42
    endloop
  endfacet
  facet normal 0.891004 -0.453996 -2.08152e-06
    outer loop
      vertex -10 -3.60427 -42
      vertex -10.042 -3.68668 -46
      vertex -9.43832 -2.50191 -46
    endloop
  endfacet
  facet normal -0.156435 0.987688 0
    outer loop
      vertex -4.68668 -9.04199 -46
      vertex -6 -9.25 -42
      vertex -4.68668 -9.04199 -42
    endloop
  endfacet
  facet normal -0.156435 0.987688 0
    outer loop
      vertex -6 -9.25 -42
      vertex -4.68668 -9.04199 -46
      vertex -6 -9.25 -46
    endloop
  endfacet
  facet normal -0.45399 -0.891007 0
    outer loop
      vertex -4.68668 -0.95801 -46
      vertex -3.50191 -1.56168 -42
      vertex -4.68668 -0.95801 -42
    endloop
  endfacet
  facet normal -0.45399 -0.891007 -0
    outer loop
      vertex -3.50191 -1.56168 -42
      vertex -4.68668 -0.95801 -46
      vertex -3.50191 -1.56168 -46
    endloop
  endfacet
  facet normal 0.987689 0.156428 0
    outer loop
      vertex -10.042 -6.31332 -42
      vertex -10.25 -5 -46
      vertex -10.25 -5 -42
    endloop
  endfacet
  facet normal 0.987689 0.156428 0
    outer loop
      vertex -10.25 -5 -46
      vertex -10.042 -6.31332 -42
      vertex -10.042 -6.31332 -46
    endloop
  endfacet
  facet normal -0.45399 0.891007 0
    outer loop
      vertex -3.50191 -8.43832 -46
      vertex -4.68668 -9.04199 -42
      vertex -3.50191 -8.43832 -42
    endloop
  endfacet
  facet normal -0.45399 0.891007 0
    outer loop
      vertex -4.68668 -9.04199 -42
      vertex -3.50191 -8.43832 -46
      vertex -4.68668 -9.04199 -46
    endloop
  endfacet
  facet normal -0.891007 0.45399 0
    outer loop
      vertex -2.56168 -7.49809 -46
      vertex -1.95801 -6.31332 -42
      vertex -1.95801 -6.31332 -46
    endloop
  endfacet
  facet normal -0.891007 0.45399 0
    outer loop
      vertex -1.95801 -6.31332 -42
      vertex -2.56168 -7.49809 -46
      vertex -2.56168 -7.49809 -42
    endloop
  endfacet
  facet normal -0.987688 0.156435 0
    outer loop
      vertex -1.95801 -6.31332 -46
      vertex -1.75 -5 -42
      vertex -1.75 -5 -46
    endloop
  endfacet
  facet normal -0.987688 0.156435 0
    outer loop
      vertex -1.75 -5 -42
      vertex -1.95801 -6.31332 -46
      vertex -1.95801 -6.31332 -42
    endloop
  endfacet
  facet normal 0.156435 0.987688 -0
    outer loop
      vertex -6 -9.25 -46
      vertex -7.31332 -9.04199 -42
      vertex -6 -9.25 -42
    endloop
  endfacet
  facet normal 0.156435 0.987688 0
    outer loop
      vertex -7.31332 -9.04199 -42
      vertex -6 -9.25 -46
      vertex -7.31332 -9.04199 -46
    endloop
  endfacet
  facet normal -0.156435 -0.987688 0
    outer loop
      vertex 6 -0.75 -46
      vertex 7.31332 -0.95801 -42
      vertex 6 -0.75 -42
    endloop
  endfacet
  facet normal -0.156435 -0.987688 -0
    outer loop
      vertex 7.31332 -0.95801 -42
      vertex 6 -0.75 -46
      vertex 7.31332 -0.95801 -46
    endloop
  endfacet
  facet normal -0.891004 -0.453996 0
    outer loop
      vertex 10.042 -3.68668 -46
      vertex 9.43832 -2.50191 -42
      vertex 9.43832 -2.50191 -46
    endloop
  endfacet
  facet normal -0.891004 -0.453996 0
    outer loop
      vertex 9.43832 -2.50191 -42
      vertex 10.042 -3.68668 -46
      vertex 10.042 -3.68668 -42
    endloop
  endfacet
  facet normal -0.987689 -0.156428 0
    outer loop
      vertex 10.25 -5 -46
      vertex 10.042 -3.68668 -42
      vertex 10.042 -3.68668 -46
    endloop
  endfacet
  facet normal -0.987689 -0.156428 0
    outer loop
      vertex 10.042 -3.68668 -42
      vertex 10.25 -5 -46
      vertex 10.25 -5 -42
    endloop
  endfacet
  facet normal -0.707107 -0.707107 0
    outer loop
      vertex 9.43832 -2.50191 -46
      vertex 8.49809 -1.56168 -42
      vertex 8.49809 -1.56168 -46
    endloop
  endfacet
  facet normal -0.707107 -0.707107 0
    outer loop
      vertex 8.49809 -1.56168 -42
      vertex 9.43832 -2.50191 -46
      vertex 9.43832 -2.50191 -42
    endloop
  endfacet
  facet normal 0 0 -1
    outer loop
      vertex 7.85 -5 -42
      vertex 10.25 -5 -42
      vertex 10.042 -6.31332 -42
    endloop
  endfacet
  facet normal 0 0 -1
    outer loop
      vertex 7.75945 -5.57168 -42
      vertex 10.042 -6.31332 -42
      vertex 9.43832 -7.49809 -42
    endloop
  endfacet
  facet normal 0 0 -1
    outer loop
      vertex 10.25 -5 -42
      vertex 7.85 -5 -42
      vertex 10.042 -3.68668 -42
    endloop
  endfacet
  facet normal 0 0 -1
    outer loop
      vertex 7.49668 -6.0874 -42
      vertex 9.43832 -7.49809 -42
      vertex 8.49809 -8.43832 -42
    endloop
  endfacet
  facet normal 0 0 -1
    outer loop
      vertex 7.75945 -4.42832 -42
      vertex 10.042 -3.68668 -42
      vertex 7.85 -5 -42
    endloop
  endfacet
  facet normal -0 0 -1
    outer loop
      vertex 10.042 -3.68668 -42
      vertex 7.75945 -4.42832 -42
      vertex 9.43832 -2.50191 -42
    endloop
  endfacet
  facet normal 0 0 -1
    outer loop
      vertex 10.042 -6.31332 -42
      vertex 7.75945 -5.57168 -42
      vertex 7.85 -5 -42
    endloop
  endfacet
  facet normal 0 0 -1
    outer loop
      vertex 9.43832 -7.49809 -42
      vertex 7.49668 -6.0874 -42
      vertex 7.75945 -5.57168 -42
    endloop
  endfacet
  facet normal 0 0 -1
    outer loop
      vertex 7.0874 -6.49668 -42
      vertex 8.49809 -8.43832 -42
      vertex 7.31332 -9.04199 -42
    endloop
  endfacet
  facet normal 0 0 -1
    outer loop
      vertex 8.49809 -8.43832 -42
      vertex 7.0874 -6.49668 -42
      vertex 7.49668 -6.0874 -42
    endloop
  endfacet
  facet normal 0 0 -1
    outer loop
      vertex 7.31332 -9.04199 -42
      vertex 6.57168 -6.75945 -42
      vertex 7.0874 -6.49668 -42
    endloop
  endfacet
  facet normal 0 0 -1
    outer loop
      vertex 6 -9.25 -42
      vertex 6.57168 -6.75945 -42
      vertex 7.31332 -9.04199 -42
    endloop
  endfacet
  facet normal 0 0 -1
    outer loop
      vertex 6 -9.25 -42
      vertex 6 -6.85 -42
      vertex 6.57168 -6.75945 -42
    endloop
  endfacet
  facet normal 0 0 -1
    outer loop
      vertex 6 -9.25 -42
      vertex 5.42832 -6.75945 -42
      vertex 6 -6.85 -42
    endloop
  endfacet
  facet normal 0 0 -1
    outer loop
      vertex 4.68668 -9.04199 -42
      vertex 5.42832 -6.75945 -42
      vertex 6 -9.25 -42
    endloop
  endfacet
  facet normal -0 0 -1
    outer loop
      vertex 5.42832 -6.75945 -42
      vertex 4.68668 -9.04199 -42
      vertex 4.9126 -6.49668 -42
    endloop
  endfacet
  facet normal 0 0 -1
    outer loop
      vertex 3.50191 -8.43832 -42
      vertex 4.9126 -6.49668 -42
      vertex 4.68668 -9.04199 -42
    endloop
  endfacet
  facet normal -0 0 -1
    outer loop
      vertex 4.9126 -6.49668 -42
      vertex 3.50191 -8.43832 -42
      vertex 4.50332 -6.0874 -42
    endloop
  endfacet
  facet normal 0 0 -1
    outer loop
      vertex 2.56168 -7.49809 -42
      vertex 4.50332 -6.0874 -42
      vertex 3.50191 -8.43832 -42
    endloop
  endfacet
  facet normal -0 0 -1
    outer loop
      vertex 4.50332 -6.0874 -42
      vertex 2.56168 -7.49809 -42
      vertex 4.24055 -5.57168 -42
    endloop
  endfacet
  facet normal 0 0 -1
    outer loop
      vertex 7.49668 -3.9126 -42
      vertex 9.43832 -2.50191 -42
      vertex 7.75945 -4.42832 -42
    endloop
  endfacet
  facet normal -0 0 -1
    outer loop
      vertex 9.43832 -2.50191 -42
      vertex 7.49668 -3.9126 -42
      vertex 8.49809 -1.56168 -42
    endloop
  endfacet
  facet normal 0 0 -1
    outer loop
      vertex 7.0874 -3.50332 -42
      vertex 8.49809 -1.56168 -42
      vertex 7.49668 -3.9126 -42
    endloop
  endfacet
  facet normal -0 0 -1
    outer loop
      vertex 8.49809 -1.56168 -42
      vertex 7.0874 -3.50332 -42
      vertex 7.31332 -0.95801 -42
    endloop
  endfacet
  facet normal 0 0 -1
    outer loop
      vertex 6.57168 -3.24055 -42
      vertex 7.31332 -0.95801 -42
      vertex 7.0874 -3.50332 -42
    endloop
  endfacet
  facet normal 0 0 -1
    outer loop
      vertex 6 -3.15 -42
      vertex 7.31332 -0.95801 -42
      vertex 6.57168 -3.24055 -42
    endloop
  endfacet
  facet normal 0 0 -1
    outer loop
      vertex 6 -3.15 -42
      vertex 6 -0.75 -42
      vertex 7.31332 -0.95801 -42
    endloop
  endfacet
  facet normal 0 0 -1
    outer loop
      vertex 5.42832 -3.24055 -42
      vertex 6 -0.75 -42
      vertex 6 -3.15 -42
    endloop
  endfacet
  facet normal 0 0 -1
    outer loop
      vertex 4.68668 -0.95801 -42
      vertex 5.42832 -3.24055 -42
      vertex 4.9126 -3.50332 -42
    endloop
  endfacet
  facet normal 0 0 -1
    outer loop
      vertex 5.42832 -3.24055 -42
      vertex 4.68668 -0.95801 -42
      vertex 6 -0.75 -42
    endloop
  endfacet
  facet normal 0 0 -1
    outer loop
      vertex 3.50191 -1.56168 -42
      vertex 4.9126 -3.50332 -42
      vertex 4.50332 -3.9126 -42
    endloop
  endfacet
  facet normal 0 0 -1
    outer loop
      vertex 2.56168 -2.50191 -42
      vertex 4.50332 -3.9126 -42
      vertex 4.24055 -4.42832 -42
    endloop
  endfacet
  facet normal 0 0 -1
    outer loop
      vertex 1.95801 -3.68668 -42
      vertex 4.24055 -4.42832 -42
      vertex 4.15 -5 -42
    endloop
  endfacet
  facet normal 0 0 -1
    outer loop
      vertex 1.95801 -6.31332 -42
      vertex 4.24055 -5.57168 -42
      vertex 2.56168 -7.49809 -42
    endloop
  endfacet
  facet normal 0 0 -1
    outer loop
      vertex 4.9126 -3.50332 -42
      vertex 3.50191 -1.56168 -42
      vertex 4.68668 -0.95801 -42
    endloop
  endfacet
  facet normal -0 0 -1
    outer loop
      vertex 4.24055 -5.57168 -42
      vertex 1.95801 -6.31332 -42
      vertex 4.15 -5 -42
    endloop
  endfacet
  facet normal 0 0 -1
    outer loop
      vertex 4.50332 -3.9126 -42
      vertex 2.56168 -2.50191 -42
      vertex 3.50191 -1.56168 -42
    endloop
  endfacet
  facet normal 0 0 -1
    outer loop
      vertex 1.75 -5 -42
      vertex 4.15 -5 -42
      vertex 1.95801 -6.31332 -42
    endloop
  endfacet
  facet normal 0 0 -1
    outer loop
      vertex 4.24055 -4.42832 -42
      vertex 1.95801 -3.68668 -42
      vertex 2.56168 -2.50191 -42
    endloop
  endfacet
  facet normal 0 0 -1
    outer loop
      vertex 4.15 -5 -42
      vertex 1.75 -5 -42
      vertex 1.95801 -3.68668 -42
    endloop
  endfacet
  facet normal -0.707107 0.707107 0
    outer loop
      vertex 8.49809 -8.43832 -46
      vertex 9.43832 -7.49809 -42
      vertex 9.43832 -7.49809 -46
    endloop
  endfacet
  facet normal -0.707107 0.707107 0
    outer loop
      vertex 9.43832 -7.49809 -42
      vertex 8.49809 -8.43832 -46
      vertex 8.49809 -8.43832 -42
    endloop
  endfacet
  facet normal -0.45399 0.891007 0
    outer loop
      vertex 8.49809 -8.43832 -46
      vertex 7.31332 -9.04199 -42
      vertex 8.49809 -8.43832 -42
    endloop
  endfacet
  facet normal -0.45399 0.891007 0
    outer loop
      vertex 7.31332 -9.04199 -42
      vertex 8.49809 -8.43832 -46
      vertex 7.31332 -9.04199 -46
    endloop
  endfacet
  facet normal 0.891007 -0.45399 0
    outer loop
      vertex 1.95801 -3.68668 -42
      vertex 2.56168 -2.50191 -46
      vertex 2.56168 -2.50191 -42
    endloop
  endfacet
  facet normal 0.891007 -0.45399 0
    outer loop
      vertex 2.56168 -2.50191 -46
      vertex 1.95801 -3.68668 -42
      vertex 1.95801 -3.68668 -46
    endloop
  endfacet
  facet normal 0.707107 -0.707107 0
    outer loop
      vertex 2.56168 -2.50191 -42
      vertex 3.50191 -1.56168 -46
      vertex 3.50191 -1.56168 -42
    endloop
  endfacet
  facet normal 0.707107 -0.707107 0
    outer loop
      vertex 3.50191 -1.56168 -46
      vertex 2.56168 -2.50191 -42
      vertex 2.56168 -2.50191 -46
    endloop
  endfacet
  facet normal -0.891004 0.453996 0
    outer loop
      vertex 9.43832 -7.49809 -46
      vertex 10.042 -6.31332 -42
      vertex 10.042 -6.31332 -46
    endloop
  endfacet
  facet normal -0.891004 0.453996 0
    outer loop
      vertex 10.042 -6.31332 -42
      vertex 9.43832 -7.49809 -46
      vertex 9.43832 -7.49809 -42
    endloop
  endfacet
  facet normal 0.156435 0.987688 -0
    outer loop
      vertex 6 -9.25 -46
      vertex 4.68668 -9.04199 -42
      vertex 6 -9.25 -42
    endloop
  endfacet
  facet normal 0.156435 0.987688 0
    outer loop
      vertex 4.68668 -9.04199 -42
      vertex 6 -9.25 -46
      vertex 4.68668 -9.04199 -46
    endloop
  endfacet
  facet normal 0.156435 -0.987688 0
    outer loop
      vertex 4.68668 -0.95801 -46
      vertex 6 -0.75 -42
      vertex 4.68668 -0.95801 -42
    endloop
  endfacet
  facet normal 0.156435 -0.987688 0
    outer loop
      vertex 6 -0.75 -42
      vertex 4.68668 -0.95801 -46
      vertex 6 -0.75 -46
    endloop
  endfacet
  facet normal -0.987689 0.156428 0
    outer loop
      vertex 10.042 -6.31332 -46
      vertex 10.25 -5 -42
      vertex 10.25 -5 -46
    endloop
  endfacet
  facet normal -0.987689 0.156428 0
    outer loop
      vertex 10.25 -5 -42
      vertex 10.042 -6.31332 -46
      vertex 10.042 -6.31332 -42
    endloop
  endfacet
  facet normal 0.707107 0.707107 0
    outer loop
      vertex 3.50191 -8.43832 -42
      vertex 2.56168 -7.49809 -46
      vertex 2.56168 -7.49809 -42
    endloop
  endfacet
  facet normal 0.707107 0.707107 0
    outer loop
      vertex 2.56168 -7.49809 -46
      vertex 3.50191 -8.43832 -42
      vertex 3.50191 -8.43832 -46
    endloop
  endfacet
  facet normal 0.45399 -0.891007 0
    outer loop
      vertex 3.50191 -1.56168 -46
      vertex 4.68668 -0.95801 -42
      vertex 3.50191 -1.56168 -42
    endloop
  endfacet
  facet normal 0.45399 -0.891007 0
    outer loop
      vertex 4.68668 -0.95801 -42
      vertex 3.50191 -1.56168 -46
      vertex 4.68668 -0.95801 -46
    endloop
  endfacet
  facet normal 0.987688 0.156435 0
    outer loop
      vertex 1.95801 -6.31332 -42
      vertex 1.75 -5 -46
      vertex 1.75 -5 -42
    endloop
  endfacet
  facet normal 0.987688 0.156435 0
    outer loop
      vertex 1.75 -5 -46
      vertex 1.95801 -6.31332 -42
      vertex 1.95801 -6.31332 -46
    endloop
  endfacet
  facet normal -0.156435 0.987688 0
    outer loop
      vertex 7.31332 -9.04199 -46
      vertex 6 -9.25 -42
      vertex 7.31332 -9.04199 -42
    endloop
  endfacet
  facet normal -0.156435 0.987688 0
    outer loop
      vertex 6 -9.25 -42
      vertex 7.31332 -9.04199 -46
      vertex 6 -9.25 -46
    endloop
  endfacet
  facet normal -0.45399 -0.891007 0
    outer loop
      vertex 7.31332 -0.95801 -46
      vertex 8.49809 -1.56168 -42
      vertex 7.31332 -0.95801 -42
    endloop
  endfacet
  facet normal -0.45399 -0.891007 -0
    outer loop
      vertex 8.49809 -1.56168 -42
      vertex 7.31332 -0.95801 -46
      vertex 8.49809 -1.56168 -46
    endloop
  endfacet
  facet normal 0.891007 0.45399 0
    outer loop
      vertex 2.56168 -7.49809 -42
      vertex 1.95801 -6.31332 -46
      vertex 1.95801 -6.31332 -42
    endloop
  endfacet
  facet normal 0.891007 0.45399 0
    outer loop
      vertex 1.95801 -6.31332 -46
      vertex 2.56168 -7.49809 -42
      vertex 2.56168 -7.49809 -46
    endloop
  endfacet
  facet normal 0.987688 -0.156435 0
    outer loop
      vertex 1.75 -5 -42
      vertex 1.95801 -3.68668 -46
      vertex 1.95801 -3.68668 -42
    endloop
  endfacet
  facet normal 0.987688 -0.156435 0
    outer loop
      vertex 1.95801 -3.68668 -46
      vertex 1.75 -5 -42
      vertex 1.75 -5 -46
    endloop
  endfacet
  facet normal 0.45399 0.891007 -0
    outer loop
      vertex 4.68668 -9.04199 -46
      vertex 3.50191 -8.43832 -42
      vertex 4.68668 -9.04199 -42
    endloop
  endfacet
  facet normal 0.45399 0.891007 0
    outer loop
      vertex 3.50191 -8.43832 -42
      vertex 4.68668 -9.04199 -46
      vertex 3.50191 -8.43832 -46
    endloop
  endfacet
  facet normal -0.891004 -0.453996 0
    outer loop
      vertex -35.765 -4.27381 -46
      vertex -36.0988 -3.6187 -42
      vertex -36.0988 -3.6187 -46
    endloop
  endfacet
  facet normal -0.891004 -0.453996 0
    outer loop
      vertex -36.0988 -3.6187 -42
      vertex -35.765 -4.27381 -46
      vertex -35.765 -4.27381 -42
    endloop
  endfacet
  facet normal -0.987692 -0.156412 0
    outer loop
      vertex -35.65 -5 -46
      vertex -35.765 -4.27381 -42
      vertex -35.765 -4.27381 -46
    endloop
  endfacet
  facet normal -0.987692 -0.156412 0
    outer loop
      vertex -35.765 -4.27381 -42
      vertex -35.65 -5 -46
      vertex -35.65 -5 -42
    endloop
  endfacet
  facet normal -0.7071 -0.707114 0
    outer loop
      vertex -36.6187 -3.09881 -46
      vertex -36.0988 -3.6187 -42
      vertex -36.6187 -3.09881 -42
    endloop
  endfacet
  facet normal -0.7071 -0.707114 -0
    outer loop
      vertex -36.0988 -3.6187 -42
      vertex -36.6187 -3.09881 -46
      vertex -36.0988 -3.6187 -46
    endloop
  endfacet
  facet normal -0.987692 0.156412 0
    outer loop
      vertex -35.765 -5.72619 -46
      vertex -35.65 -5 -42
      vertex -35.65 -5 -46
    endloop
  endfacet
  facet normal -0.987692 0.156412 0
    outer loop
      vertex -35.65 -5 -42
      vertex -35.765 -5.72619 -46
      vertex -35.765 -5.72619 -42
    endloop
  endfacet
  facet normal -0.45399 0.891007 0
    outer loop
      vertex -36.6187 -6.90119 -46
      vertex -37.2738 -7.23498 -42
      vertex -36.6187 -6.90119 -42
    endloop
  endfacet
  facet normal -0.45399 0.891007 0
    outer loop
      vertex -37.2738 -7.23498 -42
      vertex -36.6187 -6.90119 -46
      vertex -37.2738 -7.23498 -46
    endloop
  endfacet
  facet normal 0.7071 -0.707114 0
    outer loop
      vertex -39.9012 -3.6187 -46
      vertex -39.3813 -3.09881 -42
      vertex -39.9012 -3.6187 -42
    endloop
  endfacet
  facet normal 0.7071 -0.707114 0
    outer loop
      vertex -39.3813 -3.09881 -42
      vertex -39.9012 -3.6187 -46
      vertex -39.3813 -3.09881 -46
    endloop
  endfacet
  facet normal 0.156436 0.987688 -0
    outer loop
      vertex -38 -7.35 -46
      vertex -38.7262 -7.23498 -42
      vertex -38 -7.35 -42
    endloop
  endfacet
  facet normal 0.156436 0.987688 0
    outer loop
      vertex -38.7262 -7.23498 -42
      vertex -38 -7.35 -46
      vertex -38.7262 -7.23498 -46
    endloop
  endfacet
  facet normal -0.7071 0.707114 0
    outer loop
      vertex -36.0988 -6.3813 -46
      vertex -36.6187 -6.90119 -42
      vertex -36.0988 -6.3813 -42
    endloop
  endfacet
  facet normal -0.7071 0.707114 0
    outer loop
      vertex -36.6187 -6.90119 -42
      vertex -36.0988 -6.3813 -46
      vertex -36.6187 -6.90119 -46
    endloop
  endfacet
  facet normal 0.987692 0.156412 0
    outer loop
      vertex -40.235 -5.72619 -42
      vertex -40.35 -5 -46
      vertex -40.35 -5 -42
    endloop
  endfacet
  facet normal 0.987692 0.156412 0
    outer loop
      vertex -40.35 -5 -46
      vertex -40.235 -5.72619 -42
      vertex -40.235 -5.72619 -46
    endloop
  endfacet
  facet normal -0.891004 0.453996 0
    outer loop
      vertex -36.0988 -6.3813 -46
      vertex -35.765 -5.72619 -42
      vertex -35.765 -5.72619 -46
    endloop
  endfacet
  facet normal -0.891004 0.453996 0
    outer loop
      vertex -35.765 -5.72619 -42
      vertex -36.0988 -6.3813 -46
      vertex -36.0988 -6.3813 -42
    endloop
  endfacet
  facet normal -0.45399 -0.891007 0
    outer loop
      vertex -37.2738 -2.76502 -46
      vertex -36.6187 -3.09881 -42
      vertex -37.2738 -2.76502 -42
    endloop
  endfacet
  facet normal -0.45399 -0.891007 -0
    outer loop
      vertex -36.6187 -3.09881 -42
      vertex -37.2738 -2.76502 -46
      vertex -36.6187 -3.09881 -46
    endloop
  endfacet
  facet normal 0.7071 0.707114 -0
    outer loop
      vertex -39.3813 -6.90119 -46
      vertex -39.9012 -6.3813 -42
      vertex -39.3813 -6.90119 -42
    endloop
  endfacet
  facet normal 0.7071 0.707114 0
    outer loop
      vertex -39.9012 -6.3813 -42
      vertex -39.3813 -6.90119 -46
      vertex -39.9012 -6.3813 -46
    endloop
  endfacet
  facet normal 0.891004 -0.453996 0
    outer loop
      vertex -40.235 -4.27381 -42
      vertex -39.9012 -3.6187 -46
      vertex -39.9012 -3.6187 -42
    endloop
  endfacet
  facet normal 0.891004 -0.453996 0
    outer loop
      vertex -39.9012 -3.6187 -46
      vertex -40.235 -4.27381 -42
      vertex -40.235 -4.27381 -46
    endloop
  endfacet
  facet normal 0.987692 -0.156412 0
    outer loop
      vertex -40.35 -5 -42
      vertex -40.235 -4.27381 -46
      vertex -40.235 -4.27381 -42
    endloop
  endfacet
  facet normal 0.987692 -0.156412 0
    outer loop
      vertex -40.235 -4.27381 -46
      vertex -40.35 -5 -42
      vertex -40.35 -5 -46
    endloop
  endfacet
  facet normal -0.156436 0.987688 0
    outer loop
      vertex -37.2738 -7.23498 -46
      vertex -38 -7.35 -42
      vertex -37.2738 -7.23498 -42
    endloop
  endfacet
  facet normal -0.156436 0.987688 0
    outer loop
      vertex -38 -7.35 -42
      vertex -37.2738 -7.23498 -46
      vertex -38 -7.35 -46
    endloop
  endfacet
  facet normal 0.45399 -0.891007 0
    outer loop
      vertex -39.3813 -3.09881 -46
      vertex -38.7262 -2.76502 -42
      vertex -39.3813 -3.09881 -42
    endloop
  endfacet
  facet normal 0.45399 -0.891007 0
    outer loop
      vertex -38.7262 -2.76502 -42
      vertex -39.3813 -3.09881 -46
      vertex -38.7262 -2.76502 -46
    endloop
  endfacet
  facet normal 0.891004 0.453996 0
    outer loop
      vertex -39.9012 -6.3813 -42
      vertex -40.235 -5.72619 -46
      vertex -40.235 -5.72619 -42
    endloop
  endfacet
  facet normal 0.891004 0.453996 0
    outer loop
      vertex -40.235 -5.72619 -46
      vertex -39.9012 -6.3813 -42
      vertex -39.9012 -6.3813 -46
    endloop
  endfacet
  facet normal -0.156436 -0.987688 0
    outer loop
      vertex -38 -2.65 -46
      vertex -37.2738 -2.76502 -42
      vertex -38 -2.65 -42
    endloop
  endfacet
  facet normal -0.156436 -0.987688 -0
    outer loop
      vertex -37.2738 -2.76502 -42
      vertex -38 -2.65 -46
      vertex -37.2738 -2.76502 -46
    endloop
  endfacet
  facet normal 0.156436 -0.987688 0
    outer loop
      vertex -38.7262 -2.76502 -46
      vertex -38 -2.65 -42
      vertex -38.7262 -2.76502 -42
    endloop
  endfacet
  facet normal 0.156436 -0.987688 0
    outer loop
      vertex -38 -2.65 -42
      vertex -38.7262 -2.76502 -46
      vertex -38 -2.65 -46
    endloop
  endfacet
  facet normal 0.45399 0.891007 -0
    outer loop
      vertex -38.7262 -7.23498 -46
      vertex -39.3813 -6.90119 -42
      vertex -38.7262 -7.23498 -42
    endloop
  endfacet
  facet normal 0.45399 0.891007 0
    outer loop
      vertex -39.3813 -6.90119 -42
      vertex -38.7262 -7.23498 -46
      vertex -39.3813 -6.90119 -46
    endloop
  endfacet
  facet normal -0.891004 -0.453996 0
    outer loop
      vertex 40.235 -4.27381 -46
      vertex 39.9012 -3.6187 -42
      vertex 39.9012 -3.6187 -46
    endloop
  endfacet
  facet normal -0.891004 -0.453996 0
    outer loop
      vertex 39.9012 -3.6187 -42
      vertex 40.235 -4.27381 -46
      vertex 40.235 -4.27381 -42
    endloop
  endfacet
  facet normal -0.987692 -0.156412 0
    outer loop
      vertex 40.35 -5 -46
      vertex 40.235 -4.27381 -42
      vertex 40.235 -4.27381 -46
    endloop
  endfacet
  facet normal -0.987692 -0.156412 0
    outer loop
      vertex 40.235 -4.27381 -42
      vertex 40.35 -5 -46
      vertex 40.35 -5 -42
    endloop
  endfacet
  facet normal -0.7071 -0.707114 0
    outer loop
      vertex 39.3813 -3.09881 -46
      vertex 39.9012 -3.6187 -42
      vertex 39.3813 -3.09881 -42
    endloop
  endfacet
  facet normal -0.7071 -0.707114 -0
    outer loop
      vertex 39.9012 -3.6187 -42
      vertex 39.3813 -3.09881 -46
      vertex 39.9012 -3.6187 -46
    endloop
  endfacet
  facet normal -0.987692 0.156412 0
    outer loop
      vertex 40.235 -5.72619 -46
      vertex 40.35 -5 -42
      vertex 40.35 -5 -46
    endloop
  endfacet
  facet normal -0.987692 0.156412 0
    outer loop
      vertex 40.35 -5 -42
      vertex 40.235 -5.72619 -46
      vertex 40.235 -5.72619 -42
    endloop
  endfacet
  facet normal -0.45399 0.891007 0
    outer loop
      vertex 39.3813 -6.90119 -46
      vertex 38.7262 -7.23498 -42
      vertex 39.3813 -6.90119 -42
    endloop
  endfacet
  facet normal -0.45399 0.891007 0
    outer loop
      vertex 38.7262 -7.23498 -42
      vertex 39.3813 -6.90119 -46
      vertex 38.7262 -7.23498 -46
    endloop
  endfacet
  facet normal 0.891004 0.453996 0
    outer loop
      vertex 36.0988 -6.3813 -42
      vertex 35.765 -5.72619 -46
      vertex 35.765 -5.72619 -42
    endloop
  endfacet
  facet normal 0.891004 0.453996 0
    outer loop
      vertex 35.765 -5.72619 -46
      vertex 36.0988 -6.3813 -42
      vertex 36.0988 -6.3813 -46
    endloop
  endfacet
  facet normal 0.987692 -0.156412 0
    outer loop
      vertex 35.65 -5 -42
      vertex 35.765 -4.27381 -46
      vertex 35.765 -4.27381 -42
    endloop
  endfacet
  facet normal 0.987692 -0.156412 0
    outer loop
      vertex 35.765 -4.27381 -46
      vertex 35.65 -5 -42
      vertex 35.65 -5 -46
    endloop
  endfacet
  facet normal 0.7071 -0.707114 0
    outer loop
      vertex 36.0988 -3.6187 -46
      vertex 36.6187 -3.09881 -42
      vertex 36.0988 -3.6187 -42
    endloop
  endfacet
  facet normal 0.7071 -0.707114 0
    outer loop
      vertex 36.6187 -3.09881 -42
      vertex 36.0988 -3.6187 -46
      vertex 36.6187 -3.09881 -46
    endloop
  endfacet
  facet normal 0.156436 0.987688 -0
    outer loop
      vertex 38 -7.35 -46
      vertex 37.2738 -7.23498 -42
      vertex 38 -7.35 -42
    endloop
  endfacet
  facet normal 0.156436 0.987688 0
    outer loop
      vertex 37.2738 -7.23498 -42
      vertex 38 -7.35 -46
      vertex 37.2738 -7.23498 -46
    endloop
  endfacet
  facet normal -0.7071 0.707114 0
    outer loop
      vertex 39.9012 -6.3813 -46
      vertex 39.3813 -6.90119 -42
      vertex 39.9012 -6.3813 -42
    endloop
  endfacet
  facet normal -0.7071 0.707114 0
    outer loop
      vertex 39.3813 -6.90119 -42
      vertex 39.9012 -6.3813 -46
      vertex 39.3813 -6.90119 -46
    endloop
  endfacet
  facet normal -0.891004 0.453996 0
    outer loop
      vertex 39.9012 -6.3813 -46
      vertex 40.235 -5.72619 -42
      vertex 40.235 -5.72619 -46
    endloop
  endfacet
  facet normal -0.891004 0.453996 0
    outer loop
      vertex 40.235 -5.72619 -42
      vertex 39.9012 -6.3813 -46
      vertex 39.9012 -6.3813 -42
    endloop
  endfacet
  facet normal -0.156436 -0.987688 0
    outer loop
      vertex 38 -2.65 -46
      vertex 38.7262 -2.76502 -42
      vertex 38 -2.65 -42
    endloop
  endfacet
  facet normal -0.156436 -0.987688 -0
    outer loop
      vertex 38.7262 -2.76502 -42
      vertex 38 -2.65 -46
      vertex 38.7262 -2.76502 -46
    endloop
  endfacet
  facet normal -0.45399 -0.891007 0
    outer loop
      vertex 38.7262 -2.76502 -46
      vertex 39.3813 -3.09881 -42
      vertex 38.7262 -2.76502 -42
    endloop
  endfacet
  facet normal -0.45399 -0.891007 -0
    outer loop
      vertex 39.3813 -3.09881 -42
      vertex 38.7262 -2.76502 -46
      vertex 39.3813 -3.09881 -46
    endloop
  endfacet
  facet normal 0.156436 -0.987688 0
    outer loop
      vertex 37.2738 -2.76502 -46
      vertex 38 -2.65 -42
      vertex 37.2738 -2.76502 -42
    endloop
  endfacet
  facet normal 0.156436 -0.987688 0
    outer loop
      vertex 38 -2.65 -42
      vertex 37.2738 -2.76502 -46
      vertex 38 -2.65 -46
    endloop
  endfacet
  facet normal 0.891004 -0.453996 0
    outer loop
      vertex 35.765 -4.27381 -42
      vertex 36.0988 -3.6187 -46
      vertex 36.0988 -3.6187 -42
    endloop
  endfacet
  facet normal 0.891004 -0.453996 0
    outer loop
      vertex 36.0988 -3.6187 -46
      vertex 35.765 -4.27381 -42
      vertex 35.765 -4.27381 -46
    endloop
  endfacet
  facet normal 0.7071 0.707114 -0
    outer loop
      vertex 36.6187 -6.90119 -46
      vertex 36.0988 -6.3813 -42
      vertex 36.6187 -6.90119 -42
    endloop
  endfacet
  facet normal 0.7071 0.707114 0
    outer loop
      vertex 36.0988 -6.3813 -42
      vertex 36.6187 -6.90119 -46
      vertex 36.0988 -6.3813 -46
    endloop
  endfacet
  facet normal 0.45399 -0.891007 0
    outer loop
      vertex 36.6187 -3.09881 -46
      vertex 37.2738 -2.76502 -42
      vertex 36.6187 -3.09881 -42
    endloop
  endfacet
  facet normal 0.45399 -0.891007 0
    outer loop
      vertex 37.2738 -2.76502 -42
      vertex 36.6187 -3.09881 -46
      vertex 37.2738 -2.76502 -46
    endloop
  endfacet
  facet normal 0.987692 0.156412 0
    outer loop
      vertex 35.765 -5.72619 -42
      vertex 35.65 -5 -46
      vertex 35.65 -5 -42
    endloop
  endfacet
  facet normal 0.987692 0.156412 0
    outer loop
      vertex 35.65 -5 -46
      vertex 35.765 -5.72619 -42
      vertex 35.765 -5.72619 -46
    endloop
  endfacet
  facet normal -0.156436 0.987688 0
    outer loop
      vertex 38.7262 -7.23498 -46
      vertex 38 -7.35 -42
      vertex 38.7262 -7.23498 -42
    endloop
  endfacet
  facet normal -0.156436 0.987688 0
    outer loop
      vertex 38 -7.35 -42
      vertex 38.7262 -7.23498 -46
      vertex 38 -7.35 -46
    endloop
  endfacet
  facet normal 0.45399 0.891007 -0
    outer loop
      vertex 37.2738 -7.23498 -46
      vertex 36.6187 -6.90119 -42
      vertex 37.2738 -7.23498 -42
    endloop
  endfacet
  facet normal 0.45399 0.891007 0
    outer loop
      vertex 36.6187 -6.90119 -42
      vertex 37.2738 -7.23498 -46
      vertex 36.6187 -6.90119 -46
    endloop
  endfacet
endsolid OpenSCAD_Model
