solid OpenSCAD_Model
  facet normal -0.743145 -0.66913 0
    outer loop
      vertex -4.01478 -4.45887 0
      vertex -4.8541 -3.52671 2
      vertex -4.8541 -3.52671 0
    endloop
  endfacet
  facet normal -0.743145 -0.66913 0
    outer loop
      vertex -4.8541 -3.52671 2
      vertex -4.01478 -4.45887 0
      vertex -4.01478 -4.45887 2
    endloop
  endfacet
  facet normal 0.951055 0.309022 0
    outer loop
      vertex 5.86889 1.24747 2
      vertex 5.48127 2.44042 0
      vertex 5.48127 2.44042 2
    endloop
  endfacet
  facet normal 0.951055 0.309022 0
    outer loop
      vertex 5.48127 2.44042 0
      vertex 5.86889 1.24747 2
      vertex 5.86889 1.24747 0
    endloop
  endfacet
  facet normal 0.994522 0.104525 0
    outer loop
      vertex 6 0 2
      vertex 5.86889 1.24747 0
      vertex 5.86889 1.24747 2
    endloop
  endfacet
  facet normal 0.994522 0.104525 0
    outer loop
      vertex 5.86889 1.24747 0
      vertex 6 0 2
      vertex 6 0 0
    endloop
  endfacet
  facet normal 0.866025 0.5 0
    outer loop
      vertex 5.48127 2.44042 2
      vertex 4.8541 3.52671 0
      vertex 4.8541 3.52671 2
    endloop
  endfacet
  facet normal 0.866025 0.5 0
    outer loop
      vertex 4.8541 3.52671 0
      vertex 5.48127 2.44042 2
      vertex 5.48127 2.44042 0
    endloop
  endfacet
  facet normal 0.951055 -0.309022 0
    outer loop
      vertex 5.48127 -2.44042 2
      vertex 5.86889 -1.24747 0
      vertex 5.86889 -1.24747 2
    endloop
  endfacet
  facet normal 0.951055 -0.309022 0
    outer loop
      vertex 5.86889 -1.24747 0
      vertex 5.48127 -2.44042 2
      vertex 5.48127 -2.44042 0
    endloop
  endfacet
  facet normal -0.587785 0.809017 0
    outer loop
      vertex -3 5.19615 0
      vertex -4.01478 4.45887 2
      vertex -3 5.19615 2
    endloop
  endfacet
  facet normal -0.587785 0.809017 0
    outer loop
      vertex -4.01478 4.45887 2
      vertex -3 5.19615 0
      vertex -4.01478 4.45887 0
    endloop
  endfacet
  facet normal 0.587785 -0.809017 0
    outer loop
      vertex 3 -5.19615 0
      vertex 4.01478 -4.45887 2
      vertex 3 -5.19615 2
    endloop
  endfacet
  facet normal 0.587785 -0.809017 0
    outer loop
      vertex 4.01478 -4.45887 2
      vertex 3 -5.19615 0
      vertex 4.01478 -4.45887 0
    endloop
  endfacet
  facet normal 0.743145 -0.66913 0
    outer loop
      vertex 4.01478 -4.45887 2
      vertex 4.8541 -3.52671 0
      vertex 4.8541 -3.52671 2
    endloop
  endfacet
  facet normal 0.743145 -0.66913 0
    outer loop
      vertex 4.8541 -3.52671 0
      vertex 4.01478 -4.45887 2
      vertex 4.01478 -4.45887 0
    endloop
  endfacet
  facet normal 0.994522 -0.104525 0
    outer loop
      vertex 5.86889 -1.24747 2
      vertex 6 0 0
      vertex 6 0 2
    endloop
  endfacet
  facet normal 0.994522 -0.104525 0
    outer loop
      vertex 6 0 0
      vertex 5.86889 -1.24747 2
      vertex 5.86889 -1.24747 0
    endloop
  endfacet
  facet normal -0.406738 -0.913545 0
    outer loop
      vertex -3 -5.19615 0
      vertex -1.8541 -5.70634 2
      vertex -3 -5.19615 2
    endloop
  endfacet
  facet normal -0.406738 -0.913545 -0
    outer loop
      vertex -1.8541 -5.70634 2
      vertex -3 -5.19615 0
      vertex -1.8541 -5.70634 0
    endloop
  endfacet
  facet normal 0.406738 0.913545 -0
    outer loop
      vertex 3 5.19615 0
      vertex 1.8541 5.70634 2
      vertex 3 5.19615 2
    endloop
  endfacet
  facet normal 0.406738 0.913545 0
    outer loop
      vertex 1.8541 5.70634 2
      vertex 3 5.19615 0
      vertex 1.8541 5.70634 0
    endloop
  endfacet
  facet normal 0.743145 0.66913 0
    outer loop
      vertex 4.8541 3.52671 2
      vertex 4.01478 4.45887 0
      vertex 4.01478 4.45887 2
    endloop
  endfacet
  facet normal 0.743145 0.66913 0
    outer loop
      vertex 4.01478 4.45887 0
      vertex 4.8541 3.52671 2
      vertex 4.8541 3.52671 0
    endloop
  endfacet
  facet normal -0.587785 -0.809017 0
    outer loop
      vertex -4.01478 -4.45887 0
      vertex -3 -5.19615 2
      vertex -4.01478 -4.45887 2
    endloop
  endfacet
  facet normal -0.587785 -0.809017 -0
    outer loop
      vertex -3 -5.19615 2
      vertex -4.01478 -4.45887 0
      vertex -3 -5.19615 0
    endloop
  endfacet
  facet normal -0.743145 0.66913 0
    outer loop
      vertex -4.8541 3.52671 0
      vertex -4.01478 4.45887 2
      vertex -4.01478 4.45887 0
    endloop
  endfacet
  facet normal -0.743145 0.66913 0
    outer loop
      vertex -4.01478 4.45887 2
      vertex -4.8541 3.52671 0
      vertex -4.8541 3.52671 2
    endloop
  endfacet
  facet normal 0 1 -0
    outer loop
      vertex 0.627171 5.96713 0
      vertex -0.627171 5.96713 2
      vertex 0.627171 5.96713 2
    endloop
  endfacet
  facet normal 0 1 0
    outer loop
      vertex -0.627171 5.96713 2
      vertex 0.627171 5.96713 0
      vertex -0.627171 5.96713 0
    endloop
  endfacet
  facet normal 0.406738 -0.913545 0
    outer loop
      vertex 1.8541 -5.70634 0
      vertex 3 -5.19615 2
      vertex 1.8541 -5.70634 2
    endloop
  endfacet
  facet normal 0.406738 -0.913545 0
    outer loop
      vertex 3 -5.19615 2
      vertex 1.8541 -5.70634 0
      vertex 3 -5.19615 0
    endloop
  endfacet
  facet normal 0.20791 -0.978148 0
    outer loop
      vertex 0.627171 -5.96713 0
      vertex 1.8541 -5.70634 2
      vertex 0.627171 -5.96713 2
    endloop
  endfacet
  facet normal 0.20791 -0.978148 0
    outer loop
      vertex 1.8541 -5.70634 2
      vertex 0.627171 -5.96713 0
      vertex 1.8541 -5.70634 0
    endloop
  endfacet
  facet normal -0.951055 0.309022 0
    outer loop
      vertex -5.86889 1.24747 0
      vertex -5.48127 2.44042 2
      vertex -5.48127 2.44042 0
    endloop
  endfacet
  facet normal -0.951055 0.309022 0
    outer loop
      vertex -5.48127 2.44042 2
      vertex -5.86889 1.24747 0
      vertex -5.86889 1.24747 2
    endloop
  endfacet
  facet normal 0 0 -1
    outer loop
      vertex 2.15 0 0
      vertex 6 0 0
      vertex 5.86889 -1.24747 0
    endloop
  endfacet
  facet normal 0 0 -1
    outer loop
      vertex 2.10302 -0.44701 0
      vertex 5.86889 -1.24747 0
      vertex 5.48127 -2.44042 0
    endloop
  endfacet
  facet normal 0 0 -1
    outer loop
      vertex 6 0 0
      vertex 2.15 0 0
      vertex 5.86889 1.24747 0
    endloop
  endfacet
  facet normal 0 0 -1
    outer loop
      vertex 1.96412 -0.874483 0
      vertex 5.48127 -2.44042 0
      vertex 4.8541 -3.52671 0
    endloop
  endfacet
  facet normal 0 0 -1
    outer loop
      vertex 2.10302 0.44701 0
      vertex 5.86889 1.24747 0
      vertex 2.15 0 0
    endloop
  endfacet
  facet normal 0 0 -1
    outer loop
      vertex 1.73939 -1.26374 0
      vertex 4.8541 -3.52671 0
      vertex 4.01478 -4.45887 0
    endloop
  endfacet
  facet normal -0 0 -1
    outer loop
      vertex 5.86889 1.24747 0
      vertex 2.10302 0.44701 0
      vertex 5.48127 2.44042 0
    endloop
  endfacet
  facet normal 0 0 -1
    outer loop
      vertex 1.43863 -1.59776 0
      vertex 4.01478 -4.45887 0
      vertex 3 -5.19615 0
    endloop
  endfacet
  facet normal 0 0 -1
    outer loop
      vertex 1.96412 0.874483 0
      vertex 5.48127 2.44042 0
      vertex 2.10302 0.44701 0
    endloop
  endfacet
  facet normal -0 0 -1
    outer loop
      vertex 5.48127 2.44042 0
      vertex 1.96412 0.874483 0
      vertex 4.8541 3.52671 0
    endloop
  endfacet
  facet normal 0 0 -1
    outer loop
      vertex 5.86889 -1.24747 0
      vertex 2.10302 -0.44701 0
      vertex 2.15 0 0
    endloop
  endfacet
  facet normal 0 0 -1
    outer loop
      vertex 5.48127 -2.44042 0
      vertex 1.96412 -0.874483 0
      vertex 2.10302 -0.44701 0
    endloop
  endfacet
  facet normal 0 0 -1
    outer loop
      vertex 1.075 -1.86195 0
      vertex 3 -5.19615 0
      vertex 1.8541 -5.70634 0
    endloop
  endfacet
  facet normal 0 0 -1
    outer loop
      vertex 4.8541 -3.52671 0
      vertex 1.73939 -1.26374 0
      vertex 1.96412 -0.874483 0
    endloop
  endfacet
  facet normal 0 0 -1
    outer loop
      vertex 4.01478 -4.45887 0
      vertex 1.43863 -1.59776 0
      vertex 1.73939 -1.26374 0
    endloop
  endfacet
  facet normal 0 0 -1
    outer loop
      vertex 3 -5.19615 0
      vertex 1.075 -1.86195 0
      vertex 1.43863 -1.59776 0
    endloop
  endfacet
  facet normal 0 0 -1
    outer loop
      vertex 1.8541 -5.70634 0
      vertex 0.664386 -2.04477 0
      vertex 1.075 -1.86195 0
    endloop
  endfacet
  facet normal 0 0 -1
    outer loop
      vertex 0.627171 -5.96713 0
      vertex 0.664386 -2.04477 0
      vertex 1.8541 -5.70634 0
    endloop
  endfacet
  facet normal 0 0 -1
    outer loop
      vertex 0.627171 -5.96713 0
      vertex 0.224735 -2.13822 0
      vertex 0.664386 -2.04477 0
    endloop
  endfacet
  facet normal 0 0 -1
    outer loop
      vertex 0.627171 -5.96713 0
      vertex -0.224735 -2.13822 0
      vertex 0.224735 -2.13822 0
    endloop
  endfacet
  facet normal 0 0 -1
    outer loop
      vertex -0.627171 -5.96713 0
      vertex -0.224735 -2.13822 0
      vertex 0.627171 -5.96713 0
    endloop
  endfacet
  facet normal 0 0 -1
    outer loop
      vertex -0.627171 -5.96713 0
      vertex -0.664386 -2.04477 0
      vertex -0.224735 -2.13822 0
    endloop
  endfacet
  facet normal 0 0 -1
    outer loop
      vertex -1.8541 -5.70634 0
      vertex -0.664386 -2.04477 0
      vertex -0.627171 -5.96713 0
    endloop
  endfacet
  facet normal -0 0 -1
    outer loop
      vertex -0.664386 -2.04477 0
      vertex -1.8541 -5.70634 0
      vertex -1.075 -1.86195 0
    endloop
  endfacet
  facet normal 0 0 -1
    outer loop
      vertex -3 -5.19615 0
      vertex -1.075 -1.86195 0
      vertex -1.8541 -5.70634 0
    endloop
  endfacet
  facet normal -0 0 -1
    outer loop
      vertex -1.075 -1.86195 0
      vertex -3 -5.19615 0
      vertex -1.43863 -1.59776 0
    endloop
  endfacet
  facet normal 0 0 -1
    outer loop
      vertex -4.01478 -4.45887 0
      vertex -1.43863 -1.59776 0
      vertex -3 -5.19615 0
    endloop
  endfacet
  facet normal -0 0 -1
    outer loop
      vertex -1.43863 -1.59776 0
      vertex -4.01478 -4.45887 0
      vertex -1.73939 -1.26374 0
    endloop
  endfacet
  facet normal 0 0 -1
    outer loop
      vertex -4.8541 -3.52671 0
      vertex -1.73939 -1.26374 0
      vertex -4.01478 -4.45887 0
    endloop
  endfacet
  facet normal -0 0 -1
    outer loop
      vertex -1.73939 -1.26374 0
      vertex -4.8541 -3.52671 0
      vertex -1.96412 -0.874483 0
    endloop
  endfacet
  facet normal 0 0 -1
    outer loop
      vertex 1.73939 1.26374 0
      vertex 4.8541 3.52671 0
      vertex 1.96412 0.874483 0
    endloop
  endfacet
  facet normal -0 0 -1
    outer loop
      vertex 4.8541 3.52671 0
      vertex 1.73939 1.26374 0
      vertex 4.01478 4.45887 0
    endloop
  endfacet
  facet normal 0 0 -1
    outer loop
      vertex 1.43863 1.59776 0
      vertex 4.01478 4.45887 0
      vertex 1.73939 1.26374 0
    endloop
  endfacet
  facet normal -0 0 -1
    outer loop
      vertex 4.01478 4.45887 0
      vertex 1.43863 1.59776 0
      vertex 3 5.19615 0
    endloop
  endfacet
  facet normal 0 0 -1
    outer loop
      vertex 1.075 1.86195 0
      vertex 3 5.19615 0
      vertex 1.43863 1.59776 0
    endloop
  endfacet
  facet normal -0 0 -1
    outer loop
      vertex 3 5.19615 0
      vertex 1.075 1.86195 0
      vertex 1.8541 5.70634 0
    endloop
  endfacet
  facet normal 0 0 -1
    outer loop
      vertex 0.664386 2.04477 0
      vertex 1.8541 5.70634 0
      vertex 1.075 1.86195 0
    endloop
  endfacet
  facet normal 0 0 -1
    outer loop
      vertex 0.664386 2.04477 0
      vertex 0.627171 5.96713 0
      vertex 1.8541 5.70634 0
    endloop
  endfacet
  facet normal 0 0 -1
    outer loop
      vertex 0.224735 2.13822 0
      vertex 0.627171 5.96713 0
      vertex 0.664386 2.04477 0
    endloop
  endfacet
  facet normal 0 0 -1
    outer loop
      vertex -0.224735 2.13822 0
      vertex 0.627171 5.96713 0
      vertex 0.224735 2.13822 0
    endloop
  endfacet
  facet normal 0 0 -1
    outer loop
      vertex -0.224735 2.13822 0
      vertex -0.627171 5.96713 0
      vertex 0.627171 5.96713 0
    endloop
  endfacet
  facet normal 0 0 -1
    outer loop
      vertex -0.664386 2.04477 0
      vertex -0.627171 5.96713 0
      vertex -0.224735 2.13822 0
    endloop
  endfacet
  facet normal 0 0 -1
    outer loop
      vertex -1.8541 5.70634 0
      vertex -0.664386 2.04477 0
      vertex -1.075 1.86195 0
    endloop
  endfacet
  facet normal 0 0 -1
    outer loop
      vertex -3 5.19615 0
      vertex -1.075 1.86195 0
      vertex -1.43863 1.59776 0
    endloop
  endfacet
  facet normal 0 0 -1
    outer loop
      vertex -4.01478 4.45887 0
      vertex -1.43863 1.59776 0
      vertex -1.73939 1.26374 0
    endloop
  endfacet
  facet normal 0 0 -1
    outer loop
      vertex -0.664386 2.04477 0
      vertex -1.8541 5.70634 0
      vertex -0.627171 5.96713 0
    endloop
  endfacet
  facet normal 0 0 -1
    outer loop
      vertex -4.8541 3.52671 0
      vertex -1.73939 1.26374 0
      vertex -1.96412 0.874483 0
    endloop
  endfacet
  facet normal 0 0 -1
    outer loop
      vertex -5.48127 2.44042 0
      vertex -1.96412 0.874483 0
      vertex -2.10302 0.44701 0
    endloop
  endfacet
  facet normal 0 0 -1
    outer loop
      vertex -5.86889 1.24747 0
      vertex -2.10302 0.44701 0
      vertex -2.15 0 0
    endloop
  endfacet
  facet normal 0 0 -1
    outer loop
      vertex -5.48127 -2.44042 0
      vertex -1.96412 -0.874483 0
      vertex -4.8541 -3.52671 0
    endloop
  endfacet
  facet normal 0 0 -1
    outer loop
      vertex -1.075 1.86195 0
      vertex -3 5.19615 0
      vertex -1.8541 5.70634 0
    endloop
  endfacet
  facet normal -0 0 -1
    outer loop
      vertex -1.96412 -0.874483 0
      vertex -5.48127 -2.44042 0
      vertex -2.10302 -0.44701 0
    endloop
  endfacet
  facet normal 0 0 -1
    outer loop
      vertex -1.43863 1.59776 0
      vertex -4.01478 4.45887 0
      vertex -3 5.19615 0
    endloop
  endfacet
  facet normal 0 0 -1
    outer loop
      vertex -5.86889 -1.24747 0
      vertex -2.10302 -0.44701 0
      vertex -5.48127 -2.44042 0
    endloop
  endfacet
  facet normal 0 0 -1
    outer loop
      vertex -1.73939 1.26374 0
      vertex -4.8541 3.52671 0
      vertex -4.01478 4.45887 0
    endloop
  endfacet
  facet normal -0 0 -1
    outer loop
      vertex -2.10302 -0.44701 0
      vertex -5.86889 -1.24747 0
      vertex -2.15 0 0
    endloop
  endfacet
  facet normal 0 0 -1
    outer loop
      vertex -1.96412 0.874483 0
      vertex -5.48127 2.44042 0
      vertex -4.8541 3.52671 0
    endloop
  endfacet
  facet normal 0 0 -1
    outer loop
      vertex -6 0 0
      vertex -2.15 0 0
      vertex -5.86889 -1.24747 0
    endloop
  endfacet
  facet normal 0 0 -1
    outer loop
      vertex -2.10302 0.44701 0
      vertex -5.86889 1.24747 0
      vertex -5.48127 2.44042 0
    endloop
  endfacet
  facet normal 0 0 -1
    outer loop
      vertex -2.15 0 0
      vertex -6 0 0
      vertex -5.86889 1.24747 0
    endloop
  endfacet
  facet normal -0.951055 -0.309022 0
    outer loop
      vertex -5.48127 -2.44042 0
      vertex -5.86889 -1.24747 2
      vertex -5.86889 -1.24747 0
    endloop
  endfacet
  facet normal -0.951055 -0.309022 0
    outer loop
      vertex -5.86889 -1.24747 2
      vertex -5.48127 -2.44042 0
      vertex -5.48127 -2.44042 2
    endloop
  endfacet
  facet normal -0.406738 0.913545 0
    outer loop
      vertex -1.8541 5.70634 0
      vertex -3 5.19615 2
      vertex -1.8541 5.70634 2
    endloop
  endfacet
  facet normal -0.406738 0.913545 0
    outer loop
      vertex -3 5.19615 2
      vertex -1.8541 5.70634 0
      vertex -3 5.19615 0
    endloop
  endfacet
  facet normal 0 0 1
    outer loop
      vertex 2.15 0 2
      vertex 6 0 2
      vertex 5.86889 1.24747 2
    endloop
  endfacet
  facet normal 0 0 1
    outer loop
      vertex 2.10302 0.44701 2
      vertex 5.86889 1.24747 2
      vertex 5.48127 2.44042 2
    endloop
  endfacet
  facet normal 0 0 1
    outer loop
      vertex 6 0 2
      vertex 2.15 0 2
      vertex 5.86889 -1.24747 2
    endloop
  endfacet
  facet normal 0 0 1
    outer loop
      vertex 1.96412 0.874483 2
      vertex 5.48127 2.44042 2
      vertex 4.8541 3.52671 2
    endloop
  endfacet
  facet normal -0 0 1
    outer loop
      vertex 2.10302 -0.44701 2
      vertex 5.86889 -1.24747 2
      vertex 2.15 0 2
    endloop
  endfacet
  facet normal 0 0 1
    outer loop
      vertex 1.73939 1.26374 2
      vertex 4.8541 3.52671 2
      vertex 4.01478 4.45887 2
    endloop
  endfacet
  facet normal 0 0 1
    outer loop
      vertex 5.86889 -1.24747 2
      vertex 2.10302 -0.44701 2
      vertex 5.48127 -2.44042 2
    endloop
  endfacet
  facet normal 0 0 1
    outer loop
      vertex 1.43863 1.59776 2
      vertex 4.01478 4.45887 2
      vertex 3 5.19615 2
    endloop
  endfacet
  facet normal -0 0 1
    outer loop
      vertex 1.96412 -0.874483 2
      vertex 5.48127 -2.44042 2
      vertex 2.10302 -0.44701 2
    endloop
  endfacet
  facet normal 0 0 1
    outer loop
      vertex 5.48127 -2.44042 2
      vertex 1.96412 -0.874483 2
      vertex 4.8541 -3.52671 2
    endloop
  endfacet
  facet normal 0 0 1
    outer loop
      vertex 5.86889 1.24747 2
      vertex 2.10302 0.44701 2
      vertex 2.15 0 2
    endloop
  endfacet
  facet normal 0 0 1
    outer loop
      vertex 5.48127 2.44042 2
      vertex 1.96412 0.874483 2
      vertex 2.10302 0.44701 2
    endloop
  endfacet
  facet normal 0 0 1
    outer loop
      vertex 1.075 1.86195 2
      vertex 3 5.19615 2
      vertex 1.8541 5.70634 2
    endloop
  endfacet
  facet normal 0 0 1
    outer loop
      vertex 4.8541 3.52671 2
      vertex 1.73939 1.26374 2
      vertex 1.96412 0.874483 2
    endloop
  endfacet
  facet normal 0 0 1
    outer loop
      vertex 4.01478 4.45887 2
      vertex 1.43863 1.59776 2
      vertex 1.73939 1.26374 2
    endloop
  endfacet
  facet normal 0 0 1
    outer loop
      vertex 3 5.19615 2
      vertex 1.075 1.86195 2
      vertex 1.43863 1.59776 2
    endloop
  endfacet
  facet normal 0 0 1
    outer loop
      vertex 1.8541 5.70634 2
      vertex 0.664386 2.04477 2
      vertex 1.075 1.86195 2
    endloop
  endfacet
  facet normal 0 0 1
    outer loop
      vertex 0.627171 5.96713 2
      vertex 0.664386 2.04477 2
      vertex 1.8541 5.70634 2
    endloop
  endfacet
  facet normal 0 0 1
    outer loop
      vertex 0.627171 5.96713 2
      vertex 0.224735 2.13822 2
      vertex 0.664386 2.04477 2
    endloop
  endfacet
  facet normal 0 0 1
    outer loop
      vertex 0.627171 5.96713 2
      vertex -0.224735 2.13822 2
      vertex 0.224735 2.13822 2
    endloop
  endfacet
  facet normal -0 0 1
    outer loop
      vertex -0.627171 5.96713 2
      vertex -0.224735 2.13822 2
      vertex 0.627171 5.96713 2
    endloop
  endfacet
  facet normal 0 0 1
    outer loop
      vertex -0.627171 5.96713 2
      vertex -0.664386 2.04477 2
      vertex -0.224735 2.13822 2
    endloop
  endfacet
  facet normal -0 0 1
    outer loop
      vertex -1.8541 5.70634 2
      vertex -0.664386 2.04477 2
      vertex -0.627171 5.96713 2
    endloop
  endfacet
  facet normal 0 0 1
    outer loop
      vertex -0.664386 2.04477 2
      vertex -1.8541 5.70634 2
      vertex -1.075 1.86195 2
    endloop
  endfacet
  facet normal -0 0 1
    outer loop
      vertex -3 5.19615 2
      vertex -1.075 1.86195 2
      vertex -1.8541 5.70634 2
    endloop
  endfacet
  facet normal 0 0 1
    outer loop
      vertex -1.075 1.86195 2
      vertex -3 5.19615 2
      vertex -1.43863 1.59776 2
    endloop
  endfacet
  facet normal -0 0 1
    outer loop
      vertex -4.01478 4.45887 2
      vertex -1.43863 1.59776 2
      vertex -3 5.19615 2
    endloop
  endfacet
  facet normal 0 0 1
    outer loop
      vertex -1.43863 1.59776 2
      vertex -4.01478 4.45887 2
      vertex -1.73939 1.26374 2
    endloop
  endfacet
  facet normal -0 0 1
    outer loop
      vertex -4.8541 3.52671 2
      vertex -1.73939 1.26374 2
      vertex -4.01478 4.45887 2
    endloop
  endfacet
  facet normal 0 0 1
    outer loop
      vertex -1.73939 1.26374 2
      vertex -4.8541 3.52671 2
      vertex -1.96412 0.874483 2
    endloop
  endfacet
  facet normal -0 0 1
    outer loop
      vertex 1.73939 -1.26374 2
      vertex 4.8541 -3.52671 2
      vertex 1.96412 -0.874483 2
    endloop
  endfacet
  facet normal 0 0 1
    outer loop
      vertex 4.8541 -3.52671 2
      vertex 1.73939 -1.26374 2
      vertex 4.01478 -4.45887 2
    endloop
  endfacet
  facet normal -0 0 1
    outer loop
      vertex 1.43863 -1.59776 2
      vertex 4.01478 -4.45887 2
      vertex 1.73939 -1.26374 2
    endloop
  endfacet
  facet normal 0 0 1
    outer loop
      vertex 4.01478 -4.45887 2
      vertex 1.43863 -1.59776 2
      vertex 3 -5.19615 2
    endloop
  endfacet
  facet normal -0 0 1
    outer loop
      vertex 1.075 -1.86195 2
      vertex 3 -5.19615 2
      vertex 1.43863 -1.59776 2
    endloop
  endfacet
  facet normal 0 0 1
    outer loop
      vertex 3 -5.19615 2
      vertex 1.075 -1.86195 2
      vertex 1.8541 -5.70634 2
    endloop
  endfacet
  facet normal -0 0 1
    outer loop
      vertex 0.664386 -2.04477 2
      vertex 1.8541 -5.70634 2
      vertex 1.075 -1.86195 2
    endloop
  endfacet
  facet normal 0 0 1
    outer loop
      vertex 0.664386 -2.04477 2
      vertex 0.627171 -5.96713 2
      vertex 1.8541 -5.70634 2
    endloop
  endfacet
  facet normal -0 0 1
    outer loop
      vertex 0.224735 -2.13822 2
      vertex 0.627171 -5.96713 2
      vertex 0.664386 -2.04477 2
    endloop
  endfacet
  facet normal -0 0 1
    outer loop
      vertex -0.224735 -2.13822 2
      vertex 0.627171 -5.96713 2
      vertex 0.224735 -2.13822 2
    endloop
  endfacet
  facet normal 0 0 1
    outer loop
      vertex -0.224735 -2.13822 2
      vertex -0.627171 -5.96713 2
      vertex 0.627171 -5.96713 2
    endloop
  endfacet
  facet normal 0 0 1
    outer loop
      vertex -0.664386 -2.04477 2
      vertex -0.627171 -5.96713 2
      vertex -0.224735 -2.13822 2
    endloop
  endfacet
  facet normal 0 0 1
    outer loop
      vertex -1.8541 -5.70634 2
      vertex -0.664386 -2.04477 2
      vertex -1.075 -1.86195 2
    endloop
  endfacet
  facet normal 0 0 1
    outer loop
      vertex -3 -5.19615 2
      vertex -1.075 -1.86195 2
      vertex -1.43863 -1.59776 2
    endloop
  endfacet
  facet normal 0 0 1
    outer loop
      vertex -4.01478 -4.45887 2
      vertex -1.43863 -1.59776 2
      vertex -1.73939 -1.26374 2
    endloop
  endfacet
  facet normal 0 0 1
    outer loop
      vertex -0.664386 -2.04477 2
      vertex -1.8541 -5.70634 2
      vertex -0.627171 -5.96713 2
    endloop
  endfacet
  facet normal 0 0 1
    outer loop
      vertex -4.8541 -3.52671 2
      vertex -1.73939 -1.26374 2
      vertex -1.96412 -0.874483 2
    endloop
  endfacet
  facet normal 0 0 1
    outer loop
      vertex -5.48127 -2.44042 2
      vertex -1.96412 -0.874483 2
      vertex -2.10302 -0.44701 2
    endloop
  endfacet
  facet normal 0 0 1
    outer loop
      vertex -5.86889 -1.24747 2
      vertex -2.10302 -0.44701 2
      vertex -2.15 0 2
    endloop
  endfacet
  facet normal -0 0 1
    outer loop
      vertex -5.48127 2.44042 2
      vertex -1.96412 0.874483 2
      vertex -4.8541 3.52671 2
    endloop
  endfacet
  facet normal 0 0 1
    outer loop
      vertex -1.075 -1.86195 2
      vertex -3 -5.19615 2
      vertex -1.8541 -5.70634 2
    endloop
  endfacet
  facet normal 0 0 1
    outer loop
      vertex -1.96412 0.874483 2
      vertex -5.48127 2.44042 2
      vertex -2.10302 0.44701 2
    endloop
  endfacet
  facet normal 0 0 1
    outer loop
      vertex -1.43863 -1.59776 2
      vertex -4.01478 -4.45887 2
      vertex -3 -5.19615 2
    endloop
  endfacet
  facet normal -0 0 1
    outer loop
      vertex -5.86889 1.24747 2
      vertex -2.10302 0.44701 2
      vertex -5.48127 2.44042 2
    endloop
  endfacet
  facet normal 0 0 1
    outer loop
      vertex -1.73939 -1.26374 2
      vertex -4.8541 -3.52671 2
      vertex -4.01478 -4.45887 2
    endloop
  endfacet
  facet normal 0 0 1
    outer loop
      vertex -2.10302 0.44701 2
      vertex -5.86889 1.24747 2
      vertex -2.15 0 2
    endloop
  endfacet
  facet normal 0 0 1
    outer loop
      vertex -1.96412 -0.874483 2
      vertex -5.48127 -2.44042 2
      vertex -4.8541 -3.52671 2
    endloop
  endfacet
  facet normal 0 0 1
    outer loop
      vertex -6 0 2
      vertex -2.15 0 2
      vertex -5.86889 1.24747 2
    endloop
  endfacet
  facet normal 0 0 1
    outer loop
      vertex -2.10302 -0.44701 2
      vertex -5.86889 -1.24747 2
      vertex -5.48127 -2.44042 2
    endloop
  endfacet
  facet normal 0 0 1
    outer loop
      vertex -2.15 0 2
      vertex -6 0 2
      vertex -5.86889 -1.24747 2
    endloop
  endfacet
  facet normal -0.20791 -0.978148 0
    outer loop
      vertex -1.8541 -5.70634 0
      vertex -0.627171 -5.96713 2
      vertex -1.8541 -5.70634 2
    endloop
  endfacet
  facet normal -0.20791 -0.978148 -0
    outer loop
      vertex -0.627171 -5.96713 2
      vertex -1.8541 -5.70634 0
      vertex -0.627171 -5.96713 0
    endloop
  endfacet
  facet normal 0.20791 0.978148 -0
    outer loop
      vertex 1.8541 5.70634 0
      vertex 0.627171 5.96713 2
      vertex 1.8541 5.70634 2
    endloop
  endfacet
  facet normal 0.20791 0.978148 0
    outer loop
      vertex 0.627171 5.96713 2
      vertex 1.8541 5.70634 0
      vertex 0.627171 5.96713 0
    endloop
  endfacet
  facet normal -0.994522 -0.104525 0
    outer loop
      vertex -5.86889 -1.24747 0
      vertex -6 0 2
      vertex -6 0 0
    endloop
  endfacet
  facet normal -0.994522 -0.104525 0
    outer loop
      vertex -6 0 2
      vertex -5.86889 -1.24747 0
      vertex -5.86889 -1.24747 2
    endloop
  endfacet
  facet normal -0.866025 -0.5 0
    outer loop
      vertex -4.8541 -3.52671 0
      vertex -5.48127 -2.44042 2
      vertex -5.48127 -2.44042 0
    endloop
  endfacet
  facet normal -0.866025 -0.5 0
    outer loop
      vertex -5.48127 -2.44042 2
      vertex -4.8541 -3.52671 0
      vertex -4.8541 -3.52671 2
    endloop
  endfacet
  facet normal -0.866025 0.5 0
    outer loop
      vertex -5.48127 2.44042 0
      vertex -4.8541 3.52671 2
      vertex -4.8541 3.52671 0
    endloop
  endfacet
  facet normal -0.866025 0.5 0
    outer loop
      vertex -4.8541 3.52671 2
      vertex -5.48127 2.44042 0
      vertex -5.48127 2.44042 2
    endloop
  endfacet
  facet normal 0.866025 -0.5 0
    outer loop
      vertex 4.8541 -3.52671 2
      vertex 5.48127 -2.44042 0
      vertex 5.48127 -2.44042 2
    endloop
  endfacet
  facet normal 0.866025 -0.5 0
    outer loop
      vertex 5.48127 -2.44042 0
      vertex 4.8541 -3.52671 2
      vertex 4.8541 -3.52671 0
    endloop
  endfacet
  facet normal 0.587785 0.809017 -0
    outer loop
      vertex 4.01478 4.45887 0
      vertex 3 5.19615 2
      vertex 4.01478 4.45887 2
    endloop
  endfacet
  facet normal 0.587785 0.809017 0
    outer loop
      vertex 3 5.19615 2
      vertex 4.01478 4.45887 0
      vertex 3 5.19615 0
    endloop
  endfacet
  facet normal -0.20791 0.978148 0
    outer loop
      vertex -0.627171 5.96713 0
      vertex -1.8541 5.70634 2
      vertex -0.627171 5.96713 2
    endloop
  endfacet
  facet normal -0.20791 0.978148 0
    outer loop
      vertex -1.8541 5.70634 2
      vertex -0.627171 5.96713 0
      vertex -1.8541 5.70634 0
    endloop
  endfacet
  facet normal 0 -1 0
    outer loop
      vertex -0.627171 -5.96713 0
      vertex 0.627171 -5.96713 2
      vertex -0.627171 -5.96713 2
    endloop
  endfacet
  facet normal 0 -1 -0
    outer loop
      vertex 0.627171 -5.96713 2
      vertex -0.627171 -5.96713 0
      vertex 0.627171 -5.96713 0
    endloop
  endfacet
  facet normal -0.994522 0.104525 0
    outer loop
      vertex -6 0 0
      vertex -5.86889 1.24747 2
      vertex -5.86889 1.24747 0
    endloop
  endfacet
  facet normal -0.994522 0.104525 0
    outer loop
      vertex -5.86889 1.24747 2
      vertex -6 0 0
      vertex -6 0 2
    endloop
  endfacet
  facet normal -0.587781 -0.80902 0
    outer loop
      vertex 1.075 1.86195 0
      vertex 1.43863 1.59776 2
      vertex 1.075 1.86195 2
    endloop
  endfacet
  facet normal -0.587781 -0.80902 -0
    outer loop
      vertex 1.43863 1.59776 2
      vertex 1.075 1.86195 0
      vertex 1.43863 1.59776 0
    endloop
  endfacet
  facet normal 0.951053 -0.309028 0
    outer loop
      vertex -2.10302 0.44701 2
      vertex -1.96412 0.874483 0
      vertex -1.96412 0.874483 2
    endloop
  endfacet
  facet normal 0.951053 -0.309028 0
    outer loop
      vertex -1.96412 0.874483 0
      vertex -2.10302 0.44701 2
      vertex -2.10302 0.44701 0
    endloop
  endfacet
  facet normal -0.20791 0.978148 0
    outer loop
      vertex 0.664386 -2.04477 0
      vertex 0.224735 -2.13822 2
      vertex 0.664386 -2.04477 2
    endloop
  endfacet
  facet normal -0.20791 0.978148 0
    outer loop
      vertex 0.224735 -2.13822 2
      vertex 0.664386 -2.04477 0
      vertex 0.224735 -2.13822 0
    endloop
  endfacet
  facet normal 0.994523 -0.104523 0
    outer loop
      vertex -2.15 0 2
      vertex -2.10302 0.44701 0
      vertex -2.10302 0.44701 2
    endloop
  endfacet
  facet normal 0.994523 -0.104523 0
    outer loop
      vertex -2.10302 0.44701 0
      vertex -2.15 0 2
      vertex -2.15 0 0
    endloop
  endfacet
  facet normal 0 1 -0
    outer loop
      vertex 0.224735 -2.13822 0
      vertex -0.224735 -2.13822 2
      vertex 0.224735 -2.13822 2
    endloop
  endfacet
  facet normal 0 1 0
    outer loop
      vertex -0.224735 -2.13822 2
      vertex 0.224735 -2.13822 0
      vertex -0.224735 -2.13822 0
    endloop
  endfacet
  facet normal -0.406742 -0.913543 0
    outer loop
      vertex 0.664386 2.04477 0
      vertex 1.075 1.86195 2
      vertex 0.664386 2.04477 2
    endloop
  endfacet
  facet normal -0.406742 -0.913543 -0
    outer loop
      vertex 1.075 1.86195 2
      vertex 0.664386 2.04477 0
      vertex 1.075 1.86195 0
    endloop
  endfacet
  facet normal -0.994523 0.104523 0
    outer loop
      vertex 2.10302 -0.44701 0
      vertex 2.15 0 2
      vertex 2.15 0 0
    endloop
  endfacet
  facet normal -0.994523 0.104523 0
    outer loop
      vertex 2.15 0 2
      vertex 2.10302 -0.44701 0
      vertex 2.10302 -0.44701 2
    endloop
  endfacet
  facet normal -0.866033 -0.499987 0
    outer loop
      vertex 1.96412 0.874483 0
      vertex 1.73939 1.26374 2
      vertex 1.73939 1.26374 0
    endloop
  endfacet
  facet normal -0.866033 -0.499987 0
    outer loop
      vertex 1.73939 1.26374 2
      vertex 1.96412 0.874483 0
      vertex 1.96412 0.874483 2
    endloop
  endfacet
  facet normal -0.866033 0.499987 0
    outer loop
      vertex 1.73939 -1.26374 0
      vertex 1.96412 -0.874483 2
      vertex 1.96412 -0.874483 0
    endloop
  endfacet
  facet normal -0.866033 0.499987 0
    outer loop
      vertex 1.96412 -0.874483 2
      vertex 1.73939 -1.26374 0
      vertex 1.73939 -1.26374 2
    endloop
  endfacet
  facet normal 0.20791 0.978148 -0
    outer loop
      vertex -0.224735 -2.13822 0
      vertex -0.664386 -2.04477 2
      vertex -0.224735 -2.13822 2
    endloop
  endfacet
  facet normal 0.20791 0.978148 0
    outer loop
      vertex -0.664386 -2.04477 2
      vertex -0.224735 -2.13822 0
      vertex -0.664386 -2.04477 0
    endloop
  endfacet
  facet normal -0.743137 -0.669139 0
    outer loop
      vertex 1.73939 1.26374 0
      vertex 1.43863 1.59776 2
      vertex 1.43863 1.59776 0
    endloop
  endfacet
  facet normal -0.743137 -0.669139 0
    outer loop
      vertex 1.43863 1.59776 2
      vertex 1.73939 1.26374 0
      vertex 1.73939 1.26374 2
    endloop
  endfacet
  facet normal -0.994523 -0.104523 0
    outer loop
      vertex 2.15 0 0
      vertex 2.10302 0.44701 2
      vertex 2.10302 0.44701 0
    endloop
  endfacet
  facet normal -0.994523 -0.104523 0
    outer loop
      vertex 2.10302 0.44701 2
      vertex 2.15 0 0
      vertex 2.15 0 2
    endloop
  endfacet
  facet normal 0.866033 -0.499987 0
    outer loop
      vertex -1.96412 0.874483 2
      vertex -1.73939 1.26374 0
      vertex -1.73939 1.26374 2
    endloop
  endfacet
  facet normal 0.866033 -0.499987 0
    outer loop
      vertex -1.73939 1.26374 0
      vertex -1.96412 0.874483 2
      vertex -1.96412 0.874483 0
    endloop
  endfacet
  facet normal -0.20791 -0.978148 0
    outer loop
      vertex 0.224735 2.13822 0
      vertex 0.664386 2.04477 2
      vertex 0.224735 2.13822 2
    endloop
  endfacet
  facet normal -0.20791 -0.978148 -0
    outer loop
      vertex 0.664386 2.04477 2
      vertex 0.224735 2.13822 0
      vertex 0.664386 2.04477 0
    endloop
  endfacet
  facet normal 0.951053 0.309028 0
    outer loop
      vertex -1.96412 -0.874483 2
      vertex -2.10302 -0.44701 0
      vertex -2.10302 -0.44701 2
    endloop
  endfacet
  facet normal 0.951053 0.309028 0
    outer loop
      vertex -2.10302 -0.44701 0
      vertex -1.96412 -0.874483 2
      vertex -1.96412 -0.874483 0
    endloop
  endfacet
  facet normal 0.587781 -0.80902 0
    outer loop
      vertex -1.43863 1.59776 0
      vertex -1.075 1.86195 2
      vertex -1.43863 1.59776 2
    endloop
  endfacet
  facet normal 0.587781 -0.80902 0
    outer loop
      vertex -1.075 1.86195 2
      vertex -1.43863 1.59776 0
      vertex -1.075 1.86195 0
    endloop
  endfacet
  facet normal -0.951053 -0.309028 0
    outer loop
      vertex 2.10302 0.44701 0
      vertex 1.96412 0.874483 2
      vertex 1.96412 0.874483 0
    endloop
  endfacet
  facet normal -0.951053 -0.309028 0
    outer loop
      vertex 1.96412 0.874483 2
      vertex 2.10302 0.44701 0
      vertex 2.10302 0.44701 2
    endloop
  endfacet
  facet normal -0.951053 0.309028 0
    outer loop
      vertex 1.96412 -0.874483 0
      vertex 2.10302 -0.44701 2
      vertex 2.10302 -0.44701 0
    endloop
  endfacet
  facet normal -0.951053 0.309028 0
    outer loop
      vertex 2.10302 -0.44701 2
      vertex 1.96412 -0.874483 0
      vertex 1.96412 -0.874483 2
    endloop
  endfacet
  facet normal -0.406742 0.913543 0
    outer loop
      vertex 1.075 -1.86195 0
      vertex 0.664386 -2.04477 2
      vertex 1.075 -1.86195 2
    endloop
  endfacet
  facet normal -0.406742 0.913543 0
    outer loop
      vertex 0.664386 -2.04477 2
      vertex 1.075 -1.86195 0
      vertex 0.664386 -2.04477 0
    endloop
  endfacet
  facet normal 0.406742 0.913543 -0
    outer loop
      vertex -0.664386 -2.04477 0
      vertex -1.075 -1.86195 2
      vertex -0.664386 -2.04477 2
    endloop
  endfacet
  facet normal 0.406742 0.913543 0
    outer loop
      vertex -1.075 -1.86195 2
      vertex -0.664386 -2.04477 0
      vertex -1.075 -1.86195 0
    endloop
  endfacet
  facet normal 0.743137 -0.669139 0
    outer loop
      vertex -1.73939 1.26374 2
      vertex -1.43863 1.59776 0
      vertex -1.43863 1.59776 2
    endloop
  endfacet
  facet normal 0.743137 -0.669139 0
    outer loop
      vertex -1.43863 1.59776 0
      vertex -1.73939 1.26374 2
      vertex -1.73939 1.26374 0
    endloop
  endfacet
  facet normal 0.20791 -0.978148 0
    outer loop
      vertex -0.664386 2.04477 0
      vertex -0.224735 2.13822 2
      vertex -0.664386 2.04477 2
    endloop
  endfacet
  facet normal 0.20791 -0.978148 0
    outer loop
      vertex -0.224735 2.13822 2
      vertex -0.664386 2.04477 0
      vertex -0.224735 2.13822 0
    endloop
  endfacet
  facet normal -0.587781 0.80902 0
    outer loop
      vertex 1.43863 -1.59776 0
      vertex 1.075 -1.86195 2
      vertex 1.43863 -1.59776 2
    endloop
  endfacet
  facet normal -0.587781 0.80902 0
    outer loop
      vertex 1.075 -1.86195 2
      vertex 1.43863 -1.59776 0
      vertex 1.075 -1.86195 0
    endloop
  endfacet
  facet normal 0.587781 0.80902 -0
    outer loop
      vertex -1.075 -1.86195 0
      vertex -1.43863 -1.59776 2
      vertex -1.075 -1.86195 2
    endloop
  endfacet
  facet normal 0.587781 0.80902 0
    outer loop
      vertex -1.43863 -1.59776 2
      vertex -1.075 -1.86195 0
      vertex -1.43863 -1.59776 0
    endloop
  endfacet
  facet normal 0 -1 0
    outer loop
      vertex -0.224735 2.13822 0
      vertex 0.224735 2.13822 2
      vertex -0.224735 2.13822 2
    endloop
  endfacet
  facet normal 0 -1 -0
    outer loop
      vertex 0.224735 2.13822 2
      vertex -0.224735 2.13822 0
      vertex 0.224735 2.13822 0
    endloop
  endfacet
  facet normal -0.743137 0.669139 0
    outer loop
      vertex 1.43863 -1.59776 0
      vertex 1.73939 -1.26374 2
      vertex 1.73939 -1.26374 0
    endloop
  endfacet
  facet normal -0.743137 0.669139 0
    outer loop
      vertex 1.73939 -1.26374 2
      vertex 1.43863 -1.59776 0
      vertex 1.43863 -1.59776 2
    endloop
  endfacet
  facet normal 0.406742 -0.913543 0
    outer loop
      vertex -1.075 1.86195 0
      vertex -0.664386 2.04477 2
      vertex -1.075 1.86195 2
    endloop
  endfacet
  facet normal 0.406742 -0.913543 0
    outer loop
      vertex -0.664386 2.04477 2
      vertex -1.075 1.86195 0
      vertex -0.664386 2.04477 0
    endloop
  endfacet
  facet normal 0.866033 0.499987 0
    outer loop
      vertex -1.73939 -1.26374 2
      vertex -1.96412 -0.874483 0
      vertex -1.96412 -0.874483 2
    endloop
  endfacet
  facet normal 0.866033 0.499987 0
    outer loop
      vertex -1.96412 -0.874483 0
      vertex -1.73939 -1.26374 2
      vertex -1.73939 -1.26374 0
    endloop
  endfacet
  facet normal 0.743137 0.669139 0
    outer loop
      vertex -1.43863 -1.59776 2
      vertex -1.73939 -1.26374 0
      vertex -1.73939 -1.26374 2
    endloop
  endfacet
  facet normal 0.743137 0.669139 0
    outer loop
      vertex -1.73939 -1.26374 0
      vertex -1.43863 -1.59776 2
      vertex -1.43863 -1.59776 0
    endloop
  endfacet
  facet normal 0.994523 0.104523 0
    outer loop
      vertex -2.10302 -0.44701 2
      vertex -2.15 0 0
      vertex -2.15 0 2
    endloop
  endfacet
  facet normal 0.994523 0.104523 0
    outer loop
      vertex -2.15 0 0
      vertex -2.10302 -0.44701 2
      vertex -2.10302 -0.44701 0
    endloop
  endfacet
endsolid OpenSCAD_Model
