solid OpenSCAD_Model
  facet normal 0.787025 0.082718 0.61135
    outer loop
      vertex 15.5281 3.3006 0
      vertex 5 0 14
      vertex 15.875 0 0
    endloop
  endfacet
  facet normal -0.685338 0.395682 0.611349
    outer loop
      vertex -12.8431 9.33109 0
      vertex -14.5025 6.45694 0
      vertex -4.04508 2.93893 14
    endloop
  endfacet
  facet normal 0.588094 0.529526 0.611348
    outer loop
      vertex 10.6224 11.7974 0
      vertex 3.34565 3.71572 14
      vertex 4.04508 2.93893 14
    endloop
  endfacet
  facet normal 0.321861 0.72295 0.61135
    outer loop
      vertex 4.90564 15.098 0
      vertex 1.54508 4.75528 14
      vertex 7.9375 13.7482 0
    endloop
  endfacet
  facet normal 0.164536 -0.774068 0.611349
    outer loop
      vertex 1.54508 -4.75528 14
      vertex 0.522642 -4.97261 14
      vertex 1.65939 -15.788 0
    endloop
  endfacet
  facet normal -0.465166 0.640212 0.61135
    outer loop
      vertex -7.9375 13.7482 0
      vertex -10.6224 11.7974 0
      vertex -2.5 4.33013 14
    endloop
  endfacet
  facet normal 0.465166 -0.640212 0.61135
    outer loop
      vertex 10.6224 -11.7974 0
      vertex 2.5 -4.33013 14
      vertex 7.9375 -13.7482 0
    endloop
  endfacet
  facet normal 0.752626 0.244553 0.61135
    outer loop
      vertex 14.5025 6.45694 0
      vertex 4.89074 1.03956 14
      vertex 15.5281 3.3006 0
    endloop
  endfacet
  facet normal 0.32187 0.722945 0.611351
    outer loop
      vertex 7.9375 13.7482 0
      vertex 1.54508 4.75528 14
      vertex 2.5 4.33013 14
    endloop
  endfacet
  facet normal -0.164531 0.774068 0.611349
    outer loop
      vertex -1.65939 15.788 0
      vertex -4.90564 15.098 0
      vertex -1.54508 4.75528 14
    endloop
  endfacet
  facet normal 0.465155 0.640221 0.611349
    outer loop
      vertex 10.6224 11.7974 0
      vertex 2.5 4.33013 14
      vertex 3.34565 3.71572 14
    endloop
  endfacet
  facet normal 0.588093 0.529527 0.611349
    outer loop
      vertex 10.6224 11.7974 0
      vertex 4.04508 2.93893 14
      vertex 12.8431 9.33109 0
    endloop
  endfacet
  facet normal 0.685338 0.395683 0.611349
    outer loop
      vertex 14.5025 6.45694 0
      vertex 4.04508 2.93893 14
      vertex 4.56773 2.03368 14
    endloop
  endfacet
  facet normal -0.164536 0.774068 0.611349
    outer loop
      vertex -0.522642 4.97261 14
      vertex -1.65939 15.788 0
      vertex -1.54508 4.75528 14
    endloop
  endfacet
  facet normal -0.752629 -0.244545 0.611349
    outer loop
      vertex -4.89074 -1.03956 14
      vertex -14.5025 -6.45694 0
      vertex -4.56773 -2.03368 14
    endloop
  endfacet
  facet normal 0.164536 0.774068 0.611349
    outer loop
      vertex 1.65939 15.788 0
      vertex 0.522642 4.97261 14
      vertex 1.54508 4.75528 14
    endloop
  endfacet
  facet normal -0.588093 0.529527 0.611349
    outer loop
      vertex -10.6224 11.7974 0
      vertex -12.8431 9.33109 0
      vertex -4.04508 2.93893 14
    endloop
  endfacet
  facet normal 0.465166 0.640212 0.61135
    outer loop
      vertex 7.9375 13.7482 0
      vertex 2.5 4.33013 14
      vertex 10.6224 11.7974 0
    endloop
  endfacet
  facet normal 0.787025 -0.082718 0.61135
    outer loop
      vertex 15.875 0 0
      vertex 5 0 14
      vertex 15.5281 -3.3006 0
    endloop
  endfacet
  facet normal 0.685338 0.395682 0.611349
    outer loop
      vertex 12.8431 9.33109 0
      vertex 4.04508 2.93893 14
      vertex 14.5025 6.45694 0
    endloop
  endfacet
  facet normal 0.685338 -0.395683 0.611349
    outer loop
      vertex 4.56773 -2.03368 14
      vertex 4.04508 -2.93893 14
      vertex 14.5025 -6.45694 0
    endloop
  endfacet
  facet normal -0.752626 -0.244553 0.61135
    outer loop
      vertex -4.89074 -1.03956 14
      vertex -15.5281 -3.3006 0
      vertex -14.5025 -6.45694 0
    endloop
  endfacet
  facet normal 0.321861 -0.72295 0.61135
    outer loop
      vertex 7.9375 -13.7482 0
      vertex 1.54508 -4.75528 14
      vertex 4.90564 -15.098 0
    endloop
  endfacet
  facet normal -0.787025 -0.082718 0.61135
    outer loop
      vertex -5 0 14
      vertex -15.875 0 0
      vertex -15.5281 -3.3006 0
    endloop
  endfacet
  facet normal -0.685338 0.395683 0.611349
    outer loop
      vertex -4.04508 2.93893 14
      vertex -14.5025 6.45694 0
      vertex -4.56773 2.03368 14
    endloop
  endfacet
  facet normal 0.164531 0.774068 0.611349
    outer loop
      vertex 1.65939 15.788 0
      vertex 1.54508 4.75528 14
      vertex 4.90564 15.098 0
    endloop
  endfacet
  facet normal -0.685338 -0.395682 0.611349
    outer loop
      vertex -4.04508 -2.93893 14
      vertex -14.5025 -6.45694 0
      vertex -12.8431 -9.33109 0
    endloop
  endfacet
  facet normal 0.588093 -0.529527 0.611349
    outer loop
      vertex 12.8431 -9.33109 0
      vertex 4.04508 -2.93893 14
      vertex 10.6224 -11.7974 0
    endloop
  endfacet
  facet normal -0.787025 0.082718 0.61135
    outer loop
      vertex -15.5281 3.3006 0
      vertex -15.875 0 0
      vertex -5 0 14
    endloop
  endfacet
  facet normal 0.164531 -0.774068 0.611349
    outer loop
      vertex 4.90564 -15.098 0
      vertex 1.54508 -4.75528 14
      vertex 1.65939 -15.788 0
    endloop
  endfacet
  facet normal -0.588093 -0.529527 0.611349
    outer loop
      vertex -4.04508 -2.93893 14
      vertex -12.8431 -9.33109 0
      vertex -10.6224 -11.7974 0
    endloop
  endfacet
  facet normal -0.752626 0.244553 0.61135
    outer loop
      vertex -14.5025 6.45694 0
      vertex -15.5281 3.3006 0
      vertex -4.89074 1.03956 14
    endloop
  endfacet
  facet normal -0.752629 0.244545 0.611349
    outer loop
      vertex -4.56773 2.03368 14
      vertex -14.5025 6.45694 0
      vertex -4.89074 1.03956 14
    endloop
  endfacet
  facet normal 0.752626 -0.244553 0.61135
    outer loop
      vertex 15.5281 -3.3006 0
      vertex 4.89074 -1.03956 14
      vertex 14.5025 -6.45694 0
    endloop
  endfacet
  facet normal 0.787025 -0.0827181 0.61135
    outer loop
      vertex 5 0 14
      vertex 4.89074 -1.03956 14
      vertex 15.5281 -3.3006 0
    endloop
  endfacet
  facet normal 0.588094 -0.529526 0.611348
    outer loop
      vertex 4.04508 -2.93893 14
      vertex 3.34565 -3.71572 14
      vertex 10.6224 -11.7974 0
    endloop
  endfacet
  facet normal 0.685338 -0.395682 0.611349
    outer loop
      vertex 14.5025 -6.45694 0
      vertex 4.04508 -2.93893 14
      vertex 12.8431 -9.33109 0
    endloop
  endfacet
  facet normal -0.321861 -0.72295 0.61135
    outer loop
      vertex -1.54508 -4.75528 14
      vertex -7.9375 -13.7482 0
      vertex -4.90564 -15.098 0
    endloop
  endfacet
  facet normal -0.164531 -0.774068 0.611349
    outer loop
      vertex -1.54508 -4.75528 14
      vertex -4.90564 -15.098 0
      vertex -1.65939 -15.788 0
    endloop
  endfacet
  facet normal -0.465155 0.640221 0.611349
    outer loop
      vertex -2.5 4.33013 14
      vertex -10.6224 11.7974 0
      vertex -3.34565 3.71572 14
    endloop
  endfacet
  facet normal -0.588094 0.529526 0.611348
    outer loop
      vertex -3.34565 3.71572 14
      vertex -10.6224 11.7974 0
      vertex -4.04508 2.93893 14
    endloop
  endfacet
  facet normal 0 0.791361 0.611349
    outer loop
      vertex 1.65939 15.788 0
      vertex -0.522642 4.97261 14
      vertex 0.522642 4.97261 14
    endloop
  endfacet
  facet normal 0 0.791361 0.611349
    outer loop
      vertex -0.522642 4.97261 14
      vertex 1.65939 15.788 0
      vertex -1.65939 15.788 0
    endloop
  endfacet
  facet normal -0.685338 -0.395683 0.611349
    outer loop
      vertex -4.56773 -2.03368 14
      vertex -14.5025 -6.45694 0
      vertex -4.04508 -2.93893 14
    endloop
  endfacet
  facet normal 0.32187 -0.722945 0.611351
    outer loop
      vertex 2.5 -4.33013 14
      vertex 1.54508 -4.75528 14
      vertex 7.9375 -13.7482 0
    endloop
  endfacet
  facet normal 0.752629 0.244545 0.611349
    outer loop
      vertex 14.5025 6.45694 0
      vertex 4.56773 2.03368 14
      vertex 4.89074 1.03956 14
    endloop
  endfacet
  facet normal 0.752629 -0.244545 0.611349
    outer loop
      vertex 4.89074 -1.03956 14
      vertex 4.56773 -2.03368 14
      vertex 14.5025 -6.45694 0
    endloop
  endfacet
  facet normal 0 0 -1
    outer loop
      vertex 12.3357 0 0
      vertex 15.875 0 0
      vertex 15.5281 -3.3006 0
    endloop
  endfacet
  facet normal 0 0 -1
    outer loop
      vertex 12.0661 -2.56474 0
      vertex 15.5281 -3.3006 0
      vertex 14.5025 -6.45694 0
    endloop
  endfacet
  facet normal 0 0 -1
    outer loop
      vertex 15.875 0 0
      vertex 12.3357 0 0
      vertex 15.5281 3.3006 0
    endloop
  endfacet
  facet normal 0 0 -1
    outer loop
      vertex 11.2599 -5.03355 0
      vertex 14.5025 -6.45694 0
      vertex 12.8431 -9.33109 0
    endloop
  endfacet
  facet normal 0 0 -1
    outer loop
      vertex 12.0681 2.54618 0
      vertex 15.5281 3.3006 0
      vertex 12.3357 0 0
    endloop
  endfacet
  facet normal 0 0 -1
    outer loop
      vertex 12.0661 2.56474 0
      vertex 15.5281 3.3006 0
      vertex 12.0681 2.54618 0
    endloop
  endfacet
  facet normal 0 0 -1
    outer loop
      vertex 15.5281 -3.3006 0
      vertex 12.0681 -2.54618 0
      vertex 12.3357 0 0
    endloop
  endfacet
  facet normal 0 0 -1
    outer loop
      vertex 15.5281 -3.3006 0
      vertex 12.0661 -2.56474 0
      vertex 12.0681 -2.54618 0
    endloop
  endfacet
  facet normal 0 0 -1
    outer loop
      vertex 14.5025 -6.45694 0
      vertex 11.275 -4.99963 0
      vertex 12.0661 -2.56474 0
    endloop
  endfacet
  facet normal 0 0 -1
    outer loop
      vertex 14.5025 -6.45694 0
      vertex 11.2692 -5.01739 0
      vertex 11.275 -4.99963 0
    endloop
  endfacet
  facet normal 0 0 -1
    outer loop
      vertex 14.5025 -6.45694 0
      vertex 11.2599 -5.03355 0
      vertex 11.2692 -5.01739 0
    endloop
  endfacet
  facet normal 0 0 -1
    outer loop
      vertex 9.9798 -7.25075 0
      vertex 12.8431 -9.33109 0
      vertex 10.6224 -11.7974 0
    endloop
  endfacet
  facet normal 0 0 -1
    outer loop
      vertex 12.8431 -9.33109 0
      vertex 9.9798 -7.25075 0
      vertex 11.2599 -5.03355 0
    endloop
  endfacet
  facet normal 0 0 -1
    outer loop
      vertex 10.6224 -11.7974 0
      vertex 8.26669 -9.15335 0
      vertex 9.9798 -7.25075 0
    endloop
  endfacet
  facet normal 0 0 -1
    outer loop
      vertex 10.6224 -11.7974 0
      vertex 8.2542 -9.16722 0
      vertex 8.26669 -9.15335 0
    endloop
  endfacet
  facet normal 0 0 -1
    outer loop
      vertex 10.6224 -11.7974 0
      vertex 8.2391 -9.17819 0
      vertex 8.2542 -9.16722 0
    endloop
  endfacet
  facet normal 0 0 -1
    outer loop
      vertex 7.9375 -13.7482 0
      vertex 8.2391 -9.17819 0
      vertex 10.6224 -11.7974 0
    endloop
  endfacet
  facet normal 0 0 -1
    outer loop
      vertex 7.9375 -13.7482 0
      vertex 6.16786 -10.683 0
      vertex 8.2391 -9.17819 0
    endloop
  endfacet
  facet normal 0 0 -1
    outer loop
      vertex 4.90564 -15.098 0
      vertex 6.16786 -10.683 0
      vertex 7.9375 -13.7482 0
    endloop
  endfacet
  facet normal 0 0 -1
    outer loop
      vertex 4.90564 -15.098 0
      vertex 3.829 -11.7244 0
      vertex 6.16786 -10.683 0
    endloop
  endfacet
  facet normal 0 0 -1
    outer loop
      vertex 4.90564 -15.098 0
      vertex 3.81195 -11.732 0
      vertex 3.829 -11.7244 0
    endloop
  endfacet
  facet normal 0 0 -1
    outer loop
      vertex 4.90564 -15.098 0
      vertex 3.79369 -11.7358 0
      vertex 3.81195 -11.732 0
    endloop
  endfacet
  facet normal 0 0 -1
    outer loop
      vertex 1.65939 -15.788 0
      vertex 3.79369 -11.7358 0
      vertex 4.90564 -15.098 0
    endloop
  endfacet
  facet normal 0 0 -1
    outer loop
      vertex 1.65939 -15.788 0
      vertex 1.28943 -12.2681 0
      vertex 3.79369 -11.7358 0
    endloop
  endfacet
  facet normal 0 0 -1
    outer loop
      vertex 1.65939 -15.788 0
      vertex -1.28943 -12.2681 0
      vertex 1.28943 -12.2681 0
    endloop
  endfacet
  facet normal 0 0 -1
    outer loop
      vertex -1.65939 -15.788 0
      vertex -1.28943 -12.2681 0
      vertex 1.65939 -15.788 0
    endloop
  endfacet
  facet normal 0 0 -1
    outer loop
      vertex -1.65939 -15.788 0
      vertex -3.79369 -11.7358 0
      vertex -1.28943 -12.2681 0
    endloop
  endfacet
  facet normal 0 0 -1
    outer loop
      vertex -4.90564 -15.098 0
      vertex -3.79369 -11.7358 0
      vertex -1.65939 -15.788 0
    endloop
  endfacet
  facet normal -0 0 -1
    outer loop
      vertex -3.79369 -11.7358 0
      vertex -4.90564 -15.098 0
      vertex -3.81195 -11.732 0
    endloop
  endfacet
  facet normal -0 0 -1
    outer loop
      vertex -3.81195 -11.732 0
      vertex -4.90564 -15.098 0
      vertex -3.829 -11.7244 0
    endloop
  endfacet
  facet normal 0 0 -1
    outer loop
      vertex -4.90564 -15.098 0
      vertex -6.16786 -10.683 0
      vertex -3.829 -11.7244 0
    endloop
  endfacet
  facet normal 0 0 -1
    outer loop
      vertex -7.9375 -13.7482 0
      vertex -6.16786 -10.683 0
      vertex -4.90564 -15.098 0
    endloop
  endfacet
  facet normal 0 0 -1
    outer loop
      vertex -7.9375 -13.7482 0
      vertex -8.2391 -9.17819 0
      vertex -6.16786 -10.683 0
    endloop
  endfacet
  facet normal 0 0 -1
    outer loop
      vertex -10.6224 -11.7974 0
      vertex -8.2391 -9.17819 0
      vertex -7.9375 -13.7482 0
    endloop
  endfacet
  facet normal -0 0 -1
    outer loop
      vertex -8.2391 -9.17819 0
      vertex -10.6224 -11.7974 0
      vertex -8.2542 -9.16722 0
    endloop
  endfacet
  facet normal -0 0 -1
    outer loop
      vertex -8.2542 -9.16722 0
      vertex -10.6224 -11.7974 0
      vertex -8.26669 -9.15335 0
    endloop
  endfacet
  facet normal -0 0 -1
    outer loop
      vertex -8.26669 -9.15335 0
      vertex -10.6224 -11.7974 0
      vertex -9.9798 -7.25075 0
    endloop
  endfacet
  facet normal 0 0 -1
    outer loop
      vertex -12.8431 -9.33109 0
      vertex -9.9798 -7.25075 0
      vertex -10.6224 -11.7974 0
    endloop
  endfacet
  facet normal -0 0 -1
    outer loop
      vertex -9.9798 -7.25075 0
      vertex -12.8431 -9.33109 0
      vertex -11.2599 -5.03355 0
    endloop
  endfacet
  facet normal 0 0 -1
    outer loop
      vertex -14.5025 -6.45694 0
      vertex -11.2599 -5.03355 0
      vertex -12.8431 -9.33109 0
    endloop
  endfacet
  facet normal -0 0 -1
    outer loop
      vertex -11.2599 -5.03355 0
      vertex -14.5025 -6.45694 0
      vertex -11.2692 -5.01739 0
    endloop
  endfacet
  facet normal 0 0 -1
    outer loop
      vertex -15.5281 -3.3006 0
      vertex -12.0661 -2.56474 0
      vertex -14.5025 -6.45694 0
    endloop
  endfacet
  facet normal -0 0 -1
    outer loop
      vertex -11.275 -4.99963 0
      vertex -14.5025 -6.45694 0
      vertex -12.0661 -2.56474 0
    endloop
  endfacet
  facet normal -0 0 -1
    outer loop
      vertex -11.2692 -5.01739 0
      vertex -14.5025 -6.45694 0
      vertex -11.275 -4.99963 0
    endloop
  endfacet
  facet normal -0 0 -1
    outer loop
      vertex 15.5281 3.3006 0
      vertex 12.0661 2.56474 0
      vertex 14.5025 6.45694 0
    endloop
  endfacet
  facet normal 0 0 -1
    outer loop
      vertex 11.275 4.99963 0
      vertex 14.5025 6.45694 0
      vertex 12.0661 2.56474 0
    endloop
  endfacet
  facet normal 0 0 -1
    outer loop
      vertex 11.2692 5.01739 0
      vertex 14.5025 6.45694 0
      vertex 11.275 4.99963 0
    endloop
  endfacet
  facet normal 0 0 -1
    outer loop
      vertex 11.2599 5.03355 0
      vertex 14.5025 6.45694 0
      vertex 11.2692 5.01739 0
    endloop
  endfacet
  facet normal -0 0 -1
    outer loop
      vertex 14.5025 6.45694 0
      vertex 11.2599 5.03355 0
      vertex 12.8431 9.33109 0
    endloop
  endfacet
  facet normal 0 0 -1
    outer loop
      vertex 9.9798 7.25075 0
      vertex 12.8431 9.33109 0
      vertex 11.2599 5.03355 0
    endloop
  endfacet
  facet normal -0 0 -1
    outer loop
      vertex 12.8431 9.33109 0
      vertex 9.9798 7.25075 0
      vertex 10.6224 11.7974 0
    endloop
  endfacet
  facet normal 0 0 -1
    outer loop
      vertex 8.26669 9.15335 0
      vertex 10.6224 11.7974 0
      vertex 9.9798 7.25075 0
    endloop
  endfacet
  facet normal 0 0 -1
    outer loop
      vertex 8.2542 9.16722 0
      vertex 10.6224 11.7974 0
      vertex 8.26669 9.15335 0
    endloop
  endfacet
  facet normal 0 0 -1
    outer loop
      vertex 8.2391 9.17819 0
      vertex 10.6224 11.7974 0
      vertex 8.2542 9.16722 0
    endloop
  endfacet
  facet normal 0 0 -1
    outer loop
      vertex 8.2391 9.17819 0
      vertex 7.9375 13.7482 0
      vertex 10.6224 11.7974 0
    endloop
  endfacet
  facet normal 0 0 -1
    outer loop
      vertex 6.16786 10.683 0
      vertex 7.9375 13.7482 0
      vertex 8.2391 9.17819 0
    endloop
  endfacet
  facet normal 0 0 -1
    outer loop
      vertex 6.16786 10.683 0
      vertex 4.90564 15.098 0
      vertex 7.9375 13.7482 0
    endloop
  endfacet
  facet normal 0 0 -1
    outer loop
      vertex 3.829 11.7244 0
      vertex 4.90564 15.098 0
      vertex 6.16786 10.683 0
    endloop
  endfacet
  facet normal 0 0 -1
    outer loop
      vertex 3.81195 11.732 0
      vertex 4.90564 15.098 0
      vertex 3.829 11.7244 0
    endloop
  endfacet
  facet normal 0 0 -1
    outer loop
      vertex 3.79369 11.7358 0
      vertex 4.90564 15.098 0
      vertex 3.81195 11.732 0
    endloop
  endfacet
  facet normal 0 0 -1
    outer loop
      vertex 3.79369 11.7358 0
      vertex 1.65939 15.788 0
      vertex 4.90564 15.098 0
    endloop
  endfacet
  facet normal 0 0 -1
    outer loop
      vertex 1.28943 12.2681 0
      vertex 1.65939 15.788 0
      vertex 3.79369 11.7358 0
    endloop
  endfacet
  facet normal 0 0 -1
    outer loop
      vertex -1.28943 12.2681 0
      vertex 1.65939 15.788 0
      vertex 1.28943 12.2681 0
    endloop
  endfacet
  facet normal 0 0 -1
    outer loop
      vertex -1.28943 12.2681 0
      vertex -1.65939 15.788 0
      vertex 1.65939 15.788 0
    endloop
  endfacet
  facet normal 0 0 -1
    outer loop
      vertex -3.79369 11.7358 0
      vertex -1.65939 15.788 0
      vertex -1.28943 12.2681 0
    endloop
  endfacet
  facet normal 0 0 -1
    outer loop
      vertex -4.90564 15.098 0
      vertex -3.79369 11.7358 0
      vertex -3.81195 11.732 0
    endloop
  endfacet
  facet normal 0 0 -1
    outer loop
      vertex -4.90564 15.098 0
      vertex -3.81195 11.732 0
      vertex -3.829 11.7244 0
    endloop
  endfacet
  facet normal 0 0 -1
    outer loop
      vertex -3.79369 11.7358 0
      vertex -4.90564 15.098 0
      vertex -1.65939 15.788 0
    endloop
  endfacet
  facet normal 0 0 -1
    outer loop
      vertex -6.16786 10.683 0
      vertex -4.90564 15.098 0
      vertex -3.829 11.7244 0
    endloop
  endfacet
  facet normal 0 0 -1
    outer loop
      vertex -6.16786 10.683 0
      vertex -7.9375 13.7482 0
      vertex -4.90564 15.098 0
    endloop
  endfacet
  facet normal 0 0 -1
    outer loop
      vertex -8.2391 9.17819 0
      vertex -7.9375 13.7482 0
      vertex -6.16786 10.683 0
    endloop
  endfacet
  facet normal 0 0 -1
    outer loop
      vertex -10.6224 11.7974 0
      vertex -8.2391 9.17819 0
      vertex -8.2542 9.16722 0
    endloop
  endfacet
  facet normal 0 0 -1
    outer loop
      vertex -10.6224 11.7974 0
      vertex -8.2542 9.16722 0
      vertex -8.26669 9.15335 0
    endloop
  endfacet
  facet normal 0 0 -1
    outer loop
      vertex -10.6224 11.7974 0
      vertex -8.26669 9.15335 0
      vertex -9.9798 7.25075 0
    endloop
  endfacet
  facet normal 0 0 -1
    outer loop
      vertex -8.2391 9.17819 0
      vertex -10.6224 11.7974 0
      vertex -7.9375 13.7482 0
    endloop
  endfacet
  facet normal 0 0 -1
    outer loop
      vertex -12.8431 9.33109 0
      vertex -9.9798 7.25075 0
      vertex -11.2599 5.03355 0
    endloop
  endfacet
  facet normal 0 0 -1
    outer loop
      vertex -14.5025 6.45694 0
      vertex -11.2599 5.03355 0
      vertex -11.2692 5.01739 0
    endloop
  endfacet
  facet normal 0 0 -1
    outer loop
      vertex -14.5025 6.45694 0
      vertex -11.2692 5.01739 0
      vertex -11.275 4.99963 0
    endloop
  endfacet
  facet normal 0 0 -1
    outer loop
      vertex -14.5025 6.45694 0
      vertex -11.275 4.99963 0
      vertex -12.0661 2.56474 0
    endloop
  endfacet
  facet normal 0 0 -1
    outer loop
      vertex -9.9798 7.25075 0
      vertex -12.8431 9.33109 0
      vertex -10.6224 11.7974 0
    endloop
  endfacet
  facet normal 0 0 -1
    outer loop
      vertex -15.5281 3.3006 0
      vertex -12.0661 2.56474 0
      vertex -12.0681 2.54618 0
    endloop
  endfacet
  facet normal 0 0 -1
    outer loop
      vertex -15.5281 3.3006 0
      vertex -12.0681 2.54618 0
      vertex -12.3357 0 0
    endloop
  endfacet
  facet normal -0 0 -1
    outer loop
      vertex -12.0661 -2.56474 0
      vertex -15.5281 -3.3006 0
      vertex -12.0681 -2.54618 0
    endloop
  endfacet
  facet normal -0 0 -1
    outer loop
      vertex -12.0681 -2.54618 0
      vertex -15.5281 -3.3006 0
      vertex -12.3357 0 0
    endloop
  endfacet
  facet normal 0 0 -1
    outer loop
      vertex -11.2599 5.03355 0
      vertex -14.5025 6.45694 0
      vertex -12.8431 9.33109 0
    endloop
  endfacet
  facet normal 0 0 -1
    outer loop
      vertex -15.875 0 0
      vertex -12.3357 0 0
      vertex -15.5281 -3.3006 0
    endloop
  endfacet
  facet normal 0 0 -1
    outer loop
      vertex -12.0661 2.56474 0
      vertex -15.5281 3.3006 0
      vertex -14.5025 6.45694 0
    endloop
  endfacet
  facet normal 0 0 -1
    outer loop
      vertex -12.3357 0 0
      vertex -15.875 0 0
      vertex -15.5281 3.3006 0
    endloop
  endfacet
  facet normal -0.32187 0.722945 0.611351
    outer loop
      vertex -1.54508 4.75528 14
      vertex -7.9375 13.7482 0
      vertex -2.5 4.33013 14
    endloop
  endfacet
  facet normal -0.787025 0.0827181 0.61135
    outer loop
      vertex -4.89074 1.03956 14
      vertex -15.5281 3.3006 0
      vertex -5 0 14
    endloop
  endfacet
  facet normal -0.787025 -0.0827181 0.61135
    outer loop
      vertex -5 0 14
      vertex -15.5281 -3.3006 0
      vertex -4.89074 -1.03956 14
    endloop
  endfacet
  facet normal -0.321861 0.72295 0.61135
    outer loop
      vertex -4.90564 15.098 0
      vertex -7.9375 13.7482 0
      vertex -1.54508 4.75528 14
    endloop
  endfacet
  facet normal 0 0 1
    outer loop
      vertex 2.7 0 14
      vertex 5 0 14
      vertex 4.89074 1.03956 14
    endloop
  endfacet
  facet normal 0 0 1
    outer loop
      vertex 2.641 0.561361 14
      vertex 4.89074 1.03956 14
      vertex 4.56773 2.03368 14
    endloop
  endfacet
  facet normal 0 0 1
    outer loop
      vertex 5 0 14
      vertex 2.7 0 14
      vertex 4.89074 -1.03956 14
    endloop
  endfacet
  facet normal 0 0 1
    outer loop
      vertex 2.46657 1.09819 14
      vertex 4.56773 2.03368 14
      vertex 4.04508 2.93893 14
    endloop
  endfacet
  facet normal -0 0 1
    outer loop
      vertex 2.641 -0.561361 14
      vertex 4.89074 -1.03956 14
      vertex 2.7 0 14
    endloop
  endfacet
  facet normal 0 0 1
    outer loop
      vertex 2.18435 1.58702 14
      vertex 4.04508 2.93893 14
      vertex 3.34565 3.71572 14
    endloop
  endfacet
  facet normal 0 0 1
    outer loop
      vertex 4.89074 -1.03956 14
      vertex 2.641 -0.561361 14
      vertex 4.56773 -2.03368 14
    endloop
  endfacet
  facet normal -0 0 1
    outer loop
      vertex 2.46657 -1.09819 14
      vertex 4.56773 -2.03368 14
      vertex 2.641 -0.561361 14
    endloop
  endfacet
  facet normal 0 0 1
    outer loop
      vertex 4.89074 1.03956 14
      vertex 2.641 0.561361 14
      vertex 2.7 0 14
    endloop
  endfacet
  facet normal 0 0 1
    outer loop
      vertex 1.80665 2.00649 14
      vertex 3.34565 3.71572 14
      vertex 2.5 4.33013 14
    endloop
  endfacet
  facet normal 0 0 1
    outer loop
      vertex 4.56773 2.03368 14
      vertex 2.46657 1.09819 14
      vertex 2.641 0.561361 14
    endloop
  endfacet
  facet normal 0 0 1
    outer loop
      vertex 4.04508 2.93893 14
      vertex 2.18435 1.58702 14
      vertex 2.46657 1.09819 14
    endloop
  endfacet
  facet normal 0 0 1
    outer loop
      vertex 3.34565 3.71572 14
      vertex 1.80665 2.00649 14
      vertex 2.18435 1.58702 14
    endloop
  endfacet
  facet normal 0 0 1
    outer loop
      vertex 1.35 2.33827 14
      vertex 2.5 4.33013 14
      vertex 1.54508 4.75528 14
    endloop
  endfacet
  facet normal 0 0 1
    outer loop
      vertex 2.5 4.33013 14
      vertex 1.35 2.33827 14
      vertex 1.80665 2.00649 14
    endloop
  endfacet
  facet normal 0 0 1
    outer loop
      vertex 1.54508 4.75528 14
      vertex 0.834346 2.56785 14
      vertex 1.35 2.33827 14
    endloop
  endfacet
  facet normal 0 0 1
    outer loop
      vertex 0.522642 4.97261 14
      vertex 0.834346 2.56785 14
      vertex 1.54508 4.75528 14
    endloop
  endfacet
  facet normal 0 0 1
    outer loop
      vertex 0.522642 4.97261 14
      vertex 0.282227 2.68521 14
      vertex 0.834346 2.56785 14
    endloop
  endfacet
  facet normal 0 0 1
    outer loop
      vertex 0.522642 4.97261 14
      vertex -0.282227 2.68521 14
      vertex 0.282227 2.68521 14
    endloop
  endfacet
  facet normal -0 0 1
    outer loop
      vertex -0.522642 4.97261 14
      vertex -0.282227 2.68521 14
      vertex 0.522642 4.97261 14
    endloop
  endfacet
  facet normal 0 0 1
    outer loop
      vertex -0.522642 4.97261 14
      vertex -0.834346 2.56785 14
      vertex -0.282227 2.68521 14
    endloop
  endfacet
  facet normal -0 0 1
    outer loop
      vertex -1.54508 4.75528 14
      vertex -0.834346 2.56785 14
      vertex -0.522642 4.97261 14
    endloop
  endfacet
  facet normal 0 0 1
    outer loop
      vertex -0.834346 2.56785 14
      vertex -1.54508 4.75528 14
      vertex -1.35 2.33827 14
    endloop
  endfacet
  facet normal -0 0 1
    outer loop
      vertex -2.5 4.33013 14
      vertex -1.35 2.33827 14
      vertex -1.54508 4.75528 14
    endloop
  endfacet
  facet normal 0 0 1
    outer loop
      vertex -1.35 2.33827 14
      vertex -2.5 4.33013 14
      vertex -1.80665 2.00649 14
    endloop
  endfacet
  facet normal -0 0 1
    outer loop
      vertex -3.34565 3.71572 14
      vertex -1.80665 2.00649 14
      vertex -2.5 4.33013 14
    endloop
  endfacet
  facet normal 0 0 1
    outer loop
      vertex -1.80665 2.00649 14
      vertex -3.34565 3.71572 14
      vertex -2.18435 1.58702 14
    endloop
  endfacet
  facet normal -0 0 1
    outer loop
      vertex -4.04508 2.93893 14
      vertex -2.18435 1.58702 14
      vertex -3.34565 3.71572 14
    endloop
  endfacet
  facet normal 0 0 1
    outer loop
      vertex -2.18435 1.58702 14
      vertex -4.04508 2.93893 14
      vertex -2.46657 1.09819 14
    endloop
  endfacet
  facet normal -0 0 1
    outer loop
      vertex -4.56773 2.03368 14
      vertex -2.46657 1.09819 14
      vertex -4.04508 2.93893 14
    endloop
  endfacet
  facet normal 0 0 1
    outer loop
      vertex 4.56773 -2.03368 14
      vertex 2.46657 -1.09819 14
      vertex 4.04508 -2.93893 14
    endloop
  endfacet
  facet normal -0 0 1
    outer loop
      vertex 2.18435 -1.58702 14
      vertex 4.04508 -2.93893 14
      vertex 2.46657 -1.09819 14
    endloop
  endfacet
  facet normal 0 0 1
    outer loop
      vertex 4.04508 -2.93893 14
      vertex 2.18435 -1.58702 14
      vertex 3.34565 -3.71572 14
    endloop
  endfacet
  facet normal -0 0 1
    outer loop
      vertex 1.80665 -2.00649 14
      vertex 3.34565 -3.71572 14
      vertex 2.18435 -1.58702 14
    endloop
  endfacet
  facet normal 0 0 1
    outer loop
      vertex 3.34565 -3.71572 14
      vertex 1.80665 -2.00649 14
      vertex 2.5 -4.33013 14
    endloop
  endfacet
  facet normal -0 0 1
    outer loop
      vertex 1.35 -2.33827 14
      vertex 2.5 -4.33013 14
      vertex 1.80665 -2.00649 14
    endloop
  endfacet
  facet normal 0 0 1
    outer loop
      vertex 2.5 -4.33013 14
      vertex 1.35 -2.33827 14
      vertex 1.54508 -4.75528 14
    endloop
  endfacet
  facet normal -0 0 1
    outer loop
      vertex 0.834346 -2.56785 14
      vertex 1.54508 -4.75528 14
      vertex 1.35 -2.33827 14
    endloop
  endfacet
  facet normal 0 0 1
    outer loop
      vertex 0.834346 -2.56785 14
      vertex 0.522642 -4.97261 14
      vertex 1.54508 -4.75528 14
    endloop
  endfacet
  facet normal -0 0 1
    outer loop
      vertex 0.282227 -2.68521 14
      vertex 0.522642 -4.97261 14
      vertex 0.834346 -2.56785 14
    endloop
  endfacet
  facet normal -0 0 1
    outer loop
      vertex -0.282227 -2.68521 14
      vertex 0.522642 -4.97261 14
      vertex 0.282227 -2.68521 14
    endloop
  endfacet
  facet normal 0 0 1
    outer loop
      vertex -0.282227 -2.68521 14
      vertex -0.522642 -4.97261 14
      vertex 0.522642 -4.97261 14
    endloop
  endfacet
  facet normal 0 0 1
    outer loop
      vertex -0.834346 -2.56785 14
      vertex -0.522642 -4.97261 14
      vertex -0.282227 -2.68521 14
    endloop
  endfacet
  facet normal 0 0 1
    outer loop
      vertex -1.54508 -4.75528 14
      vertex -0.834346 -2.56785 14
      vertex -1.35 -2.33827 14
    endloop
  endfacet
  facet normal 0 0 1
    outer loop
      vertex -0.834346 -2.56785 14
      vertex -1.54508 -4.75528 14
      vertex -0.522642 -4.97261 14
    endloop
  endfacet
  facet normal 0 0 1
    outer loop
      vertex -2.5 -4.33013 14
      vertex -1.35 -2.33827 14
      vertex -1.80665 -2.00649 14
    endloop
  endfacet
  facet normal 0 0 1
    outer loop
      vertex -3.34565 -3.71572 14
      vertex -1.80665 -2.00649 14
      vertex -2.18435 -1.58702 14
    endloop
  endfacet
  facet normal 0 0 1
    outer loop
      vertex -4.04508 -2.93893 14
      vertex -2.18435 -1.58702 14
      vertex -2.46657 -1.09819 14
    endloop
  endfacet
  facet normal 0 0 1
    outer loop
      vertex -1.35 -2.33827 14
      vertex -2.5 -4.33013 14
      vertex -1.54508 -4.75528 14
    endloop
  endfacet
  facet normal 0 0 1
    outer loop
      vertex -4.56773 -2.03368 14
      vertex -2.46657 -1.09819 14
      vertex -2.641 -0.561361 14
    endloop
  endfacet
  facet normal 0 0 1
    outer loop
      vertex -4.89074 -1.03956 14
      vertex -2.641 -0.561361 14
      vertex -2.7 0 14
    endloop
  endfacet
  facet normal 0 0 1
    outer loop
      vertex -2.46657 1.09819 14
      vertex -4.56773 2.03368 14
      vertex -2.641 0.561361 14
    endloop
  endfacet
  facet normal 0 0 1
    outer loop
      vertex -1.80665 -2.00649 14
      vertex -3.34565 -3.71572 14
      vertex -2.5 -4.33013 14
    endloop
  endfacet
  facet normal -0 0 1
    outer loop
      vertex -4.89074 1.03956 14
      vertex -2.641 0.561361 14
      vertex -4.56773 2.03368 14
    endloop
  endfacet
  facet normal 0 0 1
    outer loop
      vertex -2.18435 -1.58702 14
      vertex -4.04508 -2.93893 14
      vertex -3.34565 -3.71572 14
    endloop
  endfacet
  facet normal 0 0 1
    outer loop
      vertex -2.641 0.561361 14
      vertex -4.89074 1.03956 14
      vertex -2.7 0 14
    endloop
  endfacet
  facet normal 0 0 1
    outer loop
      vertex -2.46657 -1.09819 14
      vertex -4.56773 -2.03368 14
      vertex -4.04508 -2.93893 14
    endloop
  endfacet
  facet normal 0 0 1
    outer loop
      vertex -5 0 14
      vertex -2.7 0 14
      vertex -4.89074 1.03956 14
    endloop
  endfacet
  facet normal 0 0 1
    outer loop
      vertex -2.641 -0.561361 14
      vertex -4.89074 -1.03956 14
      vertex -4.56773 -2.03368 14
    endloop
  endfacet
  facet normal 0 0 1
    outer loop
      vertex -2.7 0 14
      vertex -5 0 14
      vertex -4.89074 -1.03956 14
    endloop
  endfacet
  facet normal -0.164536 -0.774068 0.611349
    outer loop
      vertex -1.54508 -4.75528 14
      vertex -1.65939 -15.788 0
      vertex -0.522642 -4.97261 14
    endloop
  endfacet
  facet normal 0.787025 0.0827181 0.61135
    outer loop
      vertex 15.5281 3.3006 0
      vertex 4.89074 1.03956 14
      vertex 5 0 14
    endloop
  endfacet
  facet normal -0.465166 -0.640212 0.61135
    outer loop
      vertex -2.5 -4.33013 14
      vertex -10.6224 -11.7974 0
      vertex -7.9375 -13.7482 0
    endloop
  endfacet
  facet normal -0.32187 -0.722945 0.611351
    outer loop
      vertex -2.5 -4.33013 14
      vertex -7.9375 -13.7482 0
      vertex -1.54508 -4.75528 14
    endloop
  endfacet
  facet normal 0.465155 -0.640221 0.611349
    outer loop
      vertex 3.34565 -3.71572 14
      vertex 2.5 -4.33013 14
      vertex 10.6224 -11.7974 0
    endloop
  endfacet
  facet normal 0 -0.791361 0.611349
    outer loop
      vertex -1.65939 -15.788 0
      vertex 0.522642 -4.97261 14
      vertex -0.522642 -4.97261 14
    endloop
  endfacet
  facet normal 0 -0.791361 0.611349
    outer loop
      vertex 0.522642 -4.97261 14
      vertex -1.65939 -15.788 0
      vertex 1.65939 -15.788 0
    endloop
  endfacet
  facet normal -0.465155 -0.640221 0.611349
    outer loop
      vertex -3.34565 -3.71572 14
      vertex -10.6224 -11.7974 0
      vertex -2.5 -4.33013 14
    endloop
  endfacet
  facet normal -0.588094 -0.529526 0.611348
    outer loop
      vertex -4.04508 -2.93893 14
      vertex -10.6224 -11.7974 0
      vertex -3.34565 -3.71572 14
    endloop
  endfacet
  facet normal -0.805337 -0.0846398 -0.586744
    outer loop
      vertex 12.3357 0 0
      vertex 2.69456 0.051774 13.2255
      vertex 12.0681 2.54618 0
    endloop
  endfacet
  facet normal -0.805338 -0.0846185 -0.586745
    outer loop
      vertex 2.69456 0.051774 13.2255
      vertex 12.3357 0 0
      vertex 2.7 0 13.2255
    endloop
  endfacet
  facet normal 0.701284 -0.404886 -0.586744
    outer loop
      vertex -2.18435 1.58702 13.2255
      vertex -11.2599 5.03355 0
      vertex -9.9798 7.25075 0
    endloop
  endfacet
  facet normal 0.7013 -0.404853 -0.586747
    outer loop
      vertex -11.2599 5.03355 0
      vertex -2.18435 1.58702 13.2255
      vertex -2.21038 1.54193 13.2255
    endloop
  endfacet
  facet normal -0.770144 -0.250221 -0.586743
    outer loop
      vertex 12.0661 2.56474 0
      vertex 2.62491 0.610873 13.2255
      vertex 11.275 4.99963 0
    endloop
  endfacet
  facet normal -0.77013 -0.25027 -0.586741
    outer loop
      vertex 2.62491 0.610873 13.2255
      vertex 12.0661 2.56474 0
      vertex 2.641 0.561361 13.2255
    endloop
  endfacet
  facet normal -0.168457 -0.792061 -0.586738
    outer loop
      vertex 1.28943 12.2681 0
      vertex 0.333148 2.67438 13.2255
      vertex 0.282227 2.68521 13.2255
    endloop
  endfacet
  facet normal -0.168362 -0.792077 -0.586743
    outer loop
      vertex 0.333148 2.67438 13.2255
      vertex 1.28943 12.2681 0
      vertex 3.79369 11.7358 0
    endloop
  endfacet
  facet normal 0.701286 0.404882 -0.586744
    outer loop
      vertex -11.2692 -5.01739 0
      vertex -2.46657 -1.09819 13.2255
      vertex -2.21038 -1.54193 13.2255
    endloop
  endfacet
  facet normal 0.701794 0.403879 -0.586828
    outer loop
      vertex -11.2692 -5.01739 0
      vertex -2.21038 -1.54193 13.2255
      vertex -11.2599 -5.03355 0
    endloop
  endfacet
  facet normal 0.165009 -0.792911 -0.58657
    outer loop
      vertex -3.79369 11.7358 0
      vertex -0.834345 2.56785 13.2255
      vertex -3.81195 11.732 0
    endloop
  endfacet
  facet normal 0.168357 -0.792079 -0.586743
    outer loop
      vertex -0.834345 2.56785 13.2255
      vertex -3.79369 11.7358 0
      vertex -0.333148 2.67438 13.2255
    endloop
  endfacet
  facet normal -0.165009 0.792911 -0.58657
    outer loop
      vertex 3.79369 -11.7358 0
      vertex 0.834345 -2.56785 13.2255
      vertex 3.81195 -11.732 0
    endloop
  endfacet
  facet normal -0.168357 0.792079 -0.586743
    outer loop
      vertex 0.834345 -2.56785 13.2255
      vertex 3.79369 -11.7358 0
      vertex 0.333148 -2.67438 13.2255
    endloop
  endfacet
  facet normal 0 -0.809773 -0.586743
    outer loop
      vertex -0.282227 2.68521 13.2255
      vertex -1.28943 12.2681 0
      vertex 0.282227 2.68521 13.2255
    endloop
  endfacet
  facet normal -0 -0.809773 -0.586743
    outer loop
      vertex 1.28943 12.2681 0
      vertex 0.282227 2.68521 13.2255
      vertex -1.28943 12.2681 0
    endloop
  endfacet
  facet normal -0.805338 0.0846185 -0.586745
    outer loop
      vertex 12.3357 0 0
      vertex 2.69456 -0.051774 13.2255
      vertex 2.7 0 13.2255
    endloop
  endfacet
  facet normal -0.805337 0.0846398 -0.586744
    outer loop
      vertex 2.69456 -0.051774 13.2255
      vertex 12.3357 0 0
      vertex 12.0681 -2.54618 0
    endloop
  endfacet
  facet normal -0.475979 -0.655115 -0.586745
    outer loop
      vertex 8.2391 9.17819 0
      vertex 1.80665 2.00649 13.2255
      vertex 1.39212 2.30767 13.2255
    endloop
  endfacet
  facet normal -0.47595 -0.655137 -0.586743
    outer loop
      vertex 1.80665 2.00649 13.2255
      vertex 8.2391 9.17819 0
      vertex 8.2542 9.16722 0
    endloop
  endfacet
  facet normal 0.329692 -0.739637 -0.58672
    outer loop
      vertex -3.81195 11.732 0
      vertex -1.30244 2.35944 13.2255
      vertex -3.829 11.7244 0
    endloop
  endfacet
  facet normal 0.329365 -0.739762 -0.586746
    outer loop
      vertex -1.30244 2.35944 13.2255
      vertex -3.81195 11.732 0
      vertex -0.834346 2.56785 13.2255
    endloop
  endfacet
  facet normal 0 -0.821958 -0.569547
    outer loop
      vertex -0.834346 2.56785 13.2255
      vertex -3.81195 11.732 0
      vertex -0.834345 2.56785 13.2255
    endloop
  endfacet
  facet normal 0.701794 -0.403879 -0.586828
    outer loop
      vertex -2.21038 1.54193 13.2255
      vertex -11.2692 5.01739 0
      vertex -11.2599 5.03355 0
    endloop
  endfacet
  facet normal 0.701286 -0.404882 -0.586744
    outer loop
      vertex -2.46657 1.09819 13.2255
      vertex -11.2692 5.01739 0
      vertex -2.21038 1.54193 13.2255
    endloop
  endfacet
  facet normal 0.601747 -0.541876 -0.586747
    outer loop
      vertex -1.80665 2.00649 13.2255
      vertex -8.26669 9.15335 0
      vertex -8.2542 9.16722 0
    endloop
  endfacet
  facet normal 0.601775 -0.541847 -0.586745
    outer loop
      vertex -8.26669 9.15335 0
      vertex -1.80665 2.00649 13.2255
      vertex -2.14951 1.62571 13.2255
    endloop
  endfacet
  facet normal 0.475952 0.655134 -0.586744
    outer loop
      vertex -6.16786 -10.683 0
      vertex -1.39212 -2.30767 13.2255
      vertex -1.35 -2.33827 13.2255
    endloop
  endfacet
  facet normal 0.475966 0.655125 -0.586744
    outer loop
      vertex -1.39212 -2.30767 13.2255
      vertex -6.16786 -10.683 0
      vertex -8.2391 -9.17819 0
    endloop
  endfacet
  facet normal -0.329296 -0.739789 -0.586751
    outer loop
      vertex 3.829 11.7244 0
      vertex 1.35 2.33827 13.2255
      vertex 1.30244 2.35944 13.2255
    endloop
  endfacet
  facet normal -0.329383 -0.739755 -0.586744
    outer loop
      vertex 1.35 2.33827 13.2255
      vertex 3.829 11.7244 0
      vertex 6.16786 10.683 0
    endloop
  endfacet
  facet normal -0.168362 0.792077 -0.586743
    outer loop
      vertex 1.28943 -12.2681 0
      vertex 0.333148 -2.67438 13.2255
      vertex 3.79369 -11.7358 0
    endloop
  endfacet
  facet normal -0.168457 0.792061 -0.586738
    outer loop
      vertex 0.333148 -2.67438 13.2255
      vertex 1.28943 -12.2681 0
      vertex 0.282227 -2.68521 13.2255
    endloop
  endfacet
  facet normal 0.329296 0.739789 -0.586751
    outer loop
      vertex -3.829 -11.7244 0
      vertex -1.35 -2.33827 13.2255
      vertex -1.30244 -2.35944 13.2255
    endloop
  endfacet
  facet normal 0.329383 0.739755 -0.586744
    outer loop
      vertex -1.35 -2.33827 13.2255
      vertex -3.829 -11.7244 0
      vertex -6.16786 -10.683 0
    endloop
  endfacet
  facet normal 0.805338 -0.0846185 -0.586745
    outer loop
      vertex -12.3357 0 0
      vertex -2.69456 0.051774 13.2255
      vertex -2.7 0 13.2255
    endloop
  endfacet
  facet normal 0.805337 -0.0846398 -0.586744
    outer loop
      vertex -2.69456 0.051774 13.2255
      vertex -12.3357 0 0
      vertex -12.0681 2.54618 0
    endloop
  endfacet
  facet normal -0.701286 0.404882 -0.586744
    outer loop
      vertex 2.46657 -1.09819 13.2255
      vertex 11.2692 -5.01739 0
      vertex 2.21038 -1.54193 13.2255
    endloop
  endfacet
  facet normal -0.701794 0.403879 -0.586828
    outer loop
      vertex 2.21038 -1.54193 13.2255
      vertex 11.2692 -5.01739 0
      vertex 11.2599 -5.03355 0
    endloop
  endfacet
  facet normal 0 -0.821958 -0.569547
    outer loop
      vertex 0.834345 2.56785 13.2255
      vertex 3.81195 11.732 0
      vertex 0.834346 2.56785 13.2255
    endloop
  endfacet
  facet normal -0.329365 -0.739762 -0.586746
    outer loop
      vertex 3.81195 11.732 0
      vertex 1.30244 2.35944 13.2255
      vertex 0.834346 2.56785 13.2255
    endloop
  endfacet
  facet normal -0.329692 -0.739637 -0.58672
    outer loop
      vertex 1.30244 2.35944 13.2255
      vertex 3.81195 11.732 0
      vertex 3.829 11.7244 0
    endloop
  endfacet
  facet normal -0.475966 0.655125 -0.586744
    outer loop
      vertex 6.16786 -10.683 0
      vertex 1.39212 -2.30767 13.2255
      vertex 8.2391 -9.17819 0
    endloop
  endfacet
  facet normal -0.475952 0.655134 -0.586744
    outer loop
      vertex 1.39212 -2.30767 13.2255
      vertex 6.16786 -10.683 0
      vertex 1.35 -2.33827 13.2255
    endloop
  endfacet
  facet normal -0.475952 -0.655134 -0.586744
    outer loop
      vertex 6.16786 10.683 0
      vertex 1.39212 2.30767 13.2255
      vertex 1.35 2.33827 13.2255
    endloop
  endfacet
  facet normal -0.475966 -0.655125 -0.586744
    outer loop
      vertex 1.39212 2.30767 13.2255
      vertex 6.16786 10.683 0
      vertex 8.2391 9.17819 0
    endloop
  endfacet
  facet normal -0.701794 -0.403879 -0.586828
    outer loop
      vertex 11.2692 5.01739 0
      vertex 2.21038 1.54193 13.2255
      vertex 11.2599 5.03355 0
    endloop
  endfacet
  facet normal -0.701286 -0.404882 -0.586744
    outer loop
      vertex 11.2692 5.01739 0
      vertex 2.46657 1.09819 13.2255
      vertex 2.21038 1.54193 13.2255
    endloop
  endfacet
  facet normal 0.601778 -0.541844 -0.586744
    outer loop
      vertex -2.14951 1.62571 13.2255
      vertex -9.9798 7.25075 0
      vertex -8.26669 9.15335 0
    endloop
  endfacet
  facet normal 0.601753 -0.541873 -0.586742
    outer loop
      vertex -2.18435 1.58702 13.2255
      vertex -9.9798 7.25075 0
      vertex -2.14951 1.62571 13.2255
    endloop
  endfacet
  facet normal 0.805336 0.0846446 -0.586744
    outer loop
      vertex -2.641 -0.561361 13.2255
      vertex -12.0681 -2.54618 0
      vertex -2.69456 -0.051774 13.2255
    endloop
  endfacet
  facet normal 0.805037 0.0867497 -0.586847
    outer loop
      vertex -12.0681 -2.54618 0
      vertex -2.641 -0.561361 13.2255
      vertex -12.0661 -2.56474 0
    endloop
  endfacet
  facet normal -0.601778 -0.541844 -0.586744
    outer loop
      vertex 9.9798 7.25075 0
      vertex 2.14951 1.62571 13.2255
      vertex 8.26669 9.15335 0
    endloop
  endfacet
  facet normal -0.601753 -0.541873 -0.586742
    outer loop
      vertex 9.9798 7.25075 0
      vertex 2.18435 1.58702 13.2255
      vertex 2.14951 1.62571 13.2255
    endloop
  endfacet
  facet normal 0.770139 0.250235 -0.586744
    outer loop
      vertex -2.46657 -1.09819 13.2255
      vertex -11.275 -4.99963 0
      vertex -2.62491 -0.610873 13.2255
    endloop
  endfacet
  facet normal 0.769723 0.251373 -0.586803
    outer loop
      vertex -11.275 -4.99963 0
      vertex -2.46657 -1.09819 13.2255
      vertex -11.2692 -5.01739 0
    endloop
  endfacet
  facet normal 0.769723 -0.251373 -0.586803
    outer loop
      vertex -2.46657 1.09819 13.2255
      vertex -11.275 4.99963 0
      vertex -11.2692 5.01739 0
    endloop
  endfacet
  facet normal 0.770139 -0.250235 -0.586744
    outer loop
      vertex -11.275 4.99963 0
      vertex -2.46657 1.09819 13.2255
      vertex -2.62491 0.610873 13.2255
    endloop
  endfacet
  facet normal -0.805037 -0.0867497 -0.586847
    outer loop
      vertex 12.0681 2.54618 0
      vertex 2.641 0.561361 13.2255
      vertex 12.0661 2.56474 0
    endloop
  endfacet
  facet normal -0.805336 -0.0846446 -0.586744
    outer loop
      vertex 2.641 0.561361 13.2255
      vertex 12.0681 2.54618 0
      vertex 2.69456 0.051774 13.2255
    endloop
  endfacet
  facet normal -0.701284 -0.404886 -0.586744
    outer loop
      vertex 11.2599 5.03355 0
      vertex 2.18435 1.58702 13.2255
      vertex 9.9798 7.25075 0
    endloop
  endfacet
  facet normal -0.7013 -0.404853 -0.586747
    outer loop
      vertex 2.18435 1.58702 13.2255
      vertex 11.2599 5.03355 0
      vertex 2.21038 1.54193 13.2255
    endloop
  endfacet
  facet normal -0.601753 0.541873 -0.586742
    outer loop
      vertex 9.9798 -7.25075 0
      vertex 2.14951 -1.62571 13.2255
      vertex 2.18435 -1.58702 13.2255
    endloop
  endfacet
  facet normal -0.601778 0.541844 -0.586744
    outer loop
      vertex 2.14951 -1.62571 13.2255
      vertex 9.9798 -7.25075 0
      vertex 8.26669 -9.15335 0
    endloop
  endfacet
  facet normal -0.329383 0.739755 -0.586744
    outer loop
      vertex 3.829 -11.7244 0
      vertex 1.35 -2.33827 13.2255
      vertex 6.16786 -10.683 0
    endloop
  endfacet
  facet normal -0.329296 0.739789 -0.586751
    outer loop
      vertex 1.35 -2.33827 13.2255
      vertex 3.829 -11.7244 0
      vertex 1.30244 -2.35944 13.2255
    endloop
  endfacet
  facet normal -0.7013 0.404853 -0.586747
    outer loop
      vertex 11.2599 -5.03355 0
      vertex 2.18435 -1.58702 13.2255
      vertex 2.21038 -1.54193 13.2255
    endloop
  endfacet
  facet normal -0.701284 0.404886 -0.586744
    outer loop
      vertex 2.18435 -1.58702 13.2255
      vertex 11.2599 -5.03355 0
      vertex 9.9798 -7.25075 0
    endloop
  endfacet
  facet normal -0.769723 -0.251373 -0.586803
    outer loop
      vertex 11.275 4.99963 0
      vertex 2.46657 1.09819 13.2255
      vertex 11.2692 5.01739 0
    endloop
  endfacet
  facet normal -0.770139 -0.250235 -0.586744
    outer loop
      vertex 2.46657 1.09819 13.2255
      vertex 11.275 4.99963 0
      vertex 2.62491 0.610873 13.2255
    endloop
  endfacet
  facet normal -0.601775 0.541847 -0.586745
    outer loop
      vertex 8.26669 -9.15335 0
      vertex 1.80665 -2.00649 13.2255
      vertex 2.14951 -1.62571 13.2255
    endloop
  endfacet
  facet normal -0.601747 0.541876 -0.586747
    outer loop
      vertex 1.80665 -2.00649 13.2255
      vertex 8.26669 -9.15335 0
      vertex 8.2542 -9.16722 0
    endloop
  endfacet
  facet normal 0.168362 -0.792077 -0.586743
    outer loop
      vertex -1.28943 12.2681 0
      vertex -0.333148 2.67438 13.2255
      vertex -3.79369 11.7358 0
    endloop
  endfacet
  facet normal 0.168457 -0.792061 -0.586738
    outer loop
      vertex -0.333148 2.67438 13.2255
      vertex -1.28943 12.2681 0
      vertex -0.282227 2.68521 13.2255
    endloop
  endfacet
  facet normal 0.7013 0.404853 -0.586747
    outer loop
      vertex -2.18435 -1.58702 13.2255
      vertex -11.2599 -5.03355 0
      vertex -2.21038 -1.54193 13.2255
    endloop
  endfacet
  facet normal 0.701284 0.404886 -0.586744
    outer loop
      vertex -11.2599 -5.03355 0
      vertex -2.18435 -1.58702 13.2255
      vertex -9.9798 -7.25075 0
    endloop
  endfacet
  facet normal -0.168357 -0.792079 -0.586743
    outer loop
      vertex 3.79369 11.7358 0
      vertex 0.834345 2.56785 13.2255
      vertex 0.333148 2.67438 13.2255
    endloop
  endfacet
  facet normal -0.165009 -0.792911 -0.58657
    outer loop
      vertex 0.834345 2.56785 13.2255
      vertex 3.79369 11.7358 0
      vertex 3.81195 11.732 0
    endloop
  endfacet
  facet normal -0.329692 0.739637 -0.58672
    outer loop
      vertex 3.81195 -11.732 0
      vertex 1.30244 -2.35944 13.2255
      vertex 3.829 -11.7244 0
    endloop
  endfacet
  facet normal -0.329365 0.739762 -0.586746
    outer loop
      vertex 1.30244 -2.35944 13.2255
      vertex 3.81195 -11.732 0
      vertex 0.834346 -2.56785 13.2255
    endloop
  endfacet
  facet normal 0 0.821958 -0.569547
    outer loop
      vertex 0.834346 -2.56785 13.2255
      vertex 3.81195 -11.732 0
      vertex 0.834345 -2.56785 13.2255
    endloop
  endfacet
  facet normal -0.77013 0.25027 -0.586741
    outer loop
      vertex 12.0661 -2.56474 0
      vertex 2.62491 -0.610873 13.2255
      vertex 2.641 -0.561361 13.2255
    endloop
  endfacet
  facet normal -0.770144 0.250221 -0.586743
    outer loop
      vertex 2.62491 -0.610873 13.2255
      vertex 12.0661 -2.56474 0
      vertex 11.275 -4.99963 0
    endloop
  endfacet
  facet normal -0.805336 0.0846446 -0.586744
    outer loop
      vertex 12.0681 -2.54618 0
      vertex 2.641 -0.561361 13.2255
      vertex 2.69456 -0.051774 13.2255
    endloop
  endfacet
  facet normal -0.805037 0.0867497 -0.586847
    outer loop
      vertex 2.641 -0.561361 13.2255
      vertex 12.0681 -2.54618 0
      vertex 12.0661 -2.56474 0
    endloop
  endfacet
  facet normal -0.601747 -0.541876 -0.586747
    outer loop
      vertex 8.26669 9.15335 0
      vertex 1.80665 2.00649 13.2255
      vertex 8.2542 9.16722 0
    endloop
  endfacet
  facet normal -0.601775 -0.541847 -0.586745
    outer loop
      vertex 1.80665 2.00649 13.2255
      vertex 8.26669 9.15335 0
      vertex 2.14951 1.62571 13.2255
    endloop
  endfacet
  facet normal 0.805338 0.0846185 -0.586745
    outer loop
      vertex -2.69456 -0.051774 13.2255
      vertex -12.3357 0 0
      vertex -2.7 0 13.2255
    endloop
  endfacet
  facet normal 0.805337 0.0846398 -0.586744
    outer loop
      vertex -12.3357 0 0
      vertex -2.69456 -0.051774 13.2255
      vertex -12.0681 -2.54618 0
    endloop
  endfacet
  facet normal 0.770144 -0.250221 -0.586743
    outer loop
      vertex -2.62491 0.610873 13.2255
      vertex -12.0661 2.56474 0
      vertex -11.275 4.99963 0
    endloop
  endfacet
  facet normal 0.77013 -0.25027 -0.586741
    outer loop
      vertex -12.0661 2.56474 0
      vertex -2.62491 0.610873 13.2255
      vertex -2.641 0.561361 13.2255
    endloop
  endfacet
  facet normal 0.805037 -0.0867497 -0.586847
    outer loop
      vertex -2.641 0.561361 13.2255
      vertex -12.0681 2.54618 0
      vertex -12.0661 2.56474 0
    endloop
  endfacet
  facet normal 0.805336 -0.0846446 -0.586744
    outer loop
      vertex -12.0681 2.54618 0
      vertex -2.641 0.561361 13.2255
      vertex -2.69456 0.051774 13.2255
    endloop
  endfacet
  facet normal 0.601753 0.541873 -0.586742
    outer loop
      vertex -2.14951 -1.62571 13.2255
      vertex -9.9798 -7.25075 0
      vertex -2.18435 -1.58702 13.2255
    endloop
  endfacet
  facet normal 0.601778 0.541844 -0.586744
    outer loop
      vertex -9.9798 -7.25075 0
      vertex -2.14951 -1.62571 13.2255
      vertex -8.26669 -9.15335 0
    endloop
  endfacet
  facet normal 0 0.809773 -0.586743
    outer loop
      vertex 0.282227 -2.68521 13.2255
      vertex 1.28943 -12.2681 0
      vertex -0.282227 -2.68521 13.2255
    endloop
  endfacet
  facet normal 0 0.809773 -0.586743
    outer loop
      vertex -1.28943 -12.2681 0
      vertex -0.282227 -2.68521 13.2255
      vertex 1.28943 -12.2681 0
    endloop
  endfacet
  facet normal 0.77013 0.25027 -0.586741
    outer loop
      vertex -2.62491 -0.610873 13.2255
      vertex -12.0661 -2.56474 0
      vertex -2.641 -0.561361 13.2255
    endloop
  endfacet
  facet normal 0.770144 0.250221 -0.586743
    outer loop
      vertex -12.0661 -2.56474 0
      vertex -2.62491 -0.610873 13.2255
      vertex -11.275 -4.99963 0
    endloop
  endfacet
  facet normal 0.475979 0.655115 -0.586745
    outer loop
      vertex -8.2391 -9.17819 0
      vertex -1.80665 -2.00649 13.2255
      vertex -1.39212 -2.30767 13.2255
    endloop
  endfacet
  facet normal 0.47595 0.655137 -0.586743
    outer loop
      vertex -1.80665 -2.00649 13.2255
      vertex -8.2391 -9.17819 0
      vertex -8.2542 -9.16722 0
    endloop
  endfacet
  facet normal -0.47595 0.655137 -0.586743
    outer loop
      vertex 8.2391 -9.17819 0
      vertex 1.80665 -2.00649 13.2255
      vertex 8.2542 -9.16722 0
    endloop
  endfacet
  facet normal -0.475979 0.655115 -0.586745
    outer loop
      vertex 1.80665 -2.00649 13.2255
      vertex 8.2391 -9.17819 0
      vertex 1.39212 -2.30767 13.2255
    endloop
  endfacet
  facet normal 0 0.821958 -0.569547
    outer loop
      vertex -0.834345 -2.56785 13.2255
      vertex -3.81195 -11.732 0
      vertex -0.834346 -2.56785 13.2255
    endloop
  endfacet
  facet normal 0.329365 0.739762 -0.586746
    outer loop
      vertex -3.81195 -11.732 0
      vertex -1.30244 -2.35944 13.2255
      vertex -0.834346 -2.56785 13.2255
    endloop
  endfacet
  facet normal 0.329692 0.739637 -0.58672
    outer loop
      vertex -1.30244 -2.35944 13.2255
      vertex -3.81195 -11.732 0
      vertex -3.829 -11.7244 0
    endloop
  endfacet
  facet normal -0.770139 0.250235 -0.586744
    outer loop
      vertex 11.275 -4.99963 0
      vertex 2.46657 -1.09819 13.2255
      vertex 2.62491 -0.610873 13.2255
    endloop
  endfacet
  facet normal -0.769723 0.251373 -0.586803
    outer loop
      vertex 2.46657 -1.09819 13.2255
      vertex 11.275 -4.99963 0
      vertex 11.2692 -5.01739 0
    endloop
  endfacet
  facet normal 0.47595 -0.655137 -0.586743
    outer loop
      vertex -8.2391 9.17819 0
      vertex -1.80665 2.00649 13.2255
      vertex -8.2542 9.16722 0
    endloop
  endfacet
  facet normal 0.475979 -0.655115 -0.586745
    outer loop
      vertex -1.80665 2.00649 13.2255
      vertex -8.2391 9.17819 0
      vertex -1.39212 2.30767 13.2255
    endloop
  endfacet
  facet normal 0.475966 -0.655125 -0.586744
    outer loop
      vertex -6.16786 10.683 0
      vertex -1.39212 2.30767 13.2255
      vertex -8.2391 9.17819 0
    endloop
  endfacet
  facet normal 0.475952 -0.655134 -0.586744
    outer loop
      vertex -1.39212 2.30767 13.2255
      vertex -6.16786 10.683 0
      vertex -1.35 2.33827 13.2255
    endloop
  endfacet
  facet normal 0.329383 -0.739755 -0.586744
    outer loop
      vertex -3.829 11.7244 0
      vertex -1.35 2.33827 13.2255
      vertex -6.16786 10.683 0
    endloop
  endfacet
  facet normal 0.329296 -0.739789 -0.586751
    outer loop
      vertex -1.35 2.33827 13.2255
      vertex -3.829 11.7244 0
      vertex -1.30244 2.35944 13.2255
    endloop
  endfacet
  facet normal 0.601775 0.541847 -0.586745
    outer loop
      vertex -1.80665 -2.00649 13.2255
      vertex -8.26669 -9.15335 0
      vertex -2.14951 -1.62571 13.2255
    endloop
  endfacet
  facet normal 0.601747 0.541876 -0.586747
    outer loop
      vertex -8.26669 -9.15335 0
      vertex -1.80665 -2.00649 13.2255
      vertex -8.2542 -9.16722 0
    endloop
  endfacet
  facet normal 0.168457 0.792061 -0.586738
    outer loop
      vertex -1.28943 -12.2681 0
      vertex -0.333148 -2.67438 13.2255
      vertex -0.282227 -2.68521 13.2255
    endloop
  endfacet
  facet normal 0.168362 0.792077 -0.586743
    outer loop
      vertex -0.333148 -2.67438 13.2255
      vertex -1.28943 -12.2681 0
      vertex -3.79369 -11.7358 0
    endloop
  endfacet
  facet normal 0.168357 0.792079 -0.586743
    outer loop
      vertex -3.79369 -11.7358 0
      vertex -0.834345 -2.56785 13.2255
      vertex -0.333148 -2.67438 13.2255
    endloop
  endfacet
  facet normal 0.165009 0.792911 -0.58657
    outer loop
      vertex -0.834345 -2.56785 13.2255
      vertex -3.79369 -11.7358 0
      vertex -3.81195 -11.732 0
    endloop
  endfacet
  facet normal -0.951056 -0.309019 0
    outer loop
      vertex 2.62491 0.610873 13.2255
      vertex 2.46657 1.09819 14
      vertex 2.46657 1.09819 13.2255
    endloop
  endfacet
  facet normal -0.951042 -0.309062 -0
    outer loop
      vertex 2.641 0.561361 14
      vertex 2.62491 0.610873 13.2255
      vertex 2.641 0.561361 13.2255
    endloop
  endfacet
  facet normal -0.951055 -0.309023 2.74595e-06
    outer loop
      vertex 2.62491 0.610873 13.2255
      vertex 2.641 0.561361 14
      vertex 2.46657 1.09819 14
    endloop
  endfacet
  facet normal -0.994522 -0.104529 0
    outer loop
      vertex 2.69456 0.051774 13.2255
      vertex 2.641 0.561361 14
      vertex 2.641 0.561361 13.2255
    endloop
  endfacet
  facet normal -0.994525 -0.104497 -0
    outer loop
      vertex 2.7 0 14
      vertex 2.69456 0.051774 13.2255
      vertex 2.7 0 13.2255
    endloop
  endfacet
  facet normal -0.994522 -0.104526 -1.97214e-06
    outer loop
      vertex 2.69456 0.051774 13.2255
      vertex 2.7 0 14
      vertex 2.641 0.561361 14
    endloop
  endfacet
  facet normal -0.866048 -0.499961 0
    outer loop
      vertex 2.21038 1.54193 13.2255
      vertex 2.18435 1.58702 14
      vertex 2.18435 1.58702 13.2255
    endloop
  endfacet
  facet normal -0.866028 -0.499995 -0
    outer loop
      vertex 2.46657 1.09819 14
      vertex 2.21038 1.54193 13.2255
      vertex 2.46657 1.09819 13.2255
    endloop
  endfacet
  facet normal -0.86603 -0.499992 2.41304e-06
    outer loop
      vertex 2.21038 1.54193 13.2255
      vertex 2.46657 1.09819 14
      vertex 2.18435 1.58702 14
    endloop
  endfacet
  facet normal -0.951042 0.309062 0
    outer loop
      vertex 2.62491 -0.610873 13.2255
      vertex 2.641 -0.561361 14
      vertex 2.641 -0.561361 13.2255
    endloop
  endfacet
  facet normal -0.951056 0.309019 0
    outer loop
      vertex 2.46657 -1.09819 14
      vertex 2.62491 -0.610873 13.2255
      vertex 2.46657 -1.09819 13.2255
    endloop
  endfacet
  facet normal -0.951055 0.309023 2.74595e-06
    outer loop
      vertex 2.62491 -0.610873 13.2255
      vertex 2.46657 -1.09819 14
      vertex 2.641 -0.561361 14
    endloop
  endfacet
  facet normal -0.994525 0.104497 0
    outer loop
      vertex 2.69456 -0.051774 13.2255
      vertex 2.7 0 14
      vertex 2.7 0 13.2255
    endloop
  endfacet
  facet normal -0.994522 0.104529 0
    outer loop
      vertex 2.641 -0.561361 14
      vertex 2.69456 -0.051774 13.2255
      vertex 2.641 -0.561361 13.2255
    endloop
  endfacet
  facet normal -0.994522 0.104526 -1.97214e-06
    outer loop
      vertex 2.69456 -0.051774 13.2255
      vertex 2.641 -0.561361 14
      vertex 2.7 0 14
    endloop
  endfacet
  facet normal -0.743141 -0.669135 0
    outer loop
      vertex 2.14951 1.62571 13.2255
      vertex 1.80665 2.00649 14
      vertex 1.80665 2.00649 13.2255
    endloop
  endfacet
  facet normal -0.743113 -0.669166 -0
    outer loop
      vertex 2.18435 1.58702 14
      vertex 2.14951 1.62571 13.2255
      vertex 2.18435 1.58702 13.2255
    endloop
  endfacet
  facet normal -0.743138 -0.669138 2.56604e-06
    outer loop
      vertex 2.14951 1.62571 13.2255
      vertex 2.18435 1.58702 14
      vertex 1.80665 2.00649 14
    endloop
  endfacet
  facet normal 0.951042 0.309062 0
    outer loop
      vertex -2.641 -0.561361 14
      vertex -2.62491 -0.610873 13.2255
      vertex -2.641 -0.561361 13.2255
    endloop
  endfacet
  facet normal 0.951055 0.309023 2.74595e-06
    outer loop
      vertex -2.46657 -1.09819 14
      vertex -2.62491 -0.610873 13.2255
      vertex -2.641 -0.561361 14
    endloop
  endfacet
  facet normal 0.951056 0.309019 0
    outer loop
      vertex -2.62491 -0.610873 13.2255
      vertex -2.46657 -1.09819 14
      vertex -2.46657 -1.09819 13.2255
    endloop
  endfacet
  facet normal 0.951056 -0.309019 0
    outer loop
      vertex -2.46657 1.09819 14
      vertex -2.62491 0.610873 13.2255
      vertex -2.46657 1.09819 13.2255
    endloop
  endfacet
  facet normal 0.951055 -0.309023 2.74595e-06
    outer loop
      vertex -2.641 0.561361 14
      vertex -2.62491 0.610873 13.2255
      vertex -2.46657 1.09819 14
    endloop
  endfacet
  facet normal 0.951042 -0.309062 0
    outer loop
      vertex -2.62491 0.610873 13.2255
      vertex -2.641 0.561361 14
      vertex -2.641 0.561361 13.2255
    endloop
  endfacet
  facet normal -0.58779 0.809013 -2.47868e-06
    outer loop
      vertex 1.80665 -2.00649 14
      vertex 1.39212 -2.30767 13.2255
      vertex 1.35 -2.33827 14
    endloop
  endfacet
  facet normal -0.587793 0.809011 0
    outer loop
      vertex 1.39212 -2.30767 13.2255
      vertex 1.80665 -2.00649 14
      vertex 1.80665 -2.00649 13.2255
    endloop
  endfacet
  facet normal -0.58776 0.809035 0
    outer loop
      vertex 1.35 -2.33827 13.2255
      vertex 1.35 -2.33827 14
      vertex 1.39212 -2.30767 13.2255
    endloop
  endfacet
  facet normal 0.58779 -0.809013 -2.47868e-06
    outer loop
      vertex -1.80665 2.00649 14
      vertex -1.39212 2.30767 13.2255
      vertex -1.35 2.33827 14
    endloop
  endfacet
  facet normal 0.587793 -0.809011 0
    outer loop
      vertex -1.39212 2.30767 13.2255
      vertex -1.80665 2.00649 14
      vertex -1.80665 2.00649 13.2255
    endloop
  endfacet
  facet normal 0.58776 -0.809035 0
    outer loop
      vertex -1.35 2.33827 13.2255
      vertex -1.35 2.33827 14
      vertex -1.39212 2.30767 13.2255
    endloop
  endfacet
  facet normal 0.866048 -0.499961 0
    outer loop
      vertex -2.18435 1.58702 14
      vertex -2.21038 1.54193 13.2255
      vertex -2.18435 1.58702 13.2255
    endloop
  endfacet
  facet normal 0.86603 -0.499992 2.41304e-06
    outer loop
      vertex -2.46657 1.09819 14
      vertex -2.21038 1.54193 13.2255
      vertex -2.18435 1.58702 14
    endloop
  endfacet
  facet normal 0.866028 -0.499995 0
    outer loop
      vertex -2.21038 1.54193 13.2255
      vertex -2.46657 1.09819 14
      vertex -2.46657 1.09819 13.2255
    endloop
  endfacet
  facet normal -0.866028 0.499995 0
    outer loop
      vertex 2.21038 -1.54193 13.2255
      vertex 2.46657 -1.09819 14
      vertex 2.46657 -1.09819 13.2255
    endloop
  endfacet
  facet normal -0.866048 0.499961 0
    outer loop
      vertex 2.18435 -1.58702 14
      vertex 2.21038 -1.54193 13.2255
      vertex 2.18435 -1.58702 13.2255
    endloop
  endfacet
  facet normal -0.86603 0.499992 2.41304e-06
    outer loop
      vertex 2.21038 -1.54193 13.2255
      vertex 2.18435 -1.58702 14
      vertex 2.46657 -1.09819 14
    endloop
  endfacet
  facet normal 0 -1 0
    outer loop
      vertex -0.282227 2.68521 13.2255
      vertex 0.282227 2.68521 14
      vertex -0.282227 2.68521 14
    endloop
  endfacet
  facet normal 0 -1 -0
    outer loop
      vertex 0.282227 2.68521 14
      vertex -0.282227 2.68521 13.2255
      vertex 0.282227 2.68521 13.2255
    endloop
  endfacet
  facet normal 0.406655 -0.913582 0
    outer loop
      vertex -1.30244 2.35944 13.2255
      vertex -1.35 2.33827 14
      vertex -1.35 2.33827 13.2255
    endloop
  endfacet
  facet normal 0.406731 -0.913548 5.55763e-06
    outer loop
      vertex -1.35 2.33827 14
      vertex -1.30244 2.35944 13.2255
      vertex -0.834346 2.56785 14
    endloop
  endfacet
  facet normal 0.406738 -0.913545 0
    outer loop
      vertex -0.834346 2.56785 14
      vertex -1.30244 2.35944 13.2255
      vertex -0.834346 2.56785 13.2255
    endloop
  endfacet
  facet normal 0.208029 0.978123 0
    outer loop
      vertex -0.333148 -2.67438 13.2255
      vertex -0.282227 -2.68521 14
      vertex -0.282227 -2.68521 13.2255
    endloop
  endfacet
  facet normal 0.207918 0.978146 7.68628e-06
    outer loop
      vertex -0.282227 -2.68521 14
      vertex -0.333148 -2.67438 13.2255
      vertex -0.834346 -2.56785 14
    endloop
  endfacet
  facet normal 0.207907 0.978149 2.6844e-07
    outer loop
      vertex -0.834345 -2.56785 13.2255
      vertex -0.834346 -2.56785 14
      vertex -0.333148 -2.67438 13.2255
    endloop
  endfacet
  facet normal 0 1 0
    outer loop
      vertex -0.834346 -2.56785 14
      vertex -0.834345 -2.56785 13.2255
      vertex -0.834346 -2.56785 13.2255
    endloop
  endfacet
  facet normal 0.207918 -0.978146 7.68628e-06
    outer loop
      vertex -0.834346 2.56785 14
      vertex -0.333148 2.67438 13.2255
      vertex -0.282227 2.68521 14
    endloop
  endfacet
  facet normal 0 -1 0
    outer loop
      vertex -0.834345 2.56785 13.2255
      vertex -0.834346 2.56785 14
      vertex -0.834346 2.56785 13.2255
    endloop
  endfacet
  facet normal 0.207907 -0.978149 2.6844e-07
    outer loop
      vertex -0.834346 2.56785 14
      vertex -0.834345 2.56785 13.2255
      vertex -0.333148 2.67438 13.2255
    endloop
  endfacet
  facet normal 0.208029 -0.978123 0
    outer loop
      vertex -0.282227 2.68521 13.2255
      vertex -0.282227 2.68521 14
      vertex -0.333148 2.67438 13.2255
    endloop
  endfacet
  facet normal -0.207918 0.978146 7.68628e-06
    outer loop
      vertex 0.834346 -2.56785 14
      vertex 0.333148 -2.67438 13.2255
      vertex 0.282227 -2.68521 14
    endloop
  endfacet
  facet normal 0 1 0
    outer loop
      vertex 0.834345 -2.56785 13.2255
      vertex 0.834346 -2.56785 14
      vertex 0.834346 -2.56785 13.2255
    endloop
  endfacet
  facet normal -0.207907 0.978149 2.6844e-07
    outer loop
      vertex 0.834346 -2.56785 14
      vertex 0.834345 -2.56785 13.2255
      vertex 0.333148 -2.67438 13.2255
    endloop
  endfacet
  facet normal -0.208029 0.978123 0
    outer loop
      vertex 0.282227 -2.68521 13.2255
      vertex 0.282227 -2.68521 14
      vertex 0.333148 -2.67438 13.2255
    endloop
  endfacet
  facet normal -0.743113 0.669166 0
    outer loop
      vertex 2.14951 -1.62571 13.2255
      vertex 2.18435 -1.58702 14
      vertex 2.18435 -1.58702 13.2255
    endloop
  endfacet
  facet normal -0.743141 0.669135 0
    outer loop
      vertex 1.80665 -2.00649 14
      vertex 2.14951 -1.62571 13.2255
      vertex 1.80665 -2.00649 13.2255
    endloop
  endfacet
  facet normal -0.743138 0.669138 2.56604e-06
    outer loop
      vertex 2.14951 -1.62571 13.2255
      vertex 1.80665 -2.00649 14
      vertex 2.18435 -1.58702 14
    endloop
  endfacet
  facet normal -0.406655 0.913582 0
    outer loop
      vertex 1.30244 -2.35944 13.2255
      vertex 1.35 -2.33827 14
      vertex 1.35 -2.33827 13.2255
    endloop
  endfacet
  facet normal -0.406731 0.913548 5.55763e-06
    outer loop
      vertex 1.35 -2.33827 14
      vertex 1.30244 -2.35944 13.2255
      vertex 0.834346 -2.56785 14
    endloop
  endfacet
  facet normal -0.406738 0.913545 0
    outer loop
      vertex 0.834346 -2.56785 14
      vertex 1.30244 -2.35944 13.2255
      vertex 0.834346 -2.56785 13.2255
    endloop
  endfacet
  facet normal 0.58776 0.809035 0
    outer loop
      vertex -1.39212 -2.30767 13.2255
      vertex -1.35 -2.33827 14
      vertex -1.35 -2.33827 13.2255
    endloop
  endfacet
  facet normal 0.58779 0.809013 -2.47868e-06
    outer loop
      vertex -1.35 -2.33827 14
      vertex -1.39212 -2.30767 13.2255
      vertex -1.80665 -2.00649 14
    endloop
  endfacet
  facet normal 0.587793 0.809011 0
    outer loop
      vertex -1.80665 -2.00649 14
      vertex -1.39212 -2.30767 13.2255
      vertex -1.80665 -2.00649 13.2255
    endloop
  endfacet
  facet normal -0.58776 -0.809035 0
    outer loop
      vertex 1.39212 2.30767 13.2255
      vertex 1.35 2.33827 14
      vertex 1.35 2.33827 13.2255
    endloop
  endfacet
  facet normal -0.58779 -0.809013 -2.47868e-06
    outer loop
      vertex 1.35 2.33827 14
      vertex 1.39212 2.30767 13.2255
      vertex 1.80665 2.00649 14
    endloop
  endfacet
  facet normal -0.587793 -0.809011 -0
    outer loop
      vertex 1.80665 2.00649 14
      vertex 1.39212 2.30767 13.2255
      vertex 1.80665 2.00649 13.2255
    endloop
  endfacet
  facet normal 0.994522 -0.104529 0
    outer loop
      vertex -2.641 0.561361 14
      vertex -2.69456 0.051774 13.2255
      vertex -2.641 0.561361 13.2255
    endloop
  endfacet
  facet normal 0.994522 -0.104526 -1.97214e-06
    outer loop
      vertex -2.7 0 14
      vertex -2.69456 0.051774 13.2255
      vertex -2.641 0.561361 14
    endloop
  endfacet
  facet normal 0.994525 -0.104497 0
    outer loop
      vertex -2.69456 0.051774 13.2255
      vertex -2.7 0 14
      vertex -2.7 0 13.2255
    endloop
  endfacet
  facet normal -0.208029 -0.978123 0
    outer loop
      vertex 0.333148 2.67438 13.2255
      vertex 0.282227 2.68521 14
      vertex 0.282227 2.68521 13.2255
    endloop
  endfacet
  facet normal -0.207918 -0.978146 7.68628e-06
    outer loop
      vertex 0.282227 2.68521 14
      vertex 0.333148 2.67438 13.2255
      vertex 0.834346 2.56785 14
    endloop
  endfacet
  facet normal -0.207907 -0.978149 2.6844e-07
    outer loop
      vertex 0.834345 2.56785 13.2255
      vertex 0.834346 2.56785 14
      vertex 0.333148 2.67438 13.2255
    endloop
  endfacet
  facet normal 0 -1 -0
    outer loop
      vertex 0.834346 2.56785 14
      vertex 0.834345 2.56785 13.2255
      vertex 0.834346 2.56785 13.2255
    endloop
  endfacet
  facet normal 0.866028 0.499995 0
    outer loop
      vertex -2.46657 -1.09819 14
      vertex -2.21038 -1.54193 13.2255
      vertex -2.46657 -1.09819 13.2255
    endloop
  endfacet
  facet normal 0.86603 0.499992 2.41304e-06
    outer loop
      vertex -2.18435 -1.58702 14
      vertex -2.21038 -1.54193 13.2255
      vertex -2.46657 -1.09819 14
    endloop
  endfacet
  facet normal 0.866048 0.499961 0
    outer loop
      vertex -2.21038 -1.54193 13.2255
      vertex -2.18435 -1.58702 14
      vertex -2.18435 -1.58702 13.2255
    endloop
  endfacet
  facet normal -0.406731 -0.913548 5.55763e-06
    outer loop
      vertex 0.834346 2.56785 14
      vertex 1.30244 2.35944 13.2255
      vertex 1.35 2.33827 14
    endloop
  endfacet
  facet normal -0.406738 -0.913545 0
    outer loop
      vertex 1.30244 2.35944 13.2255
      vertex 0.834346 2.56785 14
      vertex 0.834346 2.56785 13.2255
    endloop
  endfacet
  facet normal -0.406655 -0.913582 -0
    outer loop
      vertex 1.35 2.33827 14
      vertex 1.30244 2.35944 13.2255
      vertex 1.35 2.33827 13.2255
    endloop
  endfacet
  facet normal 0 1 -0
    outer loop
      vertex 0.282227 -2.68521 13.2255
      vertex -0.282227 -2.68521 14
      vertex 0.282227 -2.68521 14
    endloop
  endfacet
  facet normal 0 1 0
    outer loop
      vertex -0.282227 -2.68521 14
      vertex 0.282227 -2.68521 13.2255
      vertex -0.282227 -2.68521 13.2255
    endloop
  endfacet
  facet normal 0.994525 0.104497 0
    outer loop
      vertex -2.7 0 14
      vertex -2.69456 -0.051774 13.2255
      vertex -2.7 0 13.2255
    endloop
  endfacet
  facet normal 0.994522 0.104526 -1.97214e-06
    outer loop
      vertex -2.641 -0.561361 14
      vertex -2.69456 -0.051774 13.2255
      vertex -2.7 0 14
    endloop
  endfacet
  facet normal 0.994522 0.104529 0
    outer loop
      vertex -2.69456 -0.051774 13.2255
      vertex -2.641 -0.561361 14
      vertex -2.641 -0.561361 13.2255
    endloop
  endfacet
  facet normal 0.743113 0.669166 0
    outer loop
      vertex -2.18435 -1.58702 14
      vertex -2.14951 -1.62571 13.2255
      vertex -2.18435 -1.58702 13.2255
    endloop
  endfacet
  facet normal 0.743138 0.669138 2.56604e-06
    outer loop
      vertex -1.80665 -2.00649 14
      vertex -2.14951 -1.62571 13.2255
      vertex -2.18435 -1.58702 14
    endloop
  endfacet
  facet normal 0.743141 0.669135 0
    outer loop
      vertex -2.14951 -1.62571 13.2255
      vertex -1.80665 -2.00649 14
      vertex -1.80665 -2.00649 13.2255
    endloop
  endfacet
  facet normal 0.406731 0.913548 5.55763e-06
    outer loop
      vertex -0.834346 -2.56785 14
      vertex -1.30244 -2.35944 13.2255
      vertex -1.35 -2.33827 14
    endloop
  endfacet
  facet normal 0.406738 0.913545 0
    outer loop
      vertex -1.30244 -2.35944 13.2255
      vertex -0.834346 -2.56785 14
      vertex -0.834346 -2.56785 13.2255
    endloop
  endfacet
  facet normal 0.406655 0.913582 0
    outer loop
      vertex -1.35 -2.33827 14
      vertex -1.30244 -2.35944 13.2255
      vertex -1.35 -2.33827 13.2255
    endloop
  endfacet
  facet normal 0.743141 -0.669135 0
    outer loop
      vertex -1.80665 2.00649 14
      vertex -2.14951 1.62571 13.2255
      vertex -1.80665 2.00649 13.2255
    endloop
  endfacet
  facet normal 0.743138 -0.669138 2.56604e-06
    outer loop
      vertex -2.18435 1.58702 14
      vertex -2.14951 1.62571 13.2255
      vertex -1.80665 2.00649 14
    endloop
  endfacet
  facet normal 0.743113 -0.669166 0
    outer loop
      vertex -2.14951 1.62571 13.2255
      vertex -2.18435 1.58702 14
      vertex -2.18435 1.58702 13.2255
    endloop
  endfacet
endsolid OpenSCAD_Model
