solid OpenSCAD_Model
  facet normal -0.951057 -0.309016 0
    outer loop
      vertex -76.8611 -23.3537 21
      vertex -80.2527 -12.9154 25
      vertex -80.2527 -12.9154 21
    endloop
  endfacet
  facet normal -0.951057 -0.309016 0
    outer loop
      vertex -80.2527 -12.9154 25
      vertex -76.8611 -23.3537 21
      vertex -76.8611 -23.3537 25
    endloop
  endfacet
  facet normal -0.866026 0.499999 0
    outer loop
      vertex -76.8611 19.3537 21
      vertex -71.3734 28.8587 25
      vertex -71.3734 28.8587 21
    endloop
  endfacet
  facet normal -0.866026 0.499999 0
    outer loop
      vertex -71.3734 28.8587 25
      vertex -76.8611 19.3537 21
      vertex -76.8611 19.3537 25
    endloop
  endfacet
  facet normal -0.743147 0.669128 0
    outer loop
      vertex -71.3734 28.8587 21
      vertex -64.0294 37.0151 25
      vertex -64.0294 37.0151 21
    endloop
  endfacet
  facet normal -0.743147 0.669128 0
    outer loop
      vertex -64.0294 37.0151 25
      vertex -71.3734 28.8587 21
      vertex -71.3734 28.8587 25
    endloop
  endfacet
  facet normal -0.587725 0.80906 0
    outer loop
      vertex -63.9 37.1091 21
      vertex -64.0294 37.0151 25
      vertex -63.9 37.1091 25
    endloop
  endfacet
  facet normal -0.587725 0.80906 0
    outer loop
      vertex -64.0294 37.0151 25
      vertex -63.9 37.1091 21
      vertex -64.0294 37.0151 21
    endloop
  endfacet
  facet normal 0 0 1
    outer loop
      vertex -81.4 -2 25
      vertex -57.8899 8.75344 25
      vertex -80.2527 8.91536 25
    endloop
  endfacet
  facet normal 0 0 1
    outer loop
      vertex -57.8899 8.75344 25
      vertex -81.4 -2 25
      vertex -57.8899 -12.9534 25
    endloop
  endfacet
  facet normal 0 -0 1
    outer loop
      vertex -64.0294 -41.0151 25
      vertex -58.1 -13.6 25
      vertex -71.3734 -32.8587 25
    endloop
  endfacet
  facet normal 0 0 1
    outer loop
      vertex -58.1 -13.6 25
      vertex -64.0294 -41.0151 25
      vertex -63.9 -41.1091 25
    endloop
  endfacet
  facet normal -0 -0 1
    outer loop
      vertex -80.2527 -12.9154 25
      vertex -57.8899 -12.9534 25
      vertex -81.4 -2 25
    endloop
  endfacet
  facet normal 0 0 1
    outer loop
      vertex -58.1 -13.6 25
      vertex -76.8611 -23.3537 25
      vertex -71.3734 -32.8587 25
    endloop
  endfacet
  facet normal 0 0 1
    outer loop
      vertex -57.8899 -12.9534 25
      vertex -80.2527 -12.9154 25
      vertex -58.0462 -13.2601 25
    endloop
  endfacet
  facet normal 0 0 1
    outer loop
      vertex -58.1 -13.6 25
      vertex -80.2527 -12.9154 25
      vertex -76.8611 -23.3537 25
    endloop
  endfacet
  facet normal 0 0 1
    outer loop
      vertex -58.0462 -13.2601 25
      vertex -80.2527 -12.9154 25
      vertex -58.1 -13.6 25
    endloop
  endfacet
  facet normal -0 0 1
    outer loop
      vertex -55.9538 9.06008 25
      vertex -55.9 -13.6 25
      vertex -55.9 9.4 25
    endloop
  endfacet
  facet normal 0 0 1
    outer loop
      vertex -55.9538 9.06008 25
      vertex -55.9538 -13.2601 25
      vertex -55.9 -13.6 25
    endloop
  endfacet
  facet normal -0 0 1
    outer loop
      vertex -56.1101 8.75344 25
      vertex -55.9538 -13.2601 25
      vertex -55.9538 9.06008 25
    endloop
  endfacet
  facet normal 0 0 1
    outer loop
      vertex -56.1101 8.75344 25
      vertex -56.1101 -12.9534 25
      vertex -55.9538 -13.2601 25
    endloop
  endfacet
  facet normal -0 0 1
    outer loop
      vertex -56.3534 8.51008 25
      vertex -56.1101 -12.9534 25
      vertex -56.1101 8.75344 25
    endloop
  endfacet
  facet normal 0 0 1
    outer loop
      vertex -56.3534 8.51008 25
      vertex -56.3534 -12.7101 25
      vertex -56.1101 -12.9534 25
    endloop
  endfacet
  facet normal -0 0 1
    outer loop
      vertex -56.6601 8.35384 25
      vertex -56.3534 -12.7101 25
      vertex -56.3534 8.51008 25
    endloop
  endfacet
  facet normal 0 0 1
    outer loop
      vertex -56.6601 8.35384 25
      vertex -56.6601 -12.5538 25
      vertex -56.3534 -12.7101 25
    endloop
  endfacet
  facet normal -0 0 1
    outer loop
      vertex -57 8.3 25
      vertex -56.6601 -12.5538 25
      vertex -56.6601 8.35384 25
    endloop
  endfacet
  facet normal 0 0 1
    outer loop
      vertex -57 8.3 25
      vertex -57 -12.5 25
      vertex -56.6601 -12.5538 25
    endloop
  endfacet
  facet normal 0 0 1
    outer loop
      vertex -57.3399 8.35384 25
      vertex -57 -12.5 25
      vertex -57 8.3 25
    endloop
  endfacet
  facet normal 0 0 1
    outer loop
      vertex -57.3399 8.35384 25
      vertex -57.3399 -12.5538 25
      vertex -57 -12.5 25
    endloop
  endfacet
  facet normal 0 0 1
    outer loop
      vertex -57.6466 8.51008 25
      vertex -57.3399 -12.5538 25
      vertex -57.3399 8.35384 25
    endloop
  endfacet
  facet normal 0 0 1
    outer loop
      vertex -57.6466 8.51008 25
      vertex -57.6466 -12.7101 25
      vertex -57.3399 -12.5538 25
    endloop
  endfacet
  facet normal 0 0 1
    outer loop
      vertex -57.8899 8.75344 25
      vertex -57.6466 -12.7101 25
      vertex -57.6466 8.51008 25
    endloop
  endfacet
  facet normal 0 0 1
    outer loop
      vertex -57.8899 8.75344 25
      vertex -57.8899 -12.9534 25
      vertex -57.6466 -12.7101 25
    endloop
  endfacet
  facet normal 0 0 1
    outer loop
      vertex -58.1 9.4 25
      vertex -80.2527 8.91536 25
      vertex -58.0462 9.06008 25
    endloop
  endfacet
  facet normal 0 0 1
    outer loop
      vertex -58.0462 9.06008 25
      vertex -80.2527 8.91536 25
      vertex -57.8899 8.75344 25
    endloop
  endfacet
  facet normal 0 0 1
    outer loop
      vertex -58.0462 9.73992 25
      vertex -76.8611 19.3537 25
      vertex -58.1 9.4 25
    endloop
  endfacet
  facet normal 0 0 1
    outer loop
      vertex -80.2527 8.91536 25
      vertex -58.1 9.4 25
      vertex -76.8611 19.3537 25
    endloop
  endfacet
  facet normal 0 0 1
    outer loop
      vertex -28.9 37.35 25
      vertex -53.9 27.35 25
      vertex -28.9 27.35 25
    endloop
  endfacet
  facet normal 0 0 1
    outer loop
      vertex -53.9 27.35 25
      vertex -55.9 9.4 25
      vertex -53.9 -31.35 25
    endloop
  endfacet
  facet normal 0 0 1
    outer loop
      vertex -53.9 27.35 25
      vertex -55.9538 9.73992 25
      vertex -55.9 9.4 25
    endloop
  endfacet
  facet normal 0 0 1
    outer loop
      vertex -53.9 27.35 25
      vertex -56.1101 10.0466 25
      vertex -55.9538 9.73992 25
    endloop
  endfacet
  facet normal 0 0 1
    outer loop
      vertex -53.9 27.35 25
      vertex -56.3534 10.2899 25
      vertex -56.1101 10.0466 25
    endloop
  endfacet
  facet normal 0 0 1
    outer loop
      vertex -53.9 27.35 25
      vertex -56.6601 10.4462 25
      vertex -56.3534 10.2899 25
    endloop
  endfacet
  facet normal 0 0 1
    outer loop
      vertex -53.9 27.35 25
      vertex -57 10.5 25
      vertex -56.6601 10.4462 25
    endloop
  endfacet
  facet normal 0 0 1
    outer loop
      vertex -53.9 27.35 25
      vertex -57.3399 10.4462 25
      vertex -57 10.5 25
    endloop
  endfacet
  facet normal 0 0 1
    outer loop
      vertex -53.9 27.35 25
      vertex -57.6466 10.2899 25
      vertex -57.3399 10.4462 25
    endloop
  endfacet
  facet normal -0 0 1
    outer loop
      vertex -71.3734 28.8587 25
      vertex -53.9 27.35 25
      vertex -64.0294 37.0151 25
    endloop
  endfacet
  facet normal -0 0 1
    outer loop
      vertex -64.0294 37.0151 25
      vertex -53.9 27.35 25
      vertex -63.9 37.1091 25
    endloop
  endfacet
  facet normal -0 0 1
    outer loop
      vertex -76.8611 19.3537 25
      vertex -57.6466 10.2899 25
      vertex -71.3734 28.8587 25
    endloop
  endfacet
  facet normal 0 0 1
    outer loop
      vertex -53.9 27.35 25
      vertex -71.3734 28.8587 25
      vertex -57.6466 10.2899 25
    endloop
  endfacet
  facet normal -0 0 1
    outer loop
      vertex -63.9 37.1091 25
      vertex -53.9 27.35 25
      vertex -63.9 37.35 25
    endloop
  endfacet
  facet normal -0 0 1
    outer loop
      vertex -63.9 37.35 25
      vertex -53.9 27.35 25
      vertex -28.9 37.35 25
    endloop
  endfacet
  facet normal -0 0 1
    outer loop
      vertex -53.9 -31.35 25
      vertex -28.9 -41.35 25
      vertex -28.9 -31.35 25
    endloop
  endfacet
  facet normal -0 0 1
    outer loop
      vertex -55.9 -13.6 25
      vertex -53.9 -31.35 25
      vertex -55.9 9.4 25
    endloop
  endfacet
  facet normal -0 0 1
    outer loop
      vertex -55.9538 -13.9399 25
      vertex -53.9 -31.35 25
      vertex -55.9 -13.6 25
    endloop
  endfacet
  facet normal -0 0 1
    outer loop
      vertex -56.1101 -14.2466 25
      vertex -53.9 -31.35 25
      vertex -55.9538 -13.9399 25
    endloop
  endfacet
  facet normal -0 0 1
    outer loop
      vertex -56.3534 -14.4899 25
      vertex -53.9 -31.35 25
      vertex -56.1101 -14.2466 25
    endloop
  endfacet
  facet normal -0 0 1
    outer loop
      vertex -56.6601 -14.6462 25
      vertex -53.9 -31.35 25
      vertex -56.3534 -14.4899 25
    endloop
  endfacet
  facet normal -0 0 1
    outer loop
      vertex -57 -14.7 25
      vertex -53.9 -31.35 25
      vertex -56.6601 -14.6462 25
    endloop
  endfacet
  facet normal 0 0 1
    outer loop
      vertex -57.3399 -14.6462 25
      vertex -53.9 -31.35 25
      vertex -57 -14.7 25
    endloop
  endfacet
  facet normal 0 0 1
    outer loop
      vertex -57.6466 -14.4899 25
      vertex -53.9 -31.35 25
      vertex -57.3399 -14.6462 25
    endloop
  endfacet
  facet normal 0 0 1
    outer loop
      vertex -63.9 -41.1091 25
      vertex -57.6466 -14.4899 25
      vertex -57.8899 -14.2466 25
    endloop
  endfacet
  facet normal 0 0 1
    outer loop
      vertex -63.9 -41.1091 25
      vertex -57.8899 -14.2466 25
      vertex -58.0462 -13.9399 25
    endloop
  endfacet
  facet normal 0 0 1
    outer loop
      vertex -57.6466 10.2899 25
      vertex -76.8611 19.3537 25
      vertex -57.8899 10.0466 25
    endloop
  endfacet
  facet normal 0 0 1
    outer loop
      vertex -57.8899 10.0466 25
      vertex -76.8611 19.3537 25
      vertex -58.0462 9.73992 25
    endloop
  endfacet
  facet normal 0 0 1
    outer loop
      vertex -63.9 -41.1091 25
      vertex -58.0462 -13.9399 25
      vertex -58.1 -13.6 25
    endloop
  endfacet
  facet normal 0 0 1
    outer loop
      vertex -57.6466 -14.4899 25
      vertex -63.9 -41.1091 25
      vertex -53.9 -31.35 25
    endloop
  endfacet
  facet normal 0 0 1
    outer loop
      vertex -63.9 -41.35 25
      vertex -53.9 -31.35 25
      vertex -63.9 -41.1091 25
    endloop
  endfacet
  facet normal 0 0 1
    outer loop
      vertex -53.9 -31.35 25
      vertex -63.9 -41.35 25
      vertex -28.9 -41.35 25
    endloop
  endfacet
  facet normal -0.587725 -0.80906 0
    outer loop
      vertex -64.0294 -41.0151 21
      vertex -63.9 -41.1091 25
      vertex -64.0294 -41.0151 25
    endloop
  endfacet
  facet normal -0.587725 -0.80906 -0
    outer loop
      vertex -63.9 -41.1091 25
      vertex -64.0294 -41.0151 21
      vertex -63.9 -41.1091 21
    endloop
  endfacet
  facet normal 0 0 -1
    outer loop
      vertex -81.4 -2 21
      vertex -57.8899 -12.9534 21
      vertex -80.2527 -12.9154 21
    endloop
  endfacet
  facet normal 0 0 -1
    outer loop
      vertex -57.8899 -12.9534 21
      vertex -81.4 -2 21
      vertex -57.8899 8.75344 21
    endloop
  endfacet
  facet normal 0 -0 -1
    outer loop
      vertex -64.0294 37.0151 21
      vertex -58.1 9.4 21
      vertex -71.3734 28.8587 21
    endloop
  endfacet
  facet normal 0 0 -1
    outer loop
      vertex -58.1 9.4 21
      vertex -64.0294 37.0151 21
      vertex -63.9 37.1091 21
    endloop
  endfacet
  facet normal 0 -0 -1
    outer loop
      vertex -80.2527 8.91536 21
      vertex -57.8899 8.75344 21
      vertex -81.4 -2 21
    endloop
  endfacet
  facet normal 0 0 -1
    outer loop
      vertex -58.1 9.4 21
      vertex -76.8611 19.3537 21
      vertex -71.3734 28.8587 21
    endloop
  endfacet
  facet normal 0 0 -1
    outer loop
      vertex -57.8899 8.75344 21
      vertex -80.2527 8.91536 21
      vertex -58.0462 9.06008 21
    endloop
  endfacet
  facet normal -0 0 -1
    outer loop
      vertex -58.1 9.4 21
      vertex -80.2527 8.91536 21
      vertex -76.8611 19.3537 21
    endloop
  endfacet
  facet normal -0 0 -1
    outer loop
      vertex -58.0462 9.06008 21
      vertex -80.2527 8.91536 21
      vertex -58.1 9.4 21
    endloop
  endfacet
  facet normal 0 0 -1
    outer loop
      vertex -55.9538 -13.2601 21
      vertex -55.9 9.4 21
      vertex -55.9 -13.6 21
    endloop
  endfacet
  facet normal 0 0 -1
    outer loop
      vertex -55.9538 -13.2601 21
      vertex -55.9538 9.06008 21
      vertex -55.9 9.4 21
    endloop
  endfacet
  facet normal 0 0 -1
    outer loop
      vertex -56.1101 -12.9534 21
      vertex -55.9538 9.06008 21
      vertex -55.9538 -13.2601 21
    endloop
  endfacet
  facet normal 0 0 -1
    outer loop
      vertex -56.1101 -12.9534 21
      vertex -56.1101 8.75344 21
      vertex -55.9538 9.06008 21
    endloop
  endfacet
  facet normal 0 0 -1
    outer loop
      vertex -56.3534 -12.7101 21
      vertex -56.1101 8.75344 21
      vertex -56.1101 -12.9534 21
    endloop
  endfacet
  facet normal 0 0 -1
    outer loop
      vertex -56.3534 -12.7101 21
      vertex -56.3534 8.51008 21
      vertex -56.1101 8.75344 21
    endloop
  endfacet
  facet normal 0 0 -1
    outer loop
      vertex -56.6601 -12.5538 21
      vertex -56.3534 8.51008 21
      vertex -56.3534 -12.7101 21
    endloop
  endfacet
  facet normal 0 0 -1
    outer loop
      vertex -56.6601 -12.5538 21
      vertex -56.6601 8.35384 21
      vertex -56.3534 8.51008 21
    endloop
  endfacet
  facet normal 0 0 -1
    outer loop
      vertex -57 -12.5 21
      vertex -56.6601 8.35384 21
      vertex -56.6601 -12.5538 21
    endloop
  endfacet
  facet normal 0 0 -1
    outer loop
      vertex -57 -12.5 21
      vertex -57 8.3 21
      vertex -56.6601 8.35384 21
    endloop
  endfacet
  facet normal 0 0 -1
    outer loop
      vertex -57.3399 -12.5538 21
      vertex -57 8.3 21
      vertex -57 -12.5 21
    endloop
  endfacet
  facet normal 0 0 -1
    outer loop
      vertex -57.3399 -12.5538 21
      vertex -57.3399 8.35384 21
      vertex -57 8.3 21
    endloop
  endfacet
  facet normal 0 0 -1
    outer loop
      vertex -57.6466 -12.7101 21
      vertex -57.3399 8.35384 21
      vertex -57.3399 -12.5538 21
    endloop
  endfacet
  facet normal 0 0 -1
    outer loop
      vertex -57.6466 -12.7101 21
      vertex -57.6466 8.51008 21
      vertex -57.3399 8.35384 21
    endloop
  endfacet
  facet normal 0 0 -1
    outer loop
      vertex -57.8899 -12.9534 21
      vertex -57.6466 8.51008 21
      vertex -57.6466 -12.7101 21
    endloop
  endfacet
  facet normal 0 0 -1
    outer loop
      vertex -57.8899 -12.9534 21
      vertex -57.8899 8.75344 21
      vertex -57.6466 8.51008 21
    endloop
  endfacet
  facet normal 0 0 -1
    outer loop
      vertex -58.1 -13.6 21
      vertex -80.2527 -12.9154 21
      vertex -58.0462 -13.2601 21
    endloop
  endfacet
  facet normal 0 0 -1
    outer loop
      vertex -58.0462 -13.2601 21
      vertex -80.2527 -12.9154 21
      vertex -57.8899 -12.9534 21
    endloop
  endfacet
  facet normal -0 0 -1
    outer loop
      vertex -58.0462 -13.9399 21
      vertex -76.8611 -23.3537 21
      vertex -58.1 -13.6 21
    endloop
  endfacet
  facet normal 0 0 -1
    outer loop
      vertex -80.2527 -12.9154 21
      vertex -58.1 -13.6 21
      vertex -76.8611 -23.3537 21
    endloop
  endfacet
  facet normal 0 0 -1
    outer loop
      vertex -28.9 -41.35 21
      vertex -53.9 -31.35 21
      vertex -28.9 -31.35 21
    endloop
  endfacet
  facet normal 0 0 -1
    outer loop
      vertex -53.9 -31.35 21
      vertex -55.9 -13.6 21
      vertex -53.9 27.35 21
    endloop
  endfacet
  facet normal 0 0 -1
    outer loop
      vertex -53.9 -31.35 21
      vertex -55.9538 -13.9399 21
      vertex -55.9 -13.6 21
    endloop
  endfacet
  facet normal 0 0 -1
    outer loop
      vertex -53.9 -31.35 21
      vertex -56.1101 -14.2466 21
      vertex -55.9538 -13.9399 21
    endloop
  endfacet
  facet normal 0 0 -1
    outer loop
      vertex -53.9 -31.35 21
      vertex -56.3534 -14.4899 21
      vertex -56.1101 -14.2466 21
    endloop
  endfacet
  facet normal 0 0 -1
    outer loop
      vertex -53.9 -31.35 21
      vertex -56.6601 -14.6462 21
      vertex -56.3534 -14.4899 21
    endloop
  endfacet
  facet normal 0 0 -1
    outer loop
      vertex -53.9 -31.35 21
      vertex -57 -14.7 21
      vertex -56.6601 -14.6462 21
    endloop
  endfacet
  facet normal 0 0 -1
    outer loop
      vertex -53.9 -31.35 21
      vertex -57.3399 -14.6462 21
      vertex -57 -14.7 21
    endloop
  endfacet
  facet normal 0 0 -1
    outer loop
      vertex -53.9 -31.35 21
      vertex -57.6466 -14.4899 21
      vertex -57.3399 -14.6462 21
    endloop
  endfacet
  facet normal 0 0 -1
    outer loop
      vertex -64.0294 -41.0151 21
      vertex -53.9 -31.35 21
      vertex -63.9 -41.1091 21
    endloop
  endfacet
  facet normal 0 0 -1
    outer loop
      vertex -71.3734 -32.8587 21
      vertex -53.9 -31.35 21
      vertex -64.0294 -41.0151 21
    endloop
  endfacet
  facet normal 0 0 -1
    outer loop
      vertex -76.8611 -23.3537 21
      vertex -57.6466 -14.4899 21
      vertex -71.3734 -32.8587 21
    endloop
  endfacet
  facet normal -0 0 -1
    outer loop
      vertex -53.9 -31.35 21
      vertex -71.3734 -32.8587 21
      vertex -57.6466 -14.4899 21
    endloop
  endfacet
  facet normal 0 0 -1
    outer loop
      vertex -63.9 -41.1091 21
      vertex -53.9 -31.35 21
      vertex -63.9 -41.35 21
    endloop
  endfacet
  facet normal 0 0 -1
    outer loop
      vertex -63.9 -41.35 21
      vertex -53.9 -31.35 21
      vertex -28.9 -41.35 21
    endloop
  endfacet
  facet normal 0 0 -1
    outer loop
      vertex -53.9 27.35 21
      vertex -28.9 37.35 21
      vertex -28.9 27.35 21
    endloop
  endfacet
  facet normal 0 0 -1
    outer loop
      vertex -55.9 9.4 21
      vertex -53.9 27.35 21
      vertex -55.9 -13.6 21
    endloop
  endfacet
  facet normal 0 0 -1
    outer loop
      vertex -55.9538 9.73992 21
      vertex -53.9 27.35 21
      vertex -55.9 9.4 21
    endloop
  endfacet
  facet normal 0 0 -1
    outer loop
      vertex -56.1101 10.0466 21
      vertex -53.9 27.35 21
      vertex -55.9538 9.73992 21
    endloop
  endfacet
  facet normal 0 0 -1
    outer loop
      vertex -56.3534 10.2899 21
      vertex -53.9 27.35 21
      vertex -56.1101 10.0466 21
    endloop
  endfacet
  facet normal 0 0 -1
    outer loop
      vertex -56.6601 10.4462 21
      vertex -53.9 27.35 21
      vertex -56.3534 10.2899 21
    endloop
  endfacet
  facet normal 0 0 -1
    outer loop
      vertex -57 10.5 21
      vertex -53.9 27.35 21
      vertex -56.6601 10.4462 21
    endloop
  endfacet
  facet normal 0 0 -1
    outer loop
      vertex -57.3399 10.4462 21
      vertex -53.9 27.35 21
      vertex -57 10.5 21
    endloop
  endfacet
  facet normal 0 0 -1
    outer loop
      vertex -57.6466 10.2899 21
      vertex -53.9 27.35 21
      vertex -57.3399 10.4462 21
    endloop
  endfacet
  facet normal 0 0 -1
    outer loop
      vertex -57.8899 10.0466 21
      vertex -53.9 27.35 21
      vertex -57.6466 10.2899 21
    endloop
  endfacet
  facet normal 0 0 -1
    outer loop
      vertex -63.9 37.1091 21
      vertex -57.8899 10.0466 21
      vertex -58.0462 9.73992 21
    endloop
  endfacet
  facet normal -0 0 -1
    outer loop
      vertex -57.6466 -14.4899 21
      vertex -76.8611 -23.3537 21
      vertex -57.8899 -14.2466 21
    endloop
  endfacet
  facet normal -0 0 -1
    outer loop
      vertex -57.8899 -14.2466 21
      vertex -76.8611 -23.3537 21
      vertex -58.0462 -13.9399 21
    endloop
  endfacet
  facet normal 0 0 -1
    outer loop
      vertex -63.9 37.1091 21
      vertex -58.0462 9.73992 21
      vertex -58.1 9.4 21
    endloop
  endfacet
  facet normal 0 0 -1
    outer loop
      vertex -57.8899 10.0466 21
      vertex -63.9 37.1091 21
      vertex -53.9 27.35 21
    endloop
  endfacet
  facet normal 0 0 -1
    outer loop
      vertex -63.9 37.35 21
      vertex -53.9 27.35 21
      vertex -63.9 37.1091 21
    endloop
  endfacet
  facet normal 0 0 -1
    outer loop
      vertex -53.9 27.35 21
      vertex -63.9 37.35 21
      vertex -28.9 37.35 21
    endloop
  endfacet
  facet normal -0.994521 -0.104533 0
    outer loop
      vertex -80.2527 -12.9154 21
      vertex -81.4 -2 25
      vertex -81.4 -2 21
    endloop
  endfacet
  facet normal -0.994521 -0.104533 0
    outer loop
      vertex -81.4 -2 25
      vertex -80.2527 -12.9154 21
      vertex -80.2527 -12.9154 25
    endloop
  endfacet
  facet normal -0.743147 -0.669128 0
    outer loop
      vertex -64.0294 -41.0151 21
      vertex -71.3734 -32.8587 25
      vertex -71.3734 -32.8587 21
    endloop
  endfacet
  facet normal -0.743147 -0.669128 0
    outer loop
      vertex -71.3734 -32.8587 25
      vertex -64.0294 -41.0151 21
      vertex -64.0294 -41.0151 25
    endloop
  endfacet
  facet normal -0.866026 -0.499999 0
    outer loop
      vertex -71.3734 -32.8587 21
      vertex -76.8611 -23.3537 25
      vertex -76.8611 -23.3537 21
    endloop
  endfacet
  facet normal -0.866026 -0.499999 0
    outer loop
      vertex -76.8611 -23.3537 25
      vertex -71.3734 -32.8587 21
      vertex -71.3734 -32.8587 25
    endloop
  endfacet
  facet normal -0.994521 0.104533 0
    outer loop
      vertex -81.4 -2 21
      vertex -80.2527 8.91536 25
      vertex -80.2527 8.91536 21
    endloop
  endfacet
  facet normal -0.994521 0.104533 0
    outer loop
      vertex -80.2527 8.91536 25
      vertex -81.4 -2 21
      vertex -81.4 -2 25
    endloop
  endfacet
  facet normal -0.951057 0.309015 0
    outer loop
      vertex -80.2527 8.91536 21
      vertex -76.8611 19.3537 25
      vertex -76.8611 19.3537 21
    endloop
  endfacet
  facet normal -0.951057 0.309015 0
    outer loop
      vertex -76.8611 19.3537 25
      vertex -80.2527 8.91536 21
      vertex -80.2527 8.91536 25
    endloop
  endfacet
  facet normal -1 0 0
    outer loop
      vertex -63.9 37.1091 21
      vertex -63.9 37.35 25
      vertex -63.9 37.35 21
    endloop
  endfacet
  facet normal -1 -0 0
    outer loop
      vertex -63.9 37.35 25
      vertex -63.9 37.1091 21
      vertex -63.9 37.1091 25
    endloop
  endfacet
  facet normal -1 0 0
    outer loop
      vertex -63.9 -41.35 21
      vertex -63.9 -41.1091 25
      vertex -63.9 -41.1091 21
    endloop
  endfacet
  facet normal -1 -0 0
    outer loop
      vertex -63.9 -41.1091 25
      vertex -63.9 -41.35 21
      vertex -63.9 -41.35 25
    endloop
  endfacet
  facet normal 1 -0 0
    outer loop
      vertex -28.9 27.35 25
      vertex -28.9 37.35 21
      vertex -28.9 37.35 25
    endloop
  endfacet
  facet normal 1 0 0
    outer loop
      vertex -28.9 37.35 21
      vertex -28.9 27.35 25
      vertex -28.9 27.35 21
    endloop
  endfacet
  facet normal 1 -0 0
    outer loop
      vertex -28.9 -41.35 25
      vertex -28.9 -31.35 21
      vertex -28.9 -31.35 25
    endloop
  endfacet
  facet normal 1 0 0
    outer loop
      vertex -28.9 -31.35 21
      vertex -28.9 -41.35 25
      vertex -28.9 -41.35 21
    endloop
  endfacet
  facet normal 0 1 -0
    outer loop
      vertex -28.9 37.35 21
      vertex -63.9 37.35 25
      vertex -28.9 37.35 25
    endloop
  endfacet
  facet normal 0 1 0
    outer loop
      vertex -63.9 37.35 25
      vertex -28.9 37.35 21
      vertex -63.9 37.35 21
    endloop
  endfacet
  facet normal 0 -1 0
    outer loop
      vertex -63.9 -41.35 21
      vertex -28.9 -41.35 25
      vertex -63.9 -41.35 25
    endloop
  endfacet
  facet normal 0 -1 -0
    outer loop
      vertex -28.9 -41.35 25
      vertex -63.9 -41.35 21
      vertex -28.9 -41.35 21
    endloop
  endfacet
  facet normal 1 -0 0
    outer loop
      vertex -53.9 -31.35 25
      vertex -53.9 27.35 21
      vertex -53.9 27.35 25
    endloop
  endfacet
  facet normal 1 0 0
    outer loop
      vertex -53.9 27.35 21
      vertex -53.9 -31.35 25
      vertex -53.9 -31.35 21
    endloop
  endfacet
  facet normal 0 -1 0
    outer loop
      vertex -53.9 27.35 21
      vertex -28.9 27.35 25
      vertex -53.9 27.35 25
    endloop
  endfacet
  facet normal 0 -1 -0
    outer loop
      vertex -28.9 27.35 25
      vertex -53.9 27.35 21
      vertex -28.9 27.35 21
    endloop
  endfacet
  facet normal 0 1 -0
    outer loop
      vertex -28.9 -31.35 21
      vertex -53.9 -31.35 25
      vertex -28.9 -31.35 25
    endloop
  endfacet
  facet normal 0 1 0
    outer loop
      vertex -53.9 -31.35 25
      vertex -28.9 -31.35 21
      vertex -53.9 -31.35 21
    endloop
  endfacet
  facet normal -0.890973 -0.454056 0
    outer loop
      vertex -55.9538 -13.2601 21
      vertex -56.1101 -12.9534 25
      vertex -56.1101 -12.9534 21
    endloop
  endfacet
  facet normal -0.890973 -0.454056 0
    outer loop
      vertex -56.1101 -12.9534 25
      vertex -55.9538 -13.2601 21
      vertex -55.9538 -13.2601 25
    endloop
  endfacet
  facet normal -0.987704 -0.156336 0
    outer loop
      vertex -55.9 -13.6 21
      vertex -55.9538 -13.2601 25
      vertex -55.9538 -13.2601 21
    endloop
  endfacet
  facet normal -0.987704 -0.156336 0
    outer loop
      vertex -55.9538 -13.2601 25
      vertex -55.9 -13.6 21
      vertex -55.9 -13.6 25
    endloop
  endfacet
  facet normal -0.707107 -0.707107 0
    outer loop
      vertex -56.1101 -12.9534 21
      vertex -56.3534 -12.7101 25
      vertex -56.3534 -12.7101 21
    endloop
  endfacet
  facet normal -0.707107 -0.707107 0
    outer loop
      vertex -56.3534 -12.7101 25
      vertex -56.1101 -12.9534 21
      vertex -56.1101 -12.9534 25
    endloop
  endfacet
  facet normal 0.156336 -0.987704 0
    outer loop
      vertex -57.3399 -12.5538 21
      vertex -57 -12.5 25
      vertex -57.3399 -12.5538 25
    endloop
  endfacet
  facet normal 0.156336 -0.987704 0
    outer loop
      vertex -57 -12.5 25
      vertex -57.3399 -12.5538 21
      vertex -57 -12.5 21
    endloop
  endfacet
  facet normal 0.707107 0.707107 0
    outer loop
      vertex -57.6466 -14.4899 25
      vertex -57.8899 -14.2466 21
      vertex -57.8899 -14.2466 25
    endloop
  endfacet
  facet normal 0.707107 0.707107 0
    outer loop
      vertex -57.8899 -14.2466 21
      vertex -57.6466 -14.4899 25
      vertex -57.6466 -14.4899 21
    endloop
  endfacet
  facet normal 0.707107 -0.707107 0
    outer loop
      vertex -57.8899 -12.9534 25
      vertex -57.6466 -12.7101 21
      vertex -57.6466 -12.7101 25
    endloop
  endfacet
  facet normal 0.707107 -0.707107 0
    outer loop
      vertex -57.6466 -12.7101 21
      vertex -57.8899 -12.9534 25
      vertex -57.8899 -12.9534 21
    endloop
  endfacet
  facet normal -0.890973 0.454056 0
    outer loop
      vertex -56.1101 -14.2466 21
      vertex -55.9538 -13.9399 25
      vertex -55.9538 -13.9399 21
    endloop
  endfacet
  facet normal -0.890973 0.454056 0
    outer loop
      vertex -55.9538 -13.9399 25
      vertex -56.1101 -14.2466 21
      vertex -56.1101 -14.2466 25
    endloop
  endfacet
  facet normal -0.987704 0.156336 0
    outer loop
      vertex -55.9538 -13.9399 21
      vertex -55.9 -13.6 25
      vertex -55.9 -13.6 21
    endloop
  endfacet
  facet normal -0.987704 0.156336 0
    outer loop
      vertex -55.9 -13.6 25
      vertex -55.9538 -13.9399 21
      vertex -55.9538 -13.9399 25
    endloop
  endfacet
  facet normal 0.890973 -0.454056 0
    outer loop
      vertex -58.0462 -13.2601 25
      vertex -57.8899 -12.9534 21
      vertex -57.8899 -12.9534 25
    endloop
  endfacet
  facet normal 0.890973 -0.454056 0
    outer loop
      vertex -57.8899 -12.9534 21
      vertex -58.0462 -13.2601 25
      vertex -58.0462 -13.2601 21
    endloop
  endfacet
  facet normal -0.454056 -0.890973 0
    outer loop
      vertex -56.6601 -12.5538 21
      vertex -56.3534 -12.7101 25
      vertex -56.6601 -12.5538 25
    endloop
  endfacet
  facet normal -0.454056 -0.890973 -0
    outer loop
      vertex -56.3534 -12.7101 25
      vertex -56.6601 -12.5538 21
      vertex -56.3534 -12.7101 21
    endloop
  endfacet
  facet normal -0.707107 0.707107 0
    outer loop
      vertex -56.3534 -14.4899 21
      vertex -56.1101 -14.2466 25
      vertex -56.1101 -14.2466 21
    endloop
  endfacet
  facet normal -0.707107 0.707107 0
    outer loop
      vertex -56.1101 -14.2466 25
      vertex -56.3534 -14.4899 21
      vertex -56.3534 -14.4899 25
    endloop
  endfacet
  facet normal -0.156336 0.987704 0
    outer loop
      vertex -56.6601 -14.6462 21
      vertex -57 -14.7 25
      vertex -56.6601 -14.6462 25
    endloop
  endfacet
  facet normal -0.156336 0.987704 0
    outer loop
      vertex -57 -14.7 25
      vertex -56.6601 -14.6462 21
      vertex -57 -14.7 21
    endloop
  endfacet
  facet normal -0.454056 0.890973 0
    outer loop
      vertex -56.3534 -14.4899 21
      vertex -56.6601 -14.6462 25
      vertex -56.3534 -14.4899 25
    endloop
  endfacet
  facet normal -0.454056 0.890973 0
    outer loop
      vertex -56.6601 -14.6462 25
      vertex -56.3534 -14.4899 21
      vertex -56.6601 -14.6462 21
    endloop
  endfacet
  facet normal 0.987704 0.156336 0
    outer loop
      vertex -58.0462 -13.9399 25
      vertex -58.1 -13.6 21
      vertex -58.1 -13.6 25
    endloop
  endfacet
  facet normal 0.987704 0.156336 0
    outer loop
      vertex -58.1 -13.6 21
      vertex -58.0462 -13.9399 25
      vertex -58.0462 -13.9399 21
    endloop
  endfacet
  facet normal -0.156336 -0.987704 0
    outer loop
      vertex -57 -12.5 21
      vertex -56.6601 -12.5538 25
      vertex -57 -12.5 25
    endloop
  endfacet
  facet normal -0.156336 -0.987704 -0
    outer loop
      vertex -56.6601 -12.5538 25
      vertex -57 -12.5 21
      vertex -56.6601 -12.5538 21
    endloop
  endfacet
  facet normal 0.454056 -0.890973 0
    outer loop
      vertex -57.6466 -12.7101 21
      vertex -57.3399 -12.5538 25
      vertex -57.6466 -12.7101 25
    endloop
  endfacet
  facet normal 0.454056 -0.890973 0
    outer loop
      vertex -57.3399 -12.5538 25
      vertex -57.6466 -12.7101 21
      vertex -57.3399 -12.5538 21
    endloop
  endfacet
  facet normal 0.454056 0.890973 -0
    outer loop
      vertex -57.3399 -14.6462 21
      vertex -57.6466 -14.4899 25
      vertex -57.3399 -14.6462 25
    endloop
  endfacet
  facet normal 0.454056 0.890973 0
    outer loop
      vertex -57.6466 -14.4899 25
      vertex -57.3399 -14.6462 21
      vertex -57.6466 -14.4899 21
    endloop
  endfacet
  facet normal 0.890973 0.454056 0
    outer loop
      vertex -57.8899 -14.2466 25
      vertex -58.0462 -13.9399 21
      vertex -58.0462 -13.9399 25
    endloop
  endfacet
  facet normal 0.890973 0.454056 0
    outer loop
      vertex -58.0462 -13.9399 21
      vertex -57.8899 -14.2466 25
      vertex -57.8899 -14.2466 21
    endloop
  endfacet
  facet normal 0.156336 0.987704 -0
    outer loop
      vertex -57 -14.7 21
      vertex -57.3399 -14.6462 25
      vertex -57 -14.7 25
    endloop
  endfacet
  facet normal 0.156336 0.987704 0
    outer loop
      vertex -57.3399 -14.6462 25
      vertex -57 -14.7 21
      vertex -57.3399 -14.6462 21
    endloop
  endfacet
  facet normal 0.987704 -0.156336 0
    outer loop
      vertex -58.1 -13.6 25
      vertex -58.0462 -13.2601 21
      vertex -58.0462 -13.2601 25
    endloop
  endfacet
  facet normal 0.987704 -0.156336 0
    outer loop
      vertex -58.0462 -13.2601 21
      vertex -58.1 -13.6 25
      vertex -58.1 -13.6 21
    endloop
  endfacet
  facet normal 0.987705 -0.156327 0
    outer loop
      vertex -58.1 9.4 25
      vertex -58.0462 9.73992 21
      vertex -58.0462 9.73992 25
    endloop
  endfacet
  facet normal 0.987705 -0.156327 0
    outer loop
      vertex -58.0462 9.73992 21
      vertex -58.1 9.4 25
      vertex -58.1 9.4 21
    endloop
  endfacet
  facet normal -0.987705 -0.156327 0
    outer loop
      vertex -55.9 9.4 21
      vertex -55.9538 9.73992 25
      vertex -55.9538 9.73992 21
    endloop
  endfacet
  facet normal -0.987705 -0.156327 0
    outer loop
      vertex -55.9538 9.73992 25
      vertex -55.9 9.4 21
      vertex -55.9 9.4 25
    endloop
  endfacet
  facet normal 0.454056 -0.890973 0
    outer loop
      vertex -57.6466 10.2899 21
      vertex -57.3399 10.4462 25
      vertex -57.6466 10.2899 25
    endloop
  endfacet
  facet normal 0.454056 -0.890973 0
    outer loop
      vertex -57.3399 10.4462 25
      vertex -57.6466 10.2899 21
      vertex -57.3399 10.4462 21
    endloop
  endfacet
  facet normal 0.890937 0.454127 0
    outer loop
      vertex -57.8899 8.75344 25
      vertex -58.0462 9.06008 21
      vertex -58.0462 9.06008 25
    endloop
  endfacet
  facet normal 0.890937 0.454127 0
    outer loop
      vertex -58.0462 9.06008 21
      vertex -57.8899 8.75344 25
      vertex -57.8899 8.75344 21
    endloop
  endfacet
  facet normal -0.890937 0.454127 0
    outer loop
      vertex -56.1101 8.75344 21
      vertex -55.9538 9.06008 25
      vertex -55.9538 9.06008 21
    endloop
  endfacet
  facet normal -0.890937 0.454127 0
    outer loop
      vertex -55.9538 9.06008 25
      vertex -56.1101 8.75344 21
      vertex -56.1101 8.75344 25
    endloop
  endfacet
  facet normal 0.156449 0.987686 -0
    outer loop
      vertex -57 8.3 21
      vertex -57.3399 8.35384 25
      vertex -57 8.3 25
    endloop
  endfacet
  facet normal 0.156449 0.987686 0
    outer loop
      vertex -57.3399 8.35384 25
      vertex -57 8.3 21
      vertex -57.3399 8.35384 21
    endloop
  endfacet
  facet normal -0.890961 -0.45408 0
    outer loop
      vertex -55.9538 9.73992 21
      vertex -56.1101 10.0466 25
      vertex -56.1101 10.0466 21
    endloop
  endfacet
  facet normal -0.890961 -0.45408 0
    outer loop
      vertex -56.1101 10.0466 25
      vertex -55.9538 9.73992 21
      vertex -55.9538 9.73992 25
    endloop
  endfacet
  facet normal -0.707107 -0.707107 0
    outer loop
      vertex -56.1101 10.0466 21
      vertex -56.3534 10.2899 25
      vertex -56.3534 10.2899 21
    endloop
  endfacet
  facet normal -0.707107 -0.707107 0
    outer loop
      vertex -56.3534 10.2899 25
      vertex -56.1101 10.0466 21
      vertex -56.1101 10.0466 25
    endloop
  endfacet
  facet normal -0.156336 -0.987704 0
    outer loop
      vertex -57 10.5 21
      vertex -56.6601 10.4462 25
      vertex -57 10.5 25
    endloop
  endfacet
  facet normal -0.156336 -0.987704 -0
    outer loop
      vertex -56.6601 10.4462 25
      vertex -57 10.5 21
      vertex -56.6601 10.4462 21
    endloop
  endfacet
  facet normal -0.453918 0.891043 0
    outer loop
      vertex -56.3534 8.51008 21
      vertex -56.6601 8.35384 25
      vertex -56.3534 8.51008 25
    endloop
  endfacet
  facet normal -0.453918 0.891043 0
    outer loop
      vertex -56.6601 8.35384 25
      vertex -56.3534 8.51008 21
      vertex -56.6601 8.35384 21
    endloop
  endfacet
  facet normal -0.987705 0.156327 0
    outer loop
      vertex -55.9538 9.06008 21
      vertex -55.9 9.4 25
      vertex -55.9 9.4 21
    endloop
  endfacet
  facet normal -0.987705 0.156327 0
    outer loop
      vertex -55.9 9.4 25
      vertex -55.9538 9.06008 21
      vertex -55.9538 9.06008 25
    endloop
  endfacet
  facet normal -0.454056 -0.890973 0
    outer loop
      vertex -56.6601 10.4462 21
      vertex -56.3534 10.2899 25
      vertex -56.6601 10.4462 25
    endloop
  endfacet
  facet normal -0.454056 -0.890973 -0
    outer loop
      vertex -56.3534 10.2899 25
      vertex -56.6601 10.4462 21
      vertex -56.3534 10.2899 21
    endloop
  endfacet
  facet normal 0.987705 0.156327 0
    outer loop
      vertex -58.0462 9.06008 25
      vertex -58.1 9.4 21
      vertex -58.1 9.4 25
    endloop
  endfacet
  facet normal 0.987705 0.156327 0
    outer loop
      vertex -58.1 9.4 21
      vertex -58.0462 9.06008 25
      vertex -58.0462 9.06008 21
    endloop
  endfacet
  facet normal 0.156336 -0.987704 0
    outer loop
      vertex -57.3399 10.4462 21
      vertex -57 10.5 25
      vertex -57.3399 10.4462 25
    endloop
  endfacet
  facet normal 0.156336 -0.987704 0
    outer loop
      vertex -57 10.5 25
      vertex -57.3399 10.4462 21
      vertex -57 10.5 21
    endloop
  endfacet
  facet normal -0.156449 0.987686 0
    outer loop
      vertex -56.6601 8.35384 21
      vertex -57 8.3 25
      vertex -56.6601 8.35384 25
    endloop
  endfacet
  facet normal -0.156449 0.987686 0
    outer loop
      vertex -57 8.3 25
      vertex -56.6601 8.35384 21
      vertex -57 8.3 21
    endloop
  endfacet
  facet normal 0.707107 -0.707107 0
    outer loop
      vertex -57.8899 10.0466 25
      vertex -57.6466 10.2899 21
      vertex -57.6466 10.2899 25
    endloop
  endfacet
  facet normal 0.707107 -0.707107 0
    outer loop
      vertex -57.6466 10.2899 21
      vertex -57.8899 10.0466 25
      vertex -57.8899 10.0466 21
    endloop
  endfacet
  facet normal 0.453918 0.891043 -0
    outer loop
      vertex -57.3399 8.35384 21
      vertex -57.6466 8.51008 25
      vertex -57.3399 8.35384 25
    endloop
  endfacet
  facet normal 0.453918 0.891043 0
    outer loop
      vertex -57.6466 8.51008 25
      vertex -57.3399 8.35384 21
      vertex -57.6466 8.51008 21
    endloop
  endfacet
  facet normal 0.890961 -0.45408 0
    outer loop
      vertex -58.0462 9.73992 25
      vertex -57.8899 10.0466 21
      vertex -57.8899 10.0466 25
    endloop
  endfacet
  facet normal 0.890961 -0.45408 0
    outer loop
      vertex -57.8899 10.0466 21
      vertex -58.0462 9.73992 25
      vertex -58.0462 9.73992 21
    endloop
  endfacet
  facet normal -0.707194 0.70702 0
    outer loop
      vertex -56.3534 8.51008 21
      vertex -56.1101 8.75344 25
      vertex -56.1101 8.75344 21
    endloop
  endfacet
  facet normal -0.707194 0.70702 0
    outer loop
      vertex -56.1101 8.75344 25
      vertex -56.3534 8.51008 21
      vertex -56.3534 8.51008 25
    endloop
  endfacet
  facet normal 0.707194 0.70702 0
    outer loop
      vertex -57.6466 8.51008 25
      vertex -57.8899 8.75344 21
      vertex -57.8899 8.75344 25
    endloop
  endfacet
  facet normal 0.707194 0.70702 0
    outer loop
      vertex -57.8899 8.75344 21
      vertex -57.6466 8.51008 25
      vertex -57.6466 8.51008 21
    endloop
  endfacet
endsolid OpenSCAD_Model
