solid OpenSCAD_Model
  facet normal 1 -0 0
    outer loop
      vertex 168 -78.5 2
      vertex 168 -46 0
      vertex 168 -46 2
    endloop
  endfacet
  facet normal 1 0 0
    outer loop
      vertex 168 -46 0
      vertex 168 -78.5 2
      vertex 168 -78.5 0
    endloop
  endfacet
  facet normal 1 -0 0
    outer loop
      vertex 168 -26 2
      vertex 168 -6 0
      vertex 168 -6 2
    endloop
  endfacet
  facet normal 1 0 0
    outer loop
      vertex 168 -6 0
      vertex 168 -26 2
      vertex 168 -26 0
    endloop
  endfacet
  facet normal -0 0 1
    outer loop
      vertex 115.5 -12.25 2
      vertex 128.7 -16 2
      vertex 128.7 -6 2
    endloop
  endfacet
  facet normal 0 0 1
    outer loop
      vertex 111.787 -15.4669 2
      vertex 116.5 -23 2
      vertex 116.5 -18 2
    endloop
  endfacet
  facet normal -0 0 1
    outer loop
      vertex 114.984 -14.0071 2
      vertex 116.5 -18 2
      vertex 115.5 -12.25 2
    endloop
  endfacet
  facet normal 0 0 1
    outer loop
      vertex 128.7 -16 2
      vertex 115.5 -12.25 2
      vertex 116.5 -18 2
    endloop
  endfacet
  facet normal 0 0 1
    outer loop
      vertex 128.7 -6 2
      vertex 114.984 -10.4929 2
      vertex 115.5 -12.25 2
    endloop
  endfacet
  facet normal 0 0 1
    outer loop
      vertex 128.7 -6 2
      vertex 113.6 -9.2937 2
      vertex 114.984 -10.4929 2
    endloop
  endfacet
  facet normal -0 0 1
    outer loop
      vertex 106 -6 2
      vertex 113.6 -9.2937 2
      vertex 128.7 -6 2
    endloop
  endfacet
  facet normal 0 0 1
    outer loop
      vertex 106 -6 2
      vertex 109.132 -13.1656 2
      vertex 109.132 -11.3344 2
    endloop
  endfacet
  facet normal 0 0 1
    outer loop
      vertex 113.6 -9.2937 2
      vertex 106 -6 2
      vertex 111.787 -9.03308 2
    endloop
  endfacet
  facet normal 0 0 1
    outer loop
      vertex 106 -6 2
      vertex 110.122 -9.79381 2
      vertex 111.787 -9.03308 2
    endloop
  endfacet
  facet normal 0 0 1
    outer loop
      vertex 106 -6 2
      vertex 109.132 -11.3344 2
      vertex 110.122 -9.79381 2
    endloop
  endfacet
  facet normal 0 0 1
    outer loop
      vertex 109.132 -13.1656 2
      vertex 106 -6 2
      vertex 108 -28 2
    endloop
  endfacet
  facet normal 0 0 1
    outer loop
      vertex 106 -78.5 2
      vertex 108 -28 2
      vertex 106 -6 2
    endloop
  endfacet
  facet normal 0 0 1
    outer loop
      vertex 108 -28 2
      vertex 106 -78.5 2
      vertex 108 -78.5 2
    endloop
  endfacet
  facet normal -0 0 1
    outer loop
      vertex 164.5 -12.25 2
      vertex 168 -26 2
      vertex 168 -6 2
    endloop
  endfacet
  facet normal -0 0 1
    outer loop
      vertex 162.6 -15.2063 2
      vertex 168 -26 2
      vertex 163.984 -14.0071 2
    endloop
  endfacet
  facet normal -0 0 1
    outer loop
      vertex 163.984 -14.0071 2
      vertex 168 -26 2
      vertex 164.5 -12.25 2
    endloop
  endfacet
  facet normal 0 0 1
    outer loop
      vertex 168 -6 2
      vertex 163.984 -10.4929 2
      vertex 164.5 -12.25 2
    endloop
  endfacet
  facet normal 0 0 1
    outer loop
      vertex 168 -6 2
      vertex 162.6 -9.2937 2
      vertex 163.984 -10.4929 2
    endloop
  endfacet
  facet normal 0 0 1
    outer loop
      vertex 168 -6 2
      vertex 160.787 -9.03308 2
      vertex 162.6 -9.2937 2
    endloop
  endfacet
  facet normal 0 0 1
    outer loop
      vertex 144.7 -16 2
      vertex 158.132 -13.1656 2
      vertex 158.132 -11.3344 2
    endloop
  endfacet
  facet normal -0 0 1
    outer loop
      vertex 144.7 -6 2
      vertex 160.787 -9.03308 2
      vertex 168 -6 2
    endloop
  endfacet
  facet normal 0 0 1
    outer loop
      vertex 144.7 -6 2
      vertex 159.122 -9.79381 2
      vertex 160.787 -9.03308 2
    endloop
  endfacet
  facet normal 0 0 1
    outer loop
      vertex 144.7 -6 2
      vertex 158.132 -11.3344 2
      vertex 159.122 -9.79381 2
    endloop
  endfacet
  facet normal 0 0 1
    outer loop
      vertex 144.7 -16 2
      vertex 158.132 -11.3344 2
      vertex 144.7 -6 2
    endloop
  endfacet
  facet normal 0 0 1
    outer loop
      vertex 158.132 -13.1656 2
      vertex 144.7 -16 2
      vertex 156.5 -18 2
    endloop
  endfacet
  facet normal -0 0 1
    outer loop
      vertex 128.7 -16 2
      vertex 156.5 -18 2
      vertex 144.7 -16 2
    endloop
  endfacet
  facet normal 0 0 1
    outer loop
      vertex 156.5 -18 2
      vertex 128.7 -16 2
      vertex 116.5 -18 2
    endloop
  endfacet
  facet normal 0 0 1
    outer loop
      vertex 168 -26 2
      vertex 162.6 -15.2063 2
      vertex 166 -26 2
    endloop
  endfacet
  facet normal -0 0 1
    outer loop
      vertex 160.787 -15.4669 2
      vertex 166 -26 2
      vertex 162.6 -15.2063 2
    endloop
  endfacet
  facet normal 0 0 1
    outer loop
      vertex 166 -26 2
      vertex 160.787 -15.4669 2
      vertex 156.5 -23 2
    endloop
  endfacet
  facet normal 0 0 1
    outer loop
      vertex 156.5 -18 2
      vertex 160.787 -15.4669 2
      vertex 159.122 -14.7062 2
    endloop
  endfacet
  facet normal 0 0 1
    outer loop
      vertex 156.5 -18 2
      vertex 159.122 -14.7062 2
      vertex 158.132 -13.1656 2
    endloop
  endfacet
  facet normal 0 0 1
    outer loop
      vertex 160.787 -15.4669 2
      vertex 156.5 -18 2
      vertex 156.5 -23 2
    endloop
  endfacet
  facet normal 0 0 1
    outer loop
      vertex 156.5 -28 2
      vertex 166 -26 2
      vertex 156.5 -23 2
    endloop
  endfacet
  facet normal 0 0 1
    outer loop
      vertex 166 -26 2
      vertex 156.5 -28 2
      vertex 166 -28 2
    endloop
  endfacet
  facet normal -0 0 1
    outer loop
      vertex 116.5 -23 2
      vertex 156.5 -28 2
      vertex 156.5 -23 2
    endloop
  endfacet
  facet normal 0 0 1
    outer loop
      vertex 156.5 -28 2
      vertex 116.5 -23 2
      vertex 116.5 -28 2
    endloop
  endfacet
  facet normal -0 0 1
    outer loop
      vertex 113.6 -15.2063 2
      vertex 116.5 -18 2
      vertex 114.984 -14.0071 2
    endloop
  endfacet
  facet normal -0 0 1
    outer loop
      vertex 111.787 -15.4669 2
      vertex 116.5 -18 2
      vertex 113.6 -15.2063 2
    endloop
  endfacet
  facet normal 0 0 1
    outer loop
      vertex 116.5 -23 2
      vertex 111.787 -15.4669 2
      vertex 108 -28 2
    endloop
  endfacet
  facet normal 0 0 1
    outer loop
      vertex 108 -28 2
      vertex 111.787 -15.4669 2
      vertex 110.122 -14.7062 2
    endloop
  endfacet
  facet normal 0 0 1
    outer loop
      vertex 108 -28 2
      vertex 110.122 -14.7062 2
      vertex 109.132 -13.1656 2
    endloop
  endfacet
  facet normal 0 0 1
    outer loop
      vertex 116.5 -23 2
      vertex 108 -28 2
      vertex 116.5 -28 2
    endloop
  endfacet
  facet normal -0 0 1
    outer loop
      vertex 166 -46 2
      vertex 168 -78.5 2
      vertex 168 -46 2
    endloop
  endfacet
  facet normal 0 0 1
    outer loop
      vertex 168 -78.5 2
      vertex 166 -46 2
      vertex 166 -78.5 2
    endloop
  endfacet
  facet normal -0 0 1
    outer loop
      vertex 108 -28 2
      vertex 116.5 -33 2
      vertex 116.5 -28 2
    endloop
  endfacet
  facet normal 0 0 1
    outer loop
      vertex 116.5 -33 2
      vertex 108 -28 2
      vertex 116.5 -38 2
    endloop
  endfacet
  facet normal 0 0 1
    outer loop
      vertex 116.5 -38 2
      vertex 108 -28 2
      vertex 116.5 -43 2
    endloop
  endfacet
  facet normal 0 0 1
    outer loop
      vertex 116.5 -43 2
      vertex 108 -28 2
      vertex 116.5 -48 2
    endloop
  endfacet
  facet normal 0 -0 1
    outer loop
      vertex 110.122 -67.7938 2
      vertex 116.5 -48 2
      vertex 108 -28 2
    endloop
  endfacet
  facet normal 0 0 1
    outer loop
      vertex 116.5 -48 2
      vertex 110.122 -67.7938 2
      vertex 116.5 -53 2
    endloop
  endfacet
  facet normal 0 0 1
    outer loop
      vertex 116.5 -53 2
      vertex 110.122 -67.7938 2
      vertex 116.5 -58 2
    endloop
  endfacet
  facet normal 0 0 1
    outer loop
      vertex 116.5 -63 2
      vertex 113.6 -67.2937 2
      vertex 116.5 -68 2
    endloop
  endfacet
  facet normal 0 -0 1
    outer loop
      vertex 115.5 -70.25 2
      vertex 116.5 -68 2
      vertex 114.984 -68.4929 2
    endloop
  endfacet
  facet normal -0 0 1
    outer loop
      vertex 114.984 -72.0071 2
      vertex 116.5 -73 2
      vertex 115.5 -70.25 2
    endloop
  endfacet
  facet normal 0 0 1
    outer loop
      vertex 113.6 -73.2063 2
      vertex 116.5 -73 2
      vertex 114.984 -72.0071 2
    endloop
  endfacet
  facet normal 0 0 1
    outer loop
      vertex 116.5 -68 2
      vertex 115.5 -70.25 2
      vertex 116.5 -73 2
    endloop
  endfacet
  facet normal 0 0 1
    outer loop
      vertex 116.5 -68 2
      vertex 113.6 -67.2937 2
      vertex 114.984 -68.4929 2
    endloop
  endfacet
  facet normal 0 0 1
    outer loop
      vertex 116.5 -63 2
      vertex 111.787 -67.0331 2
      vertex 113.6 -67.2937 2
    endloop
  endfacet
  facet normal 0 -0 1
    outer loop
      vertex 111.787 -67.0331 2
      vertex 116.5 -58 2
      vertex 110.122 -67.7938 2
    endloop
  endfacet
  facet normal 0 0 1
    outer loop
      vertex 116.5 -58 2
      vertex 111.787 -67.0331 2
      vertex 116.5 -63 2
    endloop
  endfacet
  facet normal 0 0 1
    outer loop
      vertex 108 -78.5 2
      vertex 109.132 -69.3344 2
      vertex 108 -28 2
    endloop
  endfacet
  facet normal 0 0 1
    outer loop
      vertex 110.122 -67.7938 2
      vertex 108 -28 2
      vertex 109.132 -69.3344 2
    endloop
  endfacet
  facet normal -0 0 1
    outer loop
      vertex 116.5 -73 2
      vertex 156.5 -78 2
      vertex 156.5 -73 2
    endloop
  endfacet
  facet normal 0 0 1
    outer loop
      vertex 156.5 -78 2
      vertex 116.5 -73 2
      vertex 116.5 -78 2
    endloop
  endfacet
  facet normal -0 0 1
    outer loop
      vertex 116.5 -63 2
      vertex 156.5 -68 2
      vertex 156.5 -63 2
    endloop
  endfacet
  facet normal 0 0 1
    outer loop
      vertex 156.5 -68 2
      vertex 116.5 -63 2
      vertex 116.5 -68 2
    endloop
  endfacet
  facet normal -0 0 1
    outer loop
      vertex 116.5 -53 2
      vertex 156.5 -58 2
      vertex 156.5 -53 2
    endloop
  endfacet
  facet normal 0 0 1
    outer loop
      vertex 156.5 -58 2
      vertex 116.5 -53 2
      vertex 116.5 -58 2
    endloop
  endfacet
  facet normal -0 0 1
    outer loop
      vertex 116.5 -43 2
      vertex 156.5 -48 2
      vertex 156.5 -43 2
    endloop
  endfacet
  facet normal 0 0 1
    outer loop
      vertex 156.5 -48 2
      vertex 116.5 -43 2
      vertex 116.5 -48 2
    endloop
  endfacet
  facet normal -0 0 1
    outer loop
      vertex 116.5 -33 2
      vertex 156.5 -38 2
      vertex 156.5 -33 2
    endloop
  endfacet
  facet normal 0 0 1
    outer loop
      vertex 156.5 -38 2
      vertex 116.5 -33 2
      vertex 116.5 -38 2
    endloop
  endfacet
  facet normal 0 0 1
    outer loop
      vertex 116.5 -73 2
      vertex 113.6 -73.2063 2
      vertex 116.5 -78 2
    endloop
  endfacet
  facet normal -0 0 1
    outer loop
      vertex 111.787 -73.4669 2
      vertex 116.5 -78 2
      vertex 113.6 -73.2063 2
    endloop
  endfacet
  facet normal 0 0 1
    outer loop
      vertex 108 -78.5 2
      vertex 116.5 -78 2
      vertex 111.787 -73.4669 2
    endloop
  endfacet
  facet normal 0 0 1
    outer loop
      vertex 108 -78.5 2
      vertex 111.787 -73.4669 2
      vertex 110.122 -72.7062 2
    endloop
  endfacet
  facet normal 0 0 1
    outer loop
      vertex 116.5 -78 2
      vertex 108 -78.5 2
      vertex 116.5 -78.5 2
    endloop
  endfacet
  facet normal 0 0 1
    outer loop
      vertex 109.132 -71.1656 2
      vertex 108 -78.5 2
      vertex 110.122 -72.7062 2
    endloop
  endfacet
  facet normal 0 0 1
    outer loop
      vertex 109.132 -69.3344 2
      vertex 108 -78.5 2
      vertex 109.132 -71.1656 2
    endloop
  endfacet
  facet normal -0 0 1
    outer loop
      vertex 156.5 -38 2
      vertex 166 -46 2
      vertex 166 -28 2
    endloop
  endfacet
  facet normal 0 0 1
    outer loop
      vertex 166 -46 2
      vertex 164.5 -70.25 2
      vertex 166 -78.5 2
    endloop
  endfacet
  facet normal 0 0 1
    outer loop
      vertex 166 -46 2
      vertex 163.984 -68.4929 2
      vertex 164.5 -70.25 2
    endloop
  endfacet
  facet normal 0 0 1
    outer loop
      vertex 156.5 -53 2
      vertex 166 -46 2
      vertex 156.5 -48 2
    endloop
  endfacet
  facet normal 0 0 1
    outer loop
      vertex 156.5 -58 2
      vertex 166 -46 2
      vertex 156.5 -53 2
    endloop
  endfacet
  facet normal 0 0 1
    outer loop
      vertex 166 -46 2
      vertex 156.5 -58 2
      vertex 162.6 -67.2937 2
    endloop
  endfacet
  facet normal -0 0 1
    outer loop
      vertex 156.5 -63 2
      vertex 162.6 -67.2937 2
      vertex 156.5 -58 2
    endloop
  endfacet
  facet normal 0 0 1
    outer loop
      vertex 156.5 -38 2
      vertex 166 -28 2
      vertex 156.5 -33 2
    endloop
  endfacet
  facet normal 0 0 1
    outer loop
      vertex 156.5 -33 2
      vertex 166 -28 2
      vertex 156.5 -28 2
    endloop
  endfacet
  facet normal -0 0 1
    outer loop
      vertex 163.984 -72.0071 2
      vertex 166 -78.5 2
      vertex 164.5 -70.25 2
    endloop
  endfacet
  facet normal -0 0 1
    outer loop
      vertex 162.6 -73.2063 2
      vertex 166 -78.5 2
      vertex 163.984 -72.0071 2
    endloop
  endfacet
  facet normal -0 0 1
    outer loop
      vertex 160.787 -73.4669 2
      vertex 166 -78.5 2
      vertex 162.6 -73.2063 2
    endloop
  endfacet
  facet normal 0 0 1
    outer loop
      vertex 156.5 -78 2
      vertex 160.787 -73.4669 2
      vertex 159.122 -72.7062 2
    endloop
  endfacet
  facet normal 0 0 1
    outer loop
      vertex 166 -46 2
      vertex 156.5 -38 2
      vertex 156.5 -43 2
    endloop
  endfacet
  facet normal 0 0 1
    outer loop
      vertex 166 -46 2
      vertex 156.5 -43 2
      vertex 156.5 -48 2
    endloop
  endfacet
  facet normal 0 0 1
    outer loop
      vertex 166 -46 2
      vertex 162.6 -67.2937 2
      vertex 163.984 -68.4929 2
    endloop
  endfacet
  facet normal 0 0 1
    outer loop
      vertex 162.6 -67.2937 2
      vertex 156.5 -63 2
      vertex 160.787 -67.0331 2
    endloop
  endfacet
  facet normal 0 0 1
    outer loop
      vertex 160.787 -67.0331 2
      vertex 156.5 -63 2
      vertex 159.122 -67.7938 2
    endloop
  endfacet
  facet normal 0 0 1
    outer loop
      vertex 156.5 -68 2
      vertex 159.122 -67.7938 2
      vertex 156.5 -63 2
    endloop
  endfacet
  facet normal 0 0 1
    outer loop
      vertex 159.122 -67.7938 2
      vertex 156.5 -68 2
      vertex 158.132 -69.3344 2
    endloop
  endfacet
  facet normal 0 0 1
    outer loop
      vertex 158.132 -69.3344 2
      vertex 156.5 -68 2
      vertex 158.132 -71.1656 2
    endloop
  endfacet
  facet normal 0 0 1
    outer loop
      vertex 156.5 -73 2
      vertex 158.132 -71.1656 2
      vertex 156.5 -68 2
    endloop
  endfacet
  facet normal 0 0 1
    outer loop
      vertex 156.5 -73 2
      vertex 159.122 -72.7062 2
      vertex 158.132 -71.1656 2
    endloop
  endfacet
  facet normal 0 0 1
    outer loop
      vertex 156.5 -78 2
      vertex 159.122 -72.7062 2
      vertex 156.5 -73 2
    endloop
  endfacet
  facet normal 0 0 1
    outer loop
      vertex 160.787 -73.4669 2
      vertex 156.5 -78 2
      vertex 166 -78.5 2
    endloop
  endfacet
  facet normal 0 0 1
    outer loop
      vertex 166 -78.5 2
      vertex 156.5 -78 2
      vertex 156.5 -78.5 2
    endloop
  endfacet
  facet normal -0 0 1
    outer loop
      vertex 128.7 -6 2
      vertex 144.7 -16 2
      vertex 144.7 -6 2
    endloop
  endfacet
  facet normal 0 0 1
    outer loop
      vertex 144.7 -16 2
      vertex 128.7 -6 2
      vertex 128.7 -16 2
    endloop
  endfacet
  facet normal 0 0 -1
    outer loop
      vertex 106 -78.5 0
      vertex 116.5 -78 0
      vertex 116.5 -78.5 0
    endloop
  endfacet
  facet normal -0 0 -1
    outer loop
      vertex 116.5 -78 0
      vertex 106 -78.5 0
      vertex 116.5 -73 0
    endloop
  endfacet
  facet normal -0 0 -1
    outer loop
      vertex 116.5 -73 0
      vertex 106 -78.5 0
      vertex 116.5 -68 0
    endloop
  endfacet
  facet normal -0 0 -1
    outer loop
      vertex 116.5 -68 0
      vertex 106 -78.5 0
      vertex 116.5 -63 0
    endloop
  endfacet
  facet normal -0 0 -1
    outer loop
      vertex 116.5 -63 0
      vertex 106 -78.5 0
      vertex 116.5 -58 0
    endloop
  endfacet
  facet normal -0 0 -1
    outer loop
      vertex 116.5 -58 0
      vertex 106 -78.5 0
      vertex 116.5 -53 0
    endloop
  endfacet
  facet normal -0 0 -1
    outer loop
      vertex 116.5 -53 0
      vertex 106 -78.5 0
      vertex 116.5 -48 0
    endloop
  endfacet
  facet normal -0 0 -1
    outer loop
      vertex 116.5 -48 0
      vertex 106 -78.5 0
      vertex 116.5 -43 0
    endloop
  endfacet
  facet normal 0 0 -1
    outer loop
      vertex 106 -6 0
      vertex 116.5 -43 0
      vertex 106 -78.5 0
    endloop
  endfacet
  facet normal 0 0 -1
    outer loop
      vertex 116.5 -43 0
      vertex 106 -6 0
      vertex 116.5 -38 0
    endloop
  endfacet
  facet normal 0 0 -1
    outer loop
      vertex 116.5 -38 0
      vertex 106 -6 0
      vertex 116.5 -33 0
    endloop
  endfacet
  facet normal 0 0 -1
    outer loop
      vertex 116.5 -33 0
      vertex 106 -6 0
      vertex 116.5 -28 0
    endloop
  endfacet
  facet normal 0 0 -1
    outer loop
      vertex 116.5 -28 0
      vertex 106 -6 0
      vertex 116.5 -23 0
    endloop
  endfacet
  facet normal 0 0 -1
    outer loop
      vertex 116.5 -28 0
      vertex 156.5 -23 0
      vertex 156.5 -28 0
    endloop
  endfacet
  facet normal -0 0 -1
    outer loop
      vertex 156.5 -23 0
      vertex 116.5 -28 0
      vertex 116.5 -23 0
    endloop
  endfacet
  facet normal 0 0 -1
    outer loop
      vertex 116.5 -38 0
      vertex 156.5 -33 0
      vertex 156.5 -38 0
    endloop
  endfacet
  facet normal -0 0 -1
    outer loop
      vertex 156.5 -33 0
      vertex 116.5 -38 0
      vertex 116.5 -33 0
    endloop
  endfacet
  facet normal 0 0 -1
    outer loop
      vertex 116.5 -48 0
      vertex 156.5 -43 0
      vertex 156.5 -48 0
    endloop
  endfacet
  facet normal -0 0 -1
    outer loop
      vertex 156.5 -43 0
      vertex 116.5 -48 0
      vertex 116.5 -43 0
    endloop
  endfacet
  facet normal 0 0 -1
    outer loop
      vertex 116.5 -58 0
      vertex 156.5 -53 0
      vertex 156.5 -58 0
    endloop
  endfacet
  facet normal -0 0 -1
    outer loop
      vertex 156.5 -53 0
      vertex 116.5 -58 0
      vertex 116.5 -53 0
    endloop
  endfacet
  facet normal 0 0 -1
    outer loop
      vertex 116.5 -68 0
      vertex 156.5 -63 0
      vertex 156.5 -68 0
    endloop
  endfacet
  facet normal -0 0 -1
    outer loop
      vertex 156.5 -63 0
      vertex 116.5 -68 0
      vertex 116.5 -63 0
    endloop
  endfacet
  facet normal 0 0 -1
    outer loop
      vertex 116.5 -78 0
      vertex 156.5 -73 0
      vertex 156.5 -78 0
    endloop
  endfacet
  facet normal -0 0 -1
    outer loop
      vertex 156.5 -73 0
      vertex 116.5 -78 0
      vertex 116.5 -73 0
    endloop
  endfacet
  facet normal 0 0 -1
    outer loop
      vertex 156.5 -63 0
      vertex 168 -46 0
      vertex 168 -78.5 0
    endloop
  endfacet
  facet normal 0 0 -1
    outer loop
      vertex 156.5 -48 0
      vertex 168 -46 0
      vertex 156.5 -53 0
    endloop
  endfacet
  facet normal 0 0 -1
    outer loop
      vertex 156.5 -78 0
      vertex 168 -78.5 0
      vertex 156.5 -78.5 0
    endloop
  endfacet
  facet normal 0 0 -1
    outer loop
      vertex 156.5 -73 0
      vertex 168 -78.5 0
      vertex 156.5 -78 0
    endloop
  endfacet
  facet normal 0 0 -1
    outer loop
      vertex 156.5 -68 0
      vertex 168 -78.5 0
      vertex 156.5 -73 0
    endloop
  endfacet
  facet normal 0 0 -1
    outer loop
      vertex 156.5 -63 0
      vertex 168 -78.5 0
      vertex 156.5 -68 0
    endloop
  endfacet
  facet normal 0 0 -1
    outer loop
      vertex 168 -46 0
      vertex 156.5 -63 0
      vertex 156.5 -58 0
    endloop
  endfacet
  facet normal 0 0 -1
    outer loop
      vertex 168 -46 0
      vertex 156.5 -58 0
      vertex 156.5 -53 0
    endloop
  endfacet
  facet normal 0 0 -1
    outer loop
      vertex 156.5 -43 0
      vertex 168 -46 0
      vertex 156.5 -48 0
    endloop
  endfacet
  facet normal 0 0 -1
    outer loop
      vertex 156.5 -38 0
      vertex 168 -46 0
      vertex 156.5 -43 0
    endloop
  endfacet
  facet normal 0 0 -1
    outer loop
      vertex 168 -46 0
      vertex 156.5 -38 0
      vertex 168 -26 0
    endloop
  endfacet
  facet normal 0 0 -1
    outer loop
      vertex 156.5 -33 0
      vertex 168 -26 0
      vertex 156.5 -38 0
    endloop
  endfacet
  facet normal 0 0 -1
    outer loop
      vertex 156.5 -28 0
      vertex 168 -26 0
      vertex 156.5 -33 0
    endloop
  endfacet
  facet normal 0 0 -1
    outer loop
      vertex 156.5 -23 0
      vertex 168 -26 0
      vertex 156.5 -28 0
    endloop
  endfacet
  facet normal 0 0 -1
    outer loop
      vertex 156.5 -18 0
      vertex 168 -26 0
      vertex 156.5 -23 0
    endloop
  endfacet
  facet normal 0 0 -1
    outer loop
      vertex 168 -26 0
      vertex 156.5 -18 0
      vertex 168 -6 0
    endloop
  endfacet
  facet normal 0 0 -1
    outer loop
      vertex 106 -6 0
      vertex 156.5 -18 0
      vertex 116.5 -18 0
    endloop
  endfacet
  facet normal 0 0 -1
    outer loop
      vertex 156.5 -18 0
      vertex 106 -6 0
      vertex 168 -6 0
    endloop
  endfacet
  facet normal 0 0 -1
    outer loop
      vertex 116.5 -23 0
      vertex 106 -6 0
      vertex 116.5 -18 0
    endloop
  endfacet
  facet normal 0 0 -1
    outer loop
      vertex 196 -46 0
      vertex 188.35 -36 0
      vertex 196 -26 0
    endloop
  endfacet
  facet normal 0 0 -1
    outer loop
      vertex 196 -46 0
      vertex 188.299 -36.4886 0
      vertex 188.35 -36 0
    endloop
  endfacet
  facet normal 0 0 -1
    outer loop
      vertex 196 -46 0
      vertex 188.147 -36.9558 0
      vertex 188.299 -36.4886 0
    endloop
  endfacet
  facet normal 0 0 -1
    outer loop
      vertex 196 -46 0
      vertex 187.901 -37.3813 0
      vertex 188.147 -36.9558 0
    endloop
  endfacet
  facet normal 0 0 -1
    outer loop
      vertex 196 -46 0
      vertex 187.572 -37.7464 0
      vertex 187.901 -37.3813 0
    endloop
  endfacet
  facet normal 0 0 -1
    outer loop
      vertex 196 -46 0
      vertex 187.175 -38.0352 0
      vertex 187.572 -37.7464 0
    endloop
  endfacet
  facet normal 0 0 -1
    outer loop
      vertex 196 -46 0
      vertex 186.726 -38.235 0
      vertex 187.175 -38.0352 0
    endloop
  endfacet
  facet normal 0 0 -1
    outer loop
      vertex 196 -46 0
      vertex 186.246 -38.3371 0
      vertex 186.726 -38.235 0
    endloop
  endfacet
  facet normal 0 0 -1
    outer loop
      vertex 196 -46 0
      vertex 185.754 -38.3371 0
      vertex 186.246 -38.3371 0
    endloop
  endfacet
  facet normal 0 0 -1
    outer loop
      vertex 196 -46 0
      vertex 185.274 -38.235 0
      vertex 185.754 -38.3371 0
    endloop
  endfacet
  facet normal 0 0 -1
    outer loop
      vertex 168 -46 0
      vertex 185.274 -38.235 0
      vertex 196 -46 0
    endloop
  endfacet
  facet normal -0 0 -1
    outer loop
      vertex 183.701 -36.4886 0
      vertex 168 -46 0
      vertex 183.65 -36 0
    endloop
  endfacet
  facet normal -0 0 -1
    outer loop
      vertex 183.853 -36.9558 0
      vertex 168 -46 0
      vertex 183.701 -36.4886 0
    endloop
  endfacet
  facet normal -0 0 -1
    outer loop
      vertex 184.099 -37.3813 0
      vertex 168 -46 0
      vertex 183.853 -36.9558 0
    endloop
  endfacet
  facet normal -0 0 -1
    outer loop
      vertex 184.428 -37.7464 0
      vertex 168 -46 0
      vertex 184.099 -37.3813 0
    endloop
  endfacet
  facet normal -0 0 -1
    outer loop
      vertex 184.825 -38.0352 0
      vertex 168 -46 0
      vertex 184.428 -37.7464 0
    endloop
  endfacet
  facet normal -0 0 -1
    outer loop
      vertex 185.274 -38.235 0
      vertex 168 -46 0
      vertex 184.825 -38.0352 0
    endloop
  endfacet
  facet normal 0 0 -1
    outer loop
      vertex 188.299 -35.5114 0
      vertex 196 -26 0
      vertex 188.35 -36 0
    endloop
  endfacet
  facet normal 0 0 -1
    outer loop
      vertex 188.147 -35.0442 0
      vertex 196 -26 0
      vertex 188.299 -35.5114 0
    endloop
  endfacet
  facet normal 0 0 -1
    outer loop
      vertex 187.901 -34.6187 0
      vertex 196 -26 0
      vertex 188.147 -35.0442 0
    endloop
  endfacet
  facet normal 0 0 -1
    outer loop
      vertex 187.572 -34.2536 0
      vertex 196 -26 0
      vertex 187.901 -34.6187 0
    endloop
  endfacet
  facet normal 0 0 -1
    outer loop
      vertex 187.175 -33.9648 0
      vertex 196 -26 0
      vertex 187.572 -34.2536 0
    endloop
  endfacet
  facet normal 0 0 -1
    outer loop
      vertex 186.726 -33.765 0
      vertex 196 -26 0
      vertex 187.175 -33.9648 0
    endloop
  endfacet
  facet normal 0 0 -1
    outer loop
      vertex 186.246 -33.6629 0
      vertex 196 -26 0
      vertex 186.726 -33.765 0
    endloop
  endfacet
  facet normal 0 0 -1
    outer loop
      vertex 185.754 -33.6629 0
      vertex 196 -26 0
      vertex 186.246 -33.6629 0
    endloop
  endfacet
  facet normal 0 0 -1
    outer loop
      vertex 185.274 -33.765 0
      vertex 196 -26 0
      vertex 185.754 -33.6629 0
    endloop
  endfacet
  facet normal 0 0 -1
    outer loop
      vertex 168 -26 0
      vertex 185.274 -33.765 0
      vertex 184.825 -33.9648 0
    endloop
  endfacet
  facet normal 0 0 -1
    outer loop
      vertex 168 -26 0
      vertex 183.65 -36 0
      vertex 168 -46 0
    endloop
  endfacet
  facet normal 0 0 -1
    outer loop
      vertex 183.65 -36 0
      vertex 168 -26 0
      vertex 183.701 -35.5114 0
    endloop
  endfacet
  facet normal 0 0 -1
    outer loop
      vertex 183.701 -35.5114 0
      vertex 168 -26 0
      vertex 183.853 -35.0442 0
    endloop
  endfacet
  facet normal 0 0 -1
    outer loop
      vertex 183.853 -35.0442 0
      vertex 168 -26 0
      vertex 184.099 -34.6187 0
    endloop
  endfacet
  facet normal 0 0 -1
    outer loop
      vertex 184.099 -34.6187 0
      vertex 168 -26 0
      vertex 184.428 -34.2536 0
    endloop
  endfacet
  facet normal 0 0 -1
    outer loop
      vertex 185.274 -33.765 0
      vertex 168 -26 0
      vertex 196 -26 0
    endloop
  endfacet
  facet normal 0 0 -1
    outer loop
      vertex 184.428 -34.2536 0
      vertex 168 -26 0
      vertex 184.825 -33.9648 0
    endloop
  endfacet
  facet normal -1 0 0
    outer loop
      vertex 106 -78.5 0
      vertex 106 -6 2
      vertex 106 -6 0
    endloop
  endfacet
  facet normal -1 -0 0
    outer loop
      vertex 106 -6 2
      vertex 106 -78.5 0
      vertex 106 -78.5 2
    endloop
  endfacet
  facet normal 0 -1 0
    outer loop
      vertex 106 -78.5 0
      vertex 108 -78.5 2
      vertex 106 -78.5 2
    endloop
  endfacet
  facet normal 0 -1 0
    outer loop
      vertex 116.5 -78.5 0
      vertex 108 -78.5 2
      vertex 106 -78.5 0
    endloop
  endfacet
  facet normal 0 -1 0
    outer loop
      vertex 108 -78.5 2
      vertex 116.5 -78.5 0
      vertex 116.5 -78.5 2
    endloop
  endfacet
  facet normal 0 -1 0
    outer loop
      vertex 156.5 -78.5 0
      vertex 166 -78.5 2
      vertex 156.5 -78.5 2
    endloop
  endfacet
  facet normal 0 -1 0
    outer loop
      vertex 168 -78.5 0
      vertex 166 -78.5 2
      vertex 156.5 -78.5 0
    endloop
  endfacet
  facet normal 0 -1 0
    outer loop
      vertex 166 -78.5 2
      vertex 168 -78.5 0
      vertex 168 -78.5 2
    endloop
  endfacet
  facet normal 0 1 -0
    outer loop
      vertex 168 -6 0
      vertex 144.7 -6 2
      vertex 168 -6 2
    endloop
  endfacet
  facet normal 0 1 0
    outer loop
      vertex 144.7 -6 2
      vertex 168 -6 0
      vertex 128.7 -6 2
    endloop
  endfacet
  facet normal 0 1 0
    outer loop
      vertex 106 -6 0
      vertex 128.7 -6 2
      vertex 168 -6 0
    endloop
  endfacet
  facet normal 0 1 0
    outer loop
      vertex 128.7 -6 2
      vertex 106 -6 0
      vertex 106 -6 2
    endloop
  endfacet
  facet normal 1 -0 0
    outer loop
      vertex 196 -46 4
      vertex 196 -26 0
      vertex 196 -26 4
    endloop
  endfacet
  facet normal 1 0 0
    outer loop
      vertex 196 -26 0
      vertex 196 -46 4
      vertex 196 -46 0
    endloop
  endfacet
  facet normal 0 0 1
    outer loop
      vertex 196 -26 4
      vertex 188.35 -36 4
      vertex 196 -46 4
    endloop
  endfacet
  facet normal 0 0 1
    outer loop
      vertex 196 -26 4
      vertex 188.299 -35.5114 4
      vertex 188.35 -36 4
    endloop
  endfacet
  facet normal 0 0 1
    outer loop
      vertex 196 -26 4
      vertex 188.147 -35.0442 4
      vertex 188.299 -35.5114 4
    endloop
  endfacet
  facet normal 0 0 1
    outer loop
      vertex 196 -26 4
      vertex 187.901 -34.6187 4
      vertex 188.147 -35.0442 4
    endloop
  endfacet
  facet normal 0 0 1
    outer loop
      vertex 196 -26 4
      vertex 187.572 -34.2536 4
      vertex 187.901 -34.6187 4
    endloop
  endfacet
  facet normal 0 0 1
    outer loop
      vertex 196 -26 4
      vertex 187.175 -33.9648 4
      vertex 187.572 -34.2536 4
    endloop
  endfacet
  facet normal 0 0 1
    outer loop
      vertex 196 -26 4
      vertex 186.726 -33.765 4
      vertex 187.175 -33.9648 4
    endloop
  endfacet
  facet normal 0 0 1
    outer loop
      vertex 196 -26 4
      vertex 186.246 -33.6629 4
      vertex 186.726 -33.765 4
    endloop
  endfacet
  facet normal 0 0 1
    outer loop
      vertex 196 -26 4
      vertex 185.754 -33.6629 4
      vertex 186.246 -33.6629 4
    endloop
  endfacet
  facet normal 0 0 1
    outer loop
      vertex 196 -26 4
      vertex 185.274 -33.765 4
      vertex 185.754 -33.6629 4
    endloop
  endfacet
  facet normal -0 0 1
    outer loop
      vertex 166 -26 4
      vertex 185.274 -33.765 4
      vertex 196 -26 4
    endloop
  endfacet
  facet normal 0 0 1
    outer loop
      vertex 183.853 -35.0442 4
      vertex 166 -28 4
      vertex 183.701 -35.5114 4
    endloop
  endfacet
  facet normal 0 0 1
    outer loop
      vertex 184.099 -34.6187 4
      vertex 166 -28 4
      vertex 183.853 -35.0442 4
    endloop
  endfacet
  facet normal 0 0 1
    outer loop
      vertex 184.428 -34.2536 4
      vertex 166 -28 4
      vertex 184.099 -34.6187 4
    endloop
  endfacet
  facet normal -0 0 1
    outer loop
      vertex 166 -28 4
      vertex 184.428 -34.2536 4
      vertex 166 -26 4
    endloop
  endfacet
  facet normal 0 0 1
    outer loop
      vertex 184.825 -33.9648 4
      vertex 166 -26 4
      vertex 184.428 -34.2536 4
    endloop
  endfacet
  facet normal 0 0 1
    outer loop
      vertex 185.274 -33.765 4
      vertex 166 -26 4
      vertex 184.825 -33.9648 4
    endloop
  endfacet
  facet normal -0 0 1
    outer loop
      vertex 188.299 -36.4886 4
      vertex 196 -46 4
      vertex 188.35 -36 4
    endloop
  endfacet
  facet normal -0 0 1
    outer loop
      vertex 188.147 -36.9558 4
      vertex 196 -46 4
      vertex 188.299 -36.4886 4
    endloop
  endfacet
  facet normal -0 0 1
    outer loop
      vertex 187.901 -37.3813 4
      vertex 196 -46 4
      vertex 188.147 -36.9558 4
    endloop
  endfacet
  facet normal -0 0 1
    outer loop
      vertex 187.572 -37.7464 4
      vertex 196 -46 4
      vertex 187.901 -37.3813 4
    endloop
  endfacet
  facet normal -0 0 1
    outer loop
      vertex 187.175 -38.0352 4
      vertex 196 -46 4
      vertex 187.572 -37.7464 4
    endloop
  endfacet
  facet normal -0 0 1
    outer loop
      vertex 186.726 -38.235 4
      vertex 196 -46 4
      vertex 187.175 -38.0352 4
    endloop
  endfacet
  facet normal -0 0 1
    outer loop
      vertex 186.246 -38.3371 4
      vertex 196 -46 4
      vertex 186.726 -38.235 4
    endloop
  endfacet
  facet normal -0 0 1
    outer loop
      vertex 185.754 -38.3371 4
      vertex 196 -46 4
      vertex 186.246 -38.3371 4
    endloop
  endfacet
  facet normal 0 0 1
    outer loop
      vertex 185.274 -38.235 4
      vertex 196 -46 4
      vertex 185.754 -38.3371 4
    endloop
  endfacet
  facet normal 0 0 1
    outer loop
      vertex 166 -46 4
      vertex 185.274 -38.235 4
      vertex 184.825 -38.0352 4
    endloop
  endfacet
  facet normal 0 0 1
    outer loop
      vertex 183.701 -35.5114 4
      vertex 166 -28 4
      vertex 183.65 -36 4
    endloop
  endfacet
  facet normal 0 0 1
    outer loop
      vertex 166 -46 4
      vertex 183.65 -36 4
      vertex 166 -28 4
    endloop
  endfacet
  facet normal 0 0 1
    outer loop
      vertex 183.65 -36 4
      vertex 166 -46 4
      vertex 183.701 -36.4886 4
    endloop
  endfacet
  facet normal 0 0 1
    outer loop
      vertex 183.701 -36.4886 4
      vertex 166 -46 4
      vertex 183.853 -36.9558 4
    endloop
  endfacet
  facet normal 0 0 1
    outer loop
      vertex 183.853 -36.9558 4
      vertex 166 -46 4
      vertex 184.099 -37.3813 4
    endloop
  endfacet
  facet normal 0 0 1
    outer loop
      vertex 184.099 -37.3813 4
      vertex 166 -46 4
      vertex 184.428 -37.7464 4
    endloop
  endfacet
  facet normal 0 0 1
    outer loop
      vertex 184.428 -37.7464 4
      vertex 166 -46 4
      vertex 184.825 -38.0352 4
    endloop
  endfacet
  facet normal 0 0 1
    outer loop
      vertex 185.274 -38.235 4
      vertex 166 -46 4
      vertex 196 -46 4
    endloop
  endfacet
  facet normal -1 0 0
    outer loop
      vertex 166 -46 2
      vertex 166 -28 4
      vertex 166 -28 2
    endloop
  endfacet
  facet normal -1 -0 0
    outer loop
      vertex 166 -28 4
      vertex 166 -46 2
      vertex 166 -46 4
    endloop
  endfacet
  facet normal -1 0 0
    outer loop
      vertex 166 -28 2
      vertex 166 -26 4
      vertex 166 -26 2
    endloop
  endfacet
  facet normal -1 -0 0
    outer loop
      vertex 166 -26 4
      vertex 166 -28 2
      vertex 166 -28 4
    endloop
  endfacet
  facet normal 0 -1 0
    outer loop
      vertex 168 -46 2
      vertex 166 -46 4
      vertex 166 -46 2
    endloop
  endfacet
  facet normal 0 -1 0
    outer loop
      vertex 166 -46 4
      vertex 168 -46 2
      vertex 196 -46 4
    endloop
  endfacet
  facet normal 0 -1 0
    outer loop
      vertex 196 -46 0
      vertex 168 -46 2
      vertex 168 -46 0
    endloop
  endfacet
  facet normal 0 -1 0
    outer loop
      vertex 168 -46 2
      vertex 196 -46 0
      vertex 196 -46 4
    endloop
  endfacet
  facet normal 0 1 0
    outer loop
      vertex 196 -26 4
      vertex 168 -26 2
      vertex 166 -26 4
    endloop
  endfacet
  facet normal 0 1 -0
    outer loop
      vertex 196 -26 0
      vertex 168 -26 2
      vertex 196 -26 4
    endloop
  endfacet
  facet normal 0 1 0
    outer loop
      vertex 168 -26 2
      vertex 196 -26 0
      vertex 168 -26 0
    endloop
  endfacet
  facet normal 0 1 0
    outer loop
      vertex 166 -26 4
      vertex 168 -26 2
      vertex 166 -26 2
    endloop
  endfacet
  facet normal -1 0 0
    outer loop
      vertex 156.5 -23 0
      vertex 156.5 -18 2
      vertex 156.5 -18 0
    endloop
  endfacet
  facet normal -1 -0 0
    outer loop
      vertex 156.5 -18 2
      vertex 156.5 -23 0
      vertex 156.5 -23 2
    endloop
  endfacet
  facet normal 1 -0 0
    outer loop
      vertex 116.5 -23 2
      vertex 116.5 -18 0
      vertex 116.5 -18 2
    endloop
  endfacet
  facet normal 1 0 0
    outer loop
      vertex 116.5 -18 0
      vertex 116.5 -23 2
      vertex 116.5 -23 0
    endloop
  endfacet
  facet normal 0 1 -0
    outer loop
      vertex 156.5 -23 0
      vertex 116.5 -23 2
      vertex 156.5 -23 2
    endloop
  endfacet
  facet normal 0 1 0
    outer loop
      vertex 116.5 -23 2
      vertex 156.5 -23 0
      vertex 116.5 -23 0
    endloop
  endfacet
  facet normal 0 -1 0
    outer loop
      vertex 116.5 -18 0
      vertex 156.5 -18 2
      vertex 116.5 -18 2
    endloop
  endfacet
  facet normal 0 -1 -0
    outer loop
      vertex 156.5 -18 2
      vertex 116.5 -18 0
      vertex 156.5 -18 0
    endloop
  endfacet
  facet normal -1 0 0
    outer loop
      vertex 156.5 -33 0
      vertex 156.5 -28 2
      vertex 156.5 -28 0
    endloop
  endfacet
  facet normal -1 -0 0
    outer loop
      vertex 156.5 -28 2
      vertex 156.5 -33 0
      vertex 156.5 -33 2
    endloop
  endfacet
  facet normal 1 -0 0
    outer loop
      vertex 116.5 -33 2
      vertex 116.5 -28 0
      vertex 116.5 -28 2
    endloop
  endfacet
  facet normal 1 0 0
    outer loop
      vertex 116.5 -28 0
      vertex 116.5 -33 2
      vertex 116.5 -33 0
    endloop
  endfacet
  facet normal 0 1 -0
    outer loop
      vertex 156.5 -33 0
      vertex 116.5 -33 2
      vertex 156.5 -33 2
    endloop
  endfacet
  facet normal 0 1 0
    outer loop
      vertex 116.5 -33 2
      vertex 156.5 -33 0
      vertex 116.5 -33 0
    endloop
  endfacet
  facet normal 0 -1 0
    outer loop
      vertex 116.5 -28 0
      vertex 156.5 -28 2
      vertex 116.5 -28 2
    endloop
  endfacet
  facet normal 0 -1 -0
    outer loop
      vertex 156.5 -28 2
      vertex 116.5 -28 0
      vertex 156.5 -28 0
    endloop
  endfacet
  facet normal -1 0 0
    outer loop
      vertex 156.5 -43 0
      vertex 156.5 -38 2
      vertex 156.5 -38 0
    endloop
  endfacet
  facet normal -1 -0 0
    outer loop
      vertex 156.5 -38 2
      vertex 156.5 -43 0
      vertex 156.5 -43 2
    endloop
  endfacet
  facet normal 1 -0 0
    outer loop
      vertex 116.5 -43 2
      vertex 116.5 -38 0
      vertex 116.5 -38 2
    endloop
  endfacet
  facet normal 1 0 0
    outer loop
      vertex 116.5 -38 0
      vertex 116.5 -43 2
      vertex 116.5 -43 0
    endloop
  endfacet
  facet normal 0 1 -0
    outer loop
      vertex 156.5 -43 0
      vertex 116.5 -43 2
      vertex 156.5 -43 2
    endloop
  endfacet
  facet normal 0 1 0
    outer loop
      vertex 116.5 -43 2
      vertex 156.5 -43 0
      vertex 116.5 -43 0
    endloop
  endfacet
  facet normal 0 -1 0
    outer loop
      vertex 116.5 -38 0
      vertex 156.5 -38 2
      vertex 116.5 -38 2
    endloop
  endfacet
  facet normal 0 -1 -0
    outer loop
      vertex 156.5 -38 2
      vertex 116.5 -38 0
      vertex 156.5 -38 0
    endloop
  endfacet
  facet normal -1 0 0
    outer loop
      vertex 156.5 -53 0
      vertex 156.5 -48 2
      vertex 156.5 -48 0
    endloop
  endfacet
  facet normal -1 -0 0
    outer loop
      vertex 156.5 -48 2
      vertex 156.5 -53 0
      vertex 156.5 -53 2
    endloop
  endfacet
  facet normal 1 -0 0
    outer loop
      vertex 116.5 -53 2
      vertex 116.5 -48 0
      vertex 116.5 -48 2
    endloop
  endfacet
  facet normal 1 0 0
    outer loop
      vertex 116.5 -48 0
      vertex 116.5 -53 2
      vertex 116.5 -53 0
    endloop
  endfacet
  facet normal 0 1 -0
    outer loop
      vertex 156.5 -53 0
      vertex 116.5 -53 2
      vertex 156.5 -53 2
    endloop
  endfacet
  facet normal 0 1 0
    outer loop
      vertex 116.5 -53 2
      vertex 156.5 -53 0
      vertex 116.5 -53 0
    endloop
  endfacet
  facet normal 0 -1 0
    outer loop
      vertex 116.5 -48 0
      vertex 156.5 -48 2
      vertex 116.5 -48 2
    endloop
  endfacet
  facet normal 0 -1 -0
    outer loop
      vertex 156.5 -48 2
      vertex 116.5 -48 0
      vertex 156.5 -48 0
    endloop
  endfacet
  facet normal -1 0 0
    outer loop
      vertex 156.5 -63 0
      vertex 156.5 -58 2
      vertex 156.5 -58 0
    endloop
  endfacet
  facet normal -1 -0 0
    outer loop
      vertex 156.5 -58 2
      vertex 156.5 -63 0
      vertex 156.5 -63 2
    endloop
  endfacet
  facet normal 1 -0 0
    outer loop
      vertex 116.5 -63 2
      vertex 116.5 -58 0
      vertex 116.5 -58 2
    endloop
  endfacet
  facet normal 1 0 0
    outer loop
      vertex 116.5 -58 0
      vertex 116.5 -63 2
      vertex 116.5 -63 0
    endloop
  endfacet
  facet normal 0 1 -0
    outer loop
      vertex 156.5 -63 0
      vertex 116.5 -63 2
      vertex 156.5 -63 2
    endloop
  endfacet
  facet normal 0 1 0
    outer loop
      vertex 116.5 -63 2
      vertex 156.5 -63 0
      vertex 116.5 -63 0
    endloop
  endfacet
  facet normal 0 -1 0
    outer loop
      vertex 116.5 -58 0
      vertex 156.5 -58 2
      vertex 116.5 -58 2
    endloop
  endfacet
  facet normal 0 -1 -0
    outer loop
      vertex 156.5 -58 2
      vertex 116.5 -58 0
      vertex 156.5 -58 0
    endloop
  endfacet
  facet normal -1 0 0
    outer loop
      vertex 156.5 -73 0
      vertex 156.5 -68 2
      vertex 156.5 -68 0
    endloop
  endfacet
  facet normal -1 -0 0
    outer loop
      vertex 156.5 -68 2
      vertex 156.5 -73 0
      vertex 156.5 -73 2
    endloop
  endfacet
  facet normal 1 -0 0
    outer loop
      vertex 116.5 -73 2
      vertex 116.5 -68 0
      vertex 116.5 -68 2
    endloop
  endfacet
  facet normal 1 0 0
    outer loop
      vertex 116.5 -68 0
      vertex 116.5 -73 2
      vertex 116.5 -73 0
    endloop
  endfacet
  facet normal 0 1 -0
    outer loop
      vertex 156.5 -73 0
      vertex 116.5 -73 2
      vertex 156.5 -73 2
    endloop
  endfacet
  facet normal 0 1 0
    outer loop
      vertex 116.5 -73 2
      vertex 156.5 -73 0
      vertex 116.5 -73 0
    endloop
  endfacet
  facet normal 0 -1 0
    outer loop
      vertex 116.5 -68 0
      vertex 156.5 -68 2
      vertex 116.5 -68 2
    endloop
  endfacet
  facet normal 0 -1 -0
    outer loop
      vertex 156.5 -68 2
      vertex 116.5 -68 0
      vertex 156.5 -68 0
    endloop
  endfacet
  facet normal -1 0 0
    outer loop
      vertex 156.5 -78.5 0
      vertex 156.5 -78 2
      vertex 156.5 -78 0
    endloop
  endfacet
  facet normal -1 -0 0
    outer loop
      vertex 156.5 -78 2
      vertex 156.5 -78.5 0
      vertex 156.5 -78.5 2
    endloop
  endfacet
  facet normal 1 -0 0
    outer loop
      vertex 116.5 -78.5 2
      vertex 116.5 -78 0
      vertex 116.5 -78 2
    endloop
  endfacet
  facet normal 1 0 0
    outer loop
      vertex 116.5 -78 0
      vertex 116.5 -78.5 2
      vertex 116.5 -78.5 0
    endloop
  endfacet
  facet normal 0 -1 0
    outer loop
      vertex 116.5 -78 0
      vertex 156.5 -78 2
      vertex 116.5 -78 2
    endloop
  endfacet
  facet normal 0 -1 -0
    outer loop
      vertex 156.5 -78 2
      vertex 116.5 -78 0
      vertex 156.5 -78 0
    endloop
  endfacet
  facet normal -0.950938 0.309381 0
    outer loop
      vertex 188.147 -36.9558 0
      vertex 188.299 -36.4886 4
      vertex 188.299 -36.4886 0
    endloop
  endfacet
  facet normal -0.950938 0.309381 0
    outer loop
      vertex 188.299 -36.4886 4
      vertex 188.147 -36.9558 0
      vertex 188.147 -36.9558 4
    endloop
  endfacet
  facet normal -0.994597 0.103816 0
    outer loop
      vertex 188.299 -36.4886 0
      vertex 188.35 -36 4
      vertex 188.35 -36 0
    endloop
  endfacet
  facet normal -0.994597 0.103816 0
    outer loop
      vertex 188.35 -36 4
      vertex 188.299 -36.4886 0
      vertex 188.299 -36.4886 4
    endloop
  endfacet
  facet normal -0.865728 0.500515 0
    outer loop
      vertex 187.901 -37.3813 0
      vertex 188.147 -36.9558 4
      vertex 188.147 -36.9558 0
    endloop
  endfacet
  facet normal -0.865728 0.500515 0
    outer loop
      vertex 188.147 -36.9558 4
      vertex 187.901 -37.3813 0
      vertex 187.901 -37.3813 4
    endloop
  endfacet
  facet normal -0.950938 -0.309381 0
    outer loop
      vertex 188.299 -35.5114 0
      vertex 188.147 -35.0442 4
      vertex 188.147 -35.0442 0
    endloop
  endfacet
  facet normal -0.950938 -0.309381 0
    outer loop
      vertex 188.147 -35.0442 4
      vertex 188.299 -35.5114 0
      vertex 188.299 -35.5114 4
    endloop
  endfacet
  facet normal -0.406554 -0.913627 0
    outer loop
      vertex 186.726 -33.765 0
      vertex 187.175 -33.9648 4
      vertex 186.726 -33.765 4
    endloop
  endfacet
  facet normal -0.406554 -0.913627 -0
    outer loop
      vertex 187.175 -33.9648 4
      vertex 186.726 -33.765 0
      vertex 187.175 -33.9648 0
    endloop
  endfacet
  facet normal 0.994597 0.103816 0
    outer loop
      vertex 183.701 -36.4886 4
      vertex 183.65 -36 0
      vertex 183.65 -36 4
    endloop
  endfacet
  facet normal 0.994597 0.103816 0
    outer loop
      vertex 183.65 -36 0
      vertex 183.701 -36.4886 4
      vertex 183.701 -36.4886 0
    endloop
  endfacet
  facet normal 0.406554 -0.913627 0
    outer loop
      vertex 184.825 -33.9648 0
      vertex 185.274 -33.765 4
      vertex 184.825 -33.9648 4
    endloop
  endfacet
  facet normal 0.406554 -0.913627 0
    outer loop
      vertex 185.274 -33.765 4
      vertex 184.825 -33.9648 0
      vertex 185.274 -33.765 0
    endloop
  endfacet
  facet normal -0.994597 -0.103816 0
    outer loop
      vertex 188.35 -36 0
      vertex 188.299 -35.5114 4
      vertex 188.299 -35.5114 0
    endloop
  endfacet
  facet normal -0.994597 -0.103816 0
    outer loop
      vertex 188.299 -35.5114 4
      vertex 188.35 -36 0
      vertex 188.35 -36 4
    endloop
  endfacet
  facet normal -0.208054 -0.978117 0
    outer loop
      vertex 186.246 -33.6629 0
      vertex 186.726 -33.765 4
      vertex 186.246 -33.6629 4
    endloop
  endfacet
  facet normal -0.208054 -0.978117 -0
    outer loop
      vertex 186.726 -33.765 4
      vertex 186.246 -33.6629 0
      vertex 186.726 -33.765 0
    endloop
  endfacet
  facet normal 0.588269 0.808666 -0
    outer loop
      vertex 184.825 -38.0352 0
      vertex 184.428 -37.7464 4
      vertex 184.825 -38.0352 4
    endloop
  endfacet
  facet normal 0.588269 0.808666 0
    outer loop
      vertex 184.428 -37.7464 4
      vertex 184.825 -38.0352 0
      vertex 184.428 -37.7464 0
    endloop
  endfacet
  facet normal -0.742879 0.669426 0
    outer loop
      vertex 187.572 -37.7464 0
      vertex 187.901 -37.3813 4
      vertex 187.901 -37.3813 0
    endloop
  endfacet
  facet normal -0.742879 0.669426 0
    outer loop
      vertex 187.901 -37.3813 4
      vertex 187.572 -37.7464 0
      vertex 187.572 -37.7464 4
    endloop
  endfacet
  facet normal 0.950938 0.309381 0
    outer loop
      vertex 183.853 -36.9558 4
      vertex 183.701 -36.4886 0
      vertex 183.701 -36.4886 4
    endloop
  endfacet
  facet normal 0.950938 0.309381 0
    outer loop
      vertex 183.701 -36.4886 0
      vertex 183.853 -36.9558 4
      vertex 183.853 -36.9558 0
    endloop
  endfacet
  facet normal 0.950938 -0.309381 0
    outer loop
      vertex 183.701 -35.5114 4
      vertex 183.853 -35.0442 0
      vertex 183.853 -35.0442 4
    endloop
  endfacet
  facet normal 0.950938 -0.309381 0
    outer loop
      vertex 183.853 -35.0442 0
      vertex 183.701 -35.5114 4
      vertex 183.701 -35.5114 0
    endloop
  endfacet
  facet normal 0.742879 -0.669426 0
    outer loop
      vertex 184.099 -34.6187 4
      vertex 184.428 -34.2536 0
      vertex 184.428 -34.2536 4
    endloop
  endfacet
  facet normal 0.742879 -0.669426 0
    outer loop
      vertex 184.428 -34.2536 0
      vertex 184.099 -34.6187 4
      vertex 184.099 -34.6187 0
    endloop
  endfacet
  facet normal -0.208054 0.978117 0
    outer loop
      vertex 186.726 -38.235 0
      vertex 186.246 -38.3371 4
      vertex 186.726 -38.235 4
    endloop
  endfacet
  facet normal -0.208054 0.978117 0
    outer loop
      vertex 186.246 -38.3371 4
      vertex 186.726 -38.235 0
      vertex 186.246 -38.3371 0
    endloop
  endfacet
  facet normal 0.406554 0.913627 -0
    outer loop
      vertex 185.274 -38.235 0
      vertex 184.825 -38.0352 4
      vertex 185.274 -38.235 4
    endloop
  endfacet
  facet normal 0.406554 0.913627 0
    outer loop
      vertex 184.825 -38.0352 4
      vertex 185.274 -38.235 0
      vertex 184.825 -38.0352 0
    endloop
  endfacet
  facet normal 0 -1 0
    outer loop
      vertex 185.754 -33.6629 0
      vertex 186.246 -33.6629 4
      vertex 185.754 -33.6629 4
    endloop
  endfacet
  facet normal 0 -1 -0
    outer loop
      vertex 186.246 -33.6629 4
      vertex 185.754 -33.6629 0
      vertex 186.246 -33.6629 0
    endloop
  endfacet
  facet normal 0.994597 -0.103816 0
    outer loop
      vertex 183.65 -36 4
      vertex 183.701 -35.5114 0
      vertex 183.701 -35.5114 4
    endloop
  endfacet
  facet normal 0.994597 -0.103816 0
    outer loop
      vertex 183.701 -35.5114 0
      vertex 183.65 -36 4
      vertex 183.65 -36 0
    endloop
  endfacet
  facet normal -0.742879 -0.669426 0
    outer loop
      vertex 187.901 -34.6187 0
      vertex 187.572 -34.2536 4
      vertex 187.572 -34.2536 0
    endloop
  endfacet
  facet normal -0.742879 -0.669426 0
    outer loop
      vertex 187.572 -34.2536 4
      vertex 187.901 -34.6187 0
      vertex 187.901 -34.6187 4
    endloop
  endfacet
  facet normal 0.208054 0.978117 -0
    outer loop
      vertex 185.754 -38.3371 0
      vertex 185.274 -38.235 4
      vertex 185.754 -38.3371 4
    endloop
  endfacet
  facet normal 0.208054 0.978117 0
    outer loop
      vertex 185.274 -38.235 4
      vertex 185.754 -38.3371 0
      vertex 185.274 -38.235 0
    endloop
  endfacet
  facet normal 0.865728 -0.500515 0
    outer loop
      vertex 183.853 -35.0442 4
      vertex 184.099 -34.6187 0
      vertex 184.099 -34.6187 4
    endloop
  endfacet
  facet normal 0.865728 -0.500515 0
    outer loop
      vertex 184.099 -34.6187 0
      vertex 183.853 -35.0442 4
      vertex 183.853 -35.0442 0
    endloop
  endfacet
  facet normal -0.865728 -0.500515 0
    outer loop
      vertex 188.147 -35.0442 0
      vertex 187.901 -34.6187 4
      vertex 187.901 -34.6187 0
    endloop
  endfacet
  facet normal -0.865728 -0.500515 0
    outer loop
      vertex 187.901 -34.6187 4
      vertex 188.147 -35.0442 0
      vertex 188.147 -35.0442 4
    endloop
  endfacet
  facet normal -0.588269 0.808666 0
    outer loop
      vertex 187.572 -37.7464 0
      vertex 187.175 -38.0352 4
      vertex 187.572 -37.7464 4
    endloop
  endfacet
  facet normal -0.588269 0.808666 0
    outer loop
      vertex 187.175 -38.0352 4
      vertex 187.572 -37.7464 0
      vertex 187.175 -38.0352 0
    endloop
  endfacet
  facet normal 0 1 -0
    outer loop
      vertex 186.246 -38.3371 0
      vertex 185.754 -38.3371 4
      vertex 186.246 -38.3371 4
    endloop
  endfacet
  facet normal 0 1 0
    outer loop
      vertex 185.754 -38.3371 4
      vertex 186.246 -38.3371 0
      vertex 185.754 -38.3371 0
    endloop
  endfacet
  facet normal -0.406554 0.913627 0
    outer loop
      vertex 187.175 -38.0352 0
      vertex 186.726 -38.235 4
      vertex 187.175 -38.0352 4
    endloop
  endfacet
  facet normal -0.406554 0.913627 0
    outer loop
      vertex 186.726 -38.235 4
      vertex 187.175 -38.0352 0
      vertex 186.726 -38.235 0
    endloop
  endfacet
  facet normal 0.208054 -0.978117 0
    outer loop
      vertex 185.274 -33.765 0
      vertex 185.754 -33.6629 4
      vertex 185.274 -33.765 4
    endloop
  endfacet
  facet normal 0.208054 -0.978117 0
    outer loop
      vertex 185.754 -33.6629 4
      vertex 185.274 -33.765 0
      vertex 185.754 -33.6629 0
    endloop
  endfacet
  facet normal -0.588269 -0.808666 0
    outer loop
      vertex 187.175 -33.9648 0
      vertex 187.572 -34.2536 4
      vertex 187.175 -33.9648 4
    endloop
  endfacet
  facet normal -0.588269 -0.808666 -0
    outer loop
      vertex 187.572 -34.2536 4
      vertex 187.175 -33.9648 0
      vertex 187.572 -34.2536 0
    endloop
  endfacet
  facet normal 0.742879 0.669426 0
    outer loop
      vertex 184.428 -37.7464 4
      vertex 184.099 -37.3813 0
      vertex 184.099 -37.3813 4
    endloop
  endfacet
  facet normal 0.742879 0.669426 0
    outer loop
      vertex 184.099 -37.3813 0
      vertex 184.428 -37.7464 4
      vertex 184.428 -37.7464 0
    endloop
  endfacet
  facet normal 0.588269 -0.808666 0
    outer loop
      vertex 184.428 -34.2536 0
      vertex 184.825 -33.9648 4
      vertex 184.428 -34.2536 4
    endloop
  endfacet
  facet normal 0.588269 -0.808666 0
    outer loop
      vertex 184.825 -33.9648 4
      vertex 184.428 -34.2536 0
      vertex 184.825 -33.9648 0
    endloop
  endfacet
  facet normal 0.865728 0.500515 0
    outer loop
      vertex 184.099 -37.3813 4
      vertex 183.853 -36.9558 0
      vertex 183.853 -36.9558 4
    endloop
  endfacet
  facet normal 0.865728 0.500515 0
    outer loop
      vertex 183.853 -36.9558 0
      vertex 184.099 -37.3813 4
      vertex 184.099 -37.3813 0
    endloop
  endfacet
  facet normal -0.841273 0.540611 0
    outer loop
      vertex 109.132 -11.3344 2
      vertex 110.122 -9.79381 6
      vertex 110.122 -9.79381 2
    endloop
  endfacet
  facet normal -0.841273 0.540611 0
    outer loop
      vertex 110.122 -9.79381 6
      vertex 109.132 -11.3344 2
      vertex 109.132 -11.3344 6
    endloop
  endfacet
  facet normal 0.654847 -0.755761 0
    outer loop
      vertex 113.6 -15.2063 2
      vertex 114.984 -14.0071 6
      vertex 113.6 -15.2063 6
    endloop
  endfacet
  facet normal 0.654847 -0.755761 0
    outer loop
      vertex 114.984 -14.0071 6
      vertex 113.6 -15.2063 2
      vertex 114.984 -14.0071 2
    endloop
  endfacet
  facet normal 0.959483 -0.281767 0
    outer loop
      vertex 114.984 -14.0071 6
      vertex 115.5 -12.25 2
      vertex 115.5 -12.25 6
    endloop
  endfacet
  facet normal 0.959483 -0.281767 0
    outer loop
      vertex 115.5 -12.25 2
      vertex 114.984 -14.0071 6
      vertex 114.984 -14.0071 2
    endloop
  endfacet
  facet normal 0.142277 -0.989827 0
    outer loop
      vertex 111.787 -15.4669 2
      vertex 113.6 -15.2063 6
      vertex 111.787 -15.4669 6
    endloop
  endfacet
  facet normal 0.142277 -0.989827 0
    outer loop
      vertex 113.6 -15.2063 6
      vertex 111.787 -15.4669 2
      vertex 113.6 -15.2063 2
    endloop
  endfacet
  facet normal 0.654847 0.755761 -0
    outer loop
      vertex 114.984 -10.4929 2
      vertex 113.6 -9.2937 6
      vertex 114.984 -10.4929 6
    endloop
  endfacet
  facet normal 0.654847 0.755761 0
    outer loop
      vertex 113.6 -9.2937 6
      vertex 114.984 -10.4929 2
      vertex 113.6 -9.2937 2
    endloop
  endfacet
  facet normal -1 0 0
    outer loop
      vertex 109.132 -13.1656 2
      vertex 109.132 -11.3344 6
      vertex 109.132 -11.3344 2
    endloop
  endfacet
  facet normal -1 -0 0
    outer loop
      vertex 109.132 -11.3344 6
      vertex 109.132 -13.1656 2
      vertex 109.132 -13.1656 6
    endloop
  endfacet
  facet normal 0.959483 0.281767 0
    outer loop
      vertex 115.5 -12.25 6
      vertex 114.984 -10.4929 2
      vertex 114.984 -10.4929 6
    endloop
  endfacet
  facet normal 0.959483 0.281767 0
    outer loop
      vertex 114.984 -10.4929 2
      vertex 115.5 -12.25 6
      vertex 115.5 -12.25 2
    endloop
  endfacet
  facet normal 0 0 1
    outer loop
      vertex 113.25 -12.25 6
      vertex 115.5 -12.25 6
      vertex 114.984 -10.4929 6
    endloop
  endfacet
  facet normal 0 0 1
    outer loop
      vertex 112.559 -11.2989 6
      vertex 114.984 -10.4929 6
      vertex 113.6 -9.2937 6
    endloop
  endfacet
  facet normal 0 0 1
    outer loop
      vertex 115.5 -12.25 6
      vertex 113.25 -12.25 6
      vertex 114.984 -14.0071 6
    endloop
  endfacet
  facet normal -0 0 1
    outer loop
      vertex 112.559 -13.2011 6
      vertex 114.984 -14.0071 6
      vertex 113.25 -12.25 6
    endloop
  endfacet
  facet normal 0 0 1
    outer loop
      vertex 114.984 -10.4929 6
      vertex 112.559 -11.2989 6
      vertex 113.25 -12.25 6
    endloop
  endfacet
  facet normal 0 0 1
    outer loop
      vertex 111.787 -9.03308 6
      vertex 112.559 -11.2989 6
      vertex 113.6 -9.2937 6
    endloop
  endfacet
  facet normal 0 0 1
    outer loop
      vertex 111.787 -9.03308 6
      vertex 111.441 -11.6622 6
      vertex 112.559 -11.2989 6
    endloop
  endfacet
  facet normal -0 0 1
    outer loop
      vertex 109.132 -11.3344 6
      vertex 111.441 -11.6622 6
      vertex 110.122 -9.79381 6
    endloop
  endfacet
  facet normal -0 0 1
    outer loop
      vertex 110.122 -9.79381 6
      vertex 111.441 -11.6622 6
      vertex 111.787 -9.03308 6
    endloop
  endfacet
  facet normal 0 0 1
    outer loop
      vertex 114.984 -14.0071 6
      vertex 112.559 -13.2011 6
      vertex 113.6 -15.2063 6
    endloop
  endfacet
  facet normal 0 0 1
    outer loop
      vertex 112.559 -13.2011 6
      vertex 111.787 -15.4669 6
      vertex 113.6 -15.2063 6
    endloop
  endfacet
  facet normal 0 0 1
    outer loop
      vertex 111.441 -12.8378 6
      vertex 111.787 -15.4669 6
      vertex 112.559 -13.2011 6
    endloop
  endfacet
  facet normal 0 0 1
    outer loop
      vertex 111.441 -11.6622 6
      vertex 109.132 -11.3344 6
      vertex 111.441 -12.8378 6
    endloop
  endfacet
  facet normal 0 0 1
    outer loop
      vertex 111.441 -12.8378 6
      vertex 110.122 -14.7062 6
      vertex 111.787 -15.4669 6
    endloop
  endfacet
  facet normal 0 0 1
    outer loop
      vertex 109.132 -13.1656 6
      vertex 111.441 -12.8378 6
      vertex 109.132 -11.3344 6
    endloop
  endfacet
  facet normal 0 0 1
    outer loop
      vertex 111.441 -12.8378 6
      vertex 109.132 -13.1656 6
      vertex 110.122 -14.7062 6
    endloop
  endfacet
  facet normal -0.415573 0.90956 0
    outer loop
      vertex 111.787 -9.03308 2
      vertex 110.122 -9.79381 6
      vertex 111.787 -9.03308 6
    endloop
  endfacet
  facet normal -0.415573 0.90956 0
    outer loop
      vertex 110.122 -9.79381 6
      vertex 111.787 -9.03308 2
      vertex 110.122 -9.79381 2
    endloop
  endfacet
  facet normal 0.142288 0.989825 -0
    outer loop
      vertex 113.6 -9.2937 2
      vertex 111.787 -9.03308 6
      vertex 113.6 -9.2937 6
    endloop
  endfacet
  facet normal 0.142288 0.989825 0
    outer loop
      vertex 111.787 -9.03308 6
      vertex 113.6 -9.2937 2
      vertex 111.787 -9.03308 2
    endloop
  endfacet
  facet normal -0.41556 -0.909566 0
    outer loop
      vertex 110.122 -14.7062 2
      vertex 111.787 -15.4669 6
      vertex 110.122 -14.7062 6
    endloop
  endfacet
  facet normal -0.41556 -0.909566 -0
    outer loop
      vertex 111.787 -15.4669 6
      vertex 110.122 -14.7062 2
      vertex 111.787 -15.4669 2
    endloop
  endfacet
  facet normal -0.841274 -0.540609 0
    outer loop
      vertex 110.122 -14.7062 2
      vertex 109.132 -13.1656 6
      vertex 109.132 -13.1656 2
    endloop
  endfacet
  facet normal -0.841274 -0.540609 0
    outer loop
      vertex 109.132 -13.1656 6
      vertex 110.122 -14.7062 2
      vertex 110.122 -14.7062 6
    endloop
  endfacet
  facet normal 0.309048 -0.951047 0
    outer loop
      vertex 111.441 -11.6622 3
      vertex 112.559 -11.2989 6
      vertex 111.441 -11.6622 6
    endloop
  endfacet
  facet normal 0.309048 -0.951047 0
    outer loop
      vertex 112.559 -11.2989 6
      vertex 111.441 -11.6622 3
      vertex 112.559 -11.2989 3
    endloop
  endfacet
  facet normal 0.309048 0.951047 -0
    outer loop
      vertex 112.559 -13.2011 3
      vertex 111.441 -12.8378 6
      vertex 112.559 -13.2011 6
    endloop
  endfacet
  facet normal 0.309048 0.951047 0
    outer loop
      vertex 111.441 -12.8378 6
      vertex 112.559 -13.2011 3
      vertex 111.441 -12.8378 3
    endloop
  endfacet
  facet normal -0.809023 0.587777 0
    outer loop
      vertex 112.559 -13.2011 3
      vertex 113.25 -12.25 6
      vertex 113.25 -12.25 3
    endloop
  endfacet
  facet normal -0.809023 0.587777 0
    outer loop
      vertex 113.25 -12.25 6
      vertex 112.559 -13.2011 3
      vertex 112.559 -13.2011 6
    endloop
  endfacet
  facet normal 1 -0 0
    outer loop
      vertex 111.441 -12.8378 6
      vertex 111.441 -11.6622 3
      vertex 111.441 -11.6622 6
    endloop
  endfacet
  facet normal 1 0 0
    outer loop
      vertex 111.441 -11.6622 3
      vertex 111.441 -12.8378 6
      vertex 111.441 -12.8378 3
    endloop
  endfacet
  facet normal -0.809023 -0.587777 0
    outer loop
      vertex 113.25 -12.25 3
      vertex 112.559 -11.2989 6
      vertex 112.559 -11.2989 3
    endloop
  endfacet
  facet normal -0.809023 -0.587777 0
    outer loop
      vertex 112.559 -11.2989 6
      vertex 113.25 -12.25 3
      vertex 113.25 -12.25 6
    endloop
  endfacet
  facet normal 0 0 1
    outer loop
      vertex 112.559 -11.2989 3
      vertex 112.559 -13.2011 3
      vertex 113.25 -12.25 3
    endloop
  endfacet
  facet normal -0 0 1
    outer loop
      vertex 111.441 -11.6622 3
      vertex 112.559 -13.2011 3
      vertex 112.559 -11.2989 3
    endloop
  endfacet
  facet normal 0 0 1
    outer loop
      vertex 112.559 -13.2011 3
      vertex 111.441 -11.6622 3
      vertex 111.441 -12.8378 3
    endloop
  endfacet
  facet normal -0.841273 0.540611 0
    outer loop
      vertex 158.132 -11.3344 2
      vertex 159.122 -9.79381 6
      vertex 159.122 -9.79381 2
    endloop
  endfacet
  facet normal -0.841273 0.540611 0
    outer loop
      vertex 159.122 -9.79381 6
      vertex 158.132 -11.3344 2
      vertex 158.132 -11.3344 6
    endloop
  endfacet
  facet normal 0.654847 -0.755761 0
    outer loop
      vertex 162.6 -15.2063 2
      vertex 163.984 -14.0071 6
      vertex 162.6 -15.2063 6
    endloop
  endfacet
  facet normal 0.654847 -0.755761 0
    outer loop
      vertex 163.984 -14.0071 6
      vertex 162.6 -15.2063 2
      vertex 163.984 -14.0071 2
    endloop
  endfacet
  facet normal 0.959483 -0.281767 0
    outer loop
      vertex 163.984 -14.0071 6
      vertex 164.5 -12.25 2
      vertex 164.5 -12.25 6
    endloop
  endfacet
  facet normal 0.959483 -0.281767 0
    outer loop
      vertex 164.5 -12.25 2
      vertex 163.984 -14.0071 6
      vertex 163.984 -14.0071 2
    endloop
  endfacet
  facet normal 0.142277 -0.989827 0
    outer loop
      vertex 160.787 -15.4669 2
      vertex 162.6 -15.2063 6
      vertex 160.787 -15.4669 6
    endloop
  endfacet
  facet normal 0.142277 -0.989827 0
    outer loop
      vertex 162.6 -15.2063 6
      vertex 160.787 -15.4669 2
      vertex 162.6 -15.2063 2
    endloop
  endfacet
  facet normal 0.654847 0.755761 -0
    outer loop
      vertex 163.984 -10.4929 2
      vertex 162.6 -9.2937 6
      vertex 163.984 -10.4929 6
    endloop
  endfacet
  facet normal 0.654847 0.755761 0
    outer loop
      vertex 162.6 -9.2937 6
      vertex 163.984 -10.4929 2
      vertex 162.6 -9.2937 2
    endloop
  endfacet
  facet normal -1 0 0
    outer loop
      vertex 158.132 -13.1656 2
      vertex 158.132 -11.3344 6
      vertex 158.132 -11.3344 2
    endloop
  endfacet
  facet normal -1 -0 0
    outer loop
      vertex 158.132 -11.3344 6
      vertex 158.132 -13.1656 2
      vertex 158.132 -13.1656 6
    endloop
  endfacet
  facet normal 0.959483 0.281767 0
    outer loop
      vertex 164.5 -12.25 6
      vertex 163.984 -10.4929 2
      vertex 163.984 -10.4929 6
    endloop
  endfacet
  facet normal 0.959483 0.281767 0
    outer loop
      vertex 163.984 -10.4929 2
      vertex 164.5 -12.25 6
      vertex 164.5 -12.25 2
    endloop
  endfacet
  facet normal 0 0 1
    outer loop
      vertex 162.25 -12.25 6
      vertex 164.5 -12.25 6
      vertex 163.984 -10.4929 6
    endloop
  endfacet
  facet normal 0 0 1
    outer loop
      vertex 161.559 -11.2989 6
      vertex 163.984 -10.4929 6
      vertex 162.6 -9.2937 6
    endloop
  endfacet
  facet normal 0 0 1
    outer loop
      vertex 164.5 -12.25 6
      vertex 162.25 -12.25 6
      vertex 163.984 -14.0071 6
    endloop
  endfacet
  facet normal -0 0 1
    outer loop
      vertex 161.559 -13.2011 6
      vertex 163.984 -14.0071 6
      vertex 162.25 -12.25 6
    endloop
  endfacet
  facet normal 0 0 1
    outer loop
      vertex 163.984 -10.4929 6
      vertex 161.559 -11.2989 6
      vertex 162.25 -12.25 6
    endloop
  endfacet
  facet normal 0 0 1
    outer loop
      vertex 160.787 -9.03308 6
      vertex 161.559 -11.2989 6
      vertex 162.6 -9.2937 6
    endloop
  endfacet
  facet normal 0 0 1
    outer loop
      vertex 160.787 -9.03308 6
      vertex 160.441 -11.6622 6
      vertex 161.559 -11.2989 6
    endloop
  endfacet
  facet normal -0 0 1
    outer loop
      vertex 158.132 -11.3344 6
      vertex 160.441 -11.6622 6
      vertex 159.122 -9.79381 6
    endloop
  endfacet
  facet normal -0 0 1
    outer loop
      vertex 159.122 -9.79381 6
      vertex 160.441 -11.6622 6
      vertex 160.787 -9.03308 6
    endloop
  endfacet
  facet normal 0 0 1
    outer loop
      vertex 163.984 -14.0071 6
      vertex 161.559 -13.2011 6
      vertex 162.6 -15.2063 6
    endloop
  endfacet
  facet normal 0 0 1
    outer loop
      vertex 161.559 -13.2011 6
      vertex 160.787 -15.4669 6
      vertex 162.6 -15.2063 6
    endloop
  endfacet
  facet normal 0 0 1
    outer loop
      vertex 160.441 -12.8378 6
      vertex 160.787 -15.4669 6
      vertex 161.559 -13.2011 6
    endloop
  endfacet
  facet normal 0 0 1
    outer loop
      vertex 160.441 -11.6622 6
      vertex 158.132 -11.3344 6
      vertex 160.441 -12.8378 6
    endloop
  endfacet
  facet normal 0 0 1
    outer loop
      vertex 160.441 -12.8378 6
      vertex 159.122 -14.7062 6
      vertex 160.787 -15.4669 6
    endloop
  endfacet
  facet normal 0 0 1
    outer loop
      vertex 158.132 -13.1656 6
      vertex 160.441 -12.8378 6
      vertex 158.132 -11.3344 6
    endloop
  endfacet
  facet normal 0 0 1
    outer loop
      vertex 160.441 -12.8378 6
      vertex 158.132 -13.1656 6
      vertex 159.122 -14.7062 6
    endloop
  endfacet
  facet normal -0.415573 0.90956 0
    outer loop
      vertex 160.787 -9.03308 2
      vertex 159.122 -9.79381 6
      vertex 160.787 -9.03308 6
    endloop
  endfacet
  facet normal -0.415573 0.90956 0
    outer loop
      vertex 159.122 -9.79381 6
      vertex 160.787 -9.03308 2
      vertex 159.122 -9.79381 2
    endloop
  endfacet
  facet normal 0.142288 0.989825 -0
    outer loop
      vertex 162.6 -9.2937 2
      vertex 160.787 -9.03308 6
      vertex 162.6 -9.2937 6
    endloop
  endfacet
  facet normal 0.142288 0.989825 0
    outer loop
      vertex 160.787 -9.03308 6
      vertex 162.6 -9.2937 2
      vertex 160.787 -9.03308 2
    endloop
  endfacet
  facet normal -0.41556 -0.909566 0
    outer loop
      vertex 159.122 -14.7062 2
      vertex 160.787 -15.4669 6
      vertex 159.122 -14.7062 6
    endloop
  endfacet
  facet normal -0.41556 -0.909566 -0
    outer loop
      vertex 160.787 -15.4669 6
      vertex 159.122 -14.7062 2
      vertex 160.787 -15.4669 2
    endloop
  endfacet
  facet normal -0.841274 -0.540609 0
    outer loop
      vertex 159.122 -14.7062 2
      vertex 158.132 -13.1656 6
      vertex 158.132 -13.1656 2
    endloop
  endfacet
  facet normal -0.841274 -0.540609 0
    outer loop
      vertex 158.132 -13.1656 6
      vertex 159.122 -14.7062 2
      vertex 159.122 -14.7062 6
    endloop
  endfacet
  facet normal 0.309048 -0.951047 0
    outer loop
      vertex 160.441 -11.6622 3
      vertex 161.559 -11.2989 6
      vertex 160.441 -11.6622 6
    endloop
  endfacet
  facet normal 0.309048 -0.951047 0
    outer loop
      vertex 161.559 -11.2989 6
      vertex 160.441 -11.6622 3
      vertex 161.559 -11.2989 3
    endloop
  endfacet
  facet normal 0.309048 0.951047 -0
    outer loop
      vertex 161.559 -13.2011 3
      vertex 160.441 -12.8378 6
      vertex 161.559 -13.2011 6
    endloop
  endfacet
  facet normal 0.309048 0.951047 0
    outer loop
      vertex 160.441 -12.8378 6
      vertex 161.559 -13.2011 3
      vertex 160.441 -12.8378 3
    endloop
  endfacet
  facet normal -0.809023 0.587777 0
    outer loop
      vertex 161.559 -13.2011 3
      vertex 162.25 -12.25 6
      vertex 162.25 -12.25 3
    endloop
  endfacet
  facet normal -0.809023 0.587777 0
    outer loop
      vertex 162.25 -12.25 6
      vertex 161.559 -13.2011 3
      vertex 161.559 -13.2011 6
    endloop
  endfacet
  facet normal 1 -0 0
    outer loop
      vertex 160.441 -12.8378 6
      vertex 160.441 -11.6622 3
      vertex 160.441 -11.6622 6
    endloop
  endfacet
  facet normal 1 0 0
    outer loop
      vertex 160.441 -11.6622 3
      vertex 160.441 -12.8378 6
      vertex 160.441 -12.8378 3
    endloop
  endfacet
  facet normal -0.809023 -0.587777 0
    outer loop
      vertex 162.25 -12.25 3
      vertex 161.559 -11.2989 6
      vertex 161.559 -11.2989 3
    endloop
  endfacet
  facet normal -0.809023 -0.587777 0
    outer loop
      vertex 161.559 -11.2989 6
      vertex 162.25 -12.25 3
      vertex 162.25 -12.25 6
    endloop
  endfacet
  facet normal 0 0 1
    outer loop
      vertex 161.559 -11.2989 3
      vertex 161.559 -13.2011 3
      vertex 162.25 -12.25 3
    endloop
  endfacet
  facet normal -0 0 1
    outer loop
      vertex 160.441 -11.6622 3
      vertex 161.559 -13.2011 3
      vertex 161.559 -11.2989 3
    endloop
  endfacet
  facet normal 0 0 1
    outer loop
      vertex 161.559 -13.2011 3
      vertex 160.441 -11.6622 3
      vertex 160.441 -12.8378 3
    endloop
  endfacet
  facet normal -0.841274 0.540609 0
    outer loop
      vertex 109.132 -69.3344 2
      vertex 110.122 -67.7938 6
      vertex 110.122 -67.7938 2
    endloop
  endfacet
  facet normal -0.841274 0.540609 0
    outer loop
      vertex 110.122 -67.7938 6
      vertex 109.132 -69.3344 2
      vertex 109.132 -69.3344 6
    endloop
  endfacet
  facet normal 0.654847 -0.755761 0
    outer loop
      vertex 113.6 -73.2063 2
      vertex 114.984 -72.0071 6
      vertex 113.6 -73.2063 6
    endloop
  endfacet
  facet normal 0.654847 -0.755761 0
    outer loop
      vertex 114.984 -72.0071 6
      vertex 113.6 -73.2063 2
      vertex 114.984 -72.0071 2
    endloop
  endfacet
  facet normal 0.959483 -0.281767 0
    outer loop
      vertex 114.984 -72.0071 6
      vertex 115.5 -70.25 2
      vertex 115.5 -70.25 6
    endloop
  endfacet
  facet normal 0.959483 -0.281767 0
    outer loop
      vertex 115.5 -70.25 2
      vertex 114.984 -72.0071 6
      vertex 114.984 -72.0071 2
    endloop
  endfacet
  facet normal 0.142277 -0.989827 0
    outer loop
      vertex 111.787 -73.4669 2
      vertex 113.6 -73.2063 6
      vertex 111.787 -73.4669 6
    endloop
  endfacet
  facet normal 0.142277 -0.989827 0
    outer loop
      vertex 113.6 -73.2063 6
      vertex 111.787 -73.4669 2
      vertex 113.6 -73.2063 2
    endloop
  endfacet
  facet normal 0.654847 0.755761 -0
    outer loop
      vertex 114.984 -68.4929 2
      vertex 113.6 -67.2937 6
      vertex 114.984 -68.4929 6
    endloop
  endfacet
  facet normal 0.654847 0.755761 0
    outer loop
      vertex 113.6 -67.2937 6
      vertex 114.984 -68.4929 2
      vertex 113.6 -67.2937 2
    endloop
  endfacet
  facet normal -1 0 0
    outer loop
      vertex 109.132 -71.1656 2
      vertex 109.132 -69.3344 6
      vertex 109.132 -69.3344 2
    endloop
  endfacet
  facet normal -1 -0 0
    outer loop
      vertex 109.132 -69.3344 6
      vertex 109.132 -71.1656 2
      vertex 109.132 -71.1656 6
    endloop
  endfacet
  facet normal 0.959483 0.281767 0
    outer loop
      vertex 115.5 -70.25 6
      vertex 114.984 -68.4929 2
      vertex 114.984 -68.4929 6
    endloop
  endfacet
  facet normal 0.959483 0.281767 0
    outer loop
      vertex 114.984 -68.4929 2
      vertex 115.5 -70.25 6
      vertex 115.5 -70.25 2
    endloop
  endfacet
  facet normal 0 0 1
    outer loop
      vertex 113.25 -70.25 6
      vertex 115.5 -70.25 6
      vertex 114.984 -68.4929 6
    endloop
  endfacet
  facet normal 0 0 1
    outer loop
      vertex 112.559 -69.2989 6
      vertex 114.984 -68.4929 6
      vertex 113.6 -67.2937 6
    endloop
  endfacet
  facet normal 0 0 1
    outer loop
      vertex 115.5 -70.25 6
      vertex 113.25 -70.25 6
      vertex 114.984 -72.0071 6
    endloop
  endfacet
  facet normal -0 0 1
    outer loop
      vertex 112.559 -71.2011 6
      vertex 114.984 -72.0071 6
      vertex 113.25 -70.25 6
    endloop
  endfacet
  facet normal 0 0 1
    outer loop
      vertex 114.984 -68.4929 6
      vertex 112.559 -69.2989 6
      vertex 113.25 -70.25 6
    endloop
  endfacet
  facet normal 0 0 1
    outer loop
      vertex 111.787 -67.0331 6
      vertex 112.559 -69.2989 6
      vertex 113.6 -67.2937 6
    endloop
  endfacet
  facet normal 0 0 1
    outer loop
      vertex 111.787 -67.0331 6
      vertex 111.441 -69.6622 6
      vertex 112.559 -69.2989 6
    endloop
  endfacet
  facet normal -0 0 1
    outer loop
      vertex 109.132 -69.3344 6
      vertex 111.441 -69.6622 6
      vertex 110.122 -67.7938 6
    endloop
  endfacet
  facet normal -0 0 1
    outer loop
      vertex 110.122 -67.7938 6
      vertex 111.441 -69.6622 6
      vertex 111.787 -67.0331 6
    endloop
  endfacet
  facet normal 0 0 1
    outer loop
      vertex 114.984 -72.0071 6
      vertex 112.559 -71.2011 6
      vertex 113.6 -73.2063 6
    endloop
  endfacet
  facet normal 0 0 1
    outer loop
      vertex 112.559 -71.2011 6
      vertex 111.787 -73.4669 6
      vertex 113.6 -73.2063 6
    endloop
  endfacet
  facet normal 0 0 1
    outer loop
      vertex 111.441 -70.8378 6
      vertex 111.787 -73.4669 6
      vertex 112.559 -71.2011 6
    endloop
  endfacet
  facet normal 0 0 1
    outer loop
      vertex 111.441 -69.6622 6
      vertex 109.132 -69.3344 6
      vertex 111.441 -70.8378 6
    endloop
  endfacet
  facet normal 0 0 1
    outer loop
      vertex 111.441 -70.8378 6
      vertex 110.122 -72.7062 6
      vertex 111.787 -73.4669 6
    endloop
  endfacet
  facet normal 0 0 1
    outer loop
      vertex 109.132 -71.1656 6
      vertex 111.441 -70.8378 6
      vertex 109.132 -69.3344 6
    endloop
  endfacet
  facet normal 0 0 1
    outer loop
      vertex 111.441 -70.8378 6
      vertex 109.132 -71.1656 6
      vertex 110.122 -72.7062 6
    endloop
  endfacet
  facet normal -0.41556 0.909566 0
    outer loop
      vertex 111.787 -67.0331 2
      vertex 110.122 -67.7938 6
      vertex 111.787 -67.0331 6
    endloop
  endfacet
  facet normal -0.41556 0.909566 0
    outer loop
      vertex 110.122 -67.7938 6
      vertex 111.787 -67.0331 2
      vertex 110.122 -67.7938 2
    endloop
  endfacet
  facet normal 0.142277 0.989827 -0
    outer loop
      vertex 113.6 -67.2937 2
      vertex 111.787 -67.0331 6
      vertex 113.6 -67.2937 6
    endloop
  endfacet
  facet normal 0.142277 0.989827 0
    outer loop
      vertex 111.787 -67.0331 6
      vertex 113.6 -67.2937 2
      vertex 111.787 -67.0331 2
    endloop
  endfacet
  facet normal -0.41556 -0.909566 0
    outer loop
      vertex 110.122 -72.7062 2
      vertex 111.787 -73.4669 6
      vertex 110.122 -72.7062 6
    endloop
  endfacet
  facet normal -0.41556 -0.909566 -0
    outer loop
      vertex 111.787 -73.4669 6
      vertex 110.122 -72.7062 2
      vertex 111.787 -73.4669 2
    endloop
  endfacet
  facet normal -0.841274 -0.540609 0
    outer loop
      vertex 110.122 -72.7062 2
      vertex 109.132 -71.1656 6
      vertex 109.132 -71.1656 2
    endloop
  endfacet
  facet normal -0.841274 -0.540609 0
    outer loop
      vertex 109.132 -71.1656 6
      vertex 110.122 -72.7062 2
      vertex 110.122 -72.7062 6
    endloop
  endfacet
  facet normal 0.309048 -0.951047 0
    outer loop
      vertex 111.441 -69.6622 3
      vertex 112.559 -69.2989 6
      vertex 111.441 -69.6622 6
    endloop
  endfacet
  facet normal 0.309048 -0.951047 0
    outer loop
      vertex 112.559 -69.2989 6
      vertex 111.441 -69.6622 3
      vertex 112.559 -69.2989 3
    endloop
  endfacet
  facet normal 0.309048 0.951047 -0
    outer loop
      vertex 112.559 -71.2011 3
      vertex 111.441 -70.8378 6
      vertex 112.559 -71.2011 6
    endloop
  endfacet
  facet normal 0.309048 0.951047 0
    outer loop
      vertex 111.441 -70.8378 6
      vertex 112.559 -71.2011 3
      vertex 111.441 -70.8378 3
    endloop
  endfacet
  facet normal -0.809023 0.587777 0
    outer loop
      vertex 112.559 -71.2011 3
      vertex 113.25 -70.25 6
      vertex 113.25 -70.25 3
    endloop
  endfacet
  facet normal -0.809023 0.587777 0
    outer loop
      vertex 113.25 -70.25 6
      vertex 112.559 -71.2011 3
      vertex 112.559 -71.2011 6
    endloop
  endfacet
  facet normal 1 -0 0
    outer loop
      vertex 111.441 -70.8378 6
      vertex 111.441 -69.6622 3
      vertex 111.441 -69.6622 6
    endloop
  endfacet
  facet normal 1 0 0
    outer loop
      vertex 111.441 -69.6622 3
      vertex 111.441 -70.8378 6
      vertex 111.441 -70.8378 3
    endloop
  endfacet
  facet normal -0.809023 -0.587777 0
    outer loop
      vertex 113.25 -70.25 3
      vertex 112.559 -69.2989 6
      vertex 112.559 -69.2989 3
    endloop
  endfacet
  facet normal -0.809023 -0.587777 0
    outer loop
      vertex 112.559 -69.2989 6
      vertex 113.25 -70.25 3
      vertex 113.25 -70.25 6
    endloop
  endfacet
  facet normal 0 0 1
    outer loop
      vertex 112.559 -69.2989 3
      vertex 112.559 -71.2011 3
      vertex 113.25 -70.25 3
    endloop
  endfacet
  facet normal -0 0 1
    outer loop
      vertex 111.441 -69.6622 3
      vertex 112.559 -71.2011 3
      vertex 112.559 -69.2989 3
    endloop
  endfacet
  facet normal 0 0 1
    outer loop
      vertex 112.559 -71.2011 3
      vertex 111.441 -69.6622 3
      vertex 111.441 -70.8378 3
    endloop
  endfacet
  facet normal -0.841274 0.540609 0
    outer loop
      vertex 158.132 -69.3344 2
      vertex 159.122 -67.7938 6
      vertex 159.122 -67.7938 2
    endloop
  endfacet
  facet normal -0.841274 0.540609 0
    outer loop
      vertex 159.122 -67.7938 6
      vertex 158.132 -69.3344 2
      vertex 158.132 -69.3344 6
    endloop
  endfacet
  facet normal 0.654847 -0.755761 0
    outer loop
      vertex 162.6 -73.2063 2
      vertex 163.984 -72.0071 6
      vertex 162.6 -73.2063 6
    endloop
  endfacet
  facet normal 0.654847 -0.755761 0
    outer loop
      vertex 163.984 -72.0071 6
      vertex 162.6 -73.2063 2
      vertex 163.984 -72.0071 2
    endloop
  endfacet
  facet normal 0.959483 -0.281767 0
    outer loop
      vertex 163.984 -72.0071 6
      vertex 164.5 -70.25 2
      vertex 164.5 -70.25 6
    endloop
  endfacet
  facet normal 0.959483 -0.281767 0
    outer loop
      vertex 164.5 -70.25 2
      vertex 163.984 -72.0071 6
      vertex 163.984 -72.0071 2
    endloop
  endfacet
  facet normal 0.142277 -0.989827 0
    outer loop
      vertex 160.787 -73.4669 2
      vertex 162.6 -73.2063 6
      vertex 160.787 -73.4669 6
    endloop
  endfacet
  facet normal 0.142277 -0.989827 0
    outer loop
      vertex 162.6 -73.2063 6
      vertex 160.787 -73.4669 2
      vertex 162.6 -73.2063 2
    endloop
  endfacet
  facet normal 0.654847 0.755761 -0
    outer loop
      vertex 163.984 -68.4929 2
      vertex 162.6 -67.2937 6
      vertex 163.984 -68.4929 6
    endloop
  endfacet
  facet normal 0.654847 0.755761 0
    outer loop
      vertex 162.6 -67.2937 6
      vertex 163.984 -68.4929 2
      vertex 162.6 -67.2937 2
    endloop
  endfacet
  facet normal -1 0 0
    outer loop
      vertex 158.132 -71.1656 2
      vertex 158.132 -69.3344 6
      vertex 158.132 -69.3344 2
    endloop
  endfacet
  facet normal -1 -0 0
    outer loop
      vertex 158.132 -69.3344 6
      vertex 158.132 -71.1656 2
      vertex 158.132 -71.1656 6
    endloop
  endfacet
  facet normal 0.959483 0.281767 0
    outer loop
      vertex 164.5 -70.25 6
      vertex 163.984 -68.4929 2
      vertex 163.984 -68.4929 6
    endloop
  endfacet
  facet normal 0.959483 0.281767 0
    outer loop
      vertex 163.984 -68.4929 2
      vertex 164.5 -70.25 6
      vertex 164.5 -70.25 2
    endloop
  endfacet
  facet normal 0 0 1
    outer loop
      vertex 162.25 -70.25 6
      vertex 164.5 -70.25 6
      vertex 163.984 -68.4929 6
    endloop
  endfacet
  facet normal 0 0 1
    outer loop
      vertex 161.559 -69.2989 6
      vertex 163.984 -68.4929 6
      vertex 162.6 -67.2937 6
    endloop
  endfacet
  facet normal 0 0 1
    outer loop
      vertex 164.5 -70.25 6
      vertex 162.25 -70.25 6
      vertex 163.984 -72.0071 6
    endloop
  endfacet
  facet normal -0 0 1
    outer loop
      vertex 161.559 -71.2011 6
      vertex 163.984 -72.0071 6
      vertex 162.25 -70.25 6
    endloop
  endfacet
  facet normal 0 0 1
    outer loop
      vertex 163.984 -68.4929 6
      vertex 161.559 -69.2989 6
      vertex 162.25 -70.25 6
    endloop
  endfacet
  facet normal 0 0 1
    outer loop
      vertex 160.787 -67.0331 6
      vertex 161.559 -69.2989 6
      vertex 162.6 -67.2937 6
    endloop
  endfacet
  facet normal 0 0 1
    outer loop
      vertex 160.787 -67.0331 6
      vertex 160.441 -69.6622 6
      vertex 161.559 -69.2989 6
    endloop
  endfacet
  facet normal -0 0 1
    outer loop
      vertex 158.132 -69.3344 6
      vertex 160.441 -69.6622 6
      vertex 159.122 -67.7938 6
    endloop
  endfacet
  facet normal -0 0 1
    outer loop
      vertex 159.122 -67.7938 6
      vertex 160.441 -69.6622 6
      vertex 160.787 -67.0331 6
    endloop
  endfacet
  facet normal 0 0 1
    outer loop
      vertex 163.984 -72.0071 6
      vertex 161.559 -71.2011 6
      vertex 162.6 -73.2063 6
    endloop
  endfacet
  facet normal 0 0 1
    outer loop
      vertex 161.559 -71.2011 6
      vertex 160.787 -73.4669 6
      vertex 162.6 -73.2063 6
    endloop
  endfacet
  facet normal 0 0 1
    outer loop
      vertex 160.441 -70.8378 6
      vertex 160.787 -73.4669 6
      vertex 161.559 -71.2011 6
    endloop
  endfacet
  facet normal 0 0 1
    outer loop
      vertex 160.441 -69.6622 6
      vertex 158.132 -69.3344 6
      vertex 160.441 -70.8378 6
    endloop
  endfacet
  facet normal 0 0 1
    outer loop
      vertex 160.441 -70.8378 6
      vertex 159.122 -72.7062 6
      vertex 160.787 -73.4669 6
    endloop
  endfacet
  facet normal 0 0 1
    outer loop
      vertex 158.132 -71.1656 6
      vertex 160.441 -70.8378 6
      vertex 158.132 -69.3344 6
    endloop
  endfacet
  facet normal 0 0 1
    outer loop
      vertex 160.441 -70.8378 6
      vertex 158.132 -71.1656 6
      vertex 159.122 -72.7062 6
    endloop
  endfacet
  facet normal -0.41556 0.909566 0
    outer loop
      vertex 160.787 -67.0331 2
      vertex 159.122 -67.7938 6
      vertex 160.787 -67.0331 6
    endloop
  endfacet
  facet normal -0.41556 0.909566 0
    outer loop
      vertex 159.122 -67.7938 6
      vertex 160.787 -67.0331 2
      vertex 159.122 -67.7938 2
    endloop
  endfacet
  facet normal 0.142277 0.989827 -0
    outer loop
      vertex 162.6 -67.2937 2
      vertex 160.787 -67.0331 6
      vertex 162.6 -67.2937 6
    endloop
  endfacet
  facet normal 0.142277 0.989827 0
    outer loop
      vertex 160.787 -67.0331 6
      vertex 162.6 -67.2937 2
      vertex 160.787 -67.0331 2
    endloop
  endfacet
  facet normal -0.41556 -0.909566 0
    outer loop
      vertex 159.122 -72.7062 2
      vertex 160.787 -73.4669 6
      vertex 159.122 -72.7062 6
    endloop
  endfacet
  facet normal -0.41556 -0.909566 -0
    outer loop
      vertex 160.787 -73.4669 6
      vertex 159.122 -72.7062 2
      vertex 160.787 -73.4669 2
    endloop
  endfacet
  facet normal -0.841274 -0.540609 0
    outer loop
      vertex 159.122 -72.7062 2
      vertex 158.132 -71.1656 6
      vertex 158.132 -71.1656 2
    endloop
  endfacet
  facet normal -0.841274 -0.540609 0
    outer loop
      vertex 158.132 -71.1656 6
      vertex 159.122 -72.7062 2
      vertex 159.122 -72.7062 6
    endloop
  endfacet
  facet normal 0.309048 -0.951047 0
    outer loop
      vertex 160.441 -69.6622 3
      vertex 161.559 -69.2989 6
      vertex 160.441 -69.6622 6
    endloop
  endfacet
  facet normal 0.309048 -0.951047 0
    outer loop
      vertex 161.559 -69.2989 6
      vertex 160.441 -69.6622 3
      vertex 161.559 -69.2989 3
    endloop
  endfacet
  facet normal 0.309048 0.951047 -0
    outer loop
      vertex 161.559 -71.2011 3
      vertex 160.441 -70.8378 6
      vertex 161.559 -71.2011 6
    endloop
  endfacet
  facet normal 0.309048 0.951047 0
    outer loop
      vertex 160.441 -70.8378 6
      vertex 161.559 -71.2011 3
      vertex 160.441 -70.8378 3
    endloop
  endfacet
  facet normal -0.809023 0.587777 0
    outer loop
      vertex 161.559 -71.2011 3
      vertex 162.25 -70.25 6
      vertex 162.25 -70.25 3
    endloop
  endfacet
  facet normal -0.809023 0.587777 0
    outer loop
      vertex 162.25 -70.25 6
      vertex 161.559 -71.2011 3
      vertex 161.559 -71.2011 6
    endloop
  endfacet
  facet normal 1 -0 0
    outer loop
      vertex 160.441 -70.8378 6
      vertex 160.441 -69.6622 3
      vertex 160.441 -69.6622 6
    endloop
  endfacet
  facet normal 1 0 0
    outer loop
      vertex 160.441 -69.6622 3
      vertex 160.441 -70.8378 6
      vertex 160.441 -70.8378 3
    endloop
  endfacet
  facet normal -0.809023 -0.587777 0
    outer loop
      vertex 162.25 -70.25 3
      vertex 161.559 -69.2989 6
      vertex 161.559 -69.2989 3
    endloop
  endfacet
  facet normal -0.809023 -0.587777 0
    outer loop
      vertex 161.559 -69.2989 6
      vertex 162.25 -70.25 3
      vertex 162.25 -70.25 6
    endloop
  endfacet
  facet normal 0 0 1
    outer loop
      vertex 161.559 -69.2989 3
      vertex 161.559 -71.2011 3
      vertex 162.25 -70.25 3
    endloop
  endfacet
  facet normal -0 0 1
    outer loop
      vertex 160.441 -69.6622 3
      vertex 161.559 -71.2011 3
      vertex 161.559 -69.2989 3
    endloop
  endfacet
  facet normal 0 0 1
    outer loop
      vertex 161.559 -71.2011 3
      vertex 160.441 -69.6622 3
      vertex 160.441 -70.8378 3
    endloop
  endfacet
endsolid OpenSCAD_Model
