solid OpenSCAD_Model
  facet normal 1 -0 0
    outer loop
      vertex 41 101 30
      vertex 41 111 0
      vertex 41 111 30
    endloop
  endfacet
  facet normal 1 0 0
    outer loop
      vertex 41 111 0
      vertex 41 101 30
      vertex 41 101 0
    endloop
  endfacet
  facet normal 0 0 1
    outer loop
      vertex 41 111 30
      vertex 37.4 106.5 30
      vertex 41 101 30
    endloop
  endfacet
  facet normal 0 0 1
    outer loop
      vertex 41 111 30
      vertex 37.3694 106.791 30
      vertex 37.4 106.5 30
    endloop
  endfacet
  facet normal 0 0 1
    outer loop
      vertex 41 111 30
      vertex 37.279 107.069 30
      vertex 37.3694 106.791 30
    endloop
  endfacet
  facet normal 0 0 1
    outer loop
      vertex 41 111 30
      vertex 37.1326 107.323 30
      vertex 37.279 107.069 30
    endloop
  endfacet
  facet normal 0 0 1
    outer loop
      vertex 41 111 30
      vertex 36.9368 107.54 30
      vertex 37.1326 107.323 30
    endloop
  endfacet
  facet normal 0 0 1
    outer loop
      vertex 41 111 30
      vertex 36.7 107.712 30
      vertex 36.9368 107.54 30
    endloop
  endfacet
  facet normal 0 0 1
    outer loop
      vertex 41 111 30
      vertex 36.4326 107.831 30
      vertex 36.7 107.712 30
    endloop
  endfacet
  facet normal 0 0 1
    outer loop
      vertex 41 111 30
      vertex 36.1463 107.892 30
      vertex 36.4326 107.831 30
    endloop
  endfacet
  facet normal 0 0 1
    outer loop
      vertex 41 111 30
      vertex 35.8537 107.892 30
      vertex 36.1463 107.892 30
    endloop
  endfacet
  facet normal 0 0 1
    outer loop
      vertex 41 111 30
      vertex 35.5674 107.831 30
      vertex 35.8537 107.892 30
    endloop
  endfacet
  facet normal 0 0 1
    outer loop
      vertex 28.4326 107.831 30
      vertex 35.5674 107.831 30
      vertex 41 111 30
    endloop
  endfacet
  facet normal 0 0 1
    outer loop
      vertex 34.6306 106.791 30
      vertex 29.4 106.5 30
      vertex 34.6 106.5 30
    endloop
  endfacet
  facet normal 0 0 1
    outer loop
      vertex 29.3694 106.791 30
      vertex 34.6306 106.791 30
      vertex 34.721 107.069 30
    endloop
  endfacet
  facet normal 0 0 1
    outer loop
      vertex 29.279 107.069 30
      vertex 34.721 107.069 30
      vertex 34.8674 107.323 30
    endloop
  endfacet
  facet normal 0 0 1
    outer loop
      vertex 29.1326 107.323 30
      vertex 34.8674 107.323 30
      vertex 35.0632 107.54 30
    endloop
  endfacet
  facet normal 0 0 1
    outer loop
      vertex 28.9368 107.54 30
      vertex 35.0632 107.54 30
      vertex 35.3 107.712 30
    endloop
  endfacet
  facet normal 0 0 1
    outer loop
      vertex 35.5674 107.831 30
      vertex 28.4326 107.831 30
      vertex 35.3 107.712 30
    endloop
  endfacet
  facet normal 0 0 1
    outer loop
      vertex 34.6306 106.791 30
      vertex 29.3694 106.791 30
      vertex 29.4 106.5 30
    endloop
  endfacet
  facet normal 0 0 1
    outer loop
      vertex 34.721 107.069 30
      vertex 29.279 107.069 30
      vertex 29.3694 106.791 30
    endloop
  endfacet
  facet normal 0 0 1
    outer loop
      vertex 34.8674 107.323 30
      vertex 29.1326 107.323 30
      vertex 29.279 107.069 30
    endloop
  endfacet
  facet normal 0 0 1
    outer loop
      vertex 35.0632 107.54 30
      vertex 28.9368 107.54 30
      vertex 29.1326 107.323 30
    endloop
  endfacet
  facet normal 0 0 1
    outer loop
      vertex 35.3 107.712 30
      vertex 28.7 107.712 30
      vertex 28.9368 107.54 30
    endloop
  endfacet
  facet normal 0 0 1
    outer loop
      vertex 35.3 107.712 30
      vertex 28.4326 107.831 30
      vertex 28.7 107.712 30
    endloop
  endfacet
  facet normal -0 0 1
    outer loop
      vertex 23 111 30
      vertex 28.4326 107.831 30
      vertex 41 111 30
    endloop
  endfacet
  facet normal 0 0 1
    outer loop
      vertex 28.4326 107.831 30
      vertex 23 111 30
      vertex 28.1463 107.892 30
    endloop
  endfacet
  facet normal 0 0 1
    outer loop
      vertex 28.1463 107.892 30
      vertex 23 111 30
      vertex 27.8537 107.892 30
    endloop
  endfacet
  facet normal 0 0 1
    outer loop
      vertex 26.6306 106.791 30
      vertex 23 111 30
      vertex 26.6 106.5 30
    endloop
  endfacet
  facet normal 0 0 1
    outer loop
      vertex 26.721 107.069 30
      vertex 23 111 30
      vertex 26.6306 106.791 30
    endloop
  endfacet
  facet normal 0 0 1
    outer loop
      vertex 26.8674 107.323 30
      vertex 23 111 30
      vertex 26.721 107.069 30
    endloop
  endfacet
  facet normal 0 0 1
    outer loop
      vertex 27.0632 107.54 30
      vertex 23 111 30
      vertex 26.8674 107.323 30
    endloop
  endfacet
  facet normal 0 0 1
    outer loop
      vertex 27.3 107.712 30
      vertex 23 111 30
      vertex 27.0632 107.54 30
    endloop
  endfacet
  facet normal 0 0 1
    outer loop
      vertex 27.5674 107.831 30
      vertex 23 111 30
      vertex 27.3 107.712 30
    endloop
  endfacet
  facet normal 0 0 1
    outer loop
      vertex 27.8537 107.892 30
      vertex 23 111 30
      vertex 27.5674 107.831 30
    endloop
  endfacet
  facet normal -0 0 1
    outer loop
      vertex 37.3694 106.209 30
      vertex 41 101 30
      vertex 37.4 106.5 30
    endloop
  endfacet
  facet normal -0 0 1
    outer loop
      vertex 37.279 105.931 30
      vertex 41 101 30
      vertex 37.3694 106.209 30
    endloop
  endfacet
  facet normal -0 0 1
    outer loop
      vertex 37.1326 105.677 30
      vertex 41 101 30
      vertex 37.279 105.931 30
    endloop
  endfacet
  facet normal -0 0 1
    outer loop
      vertex 36.9368 105.46 30
      vertex 41 101 30
      vertex 37.1326 105.677 30
    endloop
  endfacet
  facet normal -0 0 1
    outer loop
      vertex 36.7 105.288 30
      vertex 41 101 30
      vertex 36.9368 105.46 30
    endloop
  endfacet
  facet normal -0 0 1
    outer loop
      vertex 36.4326 105.169 30
      vertex 41 101 30
      vertex 36.7 105.288 30
    endloop
  endfacet
  facet normal -0 0 1
    outer loop
      vertex 36.1463 105.108 30
      vertex 41 101 30
      vertex 36.4326 105.169 30
    endloop
  endfacet
  facet normal -0 0 1
    outer loop
      vertex 35.8537 105.108 30
      vertex 41 101 30
      vertex 36.1463 105.108 30
    endloop
  endfacet
  facet normal 0 0 1
    outer loop
      vertex 35.5674 105.169 30
      vertex 41 101 30
      vertex 35.8537 105.108 30
    endloop
  endfacet
  facet normal 0 0 1
    outer loop
      vertex 28.4326 105.169 30
      vertex 35.5674 105.169 30
      vertex 35.3 105.288 30
    endloop
  endfacet
  facet normal 0 0 1
    outer loop
      vertex 28.7 105.288 30
      vertex 35.3 105.288 30
      vertex 35.0632 105.46 30
    endloop
  endfacet
  facet normal -0 0 1
    outer loop
      vertex 29.4 106.5 30
      vertex 34.6306 106.209 30
      vertex 34.6 106.5 30
    endloop
  endfacet
  facet normal 0 0 1
    outer loop
      vertex 29.3694 106.209 30
      vertex 34.6306 106.209 30
      vertex 29.4 106.5 30
    endloop
  endfacet
  facet normal 0 0 1
    outer loop
      vertex 34.6306 106.209 30
      vertex 29.3694 106.209 30
      vertex 34.721 105.931 30
    endloop
  endfacet
  facet normal 0 0 1
    outer loop
      vertex 29.279 105.931 30
      vertex 34.721 105.931 30
      vertex 29.3694 106.209 30
    endloop
  endfacet
  facet normal 0 0 1
    outer loop
      vertex 34.721 105.931 30
      vertex 29.279 105.931 30
      vertex 34.8674 105.677 30
    endloop
  endfacet
  facet normal 0 0 1
    outer loop
      vertex 29.1326 105.677 30
      vertex 34.8674 105.677 30
      vertex 29.279 105.931 30
    endloop
  endfacet
  facet normal 0 0 1
    outer loop
      vertex 34.8674 105.677 30
      vertex 29.1326 105.677 30
      vertex 35.0632 105.46 30
    endloop
  endfacet
  facet normal 0 0 1
    outer loop
      vertex 28.9368 105.46 30
      vertex 35.0632 105.46 30
      vertex 29.1326 105.677 30
    endloop
  endfacet
  facet normal 0 0 1
    outer loop
      vertex 28.7 105.288 30
      vertex 35.0632 105.46 30
      vertex 28.9368 105.46 30
    endloop
  endfacet
  facet normal 0 0 1
    outer loop
      vertex 35.3 105.288 30
      vertex 28.7 105.288 30
      vertex 28.4326 105.169 30
    endloop
  endfacet
  facet normal 0 0 1
    outer loop
      vertex 35.5674 105.169 30
      vertex 28.4326 105.169 30
      vertex 41 101 30
    endloop
  endfacet
  facet normal 0 0 1
    outer loop
      vertex 23 101 30
      vertex 28.4326 105.169 30
      vertex 28.1463 105.108 30
    endloop
  endfacet
  facet normal 0 0 1
    outer loop
      vertex 23 101 30
      vertex 28.1463 105.108 30
      vertex 27.8537 105.108 30
    endloop
  endfacet
  facet normal 0 0 1
    outer loop
      vertex 23 101 30
      vertex 27.8537 105.108 30
      vertex 27.5674 105.169 30
    endloop
  endfacet
  facet normal 0 0 1
    outer loop
      vertex 23 101 30
      vertex 26.6 106.5 30
      vertex 23 111 30
    endloop
  endfacet
  facet normal 0 0 1
    outer loop
      vertex 26.6 106.5 30
      vertex 23 101 30
      vertex 26.6306 106.209 30
    endloop
  endfacet
  facet normal 0 0 1
    outer loop
      vertex 26.6306 106.209 30
      vertex 23 101 30
      vertex 26.721 105.931 30
    endloop
  endfacet
  facet normal 0 0 1
    outer loop
      vertex 28.4326 105.169 30
      vertex 23 101 30
      vertex 41 101 30
    endloop
  endfacet
  facet normal 0 0 1
    outer loop
      vertex 27.3 105.288 30
      vertex 23 101 30
      vertex 27.5674 105.169 30
    endloop
  endfacet
  facet normal 0 0 1
    outer loop
      vertex 27.0632 105.46 30
      vertex 23 101 30
      vertex 27.3 105.288 30
    endloop
  endfacet
  facet normal 0 0 1
    outer loop
      vertex 26.8674 105.677 30
      vertex 23 101 30
      vertex 27.0632 105.46 30
    endloop
  endfacet
  facet normal 0 0 1
    outer loop
      vertex 26.721 105.931 30
      vertex 23 101 30
      vertex 26.8674 105.677 30
    endloop
  endfacet
  facet normal 0 0 -1
    outer loop
      vertex 41 101 0
      vertex 37.4 106.5 0
      vertex 41 111 0
    endloop
  endfacet
  facet normal 0 0 -1
    outer loop
      vertex 41 101 0
      vertex 37.3694 106.209 0
      vertex 37.4 106.5 0
    endloop
  endfacet
  facet normal 0 0 -1
    outer loop
      vertex 41 101 0
      vertex 37.279 105.931 0
      vertex 37.3694 106.209 0
    endloop
  endfacet
  facet normal 0 0 -1
    outer loop
      vertex 41 101 0
      vertex 37.1326 105.677 0
      vertex 37.279 105.931 0
    endloop
  endfacet
  facet normal 0 0 -1
    outer loop
      vertex 41 101 0
      vertex 36.9368 105.46 0
      vertex 37.1326 105.677 0
    endloop
  endfacet
  facet normal 0 0 -1
    outer loop
      vertex 41 101 0
      vertex 36.7 105.288 0
      vertex 36.9368 105.46 0
    endloop
  endfacet
  facet normal 0 0 -1
    outer loop
      vertex 41 101 0
      vertex 36.4326 105.169 0
      vertex 36.7 105.288 0
    endloop
  endfacet
  facet normal 0 0 -1
    outer loop
      vertex 41 101 0
      vertex 36.1463 105.108 0
      vertex 36.4326 105.169 0
    endloop
  endfacet
  facet normal 0 0 -1
    outer loop
      vertex 41 101 0
      vertex 35.8537 105.108 0
      vertex 36.1463 105.108 0
    endloop
  endfacet
  facet normal 0 0 -1
    outer loop
      vertex 41 101 0
      vertex 35.5674 105.169 0
      vertex 35.8537 105.108 0
    endloop
  endfacet
  facet normal 0 0 -1
    outer loop
      vertex 28.4326 105.169 0
      vertex 35.5674 105.169 0
      vertex 41 101 0
    endloop
  endfacet
  facet normal 0 0 -1
    outer loop
      vertex 35.5674 105.169 0
      vertex 28.4326 105.169 0
      vertex 35.3 105.288 0
    endloop
  endfacet
  facet normal 0 0 -1
    outer loop
      vertex 34.6306 106.209 0
      vertex 29.4 106.5 0
      vertex 34.6 106.5 0
    endloop
  endfacet
  facet normal 0 0 -1
    outer loop
      vertex 29.3694 106.209 0
      vertex 34.6306 106.209 0
      vertex 34.721 105.931 0
    endloop
  endfacet
  facet normal 0 0 -1
    outer loop
      vertex 29.279 105.931 0
      vertex 34.721 105.931 0
      vertex 34.8674 105.677 0
    endloop
  endfacet
  facet normal 0 0 -1
    outer loop
      vertex 29.1326 105.677 0
      vertex 34.8674 105.677 0
      vertex 35.0632 105.46 0
    endloop
  endfacet
  facet normal 0 -0 -1
    outer loop
      vertex 28.7 105.288 0
      vertex 35.3 105.288 0
      vertex 28.4326 105.169 0
    endloop
  endfacet
  facet normal 0 0 -1
    outer loop
      vertex 34.6306 106.209 0
      vertex 29.3694 106.209 0
      vertex 29.4 106.5 0
    endloop
  endfacet
  facet normal 0 0 -1
    outer loop
      vertex 34.721 105.931 0
      vertex 29.279 105.931 0
      vertex 29.3694 106.209 0
    endloop
  endfacet
  facet normal 0 0 -1
    outer loop
      vertex 34.8674 105.677 0
      vertex 29.1326 105.677 0
      vertex 29.279 105.931 0
    endloop
  endfacet
  facet normal 0 0 -1
    outer loop
      vertex 35.0632 105.46 0
      vertex 28.9368 105.46 0
      vertex 29.1326 105.677 0
    endloop
  endfacet
  facet normal -0 0 -1
    outer loop
      vertex 35.0632 105.46 0
      vertex 28.7 105.288 0
      vertex 28.9368 105.46 0
    endloop
  endfacet
  facet normal 0 0 -1
    outer loop
      vertex 35.3 105.288 0
      vertex 28.7 105.288 0
      vertex 35.0632 105.46 0
    endloop
  endfacet
  facet normal 0 0 -1
    outer loop
      vertex 23 101 0
      vertex 28.4326 105.169 0
      vertex 41 101 0
    endloop
  endfacet
  facet normal 0 0 -1
    outer loop
      vertex 28.4326 105.169 0
      vertex 23 101 0
      vertex 28.1463 105.108 0
    endloop
  endfacet
  facet normal -0 0 -1
    outer loop
      vertex 28.1463 105.108 0
      vertex 23 101 0
      vertex 27.8537 105.108 0
    endloop
  endfacet
  facet normal -0 0 -1
    outer loop
      vertex 26.6306 106.209 0
      vertex 23 101 0
      vertex 26.6 106.5 0
    endloop
  endfacet
  facet normal -0 0 -1
    outer loop
      vertex 26.721 105.931 0
      vertex 23 101 0
      vertex 26.6306 106.209 0
    endloop
  endfacet
  facet normal -0 0 -1
    outer loop
      vertex 26.8674 105.677 0
      vertex 23 101 0
      vertex 26.721 105.931 0
    endloop
  endfacet
  facet normal -0 0 -1
    outer loop
      vertex 27.0632 105.46 0
      vertex 23 101 0
      vertex 26.8674 105.677 0
    endloop
  endfacet
  facet normal -0 0 -1
    outer loop
      vertex 27.3 105.288 0
      vertex 23 101 0
      vertex 27.0632 105.46 0
    endloop
  endfacet
  facet normal -0 0 -1
    outer loop
      vertex 27.5674 105.169 0
      vertex 23 101 0
      vertex 27.3 105.288 0
    endloop
  endfacet
  facet normal -0 0 -1
    outer loop
      vertex 27.8537 105.108 0
      vertex 23 101 0
      vertex 27.5674 105.169 0
    endloop
  endfacet
  facet normal 0 0 -1
    outer loop
      vertex 37.3694 106.791 0
      vertex 41 111 0
      vertex 37.4 106.5 0
    endloop
  endfacet
  facet normal 0 0 -1
    outer loop
      vertex 37.279 107.069 0
      vertex 41 111 0
      vertex 37.3694 106.791 0
    endloop
  endfacet
  facet normal 0 0 -1
    outer loop
      vertex 37.1326 107.323 0
      vertex 41 111 0
      vertex 37.279 107.069 0
    endloop
  endfacet
  facet normal 0 0 -1
    outer loop
      vertex 36.9368 107.54 0
      vertex 41 111 0
      vertex 37.1326 107.323 0
    endloop
  endfacet
  facet normal 0 0 -1
    outer loop
      vertex 36.7 107.712 0
      vertex 41 111 0
      vertex 36.9368 107.54 0
    endloop
  endfacet
  facet normal 0 0 -1
    outer loop
      vertex 36.4326 107.831 0
      vertex 41 111 0
      vertex 36.7 107.712 0
    endloop
  endfacet
  facet normal 0 0 -1
    outer loop
      vertex 36.1463 107.892 0
      vertex 41 111 0
      vertex 36.4326 107.831 0
    endloop
  endfacet
  facet normal 0 0 -1
    outer loop
      vertex 35.8537 107.892 0
      vertex 41 111 0
      vertex 36.1463 107.892 0
    endloop
  endfacet
  facet normal 0 0 -1
    outer loop
      vertex 35.5674 107.831 0
      vertex 41 111 0
      vertex 35.8537 107.892 0
    endloop
  endfacet
  facet normal 0 0 -1
    outer loop
      vertex 28.4326 107.831 0
      vertex 35.5674 107.831 0
      vertex 35.3 107.712 0
    endloop
  endfacet
  facet normal 0 0 -1
    outer loop
      vertex 29.4 106.5 0
      vertex 34.6306 106.791 0
      vertex 34.6 106.5 0
    endloop
  endfacet
  facet normal 0 0 -1
    outer loop
      vertex 29.3694 106.791 0
      vertex 34.6306 106.791 0
      vertex 29.4 106.5 0
    endloop
  endfacet
  facet normal 0 0 -1
    outer loop
      vertex 34.6306 106.791 0
      vertex 29.3694 106.791 0
      vertex 34.721 107.069 0
    endloop
  endfacet
  facet normal 0 0 -1
    outer loop
      vertex 29.279 107.069 0
      vertex 34.721 107.069 0
      vertex 29.3694 106.791 0
    endloop
  endfacet
  facet normal 0 0 -1
    outer loop
      vertex 34.721 107.069 0
      vertex 29.279 107.069 0
      vertex 34.8674 107.323 0
    endloop
  endfacet
  facet normal 0 0 -1
    outer loop
      vertex 29.1326 107.323 0
      vertex 34.8674 107.323 0
      vertex 29.279 107.069 0
    endloop
  endfacet
  facet normal 0 0 -1
    outer loop
      vertex 34.8674 107.323 0
      vertex 29.1326 107.323 0
      vertex 35.0632 107.54 0
    endloop
  endfacet
  facet normal 0 0 -1
    outer loop
      vertex 28.9368 107.54 0
      vertex 35.0632 107.54 0
      vertex 29.1326 107.323 0
    endloop
  endfacet
  facet normal 0 0 -1
    outer loop
      vertex 35.0632 107.54 0
      vertex 28.9368 107.54 0
      vertex 35.3 107.712 0
    endloop
  endfacet
  facet normal 0 0 -1
    outer loop
      vertex 28.7 107.712 0
      vertex 35.3 107.712 0
      vertex 28.9368 107.54 0
    endloop
  endfacet
  facet normal 0 0 -1
    outer loop
      vertex 28.4326 107.831 0
      vertex 35.3 107.712 0
      vertex 28.7 107.712 0
    endloop
  endfacet
  facet normal 0 0 -1
    outer loop
      vertex 35.5674 107.831 0
      vertex 28.4326 107.831 0
      vertex 41 111 0
    endloop
  endfacet
  facet normal 0 0 -1
    outer loop
      vertex 23 111 0
      vertex 28.4326 107.831 0
      vertex 28.1463 107.892 0
    endloop
  endfacet
  facet normal 0 0 -1
    outer loop
      vertex 23 111 0
      vertex 28.1463 107.892 0
      vertex 27.8537 107.892 0
    endloop
  endfacet
  facet normal 0 0 -1
    outer loop
      vertex 23 111 0
      vertex 27.8537 107.892 0
      vertex 27.5674 107.831 0
    endloop
  endfacet
  facet normal 0 0 -1
    outer loop
      vertex 23 111 0
      vertex 26.6 106.5 0
      vertex 23 101 0
    endloop
  endfacet
  facet normal 0 0 -1
    outer loop
      vertex 26.6 106.5 0
      vertex 23 111 0
      vertex 26.6306 106.791 0
    endloop
  endfacet
  facet normal 0 0 -1
    outer loop
      vertex 26.6306 106.791 0
      vertex 23 111 0
      vertex 26.721 107.069 0
    endloop
  endfacet
  facet normal 0 0 -1
    outer loop
      vertex 28.4326 107.831 0
      vertex 23 111 0
      vertex 41 111 0
    endloop
  endfacet
  facet normal 0 0 -1
    outer loop
      vertex 27.3 107.712 0
      vertex 23 111 0
      vertex 27.5674 107.831 0
    endloop
  endfacet
  facet normal 0 0 -1
    outer loop
      vertex 27.0632 107.54 0
      vertex 23 111 0
      vertex 27.3 107.712 0
    endloop
  endfacet
  facet normal 0 0 -1
    outer loop
      vertex 26.8674 107.323 0
      vertex 23 111 0
      vertex 27.0632 107.54 0
    endloop
  endfacet
  facet normal 0 0 -1
    outer loop
      vertex 26.721 107.069 0
      vertex 23 111 0
      vertex 26.8674 107.323 0
    endloop
  endfacet
  facet normal -1 0 0
    outer loop
      vertex 23 101 0
      vertex 23 111 30
      vertex 23 111 0
    endloop
  endfacet
  facet normal -1 -0 0
    outer loop
      vertex 23 111 30
      vertex 23 101 0
      vertex 23 101 30
    endloop
  endfacet
  facet normal 0 1 -0
    outer loop
      vertex 41 111 0
      vertex 23 111 30
      vertex 41 111 30
    endloop
  endfacet
  facet normal 0 1 0
    outer loop
      vertex 23 111 30
      vertex 41 111 0
      vertex 23 111 0
    endloop
  endfacet
  facet normal 0 -1 0
    outer loop
      vertex 23 101 0
      vertex 41 101 30
      vertex 23 101 30
    endloop
  endfacet
  facet normal 0 -1 -0
    outer loop
      vertex 41 101 30
      vertex 23 101 0
      vertex 41 101 0
    endloop
  endfacet
  facet normal -0.950984 -0.309241 0
    outer loop
      vertex 29.3694 106.791 0
      vertex 29.279 107.069 30
      vertex 29.279 107.069 0
    endloop
  endfacet
  facet normal -0.950984 -0.309241 0
    outer loop
      vertex 29.279 107.069 30
      vertex 29.3694 106.791 0
      vertex 29.3694 106.791 30
    endloop
  endfacet
  facet normal -0.994517 -0.104578 0
    outer loop
      vertex 29.4 106.5 0
      vertex 29.3694 106.791 30
      vertex 29.3694 106.791 0
    endloop
  endfacet
  facet normal -0.994517 -0.104578 0
    outer loop
      vertex 29.3694 106.791 30
      vertex 29.4 106.5 0
      vertex 29.4 106.5 30
    endloop
  endfacet
  facet normal -0.86639 -0.499368 0
    outer loop
      vertex 29.279 107.069 0
      vertex 29.1326 107.323 30
      vertex 29.1326 107.323 0
    endloop
  endfacet
  facet normal -0.86639 -0.499368 0
    outer loop
      vertex 29.1326 107.323 30
      vertex 29.279 107.069 0
      vertex 29.279 107.069 30
    endloop
  endfacet
  facet normal -0.994517 0.104578 0
    outer loop
      vertex 29.3694 106.209 0
      vertex 29.4 106.5 30
      vertex 29.4 106.5 0
    endloop
  endfacet
  facet normal -0.994517 0.104578 0
    outer loop
      vertex 29.4 106.5 30
      vertex 29.3694 106.209 0
      vertex 29.3694 106.209 30
    endloop
  endfacet
  facet normal 0.742443 -0.669909 0
    outer loop
      vertex 26.8674 107.323 30
      vertex 27.0632 107.54 0
      vertex 27.0632 107.54 30
    endloop
  endfacet
  facet normal 0.742443 -0.669909 0
    outer loop
      vertex 27.0632 107.54 0
      vertex 26.8674 107.323 30
      vertex 26.8674 107.323 0
    endloop
  endfacet
  facet normal -0.587684 0.809091 0
    outer loop
      vertex 28.9368 105.46 0
      vertex 28.7 105.288 30
      vertex 28.9368 105.46 30
    endloop
  endfacet
  facet normal -0.587684 0.809091 0
    outer loop
      vertex 28.7 105.288 30
      vertex 28.9368 105.46 0
      vertex 28.7 105.288 0
    endloop
  endfacet
  facet normal -0.742443 -0.669909 0
    outer loop
      vertex 29.1326 107.323 0
      vertex 28.9368 107.54 30
      vertex 28.9368 107.54 0
    endloop
  endfacet
  facet normal -0.742443 -0.669909 0
    outer loop
      vertex 28.9368 107.54 30
      vertex 29.1326 107.323 0
      vertex 29.1326 107.323 30
    endloop
  endfacet
  facet normal 0.406582 -0.913614 0
    outer loop
      vertex 27.3 107.712 0
      vertex 27.5674 107.831 30
      vertex 27.3 107.712 30
    endloop
  endfacet
  facet normal 0.406582 -0.913614 0
    outer loop
      vertex 27.5674 107.831 30
      vertex 27.3 107.712 0
      vertex 27.5674 107.831 0
    endloop
  endfacet
  facet normal 0.994517 -0.104578 0
    outer loop
      vertex 26.6 106.5 30
      vertex 26.6306 106.791 0
      vertex 26.6306 106.791 30
    endloop
  endfacet
  facet normal 0.994517 -0.104578 0
    outer loop
      vertex 26.6306 106.791 0
      vertex 26.6 106.5 30
      vertex 26.6 106.5 0
    endloop
  endfacet
  facet normal 0.587684 -0.809091 0
    outer loop
      vertex 27.0632 107.54 0
      vertex 27.3 107.712 30
      vertex 27.0632 107.54 30
    endloop
  endfacet
  facet normal 0.587684 -0.809091 0
    outer loop
      vertex 27.3 107.712 30
      vertex 27.0632 107.54 0
      vertex 27.3 107.712 0
    endloop
  endfacet
  facet normal -0.742443 0.669909 0
    outer loop
      vertex 28.9368 105.46 0
      vertex 29.1326 105.677 30
      vertex 29.1326 105.677 0
    endloop
  endfacet
  facet normal -0.742443 0.669909 0
    outer loop
      vertex 29.1326 105.677 30
      vertex 28.9368 105.46 0
      vertex 28.9368 105.46 30
    endloop
  endfacet
  facet normal 0.587684 0.809091 -0
    outer loop
      vertex 27.3 105.288 0
      vertex 27.0632 105.46 30
      vertex 27.3 105.288 30
    endloop
  endfacet
  facet normal 0.587684 0.809091 0
    outer loop
      vertex 27.0632 105.46 30
      vertex 27.3 105.288 0
      vertex 27.0632 105.46 0
    endloop
  endfacet
  facet normal -0.208386 -0.978047 0
    outer loop
      vertex 28.1463 107.892 0
      vertex 28.4326 107.831 30
      vertex 28.1463 107.892 30
    endloop
  endfacet
  facet normal -0.208386 -0.978047 -0
    outer loop
      vertex 28.4326 107.831 30
      vertex 28.1463 107.892 0
      vertex 28.4326 107.831 0
    endloop
  endfacet
  facet normal 0.86639 -0.499368 0
    outer loop
      vertex 26.721 107.069 30
      vertex 26.8674 107.323 0
      vertex 26.8674 107.323 30
    endloop
  endfacet
  facet normal 0.86639 -0.499368 0
    outer loop
      vertex 26.8674 107.323 0
      vertex 26.721 107.069 30
      vertex 26.721 107.069 0
    endloop
  endfacet
  facet normal 0.208386 -0.978047 0
    outer loop
      vertex 27.5674 107.831 0
      vertex 27.8537 107.892 30
      vertex 27.5674 107.831 30
    endloop
  endfacet
  facet normal 0.208386 -0.978047 0
    outer loop
      vertex 27.8537 107.892 30
      vertex 27.5674 107.831 0
      vertex 27.8537 107.892 0
    endloop
  endfacet
  facet normal -0.86639 0.499368 0
    outer loop
      vertex 29.1326 105.677 0
      vertex 29.279 105.931 30
      vertex 29.279 105.931 0
    endloop
  endfacet
  facet normal -0.86639 0.499368 0
    outer loop
      vertex 29.279 105.931 30
      vertex 29.1326 105.677 0
      vertex 29.1326 105.677 30
    endloop
  endfacet
  facet normal -0.950984 0.309241 0
    outer loop
      vertex 29.279 105.931 0
      vertex 29.3694 106.209 30
      vertex 29.3694 106.209 0
    endloop
  endfacet
  facet normal -0.950984 0.309241 0
    outer loop
      vertex 29.3694 106.209 30
      vertex 29.279 105.931 0
      vertex 29.279 105.931 30
    endloop
  endfacet
  facet normal 0.208386 0.978047 -0
    outer loop
      vertex 27.8537 105.108 0
      vertex 27.5674 105.169 30
      vertex 27.8537 105.108 30
    endloop
  endfacet
  facet normal 0.208386 0.978047 0
    outer loop
      vertex 27.5674 105.169 30
      vertex 27.8537 105.108 0
      vertex 27.5674 105.169 0
    endloop
  endfacet
  facet normal 0.994517 0.104578 0
    outer loop
      vertex 26.6306 106.209 30
      vertex 26.6 106.5 0
      vertex 26.6 106.5 30
    endloop
  endfacet
  facet normal 0.994517 0.104578 0
    outer loop
      vertex 26.6 106.5 0
      vertex 26.6306 106.209 30
      vertex 26.6306 106.209 0
    endloop
  endfacet
  facet normal 0 -1 0
    outer loop
      vertex 27.8537 107.892 0
      vertex 28.1463 107.892 30
      vertex 27.8537 107.892 30
    endloop
  endfacet
  facet normal 0 -1 -0
    outer loop
      vertex 28.1463 107.892 30
      vertex 27.8537 107.892 0
      vertex 28.1463 107.892 0
    endloop
  endfacet
  facet normal 0.86639 0.499368 0
    outer loop
      vertex 26.8674 105.677 30
      vertex 26.721 105.931 0
      vertex 26.721 105.931 30
    endloop
  endfacet
  facet normal 0.86639 0.499368 0
    outer loop
      vertex 26.721 105.931 0
      vertex 26.8674 105.677 30
      vertex 26.8674 105.677 0
    endloop
  endfacet
  facet normal -0.587684 -0.809091 0
    outer loop
      vertex 28.7 107.712 0
      vertex 28.9368 107.54 30
      vertex 28.7 107.712 30
    endloop
  endfacet
  facet normal -0.587684 -0.809091 -0
    outer loop
      vertex 28.9368 107.54 30
      vertex 28.7 107.712 0
      vertex 28.9368 107.54 0
    endloop
  endfacet
  facet normal -0.406582 -0.913614 0
    outer loop
      vertex 28.4326 107.831 0
      vertex 28.7 107.712 30
      vertex 28.4326 107.831 30
    endloop
  endfacet
  facet normal -0.406582 -0.913614 -0
    outer loop
      vertex 28.7 107.712 30
      vertex 28.4326 107.831 0
      vertex 28.7 107.712 0
    endloop
  endfacet
  facet normal 0.742443 0.669909 0
    outer loop
      vertex 27.0632 105.46 30
      vertex 26.8674 105.677 0
      vertex 26.8674 105.677 30
    endloop
  endfacet
  facet normal 0.742443 0.669909 0
    outer loop
      vertex 26.8674 105.677 0
      vertex 27.0632 105.46 30
      vertex 27.0632 105.46 0
    endloop
  endfacet
  facet normal 0.406582 0.913614 -0
    outer loop
      vertex 27.5674 105.169 0
      vertex 27.3 105.288 30
      vertex 27.5674 105.169 30
    endloop
  endfacet
  facet normal 0.406582 0.913614 0
    outer loop
      vertex 27.3 105.288 30
      vertex 27.5674 105.169 0
      vertex 27.3 105.288 0
    endloop
  endfacet
  facet normal 0.950984 0.309241 0
    outer loop
      vertex 26.721 105.931 30
      vertex 26.6306 106.209 0
      vertex 26.6306 106.209 30
    endloop
  endfacet
  facet normal 0.950984 0.309241 0
    outer loop
      vertex 26.6306 106.209 0
      vertex 26.721 105.931 30
      vertex 26.721 105.931 0
    endloop
  endfacet
  facet normal -0.208386 0.978047 0
    outer loop
      vertex 28.4326 105.169 0
      vertex 28.1463 105.108 30
      vertex 28.4326 105.169 30
    endloop
  endfacet
  facet normal -0.208386 0.978047 0
    outer loop
      vertex 28.1463 105.108 30
      vertex 28.4326 105.169 0
      vertex 28.1463 105.108 0
    endloop
  endfacet
  facet normal -0.406582 0.913614 0
    outer loop
      vertex 28.7 105.288 0
      vertex 28.4326 105.169 30
      vertex 28.7 105.288 30
    endloop
  endfacet
  facet normal -0.406582 0.913614 0
    outer loop
      vertex 28.4326 105.169 30
      vertex 28.7 105.288 0
      vertex 28.4326 105.169 0
    endloop
  endfacet
  facet normal 0 1 -0
    outer loop
      vertex 28.1463 105.108 0
      vertex 27.8537 105.108 30
      vertex 28.1463 105.108 30
    endloop
  endfacet
  facet normal 0 1 0
    outer loop
      vertex 27.8537 105.108 30
      vertex 28.1463 105.108 0
      vertex 27.8537 105.108 0
    endloop
  endfacet
  facet normal 0.950984 -0.309241 0
    outer loop
      vertex 26.6306 106.791 30
      vertex 26.721 107.069 0
      vertex 26.721 107.069 30
    endloop
  endfacet
  facet normal 0.950984 -0.309241 0
    outer loop
      vertex 26.721 107.069 0
      vertex 26.6306 106.791 30
      vertex 26.6306 106.791 0
    endloop
  endfacet
  facet normal 0 -1 0
    outer loop
      vertex 35.8537 107.892 0
      vertex 36.1463 107.892 30
      vertex 35.8537 107.892 30
    endloop
  endfacet
  facet normal 0 -1 -0
    outer loop
      vertex 36.1463 107.892 30
      vertex 35.8537 107.892 0
      vertex 36.1463 107.892 0
    endloop
  endfacet
  facet normal -0.950984 -0.309241 0
    outer loop
      vertex 37.3694 106.791 0
      vertex 37.279 107.069 30
      vertex 37.279 107.069 0
    endloop
  endfacet
  facet normal -0.950984 -0.309241 0
    outer loop
      vertex 37.279 107.069 30
      vertex 37.3694 106.791 0
      vertex 37.3694 106.791 30
    endloop
  endfacet
  facet normal -0.994517 -0.104578 0
    outer loop
      vertex 37.4 106.5 0
      vertex 37.3694 106.791 30
      vertex 37.3694 106.791 0
    endloop
  endfacet
  facet normal -0.994517 -0.104578 0
    outer loop
      vertex 37.3694 106.791 30
      vertex 37.4 106.5 0
      vertex 37.4 106.5 30
    endloop
  endfacet
  facet normal -0.86639 -0.499368 0
    outer loop
      vertex 37.279 107.069 0
      vertex 37.1326 107.323 30
      vertex 37.1326 107.323 0
    endloop
  endfacet
  facet normal -0.86639 -0.499368 0
    outer loop
      vertex 37.1326 107.323 30
      vertex 37.279 107.069 0
      vertex 37.279 107.069 30
    endloop
  endfacet
  facet normal 0.587684 0.809091 -0
    outer loop
      vertex 35.3 105.288 0
      vertex 35.0632 105.46 30
      vertex 35.3 105.288 30
    endloop
  endfacet
  facet normal 0.587684 0.809091 0
    outer loop
      vertex 35.0632 105.46 30
      vertex 35.3 105.288 0
      vertex 35.0632 105.46 0
    endloop
  endfacet
  facet normal 0.950984 0.309241 0
    outer loop
      vertex 34.721 105.931 30
      vertex 34.6306 106.209 0
      vertex 34.6306 106.209 30
    endloop
  endfacet
  facet normal 0.950984 0.309241 0
    outer loop
      vertex 34.6306 106.209 0
      vertex 34.721 105.931 30
      vertex 34.721 105.931 0
    endloop
  endfacet
  facet normal -0.994517 0.104578 0
    outer loop
      vertex 37.3694 106.209 0
      vertex 37.4 106.5 30
      vertex 37.4 106.5 0
    endloop
  endfacet
  facet normal -0.994517 0.104578 0
    outer loop
      vertex 37.4 106.5 30
      vertex 37.3694 106.209 0
      vertex 37.3694 106.209 30
    endloop
  endfacet
  facet normal 0.742443 -0.669909 0
    outer loop
      vertex 34.8674 107.323 30
      vertex 35.0632 107.54 0
      vertex 35.0632 107.54 30
    endloop
  endfacet
  facet normal 0.742443 -0.669909 0
    outer loop
      vertex 35.0632 107.54 0
      vertex 34.8674 107.323 30
      vertex 34.8674 107.323 0
    endloop
  endfacet
  facet normal -0.742443 -0.669909 0
    outer loop
      vertex 37.1326 107.323 0
      vertex 36.9368 107.54 30
      vertex 36.9368 107.54 0
    endloop
  endfacet
  facet normal -0.742443 -0.669909 0
    outer loop
      vertex 36.9368 107.54 30
      vertex 37.1326 107.323 0
      vertex 37.1326 107.323 30
    endloop
  endfacet
  facet normal 0.406582 -0.913614 0
    outer loop
      vertex 35.3 107.712 0
      vertex 35.5674 107.831 30
      vertex 35.3 107.712 30
    endloop
  endfacet
  facet normal 0.406582 -0.913614 0
    outer loop
      vertex 35.5674 107.831 30
      vertex 35.3 107.712 0
      vertex 35.5674 107.831 0
    endloop
  endfacet
  facet normal 0.208386 0.978047 -0
    outer loop
      vertex 35.8537 105.108 0
      vertex 35.5674 105.169 30
      vertex 35.8537 105.108 30
    endloop
  endfacet
  facet normal 0.208386 0.978047 0
    outer loop
      vertex 35.5674 105.169 30
      vertex 35.8537 105.108 0
      vertex 35.5674 105.169 0
    endloop
  endfacet
  facet normal 0.950984 -0.309241 0
    outer loop
      vertex 34.6306 106.791 30
      vertex 34.721 107.069 0
      vertex 34.721 107.069 30
    endloop
  endfacet
  facet normal 0.950984 -0.309241 0
    outer loop
      vertex 34.721 107.069 0
      vertex 34.6306 106.791 30
      vertex 34.6306 106.791 0
    endloop
  endfacet
  facet normal 0.587684 -0.809091 0
    outer loop
      vertex 35.0632 107.54 0
      vertex 35.3 107.712 30
      vertex 35.0632 107.54 30
    endloop
  endfacet
  facet normal 0.587684 -0.809091 0
    outer loop
      vertex 35.3 107.712 30
      vertex 35.0632 107.54 0
      vertex 35.3 107.712 0
    endloop
  endfacet
  facet normal -0.742443 0.669909 0
    outer loop
      vertex 36.9368 105.46 0
      vertex 37.1326 105.677 30
      vertex 37.1326 105.677 0
    endloop
  endfacet
  facet normal -0.742443 0.669909 0
    outer loop
      vertex 37.1326 105.677 30
      vertex 36.9368 105.46 0
      vertex 36.9368 105.46 30
    endloop
  endfacet
  facet normal 0.994517 -0.104578 0
    outer loop
      vertex 34.6 106.5 30
      vertex 34.6306 106.791 0
      vertex 34.6306 106.791 30
    endloop
  endfacet
  facet normal 0.994517 -0.104578 0
    outer loop
      vertex 34.6306 106.791 0
      vertex 34.6 106.5 30
      vertex 34.6 106.5 0
    endloop
  endfacet
  facet normal -0.950984 0.309241 0
    outer loop
      vertex 37.279 105.931 0
      vertex 37.3694 106.209 30
      vertex 37.3694 106.209 0
    endloop
  endfacet
  facet normal -0.950984 0.309241 0
    outer loop
      vertex 37.3694 106.209 30
      vertex 37.279 105.931 0
      vertex 37.279 105.931 30
    endloop
  endfacet
  facet normal -0.208386 -0.978047 0
    outer loop
      vertex 36.1463 107.892 0
      vertex 36.4326 107.831 30
      vertex 36.1463 107.892 30
    endloop
  endfacet
  facet normal -0.208386 -0.978047 -0
    outer loop
      vertex 36.4326 107.831 30
      vertex 36.1463 107.892 0
      vertex 36.4326 107.831 0
    endloop
  endfacet
  facet normal 0.208386 -0.978047 0
    outer loop
      vertex 35.5674 107.831 0
      vertex 35.8537 107.892 30
      vertex 35.5674 107.831 30
    endloop
  endfacet
  facet normal 0.208386 -0.978047 0
    outer loop
      vertex 35.8537 107.892 30
      vertex 35.5674 107.831 0
      vertex 35.8537 107.892 0
    endloop
  endfacet
  facet normal 0 1 -0
    outer loop
      vertex 36.1463 105.108 0
      vertex 35.8537 105.108 30
      vertex 36.1463 105.108 30
    endloop
  endfacet
  facet normal 0 1 0
    outer loop
      vertex 35.8537 105.108 30
      vertex 36.1463 105.108 0
      vertex 35.8537 105.108 0
    endloop
  endfacet
  facet normal 0.742443 0.669909 0
    outer loop
      vertex 35.0632 105.46 30
      vertex 34.8674 105.677 0
      vertex 34.8674 105.677 30
    endloop
  endfacet
  facet normal 0.742443 0.669909 0
    outer loop
      vertex 34.8674 105.677 0
      vertex 35.0632 105.46 30
      vertex 35.0632 105.46 0
    endloop
  endfacet
  facet normal -0.587684 0.809091 0
    outer loop
      vertex 36.9368 105.46 0
      vertex 36.7 105.288 30
      vertex 36.9368 105.46 30
    endloop
  endfacet
  facet normal -0.587684 0.809091 0
    outer loop
      vertex 36.7 105.288 30
      vertex 36.9368 105.46 0
      vertex 36.7 105.288 0
    endloop
  endfacet
  facet normal -0.86639 0.499368 0
    outer loop
      vertex 37.1326 105.677 0
      vertex 37.279 105.931 30
      vertex 37.279 105.931 0
    endloop
  endfacet
  facet normal -0.86639 0.499368 0
    outer loop
      vertex 37.279 105.931 30
      vertex 37.1326 105.677 0
      vertex 37.1326 105.677 30
    endloop
  endfacet
  facet normal -0.587684 -0.809091 0
    outer loop
      vertex 36.7 107.712 0
      vertex 36.9368 107.54 30
      vertex 36.7 107.712 30
    endloop
  endfacet
  facet normal -0.587684 -0.809091 -0
    outer loop
      vertex 36.9368 107.54 30
      vertex 36.7 107.712 0
      vertex 36.9368 107.54 0
    endloop
  endfacet
  facet normal -0.406582 -0.913614 0
    outer loop
      vertex 36.4326 107.831 0
      vertex 36.7 107.712 30
      vertex 36.4326 107.831 30
    endloop
  endfacet
  facet normal -0.406582 -0.913614 -0
    outer loop
      vertex 36.7 107.712 30
      vertex 36.4326 107.831 0
      vertex 36.7 107.712 0
    endloop
  endfacet
  facet normal -0.406582 0.913614 0
    outer loop
      vertex 36.7 105.288 0
      vertex 36.4326 105.169 30
      vertex 36.7 105.288 30
    endloop
  endfacet
  facet normal -0.406582 0.913614 0
    outer loop
      vertex 36.4326 105.169 30
      vertex 36.7 105.288 0
      vertex 36.4326 105.169 0
    endloop
  endfacet
  facet normal 0.86639 0.499368 0
    outer loop
      vertex 34.8674 105.677 30
      vertex 34.721 105.931 0
      vertex 34.721 105.931 30
    endloop
  endfacet
  facet normal 0.86639 0.499368 0
    outer loop
      vertex 34.721 105.931 0
      vertex 34.8674 105.677 30
      vertex 34.8674 105.677 0
    endloop
  endfacet
  facet normal -0.208386 0.978047 0
    outer loop
      vertex 36.4326 105.169 0
      vertex 36.1463 105.108 30
      vertex 36.4326 105.169 30
    endloop
  endfacet
  facet normal -0.208386 0.978047 0
    outer loop
      vertex 36.1463 105.108 30
      vertex 36.4326 105.169 0
      vertex 36.1463 105.108 0
    endloop
  endfacet
  facet normal 0.406582 0.913614 -0
    outer loop
      vertex 35.5674 105.169 0
      vertex 35.3 105.288 30
      vertex 35.5674 105.169 30
    endloop
  endfacet
  facet normal 0.406582 0.913614 0
    outer loop
      vertex 35.3 105.288 30
      vertex 35.5674 105.169 0
      vertex 35.3 105.288 0
    endloop
  endfacet
  facet normal 0.994517 0.104578 0
    outer loop
      vertex 34.6306 106.209 30
      vertex 34.6 106.5 0
      vertex 34.6 106.5 30
    endloop
  endfacet
  facet normal 0.994517 0.104578 0
    outer loop
      vertex 34.6 106.5 0
      vertex 34.6306 106.209 30
      vertex 34.6306 106.209 0
    endloop
  endfacet
  facet normal 0.86639 -0.499368 0
    outer loop
      vertex 34.721 107.069 30
      vertex 34.8674 107.323 0
      vertex 34.8674 107.323 30
    endloop
  endfacet
  facet normal 0.86639 -0.499368 0
    outer loop
      vertex 34.8674 107.323 0
      vertex 34.721 107.069 30
      vertex 34.721 107.069 0
    endloop
  endfacet
endsolid OpenSCAD_Model
