solid OpenSCAD_Model
  facet normal 1 -0 0
    outer loop
      vertex 29.1 -29 45
      vertex 29.1 25 41
      vertex 29.1 25 45
    endloop
  endfacet
  facet normal 1 0 0
    outer loop
      vertex 29.1 25 41
      vertex 29.1 -29 45
      vertex 29.1 -29 41
    endloop
  endfacet
  facet normal 0 0 1
    outer loop
      vertex -21.5371 18.8832 45
      vertex -67.9629 18.8832 45
      vertex -21.5371 -22.8832 45
    endloop
  endfacet
  facet normal 0 0 1
    outer loop
      vertex -21.5371 -22.8832 45
      vertex -67.693 -23.4129 45
      vertex -67.6 -24 45
    endloop
  endfacet
  facet normal 0 0 1
    outer loop
      vertex -67.9629 -22.8832 45
      vertex -21.5371 -22.8832 45
      vertex -67.9629 18.8832 45
    endloop
  endfacet
  facet normal 0 0 1
    outer loop
      vertex -21.5371 -22.8832 45
      vertex -67.9629 -22.8832 45
      vertex -67.693 -23.4129 45
    endloop
  endfacet
  facet normal -0 0 1
    outer loop
      vertex -68.3832 18.4629 45
      vertex -67.9629 -22.8832 45
      vertex -67.9629 18.8832 45
    endloop
  endfacet
  facet normal 0 0 1
    outer loop
      vertex -68.3832 18.4629 45
      vertex -68.3832 -22.4629 45
      vertex -67.9629 -22.8832 45
    endloop
  endfacet
  facet normal -0 0 1
    outer loop
      vertex -68.9129 18.193 45
      vertex -68.3832 -22.4629 45
      vertex -68.3832 18.4629 45
    endloop
  endfacet
  facet normal 0 0 1
    outer loop
      vertex -68.9129 18.193 45
      vertex -68.9129 -22.193 45
      vertex -68.3832 -22.4629 45
    endloop
  endfacet
  facet normal -0 0 1
    outer loop
      vertex -69.5 18.1 45
      vertex -68.9129 -22.193 45
      vertex -68.9129 18.193 45
    endloop
  endfacet
  facet normal 0 0 1
    outer loop
      vertex -69.5 18.1 45
      vertex -69.5 -22.1 45
      vertex -68.9129 -22.193 45
    endloop
  endfacet
  facet normal 0 0 1
    outer loop
      vertex -70.0871 18.193 45
      vertex -69.5 -22.1 45
      vertex -69.5 18.1 45
    endloop
  endfacet
  facet normal 0 0 1
    outer loop
      vertex -70.0871 18.193 45
      vertex -70.0871 -22.193 45
      vertex -69.5 -22.1 45
    endloop
  endfacet
  facet normal 0 0 1
    outer loop
      vertex -70.6168 18.4629 45
      vertex -70.0871 -22.193 45
      vertex -70.0871 18.193 45
    endloop
  endfacet
  facet normal 0 0 1
    outer loop
      vertex -70.6168 18.4629 45
      vertex -70.6168 -22.4629 45
      vertex -70.0871 -22.193 45
    endloop
  endfacet
  facet normal 0 0 1
    outer loop
      vertex -71.0371 18.8832 45
      vertex -70.6168 -22.4629 45
      vertex -70.6168 18.4629 45
    endloop
  endfacet
  facet normal 0 0 1
    outer loop
      vertex -71.0371 18.8832 45
      vertex -71.0371 -22.8832 45
      vertex -70.6168 -22.4629 45
    endloop
  endfacet
  facet normal 0 0 1
    outer loop
      vertex -71.307 19.4129 45
      vertex -71.0371 -22.8832 45
      vertex -71.0371 18.8832 45
    endloop
  endfacet
  facet normal 0 0 1
    outer loop
      vertex -71.307 19.4129 45
      vertex -71.307 -23.4129 45
      vertex -71.0371 -22.8832 45
    endloop
  endfacet
  facet normal 0 0 1
    outer loop
      vertex -73.9 25 45
      vertex -71.307 19.4129 45
      vertex -71.4 20 45
    endloop
  endfacet
  facet normal 0 0 1
    outer loop
      vertex -71.307 19.4129 45
      vertex -73.9 25 45
      vertex -71.307 -23.4129 45
    endloop
  endfacet
  facet normal 0 0 1
    outer loop
      vertex 22.9629 18.8832 45
      vertex -18.4629 18.8832 45
      vertex 22.9629 -22.8832 45
    endloop
  endfacet
  facet normal 0 0 1
    outer loop
      vertex 22.9629 -22.8832 45
      vertex -18.193 -23.4129 45
      vertex -18.1 -24 45
    endloop
  endfacet
  facet normal 0 0 1
    outer loop
      vertex -18.4629 -22.8832 45
      vertex 22.9629 -22.8832 45
      vertex -18.4629 18.8832 45
    endloop
  endfacet
  facet normal 0 0 1
    outer loop
      vertex 22.9629 -22.8832 45
      vertex -18.4629 -22.8832 45
      vertex -18.193 -23.4129 45
    endloop
  endfacet
  facet normal -0 0 1
    outer loop
      vertex -18.8832 18.4629 45
      vertex -18.4629 -22.8832 45
      vertex -18.4629 18.8832 45
    endloop
  endfacet
  facet normal 0 0 1
    outer loop
      vertex -18.8832 18.4629 45
      vertex -18.8832 -22.4629 45
      vertex -18.4629 -22.8832 45
    endloop
  endfacet
  facet normal -0 0 1
    outer loop
      vertex -19.4129 18.193 45
      vertex -18.8832 -22.4629 45
      vertex -18.8832 18.4629 45
    endloop
  endfacet
  facet normal 0 0 1
    outer loop
      vertex -19.4129 18.193 45
      vertex -19.4129 -22.193 45
      vertex -18.8832 -22.4629 45
    endloop
  endfacet
  facet normal -0 0 1
    outer loop
      vertex -20 18.1 45
      vertex -19.4129 -22.193 45
      vertex -19.4129 18.193 45
    endloop
  endfacet
  facet normal 0 0 1
    outer loop
      vertex -20 18.1 45
      vertex -20 -22.1 45
      vertex -19.4129 -22.193 45
    endloop
  endfacet
  facet normal 0 0 1
    outer loop
      vertex -20.5871 18.193 45
      vertex -20 -22.1 45
      vertex -20 18.1 45
    endloop
  endfacet
  facet normal 0 0 1
    outer loop
      vertex -20.5871 18.193 45
      vertex -20.5871 -22.193 45
      vertex -20 -22.1 45
    endloop
  endfacet
  facet normal 0 0 1
    outer loop
      vertex -21.1168 18.4629 45
      vertex -20.5871 -22.193 45
      vertex -20.5871 18.193 45
    endloop
  endfacet
  facet normal 0 0 1
    outer loop
      vertex -21.1168 18.4629 45
      vertex -21.1168 -22.4629 45
      vertex -20.5871 -22.193 45
    endloop
  endfacet
  facet normal 0 0 1
    outer loop
      vertex -21.5371 18.8832 45
      vertex -21.1168 -22.4629 45
      vertex -21.1168 18.4629 45
    endloop
  endfacet
  facet normal 0 0 1
    outer loop
      vertex -21.5371 18.8832 45
      vertex -21.5371 -22.8832 45
      vertex -21.1168 -22.4629 45
    endloop
  endfacet
  facet normal 0 0 1
    outer loop
      vertex -67.693 19.4129 45
      vertex -21.807 19.4129 45
      vertex -67.6 20 45
    endloop
  endfacet
  facet normal 0 0 1
    outer loop
      vertex -21.807 19.4129 45
      vertex -67.693 19.4129 45
      vertex -21.5371 18.8832 45
    endloop
  endfacet
  facet normal -0 0 1
    outer loop
      vertex -67.6 20 45
      vertex -21.807 19.4129 45
      vertex -21.9 20 45
    endloop
  endfacet
  facet normal 0 0 1
    outer loop
      vertex -67.9629 18.8832 45
      vertex -21.5371 18.8832 45
      vertex -67.693 19.4129 45
    endloop
  endfacet
  facet normal -0 0 1
    outer loop
      vertex 26.307 -23.4129 45
      vertex 29.1 -29 45
      vertex 26.307 19.4129 45
    endloop
  endfacet
  facet normal 0 0 1
    outer loop
      vertex 29.1 -29 45
      vertex 26.307 -23.4129 45
      vertex 26.4 -24 45
    endloop
  endfacet
  facet normal -0 0 1
    outer loop
      vertex 26.0371 18.8832 45
      vertex 26.307 -23.4129 45
      vertex 26.307 19.4129 45
    endloop
  endfacet
  facet normal 0 0 1
    outer loop
      vertex 26.0371 18.8832 45
      vertex 26.0371 -22.8832 45
      vertex 26.307 -23.4129 45
    endloop
  endfacet
  facet normal -0 0 1
    outer loop
      vertex 25.6168 18.4629 45
      vertex 26.0371 -22.8832 45
      vertex 26.0371 18.8832 45
    endloop
  endfacet
  facet normal 0 0 1
    outer loop
      vertex 25.6168 18.4629 45
      vertex 25.6168 -22.4629 45
      vertex 26.0371 -22.8832 45
    endloop
  endfacet
  facet normal -0 0 1
    outer loop
      vertex 25.0871 18.193 45
      vertex 25.6168 -22.4629 45
      vertex 25.6168 18.4629 45
    endloop
  endfacet
  facet normal 0 0 1
    outer loop
      vertex 25.0871 18.193 45
      vertex 25.0871 -22.193 45
      vertex 25.6168 -22.4629 45
    endloop
  endfacet
  facet normal -0 0 1
    outer loop
      vertex 24.5 18.1 45
      vertex 25.0871 -22.193 45
      vertex 25.0871 18.193 45
    endloop
  endfacet
  facet normal 0 0 1
    outer loop
      vertex 24.5 18.1 45
      vertex 24.5 -22.1 45
      vertex 25.0871 -22.193 45
    endloop
  endfacet
  facet normal 0 0 1
    outer loop
      vertex 23.9129 18.193 45
      vertex 24.5 -22.1 45
      vertex 24.5 18.1 45
    endloop
  endfacet
  facet normal 0 0 1
    outer loop
      vertex 23.9129 18.193 45
      vertex 23.9129 -22.193 45
      vertex 24.5 -22.1 45
    endloop
  endfacet
  facet normal 0 0 1
    outer loop
      vertex 23.3832 18.4629 45
      vertex 23.9129 -22.193 45
      vertex 23.9129 18.193 45
    endloop
  endfacet
  facet normal 0 0 1
    outer loop
      vertex 23.3832 18.4629 45
      vertex 23.3832 -22.4629 45
      vertex 23.9129 -22.193 45
    endloop
  endfacet
  facet normal 0 0 1
    outer loop
      vertex 22.9629 18.8832 45
      vertex 23.3832 -22.4629 45
      vertex 23.3832 18.4629 45
    endloop
  endfacet
  facet normal 0 0 1
    outer loop
      vertex 22.9629 18.8832 45
      vertex 22.9629 -22.8832 45
      vertex 23.3832 -22.4629 45
    endloop
  endfacet
  facet normal 0 0 1
    outer loop
      vertex -18.193 19.4129 45
      vertex 22.693 19.4129 45
      vertex -18.1 20 45
    endloop
  endfacet
  facet normal 0 0 1
    outer loop
      vertex 22.693 19.4129 45
      vertex -18.193 19.4129 45
      vertex 22.9629 18.8832 45
    endloop
  endfacet
  facet normal -0 0 1
    outer loop
      vertex -18.1 20 45
      vertex 22.693 19.4129 45
      vertex 22.6 20 45
    endloop
  endfacet
  facet normal 0 0 1
    outer loop
      vertex -18.4629 18.8832 45
      vertex 22.9629 18.8832 45
      vertex -18.193 19.4129 45
    endloop
  endfacet
  facet normal 0 0 1
    outer loop
      vertex 26.307 19.4129 45
      vertex 29.1 25 45
      vertex 26.4 20 45
    endloop
  endfacet
  facet normal 0 0 1
    outer loop
      vertex 29.1 25 45
      vertex 26.307 20.5871 45
      vertex 26.4 20 45
    endloop
  endfacet
  facet normal 0 0 1
    outer loop
      vertex 29.1 25 45
      vertex 26.0371 21.1168 45
      vertex 26.307 20.5871 45
    endloop
  endfacet
  facet normal 0 0 1
    outer loop
      vertex 29.1 25 45
      vertex 25.6168 21.5371 45
      vertex 26.0371 21.1168 45
    endloop
  endfacet
  facet normal 0 0 1
    outer loop
      vertex 29.1 25 45
      vertex 25.0871 21.807 45
      vertex 25.6168 21.5371 45
    endloop
  endfacet
  facet normal 0 0 1
    outer loop
      vertex 29.1 25 45
      vertex 24.5 21.9 45
      vertex 25.0871 21.807 45
    endloop
  endfacet
  facet normal 0 0 1
    outer loop
      vertex 29.1 25 45
      vertex 23.9129 21.807 45
      vertex 24.5 21.9 45
    endloop
  endfacet
  facet normal 0 0 1
    outer loop
      vertex 29.1 25 45
      vertex 23.3832 21.5371 45
      vertex 23.9129 21.807 45
    endloop
  endfacet
  facet normal 0 0 1
    outer loop
      vertex 22.9629 -22.8832 45
      vertex -18.1 -24 45
      vertex 22.693 -23.4129 45
    endloop
  endfacet
  facet normal 0 0 1
    outer loop
      vertex 22.693 20.5871 45
      vertex -18.1 20 45
      vertex 22.6 20 45
    endloop
  endfacet
  facet normal 0 0 1
    outer loop
      vertex -18.193 20.5871 45
      vertex 22.693 20.5871 45
      vertex 22.9629 21.1168 45
    endloop
  endfacet
  facet normal 0 0 1
    outer loop
      vertex -18.4629 21.1168 45
      vertex 22.9629 21.1168 45
      vertex 23.3832 21.5371 45
    endloop
  endfacet
  facet normal 0 0 1
    outer loop
      vertex -18.8832 21.5371 45
      vertex 23.3832 21.5371 45
      vertex 29.1 25 45
    endloop
  endfacet
  facet normal 0 0 1
    outer loop
      vertex 22.693 20.5871 45
      vertex -18.193 20.5871 45
      vertex -18.1 20 45
    endloop
  endfacet
  facet normal 0 0 1
    outer loop
      vertex 22.9629 21.1168 45
      vertex -18.4629 21.1168 45
      vertex -18.193 20.5871 45
    endloop
  endfacet
  facet normal 0 0 1
    outer loop
      vertex 23.3832 21.5371 45
      vertex -18.8832 21.5371 45
      vertex -18.4629 21.1168 45
    endloop
  endfacet
  facet normal 0 0 1
    outer loop
      vertex 29.1 25 45
      vertex -19.4129 21.807 45
      vertex -18.8832 21.5371 45
    endloop
  endfacet
  facet normal 0 0 1
    outer loop
      vertex 29.1 25 45
      vertex -20 21.9 45
      vertex -19.4129 21.807 45
    endloop
  endfacet
  facet normal 0 0 1
    outer loop
      vertex -21.5371 -22.8832 45
      vertex -67.6 -24 45
      vertex -21.807 -23.4129 45
    endloop
  endfacet
  facet normal 0 0 1
    outer loop
      vertex -21.807 20.5871 45
      vertex -67.6 20 45
      vertex -21.9 20 45
    endloop
  endfacet
  facet normal 0 0 1
    outer loop
      vertex -67.693 20.5871 45
      vertex -21.807 20.5871 45
      vertex -21.5371 21.1168 45
    endloop
  endfacet
  facet normal 0 0 1
    outer loop
      vertex -67.9629 21.1168 45
      vertex -21.5371 21.1168 45
      vertex -21.1168 21.5371 45
    endloop
  endfacet
  facet normal 0 0 1
    outer loop
      vertex -73.9 25 45
      vertex -21.1168 21.5371 45
      vertex -20.5871 21.807 45
    endloop
  endfacet
  facet normal 0 0 1
    outer loop
      vertex -73.9 25 45
      vertex -20.5871 21.807 45
      vertex -20 21.9 45
    endloop
  endfacet
  facet normal -0 0 1
    outer loop
      vertex -73.9 25 45
      vertex -20 21.9 45
      vertex 29.1 25 45
    endloop
  endfacet
  facet normal 0 0 1
    outer loop
      vertex -21.807 20.5871 45
      vertex -67.693 20.5871 45
      vertex -67.6 20 45
    endloop
  endfacet
  facet normal 0 0 1
    outer loop
      vertex -21.5371 21.1168 45
      vertex -67.9629 21.1168 45
      vertex -67.693 20.5871 45
    endloop
  endfacet
  facet normal 0 0 1
    outer loop
      vertex -21.1168 21.5371 45
      vertex -68.3832 21.5371 45
      vertex -67.9629 21.1168 45
    endloop
  endfacet
  facet normal 0 0 1
    outer loop
      vertex -21.1168 21.5371 45
      vertex -73.9 25 45
      vertex -68.3832 21.5371 45
    endloop
  endfacet
  facet normal 0 0 1
    outer loop
      vertex -68.3832 21.5371 45
      vertex -73.9 25 45
      vertex -68.9129 21.807 45
    endloop
  endfacet
  facet normal 0 0 1
    outer loop
      vertex -73.9 -29 45
      vertex -71.307 -23.4129 45
      vertex -73.9 25 45
    endloop
  endfacet
  facet normal 0 0 1
    outer loop
      vertex -71.307 20.5871 45
      vertex -73.9 25 45
      vertex -71.4 20 45
    endloop
  endfacet
  facet normal 0 0 1
    outer loop
      vertex -71.0371 21.1168 45
      vertex -73.9 25 45
      vertex -71.307 20.5871 45
    endloop
  endfacet
  facet normal 0 0 1
    outer loop
      vertex -70.6168 21.5371 45
      vertex -73.9 25 45
      vertex -71.0371 21.1168 45
    endloop
  endfacet
  facet normal 0 0 1
    outer loop
      vertex -70.0871 21.807 45
      vertex -73.9 25 45
      vertex -70.6168 21.5371 45
    endloop
  endfacet
  facet normal 0 0 1
    outer loop
      vertex -69.5 21.9 45
      vertex -73.9 25 45
      vertex -70.0871 21.807 45
    endloop
  endfacet
  facet normal 0 0 1
    outer loop
      vertex -68.9129 21.807 45
      vertex -73.9 25 45
      vertex -69.5 21.9 45
    endloop
  endfacet
  facet normal 0 0 1
    outer loop
      vertex 29.1 25 45
      vertex 26.307 19.4129 45
      vertex 29.1 -29 45
    endloop
  endfacet
  facet normal -0 0 1
    outer loop
      vertex 26.307 -24.5871 45
      vertex 29.1 -29 45
      vertex 26.4 -24 45
    endloop
  endfacet
  facet normal -0 0 1
    outer loop
      vertex 26.0371 -25.1168 45
      vertex 29.1 -29 45
      vertex 26.307 -24.5871 45
    endloop
  endfacet
  facet normal -0 0 1
    outer loop
      vertex 25.6168 -25.5371 45
      vertex 29.1 -29 45
      vertex 26.0371 -25.1168 45
    endloop
  endfacet
  facet normal -0 0 1
    outer loop
      vertex 25.0871 -25.807 45
      vertex 29.1 -29 45
      vertex 25.6168 -25.5371 45
    endloop
  endfacet
  facet normal -0 0 1
    outer loop
      vertex 24.5 -25.9 45
      vertex 29.1 -29 45
      vertex 25.0871 -25.807 45
    endloop
  endfacet
  facet normal 0 0 1
    outer loop
      vertex 23.9129 -25.807 45
      vertex 29.1 -29 45
      vertex 24.5 -25.9 45
    endloop
  endfacet
  facet normal 0 0 1
    outer loop
      vertex 23.3832 -25.5371 45
      vertex 29.1 -29 45
      vertex 23.9129 -25.807 45
    endloop
  endfacet
  facet normal 0 0 1
    outer loop
      vertex 22.693 -23.4129 45
      vertex -18.1 -24 45
      vertex 22.6 -24 45
    endloop
  endfacet
  facet normal 0 0 1
    outer loop
      vertex 22.6 -24 45
      vertex -18.1 -24 45
      vertex 22.693 -24.5871 45
    endloop
  endfacet
  facet normal 0 0 1
    outer loop
      vertex -18.193 -24.5871 45
      vertex 22.693 -24.5871 45
      vertex -18.1 -24 45
    endloop
  endfacet
  facet normal 0 0 1
    outer loop
      vertex 22.693 -24.5871 45
      vertex -18.193 -24.5871 45
      vertex 22.9629 -25.1168 45
    endloop
  endfacet
  facet normal 0 0 1
    outer loop
      vertex -18.4629 -25.1168 45
      vertex 22.9629 -25.1168 45
      vertex -18.193 -24.5871 45
    endloop
  endfacet
  facet normal 0 0 1
    outer loop
      vertex 22.9629 -25.1168 45
      vertex -18.4629 -25.1168 45
      vertex 23.3832 -25.5371 45
    endloop
  endfacet
  facet normal 0 0 1
    outer loop
      vertex -18.8832 -25.5371 45
      vertex 23.3832 -25.5371 45
      vertex -18.4629 -25.1168 45
    endloop
  endfacet
  facet normal 0 0 1
    outer loop
      vertex 23.3832 -25.5371 45
      vertex -18.8832 -25.5371 45
      vertex 29.1 -29 45
    endloop
  endfacet
  facet normal -0 0 1
    outer loop
      vertex -19.4129 -25.807 45
      vertex 29.1 -29 45
      vertex -18.8832 -25.5371 45
    endloop
  endfacet
  facet normal -0 0 1
    outer loop
      vertex -20 -25.9 45
      vertex 29.1 -29 45
      vertex -19.4129 -25.807 45
    endloop
  endfacet
  facet normal 0 0 1
    outer loop
      vertex -21.807 -23.4129 45
      vertex -67.6 -24 45
      vertex -21.9 -24 45
    endloop
  endfacet
  facet normal 0 0 1
    outer loop
      vertex -21.9 -24 45
      vertex -67.6 -24 45
      vertex -21.807 -24.5871 45
    endloop
  endfacet
  facet normal 0 0 1
    outer loop
      vertex -67.693 -24.5871 45
      vertex -21.807 -24.5871 45
      vertex -67.6 -24 45
    endloop
  endfacet
  facet normal 0 0 1
    outer loop
      vertex -21.807 -24.5871 45
      vertex -67.693 -24.5871 45
      vertex -21.5371 -25.1168 45
    endloop
  endfacet
  facet normal 0 0 1
    outer loop
      vertex -67.9629 -25.1168 45
      vertex -21.5371 -25.1168 45
      vertex -67.693 -24.5871 45
    endloop
  endfacet
  facet normal 0 0 1
    outer loop
      vertex -21.5371 -25.1168 45
      vertex -67.9629 -25.1168 45
      vertex -21.1168 -25.5371 45
    endloop
  endfacet
  facet normal 0 0 1
    outer loop
      vertex -68.3832 -25.5371 45
      vertex -21.1168 -25.5371 45
      vertex -67.9629 -25.1168 45
    endloop
  endfacet
  facet normal 0 0 1
    outer loop
      vertex -73.9 -29 45
      vertex -21.1168 -25.5371 45
      vertex -68.3832 -25.5371 45
    endloop
  endfacet
  facet normal 0 0 1
    outer loop
      vertex -21.1168 -25.5371 45
      vertex -73.9 -29 45
      vertex -20.5871 -25.807 45
    endloop
  endfacet
  facet normal 0 0 1
    outer loop
      vertex -20.5871 -25.807 45
      vertex -73.9 -29 45
      vertex -20 -25.9 45
    endloop
  endfacet
  facet normal 0 0 1
    outer loop
      vertex -73.9 -29 45
      vertex -68.3832 -25.5371 45
      vertex -68.9129 -25.807 45
    endloop
  endfacet
  facet normal 0 0 1
    outer loop
      vertex -73.9 -29 45
      vertex -68.9129 -25.807 45
      vertex -69.5 -25.9 45
    endloop
  endfacet
  facet normal 0 0 1
    outer loop
      vertex -20 -25.9 45
      vertex -73.9 -29 45
      vertex 29.1 -29 45
    endloop
  endfacet
  facet normal 0 0 1
    outer loop
      vertex -70.0871 -25.807 45
      vertex -73.9 -29 45
      vertex -69.5 -25.9 45
    endloop
  endfacet
  facet normal 0 0 1
    outer loop
      vertex -70.6168 -25.5371 45
      vertex -73.9 -29 45
      vertex -70.0871 -25.807 45
    endloop
  endfacet
  facet normal 0 0 1
    outer loop
      vertex -71.0371 -25.1168 45
      vertex -73.9 -29 45
      vertex -70.6168 -25.5371 45
    endloop
  endfacet
  facet normal 0 0 1
    outer loop
      vertex -71.307 -24.5871 45
      vertex -73.9 -29 45
      vertex -71.0371 -25.1168 45
    endloop
  endfacet
  facet normal 0 0 1
    outer loop
      vertex -71.4 -24 45
      vertex -73.9 -29 45
      vertex -71.307 -24.5871 45
    endloop
  endfacet
  facet normal 0 0 1
    outer loop
      vertex -71.307 -23.4129 45
      vertex -73.9 -29 45
      vertex -71.4 -24 45
    endloop
  endfacet
  facet normal 0 0 -1
    outer loop
      vertex -21.5371 -22.8832 41
      vertex -67.9629 -22.8832 41
      vertex -21.5371 18.8832 41
    endloop
  endfacet
  facet normal 0 0 -1
    outer loop
      vertex -21.5371 18.8832 41
      vertex -67.693 19.4129 41
      vertex -67.6 20 41
    endloop
  endfacet
  facet normal 0 0 -1
    outer loop
      vertex -67.9629 18.8832 41
      vertex -21.5371 18.8832 41
      vertex -67.9629 -22.8832 41
    endloop
  endfacet
  facet normal 0 0 -1
    outer loop
      vertex -21.5371 18.8832 41
      vertex -67.9629 18.8832 41
      vertex -67.693 19.4129 41
    endloop
  endfacet
  facet normal 0 0 -1
    outer loop
      vertex -68.3832 -22.4629 41
      vertex -67.9629 18.8832 41
      vertex -67.9629 -22.8832 41
    endloop
  endfacet
  facet normal 0 0 -1
    outer loop
      vertex -68.3832 -22.4629 41
      vertex -68.3832 18.4629 41
      vertex -67.9629 18.8832 41
    endloop
  endfacet
  facet normal 0 0 -1
    outer loop
      vertex -68.9129 -22.193 41
      vertex -68.3832 18.4629 41
      vertex -68.3832 -22.4629 41
    endloop
  endfacet
  facet normal 0 0 -1
    outer loop
      vertex -68.9129 -22.193 41
      vertex -68.9129 18.193 41
      vertex -68.3832 18.4629 41
    endloop
  endfacet
  facet normal 0 0 -1
    outer loop
      vertex -69.5 -22.1 41
      vertex -68.9129 18.193 41
      vertex -68.9129 -22.193 41
    endloop
  endfacet
  facet normal 0 0 -1
    outer loop
      vertex -69.5 -22.1 41
      vertex -69.5 18.1 41
      vertex -68.9129 18.193 41
    endloop
  endfacet
  facet normal 0 0 -1
    outer loop
      vertex -70.0871 -22.193 41
      vertex -69.5 18.1 41
      vertex -69.5 -22.1 41
    endloop
  endfacet
  facet normal 0 0 -1
    outer loop
      vertex -70.0871 -22.193 41
      vertex -70.0871 18.193 41
      vertex -69.5 18.1 41
    endloop
  endfacet
  facet normal 0 0 -1
    outer loop
      vertex -70.6168 -22.4629 41
      vertex -70.0871 18.193 41
      vertex -70.0871 -22.193 41
    endloop
  endfacet
  facet normal 0 0 -1
    outer loop
      vertex -70.6168 -22.4629 41
      vertex -70.6168 18.4629 41
      vertex -70.0871 18.193 41
    endloop
  endfacet
  facet normal 0 0 -1
    outer loop
      vertex -71.0371 -22.8832 41
      vertex -70.6168 18.4629 41
      vertex -70.6168 -22.4629 41
    endloop
  endfacet
  facet normal 0 0 -1
    outer loop
      vertex -71.0371 -22.8832 41
      vertex -71.0371 18.8832 41
      vertex -70.6168 18.4629 41
    endloop
  endfacet
  facet normal 0 0 -1
    outer loop
      vertex -71.307 -23.4129 41
      vertex -71.0371 18.8832 41
      vertex -71.0371 -22.8832 41
    endloop
  endfacet
  facet normal 0 0 -1
    outer loop
      vertex -71.307 -23.4129 41
      vertex -71.307 19.4129 41
      vertex -71.0371 18.8832 41
    endloop
  endfacet
  facet normal 0 0 -1
    outer loop
      vertex -73.9 -29 41
      vertex -71.307 -23.4129 41
      vertex -71.4 -24 41
    endloop
  endfacet
  facet normal -0 0 -1
    outer loop
      vertex -71.307 -23.4129 41
      vertex -73.9 -29 41
      vertex -71.307 19.4129 41
    endloop
  endfacet
  facet normal 0 0 -1
    outer loop
      vertex 22.9629 -22.8832 41
      vertex -18.4629 -22.8832 41
      vertex 22.9629 18.8832 41
    endloop
  endfacet
  facet normal 0 0 -1
    outer loop
      vertex 22.9629 18.8832 41
      vertex -18.193 19.4129 41
      vertex -18.1 20 41
    endloop
  endfacet
  facet normal 0 0 -1
    outer loop
      vertex -18.4629 18.8832 41
      vertex 22.9629 18.8832 41
      vertex -18.4629 -22.8832 41
    endloop
  endfacet
  facet normal 0 0 -1
    outer loop
      vertex 22.9629 18.8832 41
      vertex -18.4629 18.8832 41
      vertex -18.193 19.4129 41
    endloop
  endfacet
  facet normal 0 0 -1
    outer loop
      vertex -18.8832 -22.4629 41
      vertex -18.4629 18.8832 41
      vertex -18.4629 -22.8832 41
    endloop
  endfacet
  facet normal 0 0 -1
    outer loop
      vertex -18.8832 -22.4629 41
      vertex -18.8832 18.4629 41
      vertex -18.4629 18.8832 41
    endloop
  endfacet
  facet normal 0 0 -1
    outer loop
      vertex -19.4129 -22.193 41
      vertex -18.8832 18.4629 41
      vertex -18.8832 -22.4629 41
    endloop
  endfacet
  facet normal 0 0 -1
    outer loop
      vertex -19.4129 -22.193 41
      vertex -19.4129 18.193 41
      vertex -18.8832 18.4629 41
    endloop
  endfacet
  facet normal 0 0 -1
    outer loop
      vertex -20 -22.1 41
      vertex -19.4129 18.193 41
      vertex -19.4129 -22.193 41
    endloop
  endfacet
  facet normal 0 0 -1
    outer loop
      vertex -20 -22.1 41
      vertex -20 18.1 41
      vertex -19.4129 18.193 41
    endloop
  endfacet
  facet normal 0 0 -1
    outer loop
      vertex -20.5871 -22.193 41
      vertex -20 18.1 41
      vertex -20 -22.1 41
    endloop
  endfacet
  facet normal 0 0 -1
    outer loop
      vertex -20.5871 -22.193 41
      vertex -20.5871 18.193 41
      vertex -20 18.1 41
    endloop
  endfacet
  facet normal 0 0 -1
    outer loop
      vertex -21.1168 -22.4629 41
      vertex -20.5871 18.193 41
      vertex -20.5871 -22.193 41
    endloop
  endfacet
  facet normal 0 0 -1
    outer loop
      vertex -21.1168 -22.4629 41
      vertex -21.1168 18.4629 41
      vertex -20.5871 18.193 41
    endloop
  endfacet
  facet normal 0 0 -1
    outer loop
      vertex -21.5371 -22.8832 41
      vertex -21.1168 18.4629 41
      vertex -21.1168 -22.4629 41
    endloop
  endfacet
  facet normal 0 0 -1
    outer loop
      vertex -21.5371 -22.8832 41
      vertex -21.5371 18.8832 41
      vertex -21.1168 18.4629 41
    endloop
  endfacet
  facet normal 0 0 -1
    outer loop
      vertex -67.693 -23.4129 41
      vertex -21.807 -23.4129 41
      vertex -67.6 -24 41
    endloop
  endfacet
  facet normal 0 0 -1
    outer loop
      vertex -21.807 -23.4129 41
      vertex -67.693 -23.4129 41
      vertex -21.5371 -22.8832 41
    endloop
  endfacet
  facet normal 0 0 -1
    outer loop
      vertex -67.6 -24 41
      vertex -21.807 -23.4129 41
      vertex -21.9 -24 41
    endloop
  endfacet
  facet normal 0 0 -1
    outer loop
      vertex -67.9629 -22.8832 41
      vertex -21.5371 -22.8832 41
      vertex -67.693 -23.4129 41
    endloop
  endfacet
  facet normal 0 0 -1
    outer loop
      vertex 26.307 19.4129 41
      vertex 29.1 25 41
      vertex 26.307 -23.4129 41
    endloop
  endfacet
  facet normal 0 0 -1
    outer loop
      vertex 29.1 25 41
      vertex 26.307 19.4129 41
      vertex 26.4 20 41
    endloop
  endfacet
  facet normal 0 0 -1
    outer loop
      vertex 26.0371 -22.8832 41
      vertex 26.307 19.4129 41
      vertex 26.307 -23.4129 41
    endloop
  endfacet
  facet normal 0 0 -1
    outer loop
      vertex 26.0371 -22.8832 41
      vertex 26.0371 18.8832 41
      vertex 26.307 19.4129 41
    endloop
  endfacet
  facet normal 0 0 -1
    outer loop
      vertex 25.6168 -22.4629 41
      vertex 26.0371 18.8832 41
      vertex 26.0371 -22.8832 41
    endloop
  endfacet
  facet normal 0 0 -1
    outer loop
      vertex 25.6168 -22.4629 41
      vertex 25.6168 18.4629 41
      vertex 26.0371 18.8832 41
    endloop
  endfacet
  facet normal 0 0 -1
    outer loop
      vertex 25.0871 -22.193 41
      vertex 25.6168 18.4629 41
      vertex 25.6168 -22.4629 41
    endloop
  endfacet
  facet normal 0 0 -1
    outer loop
      vertex 25.0871 -22.193 41
      vertex 25.0871 18.193 41
      vertex 25.6168 18.4629 41
    endloop
  endfacet
  facet normal 0 0 -1
    outer loop
      vertex 24.5 -22.1 41
      vertex 25.0871 18.193 41
      vertex 25.0871 -22.193 41
    endloop
  endfacet
  facet normal 0 0 -1
    outer loop
      vertex 24.5 -22.1 41
      vertex 24.5 18.1 41
      vertex 25.0871 18.193 41
    endloop
  endfacet
  facet normal 0 0 -1
    outer loop
      vertex 23.9129 -22.193 41
      vertex 24.5 18.1 41
      vertex 24.5 -22.1 41
    endloop
  endfacet
  facet normal 0 0 -1
    outer loop
      vertex 23.9129 -22.193 41
      vertex 23.9129 18.193 41
      vertex 24.5 18.1 41
    endloop
  endfacet
  facet normal 0 0 -1
    outer loop
      vertex 23.3832 -22.4629 41
      vertex 23.9129 18.193 41
      vertex 23.9129 -22.193 41
    endloop
  endfacet
  facet normal 0 0 -1
    outer loop
      vertex 23.3832 -22.4629 41
      vertex 23.3832 18.4629 41
      vertex 23.9129 18.193 41
    endloop
  endfacet
  facet normal 0 0 -1
    outer loop
      vertex 22.9629 -22.8832 41
      vertex 23.3832 18.4629 41
      vertex 23.3832 -22.4629 41
    endloop
  endfacet
  facet normal 0 0 -1
    outer loop
      vertex 22.9629 -22.8832 41
      vertex 22.9629 18.8832 41
      vertex 23.3832 18.4629 41
    endloop
  endfacet
  facet normal 0 0 -1
    outer loop
      vertex -18.193 -23.4129 41
      vertex 22.693 -23.4129 41
      vertex -18.1 -24 41
    endloop
  endfacet
  facet normal 0 0 -1
    outer loop
      vertex 22.693 -23.4129 41
      vertex -18.193 -23.4129 41
      vertex 22.9629 -22.8832 41
    endloop
  endfacet
  facet normal 0 0 -1
    outer loop
      vertex -18.1 -24 41
      vertex 22.693 -23.4129 41
      vertex 22.6 -24 41
    endloop
  endfacet
  facet normal 0 0 -1
    outer loop
      vertex -18.4629 -22.8832 41
      vertex 22.9629 -22.8832 41
      vertex -18.193 -23.4129 41
    endloop
  endfacet
  facet normal 0 0 -1
    outer loop
      vertex 26.307 -23.4129 41
      vertex 29.1 -29 41
      vertex 26.4 -24 41
    endloop
  endfacet
  facet normal 0 0 -1
    outer loop
      vertex 29.1 -29 41
      vertex 26.307 -24.5871 41
      vertex 26.4 -24 41
    endloop
  endfacet
  facet normal 0 0 -1
    outer loop
      vertex 29.1 -29 41
      vertex 26.0371 -25.1168 41
      vertex 26.307 -24.5871 41
    endloop
  endfacet
  facet normal 0 0 -1
    outer loop
      vertex 29.1 -29 41
      vertex 25.6168 -25.5371 41
      vertex 26.0371 -25.1168 41
    endloop
  endfacet
  facet normal 0 0 -1
    outer loop
      vertex 29.1 -29 41
      vertex 25.0871 -25.807 41
      vertex 25.6168 -25.5371 41
    endloop
  endfacet
  facet normal 0 0 -1
    outer loop
      vertex 29.1 -29 41
      vertex 24.5 -25.9 41
      vertex 25.0871 -25.807 41
    endloop
  endfacet
  facet normal 0 0 -1
    outer loop
      vertex 29.1 -29 41
      vertex 23.9129 -25.807 41
      vertex 24.5 -25.9 41
    endloop
  endfacet
  facet normal 0 0 -1
    outer loop
      vertex 29.1 -29 41
      vertex 23.3832 -25.5371 41
      vertex 23.9129 -25.807 41
    endloop
  endfacet
  facet normal 0 0 -1
    outer loop
      vertex 22.9629 18.8832 41
      vertex -18.1 20 41
      vertex 22.693 19.4129 41
    endloop
  endfacet
  facet normal 0 0 -1
    outer loop
      vertex 22.693 -24.5871 41
      vertex -18.1 -24 41
      vertex 22.6 -24 41
    endloop
  endfacet
  facet normal 0 0 -1
    outer loop
      vertex -18.193 -24.5871 41
      vertex 22.693 -24.5871 41
      vertex 22.9629 -25.1168 41
    endloop
  endfacet
  facet normal 0 0 -1
    outer loop
      vertex -18.4629 -25.1168 41
      vertex 22.9629 -25.1168 41
      vertex 23.3832 -25.5371 41
    endloop
  endfacet
  facet normal 0 0 -1
    outer loop
      vertex -18.8832 -25.5371 41
      vertex 23.3832 -25.5371 41
      vertex 29.1 -29 41
    endloop
  endfacet
  facet normal 0 0 -1
    outer loop
      vertex 22.693 -24.5871 41
      vertex -18.193 -24.5871 41
      vertex -18.1 -24 41
    endloop
  endfacet
  facet normal 0 0 -1
    outer loop
      vertex 22.9629 -25.1168 41
      vertex -18.4629 -25.1168 41
      vertex -18.193 -24.5871 41
    endloop
  endfacet
  facet normal 0 0 -1
    outer loop
      vertex 23.3832 -25.5371 41
      vertex -18.8832 -25.5371 41
      vertex -18.4629 -25.1168 41
    endloop
  endfacet
  facet normal 0 0 -1
    outer loop
      vertex 29.1 -29 41
      vertex -19.4129 -25.807 41
      vertex -18.8832 -25.5371 41
    endloop
  endfacet
  facet normal 0 0 -1
    outer loop
      vertex 29.1 -29 41
      vertex -20 -25.9 41
      vertex -19.4129 -25.807 41
    endloop
  endfacet
  facet normal 0 0 -1
    outer loop
      vertex -21.5371 18.8832 41
      vertex -67.6 20 41
      vertex -21.807 19.4129 41
    endloop
  endfacet
  facet normal 0 0 -1
    outer loop
      vertex -21.807 -24.5871 41
      vertex -67.6 -24 41
      vertex -21.9 -24 41
    endloop
  endfacet
  facet normal 0 0 -1
    outer loop
      vertex -67.693 -24.5871 41
      vertex -21.807 -24.5871 41
      vertex -21.5371 -25.1168 41
    endloop
  endfacet
  facet normal 0 0 -1
    outer loop
      vertex -67.9629 -25.1168 41
      vertex -21.5371 -25.1168 41
      vertex -21.1168 -25.5371 41
    endloop
  endfacet
  facet normal 0 0 -1
    outer loop
      vertex -73.9 -29 41
      vertex -21.1168 -25.5371 41
      vertex -20.5871 -25.807 41
    endloop
  endfacet
  facet normal 0 0 -1
    outer loop
      vertex -73.9 -29 41
      vertex -20.5871 -25.807 41
      vertex -20 -25.9 41
    endloop
  endfacet
  facet normal 0 0 -1
    outer loop
      vertex -73.9 -29 41
      vertex -20 -25.9 41
      vertex 29.1 -29 41
    endloop
  endfacet
  facet normal 0 0 -1
    outer loop
      vertex -21.807 -24.5871 41
      vertex -67.693 -24.5871 41
      vertex -67.6 -24 41
    endloop
  endfacet
  facet normal 0 0 -1
    outer loop
      vertex -21.5371 -25.1168 41
      vertex -67.9629 -25.1168 41
      vertex -67.693 -24.5871 41
    endloop
  endfacet
  facet normal 0 0 -1
    outer loop
      vertex -21.1168 -25.5371 41
      vertex -68.3832 -25.5371 41
      vertex -67.9629 -25.1168 41
    endloop
  endfacet
  facet normal -0 0 -1
    outer loop
      vertex -21.1168 -25.5371 41
      vertex -73.9 -29 41
      vertex -68.3832 -25.5371 41
    endloop
  endfacet
  facet normal 0 0 -1
    outer loop
      vertex -68.3832 -25.5371 41
      vertex -73.9 -29 41
      vertex -68.9129 -25.807 41
    endloop
  endfacet
  facet normal 0 0 -1
    outer loop
      vertex -73.9 25 41
      vertex -71.307 19.4129 41
      vertex -73.9 -29 41
    endloop
  endfacet
  facet normal -0 0 -1
    outer loop
      vertex -71.307 -24.5871 41
      vertex -73.9 -29 41
      vertex -71.4 -24 41
    endloop
  endfacet
  facet normal -0 0 -1
    outer loop
      vertex -71.0371 -25.1168 41
      vertex -73.9 -29 41
      vertex -71.307 -24.5871 41
    endloop
  endfacet
  facet normal -0 0 -1
    outer loop
      vertex -70.6168 -25.5371 41
      vertex -73.9 -29 41
      vertex -71.0371 -25.1168 41
    endloop
  endfacet
  facet normal -0 0 -1
    outer loop
      vertex -70.0871 -25.807 41
      vertex -73.9 -29 41
      vertex -70.6168 -25.5371 41
    endloop
  endfacet
  facet normal -0 0 -1
    outer loop
      vertex -69.5 -25.9 41
      vertex -73.9 -29 41
      vertex -70.0871 -25.807 41
    endloop
  endfacet
  facet normal 0 0 -1
    outer loop
      vertex -68.9129 -25.807 41
      vertex -73.9 -29 41
      vertex -69.5 -25.9 41
    endloop
  endfacet
  facet normal 0 0 -1
    outer loop
      vertex 29.1 -29 41
      vertex 26.307 -23.4129 41
      vertex 29.1 25 41
    endloop
  endfacet
  facet normal 0 0 -1
    outer loop
      vertex 26.307 20.5871 41
      vertex 29.1 25 41
      vertex 26.4 20 41
    endloop
  endfacet
  facet normal 0 0 -1
    outer loop
      vertex 26.0371 21.1168 41
      vertex 29.1 25 41
      vertex 26.307 20.5871 41
    endloop
  endfacet
  facet normal 0 0 -1
    outer loop
      vertex 25.6168 21.5371 41
      vertex 29.1 25 41
      vertex 26.0371 21.1168 41
    endloop
  endfacet
  facet normal 0 0 -1
    outer loop
      vertex 25.0871 21.807 41
      vertex 29.1 25 41
      vertex 25.6168 21.5371 41
    endloop
  endfacet
  facet normal 0 0 -1
    outer loop
      vertex 24.5 21.9 41
      vertex 29.1 25 41
      vertex 25.0871 21.807 41
    endloop
  endfacet
  facet normal 0 0 -1
    outer loop
      vertex 23.9129 21.807 41
      vertex 29.1 25 41
      vertex 24.5 21.9 41
    endloop
  endfacet
  facet normal 0 0 -1
    outer loop
      vertex 23.3832 21.5371 41
      vertex 29.1 25 41
      vertex 23.9129 21.807 41
    endloop
  endfacet
  facet normal 0 0 -1
    outer loop
      vertex 22.693 19.4129 41
      vertex -18.1 20 41
      vertex 22.6 20 41
    endloop
  endfacet
  facet normal 0 0 -1
    outer loop
      vertex 22.6 20 41
      vertex -18.1 20 41
      vertex 22.693 20.5871 41
    endloop
  endfacet
  facet normal 0 0 -1
    outer loop
      vertex -18.193 20.5871 41
      vertex 22.693 20.5871 41
      vertex -18.1 20 41
    endloop
  endfacet
  facet normal 0 0 -1
    outer loop
      vertex 22.693 20.5871 41
      vertex -18.193 20.5871 41
      vertex 22.9629 21.1168 41
    endloop
  endfacet
  facet normal 0 0 -1
    outer loop
      vertex -18.4629 21.1168 41
      vertex 22.9629 21.1168 41
      vertex -18.193 20.5871 41
    endloop
  endfacet
  facet normal 0 0 -1
    outer loop
      vertex 22.9629 21.1168 41
      vertex -18.4629 21.1168 41
      vertex 23.3832 21.5371 41
    endloop
  endfacet
  facet normal 0 0 -1
    outer loop
      vertex -18.8832 21.5371 41
      vertex 23.3832 21.5371 41
      vertex -18.4629 21.1168 41
    endloop
  endfacet
  facet normal 0 0 -1
    outer loop
      vertex 23.3832 21.5371 41
      vertex -18.8832 21.5371 41
      vertex 29.1 25 41
    endloop
  endfacet
  facet normal 0 0 -1
    outer loop
      vertex -19.4129 21.807 41
      vertex 29.1 25 41
      vertex -18.8832 21.5371 41
    endloop
  endfacet
  facet normal 0 0 -1
    outer loop
      vertex -20 21.9 41
      vertex 29.1 25 41
      vertex -19.4129 21.807 41
    endloop
  endfacet
  facet normal 0 0 -1
    outer loop
      vertex -21.807 19.4129 41
      vertex -67.6 20 41
      vertex -21.9 20 41
    endloop
  endfacet
  facet normal 0 0 -1
    outer loop
      vertex -21.9 20 41
      vertex -67.6 20 41
      vertex -21.807 20.5871 41
    endloop
  endfacet
  facet normal 0 0 -1
    outer loop
      vertex -67.693 20.5871 41
      vertex -21.807 20.5871 41
      vertex -67.6 20 41
    endloop
  endfacet
  facet normal 0 0 -1
    outer loop
      vertex -21.807 20.5871 41
      vertex -67.693 20.5871 41
      vertex -21.5371 21.1168 41
    endloop
  endfacet
  facet normal 0 0 -1
    outer loop
      vertex -67.9629 21.1168 41
      vertex -21.5371 21.1168 41
      vertex -67.693 20.5871 41
    endloop
  endfacet
  facet normal 0 0 -1
    outer loop
      vertex -21.5371 21.1168 41
      vertex -67.9629 21.1168 41
      vertex -21.1168 21.5371 41
    endloop
  endfacet
  facet normal 0 0 -1
    outer loop
      vertex -68.3832 21.5371 41
      vertex -21.1168 21.5371 41
      vertex -67.9629 21.1168 41
    endloop
  endfacet
  facet normal 0 0 -1
    outer loop
      vertex -73.9 25 41
      vertex -21.1168 21.5371 41
      vertex -68.3832 21.5371 41
    endloop
  endfacet
  facet normal 0 0 -1
    outer loop
      vertex -21.1168 21.5371 41
      vertex -73.9 25 41
      vertex -20.5871 21.807 41
    endloop
  endfacet
  facet normal 0 0 -1
    outer loop
      vertex -20.5871 21.807 41
      vertex -73.9 25 41
      vertex -20 21.9 41
    endloop
  endfacet
  facet normal 0 0 -1
    outer loop
      vertex -73.9 25 41
      vertex -68.3832 21.5371 41
      vertex -68.9129 21.807 41
    endloop
  endfacet
  facet normal 0 0 -1
    outer loop
      vertex -73.9 25 41
      vertex -68.9129 21.807 41
      vertex -69.5 21.9 41
    endloop
  endfacet
  facet normal 0 0 -1
    outer loop
      vertex -20 21.9 41
      vertex -73.9 25 41
      vertex 29.1 25 41
    endloop
  endfacet
  facet normal 0 0 -1
    outer loop
      vertex -70.0871 21.807 41
      vertex -73.9 25 41
      vertex -69.5 21.9 41
    endloop
  endfacet
  facet normal 0 0 -1
    outer loop
      vertex -70.6168 21.5371 41
      vertex -73.9 25 41
      vertex -70.0871 21.807 41
    endloop
  endfacet
  facet normal 0 0 -1
    outer loop
      vertex -71.0371 21.1168 41
      vertex -73.9 25 41
      vertex -70.6168 21.5371 41
    endloop
  endfacet
  facet normal 0 0 -1
    outer loop
      vertex -71.307 20.5871 41
      vertex -73.9 25 41
      vertex -71.0371 21.1168 41
    endloop
  endfacet
  facet normal 0 0 -1
    outer loop
      vertex -71.4 20 41
      vertex -73.9 25 41
      vertex -71.307 20.5871 41
    endloop
  endfacet
  facet normal 0 0 -1
    outer loop
      vertex -71.307 19.4129 41
      vertex -73.9 25 41
      vertex -71.4 20 41
    endloop
  endfacet
  facet normal -1 0 0
    outer loop
      vertex -73.9 -29 41
      vertex -73.9 25 45
      vertex -73.9 25 41
    endloop
  endfacet
  facet normal -1 -0 0
    outer loop
      vertex -73.9 25 45
      vertex -73.9 -29 41
      vertex -73.9 -29 45
    endloop
  endfacet
  facet normal 0 1 -0
    outer loop
      vertex 29.1 25 41
      vertex -73.9 25 45
      vertex 29.1 25 45
    endloop
  endfacet
  facet normal 0 1 0
    outer loop
      vertex -73.9 25 45
      vertex 29.1 25 41
      vertex -73.9 25 41
    endloop
  endfacet
  facet normal 0 -1 0
    outer loop
      vertex -73.9 -29 41
      vertex 29.1 -29 45
      vertex -73.9 -29 45
    endloop
  endfacet
  facet normal 0 -1 -0
    outer loop
      vertex 29.1 -29 45
      vertex -73.9 -29 41
      vertex 29.1 -29 41
    endloop
  endfacet
  facet normal -0.891004 -0.453996 0
    outer loop
      vertex -67.693 -23.4129 41
      vertex -67.9629 -22.8832 45
      vertex -67.9629 -22.8832 41
    endloop
  endfacet
  facet normal -0.891004 -0.453996 0
    outer loop
      vertex -67.9629 -22.8832 45
      vertex -67.693 -23.4129 41
      vertex -67.693 -23.4129 45
    endloop
  endfacet
  facet normal -0.987685 -0.156455 0
    outer loop
      vertex -67.6 -24 41
      vertex -67.693 -23.4129 45
      vertex -67.693 -23.4129 41
    endloop
  endfacet
  facet normal -0.987685 -0.156455 0
    outer loop
      vertex -67.693 -23.4129 45
      vertex -67.6 -24 41
      vertex -67.6 -24 45
    endloop
  endfacet
  facet normal -0.707107 -0.707107 0
    outer loop
      vertex -68.3832 -22.4629 41
      vertex -67.9629 -22.8832 45
      vertex -68.3832 -22.4629 45
    endloop
  endfacet
  facet normal -0.707107 -0.707107 -0
    outer loop
      vertex -67.9629 -22.8832 45
      vertex -68.3832 -22.4629 41
      vertex -67.9629 -22.8832 41
    endloop
  endfacet
  facet normal 0.453996 0.891004 -0
    outer loop
      vertex -70.0871 -25.807 41
      vertex -70.6168 -25.5371 45
      vertex -70.0871 -25.807 45
    endloop
  endfacet
  facet normal 0.453996 0.891004 0
    outer loop
      vertex -70.6168 -25.5371 45
      vertex -70.0871 -25.807 41
      vertex -70.6168 -25.5371 41
    endloop
  endfacet
  facet normal -0.156455 -0.987685 0
    outer loop
      vertex -69.5 -22.1 41
      vertex -68.9129 -22.193 45
      vertex -69.5 -22.1 45
    endloop
  endfacet
  facet normal -0.156455 -0.987685 -0
    outer loop
      vertex -68.9129 -22.193 45
      vertex -69.5 -22.1 41
      vertex -68.9129 -22.193 41
    endloop
  endfacet
  facet normal 0.156455 -0.987685 0
    outer loop
      vertex -70.0871 -22.193 41
      vertex -69.5 -22.1 45
      vertex -70.0871 -22.193 45
    endloop
  endfacet
  facet normal 0.156455 -0.987685 0
    outer loop
      vertex -69.5 -22.1 45
      vertex -70.0871 -22.193 41
      vertex -69.5 -22.1 41
    endloop
  endfacet
  facet normal -0.707107 0.707107 0
    outer loop
      vertex -68.3832 -25.5371 41
      vertex -67.9629 -25.1168 45
      vertex -67.9629 -25.1168 41
    endloop
  endfacet
  facet normal -0.707107 0.707107 0
    outer loop
      vertex -67.9629 -25.1168 45
      vertex -68.3832 -25.5371 41
      vertex -68.3832 -25.5371 45
    endloop
  endfacet
  facet normal 0.707107 0.707107 0
    outer loop
      vertex -70.6168 -25.5371 45
      vertex -71.0371 -25.1168 41
      vertex -71.0371 -25.1168 45
    endloop
  endfacet
  facet normal 0.707107 0.707107 0
    outer loop
      vertex -71.0371 -25.1168 41
      vertex -70.6168 -25.5371 45
      vertex -70.6168 -25.5371 41
    endloop
  endfacet
  facet normal -0.453996 -0.891004 0
    outer loop
      vertex -68.9129 -22.193 41
      vertex -68.3832 -22.4629 45
      vertex -68.9129 -22.193 45
    endloop
  endfacet
  facet normal -0.453996 -0.891004 -0
    outer loop
      vertex -68.3832 -22.4629 45
      vertex -68.9129 -22.193 41
      vertex -68.3832 -22.4629 41
    endloop
  endfacet
  facet normal 0.707107 -0.707107 0
    outer loop
      vertex -71.0371 -22.8832 41
      vertex -70.6168 -22.4629 45
      vertex -71.0371 -22.8832 45
    endloop
  endfacet
  facet normal 0.707107 -0.707107 0
    outer loop
      vertex -70.6168 -22.4629 45
      vertex -71.0371 -22.8832 41
      vertex -70.6168 -22.4629 41
    endloop
  endfacet
  facet normal 0.453996 -0.891004 0
    outer loop
      vertex -70.6168 -22.4629 41
      vertex -70.0871 -22.193 45
      vertex -70.6168 -22.4629 45
    endloop
  endfacet
  facet normal 0.453996 -0.891004 0
    outer loop
      vertex -70.0871 -22.193 45
      vertex -70.6168 -22.4629 41
      vertex -70.0871 -22.193 41
    endloop
  endfacet
  facet normal 0.891004 0.453996 0
    outer loop
      vertex -71.0371 -25.1168 45
      vertex -71.307 -24.5871 41
      vertex -71.307 -24.5871 45
    endloop
  endfacet
  facet normal 0.891004 0.453996 0
    outer loop
      vertex -71.307 -24.5871 41
      vertex -71.0371 -25.1168 45
      vertex -71.0371 -25.1168 41
    endloop
  endfacet
  facet normal -0.453996 0.891004 0
    outer loop
      vertex -68.3832 -25.5371 41
      vertex -68.9129 -25.807 45
      vertex -68.3832 -25.5371 45
    endloop
  endfacet
  facet normal -0.453996 0.891004 0
    outer loop
      vertex -68.9129 -25.807 45
      vertex -68.3832 -25.5371 41
      vertex -68.9129 -25.807 41
    endloop
  endfacet
  facet normal 0.891004 -0.453996 0
    outer loop
      vertex -71.307 -23.4129 45
      vertex -71.0371 -22.8832 41
      vertex -71.0371 -22.8832 45
    endloop
  endfacet
  facet normal 0.891004 -0.453996 0
    outer loop
      vertex -71.0371 -22.8832 41
      vertex -71.307 -23.4129 45
      vertex -71.307 -23.4129 41
    endloop
  endfacet
  facet normal -0.156455 0.987685 0
    outer loop
      vertex -68.9129 -25.807 41
      vertex -69.5 -25.9 45
      vertex -68.9129 -25.807 45
    endloop
  endfacet
  facet normal -0.156455 0.987685 0
    outer loop
      vertex -69.5 -25.9 45
      vertex -68.9129 -25.807 41
      vertex -69.5 -25.9 41
    endloop
  endfacet
  facet normal 0.987685 0.156455 0
    outer loop
      vertex -71.307 -24.5871 45
      vertex -71.4 -24 41
      vertex -71.4 -24 45
    endloop
  endfacet
  facet normal 0.987685 0.156455 0
    outer loop
      vertex -71.4 -24 41
      vertex -71.307 -24.5871 45
      vertex -71.307 -24.5871 41
    endloop
  endfacet
  facet normal 0.987685 -0.156455 0
    outer loop
      vertex -71.4 -24 45
      vertex -71.307 -23.4129 41
      vertex -71.307 -23.4129 45
    endloop
  endfacet
  facet normal 0.987685 -0.156455 0
    outer loop
      vertex -71.307 -23.4129 41
      vertex -71.4 -24 45
      vertex -71.4 -24 41
    endloop
  endfacet
  facet normal -0.891004 0.453996 0
    outer loop
      vertex -67.9629 -25.1168 41
      vertex -67.693 -24.5871 45
      vertex -67.693 -24.5871 41
    endloop
  endfacet
  facet normal -0.891004 0.453996 0
    outer loop
      vertex -67.693 -24.5871 45
      vertex -67.9629 -25.1168 41
      vertex -67.9629 -25.1168 45
    endloop
  endfacet
  facet normal -0.987685 0.156455 0
    outer loop
      vertex -67.693 -24.5871 41
      vertex -67.6 -24 45
      vertex -67.6 -24 41
    endloop
  endfacet
  facet normal -0.987685 0.156455 0
    outer loop
      vertex -67.6 -24 45
      vertex -67.693 -24.5871 41
      vertex -67.693 -24.5871 45
    endloop
  endfacet
  facet normal 0.156455 0.987685 -0
    outer loop
      vertex -69.5 -25.9 41
      vertex -70.0871 -25.807 45
      vertex -69.5 -25.9 45
    endloop
  endfacet
  facet normal 0.156455 0.987685 0
    outer loop
      vertex -70.0871 -25.807 45
      vertex -69.5 -25.9 41
      vertex -70.0871 -25.807 41
    endloop
  endfacet
  facet normal -0.156455 -0.987685 0
    outer loop
      vertex -69.5 21.9 41
      vertex -68.9129 21.807 45
      vertex -69.5 21.9 45
    endloop
  endfacet
  facet normal -0.156455 -0.987685 -0
    outer loop
      vertex -68.9129 21.807 45
      vertex -69.5 21.9 41
      vertex -68.9129 21.807 41
    endloop
  endfacet
  facet normal -0.891004 -0.453996 0
    outer loop
      vertex -67.693 20.5871 41
      vertex -67.9629 21.1168 45
      vertex -67.9629 21.1168 41
    endloop
  endfacet
  facet normal -0.891004 -0.453996 0
    outer loop
      vertex -67.9629 21.1168 45
      vertex -67.693 20.5871 41
      vertex -67.693 20.5871 45
    endloop
  endfacet
  facet normal -0.987685 -0.156455 0
    outer loop
      vertex -67.6 20 41
      vertex -67.693 20.5871 45
      vertex -67.693 20.5871 41
    endloop
  endfacet
  facet normal -0.987685 -0.156455 0
    outer loop
      vertex -67.693 20.5871 45
      vertex -67.6 20 41
      vertex -67.6 20 45
    endloop
  endfacet
  facet normal -0.707107 -0.707107 0
    outer loop
      vertex -67.9629 21.1168 41
      vertex -68.3832 21.5371 45
      vertex -68.3832 21.5371 41
    endloop
  endfacet
  facet normal -0.707107 -0.707107 0
    outer loop
      vertex -68.3832 21.5371 45
      vertex -67.9629 21.1168 41
      vertex -67.9629 21.1168 45
    endloop
  endfacet
  facet normal -0.707107 0.707107 0
    outer loop
      vertex -67.9629 18.8832 41
      vertex -68.3832 18.4629 45
      vertex -67.9629 18.8832 45
    endloop
  endfacet
  facet normal -0.707107 0.707107 0
    outer loop
      vertex -68.3832 18.4629 45
      vertex -67.9629 18.8832 41
      vertex -68.3832 18.4629 41
    endloop
  endfacet
  facet normal -0.453996 0.891004 0
    outer loop
      vertex -68.3832 18.4629 41
      vertex -68.9129 18.193 45
      vertex -68.3832 18.4629 45
    endloop
  endfacet
  facet normal -0.453996 0.891004 0
    outer loop
      vertex -68.9129 18.193 45
      vertex -68.3832 18.4629 41
      vertex -68.9129 18.193 41
    endloop
  endfacet
  facet normal 0.891004 -0.453996 0
    outer loop
      vertex -71.307 20.5871 45
      vertex -71.0371 21.1168 41
      vertex -71.0371 21.1168 45
    endloop
  endfacet
  facet normal 0.891004 -0.453996 0
    outer loop
      vertex -71.0371 21.1168 41
      vertex -71.307 20.5871 45
      vertex -71.307 20.5871 41
    endloop
  endfacet
  facet normal 0.707107 -0.707107 0
    outer loop
      vertex -71.0371 21.1168 45
      vertex -70.6168 21.5371 41
      vertex -70.6168 21.5371 45
    endloop
  endfacet
  facet normal 0.707107 -0.707107 0
    outer loop
      vertex -70.6168 21.5371 41
      vertex -71.0371 21.1168 45
      vertex -71.0371 21.1168 41
    endloop
  endfacet
  facet normal -0.891004 0.453996 0
    outer loop
      vertex -67.9629 18.8832 41
      vertex -67.693 19.4129 45
      vertex -67.693 19.4129 41
    endloop
  endfacet
  facet normal -0.891004 0.453996 0
    outer loop
      vertex -67.693 19.4129 45
      vertex -67.9629 18.8832 41
      vertex -67.9629 18.8832 45
    endloop
  endfacet
  facet normal 0.156455 0.987685 -0
    outer loop
      vertex -69.5 18.1 41
      vertex -70.0871 18.193 45
      vertex -69.5 18.1 45
    endloop
  endfacet
  facet normal 0.156455 0.987685 0
    outer loop
      vertex -70.0871 18.193 45
      vertex -69.5 18.1 41
      vertex -70.0871 18.193 41
    endloop
  endfacet
  facet normal 0.156455 -0.987685 0
    outer loop
      vertex -70.0871 21.807 41
      vertex -69.5 21.9 45
      vertex -70.0871 21.807 45
    endloop
  endfacet
  facet normal 0.156455 -0.987685 0
    outer loop
      vertex -69.5 21.9 45
      vertex -70.0871 21.807 41
      vertex -69.5 21.9 41
    endloop
  endfacet
  facet normal -0.987685 0.156455 0
    outer loop
      vertex -67.693 19.4129 41
      vertex -67.6 20 45
      vertex -67.6 20 41
    endloop
  endfacet
  facet normal -0.987685 0.156455 0
    outer loop
      vertex -67.6 20 45
      vertex -67.693 19.4129 41
      vertex -67.693 19.4129 45
    endloop
  endfacet
  facet normal 0.707107 0.707107 -0
    outer loop
      vertex -70.6168 18.4629 41
      vertex -71.0371 18.8832 45
      vertex -70.6168 18.4629 45
    endloop
  endfacet
  facet normal 0.707107 0.707107 0
    outer loop
      vertex -71.0371 18.8832 45
      vertex -70.6168 18.4629 41
      vertex -71.0371 18.8832 41
    endloop
  endfacet
  facet normal 0.453996 -0.891004 0
    outer loop
      vertex -70.6168 21.5371 41
      vertex -70.0871 21.807 45
      vertex -70.6168 21.5371 45
    endloop
  endfacet
  facet normal 0.453996 -0.891004 0
    outer loop
      vertex -70.0871 21.807 45
      vertex -70.6168 21.5371 41
      vertex -70.0871 21.807 41
    endloop
  endfacet
  facet normal 0.987685 0.156455 0
    outer loop
      vertex -71.307 19.4129 45
      vertex -71.4 20 41
      vertex -71.4 20 45
    endloop
  endfacet
  facet normal 0.987685 0.156455 0
    outer loop
      vertex -71.4 20 41
      vertex -71.307 19.4129 45
      vertex -71.307 19.4129 41
    endloop
  endfacet
  facet normal -0.156455 0.987685 0
    outer loop
      vertex -68.9129 18.193 41
      vertex -69.5 18.1 45
      vertex -68.9129 18.193 45
    endloop
  endfacet
  facet normal -0.156455 0.987685 0
    outer loop
      vertex -69.5 18.1 45
      vertex -68.9129 18.193 41
      vertex -69.5 18.1 41
    endloop
  endfacet
  facet normal -0.453996 -0.891004 0
    outer loop
      vertex -68.9129 21.807 41
      vertex -68.3832 21.5371 45
      vertex -68.9129 21.807 45
    endloop
  endfacet
  facet normal -0.453996 -0.891004 -0
    outer loop
      vertex -68.3832 21.5371 45
      vertex -68.9129 21.807 41
      vertex -68.3832 21.5371 41
    endloop
  endfacet
  facet normal 0.891004 0.453996 0
    outer loop
      vertex -71.0371 18.8832 45
      vertex -71.307 19.4129 41
      vertex -71.307 19.4129 45
    endloop
  endfacet
  facet normal 0.891004 0.453996 0
    outer loop
      vertex -71.307 19.4129 41
      vertex -71.0371 18.8832 45
      vertex -71.0371 18.8832 41
    endloop
  endfacet
  facet normal 0.987685 -0.156455 0
    outer loop
      vertex -71.4 20 45
      vertex -71.307 20.5871 41
      vertex -71.307 20.5871 45
    endloop
  endfacet
  facet normal 0.987685 -0.156455 0
    outer loop
      vertex -71.307 20.5871 41
      vertex -71.4 20 45
      vertex -71.4 20 41
    endloop
  endfacet
  facet normal 0.453996 0.891004 -0
    outer loop
      vertex -70.0871 18.193 41
      vertex -70.6168 18.4629 45
      vertex -70.0871 18.193 45
    endloop
  endfacet
  facet normal 0.453996 0.891004 0
    outer loop
      vertex -70.6168 18.4629 45
      vertex -70.0871 18.193 41
      vertex -70.6168 18.4629 41
    endloop
  endfacet
  facet normal -0.987685 -0.156455 0
    outer loop
      vertex -18.1 -24 41
      vertex -18.193 -23.4129 45
      vertex -18.193 -23.4129 41
    endloop
  endfacet
  facet normal -0.987685 -0.156455 0
    outer loop
      vertex -18.193 -23.4129 45
      vertex -18.1 -24 41
      vertex -18.1 -24 45
    endloop
  endfacet
  facet normal 0.156455 -0.987685 0
    outer loop
      vertex -20.5871 -22.193 41
      vertex -20 -22.1 45
      vertex -20.5871 -22.193 45
    endloop
  endfacet
  facet normal 0.156455 -0.987685 0
    outer loop
      vertex -20 -22.1 45
      vertex -20.5871 -22.193 41
      vertex -20 -22.1 41
    endloop
  endfacet
  facet normal -0.891004 -0.453996 0
    outer loop
      vertex -18.193 -23.4129 41
      vertex -18.4629 -22.8832 45
      vertex -18.4629 -22.8832 41
    endloop
  endfacet
  facet normal -0.891004 -0.453996 0
    outer loop
      vertex -18.4629 -22.8832 45
      vertex -18.193 -23.4129 41
      vertex -18.193 -23.4129 45
    endloop
  endfacet
  facet normal -0.707107 0.707107 0
    outer loop
      vertex -18.8832 -25.5371 41
      vertex -18.4629 -25.1168 45
      vertex -18.4629 -25.1168 41
    endloop
  endfacet
  facet normal -0.707107 0.707107 0
    outer loop
      vertex -18.4629 -25.1168 45
      vertex -18.8832 -25.5371 41
      vertex -18.8832 -25.5371 45
    endloop
  endfacet
  facet normal 0.453996 0.891004 -0
    outer loop
      vertex -20.5871 -25.807 41
      vertex -21.1168 -25.5371 45
      vertex -20.5871 -25.807 45
    endloop
  endfacet
  facet normal 0.453996 0.891004 0
    outer loop
      vertex -21.1168 -25.5371 45
      vertex -20.5871 -25.807 41
      vertex -21.1168 -25.5371 41
    endloop
  endfacet
  facet normal 0.891004 -0.453996 0
    outer loop
      vertex -21.807 -23.4129 45
      vertex -21.5371 -22.8832 41
      vertex -21.5371 -22.8832 45
    endloop
  endfacet
  facet normal 0.891004 -0.453996 0
    outer loop
      vertex -21.5371 -22.8832 41
      vertex -21.807 -23.4129 45
      vertex -21.807 -23.4129 41
    endloop
  endfacet
  facet normal -0.707107 -0.707107 0
    outer loop
      vertex -18.4629 -22.8832 41
      vertex -18.8832 -22.4629 45
      vertex -18.8832 -22.4629 41
    endloop
  endfacet
  facet normal -0.707107 -0.707107 0
    outer loop
      vertex -18.8832 -22.4629 45
      vertex -18.4629 -22.8832 41
      vertex -18.4629 -22.8832 45
    endloop
  endfacet
  facet normal 0.987685 0.156455 0
    outer loop
      vertex -21.807 -24.5871 45
      vertex -21.9 -24 41
      vertex -21.9 -24 45
    endloop
  endfacet
  facet normal 0.987685 0.156455 0
    outer loop
      vertex -21.9 -24 41
      vertex -21.807 -24.5871 45
      vertex -21.807 -24.5871 41
    endloop
  endfacet
  facet normal 0.707107 0.707107 0
    outer loop
      vertex -21.1168 -25.5371 45
      vertex -21.5371 -25.1168 41
      vertex -21.5371 -25.1168 45
    endloop
  endfacet
  facet normal 0.707107 0.707107 0
    outer loop
      vertex -21.5371 -25.1168 41
      vertex -21.1168 -25.5371 45
      vertex -21.1168 -25.5371 41
    endloop
  endfacet
  facet normal 0.987685 -0.156455 0
    outer loop
      vertex -21.9 -24 45
      vertex -21.807 -23.4129 41
      vertex -21.807 -23.4129 45
    endloop
  endfacet
  facet normal 0.987685 -0.156455 0
    outer loop
      vertex -21.807 -23.4129 41
      vertex -21.9 -24 45
      vertex -21.9 -24 41
    endloop
  endfacet
  facet normal -0.156455 0.987685 0
    outer loop
      vertex -19.4129 -25.807 41
      vertex -20 -25.9 45
      vertex -19.4129 -25.807 45
    endloop
  endfacet
  facet normal -0.156455 0.987685 0
    outer loop
      vertex -20 -25.9 45
      vertex -19.4129 -25.807 41
      vertex -20 -25.9 41
    endloop
  endfacet
  facet normal -0.453996 -0.891004 0
    outer loop
      vertex -19.4129 -22.193 41
      vertex -18.8832 -22.4629 45
      vertex -19.4129 -22.193 45
    endloop
  endfacet
  facet normal -0.453996 -0.891004 -0
    outer loop
      vertex -18.8832 -22.4629 45
      vertex -19.4129 -22.193 41
      vertex -18.8832 -22.4629 41
    endloop
  endfacet
  facet normal -0.156455 -0.987685 0
    outer loop
      vertex -20 -22.1 41
      vertex -19.4129 -22.193 45
      vertex -20 -22.1 45
    endloop
  endfacet
  facet normal -0.156455 -0.987685 -0
    outer loop
      vertex -19.4129 -22.193 45
      vertex -20 -22.1 41
      vertex -19.4129 -22.193 41
    endloop
  endfacet
  facet normal -0.453996 0.891004 0
    outer loop
      vertex -18.8832 -25.5371 41
      vertex -19.4129 -25.807 45
      vertex -18.8832 -25.5371 45
    endloop
  endfacet
  facet normal -0.453996 0.891004 0
    outer loop
      vertex -19.4129 -25.807 45
      vertex -18.8832 -25.5371 41
      vertex -19.4129 -25.807 41
    endloop
  endfacet
  facet normal 0.156455 0.987685 -0
    outer loop
      vertex -20 -25.9 41
      vertex -20.5871 -25.807 45
      vertex -20 -25.9 45
    endloop
  endfacet
  facet normal 0.156455 0.987685 0
    outer loop
      vertex -20.5871 -25.807 45
      vertex -20 -25.9 41
      vertex -20.5871 -25.807 41
    endloop
  endfacet
  facet normal 0.707107 -0.707107 0
    outer loop
      vertex -21.5371 -22.8832 41
      vertex -21.1168 -22.4629 45
      vertex -21.5371 -22.8832 45
    endloop
  endfacet
  facet normal 0.707107 -0.707107 0
    outer loop
      vertex -21.1168 -22.4629 45
      vertex -21.5371 -22.8832 41
      vertex -21.1168 -22.4629 41
    endloop
  endfacet
  facet normal 0.891004 0.453996 0
    outer loop
      vertex -21.5371 -25.1168 45
      vertex -21.807 -24.5871 41
      vertex -21.807 -24.5871 45
    endloop
  endfacet
  facet normal 0.891004 0.453996 0
    outer loop
      vertex -21.807 -24.5871 41
      vertex -21.5371 -25.1168 45
      vertex -21.5371 -25.1168 41
    endloop
  endfacet
  facet normal 0.453996 -0.891004 0
    outer loop
      vertex -21.1168 -22.4629 41
      vertex -20.5871 -22.193 45
      vertex -21.1168 -22.4629 45
    endloop
  endfacet
  facet normal 0.453996 -0.891004 0
    outer loop
      vertex -20.5871 -22.193 45
      vertex -21.1168 -22.4629 41
      vertex -20.5871 -22.193 41
    endloop
  endfacet
  facet normal -0.891004 0.453996 0
    outer loop
      vertex -18.4629 -25.1168 41
      vertex -18.193 -24.5871 45
      vertex -18.193 -24.5871 41
    endloop
  endfacet
  facet normal -0.891004 0.453996 0
    outer loop
      vertex -18.193 -24.5871 45
      vertex -18.4629 -25.1168 41
      vertex -18.4629 -25.1168 45
    endloop
  endfacet
  facet normal -0.987685 0.156455 0
    outer loop
      vertex -18.193 -24.5871 41
      vertex -18.1 -24 45
      vertex -18.1 -24 41
    endloop
  endfacet
  facet normal -0.987685 0.156455 0
    outer loop
      vertex -18.1 -24 45
      vertex -18.193 -24.5871 41
      vertex -18.193 -24.5871 45
    endloop
  endfacet
  facet normal -0.156455 -0.987685 0
    outer loop
      vertex -20 21.9 41
      vertex -19.4129 21.807 45
      vertex -20 21.9 45
    endloop
  endfacet
  facet normal -0.156455 -0.987685 -0
    outer loop
      vertex -19.4129 21.807 45
      vertex -20 21.9 41
      vertex -19.4129 21.807 41
    endloop
  endfacet
  facet normal -0.891004 -0.453996 0
    outer loop
      vertex -18.193 20.5871 41
      vertex -18.4629 21.1168 45
      vertex -18.4629 21.1168 41
    endloop
  endfacet
  facet normal -0.891004 -0.453996 0
    outer loop
      vertex -18.4629 21.1168 45
      vertex -18.193 20.5871 41
      vertex -18.193 20.5871 45
    endloop
  endfacet
  facet normal -0.987685 -0.156455 0
    outer loop
      vertex -18.1 20 41
      vertex -18.193 20.5871 45
      vertex -18.193 20.5871 41
    endloop
  endfacet
  facet normal -0.987685 -0.156455 0
    outer loop
      vertex -18.193 20.5871 45
      vertex -18.1 20 41
      vertex -18.1 20 45
    endloop
  endfacet
  facet normal -0.707107 -0.707107 0
    outer loop
      vertex -18.4629 21.1168 41
      vertex -18.8832 21.5371 45
      vertex -18.8832 21.5371 41
    endloop
  endfacet
  facet normal -0.707107 -0.707107 0
    outer loop
      vertex -18.8832 21.5371 45
      vertex -18.4629 21.1168 41
      vertex -18.4629 21.1168 45
    endloop
  endfacet
  facet normal -0.707107 0.707107 0
    outer loop
      vertex -18.8832 18.4629 41
      vertex -18.4629 18.8832 45
      vertex -18.4629 18.8832 41
    endloop
  endfacet
  facet normal -0.707107 0.707107 0
    outer loop
      vertex -18.4629 18.8832 45
      vertex -18.8832 18.4629 41
      vertex -18.8832 18.4629 45
    endloop
  endfacet
  facet normal -0.453996 0.891004 0
    outer loop
      vertex -18.8832 18.4629 41
      vertex -19.4129 18.193 45
      vertex -18.8832 18.4629 45
    endloop
  endfacet
  facet normal -0.453996 0.891004 0
    outer loop
      vertex -19.4129 18.193 45
      vertex -18.8832 18.4629 41
      vertex -19.4129 18.193 41
    endloop
  endfacet
  facet normal 0.891004 -0.453996 0
    outer loop
      vertex -21.807 20.5871 45
      vertex -21.5371 21.1168 41
      vertex -21.5371 21.1168 45
    endloop
  endfacet
  facet normal 0.891004 -0.453996 0
    outer loop
      vertex -21.5371 21.1168 41
      vertex -21.807 20.5871 45
      vertex -21.807 20.5871 41
    endloop
  endfacet
  facet normal 0.707107 -0.707107 0
    outer loop
      vertex -21.5371 21.1168 45
      vertex -21.1168 21.5371 41
      vertex -21.1168 21.5371 45
    endloop
  endfacet
  facet normal 0.707107 -0.707107 0
    outer loop
      vertex -21.1168 21.5371 41
      vertex -21.5371 21.1168 45
      vertex -21.5371 21.1168 41
    endloop
  endfacet
  facet normal -0.891004 0.453996 0
    outer loop
      vertex -18.4629 18.8832 41
      vertex -18.193 19.4129 45
      vertex -18.193 19.4129 41
    endloop
  endfacet
  facet normal -0.891004 0.453996 0
    outer loop
      vertex -18.193 19.4129 45
      vertex -18.4629 18.8832 41
      vertex -18.4629 18.8832 45
    endloop
  endfacet
  facet normal 0.156455 0.987685 -0
    outer loop
      vertex -20 18.1 41
      vertex -20.5871 18.193 45
      vertex -20 18.1 45
    endloop
  endfacet
  facet normal 0.156455 0.987685 0
    outer loop
      vertex -20.5871 18.193 45
      vertex -20 18.1 41
      vertex -20.5871 18.193 41
    endloop
  endfacet
  facet normal 0.156455 -0.987685 0
    outer loop
      vertex -20.5871 21.807 41
      vertex -20 21.9 45
      vertex -20.5871 21.807 45
    endloop
  endfacet
  facet normal 0.156455 -0.987685 0
    outer loop
      vertex -20 21.9 45
      vertex -20.5871 21.807 41
      vertex -20 21.9 41
    endloop
  endfacet
  facet normal -0.987685 0.156455 0
    outer loop
      vertex -18.193 19.4129 41
      vertex -18.1 20 45
      vertex -18.1 20 41
    endloop
  endfacet
  facet normal -0.987685 0.156455 0
    outer loop
      vertex -18.1 20 45
      vertex -18.193 19.4129 41
      vertex -18.193 19.4129 45
    endloop
  endfacet
  facet normal 0.707107 0.707107 -0
    outer loop
      vertex -21.1168 18.4629 41
      vertex -21.5371 18.8832 45
      vertex -21.1168 18.4629 45
    endloop
  endfacet
  facet normal 0.707107 0.707107 0
    outer loop
      vertex -21.5371 18.8832 45
      vertex -21.1168 18.4629 41
      vertex -21.5371 18.8832 41
    endloop
  endfacet
  facet normal 0.453996 -0.891004 0
    outer loop
      vertex -21.1168 21.5371 41
      vertex -20.5871 21.807 45
      vertex -21.1168 21.5371 45
    endloop
  endfacet
  facet normal 0.453996 -0.891004 0
    outer loop
      vertex -20.5871 21.807 45
      vertex -21.1168 21.5371 41
      vertex -20.5871 21.807 41
    endloop
  endfacet
  facet normal 0.987685 0.156455 0
    outer loop
      vertex -21.807 19.4129 45
      vertex -21.9 20 41
      vertex -21.9 20 45
    endloop
  endfacet
  facet normal 0.987685 0.156455 0
    outer loop
      vertex -21.9 20 41
      vertex -21.807 19.4129 45
      vertex -21.807 19.4129 41
    endloop
  endfacet
  facet normal -0.156455 0.987685 0
    outer loop
      vertex -19.4129 18.193 41
      vertex -20 18.1 45
      vertex -19.4129 18.193 45
    endloop
  endfacet
  facet normal -0.156455 0.987685 0
    outer loop
      vertex -20 18.1 45
      vertex -19.4129 18.193 41
      vertex -20 18.1 41
    endloop
  endfacet
  facet normal -0.453996 -0.891004 0
    outer loop
      vertex -19.4129 21.807 41
      vertex -18.8832 21.5371 45
      vertex -19.4129 21.807 45
    endloop
  endfacet
  facet normal -0.453996 -0.891004 -0
    outer loop
      vertex -18.8832 21.5371 45
      vertex -19.4129 21.807 41
      vertex -18.8832 21.5371 41
    endloop
  endfacet
  facet normal 0.891004 0.453996 0
    outer loop
      vertex -21.5371 18.8832 45
      vertex -21.807 19.4129 41
      vertex -21.807 19.4129 45
    endloop
  endfacet
  facet normal 0.891004 0.453996 0
    outer loop
      vertex -21.807 19.4129 41
      vertex -21.5371 18.8832 45
      vertex -21.5371 18.8832 41
    endloop
  endfacet
  facet normal 0.987685 -0.156455 0
    outer loop
      vertex -21.9 20 45
      vertex -21.807 20.5871 41
      vertex -21.807 20.5871 45
    endloop
  endfacet
  facet normal 0.987685 -0.156455 0
    outer loop
      vertex -21.807 20.5871 41
      vertex -21.9 20 45
      vertex -21.9 20 41
    endloop
  endfacet
  facet normal 0.453996 0.891004 -0
    outer loop
      vertex -20.5871 18.193 41
      vertex -21.1168 18.4629 45
      vertex -20.5871 18.193 45
    endloop
  endfacet
  facet normal 0.453996 0.891004 0
    outer loop
      vertex -21.1168 18.4629 45
      vertex -20.5871 18.193 41
      vertex -21.1168 18.4629 41
    endloop
  endfacet
  facet normal 0.987685 0.156455 0
    outer loop
      vertex 22.693 -24.5871 45
      vertex 22.6 -24 41
      vertex 22.6 -24 45
    endloop
  endfacet
  facet normal 0.987685 0.156455 0
    outer loop
      vertex 22.6 -24 41
      vertex 22.693 -24.5871 45
      vertex 22.693 -24.5871 41
    endloop
  endfacet
  facet normal -0.891004 -0.453996 0
    outer loop
      vertex 26.307 -23.4129 41
      vertex 26.0371 -22.8832 45
      vertex 26.0371 -22.8832 41
    endloop
  endfacet
  facet normal -0.891004 -0.453996 0
    outer loop
      vertex 26.0371 -22.8832 45
      vertex 26.307 -23.4129 41
      vertex 26.307 -23.4129 45
    endloop
  endfacet
  facet normal -0.987685 -0.156455 0
    outer loop
      vertex 26.4 -24 41
      vertex 26.307 -23.4129 45
      vertex 26.307 -23.4129 41
    endloop
  endfacet
  facet normal -0.987685 -0.156455 0
    outer loop
      vertex 26.307 -23.4129 45
      vertex 26.4 -24 41
      vertex 26.4 -24 45
    endloop
  endfacet
  facet normal -0.707107 -0.707107 0
    outer loop
      vertex 25.6168 -22.4629 41
      vertex 26.0371 -22.8832 45
      vertex 25.6168 -22.4629 45
    endloop
  endfacet
  facet normal -0.707107 -0.707107 -0
    outer loop
      vertex 26.0371 -22.8832 45
      vertex 25.6168 -22.4629 41
      vertex 26.0371 -22.8832 41
    endloop
  endfacet
  facet normal -0.707107 0.707107 0
    outer loop
      vertex 25.6168 -25.5371 41
      vertex 26.0371 -25.1168 45
      vertex 26.0371 -25.1168 41
    endloop
  endfacet
  facet normal -0.707107 0.707107 0
    outer loop
      vertex 26.0371 -25.1168 45
      vertex 25.6168 -25.5371 41
      vertex 25.6168 -25.5371 45
    endloop
  endfacet
  facet normal -0.156455 -0.987685 0
    outer loop
      vertex 24.5 -22.1 41
      vertex 25.0871 -22.193 45
      vertex 24.5 -22.1 45
    endloop
  endfacet
  facet normal -0.156455 -0.987685 -0
    outer loop
      vertex 25.0871 -22.193 45
      vertex 24.5 -22.1 41
      vertex 25.0871 -22.193 41
    endloop
  endfacet
  facet normal 0.891004 0.453996 0
    outer loop
      vertex 22.9629 -25.1168 45
      vertex 22.693 -24.5871 41
      vertex 22.693 -24.5871 45
    endloop
  endfacet
  facet normal 0.891004 0.453996 0
    outer loop
      vertex 22.693 -24.5871 41
      vertex 22.9629 -25.1168 45
      vertex 22.9629 -25.1168 41
    endloop
  endfacet
  facet normal -0.453996 -0.891004 0
    outer loop
      vertex 25.0871 -22.193 41
      vertex 25.6168 -22.4629 45
      vertex 25.0871 -22.193 45
    endloop
  endfacet
  facet normal -0.453996 -0.891004 -0
    outer loop
      vertex 25.6168 -22.4629 45
      vertex 25.0871 -22.193 41
      vertex 25.6168 -22.4629 41
    endloop
  endfacet
  facet normal 0.156455 0.987685 -0
    outer loop
      vertex 24.5 -25.9 41
      vertex 23.9129 -25.807 45
      vertex 24.5 -25.9 45
    endloop
  endfacet
  facet normal 0.156455 0.987685 0
    outer loop
      vertex 23.9129 -25.807 45
      vertex 24.5 -25.9 41
      vertex 23.9129 -25.807 41
    endloop
  endfacet
  facet normal 0.453996 -0.891004 0
    outer loop
      vertex 23.3832 -22.4629 41
      vertex 23.9129 -22.193 45
      vertex 23.3832 -22.4629 45
    endloop
  endfacet
  facet normal 0.453996 -0.891004 0
    outer loop
      vertex 23.9129 -22.193 45
      vertex 23.3832 -22.4629 41
      vertex 23.9129 -22.193 41
    endloop
  endfacet
  facet normal -0.156455 0.987685 0
    outer loop
      vertex 25.0871 -25.807 41
      vertex 24.5 -25.9 45
      vertex 25.0871 -25.807 45
    endloop
  endfacet
  facet normal -0.156455 0.987685 0
    outer loop
      vertex 24.5 -25.9 45
      vertex 25.0871 -25.807 41
      vertex 24.5 -25.9 41
    endloop
  endfacet
  facet normal -0.453996 0.891004 0
    outer loop
      vertex 25.6168 -25.5371 41
      vertex 25.0871 -25.807 45
      vertex 25.6168 -25.5371 45
    endloop
  endfacet
  facet normal -0.453996 0.891004 0
    outer loop
      vertex 25.0871 -25.807 45
      vertex 25.6168 -25.5371 41
      vertex 25.0871 -25.807 41
    endloop
  endfacet
  facet normal 0.707107 0.707107 0
    outer loop
      vertex 23.3832 -25.5371 45
      vertex 22.9629 -25.1168 41
      vertex 22.9629 -25.1168 45
    endloop
  endfacet
  facet normal 0.707107 0.707107 0
    outer loop
      vertex 22.9629 -25.1168 41
      vertex 23.3832 -25.5371 45
      vertex 23.3832 -25.5371 41
    endloop
  endfacet
  facet normal 0.156455 -0.987685 0
    outer loop
      vertex 23.9129 -22.193 41
      vertex 24.5 -22.1 45
      vertex 23.9129 -22.193 45
    endloop
  endfacet
  facet normal 0.156455 -0.987685 0
    outer loop
      vertex 24.5 -22.1 45
      vertex 23.9129 -22.193 41
      vertex 24.5 -22.1 41
    endloop
  endfacet
  facet normal 0.891004 -0.453996 0
    outer loop
      vertex 22.693 -23.4129 45
      vertex 22.9629 -22.8832 41
      vertex 22.9629 -22.8832 45
    endloop
  endfacet
  facet normal 0.891004 -0.453996 0
    outer loop
      vertex 22.9629 -22.8832 41
      vertex 22.693 -23.4129 45
      vertex 22.693 -23.4129 41
    endloop
  endfacet
  facet normal 0.707107 -0.707107 0
    outer loop
      vertex 22.9629 -22.8832 45
      vertex 23.3832 -22.4629 41
      vertex 23.3832 -22.4629 45
    endloop
  endfacet
  facet normal 0.707107 -0.707107 0
    outer loop
      vertex 23.3832 -22.4629 41
      vertex 22.9629 -22.8832 45
      vertex 22.9629 -22.8832 41
    endloop
  endfacet
  facet normal -0.891004 0.453996 0
    outer loop
      vertex 26.0371 -25.1168 41
      vertex 26.307 -24.5871 45
      vertex 26.307 -24.5871 41
    endloop
  endfacet
  facet normal -0.891004 0.453996 0
    outer loop
      vertex 26.307 -24.5871 45
      vertex 26.0371 -25.1168 41
      vertex 26.0371 -25.1168 45
    endloop
  endfacet
  facet normal -0.987685 0.156455 0
    outer loop
      vertex 26.307 -24.5871 41
      vertex 26.4 -24 45
      vertex 26.4 -24 41
    endloop
  endfacet
  facet normal -0.987685 0.156455 0
    outer loop
      vertex 26.4 -24 45
      vertex 26.307 -24.5871 41
      vertex 26.307 -24.5871 45
    endloop
  endfacet
  facet normal 0.453996 0.891004 -0
    outer loop
      vertex 23.9129 -25.807 41
      vertex 23.3832 -25.5371 45
      vertex 23.9129 -25.807 45
    endloop
  endfacet
  facet normal 0.453996 0.891004 0
    outer loop
      vertex 23.3832 -25.5371 45
      vertex 23.9129 -25.807 41
      vertex 23.3832 -25.5371 41
    endloop
  endfacet
  facet normal 0.987685 -0.156455 0
    outer loop
      vertex 22.6 -24 45
      vertex 22.693 -23.4129 41
      vertex 22.693 -23.4129 45
    endloop
  endfacet
  facet normal 0.987685 -0.156455 0
    outer loop
      vertex 22.693 -23.4129 41
      vertex 22.6 -24 45
      vertex 22.6 -24 41
    endloop
  endfacet
  facet normal -0.156455 -0.987685 0
    outer loop
      vertex 24.5 21.9 41
      vertex 25.0871 21.807 45
      vertex 24.5 21.9 45
    endloop
  endfacet
  facet normal -0.156455 -0.987685 -0
    outer loop
      vertex 25.0871 21.807 45
      vertex 24.5 21.9 41
      vertex 25.0871 21.807 41
    endloop
  endfacet
  facet normal -0.891004 -0.453996 0
    outer loop
      vertex 26.307 20.5871 41
      vertex 26.0371 21.1168 45
      vertex 26.0371 21.1168 41
    endloop
  endfacet
  facet normal -0.891004 -0.453996 0
    outer loop
      vertex 26.0371 21.1168 45
      vertex 26.307 20.5871 41
      vertex 26.307 20.5871 45
    endloop
  endfacet
  facet normal -0.987685 -0.156455 0
    outer loop
      vertex 26.4 20 41
      vertex 26.307 20.5871 45
      vertex 26.307 20.5871 41
    endloop
  endfacet
  facet normal -0.987685 -0.156455 0
    outer loop
      vertex 26.307 20.5871 45
      vertex 26.4 20 41
      vertex 26.4 20 45
    endloop
  endfacet
  facet normal -0.707107 -0.707107 0
    outer loop
      vertex 26.0371 21.1168 41
      vertex 25.6168 21.5371 45
      vertex 25.6168 21.5371 41
    endloop
  endfacet
  facet normal -0.707107 -0.707107 0
    outer loop
      vertex 25.6168 21.5371 45
      vertex 26.0371 21.1168 41
      vertex 26.0371 21.1168 45
    endloop
  endfacet
  facet normal -0.707107 0.707107 0
    outer loop
      vertex 26.0371 18.8832 41
      vertex 25.6168 18.4629 45
      vertex 26.0371 18.8832 45
    endloop
  endfacet
  facet normal -0.707107 0.707107 0
    outer loop
      vertex 25.6168 18.4629 45
      vertex 26.0371 18.8832 41
      vertex 25.6168 18.4629 41
    endloop
  endfacet
  facet normal -0.453996 0.891004 0
    outer loop
      vertex 25.6168 18.4629 41
      vertex 25.0871 18.193 45
      vertex 25.6168 18.4629 45
    endloop
  endfacet
  facet normal -0.453996 0.891004 0
    outer loop
      vertex 25.0871 18.193 45
      vertex 25.6168 18.4629 41
      vertex 25.0871 18.193 41
    endloop
  endfacet
  facet normal 0.891004 -0.453996 0
    outer loop
      vertex 22.693 20.5871 45
      vertex 22.9629 21.1168 41
      vertex 22.9629 21.1168 45
    endloop
  endfacet
  facet normal 0.891004 -0.453996 0
    outer loop
      vertex 22.9629 21.1168 41
      vertex 22.693 20.5871 45
      vertex 22.693 20.5871 41
    endloop
  endfacet
  facet normal 0.707107 -0.707107 0
    outer loop
      vertex 22.9629 21.1168 45
      vertex 23.3832 21.5371 41
      vertex 23.3832 21.5371 45
    endloop
  endfacet
  facet normal 0.707107 -0.707107 0
    outer loop
      vertex 23.3832 21.5371 41
      vertex 22.9629 21.1168 45
      vertex 22.9629 21.1168 41
    endloop
  endfacet
  facet normal -0.891004 0.453996 0
    outer loop
      vertex 26.0371 18.8832 41
      vertex 26.307 19.4129 45
      vertex 26.307 19.4129 41
    endloop
  endfacet
  facet normal -0.891004 0.453996 0
    outer loop
      vertex 26.307 19.4129 45
      vertex 26.0371 18.8832 41
      vertex 26.0371 18.8832 45
    endloop
  endfacet
  facet normal 0.156455 0.987685 -0
    outer loop
      vertex 24.5 18.1 41
      vertex 23.9129 18.193 45
      vertex 24.5 18.1 45
    endloop
  endfacet
  facet normal 0.156455 0.987685 0
    outer loop
      vertex 23.9129 18.193 45
      vertex 24.5 18.1 41
      vertex 23.9129 18.193 41
    endloop
  endfacet
  facet normal 0.156455 -0.987685 0
    outer loop
      vertex 23.9129 21.807 41
      vertex 24.5 21.9 45
      vertex 23.9129 21.807 45
    endloop
  endfacet
  facet normal 0.156455 -0.987685 0
    outer loop
      vertex 24.5 21.9 45
      vertex 23.9129 21.807 41
      vertex 24.5 21.9 41
    endloop
  endfacet
  facet normal -0.987685 0.156455 0
    outer loop
      vertex 26.307 19.4129 41
      vertex 26.4 20 45
      vertex 26.4 20 41
    endloop
  endfacet
  facet normal -0.987685 0.156455 0
    outer loop
      vertex 26.4 20 45
      vertex 26.307 19.4129 41
      vertex 26.307 19.4129 45
    endloop
  endfacet
  facet normal 0.707107 0.707107 0
    outer loop
      vertex 23.3832 18.4629 45
      vertex 22.9629 18.8832 41
      vertex 22.9629 18.8832 45
    endloop
  endfacet
  facet normal 0.707107 0.707107 0
    outer loop
      vertex 22.9629 18.8832 41
      vertex 23.3832 18.4629 45
      vertex 23.3832 18.4629 41
    endloop
  endfacet
  facet normal 0.453996 -0.891004 0
    outer loop
      vertex 23.3832 21.5371 41
      vertex 23.9129 21.807 45
      vertex 23.3832 21.5371 45
    endloop
  endfacet
  facet normal 0.453996 -0.891004 0
    outer loop
      vertex 23.9129 21.807 45
      vertex 23.3832 21.5371 41
      vertex 23.9129 21.807 41
    endloop
  endfacet
  facet normal 0.987685 0.156455 0
    outer loop
      vertex 22.693 19.4129 45
      vertex 22.6 20 41
      vertex 22.6 20 45
    endloop
  endfacet
  facet normal 0.987685 0.156455 0
    outer loop
      vertex 22.6 20 41
      vertex 22.693 19.4129 45
      vertex 22.693 19.4129 41
    endloop
  endfacet
  facet normal -0.156455 0.987685 0
    outer loop
      vertex 25.0871 18.193 41
      vertex 24.5 18.1 45
      vertex 25.0871 18.193 45
    endloop
  endfacet
  facet normal -0.156455 0.987685 0
    outer loop
      vertex 24.5 18.1 45
      vertex 25.0871 18.193 41
      vertex 24.5 18.1 41
    endloop
  endfacet
  facet normal -0.453996 -0.891004 0
    outer loop
      vertex 25.0871 21.807 41
      vertex 25.6168 21.5371 45
      vertex 25.0871 21.807 45
    endloop
  endfacet
  facet normal -0.453996 -0.891004 -0
    outer loop
      vertex 25.6168 21.5371 45
      vertex 25.0871 21.807 41
      vertex 25.6168 21.5371 41
    endloop
  endfacet
  facet normal 0.891004 0.453996 0
    outer loop
      vertex 22.9629 18.8832 45
      vertex 22.693 19.4129 41
      vertex 22.693 19.4129 45
    endloop
  endfacet
  facet normal 0.891004 0.453996 0
    outer loop
      vertex 22.693 19.4129 41
      vertex 22.9629 18.8832 45
      vertex 22.9629 18.8832 41
    endloop
  endfacet
  facet normal 0.987685 -0.156455 0
    outer loop
      vertex 22.6 20 45
      vertex 22.693 20.5871 41
      vertex 22.693 20.5871 45
    endloop
  endfacet
  facet normal 0.987685 -0.156455 0
    outer loop
      vertex 22.693 20.5871 41
      vertex 22.6 20 45
      vertex 22.6 20 41
    endloop
  endfacet
  facet normal 0.453996 0.891004 -0
    outer loop
      vertex 23.9129 18.193 41
      vertex 23.3832 18.4629 45
      vertex 23.9129 18.193 45
    endloop
  endfacet
  facet normal 0.453996 0.891004 0
    outer loop
      vertex 23.3832 18.4629 45
      vertex 23.9129 18.193 41
      vertex 23.3832 18.4629 41
    endloop
  endfacet
endsolid OpenSCAD_Model
