solid OpenSCAD_Model
  facet normal 1 0 0
    outer loop
      vertex 40 215 -15.4
      vertex 40 195 -21.8
      vertex 40 215 -26.2
    endloop
  endfacet
  facet normal 1 0 0
    outer loop
      vertex 40 215 -15.4
      vertex 40 165 -21.8
      vertex 40 195 -21.8
    endloop
  endfacet
  facet normal 1 -0 0
    outer loop
      vertex 40 145 -15.4
      vertex 40 165 -21.8
      vertex 40 215 -15.4
    endloop
  endfacet
  facet normal 1 0 0
    outer loop
      vertex 40 145 -26.2
      vertex 40 165 -21.8
      vertex 40 145 -15.4
    endloop
  endfacet
  facet normal 1 0 0
    outer loop
      vertex 40 165 -21.8
      vertex 40 145 -26.2
      vertex 40 165 -26.2
    endloop
  endfacet
  facet normal 1 0 0
    outer loop
      vertex 40 215 -26.2
      vertex 40 195 -21.8
      vertex 40 195 -26.2
    endloop
  endfacet
  facet normal 0 0 1
    outer loop
      vertex 28.375 158.114 -15.4
      vertex 31.9116 160.194 -15.4
      vertex 30.0884 160.194 -15.4
    endloop
  endfacet
  facet normal 0 0 1
    outer loop
      vertex 28.375 158.114 -15.4
      vertex 30.0884 160.194 -15.4
      vertex 28.6134 161.266 -15.4
    endloop
  endfacet
  facet normal 0 0 1
    outer loop
      vertex 31.9116 160.194 -15.4
      vertex 28.375 158.114 -15.4
      vertex 30.75 154 -15.4
    endloop
  endfacet
  facet normal 0 0 1
    outer loop
      vertex 23.625 158.114 -15.4
      vertex 28.6134 161.266 -15.4
      vertex 28.05 163 -15.4
    endloop
  endfacet
  facet normal 0 0 1
    outer loop
      vertex 28.6134 164.734 -15.4
      vertex 23.625 158.114 -15.4
      vertex 28.05 163 -15.4
    endloop
  endfacet
  facet normal 0 0 1
    outer loop
      vertex 28.6134 161.266 -15.4
      vertex 23.625 158.114 -15.4
      vertex 28.375 158.114 -15.4
    endloop
  endfacet
  facet normal 0 0 1
    outer loop
      vertex 22 204.701 -15.4
      vertex 23.625 158.114 -15.4
      vertex 23.625 201.886 -15.4
    endloop
  endfacet
  facet normal 0 0 1
    outer loop
      vertex 23.625 158.114 -15.4
      vertex 22 204.701 -15.4
      vertex 22 155.299 -15.4
    endloop
  endfacet
  facet normal -0 0 1
    outer loop
      vertex 33.3866 195.266 -15.4
      vertex 33.95 163 -15.4
      vertex 33.95 197 -15.4
    endloop
  endfacet
  facet normal 0 0 1
    outer loop
      vertex 33.3866 195.266 -15.4
      vertex 33.3866 164.734 -15.4
      vertex 33.95 163 -15.4
    endloop
  endfacet
  facet normal -0 0 1
    outer loop
      vertex 31.9116 194.194 -15.4
      vertex 33.3866 164.734 -15.4
      vertex 33.3866 195.266 -15.4
    endloop
  endfacet
  facet normal 0 0 1
    outer loop
      vertex 31.9116 194.194 -15.4
      vertex 31.9116 165.806 -15.4
      vertex 33.3866 164.734 -15.4
    endloop
  endfacet
  facet normal -0 0 1
    outer loop
      vertex 30.0884 194.194 -15.4
      vertex 31.9116 165.806 -15.4
      vertex 31.9116 194.194 -15.4
    endloop
  endfacet
  facet normal 0 0 1
    outer loop
      vertex 30.0884 194.194 -15.4
      vertex 30.0884 165.806 -15.4
      vertex 31.9116 165.806 -15.4
    endloop
  endfacet
  facet normal 0 0 1
    outer loop
      vertex 28.6134 195.266 -15.4
      vertex 30.0884 165.806 -15.4
      vertex 30.0884 194.194 -15.4
    endloop
  endfacet
  facet normal 0 0 1
    outer loop
      vertex 28.6134 195.266 -15.4
      vertex 28.6134 164.734 -15.4
      vertex 30.0884 165.806 -15.4
    endloop
  endfacet
  facet normal 0 0 1
    outer loop
      vertex 23.625 201.886 -15.4
      vertex 28.6134 195.266 -15.4
      vertex 28.05 197 -15.4
    endloop
  endfacet
  facet normal 0 0 1
    outer loop
      vertex 28.6134 195.266 -15.4
      vertex 23.625 201.886 -15.4
      vertex 28.6134 164.734 -15.4
    endloop
  endfacet
  facet normal 0 0 1
    outer loop
      vertex 40 215 -15.4
      vertex 33.95 197 -15.4
      vertex 40 145 -15.4
    endloop
  endfacet
  facet normal 0 0 1
    outer loop
      vertex 40 215 -15.4
      vertex 33.3866 198.734 -15.4
      vertex 33.95 197 -15.4
    endloop
  endfacet
  facet normal -0 0 1
    outer loop
      vertex 30.75 206 -15.4
      vertex 33.3866 198.734 -15.4
      vertex 40 215 -15.4
    endloop
  endfacet
  facet normal 0 0 1
    outer loop
      vertex 33.3866 198.734 -15.4
      vertex 30.75 206 -15.4
      vertex 31.9116 199.806 -15.4
    endloop
  endfacet
  facet normal 0 0 1
    outer loop
      vertex 40 215 -15.4
      vertex 28.375 210.114 -15.4
      vertex 30.75 206 -15.4
    endloop
  endfacet
  facet normal -0 0 1
    outer loop
      vertex 22 215 -15.4
      vertex 28.375 210.114 -15.4
      vertex 40 215 -15.4
    endloop
  endfacet
  facet normal 0 0 1
    outer loop
      vertex 28.375 210.114 -15.4
      vertex 22 215 -15.4
      vertex 23.625 210.114 -15.4
    endloop
  endfacet
  facet normal 0 0 1
    outer loop
      vertex 23.625 210.114 -15.4
      vertex 22 215 -15.4
      vertex 22 207.299 -15.4
    endloop
  endfacet
  facet normal -0 0 1
    outer loop
      vertex 33.95 163 -15.4
      vertex 40 145 -15.4
      vertex 33.95 197 -15.4
    endloop
  endfacet
  facet normal -0 0 1
    outer loop
      vertex 33.3866 161.266 -15.4
      vertex 40 145 -15.4
      vertex 33.95 163 -15.4
    endloop
  endfacet
  facet normal 0 0 1
    outer loop
      vertex 30.75 154 -15.4
      vertex 33.3866 161.266 -15.4
      vertex 31.9116 160.194 -15.4
    endloop
  endfacet
  facet normal 0 0 1
    outer loop
      vertex 33.3866 161.266 -15.4
      vertex 30.75 154 -15.4
      vertex 40 145 -15.4
    endloop
  endfacet
  facet normal -0 0 1
    outer loop
      vertex 28.375 149.886 -15.4
      vertex 40 145 -15.4
      vertex 30.75 154 -15.4
    endloop
  endfacet
  facet normal 0 0 1
    outer loop
      vertex 22 145 -15.4
      vertex 28.375 149.886 -15.4
      vertex 23.625 149.886 -15.4
    endloop
  endfacet
  facet normal 0 0 1
    outer loop
      vertex 28.375 149.886 -15.4
      vertex 22 145 -15.4
      vertex 40 145 -15.4
    endloop
  endfacet
  facet normal 0 0 1
    outer loop
      vertex 22 145 -15.4
      vertex 23.625 149.886 -15.4
      vertex 22 152.701 -15.4
    endloop
  endfacet
  facet normal -0 0 1
    outer loop
      vertex 28.375 201.886 -15.4
      vertex 31.9116 199.806 -15.4
      vertex 30.75 206 -15.4
    endloop
  endfacet
  facet normal 0 0 1
    outer loop
      vertex 31.9116 199.806 -15.4
      vertex 28.375 201.886 -15.4
      vertex 30.0884 199.806 -15.4
    endloop
  endfacet
  facet normal 0 0 1
    outer loop
      vertex 30.0884 199.806 -15.4
      vertex 28.375 201.886 -15.4
      vertex 28.6134 198.734 -15.4
    endloop
  endfacet
  facet normal -0 0 1
    outer loop
      vertex 23.625 201.886 -15.4
      vertex 28.6134 198.734 -15.4
      vertex 28.375 201.886 -15.4
    endloop
  endfacet
  facet normal 0 0 1
    outer loop
      vertex 23.625 158.114 -15.4
      vertex 28.6134 164.734 -15.4
      vertex 23.625 201.886 -15.4
    endloop
  endfacet
  facet normal 0 0 1
    outer loop
      vertex 28.6134 198.734 -15.4
      vertex 23.625 201.886 -15.4
      vertex 28.05 197 -15.4
    endloop
  endfacet
  facet normal -0 0 -1
    outer loop
      vertex 26.9363 192.586 -26.2
      vertex 4.5 180 -26.2
      vertex 22 195 -26.2
    endloop
  endfacet
  facet normal 0 0 -1
    outer loop
      vertex 22 165 -26.2
      vertex 3.76777 178.232 -26.2
      vertex 4.5 180 -26.2
    endloop
  endfacet
  facet normal 0 0 -1
    outer loop
      vertex 22 165 -26.2
      vertex 2 177.5 -26.2
      vertex 3.76777 178.232 -26.2
    endloop
  endfacet
  facet normal 0 0 -1
    outer loop
      vertex -8 165 -26.2
      vertex 2 177.5 -26.2
      vertex 22 165 -26.2
    endloop
  endfacet
  facet normal -0 0 -1
    outer loop
      vertex 0.232233 178.232 -26.2
      vertex -8 165 -26.2
      vertex -0.5 180 -26.2
    endloop
  endfacet
  facet normal -0 0 -1
    outer loop
      vertex 2 177.5 -26.2
      vertex -8 165 -26.2
      vertex 0.232233 178.232 -26.2
    endloop
  endfacet
  facet normal 0 0 -1
    outer loop
      vertex 3.76777 181.768 -26.2
      vertex 22 195 -26.2
      vertex 4.5 180 -26.2
    endloop
  endfacet
  facet normal 0 0 -1
    outer loop
      vertex 2 182.5 -26.2
      vertex 22 195 -26.2
      vertex 3.76777 181.768 -26.2
    endloop
  endfacet
  facet normal 0 0 -1
    outer loop
      vertex -8 195 -26.2
      vertex 2 182.5 -26.2
      vertex 0.232233 181.768 -26.2
    endloop
  endfacet
  facet normal 0 0 -1
    outer loop
      vertex -8 195 -26.2
      vertex -0.5 180 -26.2
      vertex -8 165 -26.2
    endloop
  endfacet
  facet normal 0 0 -1
    outer loop
      vertex 2 182.5 -26.2
      vertex -8 195 -26.2
      vertex 22 195 -26.2
    endloop
  endfacet
  facet normal 0 0 -1
    outer loop
      vertex -0.5 180 -26.2
      vertex -8 195 -26.2
      vertex 0.232233 181.768 -26.2
    endloop
  endfacet
  facet normal 0 0 -1
    outer loop
      vertex 30.5045 202.98 -26.2
      vertex 27.7678 204.232 -26.2
      vertex 28.5 206 -26.2
    endloop
  endfacet
  facet normal 0 0 -1
    outer loop
      vertex 26 203.5 -26.2
      vertex 28.5898 202.495 -26.2
      vertex 26.9363 201.414 -26.2
    endloop
  endfacet
  facet normal 0 0 -1
    outer loop
      vertex 28.5898 202.495 -26.2
      vertex 26 203.5 -26.2
      vertex 27.7678 204.232 -26.2
    endloop
  endfacet
  facet normal 0 0 -1
    outer loop
      vertex 25.7232 199.856 -26.2
      vertex 26 203.5 -26.2
      vertex 26.9363 201.414 -26.2
    endloop
  endfacet
  facet normal 0 0 -1
    outer loop
      vertex 24.2322 204.232 -26.2
      vertex 25.7232 199.856 -26.2
      vertex 25.0818 197.988 -26.2
    endloop
  endfacet
  facet normal 0 0 -1
    outer loop
      vertex 25.7232 199.856 -26.2
      vertex 24.2322 204.232 -26.2
      vertex 26 203.5 -26.2
    endloop
  endfacet
  facet normal 0 0 -1
    outer loop
      vertex 25.0818 196.012 -26.2
      vertex 24.2322 204.232 -26.2
      vertex 25.0818 197.988 -26.2
    endloop
  endfacet
  facet normal 0 0 -1
    outer loop
      vertex 22 165 -26.2
      vertex 24.2322 155.768 -26.2
      vertex 23.5 154 -26.2
    endloop
  endfacet
  facet normal 0 0 -1
    outer loop
      vertex 25.7232 194.144 -26.2
      vertex 22 195 -26.2
      vertex 25.0818 196.012 -26.2
    endloop
  endfacet
  facet normal 0 0 -1
    outer loop
      vertex 46.05 180 -26.2
      vertex 37 197 -26.2
      vertex 40 195 -26.2
    endloop
  endfacet
  facet normal 0 0 -1
    outer loop
      vertex 46.05 180 -26.2
      vertex 36.6749 195.052 -26.2
      vertex 37 197 -26.2
    endloop
  endfacet
  facet normal -0 0 -1
    outer loop
      vertex 46.6134 178.266 -26.2
      vertex 34.2817 168.023 -26.2
      vertex 46.05 180 -26.2
    endloop
  endfacet
  facet normal 0 0 -1
    outer loop
      vertex 46.05 180 -26.2
      vertex 35.7348 193.315 -26.2
      vertex 36.6749 195.052 -26.2
    endloop
  endfacet
  facet normal 0 0 -1
    outer loop
      vertex 32.4729 168.816 -26.2
      vertex 46.05 180 -26.2
      vertex 34.2817 168.023 -26.2
    endloop
  endfacet
  facet normal 0 0 -1
    outer loop
      vertex 46.05 180 -26.2
      vertex 34.2817 191.977 -26.2
      vertex 35.7348 193.315 -26.2
    endloop
  endfacet
  facet normal 0 0 -1
    outer loop
      vertex 32.4729 191.184 -26.2
      vertex 46.05 180 -26.2
      vertex 32.4729 168.816 -26.2
    endloop
  endfacet
  facet normal 0 0 -1
    outer loop
      vertex 46.05 180 -26.2
      vertex 32.4729 191.184 -26.2
      vertex 34.2817 191.977 -26.2
    endloop
  endfacet
  facet normal 0 0 -1
    outer loop
      vertex 30.5045 168.98 -26.2
      vertex 32.4729 191.184 -26.2
      vertex 32.4729 168.816 -26.2
    endloop
  endfacet
  facet normal 0 0 -1
    outer loop
      vertex 30.5045 168.98 -26.2
      vertex 30.5045 191.02 -26.2
      vertex 32.4729 191.184 -26.2
    endloop
  endfacet
  facet normal 0 0 -1
    outer loop
      vertex 28.5898 168.495 -26.2
      vertex 30.5045 191.02 -26.2
      vertex 30.5045 168.98 -26.2
    endloop
  endfacet
  facet normal 0 0 -1
    outer loop
      vertex 28.5898 168.495 -26.2
      vertex 28.5898 191.505 -26.2
      vertex 30.5045 191.02 -26.2
    endloop
  endfacet
  facet normal 0 0 -1
    outer loop
      vertex 26.9363 167.414 -26.2
      vertex 28.5898 191.505 -26.2
      vertex 28.5898 168.495 -26.2
    endloop
  endfacet
  facet normal 0 0 -1
    outer loop
      vertex 26.9363 167.414 -26.2
      vertex 26.9363 192.586 -26.2
      vertex 28.5898 191.505 -26.2
    endloop
  endfacet
  facet normal 0 0 -1
    outer loop
      vertex 22 165 -26.2
      vertex 26.9363 167.414 -26.2
      vertex 25.7232 165.856 -26.2
    endloop
  endfacet
  facet normal 0 0 -1
    outer loop
      vertex 4.5 180 -26.2
      vertex 26.9363 167.414 -26.2
      vertex 22 165 -26.2
    endloop
  endfacet
  facet normal 0 0 -1
    outer loop
      vertex 22 165 -26.2
      vertex 25.7232 165.856 -26.2
      vertex 25.0818 163.988 -26.2
    endloop
  endfacet
  facet normal 0 0 -1
    outer loop
      vertex 26.9363 167.414 -26.2
      vertex 4.5 180 -26.2
      vertex 26.9363 192.586 -26.2
    endloop
  endfacet
  facet normal 0 0 -1
    outer loop
      vertex 36.6749 161.052 -26.2
      vertex 40 165 -26.2
      vertex 40 145 -26.2
    endloop
  endfacet
  facet normal 0 0 -1
    outer loop
      vertex 36.6749 164.948 -26.2
      vertex 40 165 -26.2
      vertex 37 163 -26.2
    endloop
  endfacet
  facet normal 0 0 -1
    outer loop
      vertex 34.2817 168.023 -26.2
      vertex 46.6134 178.266 -26.2
      vertex 35.7348 166.685 -26.2
    endloop
  endfacet
  facet normal 0 0 -1
    outer loop
      vertex 40 165 -26.2
      vertex 36.6749 161.052 -26.2
      vertex 37 163 -26.2
    endloop
  endfacet
  facet normal 0 0 -1
    outer loop
      vertex 40 145 -26.2
      vertex 35.7348 159.315 -26.2
      vertex 36.6749 161.052 -26.2
    endloop
  endfacet
  facet normal 0 0 -1
    outer loop
      vertex 40 145 -26.2
      vertex 34.2817 157.977 -26.2
      vertex 35.7348 159.315 -26.2
    endloop
  endfacet
  facet normal 0 0 -1
    outer loop
      vertex 40 145 -26.2
      vertex 32.4729 157.184 -26.2
      vertex 34.2817 157.977 -26.2
    endloop
  endfacet
  facet normal 0 0 -1
    outer loop
      vertex 27.7678 152.232 -26.2
      vertex 32.4729 157.184 -26.2
      vertex 40 145 -26.2
    endloop
  endfacet
  facet normal 0 0 -1
    outer loop
      vertex 32.4729 157.184 -26.2
      vertex 28.5 154 -26.2
      vertex 30.5045 157.02 -26.2
    endloop
  endfacet
  facet normal 0 0 -1
    outer loop
      vertex 27.7678 155.768 -26.2
      vertex 30.5045 157.02 -26.2
      vertex 28.5 154 -26.2
    endloop
  endfacet
  facet normal 0 0 -1
    outer loop
      vertex 32.4729 157.184 -26.2
      vertex 27.7678 152.232 -26.2
      vertex 28.5 154 -26.2
    endloop
  endfacet
  facet normal 0 0 -1
    outer loop
      vertex 22 145 -26.2
      vertex 27.7678 152.232 -26.2
      vertex 40 145 -26.2
    endloop
  endfacet
  facet normal 0 0 -1
    outer loop
      vertex 27.7678 152.232 -26.2
      vertex 22 145 -26.2
      vertex 26 151.5 -26.2
    endloop
  endfacet
  facet normal 0 0 -1
    outer loop
      vertex 22 165 -26.2
      vertex 23.5 154 -26.2
      vertex 22 145 -26.2
    endloop
  endfacet
  facet normal -0 0 -1
    outer loop
      vertex 24.2322 152.232 -26.2
      vertex 22 145 -26.2
      vertex 23.5 154 -26.2
    endloop
  endfacet
  facet normal -0 0 -1
    outer loop
      vertex 26 151.5 -26.2
      vertex 22 145 -26.2
      vertex 24.2322 152.232 -26.2
    endloop
  endfacet
  facet normal 0 0 -1
    outer loop
      vertex 36.6749 198.948 -26.2
      vertex 40 195 -26.2
      vertex 37 197 -26.2
    endloop
  endfacet
  facet normal 0 0 -1
    outer loop
      vertex 40 195 -26.2
      vertex 36.6749 198.948 -26.2
      vertex 40 215 -26.2
    endloop
  endfacet
  facet normal 0 0 -1
    outer loop
      vertex 35.7348 200.685 -26.2
      vertex 40 215 -26.2
      vertex 36.6749 198.948 -26.2
    endloop
  endfacet
  facet normal 0 0 -1
    outer loop
      vertex 34.2817 202.023 -26.2
      vertex 40 215 -26.2
      vertex 35.7348 200.685 -26.2
    endloop
  endfacet
  facet normal 0 0 -1
    outer loop
      vertex 32.4729 202.816 -26.2
      vertex 40 215 -26.2
      vertex 34.2817 202.023 -26.2
    endloop
  endfacet
  facet normal 0 0 -1
    outer loop
      vertex 28.5 206 -26.2
      vertex 32.4729 202.816 -26.2
      vertex 30.5045 202.98 -26.2
    endloop
  endfacet
  facet normal 0 0 -1
    outer loop
      vertex 27.7678 204.232 -26.2
      vertex 30.5045 202.98 -26.2
      vertex 28.5898 202.495 -26.2
    endloop
  endfacet
  facet normal 0 0 -1
    outer loop
      vertex 27.7678 207.768 -26.2
      vertex 32.4729 202.816 -26.2
      vertex 28.5 206 -26.2
    endloop
  endfacet
  facet normal 0 0 -1
    outer loop
      vertex 32.4729 202.816 -26.2
      vertex 27.7678 207.768 -26.2
      vertex 40 215 -26.2
    endloop
  endfacet
  facet normal 0 0 -1
    outer loop
      vertex 22 215 -26.2
      vertex 27.7678 207.768 -26.2
      vertex 26 208.5 -26.2
    endloop
  endfacet
  facet normal 0 0 -1
    outer loop
      vertex 22 215 -26.2
      vertex 26 208.5 -26.2
      vertex 24.2322 207.768 -26.2
    endloop
  endfacet
  facet normal -0 0 -1
    outer loop
      vertex 25.0818 196.012 -26.2
      vertex 22 195 -26.2
      vertex 24.2322 204.232 -26.2
    endloop
  endfacet
  facet normal -0 0 -1
    outer loop
      vertex 24.2322 204.232 -26.2
      vertex 22 195 -26.2
      vertex 23.5 206 -26.2
    endloop
  endfacet
  facet normal 0 0 -1
    outer loop
      vertex 27.7678 207.768 -26.2
      vertex 22 215 -26.2
      vertex 40 215 -26.2
    endloop
  endfacet
  facet normal 0 0 -1
    outer loop
      vertex 23.5 206 -26.2
      vertex 22 215 -26.2
      vertex 24.2322 207.768 -26.2
    endloop
  endfacet
  facet normal 0 0 -1
    outer loop
      vertex 22 215 -26.2
      vertex 23.5 206 -26.2
      vertex 22 195 -26.2
    endloop
  endfacet
  facet normal -0 0 -1
    outer loop
      vertex 30.5045 157.02 -26.2
      vertex 27.7678 155.768 -26.2
      vertex 28.5898 157.505 -26.2
    endloop
  endfacet
  facet normal 0 0 -1
    outer loop
      vertex 26 156.5 -26.2
      vertex 28.5898 157.505 -26.2
      vertex 27.7678 155.768 -26.2
    endloop
  endfacet
  facet normal -0 0 -1
    outer loop
      vertex 28.5898 157.505 -26.2
      vertex 26 156.5 -26.2
      vertex 26.9363 158.586 -26.2
    endloop
  endfacet
  facet normal 0 0 -1
    outer loop
      vertex 26 156.5 -26.2
      vertex 25.7232 160.144 -26.2
      vertex 26.9363 158.586 -26.2
    endloop
  endfacet
  facet normal 0 0 -1
    outer loop
      vertex 24.2322 155.768 -26.2
      vertex 25.7232 160.144 -26.2
      vertex 26 156.5 -26.2
    endloop
  endfacet
  facet normal 0 0 -1
    outer loop
      vertex 22 165 -26.2
      vertex 25.0818 162.012 -26.2
      vertex 24.2322 155.768 -26.2
    endloop
  endfacet
  facet normal 0 0 -1
    outer loop
      vertex 25.0818 162.012 -26.2
      vertex 22 165 -26.2
      vertex 25.0818 163.988 -26.2
    endloop
  endfacet
  facet normal 0 0 -1
    outer loop
      vertex 26.9363 192.586 -26.2
      vertex 22 195 -26.2
      vertex 25.7232 194.144 -26.2
    endloop
  endfacet
  facet normal -0 0 -1
    outer loop
      vertex 25.7232 160.144 -26.2
      vertex 24.2322 155.768 -26.2
      vertex 25.0818 162.012 -26.2
    endloop
  endfacet
  facet normal 0 0 -1
    outer loop
      vertex 60 165 -26.2
      vertex 51.95 180 -26.2
      vertex 60 195 -26.2
    endloop
  endfacet
  facet normal 0 0 -1
    outer loop
      vertex 60 165 -26.2
      vertex 51.3866 178.266 -26.2
      vertex 51.95 180 -26.2
    endloop
  endfacet
  facet normal 0 0 -1
    outer loop
      vertex 60 165 -26.2
      vertex 49.9116 177.194 -26.2
      vertex 51.3866 178.266 -26.2
    endloop
  endfacet
  facet normal 0 0 -1
    outer loop
      vertex 40 165 -26.2
      vertex 49.9116 177.194 -26.2
      vertex 60 165 -26.2
    endloop
  endfacet
  facet normal -0 0 -1
    outer loop
      vertex 49.9116 177.194 -26.2
      vertex 40 165 -26.2
      vertex 48.0884 177.194 -26.2
    endloop
  endfacet
  facet normal 0 0 -1
    outer loop
      vertex 35.7348 166.685 -26.2
      vertex 40 165 -26.2
      vertex 36.6749 164.948 -26.2
    endloop
  endfacet
  facet normal -0 0 -1
    outer loop
      vertex 48.0884 177.194 -26.2
      vertex 40 165 -26.2
      vertex 46.6134 178.266 -26.2
    endloop
  endfacet
  facet normal 0 0 -1
    outer loop
      vertex 51.3866 181.734 -26.2
      vertex 60 195 -26.2
      vertex 51.95 180 -26.2
    endloop
  endfacet
  facet normal 0 0 -1
    outer loop
      vertex 49.9116 182.806 -26.2
      vertex 60 195 -26.2
      vertex 51.3866 181.734 -26.2
    endloop
  endfacet
  facet normal 0 0 -1
    outer loop
      vertex 40 195 -26.2
      vertex 49.9116 182.806 -26.2
      vertex 48.0884 182.806 -26.2
    endloop
  endfacet
  facet normal 0 0 -1
    outer loop
      vertex 40 195 -26.2
      vertex 48.0884 182.806 -26.2
      vertex 46.6134 181.734 -26.2
    endloop
  endfacet
  facet normal 0 0 -1
    outer loop
      vertex 40 165 -26.2
      vertex 35.7348 166.685 -26.2
      vertex 46.6134 178.266 -26.2
    endloop
  endfacet
  facet normal 0 0 -1
    outer loop
      vertex 49.9116 182.806 -26.2
      vertex 40 195 -26.2
      vertex 60 195 -26.2
    endloop
  endfacet
  facet normal 0 0 -1
    outer loop
      vertex 46.05 180 -26.2
      vertex 40 195 -26.2
      vertex 46.6134 181.734 -26.2
    endloop
  endfacet
  facet normal -1 0 0
    outer loop
      vertex 22 165 -26.2
      vertex 22 155.299 -20.2
      vertex 22 165 -22.9
    endloop
  endfacet
  facet normal -1 0 0
    outer loop
      vertex 22 145 -26.2
      vertex 22 155.299 -20.2
      vertex 22 165 -26.2
    endloop
  endfacet
  facet normal -1 -0 0
    outer loop
      vertex 22 155.299 -20.2
      vertex 22 145 -26.2
      vertex 22 152.701 -20.2
    endloop
  endfacet
  facet normal -1 0 0
    outer loop
      vertex 22 145 -15.4
      vertex 22 152.701 -20.2
      vertex 22 145 -26.2
    endloop
  endfacet
  facet normal -1 0 0
    outer loop
      vertex 22 152.701 -20.2
      vertex 22 145 -15.4
      vertex 22 152.701 -15.4
    endloop
  endfacet
  facet normal -1 0 0
    outer loop
      vertex 22 215 -26.2
      vertex 22 207.299 -20.2
      vertex 22 215 -15.4
    endloop
  endfacet
  facet normal -1 0 0
    outer loop
      vertex 22 215 -26.2
      vertex 22 204.701 -20.2
      vertex 22 207.299 -20.2
    endloop
  endfacet
  facet normal -1 0 0
    outer loop
      vertex 22 195 -26.2
      vertex 22 204.701 -20.2
      vertex 22 215 -26.2
    endloop
  endfacet
  facet normal -1 0 0
    outer loop
      vertex 22 195 -22.9
      vertex 22 204.701 -20.2
      vertex 22 195 -26.2
    endloop
  endfacet
  facet normal -1 -0 0
    outer loop
      vertex 22 204.701 -20.2
      vertex 22 195 -22.9
      vertex 22 204.701 -15.4
    endloop
  endfacet
  facet normal -1 0 0
    outer loop
      vertex 22 165 -22.9
      vertex 22 204.701 -15.4
      vertex 22 195 -22.9
    endloop
  endfacet
  facet normal -1 0 0
    outer loop
      vertex 22 155.299 -15.4
      vertex 22 165 -22.9
      vertex 22 155.299 -20.2
    endloop
  endfacet
  facet normal -1 0 0
    outer loop
      vertex 22 165 -22.9
      vertex 22 155.299 -15.4
      vertex 22 204.701 -15.4
    endloop
  endfacet
  facet normal -1 -0 0
    outer loop
      vertex 22 215 -15.4
      vertex 22 207.299 -20.2
      vertex 22 207.299 -15.4
    endloop
  endfacet
  facet normal 0 1 -0
    outer loop
      vertex 40 215 -26.2
      vertex 22 215 -15.4
      vertex 40 215 -15.4
    endloop
  endfacet
  facet normal 0 1 0
    outer loop
      vertex 22 215 -15.4
      vertex 40 215 -26.2
      vertex 22 215 -26.2
    endloop
  endfacet
  facet normal 0 -1 0
    outer loop
      vertex 22 145 -26.2
      vertex 40 145 -15.4
      vertex 22 145 -15.4
    endloop
  endfacet
  facet normal 0 -1 -0
    outer loop
      vertex 40 145 -15.4
      vertex 22 145 -26.2
      vertex 40 145 -26.2
    endloop
  endfacet
  facet normal 0 0 1
    outer loop
      vertex 22 195 -22.9
      vertex 4.5 180 -22.9
      vertex 22 165 -22.9
    endloop
  endfacet
  facet normal 0 0 1
    outer loop
      vertex 22 195 -22.9
      vertex 3.76777 181.768 -22.9
      vertex 4.5 180 -22.9
    endloop
  endfacet
  facet normal 0 0 1
    outer loop
      vertex 22 195 -22.9
      vertex 2 182.5 -22.9
      vertex 3.76777 181.768 -22.9
    endloop
  endfacet
  facet normal -0 0 1
    outer loop
      vertex -8 195 -22.9
      vertex 2 182.5 -22.9
      vertex 22 195 -22.9
    endloop
  endfacet
  facet normal 0 0 1
    outer loop
      vertex 0.232233 181.768 -22.9
      vertex -8 195 -22.9
      vertex -0.5 180 -22.9
    endloop
  endfacet
  facet normal 0 0 1
    outer loop
      vertex 2 182.5 -22.9
      vertex -8 195 -22.9
      vertex 0.232233 181.768 -22.9
    endloop
  endfacet
  facet normal -0 0 1
    outer loop
      vertex 3.76777 178.232 -22.9
      vertex 22 165 -22.9
      vertex 4.5 180 -22.9
    endloop
  endfacet
  facet normal -0 0 1
    outer loop
      vertex 2 177.5 -22.9
      vertex 22 165 -22.9
      vertex 3.76777 178.232 -22.9
    endloop
  endfacet
  facet normal 0 0 1
    outer loop
      vertex -8 165 -22.9
      vertex 2 177.5 -22.9
      vertex 0.232233 178.232 -22.9
    endloop
  endfacet
  facet normal 0 0 1
    outer loop
      vertex -8 165 -22.9
      vertex -0.5 180 -22.9
      vertex -8 195 -22.9
    endloop
  endfacet
  facet normal 0 0 1
    outer loop
      vertex 2 177.5 -22.9
      vertex -8 165 -22.9
      vertex 22 165 -22.9
    endloop
  endfacet
  facet normal 0 0 1
    outer loop
      vertex -0.5 180 -22.9
      vertex -8 165 -22.9
      vertex 0.232233 178.232 -22.9
    endloop
  endfacet
  facet normal -1 0 0
    outer loop
      vertex -8 165 -26.2
      vertex -8 195 -22.9
      vertex -8 195 -26.2
    endloop
  endfacet
  facet normal -1 -0 0
    outer loop
      vertex -8 195 -22.9
      vertex -8 165 -26.2
      vertex -8 165 -22.9
    endloop
  endfacet
  facet normal 0 1 -0
    outer loop
      vertex 22 195 -26.2
      vertex -8 195 -22.9
      vertex 22 195 -22.9
    endloop
  endfacet
  facet normal 0 1 0
    outer loop
      vertex -8 195 -22.9
      vertex 22 195 -26.2
      vertex -8 195 -26.2
    endloop
  endfacet
  facet normal 0 -1 0
    outer loop
      vertex -8 165 -26.2
      vertex 22 165 -22.9
      vertex -8 165 -22.9
    endloop
  endfacet
  facet normal 0 -1 -0
    outer loop
      vertex 22 165 -22.9
      vertex -8 165 -26.2
      vertex 22 165 -26.2
    endloop
  endfacet
  facet normal 1 -0 0
    outer loop
      vertex 60 165 -21.8
      vertex 60 195 -26.2
      vertex 60 195 -21.8
    endloop
  endfacet
  facet normal 1 0 0
    outer loop
      vertex 60 195 -26.2
      vertex 60 165 -21.8
      vertex 60 165 -26.2
    endloop
  endfacet
  facet normal 0 0 1
    outer loop
      vertex 60 195 -21.8
      vertex 51.95 180 -21.8
      vertex 60 165 -21.8
    endloop
  endfacet
  facet normal 0 0 1
    outer loop
      vertex 60 195 -21.8
      vertex 51.3866 181.734 -21.8
      vertex 51.95 180 -21.8
    endloop
  endfacet
  facet normal 0 0 1
    outer loop
      vertex 60 195 -21.8
      vertex 49.9116 182.806 -21.8
      vertex 51.3866 181.734 -21.8
    endloop
  endfacet
  facet normal -0 0 1
    outer loop
      vertex 40 195 -21.8
      vertex 49.9116 182.806 -21.8
      vertex 60 195 -21.8
    endloop
  endfacet
  facet normal 0 0 1
    outer loop
      vertex 49.9116 182.806 -21.8
      vertex 40 195 -21.8
      vertex 48.0884 182.806 -21.8
    endloop
  endfacet
  facet normal 0 0 1
    outer loop
      vertex 46.6134 181.734 -21.8
      vertex 40 195 -21.8
      vertex 46.05 180 -21.8
    endloop
  endfacet
  facet normal 0 0 1
    outer loop
      vertex 48.0884 182.806 -21.8
      vertex 40 195 -21.8
      vertex 46.6134 181.734 -21.8
    endloop
  endfacet
  facet normal -0 0 1
    outer loop
      vertex 51.3866 178.266 -21.8
      vertex 60 165 -21.8
      vertex 51.95 180 -21.8
    endloop
  endfacet
  facet normal -0 0 1
    outer loop
      vertex 49.9116 177.194 -21.8
      vertex 60 165 -21.8
      vertex 51.3866 178.266 -21.8
    endloop
  endfacet
  facet normal 0 0 1
    outer loop
      vertex 40 165 -21.8
      vertex 49.9116 177.194 -21.8
      vertex 48.0884 177.194 -21.8
    endloop
  endfacet
  facet normal 0 0 1
    outer loop
      vertex 40 165 -21.8
      vertex 48.0884 177.194 -21.8
      vertex 46.6134 178.266 -21.8
    endloop
  endfacet
  facet normal 0 0 1
    outer loop
      vertex 40 165 -21.8
      vertex 46.05 180 -21.8
      vertex 40 195 -21.8
    endloop
  endfacet
  facet normal 0 0 1
    outer loop
      vertex 49.9116 177.194 -21.8
      vertex 40 165 -21.8
      vertex 60 165 -21.8
    endloop
  endfacet
  facet normal 0 0 1
    outer loop
      vertex 46.05 180 -21.8
      vertex 40 165 -21.8
      vertex 46.6134 178.266 -21.8
    endloop
  endfacet
  facet normal 0 1 -0
    outer loop
      vertex 60 195 -26.2
      vertex 40 195 -21.8
      vertex 60 195 -21.8
    endloop
  endfacet
  facet normal 0 1 0
    outer loop
      vertex 40 195 -21.8
      vertex 60 195 -26.2
      vertex 40 195 -26.2
    endloop
  endfacet
  facet normal 0 -1 0
    outer loop
      vertex 40 165 -26.2
      vertex 60 165 -21.8
      vertex 40 165 -21.8
    endloop
  endfacet
  facet normal 0 -1 -0
    outer loop
      vertex 60 165 -21.8
      vertex 40 165 -26.2
      vertex 60 165 -26.2
    endloop
  endfacet
  facet normal 0.587911 0.808926 -0
    outer loop
      vertex 30.0884 160.194 -20.2
      vertex 28.6134 161.266 -15.4
      vertex 30.0884 160.194 -15.4
    endloop
  endfacet
  facet normal 0.587911 0.808926 0
    outer loop
      vertex 28.6134 161.266 -15.4
      vertex 30.0884 160.194 -20.2
      vertex 28.6134 161.266 -20.2
    endloop
  endfacet
  facet normal -0.587911 -0.808926 0
    outer loop
      vertex 31.9116 165.806 -20.2
      vertex 33.3866 164.734 -15.4
      vertex 31.9116 165.806 -15.4
    endloop
  endfacet
  facet normal -0.587911 -0.808926 -0
    outer loop
      vertex 33.3866 164.734 -15.4
      vertex 31.9116 165.806 -20.2
      vertex 33.3866 164.734 -20.2
    endloop
  endfacet
  facet normal -0.951058 -0.309012 0
    outer loop
      vertex 33.95 163 -20.2
      vertex 33.3866 164.734 -15.4
      vertex 33.3866 164.734 -20.2
    endloop
  endfacet
  facet normal -0.951058 -0.309012 0
    outer loop
      vertex 33.3866 164.734 -15.4
      vertex 33.95 163 -20.2
      vertex 33.95 163 -15.4
    endloop
  endfacet
  facet normal 0 -1 0
    outer loop
      vertex 30.0884 165.806 -20.2
      vertex 31.9116 165.806 -15.4
      vertex 30.0884 165.806 -15.4
    endloop
  endfacet
  facet normal 0 -1 -0
    outer loop
      vertex 31.9116 165.806 -15.4
      vertex 30.0884 165.806 -20.2
      vertex 31.9116 165.806 -20.2
    endloop
  endfacet
  facet normal -0.587911 0.808926 0
    outer loop
      vertex 33.3866 161.266 -20.2
      vertex 31.9116 160.194 -15.4
      vertex 33.3866 161.266 -15.4
    endloop
  endfacet
  facet normal -0.587911 0.808926 0
    outer loop
      vertex 31.9116 160.194 -15.4
      vertex 33.3866 161.266 -20.2
      vertex 31.9116 160.194 -20.2
    endloop
  endfacet
  facet normal 0.951058 0.309012 0
    outer loop
      vertex 28.6134 161.266 -15.4
      vertex 28.05 163 -20.2
      vertex 28.05 163 -15.4
    endloop
  endfacet
  facet normal 0.951058 0.309012 0
    outer loop
      vertex 28.05 163 -20.2
      vertex 28.6134 161.266 -15.4
      vertex 28.6134 161.266 -20.2
    endloop
  endfacet
  facet normal 0 1 -0
    outer loop
      vertex 31.9116 160.194 -20.2
      vertex 30.0884 160.194 -15.4
      vertex 31.9116 160.194 -15.4
    endloop
  endfacet
  facet normal 0 1 0
    outer loop
      vertex 30.0884 160.194 -15.4
      vertex 31.9116 160.194 -20.2
      vertex 30.0884 160.194 -20.2
    endloop
  endfacet
  facet normal -0.951058 0.309012 0
    outer loop
      vertex 33.3866 161.266 -20.2
      vertex 33.95 163 -15.4
      vertex 33.95 163 -20.2
    endloop
  endfacet
  facet normal -0.951058 0.309012 0
    outer loop
      vertex 33.95 163 -15.4
      vertex 33.3866 161.266 -20.2
      vertex 33.3866 161.266 -15.4
    endloop
  endfacet
  facet normal 0.587911 -0.808926 0
    outer loop
      vertex 28.6134 164.734 -20.2
      vertex 30.0884 165.806 -15.4
      vertex 28.6134 164.734 -15.4
    endloop
  endfacet
  facet normal 0.587911 -0.808926 0
    outer loop
      vertex 30.0884 165.806 -15.4
      vertex 28.6134 164.734 -20.2
      vertex 30.0884 165.806 -20.2
    endloop
  endfacet
  facet normal 0 0 -1
    outer loop
      vertex 33.95 163 -20.2
      vertex 37 163 -20.2
      vertex 36.6749 161.052 -20.2
    endloop
  endfacet
  facet normal 0 0 -1
    outer loop
      vertex 33.3866 161.266 -20.2
      vertex 36.6749 161.052 -20.2
      vertex 35.7348 159.315 -20.2
    endloop
  endfacet
  facet normal 0 0 -1
    outer loop
      vertex 37 163 -20.2
      vertex 33.95 163 -20.2
      vertex 36.6749 164.948 -20.2
    endloop
  endfacet
  facet normal 0 0 -1
    outer loop
      vertex 33.3866 161.266 -20.2
      vertex 35.7348 159.315 -20.2
      vertex 34.2817 157.977 -20.2
    endloop
  endfacet
  facet normal 0 0 -1
    outer loop
      vertex 33.3866 164.734 -20.2
      vertex 36.6749 164.948 -20.2
      vertex 33.95 163 -20.2
    endloop
  endfacet
  facet normal -0 0 -1
    outer loop
      vertex 36.6749 164.948 -20.2
      vertex 33.3866 164.734 -20.2
      vertex 35.7348 166.685 -20.2
    endloop
  endfacet
  facet normal 0 0 -1
    outer loop
      vertex 36.6749 161.052 -20.2
      vertex 33.3866 161.266 -20.2
      vertex 33.95 163 -20.2
    endloop
  endfacet
  facet normal 0 0 -1
    outer loop
      vertex 31.9116 160.194 -20.2
      vertex 34.2817 157.977 -20.2
      vertex 32.4729 157.184 -20.2
    endloop
  endfacet
  facet normal 0 0 -1
    outer loop
      vertex 34.2817 157.977 -20.2
      vertex 31.9116 160.194 -20.2
      vertex 33.3866 161.266 -20.2
    endloop
  endfacet
  facet normal 0 0 -1
    outer loop
      vertex 30.5045 157.02 -20.2
      vertex 31.9116 160.194 -20.2
      vertex 32.4729 157.184 -20.2
    endloop
  endfacet
  facet normal 0 0 -1
    outer loop
      vertex 30.5045 157.02 -20.2
      vertex 30.0884 160.194 -20.2
      vertex 31.9116 160.194 -20.2
    endloop
  endfacet
  facet normal 0 0 -1
    outer loop
      vertex 28.7495 157.465 -20.2
      vertex 30.0884 160.194 -20.2
      vertex 30.5045 157.02 -20.2
    endloop
  endfacet
  facet normal 0 0 -1
    outer loop
      vertex 28.375 158.114 -20.2
      vertex 30.0884 160.194 -20.2
      vertex 28.7495 157.465 -20.2
    endloop
  endfacet
  facet normal -0 0 -1
    outer loop
      vertex 30.0884 160.194 -20.2
      vertex 28.375 158.114 -20.2
      vertex 28.6134 161.266 -20.2
    endloop
  endfacet
  facet normal 0 0 -1
    outer loop
      vertex 26.9363 158.586 -20.2
      vertex 28.6134 161.266 -20.2
      vertex 28.375 158.114 -20.2
    endloop
  endfacet
  facet normal 0 0 -1
    outer loop
      vertex 26.9363 158.586 -20.2
      vertex 28.375 158.114 -20.2
      vertex 27.6588 158.114 -20.2
    endloop
  endfacet
  facet normal -0 0 -1
    outer loop
      vertex 35.7348 166.685 -20.2
      vertex 33.3866 164.734 -20.2
      vertex 34.2817 168.023 -20.2
    endloop
  endfacet
  facet normal 0 0 -1
    outer loop
      vertex 31.9116 165.806 -20.2
      vertex 34.2817 168.023 -20.2
      vertex 33.3866 164.734 -20.2
    endloop
  endfacet
  facet normal -0 0 -1
    outer loop
      vertex 34.2817 168.023 -20.2
      vertex 31.9116 165.806 -20.2
      vertex 32.4729 168.816 -20.2
    endloop
  endfacet
  facet normal 0 0 -1
    outer loop
      vertex 31.9116 165.806 -20.2
      vertex 30.5045 168.98 -20.2
      vertex 32.4729 168.816 -20.2
    endloop
  endfacet
  facet normal 0 0 -1
    outer loop
      vertex 30.0884 165.806 -20.2
      vertex 30.5045 168.98 -20.2
      vertex 31.9116 165.806 -20.2
    endloop
  endfacet
  facet normal 0 0 -1
    outer loop
      vertex 26.9363 167.414 -20.2
      vertex 30.0884 165.806 -20.2
      vertex 28.6134 164.734 -20.2
    endloop
  endfacet
  facet normal 0 0 -1
    outer loop
      vertex 30.0884 165.806 -20.2
      vertex 28.5898 168.495 -20.2
      vertex 30.5045 168.98 -20.2
    endloop
  endfacet
  facet normal 0 0 -1
    outer loop
      vertex 25.0818 163.988 -20.2
      vertex 28.6134 164.734 -20.2
      vertex 28.05 163 -20.2
    endloop
  endfacet
  facet normal 0 0 -1
    outer loop
      vertex 25.7232 160.144 -20.2
      vertex 28.6134 161.266 -20.2
      vertex 26.9363 158.586 -20.2
    endloop
  endfacet
  facet normal 0 0 -1
    outer loop
      vertex 25.0818 162.012 -20.2
      vertex 28.6134 161.266 -20.2
      vertex 25.7232 160.144 -20.2
    endloop
  endfacet
  facet normal 0 0 -1
    outer loop
      vertex 30.0884 165.806 -20.2
      vertex 26.9363 167.414 -20.2
      vertex 28.5898 168.495 -20.2
    endloop
  endfacet
  facet normal 0 0 -1
    outer loop
      vertex 28.6134 161.266 -20.2
      vertex 25.0818 162.012 -20.2
      vertex 28.05 163 -20.2
    endloop
  endfacet
  facet normal 0 0 -1
    outer loop
      vertex 28.6134 164.734 -20.2
      vertex 25.7232 165.856 -20.2
      vertex 26.9363 167.414 -20.2
    endloop
  endfacet
  facet normal 0 0 -1
    outer loop
      vertex 25.0818 163.988 -20.2
      vertex 28.05 163 -20.2
      vertex 25.0818 162.012 -20.2
    endloop
  endfacet
  facet normal -0 0 -1
    outer loop
      vertex 28.6134 164.734 -20.2
      vertex 25.0818 163.988 -20.2
      vertex 25.7232 165.856 -20.2
    endloop
  endfacet
  facet normal 0 0 1
    outer loop
      vertex 30.75 154 -20.2
      vertex 27.7678 155.768 -20.2
      vertex 28.5 154 -20.2
    endloop
  endfacet
  facet normal 0 0 1
    outer loop
      vertex 27.6588 158.114 -20.2
      vertex 27.7678 155.768 -20.2
      vertex 28.5898 157.505 -20.2
    endloop
  endfacet
  facet normal 0 0 1
    outer loop
      vertex 27.6588 158.114 -20.2
      vertex 26 156.5 -20.2
      vertex 27.7678 155.768 -20.2
    endloop
  endfacet
  facet normal -0 0 1
    outer loop
      vertex 23.625 158.114 -20.2
      vertex 26 156.5 -20.2
      vertex 27.6588 158.114 -20.2
    endloop
  endfacet
  facet normal 0 0 1
    outer loop
      vertex 26 156.5 -20.2
      vertex 23.625 158.114 -20.2
      vertex 24.2322 155.768 -20.2
    endloop
  endfacet
  facet normal 0 0 1
    outer loop
      vertex 22 155.299 -20.2
      vertex 24.2322 155.768 -20.2
      vertex 23.625 158.114 -20.2
    endloop
  endfacet
  facet normal 0 0 1
    outer loop
      vertex 24.2322 155.768 -20.2
      vertex 22 155.299 -20.2
      vertex 23.5 154 -20.2
    endloop
  endfacet
  facet normal 0 0 1
    outer loop
      vertex 27.7678 155.768 -20.2
      vertex 28.7495 157.465 -20.2
      vertex 28.5898 157.505 -20.2
    endloop
  endfacet
  facet normal -0 0 1
    outer loop
      vertex 27.7678 155.768 -20.2
      vertex 30.75 154 -20.2
      vertex 28.7495 157.465 -20.2
    endloop
  endfacet
  facet normal 0 0 1
    outer loop
      vertex 27.7678 152.232 -20.2
      vertex 30.75 154 -20.2
      vertex 28.5 154 -20.2
    endloop
  endfacet
  facet normal 0 0 1
    outer loop
      vertex 30.75 154 -20.2
      vertex 27.7678 152.232 -20.2
      vertex 28.375 149.886 -20.2
    endloop
  endfacet
  facet normal -0 0 1
    outer loop
      vertex 26 151.5 -20.2
      vertex 28.375 149.886 -20.2
      vertex 27.7678 152.232 -20.2
    endloop
  endfacet
  facet normal 0 0 1
    outer loop
      vertex 23.625 149.886 -20.2
      vertex 26 151.5 -20.2
      vertex 24.2322 152.232 -20.2
    endloop
  endfacet
  facet normal 0 0 1
    outer loop
      vertex 26 151.5 -20.2
      vertex 23.625 149.886 -20.2
      vertex 28.375 149.886 -20.2
    endloop
  endfacet
  facet normal -0 0 1
    outer loop
      vertex 22 152.701 -20.2
      vertex 24.2322 152.232 -20.2
      vertex 23.5 154 -20.2
    endloop
  endfacet
  facet normal 0 0 1
    outer loop
      vertex 22 152.701 -20.2
      vertex 23.5 154 -20.2
      vertex 22 155.299 -20.2
    endloop
  endfacet
  facet normal 0 0 1
    outer loop
      vertex 24.2322 152.232 -20.2
      vertex 22 152.701 -20.2
      vertex 23.625 149.886 -20.2
    endloop
  endfacet
  facet normal 0.951058 -0.309012 0
    outer loop
      vertex 28.05 163 -15.4
      vertex 28.6134 164.734 -20.2
      vertex 28.6134 164.734 -15.4
    endloop
  endfacet
  facet normal 0.951058 -0.309012 0
    outer loop
      vertex 28.6134 164.734 -20.2
      vertex 28.05 163 -15.4
      vertex 28.05 163 -20.2
    endloop
  endfacet
  facet normal -0.879456 -0.47598 0
    outer loop
      vertex 36.6749 164.948 -26.2
      vertex 35.7348 166.685 -20.2
      vertex 35.7348 166.685 -26.2
    endloop
  endfacet
  facet normal -0.879456 -0.47598 0
    outer loop
      vertex 35.7348 166.685 -20.2
      vertex 36.6749 164.948 -26.2
      vertex 36.6749 164.948 -20.2
    endloop
  endfacet
  facet normal -0.986358 -0.164612 0
    outer loop
      vertex 37 163 -26.2
      vertex 36.6749 164.948 -20.2
      vertex 36.6749 164.948 -26.2
    endloop
  endfacet
  facet normal -0.986358 -0.164612 0
    outer loop
      vertex 36.6749 164.948 -20.2
      vertex 37 163 -26.2
      vertex 37 163 -20.2
    endloop
  endfacet
  facet normal -0.677371 -0.735641 0
    outer loop
      vertex 34.2817 168.023 -26.2
      vertex 35.7348 166.685 -20.2
      vertex 34.2817 168.023 -20.2
    endloop
  endfacet
  facet normal -0.677371 -0.735641 -0
    outer loop
      vertex 35.7348 166.685 -20.2
      vertex 34.2817 168.023 -26.2
      vertex 35.7348 166.685 -26.2
    endloop
  endfacet
  facet normal 0.945799 -0.324751 0
    outer loop
      vertex 25.0818 163.988 -20.2
      vertex 25.7232 165.856 -26.2
      vertex 25.7232 165.856 -20.2
    endloop
  endfacet
  facet normal 0.945799 -0.324751 0
    outer loop
      vertex 25.7232 165.856 -26.2
      vertex 25.0818 163.988 -20.2
      vertex 25.0818 163.988 -26.2
    endloop
  endfacet
  facet normal -0.40152 0.91585 0
    outer loop
      vertex 34.2817 157.977 -26.2
      vertex 32.4729 157.184 -20.2
      vertex 34.2817 157.977 -20.2
    endloop
  endfacet
  facet normal -0.40152 0.91585 0
    outer loop
      vertex 32.4729 157.184 -20.2
      vertex 34.2817 157.977 -26.2
      vertex 32.4729 157.184 -26.2
    endloop
  endfacet
  facet normal 0.245783 0.969325 -0
    outer loop
      vertex 30.5045 157.02 -26.2
      vertex 28.7495 157.465 -20.2
      vertex 30.5045 157.02 -20.2
    endloop
  endfacet
  facet normal 0.245548 0.969384 -7.3116e-05
    outer loop
      vertex 28.5898 157.505 -26.2
      vertex 28.7495 157.465 -20.2
      vertex 30.5045 157.02 -26.2
    endloop
  endfacet
  facet normal 0.242964 0.970035 0
    outer loop
      vertex 28.7495 157.465 -20.2
      vertex 28.5898 157.505 -26.2
      vertex 28.5898 157.505 -20.2
    endloop
  endfacet
  facet normal -0.40152 -0.91585 0
    outer loop
      vertex 32.4729 168.816 -26.2
      vertex 34.2817 168.023 -20.2
      vertex 32.4729 168.816 -20.2
    endloop
  endfacet
  facet normal -0.40152 -0.91585 -0
    outer loop
      vertex 34.2817 168.023 -20.2
      vertex 32.4729 168.816 -26.2
      vertex 34.2817 168.023 -26.2
    endloop
  endfacet
  facet normal -0.0830287 -0.996547 0
    outer loop
      vertex 30.5045 168.98 -26.2
      vertex 32.4729 168.816 -20.2
      vertex 30.5045 168.98 -20.2
    endloop
  endfacet
  facet normal -0.0830287 -0.996547 -0
    outer loop
      vertex 32.4729 168.816 -20.2
      vertex 30.5045 168.98 -26.2
      vertex 32.4729 168.816 -26.2
    endloop
  endfacet
  facet normal 0.547202 -0.837001 0
    outer loop
      vertex 26.9363 167.414 -26.2
      vertex 28.5898 168.495 -20.2
      vertex 26.9363 167.414 -20.2
    endloop
  endfacet
  facet normal 0.547202 -0.837001 0
    outer loop
      vertex 28.5898 168.495 -20.2
      vertex 26.9363 167.414 -26.2
      vertex 28.5898 168.495 -26.2
    endloop
  endfacet
  facet normal 0.245548 -0.969384 0
    outer loop
      vertex 28.5898 168.495 -26.2
      vertex 30.5045 168.98 -20.2
      vertex 28.5898 168.495 -20.2
    endloop
  endfacet
  facet normal 0.245548 -0.969384 0
    outer loop
      vertex 30.5045 168.98 -20.2
      vertex 28.5898 168.495 -26.2
      vertex 30.5045 168.98 -26.2
    endloop
  endfacet
  facet normal 0.547419 0.836859 -0
    outer loop
      vertex 28.5898 157.505 -26.2
      vertex 27.6588 158.114 -20.2
      vertex 28.5898 157.505 -20.2
    endloop
  endfacet
  facet normal 0.547202 0.837001 -4.81311e-05
    outer loop
      vertex 26.9363 158.586 -26.2
      vertex 27.6588 158.114 -20.2
      vertex 28.5898 157.505 -26.2
    endloop
  endfacet
  facet normal 0.546922 0.837184 0
    outer loop
      vertex 27.6588 158.114 -20.2
      vertex 26.9363 158.586 -26.2
      vertex 26.9363 158.586 -20.2
    endloop
  endfacet
  facet normal 0.789028 0.614358 0
    outer loop
      vertex 26.9363 158.586 -20.2
      vertex 25.7232 160.144 -26.2
      vertex 25.7232 160.144 -20.2
    endloop
  endfacet
  facet normal 0.789028 0.614358 0
    outer loop
      vertex 25.7232 160.144 -26.2
      vertex 26.9363 158.586 -20.2
      vertex 26.9363 158.586 -26.2
    endloop
  endfacet
  facet normal -0.986358 0.164612 0
    outer loop
      vertex 36.6749 161.052 -26.2
      vertex 37 163 -20.2
      vertex 37 163 -26.2
    endloop
  endfacet
  facet normal -0.986358 0.164612 0
    outer loop
      vertex 37 163 -20.2
      vertex 36.6749 161.052 -26.2
      vertex 36.6749 161.052 -20.2
    endloop
  endfacet
  facet normal 0.945799 0.324751 0
    outer loop
      vertex 25.7232 160.144 -20.2
      vertex 25.0818 162.012 -26.2
      vertex 25.0818 162.012 -20.2
    endloop
  endfacet
  facet normal 0.945799 0.324751 0
    outer loop
      vertex 25.0818 162.012 -26.2
      vertex 25.7232 160.144 -20.2
      vertex 25.7232 160.144 -26.2
    endloop
  endfacet
  facet normal -0.0830287 0.996547 0
    outer loop
      vertex 32.4729 157.184 -26.2
      vertex 30.5045 157.02 -20.2
      vertex 32.4729 157.184 -20.2
    endloop
  endfacet
  facet normal -0.0830287 0.996547 0
    outer loop
      vertex 30.5045 157.02 -20.2
      vertex 32.4729 157.184 -26.2
      vertex 30.5045 157.02 -26.2
    endloop
  endfacet
  facet normal 1 -0 0
    outer loop
      vertex 25.0818 162.012 -20.2
      vertex 25.0818 163.988 -26.2
      vertex 25.0818 163.988 -20.2
    endloop
  endfacet
  facet normal 1 0 0
    outer loop
      vertex 25.0818 163.988 -26.2
      vertex 25.0818 162.012 -20.2
      vertex 25.0818 162.012 -26.2
    endloop
  endfacet
  facet normal -0.879456 0.47598 0
    outer loop
      vertex 35.7348 159.315 -26.2
      vertex 36.6749 161.052 -20.2
      vertex 36.6749 161.052 -26.2
    endloop
  endfacet
  facet normal -0.879456 0.47598 0
    outer loop
      vertex 36.6749 161.052 -20.2
      vertex 35.7348 159.315 -26.2
      vertex 35.7348 159.315 -20.2
    endloop
  endfacet
  facet normal -0.677371 0.735641 0
    outer loop
      vertex 35.7348 159.315 -26.2
      vertex 34.2817 157.977 -20.2
      vertex 35.7348 159.315 -20.2
    endloop
  endfacet
  facet normal -0.677371 0.735641 0
    outer loop
      vertex 34.2817 157.977 -20.2
      vertex 35.7348 159.315 -26.2
      vertex 34.2817 157.977 -26.2
    endloop
  endfacet
  facet normal 0.789028 -0.614358 0
    outer loop
      vertex 25.7232 165.856 -20.2
      vertex 26.9363 167.414 -26.2
      vertex 26.9363 167.414 -20.2
    endloop
  endfacet
  facet normal 0.789028 -0.614358 0
    outer loop
      vertex 26.9363 167.414 -26.2
      vertex 25.7232 165.856 -20.2
      vertex 25.7232 165.856 -26.2
    endloop
  endfacet
  facet normal 0.587911 0.808926 -0
    outer loop
      vertex 30.0884 194.194 -20.2
      vertex 28.6134 195.266 -15.4
      vertex 30.0884 194.194 -15.4
    endloop
  endfacet
  facet normal 0.587911 0.808926 0
    outer loop
      vertex 28.6134 195.266 -15.4
      vertex 30.0884 194.194 -20.2
      vertex 28.6134 195.266 -20.2
    endloop
  endfacet
  facet normal -0.587911 -0.808926 0
    outer loop
      vertex 31.9116 199.806 -20.2
      vertex 33.3866 198.734 -15.4
      vertex 31.9116 199.806 -15.4
    endloop
  endfacet
  facet normal -0.587911 -0.808926 -0
    outer loop
      vertex 33.3866 198.734 -15.4
      vertex 31.9116 199.806 -20.2
      vertex 33.3866 198.734 -20.2
    endloop
  endfacet
  facet normal -0.951058 -0.309012 0
    outer loop
      vertex 33.95 197 -20.2
      vertex 33.3866 198.734 -15.4
      vertex 33.3866 198.734 -20.2
    endloop
  endfacet
  facet normal -0.951058 -0.309012 0
    outer loop
      vertex 33.3866 198.734 -15.4
      vertex 33.95 197 -20.2
      vertex 33.95 197 -15.4
    endloop
  endfacet
  facet normal 0 -1 0
    outer loop
      vertex 30.0884 199.806 -20.2
      vertex 31.9116 199.806 -15.4
      vertex 30.0884 199.806 -15.4
    endloop
  endfacet
  facet normal 0 -1 -0
    outer loop
      vertex 31.9116 199.806 -15.4
      vertex 30.0884 199.806 -20.2
      vertex 31.9116 199.806 -20.2
    endloop
  endfacet
  facet normal -0.587911 0.808926 0
    outer loop
      vertex 33.3866 195.266 -20.2
      vertex 31.9116 194.194 -15.4
      vertex 33.3866 195.266 -15.4
    endloop
  endfacet
  facet normal -0.587911 0.808926 0
    outer loop
      vertex 31.9116 194.194 -15.4
      vertex 33.3866 195.266 -20.2
      vertex 31.9116 194.194 -20.2
    endloop
  endfacet
  facet normal 0.951058 0.309012 0
    outer loop
      vertex 28.6134 195.266 -15.4
      vertex 28.05 197 -20.2
      vertex 28.05 197 -15.4
    endloop
  endfacet
  facet normal 0.951058 0.309012 0
    outer loop
      vertex 28.05 197 -20.2
      vertex 28.6134 195.266 -15.4
      vertex 28.6134 195.266 -20.2
    endloop
  endfacet
  facet normal 0 1 -0
    outer loop
      vertex 31.9116 194.194 -20.2
      vertex 30.0884 194.194 -15.4
      vertex 31.9116 194.194 -15.4
    endloop
  endfacet
  facet normal 0 1 0
    outer loop
      vertex 30.0884 194.194 -15.4
      vertex 31.9116 194.194 -20.2
      vertex 30.0884 194.194 -20.2
    endloop
  endfacet
  facet normal -0.951058 0.309012 0
    outer loop
      vertex 33.3866 195.266 -20.2
      vertex 33.95 197 -15.4
      vertex 33.95 197 -20.2
    endloop
  endfacet
  facet normal -0.951058 0.309012 0
    outer loop
      vertex 33.95 197 -15.4
      vertex 33.3866 195.266 -20.2
      vertex 33.3866 195.266 -15.4
    endloop
  endfacet
  facet normal 0 0 -1
    outer loop
      vertex 33.95 197 -20.2
      vertex 37 197 -20.2
      vertex 36.6749 195.052 -20.2
    endloop
  endfacet
  facet normal 0 0 -1
    outer loop
      vertex 33.3866 195.266 -20.2
      vertex 36.6749 195.052 -20.2
      vertex 35.7348 193.315 -20.2
    endloop
  endfacet
  facet normal 0 0 -1
    outer loop
      vertex 37 197 -20.2
      vertex 33.95 197 -20.2
      vertex 36.6749 198.948 -20.2
    endloop
  endfacet
  facet normal 0 0 -1
    outer loop
      vertex 33.3866 195.266 -20.2
      vertex 35.7348 193.315 -20.2
      vertex 34.2817 191.977 -20.2
    endloop
  endfacet
  facet normal 0 0 -1
    outer loop
      vertex 33.3866 198.734 -20.2
      vertex 36.6749 198.948 -20.2
      vertex 33.95 197 -20.2
    endloop
  endfacet
  facet normal -0 0 -1
    outer loop
      vertex 36.6749 198.948 -20.2
      vertex 33.3866 198.734 -20.2
      vertex 35.7348 200.685 -20.2
    endloop
  endfacet
  facet normal 0 0 -1
    outer loop
      vertex 36.6749 195.052 -20.2
      vertex 33.3866 195.266 -20.2
      vertex 33.95 197 -20.2
    endloop
  endfacet
  facet normal 0 0 -1
    outer loop
      vertex 31.9116 194.194 -20.2
      vertex 34.2817 191.977 -20.2
      vertex 32.4729 191.184 -20.2
    endloop
  endfacet
  facet normal 0 0 -1
    outer loop
      vertex 34.2817 191.977 -20.2
      vertex 31.9116 194.194 -20.2
      vertex 33.3866 195.266 -20.2
    endloop
  endfacet
  facet normal 0 0 -1
    outer loop
      vertex 30.5045 191.02 -20.2
      vertex 31.9116 194.194 -20.2
      vertex 32.4729 191.184 -20.2
    endloop
  endfacet
  facet normal 0 0 -1
    outer loop
      vertex 30.5045 191.02 -20.2
      vertex 30.0884 194.194 -20.2
      vertex 31.9116 194.194 -20.2
    endloop
  endfacet
  facet normal 0 0 -1
    outer loop
      vertex 28.5898 191.505 -20.2
      vertex 30.0884 194.194 -20.2
      vertex 30.5045 191.02 -20.2
    endloop
  endfacet
  facet normal 0 0 -1
    outer loop
      vertex 26.9363 192.586 -20.2
      vertex 30.0884 194.194 -20.2
      vertex 28.5898 191.505 -20.2
    endloop
  endfacet
  facet normal -0 0 -1
    outer loop
      vertex 30.0884 194.194 -20.2
      vertex 26.9363 192.586 -20.2
      vertex 28.6134 195.266 -20.2
    endloop
  endfacet
  facet normal 0 0 -1
    outer loop
      vertex 25.7232 194.144 -20.2
      vertex 28.6134 195.266 -20.2
      vertex 26.9363 192.586 -20.2
    endloop
  endfacet
  facet normal 0 0 -1
    outer loop
      vertex 25.0818 196.012 -20.2
      vertex 28.6134 195.266 -20.2
      vertex 25.7232 194.144 -20.2
    endloop
  endfacet
  facet normal 0 0 -1
    outer loop
      vertex 28.6134 195.266 -20.2
      vertex 25.0818 196.012 -20.2
      vertex 28.05 197 -20.2
    endloop
  endfacet
  facet normal 0 0 -1
    outer loop
      vertex 25.0818 197.988 -20.2
      vertex 28.05 197 -20.2
      vertex 25.0818 196.012 -20.2
    endloop
  endfacet
  facet normal 0 0 -1
    outer loop
      vertex 28.05 197 -20.2
      vertex 26.9363 201.414 -20.2
      vertex 27.6588 201.886 -20.2
    endloop
  endfacet
  facet normal 0 -0 -1
    outer loop
      vertex 25.7232 199.856 -20.2
      vertex 28.05 197 -20.2
      vertex 25.0818 197.988 -20.2
    endloop
  endfacet
  facet normal 0 -0 -1
    outer loop
      vertex 26.9363 201.414 -20.2
      vertex 28.05 197 -20.2
      vertex 25.7232 199.856 -20.2
    endloop
  endfacet
  facet normal -0 0 -1
    outer loop
      vertex 35.7348 200.685 -20.2
      vertex 33.3866 198.734 -20.2
      vertex 34.2817 202.023 -20.2
    endloop
  endfacet
  facet normal 0 0 -1
    outer loop
      vertex 31.9116 199.806 -20.2
      vertex 34.2817 202.023 -20.2
      vertex 33.3866 198.734 -20.2
    endloop
  endfacet
  facet normal -0 0 -1
    outer loop
      vertex 34.2817 202.023 -20.2
      vertex 31.9116 199.806 -20.2
      vertex 32.4729 202.816 -20.2
    endloop
  endfacet
  facet normal 0 0 -1
    outer loop
      vertex 31.9116 199.806 -20.2
      vertex 30.5045 202.98 -20.2
      vertex 32.4729 202.816 -20.2
    endloop
  endfacet
  facet normal 0 0 -1
    outer loop
      vertex 30.0884 199.806 -20.2
      vertex 30.5045 202.98 -20.2
      vertex 31.9116 199.806 -20.2
    endloop
  endfacet
  facet normal 0 0 -1
    outer loop
      vertex 30.0884 199.806 -20.2
      vertex 28.7495 202.535 -20.2
      vertex 30.5045 202.98 -20.2
    endloop
  endfacet
  facet normal 0 0 -1
    outer loop
      vertex 28.375 201.886 -20.2
      vertex 30.0884 199.806 -20.2
      vertex 28.6134 198.734 -20.2
    endloop
  endfacet
  facet normal 0 0 -1
    outer loop
      vertex 30.0884 199.806 -20.2
      vertex 28.375 201.886 -20.2
      vertex 28.7495 202.535 -20.2
    endloop
  endfacet
  facet normal 0 0 -1
    outer loop
      vertex 27.6588 201.886 -20.2
      vertex 28.6134 198.734 -20.2
      vertex 28.05 197 -20.2
    endloop
  endfacet
  facet normal 0 0 -1
    outer loop
      vertex 28.6134 198.734 -20.2
      vertex 27.6588 201.886 -20.2
      vertex 28.375 201.886 -20.2
    endloop
  endfacet
  facet normal -0 0 1
    outer loop
      vertex 27.7678 204.232 -20.2
      vertex 28.7495 202.535 -20.2
      vertex 30.75 206 -20.2
    endloop
  endfacet
  facet normal 0 0 1
    outer loop
      vertex 27.7678 204.232 -20.2
      vertex 30.75 206 -20.2
      vertex 28.5 206 -20.2
    endloop
  endfacet
  facet normal -0 0 1
    outer loop
      vertex 27.7678 207.768 -20.2
      vertex 30.75 206 -20.2
      vertex 28.375 210.114 -20.2
    endloop
  endfacet
  facet normal 0 0 1
    outer loop
      vertex 30.75 206 -20.2
      vertex 27.7678 207.768 -20.2
      vertex 28.5 206 -20.2
    endloop
  endfacet
  facet normal 0 0 1
    outer loop
      vertex 28.375 210.114 -20.2
      vertex 26 208.5 -20.2
      vertex 27.7678 207.768 -20.2
    endloop
  endfacet
  facet normal -0 0 1
    outer loop
      vertex 23.625 210.114 -20.2
      vertex 26 208.5 -20.2
      vertex 28.375 210.114 -20.2
    endloop
  endfacet
  facet normal 0 0 1
    outer loop
      vertex 26 208.5 -20.2
      vertex 23.625 210.114 -20.2
      vertex 24.2322 207.768 -20.2
    endloop
  endfacet
  facet normal 0 0 1
    outer loop
      vertex 22 207.299 -20.2
      vertex 24.2322 207.768 -20.2
      vertex 23.625 210.114 -20.2
    endloop
  endfacet
  facet normal 0 0 1
    outer loop
      vertex 24.2322 207.768 -20.2
      vertex 22 207.299 -20.2
      vertex 23.5 206 -20.2
    endloop
  endfacet
  facet normal 0 0 1
    outer loop
      vertex 28.7495 202.535 -20.2
      vertex 27.7678 204.232 -20.2
      vertex 28.5898 202.495 -20.2
    endloop
  endfacet
  facet normal 0 0 1
    outer loop
      vertex 27.7678 204.232 -20.2
      vertex 27.6588 201.886 -20.2
      vertex 28.5898 202.495 -20.2
    endloop
  endfacet
  facet normal -0 0 1
    outer loop
      vertex 26 203.5 -20.2
      vertex 27.6588 201.886 -20.2
      vertex 27.7678 204.232 -20.2
    endloop
  endfacet
  facet normal 0 0 1
    outer loop
      vertex 23.625 201.886 -20.2
      vertex 26 203.5 -20.2
      vertex 24.2322 204.232 -20.2
    endloop
  endfacet
  facet normal 0 0 1
    outer loop
      vertex 26 203.5 -20.2
      vertex 23.625 201.886 -20.2
      vertex 27.6588 201.886 -20.2
    endloop
  endfacet
  facet normal -0 0 1
    outer loop
      vertex 22 204.701 -20.2
      vertex 24.2322 204.232 -20.2
      vertex 23.5 206 -20.2
    endloop
  endfacet
  facet normal 0 0 1
    outer loop
      vertex 22 204.701 -20.2
      vertex 23.5 206 -20.2
      vertex 22 207.299 -20.2
    endloop
  endfacet
  facet normal 0 0 1
    outer loop
      vertex 24.2322 204.232 -20.2
      vertex 22 204.701 -20.2
      vertex 23.625 201.886 -20.2
    endloop
  endfacet
  facet normal 0.587911 -0.808926 0
    outer loop
      vertex 28.6134 198.734 -20.2
      vertex 30.0884 199.806 -15.4
      vertex 28.6134 198.734 -15.4
    endloop
  endfacet
  facet normal 0.587911 -0.808926 0
    outer loop
      vertex 30.0884 199.806 -15.4
      vertex 28.6134 198.734 -20.2
      vertex 30.0884 199.806 -20.2
    endloop
  endfacet
  facet normal 0.951058 -0.309012 0
    outer loop
      vertex 28.05 197 -15.4
      vertex 28.6134 198.734 -20.2
      vertex 28.6134 198.734 -15.4
    endloop
  endfacet
  facet normal 0.951058 -0.309012 0
    outer loop
      vertex 28.6134 198.734 -20.2
      vertex 28.05 197 -15.4
      vertex 28.05 197 -20.2
    endloop
  endfacet
  facet normal -0.879456 -0.47598 0
    outer loop
      vertex 36.6749 198.948 -26.2
      vertex 35.7348 200.685 -20.2
      vertex 35.7348 200.685 -26.2
    endloop
  endfacet
  facet normal -0.879456 -0.47598 0
    outer loop
      vertex 35.7348 200.685 -20.2
      vertex 36.6749 198.948 -26.2
      vertex 36.6749 198.948 -20.2
    endloop
  endfacet
  facet normal -0.986358 -0.164612 0
    outer loop
      vertex 37 197 -26.2
      vertex 36.6749 198.948 -20.2
      vertex 36.6749 198.948 -26.2
    endloop
  endfacet
  facet normal -0.986358 -0.164612 0
    outer loop
      vertex 36.6749 198.948 -20.2
      vertex 37 197 -26.2
      vertex 37 197 -20.2
    endloop
  endfacet
  facet normal -0.677371 -0.735641 0
    outer loop
      vertex 34.2817 202.023 -26.2
      vertex 35.7348 200.685 -20.2
      vertex 34.2817 202.023 -20.2
    endloop
  endfacet
  facet normal -0.677371 -0.735641 -0
    outer loop
      vertex 35.7348 200.685 -20.2
      vertex 34.2817 202.023 -26.2
      vertex 35.7348 200.685 -26.2
    endloop
  endfacet
  facet normal 0.945799 -0.324751 0
    outer loop
      vertex 25.0818 197.988 -20.2
      vertex 25.7232 199.856 -26.2
      vertex 25.7232 199.856 -20.2
    endloop
  endfacet
  facet normal 0.945799 -0.324751 0
    outer loop
      vertex 25.7232 199.856 -26.2
      vertex 25.0818 197.988 -20.2
      vertex 25.0818 197.988 -26.2
    endloop
  endfacet
  facet normal -0.40152 0.91585 0
    outer loop
      vertex 34.2817 191.977 -26.2
      vertex 32.4729 191.184 -20.2
      vertex 34.2817 191.977 -20.2
    endloop
  endfacet
  facet normal -0.40152 0.91585 0
    outer loop
      vertex 32.4729 191.184 -20.2
      vertex 34.2817 191.977 -26.2
      vertex 32.4729 191.184 -26.2
    endloop
  endfacet
  facet normal 0.245548 0.969384 -0
    outer loop
      vertex 30.5045 191.02 -26.2
      vertex 28.5898 191.505 -20.2
      vertex 30.5045 191.02 -20.2
    endloop
  endfacet
  facet normal 0.245548 0.969384 0
    outer loop
      vertex 28.5898 191.505 -20.2
      vertex 30.5045 191.02 -26.2
      vertex 28.5898 191.505 -26.2
    endloop
  endfacet
  facet normal -0.0830287 -0.996547 0
    outer loop
      vertex 30.5045 202.98 -26.2
      vertex 32.4729 202.816 -20.2
      vertex 30.5045 202.98 -20.2
    endloop
  endfacet
  facet normal -0.0830287 -0.996547 -0
    outer loop
      vertex 32.4729 202.816 -20.2
      vertex 30.5045 202.98 -26.2
      vertex 32.4729 202.816 -26.2
    endloop
  endfacet
  facet normal 0.546922 -0.837184 0
    outer loop
      vertex 26.9363 201.414 -26.2
      vertex 27.6588 201.886 -20.2
      vertex 26.9363 201.414 -20.2
    endloop
  endfacet
  facet normal 0.547202 -0.837001 -4.81311e-05
    outer loop
      vertex 28.5898 202.495 -26.2
      vertex 27.6588 201.886 -20.2
      vertex 26.9363 201.414 -26.2
    endloop
  endfacet
  facet normal 0.547419 -0.836859 0
    outer loop
      vertex 27.6588 201.886 -20.2
      vertex 28.5898 202.495 -26.2
      vertex 28.5898 202.495 -20.2
    endloop
  endfacet
  facet normal 0.242964 -0.970035 0
    outer loop
      vertex 28.5898 202.495 -26.2
      vertex 28.7495 202.535 -20.2
      vertex 28.5898 202.495 -20.2
    endloop
  endfacet
  facet normal 0.245548 -0.969384 -7.3116e-05
    outer loop
      vertex 30.5045 202.98 -26.2
      vertex 28.7495 202.535 -20.2
      vertex 28.5898 202.495 -26.2
    endloop
  endfacet
  facet normal 0.245783 -0.969325 0
    outer loop
      vertex 28.7495 202.535 -20.2
      vertex 30.5045 202.98 -26.2
      vertex 30.5045 202.98 -20.2
    endloop
  endfacet
  facet normal 0.547202 0.837001 -0
    outer loop
      vertex 28.5898 191.505 -26.2
      vertex 26.9363 192.586 -20.2
      vertex 28.5898 191.505 -20.2
    endloop
  endfacet
  facet normal 0.547202 0.837001 0
    outer loop
      vertex 26.9363 192.586 -20.2
      vertex 28.5898 191.505 -26.2
      vertex 26.9363 192.586 -26.2
    endloop
  endfacet
  facet normal 0.789028 0.614358 0
    outer loop
      vertex 26.9363 192.586 -20.2
      vertex 25.7232 194.144 -26.2
      vertex 25.7232 194.144 -20.2
    endloop
  endfacet
  facet normal 0.789028 0.614358 0
    outer loop
      vertex 25.7232 194.144 -26.2
      vertex 26.9363 192.586 -20.2
      vertex 26.9363 192.586 -26.2
    endloop
  endfacet
  facet normal -0.986358 0.164612 0
    outer loop
      vertex 36.6749 195.052 -26.2
      vertex 37 197 -20.2
      vertex 37 197 -26.2
    endloop
  endfacet
  facet normal -0.986358 0.164612 0
    outer loop
      vertex 37 197 -20.2
      vertex 36.6749 195.052 -26.2
      vertex 36.6749 195.052 -20.2
    endloop
  endfacet
  facet normal 0.945799 0.324751 0
    outer loop
      vertex 25.7232 194.144 -20.2
      vertex 25.0818 196.012 -26.2
      vertex 25.0818 196.012 -20.2
    endloop
  endfacet
  facet normal 0.945799 0.324751 0
    outer loop
      vertex 25.0818 196.012 -26.2
      vertex 25.7232 194.144 -20.2
      vertex 25.7232 194.144 -26.2
    endloop
  endfacet
  facet normal -0.0830287 0.996547 0
    outer loop
      vertex 32.4729 191.184 -26.2
      vertex 30.5045 191.02 -20.2
      vertex 32.4729 191.184 -20.2
    endloop
  endfacet
  facet normal -0.0830287 0.996547 0
    outer loop
      vertex 30.5045 191.02 -20.2
      vertex 32.4729 191.184 -26.2
      vertex 30.5045 191.02 -26.2
    endloop
  endfacet
  facet normal 1 -0 0
    outer loop
      vertex 25.0818 196.012 -20.2
      vertex 25.0818 197.988 -26.2
      vertex 25.0818 197.988 -20.2
    endloop
  endfacet
  facet normal 1 0 0
    outer loop
      vertex 25.0818 197.988 -26.2
      vertex 25.0818 196.012 -20.2
      vertex 25.0818 196.012 -26.2
    endloop
  endfacet
  facet normal -0.40152 -0.91585 0
    outer loop
      vertex 32.4729 202.816 -26.2
      vertex 34.2817 202.023 -20.2
      vertex 32.4729 202.816 -20.2
    endloop
  endfacet
  facet normal -0.40152 -0.91585 -0
    outer loop
      vertex 34.2817 202.023 -20.2
      vertex 32.4729 202.816 -26.2
      vertex 34.2817 202.023 -26.2
    endloop
  endfacet
  facet normal -0.879456 0.47598 0
    outer loop
      vertex 35.7348 193.315 -26.2
      vertex 36.6749 195.052 -20.2
      vertex 36.6749 195.052 -26.2
    endloop
  endfacet
  facet normal -0.879456 0.47598 0
    outer loop
      vertex 36.6749 195.052 -20.2
      vertex 35.7348 193.315 -26.2
      vertex 35.7348 193.315 -20.2
    endloop
  endfacet
  facet normal -0.677371 0.735641 0
    outer loop
      vertex 35.7348 193.315 -26.2
      vertex 34.2817 191.977 -20.2
      vertex 35.7348 193.315 -20.2
    endloop
  endfacet
  facet normal -0.677371 0.735641 0
    outer loop
      vertex 34.2817 191.977 -20.2
      vertex 35.7348 193.315 -26.2
      vertex 34.2817 191.977 -26.2
    endloop
  endfacet
  facet normal 0.789028 -0.614358 0
    outer loop
      vertex 25.7232 199.856 -20.2
      vertex 26.9363 201.414 -26.2
      vertex 26.9363 201.414 -20.2
    endloop
  endfacet
  facet normal 0.789028 -0.614358 0
    outer loop
      vertex 26.9363 201.414 -26.2
      vertex 25.7232 199.856 -20.2
      vertex 25.7232 199.856 -26.2
    endloop
  endfacet
  facet normal -0.587911 -0.808926 0
    outer loop
      vertex 49.9116 182.806 -26.2
      vertex 51.3866 181.734 -21.8
      vertex 49.9116 182.806 -21.8
    endloop
  endfacet
  facet normal -0.587911 -0.808926 -0
    outer loop
      vertex 51.3866 181.734 -21.8
      vertex 49.9116 182.806 -26.2
      vertex 51.3866 181.734 -26.2
    endloop
  endfacet
  facet normal -0.951058 -0.309012 0
    outer loop
      vertex 51.95 180 -26.2
      vertex 51.3866 181.734 -21.8
      vertex 51.3866 181.734 -26.2
    endloop
  endfacet
  facet normal -0.951058 -0.309012 0
    outer loop
      vertex 51.3866 181.734 -21.8
      vertex 51.95 180 -26.2
      vertex 51.95 180 -21.8
    endloop
  endfacet
  facet normal 0 -1 0
    outer loop
      vertex 48.0884 182.806 -26.2
      vertex 49.9116 182.806 -21.8
      vertex 48.0884 182.806 -21.8
    endloop
  endfacet
  facet normal 0 -1 -0
    outer loop
      vertex 49.9116 182.806 -21.8
      vertex 48.0884 182.806 -26.2
      vertex 49.9116 182.806 -26.2
    endloop
  endfacet
  facet normal 0 1 -0
    outer loop
      vertex 49.9116 177.194 -26.2
      vertex 48.0884 177.194 -21.8
      vertex 49.9116 177.194 -21.8
    endloop
  endfacet
  facet normal 0 1 0
    outer loop
      vertex 48.0884 177.194 -21.8
      vertex 49.9116 177.194 -26.2
      vertex 48.0884 177.194 -26.2
    endloop
  endfacet
  facet normal 0.587911 -0.808926 0
    outer loop
      vertex 46.6134 181.734 -26.2
      vertex 48.0884 182.806 -21.8
      vertex 46.6134 181.734 -21.8
    endloop
  endfacet
  facet normal 0.587911 -0.808926 0
    outer loop
      vertex 48.0884 182.806 -21.8
      vertex 46.6134 181.734 -26.2
      vertex 48.0884 182.806 -26.2
    endloop
  endfacet
  facet normal -0.587911 0.808926 0
    outer loop
      vertex 51.3866 178.266 -26.2
      vertex 49.9116 177.194 -21.8
      vertex 51.3866 178.266 -21.8
    endloop
  endfacet
  facet normal -0.587911 0.808926 0
    outer loop
      vertex 49.9116 177.194 -21.8
      vertex 51.3866 178.266 -26.2
      vertex 49.9116 177.194 -26.2
    endloop
  endfacet
  facet normal 0.951058 0.309012 0
    outer loop
      vertex 46.6134 178.266 -21.8
      vertex 46.05 180 -26.2
      vertex 46.05 180 -21.8
    endloop
  endfacet
  facet normal 0.951058 0.309012 0
    outer loop
      vertex 46.05 180 -26.2
      vertex 46.6134 178.266 -21.8
      vertex 46.6134 178.266 -26.2
    endloop
  endfacet
  facet normal 0.587911 0.808926 -0
    outer loop
      vertex 48.0884 177.194 -26.2
      vertex 46.6134 178.266 -21.8
      vertex 48.0884 177.194 -21.8
    endloop
  endfacet
  facet normal 0.587911 0.808926 0
    outer loop
      vertex 46.6134 178.266 -21.8
      vertex 48.0884 177.194 -26.2
      vertex 46.6134 178.266 -26.2
    endloop
  endfacet
  facet normal -0.951058 0.309012 0
    outer loop
      vertex 51.3866 178.266 -26.2
      vertex 51.95 180 -21.8
      vertex 51.95 180 -26.2
    endloop
  endfacet
  facet normal -0.951058 0.309012 0
    outer loop
      vertex 51.95 180 -21.8
      vertex 51.3866 178.266 -26.2
      vertex 51.3866 178.266 -21.8
    endloop
  endfacet
  facet normal 0.951058 -0.309012 0
    outer loop
      vertex 46.05 180 -21.8
      vertex 46.6134 181.734 -26.2
      vertex 46.6134 181.734 -21.8
    endloop
  endfacet
  facet normal 0.951058 -0.309012 0
    outer loop
      vertex 46.6134 181.734 -26.2
      vertex 46.05 180 -21.8
      vertex 46.05 180 -26.2
    endloop
  endfacet
  facet normal 0.923897 0.38264 0
    outer loop
      vertex 0.232233 178.232 -22.9
      vertex -0.5 180 -26.2
      vertex -0.5 180 -22.9
    endloop
  endfacet
  facet normal 0.923897 0.38264 0
    outer loop
      vertex -0.5 180 -26.2
      vertex 0.232233 178.232 -22.9
      vertex 0.232233 178.232 -26.2
    endloop
  endfacet
  facet normal -0.382579 -0.923923 0
    outer loop
      vertex 2 182.5 -26.2
      vertex 3.76777 181.768 -22.9
      vertex 2 182.5 -22.9
    endloop
  endfacet
  facet normal -0.382579 -0.923923 -0
    outer loop
      vertex 3.76777 181.768 -22.9
      vertex 2 182.5 -26.2
      vertex 3.76777 181.768 -26.2
    endloop
  endfacet
  facet normal -0.923898 -0.382639 0
    outer loop
      vertex 4.5 180 -26.2
      vertex 3.76777 181.768 -22.9
      vertex 3.76777 181.768 -26.2
    endloop
  endfacet
  facet normal -0.923898 -0.382639 0
    outer loop
      vertex 3.76777 181.768 -22.9
      vertex 4.5 180 -26.2
      vertex 4.5 180 -22.9
    endloop
  endfacet
  facet normal 0.923897 -0.38264 0
    outer loop
      vertex -0.5 180 -22.9
      vertex 0.232233 181.768 -26.2
      vertex 0.232233 181.768 -22.9
    endloop
  endfacet
  facet normal 0.923897 -0.38264 0
    outer loop
      vertex 0.232233 181.768 -26.2
      vertex -0.5 180 -22.9
      vertex -0.5 180 -26.2
    endloop
  endfacet
  facet normal -0.923898 0.382639 0
    outer loop
      vertex 3.76777 178.232 -26.2
      vertex 4.5 180 -22.9
      vertex 4.5 180 -26.2
    endloop
  endfacet
  facet normal -0.923898 0.382639 0
    outer loop
      vertex 4.5 180 -22.9
      vertex 3.76777 178.232 -26.2
      vertex 3.76777 178.232 -22.9
    endloop
  endfacet
  facet normal 0.382579 -0.923923 0
    outer loop
      vertex 0.232233 181.768 -26.2
      vertex 2 182.5 -22.9
      vertex 0.232233 181.768 -22.9
    endloop
  endfacet
  facet normal 0.382579 -0.923923 0
    outer loop
      vertex 2 182.5 -22.9
      vertex 0.232233 181.768 -26.2
      vertex 2 182.5 -26.2
    endloop
  endfacet
  facet normal -0.382579 0.923923 0
    outer loop
      vertex 3.76777 178.232 -26.2
      vertex 2 177.5 -22.9
      vertex 3.76777 178.232 -22.9
    endloop
  endfacet
  facet normal -0.382579 0.923923 0
    outer loop
      vertex 2 177.5 -22.9
      vertex 3.76777 178.232 -26.2
      vertex 2 177.5 -26.2
    endloop
  endfacet
  facet normal 0.382579 0.923923 -0
    outer loop
      vertex 2 177.5 -26.2
      vertex 0.232233 178.232 -22.9
      vertex 2 177.5 -22.9
    endloop
  endfacet
  facet normal 0.382579 0.923923 0
    outer loop
      vertex 0.232233 178.232 -22.9
      vertex 2 177.5 -26.2
      vertex 0.232233 178.232 -26.2
    endloop
  endfacet
  facet normal -0.382573 0.923925 0
    outer loop
      vertex 27.7678 204.232 -26.2
      vertex 26 203.5 -20.2
      vertex 27.7678 204.232 -20.2
    endloop
  endfacet
  facet normal -0.382573 0.923925 0
    outer loop
      vertex 26 203.5 -20.2
      vertex 27.7678 204.232 -26.2
      vertex 26 203.5 -26.2
    endloop
  endfacet
  facet normal -0.382573 -0.923925 0
    outer loop
      vertex 26 208.5 -26.2
      vertex 27.7678 207.768 -20.2
      vertex 26 208.5 -20.2
    endloop
  endfacet
  facet normal -0.382573 -0.923925 -0
    outer loop
      vertex 27.7678 207.768 -20.2
      vertex 26 208.5 -26.2
      vertex 27.7678 207.768 -26.2
    endloop
  endfacet
  facet normal -0.923903 -0.382626 0
    outer loop
      vertex 28.5 206 -26.2
      vertex 27.7678 207.768 -20.2
      vertex 27.7678 207.768 -26.2
    endloop
  endfacet
  facet normal -0.923903 -0.382626 0
    outer loop
      vertex 27.7678 207.768 -20.2
      vertex 28.5 206 -26.2
      vertex 28.5 206 -20.2
    endloop
  endfacet
  facet normal 0.382573 -0.923925 0
    outer loop
      vertex 24.2322 207.768 -26.2
      vertex 26 208.5 -20.2
      vertex 24.2322 207.768 -20.2
    endloop
  endfacet
  facet normal 0.382573 -0.923925 0
    outer loop
      vertex 26 208.5 -20.2
      vertex 24.2322 207.768 -26.2
      vertex 26 208.5 -26.2
    endloop
  endfacet
  facet normal -0.923903 0.382626 0
    outer loop
      vertex 27.7678 204.232 -26.2
      vertex 28.5 206 -20.2
      vertex 28.5 206 -26.2
    endloop
  endfacet
  facet normal -0.923903 0.382626 0
    outer loop
      vertex 28.5 206 -20.2
      vertex 27.7678 204.232 -26.2
      vertex 27.7678 204.232 -20.2
    endloop
  endfacet
  facet normal 0.923903 0.382626 0
    outer loop
      vertex 24.2322 204.232 -20.2
      vertex 23.5 206 -26.2
      vertex 23.5 206 -20.2
    endloop
  endfacet
  facet normal 0.923903 0.382626 0
    outer loop
      vertex 23.5 206 -26.2
      vertex 24.2322 204.232 -20.2
      vertex 24.2322 204.232 -26.2
    endloop
  endfacet
  facet normal 0.923903 -0.382626 0
    outer loop
      vertex 23.5 206 -20.2
      vertex 24.2322 207.768 -26.2
      vertex 24.2322 207.768 -20.2
    endloop
  endfacet
  facet normal 0.923903 -0.382626 0
    outer loop
      vertex 24.2322 207.768 -26.2
      vertex 23.5 206 -20.2
      vertex 23.5 206 -26.2
    endloop
  endfacet
  facet normal 0.382573 0.923925 -0
    outer loop
      vertex 26 203.5 -26.2
      vertex 24.2322 204.232 -20.2
      vertex 26 203.5 -20.2
    endloop
  endfacet
  facet normal 0.382573 0.923925 0
    outer loop
      vertex 24.2322 204.232 -20.2
      vertex 26 203.5 -26.2
      vertex 24.2322 204.232 -26.2
    endloop
  endfacet
  facet normal 0 1 0
    outer loop
      vertex 27.6588 201.886 -20.2
      vertex 28.375 201.886 -15.4
      vertex 28.375 201.886 -20.2
    endloop
  endfacet
  facet normal 0 1 0
    outer loop
      vertex 28.375 201.886 -15.4
      vertex 27.6588 201.886 -20.2
      vertex 23.625 201.886 -15.4
    endloop
  endfacet
  facet normal 0 1 0
    outer loop
      vertex 23.625 201.886 -15.4
      vertex 27.6588 201.886 -20.2
      vertex 23.625 201.886 -20.2
    endloop
  endfacet
  facet normal 0 -1 0
    outer loop
      vertex 23.625 210.114 -20.2
      vertex 28.375 210.114 -15.4
      vertex 23.625 210.114 -15.4
    endloop
  endfacet
  facet normal 0 -1 -0
    outer loop
      vertex 28.375 210.114 -15.4
      vertex 23.625 210.114 -20.2
      vertex 28.375 210.114 -20.2
    endloop
  endfacet
  facet normal -0.866045 -0.499965 0
    outer loop
      vertex 30.75 206 -20.2
      vertex 28.375 210.114 -15.4
      vertex 28.375 210.114 -20.2
    endloop
  endfacet
  facet normal -0.866045 -0.499965 0
    outer loop
      vertex 28.375 210.114 -15.4
      vertex 30.75 206 -20.2
      vertex 30.75 206 -15.4
    endloop
  endfacet
  facet normal 0.866058 -0.499944 0
    outer loop
      vertex 22 207.299 -15.4
      vertex 23.625 210.114 -20.2
      vertex 23.625 210.114 -15.4
    endloop
  endfacet
  facet normal 0.866058 -0.499944 0
    outer loop
      vertex 23.625 210.114 -20.2
      vertex 22 207.299 -15.4
      vertex 22 207.299 -20.2
    endloop
  endfacet
  facet normal 0.866058 0.499944 0
    outer loop
      vertex 23.625 201.886 -15.4
      vertex 22 204.701 -20.2
      vertex 22 204.701 -15.4
    endloop
  endfacet
  facet normal 0.866058 0.499944 0
    outer loop
      vertex 22 204.701 -20.2
      vertex 23.625 201.886 -15.4
      vertex 23.625 201.886 -20.2
    endloop
  endfacet
  facet normal -0.866027 0.499996 0
    outer loop
      vertex 28.7495 202.535 -20.2
      vertex 30.75 206 -15.4
      vertex 30.75 206 -20.2
    endloop
  endfacet
  facet normal -0.866141 0.499799 0
    outer loop
      vertex 28.375 201.886 -15.4
      vertex 28.7495 202.535 -20.2
      vertex 28.375 201.886 -20.2
    endloop
  endfacet
  facet normal -0.866045 0.499965 2.99102e-05
    outer loop
      vertex 28.7495 202.535 -20.2
      vertex 28.375 201.886 -15.4
      vertex 30.75 206 -15.4
    endloop
  endfacet
  facet normal -0.382573 0.923925 0
    outer loop
      vertex 27.7678 152.232 -26.2
      vertex 26 151.5 -20.2
      vertex 27.7678 152.232 -20.2
    endloop
  endfacet
  facet normal -0.382573 0.923925 0
    outer loop
      vertex 26 151.5 -20.2
      vertex 27.7678 152.232 -26.2
      vertex 26 151.5 -26.2
    endloop
  endfacet
  facet normal -0.382573 -0.923925 0
    outer loop
      vertex 26 156.5 -26.2
      vertex 27.7678 155.768 -20.2
      vertex 26 156.5 -20.2
    endloop
  endfacet
  facet normal -0.382573 -0.923925 -0
    outer loop
      vertex 27.7678 155.768 -20.2
      vertex 26 156.5 -26.2
      vertex 27.7678 155.768 -26.2
    endloop
  endfacet
  facet normal -0.923903 -0.382626 0
    outer loop
      vertex 28.5 154 -26.2
      vertex 27.7678 155.768 -20.2
      vertex 27.7678 155.768 -26.2
    endloop
  endfacet
  facet normal -0.923903 -0.382626 0
    outer loop
      vertex 27.7678 155.768 -20.2
      vertex 28.5 154 -26.2
      vertex 28.5 154 -20.2
    endloop
  endfacet
  facet normal 0.382573 -0.923925 0
    outer loop
      vertex 24.2322 155.768 -26.2
      vertex 26 156.5 -20.2
      vertex 24.2322 155.768 -20.2
    endloop
  endfacet
  facet normal 0.382573 -0.923925 0
    outer loop
      vertex 26 156.5 -20.2
      vertex 24.2322 155.768 -26.2
      vertex 26 156.5 -26.2
    endloop
  endfacet
  facet normal -0.923903 0.382626 0
    outer loop
      vertex 27.7678 152.232 -26.2
      vertex 28.5 154 -20.2
      vertex 28.5 154 -26.2
    endloop
  endfacet
  facet normal -0.923903 0.382626 0
    outer loop
      vertex 28.5 154 -20.2
      vertex 27.7678 152.232 -26.2
      vertex 27.7678 152.232 -20.2
    endloop
  endfacet
  facet normal 0.923903 0.382626 0
    outer loop
      vertex 24.2322 152.232 -20.2
      vertex 23.5 154 -26.2
      vertex 23.5 154 -20.2
    endloop
  endfacet
  facet normal 0.923903 0.382626 0
    outer loop
      vertex 23.5 154 -26.2
      vertex 24.2322 152.232 -20.2
      vertex 24.2322 152.232 -26.2
    endloop
  endfacet
  facet normal 0.923903 -0.382626 0
    outer loop
      vertex 23.5 154 -20.2
      vertex 24.2322 155.768 -26.2
      vertex 24.2322 155.768 -20.2
    endloop
  endfacet
  facet normal 0.923903 -0.382626 0
    outer loop
      vertex 24.2322 155.768 -26.2
      vertex 23.5 154 -20.2
      vertex 23.5 154 -26.2
    endloop
  endfacet
  facet normal 0.382573 0.923925 -0
    outer loop
      vertex 26 151.5 -26.2
      vertex 24.2322 152.232 -20.2
      vertex 26 151.5 -20.2
    endloop
  endfacet
  facet normal 0.382573 0.923925 0
    outer loop
      vertex 24.2322 152.232 -20.2
      vertex 26 151.5 -26.2
      vertex 24.2322 152.232 -26.2
    endloop
  endfacet
  facet normal 0 1 -0
    outer loop
      vertex 28.375 149.886 -20.2
      vertex 23.625 149.886 -15.4
      vertex 28.375 149.886 -15.4
    endloop
  endfacet
  facet normal 0 1 0
    outer loop
      vertex 23.625 149.886 -15.4
      vertex 28.375 149.886 -20.2
      vertex 23.625 149.886 -20.2
    endloop
  endfacet
  facet normal 0 -1 0
    outer loop
      vertex 27.6588 158.114 -20.2
      vertex 23.625 158.114 -15.4
      vertex 23.625 158.114 -20.2
    endloop
  endfacet
  facet normal 0 -1 0
    outer loop
      vertex 23.625 158.114 -15.4
      vertex 27.6588 158.114 -20.2
      vertex 28.375 158.114 -15.4
    endloop
  endfacet
  facet normal 0 -1 -0
    outer loop
      vertex 28.375 158.114 -15.4
      vertex 27.6588 158.114 -20.2
      vertex 28.375 158.114 -20.2
    endloop
  endfacet
  facet normal -0.866141 -0.499799 0
    outer loop
      vertex 28.7495 157.465 -20.2
      vertex 28.375 158.114 -15.4
      vertex 28.375 158.114 -20.2
    endloop
  endfacet
  facet normal -0.866027 -0.499996 -0
    outer loop
      vertex 30.75 154 -15.4
      vertex 28.7495 157.465 -20.2
      vertex 30.75 154 -20.2
    endloop
  endfacet
  facet normal -0.866045 -0.499965 2.99102e-05
    outer loop
      vertex 28.7495 157.465 -20.2
      vertex 30.75 154 -15.4
      vertex 28.375 158.114 -15.4
    endloop
  endfacet
  facet normal 0.866058 -0.499944 0
    outer loop
      vertex 22 155.299 -15.4
      vertex 23.625 158.114 -20.2
      vertex 23.625 158.114 -15.4
    endloop
  endfacet
  facet normal 0.866058 -0.499944 0
    outer loop
      vertex 23.625 158.114 -20.2
      vertex 22 155.299 -15.4
      vertex 22 155.299 -20.2
    endloop
  endfacet
  facet normal 0.866058 0.499944 0
    outer loop
      vertex 23.625 149.886 -15.4
      vertex 22 152.701 -20.2
      vertex 22 152.701 -15.4
    endloop
  endfacet
  facet normal 0.866058 0.499944 0
    outer loop
      vertex 22 152.701 -20.2
      vertex 23.625 149.886 -15.4
      vertex 23.625 149.886 -20.2
    endloop
  endfacet
  facet normal -0.866045 0.499965 0
    outer loop
      vertex 28.375 149.886 -20.2
      vertex 30.75 154 -15.4
      vertex 30.75 154 -20.2
    endloop
  endfacet
  facet normal -0.866045 0.499965 0
    outer loop
      vertex 30.75 154 -15.4
      vertex 28.375 149.886 -20.2
      vertex 28.375 149.886 -15.4
    endloop
  endfacet
endsolid OpenSCAD_Model
