solid OpenSCAD_Model
  facet normal 1 -0 0
    outer loop
      vertex 36.068 -41.4528 7.5
      vertex 36.068 0 0
      vertex 36.068 0 7.5
    endloop
  endfacet
  facet normal 1 0 0
    outer loop
      vertex 36.068 0 0
      vertex 36.068 -41.4528 7.5
      vertex 36.068 -41.4528 0
    endloop
  endfacet
  facet normal 0 0 1
    outer loop
      vertex 36.068 -41.4528 7.5
      vertex 29.5004 -30.6432 7.5
      vertex 29.6723 -31.6179 7.5
    endloop
  endfacet
  facet normal 0 0 1
    outer loop
      vertex 29.0055 -29.7861 7.5
      vertex 30.2105 -13.8146 7.5
      vertex 29.4157 -14.392 7.5
    endloop
  endfacet
  facet normal 0 0 1
    outer loop
      vertex 30.8678 -13.0846 7.5
      vertex 29.0055 -29.7861 7.5
      vertex 29.5004 -30.6432 7.5
    endloop
  endfacet
  facet normal 0 0 1
    outer loop
      vertex 28.2473 -29.1499 7.5
      vertex 29.4157 -14.392 7.5
      vertex 28.5183 -14.7916 7.5
    endloop
  endfacet
  facet normal 0 0 1
    outer loop
      vertex 29.4157 -14.392 7.5
      vertex 28.2473 -29.1499 7.5
      vertex 29.0055 -29.7861 7.5
    endloop
  endfacet
  facet normal 0 0 1
    outer loop
      vertex 27.3173 -28.8113 7.5
      vertex 28.5183 -14.7916 7.5
      vertex 27.5574 -14.9958 7.5
    endloop
  endfacet
  facet normal 0 0 1
    outer loop
      vertex 28.5183 -14.7916 7.5
      vertex 27.3173 -28.8113 7.5
      vertex 28.2473 -29.1499 7.5
    endloop
  endfacet
  facet normal -0 0 1
    outer loop
      vertex 26.5751 -14.9958 7.5
      vertex 27.3173 -28.8113 7.5
      vertex 27.5574 -14.9958 7.5
    endloop
  endfacet
  facet normal 0 0 1
    outer loop
      vertex 26.5751 -14.9958 7.5
      vertex 26.3275 -28.8113 7.5
      vertex 27.3173 -28.8113 7.5
    endloop
  endfacet
  facet normal 0 0 1
    outer loop
      vertex 25.6142 -14.7916 7.5
      vertex 26.3275 -28.8113 7.5
      vertex 26.5751 -14.9958 7.5
    endloop
  endfacet
  facet normal 0 0 1
    outer loop
      vertex 25.6142 -14.7916 7.5
      vertex 25.3975 -29.1499 7.5
      vertex 26.3275 -28.8113 7.5
    endloop
  endfacet
  facet normal 0 0 1
    outer loop
      vertex 24.7167 -14.392 7.5
      vertex 25.3975 -29.1499 7.5
      vertex 25.6142 -14.7916 7.5
    endloop
  endfacet
  facet normal 0 0 1
    outer loop
      vertex 24.7167 -14.392 7.5
      vertex 24.6393 -29.7861 7.5
      vertex 25.3975 -29.1499 7.5
    endloop
  endfacet
  facet normal 0 0 1
    outer loop
      vertex 23.922 -13.8146 7.5
      vertex 24.6393 -29.7861 7.5
      vertex 24.7167 -14.392 7.5
    endloop
  endfacet
  facet normal 0 0 1
    outer loop
      vertex 11.6662 -12.9532 7.5
      vertex 24.6393 -29.7861 7.5
      vertex 23.922 -13.8146 7.5
    endloop
  endfacet
  facet normal -0 0 1
    outer loop
      vertex 10.7362 -13.2917 7.5
      vertex 24.6393 -29.7861 7.5
      vertex 11.6662 -12.9532 7.5
    endloop
  endfacet
  facet normal 0 0 1
    outer loop
      vertex 31.6626 -11.2995 7.5
      vertex 36.068 0 7.5
      vertex 31.7652 -10.3226 7.5
    endloop
  endfacet
  facet normal 0 0 1
    outer loop
      vertex 36.068 0 7.5
      vertex 31.6626 -9.34558 7.5
      vertex 31.7652 -10.3226 7.5
    endloop
  endfacet
  facet normal 0 0 1
    outer loop
      vertex 36.068 0 7.5
      vertex 31.359 -8.4113 7.5
      vertex 31.6626 -9.34558 7.5
    endloop
  endfacet
  facet normal 0 0 1
    outer loop
      vertex 36.068 0 7.5
      vertex 30.8678 -7.56056 7.5
      vertex 31.359 -8.4113 7.5
    endloop
  endfacet
  facet normal 0 0 1
    outer loop
      vertex 36.068 0 7.5
      vertex 30.2105 -6.83052 7.5
      vertex 30.8678 -7.56056 7.5
    endloop
  endfacet
  facet normal 0 0 1
    outer loop
      vertex 36.068 0 7.5
      vertex 29.4157 -6.25311 7.5
      vertex 30.2105 -6.83052 7.5
    endloop
  endfacet
  facet normal 0 0 1
    outer loop
      vertex 36.068 0 7.5
      vertex 28.5183 -5.85355 7.5
      vertex 29.4157 -6.25311 7.5
    endloop
  endfacet
  facet normal 0 0 1
    outer loop
      vertex 36.068 0 7.5
      vertex 27.5574 -5.6493 7.5
      vertex 28.5183 -5.85355 7.5
    endloop
  endfacet
  facet normal 0 0 1
    outer loop
      vertex 36.068 0 7.5
      vertex 26.5751 -5.6493 7.5
      vertex 27.5574 -5.6493 7.5
    endloop
  endfacet
  facet normal 0 0 1
    outer loop
      vertex 36.068 0 7.5
      vertex 25.6142 -5.85355 7.5
      vertex 26.5751 -5.6493 7.5
    endloop
  endfacet
  facet normal -0 0 1
    outer loop
      vertex 0 0 7.5
      vertex 25.6142 -5.85355 7.5
      vertex 36.068 0 7.5
    endloop
  endfacet
  facet normal 0 0 1
    outer loop
      vertex 22.4699 -9.34558 7.5
      vertex 13.0912 -10.4851 7.5
      vertex 22.3672 -10.3226 7.5
    endloop
  endfacet
  facet normal 0 0 1
    outer loop
      vertex 12.9193 -9.5104 7.5
      vertex 22.4699 -9.34558 7.5
      vertex 22.7735 -8.4113 7.5
    endloop
  endfacet
  facet normal 0 0 1
    outer loop
      vertex 12.4244 -8.65325 7.5
      vertex 22.7735 -8.4113 7.5
      vertex 23.2647 -7.56056 7.5
    endloop
  endfacet
  facet normal 0 0 1
    outer loop
      vertex 11.6662 -8.01705 7.5
      vertex 23.2647 -7.56056 7.5
      vertex 23.922 -6.83052 7.5
    endloop
  endfacet
  facet normal 0 0 1
    outer loop
      vertex 11.6662 -8.01705 7.5
      vertex 23.922 -6.83052 7.5
      vertex 24.7167 -6.25311 7.5
    endloop
  endfacet
  facet normal 0 0 1
    outer loop
      vertex 25.6142 -5.85355 7.5
      vertex 0 0 7.5
      vertex 24.7167 -6.25311 7.5
    endloop
  endfacet
  facet normal 0 0 1
    outer loop
      vertex 22.4699 -9.34558 7.5
      vertex 12.9193 -9.5104 7.5
      vertex 13.0912 -10.4851 7.5
    endloop
  endfacet
  facet normal 0 0 1
    outer loop
      vertex 22.7735 -8.4113 7.5
      vertex 12.4244 -8.65325 7.5
      vertex 12.9193 -9.5104 7.5
    endloop
  endfacet
  facet normal 0 0 1
    outer loop
      vertex 23.2647 -7.56056 7.5
      vertex 11.6662 -8.01705 7.5
      vertex 12.4244 -8.65325 7.5
    endloop
  endfacet
  facet normal 0 0 1
    outer loop
      vertex 24.7167 -6.25311 7.5
      vertex 10.7362 -7.67854 7.5
      vertex 11.6662 -8.01705 7.5
    endloop
  endfacet
  facet normal 0 0 1
    outer loop
      vertex 24.7167 -6.25311 7.5
      vertex 0 0 7.5
      vertex 10.7362 -7.67854 7.5
    endloop
  endfacet
  facet normal 0 0 1
    outer loop
      vertex 7.56327 -9.5104 7.5
      vertex 0 0 7.5
      vertex 7.3914 -10.4851 7.5
    endloop
  endfacet
  facet normal 0 0 1
    outer loop
      vertex 8.05815 -8.65325 7.5
      vertex 0 0 7.5
      vertex 7.56327 -9.5104 7.5
    endloop
  endfacet
  facet normal 0 0 1
    outer loop
      vertex 8.81634 -8.01705 7.5
      vertex 0 0 7.5
      vertex 8.05815 -8.65325 7.5
    endloop
  endfacet
  facet normal 0 0 1
    outer loop
      vertex 9.7464 -7.67854 7.5
      vertex 0 0 7.5
      vertex 8.81634 -8.01705 7.5
    endloop
  endfacet
  facet normal 0 0 1
    outer loop
      vertex 10.7362 -7.67854 7.5
      vertex 0 0 7.5
      vertex 9.7464 -7.67854 7.5
    endloop
  endfacet
  facet normal 0 0 1
    outer loop
      vertex 36.068 0 7.5
      vertex 31.6626 -11.2995 7.5
      vertex 36.068 -41.4528 7.5
    endloop
  endfacet
  facet normal -0 0 1
    outer loop
      vertex 31.359 -12.2338 7.5
      vertex 36.068 -41.4528 7.5
      vertex 31.6626 -11.2995 7.5
    endloop
  endfacet
  facet normal 0 0 1
    outer loop
      vertex 29.5004 -30.6432 7.5
      vertex 31.359 -12.2338 7.5
      vertex 30.8678 -13.0846 7.5
    endloop
  endfacet
  facet normal 0 0 1
    outer loop
      vertex 29.0055 -29.7861 7.5
      vertex 30.8678 -13.0846 7.5
      vertex 30.2105 -13.8146 7.5
    endloop
  endfacet
  facet normal -0 0 1
    outer loop
      vertex 29.5004 -30.6432 7.5
      vertex 36.068 -41.4528 7.5
      vertex 31.359 -12.2338 7.5
    endloop
  endfacet
  facet normal -0 0 1
    outer loop
      vertex 29.5004 -32.5926 7.5
      vertex 36.068 -41.4528 7.5
      vertex 29.6723 -31.6179 7.5
    endloop
  endfacet
  facet normal -0 0 1
    outer loop
      vertex 29.0055 -33.4498 7.5
      vertex 36.068 -41.4528 7.5
      vertex 29.5004 -32.5926 7.5
    endloop
  endfacet
  facet normal -0 0 1
    outer loop
      vertex 28.2473 -34.086 7.5
      vertex 36.068 -41.4528 7.5
      vertex 29.0055 -33.4498 7.5
    endloop
  endfacet
  facet normal -0 0 1
    outer loop
      vertex 27.3173 -34.4245 7.5
      vertex 36.068 -41.4528 7.5
      vertex 28.2473 -34.086 7.5
    endloop
  endfacet
  facet normal -0 0 1
    outer loop
      vertex 26.3275 -34.4245 7.5
      vertex 36.068 -41.4528 7.5
      vertex 27.3173 -34.4245 7.5
    endloop
  endfacet
  facet normal 0 0 1
    outer loop
      vertex 25.3975 -34.086 7.5
      vertex 36.068 -41.4528 7.5
      vertex 26.3275 -34.4245 7.5
    endloop
  endfacet
  facet normal 0 0 1
    outer loop
      vertex 11.6662 -12.9532 7.5
      vertex 23.922 -13.8146 7.5
      vertex 23.2647 -13.0846 7.5
    endloop
  endfacet
  facet normal -0 0 1
    outer loop
      vertex 12.4244 -12.317 7.5
      vertex 23.2647 -13.0846 7.5
      vertex 22.7735 -12.2338 7.5
    endloop
  endfacet
  facet normal -0 0 1
    outer loop
      vertex 12.9193 -11.4598 7.5
      vertex 22.7735 -12.2338 7.5
      vertex 22.4699 -11.2995 7.5
    endloop
  endfacet
  facet normal -0 0 1
    outer loop
      vertex 13.0912 -10.4851 7.5
      vertex 22.4699 -11.2995 7.5
      vertex 22.3672 -10.3226 7.5
    endloop
  endfacet
  facet normal 0 0 1
    outer loop
      vertex 22.4699 -11.2995 7.5
      vertex 13.0912 -10.4851 7.5
      vertex 12.9193 -11.4598 7.5
    endloop
  endfacet
  facet normal 0 0 1
    outer loop
      vertex 22.7735 -12.2338 7.5
      vertex 12.9193 -11.4598 7.5
      vertex 12.4244 -12.317 7.5
    endloop
  endfacet
  facet normal 0 0 1
    outer loop
      vertex 23.2647 -13.0846 7.5
      vertex 12.4244 -12.317 7.5
      vertex 11.6662 -12.9532 7.5
    endloop
  endfacet
  facet normal 0 0 1
    outer loop
      vertex 24.6393 -29.7861 7.5
      vertex 10.7362 -13.2917 7.5
      vertex 24.1444 -30.6432 7.5
    endloop
  endfacet
  facet normal -0 0 1
    outer loop
      vertex 9.7464 -13.2917 7.5
      vertex 24.1444 -30.6432 7.5
      vertex 10.7362 -13.2917 7.5
    endloop
  endfacet
  facet normal 0 0 1
    outer loop
      vertex 24.1444 -30.6432 7.5
      vertex 9.7464 -13.2917 7.5
      vertex 23.9725 -31.6179 7.5
    endloop
  endfacet
  facet normal 0 0 1
    outer loop
      vertex 0 -41.4528 7.5
      vertex 23.9725 -31.6179 7.5
      vertex 9.7464 -13.2917 7.5
    endloop
  endfacet
  facet normal 0 0 1
    outer loop
      vertex 23.9725 -31.6179 7.5
      vertex 0 -41.4528 7.5
      vertex 24.1444 -32.5926 7.5
    endloop
  endfacet
  facet normal 0 0 1
    outer loop
      vertex 0 -41.4528 7.5
      vertex 9.7464 -13.2917 7.5
      vertex 8.81634 -12.9532 7.5
    endloop
  endfacet
  facet normal 0 0 1
    outer loop
      vertex 0 -41.4528 7.5
      vertex 8.81634 -12.9532 7.5
      vertex 8.05815 -12.317 7.5
    endloop
  endfacet
  facet normal 0 0 1
    outer loop
      vertex 0 0 7.5
      vertex 7.56327 -11.4598 7.5
      vertex 7.3914 -10.4851 7.5
    endloop
  endfacet
  facet normal 0 0 1
    outer loop
      vertex 0 -41.4528 7.5
      vertex 7.56327 -11.4598 7.5
      vertex 0 0 7.5
    endloop
  endfacet
  facet normal 0 0 1
    outer loop
      vertex 25.3975 -34.086 7.5
      vertex 0 -41.4528 7.5
      vertex 36.068 -41.4528 7.5
    endloop
  endfacet
  facet normal 0 0 1
    outer loop
      vertex 24.6393 -33.4498 7.5
      vertex 0 -41.4528 7.5
      vertex 25.3975 -34.086 7.5
    endloop
  endfacet
  facet normal 0 0 1
    outer loop
      vertex 24.1444 -32.5926 7.5
      vertex 0 -41.4528 7.5
      vertex 24.6393 -33.4498 7.5
    endloop
  endfacet
  facet normal 0 0 1
    outer loop
      vertex 7.56327 -11.4598 7.5
      vertex 0 -41.4528 7.5
      vertex 8.05815 -12.317 7.5
    endloop
  endfacet
  facet normal 0 0 -1
    outer loop
      vertex 36.068 0 0
      vertex 29.2126 -11.2782 0
      vertex 29.4157 -10.3226 0
    endloop
  endfacet
  facet normal 0 0 -1
    outer loop
      vertex 29.0055 -29.7861 0
      vertex 29.2126 -11.2782 0
      vertex 29.5004 -30.6432 0
    endloop
  endfacet
  facet normal 0 0 -1
    outer loop
      vertex 29.0055 -29.7861 0
      vertex 28.6384 -12.0686 0
      vertex 29.2126 -11.2782 0
    endloop
  endfacet
  facet normal 0 0 -1
    outer loop
      vertex 28.2473 -29.1499 0
      vertex 28.6384 -12.0686 0
      vertex 29.0055 -29.7861 0
    endloop
  endfacet
  facet normal 0 0 -1
    outer loop
      vertex 28.2473 -29.1499 0
      vertex 27.7923 -12.5571 0
      vertex 28.6384 -12.0686 0
    endloop
  endfacet
  facet normal 0 0 -1
    outer loop
      vertex 27.3173 -28.8113 0
      vertex 27.7923 -12.5571 0
      vertex 28.2473 -29.1499 0
    endloop
  endfacet
  facet normal 0 0 -1
    outer loop
      vertex 27.3173 -28.8113 0
      vertex 26.8207 -12.6592 0
      vertex 27.7923 -12.5571 0
    endloop
  endfacet
  facet normal 0 0 -1
    outer loop
      vertex 26.3275 -28.8113 0
      vertex 26.8207 -12.6592 0
      vertex 27.3173 -28.8113 0
    endloop
  endfacet
  facet normal 0 0 -1
    outer loop
      vertex 26.3275 -28.8113 0
      vertex 25.8915 -12.3573 0
      vertex 26.8207 -12.6592 0
    endloop
  endfacet
  facet normal 0 0 -1
    outer loop
      vertex 25.3975 -29.1499 0
      vertex 25.8915 -12.3573 0
      vertex 26.3275 -28.8113 0
    endloop
  endfacet
  facet normal 0 0 -1
    outer loop
      vertex 14.9403 -10.4851 0
      vertex 25.8915 -12.3573 0
      vertex 25.3975 -29.1499 0
    endloop
  endfacet
  facet normal 0 0 -1
    outer loop
      vertex 25.8915 -12.3573 0
      vertex 14.9403 -10.4851 0
      vertex 25.1655 -11.7036 0
    endloop
  endfacet
  facet normal 0 0 -1
    outer loop
      vertex 25.1655 -11.7036 0
      vertex 14.9403 -10.4851 0
      vertex 24.7681 -10.811 0
    endloop
  endfacet
  facet normal 0 0 -1
    outer loop
      vertex 14.9403 -10.4851 0
      vertex 25.3975 -29.1499 0
      vertex 24.6393 -29.7861 0
    endloop
  endfacet
  facet normal 0 0 -1
    outer loop
      vertex 29.5004 -30.6432 0
      vertex 36.068 -41.4528 0
      vertex 29.6723 -31.6179 0
    endloop
  endfacet
  facet normal 0 0 -1
    outer loop
      vertex 36.068 -41.4528 0
      vertex 29.5004 -32.5926 0
      vertex 29.6723 -31.6179 0
    endloop
  endfacet
  facet normal 0 0 -1
    outer loop
      vertex 36.068 -41.4528 0
      vertex 29.0055 -33.4498 0
      vertex 29.5004 -32.5926 0
    endloop
  endfacet
  facet normal 0 0 -1
    outer loop
      vertex 36.068 -41.4528 0
      vertex 28.2473 -34.086 0
      vertex 29.0055 -33.4498 0
    endloop
  endfacet
  facet normal 0 0 -1
    outer loop
      vertex 36.068 -41.4528 0
      vertex 27.3173 -34.4245 0
      vertex 28.2473 -34.086 0
    endloop
  endfacet
  facet normal 0 0 -1
    outer loop
      vertex 36.068 -41.4528 0
      vertex 26.3275 -34.4245 0
      vertex 27.3173 -34.4245 0
    endloop
  endfacet
  facet normal 0 0 -1
    outer loop
      vertex 36.068 -41.4528 0
      vertex 25.3975 -34.086 0
      vertex 26.3275 -34.4245 0
    endloop
  endfacet
  facet normal 0 0 -1
    outer loop
      vertex 0 -41.4528 0
      vertex 23.9725 -31.6179 0
      vertex 24.1444 -32.5926 0
    endloop
  endfacet
  facet normal 0 0 -1
    outer loop
      vertex 23.9725 -31.6179 0
      vertex 12.5908 -14.5546 0
      vertex 14.9403 -10.4851 0
    endloop
  endfacet
  facet normal 0 0 -1
    outer loop
      vertex 0 -41.4528 0
      vertex 24.1444 -32.5926 0
      vertex 24.6393 -33.4498 0
    endloop
  endfacet
  facet normal 0 0 -1
    outer loop
      vertex 23.9725 -31.6179 0
      vertex 7.89178 -14.5546 0
      vertex 12.5908 -14.5546 0
    endloop
  endfacet
  facet normal -0 0 -1
    outer loop
      vertex 7.89178 -14.5546 0
      vertex 0 -41.4528 0
      vertex 5.54228 -10.4851 0
    endloop
  endfacet
  facet normal -0 0 -1
    outer loop
      vertex 23.9725 -31.6179 0
      vertex 0 -41.4528 0
      vertex 7.89178 -14.5546 0
    endloop
  endfacet
  facet normal -0 0 -1
    outer loop
      vertex 25.3975 -34.086 0
      vertex 0 -41.4528 0
      vertex 24.6393 -33.4498 0
    endloop
  endfacet
  facet normal 0 0 -1
    outer loop
      vertex 0 -41.4528 0
      vertex 25.3975 -34.086 0
      vertex 36.068 -41.4528 0
    endloop
  endfacet
  facet normal 0 0 -1
    outer loop
      vertex 36.068 -41.4528 0
      vertex 29.5004 -30.6432 0
      vertex 36.068 0 0
    endloop
  endfacet
  facet normal 0 0 -1
    outer loop
      vertex 29.2126 -11.2782 0
      vertex 36.068 0 0
      vertex 29.5004 -30.6432 0
    endloop
  endfacet
  facet normal 0 0 -1
    outer loop
      vertex 29.2126 -9.36693 0
      vertex 36.068 0 0
      vertex 29.4157 -10.3226 0
    endloop
  endfacet
  facet normal 0 0 -1
    outer loop
      vertex 28.6384 -8.57654 0
      vertex 36.068 0 0
      vertex 29.2126 -9.36693 0
    endloop
  endfacet
  facet normal 0 0 -1
    outer loop
      vertex 27.7923 -8.08805 0
      vertex 36.068 0 0
      vertex 28.6384 -8.57654 0
    endloop
  endfacet
  facet normal 0 0 -1
    outer loop
      vertex 26.8207 -7.98593 0
      vertex 36.068 0 0
      vertex 27.7923 -8.08805 0
    endloop
  endfacet
  facet normal 0 0 -1
    outer loop
      vertex 25.8915 -8.28783 0
      vertex 36.068 0 0
      vertex 26.8207 -7.98593 0
    endloop
  endfacet
  facet normal 0 0 -1
    outer loop
      vertex 14.9403 -10.4851 0
      vertex 24.6393 -29.7861 0
      vertex 24.1444 -30.6432 0
    endloop
  endfacet
  facet normal 0 0 -1
    outer loop
      vertex 14.9403 -10.4851 0
      vertex 24.1444 -30.6432 0
      vertex 23.9725 -31.6179 0
    endloop
  endfacet
  facet normal 0 0 -1
    outer loop
      vertex 24.7681 -10.811 0
      vertex 14.9403 -10.4851 0
      vertex 24.7681 -9.83407 0
    endloop
  endfacet
  facet normal 0 0 -1
    outer loop
      vertex 14.9403 -10.4851 0
      vertex 25.1655 -8.94156 0
      vertex 24.7681 -9.83407 0
    endloop
  endfacet
  facet normal 0 0 -1
    outer loop
      vertex 12.5908 -6.41567 0
      vertex 25.1655 -8.94156 0
      vertex 14.9403 -10.4851 0
    endloop
  endfacet
  facet normal 0 0 -1
    outer loop
      vertex 25.1655 -8.94156 0
      vertex 12.5908 -6.41567 0
      vertex 25.8915 -8.28783 0
    endloop
  endfacet
  facet normal 0 0 -1
    outer loop
      vertex 25.8915 -8.28783 0
      vertex 12.5908 -6.41567 0
      vertex 36.068 0 0
    endloop
  endfacet
  facet normal 0 0 -1
    outer loop
      vertex 0 0 0
      vertex 12.5908 -6.41567 0
      vertex 7.89178 -6.41567 0
    endloop
  endfacet
  facet normal 0 0 -1
    outer loop
      vertex 12.5908 -6.41567 0
      vertex 0 0 0
      vertex 36.068 0 0
    endloop
  endfacet
  facet normal 0 0 -1
    outer loop
      vertex 5.54228 -10.4851 0
      vertex 0 0 0
      vertex 7.89178 -6.41567 0
    endloop
  endfacet
  facet normal 0 0 -1
    outer loop
      vertex 0 0 0
      vertex 5.54228 -10.4851 0
      vertex 0 -41.4528 0
    endloop
  endfacet
  facet normal -1 0 0
    outer loop
      vertex 0 -41.4528 0
      vertex 0 0 7.5
      vertex 0 0 0
    endloop
  endfacet
  facet normal -1 -0 0
    outer loop
      vertex 0 0 7.5
      vertex 0 -41.4528 0
      vertex 0 -41.4528 7.5
    endloop
  endfacet
  facet normal 0 -1 0
    outer loop
      vertex 0 -41.4528 0
      vertex 36.068 -41.4528 7.5
      vertex 0 -41.4528 7.5
    endloop
  endfacet
  facet normal 0 -1 -0
    outer loop
      vertex 36.068 -41.4528 7.5
      vertex 0 -41.4528 0
      vertex 36.068 -41.4528 0
    endloop
  endfacet
  facet normal 0 1 -0
    outer loop
      vertex 36.068 0 0
      vertex 0 0 7.5
      vertex 36.068 0 7.5
    endloop
  endfacet
  facet normal 0 1 0
    outer loop
      vertex 0 0 7.5
      vertex 36.068 0 0
      vertex 0 0 0
    endloop
  endfacet
  facet normal -0.866027 0.499996 0
    outer loop
      vertex 12.4244 -12.317 3.3
      vertex 12.9193 -11.4598 7.5
      vertex 12.9193 -11.4598 3.3
    endloop
  endfacet
  facet normal -0.866027 0.499996 0
    outer loop
      vertex 12.9193 -11.4598 7.5
      vertex 12.4244 -12.317 3.3
      vertex 12.4244 -12.317 7.5
    endloop
  endfacet
  facet normal -0.984802 0.173682 0
    outer loop
      vertex 12.9193 -11.4598 3.3
      vertex 13.0912 -10.4851 7.5
      vertex 13.0912 -10.4851 3.3
    endloop
  endfacet
  facet normal -0.984802 0.173682 0
    outer loop
      vertex 13.0912 -10.4851 7.5
      vertex 12.9193 -11.4598 3.3
      vertex 12.9193 -11.4598 7.5
    endloop
  endfacet
  facet normal -0.642784 0.766047 0
    outer loop
      vertex 12.4244 -12.317 3.3
      vertex 11.6662 -12.9532 7.5
      vertex 12.4244 -12.317 7.5
    endloop
  endfacet
  facet normal -0.642784 0.766047 0
    outer loop
      vertex 11.6662 -12.9532 7.5
      vertex 12.4244 -12.317 3.3
      vertex 11.6662 -12.9532 3.3
    endloop
  endfacet
  facet normal -0.642784 -0.766047 0
    outer loop
      vertex 11.6662 -8.01705 3.3
      vertex 12.4244 -8.65325 7.5
      vertex 11.6662 -8.01705 7.5
    endloop
  endfacet
  facet normal -0.642784 -0.766047 -0
    outer loop
      vertex 12.4244 -8.65325 7.5
      vertex 11.6662 -8.01705 3.3
      vertex 12.4244 -8.65325 3.3
    endloop
  endfacet
  facet normal -0.342036 -0.939687 0
    outer loop
      vertex 10.7362 -7.67854 3.3
      vertex 11.6662 -8.01705 7.5
      vertex 10.7362 -7.67854 7.5
    endloop
  endfacet
  facet normal -0.342036 -0.939687 -0
    outer loop
      vertex 11.6662 -8.01705 7.5
      vertex 10.7362 -7.67854 3.3
      vertex 11.6662 -8.01705 3.3
    endloop
  endfacet
  facet normal -0.342027 0.93969 0
    outer loop
      vertex 11.6662 -12.9532 3.3
      vertex 10.7362 -13.2917 7.5
      vertex 11.6662 -12.9532 7.5
    endloop
  endfacet
  facet normal -0.342027 0.93969 0
    outer loop
      vertex 10.7362 -13.2917 7.5
      vertex 11.6662 -12.9532 3.3
      vertex 10.7362 -13.2917 3.3
    endloop
  endfacet
  facet normal 0.642789 0.766043 -0
    outer loop
      vertex 8.81634 -12.9532 3.3
      vertex 8.05815 -12.317 7.5
      vertex 8.81634 -12.9532 7.5
    endloop
  endfacet
  facet normal 0.642789 0.766043 0
    outer loop
      vertex 8.05815 -12.317 7.5
      vertex 8.81634 -12.9532 3.3
      vertex 8.05815 -12.317 3.3
    endloop
  endfacet
  facet normal -0.984802 -0.173682 0
    outer loop
      vertex 13.0912 -10.4851 3.3
      vertex 12.9193 -9.5104 7.5
      vertex 12.9193 -9.5104 3.3
    endloop
  endfacet
  facet normal -0.984802 -0.173682 0
    outer loop
      vertex 12.9193 -9.5104 7.5
      vertex 13.0912 -10.4851 3.3
      vertex 13.0912 -10.4851 7.5
    endloop
  endfacet
  facet normal 0.342008 0.939697 -0
    outer loop
      vertex 9.7464 -13.2917 3.3
      vertex 8.81634 -12.9532 7.5
      vertex 9.7464 -13.2917 7.5
    endloop
  endfacet
  facet normal 0.342008 0.939697 0
    outer loop
      vertex 8.81634 -12.9532 7.5
      vertex 9.7464 -13.2917 3.3
      vertex 8.81634 -12.9532 3.3
    endloop
  endfacet
  facet normal 0.342016 -0.939694 0
    outer loop
      vertex 8.81634 -8.01705 3.3
      vertex 9.7464 -7.67854 7.5
      vertex 8.81634 -8.01705 7.5
    endloop
  endfacet
  facet normal 0.342016 -0.939694 0
    outer loop
      vertex 9.7464 -7.67854 7.5
      vertex 8.81634 -8.01705 3.3
      vertex 9.7464 -7.67854 3.3
    endloop
  endfacet
  facet normal 0.984807 -0.173652 0
    outer loop
      vertex 7.3914 -10.4851 7.5
      vertex 7.56327 -9.5104 3.3
      vertex 7.56327 -9.5104 7.5
    endloop
  endfacet
  facet normal 0.984807 -0.173652 0
    outer loop
      vertex 7.56327 -9.5104 3.3
      vertex 7.3914 -10.4851 7.5
      vertex 7.3914 -10.4851 3.3
    endloop
  endfacet
  facet normal -0.866015 -0.500018 0
    outer loop
      vertex 12.9193 -9.5104 3.3
      vertex 12.4244 -8.65325 7.5
      vertex 12.4244 -8.65325 3.3
    endloop
  endfacet
  facet normal -0.866015 -0.500018 0
    outer loop
      vertex 12.4244 -8.65325 7.5
      vertex 12.9193 -9.5104 3.3
      vertex 12.9193 -9.5104 7.5
    endloop
  endfacet
  facet normal 0 1 -0
    outer loop
      vertex 10.7362 -13.2917 3.3
      vertex 9.7464 -13.2917 7.5
      vertex 10.7362 -13.2917 7.5
    endloop
  endfacet
  facet normal 0 1 0
    outer loop
      vertex 9.7464 -13.2917 7.5
      vertex 10.7362 -13.2917 3.3
      vertex 9.7464 -13.2917 3.3
    endloop
  endfacet
  facet normal 0.984807 0.173652 0
    outer loop
      vertex 7.56327 -11.4598 7.5
      vertex 7.3914 -10.4851 3.3
      vertex 7.3914 -10.4851 7.5
    endloop
  endfacet
  facet normal 0.984807 0.173652 0
    outer loop
      vertex 7.3914 -10.4851 3.3
      vertex 7.56327 -11.4598 7.5
      vertex 7.56327 -11.4598 3.3
    endloop
  endfacet
  facet normal 0.642789 -0.766043 0
    outer loop
      vertex 8.05815 -8.65325 3.3
      vertex 8.81634 -8.01705 7.5
      vertex 8.05815 -8.65325 7.5
    endloop
  endfacet
  facet normal 0.642789 -0.766043 0
    outer loop
      vertex 8.81634 -8.01705 7.5
      vertex 8.05815 -8.65325 3.3
      vertex 8.81634 -8.01705 3.3
    endloop
  endfacet
  facet normal 0.866024 -0.500003 0
    outer loop
      vertex 7.56327 -9.5104 7.5
      vertex 8.05815 -8.65325 3.3
      vertex 8.05815 -8.65325 7.5
    endloop
  endfacet
  facet normal 0.866024 -0.500003 0
    outer loop
      vertex 8.05815 -8.65325 3.3
      vertex 7.56327 -9.5104 7.5
      vertex 7.56327 -9.5104 3.3
    endloop
  endfacet
  facet normal 0 -1 0
    outer loop
      vertex 9.7464 -7.67854 3.3
      vertex 10.7362 -7.67854 7.5
      vertex 9.7464 -7.67854 7.5
    endloop
  endfacet
  facet normal 0 -1 -0
    outer loop
      vertex 10.7362 -7.67854 7.5
      vertex 9.7464 -7.67854 3.3
      vertex 10.7362 -7.67854 3.3
    endloop
  endfacet
  facet normal 0.866036 0.499981 0
    outer loop
      vertex 8.05815 -12.317 7.5
      vertex 7.56327 -11.4598 3.3
      vertex 7.56327 -11.4598 7.5
    endloop
  endfacet
  facet normal 0.866036 0.499981 0
    outer loop
      vertex 7.56327 -11.4598 3.3
      vertex 8.05815 -12.317 7.5
      vertex 8.05815 -12.317 3.3
    endloop
  endfacet
  facet normal 0 -1 0
    outer loop
      vertex 7.89178 -6.41567 0
      vertex 12.5908 -6.41567 3.3
      vertex 7.89178 -6.41567 3.3
    endloop
  endfacet
  facet normal 0 -1 -0
    outer loop
      vertex 12.5908 -6.41567 3.3
      vertex 7.89178 -6.41567 0
      vertex 12.5908 -6.41567 0
    endloop
  endfacet
  facet normal -0.866024 -0.500002 0
    outer loop
      vertex 14.9403 -10.4851 0
      vertex 12.5908 -6.41567 3.3
      vertex 12.5908 -6.41567 0
    endloop
  endfacet
  facet normal -0.866024 -0.500002 0
    outer loop
      vertex 12.5908 -6.41567 3.3
      vertex 14.9403 -10.4851 0
      vertex 14.9403 -10.4851 3.3
    endloop
  endfacet
  facet normal 0 1 -0
    outer loop
      vertex 12.5908 -14.5546 0
      vertex 7.89178 -14.5546 3.3
      vertex 12.5908 -14.5546 3.3
    endloop
  endfacet
  facet normal 0 1 0
    outer loop
      vertex 7.89178 -14.5546 3.3
      vertex 12.5908 -14.5546 0
      vertex 7.89178 -14.5546 0
    endloop
  endfacet
  facet normal -0.866028 0.499996 0
    outer loop
      vertex 12.5908 -14.5546 0
      vertex 14.9403 -10.4851 3.3
      vertex 14.9403 -10.4851 0
    endloop
  endfacet
  facet normal -0.866028 0.499996 0
    outer loop
      vertex 14.9403 -10.4851 3.3
      vertex 12.5908 -14.5546 0
      vertex 12.5908 -14.5546 3.3
    endloop
  endfacet
  facet normal 0.866028 0.499996 0
    outer loop
      vertex 7.89178 -14.5546 3.3
      vertex 5.54228 -10.4851 0
      vertex 5.54228 -10.4851 3.3
    endloop
  endfacet
  facet normal 0.866028 0.499996 0
    outer loop
      vertex 5.54228 -10.4851 0
      vertex 7.89178 -14.5546 3.3
      vertex 7.89178 -14.5546 0
    endloop
  endfacet
  facet normal 0.866024 -0.500002 0
    outer loop
      vertex 5.54228 -10.4851 3.3
      vertex 7.89178 -6.41567 0
      vertex 7.89178 -6.41567 3.3
    endloop
  endfacet
  facet normal 0.866024 -0.500002 0
    outer loop
      vertex 7.89178 -6.41567 0
      vertex 5.54228 -10.4851 3.3
      vertex 5.54228 -10.4851 0
    endloop
  endfacet
  facet normal -0 0 -1
    outer loop
      vertex 14.9403 -10.4851 3.3
      vertex 12.9193 -11.4598 3.3
      vertex 13.0912 -10.4851 3.3
    endloop
  endfacet
  facet normal 0 0 -1
    outer loop
      vertex 12.5908 -14.5546 3.3
      vertex 12.9193 -11.4598 3.3
      vertex 14.9403 -10.4851 3.3
    endloop
  endfacet
  facet normal 0 0 -1
    outer loop
      vertex 12.5908 -14.5546 3.3
      vertex 12.4244 -12.317 3.3
      vertex 12.9193 -11.4598 3.3
    endloop
  endfacet
  facet normal 0 0 -1
    outer loop
      vertex 12.5908 -14.5546 3.3
      vertex 11.6662 -12.9532 3.3
      vertex 12.4244 -12.317 3.3
    endloop
  endfacet
  facet normal 0 0 -1
    outer loop
      vertex 12.5908 -14.5546 3.3
      vertex 10.7362 -13.2917 3.3
      vertex 11.6662 -12.9532 3.3
    endloop
  endfacet
  facet normal 0 0 -1
    outer loop
      vertex 12.5908 -14.5546 3.3
      vertex 9.7464 -13.2917 3.3
      vertex 10.7362 -13.2917 3.3
    endloop
  endfacet
  facet normal 0 0 -1
    outer loop
      vertex 7.89178 -14.5546 3.3
      vertex 9.7464 -13.2917 3.3
      vertex 12.5908 -14.5546 3.3
    endloop
  endfacet
  facet normal -0 0 -1
    outer loop
      vertex 9.7464 -13.2917 3.3
      vertex 7.89178 -14.5546 3.3
      vertex 8.81634 -12.9532 3.3
    endloop
  endfacet
  facet normal 0 0 -1
    outer loop
      vertex 7.89178 -14.5546 3.3
      vertex 8.05815 -12.317 3.3
      vertex 8.81634 -12.9532 3.3
    endloop
  endfacet
  facet normal 0 0 -1
    outer loop
      vertex 7.89178 -14.5546 3.3
      vertex 7.56327 -11.4598 3.3
      vertex 8.05815 -12.317 3.3
    endloop
  endfacet
  facet normal 0 0 -1
    outer loop
      vertex 5.54228 -10.4851 3.3
      vertex 7.56327 -11.4598 3.3
      vertex 7.89178 -14.5546 3.3
    endloop
  endfacet
  facet normal 0 0 -1
    outer loop
      vertex 7.56327 -11.4598 3.3
      vertex 5.54228 -10.4851 3.3
      vertex 7.3914 -10.4851 3.3
    endloop
  endfacet
  facet normal 0 0 -1
    outer loop
      vertex 12.9193 -9.5104 3.3
      vertex 14.9403 -10.4851 3.3
      vertex 13.0912 -10.4851 3.3
    endloop
  endfacet
  facet normal 0 0 -1
    outer loop
      vertex 12.9193 -9.5104 3.3
      vertex 12.5908 -6.41567 3.3
      vertex 14.9403 -10.4851 3.3
    endloop
  endfacet
  facet normal 0 0 -1
    outer loop
      vertex 12.4244 -8.65325 3.3
      vertex 12.5908 -6.41567 3.3
      vertex 12.9193 -9.5104 3.3
    endloop
  endfacet
  facet normal 0 0 -1
    outer loop
      vertex 11.6662 -8.01705 3.3
      vertex 12.5908 -6.41567 3.3
      vertex 12.4244 -8.65325 3.3
    endloop
  endfacet
  facet normal 0 0 -1
    outer loop
      vertex 10.7362 -7.67854 3.3
      vertex 12.5908 -6.41567 3.3
      vertex 11.6662 -8.01705 3.3
    endloop
  endfacet
  facet normal 0 0 -1
    outer loop
      vertex 9.7464 -7.67854 3.3
      vertex 12.5908 -6.41567 3.3
      vertex 10.7362 -7.67854 3.3
    endloop
  endfacet
  facet normal 0 0 -1
    outer loop
      vertex 7.89178 -6.41567 3.3
      vertex 9.7464 -7.67854 3.3
      vertex 8.81634 -8.01705 3.3
    endloop
  endfacet
  facet normal 0 0 -1
    outer loop
      vertex 9.7464 -7.67854 3.3
      vertex 7.89178 -6.41567 3.3
      vertex 12.5908 -6.41567 3.3
    endloop
  endfacet
  facet normal 0 0 -1
    outer loop
      vertex 8.05815 -8.65325 3.3
      vertex 7.89178 -6.41567 3.3
      vertex 8.81634 -8.01705 3.3
    endloop
  endfacet
  facet normal 0 0 -1
    outer loop
      vertex 7.56327 -9.5104 3.3
      vertex 7.89178 -6.41567 3.3
      vertex 8.05815 -8.65325 3.3
    endloop
  endfacet
  facet normal 0 0 -1
    outer loop
      vertex 5.54228 -10.4851 3.3
      vertex 7.56327 -9.5104 3.3
      vertex 7.3914 -10.4851 3.3
    endloop
  endfacet
  facet normal -0 0 -1
    outer loop
      vertex 7.56327 -9.5104 3.3
      vertex 5.54228 -10.4851 3.3
      vertex 7.89178 -6.41567 3.3
    endloop
  endfacet
  facet normal -0.809046 0.587746 0
    outer loop
      vertex 28.6384 -12.0686 0
      vertex 29.2126 -11.2782 5.5
      vertex 29.2126 -11.2782 0
    endloop
  endfacet
  facet normal -0.809046 0.587746 0
    outer loop
      vertex 29.2126 -11.2782 5.5
      vertex 28.6384 -12.0686 0
      vertex 28.6384 -12.0686 5.5
    endloop
  endfacet
  facet normal -0.978152 0.207893 0
    outer loop
      vertex 29.2126 -11.2782 0
      vertex 29.4157 -10.3226 5.5
      vertex 29.4157 -10.3226 0
    endloop
  endfacet
  facet normal -0.978152 0.207893 0
    outer loop
      vertex 29.4157 -10.3226 5.5
      vertex 29.2126 -11.2782 0
      vertex 29.2126 -11.2782 5.5
    endloop
  endfacet
  facet normal 0.913534 -0.406761 0
    outer loop
      vertex 24.7681 -9.83407 5.5
      vertex 25.1655 -8.94156 0
      vertex 25.1655 -8.94156 5.5
    endloop
  endfacet
  facet normal 0.913534 -0.406761 0
    outer loop
      vertex 25.1655 -8.94156 0
      vertex 24.7681 -9.83407 5.5
      vertex 24.7681 -9.83407 0
    endloop
  endfacet
  facet normal -0.499995 -0.866028 0
    outer loop
      vertex 27.7923 -8.08805 0
      vertex 28.6384 -8.57654 5.5
      vertex 27.7923 -8.08805 5.5
    endloop
  endfacet
  facet normal -0.499995 -0.866028 -0
    outer loop
      vertex 28.6384 -8.57654 5.5
      vertex 27.7923 -8.08805 0
      vertex 28.6384 -8.57654 0
    endloop
  endfacet
  facet normal 0.309003 0.951061 -0
    outer loop
      vertex 26.8207 -12.6592 0
      vertex 25.8915 -12.3573 5.5
      vertex 26.8207 -12.6592 5.5
    endloop
  endfacet
  facet normal 0.309003 0.951061 0
    outer loop
      vertex 25.8915 -12.3573 5.5
      vertex 26.8207 -12.6592 0
      vertex 25.8915 -12.3573 0
    endloop
  endfacet
  facet normal 1 -0 0
    outer loop
      vertex 24.7681 -10.811 5.5
      vertex 24.7681 -9.83407 0
      vertex 24.7681 -9.83407 5.5
    endloop
  endfacet
  facet normal 1 0 0
    outer loop
      vertex 24.7681 -9.83407 0
      vertex 24.7681 -10.811 5.5
      vertex 24.7681 -10.811 0
    endloop
  endfacet
  facet normal -0.500003 0.866024 0
    outer loop
      vertex 28.6384 -12.0686 0
      vertex 27.7923 -12.5571 5.5
      vertex 28.6384 -12.0686 5.5
    endloop
  endfacet
  facet normal -0.500003 0.866024 0
    outer loop
      vertex 27.7923 -12.5571 5.5
      vertex 28.6384 -12.0686 0
      vertex 27.7923 -12.5571 0
    endloop
  endfacet
  facet normal 0.91355 0.406727 0
    outer loop
      vertex 25.1655 -11.7036 5.5
      vertex 24.7681 -10.811 0
      vertex 24.7681 -10.811 5.5
    endloop
  endfacet
  facet normal 0.91355 0.406727 0
    outer loop
      vertex 24.7681 -10.811 0
      vertex 25.1655 -11.7036 5.5
      vertex 25.1655 -11.7036 0
    endloop
  endfacet
  facet normal -0.978155 -0.207878 0
    outer loop
      vertex 29.4157 -10.3226 0
      vertex 29.2126 -9.36693 5.5
      vertex 29.2126 -9.36693 0
    endloop
  endfacet
  facet normal -0.978155 -0.207878 0
    outer loop
      vertex 29.2126 -9.36693 5.5
      vertex 29.4157 -10.3226 0
      vertex 29.4157 -10.3226 5.5
    endloop
  endfacet
  facet normal -0.809042 -0.58775 0
    outer loop
      vertex 29.2126 -9.36693 0
      vertex 28.6384 -8.57654 5.5
      vertex 28.6384 -8.57654 0
    endloop
  endfacet
  facet normal -0.809042 -0.58775 0
    outer loop
      vertex 28.6384 -8.57654 5.5
      vertex 29.2126 -9.36693 0
      vertex 29.2126 -9.36693 5.5
    endloop
  endfacet
  facet normal -0.104509 0.994524 0
    outer loop
      vertex 27.7923 -12.5571 0
      vertex 26.8207 -12.6592 5.5
      vertex 27.7923 -12.5571 5.5
    endloop
  endfacet
  facet normal -0.104509 0.994524 0
    outer loop
      vertex 26.8207 -12.6592 5.5
      vertex 27.7923 -12.5571 0
      vertex 26.8207 -12.6592 0
    endloop
  endfacet
  facet normal 0.669134 0.743141 -0
    outer loop
      vertex 25.8915 -12.3573 0
      vertex 25.1655 -11.7036 5.5
      vertex 25.8915 -12.3573 5.5
    endloop
  endfacet
  facet normal 0.669134 0.743141 0
    outer loop
      vertex 25.1655 -11.7036 5.5
      vertex 25.8915 -12.3573 0
      vertex 25.1655 -11.7036 0
    endloop
  endfacet
  facet normal 0.669151 -0.743126 0
    outer loop
      vertex 25.1655 -8.94156 0
      vertex 25.8915 -8.28783 5.5
      vertex 25.1655 -8.94156 5.5
    endloop
  endfacet
  facet normal 0.669151 -0.743126 0
    outer loop
      vertex 25.8915 -8.28783 5.5
      vertex 25.1655 -8.94156 0
      vertex 25.8915 -8.28783 0
    endloop
  endfacet
  facet normal -0.104529 -0.994522 0
    outer loop
      vertex 26.8207 -7.98593 0
      vertex 27.7923 -8.08805 5.5
      vertex 26.8207 -7.98593 5.5
    endloop
  endfacet
  facet normal -0.104529 -0.994522 -0
    outer loop
      vertex 27.7923 -8.08805 5.5
      vertex 26.8207 -7.98593 0
      vertex 27.7923 -8.08805 0
    endloop
  endfacet
  facet normal 0.309003 -0.951061 0
    outer loop
      vertex 25.8915 -8.28783 0
      vertex 26.8207 -7.98593 5.5
      vertex 25.8915 -8.28783 5.5
    endloop
  endfacet
  facet normal 0.309003 -0.951061 0
    outer loop
      vertex 26.8207 -7.98593 5.5
      vertex 25.8915 -8.28783 0
      vertex 26.8207 -7.98593 0
    endloop
  endfacet
  facet normal -0.743161 -0.669113 0
    outer loop
      vertex 30.8678 -7.56056 5.5
      vertex 30.2105 -6.83052 7.5
      vertex 30.2105 -6.83052 5.5
    endloop
  endfacet
  facet normal -0.743161 -0.669113 0
    outer loop
      vertex 30.2105 -6.83052 7.5
      vertex 30.8678 -7.56056 5.5
      vertex 30.8678 -7.56056 7.5
    endloop
  endfacet
  facet normal 0.994521 -0.10454 0
    outer loop
      vertex 22.3672 -10.3226 7.5
      vertex 22.4699 -9.34558 5.5
      vertex 22.4699 -9.34558 7.5
    endloop
  endfacet
  facet normal 0.994521 -0.10454 0
    outer loop
      vertex 22.4699 -9.34558 5.5
      vertex 22.3672 -10.3226 7.5
      vertex 22.3672 -10.3226 5.5
    endloop
  endfacet
  facet normal 0.951048 0.309042 0
    outer loop
      vertex 22.7735 -12.2338 7.5
      vertex 22.4699 -11.2995 5.5
      vertex 22.4699 -11.2995 7.5
    endloop
  endfacet
  facet normal 0.951048 0.309042 0
    outer loop
      vertex 22.4699 -11.2995 5.5
      vertex 22.7735 -12.2338 7.5
      vertex 22.7735 -12.2338 5.5
    endloop
  endfacet
  facet normal -0.951048 0.309042 0
    outer loop
      vertex 31.359 -12.2338 5.5
      vertex 31.6626 -11.2995 7.5
      vertex 31.6626 -11.2995 5.5
    endloop
  endfacet
  facet normal -0.951048 0.309042 0
    outer loop
      vertex 31.6626 -11.2995 7.5
      vertex 31.359 -12.2338 5.5
      vertex 31.359 -12.2338 7.5
    endloop
  endfacet
  facet normal -0.406747 -0.913541 0
    outer loop
      vertex 28.5183 -5.85355 5.5
      vertex 29.4157 -6.25311 7.5
      vertex 28.5183 -5.85355 7.5
    endloop
  endfacet
  facet normal -0.406747 -0.913541 -0
    outer loop
      vertex 29.4157 -6.25311 7.5
      vertex 28.5183 -5.85355 5.5
      vertex 29.4157 -6.25311 5.5
    endloop
  endfacet
  facet normal 0 1 -0
    outer loop
      vertex 27.5574 -14.9958 5.5
      vertex 26.5751 -14.9958 7.5
      vertex 27.5574 -14.9958 7.5
    endloop
  endfacet
  facet normal 0 1 0
    outer loop
      vertex 26.5751 -14.9958 7.5
      vertex 27.5574 -14.9958 5.5
      vertex 26.5751 -14.9958 5.5
    endloop
  endfacet
  facet normal -0.994531 -0.104439 0
    outer loop
      vertex 31.7652 -10.3226 5.5
      vertex 31.6626 -9.34558 7.5
      vertex 31.6626 -9.34558 5.5
    endloop
  endfacet
  facet normal -0.994531 -0.104439 0
    outer loop
      vertex 31.6626 -9.34558 7.5
      vertex 31.7652 -10.3226 5.5
      vertex 31.7652 -10.3226 7.5
    endloop
  endfacet
  facet normal -0.866014 -0.500019 0
    outer loop
      vertex 31.359 -8.4113 5.5
      vertex 30.8678 -7.56056 7.5
      vertex 30.8678 -7.56056 5.5
    endloop
  endfacet
  facet normal -0.866014 -0.500019 0
    outer loop
      vertex 30.8678 -7.56056 7.5
      vertex 31.359 -8.4113 5.5
      vertex 31.359 -8.4113 7.5
    endloop
  endfacet
  facet normal -0.207916 -0.978147 0
    outer loop
      vertex 27.5574 -5.6493 5.5
      vertex 28.5183 -5.85355 7.5
      vertex 27.5574 -5.6493 7.5
    endloop
  endfacet
  facet normal -0.207916 -0.978147 -0
    outer loop
      vertex 28.5183 -5.85355 7.5
      vertex 27.5574 -5.6493 5.5
      vertex 28.5183 -5.85355 5.5
    endloop
  endfacet
  facet normal -0.99453 0.104452 0
    outer loop
      vertex 31.6626 -11.2995 5.5
      vertex 31.7652 -10.3226 7.5
      vertex 31.7652 -10.3226 5.5
    endloop
  endfacet
  facet normal -0.99453 0.104452 0
    outer loop
      vertex 31.7652 -10.3226 7.5
      vertex 31.6626 -11.2995 5.5
      vertex 31.6626 -11.2995 7.5
    endloop
  endfacet
  facet normal 0.86603 0.499993 0
    outer loop
      vertex 23.2647 -13.0846 7.5
      vertex 22.7735 -12.2338 5.5
      vertex 22.7735 -12.2338 7.5
    endloop
  endfacet
  facet normal 0.86603 0.499993 0
    outer loop
      vertex 22.7735 -12.2338 5.5
      vertex 23.2647 -13.0846 7.5
      vertex 23.2647 -13.0846 5.5
    endloop
  endfacet
  facet normal -0.86603 0.499993 0
    outer loop
      vertex 30.8678 -13.0846 5.5
      vertex 31.359 -12.2338 7.5
      vertex 31.359 -12.2338 5.5
    endloop
  endfacet
  facet normal -0.86603 0.499993 0
    outer loop
      vertex 31.359 -12.2338 7.5
      vertex 30.8678 -13.0846 5.5
      vertex 30.8678 -13.0846 7.5
    endloop
  endfacet
  facet normal 0.951046 -0.309048 0
    outer loop
      vertex 22.4699 -9.34558 7.5
      vertex 22.7735 -8.4113 5.5
      vertex 22.7735 -8.4113 7.5
    endloop
  endfacet
  facet normal 0.951046 -0.309048 0
    outer loop
      vertex 22.7735 -8.4113 5.5
      vertex 22.4699 -9.34558 7.5
      vertex 22.4699 -9.34558 5.5
    endloop
  endfacet
  facet normal 0.406709 -0.913558 0
    outer loop
      vertex 24.7167 -6.25311 5.5
      vertex 25.6142 -5.85355 7.5
      vertex 24.7167 -6.25311 7.5
    endloop
  endfacet
  facet normal 0.406709 -0.913558 0
    outer loop
      vertex 25.6142 -5.85355 7.5
      vertex 24.7167 -6.25311 5.5
      vertex 25.6142 -5.85355 5.5
    endloop
  endfacet
  facet normal -0.406781 0.913526 0
    outer loop
      vertex 29.4157 -14.392 5.5
      vertex 28.5183 -14.7916 7.5
      vertex 29.4157 -14.392 7.5
    endloop
  endfacet
  facet normal -0.406781 0.913526 0
    outer loop
      vertex 28.5183 -14.7916 7.5
      vertex 29.4157 -14.392 5.5
      vertex 28.5183 -14.7916 5.5
    endloop
  endfacet
  facet normal 0.207916 -0.978147 0
    outer loop
      vertex 25.6142 -5.85355 5.5
      vertex 26.5751 -5.6493 7.5
      vertex 25.6142 -5.85355 7.5
    endloop
  endfacet
  facet normal 0.207916 -0.978147 0
    outer loop
      vertex 26.5751 -5.6493 7.5
      vertex 25.6142 -5.85355 5.5
      vertex 26.5751 -5.6493 5.5
    endloop
  endfacet
  facet normal 0.406743 0.913543 -0
    outer loop
      vertex 25.6142 -14.7916 5.5
      vertex 24.7167 -14.392 7.5
      vertex 25.6142 -14.7916 7.5
    endloop
  endfacet
  facet normal 0.406743 0.913543 0
    outer loop
      vertex 24.7167 -14.392 7.5
      vertex 25.6142 -14.7916 5.5
      vertex 24.7167 -14.392 5.5
    endloop
  endfacet
  facet normal 0.207867 0.978157 -0
    outer loop
      vertex 26.5751 -14.9958 5.5
      vertex 25.6142 -14.7916 7.5
      vertex 26.5751 -14.9958 7.5
    endloop
  endfacet
  facet normal 0.207867 0.978157 0
    outer loop
      vertex 25.6142 -14.7916 7.5
      vertex 26.5751 -14.9958 5.5
      vertex 25.6142 -14.7916 5.5
    endloop
  endfacet
  facet normal -0.587748 0.809044 0
    outer loop
      vertex 30.2105 -13.8146 5.5
      vertex 29.4157 -14.392 7.5
      vertex 30.2105 -13.8146 7.5
    endloop
  endfacet
  facet normal -0.587748 0.809044 0
    outer loop
      vertex 29.4157 -14.392 7.5
      vertex 30.2105 -13.8146 5.5
      vertex 29.4157 -14.392 5.5
    endloop
  endfacet
  facet normal 0.743142 0.669133 0
    outer loop
      vertex 23.922 -13.8146 7.5
      vertex 23.2647 -13.0846 5.5
      vertex 23.2647 -13.0846 7.5
    endloop
  endfacet
  facet normal 0.743142 0.669133 0
    outer loop
      vertex 23.2647 -13.0846 5.5
      vertex 23.922 -13.8146 7.5
      vertex 23.922 -13.8146 5.5
    endloop
  endfacet
  facet normal 0.587796 0.809009 -0
    outer loop
      vertex 24.7167 -14.392 5.5
      vertex 23.922 -13.8146 7.5
      vertex 24.7167 -14.392 7.5
    endloop
  endfacet
  facet normal 0.587796 0.809009 0
    outer loop
      vertex 23.922 -13.8146 7.5
      vertex 24.7167 -14.392 5.5
      vertex 23.922 -13.8146 5.5
    endloop
  endfacet
  facet normal -0.743142 0.669133 0
    outer loop
      vertex 30.2105 -13.8146 5.5
      vertex 30.8678 -13.0846 7.5
      vertex 30.8678 -13.0846 5.5
    endloop
  endfacet
  facet normal -0.743142 0.669133 0
    outer loop
      vertex 30.8678 -13.0846 7.5
      vertex 30.2105 -13.8146 5.5
      vertex 30.2105 -13.8146 7.5
    endloop
  endfacet
  facet normal -0.951046 -0.309048 0
    outer loop
      vertex 31.6626 -9.34558 5.5
      vertex 31.359 -8.4113 7.5
      vertex 31.359 -8.4113 5.5
    endloop
  endfacet
  facet normal -0.951046 -0.309048 0
    outer loop
      vertex 31.359 -8.4113 7.5
      vertex 31.6626 -9.34558 5.5
      vertex 31.6626 -9.34558 7.5
    endloop
  endfacet
  facet normal 0 -1 0
    outer loop
      vertex 26.5751 -5.6493 5.5
      vertex 27.5574 -5.6493 7.5
      vertex 26.5751 -5.6493 7.5
    endloop
  endfacet
  facet normal 0 -1 -0
    outer loop
      vertex 27.5574 -5.6493 7.5
      vertex 26.5751 -5.6493 5.5
      vertex 27.5574 -5.6493 5.5
    endloop
  endfacet
  facet normal -0.587755 -0.809039 0
    outer loop
      vertex 29.4157 -6.25311 5.5
      vertex 30.2105 -6.83052 7.5
      vertex 29.4157 -6.25311 7.5
    endloop
  endfacet
  facet normal -0.587755 -0.809039 -0
    outer loop
      vertex 30.2105 -6.83052 7.5
      vertex 29.4157 -6.25311 5.5
      vertex 30.2105 -6.83052 5.5
    endloop
  endfacet
  facet normal 0.743161 -0.669113 0
    outer loop
      vertex 23.2647 -7.56056 7.5
      vertex 23.922 -6.83052 5.5
      vertex 23.922 -6.83052 7.5
    endloop
  endfacet
  facet normal 0.743161 -0.669113 0
    outer loop
      vertex 23.922 -6.83052 5.5
      vertex 23.2647 -7.56056 7.5
      vertex 23.2647 -7.56056 5.5
    endloop
  endfacet
  facet normal 0.587803 -0.809004 0
    outer loop
      vertex 23.922 -6.83052 5.5
      vertex 24.7167 -6.25311 7.5
      vertex 23.922 -6.83052 7.5
    endloop
  endfacet
  facet normal 0.587803 -0.809004 0
    outer loop
      vertex 24.7167 -6.25311 7.5
      vertex 23.922 -6.83052 5.5
      vertex 24.7167 -6.25311 5.5
    endloop
  endfacet
  facet normal 0.866014 -0.500019 0
    outer loop
      vertex 22.7735 -8.4113 7.5
      vertex 23.2647 -7.56056 5.5
      vertex 23.2647 -7.56056 7.5
    endloop
  endfacet
  facet normal 0.866014 -0.500019 0
    outer loop
      vertex 23.2647 -7.56056 5.5
      vertex 22.7735 -8.4113 7.5
      vertex 22.7735 -8.4113 5.5
    endloop
  endfacet
  facet normal -0.207867 0.978157 0
    outer loop
      vertex 28.5183 -14.7916 5.5
      vertex 27.5574 -14.9958 7.5
      vertex 28.5183 -14.7916 7.5
    endloop
  endfacet
  facet normal -0.207867 0.978157 0
    outer loop
      vertex 27.5574 -14.9958 7.5
      vertex 28.5183 -14.7916 5.5
      vertex 27.5574 -14.9958 5.5
    endloop
  endfacet
  facet normal 0.994519 0.104552 0
    outer loop
      vertex 22.4699 -11.2995 7.5
      vertex 22.3672 -10.3226 5.5
      vertex 22.3672 -10.3226 7.5
    endloop
  endfacet
  facet normal 0.994519 0.104552 0
    outer loop
      vertex 22.3672 -10.3226 5.5
      vertex 22.4699 -11.2995 7.5
      vertex 22.4699 -11.2995 5.5
    endloop
  endfacet
  facet normal 0 0 1
    outer loop
      vertex 31.6626 -9.34558 5.5
      vertex 29.2126 -9.36693 5.5
      vertex 29.4157 -10.3226 5.5
    endloop
  endfacet
  facet normal 0 0 1
    outer loop
      vertex 30.2105 -6.83052 5.5
      vertex 28.6384 -8.57654 5.5
      vertex 29.2126 -9.36693 5.5
    endloop
  endfacet
  facet normal 0 0 1
    outer loop
      vertex 27.7923 -8.08805 5.5
      vertex 29.4157 -6.25311 5.5
      vertex 28.5183 -5.85355 5.5
    endloop
  endfacet
  facet normal 0 0 1
    outer loop
      vertex 29.4157 -6.25311 5.5
      vertex 27.7923 -8.08805 5.5
      vertex 28.6384 -8.57654 5.5
    endloop
  endfacet
  facet normal 0 0 1
    outer loop
      vertex 27.5574 -5.6493 5.5
      vertex 27.7923 -8.08805 5.5
      vertex 28.5183 -5.85355 5.5
    endloop
  endfacet
  facet normal 0 0 1
    outer loop
      vertex 27.5574 -5.6493 5.5
      vertex 26.8207 -7.98593 5.5
      vertex 27.7923 -8.08805 5.5
    endloop
  endfacet
  facet normal -0 0 1
    outer loop
      vertex 26.5751 -5.6493 5.5
      vertex 26.8207 -7.98593 5.5
      vertex 27.5574 -5.6493 5.5
    endloop
  endfacet
  facet normal -0 0 1
    outer loop
      vertex 25.6142 -5.85355 5.5
      vertex 26.8207 -7.98593 5.5
      vertex 26.5751 -5.6493 5.5
    endloop
  endfacet
  facet normal 0 0 1
    outer loop
      vertex 26.8207 -7.98593 5.5
      vertex 25.6142 -5.85355 5.5
      vertex 25.8915 -8.28783 5.5
    endloop
  endfacet
  facet normal -0 0 1
    outer loop
      vertex 24.7167 -6.25311 5.5
      vertex 25.8915 -8.28783 5.5
      vertex 25.6142 -5.85355 5.5
    endloop
  endfacet
  facet normal -0 0 1
    outer loop
      vertex 23.922 -6.83052 5.5
      vertex 25.8915 -8.28783 5.5
      vertex 24.7167 -6.25311 5.5
    endloop
  endfacet
  facet normal -0 0 1
    outer loop
      vertex 23.2647 -7.56056 5.5
      vertex 25.1655 -8.94156 5.5
      vertex 23.922 -6.83052 5.5
    endloop
  endfacet
  facet normal 0 0 1
    outer loop
      vertex 25.8915 -8.28783 5.5
      vertex 23.922 -6.83052 5.5
      vertex 25.1655 -8.94156 5.5
    endloop
  endfacet
  facet normal 0 0 1
    outer loop
      vertex 29.4157 -10.3226 5.5
      vertex 31.7652 -10.3226 5.5
      vertex 31.6626 -9.34558 5.5
    endloop
  endfacet
  facet normal 0 0 1
    outer loop
      vertex 29.2126 -9.36693 5.5
      vertex 31.6626 -9.34558 5.5
      vertex 31.359 -8.4113 5.5
    endloop
  endfacet
  facet normal 0 0 1
    outer loop
      vertex 31.7652 -10.3226 5.5
      vertex 29.4157 -10.3226 5.5
      vertex 31.6626 -11.2995 5.5
    endloop
  endfacet
  facet normal 0 0 1
    outer loop
      vertex 29.2126 -9.36693 5.5
      vertex 31.359 -8.4113 5.5
      vertex 30.8678 -7.56056 5.5
    endloop
  endfacet
  facet normal -0 0 1
    outer loop
      vertex 29.2126 -11.2782 5.5
      vertex 31.6626 -11.2995 5.5
      vertex 29.4157 -10.3226 5.5
    endloop
  endfacet
  facet normal 0 0 1
    outer loop
      vertex 29.2126 -9.36693 5.5
      vertex 30.8678 -7.56056 5.5
      vertex 30.2105 -6.83052 5.5
    endloop
  endfacet
  facet normal 0 0 1
    outer loop
      vertex 31.6626 -11.2995 5.5
      vertex 29.2126 -11.2782 5.5
      vertex 31.359 -12.2338 5.5
    endloop
  endfacet
  facet normal 0 0 1
    outer loop
      vertex 28.6384 -8.57654 5.5
      vertex 30.2105 -6.83052 5.5
      vertex 29.4157 -6.25311 5.5
    endloop
  endfacet
  facet normal 0 0 1
    outer loop
      vertex 31.359 -12.2338 5.5
      vertex 29.2126 -11.2782 5.5
      vertex 30.8678 -13.0846 5.5
    endloop
  endfacet
  facet normal -0 0 1
    outer loop
      vertex 28.6384 -12.0686 5.5
      vertex 30.8678 -13.0846 5.5
      vertex 29.2126 -11.2782 5.5
    endloop
  endfacet
  facet normal 0 0 1
    outer loop
      vertex 30.8678 -13.0846 5.5
      vertex 28.6384 -12.0686 5.5
      vertex 30.2105 -13.8146 5.5
    endloop
  endfacet
  facet normal 0 0 1
    outer loop
      vertex 30.2105 -13.8146 5.5
      vertex 28.6384 -12.0686 5.5
      vertex 29.4157 -14.392 5.5
    endloop
  endfacet
  facet normal -0 0 1
    outer loop
      vertex 27.7923 -12.5571 5.5
      vertex 29.4157 -14.392 5.5
      vertex 28.6384 -12.0686 5.5
    endloop
  endfacet
  facet normal 0 0 1
    outer loop
      vertex 29.4157 -14.392 5.5
      vertex 27.7923 -12.5571 5.5
      vertex 28.5183 -14.7916 5.5
    endloop
  endfacet
  facet normal 0 0 1
    outer loop
      vertex 27.7923 -12.5571 5.5
      vertex 27.5574 -14.9958 5.5
      vertex 28.5183 -14.7916 5.5
    endloop
  endfacet
  facet normal -0 0 1
    outer loop
      vertex 26.8207 -12.6592 5.5
      vertex 27.5574 -14.9958 5.5
      vertex 27.7923 -12.5571 5.5
    endloop
  endfacet
  facet normal 0 0 1
    outer loop
      vertex 26.8207 -12.6592 5.5
      vertex 26.5751 -14.9958 5.5
      vertex 27.5574 -14.9958 5.5
    endloop
  endfacet
  facet normal 0 0 1
    outer loop
      vertex 25.6142 -14.7916 5.5
      vertex 26.8207 -12.6592 5.5
      vertex 25.8915 -12.3573 5.5
    endloop
  endfacet
  facet normal 0 0 1
    outer loop
      vertex 26.8207 -12.6592 5.5
      vertex 25.6142 -14.7916 5.5
      vertex 26.5751 -14.9958 5.5
    endloop
  endfacet
  facet normal 0 0 1
    outer loop
      vertex 23.922 -13.8146 5.5
      vertex 25.8915 -12.3573 5.5
      vertex 25.1655 -11.7036 5.5
    endloop
  endfacet
  facet normal 0 0 1
    outer loop
      vertex 22.7735 -12.2338 5.5
      vertex 25.1655 -11.7036 5.5
      vertex 24.7681 -10.811 5.5
    endloop
  endfacet
  facet normal 0 0 1
    outer loop
      vertex 25.8915 -12.3573 5.5
      vertex 24.7167 -14.392 5.5
      vertex 25.6142 -14.7916 5.5
    endloop
  endfacet
  facet normal -0 0 1
    outer loop
      vertex 22.7735 -8.4113 5.5
      vertex 25.1655 -8.94156 5.5
      vertex 23.2647 -7.56056 5.5
    endloop
  endfacet
  facet normal 0 0 1
    outer loop
      vertex 25.1655 -8.94156 5.5
      vertex 22.7735 -8.4113 5.5
      vertex 24.7681 -9.83407 5.5
    endloop
  endfacet
  facet normal 0 0 1
    outer loop
      vertex 25.8915 -12.3573 5.5
      vertex 23.922 -13.8146 5.5
      vertex 24.7167 -14.392 5.5
    endloop
  endfacet
  facet normal -0 0 1
    outer loop
      vertex 22.4699 -9.34558 5.5
      vertex 24.7681 -9.83407 5.5
      vertex 22.7735 -8.4113 5.5
    endloop
  endfacet
  facet normal 0 0 1
    outer loop
      vertex 25.1655 -11.7036 5.5
      vertex 23.2647 -13.0846 5.5
      vertex 23.922 -13.8146 5.5
    endloop
  endfacet
  facet normal 0 0 1
    outer loop
      vertex 22.3672 -10.3226 5.5
      vertex 24.7681 -9.83407 5.5
      vertex 22.4699 -9.34558 5.5
    endloop
  endfacet
  facet normal 0 0 1
    outer loop
      vertex 25.1655 -11.7036 5.5
      vertex 22.7735 -12.2338 5.5
      vertex 23.2647 -13.0846 5.5
    endloop
  endfacet
  facet normal 0 0 1
    outer loop
      vertex 24.7681 -9.83407 5.5
      vertex 22.3672 -10.3226 5.5
      vertex 24.7681 -10.811 5.5
    endloop
  endfacet
  facet normal 0 0 1
    outer loop
      vertex 24.7681 -10.811 5.5
      vertex 22.4699 -11.2995 5.5
      vertex 22.7735 -12.2338 5.5
    endloop
  endfacet
  facet normal 0 0 1
    outer loop
      vertex 24.7681 -10.811 5.5
      vertex 22.3672 -10.3226 5.5
      vertex 22.4699 -11.2995 5.5
    endloop
  endfacet
  facet normal 0.984802 -0.173682 0
    outer loop
      vertex 23.9725 -31.6179 7.5
      vertex 24.1444 -30.6432 0
      vertex 24.1444 -30.6432 7.5
    endloop
  endfacet
  facet normal 0.984802 -0.173682 0
    outer loop
      vertex 24.1444 -30.6432 0
      vertex 23.9725 -31.6179 7.5
      vertex 23.9725 -31.6179 0
    endloop
  endfacet
  facet normal -0.984802 0.173682 0
    outer loop
      vertex 29.5004 -32.5926 0
      vertex 29.6723 -31.6179 7.5
      vertex 29.6723 -31.6179 0
    endloop
  endfacet
  facet normal -0.984802 0.173682 0
    outer loop
      vertex 29.6723 -31.6179 7.5
      vertex 29.5004 -32.5926 0
      vertex 29.5004 -32.5926 7.5
    endloop
  endfacet
  facet normal 0 -1 0
    outer loop
      vertex 26.3275 -28.8113 0
      vertex 27.3173 -28.8113 7.5
      vertex 26.3275 -28.8113 7.5
    endloop
  endfacet
  facet normal 0 -1 -0
    outer loop
      vertex 27.3173 -28.8113 7.5
      vertex 26.3275 -28.8113 0
      vertex 27.3173 -28.8113 0
    endloop
  endfacet
  facet normal -0.866027 0.499996 0
    outer loop
      vertex 29.0055 -33.4498 0
      vertex 29.5004 -32.5926 7.5
      vertex 29.5004 -32.5926 0
    endloop
  endfacet
  facet normal -0.866027 0.499996 0
    outer loop
      vertex 29.5004 -32.5926 7.5
      vertex 29.0055 -33.4498 0
      vertex 29.0055 -33.4498 7.5
    endloop
  endfacet
  facet normal -0.642784 -0.766047 0
    outer loop
      vertex 28.2473 -29.1499 0
      vertex 29.0055 -29.7861 7.5
      vertex 28.2473 -29.1499 7.5
    endloop
  endfacet
  facet normal -0.642784 -0.766047 -0
    outer loop
      vertex 29.0055 -29.7861 7.5
      vertex 28.2473 -29.1499 0
      vertex 29.0055 -29.7861 0
    endloop
  endfacet
  facet normal 0.342027 0.93969 -0
    outer loop
      vertex 26.3275 -34.4245 0
      vertex 25.3975 -34.086 7.5
      vertex 26.3275 -34.4245 7.5
    endloop
  endfacet
  facet normal 0.342027 0.93969 0
    outer loop
      vertex 25.3975 -34.086 7.5
      vertex 26.3275 -34.4245 0
      vertex 25.3975 -34.086 0
    endloop
  endfacet
  facet normal 0.342116 -0.939658 0
    outer loop
      vertex 25.3975 -29.1499 0
      vertex 26.3275 -28.8113 7.5
      vertex 25.3975 -29.1499 7.5
    endloop
  endfacet
  facet normal 0.342116 -0.939658 0
    outer loop
      vertex 26.3275 -28.8113 7.5
      vertex 25.3975 -29.1499 0
      vertex 26.3275 -28.8113 0
    endloop
  endfacet
  facet normal 0 1 -0
    outer loop
      vertex 27.3173 -34.4245 0
      vertex 26.3275 -34.4245 7.5
      vertex 27.3173 -34.4245 7.5
    endloop
  endfacet
  facet normal 0 1 0
    outer loop
      vertex 26.3275 -34.4245 7.5
      vertex 27.3173 -34.4245 0
      vertex 26.3275 -34.4245 0
    endloop
  endfacet
  facet normal -0.866002 -0.50004 0
    outer loop
      vertex 29.5004 -30.6432 0
      vertex 29.0055 -29.7861 7.5
      vertex 29.0055 -29.7861 0
    endloop
  endfacet
  facet normal -0.866002 -0.50004 0
    outer loop
      vertex 29.0055 -29.7861 7.5
      vertex 29.5004 -30.6432 0
      vertex 29.5004 -30.6432 7.5
    endloop
  endfacet
  facet normal -0.342116 -0.939658 0
    outer loop
      vertex 27.3173 -28.8113 0
      vertex 28.2473 -29.1499 7.5
      vertex 27.3173 -28.8113 7.5
    endloop
  endfacet
  facet normal -0.342116 -0.939658 -0
    outer loop
      vertex 28.2473 -29.1499 7.5
      vertex 27.3173 -28.8113 0
      vertex 28.2473 -29.1499 0
    endloop
  endfacet
  facet normal -0.642784 0.766047 0
    outer loop
      vertex 29.0055 -33.4498 0
      vertex 28.2473 -34.086 7.5
      vertex 29.0055 -33.4498 7.5
    endloop
  endfacet
  facet normal -0.642784 0.766047 0
    outer loop
      vertex 28.2473 -34.086 7.5
      vertex 29.0055 -33.4498 0
      vertex 28.2473 -34.086 0
    endloop
  endfacet
  facet normal -0.342027 0.93969 0
    outer loop
      vertex 28.2473 -34.086 0
      vertex 27.3173 -34.4245 7.5
      vertex 28.2473 -34.086 7.5
    endloop
  endfacet
  facet normal -0.342027 0.93969 0
    outer loop
      vertex 27.3173 -34.4245 7.5
      vertex 28.2473 -34.086 0
      vertex 27.3173 -34.4245 0
    endloop
  endfacet
  facet normal 0.866002 -0.50004 0
    outer loop
      vertex 24.1444 -30.6432 7.5
      vertex 24.6393 -29.7861 0
      vertex 24.6393 -29.7861 7.5
    endloop
  endfacet
  facet normal 0.866002 -0.50004 0
    outer loop
      vertex 24.6393 -29.7861 0
      vertex 24.1444 -30.6432 7.5
      vertex 24.1444 -30.6432 0
    endloop
  endfacet
  facet normal 0.866027 0.499996 0
    outer loop
      vertex 24.6393 -33.4498 7.5
      vertex 24.1444 -32.5926 0
      vertex 24.1444 -32.5926 7.5
    endloop
  endfacet
  facet normal 0.866027 0.499996 0
    outer loop
      vertex 24.1444 -32.5926 0
      vertex 24.6393 -33.4498 7.5
      vertex 24.6393 -33.4498 0
    endloop
  endfacet
  facet normal -0.984802 -0.173682 0
    outer loop
      vertex 29.6723 -31.6179 0
      vertex 29.5004 -30.6432 7.5
      vertex 29.5004 -30.6432 0
    endloop
  endfacet
  facet normal -0.984802 -0.173682 0
    outer loop
      vertex 29.5004 -30.6432 7.5
      vertex 29.6723 -31.6179 0
      vertex 29.6723 -31.6179 7.5
    endloop
  endfacet
  facet normal 0.642784 0.766047 -0
    outer loop
      vertex 25.3975 -34.086 0
      vertex 24.6393 -33.4498 7.5
      vertex 25.3975 -34.086 7.5
    endloop
  endfacet
  facet normal 0.642784 0.766047 0
    outer loop
      vertex 24.6393 -33.4498 7.5
      vertex 25.3975 -34.086 0
      vertex 24.6393 -33.4498 0
    endloop
  endfacet
  facet normal 0.642784 -0.766047 0
    outer loop
      vertex 24.6393 -29.7861 0
      vertex 25.3975 -29.1499 7.5
      vertex 24.6393 -29.7861 7.5
    endloop
  endfacet
  facet normal 0.642784 -0.766047 0
    outer loop
      vertex 25.3975 -29.1499 7.5
      vertex 24.6393 -29.7861 0
      vertex 25.3975 -29.1499 0
    endloop
  endfacet
  facet normal 0.984802 0.173682 0
    outer loop
      vertex 24.1444 -32.5926 7.5
      vertex 23.9725 -31.6179 0
      vertex 23.9725 -31.6179 7.5
    endloop
  endfacet
  facet normal 0.984802 0.173682 0
    outer loop
      vertex 23.9725 -31.6179 0
      vertex 24.1444 -32.5926 7.5
      vertex 24.1444 -32.5926 0
    endloop
  endfacet
endsolid OpenSCAD_Model
