solid OpenSCAD_Model
  facet normal 1 -0 0
    outer loop
      vertex -35 2 5
      vertex -35 24 0
      vertex -35 24 5
    endloop
  endfacet
  facet normal 1 0 0
    outer loop
      vertex -35 24 0
      vertex -35 2 5
      vertex -35 2 0
    endloop
  endfacet
  facet normal -0 0 1
    outer loop
      vertex -38.2405 7.57168 5
      vertex -35 2 5
      vertex -38.2405 18.4283 5
    endloop
  endfacet
  facet normal 0 0 1
    outer loop
      vertex -35 2 5
      vertex -38.2405 7.57168 5
      vertex -38.15 7 5
    endloop
  endfacet
  facet normal -0 0 1
    outer loop
      vertex -38.5033 17.9126 5
      vertex -38.2405 7.57168 5
      vertex -38.2405 18.4283 5
    endloop
  endfacet
  facet normal 0 0 1
    outer loop
      vertex -38.5033 17.9126 5
      vertex -38.5033 8.0874 5
      vertex -38.2405 7.57168 5
    endloop
  endfacet
  facet normal -0 0 1
    outer loop
      vertex -38.9126 17.5033 5
      vertex -38.5033 8.0874 5
      vertex -38.5033 17.9126 5
    endloop
  endfacet
  facet normal 0 0 1
    outer loop
      vertex -38.9126 17.5033 5
      vertex -38.9126 8.49668 5
      vertex -38.5033 8.0874 5
    endloop
  endfacet
  facet normal -0 0 1
    outer loop
      vertex -39.4283 17.2405 5
      vertex -38.9126 8.49668 5
      vertex -38.9126 17.5033 5
    endloop
  endfacet
  facet normal 0 0 1
    outer loop
      vertex -39.4283 17.2405 5
      vertex -39.4283 8.75945 5
      vertex -38.9126 8.49668 5
    endloop
  endfacet
  facet normal -0 0 1
    outer loop
      vertex -40 17.15 5
      vertex -39.4283 8.75945 5
      vertex -39.4283 17.2405 5
    endloop
  endfacet
  facet normal 0 0 1
    outer loop
      vertex -40 17.15 5
      vertex -40 8.85 5
      vertex -39.4283 8.75945 5
    endloop
  endfacet
  facet normal 0 0 1
    outer loop
      vertex -40.5717 17.2405 5
      vertex -40 8.85 5
      vertex -40 17.15 5
    endloop
  endfacet
  facet normal 0 0 1
    outer loop
      vertex -40.5717 17.2405 5
      vertex -40.5717 8.75945 5
      vertex -40 8.85 5
    endloop
  endfacet
  facet normal 0 0 1
    outer loop
      vertex -41.0874 17.5033 5
      vertex -40.5717 8.75945 5
      vertex -40.5717 17.2405 5
    endloop
  endfacet
  facet normal 0 0 1
    outer loop
      vertex -41.0874 17.5033 5
      vertex -41.0874 8.49668 5
      vertex -40.5717 8.75945 5
    endloop
  endfacet
  facet normal 0 0 1
    outer loop
      vertex -41.4967 17.9126 5
      vertex -41.0874 8.49668 5
      vertex -41.0874 17.5033 5
    endloop
  endfacet
  facet normal 0 0 1
    outer loop
      vertex -41.4967 17.9126 5
      vertex -41.4967 8.0874 5
      vertex -41.0874 8.49668 5
    endloop
  endfacet
  facet normal 0 0 1
    outer loop
      vertex -41.7595 18.4283 5
      vertex -41.4967 8.0874 5
      vertex -41.4967 17.9126 5
    endloop
  endfacet
  facet normal 0 0 1
    outer loop
      vertex -41.7595 18.4283 5
      vertex -41.7595 7.57168 5
      vertex -41.4967 8.0874 5
    endloop
  endfacet
  facet normal 0 0 1
    outer loop
      vertex -45 24 5
      vertex -41.7595 18.4283 5
      vertex -41.85 19 5
    endloop
  endfacet
  facet normal 0 0 1
    outer loop
      vertex -41.7595 18.4283 5
      vertex -45 24 5
      vertex -41.7595 7.57168 5
    endloop
  endfacet
  facet normal 0 0 1
    outer loop
      vertex -38.2405 18.4283 5
      vertex -35 24 5
      vertex -38.15 19 5
    endloop
  endfacet
  facet normal 0 0 1
    outer loop
      vertex -35 24 5
      vertex -38.2405 19.5717 5
      vertex -38.15 19 5
    endloop
  endfacet
  facet normal 0 0 1
    outer loop
      vertex -35 24 5
      vertex -38.5033 20.0874 5
      vertex -38.2405 19.5717 5
    endloop
  endfacet
  facet normal 0 0 1
    outer loop
      vertex -35 24 5
      vertex -38.9126 20.4967 5
      vertex -38.5033 20.0874 5
    endloop
  endfacet
  facet normal 0 0 1
    outer loop
      vertex -35 24 5
      vertex -39.4283 20.7595 5
      vertex -38.9126 20.4967 5
    endloop
  endfacet
  facet normal 0 0 1
    outer loop
      vertex -35 24 5
      vertex -40 20.85 5
      vertex -39.4283 20.7595 5
    endloop
  endfacet
  facet normal -0 0 1
    outer loop
      vertex -45 24 5
      vertex -40 20.85 5
      vertex -35 24 5
    endloop
  endfacet
  facet normal 0 0 1
    outer loop
      vertex -40 20.85 5
      vertex -45 24 5
      vertex -40.5717 20.7595 5
    endloop
  endfacet
  facet normal 0 0 1
    outer loop
      vertex -45 2 5
      vertex -41.7595 7.57168 5
      vertex -45 24 5
    endloop
  endfacet
  facet normal 0 0 1
    outer loop
      vertex -41.7595 19.5717 5
      vertex -45 24 5
      vertex -41.85 19 5
    endloop
  endfacet
  facet normal 0 0 1
    outer loop
      vertex -41.4967 20.0874 5
      vertex -45 24 5
      vertex -41.7595 19.5717 5
    endloop
  endfacet
  facet normal 0 0 1
    outer loop
      vertex -41.0874 20.4967 5
      vertex -45 24 5
      vertex -41.4967 20.0874 5
    endloop
  endfacet
  facet normal 0 0 1
    outer loop
      vertex -40.5717 20.7595 5
      vertex -45 24 5
      vertex -41.0874 20.4967 5
    endloop
  endfacet
  facet normal 0 0 1
    outer loop
      vertex -35 24 5
      vertex -38.2405 18.4283 5
      vertex -35 2 5
    endloop
  endfacet
  facet normal -0 0 1
    outer loop
      vertex -38.2405 6.42832 5
      vertex -35 2 5
      vertex -38.15 7 5
    endloop
  endfacet
  facet normal -0 0 1
    outer loop
      vertex -38.5033 5.9126 5
      vertex -35 2 5
      vertex -38.2405 6.42832 5
    endloop
  endfacet
  facet normal -0 0 1
    outer loop
      vertex -38.9126 5.50332 5
      vertex -35 2 5
      vertex -38.5033 5.9126 5
    endloop
  endfacet
  facet normal -0 0 1
    outer loop
      vertex -39.4283 5.24055 5
      vertex -35 2 5
      vertex -38.9126 5.50332 5
    endloop
  endfacet
  facet normal -0 0 1
    outer loop
      vertex -40 5.15 5
      vertex -35 2 5
      vertex -39.4283 5.24055 5
    endloop
  endfacet
  facet normal 0 0 1
    outer loop
      vertex -45 2 5
      vertex -40 5.15 5
      vertex -40.5717 5.24055 5
    endloop
  endfacet
  facet normal 0 0 1
    outer loop
      vertex -45 2 5
      vertex -40.5717 5.24055 5
      vertex -41.0874 5.50332 5
    endloop
  endfacet
  facet normal 0 0 1
    outer loop
      vertex -41.7595 7.57168 5
      vertex -45 2 5
      vertex -41.85 7 5
    endloop
  endfacet
  facet normal 0 0 1
    outer loop
      vertex -40 5.15 5
      vertex -45 2 5
      vertex -35 2 5
    endloop
  endfacet
  facet normal 0 0 1
    outer loop
      vertex -41.4967 5.9126 5
      vertex -45 2 5
      vertex -41.0874 5.50332 5
    endloop
  endfacet
  facet normal 0 0 1
    outer loop
      vertex -41.7595 6.42832 5
      vertex -45 2 5
      vertex -41.4967 5.9126 5
    endloop
  endfacet
  facet normal 0 0 1
    outer loop
      vertex -41.85 7 5
      vertex -45 2 5
      vertex -41.7595 6.42832 5
    endloop
  endfacet
  facet normal 0 0 -1
    outer loop
      vertex -38.2405 18.4283 0
      vertex -35 24 0
      vertex -38.2405 7.57168 0
    endloop
  endfacet
  facet normal 0 0 -1
    outer loop
      vertex -35 24 0
      vertex -38.2405 18.4283 0
      vertex -38.15 19 0
    endloop
  endfacet
  facet normal 0 0 -1
    outer loop
      vertex -38.5033 8.0874 0
      vertex -38.2405 18.4283 0
      vertex -38.2405 7.57168 0
    endloop
  endfacet
  facet normal 0 0 -1
    outer loop
      vertex -38.5033 8.0874 0
      vertex -38.5033 17.9126 0
      vertex -38.2405 18.4283 0
    endloop
  endfacet
  facet normal 0 0 -1
    outer loop
      vertex -38.9126 8.49668 0
      vertex -38.5033 17.9126 0
      vertex -38.5033 8.0874 0
    endloop
  endfacet
  facet normal 0 0 -1
    outer loop
      vertex -38.9126 8.49668 0
      vertex -38.9126 17.5033 0
      vertex -38.5033 17.9126 0
    endloop
  endfacet
  facet normal 0 0 -1
    outer loop
      vertex -39.4283 8.75945 0
      vertex -38.9126 17.5033 0
      vertex -38.9126 8.49668 0
    endloop
  endfacet
  facet normal 0 0 -1
    outer loop
      vertex -39.4283 8.75945 0
      vertex -39.4283 17.2405 0
      vertex -38.9126 17.5033 0
    endloop
  endfacet
  facet normal 0 0 -1
    outer loop
      vertex -40 8.85 0
      vertex -39.4283 17.2405 0
      vertex -39.4283 8.75945 0
    endloop
  endfacet
  facet normal 0 0 -1
    outer loop
      vertex -40 8.85 0
      vertex -40 17.15 0
      vertex -39.4283 17.2405 0
    endloop
  endfacet
  facet normal 0 0 -1
    outer loop
      vertex -40.5717 8.75945 0
      vertex -40 17.15 0
      vertex -40 8.85 0
    endloop
  endfacet
  facet normal 0 0 -1
    outer loop
      vertex -40.5717 8.75945 0
      vertex -40.5717 17.2405 0
      vertex -40 17.15 0
    endloop
  endfacet
  facet normal 0 0 -1
    outer loop
      vertex -41.0874 8.49668 0
      vertex -40.5717 17.2405 0
      vertex -40.5717 8.75945 0
    endloop
  endfacet
  facet normal 0 0 -1
    outer loop
      vertex -41.0874 8.49668 0
      vertex -41.0874 17.5033 0
      vertex -40.5717 17.2405 0
    endloop
  endfacet
  facet normal 0 0 -1
    outer loop
      vertex -41.4967 8.0874 0
      vertex -41.0874 17.5033 0
      vertex -41.0874 8.49668 0
    endloop
  endfacet
  facet normal 0 0 -1
    outer loop
      vertex -41.4967 8.0874 0
      vertex -41.4967 17.9126 0
      vertex -41.0874 17.5033 0
    endloop
  endfacet
  facet normal 0 0 -1
    outer loop
      vertex -41.7595 7.57168 0
      vertex -41.4967 17.9126 0
      vertex -41.4967 8.0874 0
    endloop
  endfacet
  facet normal 0 0 -1
    outer loop
      vertex -41.7595 7.57168 0
      vertex -41.7595 18.4283 0
      vertex -41.4967 17.9126 0
    endloop
  endfacet
  facet normal 0 0 -1
    outer loop
      vertex -45 2 0
      vertex -41.7595 7.57168 0
      vertex -41.85 7 0
    endloop
  endfacet
  facet normal -0 0 -1
    outer loop
      vertex -41.7595 7.57168 0
      vertex -45 2 0
      vertex -41.7595 18.4283 0
    endloop
  endfacet
  facet normal 0 0 -1
    outer loop
      vertex -38.2405 7.57168 0
      vertex -35 2 0
      vertex -38.15 7 0
    endloop
  endfacet
  facet normal 0 0 -1
    outer loop
      vertex -35 2 0
      vertex -38.2405 6.42832 0
      vertex -38.15 7 0
    endloop
  endfacet
  facet normal 0 0 -1
    outer loop
      vertex -35 2 0
      vertex -38.5033 5.9126 0
      vertex -38.2405 6.42832 0
    endloop
  endfacet
  facet normal 0 0 -1
    outer loop
      vertex -35 2 0
      vertex -38.9126 5.50332 0
      vertex -38.5033 5.9126 0
    endloop
  endfacet
  facet normal 0 0 -1
    outer loop
      vertex -35 2 0
      vertex -39.4283 5.24055 0
      vertex -38.9126 5.50332 0
    endloop
  endfacet
  facet normal 0 0 -1
    outer loop
      vertex -35 2 0
      vertex -40 5.15 0
      vertex -39.4283 5.24055 0
    endloop
  endfacet
  facet normal 0 0 -1
    outer loop
      vertex -45 2 0
      vertex -40 5.15 0
      vertex -35 2 0
    endloop
  endfacet
  facet normal -0 0 -1
    outer loop
      vertex -40 5.15 0
      vertex -45 2 0
      vertex -40.5717 5.24055 0
    endloop
  endfacet
  facet normal 0 0 -1
    outer loop
      vertex -45 24 0
      vertex -41.7595 18.4283 0
      vertex -45 2 0
    endloop
  endfacet
  facet normal -0 0 -1
    outer loop
      vertex -41.7595 6.42832 0
      vertex -45 2 0
      vertex -41.85 7 0
    endloop
  endfacet
  facet normal -0 0 -1
    outer loop
      vertex -41.4967 5.9126 0
      vertex -45 2 0
      vertex -41.7595 6.42832 0
    endloop
  endfacet
  facet normal -0 0 -1
    outer loop
      vertex -41.0874 5.50332 0
      vertex -45 2 0
      vertex -41.4967 5.9126 0
    endloop
  endfacet
  facet normal -0 0 -1
    outer loop
      vertex -40.5717 5.24055 0
      vertex -45 2 0
      vertex -41.0874 5.50332 0
    endloop
  endfacet
  facet normal 0 0 -1
    outer loop
      vertex -35 2 0
      vertex -38.2405 7.57168 0
      vertex -35 24 0
    endloop
  endfacet
  facet normal 0 0 -1
    outer loop
      vertex -38.2405 19.5717 0
      vertex -35 24 0
      vertex -38.15 19 0
    endloop
  endfacet
  facet normal 0 0 -1
    outer loop
      vertex -38.5033 20.0874 0
      vertex -35 24 0
      vertex -38.2405 19.5717 0
    endloop
  endfacet
  facet normal 0 0 -1
    outer loop
      vertex -38.9126 20.4967 0
      vertex -35 24 0
      vertex -38.5033 20.0874 0
    endloop
  endfacet
  facet normal 0 0 -1
    outer loop
      vertex -39.4283 20.7595 0
      vertex -35 24 0
      vertex -38.9126 20.4967 0
    endloop
  endfacet
  facet normal 0 0 -1
    outer loop
      vertex -40 20.85 0
      vertex -35 24 0
      vertex -39.4283 20.7595 0
    endloop
  endfacet
  facet normal 0 0 -1
    outer loop
      vertex -45 24 0
      vertex -40 20.85 0
      vertex -40.5717 20.7595 0
    endloop
  endfacet
  facet normal 0 0 -1
    outer loop
      vertex -45 24 0
      vertex -40.5717 20.7595 0
      vertex -41.0874 20.4967 0
    endloop
  endfacet
  facet normal 0 0 -1
    outer loop
      vertex -41.7595 18.4283 0
      vertex -45 24 0
      vertex -41.85 19 0
    endloop
  endfacet
  facet normal 0 0 -1
    outer loop
      vertex -40 20.85 0
      vertex -45 24 0
      vertex -35 24 0
    endloop
  endfacet
  facet normal 0 0 -1
    outer loop
      vertex -41.4967 20.0874 0
      vertex -45 24 0
      vertex -41.0874 20.4967 0
    endloop
  endfacet
  facet normal 0 0 -1
    outer loop
      vertex -41.7595 19.5717 0
      vertex -45 24 0
      vertex -41.4967 20.0874 0
    endloop
  endfacet
  facet normal 0 0 -1
    outer loop
      vertex -41.85 19 0
      vertex -45 24 0
      vertex -41.7595 19.5717 0
    endloop
  endfacet
  facet normal -1 0 0
    outer loop
      vertex -45 2 0
      vertex -45 24 5
      vertex -45 24 0
    endloop
  endfacet
  facet normal -1 -0 0
    outer loop
      vertex -45 24 5
      vertex -45 2 0
      vertex -45 2 5
    endloop
  endfacet
  facet normal 0 1 -0
    outer loop
      vertex -35 24 0
      vertex -45 24 5
      vertex -35 24 5
    endloop
  endfacet
  facet normal 0 1 0
    outer loop
      vertex -45 24 5
      vertex -35 24 0
      vertex -45 24 0
    endloop
  endfacet
  facet normal 0 -1 0
    outer loop
      vertex -45 2 0
      vertex -35 2 5
      vertex -45 2 5
    endloop
  endfacet
  facet normal 0 -1 -0
    outer loop
      vertex -35 2 5
      vertex -45 2 0
      vertex -35 2 0
    endloop
  endfacet
  facet normal -0.156437 -0.987688 0
    outer loop
      vertex -40 8.85 0
      vertex -39.4283 8.75945 5
      vertex -40 8.85 5
    endloop
  endfacet
  facet normal -0.156437 -0.987688 -0
    outer loop
      vertex -39.4283 8.75945 5
      vertex -40 8.85 0
      vertex -39.4283 8.75945 0
    endloop
  endfacet
  facet normal -0.890987 -0.454028 0
    outer loop
      vertex -38.2405 7.57168 0
      vertex -38.5033 8.0874 5
      vertex -38.5033 8.0874 0
    endloop
  endfacet
  facet normal -0.890987 -0.454028 0
    outer loop
      vertex -38.5033 8.0874 5
      vertex -38.2405 7.57168 0
      vertex -38.2405 7.57168 5
    endloop
  endfacet
  facet normal -0.9877 -0.156358 0
    outer loop
      vertex -38.15 7 0
      vertex -38.2405 7.57168 5
      vertex -38.2405 7.57168 0
    endloop
  endfacet
  facet normal -0.9877 -0.156358 0
    outer loop
      vertex -38.2405 7.57168 5
      vertex -38.15 7 0
      vertex -38.15 7 5
    endloop
  endfacet
  facet normal -0.70709 -0.707124 0
    outer loop
      vertex -38.5033 8.0874 0
      vertex -38.9126 8.49668 5
      vertex -38.9126 8.49668 0
    endloop
  endfacet
  facet normal -0.70709 -0.707124 0
    outer loop
      vertex -38.9126 8.49668 5
      vertex -38.5033 8.0874 0
      vertex -38.5033 8.0874 5
    endloop
  endfacet
  facet normal -0.70709 0.707124 0
    outer loop
      vertex -38.9126 5.50332 0
      vertex -38.5033 5.9126 5
      vertex -38.5033 5.9126 0
    endloop
  endfacet
  facet normal -0.70709 0.707124 0
    outer loop
      vertex -38.5033 5.9126 5
      vertex -38.9126 5.50332 0
      vertex -38.9126 5.50332 5
    endloop
  endfacet
  facet normal -0.454001 0.891001 0
    outer loop
      vertex -38.9126 5.50332 0
      vertex -39.4283 5.24055 5
      vertex -38.9126 5.50332 5
    endloop
  endfacet
  facet normal -0.454001 0.891001 0
    outer loop
      vertex -39.4283 5.24055 5
      vertex -38.9126 5.50332 0
      vertex -39.4283 5.24055 0
    endloop
  endfacet
  facet normal 0.890987 -0.454028 0
    outer loop
      vertex -41.7595 7.57168 5
      vertex -41.4967 8.0874 0
      vertex -41.4967 8.0874 5
    endloop
  endfacet
  facet normal 0.890987 -0.454028 0
    outer loop
      vertex -41.4967 8.0874 0
      vertex -41.7595 7.57168 5
      vertex -41.7595 7.57168 0
    endloop
  endfacet
  facet normal 0.70709 -0.707124 0
    outer loop
      vertex -41.4967 8.0874 5
      vertex -41.0874 8.49668 0
      vertex -41.0874 8.49668 5
    endloop
  endfacet
  facet normal 0.70709 -0.707124 0
    outer loop
      vertex -41.0874 8.49668 0
      vertex -41.4967 8.0874 5
      vertex -41.4967 8.0874 0
    endloop
  endfacet
  facet normal -0.890987 0.454028 0
    outer loop
      vertex -38.5033 5.9126 0
      vertex -38.2405 6.42832 5
      vertex -38.2405 6.42832 0
    endloop
  endfacet
  facet normal -0.890987 0.454028 0
    outer loop
      vertex -38.2405 6.42832 5
      vertex -38.5033 5.9126 0
      vertex -38.5033 5.9126 5
    endloop
  endfacet
  facet normal 0.156437 0.987688 -0
    outer loop
      vertex -40 5.15 0
      vertex -40.5717 5.24055 5
      vertex -40 5.15 5
    endloop
  endfacet
  facet normal 0.156437 0.987688 0
    outer loop
      vertex -40.5717 5.24055 5
      vertex -40 5.15 0
      vertex -40.5717 5.24055 0
    endloop
  endfacet
  facet normal 0.156437 -0.987688 0
    outer loop
      vertex -40.5717 8.75945 0
      vertex -40 8.85 5
      vertex -40.5717 8.75945 5
    endloop
  endfacet
  facet normal 0.156437 -0.987688 0
    outer loop
      vertex -40 8.85 5
      vertex -40.5717 8.75945 0
      vertex -40 8.85 0
    endloop
  endfacet
  facet normal -0.9877 0.156358 0
    outer loop
      vertex -38.2405 6.42832 0
      vertex -38.15 7 5
      vertex -38.15 7 0
    endloop
  endfacet
  facet normal -0.9877 0.156358 0
    outer loop
      vertex -38.15 7 5
      vertex -38.2405 6.42832 0
      vertex -38.2405 6.42832 5
    endloop
  endfacet
  facet normal 0.70709 0.707124 0
    outer loop
      vertex -41.0874 5.50332 5
      vertex -41.4967 5.9126 0
      vertex -41.4967 5.9126 5
    endloop
  endfacet
  facet normal 0.70709 0.707124 0
    outer loop
      vertex -41.4967 5.9126 0
      vertex -41.0874 5.50332 5
      vertex -41.0874 5.50332 0
    endloop
  endfacet
  facet normal 0.454001 -0.891001 0
    outer loop
      vertex -41.0874 8.49668 0
      vertex -40.5717 8.75945 5
      vertex -41.0874 8.49668 5
    endloop
  endfacet
  facet normal 0.454001 -0.891001 0
    outer loop
      vertex -40.5717 8.75945 5
      vertex -41.0874 8.49668 0
      vertex -40.5717 8.75945 0
    endloop
  endfacet
  facet normal 0.9877 0.156358 0
    outer loop
      vertex -41.7595 6.42832 5
      vertex -41.85 7 0
      vertex -41.85 7 5
    endloop
  endfacet
  facet normal 0.9877 0.156358 0
    outer loop
      vertex -41.85 7 0
      vertex -41.7595 6.42832 5
      vertex -41.7595 6.42832 0
    endloop
  endfacet
  facet normal -0.156437 0.987688 0
    outer loop
      vertex -39.4283 5.24055 0
      vertex -40 5.15 5
      vertex -39.4283 5.24055 5
    endloop
  endfacet
  facet normal -0.156437 0.987688 0
    outer loop
      vertex -40 5.15 5
      vertex -39.4283 5.24055 0
      vertex -40 5.15 0
    endloop
  endfacet
  facet normal -0.454001 -0.891001 0
    outer loop
      vertex -39.4283 8.75945 0
      vertex -38.9126 8.49668 5
      vertex -39.4283 8.75945 5
    endloop
  endfacet
  facet normal -0.454001 -0.891001 -0
    outer loop
      vertex -38.9126 8.49668 5
      vertex -39.4283 8.75945 0
      vertex -38.9126 8.49668 0
    endloop
  endfacet
  facet normal 0.890987 0.454028 0
    outer loop
      vertex -41.4967 5.9126 5
      vertex -41.7595 6.42832 0
      vertex -41.7595 6.42832 5
    endloop
  endfacet
  facet normal 0.890987 0.454028 0
    outer loop
      vertex -41.7595 6.42832 0
      vertex -41.4967 5.9126 5
      vertex -41.4967 5.9126 0
    endloop
  endfacet
  facet normal 0.9877 -0.156358 0
    outer loop
      vertex -41.85 7 5
      vertex -41.7595 7.57168 0
      vertex -41.7595 7.57168 5
    endloop
  endfacet
  facet normal 0.9877 -0.156358 0
    outer loop
      vertex -41.7595 7.57168 0
      vertex -41.85 7 5
      vertex -41.85 7 0
    endloop
  endfacet
  facet normal 0.454001 0.891001 -0
    outer loop
      vertex -40.5717 5.24055 0
      vertex -41.0874 5.50332 5
      vertex -40.5717 5.24055 5
    endloop
  endfacet
  facet normal 0.454001 0.891001 0
    outer loop
      vertex -41.0874 5.50332 5
      vertex -40.5717 5.24055 0
      vertex -41.0874 5.50332 0
    endloop
  endfacet
  facet normal -0.156353 -0.987701 0
    outer loop
      vertex -40 20.85 0
      vertex -39.4283 20.7595 5
      vertex -40 20.85 5
    endloop
  endfacet
  facet normal -0.156353 -0.987701 -0
    outer loop
      vertex -39.4283 20.7595 5
      vertex -40 20.85 0
      vertex -39.4283 20.7595 0
    endloop
  endfacet
  facet normal -0.89098 -0.454042 0
    outer loop
      vertex -38.2405 19.5717 0
      vertex -38.5033 20.0874 5
      vertex -38.5033 20.0874 0
    endloop
  endfacet
  facet normal -0.89098 -0.454042 0
    outer loop
      vertex -38.5033 20.0874 5
      vertex -38.2405 19.5717 0
      vertex -38.2405 19.5717 5
    endloop
  endfacet
  facet normal -0.987701 -0.156353 0
    outer loop
      vertex -38.15 19 0
      vertex -38.2405 19.5717 5
      vertex -38.2405 19.5717 0
    endloop
  endfacet
  facet normal -0.987701 -0.156353 0
    outer loop
      vertex -38.2405 19.5717 5
      vertex -38.15 19 0
      vertex -38.15 19 5
    endloop
  endfacet
  facet normal -0.707107 -0.707107 0
    outer loop
      vertex -38.5033 20.0874 0
      vertex -38.9126 20.4967 5
      vertex -38.9126 20.4967 0
    endloop
  endfacet
  facet normal -0.707107 -0.707107 0
    outer loop
      vertex -38.9126 20.4967 5
      vertex -38.5033 20.0874 0
      vertex -38.5033 20.0874 5
    endloop
  endfacet
  facet normal -0.707107 0.707107 0
    outer loop
      vertex -38.9126 17.5033 0
      vertex -38.5033 17.9126 5
      vertex -38.5033 17.9126 0
    endloop
  endfacet
  facet normal -0.707107 0.707107 0
    outer loop
      vertex -38.5033 17.9126 5
      vertex -38.9126 17.5033 0
      vertex -38.9126 17.5033 5
    endloop
  endfacet
  facet normal -0.454042 0.89098 0
    outer loop
      vertex -38.9126 17.5033 0
      vertex -39.4283 17.2405 5
      vertex -38.9126 17.5033 5
    endloop
  endfacet
  facet normal -0.454042 0.89098 0
    outer loop
      vertex -39.4283 17.2405 5
      vertex -38.9126 17.5033 0
      vertex -39.4283 17.2405 0
    endloop
  endfacet
  facet normal 0.89098 -0.454042 0
    outer loop
      vertex -41.7595 19.5717 5
      vertex -41.4967 20.0874 0
      vertex -41.4967 20.0874 5
    endloop
  endfacet
  facet normal 0.89098 -0.454042 0
    outer loop
      vertex -41.4967 20.0874 0
      vertex -41.7595 19.5717 5
      vertex -41.7595 19.5717 0
    endloop
  endfacet
  facet normal 0.707107 -0.707107 0
    outer loop
      vertex -41.4967 20.0874 5
      vertex -41.0874 20.4967 0
      vertex -41.0874 20.4967 5
    endloop
  endfacet
  facet normal 0.707107 -0.707107 0
    outer loop
      vertex -41.0874 20.4967 0
      vertex -41.4967 20.0874 5
      vertex -41.4967 20.0874 0
    endloop
  endfacet
  facet normal -0.89098 0.454042 0
    outer loop
      vertex -38.5033 17.9126 0
      vertex -38.2405 18.4283 5
      vertex -38.2405 18.4283 0
    endloop
  endfacet
  facet normal -0.89098 0.454042 0
    outer loop
      vertex -38.2405 18.4283 5
      vertex -38.5033 17.9126 0
      vertex -38.5033 17.9126 5
    endloop
  endfacet
  facet normal 0.156353 0.987701 -0
    outer loop
      vertex -40 17.15 0
      vertex -40.5717 17.2405 5
      vertex -40 17.15 5
    endloop
  endfacet
  facet normal 0.156353 0.987701 0
    outer loop
      vertex -40.5717 17.2405 5
      vertex -40 17.15 0
      vertex -40.5717 17.2405 0
    endloop
  endfacet
  facet normal 0.156353 -0.987701 0
    outer loop
      vertex -40.5717 20.7595 0
      vertex -40 20.85 5
      vertex -40.5717 20.7595 5
    endloop
  endfacet
  facet normal 0.156353 -0.987701 0
    outer loop
      vertex -40 20.85 5
      vertex -40.5717 20.7595 0
      vertex -40 20.85 0
    endloop
  endfacet
  facet normal -0.987701 0.156353 0
    outer loop
      vertex -38.2405 18.4283 0
      vertex -38.15 19 5
      vertex -38.15 19 0
    endloop
  endfacet
  facet normal -0.987701 0.156353 0
    outer loop
      vertex -38.15 19 5
      vertex -38.2405 18.4283 0
      vertex -38.2405 18.4283 5
    endloop
  endfacet
  facet normal 0.707107 0.707107 0
    outer loop
      vertex -41.0874 17.5033 5
      vertex -41.4967 17.9126 0
      vertex -41.4967 17.9126 5
    endloop
  endfacet
  facet normal 0.707107 0.707107 0
    outer loop
      vertex -41.4967 17.9126 0
      vertex -41.0874 17.5033 5
      vertex -41.0874 17.5033 0
    endloop
  endfacet
  facet normal 0.454042 -0.89098 0
    outer loop
      vertex -41.0874 20.4967 0
      vertex -40.5717 20.7595 5
      vertex -41.0874 20.4967 5
    endloop
  endfacet
  facet normal 0.454042 -0.89098 0
    outer loop
      vertex -40.5717 20.7595 5
      vertex -41.0874 20.4967 0
      vertex -40.5717 20.7595 0
    endloop
  endfacet
  facet normal 0.987701 0.156353 0
    outer loop
      vertex -41.7595 18.4283 5
      vertex -41.85 19 0
      vertex -41.85 19 5
    endloop
  endfacet
  facet normal 0.987701 0.156353 0
    outer loop
      vertex -41.85 19 0
      vertex -41.7595 18.4283 5
      vertex -41.7595 18.4283 0
    endloop
  endfacet
  facet normal -0.156353 0.987701 0
    outer loop
      vertex -39.4283 17.2405 0
      vertex -40 17.15 5
      vertex -39.4283 17.2405 5
    endloop
  endfacet
  facet normal -0.156353 0.987701 0
    outer loop
      vertex -40 17.15 5
      vertex -39.4283 17.2405 0
      vertex -40 17.15 0
    endloop
  endfacet
  facet normal -0.454042 -0.89098 0
    outer loop
      vertex -39.4283 20.7595 0
      vertex -38.9126 20.4967 5
      vertex -39.4283 20.7595 5
    endloop
  endfacet
  facet normal -0.454042 -0.89098 -0
    outer loop
      vertex -38.9126 20.4967 5
      vertex -39.4283 20.7595 0
      vertex -38.9126 20.4967 0
    endloop
  endfacet
  facet normal 0.89098 0.454042 0
    outer loop
      vertex -41.4967 17.9126 5
      vertex -41.7595 18.4283 0
      vertex -41.7595 18.4283 5
    endloop
  endfacet
  facet normal 0.89098 0.454042 0
    outer loop
      vertex -41.7595 18.4283 0
      vertex -41.4967 17.9126 5
      vertex -41.4967 17.9126 0
    endloop
  endfacet
  facet normal 0.987701 -0.156353 0
    outer loop
      vertex -41.85 19 5
      vertex -41.7595 19.5717 0
      vertex -41.7595 19.5717 5
    endloop
  endfacet
  facet normal 0.987701 -0.156353 0
    outer loop
      vertex -41.7595 19.5717 0
      vertex -41.85 19 5
      vertex -41.85 19 0
    endloop
  endfacet
  facet normal 0.454042 0.89098 -0
    outer loop
      vertex -40.5717 17.2405 0
      vertex -41.0874 17.5033 5
      vertex -40.5717 17.2405 5
    endloop
  endfacet
  facet normal 0.454042 0.89098 0
    outer loop
      vertex -41.0874 17.5033 5
      vertex -40.5717 17.2405 0
      vertex -41.0874 17.5033 0
    endloop
  endfacet
endsolid OpenSCAD_Model
