solid OpenSCAD_Model
  facet normal 0.996055 -0 0.0887422
    outer loop
      vertex 9.95344 0 5.52264
      vertex 10 2.5 5
      vertex 9.95344 2.5 5.52264
    endloop
  endfacet
  facet normal 0.996055 0 0.0887422
    outer loop
      vertex 10 2.5 5
      vertex 9.95344 0 5.52264
      vertex 10 0 5
    endloop
  endfacet
  facet normal 0.96561 -0 0.259995
    outer loop
      vertex 9.81425 9.53674e-007 6.03956
      vertex 9.95344 2.5 5.52264
      vertex 9.81425 2.5 6.03956
    endloop
  endfacet
  facet normal 0.96561 0 0.259995
    outer loop
      vertex 9.95344 2.5 5.52264
      vertex 9.81425 9.53674e-007 6.03956
      vertex 9.95344 0 5.52264
    endloop
  endfacet
  facet normal 0.0308145 0 0.999525
    outer loop
      vertex 1.5 2.5 10
      vertex 2.38849 9.53674e-007 9.97261
      vertex 2.38849 2.5 9.97261
    endloop
  endfacet
  facet normal 0.0308145 0 0.999525
    outer loop
      vertex 2.38849 9.53674e-007 9.97261
      vertex 1.5 2.5 10
      vertex 1.5 9.53674e-007 10
    endloop
  endfacet
  facet normal 0.910034 -0 0.414533
    outer loop
      vertex 9.58398 9.53674e-007 6.54508
      vertex 9.81425 2.5 6.03956
      vertex 9.58398 2.5 6.54508
    endloop
  endfacet
  facet normal 0.910034 0 0.414533
    outer loop
      vertex 9.81425 2.5 6.03956
      vertex 9.58398 9.53674e-007 6.54508
      vertex 9.81425 9.53674e-007 6.03956
    endloop
  endfacet
  facet normal 2.42204e-007 -1 5.08464e-007
    outer loop
      vertex 7.18761 9.53674e-007 8.71572
      vertex 6.49617 9.53674e-007 9.04508
      vertex 9.95344 0 5.52264
    endloop
  endfacet
  facet normal -0.0308134 -3.81289e-007 -0.999525
    outer loop
      vertex 1.5 0 9.53674e-007
      vertex 0.611508 0 0.0273914
      vertex 1.5 2.5 0
    endloop
  endfacet
  facet normal 0.50702 0 0.861934
    outer loop
      vertex 7.18761 2.5 8.71572
      vertex 7.81673 9.53674e-007 8.34565
      vertex 7.81673 2.5 8.34565
    endloop
  endfacet
  facet normal 0.50702 0 0.861934
    outer loop
      vertex 7.81673 9.53674e-007 8.34565
      vertex 7.18761 2.5 8.71572
      vertex 7.18761 9.53674e-007 8.71572
    endloop
  endfacet
  facet normal 8.74312e-007 -1 9.65235e-007
    outer loop
      vertex 8.86122 9.53674e-007 7.5
      vertex 8.37664 9.53674e-007 7.93893
      vertex 9.95344 0 5.52264
    endloop
  endfacet
  facet normal 0.587715 0 0.809068
    outer loop
      vertex 7.81673 2.5 8.34565
      vertex 8.37664 9.53674e-007 7.93893
      vertex 8.37664 2.5 7.93893
    endloop
  endfacet
  facet normal 0.587715 0 0.809068
    outer loop
      vertex 8.37664 9.53674e-007 7.93893
      vertex 7.81673 2.5 8.34565
      vertex 7.81673 9.53674e-007 8.34565
    endloop
  endfacet
  facet normal 0.287102 0 0.9579
    outer loop
      vertex 4.95726 2.5 9.56773
      vertex 5.75 9.53674e-007 9.33013
      vertex 5.75 2.5 9.33013
    endloop
  endfacet
  facet normal 0.287102 0 0.9579
    outer loop
      vertex 5.75 9.53674e-007 9.33013
      vertex 4.95726 2.5 9.56773
      vertex 4.95726 9.53674e-007 9.56773
    endloop
  endfacet
  facet normal 7.38247e-008 -1 3.26944e-007
    outer loop
      vertex 4.95726 9.53674e-007 9.56773
      vertex 4.12664 9.53674e-007 9.75528
      vertex 9.95344 0 5.52264
    endloop
  endfacet
  facet normal 0.220257 0 0.975442
    outer loop
      vertex 4.12664 2.5 9.75528
      vertex 4.95726 9.53674e-007 9.56773
      vertex 4.95726 2.5 9.56773
    endloop
  endfacet
  facet normal 0.220257 0 0.975442
    outer loop
      vertex 4.95726 9.53674e-007 9.56773
      vertex 4.12664 2.5 9.75528
      vertex 4.12664 9.53674e-007 9.75528
    endloop
  endfacet
  facet normal 0.356854 0 0.93416
    outer loop
      vertex 5.75 2.5 9.33013
      vertex 6.49617 9.53674e-007 9.04508
      vertex 6.49617 2.5 9.04508
    endloop
  endfacet
  facet normal 0.356854 0 0.93416
    outer loop
      vertex 6.49617 9.53674e-007 9.04508
      vertex 5.75 2.5 9.33013
      vertex 5.75 9.53674e-007 9.33013
    endloop
  endfacet
  facet normal -3.11238e-015 -1 2.12999e-007
    outer loop
      vertex 1.5 9.53674e-007 10
      vertex 4.05845 3.65447e-008 5.69421
      vertex 5.14397 2.20932e-007 6.55988
    endloop
  endfacet
  facet normal -1.00167e-015 -1 2.12999e-007
    outer loop
      vertex 0 0 5.52264
      vertex 4.05845 3.65447e-008 5.69421
      vertex 0 7.84452e-007 9.20553
    endloop
  endfacet
  facet normal 0 -1 2.12999e-007
    outer loop
      vertex 4.05845 3.65447e-008 5.69421
      vertex 0 0 5.52264
      vertex 4.05845 0 5.52264
    endloop
  endfacet
  facet normal -2.91134e-014 -1 2.12999e-007
    outer loop
      vertex 4.05845 3.65447e-008 5.69421
      vertex 1.5 9.53674e-007 10
      vertex 0 7.84452e-007 9.20553
    endloop
  endfacet
  facet normal 9.11003e-015 -1 2.12999e-007
    outer loop
      vertex 6.49758 1.55125e-007 6.25093
      vertex 1.5 9.53674e-007 10
      vertex 5.14397 2.20932e-007 6.55988
    endloop
  endfacet
  facet normal -1.29864e-015 -1 2.12999e-007
    outer loop
      vertex 6.49758 1.55125e-007 6.25093
      vertex 9.95344 0 5.52264
      vertex 1.5 9.53674e-007 10
    endloop
  endfacet
  facet normal 0 -1 2.12999e-007
    outer loop
      vertex 9.95344 0 5.52264
      vertex 6.49758 1.55125e-007 6.25093
      vertex 6.84831 0 5.52264
    endloop
  endfacet
  facet normal -0.0927654 0 0.995688
    outer loop
      vertex 0 2.5 9.91564
      vertex 0.611508 9.53674e-007 9.97261
      vertex 0.611508 2.5 9.97261
    endloop
  endfacet
  facet normal -0.0927654 0 0.995688
    outer loop
      vertex 0.611508 9.53674e-007 9.97261
      vertex 0 2.5 9.91564
      vertex 0 9.53674e-007 9.91564
    endloop
  endfacet
  facet normal -0.0308145 0 -0.999525
    outer loop
      vertex 1.5 2.5 0
      vertex 0.611508 0 0.0273914
      vertex 0.611508 2.5 0.0273914
    endloop
  endfacet
  facet normal 0 1 0
    outer loop
      vertex -22.5 2.5 10
      vertex -29 2.5 5.52264
      vertex -30 2.5 10
    endloop
  endfacet
  facet normal 0 1 -0
    outer loop
      vertex -22.5 2.5 0
      vertex -29 2.5 5.52264
      vertex -22.5 2.5 10
    endloop
  endfacet
  facet normal 0 1 0
    outer loop
      vertex -29 2.5 5.52264
      vertex -22.5 2.5 0
      vertex -29 2.5 0.0843637
    endloop
  endfacet
  facet normal 0 1 0
    outer loop
      vertex -22.5 2.5 0
      vertex -29.6115 2.5 0.0273914
      vertex -29 2.5 0.0843637
    endloop
  endfacet
  facet normal 0 1 0
    outer loop
      vertex -30 2.5 0
      vertex -29.6115 2.5 0.0273914
      vertex -22.5 2.5 0
    endloop
  endfacet
  facet normal 0 1 0
    outer loop
      vertex -29.6115 2.5 0.0273914
      vertex -30 2.5 0
      vertex -30 2.5 0.015415
    endloop
  endfacet
  facet normal 0 1 0
    outer loop
      vertex -30 2.5 10
      vertex -29 2.5 5.52264
      vertex -30 2.5 5.52264
    endloop
  endfacet
  facet normal 0 1 0
    outer loop
      vertex 4.05845 2.5 5.69421
      vertex 1.5 2.5 10
      vertex 2.38849 2.5 9.97261
    endloop
  endfacet
  facet normal 0 1 0
    outer loop
      vertex 1.5 2.5 10
      vertex 4.05845 2.5 5.69421
      vertex 0.611508 2.5 9.97261
    endloop
  endfacet
  facet normal 0 1 0
    outer loop
      vertex 4.05845 2.5 5.69421
      vertex 2.38849 2.5 9.97261
      vertex 3.26725 2.5 9.89074
    endloop
  endfacet
  facet normal 0 1 -0
    outer loop
      vertex 0 2.5 9.91564
      vertex -7.5 2.5 10
      vertex 0 2.5 10
    endloop
  endfacet
  facet normal 0 1 0
    outer loop
      vertex 5.14397 2.5 6.55988
      vertex 3.26725 2.5 9.89074
      vertex 4.12664 2.5 9.75528
    endloop
  endfacet
  facet normal 0 1 0
    outer loop
      vertex 0.611508 2.5 9.97261
      vertex 4.05845 2.5 5.69421
      vertex 0 2.5 9.91564
    endloop
  endfacet
  facet normal 0 1 0
    outer loop
      vertex 5.14397 2.5 6.55988
      vertex 4.12664 2.5 9.75528
      vertex 4.95726 2.5 9.56773
    endloop
  endfacet
  facet normal 0 1 -0
    outer loop
      vertex 5.14397 2.5 6.55988
      vertex 4.95726 2.5 9.56773
      vertex 5.75 2.5 9.33013
    endloop
  endfacet
  facet normal 0 1 0
    outer loop
      vertex 5.14397 2.5 6.55988
      vertex 5.75 2.5 9.33013
      vertex 6.49617 2.5 9.04508
    endloop
  endfacet
  facet normal 0 1 -0
    outer loop
      vertex 6.49758 2.5 6.25093
      vertex 6.49617 2.5 9.04508
      vertex 7.18761 2.5 8.71572
    endloop
  endfacet
  facet normal 0 1 0
    outer loop
      vertex 6.49758 2.5 6.25093
      vertex 7.18761 2.5 8.71572
      vertex 7.81673 2.5 8.34565
    endloop
  endfacet
  facet normal 0 1 0
    outer loop
      vertex 6.49758 2.5 6.25093
      vertex 7.81673 2.5 8.34565
      vertex 8.37664 2.5 7.93893
    endloop
  endfacet
  facet normal 0 1 0
    outer loop
      vertex 6.49758 2.5 6.25093
      vertex 8.37664 2.5 7.93893
      vertex 8.86122 2.5 7.5
    endloop
  endfacet
  facet normal 0 1 0
    outer loop
      vertex 6.49758 2.5 6.25093
      vertex 8.86122 2.5 7.5
      vertex 9.26514 2.5 7.03368
    endloop
  endfacet
  facet normal 0 1 0
    outer loop
      vertex 3.26725 2.5 9.89074
      vertex 5.14397 2.5 6.55988
      vertex 4.05845 2.5 5.69421
    endloop
  endfacet
  facet normal 0 1 0
    outer loop
      vertex 0 2.5 0.0843637
      vertex 0 2.5 9.91564
      vertex 4.05845 2.5 5.69421
    endloop
  endfacet
  facet normal 0 1 0
    outer loop
      vertex 0 2.5 0.0843637
      vertex 4.05845 2.5 5.69421
      vertex 4.05845 2.5 4.30579
    endloop
  endfacet
  facet normal 0 1 0
    outer loop
      vertex 3.26725 2.5 0.109262
      vertex 4.05845 2.5 4.30579
      vertex 5.14397 2.5 3.44012
    endloop
  endfacet
  facet normal 0 1 -0
    outer loop
      vertex 8.37664 2.5 2.06107
      vertex 6.49758 2.5 3.74907
      vertex 8.86122 2.5 2.5
    endloop
  endfacet
  facet normal 0 1 -0
    outer loop
      vertex 7.81673 2.5 1.65435
      vertex 6.49758 2.5 3.74907
      vertex 8.37664 2.5 2.06107
    endloop
  endfacet
  facet normal 0 1 -0
    outer loop
      vertex 7.18761 2.5 1.28428
      vertex 6.49758 2.5 3.74907
      vertex 7.81673 2.5 1.65435
    endloop
  endfacet
  facet normal 0 1 0
    outer loop
      vertex 6.49617 2.5 0.954915
      vertex 6.49758 2.5 3.74907
      vertex 7.18761 2.5 1.28428
    endloop
  endfacet
  facet normal 0 1 0
    outer loop
      vertex 6.49758 2.5 3.74907
      vertex 6.49617 2.5 0.954915
      vertex 5.14397 2.5 3.44012
    endloop
  endfacet
  facet normal 0 1 -0
    outer loop
      vertex 5.75 2.5 0.669873
      vertex 5.14397 2.5 3.44012
      vertex 6.49617 2.5 0.954915
    endloop
  endfacet
  facet normal 0 1 0
    outer loop
      vertex 4.95726 2.5 0.432273
      vertex 5.14397 2.5 3.44012
      vertex 5.75 2.5 0.669873
    endloop
  endfacet
  facet normal 0 1 0
    outer loop
      vertex 4.12664 2.5 0.244718
      vertex 5.14397 2.5 3.44012
      vertex 4.95726 2.5 0.432273
    endloop
  endfacet
  facet normal 0 1 0
    outer loop
      vertex 3.26725 2.5 0.109262
      vertex 5.14397 2.5 3.44012
      vertex 4.12664 2.5 0.244718
    endloop
  endfacet
  facet normal 0 1 0
    outer loop
      vertex 4.05845 2.5 4.30579
      vertex 3.26725 2.5 0.109262
      vertex 2.38849 2.5 0.0273914
    endloop
  endfacet
  facet normal 0 1 0
    outer loop
      vertex 4.05845 2.5 4.30579
      vertex 2.38849 2.5 0.0273914
      vertex 1.5 2.5 0
    endloop
  endfacet
  facet normal 0 1 0
    outer loop
      vertex -7.5 2.5 0
      vertex 0 2.5 0.0843637
      vertex 0 2.5 0
    endloop
  endfacet
  facet normal 0 1 0
    outer loop
      vertex 0 2.5 0.0843637
      vertex -7.5 2.5 0
      vertex -7.5 2.5 10
    endloop
  endfacet
  facet normal 0 1 0
    outer loop
      vertex 4.05845 2.5 4.30579
      vertex 1.5 2.5 0
      vertex 0.611508 2.5 0.0273914
    endloop
  endfacet
  facet normal 0 1 0
    outer loop
      vertex 0 2.5 9.91564
      vertex 0 2.5 0.0843637
      vertex -7.5 2.5 10
    endloop
  endfacet
  facet normal 0 1 0
    outer loop
      vertex 4.05845 2.5 4.30579
      vertex 0.611508 2.5 0.0273914
      vertex 0 2.5 0.0843637
    endloop
  endfacet
  facet normal 0 1 0
    outer loop
      vertex 7.1 2.5 5
      vertex 9.26514 2.5 7.03368
      vertex 9.58398 2.5 6.54508
    endloop
  endfacet
  facet normal 0 1 0
    outer loop
      vertex 6.49617 2.5 9.04508
      vertex 6.49758 2.5 6.25093
      vertex 5.14397 2.5 6.55988
    endloop
  endfacet
  facet normal 0 1 0
    outer loop
      vertex 7.1 2.5 5
      vertex 9.58398 2.5 6.54508
      vertex 9.81425 2.5 6.03956
    endloop
  endfacet
  facet normal 0 1 0
    outer loop
      vertex 7.1 2.5 5
      vertex 9.81425 2.5 6.03956
      vertex 9.95344 2.5 5.52264
    endloop
  endfacet
  facet normal 0 1 0
    outer loop
      vertex 7.1 2.5 5
      vertex 9.95344 2.5 5.52264
      vertex 10 2.5 5
    endloop
  endfacet
  facet normal 0 1 0
    outer loop
      vertex 9.26514 2.5 7.03368
      vertex 7.1 2.5 5
      vertex 6.49758 2.5 6.25093
    endloop
  endfacet
  facet normal 0 1 -0
    outer loop
      vertex 9.95344 2.5 4.47736
      vertex 7.1 2.5 5
      vertex 10 2.5 5
    endloop
  endfacet
  facet normal 0 1 -0
    outer loop
      vertex 9.81425 2.5 3.96044
      vertex 7.1 2.5 5
      vertex 9.95344 2.5 4.47736
    endloop
  endfacet
  facet normal 0 1 -0
    outer loop
      vertex 9.58398 2.5 3.45492
      vertex 7.1 2.5 5
      vertex 9.81425 2.5 3.96044
    endloop
  endfacet
  facet normal 0 1 -0
    outer loop
      vertex 9.26514 2.5 2.96632
      vertex 7.1 2.5 5
      vertex 9.58398 2.5 3.45492
    endloop
  endfacet
  facet normal 0 1 0
    outer loop
      vertex 7.1 2.5 5
      vertex 9.26514 2.5 2.96632
      vertex 6.49758 2.5 3.74907
    endloop
  endfacet
  facet normal 0 1 -0
    outer loop
      vertex 8.86122 2.5 2.5
      vertex 6.49758 2.5 3.74907
      vertex 9.26514 2.5 2.96632
    endloop
  endfacet
  facet normal 3.20285e-006 -1 2.09008e-006
    outer loop
      vertex 9.58398 9.53674e-007 6.54508
      vertex 9.26514 9.53674e-007 7.03368
      vertex 9.95344 0 5.52264
    endloop
  endfacet
  facet normal 0.837459 -0 0.5465
    outer loop
      vertex 9.26514 9.53674e-007 7.03368
      vertex 9.58398 2.5 6.54508
      vertex 9.26514 2.5 7.03368
    endloop
  endfacet
  facet normal 0.837459 0 0.5465
    outer loop
      vertex 9.58398 2.5 6.54508
      vertex 9.26514 9.53674e-007 7.03368
      vertex 9.58398 9.53674e-007 6.54508
    endloop
  endfacet
  facet normal 1.12197e-007 -1 3.74338e-007
    outer loop
      vertex 5.75 9.53674e-007 9.33013
      vertex 4.95726 9.53674e-007 9.56773
      vertex 9.95344 0 5.52264
    endloop
  endfacet
  facet normal 0.155695 0 0.987805
    outer loop
      vertex 3.26725 2.5 9.89074
      vertex 4.12664 9.53674e-007 9.75528
      vertex 4.12664 2.5 9.75528
    endloop
  endfacet
  facet normal 0.155695 0 0.987805
    outer loop
      vertex 4.12664 9.53674e-007 9.75528
      vertex 3.26725 2.5 9.89074
      vertex 3.26725 9.53674e-007 9.89074
    endloop
  endfacet
  facet normal 2.37241e-008 -1 2.54641e-007
    outer loop
      vertex 3.26725 9.53674e-007 9.89074
      vertex 2.38849 9.53674e-007 9.97261
      vertex 9.95344 0 5.52264
    endloop
  endfacet
  facet normal 0.0927651 0 0.995688
    outer loop
      vertex 2.38849 2.5 9.97261
      vertex 3.26725 9.53674e-007 9.89074
      vertex 3.26725 2.5 9.89074
    endloop
  endfacet
  facet normal 0.0927651 0 0.995688
    outer loop
      vertex 3.26725 9.53674e-007 9.89074
      vertex 2.38849 2.5 9.97261
      vertex 2.38849 9.53674e-007 9.97261
    endloop
  endfacet
  facet normal 0.430046 0 0.902807
    outer loop
      vertex 6.49617 2.5 9.04508
      vertex 7.18761 9.53674e-007 8.71572
      vertex 7.18761 2.5 8.71572
    endloop
  endfacet
  facet normal 0.430046 0 0.902807
    outer loop
      vertex 7.18761 9.53674e-007 8.71572
      vertex 6.49617 2.5 9.04508
      vertex 6.49617 9.53674e-007 9.04508
    endloop
  endfacet
  facet normal -6.97224e-009 -1 2.26163e-007
    outer loop
      vertex 0 7.84452e-007 9.20553
      vertex 0.611508 9.53674e-007 9.97261
      vertex 0 8.76585e-007 9.6129
    endloop
  endfacet
  facet normal -6.97243e-009 -1 2.26163e-007
    outer loop
      vertex 0.611508 9.53674e-007 9.97261
      vertex 0 7.84452e-007 9.20553
      vertex 1.5 9.53674e-007 10
    endloop
  endfacet
  facet normal -0.0308145 0 0.999525
    outer loop
      vertex 0.611508 2.5 9.97261
      vertex 1.5 9.53674e-007 10
      vertex 1.5 2.5 10
    endloop
  endfacet
  facet normal -0.0308145 0 0.999525
    outer loop
      vertex 1.5 9.53674e-007 10
      vertex 0.611508 2.5 9.97261
      vertex 0.611508 9.53674e-007 9.97261
    endloop
  endfacet
  facet normal 0.996055 0 -0.0887422
    outer loop
      vertex 10 0 5
      vertex 9.95344 2.5 4.47736
      vertex 10 2.5 5
    endloop
  endfacet
  facet normal 0.996055 0 -0.0887422
    outer loop
      vertex 9.95344 2.5 4.47736
      vertex 10 0 5
      vertex 9.95344 0 4.47736
    endloop
  endfacet
  facet normal 0.287102 0 -0.9579
    outer loop
      vertex 4.95726 0 0.432273
      vertex 5.75 2.5 0.669873
      vertex 5.75 0 0.669873
    endloop
  endfacet
  facet normal 0.287102 0 -0.9579
    outer loop
      vertex 5.75 2.5 0.669873
      vertex 4.95726 0 0.432273
      vertex 4.95726 2.5 0.432273
    endloop
  endfacet
  facet normal 0.50702 0 -0.861934
    outer loop
      vertex 7.18761 0 1.28428
      vertex 7.81673 2.5 1.65435
      vertex 7.81673 0 1.65435
    endloop
  endfacet
  facet normal 0.50702 0 -0.861934
    outer loop
      vertex 7.81673 2.5 1.65435
      vertex 7.18761 0 1.28428
      vertex 7.18761 2.5 1.28428
    endloop
  endfacet
  facet normal 0.671338 0 -0.741151
    outer loop
      vertex 8.37664 0 2.06107
      vertex 8.86122 2.5 2.5
      vertex 8.86122 0 2.5
    endloop
  endfacet
  facet normal 0.671338 0 -0.741151
    outer loop
      vertex 8.86122 2.5 2.5
      vertex 8.37664 0 2.06107
      vertex 8.37664 2.5 2.06107
    endloop
  endfacet
  facet normal 0.0308134 -3.81289e-007 -0.999525
    outer loop
      vertex 2.38849 0 0.0273914
      vertex 1.5 0 9.53674e-007
      vertex 1.5 2.5 0
    endloop
  endfacet
  facet normal -0.0927651 0 -0.995688
    outer loop
      vertex 0 0 0.0843637
      vertex 0.611508 2.5 0.0273914
      vertex 0.611508 0 0.0273914
    endloop
  endfacet
  facet normal -0.0927651 0 -0.995688
    outer loop
      vertex 0.611508 2.5 0.0273914
      vertex 0 0 0.0843637
      vertex 0 2.5 0.0843637
    endloop
  endfacet
  facet normal 9.90519e-006 -1 4.51195e-006
    outer loop
      vertex 9.81425 9.53674e-007 6.03956
      vertex 9.58398 9.53674e-007 6.54508
      vertex 9.95344 0 5.52264
    endloop
  endfacet
  facet normal 0.755867 0 0.654726
    outer loop
      vertex 9.26514 2.5 7.03368
      vertex 8.86122 9.53674e-007 7.5
      vertex 9.26514 9.53674e-007 7.03368
    endloop
  endfacet
  facet normal 1.53682e-006 -1 1.33118e-006
    outer loop
      vertex 9.26514 9.53674e-007 7.03368
      vertex 8.86122 9.53674e-007 7.5
      vertex 9.95344 0 5.52264
    endloop
  endfacet
  facet normal 0.671337 0 0.741152
    outer loop
      vertex 8.37664 2.5 7.93893
      vertex 8.37664 9.53674e-007 7.93893
      vertex 8.86122 9.53674e-007 7.5
    endloop
  endfacet
  facet normal 0.671338 2.82727e-007 0.741151
    outer loop
      vertex 8.86122 2.5 7.5
      vertex 8.37664 2.5 7.93893
      vertex 8.86122 9.53674e-007 7.5
    endloop
  endfacet
  facet normal 0.755866 2.49758e-007 0.654726
    outer loop
      vertex 8.86122 2.5 7.5
      vertex 8.86122 9.53674e-007 7.5
      vertex 9.26514 2.5 7.03368
    endloop
  endfacet
  facet normal 1.65463e-007 -1 4.33143e-007
    outer loop
      vertex 6.49617 9.53674e-007 9.04508
      vertex 5.75 9.53674e-007 9.33013
      vertex 9.95344 0 5.52264
    endloop
  endfacet
  facet normal 4.53543e-008 -1 2.87751e-007
    outer loop
      vertex 4.12664 9.53674e-007 9.75528
      vertex 3.26725 9.53674e-007 9.89074
      vertex 9.95344 0 5.52264
    endloop
  endfacet
  facet normal 6.97243e-009 -1 2.26164e-007
    outer loop
      vertex 2.38849 9.53674e-007 9.97261
      vertex 1.5 9.53674e-007 10
      vertex 9.95344 0 5.52264
    endloop
  endfacet
  facet normal -2.37243e-008 -1 2.54642e-007
    outer loop
      vertex 0 9.53674e-007 9.91564
      vertex 0 8.76585e-007 9.6129
      vertex 0.611508 9.53674e-007 9.97261
    endloop
  endfacet
  facet normal 0 -1 0
    outer loop
      vertex -30 0 10
      vertex 0 0 5.52264
      vertex 0 0 10
    endloop
  endfacet
  facet normal 0 -1 0
    outer loop
      vertex 0 0 5.52264
      vertex 4.05845 0 4.30579
      vertex 4.05845 0 5.52264
    endloop
  endfacet
  facet normal 0 -1 0
    outer loop
      vertex -30 0 0
      vertex 0 0 5.52264
      vertex -30 0 10
    endloop
  endfacet
  facet normal 0 -1 0
    outer loop
      vertex 0.611508 0 0.0273914
      vertex 0 0 5.52264
      vertex 0 0 0.0843637
    endloop
  endfacet
  facet normal 0 -1 0
    outer loop
      vertex 6.49758 0 3.74907
      vertex 8.86122 0 2.5
      vertex 9.26514 0 2.96632
    endloop
  endfacet
  facet normal 0 -1 0
    outer loop
      vertex 1.5 0 9.53674e-007
      vertex 0 0 5.52264
      vertex 0.611508 0 0.0273914
    endloop
  endfacet
  facet normal 0 -1 0
    outer loop
      vertex 0 0 5.52264
      vertex 1.5 0 9.53674e-007
      vertex 4.05845 0 4.30579
    endloop
  endfacet
  facet normal -0 -1 0
    outer loop
      vertex 2.38849 0 0.0273914
      vertex 4.05845 0 4.30579
      vertex 1.5 0 9.53674e-007
    endloop
  endfacet
  facet normal -0 -1 0
    outer loop
      vertex 4.95726 0 0.432273
      vertex 5.14397 0 3.44012
      vertex 4.12664 0 0.244718
    endloop
  endfacet
  facet normal -0 -1 0
    outer loop
      vertex 5.75 0 0.669873
      vertex 5.14397 0 3.44012
      vertex 4.95726 0 0.432273
    endloop
  endfacet
  facet normal -0 -1 0
    outer loop
      vertex 6.49617 0 0.954915
      vertex 5.14397 0 3.44012
      vertex 5.75 0 0.669873
    endloop
  endfacet
  facet normal 0 -1 0
    outer loop
      vertex 6.49758 0 3.74907
      vertex 8.37664 0 2.06107
      vertex 8.86122 0 2.5
    endloop
  endfacet
  facet normal 0 -1 0
    outer loop
      vertex 6.49758 0 3.74907
      vertex 7.18761 0 1.28428
      vertex 7.81673 0 1.65435
    endloop
  endfacet
  facet normal 0 -1 0
    outer loop
      vertex 6.49758 0 3.74907
      vertex 7.81673 0 1.65435
      vertex 8.37664 0 2.06107
    endloop
  endfacet
  facet normal 0 -1 -0
    outer loop
      vertex 6.49758 0 3.74907
      vertex 6.49617 0 0.954915
      vertex 7.18761 0 1.28428
    endloop
  endfacet
  facet normal 0 -1 -0
    outer loop
      vertex 0 0 5.52264
      vertex -30 0 0
      vertex 0 0 0.0843637
    endloop
  endfacet
  facet normal 0 -1 -0
    outer loop
      vertex 0 0 0.0843637
      vertex -30 0 0
      vertex 0 0 0
    endloop
  endfacet
  facet normal 0 -1 0
    outer loop
      vertex 7.1 0 5
      vertex 9.95344 0 5.52264
      vertex 6.84831 0 5.52264
    endloop
  endfacet
  facet normal 0 -1 0
    outer loop
      vertex 7.1 0 5
      vertex 10 0 5
      vertex 9.95344 0 5.52264
    endloop
  endfacet
  facet normal 0 -1 0
    outer loop
      vertex 7.1 0 5
      vertex 9.95344 0 4.47736
      vertex 10 0 5
    endloop
  endfacet
  facet normal 0 -1 0
    outer loop
      vertex 7.1 0 5
      vertex 9.81425 0 3.96044
      vertex 9.95344 0 4.47736
    endloop
  endfacet
  facet normal 0 -1 0
    outer loop
      vertex 9.26514 0 2.96632
      vertex 7.1 0 5
      vertex 6.49758 0 3.74907
    endloop
  endfacet
  facet normal 0 -1 0
    outer loop
      vertex 7.1 0 5
      vertex 9.58398 0 3.45492
      vertex 9.81425 0 3.96044
    endloop
  endfacet
  facet normal 0 -1 0
    outer loop
      vertex 6.49617 0 0.954915
      vertex 6.49758 0 3.74907
      vertex 5.14397 0 3.44012
    endloop
  endfacet
  facet normal 0 -1 0
    outer loop
      vertex 7.1 0 5
      vertex 9.26514 0 2.96632
      vertex 9.58398 0 3.45492
    endloop
  endfacet
  facet normal -0 -1 0
    outer loop
      vertex 3.26725 0 0.109262
      vertex 4.05845 0 4.30579
      vertex 2.38849 0 0.0273914
    endloop
  endfacet
  facet normal -0 -1 0
    outer loop
      vertex 4.12664 0 0.244718
      vertex 5.14397 0 3.44012
      vertex 3.26725 0 0.109262
    endloop
  endfacet
  facet normal 0 -1 -0
    outer loop
      vertex 4.05845 0 4.30579
      vertex 3.26725 0 0.109262
      vertex 5.14397 0 3.44012
    endloop
  endfacet
  facet normal 0.837459 0 -0.5465
    outer loop
      vertex 9.58398 0 3.45492
      vertex 9.26514 2.5 2.96632
      vertex 9.58398 2.5 3.45492
    endloop
  endfacet
  facet normal 0.837459 0 -0.5465
    outer loop
      vertex 9.26514 2.5 2.96632
      vertex 9.58398 0 3.45492
      vertex 9.26514 0 2.96632
    endloop
  endfacet
  facet normal 0.587715 0 -0.809068
    outer loop
      vertex 7.81673 0 1.65435
      vertex 8.37664 2.5 2.06107
      vertex 8.37664 0 2.06107
    endloop
  endfacet
  facet normal 0.587715 0 -0.809068
    outer loop
      vertex 8.37664 2.5 2.06107
      vertex 7.81673 0 1.65435
      vertex 7.81673 2.5 1.65435
    endloop
  endfacet
  facet normal 0.755866 0 -0.654726
    outer loop
      vertex 9.26514 0 2.96632
      vertex 8.86122 2.5 2.5
      vertex 9.26514 2.5 2.96632
    endloop
  endfacet
  facet normal 0.755866 0 -0.654726
    outer loop
      vertex 8.86122 2.5 2.5
      vertex 9.26514 0 2.96632
      vertex 8.86122 0 2.5
    endloop
  endfacet
  facet normal 0.155695 0 -0.987805
    outer loop
      vertex 3.26725 0 0.109262
      vertex 4.12664 2.5 0.244718
      vertex 4.12664 0 0.244718
    endloop
  endfacet
  facet normal 0.155695 0 -0.987805
    outer loop
      vertex 4.12664 2.5 0.244718
      vertex 3.26725 0 0.109262
      vertex 3.26725 2.5 0.109262
    endloop
  endfacet
  facet normal 0.220257 0 -0.975442
    outer loop
      vertex 4.12664 0 0.244718
      vertex 4.95726 2.5 0.432273
      vertex 4.95726 0 0.432273
    endloop
  endfacet
  facet normal 0.220257 0 -0.975442
    outer loop
      vertex 4.95726 2.5 0.432273
      vertex 4.12664 0 0.244718
      vertex 4.12664 2.5 0.244718
    endloop
  endfacet
  facet normal 0.0927651 0 -0.995688
    outer loop
      vertex 2.38849 0 0.0273914
      vertex 3.26725 2.5 0.109262
      vertex 3.26725 0 0.109262
    endloop
  endfacet
  facet normal 0.0927651 0 -0.995688
    outer loop
      vertex 3.26725 2.5 0.109262
      vertex 2.38849 0 0.0273914
      vertex 2.38849 2.5 0.0273914
    endloop
  endfacet
  facet normal 3.582e-007 -1 6.08939e-007
    outer loop
      vertex 7.81673 9.53674e-007 8.34565
      vertex 7.18761 9.53674e-007 8.71572
      vertex 9.95344 0 5.52264
    endloop
  endfacet
  facet normal 0.910034 0 -0.414533
    outer loop
      vertex 9.81425 0 3.96044
      vertex 9.58398 2.5 3.45492
      vertex 9.81425 2.5 3.96044
    endloop
  endfacet
  facet normal 0.910034 0 -0.414533
    outer loop
      vertex 9.58398 2.5 3.45492
      vertex 9.81425 0 3.96044
      vertex 9.58398 0 3.45492
    endloop
  endfacet
  facet normal 0.96561 0 -0.259995
    outer loop
      vertex 9.95344 0 4.47736
      vertex 9.81425 2.5 3.96044
      vertex 9.95344 2.5 4.47736
    endloop
  endfacet
  facet normal 0.96561 0 -0.259995
    outer loop
      vertex 9.81425 2.5 3.96044
      vertex 9.95344 0 4.47736
      vertex 9.81425 0 3.96044
    endloop
  endfacet
  facet normal 0.430046 0 -0.902807
    outer loop
      vertex 6.49617 0 0.954915
      vertex 7.18761 2.5 1.28428
      vertex 7.18761 0 1.28428
    endloop
  endfacet
  facet normal 0.430046 0 -0.902807
    outer loop
      vertex 7.18761 2.5 1.28428
      vertex 6.49617 0 0.954915
      vertex 6.49617 2.5 0.954915
    endloop
  endfacet
  facet normal 0.356854 0 -0.93416
    outer loop
      vertex 5.75 0 0.669873
      vertex 6.49617 2.5 0.954915
      vertex 6.49617 0 0.954915
    endloop
  endfacet
  facet normal 0.356854 0 -0.93416
    outer loop
      vertex 6.49617 2.5 0.954915
      vertex 5.75 0 0.669873
      vertex 5.75 2.5 0.669873
    endloop
  endfacet
  facet normal 0.0308145 0 -0.999525
    outer loop
      vertex 2.38849 0 0.0273914
      vertex 1.5 2.5 0
      vertex 2.38849 2.5 0.0273914
    endloop
  endfacet
  facet normal 5.45099e-007 -1 7.50401e-007
    outer loop
      vertex 8.37664 9.53674e-007 7.93893
      vertex 7.81673 9.53674e-007 8.34565
      vertex 9.95344 0 5.52264
    endloop
  endfacet
  facet normal -0.900969 5.83764e-008 -0.433884
    outer loop
      vertex 6.84831 0 5.52264
      vertex 6.49758 2.5 6.25093
      vertex 7.1 2.5 5
    endloop
  endfacet
  facet normal -0.900969 0 -0.433884
    outer loop
      vertex 6.84831 0 5.52264
      vertex 7.1 2.5 5
      vertex 7.1 0 5
    endloop
  endfacet
  facet normal -0.900969 -0 -0.433884
    outer loop
      vertex 6.49758 2.5 6.25093
      vertex 6.84831 0 5.52264
      vertex 6.49758 1.55125e-007 6.25093
    endloop
  endfacet
  facet normal -0.222521 0 -0.974928
    outer loop
      vertex 5.14397 2.20932e-007 6.55988
      vertex 6.49758 2.5 6.25093
      vertex 6.49758 1.55125e-007 6.25093
    endloop
  endfacet
  facet normal -0.222521 0 -0.974928
    outer loop
      vertex 6.49758 2.5 6.25093
      vertex 5.14397 2.20932e-007 6.55988
      vertex 5.14397 2.5 6.55988
    endloop
  endfacet
  facet normal 1 0 0
    outer loop
      vertex 4.05845 0 5.52264
      vertex 4.05845 2.5 5.69421
      vertex 4.05845 3.65447e-008 5.69421
    endloop
  endfacet
  facet normal 1 0 0
    outer loop
      vertex 4.05845 2.5 5.69421
      vertex 4.05845 0 5.52264
      vertex 4.05845 2.5 4.30579
    endloop
  endfacet
  facet normal 1 0 0
    outer loop
      vertex 4.05845 2.5 4.30579
      vertex 4.05845 0 5.52264
      vertex 4.05845 0 4.30579
    endloop
  endfacet
  facet normal -0.900969 0 0.433884
    outer loop
      vertex 6.49758 0 3.74907
      vertex 7.1 2.5 5
      vertex 6.49758 2.5 3.74907
    endloop
  endfacet
  facet normal -0.900969 0 0.433884
    outer loop
      vertex 7.1 2.5 5
      vertex 6.49758 0 3.74907
      vertex 7.1 0 5
    endloop
  endfacet
  facet normal 0.62349 0 0.781831
    outer loop
      vertex 4.05845 2.5 4.30579
      vertex 5.14397 0 3.44012
      vertex 5.14397 2.5 3.44012
    endloop
  endfacet
  facet normal 0.62349 0 0.781831
    outer loop
      vertex 5.14397 0 3.44012
      vertex 4.05845 2.5 4.30579
      vertex 4.05845 0 4.30579
    endloop
  endfacet
  facet normal 0.62349 0 -0.781831
    outer loop
      vertex 4.05845 3.65447e-008 5.69421
      vertex 5.14397 2.5 6.55988
      vertex 5.14397 2.20932e-007 6.55988
    endloop
  endfacet
  facet normal 0.62349 0 -0.781831
    outer loop
      vertex 5.14397 2.5 6.55988
      vertex 4.05845 3.65447e-008 5.69421
      vertex 4.05845 2.5 5.69421
    endloop
  endfacet
  facet normal -0.222521 0 0.974928
    outer loop
      vertex 5.14397 2.5 3.44012
      vertex 6.49758 0 3.74907
      vertex 6.49758 2.5 3.74907
    endloop
  endfacet
  facet normal -0.222521 0 0.974928
    outer loop
      vertex 6.49758 0 3.74907
      vertex 5.14397 2.5 3.44012
      vertex 5.14397 0 3.44012
    endloop
  endfacet
  facet normal 1 0 0
    outer loop
      vertex 0 2.5 10
      vertex 0 9.53674e-007 9.91564
      vertex 0 2.5 9.91564
    endloop
  endfacet
  facet normal 1 -0 0
    outer loop
      vertex 0 0 10
      vertex 0 9.53674e-007 9.91564
      vertex 0 2.5 10
    endloop
  endfacet
  facet normal 1 0 0
    outer loop
      vertex 0 0 10
      vertex 0 8.76585e-007 9.6129
      vertex 0 9.53674e-007 9.91564
    endloop
  endfacet
  facet normal 1 0 0
    outer loop
      vertex 0 0 10
      vertex 0 7.84452e-007 9.20553
      vertex 0 8.76585e-007 9.6129
    endloop
  endfacet
  facet normal 1 0 0
    outer loop
      vertex 0 7.84452e-007 9.20553
      vertex 0 0 10
      vertex 0 0 5.52264
    endloop
  endfacet
  facet normal 1 -0 0
    outer loop
      vertex 0 0 0.0843637
      vertex 0 2.5 0
      vertex 0 2.5 0.0843637
    endloop
  endfacet
  facet normal 1 0 0
    outer loop
      vertex 0 2.5 0
      vertex 0 0 0.0843637
      vertex 0 0 0
    endloop
  endfacet
  facet normal -0.996055 0 0.0887385
    outer loop
      vertex -39 1.22461e-015 5
      vertex -38.9534 2.5 5.52264
      vertex -39 2.5 5
    endloop
  endfacet
  facet normal -0.996055 0 0.0887385
    outer loop
      vertex -38.9534 2.5 5.52264
      vertex -39 1.22461e-015 5
      vertex -38.9534 1.2189e-015 5.52264
    endloop
  endfacet
  facet normal -0.96561 0 0.259997
    outer loop
      vertex -38.9534 1.2189e-015 5.52264
      vertex -38.8143 2.5 6.03956
      vertex -38.9534 2.5 5.52264
    endloop
  endfacet
  facet normal -0.96561 0 0.259997
    outer loop
      vertex -38.8143 2.5 6.03956
      vertex -38.9534 1.2189e-015 5.52264
      vertex -38.8143 1.20186e-015 6.03956
    endloop
  endfacet
  facet normal -0.0308145 0 0.999525
    outer loop
      vertex -31.3885 2.5 9.97261
      vertex -30.5 1.83691e-016 10
      vertex -30.5 2.5 10
    endloop
  endfacet
  facet normal -0.0308145 0 0.999525
    outer loop
      vertex -30.5 1.83691e-016 10
      vertex -31.3885 2.5 9.97261
      vertex -31.3885 2.92496e-016 9.97261
    endloop
  endfacet
  facet normal -0.910034 0 0.414533
    outer loop
      vertex -38.8143 1.20186e-015 6.03956
      vertex -38.584 2.5 6.54508
      vertex -38.8143 2.5 6.03956
    endloop
  endfacet
  facet normal -0.910034 0 0.414533
    outer loop
      vertex -38.584 2.5 6.54508
      vertex -38.8143 1.20186e-015 6.03956
      vertex -38.584 1.17366e-015 6.54508
    endloop
  endfacet
  facet normal -2.42203e-007 1 5.08464e-007
    outer loop
      vertex -35.4962 2.5 9.04508
      vertex -38.9534 2.5 5.52264
      vertex -36.1876 2.5 8.71572
    endloop
  endfacet
  facet normal 0.0308134 3.81289e-007 -0.999525
    outer loop
      vertex -30.5 2.5 9.53674e-007
      vertex -30 1.40688 0.0154146
      vertex -30.5 1.83691e-016 0
    endloop
  endfacet
  facet normal 0.0308134 3.81508e-007 -0.999525
    outer loop
      vertex -30 1.40688 0.0154146
      vertex -30.5 2.5 9.53674e-007
      vertex -30 2.5 0.015415
    endloop
  endfacet
  facet normal 0 -1 -0
    outer loop
      vertex -30 2.5 0.015415
      vertex -30.5 2.5 9.53674e-007
      vertex -29.6115 2.5 0.0273914
    endloop
  endfacet
  facet normal -0.507021 0 0.861934
    outer loop
      vertex -36.8167 2.5 8.34565
      vertex -36.1876 8.80199e-016 8.71572
      vertex -36.1876 2.5 8.71572
    endloop
  endfacet
  facet normal -0.507021 0 0.861934
    outer loop
      vertex -36.1876 8.80199e-016 8.71572
      vertex -36.8167 2.5 8.34565
      vertex -36.8167 9.57242e-016 8.34565
    endloop
  endfacet
  facet normal -8.74322e-007 1 9.65242e-007
    outer loop
      vertex -37.3766 2.5 7.93893
      vertex -38.9534 2.5 5.52264
      vertex -37.8612 2.5 7.5
    endloop
  endfacet
  facet normal -0.587715 0 0.809068
    outer loop
      vertex -37.3766 2.5 7.93893
      vertex -36.8167 9.57242e-016 8.34565
      vertex -36.8167 2.5 8.34565
    endloop
  endfacet
  facet normal -0.587715 0 0.809068
    outer loop
      vertex -36.8167 9.57242e-016 8.34565
      vertex -37.3766 2.5 7.93893
      vertex -37.3766 1.02581e-015 7.93893
    endloop
  endfacet
  facet normal -0.287102 0 0.9579
    outer loop
      vertex -34.75 2.5 9.33013
      vertex -33.9573 6.07069e-016 9.56773
      vertex -33.9573 2.5 9.56773
    endloop
  endfacet
  facet normal -0.287102 0 0.9579
    outer loop
      vertex -33.9573 6.07069e-016 9.56773
      vertex -34.75 2.5 9.33013
      vertex -34.75 7.04149e-016 9.33013
    endloop
  endfacet
  facet normal -7.38248e-008 1 3.26944e-007
    outer loop
      vertex -33.1266 2.5 9.75528
      vertex -38.9534 2.5 5.52264
      vertex -33.9573 2.5 9.56773
    endloop
  endfacet
  facet normal -0.220257 0 0.975442
    outer loop
      vertex -33.9573 2.5 9.56773
      vertex -33.1266 5.05351e-016 9.75528
      vertex -33.1266 2.5 9.75528
    endloop
  endfacet
  facet normal -0.220257 0 0.975442
    outer loop
      vertex -33.1266 5.05351e-016 9.75528
      vertex -33.9573 2.5 9.56773
      vertex -33.9573 6.07069e-016 9.56773
    endloop
  endfacet
  facet normal -0.356854 0 0.93416
    outer loop
      vertex -35.4962 2.5 9.04508
      vertex -34.75 7.04149e-016 9.33013
      vertex -34.75 2.5 9.33013
    endloop
  endfacet
  facet normal -0.356854 0 0.93416
    outer loop
      vertex -34.75 7.04149e-016 9.33013
      vertex -35.4962 2.5 9.04508
      vertex -35.4962 7.95526e-016 9.04508
    endloop
  endfacet
  facet normal -2.91796e-008 1 2.38825e-007
    outer loop
      vertex -30.5 2.5 10
      vertex -33.0584 2.5 5.69421
      vertex -34.144 2.5 6.55988
    endloop
  endfacet
  facet normal 1.26999e-008 1 2.2639e-007
    outer loop
      vertex -30 2.5 5.52264
      vertex -33.0584 2.5 5.69421
      vertex -30 2.5 9.73518
    endloop
  endfacet
  facet normal 0 1 0
    outer loop
      vertex -33.0584 2.5 5.69421
      vertex -30 2.5 5.52264
      vertex -33.0584 2.5 5.52264
    endloop
  endfacet
  facet normal 8.9229e-008 1 1.68468e-007
    outer loop
      vertex -33.0584 2.5 5.69421
      vertex -30.5 2.5 10
      vertex -30 2.5 9.73518
    endloop
  endfacet
  facet normal -6.25872e-008 1 2.74212e-007
    outer loop
      vertex -35.4976 2.5 6.25093
      vertex -30.5 2.5 10
      vertex -34.144 2.5 6.55988
    endloop
  endfacet
  facet normal 4.00293e-008 1 1.37422e-007
    outer loop
      vertex -35.4976 2.5 6.25093
      vertex -38.9534 2.5 5.52264
      vertex -30.5 2.5 10
    endloop
  endfacet
  facet normal -0 1 3.27369e-007
    outer loop
      vertex -38.9534 2.5 5.52264
      vertex -35.4976 2.5 6.25093
      vertex -35.8483 2.5 5.52264
    endloop
  endfacet
  facet normal 0 0 0
    outer loop
      vertex -30 2.5 5.52264
      vertex -29 2.5 5.52264
      vertex -33.0584 2.5 5.52264
    endloop
  endfacet
  facet normal 0.0308145 0 -0.999525
    outer loop
      vertex -30 1.22461e-016 0.0154146
      vertex -30.5 1.83691e-016 0
      vertex -30 1.40688 0.0154146
    endloop
  endfacet
  facet normal -1.22461e-016 -1 1.57553e-024
    outer loop
      vertex -36.1 8.6947e-016 5
      vertex -38.2651 1.13461e-015 7.03368
      vertex -38.584 1.17366e-015 6.54508
    endloop
  endfacet
  facet normal -1.22461e-016 -1 -7.66833e-022
    outer loop
      vertex -38.2651 1.13461e-015 7.03368
      vertex -35.4976 7.95698e-016 6.25093
      vertex -34.144 6.29933e-016 6.55988
    endloop
  endfacet
  facet normal -1.22461e-016 -1 -4.14902e-023
    outer loop
      vertex -36.1 8.6947e-016 5
      vertex -38.584 1.17366e-015 6.54508
      vertex -38.8143 1.20186e-015 6.03956
    endloop
  endfacet
  facet normal -1.22461e-016 -1 1.72046e-023
    outer loop
      vertex -36.1 8.6947e-016 5
      vertex -38.8143 1.20186e-015 6.03956
      vertex -38.9534 1.2189e-015 5.52264
    endloop
  endfacet
  facet normal -1.22461e-016 -1 -3.66366e-022
    outer loop
      vertex -36.1 8.6947e-016 5
      vertex -38.9534 1.2189e-015 5.52264
      vertex -39 1.22461e-015 5
    endloop
  endfacet
  facet normal -1.2246e-016 -1 4.05767e-023
    outer loop
      vertex -38.2651 1.13461e-015 7.03368
      vertex -36.1 8.6947e-016 5
      vertex -35.4976 7.95698e-016 6.25093
    endloop
  endfacet
  facet normal -1.22461e-016 -1 3.66366e-022
    outer loop
      vertex -38.9534 1.2189e-015 4.47736
      vertex -36.1 8.6947e-016 5
      vertex -39 1.22461e-015 5
    endloop
  endfacet
  facet normal -1.22461e-016 -1 -1.72046e-023
    outer loop
      vertex -38.8143 1.20186e-015 3.96044
      vertex -36.1 8.6947e-016 5
      vertex -38.9534 1.2189e-015 4.47736
    endloop
  endfacet
  facet normal -1.22461e-016 -1 4.14902e-023
    outer loop
      vertex -38.584 1.17366e-015 3.45492
      vertex -36.1 8.6947e-016 5
      vertex -38.8143 1.20186e-015 3.96044
    endloop
  endfacet
  facet normal -1.22461e-016 -1 -1.57553e-024
    outer loop
      vertex -38.2651 1.13461e-015 2.96632
      vertex -36.1 8.6947e-016 5
      vertex -38.584 1.17366e-015 3.45492
    endloop
  endfacet
  facet normal -1.2246e-016 -1 -4.05767e-023
    outer loop
      vertex -36.1 8.6947e-016 5
      vertex -38.2651 1.13461e-015 2.96632
      vertex -35.4976 7.95698e-016 3.74907
    endloop
  endfacet
  facet normal -1.2246e-016 -1 -5.65082e-022
    outer loop
      vertex -37.8612 1.08515e-015 2.5
      vertex -35.4976 7.95698e-016 3.74907
      vertex -38.2651 1.13461e-015 2.96632
    endloop
  endfacet
  facet normal -1.2246e-016 -1 -1.10628e-022
    outer loop
      vertex -33.0584 4.97e-016 5.69421
      vertex -30.5 1.83691e-016 10
      vertex -31.3885 2.92496e-016 9.97261
    endloop
  endfacet
  facet normal -1.22461e-016 -1 -5.53094e-023
    outer loop
      vertex -33.0584 4.97e-016 5.69421
      vertex -31.3885 2.92496e-016 9.97261
      vertex -32.2673 4.00109e-016 9.89074
    endloop
  endfacet
  facet normal -1.22461e-016 -1 6.97976e-023
    outer loop
      vertex -34.144 6.29933e-016 6.55988
      vertex -32.2673 4.00109e-016 9.89074
      vertex -33.1266 5.05351e-016 9.75528
    endloop
  endfacet
  facet normal -1.22461e-016 -1 9.26193e-023
    outer loop
      vertex -34.144 6.29933e-016 6.55988
      vertex -33.1266 5.05351e-016 9.75528
      vertex -33.9573 6.07069e-016 9.56773
    endloop
  endfacet
  facet normal -1.2246e-016 -1 7.1067e-023
    outer loop
      vertex -34.144 6.29933e-016 6.55988
      vertex -33.9573 6.07069e-016 9.56773
      vertex -34.75 7.04149e-016 9.33013
    endloop
  endfacet
  facet normal -1.22461e-016 -1 3.99683e-023
    outer loop
      vertex -34.144 6.29933e-016 6.55988
      vertex -34.75 7.04149e-016 9.33013
      vertex -35.4962 7.95526e-016 9.04508
    endloop
  endfacet
  facet normal -1.22461e-016 -1 8.16064e-023
    outer loop
      vertex -34.144 6.29933e-016 6.55988
      vertex -35.4962 7.95526e-016 9.04508
      vertex -36.1876 8.80199e-016 8.71572
    endloop
  endfacet
  facet normal -1.22461e-016 -1 -9.26365e-023
    outer loop
      vertex -34.144 6.29933e-016 6.55988
      vertex -36.1876 8.80199e-016 8.71572
      vertex -36.8167 9.57242e-016 8.34565
    endloop
  endfacet
  facet normal -1.22461e-016 -1 -2.78206e-023
    outer loop
      vertex -34.144 6.29933e-016 6.55988
      vertex -36.8167 9.57242e-016 8.34565
      vertex -37.3766 1.02581e-015 7.93893
    endloop
  endfacet
  facet normal -1.22461e-016 -1 -2.90963e-022
    outer loop
      vertex -34.144 6.29933e-016 6.55988
      vertex -37.3766 1.02581e-015 7.93893
      vertex -37.8612 1.08515e-015 7.5
    endloop
  endfacet
  facet normal -1.22461e-016 -1 7.41209e-022
    outer loop
      vertex -34.144 6.29933e-016 6.55988
      vertex -37.8612 1.08515e-015 7.5
      vertex -38.2651 1.13461e-015 7.03368
    endloop
  endfacet
  facet normal -1.2246e-016 -1 -8.33199e-023
    outer loop
      vertex -32.2673 4.00109e-016 9.89074
      vertex -34.144 6.29933e-016 6.55988
      vertex -33.0584 4.97e-016 5.69421
    endloop
  endfacet
  facet normal -1.22461e-016 -1 -2.8015e-023
    outer loop
      vertex -30.5 1.83691e-016 10
      vertex -33.0584 4.97e-016 5.69421
      vertex -30 1.22461e-016 9.98459
    endloop
  endfacet
  facet normal -1.22461e-016 -1 0
    outer loop
      vertex -33.0584 4.97e-016 4.30579
      vertex -30 1.22461e-016 9.98459
      vertex -33.0584 4.97e-016 5.69421
    endloop
  endfacet
  facet normal -1.22461e-016 -1 2.99327e-022
    outer loop
      vertex -37.3766 1.02581e-015 2.06107
      vertex -35.4976 7.95698e-016 3.74907
      vertex -37.8612 1.08515e-015 2.5
    endloop
  endfacet
  facet normal -1.22461e-016 -1 1.13509e-022
    outer loop
      vertex -36.8167 9.57242e-016 1.65435
      vertex -35.4976 7.95698e-016 3.74907
      vertex -37.3766 1.02581e-015 2.06107
    endloop
  endfacet
  facet normal -1.22461e-016 -1 1.5637e-022
    outer loop
      vertex -36.1876 8.80199e-016 1.28428
      vertex -35.4976 7.95698e-016 3.74907
      vertex -36.8167 9.57242e-016 1.65435
    endloop
  endfacet
  facet normal -1.2246e-016 -1 9.22259e-023
    outer loop
      vertex -35.4962 7.95526e-016 0.954915
      vertex -35.4976 7.95698e-016 3.74907
      vertex -36.1876 8.80199e-016 1.28428
    endloop
  endfacet
  facet normal -1.22461e-016 -1 9.20235e-023
    outer loop
      vertex -35.4976 7.95698e-016 3.74907
      vertex -35.4962 7.95526e-016 0.954915
      vertex -34.144 6.29933e-016 3.44012
    endloop
  endfacet
  facet normal -1.22461e-016 -1 -3.99683e-023
    outer loop
      vertex -34.75 7.04149e-016 0.669873
      vertex -34.144 6.29933e-016 3.44012
      vertex -35.4962 7.95526e-016 0.954915
    endloop
  endfacet
  facet normal -1.2246e-016 -1 -7.1067e-023
    outer loop
      vertex -33.9573 6.07069e-016 0.432273
      vertex -34.144 6.29933e-016 3.44012
      vertex -34.75 7.04149e-016 0.669873
    endloop
  endfacet
  facet normal -1.22461e-016 -1 -9.26193e-023
    outer loop
      vertex -33.1266 5.05351e-016 0.244718
      vertex -34.144 6.29933e-016 3.44012
      vertex -33.9573 6.07069e-016 0.432273
    endloop
  endfacet
  facet normal -1.22461e-016 -1 -6.97976e-023
    outer loop
      vertex -32.2673 4.00109e-016 0.109262
      vertex -34.144 6.29933e-016 3.44012
      vertex -33.1266 5.05351e-016 0.244718
    endloop
  endfacet
  facet normal -1.2246e-016 -1 8.33199e-023
    outer loop
      vertex -34.144 6.29933e-016 3.44012
      vertex -32.2673 4.00109e-016 0.109262
      vertex -33.0584 4.97e-016 4.30579
    endloop
  endfacet
  facet normal -1.22461e-016 -1 5.53094e-023
    outer loop
      vertex -31.3885 2.92496e-016 0.0273914
      vertex -33.0584 4.97e-016 4.30579
      vertex -32.2673 4.00109e-016 0.109262
    endloop
  endfacet
  facet normal -1.2246e-016 -1 1.10628e-022
    outer loop
      vertex -30.5 1.83691e-016 0
      vertex -33.0584 4.97e-016 4.30579
      vertex -31.3885 2.92496e-016 0.0273914
    endloop
  endfacet
  facet normal -1.22461e-016 -1 2.8015e-023
    outer loop
      vertex -30 1.22461e-016 0.0154146
      vertex -33.0584 4.97e-016 4.30579
      vertex -30.5 1.83691e-016 0
    endloop
  endfacet
  facet normal -1.22461e-016 -1 0
    outer loop
      vertex -33.0584 4.97e-016 4.30579
      vertex -30 1.22461e-016 0.0154146
      vertex -30 1.22461e-016 9.98459
    endloop
  endfacet
  facet normal -3.20286e-006 1 2.09009e-006
    outer loop
      vertex -38.2651 2.5 7.03368
      vertex -38.9534 2.5 5.52264
      vertex -38.584 2.5 6.54508
    endloop
  endfacet
  facet normal -0.837459 0 0.5465
    outer loop
      vertex -38.584 1.17366e-015 6.54508
      vertex -38.2651 2.5 7.03368
      vertex -38.584 2.5 6.54508
    endloop
  endfacet
  facet normal -0.837459 0 0.5465
    outer loop
      vertex -38.2651 2.5 7.03368
      vertex -38.584 1.17366e-015 6.54508
      vertex -38.2651 1.13461e-015 7.03368
    endloop
  endfacet
  facet normal -1.12197e-007 1 3.74338e-007
    outer loop
      vertex -33.9573 2.5 9.56773
      vertex -38.9534 2.5 5.52264
      vertex -34.75 2.5 9.33013
    endloop
  endfacet
  facet normal -0.155695 0 0.987805
    outer loop
      vertex -33.1266 2.5 9.75528
      vertex -32.2673 4.00109e-016 9.89074
      vertex -32.2673 2.5 9.89074
    endloop
  endfacet
  facet normal -0.155695 0 0.987805
    outer loop
      vertex -32.2673 4.00109e-016 9.89074
      vertex -33.1266 2.5 9.75528
      vertex -33.1266 5.05351e-016 9.75528
    endloop
  endfacet
  facet normal -2.37241e-008 1 2.54641e-007
    outer loop
      vertex -31.3885 2.5 9.97261
      vertex -38.9534 2.5 5.52264
      vertex -32.2673 2.5 9.89074
    endloop
  endfacet
  facet normal -0.0927651 0 0.995688
    outer loop
      vertex -32.2673 2.5 9.89074
      vertex -31.3885 2.92496e-016 9.97261
      vertex -31.3885 2.5 9.97261
    endloop
  endfacet
  facet normal -0.0927651 0 0.995688
    outer loop
      vertex -31.3885 2.92496e-016 9.97261
      vertex -32.2673 2.5 9.89074
      vertex -32.2673 4.00109e-016 9.89074
    endloop
  endfacet
  facet normal -0.430046 0 0.902807
    outer loop
      vertex -36.1876 2.5 8.71572
      vertex -35.4962 7.95526e-016 9.04508
      vertex -35.4962 2.5 9.04508
    endloop
  endfacet
  facet normal -0.430046 0 0.902807
    outer loop
      vertex -35.4962 7.95526e-016 9.04508
      vertex -36.1876 2.5 8.71572
      vertex -36.1876 8.80199e-016 8.71572
    endloop
  endfacet
  facet normal 0 1 -0
    outer loop
      vertex -30 2.5 9.73518
      vertex -30.5 2.5 10
      vertex -30 2.5 9.98459
    endloop
  endfacet
  facet normal 0.0308138 0 0.999525
    outer loop
      vertex -30.5 2.5 10
      vertex -30 1.22461e-016 9.98459
      vertex -30 2.5 9.98459
    endloop
  endfacet
  facet normal 0.0308138 0 0.999525
    outer loop
      vertex -30 1.22461e-016 9.98459
      vertex -30.5 2.5 10
      vertex -30.5 1.83691e-016 10
    endloop
  endfacet
  facet normal -0.996055 0 -0.0887385
    outer loop
      vertex -38.9534 2.5 4.47736
      vertex -39 1.22461e-015 5
      vertex -39 2.5 5
    endloop
  endfacet
  facet normal -0.996055 0 -0.0887385
    outer loop
      vertex -39 1.22461e-015 5
      vertex -38.9534 2.5 4.47736
      vertex -38.9534 1.2189e-015 4.47736
    endloop
  endfacet
  facet normal -0.287102 0 -0.9579
    outer loop
      vertex -34.75 7.04149e-016 0.669873
      vertex -33.9573 2.5 0.432273
      vertex -33.9573 6.07069e-016 0.432273
    endloop
  endfacet
  facet normal -0.287102 0 -0.9579
    outer loop
      vertex -33.9573 2.5 0.432273
      vertex -34.75 7.04149e-016 0.669873
      vertex -34.75 2.5 0.669873
    endloop
  endfacet
  facet normal -0.507021 0 -0.861934
    outer loop
      vertex -36.8167 9.57242e-016 1.65435
      vertex -36.1876 2.5 1.28428
      vertex -36.1876 8.80199e-016 1.28428
    endloop
  endfacet
  facet normal -0.507021 0 -0.861934
    outer loop
      vertex -36.1876 2.5 1.28428
      vertex -36.8167 9.57242e-016 1.65435
      vertex -36.8167 2.5 1.65435
    endloop
  endfacet
  facet normal -0.671339 0 -0.74115
    outer loop
      vertex -37.8612 1.08515e-015 2.5
      vertex -37.3766 2.5 2.06107
      vertex -37.3766 1.02581e-015 2.06107
    endloop
  endfacet
  facet normal -0.671339 0 -0.74115
    outer loop
      vertex -37.3766 2.5 2.06107
      vertex -37.8612 1.08515e-015 2.5
      vertex -37.8612 2.5 2.5
    endloop
  endfacet
  facet normal -0.0308134 3.81289e-007 -0.999525
    outer loop
      vertex -30.5 1.83691e-016 0
      vertex -31.3885 2.5 0.0273914
      vertex -30.5 2.5 9.53674e-007
    endloop
  endfacet
  facet normal -9.90529e-006 1 4.51199e-006
    outer loop
      vertex -38.584 2.5 6.54508
      vertex -38.9534 2.5 5.52264
      vertex -38.8143 2.5 6.03956
    endloop
  endfacet
  facet normal -0.755864 0 0.654728
    outer loop
      vertex -38.2651 2.5 7.03368
      vertex -38.2651 1.13461e-015 7.03368
      vertex -37.8612 2.5 7.5
    endloop
  endfacet
  facet normal -1.5368e-006 1 1.33117e-006
    outer loop
      vertex -37.8612 2.5 7.5
      vertex -38.9534 2.5 5.52264
      vertex -38.2651 2.5 7.03368
    endloop
  endfacet
  facet normal -0.671339 0 0.741151
    outer loop
      vertex -37.3766 2.5 7.93893
      vertex -37.8612 2.5 7.5
      vertex -37.3766 1.02581e-015 7.93893
    endloop
  endfacet
  facet normal -0.671339 -2.82726e-007 0.74115
    outer loop
      vertex -37.8612 2.5 7.5
      vertex -37.8612 1.08515e-015 7.5
      vertex -37.3766 1.02581e-015 7.93893
    endloop
  endfacet
  facet normal -0.755864 -2.49759e-007 0.654729
    outer loop
      vertex -37.8612 2.5 7.5
      vertex -38.2651 1.13461e-015 7.03368
      vertex -37.8612 1.08515e-015 7.5
    endloop
  endfacet
  facet normal -1.65463e-007 1 4.33143e-007
    outer loop
      vertex -34.75 2.5 9.33013
      vertex -38.9534 2.5 5.52264
      vertex -35.4962 2.5 9.04508
    endloop
  endfacet
  facet normal -4.53544e-008 1 2.87751e-007
    outer loop
      vertex -32.2673 2.5 9.89074
      vertex -38.9534 2.5 5.52264
      vertex -33.1266 2.5 9.75528
    endloop
  endfacet
  facet normal -6.97242e-009 1 2.26164e-007
    outer loop
      vertex -30.5 2.5 10
      vertex -38.9534 2.5 5.52264
      vertex -31.3885 2.5 9.97261
    endloop
  endfacet
  facet normal 0 1 0
    outer loop
      vertex -29 2.5 5.52264
      vertex -33.0584 2.5 4.30579
      vertex -33.0584 2.5 5.52264
    endloop
  endfacet
  facet normal 0 1 -0
    outer loop
      vertex -30.5 2.5 9.53674e-007
      vertex -33.0584 2.5 4.30579
      vertex -29 2.5 5.52264
    endloop
  endfacet
  facet normal 0 1 0
    outer loop
      vertex -35.4976 2.5 3.74907
      vertex -37.8612 2.5 2.5
      vertex -38.2651 2.5 2.96632
    endloop
  endfacet
  facet normal 0 1 0
    outer loop
      vertex -35.4976 2.5 3.74907
      vertex -37.3766 2.5 2.06107
      vertex -37.8612 2.5 2.5
    endloop
  endfacet
  facet normal -0 1 -0
    outer loop
      vertex -32.2673 2.5 0.109262
      vertex -33.0584 2.5 4.30579
      vertex -31.3885 2.5 0.0273914
    endloop
  endfacet
  facet normal 0 1 0
    outer loop
      vertex -35.4976 2.5 3.74907
      vertex -36.8167 2.5 1.65435
      vertex -37.3766 2.5 2.06107
    endloop
  endfacet
  facet normal 0 1 0
    outer loop
      vertex -35.4976 2.5 3.74907
      vertex -36.1876 2.5 1.28428
      vertex -36.8167 2.5 1.65435
    endloop
  endfacet
  facet normal 0 1 0
    outer loop
      vertex -35.4976 2.5 3.74907
      vertex -35.4962 2.5 0.954915
      vertex -36.1876 2.5 1.28428
    endloop
  endfacet
  facet normal 0 1 0
    outer loop
      vertex -34.144 2.5 3.44012
      vertex -34.75 2.5 0.669873
      vertex -35.4962 2.5 0.954915
    endloop
  endfacet
  facet normal 0 1 0
    outer loop
      vertex -34.144 2.5 3.44012
      vertex -33.9573 2.5 0.432273
      vertex -34.75 2.5 0.669873
    endloop
  endfacet
  facet normal 0 1 0
    outer loop
      vertex -34.144 2.5 3.44012
      vertex -33.1266 2.5 0.244718
      vertex -33.9573 2.5 0.432273
    endloop
  endfacet
  facet normal 0 1 0
    outer loop
      vertex -34.144 2.5 3.44012
      vertex -32.2673 2.5 0.109262
      vertex -33.1266 2.5 0.244718
    endloop
  endfacet
  facet normal 0 1 0
    outer loop
      vertex -29.6115 2.5 0.0273914
      vertex -29 2.5 5.52264
      vertex -29 2.5 0.0843637
    endloop
  endfacet
  facet normal 0 1 0
    outer loop
      vertex -30.5 2.5 9.53674e-007
      vertex -29 2.5 5.52264
      vertex -29.6115 2.5 0.0273914
    endloop
  endfacet
  facet normal 0 1 0
    outer loop
      vertex -33.0584 2.5 4.30579
      vertex -32.2673 2.5 0.109262
      vertex -34.144 2.5 3.44012
    endloop
  endfacet
  facet normal 0 1 0
    outer loop
      vertex -33.0584 2.5 4.30579
      vertex -30.5 2.5 9.53674e-007
      vertex -31.3885 2.5 0.0273914
    endloop
  endfacet
  facet normal 0 1 -0
    outer loop
      vertex -36.1 2.5 5
      vertex -38.9534 2.5 5.52264
      vertex -35.8483 2.5 5.52264
    endloop
  endfacet
  facet normal 0 1 0
    outer loop
      vertex -36.1 2.5 5
      vertex -39 2.5 5
      vertex -38.9534 2.5 5.52264
    endloop
  endfacet
  facet normal 0 1 0
    outer loop
      vertex -36.1 2.5 5
      vertex -38.9534 2.5 4.47736
      vertex -39 2.5 5
    endloop
  endfacet
  facet normal 0 1 0
    outer loop
      vertex -36.1 2.5 5
      vertex -38.8143 2.5 3.96044
      vertex -38.9534 2.5 4.47736
    endloop
  endfacet
  facet normal 0 1 0
    outer loop
      vertex -38.2651 2.5 2.96632
      vertex -36.1 2.5 5
      vertex -35.4976 2.5 3.74907
    endloop
  endfacet
  facet normal 0 1 0
    outer loop
      vertex -36.1 2.5 5
      vertex -38.584 2.5 3.45492
      vertex -38.8143 2.5 3.96044
    endloop
  endfacet
  facet normal 0 1 -0
    outer loop
      vertex -35.4962 2.5 0.954915
      vertex -35.4976 2.5 3.74907
      vertex -34.144 2.5 3.44012
    endloop
  endfacet
  facet normal 0 1 0
    outer loop
      vertex -36.1 2.5 5
      vertex -38.2651 2.5 2.96632
      vertex -38.584 2.5 3.45492
    endloop
  endfacet
  facet normal -0.837459 0 -0.5465
    outer loop
      vertex -38.2651 2.5 2.96632
      vertex -38.584 1.17366e-015 3.45492
      vertex -38.584 2.5 3.45492
    endloop
  endfacet
  facet normal -0.837459 0 -0.5465
    outer loop
      vertex -38.584 1.17366e-015 3.45492
      vertex -38.2651 2.5 2.96632
      vertex -38.2651 1.13461e-015 2.96632
    endloop
  endfacet
  facet normal -0.587715 0 -0.809068
    outer loop
      vertex -37.3766 1.02581e-015 2.06107
      vertex -36.8167 2.5 1.65435
      vertex -36.8167 9.57242e-016 1.65435
    endloop
  endfacet
  facet normal -0.587715 0 -0.809068
    outer loop
      vertex -36.8167 2.5 1.65435
      vertex -37.3766 1.02581e-015 2.06107
      vertex -37.3766 2.5 2.06107
    endloop
  endfacet
  facet normal -0.755864 0 -0.654729
    outer loop
      vertex -37.8612 2.5 2.5
      vertex -38.2651 1.13461e-015 2.96632
      vertex -38.2651 2.5 2.96632
    endloop
  endfacet
  facet normal -0.755864 0 -0.654729
    outer loop
      vertex -38.2651 1.13461e-015 2.96632
      vertex -37.8612 2.5 2.5
      vertex -37.8612 1.08515e-015 2.5
    endloop
  endfacet
  facet normal -0.155695 0 -0.987805
    outer loop
      vertex -33.1266 5.05351e-016 0.244718
      vertex -32.2673 2.5 0.109262
      vertex -32.2673 4.00109e-016 0.109262
    endloop
  endfacet
  facet normal -0.155695 0 -0.987805
    outer loop
      vertex -32.2673 2.5 0.109262
      vertex -33.1266 5.05351e-016 0.244718
      vertex -33.1266 2.5 0.244718
    endloop
  endfacet
  facet normal -0.220257 0 -0.975442
    outer loop
      vertex -33.9573 6.07069e-016 0.432273
      vertex -33.1266 2.5 0.244718
      vertex -33.1266 5.05351e-016 0.244718
    endloop
  endfacet
  facet normal -0.220257 0 -0.975442
    outer loop
      vertex -33.1266 2.5 0.244718
      vertex -33.9573 6.07069e-016 0.432273
      vertex -33.9573 2.5 0.432273
    endloop
  endfacet
  facet normal -0.0927651 0 -0.995688
    outer loop
      vertex -32.2673 4.00109e-016 0.109262
      vertex -31.3885 2.5 0.0273914
      vertex -31.3885 2.92496e-016 0.0273914
    endloop
  endfacet
  facet normal -0.0927651 0 -0.995688
    outer loop
      vertex -31.3885 2.5 0.0273914
      vertex -32.2673 4.00109e-016 0.109262
      vertex -32.2673 2.5 0.109262
    endloop
  endfacet
  facet normal -3.58201e-007 1 6.0894e-007
    outer loop
      vertex -36.1876 2.5 8.71572
      vertex -38.9534 2.5 5.52264
      vertex -36.8167 2.5 8.34565
    endloop
  endfacet
  facet normal -0.910034 0 -0.414533
    outer loop
      vertex -38.584 2.5 3.45492
      vertex -38.8143 1.20186e-015 3.96044
      vertex -38.8143 2.5 3.96044
    endloop
  endfacet
  facet normal -0.910034 0 -0.414533
    outer loop
      vertex -38.8143 1.20186e-015 3.96044
      vertex -38.584 2.5 3.45492
      vertex -38.584 1.17366e-015 3.45492
    endloop
  endfacet
  facet normal -0.96561 0 -0.259997
    outer loop
      vertex -38.8143 2.5 3.96044
      vertex -38.9534 1.2189e-015 4.47736
      vertex -38.9534 2.5 4.47736
    endloop
  endfacet
  facet normal -0.96561 0 -0.259997
    outer loop
      vertex -38.9534 1.2189e-015 4.47736
      vertex -38.8143 2.5 3.96044
      vertex -38.8143 1.20186e-015 3.96044
    endloop
  endfacet
  facet normal -0.430046 0 -0.902807
    outer loop
      vertex -36.1876 8.80199e-016 1.28428
      vertex -35.4962 2.5 0.954915
      vertex -35.4962 7.95526e-016 0.954915
    endloop
  endfacet
  facet normal -0.430046 0 -0.902807
    outer loop
      vertex -35.4962 2.5 0.954915
      vertex -36.1876 8.80199e-016 1.28428
      vertex -36.1876 2.5 1.28428
    endloop
  endfacet
  facet normal -0.356854 0 -0.93416
    outer loop
      vertex -35.4962 7.95526e-016 0.954915
      vertex -34.75 2.5 0.669873
      vertex -34.75 7.04149e-016 0.669873
    endloop
  endfacet
  facet normal -0.356854 0 -0.93416
    outer loop
      vertex -34.75 2.5 0.669873
      vertex -35.4962 7.95526e-016 0.954915
      vertex -35.4962 2.5 0.954915
    endloop
  endfacet
  facet normal -0.0308145 0 -0.999525
    outer loop
      vertex -30.5 1.83691e-016 0
      vertex -31.3885 2.92496e-016 0.0273914
      vertex -31.3885 2.5 0.0273914
    endloop
  endfacet
  facet normal -5.45099e-007 1 7.50402e-007
    outer loop
      vertex -36.8167 2.5 8.34565
      vertex -38.9534 2.5 5.52264
      vertex -37.3766 2.5 7.93893
    endloop
  endfacet
  facet normal 0.900968 0 -0.433886
    outer loop
      vertex -35.4976 7.95698e-016 6.25093
      vertex -35.8483 2.5 5.52264
      vertex -35.4976 2.5 6.25093
    endloop
  endfacet
  facet normal 0.90097 0 -0.433882
    outer loop
      vertex -35.8483 2.5 5.52264
      vertex -36.1 8.6947e-016 5
      vertex -36.1 2.5 5
    endloop
  endfacet
  facet normal 0.900969 6.00758e-007 -0.433884
    outer loop
      vertex -35.8483 2.5 5.52264
      vertex -35.4976 7.95698e-016 6.25093
      vertex -36.1 8.6947e-016 5
    endloop
  endfacet
  facet normal 0.222521 0 -0.974928
    outer loop
      vertex -35.4976 7.95698e-016 6.25093
      vertex -34.144 2.5 6.55988
      vertex -34.144 6.29933e-016 6.55988
    endloop
  endfacet
  facet normal 0.222521 0 -0.974928
    outer loop
      vertex -34.144 2.5 6.55988
      vertex -35.4976 7.95698e-016 6.25093
      vertex -35.4976 2.5 6.25093
    endloop
  endfacet
  facet normal -1 0 0
    outer loop
      vertex -33.0584 4.97e-016 4.30579
      vertex -33.0584 2.5 5.52264
      vertex -33.0584 2.5 4.30579
    endloop
  endfacet
  facet normal -1 0 0
    outer loop
      vertex -33.0584 4.97e-016 5.69421
      vertex -33.0584 2.5 5.52264
      vertex -33.0584 4.97e-016 4.30579
    endloop
  endfacet
  facet normal -1 0 0
    outer loop
      vertex -33.0584 2.5 5.52264
      vertex -33.0584 4.97e-016 5.69421
      vertex -33.0584 2.5 5.69421
    endloop
  endfacet
  facet normal 0.900969 -0 0.433884
    outer loop
      vertex -36.1 8.6947e-016 5
      vertex -35.4976 2.5 3.74907
      vertex -36.1 2.5 5
    endloop
  endfacet
  facet normal 0.900969 0 0.433884
    outer loop
      vertex -35.4976 2.5 3.74907
      vertex -36.1 8.6947e-016 5
      vertex -35.4976 7.95698e-016 3.74907
    endloop
  endfacet
  facet normal -0.623489 0 0.781832
    outer loop
      vertex -34.144 2.5 3.44012
      vertex -33.0584 4.97e-016 4.30579
      vertex -33.0584 2.5 4.30579
    endloop
  endfacet
  facet normal -0.623489 0 0.781832
    outer loop
      vertex -33.0584 4.97e-016 4.30579
      vertex -34.144 2.5 3.44012
      vertex -34.144 6.29933e-016 3.44012
    endloop
  endfacet
  facet normal -0.623489 0 -0.781832
    outer loop
      vertex -34.144 6.29933e-016 6.55988
      vertex -33.0584 2.5 5.69421
      vertex -33.0584 4.97e-016 5.69421
    endloop
  endfacet
  facet normal -0.623489 0 -0.781832
    outer loop
      vertex -33.0584 2.5 5.69421
      vertex -34.144 6.29933e-016 6.55988
      vertex -34.144 2.5 6.55988
    endloop
  endfacet
  facet normal 0.222521 0 0.974928
    outer loop
      vertex -35.4976 2.5 3.74907
      vertex -34.144 6.29933e-016 3.44012
      vertex -34.144 2.5 3.44012
    endloop
  endfacet
  facet normal 0.222521 0 0.974928
    outer loop
      vertex -34.144 6.29933e-016 3.44012
      vertex -35.4976 2.5 3.74907
      vertex -35.4976 7.95698e-016 3.74907
    endloop
  endfacet
  facet normal -1 0 0
    outer loop
      vertex -30 2.5 0
      vertex -30 1.40688 0.0154146
      vertex -30 2.5 0.015415
    endloop
  endfacet
  facet normal -1 0 0
    outer loop
      vertex -30 0 0
      vertex -30 1.40688 0.0154146
      vertex -30 2.5 0
    endloop
  endfacet
  facet normal -1 -0 0
    outer loop
      vertex -30 1.22461e-016 0.0154146
      vertex -30 0 0
      vertex -30 1.22461e-016 9.98459
    endloop
  endfacet
  facet normal -1 -0 0
    outer loop
      vertex -30 1.40688 0.0154146
      vertex -30 0 0
      vertex -30 1.22461e-016 0.0154146
    endloop
  endfacet
  facet normal -1 0 0
    outer loop
      vertex -30 2.5 9.73518
      vertex -30 2.5 10
      vertex -30 2.5 5.52264
    endloop
  endfacet
  facet normal -1 0 0
    outer loop
      vertex -30 2.5 9.98459
      vertex -30 2.5 10
      vertex -30 2.5 9.73518
    endloop
  endfacet
  facet normal -1 0 0
    outer loop
      vertex -30 1.22461e-016 9.98459
      vertex -30 2.5 10
      vertex -30 2.5 9.98459
    endloop
  endfacet
  facet normal -1 0 0
    outer loop
      vertex -30 1.22461e-016 9.98459
      vertex -30 0 10
      vertex -30 2.5 10
    endloop
  endfacet
  facet normal -1 0 0
    outer loop
      vertex -30 0 10
      vertex -30 1.22461e-016 9.98459
      vertex -30 0 0
    endloop
  endfacet
  facet normal 0 0 1
    outer loop
      vertex -7.5 5 10
      vertex -22.5 5 10
      vertex -7.5 2.5 10
    endloop
  endfacet
  facet normal -0 0 1
    outer loop
      vertex -7.5 2.5 10
      vertex 0 0 10
      vertex 0 2.5 10
    endloop
  endfacet
  facet normal 0 0 1
    outer loop
      vertex -22.5 2.5 10
      vertex -7.5 2.5 10
      vertex -22.5 5 10
    endloop
  endfacet
  facet normal 0 0 1
    outer loop
      vertex -7.5 2.5 10
      vertex -22.5 2.5 10
      vertex 0 0 10
    endloop
  endfacet
  facet normal 0 0 1
    outer loop
      vertex -30 0 10
      vertex -22.5 2.5 10
      vertex -30 2.5 10
    endloop
  endfacet
  facet normal 0 0 1
    outer loop
      vertex -22.5 2.5 10
      vertex -30 0 10
      vertex 0 0 10
    endloop
  endfacet
  facet normal 0 0 -1
    outer loop
      vertex 0 0 0
      vertex -7.5 2.5 0
      vertex 0 2.5 0
    endloop
  endfacet
  facet normal 0 0 -1
    outer loop
      vertex -7.5 2.5 0
      vertex -22.5 2.5 0
      vertex -7.5 5 0
    endloop
  endfacet
  facet normal 0 0 -1
    outer loop
      vertex 0 0 0
      vertex -22.5 2.5 0
      vertex -7.5 2.5 0
    endloop
  endfacet
  facet normal 0 0 -1
    outer loop
      vertex -30 0 0
      vertex -22.5 2.5 0
      vertex 0 0 0
    endloop
  endfacet
  facet normal -0 0 -1
    outer loop
      vertex -22.5 2.5 0
      vertex -30 0 0
      vertex -30 2.5 0
    endloop
  endfacet
  facet normal -0 0 -1
    outer loop
      vertex -7.5 5 0
      vertex -22.5 2.5 0
      vertex -22.5 5 0
    endloop
  endfacet
  facet normal -1 0 0
    outer loop
      vertex -22.5 2.5 0
      vertex -22.5 5 10
      vertex -22.5 5 0
    endloop
  endfacet
  facet normal -1 -0 0
    outer loop
      vertex -22.5 5 10
      vertex -22.5 2.5 0
      vertex -22.5 2.5 10
    endloop
  endfacet
  facet normal 1 -0 0
    outer loop
      vertex -7.5 2.5 10
      vertex -7.5 5 0
      vertex -7.5 5 10
    endloop
  endfacet
  facet normal 1 0 0
    outer loop
      vertex -7.5 5 0
      vertex -7.5 2.5 10
      vertex -7.5 2.5 0
    endloop
  endfacet
  facet normal 0 1 -0
    outer loop
      vertex -7.5 5 0
      vertex -22.5 5 10
      vertex -7.5 5 10
    endloop
  endfacet
  facet normal 0 1 0
    outer loop
      vertex -22.5 5 10
      vertex -7.5 5 0
      vertex -22.5 5 0
    endloop
  endfacet
endsolid OpenSCAD_Model
