solid OpenSCAD_Model
  facet normal 0 -1 0
    outer loop
      vertex -33.5426 -4.24264 -15
      vertex -29.3 -4.24264 -23.15
      vertex -25.0574 -4.24264 -15
    endloop
  endfacet
  facet normal 0 -1 0
    outer loop
      vertex -33.5426 -4.24264 -15
      vertex -29.7024 -4.24264 -23.1711
      vertex -29.3 -4.24264 -23.15
    endloop
  endfacet
  facet normal 0 -1 0
    outer loop
      vertex -33.5426 -4.24264 -15
      vertex -30.1005 -4.24264 -23.2341
      vertex -29.7024 -4.24264 -23.1711
    endloop
  endfacet
  facet normal 0 -1 0
    outer loop
      vertex -33.5426 -4.24264 -15
      vertex -30.4897 -4.24264 -23.3384
      vertex -30.1005 -4.24264 -23.2341
    endloop
  endfacet
  facet normal 0 -1 0
    outer loop
      vertex -33.5426 -4.24264 -15
      vertex -30.8659 -4.24264 -23.4828
      vertex -30.4897 -4.24264 -23.3384
    endloop
  endfacet
  facet normal 0 -1 0
    outer loop
      vertex -33.5426 -4.24264 -15
      vertex -31.225 -4.24264 -23.6658
      vertex -30.8659 -4.24264 -23.4828
    endloop
  endfacet
  facet normal 0 -1 0
    outer loop
      vertex -33.5426 -4.24264 -15
      vertex -31.563 -4.24264 -23.8853
      vertex -31.225 -4.24264 -23.6658
    endloop
  endfacet
  facet normal 0 -1 0
    outer loop
      vertex -33.5426 -4.24264 -15
      vertex -31.8762 -4.24264 -24.1389
      vertex -31.563 -4.24264 -23.8853
    endloop
  endfacet
  facet normal 0 -1 0
    outer loop
      vertex -33.5426 -4.24264 -15
      vertex -32.1611 -4.24264 -24.4238
      vertex -31.8762 -4.24264 -24.1389
    endloop
  endfacet
  facet normal 0 -1 0
    outer loop
      vertex -33.5426 -4.24264 -15
      vertex -32.4147 -4.24264 -24.737
      vertex -32.1611 -4.24264 -24.4238
    endloop
  endfacet
  facet normal 0 -1 0
    outer loop
      vertex -33.5426 -4.24264 -15
      vertex -32.6342 -4.24264 -25.075
      vertex -32.4147 -4.24264 -24.737
    endloop
  endfacet
  facet normal 0 -1 0
    outer loop
      vertex -33.5426 -4.24264 -15
      vertex -32.8172 -4.24264 -25.4341
      vertex -32.6342 -4.24264 -25.075
    endloop
  endfacet
  facet normal 0 -1 0
    outer loop
      vertex -33.5426 -4.24264 -15
      vertex -32.9616 -4.24264 -25.8103
      vertex -32.8172 -4.24264 -25.4341
    endloop
  endfacet
  facet normal 0 -1 0
    outer loop
      vertex -33.5426 -4.24264 -15
      vertex -33.0659 -4.24264 -26.1995
      vertex -32.9616 -4.24264 -25.8103
    endloop
  endfacet
  facet normal 0 -1 0
    outer loop
      vertex -33.5426 -4.24264 -15
      vertex -33.1289 -4.24264 -26.5976
      vertex -33.0659 -4.24264 -26.1995
    endloop
  endfacet
  facet normal 0 -1 0
    outer loop
      vertex -33.5426 -4.24264 -15
      vertex -33.15 -4.24264 -27
      vertex -33.1289 -4.24264 -26.5976
    endloop
  endfacet
  facet normal 0 -1 -0
    outer loop
      vertex -29.7024 -4.24264 -30.8289
      vertex -33.5426 -4.24264 -31
      vertex -29.3 -4.24264 -30.85
    endloop
  endfacet
  facet normal 0 -1 -0
    outer loop
      vertex -30.1005 -4.24264 -30.7659
      vertex -33.5426 -4.24264 -31
      vertex -29.7024 -4.24264 -30.8289
    endloop
  endfacet
  facet normal 0 -1 -0
    outer loop
      vertex -30.4897 -4.24264 -30.6616
      vertex -33.5426 -4.24264 -31
      vertex -30.1005 -4.24264 -30.7659
    endloop
  endfacet
  facet normal 0 -1 -0
    outer loop
      vertex -30.8659 -4.24264 -30.5172
      vertex -33.5426 -4.24264 -31
      vertex -30.4897 -4.24264 -30.6616
    endloop
  endfacet
  facet normal 0 -1 -0
    outer loop
      vertex -31.225 -4.24264 -30.3342
      vertex -33.5426 -4.24264 -31
      vertex -30.8659 -4.24264 -30.5172
    endloop
  endfacet
  facet normal 0 -1 -0
    outer loop
      vertex -31.563 -4.24264 -30.1147
      vertex -33.5426 -4.24264 -31
      vertex -31.225 -4.24264 -30.3342
    endloop
  endfacet
  facet normal 0 -1 -0
    outer loop
      vertex -31.8762 -4.24264 -29.8611
      vertex -33.5426 -4.24264 -31
      vertex -31.563 -4.24264 -30.1147
    endloop
  endfacet
  facet normal 0 -1 -0
    outer loop
      vertex -32.1611 -4.24264 -29.5762
      vertex -33.5426 -4.24264 -31
      vertex -31.8762 -4.24264 -29.8611
    endloop
  endfacet
  facet normal 0 -1 -0
    outer loop
      vertex -32.4147 -4.24264 -29.263
      vertex -33.5426 -4.24264 -31
      vertex -32.1611 -4.24264 -29.5762
    endloop
  endfacet
  facet normal 0 -1 -0
    outer loop
      vertex -32.6342 -4.24264 -28.925
      vertex -33.5426 -4.24264 -31
      vertex -32.4147 -4.24264 -29.263
    endloop
  endfacet
  facet normal 0 -1 -0
    outer loop
      vertex -32.8172 -4.24264 -28.5659
      vertex -33.5426 -4.24264 -31
      vertex -32.6342 -4.24264 -28.925
    endloop
  endfacet
  facet normal 0 -1 -0
    outer loop
      vertex -32.9616 -4.24264 -28.1897
      vertex -33.5426 -4.24264 -31
      vertex -32.8172 -4.24264 -28.5659
    endloop
  endfacet
  facet normal 0 -1 -0
    outer loop
      vertex -33.0659 -4.24264 -27.8005
      vertex -33.5426 -4.24264 -31
      vertex -32.9616 -4.24264 -28.1897
    endloop
  endfacet
  facet normal 0 -1 -0
    outer loop
      vertex -33.1289 -4.24264 -27.4024
      vertex -33.5426 -4.24264 -31
      vertex -33.0659 -4.24264 -27.8005
    endloop
  endfacet
  facet normal 0 -1 -0
    outer loop
      vertex -33.15 -4.24264 -27
      vertex -33.5426 -4.24264 -31
      vertex -33.1289 -4.24264 -27.4024
    endloop
  endfacet
  facet normal 0 -1 0
    outer loop
      vertex -33.5426 -4.24264 -31
      vertex -33.15 -4.24264 -27
      vertex -33.5426 -4.24264 -15
    endloop
  endfacet
  facet normal 0 -1 0
    outer loop
      vertex -28.8976 -4.24264 -23.1711
      vertex -25.0574 -4.24264 -15
      vertex -29.3 -4.24264 -23.15
    endloop
  endfacet
  facet normal 0 -1 0
    outer loop
      vertex -28.4995 -4.24264 -23.2341
      vertex -25.0574 -4.24264 -15
      vertex -28.8976 -4.24264 -23.1711
    endloop
  endfacet
  facet normal 0 -1 0
    outer loop
      vertex -28.1103 -4.24264 -23.3384
      vertex -25.0574 -4.24264 -15
      vertex -28.4995 -4.24264 -23.2341
    endloop
  endfacet
  facet normal 0 -1 0
    outer loop
      vertex -27.7341 -4.24264 -23.4828
      vertex -25.0574 -4.24264 -15
      vertex -28.1103 -4.24264 -23.3384
    endloop
  endfacet
  facet normal 0 -1 0
    outer loop
      vertex -27.375 -4.24264 -23.6658
      vertex -25.0574 -4.24264 -15
      vertex -27.7341 -4.24264 -23.4828
    endloop
  endfacet
  facet normal 0 -1 0
    outer loop
      vertex -27.037 -4.24264 -23.8853
      vertex -25.0574 -4.24264 -15
      vertex -27.375 -4.24264 -23.6658
    endloop
  endfacet
  facet normal 0 -1 0
    outer loop
      vertex -26.7238 -4.24264 -24.1389
      vertex -25.0574 -4.24264 -15
      vertex -27.037 -4.24264 -23.8853
    endloop
  endfacet
  facet normal 0 -1 0
    outer loop
      vertex -26.4389 -4.24264 -24.4238
      vertex -25.0574 -4.24264 -15
      vertex -26.7238 -4.24264 -24.1389
    endloop
  endfacet
  facet normal 0 -1 0
    outer loop
      vertex -26.1853 -4.24264 -24.737
      vertex -25.0574 -4.24264 -15
      vertex -26.4389 -4.24264 -24.4238
    endloop
  endfacet
  facet normal 0 -1 0
    outer loop
      vertex -25.9658 -4.24264 -25.075
      vertex -25.0574 -4.24264 -15
      vertex -26.1853 -4.24264 -24.737
    endloop
  endfacet
  facet normal 0 -1 0
    outer loop
      vertex -25.7828 -4.24264 -25.4341
      vertex -25.0574 -4.24264 -15
      vertex -25.9658 -4.24264 -25.075
    endloop
  endfacet
  facet normal 0 -1 0
    outer loop
      vertex -25.6384 -4.24264 -25.8103
      vertex -25.0574 -4.24264 -15
      vertex -25.7828 -4.24264 -25.4341
    endloop
  endfacet
  facet normal 0 -1 0
    outer loop
      vertex -25.5341 -4.24264 -26.1995
      vertex -25.0574 -4.24264 -15
      vertex -25.6384 -4.24264 -25.8103
    endloop
  endfacet
  facet normal 0 -1 0
    outer loop
      vertex -25.4711 -4.24264 -26.5976
      vertex -25.0574 -4.24264 -15
      vertex -25.5341 -4.24264 -26.1995
    endloop
  endfacet
  facet normal 0 -1 0
    outer loop
      vertex -25.45 -4.24264 -27
      vertex -25.0574 -4.24264 -15
      vertex -25.4711 -4.24264 -26.5976
    endloop
  endfacet
  facet normal 0 -1 0
    outer loop
      vertex -25.45 -4.24264 -27
      vertex -25.0574 -4.24264 -31
      vertex -25.0574 -4.24264 -15
    endloop
  endfacet
  facet normal 0 -1 0
    outer loop
      vertex -25.4711 -4.24264 -27.4024
      vertex -25.0574 -4.24264 -31
      vertex -25.45 -4.24264 -27
    endloop
  endfacet
  facet normal 0 -1 0
    outer loop
      vertex -25.5341 -4.24264 -27.8005
      vertex -25.0574 -4.24264 -31
      vertex -25.4711 -4.24264 -27.4024
    endloop
  endfacet
  facet normal 0 -1 0
    outer loop
      vertex -25.6384 -4.24264 -28.1897
      vertex -25.0574 -4.24264 -31
      vertex -25.5341 -4.24264 -27.8005
    endloop
  endfacet
  facet normal 0 -1 0
    outer loop
      vertex -25.7828 -4.24264 -28.5659
      vertex -25.0574 -4.24264 -31
      vertex -25.6384 -4.24264 -28.1897
    endloop
  endfacet
  facet normal 0 -1 0
    outer loop
      vertex -25.9658 -4.24264 -28.925
      vertex -25.0574 -4.24264 -31
      vertex -25.7828 -4.24264 -28.5659
    endloop
  endfacet
  facet normal 0 -1 0
    outer loop
      vertex -26.1853 -4.24264 -29.263
      vertex -25.0574 -4.24264 -31
      vertex -25.9658 -4.24264 -28.925
    endloop
  endfacet
  facet normal 0 -1 0
    outer loop
      vertex -26.4389 -4.24264 -29.5762
      vertex -25.0574 -4.24264 -31
      vertex -26.1853 -4.24264 -29.263
    endloop
  endfacet
  facet normal 0 -1 0
    outer loop
      vertex -26.7238 -4.24264 -29.8611
      vertex -25.0574 -4.24264 -31
      vertex -26.4389 -4.24264 -29.5762
    endloop
  endfacet
  facet normal 0 -1 0
    outer loop
      vertex -27.037 -4.24264 -30.1147
      vertex -25.0574 -4.24264 -31
      vertex -26.7238 -4.24264 -29.8611
    endloop
  endfacet
  facet normal 0 -1 0
    outer loop
      vertex -27.375 -4.24264 -30.3342
      vertex -25.0574 -4.24264 -31
      vertex -27.037 -4.24264 -30.1147
    endloop
  endfacet
  facet normal 0 -1 0
    outer loop
      vertex -27.7341 -4.24264 -30.5172
      vertex -25.0574 -4.24264 -31
      vertex -27.375 -4.24264 -30.3342
    endloop
  endfacet
  facet normal 0 -1 0
    outer loop
      vertex -28.1103 -4.24264 -30.6616
      vertex -25.0574 -4.24264 -31
      vertex -27.7341 -4.24264 -30.5172
    endloop
  endfacet
  facet normal 0 -1 0
    outer loop
      vertex -28.4995 -4.24264 -30.7659
      vertex -25.0574 -4.24264 -31
      vertex -28.1103 -4.24264 -30.6616
    endloop
  endfacet
  facet normal 0 -1 0
    outer loop
      vertex -28.8976 -4.24264 -30.8289
      vertex -25.0574 -4.24264 -31
      vertex -28.4995 -4.24264 -30.7659
    endloop
  endfacet
  facet normal 0 -1 0
    outer loop
      vertex -29.3 -4.24264 -30.85
      vertex -25.0574 -4.24264 -31
      vertex -28.8976 -4.24264 -30.8289
    endloop
  endfacet
  facet normal 0 -1 0
    outer loop
      vertex -25.0574 -4.24264 -31
      vertex -29.3 -4.24264 -30.85
      vertex -33.5426 -4.24264 -31
    endloop
  endfacet
  facet normal 1 0 0
    outer loop
      vertex -25.0574 -3.75736 -15
      vertex -25.0574 0.757359 -7
      vertex -25.0574 -3.75736 -7
    endloop
  endfacet
  facet normal 1 0 0
    outer loop
      vertex -25.0574 0.757359 -7
      vertex -25.0574 -3.75736 -15
      vertex -25.0574 0.757359 -31
    endloop
  endfacet
  facet normal 1 0 0
    outer loop
      vertex -25.0574 -4.24264 -31
      vertex -25.0574 -3.75736 -15
      vertex -25.0574 -4.24264 -15
    endloop
  endfacet
  facet normal 1 0 0
    outer loop
      vertex -25.0574 -3.75736 -15
      vertex -25.0574 -4.24264 -31
      vertex -25.0574 0.757359 -31
    endloop
  endfacet
  facet normal 0 0 -1
    outer loop
      vertex -33.5426 -4.24264 -31
      vertex -25.0574 0.757359 -31
      vertex -25.0574 -4.24264 -31
    endloop
  endfacet
  facet normal -0 0 -1
    outer loop
      vertex -25.0574 0.757359 -31
      vertex -33.5426 -4.24264 -31
      vertex -33.5426 0.757359 -31
    endloop
  endfacet
  facet normal 0 0 1
    outer loop
      vertex -33.5426 -3.75736 -7
      vertex -25.0574 -3.75736 -7
      vertex -25.0574 0.757359 -7
    endloop
  endfacet
  facet normal 0 0 1
    outer loop
      vertex -25.0574 -3.75736 -7
      vertex -27.9017 -8.4678 -7
      vertex -27.9 -8.5 -7
    endloop
  endfacet
  facet normal 0 0 1
    outer loop
      vertex -25.0574 -3.75736 -7
      vertex -27.9077 -8.35366 -7
      vertex -27.9017 -8.4678 -7
    endloop
  endfacet
  facet normal 0 0 1
    outer loop
      vertex -25.0574 -3.75736 -7
      vertex -27.9306 -8.20892 -7
      vertex -27.9077 -8.35366 -7
    endloop
  endfacet
  facet normal 0 0 1
    outer loop
      vertex -25.0574 -3.75736 -7
      vertex -27.9685 -8.06738 -7
      vertex -27.9306 -8.20892 -7
    endloop
  endfacet
  facet normal 0 0 1
    outer loop
      vertex -25.0574 -3.75736 -7
      vertex -28.021 -7.93057 -7
      vertex -27.9685 -8.06738 -7
    endloop
  endfacet
  facet normal 0 0 1
    outer loop
      vertex -25.0574 -3.75736 -7
      vertex -28.0876 -7.8 -7
      vertex -28.021 -7.93057 -7
    endloop
  endfacet
  facet normal 0 0 1
    outer loop
      vertex -25.0574 -3.75736 -7
      vertex -28.1674 -7.6771 -7
      vertex -28.0876 -7.8 -7
    endloop
  endfacet
  facet normal 0 0 1
    outer loop
      vertex -25.0574 -3.75736 -7
      vertex -28.2596 -7.56322 -7
      vertex -28.1674 -7.6771 -7
    endloop
  endfacet
  facet normal 0 0 1
    outer loop
      vertex -25.0574 -3.75736 -7
      vertex -28.3632 -7.4596 -7
      vertex -28.2596 -7.56322 -7
    endloop
  endfacet
  facet normal 0 0 1
    outer loop
      vertex -25.0574 -3.75736 -7
      vertex -28.4771 -7.36738 -7
      vertex -28.3632 -7.4596 -7
    endloop
  endfacet
  facet normal 0 0 1
    outer loop
      vertex -25.0574 -3.75736 -7
      vertex -28.6 -7.28756 -7
      vertex -28.4771 -7.36738 -7
    endloop
  endfacet
  facet normal 0 0 1
    outer loop
      vertex -25.0574 -3.75736 -7
      vertex -28.7306 -7.22104 -7
      vertex -28.6 -7.28756 -7
    endloop
  endfacet
  facet normal 0 0 1
    outer loop
      vertex -25.0574 -3.75736 -7
      vertex -28.8674 -7.16852 -7
      vertex -28.7306 -7.22104 -7
    endloop
  endfacet
  facet normal 0 0 1
    outer loop
      vertex -25.0574 -3.75736 -7
      vertex -29.0089 -7.13059 -7
      vertex -28.8674 -7.16852 -7
    endloop
  endfacet
  facet normal 0 0 1
    outer loop
      vertex -25.0574 -3.75736 -7
      vertex -29.1537 -7.10767 -7
      vertex -29.0089 -7.13059 -7
    endloop
  endfacet
  facet normal 0 -0 1
    outer loop
      vertex -29.3 -7.1 -7
      vertex -25.0574 -3.75736 -7
      vertex -33.5426 -3.75736 -7
    endloop
  endfacet
  facet normal 0 0 1
    outer loop
      vertex -25.0574 -3.75736 -7
      vertex -29.3 -7.1 -7
      vertex -29.1537 -7.10767 -7
    endloop
  endfacet
  facet normal 0 0 1
    outer loop
      vertex -29.3 -7.1 -7
      vertex -33.5426 -3.75736 -7
      vertex -29.4463 -7.10767 -7
    endloop
  endfacet
  facet normal 0 0 1
    outer loop
      vertex -29.4463 -7.10767 -7
      vertex -33.5426 -3.75736 -7
      vertex -29.5911 -7.13059 -7
    endloop
  endfacet
  facet normal 0 0 1
    outer loop
      vertex -29.5911 -7.13059 -7
      vertex -33.5426 -3.75736 -7
      vertex -29.7326 -7.16852 -7
    endloop
  endfacet
  facet normal 0 0 1
    outer loop
      vertex -29.7326 -7.16852 -7
      vertex -33.5426 -3.75736 -7
      vertex -29.8694 -7.22104 -7
    endloop
  endfacet
  facet normal 0 0 1
    outer loop
      vertex -29.8694 -7.22104 -7
      vertex -33.5426 -3.75736 -7
      vertex -30 -7.28756 -7
    endloop
  endfacet
  facet normal 0 0 1
    outer loop
      vertex -30 -7.28756 -7
      vertex -33.5426 -3.75736 -7
      vertex -30.1229 -7.36738 -7
    endloop
  endfacet
  facet normal 0 0 1
    outer loop
      vertex -30.1229 -7.36738 -7
      vertex -33.5426 -3.75736 -7
      vertex -30.2368 -7.4596 -7
    endloop
  endfacet
  facet normal 0 0 1
    outer loop
      vertex -30.2368 -7.4596 -7
      vertex -33.5426 -3.75736 -7
      vertex -30.3404 -7.56322 -7
    endloop
  endfacet
  facet normal 0 0 1
    outer loop
      vertex -30.3404 -7.56322 -7
      vertex -33.5426 -3.75736 -7
      vertex -30.4326 -7.6771 -7
    endloop
  endfacet
  facet normal 0 0 1
    outer loop
      vertex -33.5426 -12.2426 -7
      vertex -30.6983 -8.4678 -7
      vertex -30.6923 -8.35366 -7
    endloop
  endfacet
  facet normal 0 0 1
    outer loop
      vertex -30.6694 -8.20892 -7
      vertex -33.5426 -3.75736 -7
      vertex -30.6923 -8.35366 -7
    endloop
  endfacet
  facet normal 0 0 1
    outer loop
      vertex -30.6315 -8.06738 -7
      vertex -33.5426 -3.75736 -7
      vertex -30.6694 -8.20892 -7
    endloop
  endfacet
  facet normal 0 0 1
    outer loop
      vertex -30.579 -7.93057 -7
      vertex -33.5426 -3.75736 -7
      vertex -30.6315 -8.06738 -7
    endloop
  endfacet
  facet normal 0 0 1
    outer loop
      vertex -30.5124 -7.8 -7
      vertex -33.5426 -3.75736 -7
      vertex -30.579 -7.93057 -7
    endloop
  endfacet
  facet normal 0 0 1
    outer loop
      vertex -30.4326 -7.6771 -7
      vertex -33.5426 -3.75736 -7
      vertex -30.5124 -7.8 -7
    endloop
  endfacet
  facet normal 0 0 1
    outer loop
      vertex -33.5426 -3.75736 -7
      vertex -25.0574 0.757359 -7
      vertex -33.5426 0.757359 -7
    endloop
  endfacet
  facet normal 0 0 1
    outer loop
      vertex -25.0574 -3.75736 -7
      vertex -27.9 -8.5 -7
      vertex -25.0574 -12.2426 -7
    endloop
  endfacet
  facet normal -0 0 1
    outer loop
      vertex -27.906 -8.61414 -7
      vertex -25.0574 -12.2426 -7
      vertex -27.9 -8.5 -7
    endloop
  endfacet
  facet normal -0 0 1
    outer loop
      vertex -27.9077 -8.64634 -7
      vertex -25.0574 -12.2426 -7
      vertex -27.906 -8.61414 -7
    endloop
  endfacet
  facet normal -0 0 1
    outer loop
      vertex -27.9306 -8.79108 -7
      vertex -25.0574 -12.2426 -7
      vertex -27.9077 -8.64634 -7
    endloop
  endfacet
  facet normal -0 0 1
    outer loop
      vertex -27.9685 -8.93262 -7
      vertex -25.0574 -12.2426 -7
      vertex -27.9306 -8.79108 -7
    endloop
  endfacet
  facet normal -0 0 1
    outer loop
      vertex -28.021 -9.06943 -7
      vertex -25.0574 -12.2426 -7
      vertex -27.9685 -8.93262 -7
    endloop
  endfacet
  facet normal -0 0 1
    outer loop
      vertex -28.0876 -9.2 -7
      vertex -25.0574 -12.2426 -7
      vertex -28.021 -9.06943 -7
    endloop
  endfacet
  facet normal -0 0 1
    outer loop
      vertex -28.1674 -9.3229 -7
      vertex -25.0574 -12.2426 -7
      vertex -28.0876 -9.2 -7
    endloop
  endfacet
  facet normal -0 0 1
    outer loop
      vertex -28.2596 -9.43678 -7
      vertex -25.0574 -12.2426 -7
      vertex -28.1674 -9.3229 -7
    endloop
  endfacet
  facet normal -0 0 1
    outer loop
      vertex -28.3632 -9.5404 -7
      vertex -25.0574 -12.2426 -7
      vertex -28.2596 -9.43678 -7
    endloop
  endfacet
  facet normal -0 0 1
    outer loop
      vertex -28.4771 -9.63262 -7
      vertex -25.0574 -12.2426 -7
      vertex -28.3632 -9.5404 -7
    endloop
  endfacet
  facet normal -0 0 1
    outer loop
      vertex -28.6 -9.71243 -7
      vertex -25.0574 -12.2426 -7
      vertex -28.4771 -9.63262 -7
    endloop
  endfacet
  facet normal -0 0 1
    outer loop
      vertex -28.7306 -9.77896 -7
      vertex -25.0574 -12.2426 -7
      vertex -28.6 -9.71243 -7
    endloop
  endfacet
  facet normal -0 0 1
    outer loop
      vertex -28.8674 -9.83148 -7
      vertex -25.0574 -12.2426 -7
      vertex -28.7306 -9.77896 -7
    endloop
  endfacet
  facet normal -0 0 1
    outer loop
      vertex -29.0089 -9.86941 -7
      vertex -25.0574 -12.2426 -7
      vertex -28.8674 -9.83148 -7
    endloop
  endfacet
  facet normal -0 0 1
    outer loop
      vertex -29.1537 -9.89233 -7
      vertex -25.0574 -12.2426 -7
      vertex -29.0089 -9.86941 -7
    endloop
  endfacet
  facet normal -0 0 1
    outer loop
      vertex -29.3 -9.9 -7
      vertex -25.0574 -12.2426 -7
      vertex -29.1537 -9.89233 -7
    endloop
  endfacet
  facet normal 0 0 1
    outer loop
      vertex -33.5426 -12.2426 -7
      vertex -29.3 -9.9 -7
      vertex -29.4463 -9.89233 -7
    endloop
  endfacet
  facet normal 0 0 1
    outer loop
      vertex -33.5426 -12.2426 -7
      vertex -29.4463 -9.89233 -7
      vertex -29.5911 -9.86941 -7
    endloop
  endfacet
  facet normal 0 0 1
    outer loop
      vertex -33.5426 -12.2426 -7
      vertex -29.5911 -9.86941 -7
      vertex -29.7326 -9.83148 -7
    endloop
  endfacet
  facet normal 0 0 1
    outer loop
      vertex -33.5426 -12.2426 -7
      vertex -29.7326 -9.83148 -7
      vertex -29.8694 -9.77896 -7
    endloop
  endfacet
  facet normal 0 0 1
    outer loop
      vertex -33.5426 -12.2426 -7
      vertex -29.8694 -9.77896 -7
      vertex -30 -9.71243 -7
    endloop
  endfacet
  facet normal 0 0 1
    outer loop
      vertex -33.5426 -12.2426 -7
      vertex -30.6923 -8.35366 -7
      vertex -33.5426 -3.75736 -7
    endloop
  endfacet
  facet normal 0 0 1
    outer loop
      vertex -30.6983 -8.4678 -7
      vertex -33.5426 -12.2426 -7
      vertex -30.7 -8.5 -7
    endloop
  endfacet
  facet normal 0 0 1
    outer loop
      vertex -30.7 -8.5 -7
      vertex -33.5426 -12.2426 -7
      vertex -30.694 -8.61414 -7
    endloop
  endfacet
  facet normal 0 0 1
    outer loop
      vertex -30.694 -8.61414 -7
      vertex -33.5426 -12.2426 -7
      vertex -30.6923 -8.64634 -7
    endloop
  endfacet
  facet normal 0 0 1
    outer loop
      vertex -30.6923 -8.64634 -7
      vertex -33.5426 -12.2426 -7
      vertex -30.6694 -8.79108 -7
    endloop
  endfacet
  facet normal 0 0 1
    outer loop
      vertex -30.6694 -8.79108 -7
      vertex -33.5426 -12.2426 -7
      vertex -30.6315 -8.93262 -7
    endloop
  endfacet
  facet normal 0 0 1
    outer loop
      vertex -30.6315 -8.93262 -7
      vertex -33.5426 -12.2426 -7
      vertex -30.579 -9.06943 -7
    endloop
  endfacet
  facet normal 0 0 1
    outer loop
      vertex -29.3 -9.9 -7
      vertex -33.5426 -12.2426 -7
      vertex -25.0574 -12.2426 -7
    endloop
  endfacet
  facet normal 0 0 1
    outer loop
      vertex -30.1229 -9.63262 -7
      vertex -33.5426 -12.2426 -7
      vertex -30 -9.71243 -7
    endloop
  endfacet
  facet normal 0 0 1
    outer loop
      vertex -30.2368 -9.5404 -7
      vertex -33.5426 -12.2426 -7
      vertex -30.1229 -9.63262 -7
    endloop
  endfacet
  facet normal 0 0 1
    outer loop
      vertex -30.3404 -9.43678 -7
      vertex -33.5426 -12.2426 -7
      vertex -30.2368 -9.5404 -7
    endloop
  endfacet
  facet normal 0 0 1
    outer loop
      vertex -30.4326 -9.3229 -7
      vertex -33.5426 -12.2426 -7
      vertex -30.3404 -9.43678 -7
    endloop
  endfacet
  facet normal 0 0 1
    outer loop
      vertex -30.5124 -9.2 -7
      vertex -33.5426 -12.2426 -7
      vertex -30.4326 -9.3229 -7
    endloop
  endfacet
  facet normal 0 0 1
    outer loop
      vertex -30.579 -9.06943 -7
      vertex -33.5426 -12.2426 -7
      vertex -30.5124 -9.2 -7
    endloop
  endfacet
  facet normal -1 0 0
    outer loop
      vertex -33.5426 0.757359 -31
      vertex -33.5426 -3.75736 -15
      vertex -33.5426 0.757359 -7
    endloop
  endfacet
  facet normal -1 0 0
    outer loop
      vertex -33.5426 -4.24264 -31
      vertex -33.5426 -3.75736 -15
      vertex -33.5426 0.757359 -31
    endloop
  endfacet
  facet normal -1 -0 0
    outer loop
      vertex -33.5426 -3.75736 -15
      vertex -33.5426 -4.24264 -31
      vertex -33.5426 -4.24264 -15
    endloop
  endfacet
  facet normal -1 -0 0
    outer loop
      vertex -33.5426 0.757359 -7
      vertex -33.5426 -3.75736 -15
      vertex -33.5426 -3.75736 -7
    endloop
  endfacet
  facet normal 0 1 -0
    outer loop
      vertex -25.0574 0.757359 -31
      vertex -33.5426 0.757359 -7
      vertex -25.0574 0.757359 -7
    endloop
  endfacet
  facet normal 0 1 0
    outer loop
      vertex -33.5426 0.757359 -7
      vertex -25.0574 0.757359 -31
      vertex -33.5426 0.757359 -31
    endloop
  endfacet
  facet normal 0.0523635 0 0.998628
    outer loop
      vertex -29.3 -4.24264 -23.15
      vertex -28.8976 -12 -23.1711
      vertex -28.8976 -4.24264 -23.1711
    endloop
  endfacet
  facet normal 0.0523635 0 0.998628
    outer loop
      vertex -28.8976 -12 -23.1711
      vertex -29.3 -4.24264 -23.15
      vertex -29.3 -12 -23.15
    endloop
  endfacet
  facet normal -0.0523635 0 -0.998628
    outer loop
      vertex -29.7024 -12 -30.8289
      vertex -29.3 -4.24264 -30.85
      vertex -29.3 -12 -30.85
    endloop
  endfacet
  facet normal -0.0523635 0 -0.998628
    outer loop
      vertex -29.3 -4.24264 -30.85
      vertex -29.7024 -12 -30.8289
      vertex -29.7024 -4.24264 -30.8289
    endloop
  endfacet
  facet normal 0.998628 0 -0.0523635
    outer loop
      vertex -25.45 -12 -27
      vertex -25.4711 -4.24264 -27.4024
      vertex -25.45 -4.24264 -27
    endloop
  endfacet
  facet normal 0.998628 0 -0.0523635
    outer loop
      vertex -25.4711 -4.24264 -27.4024
      vertex -25.45 -12 -27
      vertex -25.4711 -12 -27.4024
    endloop
  endfacet
  facet normal -0.998628 0 0.0523635
    outer loop
      vertex -33.15 -12 -27
      vertex -33.1289 -4.24264 -26.5976
      vertex -33.15 -4.24264 -27
    endloop
  endfacet
  facet normal -0.998628 0 0.0523635
    outer loop
      vertex -33.1289 -4.24264 -26.5976
      vertex -33.15 -12 -27
      vertex -33.1289 -12 -26.5976
    endloop
  endfacet
  facet normal -0.707107 0 -0.707107
    outer loop
      vertex -32.1611 -12 -29.5762
      vertex -31.8762 -4.24264 -29.8611
      vertex -31.8762 -12 -29.8611
    endloop
  endfacet
  facet normal -0.707107 0 -0.707107
    outer loop
      vertex -31.8762 -4.24264 -29.8611
      vertex -32.1611 -12 -29.5762
      vertex -32.1611 -4.24264 -29.5762
    endloop
  endfacet
  facet normal 0.707107 0 -0.707107
    outer loop
      vertex -26.7238 -12 -29.8611
      vertex -26.4389 -4.24264 -29.5762
      vertex -26.4389 -12 -29.5762
    endloop
  endfacet
  facet normal 0.707107 0 -0.707107
    outer loop
      vertex -26.4389 -4.24264 -29.5762
      vertex -26.7238 -12 -29.8611
      vertex -26.7238 -4.24264 -29.8611
    endloop
  endfacet
  facet normal 0.933588 0 -0.358347
    outer loop
      vertex -25.6384 -12 -28.1897
      vertex -25.7828 -4.24264 -28.5659
      vertex -25.6384 -4.24264 -28.1897
    endloop
  endfacet
  facet normal 0.933588 0 -0.358347
    outer loop
      vertex -25.7828 -4.24264 -28.5659
      vertex -25.6384 -12 -28.1897
      vertex -25.7828 -12 -28.5659
    endloop
  endfacet
  facet normal -0.454048 0 0.890977
    outer loop
      vertex -31.225 -4.24264 -23.6658
      vertex -30.8659 -12 -23.4828
      vertex -30.8659 -4.24264 -23.4828
    endloop
  endfacet
  facet normal -0.454048 0 0.890977
    outer loop
      vertex -30.8659 -12 -23.4828
      vertex -31.225 -4.24264 -23.6658
      vertex -31.225 -12 -23.6658
    endloop
  endfacet
  facet normal -0.258852 0 -0.965917
    outer loop
      vertex -30.4897 -12 -30.6616
      vertex -30.1005 -4.24264 -30.7659
      vertex -30.1005 -12 -30.7659
    endloop
  endfacet
  facet normal -0.258852 0 -0.965917
    outer loop
      vertex -30.1005 -4.24264 -30.7659
      vertex -30.4897 -12 -30.6616
      vertex -30.4897 -4.24264 -30.6616
    endloop
  endfacet
  facet normal 0.777176 -0 0.629284
    outer loop
      vertex -26.4389 -12 -24.4238
      vertex -26.1853 -4.24264 -24.737
      vertex -26.4389 -4.24264 -24.4238
    endloop
  endfacet
  facet normal 0.777176 0 0.629284
    outer loop
      vertex -26.1853 -4.24264 -24.737
      vertex -26.4389 -12 -24.4238
      vertex -26.1853 -12 -24.737
    endloop
  endfacet
  facet normal 0.890977 -0 0.454048
    outer loop
      vertex -25.9658 -12 -25.075
      vertex -25.7828 -4.24264 -25.4341
      vertex -25.9658 -4.24264 -25.075
    endloop
  endfacet
  facet normal 0.890977 0 0.454048
    outer loop
      vertex -25.7828 -4.24264 -25.4341
      vertex -25.9658 -12 -25.075
      vertex -25.7828 -12 -25.4341
    endloop
  endfacet
  facet normal 0.454048 0 -0.890977
    outer loop
      vertex -27.7341 -12 -30.5172
      vertex -27.375 -4.24264 -30.3342
      vertex -27.375 -12 -30.3342
    endloop
  endfacet
  facet normal 0.454048 0 -0.890977
    outer loop
      vertex -27.375 -4.24264 -30.3342
      vertex -27.7341 -12 -30.5172
      vertex -27.7341 -4.24264 -30.5172
    endloop
  endfacet
  facet normal 0.544639 0 -0.83867
    outer loop
      vertex -27.375 -12 -30.3342
      vertex -27.037 -4.24264 -30.1147
      vertex -27.037 -12 -30.1147
    endloop
  endfacet
  facet normal 0.544639 0 -0.83867
    outer loop
      vertex -27.037 -4.24264 -30.1147
      vertex -27.375 -12 -30.3342
      vertex -27.375 -4.24264 -30.3342
    endloop
  endfacet
  facet normal 0.965917 0 -0.258852
    outer loop
      vertex -25.5341 -12 -27.8005
      vertex -25.6384 -4.24264 -28.1897
      vertex -25.5341 -4.24264 -27.8005
    endloop
  endfacet
  facet normal 0.965917 0 -0.258852
    outer loop
      vertex -25.6384 -4.24264 -28.1897
      vertex -25.5341 -12 -27.8005
      vertex -25.6384 -12 -28.1897
    endloop
  endfacet
  facet normal -0.933588 0 0.358347
    outer loop
      vertex -32.9616 -12 -25.8103
      vertex -32.8172 -4.24264 -25.4341
      vertex -32.9616 -4.24264 -25.8103
    endloop
  endfacet
  facet normal -0.933588 0 0.358347
    outer loop
      vertex -32.8172 -4.24264 -25.4341
      vertex -32.9616 -12 -25.8103
      vertex -32.8172 -12 -25.4341
    endloop
  endfacet
  facet normal -0.629284 0 0.777176
    outer loop
      vertex -31.8762 -4.24264 -24.1389
      vertex -31.563 -12 -23.8853
      vertex -31.563 -4.24264 -23.8853
    endloop
  endfacet
  facet normal -0.629284 0 0.777176
    outer loop
      vertex -31.563 -12 -23.8853
      vertex -31.8762 -4.24264 -24.1389
      vertex -31.8762 -12 -24.1389
    endloop
  endfacet
  facet normal -0.965917 0 -0.258852
    outer loop
      vertex -32.9616 -12 -28.1897
      vertex -33.0659 -4.24264 -27.8005
      vertex -32.9616 -4.24264 -28.1897
    endloop
  endfacet
  facet normal -0.965917 -0 -0.258852
    outer loop
      vertex -33.0659 -4.24264 -27.8005
      vertex -32.9616 -12 -28.1897
      vertex -33.0659 -12 -27.8005
    endloop
  endfacet
  facet normal -0.629284 0 -0.777176
    outer loop
      vertex -31.8762 -12 -29.8611
      vertex -31.563 -4.24264 -30.1147
      vertex -31.563 -12 -30.1147
    endloop
  endfacet
  facet normal -0.629284 0 -0.777176
    outer loop
      vertex -31.563 -4.24264 -30.1147
      vertex -31.8762 -12 -29.8611
      vertex -31.8762 -4.24264 -29.8611
    endloop
  endfacet
  facet normal -0.156307 0 -0.987709
    outer loop
      vertex -30.1005 -12 -30.7659
      vertex -29.7024 -4.24264 -30.8289
      vertex -29.7024 -12 -30.8289
    endloop
  endfacet
  facet normal -0.156307 0 -0.987709
    outer loop
      vertex -29.7024 -4.24264 -30.8289
      vertex -30.1005 -12 -30.7659
      vertex -30.1005 -4.24264 -30.7659
    endloop
  endfacet
  facet normal 0.156307 0 0.987709
    outer loop
      vertex -28.8976 -4.24264 -23.1711
      vertex -28.4995 -12 -23.2341
      vertex -28.4995 -4.24264 -23.2341
    endloop
  endfacet
  facet normal 0.156307 0 0.987709
    outer loop
      vertex -28.4995 -12 -23.2341
      vertex -28.8976 -4.24264 -23.1711
      vertex -28.8976 -12 -23.1711
    endloop
  endfacet
  facet normal 0.358347 0 0.933588
    outer loop
      vertex -28.1103 -4.24264 -23.3384
      vertex -27.7341 -12 -23.4828
      vertex -27.7341 -4.24264 -23.4828
    endloop
  endfacet
  facet normal 0.358347 0 0.933588
    outer loop
      vertex -27.7341 -12 -23.4828
      vertex -28.1103 -4.24264 -23.3384
      vertex -28.1103 -12 -23.3384
    endloop
  endfacet
  facet normal 0.629284 0 0.777176
    outer loop
      vertex -27.037 -4.24264 -23.8853
      vertex -26.7238 -12 -24.1389
      vertex -26.7238 -4.24264 -24.1389
    endloop
  endfacet
  facet normal 0.629284 0 0.777176
    outer loop
      vertex -26.7238 -12 -24.1389
      vertex -27.037 -4.24264 -23.8853
      vertex -27.037 -12 -23.8853
    endloop
  endfacet
  facet normal 0.707107 0 0.707107
    outer loop
      vertex -26.7238 -4.24264 -24.1389
      vertex -26.4389 -12 -24.4238
      vertex -26.4389 -4.24264 -24.4238
    endloop
  endfacet
  facet normal 0.707107 0 0.707107
    outer loop
      vertex -26.4389 -12 -24.4238
      vertex -26.7238 -4.24264 -24.1389
      vertex -26.7238 -12 -24.1389
    endloop
  endfacet
  facet normal 0.544639 0 0.83867
    outer loop
      vertex -27.375 -4.24264 -23.6658
      vertex -27.037 -12 -23.8853
      vertex -27.037 -4.24264 -23.8853
    endloop
  endfacet
  facet normal 0.544639 0 0.83867
    outer loop
      vertex -27.037 -12 -23.8853
      vertex -27.375 -4.24264 -23.6658
      vertex -27.375 -12 -23.6658
    endloop
  endfacet
  facet normal 0.987709 -0 0.156307
    outer loop
      vertex -25.5341 -12 -26.1995
      vertex -25.4711 -4.24264 -26.5976
      vertex -25.5341 -4.24264 -26.1995
    endloop
  endfacet
  facet normal 0.987709 0 0.156307
    outer loop
      vertex -25.4711 -4.24264 -26.5976
      vertex -25.5341 -12 -26.1995
      vertex -25.4711 -12 -26.5976
    endloop
  endfacet
  facet normal 0.965917 -0 0.258852
    outer loop
      vertex -25.6384 -12 -25.8103
      vertex -25.5341 -4.24264 -26.1995
      vertex -25.6384 -4.24264 -25.8103
    endloop
  endfacet
  facet normal 0.965917 0 0.258852
    outer loop
      vertex -25.5341 -4.24264 -26.1995
      vertex -25.6384 -12 -25.8103
      vertex -25.5341 -12 -26.1995
    endloop
  endfacet
  facet normal 0.998628 -0 0.0523635
    outer loop
      vertex -25.4711 -12 -26.5976
      vertex -25.45 -4.24264 -27
      vertex -25.4711 -4.24264 -26.5976
    endloop
  endfacet
  facet normal 0.998628 0 0.0523635
    outer loop
      vertex -25.45 -4.24264 -27
      vertex -25.4711 -12 -26.5976
      vertex -25.45 -12 -27
    endloop
  endfacet
  facet normal 0.933588 -0 0.358347
    outer loop
      vertex -25.7828 -12 -25.4341
      vertex -25.6384 -4.24264 -25.8103
      vertex -25.7828 -4.24264 -25.4341
    endloop
  endfacet
  facet normal 0.933588 0 0.358347
    outer loop
      vertex -25.6384 -4.24264 -25.8103
      vertex -25.7828 -12 -25.4341
      vertex -25.6384 -12 -25.8103
    endloop
  endfacet
  facet normal 0.83867 -0 0.544639
    outer loop
      vertex -26.1853 -12 -24.737
      vertex -25.9658 -4.24264 -25.075
      vertex -26.1853 -4.24264 -24.737
    endloop
  endfacet
  facet normal 0.83867 0 0.544639
    outer loop
      vertex -25.9658 -4.24264 -25.075
      vertex -26.1853 -12 -24.737
      vertex -25.9658 -12 -25.075
    endloop
  endfacet
  facet normal 0.156307 0 -0.987709
    outer loop
      vertex -28.8976 -12 -30.8289
      vertex -28.4995 -4.24264 -30.7659
      vertex -28.4995 -12 -30.7659
    endloop
  endfacet
  facet normal 0.156307 0 -0.987709
    outer loop
      vertex -28.4995 -4.24264 -30.7659
      vertex -28.8976 -12 -30.8289
      vertex -28.8976 -4.24264 -30.8289
    endloop
  endfacet
  facet normal 0.358347 0 -0.933588
    outer loop
      vertex -28.1103 -12 -30.6616
      vertex -27.7341 -4.24264 -30.5172
      vertex -27.7341 -12 -30.5172
    endloop
  endfacet
  facet normal 0.358347 0 -0.933588
    outer loop
      vertex -27.7341 -4.24264 -30.5172
      vertex -28.1103 -12 -30.6616
      vertex -28.1103 -4.24264 -30.6616
    endloop
  endfacet
  facet normal 0.0523635 0 -0.998628
    outer loop
      vertex -29.3 -12 -30.85
      vertex -28.8976 -4.24264 -30.8289
      vertex -28.8976 -12 -30.8289
    endloop
  endfacet
  facet normal 0.0523635 0 -0.998628
    outer loop
      vertex -28.8976 -4.24264 -30.8289
      vertex -29.3 -12 -30.85
      vertex -29.3 -4.24264 -30.85
    endloop
  endfacet
  facet normal 0.83867 0 -0.544639
    outer loop
      vertex -25.9658 -12 -28.925
      vertex -26.1853 -4.24264 -29.263
      vertex -25.9658 -4.24264 -28.925
    endloop
  endfacet
  facet normal 0.83867 0 -0.544639
    outer loop
      vertex -26.1853 -4.24264 -29.263
      vertex -25.9658 -12 -28.925
      vertex -26.1853 -12 -29.263
    endloop
  endfacet
  facet normal 0.777176 0 -0.629284
    outer loop
      vertex -26.1853 -12 -29.263
      vertex -26.4389 -4.24264 -29.5762
      vertex -26.1853 -4.24264 -29.263
    endloop
  endfacet
  facet normal 0.777176 0 -0.629284
    outer loop
      vertex -26.4389 -4.24264 -29.5762
      vertex -26.1853 -12 -29.263
      vertex -26.4389 -12 -29.5762
    endloop
  endfacet
  facet normal 0.987709 0 -0.156307
    outer loop
      vertex -25.4711 -12 -27.4024
      vertex -25.5341 -4.24264 -27.8005
      vertex -25.4711 -4.24264 -27.4024
    endloop
  endfacet
  facet normal 0.987709 0 -0.156307
    outer loop
      vertex -25.5341 -4.24264 -27.8005
      vertex -25.4711 -12 -27.4024
      vertex -25.5341 -12 -27.8005
    endloop
  endfacet
  facet normal -0.156307 0 0.987709
    outer loop
      vertex -30.1005 -4.24264 -23.2341
      vertex -29.7024 -12 -23.1711
      vertex -29.7024 -4.24264 -23.1711
    endloop
  endfacet
  facet normal -0.156307 0 0.987709
    outer loop
      vertex -29.7024 -12 -23.1711
      vertex -30.1005 -4.24264 -23.2341
      vertex -30.1005 -12 -23.2341
    endloop
  endfacet
  facet normal -0.0523635 0 0.998628
    outer loop
      vertex -29.7024 -4.24264 -23.1711
      vertex -29.3 -12 -23.15
      vertex -29.3 -4.24264 -23.15
    endloop
  endfacet
  facet normal -0.0523635 0 0.998628
    outer loop
      vertex -29.3 -12 -23.15
      vertex -29.7024 -4.24264 -23.1711
      vertex -29.7024 -12 -23.1711
    endloop
  endfacet
  facet normal -0.987709 0 0.156307
    outer loop
      vertex -33.1289 -12 -26.5976
      vertex -33.0659 -4.24264 -26.1995
      vertex -33.1289 -4.24264 -26.5976
    endloop
  endfacet
  facet normal -0.987709 0 0.156307
    outer loop
      vertex -33.0659 -4.24264 -26.1995
      vertex -33.1289 -12 -26.5976
      vertex -33.0659 -12 -26.1995
    endloop
  endfacet
  facet normal -0.83867 0 0.544639
    outer loop
      vertex -32.6342 -12 -25.075
      vertex -32.4147 -4.24264 -24.737
      vertex -32.6342 -4.24264 -25.075
    endloop
  endfacet
  facet normal -0.83867 0 0.544639
    outer loop
      vertex -32.4147 -4.24264 -24.737
      vertex -32.6342 -12 -25.075
      vertex -32.4147 -12 -24.737
    endloop
  endfacet
  facet normal -0.707107 0 0.707107
    outer loop
      vertex -32.1611 -4.24264 -24.4238
      vertex -31.8762 -12 -24.1389
      vertex -31.8762 -4.24264 -24.1389
    endloop
  endfacet
  facet normal -0.707107 0 0.707107
    outer loop
      vertex -31.8762 -12 -24.1389
      vertex -32.1611 -4.24264 -24.4238
      vertex -32.1611 -12 -24.4238
    endloop
  endfacet
  facet normal -0.777176 0 0.629284
    outer loop
      vertex -32.4147 -12 -24.737
      vertex -32.1611 -4.24264 -24.4238
      vertex -32.4147 -4.24264 -24.737
    endloop
  endfacet
  facet normal -0.777176 0 0.629284
    outer loop
      vertex -32.1611 -4.24264 -24.4238
      vertex -32.4147 -12 -24.737
      vertex -32.1611 -12 -24.4238
    endloop
  endfacet
  facet normal -0.544639 0 0.83867
    outer loop
      vertex -31.563 -4.24264 -23.8853
      vertex -31.225 -12 -23.6658
      vertex -31.225 -4.24264 -23.6658
    endloop
  endfacet
  facet normal -0.544639 0 0.83867
    outer loop
      vertex -31.225 -12 -23.6658
      vertex -31.563 -4.24264 -23.8853
      vertex -31.563 -12 -23.8853
    endloop
  endfacet
  facet normal -0.987709 0 -0.156307
    outer loop
      vertex -33.0659 -12 -27.8005
      vertex -33.1289 -4.24264 -27.4024
      vertex -33.0659 -4.24264 -27.8005
    endloop
  endfacet
  facet normal -0.987709 -0 -0.156307
    outer loop
      vertex -33.1289 -4.24264 -27.4024
      vertex -33.0659 -12 -27.8005
      vertex -33.1289 -12 -27.4024
    endloop
  endfacet
  facet normal 0 -1 0
    outer loop
      vertex -29.7024 -12 -23.1711
      vertex -28.8976 -12 -23.1711
      vertex -29.3 -12 -23.15
    endloop
  endfacet
  facet normal 0 -1 0
    outer loop
      vertex -30.1005 -12 -23.2341
      vertex -28.8976 -12 -23.1711
      vertex -29.7024 -12 -23.1711
    endloop
  endfacet
  facet normal 0 -1 0
    outer loop
      vertex -30.1005 -12 -23.2341
      vertex -28.4995 -12 -23.2341
      vertex -28.8976 -12 -23.1711
    endloop
  endfacet
  facet normal 0 -1 0
    outer loop
      vertex -30.4897 -12 -23.3384
      vertex -28.4995 -12 -23.2341
      vertex -30.1005 -12 -23.2341
    endloop
  endfacet
  facet normal 0 -1 0
    outer loop
      vertex -30.4897 -12 -23.3384
      vertex -28.1103 -12 -23.3384
      vertex -28.4995 -12 -23.2341
    endloop
  endfacet
  facet normal 0 -1 0
    outer loop
      vertex -30.8659 -12 -23.4828
      vertex -28.1103 -12 -23.3384
      vertex -30.4897 -12 -23.3384
    endloop
  endfacet
  facet normal 0 -1 0
    outer loop
      vertex -30.8659 -12 -23.4828
      vertex -27.7341 -12 -23.4828
      vertex -28.1103 -12 -23.3384
    endloop
  endfacet
  facet normal 0 -1 0
    outer loop
      vertex -31.225 -12 -23.6658
      vertex -27.7341 -12 -23.4828
      vertex -30.8659 -12 -23.4828
    endloop
  endfacet
  facet normal 0 -1 0
    outer loop
      vertex -31.225 -12 -23.6658
      vertex -27.375 -12 -23.6658
      vertex -27.7341 -12 -23.4828
    endloop
  endfacet
  facet normal 0 -1 0
    outer loop
      vertex -31.563 -12 -23.8853
      vertex -27.375 -12 -23.6658
      vertex -31.225 -12 -23.6658
    endloop
  endfacet
  facet normal 0 -1 0
    outer loop
      vertex -31.563 -12 -23.8853
      vertex -27.037 -12 -23.8853
      vertex -27.375 -12 -23.6658
    endloop
  endfacet
  facet normal 0 -1 0
    outer loop
      vertex -31.8762 -12 -24.1389
      vertex -27.037 -12 -23.8853
      vertex -31.563 -12 -23.8853
    endloop
  endfacet
  facet normal 0 -1 0
    outer loop
      vertex -31.8762 -12 -24.1389
      vertex -26.7238 -12 -24.1389
      vertex -27.037 -12 -23.8853
    endloop
  endfacet
  facet normal 0 -1 0
    outer loop
      vertex -32.1611 -12 -24.4238
      vertex -26.7238 -12 -24.1389
      vertex -31.8762 -12 -24.1389
    endloop
  endfacet
  facet normal 0 -1 0
    outer loop
      vertex -32.1611 -12 -24.4238
      vertex -26.4389 -12 -24.4238
      vertex -26.7238 -12 -24.1389
    endloop
  endfacet
  facet normal 0 -1 0
    outer loop
      vertex -32.4147 -12 -24.737
      vertex -26.4389 -12 -24.4238
      vertex -32.1611 -12 -24.4238
    endloop
  endfacet
  facet normal 0 -1 0
    outer loop
      vertex -32.4147 -12 -24.737
      vertex -26.1853 -12 -24.737
      vertex -26.4389 -12 -24.4238
    endloop
  endfacet
  facet normal 0 -1 0
    outer loop
      vertex -32.6342 -12 -25.075
      vertex -26.1853 -12 -24.737
      vertex -32.4147 -12 -24.737
    endloop
  endfacet
  facet normal 0 -1 0
    outer loop
      vertex -32.6342 -12 -25.075
      vertex -25.9658 -12 -25.075
      vertex -26.1853 -12 -24.737
    endloop
  endfacet
  facet normal 0 -1 0
    outer loop
      vertex -32.8172 -12 -25.4341
      vertex -25.9658 -12 -25.075
      vertex -32.6342 -12 -25.075
    endloop
  endfacet
  facet normal 0 -1 0
    outer loop
      vertex -32.8172 -12 -25.4341
      vertex -25.7828 -12 -25.4341
      vertex -25.9658 -12 -25.075
    endloop
  endfacet
  facet normal 0 -1 0
    outer loop
      vertex -32.9616 -12 -25.8103
      vertex -25.7828 -12 -25.4341
      vertex -32.8172 -12 -25.4341
    endloop
  endfacet
  facet normal 0 -1 0
    outer loop
      vertex -32.9616 -12 -25.8103
      vertex -25.6384 -12 -25.8103
      vertex -25.7828 -12 -25.4341
    endloop
  endfacet
  facet normal 0 -1 0
    outer loop
      vertex -33.0659 -12 -26.1995
      vertex -25.6384 -12 -25.8103
      vertex -32.9616 -12 -25.8103
    endloop
  endfacet
  facet normal 0 -1 0
    outer loop
      vertex -33.0659 -12 -26.1995
      vertex -25.5341 -12 -26.1995
      vertex -25.6384 -12 -25.8103
    endloop
  endfacet
  facet normal 0 -1 0
    outer loop
      vertex -33.1289 -12 -26.5976
      vertex -25.5341 -12 -26.1995
      vertex -33.0659 -12 -26.1995
    endloop
  endfacet
  facet normal 0 -1 0
    outer loop
      vertex -33.1289 -12 -26.5976
      vertex -25.4711 -12 -26.5976
      vertex -25.5341 -12 -26.1995
    endloop
  endfacet
  facet normal 0 -1 0
    outer loop
      vertex -33.15 -12 -27
      vertex -25.4711 -12 -26.5976
      vertex -33.1289 -12 -26.5976
    endloop
  endfacet
  facet normal 0 -1 0
    outer loop
      vertex -33.15 -12 -27
      vertex -25.45 -12 -27
      vertex -25.4711 -12 -26.5976
    endloop
  endfacet
  facet normal 0 -1 0
    outer loop
      vertex -33.1289 -12 -27.4024
      vertex -25.45 -12 -27
      vertex -33.15 -12 -27
    endloop
  endfacet
  facet normal 0 -1 0
    outer loop
      vertex -33.1289 -12 -27.4024
      vertex -25.4711 -12 -27.4024
      vertex -25.45 -12 -27
    endloop
  endfacet
  facet normal 0 -1 0
    outer loop
      vertex -33.0659 -12 -27.8005
      vertex -25.4711 -12 -27.4024
      vertex -33.1289 -12 -27.4024
    endloop
  endfacet
  facet normal 0 -1 0
    outer loop
      vertex -33.0659 -12 -27.8005
      vertex -25.5341 -12 -27.8005
      vertex -25.4711 -12 -27.4024
    endloop
  endfacet
  facet normal 0 -1 0
    outer loop
      vertex -32.9616 -12 -28.1897
      vertex -25.5341 -12 -27.8005
      vertex -33.0659 -12 -27.8005
    endloop
  endfacet
  facet normal 0 -1 0
    outer loop
      vertex -32.9616 -12 -28.1897
      vertex -25.6384 -12 -28.1897
      vertex -25.5341 -12 -27.8005
    endloop
  endfacet
  facet normal 0 -1 0
    outer loop
      vertex -32.8172 -12 -28.5659
      vertex -25.6384 -12 -28.1897
      vertex -32.9616 -12 -28.1897
    endloop
  endfacet
  facet normal 0 -1 0
    outer loop
      vertex -32.8172 -12 -28.5659
      vertex -25.7828 -12 -28.5659
      vertex -25.6384 -12 -28.1897
    endloop
  endfacet
  facet normal 0 -1 0
    outer loop
      vertex -32.6342 -12 -28.925
      vertex -25.7828 -12 -28.5659
      vertex -32.8172 -12 -28.5659
    endloop
  endfacet
  facet normal 0 -1 0
    outer loop
      vertex -32.6342 -12 -28.925
      vertex -25.9658 -12 -28.925
      vertex -25.7828 -12 -28.5659
    endloop
  endfacet
  facet normal 0 -1 0
    outer loop
      vertex -32.4147 -12 -29.263
      vertex -25.9658 -12 -28.925
      vertex -32.6342 -12 -28.925
    endloop
  endfacet
  facet normal 0 -1 0
    outer loop
      vertex -32.4147 -12 -29.263
      vertex -26.1853 -12 -29.263
      vertex -25.9658 -12 -28.925
    endloop
  endfacet
  facet normal 0 -1 0
    outer loop
      vertex -32.1611 -12 -29.5762
      vertex -26.1853 -12 -29.263
      vertex -32.4147 -12 -29.263
    endloop
  endfacet
  facet normal 0 -1 0
    outer loop
      vertex -32.1611 -12 -29.5762
      vertex -26.4389 -12 -29.5762
      vertex -26.1853 -12 -29.263
    endloop
  endfacet
  facet normal 0 -1 0
    outer loop
      vertex -31.8762 -12 -29.8611
      vertex -26.4389 -12 -29.5762
      vertex -32.1611 -12 -29.5762
    endloop
  endfacet
  facet normal 0 -1 0
    outer loop
      vertex -31.8762 -12 -29.8611
      vertex -26.7238 -12 -29.8611
      vertex -26.4389 -12 -29.5762
    endloop
  endfacet
  facet normal 0 -1 0
    outer loop
      vertex -31.563 -12 -30.1147
      vertex -26.7238 -12 -29.8611
      vertex -31.8762 -12 -29.8611
    endloop
  endfacet
  facet normal 0 -1 0
    outer loop
      vertex -31.563 -12 -30.1147
      vertex -27.037 -12 -30.1147
      vertex -26.7238 -12 -29.8611
    endloop
  endfacet
  facet normal 0 -1 0
    outer loop
      vertex -31.225 -12 -30.3342
      vertex -27.037 -12 -30.1147
      vertex -31.563 -12 -30.1147
    endloop
  endfacet
  facet normal 0 -1 0
    outer loop
      vertex -31.225 -12 -30.3342
      vertex -27.375 -12 -30.3342
      vertex -27.037 -12 -30.1147
    endloop
  endfacet
  facet normal 0 -1 0
    outer loop
      vertex -30.8659 -12 -30.5172
      vertex -27.375 -12 -30.3342
      vertex -31.225 -12 -30.3342
    endloop
  endfacet
  facet normal 0 -1 0
    outer loop
      vertex -30.8659 -12 -30.5172
      vertex -27.7341 -12 -30.5172
      vertex -27.375 -12 -30.3342
    endloop
  endfacet
  facet normal 0 -1 0
    outer loop
      vertex -30.4897 -12 -30.6616
      vertex -27.7341 -12 -30.5172
      vertex -30.8659 -12 -30.5172
    endloop
  endfacet
  facet normal 0 -1 0
    outer loop
      vertex -30.4897 -12 -30.6616
      vertex -28.1103 -12 -30.6616
      vertex -27.7341 -12 -30.5172
    endloop
  endfacet
  facet normal 0 -1 0
    outer loop
      vertex -30.1005 -12 -30.7659
      vertex -28.1103 -12 -30.6616
      vertex -30.4897 -12 -30.6616
    endloop
  endfacet
  facet normal 0 -1 0
    outer loop
      vertex -30.1005 -12 -30.7659
      vertex -28.4995 -12 -30.7659
      vertex -28.1103 -12 -30.6616
    endloop
  endfacet
  facet normal 0 -1 0
    outer loop
      vertex -29.7024 -12 -30.8289
      vertex -28.4995 -12 -30.7659
      vertex -30.1005 -12 -30.7659
    endloop
  endfacet
  facet normal 0 -1 0
    outer loop
      vertex -29.7024 -12 -30.8289
      vertex -28.8976 -12 -30.8289
      vertex -28.4995 -12 -30.7659
    endloop
  endfacet
  facet normal -0 -1 0
    outer loop
      vertex -28.8976 -12 -30.8289
      vertex -29.7024 -12 -30.8289
      vertex -29.3 -12 -30.85
    endloop
  endfacet
  facet normal -0.83867 0 -0.544639
    outer loop
      vertex -32.4147 -12 -29.263
      vertex -32.6342 -4.24264 -28.925
      vertex -32.4147 -4.24264 -29.263
    endloop
  endfacet
  facet normal -0.83867 -0 -0.544639
    outer loop
      vertex -32.6342 -4.24264 -28.925
      vertex -32.4147 -12 -29.263
      vertex -32.6342 -12 -28.925
    endloop
  endfacet
  facet normal -0.890977 0 -0.454048
    outer loop
      vertex -32.6342 -12 -28.925
      vertex -32.8172 -4.24264 -28.5659
      vertex -32.6342 -4.24264 -28.925
    endloop
  endfacet
  facet normal -0.890977 -0 -0.454048
    outer loop
      vertex -32.8172 -4.24264 -28.5659
      vertex -32.6342 -12 -28.925
      vertex -32.8172 -12 -28.5659
    endloop
  endfacet
  facet normal -0.933588 0 -0.358347
    outer loop
      vertex -32.8172 -12 -28.5659
      vertex -32.9616 -4.24264 -28.1897
      vertex -32.8172 -4.24264 -28.5659
    endloop
  endfacet
  facet normal -0.933588 -0 -0.358347
    outer loop
      vertex -32.9616 -4.24264 -28.1897
      vertex -32.8172 -12 -28.5659
      vertex -32.9616 -12 -28.1897
    endloop
  endfacet
  facet normal -0.998628 0 -0.0523635
    outer loop
      vertex -33.1289 -12 -27.4024
      vertex -33.15 -4.24264 -27
      vertex -33.1289 -4.24264 -27.4024
    endloop
  endfacet
  facet normal -0.998628 -0 -0.0523635
    outer loop
      vertex -33.15 -4.24264 -27
      vertex -33.1289 -12 -27.4024
      vertex -33.15 -12 -27
    endloop
  endfacet
  facet normal -0.454048 0 -0.890977
    outer loop
      vertex -31.225 -12 -30.3342
      vertex -30.8659 -4.24264 -30.5172
      vertex -30.8659 -12 -30.5172
    endloop
  endfacet
  facet normal -0.454048 0 -0.890977
    outer loop
      vertex -30.8659 -4.24264 -30.5172
      vertex -31.225 -12 -30.3342
      vertex -31.225 -4.24264 -30.3342
    endloop
  endfacet
  facet normal -0.544639 0 -0.83867
    outer loop
      vertex -31.563 -12 -30.1147
      vertex -31.225 -4.24264 -30.3342
      vertex -31.225 -12 -30.3342
    endloop
  endfacet
  facet normal -0.544639 0 -0.83867
    outer loop
      vertex -31.225 -4.24264 -30.3342
      vertex -31.563 -12 -30.1147
      vertex -31.563 -4.24264 -30.1147
    endloop
  endfacet
  facet normal -0.358347 0 -0.933588
    outer loop
      vertex -30.8659 -12 -30.5172
      vertex -30.4897 -4.24264 -30.6616
      vertex -30.4897 -12 -30.6616
    endloop
  endfacet
  facet normal -0.358347 0 -0.933588
    outer loop
      vertex -30.4897 -4.24264 -30.6616
      vertex -30.8659 -12 -30.5172
      vertex -30.8659 -4.24264 -30.5172
    endloop
  endfacet
  facet normal 0.258852 0 0.965917
    outer loop
      vertex -28.4995 -4.24264 -23.2341
      vertex -28.1103 -12 -23.3384
      vertex -28.1103 -4.24264 -23.3384
    endloop
  endfacet
  facet normal 0.258852 0 0.965917
    outer loop
      vertex -28.1103 -12 -23.3384
      vertex -28.4995 -4.24264 -23.2341
      vertex -28.4995 -12 -23.2341
    endloop
  endfacet
  facet normal 0.454048 0 0.890977
    outer loop
      vertex -27.7341 -4.24264 -23.4828
      vertex -27.375 -12 -23.6658
      vertex -27.375 -4.24264 -23.6658
    endloop
  endfacet
  facet normal 0.454048 0 0.890977
    outer loop
      vertex -27.375 -12 -23.6658
      vertex -27.7341 -4.24264 -23.4828
      vertex -27.7341 -12 -23.4828
    endloop
  endfacet
  facet normal 0.629284 0 -0.777176
    outer loop
      vertex -27.037 -12 -30.1147
      vertex -26.7238 -4.24264 -29.8611
      vertex -26.7238 -12 -29.8611
    endloop
  endfacet
  facet normal 0.629284 0 -0.777176
    outer loop
      vertex -26.7238 -4.24264 -29.8611
      vertex -27.037 -12 -30.1147
      vertex -27.037 -4.24264 -30.1147
    endloop
  endfacet
  facet normal 0.258852 0 -0.965917
    outer loop
      vertex -28.4995 -12 -30.7659
      vertex -28.1103 -4.24264 -30.6616
      vertex -28.1103 -12 -30.6616
    endloop
  endfacet
  facet normal 0.258852 0 -0.965917
    outer loop
      vertex -28.1103 -4.24264 -30.6616
      vertex -28.4995 -12 -30.7659
      vertex -28.4995 -4.24264 -30.7659
    endloop
  endfacet
  facet normal 0.890977 0 -0.454048
    outer loop
      vertex -25.7828 -12 -28.5659
      vertex -25.9658 -4.24264 -28.925
      vertex -25.7828 -4.24264 -28.5659
    endloop
  endfacet
  facet normal 0.890977 0 -0.454048
    outer loop
      vertex -25.9658 -4.24264 -28.925
      vertex -25.7828 -12 -28.5659
      vertex -25.9658 -12 -28.925
    endloop
  endfacet
  facet normal -0.358347 0 0.933588
    outer loop
      vertex -30.8659 -4.24264 -23.4828
      vertex -30.4897 -12 -23.3384
      vertex -30.4897 -4.24264 -23.3384
    endloop
  endfacet
  facet normal -0.358347 0 0.933588
    outer loop
      vertex -30.4897 -12 -23.3384
      vertex -30.8659 -4.24264 -23.4828
      vertex -30.8659 -12 -23.4828
    endloop
  endfacet
  facet normal -0.965917 0 0.258852
    outer loop
      vertex -33.0659 -12 -26.1995
      vertex -32.9616 -4.24264 -25.8103
      vertex -33.0659 -4.24264 -26.1995
    endloop
  endfacet
  facet normal -0.965917 0 0.258852
    outer loop
      vertex -32.9616 -4.24264 -25.8103
      vertex -33.0659 -12 -26.1995
      vertex -32.9616 -12 -25.8103
    endloop
  endfacet
  facet normal -0.890977 0 0.454048
    outer loop
      vertex -32.8172 -12 -25.4341
      vertex -32.6342 -4.24264 -25.075
      vertex -32.8172 -4.24264 -25.4341
    endloop
  endfacet
  facet normal -0.890977 0 0.454048
    outer loop
      vertex -32.6342 -4.24264 -25.075
      vertex -32.8172 -12 -25.4341
      vertex -32.6342 -12 -25.075
    endloop
  endfacet
  facet normal -0.777176 0 -0.629284
    outer loop
      vertex -32.1611 -12 -29.5762
      vertex -32.4147 -4.24264 -29.263
      vertex -32.1611 -4.24264 -29.5762
    endloop
  endfacet
  facet normal -0.777176 -0 -0.629284
    outer loop
      vertex -32.4147 -4.24264 -29.263
      vertex -32.1611 -12 -29.5762
      vertex -32.4147 -12 -29.263
    endloop
  endfacet
  facet normal -0.258852 0 0.965917
    outer loop
      vertex -30.4897 -4.24264 -23.3384
      vertex -30.1005 -12 -23.2341
      vertex -30.1005 -4.24264 -23.2341
    endloop
  endfacet
  facet normal -0.258852 0 0.965917
    outer loop
      vertex -30.1005 -12 -23.2341
      vertex -30.4897 -4.24264 -23.3384
      vertex -30.4897 -12 -23.3384
    endloop
  endfacet
  facet normal 0 -1 0
    outer loop
      vertex -33.5426 -12.2426 -15
      vertex -25.0574 -12.2426 -7
      vertex -33.5426 -12.2426 -7
    endloop
  endfacet
  facet normal 0 -1 -0
    outer loop
      vertex -25.0574 -12.2426 -7
      vertex -33.5426 -12.2426 -15
      vertex -25.0574 -12.2426 -15
    endloop
  endfacet
  facet normal 1 -0 0
    outer loop
      vertex -25.0574 -12.2426 -7
      vertex -25.0574 -3.75736 -15
      vertex -25.0574 -3.75736 -7
    endloop
  endfacet
  facet normal 1 0 0
    outer loop
      vertex -25.0574 -3.75736 -15
      vertex -25.0574 -12.2426 -7
      vertex -25.0574 -12.2426 -15
    endloop
  endfacet
  facet normal 0 0 0
    outer loop
      vertex -25.0574 -12.2426 -15
      vertex -25.0574 -4.24264 -15
      vertex -25.0574 -3.75736 -15
    endloop
  endfacet
  facet normal 0 0 -1
    outer loop
      vertex -25.0574 -12.2426 -15
      vertex -27.9 -8.5 -15
      vertex -25.0574 -4.24264 -15
    endloop
  endfacet
  facet normal 0 0 -1
    outer loop
      vertex -25.0574 -12.2426 -15
      vertex -27.9072 -8.63756 -15
      vertex -27.9 -8.5 -15
    endloop
  endfacet
  facet normal 0 0 -1
    outer loop
      vertex -25.0574 -12.2426 -15
      vertex -27.9077 -8.64634 -15
      vertex -27.9072 -8.63756 -15
    endloop
  endfacet
  facet normal 0 0 -1
    outer loop
      vertex -25.0574 -12.2426 -15
      vertex -27.9306 -8.79108 -15
      vertex -27.9077 -8.64634 -15
    endloop
  endfacet
  facet normal 0 0 -1
    outer loop
      vertex -25.0574 -12.2426 -15
      vertex -27.9685 -8.93262 -15
      vertex -27.9306 -8.79108 -15
    endloop
  endfacet
  facet normal 0 0 -1
    outer loop
      vertex -25.0574 -12.2426 -15
      vertex -28.021 -9.06943 -15
      vertex -27.9685 -8.93262 -15
    endloop
  endfacet
  facet normal 0 0 -1
    outer loop
      vertex -25.0574 -12.2426 -15
      vertex -28.0876 -9.2 -15
      vertex -28.021 -9.06943 -15
    endloop
  endfacet
  facet normal 0 0 -1
    outer loop
      vertex -25.0574 -12.2426 -15
      vertex -28.1674 -9.3229 -15
      vertex -28.0876 -9.2 -15
    endloop
  endfacet
  facet normal 0 0 -1
    outer loop
      vertex -25.0574 -12.2426 -15
      vertex -28.2596 -9.43678 -15
      vertex -28.1674 -9.3229 -15
    endloop
  endfacet
  facet normal 0 0 -1
    outer loop
      vertex -25.0574 -12.2426 -15
      vertex -28.3632 -9.5404 -15
      vertex -28.2596 -9.43678 -15
    endloop
  endfacet
  facet normal 0 0 -1
    outer loop
      vertex -25.0574 -12.2426 -15
      vertex -28.4771 -9.63262 -15
      vertex -28.3632 -9.5404 -15
    endloop
  endfacet
  facet normal 0 0 -1
    outer loop
      vertex -25.0574 -12.2426 -15
      vertex -28.6 -9.71243 -15
      vertex -28.4771 -9.63262 -15
    endloop
  endfacet
  facet normal 0 0 -1
    outer loop
      vertex -25.0574 -12.2426 -15
      vertex -28.7306 -9.77896 -15
      vertex -28.6 -9.71243 -15
    endloop
  endfacet
  facet normal 0 0 -1
    outer loop
      vertex -25.0574 -12.2426 -15
      vertex -28.8674 -9.83148 -15
      vertex -28.7306 -9.77896 -15
    endloop
  endfacet
  facet normal 0 0 -1
    outer loop
      vertex -25.0574 -12.2426 -15
      vertex -29.0089 -9.86941 -15
      vertex -28.8674 -9.83148 -15
    endloop
  endfacet
  facet normal 0 0 -1
    outer loop
      vertex -25.0574 -12.2426 -15
      vertex -29.1537 -9.89233 -15
      vertex -29.0089 -9.86941 -15
    endloop
  endfacet
  facet normal 0 0 -1
    outer loop
      vertex -25.0574 -12.2426 -15
      vertex -29.3 -9.9 -15
      vertex -29.1537 -9.89233 -15
    endloop
  endfacet
  facet normal 0 0 -1
    outer loop
      vertex -33.5426 -12.2426 -15
      vertex -29.3 -9.9 -15
      vertex -25.0574 -12.2426 -15
    endloop
  endfacet
  facet normal -0 0 -1
    outer loop
      vertex -29.3 -9.9 -15
      vertex -33.5426 -12.2426 -15
      vertex -29.4463 -9.89233 -15
    endloop
  endfacet
  facet normal -0 0 -1
    outer loop
      vertex -29.4463 -9.89233 -15
      vertex -33.5426 -12.2426 -15
      vertex -29.5911 -9.86941 -15
    endloop
  endfacet
  facet normal -0 0 -1
    outer loop
      vertex -29.5911 -9.86941 -15
      vertex -33.5426 -12.2426 -15
      vertex -29.7326 -9.83148 -15
    endloop
  endfacet
  facet normal -0 0 -1
    outer loop
      vertex -29.7326 -9.83148 -15
      vertex -33.5426 -12.2426 -15
      vertex -29.8694 -9.77896 -15
    endloop
  endfacet
  facet normal -0 0 -1
    outer loop
      vertex -30.6928 -8.63756 -15
      vertex -33.5426 -12.2426 -15
      vertex -30.7 -8.5 -15
    endloop
  endfacet
  facet normal -0 0 -1
    outer loop
      vertex -30.6923 -8.64634 -15
      vertex -33.5426 -12.2426 -15
      vertex -30.6928 -8.63756 -15
    endloop
  endfacet
  facet normal -0 0 -1
    outer loop
      vertex -30.6694 -8.79108 -15
      vertex -33.5426 -12.2426 -15
      vertex -30.6923 -8.64634 -15
    endloop
  endfacet
  facet normal -0 0 -1
    outer loop
      vertex -30.6315 -8.93262 -15
      vertex -33.5426 -12.2426 -15
      vertex -30.6694 -8.79108 -15
    endloop
  endfacet
  facet normal -0 0 -1
    outer loop
      vertex -30.579 -9.06943 -15
      vertex -33.5426 -12.2426 -15
      vertex -30.6315 -8.93262 -15
    endloop
  endfacet
  facet normal -0 0 -1
    outer loop
      vertex -30.5124 -9.2 -15
      vertex -33.5426 -12.2426 -15
      vertex -30.579 -9.06943 -15
    endloop
  endfacet
  facet normal -0 0 -1
    outer loop
      vertex -30.4326 -9.3229 -15
      vertex -33.5426 -12.2426 -15
      vertex -30.5124 -9.2 -15
    endloop
  endfacet
  facet normal -0 0 -1
    outer loop
      vertex -30.3404 -9.43678 -15
      vertex -33.5426 -12.2426 -15
      vertex -30.4326 -9.3229 -15
    endloop
  endfacet
  facet normal -0 0 -1
    outer loop
      vertex -30.2368 -9.5404 -15
      vertex -33.5426 -12.2426 -15
      vertex -30.3404 -9.43678 -15
    endloop
  endfacet
  facet normal -0 0 -1
    outer loop
      vertex -30.1229 -9.63262 -15
      vertex -33.5426 -12.2426 -15
      vertex -30.2368 -9.5404 -15
    endloop
  endfacet
  facet normal -0 0 -1
    outer loop
      vertex -30 -9.71243 -15
      vertex -33.5426 -12.2426 -15
      vertex -30.1229 -9.63262 -15
    endloop
  endfacet
  facet normal -0 0 -1
    outer loop
      vertex -29.8694 -9.77896 -15
      vertex -33.5426 -12.2426 -15
      vertex -30 -9.71243 -15
    endloop
  endfacet
  facet normal 0 0 -1
    outer loop
      vertex -27.9005 -8.49122 -15
      vertex -25.0574 -4.24264 -15
      vertex -27.9 -8.5 -15
    endloop
  endfacet
  facet normal 0 0 -1
    outer loop
      vertex -27.9077 -8.35366 -15
      vertex -25.0574 -4.24264 -15
      vertex -27.9005 -8.49122 -15
    endloop
  endfacet
  facet normal 0 0 -1
    outer loop
      vertex -27.9306 -8.20892 -15
      vertex -25.0574 -4.24264 -15
      vertex -27.9077 -8.35366 -15
    endloop
  endfacet
  facet normal 0 0 -1
    outer loop
      vertex -27.9685 -8.06738 -15
      vertex -25.0574 -4.24264 -15
      vertex -27.9306 -8.20892 -15
    endloop
  endfacet
  facet normal 0 0 -1
    outer loop
      vertex -28.021 -7.93057 -15
      vertex -25.0574 -4.24264 -15
      vertex -27.9685 -8.06738 -15
    endloop
  endfacet
  facet normal 0 0 -1
    outer loop
      vertex -28.0876 -7.8 -15
      vertex -25.0574 -4.24264 -15
      vertex -28.021 -7.93057 -15
    endloop
  endfacet
  facet normal 0 0 -1
    outer loop
      vertex -28.1674 -7.6771 -15
      vertex -25.0574 -4.24264 -15
      vertex -28.0876 -7.8 -15
    endloop
  endfacet
  facet normal 0 0 -1
    outer loop
      vertex -28.2596 -7.56322 -15
      vertex -25.0574 -4.24264 -15
      vertex -28.1674 -7.6771 -15
    endloop
  endfacet
  facet normal 0 0 -1
    outer loop
      vertex -28.3632 -7.4596 -15
      vertex -25.0574 -4.24264 -15
      vertex -28.2596 -7.56322 -15
    endloop
  endfacet
  facet normal 0 0 -1
    outer loop
      vertex -28.4771 -7.36738 -15
      vertex -25.0574 -4.24264 -15
      vertex -28.3632 -7.4596 -15
    endloop
  endfacet
  facet normal 0 0 -1
    outer loop
      vertex -28.6 -7.28756 -15
      vertex -25.0574 -4.24264 -15
      vertex -28.4771 -7.36738 -15
    endloop
  endfacet
  facet normal 0 0 -1
    outer loop
      vertex -28.7306 -7.22104 -15
      vertex -25.0574 -4.24264 -15
      vertex -28.6 -7.28756 -15
    endloop
  endfacet
  facet normal 0 0 -1
    outer loop
      vertex -28.8674 -7.16852 -15
      vertex -25.0574 -4.24264 -15
      vertex -28.7306 -7.22104 -15
    endloop
  endfacet
  facet normal 0 0 -1
    outer loop
      vertex -29.0089 -7.13059 -15
      vertex -25.0574 -4.24264 -15
      vertex -28.8674 -7.16852 -15
    endloop
  endfacet
  facet normal 0 0 -1
    outer loop
      vertex -29.1537 -7.10767 -15
      vertex -25.0574 -4.24264 -15
      vertex -29.0089 -7.13059 -15
    endloop
  endfacet
  facet normal 0 0 -1
    outer loop
      vertex -29.3 -7.1 -15
      vertex -25.0574 -4.24264 -15
      vertex -29.1537 -7.10767 -15
    endloop
  endfacet
  facet normal 0 0 -1
    outer loop
      vertex -33.5426 -4.24264 -15
      vertex -29.3 -7.1 -15
      vertex -29.4463 -7.10767 -15
    endloop
  endfacet
  facet normal 0 0 -1
    outer loop
      vertex -33.5426 -4.24264 -15
      vertex -29.4463 -7.10767 -15
      vertex -29.5911 -7.13059 -15
    endloop
  endfacet
  facet normal 0 0 -1
    outer loop
      vertex -33.5426 -4.24264 -15
      vertex -29.5911 -7.13059 -15
      vertex -29.7326 -7.16852 -15
    endloop
  endfacet
  facet normal 0 0 -1
    outer loop
      vertex -33.5426 -4.24264 -15
      vertex -29.7326 -7.16852 -15
      vertex -29.8694 -7.22104 -15
    endloop
  endfacet
  facet normal 0 0 -1
    outer loop
      vertex -33.5426 -4.24264 -15
      vertex -29.8694 -7.22104 -15
      vertex -30 -7.28756 -15
    endloop
  endfacet
  facet normal 0 0 -1
    outer loop
      vertex -33.5426 -12.2426 -15
      vertex -30.6995 -8.49122 -15
      vertex -30.7 -8.5 -15
    endloop
  endfacet
  facet normal 0 0 -1
    outer loop
      vertex -33.5426 -4.24264 -15
      vertex -30.6995 -8.49122 -15
      vertex -33.5426 -12.2426 -15
    endloop
  endfacet
  facet normal 0 0 -1
    outer loop
      vertex -30.6995 -8.49122 -15
      vertex -33.5426 -4.24264 -15
      vertex -30.6923 -8.35366 -15
    endloop
  endfacet
  facet normal 0 0 -1
    outer loop
      vertex -30.6923 -8.35366 -15
      vertex -33.5426 -4.24264 -15
      vertex -30.6694 -8.20892 -15
    endloop
  endfacet
  facet normal 0 0 -1
    outer loop
      vertex -30.6694 -8.20892 -15
      vertex -33.5426 -4.24264 -15
      vertex -30.6315 -8.06738 -15
    endloop
  endfacet
  facet normal 0 0 -1
    outer loop
      vertex -30.6315 -8.06738 -15
      vertex -33.5426 -4.24264 -15
      vertex -30.579 -7.93057 -15
    endloop
  endfacet
  facet normal 0 0 -1
    outer loop
      vertex -30.579 -7.93057 -15
      vertex -33.5426 -4.24264 -15
      vertex -30.5124 -7.8 -15
    endloop
  endfacet
  facet normal 0 0 -1
    outer loop
      vertex -29.3 -7.1 -15
      vertex -33.5426 -4.24264 -15
      vertex -25.0574 -4.24264 -15
    endloop
  endfacet
  facet normal 0 0 -1
    outer loop
      vertex -30.1229 -7.36738 -15
      vertex -33.5426 -4.24264 -15
      vertex -30 -7.28756 -15
    endloop
  endfacet
  facet normal 0 0 -1
    outer loop
      vertex -30.2368 -7.4596 -15
      vertex -33.5426 -4.24264 -15
      vertex -30.1229 -7.36738 -15
    endloop
  endfacet
  facet normal 0 0 -1
    outer loop
      vertex -30.3404 -7.56322 -15
      vertex -33.5426 -4.24264 -15
      vertex -30.2368 -7.4596 -15
    endloop
  endfacet
  facet normal 0 0 -1
    outer loop
      vertex -30.4326 -7.6771 -15
      vertex -33.5426 -4.24264 -15
      vertex -30.3404 -7.56322 -15
    endloop
  endfacet
  facet normal 0 0 -1
    outer loop
      vertex -30.5124 -7.8 -15
      vertex -33.5426 -4.24264 -15
      vertex -30.4326 -7.6771 -15
    endloop
  endfacet
  facet normal -0 0 0
    outer loop
      vertex -33.5426 -4.24264 -15
      vertex -33.5426 -12.2426 -15
      vertex -33.5426 -3.75736 -15
    endloop
  endfacet
  facet normal -1 0 0
    outer loop
      vertex -33.5426 -12.2426 -15
      vertex -33.5426 -3.75736 -7
      vertex -33.5426 -3.75736 -15
    endloop
  endfacet
  facet normal -1 -0 0
    outer loop
      vertex -33.5426 -3.75736 -7
      vertex -33.5426 -12.2426 -15
      vertex -33.5426 -12.2426 -7
    endloop
  endfacet
  facet normal 0.998621 -0.0524945 0
    outer loop
      vertex -30.6983 -8.4678 -7
      vertex -30.6923 -8.35366 -15
      vertex -30.6923 -8.35366 -7
    endloop
  endfacet
  facet normal 0.998633 -0.0522692 3.22327e-06
    outer loop
      vertex -30.6923 -8.35366 -15
      vertex -30.6983 -8.4678 -7
      vertex -30.6995 -8.49122 -15
    endloop
  endfacet
  facet normal 0.987714 -0.156271 0
    outer loop
      vertex -30.6923 -8.35366 -7
      vertex -30.6694 -8.20892 -15
      vertex -30.6694 -8.20892 -7
    endloop
  endfacet
  facet normal 0.987714 -0.156271 0
    outer loop
      vertex -30.6694 -8.20892 -15
      vertex -30.6923 -8.35366 -7
      vertex -30.6923 -8.35366 -15
    endloop
  endfacet
  facet normal 0.998609 -0.0527216 4.55112e-06
    outer loop
      vertex -30.7 -8.5 -7
      vertex -30.6995 -8.49122 -15
      vertex -30.6983 -8.4678 -7
    endloop
  endfacet
  facet normal 0.998382 -0.0568555 0
    outer loop
      vertex -30.6995 -8.49122 -15
      vertex -30.7 -8.5 -7
      vertex -30.7 -8.5 -15
    endloop
  endfacet
  facet normal -0.998621 0.0524945 0
    outer loop
      vertex -27.9 -8.5 -15
      vertex -27.906 -8.61414 -7
      vertex -27.9 -8.5 -7
    endloop
  endfacet
  facet normal -0.998633 0.0522692 -3.22327e-06
    outer loop
      vertex -27.906 -8.61414 -7
      vertex -27.9 -8.5 -15
      vertex -27.9072 -8.63756 -15
    endloop
  endfacet
  facet normal -0.987714 0.156271 0
    outer loop
      vertex -27.9306 -8.79108 -15
      vertex -27.9077 -8.64634 -7
      vertex -27.9077 -8.64634 -15
    endloop
  endfacet
  facet normal -0.987714 0.156271 0
    outer loop
      vertex -27.9077 -8.64634 -7
      vertex -27.9306 -8.79108 -15
      vertex -27.9306 -8.79108 -7
    endloop
  endfacet
  facet normal -0.0523546 -0.998629 0
    outer loop
      vertex -29.3 -7.1 -15
      vertex -29.1537 -7.10767 -7
      vertex -29.3 -7.1 -7
    endloop
  endfacet
  facet normal -0.0523546 -0.998629 -0
    outer loop
      vertex -29.1537 -7.10767 -7
      vertex -29.3 -7.1 -15
      vertex -29.1537 -7.10767 -15
    endloop
  endfacet
  facet normal 0.0523546 0.998629 -0
    outer loop
      vertex -29.3 -9.9 -15
      vertex -29.4463 -9.89233 -7
      vertex -29.3 -9.9 -7
    endloop
  endfacet
  facet normal 0.0523546 0.998629 0
    outer loop
      vertex -29.4463 -9.89233 -7
      vertex -29.3 -9.9 -15
      vertex -29.4463 -9.89233 -15
    endloop
  endfacet
  facet normal 0.629261 -0.777194 0
    outer loop
      vertex -30.2368 -7.4596 -15
      vertex -30.1229 -7.36738 -7
      vertex -30.2368 -7.4596 -7
    endloop
  endfacet
  facet normal 0.629261 -0.777194 0
    outer loop
      vertex -30.1229 -7.36738 -7
      vertex -30.2368 -7.4596 -15
      vertex -30.1229 -7.36738 -15
    endloop
  endfacet
  facet normal -0.156341 -0.987703 0
    outer loop
      vertex -29.1537 -7.10767 -15
      vertex -29.0089 -7.13059 -7
      vertex -29.1537 -7.10767 -7
    endloop
  endfacet
  facet normal -0.156341 -0.987703 -0
    outer loop
      vertex -29.0089 -7.13059 -7
      vertex -29.1537 -7.10767 -15
      vertex -29.0089 -7.13059 -15
    endloop
  endfacet
  facet normal -0.998382 -0.0568555 1.66871e-05
    outer loop
      vertex -27.9 -8.5 -15
      vertex -27.9017 -8.4678 -7
      vertex -27.9005 -8.49122 -15
    endloop
  endfacet
  facet normal -0.998609 -0.0527216 0
    outer loop
      vertex -27.9017 -8.4678 -7
      vertex -27.9 -8.5 -15
      vertex -27.9 -8.5 -7
    endloop
  endfacet
  facet normal 0.777207 0.629245 0
    outer loop
      vertex -30.3404 -9.43678 -7
      vertex -30.4326 -9.3229 -15
      vertex -30.4326 -9.3229 -7
    endloop
  endfacet
  facet normal 0.777207 0.629245 0
    outer loop
      vertex -30.4326 -9.3229 -15
      vertex -30.3404 -9.43678 -7
      vertex -30.3404 -9.43678 -15
    endloop
  endfacet
  facet normal 0.965969 0.258656 0
    outer loop
      vertex -30.6315 -8.93262 -7
      vertex -30.6694 -8.79108 -15
      vertex -30.6694 -8.79108 -7
    endloop
  endfacet
  facet normal 0.965969 0.258656 0
    outer loop
      vertex -30.6694 -8.79108 -15
      vertex -30.6315 -8.93262 -7
      vertex -30.6315 -8.93262 -15
    endloop
  endfacet
  facet normal -0.453915 0.891045 0
    outer loop
      vertex -28.6 -9.71243 -15
      vertex -28.7306 -9.77896 -7
      vertex -28.6 -9.71243 -7
    endloop
  endfacet
  facet normal -0.453915 0.891045 0
    outer loop
      vertex -28.7306 -9.77896 -7
      vertex -28.6 -9.71243 -15
      vertex -28.7306 -9.77896 -15
    endloop
  endfacet
  facet normal -0.707175 0.707039 0
    outer loop
      vertex -28.3632 -9.5404 -15
      vertex -28.2596 -9.43678 -7
      vertex -28.2596 -9.43678 -15
    endloop
  endfacet
  facet normal -0.707175 0.707039 0
    outer loop
      vertex -28.2596 -9.43678 -7
      vertex -28.3632 -9.5404 -15
      vertex -28.3632 -9.5404 -7
    endloop
  endfacet
  facet normal -0.777207 0.629245 0
    outer loop
      vertex -28.2596 -9.43678 -15
      vertex -28.1674 -9.3229 -7
      vertex -28.1674 -9.3229 -15
    endloop
  endfacet
  facet normal -0.777207 0.629245 0
    outer loop
      vertex -28.1674 -9.3229 -7
      vertex -28.2596 -9.43678 -15
      vertex -28.2596 -9.43678 -7
    endloop
  endfacet
  facet normal 0.777207 -0.629245 0
    outer loop
      vertex -30.4326 -7.6771 -7
      vertex -30.3404 -7.56322 -15
      vertex -30.3404 -7.56322 -7
    endloop
  endfacet
  facet normal 0.777207 -0.629245 0
    outer loop
      vertex -30.3404 -7.56322 -15
      vertex -30.4326 -7.6771 -7
      vertex -30.4326 -7.6771 -15
    endloop
  endfacet
  facet normal 0.544677 -0.838646 0
    outer loop
      vertex -30.1229 -7.36738 -15
      vertex -30 -7.28756 -7
      vertex -30.1229 -7.36738 -7
    endloop
  endfacet
  facet normal 0.544677 -0.838646 0
    outer loop
      vertex -30 -7.28756 -7
      vertex -30.1229 -7.36738 -15
      vertex -30 -7.28756 -15
    endloop
  endfacet
  facet normal -0.965969 -0.258656 0
    outer loop
      vertex -27.9306 -8.20892 -15
      vertex -27.9685 -8.06738 -7
      vertex -27.9685 -8.06738 -15
    endloop
  endfacet
  facet normal -0.965969 -0.258656 0
    outer loop
      vertex -27.9685 -8.06738 -7
      vertex -27.9306 -8.20892 -15
      vertex -27.9306 -8.20892 -7
    endloop
  endfacet
  facet normal -0.258916 -0.9659 0
    outer loop
      vertex -29.0089 -7.13059 -15
      vertex -28.8674 -7.16852 -7
      vertex -29.0089 -7.13059 -7
    endloop
  endfacet
  facet normal -0.258916 -0.9659 -0
    outer loop
      vertex -28.8674 -7.16852 -7
      vertex -29.0089 -7.13059 -15
      vertex -28.8674 -7.16852 -15
    endloop
  endfacet
  facet normal 0.987714 0.156271 0
    outer loop
      vertex -30.6694 -8.79108 -7
      vertex -30.6923 -8.64634 -15
      vertex -30.6923 -8.64634 -7
    endloop
  endfacet
  facet normal 0.987714 0.156271 0
    outer loop
      vertex -30.6923 -8.64634 -15
      vertex -30.6694 -8.79108 -7
      vertex -30.6694 -8.79108 -15
    endloop
  endfacet
  facet normal 0.453915 0.891045 -0
    outer loop
      vertex -29.8694 -9.77896 -15
      vertex -30 -9.71243 -7
      vertex -29.8694 -9.77896 -7
    endloop
  endfacet
  facet normal 0.453915 0.891045 0
    outer loop
      vertex -30 -9.71243 -7
      vertex -29.8694 -9.77896 -15
      vertex -30 -9.71243 -15
    endloop
  endfacet
  facet normal -0.258916 0.9659 0
    outer loop
      vertex -28.8674 -9.83148 -15
      vertex -29.0089 -9.86941 -7
      vertex -28.8674 -9.83148 -7
    endloop
  endfacet
  facet normal -0.258916 0.9659 0
    outer loop
      vertex -29.0089 -9.86941 -7
      vertex -28.8674 -9.83148 -15
      vertex -29.0089 -9.86941 -15
    endloop
  endfacet
  facet normal -0.629261 0.777194 0
    outer loop
      vertex -28.3632 -9.5404 -15
      vertex -28.4771 -9.63262 -7
      vertex -28.3632 -9.5404 -7
    endloop
  endfacet
  facet normal -0.629261 0.777194 0
    outer loop
      vertex -28.4771 -9.63262 -7
      vertex -28.3632 -9.5404 -15
      vertex -28.4771 -9.63262 -15
    endloop
  endfacet
  facet normal -0.358412 0.933564 0
    outer loop
      vertex -28.7306 -9.77896 -15
      vertex -28.8674 -9.83148 -7
      vertex -28.7306 -9.77896 -7
    endloop
  endfacet
  facet normal -0.358412 0.933564 0
    outer loop
      vertex -28.8674 -9.83148 -7
      vertex -28.7306 -9.77896 -15
      vertex -28.8674 -9.83148 -15
    endloop
  endfacet
  facet normal -0.89081 0.454376 0
    outer loop
      vertex -28.0876 -9.2 -15
      vertex -28.021 -9.06943 -7
      vertex -28.021 -9.06943 -15
    endloop
  endfacet
  facet normal -0.89081 0.454376 0
    outer loop
      vertex -28.021 -9.06943 -7
      vertex -28.0876 -9.2 -15
      vertex -28.0876 -9.2 -7
    endloop
  endfacet
  facet normal -0.998382 0.0568555 -1.66871e-05
    outer loop
      vertex -27.9077 -8.64634 -15
      vertex -27.906 -8.61414 -7
      vertex -27.9072 -8.63756 -15
    endloop
  endfacet
  facet normal -0.998609 0.0527216 0
    outer loop
      vertex -27.906 -8.61414 -7
      vertex -27.9077 -8.64634 -15
      vertex -27.9077 -8.64634 -7
    endloop
  endfacet
  facet normal 0.965969 -0.258656 0
    outer loop
      vertex -30.6694 -8.20892 -7
      vertex -30.6315 -8.06738 -15
      vertex -30.6315 -8.06738 -7
    endloop
  endfacet
  facet normal 0.965969 -0.258656 0
    outer loop
      vertex -30.6315 -8.06738 -15
      vertex -30.6694 -8.20892 -7
      vertex -30.6694 -8.20892 -15
    endloop
  endfacet
  facet normal 0.933618 -0.35827 0
    outer loop
      vertex -30.6315 -8.06738 -7
      vertex -30.579 -7.93057 -15
      vertex -30.579 -7.93057 -7
    endloop
  endfacet
  facet normal 0.933618 -0.35827 0
    outer loop
      vertex -30.579 -7.93057 -15
      vertex -30.6315 -8.06738 -7
      vertex -30.6315 -8.06738 -15
    endloop
  endfacet
  facet normal 0.89081 -0.454376 0
    outer loop
      vertex -30.579 -7.93057 -7
      vertex -30.5124 -7.8 -15
      vertex -30.5124 -7.8 -7
    endloop
  endfacet
  facet normal 0.89081 -0.454376 0
    outer loop
      vertex -30.5124 -7.8 -15
      vertex -30.579 -7.93057 -7
      vertex -30.579 -7.93057 -15
    endloop
  endfacet
  facet normal 0.707175 -0.707039 0
    outer loop
      vertex -30.3404 -7.56322 -15
      vertex -30.2368 -7.4596 -7
      vertex -30.3404 -7.56322 -7
    endloop
  endfacet
  facet normal 0.707175 -0.707039 0
    outer loop
      vertex -30.2368 -7.4596 -7
      vertex -30.3404 -7.56322 -15
      vertex -30.2368 -7.4596 -15
    endloop
  endfacet
  facet normal 0.838709 -0.544581 0
    outer loop
      vertex -30.5124 -7.8 -7
      vertex -30.4326 -7.6771 -15
      vertex -30.4326 -7.6771 -7
    endloop
  endfacet
  facet normal 0.838709 -0.544581 0
    outer loop
      vertex -30.4326 -7.6771 -15
      vertex -30.5124 -7.8 -7
      vertex -30.5124 -7.8 -15
    endloop
  endfacet
  facet normal 0.0523546 -0.998629 0
    outer loop
      vertex -29.4463 -7.10767 -15
      vertex -29.3 -7.1 -7
      vertex -29.4463 -7.10767 -7
    endloop
  endfacet
  facet normal 0.0523546 -0.998629 0
    outer loop
      vertex -29.3 -7.1 -7
      vertex -29.4463 -7.10767 -15
      vertex -29.3 -7.1 -15
    endloop
  endfacet
  facet normal 0.156341 -0.987703 0
    outer loop
      vertex -29.5911 -7.13059 -15
      vertex -29.4463 -7.10767 -7
      vertex -29.5911 -7.13059 -7
    endloop
  endfacet
  facet normal 0.156341 -0.987703 0
    outer loop
      vertex -29.4463 -7.10767 -7
      vertex -29.5911 -7.13059 -15
      vertex -29.4463 -7.10767 -15
    endloop
  endfacet
  facet normal -0.998621 -0.0524945 0
    outer loop
      vertex -27.9077 -8.35366 -15
      vertex -27.9017 -8.4678 -7
      vertex -27.9077 -8.35366 -7
    endloop
  endfacet
  facet normal -0.998633 -0.0522692 3.22327e-06
    outer loop
      vertex -27.9017 -8.4678 -7
      vertex -27.9077 -8.35366 -15
      vertex -27.9005 -8.49122 -15
    endloop
  endfacet
  facet normal -0.777207 -0.629245 0
    outer loop
      vertex -28.1674 -7.6771 -15
      vertex -28.2596 -7.56322 -7
      vertex -28.2596 -7.56322 -15
    endloop
  endfacet
  facet normal -0.777207 -0.629245 0
    outer loop
      vertex -28.2596 -7.56322 -7
      vertex -28.1674 -7.6771 -15
      vertex -28.1674 -7.6771 -7
    endloop
  endfacet
  facet normal 0.156341 0.987703 -0
    outer loop
      vertex -29.4463 -9.89233 -15
      vertex -29.5911 -9.86941 -7
      vertex -29.4463 -9.89233 -7
    endloop
  endfacet
  facet normal 0.156341 0.987703 0
    outer loop
      vertex -29.5911 -9.86941 -7
      vertex -29.4463 -9.89233 -15
      vertex -29.5911 -9.86941 -15
    endloop
  endfacet
  facet normal 0.258916 0.9659 -0
    outer loop
      vertex -29.5911 -9.86941 -15
      vertex -29.7326 -9.83148 -7
      vertex -29.5911 -9.86941 -7
    endloop
  endfacet
  facet normal 0.258916 0.9659 0
    outer loop
      vertex -29.7326 -9.83148 -7
      vertex -29.5911 -9.86941 -15
      vertex -29.7326 -9.83148 -15
    endloop
  endfacet
  facet normal 0.358412 0.933564 -0
    outer loop
      vertex -29.7326 -9.83148 -15
      vertex -29.8694 -9.77896 -7
      vertex -29.7326 -9.83148 -7
    endloop
  endfacet
  facet normal 0.358412 0.933564 0
    outer loop
      vertex -29.8694 -9.77896 -7
      vertex -29.7326 -9.83148 -15
      vertex -29.8694 -9.77896 -15
    endloop
  endfacet
  facet normal 0.629261 0.777194 -0
    outer loop
      vertex -30.1229 -9.63262 -15
      vertex -30.2368 -9.5404 -7
      vertex -30.1229 -9.63262 -7
    endloop
  endfacet
  facet normal 0.629261 0.777194 0
    outer loop
      vertex -30.2368 -9.5404 -7
      vertex -30.1229 -9.63262 -15
      vertex -30.2368 -9.5404 -15
    endloop
  endfacet
  facet normal 0.707175 0.707039 -0
    outer loop
      vertex -30.2368 -9.5404 -15
      vertex -30.3404 -9.43678 -7
      vertex -30.2368 -9.5404 -7
    endloop
  endfacet
  facet normal 0.707175 0.707039 0
    outer loop
      vertex -30.3404 -9.43678 -7
      vertex -30.2368 -9.5404 -15
      vertex -30.3404 -9.43678 -15
    endloop
  endfacet
  facet normal 0.544629 0.838677 -0
    outer loop
      vertex -30 -9.71243 -15
      vertex -30.1229 -9.63262 -7
      vertex -30 -9.71243 -7
    endloop
  endfacet
  facet normal 0.544629 0.838677 0
    outer loop
      vertex -30.1229 -9.63262 -7
      vertex -30 -9.71243 -15
      vertex -30.1229 -9.63262 -15
    endloop
  endfacet
  facet normal 0.838709 0.544581 0
    outer loop
      vertex -30.4326 -9.3229 -7
      vertex -30.5124 -9.2 -15
      vertex -30.5124 -9.2 -7
    endloop
  endfacet
  facet normal 0.838709 0.544581 0
    outer loop
      vertex -30.5124 -9.2 -15
      vertex -30.4326 -9.3229 -7
      vertex -30.4326 -9.3229 -15
    endloop
  endfacet
  facet normal 0.89081 0.454376 0
    outer loop
      vertex -30.5124 -9.2 -7
      vertex -30.579 -9.06943 -15
      vertex -30.579 -9.06943 -7
    endloop
  endfacet
  facet normal 0.89081 0.454376 0
    outer loop
      vertex -30.579 -9.06943 -15
      vertex -30.5124 -9.2 -7
      vertex -30.5124 -9.2 -15
    endloop
  endfacet
  facet normal 0.933618 0.35827 0
    outer loop
      vertex -30.579 -9.06943 -7
      vertex -30.6315 -8.93262 -15
      vertex -30.6315 -8.93262 -7
    endloop
  endfacet
  facet normal 0.933618 0.35827 0
    outer loop
      vertex -30.6315 -8.93262 -15
      vertex -30.579 -9.06943 -7
      vertex -30.579 -9.06943 -15
    endloop
  endfacet
  facet normal 0.998609 0.0527216 -4.55112e-06
    outer loop
      vertex -30.6923 -8.64634 -7
      vertex -30.6928 -8.63756 -15
      vertex -30.694 -8.61414 -7
    endloop
  endfacet
  facet normal 0.998382 0.0568555 0
    outer loop
      vertex -30.6928 -8.63756 -15
      vertex -30.6923 -8.64634 -7
      vertex -30.6923 -8.64634 -15
    endloop
  endfacet
  facet normal 0.998621 0.0524945 0
    outer loop
      vertex -30.694 -8.61414 -7
      vertex -30.7 -8.5 -15
      vertex -30.7 -8.5 -7
    endloop
  endfacet
  facet normal 0.998633 0.0522692 -3.22327e-06
    outer loop
      vertex -30.7 -8.5 -15
      vertex -30.694 -8.61414 -7
      vertex -30.6928 -8.63756 -15
    endloop
  endfacet
  facet normal -0.544629 0.838677 0
    outer loop
      vertex -28.4771 -9.63262 -15
      vertex -28.6 -9.71243 -7
      vertex -28.4771 -9.63262 -7
    endloop
  endfacet
  facet normal -0.544629 0.838677 0
    outer loop
      vertex -28.6 -9.71243 -7
      vertex -28.4771 -9.63262 -15
      vertex -28.6 -9.71243 -15
    endloop
  endfacet
  facet normal -0.156341 0.987703 0
    outer loop
      vertex -29.0089 -9.86941 -15
      vertex -29.1537 -9.89233 -7
      vertex -29.0089 -9.86941 -7
    endloop
  endfacet
  facet normal -0.156341 0.987703 0
    outer loop
      vertex -29.1537 -9.89233 -7
      vertex -29.0089 -9.86941 -15
      vertex -29.1537 -9.89233 -15
    endloop
  endfacet
  facet normal -0.0523546 0.998629 0
    outer loop
      vertex -29.1537 -9.89233 -15
      vertex -29.3 -9.9 -7
      vertex -29.1537 -9.89233 -7
    endloop
  endfacet
  facet normal -0.0523546 0.998629 0
    outer loop
      vertex -29.3 -9.9 -7
      vertex -29.1537 -9.89233 -15
      vertex -29.3 -9.9 -15
    endloop
  endfacet
  facet normal -0.965969 0.258656 0
    outer loop
      vertex -27.9685 -8.93262 -15
      vertex -27.9306 -8.79108 -7
      vertex -27.9306 -8.79108 -15
    endloop
  endfacet
  facet normal -0.965969 0.258656 0
    outer loop
      vertex -27.9306 -8.79108 -7
      vertex -27.9685 -8.93262 -15
      vertex -27.9685 -8.93262 -7
    endloop
  endfacet
  facet normal -0.933618 0.35827 0
    outer loop
      vertex -28.021 -9.06943 -15
      vertex -27.9685 -8.93262 -7
      vertex -27.9685 -8.93262 -15
    endloop
  endfacet
  facet normal -0.933618 0.35827 0
    outer loop
      vertex -27.9685 -8.93262 -7
      vertex -28.021 -9.06943 -15
      vertex -28.021 -9.06943 -7
    endloop
  endfacet
  facet normal -0.838709 0.544581 0
    outer loop
      vertex -28.1674 -9.3229 -15
      vertex -28.0876 -9.2 -7
      vertex -28.0876 -9.2 -15
    endloop
  endfacet
  facet normal -0.838709 0.544581 0
    outer loop
      vertex -28.0876 -9.2 -7
      vertex -28.1674 -9.3229 -15
      vertex -28.1674 -9.3229 -7
    endloop
  endfacet
  facet normal 0.45386 -0.891073 0
    outer loop
      vertex -30 -7.28756 -15
      vertex -29.8694 -7.22104 -7
      vertex -30 -7.28756 -7
    endloop
  endfacet
  facet normal 0.45386 -0.891073 0
    outer loop
      vertex -29.8694 -7.22104 -7
      vertex -30 -7.28756 -15
      vertex -29.8694 -7.22104 -15
    endloop
  endfacet
  facet normal 0.258916 -0.9659 0
    outer loop
      vertex -29.7326 -7.16852 -15
      vertex -29.5911 -7.13059 -7
      vertex -29.7326 -7.16852 -7
    endloop
  endfacet
  facet normal 0.258916 -0.9659 0
    outer loop
      vertex -29.5911 -7.13059 -7
      vertex -29.7326 -7.16852 -15
      vertex -29.5911 -7.13059 -15
    endloop
  endfacet
  facet normal -0.358412 -0.933564 0
    outer loop
      vertex -28.8674 -7.16852 -15
      vertex -28.7306 -7.22104 -7
      vertex -28.8674 -7.16852 -7
    endloop
  endfacet
  facet normal -0.358412 -0.933564 -0
    outer loop
      vertex -28.7306 -7.22104 -7
      vertex -28.8674 -7.16852 -15
      vertex -28.7306 -7.22104 -15
    endloop
  endfacet
  facet normal -0.629261 -0.777194 0
    outer loop
      vertex -28.4771 -7.36738 -15
      vertex -28.3632 -7.4596 -7
      vertex -28.4771 -7.36738 -7
    endloop
  endfacet
  facet normal -0.629261 -0.777194 -0
    outer loop
      vertex -28.3632 -7.4596 -7
      vertex -28.4771 -7.36738 -15
      vertex -28.3632 -7.4596 -15
    endloop
  endfacet
  facet normal -0.933618 -0.35827 0
    outer loop
      vertex -27.9685 -8.06738 -15
      vertex -28.021 -7.93057 -7
      vertex -28.021 -7.93057 -15
    endloop
  endfacet
  facet normal -0.933618 -0.35827 0
    outer loop
      vertex -28.021 -7.93057 -7
      vertex -27.9685 -8.06738 -15
      vertex -27.9685 -8.06738 -7
    endloop
  endfacet
  facet normal -0.838709 -0.544581 0
    outer loop
      vertex -28.0876 -7.8 -15
      vertex -28.1674 -7.6771 -7
      vertex -28.1674 -7.6771 -15
    endloop
  endfacet
  facet normal -0.838709 -0.544581 0
    outer loop
      vertex -28.1674 -7.6771 -7
      vertex -28.0876 -7.8 -15
      vertex -28.0876 -7.8 -7
    endloop
  endfacet
  facet normal -0.89081 -0.454376 0
    outer loop
      vertex -28.021 -7.93057 -15
      vertex -28.0876 -7.8 -7
      vertex -28.0876 -7.8 -15
    endloop
  endfacet
  facet normal -0.89081 -0.454376 0
    outer loop
      vertex -28.0876 -7.8 -7
      vertex -28.021 -7.93057 -15
      vertex -28.021 -7.93057 -7
    endloop
  endfacet
  facet normal -0.707175 -0.707039 0
    outer loop
      vertex -28.2596 -7.56322 -15
      vertex -28.3632 -7.4596 -7
      vertex -28.3632 -7.4596 -15
    endloop
  endfacet
  facet normal -0.707175 -0.707039 0
    outer loop
      vertex -28.3632 -7.4596 -7
      vertex -28.2596 -7.56322 -15
      vertex -28.2596 -7.56322 -7
    endloop
  endfacet
  facet normal -0.987714 -0.156271 0
    outer loop
      vertex -27.9077 -8.35366 -15
      vertex -27.9306 -8.20892 -7
      vertex -27.9306 -8.20892 -15
    endloop
  endfacet
  facet normal -0.987714 -0.156271 0
    outer loop
      vertex -27.9306 -8.20892 -7
      vertex -27.9077 -8.35366 -15
      vertex -27.9077 -8.35366 -7
    endloop
  endfacet
  facet normal 0.358412 -0.933564 0
    outer loop
      vertex -29.8694 -7.22104 -15
      vertex -29.7326 -7.16852 -7
      vertex -29.8694 -7.22104 -7
    endloop
  endfacet
  facet normal 0.358412 -0.933564 0
    outer loop
      vertex -29.7326 -7.16852 -7
      vertex -29.8694 -7.22104 -15
      vertex -29.7326 -7.16852 -15
    endloop
  endfacet
  facet normal -0.45386 -0.891073 0
    outer loop
      vertex -28.7306 -7.22104 -15
      vertex -28.6 -7.28756 -7
      vertex -28.7306 -7.22104 -7
    endloop
  endfacet
  facet normal -0.45386 -0.891073 -0
    outer loop
      vertex -28.6 -7.28756 -7
      vertex -28.7306 -7.22104 -15
      vertex -28.6 -7.28756 -15
    endloop
  endfacet
  facet normal -0.544677 -0.838646 0
    outer loop
      vertex -28.6 -7.28756 -15
      vertex -28.4771 -7.36738 -7
      vertex -28.6 -7.28756 -7
    endloop
  endfacet
  facet normal -0.544677 -0.838646 -0
    outer loop
      vertex -28.4771 -7.36738 -7
      vertex -28.6 -7.28756 -15
      vertex -28.4771 -7.36738 -15
    endloop
  endfacet
endsolid OpenSCAD_Model
