solid OpenSCAD_Model
  facet normal 0 0.104515 -0.994523
    outer loop
      vertex 9 71 -16.2
      vertex 21 72.2475 -16.0689
      vertex 21 71 -16.2
    endloop
  endfacet
  facet normal 0 0.104515 -0.994523
    outer loop
      vertex 21 72.2475 -16.0689
      vertex 9 71 -16.2
      vertex 9 72.2475 -16.0689
    endloop
  endfacet
  facet normal 0 -0.809015 -0.587788
    outer loop
      vertex 9 66.5411 -14.2148
      vertex 21 65.8038 -13.2
      vertex 9 65.8038 -13.2
    endloop
  endfacet
  facet normal 0 -0.809015 -0.587788
    outer loop
      vertex 21 65.8038 -13.2
      vertex 9 66.5411 -14.2148
      vertex 21 66.5411 -14.2148
    endloop
  endfacet
  facet normal 0 0.978145 -0.207923
    outer loop
      vertex 21 76.7063 -12.0541
      vertex 9 76.9671 -10.8272
      vertex 21 76.9671 -10.8272
    endloop
  endfacet
  facet normal 0 0.978145 -0.207923
    outer loop
      vertex 9 76.9671 -10.8272
      vertex 21 76.7063 -12.0541
      vertex 9 76.7063 -12.0541
    endloop
  endfacet
  facet normal 0 -1 0
    outer loop
      vertex 9 65.0329 -10.8272
      vertex 21 65.0329 -9.57283
      vertex 9 65.0329 -9.57283
    endloop
  endfacet
  facet normal 0 -1 -0
    outer loop
      vertex 21 65.0329 -9.57283
      vertex 9 65.0329 -10.8272
      vertex 21 65.0329 -10.8272
    endloop
  endfacet
  facet normal 0 0.309019 -0.951056
    outer loop
      vertex 9 72.2475 -16.0689
      vertex 21 73.4404 -15.6813
      vertex 21 72.2475 -16.0689
    endloop
  endfacet
  facet normal 0 0.309019 -0.951056
    outer loop
      vertex 21 73.4404 -15.6813
      vertex 9 72.2475 -16.0689
      vertex 9 73.4404 -15.6813
    endloop
  endfacet
  facet normal 0 -0.913571 -0.406678
    outer loop
      vertex 9 65.8038 -13.2
      vertex 21 65.2937 -12.0541
      vertex 9 65.2937 -12.0541
    endloop
  endfacet
  facet normal 0 -0.913571 -0.406678
    outer loop
      vertex 21 65.2937 -12.0541
      vertex 9 65.8038 -13.2
      vertex 21 65.8038 -13.2
    endloop
  endfacet
  facet normal 0 1 -0
    outer loop
      vertex 21 76.9671 -10.8272
      vertex 9 76.9671 -9.57283
      vertex 21 76.9671 -9.57283
    endloop
  endfacet
  facet normal 0 1 0
    outer loop
      vertex 9 76.9671 -9.57283
      vertex 21 76.9671 -10.8272
      vertex 9 76.9671 -10.8272
    endloop
  endfacet
  facet normal 0 -0.500015 -0.866017
    outer loop
      vertex 9 67.4733 -15.0541
      vertex 21 68.5596 -15.6813
      vertex 21 67.4733 -15.0541
    endloop
  endfacet
  facet normal -0 -0.500015 -0.866017
    outer loop
      vertex 21 68.5596 -15.6813
      vertex 9 67.4733 -15.0541
      vertex 9 68.5596 -15.6813
    endloop
  endfacet
  facet normal -0 0.669114 0.743159
    outer loop
      vertex 9 75.4589 -6.18522
      vertex 21 74.5267 -5.3459
      vertex 21 75.4589 -6.18522
    endloop
  endfacet
  facet normal 0 0.669114 0.743159
    outer loop
      vertex 21 74.5267 -5.3459
      vertex 9 75.4589 -6.18522
      vertex 9 74.5267 -5.3459
    endloop
  endfacet
  facet normal 1 0 0
    outer loop
      vertex 21 72.8399 -10.0066
      vertex 21 76.9671 -9.57283
      vertex 21 76.7063 -8.3459
    endloop
  endfacet
  facet normal 1 0 0
    outer loop
      vertex 21 76.9671 -9.57283
      vertex 21 72.8399 -10.0066
      vertex 21 76.9671 -10.8272
    endloop
  endfacet
  facet normal 1 0 0
    outer loop
      vertex 21 72.7595 -9.62832
      vertex 21 76.7063 -8.3459
      vertex 21 76.1962 -7.2
    endloop
  endfacet
  facet normal 1 -0 0
    outer loop
      vertex 21 72.8399 -10.3934
      vertex 21 76.9671 -10.8272
      vertex 21 72.8399 -10.0066
    endloop
  endfacet
  facet normal 1 0 0
    outer loop
      vertex 21 72.6021 -9.275
      vertex 21 76.1962 -7.2
      vertex 21 75.4589 -6.18522
    endloop
  endfacet
  facet normal 1 0 0
    outer loop
      vertex 21 76.9671 -10.8272
      vertex 21 72.8399 -10.3934
      vertex 21 76.7063 -12.0541
    endloop
  endfacet
  facet normal 1 0 0
    outer loop
      vertex 21 72.3748 -8.96211
      vertex 21 75.4589 -6.18522
      vertex 21 74.5267 -5.3459
    endloop
  endfacet
  facet normal 1 -0 0
    outer loop
      vertex 21 72.7595 -10.7717
      vertex 21 76.7063 -12.0541
      vertex 21 72.8399 -10.3934
    endloop
  endfacet
  facet normal 1 0 0
    outer loop
      vertex 21 72.0874 -8.70332
      vertex 21 74.5267 -5.3459
      vertex 21 73.4404 -4.71873
    endloop
  endfacet
  facet normal 1 0 0
    outer loop
      vertex 21 76.7063 -12.0541
      vertex 21 72.7595 -10.7717
      vertex 21 76.1962 -13.2
    endloop
  endfacet
  facet normal 1 -0 0
    outer loop
      vertex 21 72.6021 -11.125
      vertex 21 76.1962 -13.2
      vertex 21 72.7595 -10.7717
    endloop
  endfacet
  facet normal 1 0 0
    outer loop
      vertex 21 76.7063 -8.3459
      vertex 21 72.7595 -9.62832
      vertex 21 72.8399 -10.0066
    endloop
  endfacet
  facet normal 1 0 0
    outer loop
      vertex 21 76.1962 -7.2
      vertex 21 72.6021 -9.275
      vertex 21 72.7595 -9.62832
    endloop
  endfacet
  facet normal 1 0 0
    outer loop
      vertex 21 75.4589 -6.18522
      vertex 21 72.3748 -8.96211
      vertex 21 72.6021 -9.275
    endloop
  endfacet
  facet normal 1 0 0
    outer loop
      vertex 21 71.7525 -8.50994
      vertex 21 73.4404 -4.71873
      vertex 21 72.2475 -4.33111
    endloop
  endfacet
  facet normal 1 0 0
    outer loop
      vertex 21 74.5267 -5.3459
      vertex 21 72.0874 -8.70332
      vertex 21 72.3748 -8.96211
    endloop
  endfacet
  facet normal 1 0 0
    outer loop
      vertex 21 73.4404 -4.71873
      vertex 21 71.7525 -8.50994
      vertex 21 72.0874 -8.70332
    endloop
  endfacet
  facet normal 1 0 0
    outer loop
      vertex 21 72.2475 -4.33111
      vertex 21 71.3846 -8.39043
      vertex 21 71.7525 -8.50994
    endloop
  endfacet
  facet normal 1 0 0
    outer loop
      vertex 21 71 -4.2
      vertex 21 71.3846 -8.39043
      vertex 21 72.2475 -4.33111
    endloop
  endfacet
  facet normal 1 0 0
    outer loop
      vertex 21 71 -4.2
      vertex 21 71 -8.35
      vertex 21 71.3846 -8.39043
    endloop
  endfacet
  facet normal 1 0 0
    outer loop
      vertex 21 71 -4.2
      vertex 21 70.6154 -8.39043
      vertex 21 71 -8.35
    endloop
  endfacet
  facet normal 1 -0 0
    outer loop
      vertex 21 69.7525 -4.33111
      vertex 21 70.6154 -8.39043
      vertex 21 71 -4.2
    endloop
  endfacet
  facet normal 1 0 0
    outer loop
      vertex 21 70.6154 -8.39043
      vertex 21 69.7525 -4.33111
      vertex 21 70.2475 -8.50994
    endloop
  endfacet
  facet normal 1 -0 0
    outer loop
      vertex 21 68.5596 -4.71873
      vertex 21 70.2475 -8.50994
      vertex 21 69.7525 -4.33111
    endloop
  endfacet
  facet normal 1 0 0
    outer loop
      vertex 21 70.2475 -8.50994
      vertex 21 68.5596 -4.71873
      vertex 21 69.9126 -8.70332
    endloop
  endfacet
  facet normal 1 -0 0
    outer loop
      vertex 21 67.4733 -5.3459
      vertex 21 69.9126 -8.70332
      vertex 21 68.5596 -4.71873
    endloop
  endfacet
  facet normal 1 0 0
    outer loop
      vertex 21 69.9126 -8.70332
      vertex 21 67.4733 -5.3459
      vertex 21 69.6252 -8.96211
    endloop
  endfacet
  facet normal 1 -0 0
    outer loop
      vertex 21 66.5411 -6.18522
      vertex 21 69.6252 -8.96211
      vertex 21 67.4733 -5.3459
    endloop
  endfacet
  facet normal 1 -0 0
    outer loop
      vertex 21 65.8038 -7.2
      vertex 21 69.3979 -9.275
      vertex 21 66.5411 -6.18522
    endloop
  endfacet
  facet normal 1 0 0
    outer loop
      vertex 21 69.6252 -8.96211
      vertex 21 66.5411 -6.18522
      vertex 21 69.3979 -9.275
    endloop
  endfacet
  facet normal 1 0 0
    outer loop
      vertex 21 76.1962 -13.2
      vertex 21 72.6021 -11.125
      vertex 21 75.4589 -14.2148
    endloop
  endfacet
  facet normal 1 -0 0
    outer loop
      vertex 21 72.3748 -11.4379
      vertex 21 75.4589 -14.2148
      vertex 21 72.6021 -11.125
    endloop
  endfacet
  facet normal 1 0 0
    outer loop
      vertex 21 75.4589 -14.2148
      vertex 21 72.3748 -11.4379
      vertex 21 74.5267 -15.0541
    endloop
  endfacet
  facet normal 1 -0 0
    outer loop
      vertex 21 72.0874 -11.6967
      vertex 21 74.5267 -15.0541
      vertex 21 72.3748 -11.4379
    endloop
  endfacet
  facet normal 1 0 0
    outer loop
      vertex 21 74.5267 -15.0541
      vertex 21 72.0874 -11.6967
      vertex 21 73.4404 -15.6813
    endloop
  endfacet
  facet normal 1 -0 0
    outer loop
      vertex 21 71.7525 -11.8901
      vertex 21 73.4404 -15.6813
      vertex 21 72.0874 -11.6967
    endloop
  endfacet
  facet normal 1 0 0
    outer loop
      vertex 21 73.4404 -15.6813
      vertex 21 71.7525 -11.8901
      vertex 21 72.2475 -16.0689
    endloop
  endfacet
  facet normal 1 -0 0
    outer loop
      vertex 21 71.3846 -12.0096
      vertex 21 72.2475 -16.0689
      vertex 21 71.7525 -11.8901
    endloop
  endfacet
  facet normal 1 -0 0
    outer loop
      vertex 21 71 -12.05
      vertex 21 72.2475 -16.0689
      vertex 21 71.3846 -12.0096
    endloop
  endfacet
  facet normal 1 0 0
    outer loop
      vertex 21 71 -12.05
      vertex 21 71 -16.2
      vertex 21 72.2475 -16.0689
    endloop
  endfacet
  facet normal 1 0 0
    outer loop
      vertex 21 70.6154 -12.0096
      vertex 21 71 -16.2
      vertex 21 71 -12.05
    endloop
  endfacet
  facet normal 1 0 0
    outer loop
      vertex 21 69.7525 -16.0689
      vertex 21 70.6154 -12.0096
      vertex 21 70.2475 -11.8901
    endloop
  endfacet
  facet normal 1 0 0
    outer loop
      vertex 21 68.5596 -15.6813
      vertex 21 70.2475 -11.8901
      vertex 21 69.9126 -11.6967
    endloop
  endfacet
  facet normal 1 0 0
    outer loop
      vertex 21 70.6154 -12.0096
      vertex 21 69.7525 -16.0689
      vertex 21 71 -16.2
    endloop
  endfacet
  facet normal 1 0 0
    outer loop
      vertex 21 67.4733 -15.0541
      vertex 21 69.9126 -11.6967
      vertex 21 69.6252 -11.4379
    endloop
  endfacet
  facet normal 1 0 0
    outer loop
      vertex 21 66.5411 -14.2148
      vertex 21 69.6252 -11.4379
      vertex 21 69.3979 -11.125
    endloop
  endfacet
  facet normal 1 0 0
    outer loop
      vertex 21 65.8038 -13.2
      vertex 21 69.3979 -11.125
      vertex 21 69.2405 -10.7717
    endloop
  endfacet
  facet normal 1 0 0
    outer loop
      vertex 21 65.2937 -12.0541
      vertex 21 69.2405 -10.7717
      vertex 21 69.1601 -10.3934
    endloop
  endfacet
  facet normal 1 0 0
    outer loop
      vertex 21 69.3979 -9.275
      vertex 21 65.8038 -7.2
      vertex 21 69.2405 -9.62832
    endloop
  endfacet
  facet normal 1 0 0
    outer loop
      vertex 21 70.2475 -11.8901
      vertex 21 68.5596 -15.6813
      vertex 21 69.7525 -16.0689
    endloop
  endfacet
  facet normal 1 -0 0
    outer loop
      vertex 21 65.2937 -8.3459
      vertex 21 69.2405 -9.62832
      vertex 21 65.8038 -7.2
    endloop
  endfacet
  facet normal 1 0 0
    outer loop
      vertex 21 69.9126 -11.6967
      vertex 21 67.4733 -15.0541
      vertex 21 68.5596 -15.6813
    endloop
  endfacet
  facet normal 1 0 0
    outer loop
      vertex 21 69.2405 -9.62832
      vertex 21 65.2937 -8.3459
      vertex 21 69.1601 -10.0066
    endloop
  endfacet
  facet normal 1 0 0
    outer loop
      vertex 21 69.6252 -11.4379
      vertex 21 66.5411 -14.2148
      vertex 21 67.4733 -15.0541
    endloop
  endfacet
  facet normal 1 -0 0
    outer loop
      vertex 21 65.0329 -9.57283
      vertex 21 69.1601 -10.0066
      vertex 21 65.2937 -8.3459
    endloop
  endfacet
  facet normal 1 0 0
    outer loop
      vertex 21 69.3979 -11.125
      vertex 21 65.8038 -13.2
      vertex 21 66.5411 -14.2148
    endloop
  endfacet
  facet normal 1 0 0
    outer loop
      vertex 21 69.1601 -10.0066
      vertex 21 65.0329 -9.57283
      vertex 21 69.1601 -10.3934
    endloop
  endfacet
  facet normal 1 0 0
    outer loop
      vertex 21 69.2405 -10.7717
      vertex 21 65.2937 -12.0541
      vertex 21 65.8038 -13.2
    endloop
  endfacet
  facet normal 1 0 0
    outer loop
      vertex 21 65.0329 -10.8272
      vertex 21 69.1601 -10.3934
      vertex 21 65.0329 -9.57283
    endloop
  endfacet
  facet normal 1 0 0
    outer loop
      vertex 21 69.1601 -10.3934
      vertex 21 65.0329 -10.8272
      vertex 21 65.2937 -12.0541
    endloop
  endfacet
  facet normal -0 0.309034 0.951051
    outer loop
      vertex 9 73.4404 -4.71873
      vertex 21 72.2475 -4.33111
      vertex 21 73.4404 -4.71873
    endloop
  endfacet
  facet normal 0 0.309034 0.951051
    outer loop
      vertex 21 72.2475 -4.33111
      vertex 9 73.4404 -4.71873
      vertex 9 72.2475 -4.33111
    endloop
  endfacet
  facet normal 0 -0.978146 0.207918
    outer loop
      vertex 9 65.0329 -9.57283
      vertex 21 65.2937 -8.3459
      vertex 9 65.2937 -8.3459
    endloop
  endfacet
  facet normal 0 -0.978146 0.207918
    outer loop
      vertex 21 65.2937 -8.3459
      vertex 9 65.0329 -9.57283
      vertex 21 65.0329 -9.57283
    endloop
  endfacet
  facet normal 0 0.669106 -0.743167
    outer loop
      vertex 9 74.5267 -15.0541
      vertex 21 75.4589 -14.2148
      vertex 21 74.5267 -15.0541
    endloop
  endfacet
  facet normal 0 0.669106 -0.743167
    outer loop
      vertex 21 75.4589 -14.2148
      vertex 9 74.5267 -15.0541
      vertex 9 75.4589 -14.2148
    endloop
  endfacet
  facet normal -0 0.104523 0.994523
    outer loop
      vertex 9 72.2475 -4.33111
      vertex 21 71 -4.2
      vertex 21 72.2475 -4.33111
    endloop
  endfacet
  facet normal 0 0.104523 0.994523
    outer loop
      vertex 21 71 -4.2
      vertex 9 72.2475 -4.33111
      vertex 9 71 -4.2
    endloop
  endfacet
  facet normal 0 0.500015 -0.866017
    outer loop
      vertex 9 73.4404 -15.6813
      vertex 21 74.5267 -15.0541
      vertex 21 73.4404 -15.6813
    endloop
  endfacet
  facet normal 0 0.500015 -0.866017
    outer loop
      vertex 21 74.5267 -15.0541
      vertex 9 73.4404 -15.6813
      vertex 9 74.5267 -15.0541
    endloop
  endfacet
  facet normal 0 0.913571 0.406678
    outer loop
      vertex 21 76.7063 -8.3459
      vertex 9 76.1962 -7.2
      vertex 21 76.1962 -7.2
    endloop
  endfacet
  facet normal 0 0.913571 0.406678
    outer loop
      vertex 9 76.1962 -7.2
      vertex 21 76.7063 -8.3459
      vertex 9 76.7063 -8.3459
    endloop
  endfacet
  facet normal 0 -0.309034 0.951051
    outer loop
      vertex 9 69.7525 -4.33111
      vertex 21 68.5596 -4.71873
      vertex 21 69.7525 -4.33111
    endloop
  endfacet
  facet normal 0 -0.309034 0.951051
    outer loop
      vertex 21 68.5596 -4.71873
      vertex 9 69.7525 -4.33111
      vertex 9 68.5596 -4.71873
    endloop
  endfacet
  facet normal 0 0.809015 -0.587788
    outer loop
      vertex 21 75.4589 -14.2148
      vertex 9 76.1962 -13.2
      vertex 21 76.1962 -13.2
    endloop
  endfacet
  facet normal 0 0.809015 -0.587788
    outer loop
      vertex 9 76.1962 -13.2
      vertex 21 75.4589 -14.2148
      vertex 9 75.4589 -14.2148
    endloop
  endfacet
  facet normal 0 0.978146 0.207918
    outer loop
      vertex 21 76.9671 -9.57283
      vertex 9 76.7063 -8.3459
      vertex 21 76.7063 -8.3459
    endloop
  endfacet
  facet normal 0 0.978146 0.207918
    outer loop
      vertex 9 76.7063 -8.3459
      vertex 21 76.9671 -9.57283
      vertex 9 76.9671 -9.57283
    endloop
  endfacet
  facet normal 0 -0.669106 -0.743167
    outer loop
      vertex 9 66.5411 -14.2148
      vertex 21 67.4733 -15.0541
      vertex 21 66.5411 -14.2148
    endloop
  endfacet
  facet normal -0 -0.669106 -0.743167
    outer loop
      vertex 21 67.4733 -15.0541
      vertex 9 66.5411 -14.2148
      vertex 9 67.4733 -15.0541
    endloop
  endfacet
  facet normal 0 0.80901 0.587795
    outer loop
      vertex 21 76.1962 -7.2
      vertex 9 75.4589 -6.18522
      vertex 21 75.4589 -6.18522
    endloop
  endfacet
  facet normal 0 0.80901 0.587795
    outer loop
      vertex 9 75.4589 -6.18522
      vertex 21 76.1962 -7.2
      vertex 9 76.1962 -7.2
    endloop
  endfacet
  facet normal 0 -0.309019 -0.951056
    outer loop
      vertex 9 68.5596 -15.6813
      vertex 21 69.7525 -16.0689
      vertex 21 68.5596 -15.6813
    endloop
  endfacet
  facet normal -0 -0.309019 -0.951056
    outer loop
      vertex 21 69.7525 -16.0689
      vertex 9 68.5596 -15.6813
      vertex 9 69.7525 -16.0689
    endloop
  endfacet
  facet normal 0 -0.913571 0.406678
    outer loop
      vertex 9 65.2937 -8.3459
      vertex 21 65.8038 -7.2
      vertex 9 65.8038 -7.2
    endloop
  endfacet
  facet normal 0 -0.913571 0.406678
    outer loop
      vertex 21 65.8038 -7.2
      vertex 9 65.2937 -8.3459
      vertex 21 65.2937 -8.3459
    endloop
  endfacet
  facet normal 0 0.913571 -0.406678
    outer loop
      vertex 21 76.1962 -13.2
      vertex 9 76.7063 -12.0541
      vertex 21 76.7063 -12.0541
    endloop
  endfacet
  facet normal 0 0.913571 -0.406678
    outer loop
      vertex 9 76.7063 -12.0541
      vertex 21 76.1962 -13.2
      vertex 9 76.1962 -13.2
    endloop
  endfacet
  facet normal -1 0 0
    outer loop
      vertex 9 72.8399 -10.3934
      vertex 9 76.9671 -10.8272
      vertex 9 76.7063 -12.0541
    endloop
  endfacet
  facet normal -1 0 0
    outer loop
      vertex 9 76.9671 -10.8272
      vertex 9 72.8399 -10.3934
      vertex 9 76.9671 -9.57283
    endloop
  endfacet
  facet normal -1 0 0
    outer loop
      vertex 9 72.7595 -10.7717
      vertex 9 76.7063 -12.0541
      vertex 9 76.1962 -13.2
    endloop
  endfacet
  facet normal -1 0 0
    outer loop
      vertex 9 72.8399 -10.0066
      vertex 9 76.9671 -9.57283
      vertex 9 72.8399 -10.3934
    endloop
  endfacet
  facet normal -1 0 0
    outer loop
      vertex 9 72.6021 -11.125
      vertex 9 76.1962 -13.2
      vertex 9 75.4589 -14.2148
    endloop
  endfacet
  facet normal -1 -0 0
    outer loop
      vertex 9 76.9671 -9.57283
      vertex 9 72.8399 -10.0066
      vertex 9 76.7063 -8.3459
    endloop
  endfacet
  facet normal -1 0 0
    outer loop
      vertex 9 72.3748 -11.4379
      vertex 9 75.4589 -14.2148
      vertex 9 74.5267 -15.0541
    endloop
  endfacet
  facet normal -1 0 0
    outer loop
      vertex 9 72.7595 -9.62832
      vertex 9 76.7063 -8.3459
      vertex 9 72.8399 -10.0066
    endloop
  endfacet
  facet normal -1 0 0
    outer loop
      vertex 9 72.0874 -11.6967
      vertex 9 74.5267 -15.0541
      vertex 9 73.4404 -15.6813
    endloop
  endfacet
  facet normal -1 -0 0
    outer loop
      vertex 9 76.7063 -8.3459
      vertex 9 72.7595 -9.62832
      vertex 9 76.1962 -7.2
    endloop
  endfacet
  facet normal -1 0 0
    outer loop
      vertex 9 72.6021 -9.275
      vertex 9 76.1962 -7.2
      vertex 9 72.7595 -9.62832
    endloop
  endfacet
  facet normal -1 0 0
    outer loop
      vertex 9 76.7063 -12.0541
      vertex 9 72.7595 -10.7717
      vertex 9 72.8399 -10.3934
    endloop
  endfacet
  facet normal -1 0 0
    outer loop
      vertex 9 76.1962 -13.2
      vertex 9 72.6021 -11.125
      vertex 9 72.7595 -10.7717
    endloop
  endfacet
  facet normal -1 0 0
    outer loop
      vertex 9 75.4589 -14.2148
      vertex 9 72.3748 -11.4379
      vertex 9 72.6021 -11.125
    endloop
  endfacet
  facet normal -1 0 0
    outer loop
      vertex 9 71.7525 -11.8901
      vertex 9 73.4404 -15.6813
      vertex 9 72.2475 -16.0689
    endloop
  endfacet
  facet normal -1 0 0
    outer loop
      vertex 9 74.5267 -15.0541
      vertex 9 72.0874 -11.6967
      vertex 9 72.3748 -11.4379
    endloop
  endfacet
  facet normal -1 0 0
    outer loop
      vertex 9 73.4404 -15.6813
      vertex 9 71.7525 -11.8901
      vertex 9 72.0874 -11.6967
    endloop
  endfacet
  facet normal -1 0 0
    outer loop
      vertex 9 72.2475 -16.0689
      vertex 9 71.3846 -12.0096
      vertex 9 71.7525 -11.8901
    endloop
  endfacet
  facet normal -1 0 0
    outer loop
      vertex 9 71 -16.2
      vertex 9 71.3846 -12.0096
      vertex 9 72.2475 -16.0689
    endloop
  endfacet
  facet normal -1 0 0
    outer loop
      vertex 9 71 -16.2
      vertex 9 71 -12.05
      vertex 9 71.3846 -12.0096
    endloop
  endfacet
  facet normal -1 0 0
    outer loop
      vertex 9 71 -16.2
      vertex 9 70.6154 -12.0096
      vertex 9 71 -12.05
    endloop
  endfacet
  facet normal -1 0 0
    outer loop
      vertex 9 69.7525 -16.0689
      vertex 9 70.6154 -12.0096
      vertex 9 71 -16.2
    endloop
  endfacet
  facet normal -1 -0 0
    outer loop
      vertex 9 70.6154 -12.0096
      vertex 9 69.7525 -16.0689
      vertex 9 70.2475 -11.8901
    endloop
  endfacet
  facet normal -1 0 0
    outer loop
      vertex 9 68.5596 -15.6813
      vertex 9 70.2475 -11.8901
      vertex 9 69.7525 -16.0689
    endloop
  endfacet
  facet normal -1 -0 0
    outer loop
      vertex 9 70.2475 -11.8901
      vertex 9 68.5596 -15.6813
      vertex 9 69.9126 -11.6967
    endloop
  endfacet
  facet normal -1 0 0
    outer loop
      vertex 9 67.4733 -15.0541
      vertex 9 69.9126 -11.6967
      vertex 9 68.5596 -15.6813
    endloop
  endfacet
  facet normal -1 -0 0
    outer loop
      vertex 9 69.9126 -11.6967
      vertex 9 67.4733 -15.0541
      vertex 9 69.6252 -11.4379
    endloop
  endfacet
  facet normal -1 0 0
    outer loop
      vertex 9 66.5411 -14.2148
      vertex 9 69.6252 -11.4379
      vertex 9 67.4733 -15.0541
    endloop
  endfacet
  facet normal -1 0 0
    outer loop
      vertex 9 65.8038 -13.2
      vertex 9 69.3979 -11.125
      vertex 9 66.5411 -14.2148
    endloop
  endfacet
  facet normal -1 -0 0
    outer loop
      vertex 9 69.6252 -11.4379
      vertex 9 66.5411 -14.2148
      vertex 9 69.3979 -11.125
    endloop
  endfacet
  facet normal -1 -0 0
    outer loop
      vertex 9 76.1962 -7.2
      vertex 9 72.6021 -9.275
      vertex 9 75.4589 -6.18522
    endloop
  endfacet
  facet normal -1 0 0
    outer loop
      vertex 9 72.3748 -8.96211
      vertex 9 75.4589 -6.18522
      vertex 9 72.6021 -9.275
    endloop
  endfacet
  facet normal -1 -0 0
    outer loop
      vertex 9 75.4589 -6.18522
      vertex 9 72.3748 -8.96211
      vertex 9 74.5267 -5.3459
    endloop
  endfacet
  facet normal -1 0 0
    outer loop
      vertex 9 72.0874 -8.70332
      vertex 9 74.5267 -5.3459
      vertex 9 72.3748 -8.96211
    endloop
  endfacet
  facet normal -1 -0 0
    outer loop
      vertex 9 74.5267 -5.3459
      vertex 9 72.0874 -8.70332
      vertex 9 73.4404 -4.71873
    endloop
  endfacet
  facet normal -1 0 0
    outer loop
      vertex 9 71.7525 -8.50994
      vertex 9 73.4404 -4.71873
      vertex 9 72.0874 -8.70332
    endloop
  endfacet
  facet normal -1 -0 0
    outer loop
      vertex 9 73.4404 -4.71873
      vertex 9 71.7525 -8.50994
      vertex 9 72.2475 -4.33111
    endloop
  endfacet
  facet normal -1 0 0
    outer loop
      vertex 9 71.3846 -8.39043
      vertex 9 72.2475 -4.33111
      vertex 9 71.7525 -8.50994
    endloop
  endfacet
  facet normal -1 0 0
    outer loop
      vertex 9 71 -8.35
      vertex 9 72.2475 -4.33111
      vertex 9 71.3846 -8.39043
    endloop
  endfacet
  facet normal -1 0 0
    outer loop
      vertex 9 71 -8.35
      vertex 9 71 -4.2
      vertex 9 72.2475 -4.33111
    endloop
  endfacet
  facet normal -1 0 0
    outer loop
      vertex 9 70.6154 -8.39043
      vertex 9 71 -4.2
      vertex 9 71 -8.35
    endloop
  endfacet
  facet normal -1 0 0
    outer loop
      vertex 9 69.7525 -4.33111
      vertex 9 70.6154 -8.39043
      vertex 9 70.2475 -8.50994
    endloop
  endfacet
  facet normal -1 0 0
    outer loop
      vertex 9 68.5596 -4.71873
      vertex 9 70.2475 -8.50994
      vertex 9 69.9126 -8.70332
    endloop
  endfacet
  facet normal -1 0 0
    outer loop
      vertex 9 70.6154 -8.39043
      vertex 9 69.7525 -4.33111
      vertex 9 71 -4.2
    endloop
  endfacet
  facet normal -1 0 0
    outer loop
      vertex 9 67.4733 -5.3459
      vertex 9 69.9126 -8.70332
      vertex 9 69.6252 -8.96211
    endloop
  endfacet
  facet normal -1 0 0
    outer loop
      vertex 9 66.5411 -6.18522
      vertex 9 69.6252 -8.96211
      vertex 9 69.3979 -9.275
    endloop
  endfacet
  facet normal -1 0 0
    outer loop
      vertex 9 65.8038 -7.2
      vertex 9 69.3979 -9.275
      vertex 9 69.2405 -9.62832
    endloop
  endfacet
  facet normal -1 0 0
    outer loop
      vertex 9 65.2937 -8.3459
      vertex 9 69.2405 -9.62832
      vertex 9 69.1601 -10.0066
    endloop
  endfacet
  facet normal -1 -0 0
    outer loop
      vertex 9 69.3979 -11.125
      vertex 9 65.8038 -13.2
      vertex 9 69.2405 -10.7717
    endloop
  endfacet
  facet normal -1 0 0
    outer loop
      vertex 9 70.2475 -8.50994
      vertex 9 68.5596 -4.71873
      vertex 9 69.7525 -4.33111
    endloop
  endfacet
  facet normal -1 0 0
    outer loop
      vertex 9 65.2937 -12.0541
      vertex 9 69.2405 -10.7717
      vertex 9 65.8038 -13.2
    endloop
  endfacet
  facet normal -1 0 0
    outer loop
      vertex 9 69.9126 -8.70332
      vertex 9 67.4733 -5.3459
      vertex 9 68.5596 -4.71873
    endloop
  endfacet
  facet normal -1 -0 0
    outer loop
      vertex 9 69.2405 -10.7717
      vertex 9 65.2937 -12.0541
      vertex 9 69.1601 -10.3934
    endloop
  endfacet
  facet normal -1 0 0
    outer loop
      vertex 9 69.6252 -8.96211
      vertex 9 66.5411 -6.18522
      vertex 9 67.4733 -5.3459
    endloop
  endfacet
  facet normal -1 0 0
    outer loop
      vertex 9 65.0329 -10.8272
      vertex 9 69.1601 -10.3934
      vertex 9 65.2937 -12.0541
    endloop
  endfacet
  facet normal -1 0 0
    outer loop
      vertex 9 69.3979 -9.275
      vertex 9 65.8038 -7.2
      vertex 9 66.5411 -6.18522
    endloop
  endfacet
  facet normal -1 -0 0
    outer loop
      vertex 9 69.1601 -10.3934
      vertex 9 65.0329 -10.8272
      vertex 9 69.1601 -10.0066
    endloop
  endfacet
  facet normal -1 0 0
    outer loop
      vertex 9 69.2405 -9.62832
      vertex 9 65.2937 -8.3459
      vertex 9 65.8038 -7.2
    endloop
  endfacet
  facet normal -1 0 0
    outer loop
      vertex 9 65.0329 -9.57283
      vertex 9 69.1601 -10.0066
      vertex 9 65.0329 -10.8272
    endloop
  endfacet
  facet normal -1 0 0
    outer loop
      vertex 9 69.1601 -10.0066
      vertex 9 65.0329 -9.57283
      vertex 9 65.2937 -8.3459
    endloop
  endfacet
  facet normal -0 0.499997 0.866027
    outer loop
      vertex 9 74.5267 -5.3459
      vertex 21 73.4404 -4.71873
      vertex 21 74.5267 -5.3459
    endloop
  endfacet
  facet normal 0 0.499997 0.866027
    outer loop
      vertex 21 73.4404 -4.71873
      vertex 9 74.5267 -5.3459
      vertex 9 73.4404 -4.71873
    endloop
  endfacet
  facet normal 0 -0.104523 0.994523
    outer loop
      vertex 9 71 -4.2
      vertex 21 69.7525 -4.33111
      vertex 21 71 -4.2
    endloop
  endfacet
  facet normal 0 -0.104523 0.994523
    outer loop
      vertex 21 69.7525 -4.33111
      vertex 9 71 -4.2
      vertex 9 69.7525 -4.33111
    endloop
  endfacet
  facet normal 0 -0.104515 -0.994523
    outer loop
      vertex 9 69.7525 -16.0689
      vertex 21 71 -16.2
      vertex 21 69.7525 -16.0689
    endloop
  endfacet
  facet normal -0 -0.104515 -0.994523
    outer loop
      vertex 21 71 -16.2
      vertex 9 69.7525 -16.0689
      vertex 9 71 -16.2
    endloop
  endfacet
  facet normal 0 -0.978145 -0.207923
    outer loop
      vertex 9 65.2937 -12.0541
      vertex 21 65.0329 -10.8272
      vertex 9 65.0329 -10.8272
    endloop
  endfacet
  facet normal 0 -0.978145 -0.207923
    outer loop
      vertex 21 65.0329 -10.8272
      vertex 9 65.2937 -12.0541
      vertex 21 65.2937 -12.0541
    endloop
  endfacet
  facet normal 0 -0.669114 0.743159
    outer loop
      vertex 9 67.4733 -5.3459
      vertex 21 66.5411 -6.18522
      vertex 21 67.4733 -5.3459
    endloop
  endfacet
  facet normal 0 -0.669114 0.743159
    outer loop
      vertex 21 66.5411 -6.18522
      vertex 9 67.4733 -5.3459
      vertex 9 66.5411 -6.18522
    endloop
  endfacet
  facet normal 0 -0.80901 0.587795
    outer loop
      vertex 9 65.8038 -7.2
      vertex 21 66.5411 -6.18522
      vertex 9 66.5411 -6.18522
    endloop
  endfacet
  facet normal 0 -0.80901 0.587795
    outer loop
      vertex 21 66.5411 -6.18522
      vertex 9 65.8038 -7.2
      vertex 21 65.8038 -7.2
    endloop
  endfacet
  facet normal 0 -0.499997 0.866027
    outer loop
      vertex 9 68.5596 -4.71873
      vertex 21 67.4733 -5.3459
      vertex 21 68.5596 -4.71873
    endloop
  endfacet
  facet normal 0 -0.499997 0.866027
    outer loop
      vertex 21 67.4733 -5.3459
      vertex 9 68.5596 -4.71873
      vertex 9 67.4733 -5.3459
    endloop
  endfacet
  facet normal 0 0.104556 -0.994519
    outer loop
      vertex 9 118 -16.2
      vertex 21 119.247 -16.0689
      vertex 21 118 -16.2
    endloop
  endfacet
  facet normal 0 0.104556 -0.994519
    outer loop
      vertex 21 119.247 -16.0689
      vertex 9 118 -16.2
      vertex 9 119.247 -16.0689
    endloop
  endfacet
  facet normal 0 -0.809129 -0.587631
    outer loop
      vertex 9 113.541 -14.2148
      vertex 21 112.804 -13.2
      vertex 9 112.804 -13.2
    endloop
  endfacet
  facet normal 0 -0.809129 -0.587631
    outer loop
      vertex 21 112.804 -13.2
      vertex 9 113.541 -14.2148
      vertex 21 113.541 -14.2148
    endloop
  endfacet
  facet normal 0 0.978113 -0.208075
    outer loop
      vertex 21 123.706 -12.0541
      vertex 9 123.967 -10.8272
      vertex 21 123.967 -10.8272
    endloop
  endfacet
  facet normal 0 0.978113 -0.208075
    outer loop
      vertex 9 123.967 -10.8272
      vertex 21 123.706 -12.0541
      vertex 9 123.706 -12.0541
    endloop
  endfacet
  facet normal 0 -1 0
    outer loop
      vertex 9 112.033 -10.8272
      vertex 21 112.033 -9.57283
      vertex 9 112.033 -9.57283
    endloop
  endfacet
  facet normal 0 -1 -0
    outer loop
      vertex 21 112.033 -9.57283
      vertex 9 112.033 -10.8272
      vertex 21 112.033 -10.8272
    endloop
  endfacet
  facet normal 0 0.308996 -0.951063
    outer loop
      vertex 9 119.247 -16.0689
      vertex 21 120.44 -15.6813
      vertex 21 119.247 -16.0689
    endloop
  endfacet
  facet normal 0 0.308996 -0.951063
    outer loop
      vertex 21 120.44 -15.6813
      vertex 9 119.247 -16.0689
      vertex 9 120.44 -15.6813
    endloop
  endfacet
  facet normal 0 -0.913601 -0.406612
    outer loop
      vertex 9 112.804 -13.2
      vertex 21 112.294 -12.0541
      vertex 9 112.294 -12.0541
    endloop
  endfacet
  facet normal 0 -0.913601 -0.406612
    outer loop
      vertex 21 112.294 -12.0541
      vertex 9 112.804 -13.2
      vertex 21 112.804 -13.2
    endloop
  endfacet
  facet normal 0 1 -0
    outer loop
      vertex 21 123.967 -10.8272
      vertex 9 123.967 -9.57283
      vertex 21 123.967 -9.57283
    endloop
  endfacet
  facet normal 0 1 0
    outer loop
      vertex 9 123.967 -9.57283
      vertex 21 123.967 -10.8272
      vertex 9 123.967 -10.8272
    endloop
  endfacet
  facet normal 0 -0.499773 -0.866156
    outer loop
      vertex 9 114.473 -15.0541
      vertex 21 115.56 -15.6813
      vertex 21 114.473 -15.0541
    endloop
  endfacet
  facet normal -0 -0.499773 -0.866156
    outer loop
      vertex 21 115.56 -15.6813
      vertex 9 114.473 -15.0541
      vertex 9 115.56 -15.6813
    endloop
  endfacet
  facet normal -0 0.669194 0.743088
    outer loop
      vertex 9 122.459 -6.18522
      vertex 21 121.527 -5.3459
      vertex 21 122.459 -6.18522
    endloop
  endfacet
  facet normal 0 0.669194 0.743088
    outer loop
      vertex 21 121.527 -5.3459
      vertex 9 122.459 -6.18522
      vertex 9 121.527 -5.3459
    endloop
  endfacet
  facet normal 1 0 0
    outer loop
      vertex 21 119.84 -10.0066
      vertex 21 123.967 -9.57283
      vertex 21 123.706 -8.3459
    endloop
  endfacet
  facet normal 1 0 0
    outer loop
      vertex 21 123.967 -9.57283
      vertex 21 119.84 -10.0066
      vertex 21 123.967 -10.8272
    endloop
  endfacet
  facet normal 1 0 0
    outer loop
      vertex 21 119.759 -9.62832
      vertex 21 123.706 -8.3459
      vertex 21 123.196 -7.2
    endloop
  endfacet
  facet normal 1 -0 0
    outer loop
      vertex 21 119.84 -10.3934
      vertex 21 123.967 -10.8272
      vertex 21 119.84 -10.0066
    endloop
  endfacet
  facet normal 1 0 0
    outer loop
      vertex 21 119.602 -9.275
      vertex 21 123.196 -7.2
      vertex 21 122.459 -6.18522
    endloop
  endfacet
  facet normal 1 0 0
    outer loop
      vertex 21 123.967 -10.8272
      vertex 21 119.84 -10.3934
      vertex 21 123.706 -12.0541
    endloop
  endfacet
  facet normal 1 0 0
    outer loop
      vertex 21 119.375 -8.96211
      vertex 21 122.459 -6.18522
      vertex 21 121.527 -5.3459
    endloop
  endfacet
  facet normal 1 -0 0
    outer loop
      vertex 21 119.759 -10.7717
      vertex 21 123.706 -12.0541
      vertex 21 119.84 -10.3934
    endloop
  endfacet
  facet normal 1 0 0
    outer loop
      vertex 21 119.087 -8.70332
      vertex 21 121.527 -5.3459
      vertex 21 120.44 -4.71873
    endloop
  endfacet
  facet normal 1 0 0
    outer loop
      vertex 21 123.706 -12.0541
      vertex 21 119.759 -10.7717
      vertex 21 123.196 -13.2
    endloop
  endfacet
  facet normal 1 -0 0
    outer loop
      vertex 21 119.602 -11.125
      vertex 21 123.196 -13.2
      vertex 21 119.759 -10.7717
    endloop
  endfacet
  facet normal 1 0 0
    outer loop
      vertex 21 123.706 -8.3459
      vertex 21 119.759 -9.62832
      vertex 21 119.84 -10.0066
    endloop
  endfacet
  facet normal 1 0 0
    outer loop
      vertex 21 123.196 -7.2
      vertex 21 119.602 -9.275
      vertex 21 119.759 -9.62832
    endloop
  endfacet
  facet normal 1 0 0
    outer loop
      vertex 21 122.459 -6.18522
      vertex 21 119.375 -8.96211
      vertex 21 119.602 -9.275
    endloop
  endfacet
  facet normal 1 0 0
    outer loop
      vertex 21 118.752 -8.50994
      vertex 21 120.44 -4.71873
      vertex 21 119.247 -4.33111
    endloop
  endfacet
  facet normal 1 0 0
    outer loop
      vertex 21 121.527 -5.3459
      vertex 21 119.087 -8.70332
      vertex 21 119.375 -8.96211
    endloop
  endfacet
  facet normal 1 0 0
    outer loop
      vertex 21 120.44 -4.71873
      vertex 21 118.752 -8.50994
      vertex 21 119.087 -8.70332
    endloop
  endfacet
  facet normal 1 0 0
    outer loop
      vertex 21 119.247 -4.33111
      vertex 21 118.385 -8.39043
      vertex 21 118.752 -8.50994
    endloop
  endfacet
  facet normal 1 0 0
    outer loop
      vertex 21 118 -4.2
      vertex 21 118.385 -8.39043
      vertex 21 119.247 -4.33111
    endloop
  endfacet
  facet normal 1 0 0
    outer loop
      vertex 21 118 -4.2
      vertex 21 118 -8.35
      vertex 21 118.385 -8.39043
    endloop
  endfacet
  facet normal 1 0 0
    outer loop
      vertex 21 118 -4.2
      vertex 21 117.615 -8.39043
      vertex 21 118 -8.35
    endloop
  endfacet
  facet normal 1 -0 0
    outer loop
      vertex 21 116.753 -4.33111
      vertex 21 117.615 -8.39043
      vertex 21 118 -4.2
    endloop
  endfacet
  facet normal 1 0 0
    outer loop
      vertex 21 117.615 -8.39043
      vertex 21 116.753 -4.33111
      vertex 21 117.248 -8.50994
    endloop
  endfacet
  facet normal 1 -0 0
    outer loop
      vertex 21 115.56 -4.71873
      vertex 21 117.248 -8.50994
      vertex 21 116.753 -4.33111
    endloop
  endfacet
  facet normal 1 0 0
    outer loop
      vertex 21 117.248 -8.50994
      vertex 21 115.56 -4.71873
      vertex 21 116.913 -8.70332
    endloop
  endfacet
  facet normal 1 -0 0
    outer loop
      vertex 21 114.473 -5.3459
      vertex 21 116.913 -8.70332
      vertex 21 115.56 -4.71873
    endloop
  endfacet
  facet normal 1 0 0
    outer loop
      vertex 21 116.913 -8.70332
      vertex 21 114.473 -5.3459
      vertex 21 116.625 -8.96211
    endloop
  endfacet
  facet normal 1 -0 0
    outer loop
      vertex 21 113.541 -6.18522
      vertex 21 116.625 -8.96211
      vertex 21 114.473 -5.3459
    endloop
  endfacet
  facet normal 1 -0 0
    outer loop
      vertex 21 112.804 -7.2
      vertex 21 116.398 -9.275
      vertex 21 113.541 -6.18522
    endloop
  endfacet
  facet normal 1 0 0
    outer loop
      vertex 21 116.625 -8.96211
      vertex 21 113.541 -6.18522
      vertex 21 116.398 -9.275
    endloop
  endfacet
  facet normal 1 0 0
    outer loop
      vertex 21 123.196 -13.2
      vertex 21 119.602 -11.125
      vertex 21 122.459 -14.2148
    endloop
  endfacet
  facet normal 1 -0 0
    outer loop
      vertex 21 119.375 -11.4379
      vertex 21 122.459 -14.2148
      vertex 21 119.602 -11.125
    endloop
  endfacet
  facet normal 1 0 0
    outer loop
      vertex 21 122.459 -14.2148
      vertex 21 119.375 -11.4379
      vertex 21 121.527 -15.0541
    endloop
  endfacet
  facet normal 1 -0 0
    outer loop
      vertex 21 119.087 -11.6967
      vertex 21 121.527 -15.0541
      vertex 21 119.375 -11.4379
    endloop
  endfacet
  facet normal 1 0 0
    outer loop
      vertex 21 121.527 -15.0541
      vertex 21 119.087 -11.6967
      vertex 21 120.44 -15.6813
    endloop
  endfacet
  facet normal 1 -0 0
    outer loop
      vertex 21 118.752 -11.8901
      vertex 21 120.44 -15.6813
      vertex 21 119.087 -11.6967
    endloop
  endfacet
  facet normal 1 0 0
    outer loop
      vertex 21 120.44 -15.6813
      vertex 21 118.752 -11.8901
      vertex 21 119.247 -16.0689
    endloop
  endfacet
  facet normal 1 -0 0
    outer loop
      vertex 21 118.385 -12.0096
      vertex 21 119.247 -16.0689
      vertex 21 118.752 -11.8901
    endloop
  endfacet
  facet normal 1 -0 0
    outer loop
      vertex 21 118 -12.05
      vertex 21 119.247 -16.0689
      vertex 21 118.385 -12.0096
    endloop
  endfacet
  facet normal 1 0 0
    outer loop
      vertex 21 118 -12.05
      vertex 21 118 -16.2
      vertex 21 119.247 -16.0689
    endloop
  endfacet
  facet normal 1 0 0
    outer loop
      vertex 21 117.615 -12.0096
      vertex 21 118 -16.2
      vertex 21 118 -12.05
    endloop
  endfacet
  facet normal 1 0 0
    outer loop
      vertex 21 116.753 -16.0689
      vertex 21 117.615 -12.0096
      vertex 21 117.248 -11.8901
    endloop
  endfacet
  facet normal 1 0 0
    outer loop
      vertex 21 115.56 -15.6813
      vertex 21 117.248 -11.8901
      vertex 21 116.913 -11.6967
    endloop
  endfacet
  facet normal 1 0 0
    outer loop
      vertex 21 117.615 -12.0096
      vertex 21 116.753 -16.0689
      vertex 21 118 -16.2
    endloop
  endfacet
  facet normal 1 0 0
    outer loop
      vertex 21 114.473 -15.0541
      vertex 21 116.913 -11.6967
      vertex 21 116.625 -11.4379
    endloop
  endfacet
  facet normal 1 0 0
    outer loop
      vertex 21 113.541 -14.2148
      vertex 21 116.625 -11.4379
      vertex 21 116.398 -11.125
    endloop
  endfacet
  facet normal 1 0 0
    outer loop
      vertex 21 112.804 -13.2
      vertex 21 116.398 -11.125
      vertex 21 116.241 -10.7717
    endloop
  endfacet
  facet normal 1 0 0
    outer loop
      vertex 21 112.294 -12.0541
      vertex 21 116.241 -10.7717
      vertex 21 116.16 -10.3934
    endloop
  endfacet
  facet normal 1 0 0
    outer loop
      vertex 21 116.398 -9.275
      vertex 21 112.804 -7.2
      vertex 21 116.241 -9.62832
    endloop
  endfacet
  facet normal 1 0 0
    outer loop
      vertex 21 117.248 -11.8901
      vertex 21 115.56 -15.6813
      vertex 21 116.753 -16.0689
    endloop
  endfacet
  facet normal 1 -0 0
    outer loop
      vertex 21 112.294 -8.3459
      vertex 21 116.241 -9.62832
      vertex 21 112.804 -7.2
    endloop
  endfacet
  facet normal 1 0 0
    outer loop
      vertex 21 116.913 -11.6967
      vertex 21 114.473 -15.0541
      vertex 21 115.56 -15.6813
    endloop
  endfacet
  facet normal 1 0 0
    outer loop
      vertex 21 116.241 -9.62832
      vertex 21 112.294 -8.3459
      vertex 21 116.16 -10.0066
    endloop
  endfacet
  facet normal 1 0 0
    outer loop
      vertex 21 116.625 -11.4379
      vertex 21 113.541 -14.2148
      vertex 21 114.473 -15.0541
    endloop
  endfacet
  facet normal 1 -0 0
    outer loop
      vertex 21 112.033 -9.57283
      vertex 21 116.16 -10.0066
      vertex 21 112.294 -8.3459
    endloop
  endfacet
  facet normal 1 0 0
    outer loop
      vertex 21 116.398 -11.125
      vertex 21 112.804 -13.2
      vertex 21 113.541 -14.2148
    endloop
  endfacet
  facet normal 1 0 0
    outer loop
      vertex 21 116.16 -10.0066
      vertex 21 112.033 -9.57283
      vertex 21 116.16 -10.3934
    endloop
  endfacet
  facet normal 1 0 0
    outer loop
      vertex 21 116.241 -10.7717
      vertex 21 112.294 -12.0541
      vertex 21 112.804 -13.2
    endloop
  endfacet
  facet normal 1 0 0
    outer loop
      vertex 21 112.033 -10.8272
      vertex 21 116.16 -10.3934
      vertex 21 112.033 -9.57283
    endloop
  endfacet
  facet normal 1 0 0
    outer loop
      vertex 21 116.16 -10.3934
      vertex 21 112.033 -10.8272
      vertex 21 112.294 -12.0541
    endloop
  endfacet
  facet normal -0 0.30901 0.951059
    outer loop
      vertex 9 120.44 -4.71873
      vertex 21 119.247 -4.33111
      vertex 21 120.44 -4.71873
    endloop
  endfacet
  facet normal 0 0.30901 0.951059
    outer loop
      vertex 21 119.247 -4.33111
      vertex 9 120.44 -4.71873
      vertex 9 119.247 -4.33111
    endloop
  endfacet
  facet normal 0 -0.978114 0.20807
    outer loop
      vertex 9 112.033 -9.57283
      vertex 21 112.294 -8.3459
      vertex 9 112.294 -8.3459
    endloop
  endfacet
  facet normal 0 -0.978114 0.20807
    outer loop
      vertex 21 112.294 -8.3459
      vertex 9 112.033 -9.57283
      vertex 21 112.033 -9.57283
    endloop
  endfacet
  facet normal 0 0.669185 -0.743096
    outer loop
      vertex 9 121.527 -15.0541
      vertex 21 122.459 -14.2148
      vertex 21 121.527 -15.0541
    endloop
  endfacet
  facet normal 0 0.669185 -0.743096
    outer loop
      vertex 21 122.459 -14.2148
      vertex 9 121.527 -15.0541
      vertex 9 122.459 -14.2148
    endloop
  endfacet
  facet normal -0 0.104564 0.994518
    outer loop
      vertex 9 119.247 -4.33111
      vertex 21 118 -4.2
      vertex 21 119.247 -4.33111
    endloop
  endfacet
  facet normal 0 0.104564 0.994518
    outer loop
      vertex 21 118 -4.2
      vertex 9 119.247 -4.33111
      vertex 9 118 -4.2
    endloop
  endfacet
  facet normal 0 0.499773 -0.866156
    outer loop
      vertex 9 120.44 -15.6813
      vertex 21 121.527 -15.0541
      vertex 21 120.44 -15.6813
    endloop
  endfacet
  facet normal 0 0.499773 -0.866156
    outer loop
      vertex 21 121.527 -15.0541
      vertex 9 120.44 -15.6813
      vertex 9 121.527 -15.0541
    endloop
  endfacet
  facet normal 0 0.913601 0.406612
    outer loop
      vertex 21 123.706 -8.3459
      vertex 9 123.196 -7.2
      vertex 21 123.196 -7.2
    endloop
  endfacet
  facet normal 0 0.913601 0.406612
    outer loop
      vertex 9 123.196 -7.2
      vertex 21 123.706 -8.3459
      vertex 9 123.706 -8.3459
    endloop
  endfacet
  facet normal 0 -0.30901 0.951059
    outer loop
      vertex 9 116.753 -4.33111
      vertex 21 115.56 -4.71873
      vertex 21 116.753 -4.33111
    endloop
  endfacet
  facet normal 0 -0.30901 0.951059
    outer loop
      vertex 21 115.56 -4.71873
      vertex 9 116.753 -4.33111
      vertex 9 115.56 -4.71873
    endloop
  endfacet
  facet normal 0 0.809129 -0.587631
    outer loop
      vertex 21 122.459 -14.2148
      vertex 9 123.196 -13.2
      vertex 21 123.196 -13.2
    endloop
  endfacet
  facet normal 0 0.809129 -0.587631
    outer loop
      vertex 9 123.196 -13.2
      vertex 21 122.459 -14.2148
      vertex 9 122.459 -14.2148
    endloop
  endfacet
  facet normal 0 0.978114 0.20807
    outer loop
      vertex 21 123.967 -9.57283
      vertex 9 123.706 -8.3459
      vertex 21 123.706 -8.3459
    endloop
  endfacet
  facet normal 0 0.978114 0.20807
    outer loop
      vertex 9 123.706 -8.3459
      vertex 21 123.967 -9.57283
      vertex 9 123.967 -9.57283
    endloop
  endfacet
  facet normal 0 -0.669185 -0.743096
    outer loop
      vertex 9 113.541 -14.2148
      vertex 21 114.473 -15.0541
      vertex 21 113.541 -14.2148
    endloop
  endfacet
  facet normal -0 -0.669185 -0.743096
    outer loop
      vertex 21 114.473 -15.0541
      vertex 9 113.541 -14.2148
      vertex 9 114.473 -15.0541
    endloop
  endfacet
  facet normal 0 0.809123 0.587639
    outer loop
      vertex 21 123.196 -7.2
      vertex 9 122.459 -6.18522
      vertex 21 122.459 -6.18522
    endloop
  endfacet
  facet normal 0 0.809123 0.587639
    outer loop
      vertex 9 122.459 -6.18522
      vertex 21 123.196 -7.2
      vertex 9 123.196 -7.2
    endloop
  endfacet
  facet normal 0 -0.308996 -0.951063
    outer loop
      vertex 9 115.56 -15.6813
      vertex 21 116.753 -16.0689
      vertex 21 115.56 -15.6813
    endloop
  endfacet
  facet normal -0 -0.308996 -0.951063
    outer loop
      vertex 21 116.753 -16.0689
      vertex 9 115.56 -15.6813
      vertex 9 116.753 -16.0689
    endloop
  endfacet
  facet normal 0 -0.913601 0.406612
    outer loop
      vertex 9 112.294 -8.3459
      vertex 21 112.804 -7.2
      vertex 9 112.804 -7.2
    endloop
  endfacet
  facet normal 0 -0.913601 0.406612
    outer loop
      vertex 21 112.804 -7.2
      vertex 9 112.294 -8.3459
      vertex 21 112.294 -8.3459
    endloop
  endfacet
  facet normal 0 0.913601 -0.406612
    outer loop
      vertex 21 123.196 -13.2
      vertex 9 123.706 -12.0541
      vertex 21 123.706 -12.0541
    endloop
  endfacet
  facet normal 0 0.913601 -0.406612
    outer loop
      vertex 9 123.706 -12.0541
      vertex 21 123.196 -13.2
      vertex 9 123.196 -13.2
    endloop
  endfacet
  facet normal -1 0 0
    outer loop
      vertex 9 119.84 -10.3934
      vertex 9 123.967 -10.8272
      vertex 9 123.706 -12.0541
    endloop
  endfacet
  facet normal -1 0 0
    outer loop
      vertex 9 123.967 -10.8272
      vertex 9 119.84 -10.3934
      vertex 9 123.967 -9.57283
    endloop
  endfacet
  facet normal -1 0 0
    outer loop
      vertex 9 119.759 -10.7717
      vertex 9 123.706 -12.0541
      vertex 9 123.196 -13.2
    endloop
  endfacet
  facet normal -1 0 0
    outer loop
      vertex 9 119.84 -10.0066
      vertex 9 123.967 -9.57283
      vertex 9 119.84 -10.3934
    endloop
  endfacet
  facet normal -1 0 0
    outer loop
      vertex 9 119.602 -11.125
      vertex 9 123.196 -13.2
      vertex 9 122.459 -14.2148
    endloop
  endfacet
  facet normal -1 -0 0
    outer loop
      vertex 9 123.967 -9.57283
      vertex 9 119.84 -10.0066
      vertex 9 123.706 -8.3459
    endloop
  endfacet
  facet normal -1 0 0
    outer loop
      vertex 9 119.375 -11.4379
      vertex 9 122.459 -14.2148
      vertex 9 121.527 -15.0541
    endloop
  endfacet
  facet normal -1 0 0
    outer loop
      vertex 9 119.759 -9.62832
      vertex 9 123.706 -8.3459
      vertex 9 119.84 -10.0066
    endloop
  endfacet
  facet normal -1 0 0
    outer loop
      vertex 9 119.087 -11.6967
      vertex 9 121.527 -15.0541
      vertex 9 120.44 -15.6813
    endloop
  endfacet
  facet normal -1 -0 0
    outer loop
      vertex 9 123.706 -8.3459
      vertex 9 119.759 -9.62832
      vertex 9 123.196 -7.2
    endloop
  endfacet
  facet normal -1 0 0
    outer loop
      vertex 9 119.602 -9.275
      vertex 9 123.196 -7.2
      vertex 9 119.759 -9.62832
    endloop
  endfacet
  facet normal -1 0 0
    outer loop
      vertex 9 123.706 -12.0541
      vertex 9 119.759 -10.7717
      vertex 9 119.84 -10.3934
    endloop
  endfacet
  facet normal -1 0 0
    outer loop
      vertex 9 123.196 -13.2
      vertex 9 119.602 -11.125
      vertex 9 119.759 -10.7717
    endloop
  endfacet
  facet normal -1 0 0
    outer loop
      vertex 9 122.459 -14.2148
      vertex 9 119.375 -11.4379
      vertex 9 119.602 -11.125
    endloop
  endfacet
  facet normal -1 0 0
    outer loop
      vertex 9 118.752 -11.8901
      vertex 9 120.44 -15.6813
      vertex 9 119.247 -16.0689
    endloop
  endfacet
  facet normal -1 0 0
    outer loop
      vertex 9 121.527 -15.0541
      vertex 9 119.087 -11.6967
      vertex 9 119.375 -11.4379
    endloop
  endfacet
  facet normal -1 0 0
    outer loop
      vertex 9 120.44 -15.6813
      vertex 9 118.752 -11.8901
      vertex 9 119.087 -11.6967
    endloop
  endfacet
  facet normal -1 0 0
    outer loop
      vertex 9 119.247 -16.0689
      vertex 9 118.385 -12.0096
      vertex 9 118.752 -11.8901
    endloop
  endfacet
  facet normal -1 0 0
    outer loop
      vertex 9 118 -16.2
      vertex 9 118.385 -12.0096
      vertex 9 119.247 -16.0689
    endloop
  endfacet
  facet normal -1 0 0
    outer loop
      vertex 9 118 -16.2
      vertex 9 118 -12.05
      vertex 9 118.385 -12.0096
    endloop
  endfacet
  facet normal -1 0 0
    outer loop
      vertex 9 118 -16.2
      vertex 9 117.615 -12.0096
      vertex 9 118 -12.05
    endloop
  endfacet
  facet normal -1 0 0
    outer loop
      vertex 9 116.753 -16.0689
      vertex 9 117.615 -12.0096
      vertex 9 118 -16.2
    endloop
  endfacet
  facet normal -1 -0 0
    outer loop
      vertex 9 117.615 -12.0096
      vertex 9 116.753 -16.0689
      vertex 9 117.248 -11.8901
    endloop
  endfacet
  facet normal -1 0 0
    outer loop
      vertex 9 115.56 -15.6813
      vertex 9 117.248 -11.8901
      vertex 9 116.753 -16.0689
    endloop
  endfacet
  facet normal -1 -0 0
    outer loop
      vertex 9 117.248 -11.8901
      vertex 9 115.56 -15.6813
      vertex 9 116.913 -11.6967
    endloop
  endfacet
  facet normal -1 0 0
    outer loop
      vertex 9 114.473 -15.0541
      vertex 9 116.913 -11.6967
      vertex 9 115.56 -15.6813
    endloop
  endfacet
  facet normal -1 -0 0
    outer loop
      vertex 9 116.913 -11.6967
      vertex 9 114.473 -15.0541
      vertex 9 116.625 -11.4379
    endloop
  endfacet
  facet normal -1 0 0
    outer loop
      vertex 9 113.541 -14.2148
      vertex 9 116.625 -11.4379
      vertex 9 114.473 -15.0541
    endloop
  endfacet
  facet normal -1 0 0
    outer loop
      vertex 9 112.804 -13.2
      vertex 9 116.398 -11.125
      vertex 9 113.541 -14.2148
    endloop
  endfacet
  facet normal -1 -0 0
    outer loop
      vertex 9 116.625 -11.4379
      vertex 9 113.541 -14.2148
      vertex 9 116.398 -11.125
    endloop
  endfacet
  facet normal -1 -0 0
    outer loop
      vertex 9 123.196 -7.2
      vertex 9 119.602 -9.275
      vertex 9 122.459 -6.18522
    endloop
  endfacet
  facet normal -1 0 0
    outer loop
      vertex 9 119.375 -8.96211
      vertex 9 122.459 -6.18522
      vertex 9 119.602 -9.275
    endloop
  endfacet
  facet normal -1 -0 0
    outer loop
      vertex 9 122.459 -6.18522
      vertex 9 119.375 -8.96211
      vertex 9 121.527 -5.3459
    endloop
  endfacet
  facet normal -1 0 0
    outer loop
      vertex 9 119.087 -8.70332
      vertex 9 121.527 -5.3459
      vertex 9 119.375 -8.96211
    endloop
  endfacet
  facet normal -1 -0 0
    outer loop
      vertex 9 121.527 -5.3459
      vertex 9 119.087 -8.70332
      vertex 9 120.44 -4.71873
    endloop
  endfacet
  facet normal -1 0 0
    outer loop
      vertex 9 118.752 -8.50994
      vertex 9 120.44 -4.71873
      vertex 9 119.087 -8.70332
    endloop
  endfacet
  facet normal -1 -0 0
    outer loop
      vertex 9 120.44 -4.71873
      vertex 9 118.752 -8.50994
      vertex 9 119.247 -4.33111
    endloop
  endfacet
  facet normal -1 0 0
    outer loop
      vertex 9 118.385 -8.39043
      vertex 9 119.247 -4.33111
      vertex 9 118.752 -8.50994
    endloop
  endfacet
  facet normal -1 0 0
    outer loop
      vertex 9 118 -8.35
      vertex 9 119.247 -4.33111
      vertex 9 118.385 -8.39043
    endloop
  endfacet
  facet normal -1 0 0
    outer loop
      vertex 9 118 -8.35
      vertex 9 118 -4.2
      vertex 9 119.247 -4.33111
    endloop
  endfacet
  facet normal -1 0 0
    outer loop
      vertex 9 117.615 -8.39043
      vertex 9 118 -4.2
      vertex 9 118 -8.35
    endloop
  endfacet
  facet normal -1 0 0
    outer loop
      vertex 9 116.753 -4.33111
      vertex 9 117.615 -8.39043
      vertex 9 117.248 -8.50994
    endloop
  endfacet
  facet normal -1 0 0
    outer loop
      vertex 9 115.56 -4.71873
      vertex 9 117.248 -8.50994
      vertex 9 116.913 -8.70332
    endloop
  endfacet
  facet normal -1 0 0
    outer loop
      vertex 9 117.615 -8.39043
      vertex 9 116.753 -4.33111
      vertex 9 118 -4.2
    endloop
  endfacet
  facet normal -1 0 0
    outer loop
      vertex 9 114.473 -5.3459
      vertex 9 116.913 -8.70332
      vertex 9 116.625 -8.96211
    endloop
  endfacet
  facet normal -1 0 0
    outer loop
      vertex 9 113.541 -6.18522
      vertex 9 116.625 -8.96211
      vertex 9 116.398 -9.275
    endloop
  endfacet
  facet normal -1 0 0
    outer loop
      vertex 9 112.804 -7.2
      vertex 9 116.398 -9.275
      vertex 9 116.241 -9.62832
    endloop
  endfacet
  facet normal -1 0 0
    outer loop
      vertex 9 112.294 -8.3459
      vertex 9 116.241 -9.62832
      vertex 9 116.16 -10.0066
    endloop
  endfacet
  facet normal -1 -0 0
    outer loop
      vertex 9 116.398 -11.125
      vertex 9 112.804 -13.2
      vertex 9 116.241 -10.7717
    endloop
  endfacet
  facet normal -1 0 0
    outer loop
      vertex 9 117.248 -8.50994
      vertex 9 115.56 -4.71873
      vertex 9 116.753 -4.33111
    endloop
  endfacet
  facet normal -1 0 0
    outer loop
      vertex 9 112.294 -12.0541
      vertex 9 116.241 -10.7717
      vertex 9 112.804 -13.2
    endloop
  endfacet
  facet normal -1 0 0
    outer loop
      vertex 9 116.913 -8.70332
      vertex 9 114.473 -5.3459
      vertex 9 115.56 -4.71873
    endloop
  endfacet
  facet normal -1 -0 0
    outer loop
      vertex 9 116.241 -10.7717
      vertex 9 112.294 -12.0541
      vertex 9 116.16 -10.3934
    endloop
  endfacet
  facet normal -1 0 0
    outer loop
      vertex 9 116.625 -8.96211
      vertex 9 113.541 -6.18522
      vertex 9 114.473 -5.3459
    endloop
  endfacet
  facet normal -1 0 0
    outer loop
      vertex 9 112.033 -10.8272
      vertex 9 116.16 -10.3934
      vertex 9 112.294 -12.0541
    endloop
  endfacet
  facet normal -1 0 0
    outer loop
      vertex 9 116.398 -9.275
      vertex 9 112.804 -7.2
      vertex 9 113.541 -6.18522
    endloop
  endfacet
  facet normal -1 -0 0
    outer loop
      vertex 9 116.16 -10.3934
      vertex 9 112.033 -10.8272
      vertex 9 116.16 -10.0066
    endloop
  endfacet
  facet normal -1 0 0
    outer loop
      vertex 9 116.241 -9.62832
      vertex 9 112.294 -8.3459
      vertex 9 112.804 -7.2
    endloop
  endfacet
  facet normal -1 0 0
    outer loop
      vertex 9 112.033 -9.57283
      vertex 9 116.16 -10.0066
      vertex 9 112.033 -10.8272
    endloop
  endfacet
  facet normal -1 0 0
    outer loop
      vertex 9 116.16 -10.0066
      vertex 9 112.033 -9.57283
      vertex 9 112.294 -8.3459
    endloop
  endfacet
  facet normal -0 0.499755 0.866167
    outer loop
      vertex 9 121.527 -5.3459
      vertex 21 120.44 -4.71873
      vertex 21 121.527 -5.3459
    endloop
  endfacet
  facet normal 0 0.499755 0.866167
    outer loop
      vertex 21 120.44 -4.71873
      vertex 9 121.527 -5.3459
      vertex 9 120.44 -4.71873
    endloop
  endfacet
  facet normal 0 -0.104564 0.994518
    outer loop
      vertex 9 118 -4.2
      vertex 21 116.753 -4.33111
      vertex 21 118 -4.2
    endloop
  endfacet
  facet normal 0 -0.104564 0.994518
    outer loop
      vertex 21 116.753 -4.33111
      vertex 9 118 -4.2
      vertex 9 116.753 -4.33111
    endloop
  endfacet
  facet normal 0 -0.104556 -0.994519
    outer loop
      vertex 9 116.753 -16.0689
      vertex 21 118 -16.2
      vertex 21 116.753 -16.0689
    endloop
  endfacet
  facet normal -0 -0.104556 -0.994519
    outer loop
      vertex 21 118 -16.2
      vertex 9 116.753 -16.0689
      vertex 9 118 -16.2
    endloop
  endfacet
  facet normal 0 -0.978113 -0.208075
    outer loop
      vertex 9 112.294 -12.0541
      vertex 21 112.033 -10.8272
      vertex 9 112.033 -10.8272
    endloop
  endfacet
  facet normal 0 -0.978113 -0.208075
    outer loop
      vertex 21 112.033 -10.8272
      vertex 9 112.294 -12.0541
      vertex 21 112.294 -12.0541
    endloop
  endfacet
  facet normal 0 -0.669194 0.743088
    outer loop
      vertex 9 114.473 -5.3459
      vertex 21 113.541 -6.18522
      vertex 21 114.473 -5.3459
    endloop
  endfacet
  facet normal 0 -0.669194 0.743088
    outer loop
      vertex 21 113.541 -6.18522
      vertex 9 114.473 -5.3459
      vertex 9 113.541 -6.18522
    endloop
  endfacet
  facet normal 0 -0.809123 0.587639
    outer loop
      vertex 9 112.804 -7.2
      vertex 21 113.541 -6.18522
      vertex 9 113.541 -6.18522
    endloop
  endfacet
  facet normal 0 -0.809123 0.587639
    outer loop
      vertex 21 113.541 -6.18522
      vertex 9 112.804 -7.2
      vertex 21 112.804 -7.2
    endloop
  endfacet
  facet normal 0 -0.499755 0.866167
    outer loop
      vertex 9 115.56 -4.71873
      vertex 21 114.473 -5.3459
      vertex 21 115.56 -4.71873
    endloop
  endfacet
  facet normal 0 -0.499755 0.866167
    outer loop
      vertex 21 114.473 -5.3459
      vertex 9 115.56 -4.71873
      vertex 9 114.473 -5.3459
    endloop
  endfacet
  facet normal 0 -1 0
    outer loop
      vertex 9 72.8399 -10.3934
      vertex 21 72.8399 -10.0066
      vertex 9 72.8399 -10.0066
    endloop
  endfacet
  facet normal 0 -1 -0
    outer loop
      vertex 21 72.8399 -10.0066
      vertex 9 72.8399 -10.3934
      vertex 21 72.8399 -10.3934
    endloop
  endfacet
  facet normal 0 -0.308928 0.951085
    outer loop
      vertex 9 71.7525 -11.8901
      vertex 21 71.3846 -12.0096
      vertex 21 71.7525 -11.8901
    endloop
  endfacet
  facet normal 0 -0.308928 0.951085
    outer loop
      vertex 21 71.3846 -12.0096
      vertex 9 71.7525 -11.8901
      vertex 9 71.3846 -12.0096
    endloop
  endfacet
  facet normal 0 -0.104469 0.994528
    outer loop
      vertex 9 71.3846 -12.0096
      vertex 21 71 -12.05
      vertex 21 71.3846 -12.0096
    endloop
  endfacet
  facet normal 0 -0.104469 0.994528
    outer loop
      vertex 21 71 -12.05
      vertex 9 71.3846 -12.0096
      vertex 9 71 -12.05
    endloop
  endfacet
  facet normal -0 0.669165 0.743114
    outer loop
      vertex 9 69.9126 -11.6967
      vertex 21 69.6252 -11.4379
      vertex 21 69.9126 -11.6967
    endloop
  endfacet
  facet normal 0 0.669165 0.743114
    outer loop
      vertex 21 69.6252 -11.4379
      vertex 9 69.9126 -11.6967
      vertex 9 69.6252 -11.4379
    endloop
  endfacet
  facet normal 0 -0.809051 -0.587738
    outer loop
      vertex 9 72.6021 -9.275
      vertex 21 72.3748 -8.96211
      vertex 9 72.3748 -8.96211
    endloop
  endfacet
  facet normal 0 -0.809051 -0.587738
    outer loop
      vertex 21 72.3748 -8.96211
      vertex 9 72.6021 -9.275
      vertex 21 72.6021 -9.275
    endloop
  endfacet
  facet normal 0 -0.669165 0.743114
    outer loop
      vertex 9 72.3748 -11.4379
      vertex 21 72.0874 -11.6967
      vertex 21 72.3748 -11.4379
    endloop
  endfacet
  facet normal 0 -0.669165 0.743114
    outer loop
      vertex 21 72.0874 -11.6967
      vertex 9 72.3748 -11.4379
      vertex 9 72.0874 -11.6967
    endloop
  endfacet
  facet normal 0 1 -0
    outer loop
      vertex 21 69.1601 -10.3934
      vertex 9 69.1601 -10.0066
      vertex 21 69.1601 -10.0066
    endloop
  endfacet
  facet normal 0 1 0
    outer loop
      vertex 9 69.1601 -10.0066
      vertex 21 69.1601 -10.3934
      vertex 9 69.1601 -10.3934
    endloop
  endfacet
  facet normal 0 0.500049 -0.865997
    outer loop
      vertex 9 69.9126 -8.70332
      vertex 21 70.2475 -8.50994
      vertex 21 69.9126 -8.70332
    endloop
  endfacet
  facet normal 0 0.500049 -0.865997
    outer loop
      vertex 21 70.2475 -8.50994
      vertex 9 69.9126 -8.70332
      vertex 9 70.2475 -8.50994
    endloop
  endfacet
  facet normal 0 0.913457 -0.406935
    outer loop
      vertex 21 69.2405 -9.62832
      vertex 9 69.3979 -9.275
      vertex 21 69.3979 -9.275
    endloop
  endfacet
  facet normal 0 0.913457 -0.406935
    outer loop
      vertex 9 69.3979 -9.275
      vertex 21 69.2405 -9.62832
      vertex 9 69.2405 -9.62832
    endloop
  endfacet
  facet normal 0 -0.500088 0.865975
    outer loop
      vertex 9 72.0874 -11.6967
      vertex 21 71.7525 -11.8901
      vertex 21 72.0874 -11.6967
    endloop
  endfacet
  facet normal 0 -0.500088 0.865975
    outer loop
      vertex 21 71.7525 -11.8901
      vertex 9 72.0874 -11.6967
      vertex 9 71.7525 -11.8901
    endloop
  endfacet
  facet normal -0 0.104469 0.994528
    outer loop
      vertex 9 71 -12.05
      vertex 21 70.6154 -12.0096
      vertex 21 71 -12.05
    endloop
  endfacet
  facet normal 0 0.104469 0.994528
    outer loop
      vertex 21 70.6154 -12.0096
      vertex 9 71 -12.05
      vertex 9 70.6154 -12.0096
    endloop
  endfacet
  facet normal 0 -0.80906 0.587726
    outer loop
      vertex 9 72.3748 -11.4379
      vertex 21 72.6021 -11.125
      vertex 9 72.6021 -11.125
    endloop
  endfacet
  facet normal 0 -0.80906 0.587726
    outer loop
      vertex 21 72.6021 -11.125
      vertex 9 72.3748 -11.4379
      vertex 21 72.3748 -11.4379
    endloop
  endfacet
  facet normal 0 -0.913449 0.406954
    outer loop
      vertex 9 72.6021 -11.125
      vertex 21 72.7595 -10.7717
      vertex 9 72.7595 -10.7717
    endloop
  endfacet
  facet normal 0 -0.913449 0.406954
    outer loop
      vertex 21 72.7595 -10.7717
      vertex 9 72.6021 -11.125
      vertex 21 72.6021 -11.125
    endloop
  endfacet
  facet normal 0 0.978153 0.207887
    outer loop
      vertex 21 69.2405 -10.7717
      vertex 9 69.1601 -10.3934
      vertex 21 69.1601 -10.3934
    endloop
  endfacet
  facet normal 0 0.978153 0.207887
    outer loop
      vertex 9 69.1601 -10.3934
      vertex 21 69.2405 -10.7717
      vertex 9 69.2405 -10.7717
    endloop
  endfacet
  facet normal 0 0.80906 0.587726
    outer loop
      vertex 21 69.6252 -11.4379
      vertex 9 69.3979 -11.125
      vertex 21 69.3979 -11.125
    endloop
  endfacet
  facet normal 0 0.80906 0.587726
    outer loop
      vertex 9 69.3979 -11.125
      vertex 21 69.6252 -11.4379
      vertex 9 69.6252 -11.4379
    endloop
  endfacet
  facet normal -0 0.500088 0.865975
    outer loop
      vertex 9 70.2475 -11.8901
      vertex 21 69.9126 -11.6967
      vertex 21 70.2475 -11.8901
    endloop
  endfacet
  facet normal 0 0.500088 0.865975
    outer loop
      vertex 21 69.9126 -11.6967
      vertex 9 70.2475 -11.8901
      vertex 9 69.9126 -11.6967
    endloop
  endfacet
  facet normal 0 -0.104546 -0.99452
    outer loop
      vertex 9 71 -8.35
      vertex 21 71.3846 -8.39043
      vertex 21 71 -8.35
    endloop
  endfacet
  facet normal -0 -0.104546 -0.99452
    outer loop
      vertex 21 71.3846 -8.39043
      vertex 9 71 -8.35
      vertex 9 71.3846 -8.39043
    endloop
  endfacet
  facet normal 0 0.978151 -0.207897
    outer loop
      vertex 21 69.1601 -10.0066
      vertex 9 69.2405 -9.62832
      vertex 21 69.2405 -9.62832
    endloop
  endfacet
  facet normal 0 0.978151 -0.207897
    outer loop
      vertex 9 69.2405 -9.62832
      vertex 21 69.1601 -10.0066
      vertex 9 69.1601 -10.0066
    endloop
  endfacet
  facet normal 0 -0.500049 -0.865997
    outer loop
      vertex 9 71.7525 -8.50994
      vertex 21 72.0874 -8.70332
      vertex 21 71.7525 -8.50994
    endloop
  endfacet
  facet normal -0 -0.500049 -0.865997
    outer loop
      vertex 21 72.0874 -8.70332
      vertex 9 71.7525 -8.50994
      vertex 9 72.0874 -8.70332
    endloop
  endfacet
  facet normal 0 0.913449 0.406954
    outer loop
      vertex 21 69.3979 -11.125
      vertex 9 69.2405 -10.7717
      vertex 21 69.2405 -10.7717
    endloop
  endfacet
  facet normal 0 0.913449 0.406954
    outer loop
      vertex 9 69.2405 -10.7717
      vertex 21 69.3979 -11.125
      vertex 9 69.3979 -11.125
    endloop
  endfacet
  facet normal 0 0.308952 -0.951078
    outer loop
      vertex 9 70.2475 -8.50994
      vertex 21 70.6154 -8.39043
      vertex 21 70.2475 -8.50994
    endloop
  endfacet
  facet normal 0 0.308952 -0.951078
    outer loop
      vertex 21 70.6154 -8.39043
      vertex 9 70.2475 -8.50994
      vertex 9 70.6154 -8.39043
    endloop
  endfacet
  facet normal -0 0.308928 0.951085
    outer loop
      vertex 9 70.6154 -12.0096
      vertex 21 70.2475 -11.8901
      vertex 21 70.6154 -12.0096
    endloop
  endfacet
  facet normal 0 0.308928 0.951085
    outer loop
      vertex 21 70.2475 -11.8901
      vertex 9 70.6154 -12.0096
      vertex 9 70.2475 -11.8901
    endloop
  endfacet
  facet normal 0 -0.66915 -0.743127
    outer loop
      vertex 9 72.0874 -8.70332
      vertex 21 72.3748 -8.96211
      vertex 21 72.0874 -8.70332
    endloop
  endfacet
  facet normal -0 -0.66915 -0.743127
    outer loop
      vertex 21 72.3748 -8.96211
      vertex 9 72.0874 -8.70332
      vertex 9 72.3748 -8.96211
    endloop
  endfacet
  facet normal 0 -0.978153 0.207887
    outer loop
      vertex 9 72.7595 -10.7717
      vertex 21 72.8399 -10.3934
      vertex 9 72.8399 -10.3934
    endloop
  endfacet
  facet normal 0 -0.978153 0.207887
    outer loop
      vertex 21 72.8399 -10.3934
      vertex 9 72.7595 -10.7717
      vertex 21 72.7595 -10.7717
    endloop
  endfacet
  facet normal 0 -0.308952 -0.951078
    outer loop
      vertex 9 71.3846 -8.39043
      vertex 21 71.7525 -8.50994
      vertex 21 71.3846 -8.39043
    endloop
  endfacet
  facet normal -0 -0.308952 -0.951078
    outer loop
      vertex 21 71.7525 -8.50994
      vertex 9 71.3846 -8.39043
      vertex 9 71.7525 -8.50994
    endloop
  endfacet
  facet normal 0 -0.913457 -0.406935
    outer loop
      vertex 9 72.7595 -9.62832
      vertex 21 72.6021 -9.275
      vertex 9 72.6021 -9.275
    endloop
  endfacet
  facet normal 0 -0.913457 -0.406935
    outer loop
      vertex 21 72.6021 -9.275
      vertex 9 72.7595 -9.62832
      vertex 21 72.7595 -9.62832
    endloop
  endfacet
  facet normal 0 -0.978151 -0.207897
    outer loop
      vertex 9 72.8399 -10.0066
      vertex 21 72.7595 -9.62832
      vertex 9 72.7595 -9.62832
    endloop
  endfacet
  facet normal 0 -0.978151 -0.207897
    outer loop
      vertex 21 72.7595 -9.62832
      vertex 9 72.8399 -10.0066
      vertex 21 72.8399 -10.0066
    endloop
  endfacet
  facet normal 0 0.809051 -0.587738
    outer loop
      vertex 21 69.3979 -9.275
      vertex 9 69.6252 -8.96211
      vertex 21 69.6252 -8.96211
    endloop
  endfacet
  facet normal 0 0.809051 -0.587738
    outer loop
      vertex 9 69.6252 -8.96211
      vertex 21 69.3979 -9.275
      vertex 9 69.3979 -9.275
    endloop
  endfacet
  facet normal 0 0.66915 -0.743127
    outer loop
      vertex 9 69.6252 -8.96211
      vertex 21 69.9126 -8.70332
      vertex 21 69.6252 -8.96211
    endloop
  endfacet
  facet normal 0 0.66915 -0.743127
    outer loop
      vertex 21 69.9126 -8.70332
      vertex 9 69.6252 -8.96211
      vertex 9 69.9126 -8.70332
    endloop
  endfacet
  facet normal 0 0.104546 -0.99452
    outer loop
      vertex 9 70.6154 -8.39043
      vertex 21 71 -8.35
      vertex 21 70.6154 -8.39043
    endloop
  endfacet
  facet normal 0 0.104546 -0.99452
    outer loop
      vertex 21 71 -8.35
      vertex 9 70.6154 -8.39043
      vertex 9 71 -8.35
    endloop
  endfacet
  facet normal 0 -0.309613 0.950863
    outer loop
      vertex 9 118.752 -11.8901
      vertex 21 118.385 -12.0096
      vertex 21 118.752 -11.8901
    endloop
  endfacet
  facet normal 0 -0.309613 0.950863
    outer loop
      vertex 21 118.385 -12.0096
      vertex 9 118.752 -11.8901
      vertex 9 118.385 -12.0096
    endloop
  endfacet
  facet normal 0 -0.104362 0.994539
    outer loop
      vertex 9 118.385 -12.0096
      vertex 21 118 -12.05
      vertex 21 118.385 -12.0096
    endloop
  endfacet
  facet normal 0 -0.104362 0.994539
    outer loop
      vertex 21 118 -12.05
      vertex 9 118.385 -12.0096
      vertex 9 118 -12.05
    endloop
  endfacet
  facet normal 0 0.913841 -0.406071
    outer loop
      vertex 21 116.241 -9.62832
      vertex 9 116.398 -9.275
      vertex 21 116.398 -9.275
    endloop
  endfacet
  facet normal 0 0.913841 -0.406071
    outer loop
      vertex 9 116.398 -9.275
      vertex 21 116.241 -9.62832
      vertex 9 116.241 -9.62832
    endloop
  endfacet
  facet normal 0 -0.913841 -0.406071
    outer loop
      vertex 9 119.759 -9.62832
      vertex 21 119.602 -9.275
      vertex 9 119.602 -9.275
    endloop
  endfacet
  facet normal 0 -0.913841 -0.406071
    outer loop
      vertex 21 119.602 -9.275
      vertex 9 119.759 -9.62832
      vertex 21 119.759 -9.62832
    endloop
  endfacet
  facet normal 0 0.104439 -0.994531
    outer loop
      vertex 9 117.615 -8.39043
      vertex 21 118 -8.35
      vertex 21 117.615 -8.39043
    endloop
  endfacet
  facet normal 0 0.104439 -0.994531
    outer loop
      vertex 21 118 -8.35
      vertex 9 117.615 -8.39043
      vertex 9 118 -8.35
    endloop
  endfacet
  facet normal 0 -0.668394 0.743808
    outer loop
      vertex 9 119.375 -11.4379
      vertex 21 119.087 -11.6967
      vertex 21 119.375 -11.4379
    endloop
  endfacet
  facet normal 0 -0.668394 0.743808
    outer loop
      vertex 21 119.087 -11.6967
      vertex 9 119.375 -11.4379
      vertex 9 119.087 -11.6967
    endloop
  endfacet
  facet normal 0 -0.309637 -0.950855
    outer loop
      vertex 9 118.385 -8.39043
      vertex 21 118.752 -8.50994
      vertex 21 118.385 -8.39043
    endloop
  endfacet
  facet normal -0 -0.309637 -0.950855
    outer loop
      vertex 21 118.752 -8.50994
      vertex 9 118.385 -8.39043
      vertex 9 118.752 -8.50994
    endloop
  endfacet
  facet normal 0 -0.668379 -0.74382
    outer loop
      vertex 9 119.087 -8.70332
      vertex 21 119.375 -8.96211
      vertex 21 119.087 -8.70332
    endloop
  endfacet
  facet normal -0 -0.668379 -0.74382
    outer loop
      vertex 21 119.375 -8.96211
      vertex 9 119.087 -8.70332
      vertex 9 119.375 -8.96211
    endloop
  endfacet
  facet normal -0 0.104362 0.994539
    outer loop
      vertex 9 118 -12.05
      vertex 21 117.615 -12.0096
      vertex 21 118 -12.05
    endloop
  endfacet
  facet normal 0 0.104362 0.994539
    outer loop
      vertex 21 117.615 -12.0096
      vertex 9 118 -12.05
      vertex 9 117.615 -12.0096
    endloop
  endfacet
  facet normal 0 -0.809429 0.587218
    outer loop
      vertex 9 119.375 -11.4379
      vertex 21 119.602 -11.125
      vertex 9 119.602 -11.125
    endloop
  endfacet
  facet normal 0 -0.809429 0.587218
    outer loop
      vertex 21 119.602 -11.125
      vertex 9 119.375 -11.4379
      vertex 21 119.375 -11.4379
    endloop
  endfacet
  facet normal 0 -0.913833 0.40609
    outer loop
      vertex 9 119.602 -11.125
      vertex 21 119.759 -10.7717
      vertex 9 119.759 -10.7717
    endloop
  endfacet
  facet normal 0 -0.913833 0.40609
    outer loop
      vertex 21 119.759 -10.7717
      vertex 9 119.602 -11.125
      vertex 21 119.602 -11.125
    endloop
  endfacet
  facet normal 0 0.977836 0.20937
    outer loop
      vertex 21 116.241 -10.7717
      vertex 9 116.16 -10.3934
      vertex 21 116.16 -10.3934
    endloop
  endfacet
  facet normal 0 0.977836 0.20937
    outer loop
      vertex 9 116.16 -10.3934
      vertex 21 116.241 -10.7717
      vertex 9 116.241 -10.7717
    endloop
  endfacet
  facet normal 0 -0.977834 -0.209381
    outer loop
      vertex 9 119.84 -10.0066
      vertex 21 119.759 -9.62832
      vertex 9 119.759 -9.62832
    endloop
  endfacet
  facet normal 0 -0.977834 -0.209381
    outer loop
      vertex 21 119.759 -9.62832
      vertex 9 119.84 -10.0066
      vertex 21 119.84 -10.0066
    endloop
  endfacet
  facet normal -0 0.499976 0.866039
    outer loop
      vertex 9 117.248 -11.8901
      vertex 21 116.913 -11.6967
      vertex 21 117.248 -11.8901
    endloop
  endfacet
  facet normal 0 0.499976 0.866039
    outer loop
      vertex 21 116.913 -11.6967
      vertex 9 117.248 -11.8901
      vertex 9 116.913 -11.6967
    endloop
  endfacet
  facet normal 0 1 -0
    outer loop
      vertex 21 116.16 -10.3934
      vertex 9 116.16 -10.0066
      vertex 21 116.16 -10.0066
    endloop
  endfacet
  facet normal 0 1 0
    outer loop
      vertex 9 116.16 -10.0066
      vertex 21 116.16 -10.3934
      vertex 9 116.16 -10.3934
    endloop
  endfacet
  facet normal 0 0.809429 0.587218
    outer loop
      vertex 21 116.625 -11.4379
      vertex 9 116.398 -11.125
      vertex 21 116.398 -11.125
    endloop
  endfacet
  facet normal 0 0.809429 0.587218
    outer loop
      vertex 9 116.398 -11.125
      vertex 21 116.625 -11.4379
      vertex 9 116.625 -11.4379
    endloop
  endfacet
  facet normal 0 -1 0
    outer loop
      vertex 9 119.84 -10.3934
      vertex 21 119.84 -10.0066
      vertex 9 119.84 -10.0066
    endloop
  endfacet
  facet normal 0 -1 -0
    outer loop
      vertex 21 119.84 -10.0066
      vertex 9 119.84 -10.3934
      vertex 21 119.84 -10.3934
    endloop
  endfacet
  facet normal 0 -0.499937 -0.866062
    outer loop
      vertex 9 118.752 -8.50994
      vertex 21 119.087 -8.70332
      vertex 21 118.752 -8.50994
    endloop
  endfacet
  facet normal -0 -0.499937 -0.866062
    outer loop
      vertex 21 119.087 -8.70332
      vertex 9 118.752 -8.50994
      vertex 9 119.087 -8.70332
    endloop
  endfacet
  facet normal 0 0.913833 0.40609
    outer loop
      vertex 21 116.398 -11.125
      vertex 9 116.241 -10.7717
      vertex 21 116.241 -10.7717
    endloop
  endfacet
  facet normal 0 0.913833 0.40609
    outer loop
      vertex 9 116.241 -10.7717
      vertex 21 116.398 -11.125
      vertex 9 116.398 -11.125
    endloop
  endfacet
  facet normal 0 0.309637 -0.950855
    outer loop
      vertex 9 117.248 -8.50994
      vertex 21 117.615 -8.39043
      vertex 21 117.248 -8.50994
    endloop
  endfacet
  facet normal 0 0.309637 -0.950855
    outer loop
      vertex 21 117.615 -8.39043
      vertex 9 117.248 -8.50994
      vertex 9 117.615 -8.39043
    endloop
  endfacet
  facet normal -0 0.309613 0.950863
    outer loop
      vertex 9 117.615 -12.0096
      vertex 21 117.248 -11.8901
      vertex 21 117.615 -12.0096
    endloop
  endfacet
  facet normal 0 0.309613 0.950863
    outer loop
      vertex 21 117.248 -11.8901
      vertex 9 117.615 -12.0096
      vertex 9 117.248 -11.8901
    endloop
  endfacet
  facet normal 0 -0.977836 0.20937
    outer loop
      vertex 9 119.759 -10.7717
      vertex 21 119.84 -10.3934
      vertex 9 119.84 -10.3934
    endloop
  endfacet
  facet normal 0 -0.977836 0.20937
    outer loop
      vertex 21 119.84 -10.3934
      vertex 9 119.759 -10.7717
      vertex 21 119.759 -10.7717
    endloop
  endfacet
  facet normal 0 0.977834 -0.209381
    outer loop
      vertex 21 116.16 -10.0066
      vertex 9 116.241 -9.62832
      vertex 21 116.241 -9.62832
    endloop
  endfacet
  facet normal 0 0.977834 -0.209381
    outer loop
      vertex 9 116.241 -9.62832
      vertex 21 116.16 -10.0066
      vertex 9 116.16 -10.0066
    endloop
  endfacet
  facet normal 0 -0.499976 0.866039
    outer loop
      vertex 9 119.087 -11.6967
      vertex 21 118.752 -11.8901
      vertex 21 119.087 -11.6967
    endloop
  endfacet
  facet normal 0 -0.499976 0.866039
    outer loop
      vertex 21 118.752 -11.8901
      vertex 9 119.087 -11.6967
      vertex 9 118.752 -11.8901
    endloop
  endfacet
  facet normal 0 -0.80942 -0.58723
    outer loop
      vertex 9 119.602 -9.275
      vertex 21 119.375 -8.96211
      vertex 9 119.375 -8.96211
    endloop
  endfacet
  facet normal 0 -0.80942 -0.58723
    outer loop
      vertex 21 119.375 -8.96211
      vertex 9 119.602 -9.275
      vertex 21 119.602 -9.275
    endloop
  endfacet
  facet normal 0 0.499937 -0.866062
    outer loop
      vertex 9 116.913 -8.70332
      vertex 21 117.248 -8.50994
      vertex 21 116.913 -8.70332
    endloop
  endfacet
  facet normal 0 0.499937 -0.866062
    outer loop
      vertex 21 117.248 -8.50994
      vertex 9 116.913 -8.70332
      vertex 9 117.248 -8.50994
    endloop
  endfacet
  facet normal 0 0.80942 -0.58723
    outer loop
      vertex 21 116.398 -9.275
      vertex 9 116.625 -8.96211
      vertex 21 116.625 -8.96211
    endloop
  endfacet
  facet normal 0 0.80942 -0.58723
    outer loop
      vertex 9 116.625 -8.96211
      vertex 21 116.398 -9.275
      vertex 9 116.398 -9.275
    endloop
  endfacet
  facet normal -0 0.668394 0.743808
    outer loop
      vertex 9 116.913 -11.6967
      vertex 21 116.625 -11.4379
      vertex 21 116.913 -11.6967
    endloop
  endfacet
  facet normal 0 0.668394 0.743808
    outer loop
      vertex 21 116.625 -11.4379
      vertex 9 116.913 -11.6967
      vertex 9 116.625 -11.4379
    endloop
  endfacet
  facet normal 0 0.668379 -0.74382
    outer loop
      vertex 9 116.625 -8.96211
      vertex 21 116.913 -8.70332
      vertex 21 116.625 -8.96211
    endloop
  endfacet
  facet normal 0 0.668379 -0.74382
    outer loop
      vertex 21 116.913 -8.70332
      vertex 9 116.625 -8.96211
      vertex 9 116.913 -8.70332
    endloop
  endfacet
  facet normal 0 -0.104439 -0.994531
    outer loop
      vertex 9 118 -8.35
      vertex 21 118.385 -8.39043
      vertex 21 118 -8.35
    endloop
  endfacet
  facet normal -0 -0.104439 -0.994531
    outer loop
      vertex 21 118.385 -8.39043
      vertex 9 118 -8.35
      vertex 9 118.385 -8.39043
    endloop
  endfacet
endsolid OpenSCAD_Model
