solid OpenSCAD_Model
  facet normal 1 -2.22052e-016 2.22045e-016
    outer loop
      vertex 3.8612e-014 14.4682 -161.425
      vertex 3.9857e-014 14.5 -167
      vertex 3.85831e-014 14.6036 -161.159
    endloop
  endfacet
  facet normal 1 -2.22047e-016 2.22045e-016
    outer loop
      vertex 3.86315e-014 14.3057 -161.675
      vertex 3.9857e-014 14.5 -167
      vertex 3.8612e-014 14.4682 -161.425
    endloop
  endfacet
  facet normal 1 -2.22053e-016 2.22044e-016
    outer loop
      vertex 3.86413e-014 14.118 -161.907
      vertex 3.9857e-014 14.5 -167
      vertex 3.86315e-014 14.3057 -161.675
    endloop
  endfacet
  facet normal 1 -2.22042e-016 2.22045e-016
    outer loop
      vertex 3.86413e-014 13.907 -162.118
      vertex 3.9857e-014 14.5 -167
      vertex 3.86413e-014 14.118 -161.907
    endloop
  endfacet
  facet normal 1 -2.22038e-016 2.22046e-016
    outer loop
      vertex 3.86315e-014 13.6752 -162.306
      vertex 3.9857e-014 14.5 -167
      vertex 3.86413e-014 13.907 -162.118
    endloop
  endfacet
  facet normal 1 -2.22041e-016 2.22045e-016
    outer loop
      vertex 3.8612e-014 13.425 -162.468
      vertex 3.9857e-014 14.5 -167
      vertex 3.86315e-014 13.6752 -162.306
    endloop
  endfacet
  facet normal 1 -2.2205e-016 2.22043e-016
    outer loop
      vertex 3.85831e-014 13.1592 -162.604
      vertex 3.9857e-014 14.5 -167
      vertex 3.8612e-014 13.425 -162.468
    endloop
  endfacet
  facet normal 1 -2.22047e-016 2.22044e-016
    outer loop
      vertex 3.8545e-014 12.8807 -162.711
      vertex 3.9857e-014 14.5 -167
      vertex 3.85831e-014 13.1592 -162.604
    endloop
  endfacet
  facet normal 1 -2.22042e-016 2.22046e-016
    outer loop
      vertex 3.84982e-014 12.5925 -162.788
      vertex 3.9857e-014 14.5 -167
      vertex 3.8545e-014 12.8807 -162.711
    endloop
  endfacet
  facet normal 1 -2.22038e-016 2.22048e-016
    outer loop
      vertex 3.84431e-014 12.2979 -162.834
      vertex 3.9857e-014 14.5 -167
      vertex 3.84982e-014 12.5925 -162.788
    endloop
  endfacet
  facet normal 1 -2.22049e-016 2.22042e-016
    outer loop
      vertex 3.83804e-014 12 -162.85
      vertex 3.9857e-014 14.5 -167
      vertex 3.84431e-014 12.2979 -162.834
    endloop
  endfacet
  facet normal 1 -2.22038e-016 2.2204e-016
    outer loop
      vertex 3.87468e-014 9.5 -167
      vertex 3.83804e-014 12 -162.85
      vertex 3.83108e-014 11.7021 -162.834
    endloop
  endfacet
  facet normal 1 -2.22049e-016 2.22046e-016
    outer loop
      vertex 3.87468e-014 9.5 -167
      vertex 3.83108e-014 11.7021 -162.834
      vertex 3.8235e-014 11.4075 -162.788
    endloop
  endfacet
  facet normal 1 -2.22042e-016 2.22043e-016
    outer loop
      vertex 3.87468e-014 9.5 -167
      vertex 3.8235e-014 11.4075 -162.788
      vertex 3.81539e-014 11.1193 -162.711
    endloop
  endfacet
  facet normal 1 -2.22047e-016 2.22045e-016
    outer loop
      vertex 3.87468e-014 9.5 -167
      vertex 3.81539e-014 11.1193 -162.711
      vertex 3.80683e-014 10.8408 -162.604
    endloop
  endfacet
  facet normal 1 -2.2205e-016 2.22046e-016
    outer loop
      vertex 3.87468e-014 9.5 -167
      vertex 3.80683e-014 10.8408 -162.604
      vertex 3.79792e-014 10.575 -162.468
    endloop
  endfacet
  facet normal 1 -2.22041e-016 2.22044e-016
    outer loop
      vertex 3.87468e-014 9.5 -167
      vertex 3.79792e-014 10.575 -162.468
      vertex 3.78876e-014 10.3248 -162.306
    endloop
  endfacet
  facet normal 1 -2.22051e-016 2.22046e-016
    outer loop
      vertex 3.87468e-014 9.5 -167
      vertex 3.78876e-014 10.3248 -162.306
      vertex 3.77944e-014 10.093 -162.118
    endloop
  endfacet
  facet normal 1 -2.22042e-016 2.22045e-016
    outer loop
      vertex 3.87468e-014 9.5 -167
      vertex 3.77944e-014 10.093 -162.118
      vertex 3.77007e-014 9.88204 -161.907
    endloop
  endfacet
  facet normal 1 -2.22045e-016 2.22045e-016
    outer loop
      vertex 3.83804e-014 12 -162.85
      vertex 3.87468e-014 9.5 -167
      vertex 3.9857e-014 14.5 -167
    endloop
  endfacet
  facet normal 1 -2.22036e-016 2.22044e-016
    outer loop
      vertex 3.76076e-014 9.6943 -161.675
      vertex 3.87468e-014 9.5 -167
      vertex 3.77007e-014 9.88204 -161.907
    endloop
  endfacet
  facet normal 1 -2.22047e-016 2.22045e-016
    outer loop
      vertex 3.7516e-014 9.53183 -161.425
      vertex 3.87468e-014 9.5 -167
      vertex 3.76076e-014 9.6943 -161.675
    endloop
  endfacet
  facet normal 1 -2.22053e-016 2.22045e-016
    outer loop
      vertex 3.74269e-014 9.39639 -161.159
      vertex 3.87468e-014 9.5 -167
      vertex 3.7516e-014 9.53183 -161.425
    endloop
  endfacet
  facet normal 1 -2.22038e-016 2.22045e-016
    outer loop
      vertex 3.73413e-014 9.28949 -160.881
      vertex 3.87468e-014 9.5 -167
      vertex 3.74269e-014 9.39639 -161.159
    endloop
  endfacet
  facet normal 1 -2.22045e-016 2.22045e-016
    outer loop
      vertex 3.39728e-014 2 -153
      vertex 3.87468e-014 9.5 -167
      vertex 3.73413e-014 9.28949 -160.881
    endloop
  endfacet
  facet normal 1 -2.22045e-016 2.22045e-016
    outer loop
      vertex 3.39728e-014 2 -153
      vertex 3.73413e-014 9.28949 -160.881
      vertex 3.72602e-014 9.21228 -160.593
    endloop
  endfacet
  facet normal 1 -2.22036e-016 2.22053e-016
    outer loop
      vertex 3.39728e-014 2 -153
      vertex 3.72602e-014 9.21228 -160.593
      vertex 3.71844e-014 9.16561 -160.298
    endloop
  endfacet
  facet normal 1 -2.22047e-016 2.22042e-016
    outer loop
      vertex 3.39728e-014 2 -153
      vertex 3.71844e-014 9.16561 -160.298
      vertex 3.71148e-014 9.15 -160
    endloop
  endfacet
  facet normal 1 -2.22045e-016 2.22045e-016
    outer loop
      vertex 3.87468e-014 9.5 -167
      vertex 3.39728e-014 2 -153
      vertex 3.9968e-014 2 -180
    endloop
  endfacet
  facet normal 1 -2.22045e-016 2.22045e-016
    outer loop
      vertex 3.87468e-014 9.5 -167
      vertex 3.9968e-014 2 -180
      vertex 4.16334e-014 9.5 -180
    endloop
  endfacet
  facet normal 1 -2.22035e-016 2.22035e-016
    outer loop
      vertex 3.84431e-014 14.8344 -160.298
      vertex 3.84137e-014 22 -153
      vertex 3.83804e-014 14.85 -160
    endloop
  endfacet
  facet normal 1 -2.22042e-016 2.22043e-016
    outer loop
      vertex 3.84137e-014 22 -153
      vertex 3.83108e-014 14.8344 -159.702
      vertex 3.83804e-014 14.85 -160
    endloop
  endfacet
  facet normal 1 -2.2205e-016 2.22051e-016
    outer loop
      vertex 3.84137e-014 22 -153
      vertex 3.8235e-014 14.7877 -159.407
      vertex 3.83108e-014 14.8344 -159.702
    endloop
  endfacet
  facet normal 1 -2.22045e-016 2.22045e-016
    outer loop
      vertex 3.84137e-014 22 -153
      vertex 3.81539e-014 14.7105 -159.119
      vertex 3.8235e-014 14.7877 -159.407
    endloop
  endfacet
  facet normal 1 -2.22043e-016 2.22043e-016
    outer loop
      vertex 3.84137e-014 22 -153
      vertex 3.80683e-014 14.6036 -158.841
      vertex 3.81539e-014 14.7105 -159.119
    endloop
  endfacet
  facet normal 1 -2.22047e-016 2.22047e-016
    outer loop
      vertex 3.84137e-014 22 -153
      vertex 3.79792e-014 14.4682 -158.575
      vertex 3.80683e-014 14.6036 -158.841
    endloop
  endfacet
  facet normal 1 -2.22045e-016 2.22046e-016
    outer loop
      vertex 3.84137e-014 22 -153
      vertex 3.78876e-014 14.3057 -158.325
      vertex 3.79792e-014 14.4682 -158.575
    endloop
  endfacet
  facet normal 1 -2.22041e-016 2.2204e-016
    outer loop
      vertex 3.84137e-014 22 -153
      vertex 3.77944e-014 14.118 -158.093
      vertex 3.78876e-014 14.3057 -158.325
    endloop
  endfacet
  facet normal 1 -2.22043e-016 2.22043e-016
    outer loop
      vertex 3.84137e-014 22 -153
      vertex 3.77007e-014 13.907 -157.882
      vertex 3.77944e-014 14.118 -158.093
    endloop
  endfacet
  facet normal 1 -2.22048e-016 2.2205e-016
    outer loop
      vertex 3.84137e-014 22 -153
      vertex 3.76076e-014 13.6752 -157.694
      vertex 3.77007e-014 13.907 -157.882
    endloop
  endfacet
  facet normal 1 -2.22043e-016 2.22041e-016
    outer loop
      vertex 3.84137e-014 22 -153
      vertex 3.7516e-014 13.425 -157.532
      vertex 3.76076e-014 13.6752 -157.694
    endloop
  endfacet
  facet normal 1 -2.22048e-016 2.22051e-016
    outer loop
      vertex 3.84137e-014 22 -153
      vertex 3.74269e-014 13.1592 -157.396
      vertex 3.7516e-014 13.425 -157.532
    endloop
  endfacet
  facet normal 1 -2.22046e-016 2.22047e-016
    outer loop
      vertex 3.84137e-014 22 -153
      vertex 3.73413e-014 12.8807 -157.289
      vertex 3.74269e-014 13.1592 -157.396
    endloop
  endfacet
  facet normal 1 -2.22043e-016 2.2204e-016
    outer loop
      vertex 3.84137e-014 22 -153
      vertex 3.72602e-014 12.5925 -157.212
      vertex 3.73413e-014 12.8807 -157.289
    endloop
  endfacet
  facet normal 1 -2.22048e-016 2.22052e-016
    outer loop
      vertex 3.84137e-014 22 -153
      vertex 3.71844e-014 12.2979 -157.166
      vertex 3.72602e-014 12.5925 -157.212
    endloop
  endfacet
  facet normal 1 -2.22039e-016 2.22031e-016
    outer loop
      vertex 3.84137e-014 22 -153
      vertex 3.71148e-014 12 -157.15
      vertex 3.71844e-014 12.2979 -157.166
    endloop
  endfacet
  facet normal 1 -2.22045e-016 2.22045e-016
    outer loop
      vertex 3.39728e-014 2 -153
      vertex 3.71148e-014 12 -157.15
      vertex 3.84137e-014 22 -153
    endloop
  endfacet
  facet normal 1 -2.22048e-016 2.22035e-016
    outer loop
      vertex 3.71148e-014 12 -157.15
      vertex 3.39728e-014 2 -153
      vertex 3.70521e-014 11.7021 -157.166
    endloop
  endfacet
  facet normal 1 -2.22039e-016 2.22057e-016
    outer loop
      vertex 3.70521e-014 11.7021 -157.166
      vertex 3.39728e-014 2 -153
      vertex 3.6997e-014 11.4075 -157.212
    endloop
  endfacet
  facet normal 1 -2.2205e-016 2.22032e-016
    outer loop
      vertex 3.6997e-014 11.4075 -157.212
      vertex 3.39728e-014 2 -153
      vertex 3.69502e-014 11.1193 -157.289
    endloop
  endfacet
  facet normal 1 -2.22053e-016 2.22036e-016
    outer loop
      vertex 3.70521e-014 9.16561 -159.702
      vertex 3.39728e-014 2 -153
      vertex 3.71148e-014 9.15 -160
    endloop
  endfacet
  facet normal 1 -2.22041e-016 2.22048e-016
    outer loop
      vertex 3.6997e-014 9.21228 -159.407
      vertex 3.39728e-014 2 -153
      vertex 3.70521e-014 9.16561 -159.702
    endloop
  endfacet
  facet normal 1 -2.22036e-016 2.22054e-016
    outer loop
      vertex 3.69502e-014 9.28949 -159.119
      vertex 3.39728e-014 2 -153
      vertex 3.6997e-014 9.21228 -159.407
    endloop
  endfacet
  facet normal 1 -2.22051e-016 2.22037e-016
    outer loop
      vertex 3.69121e-014 9.39639 -158.841
      vertex 3.39728e-014 2 -153
      vertex 3.69502e-014 9.28949 -159.119
    endloop
  endfacet
  facet normal 1 -2.22047e-016 2.22042e-016
    outer loop
      vertex 3.68831e-014 9.53183 -158.575
      vertex 3.39728e-014 2 -153
      vertex 3.69121e-014 9.39639 -158.841
    endloop
  endfacet
  facet normal 1 -2.22046e-016 2.22043e-016
    outer loop
      vertex 3.68636e-014 9.6943 -158.325
      vertex 3.39728e-014 2 -153
      vertex 3.68831e-014 9.53183 -158.575
    endloop
  endfacet
  facet normal 1 -2.22048e-016 2.2204e-016
    outer loop
      vertex 3.68539e-014 9.88204 -158.093
      vertex 3.39728e-014 2 -153
      vertex 3.68636e-014 9.6943 -158.325
    endloop
  endfacet
  facet normal 1 -2.22044e-016 2.22047e-016
    outer loop
      vertex 3.68539e-014 10.093 -157.882
      vertex 3.39728e-014 2 -153
      vertex 3.68539e-014 9.88204 -158.093
    endloop
  endfacet
  facet normal 1 -2.22042e-016 2.2205e-016
    outer loop
      vertex 3.68636e-014 10.3248 -157.694
      vertex 3.39728e-014 2 -153
      vertex 3.68539e-014 10.093 -157.882
    endloop
  endfacet
  facet normal 1 -2.22043e-016 2.22048e-016
    outer loop
      vertex 3.68831e-014 10.575 -157.532
      vertex 3.39728e-014 2 -153
      vertex 3.68636e-014 10.3248 -157.694
    endloop
  endfacet
  facet normal 1 -2.22048e-016 2.22038e-016
    outer loop
      vertex 3.69121e-014 10.8408 -157.396
      vertex 3.39728e-014 2 -153
      vertex 3.68831e-014 10.575 -157.532
    endloop
  endfacet
  facet normal 1 -2.22039e-016 2.22056e-016
    outer loop
      vertex 3.69502e-014 11.1193 -157.289
      vertex 3.39728e-014 2 -153
      vertex 3.69121e-014 10.8408 -157.396
    endloop
  endfacet
  facet normal 1 -2.2205e-016 2.2205e-016
    outer loop
      vertex 3.84982e-014 14.7877 -160.593
      vertex 3.84137e-014 22 -153
      vertex 3.84431e-014 14.8344 -160.298
    endloop
  endfacet
  facet normal 1 -2.22045e-016 2.22045e-016
    outer loop
      vertex 3.8545e-014 14.7105 -160.881
      vertex 3.84137e-014 22 -153
      vertex 3.84982e-014 14.7877 -160.593
    endloop
  endfacet
  facet normal 1 -2.22045e-016 2.22045e-016
    outer loop
      vertex 3.84137e-014 22 -153
      vertex 3.8545e-014 14.7105 -160.881
      vertex 3.9857e-014 14.5 -167
    endloop
  endfacet
  facet normal 1 -2.22038e-016 2.22044e-016
    outer loop
      vertex 3.9857e-014 14.5 -167
      vertex 3.8545e-014 14.7105 -160.881
      vertex 3.85831e-014 14.6036 -161.159
    endloop
  endfacet
  facet normal 1 -2.22045e-016 2.22045e-016
    outer loop
      vertex 3.84137e-014 22 -153
      vertex 3.9857e-014 14.5 -167
      vertex 4.44089e-014 22 -180
    endloop
  endfacet
  facet normal 1 -2.22045e-016 2.22045e-016
    outer loop
      vertex 4.44089e-014 22 -180
      vertex 3.9857e-014 14.5 -167
      vertex 4.27436e-014 14.5 -180
    endloop
  endfacet
  facet normal 0 1 0
    outer loop
      vertex 4.44089e-014 22 -180
      vertex -3 22 -153
      vertex 3.84137e-014 22 -153
    endloop
  endfacet
  facet normal 0 1 0
    outer loop
      vertex -3 22 -153
      vertex 4.44089e-014 22 -180
      vertex -27 22 -177
    endloop
  endfacet
  facet normal 0 1 0
    outer loop
      vertex -27 22 -177
      vertex 4.44089e-014 22 -180
      vertex -27 22 -180
    endloop
  endfacet
  facet normal 0 -1 0
    outer loop
      vertex -5.89256 2 -155.893
      vertex 3.39728e-014 2 -153
      vertex -3 2 -153
    endloop
  endfacet
  facet normal 0 -1 0
    outer loop
      vertex 3.9968e-014 2 -180
      vertex -5.89256 2 -155.893
      vertex -27 2 -177
    endloop
  endfacet
  facet normal 0 -1 0
    outer loop
      vertex 3.9968e-014 2 -180
      vertex -27 2 -177
      vertex -27 2 -180
    endloop
  endfacet
  facet normal 0 -1 0
    outer loop
      vertex -5.89256 2 -155.893
      vertex 3.9968e-014 2 -180
      vertex 3.39728e-014 2 -153
    endloop
  endfacet
  facet normal 0 0 -1
    outer loop
      vertex 2 9.5 -180
      vertex 4.27436e-014 14.5 -180
      vertex 2 14.5 -180
    endloop
  endfacet
  facet normal 0 -0 -1
    outer loop
      vertex 4.27436e-014 14.5 -180
      vertex 2 9.5 -180
      vertex 4.16334e-014 9.5 -180
    endloop
  endfacet
  facet normal 0 0 -1
    outer loop
      vertex -16.15 12 -180
      vertex 4.27436e-014 14.5 -180
      vertex 4.16334e-014 9.5 -180
    endloop
  endfacet
  facet normal 0 0 -1
    outer loop
      vertex -16.5318 10.575 -180
      vertex 4.16334e-014 9.5 -180
      vertex 3.9968e-014 2 -180
    endloop
  endfacet
  facet normal 0 0 -1
    outer loop
      vertex 4.27436e-014 14.5 -180
      vertex -16.15 12 -180
      vertex -16.1656 12.2979 -180
    endloop
  endfacet
  facet normal 0 0 -1
    outer loop
      vertex 4.27436e-014 14.5 -180
      vertex -16.1656 12.2979 -180
      vertex -16.2123 12.5925 -180
    endloop
  endfacet
  facet normal 0 0 -1
    outer loop
      vertex 4.27436e-014 14.5 -180
      vertex -16.2123 12.5925 -180
      vertex -16.2895 12.8807 -180
    endloop
  endfacet
  facet normal 0 0 -1
    outer loop
      vertex -16.3964 13.1592 -180
      vertex 4.27436e-014 14.5 -180
      vertex -16.2895 12.8807 -180
    endloop
  endfacet
  facet normal 0 0 -1
    outer loop
      vertex -16.5318 13.425 -180
      vertex 4.27436e-014 14.5 -180
      vertex -16.3964 13.1592 -180
    endloop
  endfacet
  facet normal -0 0 -1
    outer loop
      vertex 4.27436e-014 14.5 -180
      vertex -16.5318 13.425 -180
      vertex 4.44089e-014 22 -180
    endloop
  endfacet
  facet normal 0 0 -1
    outer loop
      vertex -16.6943 13.6752 -180
      vertex 4.44089e-014 22 -180
      vertex -16.5318 13.425 -180
    endloop
  endfacet
  facet normal 0 0 -1
    outer loop
      vertex -16.882 13.907 -180
      vertex 4.44089e-014 22 -180
      vertex -16.6943 13.6752 -180
    endloop
  endfacet
  facet normal 0 0 -1
    outer loop
      vertex -17.093 14.118 -180
      vertex 4.44089e-014 22 -180
      vertex -16.882 13.907 -180
    endloop
  endfacet
  facet normal 0 0 -1
    outer loop
      vertex -17.3248 14.3057 -180
      vertex 4.44089e-014 22 -180
      vertex -17.093 14.118 -180
    endloop
  endfacet
  facet normal 0 0 -1
    outer loop
      vertex -17.575 14.4682 -180
      vertex 4.44089e-014 22 -180
      vertex -17.3248 14.3057 -180
    endloop
  endfacet
  facet normal 0 0 -1
    outer loop
      vertex -17.8408 14.6036 -180
      vertex 4.44089e-014 22 -180
      vertex -17.575 14.4682 -180
    endloop
  endfacet
  facet normal 0 0 -1
    outer loop
      vertex -18.1193 14.7105 -180
      vertex 4.44089e-014 22 -180
      vertex -17.8408 14.6036 -180
    endloop
  endfacet
  facet normal 0 0 -1
    outer loop
      vertex -27 22 -180
      vertex -18.1193 14.7105 -180
      vertex -18.4075 14.7877 -180
    endloop
  endfacet
  facet normal 0 0 -1
    outer loop
      vertex -27 22 -180
      vertex -18.4075 14.7877 -180
      vertex -18.7021 14.8344 -180
    endloop
  endfacet
  facet normal 0 0 -1
    outer loop
      vertex -27 22 -180
      vertex -18.7021 14.8344 -180
      vertex -19 14.85 -180
    endloop
  endfacet
  facet normal 0 0 -1
    outer loop
      vertex -27 22 -180
      vertex -19 14.85 -180
      vertex -19.2979 14.8344 -180
    endloop
  endfacet
  facet normal 0 0 -1
    outer loop
      vertex -27 22 -180
      vertex -19.2979 14.8344 -180
      vertex -19.5925 14.7877 -180
    endloop
  endfacet
  facet normal 0 0 -1
    outer loop
      vertex -27 22 -180
      vertex -19.5925 14.7877 -180
      vertex -19.8807 14.7105 -180
    endloop
  endfacet
  facet normal 0 0 -1
    outer loop
      vertex -27 22 -180
      vertex -21.85 12 -180
      vertex -27 2 -180
    endloop
  endfacet
  facet normal 0 0 -1
    outer loop
      vertex -21.85 12 -180
      vertex -27 22 -180
      vertex -21.8344 12.2979 -180
    endloop
  endfacet
  facet normal 0 0 -1
    outer loop
      vertex -21.8344 12.2979 -180
      vertex -27 22 -180
      vertex -21.7877 12.5925 -180
    endloop
  endfacet
  facet normal 0 0 -1
    outer loop
      vertex -21.7877 12.5925 -180
      vertex -27 22 -180
      vertex -21.7105 12.8807 -180
    endloop
  endfacet
  facet normal 0 0 -1
    outer loop
      vertex -18.1193 14.7105 -180
      vertex -27 22 -180
      vertex 4.44089e-014 22 -180
    endloop
  endfacet
  facet normal 0 0 -1
    outer loop
      vertex -20.1592 14.6036 -180
      vertex -27 22 -180
      vertex -19.8807 14.7105 -180
    endloop
  endfacet
  facet normal 0 0 -1
    outer loop
      vertex -20.425 14.4682 -180
      vertex -27 22 -180
      vertex -20.1592 14.6036 -180
    endloop
  endfacet
  facet normal 0 0 -1
    outer loop
      vertex -20.6752 14.3057 -180
      vertex -27 22 -180
      vertex -20.425 14.4682 -180
    endloop
  endfacet
  facet normal 0 0 -1
    outer loop
      vertex -20.907 14.118 -180
      vertex -27 22 -180
      vertex -20.6752 14.3057 -180
    endloop
  endfacet
  facet normal 0 0 -1
    outer loop
      vertex -21.118 13.907 -180
      vertex -27 22 -180
      vertex -20.907 14.118 -180
    endloop
  endfacet
  facet normal 0 0 -1
    outer loop
      vertex -21.3057 13.6752 -180
      vertex -27 22 -180
      vertex -21.118 13.907 -180
    endloop
  endfacet
  facet normal 0 0 -1
    outer loop
      vertex -21.4682 13.425 -180
      vertex -27 22 -180
      vertex -21.3057 13.6752 -180
    endloop
  endfacet
  facet normal 0 0 -1
    outer loop
      vertex -21.6036 13.1592 -180
      vertex -27 22 -180
      vertex -21.4682 13.425 -180
    endloop
  endfacet
  facet normal 0 0 -1
    outer loop
      vertex -21.7105 12.8807 -180
      vertex -27 22 -180
      vertex -21.6036 13.1592 -180
    endloop
  endfacet
  facet normal 0 0 -1
    outer loop
      vertex 4.16334e-014 9.5 -180
      vertex -16.1656 11.7021 -180
      vertex -16.15 12 -180
    endloop
  endfacet
  facet normal 0 0 -1
    outer loop
      vertex 4.16334e-014 9.5 -180
      vertex -16.2123 11.4075 -180
      vertex -16.1656 11.7021 -180
    endloop
  endfacet
  facet normal 0 0 -1
    outer loop
      vertex 4.16334e-014 9.5 -180
      vertex -16.2895 11.1193 -180
      vertex -16.2123 11.4075 -180
    endloop
  endfacet
  facet normal 0 0 -1
    outer loop
      vertex 4.16334e-014 9.5 -180
      vertex -16.3964 10.8408 -180
      vertex -16.2895 11.1193 -180
    endloop
  endfacet
  facet normal 0 0 -1
    outer loop
      vertex 4.16334e-014 9.5 -180
      vertex -16.5318 10.575 -180
      vertex -16.3964 10.8408 -180
    endloop
  endfacet
  facet normal 0 0 -1
    outer loop
      vertex 3.9968e-014 2 -180
      vertex -16.6943 10.3248 -180
      vertex -16.5318 10.575 -180
    endloop
  endfacet
  facet normal 0 0 -1
    outer loop
      vertex 3.9968e-014 2 -180
      vertex -16.882 10.093 -180
      vertex -16.6943 10.3248 -180
    endloop
  endfacet
  facet normal 0 0 -1
    outer loop
      vertex 3.9968e-014 2 -180
      vertex -17.093 9.88204 -180
      vertex -16.882 10.093 -180
    endloop
  endfacet
  facet normal 0 0 -1
    outer loop
      vertex 3.9968e-014 2 -180
      vertex -17.3248 9.6943 -180
      vertex -17.093 9.88204 -180
    endloop
  endfacet
  facet normal 0 0 -1
    outer loop
      vertex 3.9968e-014 2 -180
      vertex -17.575 9.53183 -180
      vertex -17.3248 9.6943 -180
    endloop
  endfacet
  facet normal 0 0 -1
    outer loop
      vertex 3.9968e-014 2 -180
      vertex -17.8408 9.39639 -180
      vertex -17.575 9.53183 -180
    endloop
  endfacet
  facet normal 0 0 -1
    outer loop
      vertex 3.9968e-014 2 -180
      vertex -18.1193 9.28949 -180
      vertex -17.8408 9.39639 -180
    endloop
  endfacet
  facet normal 0 0 -1
    outer loop
      vertex -27 2 -180
      vertex -18.1193 9.28949 -180
      vertex 3.9968e-014 2 -180
    endloop
  endfacet
  facet normal 0 0 -1
    outer loop
      vertex -18.1193 9.28949 -180
      vertex -27 2 -180
      vertex -18.4075 9.21228 -180
    endloop
  endfacet
  facet normal 0 0 -1
    outer loop
      vertex -18.4075 9.21228 -180
      vertex -27 2 -180
      vertex -18.7021 9.16561 -180
    endloop
  endfacet
  facet normal 0 0 -1
    outer loop
      vertex -18.7021 9.16561 -180
      vertex -27 2 -180
      vertex -19 9.15 -180
    endloop
  endfacet
  facet normal -0 0 -1
    outer loop
      vertex -19 9.15 -180
      vertex -27 2 -180
      vertex -19.2979 9.16561 -180
    endloop
  endfacet
  facet normal -0 0 -1
    outer loop
      vertex -19.2979 9.16561 -180
      vertex -27 2 -180
      vertex -19.5925 9.21228 -180
    endloop
  endfacet
  facet normal -0 0 -1
    outer loop
      vertex -21.8344 11.7021 -180
      vertex -27 2 -180
      vertex -21.85 12 -180
    endloop
  endfacet
  facet normal -0 0 -1
    outer loop
      vertex -21.7877 11.4075 -180
      vertex -27 2 -180
      vertex -21.8344 11.7021 -180
    endloop
  endfacet
  facet normal -0 0 -1
    outer loop
      vertex -21.7105 11.1193 -180
      vertex -27 2 -180
      vertex -21.7877 11.4075 -180
    endloop
  endfacet
  facet normal -0 0 -1
    outer loop
      vertex -21.6036 10.8408 -180
      vertex -27 2 -180
      vertex -21.7105 11.1193 -180
    endloop
  endfacet
  facet normal -0 0 -1
    outer loop
      vertex -21.4682 10.575 -180
      vertex -27 2 -180
      vertex -21.6036 10.8408 -180
    endloop
  endfacet
  facet normal -0 0 -1
    outer loop
      vertex -21.3057 10.3248 -180
      vertex -27 2 -180
      vertex -21.4682 10.575 -180
    endloop
  endfacet
  facet normal -0 0 -1
    outer loop
      vertex -21.118 10.093 -180
      vertex -27 2 -180
      vertex -21.3057 10.3248 -180
    endloop
  endfacet
  facet normal -0 0 -1
    outer loop
      vertex -20.907 9.88204 -180
      vertex -27 2 -180
      vertex -21.118 10.093 -180
    endloop
  endfacet
  facet normal -0 0 -1
    outer loop
      vertex -20.6752 9.6943 -180
      vertex -27 2 -180
      vertex -20.907 9.88204 -180
    endloop
  endfacet
  facet normal -0 0 -1
    outer loop
      vertex -20.425 9.53183 -180
      vertex -27 2 -180
      vertex -20.6752 9.6943 -180
    endloop
  endfacet
  facet normal -0 0 -1
    outer loop
      vertex -20.1592 9.39639 -180
      vertex -27 2 -180
      vertex -20.425 9.53183 -180
    endloop
  endfacet
  facet normal -0 0 -1
    outer loop
      vertex -19.8807 9.28949 -180
      vertex -27 2 -180
      vertex -20.1592 9.39639 -180
    endloop
  endfacet
  facet normal -0 0 -1
    outer loop
      vertex -19.5925 9.21228 -180
      vertex -27 2 -180
      vertex -19.8807 9.28949 -180
    endloop
  endfacet
  facet normal -1 0 0
    outer loop
      vertex -27 22 -180
      vertex -27 19.9103 -177
      vertex -27 22 -177
    endloop
  endfacet
  facet normal -1 0 0
    outer loop
      vertex -27 2 -180
      vertex -27 19.9103 -177
      vertex -27 22 -180
    endloop
  endfacet
  facet normal -1 -0 0
    outer loop
      vertex -27 19.9103 -177
      vertex -27 2 -180
      vertex -27 2 -177
    endloop
  endfacet
  facet normal 0 0 1
    outer loop
      vertex 3.84137e-014 22 -153
      vertex -3 2 -153
      vertex 3.39728e-014 2 -153
    endloop
  endfacet
  facet normal 0 -0 1
    outer loop
      vertex -3 2 -153
      vertex 3.84137e-014 22 -153
      vertex -3 22 -153
    endloop
  endfacet
  facet normal -0.707107 -9.2988e-007 0.707107
    outer loop
      vertex -11.7851 7 -161.785
      vertex -5.89256 2 -155.893
      vertex -5 7 -155
    endloop
  endfacet
  facet normal -0.707107 0 0.707107
    outer loop
      vertex -22.981 16.5 -172.981
      vertex -27 22 -177
      vertex -27 19.9103 -177
    endloop
  endfacet
  facet normal -0.707107 -2.40085e-007 0.707107
    outer loop
      vertex -27 22 -177
      vertex -22.981 16.5 -172.981
      vertex -3 22 -153
    endloop
  endfacet
  facet normal -0.707107 5.79275e-008 0.707107
    outer loop
      vertex -5 16.5 -155
      vertex -3 22 -153
      vertex -22.981 16.5 -172.981
    endloop
  endfacet
  facet normal -0.707107 0 0.707107
    outer loop
      vertex -3 2 -153
      vertex -5 16.5 -155
      vertex -5 7 -155
    endloop
  endfacet
  facet normal -0.707107 -1.68587e-008 0.707107
    outer loop
      vertex -5 16.5 -155
      vertex -3 2 -153
      vertex -3 22 -153
    endloop
  endfacet
  facet normal -0.707107 -6.37357e-007 0.707106
    outer loop
      vertex -3 2 -153
      vertex -5 7 -155
      vertex -5.89256 2 -155.893
    endloop
  endfacet
  facet normal -0.707107 0 0.707107
    outer loop
      vertex -25 16.5 -175
      vertex -27 19.9103 -177
      vertex -25 7 -175
    endloop
  endfacet
  facet normal -0.707106 3.91756e-007 0.707107
    outer loop
      vertex -27 19.9103 -177
      vertex -25 16.5 -175
      vertex -22.981 16.5 -172.981
    endloop
  endfacet
  facet normal -0.707107 6.12354e-008 0.707107
    outer loop
      vertex -27 2 -177
      vertex -11.7851 7 -161.785
      vertex -25 7 -175
    endloop
  endfacet
  facet normal -0.707107 -1.03653e-006 0.707107
    outer loop
      vertex -11.7851 7 -161.785
      vertex -27 2 -177
      vertex -5.89256 2 -155.893
    endloop
  endfacet
  facet normal -0.707107 0 0.707107
    outer loop
      vertex -27 2 -177
      vertex -25 7 -175
      vertex -27 19.9103 -177
    endloop
  endfacet
  facet normal -1 0 0
    outer loop
      vertex -5 14.7877 -160.593
      vertex -5 16.5 -155
      vertex -5 16.5 -175
    endloop
  endfacet
  facet normal -1 0 0
    outer loop
      vertex -5 16.5 -155
      vertex -5 14.8344 -160.298
      vertex -5 14.85 -160
    endloop
  endfacet
  facet normal -1 0 0
    outer loop
      vertex -5 16.5 -155
      vertex -5 14.7877 -160.593
      vertex -5 14.8344 -160.298
    endloop
  endfacet
  facet normal -1 0 0
    outer loop
      vertex -5 16.5 -175
      vertex -5 14.7105 -160.881
      vertex -5 14.7877 -160.593
    endloop
  endfacet
  facet normal -1 0 0
    outer loop
      vertex -5 16.5 -175
      vertex -5 14.6036 -161.159
      vertex -5 14.7105 -160.881
    endloop
  endfacet
  facet normal -1 0 0
    outer loop
      vertex -5 16.5 -175
      vertex -5 14.4682 -161.425
      vertex -5 14.6036 -161.159
    endloop
  endfacet
  facet normal -1 0 0
    outer loop
      vertex -5 16.5 -175
      vertex -5 14.3057 -161.675
      vertex -5 14.4682 -161.425
    endloop
  endfacet
  facet normal -1 0 0
    outer loop
      vertex -5 16.5 -175
      vertex -5 14.118 -161.907
      vertex -5 14.3057 -161.675
    endloop
  endfacet
  facet normal -1 0 0
    outer loop
      vertex -5 16.5 -175
      vertex -5 13.907 -162.118
      vertex -5 14.118 -161.907
    endloop
  endfacet
  facet normal -1 0 0
    outer loop
      vertex -5 16.5 -175
      vertex -5 13.6752 -162.306
      vertex -5 13.907 -162.118
    endloop
  endfacet
  facet normal -1 0 0
    outer loop
      vertex -5 16.5 -175
      vertex -5 13.425 -162.468
      vertex -5 13.6752 -162.306
    endloop
  endfacet
  facet normal -1 0 0
    outer loop
      vertex -5 16.5 -175
      vertex -5 13.1592 -162.604
      vertex -5 13.425 -162.468
    endloop
  endfacet
  facet normal -1 0 0
    outer loop
      vertex -5 16.5 -175
      vertex -5 12.8807 -162.711
      vertex -5 13.1592 -162.604
    endloop
  endfacet
  facet normal -1 0 0
    outer loop
      vertex -5 16.5 -175
      vertex -5 12.5925 -162.788
      vertex -5 12.8807 -162.711
    endloop
  endfacet
  facet normal -1 0 0
    outer loop
      vertex -5 16.5 -175
      vertex -5 12.2979 -162.834
      vertex -5 12.5925 -162.788
    endloop
  endfacet
  facet normal -1 0 0
    outer loop
      vertex -5 16.5 -175
      vertex -5 12 -162.85
      vertex -5 12.2979 -162.834
    endloop
  endfacet
  facet normal -1 0 0
    outer loop
      vertex -5 7 -175
      vertex -5 12 -162.85
      vertex -5 16.5 -175
    endloop
  endfacet
  facet normal -1 -0 0
    outer loop
      vertex -5 12 -162.85
      vertex -5 7 -175
      vertex -5 11.7021 -162.834
    endloop
  endfacet
  facet normal -1 -0 0
    outer loop
      vertex -5 11.7021 -162.834
      vertex -5 7 -175
      vertex -5 11.4075 -162.788
    endloop
  endfacet
  facet normal -1 -0 0
    outer loop
      vertex -5 11.4075 -162.788
      vertex -5 7 -175
      vertex -5 11.1193 -162.711
    endloop
  endfacet
  facet normal -1 -0 0
    outer loop
      vertex -5 11.1193 -162.711
      vertex -5 7 -175
      vertex -5 10.8408 -162.604
    endloop
  endfacet
  facet normal -1 -0 0
    outer loop
      vertex -5 10.8408 -162.604
      vertex -5 7 -175
      vertex -5 10.575 -162.468
    endloop
  endfacet
  facet normal -1 -0 0
    outer loop
      vertex -5 10.575 -162.468
      vertex -5 7 -175
      vertex -5 10.3248 -162.306
    endloop
  endfacet
  facet normal -1 -0 0
    outer loop
      vertex -5 10.3248 -162.306
      vertex -5 7 -175
      vertex -5 10.093 -162.118
    endloop
  endfacet
  facet normal -1 -0 0
    outer loop
      vertex -5 10.093 -162.118
      vertex -5 7 -175
      vertex -5 9.88204 -161.907
    endloop
  endfacet
  facet normal -1 -0 0
    outer loop
      vertex -5 9.88204 -161.907
      vertex -5 7 -175
      vertex -5 9.6943 -161.675
    endloop
  endfacet
  facet normal -1 0 0
    outer loop
      vertex -5 9.21228 -160.593
      vertex -5 7 -155
      vertex -5 9.16561 -160.298
    endloop
  endfacet
  facet normal -1 0 0
    outer loop
      vertex -5 7 -155
      vertex -5 9.21228 -160.593
      vertex -5 7 -175
    endloop
  endfacet
  facet normal -1 -0 0
    outer loop
      vertex -5 9.28949 -160.881
      vertex -5 7 -175
      vertex -5 9.21228 -160.593
    endloop
  endfacet
  facet normal -1 -0 0
    outer loop
      vertex -5 9.39639 -161.159
      vertex -5 7 -175
      vertex -5 9.28949 -160.881
    endloop
  endfacet
  facet normal -1 -0 0
    outer loop
      vertex -5 9.53183 -161.425
      vertex -5 7 -175
      vertex -5 9.39639 -161.159
    endloop
  endfacet
  facet normal -1 -0 0
    outer loop
      vertex -5 9.6943 -161.675
      vertex -5 7 -175
      vertex -5 9.53183 -161.425
    endloop
  endfacet
  facet normal -1 0 0
    outer loop
      vertex -5 14.8344 -159.702
      vertex -5 16.5 -155
      vertex -5 14.85 -160
    endloop
  endfacet
  facet normal -1 0 0
    outer loop
      vertex -5 14.7877 -159.407
      vertex -5 16.5 -155
      vertex -5 14.8344 -159.702
    endloop
  endfacet
  facet normal -1 0 0
    outer loop
      vertex -5 14.7105 -159.119
      vertex -5 16.5 -155
      vertex -5 14.7877 -159.407
    endloop
  endfacet
  facet normal -1 0 0
    outer loop
      vertex -5 14.6036 -158.841
      vertex -5 16.5 -155
      vertex -5 14.7105 -159.119
    endloop
  endfacet
  facet normal -1 0 0
    outer loop
      vertex -5 14.4682 -158.575
      vertex -5 16.5 -155
      vertex -5 14.6036 -158.841
    endloop
  endfacet
  facet normal -1 0 0
    outer loop
      vertex -5 14.3057 -158.325
      vertex -5 16.5 -155
      vertex -5 14.4682 -158.575
    endloop
  endfacet
  facet normal -1 0 0
    outer loop
      vertex -5 14.118 -158.093
      vertex -5 16.5 -155
      vertex -5 14.3057 -158.325
    endloop
  endfacet
  facet normal -1 0 0
    outer loop
      vertex -5 13.907 -157.882
      vertex -5 16.5 -155
      vertex -5 14.118 -158.093
    endloop
  endfacet
  facet normal -1 0 0
    outer loop
      vertex -5 13.6752 -157.694
      vertex -5 16.5 -155
      vertex -5 13.907 -157.882
    endloop
  endfacet
  facet normal -1 0 0
    outer loop
      vertex -5 13.425 -157.532
      vertex -5 16.5 -155
      vertex -5 13.6752 -157.694
    endloop
  endfacet
  facet normal -1 0 0
    outer loop
      vertex -5 13.1592 -157.396
      vertex -5 16.5 -155
      vertex -5 13.425 -157.532
    endloop
  endfacet
  facet normal -1 0 0
    outer loop
      vertex -5 12.8807 -157.289
      vertex -5 16.5 -155
      vertex -5 13.1592 -157.396
    endloop
  endfacet
  facet normal -1 0 0
    outer loop
      vertex -5 12.5925 -157.212
      vertex -5 16.5 -155
      vertex -5 12.8807 -157.289
    endloop
  endfacet
  facet normal -1 0 0
    outer loop
      vertex -5 12.2979 -157.166
      vertex -5 16.5 -155
      vertex -5 12.5925 -157.212
    endloop
  endfacet
  facet normal -1 0 0
    outer loop
      vertex -5 12 -157.15
      vertex -5 16.5 -155
      vertex -5 12.2979 -157.166
    endloop
  endfacet
  facet normal -1 0 0
    outer loop
      vertex -5 7 -155
      vertex -5 12 -157.15
      vertex -5 11.7021 -157.166
    endloop
  endfacet
  facet normal -1 0 0
    outer loop
      vertex -5 7 -155
      vertex -5 11.7021 -157.166
      vertex -5 11.4075 -157.212
    endloop
  endfacet
  facet normal -1 0 0
    outer loop
      vertex -5 7 -155
      vertex -5 11.4075 -157.212
      vertex -5 11.1193 -157.289
    endloop
  endfacet
  facet normal -1 0 0
    outer loop
      vertex -5 7 -155
      vertex -5 11.1193 -157.289
      vertex -5 10.8408 -157.396
    endloop
  endfacet
  facet normal -1 0 0
    outer loop
      vertex -5 9.16561 -160.298
      vertex -5 7 -155
      vertex -5 9.15 -160
    endloop
  endfacet
  facet normal -1 0 0
    outer loop
      vertex -5 12 -157.15
      vertex -5 7 -155
      vertex -5 16.5 -155
    endloop
  endfacet
  facet normal -1 0 0
    outer loop
      vertex -5 10.575 -157.532
      vertex -5 7 -155
      vertex -5 10.8408 -157.396
    endloop
  endfacet
  facet normal -1 0 0
    outer loop
      vertex -5 10.3248 -157.694
      vertex -5 7 -155
      vertex -5 10.575 -157.532
    endloop
  endfacet
  facet normal -1 0 0
    outer loop
      vertex -5 10.093 -157.882
      vertex -5 7 -155
      vertex -5 10.3248 -157.694
    endloop
  endfacet
  facet normal -1 0 0
    outer loop
      vertex -5 9.88204 -158.093
      vertex -5 7 -155
      vertex -5 10.093 -157.882
    endloop
  endfacet
  facet normal -1 0 0
    outer loop
      vertex -5 9.6943 -158.325
      vertex -5 7 -155
      vertex -5 9.88204 -158.093
    endloop
  endfacet
  facet normal -1 0 0
    outer loop
      vertex -5 9.53183 -158.575
      vertex -5 7 -155
      vertex -5 9.6943 -158.325
    endloop
  endfacet
  facet normal -1 0 0
    outer loop
      vertex -5 9.39639 -158.841
      vertex -5 7 -155
      vertex -5 9.53183 -158.575
    endloop
  endfacet
  facet normal -1 0 0
    outer loop
      vertex -5 9.28949 -159.119
      vertex -5 7 -155
      vertex -5 9.39639 -158.841
    endloop
  endfacet
  facet normal -1 0 0
    outer loop
      vertex -5 9.21228 -159.407
      vertex -5 7 -155
      vertex -5 9.28949 -159.119
    endloop
  endfacet
  facet normal -1 0 0
    outer loop
      vertex -5 9.16561 -159.702
      vertex -5 7 -155
      vertex -5 9.21228 -159.407
    endloop
  endfacet
  facet normal -1 0 0
    outer loop
      vertex -5 9.15 -160
      vertex -5 7 -155
      vertex -5 9.16561 -159.702
    endloop
  endfacet
  facet normal 0 -1 0
    outer loop
      vertex -22.981 16.5 -172.981
      vertex -5 16.5 -175
      vertex -5 16.5 -155
    endloop
  endfacet
  facet normal 0 -1 0
    outer loop
      vertex -5 16.5 -175
      vertex -22.981 16.5 -172.981
      vertex -25 16.5 -175
    endloop
  endfacet
  facet normal 0 1 -0
    outer loop
      vertex -5 7 -175
      vertex -11.7851 7 -161.785
      vertex -5 7 -155
    endloop
  endfacet
  facet normal 0 1 0
    outer loop
      vertex -11.7851 7 -161.785
      vertex -5 7 -175
      vertex -25 7 -175
    endloop
  endfacet
  facet normal 0 0 1
    outer loop
      vertex -5 16.5 -175
      vertex -16.15 12 -175
      vertex -5 7 -175
    endloop
  endfacet
  facet normal 0 0 1
    outer loop
      vertex -5 16.5 -175
      vertex -16.1656 12.2979 -175
      vertex -16.15 12 -175
    endloop
  endfacet
  facet normal 0 0 1
    outer loop
      vertex -5 16.5 -175
      vertex -16.2123 12.5925 -175
      vertex -16.1656 12.2979 -175
    endloop
  endfacet
  facet normal 0 0 1
    outer loop
      vertex -5 16.5 -175
      vertex -16.2895 12.8807 -175
      vertex -16.2123 12.5925 -175
    endloop
  endfacet
  facet normal 0 0 1
    outer loop
      vertex -5 16.5 -175
      vertex -16.3964 13.1592 -175
      vertex -16.2895 12.8807 -175
    endloop
  endfacet
  facet normal 0 0 1
    outer loop
      vertex -5 16.5 -175
      vertex -16.5318 13.425 -175
      vertex -16.3964 13.1592 -175
    endloop
  endfacet
  facet normal 0 0 1
    outer loop
      vertex -5 16.5 -175
      vertex -16.6943 13.6752 -175
      vertex -16.5318 13.425 -175
    endloop
  endfacet
  facet normal 0 0 1
    outer loop
      vertex -5 16.5 -175
      vertex -16.882 13.907 -175
      vertex -16.6943 13.6752 -175
    endloop
  endfacet
  facet normal 0 0 1
    outer loop
      vertex -5 16.5 -175
      vertex -17.093 14.118 -175
      vertex -16.882 13.907 -175
    endloop
  endfacet
  facet normal 0 0 1
    outer loop
      vertex -5 16.5 -175
      vertex -17.3248 14.3057 -175
      vertex -17.093 14.118 -175
    endloop
  endfacet
  facet normal 0 0 1
    outer loop
      vertex -5 16.5 -175
      vertex -17.575 14.4682 -175
      vertex -17.3248 14.3057 -175
    endloop
  endfacet
  facet normal 0 0 1
    outer loop
      vertex -5 16.5 -175
      vertex -17.8408 14.6036 -175
      vertex -17.575 14.4682 -175
    endloop
  endfacet
  facet normal 0 0 1
    outer loop
      vertex -5 16.5 -175
      vertex -18.1193 14.7105 -175
      vertex -17.8408 14.6036 -175
    endloop
  endfacet
  facet normal 0 0 1
    outer loop
      vertex -5 16.5 -175
      vertex -18.4075 14.7877 -175
      vertex -18.1193 14.7105 -175
    endloop
  endfacet
  facet normal 0 0 1
    outer loop
      vertex -5 16.5 -175
      vertex -18.7021 14.8344 -175
      vertex -18.4075 14.7877 -175
    endloop
  endfacet
  facet normal -0 0 1
    outer loop
      vertex -25 16.5 -175
      vertex -18.7021 14.8344 -175
      vertex -5 16.5 -175
    endloop
  endfacet
  facet normal 0 0 1
    outer loop
      vertex -18.7021 14.8344 -175
      vertex -25 16.5 -175
      vertex -19 14.85 -175
    endloop
  endfacet
  facet normal 0 0 1
    outer loop
      vertex -21.8344 12.2979 -175
      vertex -25 16.5 -175
      vertex -21.85 12 -175
    endloop
  endfacet
  facet normal 0 0 1
    outer loop
      vertex -21.7877 12.5925 -175
      vertex -25 16.5 -175
      vertex -21.8344 12.2979 -175
    endloop
  endfacet
  facet normal 0 0 1
    outer loop
      vertex -21.7105 12.8807 -175
      vertex -25 16.5 -175
      vertex -21.7877 12.5925 -175
    endloop
  endfacet
  facet normal 0 0 1
    outer loop
      vertex -21.6036 13.1592 -175
      vertex -25 16.5 -175
      vertex -21.7105 12.8807 -175
    endloop
  endfacet
  facet normal 0 0 1
    outer loop
      vertex -21.4682 13.425 -175
      vertex -25 16.5 -175
      vertex -21.6036 13.1592 -175
    endloop
  endfacet
  facet normal 0 0 1
    outer loop
      vertex -21.3057 13.6752 -175
      vertex -25 16.5 -175
      vertex -21.4682 13.425 -175
    endloop
  endfacet
  facet normal 0 0 1
    outer loop
      vertex -21.118 13.907 -175
      vertex -25 16.5 -175
      vertex -21.3057 13.6752 -175
    endloop
  endfacet
  facet normal 0 0 1
    outer loop
      vertex -20.907 14.118 -175
      vertex -25 16.5 -175
      vertex -21.118 13.907 -175
    endloop
  endfacet
  facet normal 0 0 1
    outer loop
      vertex -20.6752 14.3057 -175
      vertex -25 16.5 -175
      vertex -20.907 14.118 -175
    endloop
  endfacet
  facet normal 0 0 1
    outer loop
      vertex -20.425 14.4682 -175
      vertex -25 16.5 -175
      vertex -20.6752 14.3057 -175
    endloop
  endfacet
  facet normal 0 0 1
    outer loop
      vertex -20.1592 14.6036 -175
      vertex -25 16.5 -175
      vertex -20.425 14.4682 -175
    endloop
  endfacet
  facet normal 0 0 1
    outer loop
      vertex -19.8807 14.7105 -175
      vertex -25 16.5 -175
      vertex -20.1592 14.6036 -175
    endloop
  endfacet
  facet normal 0 0 1
    outer loop
      vertex -19.5925 14.7877 -175
      vertex -25 16.5 -175
      vertex -19.8807 14.7105 -175
    endloop
  endfacet
  facet normal 0 0 1
    outer loop
      vertex -19.2979 14.8344 -175
      vertex -25 16.5 -175
      vertex -19.5925 14.7877 -175
    endloop
  endfacet
  facet normal 0 0 1
    outer loop
      vertex -19 14.85 -175
      vertex -25 16.5 -175
      vertex -19.2979 14.8344 -175
    endloop
  endfacet
  facet normal -0 0 1
    outer loop
      vertex -16.1656 11.7021 -175
      vertex -5 7 -175
      vertex -16.15 12 -175
    endloop
  endfacet
  facet normal -0 0 1
    outer loop
      vertex -16.2123 11.4075 -175
      vertex -5 7 -175
      vertex -16.1656 11.7021 -175
    endloop
  endfacet
  facet normal -0 0 1
    outer loop
      vertex -16.2895 11.1193 -175
      vertex -5 7 -175
      vertex -16.2123 11.4075 -175
    endloop
  endfacet
  facet normal -0 0 1
    outer loop
      vertex -16.3964 10.8408 -175
      vertex -5 7 -175
      vertex -16.2895 11.1193 -175
    endloop
  endfacet
  facet normal -0 0 1
    outer loop
      vertex -16.5318 10.575 -175
      vertex -5 7 -175
      vertex -16.3964 10.8408 -175
    endloop
  endfacet
  facet normal -0 0 1
    outer loop
      vertex -16.6943 10.3248 -175
      vertex -5 7 -175
      vertex -16.5318 10.575 -175
    endloop
  endfacet
  facet normal -0 0 1
    outer loop
      vertex -16.882 10.093 -175
      vertex -5 7 -175
      vertex -16.6943 10.3248 -175
    endloop
  endfacet
  facet normal -0 0 1
    outer loop
      vertex -17.093 9.88204 -175
      vertex -5 7 -175
      vertex -16.882 10.093 -175
    endloop
  endfacet
  facet normal -0 0 1
    outer loop
      vertex -17.3248 9.6943 -175
      vertex -5 7 -175
      vertex -17.093 9.88204 -175
    endloop
  endfacet
  facet normal -0 0 1
    outer loop
      vertex -17.575 9.53183 -175
      vertex -5 7 -175
      vertex -17.3248 9.6943 -175
    endloop
  endfacet
  facet normal -0 0 1
    outer loop
      vertex -17.8408 9.39639 -175
      vertex -5 7 -175
      vertex -17.575 9.53183 -175
    endloop
  endfacet
  facet normal -0 0 1
    outer loop
      vertex -18.1193 9.28949 -175
      vertex -5 7 -175
      vertex -17.8408 9.39639 -175
    endloop
  endfacet
  facet normal -0 0 1
    outer loop
      vertex -18.4075 9.21228 -175
      vertex -5 7 -175
      vertex -18.1193 9.28949 -175
    endloop
  endfacet
  facet normal 0 0 1
    outer loop
      vertex -25 7 -175
      vertex -18.4075 9.21228 -175
      vertex -18.7021 9.16561 -175
    endloop
  endfacet
  facet normal 0 0 1
    outer loop
      vertex -25 7 -175
      vertex -18.7021 9.16561 -175
      vertex -19 9.15 -175
    endloop
  endfacet
  facet normal 0 0 1
    outer loop
      vertex -25 7 -175
      vertex -19 9.15 -175
      vertex -19.2979 9.16561 -175
    endloop
  endfacet
  facet normal 0 0 1
    outer loop
      vertex -25 7 -175
      vertex -21.85 12 -175
      vertex -25 16.5 -175
    endloop
  endfacet
  facet normal 0 0 1
    outer loop
      vertex -21.85 12 -175
      vertex -25 7 -175
      vertex -21.8344 11.7021 -175
    endloop
  endfacet
  facet normal 0 0 1
    outer loop
      vertex -21.8344 11.7021 -175
      vertex -25 7 -175
      vertex -21.7877 11.4075 -175
    endloop
  endfacet
  facet normal 0 0 1
    outer loop
      vertex -21.7877 11.4075 -175
      vertex -25 7 -175
      vertex -21.7105 11.1193 -175
    endloop
  endfacet
  facet normal 0 0 1
    outer loop
      vertex -21.7105 11.1193 -175
      vertex -25 7 -175
      vertex -21.6036 10.8408 -175
    endloop
  endfacet
  facet normal 0 0 1
    outer loop
      vertex -18.4075 9.21228 -175
      vertex -25 7 -175
      vertex -5 7 -175
    endloop
  endfacet
  facet normal 0 0 1
    outer loop
      vertex -19.5925 9.21228 -175
      vertex -25 7 -175
      vertex -19.2979 9.16561 -175
    endloop
  endfacet
  facet normal 0 0 1
    outer loop
      vertex -19.8807 9.28949 -175
      vertex -25 7 -175
      vertex -19.5925 9.21228 -175
    endloop
  endfacet
  facet normal 0 0 1
    outer loop
      vertex -20.1592 9.39639 -175
      vertex -25 7 -175
      vertex -19.8807 9.28949 -175
    endloop
  endfacet
  facet normal 0 0 1
    outer loop
      vertex -20.425 9.53183 -175
      vertex -25 7 -175
      vertex -20.1592 9.39639 -175
    endloop
  endfacet
  facet normal 0 0 1
    outer loop
      vertex -20.6752 9.6943 -175
      vertex -25 7 -175
      vertex -20.425 9.53183 -175
    endloop
  endfacet
  facet normal 0 0 1
    outer loop
      vertex -20.907 9.88204 -175
      vertex -25 7 -175
      vertex -20.6752 9.6943 -175
    endloop
  endfacet
  facet normal 0 0 1
    outer loop
      vertex -21.118 10.093 -175
      vertex -25 7 -175
      vertex -20.907 9.88204 -175
    endloop
  endfacet
  facet normal 0 0 1
    outer loop
      vertex -21.3057 10.3248 -175
      vertex -25 7 -175
      vertex -21.118 10.093 -175
    endloop
  endfacet
  facet normal 0 0 1
    outer loop
      vertex -21.4682 10.575 -175
      vertex -25 7 -175
      vertex -21.3057 10.3248 -175
    endloop
  endfacet
  facet normal 0 0 1
    outer loop
      vertex -21.6036 10.8408 -175
      vertex -25 7 -175
      vertex -21.4682 10.575 -175
    endloop
  endfacet
  facet normal 0 0.99863 -0.0523348
    outer loop
      vertex 3.71148e-014 9.15 -160
      vertex -5 9.16561 -159.702
      vertex 3.70521e-014 9.16561 -159.702
    endloop
  endfacet
  facet normal 0 0.99863 -0.0523348
    outer loop
      vertex -5 9.16561 -159.702
      vertex 3.71148e-014 9.15 -160
      vertex -5 9.15 -160
    endloop
  endfacet
  facet normal 0 -0.99863 0.0523348
    outer loop
      vertex -5 14.8344 -160.298
      vertex 3.83804e-014 14.85 -160
      vertex -5 14.85 -160
    endloop
  endfacet
  facet normal 0 -0.99863 0.0523348
    outer loop
      vertex 3.83804e-014 14.85 -160
      vertex -5 14.8344 -160.298
      vertex 3.84431e-014 14.8344 -160.298
    endloop
  endfacet
  facet normal 0 -0.0523774 -0.998627
    outer loop
      vertex -5 12 -157.15
      vertex 3.71844e-014 12.2979 -157.166
      vertex 3.71148e-014 12 -157.15
    endloop
  endfacet
  facet normal -0 -0.0523774 -0.998627
    outer loop
      vertex 3.71844e-014 12.2979 -157.166
      vertex -5 12 -157.15
      vertex -5 12.2979 -157.166
    endloop
  endfacet
  facet normal 0 -0.629306 0.777157
    outer loop
      vertex -5 13.907 -162.118
      vertex 3.86315e-014 13.6752 -162.306
      vertex 3.86413e-014 13.907 -162.118
    endloop
  endfacet
  facet normal 0 -0.629306 0.777157
    outer loop
      vertex 3.86315e-014 13.6752 -162.306
      vertex -5 13.907 -162.118
      vertex -5 13.6752 -162.306
    endloop
  endfacet
  facet normal 0 0.707102 -0.707112
    outer loop
      vertex -5 9.88204 -158.093
      vertex 3.68539e-014 10.093 -157.882
      vertex 3.68539e-014 9.88204 -158.093
    endloop
  endfacet
  facet normal 0 0.707102 -0.707112
    outer loop
      vertex 3.68539e-014 10.093 -157.882
      vertex -5 9.88204 -158.093
      vertex -5 10.093 -157.882
    endloop
  endfacet
  facet normal 0 -0.777155 -0.629309
    outer loop
      vertex -5 14.3057 -158.325
      vertex 3.77944e-014 14.118 -158.093
      vertex -5 14.118 -158.093
    endloop
  endfacet
  facet normal 0 -0.777155 -0.629309
    outer loop
      vertex 3.77944e-014 14.118 -158.093
      vertex -5 14.3057 -158.325
      vertex 3.78876e-014 14.3057 -158.325
    endloop
  endfacet
  facet normal 0 -0.454004 -0.891
    outer loop
      vertex -5 13.1592 -157.396
      vertex 3.7516e-014 13.425 -157.532
      vertex 3.74269e-014 13.1592 -157.396
    endloop
  endfacet
  facet normal -0 -0.454004 -0.891
    outer loop
      vertex 3.7516e-014 13.425 -157.532
      vertex -5 13.1592 -157.396
      vertex -5 13.425 -157.532
    endloop
  endfacet
  facet normal 0 -0.891012 0.453981
    outer loop
      vertex -5 14.4682 -161.425
      vertex 3.85831e-014 14.6036 -161.159
      vertex -5 14.6036 -161.159
    endloop
  endfacet
  facet normal 0 -0.891012 0.453981
    outer loop
      vertex 3.85831e-014 14.6036 -161.159
      vertex -5 14.4682 -161.425
      vertex 3.8612e-014 14.4682 -161.425
    endloop
  endfacet
  facet normal 0 -0.933582 -0.358364
    outer loop
      vertex -5 14.7105 -159.119
      vertex 3.80683e-014 14.6036 -158.841
      vertex -5 14.6036 -158.841
    endloop
  endfacet
  facet normal 0 -0.933582 -0.358364
    outer loop
      vertex 3.80683e-014 14.6036 -158.841
      vertex -5 14.7105 -159.119
      vertex 3.81539e-014 14.7105 -159.119
    endloop
  endfacet
  facet normal 0 -0.258818 -0.965926
    outer loop
      vertex -5 12.5925 -157.212
      vertex 3.73413e-014 12.8807 -157.289
      vertex 3.72602e-014 12.5925 -157.212
    endloop
  endfacet
  facet normal -0 -0.258818 -0.965926
    outer loop
      vertex 3.73413e-014 12.8807 -157.289
      vertex -5 12.5925 -157.212
      vertex -5 12.8807 -157.289
    endloop
  endfacet
  facet normal 0 0.99863 0.0523348
    outer loop
      vertex 3.71844e-014 9.16561 -160.298
      vertex -5 9.15 -160
      vertex 3.71148e-014 9.15 -160
    endloop
  endfacet
  facet normal 0 0.99863 0.0523348
    outer loop
      vertex -5 9.15 -160
      vertex 3.71844e-014 9.16561 -160.298
      vertex -5 9.16561 -160.298
    endloop
  endfacet
  facet normal 0 0.965925 0.258821
    outer loop
      vertex 3.73413e-014 9.28949 -160.881
      vertex -5 9.21228 -160.593
      vertex 3.72602e-014 9.21228 -160.593
    endloop
  endfacet
  facet normal 0 0.965925 0.258821
    outer loop
      vertex -5 9.21228 -160.593
      vertex 3.73413e-014 9.28949 -160.881
      vertex -5 9.28949 -160.881
    endloop
  endfacet
  facet normal 0 -0.358358 0.933584
    outer loop
      vertex -5 13.1592 -162.604
      vertex 3.8545e-014 12.8807 -162.711
      vertex 3.85831e-014 13.1592 -162.604
    endloop
  endfacet
  facet normal 0 -0.358358 0.933584
    outer loop
      vertex 3.8545e-014 12.8807 -162.711
      vertex -5 13.1592 -162.604
      vertex -5 12.8807 -162.711
    endloop
  endfacet
  facet normal 0 -0.965925 0.258821
    outer loop
      vertex -5 14.7105 -160.881
      vertex 3.84982e-014 14.7877 -160.593
      vertex -5 14.7877 -160.593
    endloop
  endfacet
  facet normal 0 -0.965925 0.258821
    outer loop
      vertex 3.84982e-014 14.7877 -160.593
      vertex -5 14.7105 -160.881
      vertex 3.8545e-014 14.7105 -160.881
    endloop
  endfacet
  facet normal 0 0.933582 -0.358364
    outer loop
      vertex 3.69502e-014 9.28949 -159.119
      vertex -5 9.39639 -158.841
      vertex 3.69121e-014 9.39639 -158.841
    endloop
  endfacet
  facet normal 0 0.933582 -0.358364
    outer loop
      vertex -5 9.39639 -158.841
      vertex 3.69502e-014 9.28949 -159.119
      vertex -5 9.28949 -159.119
    endloop
  endfacet
  facet normal 0 -0.987687 -0.156441
    outer loop
      vertex -5 14.8344 -159.702
      vertex 3.8235e-014 14.7877 -159.407
      vertex -5 14.7877 -159.407
    endloop
  endfacet
  facet normal 0 -0.987687 -0.156441
    outer loop
      vertex 3.8235e-014 14.7877 -159.407
      vertex -5 14.8344 -159.702
      vertex 3.83108e-014 14.8344 -159.702
    endloop
  endfacet
  facet normal 0 -0.891012 -0.453981
    outer loop
      vertex -5 14.6036 -158.841
      vertex 3.79792e-014 14.4682 -158.575
      vertex -5 14.4682 -158.575
    endloop
  endfacet
  facet normal 0 -0.891012 -0.453981
    outer loop
      vertex 3.79792e-014 14.4682 -158.575
      vertex -5 14.6036 -158.841
      vertex 3.80683e-014 14.6036 -158.841
    endloop
  endfacet
  facet normal 0 -0.838666 -0.544646
    outer loop
      vertex -5 14.4682 -158.575
      vertex 3.78876e-014 14.3057 -158.325
      vertex -5 14.3057 -158.325
    endloop
  endfacet
  facet normal 0 -0.838666 -0.544646
    outer loop
      vertex 3.78876e-014 14.3057 -158.325
      vertex -5 14.4682 -158.575
      vertex 3.79792e-014 14.4682 -158.575
    endloop
  endfacet
  facet normal 0 -0.965925 -0.258821
    outer loop
      vertex -5 14.7877 -159.407
      vertex 3.81539e-014 14.7105 -159.119
      vertex -5 14.7105 -159.119
    endloop
  endfacet
  facet normal 0 -0.965925 -0.258821
    outer loop
      vertex 3.81539e-014 14.7105 -159.119
      vertex -5 14.7877 -159.407
      vertex 3.8235e-014 14.7877 -159.407
    endloop
  endfacet
  facet normal 0 -0.99863 -0.0523348
    outer loop
      vertex -5 14.85 -160
      vertex 3.83108e-014 14.8344 -159.702
      vertex -5 14.8344 -159.702
    endloop
  endfacet
  facet normal 0 -0.99863 -0.0523348
    outer loop
      vertex 3.83108e-014 14.8344 -159.702
      vertex -5 14.85 -160
      vertex 3.83804e-014 14.85 -160
    endloop
  endfacet
  facet normal 0 -0.629306 -0.777157
    outer loop
      vertex -5 13.6752 -157.694
      vertex 3.77007e-014 13.907 -157.882
      vertex 3.76076e-014 13.6752 -157.694
    endloop
  endfacet
  facet normal -0 -0.629306 -0.777157
    outer loop
      vertex 3.77007e-014 13.907 -157.882
      vertex -5 13.6752 -157.694
      vertex -5 13.907 -157.882
    endloop
  endfacet
  facet normal 0 -0.544643 -0.838668
    outer loop
      vertex -5 13.425 -157.532
      vertex 3.76076e-014 13.6752 -157.694
      vertex 3.7516e-014 13.425 -157.532
    endloop
  endfacet
  facet normal -0 -0.544643 -0.838668
    outer loop
      vertex 3.76076e-014 13.6752 -157.694
      vertex -5 13.425 -157.532
      vertex -5 13.6752 -157.694
    endloop
  endfacet
  facet normal 0 -0.707102 -0.707112
    outer loop
      vertex -5 13.907 -157.882
      vertex 3.77944e-014 14.118 -158.093
      vertex 3.77007e-014 13.907 -157.882
    endloop
  endfacet
  facet normal -0 -0.707102 -0.707112
    outer loop
      vertex 3.77944e-014 14.118 -158.093
      vertex -5 13.907 -157.882
      vertex -5 14.118 -158.093
    endloop
  endfacet
  facet normal 0 -0.358358 -0.933584
    outer loop
      vertex -5 12.8807 -157.289
      vertex 3.74269e-014 13.1592 -157.396
      vertex 3.73413e-014 12.8807 -157.289
    endloop
  endfacet
  facet normal -0 -0.358358 -0.933584
    outer loop
      vertex 3.74269e-014 13.1592 -157.396
      vertex -5 12.8807 -157.289
      vertex -5 13.1592 -157.396
    endloop
  endfacet
  facet normal 0 -0.156417 -0.987691
    outer loop
      vertex -5 12.2979 -157.166
      vertex 3.72602e-014 12.5925 -157.212
      vertex 3.71844e-014 12.2979 -157.166
    endloop
  endfacet
  facet normal -0 -0.156417 -0.987691
    outer loop
      vertex 3.72602e-014 12.5925 -157.212
      vertex -5 12.2979 -157.166
      vertex -5 12.5925 -157.212
    endloop
  endfacet
  facet normal -0 0.156417 0.987691
    outer loop
      vertex -5 11.7021 -162.834
      vertex 3.8235e-014 11.4075 -162.788
      vertex 3.83108e-014 11.7021 -162.834
    endloop
  endfacet
  facet normal 0 0.156417 0.987691
    outer loop
      vertex 3.8235e-014 11.4075 -162.788
      vertex -5 11.7021 -162.834
      vertex -5 11.4075 -162.788
    endloop
  endfacet
  facet normal -0 0.358358 0.933584
    outer loop
      vertex -5 11.1193 -162.711
      vertex 3.80683e-014 10.8408 -162.604
      vertex 3.81539e-014 11.1193 -162.711
    endloop
  endfacet
  facet normal 0 0.358358 0.933584
    outer loop
      vertex 3.80683e-014 10.8408 -162.604
      vertex -5 11.1193 -162.711
      vertex -5 10.8408 -162.604
    endloop
  endfacet
  facet normal 0 0.933582 0.358364
    outer loop
      vertex 3.74269e-014 9.39639 -161.159
      vertex -5 9.28949 -160.881
      vertex 3.73413e-014 9.28949 -160.881
    endloop
  endfacet
  facet normal 0 0.933582 0.358364
    outer loop
      vertex -5 9.28949 -160.881
      vertex 3.74269e-014 9.39639 -161.159
      vertex -5 9.39639 -161.159
    endloop
  endfacet
  facet normal 0 -0.156417 0.987691
    outer loop
      vertex -5 12.5925 -162.788
      vertex 3.84431e-014 12.2979 -162.834
      vertex 3.84982e-014 12.5925 -162.788
    endloop
  endfacet
  facet normal 0 -0.156417 0.987691
    outer loop
      vertex 3.84431e-014 12.2979 -162.834
      vertex -5 12.5925 -162.788
      vertex -5 12.2979 -162.834
    endloop
  endfacet
  facet normal 0 -0.454004 0.891
    outer loop
      vertex -5 13.425 -162.468
      vertex 3.85831e-014 13.1592 -162.604
      vertex 3.8612e-014 13.425 -162.468
    endloop
  endfacet
  facet normal 0 -0.454004 0.891
    outer loop
      vertex 3.85831e-014 13.1592 -162.604
      vertex -5 13.425 -162.468
      vertex -5 13.1592 -162.604
    endloop
  endfacet
  facet normal 0 -0.544643 0.838668
    outer loop
      vertex -5 13.6752 -162.306
      vertex 3.8612e-014 13.425 -162.468
      vertex 3.86315e-014 13.6752 -162.306
    endloop
  endfacet
  facet normal 0 -0.544643 0.838668
    outer loop
      vertex 3.8612e-014 13.425 -162.468
      vertex -5 13.6752 -162.306
      vertex -5 13.425 -162.468
    endloop
  endfacet
  facet normal 0 -0.258818 0.965926
    outer loop
      vertex -5 12.8807 -162.711
      vertex 3.84982e-014 12.5925 -162.788
      vertex 3.8545e-014 12.8807 -162.711
    endloop
  endfacet
  facet normal 0 -0.258818 0.965926
    outer loop
      vertex 3.84982e-014 12.5925 -162.788
      vertex -5 12.8807 -162.711
      vertex -5 12.5925 -162.788
    endloop
  endfacet
  facet normal 0 -0.0523774 0.998627
    outer loop
      vertex -5 12.2979 -162.834
      vertex 3.83804e-014 12 -162.85
      vertex 3.84431e-014 12.2979 -162.834
    endloop
  endfacet
  facet normal 0 -0.0523774 0.998627
    outer loop
      vertex 3.83804e-014 12 -162.85
      vertex -5 12.2979 -162.834
      vertex -5 12 -162.85
    endloop
  endfacet
  facet normal 0 -0.777155 0.629309
    outer loop
      vertex -5 14.118 -161.907
      vertex 3.86315e-014 14.3057 -161.675
      vertex -5 14.3057 -161.675
    endloop
  endfacet
  facet normal 0 -0.777155 0.629309
    outer loop
      vertex 3.86315e-014 14.3057 -161.675
      vertex -5 14.118 -161.907
      vertex 3.86413e-014 14.118 -161.907
    endloop
  endfacet
  facet normal 0 -0.838666 0.544646
    outer loop
      vertex -5 14.3057 -161.675
      vertex 3.8612e-014 14.4682 -161.425
      vertex -5 14.4682 -161.425
    endloop
  endfacet
  facet normal 0 -0.838666 0.544646
    outer loop
      vertex 3.8612e-014 14.4682 -161.425
      vertex -5 14.3057 -161.675
      vertex 3.86315e-014 14.3057 -161.675
    endloop
  endfacet
  facet normal 0 -0.707102 0.707112
    outer loop
      vertex -5 14.118 -161.907
      vertex 3.86413e-014 13.907 -162.118
      vertex 3.86413e-014 14.118 -161.907
    endloop
  endfacet
  facet normal 0 -0.707102 0.707112
    outer loop
      vertex 3.86413e-014 13.907 -162.118
      vertex -5 14.118 -161.907
      vertex -5 13.907 -162.118
    endloop
  endfacet
  facet normal 0 -0.933582 0.358364
    outer loop
      vertex -5 14.6036 -161.159
      vertex 3.8545e-014 14.7105 -160.881
      vertex -5 14.7105 -160.881
    endloop
  endfacet
  facet normal 0 -0.933582 0.358364
    outer loop
      vertex 3.8545e-014 14.7105 -160.881
      vertex -5 14.6036 -161.159
      vertex 3.85831e-014 14.6036 -161.159
    endloop
  endfacet
  facet normal 0 -0.987687 0.156441
    outer loop
      vertex -5 14.7877 -160.593
      vertex 3.84431e-014 14.8344 -160.298
      vertex -5 14.8344 -160.298
    endloop
  endfacet
  facet normal 0 -0.987687 0.156441
    outer loop
      vertex 3.84431e-014 14.8344 -160.298
      vertex -5 14.7877 -160.593
      vertex 3.84982e-014 14.7877 -160.593
    endloop
  endfacet
  facet normal 0 0.629306 -0.777157
    outer loop
      vertex -5 10.093 -157.882
      vertex 3.68636e-014 10.3248 -157.694
      vertex 3.68539e-014 10.093 -157.882
    endloop
  endfacet
  facet normal 0 0.629306 -0.777157
    outer loop
      vertex 3.68636e-014 10.3248 -157.694
      vertex -5 10.093 -157.882
      vertex -5 10.3248 -157.694
    endloop
  endfacet
  facet normal 0 0.454004 -0.891
    outer loop
      vertex -5 10.575 -157.532
      vertex 3.69121e-014 10.8408 -157.396
      vertex 3.68831e-014 10.575 -157.532
    endloop
  endfacet
  facet normal 0 0.454004 -0.891
    outer loop
      vertex 3.69121e-014 10.8408 -157.396
      vertex -5 10.575 -157.532
      vertex -5 10.8408 -157.396
    endloop
  endfacet
  facet normal 0 0.258818 -0.965926
    outer loop
      vertex -5 11.1193 -157.289
      vertex 3.6997e-014 11.4075 -157.212
      vertex 3.69502e-014 11.1193 -157.289
    endloop
  endfacet
  facet normal 0 0.258818 -0.965926
    outer loop
      vertex 3.6997e-014 11.4075 -157.212
      vertex -5 11.1193 -157.289
      vertex -5 11.4075 -157.212
    endloop
  endfacet
  facet normal 0 0.0523773 -0.998627
    outer loop
      vertex -5 11.7021 -157.166
      vertex 3.71148e-014 12 -157.15
      vertex 3.70521e-014 11.7021 -157.166
    endloop
  endfacet
  facet normal 0 0.0523773 -0.998627
    outer loop
      vertex 3.71148e-014 12 -157.15
      vertex -5 11.7021 -157.166
      vertex -5 12 -157.15
    endloop
  endfacet
  facet normal 0 0.987687 -0.156441
    outer loop
      vertex 3.70521e-014 9.16561 -159.702
      vertex -5 9.21228 -159.407
      vertex 3.6997e-014 9.21228 -159.407
    endloop
  endfacet
  facet normal 0 0.987687 -0.156441
    outer loop
      vertex -5 9.21228 -159.407
      vertex 3.70521e-014 9.16561 -159.702
      vertex -5 9.16561 -159.702
    endloop
  endfacet
  facet normal 0 0.777155 -0.629309
    outer loop
      vertex 3.68636e-014 9.6943 -158.325
      vertex -5 9.88204 -158.093
      vertex 3.68539e-014 9.88204 -158.093
    endloop
  endfacet
  facet normal 0 0.777155 -0.629309
    outer loop
      vertex -5 9.88204 -158.093
      vertex 3.68636e-014 9.6943 -158.325
      vertex -5 9.6943 -158.325
    endloop
  endfacet
  facet normal -0 0.707102 0.707112
    outer loop
      vertex -5 10.093 -162.118
      vertex 3.77007e-014 9.88204 -161.907
      vertex 3.77944e-014 10.093 -162.118
    endloop
  endfacet
  facet normal 0 0.707102 0.707112
    outer loop
      vertex 3.77007e-014 9.88204 -161.907
      vertex -5 10.093 -162.118
      vertex -5 9.88204 -161.907
    endloop
  endfacet
  facet normal -0 0.544643 0.838668
    outer loop
      vertex -5 10.575 -162.468
      vertex 3.78876e-014 10.3248 -162.306
      vertex 3.79792e-014 10.575 -162.468
    endloop
  endfacet
  facet normal 0 0.544643 0.838668
    outer loop
      vertex 3.78876e-014 10.3248 -162.306
      vertex -5 10.575 -162.468
      vertex -5 10.3248 -162.306
    endloop
  endfacet
  facet normal 0 0.838666 0.544646
    outer loop
      vertex 3.76076e-014 9.6943 -161.675
      vertex -5 9.53183 -161.425
      vertex 3.7516e-014 9.53183 -161.425
    endloop
  endfacet
  facet normal 0 0.838666 0.544646
    outer loop
      vertex -5 9.53183 -161.425
      vertex 3.76076e-014 9.6943 -161.675
      vertex -5 9.6943 -161.675
    endloop
  endfacet
  facet normal -0 0.258818 0.965926
    outer loop
      vertex -5 11.4075 -162.788
      vertex 3.81539e-014 11.1193 -162.711
      vertex 3.8235e-014 11.4075 -162.788
    endloop
  endfacet
  facet normal 0 0.258818 0.965926
    outer loop
      vertex 3.81539e-014 11.1193 -162.711
      vertex -5 11.4075 -162.788
      vertex -5 11.1193 -162.711
    endloop
  endfacet
  facet normal -0 0.454004 0.891
    outer loop
      vertex -5 10.8408 -162.604
      vertex 3.79792e-014 10.575 -162.468
      vertex 3.80683e-014 10.8408 -162.604
    endloop
  endfacet
  facet normal 0 0.454004 0.891
    outer loop
      vertex 3.79792e-014 10.575 -162.468
      vertex -5 10.8408 -162.604
      vertex -5 10.575 -162.468
    endloop
  endfacet
  facet normal 0 0.987687 0.156441
    outer loop
      vertex 3.72602e-014 9.21228 -160.593
      vertex -5 9.16561 -160.298
      vertex 3.71844e-014 9.16561 -160.298
    endloop
  endfacet
  facet normal 0 0.987687 0.156441
    outer loop
      vertex -5 9.16561 -160.298
      vertex 3.72602e-014 9.21228 -160.593
      vertex -5 9.21228 -160.593
    endloop
  endfacet
  facet normal -0 0.0523773 0.998627
    outer loop
      vertex -5 12 -162.85
      vertex 3.83108e-014 11.7021 -162.834
      vertex 3.83804e-014 12 -162.85
    endloop
  endfacet
  facet normal 0 0.0523773 0.998627
    outer loop
      vertex 3.83108e-014 11.7021 -162.834
      vertex -5 12 -162.85
      vertex -5 11.7021 -162.834
    endloop
  endfacet
  facet normal 0 0.544643 -0.838668
    outer loop
      vertex -5 10.3248 -157.694
      vertex 3.68831e-014 10.575 -157.532
      vertex 3.68636e-014 10.3248 -157.694
    endloop
  endfacet
  facet normal 0 0.544643 -0.838668
    outer loop
      vertex 3.68831e-014 10.575 -157.532
      vertex -5 10.3248 -157.694
      vertex -5 10.575 -157.532
    endloop
  endfacet
  facet normal 0 0.358358 -0.933584
    outer loop
      vertex -5 10.8408 -157.396
      vertex 3.69502e-014 11.1193 -157.289
      vertex 3.69121e-014 10.8408 -157.396
    endloop
  endfacet
  facet normal 0 0.358358 -0.933584
    outer loop
      vertex 3.69502e-014 11.1193 -157.289
      vertex -5 10.8408 -157.396
      vertex -5 11.1193 -157.289
    endloop
  endfacet
  facet normal 0 0.156417 -0.987691
    outer loop
      vertex -5 11.4075 -157.212
      vertex 3.70521e-014 11.7021 -157.166
      vertex 3.6997e-014 11.4075 -157.212
    endloop
  endfacet
  facet normal 0 0.156417 -0.987691
    outer loop
      vertex 3.70521e-014 11.7021 -157.166
      vertex -5 11.4075 -157.212
      vertex -5 11.7021 -157.166
    endloop
  endfacet
  facet normal 0 0.965925 -0.258821
    outer loop
      vertex 3.6997e-014 9.21228 -159.407
      vertex -5 9.28949 -159.119
      vertex 3.69502e-014 9.28949 -159.119
    endloop
  endfacet
  facet normal 0 0.965925 -0.258821
    outer loop
      vertex -5 9.28949 -159.119
      vertex 3.6997e-014 9.21228 -159.407
      vertex -5 9.21228 -159.407
    endloop
  endfacet
  facet normal 0 0.891012 -0.453981
    outer loop
      vertex 3.69121e-014 9.39639 -158.841
      vertex -5 9.53183 -158.575
      vertex 3.68831e-014 9.53183 -158.575
    endloop
  endfacet
  facet normal 0 0.891012 -0.453981
    outer loop
      vertex -5 9.53183 -158.575
      vertex 3.69121e-014 9.39639 -158.841
      vertex -5 9.39639 -158.841
    endloop
  endfacet
  facet normal 0 0.777155 0.629309
    outer loop
      vertex 3.77007e-014 9.88204 -161.907
      vertex -5 9.6943 -161.675
      vertex 3.76076e-014 9.6943 -161.675
    endloop
  endfacet
  facet normal 0 0.777155 0.629309
    outer loop
      vertex -5 9.6943 -161.675
      vertex 3.77007e-014 9.88204 -161.907
      vertex -5 9.88204 -161.907
    endloop
  endfacet
  facet normal -0 0.629306 0.777157
    outer loop
      vertex -5 10.3248 -162.306
      vertex 3.77944e-014 10.093 -162.118
      vertex 3.78876e-014 10.3248 -162.306
    endloop
  endfacet
  facet normal 0 0.629306 0.777157
    outer loop
      vertex 3.77944e-014 10.093 -162.118
      vertex -5 10.3248 -162.306
      vertex -5 10.093 -162.118
    endloop
  endfacet
  facet normal 0 0.891012 0.453981
    outer loop
      vertex 3.7516e-014 9.53183 -161.425
      vertex -5 9.39639 -161.159
      vertex 3.74269e-014 9.39639 -161.159
    endloop
  endfacet
  facet normal 0 0.891012 0.453981
    outer loop
      vertex -5 9.39639 -161.159
      vertex 3.7516e-014 9.53183 -161.425
      vertex -5 9.53183 -161.425
    endloop
  endfacet
  facet normal 0 0.838666 -0.544646
    outer loop
      vertex 3.68831e-014 9.53183 -158.575
      vertex -5 9.6943 -158.325
      vertex 3.68636e-014 9.6943 -158.325
    endloop
  endfacet
  facet normal 0 0.838666 -0.544646
    outer loop
      vertex -5 9.6943 -158.325
      vertex 3.68831e-014 9.53183 -158.575
      vertex -5 9.53183 -158.575
    endloop
  endfacet
  facet normal 0.99863 -0.0523328 0
    outer loop
      vertex -21.85 12 -175
      vertex -21.8344 12.2979 -180
      vertex -21.8344 12.2979 -175
    endloop
  endfacet
  facet normal 0.99863 -0.0523328 0
    outer loop
      vertex -21.8344 12.2979 -180
      vertex -21.85 12 -175
      vertex -21.85 12 -180
    endloop
  endfacet
  facet normal 0.987688 -0.156436 0
    outer loop
      vertex -21.8344 12.2979 -175
      vertex -21.7877 12.5925 -180
      vertex -21.7877 12.5925 -175
    endloop
  endfacet
  facet normal 0.987688 -0.156436 0
    outer loop
      vertex -21.7877 12.5925 -180
      vertex -21.8344 12.2979 -175
      vertex -21.8344 12.2979 -180
    endloop
  endfacet
  facet normal -0.0523358 -0.99863 0
    outer loop
      vertex -19 14.85 -180
      vertex -18.7021 14.8344 -175
      vertex -19 14.85 -175
    endloop
  endfacet
  facet normal -0.0523358 -0.99863 -0
    outer loop
      vertex -18.7021 14.8344 -175
      vertex -19 14.85 -180
      vertex -18.7021 14.8344 -180
    endloop
  endfacet
  facet normal 0.629322 -0.777145 0
    outer loop
      vertex -20.907 14.118 -180
      vertex -20.6752 14.3057 -175
      vertex -20.907 14.118 -175
    endloop
  endfacet
  facet normal 0.629322 -0.777145 0
    outer loop
      vertex -20.6752 14.3057 -175
      vertex -20.907 14.118 -180
      vertex -20.6752 14.3057 -180
    endloop
  endfacet
  facet normal -0.777145 -0.629322 0
    outer loop
      vertex -16.6943 13.6752 -180
      vertex -16.882 13.907 -175
      vertex -16.882 13.907 -180
    endloop
  endfacet
  facet normal -0.777145 -0.629322 0
    outer loop
      vertex -16.882 13.907 -175
      vertex -16.6943 13.6752 -180
      vertex -16.6943 13.6752 -175
    endloop
  endfacet
  facet normal 0.156436 0.987688 -0
    outer loop
      vertex -19.2979 9.16561 -180
      vertex -19.5925 9.21228 -175
      vertex -19.2979 9.16561 -175
    endloop
  endfacet
  facet normal 0.156436 0.987688 0
    outer loop
      vertex -19.5925 9.21228 -175
      vertex -19.2979 9.16561 -180
      vertex -19.5925 9.21228 -180
    endloop
  endfacet
  facet normal 0.891008 -0.453988 0
    outer loop
      vertex -21.6036 13.1592 -175
      vertex -21.4682 13.425 -180
      vertex -21.4682 13.425 -175
    endloop
  endfacet
  facet normal 0.891008 -0.453988 0
    outer loop
      vertex -21.4682 13.425 -180
      vertex -21.6036 13.1592 -175
      vertex -21.6036 13.1592 -180
    endloop
  endfacet
  facet normal 0.358366 -0.933581 0
    outer loop
      vertex -20.1592 14.6036 -180
      vertex -19.8807 14.7105 -175
      vertex -20.1592 14.6036 -175
    endloop
  endfacet
  facet normal 0.358366 -0.933581 0
    outer loop
      vertex -19.8807 14.7105 -175
      vertex -20.1592 14.6036 -180
      vertex -19.8807 14.7105 -180
    endloop
  endfacet
  facet normal 0.453991 -0.891006 0
    outer loop
      vertex -20.425 14.4682 -180
      vertex -20.1592 14.6036 -175
      vertex -20.425 14.4682 -175
    endloop
  endfacet
  facet normal 0.453991 -0.891006 0
    outer loop
      vertex -20.1592 14.6036 -175
      vertex -20.425 14.4682 -180
      vertex -20.1592 14.6036 -180
    endloop
  endfacet
  facet normal -0.93358 -0.35837 0
    outer loop
      vertex -16.2895 12.8807 -180
      vertex -16.3964 13.1592 -175
      vertex -16.3964 13.1592 -180
    endloop
  endfacet
  facet normal -0.93358 -0.35837 0
    outer loop
      vertex -16.3964 13.1592 -175
      vertex -16.2895 12.8807 -180
      vertex -16.2895 12.8807 -175
    endloop
  endfacet
  facet normal -0.838671 -0.544639 0
    outer loop
      vertex -16.5318 13.425 -180
      vertex -16.6943 13.6752 -175
      vertex -16.6943 13.6752 -180
    endloop
  endfacet
  facet normal -0.838671 -0.544639 0
    outer loop
      vertex -16.6943 13.6752 -175
      vertex -16.5318 13.425 -180
      vertex -16.5318 13.425 -175
    endloop
  endfacet
  facet normal -0.258818 -0.965926 0
    outer loop
      vertex -18.4075 14.7877 -180
      vertex -18.1193 14.7105 -175
      vertex -18.4075 14.7877 -175
    endloop
  endfacet
  facet normal -0.258818 -0.965926 -0
    outer loop
      vertex -18.1193 14.7105 -175
      vertex -18.4075 14.7877 -180
      vertex -18.1193 14.7105 -180
    endloop
  endfacet
  facet normal 0.838671 0.544639 0
    outer loop
      vertex -21.3057 10.3248 -175
      vertex -21.4682 10.575 -180
      vertex -21.4682 10.575 -175
    endloop
  endfacet
  facet normal 0.838671 0.544639 0
    outer loop
      vertex -21.4682 10.575 -180
      vertex -21.3057 10.3248 -175
      vertex -21.3057 10.3248 -180
    endloop
  endfacet
  facet normal 0.965926 0.258818 0
    outer loop
      vertex -21.7105 11.1193 -175
      vertex -21.7877 11.4075 -180
      vertex -21.7877 11.4075 -175
    endloop
  endfacet
  facet normal 0.965926 0.258818 0
    outer loop
      vertex -21.7877 11.4075 -180
      vertex -21.7105 11.1193 -175
      vertex -21.7105 11.1193 -180
    endloop
  endfacet
  facet normal -0.54464 0.83867 0
    outer loop
      vertex -17.3248 9.6943 -180
      vertex -17.575 9.53183 -175
      vertex -17.3248 9.6943 -175
    endloop
  endfacet
  facet normal -0.54464 0.83867 0
    outer loop
      vertex -17.575 9.53183 -175
      vertex -17.3248 9.6943 -180
      vertex -17.575 9.53183 -180
    endloop
  endfacet
  facet normal 0.965926 -0.258818 0
    outer loop
      vertex -21.7877 12.5925 -175
      vertex -21.7105 12.8807 -180
      vertex -21.7105 12.8807 -175
    endloop
  endfacet
  facet normal 0.965926 -0.258818 0
    outer loop
      vertex -21.7105 12.8807 -180
      vertex -21.7877 12.5925 -175
      vertex -21.7877 12.5925 -180
    endloop
  endfacet
  facet normal 0.777145 -0.629322 0
    outer loop
      vertex -21.3057 13.6752 -175
      vertex -21.118 13.907 -180
      vertex -21.118 13.907 -175
    endloop
  endfacet
  facet normal 0.777145 -0.629322 0
    outer loop
      vertex -21.118 13.907 -180
      vertex -21.3057 13.6752 -175
      vertex -21.3057 13.6752 -180
    endloop
  endfacet
  facet normal 0.838671 -0.544639 0
    outer loop
      vertex -21.4682 13.425 -175
      vertex -21.3057 13.6752 -180
      vertex -21.3057 13.6752 -175
    endloop
  endfacet
  facet normal 0.838671 -0.544639 0
    outer loop
      vertex -21.3057 13.6752 -180
      vertex -21.4682 13.425 -175
      vertex -21.4682 13.425 -180
    endloop
  endfacet
  facet normal 0.156436 -0.987688 0
    outer loop
      vertex -19.5925 14.7877 -180
      vertex -19.2979 14.8344 -175
      vertex -19.5925 14.7877 -175
    endloop
  endfacet
  facet normal 0.156436 -0.987688 0
    outer loop
      vertex -19.2979 14.8344 -175
      vertex -19.5925 14.7877 -180
      vertex -19.2979 14.8344 -180
    endloop
  endfacet
  facet normal 0.258818 -0.965926 0
    outer loop
      vertex -19.8807 14.7105 -180
      vertex -19.5925 14.7877 -175
      vertex -19.8807 14.7105 -175
    endloop
  endfacet
  facet normal 0.258818 -0.965926 0
    outer loop
      vertex -19.5925 14.7877 -175
      vertex -19.8807 14.7105 -180
      vertex -19.5925 14.7877 -180
    endloop
  endfacet
  facet normal 0.54464 -0.83867 0
    outer loop
      vertex -20.6752 14.3057 -180
      vertex -20.425 14.4682 -175
      vertex -20.6752 14.3057 -175
    endloop
  endfacet
  facet normal 0.54464 -0.83867 0
    outer loop
      vertex -20.425 14.4682 -175
      vertex -20.6752 14.3057 -180
      vertex -20.425 14.4682 -180
    endloop
  endfacet
  facet normal -0.987688 -0.156436 0
    outer loop
      vertex -16.1656 12.2979 -180
      vertex -16.2123 12.5925 -175
      vertex -16.2123 12.5925 -180
    endloop
  endfacet
  facet normal -0.987688 -0.156436 0
    outer loop
      vertex -16.2123 12.5925 -175
      vertex -16.1656 12.2979 -180
      vertex -16.1656 12.2979 -175
    endloop
  endfacet
  facet normal -0.891008 -0.453988 0
    outer loop
      vertex -16.3964 13.1592 -180
      vertex -16.5318 13.425 -175
      vertex -16.5318 13.425 -180
    endloop
  endfacet
  facet normal -0.891008 -0.453988 0
    outer loop
      vertex -16.5318 13.425 -175
      vertex -16.3964 13.1592 -180
      vertex -16.3964 13.1592 -175
    endloop
  endfacet
  facet normal -0.965926 -0.258818 0
    outer loop
      vertex -16.2123 12.5925 -180
      vertex -16.2895 12.8807 -175
      vertex -16.2895 12.8807 -180
    endloop
  endfacet
  facet normal -0.965926 -0.258818 0
    outer loop
      vertex -16.2895 12.8807 -175
      vertex -16.2123 12.5925 -180
      vertex -16.2123 12.5925 -175
    endloop
  endfacet
  facet normal -0.629322 -0.777145 0
    outer loop
      vertex -17.3248 14.3057 -180
      vertex -17.093 14.118 -175
      vertex -17.3248 14.3057 -175
    endloop
  endfacet
  facet normal -0.629322 -0.777145 -0
    outer loop
      vertex -17.093 14.118 -175
      vertex -17.3248 14.3057 -180
      vertex -17.093 14.118 -180
    endloop
  endfacet
  facet normal -0.54464 -0.83867 0
    outer loop
      vertex -17.575 14.4682 -180
      vertex -17.3248 14.3057 -175
      vertex -17.575 14.4682 -175
    endloop
  endfacet
  facet normal -0.54464 -0.83867 -0
    outer loop
      vertex -17.3248 14.3057 -175
      vertex -17.575 14.4682 -180
      vertex -17.3248 14.3057 -180
    endloop
  endfacet
  facet normal -0.156436 -0.987688 0
    outer loop
      vertex -18.7021 14.8344 -180
      vertex -18.4075 14.7877 -175
      vertex -18.7021 14.8344 -175
    endloop
  endfacet
  facet normal -0.156436 -0.987688 -0
    outer loop
      vertex -18.4075 14.7877 -175
      vertex -18.7021 14.8344 -180
      vertex -18.4075 14.7877 -180
    endloop
  endfacet
  facet normal 0.54464 0.83867 -0
    outer loop
      vertex -20.425 9.53183 -180
      vertex -20.6752 9.6943 -175
      vertex -20.425 9.53183 -175
    endloop
  endfacet
  facet normal 0.54464 0.83867 0
    outer loop
      vertex -20.6752 9.6943 -175
      vertex -20.425 9.53183 -180
      vertex -20.6752 9.6943 -180
    endloop
  endfacet
  facet normal 0.93358 0.35837 0
    outer loop
      vertex -21.6036 10.8408 -175
      vertex -21.7105 11.1193 -180
      vertex -21.7105 11.1193 -175
    endloop
  endfacet
  facet normal 0.93358 0.35837 0
    outer loop
      vertex -21.7105 11.1193 -180
      vertex -21.6036 10.8408 -175
      vertex -21.6036 10.8408 -180
    endloop
  endfacet
  facet normal -0.358366 0.933581 0
    outer loop
      vertex -17.8408 9.39639 -180
      vertex -18.1193 9.28949 -175
      vertex -17.8408 9.39639 -175
    endloop
  endfacet
  facet normal -0.358366 0.933581 0
    outer loop
      vertex -18.1193 9.28949 -175
      vertex -17.8408 9.39639 -180
      vertex -18.1193 9.28949 -180
    endloop
  endfacet
  facet normal -0.258818 0.965926 0
    outer loop
      vertex -18.1193 9.28949 -180
      vertex -18.4075 9.21228 -175
      vertex -18.1193 9.28949 -175
    endloop
  endfacet
  facet normal -0.258818 0.965926 0
    outer loop
      vertex -18.4075 9.21228 -175
      vertex -18.1193 9.28949 -180
      vertex -18.4075 9.21228 -180
    endloop
  endfacet
  facet normal -0.838671 0.544639 0
    outer loop
      vertex -16.6943 10.3248 -180
      vertex -16.5318 10.575 -175
      vertex -16.5318 10.575 -180
    endloop
  endfacet
  facet normal -0.838671 0.544639 0
    outer loop
      vertex -16.5318 10.575 -175
      vertex -16.6943 10.3248 -180
      vertex -16.6943 10.3248 -175
    endloop
  endfacet
  facet normal -0.987688 0.156436 0
    outer loop
      vertex -16.2123 11.4075 -180
      vertex -16.1656 11.7021 -175
      vertex -16.1656 11.7021 -180
    endloop
  endfacet
  facet normal -0.987688 0.156436 0
    outer loop
      vertex -16.1656 11.7021 -175
      vertex -16.2123 11.4075 -180
      vertex -16.2123 11.4075 -175
    endloop
  endfacet
  facet normal 0.93358 -0.35837 0
    outer loop
      vertex -21.7105 12.8807 -175
      vertex -21.6036 13.1592 -180
      vertex -21.6036 13.1592 -175
    endloop
  endfacet
  facet normal 0.93358 -0.35837 0
    outer loop
      vertex -21.6036 13.1592 -180
      vertex -21.7105 12.8807 -175
      vertex -21.7105 12.8807 -180
    endloop
  endfacet
  facet normal 0.707105 -0.707108 0
    outer loop
      vertex -21.118 13.907 -180
      vertex -20.907 14.118 -175
      vertex -21.118 13.907 -175
    endloop
  endfacet
  facet normal 0.707105 -0.707108 0
    outer loop
      vertex -20.907 14.118 -175
      vertex -21.118 13.907 -180
      vertex -20.907 14.118 -180
    endloop
  endfacet
  facet normal 0.0523362 -0.99863 0
    outer loop
      vertex -19.2979 14.8344 -180
      vertex -19 14.85 -175
      vertex -19.2979 14.8344 -175
    endloop
  endfacet
  facet normal 0.0523362 -0.99863 0
    outer loop
      vertex -19 14.85 -175
      vertex -19.2979 14.8344 -180
      vertex -19 14.85 -180
    endloop
  endfacet
  facet normal -0.99863 -0.0523328 0
    outer loop
      vertex -16.15 12 -180
      vertex -16.1656 12.2979 -175
      vertex -16.1656 12.2979 -180
    endloop
  endfacet
  facet normal -0.99863 -0.0523328 0
    outer loop
      vertex -16.1656 12.2979 -175
      vertex -16.15 12 -180
      vertex -16.15 12 -175
    endloop
  endfacet
  facet normal -0.99863 0.0523326 0
    outer loop
      vertex -16.1656 11.7021 -180
      vertex -16.15 12 -175
      vertex -16.15 12 -180
    endloop
  endfacet
  facet normal -0.99863 0.0523326 0
    outer loop
      vertex -16.15 12 -175
      vertex -16.1656 11.7021 -180
      vertex -16.1656 11.7021 -175
    endloop
  endfacet
  facet normal -0.707105 -0.707108 0
    outer loop
      vertex -17.093 14.118 -180
      vertex -16.882 13.907 -175
      vertex -17.093 14.118 -175
    endloop
  endfacet
  facet normal -0.707105 -0.707108 -0
    outer loop
      vertex -16.882 13.907 -175
      vertex -17.093 14.118 -180
      vertex -16.882 13.907 -180
    endloop
  endfacet
  facet normal -0.358366 -0.933581 0
    outer loop
      vertex -18.1193 14.7105 -180
      vertex -17.8408 14.6036 -175
      vertex -18.1193 14.7105 -175
    endloop
  endfacet
  facet normal -0.358366 -0.933581 -0
    outer loop
      vertex -17.8408 14.6036 -175
      vertex -18.1193 14.7105 -180
      vertex -17.8408 14.6036 -180
    endloop
  endfacet
  facet normal -0.453991 -0.891006 0
    outer loop
      vertex -17.8408 14.6036 -180
      vertex -17.575 14.4682 -175
      vertex -17.8408 14.6036 -175
    endloop
  endfacet
  facet normal -0.453991 -0.891006 -0
    outer loop
      vertex -17.575 14.4682 -175
      vertex -17.8408 14.6036 -180
      vertex -17.575 14.4682 -180
    endloop
  endfacet
  facet normal 0.258818 0.965926 -0
    outer loop
      vertex -19.5925 9.21228 -180
      vertex -19.8807 9.28949 -175
      vertex -19.5925 9.21228 -175
    endloop
  endfacet
  facet normal 0.258818 0.965926 0
    outer loop
      vertex -19.8807 9.28949 -175
      vertex -19.5925 9.21228 -180
      vertex -19.8807 9.28949 -180
    endloop
  endfacet
  facet normal 0.358366 0.933581 -0
    outer loop
      vertex -19.8807 9.28949 -180
      vertex -20.1592 9.39639 -175
      vertex -19.8807 9.28949 -175
    endloop
  endfacet
  facet normal 0.358366 0.933581 0
    outer loop
      vertex -20.1592 9.39639 -175
      vertex -19.8807 9.28949 -180
      vertex -20.1592 9.39639 -180
    endloop
  endfacet
  facet normal 0.453991 0.891006 -0
    outer loop
      vertex -20.1592 9.39639 -180
      vertex -20.425 9.53183 -175
      vertex -20.1592 9.39639 -175
    endloop
  endfacet
  facet normal 0.453991 0.891006 0
    outer loop
      vertex -20.425 9.53183 -175
      vertex -20.1592 9.39639 -180
      vertex -20.425 9.53183 -180
    endloop
  endfacet
  facet normal 0.707105 0.707108 -0
    outer loop
      vertex -20.907 9.88204 -180
      vertex -21.118 10.093 -175
      vertex -20.907 9.88204 -175
    endloop
  endfacet
  facet normal 0.707105 0.707108 0
    outer loop
      vertex -21.118 10.093 -175
      vertex -20.907 9.88204 -180
      vertex -21.118 10.093 -180
    endloop
  endfacet
  facet normal 0.777145 0.629322 0
    outer loop
      vertex -21.118 10.093 -175
      vertex -21.3057 10.3248 -180
      vertex -21.3057 10.3248 -175
    endloop
  endfacet
  facet normal 0.777145 0.629322 0
    outer loop
      vertex -21.3057 10.3248 -180
      vertex -21.118 10.093 -175
      vertex -21.118 10.093 -180
    endloop
  endfacet
  facet normal 0.629322 0.777145 -0
    outer loop
      vertex -20.6752 9.6943 -180
      vertex -20.907 9.88204 -175
      vertex -20.6752 9.6943 -175
    endloop
  endfacet
  facet normal 0.629322 0.777145 0
    outer loop
      vertex -20.907 9.88204 -175
      vertex -20.6752 9.6943 -180
      vertex -20.907 9.88204 -180
    endloop
  endfacet
  facet normal 0.891008 0.453988 0
    outer loop
      vertex -21.4682 10.575 -175
      vertex -21.6036 10.8408 -180
      vertex -21.6036 10.8408 -175
    endloop
  endfacet
  facet normal 0.891008 0.453988 0
    outer loop
      vertex -21.6036 10.8408 -180
      vertex -21.4682 10.575 -175
      vertex -21.4682 10.575 -180
    endloop
  endfacet
  facet normal 0.987688 0.156436 0
    outer loop
      vertex -21.7877 11.4075 -175
      vertex -21.8344 11.7021 -180
      vertex -21.8344 11.7021 -175
    endloop
  endfacet
  facet normal 0.987688 0.156436 0
    outer loop
      vertex -21.8344 11.7021 -180
      vertex -21.7877 11.4075 -175
      vertex -21.7877 11.4075 -180
    endloop
  endfacet
  facet normal 0.99863 0.0523326 0
    outer loop
      vertex -21.8344 11.7021 -175
      vertex -21.85 12 -180
      vertex -21.85 12 -175
    endloop
  endfacet
  facet normal 0.99863 0.0523326 0
    outer loop
      vertex -21.85 12 -180
      vertex -21.8344 11.7021 -175
      vertex -21.8344 11.7021 -180
    endloop
  endfacet
  facet normal -0.453991 0.891006 0
    outer loop
      vertex -17.575 9.53183 -180
      vertex -17.8408 9.39639 -175
      vertex -17.575 9.53183 -175
    endloop
  endfacet
  facet normal -0.453991 0.891006 0
    outer loop
      vertex -17.8408 9.39639 -175
      vertex -17.575 9.53183 -180
      vertex -17.8408 9.39639 -180
    endloop
  endfacet
  facet normal -0.156436 0.987688 0
    outer loop
      vertex -18.4075 9.21228 -180
      vertex -18.7021 9.16561 -175
      vertex -18.4075 9.21228 -175
    endloop
  endfacet
  facet normal -0.156436 0.987688 0
    outer loop
      vertex -18.7021 9.16561 -175
      vertex -18.4075 9.21228 -180
      vertex -18.7021 9.16561 -180
    endloop
  endfacet
  facet normal -0.0523358 0.99863 0
    outer loop
      vertex -18.7021 9.16561 -180
      vertex -19 9.15 -175
      vertex -18.7021 9.16561 -175
    endloop
  endfacet
  facet normal -0.0523358 0.99863 0
    outer loop
      vertex -19 9.15 -175
      vertex -18.7021 9.16561 -180
      vertex -19 9.15 -180
    endloop
  endfacet
  facet normal 0.0523362 0.99863 -0
    outer loop
      vertex -19 9.15 -180
      vertex -19.2979 9.16561 -175
      vertex -19 9.15 -175
    endloop
  endfacet
  facet normal 0.0523362 0.99863 0
    outer loop
      vertex -19.2979 9.16561 -175
      vertex -19 9.15 -180
      vertex -19.2979 9.16561 -180
    endloop
  endfacet
  facet normal -0.777145 0.629322 0
    outer loop
      vertex -16.882 10.093 -180
      vertex -16.6943 10.3248 -175
      vertex -16.6943 10.3248 -180
    endloop
  endfacet
  facet normal -0.777145 0.629322 0
    outer loop
      vertex -16.6943 10.3248 -175
      vertex -16.882 10.093 -180
      vertex -16.882 10.093 -175
    endloop
  endfacet
  facet normal -0.707105 0.707108 0
    outer loop
      vertex -16.882 10.093 -180
      vertex -17.093 9.88204 -175
      vertex -16.882 10.093 -175
    endloop
  endfacet
  facet normal -0.707105 0.707108 0
    outer loop
      vertex -17.093 9.88204 -175
      vertex -16.882 10.093 -180
      vertex -17.093 9.88204 -180
    endloop
  endfacet
  facet normal -0.629322 0.777145 0
    outer loop
      vertex -17.093 9.88204 -180
      vertex -17.3248 9.6943 -175
      vertex -17.093 9.88204 -175
    endloop
  endfacet
  facet normal -0.629322 0.777145 0
    outer loop
      vertex -17.3248 9.6943 -175
      vertex -17.093 9.88204 -180
      vertex -17.3248 9.6943 -180
    endloop
  endfacet
  facet normal -0.93358 0.35837 0
    outer loop
      vertex -16.3964 10.8408 -180
      vertex -16.2895 11.1193 -175
      vertex -16.2895 11.1193 -180
    endloop
  endfacet
  facet normal -0.93358 0.35837 0
    outer loop
      vertex -16.2895 11.1193 -175
      vertex -16.3964 10.8408 -180
      vertex -16.3964 10.8408 -175
    endloop
  endfacet
  facet normal -0.891008 0.453988 0
    outer loop
      vertex -16.5318 10.575 -180
      vertex -16.3964 10.8408 -175
      vertex -16.3964 10.8408 -180
    endloop
  endfacet
  facet normal -0.891008 0.453988 0
    outer loop
      vertex -16.3964 10.8408 -175
      vertex -16.5318 10.575 -180
      vertex -16.5318 10.575 -175
    endloop
  endfacet
  facet normal -0.965926 0.258818 0
    outer loop
      vertex -16.2895 11.1193 -180
      vertex -16.2123 11.4075 -175
      vertex -16.2123 11.4075 -180
    endloop
  endfacet
  facet normal -0.965926 0.258818 0
    outer loop
      vertex -16.2123 11.4075 -175
      vertex -16.2895 11.1193 -180
      vertex -16.2895 11.1193 -175
    endloop
  endfacet
  facet normal 1 -0 0
    outer loop
      vertex 2 9.5 -167
      vertex 2 14.5 -180
      vertex 2 14.5 -167
    endloop
  endfacet
  facet normal 1 0 0
    outer loop
      vertex 2 14.5 -180
      vertex 2 9.5 -167
      vertex 2 9.5 -180
    endloop
  endfacet
  facet normal 0 1 -0
    outer loop
      vertex 2 14.5 -180
      vertex 3.9857e-014 14.5 -167
      vertex 2 14.5 -167
    endloop
  endfacet
  facet normal 0 1 0
    outer loop
      vertex 3.9857e-014 14.5 -167
      vertex 2 14.5 -180
      vertex 4.27436e-014 14.5 -180
    endloop
  endfacet
  facet normal -0 0 1
    outer loop
      vertex 3.9857e-014 14.5 -167
      vertex 2 9.5 -167
      vertex 2 14.5 -167
    endloop
  endfacet
  facet normal 0 0 1
    outer loop
      vertex 2 9.5 -167
      vertex 3.9857e-014 14.5 -167
      vertex 3.87468e-014 9.5 -167
    endloop
  endfacet
  facet normal 0 -1 0
    outer loop
      vertex 4.16334e-014 9.5 -180
      vertex 2 9.5 -167
      vertex 3.87468e-014 9.5 -167
    endloop
  endfacet
  facet normal 0 -1 -0
    outer loop
      vertex 2 9.5 -167
      vertex 4.16334e-014 9.5 -180
      vertex 2 9.5 -180
    endloop
  endfacet
endsolid OpenSCAD_Model
