<?xml version="1.0" standalone="no"?>
<!DOCTYPE svg PUBLIC "-//W3C//DTD SVG 1.1//EN" "http://www.w3.org/Graphics/SVG/1.1/DTD/svg11.dtd">
<svg width="411" height="61" viewBox="0 -61 411 61" xmlns="http://www.w3.org/2000/svg" version="1.1">
<title>OpenSCAD Model</title>
<path d="
M 410.3,-60.5 L 0,-60.5 L 0,-0 L 410.3,-0 z
M 161.807,-44.1601 L 161.428,-44.2405 L 161.075,-44.3978 L 160.762,-44.6252 L 160.503,-44.9126 L 160.31,-45.2475
 L 160.19,-45.6154 L 160.15,-46 L 160.19,-46.3846 L 160.31,-46.7525 L 160.503,-47.0874 L 160.762,-47.3748
 L 161.075,-47.6021 L 161.428,-47.7594 L 161.807,-47.8399 L 162.193,-47.8399 L 162.572,-47.7594 L 162.925,-47.6021
 L 163.238,-47.3748 L 163.497,-47.0874 L 163.69,-46.7525 L 163.81,-46.3846 L 163.85,-46 L 163.81,-45.6154
 L 163.69,-45.2475 L 163.497,-44.9126 L 163.238,-44.6252 L 162.925,-44.3978 L 162.572,-44.2405 L 162.193,-44.1601
 z
M 61.8066,-44.1601 L 61.4283,-44.2405 L 61.075,-44.3978 L 60.7621,-44.6252 L 60.5033,-44.9126 L 60.3099,-45.2475
 L 60.1904,-45.6154 L 60.15,-46 L 60.1904,-46.3846 L 60.3099,-46.7525 L 60.5033,-47.0874 L 60.7621,-47.3748
 L 61.075,-47.6021 L 61.4283,-47.7594 L 61.8066,-47.8399 L 62.1934,-47.8399 L 62.5717,-47.7594 L 62.925,-47.6021
 L 63.2379,-47.3748 L 63.4967,-47.0874 L 63.69,-46.7525 L 63.8096,-46.3846 L 63.85,-46 L 63.8096,-45.6154
 L 63.69,-45.2475 L 63.4967,-44.9126 L 63.2379,-44.6252 L 62.925,-44.3978 L 62.5717,-44.2405 L 62.1934,-44.1601
 z
M 231.807,-44.1601 L 231.428,-44.2405 L 231.075,-44.3978 L 230.762,-44.6252 L 230.503,-44.9126 L 230.31,-45.2475
 L 230.19,-45.6154 L 230.15,-46 L 230.19,-46.3846 L 230.31,-46.7525 L 230.503,-47.0874 L 230.762,-47.3748
 L 231.075,-47.6021 L 231.428,-47.7594 L 231.807,-47.8399 L 232.193,-47.8399 L 232.572,-47.7594 L 232.925,-47.6021
 L 233.238,-47.3748 L 233.497,-47.0874 L 233.69,-46.7525 L 233.81,-46.3846 L 233.85,-46 L 233.81,-45.6154
 L 233.69,-45.2475 L 233.497,-44.9126 L 233.238,-44.6252 L 232.925,-44.3978 L 232.572,-44.2405 L 232.193,-44.1601
 z
M 281.807,-44.1601 L 281.428,-44.2405 L 281.075,-44.3978 L 280.762,-44.6252 L 280.503,-44.9126 L 280.31,-45.2475
 L 280.19,-45.6154 L 280.15,-46 L 280.19,-46.3846 L 280.31,-46.7525 L 280.503,-47.0874 L 280.762,-47.3748
 L 281.075,-47.6021 L 281.428,-47.7594 L 281.807,-47.8399 L 282.193,-47.8399 L 282.572,-47.7594 L 282.925,-47.6021
 L 283.238,-47.3748 L 283.497,-47.0874 L 283.69,-46.7525 L 283.81,-46.3846 L 283.85,-46 L 283.81,-45.6154
 L 283.69,-45.2475 L 283.497,-44.9126 L 283.238,-44.6252 L 282.925,-44.3978 L 282.572,-44.2405 L 282.193,-44.1601
 z
M 111.807,-44.1601 L 111.428,-44.2405 L 111.075,-44.3978 L 110.762,-44.6252 L 110.503,-44.9126 L 110.31,-45.2475
 L 110.19,-45.6154 L 110.15,-46 L 110.19,-46.3846 L 110.31,-46.7525 L 110.503,-47.0874 L 110.762,-47.3748
 L 111.075,-47.6021 L 111.428,-47.7594 L 111.807,-47.8399 L 112.193,-47.8399 L 112.572,-47.7594 L 112.925,-47.6021
 L 113.238,-47.3748 L 113.497,-47.0874 L 113.69,-46.7525 L 113.81,-46.3846 L 113.85,-46 L 113.81,-45.6154
 L 113.69,-45.2475 L 113.497,-44.9126 L 113.238,-44.6252 L 112.925,-44.3978 L 112.572,-44.2405 L 112.193,-44.1601
 z
M 331.807,-44.1601 L 331.428,-44.2405 L 331.075,-44.3978 L 330.762,-44.6252 L 330.503,-44.9126 L 330.31,-45.2475
 L 330.19,-45.6154 L 330.15,-46 L 330.19,-46.3846 L 330.31,-46.7525 L 330.503,-47.0874 L 330.762,-47.3748
 L 331.075,-47.6021 L 331.428,-47.7594 L 331.807,-47.8399 L 332.193,-47.8399 L 332.572,-47.7594 L 332.925,-47.6021
 L 333.238,-47.3748 L 333.497,-47.0874 L 333.69,-46.7525 L 333.81,-46.3846 L 333.85,-46 L 333.81,-45.6154
 L 333.69,-45.2475 L 333.497,-44.9126 L 333.238,-44.6252 L 332.925,-44.3978 L 332.572,-44.2405 L 332.193,-44.1601
 z
M 235,-17 L 235,-40 L 331,-40 L 331,-17 z
M 65,-17 L 65,-40 L 161,-40 L 161,-17 z
M 331.807,-9.16013 L 331.428,-9.24054 L 331.075,-9.39784 L 330.762,-9.62517 L 330.503,-9.91258 L 330.31,-10.2475
 L 330.19,-10.6154 L 330.15,-11 L 330.19,-11.3846 L 330.31,-11.7525 L 330.503,-12.0874 L 330.762,-12.3748
 L 331.075,-12.6021 L 331.428,-12.7594 L 331.807,-12.8399 L 332.193,-12.8399 L 332.572,-12.7594 L 332.925,-12.6021
 L 333.238,-12.3748 L 333.497,-12.0874 L 333.69,-11.7525 L 333.81,-11.3846 L 333.85,-11 L 333.81,-10.6154
 L 333.69,-10.2475 L 333.497,-9.91258 L 333.238,-9.62517 L 332.925,-9.39784 L 332.572,-9.24054 L 332.193,-9.16013
 z
M 231.807,-9.16013 L 231.428,-9.24054 L 231.075,-9.39784 L 230.762,-9.62517 L 230.503,-9.91258 L 230.31,-10.2475
 L 230.19,-10.6154 L 230.15,-11 L 230.19,-11.3846 L 230.31,-11.7525 L 230.503,-12.0874 L 230.762,-12.3748
 L 231.075,-12.6021 L 231.428,-12.7594 L 231.807,-12.8399 L 232.193,-12.8399 L 232.572,-12.7594 L 232.925,-12.6021
 L 233.238,-12.3748 L 233.497,-12.0874 L 233.69,-11.7525 L 233.81,-11.3846 L 233.85,-11 L 233.81,-10.6154
 L 233.69,-10.2475 L 233.497,-9.91258 L 233.238,-9.62517 L 232.925,-9.39784 L 232.572,-9.24054 L 232.193,-9.16013
 z
M 61.8066,-9.16013 L 61.4283,-9.24054 L 61.075,-9.39784 L 60.7621,-9.62517 L 60.5033,-9.91258 L 60.3099,-10.2475
 L 60.1904,-10.6154 L 60.15,-11 L 60.1904,-11.3846 L 60.3099,-11.7525 L 60.5033,-12.0874 L 60.7621,-12.3748
 L 61.075,-12.6021 L 61.4283,-12.7594 L 61.8066,-12.8399 L 62.1934,-12.8399 L 62.5717,-12.7594 L 62.925,-12.6021
 L 63.2379,-12.3748 L 63.4967,-12.0874 L 63.69,-11.7525 L 63.8096,-11.3846 L 63.85,-11 L 63.8096,-10.6154
 L 63.69,-10.2475 L 63.4967,-9.91258 L 63.2379,-9.62517 L 62.925,-9.39784 L 62.5717,-9.24054 L 62.1934,-9.16013
 z
M 161.807,-9.16013 L 161.428,-9.24054 L 161.075,-9.39784 L 160.762,-9.62517 L 160.503,-9.91258 L 160.31,-10.2475
 L 160.19,-10.6154 L 160.15,-11 L 160.19,-11.3846 L 160.31,-11.7525 L 160.503,-12.0874 L 160.762,-12.3748
 L 161.075,-12.6021 L 161.428,-12.7594 L 161.807,-12.8399 L 162.193,-12.8399 L 162.572,-12.7594 L 162.925,-12.6021
 L 163.238,-12.3748 L 163.497,-12.0874 L 163.69,-11.7525 L 163.81,-11.3846 L 163.85,-11 L 163.81,-10.6154
 L 163.69,-10.2475 L 163.497,-9.91258 L 163.238,-9.62517 L 162.925,-9.39784 L 162.572,-9.24054 L 162.193,-9.16013
 z
M 281.807,-9.16013 L 281.428,-9.24054 L 281.075,-9.39784 L 280.762,-9.62517 L 280.503,-9.91258 L 280.31,-10.2475
 L 280.19,-10.6154 L 280.15,-11 L 280.19,-11.3846 L 280.31,-11.7525 L 280.503,-12.0874 L 280.762,-12.3748
 L 281.075,-12.6021 L 281.428,-12.7594 L 281.807,-12.8399 L 282.193,-12.8399 L 282.572,-12.7594 L 282.925,-12.6021
 L 283.238,-12.3748 L 283.497,-12.0874 L 283.69,-11.7525 L 283.81,-11.3846 L 283.85,-11 L 283.81,-10.6154
 L 283.69,-10.2475 L 283.497,-9.91258 L 283.238,-9.62517 L 282.925,-9.39784 L 282.572,-9.24054 L 282.193,-9.16013
 z
M 111.807,-9.16013 L 111.428,-9.24054 L 111.075,-9.39784 L 110.762,-9.62517 L 110.503,-9.91258 L 110.31,-10.2475
 L 110.19,-10.6154 L 110.15,-11 L 110.19,-11.3846 L 110.31,-11.7525 L 110.503,-12.0874 L 110.762,-12.3748
 L 111.075,-12.6021 L 111.428,-12.7594 L 111.807,-12.8399 L 112.193,-12.8399 L 112.572,-12.7594 L 112.925,-12.6021
 L 113.238,-12.3748 L 113.497,-12.0874 L 113.69,-11.7525 L 113.81,-11.3846 L 113.85,-11 L 113.81,-10.6154
 L 113.69,-10.2475 L 113.497,-9.91258 L 113.238,-9.62517 L 112.925,-9.39784 L 112.572,-9.24054 L 112.193,-9.16013
 z
" stroke="black" fill="lightgray" stroke-width="0.5"/></svg>
