<?xml version="1.0" standalone="no"?>
<!DOCTYPE svg PUBLIC "-//W3C//DTD SVG 1.1//EN" "http://www.w3.org/Graphics/SVG/1.1/DTD/svg11.dtd">
<svg width="411" height="61" viewBox="0 -61 411 61" xmlns="http://www.w3.org/2000/svg" version="1.1">
<title>OpenSCAD Model</title>
<path d="
M 410.3,-60.5 L 0,-60.5 L 0,-0 L 410.3,-0 z
M 64.9785,-45.0435 L 64.5491,-45.1348 L 64.148,-45.3133 L 63.7928,-45.5714 L 63.4991,-45.8976 L 63.2796,-46.2778
 L 63.1439,-46.6954 L 63.098,-47.132 L 63.1439,-47.5686 L 63.2796,-47.9861 L 63.4991,-48.3663 L 63.7928,-48.6926
 L 64.148,-48.9507 L 64.5491,-49.1292 L 64.9785,-49.2205 L 65.4175,-49.2205 L 65.8469,-49.1292 L 66.248,-48.9507
 L 66.6032,-48.6926 L 66.8969,-48.3663 L 67.1164,-47.9861 L 67.2521,-47.5686 L 67.298,-47.132 L 67.2521,-46.6954
 L 67.1164,-46.2778 L 66.8969,-45.8976 L 66.6032,-45.5714 L 66.248,-45.3133 L 65.8469,-45.1348 L 65.4175,-45.0435
 z
M 111.807,-44.1601 L 111.428,-44.2405 L 111.075,-44.3978 L 110.762,-44.6252 L 110.503,-44.9126 L 110.31,-45.2475
 L 110.19,-45.6154 L 110.15,-46 L 110.19,-46.3846 L 110.31,-46.7525 L 110.503,-47.0874 L 110.762,-47.3748
 L 111.075,-47.6021 L 111.428,-47.7594 L 111.807,-47.8399 L 112.193,-47.8399 L 112.572,-47.7594 L 112.925,-47.6021
 L 113.238,-47.3748 L 113.497,-47.0874 L 113.69,-46.7525 L 113.81,-46.3846 L 113.85,-46 L 113.81,-45.6154
 L 113.69,-45.2475 L 113.497,-44.9126 L 113.238,-44.6252 L 112.925,-44.3978 L 112.572,-44.2405 L 112.193,-44.1601
 z
M 331.807,-44.1601 L 331.428,-44.2405 L 331.075,-44.3978 L 330.762,-44.6252 L 330.503,-44.9126 L 330.31,-45.2475
 L 330.19,-45.6154 L 330.15,-46 L 330.19,-46.3846 L 330.31,-46.7525 L 330.503,-47.0874 L 330.762,-47.3748
 L 331.075,-47.6021 L 331.428,-47.7594 L 331.807,-47.8399 L 332.193,-47.8399 L 332.572,-47.7594 L 332.925,-47.6021
 L 333.238,-47.3748 L 333.497,-47.0874 L 333.69,-46.7525 L 333.81,-46.3846 L 333.85,-46 L 333.81,-45.6154
 L 333.69,-45.2475 L 333.497,-44.9126 L 333.238,-44.6252 L 332.925,-44.3978 L 332.572,-44.2405 L 332.193,-44.1601
 z
M 231.807,-44.1601 L 231.428,-44.2405 L 231.075,-44.3978 L 230.762,-44.6252 L 230.503,-44.9126 L 230.31,-45.2475
 L 230.19,-45.6154 L 230.15,-46 L 230.19,-46.3846 L 230.31,-46.7525 L 230.503,-47.0874 L 230.762,-47.3748
 L 231.075,-47.6021 L 231.428,-47.7594 L 231.807,-47.8399 L 232.193,-47.8399 L 232.572,-47.7594 L 232.925,-47.6021
 L 233.238,-47.3748 L 233.497,-47.0874 L 233.69,-46.7525 L 233.81,-46.3846 L 233.85,-46 L 233.81,-45.6154
 L 233.69,-45.2475 L 233.497,-44.9126 L 233.238,-44.6252 L 232.925,-44.3978 L 232.572,-44.2405 L 232.193,-44.1601
 z
M 281.807,-44.1601 L 281.428,-44.2405 L 281.075,-44.3978 L 280.762,-44.6252 L 280.503,-44.9126 L 280.31,-45.2475
 L 280.19,-45.6154 L 280.15,-46 L 280.19,-46.3846 L 280.31,-46.7525 L 280.503,-47.0874 L 280.762,-47.3748
 L 281.075,-47.6021 L 281.428,-47.7594 L 281.807,-47.8399 L 282.193,-47.8399 L 282.572,-47.7594 L 282.925,-47.6021
 L 283.238,-47.3748 L 283.497,-47.0874 L 283.69,-46.7525 L 283.81,-46.3846 L 283.85,-46 L 283.81,-45.6154
 L 283.69,-45.2475 L 283.497,-44.9126 L 283.238,-44.6252 L 282.925,-44.3978 L 282.572,-44.2405 L 282.193,-44.1601
 z
M 156.434,-42.4115 L 156.005,-42.5028 L 155.604,-42.6813 L 155.249,-42.9394 L 154.955,-43.2656 L 154.736,-43.6458
 L 154.6,-44.0634 L 154.554,-44.5 L 154.6,-44.9366 L 154.736,-45.3541 L 154.955,-45.7343 L 155.249,-46.0606
 L 155.604,-46.3186 L 156.005,-46.4972 L 156.434,-46.5885 L 156.874,-46.5885 L 157.303,-46.4972 L 157.704,-46.3186
 L 158.059,-46.0606 L 158.353,-45.7343 L 158.572,-45.3541 L 158.708,-44.9366 L 158.754,-44.5 L 158.708,-44.0634
 L 158.572,-43.6458 L 158.353,-43.2656 L 158.059,-42.9394 L 157.704,-42.6813 L 157.303,-42.5028 L 156.874,-42.4115
 z
M 235,-17 L 235,-40 L 331,-40 L 331,-17 z
M 65,-15 L 65,-39 L 161,-39 L 161,-15 z
M 67.5355,-9.5715 L 67.1061,-9.66278 L 66.705,-9.84134 L 66.3498,-10.0994 L 66.0561,-10.4256 L 65.8365,-10.8058
 L 65.7009,-11.2234 L 65.655,-11.66 L 65.7009,-12.0966 L 65.8365,-12.5141 L 66.0561,-12.8943 L 66.3498,-13.2206
 L 66.705,-13.4787 L 67.1061,-13.6572 L 67.5355,-13.7485 L 67.9745,-13.7485 L 68.4039,-13.6572 L 68.805,-13.4787
 L 69.1602,-13.2206 L 69.4539,-12.8943 L 69.6734,-12.5141 L 69.8091,-12.0966 L 69.855,-11.66 L 69.8091,-11.2234
 L 69.6734,-10.8058 L 69.4539,-10.4256 L 69.1602,-10.0994 L 68.805,-9.84134 L 68.4039,-9.66278 L 67.9745,-9.5715
 z
M 331.807,-9.16013 L 331.428,-9.24054 L 331.075,-9.39784 L 330.762,-9.62517 L 330.503,-9.91258 L 330.31,-10.2475
 L 330.19,-10.6154 L 330.15,-11 L 330.19,-11.3846 L 330.31,-11.7525 L 330.503,-12.0874 L 330.762,-12.3748
 L 331.075,-12.6021 L 331.428,-12.7594 L 331.807,-12.8399 L 332.193,-12.8399 L 332.572,-12.7594 L 332.925,-12.6021
 L 333.238,-12.3748 L 333.497,-12.0874 L 333.69,-11.7525 L 333.81,-11.3846 L 333.85,-11 L 333.81,-10.6154
 L 333.69,-10.2475 L 333.497,-9.91258 L 333.238,-9.62517 L 332.925,-9.39784 L 332.572,-9.24054 L 332.193,-9.16013
 z
M 163.807,-9.16013 L 163.428,-9.24054 L 163.075,-9.39784 L 162.762,-9.62517 L 162.503,-9.91258 L 162.31,-10.2475
 L 162.19,-10.6154 L 162.15,-11 L 162.19,-11.3846 L 162.31,-11.7525 L 162.503,-12.0874 L 162.762,-12.3748
 L 163.075,-12.6021 L 163.428,-12.7594 L 163.807,-12.8399 L 164.193,-12.8399 L 164.572,-12.7594 L 164.925,-12.6021
 L 165.238,-12.3748 L 165.497,-12.0874 L 165.69,-11.7525 L 165.81,-11.3846 L 165.85,-11 L 165.81,-10.6154
 L 165.69,-10.2475 L 165.497,-9.91258 L 165.238,-9.62517 L 164.925,-9.39784 L 164.572,-9.24054 L 164.193,-9.16013
 z
M 231.807,-9.16013 L 231.428,-9.24054 L 231.075,-9.39784 L 230.762,-9.62517 L 230.503,-9.91258 L 230.31,-10.2475
 L 230.19,-10.6154 L 230.15,-11 L 230.19,-11.3846 L 230.31,-11.7525 L 230.503,-12.0874 L 230.762,-12.3748
 L 231.075,-12.6021 L 231.428,-12.7594 L 231.807,-12.8399 L 232.193,-12.8399 L 232.572,-12.7594 L 232.925,-12.6021
 L 233.238,-12.3748 L 233.497,-12.0874 L 233.69,-11.7525 L 233.81,-11.3846 L 233.85,-11 L 233.81,-10.6154
 L 233.69,-10.2475 L 233.497,-9.91258 L 233.238,-9.62517 L 232.925,-9.39784 L 232.572,-9.24054 L 232.193,-9.16013
 z
M 111.807,-9.16013 L 111.428,-9.24054 L 111.075,-9.39784 L 110.762,-9.62517 L 110.503,-9.91258 L 110.31,-10.2475
 L 110.19,-10.6154 L 110.15,-11 L 110.19,-11.3846 L 110.31,-11.7525 L 110.503,-12.0874 L 110.762,-12.3748
 L 111.075,-12.6021 L 111.428,-12.7594 L 111.807,-12.8399 L 112.193,-12.8399 L 112.572,-12.7594 L 112.925,-12.6021
 L 113.238,-12.3748 L 113.497,-12.0874 L 113.69,-11.7525 L 113.81,-11.3846 L 113.85,-11 L 113.81,-10.6154
 L 113.69,-10.2475 L 113.497,-9.91258 L 113.238,-9.62517 L 112.925,-9.39784 L 112.572,-9.24054 L 112.193,-9.16013
 z
M 281.807,-9.16013 L 281.428,-9.24054 L 281.075,-9.39784 L 280.762,-9.62517 L 280.503,-9.91258 L 280.31,-10.2475
 L 280.19,-10.6154 L 280.15,-11 L 280.19,-11.3846 L 280.31,-11.7525 L 280.503,-12.0874 L 280.762,-12.3748
 L 281.075,-12.6021 L 281.428,-12.7594 L 281.807,-12.8399 L 282.193,-12.8399 L 282.572,-12.7594 L 282.925,-12.6021
 L 283.238,-12.3748 L 283.497,-12.0874 L 283.69,-11.7525 L 283.81,-11.3846 L 283.85,-11 L 283.81,-10.6154
 L 283.69,-10.2475 L 283.497,-9.91258 L 283.238,-9.62517 L 282.925,-9.39784 L 282.572,-9.24054 L 282.193,-9.16013
 z
" stroke="black" fill="lightgray" stroke-width="0.5"/></svg>
