<?xml version="1.0" standalone="no"?>
<!DOCTYPE svg PUBLIC "-//W3C//DTD SVG 1.1//EN" "http://www.w3.org/Graphics/SVG/1.1/DTD/svg11.dtd">
<svg width="412" height="371" viewBox="0 -371 412 371" xmlns="http://www.w3.org/2000/svg" version="1.1">
<title>OpenSCAD Model</title>
<path d="
M 370,-5 L 370.656,-11.2374 L 372.594,-17.2021 L 375.729,-22.6335 L 379.926,-27.2943 L 385,-30.9808
 L 390.729,-33.5317 L 396.864,-34.8356 L 403.136,-34.8356 L 409.271,-33.5317 L 411.103,-32.7158 L 411.103,-360.27
 L 401.103,-360.27 L 401.103,-370.27 L 10,-370.27 L 10,-360.27 L 0,-360.27 L 0,-10
 L 10,-10 L 10,-0 L 370.526,-0 z
M 389.216,-347.541 L 387.682,-347.867 L 386.25,-348.505 L 384.982,-349.426 L 383.932,-350.592 L 383.148,-351.949
 L 382.664,-353.441 L 382.5,-355 L 382.664,-356.559 L 383.148,-358.051 L 383.932,-359.408 L 384.982,-360.574
 L 386.25,-361.495 L 387.682,-362.133 L 389.216,-362.459 L 390.784,-362.459 L 392.318,-362.133 L 393.75,-361.495
 L 395.018,-360.574 L 396.068,-359.408 L 396.852,-358.051 L 397.336,-356.559 L 397.5,-355 L 397.336,-353.441
 L 396.852,-351.949 L 396.068,-350.592 L 395.018,-349.426 L 393.75,-348.505 L 392.318,-347.867 L 390.784,-347.541
 z
M 19.216,-347.541 L 17.6824,-347.867 L 16.25,-348.505 L 14.9815,-349.426 L 13.9324,-350.592 L 13.1484,-351.949
 L 12.6639,-353.441 L 12.5,-355 L 12.6639,-356.559 L 13.1484,-358.051 L 13.9324,-359.408 L 14.9815,-360.574
 L 16.25,-361.495 L 17.6824,-362.133 L 19.216,-362.459 L 20.784,-362.459 L 22.3176,-362.133 L 23.75,-361.495
 L 25.0185,-360.574 L 26.0676,-359.408 L 26.8516,-358.051 L 27.3361,-356.559 L 27.5,-355 L 27.3361,-353.441
 L 26.8516,-351.949 L 26.0676,-350.592 L 25.0185,-349.426 L 23.75,-348.505 L 22.3176,-347.867 L 20.784,-347.541
 z
M 108.809,-329.629 L 108.531,-329.719 L 108.277,-329.865 L 108.06,-330.061 L 107.888,-330.298 L 107.769,-330.565
 L 107.708,-330.852 L 107.708,-331.144 L 107.769,-331.431 L 107.888,-331.698 L 108.06,-331.935 L 108.277,-332.131
 L 108.531,-332.277 L 108.809,-332.367 L 109.1,-332.398 L 109.391,-332.367 L 109.669,-332.277 L 109.923,-332.131
 L 110.14,-331.935 L 110.312,-331.698 L 110.431,-331.431 L 110.492,-331.144 L 110.492,-330.852 L 110.431,-330.565
 L 110.312,-330.298 L 110.14,-330.061 L 109.923,-329.865 L 109.669,-329.719 L 109.391,-329.629 L 109.1,-329.598
 z
M 337.809,-317.931 L 337.531,-318.021 L 337.277,-318.167 L 337.06,-318.363 L 336.888,-318.6 L 336.769,-318.867
 L 336.708,-319.154 L 336.708,-319.446 L 336.769,-319.733 L 336.888,-320 L 337.06,-320.237 L 337.277,-320.433
 L 337.531,-320.579 L 337.809,-320.669 L 338.1,-320.7 L 338.391,-320.669 L 338.669,-320.579 L 338.923,-320.433
 L 339.14,-320.237 L 339.312,-320 L 339.431,-319.733 L 339.492,-319.446 L 339.492,-319.154 L 339.431,-318.867
 L 339.312,-318.6 L 339.14,-318.363 L 338.923,-318.167 L 338.669,-318.021 L 338.391,-317.931 L 338.1,-317.9
 z
M 289.809,-317.931 L 289.531,-318.021 L 289.277,-318.167 L 289.06,-318.363 L 288.888,-318.6 L 288.769,-318.867
 L 288.708,-319.154 L 288.708,-319.446 L 288.769,-319.733 L 288.888,-320 L 289.06,-320.237 L 289.277,-320.433
 L 289.531,-320.579 L 289.809,-320.669 L 290.1,-320.7 L 290.391,-320.669 L 290.669,-320.579 L 290.923,-320.433
 L 291.14,-320.237 L 291.312,-320 L 291.431,-319.733 L 291.492,-319.446 L 291.492,-319.154 L 291.431,-318.867
 L 291.312,-318.6 L 291.14,-318.363 L 290.923,-318.167 L 290.669,-318.021 L 290.391,-317.931 L 290.1,-317.9
 z
M 62.8066,-315.16 L 62.4283,-315.241 L 62.075,-315.398 L 61.7621,-315.625 L 61.5033,-315.913 L 61.3099,-316.248
 L 61.1904,-316.615 L 61.15,-317 L 61.1904,-317.385 L 61.3099,-317.752 L 61.5033,-318.087 L 61.7621,-318.375
 L 62.075,-318.602 L 62.4283,-318.759 L 62.8066,-318.84 L 63.1934,-318.84 L 63.5717,-318.759 L 63.925,-318.602
 L 64.2379,-318.375 L 64.4967,-318.087 L 64.69,-317.752 L 64.8096,-317.385 L 64.85,-317 L 64.8096,-316.615
 L 64.69,-316.248 L 64.4967,-315.913 L 64.2379,-315.625 L 63.925,-315.398 L 63.5717,-315.241 L 63.1934,-315.16
 z
M 152.807,-315.16 L 152.428,-315.241 L 152.075,-315.398 L 151.762,-315.625 L 151.503,-315.913 L 151.31,-316.248
 L 151.19,-316.615 L 151.15,-317 L 151.19,-317.385 L 151.31,-317.752 L 151.503,-318.087 L 151.762,-318.375
 L 152.075,-318.602 L 152.428,-318.759 L 152.807,-318.84 L 153.193,-318.84 L 153.572,-318.759 L 153.925,-318.602
 L 154.238,-318.375 L 154.497,-318.087 L 154.69,-317.752 L 154.81,-317.385 L 154.85,-317 L 154.81,-316.615
 L 154.69,-316.248 L 154.497,-315.913 L 154.238,-315.625 L 153.925,-315.398 L 153.572,-315.241 L 153.193,-315.16
 z
M 242.807,-315.16 L 242.428,-315.241 L 242.075,-315.398 L 241.762,-315.625 L 241.503,-315.913 L 241.31,-316.248
 L 241.19,-316.615 L 241.15,-317 L 241.19,-317.385 L 241.31,-317.752 L 241.503,-318.087 L 241.762,-318.375
 L 242.075,-318.602 L 242.428,-318.759 L 242.807,-318.84 L 243.193,-318.84 L 243.572,-318.759 L 243.925,-318.602
 L 244.238,-318.375 L 244.497,-318.087 L 244.69,-317.752 L 244.81,-317.385 L 244.85,-317 L 244.81,-316.615
 L 244.69,-316.248 L 244.497,-315.913 L 244.238,-315.625 L 243.925,-315.398 L 243.572,-315.241 L 243.193,-315.16
 z
M 332.807,-315.16 L 332.428,-315.241 L 332.075,-315.398 L 331.762,-315.625 L 331.503,-315.913 L 331.31,-316.248
 L 331.19,-316.615 L 331.15,-317 L 331.19,-317.385 L 331.31,-317.752 L 331.503,-318.087 L 331.762,-318.375
 L 332.075,-318.602 L 332.428,-318.759 L 332.807,-318.84 L 333.193,-318.84 L 333.572,-318.759 L 333.925,-318.602
 L 334.238,-318.375 L 334.497,-318.087 L 334.69,-317.752 L 334.81,-317.385 L 334.85,-317 L 334.81,-316.615
 L 334.69,-316.248 L 334.497,-315.913 L 334.238,-315.625 L 333.925,-315.398 L 333.572,-315.241 L 333.193,-315.16
 z
M 197.722,-310.217 L 197.444,-310.307 L 197.19,-310.453 L 196.973,-310.649 L 196.801,-310.886 L 196.682,-311.153
 L 196.621,-311.44 L 196.621,-311.732 L 196.682,-312.019 L 196.801,-312.286 L 196.973,-312.523 L 197.19,-312.719
 L 197.444,-312.865 L 197.722,-312.955 L 198.013,-312.986 L 198.304,-312.955 L 198.582,-312.865 L 198.836,-312.719
 L 199.053,-312.523 L 199.225,-312.286 L 199.344,-312.019 L 199.405,-311.732 L 199.405,-311.44 L 199.344,-311.153
 L 199.225,-310.886 L 199.053,-310.649 L 198.836,-310.453 L 198.582,-310.307 L 198.304,-310.217 L 198.013,-310.186
 z
M 195.233,-266.166 L 194.955,-266.256 L 194.701,-266.402 L 194.484,-266.598 L 194.312,-266.835 L 194.193,-267.102
 L 194.132,-267.389 L 194.132,-267.681 L 194.193,-267.968 L 194.312,-268.235 L 194.484,-268.472 L 194.701,-268.668
 L 194.955,-268.814 L 195.233,-268.904 L 195.524,-268.935 L 195.815,-268.904 L 196.093,-268.814 L 196.347,-268.668
 L 196.564,-268.472 L 196.736,-268.235 L 196.855,-267.968 L 196.916,-267.681 L 196.916,-267.389 L 196.855,-267.102
 L 196.736,-266.835 L 196.564,-266.598 L 196.347,-266.402 L 196.093,-266.256 L 195.815,-266.166 L 195.524,-266.135
 z
M 108.809,-243.518 L 108.531,-243.608 L 108.277,-243.754 L 108.06,-243.95 L 107.888,-244.187 L 107.769,-244.454
 L 107.708,-244.741 L 107.708,-245.033 L 107.769,-245.32 L 107.888,-245.587 L 108.06,-245.824 L 108.277,-246.02
 L 108.531,-246.166 L 108.809,-246.256 L 109.1,-246.287 L 109.391,-246.256 L 109.669,-246.166 L 109.923,-246.02
 L 110.14,-245.824 L 110.312,-245.587 L 110.431,-245.32 L 110.492,-245.033 L 110.492,-244.741 L 110.431,-244.454
 L 110.312,-244.187 L 110.14,-243.95 L 109.923,-243.754 L 109.669,-243.608 L 109.391,-243.518 L 109.1,-243.487
 z
M 332.807,-225.16 L 332.428,-225.241 L 332.075,-225.398 L 331.762,-225.625 L 331.503,-225.913 L 331.31,-226.248
 L 331.19,-226.615 L 331.15,-227 L 331.19,-227.385 L 331.31,-227.752 L 331.503,-228.087 L 331.762,-228.375
 L 332.075,-228.602 L 332.428,-228.759 L 332.807,-228.84 L 333.193,-228.84 L 333.572,-228.759 L 333.925,-228.602
 L 334.238,-228.375 L 334.497,-228.087 L 334.69,-227.752 L 334.81,-227.385 L 334.85,-227 L 334.81,-226.615
 L 334.69,-226.248 L 334.497,-225.913 L 334.238,-225.625 L 333.925,-225.398 L 333.572,-225.241 L 333.193,-225.16
 z
M 242.807,-225.16 L 242.428,-225.241 L 242.075,-225.398 L 241.762,-225.625 L 241.503,-225.913 L 241.31,-226.248
 L 241.19,-226.615 L 241.15,-227 L 241.19,-227.385 L 241.31,-227.752 L 241.503,-228.087 L 241.762,-228.375
 L 242.075,-228.602 L 242.428,-228.759 L 242.807,-228.84 L 243.193,-228.84 L 243.572,-228.759 L 243.925,-228.602
 L 244.238,-228.375 L 244.497,-228.087 L 244.69,-227.752 L 244.81,-227.385 L 244.85,-227 L 244.81,-226.615
 L 244.69,-226.248 L 244.497,-225.913 L 244.238,-225.625 L 243.925,-225.398 L 243.572,-225.241 L 243.193,-225.16
 z
M 152.807,-225.16 L 152.428,-225.241 L 152.075,-225.398 L 151.762,-225.625 L 151.503,-225.913 L 151.31,-226.248
 L 151.19,-226.615 L 151.15,-227 L 151.19,-227.385 L 151.31,-227.752 L 151.503,-228.087 L 151.762,-228.375
 L 152.075,-228.602 L 152.428,-228.759 L 152.807,-228.84 L 153.193,-228.84 L 153.572,-228.759 L 153.925,-228.602
 L 154.238,-228.375 L 154.497,-228.087 L 154.69,-227.752 L 154.81,-227.385 L 154.85,-227 L 154.81,-226.615
 L 154.69,-226.248 L 154.497,-225.913 L 154.238,-225.625 L 153.925,-225.398 L 153.572,-225.241 L 153.193,-225.16
 z
M 62.8066,-225.16 L 62.4283,-225.241 L 62.075,-225.398 L 61.7621,-225.625 L 61.5033,-225.913 L 61.3099,-226.248
 L 61.1904,-226.615 L 61.15,-227 L 61.1904,-227.385 L 61.3099,-227.752 L 61.5033,-228.087 L 61.7621,-228.375
 L 62.075,-228.602 L 62.4283,-228.759 L 62.8066,-228.84 L 63.1934,-228.84 L 63.5717,-228.759 L 63.925,-228.602
 L 64.2379,-228.375 L 64.4967,-228.087 L 64.69,-227.752 L 64.8096,-227.385 L 64.85,-227 L 64.8096,-226.615
 L 64.69,-226.248 L 64.4967,-225.913 L 64.2379,-225.625 L 63.925,-225.398 L 63.5717,-225.241 L 63.1934,-225.16
 z
M 289.809,-225.931 L 289.531,-226.021 L 289.277,-226.167 L 289.06,-226.363 L 288.888,-226.6 L 288.769,-226.867
 L 288.708,-227.154 L 288.708,-227.446 L 288.769,-227.733 L 288.888,-228 L 289.06,-228.237 L 289.277,-228.433
 L 289.531,-228.579 L 289.809,-228.669 L 290.1,-228.7 L 290.391,-228.669 L 290.669,-228.579 L 290.923,-228.433
 L 291.14,-228.237 L 291.312,-228 L 291.431,-227.733 L 291.492,-227.446 L 291.492,-227.154 L 291.431,-226.867
 L 291.312,-226.6 L 291.14,-226.363 L 290.923,-226.167 L 290.669,-226.021 L 290.391,-225.931 L 290.1,-225.9
 z
M 337.809,-225.931 L 337.531,-226.021 L 337.277,-226.167 L 337.06,-226.363 L 336.888,-226.6 L 336.769,-226.867
 L 336.708,-227.154 L 336.708,-227.446 L 336.769,-227.733 L 336.888,-228 L 337.06,-228.237 L 337.277,-228.433
 L 337.531,-228.579 L 337.809,-228.669 L 338.1,-228.7 L 338.391,-228.669 L 338.669,-228.579 L 338.923,-228.433
 L 339.14,-228.237 L 339.312,-228 L 339.431,-227.733 L 339.492,-227.446 L 339.492,-227.154 L 339.431,-226.867
 L 339.312,-226.6 L 339.14,-226.363 L 338.923,-226.167 L 338.669,-226.021 L 338.391,-225.931 L 338.1,-225.9
 z
M 341.59,-188.55 L 341.312,-188.64 L 341.058,-188.786 L 340.841,-188.982 L 340.669,-189.219 L 340.55,-189.486
 L 340.489,-189.773 L 340.489,-190.065 L 340.55,-190.352 L 340.669,-190.619 L 340.841,-190.856 L 341.058,-191.052
 L 341.312,-191.198 L 341.59,-191.288 L 341.881,-191.319 L 342.172,-191.288 L 342.45,-191.198 L 342.704,-191.052
 L 342.921,-190.856 L 343.093,-190.619 L 343.212,-190.352 L 343.273,-190.065 L 343.273,-189.773 L 343.212,-189.486
 L 343.093,-189.219 L 342.921,-188.982 L 342.704,-188.786 L 342.45,-188.64 L 342.172,-188.55 L 341.881,-188.519
 z
M 255.057,-188.3 L 254.779,-188.39 L 254.525,-188.536 L 254.308,-188.732 L 254.136,-188.969 L 254.017,-189.236
 L 253.956,-189.523 L 253.956,-189.815 L 254.017,-190.102 L 254.136,-190.369 L 254.308,-190.606 L 254.525,-190.802
 L 254.779,-190.948 L 255.057,-191.038 L 255.348,-191.069 L 255.639,-191.038 L 255.917,-190.948 L 256.171,-190.802
 L 256.388,-190.606 L 256.56,-190.369 L 256.679,-190.102 L 256.74,-189.815 L 256.74,-189.523 L 256.679,-189.236
 L 256.56,-188.969 L 256.388,-188.732 L 256.171,-188.536 L 255.917,-188.39 L 255.639,-188.3 L 255.348,-188.269
 z
M 204.954,-158.408 L 204.667,-158.469 L 204.4,-158.588 L 204.163,-158.76 L 203.967,-158.977 L 203.821,-159.231
 L 203.731,-159.509 L 203.7,-159.8 L 203.731,-160.091 L 203.821,-160.369 L 203.967,-160.623 L 204.163,-160.84
 L 204.4,-161.012 L 204.667,-161.131 L 204.954,-161.192 L 205.246,-161.192 L 205.533,-161.131 L 205.8,-161.012
 L 206.037,-160.84 L 206.233,-160.623 L 206.379,-160.369 L 206.469,-160.091 L 206.5,-159.8 L 206.469,-159.509
 L 206.379,-159.231 L 206.233,-158.977 L 206.037,-158.76 L 205.8,-158.588 L 205.533,-158.469 L 205.246,-158.408
 z
M 149.376,-154.508 L 149.089,-154.569 L 148.822,-154.688 L 148.585,-154.86 L 148.389,-155.077 L 148.243,-155.331
 L 148.153,-155.609 L 148.122,-155.9 L 148.153,-156.191 L 148.243,-156.469 L 148.389,-156.723 L 148.585,-156.94
 L 148.822,-157.112 L 149.089,-157.231 L 149.376,-157.292 L 149.668,-157.292 L 149.955,-157.231 L 150.222,-157.112
 L 150.459,-156.94 L 150.655,-156.723 L 150.801,-156.469 L 150.891,-156.191 L 150.922,-155.9 L 150.891,-155.609
 L 150.801,-155.331 L 150.655,-155.077 L 150.459,-154.86 L 150.222,-154.688 L 149.955,-154.569 L 149.668,-154.508
 z
M 38.3987,-140.824 L 38.1124,-140.885 L 37.845,-141.004 L 37.6082,-141.176 L 37.4124,-141.393 L 37.266,-141.647
 L 37.1756,-141.925 L 37.145,-142.216 L 37.1756,-142.507 L 37.266,-142.785 L 37.4124,-143.039 L 37.6082,-143.256
 L 37.845,-143.428 L 38.1124,-143.547 L 38.3987,-143.608 L 38.6913,-143.608 L 38.9776,-143.547 L 39.245,-143.428
 L 39.4818,-143.256 L 39.6776,-143.039 L 39.824,-142.785 L 39.9144,-142.507 L 39.945,-142.216 L 39.9144,-141.925
 L 39.824,-141.647 L 39.6776,-141.393 L 39.4818,-141.176 L 39.245,-141.004 L 38.9776,-140.885 L 38.6913,-140.824
 z
M 242.807,-135.16 L 242.428,-135.241 L 242.075,-135.398 L 241.762,-135.625 L 241.503,-135.913 L 241.31,-136.248
 L 241.19,-136.615 L 241.15,-137 L 241.19,-137.385 L 241.31,-137.752 L 241.503,-138.087 L 241.762,-138.375
 L 242.075,-138.602 L 242.428,-138.759 L 242.807,-138.84 L 243.193,-138.84 L 243.572,-138.759 L 243.925,-138.602
 L 244.238,-138.375 L 244.497,-138.087 L 244.69,-137.752 L 244.81,-137.385 L 244.85,-137 L 244.81,-136.615
 L 244.69,-136.248 L 244.497,-135.913 L 244.238,-135.625 L 243.925,-135.398 L 243.572,-135.241 L 243.193,-135.16
 z
M 332.807,-135.16 L 332.428,-135.241 L 332.075,-135.398 L 331.762,-135.625 L 331.503,-135.913 L 331.31,-136.248
 L 331.19,-136.615 L 331.15,-137 L 331.19,-137.385 L 331.31,-137.752 L 331.503,-138.087 L 331.762,-138.375
 L 332.075,-138.602 L 332.428,-138.759 L 332.807,-138.84 L 333.193,-138.84 L 333.572,-138.759 L 333.925,-138.602
 L 334.238,-138.375 L 334.497,-138.087 L 334.69,-137.752 L 334.81,-137.385 L 334.85,-137 L 334.81,-136.615
 L 334.69,-136.248 L 334.497,-135.913 L 334.238,-135.625 L 333.925,-135.398 L 333.572,-135.241 L 333.193,-135.16
 z
M 62.8066,-135.16 L 62.4283,-135.241 L 62.075,-135.398 L 61.7621,-135.625 L 61.5033,-135.913 L 61.3099,-136.248
 L 61.1904,-136.615 L 61.15,-137 L 61.1904,-137.385 L 61.3099,-137.752 L 61.5033,-138.087 L 61.7621,-138.375
 L 62.075,-138.602 L 62.4283,-138.759 L 62.8066,-138.84 L 63.1934,-138.84 L 63.5717,-138.759 L 63.925,-138.602
 L 64.2379,-138.375 L 64.4967,-138.087 L 64.69,-137.752 L 64.8096,-137.385 L 64.85,-137 L 64.8096,-136.615
 L 64.69,-136.248 L 64.4967,-135.913 L 64.2379,-135.625 L 63.925,-135.398 L 63.5717,-135.241 L 63.1934,-135.16
 z
M 152.807,-135.16 L 152.428,-135.241 L 152.075,-135.398 L 151.762,-135.625 L 151.503,-135.913 L 151.31,-136.248
 L 151.19,-136.615 L 151.15,-137 L 151.19,-137.385 L 151.31,-137.752 L 151.503,-138.087 L 151.762,-138.375
 L 152.075,-138.602 L 152.428,-138.759 L 152.807,-138.84 L 153.193,-138.84 L 153.572,-138.759 L 153.925,-138.602
 L 154.238,-138.375 L 154.497,-138.087 L 154.69,-137.752 L 154.81,-137.385 L 154.85,-137 L 154.81,-136.615
 L 154.69,-136.248 L 154.497,-135.913 L 154.238,-135.625 L 153.925,-135.398 L 153.572,-135.241 L 153.193,-135.16
 z
M 81.7417,-106.37 L 81.4554,-106.431 L 81.188,-106.55 L 80.9512,-106.722 L 80.7554,-106.939 L 80.609,-107.193
 L 80.5186,-107.471 L 80.488,-107.762 L 80.5186,-108.053 L 80.609,-108.331 L 80.7554,-108.585 L 80.9512,-108.802
 L 81.188,-108.974 L 81.4554,-109.093 L 81.7417,-109.154 L 82.0343,-109.154 L 82.3206,-109.093 L 82.588,-108.974
 L 82.8248,-108.802 L 83.0206,-108.585 L 83.167,-108.331 L 83.2574,-108.053 L 83.288,-107.762 L 83.2574,-107.471
 L 83.167,-107.193 L 83.0206,-106.939 L 82.8248,-106.722 L 82.588,-106.55 L 82.3206,-106.431 L 82.0343,-106.37
 z
M 205.054,-105.308 L 204.767,-105.369 L 204.5,-105.488 L 204.263,-105.66 L 204.067,-105.877 L 203.921,-106.131
 L 203.831,-106.409 L 203.8,-106.7 L 203.831,-106.991 L 203.921,-107.269 L 204.067,-107.523 L 204.263,-107.74
 L 204.5,-107.912 L 204.767,-108.031 L 205.054,-108.092 L 205.346,-108.092 L 205.633,-108.031 L 205.9,-107.912
 L 206.137,-107.74 L 206.333,-107.523 L 206.479,-107.269 L 206.569,-106.991 L 206.6,-106.7 L 206.569,-106.409
 L 206.479,-106.131 L 206.333,-105.877 L 206.137,-105.66 L 205.9,-105.488 L 205.633,-105.369 L 205.346,-105.308
 z
M 149.454,-103.308 L 149.167,-103.369 L 148.9,-103.488 L 148.663,-103.66 L 148.467,-103.877 L 148.321,-104.131
 L 148.231,-104.409 L 148.2,-104.7 L 148.231,-104.991 L 148.321,-105.269 L 148.467,-105.523 L 148.663,-105.74
 L 148.9,-105.912 L 149.167,-106.031 L 149.454,-106.092 L 149.746,-106.092 L 150.033,-106.031 L 150.3,-105.912
 L 150.537,-105.74 L 150.733,-105.523 L 150.879,-105.269 L 150.969,-104.991 L 151,-104.7 L 150.969,-104.409
 L 150.879,-104.131 L 150.733,-103.877 L 150.537,-103.66 L 150.3,-103.488 L 150.033,-103.369 L 149.746,-103.308
 z
M 341.84,-99.2646 L 341.562,-99.355 L 341.308,-99.5014 L 341.091,-99.6972 L 340.919,-99.934 L 340.8,-100.201
 L 340.739,-100.488 L 340.739,-100.78 L 340.8,-101.067 L 340.919,-101.334 L 341.091,-101.571 L 341.308,-101.767
 L 341.562,-101.913 L 341.84,-102.003 L 342.131,-102.034 L 342.422,-102.003 L 342.7,-101.913 L 342.954,-101.767
 L 343.171,-101.571 L 343.343,-101.334 L 343.462,-101.067 L 343.523,-100.78 L 343.523,-100.488 L 343.462,-100.201
 L 343.343,-99.934 L 343.171,-99.6972 L 342.954,-99.5014 L 342.7,-99.355 L 342.422,-99.2646 L 342.131,-99.234
 z
M 166.67,-83.8307 L 166.383,-83.8915 L 166.116,-84.0106 L 165.879,-84.1826 L 165.683,-84.4001 L 165.537,-84.6536
 L 165.447,-84.9319 L 165.416,-85.223 L 165.447,-85.5141 L 165.537,-85.7924 L 165.683,-86.0459 L 165.879,-86.2634
 L 166.116,-86.4354 L 166.383,-86.5545 L 166.67,-86.6153 L 166.962,-86.6153 L 167.249,-86.5545 L 167.516,-86.4354
 L 167.753,-86.2634 L 167.949,-86.0459 L 168.095,-85.7924 L 168.185,-85.5141 L 168.216,-85.223 L 168.185,-84.9319
 L 168.095,-84.6536 L 167.949,-84.4001 L 167.753,-84.1826 L 167.516,-84.0106 L 167.249,-83.8915 L 166.962,-83.8307
 z
M 255.057,-81.5076 L 254.779,-81.598 L 254.525,-81.7444 L 254.308,-81.9402 L 254.136,-82.177 L 254.017,-82.4444
 L 253.956,-82.7307 L 253.956,-83.0233 L 254.017,-83.3096 L 254.136,-83.577 L 254.308,-83.8138 L 254.525,-84.0096
 L 254.779,-84.156 L 255.057,-84.2464 L 255.348,-84.277 L 255.639,-84.2464 L 255.917,-84.156 L 256.171,-84.0096
 L 256.388,-83.8138 L 256.56,-83.577 L 256.679,-83.3096 L 256.74,-83.0233 L 256.74,-82.7307 L 256.679,-82.4444
 L 256.56,-82.177 L 256.388,-81.9402 L 256.171,-81.7444 L 255.917,-81.598 L 255.639,-81.5076 L 255.348,-81.477
 z
M 151.217,-53.6857 L 150.93,-53.7465 L 150.663,-53.8656 L 150.426,-54.0376 L 150.23,-54.2551 L 150.084,-54.5086
 L 149.994,-54.7869 L 149.963,-55.078 L 149.994,-55.3691 L 150.084,-55.6474 L 150.23,-55.9009 L 150.426,-56.1184
 L 150.663,-56.2904 L 150.93,-56.4095 L 151.217,-56.4703 L 151.509,-56.4703 L 151.796,-56.4095 L 152.063,-56.2904
 L 152.3,-56.1184 L 152.496,-55.9009 L 152.642,-55.6474 L 152.732,-55.3691 L 152.763,-55.078 L 152.732,-54.7869
 L 152.642,-54.5086 L 152.496,-54.2551 L 152.3,-54.0376 L 152.063,-53.8656 L 151.796,-53.7465 L 151.509,-53.6857
 z
M 219.868,-53.6857 L 219.581,-53.7465 L 219.314,-53.8656 L 219.077,-54.0376 L 218.881,-54.2551 L 218.735,-54.5086
 L 218.645,-54.7869 L 218.614,-55.078 L 218.645,-55.3691 L 218.735,-55.6474 L 218.881,-55.9009 L 219.077,-56.1184
 L 219.314,-56.2904 L 219.581,-56.4095 L 219.868,-56.4703 L 220.16,-56.4703 L 220.447,-56.4095 L 220.714,-56.2904
 L 220.951,-56.1184 L 221.147,-55.9009 L 221.293,-55.6474 L 221.383,-55.3691 L 221.414,-55.078 L 221.383,-54.7869
 L 221.293,-54.5086 L 221.147,-54.2551 L 220.951,-54.0376 L 220.714,-53.8656 L 220.447,-53.7465 L 220.16,-53.6857
 z
M 130.004,-53.1077 L 129.717,-53.1685 L 129.45,-53.2876 L 129.213,-53.4596 L 129.017,-53.6771 L 128.871,-53.9306
 L 128.781,-54.2089 L 128.75,-54.5 L 128.781,-54.7911 L 128.871,-55.0694 L 129.017,-55.3229 L 129.213,-55.5404
 L 129.45,-55.7124 L 129.717,-55.8315 L 130.004,-55.8923 L 130.296,-55.8923 L 130.583,-55.8315 L 130.85,-55.7124
 L 131.087,-55.5404 L 131.283,-55.3229 L 131.429,-55.0694 L 131.519,-54.7911 L 131.55,-54.5 L 131.519,-54.2089
 L 131.429,-53.9306 L 131.283,-53.6771 L 131.087,-53.4596 L 130.85,-53.2876 L 130.583,-53.1685 L 130.296,-53.1077
 z
M 62.8066,-45.1601 L 62.4283,-45.2405 L 62.075,-45.3978 L 61.7621,-45.6252 L 61.5033,-45.9126 L 61.3099,-46.2475
 L 61.1904,-46.6154 L 61.15,-47 L 61.1904,-47.3846 L 61.3099,-47.7525 L 61.5033,-48.0874 L 61.7621,-48.3748
 L 62.075,-48.6021 L 62.4283,-48.7594 L 62.8066,-48.8399 L 63.1934,-48.8399 L 63.5717,-48.7594 L 63.925,-48.6021
 L 64.2379,-48.3748 L 64.4967,-48.0874 L 64.69,-47.7525 L 64.8096,-47.3846 L 64.85,-47 L 64.8096,-46.6154
 L 64.69,-46.2475 L 64.4967,-45.9126 L 64.2379,-45.6252 L 63.925,-45.3978 L 63.5717,-45.2405 L 63.1934,-45.1601
 z
M 332.807,-45.1601 L 332.428,-45.2405 L 332.075,-45.3978 L 331.762,-45.6252 L 331.503,-45.9126 L 331.31,-46.2475
 L 331.19,-46.6154 L 331.15,-47 L 331.19,-47.3846 L 331.31,-47.7525 L 331.503,-48.0874 L 331.762,-48.3748
 L 332.075,-48.6021 L 332.428,-48.7594 L 332.807,-48.8399 L 333.193,-48.8399 L 333.572,-48.7594 L 333.925,-48.6021
 L 334.238,-48.3748 L 334.497,-48.0874 L 334.69,-47.7525 L 334.81,-47.3846 L 334.85,-47 L 334.81,-46.6154
 L 334.69,-46.2475 L 334.497,-45.9126 L 334.238,-45.6252 L 333.925,-45.3978 L 333.572,-45.2405 L 333.193,-45.1601
 z
M 152.807,-45.1601 L 152.428,-45.2405 L 152.075,-45.3978 L 151.762,-45.6252 L 151.503,-45.9126 L 151.31,-46.2475
 L 151.19,-46.6154 L 151.15,-47 L 151.19,-47.3846 L 151.31,-47.7525 L 151.503,-48.0874 L 151.762,-48.3748
 L 152.075,-48.6021 L 152.428,-48.7594 L 152.807,-48.8399 L 153.193,-48.8399 L 153.572,-48.7594 L 153.925,-48.6021
 L 154.238,-48.3748 L 154.497,-48.0874 L 154.69,-47.7525 L 154.81,-47.3846 L 154.85,-47 L 154.81,-46.6154
 L 154.69,-46.2475 L 154.497,-45.9126 L 154.238,-45.6252 L 153.925,-45.3978 L 153.572,-45.2405 L 153.193,-45.1601
 z
M 242.807,-45.1601 L 242.428,-45.2405 L 242.075,-45.3978 L 241.762,-45.6252 L 241.503,-45.9126 L 241.31,-46.2475
 L 241.19,-46.6154 L 241.15,-47 L 241.19,-47.3846 L 241.31,-47.7525 L 241.503,-48.0874 L 241.762,-48.3748
 L 242.075,-48.6021 L 242.428,-48.7594 L 242.807,-48.8399 L 243.193,-48.8399 L 243.572,-48.7594 L 243.925,-48.6021
 L 244.238,-48.3748 L 244.497,-48.0874 L 244.69,-47.7525 L 244.81,-47.3846 L 244.85,-47 L 244.81,-46.6154
 L 244.69,-46.2475 L 244.497,-45.9126 L 244.238,-45.6252 L 243.925,-45.3978 L 243.572,-45.2405 L 243.193,-45.1601
 z
" stroke="black" fill="lightgray" stroke-width="0.5"/></svg>
