<?xml version="1.0" standalone="no"?>
<!DOCTYPE svg PUBLIC "-//W3C//DTD SVG 1.1//EN" "http://www.w3.org/Graphics/SVG/1.1/DTD/svg11.dtd">
<svg width="412" height="371" viewBox="0 -371 412 371" xmlns="http://www.w3.org/2000/svg" version="1.1">
<title>OpenSCAD Model</title>
<path d="
M 370,-5 L 370.656,-11.2374 L 372.594,-17.2021 L 375.729,-22.6335 L 379.926,-27.2943 L 385,-30.9808
 L 390.729,-33.5317 L 396.864,-34.8356 L 403.136,-34.8356 L 409.271,-33.5317 L 411.103,-32.7158 L 411.103,-360.27
 L 401.103,-360.27 L 401.103,-370.27 L 10,-370.27 L 10,-360.27 L 0,-360.27 L 0,-10
 L 10,-10 L 10,-0 L 370.526,-0 z
M 19.216,-347.541 L 17.6824,-347.867 L 16.25,-348.505 L 14.9815,-349.426 L 13.9324,-350.592 L 13.1484,-351.949
 L 12.6639,-353.441 L 12.5,-355 L 12.6639,-356.559 L 13.1484,-358.051 L 13.9324,-359.408 L 14.9815,-360.574
 L 16.25,-361.495 L 17.6824,-362.133 L 19.216,-362.459 L 20.784,-362.459 L 22.3176,-362.133 L 23.75,-361.495
 L 25.0185,-360.574 L 26.0676,-359.408 L 26.8516,-358.051 L 27.3361,-356.559 L 27.5,-355 L 27.3361,-353.441
 L 26.8516,-351.949 L 26.0676,-350.592 L 25.0185,-349.426 L 23.75,-348.505 L 22.3176,-347.867 L 20.784,-347.541
 z
M 389.216,-347.541 L 387.682,-347.867 L 386.25,-348.505 L 384.982,-349.426 L 383.932,-350.592 L 383.148,-351.949
 L 382.664,-353.441 L 382.5,-355 L 382.664,-356.559 L 383.148,-358.051 L 383.932,-359.408 L 384.982,-360.574
 L 386.25,-361.495 L 387.682,-362.133 L 389.216,-362.459 L 390.784,-362.459 L 392.318,-362.133 L 393.75,-361.495
 L 395.018,-360.574 L 396.068,-359.408 L 396.852,-358.051 L 397.336,-356.559 L 397.5,-355 L 397.336,-353.441
 L 396.852,-351.949 L 396.068,-350.592 L 395.018,-349.426 L 393.75,-348.505 L 392.318,-347.867 L 390.784,-347.541
 z
M 62.8066,-315.16 L 62.4283,-315.241 L 62.075,-315.398 L 61.7621,-315.625 L 61.5033,-315.913 L 61.3099,-316.248
 L 61.1904,-316.615 L 61.15,-317 L 61.1904,-317.385 L 61.3099,-317.752 L 61.5033,-318.087 L 61.7621,-318.375
 L 62.075,-318.602 L 62.4283,-318.759 L 62.8066,-318.84 L 63.1934,-318.84 L 63.5717,-318.759 L 63.925,-318.602
 L 64.2379,-318.375 L 64.4967,-318.087 L 64.69,-317.752 L 64.8096,-317.385 L 64.85,-317 L 64.8096,-316.615
 L 64.69,-316.248 L 64.4967,-315.913 L 64.2379,-315.625 L 63.925,-315.398 L 63.5717,-315.241 L 63.1934,-315.16
 z
M 242.807,-315.16 L 242.428,-315.241 L 242.075,-315.398 L 241.762,-315.625 L 241.503,-315.913 L 241.31,-316.248
 L 241.19,-316.615 L 241.15,-317 L 241.19,-317.385 L 241.31,-317.752 L 241.503,-318.087 L 241.762,-318.375
 L 242.075,-318.602 L 242.428,-318.759 L 242.807,-318.84 L 243.193,-318.84 L 243.572,-318.759 L 243.925,-318.602
 L 244.238,-318.375 L 244.497,-318.087 L 244.69,-317.752 L 244.81,-317.385 L 244.85,-317 L 244.81,-316.615
 L 244.69,-316.248 L 244.497,-315.913 L 244.238,-315.625 L 243.925,-315.398 L 243.572,-315.241 L 243.193,-315.16
 z
M 332.807,-315.16 L 332.428,-315.241 L 332.075,-315.398 L 331.762,-315.625 L 331.503,-315.913 L 331.31,-316.248
 L 331.19,-316.615 L 331.15,-317 L 331.19,-317.385 L 331.31,-317.752 L 331.503,-318.087 L 331.762,-318.375
 L 332.075,-318.602 L 332.428,-318.759 L 332.807,-318.84 L 333.193,-318.84 L 333.572,-318.759 L 333.925,-318.602
 L 334.238,-318.375 L 334.497,-318.087 L 334.69,-317.752 L 334.81,-317.385 L 334.85,-317 L 334.81,-316.615
 L 334.69,-316.248 L 334.497,-315.913 L 334.238,-315.625 L 333.925,-315.398 L 333.572,-315.241 L 333.193,-315.16
 z
M 152.807,-315.16 L 152.428,-315.241 L 152.075,-315.398 L 151.762,-315.625 L 151.503,-315.913 L 151.31,-316.248
 L 151.19,-316.615 L 151.15,-317 L 151.19,-317.385 L 151.31,-317.752 L 151.503,-318.087 L 151.762,-318.375
 L 152.075,-318.602 L 152.428,-318.759 L 152.807,-318.84 L 153.193,-318.84 L 153.572,-318.759 L 153.925,-318.602
 L 154.238,-318.375 L 154.497,-318.087 L 154.69,-317.752 L 154.81,-317.385 L 154.85,-317 L 154.81,-316.615
 L 154.69,-316.248 L 154.497,-315.913 L 154.238,-315.625 L 153.925,-315.398 L 153.572,-315.241 L 153.193,-315.16
 z
M 152.807,-225.16 L 152.428,-225.241 L 152.075,-225.398 L 151.762,-225.625 L 151.503,-225.913 L 151.31,-226.248
 L 151.19,-226.615 L 151.15,-227 L 151.19,-227.385 L 151.31,-227.752 L 151.503,-228.087 L 151.762,-228.375
 L 152.075,-228.602 L 152.428,-228.759 L 152.807,-228.84 L 153.193,-228.84 L 153.572,-228.759 L 153.925,-228.602
 L 154.238,-228.375 L 154.497,-228.087 L 154.69,-227.752 L 154.81,-227.385 L 154.85,-227 L 154.81,-226.615
 L 154.69,-226.248 L 154.497,-225.913 L 154.238,-225.625 L 153.925,-225.398 L 153.572,-225.241 L 153.193,-225.16
 z
M 62.8066,-225.16 L 62.4283,-225.241 L 62.075,-225.398 L 61.7621,-225.625 L 61.5033,-225.913 L 61.3099,-226.248
 L 61.1904,-226.615 L 61.15,-227 L 61.1904,-227.385 L 61.3099,-227.752 L 61.5033,-228.087 L 61.7621,-228.375
 L 62.075,-228.602 L 62.4283,-228.759 L 62.8066,-228.84 L 63.1934,-228.84 L 63.5717,-228.759 L 63.925,-228.602
 L 64.2379,-228.375 L 64.4967,-228.087 L 64.69,-227.752 L 64.8096,-227.385 L 64.85,-227 L 64.8096,-226.615
 L 64.69,-226.248 L 64.4967,-225.913 L 64.2379,-225.625 L 63.925,-225.398 L 63.5717,-225.241 L 63.1934,-225.16
 z
M 242.807,-225.16 L 242.428,-225.241 L 242.075,-225.398 L 241.762,-225.625 L 241.503,-225.913 L 241.31,-226.248
 L 241.19,-226.615 L 241.15,-227 L 241.19,-227.385 L 241.31,-227.752 L 241.503,-228.087 L 241.762,-228.375
 L 242.075,-228.602 L 242.428,-228.759 L 242.807,-228.84 L 243.193,-228.84 L 243.572,-228.759 L 243.925,-228.602
 L 244.238,-228.375 L 244.497,-228.087 L 244.69,-227.752 L 244.81,-227.385 L 244.85,-227 L 244.81,-226.615
 L 244.69,-226.248 L 244.497,-225.913 L 244.238,-225.625 L 243.925,-225.398 L 243.572,-225.241 L 243.193,-225.16
 z
M 332.807,-225.16 L 332.428,-225.241 L 332.075,-225.398 L 331.762,-225.625 L 331.503,-225.913 L 331.31,-226.248
 L 331.19,-226.615 L 331.15,-227 L 331.19,-227.385 L 331.31,-227.752 L 331.503,-228.087 L 331.762,-228.375
 L 332.075,-228.602 L 332.428,-228.759 L 332.807,-228.84 L 333.193,-228.84 L 333.572,-228.759 L 333.925,-228.602
 L 334.238,-228.375 L 334.497,-228.087 L 334.69,-227.752 L 334.81,-227.385 L 334.85,-227 L 334.81,-226.615
 L 334.69,-226.248 L 334.497,-225.913 L 334.238,-225.625 L 333.925,-225.398 L 333.572,-225.241 L 333.193,-225.16
 z
M 62.8066,-135.16 L 62.4283,-135.241 L 62.075,-135.398 L 61.7621,-135.625 L 61.5033,-135.913 L 61.3099,-136.248
 L 61.1904,-136.615 L 61.15,-137 L 61.1904,-137.385 L 61.3099,-137.752 L 61.5033,-138.087 L 61.7621,-138.375
 L 62.075,-138.602 L 62.4283,-138.759 L 62.8066,-138.84 L 63.1934,-138.84 L 63.5717,-138.759 L 63.925,-138.602
 L 64.2379,-138.375 L 64.4967,-138.087 L 64.69,-137.752 L 64.8096,-137.385 L 64.85,-137 L 64.8096,-136.615
 L 64.69,-136.248 L 64.4967,-135.913 L 64.2379,-135.625 L 63.925,-135.398 L 63.5717,-135.241 L 63.1934,-135.16
 z
M 332.807,-135.16 L 332.428,-135.241 L 332.075,-135.398 L 331.762,-135.625 L 331.503,-135.913 L 331.31,-136.248
 L 331.19,-136.615 L 331.15,-137 L 331.19,-137.385 L 331.31,-137.752 L 331.503,-138.087 L 331.762,-138.375
 L 332.075,-138.602 L 332.428,-138.759 L 332.807,-138.84 L 333.193,-138.84 L 333.572,-138.759 L 333.925,-138.602
 L 334.238,-138.375 L 334.497,-138.087 L 334.69,-137.752 L 334.81,-137.385 L 334.85,-137 L 334.81,-136.615
 L 334.69,-136.248 L 334.497,-135.913 L 334.238,-135.625 L 333.925,-135.398 L 333.572,-135.241 L 333.193,-135.16
 z
M 242.807,-135.16 L 242.428,-135.241 L 242.075,-135.398 L 241.762,-135.625 L 241.503,-135.913 L 241.31,-136.248
 L 241.19,-136.615 L 241.15,-137 L 241.19,-137.385 L 241.31,-137.752 L 241.503,-138.087 L 241.762,-138.375
 L 242.075,-138.602 L 242.428,-138.759 L 242.807,-138.84 L 243.193,-138.84 L 243.572,-138.759 L 243.925,-138.602
 L 244.238,-138.375 L 244.497,-138.087 L 244.69,-137.752 L 244.81,-137.385 L 244.85,-137 L 244.81,-136.615
 L 244.69,-136.248 L 244.497,-135.913 L 244.238,-135.625 L 243.925,-135.398 L 243.572,-135.241 L 243.193,-135.16
 z
M 152.807,-135.16 L 152.428,-135.241 L 152.075,-135.398 L 151.762,-135.625 L 151.503,-135.913 L 151.31,-136.248
 L 151.19,-136.615 L 151.15,-137 L 151.19,-137.385 L 151.31,-137.752 L 151.503,-138.087 L 151.762,-138.375
 L 152.075,-138.602 L 152.428,-138.759 L 152.807,-138.84 L 153.193,-138.84 L 153.572,-138.759 L 153.925,-138.602
 L 154.238,-138.375 L 154.497,-138.087 L 154.69,-137.752 L 154.81,-137.385 L 154.85,-137 L 154.81,-136.615
 L 154.69,-136.248 L 154.497,-135.913 L 154.238,-135.625 L 153.925,-135.398 L 153.572,-135.241 L 153.193,-135.16
 z
M 332.807,-45.1601 L 332.428,-45.2405 L 332.075,-45.3978 L 331.762,-45.6252 L 331.503,-45.9126 L 331.31,-46.2475
 L 331.19,-46.6154 L 331.15,-47 L 331.19,-47.3846 L 331.31,-47.7525 L 331.503,-48.0874 L 331.762,-48.3748
 L 332.075,-48.6021 L 332.428,-48.7594 L 332.807,-48.8399 L 333.193,-48.8399 L 333.572,-48.7594 L 333.925,-48.6021
 L 334.238,-48.3748 L 334.497,-48.0874 L 334.69,-47.7525 L 334.81,-47.3846 L 334.85,-47 L 334.81,-46.6154
 L 334.69,-46.2475 L 334.497,-45.9126 L 334.238,-45.6252 L 333.925,-45.3978 L 333.572,-45.2405 L 333.193,-45.1601
 z
M 242.807,-45.1601 L 242.428,-45.2405 L 242.075,-45.3978 L 241.762,-45.6252 L 241.503,-45.9126 L 241.31,-46.2475
 L 241.19,-46.6154 L 241.15,-47 L 241.19,-47.3846 L 241.31,-47.7525 L 241.503,-48.0874 L 241.762,-48.3748
 L 242.075,-48.6021 L 242.428,-48.7594 L 242.807,-48.8399 L 243.193,-48.8399 L 243.572,-48.7594 L 243.925,-48.6021
 L 244.238,-48.3748 L 244.497,-48.0874 L 244.69,-47.7525 L 244.81,-47.3846 L 244.85,-47 L 244.81,-46.6154
 L 244.69,-46.2475 L 244.497,-45.9126 L 244.238,-45.6252 L 243.925,-45.3978 L 243.572,-45.2405 L 243.193,-45.1601
 z
M 62.8066,-45.1601 L 62.4283,-45.2405 L 62.075,-45.3978 L 61.7621,-45.6252 L 61.5033,-45.9126 L 61.3099,-46.2475
 L 61.1904,-46.6154 L 61.15,-47 L 61.1904,-47.3846 L 61.3099,-47.7525 L 61.5033,-48.0874 L 61.7621,-48.3748
 L 62.075,-48.6021 L 62.4283,-48.7594 L 62.8066,-48.8399 L 63.1934,-48.8399 L 63.5717,-48.7594 L 63.925,-48.6021
 L 64.2379,-48.3748 L 64.4967,-48.0874 L 64.69,-47.7525 L 64.8096,-47.3846 L 64.85,-47 L 64.8096,-46.6154
 L 64.69,-46.2475 L 64.4967,-45.9126 L 64.2379,-45.6252 L 63.925,-45.3978 L 63.5717,-45.2405 L 63.1934,-45.1601
 z
M 152.807,-45.1601 L 152.428,-45.2405 L 152.075,-45.3978 L 151.762,-45.6252 L 151.503,-45.9126 L 151.31,-46.2475
 L 151.19,-46.6154 L 151.15,-47 L 151.19,-47.3846 L 151.31,-47.7525 L 151.503,-48.0874 L 151.762,-48.3748
 L 152.075,-48.6021 L 152.428,-48.7594 L 152.807,-48.8399 L 153.193,-48.8399 L 153.572,-48.7594 L 153.925,-48.6021
 L 154.238,-48.3748 L 154.497,-48.0874 L 154.69,-47.7525 L 154.81,-47.3846 L 154.85,-47 L 154.81,-46.6154
 L 154.69,-46.2475 L 154.497,-45.9126 L 154.238,-45.6252 L 153.925,-45.3978 L 153.572,-45.2405 L 153.193,-45.1601
 z
" stroke="black" fill="lightgray" stroke-width="0.5"/></svg>
