<?xml version="1.0" standalone="no"?>
<!DOCTYPE svg PUBLIC "-//W3C//DTD SVG 1.1//EN" "http://www.w3.org/Graphics/SVG/1.1/DTD/svg11.dtd">
<svg width="294" height="260" viewBox="31 -570 294 260" xmlns="http://www.w3.org/2000/svg" version="1.1">
<title>OpenSCAD Model</title>
<path d="
M 249.5,-339.9 L 262.5,-339.9 L 262.5,-310 L 324.5,-310 L 324.5,-550 L 261.5,-550
 L 261.5,-570 L 251.5,-570 L 251.5,-550 L 31.5,-550 L 31.5,-310 L 249.5,-310
 z
M 256.207,-562.16 L 255.828,-562.241 L 255.475,-562.398 L 255.162,-562.625 L 254.903,-562.913 L 254.71,-563.248
 L 254.59,-563.615 L 254.55,-564 L 254.59,-564.385 L 254.71,-564.752 L 254.903,-565.087 L 255.162,-565.375
 L 255.475,-565.602 L 255.828,-565.759 L 256.207,-565.84 L 256.593,-565.84 L 256.972,-565.759 L 257.325,-565.602
 L 257.638,-565.375 L 257.897,-565.087 L 258.09,-564.752 L 258.21,-564.385 L 258.25,-564 L 258.21,-563.615
 L 258.09,-563.248 L 257.897,-562.913 L 257.638,-562.625 L 257.325,-562.398 L 256.972,-562.241 L 256.593,-562.16
 z
M 256.207,-552.16 L 255.828,-552.241 L 255.475,-552.398 L 255.162,-552.625 L 254.903,-552.913 L 254.71,-553.248
 L 254.59,-553.615 L 254.55,-554 L 254.59,-554.385 L 254.71,-554.752 L 254.903,-555.087 L 255.162,-555.375
 L 255.475,-555.602 L 255.828,-555.759 L 256.207,-555.84 L 256.593,-555.84 L 256.972,-555.759 L 257.325,-555.602
 L 257.638,-555.375 L 257.897,-555.087 L 258.09,-554.752 L 258.21,-554.385 L 258.25,-554 L 258.21,-553.615
 L 258.09,-553.248 L 257.897,-552.913 L 257.638,-552.625 L 257.325,-552.398 L 256.972,-552.241 L 256.593,-552.16
 z
M 244.854,-543.608 L 244.567,-543.669 L 244.3,-543.788 L 244.063,-543.96 L 243.867,-544.177 L 243.721,-544.431
 L 243.631,-544.709 L 243.6,-545 L 243.631,-545.291 L 243.721,-545.569 L 243.867,-545.823 L 244.063,-546.04
 L 244.3,-546.212 L 244.567,-546.331 L 244.854,-546.392 L 245.146,-546.392 L 245.433,-546.331 L 245.7,-546.212
 L 245.937,-546.04 L 246.133,-545.823 L 246.279,-545.569 L 246.369,-545.291 L 246.4,-545 L 246.369,-544.709
 L 246.279,-544.431 L 246.133,-544.177 L 245.937,-543.96 L 245.7,-543.788 L 245.433,-543.669 L 245.146,-543.608
 z
M 35.8537,-543.608 L 35.5674,-543.669 L 35.3,-543.788 L 35.0632,-543.96 L 34.8674,-544.177 L 34.721,-544.431
 L 34.6306,-544.709 L 34.6,-545 L 34.6306,-545.291 L 34.721,-545.569 L 34.8674,-545.823 L 35.0632,-546.04
 L 35.3,-546.212 L 35.5674,-546.331 L 35.8537,-546.392 L 36.1463,-546.392 L 36.4326,-546.331 L 36.7,-546.212
 L 36.9368,-546.04 L 37.1326,-545.823 L 37.279,-545.569 L 37.3694,-545.291 L 37.4,-545 L 37.3694,-544.709
 L 37.279,-544.431 L 37.1326,-544.177 L 36.9368,-543.96 L 36.7,-543.788 L 36.4326,-543.669 L 36.1463,-543.608
 z
M 203.854,-540.608 L 203.567,-540.669 L 203.3,-540.788 L 203.063,-540.96 L 202.867,-541.177 L 202.721,-541.431
 L 202.631,-541.709 L 202.6,-542 L 202.631,-542.291 L 202.721,-542.569 L 202.867,-542.823 L 203.063,-543.04
 L 203.3,-543.212 L 203.567,-543.331 L 203.854,-543.392 L 204.146,-543.392 L 204.433,-543.331 L 204.7,-543.212
 L 204.937,-543.04 L 205.133,-542.823 L 205.279,-542.569 L 205.369,-542.291 L 205.4,-542 L 205.369,-541.709
 L 205.279,-541.431 L 205.133,-541.177 L 204.937,-540.96 L 204.7,-540.788 L 204.433,-540.669 L 204.146,-540.608
 z
M 271.854,-524.608 L 271.567,-524.669 L 271.3,-524.788 L 271.063,-524.96 L 270.867,-525.177 L 270.721,-525.431
 L 270.631,-525.709 L 270.6,-526 L 270.631,-526.291 L 270.721,-526.569 L 270.867,-526.823 L 271.063,-527.04
 L 271.3,-527.212 L 271.567,-527.331 L 271.854,-527.392 L 272.146,-527.392 L 272.433,-527.331 L 272.7,-527.212
 L 272.937,-527.04 L 273.133,-526.823 L 273.279,-526.569 L 273.369,-526.291 L 273.4,-526 L 273.369,-525.709
 L 273.279,-525.431 L 273.133,-525.177 L 272.937,-524.96 L 272.7,-524.788 L 272.433,-524.669 L 272.146,-524.608
 z
M 171.854,-524.608 L 171.567,-524.669 L 171.3,-524.788 L 171.063,-524.96 L 170.867,-525.177 L 170.721,-525.431
 L 170.631,-525.709 L 170.6,-526 L 170.631,-526.291 L 170.721,-526.569 L 170.867,-526.823 L 171.063,-527.04
 L 171.3,-527.212 L 171.567,-527.331 L 171.854,-527.392 L 172.146,-527.392 L 172.433,-527.331 L 172.7,-527.212
 L 172.937,-527.04 L 173.133,-526.823 L 173.279,-526.569 L 173.369,-526.291 L 173.4,-526 L 173.369,-525.709
 L 173.279,-525.431 L 173.133,-525.177 L 172.937,-524.96 L 172.7,-524.788 L 172.433,-524.669 L 172.146,-524.608
 z
M 71.8537,-524.608 L 71.5674,-524.669 L 71.3,-524.788 L 71.0632,-524.96 L 70.8674,-525.177 L 70.721,-525.431
 L 70.6306,-525.709 L 70.6,-526 L 70.6306,-526.291 L 70.721,-526.569 L 70.8674,-526.823 L 71.0632,-527.04
 L 71.3,-527.212 L 71.5674,-527.331 L 71.8537,-527.392 L 72.1463,-527.392 L 72.4326,-527.331 L 72.7,-527.212
 L 72.9368,-527.04 L 73.1326,-526.823 L 73.279,-526.569 L 73.3694,-526.291 L 73.4,-526 L 73.3694,-525.709
 L 73.279,-525.431 L 73.1326,-525.177 L 72.9368,-524.96 L 72.7,-524.788 L 72.4326,-524.669 L 72.1463,-524.608
 z
M 121.854,-524.608 L 121.567,-524.669 L 121.3,-524.788 L 121.063,-524.96 L 120.867,-525.177 L 120.721,-525.431
 L 120.631,-525.709 L 120.6,-526 L 120.631,-526.291 L 120.721,-526.569 L 120.867,-526.823 L 121.063,-527.04
 L 121.3,-527.212 L 121.567,-527.331 L 121.854,-527.392 L 122.146,-527.392 L 122.433,-527.331 L 122.7,-527.212
 L 122.937,-527.04 L 123.133,-526.823 L 123.279,-526.569 L 123.369,-526.291 L 123.4,-526 L 123.369,-525.709
 L 123.279,-525.431 L 123.133,-525.177 L 122.937,-524.96 L 122.7,-524.788 L 122.433,-524.669 L 122.146,-524.608
 z
M 221.854,-524.608 L 221.567,-524.669 L 221.3,-524.788 L 221.063,-524.96 L 220.867,-525.177 L 220.721,-525.431
 L 220.631,-525.709 L 220.6,-526 L 220.631,-526.291 L 220.721,-526.569 L 220.867,-526.823 L 221.063,-527.04
 L 221.3,-527.212 L 221.567,-527.331 L 221.854,-527.392 L 222.146,-527.392 L 222.433,-527.331 L 222.7,-527.212
 L 222.937,-527.04 L 223.133,-526.823 L 223.279,-526.569 L 223.369,-526.291 L 223.4,-526 L 223.369,-525.709
 L 223.279,-525.431 L 223.133,-525.177 L 222.937,-524.96 L 222.7,-524.788 L 222.433,-524.669 L 222.146,-524.608
 z
M 203.854,-518.608 L 203.567,-518.669 L 203.3,-518.788 L 203.063,-518.96 L 202.867,-519.177 L 202.721,-519.431
 L 202.631,-519.709 L 202.6,-520 L 202.631,-520.291 L 202.721,-520.569 L 202.867,-520.823 L 203.063,-521.04
 L 203.3,-521.212 L 203.567,-521.331 L 203.854,-521.392 L 204.146,-521.392 L 204.433,-521.331 L 204.7,-521.212
 L 204.937,-521.04 L 205.133,-520.823 L 205.279,-520.569 L 205.369,-520.291 L 205.4,-520 L 205.369,-519.709
 L 205.279,-519.431 L 205.133,-519.177 L 204.937,-518.96 L 204.7,-518.788 L 204.433,-518.669 L 204.146,-518.608
 z
M 34.8537,-514.608 L 34.5674,-514.669 L 34.3,-514.788 L 34.0632,-514.96 L 33.8674,-515.177 L 33.721,-515.431
 L 33.6306,-515.709 L 33.6,-516 L 33.6306,-516.291 L 33.721,-516.569 L 33.8674,-516.823 L 34.0632,-517.04
 L 34.3,-517.212 L 34.5674,-517.331 L 34.8537,-517.392 L 35.1463,-517.392 L 35.4326,-517.331 L 35.7,-517.212
 L 35.9368,-517.04 L 36.1326,-516.823 L 36.279,-516.569 L 36.3694,-516.291 L 36.4,-516 L 36.3694,-515.709
 L 36.279,-515.431 L 36.1326,-515.177 L 35.9368,-514.96 L 35.7,-514.788 L 35.4326,-514.669 L 35.1463,-514.608
 z
M 321.854,-514.608 L 321.567,-514.669 L 321.3,-514.788 L 321.063,-514.96 L 320.867,-515.177 L 320.721,-515.431
 L 320.631,-515.709 L 320.6,-516 L 320.631,-516.291 L 320.721,-516.569 L 320.867,-516.823 L 321.063,-517.04
 L 321.3,-517.212 L 321.567,-517.331 L 321.854,-517.392 L 322.146,-517.392 L 322.433,-517.331 L 322.7,-517.212
 L 322.937,-517.04 L 323.133,-516.823 L 323.279,-516.569 L 323.369,-516.291 L 323.4,-516 L 323.369,-515.709
 L 323.279,-515.431 L 323.133,-515.177 L 322.937,-514.96 L 322.7,-514.788 L 322.433,-514.669 L 322.146,-514.608
 z
M 321.854,-464.608 L 321.567,-464.669 L 321.3,-464.788 L 321.063,-464.96 L 320.867,-465.177 L 320.721,-465.431
 L 320.631,-465.709 L 320.6,-466 L 320.631,-466.291 L 320.721,-466.569 L 320.867,-466.823 L 321.063,-467.04
 L 321.3,-467.212 L 321.567,-467.331 L 321.854,-467.392 L 322.146,-467.392 L 322.433,-467.331 L 322.7,-467.212
 L 322.937,-467.04 L 323.133,-466.823 L 323.279,-466.569 L 323.369,-466.291 L 323.4,-466 L 323.369,-465.709
 L 323.279,-465.431 L 323.133,-465.177 L 322.937,-464.96 L 322.7,-464.788 L 322.433,-464.669 L 322.146,-464.608
 z
M 34.8537,-464.608 L 34.5674,-464.669 L 34.3,-464.788 L 34.0632,-464.96 L 33.8674,-465.177 L 33.721,-465.431
 L 33.6306,-465.709 L 33.6,-466 L 33.6306,-466.291 L 33.721,-466.569 L 33.8674,-466.823 L 34.0632,-467.04
 L 34.3,-467.212 L 34.5674,-467.331 L 34.8537,-467.392 L 35.1463,-467.392 L 35.4326,-467.331 L 35.7,-467.212
 L 35.9368,-467.04 L 36.1326,-466.823 L 36.279,-466.569 L 36.3694,-466.291 L 36.4,-466 L 36.3694,-465.709
 L 36.279,-465.431 L 36.1326,-465.177 L 35.9368,-464.96 L 35.7,-464.788 L 35.4326,-464.669 L 35.1463,-464.608
 z
M 163.176,-437.917 L 162.542,-438.052 L 161.95,-438.315 L 161.426,-438.696 L 160.992,-439.178 L 160.668,-439.739
 L 160.468,-440.355 L 160.4,-441 L 160.468,-441.645 L 160.668,-442.261 L 160.992,-442.822 L 161.426,-443.304
 L 161.95,-443.685 L 162.542,-443.948 L 163.176,-444.083 L 163.824,-444.083 L 164.458,-443.948 L 165.05,-443.685
 L 165.574,-443.304 L 166.008,-442.822 L 166.332,-442.261 L 166.532,-441.645 L 166.6,-441 L 166.532,-440.355
 L 166.332,-439.739 L 166.008,-439.178 L 165.574,-438.696 L 165.05,-438.315 L 164.458,-438.052 L 163.824,-437.917
 z
M 121.854,-434.608 L 121.567,-434.669 L 121.3,-434.788 L 121.063,-434.96 L 120.867,-435.177 L 120.721,-435.431
 L 120.631,-435.709 L 120.6,-436 L 120.631,-436.291 L 120.721,-436.569 L 120.867,-436.823 L 121.063,-437.04
 L 121.3,-437.212 L 121.567,-437.331 L 121.854,-437.392 L 122.146,-437.392 L 122.433,-437.331 L 122.7,-437.212
 L 122.937,-437.04 L 123.133,-436.823 L 123.279,-436.569 L 123.369,-436.291 L 123.4,-436 L 123.369,-435.709
 L 123.279,-435.431 L 123.133,-435.177 L 122.937,-434.96 L 122.7,-434.788 L 122.433,-434.669 L 122.146,-434.608
 z
M 221.854,-434.608 L 221.567,-434.669 L 221.3,-434.788 L 221.063,-434.96 L 220.867,-435.177 L 220.721,-435.431
 L 220.631,-435.709 L 220.6,-436 L 220.631,-436.291 L 220.721,-436.569 L 220.867,-436.823 L 221.063,-437.04
 L 221.3,-437.212 L 221.567,-437.331 L 221.854,-437.392 L 222.146,-437.392 L 222.433,-437.331 L 222.7,-437.212
 L 222.937,-437.04 L 223.133,-436.823 L 223.279,-436.569 L 223.369,-436.291 L 223.4,-436 L 223.369,-435.709
 L 223.279,-435.431 L 223.133,-435.177 L 222.937,-434.96 L 222.7,-434.788 L 222.433,-434.669 L 222.146,-434.608
 z
M 71.8537,-434.608 L 71.5674,-434.669 L 71.3,-434.788 L 71.0632,-434.96 L 70.8674,-435.177 L 70.721,-435.431
 L 70.6306,-435.709 L 70.6,-436 L 70.6306,-436.291 L 70.721,-436.569 L 70.8674,-436.823 L 71.0632,-437.04
 L 71.3,-437.212 L 71.5674,-437.331 L 71.8537,-437.392 L 72.1463,-437.392 L 72.4326,-437.331 L 72.7,-437.212
 L 72.9368,-437.04 L 73.1326,-436.823 L 73.279,-436.569 L 73.3694,-436.291 L 73.4,-436 L 73.3694,-435.709
 L 73.279,-435.431 L 73.1326,-435.177 L 72.9368,-434.96 L 72.7,-434.788 L 72.4326,-434.669 L 72.1463,-434.608
 z
M 321.854,-434.608 L 321.567,-434.669 L 321.3,-434.788 L 321.063,-434.96 L 320.867,-435.177 L 320.721,-435.431
 L 320.631,-435.709 L 320.6,-436 L 320.631,-436.291 L 320.721,-436.569 L 320.867,-436.823 L 321.063,-437.04
 L 321.3,-437.212 L 321.567,-437.331 L 321.854,-437.392 L 322.146,-437.392 L 322.433,-437.331 L 322.7,-437.212
 L 322.937,-437.04 L 323.133,-436.823 L 323.279,-436.569 L 323.369,-436.291 L 323.4,-436 L 323.369,-435.709
 L 323.279,-435.431 L 323.133,-435.177 L 322.937,-434.96 L 322.7,-434.788 L 322.433,-434.669 L 322.146,-434.608
 z
M 271.854,-434.608 L 271.567,-434.669 L 271.3,-434.788 L 271.063,-434.96 L 270.867,-435.177 L 270.721,-435.431
 L 270.631,-435.709 L 270.6,-436 L 270.631,-436.291 L 270.721,-436.569 L 270.867,-436.823 L 271.063,-437.04
 L 271.3,-437.212 L 271.567,-437.331 L 271.854,-437.392 L 272.146,-437.392 L 272.433,-437.331 L 272.7,-437.212
 L 272.937,-437.04 L 273.133,-436.823 L 273.279,-436.569 L 273.369,-436.291 L 273.4,-436 L 273.369,-435.709
 L 273.279,-435.431 L 273.133,-435.177 L 272.937,-434.96 L 272.7,-434.788 L 272.433,-434.669 L 272.146,-434.608
 z
M 171.176,-427.917 L 170.542,-428.052 L 169.95,-428.315 L 169.426,-428.696 L 168.992,-429.178 L 168.668,-429.739
 L 168.468,-430.355 L 168.4,-431 L 168.468,-431.645 L 168.668,-432.261 L 168.992,-432.822 L 169.426,-433.304
 L 169.95,-433.685 L 170.542,-433.948 L 171.176,-434.083 L 171.824,-434.083 L 172.458,-433.948 L 173.05,-433.685
 L 173.574,-433.304 L 174.008,-432.822 L 174.332,-432.261 L 174.532,-431.645 L 174.6,-431 L 174.532,-430.355
 L 174.332,-429.739 L 174.008,-429.178 L 173.574,-428.696 L 173.05,-428.315 L 172.458,-428.052 L 171.824,-427.917
 z
M 155.176,-427.917 L 154.542,-428.052 L 153.95,-428.315 L 153.426,-428.696 L 152.992,-429.178 L 152.668,-429.739
 L 152.468,-430.355 L 152.4,-431 L 152.468,-431.645 L 152.668,-432.261 L 152.992,-432.822 L 153.426,-433.304
 L 153.95,-433.685 L 154.542,-433.948 L 155.176,-434.083 L 155.824,-434.083 L 156.458,-433.948 L 157.05,-433.685
 L 157.574,-433.304 L 158.008,-432.822 L 158.332,-432.261 L 158.532,-431.645 L 158.6,-431 L 158.532,-430.355
 L 158.332,-429.739 L 158.008,-429.178 L 157.574,-428.696 L 157.05,-428.315 L 156.458,-428.052 L 155.824,-427.917
 z
M 163.301,-419.11 L 162.913,-419.193 L 162.55,-419.355 L 162.229,-419.588 L 161.963,-419.883 L 161.764,-420.227
 L 161.642,-420.605 L 161.6,-421 L 161.642,-421.395 L 161.764,-421.773 L 161.963,-422.117 L 162.229,-422.412
 L 162.55,-422.645 L 162.913,-422.807 L 163.301,-422.89 L 163.699,-422.89 L 164.087,-422.807 L 164.45,-422.645
 L 164.771,-422.412 L 165.037,-422.117 L 165.236,-421.773 L 165.358,-421.395 L 165.4,-421 L 165.358,-420.605
 L 165.236,-420.227 L 165.037,-419.883 L 164.771,-419.588 L 164.45,-419.355 L 164.087,-419.193 L 163.699,-419.11
 z
M 34.8537,-414.608 L 34.5674,-414.669 L 34.3,-414.788 L 34.0632,-414.96 L 33.8674,-415.177 L 33.721,-415.431
 L 33.6306,-415.709 L 33.6,-416 L 33.6306,-416.291 L 33.721,-416.569 L 33.8674,-416.823 L 34.0632,-417.04
 L 34.3,-417.212 L 34.5674,-417.331 L 34.8537,-417.392 L 35.1463,-417.392 L 35.4326,-417.331 L 35.7,-417.212
 L 35.9368,-417.04 L 36.1326,-416.823 L 36.279,-416.569 L 36.3694,-416.291 L 36.4,-416 L 36.3694,-415.709
 L 36.279,-415.431 L 36.1326,-415.177 L 35.9368,-414.96 L 35.7,-414.788 L 35.4326,-414.669 L 35.1463,-414.608
 z
M 321.854,-414.608 L 321.567,-414.669 L 321.3,-414.788 L 321.063,-414.96 L 320.867,-415.177 L 320.721,-415.431
 L 320.631,-415.709 L 320.6,-416 L 320.631,-416.291 L 320.721,-416.569 L 320.867,-416.823 L 321.063,-417.04
 L 321.3,-417.212 L 321.567,-417.331 L 321.854,-417.392 L 322.146,-417.392 L 322.433,-417.331 L 322.7,-417.212
 L 322.937,-417.04 L 323.133,-416.823 L 323.279,-416.569 L 323.369,-416.291 L 323.4,-416 L 323.369,-415.709
 L 323.279,-415.431 L 323.133,-415.177 L 322.937,-414.96 L 322.7,-414.788 L 322.433,-414.669 L 322.146,-414.608
 z
M 321.854,-364.608 L 321.567,-364.669 L 321.3,-364.788 L 321.063,-364.96 L 320.867,-365.177 L 320.721,-365.431
 L 320.631,-365.709 L 320.6,-366 L 320.631,-366.291 L 320.721,-366.569 L 320.867,-366.823 L 321.063,-367.04
 L 321.3,-367.212 L 321.567,-367.331 L 321.854,-367.392 L 322.146,-367.392 L 322.433,-367.331 L 322.7,-367.212
 L 322.937,-367.04 L 323.133,-366.823 L 323.279,-366.569 L 323.369,-366.291 L 323.4,-366 L 323.369,-365.709
 L 323.279,-365.431 L 323.133,-365.177 L 322.937,-364.96 L 322.7,-364.788 L 322.433,-364.669 L 322.146,-364.608
 z
M 34.8537,-364.608 L 34.5674,-364.669 L 34.3,-364.788 L 34.0632,-364.96 L 33.8674,-365.177 L 33.721,-365.431
 L 33.6306,-365.709 L 33.6,-366 L 33.6306,-366.291 L 33.721,-366.569 L 33.8674,-366.823 L 34.0632,-367.04
 L 34.3,-367.212 L 34.5674,-367.331 L 34.8537,-367.392 L 35.1463,-367.392 L 35.4326,-367.331 L 35.7,-367.212
 L 35.9368,-367.04 L 36.1326,-366.823 L 36.279,-366.569 L 36.3694,-366.291 L 36.4,-366 L 36.3694,-365.709
 L 36.279,-365.431 L 36.1326,-365.177 L 35.9368,-364.96 L 35.7,-364.788 L 35.4326,-364.669 L 35.1463,-364.608
 z
M 244.854,-334.608 L 244.567,-334.669 L 244.3,-334.788 L 244.063,-334.96 L 243.867,-335.177 L 243.721,-335.431
 L 243.631,-335.709 L 243.6,-336 L 243.631,-336.291 L 243.721,-336.569 L 243.867,-336.823 L 244.063,-337.04
 L 244.3,-337.212 L 244.567,-337.331 L 244.854,-337.392 L 245.146,-337.392 L 245.433,-337.331 L 245.7,-337.212
 L 245.937,-337.04 L 246.133,-336.823 L 246.279,-336.569 L 246.369,-336.291 L 246.4,-336 L 246.369,-335.709
 L 246.279,-335.431 L 246.133,-335.177 L 245.937,-334.96 L 245.7,-334.788 L 245.433,-334.669 L 245.146,-334.608
 z
M 71.8537,-334.608 L 71.5674,-334.669 L 71.3,-334.788 L 71.0632,-334.96 L 70.8674,-335.177 L 70.721,-335.431
 L 70.6306,-335.709 L 70.6,-336 L 70.6306,-336.291 L 70.721,-336.569 L 70.8674,-336.823 L 71.0632,-337.04
 L 71.3,-337.212 L 71.5674,-337.331 L 71.8537,-337.392 L 72.1463,-337.392 L 72.4326,-337.331 L 72.7,-337.212
 L 72.9368,-337.04 L 73.1326,-336.823 L 73.279,-336.569 L 73.3694,-336.291 L 73.4,-336 L 73.3694,-335.709
 L 73.279,-335.431 L 73.1326,-335.177 L 72.9368,-334.96 L 72.7,-334.788 L 72.4326,-334.669 L 72.1463,-334.608
 z
M 35.8537,-334.608 L 35.5674,-334.669 L 35.3,-334.788 L 35.0632,-334.96 L 34.8674,-335.177 L 34.721,-335.431
 L 34.6306,-335.709 L 34.6,-336 L 34.6306,-336.291 L 34.721,-336.569 L 34.8674,-336.823 L 35.0632,-337.04
 L 35.3,-337.212 L 35.5674,-337.331 L 35.8537,-337.392 L 36.1463,-337.392 L 36.4326,-337.331 L 36.7,-337.212
 L 36.9368,-337.04 L 37.1326,-336.823 L 37.279,-336.569 L 37.3694,-336.291 L 37.4,-336 L 37.3694,-335.709
 L 37.279,-335.431 L 37.1326,-335.177 L 36.9368,-334.96 L 36.7,-334.788 L 36.4326,-334.669 L 36.1463,-334.608
 z
M 221.854,-337.392 L 222.146,-337.392 L 222.433,-337.331 L 222.7,-337.212 L 222.937,-337.04 L 223.133,-336.823
 L 223.279,-336.569 L 223.369,-336.291 L 223.4,-336 L 223.369,-335.709 L 223.279,-335.431 L 223.133,-335.177
 L 222.937,-334.96 L 222.7,-334.788 L 222.433,-334.669 L 222.146,-334.608 L 221.854,-334.608 L 221.567,-334.669
 L 221.3,-334.788 L 221.063,-334.96 L 220.867,-335.177 L 220.721,-335.431 L 220.631,-335.709 L 220.6,-336
 L 220.631,-336.291 L 220.721,-336.569 L 220.867,-336.823 L 221.063,-337.04 L 221.3,-337.212 L 221.567,-337.331
 z
M 121.854,-334.608 L 121.567,-334.669 L 121.3,-334.788 L 121.063,-334.96 L 120.867,-335.177 L 120.721,-335.431
 L 120.631,-335.709 L 120.6,-336 L 120.631,-336.291 L 120.721,-336.569 L 120.867,-336.823 L 121.063,-337.04
 L 121.3,-337.212 L 121.567,-337.331 L 121.854,-337.392 L 122.146,-337.392 L 122.433,-337.331 L 122.7,-337.212
 L 122.937,-337.04 L 123.133,-336.823 L 123.279,-336.569 L 123.369,-336.291 L 123.4,-336 L 123.369,-335.709
 L 123.279,-335.431 L 123.133,-335.177 L 122.937,-334.96 L 122.7,-334.788 L 122.433,-334.669 L 122.146,-334.608
 z
M 271.854,-334.608 L 271.567,-334.669 L 271.3,-334.788 L 271.063,-334.96 L 270.867,-335.177 L 270.721,-335.431
 L 270.631,-335.709 L 270.6,-336 L 270.631,-336.291 L 270.721,-336.569 L 270.867,-336.823 L 271.063,-337.04
 L 271.3,-337.212 L 271.567,-337.331 L 271.854,-337.392 L 272.146,-337.392 L 272.433,-337.331 L 272.7,-337.212
 L 272.937,-337.04 L 273.133,-336.823 L 273.279,-336.569 L 273.369,-336.291 L 273.4,-336 L 273.369,-335.709
 L 273.279,-335.431 L 273.133,-335.177 L 272.937,-334.96 L 272.7,-334.788 L 272.433,-334.669 L 272.146,-334.608
 z
M 321.854,-314.608 L 321.567,-314.669 L 321.3,-314.788 L 321.063,-314.96 L 320.867,-315.177 L 320.721,-315.431
 L 320.631,-315.709 L 320.6,-316 L 320.631,-316.291 L 320.721,-316.569 L 320.867,-316.823 L 321.063,-317.04
 L 321.3,-317.212 L 321.567,-317.331 L 321.854,-317.392 L 322.146,-317.392 L 322.433,-317.331 L 322.7,-317.212
 L 322.937,-317.04 L 323.133,-316.823 L 323.279,-316.569 L 323.369,-316.291 L 323.4,-316 L 323.369,-315.709
 L 323.279,-315.431 L 323.133,-315.177 L 322.937,-314.96 L 322.7,-314.788 L 322.433,-314.669 L 322.146,-314.608
 z
M 34.8537,-314.608 L 34.5674,-314.669 L 34.3,-314.788 L 34.0632,-314.96 L 33.8674,-315.177 L 33.721,-315.431
 L 33.6306,-315.709 L 33.6,-316 L 33.6306,-316.291 L 33.721,-316.569 L 33.8674,-316.823 L 34.0632,-317.04
 L 34.3,-317.212 L 34.5674,-317.331 L 34.8537,-317.392 L 35.1463,-317.392 L 35.4326,-317.331 L 35.7,-317.212
 L 35.9368,-317.04 L 36.1326,-316.823 L 36.279,-316.569 L 36.3694,-316.291 L 36.4,-316 L 36.3694,-315.709
 L 36.279,-315.431 L 36.1326,-315.177 L 35.9368,-314.96 L 35.7,-314.788 L 35.4326,-314.669 L 35.1463,-314.608
 z
M 173.133,-336.823 L 173.279,-336.569 L 173.369,-336.291 L 173.4,-336 L 173.369,-335.709 L 173.279,-335.431
 L 173.133,-335.177 L 172.937,-334.96 L 172.7,-334.788 L 172.433,-334.669 L 172.146,-334.608 L 171.854,-334.608
 L 171.567,-334.669 L 171.3,-334.788 L 171.063,-334.96 L 170.867,-335.177 L 170.721,-335.431 L 170.631,-335.709
 L 170.6,-336 L 170.631,-336.291 L 170.721,-336.569 L 170.867,-336.823 L 171.063,-337.04 L 171.3,-337.212
 L 171.567,-337.331 L 171.854,-337.392 L 172.146,-337.392 L 172.433,-337.331 L 172.7,-337.212 L 172.937,-337.04
 z
" stroke="black" fill="lightgray" stroke-width="0.5"/></svg>
