<?xml version="1.0" standalone="no"?>
<!DOCTYPE svg PUBLIC "-//W3C//DTD SVG 1.1//EN" "http://www.w3.org/Graphics/SVG/1.1/DTD/svg11.dtd">
<svg width="146" height="91" viewBox="-33 -78 146 91" xmlns="http://www.w3.org/2000/svg" version="1.1">
<title>OpenSCAD Model</title>
<path d="
M 113,-78 L -33,-78 L -33,13 L 113,13 z
M -21.4846,-66.1904 L -21.8525,-66.3099 L -22.1874,-66.5033 L -22.4748,-66.7621 L -22.7021,-67.075 L -22.8595,-67.4283
 L -22.9399,-67.8066 L -22.9399,-68.1934 L -22.8595,-68.5717 L -22.7021,-68.925 L -22.4748,-69.2379 L -22.1874,-69.4967
 L -21.8525,-69.69 L -21.4846,-69.8096 L -21.1,-69.85 L -20.7154,-69.8096 L -20.3475,-69.69 L -20.0126,-69.4967
 L -19.7252,-69.2379 L -19.4978,-68.925 L -19.3405,-68.5717 L -19.2601,-68.1934 L -19.2601,-67.8066 L -19.3405,-67.4283
 L -19.4978,-67.075 L -19.7252,-66.7621 L -20.0126,-66.5033 L -20.3475,-66.3099 L -20.7154,-66.1904 L -21.1,-66.15
 z
M 100.715,-65.8904 L 100.348,-66.0099 L 100.013,-66.2033 L 99.7252,-66.4621 L 99.4978,-66.775 L 99.3405,-67.1283
 L 99.2601,-67.5066 L 99.2601,-67.8934 L 99.3405,-68.2717 L 99.4978,-68.625 L 99.7252,-68.9379 L 100.013,-69.1967
 L 100.348,-69.3901 L 100.715,-69.5096 L 101.1,-69.55 L 101.485,-69.5096 L 101.852,-69.3901 L 102.187,-69.1967
 L 102.475,-68.9379 L 102.702,-68.625 L 102.859,-68.2717 L 102.94,-67.8934 L 102.94,-67.5066 L 102.859,-67.1283
 L 102.702,-66.775 L 102.475,-66.4621 L 102.187,-66.2033 L 101.852,-66.0099 L 101.485,-65.8904 L 101.1,-65.85
 z
M -21.4846,4.80957 L -21.8525,4.69005 L -22.1874,4.49667 L -22.4748,4.23788 L -22.7021,3.92499 L -22.8595,3.57167
 L -22.9399,3.19337 L -22.9399,2.80661 L -22.8595,2.42831 L -22.7021,2.075 L -22.4748,1.7621 L -22.1874,1.50331
 L -21.8525,1.30994 L -21.4846,1.19041 L -21.1,1.14999 L -20.7154,1.19041 L -20.3475,1.30994 L -20.0126,1.50331
 L -19.7252,1.7621 L -19.4978,2.075 L -19.3405,2.42831 L -19.2601,2.80661 L -19.2601,3.19337 L -19.3405,3.57167
 L -19.4978,3.92499 L -19.7252,4.23788 L -20.0126,4.49667 L -20.3475,4.69005 L -20.7154,4.80957 L -21.1,4.84999
 z
M 100.715,5.20956 L 100.348,5.09006 L 100.013,4.89667 L 99.7252,4.63788 L 99.4978,4.325 L 99.3405,3.97168
 L 99.2601,3.59337 L 99.2601,3.20662 L 99.3405,2.82831 L 99.4978,2.47499 L 99.7252,2.16209 L 100.013,1.90331
 L 100.348,1.70993 L 100.715,1.59042 L 101.1,1.54999 L 101.485,1.59042 L 101.852,1.70993 L 102.187,1.90331
 L 102.475,2.16209 L 102.702,2.47499 L 102.859,2.82831 L 102.94,3.20662 L 102.94,3.59337 L 102.859,3.97168
 L 102.702,4.325 L 102.475,4.63788 L 102.187,4.89667 L 101.852,5.09006 L 101.485,5.20956 L 101.1,5.25
 z
" stroke="black" fill="lightgray" stroke-width="0.5"/></svg>
