<?xml version="1.0" standalone="no"?>
<!DOCTYPE svg PUBLIC "-//W3C//DTD SVG 1.1//EN" "http://www.w3.org/Graphics/SVG/1.1/DTD/svg11.dtd">
<svg width="146" height="91" viewBox="-2 14 146 91" xmlns="http://www.w3.org/2000/svg" version="1.1">
<title>OpenSCAD Model</title>
<path d="
M 144,14 L -2,14 L -2,105 L 144,105 z
M 9.51535,25.8096 L 9.14754,25.69 L 8.81259,25.4967 L 8.52518,25.2379 L 8.29785,24.925 L 8.14053,24.5717
 L 8.06013,24.1934 L 8.06013,23.8066 L 8.14053,23.4283 L 8.29785,23.075 L 8.52518,22.7621 L 8.81259,22.5033
 L 9.14754,22.3099 L 9.51535,22.1904 L 9.89999,22.15 L 10.2846,22.1904 L 10.6525,22.3099 L 10.9874,22.5033
 L 11.2748,22.7621 L 11.5021,23.075 L 11.6595,23.4283 L 11.7399,23.8066 L 11.7399,24.1934 L 11.6595,24.5717
 L 11.5021,24.925 L 11.2748,25.2379 L 10.9874,25.4967 L 10.6525,25.69 L 10.2846,25.8096 L 9.89999,25.85
 z
M 134.515,29.8096 L 134.148,29.69 L 133.813,29.4967 L 133.525,29.2379 L 133.298,28.925 L 133.141,28.5717
 L 133.06,28.1934 L 133.06,27.8066 L 133.141,27.4283 L 133.298,27.075 L 133.525,26.7621 L 133.813,26.5033
 L 134.148,26.3099 L 134.515,26.1904 L 134.9,26.15 L 135.285,26.1904 L 135.652,26.3099 L 135.987,26.5033
 L 136.275,26.7621 L 136.502,27.075 L 136.659,27.4283 L 136.74,27.8066 L 136.74,28.1934 L 136.659,28.5717
 L 136.502,28.925 L 136.275,29.2379 L 135.987,29.4967 L 135.652,29.69 L 135.285,29.8096 L 134.9,29.85
 z
M 127.828,47.041 L 127.49,46.9692 L 127.175,46.8289 L 126.896,46.6262 L 126.665,46.3698 L 126.493,46.0711
 L 126.386,45.743 L 126.35,45.4 L 126.386,45.0569 L 126.493,44.7289 L 126.665,44.4301 L 126.896,44.1738
 L 127.175,43.9711 L 127.49,43.8307 L 127.828,43.759 L 128.172,43.759 L 128.51,43.8307 L 128.825,43.9711
 L 129.104,44.1738 L 129.335,44.4301 L 129.507,44.7289 L 129.614,45.0569 L 129.65,45.4 L 129.614,45.743
 L 129.507,46.0711 L 129.335,46.3698 L 129.104,46.6262 L 128.825,46.8289 L 128.51,46.9692 L 128.172,47.041
 z
M 122.65,66.6 L 122.65,53.4 L 133.35,53.4 L 133.35,66.6 z
M 127.828,76.241 L 127.49,76.1692 L 127.175,76.0289 L 126.896,75.8262 L 126.665,75.5698 L 126.493,75.2711
 L 126.386,74.9431 L 126.35,74.6 L 126.386,74.2569 L 126.493,73.9289 L 126.665,73.6302 L 126.896,73.3738
 L 127.175,73.1711 L 127.49,73.0307 L 127.828,72.959 L 128.172,72.959 L 128.51,73.0307 L 128.825,73.1711
 L 129.104,73.3738 L 129.335,73.6302 L 129.507,73.9289 L 129.614,74.2569 L 129.65,74.6 L 129.614,74.9431
 L 129.507,75.2711 L 129.335,75.5698 L 129.104,75.8262 L 128.825,76.0289 L 128.51,76.1692 L 128.172,76.241
 z
M 134.515,93.8096 L 134.148,93.69 L 133.813,93.4967 L 133.525,93.2379 L 133.298,92.925 L 133.141,92.5717
 L 133.06,92.1934 L 133.06,91.8066 L 133.141,91.4283 L 133.298,91.075 L 133.525,90.7621 L 133.813,90.5033
 L 134.148,90.3099 L 134.515,90.1904 L 134.9,90.15 L 135.285,90.1904 L 135.652,90.3099 L 135.987,90.5033
 L 136.275,90.7621 L 136.502,91.075 L 136.659,91.4283 L 136.74,91.8066 L 136.74,92.1934 L 136.659,92.5717
 L 136.502,92.925 L 136.275,93.2379 L 135.987,93.4967 L 135.652,93.69 L 135.285,93.8096 L 134.9,93.85
 z
M 9.51535,96.8096 L 9.14754,96.69 L 8.81259,96.4967 L 8.52518,96.2379 L 8.29785,95.925 L 8.14053,95.5717
 L 8.06013,95.1934 L 8.06013,94.8066 L 8.14053,94.4283 L 8.29785,94.075 L 8.52518,93.7621 L 8.81259,93.5033
 L 9.14754,93.3099 L 9.51535,93.1904 L 9.89999,93.15 L 10.2846,93.1904 L 10.6525,93.3099 L 10.9874,93.5033
 L 11.2748,93.7621 L 11.5021,94.075 L 11.6595,94.4283 L 11.7399,94.8066 L 11.7399,95.1934 L 11.6595,95.5717
 L 11.5021,95.925 L 11.2748,96.2379 L 10.9874,96.4967 L 10.6525,96.69 L 10.2846,96.8096 L 9.89999,96.85
 z
" stroke="black" fill="lightgray" stroke-width="0.5"/></svg>
