<?xml version="1.0" standalone="no"?>
<!DOCTYPE svg PUBLIC "-//W3C//DTD SVG 1.1//EN" "http://www.w3.org/Graphics/SVG/1.1/DTD/svg11.dtd">
<svg width="150" height="85" viewBox="0 -75 150 85" xmlns="http://www.w3.org/2000/svg" version="1.1">
<title>OpenSCAD Model</title>
<path d="
M 150,-75 L 0,-75 L 0,10 L 150,10 z
M 9.80661,-66.1601 L 9.42831,-66.2405 L 9.075,-66.3978 L 8.7621,-66.6252 L 8.50331,-66.9126 L 8.30994,-67.2475
 L 8.19041,-67.6154 L 8.14999,-68 L 8.19041,-68.3846 L 8.30994,-68.7525 L 8.50331,-69.0874 L 8.7621,-69.3748
 L 9.075,-69.6021 L 9.42831,-69.7594 L 9.80661,-69.8399 L 10.1934,-69.8399 L 10.5717,-69.7594 L 10.925,-69.6021
 L 11.2379,-69.3748 L 11.4967,-69.0874 L 11.69,-68.7525 L 11.8096,-68.3846 L 11.85,-68 L 11.8096,-67.6154
 L 11.69,-67.2475 L 11.4967,-66.9126 L 11.2379,-66.6252 L 10.925,-66.3978 L 10.5717,-66.2405 L 10.1934,-66.1601
 z
M 139.807,-66.1601 L 139.428,-66.2405 L 139.075,-66.3978 L 138.762,-66.6252 L 138.503,-66.9126 L 138.31,-67.2475
 L 138.19,-67.6154 L 138.15,-68 L 138.19,-68.3846 L 138.31,-68.7525 L 138.503,-69.0874 L 138.762,-69.3748
 L 139.075,-69.6021 L 139.428,-69.7594 L 139.807,-69.8399 L 140.193,-69.8399 L 140.572,-69.7594 L 140.925,-69.6021
 L 141.238,-69.3748 L 141.497,-69.0874 L 141.69,-68.7525 L 141.81,-68.3846 L 141.85,-68 L 141.81,-67.6154
 L 141.69,-67.2475 L 141.497,-66.9126 L 141.238,-66.6252 L 140.925,-66.3978 L 140.572,-66.2405 L 140.193,-66.1601
 z
M 109.702,-12.1656 L 109.119,-12.2895 L 108.575,-12.5318 L 108.093,-12.882 L 107.694,-13.3248 L 107.396,-13.8408
 L 107.212,-14.4074 L 107.15,-15 L 107.212,-15.5925 L 107.396,-16.1592 L 107.694,-16.6752 L 108.093,-17.118
 L 108.575,-17.4682 L 109.119,-17.7105 L 109.702,-17.8344 L 110.298,-17.8344 L 110.881,-17.7105 L 111.425,-17.4682
 L 111.907,-17.118 L 112.306,-16.6752 L 112.604,-16.1592 L 112.788,-15.5925 L 112.85,-15 L 112.788,-14.4074
 L 112.604,-13.8408 L 112.306,-13.3248 L 111.907,-12.882 L 111.425,-12.5318 L 110.881,-12.2895 L 110.298,-12.1656
 z
M 29.7021,-12.1656 L 29.1193,-12.2895 L 28.575,-12.5318 L 28.093,-12.882 L 27.6943,-13.3248 L 27.3964,-13.8408
 L 27.2123,-14.4074 L 27.15,-15 L 27.2123,-15.5925 L 27.3964,-16.1592 L 27.6943,-16.6752 L 28.093,-17.118
 L 28.575,-17.4682 L 29.1193,-17.7105 L 29.7021,-17.8344 L 30.2979,-17.8344 L 30.8807,-17.7105 L 31.425,-17.4682
 L 31.907,-17.118 L 32.3057,-16.6752 L 32.6036,-16.1592 L 32.7877,-15.5925 L 32.85,-15 L 32.7877,-14.4074
 L 32.6036,-13.8408 L 32.3057,-13.3248 L 31.907,-12.882 L 31.425,-12.5318 L 30.8807,-12.2895 L 30.2979,-12.1656
 z
M 139.807,4.83986 L 139.428,4.75945 L 139.075,4.60214 L 138.762,4.37482 L 138.503,4.0874 L 138.31,3.75246
 L 138.19,3.38463 L 138.15,2.99998 L 138.19,2.61536 L 138.31,2.24753 L 138.503,1.91258 L 138.762,1.62517
 L 139.075,1.39784 L 139.428,1.24054 L 139.807,1.16013 L 140.193,1.16013 L 140.572,1.24054 L 140.925,1.39784
 L 141.238,1.62517 L 141.497,1.91258 L 141.69,2.24753 L 141.81,2.61536 L 141.85,3 L 141.81,3.38463
 L 141.69,3.75246 L 141.497,4.0874 L 141.238,4.37482 L 140.925,4.60214 L 140.572,4.75945 L 140.193,4.83986
 z
M 9.80661,4.83986 L 9.42831,4.75945 L 9.075,4.60214 L 8.7621,4.37482 L 8.50331,4.0874 L 8.30994,3.75246
 L 8.19041,3.38463 L 8.14999,2.99998 L 8.19041,2.61536 L 8.30994,2.24753 L 8.50331,1.91258 L 8.7621,1.62517
 L 9.075,1.39784 L 9.42831,1.24054 L 9.80661,1.16013 L 10.1934,1.16013 L 10.5717,1.24054 L 10.925,1.39784
 L 11.2379,1.62517 L 11.4967,1.91258 L 11.69,2.24753 L 11.8096,2.61536 L 11.85,3 L 11.8096,3.38463
 L 11.69,3.75246 L 11.4967,4.0874 L 11.2379,4.37482 L 10.925,4.60214 L 10.5717,4.75945 L 10.1934,4.83986
 z
" stroke="black" fill="lightgray" stroke-width="0.5"/></svg>
