<?xml version="1.0" standalone="no"?>
<!DOCTYPE svg PUBLIC "-//W3C//DTD SVG 1.1//EN" "http://www.w3.org/Graphics/SVG/1.1/DTD/svg11.dtd">
<svg width="146" height="91" viewBox="-2 14 146 91" xmlns="http://www.w3.org/2000/svg" version="1.1">
<title>OpenSCAD Model</title>
<path d="
M 144,14 L -2,14 L -2,105 L 144,105 z
M 9.51535,25.8096 L 9.14754,25.69 L 8.81259,25.4967 L 8.52518,25.2379 L 8.29785,24.925 L 8.14053,24.5717
 L 8.06013,24.1934 L 8.06013,23.8066 L 8.14053,23.4283 L 8.29785,23.075 L 8.52518,22.7621 L 8.81259,22.5033
 L 9.14754,22.3099 L 9.51535,22.1904 L 9.89999,22.15 L 10.2846,22.1904 L 10.6525,22.3099 L 10.9874,22.5033
 L 11.2748,22.7621 L 11.5021,23.075 L 11.6595,23.4283 L 11.7399,23.8066 L 11.7399,24.1934 L 11.6595,24.5717
 L 11.5021,24.925 L 11.2748,25.2379 L 10.9874,25.4967 L 10.6525,25.69 L 10.2846,25.8096 L 9.89999,25.85
 z
M 131.715,26.1096 L 131.348,25.9901 L 131.013,25.7967 L 130.725,25.5379 L 130.498,25.225 L 130.341,24.8717
 L 130.26,24.4934 L 130.26,24.1066 L 130.341,23.7283 L 130.498,23.375 L 130.725,23.0621 L 131.013,22.8033
 L 131.348,22.6099 L 131.715,22.4904 L 132.1,22.45 L 132.485,22.4904 L 132.852,22.6099 L 133.187,22.8033
 L 133.475,23.0621 L 133.702,23.375 L 133.859,23.7283 L 133.94,24.1066 L 133.94,24.4934 L 133.859,24.8717
 L 133.702,25.225 L 133.475,25.5379 L 133.187,25.7967 L 132.852,25.9901 L 132.485,26.1096 L 132.1,26.15
 z
M 9.51535,96.8096 L 9.14754,96.69 L 8.81259,96.4967 L 8.52518,96.2379 L 8.29785,95.925 L 8.14053,95.5717
 L 8.06013,95.1934 L 8.06013,94.8066 L 8.14053,94.4283 L 8.29785,94.075 L 8.52518,93.7621 L 8.81259,93.5033
 L 9.14754,93.3099 L 9.51535,93.1904 L 9.89999,93.15 L 10.2846,93.1904 L 10.6525,93.3099 L 10.9874,93.5033
 L 11.2748,93.7621 L 11.5021,94.075 L 11.6595,94.4283 L 11.7399,94.8066 L 11.7399,95.1934 L 11.6595,95.5717
 L 11.5021,95.925 L 11.2748,96.2379 L 10.9874,96.4967 L 10.6525,96.69 L 10.2846,96.8096 L 9.89999,96.85
 z
M 131.715,97.2096 L 131.348,97.0901 L 131.013,96.8967 L 130.725,96.6379 L 130.498,96.325 L 130.341,95.9717
 L 130.26,95.5934 L 130.26,95.2066 L 130.341,94.8283 L 130.498,94.475 L 130.725,94.1621 L 131.013,93.9033
 L 131.348,93.7099 L 131.715,93.5904 L 132.1,93.55 L 132.485,93.5904 L 132.852,93.7099 L 133.187,93.9033
 L 133.475,94.1621 L 133.702,94.475 L 133.859,94.8283 L 133.94,95.2066 L 133.94,95.5934 L 133.859,95.9717
 L 133.702,96.325 L 133.475,96.6379 L 133.187,96.8967 L 132.852,97.0901 L 132.485,97.2096 L 132.1,97.25
 z
" stroke="black" fill="lightgray" stroke-width="0.5"/></svg>
