<?xml version="1.0" standalone="no"?>
<!DOCTYPE svg PUBLIC "-//W3C//DTD SVG 1.1//EN" "http://www.w3.org/Graphics/SVG/1.1/DTD/svg11.dtd">
<svg width="150" height="91" viewBox="0 -168 150 91" xmlns="http://www.w3.org/2000/svg" version="1.1">
<title>OpenSCAD Model</title>
<path d="
M 150,-167.8 L 0,-167.8 L 0,-77 L 150,-77 z
M 9.80661,-156.16 L 9.42831,-156.241 L 9.075,-156.398 L 8.7621,-156.625 L 8.50331,-156.913 L 8.30994,-157.248
 L 8.19041,-157.615 L 8.14999,-158 L 8.19041,-158.385 L 8.30994,-158.752 L 8.50331,-159.087 L 8.7621,-159.375
 L 9.075,-159.602 L 9.42831,-159.759 L 9.80661,-159.84 L 10.1934,-159.84 L 10.5717,-159.759 L 10.925,-159.602
 L 11.2379,-159.375 L 11.4967,-159.087 L 11.69,-158.752 L 11.8096,-158.385 L 11.85,-158 L 11.8096,-157.615
 L 11.69,-157.248 L 11.4967,-156.913 L 11.2379,-156.625 L 10.925,-156.398 L 10.5717,-156.241 L 10.1934,-156.16
 z
M 139.807,-156.16 L 139.428,-156.241 L 139.075,-156.398 L 138.762,-156.625 L 138.503,-156.913 L 138.31,-157.248
 L 138.19,-157.615 L 138.15,-158 L 138.19,-158.385 L 138.31,-158.752 L 138.503,-159.087 L 138.762,-159.375
 L 139.075,-159.602 L 139.428,-159.759 L 139.807,-159.84 L 140.193,-159.84 L 140.572,-159.759 L 140.925,-159.602
 L 141.238,-159.375 L 141.497,-159.087 L 141.69,-158.752 L 141.81,-158.385 L 141.85,-158 L 141.81,-157.615
 L 141.69,-157.248 L 141.497,-156.913 L 141.238,-156.625 L 140.925,-156.398 L 140.572,-156.241 L 140.193,-156.16
 z
M 9.80661,-85.1601 L 9.42831,-85.2405 L 9.075,-85.3979 L 8.7621,-85.6252 L 8.50331,-85.9126 L 8.30994,-86.2475
 L 8.19041,-86.6154 L 8.14999,-87 L 8.19041,-87.3846 L 8.30994,-87.7525 L 8.50331,-88.0874 L 8.7621,-88.3748
 L 9.075,-88.6021 L 9.42831,-88.7594 L 9.80661,-88.8399 L 10.1934,-88.8399 L 10.5717,-88.7594 L 10.925,-88.6021
 L 11.2379,-88.3748 L 11.4967,-88.0874 L 11.69,-87.7525 L 11.8096,-87.3846 L 11.85,-87 L 11.8096,-86.6154
 L 11.69,-86.2475 L 11.4967,-85.9126 L 11.2379,-85.6252 L 10.925,-85.3979 L 10.5717,-85.2405 L 10.1934,-85.1601
 z
M 139.807,-85.1601 L 139.428,-85.2405 L 139.075,-85.3979 L 138.762,-85.6252 L 138.503,-85.9126 L 138.31,-86.2475
 L 138.19,-86.6154 L 138.15,-87 L 138.19,-87.3846 L 138.31,-87.7525 L 138.503,-88.0874 L 138.762,-88.3748
 L 139.075,-88.6021 L 139.428,-88.7594 L 139.807,-88.8399 L 140.193,-88.8399 L 140.572,-88.7594 L 140.925,-88.6021
 L 141.238,-88.3748 L 141.497,-88.0874 L 141.69,-87.7525 L 141.81,-87.3846 L 141.85,-87 L 141.81,-86.6154
 L 141.69,-86.2475 L 141.497,-85.9126 L 141.238,-85.6252 L 140.925,-85.3979 L 140.572,-85.2405 L 140.193,-85.1601
 z
" stroke="black" fill="lightgray" stroke-width="0.5"/></svg>
