<?xml version="1.0" encoding="UTF-8" standalone="no"?>
<svg
   xmlns:dc="http://purl.org/dc/elements/1.1/"
   xmlns:cc="http://creativecommons.org/ns#"
   xmlns:rdf="http://www.w3.org/1999/02/22-rdf-syntax-ns#"
   xmlns:svg="http://www.w3.org/2000/svg"
   xmlns="http://www.w3.org/2000/svg"
   xmlns:sodipodi="http://sodipodi.sourceforge.net/DTD/sodipodi-0.dtd"
   xmlns:inkscape="http://www.inkscape.org/namespaces/inkscape"
   width="146"
   height="91"
   viewBox="-2 14 146 91"
   version="1.1"
   id="svg14"
   sodipodi:docname="diaphragmpump_end_justusb_91_146.svg"
   inkscape:version="0.92.2 (5c3e80d, 2017-08-06)">
  <metadata
     id="metadata20">
    <rdf:RDF>
      <cc:Work
         rdf:about="">
        <dc:format>image/svg+xml</dc:format>
        <dc:type
           rdf:resource="http://purl.org/dc/dcmitype/StillImage" />
      </cc:Work>
    </rdf:RDF>
  </metadata>
  <defs
     id="defs18" />
  <sodipodi:namedview
     pagecolor="#ffffff"
     bordercolor="#666666"
     borderopacity="1"
     objecttolerance="10"
     gridtolerance="10"
     guidetolerance="10"
     inkscape:pageopacity="0"
     inkscape:pageshadow="2"
     inkscape:window-width="861"
     inkscape:window-height="690"
     id="namedview16"
     showgrid="false"
     inkscape:zoom="1.0480769"
     inkscape:cx="204.73928"
     inkscape:cy="54.631217"
     inkscape:window-x="152"
     inkscape:window-y="152"
     inkscape:window-maximized="0"
     inkscape:current-layer="svg14" />
  <title
     id="title10">OpenSCAD Model</title>
  <path
     d="M 548.62034,-235.74633 H -1.3093136 V 106.30931 H 548.62034 Z m -506.555459,44.39056 -1.38541,-0.44957 -1.261638,-0.72658 -1.082567,-0.97279 -0.856271,-1.17615 -0.592567,-1.328 -0.302839,-1.42198 v -1.45392 l 0.302839,-1.42197 0.592567,-1.328 0.856271,-1.17615 1.082567,-0.97279 1.261638,-0.72696 1.38541,-0.44919 1.448801,-0.15185 1.448686,0.15185 1.38575,0.44919 1.261448,0.72696 1.082532,0.97279 0.856157,1.17615 0.592871,1.328 0.302837,1.42197 v 1.45392 l -0.302837,1.42198 -0.592871,1.328 -0.856157,1.17615 -1.082532,0.97279 -1.261448,0.72658 -1.38575,0.44957 -1.448686,0.15184 z m 470.828889,15.03541 -1.3824,-0.44957 -1.26181,-0.72657 -1.08478,-0.9728 -0.85505,-1.17614 -0.59138,-1.32801 -0.30507,-1.42197 v -1.45392 l 0.30507,-1.42198 0.59138,-1.328 0.85505,-1.17615 1.08478,-0.97279 1.26181,-0.72696 1.3824,-0.44919 1.45012,-0.15184 1.45015,0.15184 1.38235,0.44919 1.26185,0.72696 1.0848,0.97279 0.85501,1.17615 0.59136,1.328 0.30509,1.42198 v 1.45392 l -0.30509,1.42197 -0.59136,1.32801 -0.85501,1.17614 -1.0848,0.9728 -1.26185,0.72657 -1.38235,0.44957 -1.45015,0.15184 z m -25.18756,64.7703 -1.27311,-0.26988 -1.18651,-0.52738 -1.05089,-0.76191 -0.87009,-0.96377 -0.64785,-1.12277 -0.40304,-1.23328 -0.13585,-1.28928 0.13585,-1.28967 0.40304,-1.23291 0.64785,-1.12314 0.87009,-0.9634 1.05089,-0.76191 1.18651,-0.52775 1.27311,-0.26951 h 1.29573 l 1.27312,0.26951 1.18649,0.52775 1.05087,0.76191 0.87012,0.9634 0.64786,1.12314 0.40304,1.23291 0.13553,1.28967 -0.13553,1.28928 -0.40304,1.23328 -0.64786,1.12277 -0.87012,0.96377 -1.05087,0.76191 -1.18649,0.52738 -1.27312,0.26988 z m -19.50367,73.519419 v -49.616866 h 40.30305 v 49.616866 z m 19.50367,36.239101 -1.27311,-0.2698878 -1.18651,-0.5273705 -1.05089,-0.7619194 -0.87009,-0.9637676 -0.64785,-1.1227712 -0.40304,-1.2329047 -0.13585,-1.2896615 0.13585,-1.2896597 0.40304,-1.2329086 0.64785,-1.122765 0.87009,-0.963774 1.05089,-0.76192 1.18651,-0.527742 1.27311,-0.269511 h 1.29573 l 1.27312,0.269511 1.18649,0.527742 1.05087,0.76192 0.87012,0.963774 0.64786,1.122765 0.40304,1.2329086 0.13553,1.2896597 -0.13553,1.2896615 -0.40304,1.2329047 -0.64786,1.1227712 -0.87012,0.9637676 -1.05087,0.7619194 -1.18649,0.5273705 -1.27312,0.2698878 z m 25.18756,66.03779 -1.3824,-0.449557 -1.26181,-0.72659 -1.08478,-0.972788 -0.85505,-1.176146 -0.59138,-1.328003 -0.30507,-1.421975 v -1.453924 l 0.30507,-1.421975 0.59138,-1.328003 0.85505,-1.176146 1.08478,-0.972789 1.26181,-0.726963 1.3824,-0.449185 1.45012,-0.151847 1.45015,0.151847 1.38235,0.449185 1.26185,0.726963 1.0848,0.972789 0.85501,1.176146 0.59136,1.328003 0.30509,1.421975 v 1.453924 l -0.30509,1.421975 -0.59136,1.328003 -0.85501,1.176146 -1.0848,0.972788 -1.26185,0.72659 -1.38235,0.449557 -1.45015,0.151846 z M 42.064881,75.522808 40.679471,75.07325 39.417833,74.346665 38.335266,73.373874 37.478995,72.197726 36.886428,70.869724 36.583589,69.447751 v -1.453922 l 0.302839,-1.421977 0.592567,-1.328003 0.856271,-1.176147 1.082567,-0.972789 1.261638,-0.726963 1.38541,-0.44918 1.448801,-0.151846 1.448686,0.151846 1.38575,0.44918 1.261448,0.726963 1.082532,0.972789 0.856157,1.176147 0.592871,1.328003 0.302837,1.421977 v 1.453922 l -0.302837,1.421973 -0.592871,1.328002 -0.856157,1.176148 -1.082532,0.972791 -1.261448,0.726585 -1.38575,0.449558 -1.448686,0.151846 z"
     id="path12"
     inkscape:connector-curvature="0"
     style="fill:#d3d3d3;stroke:#000000;stroke-width:1.88137281" />
</svg>
