<?xml version="1.0" standalone="no"?>
<!DOCTYPE svg PUBLIC "-//W3C//DTD SVG 1.1//EN" "http://www.w3.org/Graphics/SVG/1.1/DTD/svg11.dtd">
<svg width="146" height="91" viewBox="-30 -78 146 91" xmlns="http://www.w3.org/2000/svg" version="1.1">
<title>OpenSCAD Model</title>
<path d="
M 116,-78 L -30,-78 L -30,13 L 116,13 z
M -18.4846,-66.1904 L -18.8525,-66.3099 L -19.1874,-66.5033 L -19.4748,-66.7621 L -19.7021,-67.075 L -19.8595,-67.4283
 L -19.9399,-67.8066 L -19.9399,-68.1934 L -19.8595,-68.5717 L -19.7021,-68.925 L -19.4748,-69.2379 L -19.1874,-69.4967
 L -18.8525,-69.69 L -18.4846,-69.8096 L -18.1,-69.85 L -17.7154,-69.8096 L -17.3475,-69.69 L -17.0126,-69.4967
 L -16.7252,-69.2379 L -16.4978,-68.925 L -16.3405,-68.5717 L -16.2601,-68.1934 L -16.2601,-67.8066 L -16.3405,-67.4283
 L -16.4978,-67.075 L -16.7252,-66.7621 L -17.0126,-66.5033 L -17.3475,-66.3099 L -17.7154,-66.1904 L -18.1,-66.15
 z
M 106.515,-62.1904 L 106.148,-62.3099 L 105.813,-62.5033 L 105.525,-62.7621 L 105.298,-63.075 L 105.141,-63.4283
 L 105.06,-63.8066 L 105.06,-64.1934 L 105.141,-64.5717 L 105.298,-64.925 L 105.525,-65.2379 L 105.813,-65.4967
 L 106.148,-65.69 L 106.515,-65.8096 L 106.9,-65.85 L 107.285,-65.8096 L 107.652,-65.69 L 107.987,-65.4967
 L 108.275,-65.2379 L 108.502,-64.925 L 108.659,-64.5717 L 108.74,-64.1934 L 108.74,-63.8066 L 108.659,-63.4283
 L 108.502,-63.075 L 108.275,-62.7621 L 107.987,-62.5033 L 107.652,-62.3099 L 107.285,-62.1904 L 106.9,-62.15
 z
M 86.6744,-54.7299 L 86.2569,-54.8656 L 85.8766,-55.0851 L 85.5504,-55.3788 L 85.2923,-55.734 L 85.1138,-56.1351
 L 85.0225,-56.5645 L 85.0225,-57.0035 L 85.1138,-57.4329 L 85.2923,-57.834 L 85.5504,-58.1892 L 85.8766,-58.4829
 L 86.2569,-58.7024 L 86.6744,-58.8381 L 87.111,-58.884 L 87.5476,-58.8381 L 87.9651,-58.7024 L 88.3454,-58.4829
 L 88.6716,-58.1892 L 88.9297,-57.834 L 89.1082,-57.4329 L 89.1995,-57.0035 L 89.1995,-56.5645 L 89.1082,-56.1351
 L 88.9297,-55.734 L 88.6716,-55.3788 L 88.3454,-55.0851 L 87.9651,-54.8656 L 87.5476,-54.7299 L 87.111,-54.684
 z
M 92.8073,-46.083 L 92.1611,-46.293 L 91.5727,-46.6327 L 91.0678,-47.0873 L 90.6684,-47.637 L 90.3921,-48.2577
 L 90.2508,-48.9223 L 90.2508,-49.6017 L 90.3921,-50.2663 L 90.6684,-50.887 L 91.0678,-51.4367 L 91.5727,-51.8913
 L 92.1611,-52.231 L 92.8073,-52.441 L 93.483,-52.512 L 94.1587,-52.441 L 94.8049,-52.231 L 95.3933,-51.8913
 L 95.8982,-51.4367 L 96.2976,-50.887 L 96.5739,-50.2663 L 96.7152,-49.6017 L 96.7152,-48.9223 L 96.5739,-48.2577
 L 96.2976,-47.637 L 95.8982,-47.0873 L 95.3933,-46.6327 L 94.8049,-46.293 L 94.1587,-46.083 L 93.483,-46.012
 z
M 92.8073,-35.951 L 92.1611,-36.161 L 91.5727,-36.5007 L 91.0678,-36.9553 L 90.6684,-37.505 L 90.3921,-38.1257
 L 90.2508,-38.7903 L 90.2508,-39.4697 L 90.3921,-40.1343 L 90.6684,-40.755 L 91.0678,-41.3047 L 91.5727,-41.7593
 L 92.1611,-42.099 L 92.8073,-42.309 L 93.483,-42.38 L 94.1587,-42.309 L 94.8049,-42.099 L 95.3933,-41.7593
 L 95.8982,-41.3047 L 96.2976,-40.755 L 96.5739,-40.1343 L 96.7152,-39.4697 L 96.7152,-38.7903 L 96.5739,-38.1257
 L 96.2976,-37.505 L 95.8982,-36.9553 L 95.3933,-36.5007 L 94.8049,-36.161 L 94.1587,-35.951 L 93.483,-35.88
 z
M 82.5,-17.6 L 82.5,-34.6 L 87,-34.6 L 87,-17.6 z
M 92.8073,-23.205 L 92.1611,-23.415 L 91.5727,-23.7547 L 91.0678,-24.2093 L 90.6684,-24.759 L 90.3921,-25.3797
 L 90.2508,-26.0443 L 90.2508,-26.7237 L 90.3921,-27.3883 L 90.6684,-28.009 L 91.0678,-28.5587 L 91.5727,-29.0133
 L 92.1611,-29.353 L 92.8073,-29.563 L 93.483,-29.634 L 94.1587,-29.563 L 94.8049,-29.353 L 95.3933,-29.0133
 L 95.8982,-28.5587 L 96.2976,-28.009 L 96.5739,-27.3883 L 96.7152,-26.7237 L 96.7152,-26.0443 L 96.5739,-25.3797
 L 96.2976,-24.759 L 95.8982,-24.2093 L 95.3933,-23.7547 L 94.8049,-23.415 L 94.1587,-23.205 L 93.483,-23.134
 z
M 92.8073,-12.967 L 92.1611,-13.177 L 91.5727,-13.5167 L 91.0678,-13.9713 L 90.6684,-14.521 L 90.3921,-15.1417
 L 90.2508,-15.8063 L 90.2508,-16.4857 L 90.3921,-17.1503 L 90.6684,-17.771 L 91.0678,-18.3207 L 91.5727,-18.7753
 L 92.1611,-19.115 L 92.8073,-19.325 L 93.483,-19.396 L 94.1587,-19.325 L 94.8049,-19.115 L 95.3933,-18.7753
 L 95.8982,-18.3207 L 96.2976,-17.771 L 96.5739,-17.1503 L 96.7152,-16.4857 L 96.7152,-15.8063 L 96.5739,-15.1417
 L 96.2976,-14.521 L 95.8982,-13.9713 L 95.3933,-13.5167 L 94.8049,-13.177 L 94.1587,-12.967 L 93.483,-12.896
 z
M 86.7784,-3.85388 L 86.3609,-3.98955 L 85.9807,-4.20906 L 85.6544,-4.50282 L 85.3963,-4.85799 L 85.2178,-5.25906
 L 85.1265,-5.68848 L 85.1265,-6.1275 L 85.2178,-6.55693 L 85.3963,-6.95799 L 85.6544,-7.31317 L 85.9807,-7.60693
 L 86.3609,-7.82643 L 86.7784,-7.9621 L 87.215,-8.008 L 87.6516,-7.9621 L 88.0691,-7.82643 L 88.4493,-7.60693
 L 88.7756,-7.31317 L 89.0336,-6.95799 L 89.2122,-6.55693 L 89.3035,-6.1275 L 89.3035,-5.68848 L 89.2122,-5.25906
 L 89.0336,-4.85799 L 88.7756,-4.50282 L 88.4493,-4.20906 L 88.0691,-3.98955 L 87.6516,-3.85388 L 87.215,-3.808
 z
M 106.515,1.80957 L 106.148,1.69005 L 105.813,1.49667 L 105.525,1.23788 L 105.298,0.924988 L 105.141,0.571671
 L 105.06,0.193375 L 105.06,-0.193375 L 105.141,-0.571671 L 105.298,-0.924988 L 105.525,-1.23788 L 105.813,-1.49667
 L 106.148,-1.69005 L 106.515,-1.80957 L 106.9,-1.84999 L 107.285,-1.80957 L 107.652,-1.69005 L 107.987,-1.49667
 L 108.275,-1.23788 L 108.502,-0.924988 L 108.659,-0.571671 L 108.74,-0.193375 L 108.74,0.193375 L 108.659,0.571671
 L 108.502,0.924988 L 108.275,1.23788 L 107.987,1.49667 L 107.652,1.69005 L 107.285,1.80957 L 106.9,1.84999
 z
M -18.4846,4.80957 L -18.8525,4.69005 L -19.1874,4.49667 L -19.4748,4.23788 L -19.7021,3.92499 L -19.8595,3.57167
 L -19.9399,3.19337 L -19.9399,2.80661 L -19.8595,2.42831 L -19.7021,2.075 L -19.4748,1.7621 L -19.1874,1.50331
 L -18.8525,1.30994 L -18.4846,1.19041 L -18.1,1.14999 L -17.7154,1.19041 L -17.3475,1.30994 L -17.0126,1.50331
 L -16.7252,1.7621 L -16.4978,2.075 L -16.3405,2.42831 L -16.2601,2.80661 L -16.2601,3.19337 L -16.3405,3.57167
 L -16.4978,3.92499 L -16.7252,4.23788 L -17.0126,4.49667 L -17.3475,4.69005 L -17.7154,4.80957 L -18.1,4.84999
 z
" stroke="black" fill="lightgray" stroke-width="0.5"/></svg>
