<?xml version="1.0" standalone="no"?>
<!DOCTYPE svg PUBLIC "-//W3C//DTD SVG 1.1//EN" "http://www.w3.org/Graphics/SVG/1.1/DTD/svg11.dtd">
<svg width="150" height="143" viewBox="-162 -198 150 143" xmlns="http://www.w3.org/2000/svg" version="1.1">
<title>OpenSCAD Model</title>
<path d="
M -12,-198 L -162,-198 L -162,-55 L -12,-55 z
M -17.1934,-190.26 L -17.5717,-190.341 L -17.925,-190.498 L -18.2379,-190.725 L -18.4967,-191.013 L -18.69,-191.348
 L -18.8096,-191.715 L -18.85,-192.1 L -18.8096,-192.485 L -18.69,-192.852 L -18.4967,-193.187 L -18.2379,-193.475
 L -17.925,-193.702 L -17.5717,-193.859 L -17.1934,-193.94 L -16.8066,-193.94 L -16.4283,-193.859 L -16.075,-193.702
 L -15.7621,-193.475 L -15.5033,-193.187 L -15.3099,-192.852 L -15.1904,-192.485 L -15.15,-192.1 L -15.1904,-191.715
 L -15.3099,-191.348 L -15.5033,-191.013 L -15.7621,-190.725 L -16.075,-190.498 L -16.4283,-190.341 L -16.8066,-190.26
 z
M -157.193,-190.26 L -157.572,-190.341 L -157.925,-190.498 L -158.238,-190.725 L -158.497,-191.013 L -158.69,-191.348
 L -158.81,-191.715 L -158.85,-192.1 L -158.81,-192.485 L -158.69,-192.852 L -158.497,-193.187 L -158.238,-193.475
 L -157.925,-193.702 L -157.572,-193.859 L -157.193,-193.94 L -156.807,-193.94 L -156.428,-193.859 L -156.075,-193.702
 L -155.762,-193.475 L -155.503,-193.187 L -155.31,-192.852 L -155.19,-192.485 L -155.15,-192.1 L -155.19,-191.715
 L -155.31,-191.348 L -155.503,-191.013 L -155.762,-190.725 L -156.075,-190.498 L -156.428,-190.341 L -156.807,-190.26
 z
M -77.1934,-190.26 L -77.5717,-190.341 L -77.925,-190.498 L -78.2379,-190.725 L -78.4967,-191.013 L -78.6901,-191.348
 L -78.8096,-191.715 L -78.85,-192.1 L -78.8096,-192.485 L -78.6901,-192.852 L -78.4967,-193.187 L -78.2379,-193.475
 L -77.925,-193.702 L -77.5717,-193.859 L -77.1934,-193.94 L -76.8066,-193.94 L -76.4283,-193.859 L -76.075,-193.702
 L -75.7621,-193.475 L -75.5033,-193.187 L -75.3099,-192.852 L -75.1904,-192.485 L -75.15,-192.1 L -75.1904,-191.715
 L -75.3099,-191.348 L -75.5033,-191.013 L -75.7621,-190.725 L -76.075,-190.498 L -76.4283,-190.341 L -76.8066,-190.26
 z
M -77.3293,-76.8672 L -77.9734,-77.0042 L -78.575,-77.272 L -79.1078,-77.6591 L -79.5484,-78.1485 L -79.8777,-78.7188
 L -80.0812,-79.3451 L -80.15,-80 L -80.0812,-80.6549 L -79.8777,-81.2812 L -79.5484,-81.8515 L -79.1078,-82.3409
 L -78.575,-82.728 L -77.9734,-82.9958 L -77.3293,-83.1327 L -76.6707,-83.1327 L -76.0266,-82.9958 L -75.425,-82.728
 L -74.8922,-82.3409 L -74.4516,-81.8515 L -74.1223,-81.2812 L -73.9188,-80.6549 L -73.85,-80 L -73.9188,-79.3451
 L -74.1223,-78.7188 L -74.4516,-78.1485 L -74.8922,-77.6591 L -75.425,-77.272 L -76.0266,-77.0042 L -76.6707,-76.8672
 z
M -142.329,-76.8672 L -142.973,-77.0042 L -143.575,-77.272 L -144.108,-77.6591 L -144.548,-78.1485 L -144.878,-78.7188
 L -145.081,-79.3451 L -145.15,-80 L -145.081,-80.6549 L -144.878,-81.2812 L -144.548,-81.8515 L -144.108,-82.3409
 L -143.575,-82.728 L -142.973,-82.9958 L -142.329,-83.1327 L -141.671,-83.1327 L -141.027,-82.9958 L -140.425,-82.728
 L -139.892,-82.3409 L -139.452,-81.8515 L -139.122,-81.2812 L -138.919,-80.6549 L -138.85,-80 L -138.919,-79.3451
 L -139.122,-78.7188 L -139.452,-78.1485 L -139.892,-77.6591 L -140.425,-77.272 L -141.027,-77.0042 L -141.671,-76.8672
 z
M -52.3293,-76.8672 L -52.9734,-77.0042 L -53.575,-77.272 L -54.1078,-77.6591 L -54.5484,-78.1485 L -54.8777,-78.7188
 L -55.0812,-79.3451 L -55.15,-80 L -55.0812,-80.6549 L -54.8777,-81.2812 L -54.5484,-81.8515 L -54.1078,-82.3409
 L -53.575,-82.728 L -52.9734,-82.9958 L -52.3293,-83.1327 L -51.6707,-83.1327 L -51.0266,-82.9958 L -50.425,-82.728
 L -49.8922,-82.3409 L -49.4516,-81.8515 L -49.1223,-81.2812 L -48.9188,-80.6549 L -48.85,-80 L -48.9188,-79.3451
 L -49.1223,-78.7188 L -49.4516,-78.1485 L -49.8922,-77.6591 L -50.425,-77.272 L -51.0266,-77.0042 L -51.6707,-76.8672
 z
M -32.3293,-76.8672 L -32.9734,-77.0042 L -33.575,-77.272 L -34.1078,-77.6591 L -34.5484,-78.1485 L -34.8777,-78.7188
 L -35.0812,-79.3451 L -35.15,-80 L -35.0812,-80.6549 L -34.8777,-81.2812 L -34.5484,-81.8515 L -34.1078,-82.3409
 L -33.575,-82.728 L -32.9734,-82.9958 L -32.3293,-83.1327 L -31.6707,-83.1327 L -31.0266,-82.9958 L -30.425,-82.728
 L -29.8922,-82.3409 L -29.4516,-81.8515 L -29.1223,-81.2812 L -28.9188,-80.6549 L -28.85,-80 L -28.9188,-79.3451
 L -29.1223,-78.7188 L -29.4516,-78.1485 L -29.8922,-77.6591 L -30.425,-77.272 L -31.0266,-77.0042 L -31.6707,-76.8672
 z
M -97.3293,-83.1327 L -96.6707,-83.1327 L -96.0266,-82.9958 L -95.425,-82.728 L -94.8922,-82.3409 L -94.4516,-81.8515
 L -94.1223,-81.2812 L -93.9188,-80.6549 L -93.85,-80 L -93.9188,-79.3451 L -94.1223,-78.7188 L -94.4516,-78.1485
 L -94.8922,-77.6591 L -95.425,-77.272 L -96.0266,-77.0042 L -96.6707,-76.8672 L -97.3293,-76.8672 L -97.9734,-77.0042
 L -98.575,-77.272 L -99.1078,-77.6591 L -99.5484,-78.1485 L -99.8777,-78.7188 L -100.081,-79.3451 L -100.15,-80
 L -100.081,-80.6549 L -99.8777,-81.2812 L -99.5484,-81.8515 L -99.1078,-82.3409 L -98.575,-82.728 L -97.9734,-82.9958
 z
M -157.193,-58.2601 L -157.572,-58.3405 L -157.925,-58.4978 L -158.238,-58.7252 L -158.497,-59.0126 L -158.69,-59.3475
 L -158.81,-59.7154 L -158.85,-60.1 L -158.81,-60.4846 L -158.69,-60.8525 L -158.497,-61.1874 L -158.238,-61.4748
 L -157.925,-61.7021 L -157.572,-61.8595 L -157.193,-61.9399 L -156.807,-61.9399 L -156.428,-61.8595 L -156.075,-61.7021
 L -155.762,-61.4748 L -155.503,-61.1874 L -155.31,-60.8525 L -155.19,-60.4846 L -155.15,-60.1 L -155.19,-59.7154
 L -155.31,-59.3475 L -155.503,-59.0126 L -155.762,-58.7252 L -156.075,-58.4978 L -156.428,-58.3405 L -156.807,-58.2601
 z
M -97.1934,-58.2601 L -97.5717,-58.3405 L -97.925,-58.4978 L -98.2379,-58.7252 L -98.4967,-59.0126 L -98.6901,-59.3475
 L -98.8096,-59.7154 L -98.85,-60.1 L -98.8096,-60.4846 L -98.6901,-60.8525 L -98.4967,-61.1874 L -98.2379,-61.4748
 L -97.925,-61.7021 L -97.5717,-61.8595 L -97.1934,-61.9399 L -96.8066,-61.9399 L -96.4283,-61.8595 L -96.075,-61.7021
 L -95.7621,-61.4748 L -95.5033,-61.1874 L -95.3099,-60.8525 L -95.1904,-60.4846 L -95.15,-60.1 L -95.1904,-59.7154
 L -95.3099,-59.3475 L -95.5033,-59.0126 L -95.7621,-58.7252 L -96.075,-58.4978 L -96.4283,-58.3405 L -96.8066,-58.2601
 z
M -17.1934,-58.2601 L -17.5717,-58.3405 L -17.925,-58.4978 L -18.2379,-58.7252 L -18.4967,-59.0126 L -18.69,-59.3475
 L -18.8096,-59.7154 L -18.85,-60.1 L -18.8096,-60.4846 L -18.69,-60.8525 L -18.4967,-61.1874 L -18.2379,-61.4748
 L -17.925,-61.7021 L -17.5717,-61.8595 L -17.1934,-61.9399 L -16.8066,-61.9399 L -16.4283,-61.8595 L -16.075,-61.7021
 L -15.7621,-61.4748 L -15.5033,-61.1874 L -15.3099,-60.8525 L -15.1904,-60.4846 L -15.15,-60.1 L -15.1904,-59.7154
 L -15.3099,-59.3475 L -15.5033,-59.0126 L -15.7621,-58.7252 L -16.075,-58.4978 L -16.4283,-58.3405 L -16.8066,-58.2601
 z
M -119.452,-81.8515 L -119.122,-81.2812 L -118.919,-80.6549 L -118.85,-80 L -118.919,-79.3451 L -119.122,-78.7188
 L -119.452,-78.1485 L -119.892,-77.6591 L -120.425,-77.272 L -121.027,-77.0042 L -121.671,-76.8672 L -122.329,-76.8672
 L -122.973,-77.0042 L -123.575,-77.272 L -124.108,-77.6591 L -124.548,-78.1485 L -124.878,-78.7188 L -125.081,-79.3451
 L -125.15,-80 L -125.081,-80.6549 L -124.878,-81.2812 L -124.548,-81.8515 L -124.108,-82.3409 L -123.575,-82.728
 L -122.973,-82.9958 L -122.329,-83.1327 L -121.671,-83.1327 L -121.027,-82.9958 L -120.425,-82.728 L -119.892,-82.3409
 z
" stroke="black" fill="lightgray" stroke-width="0.5"/></svg>
