<?xml version="1.0" standalone="no"?>
<!DOCTYPE svg PUBLIC "-//W3C//DTD SVG 1.1//EN" "http://www.w3.org/Graphics/SVG/1.1/DTD/svg11.dtd">
<svg width="412" height="370" viewBox="13 -390 412 370" xmlns="http://www.w3.org/2000/svg" version="1.1">
<title>OpenSCAD Model</title>
<path d="
M 415,-33 L 425,-33 L 425,-378 L 415,-378 L 415,-390 L 28,-390
 L 28,-378 L 13,-378 L 13,-33 L 28,-33 L 28,-20 L 415,-20
 z
M 155.262,-381.125 L 155.003,-381.413 L 154.81,-381.748 L 154.69,-382.115 L 154.65,-382.5 L 154.69,-382.885
 L 154.81,-383.252 L 155.003,-383.587 L 155.262,-383.875 L 155.575,-384.102 L 155.928,-384.259 L 156.307,-384.34
 L 156.693,-384.34 L 157.072,-384.259 L 157.425,-384.102 L 157.738,-383.875 L 157.997,-383.587 L 158.19,-383.252
 L 158.31,-382.885 L 158.35,-382.5 L 158.31,-382.115 L 158.19,-381.748 L 157.997,-381.413 L 157.738,-381.125
 L 157.425,-380.898 L 157.072,-380.741 L 156.693,-380.66 L 156.307,-380.66 L 155.928,-380.741 L 155.575,-380.898
 z
M 96.8066,-380.66 L 96.4283,-380.741 L 96.075,-380.898 L 95.7621,-381.125 L 95.5033,-381.413 L 95.3099,-381.748
 L 95.1904,-382.115 L 95.15,-382.5 L 95.1904,-382.885 L 95.3099,-383.252 L 95.5033,-383.587 L 95.7621,-383.875
 L 96.075,-384.102 L 96.4283,-384.259 L 96.8066,-384.34 L 97.1934,-384.34 L 97.5717,-384.259 L 97.925,-384.102
 L 98.2379,-383.875 L 98.4967,-383.587 L 98.6901,-383.252 L 98.8096,-382.885 L 98.85,-382.5 L 98.8096,-382.115
 L 98.6901,-381.748 L 98.4967,-381.413 L 98.2379,-381.125 L 97.925,-380.898 L 97.5717,-380.741 L 97.1934,-380.66
 z
M 106.807,-380.66 L 106.428,-380.741 L 106.075,-380.898 L 105.762,-381.125 L 105.503,-381.413 L 105.31,-381.748
 L 105.19,-382.115 L 105.15,-382.5 L 105.19,-382.885 L 105.31,-383.252 L 105.503,-383.587 L 105.762,-383.875
 L 106.075,-384.102 L 106.428,-384.259 L 106.807,-384.34 L 107.193,-384.34 L 107.572,-384.259 L 107.925,-384.102
 L 108.238,-383.875 L 108.497,-383.587 L 108.69,-383.252 L 108.81,-382.885 L 108.85,-382.5 L 108.81,-382.115
 L 108.69,-381.748 L 108.497,-381.413 L 108.238,-381.125 L 107.925,-380.898 L 107.572,-380.741 L 107.193,-380.66
 z
M 326.307,-380.66 L 325.928,-380.741 L 325.575,-380.898 L 325.262,-381.125 L 325.003,-381.413 L 324.81,-381.748
 L 324.69,-382.115 L 324.65,-382.5 L 324.69,-382.885 L 324.81,-383.252 L 325.003,-383.587 L 325.262,-383.875
 L 325.575,-384.102 L 325.928,-384.259 L 326.307,-384.34 L 326.693,-384.34 L 327.072,-384.259 L 327.425,-384.102
 L 327.738,-383.875 L 327.997,-383.587 L 328.19,-383.252 L 328.31,-382.885 L 328.35,-382.5 L 328.31,-382.115
 L 328.19,-381.748 L 327.997,-381.413 L 327.738,-381.125 L 327.425,-380.898 L 327.072,-380.741 L 326.693,-380.66
 z
M 316.307,-380.66 L 315.928,-380.741 L 315.575,-380.898 L 315.262,-381.125 L 315.003,-381.413 L 314.81,-381.748
 L 314.69,-382.115 L 314.65,-382.5 L 314.69,-382.885 L 314.81,-383.252 L 315.003,-383.587 L 315.262,-383.875
 L 315.575,-384.102 L 315.928,-384.259 L 316.307,-384.34 L 316.693,-384.34 L 317.072,-384.259 L 317.425,-384.102
 L 317.738,-383.875 L 317.997,-383.587 L 318.19,-383.252 L 318.31,-382.885 L 318.35,-382.5 L 318.31,-382.115
 L 318.19,-381.748 L 317.997,-381.413 L 317.738,-381.125 L 317.425,-380.898 L 317.072,-380.741 L 316.693,-380.66
 z
M 276.807,-380.66 L 276.428,-380.741 L 276.075,-380.898 L 275.762,-381.125 L 275.503,-381.413 L 275.31,-381.748
 L 275.19,-382.115 L 275.15,-382.5 L 275.19,-382.885 L 275.31,-383.252 L 275.503,-383.587 L 275.762,-383.875
 L 276.075,-384.102 L 276.428,-384.259 L 276.807,-384.34 L 277.193,-384.34 L 277.572,-384.259 L 277.925,-384.102
 L 278.238,-383.875 L 278.497,-383.587 L 278.69,-383.252 L 278.81,-382.885 L 278.85,-382.5 L 278.81,-382.115
 L 278.69,-381.748 L 278.497,-381.413 L 278.238,-381.125 L 277.925,-380.898 L 277.572,-380.741 L 277.193,-380.66
 z
M 266.807,-380.66 L 266.428,-380.741 L 266.075,-380.898 L 265.762,-381.125 L 265.503,-381.413 L 265.31,-381.748
 L 265.19,-382.115 L 265.15,-382.5 L 265.19,-382.885 L 265.31,-383.252 L 265.503,-383.587 L 265.762,-383.875
 L 266.075,-384.102 L 266.428,-384.259 L 266.807,-384.34 L 267.193,-384.34 L 267.572,-384.259 L 267.925,-384.102
 L 268.238,-383.875 L 268.497,-383.587 L 268.69,-383.252 L 268.81,-382.885 L 268.85,-382.5 L 268.81,-382.115
 L 268.69,-381.748 L 268.497,-381.413 L 268.238,-381.125 L 267.925,-380.898 L 267.572,-380.741 L 267.193,-380.66
 z
M 21.8066,-327.66 L 21.4283,-327.741 L 21.075,-327.898 L 20.7621,-328.125 L 20.5033,-328.413 L 20.3099,-328.748
 L 20.1904,-329.115 L 20.15,-329.5 L 20.1904,-329.885 L 20.3099,-330.252 L 20.5033,-330.587 L 20.7621,-330.875
 L 21.075,-331.102 L 21.4283,-331.259 L 21.8066,-331.34 L 22.1934,-331.34 L 22.5717,-331.259 L 22.925,-331.102
 L 23.2379,-330.875 L 23.4967,-330.587 L 23.69,-330.252 L 23.8096,-329.885 L 23.85,-329.5 L 23.8096,-329.115
 L 23.69,-328.748 L 23.4967,-328.413 L 23.2379,-328.125 L 22.925,-327.898 L 22.5717,-327.741 L 22.1934,-327.66
 z
M 21.8066,-317.66 L 21.4283,-317.741 L 21.075,-317.898 L 20.7621,-318.125 L 20.5033,-318.413 L 20.3099,-318.748
 L 20.1904,-319.115 L 20.15,-319.5 L 20.1904,-319.885 L 20.3099,-320.252 L 20.5033,-320.587 L 20.7621,-320.875
 L 21.075,-321.102 L 21.4283,-321.259 L 21.8066,-321.34 L 22.1934,-321.34 L 22.5717,-321.259 L 22.925,-321.102
 L 23.2379,-320.875 L 23.4967,-320.587 L 23.69,-320.252 L 23.8096,-319.885 L 23.85,-319.5 L 23.8096,-319.115
 L 23.69,-318.748 L 23.4967,-318.413 L 23.2379,-318.125 L 22.925,-317.898 L 22.5717,-317.741 L 22.1934,-317.66
 z
M 416.807,-311.16 L 416.428,-311.241 L 416.075,-311.398 L 415.762,-311.625 L 415.503,-311.913 L 415.31,-312.248
 L 415.19,-312.615 L 415.15,-313 L 415.19,-313.385 L 415.31,-313.752 L 415.503,-314.087 L 415.762,-314.375
 L 416.075,-314.602 L 416.428,-314.759 L 416.807,-314.84 L 417.193,-314.84 L 417.572,-314.759 L 417.925,-314.602
 L 418.238,-314.375 L 418.497,-314.087 L 418.69,-313.752 L 418.81,-313.385 L 418.85,-313 L 418.81,-312.615
 L 418.69,-312.248 L 418.497,-311.913 L 418.238,-311.625 L 417.925,-311.398 L 417.572,-311.241 L 417.193,-311.16
 z
M 416.807,-301.16 L 416.428,-301.241 L 416.075,-301.398 L 415.762,-301.625 L 415.503,-301.913 L 415.31,-302.248
 L 415.19,-302.615 L 415.15,-303 L 415.19,-303.385 L 415.31,-303.752 L 415.503,-304.087 L 415.762,-304.375
 L 416.075,-304.602 L 416.428,-304.759 L 416.807,-304.84 L 417.193,-304.84 L 417.572,-304.759 L 417.925,-304.602
 L 418.238,-304.375 L 418.497,-304.087 L 418.69,-303.752 L 418.81,-303.385 L 418.85,-303 L 418.81,-302.615
 L 418.69,-302.248 L 418.497,-301.913 L 418.238,-301.625 L 417.925,-301.398 L 417.572,-301.241 L 417.193,-301.16
 z
M 21.8066,-278.16 L 21.4283,-278.241 L 21.075,-278.398 L 20.7621,-278.625 L 20.5033,-278.913 L 20.3099,-279.248
 L 20.1904,-279.615 L 20.15,-280 L 20.1904,-280.385 L 20.3099,-280.752 L 20.5033,-281.087 L 20.7621,-281.375
 L 21.075,-281.602 L 21.4283,-281.759 L 21.8066,-281.84 L 22.1934,-281.84 L 22.5717,-281.759 L 22.925,-281.602
 L 23.2379,-281.375 L 23.4967,-281.087 L 23.69,-280.752 L 23.8096,-280.385 L 23.85,-280 L 23.8096,-279.615
 L 23.69,-279.248 L 23.4967,-278.913 L 23.2379,-278.625 L 22.925,-278.398 L 22.5717,-278.241 L 22.1934,-278.16
 z
M 21.8066,-268.16 L 21.4283,-268.241 L 21.075,-268.398 L 20.7621,-268.625 L 20.5033,-268.913 L 20.3099,-269.248
 L 20.1904,-269.615 L 20.15,-270 L 20.1904,-270.385 L 20.3099,-270.752 L 20.5033,-271.087 L 20.7621,-271.375
 L 21.075,-271.602 L 21.4283,-271.759 L 21.8066,-271.84 L 22.1934,-271.84 L 22.5717,-271.759 L 22.925,-271.602
 L 23.2379,-271.375 L 23.4967,-271.087 L 23.69,-270.752 L 23.8096,-270.385 L 23.85,-270 L 23.8096,-269.615
 L 23.69,-269.248 L 23.4967,-268.913 L 23.2379,-268.625 L 22.925,-268.398 L 22.5717,-268.241 L 22.1934,-268.16
 z
M 416.807,-261.66 L 416.428,-261.741 L 416.075,-261.898 L 415.762,-262.125 L 415.503,-262.413 L 415.31,-262.748
 L 415.19,-263.115 L 415.15,-263.5 L 415.19,-263.885 L 415.31,-264.252 L 415.503,-264.587 L 415.762,-264.875
 L 416.075,-265.102 L 416.428,-265.259 L 416.807,-265.34 L 417.193,-265.34 L 417.572,-265.259 L 417.925,-265.102
 L 418.238,-264.875 L 418.497,-264.587 L 418.69,-264.252 L 418.81,-263.885 L 418.85,-263.5 L 418.81,-263.115
 L 418.69,-262.748 L 418.497,-262.413 L 418.238,-262.125 L 417.925,-261.898 L 417.572,-261.741 L 417.193,-261.66
 z
M 416.807,-251.66 L 416.428,-251.741 L 416.075,-251.898 L 415.762,-252.125 L 415.503,-252.413 L 415.31,-252.748
 L 415.19,-253.115 L 415.15,-253.5 L 415.19,-253.885 L 415.31,-254.252 L 415.503,-254.587 L 415.762,-254.875
 L 416.075,-255.102 L 416.428,-255.259 L 416.807,-255.34 L 417.193,-255.34 L 417.572,-255.259 L 417.925,-255.102
 L 418.238,-254.875 L 418.497,-254.587 L 418.69,-254.252 L 418.81,-253.885 L 418.85,-253.5 L 418.81,-253.115
 L 418.69,-252.748 L 418.497,-252.413 L 418.238,-252.125 L 417.925,-251.898 L 417.572,-251.741 L 417.193,-251.66
 z
M 21.8066,-188.16 L 21.4283,-188.241 L 21.075,-188.398 L 20.7621,-188.625 L 20.5033,-188.913 L 20.3099,-189.248
 L 20.1904,-189.615 L 20.15,-190 L 20.1904,-190.385 L 20.3099,-190.752 L 20.5033,-191.087 L 20.7621,-191.375
 L 21.075,-191.602 L 21.4283,-191.759 L 21.8066,-191.84 L 22.1934,-191.84 L 22.5717,-191.759 L 22.925,-191.602
 L 23.2379,-191.375 L 23.4967,-191.087 L 23.69,-190.752 L 23.8096,-190.385 L 23.85,-190 L 23.8096,-189.615
 L 23.69,-189.248 L 23.4967,-188.913 L 23.2379,-188.625 L 22.925,-188.398 L 22.5717,-188.241 L 22.1934,-188.16
 z
M 21.8066,-178.16 L 21.4283,-178.241 L 21.075,-178.398 L 20.7621,-178.625 L 20.5033,-178.913 L 20.3099,-179.248
 L 20.1904,-179.615 L 20.15,-180 L 20.1904,-180.385 L 20.3099,-180.752 L 20.5033,-181.087 L 20.7621,-181.375
 L 21.075,-181.602 L 21.4283,-181.759 L 21.8066,-181.84 L 22.1934,-181.84 L 22.5717,-181.759 L 22.925,-181.602
 L 23.2379,-181.375 L 23.4967,-181.087 L 23.69,-180.752 L 23.8096,-180.385 L 23.85,-180 L 23.8096,-179.615
 L 23.69,-179.248 L 23.4967,-178.913 L 23.2379,-178.625 L 22.925,-178.398 L 22.5717,-178.241 L 22.1934,-178.16
 z
M 416.807,-149.16 L 416.428,-149.241 L 416.075,-149.398 L 415.762,-149.625 L 415.503,-149.913 L 415.31,-150.248
 L 415.19,-150.615 L 415.15,-151 L 415.19,-151.385 L 415.31,-151.752 L 415.503,-152.087 L 415.762,-152.375
 L 416.075,-152.602 L 416.428,-152.759 L 416.807,-152.84 L 417.193,-152.84 L 417.572,-152.759 L 417.925,-152.602
 L 418.238,-152.375 L 418.497,-152.087 L 418.69,-151.752 L 418.81,-151.385 L 418.85,-151 L 418.81,-150.615
 L 418.69,-150.248 L 418.497,-149.913 L 418.238,-149.625 L 417.925,-149.398 L 417.572,-149.241 L 417.193,-149.16
 z
M 416.807,-139.16 L 416.428,-139.241 L 416.075,-139.398 L 415.762,-139.625 L 415.503,-139.913 L 415.31,-140.248
 L 415.19,-140.615 L 415.15,-141 L 415.19,-141.385 L 415.31,-141.752 L 415.503,-142.087 L 415.762,-142.375
 L 416.075,-142.602 L 416.428,-142.759 L 416.807,-142.84 L 417.193,-142.84 L 417.572,-142.759 L 417.925,-142.602
 L 418.238,-142.375 L 418.497,-142.087 L 418.69,-141.752 L 418.81,-141.385 L 418.85,-141 L 418.81,-140.615
 L 418.69,-140.248 L 418.497,-139.913 L 418.238,-139.625 L 417.925,-139.398 L 417.572,-139.241 L 417.193,-139.16
 z
M 21.8066,-138.66 L 21.4283,-138.741 L 21.075,-138.898 L 20.7621,-139.125 L 20.5033,-139.413 L 20.3099,-139.748
 L 20.1904,-140.115 L 20.15,-140.5 L 20.1904,-140.885 L 20.3099,-141.252 L 20.5033,-141.587 L 20.7621,-141.875
 L 21.075,-142.102 L 21.4283,-142.259 L 21.8066,-142.34 L 22.1934,-142.34 L 22.5717,-142.259 L 22.925,-142.102
 L 23.2379,-141.875 L 23.4967,-141.587 L 23.69,-141.252 L 23.8096,-140.885 L 23.85,-140.5 L 23.8096,-140.115
 L 23.69,-139.748 L 23.4967,-139.413 L 23.2379,-139.125 L 22.925,-138.898 L 22.5717,-138.741 L 22.1934,-138.66
 z
M 21.8066,-128.66 L 21.4283,-128.741 L 21.075,-128.898 L 20.7621,-129.125 L 20.5033,-129.413 L 20.3099,-129.748
 L 20.1904,-130.115 L 20.15,-130.5 L 20.1904,-130.885 L 20.3099,-131.252 L 20.5033,-131.587 L 20.7621,-131.875
 L 21.075,-132.102 L 21.4283,-132.259 L 21.8066,-132.34 L 22.1934,-132.34 L 22.5717,-132.259 L 22.925,-132.102
 L 23.2379,-131.875 L 23.4967,-131.587 L 23.69,-131.252 L 23.8096,-130.885 L 23.85,-130.5 L 23.8096,-130.115
 L 23.69,-129.748 L 23.4967,-129.413 L 23.2379,-129.125 L 22.925,-128.898 L 22.5717,-128.741 L 22.1934,-128.66
 z
M 416.807,-99.6601 L 416.428,-99.7405 L 416.075,-99.8978 L 415.762,-100.125 L 415.503,-100.413 L 415.31,-100.748
 L 415.19,-101.115 L 415.15,-101.5 L 415.19,-101.885 L 415.31,-102.252 L 415.503,-102.587 L 415.762,-102.875
 L 416.075,-103.102 L 416.428,-103.259 L 416.807,-103.34 L 417.193,-103.34 L 417.572,-103.259 L 417.925,-103.102
 L 418.238,-102.875 L 418.497,-102.587 L 418.69,-102.252 L 418.81,-101.885 L 418.85,-101.5 L 418.81,-101.115
 L 418.69,-100.748 L 418.497,-100.413 L 418.238,-100.125 L 417.925,-99.8978 L 417.572,-99.7405 L 417.193,-99.6601
 z
M 416.807,-89.6601 L 416.428,-89.7405 L 416.075,-89.8978 L 415.762,-90.1252 L 415.503,-90.4126 L 415.31,-90.7475
 L 415.19,-91.1154 L 415.15,-91.5 L 415.19,-91.8846 L 415.31,-92.2525 L 415.503,-92.5874 L 415.762,-92.8748
 L 416.075,-93.1021 L 416.428,-93.2594 L 416.807,-93.3399 L 417.193,-93.3399 L 417.572,-93.2594 L 417.925,-93.1021
 L 418.238,-92.8748 L 418.497,-92.5874 L 418.69,-92.2525 L 418.81,-91.8846 L 418.85,-91.5 L 418.81,-91.1154
 L 418.69,-90.7475 L 418.497,-90.4126 L 418.238,-90.1252 L 417.925,-89.8978 L 417.572,-89.7405 L 417.193,-89.6601
 z
M 276.807,-25.6601 L 276.428,-25.7405 L 276.075,-25.8978 L 275.762,-26.1252 L 275.503,-26.4126 L 275.31,-26.7475
 L 275.19,-27.1154 L 275.15,-27.5 L 275.19,-27.8846 L 275.31,-28.2525 L 275.503,-28.5874 L 275.762,-28.8748
 L 276.075,-29.1021 L 276.428,-29.2594 L 276.807,-29.3399 L 277.193,-29.3399 L 277.572,-29.2594 L 277.925,-29.1021
 L 278.238,-28.8748 L 278.497,-28.5874 L 278.69,-28.2525 L 278.81,-27.8846 L 278.85,-27.5 L 278.81,-27.1154
 L 278.69,-26.7475 L 278.497,-26.4126 L 278.238,-26.1252 L 277.925,-25.8978 L 277.572,-25.7405 L 277.193,-25.6601
 z
M 96.8066,-25.6601 L 96.4283,-25.7405 L 96.075,-25.8978 L 95.7621,-26.1252 L 95.5033,-26.4126 L 95.3099,-26.7475
 L 95.1904,-27.1154 L 95.15,-27.5 L 95.1904,-27.8846 L 95.3099,-28.2525 L 95.5033,-28.5874 L 95.7621,-28.8748
 L 96.075,-29.1021 L 96.4283,-29.2594 L 96.8066,-29.3399 L 97.1934,-29.3399 L 97.5717,-29.2594 L 97.925,-29.1021
 L 98.2379,-28.8748 L 98.4967,-28.5874 L 98.6901,-28.2525 L 98.8096,-27.8846 L 98.85,-27.5 L 98.8096,-27.1154
 L 98.6901,-26.7475 L 98.4967,-26.4126 L 98.2379,-26.1252 L 97.925,-25.8978 L 97.5717,-25.7405 L 97.1934,-25.6601
 z
M 326.307,-25.6601 L 325.928,-25.7405 L 325.575,-25.8978 L 325.262,-26.1252 L 325.003,-26.4126 L 324.81,-26.7475
 L 324.69,-27.1154 L 324.65,-27.5 L 324.69,-27.8846 L 324.81,-28.2525 L 325.003,-28.5874 L 325.262,-28.8748
 L 325.575,-29.1021 L 325.928,-29.2594 L 326.307,-29.3399 L 326.693,-29.3399 L 327.072,-29.2594 L 327.425,-29.1021
 L 327.738,-28.8748 L 327.997,-28.5874 L 328.19,-28.2525 L 328.31,-27.8846 L 328.35,-27.5 L 328.31,-27.1154
 L 328.19,-26.7475 L 327.997,-26.4126 L 327.738,-26.1252 L 327.425,-25.8978 L 327.072,-25.7405 L 326.693,-25.6601
 z
M 316.307,-25.6601 L 315.928,-25.7405 L 315.575,-25.8978 L 315.262,-26.1252 L 315.003,-26.4126 L 314.81,-26.7475
 L 314.69,-27.1154 L 314.65,-27.5 L 314.69,-27.8846 L 314.81,-28.2525 L 315.003,-28.5874 L 315.262,-28.8748
 L 315.575,-29.1021 L 315.928,-29.2594 L 316.307,-29.3399 L 316.693,-29.3399 L 317.072,-29.2594 L 317.425,-29.1021
 L 317.738,-28.8748 L 317.997,-28.5874 L 318.19,-28.2525 L 318.31,-27.8846 L 318.35,-27.5 L 318.31,-27.1154
 L 318.19,-26.7475 L 317.997,-26.4126 L 317.738,-26.1252 L 317.425,-25.8978 L 317.072,-25.7405 L 316.693,-25.6601
 z
M 146.307,-25.6601 L 145.928,-25.7405 L 145.575,-25.8978 L 145.262,-26.1252 L 145.003,-26.4126 L 144.81,-26.7475
 L 144.69,-27.1154 L 144.65,-27.5 L 144.69,-27.8846 L 144.81,-28.2525 L 145.003,-28.5874 L 145.262,-28.8748
 L 145.575,-29.1021 L 145.928,-29.2594 L 146.307,-29.3399 L 146.693,-29.3399 L 147.072,-29.2594 L 147.425,-29.1021
 L 147.738,-28.8748 L 147.997,-28.5874 L 148.19,-28.2525 L 148.31,-27.8846 L 148.35,-27.5 L 148.31,-27.1154
 L 148.19,-26.7475 L 147.997,-26.4126 L 147.738,-26.1252 L 147.425,-25.8978 L 147.072,-25.7405 L 146.693,-25.6601
 z
M 156.307,-25.6601 L 155.928,-25.7405 L 155.575,-25.8978 L 155.262,-26.1252 L 155.003,-26.4126 L 154.81,-26.7475
 L 154.69,-27.1154 L 154.65,-27.5 L 154.69,-27.8846 L 154.81,-28.2525 L 155.003,-28.5874 L 155.262,-28.8748
 L 155.575,-29.1021 L 155.928,-29.2594 L 156.307,-29.3399 L 156.693,-29.3399 L 157.072,-29.2594 L 157.425,-29.1021
 L 157.738,-28.8748 L 157.997,-28.5874 L 158.19,-28.2525 L 158.31,-27.8846 L 158.35,-27.5 L 158.31,-27.1154
 L 158.19,-26.7475 L 157.997,-26.4126 L 157.738,-26.1252 L 157.425,-25.8978 L 157.072,-25.7405 L 156.693,-25.6601
 z
M 106.807,-25.6601 L 106.428,-25.7405 L 106.075,-25.8978 L 105.762,-26.1252 L 105.503,-26.4126 L 105.31,-26.7475
 L 105.19,-27.1154 L 105.15,-27.5 L 105.19,-27.8846 L 105.31,-28.2525 L 105.503,-28.5874 L 105.762,-28.8748
 L 106.075,-29.1021 L 106.428,-29.2594 L 106.807,-29.3399 L 107.193,-29.3399 L 107.572,-29.2594 L 107.925,-29.1021
 L 108.238,-28.8748 L 108.497,-28.5874 L 108.69,-28.2525 L 108.81,-27.8846 L 108.85,-27.5 L 108.81,-27.1154
 L 108.69,-26.7475 L 108.497,-26.4126 L 108.238,-26.1252 L 107.925,-25.8978 L 107.572,-25.7405 L 107.193,-25.6601
 z
M 266.807,-25.6601 L 266.428,-25.7405 L 266.075,-25.8978 L 265.762,-26.1252 L 265.503,-26.4126 L 265.31,-26.7475
 L 265.19,-27.1154 L 265.15,-27.5 L 265.19,-27.8846 L 265.31,-28.2525 L 265.503,-28.5874 L 265.762,-28.8748
 L 266.075,-29.1021 L 266.428,-29.2594 L 266.807,-29.3399 L 267.193,-29.3399 L 267.572,-29.2594 L 267.925,-29.1021
 L 268.238,-28.8748 L 268.497,-28.5874 L 268.69,-28.2525 L 268.81,-27.8846 L 268.85,-27.5 L 268.81,-27.1154
 L 268.69,-26.7475 L 268.497,-26.4126 L 268.238,-26.1252 L 267.925,-25.8978 L 267.572,-25.7405 L 267.193,-25.6601
 z
M 146.307,-380.66 L 145.928,-380.741 L 145.575,-380.898 L 145.262,-381.125 L 145.003,-381.413 L 144.81,-381.748
 L 144.69,-382.115 L 144.65,-382.5 L 144.69,-382.885 L 144.81,-383.252 L 145.003,-383.587 L 145.262,-383.875
 L 145.575,-384.102 L 145.928,-384.259 L 146.307,-384.34 L 146.693,-384.34 L 147.072,-384.259 L 147.425,-384.102
 L 147.738,-383.875 L 147.997,-383.587 L 148.19,-383.252 L 148.31,-382.885 L 148.35,-382.5 L 148.31,-382.115
 L 148.19,-381.748 L 147.997,-381.413 L 147.738,-381.125 L 147.425,-380.898 L 147.072,-380.741 L 146.693,-380.66
 z
" stroke="black" fill="lightgray" stroke-width="0.5"/></svg>
