<?xml version="1.0" standalone="no"?>
<!DOCTYPE svg PUBLIC "-//W3C//DTD SVG 1.1//EN" "http://www.w3.org/Graphics/SVG/1.1/DTD/svg11.dtd">
<svg width="411" height="61" viewBox="0 -61 411 61" xmlns="http://www.w3.org/2000/svg" version="1.1">
<title>OpenSCAD Model</title>
<path d="
M 410.3,-60.51 L 0,-60.51 L 0,-0 L 410.3,-0 z
M 330.807,-46.9601 L 330.428,-47.0405 L 330.075,-47.1978 L 329.762,-47.4252 L 329.503,-47.7126 L 329.31,-48.0475
 L 329.19,-48.4154 L 329.15,-48.8 L 329.19,-49.1846 L 329.31,-49.5525 L 329.503,-49.8874 L 329.762,-50.1748
 L 330.075,-50.4021 L 330.428,-50.5594 L 330.807,-50.6399 L 331.193,-50.6399 L 331.572,-50.5594 L 331.925,-50.4021
 L 332.238,-50.1748 L 332.497,-49.8874 L 332.69,-49.5525 L 332.81,-49.1846 L 332.85,-48.8 L 332.81,-48.4154
 L 332.69,-48.0475 L 332.497,-47.7126 L 332.238,-47.4252 L 331.925,-47.1978 L 331.572,-47.0405 L 331.193,-46.9601
 z
M 280.807,-46.9601 L 280.428,-47.0405 L 280.075,-47.1978 L 279.762,-47.4252 L 279.503,-47.7126 L 279.31,-48.0475
 L 279.19,-48.4154 L 279.15,-48.8 L 279.19,-49.1846 L 279.31,-49.5525 L 279.503,-49.8874 L 279.762,-50.1748
 L 280.075,-50.4021 L 280.428,-50.5594 L 280.807,-50.6399 L 281.193,-50.6399 L 281.572,-50.5594 L 281.925,-50.4021
 L 282.238,-50.1748 L 282.497,-49.8874 L 282.69,-49.5525 L 282.81,-49.1846 L 282.85,-48.8 L 282.81,-48.4154
 L 282.69,-48.0475 L 282.497,-47.7126 L 282.238,-47.4252 L 281.925,-47.1978 L 281.572,-47.0405 L 281.193,-46.9601
 z
M 230.807,-46.9601 L 230.428,-47.0405 L 230.075,-47.1978 L 229.762,-47.4252 L 229.503,-47.7126 L 229.31,-48.0475
 L 229.19,-48.4154 L 229.15,-48.8 L 229.19,-49.1846 L 229.31,-49.5525 L 229.503,-49.8874 L 229.762,-50.1748
 L 230.075,-50.4021 L 230.428,-50.5594 L 230.807,-50.6399 L 231.193,-50.6399 L 231.572,-50.5594 L 231.925,-50.4021
 L 232.238,-50.1748 L 232.497,-49.8874 L 232.69,-49.5525 L 232.81,-49.1846 L 232.85,-48.8 L 232.81,-48.4154
 L 232.69,-48.0475 L 232.497,-47.7126 L 232.238,-47.4252 L 231.925,-47.1978 L 231.572,-47.0405 L 231.193,-46.9601
 z
M 59.8066,-42.1601 L 59.4283,-42.2405 L 59.075,-42.3978 L 58.7621,-42.6252 L 58.5033,-42.9126 L 58.3099,-43.2475
 L 58.1904,-43.6154 L 58.15,-44 L 58.1904,-44.3846 L 58.3099,-44.7525 L 58.5033,-45.0874 L 58.7621,-45.3748
 L 59.075,-45.6021 L 59.4283,-45.7594 L 59.8066,-45.8399 L 60.1934,-45.8399 L 60.5717,-45.7594 L 60.925,-45.6021
 L 61.2379,-45.3748 L 61.4967,-45.0874 L 61.69,-44.7525 L 61.8096,-44.3846 L 61.85,-44 L 61.8096,-43.6154
 L 61.69,-43.2475 L 61.4967,-42.9126 L 61.2379,-42.6252 L 60.925,-42.3978 L 60.5717,-42.2405 L 60.1934,-42.1601
 z
M 110.607,-42.1601 L 110.228,-42.2405 L 109.875,-42.3978 L 109.562,-42.6252 L 109.303,-42.9126 L 109.11,-43.2475
 L 108.99,-43.6154 L 108.95,-44 L 108.99,-44.3846 L 109.11,-44.7525 L 109.303,-45.0874 L 109.562,-45.3748
 L 109.875,-45.6021 L 110.228,-45.7594 L 110.607,-45.8399 L 110.993,-45.8399 L 111.372,-45.7594 L 111.725,-45.6021
 L 112.038,-45.3748 L 112.297,-45.0874 L 112.49,-44.7525 L 112.61,-44.3846 L 112.65,-44 L 112.61,-43.6154
 L 112.49,-43.2475 L 112.297,-42.9126 L 112.038,-42.6252 L 111.725,-42.3978 L 111.372,-42.2405 L 110.993,-42.1601
 z
M 234,-19.8 L 234,-42.8 L 330,-42.8 L 330,-19.8 z
M 55,-20.5 L 55,-38.5 L 113,-38.5 L 113,-20.5 z
M 110.607,-12.1601 L 110.228,-12.2405 L 109.875,-12.3978 L 109.562,-12.6252 L 109.303,-12.9126 L 109.11,-13.2475
 L 108.99,-13.6154 L 108.95,-14 L 108.99,-14.3846 L 109.11,-14.7525 L 109.303,-15.0874 L 109.562,-15.3748
 L 109.875,-15.6021 L 110.228,-15.7594 L 110.607,-15.8399 L 110.993,-15.8399 L 111.372,-15.7594 L 111.725,-15.6021
 L 112.038,-15.3748 L 112.297,-15.0874 L 112.49,-14.7525 L 112.61,-14.3846 L 112.65,-14 L 112.61,-13.6154
 L 112.49,-13.2475 L 112.297,-12.9126 L 112.038,-12.6252 L 111.725,-12.3978 L 111.372,-12.2405 L 110.993,-12.1601
 z
M 59.8066,-12.1601 L 59.4283,-12.2405 L 59.075,-12.3978 L 58.7621,-12.6252 L 58.5033,-12.9126 L 58.3099,-13.2475
 L 58.1904,-13.6154 L 58.15,-14 L 58.1904,-14.3846 L 58.3099,-14.7525 L 58.5033,-15.0874 L 58.7621,-15.3748
 L 59.075,-15.6021 L 59.4283,-15.7594 L 59.8066,-15.8399 L 60.1934,-15.8399 L 60.5717,-15.7594 L 60.925,-15.6021
 L 61.2379,-15.3748 L 61.4967,-15.0874 L 61.69,-14.7525 L 61.8096,-14.3846 L 61.85,-14 L 61.8096,-13.6154
 L 61.69,-13.2475 L 61.4967,-12.9126 L 61.2379,-12.6252 L 60.925,-12.3978 L 60.5717,-12.2405 L 60.1934,-12.1601
 z
M 330.807,-11.9601 L 330.428,-12.0405 L 330.075,-12.1978 L 329.762,-12.4252 L 329.503,-12.7126 L 329.31,-13.0475
 L 329.19,-13.4154 L 329.15,-13.8 L 329.19,-14.1846 L 329.31,-14.5525 L 329.503,-14.8874 L 329.762,-15.1748
 L 330.075,-15.4021 L 330.428,-15.5594 L 330.807,-15.6399 L 331.193,-15.6399 L 331.572,-15.5594 L 331.925,-15.4021
 L 332.238,-15.1748 L 332.497,-14.8874 L 332.69,-14.5525 L 332.81,-14.1846 L 332.85,-13.8 L 332.81,-13.4154
 L 332.69,-13.0475 L 332.497,-12.7126 L 332.238,-12.4252 L 331.925,-12.1978 L 331.572,-12.0405 L 331.193,-11.9601
 z
M 280.807,-11.9601 L 280.428,-12.0405 L 280.075,-12.1978 L 279.762,-12.4252 L 279.503,-12.7126 L 279.31,-13.0475
 L 279.19,-13.4154 L 279.15,-13.8 L 279.19,-14.1846 L 279.31,-14.5525 L 279.503,-14.8874 L 279.762,-15.1748
 L 280.075,-15.4021 L 280.428,-15.5594 L 280.807,-15.6399 L 281.193,-15.6399 L 281.572,-15.5594 L 281.925,-15.4021
 L 282.238,-15.1748 L 282.497,-14.8874 L 282.69,-14.5525 L 282.81,-14.1846 L 282.85,-13.8 L 282.81,-13.4154
 L 282.69,-13.0475 L 282.497,-12.7126 L 282.238,-12.4252 L 281.925,-12.1978 L 281.572,-12.0405 L 281.193,-11.9601
 z
M 230.807,-11.9601 L 230.428,-12.0405 L 230.075,-12.1978 L 229.762,-12.4252 L 229.503,-12.7126 L 229.31,-13.0475
 L 229.19,-13.4154 L 229.15,-13.8 L 229.19,-14.1846 L 229.31,-14.5525 L 229.503,-14.8874 L 229.762,-15.1748
 L 230.075,-15.4021 L 230.428,-15.5594 L 230.807,-15.6399 L 231.193,-15.6399 L 231.572,-15.5594 L 231.925,-15.4021
 L 232.238,-15.1748 L 232.497,-14.8874 L 232.69,-14.5525 L 232.81,-14.1846 L 232.85,-13.8 L 232.81,-13.4154
 L 232.69,-13.0475 L 232.497,-12.7126 L 232.238,-12.4252 L 231.925,-12.1978 L 231.572,-12.0405 L 231.193,-11.9601
 z
" stroke="black" fill="lightgray" stroke-width="0.5"/></svg>
