<?xml version="1.0" standalone="no"?>
<!DOCTYPE svg PUBLIC "-//W3C//DTD SVG 1.1//EN" "http://www.w3.org/Graphics/SVG/1.1/DTD/svg11.dtd">
<svg width="411" height="61" viewBox="0 -61 411 61" xmlns="http://www.w3.org/2000/svg" version="1.1">
<title>OpenSCAD Model</title>
<path d="
M 410.3,-60.51 L 0,-60.51 L 0,-0 L 410.3,-0 z
M 230.807,-46.9601 L 230.428,-47.0405 L 230.075,-47.1978 L 229.762,-47.4252 L 229.503,-47.7126 L 229.31,-48.0475
 L 229.19,-48.4154 L 229.15,-48.8 L 229.19,-49.1846 L 229.31,-49.5525 L 229.503,-49.8874 L 229.762,-50.1748
 L 230.075,-50.4021 L 230.428,-50.5594 L 230.807,-50.6399 L 231.193,-50.6399 L 231.572,-50.5594 L 231.925,-50.4021
 L 232.238,-50.1748 L 232.497,-49.8874 L 232.69,-49.5525 L 232.81,-49.1846 L 232.85,-48.8 L 232.81,-48.4154
 L 232.69,-48.0475 L 232.497,-47.7126 L 232.238,-47.4252 L 231.925,-47.1978 L 231.572,-47.0405 L 231.193,-46.9601
 z
M 330.807,-46.9601 L 330.428,-47.0405 L 330.075,-47.1978 L 329.762,-47.4252 L 329.503,-47.7126 L 329.31,-48.0475
 L 329.19,-48.4154 L 329.15,-48.8 L 329.19,-49.1846 L 329.31,-49.5525 L 329.503,-49.8874 L 329.762,-50.1748
 L 330.075,-50.4021 L 330.428,-50.5594 L 330.807,-50.6399 L 331.193,-50.6399 L 331.572,-50.5594 L 331.925,-50.4021
 L 332.238,-50.1748 L 332.497,-49.8874 L 332.69,-49.5525 L 332.81,-49.1846 L 332.85,-48.8 L 332.81,-48.4154
 L 332.69,-48.0475 L 332.497,-47.7126 L 332.238,-47.4252 L 331.925,-47.1978 L 331.572,-47.0405 L 331.193,-46.9601
 z
M 280.807,-46.9601 L 280.428,-47.0405 L 280.075,-47.1978 L 279.762,-47.4252 L 279.503,-47.7126 L 279.31,-48.0475
 L 279.19,-48.4154 L 279.15,-48.8 L 279.19,-49.1846 L 279.31,-49.5525 L 279.503,-49.8874 L 279.762,-50.1748
 L 280.075,-50.4021 L 280.428,-50.5594 L 280.807,-50.6399 L 281.193,-50.6399 L 281.572,-50.5594 L 281.925,-50.4021
 L 282.238,-50.1748 L 282.497,-49.8874 L 282.69,-49.5525 L 282.81,-49.1846 L 282.85,-48.8 L 282.81,-48.4154
 L 282.69,-48.0475 L 282.497,-47.7126 L 282.238,-47.4252 L 281.925,-47.1978 L 281.572,-47.0405 L 281.193,-46.9601
 z
M 110.58,-42.2115 L 110.151,-42.3028 L 109.75,-42.4813 L 109.395,-42.7394 L 109.101,-43.0656 L 108.882,-43.4458
 L 108.746,-43.8634 L 108.7,-44.3 L 108.746,-44.7366 L 108.882,-45.1541 L 109.101,-45.5343 L 109.395,-45.8606
 L 109.75,-46.1187 L 110.151,-46.2972 L 110.58,-46.3885 L 111.02,-46.3885 L 111.449,-46.2972 L 111.85,-46.1187
 L 112.205,-45.8606 L 112.499,-45.5343 L 112.718,-45.1541 L 112.854,-44.7366 L 112.9,-44.3 L 112.854,-43.8634
 L 112.718,-43.4458 L 112.499,-43.0656 L 112.205,-42.7394 L 111.85,-42.4813 L 111.449,-42.3028 L 111.02,-42.2115
 z
M 59.7805,-42.2115 L 59.3511,-42.3028 L 58.95,-42.4813 L 58.5948,-42.7394 L 58.3011,-43.0656 L 58.0815,-43.4458
 L 57.9459,-43.8634 L 57.9,-44.3 L 57.9459,-44.7366 L 58.0815,-45.1541 L 58.3011,-45.5343 L 58.5948,-45.8606
 L 58.95,-46.1187 L 59.3511,-46.2972 L 59.7805,-46.3885 L 60.2195,-46.3885 L 60.6489,-46.2972 L 61.05,-46.1187
 L 61.4052,-45.8606 L 61.6989,-45.5343 L 61.9184,-45.1541 L 62.0541,-44.7366 L 62.1,-44.3 L 62.0541,-43.8634
 L 61.9184,-43.4458 L 61.6989,-43.0656 L 61.4052,-42.7394 L 61.05,-42.4813 L 60.6489,-42.3028 L 60.2195,-42.2115
 z
M 234,-19.8 L 234,-42.8 L 330,-42.8 L 330,-19.8 z
M 55,-20.5 L 55,-41.5 L 113,-41.5 L 113,-20.5 z
M 111.98,-14.9115 L 111.551,-15.0028 L 111.15,-15.1813 L 110.795,-15.4394 L 110.501,-15.7656 L 110.282,-16.1458
 L 110.146,-16.5634 L 110.1,-17 L 110.146,-17.4366 L 110.282,-17.8541 L 110.501,-18.2343 L 110.795,-18.5606
 L 111.15,-18.8186 L 111.551,-18.9972 L 111.98,-19.0885 L 112.42,-19.0885 L 112.849,-18.9972 L 113.25,-18.8186
 L 113.605,-18.5606 L 113.899,-18.2343 L 114.118,-17.8541 L 114.254,-17.4366 L 114.3,-17 L 114.254,-16.5634
 L 114.118,-16.1458 L 113.899,-15.7656 L 113.605,-15.4394 L 113.25,-15.1813 L 112.849,-15.0028 L 112.42,-14.9115
 z
M 59.7805,-13.9115 L 59.3511,-14.0028 L 58.95,-14.1813 L 58.5948,-14.4394 L 58.3011,-14.7656 L 58.0815,-15.1458
 L 57.9459,-15.5634 L 57.9,-16 L 57.9459,-16.4366 L 58.0815,-16.8541 L 58.3011,-17.2343 L 58.5948,-17.5606
 L 58.95,-17.8186 L 59.3511,-17.9972 L 59.7805,-18.0885 L 60.2195,-18.0885 L 60.6489,-17.9972 L 61.05,-17.8186
 L 61.4052,-17.5606 L 61.6989,-17.2343 L 61.9184,-16.8541 L 62.0541,-16.4366 L 62.1,-16 L 62.0541,-15.5634
 L 61.9184,-15.1458 L 61.6989,-14.7656 L 61.4052,-14.4394 L 61.05,-14.1813 L 60.6489,-14.0028 L 60.2195,-13.9115
 z
M 330.807,-11.9601 L 330.428,-12.0405 L 330.075,-12.1978 L 329.762,-12.4252 L 329.503,-12.7126 L 329.31,-13.0475
 L 329.19,-13.4154 L 329.15,-13.8 L 329.19,-14.1846 L 329.31,-14.5525 L 329.503,-14.8874 L 329.762,-15.1748
 L 330.075,-15.4021 L 330.428,-15.5594 L 330.807,-15.6399 L 331.193,-15.6399 L 331.572,-15.5594 L 331.925,-15.4021
 L 332.238,-15.1748 L 332.497,-14.8874 L 332.69,-14.5525 L 332.81,-14.1846 L 332.85,-13.8 L 332.81,-13.4154
 L 332.69,-13.0475 L 332.497,-12.7126 L 332.238,-12.4252 L 331.925,-12.1978 L 331.572,-12.0405 L 331.193,-11.9601
 z
M 280.807,-11.9601 L 280.428,-12.0405 L 280.075,-12.1978 L 279.762,-12.4252 L 279.503,-12.7126 L 279.31,-13.0475
 L 279.19,-13.4154 L 279.15,-13.8 L 279.19,-14.1846 L 279.31,-14.5525 L 279.503,-14.8874 L 279.762,-15.1748
 L 280.075,-15.4021 L 280.428,-15.5594 L 280.807,-15.6399 L 281.193,-15.6399 L 281.572,-15.5594 L 281.925,-15.4021
 L 282.238,-15.1748 L 282.497,-14.8874 L 282.69,-14.5525 L 282.81,-14.1846 L 282.85,-13.8 L 282.81,-13.4154
 L 282.69,-13.0475 L 282.497,-12.7126 L 282.238,-12.4252 L 281.925,-12.1978 L 281.572,-12.0405 L 281.193,-11.9601
 z
M 230.807,-11.9601 L 230.428,-12.0405 L 230.075,-12.1978 L 229.762,-12.4252 L 229.503,-12.7126 L 229.31,-13.0475
 L 229.19,-13.4154 L 229.15,-13.8 L 229.19,-14.1846 L 229.31,-14.5525 L 229.503,-14.8874 L 229.762,-15.1748
 L 230.075,-15.4021 L 230.428,-15.5594 L 230.807,-15.6399 L 231.193,-15.6399 L 231.572,-15.5594 L 231.925,-15.4021
 L 232.238,-15.1748 L 232.497,-14.8874 L 232.69,-14.5525 L 232.81,-14.1846 L 232.85,-13.8 L 232.81,-13.4154
 L 232.69,-13.0475 L 232.497,-12.7126 L 232.238,-12.4252 L 231.925,-12.1978 L 231.572,-12.0405 L 231.193,-11.9601
 z
" stroke="black" fill="lightgray" stroke-width="0.5"/></svg>
