<?xml version="1.0" standalone="no"?>
<!DOCTYPE svg PUBLIC "-//W3C//DTD SVG 1.1//EN" "http://www.w3.org/Graphics/SVG/1.1/DTD/svg11.dtd">
<svg width="385" height="350" viewBox="28 -380 385 350" xmlns="http://www.w3.org/2000/svg" version="1.1">
<title>OpenSCAD Model</title>
<path d="
M 70,-129.9 L 154,-129.9 L 154,-30 L 412.5,-30 L 412.5,-380 L 375,-380
 L 375,-250 L 67,-250 L 67,-380 L 28.5,-380 L 28.5,-30 L 70,-30
 z
M 389.801,-361.11 L 389.413,-361.193 L 389.05,-361.355 L 388.729,-361.588 L 388.463,-361.883 L 388.264,-362.227
 L 388.142,-362.605 L 388.1,-363 L 388.142,-363.395 L 388.264,-363.773 L 388.463,-364.117 L 388.729,-364.412
 L 389.05,-364.645 L 389.413,-364.807 L 389.801,-364.89 L 390.199,-364.89 L 390.587,-364.807 L 390.95,-364.645
 L 391.271,-364.412 L 391.537,-364.117 L 391.736,-363.773 L 391.858,-363.395 L 391.9,-363 L 391.858,-362.605
 L 391.736,-362.227 L 391.537,-361.883 L 391.271,-361.588 L 390.95,-361.355 L 390.587,-361.193 L 390.199,-361.11
 z
M 49.8014,-361.11 L 49.4129,-361.193 L 49.05,-361.355 L 48.7287,-361.588 L 48.4629,-361.883 L 48.2643,-362.227
 L 48.1415,-362.605 L 48.1,-363 L 48.1415,-363.395 L 48.2643,-363.773 L 48.4629,-364.117 L 48.7287,-364.412
 L 49.05,-364.645 L 49.4129,-364.807 L 49.8014,-364.89 L 50.1986,-364.89 L 50.5871,-364.807 L 50.95,-364.645
 L 51.2713,-364.412 L 51.5371,-364.117 L 51.7357,-363.773 L 51.8585,-363.395 L 51.9,-363 L 51.8585,-362.605
 L 51.7357,-362.227 L 51.5371,-361.883 L 51.2713,-361.588 L 50.95,-361.355 L 50.5871,-361.193 L 50.1986,-361.11
 z
M 34.723,-330.865 L 34.1811,-330.98 L 33.675,-331.205 L 33.2268,-331.531 L 32.8561,-331.942 L 32.5791,-332.422
 L 32.4079,-332.949 L 32.35,-333.5 L 32.3763,-333.75 L 32.35,-334 L 32.3763,-334.25 L 32.35,-334.5
 L 32.4079,-335.051 L 32.5791,-335.578 L 32.8561,-336.058 L 33.2268,-336.469 L 33.675,-336.795 L 34.1811,-337.02
 L 34.723,-337.135 L 35.277,-337.135 L 35.8189,-337.02 L 36.325,-336.795 L 36.7732,-336.469 L 37.1439,-336.058
 L 37.4209,-335.578 L 37.5921,-335.051 L 37.65,-334.5 L 37.6237,-334.25 L 37.65,-334 L 37.6237,-333.75
 L 37.65,-333.5 L 37.5921,-332.949 L 37.4209,-332.422 L 37.1439,-331.942 L 36.7732,-331.531 L 36.325,-331.205
 L 35.8189,-330.98 L 35.277,-330.865 z
M 34.723,-318.865 L 34.1811,-318.98 L 33.675,-319.205 L 33.2268,-319.531 L 32.8561,-319.942 L 32.5791,-320.422
 L 32.4079,-320.949 L 32.35,-321.5 L 32.3763,-321.75 L 32.35,-322 L 32.3763,-322.25 L 32.35,-322.5
 L 32.4079,-323.051 L 32.5791,-323.578 L 32.8561,-324.058 L 33.2268,-324.469 L 33.675,-324.795 L 34.1811,-325.02
 L 34.723,-325.135 L 35.277,-325.135 L 35.8189,-325.02 L 36.325,-324.795 L 36.7732,-324.469 L 37.1439,-324.058
 L 37.4209,-323.578 L 37.5921,-323.051 L 37.65,-322.5 L 37.6237,-322.25 L 37.65,-322 L 37.6237,-321.75
 L 37.65,-321.5 L 37.5921,-320.949 L 37.4209,-320.422 L 37.1439,-319.942 L 36.7732,-319.531 L 36.325,-319.205
 L 35.8189,-318.98 L 35.277,-318.865 z
M 58.8014,-319.11 L 58.4129,-319.193 L 58.05,-319.355 L 57.7286,-319.588 L 57.4629,-319.883 L 57.2643,-320.227
 L 57.1415,-320.605 L 57.1,-321 L 57.1415,-321.395 L 57.2643,-321.773 L 57.4629,-322.117 L 57.7286,-322.412
 L 58.05,-322.645 L 58.4129,-322.807 L 58.8014,-322.89 L 59.1986,-322.89 L 59.5871,-322.807 L 59.95,-322.645
 L 60.2713,-322.412 L 60.5371,-322.117 L 60.7357,-321.773 L 60.8585,-321.395 L 60.9,-321 L 60.8585,-320.605
 L 60.7357,-320.227 L 60.5371,-319.883 L 60.2713,-319.588 L 59.95,-319.355 L 59.5871,-319.193 L 59.1986,-319.11
 z
M 380.801,-319.11 L 380.413,-319.193 L 380.05,-319.355 L 379.729,-319.588 L 379.463,-319.883 L 379.264,-320.227
 L 379.142,-320.605 L 379.1,-321 L 379.142,-321.395 L 379.264,-321.773 L 379.463,-322.117 L 379.729,-322.412
 L 380.05,-322.645 L 380.413,-322.807 L 380.801,-322.89 L 381.199,-322.89 L 381.587,-322.807 L 381.95,-322.645
 L 382.271,-322.412 L 382.537,-322.117 L 382.736,-321.773 L 382.858,-321.395 L 382.9,-321 L 382.858,-320.605
 L 382.736,-320.227 L 382.537,-319.883 L 382.271,-319.588 L 381.95,-319.355 L 381.587,-319.193 L 381.199,-319.11
 z
M 403.723,-316.365 L 403.181,-316.48 L 402.675,-316.705 L 402.227,-317.031 L 401.856,-317.442 L 401.579,-317.922
 L 401.408,-318.449 L 401.35,-319 L 401.376,-319.25 L 401.35,-319.5 L 401.376,-319.75 L 401.35,-320
 L 401.408,-320.551 L 401.579,-321.078 L 401.856,-321.558 L 402.227,-321.969 L 402.675,-322.295 L 403.181,-322.52
 L 403.723,-322.635 L 404.277,-322.635 L 404.819,-322.52 L 405.325,-322.295 L 405.773,-321.969 L 406.144,-321.558
 L 406.421,-321.078 L 406.592,-320.551 L 406.65,-320 L 406.624,-319.75 L 406.65,-319.5 L 406.624,-319.25
 L 406.65,-319 L 406.592,-318.449 L 406.421,-317.922 L 406.144,-317.442 L 405.773,-317.031 L 405.325,-316.705
 L 404.819,-316.48 L 404.277,-316.365 z
M 389.801,-311.11 L 389.413,-311.193 L 389.05,-311.355 L 388.729,-311.588 L 388.463,-311.883 L 388.264,-312.227
 L 388.142,-312.605 L 388.1,-313 L 388.142,-313.395 L 388.264,-313.773 L 388.463,-314.117 L 388.729,-314.412
 L 389.05,-314.645 L 389.413,-314.807 L 389.801,-314.89 L 390.199,-314.89 L 390.587,-314.807 L 390.95,-314.645
 L 391.271,-314.412 L 391.537,-314.117 L 391.736,-313.773 L 391.858,-313.395 L 391.9,-313 L 391.858,-312.605
 L 391.736,-312.227 L 391.537,-311.883 L 391.271,-311.588 L 390.95,-311.355 L 390.587,-311.193 L 390.199,-311.11
 z
M 49.8014,-311.11 L 49.4129,-311.193 L 49.05,-311.355 L 48.7287,-311.588 L 48.4629,-311.883 L 48.2643,-312.227
 L 48.1415,-312.605 L 48.1,-313 L 48.1415,-313.395 L 48.2643,-313.773 L 48.4629,-314.117 L 48.7287,-314.412
 L 49.05,-314.645 L 49.4129,-314.807 L 49.8014,-314.89 L 50.1986,-314.89 L 50.5871,-314.807 L 50.95,-314.645
 L 51.2713,-314.412 L 51.5371,-314.117 L 51.7357,-313.773 L 51.8585,-313.395 L 51.9,-313 L 51.8585,-312.605
 L 51.7357,-312.227 L 51.5371,-311.883 L 51.2713,-311.588 L 50.95,-311.355 L 50.5871,-311.193 L 50.1986,-311.11
 z
M 34.723,-282.365 L 34.1811,-282.48 L 33.675,-282.705 L 33.2268,-283.031 L 32.8561,-283.442 L 32.5791,-283.922
 L 32.4079,-284.449 L 32.35,-285 L 32.3763,-285.25 L 32.35,-285.5 L 32.3763,-285.75 L 32.35,-286
 L 32.4079,-286.551 L 32.5791,-287.078 L 32.8561,-287.558 L 33.2268,-287.969 L 33.675,-288.295 L 34.1811,-288.52
 L 34.723,-288.635 L 35.277,-288.635 L 35.8189,-288.52 L 36.325,-288.295 L 36.7732,-287.969 L 37.1439,-287.558
 L 37.4209,-287.078 L 37.5921,-286.551 L 37.65,-286 L 37.6237,-285.75 L 37.65,-285.5 L 37.6237,-285.25
 L 37.65,-285 L 37.5921,-284.449 L 37.4209,-283.922 L 37.1439,-283.442 L 36.7732,-283.031 L 36.325,-282.705
 L 35.8189,-282.48 L 35.277,-282.365 z
M 34.723,-252.365 L 34.1811,-252.48 L 33.675,-252.705 L 33.2268,-253.031 L 32.8561,-253.442 L 32.5791,-253.922
 L 32.4079,-254.449 L 32.35,-255 L 32.3763,-255.25 L 32.35,-255.5 L 32.3763,-255.75 L 32.35,-256
 L 32.4079,-256.551 L 32.5791,-257.078 L 32.8561,-257.558 L 33.2268,-257.969 L 33.675,-258.295 L 34.1811,-258.52
 L 34.723,-258.635 L 35.277,-258.635 L 35.8189,-258.52 L 36.325,-258.295 L 36.7732,-257.969 L 37.1439,-257.558
 L 37.4209,-257.078 L 37.5921,-256.551 L 37.65,-256 L 37.6237,-255.75 L 37.65,-255.5 L 37.6237,-255.25
 L 37.65,-255 L 37.5921,-254.449 L 37.4209,-253.922 L 37.1439,-253.442 L 36.7732,-253.031 L 36.325,-252.705
 L 35.8189,-252.48 L 35.277,-252.365 z
M 58.8014,-249.11 L 58.4129,-249.193 L 58.05,-249.355 L 57.7286,-249.588 L 57.4629,-249.883 L 57.2643,-250.227
 L 57.1415,-250.605 L 57.1,-251 L 57.1415,-251.395 L 57.2643,-251.773 L 57.4629,-252.117 L 57.7286,-252.412
 L 58.05,-252.645 L 58.4129,-252.807 L 58.8014,-252.89 L 59.1986,-252.89 L 59.5871,-252.807 L 59.95,-252.645
 L 60.2713,-252.412 L 60.5371,-252.117 L 60.7357,-251.773 L 60.8585,-251.395 L 60.9,-251 L 60.8585,-250.605
 L 60.7357,-250.227 L 60.5371,-249.883 L 60.2713,-249.588 L 59.95,-249.355 L 59.5871,-249.193 L 59.1986,-249.11
 z
M 380.801,-249.11 L 380.413,-249.193 L 380.05,-249.355 L 379.729,-249.588 L 379.463,-249.883 L 379.264,-250.227
 L 379.142,-250.605 L 379.1,-251 L 379.142,-251.395 L 379.264,-251.773 L 379.463,-252.117 L 379.729,-252.412
 L 380.05,-252.645 L 380.413,-252.807 L 380.801,-252.89 L 381.199,-252.89 L 381.587,-252.807 L 381.95,-252.645
 L 382.271,-252.412 L 382.537,-252.117 L 382.736,-251.773 L 382.858,-251.395 L 382.9,-251 L 382.858,-250.605
 L 382.736,-250.227 L 382.537,-249.883 L 382.271,-249.588 L 381.95,-249.355 L 381.587,-249.193 L 381.199,-249.11
 z
M 388.901,-244.61 L 388.513,-244.693 L 388.15,-244.855 L 387.829,-245.088 L 387.563,-245.383 L 387.364,-245.727
 L 387.242,-246.105 L 387.2,-246.5 L 387.242,-246.895 L 387.364,-247.273 L 387.563,-247.617 L 387.829,-247.912
 L 388.15,-248.145 L 388.513,-248.307 L 388.901,-248.39 L 389.299,-248.39 L 389.687,-248.307 L 390.05,-248.145
 L 390.371,-247.912 L 390.637,-247.617 L 390.836,-247.273 L 390.958,-246.895 L 391,-246.5 L 390.958,-246.105
 L 390.836,-245.727 L 390.637,-245.383 L 390.371,-245.088 L 390.05,-244.855 L 389.687,-244.693 L 389.299,-244.61
 z
M 355.801,-243.11 L 355.413,-243.193 L 355.05,-243.355 L 354.729,-243.588 L 354.463,-243.883 L 354.264,-244.227
 L 354.142,-244.605 L 354.1,-245 L 354.142,-245.395 L 354.264,-245.773 L 354.463,-246.117 L 354.729,-246.412
 L 355.05,-246.645 L 355.413,-246.807 L 355.801,-246.89 L 356.199,-246.89 L 356.587,-246.807 L 356.95,-246.645
 L 357.271,-246.412 L 357.537,-246.117 L 357.736,-245.773 L 357.858,-245.395 L 357.9,-245 L 357.858,-244.605
 L 357.736,-244.227 L 357.537,-243.883 L 357.271,-243.588 L 356.95,-243.355 L 356.587,-243.193 L 356.199,-243.11
 z
M 83.8014,-243.11 L 83.4129,-243.193 L 83.05,-243.355 L 82.7287,-243.588 L 82.4629,-243.883 L 82.2643,-244.227
 L 82.1415,-244.605 L 82.1,-245 L 82.1415,-245.395 L 82.2643,-245.773 L 82.4629,-246.117 L 82.7287,-246.412
 L 83.05,-246.645 L 83.4129,-246.807 L 83.8014,-246.89 L 84.1986,-246.89 L 84.5871,-246.807 L 84.95,-246.645
 L 85.2713,-246.412 L 85.5371,-246.117 L 85.7357,-245.773 L 85.8585,-245.395 L 85.9,-245 L 85.8585,-244.605
 L 85.7357,-244.227 L 85.5371,-243.883 L 85.2713,-243.588 L 84.95,-243.355 L 84.5871,-243.193 L 84.1986,-243.11
 z
M 353.901,-234.61 L 353.513,-234.693 L 353.15,-234.855 L 352.829,-235.088 L 352.563,-235.383 L 352.364,-235.727
 L 352.242,-236.105 L 352.2,-236.5 L 352.242,-236.895 L 352.364,-237.273 L 352.563,-237.617 L 352.829,-237.912
 L 353.15,-238.145 L 353.513,-238.307 L 353.901,-238.39 L 354.299,-238.39 L 354.687,-238.307 L 355.05,-238.145
 L 355.371,-237.912 L 355.637,-237.617 L 355.836,-237.273 L 355.958,-236.895 L 356,-236.5 L 355.958,-236.105
 L 355.836,-235.727 L 355.637,-235.383 L 355.371,-235.088 L 355.05,-234.855 L 354.687,-234.693 L 354.299,-234.61
 z
M 263.901,-234.61 L 263.513,-234.693 L 263.15,-234.855 L 262.829,-235.088 L 262.563,-235.383 L 262.364,-235.727
 L 262.242,-236.105 L 262.2,-236.5 L 262.242,-236.895 L 262.364,-237.273 L 262.563,-237.617 L 262.829,-237.912
 L 263.15,-238.145 L 263.513,-238.307 L 263.901,-238.39 L 264.299,-238.39 L 264.687,-238.307 L 265.05,-238.145
 L 265.371,-237.912 L 265.637,-237.617 L 265.836,-237.273 L 265.958,-236.895 L 266,-236.5 L 265.958,-236.105
 L 265.836,-235.727 L 265.637,-235.383 L 265.371,-235.088 L 265.05,-234.855 L 264.687,-234.693 L 264.299,-234.61
 z
M 34.723,-214.365 L 34.1811,-214.48 L 33.675,-214.705 L 33.2268,-215.031 L 32.8561,-215.442 L 32.5791,-215.922
 L 32.4079,-216.449 L 32.35,-217 L 32.3763,-217.25 L 32.35,-217.5 L 32.3763,-217.75 L 32.35,-218
 L 32.4079,-218.551 L 32.5791,-219.078 L 32.8561,-219.558 L 33.2268,-219.969 L 33.675,-220.295 L 34.1811,-220.52
 L 34.723,-220.635 L 35.277,-220.635 L 35.8189,-220.52 L 36.325,-220.295 L 36.7732,-219.969 L 37.1439,-219.558
 L 37.4209,-219.078 L 37.5921,-218.551 L 37.65,-218 L 37.6237,-217.75 L 37.65,-217.5 L 37.6237,-217.25
 L 37.65,-217 L 37.5921,-216.449 L 37.4209,-215.922 L 37.1439,-215.442 L 36.7732,-215.031 L 36.325,-214.705
 L 35.8189,-214.48 L 35.277,-214.365 z
M 257,-130 L 257,-220 L 363,-220 L 363,-130 z
M 403.723,-208.865 L 403.181,-208.98 L 402.675,-209.205 L 402.227,-209.531 L 401.856,-209.942 L 401.579,-210.422
 L 401.408,-210.949 L 401.35,-211.5 L 401.376,-211.75 L 401.35,-212 L 401.376,-212.25 L 401.35,-212.5
 L 401.408,-213.051 L 401.579,-213.578 L 401.856,-214.058 L 402.227,-214.469 L 402.675,-214.795 L 403.181,-215.02
 L 403.723,-215.135 L 404.277,-215.135 L 404.819,-215.02 L 405.325,-214.795 L 405.773,-214.469 L 406.144,-214.058
 L 406.421,-213.578 L 406.592,-213.051 L 406.65,-212.5 L 406.624,-212.25 L 406.65,-212 L 406.624,-211.75
 L 406.65,-211.5 L 406.592,-210.949 L 406.421,-210.422 L 406.144,-209.942 L 405.773,-209.531 L 405.325,-209.205
 L 404.819,-208.98 L 404.277,-208.865 z
M 34.723,-198.365 L 34.1811,-198.48 L 33.675,-198.705 L 33.2268,-199.031 L 32.8561,-199.442 L 32.5791,-199.922
 L 32.4079,-200.449 L 32.35,-201 L 32.3763,-201.25 L 32.35,-201.5 L 32.3763,-201.75 L 32.35,-202
 L 32.4079,-202.551 L 32.5791,-203.078 L 32.8561,-203.558 L 33.2268,-203.969 L 33.675,-204.295 L 34.1811,-204.52
 L 34.723,-204.635 L 35.277,-204.635 L 35.8189,-204.52 L 36.325,-204.295 L 36.7732,-203.969 L 37.1439,-203.558
 L 37.4209,-203.078 L 37.5921,-202.551 L 37.65,-202 L 37.6237,-201.75 L 37.65,-201.5 L 37.6237,-201.25
 L 37.65,-201 L 37.5921,-200.449 L 37.4209,-199.922 L 37.1439,-199.442 L 36.7732,-199.031 L 36.325,-198.705
 L 35.8189,-198.48 L 35.277,-198.365 z
M 209.749,-197.613 L 209.258,-197.717 L 208.8,-197.922 L 208.394,-198.216 L 208.058,-198.589 L 207.807,-199.024
 L 207.652,-199.501 L 207.6,-200 L 207.652,-200.499 L 207.807,-200.976 L 208.058,-201.411 L 208.394,-201.784
 L 208.8,-202.078 L 209.258,-202.283 L 209.749,-202.387 L 210.251,-202.387 L 210.742,-202.283 L 211.2,-202.078
 L 211.606,-201.784 L 211.942,-201.411 L 212.193,-200.976 L 212.348,-200.499 L 212.4,-200 L 212.348,-199.501
 L 212.193,-199.024 L 211.942,-198.589 L 211.606,-198.216 L 211.2,-197.922 L 210.742,-197.717 L 210.251,-197.613
 z
M 159.801,-198.11 L 159.413,-198.193 L 159.05,-198.355 L 158.729,-198.588 L 158.463,-198.883 L 158.264,-199.227
 L 158.142,-199.605 L 158.1,-200 L 158.142,-200.395 L 158.264,-200.773 L 158.463,-201.117 L 158.729,-201.412
 L 159.05,-201.645 L 159.413,-201.807 L 159.801,-201.89 L 160.199,-201.89 L 160.587,-201.807 L 160.95,-201.645
 L 161.271,-201.412 L 161.537,-201.117 L 161.736,-200.773 L 161.858,-200.395 L 161.9,-200 L 161.858,-199.605
 L 161.736,-199.227 L 161.537,-198.883 L 161.271,-198.588 L 160.95,-198.355 L 160.587,-198.193 L 160.199,-198.11
 z
M 108.463,-198.883 L 108.264,-199.227 L 108.142,-199.605 L 108.1,-200 L 108.142,-200.395 L 108.264,-200.773
 L 108.463,-201.117 L 108.729,-201.412 L 109.05,-201.645 L 109.413,-201.807 L 109.801,-201.89 L 110.199,-201.89
 L 110.587,-201.807 L 110.95,-201.645 L 111.271,-201.412 L 111.537,-201.117 L 111.736,-200.773 L 111.858,-200.395
 L 111.9,-200 L 111.858,-199.605 L 111.736,-199.227 L 111.537,-198.883 L 111.271,-198.588 L 110.95,-198.355
 L 110.587,-198.193 L 110.199,-198.11 L 109.801,-198.11 L 109.413,-198.193 L 109.05,-198.355 L 108.729,-198.588
 z
M 234.801,-198.11 L 234.413,-198.193 L 234.05,-198.355 L 233.729,-198.588 L 233.463,-198.883 L 233.264,-199.227
 L 233.142,-199.605 L 233.1,-200 L 233.142,-200.395 L 233.264,-200.773 L 233.463,-201.117 L 233.729,-201.412
 L 234.05,-201.645 L 234.413,-201.807 L 234.801,-201.89 L 235.199,-201.89 L 235.587,-201.807 L 235.95,-201.645
 L 236.271,-201.412 L 236.537,-201.117 L 236.736,-200.773 L 236.858,-200.395 L 236.9,-200 L 236.858,-199.605
 L 236.736,-199.227 L 236.537,-198.883 L 236.271,-198.588 L 235.95,-198.355 L 235.587,-198.193 L 235.199,-198.11
 z
M 379.801,-198.11 L 379.413,-198.193 L 379.05,-198.355 L 378.729,-198.588 L 378.463,-198.883 L 378.264,-199.227
 L 378.142,-199.605 L 378.1,-200 L 378.142,-200.395 L 378.264,-200.773 L 378.463,-201.117 L 378.729,-201.412
 L 379.05,-201.645 L 379.413,-201.807 L 379.801,-201.89 L 380.199,-201.89 L 380.587,-201.807 L 380.95,-201.645
 L 381.271,-201.412 L 381.537,-201.117 L 381.736,-200.773 L 381.858,-200.395 L 381.9,-200 L 381.858,-199.605
 L 381.736,-199.227 L 381.537,-198.883 L 381.271,-198.588 L 380.95,-198.355 L 380.587,-198.193 L 380.199,-198.11
 z
M 59.8014,-198.11 L 59.4129,-198.193 L 59.05,-198.355 L 58.7287,-198.588 L 58.4629,-198.883 L 58.2643,-199.227
 L 58.1415,-199.605 L 58.1,-200 L 58.1415,-200.395 L 58.2643,-200.773 L 58.4629,-201.117 L 58.7287,-201.412
 L 59.05,-201.645 L 59.4129,-201.807 L 59.8014,-201.89 L 60.1986,-201.89 L 60.5871,-201.807 L 60.95,-201.645
 L 61.2713,-201.412 L 61.5371,-201.117 L 61.7357,-200.773 L 61.8585,-200.395 L 61.9,-200 L 61.8585,-199.605
 L 61.7357,-199.227 L 61.5371,-198.883 L 61.2713,-198.588 L 60.95,-198.355 L 60.5871,-198.193 L 60.1986,-198.11
 z
M 134.801,-198.11 L 134.413,-198.193 L 134.05,-198.355 L 133.729,-198.588 L 133.463,-198.883 L 133.264,-199.227
 L 133.142,-199.605 L 133.1,-200 L 133.142,-200.395 L 133.264,-200.773 L 133.463,-201.117 L 133.729,-201.412
 L 134.05,-201.645 L 134.413,-201.807 L 134.801,-201.89 L 135.199,-201.89 L 135.587,-201.807 L 135.95,-201.645
 L 136.271,-201.412 L 136.537,-201.117 L 136.736,-200.773 L 136.858,-200.395 L 136.9,-200 L 136.858,-199.605
 L 136.736,-199.227 L 136.537,-198.883 L 136.271,-198.588 L 135.95,-198.355 L 135.587,-198.193 L 135.199,-198.11
 z
M 184.801,-198.11 L 184.413,-198.193 L 184.05,-198.355 L 183.729,-198.588 L 183.463,-198.883 L 183.264,-199.227
 L 183.142,-199.605 L 183.1,-200 L 183.142,-200.395 L 183.264,-200.773 L 183.463,-201.117 L 183.729,-201.412
 L 184.05,-201.645 L 184.413,-201.807 L 184.801,-201.89 L 185.199,-201.89 L 185.587,-201.807 L 185.95,-201.645
 L 186.271,-201.412 L 186.537,-201.117 L 186.736,-200.773 L 186.858,-200.395 L 186.9,-200 L 186.858,-199.605
 L 186.736,-199.227 L 186.537,-198.883 L 186.271,-198.588 L 185.95,-198.355 L 185.587,-198.193 L 185.199,-198.11
 z
M 403.723,-192.865 L 403.181,-192.98 L 402.675,-193.205 L 402.227,-193.531 L 401.856,-193.942 L 401.579,-194.422
 L 401.408,-194.949 L 401.35,-195.5 L 401.376,-195.75 L 401.35,-196 L 401.376,-196.25 L 401.35,-196.5
 L 401.408,-197.051 L 401.579,-197.578 L 401.856,-198.058 L 402.227,-198.469 L 402.675,-198.795 L 403.181,-199.02
 L 403.723,-199.135 L 404.277,-199.135 L 404.819,-199.02 L 405.325,-198.795 L 405.773,-198.469 L 406.144,-198.058
 L 406.421,-197.578 L 406.592,-197.051 L 406.65,-196.5 L 406.624,-196.25 L 406.65,-196 L 406.624,-195.75
 L 406.65,-195.5 L 406.592,-194.949 L 406.421,-194.422 L 406.144,-193.942 L 405.773,-193.531 L 405.325,-193.205
 L 404.819,-192.98 L 404.277,-192.865 z
M 372.801,-154.11 L 372.413,-154.193 L 372.05,-154.355 L 371.729,-154.588 L 371.463,-154.883 L 371.264,-155.227
 L 371.142,-155.605 L 371.1,-156 L 371.142,-156.395 L 371.264,-156.773 L 371.463,-157.117 L 371.729,-157.412
 L 372.05,-157.645 L 372.413,-157.807 L 372.801,-157.89 L 373.199,-157.89 L 373.587,-157.807 L 373.95,-157.645
 L 374.271,-157.412 L 374.537,-157.117 L 374.736,-156.773 L 374.858,-156.395 L 374.9,-156 L 374.858,-155.605
 L 374.736,-155.227 L 374.537,-154.883 L 374.271,-154.588 L 373.95,-154.355 L 373.587,-154.193 L 373.199,-154.11
 z
M 209.749,-147.613 L 209.258,-147.717 L 208.8,-147.922 L 208.394,-148.216 L 208.058,-148.589 L 207.807,-149.024
 L 207.652,-149.501 L 207.6,-150 L 207.652,-150.499 L 207.807,-150.976 L 208.058,-151.411 L 208.394,-151.784
 L 208.8,-152.078 L 209.258,-152.283 L 209.749,-152.387 L 210.251,-152.387 L 210.742,-152.283 L 211.2,-152.078
 L 211.606,-151.784 L 211.942,-151.411 L 212.193,-150.976 L 212.348,-150.499 L 212.4,-150 L 212.348,-149.501
 L 212.193,-149.024 L 211.942,-148.589 L 211.606,-148.216 L 211.2,-147.922 L 210.742,-147.717 L 210.251,-147.613
 z
M 109.801,-148.11 L 109.413,-148.193 L 109.05,-148.355 L 108.729,-148.588 L 108.463,-148.883 L 108.264,-149.227
 L 108.142,-149.605 L 108.1,-150 L 108.142,-150.395 L 108.264,-150.773 L 108.463,-151.117 L 108.729,-151.412
 L 109.05,-151.645 L 109.413,-151.807 L 109.801,-151.89 L 110.199,-151.89 L 110.587,-151.807 L 110.95,-151.645
 L 111.271,-151.412 L 111.537,-151.117 L 111.736,-150.773 L 111.858,-150.395 L 111.9,-150 L 111.858,-149.605
 L 111.736,-149.227 L 111.537,-148.883 L 111.271,-148.588 L 110.95,-148.355 L 110.587,-148.193 L 110.199,-148.11
 z
M 84.8014,-148.11 L 84.4129,-148.193 L 84.05,-148.355 L 83.7287,-148.588 L 83.4629,-148.883 L 83.2643,-149.227
 L 83.1415,-149.605 L 83.1,-150 L 83.1415,-150.395 L 83.2643,-150.773 L 83.4629,-151.117 L 83.7287,-151.412
 L 84.05,-151.645 L 84.4129,-151.807 L 84.8014,-151.89 L 85.1986,-151.89 L 85.5871,-151.807 L 85.95,-151.645
 L 86.2713,-151.412 L 86.5371,-151.117 L 86.7357,-150.773 L 86.8585,-150.395 L 86.9,-150 L 86.8585,-149.605
 L 86.7357,-149.227 L 86.5371,-148.883 L 86.2713,-148.588 L 85.95,-148.355 L 85.5871,-148.193 L 85.1986,-148.11
 z
M 34.8014,-148.11 L 34.4129,-148.193 L 34.05,-148.355 L 33.7287,-148.588 L 33.4629,-148.883 L 33.2643,-149.227
 L 33.1415,-149.605 L 33.1,-150 L 33.1415,-150.395 L 33.2643,-150.773 L 33.4629,-151.117 L 33.7287,-151.412
 L 34.05,-151.645 L 34.4129,-151.807 L 34.8014,-151.89 L 35.1986,-151.89 L 35.5871,-151.807 L 35.95,-151.645
 L 36.2713,-151.412 L 36.5371,-151.117 L 36.7357,-150.773 L 36.8585,-150.395 L 36.9,-150 L 36.8585,-149.605
 L 36.7357,-149.227 L 36.5371,-148.883 L 36.2713,-148.588 L 35.95,-148.355 L 35.5871,-148.193 L 35.1986,-148.11
 z
M 134.801,-148.11 L 134.413,-148.193 L 134.05,-148.355 L 133.729,-148.588 L 133.463,-148.883 L 133.264,-149.227
 L 133.142,-149.605 L 133.1,-150 L 133.142,-150.395 L 133.264,-150.773 L 133.463,-151.117 L 133.729,-151.412
 L 134.05,-151.645 L 134.413,-151.807 L 134.801,-151.89 L 135.199,-151.89 L 135.587,-151.807 L 135.95,-151.645
 L 136.271,-151.412 L 136.537,-151.117 L 136.736,-150.773 L 136.858,-150.395 L 136.9,-150 L 136.858,-149.605
 L 136.736,-149.227 L 136.537,-148.883 L 136.271,-148.588 L 135.95,-148.355 L 135.587,-148.193 L 135.199,-148.11
 z
M 184.801,-148.11 L 184.413,-148.193 L 184.05,-148.355 L 183.729,-148.588 L 183.463,-148.883 L 183.264,-149.227
 L 183.142,-149.605 L 183.1,-150 L 183.142,-150.395 L 183.264,-150.773 L 183.463,-151.117 L 183.729,-151.412
 L 184.05,-151.645 L 184.413,-151.807 L 184.801,-151.89 L 185.199,-151.89 L 185.587,-151.807 L 185.95,-151.645
 L 186.271,-151.412 L 186.537,-151.117 L 186.736,-150.773 L 186.858,-150.395 L 186.9,-150 L 186.858,-149.605
 L 186.736,-149.227 L 186.537,-148.883 L 186.271,-148.588 L 185.95,-148.355 L 185.587,-148.193 L 185.199,-148.11
 z
M 234.801,-148.11 L 234.413,-148.193 L 234.05,-148.355 L 233.729,-148.588 L 233.463,-148.883 L 233.264,-149.227
 L 233.142,-149.605 L 233.1,-150 L 233.142,-150.395 L 233.264,-150.773 L 233.463,-151.117 L 233.729,-151.412
 L 234.05,-151.645 L 234.413,-151.807 L 234.801,-151.89 L 235.199,-151.89 L 235.587,-151.807 L 235.95,-151.645
 L 236.271,-151.412 L 236.537,-151.117 L 236.736,-150.773 L 236.858,-150.395 L 236.9,-150 L 236.858,-149.605
 L 236.736,-149.227 L 236.537,-148.883 L 236.271,-148.588 L 235.95,-148.355 L 235.587,-148.193 L 235.199,-148.11
 z
M 59.8014,-148.11 L 59.4129,-148.193 L 59.05,-148.355 L 58.7287,-148.588 L 58.4629,-148.883 L 58.2643,-149.227
 L 58.1415,-149.605 L 58.1,-150 L 58.1415,-150.395 L 58.2643,-150.773 L 58.4629,-151.117 L 58.7287,-151.412
 L 59.05,-151.645 L 59.4129,-151.807 L 59.8014,-151.89 L 60.1986,-151.89 L 60.5871,-151.807 L 60.95,-151.645
 L 61.2713,-151.412 L 61.5371,-151.117 L 61.7357,-150.773 L 61.8585,-150.395 L 61.9,-150 L 61.8585,-149.605
 L 61.7357,-149.227 L 61.5371,-148.883 L 61.2713,-148.588 L 60.95,-148.355 L 60.5871,-148.193 L 60.1986,-148.11
 z
M 159.801,-148.11 L 159.413,-148.193 L 159.05,-148.355 L 158.729,-148.588 L 158.463,-148.883 L 158.264,-149.227
 L 158.142,-149.605 L 158.1,-150 L 158.142,-150.395 L 158.264,-150.773 L 158.463,-151.117 L 158.729,-151.412
 L 159.05,-151.645 L 159.413,-151.807 L 159.801,-151.89 L 160.199,-151.89 L 160.587,-151.807 L 160.95,-151.645
 L 161.271,-151.412 L 161.537,-151.117 L 161.736,-150.773 L 161.858,-150.395 L 161.9,-150 L 161.858,-149.605
 L 161.736,-149.227 L 161.537,-148.883 L 161.271,-148.588 L 160.95,-148.355 L 160.587,-148.193 L 160.199,-148.11
 z
M 372.801,-141.11 L 372.413,-141.193 L 372.05,-141.355 L 371.729,-141.588 L 371.463,-141.883 L 371.264,-142.227
 L 371.142,-142.605 L 371.1,-143 L 371.142,-143.395 L 371.264,-143.773 L 371.463,-144.117 L 371.729,-144.412
 L 372.05,-144.645 L 372.413,-144.807 L 372.801,-144.89 L 373.199,-144.89 L 373.587,-144.807 L 373.95,-144.645
 L 374.271,-144.412 L 374.537,-144.117 L 374.736,-143.773 L 374.858,-143.395 L 374.9,-143 L 374.858,-142.605
 L 374.736,-142.227 L 374.537,-141.883 L 374.271,-141.588 L 373.95,-141.355 L 373.587,-141.193 L 373.199,-141.11
 z
M 142.854,-140.608 L 142.567,-140.669 L 142.3,-140.788 L 142.063,-140.96 L 141.867,-141.177 L 141.721,-141.431
 L 141.631,-141.709 L 141.6,-142 L 141.631,-142.291 L 141.721,-142.569 L 141.867,-142.823 L 142.063,-143.04
 L 142.3,-143.212 L 142.567,-143.331 L 142.854,-143.392 L 143.146,-143.392 L 143.433,-143.331 L 143.7,-143.212
 L 143.937,-143.04 L 144.133,-142.823 L 144.279,-142.569 L 144.369,-142.291 L 144.4,-142 L 144.369,-141.709
 L 144.279,-141.431 L 144.133,-141.177 L 143.937,-140.96 L 143.7,-140.788 L 143.433,-140.669 L 143.146,-140.608
 z
M 75.8537,-140.608 L 75.5674,-140.669 L 75.3,-140.788 L 75.0632,-140.96 L 74.8674,-141.177 L 74.721,-141.431
 L 74.6306,-141.709 L 74.6,-142 L 74.6306,-142.291 L 74.721,-142.569 L 74.8674,-142.823 L 75.0632,-143.04
 L 75.3,-143.212 L 75.5674,-143.331 L 75.8537,-143.392 L 76.1463,-143.392 L 76.4326,-143.331 L 76.7,-143.212
 L 76.9368,-143.04 L 77.1326,-142.823 L 77.279,-142.569 L 77.3694,-142.291 L 77.4,-142 L 77.3694,-141.709
 L 77.279,-141.431 L 77.1326,-141.177 L 76.9368,-140.96 L 76.7,-140.788 L 76.4326,-140.669 L 76.1463,-140.608
 z
M 167.854,-134.608 L 167.567,-134.669 L 167.3,-134.788 L 167.063,-134.96 L 166.867,-135.177 L 166.721,-135.431
 L 166.631,-135.709 L 166.6,-136 L 166.631,-136.291 L 166.721,-136.569 L 166.867,-136.823 L 167.063,-137.04
 L 167.3,-137.212 L 167.567,-137.331 L 167.854,-137.392 L 168.146,-137.392 L 168.433,-137.331 L 168.7,-137.212
 L 168.937,-137.04 L 169.133,-136.823 L 169.279,-136.569 L 169.369,-136.291 L 169.4,-136 L 169.369,-135.709
 L 169.279,-135.431 L 169.133,-135.177 L 168.937,-134.96 L 168.7,-134.788 L 168.433,-134.669 L 168.146,-134.608
 z
M 50.8537,-134.608 L 50.5674,-134.669 L 50.3,-134.788 L 50.0632,-134.96 L 49.8674,-135.177 L 49.721,-135.431
 L 49.6306,-135.709 L 49.6,-136 L 49.6306,-136.291 L 49.721,-136.569 L 49.8674,-136.823 L 50.0632,-137.04
 L 50.3,-137.212 L 50.5674,-137.331 L 50.8537,-137.392 L 51.1463,-137.392 L 51.4326,-137.331 L 51.7,-137.212
 L 51.9368,-137.04 L 52.1326,-136.823 L 52.279,-136.569 L 52.3694,-136.291 L 52.4,-136 L 52.3694,-135.709
 L 52.279,-135.431 L 52.1326,-135.177 L 51.9368,-134.96 L 51.7,-134.788 L 51.4326,-134.669 L 51.1463,-134.608
 z
M 404.801,-133.11 L 404.413,-133.193 L 404.05,-133.355 L 403.729,-133.588 L 403.463,-133.883 L 403.264,-134.227
 L 403.142,-134.605 L 403.1,-135 L 403.142,-135.395 L 403.264,-135.773 L 403.463,-136.117 L 403.729,-136.412
 L 404.05,-136.645 L 404.413,-136.807 L 404.801,-136.89 L 405.199,-136.89 L 405.587,-136.807 L 405.95,-136.645
 L 406.271,-136.412 L 406.537,-136.117 L 406.736,-135.773 L 406.858,-135.395 L 406.9,-135 L 406.858,-134.605
 L 406.736,-134.227 L 406.537,-133.883 L 406.271,-133.588 L 405.95,-133.355 L 405.587,-133.193 L 405.199,-133.11
 z
M 233.801,-129.11 L 233.413,-129.193 L 233.05,-129.355 L 232.729,-129.588 L 232.463,-129.883 L 232.264,-130.227
 L 232.142,-130.605 L 232.1,-131 L 232.142,-131.395 L 232.264,-131.773 L 232.463,-132.117 L 232.729,-132.412
 L 233.05,-132.645 L 233.413,-132.807 L 233.801,-132.89 L 234.199,-132.89 L 234.587,-132.807 L 234.95,-132.645
 L 235.271,-132.412 L 235.537,-132.117 L 235.736,-131.773 L 235.858,-131.395 L 235.9,-131 L 235.858,-130.605
 L 235.736,-130.227 L 235.537,-129.883 L 235.271,-129.588 L 234.95,-129.355 L 234.587,-129.193 L 234.199,-129.11
 z
M 59.8014,-81.1104 L 59.4129,-81.193 L 59.05,-81.3546 L 58.7287,-81.588 L 58.4629,-81.8832 L 58.2643,-82.2272
 L 58.1415,-82.605 L 58.1,-83 L 58.1415,-83.395 L 58.1756,-83.5 L 58.1415,-83.605 L 58.1,-84
 L 58.1415,-84.395 L 58.1756,-84.5 L 58.1415,-84.605 L 58.1,-85 L 58.1415,-85.395 L 58.1756,-85.5
 L 58.1415,-85.605 L 58.1,-86 L 58.1415,-86.395 L 58.1756,-86.5 L 58.1415,-86.605 L 58.1,-87
 L 58.1415,-87.395 L 58.1756,-87.5 L 58.1415,-87.605 L 58.1,-88 L 58.1415,-88.395 L 58.1756,-88.5
 L 58.1415,-88.605 L 58.1,-89 L 58.1415,-89.395 L 58.1756,-89.5 L 58.1415,-89.605 L 58.1,-90
 L 58.1415,-90.395 L 58.1756,-90.5 L 58.1415,-90.605 L 58.1,-91 L 58.1415,-91.395 L 58.1756,-91.5
 L 58.1415,-91.605 L 58.1,-92 L 58.1415,-92.395 L 58.1756,-92.5 L 58.1415,-92.605 L 58.1,-93
 L 58.1415,-93.395 L 58.1756,-93.5 L 58.1415,-93.605 L 58.1,-94 L 58.1415,-94.395 L 58.1756,-94.5
 L 58.1415,-94.605 L 58.1,-95 L 58.1415,-95.395 L 58.1756,-95.5 L 58.1415,-95.605 L 58.1,-96
 L 58.1415,-96.395 L 58.1756,-96.5 L 58.1415,-96.605 L 58.1,-97 L 58.1415,-97.395 L 58.1756,-97.5
 L 58.1415,-97.605 L 58.1,-98 L 58.1415,-98.395 L 58.1756,-98.5 L 58.1415,-98.605 L 58.1,-99
 L 58.1415,-99.395 L 58.1756,-99.5 L 58.1415,-99.605 L 58.1,-100 L 58.1415,-100.395 L 58.1756,-100.5
 L 58.1415,-100.605 L 58.1,-101 L 58.1415,-101.395 L 58.1756,-101.5 L 58.1415,-101.605 L 58.1,-102
 L 58.1415,-102.395 L 58.1756,-102.5 L 58.1415,-102.605 L 58.1,-103 L 58.1415,-103.395 L 58.1756,-103.5
 L 58.1415,-103.605 L 58.1,-104 L 58.1415,-104.395 L 58.1756,-104.5 L 58.1415,-104.605 L 58.1,-105
 L 58.1415,-105.395 L 58.1756,-105.5 L 58.1415,-105.605 L 58.1,-106 L 58.1415,-106.395 L 58.1756,-106.5
 L 58.1415,-106.605 L 58.1,-107 L 58.1415,-107.395 L 58.1756,-107.5 L 58.1415,-107.605 L 58.1,-108
 L 58.1415,-108.395 L 58.1756,-108.5 L 58.1415,-108.605 L 58.1,-109 L 58.1415,-109.395 L 58.1756,-109.5
 L 58.1415,-109.605 L 58.1,-110 L 58.1415,-110.395 L 58.1756,-110.5 L 58.1415,-110.605 L 58.1,-111
 L 58.1415,-111.395 L 58.1756,-111.5 L 58.1415,-111.605 L 58.1,-112 L 58.1415,-112.395 L 58.1756,-112.5
 L 58.1415,-112.605 L 58.1,-113 L 58.1415,-113.395 L 58.1756,-113.5 L 58.1415,-113.605 L 58.1,-114
 L 58.1415,-114.395 L 58.1756,-114.5 L 58.1415,-114.605 L 58.1,-115 L 58.1415,-115.395 L 58.1756,-115.5
 L 58.1415,-115.605 L 58.1,-116 L 58.1415,-116.395 L 58.1756,-116.5 L 58.1415,-116.605 L 58.1,-117
 L 58.1415,-117.395 L 58.1756,-117.5 L 58.1415,-117.605 L 58.1,-118 L 58.1415,-118.395 L 58.1756,-118.5
 L 58.1415,-118.605 L 58.1,-119 L 58.1415,-119.395 L 58.1756,-119.5 L 58.1415,-119.605 L 58.1,-120
 L 58.1415,-120.395 L 58.2643,-120.773 L 58.4629,-121.117 L 58.7287,-121.412 L 59.05,-121.645 L 59.4129,-121.807
 L 59.8014,-121.89 L 60.1986,-121.89 L 60.5871,-121.807 L 60.95,-121.645 L 61.2713,-121.412 L 61.5371,-121.117
 L 61.7357,-120.773 L 61.8585,-120.395 L 61.9,-120 L 61.8585,-119.605 L 61.8244,-119.5 L 61.8585,-119.395
 L 61.9,-119 L 61.8585,-118.605 L 61.8244,-118.5 L 61.8585,-118.395 L 61.9,-118 L 61.8585,-117.605
 L 61.8244,-117.5 L 61.8585,-117.395 L 61.9,-117 L 61.8585,-116.605 L 61.8244,-116.5 L 61.8585,-116.395
 L 61.9,-116 L 61.8585,-115.605 L 61.8244,-115.5 L 61.8585,-115.395 L 61.9,-115 L 61.8585,-114.605
 L 61.8244,-114.5 L 61.8585,-114.395 L 61.9,-114 L 61.8585,-113.605 L 61.8244,-113.5 L 61.8585,-113.395
 L 61.9,-113 L 61.8585,-112.605 L 61.8244,-112.5 L 61.8585,-112.395 L 61.9,-112 L 61.8585,-111.605
 L 61.8244,-111.5 L 61.8585,-111.395 L 61.9,-111 L 61.8585,-110.605 L 61.8244,-110.5 L 61.8585,-110.395
 L 61.9,-110 L 61.8585,-109.605 L 61.8244,-109.5 L 61.8585,-109.395 L 61.9,-109 L 61.8585,-108.605
 L 61.8244,-108.5 L 61.8585,-108.395 L 61.9,-108 L 61.8585,-107.605 L 61.8244,-107.5 L 61.8585,-107.395
 L 61.9,-107 L 61.8585,-106.605 L 61.8244,-106.5 L 61.8585,-106.395 L 61.9,-106 L 61.8585,-105.605
 L 61.8244,-105.5 L 61.8585,-105.395 L 61.9,-105 L 61.8585,-104.605 L 61.8244,-104.5 L 61.8585,-104.395
 L 61.9,-104 L 61.8585,-103.605 L 61.8244,-103.5 L 61.8585,-103.395 L 61.9,-103 L 61.8585,-102.605
 L 61.8244,-102.5 L 61.8585,-102.395 L 61.9,-102 L 61.8585,-101.605 L 61.8244,-101.5 L 61.8585,-101.395
 L 61.9,-101 L 61.8585,-100.605 L 61.8244,-100.5 L 61.8585,-100.395 L 61.9,-100 L 61.8585,-99.605
 L 61.8244,-99.5 L 61.8585,-99.395 L 61.9,-99 L 61.8585,-98.605 L 61.8244,-98.5 L 61.8585,-98.395
 L 61.9,-98 L 61.8585,-97.605 L 61.8244,-97.5 L 61.8585,-97.395 L 61.9,-97 L 61.8585,-96.605
 L 61.8244,-96.5 L 61.8585,-96.395 L 61.9,-96 L 61.8585,-95.605 L 61.8244,-95.5 L 61.8585,-95.395
 L 61.9,-95 L 61.8585,-94.605 L 61.8244,-94.5 L 61.8585,-94.395 L 61.9,-94 L 61.8585,-93.605
 L 61.8244,-93.5 L 61.8585,-93.395 L 61.9,-93 L 61.8585,-92.605 L 61.8244,-92.5 L 61.8585,-92.395
 L 61.9,-92 L 61.8585,-91.605 L 61.8244,-91.5 L 61.8585,-91.395 L 61.9,-91 L 61.8585,-90.605
 L 61.8244,-90.5 L 61.8585,-90.395 L 61.9,-90 L 61.8585,-89.605 L 61.8244,-89.5 L 61.8585,-89.395
 L 61.9,-89 L 61.8585,-88.605 L 61.8244,-88.5 L 61.8585,-88.395 L 61.9,-88 L 61.8585,-87.605
 L 61.8244,-87.5 L 61.8585,-87.395 L 61.9,-87 L 61.8585,-86.605 L 61.8244,-86.5 L 61.8585,-86.395
 L 61.9,-86 L 61.8585,-85.605 L 61.8244,-85.5 L 61.8585,-85.395 L 61.9,-85 L 61.8585,-84.605
 L 61.8244,-84.5 L 61.8585,-84.395 L 61.9,-84 L 61.8585,-83.605 L 61.8244,-83.5 L 61.8585,-83.395
 L 61.9,-83 L 61.8585,-82.605 L 61.7357,-82.2272 L 61.5371,-81.8832 L 61.2713,-81.588 L 60.95,-81.3546
 L 60.5871,-81.193 L 60.1986,-81.1104 z
M 159.801,-78.1104 L 159.413,-78.193 L 159.05,-78.3546 L 158.729,-78.588 L 158.463,-78.8832 L 158.264,-79.2272
 L 158.142,-79.605 L 158.1,-80 L 158.142,-80.395 L 158.176,-80.5 L 158.142,-80.605 L 158.1,-81
 L 158.142,-81.395 L 158.176,-81.5 L 158.142,-81.605 L 158.1,-82 L 158.142,-82.395 L 158.176,-82.5
 L 158.142,-82.605 L 158.1,-83 L 158.142,-83.395 L 158.176,-83.5 L 158.142,-83.605 L 158.1,-84
 L 158.142,-84.395 L 158.176,-84.5 L 158.142,-84.605 L 158.1,-85 L 158.142,-85.395 L 158.176,-85.5
 L 158.142,-85.605 L 158.1,-86 L 158.142,-86.395 L 158.176,-86.5 L 158.142,-86.605 L 158.1,-87
 L 158.142,-87.395 L 158.176,-87.5 L 158.142,-87.605 L 158.1,-88 L 158.142,-88.395 L 158.176,-88.5
 L 158.142,-88.605 L 158.1,-89 L 158.142,-89.395 L 158.176,-89.5 L 158.142,-89.605 L 158.1,-90
 L 158.142,-90.395 L 158.176,-90.5 L 158.142,-90.605 L 158.1,-91 L 158.142,-91.395 L 158.176,-91.5
 L 158.142,-91.605 L 158.1,-92 L 158.142,-92.395 L 158.176,-92.5 L 158.142,-92.605 L 158.1,-93
 L 158.142,-93.395 L 158.176,-93.5 L 158.142,-93.605 L 158.1,-94 L 158.142,-94.395 L 158.176,-94.5
 L 158.142,-94.605 L 158.1,-95 L 158.142,-95.395 L 158.176,-95.5 L 158.142,-95.605 L 158.1,-96
 L 158.142,-96.395 L 158.176,-96.5 L 158.142,-96.605 L 158.1,-97 L 158.142,-97.395 L 158.176,-97.5
 L 158.142,-97.605 L 158.1,-98 L 158.142,-98.395 L 158.176,-98.5 L 158.142,-98.605 L 158.1,-99
 L 158.142,-99.395 L 158.176,-99.5 L 158.142,-99.605 L 158.1,-100 L 158.142,-100.395 L 158.176,-100.5
 L 158.142,-100.605 L 158.1,-101 L 158.142,-101.395 L 158.176,-101.5 L 158.142,-101.605 L 158.1,-102
 L 158.142,-102.395 L 158.176,-102.5 L 158.142,-102.605 L 158.1,-103 L 158.142,-103.395 L 158.176,-103.5
 L 158.142,-103.605 L 158.1,-104 L 158.142,-104.395 L 158.176,-104.5 L 158.142,-104.605 L 158.1,-105
 L 158.142,-105.395 L 158.176,-105.5 L 158.142,-105.605 L 158.1,-106 L 158.142,-106.395 L 158.176,-106.5
 L 158.142,-106.605 L 158.1,-107 L 158.142,-107.395 L 158.176,-107.5 L 158.142,-107.605 L 158.1,-108
 L 158.142,-108.395 L 158.176,-108.5 L 158.142,-108.605 L 158.1,-109 L 158.142,-109.395 L 158.176,-109.5
 L 158.142,-109.605 L 158.1,-110 L 158.142,-110.395 L 158.176,-110.5 L 158.142,-110.605 L 158.1,-111
 L 158.142,-111.395 L 158.176,-111.5 L 158.142,-111.605 L 158.1,-112 L 158.142,-112.395 L 158.176,-112.5
 L 158.142,-112.605 L 158.1,-113 L 158.142,-113.395 L 158.176,-113.5 L 158.142,-113.605 L 158.1,-114
 L 158.142,-114.395 L 158.176,-114.5 L 158.142,-114.605 L 158.1,-115 L 158.142,-115.395 L 158.176,-115.5
 L 158.142,-115.605 L 158.1,-116 L 158.142,-116.395 L 158.176,-116.5 L 158.142,-116.605 L 158.1,-117
 L 158.142,-117.395 L 158.176,-117.5 L 158.142,-117.605 L 158.1,-118 L 158.142,-118.395 L 158.176,-118.5
 L 158.142,-118.605 L 158.1,-119 L 158.142,-119.395 L 158.176,-119.5 L 158.142,-119.605 L 158.1,-120
 L 158.142,-120.395 L 158.264,-120.773 L 158.463,-121.117 L 158.729,-121.412 L 159.05,-121.645 L 159.413,-121.807
 L 159.801,-121.89 L 160.199,-121.89 L 160.587,-121.807 L 160.95,-121.645 L 161.271,-121.412 L 161.537,-121.117
 L 161.736,-120.773 L 161.858,-120.395 L 161.9,-120 L 161.858,-119.605 L 161.824,-119.5 L 161.858,-119.395
 L 161.9,-119 L 161.858,-118.605 L 161.824,-118.5 L 161.858,-118.395 L 161.9,-118 L 161.858,-117.605
 L 161.824,-117.5 L 161.858,-117.395 L 161.9,-117 L 161.858,-116.605 L 161.824,-116.5 L 161.858,-116.395
 L 161.9,-116 L 161.858,-115.605 L 161.824,-115.5 L 161.858,-115.395 L 161.9,-115 L 161.858,-114.605
 L 161.824,-114.5 L 161.858,-114.395 L 161.9,-114 L 161.858,-113.605 L 161.824,-113.5 L 161.858,-113.395
 L 161.9,-113 L 161.858,-112.605 L 161.824,-112.5 L 161.858,-112.395 L 161.9,-112 L 161.858,-111.605
 L 161.824,-111.5 L 161.858,-111.395 L 161.9,-111 L 161.858,-110.605 L 161.824,-110.5 L 161.858,-110.395
 L 161.9,-110 L 161.858,-109.605 L 161.824,-109.5 L 161.858,-109.395 L 161.9,-109 L 161.858,-108.605
 L 161.824,-108.5 L 161.858,-108.395 L 161.9,-108 L 161.858,-107.605 L 161.824,-107.5 L 161.858,-107.395
 L 161.9,-107 L 161.858,-106.605 L 161.824,-106.5 L 161.858,-106.395 L 161.9,-106 L 161.858,-105.605
 L 161.824,-105.5 L 161.858,-105.395 L 161.9,-105 L 161.858,-104.605 L 161.824,-104.5 L 161.858,-104.395
 L 161.9,-104 L 161.858,-103.605 L 161.824,-103.5 L 161.858,-103.395 L 161.9,-103 L 161.858,-102.605
 L 161.824,-102.5 L 161.858,-102.395 L 161.9,-102 L 161.858,-101.605 L 161.824,-101.5 L 161.858,-101.395
 L 161.9,-101 L 161.858,-100.605 L 161.824,-100.5 L 161.858,-100.395 L 161.9,-100 L 161.858,-99.605
 L 161.824,-99.5 L 161.858,-99.395 L 161.9,-99 L 161.858,-98.605 L 161.824,-98.5 L 161.858,-98.395
 L 161.9,-98 L 161.858,-97.605 L 161.824,-97.5 L 161.858,-97.395 L 161.9,-97 L 161.858,-96.605
 L 161.824,-96.5 L 161.858,-96.395 L 161.9,-96 L 161.858,-95.605 L 161.824,-95.5 L 161.858,-95.395
 L 161.9,-95 L 161.858,-94.605 L 161.824,-94.5 L 161.858,-94.395 L 161.9,-94 L 161.858,-93.605
 L 161.824,-93.5 L 161.858,-93.395 L 161.9,-93 L 161.858,-92.605 L 161.824,-92.5 L 161.858,-92.395
 L 161.9,-92 L 161.858,-91.605 L 161.824,-91.5 L 161.858,-91.395 L 161.9,-91 L 161.858,-90.605
 L 161.824,-90.5 L 161.858,-90.395 L 161.9,-90 L 161.858,-89.605 L 161.824,-89.5 L 161.858,-89.395
 L 161.9,-89 L 161.858,-88.605 L 161.824,-88.5 L 161.858,-88.395 L 161.9,-88 L 161.858,-87.605
 L 161.824,-87.5 L 161.858,-87.395 L 161.9,-87 L 161.858,-86.605 L 161.824,-86.5 L 161.858,-86.395
 L 161.9,-86 L 161.858,-85.605 L 161.824,-85.5 L 161.858,-85.395 L 161.9,-85 L 161.858,-84.605
 L 161.824,-84.5 L 161.858,-84.395 L 161.9,-84 L 161.858,-83.605 L 161.824,-83.5 L 161.858,-83.395
 L 161.9,-83 L 161.858,-82.605 L 161.824,-82.5 L 161.858,-82.395 L 161.9,-82 L 161.858,-81.605
 L 161.824,-81.5 L 161.858,-81.395 L 161.9,-81 L 161.858,-80.605 L 161.824,-80.5 L 161.858,-80.395
 L 161.9,-80 L 161.858,-79.605 L 161.736,-79.2272 L 161.537,-78.8832 L 161.271,-78.588 L 160.95,-78.3546
 L 160.587,-78.193 L 160.199,-78.1104 z
M 376.801,-111.11 L 376.413,-111.193 L 376.05,-111.355 L 375.729,-111.588 L 375.463,-111.883 L 375.264,-112.227
 L 375.142,-112.605 L 375.1,-113 L 375.142,-113.395 L 375.264,-113.773 L 375.463,-114.117 L 375.729,-114.412
 L 376.05,-114.645 L 376.413,-114.807 L 376.801,-114.89 L 377.199,-114.89 L 377.587,-114.807 L 377.95,-114.645
 L 378.271,-114.412 L 378.537,-114.117 L 378.736,-113.773 L 378.858,-113.395 L 378.9,-113 L 378.858,-112.605
 L 378.736,-112.227 L 378.537,-111.883 L 378.271,-111.588 L 377.95,-111.355 L 377.587,-111.193 L 377.199,-111.11
 z
M 404.801,-108.11 L 404.413,-108.193 L 404.05,-108.355 L 403.729,-108.588 L 403.463,-108.883 L 403.264,-109.227
 L 403.142,-109.605 L 403.1,-110 L 403.142,-110.395 L 403.264,-110.773 L 403.463,-111.117 L 403.729,-111.412
 L 404.05,-111.645 L 404.413,-111.807 L 404.801,-111.89 L 405.199,-111.89 L 405.587,-111.807 L 405.95,-111.645
 L 406.271,-111.412 L 406.537,-111.117 L 406.736,-110.773 L 406.858,-110.395 L 406.9,-110 L 406.858,-109.605
 L 406.736,-109.227 L 406.537,-108.883 L 406.271,-108.588 L 405.95,-108.355 L 405.587,-108.193 L 405.199,-108.11
 z
M 233.801,-106.11 L 233.413,-106.193 L 233.05,-106.355 L 232.729,-106.588 L 232.463,-106.883 L 232.264,-107.227
 L 232.142,-107.605 L 232.1,-108 L 232.142,-108.395 L 232.264,-108.773 L 232.463,-109.117 L 232.729,-109.412
 L 233.05,-109.645 L 233.413,-109.807 L 233.801,-109.89 L 234.199,-109.89 L 234.587,-109.807 L 234.95,-109.645
 L 235.271,-109.412 L 235.537,-109.117 L 235.736,-108.773 L 235.858,-108.395 L 235.9,-108 L 235.858,-107.605
 L 235.736,-107.227 L 235.537,-106.883 L 235.271,-106.588 L 234.95,-106.355 L 234.587,-106.193 L 234.199,-106.11
 z
M 34.723,-100.865 L 34.1811,-100.98 L 33.675,-101.205 L 33.2268,-101.531 L 32.8561,-101.942 L 32.5791,-102.422
 L 32.4079,-102.949 L 32.35,-103.5 L 32.3763,-103.75 L 32.35,-104 L 32.3763,-104.25 L 32.35,-104.5
 L 32.4079,-105.051 L 32.5791,-105.578 L 32.8561,-106.058 L 33.2268,-106.469 L 33.675,-106.795 L 34.1811,-107.02
 L 34.723,-107.135 L 35.277,-107.135 L 35.8189,-107.02 L 36.325,-106.795 L 36.7732,-106.469 L 37.1439,-106.058
 L 37.4209,-105.578 L 37.5921,-105.051 L 37.65,-104.5 L 37.6237,-104.25 L 37.65,-104 L 37.6237,-103.75
 L 37.65,-103.5 L 37.5921,-102.949 L 37.4209,-102.422 L 37.1439,-101.942 L 36.7732,-101.531 L 36.325,-101.205
 L 35.8189,-100.98 L 35.277,-100.865 z
M 403.723,-98.3645 L 403.181,-98.4797 L 402.675,-98.705 L 402.227,-99.0307 L 401.856,-99.4424 L 401.579,-99.9221
 L 401.408,-100.449 L 401.35,-101 L 401.376,-101.25 L 401.35,-101.5 L 401.376,-101.75 L 401.35,-102
 L 401.408,-102.551 L 401.579,-103.078 L 401.856,-103.558 L 402.227,-103.969 L 402.675,-104.295 L 403.181,-104.52
 L 403.723,-104.635 L 404.277,-104.635 L 404.819,-104.52 L 405.325,-104.295 L 405.773,-103.969 L 406.144,-103.558
 L 406.421,-103.078 L 406.592,-102.551 L 406.65,-102 L 406.624,-101.75 L 406.65,-101.5 L 406.624,-101.25
 L 406.65,-101 L 406.592,-100.449 L 406.421,-99.9221 L 406.144,-99.4424 L 405.773,-99.0307 L 405.325,-98.705
 L 404.819,-98.4797 L 404.277,-98.3645 z
M 359.801,-78.1104 L 359.413,-78.193 L 359.05,-78.3546 L 358.729,-78.588 L 358.463,-78.8832 L 358.264,-79.2272
 L 358.142,-79.605 L 358.1,-80 L 358.142,-80.395 L 358.264,-80.7728 L 358.463,-81.1168 L 358.729,-81.412
 L 359.05,-81.6454 L 359.413,-81.807 L 359.801,-81.8896 L 360.199,-81.8896 L 360.587,-81.807 L 360.95,-81.6454
 L 361.271,-81.412 L 361.537,-81.1168 L 361.736,-80.7728 L 361.858,-80.395 L 361.9,-80 L 361.858,-79.605
 L 361.736,-79.2272 L 361.537,-78.8832 L 361.271,-78.588 L 360.95,-78.3546 L 360.587,-78.193 L 360.199,-78.1104
 z
M 234.801,-78.1104 L 234.413,-78.193 L 234.05,-78.3546 L 233.729,-78.588 L 233.463,-78.8832 L 233.264,-79.2272
 L 233.142,-79.605 L 233.1,-80 L 233.142,-80.395 L 233.264,-80.7728 L 233.463,-81.1168 L 233.729,-81.412
 L 234.05,-81.6454 L 234.413,-81.807 L 234.801,-81.8896 L 235.199,-81.8896 L 235.587,-81.807 L 235.95,-81.6454
 L 236.271,-81.412 L 236.537,-81.1168 L 236.736,-80.7728 L 236.858,-80.395 L 236.9,-80 L 236.858,-79.605
 L 236.736,-79.2272 L 236.537,-78.8832 L 236.271,-78.588 L 235.95,-78.3546 L 235.587,-78.193 L 235.199,-78.1104
 z
M 34.8014,-78.1104 L 34.4129,-78.193 L 34.05,-78.3546 L 33.7287,-78.588 L 33.4629,-78.8832 L 33.2643,-79.2272
 L 33.1415,-79.605 L 33.1,-80 L 33.1415,-80.395 L 33.2643,-80.7728 L 33.4629,-81.1168 L 33.7287,-81.412
 L 34.05,-81.6454 L 34.4129,-81.807 L 34.8014,-81.8896 L 35.1986,-81.8896 L 35.5871,-81.807 L 35.95,-81.6454
 L 36.2713,-81.412 L 36.5371,-81.1168 L 36.7357,-80.7728 L 36.8585,-80.395 L 36.9,-80 L 36.8585,-79.605
 L 36.7357,-79.2272 L 36.5371,-78.8832 L 36.2713,-78.588 L 35.95,-78.3546 L 35.5871,-78.193 L 35.1986,-78.1104
 z
M 384.801,-78.1104 L 384.413,-78.193 L 384.05,-78.3546 L 383.729,-78.588 L 383.463,-78.8832 L 383.264,-79.2272
 L 383.142,-79.605 L 383.1,-80 L 383.142,-80.395 L 383.264,-80.7728 L 383.463,-81.1168 L 383.729,-81.412
 L 384.05,-81.6454 L 384.413,-81.807 L 384.801,-81.8896 L 385.199,-81.8896 L 385.587,-81.807 L 385.95,-81.6454
 L 386.271,-81.412 L 386.537,-81.1168 L 386.736,-80.7728 L 386.858,-80.395 L 386.9,-80 L 386.858,-79.605
 L 386.736,-79.2272 L 386.537,-78.8832 L 386.271,-78.588 L 385.95,-78.3546 L 385.587,-78.193 L 385.199,-78.1104
 z
M 309.801,-78.1104 L 309.413,-78.193 L 309.05,-78.3546 L 308.729,-78.588 L 308.463,-78.8832 L 308.264,-79.2272
 L 308.142,-79.605 L 308.1,-80 L 308.142,-80.395 L 308.264,-80.7728 L 308.463,-81.1168 L 308.729,-81.412
 L 309.05,-81.6454 L 309.413,-81.807 L 309.801,-81.8896 L 310.199,-81.8896 L 310.587,-81.807 L 310.95,-81.6454
 L 311.271,-81.412 L 311.537,-81.1168 L 311.736,-80.7728 L 311.858,-80.395 L 311.9,-80 L 311.858,-79.605
 L 311.736,-79.2272 L 311.537,-78.8832 L 311.271,-78.588 L 310.95,-78.3546 L 310.587,-78.193 L 310.199,-78.1104
 z
M 284.801,-78.1104 L 284.413,-78.193 L 284.05,-78.3546 L 283.729,-78.588 L 283.463,-78.8832 L 283.264,-79.2272
 L 283.142,-79.605 L 283.1,-80 L 283.142,-80.395 L 283.264,-80.7728 L 283.463,-81.1168 L 283.729,-81.412
 L 284.05,-81.6454 L 284.413,-81.807 L 284.801,-81.8896 L 285.199,-81.8896 L 285.587,-81.807 L 285.95,-81.6454
 L 286.271,-81.412 L 286.537,-81.1168 L 286.736,-80.7728 L 286.858,-80.395 L 286.9,-80 L 286.858,-79.605
 L 286.736,-79.2272 L 286.537,-78.8832 L 286.271,-78.588 L 285.95,-78.3546 L 285.587,-78.193 L 285.199,-78.1104
 z
M 259.801,-78.1104 L 259.413,-78.193 L 259.05,-78.3546 L 258.729,-78.588 L 258.463,-78.8832 L 258.264,-79.2272
 L 258.142,-79.605 L 258.1,-80 L 258.142,-80.395 L 258.264,-80.7728 L 258.463,-81.1168 L 258.729,-81.412
 L 259.05,-81.6454 L 259.413,-81.807 L 259.801,-81.8896 L 260.199,-81.8896 L 260.587,-81.807 L 260.95,-81.6454
 L 261.271,-81.412 L 261.537,-81.1168 L 261.736,-80.7728 L 261.858,-80.395 L 261.9,-80 L 261.858,-79.605
 L 261.736,-79.2272 L 261.537,-78.8832 L 261.271,-78.588 L 260.95,-78.3546 L 260.587,-78.193 L 260.199,-78.1104
 z
M 209.801,-78.1104 L 209.413,-78.193 L 209.05,-78.3546 L 208.729,-78.588 L 208.463,-78.8832 L 208.264,-79.2272
 L 208.142,-79.605 L 208.1,-80 L 208.142,-80.395 L 208.264,-80.7728 L 208.463,-81.1168 L 208.729,-81.412
 L 209.05,-81.6454 L 209.413,-81.807 L 209.801,-81.8896 L 210.199,-81.8896 L 210.587,-81.807 L 210.95,-81.6454
 L 211.271,-81.412 L 211.537,-81.1168 L 211.736,-80.7728 L 211.858,-80.395 L 211.9,-80 L 211.858,-79.605
 L 211.736,-79.2272 L 211.537,-78.8832 L 211.271,-78.588 L 210.95,-78.3546 L 210.587,-78.193 L 210.199,-78.1104
 z
M 334.801,-78.1104 L 334.413,-78.193 L 334.05,-78.3546 L 333.729,-78.588 L 333.463,-78.8832 L 333.264,-79.2272
 L 333.142,-79.605 L 333.1,-80 L 333.142,-80.395 L 333.264,-80.7728 L 333.463,-81.1168 L 333.729,-81.412
 L 334.05,-81.6454 L 334.413,-81.807 L 334.801,-81.8896 L 335.199,-81.8896 L 335.587,-81.807 L 335.95,-81.6454
 L 336.271,-81.412 L 336.537,-81.1168 L 336.736,-80.7728 L 336.858,-80.395 L 336.9,-80 L 336.858,-79.605
 L 336.736,-79.2272 L 336.537,-78.8832 L 336.271,-78.588 L 335.95,-78.3546 L 335.587,-78.193 L 335.199,-78.1104
 z
M 184.801,-78.1104 L 184.413,-78.193 L 184.05,-78.3546 L 183.729,-78.588 L 183.463,-78.8832 L 183.264,-79.2272
 L 183.142,-79.605 L 183.1,-80 L 183.142,-80.395 L 183.264,-80.7728 L 183.463,-81.1168 L 183.729,-81.412
 L 184.05,-81.6454 L 184.413,-81.807 L 184.801,-81.8896 L 185.199,-81.8896 L 185.587,-81.807 L 185.95,-81.6454
 L 186.271,-81.412 L 186.537,-81.1168 L 186.736,-80.7728 L 186.858,-80.395 L 186.9,-80 L 186.858,-79.605
 L 186.736,-79.2272 L 186.537,-78.8832 L 186.271,-78.588 L 185.95,-78.3546 L 185.587,-78.193 L 185.199,-78.1104
 z
M 50.8537,-64.6077 L 50.5674,-64.6685 L 50.3,-64.7876 L 50.0632,-64.9596 L 49.8674,-65.1771 L 49.721,-65.4306
 L 49.6306,-65.7089 L 49.6,-66 L 49.6306,-66.2911 L 49.721,-66.5694 L 49.8674,-66.8229 L 50.0632,-67.0404
 L 50.3,-67.2124 L 50.5674,-67.3315 L 50.8537,-67.3923 L 51.1463,-67.3923 L 51.4326,-67.3315 L 51.7,-67.2124
 L 51.9368,-67.0404 L 52.1326,-66.8229 L 52.279,-66.5694 L 52.3694,-66.2911 L 52.4,-66 L 52.3694,-65.7089
 L 52.279,-65.4306 L 52.1326,-65.1771 L 51.9368,-64.9596 L 51.7,-64.7876 L 51.4326,-64.6685 L 51.1463,-64.6077
 z
M 167.854,-64.6077 L 167.567,-64.6685 L 167.3,-64.7876 L 167.063,-64.9596 L 166.867,-65.1771 L 166.721,-65.4306
 L 166.631,-65.7089 L 166.6,-66 L 166.631,-66.2911 L 166.721,-66.5694 L 166.867,-66.8229 L 167.063,-67.0404
 L 167.3,-67.2124 L 167.567,-67.3315 L 167.854,-67.3923 L 168.146,-67.3923 L 168.433,-67.3315 L 168.7,-67.2124
 L 168.937,-67.0404 L 169.133,-66.8229 L 169.279,-66.5694 L 169.369,-66.2911 L 169.4,-66 L 169.369,-65.7089
 L 169.279,-65.4306 L 169.133,-65.1771 L 168.937,-64.9596 L 168.7,-64.7876 L 168.433,-64.6685 L 168.146,-64.6077
 z
M 233.801,-61.1104 L 233.413,-61.193 L 233.05,-61.3546 L 232.729,-61.588 L 232.463,-61.8832 L 232.264,-62.2272
 L 232.142,-62.605 L 232.1,-63 L 232.142,-63.395 L 232.264,-63.7728 L 232.463,-64.1168 L 232.729,-64.412
 L 233.05,-64.6454 L 233.413,-64.807 L 233.801,-64.8896 L 234.199,-64.8896 L 234.587,-64.807 L 234.95,-64.6454
 L 235.271,-64.412 L 235.537,-64.1168 L 235.736,-63.7728 L 235.858,-63.395 L 235.9,-63 L 235.858,-62.605
 L 235.736,-62.2272 L 235.537,-61.8832 L 235.271,-61.588 L 234.95,-61.3546 L 234.587,-61.193 L 234.199,-61.1104
 z
M 376.801,-61.1104 L 376.413,-61.193 L 376.05,-61.3546 L 375.729,-61.588 L 375.463,-61.8832 L 375.264,-62.2272
 L 375.142,-62.605 L 375.1,-63 L 375.142,-63.395 L 375.264,-63.7728 L 375.463,-64.1168 L 375.729,-64.412
 L 376.05,-64.6454 L 376.413,-64.807 L 376.801,-64.8896 L 377.199,-64.8896 L 377.587,-64.807 L 377.95,-64.6454
 L 378.271,-64.412 L 378.537,-64.1168 L 378.736,-63.7728 L 378.858,-63.395 L 378.9,-63 L 378.858,-62.605
 L 378.736,-62.2272 L 378.537,-61.8832 L 378.271,-61.588 L 377.95,-61.3546 L 377.587,-61.193 L 377.199,-61.1104
 z
M 34.8014,-38.1104 L 34.4129,-38.193 L 34.05,-38.3546 L 33.7287,-38.588 L 33.4629,-38.8832 L 33.2643,-39.2272
 L 33.1415,-39.605 L 33.1,-40 L 33.1415,-40.395 L 33.2643,-40.7728 L 33.4629,-41.1168 L 33.7287,-41.412
 L 34.05,-41.6454 L 34.4129,-41.807 L 34.8014,-41.8896 L 35.1986,-41.8896 L 35.5871,-41.807 L 35.95,-41.6454
 L 36.2713,-41.412 L 36.5371,-41.1168 L 36.7357,-40.7728 L 36.8585,-40.395 L 36.9,-40 L 36.8585,-39.605
 L 36.7357,-39.2272 L 36.5371,-38.8832 L 36.2713,-38.588 L 35.95,-38.3546 L 35.5871,-38.193 L 35.1986,-38.1104
 z
M 404.801,-38.1104 L 404.413,-38.193 L 404.05,-38.3546 L 403.729,-38.588 L 403.463,-38.8832 L 403.264,-39.2272
 L 403.142,-39.605 L 403.1,-40 L 403.142,-40.395 L 403.264,-40.7728 L 403.463,-41.1168 L 403.729,-41.412
 L 404.05,-41.6454 L 404.413,-41.807 L 404.801,-41.8896 L 405.199,-41.8896 L 405.587,-41.807 L 405.95,-41.6454
 L 406.271,-41.412 L 406.537,-41.1168 L 406.736,-40.7728 L 406.858,-40.395 L 406.9,-40 L 406.858,-39.605
 L 406.736,-39.2272 L 406.537,-38.8832 L 406.271,-38.588 L 405.95,-38.3546 L 405.587,-38.193 L 405.199,-38.1104
 z
M 376.801,-36.1104 L 376.413,-36.193 L 376.05,-36.3546 L 375.729,-36.588 L 375.463,-36.8832 L 375.264,-37.2272
 L 375.142,-37.605 L 375.1,-38 L 375.142,-38.395 L 375.264,-38.7728 L 375.463,-39.1168 L 375.729,-39.412
 L 376.05,-39.6454 L 376.413,-39.807 L 376.801,-39.8896 L 377.199,-39.8896 L 377.587,-39.807 L 377.95,-39.6454
 L 378.271,-39.412 L 378.537,-39.1168 L 378.736,-38.7728 L 378.858,-38.395 L 378.9,-38 L 378.858,-37.605
 L 378.736,-37.2272 L 378.537,-36.8832 L 378.271,-36.588 L 377.95,-36.3546 L 377.587,-36.193 L 377.199,-36.1104
 z
M 346.801,-36.1104 L 346.413,-36.193 L 346.05,-36.3546 L 345.729,-36.588 L 345.463,-36.8832 L 345.264,-37.2272
 L 345.142,-37.605 L 345.1,-38 L 345.142,-38.395 L 345.264,-38.7728 L 345.463,-39.1168 L 345.729,-39.412
 L 346.05,-39.6454 L 346.413,-39.807 L 346.801,-39.8896 L 347.199,-39.8896 L 347.587,-39.807 L 347.95,-39.6454
 L 348.271,-39.412 L 348.537,-39.1168 L 348.736,-38.7728 L 348.858,-38.395 L 348.9,-38 L 348.858,-37.605
 L 348.736,-37.2272 L 348.537,-36.8832 L 348.271,-36.588 L 347.95,-36.3546 L 347.587,-36.193 L 347.199,-36.1104
 z
M 266.801,-36.1104 L 266.413,-36.193 L 266.05,-36.3546 L 265.729,-36.588 L 265.463,-36.8832 L 265.264,-37.2272
 L 265.142,-37.605 L 265.1,-38 L 265.142,-38.395 L 265.264,-38.7728 L 265.463,-39.1168 L 265.729,-39.412
 L 266.05,-39.6454 L 266.413,-39.807 L 266.801,-39.8896 L 267.199,-39.8896 L 267.587,-39.807 L 267.95,-39.6454
 L 268.271,-39.412 L 268.537,-39.1168 L 268.736,-38.7728 L 268.858,-38.395 L 268.9,-38 L 268.858,-37.605
 L 268.736,-37.2272 L 268.537,-36.8832 L 268.271,-36.588 L 267.95,-36.3546 L 267.587,-36.193 L 267.199,-36.1104
 z
M 85.1986,-198.11 L 84.8014,-198.11 L 84.4129,-198.193 L 84.05,-198.355 L 83.7287,-198.588 L 83.4629,-198.883
 L 83.2643,-199.227 L 83.1415,-199.605 L 83.1,-200 L 83.1415,-200.395 L 83.2643,-200.773 L 83.4629,-201.117
 L 83.7287,-201.412 L 84.05,-201.645 L 84.4129,-201.807 L 84.8014,-201.89 L 85.1986,-201.89 L 85.5871,-201.807
 L 85.95,-201.645 L 86.2713,-201.412 L 86.5371,-201.117 L 86.7357,-200.773 L 86.8585,-200.395 L 86.9,-200
 L 86.8585,-199.605 L 86.7357,-199.227 L 86.5371,-198.883 L 86.2713,-198.588 L 85.95,-198.355 L 85.5871,-198.193
 z
" stroke="black" fill="lightgray" stroke-width="0.5"/></svg>
