<?xml version="1.0" standalone="no"?>
<!DOCTYPE svg PUBLIC "-//W3C//DTD SVG 1.1//EN" "http://www.w3.org/Graphics/SVG/1.1/DTD/svg11.dtd">
<svg width="40" height="90" viewBox="46 -146 40 90" xmlns="http://www.w3.org/2000/svg" version="1.1">
<title>OpenSCAD Model</title>
<path d="
M 56,-76 L 51,-76 L 51,-126 L 56,-126 L 56,-138 L 86,-138
 L 86,-146 L 46,-146 L 46,-56 L 56,-56 z
M 75.8537,-140.608 L 75.5674,-140.669 L 75.3,-140.788 L 75.0632,-140.96 L 74.8674,-141.177 L 74.721,-141.431
 L 74.6306,-141.709 L 74.6,-142 L 74.6306,-142.291 L 74.721,-142.569 L 74.8674,-142.823 L 75.0632,-143.04
 L 75.3,-143.212 L 75.5674,-143.331 L 75.8537,-143.392 L 76.1463,-143.392 L 76.4326,-143.331 L 76.7,-143.212
 L 76.9368,-143.04 L 77.1326,-142.823 L 77.279,-142.569 L 77.3694,-142.291 L 77.4,-142 L 77.3694,-141.709
 L 77.279,-141.431 L 77.1326,-141.177 L 76.9368,-140.96 L 76.7,-140.788 L 76.4326,-140.669 L 76.1463,-140.608
 z
M 50.8537,-134.608 L 50.5674,-134.669 L 50.3,-134.788 L 50.0632,-134.96 L 49.8674,-135.177 L 49.721,-135.431
 L 49.6306,-135.709 L 49.6,-136 L 49.6306,-136.291 L 49.721,-136.569 L 49.8674,-136.823 L 50.0632,-137.04
 L 50.3,-137.212 L 50.5674,-137.331 L 50.8537,-137.392 L 51.1463,-137.392 L 51.4326,-137.331 L 51.7,-137.212
 L 51.9368,-137.04 L 52.1326,-136.823 L 52.279,-136.569 L 52.3694,-136.291 L 52.4,-136 L 52.3694,-135.709
 L 52.279,-135.431 L 52.1326,-135.177 L 51.9368,-134.96 L 51.7,-134.788 L 51.4326,-134.669 L 51.1463,-134.608
 z
M 50.8537,-64.6077 L 50.5674,-64.6685 L 50.3,-64.7876 L 50.0632,-64.9596 L 49.8674,-65.1771 L 49.721,-65.4306
 L 49.6306,-65.7089 L 49.6,-66 L 49.6306,-66.2911 L 49.721,-66.5694 L 49.8674,-66.8229 L 50.0632,-67.0404
 L 50.3,-67.2124 L 50.5674,-67.3315 L 50.8537,-67.3923 L 51.1463,-67.3923 L 51.4326,-67.3315 L 51.7,-67.2124
 L 51.9368,-67.0404 L 52.1326,-66.8229 L 52.279,-66.5694 L 52.3694,-66.2911 L 52.4,-66 L 52.3694,-65.7089
 L 52.279,-65.4306 L 52.1326,-65.1771 L 51.9368,-64.9596 L 51.7,-64.7876 L 51.4326,-64.6685 L 51.1463,-64.6077
 z
" stroke="black" fill="lightgray" stroke-width="0.5"/></svg>
