<?xml version="1.0" standalone="no"?>
<!DOCTYPE svg PUBLIC "-//W3C//DTD SVG 1.1//EN" "http://www.w3.org/Graphics/SVG/1.1/DTD/svg11.dtd">
<svg width="95" height="410" viewBox="-74 -435 95 410" xmlns="http://www.w3.org/2000/svg" version="1.1">
<title>OpenSCAD Model</title>
<path d="
M 20.25,-28.4421 L 20.25,-384.8 L -0.25,-384.8 L -0.25,-405.3 L 20.25,-405.3 L 20.25,-430.3
 L 16.25,-434.3 L -70.75,-434.3 L -74,-431.05 L -74,-27.6921 L -71.6079,-25.3 L 17.1079,-25.3
 z
M -64.2979,-421.566 L -64.8807,-421.689 L -65.425,-421.932 L -65.907,-422.282 L -66.3057,-422.725 L -66.6036,-423.241
 L -66.7877,-423.807 L -66.85,-424.4 L -66.7877,-424.993 L -66.6036,-425.559 L -66.3057,-426.075 L -65.907,-426.518
 L -65.425,-426.868 L -64.8807,-427.111 L -64.2979,-427.234 L -63.7021,-427.234 L -63.1193,-427.111 L -62.575,-426.868
 L -62.093,-426.518 L -61.6943,-426.075 L -61.3964,-425.559 L -61.2123,-424.993 L -61.15,-424.4 L -61.2123,-423.807
 L -61.3964,-423.241 L -61.6943,-422.725 L -62.093,-422.282 L -62.575,-421.932 L -63.1193,-421.689 L -63.7021,-421.566
 z
M -35.2979,-397.066 L -35.8807,-397.189 L -36.425,-397.432 L -36.907,-397.782 L -37.3057,-398.225 L -37.6036,-398.741
 L -37.7877,-399.307 L -37.85,-399.9 L -37.7877,-400.493 L -37.6036,-401.059 L -37.3057,-401.575 L -36.907,-402.018
 L -36.425,-402.368 L -35.8807,-402.611 L -35.2979,-402.734 L -34.7021,-402.734 L -34.1193,-402.611 L -33.575,-402.368
 L -33.093,-402.018 L -32.6943,-401.575 L -32.3964,-401.059 L -32.2123,-400.493 L -32.15,-399.9 L -32.2123,-399.307
 L -32.3964,-398.741 L -32.6943,-398.225 L -33.093,-397.782 L -33.575,-397.432 L -34.1193,-397.189 L -34.7021,-397.066
 z
M 9.70209,-367.066 L 9.11929,-367.189 L 8.575,-367.432 L 8.09297,-367.782 L 7.69429,-368.225 L 7.39639,-368.741
 L 7.21228,-369.307 L 7.14999,-369.9 L 7.21228,-370.493 L 7.39639,-371.059 L 7.69429,-371.575 L 8.09297,-372.018
 L 8.575,-372.368 L 9.11929,-372.611 L 9.70209,-372.734 L 10.2979,-372.734 L 10.8807,-372.611 L 11.425,-372.368
 L 11.907,-372.018 L 12.3057,-371.575 L 12.6036,-371.059 L 12.7877,-370.493 L 12.85,-369.9 L 12.7877,-369.307
 L 12.6036,-368.741 L 12.3057,-368.225 L 11.907,-367.782 L 11.425,-367.432 L 10.8807,-367.189 L 10.2979,-367.066
 z
M -43.7,-292.9 L -43.7,-346.9 L -26.5,-346.9 L -26.5,-292.9 z
M -64.2979,-206.066 L -64.8807,-206.189 L -65.425,-206.432 L -65.907,-206.782 L -66.3057,-207.225 L -66.6036,-207.741
 L -66.7877,-208.307 L -66.85,-208.9 L -66.7877,-209.493 L -66.6036,-210.059 L -66.3057,-210.575 L -65.907,-211.018
 L -65.425,-211.368 L -64.8807,-211.611 L -64.2979,-211.734 L -63.7021,-211.734 L -63.1193,-211.611 L -62.575,-211.368
 L -62.093,-211.018 L -61.6943,-210.575 L -61.3964,-210.059 L -61.2123,-209.493 L -61.15,-208.9 L -61.2123,-208.307
 L -61.3964,-207.741 L -61.6943,-207.225 L -62.093,-206.782 L -62.575,-206.432 L -63.1193,-206.189 L -63.7021,-206.066
 z
M 9.70209,-202.066 L 9.11929,-202.189 L 8.575,-202.432 L 8.09297,-202.782 L 7.69429,-203.225 L 7.39639,-203.741
 L 7.21228,-204.307 L 7.14999,-204.9 L 7.21228,-205.493 L 7.39639,-206.059 L 7.69429,-206.575 L 8.09297,-207.018
 L 8.575,-207.368 L 9.11929,-207.611 L 9.70209,-207.734 L 10.2979,-207.734 L 10.8807,-207.611 L 11.425,-207.368
 L 11.907,-207.018 L 12.3057,-206.575 L 12.6036,-206.059 L 12.7877,-205.493 L 12.85,-204.9 L 12.7877,-204.307
 L 12.6036,-203.741 L 12.3057,-203.225 L 11.907,-202.782 L 11.425,-202.432 L 10.8807,-202.189 L 10.2979,-202.066
 z
M -43.7,-74.9 L -43.7,-128.9 L -26.5,-128.9 L -26.5,-74.9 z
M 9.70209,-47.0656 L 9.11929,-47.1895 L 8.575,-47.4318 L 8.09297,-47.782 L 7.69429,-48.2248 L 7.39639,-48.7408
 L 7.21228,-49.3074 L 7.14999,-49.9 L 7.21228,-50.4925 L 7.39639,-51.0592 L 7.69429,-51.5752 L 8.09297,-52.018
 L 8.575,-52.3682 L 9.11929,-52.6105 L 9.70209,-52.7344 L 10.2979,-52.7344 L 10.8807,-52.6105 L 11.425,-52.3682
 L 11.907,-52.018 L 12.3057,-51.5752 L 12.6036,-51.0592 L 12.7877,-50.4925 L 12.85,-49.9 L 12.7877,-49.3074
 L 12.6036,-48.7408 L 12.3057,-48.2248 L 11.907,-47.782 L 11.425,-47.4318 L 10.8807,-47.1895 L 10.2979,-47.0656
 z
M -35.2979,-47.0656 L -35.8807,-47.1895 L -36.425,-47.4318 L -36.907,-47.782 L -37.3057,-48.2248 L -37.6036,-48.7408
 L -37.7877,-49.3074 L -37.85,-49.9 L -37.7877,-50.4925 L -37.6036,-51.0592 L -37.3057,-51.5752 L -36.907,-52.018
 L -36.425,-52.3682 L -35.8807,-52.6105 L -35.2979,-52.7344 L -34.7021,-52.7344 L -34.1193,-52.6105 L -33.575,-52.3682
 L -33.093,-52.018 L -32.6943,-51.5752 L -32.3964,-51.0592 L -32.2123,-50.4925 L -32.15,-49.9 L -32.2123,-49.3074
 L -32.3964,-48.7408 L -32.6943,-48.2248 L -33.093,-47.782 L -33.575,-47.4318 L -34.1193,-47.1895 L -34.7021,-47.0656
 z
" stroke="black" fill="lightgray" stroke-width="0.5"/></svg>
