<?xml version="1.0" standalone="no"?>
<!DOCTYPE svg PUBLIC "-//W3C//DTD SVG 1.1//EN" "http://www.w3.org/Graphics/SVG/1.1/DTD/svg11.dtd">
<svg width="42" height="63" viewBox="33 -125 42 63" xmlns="http://www.w3.org/2000/svg" version="1.1">
<title>OpenSCAD Model</title>
<path d="
M 74.496,-97.7472 L 59,-125 L 33,-125 L 33,-62.7488 L 74.496,-62.7488 z
M 59.4599,-112.881 L 59.0373,-112.972 L 58.6425,-113.15 L 58.2929,-113.408 L 58.0038,-113.734 L 57.7877,-114.114
 L 57.6542,-114.532 L 57.609,-114.968 L 57.6542,-115.404 L 57.7877,-115.822 L 58.0038,-116.202 L 58.2929,-116.528
 L 58.6425,-116.786 L 59.0373,-116.964 L 59.4599,-117.055 L 59.8921,-117.055 L 60.3147,-116.964 L 60.7095,-116.786
 L 61.0591,-116.528 L 61.3482,-116.202 L 61.5643,-115.822 L 61.6978,-115.404 L 61.743,-114.968 L 61.6978,-114.532
 L 61.5643,-114.114 L 61.3482,-113.734 L 61.0591,-113.408 L 60.7095,-113.15 L 60.3147,-112.972 L 59.8921,-112.881
 z
M 37.7759,-112.881 L 37.3533,-112.972 L 36.9585,-113.15 L 36.6089,-113.408 L 36.3198,-113.734 L 36.1037,-114.114
 L 35.9702,-114.532 L 35.925,-114.968 L 35.9702,-115.404 L 36.1037,-115.822 L 36.3198,-116.202 L 36.6089,-116.528
 L 36.9585,-116.786 L 37.3533,-116.964 L 37.7759,-117.055 L 38.2081,-117.055 L 38.6307,-116.964 L 39.0255,-116.786
 L 39.3751,-116.528 L 39.6642,-116.202 L 39.8803,-115.822 L 40.0138,-115.404 L 40.059,-114.968 L 40.0138,-114.532
 L 39.8803,-114.114 L 39.6642,-113.734 L 39.3751,-113.408 L 39.0255,-113.15 L 38.6307,-112.972 L 38.2081,-112.881
 z
M 37.6299,-96.4441 L 37.3029,-96.5147 L 36.9975,-96.6527 L 36.7271,-96.8522 L 36.5034,-97.1045 L 36.3362,-97.3984
 L 36.2329,-97.7212 L 36.198,-98.0588 L 36.2329,-98.3964 L 36.3362,-98.7192 L 36.5034,-99.0131 L 36.7271,-99.2654
 L 36.9975,-99.4649 L 37.3029,-99.6029 L 37.6299,-99.6735 L 37.9641,-99.6735 L 38.2911,-99.6029 L 38.5965,-99.4649
 L 38.8669,-99.2654 L 39.0906,-99.0131 L 39.2578,-98.7192 L 39.3611,-98.3964 L 39.396,-98.0588 L 39.3611,-97.7212
 L 39.2578,-97.3984 L 39.0906,-97.1045 L 38.8669,-96.8522 L 38.5965,-96.6527 L 38.2911,-96.5147 L 37.9641,-96.4441
 z
M 52.1938,-70.7995 L 49.8146,-71.313 L 47.5925,-72.3176 L 45.6247,-73.7693 L 43.9971,-75.6047 L 42.7809,-77.7436
 L 42.0293,-80.0925 L 41.775,-82.5488 L 42.0293,-85.0051 L 42.7809,-87.354 L 43.9971,-89.4929 L 45.6247,-91.3283
 L 47.5925,-92.78 L 49.8146,-93.7846 L 52.1938,-94.2981 L 54.6262,-94.2981 L 57.0054,-93.7846 L 59.2275,-92.78
 L 61.1953,-91.3283 L 62.8229,-89.4929 L 64.0391,-87.354 L 64.7907,-85.0051 L 65.045,-82.5488 L 64.7907,-80.0925
 L 64.0391,-77.7436 L 62.8229,-75.6047 L 61.1953,-73.7693 L 59.2275,-72.3176 L 57.0054,-71.313 L 54.6262,-70.7995
 z
M 68.5049,-65.6221 L 68.1779,-65.6927 L 67.8725,-65.8307 L 67.6021,-66.0302 L 67.3784,-66.2825 L 67.2112,-66.5764
 L 67.1079,-66.8992 L 67.073,-67.2368 L 67.1079,-67.5744 L 67.2112,-67.8972 L 67.3784,-68.1911 L 67.6021,-68.4434
 L 67.8725,-68.6429 L 68.1779,-68.7809 L 68.5049,-68.8515 L 68.8391,-68.8515 L 69.1661,-68.7809 L 69.4715,-68.6429
 L 69.7419,-68.4434 L 69.9656,-68.1911 L 70.1328,-67.8972 L 70.2361,-67.5744 L 70.271,-67.2368 L 70.2361,-66.8992
 L 70.1328,-66.5764 L 69.9656,-66.2825 L 69.7419,-66.0302 L 69.4715,-65.8307 L 69.1661,-65.6927 L 68.8391,-65.6221
 z
" stroke="black" fill="lightgray" stroke-width="0.5"/></svg>
