<?xml version="1.0" standalone="no"?>
<!DOCTYPE svg PUBLIC "-//W3C//DTD SVG 1.1//EN" "http://www.w3.org/Graphics/SVG/1.1/DTD/svg11.dtd">
<svg width="42" height="63" viewBox="-12 -125 42 63" xmlns="http://www.w3.org/2000/svg" version="1.1">
<title>OpenSCAD Model</title>
<path d="
M 30,-125 L 4,-125 L -11.496,-97.7472 L -11.496,-62.7488 L 30,-62.7488 z
M 24.7919,-112.881 L 24.3693,-112.972 L 23.9745,-113.15 L 23.6249,-113.408 L 23.3358,-113.734 L 23.1197,-114.114
 L 22.9862,-114.532 L 22.941,-114.968 L 22.9862,-115.404 L 23.1197,-115.822 L 23.3358,-116.202 L 23.6249,-116.528
 L 23.9745,-116.786 L 24.3693,-116.964 L 24.7919,-117.055 L 25.2241,-117.055 L 25.6467,-116.964 L 26.0415,-116.786
 L 26.3911,-116.528 L 26.6802,-116.202 L 26.8963,-115.822 L 27.0298,-115.404 L 27.075,-114.968 L 27.0298,-114.532
 L 26.8963,-114.114 L 26.6802,-113.734 L 26.3911,-113.408 L 26.0415,-113.15 L 25.6467,-112.972 L 25.2241,-112.881
 z
M 3.10793,-112.881 L 2.68526,-112.972 L 2.2905,-113.15 L 1.9409,-113.408 L 1.65175,-113.734 L 1.4357,-114.114
 L 1.30215,-114.532 L 1.25699,-114.968 L 1.30215,-115.404 L 1.4357,-115.822 L 1.65175,-116.202 L 1.9409,-116.528
 L 2.2905,-116.786 L 2.68526,-116.964 L 3.10793,-117.055 L 3.54005,-117.055 L 3.96274,-116.964 L 4.3575,-116.786
 L 4.70709,-116.528 L 4.99623,-116.202 L 5.2123,-115.822 L 5.34583,-115.404 L 5.39099,-114.968 L 5.34583,-114.532
 L 5.2123,-114.114 L 4.99623,-113.734 L 4.70709,-113.408 L 4.3575,-113.15 L 3.96274,-112.972 L 3.54005,-112.881
 z
M 25.0359,-96.4441 L 24.7089,-96.5147 L 24.4035,-96.6527 L 24.1331,-96.8522 L 23.9094,-97.1045 L 23.7422,-97.3984
 L 23.6389,-97.7212 L 23.604,-98.0588 L 23.6389,-98.3964 L 23.7422,-98.7192 L 23.9094,-99.0131 L 24.1331,-99.2654
 L 24.4035,-99.4649 L 24.7089,-99.6029 L 25.0359,-99.6735 L 25.3701,-99.6735 L 25.6971,-99.6029 L 26.0025,-99.4649
 L 26.2729,-99.2654 L 26.4966,-99.0131 L 26.6638,-98.7192 L 26.767,-98.3964 L 26.802,-98.0588 L 26.767,-97.7212
 L 26.6638,-97.3984 L 26.4966,-97.1045 L 26.2729,-96.8522 L 26.0025,-96.6527 L 25.6971,-96.5147 L 25.3701,-96.4441
 z
M 8.37381,-70.7995 L 5.99458,-71.313 L 3.77249,-72.3176 L 1.80466,-73.7693 L 0.177078,-75.6047 L -1.03909,-77.7436
 L -1.79074,-80.0925 L -2.045,-82.5488 L -1.79074,-85.0051 L -1.03909,-87.354 L 0.177078,-89.4929 L 1.80466,-91.3283
 L 3.77249,-92.78 L 5.99458,-93.7846 L 8.37381,-94.2981 L 10.8062,-94.2981 L 13.1854,-93.7846 L 15.4075,-92.78
 L 17.3753,-91.3283 L 19.0029,-89.4929 L 20.2191,-87.354 L 20.9707,-85.0051 L 21.225,-82.5488 L 20.9707,-80.0925
 L 20.2191,-77.7436 L 19.0029,-75.6047 L 17.3753,-73.7693 L 15.4075,-72.3176 L 13.1854,-71.313 L 10.8062,-70.7995
 z
M -5.83913,-65.6221 L -6.16611,-65.6927 L -6.4715,-65.8307 L -6.74193,-66.0302 L -6.96561,-66.2825 L -7.13275,-66.5764
 L -7.23605,-66.8992 L -7.271,-67.2368 L -7.23605,-67.5744 L -7.13275,-67.8972 L -6.96561,-68.1911 L -6.74193,-68.4434
 L -6.4715,-68.6429 L -6.16611,-68.7809 L -5.83913,-68.8515 L -5.50485,-68.8515 L -5.17787,-68.7809 L -4.8725,-68.6429
 L -4.60205,-68.4434 L -4.37837,-68.1911 L -4.21123,-67.8972 L -4.10794,-67.5744 L -4.073,-67.2368 L -4.10794,-66.8992
 L -4.21123,-66.5764 L -4.37837,-66.2825 L -4.60205,-66.0302 L -4.8725,-65.8307 L -5.17787,-65.6927 L -5.50485,-65.6221
 z
" stroke="black" fill="lightgray" stroke-width="0.5"/></svg>
