<?xml version="1.0" standalone="no"?>
<!DOCTYPE svg PUBLIC "-//W3C//DTD SVG 1.1//EN" "http://www.w3.org/Graphics/SVG/1.1/DTD/svg11.dtd">
<svg width="95" height="410" viewBox="419 -435 95 410" xmlns="http://www.w3.org/2000/svg" version="1.1">
<title>OpenSCAD Model</title>
<path d="
M 514,-27.6921 L 514,-431.05 L 510.75,-434.3 L 423.75,-434.3 L 419.75,-430.3 L 419.75,-405.3
 L 440.25,-405.3 L 440.25,-384.8 L 419.75,-384.8 L 419.75,-28.4421 L 422.892,-25.3 L 511.608,-25.3
 z
M 503.702,-421.566 L 503.119,-421.689 L 502.575,-421.932 L 502.093,-422.282 L 501.694,-422.725 L 501.396,-423.241
 L 501.212,-423.807 L 501.15,-424.4 L 501.212,-424.993 L 501.396,-425.559 L 501.694,-426.075 L 502.093,-426.518
 L 502.575,-426.868 L 503.119,-427.111 L 503.702,-427.234 L 504.298,-427.234 L 504.881,-427.111 L 505.425,-426.868
 L 505.907,-426.518 L 506.306,-426.075 L 506.604,-425.559 L 506.788,-424.993 L 506.85,-424.4 L 506.788,-423.807
 L 506.604,-423.241 L 506.306,-422.725 L 505.907,-422.282 L 505.425,-421.932 L 504.881,-421.689 L 504.298,-421.566
 z
M 474.702,-397.066 L 474.119,-397.189 L 473.575,-397.432 L 473.093,-397.782 L 472.694,-398.225 L 472.396,-398.741
 L 472.212,-399.307 L 472.15,-399.9 L 472.212,-400.493 L 472.396,-401.059 L 472.694,-401.575 L 473.093,-402.018
 L 473.575,-402.368 L 474.119,-402.611 L 474.702,-402.734 L 475.298,-402.734 L 475.881,-402.611 L 476.425,-402.368
 L 476.907,-402.018 L 477.306,-401.575 L 477.604,-401.059 L 477.788,-400.493 L 477.85,-399.9 L 477.788,-399.307
 L 477.604,-398.741 L 477.306,-398.225 L 476.907,-397.782 L 476.425,-397.432 L 475.881,-397.189 L 475.298,-397.066
 z
M 429.702,-367.066 L 429.119,-367.189 L 428.575,-367.432 L 428.093,-367.782 L 427.694,-368.225 L 427.396,-368.741
 L 427.212,-369.307 L 427.15,-369.9 L 427.212,-370.493 L 427.396,-371.059 L 427.694,-371.575 L 428.093,-372.018
 L 428.575,-372.368 L 429.119,-372.611 L 429.702,-372.734 L 430.298,-372.734 L 430.881,-372.611 L 431.425,-372.368
 L 431.907,-372.018 L 432.306,-371.575 L 432.604,-371.059 L 432.788,-370.493 L 432.85,-369.9 L 432.788,-369.307
 L 432.604,-368.741 L 432.306,-368.225 L 431.907,-367.782 L 431.425,-367.432 L 430.881,-367.189 L 430.298,-367.066
 z
M 466.5,-292.9 L 466.5,-346.9 L 483.7,-346.9 L 483.7,-292.9 z
M 503.702,-206.066 L 503.119,-206.189 L 502.575,-206.432 L 502.093,-206.782 L 501.694,-207.225 L 501.396,-207.741
 L 501.212,-208.307 L 501.15,-208.9 L 501.212,-209.493 L 501.396,-210.059 L 501.694,-210.575 L 502.093,-211.018
 L 502.575,-211.368 L 503.119,-211.611 L 503.702,-211.734 L 504.298,-211.734 L 504.881,-211.611 L 505.425,-211.368
 L 505.907,-211.018 L 506.306,-210.575 L 506.604,-210.059 L 506.788,-209.493 L 506.85,-208.9 L 506.788,-208.307
 L 506.604,-207.741 L 506.306,-207.225 L 505.907,-206.782 L 505.425,-206.432 L 504.881,-206.189 L 504.298,-206.066
 z
M 429.702,-202.066 L 429.119,-202.189 L 428.575,-202.432 L 428.093,-202.782 L 427.694,-203.225 L 427.396,-203.741
 L 427.212,-204.307 L 427.15,-204.9 L 427.212,-205.493 L 427.396,-206.059 L 427.694,-206.575 L 428.093,-207.018
 L 428.575,-207.368 L 429.119,-207.611 L 429.702,-207.734 L 430.298,-207.734 L 430.881,-207.611 L 431.425,-207.368
 L 431.907,-207.018 L 432.306,-206.575 L 432.604,-206.059 L 432.788,-205.493 L 432.85,-204.9 L 432.788,-204.307
 L 432.604,-203.741 L 432.306,-203.225 L 431.907,-202.782 L 431.425,-202.432 L 430.881,-202.189 L 430.298,-202.066
 z
M 466.5,-74.9 L 466.5,-128.9 L 483.7,-128.9 L 483.7,-74.9 z
M 474.702,-47.0656 L 474.119,-47.1895 L 473.575,-47.4318 L 473.093,-47.782 L 472.694,-48.2248 L 472.396,-48.7408
 L 472.212,-49.3074 L 472.15,-49.9 L 472.212,-50.4925 L 472.396,-51.0592 L 472.694,-51.5752 L 473.093,-52.018
 L 473.575,-52.3682 L 474.119,-52.6105 L 474.702,-52.7344 L 475.298,-52.7344 L 475.881,-52.6105 L 476.425,-52.3682
 L 476.907,-52.018 L 477.306,-51.5752 L 477.604,-51.0592 L 477.788,-50.4925 L 477.85,-49.9 L 477.788,-49.3074
 L 477.604,-48.7408 L 477.306,-48.2248 L 476.907,-47.782 L 476.425,-47.4318 L 475.881,-47.1895 L 475.298,-47.0656
 z
M 429.702,-47.0656 L 429.119,-47.1895 L 428.575,-47.4318 L 428.093,-47.782 L 427.694,-48.2248 L 427.396,-48.7408
 L 427.212,-49.3074 L 427.15,-49.9 L 427.212,-50.4925 L 427.396,-51.0592 L 427.694,-51.5752 L 428.093,-52.018
 L 428.575,-52.3682 L 429.119,-52.6105 L 429.702,-52.7344 L 430.298,-52.7344 L 430.881,-52.6105 L 431.425,-52.3682
 L 431.907,-52.018 L 432.306,-51.5752 L 432.604,-51.0592 L 432.788,-50.4925 L 432.85,-49.9 L 432.788,-49.3074
 L 432.604,-48.7408 L 432.306,-48.2248 L 431.907,-47.782 L 431.425,-47.4318 L 430.881,-47.1895 L 430.298,-47.0656
 z
" stroke="black" fill="lightgray" stroke-width="0.5"/></svg>
