<?xml version="1.0" standalone="no"?>
<!DOCTYPE svg PUBLIC "-//W3C//DTD SVG 1.1//EN" "http://www.w3.org/Graphics/SVG/1.1/DTD/svg11.dtd">
<svg width="371" height="63" viewBox="0 -63 371 63" xmlns="http://www.w3.org/2000/svg" version="1.1">
<title>OpenSCAD Model</title>
<path d="
M 370.74,-62.8 L 0,-62.8 L 0,-0 L 370.74,-0 z
M 151.807,-44.1601 L 151.428,-44.2405 L 151.075,-44.3978 L 150.762,-44.6252 L 150.503,-44.9126 L 150.31,-45.2475
 L 150.19,-45.6154 L 150.15,-46 L 150.19,-46.3846 L 150.31,-46.7525 L 150.503,-47.0874 L 150.762,-47.3748
 L 151.075,-47.6021 L 151.428,-47.7594 L 151.807,-47.8399 L 152.193,-47.8399 L 152.572,-47.7594 L 152.925,-47.6021
 L 153.238,-47.3748 L 153.497,-47.0874 L 153.69,-46.7525 L 153.81,-46.3846 L 153.85,-46 L 153.81,-45.6154
 L 153.69,-45.2475 L 153.497,-44.9126 L 153.238,-44.6252 L 152.925,-44.3978 L 152.572,-44.2405 L 152.193,-44.1601
 z
M 51.8066,-44.1601 L 51.4283,-44.2405 L 51.075,-44.3978 L 50.7621,-44.6252 L 50.5033,-44.9126 L 50.3099,-45.2475
 L 50.1904,-45.6154 L 50.15,-46 L 50.1904,-46.3846 L 50.3099,-46.7525 L 50.5033,-47.0874 L 50.7621,-47.3748
 L 51.075,-47.6021 L 51.4283,-47.7594 L 51.8066,-47.8399 L 52.1934,-47.8399 L 52.5717,-47.7594 L 52.925,-47.6021
 L 53.2379,-47.3748 L 53.4967,-47.0874 L 53.69,-46.7525 L 53.8096,-46.3846 L 53.85,-46 L 53.8096,-45.6154
 L 53.69,-45.2475 L 53.4967,-44.9126 L 53.2379,-44.6252 L 52.925,-44.3978 L 52.5717,-44.2405 L 52.1934,-44.1601
 z
M 213.807,-44.1601 L 213.428,-44.2405 L 213.075,-44.3978 L 212.762,-44.6252 L 212.503,-44.9126 L 212.31,-45.2475
 L 212.19,-45.6154 L 212.15,-46 L 212.19,-46.3846 L 212.31,-46.7525 L 212.503,-47.0874 L 212.762,-47.3748
 L 213.075,-47.6021 L 213.428,-47.7594 L 213.807,-47.8399 L 214.193,-47.8399 L 214.572,-47.7594 L 214.925,-47.6021
 L 215.238,-47.3748 L 215.497,-47.0874 L 215.69,-46.7525 L 215.81,-46.3846 L 215.85,-46 L 215.81,-45.6154
 L 215.69,-45.2475 L 215.497,-44.9126 L 215.238,-44.6252 L 214.925,-44.3978 L 214.572,-44.2405 L 214.193,-44.1601
 z
M 263.807,-44.1601 L 263.428,-44.2405 L 263.075,-44.3978 L 262.762,-44.6252 L 262.503,-44.9126 L 262.31,-45.2475
 L 262.19,-45.6154 L 262.15,-46 L 262.19,-46.3846 L 262.31,-46.7525 L 262.503,-47.0874 L 262.762,-47.3748
 L 263.075,-47.6021 L 263.428,-47.7594 L 263.807,-47.8399 L 264.193,-47.8399 L 264.572,-47.7594 L 264.925,-47.6021
 L 265.238,-47.3748 L 265.497,-47.0874 L 265.69,-46.7525 L 265.81,-46.3846 L 265.85,-46 L 265.81,-45.6154
 L 265.69,-45.2475 L 265.497,-44.9126 L 265.238,-44.6252 L 264.925,-44.3978 L 264.572,-44.2405 L 264.193,-44.1601
 z
M 101.807,-44.1601 L 101.428,-44.2405 L 101.075,-44.3978 L 100.762,-44.6252 L 100.503,-44.9126 L 100.31,-45.2475
 L 100.19,-45.6154 L 100.15,-46 L 100.19,-46.3846 L 100.31,-46.7525 L 100.503,-47.0874 L 100.762,-47.3748
 L 101.075,-47.6021 L 101.428,-47.7594 L 101.807,-47.8399 L 102.193,-47.8399 L 102.572,-47.7594 L 102.925,-47.6021
 L 103.238,-47.3748 L 103.497,-47.0874 L 103.69,-46.7525 L 103.81,-46.3846 L 103.85,-46 L 103.81,-45.6154
 L 103.69,-45.2475 L 103.497,-44.9126 L 103.238,-44.6252 L 102.925,-44.3978 L 102.572,-44.2405 L 102.193,-44.1601
 z
M 313.807,-44.1601 L 313.428,-44.2405 L 313.075,-44.3978 L 312.762,-44.6252 L 312.503,-44.9126 L 312.31,-45.2475
 L 312.19,-45.6154 L 312.15,-46 L 312.19,-46.3846 L 312.31,-46.7525 L 312.503,-47.0874 L 312.762,-47.3748
 L 313.075,-47.6021 L 313.428,-47.7594 L 313.807,-47.8399 L 314.193,-47.8399 L 314.572,-47.7594 L 314.925,-47.6021
 L 315.238,-47.3748 L 315.497,-47.0874 L 315.69,-46.7525 L 315.81,-46.3846 L 315.85,-46 L 315.81,-45.6154
 L 315.69,-45.2475 L 315.497,-44.9126 L 315.238,-44.6252 L 314.925,-44.3978 L 314.572,-44.2405 L 314.193,-44.1601
 z
M 217,-17 L 217,-40 L 313,-40 L 313,-17 z
M 55,-17 L 55,-40 L 151,-40 L 151,-17 z
M 313.807,-9.16013 L 313.428,-9.24054 L 313.075,-9.39784 L 312.762,-9.62517 L 312.503,-9.91258 L 312.31,-10.2475
 L 312.19,-10.6154 L 312.15,-11 L 312.19,-11.3846 L 312.31,-11.7525 L 312.503,-12.0874 L 312.762,-12.3748
 L 313.075,-12.6021 L 313.428,-12.7594 L 313.807,-12.8399 L 314.193,-12.8399 L 314.572,-12.7594 L 314.925,-12.6021
 L 315.238,-12.3748 L 315.497,-12.0874 L 315.69,-11.7525 L 315.81,-11.3846 L 315.85,-11 L 315.81,-10.6154
 L 315.69,-10.2475 L 315.497,-9.91258 L 315.238,-9.62517 L 314.925,-9.39784 L 314.572,-9.24054 L 314.193,-9.16013
 z
M 213.807,-9.16013 L 213.428,-9.24054 L 213.075,-9.39784 L 212.762,-9.62517 L 212.503,-9.91258 L 212.31,-10.2475
 L 212.19,-10.6154 L 212.15,-11 L 212.19,-11.3846 L 212.31,-11.7525 L 212.503,-12.0874 L 212.762,-12.3748
 L 213.075,-12.6021 L 213.428,-12.7594 L 213.807,-12.8399 L 214.193,-12.8399 L 214.572,-12.7594 L 214.925,-12.6021
 L 215.238,-12.3748 L 215.497,-12.0874 L 215.69,-11.7525 L 215.81,-11.3846 L 215.85,-11 L 215.81,-10.6154
 L 215.69,-10.2475 L 215.497,-9.91258 L 215.238,-9.62517 L 214.925,-9.39784 L 214.572,-9.24054 L 214.193,-9.16013
 z
M 51.8066,-9.16013 L 51.4283,-9.24054 L 51.075,-9.39784 L 50.7621,-9.62517 L 50.5033,-9.91258 L 50.3099,-10.2475
 L 50.1904,-10.6154 L 50.15,-11 L 50.1904,-11.3846 L 50.3099,-11.7525 L 50.5033,-12.0874 L 50.7621,-12.3748
 L 51.075,-12.6021 L 51.4283,-12.7594 L 51.8066,-12.8399 L 52.1934,-12.8399 L 52.5717,-12.7594 L 52.925,-12.6021
 L 53.2379,-12.3748 L 53.4967,-12.0874 L 53.69,-11.7525 L 53.8096,-11.3846 L 53.85,-11 L 53.8096,-10.6154
 L 53.69,-10.2475 L 53.4967,-9.91258 L 53.2379,-9.62517 L 52.925,-9.39784 L 52.5717,-9.24054 L 52.1934,-9.16013
 z
M 151.807,-9.16013 L 151.428,-9.24054 L 151.075,-9.39784 L 150.762,-9.62517 L 150.503,-9.91258 L 150.31,-10.2475
 L 150.19,-10.6154 L 150.15,-11 L 150.19,-11.3846 L 150.31,-11.7525 L 150.503,-12.0874 L 150.762,-12.3748
 L 151.075,-12.6021 L 151.428,-12.7594 L 151.807,-12.8399 L 152.193,-12.8399 L 152.572,-12.7594 L 152.925,-12.6021
 L 153.238,-12.3748 L 153.497,-12.0874 L 153.69,-11.7525 L 153.81,-11.3846 L 153.85,-11 L 153.81,-10.6154
 L 153.69,-10.2475 L 153.497,-9.91258 L 153.238,-9.62517 L 152.925,-9.39784 L 152.572,-9.24054 L 152.193,-9.16013
 z
M 263.807,-9.16013 L 263.428,-9.24054 L 263.075,-9.39784 L 262.762,-9.62517 L 262.503,-9.91258 L 262.31,-10.2475
 L 262.19,-10.6154 L 262.15,-11 L 262.19,-11.3846 L 262.31,-11.7525 L 262.503,-12.0874 L 262.762,-12.3748
 L 263.075,-12.6021 L 263.428,-12.7594 L 263.807,-12.8399 L 264.193,-12.8399 L 264.572,-12.7594 L 264.925,-12.6021
 L 265.238,-12.3748 L 265.497,-12.0874 L 265.69,-11.7525 L 265.81,-11.3846 L 265.85,-11 L 265.81,-10.6154
 L 265.69,-10.2475 L 265.497,-9.91258 L 265.238,-9.62517 L 264.925,-9.39784 L 264.572,-9.24054 L 264.193,-9.16013
 z
M 101.807,-9.16013 L 101.428,-9.24054 L 101.075,-9.39784 L 100.762,-9.62517 L 100.503,-9.91258 L 100.31,-10.2475
 L 100.19,-10.6154 L 100.15,-11 L 100.19,-11.3846 L 100.31,-11.7525 L 100.503,-12.0874 L 100.762,-12.3748
 L 101.075,-12.6021 L 101.428,-12.7594 L 101.807,-12.8399 L 102.193,-12.8399 L 102.572,-12.7594 L 102.925,-12.6021
 L 103.238,-12.3748 L 103.497,-12.0874 L 103.69,-11.7525 L 103.81,-11.3846 L 103.85,-11 L 103.81,-10.6154
 L 103.69,-10.2475 L 103.497,-9.91258 L 103.238,-9.62517 L 102.925,-9.39784 L 102.572,-9.24054 L 102.193,-9.16013
 z
" stroke="black" fill="lightgray" stroke-width="0.5"/></svg>
