<?xml version="1.0" standalone="no"?>
<!DOCTYPE svg PUBLIC "-//W3C//DTD SVG 1.1//EN" "http://www.w3.org/Graphics/SVG/1.1/DTD/svg11.dtd">
<svg width="368" height="275" viewBox="32 -660 368 275" xmlns="http://www.w3.org/2000/svg" version="1.1">
<title>OpenSCAD Model</title>
<path d="
M 379.4,-435 L 399.4,-435 L 399.4,-659.25 L 32.4,-659.25 L 32.4,-435 L 52.4,-435
 L 52.4,-385 L 379.4,-385 z
M 388.475,-632.532 L 387.222,-634.025 L 387.222,-635.975 L 388.475,-637.468 L 390.395,-637.807 L 392.083,-636.832
 L 392.75,-635 L 392.083,-633.168 L 390.395,-632.193 z
M 40.475,-632.532 L 39.2219,-634.025 L 39.2219,-635.975 L 40.475,-637.468 L 42.3949,-637.807 L 44.0832,-636.832
 L 44.75,-635 L 44.0832,-633.168 L 42.3949,-632.193 z
M 208.475,-572.532 L 207.222,-574.025 L 207.222,-575.975 L 208.475,-577.468 L 210.395,-577.807 L 212.083,-576.832
 L 212.75,-575 L 212.083,-573.168 L 210.395,-572.193 z
M 40.475,-482.532 L 39.2219,-484.025 L 39.2219,-485.975 L 40.475,-487.468 L 42.3949,-487.807 L 44.0832,-486.832
 L 44.75,-485 L 44.0832,-483.168 L 42.3949,-482.193 z
M 388.475,-482.532 L 387.222,-484.025 L 387.222,-485.975 L 388.475,-487.468 L 390.395,-487.807 L 392.083,-486.832
 L 392.75,-485 L 392.083,-483.168 L 390.395,-482.193 z
M 240.475,-392.532 L 239.222,-394.025 L 239.222,-395.975 L 240.475,-397.468 L 242.395,-397.807 L 244.083,-396.832
 L 244.75,-395 L 244.083,-393.168 L 242.395,-392.193 z
M 120.475,-392.532 L 119.222,-394.025 L 119.222,-395.975 L 120.475,-397.468 L 122.395,-397.807 L 124.083,-396.832
 L 124.75,-395 L 124.083,-393.168 L 122.395,-392.193 z
" stroke="black" fill="lightgray" stroke-width="0.5"/></svg>
