<?xml version="1.0" standalone="no"?>
<!DOCTYPE svg PUBLIC "-//W3C//DTD SVG 1.1//EN" "http://www.w3.org/Graphics/SVG/1.1/DTD/svg11.dtd">
<svg width="385" height="350" viewBox="28 -380 385 350" xmlns="http://www.w3.org/2000/svg" version="1.1">
<title>OpenSCAD Model</title>
<path d="
M 70,-129.9 L 154,-129.9 L 154,-30 L 412.5,-30 L 412.5,-380 L 375,-380
 L 375,-250 L 67,-250 L 67,-380 L 28.5,-380 L 28.5,-30 L 70,-30
 z
M 59.7726,-360.837 L 59.3279,-360.931 L 58.9125,-361.116 L 58.5446,-361.384 L 58.2404,-361.722 L 58.013,-362.115
 L 57.8725,-362.548 L 57.825,-363 L 57.8725,-363.452 L 58.013,-363.885 L 58.2404,-364.278 L 58.5446,-364.616
 L 58.9125,-364.884 L 59.3279,-365.069 L 59.7726,-365.163 L 60.2273,-365.163 L 60.6721,-365.069 L 61.0875,-364.884
 L 61.4554,-364.616 L 61.7596,-364.278 L 61.987,-363.885 L 62.1275,-363.452 L 62.175,-363 L 62.1275,-362.548
 L 61.987,-362.115 L 61.7596,-361.722 L 61.4554,-361.384 L 61.0875,-361.116 L 60.6721,-360.931 L 60.2273,-360.837
 z
M 379.773,-360.837 L 379.328,-360.931 L 378.913,-361.116 L 378.545,-361.384 L 378.24,-361.722 L 378.013,-362.115
 L 377.873,-362.548 L 377.825,-363 L 377.873,-363.452 L 378.013,-363.885 L 378.24,-364.278 L 378.545,-364.616
 L 378.913,-364.884 L 379.328,-365.069 L 379.773,-365.163 L 380.227,-365.163 L 380.672,-365.069 L 381.087,-364.884
 L 381.455,-364.616 L 381.76,-364.278 L 381.987,-363.885 L 382.127,-363.452 L 382.175,-363 L 382.127,-362.548
 L 381.987,-362.115 L 381.76,-361.722 L 381.455,-361.384 L 381.087,-361.116 L 380.672,-360.931 L 380.227,-360.837
 z
M 404.773,-300.837 L 404.328,-300.931 L 403.913,-301.116 L 403.545,-301.384 L 403.24,-301.722 L 403.013,-302.115
 L 402.873,-302.548 L 402.825,-303 L 402.873,-303.452 L 403.013,-303.885 L 403.24,-304.278 L 403.545,-304.616
 L 403.913,-304.884 L 404.328,-305.069 L 404.773,-305.163 L 405.227,-305.163 L 405.672,-305.069 L 406.087,-304.884
 L 406.455,-304.616 L 406.76,-304.278 L 406.987,-303.885 L 407.127,-303.452 L 407.175,-303 L 407.127,-302.548
 L 406.987,-302.115 L 406.76,-301.722 L 406.455,-301.384 L 406.087,-301.116 L 405.672,-300.931 L 405.227,-300.837
 z
M 34.7726,-270.837 L 34.3279,-270.931 L 33.9125,-271.116 L 33.5446,-271.384 L 33.2404,-271.722 L 33.013,-272.115
 L 32.8725,-272.548 L 32.825,-273 L 32.8725,-273.452 L 33.013,-273.885 L 33.2404,-274.278 L 33.5446,-274.616
 L 33.9125,-274.884 L 34.3279,-275.069 L 34.7726,-275.163 L 35.2273,-275.163 L 35.6721,-275.069 L 36.0875,-274.884
 L 36.4554,-274.616 L 36.7596,-274.278 L 36.987,-273.885 L 37.1275,-273.452 L 37.175,-273 L 37.1275,-272.548
 L 36.987,-272.115 L 36.7596,-271.722 L 36.4554,-271.384 L 36.0875,-271.116 L 35.6721,-270.931 L 35.2273,-270.837
 z
M 404.773,-250.837 L 404.328,-250.931 L 403.913,-251.116 L 403.545,-251.384 L 403.24,-251.722 L 403.013,-252.115
 L 402.873,-252.548 L 402.825,-253 L 402.873,-253.452 L 403.013,-253.885 L 403.24,-254.278 L 403.545,-254.616
 L 403.913,-254.884 L 404.328,-255.069 L 404.773,-255.163 L 405.227,-255.163 L 405.672,-255.069 L 406.087,-254.884
 L 406.455,-254.616 L 406.76,-254.278 L 406.987,-253.885 L 407.127,-253.452 L 407.175,-253 L 407.127,-252.548
 L 406.987,-252.115 L 406.76,-251.722 L 406.455,-251.384 L 406.087,-251.116 L 405.672,-250.931 L 405.227,-250.837
 z
M 388.873,-244.337 L 388.428,-244.431 L 388.013,-244.616 L 387.645,-244.884 L 387.34,-245.222 L 387.113,-245.615
 L 386.973,-246.048 L 386.925,-246.5 L 386.973,-246.952 L 387.113,-247.385 L 387.34,-247.778 L 387.645,-248.116
 L 388.013,-248.384 L 388.428,-248.569 L 388.873,-248.663 L 389.327,-248.663 L 389.772,-248.569 L 390.188,-248.384
 L 390.555,-248.116 L 390.86,-247.778 L 391.087,-247.385 L 391.227,-246.952 L 391.275,-246.5 L 391.227,-246.048
 L 391.087,-245.615 L 390.86,-245.222 L 390.555,-244.884 L 390.188,-244.616 L 389.772,-244.431 L 389.327,-244.337
 z
M 263.873,-234.337 L 263.428,-234.431 L 263.013,-234.616 L 262.645,-234.884 L 262.34,-235.222 L 262.113,-235.615
 L 261.973,-236.048 L 261.925,-236.5 L 261.973,-236.952 L 262.113,-237.385 L 262.34,-237.778 L 262.645,-238.116
 L 263.013,-238.384 L 263.428,-238.569 L 263.873,-238.663 L 264.327,-238.663 L 264.772,-238.569 L 265.188,-238.384
 L 265.555,-238.116 L 265.86,-237.778 L 266.087,-237.385 L 266.227,-236.952 L 266.275,-236.5 L 266.227,-236.048
 L 266.087,-235.615 L 265.86,-235.222 L 265.555,-234.884 L 265.188,-234.616 L 264.772,-234.431 L 264.327,-234.337
 z
M 353.873,-234.337 L 353.428,-234.431 L 353.013,-234.616 L 352.645,-234.884 L 352.34,-235.222 L 352.113,-235.615
 L 351.973,-236.048 L 351.925,-236.5 L 351.973,-236.952 L 352.113,-237.385 L 352.34,-237.778 L 352.645,-238.116
 L 353.013,-238.384 L 353.428,-238.569 L 353.873,-238.663 L 354.327,-238.663 L 354.772,-238.569 L 355.188,-238.384
 L 355.555,-238.116 L 355.86,-237.778 L 356.087,-237.385 L 356.227,-236.952 L 356.275,-236.5 L 356.227,-236.048
 L 356.087,-235.615 L 355.86,-235.222 L 355.555,-234.884 L 355.188,-234.616 L 354.772,-234.431 L 354.327,-234.337
 z
M 257,-130 L 257,-220 L 363,-220 L 363,-130 z
M 109.773,-197.837 L 109.328,-197.931 L 108.912,-198.116 L 108.545,-198.384 L 108.24,-198.722 L 108.013,-199.115
 L 107.873,-199.548 L 107.825,-200 L 107.873,-200.452 L 108.013,-200.885 L 108.24,-201.278 L 108.545,-201.616
 L 108.912,-201.884 L 109.328,-202.069 L 109.773,-202.163 L 110.227,-202.163 L 110.672,-202.069 L 111.087,-201.884
 L 111.455,-201.616 L 111.76,-201.278 L 111.987,-200.885 L 112.127,-200.452 L 112.175,-200 L 112.127,-199.548
 L 111.987,-199.115 L 111.76,-198.722 L 111.455,-198.384 L 111.087,-198.116 L 110.672,-197.931 L 110.227,-197.837
 z
M 234.773,-197.837 L 234.328,-197.931 L 233.913,-198.116 L 233.545,-198.384 L 233.24,-198.722 L 233.013,-199.115
 L 232.873,-199.548 L 232.825,-200 L 232.873,-200.452 L 233.013,-200.885 L 233.24,-201.278 L 233.545,-201.616
 L 233.913,-201.884 L 234.328,-202.069 L 234.773,-202.163 L 235.227,-202.163 L 235.672,-202.069 L 236.087,-201.884
 L 236.455,-201.616 L 236.76,-201.278 L 236.987,-200.885 L 237.127,-200.452 L 237.175,-200 L 237.127,-199.548
 L 236.987,-199.115 L 236.76,-198.722 L 236.455,-198.384 L 236.087,-198.116 L 235.672,-197.931 L 235.227,-197.837
 z
M 379.773,-197.837 L 379.328,-197.931 L 378.913,-198.116 L 378.545,-198.384 L 378.24,-198.722 L 378.013,-199.115
 L 377.873,-199.548 L 377.825,-200 L 377.873,-200.452 L 378.013,-200.885 L 378.24,-201.278 L 378.545,-201.616
 L 378.913,-201.884 L 379.328,-202.069 L 379.773,-202.163 L 380.227,-202.163 L 380.672,-202.069 L 381.087,-201.884
 L 381.455,-201.616 L 381.76,-201.278 L 381.987,-200.885 L 382.127,-200.452 L 382.175,-200 L 382.127,-199.548
 L 381.987,-199.115 L 381.76,-198.722 L 381.455,-198.384 L 381.087,-198.116 L 380.672,-197.931 L 380.227,-197.837
 z
M 159.773,-197.837 L 159.328,-197.931 L 158.913,-198.116 L 158.545,-198.384 L 158.24,-198.722 L 158.013,-199.115
 L 157.873,-199.548 L 157.825,-200 L 157.873,-200.452 L 158.013,-200.885 L 158.24,-201.278 L 158.545,-201.616
 L 158.913,-201.884 L 159.328,-202.069 L 159.773,-202.163 L 160.227,-202.163 L 160.672,-202.069 L 161.087,-201.884
 L 161.455,-201.616 L 161.76,-201.278 L 161.987,-200.885 L 162.127,-200.452 L 162.175,-200 L 162.127,-199.548
 L 161.987,-199.115 L 161.76,-198.722 L 161.455,-198.384 L 161.087,-198.116 L 160.672,-197.931 L 160.227,-197.837
 z
M 34.7726,-197.837 L 34.3279,-197.931 L 33.9125,-198.116 L 33.5446,-198.384 L 33.2404,-198.722 L 33.013,-199.115
 L 32.8725,-199.548 L 32.825,-200 L 32.8725,-200.452 L 33.013,-200.885 L 33.2404,-201.278 L 33.5446,-201.616
 L 33.9125,-201.884 L 34.3279,-202.069 L 34.7726,-202.163 L 35.2273,-202.163 L 35.6721,-202.069 L 36.0875,-201.884
 L 36.4554,-201.616 L 36.7596,-201.278 L 36.987,-200.885 L 37.1275,-200.452 L 37.175,-200 L 37.1275,-199.548
 L 36.987,-199.115 L 36.7596,-198.722 L 36.4554,-198.384 L 36.0875,-198.116 L 35.6721,-197.931 L 35.2273,-197.837
 z
M 184.773,-197.837 L 184.328,-197.931 L 183.913,-198.116 L 183.545,-198.384 L 183.24,-198.722 L 183.013,-199.115
 L 182.873,-199.548 L 182.825,-200 L 182.873,-200.452 L 183.013,-200.885 L 183.24,-201.278 L 183.545,-201.616
 L 183.913,-201.884 L 184.328,-202.069 L 184.773,-202.163 L 185.227,-202.163 L 185.672,-202.069 L 186.087,-201.884
 L 186.455,-201.616 L 186.76,-201.278 L 186.987,-200.885 L 187.127,-200.452 L 187.175,-200 L 187.127,-199.548
 L 186.987,-199.115 L 186.76,-198.722 L 186.455,-198.384 L 186.087,-198.116 L 185.672,-197.931 L 185.227,-197.837
 z
M 59.7726,-197.837 L 59.3279,-197.931 L 58.9125,-198.116 L 58.5446,-198.384 L 58.2404,-198.722 L 58.013,-199.115
 L 57.8725,-199.548 L 57.825,-200 L 57.8725,-200.452 L 58.013,-200.885 L 58.2404,-201.278 L 58.5446,-201.616
 L 58.9125,-201.884 L 59.3279,-202.069 L 59.7726,-202.163 L 60.2273,-202.163 L 60.6721,-202.069 L 61.0875,-201.884
 L 61.4554,-201.616 L 61.7596,-201.278 L 61.987,-200.885 L 62.1275,-200.452 L 62.175,-200 L 62.1275,-199.548
 L 61.987,-199.115 L 61.7596,-198.722 L 61.4554,-198.384 L 61.0875,-198.116 L 60.6721,-197.931 L 60.2273,-197.837
 z
M 84.7726,-197.837 L 84.3279,-197.931 L 83.9125,-198.116 L 83.5446,-198.384 L 83.2404,-198.722 L 83.013,-199.115
 L 82.8725,-199.548 L 82.825,-200 L 82.8725,-200.452 L 83.013,-200.885 L 83.2404,-201.278 L 83.5446,-201.616
 L 83.9125,-201.884 L 84.3279,-202.069 L 84.7726,-202.163 L 85.2273,-202.163 L 85.6721,-202.069 L 86.0875,-201.884
 L 86.4554,-201.616 L 86.7596,-201.278 L 86.987,-200.885 L 87.1275,-200.452 L 87.175,-200 L 87.1275,-199.548
 L 86.987,-199.115 L 86.7596,-198.722 L 86.4554,-198.384 L 86.0875,-198.116 L 85.6721,-197.931 L 85.2273,-197.837
 z
M 134.773,-197.837 L 134.328,-197.931 L 133.913,-198.116 L 133.545,-198.384 L 133.24,-198.722 L 133.013,-199.115
 L 132.873,-199.548 L 132.825,-200 L 132.873,-200.452 L 133.013,-200.885 L 133.24,-201.278 L 133.545,-201.616
 L 133.913,-201.884 L 134.328,-202.069 L 134.773,-202.163 L 135.227,-202.163 L 135.672,-202.069 L 136.087,-201.884
 L 136.455,-201.616 L 136.76,-201.278 L 136.987,-200.885 L 137.127,-200.452 L 137.175,-200 L 137.127,-199.548
 L 136.987,-199.115 L 136.76,-198.722 L 136.455,-198.384 L 136.087,-198.116 L 135.672,-197.931 L 135.227,-197.837
 z
M 209.773,-197.837 L 209.328,-197.931 L 208.913,-198.116 L 208.545,-198.384 L 208.24,-198.722 L 208.013,-199.115
 L 207.873,-199.548 L 207.825,-200 L 207.873,-200.452 L 208.013,-200.885 L 208.24,-201.278 L 208.545,-201.616
 L 208.913,-201.884 L 209.328,-202.069 L 209.773,-202.163 L 210.227,-202.163 L 210.672,-202.069 L 211.087,-201.884
 L 211.455,-201.616 L 211.76,-201.278 L 211.987,-200.885 L 212.127,-200.452 L 212.175,-200 L 212.127,-199.548
 L 211.987,-199.115 L 211.76,-198.722 L 211.455,-198.384 L 211.087,-198.116 L 210.672,-197.931 L 210.227,-197.837
 z
M 404.773,-182.837 L 404.328,-182.931 L 403.913,-183.116 L 403.545,-183.384 L 403.24,-183.722 L 403.013,-184.115
 L 402.873,-184.548 L 402.825,-185 L 402.873,-185.452 L 403.013,-185.885 L 403.24,-186.278 L 403.545,-186.616
 L 403.913,-186.884 L 404.328,-187.069 L 404.773,-187.163 L 405.227,-187.163 L 405.672,-187.069 L 406.087,-186.884
 L 406.455,-186.616 L 406.76,-186.278 L 406.987,-185.885 L 407.127,-185.452 L 407.175,-185 L 407.127,-184.548
 L 406.987,-184.115 L 406.76,-183.722 L 406.455,-183.384 L 406.087,-183.116 L 405.672,-182.931 L 405.227,-182.837
 z
M 379.773,-157.837 L 379.328,-157.931 L 378.913,-158.116 L 378.545,-158.384 L 378.24,-158.722 L 378.013,-159.115
 L 377.873,-159.548 L 377.825,-160 L 377.873,-160.452 L 378.013,-160.885 L 378.24,-161.278 L 378.545,-161.616
 L 378.913,-161.884 L 379.328,-162.069 L 379.773,-162.163 L 380.227,-162.163 L 380.672,-162.069 L 381.087,-161.884
 L 381.455,-161.616 L 381.76,-161.278 L 381.987,-160.885 L 382.127,-160.452 L 382.175,-160 L 382.127,-159.548
 L 381.987,-159.115 L 381.76,-158.722 L 381.455,-158.384 L 381.087,-158.116 L 380.672,-157.931 L 380.227,-157.837
 z
M 209.773,-147.837 L 209.328,-147.931 L 208.913,-148.116 L 208.545,-148.384 L 208.24,-148.722 L 208.013,-149.115
 L 207.873,-149.548 L 207.825,-150 L 207.873,-150.452 L 208.013,-150.885 L 208.24,-151.278 L 208.545,-151.616
 L 208.913,-151.884 L 209.328,-152.069 L 209.773,-152.163 L 210.227,-152.163 L 210.672,-152.069 L 211.087,-151.884
 L 211.455,-151.616 L 211.76,-151.278 L 211.987,-150.885 L 212.127,-150.452 L 212.175,-150 L 212.127,-149.548
 L 211.987,-149.115 L 211.76,-148.722 L 211.455,-148.384 L 211.087,-148.116 L 210.672,-147.931 L 210.227,-147.837
 z
M 84.7726,-147.837 L 84.3279,-147.931 L 83.9125,-148.116 L 83.5446,-148.384 L 83.2404,-148.722 L 83.013,-149.115
 L 82.8725,-149.548 L 82.825,-150 L 82.8725,-150.452 L 83.013,-150.885 L 83.2404,-151.278 L 83.5446,-151.616
 L 83.9125,-151.884 L 84.3279,-152.069 L 84.7726,-152.163 L 85.2273,-152.163 L 85.6721,-152.069 L 86.0875,-151.884
 L 86.4554,-151.616 L 86.7596,-151.278 L 86.987,-150.885 L 87.1275,-150.452 L 87.175,-150 L 87.1275,-149.548
 L 86.987,-149.115 L 86.7596,-148.722 L 86.4554,-148.384 L 86.0875,-148.116 L 85.6721,-147.931 L 85.2273,-147.837
 z
M 159.773,-147.837 L 159.328,-147.931 L 158.913,-148.116 L 158.545,-148.384 L 158.24,-148.722 L 158.013,-149.115
 L 157.873,-149.548 L 157.825,-150 L 157.873,-150.452 L 158.013,-150.885 L 158.24,-151.278 L 158.545,-151.616
 L 158.913,-151.884 L 159.328,-152.069 L 159.773,-152.163 L 160.227,-152.163 L 160.672,-152.069 L 161.087,-151.884
 L 161.455,-151.616 L 161.76,-151.278 L 161.987,-150.885 L 162.127,-150.452 L 162.175,-150 L 162.127,-149.548
 L 161.987,-149.115 L 161.76,-148.722 L 161.455,-148.384 L 161.087,-148.116 L 160.672,-147.931 L 160.227,-147.837
 z
M 184.773,-147.837 L 184.328,-147.931 L 183.913,-148.116 L 183.545,-148.384 L 183.24,-148.722 L 183.013,-149.115
 L 182.873,-149.548 L 182.825,-150 L 182.873,-150.452 L 183.013,-150.885 L 183.24,-151.278 L 183.545,-151.616
 L 183.913,-151.884 L 184.328,-152.069 L 184.773,-152.163 L 185.227,-152.163 L 185.672,-152.069 L 186.087,-151.884
 L 186.455,-151.616 L 186.76,-151.278 L 186.987,-150.885 L 187.127,-150.452 L 187.175,-150 L 187.127,-149.548
 L 186.987,-149.115 L 186.76,-148.722 L 186.455,-148.384 L 186.087,-148.116 L 185.672,-147.931 L 185.227,-147.837
 z
M 59.7726,-147.837 L 59.3279,-147.931 L 58.9125,-148.116 L 58.5446,-148.384 L 58.2404,-148.722 L 58.013,-149.115
 L 57.8725,-149.548 L 57.825,-150 L 57.8725,-150.452 L 58.013,-150.885 L 58.2404,-151.278 L 58.5446,-151.616
 L 58.9125,-151.884 L 59.3279,-152.069 L 59.7726,-152.163 L 60.2273,-152.163 L 60.6721,-152.069 L 61.0875,-151.884
 L 61.4554,-151.616 L 61.7596,-151.278 L 61.987,-150.885 L 62.1275,-150.452 L 62.175,-150 L 62.1275,-149.548
 L 61.987,-149.115 L 61.7596,-148.722 L 61.4554,-148.384 L 61.0875,-148.116 L 60.6721,-147.931 L 60.2273,-147.837
 z
M 109.773,-147.837 L 109.328,-147.931 L 108.912,-148.116 L 108.545,-148.384 L 108.24,-148.722 L 108.013,-149.115
 L 107.873,-149.548 L 107.825,-150 L 107.873,-150.452 L 108.013,-150.885 L 108.24,-151.278 L 108.545,-151.616
 L 108.912,-151.884 L 109.328,-152.069 L 109.773,-152.163 L 110.227,-152.163 L 110.672,-152.069 L 111.087,-151.884
 L 111.455,-151.616 L 111.76,-151.278 L 111.987,-150.885 L 112.127,-150.452 L 112.175,-150 L 112.127,-149.548
 L 111.987,-149.115 L 111.76,-148.722 L 111.455,-148.384 L 111.087,-148.116 L 110.672,-147.931 L 110.227,-147.837
 z
M 134.773,-147.837 L 134.328,-147.931 L 133.913,-148.116 L 133.545,-148.384 L 133.24,-148.722 L 133.013,-149.115
 L 132.873,-149.548 L 132.825,-150 L 132.873,-150.452 L 133.013,-150.885 L 133.24,-151.278 L 133.545,-151.616
 L 133.913,-151.884 L 134.328,-152.069 L 134.773,-152.163 L 135.227,-152.163 L 135.672,-152.069 L 136.087,-151.884
 L 136.455,-151.616 L 136.76,-151.278 L 136.987,-150.885 L 137.127,-150.452 L 137.175,-150 L 137.127,-149.548
 L 136.987,-149.115 L 136.76,-148.722 L 136.455,-148.384 L 136.087,-148.116 L 135.672,-147.931 L 135.227,-147.837
 z
M 234.773,-147.837 L 234.328,-147.931 L 233.913,-148.116 L 233.545,-148.384 L 233.24,-148.722 L 233.013,-149.115
 L 232.873,-149.548 L 232.825,-150 L 232.873,-150.452 L 233.013,-150.885 L 233.24,-151.278 L 233.545,-151.616
 L 233.913,-151.884 L 234.328,-152.069 L 234.773,-152.163 L 235.227,-152.163 L 235.672,-152.069 L 236.087,-151.884
 L 236.455,-151.616 L 236.76,-151.278 L 236.987,-150.885 L 237.127,-150.452 L 237.175,-150 L 237.127,-149.548
 L 236.987,-149.115 L 236.76,-148.722 L 236.455,-148.384 L 236.087,-148.116 L 235.672,-147.931 L 235.227,-147.837
 z
M 34.7726,-147.837 L 34.3279,-147.931 L 33.9125,-148.116 L 33.5446,-148.384 L 33.2404,-148.722 L 33.013,-149.115
 L 32.8725,-149.548 L 32.825,-150 L 32.8725,-150.452 L 33.013,-150.885 L 33.2404,-151.278 L 33.5446,-151.616
 L 33.9125,-151.884 L 34.3279,-152.069 L 34.7726,-152.163 L 35.2273,-152.163 L 35.6721,-152.069 L 36.0875,-151.884
 L 36.4554,-151.616 L 36.7596,-151.278 L 36.987,-150.885 L 37.1275,-150.452 L 37.175,-150 L 37.1275,-149.548
 L 36.987,-149.115 L 36.7596,-148.722 L 36.4554,-148.384 L 36.0875,-148.116 L 35.6721,-147.931 L 35.2273,-147.837
 z
M 404.773,-132.837 L 404.328,-132.931 L 403.913,-133.116 L 403.545,-133.384 L 403.24,-133.722 L 403.013,-134.115
 L 402.873,-134.548 L 402.825,-135 L 402.873,-135.452 L 403.013,-135.885 L 403.24,-136.278 L 403.545,-136.616
 L 403.913,-136.884 L 404.328,-137.069 L 404.773,-137.163 L 405.227,-137.163 L 405.672,-137.069 L 406.087,-136.884
 L 406.455,-136.616 L 406.76,-136.278 L 406.987,-135.885 L 407.127,-135.452 L 407.175,-135 L 407.127,-134.548
 L 406.987,-134.115 L 406.76,-133.722 L 406.455,-133.384 L 406.087,-133.116 L 405.672,-132.931 L 405.227,-132.837
 z
M 404.773,-107.837 L 404.328,-107.931 L 403.913,-108.116 L 403.545,-108.384 L 403.24,-108.722 L 403.013,-109.115
 L 402.873,-109.548 L 402.825,-110 L 402.873,-110.452 L 403.013,-110.885 L 403.24,-111.278 L 403.545,-111.616
 L 403.913,-111.884 L 404.328,-112.069 L 404.773,-112.163 L 405.227,-112.163 L 405.672,-112.069 L 406.087,-111.884
 L 406.455,-111.616 L 406.76,-111.278 L 406.987,-110.885 L 407.127,-110.452 L 407.175,-110 L 407.127,-109.548
 L 406.987,-109.115 L 406.76,-108.722 L 406.455,-108.384 L 406.087,-108.116 L 405.672,-107.931 L 405.227,-107.837
 z
M 359.773,-77.8369 L 359.328,-77.9314 L 358.913,-78.1164 L 358.545,-78.3837 L 358.24,-78.7216 L 358.013,-79.1153
 L 357.873,-79.5478 L 357.825,-80 L 357.873,-80.4522 L 358.013,-80.8846 L 358.24,-81.2784 L 358.545,-81.6163
 L 358.913,-81.8836 L 359.328,-82.0685 L 359.773,-82.1631 L 360.227,-82.1631 L 360.672,-82.0685 L 361.087,-81.8836
 L 361.455,-81.6163 L 361.76,-81.2784 L 361.987,-80.8846 L 362.127,-80.4522 L 362.175,-80 L 362.127,-79.5478
 L 361.987,-79.1153 L 361.76,-78.7216 L 361.455,-78.3837 L 361.087,-78.1164 L 360.672,-77.9314 L 360.227,-77.8369
 z
M 334.773,-77.8369 L 334.328,-77.9314 L 333.913,-78.1164 L 333.545,-78.3837 L 333.24,-78.7216 L 333.013,-79.1153
 L 332.873,-79.5478 L 332.825,-80 L 332.873,-80.4522 L 333.013,-80.8846 L 333.24,-81.2784 L 333.545,-81.6163
 L 333.913,-81.8836 L 334.328,-82.0685 L 334.773,-82.1631 L 335.227,-82.1631 L 335.672,-82.0685 L 336.087,-81.8836
 L 336.455,-81.6163 L 336.76,-81.2784 L 336.987,-80.8846 L 337.127,-80.4522 L 337.175,-80 L 337.127,-79.5478
 L 336.987,-79.1153 L 336.76,-78.7216 L 336.455,-78.3837 L 336.087,-78.1164 L 335.672,-77.9314 L 335.227,-77.8369
 z
M 309.773,-77.8369 L 309.328,-77.9314 L 308.913,-78.1164 L 308.545,-78.3837 L 308.24,-78.7216 L 308.013,-79.1153
 L 307.873,-79.5478 L 307.825,-80 L 307.873,-80.4522 L 308.013,-80.8846 L 308.24,-81.2784 L 308.545,-81.6163
 L 308.913,-81.8836 L 309.328,-82.0685 L 309.773,-82.1631 L 310.227,-82.1631 L 310.672,-82.0685 L 311.087,-81.8836
 L 311.455,-81.6163 L 311.76,-81.2784 L 311.987,-80.8846 L 312.127,-80.4522 L 312.175,-80 L 312.127,-79.5478
 L 311.987,-79.1153 L 311.76,-78.7216 L 311.455,-78.3837 L 311.087,-78.1164 L 310.672,-77.9314 L 310.227,-77.8369
 z
M 209.773,-77.8369 L 209.328,-77.9314 L 208.913,-78.1164 L 208.545,-78.3837 L 208.24,-78.7216 L 208.013,-79.1153
 L 207.873,-79.5478 L 207.825,-80 L 207.873,-80.4522 L 208.013,-80.8846 L 208.24,-81.2784 L 208.545,-81.6163
 L 208.913,-81.8836 L 209.328,-82.0685 L 209.773,-82.1631 L 210.227,-82.1631 L 210.672,-82.0685 L 211.087,-81.8836
 L 211.455,-81.6163 L 211.76,-81.2784 L 211.987,-80.8846 L 212.127,-80.4522 L 212.175,-80 L 212.127,-79.5478
 L 211.987,-79.1153 L 211.76,-78.7216 L 211.455,-78.3837 L 211.087,-78.1164 L 210.672,-77.9314 L 210.227,-77.8369
 z
M 284.773,-77.8369 L 284.328,-77.9314 L 283.913,-78.1164 L 283.545,-78.3837 L 283.24,-78.7216 L 283.013,-79.1153
 L 282.873,-79.5478 L 282.825,-80 L 282.873,-80.4522 L 283.013,-80.8846 L 283.24,-81.2784 L 283.545,-81.6163
 L 283.913,-81.8836 L 284.328,-82.0685 L 284.773,-82.1631 L 285.227,-82.1631 L 285.672,-82.0685 L 286.087,-81.8836
 L 286.455,-81.6163 L 286.76,-81.2784 L 286.987,-80.8846 L 287.127,-80.4522 L 287.175,-80 L 287.127,-79.5478
 L 286.987,-79.1153 L 286.76,-78.7216 L 286.455,-78.3837 L 286.087,-78.1164 L 285.672,-77.9314 L 285.227,-77.8369
 z
M 384.773,-77.8369 L 384.328,-77.9314 L 383.913,-78.1164 L 383.545,-78.3837 L 383.24,-78.7216 L 383.013,-79.1153
 L 382.873,-79.5478 L 382.825,-80 L 382.873,-80.4522 L 383.013,-80.8846 L 383.24,-81.2784 L 383.545,-81.6163
 L 383.913,-81.8836 L 384.328,-82.0685 L 384.773,-82.1631 L 385.227,-82.1631 L 385.672,-82.0685 L 386.087,-81.8836
 L 386.455,-81.6163 L 386.76,-81.2784 L 386.987,-80.8846 L 387.127,-80.4522 L 387.175,-80 L 387.127,-79.5478
 L 386.987,-79.1153 L 386.76,-78.7216 L 386.455,-78.3837 L 386.087,-78.1164 L 385.672,-77.9314 L 385.227,-77.8369
 z
M 234.773,-77.8369 L 234.328,-77.9314 L 233.913,-78.1164 L 233.545,-78.3837 L 233.24,-78.7216 L 233.013,-79.1153
 L 232.873,-79.5478 L 232.825,-80 L 232.873,-80.4522 L 233.013,-80.8846 L 233.24,-81.2784 L 233.545,-81.6163
 L 233.913,-81.8836 L 234.328,-82.0685 L 234.773,-82.1631 L 235.227,-82.1631 L 235.672,-82.0685 L 236.087,-81.8836
 L 236.455,-81.6163 L 236.76,-81.2784 L 236.987,-80.8846 L 237.127,-80.4522 L 237.175,-80 L 237.127,-79.5478
 L 236.987,-79.1153 L 236.76,-78.7216 L 236.455,-78.3837 L 236.087,-78.1164 L 235.672,-77.9314 L 235.227,-77.8369
 z
M 159.773,-77.8369 L 159.328,-77.9314 L 158.913,-78.1164 L 158.545,-78.3837 L 158.24,-78.7216 L 158.013,-79.1153
 L 157.873,-79.5478 L 157.825,-80 L 157.873,-80.4522 L 158.013,-80.8846 L 158.24,-81.2784 L 158.545,-81.6163
 L 158.913,-81.8836 L 159.328,-82.0685 L 159.773,-82.1631 L 160.227,-82.1631 L 160.672,-82.0685 L 161.087,-81.8836
 L 161.455,-81.6163 L 161.76,-81.2784 L 161.987,-80.8846 L 162.127,-80.4522 L 162.175,-80 L 162.127,-79.5478
 L 161.987,-79.1153 L 161.76,-78.7216 L 161.455,-78.3837 L 161.087,-78.1164 L 160.672,-77.9314 L 160.227,-77.8369
 z
M 259.773,-77.8369 L 259.328,-77.9314 L 258.913,-78.1164 L 258.545,-78.3837 L 258.24,-78.7216 L 258.013,-79.1153
 L 257.873,-79.5478 L 257.825,-80 L 257.873,-80.4522 L 258.013,-80.8846 L 258.24,-81.2784 L 258.545,-81.6163
 L 258.913,-81.8836 L 259.328,-82.0685 L 259.773,-82.1631 L 260.227,-82.1631 L 260.672,-82.0685 L 261.087,-81.8836
 L 261.455,-81.6163 L 261.76,-81.2784 L 261.987,-80.8846 L 262.127,-80.4522 L 262.175,-80 L 262.127,-79.5478
 L 261.987,-79.1153 L 261.76,-78.7216 L 261.455,-78.3837 L 261.087,-78.1164 L 260.672,-77.9314 L 260.227,-77.8369
 z
M 34.7726,-77.8369 L 34.3279,-77.9314 L 33.9125,-78.1164 L 33.5446,-78.3837 L 33.2404,-78.7216 L 33.013,-79.1153
 L 32.8725,-79.5478 L 32.825,-80 L 32.8725,-80.4522 L 33.013,-80.8846 L 33.2404,-81.2784 L 33.5446,-81.6163
 L 33.9125,-81.8836 L 34.3279,-82.0685 L 34.7726,-82.1631 L 35.2273,-82.1631 L 35.6721,-82.0685 L 36.0875,-81.8836
 L 36.4554,-81.6163 L 36.7596,-81.2784 L 36.987,-80.8846 L 37.1275,-80.4522 L 37.175,-80 L 37.1275,-79.5478
 L 36.987,-79.1153 L 36.7596,-78.7216 L 36.4554,-78.3837 L 36.0875,-78.1164 L 35.6721,-77.9314 L 35.2273,-77.8369
 z
M 59.7726,-77.8369 L 59.3279,-77.9314 L 58.9125,-78.1164 L 58.5446,-78.3837 L 58.2404,-78.7216 L 58.013,-79.1153
 L 57.8725,-79.5478 L 57.825,-80 L 57.8725,-80.4522 L 58.013,-80.8846 L 58.2404,-81.2784 L 58.5446,-81.6163
 L 58.9125,-81.8836 L 59.3279,-82.0685 L 59.7726,-82.1631 L 60.2273,-82.1631 L 60.6721,-82.0685 L 61.0875,-81.8836
 L 61.4554,-81.6163 L 61.7596,-81.2784 L 61.987,-80.8846 L 62.1275,-80.4522 L 62.175,-80 L 62.1275,-79.5478
 L 61.987,-79.1153 L 61.7596,-78.7216 L 61.4554,-78.3837 L 61.0875,-78.1164 L 60.6721,-77.9314 L 60.2273,-77.8369
 z
M 184.773,-77.8369 L 184.328,-77.9314 L 183.913,-78.1164 L 183.545,-78.3837 L 183.24,-78.7216 L 183.013,-79.1153
 L 182.873,-79.5478 L 182.825,-80 L 182.873,-80.4522 L 183.013,-80.8846 L 183.24,-81.2784 L 183.545,-81.6163
 L 183.913,-81.8836 L 184.328,-82.0685 L 184.773,-82.1631 L 185.227,-82.1631 L 185.672,-82.0685 L 186.087,-81.8836
 L 186.455,-81.6163 L 186.76,-81.2784 L 186.987,-80.8846 L 187.127,-80.4522 L 187.175,-80 L 187.127,-79.5478
 L 186.987,-79.1153 L 186.76,-78.7216 L 186.455,-78.3837 L 186.087,-78.1164 L 185.672,-77.9314 L 185.227,-77.8369
 z
M 34.7726,-37.8369 L 34.3279,-37.9314 L 33.9125,-38.1164 L 33.5446,-38.3837 L 33.2404,-38.7216 L 33.013,-39.1153
 L 32.8725,-39.5478 L 32.825,-40 L 32.8725,-40.4522 L 33.013,-40.8846 L 33.2404,-41.2784 L 33.5446,-41.6163
 L 33.9125,-41.8836 L 34.3279,-42.0685 L 34.7726,-42.1631 L 35.2273,-42.1631 L 35.6721,-42.0685 L 36.0875,-41.8836
 L 36.4554,-41.6163 L 36.7596,-41.2784 L 36.987,-40.8846 L 37.1275,-40.4522 L 37.175,-40 L 37.1275,-39.5478
 L 36.987,-39.1153 L 36.7596,-38.7216 L 36.4554,-38.3837 L 36.0875,-38.1164 L 35.6721,-37.9314 L 35.2273,-37.8369
 z
M 404.773,-37.8369 L 404.328,-37.9314 L 403.913,-38.1164 L 403.545,-38.3837 L 403.24,-38.7216 L 403.013,-39.1153
 L 402.873,-39.5478 L 402.825,-40 L 402.873,-40.4522 L 403.013,-40.8846 L 403.24,-41.2784 L 403.545,-41.6163
 L 403.913,-41.8836 L 404.328,-42.0685 L 404.773,-42.1631 L 405.227,-42.1631 L 405.672,-42.0685 L 406.087,-41.8836
 L 406.455,-41.6163 L 406.76,-41.2784 L 406.987,-40.8846 L 407.127,-40.4522 L 407.175,-40 L 407.127,-39.5478
 L 406.987,-39.1153 L 406.76,-38.7216 L 406.455,-38.3837 L 406.087,-38.1164 L 405.672,-37.9314 L 405.227,-37.8369
 z
" stroke="black" fill="lightgray" stroke-width="0.5"/></svg>
