  0
SECTION
  2
HEADER
  9
$ACADVER
  1
AC1014
  9
$HANDSEED
  5
FFFF
  9
$MEASUREMENT
 70
     1
  0
ENDSEC
  0
SECTION
  2
TABLES
  0
TABLE
  2
VPORT
  5
8
330
0
100
AcDbSymbolTable
 70
     4
  0
VPORT
  5
2E
330
8
100
AcDbSymbolTableRecord
100
AcDbViewportTableRecord
  2
*ACTIVE
 70
     0
 10
0.0
 20
0.0
 11
1.0
 21
1.0
 12
210.0
 22
148.5
 13
0.0
 23
0.0
 14
10.0
 24
10.0
 15
10.0
 25
10.0
 16
0.0
 26
0.0
 36
1.0
 17
0.0
 27
0.0
 37
0.0
 40
341.0
 41
1.24
 42
50.0
 43
0.0
 44
0.0
 50
0.0
 51
0.0
 71
     0
 72
   100
 73
     1
 74
     3
 75
     0
 76
     0
 77
     0
 78
     0
  0
ENDTAB
  0
TABLE
  2
LTYPE
  5
5
330
0
100
AcDbSymbolTable
 70
     1
  0
LTYPE
  5
14
330
5
100
AcDbSymbolTableRecord
100
AcDbLinetypeTableRecord
  2
BYBLOCK
 70
     0
  3

 72
    65
 73
     0
 40
0.0
  0
LTYPE
  5
15
330
5
100
AcDbSymbolTableRecord
100
AcDbLinetypeTableRecord
  2
BYLAYER
 70
     0
  3

 72
    65
 73
     0
 40
0.0
  0
LTYPE
  5
16
330
5
100
AcDbSymbolTableRecord
100
AcDbLinetypeTableRecord
  2
CONTINUOUS
 70
     0
  3
Solid line
 72
    65
 73
     0
 40
0.0
  0
ENDTAB
  0
TABLE
  2
LAYER
  5
2
100
AcDbSymbolTable
 70
1
  0
LAYER
  5
50
100
AcDbSymbolTableRecord
100
AcDbLayerTableRecord
  2
0
 70
0
  6
CONTINUOUS
  0
ENDTAB
  0
TABLE
  2
STYLE
  5
3
330
0
100
AcDbSymbolTable
 70
     1
  0
STYLE
  5
11
330
3
100
AcDbSymbolTableRecord
100
AcDbTextStyleTableRecord
  2
STANDARD
 70
     0
 40
0.0
 41
1.0
 50
0.0
 71
     0
 42
2.5
  3
txt
  4

  0
ENDTAB
  0
TABLE
  2
VIEW
  5
6
330
0
100
AcDbSymbolTable
 70
     0
  0
ENDTAB
  0
TABLE
  2
UCS
  5
7
330
0
100
AcDbSymbolTable
 70
     0
  0
ENDTAB
  0
TABLE
  2
APPID
  5
9
330
0
100
AcDbSymbolTable
 70
     2
  0
APPID
  5
12
330
9
100
AcDbSymbolTableRecord
100
AcDbRegAppTableRecord
  2
ACAD
 70
     0
  0
ENDTAB
  0
TABLE
  2
DIMSTYLE
  5
A
330
0
100
AcDbSymbolTable
 70
     1
  0
DIMSTYLE
105
27
330
A
100
AcDbSymbolTableRecord
100
AcDbDimStyleTableRecord
  2
ISO-25
 70
     0
  3

  4

  5

  6

  7

 40
1.0
 41
2.5
 42
0.625
 43
3.75
 44
1.25
 45
0.0
 46
0.0
 47
0.0
 48
0.0
140
2.5
141
2.5
142
0.0
143
0.03937007874016
144
1.0
145
0.0
146
1.0
147
0.625
 71
     0
 72
     0
 73
     0
 74
     0
 75
     0
 76
     0
 77
     1
 78
     8
170
     0
171
     3
172
     1
173
     0
174
     0
175
     0
176
     0
177
     0
178
     0
270
     2
271
     2
272
     2
273
     2
274
     3
340
11
275
     0
280
     0
281
     0
282
     0
283
     0
284
     8
285
     0
286
     0
287
     3
288
     0
  0
ENDTAB
  0
TABLE
  2
BLOCK_RECORD
  5
1
330
0
100
AcDbSymbolTable
 70
     1
  0
BLOCK_RECORD
  5
1F
330
1
100
AcDbSymbolTableRecord
100
AcDbBlockTableRecord
  2
*MODEL_SPACE
  0
BLOCK_RECORD
  5
1B
330
1
100
AcDbSymbolTableRecord
100
AcDbBlockTableRecord
  2
*PAPER_SPACE
  0
ENDTAB
  0
ENDSEC
  0
SECTION
  2
BLOCKS
  0
BLOCK
  5
20
330
1F
100
AcDbEntity
  8
0
100
AcDbBlockBegin
  2
*MODEL_SPACE
 70
     0
 10
0.0
 20
0.0
 30
0.0
  3
*MODEL_SPACE
  1

  0
ENDBLK
  5
21
330
1F
100
AcDbEntity
  8
0
100
AcDbBlockEnd
  0
BLOCK
  5
1C
330
1B
100
AcDbEntity
 67
     1
  8
0
100
AcDbBlockBegin
  2
*PAPER_SPACE
  1

  0
ENDBLK
  5
1D
330
1B
100
AcDbEntity
 67
     1
  8
0
100
AcDbBlockEnd
  0
ENDSEC
  0
SECTION
  2
ENTITIES
  0
LWPOLYLINE
  5
100
100
AcDbEntity
  8
0
 62
7
100
AcDbPolyline
 90
4
 70
1
 10
410.432303
 20
60.632302
 30
0.0
 10
0.132292
 20
60.632302
 30
0.0
 10
0.132292
 20
0.132288
 30
0.0
 10
410.432303
 20
0.132288
 30
0.0
  0
LWPOLYLINE
  5
101
100
AcDbEntity
  8
0
 62
7
100
AcDbPolyline
 90
30
 70
1
 10
343.912296
 20
46.543303
 30
0.0
 10
343.483300
 20
46.635301
 30
0.0
 10
343.082298
 20
46.813302
 30
0.0
 10
342.727280
 20
47.071303
 30
0.0
 10
342.433301
 20
47.398301
 30
0.0
 10
342.214279
 20
47.778301
 30
0.0
 10
342.078284
 20
48.195303
 30
0.0
 10
342.032299
 20
48.632302
 30
0.0
 10
342.078284
 20
49.069301
 30
0.0
 10
342.214279
 20
49.486303
 30
0.0
 10
342.433301
 20
49.866303
 30
0.0
 10
342.727280
 20
50.193301
 30
0.0
 10
343.082298
 20
50.451302
 30
0.0
 10
343.483300
 20
50.629300
 30
0.0
 10
343.912296
 20
50.721301
 30
0.0
 10
344.352298
 20
50.721301
 30
0.0
 10
344.781293
 20
50.629300
 30
0.0
 10
345.182296
 20
50.451302
 30
0.0
 10
345.537287
 20
50.193301
 30
0.0
 10
345.831292
 20
49.866303
 30
0.0
 10
346.050288
 20
49.486303
 30
0.0
 10
346.186284
 20
49.069301
 30
0.0
 10
346.232295
 20
48.632302
 30
0.0
 10
346.186284
 20
48.195303
 30
0.0
 10
346.050288
 20
47.778301
 30
0.0
 10
345.831292
 20
47.398301
 30
0.0
 10
345.537287
 20
47.071303
 30
0.0
 10
345.182296
 20
46.813302
 30
0.0
 10
344.781293
 20
46.635301
 30
0.0
 10
344.352298
 20
46.543303
 30
0.0
  0
LWPOLYLINE
  5
102
100
AcDbEntity
  8
0
 62
7
100
AcDbPolyline
 90
4
 70
1
 10
320.132287
 20
15.132311
 30
0.0
 10
320.132287
 20
43.132302
 30
0.0
 10
368.132281
 20
43.132302
 30
0.0
 10
368.132281
 20
15.132311
 30
0.0
  0
LWPOLYLINE
  5
103
100
AcDbEntity
  8
0
 62
7
100
AcDbPolyline
 90
4
 70
1
 10
260.132293
 20
20.132301
 30
0.0
 10
260.132293
 20
32.132293
 30
0.0
 10
273.132285
 20
32.132293
 30
0.0
 10
273.132285
 20
20.132301
 30
0.0
  0
LWPOLYLINE
  5
104
100
AcDbEntity
  8
0
 62
7
100
AcDbPolyline
 90
4
 70
1
 10
200.132291
 20
20.132301
 30
0.0
 10
200.132291
 20
32.132293
 30
0.0
 10
213.132292
 20
32.132293
 30
0.0
 10
213.132292
 20
20.132301
 30
0.0
  0
LWPOLYLINE
  5
105
100
AcDbEntity
  8
0
 62
7
100
AcDbPolyline
 90
4
 70
1
 10
140.132292
 20
20.132301
 30
0.0
 10
140.132292
 20
32.132293
 30
0.0
 10
153.132293
 20
32.132293
 30
0.0
 10
153.132293
 20
20.132301
 30
0.0
  0
LWPOLYLINE
  5
106
100
AcDbEntity
  8
0
 62
7
100
AcDbPolyline
 90
4
 70
1
 10
80.132293
 20
20.132301
 30
0.0
 10
80.132293
 20
32.132293
 30
0.0
 10
93.132291
 20
32.132293
 30
0.0
 10
93.132291
 20
20.132301
 30
0.0
  0
LWPOLYLINE
  5
107
100
AcDbEntity
  8
0
 62
7
100
AcDbPolyline
 90
30
 70
1
 10
100.689291
 20
24.292291
 30
0.0
 10
100.310291
 20
24.373307
 30
0.0
 10
99.957292
 20
24.530311
 30
0.0
 10
99.644293
 20
24.757297
 30
0.0
 10
99.385292
 20
25.045296
 30
0.0
 10
99.192292
 20
25.380311
 30
0.0
 10
99.072293
 20
25.747288
 30
0.0
 10
99.032293
 20
26.132310
 30
0.0
 10
99.072293
 20
26.517305
 30
0.0
 10
99.192292
 20
26.884309
 30
0.0
 10
99.385292
 20
27.219298
 30
0.0
 10
99.644293
 20
27.507296
 30
0.0
 10
99.957292
 20
27.734309
 30
0.0
 10
100.310291
 20
27.891313
 30
0.0
 10
100.689291
 20
27.972302
 30
0.0
 10
101.075292
 20
27.972302
 30
0.0
 10
101.454291
 20
27.891313
 30
0.0
 10
101.807293
 20
27.734309
 30
0.0
 10
102.120293
 20
27.507296
 30
0.0
 10
102.379291
 20
27.219298
 30
0.0
 10
102.572291
 20
26.884309
 30
0.0
 10
102.692293
 20
26.517305
 30
0.0
 10
102.732292
 20
26.132310
 30
0.0
 10
102.692293
 20
25.747288
 30
0.0
 10
102.572291
 20
25.380311
 30
0.0
 10
102.379291
 20
25.045296
 30
0.0
 10
102.120293
 20
24.757297
 30
0.0
 10
101.807293
 20
24.530311
 30
0.0
 10
101.454291
 20
24.373307
 30
0.0
 10
101.075292
 20
24.292291
 30
0.0
  0
LWPOLYLINE
  5
108
100
AcDbEntity
  8
0
 62
7
100
AcDbPolyline
 90
30
 70
1
 10
252.189292
 20
24.292291
 30
0.0
 10
251.810292
 20
24.373307
 30
0.0
 10
251.457291
 20
24.530311
 30
0.0
 10
251.144291
 20
24.757297
 30
0.0
 10
250.885291
 20
25.045296
 30
0.0
 10
250.692293
 20
25.380311
 30
0.0
 10
250.572291
 20
25.747288
 30
0.0
 10
250.532291
 20
26.132310
 30
0.0
 10
250.572291
 20
26.517305
 30
0.0
 10
250.692293
 20
26.884309
 30
0.0
 10
250.885291
 20
27.219298
 30
0.0
 10
251.144291
 20
27.507296
 30
0.0
 10
251.457291
 20
27.734309
 30
0.0
 10
251.810292
 20
27.891313
 30
0.0
 10
252.189292
 20
27.972302
 30
0.0
 10
252.575293
 20
27.972302
 30
0.0
 10
252.954293
 20
27.891313
 30
0.0
 10
253.307292
 20
27.734309
 30
0.0
 10
253.620291
 20
27.507296
 30
0.0
 10
253.879292
 20
27.219298
 30
0.0
 10
254.072292
 20
26.884309
 30
0.0
 10
254.192291
 20
26.517305
 30
0.0
 10
254.232291
 20
26.132310
 30
0.0
 10
254.192291
 20
25.747288
 30
0.0
 10
254.072292
 20
25.380311
 30
0.0
 10
253.879292
 20
25.045296
 30
0.0
 10
253.620291
 20
24.757297
 30
0.0
 10
253.307292
 20
24.530311
 30
0.0
 10
252.954293
 20
24.373307
 30
0.0
 10
252.575293
 20
24.292291
 30
0.0
  0
LWPOLYLINE
  5
109
100
AcDbEntity
  8
0
 62
7
100
AcDbPolyline
 90
30
 70
1
 10
192.189290
 20
24.292291
 30
0.0
 10
191.810291
 20
24.373307
 30
0.0
 10
191.457292
 20
24.530311
 30
0.0
 10
191.144292
 20
24.757297
 30
0.0
 10
190.885292
 20
25.045296
 30
0.0
 10
190.692291
 20
25.380311
 30
0.0
 10
190.572292
 20
25.747288
 30
0.0
 10
190.532292
 20
26.132310
 30
0.0
 10
190.572292
 20
26.517305
 30
0.0
 10
190.692291
 20
26.884309
 30
0.0
 10
190.885292
 20
27.219298
 30
0.0
 10
191.144292
 20
27.507296
 30
0.0
 10
191.457292
 20
27.734309
 30
0.0
 10
191.810291
 20
27.891313
 30
0.0
 10
192.189290
 20
27.972302
 30
0.0
 10
192.575291
 20
27.972302
 30
0.0
 10
192.954291
 20
27.891313
 30
0.0
 10
193.307293
 20
27.734309
 30
0.0
 10
193.620292
 20
27.507296
 30
0.0
 10
193.879293
 20
27.219298
 30
0.0
 10
194.072290
 20
26.884309
 30
0.0
 10
194.192292
 20
26.517305
 30
0.0
 10
194.232292
 20
26.132310
 30
0.0
 10
194.192292
 20
25.747288
 30
0.0
 10
194.072290
 20
25.380311
 30
0.0
 10
193.879293
 20
25.045296
 30
0.0
 10
193.620292
 20
24.757297
 30
0.0
 10
193.307293
 20
24.530311
 30
0.0
 10
192.954291
 20
24.373307
 30
0.0
 10
192.575291
 20
24.292291
 30
0.0
  0
LWPOLYLINE
  5
10a
100
AcDbEntity
  8
0
 62
7
100
AcDbPolyline
 90
30
 70
1
 10
160.689293
 20
24.292291
 30
0.0
 10
160.310293
 20
24.373307
 30
0.0
 10
159.957291
 20
24.530311
 30
0.0
 10
159.644292
 20
24.757297
 30
0.0
 10
159.385291
 20
25.045296
 30
0.0
 10
159.192291
 20
25.380311
 30
0.0
 10
159.072292
 20
25.747288
 30
0.0
 10
159.032292
 20
26.132310
 30
0.0
 10
159.072292
 20
26.517305
 30
0.0
 10
159.192291
 20
26.884309
 30
0.0
 10
159.385291
 20
27.219298
 30
0.0
 10
159.644292
 20
27.507296
 30
0.0
 10
159.957291
 20
27.734309
 30
0.0
 10
160.310293
 20
27.891313
 30
0.0
 10
160.689293
 20
27.972302
 30
0.0
 10
161.075291
 20
27.972302
 30
0.0
 10
161.454293
 20
27.891313
 30
0.0
 10
161.807292
 20
27.734309
 30
0.0
 10
162.120292
 20
27.507296
 30
0.0
 10
162.379292
 20
27.219298
 30
0.0
 10
162.572293
 20
26.884309
 30
0.0
 10
162.692292
 20
26.517305
 30
0.0
 10
162.732291
 20
26.132310
 30
0.0
 10
162.692292
 20
25.747288
 30
0.0
 10
162.572293
 20
25.380311
 30
0.0
 10
162.379292
 20
25.045296
 30
0.0
 10
162.120292
 20
24.757297
 30
0.0
 10
161.807292
 20
24.530311
 30
0.0
 10
161.454293
 20
24.373307
 30
0.0
 10
161.075291
 20
24.292291
 30
0.0
  0
LWPOLYLINE
  5
10b
100
AcDbEntity
  8
0
 62
7
100
AcDbPolyline
 90
30
 70
1
 10
220.689292
 20
24.292291
 30
0.0
 10
220.310292
 20
24.373307
 30
0.0
 10
219.957293
 20
24.530311
 30
0.0
 10
219.644291
 20
24.757297
 30
0.0
 10
219.385293
 20
25.045296
 30
0.0
 10
219.192292
 20
25.380311
 30
0.0
 10
219.072291
 20
25.747288
 30
0.0
 10
219.032291
 20
26.132310
 30
0.0
 10
219.072291
 20
26.517305
 30
0.0
 10
219.192292
 20
26.884309
 30
0.0
 10
219.385293
 20
27.219298
 30
0.0
 10
219.644291
 20
27.507296
 30
0.0
 10
219.957293
 20
27.734309
 30
0.0
 10
220.310292
 20
27.891313
 30
0.0
 10
220.689292
 20
27.972302
 30
0.0
 10
221.075292
 20
27.972302
 30
0.0
 10
221.454292
 20
27.891313
 30
0.0
 10
221.807291
 20
27.734309
 30
0.0
 10
222.120291
 20
27.507296
 30
0.0
 10
222.379291
 20
27.219298
 30
0.0
 10
222.572292
 20
26.884309
 30
0.0
 10
222.692291
 20
26.517305
 30
0.0
 10
222.732293
 20
26.132310
 30
0.0
 10
222.692291
 20
25.747288
 30
0.0
 10
222.572292
 20
25.380311
 30
0.0
 10
222.379291
 20
25.045296
 30
0.0
 10
222.120291
 20
24.757297
 30
0.0
 10
221.807291
 20
24.530311
 30
0.0
 10
221.454292
 20
24.373307
 30
0.0
 10
221.075292
 20
24.292291
 30
0.0
  0
LWPOLYLINE
  5
10c
100
AcDbEntity
  8
0
 62
7
100
AcDbPolyline
 90
30
 70
1
 10
132.189291
 20
24.292291
 30
0.0
 10
131.810292
 20
24.373307
 30
0.0
 10
131.457293
 20
24.530311
 30
0.0
 10
131.144290
 20
24.757297
 30
0.0
 10
130.885292
 20
25.045296
 30
0.0
 10
130.692292
 20
25.380311
 30
0.0
 10
130.572290
 20
25.747288
 30
0.0
 10
130.532291
 20
26.132310
 30
0.0
 10
130.572290
 20
26.517305
 30
0.0
 10
130.692292
 20
26.884309
 30
0.0
 10
130.885292
 20
27.219298
 30
0.0
 10
131.144290
 20
27.507296
 30
0.0
 10
131.457293
 20
27.734309
 30
0.0
 10
131.810292
 20
27.891313
 30
0.0
 10
132.189291
 20
27.972302
 30
0.0
 10
132.575292
 20
27.972302
 30
0.0
 10
132.954292
 20
27.891313
 30
0.0
 10
133.307291
 20
27.734309
 30
0.0
 10
133.620290
 20
27.507296
 30
0.0
 10
133.879291
 20
27.219298
 30
0.0
 10
134.072291
 20
26.884309
 30
0.0
 10
134.192293
 20
26.517305
 30
0.0
 10
134.232293
 20
26.132310
 30
0.0
 10
134.192293
 20
25.747288
 30
0.0
 10
134.072291
 20
25.380311
 30
0.0
 10
133.879291
 20
25.045296
 30
0.0
 10
133.620290
 20
24.757297
 30
0.0
 10
133.307291
 20
24.530311
 30
0.0
 10
132.954292
 20
24.373307
 30
0.0
 10
132.575292
 20
24.292291
 30
0.0
  0
LWPOLYLINE
  5
10d
100
AcDbEntity
  8
0
 62
7
100
AcDbPolyline
 90
30
 70
1
 10
72.188893
 20
24.292291
 30
0.0
 10
71.810592
 20
24.373307
 30
0.0
 10
71.457291
 20
24.530311
 30
0.0
 10
71.144392
 20
24.757297
 30
0.0
 10
70.885592
 20
25.045296
 30
0.0
 10
70.692193
 20
25.380311
 30
0.0
 10
70.572691
 20
25.747288
 30
0.0
 10
70.532292
 20
26.132310
 30
0.0
 10
70.572691
 20
26.517305
 30
0.0
 10
70.692193
 20
26.884309
 30
0.0
 10
70.885592
 20
27.219298
 30
0.0
 10
71.144392
 20
27.507296
 30
0.0
 10
71.457291
 20
27.734309
 30
0.0
 10
71.810592
 20
27.891313
 30
0.0
 10
72.188893
 20
27.972302
 30
0.0
 10
72.575693
 20
27.972302
 30
0.0
 10
72.953991
 20
27.891313
 30
0.0
 10
73.307292
 20
27.734309
 30
0.0
 10
73.620191
 20
27.507296
 30
0.0
 10
73.878990
 20
27.219298
 30
0.0
 10
74.072393
 20
26.884309
 30
0.0
 10
74.191892
 20
26.517305
 30
0.0
 10
74.232291
 20
26.132310
 30
0.0
 10
74.191892
 20
25.747288
 30
0.0
 10
74.072393
 20
25.380311
 30
0.0
 10
73.878990
 20
25.045296
 30
0.0
 10
73.620191
 20
24.757297
 30
0.0
 10
73.307292
 20
24.530311
 30
0.0
 10
72.953991
 20
24.373307
 30
0.0
 10
72.575693
 20
24.292291
 30
0.0
  0
LWPOLYLINE
  5
10e
100
AcDbEntity
  8
0
 62
7
100
AcDbPolyline
 90
30
 70
1
 10
280.689288
 20
24.292291
 30
0.0
 10
280.310299
 20
24.373307
 30
0.0
 10
279.957292
 20
24.530311
 30
0.0
 10
279.644290
 20
24.757297
 30
0.0
 10
279.385289
 20
25.045296
 30
0.0
 10
279.192302
 20
25.380311
 30
0.0
 10
279.072287
 20
25.747288
 30
0.0
 10
279.032282
 20
26.132310
 30
0.0
 10
279.072287
 20
26.517305
 30
0.0
 10
279.192302
 20
26.884309
 30
0.0
 10
279.385289
 20
27.219298
 30
0.0
 10
279.644290
 20
27.507296
 30
0.0
 10
279.957292
 20
27.734309
 30
0.0
 10
280.310299
 20
27.891313
 30
0.0
 10
280.689288
 20
27.972302
 30
0.0
 10
281.075289
 20
27.972302
 30
0.0
 10
281.454304
 20
27.891313
 30
0.0
 10
281.807285
 20
27.734309
 30
0.0
 10
282.120287
 20
27.507296
 30
0.0
 10
282.379288
 20
27.219298
 30
0.0
 10
282.572301
 20
26.884309
 30
0.0
 10
282.692290
 20
26.517305
 30
0.0
 10
282.732295
 20
26.132310
 30
0.0
 10
282.692290
 20
25.747288
 30
0.0
 10
282.572301
 20
25.380311
 30
0.0
 10
282.379288
 20
25.045296
 30
0.0
 10
282.120287
 20
24.757297
 30
0.0
 10
281.807285
 20
24.530311
 30
0.0
 10
281.454304
 20
24.373307
 30
0.0
 10
281.075289
 20
24.292291
 30
0.0
  0
LWPOLYLINE
  5
10f
100
AcDbEntity
  8
0
 62
7
100
AcDbPolyline
 90
30
 70
1
 10
343.912296
 20
7.543293
 30
0.0
 10
343.483300
 20
7.635289
 30
0.0
 10
343.082298
 20
7.813301
 30
0.0
 10
342.727280
 20
8.071296
 30
0.0
 10
342.433301
 20
8.398294
 30
0.0
 10
342.214279
 20
8.778289
 30
0.0
 10
342.078284
 20
9.195299
 30
0.0
 10
342.032299
 20
9.632311
 30
0.0
 10
342.078284
 20
10.069297
 30
0.0
 10
342.214279
 20
10.486307
 30
0.0
 10
342.433301
 20
10.866301
 30
0.0
 10
342.727280
 20
11.193300
 30
0.0
 10
343.082298
 20
11.451295
 30
0.0
 10
343.483300
 20
11.629307
 30
0.0
 10
343.912296
 20
11.721302
 30
0.0
 10
344.352298
 20
11.721302
 30
0.0
 10
344.781293
 20
11.629307
 30
0.0
 10
345.182296
 20
11.451295
 30
0.0
 10
345.537287
 20
11.193300
 30
0.0
 10
345.831292
 20
10.866301
 30
0.0
 10
346.050288
 20
10.486307
 30
0.0
 10
346.186284
 20
10.069297
 30
0.0
 10
346.232295
 20
9.632311
 30
0.0
 10
346.186284
 20
9.195299
 30
0.0
 10
346.050288
 20
8.778289
 30
0.0
 10
345.831292
 20
8.398294
 30
0.0
 10
345.537287
 20
8.071296
 30
0.0
 10
345.182296
 20
7.813301
 30
0.0
 10
344.781293
 20
7.635289
 30
0.0
 10
344.352298
 20
7.543293
 30
0.0
  0
LWPOLYLINE
  5
110
100
AcDbEntity
  8
0
 62
7
100
AcDbPolyline
 90
4
 70
1
 10
410.432299
 20
130.642306
 30
0.0
 10
0.132292
 20
130.642306
 30
0.0
 10
0.132292
 20
70.132301
 30
0.0
 10
410.432299
 20
70.132301
 30
0.0
  0
LWPOLYLINE
  5
111
100
AcDbEntity
  8
0
 62
7
100
AcDbPolyline
 90
4
 70
1
 10
55.132292
 20
77.132303
 30
0.0
 10
55.132292
 20
120.132307
 30
0.0
 10
121.132292
 20
120.132307
 30
0.0
 10
121.132292
 20
77.132303
 30
0.0
  0
LWPOLYLINE
  5
112
100
AcDbEntity
  8
0
 62
7
100
AcDbPolyline
 90
30
 70
1
 10
39.938890
 20
97.292407
 30
0.0
 10
39.560592
 20
97.372806
 30
0.0
 10
39.207291
 20
97.530106
 30
0.0
 10
38.894392
 20
97.757505
 30
0.0
 10
38.635593
 20
98.044906
 30
0.0
 10
38.442193
 20
98.379805
 30
0.0
 10
38.322691
 20
98.747706
 30
0.0
 10
38.282292
 20
99.132307
 30
0.0
 10
38.322691
 20
99.516908
 30
0.0
 10
38.442193
 20
99.884805
 30
0.0
 10
38.635593
 20
100.219707
 30
0.0
 10
38.894392
 20
100.507105
 30
0.0
 10
39.207291
 20
100.734406
 30
0.0
 10
39.560592
 20
100.891706
 30
0.0
 10
39.938890
 20
100.972206
 30
0.0
 10
40.325693
 20
100.972206
 30
0.0
 10
40.703991
 20
100.891706
 30
0.0
 10
41.057292
 20
100.734406
 30
0.0
 10
41.370191
 20
100.507105
 30
0.0
 10
41.628991
 20
100.219707
 30
0.0
 10
41.822292
 20
99.884805
 30
0.0
 10
41.941892
 20
99.516908
 30
0.0
 10
41.982291
 20
99.132307
 30
0.0
 10
41.941892
 20
98.747706
 30
0.0
 10
41.822292
 20
98.379805
 30
0.0
 10
41.628991
 20
98.044906
 30
0.0
 10
41.370191
 20
97.757505
 30
0.0
 10
41.057292
 20
97.530106
 30
0.0
 10
40.703991
 20
97.372806
 30
0.0
 10
40.325693
 20
97.292407
 30
0.0
  0
LWPOLYLINE
  5
113
100
AcDbEntity
  8
0
 62
7
100
AcDbPolyline
 90
30
 70
1
 10
133.939292
 20
97.292407
 30
0.0
 10
133.560293
 20
97.372806
 30
0.0
 10
133.207291
 20
97.530106
 30
0.0
 10
132.894291
 20
97.757505
 30
0.0
 10
132.635291
 20
98.044906
 30
0.0
 10
132.442291
 20
98.379805
 30
0.0
 10
132.322291
 20
98.747706
 30
0.0
 10
132.282292
 20
99.132307
 30
0.0
 10
132.322291
 20
99.516908
 30
0.0
 10
132.442291
 20
99.884805
 30
0.0
 10
132.635291
 20
100.219707
 30
0.0
 10
132.894291
 20
100.507105
 30
0.0
 10
133.207291
 20
100.734406
 30
0.0
 10
133.560293
 20
100.891706
 30
0.0
 10
133.939292
 20
100.972206
 30
0.0
 10
134.325290
 20
100.972206
 30
0.0
 10
134.704293
 20
100.891706
 30
0.0
 10
135.057292
 20
100.734406
 30
0.0
 10
135.370291
 20
100.507105
 30
0.0
 10
135.629292
 20
100.219707
 30
0.0
 10
135.822292
 20
99.884805
 30
0.0
 10
135.942291
 20
99.516908
 30
0.0
 10
135.982291
 20
99.132307
 30
0.0
 10
135.942291
 20
98.747706
 30
0.0
 10
135.822292
 20
98.379805
 30
0.0
 10
135.629292
 20
98.044906
 30
0.0
 10
135.370291
 20
97.757505
 30
0.0
 10
135.057292
 20
97.530106
 30
0.0
 10
134.704293
 20
97.372806
 30
0.0
 10
134.325290
 20
97.292407
 30
0.0
  0
LWPOLYLINE
  5
114
100
AcDbEntity
  8
0
 62
7
100
AcDbPolyline
 90
4
 70
1
 10
370.872279
 20
197.932311
 30
0.0
 10
0.132292
 20
197.932311
 30
0.0
 10
0.132292
 20
135.132301
 30
0.0
 10
370.872279
 20
135.132301
 30
0.0
  0
LWPOLYLINE
  5
115
100
AcDbEntity
  8
0
 62
7
100
AcDbPolyline
 90
4
 70
1
 10
79.132271
 20
160.632311
 30
0.0
 10
79.132271
 20
170.632312
 30
0.0
 10
96.132280
 20
170.632312
 30
0.0
 10
96.132280
 20
160.632311
 30
0.0
  0
LWPOLYLINE
  5
116
100
AcDbEntity
  8
0
 62
7
100
AcDbPolyline
 90
30
 70
1
 10
72.689270
 20
164.018311
 30
0.0
 10
72.361293
 20
164.124911
 30
0.0
 10
72.062287
 20
164.297412
 30
0.0
 10
71.806276
 20
164.528210
 30
0.0
 10
71.603288
 20
164.807311
 30
0.0
 10
71.463270
 20
165.122412
 30
0.0
 10
71.391277
 20
165.459811
 30
0.0
 10
71.391277
 20
165.804812
 30
0.0
 10
71.463270
 20
166.142211
 30
0.0
 10
71.603288
 20
166.457311
 30
0.0
 10
71.806276
 20
166.736412
 30
0.0
 10
72.062287
 20
166.967211
 30
0.0
 10
72.361293
 20
167.139611
 30
0.0
 10
72.689270
 20
167.246211
 30
0.0
 10
73.032276
 20
167.282311
 30
0.0
 10
73.375282
 20
167.246211
 30
0.0
 10
73.703286
 20
167.139611
 30
0.0
 10
74.002291
 20
166.967211
 30
0.0
 10
74.258276
 20
166.736412
 30
0.0
 10
74.461291
 20
166.457311
 30
0.0
 10
74.601282
 20
166.142211
 30
0.0
 10
74.673275
 20
165.804812
 30
0.0
 10
74.673275
 20
165.459811
 30
0.0
 10
74.601282
 20
165.122412
 30
0.0
 10
74.461291
 20
164.807311
 30
0.0
 10
74.258276
 20
164.528210
 30
0.0
 10
74.002291
 20
164.297412
 30
0.0
 10
73.703286
 20
164.124911
 30
0.0
 10
73.375282
 20
164.018311
 30
0.0
 10
73.032276
 20
163.982311
 30
0.0
  0
LWPOLYLINE
  5
117
100
AcDbEntity
  8
0
 62
7
100
AcDbPolyline
 90
30
 70
1
 10
101.889269
 20
164.018311
 30
0.0
 10
101.561291
 20
164.124911
 30
0.0
 10
101.262286
 20
164.297412
 30
0.0
 10
101.006275
 20
164.528210
 30
0.0
 10
100.803287
 20
164.807311
 30
0.0
 10
100.663269
 20
165.122412
 30
0.0
 10
100.591276
 20
165.459811
 30
0.0
 10
100.591276
 20
165.804812
 30
0.0
 10
100.663269
 20
166.142211
 30
0.0
 10
100.803287
 20
166.457311
 30
0.0
 10
101.006275
 20
166.736412
 30
0.0
 10
101.262286
 20
166.967211
 30
0.0
 10
101.561291
 20
167.139611
 30
0.0
 10
101.889269
 20
167.246211
 30
0.0
 10
102.232275
 20
167.282311
 30
0.0
 10
102.575281
 20
167.246211
 30
0.0
 10
102.903285
 20
167.139611
 30
0.0
 10
103.202290
 20
166.967211
 30
0.0
 10
103.458275
 20
166.736412
 30
0.0
 10
103.661289
 20
166.457311
 30
0.0
 10
103.801280
 20
166.142211
 30
0.0
 10
103.873274
 20
165.804812
 30
0.0
 10
103.873274
 20
165.459811
 30
0.0
 10
103.801280
 20
165.122412
 30
0.0
 10
103.661289
 20
164.807311
 30
0.0
 10
103.458275
 20
164.528210
 30
0.0
 10
103.202290
 20
164.297412
 30
0.0
 10
102.903285
 20
164.124911
 30
0.0
 10
102.575281
 20
164.018311
 30
0.0
 10
102.232275
 20
163.982311
 30
0.0
  0
LWPOLYLINE
  5
118
100
AcDbEntity
  8
0
 62
7
100
AcDbPolyline
 90
4
 70
1
 10
370.868288
 20
266.040469
 30
0.0
 10
0.132292
 20
266.040469
 30
0.0
 10
0.132292
 20
203.226460
 30
0.0
 10
370.868288
 20
203.226460
 30
0.0
  0
LWPOLYLINE
  5
119
100
AcDbEntity
  8
0
 62
7
100
AcDbPolyline
 90
30
 70
1
 10
20.731892
 20
250.206670
 30
0.0
 10
20.183392
 20
250.323269
 30
0.0
 10
19.670992
 20
250.551369
 30
0.0
 10
19.217393
 20
250.880969
 30
0.0
 10
18.842092
 20
251.297769
 30
0.0
 10
18.561692
 20
251.783370
 30
0.0
 10
18.388392
 20
252.316770
 30
0.0
 10
18.329793
 20
252.874469
 30
0.0
 10
18.388392
 20
253.432171
 30
0.0
 10
18.561692
 20
253.965568
 30
0.0
 10
18.842092
 20
254.451169
 30
0.0
 10
19.217393
 20
254.867970
 30
0.0
 10
19.670992
 20
255.197569
 30
0.0
 10
20.183392
 20
255.425669
 30
0.0
 10
20.731892
 20
255.542271
 30
0.0
 10
21.292692
 20
255.542271
 30
0.0
 10
21.841192
 20
255.425669
 30
0.0
 10
22.353491
 20
255.197569
 30
0.0
 10
22.807191
 20
254.867970
 30
0.0
 10
23.182492
 20
254.451169
 30
0.0
 10
23.462892
 20
253.965568
 30
0.0
 10
23.636191
 20
253.432171
 30
0.0
 10
23.694791
 20
252.874469
 30
0.0
 10
23.636191
 20
252.316770
 30
0.0
 10
23.462892
 20
251.783370
 30
0.0
 10
23.182492
 20
251.297769
 30
0.0
 10
22.807191
 20
250.880969
 30
0.0
 10
22.353491
 20
250.551369
 30
0.0
 10
21.841192
 20
250.323269
 30
0.0
 10
21.292692
 20
250.206670
 30
0.0
  0
LWPOLYLINE
  5
11a
100
AcDbEntity
  8
0
 62
7
100
AcDbPolyline
 90
30
 70
1
 10
54.139893
 20
250.206670
 30
0.0
 10
53.591393
 20
250.323269
 30
0.0
 10
53.078993
 20
250.551369
 30
0.0
 10
52.625391
 20
250.880969
 30
0.0
 10
52.250093
 20
251.297769
 30
0.0
 10
51.969693
 20
251.783370
 30
0.0
 10
51.796391
 20
252.316770
 30
0.0
 10
51.737791
 20
252.874469
 30
0.0
 10
51.796391
 20
253.432171
 30
0.0
 10
51.969693
 20
253.965568
 30
0.0
 10
52.250093
 20
254.451169
 30
0.0
 10
52.625391
 20
254.867970
 30
0.0
 10
53.078993
 20
255.197569
 30
0.0
 10
53.591393
 20
255.425669
 30
0.0
 10
54.139893
 20
255.542271
 30
0.0
 10
54.700693
 20
255.542271
 30
0.0
 10
55.249193
 20
255.425669
 30
0.0
 10
55.761492
 20
255.197569
 30
0.0
 10
56.215192
 20
254.867970
 30
0.0
 10
56.590493
 20
254.451169
 30
0.0
 10
56.870893
 20
253.965568
 30
0.0
 10
57.044192
 20
253.432171
 30
0.0
 10
57.102792
 20
252.874469
 30
0.0
 10
57.044192
 20
252.316770
 30
0.0
 10
56.870893
 20
251.783370
 30
0.0
 10
56.590493
 20
251.297769
 30
0.0
 10
56.215192
 20
250.880969
 30
0.0
 10
55.761492
 20
250.551369
 30
0.0
 10
55.249193
 20
250.323269
 30
0.0
 10
54.700693
 20
250.206670
 30
0.0
  0
LWPOLYLINE
  5
11b
100
AcDbEntity
  8
0
 62
7
100
AcDbPolyline
 90
30
 70
1
 10
35.287991
 20
217.945371
 30
0.0
 10
31.445191
 20
218.762171
 30
0.0
 10
27.856293
 20
220.360170
 30
0.0
 10
24.677991
 20
222.669271
 30
0.0
 10
22.049191
 20
225.588770
 30
0.0
 10
20.084991
 20
228.991069
 30
0.0
 10
18.870892
 20
232.727369
 30
0.0
 10
18.460293
 20
236.634471
 30
0.0
 10
18.870892
 20
240.541571
 30
0.0
 10
20.084991
 20
244.277871
 30
0.0
 10
22.049191
 20
247.680169
 30
0.0
 10
24.677991
 20
250.599669
 30
0.0
 10
27.856293
 20
252.908770
 30
0.0
 10
31.445191
 20
254.506670
 30
0.0
 10
35.287991
 20
255.323471
 30
0.0
 10
39.216591
 20
255.323471
 30
0.0
 10
43.059291
 20
254.506670
 30
0.0
 10
46.648292
 20
252.908770
 30
0.0
 10
49.826592
 20
250.599669
 30
0.0
 10
52.455290
 20
247.680169
 30
0.0
 10
54.419592
 20
244.277871
 30
0.0
 10
55.633592
 20
240.541571
 30
0.0
 10
56.044292
 20
236.634471
 30
0.0
 10
55.633592
 20
232.727369
 30
0.0
 10
54.419592
 20
228.991069
 30
0.0
 10
52.455290
 20
225.588770
 30
0.0
 10
49.826592
 20
222.669271
 30
0.0
 10
46.648292
 20
220.360170
 30
0.0
 10
43.059291
 20
218.762171
 30
0.0
 10
39.216591
 20
217.945371
 30
0.0
  0
LWPOLYLINE
  5
11c
100
AcDbEntity
  8
0
 62
7
100
AcDbPolyline
 90
30
 70
1
 10
54.139893
 20
217.262669
 30
0.0
 10
53.591393
 20
217.379271
 30
0.0
 10
53.078993
 20
217.607371
 30
0.0
 10
52.625391
 20
217.936970
 30
0.0
 10
52.250093
 20
218.353771
 30
0.0
 10
51.969693
 20
218.839369
 30
0.0
 10
51.796391
 20
219.372769
 30
0.0
 10
51.737791
 20
219.930471
 30
0.0
 10
51.796391
 20
220.488170
 30
0.0
 10
51.969693
 20
221.021570
 30
0.0
 10
52.250093
 20
221.507170
 30
0.0
 10
52.625391
 20
221.923971
 30
0.0
 10
53.078993
 20
222.253571
 30
0.0
 10
53.591393
 20
222.481671
 30
0.0
 10
54.139893
 20
222.598270
 30
0.0
 10
54.700693
 20
222.598270
 30
0.0
 10
55.249193
 20
222.481671
 30
0.0
 10
55.761492
 20
222.253571
 30
0.0
 10
56.215192
 20
221.923971
 30
0.0
 10
56.590493
 20
221.507170
 30
0.0
 10
56.870893
 20
221.021570
 30
0.0
 10
57.044192
 20
220.488170
 30
0.0
 10
57.102792
 20
219.930471
 30
0.0
 10
57.044192
 20
219.372769
 30
0.0
 10
56.870893
 20
218.839369
 30
0.0
 10
56.590493
 20
218.353771
 30
0.0
 10
56.215192
 20
217.936970
 30
0.0
 10
55.761492
 20
217.607371
 30
0.0
 10
55.249193
 20
217.379271
 30
0.0
 10
54.700693
 20
217.262669
 30
0.0
  0
LWPOLYLINE
  5
11d
100
AcDbEntity
  8
0
 62
7
100
AcDbPolyline
 90
30
 70
1
 10
20.731892
 20
217.262669
 30
0.0
 10
20.183392
 20
217.379271
 30
0.0
 10
19.670992
 20
217.607371
 30
0.0
 10
19.217393
 20
217.936970
 30
0.0
 10
18.842092
 20
218.353771
 30
0.0
 10
18.561692
 20
218.839369
 30
0.0
 10
18.388392
 20
219.372769
 30
0.0
 10
18.329793
 20
219.930471
 30
0.0
 10
18.388392
 20
220.488170
 30
0.0
 10
18.561692
 20
221.021570
 30
0.0
 10
18.842092
 20
221.507170
 30
0.0
 10
19.217393
 20
221.923971
 30
0.0
 10
19.670992
 20
222.253571
 30
0.0
 10
20.183392
 20
222.481671
 30
0.0
 10
20.731892
 20
222.598270
 30
0.0
 10
21.292692
 20
222.598270
 30
0.0
 10
21.841192
 20
222.481671
 30
0.0
 10
22.353491
 20
222.253571
 30
0.0
 10
22.807191
 20
221.923971
 30
0.0
 10
23.182492
 20
221.507170
 30
0.0
 10
23.462892
 20
221.021570
 30
0.0
 10
23.636191
 20
220.488170
 30
0.0
 10
23.694791
 20
219.930471
 30
0.0
 10
23.636191
 20
219.372769
 30
0.0
 10
23.462892
 20
218.839369
 30
0.0
 10
23.182492
 20
218.353771
 30
0.0
 10
22.807191
 20
217.936970
 30
0.0
 10
22.353491
 20
217.607371
 30
0.0
 10
21.841192
 20
217.379271
 30
0.0
 10
21.292692
 20
217.262669
 30
0.0
  0
LWPOLYLINE
  5
11e
100
AcDbEntity
  8
0
 62
7
100
AcDbPolyline
 90
21
 70
1
 10
830.028291
 20
10.132307
 30
0.0
 10
840.028297
 20
10.132307
 30
0.0
 10
840.028297
 20
360.402299
 30
0.0
 10
830.028291
 20
360.402299
 30
0.0
 10
830.028291
 20
370.402300
 30
0.0
 10
469.502792
 20
370.402300
 30
0.0
 10
470.028294
 20
365.402300
 30
0.0
 10
469.372693
 20
359.165301
 30
0.0
 10
467.434692
 20
353.200298
 30
0.0
 10
464.298792
 20
347.768299
 30
0.0
 10
460.102193
 20
343.108299
 30
0.0
 10
455.028292
 20
339.421299
 30
0.0
 10
449.298793
 20
336.870300
 30
0.0
 10
443.164193
 20
335.566301
 30
0.0
 10
436.892393
 20
335.566301
 30
0.0
 10
430.757793
 20
336.870300
 30
0.0
 10
428.925293
 20
337.686299
 30
0.0
 10
428.925293
 20
10.132307
 30
0.0
 10
438.925293
 20
10.132307
 30
0.0
 10
438.925293
 20
0.132300
 30
0.0
 10
830.028291
 20
0.132300
 30
0.0
  0
LWPOLYLINE
  5
11f
100
AcDbEntity
  8
0
 62
7
100
AcDbPolyline
 90
30
 70
1
 10
629.835294
 20
345.062300
 30
0.0
 10
629.456294
 20
345.143299
 30
0.0
 10
629.103292
 20
345.300301
 30
0.0
 10
628.790293
 20
345.527300
 30
0.0
 10
628.531292
 20
345.815299
 30
0.0
 10
628.338292
 20
346.150298
 30
0.0
 10
628.218293
 20
346.517299
 30
0.0
 10
628.178293
 20
346.902300
 30
0.0
 10
628.218293
 20
347.287300
 30
0.0
 10
628.338292
 20
347.654298
 30
0.0
 10
628.531292
 20
347.989301
 30
0.0
 10
628.790293
 20
348.277300
 30
0.0
 10
629.103292
 20
348.504299
 30
0.0
 10
629.456294
 20
348.661300
 30
0.0
 10
629.835294
 20
348.742300
 30
0.0
 10
630.221294
 20
348.742300
 30
0.0
 10
630.600294
 20
348.661300
 30
0.0
 10
630.953293
 20
348.504299
 30
0.0
 10
631.266293
 20
348.277300
 30
0.0
 10
631.525293
 20
347.989301
 30
0.0
 10
631.718294
 20
347.654298
 30
0.0
 10
631.838293
 20
347.287300
 30
0.0
 10
631.878292
 20
346.902300
 30
0.0
 10
631.838293
 20
346.517299
 30
0.0
 10
631.718294
 20
346.150298
 30
0.0
 10
631.525293
 20
345.815299
 30
0.0
 10
631.266293
 20
345.527300
 30
0.0
 10
630.953293
 20
345.300301
 30
0.0
 10
630.600294
 20
345.143299
 30
0.0
 10
630.221294
 20
345.062300
 30
0.0
  0
LWPOLYLINE
  5
120
100
AcDbEntity
  8
0
 62
7
100
AcDbPolyline
 90
30
 70
1
 10
489.834894
 20
345.062300
 30
0.0
 10
489.456592
 20
345.143299
 30
0.0
 10
489.103294
 20
345.300301
 30
0.0
 10
488.790393
 20
345.527300
 30
0.0
 10
488.531593
 20
345.815299
 30
0.0
 10
488.338193
 20
346.150298
 30
0.0
 10
488.218694
 20
346.517299
 30
0.0
 10
488.178292
 20
346.902300
 30
0.0
 10
488.218694
 20
347.287300
 30
0.0
 10
488.338193
 20
347.654298
 30
0.0
 10
488.531593
 20
347.989301
 30
0.0
 10
488.790393
 20
348.277300
 30
0.0
 10
489.103294
 20
348.504299
 30
0.0
 10
489.456592
 20
348.661300
 30
0.0
 10
489.834894
 20
348.742300
 30
0.0
 10
490.221693
 20
348.742300
 30
0.0
 10
490.599992
 20
348.661300
 30
0.0
 10
490.953293
 20
348.504299
 30
0.0
 10
491.266192
 20
348.277300
 30
0.0
 10
491.524994
 20
347.989301
 30
0.0
 10
491.718394
 20
347.654298
 30
0.0
 10
491.837893
 20
347.287300
 30
0.0
 10
491.878292
 20
346.902300
 30
0.0
 10
491.837893
 20
346.517299
 30
0.0
 10
491.718394
 20
346.150298
 30
0.0
 10
491.524994
 20
345.815299
 30
0.0
 10
491.266192
 20
345.527300
 30
0.0
 10
490.953293
 20
345.300301
 30
0.0
 10
490.599992
 20
345.143299
 30
0.0
 10
490.221693
 20
345.062300
 30
0.0
  0
LWPOLYLINE
  5
121
100
AcDbEntity
  8
0
 62
7
100
AcDbPolyline
 90
30
 70
1
 10
676.835292
 20
341.562299
 30
0.0
 10
676.456293
 20
341.643298
 30
0.0
 10
676.103293
 20
341.800300
 30
0.0
 10
675.790294
 20
342.027299
 30
0.0
 10
675.531293
 20
342.315300
 30
0.0
 10
675.338293
 20
342.650300
 30
0.0
 10
675.218294
 20
343.017301
 30
0.0
 10
675.178292
 20
343.402299
 30
0.0
 10
675.218294
 20
343.787299
 30
0.0
 10
675.338293
 20
344.154300
 30
0.0
 10
675.531293
 20
344.489300
 30
0.0
 10
675.790294
 20
344.777299
 30
0.0
 10
676.103293
 20
345.004301
 30
0.0
 10
676.456293
 20
345.161299
 30
0.0
 10
676.835292
 20
345.242299
 30
0.0
 10
677.221293
 20
345.242299
 30
0.0
 10
677.600293
 20
345.161299
 30
0.0
 10
677.953292
 20
345.004301
 30
0.0
 10
678.266294
 20
344.777299
 30
0.0
 10
678.525292
 20
344.489300
 30
0.0
 10
678.718292
 20
344.154300
 30
0.0
 10
678.838294
 20
343.787299
 30
0.0
 10
678.878294
 20
343.402299
 30
0.0
 10
678.838294
 20
343.017301
 30
0.0
 10
678.718292
 20
342.650300
 30
0.0
 10
678.525292
 20
342.315300
 30
0.0
 10
678.266294
 20
342.027299
 30
0.0
 10
677.953292
 20
341.800300
 30
0.0
 10
677.600293
 20
341.643298
 30
0.0
 10
677.221293
 20
341.562299
 30
0.0
  0
LWPOLYLINE
  5
122
100
AcDbEntity
  8
0
 62
7
100
AcDbPolyline
 90
30
 70
1
 10
798.335282
 20
323.562301
 30
0.0
 10
797.956293
 20
323.643300
 30
0.0
 10
797.603286
 20
323.800299
 30
0.0
 10
797.290284
 20
324.027300
 30
0.0
 10
797.031283
 20
324.315299
 30
0.0
 10
796.838296
 20
324.650299
 30
0.0
 10
796.718281
 20
325.017300
 30
0.0
 10
796.678302
 20
325.402300
 30
0.0
 10
796.718281
 20
325.787298
 30
0.0
 10
796.838296
 20
326.154299
 30
0.0
 10
797.031283
 20
326.489299
 30
0.0
 10
797.290284
 20
326.777300
 30
0.0
 10
797.603286
 20
327.004300
 30
0.0
 10
797.956293
 20
327.161301
 30
0.0
 10
798.335282
 20
327.242300
 30
0.0
 10
798.721283
 20
327.242300
 30
0.0
 10
799.100298
 20
327.161301
 30
0.0
 10
799.453305
 20
327.004300
 30
0.0
 10
799.766281
 20
326.777300
 30
0.0
 10
800.025282
 20
326.489299
 30
0.0
 10
800.218295
 20
326.154299
 30
0.0
 10
800.338284
 20
325.787298
 30
0.0
 10
800.378289
 20
325.402300
 30
0.0
 10
800.338284
 20
325.017300
 30
0.0
 10
800.218295
 20
324.650299
 30
0.0
 10
800.025282
 20
324.315299
 30
0.0
 10
799.766281
 20
324.027300
 30
0.0
 10
799.453305
 20
323.800299
 30
0.0
 10
799.100298
 20
323.643300
 30
0.0
 10
798.721283
 20
323.562301
 30
0.0
  0
LWPOLYLINE
  5
123
100
AcDbEntity
  8
0
 62
7
100
AcDbPolyline
 90
30
 70
1
 10
748.335303
 20
323.562301
 30
0.0
 10
747.956287
 20
323.643300
 30
0.0
 10
747.603280
 20
323.800299
 30
0.0
 10
747.290304
 20
324.027300
 30
0.0
 10
747.031304
 20
324.315299
 30
0.0
 10
746.838290
 20
324.650299
 30
0.0
 10
746.718302
 20
325.017300
 30
0.0
 10
746.678297
 20
325.402300
 30
0.0
 10
746.718302
 20
325.787298
 30
0.0
 10
746.838290
 20
326.154299
 30
0.0
 10
747.031304
 20
326.489299
 30
0.0
 10
747.290304
 20
326.777300
 30
0.0
 10
747.603280
 20
327.004300
 30
0.0
 10
747.956287
 20
327.161301
 30
0.0
 10
748.335303
 20
327.242300
 30
0.0
 10
748.721303
 20
327.242300
 30
0.0
 10
749.100293
 20
327.161301
 30
0.0
 10
749.453300
 20
327.004300
 30
0.0
 10
749.766302
 20
326.777300
 30
0.0
 10
750.025302
 20
326.489299
 30
0.0
 10
750.218289
 20
326.154299
 30
0.0
 10
750.338304
 20
325.787298
 30
0.0
 10
750.378283
 20
325.402300
 30
0.0
 10
750.338304
 20
325.017300
 30
0.0
 10
750.218289
 20
324.650299
 30
0.0
 10
750.025302
 20
324.315299
 30
0.0
 10
749.766302
 20
324.027300
 30
0.0
 10
749.453300
 20
323.800299
 30
0.0
 10
749.100293
 20
323.643300
 30
0.0
 10
748.721303
 20
323.562301
 30
0.0
  0
LWPOLYLINE
  5
124
100
AcDbEntity
  8
0
 62
7
100
AcDbPolyline
 90
30
 70
1
 10
676.835292
 20
295.562299
 30
0.0
 10
676.456293
 20
295.643299
 30
0.0
 10
676.103293
 20
295.800300
 30
0.0
 10
675.790294
 20
296.027300
 30
0.0
 10
675.531293
 20
296.315300
 30
0.0
 10
675.338293
 20
296.650299
 30
0.0
 10
675.218294
 20
297.017300
 30
0.0
 10
675.178292
 20
297.402299
 30
0.0
 10
675.218294
 20
297.787299
 30
0.0
 10
675.338293
 20
298.154300
 30
0.0
 10
675.531293
 20
298.489300
 30
0.0
 10
675.790294
 20
298.777300
 30
0.0
 10
676.103293
 20
299.004299
 30
0.0
 10
676.456293
 20
299.161299
 30
0.0
 10
676.835292
 20
299.242300
 30
0.0
 10
677.221293
 20
299.242300
 30
0.0
 10
677.600293
 20
299.161299
 30
0.0
 10
677.953292
 20
299.004299
 30
0.0
 10
678.266294
 20
298.777300
 30
0.0
 10
678.525292
 20
298.489300
 30
0.0
 10
678.718292
 20
298.154300
 30
0.0
 10
678.838294
 20
297.787299
 30
0.0
 10
678.878294
 20
297.402299
 30
0.0
 10
678.838294
 20
297.017300
 30
0.0
 10
678.718292
 20
296.650299
 30
0.0
 10
678.525292
 20
296.315300
 30
0.0
 10
678.266294
 20
296.027300
 30
0.0
 10
677.953292
 20
295.800300
 30
0.0
 10
677.600293
 20
295.643299
 30
0.0
 10
677.221293
 20
295.562299
 30
0.0
  0
LWPOLYLINE
  5
125
100
AcDbEntity
  8
0
 62
7
100
AcDbPolyline
 90
30
 70
1
 10
629.835294
 20
240.062301
 30
0.0
 10
629.456294
 20
240.143300
 30
0.0
 10
629.103292
 20
240.300299
 30
0.0
 10
628.790293
 20
240.527301
 30
0.0
 10
628.531292
 20
240.815300
 30
0.0
 10
628.338292
 20
241.150299
 30
0.0
 10
628.218293
 20
241.517300
 30
0.0
 10
628.178293
 20
241.902301
 30
0.0
 10
628.218293
 20
242.287299
 30
0.0
 10
628.338292
 20
242.654299
 30
0.0
 10
628.531292
 20
242.989299
 30
0.0
 10
628.790293
 20
243.277301
 30
0.0
 10
629.103292
 20
243.504300
 30
0.0
 10
629.456294
 20
243.661301
 30
0.0
 10
629.835294
 20
243.742300
 30
0.0
 10
630.221294
 20
243.742300
 30
0.0
 10
630.600294
 20
243.661301
 30
0.0
 10
630.953293
 20
243.504300
 30
0.0
 10
631.266293
 20
243.277301
 30
0.0
 10
631.525293
 20
242.989299
 30
0.0
 10
631.718294
 20
242.654299
 30
0.0
 10
631.838293
 20
242.287299
 30
0.0
 10
631.878292
 20
241.902301
 30
0.0
 10
631.838293
 20
241.517300
 30
0.0
 10
631.718294
 20
241.150299
 30
0.0
 10
631.525293
 20
240.815300
 30
0.0
 10
631.266293
 20
240.527301
 30
0.0
 10
630.953293
 20
240.300299
 30
0.0
 10
630.600294
 20
240.143300
 30
0.0
 10
630.221294
 20
240.062301
 30
0.0
  0
LWPOLYLINE
  5
126
100
AcDbEntity
  8
0
 62
7
100
AcDbPolyline
 90
30
 70
1
 10
489.834894
 20
240.062301
 30
0.0
 10
489.456592
 20
240.143300
 30
0.0
 10
489.103294
 20
240.300299
 30
0.0
 10
488.790393
 20
240.527301
 30
0.0
 10
488.531593
 20
240.815300
 30
0.0
 10
488.338193
 20
241.150299
 30
0.0
 10
488.218694
 20
241.517300
 30
0.0
 10
488.178292
 20
241.902301
 30
0.0
 10
488.218694
 20
242.287299
 30
0.0
 10
488.338193
 20
242.654299
 30
0.0
 10
488.531593
 20
242.989299
 30
0.0
 10
488.790393
 20
243.277301
 30
0.0
 10
489.103294
 20
243.504300
 30
0.0
 10
489.456592
 20
243.661301
 30
0.0
 10
489.834894
 20
243.742300
 30
0.0
 10
490.221693
 20
243.742300
 30
0.0
 10
490.599992
 20
243.661301
 30
0.0
 10
490.953293
 20
243.504300
 30
0.0
 10
491.266192
 20
243.277301
 30
0.0
 10
491.524994
 20
242.989299
 30
0.0
 10
491.718394
 20
242.654299
 30
0.0
 10
491.837893
 20
242.287299
 30
0.0
 10
491.878292
 20
241.902301
 30
0.0
 10
491.837893
 20
241.517300
 30
0.0
 10
491.718394
 20
241.150299
 30
0.0
 10
491.524994
 20
240.815300
 30
0.0
 10
491.266192
 20
240.527301
 30
0.0
 10
490.953293
 20
240.300299
 30
0.0
 10
490.599992
 20
240.143300
 30
0.0
 10
490.221693
 20
240.062301
 30
0.0
  0
LWPOLYLINE
  5
127
100
AcDbEntity
  8
0
 62
7
100
AcDbPolyline
 90
30
 70
1
 10
669.835293
 20
230.062300
 30
0.0
 10
669.456293
 20
230.143299
 30
0.0
 10
669.103291
 20
230.300300
 30
0.0
 10
668.790292
 20
230.527300
 30
0.0
 10
668.531294
 20
230.815299
 30
0.0
 10
668.338294
 20
231.150301
 30
0.0
 10
668.218292
 20
231.517299
 30
0.0
 10
668.178292
 20
231.902300
 30
0.0
 10
668.218292
 20
232.287300
 30
0.0
 10
668.338294
 20
232.654301
 30
0.0
 10
668.531294
 20
232.989300
 30
0.0
 10
668.790292
 20
233.277299
 30
0.0
 10
669.103291
 20
233.504299
 30
0.0
 10
669.456293
 20
233.661300
 30
0.0
 10
669.835293
 20
233.742299
 30
0.0
 10
670.221294
 20
233.742299
 30
0.0
 10
670.600293
 20
233.661300
 30
0.0
 10
670.953293
 20
233.504299
 30
0.0
 10
671.266292
 20
233.277299
 30
0.0
 10
671.525293
 20
232.989300
 30
0.0
 10
671.718293
 20
232.654301
 30
0.0
 10
671.838292
 20
232.287300
 30
0.0
 10
671.878292
 20
231.902300
 30
0.0
 10
671.838292
 20
231.517299
 30
0.0
 10
671.718293
 20
231.150301
 30
0.0
 10
671.525293
 20
230.815299
 30
0.0
 10
671.266292
 20
230.527300
 30
0.0
 10
670.953293
 20
230.300300
 30
0.0
 10
670.600293
 20
230.143299
 30
0.0
 10
670.221294
 20
230.062300
 30
0.0
  0
LWPOLYLINE
  5
128
100
AcDbEntity
  8
0
 62
7
100
AcDbPolyline
 90
30
 70
1
 10
659.835292
 20
195.062301
 30
0.0
 10
659.456292
 20
195.143300
 30
0.0
 10
659.103293
 20
195.300299
 30
0.0
 10
658.790294
 20
195.527301
 30
0.0
 10
658.531293
 20
195.815300
 30
0.0
 10
658.338293
 20
196.150299
 30
0.0
 10
658.218293
 20
196.517300
 30
0.0
 10
658.178294
 20
196.902301
 30
0.0
 10
658.218293
 20
197.287299
 30
0.0
 10
658.338293
 20
197.654299
 30
0.0
 10
658.531293
 20
197.989299
 30
0.0
 10
658.790294
 20
198.277301
 30
0.0
 10
659.103293
 20
198.504300
 30
0.0
 10
659.456292
 20
198.661298
 30
0.0
 10
659.835292
 20
198.742301
 30
0.0
 10
660.221292
 20
198.742301
 30
0.0
 10
660.600292
 20
198.661298
 30
0.0
 10
660.953294
 20
198.504300
 30
0.0
 10
661.266293
 20
198.277301
 30
0.0
 10
661.525294
 20
197.989299
 30
0.0
 10
661.718292
 20
197.654299
 30
0.0
 10
661.838294
 20
197.287299
 30
0.0
 10
661.878293
 20
196.902301
 30
0.0
 10
661.838294
 20
196.517300
 30
0.0
 10
661.718292
 20
196.150299
 30
0.0
 10
661.525294
 20
195.815300
 30
0.0
 10
661.266293
 20
195.527301
 30
0.0
 10
660.953294
 20
195.300299
 30
0.0
 10
660.600292
 20
195.143300
 30
0.0
 10
660.221292
 20
195.062301
 30
0.0
  0
LWPOLYLINE
  5
129
100
AcDbEntity
  8
0
 62
7
100
AcDbPolyline
 90
30
 70
1
 10
469.834894
 20
185.062300
 30
0.0
 10
469.456593
 20
185.143299
 30
0.0
 10
469.103292
 20
185.300300
 30
0.0
 10
468.790393
 20
185.527300
 30
0.0
 10
468.531594
 20
185.815299
 30
0.0
 10
468.338194
 20
186.150301
 30
0.0
 10
468.218692
 20
186.517299
 30
0.0
 10
468.178293
 20
186.902300
 30
0.0
 10
468.218692
 20
187.287300
 30
0.0
 10
468.338194
 20
187.654301
 30
0.0
 10
468.531594
 20
187.989300
 30
0.0
 10
468.790393
 20
188.277299
 30
0.0
 10
469.103292
 20
188.504299
 30
0.0
 10
469.456593
 20
188.661300
 30
0.0
 10
469.834894
 20
188.742299
 30
0.0
 10
470.221694
 20
188.742299
 30
0.0
 10
470.599992
 20
188.661300
 30
0.0
 10
470.953293
 20
188.504299
 30
0.0
 10
471.266192
 20
188.277299
 30
0.0
 10
471.524994
 20
187.989300
 30
0.0
 10
471.718394
 20
187.654301
 30
0.0
 10
471.837893
 20
187.287300
 30
0.0
 10
471.878292
 20
186.902300
 30
0.0
 10
471.837893
 20
186.517299
 30
0.0
 10
471.718394
 20
186.150301
 30
0.0
 10
471.524994
 20
185.815299
 30
0.0
 10
471.266192
 20
185.527300
 30
0.0
 10
470.953293
 20
185.300300
 30
0.0
 10
470.599992
 20
185.143299
 30
0.0
 10
470.221694
 20
185.062300
 30
0.0
  0
LWPOLYLINE
  5
12a
100
AcDbEntity
  8
0
 62
7
100
AcDbPolyline
 90
30
 70
1
 10
748.335303
 20
173.562299
 30
0.0
 10
747.956287
 20
173.643298
 30
0.0
 10
747.603280
 20
173.800300
 30
0.0
 10
747.290304
 20
174.027299
 30
0.0
 10
747.031304
 20
174.315300
 30
0.0
 10
746.838290
 20
174.650300
 30
0.0
 10
746.718302
 20
175.017298
 30
0.0
 10
746.678297
 20
175.402299
 30
0.0
 10
746.718302
 20
175.787299
 30
0.0
 10
746.838290
 20
176.154300
 30
0.0
 10
747.031304
 20
176.489300
 30
0.0
 10
747.290304
 20
176.777299
 30
0.0
 10
747.603280
 20
177.004301
 30
0.0
 10
747.956287
 20
177.161299
 30
0.0
 10
748.335303
 20
177.242299
 30
0.0
 10
748.721303
 20
177.242299
 30
0.0
 10
749.100293
 20
177.161299
 30
0.0
 10
749.453300
 20
177.004301
 30
0.0
 10
749.766302
 20
176.777299
 30
0.0
 10
750.025302
 20
176.489300
 30
0.0
 10
750.218289
 20
176.154300
 30
0.0
 10
750.338304
 20
175.787299
 30
0.0
 10
750.378283
 20
175.402299
 30
0.0
 10
750.338304
 20
175.017298
 30
0.0
 10
750.218289
 20
174.650300
 30
0.0
 10
750.025302
 20
174.315300
 30
0.0
 10
749.766302
 20
174.027299
 30
0.0
 10
749.453300
 20
173.800300
 30
0.0
 10
749.100293
 20
173.643298
 30
0.0
 10
748.721303
 20
173.562299
 30
0.0
  0
LWPOLYLINE
  5
12b
100
AcDbEntity
  8
0
 62
7
100
AcDbPolyline
 90
30
 70
1
 10
798.335282
 20
173.562299
 30
0.0
 10
797.956293
 20
173.643298
 30
0.0
 10
797.603286
 20
173.800300
 30
0.0
 10
797.290284
 20
174.027299
 30
0.0
 10
797.031283
 20
174.315300
 30
0.0
 10
796.838296
 20
174.650300
 30
0.0
 10
796.718281
 20
175.017298
 30
0.0
 10
796.678302
 20
175.402299
 30
0.0
 10
796.718281
 20
175.787299
 30
0.0
 10
796.838296
 20
176.154300
 30
0.0
 10
797.031283
 20
176.489300
 30
0.0
 10
797.290284
 20
176.777299
 30
0.0
 10
797.603286
 20
177.004301
 30
0.0
 10
797.956293
 20
177.161299
 30
0.0
 10
798.335282
 20
177.242299
 30
0.0
 10
798.721283
 20
177.242299
 30
0.0
 10
799.100298
 20
177.161299
 30
0.0
 10
799.453305
 20
177.004301
 30
0.0
 10
799.766281
 20
176.777299
 30
0.0
 10
800.025282
 20
176.489300
 30
0.0
 10
800.218295
 20
176.154300
 30
0.0
 10
800.338284
 20
175.787299
 30
0.0
 10
800.378289
 20
175.402299
 30
0.0
 10
800.338284
 20
175.017298
 30
0.0
 10
800.218295
 20
174.650300
 30
0.0
 10
800.025282
 20
174.315300
 30
0.0
 10
799.766281
 20
174.027299
 30
0.0
 10
799.453305
 20
173.800300
 30
0.0
 10
799.100298
 20
173.643298
 30
0.0
 10
798.721283
 20
173.562299
 30
0.0
  0
LWPOLYLINE
  5
12c
100
AcDbEntity
  8
0
 62
7
100
AcDbPolyline
 90
30
 70
1
 10
659.835292
 20
135.062299
 30
0.0
 10
659.456292
 20
135.143299
 30
0.0
 10
659.103293
 20
135.300300
 30
0.0
 10
658.790294
 20
135.527299
 30
0.0
 10
658.531293
 20
135.815301
 30
0.0
 10
658.338293
 20
136.150300
 30
0.0
 10
658.218293
 20
136.517299
 30
0.0
 10
658.178294
 20
136.902299
 30
0.0
 10
658.218293
 20
137.287300
 30
0.0
 10
658.338293
 20
137.654300
 30
0.0
 10
658.531293
 20
137.989300
 30
0.0
 10
658.790294
 20
138.277299
 30
0.0
 10
659.103293
 20
138.504298
 30
0.0
 10
659.456292
 20
138.661299
 30
0.0
 10
659.835292
 20
138.742299
 30
0.0
 10
660.221292
 20
138.742299
 30
0.0
 10
660.600292
 20
138.661299
 30
0.0
 10
660.953294
 20
138.504298
 30
0.0
 10
661.266293
 20
138.277299
 30
0.0
 10
661.525294
 20
137.989300
 30
0.0
 10
661.718292
 20
137.654300
 30
0.0
 10
661.838294
 20
137.287300
 30
0.0
 10
661.878293
 20
136.902299
 30
0.0
 10
661.838294
 20
136.517299
 30
0.0
 10
661.718292
 20
136.150300
 30
0.0
 10
661.525294
 20
135.815301
 30
0.0
 10
661.266293
 20
135.527299
 30
0.0
 10
660.953294
 20
135.300300
 30
0.0
 10
660.600292
 20
135.143299
 30
0.0
 10
660.221292
 20
135.062299
 30
0.0
  0
LWPOLYLINE
  5
12d
100
AcDbEntity
  8
0
 62
7
100
AcDbPolyline
 90
30
 70
1
 10
469.834894
 20
125.062301
 30
0.0
 10
469.456593
 20
125.143300
 30
0.0
 10
469.103292
 20
125.300299
 30
0.0
 10
468.790393
 20
125.527301
 30
0.0
 10
468.531594
 20
125.815300
 30
0.0
 10
468.338194
 20
126.150299
 30
0.0
 10
468.218692
 20
126.517300
 30
0.0
 10
468.178293
 20
126.902300
 30
0.0
 10
468.218692
 20
127.287298
 30
0.0
 10
468.338194
 20
127.654299
 30
0.0
 10
468.531594
 20
127.989299
 30
0.0
 10
468.790393
 20
128.277300
 30
0.0
 10
469.103292
 20
128.504300
 30
0.0
 10
469.456593
 20
128.661301
 30
0.0
 10
469.834894
 20
128.742300
 30
0.0
 10
470.221694
 20
128.742300
 30
0.0
 10
470.599992
 20
128.661301
 30
0.0
 10
470.953293
 20
128.504300
 30
0.0
 10
471.266192
 20
128.277300
 30
0.0
 10
471.524994
 20
127.989299
 30
0.0
 10
471.718394
 20
127.654299
 30
0.0
 10
471.837893
 20
127.287298
 30
0.0
 10
471.878292
 20
126.902300
 30
0.0
 10
471.837893
 20
126.517300
 30
0.0
 10
471.718394
 20
126.150299
 30
0.0
 10
471.524994
 20
125.815300
 30
0.0
 10
471.266192
 20
125.527301
 30
0.0
 10
470.953293
 20
125.300299
 30
0.0
 10
470.599992
 20
125.143300
 30
0.0
 10
470.221694
 20
125.062301
 30
0.0
  0
LWPOLYLINE
  5
12e
100
AcDbEntity
  8
0
 62
7
100
AcDbPolyline
 90
30
 70
1
 10
825.835280
 20
105.062298
 30
0.0
 10
825.456291
 20
105.143301
 30
0.0
 10
825.103284
 20
105.300299
 30
0.0
 10
824.790282
 20
105.527301
 30
0.0
 10
824.531281
 20
105.815300
 30
0.0
 10
824.338294
 20
106.150299
 30
0.0
 10
824.218305
 20
106.517300
 30
0.0
 10
824.178300
 20
106.902301
 30
0.0
 10
824.218305
 20
107.287299
 30
0.0
 10
824.338294
 20
107.654300
 30
0.0
 10
824.531281
 20
107.989299
 30
0.0
 10
824.790282
 20
108.277301
 30
0.0
 10
825.103284
 20
108.504300
 30
0.0
 10
825.456291
 20
108.661298
 30
0.0
 10
825.835280
 20
108.742301
 30
0.0
 10
826.221281
 20
108.742301
 30
0.0
 10
826.600296
 20
108.661298
 30
0.0
 10
826.953303
 20
108.504300
 30
0.0
 10
827.266305
 20
108.277301
 30
0.0
 10
827.525306
 20
107.989299
 30
0.0
 10
827.718293
 20
107.654300
 30
0.0
 10
827.838282
 20
107.287299
 30
0.0
 10
827.878287
 20
106.902301
 30
0.0
 10
827.838282
 20
106.517300
 30
0.0
 10
827.718293
 20
106.150299
 30
0.0
 10
827.525306
 20
105.815300
 30
0.0
 10
827.266305
 20
105.527301
 30
0.0
 10
826.953303
 20
105.300299
 30
0.0
 10
826.600296
 20
105.143301
 30
0.0
 10
826.221281
 20
105.062298
 30
0.0
  0
LWPOLYLINE
  5
12f
100
AcDbEntity
  8
0
 62
7
100
AcDbPolyline
 90
30
 70
1
 10
649.835293
 20
95.062300
 30
0.0
 10
649.456294
 20
95.143299
 30
0.0
 10
649.103292
 20
95.300300
 30
0.0
 10
648.790292
 20
95.527300
 30
0.0
 10
648.531292
 20
95.815299
 30
0.0
 10
648.338294
 20
96.150301
 30
0.0
 10
648.218292
 20
96.517299
 30
0.0
 10
648.178293
 20
96.902300
 30
0.0
 10
648.218292
 20
97.287300
 30
0.0
 10
648.338294
 20
97.654298
 30
0.0
 10
648.531292
 20
97.989301
 30
0.0
 10
648.790292
 20
98.277300
 30
0.0
 10
649.103292
 20
98.504299
 30
0.0
 10
649.456294
 20
98.661300
 30
0.0
 10
649.835293
 20
98.742299
 30
0.0
 10
650.221294
 20
98.742299
 30
0.0
 10
650.600294
 20
98.661300
 30
0.0
 10
650.953293
 20
98.504299
 30
0.0
 10
651.266292
 20
98.277300
 30
0.0
 10
651.525293
 20
97.989301
 30
0.0
 10
651.718293
 20
97.654298
 30
0.0
 10
651.838292
 20
97.287300
 30
0.0
 10
651.878292
 20
96.902300
 30
0.0
 10
651.838292
 20
96.517299
 30
0.0
 10
651.718293
 20
96.150301
 30
0.0
 10
651.525293
 20
95.815299
 30
0.0
 10
651.266292
 20
95.527300
 30
0.0
 10
650.953293
 20
95.300300
 30
0.0
 10
650.600294
 20
95.143299
 30
0.0
 10
650.221294
 20
95.062300
 30
0.0
  0
LWPOLYLINE
  5
130
100
AcDbEntity
  8
0
 62
7
100
AcDbPolyline
 90
30
 70
1
 10
499.834892
 20
60.062399
 30
0.0
 10
499.456594
 20
60.142801
 30
0.0
 10
499.103293
 20
60.300101
 30
0.0
 10
498.790394
 20
60.527499
 30
0.0
 10
498.531592
 20
60.814900
 30
0.0
 10
498.338192
 20
61.149799
 30
0.0
 10
498.218693
 20
61.517700
 30
0.0
 10
498.178294
 20
61.902301
 30
0.0
 10
498.218693
 20
62.286899
 30
0.0
 10
498.338192
 20
62.654800
 30
0.0
 10
498.531592
 20
62.989699
 30
0.0
 10
498.790394
 20
63.277100
 30
0.0
 10
499.103293
 20
63.504401
 30
0.0
 10
499.456594
 20
63.661701
 30
0.0
 10
499.834892
 20
63.742200
 30
0.0
 10
500.221692
 20
63.742200
 30
0.0
 10
500.599993
 20
63.661701
 30
0.0
 10
500.953294
 20
63.504401
 30
0.0
 10
501.266193
 20
63.277100
 30
0.0
 10
501.524992
 20
62.989699
 30
0.0
 10
501.718392
 20
62.654800
 30
0.0
 10
501.837894
 20
62.286899
 30
0.0
 10
501.878293
 20
61.902301
 30
0.0
 10
501.837894
 20
61.517700
 30
0.0
 10
501.718392
 20
61.149799
 30
0.0
 10
501.524992
 20
60.814900
 30
0.0
 10
501.266193
 20
60.527499
 30
0.0
 10
500.953294
 20
60.300101
 30
0.0
 10
500.599993
 20
60.142801
 30
0.0
 10
500.221692
 20
60.062399
 30
0.0
  0
LWPOLYLINE
  5
131
100
AcDbEntity
  8
0
 62
7
100
AcDbPolyline
 90
30
 70
1
 10
629.835294
 20
60.062399
 30
0.0
 10
629.456294
 20
60.142801
 30
0.0
 10
629.103292
 20
60.300101
 30
0.0
 10
628.790293
 20
60.527499
 30
0.0
 10
628.531292
 20
60.814900
 30
0.0
 10
628.338292
 20
61.149799
 30
0.0
 10
628.218293
 20
61.517700
 30
0.0
 10
628.178293
 20
61.902301
 30
0.0
 10
628.218293
 20
62.286899
 30
0.0
 10
628.338292
 20
62.654800
 30
0.0
 10
628.531292
 20
62.989699
 30
0.0
 10
628.790293
 20
63.277100
 30
0.0
 10
629.103292
 20
63.504401
 30
0.0
 10
629.456294
 20
63.661701
 30
0.0
 10
629.835294
 20
63.742200
 30
0.0
 10
630.221294
 20
63.742200
 30
0.0
 10
630.600294
 20
63.661701
 30
0.0
 10
630.953293
 20
63.504401
 30
0.0
 10
631.266293
 20
63.277100
 30
0.0
 10
631.525293
 20
62.989699
 30
0.0
 10
631.718294
 20
62.654800
 30
0.0
 10
631.838293
 20
62.286899
 30
0.0
 10
631.878292
 20
61.902301
 30
0.0
 10
631.838293
 20
61.517700
 30
0.0
 10
631.718294
 20
61.149799
 30
0.0
 10
631.525293
 20
60.814900
 30
0.0
 10
631.266293
 20
60.527499
 30
0.0
 10
630.953293
 20
60.300101
 30
0.0
 10
630.600294
 20
60.142801
 30
0.0
 10
630.221294
 20
60.062399
 30
0.0
  0
LWPOLYLINE
  5
132
100
AcDbEntity
  8
0
 62
7
100
AcDbPolyline
 90
30
 70
1
 10
742.835303
 20
55.062398
 30
0.0
 10
742.456288
 20
55.142800
 30
0.0
 10
742.103280
 20
55.300100
 30
0.0
 10
741.790305
 20
55.527499
 30
0.0
 10
741.531304
 20
55.814900
 30
0.0
 10
741.338291
 20
56.149799
 30
0.0
 10
741.218302
 20
56.517699
 30
0.0
 10
741.178297
 20
56.902300
 30
0.0
 10
741.218302
 20
57.286899
 30
0.0
 10
741.338291
 20
57.654799
 30
0.0
 10
741.531304
 20
57.989701
 30
0.0
 10
741.790305
 20
58.277099
 30
0.0
 10
742.103280
 20
58.504400
 30
0.0
 10
742.456288
 20
58.661700
 30
0.0
 10
742.835303
 20
58.742200
 30
0.0
 10
743.221304
 20
58.742200
 30
0.0
 10
743.600293
 20
58.661700
 30
0.0
 10
743.953300
 20
58.504400
 30
0.0
 10
744.266302
 20
58.277099
 30
0.0
 10
744.525303
 20
57.989701
 30
0.0
 10
744.718290
 20
57.654799
 30
0.0
 10
744.838305
 20
57.286899
 30
0.0
 10
744.878283
 20
56.902300
 30
0.0
 10
744.838305
 20
56.517699
 30
0.0
 10
744.718290
 20
56.149799
 30
0.0
 10
744.525303
 20
55.814900
 30
0.0
 10
744.266302
 20
55.527499
 30
0.0
 10
743.953300
 20
55.300100
 30
0.0
 10
743.600293
 20
55.142800
 30
0.0
 10
743.221304
 20
55.062398
 30
0.0
  0
LWPOLYLINE
  5
133
100
AcDbEntity
  8
0
 62
7
100
AcDbPolyline
 90
30
 70
1
 10
825.835280
 20
55.062398
 30
0.0
 10
825.456291
 20
55.142800
 30
0.0
 10
825.103284
 20
55.300100
 30
0.0
 10
824.790282
 20
55.527499
 30
0.0
 10
824.531281
 20
55.814900
 30
0.0
 10
824.338294
 20
56.149799
 30
0.0
 10
824.218305
 20
56.517699
 30
0.0
 10
824.178300
 20
56.902300
 30
0.0
 10
824.218305
 20
57.286899
 30
0.0
 10
824.338294
 20
57.654799
 30
0.0
 10
824.531281
 20
57.989701
 30
0.0
 10
824.790282
 20
58.277099
 30
0.0
 10
825.103284
 20
58.504400
 30
0.0
 10
825.456291
 20
58.661700
 30
0.0
 10
825.835280
 20
58.742200
 30
0.0
 10
826.221281
 20
58.742200
 30
0.0
 10
826.600296
 20
58.661700
 30
0.0
 10
826.953303
 20
58.504400
 30
0.0
 10
827.266305
 20
58.277099
 30
0.0
 10
827.525306
 20
57.989701
 30
0.0
 10
827.718293
 20
57.654799
 30
0.0
 10
827.838282
 20
57.286899
 30
0.0
 10
827.878287
 20
56.902300
 30
0.0
 10
827.838282
 20
56.517699
 30
0.0
 10
827.718293
 20
56.149799
 30
0.0
 10
827.525306
 20
55.814900
 30
0.0
 10
827.266305
 20
55.527499
 30
0.0
 10
826.953303
 20
55.300100
 30
0.0
 10
826.600296
 20
55.142800
 30
0.0
 10
826.221281
 20
55.062398
 30
0.0
  0
LWPOLYLINE
  5
134
100
AcDbEntity
  8
0
 62
7
100
AcDbPolyline
 90
30
 70
1
 10
649.835293
 20
55.062398
 30
0.0
 10
649.456294
 20
55.142800
 30
0.0
 10
649.103292
 20
55.300100
 30
0.0
 10
648.790292
 20
55.527499
 30
0.0
 10
648.531292
 20
55.814900
 30
0.0
 10
648.338294
 20
56.149799
 30
0.0
 10
648.218292
 20
56.517699
 30
0.0
 10
648.178293
 20
56.902300
 30
0.0
 10
648.218292
 20
57.286899
 30
0.0
 10
648.338294
 20
57.654799
 30
0.0
 10
648.531292
 20
57.989701
 30
0.0
 10
648.790292
 20
58.277099
 30
0.0
 10
649.103292
 20
58.504400
 30
0.0
 10
649.456294
 20
58.661700
 30
0.0
 10
649.835293
 20
58.742200
 30
0.0
 10
650.221294
 20
58.742200
 30
0.0
 10
650.600294
 20
58.661700
 30
0.0
 10
650.953293
 20
58.504400
 30
0.0
 10
651.266292
 20
58.277099
 30
0.0
 10
651.525293
 20
57.989701
 30
0.0
 10
651.718293
 20
57.654799
 30
0.0
 10
651.838292
 20
57.286899
 30
0.0
 10
651.878292
 20
56.902300
 30
0.0
 10
651.838292
 20
56.517699
 30
0.0
 10
651.718293
 20
56.149799
 30
0.0
 10
651.525293
 20
55.814900
 30
0.0
 10
651.266292
 20
55.527499
 30
0.0
 10
650.953293
 20
55.300100
 30
0.0
 10
650.600294
 20
55.142800
 30
0.0
 10
650.221294
 20
55.062398
 30
0.0
  0
LWPOLYLINE
  5
135
100
AcDbEntity
  8
0
 62
7
100
AcDbPolyline
 90
30
 70
1
 10
449.244294
 20
7.943409
 30
0.0
 10
447.710692
 20
8.269402
 30
0.0
 10
446.278294
 20
8.907101
 30
0.0
 10
445.009794
 20
9.828697
 30
0.0
 10
443.960692
 20
10.993896
 30
0.0
 10
443.176692
 20
12.351790
 30
0.0
 10
442.692192
 20
13.843001
 30
0.0
 10
442.528293
 20
15.402299
 30
0.0
 10
442.692192
 20
16.961599
 30
0.0
 10
443.176692
 20
18.452799
 30
0.0
 10
443.960692
 20
19.810699
 30
0.0
 10
445.009794
 20
20.975900
 30
0.0
 10
446.278294
 20
21.897499
 30
0.0
 10
447.710692
 20
22.535201
 30
0.0
 10
449.244294
 20
22.861199
 30
0.0
 10
450.812292
 20
22.861199
 30
0.0
 10
452.345893
 20
22.535201
 30
0.0
 10
453.778292
 20
21.897499
 30
0.0
 10
455.046792
 20
20.975900
 30
0.0
 10
456.095894
 20
19.810699
 30
0.0
 10
456.879894
 20
18.452799
 30
0.0
 10
457.364394
 20
16.961599
 30
0.0
 10
457.528292
 20
15.402299
 30
0.0
 10
457.364394
 20
13.843001
 30
0.0
 10
456.879894
 20
12.351790
 30
0.0
 10
456.095894
 20
10.993896
 30
0.0
 10
455.046792
 20
9.828697
 30
0.0
 10
453.778292
 20
8.907101
 30
0.0
 10
452.345893
 20
8.269402
 30
0.0
 10
450.812292
 20
7.943409
 30
0.0
  0
LWPOLYLINE
  5
136
100
AcDbEntity
  8
0
 62
7
100
AcDbPolyline
 90
30
 70
1
 10
819.244298
 20
7.943409
 30
0.0
 10
817.710296
 20
8.269402
 30
0.0
 10
816.278292
 20
8.907101
 30
0.0
 10
815.010303
 20
9.828697
 30
0.0
 10
813.960304
 20
10.993896
 30
0.0
 10
813.176290
 20
12.351790
 30
0.0
 10
812.692288
 20
13.843001
 30
0.0
 10
812.528299
 20
15.402299
 30
0.0
 10
812.692288
 20
16.961599
 30
0.0
 10
813.176290
 20
18.452799
 30
0.0
 10
813.960304
 20
19.810699
 30
0.0
 10
815.010303
 20
20.975900
 30
0.0
 10
816.278292
 20
21.897499
 30
0.0
 10
817.710296
 20
22.535201
 30
0.0
 10
819.244298
 20
22.861199
 30
0.0
 10
820.812298
 20
22.861199
 30
0.0
 10
822.346299
 20
22.535201
 30
0.0
 10
823.778303
 20
21.897499
 30
0.0
 10
825.046293
 20
20.975900
 30
0.0
 10
826.096291
 20
19.810699
 30
0.0
 10
826.880305
 20
18.452799
 30
0.0
 10
827.364281
 20
16.961599
 30
0.0
 10
827.528296
 20
15.402299
 30
0.0
 10
827.364281
 20
13.843001
 30
0.0
 10
826.880305
 20
12.351790
 30
0.0
 10
826.096291
 20
10.993896
 30
0.0
 10
825.046293
 20
9.828697
 30
0.0
 10
823.778303
 20
8.907101
 30
0.0
 10
822.346299
 20
8.269402
 30
0.0
 10
820.812298
 20
7.943409
 30
0.0
  0
LWPOLYLINE
  5
137
100
AcDbEntity
  8
0
 62
7
100
AcDbPolyline
 90
45
 70
1
 10
359.636750
 20
273.458566
 30
0.0
 10
361.928559
 20
274.478958
 30
0.0
 10
363.958120
 20
275.953534
 30
0.0
 10
365.636750
 20
277.817841
 30
0.0
 10
366.891060
 20
279.990440
 30
0.0
 10
367.581560
 20
282.115521
 30
0.0
 10
383.976160
 20
314.291659
 30
0.0
 10
384.018761
 20
314.300654
 30
0.0
 10
385.928560
 20
315.150972
 30
0.0
 10
387.619859
 20
316.379777
 30
0.0
 10
389.018759
 20
317.933365
 30
0.0
 10
390.064059
 20
319.743866
 30
0.0
 10
390.710060
 20
321.732165
 30
0.0
 10
390.928558
 20
323.811266
 30
0.0
 10
390.710060
 20
325.890365
 30
0.0
 10
390.064059
 20
327.878666
 30
0.0
 10
389.018759
 20
329.689064
 30
0.0
 10
387.619859
 20
331.242666
 30
0.0
 10
385.928560
 20
332.471566
 30
0.0
 10
384.018761
 20
333.321865
 30
0.0
 10
381.973860
 20
333.756467
 30
0.0
 10
379.928559
 20
333.756467
 30
0.0
 10
379.928559
 20
333.871264
 30
0.0
 10
377.928560
 20
333.871264
 30
0.0
 10
377.928560
 20
356.371267
 30
0.0
 10
323.928560
 20
356.371267
 30
0.0
 10
323.928560
 20
330.899867
 30
0.0
 10
322.838360
 20
329.689064
 30
0.0
 10
321.793060
 20
327.878666
 30
0.0
 10
321.147059
 20
325.890365
 30
0.0
 10
320.928561
 20
323.811266
 30
0.0
 10
321.147059
 20
321.732165
 30
0.0
 10
321.793060
 20
319.743866
 30
0.0
 10
322.838360
 20
317.933365
 30
0.0
 10
324.237260
 20
316.379777
 30
0.0
 10
325.928559
 20
315.150972
 30
0.0
 10
327.111558
 20
314.624266
 30
0.0
 10
345.266159
 20
278.993966
 30
0.0
 10
345.478760
 20
279.102313
 30
0.0
 10
346.220369
 20
277.817841
 30
0.0
 10
347.899000
 20
275.953534
 30
0.0
 10
349.928560
 20
274.478958
 30
0.0
 10
352.220370
 20
273.458566
 30
0.0
 10
354.674230
 20
272.937072
 30
0.0
 10
357.182890
 20
272.937072
 30
0.0
  0
LWPOLYLINE
  5
138
100
AcDbEntity
  8
0
 62
7
100
AcDbPolyline
 90
30
 70
1
 10
336.088860
 20
345.639066
 30
0.0
 10
335.424260
 20
345.780367
 30
0.0
 10
334.803560
 20
346.056666
 30
0.0
 10
334.253860
 20
346.456065
 30
0.0
 10
333.799260
 20
346.960967
 30
0.0
 10
333.459560
 20
347.549366
 30
0.0
 10
333.249559
 20
348.195565
 30
0.0
 10
333.178560
 20
348.871266
 30
0.0
 10
333.249559
 20
349.546967
 30
0.0
 10
333.459560
 20
350.193167
 30
0.0
 10
333.799260
 20
350.781566
 30
0.0
 10
334.253860
 20
351.286465
 30
0.0
 10
334.803560
 20
351.685867
 30
0.0
 10
335.424260
 20
351.962166
 30
0.0
 10
336.088860
 20
352.103466
 30
0.0
 10
336.768260
 20
352.103466
 30
0.0
 10
337.432860
 20
351.962166
 30
0.0
 10
338.053560
 20
351.685867
 30
0.0
 10
338.603260
 20
351.286465
 30
0.0
 10
339.057859
 20
350.781566
 30
0.0
 10
339.397560
 20
350.193167
 30
0.0
 10
339.607560
 20
349.546967
 30
0.0
 10
339.678560
 20
348.871266
 30
0.0
 10
339.607560
 20
348.195565
 30
0.0
 10
339.397560
 20
347.549366
 30
0.0
 10
339.057859
 20
346.960967
 30
0.0
 10
338.603260
 20
346.456065
 30
0.0
 10
338.053560
 20
346.056666
 30
0.0
 10
337.432860
 20
345.780367
 30
0.0
 10
336.768260
 20
345.639066
 30
0.0
  0
LWPOLYLINE
  5
139
100
AcDbEntity
  8
0
 62
7
100
AcDbPolyline
 90
30
 70
1
 10
366.088860
 20
345.639066
 30
0.0
 10
365.424240
 20
345.780367
 30
0.0
 10
364.803539
 20
346.056666
 30
0.0
 10
364.253879
 20
346.456065
 30
0.0
 10
363.799240
 20
346.960967
 30
0.0
 10
363.459539
 20
347.549366
 30
0.0
 10
363.249570
 20
348.195565
 30
0.0
 10
363.178560
 20
348.871266
 30
0.0
 10
363.249570
 20
349.546967
 30
0.0
 10
363.459539
 20
350.193167
 30
0.0
 10
363.799240
 20
350.781566
 30
0.0
 10
364.253879
 20
351.286465
 30
0.0
 10
364.803560
 20
351.685867
 30
0.0
 10
365.424240
 20
351.962166
 30
0.0
 10
366.088860
 20
352.103466
 30
0.0
 10
366.768260
 20
352.103466
 30
0.0
 10
367.432860
 20
351.962166
 30
0.0
 10
368.053560
 20
351.685867
 30
0.0
 10
368.603260
 20
351.286465
 30
0.0
 10
369.057860
 20
350.781566
 30
0.0
 10
369.397560
 20
350.193167
 30
0.0
 10
369.607559
 20
349.546967
 30
0.0
 10
369.678560
 20
348.871266
 30
0.0
 10
369.607559
 20
348.195565
 30
0.0
 10
369.397560
 20
347.549366
 30
0.0
 10
369.057860
 20
346.960967
 30
0.0
 10
368.603260
 20
346.456065
 30
0.0
 10
368.053560
 20
346.056666
 30
0.0
 10
367.432860
 20
345.780367
 30
0.0
 10
366.768260
 20
345.639066
 30
0.0
  0
LWPOLYLINE
  5
13a
100
AcDbEntity
  8
0
 62
7
100
AcDbPolyline
 90
30
 70
1
 10
329.578360
 20
320.479665
 30
0.0
 10
328.893361
 20
320.625265
 30
0.0
 10
328.253558
 20
320.910065
 30
0.0
 10
327.686958
 20
321.321765
 30
0.0
 10
327.218360
 20
321.842166
 30
0.0
 10
326.868160
 20
322.448665
 30
0.0
 10
326.651760
 20
323.114767
 30
0.0
 10
326.578561
 20
323.811266
 30
0.0
 10
326.651760
 20
324.507766
 30
0.0
 10
326.868160
 20
325.173865
 30
0.0
 10
327.218360
 20
325.780367
 30
0.0
 10
327.686958
 20
326.300765
 30
0.0
 10
328.253558
 20
326.712465
 30
0.0
 10
328.893361
 20
326.997265
 30
0.0
 10
329.578360
 20
327.142865
 30
0.0
 10
330.278760
 20
327.142865
 30
0.0
 10
330.963759
 20
326.997265
 30
0.0
 10
331.603560
 20
326.712465
 30
0.0
 10
332.170159
 20
326.300765
 30
0.0
 10
332.638760
 20
325.780367
 30
0.0
 10
332.988960
 20
325.173865
 30
0.0
 10
333.205359
 20
324.507766
 30
0.0
 10
333.278560
 20
323.811266
 30
0.0
 10
333.205359
 20
323.114767
 30
0.0
 10
332.988960
 20
322.448665
 30
0.0
 10
332.638760
 20
321.842166
 30
0.0
 10
332.170159
 20
321.321765
 30
0.0
 10
331.603560
 20
320.910065
 30
0.0
 10
330.963759
 20
320.625265
 30
0.0
 10
330.278760
 20
320.479665
 30
0.0
  0
LWPOLYLINE
  5
13b
100
AcDbEntity
  8
0
 62
7
100
AcDbPolyline
 90
30
 70
1
 10
381.578360
 20
320.479665
 30
0.0
 10
380.893360
 20
320.625265
 30
0.0
 10
380.253560
 20
320.910065
 30
0.0
 10
379.686960
 20
321.321765
 30
0.0
 10
379.218360
 20
321.842166
 30
0.0
 10
378.868159
 20
322.448665
 30
0.0
 10
378.651760
 20
323.114767
 30
0.0
 10
378.578560
 20
323.811266
 30
0.0
 10
378.651760
 20
324.507766
 30
0.0
 10
378.868159
 20
325.173865
 30
0.0
 10
379.218360
 20
325.780367
 30
0.0
 10
379.686960
 20
326.300765
 30
0.0
 10
380.253560
 20
326.712465
 30
0.0
 10
380.893360
 20
326.997265
 30
0.0
 10
381.578360
 20
327.142865
 30
0.0
 10
382.278760
 20
327.142865
 30
0.0
 10
382.963759
 20
326.997265
 30
0.0
 10
383.603561
 20
326.712465
 30
0.0
 10
384.170161
 20
326.300765
 30
0.0
 10
384.638759
 20
325.780367
 30
0.0
 10
384.988959
 20
325.173865
 30
0.0
 10
385.205359
 20
324.507766
 30
0.0
 10
385.278559
 20
323.811266
 30
0.0
 10
385.205359
 20
323.114767
 30
0.0
 10
384.988959
 20
322.448665
 30
0.0
 10
384.638759
 20
321.842166
 30
0.0
 10
384.170161
 20
321.321765
 30
0.0
 10
383.603561
 20
320.910065
 30
0.0
 10
382.963759
 20
320.625265
 30
0.0
 10
382.278760
 20
320.479665
 30
0.0
  0
LWPOLYLINE
  5
13c
100
AcDbEntity
  8
0
 62
7
100
AcDbPolyline
 90
34
 70
1
 10
355.578400
 20
278.424636
 30
0.0
 10
354.893360
 20
278.570236
 30
0.0
 10
354.253570
 20
278.855087
 30
0.0
 10
353.686980
 20
279.266752
 30
0.0
 10
353.218350
 20
279.787187
 30
0.0
 10
352.868200
 20
280.393718
 30
0.0
 10
352.651770
 20
281.059780
 30
0.0
 10
352.578569
 20
281.756269
 30
0.0
 10
352.651770
 20
282.452785
 30
0.0
 10
352.770300
 20
282.817513
 30
0.0
 10
352.895600
 20
282.881384
 30
0.0
 10
352.959550
 20
283.078181
 30
0.0
 10
353.299260
 20
283.666561
 30
0.0
 10
353.753890
 20
284.171492
 30
0.0
 10
354.303580
 20
284.570854
 30
0.0
 10
354.924259
 20
284.847211
 30
0.0
 10
355.588854
 20
284.988446
 30
0.0
 10
356.268266
 20
284.988446
 30
0.0
 10
356.932860
 20
284.847211
 30
0.0
 10
357.553560
 20
284.570854
 30
0.0
 10
358.103230
 20
284.171492
 30
0.0
 10
358.557860
 20
283.666561
 30
0.0
 10
358.897570
 20
283.078181
 30
0.0
 10
359.107530
 20
282.431989
 30
0.0
 10
359.116989
 20
282.341925
 30
0.0
 10
359.222660
 20
282.288108
 30
0.0
 10
359.278550
 20
281.756269
 30
0.0
 10
359.205350
 20
281.059780
 30
0.0
 10
358.988920
 20
280.393718
 30
0.0
 10
358.638769
 20
279.787187
 30
0.0
 10
358.170139
 20
279.266752
 30
0.0
 10
357.603550
 20
278.855087
 30
0.0
 10
356.963760
 20
278.570236
 30
0.0
 10
356.278719
 20
278.424636
 30
0.0
  0
LWPOLYLINE
  5
13d
100
AcDbEntity
  8
0
 62
7
100
AcDbPolyline
 90
47
 70
1
 10
267.708183
 20
290.625817
 30
0.0
 10
269.999993
 20
291.646209
 30
0.0
 10
272.029553
 20
293.120785
 30
0.0
 10
273.708183
 20
294.985092
 30
0.0
 10
274.962493
 20
297.157692
 30
0.0
 10
275.652993
 20
299.282772
 30
0.0
 10
292.047594
 20
331.458910
 30
0.0
 10
292.090195
 20
331.467906
 30
0.0
 10
293.999994
 20
332.318224
 30
0.0
 10
295.691293
 20
333.547028
 30
0.0
 10
297.090192
 20
335.100616
 30
0.0
 10
298.135492
 20
336.911118
 30
0.0
 10
298.781494
 20
338.899417
 30
0.0
 10
298.999992
 20
340.978518
 30
0.0
 10
298.781494
 20
343.057616
 30
0.0
 10
298.135492
 20
345.045918
 30
0.0
 10
297.090192
 20
346.856316
 30
0.0
 10
295.691293
 20
348.409918
 30
0.0
 10
293.999994
 20
349.638817
 30
0.0
 10
292.090195
 20
350.489117
 30
0.0
 10
290.045293
 20
350.923718
 30
0.0
 10
287.999993
 20
350.923718
 30
0.0
 10
287.999993
 20
351.038516
 30
0.0
 10
239.999993
 20
351.038516
 30
0.0
 10
239.999993
 20
350.923718
 30
0.0
 10
237.954693
 20
350.923718
 30
0.0
 10
235.909792
 20
350.489117
 30
0.0
 10
233.999992
 20
349.638817
 30
0.0
 10
232.308694
 20
348.409918
 30
0.0
 10
230.909794
 20
346.856316
 30
0.0
 10
229.864494
 20
345.045918
 30
0.0
 10
229.218493
 20
343.057616
 30
0.0
 10
228.999994
 20
340.978518
 30
0.0
 10
229.218493
 20
338.899417
 30
0.0
 10
229.864494
 20
336.911118
 30
0.0
 10
230.909794
 20
335.100616
 30
0.0
 10
232.308694
 20
333.547028
 30
0.0
 10
233.999992
 20
332.318224
 30
0.0
 10
235.182992
 20
331.791518
 30
0.0
 10
253.337593
 20
296.161218
 30
0.0
 10
253.550193
 20
296.269565
 30
0.0
 10
254.291803
 20
294.985092
 30
0.0
 10
255.970433
 20
293.120785
 30
0.0
 10
257.999993
 20
291.646209
 30
0.0
 10
260.291803
 20
290.625817
 30
0.0
 10
262.745663
 20
290.104323
 30
0.0
 10
265.254323
 20
290.104323
 30
0.0
  0
LWPOLYLINE
  5
13e
100
AcDbEntity
  8
0
 62
7
100
AcDbPolyline
 90
38
 70
1
 10
263.712548
 20
337.243617
 30
0.0
 10
263.150201
 20
337.363116
 30
0.0
 10
262.624993
 20
337.596918
 30
0.0
 10
262.159893
 20
337.934817
 30
0.0
 10
261.775203
 20
338.362117
 30
0.0
 10
261.487753
 20
338.860018
 30
0.0
 10
261.310093
 20
339.406718
 30
0.0
 10
261.249993
 20
339.978517
 30
0.0
 10
261.302563
 20
340.478516
 30
0.0
 10
261.249993
 20
340.978518
 30
0.0
 10
261.302563
 20
341.478517
 30
0.0
 10
261.249993
 20
341.978518
 30
0.0
 10
261.310093
 20
342.550217
 30
0.0
 10
261.487753
 20
343.097018
 30
0.0
 10
261.775203
 20
343.594916
 30
0.0
 10
262.159893
 20
344.022118
 30
0.0
 10
262.625013
 20
344.360118
 30
0.0
 10
263.150201
 20
344.593917
 30
0.0
 10
263.712548
 20
344.713418
 30
0.0
 10
264.287438
 20
344.713418
 30
0.0
 10
264.849785
 20
344.593917
 30
0.0
 10
265.374993
 20
344.360118
 30
0.0
 10
265.840093
 20
344.022118
 30
0.0
 10
266.224783
 20
343.594916
 30
0.0
 10
266.512233
 20
343.097018
 30
0.0
 10
266.689893
 20
342.550217
 30
0.0
 10
266.749993
 20
341.978518
 30
0.0
 10
266.697423
 20
341.478517
 30
0.0
 10
266.749993
 20
340.978518
 30
0.0
 10
266.697423
 20
340.478516
 30
0.0
 10
266.749993
 20
339.978517
 30
0.0
 10
266.689893
 20
339.406718
 30
0.0
 10
266.512233
 20
338.860018
 30
0.0
 10
266.224783
 20
338.362117
 30
0.0
 10
265.840093
 20
337.934817
 30
0.0
 10
265.374993
 20
337.596918
 30
0.0
 10
264.849785
 20
337.363116
 30
0.0
 10
264.287438
 20
337.243617
 30
0.0
  0
LWPOLYLINE
  5
13f
100
AcDbEntity
  8
0
 62
7
100
AcDbPolyline
 90
30
 70
1
 10
289.649793
 20
337.646916
 30
0.0
 10
288.964793
 20
337.792516
 30
0.0
 10
288.324993
 20
338.077317
 30
0.0
 10
287.758393
 20
338.489016
 30
0.0
 10
287.289793
 20
339.009417
 30
0.0
 10
286.939593
 20
339.615916
 30
0.0
 10
286.723193
 20
340.282018
 30
0.0
 10
286.649993
 20
340.978518
 30
0.0
 10
286.723193
 20
341.675018
 30
0.0
 10
286.939593
 20
342.341117
 30
0.0
 10
287.289793
 20
342.947618
 30
0.0
 10
287.758393
 20
343.468017
 30
0.0
 10
288.324993
 20
343.879716
 30
0.0
 10
288.964793
 20
344.164517
 30
0.0
 10
289.649793
 20
344.310117
 30
0.0
 10
290.350193
 20
344.310117
 30
0.0
 10
291.035192
 20
344.164517
 30
0.0
 10
291.674994
 20
343.879716
 30
0.0
 10
292.241594
 20
343.468017
 30
0.0
 10
292.710193
 20
342.947618
 30
0.0
 10
293.060393
 20
342.341117
 30
0.0
 10
293.276793
 20
341.675018
 30
0.0
 10
293.349992
 20
340.978518
 30
0.0
 10
293.276793
 20
340.282018
 30
0.0
 10
293.060393
 20
339.615916
 30
0.0
 10
292.710193
 20
339.009417
 30
0.0
 10
292.241594
 20
338.489016
 30
0.0
 10
291.674994
 20
338.077317
 30
0.0
 10
291.035192
 20
337.792516
 30
0.0
 10
290.350193
 20
337.646916
 30
0.0
  0
LWPOLYLINE
  5
140
100
AcDbEntity
  8
0
 62
7
100
AcDbPolyline
 90
30
 70
1
 10
237.649793
 20
337.646916
 30
0.0
 10
236.964794
 20
337.792516
 30
0.0
 10
236.324992
 20
338.077317
 30
0.0
 10
235.758392
 20
338.489016
 30
0.0
 10
235.289794
 20
339.009417
 30
0.0
 10
234.939594
 20
339.615916
 30
0.0
 10
234.723194
 20
340.282018
 30
0.0
 10
234.649994
 20
340.978518
 30
0.0
 10
234.723194
 20
341.675018
 30
0.0
 10
234.939594
 20
342.341117
 30
0.0
 10
235.289794
 20
342.947618
 30
0.0
 10
235.758392
 20
343.468017
 30
0.0
 10
236.324992
 20
343.879716
 30
0.0
 10
236.964794
 20
344.164517
 30
0.0
 10
237.649793
 20
344.310117
 30
0.0
 10
238.350193
 20
344.310117
 30
0.0
 10
239.035193
 20
344.164517
 30
0.0
 10
239.674993
 20
343.879716
 30
0.0
 10
240.241593
 20
343.468017
 30
0.0
 10
240.710193
 20
342.947618
 30
0.0
 10
241.060393
 20
342.341117
 30
0.0
 10
241.276793
 20
341.675018
 30
0.0
 10
241.349993
 20
340.978518
 30
0.0
 10
241.276793
 20
340.282018
 30
0.0
 10
241.060393
 20
339.615916
 30
0.0
 10
240.710193
 20
339.009417
 30
0.0
 10
240.241593
 20
338.489016
 30
0.0
 10
239.674993
 20
338.077317
 30
0.0
 10
239.035193
 20
337.792516
 30
0.0
 10
238.350193
 20
337.646916
 30
0.0
  0
LWPOLYLINE
  5
141
100
AcDbEntity
  8
0
 62
7
100
AcDbPolyline
 90
34
 70
1
 10
263.649834
 20
295.591888
 30
0.0
 10
262.964793
 20
295.737488
 30
0.0
 10
262.325003
 20
296.022338
 30
0.0
 10
261.758413
 20
296.434003
 30
0.0
 10
261.289783
 20
296.954439
 30
0.0
 10
260.939633
 20
297.560970
 30
0.0
 10
260.723203
 20
298.227032
 30
0.0
 10
260.650003
 20
298.923521
 30
0.0
 10
260.723203
 20
299.620036
 30
0.0
 10
260.841733
 20
299.984765
 30
0.0
 10
260.967033
 20
300.048635
 30
0.0
 10
261.030983
 20
300.245432
 30
0.0
 10
261.370693
 20
300.833813
 30
0.0
 10
261.825323
 20
301.338743
 30
0.0
 10
262.375013
 20
301.738105
 30
0.0
 10
262.995693
 20
302.014463
 30
0.0
 10
263.660287
 20
302.155697
 30
0.0
 10
264.339699
 20
302.155697
 30
0.0
 10
265.004293
 20
302.014463
 30
0.0
 10
265.624993
 20
301.738105
 30
0.0
 10
266.174663
 20
301.338743
 30
0.0
 10
266.629293
 20
300.833813
 30
0.0
 10
266.969003
 20
300.245432
 30
0.0
 10
267.178963
 20
299.599240
 30
0.0
 10
267.188422
 20
299.509176
 30
0.0
 10
267.294093
 20
299.455360
 30
0.0
 10
267.349983
 20
298.923521
 30
0.0
 10
267.276783
 20
298.227032
 30
0.0
 10
267.060353
 20
297.560970
 30
0.0
 10
266.710203
 20
296.954439
 30
0.0
 10
266.241573
 20
296.434003
 30
0.0
 10
265.674983
 20
296.022338
 30
0.0
 10
265.035193
 20
295.737488
 30
0.0
 10
264.350152
 20
295.591888
 30
0.0
  0
LWPOLYLINE
  5
142
100
AcDbEntity
  8
0
 62
7
100
AcDbPolyline
 90
47
 70
1
 10
171.065327
 20
288.268671
 30
0.0
 10
173.357137
 20
289.289063
 30
0.0
 10
175.386697
 20
290.763639
 30
0.0
 10
177.065327
 20
292.627946
 30
0.0
 10
178.319637
 20
294.800545
 30
0.0
 10
179.010137
 20
296.925626
 30
0.0
 10
195.404737
 20
329.101764
 30
0.0
 10
195.447338
 20
329.110759
 30
0.0
 10
197.357137
 20
329.961077
 30
0.0
 10
199.048436
 20
331.189882
 30
0.0
 10
200.447336
 20
332.743470
 30
0.0
 10
201.492636
 20
334.553971
 30
0.0
 10
202.138637
 20
336.542270
 30
0.0
 10
202.357135
 20
338.621371
 30
0.0
 10
202.138637
 20
340.700470
 30
0.0
 10
201.492636
 20
342.688771
 30
0.0
 10
200.447336
 20
344.499169
 30
0.0
 10
199.048436
 20
346.052771
 30
0.0
 10
197.357137
 20
347.281671
 30
0.0
 10
195.447338
 20
348.131970
 30
0.0
 10
193.402437
 20
348.566572
 30
0.0
 10
191.357136
 20
348.566572
 30
0.0
 10
191.357136
 20
348.681369
 30
0.0
 10
143.357137
 20
348.681369
 30
0.0
 10
143.357137
 20
348.566572
 30
0.0
 10
141.311837
 20
348.566572
 30
0.0
 10
139.266935
 20
348.131970
 30
0.0
 10
137.357136
 20
347.281671
 30
0.0
 10
135.665837
 20
346.052771
 30
0.0
 10
134.266937
 20
344.499169
 30
0.0
 10
133.221637
 20
342.688771
 30
0.0
 10
132.575636
 20
340.700470
 30
0.0
 10
132.357138
 20
338.621371
 30
0.0
 10
132.575636
 20
336.542270
 30
0.0
 10
133.221637
 20
334.553971
 30
0.0
 10
134.266937
 20
332.743470
 30
0.0
 10
135.665837
 20
331.189882
 30
0.0
 10
137.357136
 20
329.961077
 30
0.0
 10
138.540135
 20
329.434371
 30
0.0
 10
156.694737
 20
293.804071
 30
0.0
 10
156.907337
 20
293.912418
 30
0.0
 10
157.648947
 20
292.627946
 30
0.0
 10
159.327577
 20
290.763639
 30
0.0
 10
161.357137
 20
289.289063
 30
0.0
 10
163.648947
 20
288.268671
 30
0.0
 10
166.102807
 20
287.747177
 30
0.0
 10
168.611467
 20
287.747177
 30
0.0
  0
LWPOLYLINE
  5
143
100
AcDbEntity
  8
0
 62
7
100
AcDbPolyline
 90
38
 70
1
 10
167.069692
 20
334.886471
 30
0.0
 10
166.507345
 20
335.005970
 30
0.0
 10
165.982137
 20
335.239771
 30
0.0
 10
165.517037
 20
335.577671
 30
0.0
 10
165.132347
 20
336.004970
 30
0.0
 10
164.844897
 20
336.502871
 30
0.0
 10
164.667237
 20
337.049572
 30
0.0
 10
164.607137
 20
337.621371
 30
0.0
 10
164.659707
 20
338.121370
 30
0.0
 10
164.607137
 20
338.621371
 30
0.0
 10
164.659707
 20
339.121370
 30
0.0
 10
164.607137
 20
339.621372
 30
0.0
 10
164.667237
 20
340.193070
 30
0.0
 10
164.844897
 20
340.739872
 30
0.0
 10
165.132347
 20
341.237770
 30
0.0
 10
165.517037
 20
341.664971
 30
0.0
 10
165.982157
 20
342.002971
 30
0.0
 10
166.507345
 20
342.236770
 30
0.0
 10
167.069692
 20
342.356272
 30
0.0
 10
167.644582
 20
342.356272
 30
0.0
 10
168.206929
 20
342.236770
 30
0.0
 10
168.732136
 20
342.002971
 30
0.0
 10
169.197237
 20
341.664971
 30
0.0
 10
169.581927
 20
341.237770
 30
0.0
 10
169.869377
 20
340.739872
 30
0.0
 10
170.047037
 20
340.193070
 30
0.0
 10
170.107137
 20
339.621372
 30
0.0
 10
170.054567
 20
339.121370
 30
0.0
 10
170.107137
 20
338.621371
 30
0.0
 10
170.054567
 20
338.121370
 30
0.0
 10
170.107137
 20
337.621371
 30
0.0
 10
170.047037
 20
337.049572
 30
0.0
 10
169.869377
 20
336.502871
 30
0.0
 10
169.581927
 20
336.004970
 30
0.0
 10
169.197237
 20
335.577671
 30
0.0
 10
168.732136
 20
335.239771
 30
0.0
 10
168.206929
 20
335.005970
 30
0.0
 10
167.644582
 20
334.886471
 30
0.0
  0
LWPOLYLINE
  5
144
100
AcDbEntity
  8
0
 62
7
100
AcDbPolyline
 90
30
 70
1
 10
193.006937
 20
335.289770
 30
0.0
 10
192.321937
 20
335.435370
 30
0.0
 10
191.682137
 20
335.720170
 30
0.0
 10
191.115537
 20
336.131870
 30
0.0
 10
190.646937
 20
336.652271
 30
0.0
 10
190.296737
 20
337.258770
 30
0.0
 10
190.080337
 20
337.924872
 30
0.0
 10
190.007137
 20
338.621371
 30
0.0
 10
190.080337
 20
339.317871
 30
0.0
 10
190.296737
 20
339.983970
 30
0.0
 10
190.646937
 20
340.590472
 30
0.0
 10
191.115537
 20
341.110870
 30
0.0
 10
191.682137
 20
341.522570
 30
0.0
 10
192.321937
 20
341.807370
 30
0.0
 10
193.006937
 20
341.952970
 30
0.0
 10
193.707337
 20
341.952970
 30
0.0
 10
194.392336
 20
341.807370
 30
0.0
 10
195.032138
 20
341.522570
 30
0.0
 10
195.598738
 20
341.110870
 30
0.0
 10
196.067336
 20
340.590472
 30
0.0
 10
196.417536
 20
339.983970
 30
0.0
 10
196.633936
 20
339.317871
 30
0.0
 10
196.707136
 20
338.621371
 30
0.0
 10
196.633936
 20
337.924872
 30
0.0
 10
196.417536
 20
337.258770
 30
0.0
 10
196.067336
 20
336.652271
 30
0.0
 10
195.598738
 20
336.131870
 30
0.0
 10
195.032138
 20
335.720170
 30
0.0
 10
194.392336
 20
335.435370
 30
0.0
 10
193.707337
 20
335.289770
 30
0.0
  0
LWPOLYLINE
  5
145
100
AcDbEntity
  8
0
 62
7
100
AcDbPolyline
 90
30
 70
1
 10
141.006937
 20
335.289770
 30
0.0
 10
140.321938
 20
335.435370
 30
0.0
 10
139.682135
 20
335.720170
 30
0.0
 10
139.115535
 20
336.131870
 30
0.0
 10
138.646937
 20
336.652271
 30
0.0
 10
138.296737
 20
337.258770
 30
0.0
 10
138.080337
 20
337.924872
 30
0.0
 10
138.007138
 20
338.621371
 30
0.0
 10
138.080337
 20
339.317871
 30
0.0
 10
138.296737
 20
339.983970
 30
0.0
 10
138.646937
 20
340.590472
 30
0.0
 10
139.115535
 20
341.110870
 30
0.0
 10
139.682135
 20
341.522570
 30
0.0
 10
140.321938
 20
341.807370
 30
0.0
 10
141.006937
 20
341.952970
 30
0.0
 10
141.707337
 20
341.952970
 30
0.0
 10
142.392336
 20
341.807370
 30
0.0
 10
143.032137
 20
341.522570
 30
0.0
 10
143.598736
 20
341.110870
 30
0.0
 10
144.067337
 20
340.590472
 30
0.0
 10
144.417537
 20
339.983970
 30
0.0
 10
144.633937
 20
339.317871
 30
0.0
 10
144.707137
 20
338.621371
 30
0.0
 10
144.633937
 20
337.924872
 30
0.0
 10
144.417537
 20
337.258770
 30
0.0
 10
144.067337
 20
336.652271
 30
0.0
 10
143.598736
 20
336.131870
 30
0.0
 10
143.032137
 20
335.720170
 30
0.0
 10
142.392336
 20
335.435370
 30
0.0
 10
141.707337
 20
335.289770
 30
0.0
  0
LWPOLYLINE
  5
146
100
AcDbEntity
  8
0
 62
7
100
AcDbPolyline
 90
34
 70
1
 10
167.006977
 20
293.234741
 30
0.0
 10
166.321937
 20
293.380341
 30
0.0
 10
165.682147
 20
293.665192
 30
0.0
 10
165.115557
 20
294.076857
 30
0.0
 10
164.646927
 20
294.597292
 30
0.0
 10
164.296777
 20
295.203823
 30
0.0
 10
164.080347
 20
295.869885
 30
0.0
 10
164.007146
 20
296.566374
 30
0.0
 10
164.080347
 20
297.262890
 30
0.0
 10
164.198877
 20
297.627618
 30
0.0
 10
164.324177
 20
297.691489
 30
0.0
 10
164.388127
 20
297.888286
 30
0.0
 10
164.727837
 20
298.476666
 30
0.0
 10
165.182467
 20
298.981597
 30
0.0
 10
165.732157
 20
299.380959
 30
0.0
 10
166.352836
 20
299.657316
 30
0.0
 10
167.017431
 20
299.798551
 30
0.0
 10
167.696843
 20
299.798551
 30
0.0
 10
168.361437
 20
299.657316
 30
0.0
 10
168.982137
 20
299.380959
 30
0.0
 10
169.531807
 20
298.981597
 30
0.0
 10
169.986437
 20
298.476666
 30
0.0
 10
170.326147
 20
297.888286
 30
0.0
 10
170.536107
 20
297.242094
 30
0.0
 10
170.545566
 20
297.152030
 30
0.0
 10
170.651237
 20
297.098213
 30
0.0
 10
170.707127
 20
296.566374
 30
0.0
 10
170.633927
 20
295.869885
 30
0.0
 10
170.417497
 20
295.203823
 30
0.0
 10
170.067347
 20
294.597292
 30
0.0
 10
169.598717
 20
294.076857
 30
0.0
 10
169.032127
 20
293.665192
 30
0.0
 10
168.392337
 20
293.380341
 30
0.0
 10
167.707296
 20
293.234741
 30
0.0
  0
LWPOLYLINE
  5
147
100
AcDbEntity
  8
0
 62
7
100
AcDbPolyline
 90
47
 70
1
 10
76.779616
 20
287.113923
 30
0.0
 10
79.071426
 20
288.134315
 30
0.0
 10
81.100986
 20
289.608891
 30
0.0
 10
82.779617
 20
291.473198
 30
0.0
 10
84.033926
 20
293.645798
 30
0.0
 10
84.724427
 20
295.770878
 30
0.0
 10
101.119027
 20
327.947016
 30
0.0
 10
101.161628
 20
327.956012
 30
0.0
 10
103.071427
 20
328.806330
 30
0.0
 10
104.762726
 20
330.035134
 30
0.0
 10
106.161626
 20
331.588723
 30
0.0
 10
107.206926
 20
333.399224
 30
0.0
 10
107.852927
 20
335.387523
 30
0.0
 10
108.071425
 20
337.466624
 30
0.0
 10
107.852927
 20
339.545722
 30
0.0
 10
107.206926
 20
341.534024
 30
0.0
 10
106.161626
 20
343.344422
 30
0.0
 10
104.762726
 20
344.898024
 30
0.0
 10
103.071427
 20
346.126923
 30
0.0
 10
101.161628
 20
346.977223
 30
0.0
 10
99.116726
 20
347.411825
 30
0.0
 10
97.071426
 20
347.411825
 30
0.0
 10
97.071426
 20
347.526622
 30
0.0
 10
49.071427
 20
347.526622
 30
0.0
 10
49.071427
 20
347.411825
 30
0.0
 10
47.026126
 20
347.411825
 30
0.0
 10
44.981225
 20
346.977223
 30
0.0
 10
43.071426
 20
346.126923
 30
0.0
 10
41.380127
 20
344.898024
 30
0.0
 10
39.981227
 20
343.344422
 30
0.0
 10
38.935927
 20
341.534024
 30
0.0
 10
38.289926
 20
339.545722
 30
0.0
 10
38.071428
 20
337.466624
 30
0.0
 10
38.289926
 20
335.387523
 30
0.0
 10
38.935927
 20
333.399224
 30
0.0
 10
39.981227
 20
331.588723
 30
0.0
 10
41.380127
 20
330.035134
 30
0.0
 10
43.071426
 20
328.806330
 30
0.0
 10
44.254425
 20
328.279624
 30
0.0
 10
62.409026
 20
292.649324
 30
0.0
 10
62.621626
 20
292.757671
 30
0.0
 10
63.363236
 20
291.473198
 30
0.0
 10
65.041867
 20
289.608891
 30
0.0
 10
67.071427
 20
288.134315
 30
0.0
 10
69.363237
 20
287.113923
 30
0.0
 10
71.817096
 20
286.592429
 30
0.0
 10
74.325756
 20
286.592429
 30
0.0
  0
LWPOLYLINE
  5
148
100
AcDbEntity
  8
0
 62
7
100
AcDbPolyline
 90
38
 70
1
 10
72.783982
 20
333.731723
 30
0.0
 10
72.221635
 20
333.851222
 30
0.0
 10
71.696427
 20
334.085024
 30
0.0
 10
71.231326
 20
334.422923
 30
0.0
 10
70.846636
 20
334.850223
 30
0.0
 10
70.559187
 20
335.348124
 30
0.0
 10
70.381526
 20
335.894824
 30
0.0
 10
70.321426
 20
336.466623
 30
0.0
 10
70.373996
 20
336.966622
 30
0.0
 10
70.321426
 20
337.466624
 30
0.0
 10
70.373996
 20
337.966623
 30
0.0
 10
70.321426
 20
338.466624
 30
0.0
 10
70.381526
 20
339.038323
 30
0.0
 10
70.559187
 20
339.585124
 30
0.0
 10
70.846636
 20
340.083022
 30
0.0
 10
71.231326
 20
340.510224
 30
0.0
 10
71.696446
 20
340.848224
 30
0.0
 10
72.221635
 20
341.082023
 30
0.0
 10
72.783982
 20
341.201525
 30
0.0
 10
73.358871
 20
341.201525
 30
0.0
 10
73.921218
 20
341.082023
 30
0.0
 10
74.446426
 20
340.848224
 30
0.0
 10
74.911527
 20
340.510224
 30
0.0
 10
75.296216
 20
340.083022
 30
0.0
 10
75.583666
 20
339.585124
 30
0.0
 10
75.761326
 20
339.038323
 30
0.0
 10
75.821426
 20
338.466624
 30
0.0
 10
75.768856
 20
337.966623
 30
0.0
 10
75.821426
 20
337.466624
 30
0.0
 10
75.768856
 20
336.966622
 30
0.0
 10
75.821426
 20
336.466623
 30
0.0
 10
75.761326
 20
335.894824
 30
0.0
 10
75.583666
 20
335.348124
 30
0.0
 10
75.296216
 20
334.850223
 30
0.0
 10
74.911527
 20
334.422923
 30
0.0
 10
74.446426
 20
334.085024
 30
0.0
 10
73.921218
 20
333.851222
 30
0.0
 10
73.358871
 20
333.731723
 30
0.0
  0
LWPOLYLINE
  5
149
100
AcDbEntity
  8
0
 62
7
100
AcDbPolyline
 90
30
 70
1
 10
98.721226
 20
334.135022
 30
0.0
 10
98.036227
 20
334.280622
 30
0.0
 10
97.396426
 20
334.565423
 30
0.0
 10
96.829827
 20
334.977122
 30
0.0
 10
96.361226
 20
335.497523
 30
0.0
 10
96.011026
 20
336.104022
 30
0.0
 10
95.794627
 20
336.770124
 30
0.0
 10
95.721426
 20
337.466624
 30
0.0
 10
95.794627
 20
338.163124
 30
0.0
 10
96.011026
 20
338.829223
 30
0.0
 10
96.361226
 20
339.435724
 30
0.0
 10
96.829827
 20
339.956123
 30
0.0
 10
97.396426
 20
340.367822
 30
0.0
 10
98.036227
 20
340.652623
 30
0.0
 10
98.721226
 20
340.798223
 30
0.0
 10
99.421626
 20
340.798223
 30
0.0
 10
100.106626
 20
340.652623
 30
0.0
 10
100.746428
 20
340.367822
 30
0.0
 10
101.313028
 20
339.956123
 30
0.0
 10
101.781626
 20
339.435724
 30
0.0
 10
102.131826
 20
338.829223
 30
0.0
 10
102.348226
 20
338.163124
 30
0.0
 10
102.421425
 20
337.466624
 30
0.0
 10
102.348226
 20
336.770124
 30
0.0
 10
102.131826
 20
336.104022
 30
0.0
 10
101.781626
 20
335.497523
 30
0.0
 10
101.313028
 20
334.977122
 30
0.0
 10
100.746428
 20
334.565423
 30
0.0
 10
100.106626
 20
334.280622
 30
0.0
 10
99.421626
 20
334.135022
 30
0.0
  0
LWPOLYLINE
  5
14a
100
AcDbEntity
  8
0
 62
7
100
AcDbPolyline
 90
30
 70
1
 10
46.721226
 20
334.135022
 30
0.0
 10
46.036227
 20
334.280622
 30
0.0
 10
45.396425
 20
334.565423
 30
0.0
 10
44.829825
 20
334.977122
 30
0.0
 10
44.361227
 20
335.497523
 30
0.0
 10
44.011027
 20
336.104022
 30
0.0
 10
43.794627
 20
336.770124
 30
0.0
 10
43.721427
 20
337.466624
 30
0.0
 10
43.794627
 20
338.163124
 30
0.0
 10
44.011027
 20
338.829223
 30
0.0
 10
44.361227
 20
339.435724
 30
0.0
 10
44.829825
 20
339.956123
 30
0.0
 10
45.396425
 20
340.367822
 30
0.0
 10
46.036227
 20
340.652623
 30
0.0
 10
46.721226
 20
340.798223
 30
0.0
 10
47.421626
 20
340.798223
 30
0.0
 10
48.106626
 20
340.652623
 30
0.0
 10
48.746426
 20
340.367822
 30
0.0
 10
49.313026
 20
339.956123
 30
0.0
 10
49.781626
 20
339.435724
 30
0.0
 10
50.131827
 20
338.829223
 30
0.0
 10
50.348226
 20
338.163124
 30
0.0
 10
50.421426
 20
337.466624
 30
0.0
 10
50.348226
 20
336.770124
 30
0.0
 10
50.131827
 20
336.104022
 30
0.0
 10
49.781626
 20
335.497523
 30
0.0
 10
49.313026
 20
334.977122
 30
0.0
 10
48.746426
 20
334.565423
 30
0.0
 10
48.106626
 20
334.280622
 30
0.0
 10
47.421626
 20
334.135022
 30
0.0
  0
LWPOLYLINE
  5
14b
100
AcDbEntity
  8
0
 62
7
100
AcDbPolyline
 90
34
 70
1
 10
72.721267
 20
292.079994
 30
0.0
 10
72.036226
 20
292.225594
 30
0.0
 10
71.396436
 20
292.510444
 30
0.0
 10
70.829847
 20
292.922109
 30
0.0
 10
70.361217
 20
293.442545
 30
0.0
 10
70.011066
 20
294.049076
 30
0.0
 10
69.794636
 20
294.715138
 30
0.0
 10
69.721436
 20
295.411627
 30
0.0
 10
69.794636
 20
296.108143
 30
0.0
 10
69.913166
 20
296.472871
 30
0.0
 10
70.038466
 20
296.536741
 30
0.0
 10
70.102416
 20
296.733538
 30
0.0
 10
70.442126
 20
297.321919
 30
0.0
 10
70.896756
 20
297.826849
 30
0.0
 10
71.446446
 20
298.226211
 30
0.0
 10
72.067126
 20
298.502569
 30
0.0
 10
72.731720
 20
298.643803
 30
0.0
 10
73.411132
 20
298.643803
 30
0.0
 10
74.075727
 20
298.502569
 30
0.0
 10
74.696426
 20
298.226211
 30
0.0
 10
75.246096
 20
297.826849
 30
0.0
 10
75.700726
 20
297.321919
 30
0.0
 10
76.040436
 20
296.733538
 30
0.0
 10
76.250397
 20
296.087346
 30
0.0
 10
76.259855
 20
295.997282
 30
0.0
 10
76.365527
 20
295.943466
 30
0.0
 10
76.421417
 20
295.411627
 30
0.0
 10
76.348216
 20
294.715138
 30
0.0
 10
76.131786
 20
294.049076
 30
0.0
 10
75.781636
 20
293.442545
 30
0.0
 10
75.313006
 20
292.922109
 30
0.0
 10
74.746416
 20
292.510444
 30
0.0
 10
74.106626
 20
292.225594
 30
0.0
 10
73.421586
 20
292.079994
 30
0.0
  0
LWPOLYLINE
  5
14c
100
AcDbEntity
  8
0
 62
7
100
AcDbPolyline
 90
24
 70
1
 10
408.940101
 20
153.877636
 30
0.0
 10
410.201401
 20
154.439135
 30
0.0
 10
411.318300
 20
155.250635
 30
0.0
 10
412.242101
 20
156.276637
 30
0.0
 10
412.932502
 20
157.472336
 30
0.0
 10
413.359100
 20
158.785336
 30
0.0
 10
413.503401
 20
160.158437
 30
0.0
 10
413.359100
 20
161.531436
 30
0.0
 10
412.932502
 20
162.844534
 30
0.0
 10
412.242101
 20
164.040136
 30
0.0
 10
411.318300
 20
165.066135
 30
0.0
 10
411.065001
 20
165.250237
 30
0.0
 10
411.065001
 20
191.776335
 30
0.0
 10
380.077001
 20
191.776335
 30
0.0
 10
380.077001
 20
159.467535
 30
0.0
 10
400.368001
 20
159.467535
 30
0.0
 10
400.439701
 20
158.785336
 30
0.0
 10
400.866301
 20
157.472336
 30
0.0
 10
401.556601
 20
156.276637
 30
0.0
 10
402.480501
 20
155.250635
 30
0.0
 10
403.597401
 20
154.439135
 30
0.0
 10
404.858601
 20
153.877636
 30
0.0
 10
406.209101
 20
153.590634
 30
0.0
 10
407.589702
 20
153.590634
 30
0.0
  0
LWPOLYLINE
  5
14d
100
AcDbEntity
  8
0
 62
7
100
AcDbPolyline
 90
30
 70
1
 10
390.020371
 20
178.456935
 30
0.0
 10
389.437611
 20
178.580834
 30
0.0
 10
388.893331
 20
178.823135
 30
0.0
 10
388.411341
 20
179.173334
 30
0.0
 10
388.012671
 20
179.616136
 30
0.0
 10
387.714771
 20
180.132036
 30
0.0
 10
387.530671
 20
180.698636
 30
0.0
 10
387.468391
 20
181.291237
 30
0.0
 10
387.530671
 20
181.883737
 30
0.0
 10
387.714771
 20
182.450337
 30
0.0
 10
388.012671
 20
182.966335
 30
0.0
 10
388.411341
 20
183.409136
 30
0.0
 10
388.893331
 20
183.759236
 30
0.0
 10
389.437611
 20
184.001636
 30
0.0
 10
390.020371
 20
184.125535
 30
0.0
 10
390.616201
 20
184.125535
 30
0.0
 10
391.198901
 20
184.001636
 30
0.0
 10
391.743201
 20
183.759236
 30
0.0
 10
392.225201
 20
183.409136
 30
0.0
 10
392.623901
 20
182.966335
 30
0.0
 10
392.921801
 20
182.450337
 30
0.0
 10
393.105901
 20
181.883737
 30
0.0
 10
393.168201
 20
181.291237
 30
0.0
 10
393.105901
 20
180.698636
 30
0.0
 10
392.921801
 20
180.132036
 30
0.0
 10
392.623901
 20
179.616136
 30
0.0
 10
392.225201
 20
179.173334
 30
0.0
 10
391.743201
 20
178.823135
 30
0.0
 10
391.198901
 20
178.580834
 30
0.0
 10
390.616201
 20
178.456935
 30
0.0
  0
LWPOLYLINE
  5
14e
100
AcDbEntity
  8
0
 62
7
100
AcDbPolyline
 90
30
 70
1
 10
406.897602
 20
179.117137
 30
0.0
 10
406.417201
 20
179.219237
 30
0.0
 10
405.968501
 20
179.419034
 30
0.0
 10
405.571101
 20
179.707737
 30
0.0
 10
405.242501
 20
180.072735
 30
0.0
 10
404.996901
 20
180.498135
 30
0.0
 10
404.845101
 20
180.965236
 30
0.0
 10
404.793701
 20
181.453736
 30
0.0
 10
404.845101
 20
181.942236
 30
0.0
 10
404.996901
 20
182.409435
 30
0.0
 10
405.242501
 20
182.834736
 30
0.0
 10
405.571101
 20
183.199835
 30
0.0
 10
405.968501
 20
183.488535
 30
0.0
 10
406.417201
 20
183.688235
 30
0.0
 10
406.897602
 20
183.790435
 30
0.0
 10
407.388801
 20
183.790435
 30
0.0
 10
407.869300
 20
183.688235
 30
0.0
 10
408.318002
 20
183.488535
 30
0.0
 10
408.715400
 20
183.199835
 30
0.0
 10
409.044002
 20
182.834736
 30
0.0
 10
409.289602
 20
182.409435
 30
0.0
 10
409.441401
 20
181.942236
 30
0.0
 10
409.492701
 20
181.453736
 30
0.0
 10
409.441401
 20
180.965236
 30
0.0
 10
409.289602
 20
180.498135
 30
0.0
 10
409.044002
 20
180.072735
 30
0.0
 10
408.715400
 20
179.707737
 30
0.0
 10
408.318002
 20
179.419034
 30
0.0
 10
407.869300
 20
179.219237
 30
0.0
 10
407.388801
 20
179.117137
 30
0.0
  0
LWPOLYLINE
  5
14f
100
AcDbEntity
  8
0
 62
7
100
AcDbPolyline
 90
30
 70
1
 10
406.601501
 20
157.324135
 30
0.0
 10
406.018701
 20
157.448037
 30
0.0
 10
405.474401
 20
157.690335
 30
0.0
 10
404.992501
 20
158.040537
 30
0.0
 10
404.593801
 20
158.483336
 30
0.0
 10
404.295901
 20
158.999236
 30
0.0
 10
404.111801
 20
159.565937
 30
0.0
 10
404.049501
 20
160.158437
 30
0.0
 10
404.111801
 20
160.750937
 30
0.0
 10
404.295901
 20
161.317537
 30
0.0
 10
404.593801
 20
161.833535
 30
0.0
 10
404.992501
 20
162.276336
 30
0.0
 10
405.474401
 20
162.626436
 30
0.0
 10
406.018701
 20
162.868836
 30
0.0
 10
406.601501
 20
162.992635
 30
0.0
 10
407.197301
 20
162.992635
 30
0.0
 10
407.780001
 20
162.868836
 30
0.0
 10
408.324301
 20
162.626436
 30
0.0
 10
408.806301
 20
162.276336
 30
0.0
 10
409.205001
 20
161.833535
 30
0.0
 10
409.502901
 20
161.317537
 30
0.0
 10
409.687001
 20
160.750937
 30
0.0
 10
409.749302
 20
160.158437
 30
0.0
 10
409.687001
 20
159.565937
 30
0.0
 10
409.502901
 20
158.999236
 30
0.0
 10
409.205001
 20
158.483336
 30
0.0
 10
408.806301
 20
158.040537
 30
0.0
 10
408.324301
 20
157.690335
 30
0.0
 10
407.780001
 20
157.448037
 30
0.0
 10
407.197301
 20
157.324135
 30
0.0
  0
LWPOLYLINE
  5
150
100
AcDbEntity
  8
0
 62
7
100
AcDbPolyline
 90
24
 70
1
 10
413.905462
 20
249.315284
 30
0.0
 10
414.158761
 20
249.499275
 30
0.0
 10
415.082561
 20
250.525276
 30
0.0
 10
415.772962
 20
251.720981
 30
0.0
 10
416.199561
 20
253.033976
 30
0.0
 10
416.343862
 20
254.406978
 30
0.0
 10
416.199561
 20
255.780076
 30
0.0
 10
415.772962
 20
257.093076
 30
0.0
 10
415.082561
 20
258.288775
 30
0.0
 10
414.158761
 20
259.314774
 30
0.0
 10
413.041862
 20
260.126275
 30
0.0
 10
411.780561
 20
260.687774
 30
0.0
 10
410.430162
 20
260.974876
 30
0.0
 10
409.049562
 20
260.974876
 30
0.0
 10
407.699062
 20
260.687774
 30
0.0
 10
406.437862
 20
260.126275
 30
0.0
 10
405.320962
 20
259.314774
 30
0.0
 10
404.397062
 20
258.288775
 30
0.0
 10
403.706762
 20
257.093076
 30
0.0
 10
403.280162
 20
255.780076
 30
0.0
 10
403.193562
 20
254.955671
 30
0.0
 10
382.917462
 20
254.955671
 30
0.0
 10
382.917462
 20
222.646871
 30
0.0
 10
413.905462
 20
222.646871
 30
0.0
  0
LWPOLYLINE
  5
151
100
AcDbEntity
  8
0
 62
7
100
AcDbPolyline
 90
30
 70
1
 10
409.441962
 20
251.572788
 30
0.0
 10
408.859162
 20
251.696666
 30
0.0
 10
408.314862
 20
251.938971
 30
0.0
 10
407.832962
 20
252.289174
 30
0.0
 10
407.434262
 20
252.731875
 30
0.0
 10
407.136362
 20
253.247865
 30
0.0
 10
406.952262
 20
253.814470
 30
0.0
 10
406.889962
 20
254.406978
 30
0.0
 10
406.952262
 20
254.999565
 30
0.0
 10
407.136362
 20
255.566176
 30
0.0
 10
407.434262
 20
256.082174
 30
0.0
 10
407.832962
 20
256.524875
 30
0.0
 10
408.314862
 20
256.875075
 30
0.0
 10
408.859162
 20
257.117476
 30
0.0
 10
409.441962
 20
257.241274
 30
0.0
 10
410.037762
 20
257.241274
 30
0.0
 10
410.620461
 20
257.117476
 30
0.0
 10
411.164762
 20
256.875075
 30
0.0
 10
411.646762
 20
256.524875
 30
0.0
 10
412.045462
 20
256.082174
 30
0.0
 10
412.343362
 20
255.566176
 30
0.0
 10
412.527462
 20
254.999565
 30
0.0
 10
412.589763
 20
254.406978
 30
0.0
 10
412.527462
 20
253.814470
 30
0.0
 10
412.343362
 20
253.247865
 30
0.0
 10
412.045462
 20
252.731875
 30
0.0
 10
411.646762
 20
252.289174
 30
0.0
 10
411.164762
 20
251.938971
 30
0.0
 10
410.620461
 20
251.696666
 30
0.0
 10
410.037762
 20
251.572788
 30
0.0
  0
LWPOLYLINE
  5
152
100
AcDbEntity
  8
0
 62
7
100
AcDbPolyline
 90
30
 70
1
 10
392.921762
 20
244.318469
 30
0.0
 10
392.339032
 20
244.442373
 30
0.0
 10
391.794752
 20
244.684678
 30
0.0
 10
391.312752
 20
245.034881
 30
0.0
 10
390.914092
 20
245.477688
 30
0.0
 10
390.616192
 20
245.993678
 30
0.0
 10
390.432092
 20
246.560283
 30
0.0
 10
390.369812
 20
247.152765
 30
0.0
 10
390.432092
 20
247.745273
 30
0.0
 10
390.616192
 20
248.311984
 30
0.0
 10
390.914092
 20
248.827868
 30
0.0
 10
391.312752
 20
249.270675
 30
0.0
 10
391.794752
 20
249.620877
 30
0.0
 10
392.339032
 20
249.863183
 30
0.0
 10
392.921762
 20
249.987087
 30
0.0
 10
393.517562
 20
249.987087
 30
0.0
 10
394.100362
 20
249.863183
 30
0.0
 10
394.644662
 20
249.620877
 30
0.0
 10
395.126662
 20
249.270675
 30
0.0
 10
395.525262
 20
248.827868
 30
0.0
 10
395.823162
 20
248.311984
 30
0.0
 10
396.007262
 20
247.745273
 30
0.0
 10
396.069562
 20
247.152765
 30
0.0
 10
396.007262
 20
246.560283
 30
0.0
 10
395.823162
 20
245.993678
 30
0.0
 10
395.525262
 20
245.477688
 30
0.0
 10
395.126662
 20
245.034881
 30
0.0
 10
394.644662
 20
244.684678
 30
0.0
 10
394.100362
 20
244.442373
 30
0.0
 10
393.517562
 20
244.318469
 30
0.0
  0
LWPOLYLINE
  5
153
100
AcDbEntity
  8
0
 62
7
100
AcDbPolyline
 90
30
 70
1
 10
409.677161
 20
230.612496
 30
0.0
 10
409.196662
 20
230.714599
 30
0.0
 10
408.747962
 20
230.914386
 30
0.0
 10
408.350662
 20
231.203073
 30
0.0
 10
408.021962
 20
231.568092
 30
0.0
 10
407.776362
 20
231.993463
 30
0.0
 10
407.624562
 20
232.460637
 30
0.0
 10
407.573262
 20
232.949085
 30
0.0
 10
407.624562
 20
233.437585
 30
0.0
 10
407.776362
 20
233.904786
 30
0.0
 10
408.021962
 20
234.330077
 30
0.0
 10
408.350662
 20
234.695070
 30
0.0
 10
408.747962
 20
234.983863
 30
0.0
 10
409.196662
 20
235.183570
 30
0.0
 10
409.677161
 20
235.285779
 30
0.0
 10
410.168363
 20
235.285779
 30
0.0
 10
410.648761
 20
235.183570
 30
0.0
 10
411.097463
 20
234.983863
 30
0.0
 10
411.494862
 20
234.695070
 30
0.0
 10
411.823561
 20
234.330077
 30
0.0
 10
412.069063
 20
233.904786
 30
0.0
 10
412.220862
 20
233.437585
 30
0.0
 10
412.272263
 20
232.949085
 30
0.0
 10
412.220862
 20
232.460637
 30
0.0
 10
412.069063
 20
231.993463
 30
0.0
 10
411.823561
 20
231.568092
 30
0.0
 10
411.494862
 20
231.203073
 30
0.0
 10
411.097463
 20
230.914386
 30
0.0
 10
410.648761
 20
230.714599
 30
0.0
 10
410.168363
 20
230.612496
 30
0.0
  0
ENDSEC
  0
SECTION
  2
OBJECTS
  0
DICTIONARY
  5
C
330
0
100
AcDbDictionary
  3
ACAD_GROUP
350
D
  3
ACAD_MLINESTYLE
350
17
  0
DICTIONARY
  5
D
330
C
100
AcDbDictionary
  0
DICTIONARY
  5
1A
330
C
100
AcDbDictionary
  0
DICTIONARY
  5
17
330
C
100
AcDbDictionary
  3
STANDARD
350
18
  0
DICTIONARY
  5
19
330
C
100
AcDbDictionary
  0
ENDSEC
  0
EOF
