  0
SECTION
  2
HEADER
  9
$ACADVER
  1
AC1014
  9
$HANDSEED
  5
FFFF
  9
$MEASUREMENT
 70
     1
  0
ENDSEC
  0
SECTION
  2
TABLES
  0
TABLE
  2
VPORT
  5
8
330
0
100
AcDbSymbolTable
 70
     4
  0
VPORT
  5
2E
330
8
100
AcDbSymbolTableRecord
100
AcDbViewportTableRecord
  2
*ACTIVE
 70
     0
 10
0.0
 20
0.0
 11
1.0
 21
1.0
 12
210.0
 22
148.5
 13
0.0
 23
0.0
 14
10.0
 24
10.0
 15
10.0
 25
10.0
 16
0.0
 26
0.0
 36
1.0
 17
0.0
 27
0.0
 37
0.0
 40
341.0
 41
1.24
 42
50.0
 43
0.0
 44
0.0
 50
0.0
 51
0.0
 71
     0
 72
   100
 73
     1
 74
     3
 75
     0
 76
     0
 77
     0
 78
     0
  0
ENDTAB
  0
TABLE
  2
LTYPE
  5
5
330
0
100
AcDbSymbolTable
 70
     1
  0
LTYPE
  5
14
330
5
100
AcDbSymbolTableRecord
100
AcDbLinetypeTableRecord
  2
BYBLOCK
 70
     0
  3

 72
    65
 73
     0
 40
0.0
  0
LTYPE
  5
15
330
5
100
AcDbSymbolTableRecord
100
AcDbLinetypeTableRecord
  2
BYLAYER
 70
     0
  3

 72
    65
 73
     0
 40
0.0
  0
LTYPE
  5
16
330
5
100
AcDbSymbolTableRecord
100
AcDbLinetypeTableRecord
  2
CONTINUOUS
 70
     0
  3
Solid line
 72
    65
 73
     0
 40
0.0
  0
ENDTAB
  0
TABLE
  2
LAYER
  5
2
100
AcDbSymbolTable
 70
2
  0
LAYER
  5
50
100
AcDbSymbolTableRecord
100
AcDbLayerTableRecord
  2
0
 70
0
  6
CONTINUOUS
  0
LAYER
  5
51
100
AcDbSymbolTableRecord
100
AcDbLayerTableRecord
  2
Layer_1
 70
0
  6
CONTINUOUS
  0
ENDTAB
  0
TABLE
  2
STYLE
  5
3
330
0
100
AcDbSymbolTable
 70
     1
  0
STYLE
  5
11
330
3
100
AcDbSymbolTableRecord
100
AcDbTextStyleTableRecord
  2
STANDARD
 70
     0
 40
0.0
 41
1.0
 50
0.0
 71
     0
 42
2.5
  3
txt
  4

  0
ENDTAB
  0
TABLE
  2
VIEW
  5
6
330
0
100
AcDbSymbolTable
 70
     0
  0
ENDTAB
  0
TABLE
  2
UCS
  5
7
330
0
100
AcDbSymbolTable
 70
     0
  0
ENDTAB
  0
TABLE
  2
APPID
  5
9
330
0
100
AcDbSymbolTable
 70
     2
  0
APPID
  5
12
330
9
100
AcDbSymbolTableRecord
100
AcDbRegAppTableRecord
  2
ACAD
 70
     0
  0
ENDTAB
  0
TABLE
  2
DIMSTYLE
  5
A
330
0
100
AcDbSymbolTable
 70
     1
  0
DIMSTYLE
105
27
330
A
100
AcDbSymbolTableRecord
100
AcDbDimStyleTableRecord
  2
ISO-25
 70
     0
  3

  4

  5

  6

  7

 40
1.0
 41
2.5
 42
0.625
 43
3.75
 44
1.25
 45
0.0
 46
0.0
 47
0.0
 48
0.0
140
2.5
141
2.5
142
0.0
143
0.03937007874016
144
1.0
145
0.0
146
1.0
147
0.625
 71
     0
 72
     0
 73
     0
 74
     0
 75
     0
 76
     0
 77
     1
 78
     8
170
     0
171
     3
172
     1
173
     0
174
     0
175
     0
176
     0
177
     0
178
     0
270
     2
271
     2
272
     2
273
     2
274
     3
340
11
275
     0
280
     0
281
     0
282
     0
283
     0
284
     8
285
     0
286
     0
287
     3
288
     0
  0
ENDTAB
  0
TABLE
  2
BLOCK_RECORD
  5
1
330
0
100
AcDbSymbolTable
 70
     1
  0
BLOCK_RECORD
  5
1F
330
1
100
AcDbSymbolTableRecord
100
AcDbBlockTableRecord
  2
*MODEL_SPACE
  0
BLOCK_RECORD
  5
1B
330
1
100
AcDbSymbolTableRecord
100
AcDbBlockTableRecord
  2
*PAPER_SPACE
  0
ENDTAB
  0
ENDSEC
  0
SECTION
  2
BLOCKS
  0
BLOCK
  5
20
330
1F
100
AcDbEntity
  8
0
100
AcDbBlockBegin
  2
*MODEL_SPACE
 70
     0
 10
0.0
 20
0.0
 30
0.0
  3
*MODEL_SPACE
  1

  0
ENDBLK
  5
21
330
1F
100
AcDbEntity
  8
0
100
AcDbBlockEnd
  0
BLOCK
  5
1C
330
1B
100
AcDbEntity
 67
     1
  8
0
100
AcDbBlockBegin
  2
*PAPER_SPACE
  1

  0
ENDBLK
  5
1D
330
1B
100
AcDbEntity
 67
     1
  8
0
100
AcDbBlockEnd
  0
ENDSEC
  0
SECTION
  2
ENTITIES
  0
LWPOLYLINE
  5
100
100
AcDbEntity
  8
Layer_1
 62
7
100
AcDbPolyline
 90
4
 70
1
 10
108.664676
 20
16.113423
 30
0.0
 10
0.105537
 20
16.113423
 30
0.0
 10
0.105537
 20
0.105537
 30
0.0
 10
108.664676
 20
0.105537
 30
0.0
  0
LWPOLYLINE
  5
101
100
AcDbEntity
  8
Layer_1
 62
7
100
AcDbPolyline
 90
30
 70
1
 10
29.687963
 20
11.789975
 30
0.0
 10
29.587685
 20
11.811039
 30
0.0
 10
29.494287
 20
11.852664
 30
0.0
 10
29.411472
 20
11.912854
 30
0.0
 10
29.342944
 20
11.988899
 30
0.0
 10
29.291880
 20
12.077511
 30
0.0
 10
29.260129
 20
12.174866
 30
0.0
 10
29.249545
 20
12.276596
 30
0.0
 10
29.260129
 20
12.378354
 30
0.0
 10
29.291880
 20
12.475709
 30
0.0
 10
29.342944
 20
12.564321
 30
0.0
 10
29.411472
 20
12.640374
 30
0.0
 10
29.494287
 20
12.700500
 30
0.0
 10
29.587685
 20
12.742132
 30
0.0
 10
29.687963
 20
12.763462
 30
0.0
 10
29.790093
 20
12.763462
 30
0.0
 10
29.890370
 20
12.742132
 30
0.0
 10
29.983768
 20
12.700500
 30
0.0
 10
30.066584
 20
12.640374
 30
0.0
 10
30.135112
 20
12.564321
 30
0.0
 10
30.186177
 20
12.475709
 30
0.0
 10
30.217927
 20
12.378354
 30
0.0
 10
30.228511
 20
12.276596
 30
0.0
 10
30.217927
 20
12.174866
 30
0.0
 10
30.186177
 20
12.077511
 30
0.0
 10
30.135112
 20
11.988899
 30
0.0
 10
30.066584
 20
11.912854
 30
0.0
 10
29.983768
 20
11.852664
 30
0.0
 10
29.890370
 20
11.811039
 30
0.0
 10
29.790093
 20
11.789975
 30
0.0
  0
LWPOLYLINE
  5
102
100
AcDbEntity
  8
Layer_1
 62
7
100
AcDbPolyline
 90
30
 70
1
 10
87.896622
 20
11.789975
 30
0.0
 10
87.796333
 20
11.811039
 30
0.0
 10
87.702941
 20
11.852664
 30
0.0
 10
87.620125
 20
11.912854
 30
0.0
 10
87.551598
 20
11.988899
 30
0.0
 10
87.500530
 20
12.077511
 30
0.0
 10
87.468776
 20
12.174866
 30
0.0
 10
87.458191
 20
12.276596
 30
0.0
 10
87.468776
 20
12.378354
 30
0.0
 10
87.500530
 20
12.475709
 30
0.0
 10
87.551598
 20
12.564321
 30
0.0
 10
87.620125
 20
12.640374
 30
0.0
 10
87.702941
 20
12.700500
 30
0.0
 10
87.796333
 20
12.742132
 30
0.0
 10
87.896622
 20
12.763462
 30
0.0
 10
87.998751
 20
12.763462
 30
0.0
 10
88.099025
 20
12.742132
 30
0.0
 10
88.192425
 20
12.700500
 30
0.0
 10
88.275233
 20
12.640374
 30
0.0
 10
88.343760
 20
12.564321
 30
0.0
 10
88.394828
 20
12.475709
 30
0.0
 10
88.426582
 20
12.378354
 30
0.0
 10
88.437167
 20
12.276596
 30
0.0
 10
88.426582
 20
12.174866
 30
0.0
 10
88.394828
 20
12.077511
 30
0.0
 10
88.343760
 20
11.988899
 30
0.0
 10
88.275233
 20
11.912854
 30
0.0
 10
88.192425
 20
11.852664
 30
0.0
 10
88.099025
 20
11.811039
 30
0.0
 10
87.998751
 20
11.789975
 30
0.0
  0
LWPOLYLINE
  5
103
100
AcDbEntity
  8
Layer_1
 62
7
100
AcDbPolyline
 90
30
 70
1
 10
74.667384
 20
11.789975
 30
0.0
 10
74.567102
 20
11.811039
 30
0.0
 10
74.473710
 20
11.852664
 30
0.0
 10
74.390887
 20
11.912854
 30
0.0
 10
74.322367
 20
11.988899
 30
0.0
 10
74.271292
 20
12.077511
 30
0.0
 10
74.239545
 20
12.174866
 30
0.0
 10
74.228960
 20
12.276596
 30
0.0
 10
74.239545
 20
12.378354
 30
0.0
 10
74.271292
 20
12.475709
 30
0.0
 10
74.322367
 20
12.564321
 30
0.0
 10
74.390887
 20
12.640374
 30
0.0
 10
74.473710
 20
12.700500
 30
0.0
 10
74.567102
 20
12.742132
 30
0.0
 10
74.667384
 20
12.763462
 30
0.0
 10
74.769506
 20
12.763462
 30
0.0
 10
74.869787
 20
12.742132
 30
0.0
 10
74.963187
 20
12.700500
 30
0.0
 10
75.045995
 20
12.640374
 30
0.0
 10
75.114522
 20
12.564321
 30
0.0
 10
75.165590
 20
12.475709
 30
0.0
 10
75.197344
 20
12.378354
 30
0.0
 10
75.207922
 20
12.276596
 30
0.0
 10
75.197344
 20
12.174866
 30
0.0
 10
75.165590
 20
12.077511
 30
0.0
 10
75.114522
 20
11.988899
 30
0.0
 10
75.045995
 20
11.912854
 30
0.0
 10
74.963187
 20
11.852664
 30
0.0
 10
74.869787
 20
11.811039
 30
0.0
 10
74.769506
 20
11.789975
 30
0.0
  0
LWPOLYLINE
  5
104
100
AcDbEntity
  8
Layer_1
 62
7
100
AcDbPolyline
 90
30
 70
1
 10
61.438138
 20
11.789975
 30
0.0
 10
61.337857
 20
11.811039
 30
0.0
 10
61.244460
 20
11.852664
 30
0.0
 10
61.161645
 20
11.912854
 30
0.0
 10
61.093117
 20
11.988899
 30
0.0
 10
61.042054
 20
12.077511
 30
0.0
 10
61.010303
 20
12.174866
 30
0.0
 10
60.999719
 20
12.276596
 30
0.0
 10
61.010303
 20
12.378354
 30
0.0
 10
61.042054
 20
12.475709
 30
0.0
 10
61.093117
 20
12.564321
 30
0.0
 10
61.161645
 20
12.640374
 30
0.0
 10
61.244460
 20
12.700500
 30
0.0
 10
61.337857
 20
12.742132
 30
0.0
 10
61.438138
 20
12.763462
 30
0.0
 10
61.540269
 20
12.763462
 30
0.0
 10
61.640543
 20
12.742132
 30
0.0
 10
61.733941
 20
12.700500
 30
0.0
 10
61.816756
 20
12.640374
 30
0.0
 10
61.885285
 20
12.564321
 30
0.0
 10
61.936354
 20
12.475709
 30
0.0
 10
61.968099
 20
12.378354
 30
0.0
 10
61.978683
 20
12.276596
 30
0.0
 10
61.968099
 20
12.174866
 30
0.0
 10
61.936354
 20
12.077511
 30
0.0
 10
61.885285
 20
11.988899
 30
0.0
 10
61.816756
 20
11.912854
 30
0.0
 10
61.733941
 20
11.852664
 30
0.0
 10
61.640543
 20
11.811039
 30
0.0
 10
61.540269
 20
11.789975
 30
0.0
  0
LWPOLYLINE
  5
105
100
AcDbEntity
  8
Layer_1
 62
7
100
AcDbPolyline
 90
30
 70
1
 10
42.917200
 20
11.789975
 30
0.0
 10
42.816924
 20
11.811039
 30
0.0
 10
42.723526
 20
11.852664
 30
0.0
 10
42.640710
 20
11.912854
 30
0.0
 10
42.572183
 20
11.988899
 30
0.0
 10
42.521118
 20
12.077511
 30
0.0
 10
42.489367
 20
12.174866
 30
0.0
 10
42.478784
 20
12.276596
 30
0.0
 10
42.489367
 20
12.378354
 30
0.0
 10
42.521118
 20
12.475709
 30
0.0
 10
42.572183
 20
12.564321
 30
0.0
 10
42.640710
 20
12.640374
 30
0.0
 10
42.723526
 20
12.700500
 30
0.0
 10
42.816924
 20
12.742132
 30
0.0
 10
42.917200
 20
12.763462
 30
0.0
 10
43.019331
 20
12.763462
 30
0.0
 10
43.119608
 20
12.742132
 30
0.0
 10
43.213007
 20
12.700500
 30
0.0
 10
43.295822
 20
12.640374
 30
0.0
 10
43.364350
 20
12.564321
 30
0.0
 10
43.415414
 20
12.475709
 30
0.0
 10
43.447165
 20
12.378354
 30
0.0
 10
43.457748
 20
12.276596
 30
0.0
 10
43.447165
 20
12.174866
 30
0.0
 10
43.415414
 20
12.077511
 30
0.0
 10
43.364350
 20
11.988899
 30
0.0
 10
43.295822
 20
11.912854
 30
0.0
 10
43.213007
 20
11.852664
 30
0.0
 10
43.119608
 20
11.811039
 30
0.0
 10
43.019331
 20
11.789975
 30
0.0
  0
LWPOLYLINE
  5
106
100
AcDbEntity
  8
Layer_1
 62
7
100
AcDbPolyline
 90
30
 70
1
 10
16.458621
 20
11.789975
 30
0.0
 10
16.358529
 20
11.811039
 30
0.0
 10
16.265052
 20
11.852664
 30
0.0
 10
16.182262
 20
11.912854
 30
0.0
 10
16.113788
 20
11.988899
 30
0.0
 10
16.062618
 20
12.077511
 30
0.0
 10
16.030999
 20
12.174866
 30
0.0
 10
16.020416
 20
12.276596
 30
0.0
 10
16.030999
 20
12.378354
 30
0.0
 10
16.062618
 20
12.475709
 30
0.0
 10
16.113788
 20
12.564321
 30
0.0
 10
16.182262
 20
12.640374
 30
0.0
 10
16.265052
 20
12.700500
 30
0.0
 10
16.358529
 20
12.742132
 30
0.0
 10
16.458621
 20
12.763462
 30
0.0
 10
16.560962
 20
12.763462
 30
0.0
 10
16.661055
 20
12.742132
 30
0.0
 10
16.754532
 20
12.700500
 30
0.0
 10
16.837322
 20
12.640374
 30
0.0
 10
16.905796
 20
12.564321
 30
0.0
 10
16.956940
 20
12.475709
 30
0.0
 10
16.988585
 20
12.378354
 30
0.0
 10
16.999168
 20
12.276596
 30
0.0
 10
16.988585
 20
12.174866
 30
0.0
 10
16.956940
 20
12.077511
 30
0.0
 10
16.905796
 20
11.988899
 30
0.0
 10
16.837322
 20
11.912854
 30
0.0
 10
16.754532
 20
11.852664
 30
0.0
 10
16.661055
 20
11.811039
 30
0.0
 10
16.560962
 20
11.789975
 30
0.0
  0
LWPOLYLINE
  5
107
100
AcDbEntity
  8
Layer_1
 62
7
100
AcDbPolyline
 90
4
 70
1
 10
17.303546
 20
4.603631
 30
0.0
 10
17.303546
 20
10.689248
 30
0.0
 10
42.703681
 20
10.689248
 30
0.0
 10
42.703681
 20
4.603631
 30
0.0
  0
LWPOLYLINE
  5
108
100
AcDbEntity
  8
Layer_1
 62
7
100
AcDbPolyline
 90
4
 70
1
 10
62.282957
 20
4.603631
 30
0.0
 10
62.282957
 20
10.689248
 30
0.0
 10
87.683101
 20
10.689248
 30
0.0
 10
87.683101
 20
4.603631
 30
0.0
  0
LWPOLYLINE
  5
109
100
AcDbEntity
  8
Layer_1
 62
7
100
AcDbPolyline
 90
30
 70
1
 10
87.896622
 20
2.529255
 30
0.0
 10
87.796333
 20
2.550319
 30
0.0
 10
87.702941
 20
2.591923
 30
0.0
 10
87.620125
 20
2.652106
 30
0.0
 10
87.551598
 20
2.728130
 30
0.0
 10
87.500530
 20
2.816742
 30
0.0
 10
87.468776
 20
2.914097
 30
0.0
 10
87.458191
 20
3.015862
 30
0.0
 10
87.468776
 20
3.117641
 30
0.0
 10
87.500530
 20
3.214975
 30
0.0
 10
87.551598
 20
3.303559
 30
0.0
 10
87.620125
 20
3.379633
 30
0.0
 10
87.702941
 20
3.439766
 30
0.0
 10
87.796333
 20
3.481391
 30
0.0
 10
87.896622
 20
3.502721
 30
0.0
 10
87.998751
 20
3.502721
 30
0.0
 10
88.099025
 20
3.481391
 30
0.0
 10
88.192425
 20
3.439766
 30
0.0
 10
88.275233
 20
3.379633
 30
0.0
 10
88.343760
 20
3.303559
 30
0.0
 10
88.394828
 20
3.214975
 30
0.0
 10
88.426582
 20
3.117641
 30
0.0
 10
88.437167
 20
3.015862
 30
0.0
 10
88.426582
 20
2.914097
 30
0.0
 10
88.394828
 20
2.816742
 30
0.0
 10
88.343760
 20
2.728130
 30
0.0
 10
88.275233
 20
2.652106
 30
0.0
 10
88.192425
 20
2.591923
 30
0.0
 10
88.099025
 20
2.550319
 30
0.0
 10
87.998751
 20
2.529255
 30
0.0
  0
LWPOLYLINE
  5
10a
100
AcDbEntity
  8
Layer_1
 62
7
100
AcDbPolyline
 90
30
 70
1
 10
42.917200
 20
2.529255
 30
0.0
 10
42.816924
 20
2.550319
 30
0.0
 10
42.723526
 20
2.591923
 30
0.0
 10
42.640710
 20
2.652106
 30
0.0
 10
42.572183
 20
2.728130
 30
0.0
 10
42.521118
 20
2.816742
 30
0.0
 10
42.489367
 20
2.914097
 30
0.0
 10
42.478784
 20
3.015862
 30
0.0
 10
42.489367
 20
3.117641
 30
0.0
 10
42.521118
 20
3.214975
 30
0.0
 10
42.572183
 20
3.303559
 30
0.0
 10
42.640710
 20
3.379633
 30
0.0
 10
42.723526
 20
3.439766
 30
0.0
 10
42.816924
 20
3.481391
 30
0.0
 10
42.917200
 20
3.502721
 30
0.0
 10
43.019331
 20
3.502721
 30
0.0
 10
43.119608
 20
3.481391
 30
0.0
 10
43.213007
 20
3.439766
 30
0.0
 10
43.295822
 20
3.379633
 30
0.0
 10
43.364350
 20
3.303559
 30
0.0
 10
43.415414
 20
3.214975
 30
0.0
 10
43.447165
 20
3.117641
 30
0.0
 10
43.457748
 20
3.015862
 30
0.0
 10
43.447165
 20
2.914097
 30
0.0
 10
43.415414
 20
2.816742
 30
0.0
 10
43.364350
 20
2.728130
 30
0.0
 10
43.295822
 20
2.652106
 30
0.0
 10
43.213007
 20
2.591923
 30
0.0
 10
43.119608
 20
2.550319
 30
0.0
 10
43.019331
 20
2.529255
 30
0.0
  0
LWPOLYLINE
  5
10b
100
AcDbEntity
  8
Layer_1
 62
7
100
AcDbPolyline
 90
30
 70
1
 10
29.687963
 20
2.529255
 30
0.0
 10
29.587685
 20
2.550319
 30
0.0
 10
29.494287
 20
2.591923
 30
0.0
 10
29.411472
 20
2.652106
 30
0.0
 10
29.342944
 20
2.728130
 30
0.0
 10
29.291880
 20
2.816742
 30
0.0
 10
29.260129
 20
2.914097
 30
0.0
 10
29.249545
 20
3.015862
 30
0.0
 10
29.260129
 20
3.117641
 30
0.0
 10
29.291880
 20
3.214975
 30
0.0
 10
29.342944
 20
3.303559
 30
0.0
 10
29.411472
 20
3.379633
 30
0.0
 10
29.494287
 20
3.439766
 30
0.0
 10
29.587685
 20
3.481391
 30
0.0
 10
29.687963
 20
3.502721
 30
0.0
 10
29.790093
 20
3.502721
 30
0.0
 10
29.890370
 20
3.481391
 30
0.0
 10
29.983768
 20
3.439766
 30
0.0
 10
30.066584
 20
3.379633
 30
0.0
 10
30.135112
 20
3.303559
 30
0.0
 10
30.186177
 20
3.214975
 30
0.0
 10
30.217927
 20
3.117641
 30
0.0
 10
30.228511
 20
3.015862
 30
0.0
 10
30.217927
 20
2.914097
 30
0.0
 10
30.186177
 20
2.816742
 30
0.0
 10
30.135112
 20
2.728130
 30
0.0
 10
30.066584
 20
2.652106
 30
0.0
 10
29.983768
 20
2.591923
 30
0.0
 10
29.890370
 20
2.550319
 30
0.0
 10
29.790093
 20
2.529255
 30
0.0
  0
LWPOLYLINE
  5
10c
100
AcDbEntity
  8
Layer_1
 62
7
100
AcDbPolyline
 90
30
 70
1
 10
74.667384
 20
2.529255
 30
0.0
 10
74.567102
 20
2.550319
 30
0.0
 10
74.473710
 20
2.591923
 30
0.0
 10
74.390887
 20
2.652106
 30
0.0
 10
74.322367
 20
2.728130
 30
0.0
 10
74.271292
 20
2.816742
 30
0.0
 10
74.239545
 20
2.914097
 30
0.0
 10
74.228960
 20
3.015862
 30
0.0
 10
74.239545
 20
3.117641
 30
0.0
 10
74.271292
 20
3.214975
 30
0.0
 10
74.322367
 20
3.303559
 30
0.0
 10
74.390887
 20
3.379633
 30
0.0
 10
74.473710
 20
3.439766
 30
0.0
 10
74.567102
 20
3.481391
 30
0.0
 10
74.667384
 20
3.502721
 30
0.0
 10
74.769506
 20
3.502721
 30
0.0
 10
74.869787
 20
3.481391
 30
0.0
 10
74.963187
 20
3.439766
 30
0.0
 10
75.045995
 20
3.379633
 30
0.0
 10
75.114522
 20
3.303559
 30
0.0
 10
75.165590
 20
3.214975
 30
0.0
 10
75.197344
 20
3.117641
 30
0.0
 10
75.207922
 20
3.015862
 30
0.0
 10
75.197344
 20
2.914097
 30
0.0
 10
75.165590
 20
2.816742
 30
0.0
 10
75.114522
 20
2.728130
 30
0.0
 10
75.045995
 20
2.652106
 30
0.0
 10
74.963187
 20
2.591923
 30
0.0
 10
74.869787
 20
2.550319
 30
0.0
 10
74.769506
 20
2.529255
 30
0.0
  0
LWPOLYLINE
  5
10d
100
AcDbEntity
  8
Layer_1
 62
7
100
AcDbPolyline
 90
30
 70
1
 10
16.458621
 20
2.529255
 30
0.0
 10
16.358529
 20
2.550319
 30
0.0
 10
16.265052
 20
2.591923
 30
0.0
 10
16.182262
 20
2.652106
 30
0.0
 10
16.113788
 20
2.728130
 30
0.0
 10
16.062618
 20
2.816742
 30
0.0
 10
16.030999
 20
2.914097
 30
0.0
 10
16.020416
 20
3.015862
 30
0.0
 10
16.030999
 20
3.117641
 30
0.0
 10
16.062618
 20
3.214975
 30
0.0
 10
16.113788
 20
3.303559
 30
0.0
 10
16.182262
 20
3.379633
 30
0.0
 10
16.265052
 20
3.439766
 30
0.0
 10
16.358529
 20
3.481391
 30
0.0
 10
16.458621
 20
3.502721
 30
0.0
 10
16.560962
 20
3.502721
 30
0.0
 10
16.661055
 20
3.481391
 30
0.0
 10
16.754532
 20
3.439766
 30
0.0
 10
16.837322
 20
3.379633
 30
0.0
 10
16.905796
 20
3.303559
 30
0.0
 10
16.956940
 20
3.214975
 30
0.0
 10
16.988585
 20
3.117641
 30
0.0
 10
16.999168
 20
3.015862
 30
0.0
 10
16.988585
 20
2.914097
 30
0.0
 10
16.956940
 20
2.816742
 30
0.0
 10
16.905796
 20
2.728130
 30
0.0
 10
16.837322
 20
2.652106
 30
0.0
 10
16.754532
 20
2.591923
 30
0.0
 10
16.661055
 20
2.550319
 30
0.0
 10
16.560962
 20
2.529255
 30
0.0
  0
LWPOLYLINE
  5
10e
100
AcDbEntity
  8
Layer_1
 62
7
100
AcDbPolyline
 90
30
 70
1
 10
61.438138
 20
2.529255
 30
0.0
 10
61.337857
 20
2.550319
 30
0.0
 10
61.244460
 20
2.591923
 30
0.0
 10
61.161645
 20
2.652106
 30
0.0
 10
61.093117
 20
2.728130
 30
0.0
 10
61.042054
 20
2.816742
 30
0.0
 10
61.010303
 20
2.914097
 30
0.0
 10
60.999719
 20
3.015862
 30
0.0
 10
61.010303
 20
3.117641
 30
0.0
 10
61.042054
 20
3.214975
 30
0.0
 10
61.093117
 20
3.303559
 30
0.0
 10
61.161645
 20
3.379633
 30
0.0
 10
61.244460
 20
3.439766
 30
0.0
 10
61.337857
 20
3.481391
 30
0.0
 10
61.438138
 20
3.502721
 30
0.0
 10
61.540269
 20
3.502721
 30
0.0
 10
61.640543
 20
3.481391
 30
0.0
 10
61.733941
 20
3.439766
 30
0.0
 10
61.816756
 20
3.379633
 30
0.0
 10
61.885285
 20
3.303559
 30
0.0
 10
61.936354
 20
3.214975
 30
0.0
 10
61.968099
 20
3.117641
 30
0.0
 10
61.978683
 20
3.015862
 30
0.0
 10
61.968099
 20
2.914097
 30
0.0
 10
61.936354
 20
2.816742
 30
0.0
 10
61.885285
 20
2.728130
 30
0.0
 10
61.816756
 20
2.652106
 30
0.0
 10
61.733941
 20
2.591923
 30
0.0
 10
61.640543
 20
2.550319
 30
0.0
 10
61.540269
 20
2.529255
 30
0.0
  0
LWPOLYLINE
  5
10f
100
AcDbEntity
  8
Layer_1
 62
7
100
AcDbPolyline
 90
5
 70
1
 10
111.076675
 20
16.192136
 30
0.0
 10
111.076675
 20
7.775389
 30
0.0
 10
111.076675
 20
0.105834
 30
0.0
 10
219.714226
 20
0.105834
 30
0.0
 10
219.714226
 20
16.192136
 30
0.0
  0
LWPOLYLINE
  5
110
100
AcDbEntity
  8
Layer_1
 62
7
100
AcDbPolyline
 90
4
 70
1
 10
125.639356
 20
1.966731
 30
0.0
 10
125.639356
 20
13.398115
 30
0.0
 10
143.114553
 20
13.398115
 30
0.0
 10
143.114553
 20
1.966731
 30
0.0
  0
LWPOLYLINE
  5
111
100
AcDbEntity
  8
Layer_1
 62
7
100
AcDbPolyline
 90
30
 70
1
 10
185.692376
 20
11.845603
 30
0.0
 10
185.592024
 20
11.866738
 30
0.0
 10
185.498562
 20
11.908565
 30
0.0
 10
185.415691
 20
11.969007
 30
0.0
 10
185.347107
 20
12.045403
 30
0.0
 10
185.296011
 20
12.134427
 30
0.0
 10
185.264229
 20
12.232251
 30
0.0
 10
185.253645
 20
12.334493
 30
0.0
 10
185.264229
 20
12.436734
 30
0.0
 10
185.296011
 20
12.534558
 30
0.0
 10
185.347107
 20
12.623582
 30
0.0
 10
185.415691
 20
12.699971
 30
0.0
 10
185.498562
 20
12.760420
 30
0.0
 10
185.592024
 20
12.802248
 30
0.0
 10
185.692376
 20
12.823655
 30
0.0
 10
185.794582
 20
12.823655
 30
0.0
 10
185.894933
 20
12.802248
 30
0.0
 10
185.988396
 20
12.760420
 30
0.0
 10
186.071274
 20
12.699971
 30
0.0
 10
186.139850
 20
12.623582
 30
0.0
 10
186.190947
 20
12.534558
 30
0.0
 10
186.222729
 20
12.436734
 30
0.0
 10
186.233313
 20
12.334493
 30
0.0
 10
186.222729
 20
12.232251
 30
0.0
 10
186.190947
 20
12.134427
 30
0.0
 10
186.139850
 20
12.045403
 30
0.0
 10
186.071274
 20
11.969007
 30
0.0
 10
185.988396
 20
11.908565
 30
0.0
 10
185.894933
 20
11.866738
 30
0.0
 10
185.794582
 20
11.845603
 30
0.0
  0
LWPOLYLINE
  5
112
100
AcDbEntity
  8
Layer_1
 62
7
100
AcDbPolyline
 90
30
 70
1
 10
198.931169
 20
11.845603
 30
0.0
 10
198.830825
 20
11.866738
 30
0.0
 10
198.737355
 20
11.908565
 30
0.0
 10
198.654484
 20
11.969007
 30
0.0
 10
198.585901
 20
12.045403
 30
0.0
 10
198.534805
 20
12.134427
 30
0.0
 10
198.503030
 20
12.232251
 30
0.0
 10
198.492438
 20
12.334493
 30
0.0
 10
198.503030
 20
12.436734
 30
0.0
 10
198.534805
 20
12.534558
 30
0.0
 10
198.585901
 20
12.623582
 30
0.0
 10
198.654484
 20
12.699971
 30
0.0
 10
198.737355
 20
12.760420
 30
0.0
 10
198.830825
 20
12.802248
 30
0.0
 10
198.931169
 20
12.823655
 30
0.0
 10
199.033376
 20
12.823655
 30
0.0
 10
199.133727
 20
12.802248
 30
0.0
 10
199.227183
 20
12.760420
 30
0.0
 10
199.310068
 20
12.699971
 30
0.0
 10
199.378644
 20
12.623582
 30
0.0
 10
199.429747
 20
12.534558
 30
0.0
 10
199.461515
 20
12.436734
 30
0.0
 10
199.472107
 20
12.334493
 30
0.0
 10
199.461515
 20
12.232251
 30
0.0
 10
199.429747
 20
12.134427
 30
0.0
 10
199.378644
 20
12.045403
 30
0.0
 10
199.310068
 20
11.969007
 30
0.0
 10
199.227183
 20
11.908565
 30
0.0
 10
199.133727
 20
11.866738
 30
0.0
 10
199.033376
 20
11.845603
 30
0.0
  0
LWPOLYLINE
  5
113
100
AcDbEntity
  8
Layer_1
 62
7
100
AcDbPolyline
 90
30
 70
1
 10
172.453582
 20
11.845603
 30
0.0
 10
172.353231
 20
11.866738
 30
0.0
 10
172.259768
 20
11.908565
 30
0.0
 10
172.176890
 20
11.969007
 30
0.0
 10
172.108314
 20
12.045403
 30
0.0
 10
172.057211
 20
12.134427
 30
0.0
 10
172.025443
 20
12.232251
 30
0.0
 10
172.014851
 20
12.334493
 30
0.0
 10
172.025443
 20
12.436734
 30
0.0
 10
172.057211
 20
12.534558
 30
0.0
 10
172.108314
 20
12.623582
 30
0.0
 10
172.176890
 20
12.699971
 30
0.0
 10
172.259768
 20
12.760420
 30
0.0
 10
172.353231
 20
12.802248
 30
0.0
 10
172.453582
 20
12.823655
 30
0.0
 10
172.555788
 20
12.823655
 30
0.0
 10
172.656133
 20
12.802248
 30
0.0
 10
172.749602
 20
12.760420
 30
0.0
 10
172.832474
 20
12.699971
 30
0.0
 10
172.901050
 20
12.623582
 30
0.0
 10
172.952153
 20
12.534558
 30
0.0
 10
172.983928
 20
12.436734
 30
0.0
 10
172.994520
 20
12.334493
 30
0.0
 10
172.983928
 20
12.232251
 30
0.0
 10
172.952153
 20
12.134427
 30
0.0
 10
172.901050
 20
12.045403
 30
0.0
 10
172.832474
 20
11.969007
 30
0.0
 10
172.749602
 20
11.908565
 30
0.0
 10
172.656133
 20
11.866738
 30
0.0
 10
172.555788
 20
11.845603
 30
0.0
  0
LWPOLYLINE
  5
114
100
AcDbEntity
  8
Layer_1
 62
7
100
AcDbPolyline
 90
30
 70
1
 10
121.616501
 20
11.313892
 30
0.0
 10
121.516339
 20
11.335034
 30
0.0
 10
121.422792
 20
11.376854
 30
0.0
 10
121.339949
 20
11.437303
 30
0.0
 10
121.271421
 20
11.513727
 30
0.0
 10
121.220206
 20
11.602751
 30
0.0
 10
121.188571
 20
11.700575
 30
0.0
 10
121.177980
 20
11.802817
 30
0.0
 10
121.188571
 20
11.905030
 30
0.0
 10
121.220206
 20
12.002854
 30
0.0
 10
121.271421
 20
12.091878
 30
0.0
 10
121.339949
 20
12.168274
 30
0.0
 10
121.422792
 20
12.228716
 30
0.0
 10
121.516339
 20
12.270544
 30
0.0
 10
121.616501
 20
12.291944
 30
0.0
 10
121.718917
 20
12.291944
 30
0.0
 10
121.819079
 20
12.270544
 30
0.0
 10
121.912626
 20
12.228716
 30
0.0
 10
121.995476
 20
12.168274
 30
0.0
 10
122.063997
 20
12.091878
 30
0.0
 10
122.115177
 20
12.002854
 30
0.0
 10
122.146847
 20
11.905030
 30
0.0
 10
122.157445
 20
11.802817
 30
0.0
 10
122.146847
 20
11.700575
 30
0.0
 10
122.115177
 20
11.602751
 30
0.0
 10
122.063997
 20
11.513727
 30
0.0
 10
121.995476
 20
11.437303
 30
0.0
 10
121.912626
 20
11.376854
 30
0.0
 10
121.819079
 20
11.335034
 30
0.0
 10
121.718917
 20
11.313892
 30
0.0
  0
LWPOLYLINE
  5
115
100
AcDbEntity
  8
Layer_1
 62
7
100
AcDbPolyline
 90
30
 70
1
 10
146.505550
 20
11.313892
 30
0.0
 10
146.405198
 20
11.335034
 30
0.0
 10
146.311729
 20
11.376854
 30
0.0
 10
146.228850
 20
11.437303
 30
0.0
 10
146.160281
 20
11.513727
 30
0.0
 10
146.109171
 20
11.602751
 30
0.0
 10
146.077403
 20
11.700575
 30
0.0
 10
146.066811
 20
11.802817
 30
0.0
 10
146.077403
 20
11.905030
 30
0.0
 10
146.109171
 20
12.002854
 30
0.0
 10
146.160281
 20
12.091878
 30
0.0
 10
146.228850
 20
12.168274
 30
0.0
 10
146.311729
 20
12.228716
 30
0.0
 10
146.405198
 20
12.270544
 30
0.0
 10
146.505550
 20
12.291944
 30
0.0
 10
146.607742
 20
12.291944
 30
0.0
 10
146.708100
 20
12.270544
 30
0.0
 10
146.801563
 20
12.228716
 30
0.0
 10
146.884441
 20
12.168274
 30
0.0
 10
146.953017
 20
12.091878
 30
0.0
 10
147.004121
 20
12.002854
 30
0.0
 10
147.035888
 20
11.905030
 30
0.0
 10
147.046480
 20
11.802817
 30
0.0
 10
147.035888
 20
11.700575
 30
0.0
 10
147.004121
 20
11.602751
 30
0.0
 10
146.953017
 20
11.513727
 30
0.0
 10
146.884441
 20
11.437303
 30
0.0
 10
146.801563
 20
11.376854
 30
0.0
 10
146.708100
 20
11.335034
 30
0.0
 10
146.607742
 20
11.313892
 30
0.0
  0
LWPOLYLINE
  5
116
100
AcDbEntity
  8
Layer_1
 62
7
100
AcDbPolyline
 90
4
 70
1
 10
173.299010
 20
4.625195
 30
0.0
 10
173.299010
 20
10.739647
 30
0.0
 10
198.717502
 20
10.739647
 30
0.0
 10
198.717502
 20
4.625195
 30
0.0
  0
LWPOLYLINE
  5
117
100
AcDbEntity
  8
Layer_1
 62
7
100
AcDbPolyline
 90
30
 70
1
 10
146.505550
 20
3.338522
 30
0.0
 10
146.405198
 20
3.359656
 30
0.0
 10
146.311729
 20
3.401484
 30
0.0
 10
146.228850
 20
3.461926
 30
0.0
 10
146.160281
 20
3.538328
 30
0.0
 10
146.109171
 20
3.627374
 30
0.0
 10
146.077403
 20
3.725177
 30
0.0
 10
146.066811
 20
3.827418
 30
0.0
 10
146.077403
 20
3.929660
 30
0.0
 10
146.109171
 20
4.027456
 30
0.0
 10
146.160281
 20
4.116480
 30
0.0
 10
146.228850
 20
4.192897
 30
0.0
 10
146.311729
 20
4.253346
 30
0.0
 10
146.405198
 20
4.295138
 30
0.0
 10
146.505550
 20
4.316546
 30
0.0
 10
146.607742
 20
4.316546
 30
0.0
 10
146.708100
 20
4.295138
 30
0.0
 10
146.801563
 20
4.253346
 30
0.0
 10
146.884441
 20
4.192897
 30
0.0
 10
146.953017
 20
4.116480
 30
0.0
 10
147.004121
 20
4.027456
 30
0.0
 10
147.035888
 20
3.929660
 30
0.0
 10
147.046480
 20
3.827418
 30
0.0
 10
147.035888
 20
3.725177
 30
0.0
 10
147.004121
 20
3.627374
 30
0.0
 10
146.953017
 20
3.538328
 30
0.0
 10
146.884441
 20
3.461926
 30
0.0
 10
146.801563
 20
3.401484
 30
0.0
 10
146.708100
 20
3.359656
 30
0.0
 10
146.607742
 20
3.338522
 30
0.0
  0
LWPOLYLINE
  5
118
100
AcDbEntity
  8
Layer_1
 62
7
100
AcDbPolyline
 90
30
 70
1
 10
121.616501
 20
3.338522
 30
0.0
 10
121.516339
 20
3.359656
 30
0.0
 10
121.422792
 20
3.401484
 30
0.0
 10
121.339949
 20
3.461926
 30
0.0
 10
121.271421
 20
3.538328
 30
0.0
 10
121.220206
 20
3.627374
 30
0.0
 10
121.188571
 20
3.725177
 30
0.0
 10
121.177980
 20
3.827418
 30
0.0
 10
121.188571
 20
3.929660
 30
0.0
 10
121.220206
 20
4.027456
 30
0.0
 10
121.271421
 20
4.116480
 30
0.0
 10
121.339949
 20
4.192897
 30
0.0
 10
121.422792
 20
4.253346
 30
0.0
 10
121.516339
 20
4.295138
 30
0.0
 10
121.616501
 20
4.316546
 30
0.0
 10
121.718917
 20
4.316546
 30
0.0
 10
121.819079
 20
4.295138
 30
0.0
 10
121.912626
 20
4.253346
 30
0.0
 10
121.995476
 20
4.192897
 30
0.0
 10
122.063997
 20
4.116480
 30
0.0
 10
122.115177
 20
4.027456
 30
0.0
 10
122.146847
 20
3.929660
 30
0.0
 10
122.157445
 20
3.827418
 30
0.0
 10
122.146847
 20
3.725177
 30
0.0
 10
122.115177
 20
3.627374
 30
0.0
 10
122.063997
 20
3.538328
 30
0.0
 10
121.995476
 20
3.461926
 30
0.0
 10
121.912626
 20
3.401484
 30
0.0
 10
121.819079
 20
3.359656
 30
0.0
 10
121.718917
 20
3.338522
 30
0.0
  0
LWPOLYLINE
  5
119
100
AcDbEntity
  8
Layer_1
 62
7
100
AcDbPolyline
 90
30
 70
1
 10
198.931169
 20
2.541032
 30
0.0
 10
198.830825
 20
2.562174
 30
0.0
 10
198.737355
 20
2.603966
 30
0.0
 10
198.654484
 20
2.664415
 30
0.0
 10
198.585901
 20
2.740783
 30
0.0
 10
198.534805
 20
2.829800
 30
0.0
 10
198.503030
 20
2.927631
 30
0.0
 10
198.492438
 20
3.029873
 30
0.0
 10
198.503030
 20
3.132114
 30
0.0
 10
198.534805
 20
3.229938
 30
0.0
 10
198.585901
 20
3.318963
 30
0.0
 10
198.654484
 20
3.395379
 30
0.0
 10
198.737355
 20
3.455800
 30
0.0
 10
198.830825
 20
3.497621
 30
0.0
 10
198.931169
 20
3.519035
 30
0.0
 10
199.033376
 20
3.519035
 30
0.0
 10
199.133727
 20
3.497621
 30
0.0
 10
199.227183
 20
3.455800
 30
0.0
 10
199.310068
 20
3.395379
 30
0.0
 10
199.378644
 20
3.318963
 30
0.0
 10
199.429747
 20
3.229938
 30
0.0
 10
199.461515
 20
3.132114
 30
0.0
 10
199.472107
 20
3.029873
 30
0.0
 10
199.461515
 20
2.927631
 30
0.0
 10
199.429747
 20
2.829800
 30
0.0
 10
199.378644
 20
2.740783
 30
0.0
 10
199.310068
 20
2.664415
 30
0.0
 10
199.227183
 20
2.603966
 30
0.0
 10
199.133727
 20
2.562174
 30
0.0
 10
199.033376
 20
2.541032
 30
0.0
  0
LWPOLYLINE
  5
11a
100
AcDbEntity
  8
Layer_1
 62
7
100
AcDbPolyline
 90
30
 70
1
 10
172.453582
 20
2.541032
 30
0.0
 10
172.353231
 20
2.562174
 30
0.0
 10
172.259768
 20
2.603966
 30
0.0
 10
172.176890
 20
2.664415
 30
0.0
 10
172.108314
 20
2.740783
 30
0.0
 10
172.057211
 20
2.829800
 30
0.0
 10
172.025443
 20
2.927631
 30
0.0
 10
172.014851
 20
3.029873
 30
0.0
 10
172.025443
 20
3.132114
 30
0.0
 10
172.057211
 20
3.229938
 30
0.0
 10
172.108314
 20
3.318963
 30
0.0
 10
172.176890
 20
3.395379
 30
0.0
 10
172.259768
 20
3.455800
 30
0.0
 10
172.353231
 20
3.497621
 30
0.0
 10
172.453582
 20
3.519035
 30
0.0
 10
172.555788
 20
3.519035
 30
0.0
 10
172.656133
 20
3.497621
 30
0.0
 10
172.749602
 20
3.455800
 30
0.0
 10
172.832474
 20
3.395379
 30
0.0
 10
172.901050
 20
3.318963
 30
0.0
 10
172.952153
 20
3.229938
 30
0.0
 10
172.983928
 20
3.132114
 30
0.0
 10
172.994520
 20
3.029873
 30
0.0
 10
172.983928
 20
2.927631
 30
0.0
 10
172.952153
 20
2.829800
 30
0.0
 10
172.901050
 20
2.740783
 30
0.0
 10
172.832474
 20
2.664415
 30
0.0
 10
172.749602
 20
2.603966
 30
0.0
 10
172.656133
 20
2.562174
 30
0.0
 10
172.555788
 20
2.541032
 30
0.0
  0
LWPOLYLINE
  5
11b
100
AcDbEntity
  8
Layer_1
 62
7
100
AcDbPolyline
 90
30
 70
1
 10
185.692376
 20
2.541032
 30
0.0
 10
185.592024
 20
2.562174
 30
0.0
 10
185.498562
 20
2.603966
 30
0.0
 10
185.415691
 20
2.664415
 30
0.0
 10
185.347107
 20
2.740783
 30
0.0
 10
185.296011
 20
2.829800
 30
0.0
 10
185.264229
 20
2.927631
 30
0.0
 10
185.253645
 20
3.029873
 30
0.0
 10
185.264229
 20
3.132114
 30
0.0
 10
185.296011
 20
3.229938
 30
0.0
 10
185.347107
 20
3.318963
 30
0.0
 10
185.415691
 20
3.395379
 30
0.0
 10
185.498562
 20
3.455800
 30
0.0
 10
185.592024
 20
3.497621
 30
0.0
 10
185.692376
 20
3.519035
 30
0.0
 10
185.794582
 20
3.519035
 30
0.0
 10
185.894933
 20
3.497621
 30
0.0
 10
185.988396
 20
3.455800
 30
0.0
 10
186.071274
 20
3.395379
 30
0.0
 10
186.139850
 20
3.318963
 30
0.0
 10
186.190947
 20
3.229938
 30
0.0
 10
186.222729
 20
3.132114
 30
0.0
 10
186.233313
 20
3.029873
 30
0.0
 10
186.222729
 20
2.927631
 30
0.0
 10
186.190947
 20
2.829800
 30
0.0
 10
186.139850
 20
2.740783
 30
0.0
 10
186.071274
 20
2.664415
 30
0.0
 10
185.988396
 20
2.603966
 30
0.0
 10
185.894933
 20
2.562174
 30
0.0
 10
185.794582
 20
2.541032
 30
0.0
  0
LWPOLYLINE
  5
11c
100
AcDbEntity
  8
Layer_1
 62
7
100
AcDbPolyline
 90
47
 70
1
 10
126.848894
 20
56.900978
 30
0.0
 10
127.455268
 20
57.170957
 30
0.0
 10
127.992256
 20
57.561105
 30
0.0
 10
128.436394
 20
58.054369
 30
0.0
 10
128.768263
 20
58.629203
 30
0.0
 10
128.950958
 20
59.191464
 30
0.0
 10
133.288696
 20
67.704733
 30
0.0
 10
133.299968
 20
67.707114
 30
0.0
 10
133.805269
 20
67.932094
 30
0.0
 10
134.252758
 20
68.257215
 30
0.0
 10
134.622884
 20
68.668268
 30
0.0
 10
134.899453
 20
69.147297
 30
0.0
 10
135.070374
 20
69.673368
 30
0.0
 10
135.128185
 20
70.223463
 30
0.0
 10
135.070374
 20
70.773558
 30
0.0
 10
134.899453
 20
71.299629
 30
0.0
 10
134.622884
 20
71.778630
 30
0.0
 10
134.252758
 20
72.189687
 30
0.0
 10
133.805269
 20
72.514834
 30
0.0
 10
133.299968
 20
72.739809
 30
0.0
 10
132.758921
 20
72.854797
 30
0.0
 10
132.217768
 20
72.854797
 30
0.0
 10
132.217768
 20
72.885171
 30
0.0
 10
119.517769
 20
72.885171
 30
0.0
 10
119.517769
 20
72.854797
 30
0.0
 10
118.976616
 20
72.854797
 30
0.0
 10
118.435570
 20
72.739809
 30
0.0
 10
117.930268
 20
72.514834
 30
0.0
 10
117.482779
 20
72.189687
 30
0.0
 10
117.112653
 20
71.778630
 30
0.0
 10
116.836084
 20
71.299629
 30
0.0
 10
116.665163
 20
70.773558
 30
0.0
 10
116.607352
 20
70.223463
 30
0.0
 10
116.665163
 20
69.673368
 30
0.0
 10
116.836084
 20
69.147297
 30
0.0
 10
117.112653
 20
68.668268
 30
0.0
 10
117.482779
 20
68.257215
 30
0.0
 10
117.930268
 20
67.932094
 30
0.0
 10
118.243270
 20
67.792736
 30
0.0
 10
123.046675
 20
58.365553
 30
0.0
 10
123.102926
 20
58.394219
 30
0.0
 10
123.299143
 20
58.054369
 30
0.0
 10
123.743281
 20
57.561105
 30
0.0
 10
124.280269
 20
57.170957
 30
0.0
 10
124.886643
 20
56.900978
 30
0.0
 10
125.535894
 20
56.762999
 30
0.0
 10
126.199643
 20
56.762999
 30
0.0
  0
LWPOLYLINE
  5
11d
100
AcDbEntity
  8
Layer_1
 62
7
100
AcDbPolyline
 90
38
 70
1
 10
125.791715
 20
69.235271
 30
0.0
 10
125.642928
 20
69.266888
 30
0.0
 10
125.503966
 20
69.328748
 30
0.0
 10
125.380909
 20
69.418151
 30
0.0
 10
125.279126
 20
69.531207
 30
0.0
 10
125.203072
 20
69.662943
 30
0.0
 10
125.156066
 20
69.807591
 30
0.0
 10
125.140164
 20
69.958880
 30
0.0
 10
125.154074
 20
70.091171
 30
0.0
 10
125.140164
 20
70.223463
 30
0.0
 10
125.154074
 20
70.355754
 30
0.0
 10
125.140164
 20
70.488047
 30
0.0
 10
125.156066
 20
70.639308
 30
0.0
 10
125.203072
 20
70.783983
 30
0.0
 10
125.279126
 20
70.915718
 30
0.0
 10
125.380909
 20
71.028749
 30
0.0
 10
125.503972
 20
71.118178
 30
0.0
 10
125.642928
 20
71.180037
 30
0.0
 10
125.791715
 20
71.211655
 30
0.0
 10
125.943822
 20
71.211655
 30
0.0
 10
126.092609
 20
71.180037
 30
0.0
 10
126.231571
 20
71.118178
 30
0.0
 10
126.354628
 20
71.028749
 30
0.0
 10
126.456411
 20
70.915718
 30
0.0
 10
126.532465
 20
70.783983
 30
0.0
 10
126.579471
 20
70.639308
 30
0.0
 10
126.595373
 20
70.488047
 30
0.0
 10
126.581464
 20
70.355754
 30
0.0
 10
126.595373
 20
70.223463
 30
0.0
 10
126.581464
 20
70.091171
 30
0.0
 10
126.595373
 20
69.958880
 30
0.0
 10
126.579471
 20
69.807591
 30
0.0
 10
126.532465
 20
69.662943
 30
0.0
 10
126.456411
 20
69.531207
 30
0.0
 10
126.354628
 20
69.418151
 30
0.0
 10
126.231571
 20
69.328748
 30
0.0
 10
126.092609
 20
69.266888
 30
0.0
 10
125.943822
 20
69.235271
 30
0.0
  0
LWPOLYLINE
  5
11e
100
AcDbEntity
  8
Layer_1
 62
7
100
AcDbPolyline
 90
30
 70
1
 10
132.654278
 20
69.341977
 30
0.0
 10
132.473038
 20
69.380500
 30
0.0
 10
132.303758
 20
69.455854
 30
0.0
 10
132.153845
 20
69.564782
 30
0.0
 10
132.029861
 20
69.702472
 30
0.0
 10
131.937204
 20
69.862941
 30
0.0
 10
131.879948
 20
70.039181
 30
0.0
 10
131.860581
 20
70.223463
 30
0.0
 10
131.879948
 20
70.407745
 30
0.0
 10
131.937204
 20
70.583984
 30
0.0
 10
132.029861
 20
70.744454
 30
0.0
 10
132.153845
 20
70.882143
 30
0.0
 10
132.303758
 20
70.991072
 30
0.0
 10
132.473038
 20
71.066425
 30
0.0
 10
132.654278
 20
71.104949
 30
0.0
 10
132.839592
 20
71.104949
 30
0.0
 10
133.020832
 20
71.066425
 30
0.0
 10
133.190113
 20
70.991072
 30
0.0
 10
133.340025
 20
70.882143
 30
0.0
 10
133.464009
 20
70.744454
 30
0.0
 10
133.556666
 20
70.583984
 30
0.0
 10
133.613922
 20
70.407745
 30
0.0
 10
133.633289
 20
70.223463
 30
0.0
 10
133.613922
 20
70.039181
 30
0.0
 10
133.556666
 20
69.862941
 30
0.0
 10
133.464009
 20
69.702472
 30
0.0
 10
133.340025
 20
69.564782
 30
0.0
 10
133.190113
 20
69.455854
 30
0.0
 10
133.020832
 20
69.380500
 30
0.0
 10
132.839592
 20
69.341977
 30
0.0
  0
LWPOLYLINE
  5
11f
100
AcDbEntity
  8
Layer_1
 62
7
100
AcDbPolyline
 90
30
 70
1
 10
118.895945
 20
69.341977
 30
0.0
 10
118.714706
 20
69.380500
 30
0.0
 10
118.545425
 20
69.455854
 30
0.0
 10
118.395512
 20
69.564782
 30
0.0
 10
118.271528
 20
69.702472
 30
0.0
 10
118.178871
 20
69.862941
 30
0.0
 10
118.121615
 20
70.039181
 30
0.0
 10
118.102248
 20
70.223463
 30
0.0
 10
118.121615
 20
70.407745
 30
0.0
 10
118.178871
 20
70.583984
 30
0.0
 10
118.271528
 20
70.744454
 30
0.0
 10
118.395512
 20
70.882143
 30
0.0
 10
118.545425
 20
70.991072
 30
0.0
 10
118.714706
 20
71.066425
 30
0.0
 10
118.895945
 20
71.104949
 30
0.0
 10
119.081259
 20
71.104949
 30
0.0
 10
119.262499
 20
71.066425
 30
0.0
 10
119.431779
 20
70.991072
 30
0.0
 10
119.581692
 20
70.882143
 30
0.0
 10
119.705676
 20
70.744454
 30
0.0
 10
119.798333
 20
70.583984
 30
0.0
 10
119.855589
 20
70.407745
 30
0.0
 10
119.874956
 20
70.223463
 30
0.0
 10
119.855589
 20
70.039181
 30
0.0
 10
119.798333
 20
69.862941
 30
0.0
 10
119.705676
 20
69.702472
 30
0.0
 10
119.581692
 20
69.564782
 30
0.0
 10
119.431779
 20
69.455854
 30
0.0
 10
119.262499
 20
69.380500
 30
0.0
 10
119.081259
 20
69.341977
 30
0.0
  0
LWPOLYLINE
  5
120
100
AcDbEntity
  8
Layer_1
 62
7
100
AcDbPolyline
 90
34
 70
1
 10
125.775122
 20
58.214917
 30
0.0
 10
125.593872
 20
58.253441
 30
0.0
 10
125.424594
 20
58.328807
 30
0.0
 10
125.274684
 20
58.437727
 30
0.0
 10
125.150692
 20
58.575426
 30
0.0
 10
125.058048
 20
58.735904
 30
0.0
 10
125.000785
 20
58.912132
 30
0.0
 10
124.981417
 20
59.096412
 30
0.0
 10
125.000785
 20
59.280698
 30
0.0
 10
125.032146
 20
59.377199
 30
0.0
 10
125.065298
 20
59.394098
 30
0.0
 10
125.082218
 20
59.446168
 30
0.0
 10
125.172100
 20
59.601843
 30
0.0
 10
125.292387
 20
59.735439
 30
0.0
 10
125.437826
 20
59.841104
 30
0.0
 10
125.602047
 20
59.914224
 30
0.0
 10
125.777888
 20
59.951592
 30
0.0
 10
125.957649
 20
59.951592
 30
0.0
 10
126.133490
 20
59.914224
 30
0.0
 10
126.297716
 20
59.841104
 30
0.0
 10
126.443150
 20
59.735439
 30
0.0
 10
126.563438
 20
59.601843
 30
0.0
 10
126.653319
 20
59.446168
 30
0.0
 10
126.708871
 20
59.275196
 30
0.0
 10
126.711374
 20
59.251366
 30
0.0
 10
126.739333
 20
59.237128
 30
0.0
 10
126.754120
 20
59.096412
 30
0.0
 10
126.734753
 20
58.912132
 30
0.0
 10
126.677489
 20
58.735904
 30
0.0
 10
126.584845
 20
58.575426
 30
0.0
 10
126.460853
 20
58.437727
 30
0.0
 10
126.310943
 20
58.328807
 30
0.0
 10
126.141665
 20
58.253441
 30
0.0
 10
125.960415
 20
58.214917
 30
0.0
  0
LWPOLYLINE
  5
121
100
AcDbEntity
  8
Layer_1
 62
7
100
AcDbPolyline
 90
47
 70
1
 10
148.589947
 20
56.900978
 30
0.0
 10
149.196322
 20
57.170957
 30
0.0
 10
149.733310
 20
57.561105
 30
0.0
 10
150.177447
 20
58.054369
 30
0.0
 10
150.509317
 20
58.629203
 30
0.0
 10
150.692011
 20
59.191464
 30
0.0
 10
155.029749
 20
67.704733
 30
0.0
 10
155.041021
 20
67.707114
 30
0.0
 10
155.546322
 20
67.932094
 30
0.0
 10
155.993811
 20
68.257215
 30
0.0
 10
156.363937
 20
68.668268
 30
0.0
 10
156.640506
 20
69.147297
 30
0.0
 10
156.811427
 20
69.673368
 30
0.0
 10
156.869238
 20
70.223463
 30
0.0
 10
156.811427
 20
70.773558
 30
0.0
 10
156.640506
 20
71.299629
 30
0.0
 10
156.363937
 20
71.778630
 30
0.0
 10
155.993811
 20
72.189687
 30
0.0
 10
155.546322
 20
72.514834
 30
0.0
 10
155.041021
 20
72.739809
 30
0.0
 10
154.499974
 20
72.854797
 30
0.0
 10
153.958822
 20
72.854797
 30
0.0
 10
153.958822
 20
72.885171
 30
0.0
 10
141.258822
 20
72.885171
 30
0.0
 10
141.258822
 20
72.854797
 30
0.0
 10
140.717670
 20
72.854797
 30
0.0
 10
140.176623
 20
72.739809
 30
0.0
 10
139.671322
 20
72.514834
 30
0.0
 10
139.223832
 20
72.189687
 30
0.0
 10
138.853707
 20
71.778630
 30
0.0
 10
138.577138
 20
71.299629
 30
0.0
 10
138.406217
 20
70.773558
 30
0.0
 10
138.348406
 20
70.223463
 30
0.0
 10
138.406217
 20
69.673368
 30
0.0
 10
138.577138
 20
69.147297
 30
0.0
 10
138.853707
 20
68.668268
 30
0.0
 10
139.223832
 20
68.257215
 30
0.0
 10
139.671322
 20
67.932094
 30
0.0
 10
139.984324
 20
67.792736
 30
0.0
 10
144.787728
 20
58.365553
 30
0.0
 10
144.843979
 20
58.394219
 30
0.0
 10
145.040197
 20
58.054369
 30
0.0
 10
145.484334
 20
57.561105
 30
0.0
 10
146.021322
 20
57.170957
 30
0.0
 10
146.627697
 20
56.900978
 30
0.0
 10
147.276947
 20
56.762999
 30
0.0
 10
147.940697
 20
56.762999
 30
0.0
  0
LWPOLYLINE
  5
122
100
AcDbEntity
  8
Layer_1
 62
7
100
AcDbPolyline
 90
38
 70
1
 10
147.532769
 20
69.235271
 30
0.0
 10
147.383981
 20
69.266888
 30
0.0
 10
147.245020
 20
69.328748
 30
0.0
 10
147.121962
 20
69.418151
 30
0.0
 10
147.020179
 20
69.531207
 30
0.0
 10
146.944125
 20
69.662943
 30
0.0
 10
146.897119
 20
69.807591
 30
0.0
 10
146.881218
 20
69.958880
 30
0.0
 10
146.895127
 20
70.091171
 30
0.0
 10
146.881218
 20
70.223463
 30
0.0
 10
146.895127
 20
70.355754
 30
0.0
 10
146.881218
 20
70.488047
 30
0.0
 10
146.897119
 20
70.639308
 30
0.0
 10
146.944125
 20
70.783983
 30
0.0
 10
147.020179
 20
70.915718
 30
0.0
 10
147.121962
 20
71.028749
 30
0.0
 10
147.245025
 20
71.118178
 30
0.0
 10
147.383981
 20
71.180037
 30
0.0
 10
147.532769
 20
71.211655
 30
0.0
 10
147.684875
 20
71.211655
 30
0.0
 10
147.833663
 20
71.180037
 30
0.0
 10
147.972624
 20
71.118178
 30
0.0
 10
148.095682
 20
71.028749
 30
0.0
 10
148.197464
 20
70.915718
 30
0.0
 10
148.273519
 20
70.783983
 30
0.0
 10
148.320524
 20
70.639308
 30
0.0
 10
148.336426
 20
70.488047
 30
0.0
 10
148.322517
 20
70.355754
 30
0.0
 10
148.336426
 20
70.223463
 30
0.0
 10
148.322517
 20
70.091171
 30
0.0
 10
148.336426
 20
69.958880
 30
0.0
 10
148.320524
 20
69.807591
 30
0.0
 10
148.273519
 20
69.662943
 30
0.0
 10
148.197464
 20
69.531207
 30
0.0
 10
148.095682
 20
69.418151
 30
0.0
 10
147.972624
 20
69.328748
 30
0.0
 10
147.833663
 20
69.266888
 30
0.0
 10
147.684875
 20
69.235271
 30
0.0
  0
LWPOLYLINE
  5
123
100
AcDbEntity
  8
Layer_1
 62
7
100
AcDbPolyline
 90
30
 70
1
 10
154.395331
 20
69.341977
 30
0.0
 10
154.214092
 20
69.380500
 30
0.0
 10
154.044811
 20
69.455854
 30
0.0
 10
153.894898
 20
69.564782
 30
0.0
 10
153.770915
 20
69.702472
 30
0.0
 10
153.678258
 20
69.862941
 30
0.0
 10
153.621002
 20
70.039181
 30
0.0
 10
153.601634
 20
70.223463
 30
0.0
 10
153.621002
 20
70.407745
 30
0.0
 10
153.678258
 20
70.583984
 30
0.0
 10
153.770915
 20
70.744454
 30
0.0
 10
153.894898
 20
70.882143
 30
0.0
 10
154.044811
 20
70.991072
 30
0.0
 10
154.214092
 20
71.066425
 30
0.0
 10
154.395331
 20
71.104949
 30
0.0
 10
154.580645
 20
71.104949
 30
0.0
 10
154.761885
 20
71.066425
 30
0.0
 10
154.931166
 20
70.991072
 30
0.0
 10
155.081079
 20
70.882143
 30
0.0
 10
155.205062
 20
70.744454
 30
0.0
 10
155.297719
 20
70.583984
 30
0.0
 10
155.354975
 20
70.407745
 30
0.0
 10
155.374342
 20
70.223463
 30
0.0
 10
155.354975
 20
70.039181
 30
0.0
 10
155.297719
 20
69.862941
 30
0.0
 10
155.205062
 20
69.702472
 30
0.0
 10
155.081079
 20
69.564782
 30
0.0
 10
154.931166
 20
69.455854
 30
0.0
 10
154.761885
 20
69.380500
 30
0.0
 10
154.580645
 20
69.341977
 30
0.0
  0
LWPOLYLINE
  5
124
100
AcDbEntity
  8
Layer_1
 62
7
100
AcDbPolyline
 90
30
 70
1
 10
140.636998
 20
69.341977
 30
0.0
 10
140.455759
 20
69.380500
 30
0.0
 10
140.286478
 20
69.455854
 30
0.0
 10
140.136565
 20
69.564782
 30
0.0
 10
140.012582
 20
69.702472
 30
0.0
 10
139.919925
 20
69.862941
 30
0.0
 10
139.862669
 20
70.039181
 30
0.0
 10
139.843301
 20
70.223463
 30
0.0
 10
139.862669
 20
70.407745
 30
0.0
 10
139.919925
 20
70.583984
 30
0.0
 10
140.012582
 20
70.744454
 30
0.0
 10
140.136565
 20
70.882143
 30
0.0
 10
140.286478
 20
70.991072
 30
0.0
 10
140.455759
 20
71.066425
 30
0.0
 10
140.636998
 20
71.104949
 30
0.0
 10
140.822312
 20
71.104949
 30
0.0
 10
141.003552
 20
71.066425
 30
0.0
 10
141.172832
 20
70.991072
 30
0.0
 10
141.322745
 20
70.882143
 30
0.0
 10
141.446729
 20
70.744454
 30
0.0
 10
141.539386
 20
70.583984
 30
0.0
 10
141.596642
 20
70.407745
 30
0.0
 10
141.616009
 20
70.223463
 30
0.0
 10
141.596642
 20
70.039181
 30
0.0
 10
141.539386
 20
69.862941
 30
0.0
 10
141.446729
 20
69.702472
 30
0.0
 10
141.322745
 20
69.564782
 30
0.0
 10
141.172832
 20
69.455854
 30
0.0
 10
141.003552
 20
69.380500
 30
0.0
 10
140.822312
 20
69.341977
 30
0.0
  0
LWPOLYLINE
  5
125
100
AcDbEntity
  8
Layer_1
 62
7
100
AcDbPolyline
 90
34
 70
1
 10
147.516176
 20
58.214917
 30
0.0
 10
147.334925
 20
58.253441
 30
0.0
 10
147.165647
 20
58.328807
 30
0.0
 10
147.015737
 20
58.437727
 30
0.0
 10
146.891745
 20
58.575426
 30
0.0
 10
146.799102
 20
58.735904
 30
0.0
 10
146.741838
 20
58.912132
 30
0.0
 10
146.722470
 20
59.096412
 30
0.0
 10
146.741838
 20
59.280698
 30
0.0
 10
146.773199
 20
59.377199
 30
0.0
 10
146.806351
 20
59.394098
 30
0.0
 10
146.823271
 20
59.446168
 30
0.0
 10
146.913153
 20
59.601843
 30
0.0
 10
147.033440
 20
59.735439
 30
0.0
 10
147.178879
 20
59.841104
 30
0.0
 10
147.343101
 20
59.914224
 30
0.0
 10
147.518941
 20
59.951592
 30
0.0
 10
147.698702
 20
59.951592
 30
0.0
 10
147.874543
 20
59.914224
 30
0.0
 10
148.038770
 20
59.841104
 30
0.0
 10
148.184203
 20
59.735439
 30
0.0
 10
148.304491
 20
59.601843
 30
0.0
 10
148.394372
 20
59.446168
 30
0.0
 10
148.449924
 20
59.275196
 30
0.0
 10
148.452427
 20
59.251366
 30
0.0
 10
148.480386
 20
59.237128
 30
0.0
 10
148.495173
 20
59.096412
 30
0.0
 10
148.475806
 20
58.912132
 30
0.0
 10
148.418542
 20
58.735904
 30
0.0
 10
148.325898
 20
58.575426
 30
0.0
 10
148.201906
 20
58.437727
 30
0.0
 10
148.051996
 20
58.328807
 30
0.0
 10
147.882718
 20
58.253441
 30
0.0
 10
147.701468
 20
58.214917
 30
0.0
  0
LWPOLYLINE
  5
126
100
AcDbEntity
  8
Layer_1
 62
7
100
AcDbPolyline
 90
47
 70
1
 10
169.971540
 20
57.040921
 30
0.0
 10
170.577915
 20
57.310900
 30
0.0
 10
171.114903
 20
57.701048
 30
0.0
 10
171.559040
 20
58.194313
 30
0.0
 10
171.890910
 20
58.769146
 30
0.0
 10
172.073604
 20
59.331407
 30
0.0
 10
176.411342
 20
67.844677
 30
0.0
 10
176.422614
 20
67.847057
 30
0.0
 10
176.927915
 20
68.072037
 30
0.0
 10
177.375404
 20
68.397158
 30
0.0
 10
177.745530
 20
68.808212
 30
0.0
 10
178.022099
 20
69.287240
 30
0.0
 10
178.193020
 20
69.813311
 30
0.0
 10
178.250831
 20
70.363406
 30
0.0
 10
178.193020
 20
70.913501
 30
0.0
 10
178.022099
 20
71.439573
 30
0.0
 10
177.745530
 20
71.918574
 30
0.0
 10
177.375404
 20
72.329631
 30
0.0
 10
176.927915
 20
72.654777
 30
0.0
 10
176.422614
 20
72.879752
 30
0.0
 10
175.881567
 20
72.994741
 30
0.0
 10
175.340415
 20
72.994741
 30
0.0
 10
175.340415
 20
73.025114
 30
0.0
 10
162.640415
 20
73.025114
 30
0.0
 10
162.640415
 20
72.994741
 30
0.0
 10
162.099263
 20
72.994741
 30
0.0
 10
161.558216
 20
72.879752
 30
0.0
 10
161.052915
 20
72.654777
 30
0.0
 10
160.605425
 20
72.329631
 30
0.0
 10
160.235300
 20
71.918574
 30
0.0
 10
159.958731
 20
71.439573
 30
0.0
 10
159.787810
 20
70.913501
 30
0.0
 10
159.729999
 20
70.363406
 30
0.0
 10
159.787810
 20
69.813311
 30
0.0
 10
159.958731
 20
69.287240
 30
0.0
 10
160.235300
 20
68.808212
 30
0.0
 10
160.605425
 20
68.397158
 30
0.0
 10
161.052915
 20
68.072037
 30
0.0
 10
161.365917
 20
67.932679
 30
0.0
 10
166.169321
 20
58.505496
 30
0.0
 10
166.225572
 20
58.534163
 30
0.0
 10
166.421790
 20
58.194313
 30
0.0
 10
166.865927
 20
57.701048
 30
0.0
 10
167.402915
 20
57.310900
 30
0.0
 10
168.009290
 20
57.040921
 30
0.0
 10
168.658540
 20
56.902943
 30
0.0
 10
169.322290
 20
56.902943
 30
0.0
  0
LWPOLYLINE
  5
127
100
AcDbEntity
  8
Layer_1
 62
7
100
AcDbPolyline
 90
38
 70
1
 10
168.914362
 20
69.375214
 30
0.0
 10
168.765574
 20
69.406831
 30
0.0
 10
168.626613
 20
69.468691
 30
0.0
 10
168.503555
 20
69.558094
 30
0.0
 10
168.401772
 20
69.671150
 30
0.0
 10
168.325718
 20
69.802887
 30
0.0
 10
168.278712
 20
69.947534
 30
0.0
 10
168.262811
 20
70.098823
 30
0.0
 10
168.276720
 20
70.231114
 30
0.0
 10
168.262811
 20
70.363406
 30
0.0
 10
168.276720
 20
70.495698
 30
0.0
 10
168.262811
 20
70.627990
 30
0.0
 10
168.278712
 20
70.779252
 30
0.0
 10
168.325718
 20
70.923926
 30
0.0
 10
168.401772
 20
71.055662
 30
0.0
 10
168.503555
 20
71.168692
 30
0.0
 10
168.626618
 20
71.258121
 30
0.0
 10
168.765574
 20
71.319981
 30
0.0
 10
168.914362
 20
71.351599
 30
0.0
 10
169.066468
 20
71.351599
 30
0.0
 10
169.215256
 20
71.319981
 30
0.0
 10
169.354217
 20
71.258121
 30
0.0
 10
169.477275
 20
71.168692
 30
0.0
 10
169.579057
 20
71.055662
 30
0.0
 10
169.655112
 20
70.923926
 30
0.0
 10
169.702117
 20
70.779252
 30
0.0
 10
169.718019
 20
70.627990
 30
0.0
 10
169.704110
 20
70.495698
 30
0.0
 10
169.718019
 20
70.363406
 30
0.0
 10
169.704110
 20
70.231114
 30
0.0
 10
169.718019
 20
70.098823
 30
0.0
 10
169.702117
 20
69.947534
 30
0.0
 10
169.655112
 20
69.802887
 30
0.0
 10
169.579057
 20
69.671150
 30
0.0
 10
169.477275
 20
69.558094
 30
0.0
 10
169.354217
 20
69.468691
 30
0.0
 10
169.215256
 20
69.406831
 30
0.0
 10
169.066468
 20
69.375214
 30
0.0
  0
LWPOLYLINE
  5
128
100
AcDbEntity
  8
Layer_1
 62
7
100
AcDbPolyline
 90
30
 70
1
 10
175.776924
 20
69.481920
 30
0.0
 10
175.595685
 20
69.520444
 30
0.0
 10
175.426404
 20
69.595797
 30
0.0
 10
175.276491
 20
69.704726
 30
0.0
 10
175.152508
 20
69.842415
 30
0.0
 10
175.059851
 20
70.002885
 30
0.0
 10
175.002595
 20
70.179124
 30
0.0
 10
174.983227
 20
70.363406
 30
0.0
 10
175.002595
 20
70.547689
 30
0.0
 10
175.059851
 20
70.723927
 30
0.0
 10
175.152508
 20
70.884398
 30
0.0
 10
175.276491
 20
71.022086
 30
0.0
 10
175.426404
 20
71.131015
 30
0.0
 10
175.595685
 20
71.206369
 30
0.0
 10
175.776924
 20
71.244892
 30
0.0
 10
175.962238
 20
71.244892
 30
0.0
 10
176.143478
 20
71.206369
 30
0.0
 10
176.312759
 20
71.131015
 30
0.0
 10
176.462672
 20
71.022086
 30
0.0
 10
176.586655
 20
70.884398
 30
0.0
 10
176.679312
 20
70.723927
 30
0.0
 10
176.736568
 20
70.547689
 30
0.0
 10
176.755935
 20
70.363406
 30
0.0
 10
176.736568
 20
70.179124
 30
0.0
 10
176.679312
 20
70.002885
 30
0.0
 10
176.586655
 20
69.842415
 30
0.0
 10
176.462672
 20
69.704726
 30
0.0
 10
176.312759
 20
69.595797
 30
0.0
 10
176.143478
 20
69.520444
 30
0.0
 10
175.962238
 20
69.481920
 30
0.0
  0
LWPOLYLINE
  5
129
100
AcDbEntity
  8
Layer_1
 62
7
100
AcDbPolyline
 90
30
 70
1
 10
162.018591
 20
69.481920
 30
0.0
 10
161.837352
 20
69.520444
 30
0.0
 10
161.668071
 20
69.595797
 30
0.0
 10
161.518158
 20
69.704726
 30
0.0
 10
161.394175
 20
69.842415
 30
0.0
 10
161.301518
 20
70.002885
 30
0.0
 10
161.244262
 20
70.179124
 30
0.0
 10
161.224894
 20
70.363406
 30
0.0
 10
161.244262
 20
70.547689
 30
0.0
 10
161.301518
 20
70.723927
 30
0.0
 10
161.394175
 20
70.884398
 30
0.0
 10
161.518158
 20
71.022086
 30
0.0
 10
161.668071
 20
71.131015
 30
0.0
 10
161.837352
 20
71.206369
 30
0.0
 10
162.018591
 20
71.244892
 30
0.0
 10
162.203905
 20
71.244892
 30
0.0
 10
162.385145
 20
71.206369
 30
0.0
 10
162.554425
 20
71.131015
 30
0.0
 10
162.704338
 20
71.022086
 30
0.0
 10
162.828322
 20
70.884398
 30
0.0
 10
162.920979
 20
70.723927
 30
0.0
 10
162.978235
 20
70.547689
 30
0.0
 10
162.997602
 20
70.363406
 30
0.0
 10
162.978235
 20
70.179124
 30
0.0
 10
162.920979
 20
70.002885
 30
0.0
 10
162.828322
 20
69.842415
 30
0.0
 10
162.704338
 20
69.704726
 30
0.0
 10
162.554425
 20
69.595797
 30
0.0
 10
162.385145
 20
69.520444
 30
0.0
 10
162.203905
 20
69.481920
 30
0.0
  0
LWPOLYLINE
  5
12a
100
AcDbEntity
  8
Layer_1
 62
7
100
AcDbPolyline
 90
34
 70
1
 10
168.897769
 20
58.354861
 30
0.0
 10
168.716518
 20
58.393384
 30
0.0
 10
168.547240
 20
58.468751
 30
0.0
 10
168.397330
 20
58.577670
 30
0.0
 10
168.273338
 20
58.715369
 30
0.0
 10
168.180695
 20
58.875847
 30
0.0
 10
168.123431
 20
59.052076
 30
0.0
 10
168.104063
 20
59.236355
 30
0.0
 10
168.123431
 20
59.420642
 30
0.0
 10
168.154792
 20
59.517143
 30
0.0
 10
168.187944
 20
59.534042
 30
0.0
 10
168.204864
 20
59.586111
 30
0.0
 10
168.294746
 20
59.741787
 30
0.0
 10
168.415033
 20
59.875383
 30
0.0
 10
168.560472
 20
59.981047
 30
0.0
 10
168.724694
 20
60.054167
 30
0.0
 10
168.900534
 20
60.091535
 30
0.0
 10
169.080295
 20
60.091535
 30
0.0
 10
169.256136
 20
60.054167
 30
0.0
 10
169.420363
 20
59.981047
 30
0.0
 10
169.565796
 20
59.875383
 30
0.0
 10
169.686084
 20
59.741787
 30
0.0
 10
169.775965
 20
59.586111
 30
0.0
 10
169.831517
 20
59.415139
 30
0.0
 10
169.834020
 20
59.391310
 30
0.0
 10
169.861979
 20
59.377071
 30
0.0
 10
169.876766
 20
59.236355
 30
0.0
 10
169.857399
 20
59.052076
 30
0.0
 10
169.800135
 20
58.875847
 30
0.0
 10
169.707491
 20
58.715369
 30
0.0
 10
169.583499
 20
58.577670
 30
0.0
 10
169.433589
 20
58.468751
 30
0.0
 10
169.264311
 20
58.393384
 30
0.0
 10
169.083061
 20
58.354861
 30
0.0
  0
LWPOLYLINE
  5
12b
100
AcDbEntity
  8
Layer_1
 62
7
100
AcDbPolyline
 90
45
 70
1
 10
192.167518
 20
56.549302
 30
0.0
 10
192.773893
 20
56.819280
 30
0.0
 10
193.310880
 20
57.209428
 30
0.0
 10
193.755018
 20
57.702693
 30
0.0
 10
194.086887
 20
58.277527
 30
0.0
 10
194.269582
 20
58.839788
 30
0.0
 10
198.607320
 20
67.353057
 30
0.0
 10
198.618592
 20
67.355437
 30
0.0
 10
199.123893
 20
67.580417
 30
0.0
 10
199.571382
 20
67.905539
 30
0.0
 10
199.941508
 20
68.316592
 30
0.0
 10
200.218077
 20
68.795621
 30
0.0
 10
200.388998
 20
69.321691
 30
0.0
 10
200.446809
 20
69.871787
 30
0.0
 10
200.388998
 20
70.421882
 30
0.0
 10
200.218077
 20
70.947953
 30
0.0
 10
199.941508
 20
71.426954
 30
0.0
 10
199.571382
 20
71.838011
 30
0.0
 10
199.123893
 20
72.163158
 30
0.0
 10
198.618592
 20
72.388133
 30
0.0
 10
198.077545
 20
72.503121
 30
0.0
 10
197.536393
 20
72.503121
 30
0.0
 10
197.536393
 20
72.533495
 30
0.0
 10
197.007226
 20
72.533495
 30
0.0
 10
197.007226
 20
78.486620
 30
0.0
 10
182.719726
 20
78.486620
 30
0.0
 10
182.719726
 20
71.747312
 30
0.0
 10
182.431278
 20
71.426954
 30
0.0
 10
182.154709
 20
70.947953
 30
0.0
 10
181.983787
 20
70.421882
 30
0.0
 10
181.925976
 20
69.871787
 30
0.0
 10
181.983787
 20
69.321691
 30
0.0
 10
182.154709
 20
68.795621
 30
0.0
 10
182.431278
 20
68.316592
 30
0.0
 10
182.801403
 20
67.905539
 30
0.0
 10
183.248893
 20
67.580417
 30
0.0
 10
183.561895
 20
67.441060
 30
0.0
 10
188.365299
 20
58.013876
 30
0.0
 10
188.421550
 20
58.042543
 30
0.0
 10
188.617767
 20
57.702693
 30
0.0
 10
189.061905
 20
57.209428
 30
0.0
 10
189.598893
 20
56.819280
 30
0.0
 10
190.205267
 20
56.549302
 30
0.0
 10
190.854518
 20
56.411323
 30
0.0
 10
191.518267
 20
56.411323
 30
0.0
  0
LWPOLYLINE
  5
12c
100
AcDbEntity
  8
Layer_1
 62
7
100
AcDbPolyline
 90
30
 70
1
 10
185.937139
 20
75.647059
 30
0.0
 10
185.761297
 20
75.684444
 30
0.0
 10
185.597070
 20
75.757549
 30
0.0
 10
185.451628
 20
75.863223
 30
0.0
 10
185.331349
 20
75.996812
 30
0.0
 10
185.241470
 20
76.152492
 30
0.0
 10
185.185907
 20
76.323466
 30
0.0
 10
185.167122
 20
76.502245
 30
0.0
 10
185.185907
 20
76.681024
 30
0.0
 10
185.241470
 20
76.851998
 30
0.0
 10
185.331349
 20
77.007678
 30
0.0
 10
185.451628
 20
77.141266
 30
0.0
 10
185.597070
 20
77.246941
 30
0.0
 10
185.761297
 20
77.320045
 30
0.0
 10
185.937139
 20
77.357431
 30
0.0
 10
186.116897
 20
77.357431
 30
0.0
 10
186.292739
 20
77.320045
 30
0.0
 10
186.456966
 20
77.246941
 30
0.0
 10
186.602407
 20
77.141266
 30
0.0
 10
186.722687
 20
77.007678
 30
0.0
 10
186.812566
 20
76.851998
 30
0.0
 10
186.868128
 20
76.681024
 30
0.0
 10
186.886914
 20
76.502245
 30
0.0
 10
186.868128
 20
76.323466
 30
0.0
 10
186.812566
 20
76.152492
 30
0.0
 10
186.722687
 20
75.996812
 30
0.0
 10
186.602407
 20
75.863223
 30
0.0
 10
186.456966
 20
75.757549
 30
0.0
 10
186.292739
 20
75.684444
 30
0.0
 10
186.116897
 20
75.647059
 30
0.0
  0
LWPOLYLINE
  5
12d
100
AcDbEntity
  8
Layer_1
 62
7
100
AcDbPolyline
 90
30
 70
1
 10
193.874639
 20
75.647059
 30
0.0
 10
193.698791
 20
75.684444
 30
0.0
 10
193.534564
 20
75.757549
 30
0.0
 10
193.389134
 20
75.863223
 30
0.0
 10
193.268843
 20
75.996812
 30
0.0
 10
193.178964
 20
76.152492
 30
0.0
 10
193.123410
 20
76.323466
 30
0.0
 10
193.104622
 20
76.502245
 30
0.0
 10
193.123410
 20
76.681024
 30
0.0
 10
193.178964
 20
76.851998
 30
0.0
 10
193.268843
 20
77.007678
 30
0.0
 10
193.389134
 20
77.141266
 30
0.0
 10
193.534570
 20
77.246941
 30
0.0
 10
193.698791
 20
77.320045
 30
0.0
 10
193.874639
 20
77.357431
 30
0.0
 10
194.054397
 20
77.357431
 30
0.0
 10
194.230239
 20
77.320045
 30
0.0
 10
194.394466
 20
77.246941
 30
0.0
 10
194.539907
 20
77.141266
 30
0.0
 10
194.660187
 20
77.007678
 30
0.0
 10
194.750066
 20
76.851998
 30
0.0
 10
194.805628
 20
76.681024
 30
0.0
 10
194.824413
 20
76.502245
 30
0.0
 10
194.805628
 20
76.323466
 30
0.0
 10
194.750066
 20
76.152492
 30
0.0
 10
194.660187
 20
75.996812
 30
0.0
 10
194.539907
 20
75.863223
 30
0.0
 10
194.394466
 20
75.757549
 30
0.0
 10
194.230239
 20
75.684444
 30
0.0
 10
194.054397
 20
75.647059
 30
0.0
  0
LWPOLYLINE
  5
12e
100
AcDbEntity
  8
Layer_1
 62
7
100
AcDbPolyline
 90
30
 70
1
 10
184.214569
 20
68.990301
 30
0.0
 10
184.033330
 20
69.028824
 30
0.0
 10
183.864049
 20
69.104177
 30
0.0
 10
183.714136
 20
69.213106
 30
0.0
 10
183.590152
 20
69.350796
 30
0.0
 10
183.497495
 20
69.511265
 30
0.0
 10
183.440240
 20
69.687505
 30
0.0
 10
183.420872
 20
69.871787
 30
0.0
 10
183.440240
 20
70.056069
 30
0.0
 10
183.497495
 20
70.232308
 30
0.0
 10
183.590152
 20
70.392778
 30
0.0
 10
183.714136
 20
70.530467
 30
0.0
 10
183.864049
 20
70.639396
 30
0.0
 10
184.033330
 20
70.714749
 30
0.0
 10
184.214569
 20
70.753272
 30
0.0
 10
184.399883
 20
70.753272
 30
0.0
 10
184.581123
 20
70.714749
 30
0.0
 10
184.750403
 20
70.639396
 30
0.0
 10
184.900316
 20
70.530467
 30
0.0
 10
185.024300
 20
70.392778
 30
0.0
 10
185.116957
 20
70.232308
 30
0.0
 10
185.174213
 20
70.056069
 30
0.0
 10
185.193580
 20
69.871787
 30
0.0
 10
185.174213
 20
69.687505
 30
0.0
 10
185.116957
 20
69.511265
 30
0.0
 10
185.024300
 20
69.350796
 30
0.0
 10
184.900316
 20
69.213106
 30
0.0
 10
184.750403
 20
69.104177
 30
0.0
 10
184.581123
 20
69.028824
 30
0.0
 10
184.399883
 20
68.990301
 30
0.0
  0
LWPOLYLINE
  5
12f
100
AcDbEntity
  8
Layer_1
 62
7
100
AcDbPolyline
 90
30
 70
1
 10
197.972902
 20
68.990301
 30
0.0
 10
197.791663
 20
69.028824
 30
0.0
 10
197.622382
 20
69.104177
 30
0.0
 10
197.472469
 20
69.213106
 30
0.0
 10
197.348486
 20
69.350796
 30
0.0
 10
197.255828
 20
69.511265
 30
0.0
 10
197.198573
 20
69.687505
 30
0.0
 10
197.179205
 20
69.871787
 30
0.0
 10
197.198573
 20
70.056069
 30
0.0
 10
197.255828
 20
70.232308
 30
0.0
 10
197.348486
 20
70.392778
 30
0.0
 10
197.472469
 20
70.530467
 30
0.0
 10
197.622382
 20
70.639396
 30
0.0
 10
197.791663
 20
70.714749
 30
0.0
 10
197.972902
 20
70.753272
 30
0.0
 10
198.158216
 20
70.753272
 30
0.0
 10
198.339456
 20
70.714749
 30
0.0
 10
198.508737
 20
70.639396
 30
0.0
 10
198.658650
 20
70.530467
 30
0.0
 10
198.782633
 20
70.392778
 30
0.0
 10
198.875290
 20
70.232308
 30
0.0
 10
198.932546
 20
70.056069
 30
0.0
 10
198.951913
 20
69.871787
 30
0.0
 10
198.932546
 20
69.687505
 30
0.0
 10
198.875290
 20
69.511265
 30
0.0
 10
198.782633
 20
69.350796
 30
0.0
 10
198.658650
 20
69.213106
 30
0.0
 10
198.508737
 20
69.104177
 30
0.0
 10
198.339456
 20
69.028824
 30
0.0
 10
198.158216
 20
68.990301
 30
0.0
  0
LWPOLYLINE
  5
130
100
AcDbEntity
  8
Layer_1
 62
7
100
AcDbPolyline
 90
34
 70
1
 10
191.093746
 20
57.863241
 30
0.0
 10
190.912496
 20
57.901764
 30
0.0
 10
190.743218
 20
57.977131
 30
0.0
 10
190.593308
 20
58.086051
 30
0.0
 10
190.469316
 20
58.223749
 30
0.0
 10
190.376672
 20
58.384227
 30
0.0
 10
190.319409
 20
58.560456
 30
0.0
 10
190.300041
 20
58.744736
 30
0.0
 10
190.319409
 20
58.929022
 30
0.0
 10
190.350770
 20
59.025523
 30
0.0
 10
190.383922
 20
59.042422
 30
0.0
 10
190.400842
 20
59.094491
 30
0.0
 10
190.490724
 20
59.250167
 30
0.0
 10
190.611011
 20
59.383763
 30
0.0
 10
190.756450
 20
59.489428
 30
0.0
 10
190.920672
 20
59.562547
 30
0.0
 10
191.096512
 20
59.599916
 30
0.0
 10
191.276273
 20
59.599916
 30
0.0
 10
191.452114
 20
59.562547
 30
0.0
 10
191.616341
 20
59.489428
 30
0.0
 10
191.761774
 20
59.383763
 30
0.0
 10
191.882062
 20
59.250167
 30
0.0
 10
191.971943
 20
59.094491
 30
0.0
 10
192.027495
 20
58.923520
 30
0.0
 10
192.029998
 20
58.899690
 30
0.0
 10
192.057957
 20
58.885451
 30
0.0
 10
192.072744
 20
58.744736
 30
0.0
 10
192.053377
 20
58.560456
 30
0.0
 10
191.996113
 20
58.384227
 30
0.0
 10
191.903469
 20
58.223749
 30
0.0
 10
191.779477
 20
58.086051
 30
0.0
 10
191.629567
 20
57.977131
 30
0.0
 10
191.460289
 20
57.901764
 30
0.0
 10
191.279039
 20
57.863241
 30
0.0
  0
LWPOLYLINE
  5
131
100
AcDbEntity
  8
Layer_1
 62
7
100
AcDbPolyline
 90
24
 70
1
 10
125.302330
 20
79.169491
 30
0.0
 10
125.636049
 20
79.318054
 30
0.0
 10
125.931562
 20
79.532764
 30
0.0
 10
126.175984
 20
79.804227
 30
0.0
 10
126.358653
 20
80.120589
 30
0.0
 10
126.471523
 20
80.467987
 30
0.0
 10
126.509703
 20
80.831286
 30
0.0
 10
126.471523
 20
81.194559
 30
0.0
 10
126.358653
 20
81.541983
 30
0.0
 10
126.175984
 20
81.858319
 30
0.0
 10
125.931562
 20
82.129781
 30
0.0
 10
125.864543
 20
82.178492
 30
0.0
 10
125.864543
 20
89.196855
 30
0.0
 10
117.665635
 20
89.196855
 30
0.0
 10
117.665635
 20
80.648485
 30
0.0
 10
123.034295
 20
80.648485
 30
0.0
 10
123.053266
 20
80.467987
 30
0.0
 10
123.166137
 20
80.120589
 30
0.0
 10
123.348779
 20
79.804227
 30
0.0
 10
123.593228
 20
79.532764
 30
0.0
 10
123.888741
 20
79.318054
 30
0.0
 10
124.222433
 20
79.169491
 30
0.0
 10
124.579753
 20
79.093555
 30
0.0
 10
124.945037
 20
79.093555
 30
0.0
  0
LWPOLYLINE
  5
132
100
AcDbEntity
  8
Layer_1
 62
7
100
AcDbPolyline
 90
30
 70
1
 10
120.296485
 20
85.672764
 30
0.0
 10
120.142296
 20
85.705546
 30
0.0
 10
119.998289
 20
85.769654
 30
0.0
 10
119.870762
 20
85.862311
 30
0.0
 10
119.765281
 20
85.979469
 30
0.0
 10
119.686462
 20
86.115968
 30
0.0
 10
119.637752
 20
86.265881
 30
0.0
 10
119.621274
 20
86.422673
 30
0.0
 10
119.637752
 20
86.579438
 30
0.0
 10
119.686462
 20
86.729351
 30
0.0
 10
119.765281
 20
86.865876
 30
0.0
 10
119.870762
 20
86.983034
 30
0.0
 10
119.998289
 20
87.075664
 30
0.0
 10
120.142296
 20
87.139799
 30
0.0
 10
120.296485
 20
87.172581
 30
0.0
 10
120.454132
 20
87.172581
 30
0.0
 10
120.608304
 20
87.139799
 30
0.0
 10
120.752317
 20
87.075664
 30
0.0
 10
120.879846
 20
86.983034
 30
0.0
 10
120.985335
 20
86.865876
 30
0.0
 10
121.064155
 20
86.729351
 30
0.0
 10
121.112865
 20
86.579438
 30
0.0
 10
121.129348
 20
86.422673
 30
0.0
 10
121.112865
 20
86.265881
 30
0.0
 10
121.064155
 20
86.115968
 30
0.0
 10
120.985335
 20
85.979469
 30
0.0
 10
120.879846
 20
85.862311
 30
0.0
 10
120.752317
 20
85.769654
 30
0.0
 10
120.608304
 20
85.705546
 30
0.0
 10
120.454132
 20
85.672764
 30
0.0
  0
LWPOLYLINE
  5
133
100
AcDbEntity
  8
Layer_1
 62
7
100
AcDbPolyline
 90
30
 70
1
 10
124.761919
 20
85.847442
 30
0.0
 10
124.634813
 20
85.874456
 30
0.0
 10
124.516094
 20
85.927319
 30
0.0
 10
124.410949
 20
86.003705
 30
0.0
 10
124.324007
 20
86.100278
 30
0.0
 10
124.259025
 20
86.212831
 30
0.0
 10
124.218861
 20
86.336418
 30
0.0
 10
124.205262
 20
86.465667
 30
0.0
 10
124.218861
 20
86.594916
 30
0.0
 10
124.259025
 20
86.718529
 30
0.0
 10
124.324007
 20
86.831057
 30
0.0
 10
124.410949
 20
86.927656
 30
0.0
 10
124.516094
 20
87.004041
 30
0.0
 10
124.634813
 20
87.056879
 30
0.0
 10
124.761919
 20
87.083919
 30
0.0
 10
124.891882
 20
87.083919
 30
0.0
 10
125.019014
 20
87.056879
 30
0.0
 10
125.137733
 20
87.004041
 30
0.0
 10
125.242878
 20
86.927656
 30
0.0
 10
125.329821
 20
86.831057
 30
0.0
 10
125.394802
 20
86.718529
 30
0.0
 10
125.434966
 20
86.594916
 30
0.0
 10
125.448539
 20
86.465667
 30
0.0
 10
125.434966
 20
86.336418
 30
0.0
 10
125.394802
 20
86.212831
 30
0.0
 10
125.329821
 20
86.100278
 30
0.0
 10
125.242878
 20
86.003705
 30
0.0
 10
125.137733
 20
85.927319
 30
0.0
 10
125.019014
 20
85.874456
 30
0.0
 10
124.891882
 20
85.847442
 30
0.0
  0
LWPOLYLINE
  5
134
100
AcDbEntity
  8
Layer_1
 62
7
100
AcDbPolyline
 90
30
 70
1
 10
124.683576
 20
80.081377
 30
0.0
 10
124.529376
 20
80.114160
 30
0.0
 10
124.385364
 20
80.178268
 30
0.0
 10
124.257861
 20
80.270925
 30
0.0
 10
124.152372
 20
80.388082
 30
0.0
 10
124.073552
 20
80.524581
 30
0.0
 10
124.024842
 20
80.674521
 30
0.0
 10
124.008359
 20
80.831286
 30
0.0
 10
124.024842
 20
80.988052
 30
0.0
 10
124.073552
 20
81.137965
 30
0.0
 10
124.152372
 20
81.274489
 30
0.0
 10
124.257861
 20
81.391647
 30
0.0
 10
124.385364
 20
81.484278
 30
0.0
 10
124.529376
 20
81.548413
 30
0.0
 10
124.683576
 20
81.581168
 30
0.0
 10
124.841214
 20
81.581168
 30
0.0
 10
124.995387
 20
81.548413
 30
0.0
 10
125.139400
 20
81.484278
 30
0.0
 10
125.266929
 20
81.391647
 30
0.0
 10
125.372418
 20
81.274489
 30
0.0
 10
125.451238
 20
81.137965
 30
0.0
 10
125.499947
 20
80.988052
 30
0.0
 10
125.516431
 20
80.831286
 30
0.0
 10
125.499947
 20
80.674521
 30
0.0
 10
125.451238
 20
80.524581
 30
0.0
 10
125.372418
 20
80.388082
 30
0.0
 10
125.266929
 20
80.270925
 30
0.0
 10
125.139400
 20
80.178268
 30
0.0
 10
124.995387
 20
80.114160
 30
0.0
 10
124.841214
 20
80.081377
 30
0.0
  0
LWPOLYLINE
  5
135
100
AcDbEntity
  8
Layer_1
 62
7
100
AcDbPolyline
 90
24
 70
1
 10
141.057204
 20
86.801624
 30
0.0
 10
141.124223
 20
86.850306
 30
0.0
 10
141.368645
 20
87.121768
 30
0.0
 10
141.551313
 20
87.438132
 30
0.0
 10
141.664184
 20
87.785528
 30
0.0
 10
141.702364
 20
88.148802
 30
0.0
 10
141.664184
 20
88.512101
 30
0.0
 10
141.551313
 20
88.859499
 30
0.0
 10
141.368645
 20
89.175861
 30
0.0
 10
141.124223
 20
89.447323
 30
0.0
 10
140.828710
 20
89.662033
 30
0.0
 10
140.494991
 20
89.810596
 30
0.0
 10
140.137698
 20
89.886558
 30
0.0
 10
139.772414
 20
89.886558
 30
0.0
 10
139.415094
 20
89.810596
 30
0.0
 10
139.081401
 20
89.662033
 30
0.0
 10
138.785888
 20
89.447323
 30
0.0
 10
138.541440
 20
89.175861
 30
0.0
 10
138.358798
 20
88.859499
 30
0.0
 10
138.245927
 20
88.512101
 30
0.0
 10
138.223014
 20
88.293977
 30
0.0
 10
132.858296
 20
88.293977
 30
0.0
 10
132.858296
 20
79.745607
 30
0.0
 10
141.057204
 20
79.745607
 30
0.0
  0
LWPOLYLINE
  5
136
100
AcDbEntity
  8
Layer_1
 62
7
100
AcDbPolyline
 90
30
 70
1
 10
139.876236
 20
87.398923
 30
0.0
 10
139.722037
 20
87.431699
 30
0.0
 10
139.578024
 20
87.495809
 30
0.0
 10
139.450522
 20
87.588466
 30
0.0
 10
139.345032
 20
87.705598
 30
0.0
 10
139.266213
 20
87.842120
 30
0.0
 10
139.217503
 20
87.992034
 30
0.0
 10
139.201020
 20
88.148802
 30
0.0
 10
139.217503
 20
88.305591
 30
0.0
 10
139.266213
 20
88.455506
 30
0.0
 10
139.345032
 20
88.592031
 30
0.0
 10
139.450522
 20
88.709162
 30
0.0
 10
139.578024
 20
88.801819
 30
0.0
 10
139.722037
 20
88.865954
 30
0.0
 10
139.876236
 20
88.898709
 30
0.0
 10
140.033875
 20
88.898709
 30
0.0
 10
140.188048
 20
88.865954
 30
0.0
 10
140.332060
 20
88.801819
 30
0.0
 10
140.459589
 20
88.709162
 30
0.0
 10
140.565079
 20
88.592031
 30
0.0
 10
140.643898
 20
88.455506
 30
0.0
 10
140.692608
 20
88.305591
 30
0.0
 10
140.709092
 20
88.148802
 30
0.0
 10
140.692608
 20
87.992034
 30
0.0
 10
140.643898
 20
87.842120
 30
0.0
 10
140.565079
 20
87.705598
 30
0.0
 10
140.459589
 20
87.588466
 30
0.0
 10
140.332060
 20
87.495809
 30
0.0
 10
140.188048
 20
87.431699
 30
0.0
 10
140.033875
 20
87.398923
 30
0.0
  0
LWPOLYLINE
  5
137
100
AcDbEntity
  8
Layer_1
 62
7
100
AcDbPolyline
 90
30
 70
1
 10
135.505267
 20
85.479551
 30
0.0
 10
135.351086
 20
85.512334
 30
0.0
 10
135.207079
 20
85.576444
 30
0.0
 10
135.079549
 20
85.669101
 30
0.0
 10
134.974071
 20
85.786261
 30
0.0
 10
134.895251
 20
85.922783
 30
0.0
 10
134.846542
 20
86.072697
 30
0.0
 10
134.830063
 20
86.229458
 30
0.0
 10
134.846542
 20
86.386226
 30
0.0
 10
134.895251
 20
86.536168
 30
0.0
 10
134.974071
 20
86.672663
 30
0.0
 10
135.079549
 20
86.789822
 30
0.0
 10
135.207079
 20
86.882480
 30
0.0
 10
135.351086
 20
86.946589
 30
0.0
 10
135.505267
 20
86.979373
 30
0.0
 10
135.662905
 20
86.979373
 30
0.0
 10
135.817105
 20
86.946589
 30
0.0
 10
135.961117
 20
86.882480
 30
0.0
 10
136.088646
 20
86.789822
 30
0.0
 10
136.194109
 20
86.672663
 30
0.0
 10
136.272929
 20
86.536168
 30
0.0
 10
136.321639
 20
86.386226
 30
0.0
 10
136.338122
 20
86.229458
 30
0.0
 10
136.321639
 20
86.072697
 30
0.0
 10
136.272929
 20
85.922783
 30
0.0
 10
136.194109
 20
85.786261
 30
0.0
 10
136.088646
 20
85.669101
 30
0.0
 10
135.961117
 20
85.576444
 30
0.0
 10
135.817105
 20
85.512334
 30
0.0
 10
135.662905
 20
85.479551
 30
0.0
  0
LWPOLYLINE
  5
138
100
AcDbEntity
  8
Layer_1
 62
7
100
AcDbPolyline
 90
30
 70
1
 10
139.938466
 20
81.853179
 30
0.0
 10
139.811334
 20
81.880193
 30
0.0
 10
139.692615
 20
81.933054
 30
0.0
 10
139.587496
 20
82.009435
 30
0.0
 10
139.500528
 20
82.106013
 30
0.0
 10
139.435546
 20
82.218559
 30
0.0
 10
139.395382
 20
82.342166
 30
0.0
 10
139.381809
 20
82.471401
 30
0.0
 10
139.395382
 20
82.600650
 30
0.0
 10
139.435546
 20
82.724264
 30
0.0
 10
139.500528
 20
82.836789
 30
0.0
 10
139.587496
 20
82.933360
 30
0.0
 10
139.692615
 20
83.009769
 30
0.0
 10
139.811334
 20
83.062609
 30
0.0
 10
139.938466
 20
83.089651
 30
0.0
 10
140.068430
 20
83.089651
 30
0.0
 10
140.195535
 20
83.062609
 30
0.0
 10
140.314254
 20
83.009769
 30
0.0
 10
140.419399
 20
82.933360
 30
0.0
 10
140.506368
 20
82.836789
 30
0.0
 10
140.571323
 20
82.724264
 30
0.0
 10
140.611487
 20
82.600650
 30
0.0
 10
140.625087
 20
82.471401
 30
0.0
 10
140.611487
 20
82.342166
 30
0.0
 10
140.571323
 20
82.218559
 30
0.0
 10
140.506368
 20
82.106013
 30
0.0
 10
140.419399
 20
82.009435
 30
0.0
 10
140.314254
 20
81.933054
 30
0.0
 10
140.195535
 20
81.880193
 30
0.0
 10
140.068430
 20
81.853179
 30
0.0
  0
LWPOLYLINE
  5
139
100
AcDbEntity
  8
Layer_1
 62
7
100
AcDbPolyline
 90
22
 70
1
 10
108.775008
 20
27.454257
 30
0.0
 10
108.775008
 20
35.342116
 30
0.0
 10
108.775008
 20
114.064717
 30
0.0
 10
106.130691
 20
114.064717
 30
0.0
 10
106.130691
 20
116.708867
 30
0.0
 10
2.710423
 20
116.708867
 30
0.0
 10
2.710423
 20
114.064717
 30
0.0
 10
0.066106
 20
114.064717
 30
0.0
 10
0.066106
 20
21.447837
 30
0.0
 10
2.710423
 20
21.447837
 30
0.0
 10
2.710423
 20
18.803694
 30
0.0
 10
98.045138
 20
18.803694
 30
0.0
 10
97.906049
 20
20.125756
 30
0.0
 10
98.079520
 20
21.775031
 30
0.0
 10
98.591986
 20
23.352194
 30
0.0
 10
99.420984
 20
24.788342
 30
0.0
 10
100.530808
 20
26.020728
 30
0.0
 10
101.872534
 20
26.995493
 30
0.0
 10
103.387467
 20
27.669993
 30
0.0
 10
105.009762
 20
28.014761
 30
0.0
 10
106.668284
 20
28.014761
 30
0.0
 10
108.290577
 20
27.669993
 30
0.0
  0
LWPOLYLINE
  5
13a
100
AcDbEntity
  8
Layer_1
 62
7
100
AcDbPolyline
 90
30
 70
1
 10
102.987385
 20
110.698960
 30
0.0
 10
102.581747
 20
110.785230
 30
0.0
 10
102.203075
 20
110.953923
 30
0.0
 10
101.867777
 20
111.197451
 30
0.0
 10
101.590123
 20
111.505762
 30
0.0
 10
101.382804
 20
111.864563
 30
0.0
 10
101.254825
 20
112.259081
 30
0.0
 10
101.211451
 20
112.671312
 30
0.0
 10
101.254825
 20
113.083523
 30
0.0
 10
101.382804
 20
113.478043
 30
0.0
 10
101.590123
 20
113.836844
 30
0.0
 10
101.867777
 20
114.145166
 30
0.0
 10
102.203075
 20
114.388694
 30
0.0
 10
102.581747
 20
114.557376
 30
0.0
 10
102.987385
 20
114.643546
 30
0.0
 10
103.402008
 20
114.643546
 30
0.0
 10
103.807646
 20
114.557376
 30
0.0
 10
104.186321
 20
114.388694
 30
0.0
 10
104.521619
 20
114.145166
 30
0.0
 10
104.799270
 20
113.836844
 30
0.0
 10
105.006582
 20
113.478043
 30
0.0
 10
105.134569
 20
113.083523
 30
0.0
 10
105.177945
 20
112.671312
 30
0.0
 10
105.134569
 20
112.259081
 30
0.0
 10
105.006582
 20
111.864563
 30
0.0
 10
104.799270
 20
111.505762
 30
0.0
 10
104.521619
 20
111.197451
 30
0.0
 10
104.186321
 20
110.953923
 30
0.0
 10
103.807646
 20
110.785230
 30
0.0
 10
103.402008
 20
110.698960
 30
0.0
  0
LWPOLYLINE
  5
13b
100
AcDbEntity
  8
Layer_1
 62
7
100
AcDbPolyline
 90
30
 70
1
 10
5.147431
 20
110.698960
 30
0.0
 10
4.741889
 20
110.785230
 30
0.0
 10
4.363130
 20
110.953923
 30
0.0
 10
4.027691
 20
111.197451
 30
0.0
 10
3.750278
 20
111.505762
 30
0.0
 10
3.542956
 20
111.864563
 30
0.0
 10
3.414837
 20
112.259081
 30
0.0
 10
3.371466
 20
112.671312
 30
0.0
 10
3.414837
 20
113.083523
 30
0.0
 10
3.542956
 20
113.478043
 30
0.0
 10
3.750278
 20
113.836844
 30
0.0
 10
4.027691
 20
114.145166
 30
0.0
 10
4.363130
 20
114.388694
 30
0.0
 10
4.741889
 20
114.557376
 30
0.0
 10
5.147431
 20
114.643546
 30
0.0
 10
5.562063
 20
114.643546
 30
0.0
 10
5.967592
 20
114.557376
 30
0.0
 10
6.346370
 20
114.388694
 30
0.0
 10
6.681798
 20
114.145166
 30
0.0
 10
6.959219
 20
113.836844
 30
0.0
 10
7.166530
 20
113.478043
 30
0.0
 10
7.294647
 20
113.083523
 30
0.0
 10
7.338023
 20
112.671312
 30
0.0
 10
7.294647
 20
112.259081
 30
0.0
 10
7.166530
 20
111.864563
 30
0.0
 10
6.959219
 20
111.505762
 30
0.0
 10
6.681798
 20
111.197451
 30
0.0
 10
6.346370
 20
110.953923
 30
0.0
 10
5.967592
 20
110.785230
 30
0.0
 10
5.562063
 20
110.698960
 30
0.0
  0
LWPOLYLINE
  5
13c
100
AcDbEntity
  8
Layer_1
 62
7
100
AcDbPolyline
 90
30
 70
1
 10
40.473207
 20
102.136909
 30
0.0
 10
40.372985
 20
102.158314
 30
0.0
 10
40.279635
 20
102.199697
 30
0.0
 10
40.196884
 20
102.259773
 30
0.0
 10
40.128420
 20
102.335944
 30
0.0
 10
40.077353
 20
102.424508
 30
0.0
 10
40.045672
 20
102.521571
 30
0.0
 10
40.035062
 20
102.623382
 30
0.0
 10
40.045672
 20
102.725176
 30
0.0
 10
40.077353
 20
102.822238
 30
0.0
 10
40.128420
 20
102.910805
 30
0.0
 10
40.196884
 20
102.986975
 30
0.0
 10
40.279635
 20
103.047052
 30
0.0
 10
40.372985
 20
103.088433
 30
0.0
 10
40.473207
 20
103.109837
 30
0.0
 10
40.575275
 20
103.109837
 30
0.0
 10
40.675502
 20
103.088433
 30
0.0
 10
40.768844
 20
103.047052
 30
0.0
 10
40.851601
 20
102.986975
 30
0.0
 10
40.920061
 20
102.910805
 30
0.0
 10
40.971131
 20
102.822238
 30
0.0
 10
41.002813
 20
102.725176
 30
0.0
 10
41.013422
 20
102.623382
 30
0.0
 10
41.002813
 20
102.521571
 30
0.0
 10
40.971131
 20
102.424508
 30
0.0
 10
40.920061
 20
102.335944
 30
0.0
 10
40.851601
 20
102.259773
 30
0.0
 10
40.768844
 20
102.199697
 30
0.0
 10
40.675502
 20
102.158314
 30
0.0
 10
40.575275
 20
102.136909
 30
0.0
  0
LWPOLYLINE
  5
13d
100
AcDbEntity
  8
Layer_1
 62
7
100
AcDbPolyline
 90
30
 70
1
 10
88.071015
 20
102.136909
 30
0.0
 10
87.970794
 20
102.158314
 30
0.0
 10
87.877446
 20
102.199697
 30
0.0
 10
87.794695
 20
102.259773
 30
0.0
 10
87.726232
 20
102.335944
 30
0.0
 10
87.675162
 20
102.424508
 30
0.0
 10
87.643380
 20
102.521571
 30
0.0
 10
87.632770
 20
102.623382
 30
0.0
 10
87.643380
 20
102.725176
 30
0.0
 10
87.675162
 20
102.822238
 30
0.0
 10
87.726232
 20
102.910805
 30
0.0
 10
87.794695
 20
102.986975
 30
0.0
 10
87.877446
 20
103.047052
 30
0.0
 10
87.970794
 20
103.088433
 30
0.0
 10
88.071015
 20
103.109837
 30
0.0
 10
88.173086
 20
103.109837
 30
0.0
 10
88.273311
 20
103.088433
 30
0.0
 10
88.366658
 20
103.047052
 30
0.0
 10
88.449409
 20
102.986975
 30
0.0
 10
88.517870
 20
102.910805
 30
0.0
 10
88.568943
 20
102.822238
 30
0.0
 10
88.600725
 20
102.725176
 30
0.0
 10
88.611334
 20
102.623382
 30
0.0
 10
88.600725
 20
102.521571
 30
0.0
 10
88.568943
 20
102.424508
 30
0.0
 10
88.517870
 20
102.335944
 30
0.0
 10
88.449409
 20
102.259773
 30
0.0
 10
88.366658
 20
102.199697
 30
0.0
 10
88.273311
 20
102.158314
 30
0.0
 10
88.173086
 20
102.136909
 30
0.0
  0
LWPOLYLINE
  5
13e
100
AcDbEntity
  8
Layer_1
 62
7
100
AcDbPolyline
 90
30
 70
1
 10
16.674200
 20
102.136909
 30
0.0
 10
16.574156
 20
102.158314
 30
0.0
 10
16.480710
 20
102.199697
 30
0.0
 10
16.397954
 20
102.259773
 30
0.0
 10
16.329496
 20
102.335944
 30
0.0
 10
16.278325
 20
102.424508
 30
0.0
 10
16.246742
 20
102.521571
 30
0.0
 10
16.236053
 20
102.623382
 30
0.0
 10
16.246742
 20
102.725176
 30
0.0
 10
16.278325
 20
102.822238
 30
0.0
 10
16.329496
 20
102.910805
 30
0.0
 10
16.397954
 20
102.986975
 30
0.0
 10
16.480710
 20
103.047052
 30
0.0
 10
16.574156
 20
103.088433
 30
0.0
 10
16.674200
 20
103.109837
 30
0.0
 10
16.776480
 20
103.109837
 30
0.0
 10
16.876514
 20
103.088433
 30
0.0
 10
16.969959
 20
103.047052
 30
0.0
 10
17.052710
 20
102.986975
 30
0.0
 10
17.121174
 20
102.910805
 30
0.0
 10
17.172247
 20
102.822238
 30
0.0
 10
17.203830
 20
102.725176
 30
0.0
 10
17.214519
 20
102.623382
 30
0.0
 10
17.203830
 20
102.521571
 30
0.0
 10
17.172247
 20
102.424508
 30
0.0
 10
17.121174
 20
102.335944
 30
0.0
 10
17.052710
 20
102.259773
 30
0.0
 10
16.969959
 20
102.199697
 30
0.0
 10
16.876514
 20
102.158314
 30
0.0
 10
16.776480
 20
102.136909
 30
0.0
  0
LWPOLYLINE
  5
13f
100
AcDbEntity
  8
Layer_1
 62
7
100
AcDbPolyline
 90
30
 70
1
 10
64.272110
 20
102.136909
 30
0.0
 10
64.171888
 20
102.158314
 30
0.0
 10
64.078541
 20
102.199697
 30
0.0
 10
63.995787
 20
102.259773
 30
0.0
 10
63.927326
 20
102.335944
 30
0.0
 10
63.876256
 20
102.424508
 30
0.0
 10
63.844575
 20
102.521571
 30
0.0
 10
63.833965
 20
102.623382
 30
0.0
 10
63.844575
 20
102.725176
 30
0.0
 10
63.876256
 20
102.822238
 30
0.0
 10
63.927326
 20
102.910805
 30
0.0
 10
63.995787
 20
102.986975
 30
0.0
 10
64.078541
 20
103.047052
 30
0.0
 10
64.171888
 20
103.088433
 30
0.0
 10
64.272110
 20
103.109837
 30
0.0
 10
64.374181
 20
103.109837
 30
0.0
 10
64.474405
 20
103.088433
 30
0.0
 10
64.567750
 20
103.047052
 30
0.0
 10
64.650504
 20
102.986975
 30
0.0
 10
64.718965
 20
102.910805
 30
0.0
 10
64.770034
 20
102.822238
 30
0.0
 10
64.801816
 20
102.725176
 30
0.0
 10
64.812399
 20
102.623382
 30
0.0
 10
64.801816
 20
102.521571
 30
0.0
 10
64.770034
 20
102.424508
 30
0.0
 10
64.718965
 20
102.335944
 30
0.0
 10
64.650504
 20
102.259773
 30
0.0
 10
64.567750
 20
102.199697
 30
0.0
 10
64.474405
 20
102.158314
 30
0.0
 10
64.374181
 20
102.136909
 30
0.0
  0
LWPOLYLINE
  5
140
100
AcDbEntity
  8
Layer_1
 62
7
100
AcDbPolyline
 90
30
 70
1
 10
16.674200
 20
78.339494
 30
0.0
 10
16.574156
 20
78.360899
 30
0.0
 10
16.480710
 20
78.402383
 30
0.0
 10
16.397954
 20
78.462459
 30
0.0
 10
16.329496
 20
78.538630
 30
0.0
 10
16.278325
 20
78.627197
 30
0.0
 10
16.246742
 20
78.724259
 30
0.0
 10
16.236053
 20
78.826060
 30
0.0
 10
16.246742
 20
78.927859
 30
0.0
 10
16.278325
 20
79.024921
 30
0.0
 10
16.329496
 20
79.113490
 30
0.0
 10
16.397954
 20
79.189661
 30
0.0
 10
16.480710
 20
79.249737
 30
0.0
 10
16.574156
 20
79.291121
 30
0.0
 10
16.674200
 20
79.312526
 30
0.0
 10
16.776480
 20
79.312526
 30
0.0
 10
16.876514
 20
79.291121
 30
0.0
 10
16.969959
 20
79.249737
 30
0.0
 10
17.052710
 20
79.189661
 30
0.0
 10
17.121174
 20
79.113490
 30
0.0
 10
17.172247
 20
79.024921
 30
0.0
 10
17.203830
 20
78.927859
 30
0.0
 10
17.214519
 20
78.826060
 30
0.0
 10
17.203830
 20
78.724259
 30
0.0
 10
17.172247
 20
78.627197
 30
0.0
 10
17.121174
 20
78.538630
 30
0.0
 10
17.052710
 20
78.462459
 30
0.0
 10
16.969959
 20
78.402383
 30
0.0
 10
16.876514
 20
78.360899
 30
0.0
 10
16.776480
 20
78.339494
 30
0.0
  0
LWPOLYLINE
  5
141
100
AcDbEntity
  8
Layer_1
 62
7
100
AcDbPolyline
 90
30
 70
1
 10
88.071015
 20
78.339494
 30
0.0
 10
87.970794
 20
78.360899
 30
0.0
 10
87.877446
 20
78.402383
 30
0.0
 10
87.794695
 20
78.462459
 30
0.0
 10
87.726232
 20
78.538630
 30
0.0
 10
87.675162
 20
78.627197
 30
0.0
 10
87.643380
 20
78.724259
 30
0.0
 10
87.632770
 20
78.826060
 30
0.0
 10
87.643380
 20
78.927859
 30
0.0
 10
87.675162
 20
79.024921
 30
0.0
 10
87.726232
 20
79.113490
 30
0.0
 10
87.794695
 20
79.189661
 30
0.0
 10
87.877446
 20
79.249737
 30
0.0
 10
87.970794
 20
79.291121
 30
0.0
 10
88.071015
 20
79.312526
 30
0.0
 10
88.173086
 20
79.312526
 30
0.0
 10
88.273311
 20
79.291121
 30
0.0
 10
88.366658
 20
79.249737
 30
0.0
 10
88.449409
 20
79.189661
 30
0.0
 10
88.517870
 20
79.113490
 30
0.0
 10
88.568943
 20
79.024921
 30
0.0
 10
88.600725
 20
78.927859
 30
0.0
 10
88.611334
 20
78.826060
 30
0.0
 10
88.600725
 20
78.724259
 30
0.0
 10
88.568943
 20
78.627197
 30
0.0
 10
88.517870
 20
78.538630
 30
0.0
 10
88.449409
 20
78.462459
 30
0.0
 10
88.366658
 20
78.402383
 30
0.0
 10
88.273311
 20
78.360899
 30
0.0
 10
88.173086
 20
78.339494
 30
0.0
  0
LWPOLYLINE
  5
142
100
AcDbEntity
  8
Layer_1
 62
7
100
AcDbPolyline
 90
30
 70
1
 10
64.272110
 20
78.339494
 30
0.0
 10
64.171888
 20
78.360899
 30
0.0
 10
64.078541
 20
78.402383
 30
0.0
 10
63.995787
 20
78.462459
 30
0.0
 10
63.927326
 20
78.538630
 30
0.0
 10
63.876256
 20
78.627197
 30
0.0
 10
63.844575
 20
78.724259
 30
0.0
 10
63.833965
 20
78.826060
 30
0.0
 10
63.844575
 20
78.927859
 30
0.0
 10
63.876256
 20
79.024921
 30
0.0
 10
63.927326
 20
79.113490
 30
0.0
 10
63.995787
 20
79.189661
 30
0.0
 10
64.078541
 20
79.249737
 30
0.0
 10
64.171888
 20
79.291121
 30
0.0
 10
64.272110
 20
79.312526
 30
0.0
 10
64.374181
 20
79.312526
 30
0.0
 10
64.474405
 20
79.291121
 30
0.0
 10
64.567750
 20
79.249737
 30
0.0
 10
64.650504
 20
79.189661
 30
0.0
 10
64.718965
 20
79.113490
 30
0.0
 10
64.770034
 20
79.024921
 30
0.0
 10
64.801816
 20
78.927859
 30
0.0
 10
64.812399
 20
78.826060
 30
0.0
 10
64.801816
 20
78.724259
 30
0.0
 10
64.770034
 20
78.627197
 30
0.0
 10
64.718965
 20
78.538630
 30
0.0
 10
64.650504
 20
78.462459
 30
0.0
 10
64.567750
 20
78.402383
 30
0.0
 10
64.474405
 20
78.360899
 30
0.0
 10
64.374181
 20
78.339494
 30
0.0
  0
LWPOLYLINE
  5
143
100
AcDbEntity
  8
Layer_1
 62
7
100
AcDbPolyline
 90
30
 70
1
 10
40.473207
 20
78.339494
 30
0.0
 10
40.372985
 20
78.360899
 30
0.0
 10
40.279635
 20
78.402383
 30
0.0
 10
40.196884
 20
78.462459
 30
0.0
 10
40.128420
 20
78.538630
 30
0.0
 10
40.077353
 20
78.627197
 30
0.0
 10
40.045672
 20
78.724259
 30
0.0
 10
40.035062
 20
78.826060
 30
0.0
 10
40.045672
 20
78.927859
 30
0.0
 10
40.077353
 20
79.024921
 30
0.0
 10
40.128420
 20
79.113490
 30
0.0
 10
40.196884
 20
79.189661
 30
0.0
 10
40.279635
 20
79.249737
 30
0.0
 10
40.372985
 20
79.291121
 30
0.0
 10
40.473207
 20
79.312526
 30
0.0
 10
40.575275
 20
79.312526
 30
0.0
 10
40.675502
 20
79.291121
 30
0.0
 10
40.768844
 20
79.249737
 30
0.0
 10
40.851601
 20
79.189661
 30
0.0
 10
40.920061
 20
79.113490
 30
0.0
 10
40.971131
 20
79.024921
 30
0.0
 10
41.002813
 20
78.927859
 30
0.0
 10
41.013422
 20
78.826060
 30
0.0
 10
41.002813
 20
78.724259
 30
0.0
 10
40.971131
 20
78.627197
 30
0.0
 10
40.920061
 20
78.538630
 30
0.0
 10
40.851601
 20
78.462459
 30
0.0
 10
40.768844
 20
78.402383
 30
0.0
 10
40.675502
 20
78.360899
 30
0.0
 10
40.575275
 20
78.339494
 30
0.0
  0
LWPOLYLINE
  5
144
100
AcDbEntity
  8
Layer_1
 62
7
100
AcDbPolyline
 90
30
 70
1
 10
88.071015
 20
54.542083
 30
0.0
 10
87.970794
 20
54.563488
 30
0.0
 10
87.877446
 20
54.604869
 30
0.0
 10
87.794695
 20
54.664944
 30
0.0
 10
87.726232
 20
54.741118
 30
0.0
 10
87.675162
 20
54.829681
 30
0.0
 10
87.643380
 20
54.926746
 30
0.0
 10
87.632770
 20
55.028537
 30
0.0
 10
87.643380
 20
55.130349
 30
0.0
 10
87.675162
 20
55.227411
 30
0.0
 10
87.726232
 20
55.315975
 30
0.0
 10
87.794695
 20
55.392146
 30
0.0
 10
87.877446
 20
55.452222
 30
0.0
 10
87.970794
 20
55.493606
 30
0.0
 10
88.071015
 20
55.515010
 30
0.0
 10
88.173086
 20
55.515010
 30
0.0
 10
88.273311
 20
55.493606
 30
0.0
 10
88.366658
 20
55.452222
 30
0.0
 10
88.449409
 20
55.392146
 30
0.0
 10
88.517870
 20
55.315975
 30
0.0
 10
88.568943
 20
55.227411
 30
0.0
 10
88.600725
 20
55.130349
 30
0.0
 10
88.611334
 20
55.028537
 30
0.0
 10
88.600725
 20
54.926746
 30
0.0
 10
88.568943
 20
54.829681
 30
0.0
 10
88.517870
 20
54.741118
 30
0.0
 10
88.449409
 20
54.664944
 30
0.0
 10
88.366658
 20
54.604869
 30
0.0
 10
88.273311
 20
54.563488
 30
0.0
 10
88.173086
 20
54.542083
 30
0.0
  0
LWPOLYLINE
  5
145
100
AcDbEntity
  8
Layer_1
 62
7
100
AcDbPolyline
 90
30
 70
1
 10
64.272110
 20
54.542083
 30
0.0
 10
64.171888
 20
54.563488
 30
0.0
 10
64.078541
 20
54.604869
 30
0.0
 10
63.995787
 20
54.664944
 30
0.0
 10
63.927326
 20
54.741118
 30
0.0
 10
63.876256
 20
54.829681
 30
0.0
 10
63.844575
 20
54.926746
 30
0.0
 10
63.833965
 20
55.028537
 30
0.0
 10
63.844575
 20
55.130349
 30
0.0
 10
63.876256
 20
55.227411
 30
0.0
 10
63.927326
 20
55.315975
 30
0.0
 10
63.995787
 20
55.392146
 30
0.0
 10
64.078541
 20
55.452222
 30
0.0
 10
64.171888
 20
55.493606
 30
0.0
 10
64.272110
 20
55.515010
 30
0.0
 10
64.374181
 20
55.515010
 30
0.0
 10
64.474405
 20
55.493606
 30
0.0
 10
64.567750
 20
55.452222
 30
0.0
 10
64.650504
 20
55.392146
 30
0.0
 10
64.718965
 20
55.315975
 30
0.0
 10
64.770034
 20
55.227411
 30
0.0
 10
64.801816
 20
55.130349
 30
0.0
 10
64.812399
 20
55.028537
 30
0.0
 10
64.801816
 20
54.926746
 30
0.0
 10
64.770034
 20
54.829681
 30
0.0
 10
64.718965
 20
54.741118
 30
0.0
 10
64.650504
 20
54.664944
 30
0.0
 10
64.567750
 20
54.604869
 30
0.0
 10
64.474405
 20
54.563488
 30
0.0
 10
64.374181
 20
54.542083
 30
0.0
  0
LWPOLYLINE
  5
146
100
AcDbEntity
  8
Layer_1
 62
7
100
AcDbPolyline
 90
30
 70
1
 10
16.674200
 20
54.542083
 30
0.0
 10
16.574156
 20
54.563488
 30
0.0
 10
16.480710
 20
54.604869
 30
0.0
 10
16.397954
 20
54.664944
 30
0.0
 10
16.329496
 20
54.741118
 30
0.0
 10
16.278325
 20
54.829681
 30
0.0
 10
16.246742
 20
54.926746
 30
0.0
 10
16.236053
 20
55.028537
 30
0.0
 10
16.246742
 20
55.130349
 30
0.0
 10
16.278325
 20
55.227411
 30
0.0
 10
16.329496
 20
55.315975
 30
0.0
 10
16.397954
 20
55.392146
 30
0.0
 10
16.480710
 20
55.452222
 30
0.0
 10
16.574156
 20
55.493606
 30
0.0
 10
16.674200
 20
55.515010
 30
0.0
 10
16.776480
 20
55.515010
 30
0.0
 10
16.876514
 20
55.493606
 30
0.0
 10
16.969959
 20
55.452222
 30
0.0
 10
17.052710
 20
55.392146
 30
0.0
 10
17.121174
 20
55.315975
 30
0.0
 10
17.172247
 20
55.227411
 30
0.0
 10
17.203830
 20
55.130349
 30
0.0
 10
17.214519
 20
55.028537
 30
0.0
 10
17.203830
 20
54.926746
 30
0.0
 10
17.172247
 20
54.829681
 30
0.0
 10
17.121174
 20
54.741118
 30
0.0
 10
17.052710
 20
54.664944
 30
0.0
 10
16.969959
 20
54.604869
 30
0.0
 10
16.876514
 20
54.563488
 30
0.0
 10
16.776480
 20
54.542083
 30
0.0
  0
LWPOLYLINE
  5
147
100
AcDbEntity
  8
Layer_1
 62
7
100
AcDbPolyline
 90
30
 70
1
 10
40.473207
 20
54.542083
 30
0.0
 10
40.372985
 20
54.563488
 30
0.0
 10
40.279635
 20
54.604869
 30
0.0
 10
40.196884
 20
54.664944
 30
0.0
 10
40.128420
 20
54.741118
 30
0.0
 10
40.077353
 20
54.829681
 30
0.0
 10
40.045672
 20
54.926746
 30
0.0
 10
40.035062
 20
55.028537
 30
0.0
 10
40.045672
 20
55.130349
 30
0.0
 10
40.077353
 20
55.227411
 30
0.0
 10
40.128420
 20
55.315975
 30
0.0
 10
40.196884
 20
55.392146
 30
0.0
 10
40.279635
 20
55.452222
 30
0.0
 10
40.372985
 20
55.493606
 30
0.0
 10
40.473207
 20
55.515010
 30
0.0
 10
40.575275
 20
55.515010
 30
0.0
 10
40.675502
 20
55.493606
 30
0.0
 10
40.768844
 20
55.452222
 30
0.0
 10
40.851601
 20
55.392146
 30
0.0
 10
40.920061
 20
55.315975
 30
0.0
 10
40.971131
 20
55.227411
 30
0.0
 10
41.002813
 20
55.130349
 30
0.0
 10
41.013422
 20
55.028537
 30
0.0
 10
41.002813
 20
54.926746
 30
0.0
 10
40.971131
 20
54.829681
 30
0.0
 10
40.920061
 20
54.741118
 30
0.0
 10
40.851601
 20
54.664944
 30
0.0
 10
40.768844
 20
54.604869
 30
0.0
 10
40.675502
 20
54.563488
 30
0.0
 10
40.575275
 20
54.542083
 30
0.0
  0
LWPOLYLINE
  5
148
100
AcDbEntity
  8
Layer_1
 62
7
100
AcDbPolyline
 90
30
 70
1
 10
16.674200
 20
30.744731
 30
0.0
 10
16.574156
 20
30.766030
 30
0.0
 10
16.480710
 20
30.807615
 30
0.0
 10
16.397954
 20
30.867792
 30
0.0
 10
16.329496
 20
30.943762
 30
0.0
 10
16.278325
 20
31.032326
 30
0.0
 10
16.246742
 20
31.129589
 30
0.0
 10
16.236053
 20
31.231290
 30
0.0
 10
16.246742
 20
31.332982
 30
0.0
 10
16.278325
 20
31.430246
 30
0.0
 10
16.329496
 20
31.518810
 30
0.0
 10
16.397954
 20
31.594782
 30
0.0
 10
16.480710
 20
31.654858
 30
0.0
 10
16.574156
 20
31.696440
 30
0.0
 10
16.674200
 20
31.717739
 30
0.0
 10
16.776480
 20
31.717739
 30
0.0
 10
16.876514
 20
31.696440
 30
0.0
 10
16.969959
 20
31.654858
 30
0.0
 10
17.052710
 20
31.594782
 30
0.0
 10
17.121174
 20
31.518810
 30
0.0
 10
17.172247
 20
31.430246
 30
0.0
 10
17.203830
 20
31.332982
 30
0.0
 10
17.214519
 20
31.231290
 30
0.0
 10
17.203830
 20
31.129589
 30
0.0
 10
17.172247
 20
31.032326
 30
0.0
 10
17.121174
 20
30.943762
 30
0.0
 10
17.052710
 20
30.867792
 30
0.0
 10
16.969959
 20
30.807615
 30
0.0
 10
16.876514
 20
30.766030
 30
0.0
 10
16.776480
 20
30.744731
 30
0.0
  0
LWPOLYLINE
  5
149
100
AcDbEntity
  8
Layer_1
 62
7
100
AcDbPolyline
 90
30
 70
1
 10
64.272110
 20
30.744731
 30
0.0
 10
64.171888
 20
30.766030
 30
0.0
 10
64.078541
 20
30.807615
 30
0.0
 10
63.995787
 20
30.867792
 30
0.0
 10
63.927326
 20
30.943762
 30
0.0
 10
63.876256
 20
31.032326
 30
0.0
 10
63.844575
 20
31.129589
 30
0.0
 10
63.833965
 20
31.231290
 30
0.0
 10
63.844575
 20
31.332982
 30
0.0
 10
63.876256
 20
31.430246
 30
0.0
 10
63.927326
 20
31.518810
 30
0.0
 10
63.995787
 20
31.594782
 30
0.0
 10
64.078541
 20
31.654858
 30
0.0
 10
64.171888
 20
31.696440
 30
0.0
 10
64.272110
 20
31.717739
 30
0.0
 10
64.374181
 20
31.717739
 30
0.0
 10
64.474405
 20
31.696440
 30
0.0
 10
64.567750
 20
31.654858
 30
0.0
 10
64.650504
 20
31.594782
 30
0.0
 10
64.718965
 20
31.518810
 30
0.0
 10
64.770034
 20
31.430246
 30
0.0
 10
64.801816
 20
31.332982
 30
0.0
 10
64.812399
 20
31.231290
 30
0.0
 10
64.801816
 20
31.129589
 30
0.0
 10
64.770034
 20
31.032326
 30
0.0
 10
64.718965
 20
30.943762
 30
0.0
 10
64.650504
 20
30.867792
 30
0.0
 10
64.567750
 20
30.807615
 30
0.0
 10
64.474405
 20
30.766030
 30
0.0
 10
64.374181
 20
30.744731
 30
0.0
  0
LWPOLYLINE
  5
14a
100
AcDbEntity
  8
Layer_1
 62
7
100
AcDbPolyline
 90
30
 70
1
 10
88.071015
 20
30.744731
 30
0.0
 10
87.970794
 20
30.766030
 30
0.0
 10
87.877446
 20
30.807615
 30
0.0
 10
87.794695
 20
30.867792
 30
0.0
 10
87.726232
 20
30.943762
 30
0.0
 10
87.675162
 20
31.032326
 30
0.0
 10
87.643380
 20
31.129589
 30
0.0
 10
87.632770
 20
31.231290
 30
0.0
 10
87.643380
 20
31.332982
 30
0.0
 10
87.675162
 20
31.430246
 30
0.0
 10
87.726232
 20
31.518810
 30
0.0
 10
87.794695
 20
31.594782
 30
0.0
 10
87.877446
 20
31.654858
 30
0.0
 10
87.970794
 20
31.696440
 30
0.0
 10
88.071015
 20
31.717739
 30
0.0
 10
88.173086
 20
31.717739
 30
0.0
 10
88.273311
 20
31.696440
 30
0.0
 10
88.366658
 20
31.654858
 30
0.0
 10
88.449409
 20
31.594782
 30
0.0
 10
88.517870
 20
31.518810
 30
0.0
 10
88.568943
 20
31.430246
 30
0.0
 10
88.600725
 20
31.332982
 30
0.0
 10
88.611334
 20
31.231290
 30
0.0
 10
88.600725
 20
31.129589
 30
0.0
 10
88.568943
 20
31.032326
 30
0.0
 10
88.517870
 20
30.943762
 30
0.0
 10
88.449409
 20
30.867792
 30
0.0
 10
88.366658
 20
30.807615
 30
0.0
 10
88.273311
 20
30.766030
 30
0.0
 10
88.173086
 20
30.744731
 30
0.0
  0
LWPOLYLINE
  5
14b
100
AcDbEntity
  8
Layer_1
 62
7
100
AcDbPolyline
 90
30
 70
1
 10
40.473207
 20
30.744731
 30
0.0
 10
40.372985
 20
30.766030
 30
0.0
 10
40.279635
 20
30.807615
 30
0.0
 10
40.196884
 20
30.867792
 30
0.0
 10
40.128420
 20
30.943762
 30
0.0
 10
40.077353
 20
31.032326
 30
0.0
 10
40.045672
 20
31.129589
 30
0.0
 10
40.035062
 20
31.231290
 30
0.0
 10
40.045672
 20
31.332982
 30
0.0
 10
40.077353
 20
31.430246
 30
0.0
 10
40.128420
 20
31.518810
 30
0.0
 10
40.196884
 20
31.594782
 30
0.0
 10
40.279635
 20
31.654858
 30
0.0
 10
40.372985
 20
31.696440
 30
0.0
 10
40.473207
 20
31.717739
 30
0.0
 10
40.575275
 20
31.717739
 30
0.0
 10
40.675502
 20
31.696440
 30
0.0
 10
40.768844
 20
31.654858
 30
0.0
 10
40.851601
 20
31.594782
 30
0.0
 10
40.920061
 20
31.518810
 30
0.0
 10
40.971131
 20
31.430246
 30
0.0
 10
41.002813
 20
31.332982
 30
0.0
 10
41.013422
 20
31.231290
 30
0.0
 10
41.002813
 20
31.129589
 30
0.0
 10
40.971131
 20
31.032326
 30
0.0
 10
40.920061
 20
30.943762
 30
0.0
 10
40.851601
 20
30.867792
 30
0.0
 10
40.768844
 20
30.807615
 30
0.0
 10
40.675502
 20
30.766030
 30
0.0
 10
40.575275
 20
30.744731
 30
0.0
  0
LWPOLYLINE
  5
14c
100
AcDbEntity
  8
Layer_1
 62
7
100
AcDbPolyline
 90
4
 70
1
 10
209.359669
 20
34.315736
 30
0.0
 10
111.329917
 20
34.315736
 30
0.0
 10
111.329917
 20
17.761778
 30
0.0
 10
209.359669
 20
17.761778
 30
0.0
  0
LWPOLYLINE
  5
14d
100
AcDbEntity
  8
Layer_1
 62
7
100
AcDbPolyline
 90
30
 70
1
 10
125.610572
 20
30.142908
 30
0.0
 10
125.465544
 20
30.173615
 30
0.0
 10
125.330048
 20
30.233829
 30
0.0
 10
125.210112
 20
30.320634
 30
0.0
 10
125.110875
 20
30.430483
 30
0.0
 10
125.036720
 20
30.558454
 30
0.0
 10
124.990847
 20
30.699030
 30
0.0
 10
124.975369
 20
30.846006
 30
0.0
 10
124.990847
 20
30.992985
 30
0.0
 10
125.036720
 20
31.133561
 30
0.0
 10
125.110875
 20
31.261532
 30
0.0
 10
125.210112
 20
31.371365
 30
0.0
 10
125.330048
 20
31.458175
 30
0.0
 10
125.465544
 20
31.518185
 30
0.0
 10
125.610572
 20
31.548996
 30
0.0
 10
125.758861
 20
31.548996
 30
0.0
 10
125.903892
 20
31.518185
 30
0.0
 10
126.039356
 20
31.458175
 30
0.0
 10
126.159323
 20
31.371365
 30
0.0
 10
126.258561
 20
31.261532
 30
0.0
 10
126.332716
 20
31.133561
 30
0.0
 10
126.378586
 20
30.992985
 30
0.0
 10
126.394064
 20
30.846006
 30
0.0
 10
126.378586
 20
30.699030
 30
0.0
 10
126.332716
 20
30.558454
 30
0.0
 10
126.258561
 20
30.430483
 30
0.0
 10
126.159323
 20
30.320634
 30
0.0
 10
126.039356
 20
30.233829
 30
0.0
 10
125.903892
 20
30.173615
 30
0.0
 10
125.758861
 20
30.142908
 30
0.0
  0
LWPOLYLINE
  5
14e
100
AcDbEntity
  8
Layer_1
 62
7
100
AcDbPolyline
 90
30
 70
1
 10
116.776857
 20
30.142908
 30
0.0
 10
116.631818
 20
30.173615
 30
0.0
 10
116.496333
 20
30.233829
 30
0.0
 10
116.376397
 20
30.320634
 30
0.0
 10
116.277157
 20
30.430483
 30
0.0
 10
116.203002
 20
30.558454
 30
0.0
 10
116.157132
 20
30.699030
 30
0.0
 10
116.141627
 20
30.846006
 30
0.0
 10
116.157132
 20
30.992985
 30
0.0
 10
116.203002
 20
31.133561
 30
0.0
 10
116.277157
 20
31.261532
 30
0.0
 10
116.376397
 20
31.371365
 30
0.0
 10
116.496333
 20
31.458175
 30
0.0
 10
116.631818
 20
31.518185
 30
0.0
 10
116.776857
 20
31.548996
 30
0.0
 10
116.925143
 20
31.548996
 30
0.0
 10
117.070177
 20
31.518185
 30
0.0
 10
117.205641
 20
31.458175
 30
0.0
 10
117.325606
 20
31.371365
 30
0.0
 10
117.424846
 20
31.261532
 30
0.0
 10
117.499000
 20
31.133561
 30
0.0
 10
117.544871
 20
30.992985
 30
0.0
 10
117.560376
 20
30.846006
 30
0.0
 10
117.544871
 20
30.699030
 30
0.0
 10
117.499000
 20
30.558454
 30
0.0
 10
117.424846
 20
30.430483
 30
0.0
 10
117.325606
 20
30.320634
 30
0.0
 10
117.205641
 20
30.233829
 30
0.0
 10
117.070177
 20
30.173615
 30
0.0
 10
116.925143
 20
30.142908
 30
0.0
  0
LWPOLYLINE
  5
14f
100
AcDbEntity
  8
Layer_1
 62
7
100
AcDbPolyline
 90
30
 70
1
 10
120.625767
 20
21.640795
 30
0.0
 10
119.609658
 20
21.856054
 30
0.0
 10
118.660688
 20
22.277157
 30
0.0
 10
117.820279
 20
22.885731
 30
0.0
 10
117.125168
 20
23.655136
 30
0.0
 10
116.605804
 20
24.551767
 30
0.0
 10
116.284772
 20
25.536427
 30
0.0
 10
116.176200
 20
26.566098
 30
0.0
 10
116.284772
 20
27.595777
 30
0.0
 10
116.605804
 20
28.580440
 30
0.0
 10
117.125168
 20
29.477081
 30
0.0
 10
117.820279
 20
30.246481
 30
0.0
 10
118.660688
 20
30.855018
 30
0.0
 10
119.609658
 20
31.276134
 30
0.0
 10
120.625767
 20
31.491388
 30
0.0
 10
121.664563
 20
31.491388
 30
0.0
 10
122.680653
 20
31.276134
 30
0.0
 10
123.629653
 20
30.855018
 30
0.0
 10
124.470052
 20
30.246481
 30
0.0
 10
125.165130
 20
29.477081
 30
0.0
 10
125.684537
 20
28.580440
 30
0.0
 10
126.005537
 20
27.595777
 30
0.0
 10
126.114130
 20
26.566098
 30
0.0
 10
126.005537
 20
25.536427
 30
0.0
 10
125.684537
 20
24.551767
 30
0.0
 10
125.165130
 20
23.655136
 30
0.0
 10
124.470052
 20
22.885731
 30
0.0
 10
123.629653
 20
22.277157
 30
0.0
 10
122.680653
 20
21.856054
 30
0.0
 10
121.664563
 20
21.640795
 30
0.0
  0
LWPOLYLINE
  5
150
100
AcDbEntity
  8
Layer_1
 62
7
100
AcDbPolyline
 90
30
 70
1
 10
142.096961
 20
30.095531
 30
0.0
 10
142.040594
 20
30.113893
 30
0.0
 10
141.989027
 20
30.143498
 30
0.0
 10
141.945154
 20
30.183034
 30
0.0
 10
141.910276
 20
30.230805
 30
0.0
 10
141.886199
 20
30.284793
 30
0.0
 10
141.873817
 20
30.342597
 30
0.0
 10
141.873817
 20
30.401805
 30
0.0
 10
141.886199
 20
30.459712
 30
0.0
 10
141.910276
 20
30.513700
 30
0.0
 10
141.945154
 20
30.561470
 30
0.0
 10
141.989027
 20
30.601010
 30
0.0
 10
142.040594
 20
30.630614
 30
0.0
 10
142.096961
 20
30.648976
 30
0.0
 10
142.155923
 20
30.654982
 30
0.0
 10
142.214888
 20
30.648976
 30
0.0
 10
142.271253
 20
30.630614
 30
0.0
 10
142.322820
 20
30.601010
 30
0.0
 10
142.366693
 20
30.561470
 30
0.0
 10
142.401570
 20
30.513700
 30
0.0
 10
142.425648
 20
30.459712
 30
0.0
 10
142.438030
 20
30.401805
 30
0.0
 10
142.438030
 20
30.342597
 30
0.0
 10
142.425648
 20
30.284793
 30
0.0
 10
142.401570
 20
30.230805
 30
0.0
 10
142.366693
 20
30.183034
 30
0.0
 10
142.322820
 20
30.143498
 30
0.0
 10
142.271253
 20
30.113893
 30
0.0
 10
142.214888
 20
30.095531
 30
0.0
 10
142.155923
 20
30.089525
 30
0.0
  0
LWPOLYLINE
  5
151
100
AcDbEntity
  8
Layer_1
 62
7
100
AcDbPolyline
 90
30
 70
1
 10
157.399971
 20
30.513533
 30
0.0
 10
157.434852
 20
30.561301
 30
0.0
 10
157.478722
 20
30.600843
 30
0.0
 10
157.530292
 20
30.630447
 30
0.0
 10
157.586656
 20
30.648809
 30
0.0
 10
157.645619
 20
30.654815
 30
0.0
 10
157.704584
 20
30.648809
 30
0.0
 10
157.760948
 20
30.630447
 30
0.0
 10
157.812515
 20
30.600843
 30
0.0
 10
157.856388
 20
30.561301
 30
0.0
 10
157.891268
 20
30.513533
 30
0.0
 10
157.915345
 20
30.459542
 30
0.0
 10
157.927728
 20
30.401641
 30
0.0
 10
157.927728
 20
30.342530
 30
0.0
 10
157.915345
 20
30.284727
 30
0.0
 10
157.891268
 20
30.230736
 30
0.0
 10
157.856388
 20
30.182968
 30
0.0
 10
157.812515
 20
30.143429
 30
0.0
 10
157.760948
 20
30.113825
 30
0.0
 10
157.704584
 20
30.095463
 30
0.0
 10
157.645619
 20
30.089456
 30
0.0
 10
157.586656
 20
30.095463
 30
0.0
 10
157.530292
 20
30.113825
 30
0.0
 10
157.478722
 20
30.143429
 30
0.0
 10
157.434852
 20
30.182968
 30
0.0
 10
157.399971
 20
30.230736
 30
0.0
 10
157.375894
 20
30.284727
 30
0.0
 10
157.363512
 20
30.342530
 30
0.0
 10
157.363512
 20
30.401641
 30
0.0
 10
157.375894
 20
30.459542
 30
0.0
  0
LWPOLYLINE
  5
152
100
AcDbEntity
  8
Layer_1
 62
7
100
AcDbPolyline
 90
30
 70
1
 10
134.352099
 20
30.095531
 30
0.0
 10
134.295732
 20
30.113893
 30
0.0
 10
134.244366
 20
30.143498
 30
0.0
 10
134.200291
 20
30.183034
 30
0.0
 10
134.165414
 20
30.230805
 30
0.0
 10
134.141337
 20
30.284793
 30
0.0
 10
134.129034
 20
30.342597
 30
0.0
 10
134.129034
 20
30.401805
 30
0.0
 10
134.141337
 20
30.459712
 30
0.0
 10
134.165414
 20
30.513700
 30
0.0
 10
134.200291
 20
30.561470
 30
0.0
 10
134.244366
 20
30.601010
 30
0.0
 10
134.295732
 20
30.630614
 30
0.0
 10
134.352099
 20
30.648976
 30
0.0
 10
134.411061
 20
30.654982
 30
0.0
 10
134.470024
 20
30.648976
 30
0.0
 10
134.526390
 20
30.630614
 30
0.0
 10
134.577757
 20
30.601010
 30
0.0
 10
134.621831
 20
30.561470
 30
0.0
 10
134.656708
 20
30.513700
 30
0.0
 10
134.680891
 20
30.459712
 30
0.0
 10
134.693194
 20
30.401805
 30
0.0
 10
134.693194
 20
30.342597
 30
0.0
 10
134.680891
 20
30.284793
 30
0.0
 10
134.656708
 20
30.230805
 30
0.0
 10
134.621831
 20
30.183034
 30
0.0
 10
134.577757
 20
30.143498
 30
0.0
 10
134.526390
 20
30.113893
 30
0.0
 10
134.470024
 20
30.095531
 30
0.0
 10
134.411061
 20
30.089525
 30
0.0
  0
LWPOLYLINE
  5
153
100
AcDbEntity
  8
Layer_1
 62
7
100
AcDbPolyline
 90
30
 70
1
 10
165.331487
 20
30.095531
 30
0.0
 10
165.275162
 20
30.113893
 30
0.0
 10
165.223603
 20
30.143498
 30
0.0
 10
165.179711
 20
30.183034
 30
0.0
 10
165.144802
 20
30.230805
 30
0.0
 10
165.120725
 20
30.284793
 30
0.0
 10
165.108289
 20
30.342597
 30
0.0
 10
165.108289
 20
30.401805
 30
0.0
 10
165.120725
 20
30.459712
 30
0.0
 10
165.144802
 20
30.513700
 30
0.0
 10
165.179711
 20
30.561470
 30
0.0
 10
165.223603
 20
30.601010
 30
0.0
 10
165.275162
 20
30.630614
 30
0.0
 10
165.331487
 20
30.648976
 30
0.0
 10
165.390449
 20
30.654982
 30
0.0
 10
165.449414
 20
30.648976
 30
0.0
 10
165.505739
 20
30.630614
 30
0.0
 10
165.557298
 20
30.601010
 30
0.0
 10
165.601190
 20
30.561470
 30
0.0
 10
165.636099
 20
30.513700
 30
0.0
 10
165.660176
 20
30.459712
 30
0.0
 10
165.672611
 20
30.401805
 30
0.0
 10
165.672611
 20
30.342597
 30
0.0
 10
165.660176
 20
30.284793
 30
0.0
 10
165.636099
 20
30.230805
 30
0.0
 10
165.601190
 20
30.183034
 30
0.0
 10
165.557298
 20
30.143498
 30
0.0
 10
165.505739
 20
30.113893
 30
0.0
 10
165.449414
 20
30.095531
 30
0.0
 10
165.390449
 20
30.089525
 30
0.0
  0
LWPOLYLINE
  5
154
100
AcDbEntity
  8
Layer_1
 62
7
100
AcDbPolyline
 90
4
 70
1
 10
137.171628
 20
22.729502
 30
0.0
 10
137.171628
 20
28.996465
 30
0.0
 10
163.243368
 20
28.996465
 30
0.0
 10
163.243368
 20
22.729502
 30
0.0
  0
LWPOLYLINE
  5
155
100
AcDbEntity
  8
Layer_1
 62
7
100
AcDbPolyline
 90
4
 70
1
 10
181.738963
 20
24.869434
 30
0.0
 10
181.738963
 20
27.467936
 30
0.0
 10
184.346138
 20
27.467936
 30
0.0
 10
184.346138
 20
24.869434
 30
0.0
  0
LWPOLYLINE
  5
156
100
AcDbEntity
  8
Layer_1
 62
7
100
AcDbPolyline
 90
4
 70
1
 10
174.193496
 20
24.869434
 30
0.0
 10
174.193496
 20
27.467936
 30
0.0
 10
176.800669
 20
27.467936
 30
0.0
 10
176.800669
 20
24.869434
 30
0.0
  0
LWPOLYLINE
  5
157
100
AcDbEntity
  8
Layer_1
 62
7
100
AcDbPolyline
 90
4
 70
1
 10
189.284430
 20
24.869434
 30
0.0
 10
189.284430
 20
27.467936
 30
0.0
 10
191.891605
 20
27.467936
 30
0.0
 10
191.891605
 20
24.869434
 30
0.0
  0
LWPOLYLINE
  5
158
100
AcDbEntity
  8
Layer_1
 62
7
100
AcDbPolyline
 90
54
 70
1
 10
188.632637
 20
25.889913
 30
0.0
 10
188.594304
 20
25.885891
 30
0.0
 10
188.555966
 20
25.889913
 30
0.0
 10
188.517631
 20
25.885891
 30
0.0
 10
188.479292
 20
25.889913
 30
0.0
 10
188.440957
 20
25.885891
 30
0.0
 10
188.402621
 20
25.889913
 30
0.0
 10
188.364283
 20
25.885891
 30
0.0
 10
188.325951
 20
25.889913
 30
0.0
 10
188.287612
 20
25.885891
 30
0.0
 10
188.249274
 20
25.889913
 30
0.0
 10
188.210939
 20
25.885891
 30
0.0
 10
188.151976
 20
25.891897
 30
0.0
 10
188.095652
 20
25.910260
 30
0.0
 10
188.044093
 20
25.939864
 30
0.0
 10
188.000201
 20
25.979400
 30
0.0
 10
187.965302
 20
26.027171
 30
0.0
 10
187.941252
 20
26.081159
 30
0.0
 10
187.928816
 20
26.138965
 30
0.0
 10
187.928816
 20
26.198073
 30
0.0
 10
187.941252
 20
26.255977
 30
0.0
 10
187.965302
 20
26.309968
 30
0.0
 10
188.000201
 20
26.357736
 30
0.0
 10
188.044093
 20
26.397275
 30
0.0
 10
188.095652
 20
26.426880
 30
0.0
 10
188.151976
 20
26.445162
 30
0.0
 10
188.210939
 20
26.451168
 30
0.0
 10
188.249274
 20
26.447147
 30
0.0
 10
188.287612
 20
26.451168
 30
0.0
 10
188.325951
 20
26.447147
 30
0.0
 10
188.364283
 20
26.451168
 30
0.0
 10
188.402621
 20
26.447147
 30
0.0
 10
188.440957
 20
26.451168
 30
0.0
 10
188.479292
 20
26.447147
 30
0.0
 10
188.517631
 20
26.451168
 30
0.0
 10
188.555966
 20
26.447147
 30
0.0
 10
188.594304
 20
26.451168
 30
0.0
 10
188.632637
 20
26.447147
 30
0.0
 10
188.670975
 20
26.451168
 30
0.0
 10
188.729938
 20
26.445162
 30
0.0
 10
188.786265
 20
26.426880
 30
0.0
 10
188.837821
 20
26.397275
 30
0.0
 10
188.881713
 20
26.357736
 30
0.0
 10
188.916622
 20
26.309968
 30
0.0
 10
188.940673
 20
26.255977
 30
0.0
 10
188.953108
 20
26.198073
 30
0.0
 10
188.953108
 20
26.138965
 30
0.0
 10
188.940673
 20
26.081159
 30
0.0
 10
188.916622
 20
26.027171
 30
0.0
 10
188.881713
 20
25.979400
 30
0.0
 10
188.837821
 20
25.939864
 30
0.0
 10
188.786265
 20
25.910260
 30
0.0
 10
188.729938
 20
25.891897
 30
0.0
 10
188.670975
 20
25.885891
 30
0.0
  0
LWPOLYLINE
  5
159
100
AcDbEntity
  8
Layer_1
 62
7
100
AcDbPolyline
 90
54
 70
1
 10
173.541703
 20
25.889913
 30
0.0
 10
173.503357
 20
25.885891
 30
0.0
 10
173.465022
 20
25.889913
 30
0.0
 10
173.426676
 20
25.885891
 30
0.0
 10
173.388340
 20
25.889913
 30
0.0
 10
173.349991
 20
25.885891
 30
0.0
 10
173.311656
 20
25.889913
 30
0.0
 10
173.273320
 20
25.885891
 30
0.0
 10
173.234985
 20
25.889913
 30
0.0
 10
173.196647
 20
25.885891
 30
0.0
 10
173.158301
 20
25.889913
 30
0.0
 10
173.119965
 20
25.885891
 30
0.0
 10
173.061003
 20
25.891897
 30
0.0
 10
173.004676
 20
25.910260
 30
0.0
 10
172.953119
 20
25.939864
 30
0.0
 10
172.909227
 20
25.979400
 30
0.0
 10
172.874329
 20
26.027171
 30
0.0
 10
172.850252
 20
26.081159
 30
0.0
 10
172.837816
 20
26.138965
 30
0.0
 10
172.837816
 20
26.198073
 30
0.0
 10
172.850252
 20
26.255977
 30
0.0
 10
172.874329
 20
26.309968
 30
0.0
 10
172.909227
 20
26.357736
 30
0.0
 10
172.953119
 20
26.397275
 30
0.0
 10
173.004676
 20
26.426880
 30
0.0
 10
173.061003
 20
26.445162
 30
0.0
 10
173.119965
 20
26.451168
 30
0.0
 10
173.158301
 20
26.447147
 30
0.0
 10
173.196647
 20
26.451168
 30
0.0
 10
173.234985
 20
26.447147
 30
0.0
 10
173.273320
 20
26.451168
 30
0.0
 10
173.311656
 20
26.447147
 30
0.0
 10
173.349991
 20
26.451168
 30
0.0
 10
173.388340
 20
26.447147
 30
0.0
 10
173.426676
 20
26.451168
 30
0.0
 10
173.465022
 20
26.447147
 30
0.0
 10
173.503357
 20
26.451168
 30
0.0
 10
173.541703
 20
26.447147
 30
0.0
 10
173.580041
 20
26.451168
 30
0.0
 10
173.639004
 20
26.445162
 30
0.0
 10
173.695328
 20
26.426880
 30
0.0
 10
173.746888
 20
26.397275
 30
0.0
 10
173.790779
 20
26.357736
 30
0.0
 10
173.825688
 20
26.309968
 30
0.0
 10
173.849739
 20
26.255977
 30
0.0
 10
173.862175
 20
26.198073
 30
0.0
 10
173.862175
 20
26.138965
 30
0.0
 10
173.849739
 20
26.081159
 30
0.0
 10
173.825688
 20
26.027171
 30
0.0
 10
173.790779
 20
25.979400
 30
0.0
 10
173.746888
 20
25.939864
 30
0.0
 10
173.695328
 20
25.910260
 30
0.0
 10
173.639004
 20
25.891897
 30
0.0
 10
173.580041
 20
25.885891
 30
0.0
  0
LWPOLYLINE
  5
15a
100
AcDbEntity
  8
Layer_1
 62
7
100
AcDbPolyline
 90
54
 70
1
 10
192.926806
 20
25.889913
 30
0.0
 10
192.888468
 20
25.885891
 30
0.0
 10
192.850132
 20
25.889913
 30
0.0
 10
192.811789
 20
25.885891
 30
0.0
 10
192.773451
 20
25.889913
 30
0.0
 10
192.735105
 20
25.885891
 30
0.0
 10
192.696769
 20
25.889913
 30
0.0
 10
192.658421
 20
25.885891
 30
0.0
 10
192.620088
 20
25.889913
 30
0.0
 10
192.581752
 20
25.885891
 30
0.0
 10
192.543404
 20
25.889913
 30
0.0
 10
192.505068
 20
25.885891
 30
0.0
 10
192.446106
 20
25.891897
 30
0.0
 10
192.389779
 20
25.910260
 30
0.0
 10
192.338222
 20
25.939864
 30
0.0
 10
192.294330
 20
25.979400
 30
0.0
 10
192.259421
 20
26.027171
 30
0.0
 10
192.235370
 20
26.081159
 30
0.0
 10
192.222935
 20
26.138965
 30
0.0
 10
192.222935
 20
26.198073
 30
0.0
 10
192.235370
 20
26.255977
 30
0.0
 10
192.259421
 20
26.309968
 30
0.0
 10
192.294330
 20
26.357736
 30
0.0
 10
192.338222
 20
26.397275
 30
0.0
 10
192.389779
 20
26.426880
 30
0.0
 10
192.446106
 20
26.445162
 30
0.0
 10
192.505068
 20
26.451168
 30
0.0
 10
192.543404
 20
26.447147
 30
0.0
 10
192.581752
 20
26.451168
 30
0.0
 10
192.620088
 20
26.447147
 30
0.0
 10
192.658421
 20
26.451168
 30
0.0
 10
192.696769
 20
26.447147
 30
0.0
 10
192.735105
 20
26.451168
 30
0.0
 10
192.773451
 20
26.447147
 30
0.0
 10
192.811789
 20
26.451168
 30
0.0
 10
192.850132
 20
26.447147
 30
0.0
 10
192.888468
 20
26.451168
 30
0.0
 10
192.926806
 20
26.447147
 30
0.0
 10
192.965141
 20
26.451168
 30
0.0
 10
193.024106
 20
26.445162
 30
0.0
 10
193.080431
 20
26.426880
 30
0.0
 10
193.131988
 20
26.397275
 30
0.0
 10
193.175879
 20
26.357736
 30
0.0
 10
193.210791
 20
26.309968
 30
0.0
 10
193.234842
 20
26.255977
 30
0.0
 10
193.247277
 20
26.198073
 30
0.0
 10
193.247277
 20
26.138965
 30
0.0
 10
193.234842
 20
26.081159
 30
0.0
 10
193.210791
 20
26.027171
 30
0.0
 10
193.175879
 20
25.979400
 30
0.0
 10
193.131988
 20
25.939864
 30
0.0
 10
193.080431
 20
25.910260
 30
0.0
 10
193.024106
 20
25.891897
 30
0.0
 10
192.965141
 20
25.885891
 30
0.0
  0
LWPOLYLINE
  5
15b
100
AcDbEntity
  8
Layer_1
 62
7
100
AcDbPolyline
 90
54
 70
1
 10
185.381339
 20
25.889913
 30
0.0
 10
185.343004
 20
25.885891
 30
0.0
 10
185.304665
 20
25.889913
 30
0.0
 10
185.266330
 20
25.885891
 30
0.0
 10
185.227997
 20
25.889913
 30
0.0
 10
185.189659
 20
25.885891
 30
0.0
 10
185.151321
 20
25.889913
 30
0.0
 10
185.112983
 20
25.885891
 30
0.0
 10
185.074653
 20
25.889913
 30
0.0
 10
185.036314
 20
25.885891
 30
0.0
 10
184.997976
 20
25.889913
 30
0.0
 10
184.959641
 20
25.885891
 30
0.0
 10
184.900676
 20
25.891897
 30
0.0
 10
184.844354
 20
25.910260
 30
0.0
 10
184.792795
 20
25.939864
 30
0.0
 10
184.748903
 20
25.979400
 30
0.0
 10
184.713994
 20
26.027171
 30
0.0
 10
184.689943
 20
26.081159
 30
0.0
 10
184.677508
 20
26.138965
 30
0.0
 10
184.677508
 20
26.198073
 30
0.0
 10
184.689943
 20
26.255977
 30
0.0
 10
184.713994
 20
26.309968
 30
0.0
 10
184.748903
 20
26.357736
 30
0.0
 10
184.792795
 20
26.397275
 30
0.0
 10
184.844354
 20
26.426880
 30
0.0
 10
184.900676
 20
26.445162
 30
0.0
 10
184.959641
 20
26.451168
 30
0.0
 10
184.997976
 20
26.447147
 30
0.0
 10
185.036314
 20
26.451168
 30
0.0
 10
185.074653
 20
26.447147
 30
0.0
 10
185.112983
 20
26.451168
 30
0.0
 10
185.151321
 20
26.447147
 30
0.0
 10
185.189659
 20
26.451168
 30
0.0
 10
185.227997
 20
26.447147
 30
0.0
 10
185.266330
 20
26.451168
 30
0.0
 10
185.304665
 20
26.447147
 30
0.0
 10
185.343004
 20
26.451168
 30
0.0
 10
185.381339
 20
26.447147
 30
0.0
 10
185.419675
 20
26.451168
 30
0.0
 10
185.478637
 20
26.445162
 30
0.0
 10
185.534964
 20
26.426880
 30
0.0
 10
185.586523
 20
26.397275
 30
0.0
 10
185.630413
 20
26.357736
 30
0.0
 10
185.665322
 20
26.309968
 30
0.0
 10
185.689372
 20
26.255977
 30
0.0
 10
185.701808
 20
26.198073
 30
0.0
 10
185.701808
 20
26.138965
 30
0.0
 10
185.689372
 20
26.081159
 30
0.0
 10
185.665322
 20
26.027171
 30
0.0
 10
185.630413
 20
25.979400
 30
0.0
 10
185.586523
 20
25.939864
 30
0.0
 10
185.534964
 20
25.910260
 30
0.0
 10
185.478637
 20
25.891897
 30
0.0
 10
185.419675
 20
25.885891
 30
0.0
  0
LWPOLYLINE
  5
15c
100
AcDbEntity
  8
Layer_1
 62
7
100
AcDbPolyline
 90
54
 70
1
 10
177.835872
 20
25.889913
 30
0.0
 10
177.797534
 20
25.885891
 30
0.0
 10
177.759199
 20
25.889913
 30
0.0
 10
177.720866
 20
25.885891
 30
0.0
 10
177.682528
 20
25.889913
 30
0.0
 10
177.644190
 20
25.885891
 30
0.0
 10
177.605854
 20
25.889913
 30
0.0
 10
177.567519
 20
25.885891
 30
0.0
 10
177.529183
 20
25.889913
 30
0.0
 10
177.490848
 20
25.885891
 30
0.0
 10
177.452509
 20
25.889913
 30
0.0
 10
177.414174
 20
25.885891
 30
0.0
 10
177.355212
 20
25.891897
 30
0.0
 10
177.298884
 20
25.910260
 30
0.0
 10
177.247325
 20
25.939864
 30
0.0
 10
177.203436
 20
25.979400
 30
0.0
 10
177.168527
 20
26.027171
 30
0.0
 10
177.144476
 20
26.081159
 30
0.0
 10
177.132041
 20
26.138965
 30
0.0
 10
177.132041
 20
26.198073
 30
0.0
 10
177.144476
 20
26.255977
 30
0.0
 10
177.168527
 20
26.309968
 30
0.0
 10
177.203436
 20
26.357736
 30
0.0
 10
177.247325
 20
26.397275
 30
0.0
 10
177.298884
 20
26.426880
 30
0.0
 10
177.355212
 20
26.445162
 30
0.0
 10
177.414174
 20
26.451168
 30
0.0
 10
177.452509
 20
26.447147
 30
0.0
 10
177.490848
 20
26.451168
 30
0.0
 10
177.529183
 20
26.447147
 30
0.0
 10
177.567519
 20
26.451168
 30
0.0
 10
177.605854
 20
26.447147
 30
0.0
 10
177.644190
 20
26.451168
 30
0.0
 10
177.682528
 20
26.447147
 30
0.0
 10
177.720866
 20
26.451168
 30
0.0
 10
177.759199
 20
26.447147
 30
0.0
 10
177.797534
 20
26.451168
 30
0.0
 10
177.835872
 20
26.447147
 30
0.0
 10
177.874208
 20
26.451168
 30
0.0
 10
177.933173
 20
26.445162
 30
0.0
 10
177.989497
 20
26.426880
 30
0.0
 10
178.041054
 20
26.397275
 30
0.0
 10
178.084946
 20
26.357736
 30
0.0
 10
178.119855
 20
26.309968
 30
0.0
 10
178.143905
 20
26.255977
 30
0.0
 10
178.156341
 20
26.198073
 30
0.0
 10
178.156341
 20
26.138965
 30
0.0
 10
178.143905
 20
26.081159
 30
0.0
 10
178.119855
 20
26.027171
 30
0.0
 10
178.084946
 20
25.979400
 30
0.0
 10
178.041054
 20
25.939864
 30
0.0
 10
177.989497
 20
25.910260
 30
0.0
 10
177.933173
 20
25.891897
 30
0.0
 10
177.874208
 20
25.885891
 30
0.0
  0
LWPOLYLINE
  5
15d
100
AcDbEntity
  8
Layer_1
 62
7
100
AcDbPolyline
 90
54
 70
1
 10
181.125511
 20
26.451462
 30
0.0
 10
181.184476
 20
26.445456
 30
0.0
 10
181.240800
 20
26.427173
 30
0.0
 10
181.292357
 20
26.397569
 30
0.0
 10
181.336252
 20
26.358032
 30
0.0
 10
181.371150
 20
26.310262
 30
0.0
 10
181.395201
 20
26.256274
 30
0.0
 10
181.407636
 20
26.198367
 30
0.0
 10
181.407636
 20
26.139362
 30
0.0
 10
181.395201
 20
26.081556
 30
0.0
 10
181.371150
 20
26.027568
 30
0.0
 10
181.336252
 20
25.979797
 30
0.0
 10
181.292357
 20
25.940261
 30
0.0
 10
181.240800
 20
25.910656
 30
0.0
 10
181.184476
 20
25.892294
 30
0.0
 10
181.125511
 20
25.886288
 30
0.0
 10
181.087178
 20
25.890310
 30
0.0
 10
181.048840
 20
25.886288
 30
0.0
 10
181.010502
 20
25.890310
 30
0.0
 10
180.972169
 20
25.886288
 30
0.0
 10
180.933831
 20
25.890310
 30
0.0
 10
180.895493
 20
25.886288
 30
0.0
 10
180.857160
 20
25.890310
 30
0.0
 10
180.818824
 20
25.886288
 30
0.0
 10
180.780486
 20
25.890310
 30
0.0
 10
180.742148
 20
25.886288
 30
0.0
 10
180.703813
 20
25.890310
 30
0.0
 10
180.665477
 20
25.886288
 30
0.0
 10
180.606517
 20
25.892294
 30
0.0
 10
180.550188
 20
25.910656
 30
0.0
 10
180.498628
 20
25.940261
 30
0.0
 10
180.454739
 20
25.979797
 30
0.0
 10
180.419830
 20
26.027568
 30
0.0
 10
180.395779
 20
26.081556
 30
0.0
 10
180.383344
 20
26.139362
 30
0.0
 10
180.383344
 20
26.198367
 30
0.0
 10
180.395779
 20
26.256274
 30
0.0
 10
180.419830
 20
26.310262
 30
0.0
 10
180.454739
 20
26.358032
 30
0.0
 10
180.498628
 20
26.397569
 30
0.0
 10
180.550188
 20
26.427173
 30
0.0
 10
180.606517
 20
26.445456
 30
0.0
 10
180.665477
 20
26.451462
 30
0.0
 10
180.703813
 20
26.447440
 30
0.0
 10
180.742148
 20
26.451462
 30
0.0
 10
180.780486
 20
26.447440
 30
0.0
 10
180.818824
 20
26.451462
 30
0.0
 10
180.857160
 20
26.447440
 30
0.0
 10
180.895493
 20
26.451462
 30
0.0
 10
180.933831
 20
26.447440
 30
0.0
 10
180.972169
 20
26.451462
 30
0.0
 10
181.010502
 20
26.447440
 30
0.0
 10
181.048840
 20
26.451462
 30
0.0
 10
181.087178
 20
26.447440
 30
0.0
  0
LWPOLYLINE
  5
15e
100
AcDbEntity
  8
Layer_1
 62
7
100
AcDbPolyline
 90
30
 70
1
 10
116.776857
 20
21.460870
 30
0.0
 10
116.631818
 20
21.491578
 30
0.0
 10
116.496333
 20
21.551688
 30
0.0
 10
116.376397
 20
21.638495
 30
0.0
 10
116.277157
 20
21.748343
 30
0.0
 10
116.203002
 20
21.876314
 30
0.0
 10
116.157132
 20
22.016889
 30
0.0
 10
116.141627
 20
22.163857
 30
0.0
 10
116.157132
 20
22.310836
 30
0.0
 10
116.203002
 20
22.451412
 30
0.0
 10
116.277157
 20
22.579383
 30
0.0
 10
116.376397
 20
22.689230
 30
0.0
 10
116.496333
 20
22.776037
 30
0.0
 10
116.631818
 20
22.836047
 30
0.0
 10
116.776857
 20
22.866855
 30
0.0
 10
116.925143
 20
22.866855
 30
0.0
 10
117.070177
 20
22.836047
 30
0.0
 10
117.205641
 20
22.776037
 30
0.0
 10
117.325606
 20
22.689230
 30
0.0
 10
117.424846
 20
22.579383
 30
0.0
 10
117.499000
 20
22.451412
 30
0.0
 10
117.544871
 20
22.310836
 30
0.0
 10
117.560376
 20
22.163857
 30
0.0
 10
117.544871
 20
22.016889
 30
0.0
 10
117.499000
 20
21.876314
 30
0.0
 10
117.424846
 20
21.748343
 30
0.0
 10
117.325606
 20
21.638495
 30
0.0
 10
117.205641
 20
21.551688
 30
0.0
 10
117.070177
 20
21.491578
 30
0.0
 10
116.925143
 20
21.460870
 30
0.0
  0
LWPOLYLINE
  5
15f
100
AcDbEntity
  8
Layer_1
 62
7
100
AcDbPolyline
 90
30
 70
1
 10
125.610572
 20
21.460870
 30
0.0
 10
125.465544
 20
21.491578
 30
0.0
 10
125.330048
 20
21.551688
 30
0.0
 10
125.210112
 20
21.638495
 30
0.0
 10
125.110875
 20
21.748343
 30
0.0
 10
125.036720
 20
21.876314
 30
0.0
 10
124.990847
 20
22.016889
 30
0.0
 10
124.975369
 20
22.163857
 30
0.0
 10
124.990847
 20
22.310836
 30
0.0
 10
125.036720
 20
22.451412
 30
0.0
 10
125.110875
 20
22.579383
 30
0.0
 10
125.210112
 20
22.689230
 30
0.0
 10
125.330048
 20
22.776037
 30
0.0
 10
125.465544
 20
22.836047
 30
0.0
 10
125.610572
 20
22.866855
 30
0.0
 10
125.758861
 20
22.866855
 30
0.0
 10
125.903892
 20
22.836047
 30
0.0
 10
126.039356
 20
22.776037
 30
0.0
 10
126.159324
 20
22.689230
 30
0.0
 10
126.258561
 20
22.579383
 30
0.0
 10
126.332716
 20
22.451412
 30
0.0
 10
126.378586
 20
22.310836
 30
0.0
 10
126.394064
 20
22.163857
 30
0.0
 10
126.378586
 20
22.016889
 30
0.0
 10
126.332716
 20
21.876314
 30
0.0
 10
126.258561
 20
21.748343
 30
0.0
 10
126.159324
 20
21.638495
 30
0.0
 10
126.039356
 20
21.551688
 30
0.0
 10
125.903892
 20
21.491578
 30
0.0
 10
125.758861
 20
21.460870
 30
0.0
  0
LWPOLYLINE
  5
160
100
AcDbEntity
  8
Layer_1
 62
7
100
AcDbPolyline
 90
30
 70
1
 10
165.331487
 20
20.771509
 30
0.0
 10
165.275162
 20
20.789871
 30
0.0
 10
165.223603
 20
20.819475
 30
0.0
 10
165.179711
 20
20.859014
 30
0.0
 10
165.144802
 20
20.906785
 30
0.0
 10
165.120725
 20
20.960773
 30
0.0
 10
165.108289
 20
21.018577
 30
0.0
 10
165.108289
 20
21.077685
 30
0.0
 10
165.120725
 20
21.135591
 30
0.0
 10
165.144802
 20
21.189580
 30
0.0
 10
165.179711
 20
21.237350
 30
0.0
 10
165.223603
 20
21.276887
 30
0.0
 10
165.275162
 20
21.306491
 30
0.0
 10
165.331487
 20
21.324774
 30
0.0
 10
165.390449
 20
21.330806
 30
0.0
 10
165.449414
 20
21.324774
 30
0.0
 10
165.505739
 20
21.306491
 30
0.0
 10
165.557298
 20
21.276887
 30
0.0
 10
165.601190
 20
21.237350
 30
0.0
 10
165.636099
 20
21.189580
 30
0.0
 10
165.660176
 20
21.135591
 30
0.0
 10
165.672611
 20
21.077685
 30
0.0
 10
165.672611
 20
21.018577
 30
0.0
 10
165.660176
 20
20.960773
 30
0.0
 10
165.636099
 20
20.906785
 30
0.0
 10
165.601190
 20
20.859014
 30
0.0
 10
165.557298
 20
20.819475
 30
0.0
 10
165.505739
 20
20.789871
 30
0.0
 10
165.449414
 20
20.771509
 30
0.0
 10
165.390449
 20
20.765476
 30
0.0
  0
LWPOLYLINE
  5
161
100
AcDbEntity
  8
Layer_1
 62
7
100
AcDbPolyline
 90
30
 70
1
 10
142.096961
 20
20.771509
 30
0.0
 10
142.040594
 20
20.789871
 30
0.0
 10
141.989027
 20
20.819475
 30
0.0
 10
141.945154
 20
20.859014
 30
0.0
 10
141.910276
 20
20.906785
 30
0.0
 10
141.886199
 20
20.960773
 30
0.0
 10
141.873817
 20
21.018577
 30
0.0
 10
141.873817
 20
21.077685
 30
0.0
 10
141.886199
 20
21.135591
 30
0.0
 10
141.910276
 20
21.189580
 30
0.0
 10
141.945154
 20
21.237350
 30
0.0
 10
141.989027
 20
21.276887
 30
0.0
 10
142.040594
 20
21.306491
 30
0.0
 10
142.096961
 20
21.324774
 30
0.0
 10
142.155923
 20
21.330806
 30
0.0
 10
142.214888
 20
21.324774
 30
0.0
 10
142.271253
 20
21.306491
 30
0.0
 10
142.322820
 20
21.276887
 30
0.0
 10
142.366693
 20
21.237350
 30
0.0
 10
142.401570
 20
21.189580
 30
0.0
 10
142.425648
 20
21.135591
 30
0.0
 10
142.438030
 20
21.077685
 30
0.0
 10
142.438030
 20
21.018577
 30
0.0
 10
142.425648
 20
20.960773
 30
0.0
 10
142.401570
 20
20.906785
 30
0.0
 10
142.366693
 20
20.859014
 30
0.0
 10
142.322820
 20
20.819475
 30
0.0
 10
142.271253
 20
20.789871
 30
0.0
 10
142.214888
 20
20.771509
 30
0.0
 10
142.155923
 20
20.765476
 30
0.0
  0
LWPOLYLINE
  5
162
100
AcDbEntity
  8
Layer_1
 62
7
100
AcDbPolyline
 90
30
 70
1
 10
134.352099
 20
20.771509
 30
0.0
 10
134.295732
 20
20.789871
 30
0.0
 10
134.244366
 20
20.819475
 30
0.0
 10
134.200291
 20
20.859014
 30
0.0
 10
134.165414
 20
20.906785
 30
0.0
 10
134.141337
 20
20.960773
 30
0.0
 10
134.129034
 20
21.018577
 30
0.0
 10
134.129034
 20
21.077685
 30
0.0
 10
134.141337
 20
21.135591
 30
0.0
 10
134.165414
 20
21.189580
 30
0.0
 10
134.200291
 20
21.237350
 30
0.0
 10
134.244366
 20
21.276887
 30
0.0
 10
134.295732
 20
21.306491
 30
0.0
 10
134.352099
 20
21.324774
 30
0.0
 10
134.411061
 20
21.330806
 30
0.0
 10
134.470024
 20
21.324774
 30
0.0
 10
134.526390
 20
21.306491
 30
0.0
 10
134.577757
 20
21.276887
 30
0.0
 10
134.621831
 20
21.237350
 30
0.0
 10
134.656708
 20
21.189580
 30
0.0
 10
134.680891
 20
21.135591
 30
0.0
 10
134.693194
 20
21.077685
 30
0.0
 10
134.693194
 20
21.018577
 30
0.0
 10
134.680891
 20
20.960773
 30
0.0
 10
134.656708
 20
20.906785
 30
0.0
 10
134.621831
 20
20.859014
 30
0.0
 10
134.577757
 20
20.819475
 30
0.0
 10
134.526390
 20
20.789871
 30
0.0
 10
134.470024
 20
20.771509
 30
0.0
 10
134.411061
 20
20.765476
 30
0.0
  0
LWPOLYLINE
  5
163
100
AcDbEntity
  8
Layer_1
 62
7
100
AcDbPolyline
 90
30
 70
1
 10
149.841805
 20
20.771509
 30
0.0
 10
149.785438
 20
20.789871
 30
0.0
 10
149.733870
 20
20.819475
 30
0.0
 10
149.689997
 20
20.859014
 30
0.0
 10
149.655120
 20
20.906785
 30
0.0
 10
149.631043
 20
20.960773
 30
0.0
 10
149.618660
 20
21.018577
 30
0.0
 10
149.618660
 20
21.077685
 30
0.0
 10
149.631043
 20
21.135591
 30
0.0
 10
149.655120
 20
21.189580
 30
0.0
 10
149.689997
 20
21.237350
 30
0.0
 10
149.733870
 20
21.276887
 30
0.0
 10
149.785438
 20
21.306491
 30
0.0
 10
149.841805
 20
21.324774
 30
0.0
 10
149.900767
 20
21.330806
 30
0.0
 10
149.959729
 20
21.324774
 30
0.0
 10
150.016096
 20
21.306491
 30
0.0
 10
150.067664
 20
21.276887
 30
0.0
 10
150.111537
 20
21.237350
 30
0.0
 10
150.146414
 20
21.189580
 30
0.0
 10
150.170491
 20
21.135591
 30
0.0
 10
150.182874
 20
21.077685
 30
0.0
 10
150.182874
 20
21.018577
 30
0.0
 10
150.170491
 20
20.960773
 30
0.0
 10
150.146414
 20
20.906785
 30
0.0
 10
150.111537
 20
20.859014
 30
0.0
 10
150.067664
 20
20.819475
 30
0.0
 10
150.016096
 20
20.789871
 30
0.0
 10
149.959729
 20
20.771509
 30
0.0
 10
149.900767
 20
20.765476
 30
0.0
  0
LWPOLYLINE
  5
164
100
AcDbEntity
  8
Layer_1
 62
7
100
AcDbPolyline
 90
30
 70
1
 10
157.586646
 20
20.771509
 30
0.0
 10
157.530281
 20
20.789871
 30
0.0
 10
157.478714
 20
20.819475
 30
0.0
 10
157.434841
 20
20.859014
 30
0.0
 10
157.399961
 20
20.906785
 30
0.0
 10
157.375884
 20
20.960773
 30
0.0
 10
157.363501
 20
21.018577
 30
0.0
 10
157.363501
 20
21.077685
 30
0.0
 10
157.375884
 20
21.135591
 30
0.0
 10
157.399961
 20
21.189580
 30
0.0
 10
157.434841
 20
21.237350
 30
0.0
 10
157.478714
 20
21.276887
 30
0.0
 10
157.530281
 20
21.306491
 30
0.0
 10
157.586646
 20
21.324774
 30
0.0
 10
157.645611
 20
21.330806
 30
0.0
 10
157.704573
 20
21.324774
 30
0.0
 10
157.760937
 20
21.306491
 30
0.0
 10
157.812505
 20
21.276887
 30
0.0
 10
157.856378
 20
21.237350
 30
0.0
 10
157.891258
 20
21.189580
 30
0.0
 10
157.915335
 20
21.135591
 30
0.0
 10
157.927717
 20
21.077685
 30
0.0
 10
157.927717
 20
21.018577
 30
0.0
 10
157.915335
 20
20.960773
 30
0.0
 10
157.891258
 20
20.906785
 30
0.0
 10
157.856378
 20
20.859014
 30
0.0
 10
157.812505
 20
20.819475
 30
0.0
 10
157.760937
 20
20.789871
 30
0.0
 10
157.704573
 20
20.771509
 30
0.0
 10
157.645611
 20
20.765476
 30
0.0
  0
LWPOLYLINE
  5
165
100
AcDbEntity
  8
Layer_1
 62
7
100
AcDbPolyline
 90
30
 70
1
 10
150.170481
 20
30.284748
 30
0.0
 10
150.146404
 20
30.230757
 30
0.0
 10
150.111524
 20
30.182989
 30
0.0
 10
150.067650
 20
30.143450
 30
0.0
 10
150.016083
 20
30.113846
 30
0.0
 10
149.959719
 20
30.095484
 30
0.0
 10
149.900754
 20
30.089478
 30
0.0
 10
149.841791
 20
30.095484
 30
0.0
 10
149.785427
 20
30.113846
 30
0.0
 10
149.733857
 20
30.143450
 30
0.0
 10
149.689987
 20
30.182989
 30
0.0
 10
149.655107
 20
30.230757
 30
0.0
 10
149.631030
 20
30.284748
 30
0.0
 10
149.618647
 20
30.342552
 30
0.0
 10
149.618647
 20
30.401660
 30
0.0
 10
149.631030
 20
30.459564
 30
0.0
 10
149.655107
 20
30.513554
 30
0.0
 10
149.689987
 20
30.561320
 30
0.0
 10
149.733857
 20
30.600862
 30
0.0
 10
149.785427
 20
30.630466
 30
0.0
 10
149.841791
 20
30.648828
 30
0.0
 10
149.900754
 20
30.654834
 30
0.0
 10
149.959719
 20
30.648828
 30
0.0
 10
150.016083
 20
30.630466
 30
0.0
 10
150.067650
 20
30.600862
 30
0.0
 10
150.111524
 20
30.561320
 30
0.0
 10
150.146404
 20
30.513554
 30
0.0
 10
150.170481
 20
30.459564
 30
0.0
 10
150.182863
 20
30.401660
 30
0.0
 10
150.182863
 20
30.342552
 30
0.0
  0
LWPOLYLINE
  5
166
100
AcDbEntity
  8
Layer_1
 62
7
100
AcDbPolyline
 90
4
 70
1
 10
111.469935
 20
52.368480
 30
0.0
 10
111.469935
 20
35.814537
 30
0.0
 10
209.499671
 20
35.814537
 30
0.0
 10
209.499671
 20
52.368480
 30
0.0
  0
LWPOLYLINE
  5
167
100
AcDbEntity
  8
Layer_1
 62
7
100
AcDbPolyline
 90
30
 70
1
 10
151.823846
 20
48.649229
 30
0.0
 10
151.726805
 20
48.680748
 30
0.0
 10
151.638265
 20
48.731739
 30
0.0
 10
151.562112
 20
48.799993
 30
0.0
 10
151.502049
 20
48.882504
 30
0.0
 10
151.460576
 20
48.975653
 30
0.0
 10
151.439197
 20
49.075427
 30
0.0
 10
151.439197
 20
49.177379
 30
0.0
 10
151.460576
 20
49.277154
 30
0.0
 10
151.502049
 20
49.370303
 30
0.0
 10
151.562112
 20
49.452813
 30
0.0
 10
151.638265
 20
49.521068
 30
0.0
 10
151.726805
 20
49.571958
 30
0.0
 10
151.823846
 20
49.603477
 30
0.0
 10
151.925642
 20
49.614114
 30
0.0
 10
152.027448
 20
49.603477
 30
0.0
 10
152.124487
 20
49.571958
 30
0.0
 10
152.213032
 20
49.521068
 30
0.0
 10
152.289182
 20
49.452813
 30
0.0
 10
152.349245
 20
49.370303
 30
0.0
 10
152.390718
 20
49.277154
 30
0.0
 10
152.412097
 20
49.177379
 30
0.0
 10
152.412097
 20
49.075427
 30
0.0
 10
152.390718
 20
48.975653
 30
0.0
 10
152.349245
 20
48.882504
 30
0.0
 10
152.289182
 20
48.799993
 30
0.0
 10
152.213032
 20
48.731739
 30
0.0
 10
152.124487
 20
48.680748
 30
0.0
 10
152.027448
 20
48.649229
 30
0.0
 10
151.925642
 20
48.638592
 30
0.0
  0
LWPOLYLINE
  5
168
100
AcDbEntity
  8
Layer_1
 62
7
100
AcDbPolyline
 90
30
 70
1
 10
158.434254
 20
48.649229
 30
0.0
 10
158.337216
 20
48.680748
 30
0.0
 10
158.248673
 20
48.731739
 30
0.0
 10
158.172515
 20
48.799993
 30
0.0
 10
158.112455
 20
48.882504
 30
0.0
 10
158.070984
 20
48.975653
 30
0.0
 10
158.049606
 20
49.075427
 30
0.0
 10
158.049606
 20
49.177379
 30
0.0
 10
158.070984
 20
49.277154
 30
0.0
 10
158.112455
 20
49.370303
 30
0.0
 10
158.172515
 20
49.452813
 30
0.0
 10
158.248673
 20
49.521068
 30
0.0
 10
158.337216
 20
49.571958
 30
0.0
 10
158.434254
 20
49.603477
 30
0.0
 10
158.536058
 20
49.614114
 30
0.0
 10
158.637854
 20
49.603477
 30
0.0
 10
158.734892
 20
49.571958
 30
0.0
 10
158.823438
 20
49.521068
 30
0.0
 10
158.899587
 20
49.452813
 30
0.0
 10
158.959651
 20
49.370303
 30
0.0
 10
159.001124
 20
49.277154
 30
0.0
 10
159.022502
 20
49.177379
 30
0.0
 10
159.022502
 20
49.075427
 30
0.0
 10
159.001124
 20
48.975653
 30
0.0
 10
158.959651
 20
48.882504
 30
0.0
 10
158.899587
 20
48.799993
 30
0.0
 10
158.823438
 20
48.731739
 30
0.0
 10
158.734892
 20
48.680748
 30
0.0
 10
158.637854
 20
48.649229
 30
0.0
 10
158.536058
 20
48.638592
 30
0.0
  0
LWPOLYLINE
  5
169
100
AcDbEntity
  8
Layer_1
 62
7
100
AcDbPolyline
 90
30
 70
1
 10
145.213440
 20
48.649229
 30
0.0
 10
145.116402
 20
48.680748
 30
0.0
 10
145.027854
 20
48.731739
 30
0.0
 10
144.951704
 20
48.799993
 30
0.0
 10
144.891644
 20
48.882504
 30
0.0
 10
144.850168
 20
48.975653
 30
0.0
 10
144.828789
 20
49.075427
 30
0.0
 10
144.828789
 20
49.177379
 30
0.0
 10
144.850168
 20
49.277154
 30
0.0
 10
144.891644
 20
49.370303
 30
0.0
 10
144.951704
 20
49.452813
 30
0.0
 10
145.027854
 20
49.521068
 30
0.0
 10
145.116402
 20
49.571958
 30
0.0
 10
145.213440
 20
49.603477
 30
0.0
 10
145.315236
 20
49.614114
 30
0.0
 10
145.417040
 20
49.603477
 30
0.0
 10
145.514081
 20
49.571958
 30
0.0
 10
145.602624
 20
49.521068
 30
0.0
 10
145.678776
 20
49.452813
 30
0.0
 10
145.738837
 20
49.370303
 30
0.0
 10
145.780310
 20
49.277154
 30
0.0
 10
145.801689
 20
49.177379
 30
0.0
 10
145.801689
 20
49.075427
 30
0.0
 10
145.780310
 20
48.975653
 30
0.0
 10
145.738837
 20
48.882504
 30
0.0
 10
145.678776
 20
48.799993
 30
0.0
 10
145.602624
 20
48.731739
 30
0.0
 10
145.514081
 20
48.680748
 30
0.0
 10
145.417040
 20
48.649229
 30
0.0
 10
145.315236
 20
48.638592
 30
0.0
  0
LWPOLYLINE
  5
16a
100
AcDbEntity
  8
Layer_1
 62
7
100
AcDbPolyline
 90
30
 70
1
 10
131.992727
 20
48.649229
 30
0.0
 10
131.895490
 20
48.680748
 30
0.0
 10
131.806945
 20
48.731739
 30
0.0
 10
131.730991
 20
48.799993
 30
0.0
 10
131.670830
 20
48.882504
 30
0.0
 10
131.629256
 20
48.975653
 30
0.0
 10
131.607983
 20
49.075427
 30
0.0
 10
131.607983
 20
49.177379
 30
0.0
 10
131.629256
 20
49.277154
 30
0.0
 10
131.670830
 20
49.370303
 30
0.0
 10
131.730991
 20
49.452813
 30
0.0
 10
131.806945
 20
49.521068
 30
0.0
 10
131.895490
 20
49.571958
 30
0.0
 10
131.992727
 20
49.603477
 30
0.0
 10
132.094412
 20
49.614114
 30
0.0
 10
132.196110
 20
49.603477
 30
0.0
 10
132.293347
 20
49.571958
 30
0.0
 10
132.381892
 20
49.521068
 30
0.0
 10
132.457841
 20
49.452813
 30
0.0
 10
132.517904
 20
49.370303
 30
0.0
 10
132.559481
 20
49.277154
 30
0.0
 10
132.580780
 20
49.177379
 30
0.0
 10
132.580780
 20
49.075427
 30
0.0
 10
132.559481
 20
48.975653
 30
0.0
 10
132.517904
 20
48.882504
 30
0.0
 10
132.457841
 20
48.799993
 30
0.0
 10
132.381892
 20
48.731739
 30
0.0
 10
132.293347
 20
48.680748
 30
0.0
 10
132.196110
 20
48.649229
 30
0.0
 10
132.094412
 20
48.638592
 30
0.0
  0
LWPOLYLINE
  5
16b
100
AcDbEntity
  8
Layer_1
 62
7
100
AcDbPolyline
 90
30
 70
1
 10
138.603022
 20
48.649229
 30
0.0
 10
138.505986
 20
48.680748
 30
0.0
 10
138.417443
 20
48.731739
 30
0.0
 10
138.341288
 20
48.799993
 30
0.0
 10
138.281227
 20
48.882504
 30
0.0
 10
138.239754
 20
48.975653
 30
0.0
 10
138.218376
 20
49.075427
 30
0.0
 10
138.218376
 20
49.177379
 30
0.0
 10
138.239754
 20
49.277154
 30
0.0
 10
138.281227
 20
49.370303
 30
0.0
 10
138.341288
 20
49.452813
 30
0.0
 10
138.417443
 20
49.521068
 30
0.0
 10
138.505986
 20
49.571958
 30
0.0
 10
138.603022
 20
49.603477
 30
0.0
 10
138.704831
 20
49.614114
 30
0.0
 10
138.806626
 20
49.603477
 30
0.0
 10
138.903665
 20
49.571958
 30
0.0
 10
138.992208
 20
49.521068
 30
0.0
 10
139.068360
 20
49.452813
 30
0.0
 10
139.128421
 20
49.370303
 30
0.0
 10
139.169894
 20
49.277154
 30
0.0
 10
139.191272
 20
49.177379
 30
0.0
 10
139.191272
 20
49.075427
 30
0.0
 10
139.169894
 20
48.975653
 30
0.0
 10
139.128421
 20
48.882504
 30
0.0
 10
139.068360
 20
48.799993
 30
0.0
 10
138.992208
 20
48.731739
 30
0.0
 10
138.903665
 20
48.680748
 30
0.0
 10
138.806626
 20
48.649229
 30
0.0
 10
138.704831
 20
48.638592
 30
0.0
  0
LWPOLYLINE
  5
16c
100
AcDbEntity
  8
Layer_1
 62
7
100
AcDbPolyline
 90
30
 70
1
 10
118.771903
 20
48.649229
 30
0.0
 10
118.674666
 20
48.680748
 30
0.0
 10
118.586120
 20
48.731739
 30
0.0
 10
118.510169
 20
48.799993
 30
0.0
 10
118.450008
 20
48.882504
 30
0.0
 10
118.408431
 20
48.975653
 30
0.0
 10
118.387159
 20
49.075427
 30
0.0
 10
118.387159
 20
49.177379
 30
0.0
 10
118.408431
 20
49.277154
 30
0.0
 10
118.450008
 20
49.370303
 30
0.0
 10
118.510169
 20
49.452813
 30
0.0
 10
118.586120
 20
49.521068
 30
0.0
 10
118.674666
 20
49.571958
 30
0.0
 10
118.771903
 20
49.603477
 30
0.0
 10
118.873601
 20
49.614114
 30
0.0
 10
118.975296
 20
49.603477
 30
0.0
 10
119.072536
 20
49.571958
 30
0.0
 10
119.161078
 20
49.521068
 30
0.0
 10
119.237030
 20
49.452813
 30
0.0
 10
119.297093
 20
49.370303
 30
0.0
 10
119.338667
 20
49.277154
 30
0.0
 10
119.359939
 20
49.177379
 30
0.0
 10
119.359939
 20
49.075427
 30
0.0
 10
119.338667
 20
48.975653
 30
0.0
 10
119.297093
 20
48.882504
 30
0.0
 10
119.237030
 20
48.799993
 30
0.0
 10
119.161078
 20
48.731739
 30
0.0
 10
119.072536
 20
48.680748
 30
0.0
 10
118.975296
 20
48.649229
 30
0.0
 10
118.873601
 20
48.638592
 30
0.0
  0
LWPOLYLINE
  5
16d
100
AcDbEntity
  8
Layer_1
 62
7
100
AcDbPolyline
 90
30
 70
1
 10
125.382311
 20
48.649229
 30
0.0
 10
125.285074
 20
48.680748
 30
0.0
 10
125.196529
 20
48.731739
 30
0.0
 10
125.120577
 20
48.799993
 30
0.0
 10
125.060414
 20
48.882504
 30
0.0
 10
125.018840
 20
48.975653
 30
0.0
 10
124.997541
 20
49.075427
 30
0.0
 10
124.997541
 20
49.177379
 30
0.0
 10
125.018840
 20
49.277154
 30
0.0
 10
125.060414
 20
49.370303
 30
0.0
 10
125.120577
 20
49.452813
 30
0.0
 10
125.196529
 20
49.521068
 30
0.0
 10
125.285074
 20
49.571958
 30
0.0
 10
125.382311
 20
49.603477
 30
0.0
 10
125.484009
 20
49.614114
 30
0.0
 10
125.585704
 20
49.603477
 30
0.0
 10
125.682941
 20
49.571958
 30
0.0
 10
125.771487
 20
49.521068
 30
0.0
 10
125.847435
 20
49.452813
 30
0.0
 10
125.907501
 20
49.370303
 30
0.0
 10
125.949075
 20
49.277154
 30
0.0
 10
125.970347
 20
49.177379
 30
0.0
 10
125.970347
 20
49.075427
 30
0.0
 10
125.949075
 20
48.975653
 30
0.0
 10
125.907501
 20
48.882504
 30
0.0
 10
125.847435
 20
48.799993
 30
0.0
 10
125.771487
 20
48.731739
 30
0.0
 10
125.682941
 20
48.680748
 30
0.0
 10
125.585704
 20
48.649229
 30
0.0
 10
125.484009
 20
48.638592
 30
0.0
  0
LWPOLYLINE
  5
16e
100
AcDbEntity
  8
Layer_1
 62
7
100
AcDbPolyline
 90
4
 70
1
 10
120.312021
 20
42.404480
 30
0.0
 10
120.312021
 20
46.885648
 30
0.0
 10
156.537070
 20
46.885648
 30
0.0
 10
156.537070
 20
42.404480
 30
0.0
  0
LWPOLYLINE
  5
16f
100
AcDbEntity
  8
Layer_1
 62
7
100
AcDbPolyline
 90
4
 70
1
 10
168.954058
 20
41.613685
 30
0.0
 10
168.954058
 20
46.094854
 30
0.0
 10
173.449144
 20
46.094854
 30
0.0
 10
173.449144
 20
41.613685
 30
0.0
  0
LWPOLYLINE
  5
170
100
AcDbEntity
  8
Layer_1
 62
7
100
AcDbPolyline
 90
4
 70
1
 10
181.963348
 20
41.613685
 30
0.0
 10
181.963348
 20
46.094854
 30
0.0
 10
186.458429
 20
46.094854
 30
0.0
 10
186.458429
 20
41.613685
 30
0.0
  0
LWPOLYLINE
  5
171
100
AcDbEntity
  8
Layer_1
 62
7
100
AcDbPolyline
 90
4
 70
1
 10
194.972633
 20
41.613685
 30
0.0
 10
194.972633
 20
46.094854
 30
0.0
 10
199.467713
 20
46.094854
 30
0.0
 10
199.467713
 20
41.613685
 30
0.0
  0
LWPOLYLINE
  5
172
100
AcDbEntity
  8
Layer_1
 62
7
100
AcDbPolyline
 90
54
 70
1
 10
193.848860
 20
43.373553
 30
0.0
 10
193.782804
 20
43.366515
 30
0.0
 10
193.716746
 20
43.373553
 30
0.0
 10
193.650687
 20
43.366515
 30
0.0
 10
193.584629
 20
43.373553
 30
0.0
 10
193.518472
 20
43.366515
 30
0.0
 10
193.452414
 20
43.373553
 30
0.0
 10
193.386355
 20
43.366515
 30
0.0
 10
193.320297
 20
43.373553
 30
0.0
 10
193.254138
 20
43.366515
 30
0.0
 10
193.188079
 20
43.373553
 30
0.0
 10
193.122021
 20
43.366515
 30
0.0
 10
193.020228
 20
43.377152
 30
0.0
 10
192.923189
 20
43.408669
 30
0.0
 10
192.834644
 20
43.459659
 30
0.0
 10
192.758491
 20
43.527916
 30
0.0
 10
192.698428
 20
43.610424
 30
0.0
 10
192.656955
 20
43.703573
 30
0.0
 10
192.635576
 20
43.803348
 30
0.0
 10
192.635576
 20
43.905300
 30
0.0
 10
192.656955
 20
44.004973
 30
0.0
 10
192.698428
 20
44.098123
 30
0.0
 10
192.758491
 20
44.180633
 30
0.0
 10
192.834644
 20
44.248888
 30
0.0
 10
192.923189
 20
44.299780
 30
0.0
 10
193.020228
 20
44.331398
 30
0.0
 10
193.122021
 20
44.342034
 30
0.0
 10
193.188079
 20
44.334996
 30
0.0
 10
193.254138
 20
44.342034
 30
0.0
 10
193.320297
 20
44.334996
 30
0.0
 10
193.386355
 20
44.342034
 30
0.0
 10
193.452414
 20
44.334996
 30
0.0
 10
193.518472
 20
44.342034
 30
0.0
 10
193.584629
 20
44.334996
 30
0.0
 10
193.650687
 20
44.342034
 30
0.0
 10
193.716746
 20
44.334996
 30
0.0
 10
193.782804
 20
44.342034
 30
0.0
 10
193.848860
 20
44.334996
 30
0.0
 10
193.915022
 20
44.342034
 30
0.0
 10
194.016826
 20
44.331398
 30
0.0
 10
194.113867
 20
44.299780
 30
0.0
 10
194.202410
 20
44.248888
 30
0.0
 10
194.278560
 20
44.180633
 30
0.0
 10
194.338623
 20
44.098123
 30
0.0
 10
194.380099
 20
44.004973
 30
0.0
 10
194.401477
 20
43.905300
 30
0.0
 10
194.401477
 20
43.803348
 30
0.0
 10
194.380099
 20
43.703573
 30
0.0
 10
194.338623
 20
43.610424
 30
0.0
 10
194.278560
 20
43.527916
 30
0.0
 10
194.202410
 20
43.459659
 30
0.0
 10
194.113867
 20
43.408669
 30
0.0
 10
194.016826
 20
43.377152
 30
0.0
 10
193.915022
 20
43.366515
 30
0.0
  0
LWPOLYLINE
  5
173
100
AcDbEntity
  8
Layer_1
 62
7
100
AcDbPolyline
 90
54
 70
1
 10
175.233954
 20
43.373553
 30
0.0
 10
175.167896
 20
43.366515
 30
0.0
 10
175.101840
 20
43.373553
 30
0.0
 10
175.035681
 20
43.366515
 30
0.0
 10
174.969622
 20
43.373553
 30
0.0
 10
174.903567
 20
43.366515
 30
0.0
 10
174.837405
 20
43.373553
 30
0.0
 10
174.771346
 20
43.366515
 30
0.0
 10
174.705290
 20
43.373553
 30
0.0
 10
174.639229
 20
43.366515
 30
0.0
 10
174.573173
 20
43.373553
 30
0.0
 10
174.507118
 20
43.366515
 30
0.0
 10
174.405309
 20
43.377152
 30
0.0
 10
174.308273
 20
43.408669
 30
0.0
 10
174.219727
 20
43.459659
 30
0.0
 10
174.143575
 20
43.527916
 30
0.0
 10
174.083512
 20
43.610424
 30
0.0
 10
174.042038
 20
43.703573
 30
0.0
 10
174.020660
 20
43.803348
 30
0.0
 10
174.020660
 20
43.905300
 30
0.0
 10
174.042038
 20
44.004973
 30
0.0
 10
174.083512
 20
44.098123
 30
0.0
 10
174.143575
 20
44.180633
 30
0.0
 10
174.219727
 20
44.248888
 30
0.0
 10
174.308273
 20
44.299780
 30
0.0
 10
174.405309
 20
44.331398
 30
0.0
 10
174.507118
 20
44.342034
 30
0.0
 10
174.573173
 20
44.334996
 30
0.0
 10
174.639229
 20
44.342034
 30
0.0
 10
174.705290
 20
44.334996
 30
0.0
 10
174.771346
 20
44.342034
 30
0.0
 10
174.837405
 20
44.334996
 30
0.0
 10
174.903567
 20
44.342034
 30
0.0
 10
174.969622
 20
44.334996
 30
0.0
 10
175.035681
 20
44.342034
 30
0.0
 10
175.101840
 20
44.334996
 30
0.0
 10
175.167896
 20
44.342034
 30
0.0
 10
175.233954
 20
44.334996
 30
0.0
 10
175.300013
 20
44.342034
 30
0.0
 10
175.401809
 20
44.331398
 30
0.0
 10
175.498850
 20
44.299780
 30
0.0
 10
175.587393
 20
44.248888
 30
0.0
 10
175.663543
 20
44.180633
 30
0.0
 10
175.723608
 20
44.098123
 30
0.0
 10
175.765079
 20
44.004973
 30
0.0
 10
175.786457
 20
43.905300
 30
0.0
 10
175.786457
 20
43.803348
 30
0.0
 10
175.765079
 20
43.703573
 30
0.0
 10
175.723608
 20
43.610424
 30
0.0
 10
175.663543
 20
43.527916
 30
0.0
 10
175.587393
 20
43.459659
 30
0.0
 10
175.498850
 20
43.408669
 30
0.0
 10
175.401809
 20
43.377152
 30
0.0
 10
175.300013
 20
43.366515
 30
0.0
  0
LWPOLYLINE
  5
174
100
AcDbEntity
  8
Layer_1
 62
7
100
AcDbPolyline
 90
54
 70
1
 10
188.243242
 20
43.373553
 30
0.0
 10
188.177083
 20
43.366515
 30
0.0
 10
188.111027
 20
43.373553
 30
0.0
 10
188.044968
 20
43.366515
 30
0.0
 10
187.978910
 20
43.373553
 30
0.0
 10
187.912751
 20
43.366515
 30
0.0
 10
187.846692
 20
43.373553
 30
0.0
 10
187.780634
 20
43.366515
 30
0.0
 10
187.714575
 20
43.373553
 30
0.0
 10
187.648416
 20
43.366515
 30
0.0
 10
187.582360
 20
43.373553
 30
0.0
 10
187.516302
 20
43.366515
 30
0.0
 10
187.414493
 20
43.377152
 30
0.0
 10
187.317457
 20
43.408669
 30
0.0
 10
187.228911
 20
43.459659
 30
0.0
 10
187.152759
 20
43.527916
 30
0.0
 10
187.092698
 20
43.610424
 30
0.0
 10
187.051225
 20
43.703573
 30
0.0
 10
187.029847
 20
43.803348
 30
0.0
 10
187.029847
 20
43.905300
 30
0.0
 10
187.051225
 20
44.004973
 30
0.0
 10
187.092698
 20
44.098123
 30
0.0
 10
187.152759
 20
44.180633
 30
0.0
 10
187.228911
 20
44.248888
 30
0.0
 10
187.317457
 20
44.299780
 30
0.0
 10
187.414493
 20
44.331398
 30
0.0
 10
187.516302
 20
44.342034
 30
0.0
 10
187.582360
 20
44.334996
 30
0.0
 10
187.648416
 20
44.342034
 30
0.0
 10
187.714575
 20
44.334996
 30
0.0
 10
187.780634
 20
44.342034
 30
0.0
 10
187.846692
 20
44.334996
 30
0.0
 10
187.912751
 20
44.342034
 30
0.0
 10
187.978910
 20
44.334996
 30
0.0
 10
188.044968
 20
44.342034
 30
0.0
 10
188.111027
 20
44.334996
 30
0.0
 10
188.177083
 20
44.342034
 30
0.0
 10
188.243242
 20
44.334996
 30
0.0
 10
188.309300
 20
44.342034
 30
0.0
 10
188.411096
 20
44.331398
 30
0.0
 10
188.508135
 20
44.299780
 30
0.0
 10
188.596677
 20
44.248888
 30
0.0
 10
188.672832
 20
44.180633
 30
0.0
 10
188.732893
 20
44.098123
 30
0.0
 10
188.774366
 20
44.004973
 30
0.0
 10
188.795745
 20
43.905300
 30
0.0
 10
188.795745
 20
43.803348
 30
0.0
 10
188.774366
 20
43.703573
 30
0.0
 10
188.732893
 20
43.610424
 30
0.0
 10
188.672832
 20
43.527916
 30
0.0
 10
188.596677
 20
43.459659
 30
0.0
 10
188.508135
 20
43.408669
 30
0.0
 10
188.411096
 20
43.377152
 30
0.0
 10
188.309300
 20
43.366515
 30
0.0
  0
LWPOLYLINE
  5
175
100
AcDbEntity
  8
Layer_1
 62
7
100
AcDbPolyline
 90
54
 70
1
 10
180.905684
 20
44.341934
 30
0.0
 10
181.007480
 20
44.331297
 30
0.0
 10
181.104516
 20
44.299680
 30
0.0
 10
181.193064
 20
44.248790
 30
0.0
 10
181.269217
 20
44.180532
 30
0.0
 10
181.329277
 20
44.098025
 30
0.0
 10
181.370753
 20
44.004876
 30
0.0
 10
181.392131
 20
43.905202
 30
0.0
 10
181.392131
 20
43.803239
 30
0.0
 10
181.370753
 20
43.703565
 30
0.0
 10
181.329277
 20
43.610416
 30
0.0
 10
181.269217
 20
43.527906
 30
0.0
 10
181.193064
 20
43.459651
 30
0.0
 10
181.104516
 20
43.408661
 30
0.0
 10
181.007480
 20
43.377141
 30
0.0
 10
180.905684
 20
43.366505
 30
0.0
 10
180.839626
 20
43.373543
 30
0.0
 10
180.773567
 20
43.366505
 30
0.0
 10
180.707411
 20
43.373543
 30
0.0
 10
180.641352
 20
43.366505
 30
0.0
 10
180.575294
 20
43.373543
 30
0.0
 10
180.509235
 20
43.366505
 30
0.0
 10
180.443076
 20
43.373543
 30
0.0
 10
180.377020
 20
43.366505
 30
0.0
 10
180.310959
 20
43.373543
 30
0.0
 10
180.244901
 20
43.366505
 30
0.0
 10
180.178747
 20
43.373543
 30
0.0
 10
180.112686
 20
43.366505
 30
0.0
 10
180.010879
 20
43.377141
 30
0.0
 10
179.913841
 20
43.408661
 30
0.0
 10
179.825298
 20
43.459651
 30
0.0
 10
179.749143
 20
43.527906
 30
0.0
 10
179.689083
 20
43.610416
 30
0.0
 10
179.647609
 20
43.703565
 30
0.0
 10
179.626231
 20
43.803239
 30
0.0
 10
179.626231
 20
43.905202
 30
0.0
 10
179.647609
 20
44.004876
 30
0.0
 10
179.689083
 20
44.098025
 30
0.0
 10
179.749143
 20
44.180532
 30
0.0
 10
179.825298
 20
44.248790
 30
0.0
 10
179.913841
 20
44.299680
 30
0.0
 10
180.010879
 20
44.331297
 30
0.0
 10
180.112686
 20
44.341934
 30
0.0
 10
180.178747
 20
44.334896
 30
0.0
 10
180.244901
 20
44.341934
 30
0.0
 10
180.310959
 20
44.334896
 30
0.0
 10
180.377020
 20
44.341934
 30
0.0
 10
180.443076
 20
44.334896
 30
0.0
 10
180.509235
 20
44.341934
 30
0.0
 10
180.575294
 20
44.334896
 30
0.0
 10
180.641352
 20
44.341934
 30
0.0
 10
180.707411
 20
44.334896
 30
0.0
 10
180.773567
 20
44.341934
 30
0.0
 10
180.839626
 20
44.334896
 30
0.0
  0
LWPOLYLINE
  5
176
100
AcDbEntity
  8
Layer_1
 62
7
100
AcDbPolyline
 90
54
 70
1
 10
201.252529
 20
43.373553
 30
0.0
 10
201.186471
 20
43.366515
 30
0.0
 10
201.120409
 20
43.373553
 30
0.0
 10
201.054253
 20
43.366515
 30
0.0
 10
200.988194
 20
43.373553
 30
0.0
 10
200.922136
 20
43.366515
 30
0.0
 10
200.856080
 20
43.373553
 30
0.0
 10
200.789921
 20
43.366515
 30
0.0
 10
200.723862
 20
43.373553
 30
0.0
 10
200.657804
 20
43.366515
 30
0.0
 10
200.591745
 20
43.373553
 30
0.0
 10
200.525586
 20
43.366515
 30
0.0
 10
200.423783
 20
43.377152
 30
0.0
 10
200.326741
 20
43.408669
 30
0.0
 10
200.238199
 20
43.459659
 30
0.0
 10
200.162046
 20
43.527916
 30
0.0
 10
200.101983
 20
43.610424
 30
0.0
 10
200.060512
 20
43.703573
 30
0.0
 10
200.039134
 20
43.803348
 30
0.0
 10
200.039134
 20
43.905300
 30
0.0
 10
200.060512
 20
44.004973
 30
0.0
 10
200.101983
 20
44.098123
 30
0.0
 10
200.162046
 20
44.180633
 30
0.0
 10
200.238199
 20
44.248888
 30
0.0
 10
200.326741
 20
44.299780
 30
0.0
 10
200.423783
 20
44.331398
 30
0.0
 10
200.525586
 20
44.342034
 30
0.0
 10
200.591745
 20
44.334996
 30
0.0
 10
200.657804
 20
44.342034
 30
0.0
 10
200.723862
 20
44.334996
 30
0.0
 10
200.789921
 20
44.342034
 30
0.0
 10
200.856080
 20
44.334996
 30
0.0
 10
200.922136
 20
44.342034
 30
0.0
 10
200.988194
 20
44.334996
 30
0.0
 10
201.054253
 20
44.342034
 30
0.0
 10
201.120409
 20
44.334996
 30
0.0
 10
201.186471
 20
44.342034
 30
0.0
 10
201.252529
 20
44.334996
 30
0.0
 10
201.318585
 20
44.342034
 30
0.0
 10
201.420383
 20
44.331398
 30
0.0
 10
201.517419
 20
44.299780
 30
0.0
 10
201.605965
 20
44.248888
 30
0.0
 10
201.682115
 20
44.180633
 30
0.0
 10
201.742178
 20
44.098123
 30
0.0
 10
201.783654
 20
44.004973
 30
0.0
 10
201.805032
 20
43.905300
 30
0.0
 10
201.805032
 20
43.803348
 30
0.0
 10
201.783654
 20
43.703573
 30
0.0
 10
201.742178
 20
43.610424
 30
0.0
 10
201.682115
 20
43.527916
 30
0.0
 10
201.605965
 20
43.459659
 30
0.0
 10
201.517419
 20
43.408669
 30
0.0
 10
201.420383
 20
43.377152
 30
0.0
 10
201.318585
 20
43.366515
 30
0.0
  0
LWPOLYLINE
  5
177
100
AcDbEntity
  8
Layer_1
 62
7
100
AcDbPolyline
 90
54
 70
1
 10
167.499768
 20
44.341934
 30
0.0
 10
167.565827
 20
44.334896
 30
0.0
 10
167.631888
 20
44.341934
 30
0.0
 10
167.698044
 20
44.334896
 30
0.0
 10
167.764100
 20
44.341934
 30
0.0
 10
167.830161
 20
44.334896
 30
0.0
 10
167.896217
 20
44.341934
 30
0.0
 10
167.998024
 20
44.331297
 30
0.0
 10
168.095062
 20
44.299680
 30
0.0
 10
168.183605
 20
44.248790
 30
0.0
 10
168.259760
 20
44.180532
 30
0.0
 10
168.319820
 20
44.098025
 30
0.0
 10
168.361294
 20
44.004876
 30
0.0
 10
168.382672
 20
43.905202
 30
0.0
 10
168.382672
 20
43.803239
 30
0.0
 10
168.361294
 20
43.703565
 30
0.0
 10
168.319820
 20
43.610416
 30
0.0
 10
168.259760
 20
43.527906
 30
0.0
 10
168.183605
 20
43.459651
 30
0.0
 10
168.095062
 20
43.408661
 30
0.0
 10
167.998024
 20
43.377141
 30
0.0
 10
167.896217
 20
43.366505
 30
0.0
 10
167.830161
 20
43.373543
 30
0.0
 10
167.764100
 20
43.366505
 30
0.0
 10
167.698044
 20
43.373543
 30
0.0
 10
167.631888
 20
43.366505
 30
0.0
 10
167.565827
 20
43.373543
 30
0.0
 10
167.499768
 20
43.366505
 30
0.0
 10
167.433712
 20
43.373543
 30
0.0
 10
167.367651
 20
43.366505
 30
0.0
 10
167.301593
 20
43.373543
 30
0.0
 10
167.235534
 20
43.366505
 30
0.0
 10
167.169476
 20
43.373543
 30
0.0
 10
167.103322
 20
43.366505
 30
0.0
 10
167.001523
 20
43.377141
 30
0.0
 10
166.904485
 20
43.408661
 30
0.0
 10
166.815939
 20
43.459651
 30
0.0
 10
166.739790
 20
43.527906
 30
0.0
 10
166.679727
 20
43.610416
 30
0.0
 10
166.638253
 20
43.703565
 30
0.0
 10
166.616875
 20
43.803239
 30
0.0
 10
166.616875
 20
43.905202
 30
0.0
 10
166.638253
 20
44.004876
 30
0.0
 10
166.679727
 20
44.098025
 30
0.0
 10
166.739790
 20
44.180532
 30
0.0
 10
166.815939
 20
44.248790
 30
0.0
 10
166.904485
 20
44.299680
 30
0.0
 10
167.001523
 20
44.331297
 30
0.0
 10
167.103322
 20
44.341934
 30
0.0
 10
167.169476
 20
44.334896
 30
0.0
 10
167.235534
 20
44.341934
 30
0.0
 10
167.301593
 20
44.334896
 30
0.0
 10
167.367651
 20
44.341934
 30
0.0
 10
167.433712
 20
44.334896
 30
0.0
  0
LWPOLYLINE
  5
178
100
AcDbEntity
  8
Layer_1
 62
7
100
AcDbPolyline
 90
30
 70
1
 10
125.060363
 20
39.880529
 30
0.0
 10
125.120527
 20
39.963037
 30
0.0
 10
125.196478
 20
40.031294
 30
0.0
 10
125.285024
 20
40.082184
 30
0.0
 10
125.382261
 20
40.113805
 30
0.0
 10
125.483948
 20
40.124441
 30
0.0
 10
125.585643
 20
40.113805
 30
0.0
 10
125.682880
 20
40.082184
 30
0.0
 10
125.771426
 20
40.031294
 30
0.0
 10
125.847377
 20
39.963037
 30
0.0
 10
125.907440
 20
39.880529
 30
0.0
 10
125.949014
 20
39.787380
 30
0.0
 10
125.970287
 20
39.687706
 30
0.0
 10
125.970287
 20
39.585733
 30
0.0
 10
125.949014
 20
39.486059
 30
0.0
 10
125.907440
 20
39.392910
 30
0.0
 10
125.847377
 20
39.310403
 30
0.0
 10
125.771426
 20
39.242145
 30
0.0
 10
125.682880
 20
39.191155
 30
0.0
 10
125.585643
 20
39.159638
 30
0.0
 10
125.483948
 20
39.149001
 30
0.0
 10
125.382261
 20
39.159638
 30
0.0
 10
125.285024
 20
39.191155
 30
0.0
 10
125.196478
 20
39.242145
 30
0.0
 10
125.120527
 20
39.310403
 30
0.0
 10
125.060363
 20
39.392910
 30
0.0
 10
125.018789
 20
39.486059
 30
0.0
 10
124.997490
 20
39.585733
 30
0.0
 10
124.997490
 20
39.687706
 30
0.0
 10
125.018789
 20
39.787380
 30
0.0
  0
LWPOLYLINE
  5
179
100
AcDbEntity
  8
Layer_1
 62
7
100
AcDbPolyline
 90
30
 70
1
 10
131.992727
 20
39.159696
 30
0.0
 10
131.895490
 20
39.191216
 30
0.0
 10
131.806945
 20
39.242206
 30
0.0
 10
131.730991
 20
39.310461
 30
0.0
 10
131.670830
 20
39.392971
 30
0.0
 10
131.629256
 20
39.486120
 30
0.0
 10
131.607983
 20
39.585895
 30
0.0
 10
131.607983
 20
39.687857
 30
0.0
 10
131.629256
 20
39.787531
 30
0.0
 10
131.670830
 20
39.880680
 30
0.0
 10
131.730991
 20
39.963188
 30
0.0
 10
131.806945
 20
40.031445
 30
0.0
 10
131.895490
 20
40.082335
 30
0.0
 10
131.992727
 20
40.113953
 30
0.0
 10
132.094412
 20
40.124589
 30
0.0
 10
132.196110
 20
40.113953
 30
0.0
 10
132.293347
 20
40.082335
 30
0.0
 10
132.381892
 20
40.031445
 30
0.0
 10
132.457841
 20
39.963188
 30
0.0
 10
132.517904
 20
39.880680
 30
0.0
 10
132.559481
 20
39.787531
 30
0.0
 10
132.580780
 20
39.687857
 30
0.0
 10
132.580780
 20
39.585884
 30
0.0
 10
132.559481
 20
39.486210
 30
0.0
 10
132.517904
 20
39.393061
 30
0.0
 10
132.457841
 20
39.310553
 30
0.0
 10
132.381892
 20
39.242296
 30
0.0
 10
132.293347
 20
39.191306
 30
0.0
 10
132.196110
 20
39.159786
 30
0.0
 10
132.094412
 20
39.149150
 30
0.0
  0
LWPOLYLINE
  5
17a
100
AcDbEntity
  8
Layer_1
 62
7
100
AcDbPolyline
 90
30
 70
1
 10
151.502049
 20
39.880529
 30
0.0
 10
151.562112
 20
39.963037
 30
0.0
 10
151.638265
 20
40.031294
 30
0.0
 10
151.726805
 20
40.082184
 30
0.0
 10
151.823846
 20
40.113805
 30
0.0
 10
151.925650
 20
40.124441
 30
0.0
 10
152.027448
 20
40.113805
 30
0.0
 10
152.124487
 20
40.082184
 30
0.0
 10
152.213032
 20
40.031294
 30
0.0
 10
152.289182
 20
39.963037
 30
0.0
 10
152.349245
 20
39.880529
 30
0.0
 10
152.390718
 20
39.787380
 30
0.0
 10
152.412097
 20
39.687706
 30
0.0
 10
152.412097
 20
39.585733
 30
0.0
 10
152.390718
 20
39.486059
 30
0.0
 10
152.349245
 20
39.392910
 30
0.0
 10
152.289182
 20
39.310403
 30
0.0
 10
152.213032
 20
39.242145
 30
0.0
 10
152.124487
 20
39.191155
 30
0.0
 10
152.027448
 20
39.159638
 30
0.0
 10
151.925650
 20
39.149001
 30
0.0
 10
151.823846
 20
39.159638
 30
0.0
 10
151.726805
 20
39.191155
 30
0.0
 10
151.638265
 20
39.242145
 30
0.0
 10
151.562112
 20
39.310403
 30
0.0
 10
151.502049
 20
39.392910
 30
0.0
 10
151.460576
 20
39.486059
 30
0.0
 10
151.439197
 20
39.585733
 30
0.0
 10
151.439197
 20
39.687706
 30
0.0
 10
151.460576
 20
39.787380
 30
0.0
  0
LWPOLYLINE
  5
17b
100
AcDbEntity
  8
Layer_1
 62
7
100
AcDbPolyline
 90
30
 70
1
 10
158.434254
 20
39.159696
 30
0.0
 10
158.337216
 20
39.191216
 30
0.0
 10
158.248673
 20
39.242206
 30
0.0
 10
158.172515
 20
39.310461
 30
0.0
 10
158.112455
 20
39.392971
 30
0.0
 10
158.070984
 20
39.486120
 30
0.0
 10
158.049606
 20
39.585794
 30
0.0
 10
158.049606
 20
39.687767
 30
0.0
 10
158.070984
 20
39.787441
 30
0.0
 10
158.112455
 20
39.880590
 30
0.0
 10
158.172515
 20
39.963098
 30
0.0
 10
158.248673
 20
40.031355
 30
0.0
 10
158.337216
 20
40.082245
 30
0.0
 10
158.434254
 20
40.113863
 30
0.0
 10
158.536058
 20
40.124499
 30
0.0
 10
158.637854
 20
40.113863
 30
0.0
 10
158.734892
 20
40.082245
 30
0.0
 10
158.823438
 20
40.031355
 30
0.0
 10
158.899587
 20
39.963098
 30
0.0
 10
158.959651
 20
39.880590
 30
0.0
 10
159.001124
 20
39.787441
 30
0.0
 10
159.022502
 20
39.687767
 30
0.0
 10
159.022502
 20
39.585794
 30
0.0
 10
159.001124
 20
39.486120
 30
0.0
 10
158.959651
 20
39.392971
 30
0.0
 10
158.899587
 20
39.310461
 30
0.0
 10
158.823438
 20
39.242206
 30
0.0
 10
158.734892
 20
39.191216
 30
0.0
 10
158.637854
 20
39.159696
 30
0.0
 10
158.536058
 20
39.149060
 30
0.0
  0
LWPOLYLINE
  5
17c
100
AcDbEntity
  8
Layer_1
 62
7
100
AcDbPolyline
 90
30
 70
1
 10
139.169936
 20
39.486001
 30
0.0
 10
139.128460
 20
39.392852
 30
0.0
 10
139.068400
 20
39.310342
 30
0.0
 10
138.992248
 20
39.242085
 30
0.0
 10
138.903705
 20
39.191094
 30
0.0
 10
138.806666
 20
39.159577
 30
0.0
 10
138.704860
 20
39.148941
 30
0.0
 10
138.603061
 20
39.159577
 30
0.0
 10
138.506025
 20
39.191094
 30
0.0
 10
138.417483
 20
39.242085
 30
0.0
 10
138.341328
 20
39.310342
 30
0.0
 10
138.281267
 20
39.392852
 30
0.0
 10
138.239794
 20
39.486001
 30
0.0
 10
138.218415
 20
39.585672
 30
0.0
 10
138.218415
 20
39.687646
 30
0.0
 10
138.239794
 20
39.787319
 30
0.0
 10
138.281267
 20
39.880469
 30
0.0
 10
138.341328
 20
39.962979
 30
0.0
 10
138.417483
 20
40.031233
 30
0.0
 10
138.506025
 20
40.082123
 30
0.0
 10
138.603061
 20
40.113744
 30
0.0
 10
138.704860
 20
40.124380
 30
0.0
 10
138.806666
 20
40.113744
 30
0.0
 10
138.903705
 20
40.082123
 30
0.0
 10
138.992248
 20
40.031233
 30
0.0
 10
139.068400
 20
39.962979
 30
0.0
 10
139.128460
 20
39.880469
 30
0.0
 10
139.169936
 20
39.787319
 30
0.0
 10
139.191315
 20
39.687646
 30
0.0
 10
139.191315
 20
39.585672
 30
0.0
  0
LWPOLYLINE
  5
17d
100
AcDbEntity
  8
Layer_1
 62
7
100
AcDbPolyline
 90
30
 70
1
 10
144.891644
 20
39.880529
 30
0.0
 10
144.951704
 20
39.963037
 30
0.0
 10
145.027854
 20
40.031294
 30
0.0
 10
145.116402
 20
40.082184
 30
0.0
 10
145.213440
 20
40.113805
 30
0.0
 10
145.315236
 20
40.124441
 30
0.0
 10
145.417040
 20
40.113805
 30
0.0
 10
145.514081
 20
40.082184
 30
0.0
 10
145.602624
 20
40.031294
 30
0.0
 10
145.678776
 20
39.963037
 30
0.0
 10
145.738837
 20
39.880529
 30
0.0
 10
145.780310
 20
39.787380
 30
0.0
 10
145.801689
 20
39.687706
 30
0.0
 10
145.801689
 20
39.585733
 30
0.0
 10
145.780310
 20
39.486059
 30
0.0
 10
145.738837
 20
39.392910
 30
0.0
 10
145.678776
 20
39.310403
 30
0.0
 10
145.602624
 20
39.242145
 30
0.0
 10
145.514081
 20
39.191155
 30
0.0
 10
145.417040
 20
39.159638
 30
0.0
 10
145.315236
 20
39.149001
 30
0.0
 10
145.213440
 20
39.159638
 30
0.0
 10
145.116402
 20
39.191155
 30
0.0
 10
145.027854
 20
39.242145
 30
0.0
 10
144.951704
 20
39.310403
 30
0.0
 10
144.891644
 20
39.392910
 30
0.0
 10
144.850168
 20
39.486059
 30
0.0
 10
144.828789
 20
39.585733
 30
0.0
 10
144.828789
 20
39.687706
 30
0.0
 10
144.850168
 20
39.787380
 30
0.0
  0
LWPOLYLINE
  5
17e
100
AcDbEntity
  8
Layer_1
 62
7
100
AcDbPolyline
 90
30
 70
1
 10
119.338815
 20
39.486001
 30
0.0
 10
119.297241
 20
39.392852
 30
0.0
 10
119.237181
 20
39.310342
 30
0.0
 10
119.161227
 20
39.242085
 30
0.0
 10
119.072684
 20
39.191094
 30
0.0
 10
118.975444
 20
39.159577
 30
0.0
 10
118.873749
 20
39.148941
 30
0.0
 10
118.772054
 20
39.159577
 30
0.0
 10
118.674814
 20
39.191094
 30
0.0
 10
118.586269
 20
39.242085
 30
0.0
 10
118.510320
 20
39.310342
 30
0.0
 10
118.450159
 20
39.392852
 30
0.0
 10
118.408582
 20
39.486001
 30
0.0
 10
118.387310
 20
39.585672
 30
0.0
 10
118.387310
 20
39.687646
 30
0.0
 10
118.408582
 20
39.787319
 30
0.0
 10
118.450159
 20
39.880469
 30
0.0
 10
118.510320
 20
39.962979
 30
0.0
 10
118.586269
 20
40.031233
 30
0.0
 10
118.674814
 20
40.082123
 30
0.0
 10
118.772054
 20
40.113744
 30
0.0
 10
118.873749
 20
40.124380
 30
0.0
 10
118.975444
 20
40.113744
 30
0.0
 10
119.072684
 20
40.082123
 30
0.0
 10
119.161227
 20
40.031233
 30
0.0
 10
119.237181
 20
39.962979
 30
0.0
 10
119.297241
 20
39.880469
 30
0.0
 10
119.338815
 20
39.787319
 30
0.0
 10
119.360114
 20
39.687646
 30
0.0
 10
119.360114
 20
39.585672
 30
0.0
  0
ENDSEC
  0
SECTION
  2
OBJECTS
  0
DICTIONARY
  5
C
330
0
100
AcDbDictionary
  3
ACAD_GROUP
350
D
  3
ACAD_MLINESTYLE
350
17
  0
DICTIONARY
  5
D
330
C
100
AcDbDictionary
  0
DICTIONARY
  5
1A
330
C
100
AcDbDictionary
  0
DICTIONARY
  5
17
330
C
100
AcDbDictionary
  3
STANDARD
350
18
  0
DICTIONARY
  5
19
330
C
100
AcDbDictionary
  0
ENDSEC
  0
EOF
