<?xml version="1.0" encoding="UTF-8" standalone="no"?>
<!-- Created with Inkscape (http://www.inkscape.org/) -->

<svg
   xmlns:dc="http://purl.org/dc/elements/1.1/"
   xmlns:cc="http://creativecommons.org/ns#"
   xmlns:rdf="http://www.w3.org/1999/02/22-rdf-syntax-ns#"
   xmlns:svg="http://www.w3.org/2000/svg"
   xmlns="http://www.w3.org/2000/svg"
   xmlns:sodipodi="http://sodipodi.sourceforge.net/DTD/sodipodi-0.dtd"
   xmlns:inkscape="http://www.inkscape.org/namespaces/inkscape"
   width="210mm"
   height="297mm"
   viewBox="0 0 210 297"
   version="1.1"
   id="svg1465"
   inkscape:version="0.92.2 (5c3e80d, 2017-08-06)"
   sodipodi:docname="acrylic_laser_zbed_383.5_350_ponoko.svg">
  <defs
     id="defs1459" />
  <sodipodi:namedview
     id="base"
     pagecolor="#ffffff"
     bordercolor="#666666"
     borderopacity="1.0"
     inkscape:pageopacity="0.0"
     inkscape:pageshadow="2"
     inkscape:zoom="0.4806352"
     inkscape:cx="1018.523"
     inkscape:cy="617.90594"
     inkscape:document-units="mm"
     inkscape:current-layer="layer1"
     showgrid="false"
     inkscape:window-width="1920"
     inkscape:window-height="986"
     inkscape:window-x="-11"
     inkscape:window-y="-11"
     inkscape:window-maximized="1" />
  <metadata
     id="metadata1462">
    <rdf:RDF>
      <cc:Work
         rdf:about="">
        <dc:format>image/svg+xml</dc:format>
        <dc:type
           rdf:resource="http://purl.org/dc/dcmitype/StillImage" />
        <dc:title></dc:title>
      </cc:Work>
    </rdf:RDF>
  </metadata>
  <g
     inkscape:label="Layer 1"
     inkscape:groupmode="layer"
     id="layer1">
    <g
       aria-label="zbed breadboard "
       transform="matrix(0.26458333,0,0,0.26458333,337.60857,-83.079163)"
       style="font-style:normal;font-weight:normal;font-size:40px;line-height:1.25;font-family:sans-serif;letter-spacing:0px;word-spacing:0px;fill:#000000;fill-opacity:1;stroke:none;stroke-width:0.03779528;stroke-miterlimit:4;stroke-dasharray:none"
       id="flowRoot2044">
      <path
         d="m -297.6224,1359.5534 h 7.96615 v 1.5312 l -6.30729,7.3373 h 6.30729 v 1.3398 h -8.19401 v -1.5312 l 6.30729,-7.3373 h -6.07943 z"
         style="font-size:18.66666603px;fill:#000000;fill-opacity:1;stroke-width:0.03779528;stroke-miterlimit:4;stroke-dasharray:none"
         id="path2070"
         inkscape:connector-curvature="0" />
      <path
         d="m -279.75781,1364.6667 q 0,-1.8503 -0.76563,-2.8985 -0.75651,-1.0573 -2.08724,-1.0573 -1.33073,0 -2.09635,1.0573 -0.75651,1.0482 -0.75651,2.8985 0,1.8502 0.75651,2.9075 0.76562,1.0482 2.09635,1.0482 1.33073,0 2.08724,-1.0482 0.76563,-1.0573 0.76563,-2.9075 z m -5.70573,-3.5638 q 0.52864,-0.9115 1.33073,-1.349 0.81119,-0.4466 1.93229,-0.4466 1.85937,0 3.01693,1.4766 1.16666,1.4765 1.16666,3.8828 0,2.4062 -1.16666,3.8828 -1.15756,1.4765 -3.01693,1.4765 -1.1211,0 -1.93229,-0.4375 -0.80209,-0.4466 -1.33073,-1.358 v 1.5312 h -1.6862 v -14.1823 h 1.6862 z"
         style="font-size:18.66666603px;fill:#000000;fill-opacity:1;stroke-width:0.03779528;stroke-miterlimit:4;stroke-dasharray:none"
         id="path2072"
         inkscape:connector-curvature="0" />
      <path
         d="m -266.50521,1364.2383 v 0.8203 h -7.71094 q 0.10938,1.7318 1.03907,2.6432 0.9388,0.9024 2.60677,0.9024 0.96614,0 1.86849,-0.237 0.91146,-0.237 1.80468,-0.7109 v 1.5859 q -0.90234,0.3828 -1.85026,0.5833 -0.94791,0.2005 -1.92317,0.2005 -2.44271,0 -3.8737,-1.4218 -1.42188,-1.4219 -1.42188,-3.8464 0,-2.5065 1.34896,-3.9739 1.35808,-1.4766 3.65495,-1.4766 2.0599,0 3.25391,1.3307 1.20312,1.3216 1.20312,3.6003 z m -1.67708,-0.4922 q -0.0182,-1.3763 -0.77474,-2.1966 -0.7474,-0.8203 -1.98698,-0.8203 -1.40365,0 -2.2513,0.7929 -0.83854,0.793 -0.96615,2.2331 z"
         style="font-size:18.66666603px;fill:#000000;fill-opacity:1;stroke-width:0.03779528;stroke-miterlimit:4;stroke-dasharray:none"
         id="path2074"
         inkscape:connector-curvature="0" />
      <path
         d="m -257.03516,1361.1029 v -5.5235 h 1.67709 v 14.1823 h -1.67709 v -1.5312 q -0.52864,0.9114 -1.33984,1.358 -0.80208,0.4375 -1.93229,0.4375 -1.85026,0 -3.01693,-1.4765 -1.15755,-1.4766 -1.15755,-3.8828 0,-2.4063 1.15755,-3.8828 1.16667,-1.4766 3.01693,-1.4766 1.13021,0 1.93229,0.4466 0.8112,0.4375 1.33984,1.349 z m -5.71484,3.5638 q 0,1.8502 0.75651,2.9075 0.76563,1.0482 2.09635,1.0482 1.33073,0 2.09636,-1.0482 0.76562,-1.0573 0.76562,-2.9075 0,-1.8503 -0.76562,-2.8985 -0.76563,-1.0573 -2.09636,-1.0573 -1.33072,0 -2.09635,1.0573 -0.75651,1.0482 -0.75651,2.8985 z"
         style="font-size:18.66666603px;fill:#000000;fill-opacity:1;stroke-width:0.03779528;stroke-miterlimit:4;stroke-dasharray:none"
         id="path2076"
         inkscape:connector-curvature="0" />
      <path
         d="m -238.63282,1364.6667 q 0,-1.8503 -0.76562,-2.8985 -0.75651,-1.0573 -2.08724,-1.0573 -1.33073,0 -2.09635,1.0573 -0.75651,1.0482 -0.75651,2.8985 0,1.8502 0.75651,2.9075 0.76562,1.0482 2.09635,1.0482 1.33073,0 2.08724,-1.0482 0.76562,-1.0573 0.76562,-2.9075 z m -5.70572,-3.5638 q 0.52864,-0.9115 1.33072,-1.349 0.8112,-0.4466 1.9323,-0.4466 1.85937,0 3.01692,1.4766 1.16667,1.4765 1.16667,3.8828 0,2.4062 -1.16667,3.8828 -1.15755,1.4765 -3.01692,1.4765 -1.1211,0 -1.9323,-0.4375 -0.80208,-0.4466 -1.33072,-1.358 v 1.5312 h -1.6862 v -14.1823 h 1.6862 z"
         style="font-size:18.66666603px;fill:#000000;fill-opacity:1;stroke-width:0.03779528;stroke-miterlimit:4;stroke-dasharray:none"
         id="path2078"
         inkscape:connector-curvature="0" />
      <path
         d="m -228.19661,1361.1211 q -0.28256,-0.1641 -0.6198,-0.237 -0.32812,-0.082 -0.72916,-0.082 -1.42188,0 -2.1875,0.9297 -0.75651,0.9205 -0.75651,2.6523 v 5.3776 h -1.6862 v -10.2083 h 1.6862 v 1.5859 q 0.52864,-0.9297 1.3763,-1.3763 0.84765,-0.4557 2.05989,-0.4557 0.17318,0 0.38282,0.027 0.20963,0.018 0.46484,0.064 z"
         style="font-size:18.66666603px;fill:#000000;fill-opacity:1;stroke-width:0.03779528;stroke-miterlimit:4;stroke-dasharray:none"
         id="path2080"
         inkscape:connector-curvature="0" />
      <path
         d="m -218.08854,1364.2383 v 0.8203 h -7.71094 q 0.10937,1.7318 1.03906,2.6432 0.9388,0.9024 2.60677,0.9024 0.96615,0 1.86849,-0.237 0.91146,-0.237 1.80469,-0.7109 v 1.5859 q -0.90235,0.3828 -1.85026,0.5833 -0.94792,0.2005 -1.92318,0.2005 -2.44271,0 -3.8737,-1.4218 -1.42187,-1.4219 -1.42187,-3.8464 0,-2.5065 1.34896,-3.9739 1.35807,-1.4766 3.65494,-1.4766 2.0599,0 3.25391,1.3307 1.20313,1.3216 1.20313,3.6003 z m -1.67709,-0.4922 q -0.0182,-1.3763 -0.77474,-2.1966 -0.74739,-0.8203 -1.98698,-0.8203 -1.40364,0 -2.2513,0.7929 -0.83854,0.793 -0.96614,2.2331 z"
         style="font-size:18.66666603px;fill:#000000;fill-opacity:1;stroke-width:0.03779528;stroke-miterlimit:4;stroke-dasharray:none"
         id="path2082"
         inkscape:connector-curvature="0" />
      <path
         d="m -210.69662,1364.6302 q -2.03255,0 -2.8164,0.4649 -0.78386,0.4648 -0.78386,1.5859 0,0.8932 0.58334,1.4219 0.59244,0.5195 1.60416,0.5195 1.39453,0 2.23308,-0.9844 0.84765,-0.9935 0.84765,-2.6341 v -0.3737 z m 3.34505,-0.6927 v 5.8242 h -1.67708 v -1.5495 q -0.57422,0.9297 -1.43099,1.3763 -0.85677,0.4375 -2.09635,0.4375 -1.56771,0 -2.4974,-0.875 -0.92057,-0.8841 -0.92057,-2.3606 0,-1.7227 1.14844,-2.5977 1.15755,-0.875 3.44531,-0.875 h 2.35156 v -0.1641 q 0,-1.1575 -0.76562,-1.7864 -0.75651,-0.638 -2.13282,-0.638 -0.875,0 -1.70442,0.2096 -0.82943,0.2096 -1.59506,0.6289 v -1.5495 q 0.92058,-0.3554 1.78646,-0.5286 0.86589,-0.1823 1.6862,-0.1823 2.21484,0 3.30859,1.1484 1.09375,1.1485 1.09375,3.4818 z"
         style="font-size:18.66666603px;fill:#000000;fill-opacity:1;stroke-width:0.03779528;stroke-miterlimit:4;stroke-dasharray:none"
         id="path2084"
         inkscape:connector-curvature="0" />
      <path
         d="m -197.17058,1361.1029 v -5.5235 h 1.67708 v 14.1823 h -1.67708 v -1.5312 q -0.52864,0.9114 -1.33984,1.358 -0.80209,0.4375 -1.93229,0.4375 -1.85026,0 -3.01693,-1.4765 -1.15755,-1.4766 -1.15755,-3.8828 0,-2.4063 1.15755,-3.8828 1.16667,-1.4766 3.01693,-1.4766 1.1302,0 1.93229,0.4466 0.8112,0.4375 1.33984,1.349 z m -5.71484,3.5638 q 0,1.8502 0.75651,2.9075 0.76562,1.0482 2.09635,1.0482 1.33073,0 2.09636,-1.0482 0.76562,-1.0573 0.76562,-2.9075 0,-1.8503 -0.76562,-2.8985 -0.76563,-1.0573 -2.09636,-1.0573 -1.33073,0 -2.09635,1.0573 -0.75651,1.0482 -0.75651,2.8985 z"
         style="font-size:18.66666603px;fill:#000000;fill-opacity:1;stroke-width:0.03779528;stroke-miterlimit:4;stroke-dasharray:none"
         id="path2086"
         inkscape:connector-curvature="0" />
      <path
         d="m -184.71094,1364.6667 q 0,-1.8503 -0.76563,-2.8985 -0.75651,-1.0573 -2.08723,-1.0573 -1.33073,0 -2.09636,1.0573 -0.75651,1.0482 -0.75651,2.8985 0,1.8502 0.75651,2.9075 0.76563,1.0482 2.09636,1.0482 1.33072,0 2.08723,-1.0482 0.76563,-1.0573 0.76563,-2.9075 z m -5.70573,-3.5638 q 0.52865,-0.9115 1.33073,-1.349 0.8112,-0.4466 1.93229,-0.4466 1.85938,0 3.01693,1.4766 1.16667,1.4765 1.16667,3.8828 0,2.4062 -1.16667,3.8828 -1.15755,1.4765 -3.01693,1.4765 -1.12109,0 -1.93229,-0.4375 -0.80208,-0.4466 -1.33073,-1.358 v 1.5312 h -1.6862 v -14.1823 h 1.6862 z"
         style="font-size:18.66666603px;fill:#000000;fill-opacity:1;stroke-width:0.03779528;stroke-miterlimit:4;stroke-dasharray:none"
         id="path2088"
         inkscape:connector-curvature="0" />
      <path
         d="m -176.23438,1360.7292 q -1.34895,0 -2.13281,1.0573 -0.78385,1.0481 -0.78385,2.8802 0,1.832 0.77474,2.8893 0.78385,1.0482 2.14192,1.0482 1.33985,0 2.1237,-1.0573 0.78386,-1.0573 0.78386,-2.8802 0,-1.8138 -0.78386,-2.8711 -0.78385,-1.0664 -2.1237,-1.0664 z m 0,-1.4219 q 2.1875,0 3.4362,1.4219 1.2487,1.4218 1.2487,3.9375 0,2.5065 -1.2487,3.9375 -1.2487,1.4218 -3.4362,1.4218 -2.19661,0 -3.44531,-1.4218 -1.23958,-1.431 -1.23958,-3.9375 0,-2.5157 1.23958,-3.9375 1.2487,-1.4219 3.44531,-1.4219 z"
         style="font-size:18.66666603px;fill:#000000;fill-opacity:1;stroke-width:0.03779528;stroke-miterlimit:4;stroke-dasharray:none"
         id="path2090"
         inkscape:connector-curvature="0" />
      <path
         d="m -164.13933,1364.6302 q -2.03255,0 -2.8164,0.4649 -0.78386,0.4648 -0.78386,1.5859 0,0.8932 0.58333,1.4219 0.59245,0.5195 1.60417,0.5195 1.39453,0 2.23307,-0.9844 0.84766,-0.9935 0.84766,-2.6341 v -0.3737 z m 3.34505,-0.6927 v 5.8242 h -1.67708 v -1.5495 q -0.57422,0.9297 -1.43099,1.3763 -0.85677,0.4375 -2.09635,0.4375 -1.56771,0 -2.4974,-0.875 -0.92057,-0.8841 -0.92057,-2.3606 0,-1.7227 1.14844,-2.5977 1.15755,-0.875 3.44531,-0.875 h 2.35156 v -0.1641 q 0,-1.1575 -0.76562,-1.7864 -0.75651,-0.638 -2.13282,-0.638 -0.875,0 -1.70442,0.2096 -0.82943,0.2096 -1.59506,0.6289 v -1.5495 q 0.92058,-0.3554 1.78646,-0.5286 0.86589,-0.1823 1.6862,-0.1823 2.21484,0 3.30859,1.1484 1.09375,1.1485 1.09375,3.4818 z"
         style="font-size:18.66666603px;fill:#000000;fill-opacity:1;stroke-width:0.03779528;stroke-miterlimit:4;stroke-dasharray:none"
         id="path2092"
         inkscape:connector-curvature="0" />
      <path
         d="m -151.41536,1361.1211 q -0.28256,-0.1641 -0.6198,-0.237 -0.32812,-0.082 -0.72916,-0.082 -1.42188,0 -2.1875,0.9297 -0.75651,0.9205 -0.75651,2.6523 v 5.3776 h -1.6862 v -10.2083 h 1.6862 v 1.5859 q 0.52864,-0.9297 1.3763,-1.3763 0.84765,-0.4557 2.05989,-0.4557 0.17318,0 0.38282,0.027 0.20963,0.018 0.46484,0.064 z"
         style="font-size:18.66666603px;fill:#000000;fill-opacity:1;stroke-width:0.03779528;stroke-miterlimit:4;stroke-dasharray:none"
         id="path2094"
         inkscape:connector-curvature="0" />
      <path
         d="m -143.2487,1361.1029 v -5.5235 h 1.67708 v 14.1823 h -1.67708 v -1.5312 q -0.52865,0.9114 -1.33985,1.358 -0.80208,0.4375 -1.93229,0.4375 -1.85026,0 -3.01693,-1.4765 -1.15755,-1.4766 -1.15755,-3.8828 0,-2.4063 1.15755,-3.8828 1.16667,-1.4766 3.01693,-1.4766 1.13021,0 1.93229,0.4466 0.8112,0.4375 1.33985,1.349 z m -5.71485,3.5638 q 0,1.8502 0.75651,2.9075 0.76563,1.0482 2.09636,1.0482 1.33073,0 2.09635,-1.0482 0.76563,-1.0573 0.76563,-2.9075 0,-1.8503 -0.76563,-2.8985 -0.76562,-1.0573 -2.09635,-1.0573 -1.33073,0 -2.09636,1.0573 -0.75651,1.0482 -0.75651,2.8985 z"
         style="font-size:18.66666603px;fill:#000000;fill-opacity:1;stroke-width:0.03779528;stroke-miterlimit:4;stroke-dasharray:none"
         id="path2096"
         inkscape:connector-curvature="0" />
    </g>
    <flowRoot
       xml:space="preserve"
       id="flowRoot2058"
       style="fill:black;fill-opacity:1;stroke:none;font-family:sans-serif;font-style:normal;font-weight:normal;font-size:40px;line-height:1.25;letter-spacing:0px;word-spacing:0px"><flowRegion
         id="flowRegion2060"><rect
           id="rect2062"
           width="697.34515"
           height="200.08215"
           x="-438.41528"
           y="1285.822" /></flowRegion><flowPara
         id="flowPara2064" /></flowRoot>    <g
       aria-label="HTS Resources"
       style="font-style:normal;font-weight:normal;font-size:10.58333302px;line-height:1.25;font-family:sans-serif;letter-spacing:0px;word-spacing:0px;fill:#000000;fill-opacity:1;stroke:none;stroke-width:0.01;stroke-miterlimit:4;stroke-dasharray:none"
       id="text2068"
       transform="translate(0,-2.3666666e-6)">
      <path
         d="m 332.87401,275.89404 h 0.48713 v 1.47588 h 1.77009 v -1.47588 h 0.48714 v 3.60047 h -0.48714 v -1.71463 h -1.77009 v 1.71463 h -0.48713 z"
         style="font-size:4.93888903px;fill:#000000;fill-opacity:1;stroke-width:0.01;stroke-miterlimit:4;stroke-dasharray:none"
         id="path2099"
         inkscape:connector-curvature="0" />
      <path
         d="m 336.08863,275.89404 h 3.0458 v 0.40996 h -1.27813 v 3.19051 h -0.48954 V 276.304 h -1.27813 z"
         style="font-size:4.93888903px;fill:#000000;fill-opacity:1;stroke-width:0.01;stroke-miterlimit:4;stroke-dasharray:none"
         id="path2101"
         inkscape:connector-curvature="0" />
      <path
         d="m 341.76545,276.0122 v 0.47508 q -0.27733,-0.13263 -0.52331,-0.19775 -0.24598,-0.0651 -0.47507,-0.0651 -0.39791,0 -0.61495,0.15434 -0.21463,0.15434 -0.21463,0.43891 0,0.23874 0.14228,0.36173 0.14469,0.12058 0.54501,0.19534 l 0.29421,0.0603 q 0.54502,0.1037 0.80306,0.36656 0.26045,0.26045 0.26045,0.69935 0,0.52331 -0.35209,0.79341 -0.34968,0.27009 -1.02733,0.27009 -0.25563,0 -0.54501,-0.0579 -0.28698,-0.0579 -0.59566,-0.17122 v -0.5016 q 0.29662,0.1664 0.58119,0.2508 0.28456,0.0844 0.55948,0.0844 0.4172,0 0.64389,-0.16399 0.22669,-0.16399 0.22669,-0.46785 0,-0.26527 -0.16399,-0.41478 -0.16158,-0.14952 -0.53296,-0.22428 l -0.29662,-0.0579 q -0.54501,-0.10852 -0.78858,-0.34003 -0.24357,-0.23151 -0.24357,-0.64389 0,-0.47749 0.33521,-0.75241 0.33762,-0.27491 0.92845,-0.27491 0.25321,0 0.51608,0.0458 0.26286,0.0458 0.53777,0.13746 z"
         style="font-size:4.93888903px;fill:#000000;fill-opacity:1;stroke-width:0.01;stroke-miterlimit:4;stroke-dasharray:none"
         id="path2103"
         inkscape:connector-curvature="0" />
      <path
         d="m 346.02187,277.80641 q 0.15675,0.053 0.30386,0.22669 0.14951,0.17363 0.29903,0.47749 l 0.49437,0.98392 h -0.52331 l -0.46061,-0.92363 q -0.17845,-0.36174 -0.34726,-0.47991 -0.1664,-0.11816 -0.45579,-0.11816 h -0.53054 v 1.5217 h -0.48714 v -3.60047 h 1.09968 q 0.61736,0 0.92121,0.25804 0.30386,0.25803 0.30386,0.77893 0,0.34003 -0.15916,0.56431 -0.15675,0.22427 -0.4582,0.31109 z m -1.22025,-1.51205 v 1.27813 h 0.61254 q 0.35208,0 0.53054,-0.16158 0.18087,-0.16398 0.18087,-0.4799 0,-0.31591 -0.18087,-0.47508 -0.17846,-0.16157 -0.53054,-0.16157 z"
         style="font-size:4.93888903px;fill:#000000;fill-opacity:1;stroke-width:0.01;stroke-miterlimit:4;stroke-dasharray:none"
         id="path2105"
         inkscape:connector-curvature="0" />
      <path
         d="m 349.81768,278.0331 v 0.21704 h -2.04019 q 0.0289,0.4582 0.27492,0.69935 0.24839,0.23875 0.68971,0.23875 0.25562,0 0.49437,-0.0627 0.24116,-0.0627 0.47749,-0.18811 v 0.41962 q -0.23875,0.10128 -0.48955,0.15434 -0.2508,0.053 -0.50884,0.053 -0.6463,0 -1.02492,-0.3762 -0.3762,-0.37621 -0.3762,-1.01768 0,-0.66318 0.35691,-1.05145 0.35933,-0.39067 0.96704,-0.39067 0.54501,0 0.86093,0.35209 0.31833,0.34968 0.31833,0.95257 z m -0.44373,-0.13023 q -0.005,-0.36414 -0.20499,-0.58118 -0.19774,-0.21705 -0.52572,-0.21705 -0.37138,0 -0.59565,0.20981 -0.22187,0.20981 -0.25563,0.59083 z"
         style="font-size:4.93888903px;fill:#000000;fill-opacity:1;stroke-width:0.01;stroke-miterlimit:4;stroke-dasharray:none"
         id="path2107"
         inkscape:connector-curvature="0" />
      <path
         d="m 352.26783,276.87313 v 0.41962 q -0.1881,-0.0965 -0.39067,-0.1447 -0.20258,-0.0482 -0.41962,-0.0482 -0.33038,0 -0.49678,0.10129 -0.16399,0.10128 -0.16399,0.30385 0,0.15434 0.11817,0.24357 0.11817,0.0868 0.47508,0.1664 l 0.15193,0.0338 q 0.47266,0.10129 0.67041,0.28698 0.20016,0.18328 0.20016,0.51366 0,0.37621 -0.29903,0.59566 -0.29662,0.21945 -0.81752,0.21945 -0.21704,0 -0.45338,-0.0434 -0.23392,-0.041 -0.49437,-0.1254 v -0.4582 q 0.24598,0.12782 0.48473,0.19293 0.23874,0.0627 0.47266,0.0627 0.31351,0 0.48232,-0.10611 0.16881,-0.10852 0.16881,-0.30386 0,-0.18086 -0.12299,-0.27733 -0.12058,-0.0965 -0.53296,-0.18569 l -0.15434,-0.0362 q -0.41238,-0.0868 -0.59566,-0.26527 -0.18328,-0.18087 -0.18328,-0.49437 0,-0.38103 0.2701,-0.58843 0.2701,-0.20739 0.76688,-0.20739 0.24598,0 0.46302,0.0362 0.21704,0.0362 0.40032,0.10852 z"
         style="font-size:4.93888903px;fill:#000000;fill-opacity:1;stroke-width:0.01;stroke-miterlimit:4;stroke-dasharray:none"
         id="path2109"
         inkscape:connector-curvature="0" />
      <path
         d="m 354.16814,277.10464 q -0.35691,0 -0.5643,0.27975 -0.2074,0.27733 -0.2074,0.76205 0,0.48473 0.20498,0.76447 0.2074,0.27733 0.56672,0.27733 0.3545,0 0.5619,-0.27974 0.20739,-0.27975 0.20739,-0.76206 0,-0.4799 -0.20739,-0.75964 -0.2074,-0.28216 -0.5619,-0.28216 z m 0,-0.3762 q 0.57878,0 0.90916,0.3762 0.33039,0.37621 0.33039,1.0418 0,0.66318 -0.33039,1.0418 -0.33038,0.3762 -0.90916,0.3762 -0.58119,0 -0.91157,-0.3762 -0.32797,-0.37862 -0.32797,-1.0418 0,-0.66559 0.32797,-1.0418 0.33038,-0.3762 0.91157,-0.3762 z"
         style="font-size:4.93888903px;fill:#000000;fill-opacity:1;stroke-width:0.01;stroke-miterlimit:4;stroke-dasharray:none"
         id="path2111"
         inkscape:connector-curvature="0" />
      <path
         d="m 356.09499,278.42859 v -1.63504 h 0.44372 v 1.61816 q 0,0.38344 0.14952,0.57637 0.14952,0.19051 0.44855,0.19051 0.35933,0 0.56672,-0.2291 0.20981,-0.2291 0.20981,-0.62459 v -1.53135 h 0.44373 v 2.70096 h -0.44373 v -0.41479 q -0.16158,0.24598 -0.37621,0.36656 -0.21222,0.11816 -0.49437,0.11816 -0.46543,0 -0.70659,-0.28939 -0.24115,-0.28938 -0.24115,-0.84646 z m 1.11655,-1.70015 z"
         style="font-size:4.93888903px;fill:#000000;fill-opacity:1;stroke-width:0.01;stroke-miterlimit:4;stroke-dasharray:none"
         id="path2113"
         inkscape:connector-curvature="0" />
      <path
         d="m 360.84095,277.20834 q -0.0748,-0.0434 -0.16399,-0.0627 -0.0868,-0.0217 -0.19292,-0.0217 -0.37621,0 -0.57878,0.24598 -0.20016,0.24356 -0.20016,0.70176 v 1.42283 h -0.44614 v -2.70096 h 0.44614 v 0.41961 q 0.13987,-0.24598 0.36415,-0.36414 0.22427,-0.12058 0.54501,-0.12058 0.0458,0 0.10129,0.007 0.0555,0.005 0.12299,0.0169 z"
         style="font-size:4.93888903px;fill:#000000;fill-opacity:1;stroke-width:0.01;stroke-miterlimit:4;stroke-dasharray:none"
         id="path2115"
         inkscape:connector-curvature="0" />
      <path
         d="m 363.14882,276.89725 v 0.41479 q -0.1881,-0.1037 -0.37862,-0.15434 -0.1881,-0.0531 -0.38103,-0.0531 -0.43167,0 -0.67041,0.27492 -0.23875,0.27251 -0.23875,0.76688 0,0.49437 0.23875,0.76929 0.23874,0.27251 0.67041,0.27251 0.19293,0 0.38103,-0.0507 0.19052,-0.053 0.37862,-0.15675 v 0.40997 q -0.18569,0.0868 -0.38585,0.13022 -0.19775,0.0434 -0.42203,0.0434 -0.61012,0 -0.96945,-0.38344 -0.35932,-0.38344 -0.35932,-1.03456 0,-0.66077 0.36173,-1.03938 0.36415,-0.37862 0.99598,-0.37862 0.20498,0 0.40032,0.0434 0.19534,0.041 0.37862,0.1254 z"
         style="font-size:4.93888903px;fill:#000000;fill-opacity:1;stroke-width:0.01;stroke-miterlimit:4;stroke-dasharray:none"
         id="path2117"
         inkscape:connector-curvature="0" />
      <path
         d="m 366.23562,278.0331 v 0.21704 h -2.04018 q 0.0289,0.4582 0.27492,0.69935 0.24839,0.23875 0.68971,0.23875 0.25562,0 0.49437,-0.0627 0.24115,-0.0627 0.47749,-0.18811 v 0.41962 q -0.23875,0.10128 -0.48955,0.15434 -0.2508,0.053 -0.50884,0.053 -0.6463,0 -1.02492,-0.3762 -0.3762,-0.37621 -0.3762,-1.01768 0,-0.66318 0.35691,-1.05145 0.35932,-0.39067 0.96704,-0.39067 0.54501,0 0.86093,0.35209 0.31832,0.34968 0.31832,0.95257 z m -0.44372,-0.13023 q -0.005,-0.36414 -0.20499,-0.58118 -0.19775,-0.21705 -0.52572,-0.21705 -0.37138,0 -0.59566,0.20981 -0.22186,0.20981 -0.25562,0.59083 z"
         style="font-size:4.93888903px;fill:#000000;fill-opacity:1;stroke-width:0.01;stroke-miterlimit:4;stroke-dasharray:none"
         id="path2119"
         inkscape:connector-curvature="0" />
      <path
         d="m 368.68578,276.87313 v 0.41962 q -0.18811,-0.0965 -0.39068,-0.1447 -0.20257,-0.0482 -0.41961,-0.0482 -0.33038,0 -0.49678,0.10129 -0.16399,0.10128 -0.16399,0.30385 0,0.15434 0.11817,0.24357 0.11816,0.0868 0.47508,0.1664 l 0.15193,0.0338 q 0.47266,0.10129 0.67041,0.28698 0.20016,0.18328 0.20016,0.51366 0,0.37621 -0.29903,0.59566 -0.29663,0.21945 -0.81752,0.21945 -0.21705,0 -0.45338,-0.0434 -0.23392,-0.041 -0.49437,-0.1254 v -0.4582 q 0.24598,0.12782 0.48472,0.19293 0.23875,0.0627 0.47267,0.0627 0.31351,0 0.48231,-0.10611 0.16881,-0.10852 0.16881,-0.30386 0,-0.18086 -0.12299,-0.27733 -0.12057,-0.0965 -0.53295,-0.18569 l -0.15434,-0.0362 q -0.41238,-0.0868 -0.59566,-0.26527 -0.18328,-0.18087 -0.18328,-0.49437 0,-0.38103 0.2701,-0.58843 0.27009,-0.20739 0.76688,-0.20739 0.24598,0 0.46302,0.0362 0.21704,0.0362 0.40032,0.10852 z"
         style="font-size:4.93888903px;fill:#000000;fill-opacity:1;stroke-width:0.01;stroke-miterlimit:4;stroke-dasharray:none"
         id="path2121"
         inkscape:connector-curvature="0" />
    </g>
    <path
       id="path2138"
       d="M 41.945139,196.99302 H 125.83576 V 296.7505 H 383.25018 V -52.75009 H 346.548 V 77.064335 H 38.949045 V -52.75009 H 0.24950001 V 296.7505 H 41.945139 Z m 319.384611,-230.880066 -0.38751,-0.08314 -0.36236,-0.161751 -0.32046,-0.2328 -0.26574,-0.294401 -0.19854,-0.343532 -0.12191,-0.377544 -0.0419,-0.394437 0.0419,-0.3944 0.12191,-0.377544 0.19854,-0.343533 0.26574,-0.294779 0.32046,-0.232422 0.36236,-0.161751 0.38751,-0.08314 h 0.39747 l 0.38749,0.08314 0.36236,0.161751 0.32047,0.232422 0.26573,0.294779 0.19893,0.343533 0.12192,0.377544 0.0419,0.3944 -0.0419,0.394437 -0.12192,0.377544 -0.19893,0.343532 -0.26573,0.294401 -0.32047,0.2328 -0.36236,0.161751 -0.38749,0.08314 z m -339.556911,0 -0.387995,-0.08314 -0.362438,-0.161751 -0.320879,-0.2328 -0.265469,-0.294401 -0.198356,-0.343532 -0.122636,-0.377544 -0.04144,-0.394437 0.04144,-0.3944 0.122636,-0.377544 0.198356,-0.343533 0.265469,-0.294779 0.320879,-0.232422 0.362438,-0.161751 0.387995,-0.08314 h 0.396681 l 0.387995,0.08314 0.362438,0.161751 0.32088,0.232422 0.265468,0.294779 0.198355,0.343533 0.122637,0.377544 0.04144,0.3944 -0.04144,0.394437 -0.122637,0.377544 -0.198355,0.343532 -0.265468,0.294401 -0.32088,0.2328 -0.362438,0.161751 -0.387995,0.08314 z m -15.0587663,30.2018409 -0.541195,-0.114888 -0.505441,-0.224486 -0.447616,-0.325769 -0.370218,-0.4104239 -0.27664,-0.4792813 -0.170979,-0.526294 -0.05782,-0.550178 0.02627,-0.249429 -0.02627,-0.249429 0.02627,-0.249428 -0.02627,-0.249429 0.05782,-0.550255 0.170979,-0.526218 0.27664,-0.479319 0.370218,-0.410424 0.447616,-0.325769 0.505441,-0.224485 0.541195,-0.114889 h 0.553278 l 0.541194,0.114889 0.5054417,0.224485 0.447616,0.325769 0.370217,0.410424 0.276641,0.479319 0.170979,0.526218 0.05782,0.550255 -0.02627,0.249429 0.02627,0.249428 -0.02627,0.249429 0.02627,0.249429 -0.05782,0.550178 -0.170979,0.526294 -0.276641,0.4792813 -0.370217,0.4104239 -0.447616,0.325769 -0.5054417,0.224486 -0.541194,0.114888 z m 0,11.9828924 -0.541195,-0.114889 -0.505441,-0.224485 -0.447616,-0.325769 -0.370218,-0.410424 -0.27664,-0.479319 -0.170979,-0.526256 -0.05782,-0.550179 0.02627,-0.249429 -0.02627,-0.249429 0.02627,-0.249428 -0.02627,-0.249807 0.05782,-0.5502167 0.170979,-0.526219 0.27664,-0.479319 0.370218,-0.410461 0.447616,-0.325769 0.505441,-0.224486 0.541195,-0.114888 h 0.553278 l 0.541194,0.114888 0.5054417,0.224486 0.447616,0.325769 0.370217,0.410461 0.276641,0.479319 0.170979,0.526219 0.05782,0.5502167 -0.02627,0.249807 0.02627,0.249428 -0.02627,0.249429 0.02627,0.249429 -0.05782,0.550179 -0.170979,0.526256 -0.276641,0.479319 -0.370217,0.410424 -0.447616,0.325769 -0.5054417,0.224485 -0.541194,0.114889 z m 345.6273773,-0.244516 -0.3875,-0.08314 -0.36251,-0.16175 -0.32058,-0.232423 -0.26565,-0.294779 -0.19873,-0.343531 -0.12184,-0.377545 -0.042,-0.394437 0.042,-0.394437 0.12184,-0.377545 0.19873,-0.343531 0.26565,-0.294779 0.32058,-0.2324217 0.36251,-0.161751 0.3875,-0.08314 h 0.39749 l 0.38749,0.08314 0.36251,0.161751 0.32058,0.2324217 0.26566,0.294779 0.19872,0.343531 0.12186,0.377545 0.042,0.394437 -0.042,0.394437 -0.12186,0.377545 -0.19872,0.343531 -0.26566,0.294779 -0.32058,0.232423 -0.36251,0.16175 -0.38749,0.08314 z m -321.58033,0 -0.387996,-0.08314 -0.362438,-0.16175 -0.320992,-0.232423 -0.265355,-0.294779 -0.198356,-0.343531 -0.122636,-0.377545 -0.04144,-0.394437 0.04144,-0.394437 0.122636,-0.377545 0.198356,-0.343531 0.265355,-0.294779 0.320992,-0.2324217 0.362438,-0.161751 0.387996,-0.08314 h 0.396681 l 0.387995,0.08314 0.362438,0.161751 0.32088,0.2324217 0.265468,0.294779 0.198355,0.343531 0.122636,0.377545 0.04144,0.394437 -0.04144,0.394437 -0.122636,0.377545 -0.198355,0.343531 -0.265468,0.294779 -0.32088,0.232423 -0.362438,0.16175 -0.387995,0.08314 z m 344.47251,2.7410697 -0.54131,-0.114888 -0.50535,-0.224486 -0.44741,-0.325769 -0.37066,-0.4103857 -0.27668,-0.479319 -0.17061,-0.526256 -0.0578,-0.550179 0.0264,-0.249429 -0.0264,-0.249429 0.0264,-0.249428 -0.0264,-0.249429 0.0578,-0.550217 0.17061,-0.526219 0.27668,-0.479319 0.37066,-0.410461 0.44741,-0.325769 0.50535,-0.224486 0.54131,-0.1148877 h 0.55325 l 0.54132,0.1148877 0.50534,0.224486 0.4474,0.325769 0.37067,0.410461 0.27667,0.479319 0.17062,0.526219 0.0578,0.550217 -0.0264,0.249429 0.0264,0.249428 -0.0264,0.249429 0.0264,0.249429 -0.0578,0.550179 -0.17062,0.526256 -0.27667,0.479319 -0.37067,0.4103857 -0.4474,0.325769 -0.50534,0.224486 -0.54132,0.114888 z m -13.90388,5.247525 -0.38751,-0.08314 -0.36236,-0.16175 -0.32046,-0.232422 -0.26574,-0.29478 -0.19854,-0.343531 -0.12191,-0.377544 -0.0419,-0.394438 0.0419,-0.394437 0.12191,-0.377544 0.19854,-0.343532 0.26574,-0.294779 0.32046,-0.232422 0.36236,-0.161751 0.38751,-0.08314 h 0.39747 l 0.38749,0.08314 0.36236,0.161751 0.32047,0.232422 0.26573,0.294779 0.19893,0.343532 0.12192,0.377544 0.0419,0.394437 -0.0419,0.394438 -0.12192,0.377544 -0.19893,0.343531 -0.26573,0.29478 -0.32047,0.232422 -0.36236,0.16175 -0.38749,0.08314 z m -339.556911,0 -0.387995,-0.08314 -0.362438,-0.16175 -0.320879,-0.232422 -0.265469,-0.29478 -0.198356,-0.343531 -0.122636,-0.377544 -0.04144,-0.394438 0.04144,-0.394437 0.122636,-0.377544 0.198356,-0.343532 0.265469,-0.294779 0.320879,-0.232422 0.362438,-0.161751 0.387995,-0.08314 h 0.396681 l 0.387995,0.08314 0.362438,0.161751 0.32088,0.232422 0.265468,0.294779 0.198355,0.343532 0.122637,0.377544 0.04144,0.394437 -0.04144,0.394438 -0.122637,0.377544 -0.198355,0.343531 -0.265468,0.29478 -0.32088,0.232422 -0.362438,0.16175 -0.387995,0.08314 z m -15.0587663,28.703927 -0.541195,-0.11489 -0.505441,-0.22449 -0.447616,-0.32539 -0.370218,-0.41046 -0.27664,-0.47932 -0.170979,-0.52622 -0.05782,-0.55022 0.02627,-0.24942 -0.02627,-0.249427 0.02627,-0.24943 -0.02627,-0.24943 0.05782,-0.55018 0.170979,-0.52626 0.27664,-0.47931 0.370218,-0.41039 0.447616,-0.32577 0.505441,-0.22448 0.541195,-0.11489 h 0.553278 l 0.541194,0.11489 0.5054417,0.22448 0.447616,0.32577 0.370217,0.41039 0.276641,0.47931 0.170979,0.52626 0.05782,0.55018 -0.02627,0.24943 0.02627,0.24943 -0.02627,0.249427 0.02627,0.24942 -0.05782,0.55022 -0.170979,0.52622 -0.276641,0.47932 -0.370217,0.41046 -0.447616,0.32539 -0.5054417,0.22449 -0.541194,0.11489 z m 0,29.957192 -0.541195,-0.11489 -0.505441,-0.22449 -0.447616,-0.32539 -0.370218,-0.41042 -0.27664,-0.479317 -0.170979,-0.52622 -0.05782,-0.55021 0.02627,-0.24943 -0.02627,-0.24943 0.02627,-0.24943 -0.02627,-0.24943 0.05782,-0.55018 0.170979,-0.52629 0.27664,-0.47928 0.370218,-0.41043 0.447616,-0.32577 0.505441,-0.22448 0.541195,-0.11489 h 0.553278 l 0.541194,0.11489 0.5054417,0.22448 0.447616,0.32577 0.370217,0.41043 0.276641,0.47928 0.170979,0.52629 0.05782,0.55018 -0.02627,0.24943 0.02627,0.24943 -0.02627,0.24943 0.02627,0.24943 -0.05782,0.55021 -0.170979,0.52622 -0.276641,0.479317 -0.370217,0.41042 -0.447616,0.32539 -0.5054417,0.22449 -0.541194,0.11489 z m 24.0470473,3.25036 -0.387996,-0.0832 -0.362438,-0.16175 -0.320992,-0.23242 -0.265355,-0.29478 -0.198356,-0.34353 -0.122636,-0.37754 -0.04144,-0.39444 0.04144,-0.39444 0.122636,-0.37754 0.198356,-0.34353 0.265355,-0.29441 0.320992,-0.2328 0.362438,-0.16175 0.387996,-0.0831 h 0.396681 l 0.387995,0.0831 0.362438,0.16175 0.32088,0.2328 0.265468,0.29441 0.198355,0.34353 0.122636,0.37754 0.04144,0.39444 -0.04144,0.39444 -0.122636,0.37754 -0.198355,0.34353 -0.265468,0.29478 -0.32088,0.23242 -0.362438,0.16175 -0.387995,0.0832 z m 321.58033,0 -0.3875,-0.0832 -0.36251,-0.16175 -0.32058,-0.23242 -0.26565,-0.29478 -0.19873,-0.34353 -0.12184,-0.37754 -0.042,-0.39444 0.042,-0.39444 0.12184,-0.37754 0.19873,-0.34353 0.26565,-0.29441 0.32058,-0.2328 0.36251,-0.16175 0.3875,-0.0831 h 0.39749 l 0.38749,0.0831 0.36251,0.16175 0.32058,0.2328 0.26566,0.29441 0.19872,0.34353 0.12186,0.37754 0.042,0.39444 -0.042,0.39444 -0.12186,0.37754 -0.19872,0.34353 -0.26566,0.29478 -0.32058,0.23242 -0.36251,0.16175 -0.38749,0.0832 z m 8.08945,4.493567 -0.3875,-0.0831 -0.36237,-0.16175 -0.32046,-0.2328 -0.26573,-0.2944 -0.19854,-0.34353 -0.12192,-0.37754 -0.0419,-0.39444 0.0419,-0.39444 0.12192,-0.37754 0.19854,-0.34353 0.26573,-0.29478 0.32046,-0.23243 0.36237,-0.16175 0.3875,-0.0831 h 0.39751 l 0.38746,0.0831 0.36274,0.16175 0.32046,0.23243 0.26573,0.29478 0.19854,0.34353 0.12193,0.37754 0.0419,0.39444 -0.0419,0.39444 -0.12193,0.37754 -0.19854,0.34353 -0.26573,0.2944 -0.32046,0.2328 -0.36274,0.16175 -0.38746,0.0831 z m -304.702334,1.49785 -0.387991,-0.0831 -0.362438,-0.16175 -0.32088,-0.23242 -0.265468,-0.29478 -0.198355,-0.34353 -0.122636,-0.37755 -0.04144,-0.39443 0.04144,-0.39444 0.122636,-0.37755 0.198355,-0.34353 0.265468,-0.29478 0.32088,-0.23242 0.362438,-0.16175 0.387991,-0.0831 h 0.396685 l 0.387992,0.0831 0.362437,0.16175 0.32088,0.23242 0.265468,0.29478 0.198356,0.34353 0.122636,0.37755 0.04144,0.39444 -0.04144,0.39443 -0.122636,0.37755 -0.198356,0.34353 -0.265468,0.29478 -0.32088,0.23242 -0.362437,0.16175 -0.387992,0.0831 z m 271.645434,0 -0.38749,-0.0831 -0.36252,-0.16175 -0.32057,-0.23242 -0.26566,-0.29478 -0.19873,-0.34353 -0.12184,-0.37755 -0.042,-0.39443 0.042,-0.39444 0.12184,-0.37755 0.19873,-0.34353 0.26566,-0.29478 0.32057,-0.23242 0.36252,-0.16175 0.38749,-0.0831 h 0.39749 l 0.38749,0.0831 0.36251,0.16175 0.32058,0.23242 0.26566,0.29478 0.19873,0.34353 0.12185,0.37755 0.042,0.39444 -0.042,0.39443 -0.12185,0.37755 -0.19873,0.34353 -0.26566,0.29478 -0.32058,0.23242 -0.36251,0.16175 -0.38749,0.0831 z m -91.78034,8.487824 -0.38749,-0.0831 -0.36251,-0.16175 -0.32058,-0.23242 -0.26566,-0.29478 -0.19874,-0.34353 -0.12184,-0.37755 -0.042,-0.39443 0.042,-0.39444 0.12184,-0.37755 0.19874,-0.34353 0.26566,-0.294397 0.32058,-0.23242 0.36251,-0.16175 0.38749,-0.0831 h 0.39748 l 0.3875,0.0831 0.36252,0.16175 0.32057,0.23242 0.26566,0.294397 0.19873,0.34353 0.12184,0.37755 0.042,0.39444 -0.042,0.39443 -0.12184,0.37755 -0.19873,0.34353 -0.26566,0.29478 -0.32057,0.23242 -0.36252,0.16175 -0.3875,0.0831 z m 89.88282,0 -0.3875,-0.0831 -0.36252,-0.16175 -0.32057,-0.23242 -0.26566,-0.29478 -0.19873,-0.34353 -0.12184,-0.37755 -0.042,-0.39443 0.042,-0.39444 0.12184,-0.37755 0.19873,-0.34353 0.26566,-0.294397 0.32057,-0.23242 0.36252,-0.16175 0.3875,-0.0831 h 0.39748 l 0.38749,0.0831 0.36251,0.16175 0.32058,0.23242 0.26566,0.294397 0.19874,0.34353 0.12184,0.37755 0.042,0.39444 -0.042,0.39443 -0.12184,0.37755 -0.19874,0.34353 -0.26566,0.29478 -0.32058,0.23242 -0.36251,0.16175 -0.38749,0.0831 z M 6.7140727,112.6486 l -0.541195,-0.11451 -0.505441,-0.22448 -0.447616,-0.32577 -0.370218,-0.41039 -0.27664,-0.47932 -0.170979,-0.52625 -0.05782,-0.55022 0.02627,-0.24943 -0.02627,-0.24943 0.02627,-0.24943 -0.02627,-0.24943 0.05782,-0.55021 0.170979,-0.52626 0.27664,-0.47932 0.370218,-0.41042 0.447616,-0.32577 0.505441,-0.22449 0.541195,-0.11489 h 0.553278 l 0.541194,0.11489 0.5054417,0.22449 0.447616,0.32577 0.370217,0.41042 0.276641,0.47932 0.170979,0.52626 0.05782,0.55021 -0.02627,0.24943 0.02627,0.24943 -0.02627,0.24943 0.02627,0.24943 -0.05782,0.55022 -0.170979,0.52625 -0.276641,0.47932 -0.370217,0.41039 -0.447616,0.32577 -0.5054417,0.22448 -0.541194,0.11451 z M 228.70164,196.89321 V 107.0216 h 105.86199 v 89.87161 z m 146.53199,-78.75245 -0.54131,-0.11489 -0.50535,-0.22449 -0.44741,-0.32577 -0.37066,-0.41042 -0.27668,-0.47932 -0.17061,-0.52622 -0.0578,-0.55025 0.0264,-0.24943 -0.0264,-0.24943 0.0264,-0.24943 -0.0264,-0.24943 0.0578,-0.55018 0.17061,-0.52629 0.27668,-0.47928 0.37066,-0.41043 0.44741,-0.32576 0.50535,-0.22449 0.54131,-0.11489 h 0.55325 l 0.54132,0.11489 0.50534,0.22449 0.4474,0.32576 0.37067,0.41043 0.27667,0.47928 0.17062,0.52629 0.0578,0.55018 -0.0264,0.24943 0.0264,0.24943 -0.0264,0.24943 0.0264,0.24943 -0.0578,0.55025 -0.17062,0.52622 -0.27667,0.47932 -0.37067,0.41042 -0.4474,0.32577 -0.50534,0.22449 -0.54132,0.11489 z m -368.5195573,10.48499 -0.541195,-0.11488 -0.505441,-0.22449 -0.447616,-0.32577 -0.370218,-0.41038 -0.27664,-0.47932 -0.170979,-0.52626 -0.05782,-0.55018 0.02627,-0.24943 -0.02627,-0.24943 0.02627,-0.24942 -0.02627,-0.24943 0.05782,-0.55022 0.170979,-0.52622 0.27664,-0.47932 0.370218,-0.41046 0.447616,-0.32577 0.505441,-0.22448 0.541195,-0.11489 h 0.553278 l 0.541194,0.11489 0.5054417,0.22448 0.447616,0.32577 0.370217,0.41046 0.276641,0.47932 0.170979,0.52622 0.05782,0.55022 -0.02627,0.24943 0.02627,0.24942 -0.02627,0.24943 0.02627,0.24943 -0.05782,0.55018 -0.170979,0.52626 -0.276641,0.47932 -0.370217,0.41038 -0.447616,0.32577 -0.5054417,0.22449 -0.541194,0.11488 z m 174.7980973,0.75094 -0.49036,-0.10393 -0.4574,-0.20446 -0.40547,-0.29364 -0.33556,-0.37264 -0.25067,-0.43438 -0.15481,-0.47633 -0.052,-0.49829 0.052,-0.49826 0.15481,-0.47633 0.25067,-0.43438 0.33556,-0.37263 0.40547,-0.29365 0.4574,-0.20446 0.49036,-0.10392 h 0.50135 l 0.49036,0.10392 0.4574,0.20446 0.40548,0.29365 0.33555,0.37263 0.25067,0.43438 0.15481,0.47633 0.052,0.49826 -0.052,0.49829 -0.15481,0.47633 -0.25067,0.43438 -0.33555,0.37264 -0.40548,0.29364 -0.4574,0.20446 -0.49036,0.10393 z m -99.817856,-0.49629 -0.38749,-0.0831 -0.36252,-0.16176 -0.32057,-0.23242 -0.26566,-0.29478 -0.19873,-0.34353 -0.12185,-0.37754 -0.0419,-0.39444 0.0419,-0.39444 0.12185,-0.37754 0.19873,-0.34353 0.26566,-0.29478 0.32057,-0.23242 0.36252,-0.16175 0.38749,-0.0831 h 0.397477 l 0.3875,0.0831 0.36251,0.16175 0.32058,0.23242 0.26566,0.29478 0.19873,0.34353 0.12185,0.37754 0.0419,0.39444 -0.0419,0.39444 -0.12185,0.37754 -0.19873,0.34353 -0.26566,0.29478 -0.32058,0.23242 -0.36251,0.16176 -0.3875,0.0831 z m -24.967047,0 -0.387995,-0.0831 -0.362439,-0.16176 -0.320879,-0.23242 -0.265468,-0.29478 -0.198355,-0.34353 -0.122637,-0.37754 -0.04144,-0.39444 0.04144,-0.39444 0.122637,-0.37754 0.198355,-0.34353 0.265468,-0.29478 0.320879,-0.23242 0.362439,-0.16175 0.387995,-0.0831 h 0.396681 l 0.387996,0.0831 0.362437,0.16175 0.320879,0.23242 0.265468,0.29478 0.198356,0.34353 0.122637,0.37754 0.04144,0.39444 -0.04144,0.39444 -0.122637,0.37754 -0.198356,0.34353 -0.265468,0.29478 -0.320879,0.23242 -0.362437,0.16176 -0.387996,0.0831 z m 149.804293,0 -0.3875,-0.0831 -0.36252,-0.16176 -0.32058,-0.23242 -0.26565,-0.29478 -0.19873,-0.34353 -0.12185,-0.37754 -0.042,-0.39444 0.042,-0.39444 0.12185,-0.37754 0.19873,-0.34353 0.26565,-0.29478 0.32058,-0.23242 0.36252,-0.16175 0.3875,-0.0831 h 0.39747 l 0.3875,0.0831 0.36251,0.16175 0.32058,0.23242 0.26566,0.29478 0.19873,0.34353 0.12185,0.37754 0.042,0.39444 -0.042,0.39444 -0.12185,0.37754 -0.19873,0.34353 -0.26566,0.29478 -0.32058,0.23242 -0.36251,0.16176 -0.3875,0.0831 z m -74.90235,0 -0.3875,-0.0831 -0.36251,-0.16176 -0.32057,-0.23242 -0.26567,-0.29478 -0.19873,-0.34353 -0.12184,-0.37754 -0.042,-0.39444 0.042,-0.39444 0.12184,-0.37754 0.19873,-0.34353 0.26567,-0.29478 0.32057,-0.23242 0.36251,-0.16175 0.3875,-0.0831 h 0.39748 l 0.38749,0.0831 0.36252,0.16175 0.32058,0.23242 0.26565,0.29478 0.19874,0.34353 0.12184,0.37754 0.042,0.39444 -0.042,0.39444 -0.12184,0.37754 -0.19874,0.34353 -0.26565,0.29478 -0.32058,0.23242 -0.36252,0.16176 -0.38749,0.0831 z m -24.96745,0 -0.3875,-0.0831 -0.36251,-0.16176 -0.32057,-0.23242 -0.26566,-0.29478 -0.19874,-0.34353 -0.12184,-0.37754 -0.042,-0.39444 0.042,-0.39444 0.12184,-0.37754 0.19874,-0.34353 0.26566,-0.29478 0.32057,-0.23242 0.36251,-0.16175 0.3875,-0.0831 h 0.39749 l 0.38748,0.0831 0.36252,0.16175 0.32058,0.23242 0.26565,0.29478 0.19874,0.34353 0.12184,0.37754 0.042,0.39444 -0.042,0.39444 -0.12184,0.37754 -0.19874,0.34353 -0.26565,0.29478 -0.32058,0.23242 -0.36252,0.16176 -0.38748,0.0831 z m 244.68099,0 -0.38749,-0.0831 -0.36252,-0.16176 -0.32057,-0.23242 -0.26566,-0.29478 -0.19873,-0.34353 -0.12184,-0.37754 -0.042,-0.39444 0.042,-0.39444 0.12184,-0.37754 0.19873,-0.34353 0.26566,-0.29478 0.32057,-0.23242 0.36252,-0.16175 0.38749,-0.0831 h 0.39749 l 0.38749,0.0831 0.36251,0.16175 0.32058,0.23242 0.26566,0.29478 0.19874,0.34353 0.12184,0.37754 0.042,0.39444 -0.042,0.39444 -0.12184,0.37754 -0.19874,0.34353 -0.26566,0.29478 -0.32058,0.23242 -0.36251,0.16176 -0.38749,0.0831 z m -194.74609,0 -0.3875,-0.0831 -0.36251,-0.16176 -0.32058,-0.23242 -0.26566,-0.29478 -0.19873,-0.34353 -0.12184,-0.37754 -0.042,-0.39444 0.042,-0.39444 0.12184,-0.37754 0.19873,-0.34353 0.26566,-0.29478 0.32058,-0.23242 0.36251,-0.16175 0.3875,-0.0831 h 0.39748 l 0.38749,0.0831 0.36252,0.16175 0.32058,0.23242 0.26565,0.29478 0.19873,0.34353 0.12185,0.37754 0.042,0.39444 -0.042,0.39444 -0.12185,0.37754 -0.19873,0.34353 -0.26565,0.29478 -0.32058,0.23242 -0.36252,0.16176 -0.38749,0.0831 z m -124.836843,0 -0.387993,-0.0831 -0.362438,-0.16176 -0.320878,-0.23242 -0.265468,-0.29478 -0.198356,-0.34353 -0.122637,-0.37754 -0.04144,-0.39444 0.04144,-0.39444 0.122637,-0.37754 0.198356,-0.34353 0.265468,-0.29478 0.320878,-0.23242 0.362438,-0.16175 0.387993,-0.0831 h 0.396684 l 0.387992,0.0831 0.362438,0.16175 0.320878,0.23242 0.265468,0.29478 0.198356,0.34353 0.122637,0.37754 0.04144,0.39444 -0.04144,0.39444 -0.122637,0.37754 -0.198356,0.34353 -0.265468,0.29478 -0.320878,0.23242 -0.362438,0.16176 -0.387992,0.0831 z m 343.473813,5.23751 -0.54131,-0.11489 -0.50535,-0.22449 -0.44741,-0.32576 -0.37066,-0.41043 -0.27668,-0.47932 -0.17061,-0.52625 -0.0578,-0.55018 0.0264,-0.24943 -0.0264,-0.24943 0.0264,-0.24943 -0.0264,-0.24943 0.0578,-0.55021 0.17061,-0.52622 0.27668,-0.47932 0.37066,-0.41046 0.44741,-0.32539 0.50535,-0.22449 0.54131,-0.11489 h 0.55325 l 0.54132,0.11489 0.50534,0.22449 0.4474,0.32539 0.37067,0.41046 0.27667,0.47932 0.17062,0.52622 0.0578,0.55021 -0.0264,0.24943 0.0264,0.24943 -0.0264,0.24943 0.0264,0.24943 -0.0578,0.55018 -0.17062,0.52625 -0.27667,0.47932 -0.37067,0.41043 -0.4474,0.32576 -0.50534,0.22449 -0.54132,0.11489 z m -30.88176,38.69972 -0.3875,-0.0831 -0.36251,-0.16175 -0.32058,-0.23242 -0.26565,-0.29478 -0.19874,-0.34353 -0.12184,-0.37755 -0.042,-0.39443 0.042,-0.39444 0.12184,-0.37755 0.19874,-0.34353 0.26565,-0.29478 0.32058,-0.23242 0.36251,-0.16175 0.3875,-0.0831 h 0.39748 l 0.3875,0.0831 0.36251,0.16175 0.32057,0.23242 0.26567,0.29478 0.19872,0.34353 0.12185,0.37755 0.042,0.39444 -0.042,0.39443 -0.12185,0.37755 -0.19872,0.34353 -0.26567,0.29478 -0.32057,0.23242 -0.36251,0.16175 -0.3875,0.0831 z m -162.8397,6.48772 -0.49036,-0.10393 -0.4574,-0.20446 -0.40547,-0.29364 -0.33556,-0.37263 -0.25067,-0.43439 -0.15481,-0.47629 -0.052,-0.49833 0.052,-0.49829 0.15481,-0.4763 0.25067,-0.43438 0.33556,-0.37263 0.40547,-0.29365 0.4574,-0.20445 0.49036,-0.10393 h 0.50135 l 0.49036,0.10393 0.4574,0.20445 0.40548,0.29365 0.33555,0.37263 0.25067,0.43438 0.15481,0.4763 0.052,0.49829 -0.052,0.49833 -0.15481,0.47629 -0.25067,0.43439 -0.33555,0.37263 -0.40548,0.29364 -0.4574,0.20446 -0.49036,0.10393 z m -74.85041,-0.49629 -0.3875,-0.0831 -0.36251,-0.16175 -0.32057,-0.23242 -0.26566,-0.29478 -0.19874,-0.34353 -0.12184,-0.37755 -0.042,-0.39444 0.042,-0.39443 0.12184,-0.37755 0.19874,-0.34353 0.26566,-0.29478 0.32057,-0.23242 0.36251,-0.16175 0.3875,-0.0831 h 0.39749 l 0.38748,0.0831 0.36252,0.16175 0.32058,0.23242 0.26565,0.29478 0.19874,0.34353 0.12184,0.37755 0.042,0.39443 -0.042,0.39444 -0.12184,0.37755 -0.19874,0.34353 -0.26565,0.29478 -0.32058,0.23242 -0.36252,0.16175 -0.38748,0.0831 z m -24.967446,0 -0.38749,-0.0831 -0.36252,-0.16175 -0.32057,-0.23242 -0.26566,-0.29478 -0.19873,-0.34353 -0.12185,-0.37755 -0.0419,-0.39444 0.0419,-0.39443 0.12185,-0.37755 0.19873,-0.34353 0.26566,-0.29478 0.32057,-0.23242 0.36252,-0.16175 0.38749,-0.0831 h 0.397477 l 0.3875,0.0831 0.36251,0.16175 0.32058,0.23242 0.26566,0.29478 0.19873,0.34353 0.12185,0.37755 0.0419,0.39443 -0.0419,0.39444 -0.12185,0.37755 -0.19873,0.34353 -0.26566,0.29478 -0.32058,0.23242 -0.36251,0.16175 -0.3875,0.0831 z m 124.837246,0 -0.3875,-0.0831 -0.36252,-0.16175 -0.32058,-0.23242 -0.26565,-0.29478 -0.19873,-0.34353 -0.12185,-0.37755 -0.042,-0.39444 0.042,-0.39443 0.12185,-0.37755 0.19873,-0.34353 0.26565,-0.29478 0.32058,-0.23242 0.36252,-0.16175 0.3875,-0.0831 h 0.39747 l 0.3875,0.0831 0.36251,0.16175 0.32058,0.23242 0.26566,0.29478 0.19873,0.34353 0.12185,0.37755 0.042,0.39443 -0.042,0.39444 -0.12185,0.37755 -0.19873,0.34353 -0.26566,0.29478 -0.32058,0.23242 -0.36251,0.16175 -0.3875,0.0831 z m -174.771743,0 -0.387993,-0.0831 -0.362438,-0.16175 -0.320878,-0.23242 -0.265468,-0.29478 -0.198356,-0.34353 -0.122637,-0.37755 -0.04144,-0.39444 0.04144,-0.39443 0.122637,-0.37755 0.198356,-0.34353 0.265468,-0.29478 0.320878,-0.23242 0.362438,-0.16175 0.387993,-0.0831 h 0.396684 l 0.387992,0.0831 0.362438,0.16175 0.320878,0.23242 0.265468,0.29478 0.198356,0.34353 0.122637,0.37755 0.04144,0.39443 -0.04144,0.39444 -0.122637,0.37755 -0.198356,0.34353 -0.265468,0.29478 -0.320878,0.23242 -0.362438,0.16175 -0.387992,0.0831 z m 24.96745,0 -0.387995,-0.0831 -0.362439,-0.16175 -0.320879,-0.23242 -0.265468,-0.29478 -0.198355,-0.34353 -0.122637,-0.37755 -0.04144,-0.39444 0.04144,-0.39443 0.122637,-0.37755 0.198355,-0.34353 0.265468,-0.29478 0.320879,-0.23242 0.362439,-0.16175 0.387995,-0.0831 h 0.396681 l 0.387996,0.0831 0.362437,0.16175 0.320879,0.23242 0.265468,0.29478 0.198356,0.34353 0.122637,0.37755 0.04144,0.39443 -0.04144,0.39444 -0.122637,0.37755 -0.198356,0.34353 -0.265468,0.29478 -0.320879,0.23242 -0.362437,0.16175 -0.387996,0.0831 z m 99.869393,0 -0.3875,-0.0831 -0.36251,-0.16175 -0.32058,-0.23242 -0.26566,-0.29478 -0.19873,-0.34353 -0.12184,-0.37755 -0.042,-0.39444 0.042,-0.39443 0.12184,-0.37755 0.19873,-0.34353 0.26566,-0.29478 0.32058,-0.23242 0.36251,-0.16175 0.3875,-0.0831 h 0.39748 l 0.38749,0.0831 0.36252,0.16175 0.32058,0.23242 0.26565,0.29478 0.19873,0.34353 0.12185,0.37755 0.042,0.39443 -0.042,0.39444 -0.12185,0.37755 -0.19873,0.34353 -0.26565,0.29478 -0.32058,0.23242 -0.36252,0.16175 -0.38749,0.0831 z m -149.8042903,0 -0.387994,-0.0831 -0.362426,-0.16175 -0.320883,-0.23242 -0.265453,-0.29478 -0.198341,-0.34353 -0.12264,-0.37755 -0.04144,-0.39444 0.04144,-0.39443 0.12264,-0.37755 0.198341,-0.34353 0.265453,-0.29478 0.320883,-0.23242 0.362426,-0.16175 0.387994,-0.0831 h 0.396683 l 0.387994,0.0831 0.3624267,0.16175 0.320883,0.23242 0.265453,0.29478 0.19834,0.34353 0.122641,0.37755 0.04144,0.39443 -0.04144,0.39444 -0.122641,0.37755 -0.19834,0.34353 -0.265453,0.29478 -0.320883,0.23242 -0.3624267,0.16175 -0.387994,0.0831 z m 124.8368403,0 -0.3875,-0.0831 -0.36251,-0.16175 -0.32057,-0.23242 -0.26567,-0.29478 -0.19873,-0.34353 -0.12184,-0.37755 -0.042,-0.39444 0.042,-0.39443 0.12184,-0.37755 0.19873,-0.34353 0.26567,-0.29478 0.32057,-0.23242 0.36251,-0.16175 0.3875,-0.0831 h 0.39748 l 0.38749,0.0831 0.36252,0.16175 0.32058,0.23242 0.26565,0.29478 0.19874,0.34353 0.12184,0.37755 0.042,0.39443 -0.042,0.39444 -0.12184,0.37755 -0.19874,0.34353 -0.26565,0.29478 -0.32058,0.23242 -0.36252,0.16175 -0.38749,0.0831 z m 212.72266,6.99001 -0.3875,-0.0831 -0.36251,-0.16175 -0.32058,-0.23242 -0.26565,-0.29478 -0.19874,-0.34353 -0.12184,-0.37755 -0.042,-0.39443 0.042,-0.39444 0.12184,-0.37755 0.19874,-0.34353 0.26565,-0.2944 0.32058,-0.23242 0.36251,-0.16213 0.3875,-0.0831 h 0.39748 l 0.3875,0.0831 0.36251,0.16213 0.32057,0.23242 0.26567,0.2944 0.19872,0.34353 0.12185,0.37755 0.042,0.39444 -0.042,0.39443 -0.12185,0.37755 -0.19872,0.34353 -0.26567,0.29478 -0.32057,0.23242 -0.36251,0.16175 -0.3875,0.0831 z m -229.64759,0.50128 -0.28665,-0.0609 -0.26664,-0.11904 -0.2367,-0.17158 -0.19576,-0.21655 -0.1458,-0.25358 -0.0898,-0.27778 -0.031,-0.29062 0.031,-0.29062 0.0898,-0.27777 0.1458,-0.25359 0.19576,-0.21655 0.2367,-0.17158 0.26664,-0.11904 0.28665,-0.0609 h 0.29163 l 0.28663,0.0609 0.26664,0.11904 0.23671,0.17158 0.19575,0.21655 0.14581,0.25359 0.0898,0.27777 0.031,0.29062 -0.031,0.29062 -0.0898,0.27778 -0.14581,0.25358 -0.19575,0.21655 -0.23671,0.17158 -0.26664,0.11904 -0.28663,0.0609 z m -66.913065,0 -0.285926,-0.0609 -0.267054,-0.11904 -0.236479,-0.17158 -0.195525,-0.21655 -0.146228,-0.25358 -0.09028,-0.27778 -0.03057,-0.29062 0.03057,-0.29062 0.09028,-0.27777 0.146228,-0.25359 0.195525,-0.21655 0.236479,-0.17158 0.267054,-0.11904 0.285926,-0.0609 h 0.29223 l 0.285927,0.0609 0.267053,0.11904 0.236479,0.17158 0.195562,0.21655 0.146191,0.25359 0.09029,0.27777 0.03057,0.29062 -0.03057,0.29062 -0.09029,0.27778 -0.146191,0.25358 -0.195562,0.21655 -0.236479,0.17158 -0.267053,0.11904 -0.285927,0.0609 z m 91.880505,5.99143 -0.2866,-0.0609 -0.26664,-0.11904 -0.23671,-0.17158 -0.19575,-0.21655 -0.14582,-0.25359 -0.0898,-0.27777 -0.031,-0.29062 0.031,-0.29062 0.0898,-0.27778 0.14582,-0.25358 0.19575,-0.21655 0.23671,-0.17158 0.26664,-0.11904 0.2866,-0.0609 h 0.29162 l 0.28665,0.0609 0.26664,0.11904 0.2367,0.17158 0.19576,0.21655 0.14581,0.25358 0.0898,0.27778 0.031,0.29062 -0.031,0.29062 -0.0898,0.27777 -0.14581,0.25359 -0.19576,0.21655 -0.2367,0.17158 -0.26664,0.11904 -0.28665,0.0609 z m -116.847951,0 -0.285927,-0.0609 -0.267053,-0.11904 -0.23648,-0.17158 -0.195562,-0.21655 -0.146228,-0.25359 -0.09028,-0.27777 -0.03057,-0.29062 0.03057,-0.29062 0.09028,-0.27778 0.146228,-0.25358 0.195562,-0.21655 0.23648,-0.17158 0.267053,-0.11904 0.285927,-0.0609 h 0.29223 l 0.285926,0.0609 0.267054,0.11904 0.236478,0.17158 0.195563,0.21655 0.14619,0.25358 0.09029,0.27778 0.03057,0.29062 -0.03057,0.29062 -0.09029,0.27777 -0.14619,0.25359 -0.195563,0.21655 -0.236478,0.17158 -0.267054,0.11904 -0.285926,0.0609 z m 353.486461,1.49589 -0.38751,-0.0831 -0.36236,-0.16176 -0.32046,-0.23242 -0.26574,-0.29478 -0.19854,-0.34353 -0.12191,-0.37754 -0.0419,-0.39444 0.0419,-0.39444 0.12191,-0.37754 0.19854,-0.34353 0.26574,-0.29478 0.32046,-0.23242 0.36236,-0.16175 0.38751,-0.0831 h 0.39747 l 0.38749,0.0831 0.36236,0.16175 0.32047,0.23242 0.26573,0.29478 0.19892,0.34353 0.12193,0.37754 0.0419,0.39444 -0.0419,0.39444 -0.12193,0.37754 -0.19892,0.34353 -0.26573,0.29478 -0.32047,0.23242 -0.36236,0.16176 -0.38749,0.0831 z m -170.77737,3.9943 -0.3875,-0.0831 -0.36251,-0.16175 -0.32058,-0.2328 -0.26566,-0.2944 -0.19873,-0.34353 -0.12184,-0.37754 -0.042,-0.39444 0.042,-0.39444 0.12184,-0.37754 0.19873,-0.34353 0.26566,-0.29441 0.32058,-0.2328 0.36251,-0.16175 0.3875,-0.0831 h 0.39748 l 0.38749,0.0831 0.36251,0.16175 0.32058,0.2328 0.26566,0.29441 0.19873,0.34353 0.12185,0.37754 0.042,0.39444 -0.042,0.39444 -0.12185,0.37754 -0.19873,0.34353 -0.26566,0.2944 -0.32058,0.2328 -0.36251,0.16175 -0.38749,0.0831 z m -73.90365,50.92683 -0.3875,-0.0828 -0.36251,-0.16137 -0.32057,-0.2328 -0.26567,-0.29478 -0.19873,-0.34353 -0.12184,-0.37754 -0.042,-0.39444 0.042,-0.39444 0.034,-0.10506 -0.034,-0.10506 -0.042,-0.39444 0.042,-0.39448 0.034,-0.10506 -0.034,-0.10506 -0.042,-0.39444 0.042,-0.39444 0.034,-0.10506 -0.034,-0.10506 -0.042,-0.3944 0.042,-0.39444 0.034,-0.10506 -0.034,-0.10506 -0.042,-0.39444 0.042,-0.39444 0.034,-0.10506 -0.034,-0.10506 -0.042,-0.39444 0.042,-0.39444 0.034,-0.10506 -0.034,-0.10506 -0.042,-0.39444 0.042,-0.39444 0.034,-0.10506 -0.034,-0.10506 -0.042,-0.39444 0.042,-0.39444 0.034,-0.10506 -0.034,-0.10506 -0.042,-0.39444 0.042,-0.39447 0.034,-0.10507 -0.034,-0.10506 -0.042,-0.39444 0.042,-0.39443 0.034,-0.10507 -0.034,-0.10506 -0.042,-0.39444 0.042,-0.39443 0.034,-0.10507 -0.034,-0.10506 -0.042,-0.39444 0.042,-0.3944 0.034,-0.10506 -0.034,-0.10506 -0.042,-0.39444 0.042,-0.39443 0.034,-0.10507 -0.034,-0.10506 -0.042,-0.39444 0.042,-0.39443 0.034,-0.10507 -0.034,-0.10506 -0.042,-0.39444 0.042,-0.39443 0.034,-0.10507 -0.034,-0.10506 -0.042,-0.39444 0.042,-0.39447 0.034,-0.10506 -0.034,-0.10507 -0.042,-0.3944 0.042,-0.39443 0.034,-0.10507 -0.034,-0.10506 -0.042,-0.39444 0.042,-0.39443 0.034,-0.10506 -0.034,-0.10507 -0.042,-0.39443 0.042,-0.39444 0.034,-0.10506 -0.034,-0.10507 -0.042,-0.39443 0.042,-0.39444 0.034,-0.10506 -0.034,-0.10507 -0.042,-0.39443 0.042,-0.39444 0.034,-0.10506 -0.034,-0.10507 -0.042,-0.39443 0.042,-0.39444 0.034,-0.10506 -0.034,-0.10507 -0.042,-0.39443 0.042,-0.39444 0.034,-0.10506 -0.034,-0.10507 -0.042,-0.39443 0.042,-0.39444 0.034,-0.10506 -0.034,-0.10506 -0.042,-0.39444 0.042,-0.3944 0.034,-0.10506 -0.034,-0.10507 -0.042,-0.39443 0.042,-0.39444 0.034,-0.10506 -0.034,-0.10507 -0.042,-0.39443 0.042,-0.39444 0.034,-0.10506 -0.034,-0.10507 -0.042,-0.39443 0.042,-0.39444 0.034,-0.10506 -0.034,-0.10507 -0.042,-0.39443 0.042,-0.39448 0.034,-0.10506 -0.034,-0.10506 -0.042,-0.3944 0.042,-0.39444 0.034,-0.10506 -0.034,-0.10506 -0.042,-0.39444 0.042,-0.39444 0.034,-0.10506 -0.034,-0.10506 -0.042,-0.39444 0.042,-0.39444 0.034,-0.10506 -0.034,-0.10506 -0.042,-0.39444 0.042,-0.39444 0.034,-0.10506 -0.034,-0.10506 -0.042,-0.39444 0.042,-0.39444 0.034,-0.10506 -0.034,-0.10506 -0.042,-0.39444 0.042,-0.39444 0.034,-0.10506 -0.034,-0.10506 -0.042,-0.39444 0.042,-0.39444 0.034,-0.10506 -0.034,-0.10506 -0.042,-0.39444 0.042,-0.39444 0.034,-0.10506 -0.034,-0.10506 -0.042,-0.39444 0.042,-0.3944 0.034,-0.10506 -0.034,-0.10506 -0.042,-0.39444 0.042,-0.39444 0.034,-0.10506 -0.034,-0.10506 -0.042,-0.39444 0.042,-0.39444 0.034,-0.10506 -0.034,-0.10506 -0.042,-0.39444 0.042,-0.39444 0.12184,-0.37754 0.19873,-0.34353 0.26567,-0.29478 0.32057,-0.23242 0.36251,-0.16175 0.3875,-0.0831 h 0.39748 l 0.38749,0.0831 0.36252,0.16175 0.32058,0.23242 0.26565,0.29478 0.19874,0.34353 0.12184,0.37754 0.042,0.39444 -0.042,0.39444 -0.034,0.10506 0.034,0.10506 0.042,0.39444 -0.042,0.39444 -0.034,0.10506 0.034,0.10506 0.042,0.39444 -0.042,0.39444 -0.034,0.10506 0.034,0.10506 0.042,0.3944 -0.042,0.39444 -0.034,0.10506 0.034,0.10506 0.042,0.39444 -0.042,0.39444 -0.034,0.10506 0.034,0.10506 0.042,0.39444 -0.042,0.39444 -0.034,0.10506 0.034,0.10506 0.042,0.39444 -0.042,0.39444 -0.034,0.10506 0.034,0.10506 0.042,0.39444 -0.042,0.39444 -0.034,0.10506 0.034,0.10506 0.042,0.39444 -0.042,0.39444 -0.034,0.10506 0.034,0.10506 0.042,0.39444 -0.042,0.39444 -0.034,0.10506 0.034,0.10506 0.042,0.39444 -0.042,0.39444 -0.034,0.10506 0.034,0.10506 0.042,0.39444 -0.042,0.3944 -0.034,0.10506 0.034,0.10506 0.042,0.39448 -0.042,0.39443 -0.034,0.10507 0.034,0.10506 0.042,0.39444 -0.042,0.39443 -0.034,0.10507 0.034,0.10506 0.042,0.39444 -0.042,0.39443 -0.034,0.10507 0.034,0.10506 0.042,0.39444 -0.042,0.39443 -0.034,0.10507 0.034,0.10506 0.042,0.3944 -0.042,0.39444 -0.034,0.10506 0.034,0.10506 0.042,0.39444 -0.042,0.39443 -0.034,0.10507 0.034,0.10506 0.042,0.39444 -0.042,0.39443 -0.034,0.10507 0.034,0.10506 0.042,0.39444 -0.042,0.39443 -0.034,0.10507 0.034,0.10506 0.042,0.39444 -0.042,0.39443 -0.034,0.10507 0.034,0.10506 0.042,0.39444 -0.042,0.39443 -0.034,0.10507 0.034,0.10506 0.042,0.39444 -0.042,0.39443 -0.034,0.10507 0.034,0.10506 0.042,0.39443 -0.042,0.39444 -0.034,0.10506 0.034,0.10507 0.042,0.39443 -0.042,0.3944 -0.034,0.10507 0.034,0.10506 0.042,0.39447 -0.042,0.39444 -0.034,0.10506 0.034,0.10507 0.042,0.39443 -0.042,0.39444 -0.034,0.10506 0.034,0.10507 0.042,0.39443 -0.042,0.39444 -0.034,0.10506 0.034,0.10507 0.042,0.39443 -0.042,0.39444 -0.034,0.10506 0.034,0.10506 0.042,0.3944 -0.042,0.39444 -0.034,0.10506 0.034,0.10507 0.042,0.39443 -0.042,0.39444 -0.034,0.10506 0.034,0.10507 0.042,0.39443 -0.042,0.39444 -0.034,0.10506 0.034,0.10507 0.042,0.39447 -0.042,0.39444 -0.034,0.10506 0.034,0.10506 0.042,0.39444 -0.042,0.39444 -0.034,0.10506 0.034,0.10506 0.042,0.39444 -0.042,0.39444 -0.034,0.10506 0.034,0.10506 0.042,0.39444 -0.042,0.39444 -0.034,0.10506 0.034,0.10506 0.042,0.39444 -0.042,0.39444 -0.034,0.10506 0.034,0.10506 0.042,0.39444 -0.042,0.3944 -0.034,0.10506 0.034,0.10506 0.042,0.39444 -0.042,0.39444 -0.034,0.10506 0.034,0.10506 0.042,0.39448 -0.042,0.39444 -0.034,0.10506 0.034,0.10506 0.042,0.39444 -0.042,0.39444 -0.12184,0.37754 -0.19874,0.34353 -0.26565,0.29478 -0.32058,0.2328 -0.36252,0.16137 -0.38749,0.0828 z m -99.869393,-2.99572 -0.387993,-0.0828 -0.362438,-0.16137 -0.320878,-0.2328 -0.265468,-0.29478 -0.198356,-0.34353 -0.122637,-0.37755 -0.04144,-0.3944 0.04144,-0.39444 0.03397,-0.10506 -0.03397,-0.10506 -0.04144,-0.39444 0.04144,-0.39444 0.03397,-0.10506 -0.03397,-0.10506 -0.04144,-0.39444 0.04144,-0.39443 0.03397,-0.10507 -0.03397,-0.10506 -0.04144,-0.39444 0.04144,-0.39443 0.03397,-0.10507 -0.03397,-0.10506 -0.04144,-0.39444 0.04144,-0.39443 0.03397,-0.10507 -0.03397,-0.10506 -0.04144,-0.39447 0.04144,-0.39444 0.03397,-0.10506 -0.03397,-0.10507 -0.04144,-0.39443 0.04144,-0.39444 0.03397,-0.10506 -0.03397,-0.10507 -0.04144,-0.39443 0.04144,-0.39444 0.03397,-0.10506 -0.03397,-0.10507 -0.04144,-0.39443 0.04144,-0.39444 0.03397,-0.10506 -0.03397,-0.10506 -0.04144,-0.39444 0.04144,-0.39444 0.03397,-0.10506 -0.03397,-0.10506 -0.04144,-0.39444 0.04144,-0.39444 0.03397,-0.10506 -0.03397,-0.10506 -0.04144,-0.39444 0.04144,-0.39444 0.03397,-0.10506 -0.03397,-0.10506 -0.04144,-0.39448 0.04144,-0.39444 0.03397,-0.10506 -0.03397,-0.10506 -0.04144,-0.3944 0.04144,-0.39444 0.03397,-0.10506 -0.03397,-0.10506 -0.04144,-0.39444 0.04144,-0.39444 0.03397,-0.10506 -0.03397,-0.10506 -0.04144,-0.39444 0.04144,-0.39444 0.03397,-0.10506 -0.03397,-0.10506 -0.04144,-0.39444 0.04144,-0.39444 0.03397,-0.10506 -0.03397,-0.10506 -0.04144,-0.39444 0.04144,-0.39444 0.03397,-0.10506 -0.03397,-0.10506 -0.04144,-0.39444 0.04144,-0.39444 0.03397,-0.10506 -0.03397,-0.10506 -0.04144,-0.39444 0.04144,-0.39444 0.03397,-0.10506 -0.03397,-0.10506 -0.04144,-0.39444 0.04144,-0.39443 0.03397,-0.10507 -0.03397,-0.10506 -0.04144,-0.39444 0.04144,-0.39443 0.03397,-0.10507 -0.03397,-0.10506 -0.04144,-0.39444 0.04144,-0.39443 0.03397,-0.10507 -0.03397,-0.10506 -0.04144,-0.39444 0.04144,-0.39443 0.03397,-0.10507 -0.03397,-0.10506 -0.04144,-0.39444 0.04144,-0.39443 0.03397,-0.10507 -0.03397,-0.10506 -0.04144,-0.39447 0.04144,-0.39444 0.03397,-0.10506 -0.03397,-0.10507 -0.04144,-0.39439 0.04144,-0.39444 0.03397,-0.10506 -0.03397,-0.10507 -0.04144,-0.39443 0.04144,-0.39444 0.03397,-0.10506 -0.03397,-0.10507 -0.04144,-0.39443 0.04144,-0.39444 0.03397,-0.10506 -0.03397,-0.10507 -0.04144,-0.39443 0.04144,-0.39444 0.03397,-0.10506 -0.03397,-0.10507 -0.04144,-0.39443 0.04144,-0.39444 0.03397,-0.10506 -0.03397,-0.10507 -0.04144,-0.39443 0.04144,-0.39444 0.03397,-0.10506 -0.03397,-0.10506 -0.04144,-0.39448 0.04144,-0.39444 0.03397,-0.10506 -0.03397,-0.10506 -0.04144,-0.39444 0.04144,-0.39444 0.03397,-0.10506 -0.03397,-0.10506 -0.04144,-0.39444 0.04144,-0.3944 0.03397,-0.10506 -0.03397,-0.10506 -0.04144,-0.39444 0.04144,-0.39444 0.03397,-0.10506 -0.03397,-0.10506 -0.04144,-0.39444 0.04144,-0.39444 0.03397,-0.10506 -0.03397,-0.10506 -0.04144,-0.39444 0.04144,-0.39444 0.122637,-0.37754 0.198356,-0.34353 0.265468,-0.29478 0.320878,-0.23242 0.362438,-0.16176 0.387993,-0.0831 h 0.396684 l 0.387992,0.0831 0.362438,0.16176 0.320878,0.23242 0.265468,0.29478 0.198356,0.34353 0.122637,0.37754 0.04144,0.39444 -0.04144,0.39444 -0.03397,0.10506 0.03397,0.10506 0.04144,0.39444 -0.04144,0.39444 -0.03397,0.10506 0.03397,0.10506 0.04144,0.39444 -0.04144,0.39444 -0.03397,0.10506 0.03397,0.10506 0.04144,0.3944 -0.04144,0.39444 -0.03397,0.10506 0.03397,0.10506 0.04144,0.39444 -0.04144,0.39444 -0.03397,0.10506 0.03397,0.10506 0.04144,0.39444 -0.04144,0.39448 -0.03397,0.10506 0.03397,0.10506 0.04144,0.39444 -0.04144,0.39443 -0.03397,0.10507 0.03397,0.10506 0.04144,0.39444 -0.04144,0.39443 -0.03397,0.10507 0.03397,0.10506 0.04144,0.39444 -0.04144,0.39443 -0.03397,0.10507 0.03397,0.10506 0.04144,0.39444 -0.04144,0.39443 -0.03397,0.10507 0.03397,0.10506 0.04144,0.39444 -0.04144,0.39443 -0.03397,0.10507 0.03397,0.10506 0.04144,0.39444 -0.04144,0.39439 -0.03397,0.10507 0.03397,0.10506 0.04144,0.39444 -0.04144,0.39447 -0.03397,0.10506 0.03397,0.10507 0.04144,0.39443 -0.04144,0.39444 -0.03397,0.10506 0.03397,0.10507 0.04144,0.39443 -0.04144,0.39444 -0.03397,0.10506 0.03397,0.10507 0.04144,0.39443 -0.04144,0.39444 -0.03397,0.10506 0.03397,0.10507 0.04144,0.39443 -0.04144,0.39444 -0.03397,0.10506 0.03397,0.10507 0.04144,0.39443 -0.04144,0.39444 -0.03397,0.10506 0.03397,0.10506 0.04144,0.39444 -0.04144,0.39444 -0.03397,0.10506 0.03397,0.10506 0.04144,0.39444 -0.04144,0.39444 -0.03397,0.10506 0.03397,0.10506 0.04144,0.39444 -0.04144,0.39444 -0.03397,0.10506 0.03397,0.10506 0.04144,0.39444 -0.04144,0.39444 -0.03397,0.10506 0.03397,0.10506 0.04144,0.39444 -0.04144,0.39444 -0.03397,0.10506 0.03397,0.10506 0.04144,0.39444 -0.04144,0.39444 -0.03397,0.10506 0.03397,0.10506 0.04144,0.39444 -0.04144,0.3944 -0.03397,0.10506 0.03397,0.10506 0.04144,0.39444 -0.04144,0.39448 -0.03397,0.10506 0.03397,0.10506 0.04144,0.39444 -0.04144,0.39444 -0.03397,0.10506 0.03397,0.10506 0.04144,0.39444 -0.04144,0.39444 -0.03397,0.10506 0.03397,0.10506 0.04144,0.39444 -0.04144,0.39444 -0.03397,0.10506 0.03397,0.10506 0.04144,0.39444 -0.04144,0.39443 -0.03397,0.10507 0.03397,0.10506 0.04144,0.39444 -0.04144,0.39443 -0.03397,0.10507 0.03397,0.10506 0.04144,0.39444 -0.04144,0.39443 -0.03397,0.10507 0.03397,0.10506 0.04144,0.39444 -0.04144,0.39447 -0.03397,0.10506 0.03397,0.10507 0.04144,0.39443 -0.04144,0.39444 -0.03397,0.10506 0.03397,0.10507 0.04144,0.39443 -0.04144,0.39444 -0.03397,0.10506 0.03397,0.10507 0.04144,0.39443 -0.04144,0.39444 -0.03397,0.10506 0.03397,0.10506 0.04144,0.39444 -0.04144,0.39444 -0.03397,0.10506 0.03397,0.10506 0.04144,0.39444 -0.04144,0.3944 -0.122637,0.37755 -0.198356,0.34353 -0.265468,0.29478 -0.320878,0.2328 -0.362438,0.16137 -0.387992,0.0828 z m 316.586833,-29.95679 -0.38748,-0.0832 -0.36252,-0.16175 -0.32058,-0.23242 -0.26565,-0.29478 -0.19873,-0.34353 -0.12185,-0.37754 -0.042,-0.39444 0.042,-0.39444 0.12185,-0.37754 0.19873,-0.34353 0.26565,-0.29441 0.32058,-0.23242 0.36252,-0.16175 0.38748,-0.0831 h 0.39749 l 0.3875,0.0831 0.36251,0.16175 0.32058,0.23242 0.26566,0.29441 0.19873,0.34353 0.12184,0.37754 0.042,0.39444 -0.042,0.39444 -0.12184,0.37754 -0.19873,0.34353 -0.26566,0.29478 -0.32058,0.23242 -0.36251,0.16175 -0.3875,0.0832 z m 27.96358,2.99571 -0.38751,-0.0831 -0.36236,-0.16213 -0.32046,-0.23242 -0.26574,-0.29478 -0.19854,-0.34353 -0.12191,-0.37755 -0.0419,-0.39444 0.0419,-0.39443 0.12191,-0.37755 0.19854,-0.34353 0.26574,-0.29478 0.32046,-0.23242 0.36236,-0.16175 0.38751,-0.0831 h 0.39747 l 0.38749,0.0831 0.36236,0.16175 0.32047,0.23242 0.26573,0.29478 0.19892,0.34353 0.12193,0.37755 0.0419,0.39443 -0.0419,0.39444 -0.12193,0.37755 -0.19892,0.34353 -0.26573,0.29478 -0.32047,0.23242 -0.36236,0.16213 -0.38749,0.0831 z m -170.77737,1.99713 -0.3875,-0.0831 -0.36251,-0.16175 -0.32058,-0.2328 -0.26566,-0.2944 -0.19873,-0.34354 -0.12184,-0.37754 -0.042,-0.39444 0.042,-0.39444 0.12184,-0.37754 0.19873,-0.34353 0.26566,-0.29478 0.32058,-0.23242 0.36251,-0.16175 0.3875,-0.0832 h 0.39748 l 0.38749,0.0832 0.36251,0.16175 0.32058,0.23242 0.26566,0.29478 0.19873,0.34353 0.12185,0.37754 0.042,0.39444 -0.042,0.39444 -0.12185,0.37754 -0.19873,0.34354 -0.26566,0.2944 -0.32058,0.2328 -0.36251,0.16175 -0.38749,0.0831 z m -198.8187873,5.23755 -0.541195,-0.11489 -0.505441,-0.22449 -0.447616,-0.32576 -0.370218,-0.41043 -0.27664,-0.47932 -0.170979,-0.52622 -0.05782,-0.55021 0.02627,-0.24943 -0.02627,-0.24943 0.02627,-0.24943 -0.02627,-0.24943 0.05782,-0.55021 0.170979,-0.52626 0.27664,-0.47928 0.370218,-0.41046 0.447616,-0.32577 0.505441,-0.22449 0.541195,-0.11489 h 0.553278 l 0.541194,0.11489 0.5054417,0.22449 0.447616,0.32577 0.370217,0.41046 0.276641,0.47928 0.170979,0.52626 0.05782,0.55021 -0.02627,0.24943 0.02627,0.24943 -0.02627,0.24943 0.02627,0.24943 -0.05782,0.55021 -0.170979,0.52622 -0.276641,0.47932 -0.370217,0.41043 -0.447616,0.32576 -0.5054417,0.22449 -0.541194,0.11489 z m 368.5195573,2.49693 -0.54131,-0.11527 -0.50535,-0.22486 -0.44741,-0.32539 -0.37066,-0.4111 -0.27668,-0.47902 -0.17061,-0.52611 -0.0578,-0.55025 0.0264,-0.24943 -0.0264,-0.24943 0.0264,-0.24943 -0.0264,-0.24943 0.0578,-0.55021 0.17061,-0.52626 0.27668,-0.47928 0.37066,-0.41046 0.44741,-0.32577 0.50535,-0.22449 0.54131,-0.11488 h 0.55325 l 0.54132,0.11488 0.50534,0.22449 0.4474,0.32577 0.37067,0.41046 0.27667,0.47928 0.17062,0.52626 0.0578,0.55021 -0.0264,0.24943 0.0264,0.24943 -0.0264,0.24943 0.0264,0.24943 -0.0578,0.55025 -0.17062,0.52611 -0.27667,0.47902 -0.37067,0.4111 -0.4474,0.32539 -0.50534,0.22486 -0.54132,0.11527 z m -43.86484,20.22519 -0.3875,-0.0828 -0.36251,-0.16137 -0.32057,-0.2328 -0.26565,-0.29478 -0.19874,-0.34353 -0.12184,-0.37754 -0.042,-0.39444 0.042,-0.39444 0.12184,-0.37754 0.19874,-0.34354 0.26565,-0.29477 0.32057,-0.23318 0.36251,-0.16138 0.3875,-0.0828 h 0.39749 l 0.38749,0.0828 0.36251,0.16138 0.32058,0.23318 0.26566,0.29477 0.19874,0.34354 0.12184,0.37754 0.042,0.39444 -0.042,0.39444 -0.12184,0.37754 -0.19874,0.34353 -0.26566,0.29478 -0.32058,0.2328 -0.36251,0.16137 -0.38749,0.0828 z m -174.77213,0 -0.3875,-0.0828 -0.36251,-0.16137 -0.32058,-0.2328 -0.26566,-0.29478 -0.19873,-0.34353 -0.12184,-0.37754 -0.042,-0.39444 0.042,-0.39444 0.12184,-0.37754 0.19873,-0.34354 0.26566,-0.29477 0.32058,-0.23318 0.36251,-0.16138 0.3875,-0.0828 h 0.39748 l 0.38749,0.0828 0.36252,0.16138 0.32058,0.23318 0.26565,0.29477 0.19873,0.34354 0.12185,0.37754 0.042,0.39444 -0.042,0.39444 -0.12185,0.37754 -0.19873,0.34353 -0.26565,0.29478 -0.32058,0.2328 -0.36252,0.16137 -0.38749,0.0828 z m 149.80469,0 -0.38749,-0.0828 -0.36252,-0.16137 -0.32058,-0.2328 -0.26565,-0.29478 -0.19874,-0.34353 -0.12184,-0.37754 -0.042,-0.39444 0.042,-0.39444 0.12184,-0.37754 0.19874,-0.34354 0.26565,-0.29477 0.32058,-0.23318 0.36252,-0.16138 0.38749,-0.0828 h 0.39748 l 0.38749,0.0828 0.36251,0.16138 0.32058,0.23318 0.26566,0.29477 0.19874,0.34354 0.12184,0.37754 0.042,0.39444 -0.042,0.39444 -0.12184,0.37754 -0.19874,0.34353 -0.26566,0.29478 -0.32058,0.2328 -0.36251,0.16137 -0.38749,0.0828 z m -124.83724,0 -0.3875,-0.0828 -0.36251,-0.16137 -0.32058,-0.2328 -0.26566,-0.29478 -0.19873,-0.34353 -0.12185,-0.37754 -0.042,-0.39444 0.042,-0.39444 0.12185,-0.37754 0.19873,-0.34354 0.26566,-0.29477 0.32058,-0.23318 0.36251,-0.16138 0.3875,-0.0828 h 0.39747 l 0.3875,0.0828 0.36252,0.16138 0.32058,0.23318 0.26565,0.29477 0.19873,0.34354 0.12185,0.37754 0.042,0.39444 -0.042,0.39444 -0.12185,0.37754 -0.19873,0.34353 -0.26565,0.29478 -0.32058,0.2328 -0.36252,0.16137 -0.3875,0.0828 z m 49.93489,0 -0.38749,-0.0828 -0.36251,-0.16137 -0.32058,-0.2328 -0.26566,-0.29478 -0.19873,-0.34353 -0.12185,-0.37754 -0.042,-0.39444 0.042,-0.39444 0.12185,-0.37754 0.19873,-0.34354 0.26566,-0.29477 0.32058,-0.23318 0.36251,-0.16138 0.38749,-0.0828 h 0.39748 l 0.3875,0.0828 0.36252,0.16138 0.32057,0.23318 0.26566,0.29477 0.19873,0.34354 0.12184,0.37754 0.042,0.39444 -0.042,0.39444 -0.12184,0.37754 -0.19873,0.34353 -0.26566,0.29478 -0.32057,0.2328 -0.36252,0.16137 -0.3875,0.0828 z m 24.96745,0 -0.38749,-0.0828 -0.36252,-0.16137 -0.32058,-0.2328 -0.26565,-0.29478 -0.19874,-0.34353 -0.12184,-0.37754 -0.042,-0.39444 0.042,-0.39444 0.12184,-0.37754 0.19874,-0.34354 0.26565,-0.29477 0.32058,-0.23318 0.36252,-0.16138 0.38749,-0.0828 h 0.39748 l 0.3875,0.0828 0.36251,0.16138 0.32057,0.23318 0.26567,0.29477 0.19873,0.34354 0.12184,0.37754 0.042,0.39444 -0.042,0.39444 -0.12184,0.37754 -0.19873,0.34353 -0.26567,0.29478 -0.32057,0.2328 -0.36251,0.16137 -0.3875,0.0828 z m 24.96745,0 -0.3875,-0.0828 -0.36251,-0.16137 -0.32058,-0.2328 -0.26565,-0.29478 -0.19874,-0.34353 -0.12184,-0.37754 -0.042,-0.39444 0.042,-0.39444 0.12184,-0.37754 0.19874,-0.34354 0.26565,-0.29477 0.32058,-0.23318 0.36251,-0.16138 0.3875,-0.0828 h 0.39748 l 0.3875,0.0828 0.36251,0.16138 0.32057,0.23318 0.26566,0.29477 0.19874,0.34354 0.12184,0.37754 0.042,0.39444 -0.042,0.39444 -0.12184,0.37754 -0.19874,0.34353 -0.26566,0.29478 -0.32057,0.2328 -0.36251,0.16137 -0.3875,0.0828 z m 74.90235,0 -0.38751,-0.0828 -0.36251,-0.16137 -0.32057,-0.2328 -0.26566,-0.29478 -0.19873,-0.34353 -0.12185,-0.37754 -0.042,-0.39444 0.042,-0.39444 0.12185,-0.37754 0.19873,-0.34354 0.26566,-0.29477 0.32057,-0.23318 0.36251,-0.16138 0.38751,-0.0828 h 0.39748 l 0.38748,0.0828 0.36274,0.16138 0.32047,0.23318 0.26573,0.29477 0.19855,0.34354 0.12191,0.37754 0.0419,0.39444 -0.0419,0.39444 -0.12191,0.37754 -0.19855,0.34353 -0.26573,0.29478 -0.32047,0.2328 -0.36274,0.16137 -0.38748,0.0828 z m -349.5438803,0 -0.387994,-0.0828 -0.362426,-0.16137 -0.320883,-0.2328 -0.265453,-0.29478 -0.198341,-0.34353 -0.12264,-0.37754 -0.04144,-0.39444 0.04144,-0.39444 0.12264,-0.37754 0.198341,-0.34354 0.265453,-0.29477 0.320883,-0.23318 0.362426,-0.16138 0.387994,-0.0828 h 0.396683 l 0.387994,0.0828 0.3624267,0.16138 0.320883,0.23318 0.265453,0.29477 0.19834,0.34354 0.122641,0.37754 0.04144,0.39444 -0.04144,0.39444 -0.122641,0.37754 -0.19834,0.34353 -0.265453,0.29478 -0.320883,0.2328 -0.3624267,0.16137 -0.387994,0.0828 z m 199.7391903,0 -0.3875,-0.0828 -0.36252,-0.16137 -0.32058,-0.2328 -0.26565,-0.29478 -0.19873,-0.34353 -0.12185,-0.37754 -0.042,-0.39444 0.042,-0.39444 0.12185,-0.37754 0.19873,-0.34354 0.26565,-0.29477 0.32058,-0.23318 0.36252,-0.16138 0.3875,-0.0828 h 0.39747 l 0.3875,0.0828 0.36251,0.16138 0.32058,0.23318 0.26566,0.29477 0.19873,0.34354 0.12185,0.37754 0.042,0.39444 -0.042,0.39444 -0.12185,0.37754 -0.19873,0.34353 -0.26566,0.29478 -0.32058,0.2328 -0.36251,0.16137 -0.3875,0.0828 z m -66.85984,13.48347 -0.2866,-0.0609 -0.26664,-0.11904 -0.23671,-0.17158 -0.19575,-0.21693 -0.14582,-0.2532 -0.0898,-0.27778 -0.031,-0.29062 0.031,-0.29062 0.0898,-0.27777 0.14582,-0.25321 0.19575,-0.21693 0.23671,-0.17158 0.26664,-0.11866 0.2866,-0.0609 h 0.29162 l 0.28665,0.0609 0.26664,0.11866 0.2367,0.17158 0.19576,0.21693 0.14581,0.25321 0.0898,0.27777 0.031,0.29062 -0.031,0.29062 -0.0898,0.27778 -0.14581,0.2532 -0.19576,0.21693 -0.2367,0.17158 -0.26664,0.11904 -0.28665,0.0609 z m -116.847951,0 -0.285927,-0.0609 -0.267053,-0.11904 -0.23648,-0.17158 -0.195562,-0.21693 -0.146228,-0.2532 -0.09028,-0.27778 -0.03057,-0.29062 0.03057,-0.29062 0.09028,-0.27777 0.146228,-0.25321 0.195562,-0.21693 0.23648,-0.17158 0.267053,-0.11866 0.285927,-0.0609 h 0.29223 l 0.285926,0.0609 0.267054,0.11866 0.236478,0.17158 0.195563,0.21693 0.14619,0.25321 0.09029,0.27777 0.03057,0.29062 -0.03057,0.29062 -0.09029,0.27778 -0.14619,0.2532 -0.195563,0.21693 -0.236478,0.17158 -0.267054,0.11904 -0.285926,0.0609 z m 182.709091,3.49226 -0.3875,-0.0828 -0.36251,-0.16137 -0.32058,-0.23318 -0.26566,-0.29478 -0.19873,-0.34353 -0.12184,-0.37755 -0.042,-0.39443 0.042,-0.39444 0.12184,-0.37755 0.19873,-0.34353 0.26566,-0.29478 0.32058,-0.23317 0.36251,-0.16138 0.3875,-0.0828 h 0.39748 l 0.38749,0.0828 0.36251,0.16138 0.32058,0.23317 0.26566,0.29478 0.19873,0.34353 0.12185,0.37755 0.042,0.39444 -0.042,0.39443 -0.12185,0.37755 -0.19873,0.34353 -0.26566,0.29478 -0.32058,0.23318 -0.36251,0.16137 -0.38749,0.0828 z m 142.81379,0 -0.38748,-0.0828 -0.36252,-0.16137 -0.32058,-0.23318 -0.26565,-0.29478 -0.19873,-0.34353 -0.12185,-0.37755 -0.042,-0.39443 0.042,-0.39444 0.12185,-0.37755 0.19873,-0.34353 0.26565,-0.29478 0.32058,-0.23317 0.36252,-0.16138 0.38748,-0.0828 h 0.39749 l 0.3875,0.0828 0.36251,0.16138 0.32058,0.23317 0.26566,0.29478 0.19873,0.34353 0.12184,0.37755 0.042,0.39444 -0.042,0.39443 -0.12184,0.37755 -0.19873,0.34353 -0.26566,0.29478 -0.32058,0.23318 -0.36251,0.16137 -0.3875,0.0828 z m 27.96358,22.96721 -0.38751,-0.0828 -0.36236,-0.16137 -0.32046,-0.23318 -0.26574,-0.29478 -0.19854,-0.34353 -0.12191,-0.37754 -0.0419,-0.39444 0.0419,-0.39444 0.12191,-0.37754 0.19854,-0.34353 0.26574,-0.29478 0.32046,-0.2328 0.36236,-0.16138 0.38751,-0.0828 h 0.39747 l 0.38749,0.0828 0.36236,0.16138 0.32047,0.2328 0.26573,0.29478 0.19892,0.34353 0.12193,0.37754 0.0419,0.39444 -0.0419,0.39444 -0.12193,0.37754 -0.19892,0.34353 -0.26573,0.29478 -0.32047,0.23318 -0.36236,0.16137 -0.38749,0.0828 z m -369.5178603,0 -0.387994,-0.0828 -0.362426,-0.16137 -0.320883,-0.23318 -0.265453,-0.29478 -0.198341,-0.34353 -0.12264,-0.37754 -0.04144,-0.39444 0.04144,-0.39444 0.12264,-0.37754 0.198341,-0.34353 0.265453,-0.29478 0.320883,-0.2328 0.362426,-0.16138 0.387994,-0.0828 h 0.396683 l 0.387994,0.0828 0.3624267,0.16138 0.320883,0.2328 0.265453,0.29478 0.19834,0.34353 0.122641,0.37754 0.04144,0.39444 -0.04144,0.39444 -0.122641,0.37754 -0.19834,0.34353 -0.265453,0.29478 -0.320883,0.23318 -0.3624267,0.16137 -0.387994,0.0828 z m 341.5542803,1.99716 -0.38748,-0.0824 -0.36252,-0.16175 -0.32058,-0.23318 -0.26565,-0.29478 -0.19873,-0.34353 -0.12185,-0.37755 -0.042,-0.39443 0.042,-0.39444 0.12185,-0.37755 0.19873,-0.34353 0.26565,-0.29478 0.32058,-0.23317 0.36252,-0.16138 0.38748,-0.0828 h 0.39749 l 0.3875,0.0828 0.36251,0.16138 0.32058,0.23317 0.26566,0.29478 0.19873,0.34353 0.12184,0.37755 0.042,0.39444 -0.042,0.39443 -0.12184,0.37755 -0.19873,0.34353 -0.26566,0.29478 -0.32058,0.23318 -0.36251,0.16175 -0.3875,0.0824 z m -109.85676,0 -0.3875,-0.0824 -0.36252,-0.16175 -0.32057,-0.23318 -0.26565,-0.29478 -0.19874,-0.34353 -0.12184,-0.37755 -0.042,-0.39443 0.042,-0.39444 0.12184,-0.37755 0.19874,-0.34353 0.26565,-0.29478 0.32057,-0.23317 0.36252,-0.16138 0.3875,-0.0828 h 0.39748 l 0.38749,0.0828 0.36251,0.16138 0.32058,0.23317 0.26566,0.29478 0.19874,0.34353 0.12184,0.37755 0.042,0.39444 -0.042,0.39443 -0.12184,0.37755 -0.19874,0.34353 -0.26566,0.29478 -0.32058,0.23318 -0.36251,0.16175 -0.38749,0.0824 z m 79.89584,0 -0.3875,-0.0824 -0.36252,-0.16175 -0.32058,-0.23318 -0.26565,-0.29478 -0.19873,-0.34353 -0.12185,-0.37755 -0.042,-0.39443 0.042,-0.39444 0.12185,-0.37755 0.19873,-0.34353 0.26565,-0.29478 0.32058,-0.23317 0.36252,-0.16138 0.3875,-0.0828 h 0.39747 l 0.3875,0.0828 0.36251,0.16138 0.32058,0.23317 0.26566,0.29478 0.19873,0.34353 0.12185,0.37755 0.042,0.39444 -0.042,0.39443 -0.12185,0.37755 -0.19873,0.34353 -0.26566,0.29478 -0.32058,0.23318 -0.36251,0.16175 -0.3875,0.0824 z"
       inkscape:connector-curvature="0"
       style="fill:none;stroke:#0000ff;stroke-width:0.01;stroke-miterlimit:4;stroke-dasharray:none;stroke-opacity:1" />
  </g>
</svg>
