  0
SECTION
  2
HEADER
  9
$ACADVER
  1
AC1014
  9
$HANDSEED
  5
FFFF
  9
$MEASUREMENT
 70
     1
  0
ENDSEC
  0
SECTION
  2
TABLES
  0
TABLE
  2
VPORT
  5
8
330
0
100
AcDbSymbolTable
 70
     4
  0
VPORT
  5
2E
330
8
100
AcDbSymbolTableRecord
100
AcDbViewportTableRecord
  2
*ACTIVE
 70
     0
 10
0.0
 20
0.0
 11
1.0
 21
1.0
 12
210.0
 22
148.5
 13
0.0
 23
0.0
 14
10.0
 24
10.0
 15
10.0
 25
10.0
 16
0.0
 26
0.0
 36
1.0
 17
0.0
 27
0.0
 37
0.0
 40
341.0
 41
1.24
 42
50.0
 43
0.0
 44
0.0
 50
0.0
 51
0.0
 71
     0
 72
   100
 73
     1
 74
     3
 75
     0
 76
     0
 77
     0
 78
     0
  0
ENDTAB
  0
TABLE
  2
LTYPE
  5
5
330
0
100
AcDbSymbolTable
 70
     1
  0
LTYPE
  5
14
330
5
100
AcDbSymbolTableRecord
100
AcDbLinetypeTableRecord
  2
BYBLOCK
 70
     0
  3

 72
    65
 73
     0
 40
0.0
  0
LTYPE
  5
15
330
5
100
AcDbSymbolTableRecord
100
AcDbLinetypeTableRecord
  2
BYLAYER
 70
     0
  3

 72
    65
 73
     0
 40
0.0
  0
LTYPE
  5
16
330
5
100
AcDbSymbolTableRecord
100
AcDbLinetypeTableRecord
  2
CONTINUOUS
 70
     0
  3
Solid line
 72
    65
 73
     0
 40
0.0
  0
ENDTAB
  0
TABLE
  2
LAYER
  5
2
100
AcDbSymbolTable
 70
2
  0
LAYER
  5
50
100
AcDbSymbolTableRecord
100
AcDbLayerTableRecord
  2
0
 70
0
  6
CONTINUOUS
  0
LAYER
  5
51
100
AcDbSymbolTableRecord
100
AcDbLayerTableRecord
  2
Layer_1
 70
0
  6
CONTINUOUS
  0
ENDTAB
  0
TABLE
  2
STYLE
  5
3
330
0
100
AcDbSymbolTable
 70
     1
  0
STYLE
  5
11
330
3
100
AcDbSymbolTableRecord
100
AcDbTextStyleTableRecord
  2
STANDARD
 70
     0
 40
0.0
 41
1.0
 50
0.0
 71
     0
 42
2.5
  3
txt
  4

  0
ENDTAB
  0
TABLE
  2
VIEW
  5
6
330
0
100
AcDbSymbolTable
 70
     0
  0
ENDTAB
  0
TABLE
  2
UCS
  5
7
330
0
100
AcDbSymbolTable
 70
     0
  0
ENDTAB
  0
TABLE
  2
APPID
  5
9
330
0
100
AcDbSymbolTable
 70
     2
  0
APPID
  5
12
330
9
100
AcDbSymbolTableRecord
100
AcDbRegAppTableRecord
  2
ACAD
 70
     0
  0
ENDTAB
  0
TABLE
  2
DIMSTYLE
  5
A
330
0
100
AcDbSymbolTable
 70
     1
  0
DIMSTYLE
105
27
330
A
100
AcDbSymbolTableRecord
100
AcDbDimStyleTableRecord
  2
ISO-25
 70
     0
  3

  4

  5

  6

  7

 40
1.0
 41
2.5
 42
0.625
 43
3.75
 44
1.25
 45
0.0
 46
0.0
 47
0.0
 48
0.0
140
2.5
141
2.5
142
0.0
143
0.03937007874016
144
1.0
145
0.0
146
1.0
147
0.625
 71
     0
 72
     0
 73
     0
 74
     0
 75
     0
 76
     0
 77
     1
 78
     8
170
     0
171
     3
172
     1
173
     0
174
     0
175
     0
176
     0
177
     0
178
     0
270
     2
271
     2
272
     2
273
     2
274
     3
340
11
275
     0
280
     0
281
     0
282
     0
283
     0
284
     8
285
     0
286
     0
287
     3
288
     0
  0
ENDTAB
  0
TABLE
  2
BLOCK_RECORD
  5
1
330
0
100
AcDbSymbolTable
 70
     1
  0
BLOCK_RECORD
  5
1F
330
1
100
AcDbSymbolTableRecord
100
AcDbBlockTableRecord
  2
*MODEL_SPACE
  0
BLOCK_RECORD
  5
1B
330
1
100
AcDbSymbolTableRecord
100
AcDbBlockTableRecord
  2
*PAPER_SPACE
  0
ENDTAB
  0
ENDSEC
  0
SECTION
  2
BLOCKS
  0
BLOCK
  5
20
330
1F
100
AcDbEntity
  8
0
100
AcDbBlockBegin
  2
*MODEL_SPACE
 70
     0
 10
0.0
 20
0.0
 30
0.0
  3
*MODEL_SPACE
  1

  0
ENDBLK
  5
21
330
1F
100
AcDbEntity
  8
0
100
AcDbBlockEnd
  0
BLOCK
  5
1C
330
1B
100
AcDbEntity
 67
     1
  8
0
100
AcDbBlockBegin
  2
*PAPER_SPACE
  1

  0
ENDBLK
  5
1D
330
1B
100
AcDbEntity
 67
     1
  8
0
100
AcDbBlockEnd
  0
ENDSEC
  0
SECTION
  2
ENTITIES
  0
LWPOLYLINE
  5
100
100
AcDbEntity
  8
Layer_1
 62
7
100
AcDbPolyline
 90
12
 70
1
 10
41.721136
 20
100.074160
 30
0.0
 10
125.663230
 20
100.074160
 30
0.0
 10
125.663230
 20
0.249740
 30
0.0
 10
383.985000
 20
0.249740
 30
0.0
 10
383.985000
 20
349.984991
 30
0.0
 10
346.510840
 20
349.984991
 30
0.0
 10
346.510840
 20
220.083353
 30
0.0
 10
38.723204
 20
220.083353
 30
0.0
 10
38.723204
 20
349.984991
 30
0.0
 10
0.249744
 20
349.984991
 30
0.0
 10
0.249744
 20
0.249740
 30
0.0
 10
41.721136
 20
0.249740
 30
0.0
  0
LWPOLYLINE
  5
101
100
AcDbEntity
  8
Layer_1
 62
7
100
AcDbPolyline
 90
30
 70
1
 10
361.301650
 20
331.109287
 30
0.0
 10
360.913910
 20
331.192487
 30
0.0
 10
360.551330
 20
331.354347
 30
0.0
 10
360.230660
 20
331.587303
 30
0.0
 10
359.964770
 20
331.882280
 30
0.0
 10
359.766100
 20
332.226042
 30
0.0
 10
359.644100
 20
332.603840
 30
0.0
 10
359.602200
 20
332.998503
 30
0.0
 10
359.644100
 20
333.393206
 30
0.0
 10
359.766100
 20
333.771003
 30
0.0
 10
359.964770
 20
334.114766
 30
0.0
 10
360.230660
 20
334.409365
 30
0.0
 10
360.551330
 20
334.642321
 30
0.0
 10
360.913910
 20
334.804180
 30
0.0
 10
361.301650
 20
334.887380
 30
0.0
 10
361.699350
 20
334.887380
 30
0.0
 10
362.087100
 20
334.804180
 30
0.0
 10
362.449680
 20
334.642321
 30
0.0
 10
362.770340
 20
334.409365
 30
0.0
 10
363.036240
 20
334.114766
 30
0.0
 10
363.235280
 20
333.771003
 30
0.0
 10
363.357270
 20
333.393206
 30
0.0
 10
363.399170
 20
332.998503
 30
0.0
 10
363.357270
 20
332.603840
 30
0.0
 10
363.235280
 20
332.226042
 30
0.0
 10
363.036240
 20
331.882280
 30
0.0
 10
362.770340
 20
331.587303
 30
0.0
 10
362.449680
 20
331.354347
 30
0.0
 10
362.087100
 20
331.192487
 30
0.0
 10
361.699350
 20
331.109287
 30
0.0
  0
LWPOLYLINE
  5
102
100
AcDbEntity
  8
Layer_1
 62
7
100
AcDbPolyline
 90
30
 70
1
 10
21.536473
 20
331.109287
 30
0.0
 10
21.148244
 20
331.192487
 30
0.0
 10
20.785660
 20
331.354347
 30
0.0
 10
20.464621
 20
331.587303
 30
0.0
 10
20.199103
 20
331.882280
 30
0.0
 10
20.000816
 20
332.226042
 30
0.0
 10
19.878065
 20
332.603840
 30
0.0
 10
19.836515
 20
332.998503
 30
0.0
 10
19.878065
 20
333.393206
 30
0.0
 10
20.000816
 20
333.771003
 30
0.0
 10
20.199103
 20
334.114766
 30
0.0
 10
20.464621
 20
334.409365
 30
0.0
 10
20.785660
 20
334.642321
 30
0.0
 10
21.148244
 20
334.804180
 30
0.0
 10
21.536473
 20
334.887380
 30
0.0
 10
21.933389
 20
334.887380
 30
0.0
 10
22.321620
 20
334.804180
 30
0.0
 10
22.684205
 20
334.642321
 30
0.0
 10
23.005243
 20
334.409365
 30
0.0
 10
23.270760
 20
334.114766
 30
0.0
 10
23.469048
 20
333.771003
 30
0.0
 10
23.591799
 20
333.393206
 30
0.0
 10
23.633339
 20
332.998503
 30
0.0
 10
23.591799
 20
332.603840
 30
0.0
 10
23.469048
 20
332.226042
 30
0.0
 10
23.270760
 20
331.882280
 30
0.0
 10
23.005243
 20
331.587303
 30
0.0
 10
22.684205
 20
331.354347
 30
0.0
 10
22.321620
 20
331.192487
 30
0.0
 10
21.933389
 20
331.109287
 30
0.0
  0
LWPOLYLINE
  5
103
100
AcDbEntity
  8
Layer_1
 62
7
100
AcDbPolyline
 90
38
 70
1
 10
6.468445
 20
300.887173
 30
0.0
 10
5.926948
 20
301.002138
 30
0.0
 10
5.421180
 20
301.226775
 30
0.0
 10
4.973275
 20
301.552384
 30
0.0
 10
4.602759
 20
301.963121
 30
0.0
 10
4.325911
 20
302.442724
 30
0.0
 10
4.154816
 20
302.969333
 30
0.0
 10
4.097030
 20
303.519920
 30
0.0
 10
4.123468
 20
303.769516
 30
0.0
 10
4.097030
 20
304.019490
 30
0.0
 10
4.123468
 20
304.269086
 30
0.0
 10
4.097030
 20
304.519060
 30
0.0
 10
4.154816
 20
305.069647
 30
0.0
 10
4.325911
 20
305.596257
 30
0.0
 10
4.602759
 20
306.075897
 30
0.0
 10
4.973275
 20
306.486558
 30
0.0
 10
5.421180
 20
306.812168
 30
0.0
 10
5.926948
 20
307.036804
 30
0.0
 10
6.468445
 20
307.151770
 30
0.0
 10
7.022066
 20
307.151770
 30
0.0
 10
7.563601
 20
307.036804
 30
0.0
 10
8.069369
 20
306.812168
 30
0.0
 10
8.517236
 20
306.486558
 30
0.0
 10
8.887752
 20
306.075897
 30
0.0
 10
9.164601
 20
305.596257
 30
0.0
 10
9.335695
 20
305.069647
 30
0.0
 10
9.393482
 20
304.519060
 30
0.0
 10
9.367044
 20
304.269086
 30
0.0
 10
9.393482
 20
304.019490
 30
0.0
 10
9.367044
 20
303.769516
 30
0.0
 10
9.393482
 20
303.519920
 30
0.0
 10
9.335695
 20
302.969333
 30
0.0
 10
9.164601
 20
302.442724
 30
0.0
 10
8.887752
 20
301.963121
 30
0.0
 10
8.517236
 20
301.552384
 30
0.0
 10
8.069369
 20
301.226775
 30
0.0
 10
7.563601
 20
301.002138
 30
0.0
 10
7.022066
 20
300.887173
 30
0.0
  0
LWPOLYLINE
  5
104
100
AcDbEntity
  8
Layer_1
 62
7
100
AcDbPolyline
 90
38
 70
1
 10
6.468445
 20
288.896237
 30
0.0
 10
5.926948
 20
289.011202
 30
0.0
 10
5.421180
 20
289.235838
 30
0.0
 10
4.973275
 20
289.561448
 30
0.0
 10
4.602759
 20
289.972185
 30
0.0
 10
4.325911
 20
290.451825
 30
0.0
 10
4.154816
 20
290.978397
 30
0.0
 10
4.097030
 20
291.528984
 30
0.0
 10
4.123468
 20
291.778580
 30
0.0
 10
4.097030
 20
292.028554
 30
0.0
 10
4.123468
 20
292.278150
 30
0.0
 10
4.097030
 20
292.528124
 30
0.0
 10
4.154816
 20
293.078673
 30
0.0
 10
4.325911
 20
293.605283
 30
0.0
 10
4.602759
 20
294.084923
 30
0.0
 10
4.973275
 20
294.495622
 30
0.0
 10
5.421180
 20
294.821610
 30
0.0
 10
5.926948
 20
295.046246
 30
0.0
 10
6.468445
 20
295.161212
 30
0.0
 10
7.022066
 20
295.161212
 30
0.0
 10
7.563601
 20
295.046246
 30
0.0
 10
8.069369
 20
294.821610
 30
0.0
 10
8.517236
 20
294.495622
 30
0.0
 10
8.887752
 20
294.084923
 30
0.0
 10
9.164601
 20
293.605283
 30
0.0
 10
9.335695
 20
293.078673
 30
0.0
 10
9.393482
 20
292.528124
 30
0.0
 10
9.367044
 20
292.278150
 30
0.0
 10
9.393482
 20
292.028554
 30
0.0
 10
9.367044
 20
291.778580
 30
0.0
 10
9.393482
 20
291.528984
 30
0.0
 10
9.335695
 20
290.978397
 30
0.0
 10
9.164601
 20
290.451825
 30
0.0
 10
8.887752
 20
289.972185
 30
0.0
 10
8.517236
 20
289.561448
 30
0.0
 10
8.069369
 20
289.235838
 30
0.0
 10
7.563601
 20
289.011202
 30
0.0
 10
7.022066
 20
288.896237
 30
0.0
  0
LWPOLYLINE
  5
105
100
AcDbEntity
  8
Layer_1
 62
7
100
AcDbPolyline
 90
30
 70
1
 10
30.530267
 20
289.140916
 30
0.0
 10
30.142038
 20
289.224115
 30
0.0
 10
29.779454
 20
289.385974
 30
0.0
 10
29.458416
 20
289.618931
 30
0.0
 10
29.192897
 20
289.913908
 30
0.0
 10
28.994609
 20
290.257670
 30
0.0
 10
28.871859
 20
290.635467
 30
0.0
 10
28.830319
 20
291.030170
 30
0.0
 10
28.871859
 20
291.424872
 30
0.0
 10
28.994609
 20
291.802669
 30
0.0
 10
29.192897
 20
292.146431
 30
0.0
 10
29.458416
 20
292.441409
 30
0.0
 10
29.779454
 20
292.674365
 30
0.0
 10
30.142038
 20
292.836224
 30
0.0
 10
30.530267
 20
292.919423
 30
0.0
 10
30.927184
 20
292.919423
 30
0.0
 10
31.315414
 20
292.836224
 30
0.0
 10
31.677999
 20
292.674365
 30
0.0
 10
31.999036
 20
292.441409
 30
0.0
 10
32.264554
 20
292.146431
 30
0.0
 10
32.462843
 20
291.802669
 30
0.0
 10
32.585592
 20
291.424872
 30
0.0
 10
32.627132
 20
291.030170
 30
0.0
 10
32.585592
 20
290.635467
 30
0.0
 10
32.462843
 20
290.257670
 30
0.0
 10
32.264554
 20
289.913908
 30
0.0
 10
31.999036
 20
289.618931
 30
0.0
 10
31.677999
 20
289.385974
 30
0.0
 10
31.315414
 20
289.224115
 30
0.0
 10
30.927184
 20
289.140916
 30
0.0
  0
LWPOLYLINE
  5
106
100
AcDbEntity
  8
Layer_1
 62
7
100
AcDbPolyline
 90
30
 70
1
 10
352.307810
 20
289.140916
 30
0.0
 10
351.920110
 20
289.224115
 30
0.0
 10
351.557530
 20
289.385975
 30
0.0
 10
351.236860
 20
289.618931
 30
0.0
 10
350.970970
 20
289.913908
 30
0.0
 10
350.772300
 20
290.257670
 30
0.0
 10
350.650300
 20
290.635468
 30
0.0
 10
350.608400
 20
291.030170
 30
0.0
 10
350.650300
 20
291.424872
 30
0.0
 10
350.772300
 20
291.802670
 30
0.0
 10
350.970970
 20
292.146432
 30
0.0
 10
351.236860
 20
292.441409
 30
0.0
 10
351.557530
 20
292.674365
 30
0.0
 10
351.920110
 20
292.836224
 30
0.0
 10
352.307810
 20
292.919423
 30
0.0
 10
352.705560
 20
292.919423
 30
0.0
 10
353.093300
 20
292.836224
 30
0.0
 10
353.455880
 20
292.674365
 30
0.0
 10
353.776540
 20
292.441409
 30
0.0
 10
354.042440
 20
292.146432
 30
0.0
 10
354.241100
 20
291.802670
 30
0.0
 10
354.363100
 20
291.424872
 30
0.0
 10
354.405000
 20
291.030170
 30
0.0
 10
354.363100
 20
290.635468
 30
0.0
 10
354.241100
 20
290.257670
 30
0.0
 10
354.042440
 20
289.913908
 30
0.0
 10
353.776540
 20
289.618931
 30
0.0
 10
353.455880
 20
289.385975
 30
0.0
 10
353.093300
 20
289.224115
 30
0.0
 10
352.705560
 20
289.140916
 30
0.0
  0
LWPOLYLINE
  5
107
100
AcDbEntity
  8
Layer_1
 62
7
100
AcDbPolyline
 90
38
 70
1
 10
375.214050
 20
286.398006
 30
0.0
 10
374.672400
 20
286.512971
 30
0.0
 10
374.166750
 20
286.737608
 30
0.0
 10
373.719070
 20
287.063218
 30
0.0
 10
373.348170
 20
287.473879
 30
0.0
 10
373.071330
 20
287.953520
 30
0.0
 10
372.900620
 20
288.480130
 30
0.0
 10
372.842820
 20
289.030716
 30
0.0
 10
372.869220
 20
289.280690
 30
0.0
 10
372.842820
 20
289.530286
 30
0.0
 10
372.869220
 20
289.779882
 30
0.0
 10
372.842820
 20
290.029478
 30
0.0
 10
372.900620
 20
290.580027
 30
0.0
 10
373.071330
 20
291.106637
 30
0.0
 10
373.348170
 20
291.586277
 30
0.0
 10
373.719070
 20
291.996976
 30
0.0
 10
374.166750
 20
292.322964
 30
0.0
 10
374.672400
 20
292.547600
 30
0.0
 10
375.214050
 20
292.662566
 30
0.0
 10
375.767640
 20
292.662566
 30
0.0
 10
376.309280
 20
292.547600
 30
0.0
 10
376.814930
 20
292.322964
 30
0.0
 10
377.262610
 20
291.996976
 30
0.0
 10
377.633510
 20
291.586277
 30
0.0
 10
377.910350
 20
291.106637
 30
0.0
 10
378.081070
 20
290.580027
 30
0.0
 10
378.138870
 20
290.029478
 30
0.0
 10
378.112470
 20
289.779882
 30
0.0
 10
378.138870
 20
289.530286
 30
0.0
 10
378.112470
 20
289.280690
 30
0.0
 10
378.138870
 20
289.030716
 30
0.0
 10
378.081070
 20
288.480130
 30
0.0
 10
377.910350
 20
287.953520
 30
0.0
 10
377.633510
 20
287.473879
 30
0.0
 10
377.262610
 20
287.063218
 30
0.0
 10
376.814930
 20
286.737608
 30
0.0
 10
376.309280
 20
286.512971
 30
0.0
 10
375.767640
 20
286.398006
 30
0.0
  0
LWPOLYLINE
  5
108
100
AcDbEntity
  8
Layer_1
 62
7
100
AcDbPolyline
 90
30
 70
1
 10
361.301650
 20
281.146996
 30
0.0
 10
360.913910
 20
281.230196
 30
0.0
 10
360.551330
 20
281.392055
 30
0.0
 10
360.230660
 20
281.625012
 30
0.0
 10
359.964770
 20
281.919989
 30
0.0
 10
359.766100
 20
282.263750
 30
0.0
 10
359.644100
 20
282.641549
 30
0.0
 10
359.602200
 20
283.036251
 30
0.0
 10
359.644100
 20
283.430953
 30
0.0
 10
359.766100
 20
283.808751
 30
0.0
 10
359.964770
 20
284.152513
 30
0.0
 10
360.230660
 20
284.447490
 30
0.0
 10
360.551330
 20
284.680447
 30
0.0
 10
360.913910
 20
284.842305
 30
0.0
 10
361.301650
 20
284.925505
 30
0.0
 10
361.699350
 20
284.925505
 30
0.0
 10
362.087100
 20
284.842305
 30
0.0
 10
362.449680
 20
284.680447
 30
0.0
 10
362.770340
 20
284.447490
 30
0.0
 10
363.036240
 20
284.152513
 30
0.0
 10
363.235280
 20
283.808751
 30
0.0
 10
363.357270
 20
283.430953
 30
0.0
 10
363.399170
 20
283.036251
 30
0.0
 10
363.357270
 20
282.641549
 30
0.0
 10
363.235280
 20
282.263750
 30
0.0
 10
363.036240
 20
281.919989
 30
0.0
 10
362.770340
 20
281.625012
 30
0.0
 10
362.449680
 20
281.392055
 30
0.0
 10
362.087100
 20
281.230196
 30
0.0
 10
361.699350
 20
281.146996
 30
0.0
  0
LWPOLYLINE
  5
109
100
AcDbEntity
  8
Layer_1
 62
7
100
AcDbPolyline
 90
30
 70
1
 10
21.536473
 20
281.146996
 30
0.0
 10
21.148244
 20
281.230196
 30
0.0
 10
20.785660
 20
281.392055
 30
0.0
 10
20.464621
 20
281.625012
 30
0.0
 10
20.199103
 20
281.919989
 30
0.0
 10
20.000816
 20
282.263750
 30
0.0
 10
19.878065
 20
282.641549
 30
0.0
 10
19.836515
 20
283.036251
 30
0.0
 10
19.878065
 20
283.430953
 30
0.0
 10
20.000816
 20
283.808751
 30
0.0
 10
20.199103
 20
284.152513
 30
0.0
 10
20.464621
 20
284.447490
 30
0.0
 10
20.785660
 20
284.680447
 30
0.0
 10
21.148244
 20
284.842305
 30
0.0
 10
21.536473
 20
284.925505
 30
0.0
 10
21.933389
 20
284.925505
 30
0.0
 10
22.321620
 20
284.842305
 30
0.0
 10
22.684205
 20
284.680447
 30
0.0
 10
23.005243
 20
284.447490
 30
0.0
 10
23.270760
 20
284.152513
 30
0.0
 10
23.469048
 20
283.808751
 30
0.0
 10
23.591799
 20
283.430953
 30
0.0
 10
23.633339
 20
283.036251
 30
0.0
 10
23.591799
 20
282.641549
 30
0.0
 10
23.469048
 20
282.263750
 30
0.0
 10
23.270760
 20
281.919989
 30
0.0
 10
23.005243
 20
281.625012
 30
0.0
 10
22.684205
 20
281.392055
 30
0.0
 10
22.321620
 20
281.230196
 30
0.0
 10
21.933389
 20
281.146996
 30
0.0
  0
LWPOLYLINE
  5
10a
100
AcDbEntity
  8
Layer_1
 62
7
100
AcDbPolyline
 90
38
 70
1
 10
6.468445
 20
252.423744
 30
0.0
 10
5.926948
 20
252.538710
 30
0.0
 10
5.421180
 20
252.763346
 30
0.0
 10
4.973275
 20
253.088956
 30
0.0
 10
4.602759
 20
253.499654
 30
0.0
 10
4.325911
 20
253.979295
 30
0.0
 10
4.154816
 20
254.505905
 30
0.0
 10
4.097029
 20
255.056454
 30
0.0
 10
4.123467
 20
255.306428
 30
0.0
 10
4.097029
 20
255.556023
 30
0.0
 10
4.123467
 20
255.805998
 30
0.0
 10
4.097029
 20
256.055594
 30
0.0
 10
4.154816
 20
256.606181
 30
0.0
 10
4.325911
 20
257.132752
 30
0.0
 10
4.602759
 20
257.612393
 30
0.0
 10
4.973275
 20
258.023092
 30
0.0
 10
5.421180
 20
258.348702
 30
0.0
 10
5.926948
 20
258.573338
 30
0.0
 10
6.468445
 20
258.688303
 30
0.0
 10
7.022066
 20
258.688303
 30
0.0
 10
7.563601
 20
258.573338
 30
0.0
 10
8.069369
 20
258.348702
 30
0.0
 10
8.517236
 20
258.023092
 30
0.0
 10
8.887752
 20
257.612393
 30
0.0
 10
9.164601
 20
257.132752
 30
0.0
 10
9.335695
 20
256.606181
 30
0.0
 10
9.393482
 20
256.055594
 30
0.0
 10
9.367044
 20
255.805998
 30
0.0
 10
9.393482
 20
255.556023
 30
0.0
 10
9.367044
 20
255.306428
 30
0.0
 10
9.393482
 20
255.056454
 30
0.0
 10
9.335695
 20
254.505905
 30
0.0
 10
9.164601
 20
253.979295
 30
0.0
 10
8.887752
 20
253.499654
 30
0.0
 10
8.517236
 20
253.088956
 30
0.0
 10
8.069369
 20
252.763346
 30
0.0
 10
7.563601
 20
252.538710
 30
0.0
 10
7.022066
 20
252.423744
 30
0.0
  0
LWPOLYLINE
  5
10b
100
AcDbEntity
  8
Layer_1
 62
7
100
AcDbPolyline
 90
38
 70
1
 10
6.468445
 20
222.446422
 30
0.0
 10
5.926948
 20
222.561388
 30
0.0
 10
5.421180
 20
222.786024
 30
0.0
 10
4.973275
 20
223.112012
 30
0.0
 10
4.602759
 20
223.522674
 30
0.0
 10
4.325911
 20
224.002314
 30
0.0
 10
4.154816
 20
224.528924
 30
0.0
 10
4.097030
 20
225.079472
 30
0.0
 10
4.123468
 20
225.329067
 30
0.0
 10
4.097030
 20
225.578664
 30
0.0
 10
4.123468
 20
225.828260
 30
0.0
 10
4.097030
 20
226.078234
 30
0.0
 10
4.154816
 20
226.628820
 30
0.0
 10
4.325911
 20
227.155393
 30
0.0
 10
4.602759
 20
227.635034
 30
0.0
 10
4.973275
 20
228.045770
 30
0.0
 10
5.421180
 20
228.371758
 30
0.0
 10
5.926948
 20
228.596395
 30
0.0
 10
6.468445
 20
228.711361
 30
0.0
 10
7.022066
 20
228.711361
 30
0.0
 10
7.563601
 20
228.596395
 30
0.0
 10
8.069369
 20
228.371758
 30
0.0
 10
8.517236
 20
228.045770
 30
0.0
 10
8.887752
 20
227.635034
 30
0.0
 10
9.164601
 20
227.155393
 30
0.0
 10
9.335695
 20
226.628820
 30
0.0
 10
9.393482
 20
226.078234
 30
0.0
 10
9.367044
 20
225.828260
 30
0.0
 10
9.393482
 20
225.578664
 30
0.0
 10
9.367044
 20
225.329067
 30
0.0
 10
9.393482
 20
225.079472
 30
0.0
 10
9.335695
 20
224.528924
 30
0.0
 10
9.164601
 20
224.002314
 30
0.0
 10
8.887752
 20
223.522674
 30
0.0
 10
8.517236
 20
223.112012
 30
0.0
 10
8.069369
 20
222.786024
 30
0.0
 10
7.563601
 20
222.561388
 30
0.0
 10
7.022066
 20
222.446422
 30
0.0
  0
LWPOLYLINE
  5
10c
100
AcDbEntity
  8
Layer_1
 62
7
100
AcDbPolyline
 90
30
 70
1
 10
30.530267
 20
219.193883
 30
0.0
 10
30.142038
 20
219.277083
 30
0.0
 10
29.779454
 20
219.438943
 30
0.0
 10
29.458416
 20
219.671521
 30
0.0
 10
29.192897
 20
219.966498
 30
0.0
 10
28.994609
 20
220.310259
 30
0.0
 10
28.871859
 20
220.688057
 30
0.0
 10
28.830319
 20
221.082759
 30
0.0
 10
28.871859
 20
221.477461
 30
0.0
 10
28.994609
 20
221.855259
 30
0.0
 10
29.192897
 20
222.199020
 30
0.0
 10
29.458416
 20
222.493998
 30
0.0
 10
29.779454
 20
222.726576
 30
0.0
 10
30.142038
 20
222.888813
 30
0.0
 10
30.530267
 20
222.972013
 30
0.0
 10
30.927184
 20
222.972013
 30
0.0
 10
31.315414
 20
222.888813
 30
0.0
 10
31.677999
 20
222.726576
 30
0.0
 10
31.999036
 20
222.493998
 30
0.0
 10
32.264554
 20
222.199020
 30
0.0
 10
32.462843
 20
221.855259
 30
0.0
 10
32.585592
 20
221.477461
 30
0.0
 10
32.627132
 20
221.082759
 30
0.0
 10
32.585592
 20
220.688057
 30
0.0
 10
32.462843
 20
220.310259
 30
0.0
 10
32.264554
 20
219.966498
 30
0.0
 10
31.999036
 20
219.671521
 30
0.0
 10
31.677999
 20
219.438943
 30
0.0
 10
31.315414
 20
219.277083
 30
0.0
 10
30.927184
 20
219.193883
 30
0.0
  0
LWPOLYLINE
  5
10d
100
AcDbEntity
  8
Layer_1
 62
7
100
AcDbPolyline
 90
30
 70
1
 10
352.307810
 20
219.193883
 30
0.0
 10
351.920110
 20
219.277083
 30
0.0
 10
351.557530
 20
219.438943
 30
0.0
 10
351.236860
 20
219.671521
 30
0.0
 10
350.970970
 20
219.966498
 30
0.0
 10
350.772300
 20
220.310259
 30
0.0
 10
350.650300
 20
220.688057
 30
0.0
 10
350.608400
 20
221.082759
 30
0.0
 10
350.650300
 20
221.477461
 30
0.0
 10
350.772300
 20
221.855259
 30
0.0
 10
350.970970
 20
222.199020
 30
0.0
 10
351.236860
 20
222.493998
 30
0.0
 10
351.557530
 20
222.726576
 30
0.0
 10
351.920110
 20
222.888813
 30
0.0
 10
352.307810
 20
222.972013
 30
0.0
 10
352.705560
 20
222.972013
 30
0.0
 10
353.093300
 20
222.888813
 30
0.0
 10
353.455880
 20
222.726576
 30
0.0
 10
353.776540
 20
222.493998
 30
0.0
 10
354.042440
 20
222.199020
 30
0.0
 10
354.241100
 20
221.855259
 30
0.0
 10
354.363100
 20
221.477461
 30
0.0
 10
354.405000
 20
221.082759
 30
0.0
 10
354.363100
 20
220.688057
 30
0.0
 10
354.241100
 20
220.310259
 30
0.0
 10
354.042440
 20
219.966498
 30
0.0
 10
353.776540
 20
219.671521
 30
0.0
 10
353.455880
 20
219.438943
 30
0.0
 10
353.093300
 20
219.277083
 30
0.0
 10
352.705560
 20
219.193883
 30
0.0
  0
LWPOLYLINE
  5
10e
100
AcDbEntity
  8
Layer_1
 62
7
100
AcDbPolyline
 90
30
 70
1
 10
360.402250
 20
214.697258
 30
0.0
 10
360.014510
 20
214.780458
 30
0.0
 10
359.651930
 20
214.942318
 30
0.0
 10
359.331260
 20
215.174896
 30
0.0
 10
359.065370
 20
215.469873
 30
0.0
 10
358.866700
 20
215.813634
 30
0.0
 10
358.744710
 20
216.191432
 30
0.0
 10
358.702810
 20
216.586134
 30
0.0
 10
358.744710
 20
216.980837
 30
0.0
 10
358.866700
 20
217.358634
 30
0.0
 10
359.065370
 20
217.702396
 30
0.0
 10
359.331260
 20
217.997374
 30
0.0
 10
359.651930
 20
218.229952
 30
0.0
 10
360.014510
 20
218.391811
 30
0.0
 10
360.402250
 20
218.475011
 30
0.0
 10
360.799990
 20
218.475011
 30
0.0
 10
361.187700
 20
218.391811
 30
0.0
 10
361.550660
 20
218.229952
 30
0.0
 10
361.871310
 20
217.997374
 30
0.0
 10
362.137220
 20
217.702396
 30
0.0
 10
362.335880
 20
217.358634
 30
0.0
 10
362.457870
 20
216.980837
 30
0.0
 10
362.499770
 20
216.586134
 30
0.0
 10
362.457870
 20
216.191432
 30
0.0
 10
362.335880
 20
215.813634
 30
0.0
 10
362.137220
 20
215.469873
 30
0.0
 10
361.871310
 20
215.174896
 30
0.0
 10
361.550660
 20
214.942318
 30
0.0
 10
361.187700
 20
214.780458
 30
0.0
 10
360.799990
 20
214.697258
 30
0.0
  0
LWPOLYLINE
  5
10f
100
AcDbEntity
  8
Layer_1
 62
7
100
AcDbPolyline
 90
30
 70
1
 10
327.325070
 20
213.198434
 30
0.0
 10
326.937320
 20
213.281634
 30
0.0
 10
326.574740
 20
213.443492
 30
0.0
 10
326.254080
 20
213.676071
 30
0.0
 10
325.988180
 20
213.971048
 30
0.0
 10
325.789520
 20
214.314810
 30
0.0
 10
325.667530
 20
214.692608
 30
0.0
 10
325.625630
 20
215.087310
 30
0.0
 10
325.667530
 20
215.482012
 30
0.0
 10
325.789520
 20
215.859810
 30
0.0
 10
325.988180
 20
216.203571
 30
0.0
 10
326.254080
 20
216.498171
 30
0.0
 10
326.574740
 20
216.730749
 30
0.0
 10
326.937320
 20
216.892607
 30
0.0
 10
327.325070
 20
216.975807
 30
0.0
 10
327.722770
 20
216.975807
 30
0.0
 10
328.110520
 20
216.892607
 30
0.0
 10
328.473100
 20
216.730749
 30
0.0
 10
328.793760
 20
216.498171
 30
0.0
 10
329.059660
 20
216.203571
 30
0.0
 10
329.258320
 20
215.859810
 30
0.0
 10
329.380320
 20
215.482012
 30
0.0
 10
329.422220
 20
215.087310
 30
0.0
 10
329.380320
 20
214.692608
 30
0.0
 10
329.258320
 20
214.314810
 30
0.0
 10
329.059660
 20
213.971048
 30
0.0
 10
328.793760
 20
213.676071
 30
0.0
 10
328.473100
 20
213.443492
 30
0.0
 10
328.110520
 20
213.281634
 30
0.0
 10
327.722770
 20
213.198434
 30
0.0
  0
LWPOLYLINE
  5
110
100
AcDbEntity
  8
Layer_1
 62
7
100
AcDbPolyline
 90
30
 70
1
 10
55.513018
 20
213.198434
 30
0.0
 10
55.124788
 20
213.281634
 30
0.0
 10
54.762204
 20
213.443492
 30
0.0
 10
54.441165
 20
213.676071
 30
0.0
 10
54.175648
 20
213.971048
 30
0.0
 10
53.977359
 20
214.314810
 30
0.0
 10
53.854610
 20
214.692608
 30
0.0
 10
53.813060
 20
215.087310
 30
0.0
 10
53.854610
 20
215.482012
 30
0.0
 10
53.977359
 20
215.859810
 30
0.0
 10
54.175648
 20
216.203571
 30
0.0
 10
54.441165
 20
216.498171
 30
0.0
 10
54.762204
 20
216.730749
 30
0.0
 10
55.124788
 20
216.892607
 30
0.0
 10
55.513018
 20
216.975807
 30
0.0
 10
55.909934
 20
216.975807
 30
0.0
 10
56.298164
 20
216.892607
 30
0.0
 10
56.660748
 20
216.730749
 30
0.0
 10
56.981786
 20
216.498171
 30
0.0
 10
57.247304
 20
216.203571
 30
0.0
 10
57.445592
 20
215.859810
 30
0.0
 10
57.568342
 20
215.482012
 30
0.0
 10
57.609892
 20
215.087310
 30
0.0
 10
57.568342
 20
214.692608
 30
0.0
 10
57.445592
 20
214.314810
 30
0.0
 10
57.247304
 20
213.971048
 30
0.0
 10
56.981786
 20
213.676071
 30
0.0
 10
56.660748
 20
213.443492
 30
0.0
 10
56.298164
 20
213.281634
 30
0.0
 10
55.909934
 20
213.198434
 30
0.0
  0
LWPOLYLINE
  5
111
100
AcDbEntity
  8
Layer_1
 62
7
100
AcDbPolyline
 90
30
 70
1
 10
325.426370
 20
204.704868
 30
0.0
 10
325.038630
 20
204.788068
 30
0.0
 10
324.676050
 20
204.949928
 30
0.0
 10
324.355380
 20
205.182884
 30
0.0
 10
324.089490
 20
205.477484
 30
0.0
 10
323.890820
 20
205.821245
 30
0.0
 10
323.768820
 20
206.199043
 30
0.0
 10
323.726920
 20
206.593746
 30
0.0
 10
323.768820
 20
206.988448
 30
0.0
 10
323.890820
 20
207.366246
 30
0.0
 10
324.089490
 20
207.710007
 30
0.0
 10
324.355380
 20
208.004605
 30
0.0
 10
324.676050
 20
208.237562
 30
0.0
 10
325.038630
 20
208.399421
 30
0.0
 10
325.426370
 20
208.482621
 30
0.0
 10
325.824110
 20
208.482621
 30
0.0
 10
326.211820
 20
208.399421
 30
0.0
 10
326.574400
 20
208.237562
 30
0.0
 10
326.895070
 20
208.004605
 30
0.0
 10
327.160960
 20
207.710007
 30
0.0
 10
327.359620
 20
207.366246
 30
0.0
 10
327.481620
 20
206.988448
 30
0.0
 10
327.523520
 20
206.593746
 30
0.0
 10
327.481620
 20
206.199043
 30
0.0
 10
327.359620
 20
205.821245
 30
0.0
 10
327.160960
 20
205.477484
 30
0.0
 10
326.895070
 20
205.182884
 30
0.0
 10
326.574400
 20
204.949928
 30
0.0
 10
326.211820
 20
204.788068
 30
0.0
 10
325.824110
 20
204.704868
 30
0.0
  0
LWPOLYLINE
  5
112
100
AcDbEntity
  8
Layer_1
 62
7
100
AcDbPolyline
 90
30
 70
1
 10
235.488420
 20
204.704868
 30
0.0
 10
235.100690
 20
204.788068
 30
0.0
 10
234.738100
 20
204.949928
 30
0.0
 10
234.417440
 20
205.182884
 30
0.0
 10
234.151550
 20
205.477484
 30
0.0
 10
233.952870
 20
205.821245
 30
0.0
 10
233.830880
 20
206.199043
 30
0.0
 10
233.788980
 20
206.593746
 30
0.0
 10
233.830880
 20
206.988448
 30
0.0
 10
233.952870
 20
207.366246
 30
0.0
 10
234.151550
 20
207.710007
 30
0.0
 10
234.417440
 20
208.004605
 30
0.0
 10
234.738100
 20
208.237562
 30
0.0
 10
235.100690
 20
208.399421
 30
0.0
 10
235.488420
 20
208.482621
 30
0.0
 10
235.886170
 20
208.482621
 30
0.0
 10
236.273870
 20
208.399421
 30
0.0
 10
236.636460
 20
208.237562
 30
0.0
 10
236.957120
 20
208.004605
 30
0.0
 10
237.223010
 20
207.710007
 30
0.0
 10
237.421680
 20
207.366246
 30
0.0
 10
237.543680
 20
206.988448
 30
0.0
 10
237.585580
 20
206.593746
 30
0.0
 10
237.543680
 20
206.199043
 30
0.0
 10
237.421680
 20
205.821245
 30
0.0
 10
237.223010
 20
205.477484
 30
0.0
 10
236.957120
 20
205.182884
 30
0.0
 10
236.636460
 20
204.949928
 30
0.0
 10
236.273870
 20
204.788068
 30
0.0
 10
235.886170
 20
204.704868
 30
0.0
  0
LWPOLYLINE
  5
113
100
AcDbEntity
  8
Layer_1
 62
7
100
AcDbPolyline
 90
38
 70
1
 10
6.468445
 20
184.475180
 30
0.0
 10
5.926948
 20
184.589770
 30
0.0
 10
5.421180
 20
184.814410
 30
0.0
 10
4.973275
 20
185.140400
 30
0.0
 10
4.602759
 20
185.551050
 30
0.0
 10
4.325911
 20
186.030700
 30
0.0
 10
4.154816
 20
186.557310
 30
0.0
 10
4.097029
 20
187.107930
 30
0.0
 10
4.123467
 20
187.357910
 30
0.0
 10
4.097029
 20
187.607500
 30
0.0
 10
4.123467
 20
187.857100
 30
0.0
 10
4.097029
 20
188.106690
 30
0.0
 10
4.154816
 20
188.657240
 30
0.0
 10
4.325911
 20
189.183890
 30
0.0
 10
4.602759
 20
189.663530
 30
0.0
 10
4.973275
 20
190.074190
 30
0.0
 10
5.421180
 20
190.400180
 30
0.0
 10
5.926948
 20
190.624820
 30
0.0
 10
6.468445
 20
190.739790
 30
0.0
 10
7.022066
 20
190.739790
 30
0.0
 10
7.563601
 20
190.624820
 30
0.0
 10
8.069369
 20
190.400180
 30
0.0
 10
8.517236
 20
190.074190
 30
0.0
 10
8.887752
 20
189.663530
 30
0.0
 10
9.164601
 20
189.183890
 30
0.0
 10
9.335695
 20
188.657240
 30
0.0
 10
9.393482
 20
188.106690
 30
0.0
 10
9.367044
 20
187.857100
 30
0.0
 10
9.393482
 20
187.607500
 30
0.0
 10
9.367044
 20
187.357910
 30
0.0
 10
9.393482
 20
187.107930
 30
0.0
 10
9.335695
 20
186.557310
 30
0.0
 10
9.164601
 20
186.030700
 30
0.0
 10
8.887752
 20
185.551050
 30
0.0
 10
8.517236
 20
185.140400
 30
0.0
 10
8.069369
 20
184.814410
 30
0.0
 10
7.563601
 20
184.589770
 30
0.0
 10
7.022066
 20
184.475180
 30
0.0
  0
LWPOLYLINE
  5
114
100
AcDbEntity
  8
Layer_1
 62
7
100
AcDbPolyline
 90
4
 70
1
 10
228.592180
 20
100.174030
 30
0.0
 10
228.592180
 20
190.105960
 30
0.0
 10
334.519120
 20
190.105960
 30
0.0
 10
334.519120
 20
100.174030
 30
0.0
  0
LWPOLYLINE
  5
115
100
AcDbEntity
  8
Layer_1
 62
7
100
AcDbPolyline
 90
38
 70
1
 10
375.214050
 20
178.979380
 30
0.0
 10
374.672400
 20
179.094340
 30
0.0
 10
374.166750
 20
179.318980
 30
0.0
 10
373.719070
 20
179.644590
 30
0.0
 10
373.348170
 20
180.055250
 30
0.0
 10
373.071330
 20
180.534890
 30
0.0
 10
372.900620
 20
181.061460
 30
0.0
 10
372.842820
 20
181.612090
 30
0.0
 10
372.869220
 20
181.861690
 30
0.0
 10
372.842820
 20
182.111660
 30
0.0
 10
372.869220
 20
182.361250
 30
0.0
 10
372.842820
 20
182.610850
 30
0.0
 10
372.900620
 20
183.161440
 30
0.0
 10
373.071330
 20
183.688050
 30
0.0
 10
373.348170
 20
184.167650
 30
0.0
 10
373.719070
 20
184.578390
 30
0.0
 10
374.166750
 20
184.904370
 30
0.0
 10
374.672400
 20
185.129010
 30
0.0
 10
375.214050
 20
185.243980
 30
0.0
 10
375.767640
 20
185.243980
 30
0.0
 10
376.309280
 20
185.129010
 30
0.0
 10
376.814930
 20
184.904370
 30
0.0
 10
377.262610
 20
184.578390
 30
0.0
 10
377.633510
 20
184.167650
 30
0.0
 10
377.910350
 20
183.688050
 30
0.0
 10
378.081070
 20
183.161440
 30
0.0
 10
378.138870
 20
182.610850
 30
0.0
 10
378.112470
 20
182.361250
 30
0.0
 10
378.138870
 20
182.111660
 30
0.0
 10
378.112470
 20
181.861690
 30
0.0
 10
378.138870
 20
181.612090
 30
0.0
 10
378.081070
 20
181.061460
 30
0.0
 10
377.910350
 20
180.534890
 30
0.0
 10
377.633510
 20
180.055250
 30
0.0
 10
377.262610
 20
179.644590
 30
0.0
 10
376.814930
 20
179.318980
 30
0.0
 10
376.309280
 20
179.094340
 30
0.0
 10
375.767640
 20
178.979380
 30
0.0
  0
LWPOLYLINE
  5
116
100
AcDbEntity
  8
Layer_1
 62
7
100
AcDbPolyline
 90
38
 70
1
 10
6.468445
 20
168.487310
 30
0.0
 10
5.926948
 20
168.602260
 30
0.0
 10
5.421180
 20
168.826900
 30
0.0
 10
4.973275
 20
169.152510
 30
0.0
 10
4.602759
 20
169.563180
 30
0.0
 10
4.325911
 20
170.042820
 30
0.0
 10
4.154816
 20
170.569420
 30
0.0
 10
4.097029
 20
171.120010
 30
0.0
 10
4.123467
 20
171.369610
 30
0.0
 10
4.097029
 20
171.619210
 30
0.0
 10
4.123467
 20
171.868810
 30
0.0
 10
4.097029
 20
172.118390
 30
0.0
 10
4.154816
 20
172.668940
 30
0.0
 10
4.325911
 20
173.195560
 30
0.0
 10
4.602759
 20
173.675200
 30
0.0
 10
4.973275
 20
174.085890
 30
0.0
 10
5.421180
 20
174.411880
 30
0.0
 10
5.926948
 20
174.636520
 30
0.0
 10
6.468445
 20
174.751490
 30
0.0
 10
7.022066
 20
174.751490
 30
0.0
 10
7.563601
 20
174.636520
 30
0.0
 10
8.069369
 20
174.411880
 30
0.0
 10
8.517236
 20
174.085890
 30
0.0
 10
8.887752
 20
173.675200
 30
0.0
 10
9.164601
 20
173.195560
 30
0.0
 10
9.335695
 20
172.668940
 30
0.0
 10
9.393482
 20
172.118390
 30
0.0
 10
9.367044
 20
171.868810
 30
0.0
 10
9.393482
 20
171.619210
 30
0.0
 10
9.367044
 20
171.369610
 30
0.0
 10
9.393482
 20
171.120010
 30
0.0
 10
9.335695
 20
170.569420
 30
0.0
 10
9.164601
 20
170.042820
 30
0.0
 10
8.887752
 20
169.563180
 30
0.0
 10
8.517236
 20
169.152510
 30
0.0
 10
8.069369
 20
168.826900
 30
0.0
 10
7.563601
 20
168.602260
 30
0.0
 10
7.022066
 20
168.487310
 30
0.0
  0
LWPOLYLINE
  5
117
100
AcDbEntity
  8
Layer_1
 62
7
100
AcDbPolyline
 90
30
 70
1
 10
181.373790
 20
167.735860
 30
0.0
 10
180.883130
 20
167.839860
 30
0.0
 10
180.425440
 20
168.044460
 30
0.0
 10
180.019730
 20
168.338300
 30
0.0
 10
179.683950
 20
168.711190
 30
0.0
 10
179.433170
 20
169.145900
 30
0.0
 10
179.278310
 20
169.622510
 30
0.0
 10
179.226210
 20
170.121130
 30
0.0
 10
179.278310
 20
170.619760
 30
0.0
 10
179.433170
 20
171.096380
 30
0.0
 10
179.683950
 20
171.531090
 30
0.0
 10
180.019730
 20
171.903970
 30
0.0
 10
180.425440
 20
172.197820
 30
0.0
 10
180.883130
 20
172.402400
 30
0.0
 10
181.373790
 20
172.506400
 30
0.0
 10
181.875440
 20
172.506400
 30
0.0
 10
182.366100
 20
172.402400
 30
0.0
 10
182.823780
 20
172.197820
 30
0.0
 10
183.229500
 20
171.903970
 30
0.0
 10
183.565260
 20
171.531090
 30
0.0
 10
183.816060
 20
171.096380
 30
0.0
 10
183.970910
 20
170.619760
 30
0.0
 10
184.023010
 20
170.121130
 30
0.0
 10
183.970910
 20
169.622510
 30
0.0
 10
183.816060
 20
169.145900
 30
0.0
 10
183.565260
 20
168.711190
 30
0.0
 10
183.229500
 20
168.338300
 30
0.0
 10
182.823780
 20
168.044460
 30
0.0
 10
182.366100
 20
167.839860
 30
0.0
 10
181.875440
 20
167.735860
 30
0.0
  0
LWPOLYLINE
  5
118
100
AcDbEntity
  8
Layer_1
 62
7
100
AcDbPolyline
 90
30
 70
1
 10
131.460210
 20
168.232490
 30
0.0
 10
131.072490
 20
168.315590
 30
0.0
 10
130.709890
 20
168.477830
 30
0.0
 10
130.389240
 20
168.710420
 30
0.0
 10
130.123350
 20
169.005380
 30
0.0
 10
129.924670
 20
169.349150
 30
0.0
 10
129.802680
 20
169.726950
 30
0.0
 10
129.760780
 20
170.121650
 30
0.0
 10
129.802680
 20
170.516390
 30
0.0
 10
129.924670
 20
170.894190
 30
0.0
 10
130.123350
 20
171.237950
 30
0.0
 10
130.389240
 20
171.532930
 30
0.0
 10
130.709890
 20
171.765510
 30
0.0
 10
131.072490
 20
171.927360
 30
0.0
 10
131.460210
 20
172.010560
 30
0.0
 10
131.857930
 20
172.010560
 30
0.0
 10
132.245670
 20
171.927360
 30
0.0
 10
132.608250
 20
171.765510
 30
0.0
 10
132.928920
 20
171.532930
 30
0.0
 10
133.194810
 20
171.237950
 30
0.0
 10
133.393470
 20
170.894190
 30
0.0
 10
133.515470
 20
170.516390
 30
0.0
 10
133.557370
 20
170.121650
 30
0.0
 10
133.515470
 20
169.726950
 30
0.0
 10
133.393470
 20
169.349150
 30
0.0
 10
133.194810
 20
169.005380
 30
0.0
 10
132.928920
 20
168.710420
 30
0.0
 10
132.608250
 20
168.477830
 30
0.0
 10
132.245670
 20
168.315590
 30
0.0
 10
131.857930
 20
168.232490
 30
0.0
  0
LWPOLYLINE
  5
119
100
AcDbEntity
  8
Layer_1
 62
7
100
AcDbPolyline
 90
30
 70
1
 10
80.157619
 20
169.004910
 30
0.0
 10
79.958954
 20
169.348670
 30
0.0
 10
79.836959
 20
169.726470
 30
0.0
 10
79.795039
 20
170.121170
 30
0.0
 10
79.836959
 20
170.515880
 30
0.0
 10
79.958954
 20
170.893670
 30
0.0
 10
80.157619
 20
171.237430
 30
0.0
 10
80.423515
 20
171.532410
 30
0.0
 10
80.744176
 20
171.765000
 30
0.0
 10
81.106761
 20
171.927220
 30
0.0
 10
81.494499
 20
172.010520
 30
0.0
 10
81.892208
 20
172.010520
 30
0.0
 10
82.279947
 20
171.927220
 30
0.0
 10
82.642532
 20
171.765000
 30
0.0
 10
82.963192
 20
171.532410
 30
0.0
 10
83.229087
 20
171.237430
 30
0.0
 10
83.427754
 20
170.893670
 30
0.0
 10
83.549748
 20
170.515880
 30
0.0
 10
83.591668
 20
170.121170
 30
0.0
 10
83.549748
 20
169.726470
 30
0.0
 10
83.427754
 20
169.348670
 30
0.0
 10
83.229087
 20
169.004910
 30
0.0
 10
82.963192
 20
168.709940
 30
0.0
 10
82.642532
 20
168.477360
 30
0.0
 10
82.279947
 20
168.315500
 30
0.0
 10
81.892208
 20
168.232400
 30
0.0
 10
81.494499
 20
168.232400
 30
0.0
 10
81.106761
 20
168.315500
 30
0.0
 10
80.744176
 20
168.477360
 30
0.0
 10
80.423515
 20
168.709940
 30
0.0
  0
LWPOLYLINE
  5
11a
100
AcDbEntity
  8
Layer_1
 62
7
100
AcDbPolyline
 90
30
 70
1
 10
206.408510
 20
168.232490
 30
0.0
 10
206.020770
 20
168.315590
 30
0.0
 10
205.658190
 20
168.477830
 30
0.0
 10
205.337530
 20
168.710420
 30
0.0
 10
205.071630
 20
169.005380
 30
0.0
 10
204.872960
 20
169.349150
 30
0.0
 10
204.750970
 20
169.726950
 30
0.0
 10
204.709070
 20
170.121650
 30
0.0
 10
204.750970
 20
170.516390
 30
0.0
 10
204.872960
 20
170.894190
 30
0.0
 10
205.071630
 20
171.237950
 30
0.0
 10
205.337530
 20
171.532930
 30
0.0
 10
205.658190
 20
171.765510
 30
0.0
 10
206.020770
 20
171.927360
 30
0.0
 10
206.408510
 20
172.010560
 30
0.0
 10
206.806220
 20
172.010560
 30
0.0
 10
207.193960
 20
171.927360
 30
0.0
 10
207.556540
 20
171.765510
 30
0.0
 10
207.877210
 20
171.532930
 30
0.0
 10
208.143100
 20
171.237950
 30
0.0
 10
208.341760
 20
170.894190
 30
0.0
 10
208.463760
 20
170.516390
 30
0.0
 10
208.505660
 20
170.121650
 30
0.0
 10
208.463760
 20
169.726950
 30
0.0
 10
208.341760
 20
169.349150
 30
0.0
 10
208.143100
 20
169.005380
 30
0.0
 10
207.877210
 20
168.710420
 30
0.0
 10
207.556540
 20
168.477830
 30
0.0
 10
207.193960
 20
168.315590
 30
0.0
 10
206.806220
 20
168.232490
 30
0.0
  0
LWPOLYLINE
  5
11b
100
AcDbEntity
  8
Layer_1
 62
7
100
AcDbPolyline
 90
30
 70
1
 10
351.308510
 20
168.232490
 30
0.0
 10
350.920780
 20
168.315590
 30
0.0
 10
350.558190
 20
168.477830
 30
0.0
 10
350.237530
 20
168.710420
 30
0.0
 10
349.971640
 20
169.005380
 30
0.0
 10
349.772980
 20
169.349150
 30
0.0
 10
349.650970
 20
169.726950
 30
0.0
 10
349.609070
 20
170.121650
 30
0.0
 10
349.650970
 20
170.516390
 30
0.0
 10
349.772980
 20
170.894190
 30
0.0
 10
349.971640
 20
171.237950
 30
0.0
 10
350.237530
 20
171.532930
 30
0.0
 10
350.558190
 20
171.765510
 30
0.0
 10
350.920780
 20
171.927360
 30
0.0
 10
351.308510
 20
172.010560
 30
0.0
 10
351.706220
 20
172.010560
 30
0.0
 10
352.093960
 20
171.927360
 30
0.0
 10
352.456550
 20
171.765510
 30
0.0
 10
352.777210
 20
171.532930
 30
0.0
 10
353.043110
 20
171.237950
 30
0.0
 10
353.241770
 20
170.894190
 30
0.0
 10
353.363760
 20
170.516390
 30
0.0
 10
353.405660
 20
170.121650
 30
0.0
 10
353.363760
 20
169.726950
 30
0.0
 10
353.241770
 20
169.349150
 30
0.0
 10
353.043110
 20
169.005380
 30
0.0
 10
352.777210
 20
168.710420
 30
0.0
 10
352.456550
 20
168.477830
 30
0.0
 10
352.093960
 20
168.315590
 30
0.0
 10
351.706220
 20
168.232490
 30
0.0
  0
LWPOLYLINE
  5
11c
100
AcDbEntity
  8
Layer_1
 62
7
100
AcDbPolyline
 90
30
 70
1
 10
31.529565
 20
168.232490
 30
0.0
 10
31.141336
 20
168.315590
 30
0.0
 10
30.778751
 20
168.477830
 30
0.0
 10
30.457712
 20
168.710420
 30
0.0
 10
30.192195
 20
169.005380
 30
0.0
 10
29.993907
 20
169.349150
 30
0.0
 10
29.871157
 20
169.726950
 30
0.0
 10
29.829617
 20
170.121650
 30
0.0
 10
29.871157
 20
170.516390
 30
0.0
 10
29.993907
 20
170.894190
 30
0.0
 10
30.192195
 20
171.237950
 30
0.0
 10
30.457712
 20
171.532930
 30
0.0
 10
30.778751
 20
171.765510
 30
0.0
 10
31.141336
 20
171.927360
 30
0.0
 10
31.529565
 20
172.010560
 30
0.0
 10
31.926482
 20
172.010560
 30
0.0
 10
32.314711
 20
171.927360
 30
0.0
 10
32.677296
 20
171.765510
 30
0.0
 10
32.998335
 20
171.532930
 30
0.0
 10
33.263853
 20
171.237950
 30
0.0
 10
33.462141
 20
170.894190
 30
0.0
 10
33.584891
 20
170.516390
 30
0.0
 10
33.626431
 20
170.121650
 30
0.0
 10
33.584891
 20
169.726950
 30
0.0
 10
33.462141
 20
169.349150
 30
0.0
 10
33.263853
 20
169.005380
 30
0.0
 10
32.998335
 20
168.710420
 30
0.0
 10
32.677296
 20
168.477830
 30
0.0
 10
32.314711
 20
168.315590
 30
0.0
 10
31.926482
 20
168.232490
 30
0.0
  0
LWPOLYLINE
  5
11d
100
AcDbEntity
  8
Layer_1
 62
7
100
AcDbPolyline
 90
30
 70
1
 10
106.477450
 20
168.232490
 30
0.0
 10
106.089740
 20
168.315590
 30
0.0
 10
105.727150
 20
168.477830
 30
0.0
 10
105.406490
 20
168.710420
 30
0.0
 10
105.140600
 20
169.005380
 30
0.0
 10
104.941930
 20
169.349150
 30
0.0
 10
104.819930
 20
169.726950
 30
0.0
 10
104.778030
 20
170.121650
 30
0.0
 10
104.819930
 20
170.516390
 30
0.0
 10
104.941930
 20
170.894190
 30
0.0
 10
105.140600
 20
171.237950
 30
0.0
 10
105.406490
 20
171.532930
 30
0.0
 10
105.727150
 20
171.765510
 30
0.0
 10
106.089740
 20
171.927360
 30
0.0
 10
106.477450
 20
172.010560
 30
0.0
 10
106.875180
 20
172.010560
 30
0.0
 10
107.262930
 20
171.927360
 30
0.0
 10
107.625510
 20
171.765510
 30
0.0
 10
107.946170
 20
171.532930
 30
0.0
 10
108.212070
 20
171.237950
 30
0.0
 10
108.410730
 20
170.894190
 30
0.0
 10
108.532720
 20
170.516390
 30
0.0
 10
108.574620
 20
170.121650
 30
0.0
 10
108.532720
 20
169.726950
 30
0.0
 10
108.410730
 20
169.349150
 30
0.0
 10
108.212070
 20
169.005380
 30
0.0
 10
107.946170
 20
168.710420
 30
0.0
 10
107.625510
 20
168.477830
 30
0.0
 10
107.262930
 20
168.315590
 30
0.0
 10
106.875180
 20
168.232490
 30
0.0
  0
LWPOLYLINE
  5
11e
100
AcDbEntity
  8
Layer_1
 62
7
100
AcDbPolyline
 90
30
 70
1
 10
156.442970
 20
168.232490
 30
0.0
 10
156.055230
 20
168.315590
 30
0.0
 10
155.692650
 20
168.477830
 30
0.0
 10
155.371990
 20
168.710420
 30
0.0
 10
155.106100
 20
169.005380
 30
0.0
 10
154.907420
 20
169.349150
 30
0.0
 10
154.785440
 20
169.726950
 30
0.0
 10
154.743540
 20
170.121650
 30
0.0
 10
154.785440
 20
170.516390
 30
0.0
 10
154.907420
 20
170.894190
 30
0.0
 10
155.106100
 20
171.237950
 30
0.0
 10
155.371990
 20
171.532930
 30
0.0
 10
155.692650
 20
171.765510
 30
0.0
 10
156.055230
 20
171.927360
 30
0.0
 10
156.442970
 20
172.010560
 30
0.0
 10
156.840680
 20
172.010560
 30
0.0
 10
157.228430
 20
171.927360
 30
0.0
 10
157.591010
 20
171.765510
 30
0.0
 10
157.911680
 20
171.532930
 30
0.0
 10
158.177570
 20
171.237950
 30
0.0
 10
158.376230
 20
170.894190
 30
0.0
 10
158.498230
 20
170.516390
 30
0.0
 10
158.540130
 20
170.121650
 30
0.0
 10
158.498230
 20
169.726950
 30
0.0
 10
158.376230
 20
169.349150
 30
0.0
 10
158.177570
 20
169.005380
 30
0.0
 10
157.911680
 20
168.710420
 30
0.0
 10
157.591010
 20
168.477830
 30
0.0
 10
157.228430
 20
168.315590
 30
0.0
 10
156.840680
 20
168.232490
 30
0.0
  0
LWPOLYLINE
  5
11f
100
AcDbEntity
  8
Layer_1
 62
7
100
AcDbPolyline
 90
38
 70
1
 10
375.214050
 20
162.991460
 30
0.0
 10
374.672400
 20
163.106430
 30
0.0
 10
374.166750
 20
163.331070
 30
0.0
 10
373.719070
 20
163.657050
 30
0.0
 10
373.348170
 20
164.067790
 30
0.0
 10
373.071330
 20
164.547420
 30
0.0
 10
372.900620
 20
165.074000
 30
0.0
 10
372.842820
 20
165.624590
 30
0.0
 10
372.869220
 20
165.874180
 30
0.0
 10
372.842820
 20
166.124160
 30
0.0
 10
372.869220
 20
166.373750
 30
0.0
 10
372.842820
 20
166.623350
 30
0.0
 10
372.900620
 20
167.173900
 30
0.0
 10
373.071330
 20
167.700510
 30
0.0
 10
373.348170
 20
168.180150
 30
0.0
 10
373.719070
 20
168.590850
 30
0.0
 10
374.166750
 20
168.916830
 30
0.0
 10
374.672400
 20
169.141480
 30
0.0
 10
375.214050
 20
169.256430
 30
0.0
 10
375.767640
 20
169.256430
 30
0.0
 10
376.309280
 20
169.141480
 30
0.0
 10
376.814930
 20
168.916830
 30
0.0
 10
377.262610
 20
168.590850
 30
0.0
 10
377.633510
 20
168.180150
 30
0.0
 10
377.910350
 20
167.700510
 30
0.0
 10
378.081070
 20
167.173900
 30
0.0
 10
378.138870
 20
166.623350
 30
0.0
 10
378.112470
 20
166.373750
 30
0.0
 10
378.138870
 20
166.124160
 30
0.0
 10
378.112470
 20
165.874180
 30
0.0
 10
378.138870
 20
165.624590
 30
0.0
 10
378.081070
 20
165.074000
 30
0.0
 10
377.910350
 20
164.547420
 30
0.0
 10
377.633510
 20
164.067790
 30
0.0
 10
377.262610
 20
163.657050
 30
0.0
 10
376.814930
 20
163.331070
 30
0.0
 10
376.309280
 20
163.106430
 30
0.0
 10
375.767640
 20
162.991460
 30
0.0
  0
LWPOLYLINE
  5
120
100
AcDbEntity
  8
Layer_1
 62
7
100
AcDbPolyline
 90
30
 70
1
 10
344.313350
 20
124.265760
 30
0.0
 10
343.925610
 20
124.348860
 30
0.0
 10
343.563030
 20
124.510720
 30
0.0
 10
343.242370
 20
124.743680
 30
0.0
 10
342.976480
 20
125.038290
 30
0.0
 10
342.777810
 20
125.382050
 30
0.0
 10
342.655810
 20
125.759840
 30
0.0
 10
342.613910
 20
126.154550
 30
0.0
 10
342.655810
 20
126.549250
 30
0.0
 10
342.777810
 20
126.927040
 30
0.0
 10
342.976480
 20
127.270800
 30
0.0
 10
343.242370
 20
127.565400
 30
0.0
 10
343.563030
 20
127.797990
 30
0.0
 10
343.925610
 20
127.960220
 30
0.0
 10
344.313350
 20
128.043320
 30
0.0
 10
344.711060
 20
128.043320
 30
0.0
 10
345.098800
 20
127.960220
 30
0.0
 10
345.461380
 20
127.797990
 30
0.0
 10
345.782050
 20
127.565400
 30
0.0
 10
346.047940
 20
127.270800
 30
0.0
 10
346.246600
 20
126.927040
 30
0.0
 10
346.368600
 20
126.549250
 30
0.0
 10
346.410500
 20
126.154550
 30
0.0
 10
346.368600
 20
125.759840
 30
0.0
 10
346.246600
 20
125.382050
 30
0.0
 10
346.047940
 20
125.038290
 30
0.0
 10
345.782050
 20
124.743680
 30
0.0
 10
345.461380
 20
124.510720
 30
0.0
 10
345.098800
 20
124.348860
 30
0.0
 10
344.711060
 20
124.265760
 30
0.0
  0
LWPOLYLINE
  5
121
100
AcDbEntity
  8
Layer_1
 62
7
100
AcDbPolyline
 90
30
 70
1
 10
181.373790
 20
117.773720
 30
0.0
 10
180.883130
 20
117.877720
 30
0.0
 10
180.425440
 20
118.082320
 30
0.0
 10
180.019730
 20
118.376160
 30
0.0
 10
179.683950
 20
118.749040
 30
0.0
 10
179.433170
 20
119.183680
 30
0.0
 10
179.278310
 20
119.660330
 30
0.0
 10
179.226210
 20
120.158950
 30
0.0
 10
179.278310
 20
120.657590
 30
0.0
 10
179.433170
 20
121.134240
 30
0.0
 10
179.683950
 20
121.568870
 30
0.0
 10
180.019730
 20
121.941760
 30
0.0
 10
180.425440
 20
122.235600
 30
0.0
 10
180.883130
 20
122.440190
 30
0.0
 10
181.373790
 20
122.544190
 30
0.0
 10
181.875440
 20
122.544190
 30
0.0
 10
182.366100
 20
122.440190
 30
0.0
 10
182.823780
 20
122.235600
 30
0.0
 10
183.229500
 20
121.941760
 30
0.0
 10
183.565260
 20
121.568870
 30
0.0
 10
183.816060
 20
121.134240
 30
0.0
 10
183.970910
 20
120.657590
 30
0.0
 10
184.023010
 20
120.158950
 30
0.0
 10
183.970910
 20
119.660330
 30
0.0
 10
183.816060
 20
119.183680
 30
0.0
 10
183.565260
 20
118.749040
 30
0.0
 10
183.229500
 20
118.376160
 30
0.0
 10
182.823780
 20
118.082320
 30
0.0
 10
182.366100
 20
117.877720
 30
0.0
 10
181.875440
 20
117.773720
 30
0.0
  0
LWPOLYLINE
  5
122
100
AcDbEntity
  8
Layer_1
 62
7
100
AcDbPolyline
 90
30
 70
1
 10
81.494688
 20
118.270310
 30
0.0
 10
81.106949
 20
118.353510
 30
0.0
 10
80.744365
 20
118.515370
 30
0.0
 10
80.423703
 20
118.748330
 30
0.0
 10
80.157808
 20
119.042920
 30
0.0
 10
79.959143
 20
119.386680
 30
0.0
 10
79.837147
 20
119.764480
 30
0.0
 10
79.795227
 20
120.159180
 30
0.0
 10
79.837147
 20
120.553890
 30
0.0
 10
79.959143
 20
120.931680
 30
0.0
 10
80.157808
 20
121.275440
 30
0.0
 10
80.423703
 20
121.570050
 30
0.0
 10
80.744365
 20
121.803010
 30
0.0
 10
81.106949
 20
121.964860
 30
0.0
 10
81.494688
 20
122.048060
 30
0.0
 10
81.892397
 20
122.048060
 30
0.0
 10
82.280135
 20
121.964860
 30
0.0
 10
82.642720
 20
121.803010
 30
0.0
 10
82.963381
 20
121.570050
 30
0.0
 10
83.229275
 20
121.275440
 30
0.0
 10
83.427942
 20
120.931680
 30
0.0
 10
83.549937
 20
120.553890
 30
0.0
 10
83.591847
 20
120.159180
 30
0.0
 10
83.549937
 20
119.764480
 30
0.0
 10
83.427942
 20
119.386680
 30
0.0
 10
83.229275
 20
119.042920
 30
0.0
 10
82.963381
 20
118.748330
 30
0.0
 10
82.642720
 20
118.515370
 30
0.0
 10
82.280135
 20
118.353510
 30
0.0
 10
81.892397
 20
118.270310
 30
0.0
  0
LWPOLYLINE
  5
123
100
AcDbEntity
  8
Layer_1
 62
7
100
AcDbPolyline
 90
30
 70
1
 10
56.512316
 20
118.270310
 30
0.0
 10
56.124085
 20
118.353510
 30
0.0
 10
55.761502
 20
118.515370
 30
0.0
 10
55.440463
 20
118.748330
 30
0.0
 10
55.174946
 20
119.042920
 30
0.0
 10
54.976279
 20
119.386680
 30
0.0
 10
54.853530
 20
119.764480
 30
0.0
 10
54.811990
 20
120.159180
 30
0.0
 10
54.853530
 20
120.553890
 30
0.0
 10
54.976279
 20
120.931680
 30
0.0
 10
55.174946
 20
121.275440
 30
0.0
 10
55.440463
 20
121.570050
 30
0.0
 10
55.761502
 20
121.803010
 30
0.0
 10
56.124085
 20
121.964860
 30
0.0
 10
56.512316
 20
122.048060
 30
0.0
 10
56.909269
 20
122.048060
 30
0.0
 10
57.297500
 20
121.964860
 30
0.0
 10
57.660084
 20
121.803010
 30
0.0
 10
57.981123
 20
121.570050
 30
0.0
 10
58.246640
 20
121.275440
 30
0.0
 10
58.444928
 20
120.931680
 30
0.0
 10
58.567678
 20
120.553890
 30
0.0
 10
58.609228
 20
120.159180
 30
0.0
 10
58.567678
 20
119.764480
 30
0.0
 10
58.444928
 20
119.386680
 30
0.0
 10
58.246640
 20
119.042920
 30
0.0
 10
57.981123
 20
118.748330
 30
0.0
 10
57.660084
 20
118.515370
 30
0.0
 10
57.297500
 20
118.353510
 30
0.0
 10
56.909269
 20
118.270310
 30
0.0
  0
LWPOLYLINE
  5
124
100
AcDbEntity
  8
Layer_1
 62
7
100
AcDbPolyline
 90
30
 70
1
 10
6.546816
 20
118.270310
 30
0.0
 10
6.158587
 20
118.353510
 30
0.0
 10
5.796002
 20
118.515370
 30
0.0
 10
5.474964
 20
118.748330
 30
0.0
 10
5.209446
 20
119.042920
 30
0.0
 10
5.011158
 20
119.386680
 30
0.0
 10
4.888408
 20
119.764480
 30
0.0
 10
4.846862
 20
120.159180
 30
0.0
 10
4.888408
 20
120.553890
 30
0.0
 10
5.011158
 20
120.931680
 30
0.0
 10
5.209446
 20
121.275440
 30
0.0
 10
5.474964
 20
121.570050
 30
0.0
 10
5.796002
 20
121.803010
 30
0.0
 10
6.158587
 20
121.964860
 30
0.0
 10
6.546816
 20
122.048060
 30
0.0
 10
6.943733
 20
122.048060
 30
0.0
 10
7.331963
 20
121.964860
 30
0.0
 10
7.694547
 20
121.803010
 30
0.0
 10
8.015585
 20
121.570050
 30
0.0
 10
8.281103
 20
121.275440
 30
0.0
 10
8.479391
 20
120.931680
 30
0.0
 10
8.602141
 20
120.553890
 30
0.0
 10
8.643687
 20
120.159180
 30
0.0
 10
8.602141
 20
119.764480
 30
0.0
 10
8.479391
 20
119.386680
 30
0.0
 10
8.281103
 20
119.042920
 30
0.0
 10
8.015585
 20
118.748330
 30
0.0
 10
7.694547
 20
118.515370
 30
0.0
 10
7.331963
 20
118.353510
 30
0.0
 10
6.943733
 20
118.270310
 30
0.0
  0
LWPOLYLINE
  5
125
100
AcDbEntity
  8
Layer_1
 62
7
100
AcDbPolyline
 90
30
 70
1
 10
106.477450
 20
118.270310
 30
0.0
 10
106.089740
 20
118.353510
 30
0.0
 10
105.727150
 20
118.515370
 30
0.0
 10
105.406490
 20
118.748330
 30
0.0
 10
105.140600
 20
119.042920
 30
0.0
 10
104.941930
 20
119.386680
 30
0.0
 10
104.819930
 20
119.764480
 30
0.0
 10
104.778030
 20
120.159180
 30
0.0
 10
104.819930
 20
120.553890
 30
0.0
 10
104.941930
 20
120.931680
 30
0.0
 10
105.140600
 20
121.275440
 30
0.0
 10
105.406490
 20
121.570050
 30
0.0
 10
105.727150
 20
121.803010
 30
0.0
 10
106.089740
 20
121.964860
 30
0.0
 10
106.477450
 20
122.048060
 30
0.0
 10
106.875180
 20
122.048060
 30
0.0
 10
107.262930
 20
121.964860
 30
0.0
 10
107.625510
 20
121.803010
 30
0.0
 10
107.946170
 20
121.570050
 30
0.0
 10
108.212070
 20
121.275440
 30
0.0
 10
108.410730
 20
120.931680
 30
0.0
 10
108.532720
 20
120.553890
 30
0.0
 10
108.574620
 20
120.159180
 30
0.0
 10
108.532720
 20
119.764480
 30
0.0
 10
108.410730
 20
119.386680
 30
0.0
 10
108.212070
 20
119.042920
 30
0.0
 10
107.946170
 20
118.748330
 30
0.0
 10
107.625510
 20
118.515370
 30
0.0
 10
107.262930
 20
118.353510
 30
0.0
 10
106.875180
 20
118.270310
 30
0.0
  0
LWPOLYLINE
  5
126
100
AcDbEntity
  8
Layer_1
 62
7
100
AcDbPolyline
 90
30
 70
1
 10
156.442970
 20
118.270310
 30
0.0
 10
156.055230
 20
118.353510
 30
0.0
 10
155.692650
 20
118.515370
 30
0.0
 10
155.371990
 20
118.748330
 30
0.0
 10
155.106100
 20
119.042920
 30
0.0
 10
154.907420
 20
119.386680
 30
0.0
 10
154.785440
 20
119.764480
 30
0.0
 10
154.743540
 20
120.159180
 30
0.0
 10
154.785440
 20
120.553890
 30
0.0
 10
154.907420
 20
120.931680
 30
0.0
 10
155.106100
 20
121.275440
 30
0.0
 10
155.371990
 20
121.570050
 30
0.0
 10
155.692650
 20
121.803010
 30
0.0
 10
156.055230
 20
121.964860
 30
0.0
 10
156.442970
 20
122.048060
 30
0.0
 10
156.840680
 20
122.048060
 30
0.0
 10
157.228430
 20
121.964860
 30
0.0
 10
157.591010
 20
121.803010
 30
0.0
 10
157.911680
 20
121.570050
 30
0.0
 10
158.177570
 20
121.275440
 30
0.0
 10
158.376230
 20
120.931680
 30
0.0
 10
158.498230
 20
120.553890
 30
0.0
 10
158.540130
 20
120.159180
 30
0.0
 10
158.498230
 20
119.764480
 30
0.0
 10
158.376230
 20
119.386680
 30
0.0
 10
158.177570
 20
119.042920
 30
0.0
 10
157.911680
 20
118.748330
 30
0.0
 10
157.591010
 20
118.515370
 30
0.0
 10
157.228430
 20
118.353510
 30
0.0
 10
156.840680
 20
118.270310
 30
0.0
  0
LWPOLYLINE
  5
127
100
AcDbEntity
  8
Layer_1
 62
7
100
AcDbPolyline
 90
30
 70
1
 10
206.408510
 20
118.270310
 30
0.0
 10
206.020770
 20
118.353510
 30
0.0
 10
205.658190
 20
118.515370
 30
0.0
 10
205.337530
 20
118.748330
 30
0.0
 10
205.071630
 20
119.042920
 30
0.0
 10
204.872960
 20
119.386680
 30
0.0
 10
204.750970
 20
119.764480
 30
0.0
 10
204.709070
 20
120.159180
 30
0.0
 10
204.750970
 20
120.553890
 30
0.0
 10
204.872960
 20
120.931680
 30
0.0
 10
205.071630
 20
121.275440
 30
0.0
 10
205.337530
 20
121.570050
 30
0.0
 10
205.658190
 20
121.803010
 30
0.0
 10
206.020770
 20
121.964860
 30
0.0
 10
206.408510
 20
122.048060
 30
0.0
 10
206.806220
 20
122.048060
 30
0.0
 10
207.193960
 20
121.964860
 30
0.0
 10
207.556540
 20
121.803010
 30
0.0
 10
207.877210
 20
121.570050
 30
0.0
 10
208.143100
 20
121.275440
 30
0.0
 10
208.341760
 20
120.931680
 30
0.0
 10
208.463760
 20
120.553890
 30
0.0
 10
208.505660
 20
120.159180
 30
0.0
 10
208.463760
 20
119.764480
 30
0.0
 10
208.341760
 20
119.386680
 30
0.0
 10
208.143100
 20
119.042920
 30
0.0
 10
207.877210
 20
118.748330
 30
0.0
 10
207.556540
 20
118.515370
 30
0.0
 10
207.193960
 20
118.353510
 30
0.0
 10
206.806220
 20
118.270310
 30
0.0
  0
LWPOLYLINE
  5
128
100
AcDbEntity
  8
Layer_1
 62
7
100
AcDbPolyline
 90
30
 70
1
 10
31.529565
 20
118.270310
 30
0.0
 10
31.141336
 20
118.353510
 30
0.0
 10
30.778751
 20
118.515370
 30
0.0
 10
30.457712
 20
118.748330
 30
0.0
 10
30.192195
 20
119.042920
 30
0.0
 10
29.993907
 20
119.386680
 30
0.0
 10
29.871157
 20
119.764480
 30
0.0
 10
29.829617
 20
120.159180
 30
0.0
 10
29.871157
 20
120.553890
 30
0.0
 10
29.993907
 20
120.931680
 30
0.0
 10
30.192195
 20
121.275440
 30
0.0
 10
30.457712
 20
121.570050
 30
0.0
 10
30.778751
 20
121.803010
 30
0.0
 10
31.141336
 20
121.964860
 30
0.0
 10
31.529565
 20
122.048060
 30
0.0
 10
31.926482
 20
122.048060
 30
0.0
 10
32.314711
 20
121.964860
 30
0.0
 10
32.677296
 20
121.803010
 30
0.0
 10
32.998335
 20
121.570050
 30
0.0
 10
33.263853
 20
121.275440
 30
0.0
 10
33.462141
 20
120.931680
 30
0.0
 10
33.584891
 20
120.553890
 30
0.0
 10
33.626431
 20
120.159180
 30
0.0
 10
33.584891
 20
119.764480
 30
0.0
 10
33.462141
 20
119.386680
 30
0.0
 10
33.263853
 20
119.042920
 30
0.0
 10
32.998335
 20
118.748330
 30
0.0
 10
32.677296
 20
118.515370
 30
0.0
 10
32.314711
 20
118.353510
 30
0.0
 10
31.926482
 20
118.270310
 30
0.0
  0
LWPOLYLINE
  5
129
100
AcDbEntity
  8
Layer_1
 62
7
100
AcDbPolyline
 90
30
 70
1
 10
131.460210
 20
118.270310
 30
0.0
 10
131.072490
 20
118.353510
 30
0.0
 10
130.709890
 20
118.515370
 30
0.0
 10
130.389240
 20
118.748330
 30
0.0
 10
130.123350
 20
119.042920
 30
0.0
 10
129.924670
 20
119.386680
 30
0.0
 10
129.802680
 20
119.764480
 30
0.0
 10
129.760780
 20
120.159180
 30
0.0
 10
129.802680
 20
120.553890
 30
0.0
 10
129.924670
 20
120.931680
 30
0.0
 10
130.123350
 20
121.275440
 30
0.0
 10
130.389240
 20
121.570050
 30
0.0
 10
130.709890
 20
121.803010
 30
0.0
 10
131.072490
 20
121.964860
 30
0.0
 10
131.460210
 20
122.048060
 30
0.0
 10
131.857930
 20
122.048060
 30
0.0
 10
132.245670
 20
121.964860
 30
0.0
 10
132.608250
 20
121.803010
 30
0.0
 10
132.928920
 20
121.570050
 30
0.0
 10
133.194810
 20
121.275440
 30
0.0
 10
133.393470
 20
120.931680
 30
0.0
 10
133.515470
 20
120.553890
 30
0.0
 10
133.557370
 20
120.159180
 30
0.0
 10
133.515470
 20
119.764480
 30
0.0
 10
133.393470
 20
119.386680
 30
0.0
 10
133.194810
 20
119.042920
 30
0.0
 10
132.928920
 20
118.748330
 30
0.0
 10
132.608250
 20
118.515370
 30
0.0
 10
132.245670
 20
118.353510
 30
0.0
 10
131.857930
 20
118.270310
 30
0.0
  0
LWPOLYLINE
  5
12a
100
AcDbEntity
  8
Layer_1
 62
7
100
AcDbPolyline
 90
30
 70
1
 10
344.313350
 20
111.275600
 30
0.0
 10
343.925610
 20
111.358800
 30
0.0
 10
343.563030
 20
111.520660
 30
0.0
 10
343.242370
 20
111.753610
 30
0.0
 10
342.976480
 20
112.048220
 30
0.0
 10
342.777810
 20
112.391980
 30
0.0
 10
342.655810
 20
112.769780
 30
0.0
 10
342.613910
 20
113.164480
 30
0.0
 10
342.655810
 20
113.559210
 30
0.0
 10
342.777810
 20
113.937020
 30
0.0
 10
342.976480
 20
114.280780
 30
0.0
 10
343.242370
 20
114.575380
 30
0.0
 10
343.563030
 20
114.808330
 30
0.0
 10
343.925610
 20
114.970190
 30
0.0
 10
344.313350
 20
115.053390
 30
0.0
 10
344.711060
 20
115.053390
 30
0.0
 10
345.098800
 20
114.970190
 30
0.0
 10
345.461380
 20
114.808330
 30
0.0
 10
345.782050
 20
114.575380
 30
0.0
 10
346.047940
 20
114.280780
 30
0.0
 10
346.246600
 20
113.937020
 30
0.0
 10
346.368600
 20
113.559210
 30
0.0
 10
346.410500
 20
113.164480
 30
0.0
 10
346.368600
 20
112.769780
 30
0.0
 10
346.246600
 20
112.391980
 30
0.0
 10
346.047940
 20
112.048220
 30
0.0
 10
345.782050
 20
111.753610
 30
0.0
 10
345.461380
 20
111.520660
 30
0.0
 10
345.098800
 20
111.358800
 30
0.0
 10
344.711060
 20
111.275600
 30
0.0
  0
LWPOLYLINE
  5
12b
100
AcDbEntity
  8
Layer_1
 62
7
100
AcDbPolyline
 90
30
 70
1
 10
114.524890
 20
110.773990
 30
0.0
 10
114.238210
 20
110.834790
 30
0.0
 10
113.971570
 20
110.953920
 30
0.0
 10
113.734750
 20
111.125600
 30
0.0
 10
113.538720
 20
111.342300
 30
0.0
 10
113.392940
 20
111.596060
 30
0.0
 10
113.303140
 20
111.873630
 30
0.0
 10
113.272940
 20
112.164460
 30
0.0
 10
113.303140
 20
112.455270
 30
0.0
 10
113.392940
 20
112.732850
 30
0.0
 10
113.538720
 20
112.986610
 30
0.0
 10
113.734750
 20
113.203310
 30
0.0
 10
113.971570
 20
113.374990
 30
0.0
 10
114.238210
 20
113.494120
 30
0.0
 10
114.524890
 20
113.554920
 30
0.0
 10
114.816850
 20
113.554920
 30
0.0
 10
115.103510
 20
113.494120
 30
0.0
 10
115.370160
 20
113.374990
 30
0.0
 10
115.606980
 20
113.203310
 30
0.0
 10
115.802990
 20
112.986610
 30
0.0
 10
115.948790
 20
112.732850
 30
0.0
 10
116.038790
 20
112.455270
 30
0.0
 10
116.068990
 20
112.164460
 30
0.0
 10
116.038790
 20
111.873630
 30
0.0
 10
115.948790
 20
111.596060
 30
0.0
 10
115.802990
 20
111.342300
 30
0.0
 10
115.606980
 20
111.125600
 30
0.0
 10
115.370160
 20
110.953920
 30
0.0
 10
115.103510
 20
110.834790
 30
0.0
 10
114.816850
 20
110.773990
 30
0.0
  0
LWPOLYLINE
  5
12c
100
AcDbEntity
  8
Layer_1
 62
7
100
AcDbPolyline
 90
30
 70
1
 10
47.570793
 20
110.773990
 30
0.0
 10
47.284881
 20
110.834790
 30
0.0
 10
47.017475
 20
110.953920
 30
0.0
 10
46.780662
 20
111.125600
 30
0.0
 10
46.585018
 20
111.342300
 30
0.0
 10
46.438851
 20
111.596060
 30
0.0
 10
46.348581
 20
111.873630
 30
0.0
 10
46.318361
 20
112.164460
 30
0.0
 10
46.348581
 20
112.455270
 30
0.0
 10
46.438851
 20
112.732850
 30
0.0
 10
46.585018
 20
112.986610
 30
0.0
 10
46.780662
 20
113.203310
 30
0.0
 10
47.017475
 20
113.374990
 30
0.0
 10
47.284881
 20
113.494120
 30
0.0
 10
47.570793
 20
113.554920
 30
0.0
 10
47.863127
 20
113.554920
 30
0.0
 10
48.149041
 20
113.494120
 30
0.0
 10
48.416446
 20
113.374990
 30
0.0
 10
48.652881
 20
113.203310
 30
0.0
 10
48.848526
 20
112.986610
 30
0.0
 10
48.994693
 20
112.732850
 30
0.0
 10
49.084953
 20
112.455270
 30
0.0
 10
49.115173
 20
112.164460
 30
0.0
 10
49.084953
 20
111.873630
 30
0.0
 10
48.994693
 20
111.596060
 30
0.0
 10
48.848526
 20
111.342300
 30
0.0
 10
48.652881
 20
111.125600
 30
0.0
 10
48.416446
 20
110.953920
 30
0.0
 10
48.149041
 20
110.834790
 30
0.0
 10
47.863127
 20
110.773990
 30
0.0
  0
LWPOLYLINE
  5
12d
100
AcDbEntity
  8
Layer_1
 62
7
100
AcDbPolyline
 90
30
 70
1
 10
139.507670
 20
104.778550
 30
0.0
 10
139.221000
 20
104.839350
 30
0.0
 10
138.954350
 20
104.958480
 30
0.0
 10
138.717540
 20
105.130170
 30
0.0
 10
138.521510
 20
105.346870
 30
0.0
 10
138.375730
 20
105.600630
 30
0.0
 10
138.285830
 20
105.878580
 30
0.0
 10
138.255630
 20
106.169400
 30
0.0
 10
138.285830
 20
106.460220
 30
0.0
 10
138.375730
 20
106.738180
 30
0.0
 10
138.521510
 20
106.991940
 30
0.0
 10
138.717540
 20
107.208630
 30
0.0
 10
138.954350
 20
107.380320
 30
0.0
 10
139.221000
 20
107.499450
 30
0.0
 10
139.507670
 20
107.560250
 30
0.0
 10
139.799630
 20
107.560250
 30
0.0
 10
140.086300
 20
107.499450
 30
0.0
 10
140.352950
 20
107.380320
 30
0.0
 10
140.589770
 20
107.208630
 30
0.0
 10
140.785770
 20
106.991940
 30
0.0
 10
140.931560
 20
106.738180
 30
0.0
 10
141.021460
 20
106.460220
 30
0.0
 10
141.051660
 20
106.169400
 30
0.0
 10
141.021460
 20
105.878580
 30
0.0
 10
140.931560
 20
105.600630
 30
0.0
 10
140.785770
 20
105.346870
 30
0.0
 10
140.589770
 20
105.130170
 30
0.0
 10
140.352950
 20
104.958480
 30
0.0
 10
140.086300
 20
104.839350
 30
0.0
 10
139.799630
 20
104.778550
 30
0.0
  0
LWPOLYLINE
  5
12e
100
AcDbEntity
  8
Layer_1
 62
7
100
AcDbPolyline
 90
30
 70
1
 10
22.588043
 20
104.778550
 30
0.0
 10
22.302131
 20
104.839350
 30
0.0
 10
22.034724
 20
104.958480
 30
0.0
 10
21.798289
 20
105.130170
 30
0.0
 10
21.602644
 20
105.346870
 30
0.0
 10
21.456478
 20
105.600630
 30
0.0
 10
21.366218
 20
105.878580
 30
0.0
 10
21.335998
 20
106.169400
 30
0.0
 10
21.366218
 20
106.460220
 30
0.0
 10
21.456478
 20
106.738180
 30
0.0
 10
21.602644
 20
106.991940
 30
0.0
 10
21.798289
 20
107.208630
 30
0.0
 10
22.034724
 20
107.380320
 30
0.0
 10
22.302131
 20
107.499450
 30
0.0
 10
22.588043
 20
107.560250
 30
0.0
 10
22.880378
 20
107.560250
 30
0.0
 10
23.166290
 20
107.499450
 30
0.0
 10
23.433696
 20
107.380320
 30
0.0
 10
23.670131
 20
107.208630
 30
0.0
 10
23.865776
 20
106.991940
 30
0.0
 10
24.011943
 20
106.738180
 30
0.0
 10
24.102213
 20
106.460220
 30
0.0
 10
24.132433
 20
106.169400
 30
0.0
 10
24.102213
 20
105.878580
 30
0.0
 10
24.011943
 20
105.600630
 30
0.0
 10
23.865776
 20
105.346870
 30
0.0
 10
23.670131
 20
105.130170
 30
0.0
 10
23.433696
 20
104.958480
 30
0.0
 10
23.166290
 20
104.839350
 30
0.0
 10
22.880378
 20
104.778550
 30
0.0
  0
LWPOLYLINE
  5
12f
100
AcDbEntity
  8
Layer_1
 62
7
100
AcDbPolyline
 90
30
 70
1
 10
376.291310
 20
103.281690
 30
0.0
 10
375.903560
 20
103.364890
 30
0.0
 10
375.540980
 20
103.526740
 30
0.0
 10
375.220320
 20
103.759700
 30
0.0
 10
374.954420
 20
104.054300
 30
0.0
 10
374.755760
 20
104.398060
 30
0.0
 10
374.633770
 20
104.775850
 30
0.0
 10
374.591870
 20
105.170560
 30
0.0
 10
374.633770
 20
105.565260
 30
0.0
 10
374.755760
 20
105.943060
 30
0.0
 10
374.954420
 20
106.286820
 30
0.0
 10
375.220320
 20
106.581420
 30
0.0
 10
375.540980
 20
106.814380
 30
0.0
 10
375.903560
 20
106.976240
 30
0.0
 10
376.291310
 20
107.059340
 30
0.0
 10
376.689010
 20
107.059340
 30
0.0
 10
377.076750
 20
106.976240
 30
0.0
 10
377.439340
 20
106.814380
 30
0.0
 10
377.760000
 20
106.581420
 30
0.0
 10
378.025890
 20
106.286820
 30
0.0
 10
378.224930
 20
105.943060
 30
0.0
 10
378.346940
 20
105.565260
 30
0.0
 10
378.388840
 20
105.170560
 30
0.0
 10
378.346940
 20
104.775850
 30
0.0
 10
378.224930
 20
104.398060
 30
0.0
 10
378.025890
 20
104.054300
 30
0.0
 10
377.760000
 20
103.759700
 30
0.0
 10
377.439340
 20
103.526740
 30
0.0
 10
377.076750
 20
103.364890
 30
0.0
 10
376.689010
 20
103.281690
 30
0.0
  0
LWPOLYLINE
  5
130
100
AcDbEntity
  8
Layer_1
 62
7
100
AcDbPolyline
 90
30
 70
1
 10
205.409170
 20
99.284710
 30
0.0
 10
205.021470
 20
99.368010
 30
0.0
 10
204.658890
 20
99.529870
 30
0.0
 10
204.338230
 20
99.762450
 30
0.0
 10
204.072330
 20
100.057430
 30
0.0
 10
203.873660
 20
100.401190
 30
0.0
 10
203.751680
 20
100.778990
 30
0.0
 10
203.709780
 20
101.173690
 30
0.0
 10
203.751680
 20
101.568430
 30
0.0
 10
203.873660
 20
101.946220
 30
0.0
 10
204.072330
 20
102.289980
 30
0.0
 10
204.338230
 20
102.584960
 30
0.0
 10
204.658890
 20
102.817550
 30
0.0
 10
205.021470
 20
102.979410
 30
0.0
 10
205.409170
 20
103.062510
 30
0.0
 10
205.806920
 20
103.062510
 30
0.0
 10
206.194660
 20
102.979410
 30
0.0
 10
206.557250
 20
102.817550
 30
0.0
 10
206.877910
 20
102.584960
 30
0.0
 10
207.143800
 20
102.289980
 30
0.0
 10
207.342460
 20
101.946220
 30
0.0
 10
207.464470
 20
101.568430
 30
0.0
 10
207.506370
 20
101.173690
 30
0.0
 10
207.464470
 20
100.778990
 30
0.0
 10
207.342460
 20
100.401190
 30
0.0
 10
207.143800
 20
100.057430
 30
0.0
 10
206.877910
 20
99.762450
 30
0.0
 10
206.557250
 20
99.529870
 30
0.0
 10
206.194660
 20
99.368010
 30
0.0
 10
205.806920
 20
99.284710
 30
0.0
  0
LWPOLYLINE
  5
131
100
AcDbEntity
  8
Layer_1
 62
7
100
AcDbPolyline
 90
326
 70
1
 10
31.529565
 20
51.321420
 30
0.0
 10
31.141336
 20
51.404320
 30
0.0
 10
30.778751
 20
51.565800
 30
0.0
 10
30.457712
 20
51.799140
 30
0.0
 10
30.192195
 20
52.094120
 30
0.0
 10
29.993907
 20
52.437880
 30
0.0
 10
29.871157
 20
52.815670
 30
0.0
 10
29.829617
 20
53.210380
 30
0.0
 10
29.871157
 20
53.605080
 30
0.0
 10
29.905147
 20
53.710210
 30
0.0
 10
29.871157
 20
53.815340
 30
0.0
 10
29.829617
 20
54.210050
 30
0.0
 10
29.871157
 20
54.604750
 30
0.0
 10
29.905147
 20
54.709880
 30
0.0
 10
29.871157
 20
54.815010
 30
0.0
 10
29.829617
 20
55.209720
 30
0.0
 10
29.871157
 20
55.604420
 30
0.0
 10
29.905147
 20
55.709550
 30
0.0
 10
29.871157
 20
55.814680
 30
0.0
 10
29.829617
 20
56.209390
 30
0.0
 10
29.871157
 20
56.604090
 30
0.0
 10
29.905147
 20
56.709220
 30
0.0
 10
29.871157
 20
56.814350
 30
0.0
 10
29.829617
 20
57.209060
 30
0.0
 10
29.871157
 20
57.603760
 30
0.0
 10
29.905147
 20
57.708890
 30
0.0
 10
29.871157
 20
57.814020
 30
0.0
 10
29.829617
 20
58.208730
 30
0.0
 10
29.871157
 20
58.603430
 30
0.0
 10
29.905147
 20
58.708560
 30
0.0
 10
29.871157
 20
58.813700
 30
0.0
 10
29.829617
 20
59.208400
 30
0.0
 10
29.871157
 20
59.603110
 30
0.0
 10
29.905147
 20
59.708240
 30
0.0
 10
29.871157
 20
59.813370
 30
0.0
 10
29.829617
 20
60.208070
 30
0.0
 10
29.871157
 20
60.602810
 30
0.0
 10
29.905147
 20
60.707950
 30
0.0
 10
29.871157
 20
60.813080
 30
0.0
 10
29.829617
 20
61.207780
 30
0.0
 10
29.871157
 20
61.602440
 30
0.0
 10
29.905147
 20
61.707580
 30
0.0
 10
29.871157
 20
61.812710
 30
0.0
 10
29.829617
 20
62.207410
 30
0.0
 10
29.871157
 20
62.602110
 30
0.0
 10
29.905147
 20
62.707250
 30
0.0
 10
29.871157
 20
62.812380
 30
0.0
 10
29.829617
 20
63.207080
 30
0.0
 10
29.871157
 20
63.601780
 30
0.0
 10
29.905147
 20
63.706920
 30
0.0
 10
29.871157
 20
63.812050
 30
0.0
 10
29.829617
 20
64.206750
 30
0.0
 10
29.871157
 20
64.601450
 30
0.0
 10
29.905147
 20
64.706590
 30
0.0
 10
29.871157
 20
64.811720
 30
0.0
 10
29.829617
 20
65.206420
 30
0.0
 10
29.871157
 20
65.601120
 30
0.0
 10
29.905147
 20
65.706260
 30
0.0
 10
29.871157
 20
65.811390
 30
0.0
 10
29.829617
 20
66.206060
 30
0.0
 10
29.871157
 20
66.600760
 30
0.0
 10
29.905147
 20
66.705890
 30
0.0
 10
29.871157
 20
66.811020
 30
0.0
 10
29.829617
 20
67.205720
 30
0.0
 10
29.871157
 20
67.600450
 30
0.0
 10
29.905147
 20
67.705590
 30
0.0
 10
29.871157
 20
67.810720
 30
0.0
 10
29.829617
 20
68.205430
 30
0.0
 10
29.871157
 20
68.600120
 30
0.0
 10
29.905147
 20
68.705250
 30
0.0
 10
29.871157
 20
68.810390
 30
0.0
 10
29.829617
 20
69.205090
 30
0.0
 10
29.871157
 20
69.599790
 30
0.0
 10
29.905147
 20
69.704920
 30
0.0
 10
29.871157
 20
69.810060
 30
0.0
 10
29.829617
 20
70.204760
 30
0.0
 10
29.871157
 20
70.599500
 30
0.0
 10
29.905147
 20
70.704630
 30
0.0
 10
29.871157
 20
70.809760
 30
0.0
 10
29.829617
 20
71.204470
 30
0.0
 10
29.871157
 20
71.599170
 30
0.0
 10
29.905147
 20
71.704300
 30
0.0
 10
29.871157
 20
71.809430
 30
0.0
 10
29.829617
 20
72.204140
 30
0.0
 10
29.871157
 20
72.598840
 30
0.0
 10
29.905147
 20
72.703970
 30
0.0
 10
29.871157
 20
72.809110
 30
0.0
 10
29.829617
 20
73.203810
 30
0.0
 10
29.871157
 20
73.598550
 30
0.0
 10
29.905147
 20
73.703690
 30
0.0
 10
29.871157
 20
73.808820
 30
0.0
 10
29.829617
 20
74.203520
 30
0.0
 10
29.871157
 20
74.598190
 30
0.0
 10
29.905147
 20
74.703320
 30
0.0
 10
29.871157
 20
74.808450
 30
0.0
 10
29.829617
 20
75.203150
 30
0.0
 10
29.871157
 20
75.597860
 30
0.0
 10
29.905147
 20
75.702990
 30
0.0
 10
29.871157
 20
75.808120
 30
0.0
 10
29.829617
 20
76.202820
 30
0.0
 10
29.871157
 20
76.597530
 30
0.0
 10
29.905147
 20
76.702660
 30
0.0
 10
29.871157
 20
76.807790
 30
0.0
 10
29.829617
 20
77.202490
 30
0.0
 10
29.871157
 20
77.597200
 30
0.0
 10
29.905147
 20
77.702330
 30
0.0
 10
29.871157
 20
77.807460
 30
0.0
 10
29.829617
 20
78.202160
 30
0.0
 10
29.871157
 20
78.596870
 30
0.0
 10
29.905147
 20
78.702000
 30
0.0
 10
29.871157
 20
78.807130
 30
0.0
 10
29.829617
 20
79.201790
 30
0.0
 10
29.871157
 20
79.596500
 30
0.0
 10
29.905147
 20
79.701630
 30
0.0
 10
29.871157
 20
79.806760
 30
0.0
 10
29.829617
 20
80.201460
 30
0.0
 10
29.871157
 20
80.596210
 30
0.0
 10
29.905147
 20
80.701340
 30
0.0
 10
29.871157
 20
80.806470
 30
0.0
 10
29.829617
 20
81.201180
 30
0.0
 10
29.871157
 20
81.595880
 30
0.0
 10
29.905147
 20
81.701010
 30
0.0
 10
29.871157
 20
81.806140
 30
0.0
 10
29.829617
 20
82.200850
 30
0.0
 10
29.871157
 20
82.595550
 30
0.0
 10
29.905147
 20
82.700680
 30
0.0
 10
29.871157
 20
82.805810
 30
0.0
 10
29.829617
 20
83.200520
 30
0.0
 10
29.871157
 20
83.595220
 30
0.0
 10
29.905147
 20
83.700350
 30
0.0
 10
29.871157
 20
83.805480
 30
0.0
 10
29.829617
 20
84.200190
 30
0.0
 10
29.871157
 20
84.594890
 30
0.0
 10
29.905147
 20
84.700020
 30
0.0
 10
29.871157
 20
84.805150
 30
0.0
 10
29.829617
 20
85.199860
 30
0.0
 10
29.871157
 20
85.594550
 30
0.0
 10
29.905147
 20
85.699690
 30
0.0
 10
29.871157
 20
85.804820
 30
0.0
 10
29.829617
 20
86.199530
 30
0.0
 10
29.871157
 20
86.594220
 30
0.0
 10
29.905147
 20
86.699360
 30
0.0
 10
29.871157
 20
86.804490
 30
0.0
 10
29.829617
 20
87.199200
 30
0.0
 10
29.871157
 20
87.593890
 30
0.0
 10
29.905147
 20
87.699030
 30
0.0
 10
29.871157
 20
87.804170
 30
0.0
 10
29.829617
 20
88.198870
 30
0.0
 10
29.871157
 20
88.593570
 30
0.0
 10
29.905147
 20
88.698710
 30
0.0
 10
29.871157
 20
88.803840
 30
0.0
 10
29.829617
 20
89.198540
 30
0.0
 10
29.871157
 20
89.593240
 30
0.0
 10
29.905147
 20
89.698380
 30
0.0
 10
29.871157
 20
89.803510
 30
0.0
 10
29.829617
 20
90.198210
 30
0.0
 10
29.871157
 20
90.592910
 30
0.0
 10
29.993907
 20
90.970710
 30
0.0
 10
30.192195
 20
91.314470
 30
0.0
 10
30.457712
 20
91.609450
 30
0.0
 10
30.778751
 20
91.842020
 30
0.0
 10
31.141336
 20
92.003880
 30
0.0
 10
31.529565
 20
92.087080
 30
0.0
 10
31.926482
 20
92.087080
 30
0.0
 10
32.314711
 20
92.003880
 30
0.0
 10
32.677296
 20
91.842020
 30
0.0
 10
32.998335
 20
91.609450
 30
0.0
 10
33.263853
 20
91.314470
 30
0.0
 10
33.462141
 20
90.970710
 30
0.0
 10
33.584891
 20
90.592910
 30
0.0
 10
33.626431
 20
90.198210
 30
0.0
 10
33.584891
 20
89.803510
 30
0.0
 10
33.550901
 20
89.698380
 30
0.0
 10
33.584891
 20
89.593240
 30
0.0
 10
33.626431
 20
89.198540
 30
0.0
 10
33.584891
 20
88.803840
 30
0.0
 10
33.550901
 20
88.698710
 30
0.0
 10
33.584891
 20
88.593570
 30
0.0
 10
33.626431
 20
88.198870
 30
0.0
 10
33.584891
 20
87.804170
 30
0.0
 10
33.550901
 20
87.699030
 30
0.0
 10
33.584891
 20
87.593890
 30
0.0
 10
33.626431
 20
87.199200
 30
0.0
 10
33.584891
 20
86.804490
 30
0.0
 10
33.550901
 20
86.699360
 30
0.0
 10
33.584891
 20
86.594220
 30
0.0
 10
33.626431
 20
86.199530
 30
0.0
 10
33.584891
 20
85.804820
 30
0.0
 10
33.550901
 20
85.699690
 30
0.0
 10
33.584891
 20
85.594550
 30
0.0
 10
33.626431
 20
85.199860
 30
0.0
 10
33.584891
 20
84.805150
 30
0.0
 10
33.550901
 20
84.700020
 30
0.0
 10
33.584891
 20
84.594890
 30
0.0
 10
33.626431
 20
84.200190
 30
0.0
 10
33.584891
 20
83.805480
 30
0.0
 10
33.550901
 20
83.700350
 30
0.0
 10
33.584891
 20
83.595220
 30
0.0
 10
33.626431
 20
83.200520
 30
0.0
 10
33.584891
 20
82.805810
 30
0.0
 10
33.550901
 20
82.700680
 30
0.0
 10
33.584891
 20
82.595550
 30
0.0
 10
33.626431
 20
82.200850
 30
0.0
 10
33.584891
 20
81.806140
 30
0.0
 10
33.550901
 20
81.701010
 30
0.0
 10
33.584891
 20
81.595880
 30
0.0
 10
33.626431
 20
81.201180
 30
0.0
 10
33.584891
 20
80.806470
 30
0.0
 10
33.550901
 20
80.701340
 30
0.0
 10
33.584891
 20
80.596210
 30
0.0
 10
33.626431
 20
80.201460
 30
0.0
 10
33.584891
 20
79.806760
 30
0.0
 10
33.550901
 20
79.701630
 30
0.0
 10
33.584891
 20
79.596500
 30
0.0
 10
33.626431
 20
79.201790
 30
0.0
 10
33.584891
 20
78.807130
 30
0.0
 10
33.550901
 20
78.702000
 30
0.0
 10
33.584891
 20
78.596870
 30
0.0
 10
33.626431
 20
78.202160
 30
0.0
 10
33.584891
 20
77.807460
 30
0.0
 10
33.550901
 20
77.702330
 30
0.0
 10
33.584891
 20
77.597200
 30
0.0
 10
33.626431
 20
77.202490
 30
0.0
 10
33.584891
 20
76.807790
 30
0.0
 10
33.550901
 20
76.702660
 30
0.0
 10
33.584891
 20
76.597530
 30
0.0
 10
33.626431
 20
76.202820
 30
0.0
 10
33.584891
 20
75.808120
 30
0.0
 10
33.550901
 20
75.702990
 30
0.0
 10
33.584891
 20
75.597860
 30
0.0
 10
33.626431
 20
75.203150
 30
0.0
 10
33.584891
 20
74.808450
 30
0.0
 10
33.550901
 20
74.703320
 30
0.0
 10
33.584891
 20
74.598190
 30
0.0
 10
33.626431
 20
74.203520
 30
0.0
 10
33.584891
 20
73.808820
 30
0.0
 10
33.550901
 20
73.703690
 30
0.0
 10
33.584891
 20
73.598550
 30
0.0
 10
33.626431
 20
73.203810
 30
0.0
 10
33.584891
 20
72.809110
 30
0.0
 10
33.550901
 20
72.703970
 30
0.0
 10
33.584891
 20
72.598840
 30
0.0
 10
33.626431
 20
72.204140
 30
0.0
 10
33.584891
 20
71.809430
 30
0.0
 10
33.550901
 20
71.704300
 30
0.0
 10
33.584891
 20
71.599170
 30
0.0
 10
33.626431
 20
71.204470
 30
0.0
 10
33.584891
 20
70.809760
 30
0.0
 10
33.550901
 20
70.704630
 30
0.0
 10
33.584891
 20
70.599500
 30
0.0
 10
33.626431
 20
70.204760
 30
0.0
 10
33.584891
 20
69.810060
 30
0.0
 10
33.550901
 20
69.704920
 30
0.0
 10
33.584891
 20
69.599790
 30
0.0
 10
33.626431
 20
69.205090
 30
0.0
 10
33.584891
 20
68.810390
 30
0.0
 10
33.550901
 20
68.705250
 30
0.0
 10
33.584891
 20
68.600120
 30
0.0
 10
33.626431
 20
68.205430
 30
0.0
 10
33.584891
 20
67.810720
 30
0.0
 10
33.550901
 20
67.705590
 30
0.0
 10
33.584891
 20
67.600450
 30
0.0
 10
33.626431
 20
67.205720
 30
0.0
 10
33.584891
 20
66.811020
 30
0.0
 10
33.550901
 20
66.705890
 30
0.0
 10
33.584891
 20
66.600760
 30
0.0
 10
33.626431
 20
66.206060
 30
0.0
 10
33.584891
 20
65.811390
 30
0.0
 10
33.550901
 20
65.706260
 30
0.0
 10
33.584891
 20
65.601120
 30
0.0
 10
33.626431
 20
65.206420
 30
0.0
 10
33.584891
 20
64.811720
 30
0.0
 10
33.550901
 20
64.706590
 30
0.0
 10
33.584891
 20
64.601450
 30
0.0
 10
33.626431
 20
64.206750
 30
0.0
 10
33.584891
 20
63.812050
 30
0.0
 10
33.550901
 20
63.706920
 30
0.0
 10
33.584891
 20
63.601780
 30
0.0
 10
33.626431
 20
63.207080
 30
0.0
 10
33.584891
 20
62.812380
 30
0.0
 10
33.550901
 20
62.707250
 30
0.0
 10
33.584891
 20
62.602110
 30
0.0
 10
33.626431
 20
62.207410
 30
0.0
 10
33.584891
 20
61.812710
 30
0.0
 10
33.550901
 20
61.707580
 30
0.0
 10
33.584891
 20
61.602440
 30
0.0
 10
33.626431
 20
61.207780
 30
0.0
 10
33.584891
 20
60.813080
 30
0.0
 10
33.550901
 20
60.707950
 30
0.0
 10
33.584891
 20
60.602810
 30
0.0
 10
33.626431
 20
60.208070
 30
0.0
 10
33.584891
 20
59.813370
 30
0.0
 10
33.550901
 20
59.708240
 30
0.0
 10
33.584891
 20
59.603110
 30
0.0
 10
33.626431
 20
59.208400
 30
0.0
 10
33.584891
 20
58.813700
 30
0.0
 10
33.550901
 20
58.708560
 30
0.0
 10
33.584891
 20
58.603430
 30
0.0
 10
33.626431
 20
58.208730
 30
0.0
 10
33.584891
 20
57.814020
 30
0.0
 10
33.550901
 20
57.708890
 30
0.0
 10
33.584891
 20
57.603760
 30
0.0
 10
33.626431
 20
57.209060
 30
0.0
 10
33.584891
 20
56.814350
 30
0.0
 10
33.550901
 20
56.709220
 30
0.0
 10
33.584891
 20
56.604090
 30
0.0
 10
33.626431
 20
56.209390
 30
0.0
 10
33.584891
 20
55.814680
 30
0.0
 10
33.550901
 20
55.709550
 30
0.0
 10
33.584891
 20
55.604420
 30
0.0
 10
33.626431
 20
55.209720
 30
0.0
 10
33.584891
 20
54.815010
 30
0.0
 10
33.550901
 20
54.709880
 30
0.0
 10
33.584891
 20
54.604750
 30
0.0
 10
33.626431
 20
54.210050
 30
0.0
 10
33.584891
 20
53.815340
 30
0.0
 10
33.550901
 20
53.710210
 30
0.0
 10
33.584891
 20
53.605080
 30
0.0
 10
33.626431
 20
53.210380
 30
0.0
 10
33.584891
 20
52.815670
 30
0.0
 10
33.462141
 20
52.437880
 30
0.0
 10
33.263853
 20
52.094120
 30
0.0
 10
32.998335
 20
51.799140
 30
0.0
 10
32.677296
 20
51.565800
 30
0.0
 10
32.314711
 20
51.404320
 30
0.0
 10
31.926482
 20
51.321420
 30
0.0
  0
LWPOLYLINE
  5
132
100
AcDbEntity
  8
Layer_1
 62
7
100
AcDbPolyline
 90
350
 70
1
 10
131.460210
 20
48.323700
 30
0.0
 10
131.072490
 20
48.406600
 30
0.0
 10
130.709890
 20
48.568090
 30
0.0
 10
130.389240
 20
48.801050
 30
0.0
 10
130.123350
 20
49.096020
 30
0.0
 10
129.924670
 20
49.439790
 30
0.0
 10
129.802680
 20
49.817580
 30
0.0
 10
129.760780
 20
50.212280
 30
0.0
 10
129.802680
 20
50.606990
 30
0.0
 10
129.836680
 20
50.712120
 30
0.0
 10
129.802680
 20
50.817250
 30
0.0
 10
129.760780
 20
51.211960
 30
0.0
 10
129.802680
 20
51.606660
 30
0.0
 10
129.836680
 20
51.711790
 30
0.0
 10
129.802680
 20
51.816920
 30
0.0
 10
129.760780
 20
52.211630
 30
0.0
 10
129.802680
 20
52.606320
 30
0.0
 10
129.836680
 20
52.711460
 30
0.0
 10
129.802680
 20
52.816590
 30
0.0
 10
129.760780
 20
53.211260
 30
0.0
 10
129.802680
 20
53.605990
 30
0.0
 10
129.836680
 20
53.711130
 30
0.0
 10
129.802680
 20
53.816260
 30
0.0
 10
129.760780
 20
54.210970
 30
0.0
 10
129.802680
 20
54.605660
 30
0.0
 10
129.836680
 20
54.710800
 30
0.0
 10
129.802680
 20
54.815930
 30
0.0
 10
129.760780
 20
55.210640
 30
0.0
 10
129.802680
 20
55.605330
 30
0.0
 10
129.836680
 20
55.710470
 30
0.0
 10
129.802680
 20
55.815600
 30
0.0
 10
129.760780
 20
56.210310
 30
0.0
 10
129.802680
 20
56.605000
 30
0.0
 10
129.836680
 20
56.710140
 30
0.0
 10
129.802680
 20
56.815270
 30
0.0
 10
129.760780
 20
57.209980
 30
0.0
 10
129.802680
 20
57.604670
 30
0.0
 10
129.836680
 20
57.709810
 30
0.0
 10
129.802680
 20
57.814950
 30
0.0
 10
129.760780
 20
58.209650
 30
0.0
 10
129.802680
 20
58.604350
 30
0.0
 10
129.836680
 20
58.709490
 30
0.0
 10
129.802680
 20
58.814620
 30
0.0
 10
129.760780
 20
59.209310
 30
0.0
 10
129.802680
 20
59.604020
 30
0.0
 10
129.836680
 20
59.709150
 30
0.0
 10
129.802680
 20
59.814290
 30
0.0
 10
129.760780
 20
60.208980
 30
0.0
 10
129.802680
 20
60.603690
 30
0.0
 10
129.836680
 20
60.708820
 30
0.0
 10
129.802680
 20
60.813960
 30
0.0
 10
129.760780
 20
61.208650
 30
0.0
 10
129.802680
 20
61.603320
 30
0.0
 10
129.836680
 20
61.708460
 30
0.0
 10
129.802680
 20
61.813590
 30
0.0
 10
129.760780
 20
62.208290
 30
0.0
 10
129.802680
 20
62.602990
 30
0.0
 10
129.836680
 20
62.708130
 30
0.0
 10
129.802680
 20
62.813260
 30
0.0
 10
129.760780
 20
63.207960
 30
0.0
 10
129.802680
 20
63.602660
 30
0.0
 10
129.836680
 20
63.707800
 30
0.0
 10
129.802680
 20
63.812930
 30
0.0
 10
129.760780
 20
64.207630
 30
0.0
 10
129.802680
 20
64.602330
 30
0.0
 10
129.836680
 20
64.707470
 30
0.0
 10
129.802680
 20
64.812600
 30
0.0
 10
129.760780
 20
65.207310
 30
0.0
 10
129.802680
 20
65.602000
 30
0.0
 10
129.836680
 20
65.707140
 30
0.0
 10
129.802680
 20
65.812270
 30
0.0
 10
129.760780
 20
66.206940
 30
0.0
 10
129.802680
 20
66.601630
 30
0.0
 10
129.836680
 20
66.706770
 30
0.0
 10
129.802680
 20
66.811900
 30
0.0
 10
129.760780
 20
67.206600
 30
0.0
 10
129.802680
 20
67.601290
 30
0.0
 10
129.836680
 20
67.706430
 30
0.0
 10
129.802680
 20
67.811560
 30
0.0
 10
129.760780
 20
68.206270
 30
0.0
 10
129.802680
 20
68.600960
 30
0.0
 10
129.836680
 20
68.706100
 30
0.0
 10
129.802680
 20
68.811230
 30
0.0
 10
129.760780
 20
69.205940
 30
0.0
 10
129.802680
 20
69.600630
 30
0.0
 10
129.836680
 20
69.705770
 30
0.0
 10
129.802680
 20
69.810900
 30
0.0
 10
129.760780
 20
70.205610
 30
0.0
 10
129.802680
 20
70.600300
 30
0.0
 10
129.836680
 20
70.705440
 30
0.0
 10
129.802680
 20
70.810570
 30
0.0
 10
129.760780
 20
71.205280
 30
0.0
 10
129.802680
 20
71.599970
 30
0.0
 10
129.836680
 20
71.705110
 30
0.0
 10
129.802680
 20
71.810250
 30
0.0
 10
129.760780
 20
72.204950
 30
0.0
 10
129.802680
 20
72.599640
 30
0.0
 10
129.836680
 20
72.704780
 30
0.0
 10
129.802680
 20
72.809920
 30
0.0
 10
129.760780
 20
73.204610
 30
0.0
 10
129.802680
 20
73.599320
 30
0.0
 10
129.836680
 20
73.704450
 30
0.0
 10
129.802680
 20
73.809590
 30
0.0
 10
129.760780
 20
74.204280
 30
0.0
 10
129.802680
 20
74.598950
 30
0.0
 10
129.836680
 20
74.704090
 30
0.0
 10
129.802680
 20
74.809220
 30
0.0
 10
129.760780
 20
75.203920
 30
0.0
 10
129.802680
 20
75.598620
 30
0.0
 10
129.836680
 20
75.703760
 30
0.0
 10
129.802680
 20
75.808890
 30
0.0
 10
129.760780
 20
76.203590
 30
0.0
 10
129.802680
 20
76.598290
 30
0.0
 10
129.836680
 20
76.703430
 30
0.0
 10
129.802680
 20
76.808560
 30
0.0
 10
129.760780
 20
77.203260
 30
0.0
 10
129.802680
 20
77.597960
 30
0.0
 10
129.836680
 20
77.703100
 30
0.0
 10
129.802680
 20
77.808230
 30
0.0
 10
129.760780
 20
78.202930
 30
0.0
 10
129.802680
 20
78.597630
 30
0.0
 10
129.836680
 20
78.702770
 30
0.0
 10
129.802680
 20
78.807900
 30
0.0
 10
129.760780
 20
79.202560
 30
0.0
 10
129.802680
 20
79.597260
 30
0.0
 10
129.836680
 20
79.702400
 30
0.0
 10
129.802680
 20
79.807530
 30
0.0
 10
129.760780
 20
80.202240
 30
0.0
 10
129.802680
 20
80.596930
 30
0.0
 10
129.836680
 20
80.702070
 30
0.0
 10
129.802680
 20
80.807200
 30
0.0
 10
129.760780
 20
81.201910
 30
0.0
 10
129.802680
 20
81.596600
 30
0.0
 10
129.836680
 20
81.701740
 30
0.0
 10
129.802680
 20
81.806870
 30
0.0
 10
129.760780
 20
82.201580
 30
0.0
 10
129.802680
 20
82.596270
 30
0.0
 10
129.836680
 20
82.701410
 30
0.0
 10
129.802680
 20
82.806540
 30
0.0
 10
129.760780
 20
83.201250
 30
0.0
 10
129.802680
 20
83.595940
 30
0.0
 10
129.836680
 20
83.701080
 30
0.0
 10
129.802680
 20
83.806210
 30
0.0
 10
129.760780
 20
84.200920
 30
0.0
 10
129.802680
 20
84.595610
 30
0.0
 10
129.836680
 20
84.700750
 30
0.0
 10
129.802680
 20
84.805880
 30
0.0
 10
129.760780
 20
85.200590
 30
0.0
 10
129.802680
 20
85.595280
 30
0.0
 10
129.836680
 20
85.700420
 30
0.0
 10
129.802680
 20
85.805550
 30
0.0
 10
129.760780
 20
86.200250
 30
0.0
 10
129.802680
 20
86.594950
 30
0.0
 10
129.836680
 20
86.700080
 30
0.0
 10
129.802680
 20
86.805230
 30
0.0
 10
129.760780
 20
87.199920
 30
0.0
 10
129.802680
 20
87.594580
 30
0.0
 10
129.836680
 20
87.699730
 30
0.0
 10
129.802680
 20
87.804860
 30
0.0
 10
129.760780
 20
88.199560
 30
0.0
 10
129.802680
 20
88.594260
 30
0.0
 10
129.836680
 20
88.699400
 30
0.0
 10
129.802680
 20
88.804530
 30
0.0
 10
129.760780
 20
89.199230
 30
0.0
 10
129.802680
 20
89.593930
 30
0.0
 10
129.836680
 20
89.699070
 30
0.0
 10
129.802680
 20
89.804200
 30
0.0
 10
129.760780
 20
90.198900
 30
0.0
 10
129.802680
 20
90.593600
 30
0.0
 10
129.924670
 20
90.971400
 30
0.0
 10
130.123350
 20
91.315160
 30
0.0
 10
130.389240
 20
91.609760
 30
0.0
 10
130.709890
 20
91.842720
 30
0.0
 10
131.072490
 20
92.004570
 30
0.0
 10
131.460210
 20
92.087770
 30
0.0
 10
131.857930
 20
92.087770
 30
0.0
 10
132.245670
 20
92.004570
 30
0.0
 10
132.608250
 20
91.842720
 30
0.0
 10
132.928920
 20
91.609760
 30
0.0
 10
133.194810
 20
91.315160
 30
0.0
 10
133.393470
 20
90.971400
 30
0.0
 10
133.515470
 20
90.593600
 30
0.0
 10
133.557370
 20
90.198900
 30
0.0
 10
133.515470
 20
89.804200
 30
0.0
 10
133.481470
 20
89.699070
 30
0.0
 10
133.515470
 20
89.593930
 30
0.0
 10
133.557370
 20
89.199230
 30
0.0
 10
133.515470
 20
88.804530
 30
0.0
 10
133.481470
 20
88.699400
 30
0.0
 10
133.515470
 20
88.594260
 30
0.0
 10
133.557370
 20
88.199560
 30
0.0
 10
133.515470
 20
87.804860
 30
0.0
 10
133.481470
 20
87.699730
 30
0.0
 10
133.515470
 20
87.594580
 30
0.0
 10
133.557370
 20
87.199920
 30
0.0
 10
133.515470
 20
86.805230
 30
0.0
 10
133.481470
 20
86.700080
 30
0.0
 10
133.515470
 20
86.594950
 30
0.0
 10
133.557370
 20
86.200250
 30
0.0
 10
133.515470
 20
85.805550
 30
0.0
 10
133.481470
 20
85.700420
 30
0.0
 10
133.515470
 20
85.595280
 30
0.0
 10
133.557370
 20
85.200590
 30
0.0
 10
133.515470
 20
84.805880
 30
0.0
 10
133.481470
 20
84.700750
 30
0.0
 10
133.515470
 20
84.595610
 30
0.0
 10
133.557370
 20
84.200920
 30
0.0
 10
133.515470
 20
83.806210
 30
0.0
 10
133.481470
 20
83.701080
 30
0.0
 10
133.515470
 20
83.595940
 30
0.0
 10
133.557370
 20
83.201250
 30
0.0
 10
133.515470
 20
82.806540
 30
0.0
 10
133.481470
 20
82.701410
 30
0.0
 10
133.515470
 20
82.596270
 30
0.0
 10
133.557370
 20
82.201580
 30
0.0
 10
133.515470
 20
81.806870
 30
0.0
 10
133.481470
 20
81.701740
 30
0.0
 10
133.515470
 20
81.596600
 30
0.0
 10
133.557370
 20
81.201910
 30
0.0
 10
133.515470
 20
80.807200
 30
0.0
 10
133.481470
 20
80.702070
 30
0.0
 10
133.515470
 20
80.596930
 30
0.0
 10
133.557370
 20
80.202240
 30
0.0
 10
133.515470
 20
79.807530
 30
0.0
 10
133.481470
 20
79.702400
 30
0.0
 10
133.515470
 20
79.597260
 30
0.0
 10
133.557370
 20
79.202560
 30
0.0
 10
133.515470
 20
78.807900
 30
0.0
 10
133.481470
 20
78.702770
 30
0.0
 10
133.515470
 20
78.597630
 30
0.0
 10
133.557370
 20
78.202930
 30
0.0
 10
133.515470
 20
77.808230
 30
0.0
 10
133.481470
 20
77.703100
 30
0.0
 10
133.515470
 20
77.597960
 30
0.0
 10
133.557370
 20
77.203260
 30
0.0
 10
133.515470
 20
76.808560
 30
0.0
 10
133.481470
 20
76.703430
 30
0.0
 10
133.515470
 20
76.598290
 30
0.0
 10
133.557370
 20
76.203590
 30
0.0
 10
133.515470
 20
75.808890
 30
0.0
 10
133.481470
 20
75.703760
 30
0.0
 10
133.515470
 20
75.598620
 30
0.0
 10
133.557370
 20
75.203920
 30
0.0
 10
133.515470
 20
74.809220
 30
0.0
 10
133.481470
 20
74.704090
 30
0.0
 10
133.515470
 20
74.598950
 30
0.0
 10
133.557370
 20
74.204280
 30
0.0
 10
133.515470
 20
73.809590
 30
0.0
 10
133.481470
 20
73.704450
 30
0.0
 10
133.515470
 20
73.599320
 30
0.0
 10
133.557370
 20
73.204610
 30
0.0
 10
133.515470
 20
72.809920
 30
0.0
 10
133.481470
 20
72.704780
 30
0.0
 10
133.515470
 20
72.599640
 30
0.0
 10
133.557370
 20
72.204950
 30
0.0
 10
133.515470
 20
71.810250
 30
0.0
 10
133.481470
 20
71.705110
 30
0.0
 10
133.515470
 20
71.599970
 30
0.0
 10
133.557370
 20
71.205280
 30
0.0
 10
133.515470
 20
70.810570
 30
0.0
 10
133.481470
 20
70.705440
 30
0.0
 10
133.515470
 20
70.600300
 30
0.0
 10
133.557370
 20
70.205610
 30
0.0
 10
133.515470
 20
69.810900
 30
0.0
 10
133.481470
 20
69.705770
 30
0.0
 10
133.515470
 20
69.600630
 30
0.0
 10
133.557370
 20
69.205940
 30
0.0
 10
133.515470
 20
68.811230
 30
0.0
 10
133.481470
 20
68.706100
 30
0.0
 10
133.515470
 20
68.600960
 30
0.0
 10
133.557370
 20
68.206270
 30
0.0
 10
133.515470
 20
67.811560
 30
0.0
 10
133.481470
 20
67.706430
 30
0.0
 10
133.515470
 20
67.601290
 30
0.0
 10
133.557370
 20
67.206600
 30
0.0
 10
133.515470
 20
66.811900
 30
0.0
 10
133.481470
 20
66.706770
 30
0.0
 10
133.515470
 20
66.601630
 30
0.0
 10
133.557370
 20
66.206940
 30
0.0
 10
133.515470
 20
65.812270
 30
0.0
 10
133.481470
 20
65.707140
 30
0.0
 10
133.515470
 20
65.602000
 30
0.0
 10
133.557370
 20
65.207310
 30
0.0
 10
133.515470
 20
64.812600
 30
0.0
 10
133.481470
 20
64.707470
 30
0.0
 10
133.515470
 20
64.602330
 30
0.0
 10
133.557370
 20
64.207630
 30
0.0
 10
133.515470
 20
63.812930
 30
0.0
 10
133.481470
 20
63.707800
 30
0.0
 10
133.515470
 20
63.602660
 30
0.0
 10
133.557370
 20
63.207960
 30
0.0
 10
133.515470
 20
62.813260
 30
0.0
 10
133.481470
 20
62.708130
 30
0.0
 10
133.515470
 20
62.602990
 30
0.0
 10
133.557370
 20
62.208290
 30
0.0
 10
133.515470
 20
61.813590
 30
0.0
 10
133.481470
 20
61.708460
 30
0.0
 10
133.515470
 20
61.603320
 30
0.0
 10
133.557370
 20
61.208650
 30
0.0
 10
133.515470
 20
60.813960
 30
0.0
 10
133.481470
 20
60.708820
 30
0.0
 10
133.515470
 20
60.603690
 30
0.0
 10
133.557370
 20
60.208980
 30
0.0
 10
133.515470
 20
59.814290
 30
0.0
 10
133.481470
 20
59.709150
 30
0.0
 10
133.515470
 20
59.604020
 30
0.0
 10
133.557370
 20
59.209310
 30
0.0
 10
133.515470
 20
58.814620
 30
0.0
 10
133.481470
 20
58.709490
 30
0.0
 10
133.515470
 20
58.604350
 30
0.0
 10
133.557370
 20
58.209650
 30
0.0
 10
133.515470
 20
57.814950
 30
0.0
 10
133.481470
 20
57.709810
 30
0.0
 10
133.515470
 20
57.604670
 30
0.0
 10
133.557370
 20
57.209980
 30
0.0
 10
133.515470
 20
56.815270
 30
0.0
 10
133.481470
 20
56.710140
 30
0.0
 10
133.515470
 20
56.605000
 30
0.0
 10
133.557370
 20
56.210310
 30
0.0
 10
133.515470
 20
55.815600
 30
0.0
 10
133.481470
 20
55.710470
 30
0.0
 10
133.515470
 20
55.605330
 30
0.0
 10
133.557370
 20
55.210640
 30
0.0
 10
133.515470
 20
54.815930
 30
0.0
 10
133.481470
 20
54.710800
 30
0.0
 10
133.515470
 20
54.605660
 30
0.0
 10
133.557370
 20
54.210970
 30
0.0
 10
133.515470
 20
53.816260
 30
0.0
 10
133.481470
 20
53.711130
 30
0.0
 10
133.515470
 20
53.605990
 30
0.0
 10
133.557370
 20
53.211260
 30
0.0
 10
133.515470
 20
52.816590
 30
0.0
 10
133.481470
 20
52.711460
 30
0.0
 10
133.515470
 20
52.606320
 30
0.0
 10
133.557370
 20
52.211630
 30
0.0
 10
133.515470
 20
51.816920
 30
0.0
 10
133.481470
 20
51.711790
 30
0.0
 10
133.515470
 20
51.606660
 30
0.0
 10
133.557370
 20
51.211960
 30
0.0
 10
133.515470
 20
50.817250
 30
0.0
 10
133.481470
 20
50.712120
 30
0.0
 10
133.515470
 20
50.606990
 30
0.0
 10
133.557370
 20
50.212280
 30
0.0
 10
133.515470
 20
49.817580
 30
0.0
 10
133.393470
 20
49.439790
 30
0.0
 10
133.194810
 20
49.096020
 30
0.0
 10
132.928920
 20
48.801050
 30
0.0
 10
132.608250
 20
48.568090
 30
0.0
 10
132.245670
 20
48.406600
 30
0.0
 10
131.857930
 20
48.323700
 30
0.0
  0
LWPOLYLINE
  5
133
100
AcDbEntity
  8
Layer_1
 62
7
100
AcDbPolyline
 90
30
 70
1
 10
348.310580
 20
81.298280
 30
0.0
 10
347.922830
 20
81.381480
 30
0.0
 10
347.560250
 20
81.543340
 30
0.0
 10
347.239600
 20
81.776290
 30
0.0
 10
346.973690
 20
82.070890
 30
0.0
 10
346.775030
 20
82.414650
 30
0.0
 10
346.653050
 20
82.792450
 30
0.0
 10
346.611150
 20
83.187150
 30
0.0
 10
346.653050
 20
83.581890
 30
0.0
 10
346.775030
 20
83.959690
 30
0.0
 10
346.973690
 20
84.303450
 30
0.0
 10
347.239600
 20
84.598420
 30
0.0
 10
347.560250
 20
84.831010
 30
0.0
 10
347.922830
 20
84.992870
 30
0.0
 10
348.310580
 20
85.076070
 30
0.0
 10
348.708290
 20
85.076070
 30
0.0
 10
349.096020
 20
84.992870
 30
0.0
 10
349.458610
 20
84.831010
 30
0.0
 10
349.779270
 20
84.598420
 30
0.0
 10
350.045160
 20
84.303450
 30
0.0
 10
350.243830
 20
83.959690
 30
0.0
 10
350.365830
 20
83.581890
 30
0.0
 10
350.407730
 20
83.187150
 30
0.0
 10
350.365830
 20
82.792450
 30
0.0
 10
350.243830
 20
82.414650
 30
0.0
 10
350.045160
 20
82.070890
 30
0.0
 10
349.779270
 20
81.776290
 30
0.0
 10
349.458610
 20
81.543340
 30
0.0
 10
349.096020
 20
81.381480
 30
0.0
 10
348.708290
 20
81.298280
 30
0.0
  0
LWPOLYLINE
  5
134
100
AcDbEntity
  8
Layer_1
 62
7
100
AcDbPolyline
 90
30
 70
1
 10
376.291310
 20
78.300560
 30
0.0
 10
375.903560
 20
78.383760
 30
0.0
 10
375.540980
 20
78.545610
 30
0.0
 10
375.220320
 20
78.778200
 30
0.0
 10
374.954420
 20
79.073180
 30
0.0
 10
374.755760
 20
79.416940
 30
0.0
 10
374.633770
 20
79.794730
 30
0.0
 10
374.591870
 20
80.189440
 30
0.0
 10
374.633770
 20
80.584170
 30
0.0
 10
374.755760
 20
80.961980
 30
0.0
 10
374.954420
 20
81.305740
 30
0.0
 10
375.220320
 20
81.600710
 30
0.0
 10
375.540980
 20
81.833290
 30
0.0
 10
375.903560
 20
81.995150
 30
0.0
 10
376.291310
 20
82.078250
 30
0.0
 10
376.689010
 20
82.078250
 30
0.0
 10
377.076750
 20
81.995150
 30
0.0
 10
377.439340
 20
81.833290
 30
0.0
 10
377.760000
 20
81.600710
 30
0.0
 10
378.025890
 20
81.305740
 30
0.0
 10
378.224930
 20
80.961980
 30
0.0
 10
378.346940
 20
80.584170
 30
0.0
 10
378.388840
 20
80.189440
 30
0.0
 10
378.346940
 20
79.794730
 30
0.0
 10
378.224930
 20
79.416940
 30
0.0
 10
378.025890
 20
79.073180
 30
0.0
 10
377.760000
 20
78.778200
 30
0.0
 10
377.439340
 20
78.545610
 30
0.0
 10
377.076750
 20
78.383760
 30
0.0
 10
376.689010
 20
78.300560
 30
0.0
  0
LWPOLYLINE
  5
135
100
AcDbEntity
  8
Layer_1
 62
7
100
AcDbPolyline
 90
30
 70
1
 10
205.409170
 20
76.302130
 30
0.0
 10
205.021470
 20
76.385230
 30
0.0
 10
204.658890
 20
76.547090
 30
0.0
 10
204.338230
 20
76.779670
 30
0.0
 10
204.072330
 20
77.074280
 30
0.0
 10
203.873660
 20
77.418040
 30
0.0
 10
203.751680
 20
77.795830
 30
0.0
 10
203.709780
 20
78.190540
 30
0.0
 10
203.751680
 20
78.585240
 30
0.0
 10
203.873660
 20
78.963030
 30
0.0
 10
204.072330
 20
79.306790
 30
0.0
 10
204.338230
 20
79.601770
 30
0.0
 10
204.658890
 20
79.834350
 30
0.0
 10
205.021470
 20
79.996210
 30
0.0
 10
205.409170
 20
80.079310
 30
0.0
 10
205.806920
 20
80.079310
 30
0.0
 10
206.194660
 20
79.996210
 30
0.0
 10
206.557250
 20
79.834350
 30
0.0
 10
206.877910
 20
79.601770
 30
0.0
 10
207.143800
 20
79.306790
 30
0.0
 10
207.342460
 20
78.963030
 30
0.0
 10
207.464470
 20
78.585240
 30
0.0
 10
207.506370
 20
78.190540
 30
0.0
 10
207.464470
 20
77.795830
 30
0.0
 10
207.342460
 20
77.418040
 30
0.0
 10
207.143800
 20
77.074280
 30
0.0
 10
206.877910
 20
76.779670
 30
0.0
 10
206.557250
 20
76.547090
 30
0.0
 10
206.194660
 20
76.385230
 30
0.0
 10
205.806920
 20
76.302130
 30
0.0
  0
LWPOLYLINE
  5
136
100
AcDbEntity
  8
Layer_1
 62
7
100
AcDbPolyline
 90
38
 70
1
 10
6.468445
 20
71.061060
 30
0.0
 10
5.926948
 20
71.176030
 30
0.0
 10
5.421180
 20
71.400660
 30
0.0
 10
4.973275
 20
71.726650
 30
0.0
 10
4.602759
 20
72.137310
 30
0.0
 10
4.325911
 20
72.616960
 30
0.0
 10
4.154816
 20
73.143560
 30
0.0
 10
4.097029
 20
73.694110
 30
0.0
 10
4.123467
 20
73.943710
 30
0.0
 10
4.097029
 20
74.193300
 30
0.0
 10
4.123467
 20
74.443280
 30
0.0
 10
4.097029
 20
74.692880
 30
0.0
 10
4.154816
 20
75.243420
 30
0.0
 10
4.325911
 20
75.770070
 30
0.0
 10
4.602759
 20
76.249670
 30
0.0
 10
4.973275
 20
76.660370
 30
0.0
 10
5.421180
 20
76.986360
 30
0.0
 10
5.926948
 20
77.211000
 30
0.0
 10
6.468445
 20
77.325970
 30
0.0
 10
7.022066
 20
77.325970
 30
0.0
 10
7.563601
 20
77.211000
 30
0.0
 10
8.069369
 20
76.986360
 30
0.0
 10
8.517236
 20
76.660370
 30
0.0
 10
8.887752
 20
76.249670
 30
0.0
 10
9.164601
 20
75.770070
 30
0.0
 10
9.335695
 20
75.243420
 30
0.0
 10
9.393482
 20
74.692880
 30
0.0
 10
9.367044
 20
74.443280
 30
0.0
 10
9.393482
 20
74.193300
 30
0.0
 10
9.367044
 20
73.943710
 30
0.0
 10
9.393482
 20
73.694110
 30
0.0
 10
9.335695
 20
73.143560
 30
0.0
 10
9.164601
 20
72.616960
 30
0.0
 10
8.887752
 20
72.137310
 30
0.0
 10
8.517236
 20
71.726650
 30
0.0
 10
8.069369
 20
71.400660
 30
0.0
 10
7.563601
 20
71.176030
 30
0.0
 10
7.022066
 20
71.061060
 30
0.0
  0
LWPOLYLINE
  5
137
100
AcDbEntity
  8
Layer_1
 62
7
100
AcDbPolyline
 90
38
 70
1
 10
375.214050
 20
68.562420
 30
0.0
 10
374.672400
 20
68.677760
 30
0.0
 10
374.166750
 20
68.902770
 30
0.0
 10
373.719070
 20
69.228380
 30
0.0
 10
373.348170
 20
69.639760
 30
0.0
 10
373.071330
 20
70.119100
 30
0.0
 10
372.900620
 20
70.645590
 30
0.0
 10
372.842820
 20
71.196180
 30
0.0
 10
372.869220
 20
71.445780
 30
0.0
 10
372.842820
 20
71.695380
 30
0.0
 10
372.869220
 20
71.944980
 30
0.0
 10
372.842820
 20
72.194570
 30
0.0
 10
372.900620
 20
72.745110
 30
0.0
 10
373.071330
 20
73.271770
 30
0.0
 10
373.348170
 20
73.751370
 30
0.0
 10
373.719070
 20
74.162060
 30
0.0
 10
374.166750
 20
74.488050
 30
0.0
 10
374.672400
 20
74.712690
 30
0.0
 10
375.214050
 20
74.827660
 30
0.0
 10
375.767640
 20
74.827660
 30
0.0
 10
376.309280
 20
74.712690
 30
0.0
 10
376.814930
 20
74.488050
 30
0.0
 10
377.262610
 20
74.162060
 30
0.0
 10
377.633510
 20
73.751370
 30
0.0
 10
377.910350
 20
73.271770
 30
0.0
 10
378.081070
 20
72.745110
 30
0.0
 10
378.138870
 20
72.194570
 30
0.0
 10
378.112470
 20
71.944980
 30
0.0
 10
378.138870
 20
71.695380
 30
0.0
 10
378.112470
 20
71.445780
 30
0.0
 10
378.138870
 20
71.196180
 30
0.0
 10
378.081070
 20
70.645590
 30
0.0
 10
377.910350
 20
70.119100
 30
0.0
 10
377.633510
 20
69.639760
 30
0.0
 10
377.262610
 20
69.228380
 30
0.0
 10
376.814930
 20
68.902770
 30
0.0
 10
376.309280
 20
68.677760
 30
0.0
 10
375.767640
 20
68.562420
 30
0.0
  0
LWPOLYLINE
  5
138
100
AcDbEntity
  8
Layer_1
 62
7
100
AcDbPolyline
 90
30
 70
1
 10
331.322290
 20
48.323700
 30
0.0
 10
330.934600
 20
48.406600
 30
0.0
 10
330.572000
 20
48.568090
 30
0.0
 10
330.251350
 20
48.801050
 30
0.0
 10
329.985450
 20
49.096020
 30
0.0
 10
329.786780
 20
49.439790
 30
0.0
 10
329.664800
 20
49.817580
 30
0.0
 10
329.622900
 20
50.212280
 30
0.0
 10
329.664800
 20
50.606990
 30
0.0
 10
329.786780
 20
50.984780
 30
0.0
 10
329.985450
 20
51.328540
 30
0.0
 10
330.251350
 20
51.623520
 30
0.0
 10
330.572000
 20
51.856480
 30
0.0
 10
330.934600
 20
52.017960
 30
0.0
 10
331.322290
 20
52.100860
 30
0.0
 10
331.720050
 20
52.100860
 30
0.0
 10
332.107770
 20
52.017960
 30
0.0
 10
332.470380
 20
51.856480
 30
0.0
 10
332.791020
 20
51.623520
 30
0.0
 10
333.056910
 20
51.328540
 30
0.0
 10
333.255590
 20
50.984780
 30
0.0
 10
333.377580
 20
50.606990
 30
0.0
 10
333.419480
 20
50.212280
 30
0.0
 10
333.377580
 20
49.817580
 30
0.0
 10
333.255590
 20
49.439790
 30
0.0
 10
333.056910
 20
49.096020
 30
0.0
 10
332.791020
 20
48.801050
 30
0.0
 10
332.470380
 20
48.568090
 30
0.0
 10
332.107770
 20
48.406600
 30
0.0
 10
331.720050
 20
48.323700
 30
0.0
  0
LWPOLYLINE
  5
139
100
AcDbEntity
  8
Layer_1
 62
7
100
AcDbPolyline
 90
30
 70
1
 10
206.408510
 20
48.323700
 30
0.0
 10
206.020770
 20
48.406600
 30
0.0
 10
205.658190
 20
48.568090
 30
0.0
 10
205.337530
 20
48.801050
 30
0.0
 10
205.071630
 20
49.096020
 30
0.0
 10
204.872960
 20
49.439790
 30
0.0
 10
204.750970
 20
49.817580
 30
0.0
 10
204.709070
 20
50.212280
 30
0.0
 10
204.750970
 20
50.606990
 30
0.0
 10
204.872960
 20
50.984780
 30
0.0
 10
205.071630
 20
51.328540
 30
0.0
 10
205.337530
 20
51.623520
 30
0.0
 10
205.658190
 20
51.856480
 30
0.0
 10
206.020770
 20
52.017960
 30
0.0
 10
206.408510
 20
52.100860
 30
0.0
 10
206.806220
 20
52.100860
 30
0.0
 10
207.193960
 20
52.017960
 30
0.0
 10
207.556540
 20
51.856480
 30
0.0
 10
207.877210
 20
51.623520
 30
0.0
 10
208.143100
 20
51.328540
 30
0.0
 10
208.341760
 20
50.984780
 30
0.0
 10
208.463760
 20
50.606990
 30
0.0
 10
208.505660
 20
50.212280
 30
0.0
 10
208.463760
 20
49.817580
 30
0.0
 10
208.341760
 20
49.439790
 30
0.0
 10
208.143100
 20
49.096020
 30
0.0
 10
207.877210
 20
48.801050
 30
0.0
 10
207.556540
 20
48.568090
 30
0.0
 10
207.193960
 20
48.406600
 30
0.0
 10
206.806220
 20
48.323700
 30
0.0
  0
LWPOLYLINE
  5
13a
100
AcDbEntity
  8
Layer_1
 62
7
100
AcDbPolyline
 90
30
 70
1
 10
6.546816
 20
48.323700
 30
0.0
 10
6.158587
 20
48.406600
 30
0.0
 10
5.796002
 20
48.568090
 30
0.0
 10
5.474964
 20
48.801050
 30
0.0
 10
5.209446
 20
49.096020
 30
0.0
 10
5.011158
 20
49.439790
 30
0.0
 10
4.888408
 20
49.817580
 30
0.0
 10
4.846862
 20
50.212280
 30
0.0
 10
4.888408
 20
50.606990
 30
0.0
 10
5.011158
 20
50.984780
 30
0.0
 10
5.209446
 20
51.328540
 30
0.0
 10
5.474964
 20
51.623520
 30
0.0
 10
5.796002
 20
51.856480
 30
0.0
 10
6.158587
 20
52.017960
 30
0.0
 10
6.546816
 20
52.100860
 30
0.0
 10
6.943733
 20
52.100860
 30
0.0
 10
7.331963
 20
52.017960
 30
0.0
 10
7.694547
 20
51.856480
 30
0.0
 10
8.015585
 20
51.623520
 30
0.0
 10
8.281103
 20
51.328540
 30
0.0
 10
8.479391
 20
50.984780
 30
0.0
 10
8.602141
 20
50.606990
 30
0.0
 10
8.643687
 20
50.212280
 30
0.0
 10
8.602141
 20
49.817580
 30
0.0
 10
8.479391
 20
49.439790
 30
0.0
 10
8.281103
 20
49.096020
 30
0.0
 10
8.015585
 20
48.801050
 30
0.0
 10
7.694547
 20
48.568090
 30
0.0
 10
7.331963
 20
48.406600
 30
0.0
 10
6.943733
 20
48.323700
 30
0.0
  0
LWPOLYLINE
  5
13b
100
AcDbEntity
  8
Layer_1
 62
7
100
AcDbPolyline
 90
30
 70
1
 10
356.305080
 20
48.323700
 30
0.0
 10
355.917330
 20
48.406600
 30
0.0
 10
355.554750
 20
48.568090
 30
0.0
 10
355.234090
 20
48.801050
 30
0.0
 10
354.968190
 20
49.096020
 30
0.0
 10
354.769530
 20
49.439790
 30
0.0
 10
354.647550
 20
49.817580
 30
0.0
 10
354.605650
 20
50.212280
 30
0.0
 10
354.647550
 20
50.606990
 30
0.0
 10
354.769530
 20
50.984780
 30
0.0
 10
354.968190
 20
51.328540
 30
0.0
 10
355.234090
 20
51.623520
 30
0.0
 10
355.554750
 20
51.856480
 30
0.0
 10
355.917330
 20
52.017960
 30
0.0
 10
356.305080
 20
52.100860
 30
0.0
 10
356.702790
 20
52.100860
 30
0.0
 10
357.090520
 20
52.017960
 30
0.0
 10
357.453480
 20
51.856480
 30
0.0
 10
357.774150
 20
51.623520
 30
0.0
 10
358.040040
 20
51.328540
 30
0.0
 10
358.238710
 20
50.984780
 30
0.0
 10
358.360710
 20
50.606990
 30
0.0
 10
358.402610
 20
50.212280
 30
0.0
 10
358.360710
 20
49.817580
 30
0.0
 10
358.238710
 20
49.439790
 30
0.0
 10
358.040040
 20
49.096020
 30
0.0
 10
357.774150
 20
48.801050
 30
0.0
 10
357.453480
 20
48.568090
 30
0.0
 10
357.090520
 20
48.406600
 30
0.0
 10
356.702790
 20
48.323700
 30
0.0
  0
LWPOLYLINE
  5
13c
100
AcDbEntity
  8
Layer_1
 62
7
100
AcDbPolyline
 90
30
 70
1
 10
281.356790
 20
48.323700
 30
0.0
 10
280.969060
 20
48.406600
 30
0.0
 10
280.606470
 20
48.568090
 30
0.0
 10
280.285820
 20
48.801050
 30
0.0
 10
280.019920
 20
49.096020
 30
0.0
 10
279.821250
 20
49.439790
 30
0.0
 10
279.699260
 20
49.817580
 30
0.0
 10
279.657360
 20
50.212280
 30
0.0
 10
279.699260
 20
50.606990
 30
0.0
 10
279.821250
 20
50.984780
 30
0.0
 10
280.019920
 20
51.328540
 30
0.0
 10
280.285820
 20
51.623520
 30
0.0
 10
280.606470
 20
51.856480
 30
0.0
 10
280.969060
 20
52.017960
 30
0.0
 10
281.356790
 20
52.100860
 30
0.0
 10
281.754500
 20
52.100860
 30
0.0
 10
282.142250
 20
52.017960
 30
0.0
 10
282.504830
 20
51.856480
 30
0.0
 10
282.825490
 20
51.623520
 30
0.0
 10
283.091390
 20
51.328540
 30
0.0
 10
283.290050
 20
50.984780
 30
0.0
 10
283.412040
 20
50.606990
 30
0.0
 10
283.453940
 20
50.212280
 30
0.0
 10
283.412040
 20
49.817580
 30
0.0
 10
283.290050
 20
49.439790
 30
0.0
 10
283.091390
 20
49.096020
 30
0.0
 10
282.825490
 20
48.801050
 30
0.0
 10
282.504830
 20
48.568090
 30
0.0
 10
282.142250
 20
48.406600
 30
0.0
 10
281.754500
 20
48.323700
 30
0.0
  0
LWPOLYLINE
  5
13d
100
AcDbEntity
  8
Layer_1
 62
7
100
AcDbPolyline
 90
30
 70
1
 10
256.374010
 20
48.323700
 30
0.0
 10
255.986320
 20
48.406600
 30
0.0
 10
255.623740
 20
48.568090
 30
0.0
 10
255.303070
 20
48.801050
 30
0.0
 10
255.037180
 20
49.096020
 30
0.0
 10
254.838510
 20
49.439790
 30
0.0
 10
254.716510
 20
49.817580
 30
0.0
 10
254.674610
 20
50.212280
 30
0.0
 10
254.716510
 20
50.606990
 30
0.0
 10
254.838510
 20
50.984780
 30
0.0
 10
255.037180
 20
51.328540
 30
0.0
 10
255.303070
 20
51.623520
 30
0.0
 10
255.623740
 20
51.856480
 30
0.0
 10
255.986320
 20
52.017960
 30
0.0
 10
256.374010
 20
52.100860
 30
0.0
 10
256.771760
 20
52.100860
 30
0.0
 10
257.159490
 20
52.017960
 30
0.0
 10
257.522080
 20
51.856480
 30
0.0
 10
257.842730
 20
51.623520
 30
0.0
 10
258.108630
 20
51.328540
 30
0.0
 10
258.307300
 20
50.984780
 30
0.0
 10
258.429290
 20
50.606990
 30
0.0
 10
258.471190
 20
50.212280
 30
0.0
 10
258.429290
 20
49.817580
 30
0.0
 10
258.307300
 20
49.439790
 30
0.0
 10
258.108630
 20
49.096020
 30
0.0
 10
257.842730
 20
48.801050
 30
0.0
 10
257.522080
 20
48.568090
 30
0.0
 10
257.159490
 20
48.406600
 30
0.0
 10
256.771760
 20
48.323700
 30
0.0
  0
LWPOLYLINE
  5
13e
100
AcDbEntity
  8
Layer_1
 62
7
100
AcDbPolyline
 90
30
 70
1
 10
231.391260
 20
48.323700
 30
0.0
 10
231.003520
 20
48.406600
 30
0.0
 10
230.640940
 20
48.568090
 30
0.0
 10
230.320270
 20
48.801050
 30
0.0
 10
230.054380
 20
49.096020
 30
0.0
 10
229.855710
 20
49.439790
 30
0.0
 10
229.733710
 20
49.817580
 30
0.0
 10
229.691810
 20
50.212280
 30
0.0
 10
229.733710
 20
50.606990
 30
0.0
 10
229.855710
 20
50.984780
 30
0.0
 10
230.054380
 20
51.328540
 30
0.0
 10
230.320270
 20
51.623520
 30
0.0
 10
230.640940
 20
51.856480
 30
0.0
 10
231.003520
 20
52.017960
 30
0.0
 10
231.391260
 20
52.100860
 30
0.0
 10
231.788960
 20
52.100860
 30
0.0
 10
232.176710
 20
52.017960
 30
0.0
 10
232.539290
 20
51.856480
 30
0.0
 10
232.859950
 20
51.623520
 30
0.0
 10
233.125850
 20
51.328540
 30
0.0
 10
233.324510
 20
50.984780
 30
0.0
 10
233.446500
 20
50.606990
 30
0.0
 10
233.488400
 20
50.212280
 30
0.0
 10
233.446500
 20
49.817580
 30
0.0
 10
233.324510
 20
49.439790
 30
0.0
 10
233.125850
 20
49.096020
 30
0.0
 10
232.859950
 20
48.801050
 30
0.0
 10
232.539290
 20
48.568090
 30
0.0
 10
232.176710
 20
48.406600
 30
0.0
 10
231.788960
 20
48.323700
 30
0.0
  0
LWPOLYLINE
  5
13f
100
AcDbEntity
  8
Layer_1
 62
7
100
AcDbPolyline
 90
30
 70
1
 10
181.425720
 20
48.323700
 30
0.0
 10
181.038020
 20
48.406600
 30
0.0
 10
180.675440
 20
48.568090
 30
0.0
 10
180.354770
 20
48.801050
 30
0.0
 10
180.088880
 20
49.096020
 30
0.0
 10
179.890210
 20
49.439790
 30
0.0
 10
179.768210
 20
49.817580
 30
0.0
 10
179.726310
 20
50.212280
 30
0.0
 10
179.768210
 20
50.606990
 30
0.0
 10
179.890210
 20
50.984780
 30
0.0
 10
180.088880
 20
51.328540
 30
0.0
 10
180.354770
 20
51.623520
 30
0.0
 10
180.675440
 20
51.856480
 30
0.0
 10
181.038020
 20
52.017960
 30
0.0
 10
181.425720
 20
52.100860
 30
0.0
 10
181.823470
 20
52.100860
 30
0.0
 10
182.211210
 20
52.017960
 30
0.0
 10
182.573800
 20
51.856480
 30
0.0
 10
182.894450
 20
51.623520
 30
0.0
 10
183.160350
 20
51.328540
 30
0.0
 10
183.359010
 20
50.984780
 30
0.0
 10
183.481010
 20
50.606990
 30
0.0
 10
183.522910
 20
50.212280
 30
0.0
 10
183.481010
 20
49.817580
 30
0.0
 10
183.359010
 20
49.439790
 30
0.0
 10
183.160350
 20
49.096020
 30
0.0
 10
182.894450
 20
48.801050
 30
0.0
 10
182.573800
 20
48.568090
 30
0.0
 10
182.211210
 20
48.406600
 30
0.0
 10
181.823470
 20
48.323700
 30
0.0
  0
LWPOLYLINE
  5
140
100
AcDbEntity
  8
Layer_1
 62
7
100
AcDbPolyline
 90
30
 70
1
 10
306.339540
 20
48.323700
 30
0.0
 10
305.951810
 20
48.406600
 30
0.0
 10
305.589210
 20
48.568090
 30
0.0
 10
305.268560
 20
48.801050
 30
0.0
 10
305.002670
 20
49.096020
 30
0.0
 10
304.804000
 20
49.439790
 30
0.0
 10
304.682000
 20
49.817580
 30
0.0
 10
304.640100
 20
50.212280
 30
0.0
 10
304.682000
 20
50.606990
 30
0.0
 10
304.804000
 20
50.984780
 30
0.0
 10
305.002670
 20
51.328540
 30
0.0
 10
305.268560
 20
51.623520
 30
0.0
 10
305.589210
 20
51.856480
 30
0.0
 10
305.951810
 20
52.017960
 30
0.0
 10
306.339540
 20
52.100860
 30
0.0
 10
306.737250
 20
52.100860
 30
0.0
 10
307.124990
 20
52.017960
 30
0.0
 10
307.487580
 20
51.856480
 30
0.0
 10
307.808240
 20
51.623520
 30
0.0
 10
308.074140
 20
51.328540
 30
0.0
 10
308.272800
 20
50.984780
 30
0.0
 10
308.394780
 20
50.606990
 30
0.0
 10
308.436680
 20
50.212280
 30
0.0
 10
308.394780
 20
49.817580
 30
0.0
 10
308.272800
 20
49.439790
 30
0.0
 10
308.074140
 20
49.096020
 30
0.0
 10
307.808240
 20
48.801050
 30
0.0
 10
307.487580
 20
48.568090
 30
0.0
 10
307.124990
 20
48.406600
 30
0.0
 10
306.737250
 20
48.323700
 30
0.0
  0
LWPOLYLINE
  5
141
100
AcDbEntity
  8
Layer_1
 62
7
100
AcDbPolyline
 90
30
 70
1
 10
156.442970
 20
48.323700
 30
0.0
 10
156.055230
 20
48.406600
 30
0.0
 10
155.692650
 20
48.568090
 30
0.0
 10
155.371990
 20
48.801050
 30
0.0
 10
155.106100
 20
49.096020
 30
0.0
 10
154.907420
 20
49.439790
 30
0.0
 10
154.785440
 20
49.817580
 30
0.0
 10
154.743540
 20
50.212280
 30
0.0
 10
154.785440
 20
50.606990
 30
0.0
 10
154.907420
 20
50.984780
 30
0.0
 10
155.106100
 20
51.328540
 30
0.0
 10
155.371990
 20
51.623520
 30
0.0
 10
155.692650
 20
51.856480
 30
0.0
 10
156.055230
 20
52.017960
 30
0.0
 10
156.442970
 20
52.100860
 30
0.0
 10
156.840680
 20
52.100860
 30
0.0
 10
157.228430
 20
52.017960
 30
0.0
 10
157.591010
 20
51.856480
 30
0.0
 10
157.911680
 20
51.623520
 30
0.0
 10
158.177570
 20
51.328540
 30
0.0
 10
158.376230
 20
50.984780
 30
0.0
 10
158.498230
 20
50.606990
 30
0.0
 10
158.540130
 20
50.212280
 30
0.0
 10
158.498230
 20
49.817580
 30
0.0
 10
158.376230
 20
49.439790
 30
0.0
 10
158.177570
 20
49.096020
 30
0.0
 10
157.911680
 20
48.801050
 30
0.0
 10
157.591010
 20
48.568090
 30
0.0
 10
157.228430
 20
48.406600
 30
0.0
 10
156.840680
 20
48.323700
 30
0.0
  0
LWPOLYLINE
  5
142
100
AcDbEntity
  8
Layer_1
 62
7
100
AcDbPolyline
 90
30
 70
1
 10
22.588043
 20
34.831180
 30
0.0
 10
22.302131
 20
34.891980
 30
0.0
 10
22.034724
 20
35.011110
 30
0.0
 10
21.798289
 20
35.182790
 30
0.0
 10
21.602644
 20
35.399870
 30
0.0
 10
21.456478
 20
35.653250
 30
0.0
 10
21.366218
 20
35.931200
 30
0.0
 10
21.335998
 20
36.222020
 30
0.0
 10
21.366218
 20
36.512840
 30
0.0
 10
21.456478
 20
36.790800
 30
0.0
 10
21.602644
 20
37.044180
 30
0.0
 10
21.798289
 20
37.261250
 30
0.0
 10
22.034724
 20
37.432940
 30
0.0
 10
22.302131
 20
37.552070
 30
0.0
 10
22.588043
 20
37.612870
 30
0.0
 10
22.880378
 20
37.612870
 30
0.0
 10
23.166290
 20
37.552070
 30
0.0
 10
23.433696
 20
37.432940
 30
0.0
 10
23.670131
 20
37.261250
 30
0.0
 10
23.865776
 20
37.044180
 30
0.0
 10
24.011943
 20
36.790800
 30
0.0
 10
24.102213
 20
36.512840
 30
0.0
 10
24.132433
 20
36.222020
 30
0.0
 10
24.102213
 20
35.931200
 30
0.0
 10
24.011943
 20
35.653250
 30
0.0
 10
23.865776
 20
35.399870
 30
0.0
 10
23.670131
 20
35.182790
 30
0.0
 10
23.433696
 20
35.011110
 30
0.0
 10
23.166290
 20
34.891980
 30
0.0
 10
22.880378
 20
34.831180
 30
0.0
  0
LWPOLYLINE
  5
143
100
AcDbEntity
  8
Layer_1
 62
7
100
AcDbPolyline
 90
30
 70
1
 10
139.507670
 20
34.831180
 30
0.0
 10
139.221000
 20
34.891980
 30
0.0
 10
138.954350
 20
35.011110
 30
0.0
 10
138.717540
 20
35.182790
 30
0.0
 10
138.521510
 20
35.399870
 30
0.0
 10
138.375730
 20
35.653250
 30
0.0
 10
138.285830
 20
35.931200
 30
0.0
 10
138.255630
 20
36.222020
 30
0.0
 10
138.285830
 20
36.512840
 30
0.0
 10
138.375730
 20
36.790800
 30
0.0
 10
138.521510
 20
37.044180
 30
0.0
 10
138.717540
 20
37.261250
 30
0.0
 10
138.954350
 20
37.432940
 30
0.0
 10
139.221000
 20
37.552070
 30
0.0
 10
139.507670
 20
37.612870
 30
0.0
 10
139.799630
 20
37.612870
 30
0.0
 10
140.086300
 20
37.552070
 30
0.0
 10
140.352950
 20
37.432940
 30
0.0
 10
140.589770
 20
37.261250
 30
0.0
 10
140.785770
 20
37.044180
 30
0.0
 10
140.931560
 20
36.790800
 30
0.0
 10
141.021460
 20
36.512840
 30
0.0
 10
141.051660
 20
36.222020
 30
0.0
 10
141.021460
 20
35.931200
 30
0.0
 10
140.931560
 20
35.653250
 30
0.0
 10
140.785770
 20
35.399870
 30
0.0
 10
140.589770
 20
35.182790
 30
0.0
 10
140.352950
 20
35.011110
 30
0.0
 10
140.086300
 20
34.891980
 30
0.0
 10
139.799630
 20
34.831180
 30
0.0
  0
LWPOLYLINE
  5
144
100
AcDbEntity
  8
Layer_1
 62
7
100
AcDbPolyline
 90
30
 70
1
 10
205.409170
 20
31.336520
 30
0.0
 10
205.021470
 20
31.419420
 30
0.0
 10
204.658890
 20
31.580890
 30
0.0
 10
204.338230
 20
31.813850
 30
0.0
 10
204.072330
 20
32.108830
 30
0.0
 10
203.873660
 20
32.452590
 30
0.0
 10
203.751680
 20
32.830380
 30
0.0
 10
203.709780
 20
33.225090
 30
0.0
 10
203.751680
 20
33.619790
 30
0.0
 10
203.873660
 20
33.997590
 30
0.0
 10
204.072330
 20
34.341350
 30
0.0
 10
204.338230
 20
34.636320
 30
0.0
 10
204.658890
 20
34.869660
 30
0.0
 10
205.021470
 20
35.031150
 30
0.0
 10
205.409170
 20
35.114050
 30
0.0
 10
205.806920
 20
35.114050
 30
0.0
 10
206.194660
 20
35.031150
 30
0.0
 10
206.557250
 20
34.869660
 30
0.0
 10
206.877910
 20
34.636320
 30
0.0
 10
207.143800
 20
34.341350
 30
0.0
 10
207.342460
 20
33.997590
 30
0.0
 10
207.464470
 20
33.619790
 30
0.0
 10
207.506370
 20
33.225090
 30
0.0
 10
207.464470
 20
32.830380
 30
0.0
 10
207.342460
 20
32.452590
 30
0.0
 10
207.143800
 20
32.108830
 30
0.0
 10
206.877910
 20
31.813850
 30
0.0
 10
206.557250
 20
31.580890
 30
0.0
 10
206.194660
 20
31.419420
 30
0.0
 10
205.806920
 20
31.336520
 30
0.0
  0
LWPOLYLINE
  5
145
100
AcDbEntity
  8
Layer_1
 62
7
100
AcDbPolyline
 90
30
 70
1
 10
348.310580
 20
31.336520
 30
0.0
 10
347.922830
 20
31.419420
 30
0.0
 10
347.560250
 20
31.580890
 30
0.0
 10
347.239600
 20
31.813850
 30
0.0
 10
346.973690
 20
32.108830
 30
0.0
 10
346.775030
 20
32.452590
 30
0.0
 10
346.653050
 20
32.830380
 30
0.0
 10
346.611150
 20
33.225090
 30
0.0
 10
346.653050
 20
33.619790
 30
0.0
 10
346.775030
 20
33.997590
 30
0.0
 10
346.973690
 20
34.341350
 30
0.0
 10
347.239600
 20
34.636320
 30
0.0
 10
347.560250
 20
34.869660
 30
0.0
 10
347.922830
 20
35.031150
 30
0.0
 10
348.310580
 20
35.114050
 30
0.0
 10
348.708290
 20
35.114050
 30
0.0
 10
349.096020
 20
35.031150
 30
0.0
 10
349.458610
 20
34.869660
 30
0.0
 10
349.779270
 20
34.636320
 30
0.0
 10
350.045160
 20
34.341350
 30
0.0
 10
350.243830
 20
33.997590
 30
0.0
 10
350.365830
 20
33.619790
 30
0.0
 10
350.407730
 20
33.225090
 30
0.0
 10
350.365830
 20
32.830380
 30
0.0
 10
350.243830
 20
32.452590
 30
0.0
 10
350.045160
 20
32.108830
 30
0.0
 10
349.779270
 20
31.813850
 30
0.0
 10
349.458610
 20
31.580890
 30
0.0
 10
349.096020
 20
31.419420
 30
0.0
 10
348.708290
 20
31.336520
 30
0.0
  0
LWPOLYLINE
  5
146
100
AcDbEntity
  8
Layer_1
 62
7
100
AcDbPolyline
 90
30
 70
1
 10
6.546816
 20
8.353910
 30
0.0
 10
6.158587
 20
8.436810
 30
0.0
 10
5.796002
 20
8.598290
 30
0.0
 10
5.474964
 20
8.831250
 30
0.0
 10
5.209446
 20
9.126220
 30
0.0
 10
5.011158
 20
9.469990
 30
0.0
 10
4.888408
 20
9.847780
 30
0.0
 10
4.846862
 20
10.242490
 30
0.0
 10
4.888408
 20
10.637180
 30
0.0
 10
5.011158
 20
11.014990
 30
0.0
 10
5.209446
 20
11.358750
 30
0.0
 10
5.474964
 20
11.653730
 30
0.0
 10
5.796002
 20
11.887060
 30
0.0
 10
6.158587
 20
12.048540
 30
0.0
 10
6.546816
 20
12.131440
 30
0.0
 10
6.943733
 20
12.131440
 30
0.0
 10
7.331963
 20
12.048540
 30
0.0
 10
7.694547
 20
11.887060
 30
0.0
 10
8.015585
 20
11.653730
 30
0.0
 10
8.281103
 20
11.358750
 30
0.0
 10
8.479391
 20
11.014990
 30
0.0
 10
8.602141
 20
10.637180
 30
0.0
 10
8.643687
 20
10.242490
 30
0.0
 10
8.602141
 20
9.847780
 30
0.0
 10
8.479391
 20
9.469990
 30
0.0
 10
8.281103
 20
9.126220
 30
0.0
 10
8.015585
 20
8.831250
 30
0.0
 10
7.694547
 20
8.598290
 30
0.0
 10
7.331963
 20
8.436810
 30
0.0
 10
6.943733
 20
8.353910
 30
0.0
  0
LWPOLYLINE
  5
147
100
AcDbEntity
  8
Layer_1
 62
7
100
AcDbPolyline
 90
30
 70
1
 10
376.291310
 20
8.353910
 30
0.0
 10
375.903560
 20
8.436810
 30
0.0
 10
375.540980
 20
8.598290
 30
0.0
 10
375.220320
 20
8.831250
 30
0.0
 10
374.954420
 20
9.126220
 30
0.0
 10
374.755760
 20
9.469990
 30
0.0
 10
374.633770
 20
9.847780
 30
0.0
 10
374.591870
 20
10.242490
 30
0.0
 10
374.633770
 20
10.637180
 30
0.0
 10
374.755760
 20
11.014990
 30
0.0
 10
374.954420
 20
11.358750
 30
0.0
 10
375.220320
 20
11.653730
 30
0.0
 10
375.540980
 20
11.887060
 30
0.0
 10
375.903560
 20
12.048540
 30
0.0
 10
376.291310
 20
12.131440
 30
0.0
 10
376.689010
 20
12.131440
 30
0.0
 10
377.076750
 20
12.048540
 30
0.0
 10
377.439340
 20
11.887060
 30
0.0
 10
377.760000
 20
11.653730
 30
0.0
 10
378.025890
 20
11.358750
 30
0.0
 10
378.224930
 20
11.014990
 30
0.0
 10
378.346940
 20
10.637180
 30
0.0
 10
378.388840
 20
10.242490
 30
0.0
 10
378.346940
 20
9.847780
 30
0.0
 10
378.224930
 20
9.469990
 30
0.0
 10
378.025890
 20
9.126220
 30
0.0
 10
377.760000
 20
8.831250
 30
0.0
 10
377.439340
 20
8.598290
 30
0.0
 10
377.076750
 20
8.436810
 30
0.0
 10
376.689010
 20
8.353910
 30
0.0
  0
LWPOLYLINE
  5
148
100
AcDbEntity
  8
Layer_1
 62
7
100
AcDbPolyline
 90
30
 70
1
 10
348.310580
 20
6.355440
 30
0.0
 10
347.922830
 20
6.438340
 30
0.0
 10
347.560250
 20
6.599810
 30
0.0
 10
347.239600
 20
6.833150
 30
0.0
 10
346.973690
 20
7.128130
 30
0.0
 10
346.775030
 20
7.471890
 30
0.0
 10
346.653050
 20
7.849690
 30
0.0
 10
346.611150
 20
8.244400
 30
0.0
 10
346.653050
 20
8.639090
 30
0.0
 10
346.775030
 20
9.016900
 30
0.0
 10
346.973690
 20
9.360660
 30
0.0
 10
347.239600
 20
9.655630
 30
0.0
 10
347.560250
 20
9.888970
 30
0.0
 10
347.922830
 20
10.050830
 30
0.0
 10
348.310580
 20
10.133730
 30
0.0
 10
348.708290
 20
10.133730
 30
0.0
 10
349.096020
 20
10.050830
 30
0.0
 10
349.458610
 20
9.888970
 30
0.0
 10
349.779270
 20
9.655630
 30
0.0
 10
350.045160
 20
9.360660
 30
0.0
 10
350.243830
 20
9.016900
 30
0.0
 10
350.365830
 20
8.639090
 30
0.0
 10
350.407730
 20
8.244400
 30
0.0
 10
350.365830
 20
7.849690
 30
0.0
 10
350.243830
 20
7.471890
 30
0.0
 10
350.045160
 20
7.128130
 30
0.0
 10
349.779270
 20
6.833150
 30
0.0
 10
349.458610
 20
6.599810
 30
0.0
 10
349.096020
 20
6.438340
 30
0.0
 10
348.708290
 20
6.355440
 30
0.0
  0
LWPOLYLINE
  5
149
100
AcDbEntity
  8
Layer_1
 62
7
100
AcDbPolyline
 90
30
 70
1
 10
318.331270
 20
6.355440
 30
0.0
 10
317.943530
 20
6.438340
 30
0.0
 10
317.580940
 20
6.599810
 30
0.0
 10
317.260280
 20
6.833150
 30
0.0
 10
316.994390
 20
7.128130
 30
0.0
 10
316.795730
 20
7.471890
 30
0.0
 10
316.673730
 20
7.849690
 30
0.0
 10
316.631830
 20
8.244400
 30
0.0
 10
316.673730
 20
8.639090
 30
0.0
 10
316.795730
 20
9.016900
 30
0.0
 10
316.994390
 20
9.360660
 30
0.0
 10
317.260280
 20
9.655630
 30
0.0
 10
317.580940
 20
9.888970
 30
0.0
 10
317.943530
 20
10.050830
 30
0.0
 10
318.331270
 20
10.133730
 30
0.0
 10
318.728970
 20
10.133730
 30
0.0
 10
319.116720
 20
10.050830
 30
0.0
 10
319.479300
 20
9.888970
 30
0.0
 10
319.799970
 20
9.655630
 30
0.0
 10
320.065860
 20
9.360660
 30
0.0
 10
320.264520
 20
9.016900
 30
0.0
 10
320.386520
 20
8.639090
 30
0.0
 10
320.428420
 20
8.244400
 30
0.0
 10
320.386520
 20
7.849690
 30
0.0
 10
320.264520
 20
7.471890
 30
0.0
 10
320.065860
 20
7.128130
 30
0.0
 10
319.799970
 20
6.833150
 30
0.0
 10
319.479300
 20
6.599810
 30
0.0
 10
319.116720
 20
6.438340
 30
0.0
 10
318.728970
 20
6.355440
 30
0.0
  0
LWPOLYLINE
  5
14a
100
AcDbEntity
  8
Layer_1
 62
7
100
AcDbPolyline
 90
30
 70
1
 10
238.386420
 20
6.355440
 30
0.0
 10
237.998720
 20
6.438340
 30
0.0
 10
237.636140
 20
6.599810
 30
0.0
 10
237.315470
 20
6.833150
 30
0.0
 10
237.049580
 20
7.128130
 30
0.0
 10
236.850910
 20
7.471890
 30
0.0
 10
236.728910
 20
7.849690
 30
0.0
 10
236.687010
 20
8.244400
 30
0.0
 10
236.728910
 20
8.639090
 30
0.0
 10
236.850910
 20
9.016900
 30
0.0
 10
237.049580
 20
9.360660
 30
0.0
 10
237.315470
 20
9.655630
 30
0.0
 10
237.636140
 20
9.888970
 30
0.0
 10
237.998720
 20
10.050830
 30
0.0
 10
238.386420
 20
10.133730
 30
0.0
 10
238.784170
 20
10.133730
 30
0.0
 10
239.171910
 20
10.050830
 30
0.0
 10
239.534490
 20
9.888970
 30
0.0
 10
239.855150
 20
9.655630
 30
0.0
 10
240.121050
 20
9.360660
 30
0.0
 10
240.319710
 20
9.016900
 30
0.0
 10
240.441710
 20
8.639090
 30
0.0
 10
240.483610
 20
8.244400
 30
0.0
 10
240.441710
 20
7.849690
 30
0.0
 10
240.319710
 20
7.471890
 30
0.0
 10
240.121050
 20
7.128130
 30
0.0
 10
239.855150
 20
6.833150
 30
0.0
 10
239.534490
 20
6.599810
 30
0.0
 10
239.171910
 20
6.438340
 30
0.0
 10
238.784170
 20
6.355440
 30
0.0
  0
LWPOLYLINE
  5
14b
100
AcDbEntity
  8
Layer_1
 62
7
100
AcDbPolyline
 90
30
 70
1
 10
56.909269
 20
168.232490
 30
0.0
 10
56.512316
 20
168.232490
 30
0.0
 10
56.124085
 20
168.315590
 30
0.0
 10
55.761502
 20
168.477830
 30
0.0
 10
55.440463
 20
168.710420
 30
0.0
 10
55.174946
 20
169.005380
 30
0.0
 10
54.976279
 20
169.349150
 30
0.0
 10
54.853530
 20
169.726950
 30
0.0
 10
54.811990
 20
170.121650
 30
0.0
 10
54.853530
 20
170.516390
 30
0.0
 10
54.976279
 20
170.894190
 30
0.0
 10
55.174946
 20
171.237950
 30
0.0
 10
55.440463
 20
171.532930
 30
0.0
 10
55.761502
 20
171.765510
 30
0.0
 10
56.124085
 20
171.927360
 30
0.0
 10
56.512316
 20
172.010560
 30
0.0
 10
56.909269
 20
172.010560
 30
0.0
 10
57.297500
 20
171.927360
 30
0.0
 10
57.660084
 20
171.765510
 30
0.0
 10
57.981123
 20
171.532930
 30
0.0
 10
58.246640
 20
171.237950
 30
0.0
 10
58.444928
 20
170.894190
 30
0.0
 10
58.567678
 20
170.516390
 30
0.0
 10
58.609228
 20
170.121650
 30
0.0
 10
58.567678
 20
169.726950
 30
0.0
 10
58.444928
 20
169.349150
 30
0.0
 10
58.246640
 20
169.005380
 30
0.0
 10
57.981123
 20
168.710420
 30
0.0
 10
57.660084
 20
168.477830
 30
0.0
 10
57.297500
 20
168.315590
 30
0.0
  0
ENDSEC
  0
SECTION
  2
OBJECTS
  0
DICTIONARY
  5
C
330
0
100
AcDbDictionary
  3
ACAD_GROUP
350
D
  3
ACAD_MLINESTYLE
350
17
  0
DICTIONARY
  5
D
330
C
100
AcDbDictionary
  0
DICTIONARY
  5
1A
330
C
100
AcDbDictionary
  0
DICTIONARY
  5
17
330
C
100
AcDbDictionary
  3
STANDARD
350
18
  0
DICTIONARY
  5
19
330
C
100
AcDbDictionary
  0
ENDSEC
  0
EOF
