<?xml version="1.0" encoding="UTF-8" standalone="no"?>
<!-- Created with Inkscape (http://www.inkscape.org/) -->

<svg
   xmlns:dc="http://purl.org/dc/elements/1.1/"
   xmlns:cc="http://creativecommons.org/ns#"
   xmlns:rdf="http://www.w3.org/1999/02/22-rdf-syntax-ns#"
   xmlns:svg="http://www.w3.org/2000/svg"
   xmlns="http://www.w3.org/2000/svg"
   xmlns:sodipodi="http://sodipodi.sourceforge.net/DTD/sodipodi-0.dtd"
   xmlns:inkscape="http://www.inkscape.org/namespaces/inkscape"
   width="210mm"
   height="297mm"
   viewBox="0 0 210 297"
   version="1.1"
   id="svg1465"
   inkscape:version="0.92.2 (5c3e80d, 2017-08-06)"
   sodipodi:docname="acrylic_laser_zbed_384_350.svg">
  <defs
     id="defs1459" />
  <sodipodi:namedview
     id="base"
     pagecolor="#ffffff"
     bordercolor="#666666"
     borderopacity="1.0"
     inkscape:pageopacity="0.0"
     inkscape:pageshadow="2"
     inkscape:zoom="0.67972082"
     inkscape:cx="396.85039"
     inkscape:cy="561.25984"
     inkscape:document-units="mm"
     inkscape:current-layer="layer1"
     showgrid="false"
     inkscape:window-width="1920"
     inkscape:window-height="986"
     inkscape:window-x="-11"
     inkscape:window-y="-11"
     inkscape:window-maximized="1" />
  <metadata
     id="metadata1462">
    <rdf:RDF>
      <cc:Work
         rdf:about="">
        <dc:format>image/svg+xml</dc:format>
        <dc:type
           rdf:resource="http://purl.org/dc/dcmitype/StillImage" />
        <dc:title></dc:title>
      </cc:Work>
    </rdf:RDF>
  </metadata>
  <g
     inkscape:label="Layer 1"
     inkscape:groupmode="layer"
     id="layer1">
    <path
       id="path1481"
       d="m 41.721136,196.92584 h 83.942094 v 99.82442 H 383.985 V -52.984991 H 346.51084 V 76.916647 H 38.723204 V -52.984991 H 0.24974398 V 296.75026 H 41.721136 Z m 319.580514,-231.035127 -0.38774,-0.0832 -0.36258,-0.16186 -0.32067,-0.232956 -0.26589,-0.294977 -0.19867,-0.343762 -0.122,-0.377798 -0.0419,-0.394663 0.0419,-0.394703 0.122,-0.377797 0.19867,-0.343763 0.26589,-0.294599 0.32067,-0.232956 0.36258,-0.161859 0.38774,-0.0832 h 0.3977 l 0.38775,0.0832 0.36258,0.161859 0.32066,0.232956 0.2659,0.294599 0.19904,0.343763 0.12199,0.377797 0.0419,0.394703 -0.0419,0.394663 -0.12199,0.377798 -0.19904,0.343762 -0.2659,0.294977 -0.32066,0.232956 -0.36258,0.16186 -0.38775,0.0832 z m -339.765177,0 -0.388229,-0.0832 -0.362584,-0.16186 -0.321039,-0.232956 -0.265518,-0.294977 -0.198287,-0.343762 -0.122751,-0.377798 -0.04155,-0.394663 0.04155,-0.394703 0.122751,-0.377797 0.198287,-0.343763 0.265518,-0.294599 0.321039,-0.232956 0.362584,-0.161859 0.388229,-0.0832 h 0.396916 l 0.388231,0.0832 0.362585,0.161859 0.321038,0.232956 0.265517,0.294599 0.198288,0.343763 0.122751,0.377797 0.04154,0.394703 -0.04154,0.394663 -0.122751,0.377798 -0.198288,0.343762 -0.265517,0.294977 -0.321038,0.232956 -0.362585,0.16186 -0.388231,0.0832 z M 6.468445,-3.8871726 5.9269478,-4.0021381 5.4211804,-4.2267746 4.9732752,-4.552384 4.6027591,-4.9631209 4.3259108,-5.4427235 4.1548163,-5.9693334 4.0970295,-6.5199197 4.1234679,-6.7695157 4.0970295,-7.01949 4.1234679,-7.2690861 4.0970295,-7.5190604 4.1548163,-8.0696466 4.3259108,-8.5962565 4.6027591,-9.075897 4.9732752,-9.4865582 5.4211804,-9.8121676 5.9269478,-10.036804 6.468445,-10.15177 h 0.5536213 l 0.5415349,0.114966 0.5057676,0.2246364 0.4478673,0.3256094 0.3705161,0.4106612 0.2768483,0.4796405 0.1710945,0.5266099 0.057787,0.5505862 -0.026438,0.2499743 0.026438,0.2495961 -0.026438,0.2499743 0.026438,0.249596 -0.057787,0.5505863 -0.1710945,0.5266099 -0.2768483,0.4796026 -0.3705161,0.4107369 -0.4478673,0.3256094 -0.5057676,0.2246365 -0.5415349,0.1149655 z m 0,11.9909361 L 5.9269478,7.9887981 5.4211804,7.7641617 4.9732752,7.4385522 4.6027591,7.0278154 4.3259108,6.5481749 4.1548163,6.0216028 4.0970295,5.4710165 4.1234679,5.2214204 4.0970295,4.9714461 4.1234679,4.7218501 4.0970295,4.4718758 4.1548163,3.9213274 4.3259108,3.3947175 4.6027591,2.915077 4.9732752,2.504378 5.4211804,2.1783904 5.9269478,1.9537539 6.468445,1.8387885 H 7.0220663 L 7.5636012,1.9537539 8.0693688,2.1783904 8.5172361,2.504378 8.8877522,2.915077 9.1646005,3.3947175 9.335695,3.9213274 9.3934823,4.4718758 9.3670442,4.7218501 9.3934823,4.9714461 9.3670442,5.2214204 9.3934823,5.4710165 9.335695,6.0216028 9.1646005,6.5481749 8.8877522,7.0278154 8.5172361,7.4385522 8.0693688,7.7641617 7.5636012,7.9887981 7.0220663,8.1037635 Z M 30.530267,7.8590838 30.142038,7.7758851 29.779454,7.6140257 29.458416,7.3810694 29.192897,7.0860923 28.994609,6.7423304 l -0.12275,-0.3777978 -0.04154,-0.3947021 0.04154,-0.3947022 0.12275,-0.3777977 0.198288,-0.3437618 0.265519,-0.2949773 0.321038,-0.2329563 0.362584,-0.1618593 0.388229,-0.083199 h 0.396917 l 0.38823,0.083199 0.362585,0.1618593 0.321037,0.2329563 0.265518,0.2949773 0.198289,0.3437618 0.122749,0.3777977 0.04154,0.3947022 -0.04154,0.3947021 -0.122749,0.3777978 -0.198289,0.3437619 -0.265518,0.2949771 -0.321037,0.2329563 -0.362585,0.1618594 -0.38823,0.083199 z m 321.777543,0 -0.3877,-0.083199 -0.36258,-0.1618594 -0.32067,-0.2329563 -0.26589,-0.2949771 -0.19867,-0.3437619 -0.122,-0.3777978 -0.0419,-0.3947021 0.0419,-0.3947022 0.122,-0.3777977 0.19867,-0.3437618 0.26589,-0.2949773 0.32067,-0.2329563 0.36258,-0.1618593 0.3877,-0.083199 h 0.39775 l 0.38774,0.083199 0.36258,0.1618593 0.32066,0.2329563 0.2659,0.2949773 0.19866,0.3437618 0.122,0.3777977 0.0419,0.3947022 -0.0419,0.3947021 -0.122,0.3777978 -0.19866,0.3437619 -0.2659,0.2949771 -0.32066,0.2329563 -0.36258,0.1618594 -0.38774,0.083199 z m 22.90624,2.7429102 -0.54165,-0.114965 -0.50565,-0.224637 -0.44768,-0.3256095 -0.3709,-0.4106616 -0.27684,-0.4796405 -0.17071,-0.5266099 -0.0578,-0.5505862 0.0264,-0.2499743 -0.0264,-0.2495961 0.0264,-0.2495961 -0.0264,-0.2495961 0.0578,-0.5505485 0.17071,-0.5266099 0.27684,-0.4796405 0.3709,-0.410699 0.44768,-0.3259875 0.50565,-0.2246364 0.54165,-0.1149656 h 0.55359 l 0.54164,0.1149656 0.50565,0.2246364 0.44768,0.3259875 0.3709,0.410699 0.27684,0.4796405 0.17072,0.5266099 0.0578,0.5505485 -0.0264,0.2495961 0.0264,0.2495961 -0.0264,0.2495961 0.0264,0.2499743 -0.0578,0.5505862 -0.17072,0.5266099 -0.27684,0.4796405 -0.3709,0.4106616 -0.44768,0.3256095 -0.50565,0.224637 -0.54164,0.114965 z m -13.9124,5.25101 -0.38774,-0.0832 -0.36258,-0.161859 -0.32067,-0.232957 -0.26589,-0.294977 -0.19867,-0.343761 -0.122,-0.377799 -0.0419,-0.394702 0.0419,-0.394702 0.122,-0.377798 0.19867,-0.343762 0.26589,-0.294977 0.32067,-0.232957 0.36258,-0.161858 0.38774,-0.0832 h 0.3977 l 0.38775,0.0832 0.36258,0.161858 0.32066,0.232957 0.2659,0.294977 0.19904,0.343762 0.12199,0.377798 0.0419,0.394702 -0.0419,0.394702 -0.12199,0.377799 -0.19904,0.343761 -0.2659,0.294977 -0.32066,0.232957 -0.36258,0.161859 -0.38775,0.0832 z m -339.765177,0 -0.388229,-0.0832 -0.362584,-0.161859 -0.321039,-0.232957 -0.265518,-0.294977 -0.198287,-0.343761 -0.122751,-0.377799 -0.04155,-0.394702 0.04155,-0.394702 0.122751,-0.377798 0.198287,-0.343762 0.265518,-0.294977 0.321039,-0.232957 0.362584,-0.161858 0.388229,-0.0832 h 0.396916 l 0.388231,0.0832 0.362585,0.161858 0.321038,0.232957 0.265517,0.294977 0.198288,0.343762 0.122751,0.377798 0.04154,0.394702 -0.04154,0.394702 -0.122751,0.377799 -0.198288,0.343761 -0.265517,0.294977 -0.321038,0.232957 -0.362585,0.161859 -0.388231,0.0832 z M 6.468445,44.576256 5.9269478,44.46129 5.4211804,44.236654 4.9732752,43.911044 4.6027591,43.500346 4.3259108,43.020705 l -0.1710945,-0.52661 -0.057787,-0.550549 0.026438,-0.249974 -0.026438,-0.249595 0.026438,-0.249975 -0.026438,-0.249596 0.057787,-0.550587 0.1710945,-0.526571 0.2768483,-0.479641 0.3705161,-0.410699 0.4479052,-0.32561 0.5057674,-0.224636 0.5414972,-0.114965 h 0.5536213 l 0.5415349,0.114965 0.5057676,0.224636 0.4478673,0.32561 0.3705161,0.410699 0.2768483,0.479641 0.1710945,0.526571 0.057787,0.550587 -0.026438,0.249596 0.026438,0.249975 -0.026438,0.249595 0.026438,0.249974 -0.057787,0.550549 -0.1710945,0.52661 -0.2768483,0.479641 -0.3705161,0.410698 -0.4478673,0.32561 -0.5057676,0.224636 -0.5415349,0.114966 z m 0,29.977322 L 5.9269478,74.438612 5.4211804,74.213976 4.9732752,73.887988 4.6027591,73.477326 4.3259108,72.997686 4.1548163,72.471076 4.0970295,71.920528 4.1234679,71.670933 4.0970295,71.421336 4.1234679,71.17174 4.0970295,70.921766 4.1548163,70.37118 4.3259108,69.844607 4.6027591,69.364966 4.9732752,68.95423 5.4211804,68.628242 5.9269478,68.403605 6.468445,68.288639 h 0.5536213 l 0.5415349,0.114966 0.5057676,0.224637 0.4478673,0.325988 0.3705161,0.410736 0.2768483,0.479641 0.1710945,0.526573 0.057787,0.550586 -0.026438,0.249974 0.026438,0.249596 -0.026438,0.249597 0.026438,0.249595 -0.057787,0.550548 -0.1710945,0.52661 -0.2768483,0.47964 -0.3705161,0.410662 -0.4478673,0.325988 -0.5057676,0.224636 -0.5415349,0.114966 z m 24.061822,3.252539 -0.388229,-0.0832 -0.362584,-0.16186 -0.321038,-0.232578 -0.265519,-0.294977 -0.198288,-0.343761 -0.12275,-0.377798 -0.04154,-0.394702 0.04154,-0.394702 0.12275,-0.377798 0.198288,-0.343761 0.265519,-0.294978 0.321038,-0.232578 0.362584,-0.162237 0.388229,-0.0832 h 0.396917 l 0.38823,0.0832 0.362585,0.162237 0.321037,0.232578 0.265518,0.294978 0.198289,0.343761 0.122749,0.377798 0.04154,0.394702 -0.04154,0.394702 -0.122749,0.377798 -0.198289,0.343761 -0.265518,0.294977 -0.321037,0.232578 -0.362585,0.16186 -0.38823,0.0832 z m 321.777543,0 -0.3877,-0.0832 -0.36258,-0.16186 -0.32067,-0.232578 -0.26589,-0.294977 -0.19867,-0.343761 -0.122,-0.377798 -0.0419,-0.394702 0.0419,-0.394702 0.122,-0.377798 0.19867,-0.343761 0.26589,-0.294978 0.32067,-0.232578 0.36258,-0.162237 0.3877,-0.0832 h 0.39775 l 0.38774,0.0832 0.36258,0.162237 0.32066,0.232578 0.2659,0.294978 0.19866,0.343761 0.122,0.377798 0.0419,0.394702 -0.0419,0.394702 -0.122,0.377798 -0.19866,0.343761 -0.2659,0.294977 -0.32066,0.232578 -0.36258,0.16186 -0.38774,0.0832 z m 8.09444,4.496625 -0.38774,-0.0832 -0.36258,-0.16186 -0.32067,-0.232578 -0.26589,-0.294977 -0.19867,-0.343761 -0.12199,-0.377798 -0.0419,-0.394702 0.0419,-0.394703 0.12199,-0.377797 0.19867,-0.343762 0.26589,-0.294978 0.32067,-0.232578 0.36258,-0.161859 0.38774,-0.0832 h 0.39774 l 0.38771,0.0832 0.36296,0.161859 0.32065,0.232578 0.26591,0.294978 0.19866,0.343762 0.12199,0.377797 0.0419,0.394703 -0.0419,0.394702 -0.12199,0.377798 -0.19866,0.343761 -0.26591,0.294977 -0.32065,0.232578 -0.36296,0.16186 -0.38771,0.0832 z m -33.07718,1.498824 -0.38775,-0.0832 -0.36258,-0.161858 -0.32066,-0.232579 -0.2659,-0.294977 -0.19866,-0.343762 -0.12199,-0.377798 -0.0419,-0.394702 0.0419,-0.394702 0.12199,-0.377798 0.19866,-0.343761 0.2659,-0.2946 0.32066,-0.232578 0.36258,-0.161858 0.38775,-0.0832 h 0.3977 l 0.38775,0.0832 0.36258,0.161858 0.32066,0.232578 0.2659,0.2946 0.19866,0.343761 0.122,0.377798 0.0419,0.394702 -0.0419,0.394702 -0.122,0.377798 -0.19866,0.343762 -0.2659,0.294977 -0.32066,0.232579 -0.36258,0.161858 -0.38775,0.0832 z m -271.812052,0 -0.38823,-0.0832 -0.362584,-0.161858 -0.321039,-0.232579 -0.265517,-0.294977 -0.198289,-0.343762 -0.122749,-0.377798 -0.04155,-0.394702 0.04155,-0.394702 0.122749,-0.377798 0.198289,-0.343761 0.265517,-0.2946 0.321039,-0.232578 0.362584,-0.161858 0.38823,-0.0832 h 0.396916 l 0.38823,0.0832 0.362584,0.161858 0.321038,0.232578 0.265518,0.2946 0.198288,0.343761 0.12275,0.377798 0.04155,0.394702 -0.04155,0.394702 -0.12275,0.377798 -0.198288,0.343762 -0.265518,0.294977 -0.321038,0.232579 -0.362584,0.161858 -0.38823,0.0832 z m 269.913352,8.493566 -0.38774,-0.0832 -0.36258,-0.16186 -0.32067,-0.232956 -0.26589,-0.2946 -0.19867,-0.343761 -0.122,-0.377798 -0.0419,-0.394703 0.0419,-0.394702 0.122,-0.377798 0.19867,-0.343761 0.26589,-0.294598 0.32067,-0.232957 0.36258,-0.161859 0.38774,-0.0832 h 0.39774 l 0.38771,0.0832 0.36258,0.161859 0.32067,0.232957 0.26589,0.294598 0.19866,0.343761 0.122,0.377798 0.0419,0.394702 -0.0419,0.394703 -0.122,0.377798 -0.19866,0.343761 -0.26589,0.2946 -0.32067,0.232956 -0.36258,0.16186 -0.38771,0.0832 z m -89.93795,0 -0.38773,-0.0832 -0.36259,-0.16186 -0.32066,-0.232956 -0.26589,-0.2946 -0.19868,-0.343761 -0.12199,-0.377798 -0.0419,-0.394703 0.0419,-0.394702 0.12199,-0.377798 0.19868,-0.343761 0.26589,-0.294598 0.32066,-0.232957 0.36259,-0.161859 0.38773,-0.0832 h 0.39775 l 0.3877,0.0832 0.36259,0.161859 0.32066,0.232957 0.26589,0.294598 0.19867,0.343761 0.122,0.377798 0.0419,0.394702 -0.0419,0.394703 -0.122,0.377798 -0.19867,0.343761 -0.26589,0.2946 -0.32066,0.232956 -0.36259,0.16186 -0.3877,0.0832 z M 6.468445,112.52482 5.9269478,112.41023 5.4211804,112.18559 4.9732752,111.8596 4.6027591,111.44895 4.3259108,110.9693 l -0.1710945,-0.52661 -0.057787,-0.55062 0.026438,-0.24998 -0.026438,-0.24959 0.026438,-0.2496 -0.026438,-0.24959 0.057787,-0.55055 0.1710945,-0.52665 0.2768483,-0.47964 0.3705161,-0.41066 0.4479052,-0.32599 0.5057674,-0.22464 0.5414972,-0.11497 h 0.5536213 l 0.5415349,0.11497 0.5057676,0.22464 0.4478673,0.32599 0.3705161,0.41066 0.2768483,0.47964 0.1710945,0.52665 0.057787,0.55055 -0.026438,0.24959 0.026438,0.2496 -0.026438,0.24959 0.026438,0.24998 -0.057787,0.55062 -0.1710945,0.52661 -0.2768483,0.47965 -0.3705161,0.41065 -0.4478673,0.32599 -0.5057676,0.22464 -0.5415349,0.11459 z m 222.123735,84.30115 v -89.93193 h 105.92694 v 89.93193 z m 146.62187,-78.80535 -0.54165,-0.11496 -0.50565,-0.22464 -0.44768,-0.32561 -0.3709,-0.41066 -0.27684,-0.47964 -0.17071,-0.52657 -0.0578,-0.55063 0.0264,-0.2496 -0.0264,-0.24997 0.0264,-0.24959 -0.0264,-0.2496 0.0578,-0.55059 0.17071,-0.52661 0.27684,-0.4796 0.3709,-0.41074 0.44768,-0.32598 0.50565,-0.22464 0.54165,-0.11497 h 0.55359 l 0.54164,0.11497 0.50565,0.22464 0.44768,0.32598 0.3709,0.41074 0.27684,0.4796 0.17072,0.52661 0.0578,0.55059 -0.0264,0.2496 0.0264,0.24959 -0.0264,0.24997 0.0264,0.2496 -0.0578,0.55063 -0.17072,0.52657 -0.27684,0.47964 -0.3709,0.41066 -0.44768,0.32561 -0.50565,0.22464 -0.54164,0.11496 z M 6.468445,128.51269 5.9269478,128.39774 5.4211804,128.1731 l -0.4479052,-0.32561 -0.3705161,-0.41067 -0.2768483,-0.47964 -0.1710945,-0.5266 -0.057787,-0.55059 0.026438,-0.2496 -0.026438,-0.2496 0.026438,-0.2496 -0.026438,-0.24958 0.057787,-0.55055 0.1710945,-0.52662 0.2768483,-0.47964 0.3705161,-0.41069 0.4479052,-0.32599 0.5057674,-0.22464 0.5414972,-0.11497 h 0.5536213 l 0.5415349,0.11497 0.5057676,0.22464 0.4478673,0.32599 0.3705161,0.41069 0.2768483,0.47964 0.1710945,0.52662 0.057787,0.55055 -0.026438,0.24958 0.026438,0.2496 -0.026438,0.2496 0.026438,0.2496 -0.057787,0.55059 -0.1710945,0.5266 -0.2768483,0.47964 -0.3705161,0.41067 -0.4478673,0.32561 -0.5057676,0.22464 -0.5415349,0.11495 z m 174.905345,0.75145 -0.49066,-0.104 -0.45769,-0.2046 -0.40571,-0.29384 -0.33578,-0.37289 -0.25078,-0.43471 -0.15486,-0.47661 -0.0521,-0.49862 0.0521,-0.49863 0.15486,-0.47662 0.25078,-0.43471 0.33578,-0.37288 0.40571,-0.29385 0.45769,-0.20458 0.49066,-0.104 h 0.50165 l 0.49066,0.104 0.45768,0.20458 0.40572,0.29385 0.33576,0.37288 0.2508,0.43471 0.15485,0.47662 0.0521,0.49863 -0.0521,0.49862 -0.15485,0.47661 -0.2508,0.43471 -0.33576,0.37289 -0.40572,0.29384 -0.45768,0.2046 -0.49066,0.104 z m -49.91358,-0.49663 -0.38772,-0.0831 -0.3626,-0.16224 -0.32065,-0.23259 -0.26589,-0.29496 -0.19868,-0.34377 -0.12199,-0.3778 -0.0419,-0.3947 0.0419,-0.39474 0.12199,-0.3778 0.19868,-0.34376 0.26589,-0.29498 0.32065,-0.23258 0.3626,-0.16185 0.38772,-0.0832 h 0.39772 l 0.38774,0.0832 0.36258,0.16185 0.32067,0.23258 0.26589,0.29498 0.19866,0.34376 0.122,0.3778 0.0419,0.39474 -0.0419,0.3947 -0.122,0.3778 -0.19866,0.34377 -0.26589,0.29496 -0.32067,0.23259 -0.36258,0.16224 -0.38774,0.0831 z m -51.302591,-0.77242 -0.198665,-0.34376 -0.121995,-0.3778 -0.04192,-0.3947 0.04192,-0.39471 0.121995,-0.37779 0.198665,-0.34376 0.265896,-0.29498 0.320661,-0.23259 0.362585,-0.16222 0.387738,-0.0833 h 0.397709 l 0.387739,0.0833 0.362585,0.16222 0.32066,0.23259 0.265895,0.29498 0.198667,0.34376 0.121994,0.37779 0.04192,0.39471 -0.04192,0.3947 -0.121994,0.3778 -0.198667,0.34376 -0.265895,0.29497 -0.32066,0.23258 -0.362585,0.16186 -0.387739,0.0831 h -0.397709 l -0.387738,-0.0831 -0.362585,-0.16186 -0.320661,-0.23258 z m 126.250891,0.77242 -0.38774,-0.0831 -0.36258,-0.16224 -0.32066,-0.23259 -0.2659,-0.29496 -0.19867,-0.34377 -0.12199,-0.3778 -0.0419,-0.3947 0.0419,-0.39474 0.12199,-0.3778 0.19867,-0.34376 0.2659,-0.29498 0.32066,-0.23258 0.36258,-0.16185 0.38774,-0.0832 h 0.39771 l 0.38774,0.0832 0.36258,0.16185 0.32067,0.23258 0.26589,0.29498 0.19866,0.34376 0.122,0.3778 0.0419,0.39474 -0.0419,0.3947 -0.122,0.3778 -0.19866,0.34377 -0.26589,0.29496 -0.32067,0.23259 -0.36258,0.16224 -0.38774,0.0831 z m 144.9,0 -0.38773,-0.0831 -0.36259,-0.16224 -0.32066,-0.23259 -0.26589,-0.29496 -0.19866,-0.34377 -0.12201,-0.3778 -0.0419,-0.3947 0.0419,-0.39474 0.12201,-0.3778 0.19866,-0.34376 0.26589,-0.29498 0.32066,-0.23258 0.36259,-0.16185 0.38773,-0.0832 h 0.39771 l 0.38774,0.0832 0.36259,0.16185 0.32066,0.23258 0.2659,0.29498 0.19866,0.34376 0.12199,0.3778 0.0419,0.39474 -0.0419,0.3947 -0.12199,0.3778 -0.19866,0.34377 -0.2659,0.29496 -0.32066,0.23259 -0.36259,0.16224 -0.38774,0.0831 z m -319.778945,0 -0.388229,-0.0831 -0.362585,-0.16224 -0.321039,-0.23259 -0.265517,-0.29496 -0.198288,-0.34377 -0.12275,-0.3778 -0.04154,-0.3947 0.04154,-0.39474 0.12275,-0.3778 0.198288,-0.34376 0.265517,-0.29498 0.321039,-0.23258 0.362585,-0.16185 0.388229,-0.0832 h 0.396917 l 0.388229,0.0832 0.362585,0.16185 0.321039,0.23258 0.265518,0.29498 0.198288,0.34376 0.12275,0.3778 0.04154,0.39474 -0.04154,0.3947 -0.12275,0.3778 -0.198288,0.34377 -0.265518,0.29496 -0.321039,0.23259 -0.362585,0.16224 -0.388229,0.0831 z m 74.947885,0 -0.38771,-0.0831 -0.36259,-0.16224 -0.32066,-0.23259 -0.26589,-0.29496 -0.19867,-0.34377 -0.122,-0.3778 -0.0419,-0.3947 0.0419,-0.39474 0.122,-0.3778 0.19867,-0.34376 0.26589,-0.29498 0.32066,-0.23258 0.36259,-0.16185 0.38771,-0.0832 h 0.39773 l 0.38775,0.0832 0.36258,0.16185 0.32066,0.23258 0.2659,0.29498 0.19866,0.34376 0.12199,0.3778 0.0419,0.39474 -0.0419,0.3947 -0.12199,0.3778 -0.19866,0.34377 -0.2659,0.29496 -0.32066,0.23259 -0.36258,0.16224 -0.38775,0.0831 z m 49.96552,0 -0.38774,-0.0831 -0.36258,-0.16224 -0.32066,-0.23259 -0.26589,-0.29496 -0.19868,-0.34377 -0.12198,-0.3778 -0.0419,-0.3947 0.0419,-0.39474 0.12198,-0.3778 0.19868,-0.34376 0.26589,-0.29498 0.32066,-0.23258 0.36258,-0.16185 0.38774,-0.0832 h 0.39771 l 0.38775,0.0832 0.36258,0.16185 0.32067,0.23258 0.26589,0.29498 0.19866,0.34376 0.122,0.3778 0.0419,0.39474 -0.0419,0.3947 -0.122,0.3778 -0.19866,0.34377 -0.26589,0.29496 -0.32067,0.23259 -0.36258,0.16224 -0.38775,0.0831 z m 218.77108,5.24103 -0.54165,-0.11497 -0.50565,-0.22464 -0.44768,-0.32598 -0.3709,-0.41074 -0.27684,-0.47963 -0.17071,-0.52658 -0.0578,-0.55059 0.0264,-0.24959 -0.0264,-0.24998 0.0264,-0.24959 -0.0264,-0.2496 0.0578,-0.55055 0.17071,-0.52661 0.27684,-0.47964 0.3709,-0.4107 0.44768,-0.32598 0.50565,-0.22465 0.54165,-0.11495 h 0.55359 l 0.54164,0.11495 0.50565,0.22465 0.44768,0.32598 0.3709,0.4107 0.27684,0.47964 0.17072,0.52661 0.0578,0.55055 -0.0264,0.2496 0.0264,0.24959 -0.0264,0.24998 0.0264,0.24959 -0.0578,0.55059 -0.17072,0.52658 -0.27684,0.47963 -0.3709,0.41074 -0.44768,0.32598 -0.50565,0.22464 -0.54164,0.11497 z m -30.9007,38.7257 -0.38774,-0.0831 -0.36258,-0.16186 -0.32066,-0.23296 -0.26589,-0.29461 -0.19867,-0.34376 -0.122,-0.37779 -0.0419,-0.39471 0.0419,-0.3947 0.122,-0.37779 0.19867,-0.34376 0.26589,-0.2946 0.32066,-0.23259 0.36258,-0.16223 0.38774,-0.0831 h 0.39771 l 0.38774,0.0831 0.36258,0.16223 0.32067,0.23259 0.26589,0.2946 0.19866,0.34376 0.122,0.37779 0.0419,0.3947 -0.0419,0.39471 -0.122,0.37779 -0.19866,0.34376 -0.26589,0.29461 -0.32067,0.23296 -0.36258,0.16186 -0.38774,0.0831 z m -162.93956,6.49204 -0.49066,-0.104 -0.45769,-0.2046 -0.40571,-0.29384 -0.33578,-0.37288 -0.25078,-0.43464 -0.15486,-0.47665 -0.0521,-0.49862 0.0521,-0.49864 0.15486,-0.47665 0.25078,-0.43463 0.33578,-0.37289 0.40571,-0.29384 0.45769,-0.20459 0.49066,-0.104 h 0.50165 l 0.49066,0.104 0.45768,0.20459 0.40572,0.29384 0.33576,0.37289 0.2508,0.43463 0.15485,0.47665 0.0521,0.49864 -0.0521,0.49862 -0.15485,0.47665 -0.2508,0.43464 -0.33576,0.37288 -0.40572,0.29384 -0.45768,0.2046 -0.49066,0.104 z m -99.879102,-0.49659 -0.387739,-0.0832 -0.362584,-0.16186 -0.320662,-0.23296 -0.265895,-0.29459 -0.198665,-0.34376 -0.121996,-0.3778 -0.04192,-0.3947 0.04192,-0.39471 0.121996,-0.37779 0.198665,-0.34376 0.265895,-0.29461 0.320662,-0.23296 0.362584,-0.16185 0.387739,-0.0832 h 0.397709 l 0.387738,0.0832 0.362585,0.16185 0.320661,0.23296 0.265894,0.29461 0.198667,0.34376 0.121995,0.37779 0.04191,0.39471 -0.04191,0.3947 -0.121995,0.3778 -0.198667,0.34376 -0.265894,0.29459 -0.320661,0.23296 -0.362585,0.16186 -0.387738,0.0832 z m -24.982372,0 -0.388231,-0.0832 -0.362583,-0.16186 -0.321039,-0.23296 -0.265517,-0.29459 -0.198667,-0.34376 -0.122749,-0.3778 -0.04154,-0.3947 0.04154,-0.39471 0.122749,-0.37779 0.198667,-0.34376 0.265517,-0.29461 0.321039,-0.23296 0.362583,-0.16185 0.388231,-0.0832 h 0.396953 l 0.388231,0.0832 0.362584,0.16185 0.321039,0.23296 0.265517,0.29461 0.198288,0.34376 0.12275,0.37779 0.04155,0.39471 -0.04155,0.3947 -0.12275,0.3778 -0.198288,0.34376 -0.265517,0.29459 -0.321039,0.23296 -0.362584,0.16186 -0.388231,0.0832 z m -49.9654999,0 -0.3882296,-0.0832 -0.3625845,-0.16186 -0.3210384,-0.23296 -0.2655175,-0.29459 -0.1982884,-0.34376 -0.12275,-0.3778 -0.041546,-0.3947 0.041546,-0.39471 0.12275,-0.37779 0.1982884,-0.34376 0.2655175,-0.29461 0.3210384,-0.23296 0.3625845,-0.16185 0.3882296,-0.0832 h 0.3969167 l 0.3882299,0.0832 0.3625845,0.16185 0.3210382,0.23296 0.2655175,0.29461 0.1982885,0.34376 0.1227499,0.37779 0.041546,0.39471 -0.041546,0.3947 -0.1227499,0.3778 -0.1982885,0.34376 -0.2655175,0.29459 -0.3210382,0.23296 -0.3625845,0.16186 -0.3882299,0.0832 z m 99.9306339,0 -0.38771,-0.0832 -0.36259,-0.16186 -0.32066,-0.23296 -0.26589,-0.29459 -0.19867,-0.34376 -0.122,-0.3778 -0.0419,-0.3947 0.0419,-0.39471 0.122,-0.37779 0.19867,-0.34376 0.26589,-0.29461 0.32066,-0.23296 0.36259,-0.16185 0.38771,-0.0832 h 0.39773 l 0.38775,0.0832 0.36258,0.16185 0.32066,0.23296 0.2659,0.29461 0.19866,0.34376 0.12199,0.37779 0.0419,0.39471 -0.0419,0.3947 -0.12199,0.3778 -0.19866,0.34376 -0.2659,0.29459 -0.32066,0.23296 -0.36258,0.16186 -0.38775,0.0832 z m 49.96552,0 -0.38774,-0.0832 -0.36258,-0.16186 -0.32066,-0.23296 -0.26589,-0.29459 -0.19868,-0.34376 -0.12198,-0.3778 -0.0419,-0.3947 0.0419,-0.39471 0.12198,-0.37779 0.19868,-0.34376 0.26589,-0.29461 0.32066,-0.23296 0.36258,-0.16185 0.38774,-0.0832 h 0.39771 l 0.38775,0.0832 0.36258,0.16185 0.32067,0.23296 0.26589,0.29461 0.19866,0.34376 0.122,0.37779 0.0419,0.39471 -0.0419,0.3947 -0.122,0.3778 -0.19866,0.34376 -0.26589,0.29459 -0.32067,0.23296 -0.36258,0.16186 -0.38775,0.0832 z m 49.96554,0 -0.38774,-0.0832 -0.36258,-0.16186 -0.32066,-0.23296 -0.2659,-0.29459 -0.19867,-0.34376 -0.12199,-0.3778 -0.0419,-0.3947 0.0419,-0.39471 0.12199,-0.37779 0.19867,-0.34376 0.2659,-0.29461 0.32066,-0.23296 0.36258,-0.16185 0.38774,-0.0832 h 0.39771 l 0.38774,0.0832 0.36258,0.16185 0.32067,0.23296 0.26589,0.29461 0.19866,0.34376 0.122,0.37779 0.0419,0.39471 -0.0419,0.3947 -0.122,0.3778 -0.19866,0.34376 -0.26589,0.29459 -0.32067,0.23296 -0.36258,0.16186 -0.38774,0.0832 z m -174.878945,0 -0.388229,-0.0832 -0.362585,-0.16186 -0.321039,-0.23296 -0.265517,-0.29459 -0.198288,-0.34376 -0.12275,-0.3778 -0.04154,-0.3947 0.04154,-0.39471 0.12275,-0.37779 0.198288,-0.34376 0.265517,-0.29461 0.321039,-0.23296 0.362585,-0.16185 0.388229,-0.0832 h 0.396917 l 0.388229,0.0832 0.362585,0.16185 0.321039,0.23296 0.265518,0.29461 0.198288,0.34376 0.12275,0.37779 0.04154,0.39471 -0.04154,0.3947 -0.12275,0.3778 -0.198288,0.34376 -0.265518,0.29459 -0.321039,0.23296 -0.362585,0.16186 -0.388229,0.0832 z m 99.930645,0 -0.38772,-0.0832 -0.3626,-0.16186 -0.32065,-0.23296 -0.26589,-0.29459 -0.19868,-0.34376 -0.12199,-0.3778 -0.0419,-0.3947 0.0419,-0.39471 0.12199,-0.37779 0.19868,-0.34376 0.26589,-0.29461 0.32065,-0.23296 0.3626,-0.16185 0.38772,-0.0832 h 0.39772 l 0.38774,0.0832 0.36258,0.16185 0.32067,0.23296 0.26589,0.29461 0.19866,0.34376 0.122,0.37779 0.0419,0.39471 -0.0419,0.3947 -0.122,0.3778 -0.19866,0.34376 -0.26589,0.29459 -0.32067,0.23296 -0.36258,0.16186 -0.38774,0.0832 z m 212.85314,6.99471 -0.38774,-0.0832 -0.36258,-0.16186 -0.32066,-0.23295 -0.26589,-0.29461 -0.19867,-0.34376 -0.122,-0.3778 -0.0419,-0.3947 0.0419,-0.39473 0.122,-0.37781 0.19867,-0.34376 0.26589,-0.2946 0.32066,-0.23295 0.36258,-0.16186 0.38774,-0.0832 h 0.39771 l 0.38774,0.0832 0.36258,0.16186 0.32067,0.23295 0.26589,0.2946 0.19866,0.34376 0.122,0.37781 0.0419,0.39473 -0.0419,0.3947 -0.122,0.3778 -0.19866,0.34376 -0.26589,0.29461 -0.32067,0.23295 -0.36258,0.16186 -0.38774,0.0832 z m -229.78846,0.50161 -0.28668,-0.0608 -0.26664,-0.11913 -0.23682,-0.17168 -0.19603,-0.2167 -0.14578,-0.25376 -0.0898,-0.27757 -0.0302,-0.29083 0.0302,-0.29081 0.0898,-0.27758 0.14578,-0.25376 0.19603,-0.2167 0.23682,-0.17168 0.26664,-0.11913 0.28668,-0.0608 h 0.29196 l 0.28666,0.0608 0.26665,0.11913 0.23682,0.17168 0.19601,0.2167 0.1458,0.25376 0.09,0.27758 0.0302,0.29081 -0.0302,0.29083 -0.09,0.27757 -0.1458,0.25376 -0.19601,0.2167 -0.23682,0.17168 -0.26665,0.11913 -0.28666,0.0608 z m -66.954097,0 -0.285912,-0.0608 -0.267406,-0.11913 -0.236813,-0.17168 -0.195644,-0.2167 -0.146167,-0.25376 -0.09027,-0.27757 -0.03022,-0.29083 0.03022,-0.29081 0.09027,-0.27758 0.146167,-0.25376 0.195644,-0.2167 0.236813,-0.17168 0.267406,-0.11913 0.285912,-0.0608 h 0.292334 l 0.285914,0.0608 0.267405,0.11913 0.236435,0.17168 0.195645,0.2167 0.146167,0.25376 0.09026,0.27758 0.03022,0.29081 -0.03022,0.29083 -0.09026,0.27757 -0.146167,0.25376 -0.195645,0.2167 -0.236435,0.17168 -0.267405,0.11913 -0.285914,0.0608 z m 91.936877,5.99544 -0.28667,-0.0608 -0.26665,-0.11913 -0.23681,-0.17169 -0.19603,-0.2167 -0.14578,-0.25376 -0.0899,-0.27795 -0.0302,-0.29082 0.0302,-0.29082 0.0899,-0.27796 0.14578,-0.25376 0.19603,-0.21669 0.23681,-0.17169 0.26665,-0.11913 0.28667,-0.0608 h 0.29196 l 0.28667,0.0608 0.26665,0.11913 0.23682,0.17169 0.196,0.21669 0.14579,0.25376 0.0899,0.27796 0.0302,0.29082 -0.0302,0.29082 -0.0899,0.27795 -0.14579,0.25376 -0.196,0.2167 -0.23682,0.17169 -0.26665,0.11913 -0.28667,0.0608 z m -116.919627,0 -0.285912,-0.0608 -0.267407,-0.11913 -0.236435,-0.17169 -0.195645,-0.2167 -0.146166,-0.25376 -0.09026,-0.27795 -0.03022,-0.29082 0.03022,-0.29082 0.09026,-0.27796 0.146166,-0.25376 0.195645,-0.21669 0.236435,-0.17169 0.267407,-0.11913 0.285912,-0.0608 h 0.292335 l 0.285912,0.0608 0.267406,0.11913 0.236435,0.17169 0.195645,0.21669 0.146167,0.25376 0.09027,0.27796 0.03022,0.29082 -0.03022,0.29082 -0.09027,0.27795 -0.146167,0.25376 -0.195645,0.2167 -0.236435,0.17169 -0.267406,0.11913 -0.285912,0.0608 z m 353.703267,1.49686 -0.38775,-0.0832 -0.36258,-0.16185 -0.32066,-0.23296 -0.2659,-0.2946 -0.19866,-0.34376 -0.12199,-0.37779 -0.0419,-0.39471 0.0419,-0.3947 0.12199,-0.3778 0.19866,-0.34376 0.2659,-0.2946 0.32066,-0.23296 0.36258,-0.16186 0.38775,-0.0831 h 0.3977 l 0.38774,0.0831 0.36259,0.16186 0.32066,0.23296 0.26589,0.2946 0.19904,0.34376 0.12201,0.3778 0.0419,0.3947 -0.0419,0.39471 -0.12201,0.37779 -0.19904,0.34376 -0.26589,0.2946 -0.32066,0.23296 -0.36259,0.16185 -0.38774,0.0832 z m -170.88214,3.99698 -0.3877,-0.0833 -0.36258,-0.16186 -0.32066,-0.23258 -0.2659,-0.29498 -0.19867,-0.34376 -0.12198,-0.3778 -0.0419,-0.3947 0.0419,-0.39474 0.12198,-0.37779 0.19867,-0.34376 0.2659,-0.29498 0.32066,-0.23259 0.36258,-0.16186 0.3877,-0.0831 h 0.39775 l 0.38774,0.0831 0.36259,0.16186 0.32066,0.23259 0.26589,0.29498 0.19866,0.34376 0.12201,0.37779 0.0419,0.39474 -0.0419,0.3947 -0.12201,0.3778 -0.19866,0.34376 -0.26589,0.29498 -0.32066,0.23258 -0.36259,0.16186 -0.38774,0.0833 z m -173.879605,47.96329 -0.388229,-0.0829 -0.362585,-0.16148 -0.321039,-0.23334 -0.265517,-0.29498 -0.198288,-0.34376 -0.12275,-0.37779 -0.04154,-0.39471 0.04154,-0.3947 0.03399,-0.10513 -0.03399,-0.10513 -0.04154,-0.39471 0.04154,-0.3947 0.03399,-0.10513 -0.03399,-0.10513 -0.04154,-0.39471 0.04154,-0.3947 0.03399,-0.10513 -0.03399,-0.10513 -0.04154,-0.39471 0.04154,-0.3947 0.03399,-0.10513 -0.03399,-0.10513 -0.04154,-0.39471 0.04154,-0.3947 0.03399,-0.10513 -0.03399,-0.10513 -0.04154,-0.39471 0.04154,-0.3947 0.03399,-0.10513 -0.03399,-0.10514 -0.04154,-0.3947 0.04154,-0.39471 0.03399,-0.10513 -0.03399,-0.10513 -0.04154,-0.3947 0.04154,-0.39474 0.03399,-0.10514 -0.03399,-0.10513 -0.04154,-0.3947 0.04154,-0.39466 0.03399,-0.10514 -0.03399,-0.10513 -0.04154,-0.3947 0.04154,-0.3947 0.03399,-0.10514 -0.03399,-0.10513 -0.04154,-0.3947 0.04154,-0.3947 0.03399,-0.10514 -0.03399,-0.10513 -0.04154,-0.3947 0.04154,-0.3947 0.03399,-0.10514 -0.03399,-0.10513 -0.04154,-0.3947 0.04154,-0.3947 0.03399,-0.10514 -0.03399,-0.10513 -0.04154,-0.39467 0.04154,-0.3947 0.03399,-0.10513 -0.03399,-0.10513 -0.04154,-0.3947 0.04154,-0.39473 0.03399,-0.10514 -0.03399,-0.10513 -0.04154,-0.39471 0.04154,-0.39469 0.03399,-0.10513 -0.03399,-0.10514 -0.04154,-0.3947 0.04154,-0.3947 0.03399,-0.10513 -0.03399,-0.10514 -0.04154,-0.3947 0.04154,-0.39474 0.03399,-0.10513 -0.03399,-0.10513 -0.04154,-0.39471 0.04154,-0.3947 0.03399,-0.10513 -0.03399,-0.10513 -0.04154,-0.39471 0.04154,-0.3947 0.03399,-0.10513 -0.03399,-0.10514 -0.04154,-0.3947 0.04154,-0.39474 0.03399,-0.10514 -0.03399,-0.10513 -0.04154,-0.3947 0.04154,-0.39467 0.03399,-0.10513 -0.03399,-0.10513 -0.04154,-0.3947 0.04154,-0.39471 0.03399,-0.10513 -0.03399,-0.10513 -0.04154,-0.3947 0.04154,-0.39471 0.03399,-0.10513 -0.03399,-0.10513 -0.04154,-0.3947 0.04154,-0.39471 0.03399,-0.10513 -0.03399,-0.10513 -0.04154,-0.3947 0.04154,-0.39471 0.03399,-0.10513 -0.03399,-0.10513 -0.04154,-0.39466 0.04154,-0.39471 0.03399,-0.10513 -0.03399,-0.10513 -0.04154,-0.3947 0.04154,-0.39475 0.03399,-0.10513 -0.03399,-0.10513 -0.04154,-0.39471 0.04154,-0.3947 0.03399,-0.10513 -0.03399,-0.10513 -0.04154,-0.39471 0.04154,-0.3947 0.03399,-0.10513 -0.03399,-0.10513 -0.04154,-0.39471 0.04154,-0.3947 0.03399,-0.10513 -0.03399,-0.10513 -0.04154,-0.39471 0.04154,-0.3947 0.03399,-0.10513 -0.03399,-0.10513 -0.04154,-0.39471 0.04154,-0.39469 0.03399,-0.10514 -0.03399,-0.10513 -0.04154,-0.39471 0.04154,-0.39469 0.03399,-0.10514 -0.03399,-0.10513 -0.04154,-0.39471 0.04154,-0.39469 0.03399,-0.10514 -0.03399,-0.10514 -0.04154,-0.3947 0.04154,-0.3947 0.03399,-0.10514 -0.03399,-0.10513 -0.04154,-0.3947 0.04154,-0.3947 0.03399,-0.10514 -0.03399,-0.10513 -0.04154,-0.3947 0.04154,-0.3947 0.12275,-0.3778 0.198288,-0.34376 0.265517,-0.29498 0.321039,-0.23257 0.362585,-0.16186 0.388229,-0.0832 h 0.396917 l 0.388229,0.0832 0.362585,0.16186 0.321039,0.23257 0.265518,0.29498 0.198288,0.34376 0.12275,0.3778 0.04154,0.3947 -0.04154,0.3947 -0.03399,0.10513 0.03399,0.10514 0.04154,0.3947 -0.04154,0.3947 -0.03399,0.10513 0.03399,0.10514 0.04154,0.3947 -0.04154,0.3947 -0.03399,0.10514 0.03399,0.10514 0.04154,0.39469 -0.04154,0.39471 -0.03399,0.10513 0.03399,0.10514 0.04154,0.39469 -0.04154,0.39471 -0.03399,0.10513 0.03399,0.10514 0.04154,0.39469 -0.04154,0.39471 -0.03399,0.10513 0.03399,0.10513 0.04154,0.3947 -0.04154,0.39471 -0.03399,0.10513 0.03399,0.10513 0.04154,0.3947 -0.04154,0.39471 -0.03399,0.10513 0.03399,0.10513 0.04154,0.3947 -0.04154,0.39471 -0.03399,0.10513 0.03399,0.10513 0.04154,0.3947 -0.04154,0.39471 -0.03399,0.10513 0.03399,0.10513 0.04154,0.39475 -0.04154,0.3947 -0.03399,0.10513 0.03399,0.10513 0.04154,0.39471 -0.04154,0.39466 -0.03399,0.10513 0.03399,0.10513 0.04154,0.39471 -0.04154,0.3947 -0.03399,0.10513 0.03399,0.10513 0.04154,0.39471 -0.04154,0.3947 -0.03399,0.10513 0.03399,0.10513 0.04154,0.39471 -0.04154,0.3947 -0.03399,0.10513 0.03399,0.10513 0.04154,0.39471 -0.04154,0.3947 -0.03399,0.10513 0.03399,0.10513 0.04154,0.39467 -0.04154,0.3947 -0.03399,0.10513 0.03399,0.10514 0.04154,0.39474 -0.04154,0.3947 -0.03399,0.10514 0.03399,0.10513 0.04154,0.3947 -0.04154,0.39471 -0.03399,0.10513 0.03399,0.10513 0.04154,0.3947 -0.04154,0.39471 -0.03399,0.10513 0.03399,0.10513 0.04154,0.39474 -0.04154,0.3947 -0.03399,0.10514 0.03399,0.10513 0.04154,0.3947 -0.04154,0.3947 -0.03399,0.10514 0.03399,0.10513 0.04154,0.39469 -0.04154,0.39471 -0.03399,0.10513 0.03399,0.10514 0.04154,0.39473 -0.04154,0.3947 -0.03399,0.10513 0.03399,0.10513 0.04154,0.3947 -0.04154,0.39467 -0.03399,0.10513 0.03399,0.10514 0.04154,0.3947 -0.04154,0.3947 -0.03399,0.10513 0.03399,0.10514 0.04154,0.3947 -0.04154,0.3947 -0.03399,0.10513 0.03399,0.10514 0.04154,0.3947 -0.04154,0.3947 -0.03399,0.10513 0.03399,0.10514 0.04154,0.3947 -0.04154,0.3947 -0.03399,0.10513 0.03399,0.10514 0.04154,0.39466 -0.04154,0.3947 -0.03399,0.10513 0.03399,0.10514 0.04154,0.39474 -0.04154,0.3947 -0.03399,0.10513 0.03399,0.10513 0.04154,0.39471 -0.04154,0.3947 -0.03399,0.10514 0.03399,0.10513 0.04154,0.3947 -0.04154,0.39471 -0.03399,0.10513 0.03399,0.10513 0.04154,0.3947 -0.04154,0.39471 -0.03399,0.10513 0.03399,0.10513 0.04154,0.3947 -0.04154,0.39471 -0.03399,0.10513 0.03399,0.10513 0.04154,0.3947 -0.04154,0.39471 -0.03399,0.10513 0.03399,0.10513 0.04154,0.3947 -0.04154,0.39471 -0.03399,0.10513 0.03399,0.10513 0.04154,0.3947 -0.04154,0.39471 -0.12275,0.37779 -0.198288,0.34376 -0.265518,0.29498 -0.321039,0.23334 -0.362585,0.16148 -0.388229,0.0829 z m 99.930645,2.99772 -0.38772,-0.0829 -0.3626,-0.16149 -0.32065,-0.23296 -0.26589,-0.29497 -0.19868,-0.34377 -0.12199,-0.37779 -0.0419,-0.3947 0.0419,-0.39471 0.034,-0.10513 -0.034,-0.10513 -0.0419,-0.39471 0.0419,-0.3947 0.034,-0.10513 -0.034,-0.10513 -0.0419,-0.39471 0.0419,-0.39469 0.034,-0.10514 -0.034,-0.10513 -0.0419,-0.39467 0.0419,-0.39473 0.034,-0.10514 -0.034,-0.10513 -0.0419,-0.39471 0.0419,-0.39469 0.034,-0.10514 -0.034,-0.10513 -0.0419,-0.39471 0.0419,-0.39469 0.034,-0.10514 -0.034,-0.10513 -0.0419,-0.39471 0.0419,-0.39469 0.034,-0.10514 -0.034,-0.10513 -0.0419,-0.39471 0.0419,-0.39469 0.034,-0.10514 -0.034,-0.10514 -0.0419,-0.3947 0.0419,-0.3947 0.034,-0.10514 -0.034,-0.10513 -0.0419,-0.39469 0.0419,-0.39471 0.034,-0.10513 -0.034,-0.10514 -0.0419,-0.39469 0.0419,-0.39471 0.034,-0.10513 -0.034,-0.10514 -0.0419,-0.39469 0.0419,-0.39467 0.034,-0.10514 -0.034,-0.10513 -0.0419,-0.3947 0.0419,-0.3947 0.034,-0.10514 -0.034,-0.10513 -0.0419,-0.3947 0.0419,-0.3947 0.034,-0.10514 -0.034,-0.10513 -0.0419,-0.3947 0.0419,-0.3947 0.034,-0.10514 -0.034,-0.10513 -0.0419,-0.39471 0.0419,-0.39469 0.034,-0.10514 -0.034,-0.10513 -0.0419,-0.39467 0.0419,-0.39469 0.034,-0.10514 -0.034,-0.10513 -0.0419,-0.3947 0.0419,-0.39469 0.034,-0.10514 -0.034,-0.10513 -0.0419,-0.39471 0.0419,-0.39469 0.034,-0.10514 -0.034,-0.10513 -0.0419,-0.39471 0.0419,-0.39469 0.034,-0.10514 -0.034,-0.10513 -0.0419,-0.39471 0.0419,-0.39469 0.034,-0.10514 -0.034,-0.10513 -0.0419,-0.39471 0.0419,-0.39469 0.034,-0.10514 -0.034,-0.10514 -0.0419,-0.3947 0.0419,-0.39469 0.034,-0.10514 -0.034,-0.10514 -0.0419,-0.39469 0.0419,-0.39471 0.034,-0.10513 -0.034,-0.10514 -0.0419,-0.39469 0.0419,-0.39467 0.034,-0.10514 -0.034,-0.10513 -0.0419,-0.3947 0.0419,-0.3947 0.034,-0.10514 -0.034,-0.10513 -0.0419,-0.3947 0.0419,-0.3947 0.034,-0.10514 -0.034,-0.10513 -0.0419,-0.3947 0.0419,-0.3947 0.034,-0.10514 -0.034,-0.10513 -0.0419,-0.3947 0.0419,-0.3947 0.034,-0.10514 -0.034,-0.10513 -0.0419,-0.39466 0.0419,-0.3947 0.034,-0.10514 -0.034,-0.10513 -0.0419,-0.39471 0.0419,-0.39469 0.034,-0.10514 -0.034,-0.10513 -0.0419,-0.39471 0.0419,-0.39469 0.034,-0.10514 -0.034,-0.10513 -0.0419,-0.39471 0.0419,-0.39469 0.034,-0.10514 -0.034,-0.10513 -0.0419,-0.39471 0.0419,-0.39469 0.034,-0.10514 -0.034,-0.10513 -0.0419,-0.39471 0.0419,-0.39469 0.034,-0.10514 -0.034,-0.10513 -0.0419,-0.39471 0.0419,-0.39469 0.034,-0.10514 -0.034,-0.10513 -0.0419,-0.3947 0.0419,-0.3947 0.034,-0.10513 -0.034,-0.10515 -0.0419,-0.39469 0.0419,-0.39466 0.034,-0.10515 -0.034,-0.10513 -0.0419,-0.3947 0.0419,-0.3947 0.034,-0.10514 -0.034,-0.10513 -0.0419,-0.3947 0.0419,-0.3947 0.034,-0.10514 -0.034,-0.10513 -0.0419,-0.3947 0.0419,-0.3947 0.12199,-0.3778 0.19868,-0.34376 0.26589,-0.2946 0.32065,-0.23296 0.3626,-0.16185 0.38772,-0.0832 h 0.39772 l 0.38774,0.0832 0.36258,0.16185 0.32067,0.23296 0.26589,0.2946 0.19866,0.34376 0.122,0.3778 0.0419,0.3947 -0.0419,0.3947 -0.034,0.10513 0.034,0.10514 0.0419,0.3947 -0.0419,0.3947 -0.034,0.10513 0.034,0.10514 0.0419,0.3947 -0.0419,0.3947 -0.034,0.10513 0.034,0.10515 0.0419,0.39466 -0.0419,0.39469 -0.034,0.10515 0.034,0.10513 0.0419,0.3947 -0.0419,0.3947 -0.034,0.10513 0.034,0.10514 0.0419,0.39469 -0.0419,0.39471 -0.034,0.10513 0.034,0.10514 0.0419,0.39469 -0.0419,0.39471 -0.034,0.10513 0.034,0.10514 0.0419,0.39469 -0.0419,0.39471 -0.034,0.10513 0.034,0.10514 0.0419,0.39469 -0.0419,0.39471 -0.034,0.10513 0.034,0.10514 0.0419,0.39469 -0.0419,0.39471 -0.034,0.10513 0.034,0.10514 0.0419,0.39469 -0.0419,0.39471 -0.034,0.10513 0.034,0.10514 0.0419,0.3947 -0.0419,0.39466 -0.034,0.10513 0.034,0.10514 0.0419,0.3947 -0.0419,0.3947 -0.034,0.10513 0.034,0.10514 0.0419,0.3947 -0.0419,0.3947 -0.034,0.10513 0.034,0.10514 0.0419,0.3947 -0.0419,0.3947 -0.034,0.10513 0.034,0.10514 0.0419,0.3947 -0.0419,0.3947 -0.034,0.10513 0.034,0.10514 0.0419,0.39467 -0.0419,0.39469 -0.034,0.10514 0.034,0.10513 0.0419,0.39471 -0.0419,0.39469 -0.034,0.10514 0.034,0.10514 0.0419,0.39469 -0.0419,0.3947 -0.034,0.10514 0.034,0.10514 0.0419,0.39469 -0.0419,0.39471 -0.034,0.10513 0.034,0.10514 0.0419,0.39469 -0.0419,0.39471 -0.034,0.10513 0.034,0.10514 0.0419,0.39469 -0.0419,0.39471 -0.034,0.10513 0.034,0.10514 0.0419,0.39469 -0.0419,0.39471 -0.034,0.10513 0.034,0.10514 0.0419,0.39469 -0.0419,0.3947 -0.034,0.10513 0.034,0.10514 0.0419,0.39469 -0.0419,0.39467 -0.034,0.10513 0.034,0.10514 0.0419,0.39469 -0.0419,0.39471 -0.034,0.10513 0.034,0.10514 0.0419,0.3947 -0.0419,0.3947 -0.034,0.10513 0.034,0.10514 0.0419,0.3947 -0.0419,0.3947 -0.034,0.10513 0.034,0.10514 0.0419,0.3947 -0.0419,0.3947 -0.034,0.10513 0.034,0.10514 0.0419,0.39467 -0.0419,0.39469 -0.034,0.10514 0.034,0.10513 0.0419,0.39471 -0.0419,0.39469 -0.034,0.10514 0.034,0.10513 0.0419,0.39471 -0.0419,0.39469 -0.034,0.10513 0.034,0.10514 0.0419,0.3947 -0.0419,0.3947 -0.034,0.10514 0.034,0.10514 0.0419,0.39469 -0.0419,0.39471 -0.034,0.10513 0.034,0.10514 0.0419,0.39469 -0.0419,0.39471 -0.034,0.10513 0.034,0.10514 0.0419,0.39469 -0.0419,0.39471 -0.034,0.10513 0.034,0.10514 0.0419,0.39469 -0.0419,0.39471 -0.034,0.10513 0.034,0.10514 0.0419,0.39473 -0.0419,0.39467 -0.034,0.10513 0.034,0.10514 0.0419,0.39469 -0.0419,0.39471 -0.034,0.10513 0.034,0.10513 0.0419,0.3947 -0.0419,0.39471 -0.034,0.10513 0.034,0.10513 0.0419,0.39471 -0.0419,0.3947 -0.122,0.37779 -0.19866,0.34377 -0.26589,0.29497 -0.32067,0.23296 -0.36258,0.16149 -0.38774,0.0829 z m 216.85037,-32.97458 -0.38775,-0.0832 -0.36258,-0.16186 -0.32065,-0.23295 -0.26591,-0.2946 -0.19866,-0.34376 -0.12198,-0.3778 -0.0419,-0.3947 0.0419,-0.39474 0.12198,-0.3778 0.19866,-0.34376 0.26591,-0.29497 0.32065,-0.23259 0.36258,-0.16186 0.38775,-0.0832 h 0.39771 l 0.38773,0.0832 0.36259,0.16186 0.32066,0.23259 0.26589,0.29497 0.19867,0.34376 0.122,0.3778 0.0419,0.39474 -0.0419,0.3947 -0.122,0.3778 -0.19867,0.34376 -0.26589,0.2946 -0.32066,0.23295 -0.36259,0.16186 -0.38773,0.0832 z m 27.98073,2.99772 -0.38775,-0.0832 -0.36258,-0.16185 -0.32066,-0.23259 -0.2659,-0.29498 -0.19866,-0.34376 -0.12199,-0.37779 -0.0419,-0.39471 0.0419,-0.39473 0.12199,-0.37781 0.19866,-0.34376 0.2659,-0.29497 0.32066,-0.23258 0.36258,-0.16186 0.38775,-0.0831 h 0.3977 l 0.38774,0.0831 0.36259,0.16186 0.32066,0.23258 0.26589,0.29497 0.19904,0.34376 0.12201,0.37781 0.0419,0.39473 -0.0419,0.39471 -0.12201,0.37779 -0.19904,0.34376 -0.26589,0.29498 -0.32066,0.23259 -0.36259,0.16185 -0.38774,0.0832 z m -170.88214,1.99843 -0.3877,-0.0831 -0.36258,-0.16186 -0.32066,-0.23258 -0.2659,-0.29461 -0.19867,-0.34376 -0.12198,-0.37779 -0.0419,-0.39471 0.0419,-0.3947 0.12198,-0.37779 0.19867,-0.34376 0.2659,-0.29498 0.32066,-0.23258 0.36258,-0.16186 0.3877,-0.0831 h 0.39775 l 0.38774,0.0831 0.36259,0.16186 0.32066,0.23258 0.26589,0.29498 0.19866,0.34376 0.12201,0.37779 0.0419,0.3947 -0.0419,0.39471 -0.12201,0.37779 -0.19866,0.34376 -0.26589,0.29461 -0.32066,0.23258 -0.36259,0.16186 -0.38774,0.0831 z m -198.940725,5.24107 -0.5414972,-0.11497 -0.5057674,-0.22463 -0.4479052,-0.32599 -0.3705161,-0.41066 -0.2768483,-0.47965 -0.1710945,-0.5266 -0.057787,-0.55055 0.026438,-0.2496 -0.026438,-0.24959 0.026438,-0.24998 -0.026438,-0.2496 0.057787,-0.55054 0.1710945,-0.52665 0.2768483,-0.4796 0.3705161,-0.4107 0.4479052,-0.32599 0.5057674,-0.22464 0.5414972,-0.11497 h 0.5536213 l 0.5415349,0.11497 0.5057676,0.22464 0.4478673,0.32599 0.3705161,0.4107 0.2768483,0.4796 0.1710945,0.52665 0.057787,0.55054 -0.026438,0.2496 0.026438,0.24998 -0.026438,0.24959 0.026438,0.2496 -0.057787,0.55055 -0.1710945,0.5266 -0.2768483,0.47965 -0.3705161,0.41066 -0.4478673,0.32599 -0.5057676,0.22463 -0.5415349,0.11497 z m 368.745605,2.49864 -0.54165,-0.11534 -0.50565,-0.22501 -0.44768,-0.32561 -0.3709,-0.41138 -0.27684,-0.47934 -0.17071,-0.52649 -0.0578,-0.55059 0.0264,-0.2496 -0.0264,-0.2496 0.0264,-0.2496 -0.0264,-0.24959 0.0578,-0.55054 0.17071,-0.52666 0.27684,-0.4796 0.3709,-0.41069 0.44768,-0.32599 0.50565,-0.22464 0.54165,-0.11497 h 0.55359 l 0.54164,0.11497 0.50565,0.22464 0.44768,0.32599 0.3709,0.41069 0.27684,0.4796 0.17072,0.52666 0.0578,0.55054 -0.0264,0.24959 0.0264,0.2496 -0.0264,0.2496 0.0264,0.2496 -0.0578,0.55059 -0.17072,0.52649 -0.27684,0.47934 -0.3709,0.41138 -0.44768,0.32561 -0.50565,0.22501 -0.54164,0.11534 z m -43.89176,20.23872 -0.38769,-0.0829 -0.3626,-0.16149 -0.32065,-0.23296 -0.2659,-0.29497 -0.19867,-0.34377 -0.12198,-0.37779 -0.0419,-0.3947 0.0419,-0.39471 0.12198,-0.37779 0.19867,-0.34376 0.2659,-0.29498 0.32065,-0.23296 0.3626,-0.16148 0.38769,-0.0829 h 0.39776 l 0.38772,0.0829 0.36261,0.16148 0.32064,0.23296 0.26589,0.29498 0.19868,0.34376 0.12199,0.37779 0.0419,0.39471 -0.0419,0.3947 -0.12199,0.37779 -0.19868,0.34377 -0.26589,0.29497 -0.32064,0.23296 -0.36261,0.16149 -0.38772,0.0829 z m -124.91378,0 -0.38774,-0.0829 -0.36258,-0.16149 -0.32066,-0.23296 -0.2659,-0.29497 -0.19867,-0.34377 -0.12199,-0.37779 -0.0419,-0.3947 0.0419,-0.39471 0.12199,-0.37779 0.19867,-0.34376 0.2659,-0.29498 0.32066,-0.23296 0.36258,-0.16148 0.38774,-0.0829 h 0.39771 l 0.38774,0.0829 0.36258,0.16148 0.32067,0.23296 0.26589,0.29498 0.19866,0.34376 0.122,0.37779 0.0419,0.39471 -0.0419,0.3947 -0.122,0.37779 -0.19866,0.34377 -0.26589,0.29497 -0.32067,0.23296 -0.36258,0.16149 -0.38774,0.0829 z m -199.8616939,0 -0.3882296,-0.0829 -0.3625845,-0.16149 -0.3210384,-0.23296 -0.2655175,-0.29497 -0.1982884,-0.34377 -0.12275,-0.37779 -0.041546,-0.3947 0.041546,-0.39471 0.12275,-0.37779 0.1982884,-0.34376 0.2655175,-0.29498 0.3210384,-0.23296 0.3625845,-0.16148 0.3882296,-0.0829 h 0.3969167 l 0.3882299,0.0829 0.3625845,0.16148 0.3210382,0.23296 0.2655175,0.29498 0.1982885,0.34376 0.1227499,0.37779 0.041546,0.39471 -0.041546,0.3947 -0.1227499,0.37779 -0.1982885,0.34377 -0.2655175,0.29497 -0.3210382,0.23296 -0.3625845,0.16149 -0.3882299,0.0829 z m 349.7582639,0 -0.38775,-0.0829 -0.36258,-0.16149 -0.32066,-0.23296 -0.2659,-0.29497 -0.19866,-0.34377 -0.12198,-0.37779 -0.0419,-0.3947 0.0419,-0.39471 0.12198,-0.37779 0.19866,-0.34376 0.2659,-0.29498 0.32066,-0.23296 0.36258,-0.16148 0.38775,-0.0829 h 0.39771 l 0.38773,0.0829 0.36296,0.16148 0.32067,0.23296 0.26589,0.29498 0.19867,0.34376 0.122,0.37779 0.0419,0.39471 -0.0419,0.3947 -0.122,0.37779 -0.19867,0.34377 -0.26589,0.29497 -0.32067,0.23296 -0.36296,0.16149 -0.38773,0.0829 z m -74.94829,0 -0.38773,-0.0829 -0.36259,-0.16149 -0.32065,-0.23296 -0.2659,-0.29497 -0.19867,-0.34377 -0.12199,-0.37779 -0.0419,-0.3947 0.0419,-0.39471 0.12199,-0.37779 0.19867,-0.34376 0.2659,-0.29498 0.32065,-0.23296 0.36259,-0.16148 0.38773,-0.0829 h 0.39771 l 0.38775,0.0829 0.36258,0.16148 0.32066,0.23296 0.2659,0.29498 0.19866,0.34376 0.12199,0.37779 0.0419,0.39471 -0.0419,0.3947 -0.12199,0.37779 -0.19866,0.34377 -0.2659,0.29497 -0.32066,0.23296 -0.36258,0.16149 -0.38775,0.0829 z m -24.98278,0 -0.38769,-0.0829 -0.36258,-0.16149 -0.32067,-0.23296 -0.26589,-0.29497 -0.19867,-0.34377 -0.122,-0.37779 -0.0419,-0.3947 0.0419,-0.39471 0.122,-0.37779 0.19867,-0.34376 0.26589,-0.29498 0.32067,-0.23296 0.36258,-0.16148 0.38769,-0.0829 h 0.39775 l 0.38773,0.0829 0.36259,0.16148 0.32065,0.23296 0.2659,0.29498 0.19867,0.34376 0.12199,0.37779 0.0419,0.39471 -0.0419,0.3947 -0.12199,0.37779 -0.19867,0.34377 -0.2659,0.29497 -0.32065,0.23296 -0.36259,0.16149 -0.38773,0.0829 z m -24.98275,0 -0.38774,-0.0829 -0.36258,-0.16149 -0.32067,-0.23296 -0.26589,-0.29497 -0.19867,-0.34377 -0.122,-0.37779 -0.0419,-0.3947 0.0419,-0.39471 0.122,-0.37779 0.19867,-0.34376 0.26589,-0.29498 0.32067,-0.23296 0.36258,-0.16148 0.38774,-0.0829 h 0.3977 l 0.38775,0.0829 0.36258,0.16148 0.32066,0.23296 0.2659,0.29498 0.19866,0.34376 0.12199,0.37779 0.0419,0.39471 -0.0419,0.3947 -0.12199,0.37779 -0.19866,0.34377 -0.2659,0.29497 -0.32066,0.23296 -0.36258,0.16149 -0.38775,0.0829 z m -49.96554,0 -0.3877,-0.0829 -0.36258,-0.16149 -0.32067,-0.23296 -0.26589,-0.29497 -0.19867,-0.34377 -0.122,-0.37779 -0.0419,-0.3947 0.0419,-0.39471 0.122,-0.37779 0.19867,-0.34376 0.26589,-0.29498 0.32067,-0.23296 0.36258,-0.16148 0.3877,-0.0829 h 0.39775 l 0.38774,0.0829 0.36259,0.16148 0.32065,0.23296 0.2659,0.29498 0.19866,0.34376 0.122,0.37779 0.0419,0.39471 -0.0419,0.3947 -0.122,0.37779 -0.19866,0.34377 -0.2659,0.29497 -0.32065,0.23296 -0.36259,0.16149 -0.38774,0.0829 z m 124.91382,0 -0.38773,-0.0829 -0.3626,-0.16149 -0.32065,-0.23296 -0.26589,-0.29497 -0.19867,-0.34377 -0.122,-0.37779 -0.0419,-0.3947 0.0419,-0.39471 0.122,-0.37779 0.19867,-0.34376 0.26589,-0.29498 0.32065,-0.23296 0.3626,-0.16148 0.38773,-0.0829 h 0.39771 l 0.38774,0.0829 0.36259,0.16148 0.32066,0.23296 0.2659,0.29498 0.19866,0.34376 0.12198,0.37779 0.0419,0.39471 -0.0419,0.3947 -0.12198,0.37779 -0.19866,0.34377 -0.2659,0.29497 -0.32066,0.23296 -0.36259,0.16149 -0.38774,0.0829 z m -149.89657,0 -0.38774,-0.0829 -0.36258,-0.16149 -0.32066,-0.23296 -0.26589,-0.29497 -0.19868,-0.34377 -0.12198,-0.37779 -0.0419,-0.3947 0.0419,-0.39471 0.12198,-0.37779 0.19868,-0.34376 0.26589,-0.29498 0.32066,-0.23296 0.36258,-0.16148 0.38774,-0.0829 h 0.39771 l 0.38775,0.0829 0.36258,0.16148 0.32067,0.23296 0.26589,0.29498 0.19866,0.34376 0.122,0.37779 0.0419,0.39471 -0.0419,0.3947 -0.122,0.37779 -0.19866,0.34377 -0.26589,0.29497 -0.32067,0.23296 -0.36258,0.16149 -0.38775,0.0829 z m -133.854927,13.49252 -0.285912,-0.0608 -0.267407,-0.11913 -0.236435,-0.17168 -0.195645,-0.21708 -0.146166,-0.25338 -0.09026,-0.27795 -0.03022,-0.29082 0.03022,-0.29082 0.09026,-0.27796 0.146166,-0.25338 0.195645,-0.21707 0.236435,-0.17169 0.267407,-0.11913 0.285912,-0.0608 h 0.292335 l 0.285912,0.0608 0.267406,0.11913 0.236435,0.17169 0.195645,0.21707 0.146167,0.25338 0.09027,0.27796 0.03022,0.29082 -0.03022,0.29082 -0.09027,0.27795 -0.146167,0.25338 -0.195645,0.21708 -0.236435,0.17168 -0.267406,0.11913 -0.285912,0.0608 z m 116.919627,0 -0.28667,-0.0608 -0.26665,-0.11913 -0.23681,-0.17168 -0.19603,-0.21708 -0.14578,-0.25338 -0.0899,-0.27795 -0.0302,-0.29082 0.0302,-0.29082 0.0899,-0.27796 0.14578,-0.25338 0.19603,-0.21707 0.23681,-0.17169 0.26665,-0.11913 0.28667,-0.0608 h 0.29196 l 0.28667,0.0608 0.26665,0.11913 0.23682,0.17169 0.196,0.21707 0.14579,0.25338 0.0899,0.27796 0.0302,0.29082 -0.0302,0.29082 -0.0899,0.27795 -0.14579,0.25338 -0.196,0.21708 -0.23682,0.17168 -0.26665,0.11913 -0.28667,0.0608 z m 65.9015,3.49466 -0.3877,-0.0829 -0.36258,-0.16147 -0.32066,-0.23296 -0.2659,-0.29498 -0.19867,-0.34376 -0.12198,-0.37779 -0.0419,-0.39471 0.0419,-0.3947 0.12198,-0.3778 0.19867,-0.34376 0.2659,-0.29497 0.32066,-0.23334 0.36258,-0.16149 0.3877,-0.0829 h 0.39775 l 0.38774,0.0829 0.36259,0.16149 0.32066,0.23334 0.26589,0.29497 0.19866,0.34376 0.12201,0.3778 0.0419,0.3947 -0.0419,0.39471 -0.12201,0.37779 -0.19866,0.34376 -0.26589,0.29498 -0.32066,0.23296 -0.36259,0.16147 -0.38774,0.0829 z m 142.90141,0 -0.38775,-0.0829 -0.36258,-0.16147 -0.32065,-0.23296 -0.26591,-0.29498 -0.19866,-0.34376 -0.12198,-0.37779 -0.0419,-0.39471 0.0419,-0.3947 0.12198,-0.3778 0.19866,-0.34376 0.26591,-0.29497 0.32065,-0.23334 0.36258,-0.16149 0.38775,-0.0829 h 0.39771 l 0.38773,0.0829 0.36259,0.16149 0.32066,0.23334 0.26589,0.29497 0.19867,0.34376 0.122,0.3778 0.0419,0.3947 -0.0419,0.39471 -0.122,0.37779 -0.19867,0.34376 -0.26589,0.29498 -0.32066,0.23296 -0.36259,0.16147 -0.38773,0.0829 z m -341.7637639,22.98261 -0.3882296,-0.0829 -0.3625845,-0.16148 -0.3210384,-0.23296 -0.2655175,-0.29497 -0.1982884,-0.34377 -0.12275,-0.37779 -0.041546,-0.39471 0.041546,-0.39469 0.12275,-0.37781 0.1982884,-0.34376 0.2655175,-0.29498 0.3210384,-0.23333 0.3625845,-0.16148 0.3882296,-0.0829 h 0.3969167 l 0.3882299,0.0829 0.3625845,0.16148 0.3210382,0.23333 0.2655175,0.29498 0.1982885,0.34376 0.1227499,0.37781 0.041546,0.39469 -0.041546,0.39471 -0.1227499,0.37779 -0.1982885,0.34377 -0.2655175,0.29497 -0.3210382,0.23296 -0.3625845,0.16148 -0.3882299,0.0829 z m 369.7444939,0 -0.38775,-0.0829 -0.36258,-0.16148 -0.32066,-0.23296 -0.2659,-0.29497 -0.19866,-0.34377 -0.12199,-0.37779 -0.0419,-0.39471 0.0419,-0.39469 0.12199,-0.37781 0.19866,-0.34376 0.2659,-0.29498 0.32066,-0.23333 0.36258,-0.16148 0.38775,-0.0829 h 0.3977 l 0.38774,0.0829 0.36259,0.16148 0.32066,0.23333 0.26589,0.29498 0.19904,0.34376 0.12201,0.37781 0.0419,0.39469 -0.0419,0.39471 -0.12201,0.37779 -0.19904,0.34377 -0.26589,0.29497 -0.32066,0.23296 -0.36259,0.16148 -0.38774,0.0829 z m -27.98073,1.99847 -0.38775,-0.0829 -0.36258,-0.16147 -0.32065,-0.23334 -0.26591,-0.29498 -0.19866,-0.34376 -0.12198,-0.3778 -0.0419,-0.39471 0.0419,-0.39469 0.12198,-0.37781 0.19866,-0.34376 0.26591,-0.29497 0.32065,-0.23334 0.36258,-0.16186 0.38775,-0.0829 h 0.39771 l 0.38773,0.0829 0.36259,0.16186 0.32066,0.23334 0.26589,0.29497 0.19867,0.34376 0.122,0.37781 0.0419,0.39469 -0.0419,0.39471 -0.122,0.3778 -0.19867,0.34376 -0.26589,0.29498 -0.32066,0.23334 -0.36259,0.16147 -0.38773,0.0829 z m -29.97931,0 -0.38774,-0.0829 -0.36259,-0.16147 -0.32066,-0.23334 -0.26589,-0.29498 -0.19866,-0.34376 -0.122,-0.3778 -0.0419,-0.39471 0.0419,-0.39469 0.122,-0.37781 0.19866,-0.34376 0.26589,-0.29497 0.32066,-0.23334 0.36259,-0.16186 0.38774,-0.0829 h 0.3977 l 0.38775,0.0829 0.36258,0.16186 0.32067,0.23334 0.26589,0.29497 0.19866,0.34376 0.122,0.37781 0.0419,0.39469 -0.0419,0.39471 -0.122,0.3778 -0.19866,0.34376 -0.26589,0.29498 -0.32067,0.23334 -0.36258,0.16147 -0.38775,0.0829 z m -79.94485,0 -0.3877,-0.0829 -0.36258,-0.16147 -0.32067,-0.23334 -0.26589,-0.29498 -0.19867,-0.34376 -0.122,-0.3778 -0.0419,-0.39471 0.0419,-0.39469 0.122,-0.37781 0.19867,-0.34376 0.26589,-0.29497 0.32067,-0.23334 0.36258,-0.16186 0.3877,-0.0829 h 0.39775 l 0.38774,0.0829 0.36258,0.16186 0.32066,0.23334 0.2659,0.29497 0.19866,0.34376 0.122,0.37781 0.0419,0.39469 -0.0419,0.39471 -0.122,0.3778 -0.19866,0.34376 -0.2659,0.29498 -0.32066,0.23334 -0.36258,0.16147 -0.38774,0.0829 z M 56.909269,128.76751 h -0.396953 l -0.388231,-0.0831 -0.362583,-0.16224 -0.321039,-0.23259 -0.265517,-0.29496 -0.198667,-0.34377 -0.122749,-0.3778 -0.04154,-0.3947 0.04154,-0.39474 0.122749,-0.3778 0.198667,-0.34376 0.265517,-0.29498 0.321039,-0.23258 0.362583,-0.16185 0.388231,-0.0832 h 0.396953 l 0.388231,0.0832 0.362584,0.16185 0.321039,0.23258 0.265517,0.29498 0.198288,0.34376 0.12275,0.3778 0.04155,0.39474 -0.04155,0.3947 -0.12275,0.3778 -0.198288,0.34377 -0.265517,0.29496 -0.321039,0.23259 -0.362584,0.16224 z"
       inkscape:connector-curvature="0"
       style="fill:none;stroke:#000000;stroke-width:0.26475304;stroke-miterlimit:4;stroke-dasharray:none" />
  </g>
</svg>
