<?xml version="1.0" encoding="UTF-8" standalone="no"?>
<svg
   xmlns:dc="http://purl.org/dc/elements/1.1/"
   xmlns:cc="http://creativecommons.org/ns#"
   xmlns:rdf="http://www.w3.org/1999/02/22-rdf-syntax-ns#"
   xmlns:svg="http://www.w3.org/2000/svg"
   xmlns="http://www.w3.org/2000/svg"
   xmlns:sodipodi="http://sodipodi.sourceforge.net/DTD/sodipodi-0.dtd"
   xmlns:inkscape="http://www.inkscape.org/namespaces/inkscape"
   width="793.700787402"
   height="1122.51968504"
   version="1.1"
   id="svg510"
   sodipodi:docname="alu_complete_again_inches.svg"
   inkscape:version="0.92.2 (5c3e80d, 2017-08-06)">
  <metadata
     id="metadata514">
    <rdf:RDF>
      <cc:Work
         rdf:about="">
        <dc:format>image/svg+xml</dc:format>
        <dc:type
           rdf:resource="http://purl.org/dc/dcmitype/StillImage" />
        <dc:title></dc:title>
      </cc:Work>
    </rdf:RDF>
  </metadata>
  <sodipodi:namedview
     pagecolor="#ffffff"
     bordercolor="#666666"
     borderopacity="1"
     objecttolerance="10"
     gridtolerance="10"
     guidetolerance="10"
     inkscape:pageopacity="0"
     inkscape:pageshadow="2"
     inkscape:window-width="1920"
     inkscape:window-height="986"
     id="namedview512"
     showgrid="false"
     inkscape:zoom="0.29732611"
     inkscape:cx="557.79497"
     inkscape:cy="421.11801"
     inkscape:window-x="-11"
     inkscape:window-y="-11"
     inkscape:window-maximized="1"
     inkscape:current-layer="g508"
     inkscape:measure-start="1122.52,1398.39"
     inkscape:measure-end="1117.76,0" />
  <desc
     id="desc202">C:\cygwin64\home\rjdro\github_copy_dr.robotlab\dr.robotlab_library\svgs_v2\big_blue_2018\alu\alu_complete_again.dxf - scale = 1.000000, origin = (0.000000, 0.000000), method = manual</desc>
  <defs
     id="defs216">
    <marker
       id="DistanceX"
       orient="auto"
       refX="0.0"
       refY="0.0"
       style="overflow:visible">
      <path
         d="M 3,-3 L -3,3 M 0,-5 L  0,5"
         style="stroke:#000000; stroke-width:0.5"
         id="path204" />
    </marker>
    <pattern
       height="8"
       id="Hatch"
       patternUnits="userSpaceOnUse"
       width="8"
       x="0"
       y="0">
      <path
         d="M8 4 l-4,4"
         linecap="square"
         stroke="#000000"
         stroke-width="0.25"
         id="path207" />
      <path
         d="M6 2 l-4,4"
         linecap="square"
         stroke="#000000"
         stroke-width="0.25"
         id="path209" />
      <path
         d="M4 0 l-4,4"
         linecap="square"
         stroke="#000000"
         stroke-width="0.25"
         id="path211" />
    </pattern>
    <symbol
       id="*MODEL_SPACE" />
    <symbol
       id="*PAPER_SPACE" />
  </defs>
  <g
     inkscape:groupmode="layer"
     inkscape:label="0"
     id="g218" />
  <g
     inkscape:groupmode="layer"
     inkscape:label="Layer_1"
     id="g508">
    <path
       d="M -46,-71.766036 Z"
       style="fill:none;stroke:#000000"
       id="path224"
       inkscape:connector-curvature="0" />
    <path
       d="m 1403.8813,1103.1476 2.4762,-23.5426 7.3158,-22.5133 11.8343,-20.5006 15.8435,-17.5919 19.1538,-13.9143 21.6264,-9.62832 23.1591,-4.92144 h 23.6763 l 23.1591,4.92144 6.9155,3.0796 V -237.79445 h -37.749 v -37.74421 H 44.914097 v 37.74421 H 7.164917 V 1084.2755 h 37.74918 v 37.7442 H 1405.8669 Z"
       style="fill:none;stroke:#000000"
       id="path226"
       inkscape:connector-curvature="0" />
    <path
       d="m 79.70366,-189.74981 -5.78927,-1.23126 -5.40719,-2.40795 -4.78842,-3.47623 -3.96033,-4.4011 -2.95948,-5.12187 -1.82894,-5.63151 -0.6192,-5.88418 0.6192,-5.88448 1.82894,-5.63136 2.95948,-5.12186 3.96033,-4.40111 4.78842,-3.47623 5.40719,-2.40796 5.78927,-1.23125 h 5.91896 l 5.78927,1.23125 5.4072,2.40796 4.78841,3.47623 3.96034,4.40111 2.95948,5.12186 1.82894,5.63136 0.6192,5.88448 -0.6192,5.88418 -1.82894,5.63151 -2.95948,5.12187 -3.96034,4.4011 -4.78841,3.47623 -5.4072,2.40795 -5.78927,1.23126 z"
       style="fill:none;stroke:#000000"
       id="path228"
       inkscape:connector-curvature="0" />
    <path
       d="m 1476.42,-189.74981 -5.7908,-1.23126 -5.4057,-2.40795 -4.7866,-3.47623 -3.9636,-4.4011 -2.9596,-5.12187 -1.827,-5.63151 -0.6192,-5.88418 0.6192,-5.88448 1.827,-5.63136 2.9596,-5.12186 3.9636,-4.40111 4.7866,-3.47623 5.4057,-2.40796 5.7908,-1.23125 h 5.9189 l 5.7907,1.23125 5.4058,2.40796 4.7866,3.47623 3.9636,4.40111 2.9595,5.12186 1.827,5.63136 0.6192,5.88448 -0.6192,5.88418 -1.827,5.63151 -2.9595,5.12187 -3.9636,4.4011 -4.7866,3.47623 -5.4058,2.40795 -5.7907,1.23126 z"
       style="fill:none;stroke:#000000"
       id="path230"
       inkscape:connector-curvature="0" />
    <path
       d="m 244.25412,-67.529851 -1.42803,-0.305684 -1.334,-0.591349 -1.18132,-0.857027 -0.97733,-1.086992 -0.73048,-1.264112 -0.45086,-1.385522 -0.15269,-1.453224 0.15269,-1.453085 0.45086,-1.385526 0.73048,-1.264108 0.97733,-1.086992 1.18132,-0.857023 1.334,-0.591353 1.42803,-0.305684 h 1.46013 l 1.42802,0.305684 1.33399,0.591353 1.18135,0.857023 0.97731,1.086992 0.72906,1.264108 0.45084,1.385526 0.1527,1.453085 -0.1527,1.453224 -0.45084,1.385522 -0.72906,1.264112 -0.97731,1.086992 -1.18135,0.857027 -1.33399,0.591349 -1.42802,0.305684 z"
       style="fill:none;stroke:#000000"
       id="path232"
       inkscape:connector-curvature="0" />
    <path
       d="m 923.73931,-67.529851 -1.4307,-0.305684 -1.33262,-0.591349 -1.18133,-0.857027 -0.97731,-1.086992 -0.72907,-1.264112 -0.4537,-1.385522 -0.15118,-1.453224 0.15118,-1.453085 0.4537,-1.385526 0.72907,-1.264108 0.97731,-1.086992 1.18133,-0.857023 1.33262,-0.591353 1.4307,-0.305684 h 1.45712 l 1.43059,0.305684 1.33255,0.591353 1.18137,0.857023 0.97731,1.086992 0.72907,1.264108 0.45226,1.385526 0.15118,1.453085 -0.15118,1.453224 -0.45226,1.385522 -0.72907,1.264112 -0.97731,1.086992 -1.18137,0.857027 -1.33255,0.591349 -1.43059,0.305684 z"
       style="fill:none;stroke:#000000"
       id="path234"
       inkscape:connector-curvature="0" />
    <path
       d="m 1263.4811,-67.529851 -1.4307,-0.305684 -1.3326,-0.591349 -1.1814,-0.857027 -0.9773,-1.086992 -0.7291,-1.264112 -0.4523,-1.385522 -0.1511,-1.453224 0.1511,-1.453085 0.4523,-1.385526 0.7291,-1.264108 0.9773,-1.086992 1.1814,-0.857023 1.3326,-0.591353 1.4307,-0.305684 h 1.4571 l 1.4306,0.305684 1.3325,0.591353 1.1814,0.857023 0.9774,1.086992 0.729,1.264108 0.4522,1.385526 0.1512,1.453085 -0.1512,1.453224 -0.4522,1.385522 -0.729,1.264112 -0.9774,1.086992 -1.1814,0.857027 -1.3325,0.591349 -1.4306,0.305684 z"
       style="fill:none;stroke:#000000"
       id="path236"
       inkscape:connector-curvature="0" />
    <path
       d="m 583.9975,-67.529851 -1.43074,-0.305684 -1.33258,-0.591349 -1.18133,-0.857027 -0.97731,-1.086992 -0.72907,-1.264112 -0.4537,-1.385522 -0.15118,-1.453224 0.15118,-1.453085 0.4537,-1.385526 0.72907,-1.264108 0.97731,-1.086992 1.18133,-0.857023 1.33258,-0.591353 1.43074,-0.305684 h 1.45709 l 1.43063,0.305684 1.33254,0.591353 1.18137,0.857023 0.97731,1.086992 0.72907,1.264108 0.45226,1.385526 0.15118,1.453085 -0.15118,1.453224 -0.45226,1.385522 -0.72907,1.264112 -0.97731,1.086992 -1.18137,0.857027 -1.33254,0.591349 -1.43063,0.305684 z"
       style="fill:none;stroke:#000000"
       id="path238"
       inkscape:connector-curvature="0" />
    <path
       d="m 583.9975,272.16889 -1.43074,-0.30569 -1.33258,-0.59135 -1.18133,-0.85702 -0.97731,-1.08698 -0.72907,-1.26412 -0.4537,-1.38553 -0.15118,-1.45322 0.15118,-1.45309 0.4537,-1.38552 0.72907,-1.26411 0.97731,-1.08698 1.18133,-0.85704 1.33258,-0.59135 1.43074,-0.30567 h 1.45709 l 1.43063,0.30567 1.33254,0.59135 1.18137,0.85704 0.97731,1.08698 0.72907,1.26411 0.45226,1.38552 0.15118,1.45309 -0.15118,1.45322 -0.45226,1.38553 -0.72907,1.26412 -0.97731,1.08698 -1.18137,0.85702 -1.33254,0.59135 -1.43063,0.30569 z"
       style="fill:none;stroke:#000000"
       id="path240"
       inkscape:connector-curvature="0" />
    <path
       d="m 244.25412,272.16889 -1.42803,-0.30569 -1.334,-0.59135 -1.18132,-0.85702 -0.97733,-1.08698 -0.73048,-1.26412 -0.45086,-1.38553 -0.15269,-1.45322 0.15269,-1.45309 0.45086,-1.38552 0.73048,-1.26411 0.97733,-1.08698 1.18132,-0.85704 1.334,-0.59135 1.42803,-0.30567 h 1.46013 l 1.42802,0.30567 1.33399,0.59135 1.18135,0.85704 0.97731,1.08698 0.72906,1.26411 0.45084,1.38552 0.1527,1.45309 -0.1527,1.45322 -0.45084,1.38553 -0.72906,1.26412 -0.97731,1.08698 -1.18135,0.85702 -1.33399,0.59135 -1.42802,0.30569 z"
       style="fill:none;stroke:#000000"
       id="path242"
       inkscape:connector-curvature="0" />
    <path
       d="m 923.73931,272.16889 -1.4307,-0.30569 -1.33262,-0.59135 -1.18133,-0.85702 -0.97731,-1.08698 -0.72907,-1.26412 -0.4537,-1.38553 -0.15118,-1.45322 0.15118,-1.45309 0.4537,-1.38552 0.72907,-1.26411 0.97731,-1.08698 1.18133,-0.85704 1.33262,-0.59135 1.4307,-0.30567 h 1.45712 l 1.43059,0.30567 1.33255,0.59135 1.18137,0.85704 0.97731,1.08698 0.72907,1.26411 0.45226,1.38552 0.15118,1.45309 -0.15118,1.45322 -0.45226,1.38553 -0.72907,1.26412 -0.97731,1.08698 -1.18137,0.85702 -1.33255,0.59135 -1.43059,0.30569 z"
       style="fill:none;stroke:#000000"
       id="path244"
       inkscape:connector-curvature="0" />
    <path
       d="m 1263.4811,272.16889 -1.4307,-0.30569 -1.3326,-0.59135 -1.1814,-0.85702 -0.9773,-1.08698 -0.7291,-1.26412 -0.4523,-1.38553 -0.1511,-1.45322 0.1511,-1.45309 0.4523,-1.38552 0.7291,-1.26411 0.9773,-1.08698 1.1814,-0.85704 1.3326,-0.59135 1.4307,-0.30567 h 1.4571 l 1.4306,0.30567 1.3325,0.59135 1.1814,0.85704 0.9774,1.08698 0.729,1.26411 0.4522,1.38552 0.1512,1.45309 -0.1512,1.45322 -0.4522,1.38553 -0.729,1.26412 -0.9774,1.08698 -1.1814,0.85702 -1.3325,0.59135 -1.4306,0.30569 z"
       style="fill:none;stroke:#000000"
       id="path246"
       inkscape:connector-curvature="0" />
    <path
       d="m 244.25412,611.86779 -1.42803,-0.30576 -1.334,-0.59134 -1.18132,-0.85705 -0.97733,-1.08699 -0.73048,-1.2641 -0.45086,-1.3855 -0.15269,-1.45323 0.15269,-1.45323 0.45086,-1.38554 0.73048,-1.2641 0.97733,-1.08699 1.18132,-0.85705 1.334,-0.59134 1.42803,-0.30576 h 1.46013 l 1.42802,0.30576 1.33399,0.59134 1.18135,0.85705 0.97731,1.08699 0.72906,1.2641 0.45084,1.38554 0.1527,1.45323 -0.1527,1.45323 -0.45084,1.3855 -0.72906,1.2641 -0.97731,1.08699 -1.18135,0.85705 -1.33399,0.59134 -1.42802,0.30576 z"
       style="fill:none;stroke:#000000"
       id="path248"
       inkscape:connector-curvature="0" />
    <path
       d="m 1263.4811,611.86779 -1.4307,-0.30576 -1.3326,-0.59134 -1.1814,-0.85705 -0.9773,-1.08699 -0.7291,-1.2641 -0.4523,-1.3855 -0.1511,-1.45323 0.1511,-1.45323 0.4523,-1.38554 0.7291,-1.2641 0.9773,-1.08699 1.1814,-0.85705 1.3326,-0.59134 1.4307,-0.30576 h 1.4571 l 1.4306,0.30576 1.3325,0.59134 1.1814,0.85705 0.9774,1.08699 0.729,1.2641 0.4522,1.38554 0.1512,1.45323 -0.1512,1.45323 -0.4522,1.3855 -0.729,1.2641 -0.9774,1.08699 -1.1814,0.85705 -1.3325,0.59134 -1.4306,0.30576 z"
       style="fill:none;stroke:#000000"
       id="path250"
       inkscape:connector-curvature="0" />
    <path
       d="m 923.73931,611.86779 -1.4307,-0.30576 -1.33262,-0.59134 -1.18133,-0.85705 -0.97731,-1.08699 -0.72907,-1.2641 -0.4537,-1.3855 -0.15118,-1.45323 0.15118,-1.45323 0.4537,-1.38554 0.72907,-1.2641 0.97731,-1.08699 1.18133,-0.85705 1.33262,-0.59134 1.4307,-0.30576 h 1.45712 l 1.43059,0.30576 1.33255,0.59134 1.18137,0.85705 0.97731,1.08699 0.72907,1.2641 0.45226,1.38554 0.15118,1.45323 -0.15118,1.45323 -0.45226,1.3855 -0.72907,1.2641 -0.97731,1.08699 -1.18137,0.85705 -1.33255,0.59134 -1.43059,0.30576 z"
       style="fill:none;stroke:#000000"
       id="path252"
       inkscape:connector-curvature="0" />
    <path
       d="m 583.9975,611.86779 -1.43074,-0.30576 -1.33258,-0.59134 -1.18133,-0.85705 -0.97731,-1.08699 -0.72907,-1.2641 -0.4537,-1.3855 -0.15118,-1.45323 0.15118,-1.45323 0.4537,-1.38554 0.72907,-1.2641 0.97731,-1.08699 1.18133,-0.85705 1.33258,-0.59134 1.43074,-0.30576 h 1.45709 l 1.43063,0.30576 1.33254,0.59134 1.18137,0.85705 0.97731,1.08699 0.72907,1.2641 0.45226,1.38554 0.15118,1.45323 -0.15118,1.45323 -0.45226,1.3855 -0.72907,1.2641 -0.97731,1.08699 -1.18137,0.85705 -1.33254,0.59134 -1.43063,0.30576 z"
       style="fill:none;stroke:#000000"
       id="path254"
       inkscape:connector-curvature="0" />
    <path
       d="m 1263.4811,951.56609 -1.4307,-0.30424 -1.3326,-0.59278 -1.1814,-0.85845 -0.9773,-1.08412 -0.7291,-1.26415 -0.4523,-1.38836 -0.1511,-1.45164 0.1511,-1.45168 0.4523,-1.38838 0.7291,-1.2641 0.9773,-1.08415 1.1814,-0.85701 1.3326,-0.59279 1.4307,-0.30424 h 1.4571 l 1.4306,0.30424 1.3325,0.59279 1.1814,0.85701 0.9774,1.08415 0.729,1.2641 0.4522,1.38838 0.1512,1.45168 -0.1512,1.45164 -0.4522,1.38836 -0.729,1.26415 -0.9774,1.08412 -1.1814,0.85845 -1.3325,0.59278 -1.4306,0.30424 z"
       style="fill:none;stroke:#000000"
       id="path256"
       inkscape:connector-curvature="0" />
    <path
       d="m 923.73931,951.56609 -1.4307,-0.30424 -1.33262,-0.59278 -1.18133,-0.85845 -0.97731,-1.08412 -0.72907,-1.26415 -0.4537,-1.38836 -0.15118,-1.45164 0.15118,-1.45168 0.4537,-1.38838 0.72907,-1.2641 0.97731,-1.08415 1.18133,-0.85701 1.33262,-0.59279 1.4307,-0.30424 h 1.45712 l 1.43059,0.30424 1.33255,0.59279 1.18137,0.85701 0.97731,1.08415 0.72907,1.2641 0.45226,1.38838 0.15118,1.45168 -0.15118,1.45164 -0.45226,1.38836 -0.72907,1.26415 -0.97731,1.08412 -1.18137,0.85845 -1.33255,0.59278 -1.43059,0.30424 z"
       style="fill:none;stroke:#000000"
       id="path258"
       inkscape:connector-curvature="0" />
    <path
       d="m 244.25412,951.56609 -1.42803,-0.30424 -1.334,-0.59278 -1.18132,-0.85845 -0.97733,-1.08412 -0.73048,-1.26415 -0.45086,-1.38836 -0.15269,-1.45164 0.15269,-1.45168 0.45086,-1.38838 0.73048,-1.2641 0.97733,-1.08415 1.18132,-0.85701 1.334,-0.59279 1.42803,-0.30424 h 1.46013 l 1.42802,0.30424 1.33399,0.59279 1.18135,0.85701 0.97731,1.08415 0.72906,1.2641 0.45084,1.38838 0.1527,1.45168 -0.1527,1.45164 -0.45084,1.38836 -0.72906,1.26415 -0.97731,1.08412 -1.18135,0.85845 -1.33399,0.59278 -1.42802,0.30424 z"
       style="fill:none;stroke:#000000"
       id="path260"
       inkscape:connector-curvature="0" />
    <path
       d="m 583.9975,951.56609 -1.43074,-0.30424 -1.33258,-0.59278 -1.18133,-0.85845 -0.97731,-1.08412 -0.72907,-1.26415 -0.4537,-1.38836 -0.15118,-1.45164 0.15118,-1.45168 0.4537,-1.38838 0.72907,-1.2641 0.97731,-1.08415 1.18133,-0.85701 1.33258,-0.59279 1.43074,-0.30424 h 1.45709 l 1.43063,0.30424 1.33254,0.59279 1.18137,0.85701 0.97731,1.08415 0.72907,1.2641 0.45226,1.38838 0.15118,1.45168 -0.15118,1.45164 -0.45226,1.38836 -0.72907,1.26415 -0.97731,1.08412 -1.18137,0.85845 -1.33254,0.59278 -1.43063,0.30424 z"
       style="fill:none;stroke:#000000"
       id="path262"
       inkscape:connector-curvature="0" />
    <path
       d="M 3120.0662,895.23903 H 1571.2069 v 226.78067 h 1548.8593 z"
       style="fill:none;stroke:#000000"
       id="path264"
       inkscape:connector-curvature="0" />
    <path
       d="m 2182.0192,956.48828 -1.4307,-0.30123 -1.3325,-0.58969 -1.1814,-0.8524 -0.9774,-1.07651 -0.729,-1.25504 -0.4523,-1.37778 -0.1512,-1.44178 0.1512,-1.44163 0.4523,-1.37778 0.729,-1.25504 0.9774,-1.07655 1.1814,-0.85092 1.3325,-0.58969 1.4307,-0.30123 h 1.4572 l 1.4306,0.30123 1.3326,0.58969 1.1813,0.85092 0.9774,1.07655 0.729,1.25504 0.4523,1.37778 0.1512,1.44163 -0.1512,1.44178 -0.4523,1.37778 -0.729,1.25504 -0.9774,1.07651 -1.1813,0.8524 -1.3326,0.58969 -1.4306,0.30123 z"
       style="fill:none;stroke:#000000"
       id="path266"
       inkscape:connector-curvature="0" />
    <path
       d="m 1804.5234,956.48828 -1.428,-0.30123 -1.334,-0.58969 -1.1814,-0.8524 -0.9773,-1.07651 -0.7305,-1.25504 -0.4509,-1.37778 -0.1527,-1.44178 0.1527,-1.44163 0.4509,-1.37778 0.7305,-1.25504 0.9773,-1.07655 1.1814,-0.85092 1.334,-0.58969 1.428,-0.30123 h 1.4601 l 1.4281,0.30123 1.334,0.58969 1.1813,0.85092 0.9774,1.07655 0.729,1.25504 0.4523,1.37778 0.1527,1.44163 -0.1527,1.44178 -0.4523,1.37778 -0.729,1.25504 -0.9774,1.07651 -1.1813,0.8524 -1.334,0.58969 -1.4281,0.30123 z"
       style="fill:none;stroke:#000000"
       id="path268"
       inkscape:connector-curvature="0" />
    <path
       d="m 2446.2652,956.48828 -1.4307,-0.30123 -1.3326,-0.58969 -1.1813,-0.8524 -0.9774,-1.07651 -0.729,-1.25504 -0.4523,-1.37778 -0.1512,-1.44178 0.1512,-1.44163 0.4523,-1.37778 0.729,-1.25504 0.9774,-1.07655 1.1813,-0.85092 1.3326,-0.58969 1.4307,-0.30123 h 1.4572 l 1.4307,0.30123 1.3326,0.58969 1.1814,0.85092 0.9773,1.07655 0.729,1.25504 0.4523,1.37778 0.1512,1.44163 -0.1512,1.44178 -0.4523,1.37778 -0.729,1.25504 -0.9773,1.07651 -1.1814,0.8524 -1.3326,0.58969 -1.4307,0.30123 z"
       style="fill:none;stroke:#000000"
       id="path270"
       inkscape:connector-curvature="0" />
    <path
       d="m 2635.0125,956.48828 -1.4308,-0.30123 -1.3325,-0.58969 -1.1814,-0.8524 -0.9774,-1.07651 -0.729,-1.25504 -0.4537,-1.37778 -0.1512,-1.44178 0.1512,-1.44163 0.4537,-1.37778 0.729,-1.25504 0.9774,-1.07655 1.1814,-0.85092 1.3325,-0.58969 1.4308,-0.30123 h 1.4571 l 1.4306,0.30123 1.3326,0.58969 1.1813,0.85092 0.9774,1.07655 0.7291,1.25504 0.4537,1.37778 0.1511,1.44163 -0.1511,1.44178 -0.4537,1.37778 -0.7291,1.25504 -0.9774,1.07651 -1.1813,0.8524 -1.3326,0.58969 -1.4306,0.30123 z"
       style="fill:none;stroke:#000000"
       id="path272"
       inkscape:connector-curvature="0" />
    <path
       d="m 1993.2721,956.48828 -1.4308,-0.30123 -1.3326,-0.58969 -1.1813,-0.8524 -0.9774,-1.07651 -0.729,-1.25504 -0.4537,-1.37778 -0.1512,-1.44178 0.1512,-1.44163 0.4537,-1.37778 0.729,-1.25504 0.9774,-1.07655 1.1813,-0.85092 1.3326,-0.58969 1.4308,-0.30123 h 1.4571 l 1.4307,0.30123 1.3326,0.58969 1.1813,0.85092 0.9774,1.07655 0.7291,1.25504 0.4523,1.37778 0.1511,1.44163 -0.1511,1.44178 -0.4523,1.37778 -0.7291,1.25504 -0.9774,1.07651 -1.1813,0.8524 -1.3326,0.58969 -1.4307,0.30123 z"
       style="fill:none;stroke:#000000"
       id="path274"
       inkscape:connector-curvature="0" />
    <path
       d="m 2823.7596,956.48828 -1.4306,-0.30123 -1.3327,-0.58969 -1.1813,-0.8524 -0.9773,-1.07651 -0.7291,-1.25504 -0.4523,-1.37778 -0.1511,-1.44178 0.1511,-1.44163 0.4523,-1.37778 0.7291,-1.25504 0.9773,-1.07655 1.1813,-0.85092 1.3327,-0.58969 1.4306,-0.30123 h 1.4571 l 1.4307,0.30123 1.3326,0.58969 1.1814,0.85092 0.9773,1.07655 0.729,1.25504 0.4523,1.37778 0.1512,1.44163 -0.1512,1.44178 -0.4523,1.37778 -0.729,1.25504 -0.9773,1.07651 -1.1814,0.8524 -1.3326,0.58969 -1.4307,0.30123 z"
       style="fill:none;stroke:#000000"
       id="path276"
       inkscape:connector-curvature="0" />
    <path
       d="m 2458.3187,1058.2962 v -86.21416 h 362.3946 v 86.21416 z"
       style="fill:none;stroke:#000000"
       id="path278"
       inkscape:connector-curvature="0" />
    <path
       d="m 1816.5783,1058.2962 v -86.21416 h 362.3946 v 86.21416 z"
       style="fill:none;stroke:#000000"
       id="path280"
       inkscape:connector-curvature="0" />
    <path
       d="m 2823.7596,1087.6836 -1.4306,-0.3012 -1.3327,-0.5897 -1.1813,-0.8509 -0.9773,-1.0766 -0.7291,-1.255 -0.4523,-1.3778 -0.1511,-1.4416 0.1511,-1.4417 0.4523,-1.3792 0.7291,-1.255 0.9773,-1.0765 1.1813,-0.851 1.3327,-0.5897 1.4306,-0.3012 h 1.4571 l 1.4307,0.3012 1.3326,0.5897 1.1814,0.851 0.9773,1.0765 0.729,1.255 0.4523,1.3792 0.1512,1.4417 -0.1512,1.4416 -0.4523,1.3778 -0.729,1.255 -0.9773,1.0766 -1.1814,0.8509 -1.3326,0.5897 -1.4307,0.3012 z"
       style="fill:none;stroke:#000000"
       id="path282"
       inkscape:connector-curvature="0" />
    <path
       d="m 2446.2652,1087.6836 -1.4307,-0.3012 -1.3326,-0.5897 -1.1813,-0.8509 -0.9774,-1.0766 -0.729,-1.255 -0.4523,-1.3778 -0.1512,-1.4416 0.1512,-1.4417 0.4523,-1.3792 0.729,-1.255 0.9774,-1.0765 1.1813,-0.851 1.3326,-0.5897 1.4307,-0.3012 h 1.4572 l 1.4307,0.3012 1.3326,0.5897 1.1814,0.851 0.9773,1.0765 0.729,1.255 0.4523,1.3792 0.1512,1.4417 -0.1512,1.4416 -0.4523,1.3778 -0.729,1.255 -0.9773,1.0766 -1.1814,0.8509 -1.3326,0.5897 -1.4307,0.3012 z"
       style="fill:none;stroke:#000000"
       id="path284"
       inkscape:connector-curvature="0" />
    <path
       d="m 1804.5234,1087.6836 -1.428,-0.3012 -1.334,-0.5897 -1.1814,-0.8509 -0.9773,-1.0766 -0.7305,-1.255 -0.4509,-1.3778 -0.1527,-1.4416 0.1527,-1.4417 0.4509,-1.3792 0.7305,-1.255 0.9773,-1.0765 1.1814,-0.851 1.334,-0.5897 1.428,-0.3012 h 1.4601 l 1.4281,0.3012 1.334,0.5897 1.1813,0.851 0.9774,1.0765 0.729,1.255 0.4523,1.3792 0.1527,1.4417 -0.1527,1.4416 -0.4523,1.3778 -0.729,1.255 -0.9774,1.0766 -1.1813,0.8509 -1.334,0.5897 -1.4281,0.3012 z"
       style="fill:none;stroke:#000000"
       id="path286"
       inkscape:connector-curvature="0" />
    <path
       d="m 2182.0192,1087.6836 -1.4307,-0.3012 -1.3325,-0.5897 -1.1814,-0.8509 -0.9774,-1.0766 -0.729,-1.255 -0.4523,-1.3778 -0.1512,-1.4416 0.1512,-1.4417 0.4523,-1.3792 0.729,-1.255 0.9774,-1.0765 1.1814,-0.851 1.3325,-0.5897 1.4307,-0.3012 h 1.4572 l 1.4306,0.3012 1.3326,0.5897 1.1813,0.851 0.9774,1.0765 0.729,1.255 0.4523,1.3792 0.1512,1.4417 -0.1512,1.4416 -0.4523,1.3778 -0.729,1.255 -0.9774,1.0766 -1.1813,0.8509 -1.3326,0.5897 -1.4306,0.3012 z"
       style="fill:none;stroke:#000000"
       id="path288"
       inkscape:connector-curvature="0" />
    <path
       d="m 2635.0125,1087.6836 -1.4308,-0.3012 -1.3325,-0.5897 -1.1814,-0.8509 -0.9774,-1.0766 -0.729,-1.255 -0.4537,-1.3778 -0.1512,-1.4416 0.1512,-1.4417 0.4537,-1.3792 0.729,-1.255 0.9774,-1.0765 1.1814,-0.851 1.3325,-0.5897 1.4308,-0.3012 h 1.4571 l 1.4306,0.3012 1.3326,0.5897 1.1813,0.851 0.9774,1.0765 0.7291,1.255 0.4537,1.3792 0.1511,1.4417 -0.1511,1.4416 -0.4537,1.3778 -0.7291,1.255 -0.9774,1.0766 -1.1813,0.8509 -1.3326,0.5897 -1.4306,0.3012 z"
       style="fill:none;stroke:#000000"
       id="path290"
       inkscape:connector-curvature="0" />
    <path
       d="m 1993.2721,1087.6836 -1.4308,-0.3012 -1.3326,-0.5897 -1.1813,-0.8509 -0.9774,-1.0766 -0.729,-1.255 -0.4537,-1.3778 -0.1512,-1.4416 0.1512,-1.4417 0.4537,-1.3792 0.729,-1.255 0.9774,-1.0765 1.1813,-0.851 1.3326,-0.5897 1.4308,-0.3012 h 1.4571 l 1.4307,0.3012 1.3326,0.5897 1.1813,0.851 0.9774,1.0765 0.7291,1.255 0.4523,1.3792 0.1511,1.4417 -0.1511,1.4416 -0.4523,1.3778 -0.7291,1.255 -0.9774,1.0766 -1.1813,0.8509 -1.3326,0.5897 -1.4307,0.3012 z"
       style="fill:none;stroke:#000000"
       id="path292"
       inkscape:connector-curvature="0" />
    <path
       d="M 3123.751,656.39832 H 1574.8916 V 883.17903 H 3123.751 Z"
       style="fill:none;stroke:#000000"
       id="path294"
       inkscape:connector-curvature="0" />
    <path
       d="m 2823.6694,707.18079 -1.4307,-0.30121 -1.3327,-0.58957 -1.1813,-0.85225 -0.9773,-1.07637 -0.7291,-1.25481 -0.4523,-1.3776 -0.1511,-1.44124 0.1511,-1.44151 0.4523,-1.37756 0.7291,-1.25484 0.9773,-1.07635 1.1813,-0.85084 1.3327,-0.58956 1.4307,-0.30124 h 1.457 l 1.4307,0.30124 1.3326,0.58956 1.1814,0.85084 0.9773,1.07635 0.7291,1.25484 0.4523,1.37756 0.1511,1.44151 -0.1511,1.44124 -0.4523,1.3776 -0.7291,1.25481 -0.9773,1.07637 -1.1814,0.85225 -1.3326,0.58957 -1.4307,0.30121 z"
       style="fill:none;stroke:#000000"
       id="path296"
       inkscape:connector-curvature="0" />
    <path
       d="m 2634.9221,707.18079 -1.4307,-0.30121 -1.3326,-0.58957 -1.1813,-0.85225 -0.9774,-1.07637 -0.729,-1.25481 -0.4523,-1.3776 -0.1512,-1.44124 0.1512,-1.44151 0.4523,-1.37756 0.729,-1.25484 0.9774,-1.07635 1.1813,-0.85084 1.3326,-0.58956 1.4307,-0.30124 h 1.4572 l 1.4306,0.30124 1.3326,0.58956 1.1813,0.85084 0.9774,1.07635 0.729,1.25484 0.4523,1.37756 0.1512,1.44151 -0.1512,1.44124 -0.4523,1.3776 -0.729,1.25481 -0.9774,1.07637 -1.1813,0.85225 -1.3326,0.58957 -1.4306,0.30121 z"
       style="fill:none;stroke:#000000"
       id="path298"
       inkscape:connector-curvature="0" />
    <path
       d="m 2446.175,707.18079 -1.4308,-0.30121 -1.3326,-0.58957 -1.1813,-0.85225 -0.9773,-1.07637 -0.7291,-1.25481 -0.4537,-1.3776 -0.1512,-1.44124 0.1512,-1.44151 0.4537,-1.37756 0.7291,-1.25484 0.9773,-1.07635 1.1813,-0.85084 1.3326,-0.58956 1.4308,-0.30124 h 1.4571 l 1.4308,0.30124 1.3325,0.58956 1.1814,0.85084 0.9773,1.07635 0.7291,1.25484 0.4537,1.37756 0.1512,1.44151 -0.1512,1.44124 -0.4537,1.3776 -0.7291,1.25481 -0.9773,1.07637 -1.1814,0.85225 -1.3325,0.58957 -1.4308,0.30121 z"
       style="fill:none;stroke:#000000"
       id="path300"
       inkscape:connector-curvature="0" />
    <path
       d="m 1800.6582,725.1704 -1.4282,-0.30122 -1.334,-0.58957 -1.1814,-0.85224 -0.9773,-1.07638 -0.7305,-1.2548 -0.4509,-1.37756 -0.1526,-1.44125 0.1526,-1.44156 0.4509,-1.37755 0.7305,-1.2548 0.9773,-1.07637 1.1814,-0.85081 1.334,-0.58957 1.4282,-0.30123 h 1.4601 l 1.428,0.30123 1.334,0.58957 1.1814,0.85081 0.9773,1.07637 0.7291,1.2548 0.4508,1.37755 0.1527,1.44156 -0.1527,1.44125 -0.4508,1.37756 -0.7291,1.2548 -0.9773,1.07638 -1.1814,0.85224 -1.334,0.58957 -1.428,0.30122 z"
       style="fill:none;stroke:#000000"
       id="path302"
       inkscape:connector-curvature="0" />
    <path
       d="m 1992.4268,725.1704 -1.4307,-0.30122 -1.3326,-0.58957 -1.1813,-0.85224 -0.9774,-1.07638 -0.7291,-1.2548 -0.4536,-1.37756 -0.1512,-1.44125 0.1512,-1.44156 0.4536,-1.37755 0.7291,-1.2548 0.9774,-1.07637 1.1813,-0.85081 1.3326,-0.58957 1.4307,-0.30123 h 1.457 l 1.4308,0.30123 1.3326,0.58957 1.1813,0.85081 0.9773,1.07637 0.7291,1.2548 0.4537,1.37755 0.1512,1.44156 -0.1512,1.44125 -0.4537,1.37756 -0.7291,1.2548 -0.9773,1.07638 -1.1813,0.85224 -1.3326,0.58957 -1.4308,0.30122 z"
       style="fill:none;stroke:#000000"
       id="path304"
       inkscape:connector-curvature="0" />
    <path
       d="m 2458.2284,808.97224 v -86.19998 h 362.3946 v 86.19998 z"
       style="fill:none;stroke:#000000"
       id="path306"
       inkscape:connector-curvature="0" />
    <path
       d="m 1782.5135,806.34884 v -67.4609 h 218.9467 v 67.4609 z"
       style="fill:none;stroke:#000000"
       id="path308"
       inkscape:connector-curvature="0" />
    <path
       d="m 1992.4268,837.60514 -1.4307,-0.30121 -1.3326,-0.58959 -1.1813,-0.85231 -0.9774,-1.0763 -0.7291,-1.2548 -0.4536,-1.3776 -0.1512,-1.44119 0.1512,-1.44161 0.4536,-1.3776 0.7291,-1.2548 0.9774,-1.0763 1.1813,-0.85079 1.3326,-0.58961 1.4307,-0.30119 h 1.457 l 1.4308,0.30119 1.3326,0.58961 1.1813,0.85079 0.9773,1.0763 0.7291,1.2548 0.4537,1.3776 0.1512,1.44161 -0.1512,1.44119 -0.4537,1.3776 -0.7291,1.2548 -0.9773,1.0763 -1.1813,0.85231 -1.3326,0.58959 -1.4308,0.30121 z"
       style="fill:none;stroke:#000000"
       id="path310"
       inkscape:connector-curvature="0" />
    <path
       d="m 1800.6582,837.60514 -1.4282,-0.30121 -1.334,-0.58959 -1.1814,-0.85231 -0.9773,-1.0763 -0.7305,-1.2548 -0.4509,-1.3776 -0.1526,-1.44119 0.1526,-1.44161 0.4509,-1.3776 0.7305,-1.2548 0.9773,-1.0763 1.1814,-0.85079 1.334,-0.58961 1.4282,-0.30119 h 1.4601 l 1.428,0.30119 1.334,0.58961 1.1814,0.85079 0.9773,1.0763 0.7291,1.2548 0.4508,1.3776 0.1527,1.44161 -0.1527,1.44119 -0.4508,1.3776 -0.7291,1.2548 -0.9773,1.0763 -1.1814,0.85231 -1.334,0.58959 -1.428,0.30121 z"
       style="fill:none;stroke:#000000"
       id="path312"
       inkscape:connector-curvature="0" />
    <path
       d="m 2823.6694,838.35453 -1.4307,-0.3012 -1.3327,-0.58959 -1.1813,-0.8522 -0.9773,-1.07641 -0.7291,-1.25479 -0.4523,-1.379 -0.1511,-1.4413 0.1511,-1.4413 0.4523,-1.37901 0.7291,-1.25489 0.9773,-1.0763 1.1813,-0.8509 1.3327,-0.5895 1.4307,-0.3013 h 1.457 l 1.4307,0.3013 1.3326,0.5895 1.1814,0.8509 0.9773,1.0763 0.7291,1.25489 0.4523,1.37901 0.1511,1.4413 -0.1511,1.4413 -0.4523,1.379 -0.7291,1.25479 -0.9773,1.07641 -1.1814,0.8522 -1.3326,0.58959 -1.4307,0.3012 z"
       style="fill:none;stroke:#000000"
       id="path314"
       inkscape:connector-curvature="0" />
    <path
       d="m 2634.9221,838.35453 -1.4307,-0.3012 -1.3326,-0.58959 -1.1813,-0.8522 -0.9774,-1.07641 -0.729,-1.25479 -0.4523,-1.379 -0.1512,-1.4413 0.1512,-1.4413 0.4523,-1.37901 0.729,-1.25489 0.9774,-1.0763 1.1813,-0.8509 1.3326,-0.5895 1.4307,-0.3013 h 1.4572 l 1.4306,0.3013 1.3326,0.5895 1.1813,0.8509 0.9774,1.0763 0.729,1.25489 0.4523,1.37901 0.1512,1.4413 -0.1512,1.4413 -0.4523,1.379 -0.729,1.25479 -0.9774,1.07641 -1.1813,0.8522 -1.3326,0.58959 -1.4306,0.3012 z"
       style="fill:none;stroke:#000000"
       id="path316"
       inkscape:connector-curvature="0" />
    <path
       d="m 2446.175,838.35453 -1.4308,-0.3012 -1.3326,-0.58959 -1.1813,-0.8522 -0.9773,-1.07641 -0.7291,-1.25479 -0.4537,-1.379 -0.1512,-1.4413 0.1512,-1.4413 0.4537,-1.37901 0.7291,-1.25489 0.9773,-1.0763 1.1813,-0.8509 1.3326,-0.5895 1.4308,-0.3013 h 1.4571 l 1.4308,0.3013 1.3325,0.5895 1.1814,0.8509 0.9773,1.0763 0.7291,1.25489 0.4537,1.37901 0.1512,1.4413 -0.1512,1.4413 -0.4537,1.379 -0.7291,1.25479 -0.9773,1.07641 -1.1814,0.8522 -1.3325,0.58959 -1.4308,0.3012 z"
       style="fill:none;stroke:#000000"
       id="path318"
       inkscape:connector-curvature="0" />
    <path
       d="M 4536.7954,886.10641 H 3137.4515 v 235.47219 h 1399.3439 z"
       style="fill:none;stroke:#000000"
       id="path320"
       inkscape:connector-curvature="0" />
    <path
       d="m 3215.3171,945.45542 -2.0733,-0.4371 -1.9368,-0.85508 -1.7147,-1.23564 -1.4186,-1.56246 -1.06,-1.82037 -0.6558,-1.99956 -0.2215,-2.09065 0.2215,-2.09068 0.6558,-1.99956 1.06,-1.82037 1.4186,-1.56249 1.7147,-1.23561 1.9368,-0.85508 2.0733,-0.4371 h 2.1198 l 2.0733,0.4371 1.9365,0.85508 1.7149,1.23561 1.4186,1.56249 1.0601,1.82037 0.6558,1.99956 0.2215,2.09068 -0.2215,2.09065 -0.6558,1.99956 -1.0601,1.82037 -1.4186,1.56246 -1.7149,1.23564 -1.9365,0.85508 -2.0733,0.4371 z"
       style="fill:none;stroke:#000000"
       id="path322"
       inkscape:connector-curvature="0" />
    <path
       d="m 3270.3385,1066.4016 -14.5256,-3.062 -13.5659,-5.9901 -12.0139,-8.6565 -9.9366,-10.9444 -7.4247,-12.7543 -4.5892,-14.0064 -1.5521,-14.64658 1.5521,-14.64662 4.5892,-14.00636 7.4247,-12.75428 9.9366,-10.94438 12.0139,-8.65617 13.5659,-5.9901 14.5256,-3.06195 h 14.8501 l 14.5251,3.06195 13.5663,5.9901 12.0139,8.65617 9.9363,10.94438 7.425,12.75428 4.5888,14.00636 1.5524,14.64662 -1.5524,14.64658 -4.5888,14.0064 -7.425,12.7543 -9.9363,10.9444 -12.0139,8.6565 -13.5663,5.9901 -14.5251,3.062 z"
       style="fill:none;stroke:#000000"
       id="path324"
       inkscape:connector-curvature="0" />
    <path
       d="m 3341.6054,949.20415 -2.0732,-0.43711 -1.9368,-0.85508 -1.7147,-1.23564 -1.4186,-1.56245 -1.0601,-1.82038 -0.6543,-1.99955 -0.2215,-2.09069 0.2215,-2.09064 0.6543,-1.99956 1.0601,-1.82041 1.4186,-1.56246 1.7147,-1.23564 1.9368,-0.85504 2.0732,-0.4371 h 2.1199 l 2.0732,0.4371 1.9366,0.85504 1.7149,1.23564 1.4186,1.56246 1.0601,1.82041 0.6543,1.99956 0.2215,2.09064 -0.2215,2.09069 -0.6543,1.99955 -1.0601,1.82038 -1.4186,1.56245 -1.7149,1.23564 -1.9366,0.85508 -2.0732,0.43711 z"
       style="fill:none;stroke:#000000"
       id="path326"
       inkscape:connector-curvature="0" />
    <path
       d="m 3673.4758,956.0347 -1.4326,-0.30123 -1.3344,-0.58972 -1.1829,-0.85251 -0.9786,-1.07732 -0.7301,-1.25548 -0.4543,-1.37907 -0.1515,-1.44178 0.1515,-1.44174 0.4543,-1.37911 0.7301,-1.25549 0.9786,-1.07731 1.1829,-0.8521 1.3344,-0.58968 1.4326,-0.3016 h 1.4591 l 1.4326,0.3016 1.3344,0.58968 1.1829,0.8521 0.9786,1.07731 0.7301,1.25549 0.4528,1.37911 0.1516,1.44174 -0.1516,1.44178 -0.4528,1.37907 -0.7301,1.25548 -0.9786,1.07732 -1.1829,0.85251 -1.3344,0.58972 -1.4326,0.30123 z"
       style="fill:none;stroke:#000000"
       id="path328"
       inkscape:connector-curvature="0" />
    <path
       d="m 4013.6729,956.0347 -1.4328,-0.30123 -1.3342,-0.58972 -1.183,-0.85251 -0.9785,-1.07732 -0.7302,-1.25548 -0.4543,-1.37907 -0.1512,-1.44178 0.1512,-1.44174 0.4543,-1.37911 0.7302,-1.25549 0.9785,-1.07731 1.183,-0.8521 1.3342,-0.58968 1.4328,-0.3016 h 1.4589 l 1.4328,0.3016 1.3342,0.58968 1.183,0.8521 0.9785,1.07731 0.7302,1.25549 0.4528,1.37911 0.1512,1.44174 -0.1512,1.44178 -0.4528,1.37907 -0.7302,1.25548 -0.9785,1.07732 -1.183,0.85251 -1.3342,0.58972 -1.4328,0.30123 z"
       style="fill:none;stroke:#000000"
       id="path330"
       inkscape:connector-curvature="0" />
    <path
       d="m 4202.672,956.0347 -1.4328,-0.30123 -1.3346,-0.58972 -1.183,-0.85251 -0.9785,-1.07732 -0.7298,-1.25548 -0.4532,-1.37907 -0.1512,-1.44178 0.1512,-1.44174 0.4532,-1.37911 0.7298,-1.25549 0.9785,-1.07731 1.183,-0.8521 1.3346,-0.58968 1.4328,-0.3016 h 1.4589 l 1.4324,0.3016 1.3346,0.58968 1.1826,0.8521 0.9789,1.07731 0.7298,1.25549 0.4528,1.37911 0.1512,1.44174 -0.1512,1.44178 -0.4528,1.37907 -0.7298,1.25548 -0.9789,1.07732 -1.1826,0.85251 -1.3346,0.58972 -1.4324,0.30123 z"
       style="fill:none;stroke:#000000"
       id="path332"
       inkscape:connector-curvature="0" />
    <path
       d="m 3862.4737,956.0347 -1.4328,-0.30123 -1.3342,-0.58972 -1.183,-0.85251 -0.9785,-1.07732 -0.7302,-1.25548 -0.4528,-1.37907 -0.1512,-1.44178 0.1512,-1.44174 0.4528,-1.37911 0.7302,-1.25549 0.9785,-1.07731 1.183,-0.8521 1.3342,-0.58968 1.4328,-0.3016 h 1.4593 l 1.4324,0.3016 1.3342,0.58968 1.183,0.8521 0.9785,1.07731 0.7302,1.25549 0.4528,1.37911 0.1512,1.44174 -0.1512,1.44178 -0.4528,1.37907 -0.7302,1.25548 -0.9785,1.07732 -1.183,0.85251 -1.3342,0.58972 -1.4324,0.30123 z"
       style="fill:none;stroke:#000000"
       id="path334"
       inkscape:connector-curvature="0" />
    <path
       d="m 3484.4765,956.0347 -1.4299,-0.30123 -1.3358,-0.58972 -1.1829,-0.85251 -0.9786,-1.07732 -0.7315,-1.25548 -0.4514,-1.37907 -0.1531,-1.44178 0.1531,-1.44174 0.4514,-1.37911 0.7315,-1.25549 0.9786,-1.07731 1.1829,-0.8521 1.3358,-0.58968 1.4299,-0.3016 h 1.4621 l 1.4299,0.3016 1.3358,0.58968 1.1829,0.8521 0.9786,1.07731 0.7301,1.25549 0.4529,1.37911 0.153,1.44174 -0.153,1.44178 -0.4529,1.37907 -0.7301,1.25548 -0.9786,1.07732 -1.1829,0.85251 -1.3358,0.58972 -1.4299,0.30123 z"
       style="fill:none;stroke:#000000"
       id="path336"
       inkscape:connector-curvature="0" />
    <path
       d="m 4391.671,956.0347 -1.432,-0.30123 -1.3346,-0.58972 -1.183,-0.85251 -0.9785,-1.07732 -0.7302,-1.25548 -0.4528,-1.37907 -0.1512,-1.44178 0.1512,-1.44174 0.4528,-1.37911 0.7302,-1.25549 0.9785,-1.07731 1.183,-0.8521 1.3346,-0.58968 1.432,-0.3016 h 1.4593 l 1.4324,0.3016 1.3346,0.58968 1.183,0.8521 0.9785,1.07731 0.7302,1.25549 0.4528,1.37911 0.1512,1.44174 -0.1512,1.44178 -0.4528,1.37907 -0.7302,1.25548 -0.9785,1.07732 -1.183,0.85251 -1.3346,0.58972 -1.4324,0.30123 z"
       style="fill:none;stroke:#000000"
       id="path338"
       inkscape:connector-curvature="0" />
    <path
       d="m 3496.5475,1057.8503 v -86.22055 h 362.8757 v 86.22055 z"
       style="fill:none;stroke:#000000"
       id="path340"
       inkscape:connector-curvature="0" />
    <path
       d="m 4025.7421,1057.8503 v -86.22055 h 362.8789 v 86.22055 z"
       style="fill:none;stroke:#000000"
       id="path342"
       inkscape:connector-curvature="0" />
    <path
       d="m 3215.3171,1068.9608 -2.0733,-0.4371 -1.9368,-0.8551 -1.7147,-1.2356 -1.4186,-1.5625 -1.06,-1.8203 -0.6558,-1.9996 -0.2215,-2.0907 0.2215,-2.0906 0.6558,-1.9996 1.06,-1.8204 1.4186,-1.5624 1.7147,-1.2357 1.9368,-0.8551 2.0733,-0.437 h 2.1198 l 2.0733,0.437 1.9365,0.8551 1.7149,1.2357 1.4186,1.5624 1.0601,1.8204 0.6558,1.9996 0.2215,2.0906 -0.2215,2.0907 -0.6558,1.9996 -1.0601,1.8203 -1.4186,1.5625 -1.7149,1.2356 -1.9365,0.8551 -2.0733,0.4371 z"
       style="fill:none;stroke:#000000"
       id="path344"
       inkscape:connector-curvature="0" />
    <path
       d="m 3341.6054,1068.9608 -2.0732,-0.4371 -1.9368,-0.8551 -1.7147,-1.2356 -1.4186,-1.5625 -1.0601,-1.8203 -0.6543,-1.9996 -0.2215,-2.0907 0.2215,-2.0906 0.6543,-1.9996 1.0601,-1.8204 1.4186,-1.5624 1.7147,-1.2357 1.9368,-0.8551 2.0732,-0.437 h 2.1199 l 2.0732,0.437 1.9366,0.8551 1.7149,1.2357 1.4186,1.5624 1.0601,1.8204 0.6543,1.9996 0.2215,2.0906 -0.2215,2.0907 -0.6543,1.9996 -1.0601,1.8203 -1.4186,1.5625 -1.7149,1.2356 -1.9366,0.8551 -2.0732,0.4371 z"
       style="fill:none;stroke:#000000"
       id="path346"
       inkscape:connector-curvature="0" />
    <path
       d="m 4391.671,1087.2398 -1.432,-0.3016 -1.3346,-0.5897 -1.183,-0.8522 -0.9785,-1.0773 -0.7302,-1.2555 -0.4528,-1.3791 -0.1512,-1.4418 0.1512,-1.4417 0.4528,-1.3791 0.7302,-1.2555 0.9785,-1.0773 1.183,-0.8521 1.3346,-0.5897 1.432,-0.3016 h 1.4593 l 1.4324,0.3016 1.3346,0.5897 1.183,0.8521 0.9785,1.0773 0.7302,1.2555 0.4528,1.3791 0.1512,1.4417 -0.1512,1.4418 -0.4528,1.3791 -0.7302,1.2555 -0.9785,1.0773 -1.183,0.8522 -1.3346,0.5897 -1.4324,0.3016 z"
       style="fill:none;stroke:#000000"
       id="path348"
       inkscape:connector-curvature="0" />
    <path
       d="m 4202.672,1087.2398 -1.4328,-0.3016 -1.3346,-0.5897 -1.183,-0.8522 -0.9785,-1.0773 -0.7298,-1.2555 -0.4532,-1.3791 -0.1512,-1.4418 0.1512,-1.4417 0.4532,-1.3791 0.7298,-1.2555 0.9785,-1.0773 1.183,-0.8521 1.3346,-0.5897 1.4328,-0.3016 h 1.4589 l 1.4324,0.3016 1.3346,0.5897 1.1826,0.8521 0.9789,1.0773 0.7298,1.2555 0.4528,1.3791 0.1512,1.4417 -0.1512,1.4418 -0.4528,1.3791 -0.7298,1.2555 -0.9789,1.0773 -1.1826,0.8522 -1.3346,0.5897 -1.4324,0.3016 z"
       style="fill:none;stroke:#000000"
       id="path350"
       inkscape:connector-curvature="0" />
    <path
       d="m 3673.4758,1087.2398 -1.4326,-0.3016 -1.3344,-0.5897 -1.1829,-0.8522 -0.9786,-1.0773 -0.7301,-1.2555 -0.4543,-1.3791 -0.1515,-1.4418 0.1515,-1.4417 0.4543,-1.3791 0.7301,-1.2555 0.9786,-1.0773 1.1829,-0.8521 1.3344,-0.5897 1.4326,-0.3016 h 1.4591 l 1.4326,0.3016 1.3344,0.5897 1.1829,0.8521 0.9786,1.0773 0.7301,1.2555 0.4528,1.3791 0.1516,1.4417 -0.1516,1.4418 -0.4528,1.3791 -0.7301,1.2555 -0.9786,1.0773 -1.1829,0.8522 -1.3344,0.5897 -1.4326,0.3016 z"
       style="fill:none;stroke:#000000"
       id="path352"
       inkscape:connector-curvature="0" />
    <path
       d="m 4013.6729,1087.2398 -1.4328,-0.3016 -1.3342,-0.5897 -1.183,-0.8522 -0.9785,-1.0773 -0.7302,-1.2555 -0.4543,-1.3791 -0.1512,-1.4418 0.1512,-1.4417 0.4543,-1.3791 0.7302,-1.2555 0.9785,-1.0773 1.183,-0.8521 1.3342,-0.5897 1.4328,-0.3016 h 1.4589 l 1.4328,0.3016 1.3342,0.5897 1.183,0.8521 0.9785,1.0773 0.7302,1.2555 0.4528,1.3791 0.1512,1.4417 -0.1512,1.4418 -0.4528,1.3791 -0.7302,1.2555 -0.9785,1.0773 -1.183,0.8522 -1.3342,0.5897 -1.4328,0.3016 z"
       style="fill:none;stroke:#000000"
       id="path354"
       inkscape:connector-curvature="0" />
    <path
       d="m 3862.4737,1087.2398 -1.4328,-0.3016 -1.3342,-0.5897 -1.183,-0.8522 -0.9785,-1.0773 -0.7302,-1.2555 -0.4528,-1.3791 -0.1512,-1.4418 0.1512,-1.4417 0.4528,-1.3791 0.7302,-1.2555 0.9785,-1.0773 1.183,-0.8521 1.3342,-0.5897 1.4328,-0.3016 h 1.4593 l 1.4324,0.3016 1.3342,0.5897 1.183,0.8521 0.9785,1.0773 0.7302,1.2555 0.4528,1.3791 0.1512,1.4417 -0.1512,1.4418 -0.4528,1.3791 -0.7302,1.2555 -0.9785,1.0773 -1.183,0.8522 -1.3342,0.5897 -1.4324,0.3016 z"
       style="fill:none;stroke:#000000"
       id="path356"
       inkscape:connector-curvature="0" />
    <path
       d="m 3484.4765,1087.2398 -1.4299,-0.3016 -1.3358,-0.5897 -1.1829,-0.8522 -0.9786,-1.0773 -0.7315,-1.2555 -0.4514,-1.3791 -0.1531,-1.4418 0.1531,-1.4417 0.4514,-1.3791 0.7315,-1.2555 0.9786,-1.0773 1.1829,-0.8521 1.3358,-0.5897 1.4299,-0.3016 h 1.4621 l 1.4299,0.3016 1.3358,0.5897 1.1829,0.8521 0.9786,1.0773 0.7301,1.2555 0.4529,1.3791 0.153,1.4417 -0.153,1.4418 -0.4529,1.3791 -0.7301,1.2555 -0.9786,1.0773 -1.1829,0.8522 -1.3358,0.5897 -1.4299,0.3016 z"
       style="fill:none;stroke:#000000"
       id="path358"
       inkscape:connector-curvature="0" />
    <path
       d="M 4544.8043,636.92321 H 3145.4652 v 235.47334 h 1399.3391 z"
       style="fill:none;stroke:#000000"
       id="path360"
       inkscape:connector-curvature="0" />
    <path
       d="m 3718.4537,706.8148 -1.4304,-0.30122 -1.3325,-0.58969 -1.1811,-0.85383 -0.9772,-1.07656 -0.729,-1.25503 -0.4522,-1.37926 -0.1512,-1.44197 0.1512,-1.44208 0.4522,-1.37922 0.729,-1.25507 0.9772,-1.07656 1.1811,-0.8524 1.3325,-0.58968 1.4304,-0.30123 h 1.457 l 1.4305,0.30123 1.3324,0.58968 1.1812,0.8524 0.9772,1.07656 0.729,1.25507 0.4522,1.37922 0.1512,1.44208 -0.1512,1.44197 -0.4522,1.37926 -0.729,1.25503 -0.9772,1.07656 -1.1812,0.85383 -1.3324,0.58969 -1.4305,0.30122 z"
       style="fill:none;stroke:#000000"
       id="path362"
       inkscape:connector-curvature="0" />
    <path
       d="m 3341.007,706.8148 -1.428,-0.30122 -1.3339,-0.58969 -1.1812,-0.85383 -0.9772,-1.07656 -0.7304,-1.25503 -0.4508,-1.37926 -0.1527,-1.44197 0.1527,-1.44208 0.4508,-1.37922 0.7304,-1.25507 0.9772,-1.07656 1.1812,-0.8524 1.3339,-0.58968 1.428,-0.30123 h 1.4599 l 1.4279,0.30123 1.3338,0.58968 1.1812,0.8524 0.9772,1.07656 0.729,1.25507 0.4507,1.37922 0.1527,1.44208 -0.1527,1.44197 -0.4507,1.37926 -0.729,1.25503 -0.9772,1.07656 -1.1812,0.85383 -1.3338,0.58969 -1.4279,0.30122 z"
       style="fill:none;stroke:#000000"
       id="path364"
       inkscape:connector-curvature="0" />
    <path
       d="m 3952.468,706.8148 -1.4305,-0.30122 -1.3327,-0.58969 -1.1807,-0.85383 -0.9774,-1.07656 -0.7291,-1.25503 -0.4524,-1.37926 -0.1512,-1.44197 0.1512,-1.44208 0.4524,-1.37922 0.7291,-1.25507 0.9774,-1.07656 1.1807,-0.8524 1.3327,-0.58968 1.4305,-0.30123 h 1.4566 l 1.431,0.30123 1.3323,0.58968 1.1811,0.8524 0.9773,1.07656 0.7287,1.25507 0.4524,1.37922 0.1512,1.44208 -0.1512,1.44197 -0.4524,1.37926 -0.7287,1.25503 -0.9773,1.07656 -1.1811,0.85383 -1.3323,0.58969 -1.431,0.30122 z"
       style="fill:none;stroke:#000000"
       id="path366"
       inkscape:connector-curvature="0" />
    <path
       d="m 4141.1908,706.8148 -1.4309,-0.30122 -1.332,-0.58969 -1.1814,-0.85383 -0.9774,-1.07656 -0.7287,-1.25503 -0.452,-1.37926 -0.1512,-1.44197 0.1512,-1.44208 0.452,-1.37922 0.7287,-1.25507 0.9774,-1.07656 1.1814,-0.8524 1.332,-0.58968 1.4309,-0.30123 h 1.4566 l 1.4306,0.30123 1.3326,0.58968 1.1811,0.8524 0.977,1.07656 0.7291,1.25507 0.4524,1.37922 0.1512,1.44208 -0.1512,1.44197 -0.4524,1.37926 -0.7291,1.25503 -0.977,1.07656 -1.1811,0.85383 -1.3326,0.58969 -1.4306,0.30122 z"
       style="fill:none;stroke:#000000"
       id="path368"
       inkscape:connector-curvature="0" />
    <path
       d="m 3529.7311,706.8148 -1.4305,-0.30122 -1.3324,-0.58969 -1.1813,-0.85383 -0.9772,-1.07656 -0.7289,-1.25503 -0.4522,-1.37926 -0.1512,-1.44197 0.1512,-1.44208 0.4522,-1.37922 0.7289,-1.25507 0.9772,-1.07656 1.1813,-0.8524 1.3324,-0.58968 1.4305,-0.30123 h 1.457 l 1.4304,0.30123 1.3324,0.58968 1.1812,0.8524 0.9772,1.07656 0.729,1.25507 0.4522,1.37922 0.1512,1.44208 -0.1512,1.44197 -0.4522,1.37926 -0.729,1.25503 -0.9772,1.07656 -1.1812,0.85383 -1.3324,0.58969 -1.4304,0.30122 z"
       style="fill:none;stroke:#000000"
       id="path370"
       inkscape:connector-curvature="0" />
    <path
       d="m 4329.9132,706.8148 -1.4302,-0.30122 -1.3327,-0.58969 -1.1811,-0.85383 -0.977,-1.07656 -0.729,-1.25503 -0.4521,-1.37926 -0.1512,-1.44197 0.1512,-1.44208 0.4521,-1.37922 0.729,-1.25507 0.977,-1.07656 1.1811,-0.8524 1.3327,-0.58968 1.4302,-0.30123 h 1.457 l 1.4305,0.30123 1.3327,0.58968 1.1811,0.8524 0.977,1.07656 0.7291,1.25507 0.4535,1.37922 0.1512,1.44208 -0.1512,1.44197 -0.4535,1.37926 -0.7291,1.25503 -0.977,1.07656 -1.1811,0.85383 -1.3327,0.58969 -1.4305,0.30122 z"
       style="fill:none;stroke:#000000"
       id="path372"
       inkscape:connector-curvature="0" />
    <path
       d="m 3964.5198,808.65364 v -86.24008 h 362.3475 v 86.24008 z"
       style="fill:none;stroke:#000000"
       id="path374"
       inkscape:connector-curvature="0" />
    <path
       d="m 3353.0603,808.65364 v -86.24008 h 362.3475 v 86.24008 z"
       style="fill:none;stroke:#000000"
       id="path376"
       inkscape:connector-curvature="0" />
    <path
       d="m 4329.9132,838.04987 -1.4302,-0.30123 -1.3327,-0.58968 -1.1811,-0.85097 -0.977,-1.07659 -0.729,-1.25503 -0.4521,-1.37927 -0.1512,-1.44207 0.1512,-1.44208 0.4521,-1.37927 0.729,-1.25503 0.977,-1.07799 1.1811,-0.8524 1.3327,-0.58968 1.4302,-0.30123 h 1.457 l 1.4305,0.30123 1.3327,0.58968 1.1811,0.8524 0.977,1.07799 0.7291,1.25503 0.4535,1.37927 0.1512,1.44208 -0.1512,1.44207 -0.4535,1.37927 -0.7291,1.25503 -0.977,1.07659 -1.1811,0.85097 -1.3327,0.58968 -1.4305,0.30123 z"
       style="fill:none;stroke:#000000"
       id="path378"
       inkscape:connector-curvature="0" />
    <path
       d="m 3952.468,838.04987 -1.4305,-0.30123 -1.3327,-0.58968 -1.1807,-0.85097 -0.9774,-1.07659 -0.7291,-1.25503 -0.4524,-1.37927 -0.1512,-1.44207 0.1512,-1.44208 0.4524,-1.37927 0.7291,-1.25503 0.9774,-1.07799 1.1807,-0.8524 1.3327,-0.58968 1.4305,-0.30123 h 1.4566 l 1.431,0.30123 1.3323,0.58968 1.1811,0.8524 0.9773,1.07799 0.7287,1.25503 0.4524,1.37927 0.1512,1.44208 -0.1512,1.44207 -0.4524,1.37927 -0.7287,1.25503 -0.9773,1.07659 -1.1811,0.85097 -1.3323,0.58968 -1.431,0.30123 z"
       style="fill:none;stroke:#000000"
       id="path380"
       inkscape:connector-curvature="0" />
    <path
       d="m 3341.007,838.04987 -1.428,-0.30123 -1.3339,-0.58968 -1.1812,-0.85097 -0.9772,-1.07659 -0.7304,-1.25503 -0.4508,-1.37927 -0.1527,-1.44207 0.1527,-1.44208 0.4508,-1.37927 0.7304,-1.25503 0.9772,-1.07799 1.1812,-0.8524 1.3339,-0.58968 1.428,-0.30123 h 1.4599 l 1.4279,0.30123 1.3338,0.58968 1.1812,0.8524 0.9772,1.07799 0.729,1.25503 0.4507,1.37927 0.1527,1.44208 -0.1527,1.44207 -0.4507,1.37927 -0.729,1.25503 -0.9772,1.07659 -1.1812,0.85097 -1.3338,0.58968 -1.4279,0.30123 z"
       style="fill:none;stroke:#000000"
       id="path382"
       inkscape:connector-curvature="0" />
    <path
       d="m 3718.4537,838.04987 -1.4304,-0.30123 -1.3325,-0.58968 -1.1811,-0.85097 -0.9772,-1.07659 -0.729,-1.25503 -0.4522,-1.37927 -0.1512,-1.44207 0.1512,-1.44208 0.4522,-1.37927 0.729,-1.25503 0.9772,-1.07799 1.1811,-0.8524 1.3325,-0.58968 1.4304,-0.30123 h 1.457 l 1.4305,0.30123 1.3324,0.58968 1.1812,0.8524 0.9772,1.07799 0.729,1.25503 0.4522,1.37927 0.1512,1.44208 -0.1512,1.44207 -0.4522,1.37927 -0.729,1.25503 -0.9772,1.07659 -1.1812,0.85097 -1.3324,0.58968 -1.4305,0.30123 z"
       style="fill:none;stroke:#000000"
       id="path384"
       inkscape:connector-curvature="0" />
    <path
       d="m 4141.1908,838.04987 -1.4309,-0.30123 -1.332,-0.58968 -1.1814,-0.85097 -0.9774,-1.07659 -0.7287,-1.25503 -0.452,-1.37927 -0.1512,-1.44207 0.1512,-1.44208 0.452,-1.37927 0.7287,-1.25503 0.9774,-1.07799 1.1814,-0.8524 1.332,-0.58968 1.4309,-0.30123 h 1.4566 l 1.4306,0.30123 1.3326,0.58968 1.1811,0.8524 0.977,1.07799 0.7291,1.25503 0.4524,1.37927 0.1512,1.44208 -0.1512,1.44207 -0.4524,1.37927 -0.7291,1.25503 -0.977,1.07659 -1.1811,0.85097 -1.3326,0.58968 -1.4306,0.30123 z"
       style="fill:none;stroke:#000000"
       id="path386"
       inkscape:connector-curvature="0" />
    <path
       d="m 3529.7311,838.04987 -1.4305,-0.30123 -1.3324,-0.58968 -1.1813,-0.85097 -0.9772,-1.07659 -0.7289,-1.25503 -0.4522,-1.37927 -0.1512,-1.44207 0.1512,-1.44208 0.4522,-1.37927 0.7289,-1.25503 0.9772,-1.07799 1.1813,-0.8524 1.3324,-0.58968 1.4305,-0.30123 h 1.457 l 1.4304,0.30123 1.3324,0.58968 1.1812,0.8524 0.9772,1.07799 0.729,1.25503 0.4522,1.37927 0.1512,1.44208 -0.1512,1.44207 -0.4522,1.37927 -0.729,1.25503 -0.9772,1.07659 -1.1812,0.85097 -1.3324,0.58968 -1.4304,0.30123 z"
       style="fill:none;stroke:#000000"
       id="path388"
       inkscape:connector-curvature="0" />
    <path
       d="M 4429.267,244.663 H 3084.0438 v 77.07066 h -77.386 V 244.663 h -94.373 l -15.0998,15.03825 v 327.08016 l 12.2686,12.2185 h 1522.6446 l 9.03,-8.9932 V 256.47592 Z"
       style="fill:none;stroke:#000000"
       id="path390"
       inkscape:connector-curvature="0" />
    <path
       d="m 2945.255,562.52441 -0.4637,2.1911 -0.9174,2.0463 -1.3212,1.8121 -1.6723,1.499 -1.9479,1.1197 -2.1365,0.692 -2.2386,0.2343 -2.2386,-0.2343 -2.1365,-0.692 -1.9479,-1.1197 -1.6723,-1.499 -1.3212,-1.8121 -0.9174,-2.0463 -0.4637,-2.1911 v -2.2399 l 0.4637,-2.1911 0.9174,-2.0462 1.3212,-1.8122 1.6723,-1.4989 1.9479,-1.1197 2.1365,-0.692 2.2386,-0.2343 2.2386,0.2343 2.1365,0.692 1.9479,1.1197 1.6723,1.4989 1.3212,1.8122 0.9174,2.0462 0.4637,2.1911 z"
       style="fill:none;stroke:#000000"
       id="path392"
       inkscape:connector-curvature="0" />
    <path
       d="m 3037.7405,453.4977 -0.4636,2.19107 -0.9174,2.04627 -1.3212,1.81214 -1.6723,1.49892 -1.9479,1.11968 -2.1366,0.692 -2.2385,0.23433 -2.2386,-0.23433 -2.1365,-0.692 -1.948,-1.11968 -1.6722,-1.49892 -1.3212,-1.81214 -0.9174,-2.04627 -0.4637,-2.19107 v -2.23997 l 0.4637,-2.19107 0.9174,-2.04627 1.3212,-1.8121 1.6722,-1.49896 1.948,-1.11972 2.1365,-0.69204 2.2386,-0.23433 2.2385,0.23433 2.1366,0.69204 1.9479,1.11972 1.6723,1.49896 1.3212,1.8121 0.9174,2.04627 0.4636,2.19107 z"
       style="fill:none;stroke:#000000"
       id="path394"
       inkscape:connector-curvature="0" />
    <path
       d="m 3150.9882,284.31845 -0.4637,2.19092 -0.9174,2.04627 -1.3211,1.81229 -1.6723,1.49892 -1.948,1.11972 -2.1365,0.69203 -2.2386,0.23433 -2.2385,-0.23433 -2.1366,-0.69203 -1.9479,-1.11972 -1.6723,-1.49892 -1.3212,-1.81229 -0.9173,-2.04627 -0.4637,-2.19092 v -2.24009 l 0.4637,-2.1911 0.9173,-2.04628 1.3212,-1.81209 1.6723,-1.49896 1.9479,-1.11972 2.1366,-0.69204 2.2385,-0.23433 2.2386,0.23433 2.1365,0.69204 1.948,1.11972 1.6723,1.49896 1.3211,1.81209 0.9174,2.04628 0.4637,2.1911 z"
       style="fill:none;stroke:#000000"
       id="path396"
       inkscape:connector-curvature="0" />
    <path
       d="m 3430.9591,485.08581 h -203.8458 v -64.66423 h 203.8458 z"
       style="fill:none;stroke:#000000"
       id="path398"
       inkscape:connector-curvature="0" />
    <path
       d="m 3758.7508,562.52441 -0.4637,2.1911 -0.9174,2.0463 -1.3212,1.8121 -1.6723,1.499 -1.9479,1.1197 -2.1365,0.692 -2.2386,0.2343 -2.2386,-0.2343 -2.1365,-0.692 -1.948,-1.1197 -1.6722,-1.499 -1.3212,-1.8121 -0.9174,-2.0463 -0.4637,-2.1911 v -2.2399 l 0.4637,-2.1911 0.9174,-2.0462 1.3212,-1.8122 1.6722,-1.4989 1.948,-1.1197 2.1365,-0.692 2.2386,-0.2343 2.2386,0.2343 2.1365,0.692 1.9479,1.1197 1.6723,1.4989 1.3212,1.8122 0.9174,2.0462 0.4637,2.1911 z"
       style="fill:none;stroke:#000000"
       id="path400"
       inkscape:connector-curvature="0" />
    <path
       d="m 3773.8504,284.31845 -0.4637,2.19092 -0.9174,2.04627 -1.3212,1.81229 -1.6723,1.49892 -1.9479,1.11972 -2.1365,0.69203 -2.2386,0.23433 -2.2385,-0.23433 -2.1366,-0.69203 -1.9479,-1.11972 -1.6723,-1.49892 -1.3212,-1.81229 -0.9173,-2.04627 -0.4637,-2.19092 v -2.24009 l 0.4637,-2.1911 0.9173,-2.04628 1.3212,-1.81209 1.6723,-1.49896 1.9479,-1.11972 2.1366,-0.69204 2.2385,-0.23433 2.2386,0.23433 2.1365,0.69204 1.9479,1.11972 1.6723,1.49896 1.3212,1.81209 0.9174,2.04628 0.4637,2.1911 z"
       style="fill:none;stroke:#000000"
       id="path402"
       inkscape:connector-curvature="0" />
    <path
       d="m 4253.8921,485.08581 h -203.8458 v -64.66423 h 203.8458 z"
       style="fill:none;stroke:#000000"
       id="path404"
       inkscape:connector-curvature="0" />
    <path
       d="m 4358.9648,284.31845 -0.468,2.19092 -0.9145,2.04627 -1.3226,1.81229 -1.6714,1.49892 -1.948,1.11972 -2.1388,0.69203 -2.2369,0.23433 -2.2368,-0.23433 -2.1393,-0.69203 -1.9477,-1.11972 -1.6716,-1.49892 -1.3226,-1.81229 -0.9145,-2.04627 -0.468,-2.19092 v -2.24009 l 0.468,-2.1911 0.9145,-2.04628 1.3226,-1.81209 1.6716,-1.49896 1.9477,-1.11972 2.1393,-0.69204 2.2368,-0.23433 2.2369,0.23433 2.1388,0.69204 1.948,1.11972 1.6714,1.49896 1.3226,1.81209 0.9145,2.04628 0.468,2.1911 z"
       style="fill:none;stroke:#000000"
       id="path406"
       inkscape:connector-curvature="0" />
    <path
       d="m 4358.9648,453.4977 -0.468,2.19107 -0.9145,2.04627 -1.3226,1.81214 -1.6714,1.49892 -1.948,1.11968 -2.1388,0.692 -2.2369,0.23433 -2.2368,-0.23433 -2.1393,-0.692 -1.9477,-1.11968 -1.6716,-1.49892 -1.3226,-1.81214 -0.9145,-2.04627 -0.468,-2.19107 v -2.23997 l 0.468,-2.19107 0.9145,-2.04627 1.3226,-1.8121 1.6716,-1.49896 1.9477,-1.11972 2.1393,-0.69204 2.2368,-0.23433 2.2369,0.23433 2.1388,0.69204 1.948,1.11972 1.6714,1.49896 1.3226,1.8121 0.9145,2.04627 0.468,2.19107 z"
       style="fill:none;stroke:#000000"
       id="path408"
       inkscape:connector-curvature="0" />
    <path
       d="m 2907,223.11928 h 1522.6448 l 12.2684,-12.2185 v -327.08027 l -15.0997,-15.03814 h -94.373 v 77.070693 h -77.3859 V -131.21763 H 2909.8311 l -11.8611,11.81246 v 333.53165 z"
       style="fill:none;stroke:#000000"
       id="path410"
       inkscape:connector-curvature="0" />
    <path
       d="m 4393.8434,184.40358 0.4637,-2.1919 0.9174,-2.0451 1.3211,-1.8122 1.6723,-1.5 1.9479,-1.1198 2.1366,-0.692 2.2386,-0.2332 2.2385,0.2332 2.1366,0.692 1.9477,1.1198 1.6723,1.5 1.3212,1.8122 0.9174,2.0451 0.4637,2.1919 v 2.2407 l -0.4637,2.1918 -0.9174,2.0451 -1.3212,1.8121 -1.6723,1.5001 -1.9477,1.1212 -2.1366,0.692 -2.2385,0.2332 -2.2386,-0.2332 -2.1366,-0.692 -1.9479,-1.1212 -1.6723,-1.5001 -1.3211,-1.8121 -0.9174,-2.0451 -0.4637,-2.1918 z"
       style="fill:none;stroke:#000000"
       id="path412"
       inkscape:connector-curvature="0" />
    <path
       d="m 4301.3578,75.376789 0.4637,-2.191779 0.9174,-2.04514 1.3212,-1.812098 1.6723,-1.500091 1.9477,-1.119719 2.1367,-0.692031 2.2386,-0.233201 2.2384,0.233201 2.1367,0.692031 1.9478,1.119719 1.6723,1.500091 1.3211,1.812098 0.9174,2.04514 0.4637,2.191779 v 2.24081 l -0.4637,2.191752 -0.9174,2.045178 -1.3211,1.81209 -1.6723,1.500091 -1.9478,1.121159 -2.1367,0.692043 -2.2384,0.233189 -2.2386,-0.233189 -2.1367,-0.692043 -1.9477,-1.121159 -1.6723,-1.500091 -1.3212,-1.81209 -0.9174,-2.045178 -0.4637,-2.191752 z"
       style="fill:none;stroke:#000000"
       id="path414"
       inkscape:connector-curvature="0" />
    <path
       d="m 4188.1101,-93.802677 0.4637,-2.19179 0.9174,-2.04514 1.3212,-1.812132 1.6723,-1.500061 1.9477,-1.11972 2.1368,-0.69199 2.2385,-0.2332 2.2384,0.2332 2.1367,0.69199 1.9478,1.11972 1.6723,1.500061 1.3211,1.812132 0.9175,2.04514 0.4636,2.19179 v 2.240799 l -0.4636,2.191789 -0.9175,2.04514 -1.3211,1.812091 -1.6723,1.500102 -1.9478,1.121118 -2.1367,0.691989 -2.2384,0.233201 -2.2385,-0.233201 -2.1368,-0.691989 -1.9477,-1.121118 -1.6723,-1.500102 -1.3212,-1.812091 -0.9174,-2.04514 -0.4637,-2.191789 z"
       style="fill:none;stroke:#000000"
       id="path416"
       inkscape:connector-curvature="0" />
    <path
       d="m 3908.1392,44.54106 h 203.8458 v 64.66412 h -203.8458 z"
       style="fill:none;stroke:#000000"
       id="path418"
       inkscape:connector-curvature="0" />
    <path
       d="m 3580.3475,184.40358 0.4637,-2.1919 0.9174,-2.0451 1.3212,-1.8122 1.6722,-1.5 1.948,-1.1198 2.1365,-0.692 2.2386,-0.2332 2.2386,0.2332 2.1365,0.692 1.9479,1.1198 1.6723,1.5 1.3212,1.8122 0.9174,2.0451 0.4637,2.1919 v 2.2407 l -0.4637,2.1918 -0.9174,2.0451 -1.3212,1.8121 -1.6723,1.5001 -1.9479,1.1212 -2.1365,0.692 -2.2386,0.2332 -2.2386,-0.2332 -2.1365,-0.692 -1.948,-1.1212 -1.6722,-1.5001 -1.3212,-1.8121 -0.9174,-2.0451 -0.4637,-2.1918 z"
       style="fill:none;stroke:#000000"
       id="path420"
       inkscape:connector-curvature="0" />
    <path
       d="m 3565.2479,-93.802677 0.4637,-2.19179 0.9174,-2.04514 1.3211,-1.812132 1.6723,-1.500061 1.9478,-1.11972 2.1367,-0.69199 2.2385,-0.2332 2.2385,0.2332 2.1367,0.69199 1.9478,1.11972 1.6722,1.500061 1.3212,1.812132 0.9174,2.04514 0.4637,2.19179 v 2.240799 l -0.4637,2.191789 -0.9174,2.04514 -1.3212,1.812091 -1.6722,1.500102 -1.9478,1.121118 -2.1367,0.691989 -2.2385,0.233201 -2.2385,-0.233201 -2.1367,-0.691989 -1.9478,-1.121118 -1.6723,-1.500102 -1.3211,-1.812091 -0.9174,-2.04514 -0.4637,-2.191789 z"
       style="fill:none;stroke:#000000"
       id="path422"
       inkscape:connector-curvature="0" />
    <path
       d="m 3085.206,44.54106 h 203.8458 v 64.66412 H 3085.206 Z"
       style="fill:none;stroke:#000000"
       id="path424"
       inkscape:connector-curvature="0" />
    <path
       d="m 2980.1334,75.376789 0.468,-2.191779 0.9145,-2.04514 1.3226,-1.812098 1.6715,-1.500091 1.9479,-1.119719 2.1388,-0.692031 2.237,-0.233201 2.2367,0.233201 2.1393,0.692031 1.9477,1.119719 1.6716,1.500091 1.3226,1.812098 0.9145,2.04514 0.468,2.191779 v 2.24081 l -0.468,2.191752 -0.9145,2.045178 -1.3226,1.81209 -1.6716,1.500091 -1.9477,1.121159 -2.1393,0.692043 -2.2367,0.233189 -2.237,-0.233189 -2.1388,-0.692043 -1.9479,-1.121159 -1.6715,-1.500091 -1.3226,-1.81209 -0.9145,-2.045178 -0.468,-2.191752 z"
       style="fill:none;stroke:#000000"
       id="path426"
       inkscape:connector-curvature="0" />
    <path
       d="m 2980.1334,-93.802677 0.468,-2.19179 0.9145,-2.04514 1.3226,-1.812132 1.6715,-1.500061 1.9479,-1.11972 2.1388,-0.69199 2.237,-0.2332 2.2367,0.2332 2.1393,0.69199 1.9477,1.11972 1.6716,1.500061 1.3226,1.812132 0.9145,2.04514 0.468,2.19179 v 2.240799 l -0.468,2.191789 -0.9145,2.04514 -1.3226,1.812091 -1.6716,1.500102 -1.9477,1.121118 -2.1393,0.691989 -2.2367,0.233201 -2.237,-0.233201 -2.1388,-0.691989 -1.9479,-1.121118 -1.6715,-1.500102 -1.3226,-1.812091 -0.9145,-2.04514 -0.468,-2.191789 z"
       style="fill:none;stroke:#000000"
       id="path428"
       inkscape:connector-curvature="0" />
    <path
       d="m 2738.8356,635.36262 8.662,-3.85659 7.6707,-5.57318 6.3445,-7.04621 4.7407,-8.2114 2.6097,-8.0318 61.9639,-121.61068 0.161,-0.034 7.2181,-3.21381 6.3923,-4.64428 5.2872,-5.87184 3.9508,-6.84283 2.4415,-7.51487 0.8259,-7.85802 -0.8259,-7.85802 -2.4415,-7.51483 -3.9508,-6.84246 -5.2872,-5.87187 -6.3923,-4.64466 -7.2181,-3.21374 -7.7288,-1.64258 h -7.7302 v -0.43389 h -7.5591 v -85.03935 h -204.0945 v 96.26984 l -4.1204,4.57629 -3.9508,6.84242 -2.4415,7.51487 -0.8259,7.85802 0.8259,7.85801 2.4415,7.51484 3.9508,6.84283 5.2872,5.87184 6.3923,4.64428 4.4711,1.99072 68.6159,134.66577 0.8035,-0.40951 2.8029,4.85473 6.3445,7.04621 7.6707,5.57318 8.662,3.85659 9.2744,1.97102 h 9.4816 z"
       style="fill:none;stroke:#000000"
       id="path430"
       inkscape:connector-curvature="0" />
    <path
       d="m 2649.8357,362.55433 -2.5119,-0.53409 -2.3459,-1.04424 -2.0776,-1.50955 -1.7182,-1.9083 -1.2839,-2.22384 -0.7937,-2.44233 -0.2684,-2.55386 0.2684,-2.55383 0.7937,-2.44233 1.2839,-2.22387 1.7182,-1.90823 2.0776,-1.50959 2.3459,-1.04424 2.5119,-0.53409 h 2.5678 l 2.5119,0.53409 2.3459,1.04424 2.0777,1.50959 1.718,1.90823 1.284,2.22387 0.7937,2.44233 0.2683,2.55383 -0.2683,2.55386 -0.7937,2.44233 -1.284,2.22384 -1.718,1.9083 -2.0777,1.50955 -2.3459,1.04424 -2.5119,0.53409 z"
       style="fill:none;stroke:#000000"
       id="path432"
       inkscape:connector-curvature="0" />
    <path
       d="m 2763.2215,362.55433 -2.512,-0.53409 -2.3459,-1.04424 -2.0774,-1.50955 -1.7183,-1.9083 -1.284,-2.22384 -0.7935,-2.44233 -0.2684,-2.55386 0.2684,-2.55383 0.7935,-2.44233 1.284,-2.22387 1.7183,-1.90823 2.0775,-1.50959 2.3458,-1.04424 2.512,-0.53409 h 2.5678 l 2.5119,0.53409 2.346,1.04424 2.0776,1.50959 1.7182,1.90823 1.2839,2.22387 0.7937,2.44233 0.2683,2.55383 -0.2683,2.55386 -0.7937,2.44233 -1.2839,2.22384 -1.7182,1.9083 -2.0776,1.50955 -2.346,1.04424 -2.5119,0.53409 z"
       style="fill:none;stroke:#000000"
       id="path434"
       inkscape:connector-curvature="0" />
    <path
       d="m 2625.2291,457.645 -2.589,-0.5503 -2.4181,-1.07641 -2.1415,-1.55603 -1.7711,-1.96687 -1.3236,-2.29228 -0.8179,-2.51754 -0.2767,-2.63244 0.2767,-2.63244 0.8179,-2.51755 1.3236,-2.29232 1.7711,-1.96686 2.1415,-1.556 2.4181,-1.07641 2.589,-0.55033 h 2.6472 l 2.5889,0.55033 2.4182,1.07641 2.1415,1.556 1.7711,1.96686 1.3235,2.29232 0.8179,2.51755 0.2766,2.63244 -0.2766,2.63244 -0.8179,2.51754 -1.3235,2.29228 -1.7711,1.96687 -2.1415,1.55603 -2.4182,1.07641 -2.5889,0.5503 z"
       style="fill:none;stroke:#000000"
       id="path436"
       inkscape:connector-curvature="0" />
    <path
       d="m 2821.7644,457.645 -2.5889,-0.5503 -2.4181,-1.07641 -2.1415,-1.55603 -1.7711,-1.96687 -1.3236,-2.29228 -0.8178,-2.51754 -0.2767,-2.63244 0.2767,-2.63244 0.8178,-2.51755 1.3236,-2.29232 1.7711,-1.96686 2.1415,-1.556 2.4181,-1.07641 2.5889,-0.55033 h 2.6473 l 2.5889,0.55033 2.4181,1.07641 2.1416,1.556 1.7711,1.96686 1.3236,2.29232 0.8179,2.51755 0.2766,2.63244 -0.2766,2.63244 -0.8179,2.51754 -1.3236,2.29228 -1.7711,1.96687 -2.1416,1.55603 -2.4181,1.07641 -2.5889,0.5503 z"
       style="fill:none;stroke:#000000"
       id="path438"
       inkscape:connector-curvature="0" />
    <path
       d="m 2723.497,616.59322 -2.5892,-0.5503 -2.4181,-1.0766 -2.1415,-1.55588 -1.7712,-1.96701 -1.3234,-2.2924 -0.8179,-2.51739 -0.2767,-2.63241 0.2767,-2.63251 0.448,-1.37847 0.4735,-0.24151 0.2415,-0.74381 1.284,-2.22384 1.7183,-1.9084 2.0775,-1.50939 2.3459,-1.04451 2.5119,-0.53378 h 2.5678 l 2.5119,0.53378 2.3459,1.04451 2.0775,1.50939 1.7183,1.9084 1.284,2.22384 0.7935,2.44229 0.038,0.34053 0.3993,0.20334 0.2113,2.01011 -0.2767,2.6324 -0.818,2.51739 -1.3234,2.2924 -1.7712,1.96702 -2.1414,1.55588 -2.4181,1.07659 -2.5892,0.5503 z"
       style="fill:none;stroke:#000000"
       id="path440"
       inkscape:connector-curvature="0" />
    <path
       d="m 2469.389,570.47849 8.6619,-3.85659 7.6708,-5.57318 6.3444,-7.04621 4.7407,-8.2114 2.6098,-8.03184 61.9638,-121.61065 0.161,-0.034 7.2182,-3.21381 6.3923,-4.64428 5.2872,-5.87184 3.9507,-6.84287 2.4416,-7.51484 0.8258,-7.85801 -0.8258,-7.85801 -2.4416,-7.51483 -3.9507,-6.84246 -5.2872,-5.87186 -6.3923,-4.64466 -7.2182,-3.21373 -7.7287,-1.64258 h -7.7303 v -0.43389 H 2364.665 v 0.43389 h -7.7303 l -7.7288,1.64258 -7.2181,3.21373 -6.3923,4.64466 -5.2872,5.87186 -3.9507,6.84246 -2.4417,7.51483 -0.8257,7.85801 0.8257,7.85805 2.4417,7.51484 3.9507,6.84283 5.2872,5.87184 6.3923,4.64428 4.4712,1.99072 68.6158,134.66577 0.8035,-0.40951 2.803,4.85473 6.3444,7.04621 7.6708,5.57318 8.6619,3.85659 9.2745,1.97102 h 9.4815 z"
       style="fill:none;stroke:#000000"
       id="path442"
       inkscape:connector-curvature="0" />
    <path
       d="m 2454.2873,394.28515 -2.1255,-0.45165 -1.985,-0.88365 -1.7579,-1.27711 -1.4539,-1.61499 -1.0864,-1.88183 -0.6715,-2.06626 -0.2271,-2.16114 0.1988,-1.88976 -0.1988,-1.8898 0.1988,-1.88977 -0.1988,-1.88975 0.2271,-2.16076 0.6715,-2.06664 1.0864,-1.88183 1.4539,-1.61461 1.758,-1.27748 1.9849,-0.88366 2.1255,-0.45165 h 2.1728 l 2.1254,0.45165 1.985,0.88366 1.7579,1.27748 1.4539,1.61461 1.0865,1.88183 0.6714,2.06664 0.2272,2.16076 -0.1984,1.88975 0.1984,1.88977 -0.1984,1.8898 0.1984,1.88976 -0.2272,2.16114 -0.6714,2.06626 -1.0865,1.88183 -1.4539,1.61499 -1.7579,1.27711 -1.985,0.88365 -2.1254,0.45165 z"
       style="fill:none;stroke:#000000"
       id="path444"
       inkscape:connector-curvature="0" />
    <path
       d="m 2552.3179,392.76087 -2.589,-0.5503 -2.4181,-1.07641 -2.1415,-1.55603 -1.7711,-1.96687 -1.3237,-2.29228 -0.8178,-2.51754 -0.2767,-2.63248 0.2767,-2.63243 0.8178,-2.51755 1.3237,-2.29228 1.7711,-1.96687 2.1415,-1.55603 2.4181,-1.07641 2.589,-0.5503 h 2.6472 l 2.5889,0.5503 2.4182,1.07641 2.1415,1.55603 1.771,1.96687 1.3236,2.29228 0.8179,2.51755 0.2767,2.63243 -0.2767,2.63248 -0.8179,2.51754 -1.3236,2.29228 -1.771,1.96687 -2.1415,1.55603 -2.4182,1.07641 -2.5889,0.5503 z"
       style="fill:none;stroke:#000000"
       id="path446"
       inkscape:connector-curvature="0" />
    <path
       d="m 2355.7823,392.76087 -2.5889,-0.5503 -2.4182,-1.07641 -2.1415,-1.55603 -1.771,-1.96687 -1.3236,-2.29228 -0.8179,-2.51754 -0.2767,-2.63248 0.2767,-2.63243 0.8179,-2.51755 1.3236,-2.29228 1.771,-1.96687 2.1415,-1.55603 2.4182,-1.07641 2.5889,-0.5503 h 2.6472 l 2.589,0.5503 2.4181,1.07641 2.1415,1.55603 1.7711,1.96687 1.3236,2.29228 0.8179,2.51755 0.2767,2.63243 -0.2767,2.63248 -0.8179,2.51754 -1.3236,2.29228 -1.7711,1.96687 -2.1415,1.55603 -2.4181,1.07641 -2.589,0.5503 z"
       style="fill:none;stroke:#000000"
       id="path448"
       inkscape:connector-curvature="0" />
    <path
       d="m 2454.0502,551.70909 -2.5891,-0.5503 -2.4181,-1.0766 -2.1414,-1.55592 -1.7712,-1.96698 -1.3235,-2.29239 -0.818,-2.51739 -0.2766,-2.63241 0.2766,-2.63251 0.4481,-1.37851 0.4735,-0.24151 0.2419,-0.74381 1.284,-2.2238 1.7182,-1.9084 2.0776,-1.50939 2.3459,-1.04451 2.5118,-0.53378 h 2.5679 l 2.5118,0.53378 2.346,1.04451 2.0775,1.50939 1.7183,1.9084 1.2839,2.2238 0.7937,2.44229 0.038,0.34053 0.3994,0.20334 0.2113,2.01015 -0.2767,2.6324 -0.818,2.51739 -1.3234,2.2924 -1.7712,1.96698 -2.1415,1.55591 -2.4181,1.0766 -2.5892,0.5503 z"
       style="fill:none;stroke:#000000"
       id="path450"
       inkscape:connector-curvature="0" />
    <path
       d="m 2104.1244,579.3874 8.6619,-3.85659 7.6708,-5.57322 6.3444,-7.04617 4.7407,-8.21144 2.6098,-8.0318 61.9639,-121.61064 0.161,-0.034 7.2182,-3.21381 6.3922,-4.64432 5.2872,-5.87183 3.9507,-6.84284 2.4416,-7.51483 0.8259,-7.85802 -0.8259,-7.85802 -2.4416,-7.51482 -3.9507,-6.84246 -5.2872,-5.87187 -6.3922,-4.64465 -7.2182,-3.21373 -7.7288,-1.64262 h -7.7303 v -0.43385 h -181.4174 v 0.43389 h -7.7303 l -7.7287,1.64258 -7.2182,3.21373 -6.3923,4.64465 -5.2871,5.87187 -3.9508,6.84246 -2.4416,7.51482 -0.8258,7.85802 0.8258,7.85802 2.4416,7.51487 3.9508,6.84283 5.2871,5.87184 6.3923,4.64428 4.4712,1.99072 68.6159,134.66577 0.8035,-0.40951 2.8029,4.85473 6.3445,7.04617 7.6707,5.57322 8.662,3.85659 9.2745,1.97102 h 9.4815 z"
       style="fill:none;stroke:#000000"
       id="path452"
       inkscape:connector-curvature="0" />
    <path
       d="m 2089.0227,403.19407 -2.1254,-0.45166 -1.985,-0.88365 -1.7579,-1.2771 -1.4539,-1.615 -1.0865,-1.88186 -0.6714,-2.06627 -0.2272,-2.16113 0.1988,-1.88977 -0.1988,-1.88976 0.1988,-1.88976 -0.1988,-1.88977 0.2272,-2.16075 0.6714,-2.06665 1.0865,-1.88182 1.4539,-1.61461 1.758,-1.27748 1.9849,-0.88365 2.1254,-0.45166 h 2.1728 l 2.1255,0.45166 1.985,0.88365 1.7579,1.27748 1.4539,1.61461 1.0864,1.88182 0.6715,2.06665 0.2271,2.16075 -0.1988,1.88977 0.1988,1.88976 -0.1988,1.88976 0.1988,1.88977 -0.2271,2.16113 -0.6715,2.06627 -1.0864,1.88186 -1.4539,1.615 -1.7579,1.2771 -1.985,0.88365 -2.1255,0.45166 z"
       style="fill:none;stroke:#000000"
       id="path454"
       inkscape:connector-curvature="0" />
    <path
       d="m 2187.0533,401.66978 -2.589,-0.5503 -2.4181,-1.07641 -2.1415,-1.55603 -1.7711,-1.9669 -1.3236,-2.29229 -0.8179,-2.51754 -0.2766,-2.63244 0.2766,-2.63244 0.8179,-2.51754 1.3236,-2.29229 1.7711,-1.96686 2.1415,-1.55603 2.4181,-1.0764 2.589,-0.5503 h 2.6472 l 2.589,0.5503 2.4181,1.0764 2.1415,1.55603 1.7711,1.96686 1.3236,2.29229 0.8179,2.51754 0.2766,2.63244 -0.2766,2.63244 -0.8179,2.51754 -1.3236,2.29229 -1.7711,1.9669 -2.1415,1.55603 -2.4181,1.07641 -2.589,0.5503 z"
       style="fill:none;stroke:#000000"
       id="path456"
       inkscape:connector-curvature="0" />
    <path
       d="m 1990.5178,401.66978 -2.589,-0.5503 -2.4182,-1.07641 -2.1414,-1.55603 -1.7711,-1.9669 -1.3236,-2.29229 -0.8179,-2.51754 -0.2767,-2.63244 0.2767,-2.63244 0.8179,-2.51754 1.3236,-2.29229 1.7711,-1.96686 2.1414,-1.55603 2.4182,-1.0764 2.589,-0.5503 h 2.6471 l 2.589,0.5503 2.4182,1.0764 2.1414,1.55603 1.7711,1.96686 1.3237,2.29229 0.8179,2.51754 0.2766,2.63244 -0.2766,2.63244 -0.8179,2.51754 -1.3237,2.29229 -1.7711,1.9669 -2.1414,1.55603 -2.4182,1.07641 -2.589,0.5503 z"
       style="fill:none;stroke:#000000"
       id="path458"
       inkscape:connector-curvature="0" />
    <path
       d="m 2088.7857,560.618 -2.5891,-0.5503 -2.4181,-1.07659 -2.1415,-1.55592 -1.7712,-1.96698 -1.3234,-2.2924 -0.818,-2.51743 -0.2767,-2.6324 0.2767,-2.63248 0.448,-1.37851 0.4736,-0.24151 0.2418,-0.74381 1.284,-2.2238 1.7183,-1.9084 2.0776,-1.50939 2.3459,-1.04451 2.5118,-0.53378 h 2.5678 l 2.5119,0.53378 2.346,1.04451 2.0775,1.50939 1.7182,1.9084 1.284,2.2238 0.7935,2.44233 0.034,0.34054 0.3993,0.20333 0.2113,2.01007 -0.2766,2.6324 -0.818,2.51743 -1.3234,2.2924 -1.7712,1.96698 -2.1415,1.55592 -2.4181,1.0766 -2.5891,0.5503 z"
       style="fill:none;stroke:#000000"
       id="path460"
       inkscape:connector-curvature="0" />
    <path
       d="m 1747.7688,583.75181 8.662,-3.85659 7.6707,-5.57322 6.3445,-7.04621 4.7407,-8.2114 2.6097,-8.0318 61.9639,-121.61068 0.161,-0.034 7.2181,-3.21377 6.3923,-4.64432 5.2872,-5.87184 3.9508,-6.84283 2.4415,-7.51483 0.8259,-7.85802 -0.8259,-7.85801 -2.4415,-7.51488 -3.9508,-6.8424 -5.2872,-5.87192 -6.3923,-4.64466 -7.2181,-3.21372 -7.7288,-1.64258 h -7.7302 v -0.43385 h -181.4174 v 0.43389 h -7.7302 l -7.7288,1.64258 -7.2181,3.21372 -6.3923,4.64466 -5.2872,5.87188 -3.9508,6.84244 -2.4415,7.51484 -0.8259,7.85801 0.8259,7.85805 2.4415,7.5148 3.9508,6.84283 5.2872,5.87188 6.3923,4.64428 4.4711,1.99072 68.6159,134.66577 0.8035,-0.40951 2.8029,4.85469 6.3445,7.04621 7.6707,5.57322 8.662,3.85659 9.2744,1.97099 h 9.4816 z"
       style="fill:none;stroke:#000000"
       id="path462"
       inkscape:connector-curvature="0" />
    <path
       d="m 1732.6672,407.55844 -2.1254,-0.45166 -1.9851,-0.88365 -1.7578,-1.2771 -1.454,-1.61499 -1.0864,-1.88183 -0.6715,-2.06627 -0.2271,-2.16113 0.1988,-1.88977 -0.1988,-1.88976 0.1988,-1.88976 -0.1988,-1.88977 0.2271,-2.16075 0.6715,-2.06665 1.0864,-1.88183 1.454,-1.61461 1.7579,-1.27748 1.985,-0.88365 2.1254,-0.45166 h 2.1728 l 2.1254,0.45166 1.985,0.88365 1.7579,1.27748 1.454,1.61461 1.0864,1.88183 0.6714,2.06665 0.2272,2.16075 -0.1988,1.88977 0.1988,1.88976 -0.1988,1.88976 0.1988,1.88977 -0.2272,2.16113 -0.6714,2.06627 -1.0864,1.88183 -1.454,1.61499 -1.7579,1.2771 -1.985,0.88365 -2.1254,0.45166 z"
       style="fill:none;stroke:#000000"
       id="path464"
       inkscape:connector-curvature="0" />
    <path
       d="m 1830.6977,406.03415 -2.589,-0.5503 -2.4181,-1.0764 -2.1415,-1.55604 -1.7711,-1.96686 -1.3236,-2.29225 -0.8178,-2.51758 -0.2767,-2.63244 0.2767,-2.63244 0.8178,-2.51754 1.3236,-2.29229 1.7711,-1.96686 2.1415,-1.55603 2.4181,-1.07641 2.589,-0.5503 h 2.6472 l 2.589,0.5503 2.4181,1.07641 2.1415,1.55603 1.7711,1.96686 1.3236,2.29229 0.8179,2.51754 0.2766,2.63244 -0.2766,2.63244 -0.8179,2.51758 -1.3236,2.29225 -1.7711,1.96686 -2.1415,1.55604 -2.4181,1.0764 -2.589,0.5503 z"
       style="fill:none;stroke:#000000"
       id="path466"
       inkscape:connector-curvature="0" />
    <path
       d="m 1634.1623,406.03415 -2.589,-0.5503 -2.4181,-1.0764 -2.1415,-1.55604 -1.7711,-1.96686 -1.3236,-2.29225 -0.8179,-2.51758 -0.2766,-2.63244 0.2766,-2.63244 0.8179,-2.51754 1.3236,-2.29229 1.7711,-1.96686 2.1415,-1.55603 2.4181,-1.07641 2.589,-0.5503 h 2.6472 l 2.5889,0.5503 2.4182,1.07641 2.1415,1.55603 1.7711,1.96686 1.3235,2.29229 0.8179,2.51754 0.2767,2.63244 -0.2767,2.63244 -0.8179,2.51758 -1.3235,2.29225 -1.7711,1.96686 -2.1415,1.55604 -2.4182,1.0764 -2.5889,0.5503 z"
       style="fill:none;stroke:#000000"
       id="path468"
       inkscape:connector-curvature="0" />
    <path
       d="m 1732.4302,564.98241 -2.5892,-0.5503 -2.4181,-1.0766 -2.1414,-1.55591 -1.7712,-1.96698 -1.3234,-2.29244 -0.818,-2.51739 -0.2767,-2.6324 0.2767,-2.63248 0.448,-1.37851 0.4735,-0.24151 0.2416,-0.74381 1.2839,-2.2238 1.7183,-1.9084 2.0776,-1.50939 2.3458,-1.04451 2.5119,-0.53378 h 2.5678 l 2.5119,0.53378 2.3459,1.04451 2.0775,1.50939 1.7183,1.9084 1.284,2.2238 0.7935,2.44229 0.034,0.34054 0.3994,0.20334 0.2113,2.0101 -0.2767,2.6324 -0.818,2.5174 -1.3234,2.29243 -1.7712,1.96698 -2.1414,1.55592 -2.4181,1.0766 -2.5892,0.5503 z"
       style="fill:none;stroke:#000000"
       id="path470"
       inkscape:connector-curvature="0" />
    <path
       d="m 2097.6213,315.51724 8.662,-3.8566 7.6707,-5.57321 6.3445,-7.04618 4.7407,-8.21142 2.6097,-8.0318 61.9639,-121.61058 0.161,-0.034 7.2182,-3.21379 6.3923,-4.64432 5.2872,-5.87184 3.9507,-6.84283 2.4416,-7.51483 0.8258,-7.85801 -0.8258,-7.85801 -2.4416,-7.51483 -3.9507,-6.84246 -5.2872,-5.871861 -6.3923,-4.644662 -7.2182,-3.213732 -7.7287,-1.64262 h -7.7303 v -0.433852 h -181.4174 v 0.433889 h -7.7303 l -7.7288,1.642583 -7.2181,3.213732 -6.3923,4.644662 -5.2872,5.871861 -3.9507,6.84246 -2.4417,7.51483 -0.8257,7.85801 0.8257,7.85801 2.4417,7.51486 3.9507,6.84284 5.2872,5.87183 6.3923,4.64429 4.4712,1.9907 68.6158,134.66571 0.8035,-0.40951 2.803,4.85471 6.3444,7.04618 7.6708,5.57321 8.6619,3.8566 9.2745,1.97102 h 9.4816 z"
       style="fill:none;stroke:#000000"
       id="path472"
       inkscape:connector-curvature="0" />
    <path
       d="m 2082.5197,139.32399 -2.1254,-0.45165 -1.9851,-0.88366 -1.7579,-1.27709 -1.4539,-1.61499 -1.0864,-1.88186 -0.6715,-2.06627 -0.2271,-2.16114 0.1988,-1.88976 -0.1988,-1.88976 0.1988,-1.88977 -0.1988,-1.88976 0.2271,-2.16076 0.6715,-2.06663 1.0864,-1.88183 1.4539,-1.61461 1.758,-1.27748 1.985,-0.88365 2.1254,-0.45166 h 2.1728 l 2.1254,0.45166 1.985,0.88365 1.7579,1.27748 1.4539,1.61461 1.0865,1.88183 0.6714,2.06663 0.2272,2.16076 -0.1988,1.88976 0.1988,1.88977 -0.1988,1.88976 0.1988,1.88976 -0.2272,2.16114 -0.6714,2.06627 -1.0865,1.88186 -1.4539,1.61499 -1.7579,1.27709 -1.985,0.88366 -2.1254,0.45165 z"
       style="fill:none;stroke:#000000"
       id="path474"
       inkscape:connector-curvature="0" />
    <path
       d="m 2180.5503,137.79972 -2.589,-0.5503 -2.4182,-1.07641 -2.1414,-1.55603 -1.7711,-1.96691 -1.3236,-2.29228 -0.8179,-2.51754 -0.2767,-2.63244 0.2767,-2.63244 0.8179,-2.51755 1.3236,-2.29227 1.7711,-1.96686 2.1414,-1.55604 2.4182,-1.07641 2.589,-0.5503 h 2.6471 l 2.589,0.5503 2.4182,1.07641 2.1414,1.55604 1.7711,1.96686 1.3236,2.29227 0.8179,2.51755 0.2767,2.63244 -0.2767,2.63244 -0.8179,2.51754 -1.3236,2.29228 -1.7711,1.96691 -2.1414,1.55603 -2.4182,1.07641 -2.589,0.5503 z"
       style="fill:none;stroke:#000000"
       id="path476"
       inkscape:connector-curvature="0" />
    <path
       d="m 1984.0147,137.79972 -2.589,-0.5503 -2.4181,-1.07641 -2.1415,-1.55603 -1.7711,-1.96691 -1.3236,-2.29228 -0.8179,-2.51754 -0.2766,-2.63244 0.2766,-2.63244 0.8179,-2.51755 1.3236,-2.29227 1.7711,-1.96686 2.1415,-1.55604 2.4181,-1.07641 2.589,-0.5503 h 2.6472 l 2.589,0.5503 2.4181,1.07641 2.1415,1.55604 1.7711,1.96686 1.3236,2.29227 0.8179,2.51755 0.2767,2.63244 -0.2767,2.63244 -0.8179,2.51754 -1.3236,2.29228 -1.7711,1.96691 -2.1415,1.55603 -2.4181,1.07641 -2.589,0.5503 z"
       style="fill:none;stroke:#000000"
       id="path478"
       inkscape:connector-curvature="0" />
    <path
       d="m 2082.2827,296.74785 -2.5892,-0.5503 -2.4181,-1.0766 -2.1415,-1.55592 -1.7712,-1.96698 -1.3234,-2.29239 -0.818,-2.51743 -0.2766,-2.63241 0.2766,-2.63248 0.448,-1.3785 0.4736,-0.24151 0.2419,-0.74382 1.2839,-2.22378 1.7183,-1.9084 2.0776,-1.50939 2.3459,-1.04451 2.5118,-0.53378 h 2.5679 l 2.5119,0.53378 2.3459,1.04451 2.0775,1.50939 1.7183,1.9084 1.2839,2.22378 0.7936,2.44234 0.034,0.34053 0.3994,0.20334 0.2113,2.01007 -0.2767,2.6324 -0.818,2.51743 -1.3234,2.2924 -1.7712,1.96697 -2.1414,1.55592 -2.4182,1.0766 -2.5891,0.5503 z"
       style="fill:none;stroke:#000000"
       id="path480"
       inkscape:connector-curvature="0" />
    <path
       d="m 1741.2658,319.88163 8.6619,-3.85658 7.6708,-5.57321 6.3444,-7.04621 4.7407,-8.21139 2.6098,-8.0318 61.9639,-121.61062 0.161,-0.034 7.2181,-3.21377 6.3923,-4.64431 5.2872,-5.87184 3.9507,-6.84283 2.4416,-7.51483 0.8258,-7.85801 -0.8258,-7.85802 -2.4416,-7.51486 -3.9507,-6.84242 -5.2872,-5.87191 -6.3923,-4.644651 -7.2181,-3.213732 -7.7288,-1.642583 h -7.7303 v -0.433852 h -181.4173 v 0.43389 h -7.7303 l -7.7287,1.642583 -7.2181,3.213732 -6.3924,4.644653 -5.2871,5.87187 -3.9508,6.84246 -2.4416,7.51482 -0.8258,7.85802 0.8258,7.85805 2.4416,7.51479 3.9508,6.84283 5.2871,5.87187 6.3924,4.64428 4.4711,1.99071 68.6158,134.6657 0.8035,-0.40951 2.803,4.85469 6.3444,7.04621 7.6708,5.57321 8.6619,3.85658 9.2745,1.97099 h 9.4815 z"
       style="fill:none;stroke:#000000"
       id="path482"
       inkscape:connector-curvature="0" />
    <path
       d="m 1726.1641,143.68836 -2.1254,-0.45165 -1.985,-0.88365 -1.7579,-1.27711 -1.4539,-1.61499 -1.0864,-1.88181 -0.6715,-2.06627 -0.2271,-2.16114 0.1988,-1.88976 -0.1988,-1.88976 0.1988,-1.88977 -0.1988,-1.88976 0.2271,-2.16076 0.6715,-2.06664 1.0864,-1.88183 1.4539,-1.61461 1.758,-1.27747 1.9849,-0.88366 2.1254,-0.45165 h 2.1729 l 2.1253,0.45165 1.9851,0.88366 1.7579,1.27747 1.4539,1.61461 1.0865,1.88183 0.6714,2.06664 0.2271,2.16076 -0.1988,1.88976 0.1988,1.88977 -0.1988,1.88976 0.1988,1.88976 -0.2271,2.16114 -0.6714,2.06627 -1.0865,1.88181 -1.4539,1.61499 -1.7579,1.27711 -1.9851,0.88365 -2.1253,0.45165 z"
       style="fill:none;stroke:#000000"
       id="path484"
       inkscape:connector-curvature="0" />
    <path
       d="m 1824.1947,142.16408 -2.589,-0.5503 -2.4181,-1.07641 -2.1415,-1.55603 -1.7711,-1.96686 -1.3236,-2.29224 -0.8179,-2.51758 -0.2766,-2.63244 0.2766,-2.63244 0.8179,-2.51755 1.3236,-2.29228 1.7711,-1.96687 2.1415,-1.55603 2.4181,-1.0764 2.589,-0.5503 h 2.6472 l 2.5889,0.5503 2.4182,1.0764 2.1415,1.55603 1.771,1.96687 1.3236,2.29228 0.8179,2.51755 0.2767,2.63244 -0.2767,2.63244 -0.8179,2.51758 -1.3236,2.29224 -1.771,1.96686 -2.1415,1.55603 -2.4182,1.07641 -2.5889,0.5503 z"
       style="fill:none;stroke:#000000"
       id="path486"
       inkscape:connector-curvature="0" />
    <path
       d="m 1627.6593,142.16408 -2.589,-0.5503 -2.4181,-1.07641 -2.1415,-1.55603 -1.7711,-1.96686 -1.3236,-2.29224 -0.8179,-2.51758 -0.2767,-2.63244 0.2767,-2.63244 0.8179,-2.51755 1.3236,-2.29228 1.7711,-1.96687 2.1415,-1.55603 2.4181,-1.0764 2.589,-0.5503 h 2.6472 l 2.5889,0.5503 2.4181,1.0764 2.1415,1.55603 1.7711,1.96687 1.3236,2.29228 0.8179,2.51755 0.2766,2.63244 -0.2766,2.63244 -0.8179,2.51758 -1.3236,2.29224 -1.7711,1.96686 -2.1415,1.55603 -2.4181,1.07641 -2.5889,0.5503 z"
       style="fill:none;stroke:#000000"
       id="path488"
       inkscape:connector-curvature="0" />
    <path
       d="m 1725.9271,301.11225 -2.5891,-0.5503 -2.4181,-1.0766 -2.1414,-1.55591 -1.7712,-1.96698 -1.3235,-2.29243 -0.818,-2.51739 -0.2766,-2.63241 0.2766,-2.63248 0.448,-1.3785 0.4736,-0.24151 0.2415,-0.74382 1.2839,-2.22379 1.7183,-1.9084 2.0776,-1.50938 2.3459,-1.04451 2.5118,-0.53379 h 2.5679 l 2.5118,0.53379 2.346,1.04451 2.0775,1.50938 1.7183,1.9084 1.2839,2.22379 0.7936,2.4423 0.034,0.34053 0.3994,0.20334 0.2112,2.01007 -0.2766,2.6324 -0.818,2.51743 -1.3234,2.2924 -1.7712,1.96698 -2.1415,1.5559 -2.4181,1.07664 -2.5891,0.5503 z"
       style="fill:none;stroke:#000000"
       id="path490"
       inkscape:connector-curvature="0" />
    <path
       d="m 2363.1245,295.79439 4.7671,-2.1222 4.2214,-3.06709 3.4915,-3.8778 2.6094,-4.51918 1.6123,-4.96252 0.5454,-5.18967 -0.5454,-5.18928 -1.6123,-4.96289 -2.6094,-4.51881 -3.4915,-3.87779 -0.9574,-0.69582 V 152.55522 h -117.1201 v 122.11199 h 76.6905 l 0.271,2.57839 1.6122,4.96252 2.609,4.51918 3.4919,3.8778 4.2214,3.06709 4.7668,2.1222 5.1043,1.08473 h 5.2179 z"
       style="fill:none;stroke:#000000"
       id="path492"
       inkscape:connector-curvature="0" />
    <path
       d="m 2291.6167,202.89626 -2.2025,-0.46828 -2.0571,-0.91578 -1.8217,-1.32359 -1.5068,-1.67358 -1.1259,-1.94986 -0.6958,-2.14148 -0.2354,-2.23975 0.2354,-2.23937 0.6958,-2.14148 1.1259,-1.95023 1.5068,-1.67358 1.8217,-1.32321 2.0571,-0.91616 2.2025,-0.46828 h 2.252 l 2.2023,0.46828 2.0572,0.91616 1.8218,1.32321 1.5069,1.67358 1.1259,1.95023 0.6958,2.14148 0.2355,2.23937 -0.2355,2.23975 -0.6958,2.14148 -1.1259,1.94986 -1.5069,1.67358 -1.8218,1.32359 -2.0572,0.91578 -2.2023,0.46828 z"
       style="fill:none;stroke:#000000"
       id="path494"
       inkscape:connector-curvature="0" />
    <path
       d="m 2355.4048,200.40101 -1.8157,-0.38589 -1.6959,-0.75514 -1.5019,-1.09116 -1.242,-1.37952 -0.9283,-1.60781 -0.5737,-1.76542 -0.1943,-1.8463 0.1943,-1.8463 0.5737,-1.76579 0.9283,-1.60744 1.242,-1.3799 1.5019,-1.09115 1.6959,-0.75477 1.8157,-0.38627 h 1.8565 l 1.8161,0.38627 1.6958,0.75477 1.502,1.09115 1.242,1.3799 0.9282,1.60744 0.5738,1.76579 0.1939,1.8463 -0.1939,1.8463 -0.5738,1.76542 -0.9282,1.60781 -1.242,1.37952 -1.502,1.09116 -1.6958,0.75514 -1.8161,0.38589 z"
       style="fill:none;stroke:#000000"
       id="path496"
       inkscape:connector-curvature="0" />
    <path
       d="m 2354.2857,282.76825 -2.2027,-0.46828 -2.0572,-0.91578 -1.8214,-1.32359 -1.5069,-1.67358 -1.1259,-1.94986 -0.6958,-2.14186 -0.2355,-2.23937 0.2355,-2.23937 0.6958,-2.14147 1.1259,-1.95023 1.5069,-1.67358 1.8214,-1.32321 2.0572,-0.91616 2.2027,-0.4679 h 2.2518 l 2.2024,0.4679 2.0571,0.91616 1.8218,1.32321 1.5069,1.67358 1.1259,1.95023 0.6958,2.14147 0.2354,2.23937 -0.2354,2.23937 -0.6958,2.14186 -1.1259,1.94986 -1.5069,1.67358 -1.8218,1.32359 -2.0571,0.91578 -2.2024,0.46828 z"
       style="fill:none;stroke:#000000"
       id="path498"
       inkscape:connector-curvature="0" />
    <path
       d="m 2541.8913,175.08523 0.9574,-0.69539 3.4915,-3.8778 2.6094,-4.51922 1.6123,-4.96247 0.5454,-5.18933 -0.5454,-5.18963 -1.6123,-4.96252 -2.6094,-4.51917 -3.4915,-3.87779 -4.2214,-3.06709 -4.7671,-2.12221 -5.1039,-1.0851 h -5.218 l -5.1043,1.0851 -4.7667,2.12221 -4.2214,3.06709 -3.4919,3.87779 -2.609,4.51917 -1.6123,4.96252 -0.3273,3.11584 h -76.6342 v 122.11196 h 117.1201 z"
       style="fill:none;stroke:#000000"
       id="path500"
       inkscape:connector-curvature="0" />
    <path
       d="m 2525.0214,166.55291 -2.2027,-0.46817 -2.0572,-0.91582 -1.8214,-1.32359 -1.5069,-1.67319 -1.1259,-1.95019 -0.6958,-2.14152 -0.2355,-2.23941 0.2355,-2.23967 0.6958,-2.14152 1.1259,-1.95024 1.5069,-1.67319 1.8214,-1.32359 2.0572,-0.91616 2.2027,-0.46791 h 2.2518 l 2.2023,0.46791 2.0572,0.91616 1.8218,1.32359 1.5069,1.67319 1.1259,1.95024 0.6958,2.14152 0.2354,2.23967 -0.2354,2.23941 -0.6958,2.14152 -1.1259,1.95019 -1.5069,1.67319 -1.8218,1.32359 -2.0572,0.91582 -2.2023,0.46817 z"
       style="fill:none;stroke:#000000"
       id="path502"
       inkscape:connector-curvature="0" />
    <path
       d="m 2462.5827,193.9708 -2.2024,-0.46828 -2.0571,-0.91582 -1.8218,-1.32359 -1.5067,-1.67358 -1.1259,-1.95019 -0.6958,-2.14152 -0.2354,-2.2393 0.2354,-2.23939 0.6958,-2.14189 1.1259,-1.94979 1.5067,-1.67361 1.8218,-1.32359 2.0571,-0.91582 2.2024,-0.46829 h 2.2519 l 2.2028,0.46829 2.0571,0.91582 1.8217,1.32359 1.5066,1.67361 1.1258,1.94979 0.6959,2.14189 0.2355,2.23939 -0.2355,2.2393 -0.6959,2.14152 -1.1258,1.95019 -1.5066,1.67358 -1.8217,1.32359 -2.0571,0.91582 -2.2028,0.46828 z"
       style="fill:none;stroke:#000000"
       id="path504"
       inkscape:connector-curvature="0" />
    <path
       d="m 2525.9103,245.77289 -1.816,-0.3859 -1.6959,-0.7551 -1.5016,-1.0911 -1.2423,-1.37959 -0.9283,-1.6077 -0.5737,-1.76569 -0.1939,-1.84611 0.1939,-1.8463 0.5737,-1.76579 0.9283,-1.6074 1.2423,-1.37953 1.5016,-1.09149 1.6959,-0.75481 1.816,-0.3863 h 1.8565 l 1.8157,0.3863 1.6959,0.75481 1.502,1.09149 1.2423,1.37953 0.9279,1.6074 0.5737,1.76579 0.1942,1.8463 -0.1942,1.84611 -0.5737,1.76569 -0.9279,1.6077 -1.2423,1.37959 -1.502,1.0911 -1.6959,0.7551 -1.8157,0.3859 z"
       style="fill:none;stroke:#000000"
       id="path506"
       inkscape:connector-curvature="0" />
    <path
       id="path530"
       d="m 2850.4163,-31.636725 h -97.0954 L 2695.452,70.5469 v 131.22553 h 154.9643 z m -19.4494,45.439825 -1.5781,-0.34112 -1.4744,-0.66741 -1.3055,-0.96735 -1.0797,-1.22232 -0.807,-1.4247904 -0.4985,-1.56726 -0.1688,-1.6348 0.1688,-1.63476 0.4985,-1.56729 0.807,-1.4248 1.0797,-1.22231002 1.3055,-0.96739 1.4744,-0.66740998 1.5781,-0.34113 h 1.6141 l 1.5781,0.34113 1.4744,0.66740998 1.3056,0.96739 1.0796,1.22231002 0.807,1.4248 0.4985,1.56729 0.1688,1.63476 -0.1688,1.6348 -0.4985,1.56726 -0.807,1.4247904 -1.0796,1.22232 -1.3056,0.96735 -1.4744,0.66741 -1.5781,0.34112 z m -80.9774,0 -1.5785,-0.34112 -1.4742,-0.66741 -1.3055,-0.96735 -1.0798,-1.22232 -0.8069,-1.4247904 -0.4987,-1.56726 -0.1688,-1.6348 0.1688,-1.63476 0.4987,-1.56729 0.8069,-1.4248 1.0798,-1.22231002 1.3055,-0.96739 1.4742,-0.66740998 1.5785,-0.34113 h 1.6137 l 1.5785,0.34113 1.4742,0.66740998 1.3055,0.96739 1.0798,1.22231002 0.8069,1.4248 0.4987,1.56729 0.1688,1.63476 -0.1688,1.6348 -0.4987,1.56726 -0.8069,1.4247904 -1.0798,1.22232 -1.3055,0.96735 -1.4742,0.66741 -1.5785,0.34112 z m 81.8886,61.62973 -1.2211,-0.26482 -1.1405,-0.51743 -1.0098,-0.74802 -0.8354,-0.94598 -0.6244,-1.10199 -0.3858,-1.21034 -0.1303,-1.26583 0.1303,-1.26579 0.3858,-1.21034 0.6244,-1.10195 0.8354,-0.94598 1.0098,-0.74806 1.1405,-0.51739 1.2211,-0.26482 h 1.2481 l 1.2212,0.26482 1.1405,0.51739 1.0097,0.74806 0.8355,0.94598 0.6244,1.10195 0.3853,1.21034 0.1307,1.26579 -0.1307,1.26583 -0.3853,1.21034 -0.6244,1.10199 -0.8355,0.94598 -1.0097,0.74802 -1.1405,0.51743 -1.2212,0.26482 z m -62.2235,96.15374 -8.8851,-1.92534 -8.2983,-3.76675 -7.3487,-5.44309 -6.0781,-6.88176 -4.5417,-8.01976 -2.807,-8.80714 -0.9495,-9.20984 0.9495,-9.2098 2.807,-8.80718 4.5417,-8.01971 6.0781,-6.8818 7.3487,-5.4431 8.2983,-3.76674 8.8851,-1.92535 h 9.0836 l 8.885,1.92535 8.2983,3.76674 7.3486,5.4431 6.0782,6.8818 4.5418,8.01971 2.8068,8.80718 0.9497,9.2098 -0.9497,9.20984 -2.8068,8.80714 -4.5418,8.01976 -6.0782,6.88176 -7.3486,5.44309 -8.2983,3.76675 -8.885,1.92534 z m -53.0774,19.41254 -1.2211,-0.26482 -1.1404,-0.51747 -1.0099,-0.74798 -0.8354,-0.94601 -0.6241,-1.102 -0.3858,-1.21033 -0.1307,-1.2658 0.1307,-1.26583 0.3858,-1.21034 0.6241,-1.10195 0.8354,-0.94597 1.0099,-0.74806 1.1404,-0.5174 1.2211,-0.26481 h 1.2484 l 1.2211,0.26481 1.1403,0.5174 1.01,0.74806 0.8353,0.94597 0.6242,1.10195 0.3857,1.21034 0.1304,1.26583 -0.1304,1.2658 -0.3857,1.21033 -0.6242,1.102 -0.8353,0.94601 -1.01,0.74798 -1.1403,0.51747 -1.2211,0.26482 z"
       inkscape:connector-curvature="0"
       style="fill:none;stroke:#000000;stroke-width:1;stroke-miterlimit:4;stroke-dasharray:none" />
    <path
       id="path555"
       d="m 1785.0593,-95.24995 -57.8689,-102.18331 h -97.0954 v 233.4084 h 154.9643 z m -56.1514,-56.74361 -1.5782,-0.34113 -1.4744,-0.66737 -1.3055,-0.96739 -1.0797,-1.22232 -0.807,-1.4248 -0.4985,-1.56725 -0.1688,-1.63477 0.1688,-1.63476 0.4985,-1.56729 0.807,-1.4248 1.0797,-1.22232 1.3055,-0.96735 1.4744,-0.66741 1.5782,-0.34113 h 1.614 l 1.5782,0.34113 1.4743,0.66741 1.3056,0.96735 1.0796,1.22232 0.807,1.4248 0.4986,1.56729 0.1688,1.63476 -0.1688,1.63477 -0.4986,1.56725 -0.807,1.4248 -1.0796,1.22232 -1.3056,0.96739 -1.4743,0.66737 -1.5782,0.34113 z m -80.9776,0 -1.5782,-0.34113 -1.4744,-0.66737 -1.3055,-0.96739 -1.0796,-1.22232 -0.8071,-1.4248 -0.4985,-1.56725 -0.1688,-1.63477 0.1688,-1.63476 0.4985,-1.56729 0.8071,-1.4248 1.0796,-1.22232 1.3055,-0.96735 1.4744,-0.66741 1.5782,-0.34113 h 1.614 l 1.5782,0.34113 1.4743,0.66741 1.3056,0.96735 1.0796,1.22232 0.807,1.4248 0.4986,1.56729 0.1688,1.63476 -0.1688,1.63477 -0.4986,1.56725 -0.807,1.4248 -1.0796,1.22232 -1.3056,0.96739 -1.4743,0.66737 -1.5782,0.34113 z m -0.5453,61.6295 -1.2211,-0.26482 -1.1405,-0.51743 -1.0098,-0.74802 -0.8354,-0.94598 -0.6244,-1.10195 -0.3858,-1.21034 -0.1303,-1.26583 0.1303,-1.2658 0.3858,-1.21034 0.6244,-1.10196 0.8354,-0.94597 1.0098,-0.74802 1.1405,-0.51744 1.2211,-0.26481 h 1.2481 l 1.2212,0.26481 1.1404,0.51744 1.0098,0.74802 0.8354,0.94597 0.6244,1.10196 0.3858,1.21034 0.1303,1.2658 -0.1303,1.26583 -0.3858,1.21034 -0.6244,1.10195 -0.8354,0.94598 -1.0098,0.74802 -1.1404,0.51743 -1.2212,0.26482 z m 54.3881,96.15341 -8.885,-1.92534 -8.2983,-3.76671 -7.3487,-5.44311 -6.0781,-6.88173 -4.5419,-8.01972 -2.8068,-8.80712 -0.9496,-9.20981 0.9496,-9.20978 2.8068,-8.80711 4.5419,-8.01973 6.0781,-6.88177 7.3487,-5.44306 8.2983,-3.76672 8.885,-1.92534 h 9.0836 l 8.885,1.92534 8.2983,3.76672 7.3486,5.44306 6.0782,6.88177 4.5418,8.01973 2.8068,8.80711 0.9497,9.20978 -0.9497,9.20981 -2.8068,8.80712 -4.5418,8.01972 -6.0782,6.88173 -7.3486,5.44311 -8.2983,3.76671 -8.885,1.92534 z m 60.9128,19.41245 -1.2212,-0.26481 -1.1405,-0.51743 -1.0098,-0.74803 -0.8354,-0.94597 -0.6244,-1.102 -0.3857,-1.2103 -0.1304,-1.26583 0.1304,-1.2658 0.3857,-1.21033 0.6244,-1.10196 0.8354,-0.94601 1.0098,-0.74799 1.1405,-0.51743 1.2212,-0.26482 h 1.248 l 1.2212,0.26482 1.1405,0.51743 1.0098,0.74799 0.8354,0.94601 0.6244,1.10196 0.3857,1.21033 0.1304,1.2658 -0.1304,1.26583 -0.3857,1.2103 -0.6244,1.102 -0.8354,0.94597 -1.0098,0.74803 -1.1405,0.51743 -1.2212,0.26481 z"
       inkscape:connector-curvature="0"
       style="fill:none;stroke:#000000;stroke-width:1;stroke-miterlimit:4;stroke-dasharray:none" />
    <path
       id="path1391"
       d="M 2338.2432,59.56493 V 40.9014 h 187.9359 v 18.66353 h 45.1046 v 111.98119 h 30.0698 V 22.23786 h -338.2846 v 37.32707 z m 242.8433,74.10803 0.2292,-1.06867 0.4473,-0.99813 0.6465,-0.88391 0.8157,-0.73086 0.9547,-0.54646 1.0449,-0.33744 1.0938,-0.11422 1.0938,0.11422 1.0449,0.33744 0.9547,0.54646 0.8157,0.73086 0.6465,0.88391 0.4473,0.99813 0.2292,1.06867 v 1.09219 l -0.2292,1.06867 -0.4473,0.99813 -0.6465,0.88391 -0.8157,0.73086 -0.9547,0.54646 -1.0449,0.33744 -1.0938,0.11422 -1.0938,-0.11422 -1.0449,-0.33744 -0.9547,-0.54646 -0.8157,-0.73086 -0.6465,-0.88391 -0.4473,-0.99813 -0.2292,-1.06867 z m -22.5523,-93.31766 0.2293,-1.06867 0.4472,-0.99813 0.6465,-0.8839 0.8157,-0.73087 0.9547,-0.54647 1.0449,-0.33743 1.0938,-0.11423 1.0938,0.11423 1.0449,0.33743 0.9547,0.54647 0.8157,0.73087 0.6465,0.8839 0.4472,0.99813 0.2293,1.06867 v 1.09219 l -0.2293,1.06867 -0.4472,0.99813 -0.6465,0.8839 -0.8157,0.73087 -0.9547,0.54646 -1.0449,0.33745 -1.0938,0.11421 -1.0938,-0.11421 -1.0449,-0.33745 -0.9547,-0.54646 -0.8157,-0.73087 -0.6465,-0.8839 -0.4472,-0.99813 -0.2293,-1.06867 z m -263.1114,0 0.2286,-1.06867 0.4476,-0.99813 0.6465,-0.8839 0.8175,-0.73087 0.9529,-0.54647 1.046,-0.33743 1.0942,-0.11423 1.0942,0.11423 1.046,0.33743 0.9528,0.54647 0.8176,0.73087 0.6465,0.8839 0.4476,0.99813 0.2285,1.06867 v 1.09219 l -0.2285,1.06867 -0.4476,0.99813 -0.6465,0.8839 -0.8176,0.73087 -0.9528,0.54646 -1.046,0.33745 -1.0942,0.11421 -1.0942,-0.11421 -1.046,-0.33745 -0.9529,-0.54646 -0.8175,-0.73087 -0.6465,-0.8839 -0.4476,-0.99813 -0.2286,-1.06867 z"
       inkscape:connector-curvature="0"
       style="fill:none;stroke:#000000;stroke-width:1;stroke-miterlimit:4;stroke-dasharray:none" />
    <path
       id="path1391-7"
       d="m 2189.6689,-39.11057 v 18.6636 H 2001.733 v -18.6636 h -45.1046 v -111.9812 h -30.0698 v 149.3083 h 338.2847 v -37.3271 z m -242.8433,-74.108 -0.2292,1.0687 -0.4473,0.9981 -0.6465,0.8839 -0.8157,0.7309 -0.9547,0.5464 -1.0449,0.3375 -1.0938,0.1142 -1.0938,-0.1142 -1.0449,-0.3375 -0.9547,-0.5464 -0.8156,-0.7309 -0.6466,-0.8839 -0.4472,-0.9981 -0.2293,-1.0687 v -1.0922 l 0.2293,-1.0687 0.4472,-0.9981 0.6466,-0.8839 0.8156,-0.7309 0.9547,-0.5464 1.0449,-0.3375 1.0938,-0.1142 1.0938,0.1142 1.0449,0.3375 0.9547,0.5464 0.8157,0.7309 0.6465,0.8839 0.4473,0.9981 0.2292,1.0687 z m 22.5523,93.3177 -0.2292,1.0686 -0.4473,0.9982 -0.6465,0.8839 -0.8156,0.7308 -0.9548,0.5465 -1.0449,0.3374 -1.0938,0.1143 -1.0938,-0.1143 -1.0449,-0.3374 -0.9547,-0.5465 -0.8156,-0.7308 -0.6465,-0.8839 -0.4473,-0.9982 -0.2293,-1.0686 v -1.0922 l 0.2293,-1.0687 0.4473,-0.9981 0.6465,-0.8839 0.8156,-0.7309 0.9547,-0.5465 1.0449,-0.3374 1.0938,-0.1142 1.0938,0.1142 1.0449,0.3374 0.9548,0.5465 0.8156,0.7309 0.6465,0.8839 0.4473,0.9981 0.2292,1.0687 z m 263.1115,0 -0.2286,1.0686 -0.4477,0.9982 -0.6465,0.8839 -0.8175,0.7308 -0.9529,0.5465 -1.046,0.3374 -1.0942,0.1143 -1.0941,-0.1143 -1.0461,-0.3374 -0.9528,-0.5465 -0.8175,-0.7308 -0.6465,-0.8839 -0.4477,-0.9982 -0.2285,-1.0686 v -1.0922 l 0.2285,-1.0687 0.4477,-0.9981 0.6465,-0.8839 0.8175,-0.7309 0.9528,-0.5465 1.0461,-0.3374 1.0941,-0.1142 1.0942,0.1142 1.046,0.3374 0.9529,0.5465 0.8175,0.7309 0.6465,0.8839 0.4477,0.9981 0.2286,1.0687 z"
       inkscape:connector-curvature="0"
       style="fill:none;stroke:#000000;stroke-width:1;stroke-miterlimit:4;stroke-dasharray:none" />
    <path
       id="path1391-7-7"
       d="m 2408.618,-54.06315 v -18.6636 h 187.9359 v 18.6636 h 45.1046 v 111.9812 h 30.0698 v -149.3083 h -338.2847 v 37.3271 z m 242.8433,74.108 0.2292,-1.0687 0.4473,-0.9981 0.6465,-0.8839 0.8156,-0.7309 0.9548,-0.5464 1.0449,-0.3375 1.0938,-0.1142 1.0938,0.1142 1.0449,0.3375 0.9547,0.5464 0.8156,0.7309 0.6466,0.8839 0.4472,0.9981 0.2293,1.0687 v 1.0922 l -0.2293,1.0687 -0.4472,0.9981 -0.6466,0.8839 -0.8156,0.7309 -0.9547,0.5464 -1.0449,0.3375 -1.0938,0.1142 -1.0938,-0.1142 -1.0449,-0.3375 -0.9548,-0.5464 -0.8156,-0.7309 -0.6465,-0.8839 -0.4473,-0.9981 -0.2292,-1.0687 z m -22.5524,-93.3177 0.2293,-1.0686 0.4473,-0.9982 0.6465,-0.8839 0.8156,-0.7308 0.9548,-0.5465 1.0449,-0.3374 1.0938,-0.1143 1.0938,0.1143 1.0449,0.3374 0.9547,0.5465 0.8156,0.7308 0.6465,0.8839 0.4473,0.9982 0.2293,1.0686 v 1.0922 l -0.2293,1.0687 -0.4473,0.9981 -0.6465,0.8839 -0.8156,0.7309 -0.9547,0.5465 -1.0449,0.3374 -1.0938,0.1142 -1.0938,-0.1142 -1.0449,-0.3374 -0.9548,-0.5465 -0.8156,-0.7309 -0.6465,-0.8839 -0.4473,-0.9981 -0.2293,-1.0687 z m -263.1114,0 0.2286,-1.0686 0.4477,-0.9982 0.6465,-0.8839 0.8175,-0.7308 0.9528,-0.5465 1.0461,-0.3374 1.0942,-0.1143 1.0941,0.1143 1.0461,0.3374 0.9528,0.5465 0.8175,0.7308 0.6465,0.8839 0.4477,0.9982 0.2285,1.0686 v 1.0922 l -0.2285,1.0687 -0.4477,0.9981 -0.6465,0.8839 -0.8175,0.7309 -0.9528,0.5465 -1.0461,0.3374 -1.0941,0.1142 -1.0942,-0.1142 -1.0461,-0.3374 -0.9528,-0.5465 -0.8175,-0.7309 -0.6465,-0.8839 -0.4477,-0.9981 -0.2286,-1.0687 z"
       inkscape:connector-curvature="0"
       style="fill:none;stroke:#000000;stroke-width:1;stroke-miterlimit:4;stroke-dasharray:none" />
    <path
       id="path1391-7-4"
       d="m 2130.4639,26.59095 v 18.6636 H 1942.528 v -18.6636 h -45.1046 v -111.9812 h -30.0698 v 149.3083 h 338.2847 v -37.3271 z m -242.8433,-74.108 -0.2292,1.0687 -0.4473,0.9981 -0.6465,0.8839 -0.8157,0.7309 -0.9547,0.5464 -1.0449,0.3375 -1.0938,0.1142 -1.0938,-0.1142 -1.0449,-0.3375 -0.9547,-0.5464 -0.8156,-0.7309 -0.6466,-0.8839 -0.4472,-0.9981 -0.2293,-1.0687 v -1.0922 l 0.2293,-1.0687 0.4472,-0.9981 0.6466,-0.8839 0.8156,-0.7309 0.9547,-0.5464 1.0449,-0.3375 1.0938,-0.1142 1.0938,0.1142 1.0449,0.3375 0.9547,0.5464 0.8157,0.7309 0.6465,0.8839 0.4473,0.9981 0.2292,1.0687 z m 22.5524,93.3177 -0.2293,1.0686 -0.4473,0.9982 -0.6465,0.8839 -0.8156,0.7308 -0.9548,0.5465 -1.0449,0.3374 -1.0938,0.1143 -1.0938,-0.1143 -1.0449,-0.3374 -0.9547,-0.5465 -0.8156,-0.7308 -0.6465,-0.8839 -0.4473,-0.9982 -0.2293,-1.0686 v -1.0922 l 0.2293,-1.0687 0.4473,-0.9981 0.6465,-0.8839 0.8156,-0.7309 0.9547,-0.5465 1.0449,-0.3374 1.0938,-0.1142 1.0938,0.1142 1.0449,0.3374 0.9548,0.5465 0.8156,0.7309 0.6465,0.8839 0.4473,0.9981 0.2293,1.0687 z m 263.1114,0 -0.2286,1.0686 -0.4477,0.9982 -0.6465,0.8839 -0.8175,0.7308 -0.9529,0.5465 -1.046,0.3374 -1.0942,0.1143 -1.0941,-0.1143 -1.0461,-0.3374 -0.9528,-0.5465 -0.8175,-0.7308 -0.6465,-0.8839 -0.4477,-0.9982 -0.2285,-1.0686 v -1.0922 l 0.2285,-1.0687 0.4477,-0.9981 0.6465,-0.8839 0.8175,-0.7309 0.9528,-0.5465 1.0461,-0.3374 1.0941,-0.1142 1.0942,0.1142 1.046,0.3374 0.9529,0.5465 0.8175,0.7309 0.6465,0.8839 0.4477,0.9981 0.2286,1.0687 z"
       inkscape:connector-curvature="0"
       style="fill:none;stroke:#000000;stroke-width:1;stroke-miterlimit:4;stroke-dasharray:none" />
  </g>
</svg>
