  0
SECTION
  2
HEADER
  9
$ACADVER
  1
AC1014
  9
$HANDSEED
  5
FFFF
  9
$MEASUREMENT
 70
     1
  0
ENDSEC
  0
SECTION
  2
TABLES
  0
TABLE
  2
VPORT
  5
8
330
0
100
AcDbSymbolTable
 70
     4
  0
VPORT
  5
2E
330
8
100
AcDbSymbolTableRecord
100
AcDbViewportTableRecord
  2
*ACTIVE
 70
     0
 10
0.0
 20
0.0
 11
1.0
 21
1.0
 12
210.0
 22
148.5
 13
0.0
 23
0.0
 14
10.0
 24
10.0
 15
10.0
 25
10.0
 16
0.0
 26
0.0
 36
1.0
 17
0.0
 27
0.0
 37
0.0
 40
341.0
 41
1.24
 42
50.0
 43
0.0
 44
0.0
 50
0.0
 51
0.0
 71
     0
 72
   100
 73
     1
 74
     3
 75
     0
 76
     0
 77
     0
 78
     0
  0
ENDTAB
  0
TABLE
  2
LTYPE
  5
5
330
0
100
AcDbSymbolTable
 70
     1
  0
LTYPE
  5
14
330
5
100
AcDbSymbolTableRecord
100
AcDbLinetypeTableRecord
  2
BYBLOCK
 70
     0
  3

 72
    65
 73
     0
 40
0.0
  0
LTYPE
  5
15
330
5
100
AcDbSymbolTableRecord
100
AcDbLinetypeTableRecord
  2
BYLAYER
 70
     0
  3

 72
    65
 73
     0
 40
0.0
  0
LTYPE
  5
16
330
5
100
AcDbSymbolTableRecord
100
AcDbLinetypeTableRecord
  2
CONTINUOUS
 70
     0
  3
Solid line
 72
    65
 73
     0
 40
0.0
  0
ENDTAB
  0
TABLE
  2
LAYER
  5
2
100
AcDbSymbolTable
 70
2
  0
LAYER
  5
50
100
AcDbSymbolTableRecord
100
AcDbLayerTableRecord
  2
0
 70
0
  6
CONTINUOUS
  0
LAYER
  5
51
100
AcDbSymbolTableRecord
100
AcDbLayerTableRecord
  2
Layer_1
 70
0
  6
CONTINUOUS
  0
ENDTAB
  0
TABLE
  2
STYLE
  5
3
330
0
100
AcDbSymbolTable
 70
     1
  0
STYLE
  5
11
330
3
100
AcDbSymbolTableRecord
100
AcDbTextStyleTableRecord
  2
STANDARD
 70
     0
 40
0.0
 41
1.0
 50
0.0
 71
     0
 42
2.5
  3
txt
  4

  0
ENDTAB
  0
TABLE
  2
VIEW
  5
6
330
0
100
AcDbSymbolTable
 70
     0
  0
ENDTAB
  0
TABLE
  2
UCS
  5
7
330
0
100
AcDbSymbolTable
 70
     0
  0
ENDTAB
  0
TABLE
  2
APPID
  5
9
330
0
100
AcDbSymbolTable
 70
     2
  0
APPID
  5
12
330
9
100
AcDbSymbolTableRecord
100
AcDbRegAppTableRecord
  2
ACAD
 70
     0
  0
ENDTAB
  0
TABLE
  2
DIMSTYLE
  5
A
330
0
100
AcDbSymbolTable
 70
     1
  0
DIMSTYLE
105
27
330
A
100
AcDbSymbolTableRecord
100
AcDbDimStyleTableRecord
  2
ISO-25
 70
     0
  3

  4

  5

  6

  7

 40
1.0
 41
2.5
 42
0.625
 43
3.75
 44
1.25
 45
0.0
 46
0.0
 47
0.0
 48
0.0
140
2.5
141
2.5
142
0.0
143
0.03937007874016
144
1.0
145
0.0
146
1.0
147
0.625
 71
     0
 72
     0
 73
     0
 74
     0
 75
     0
 76
     0
 77
     1
 78
     8
170
     0
171
     3
172
     1
173
     0
174
     0
175
     0
176
     0
177
     0
178
     0
270
     2
271
     2
272
     2
273
     2
274
     3
340
11
275
     0
280
     0
281
     0
282
     0
283
     0
284
     8
285
     0
286
     0
287
     3
288
     0
  0
ENDTAB
  0
TABLE
  2
BLOCK_RECORD
  5
1
330
0
100
AcDbSymbolTable
 70
     1
  0
BLOCK_RECORD
  5
1F
330
1
100
AcDbSymbolTableRecord
100
AcDbBlockTableRecord
  2
*MODEL_SPACE
  0
BLOCK_RECORD
  5
1B
330
1
100
AcDbSymbolTableRecord
100
AcDbBlockTableRecord
  2
*PAPER_SPACE
  0
ENDTAB
  0
ENDSEC
  0
SECTION
  2
BLOCKS
  0
BLOCK
  5
20
330
1F
100
AcDbEntity
  8
0
100
AcDbBlockBegin
  2
*MODEL_SPACE
 70
     0
 10
0.0
 20
0.0
 30
0.0
  3
*MODEL_SPACE
  1

  0
ENDBLK
  5
21
330
1F
100
AcDbEntity
  8
0
100
AcDbBlockEnd
  0
BLOCK
  5
1C
330
1B
100
AcDbEntity
 67
     1
  8
0
100
AcDbBlockBegin
  2
*PAPER_SPACE
  1

  0
ENDBLK
  5
1D
330
1B
100
AcDbEntity
 67
     1
  8
0
100
AcDbBlockEnd
  0
ENDSEC
  0
SECTION
  2
ENTITIES
  0
LWPOLYLINE
  5
100
100
AcDbEntity
  8
Layer_1
 62
7
100
AcDbPolyline
 90
1
 70
1
 10
-0.479167
 20
12.440476
 30
0.0
  0
LWPOLYLINE
  5
101
100
AcDbEntity
  8
Layer_1
 62
7
100
AcDbPolyline
 90
21
 70
1
 10
14.623764
 20
0.201793
 30
0.0
 10
14.649557
 20
0.447028
 30
0.0
 10
14.725764
 20
0.681542
 30
0.0
 10
14.849038
 20
0.895089
 30
0.0
 10
15.014074
 20
1.078338
 30
0.0
 10
15.213593
 20
1.223279
 30
0.0
 10
15.438868
 20
1.323574
 30
0.0
 10
15.680108
 20
1.374839
 30
0.0
 10
15.926736
 20
1.374839
 30
0.0
 10
16.167977
 20
1.323574
 30
0.0
 10
16.240014
 20
1.291495
 30
0.0
 10
16.240014
 20
14.169939
 30
0.0
 10
15.846795
 20
14.169939
 30
0.0
 10
15.846795
 20
14.563108
 30
0.0
 10
0.467855
 20
14.563108
 30
0.0
 10
0.467855
 20
14.169939
 30
0.0
 10
0.074635
 20
14.169939
 30
0.0
 10
0.074635
 20
0.398377
 30
0.0
 10
0.467855
 20
0.398377
 30
0.0
 10
0.467855
 20
0.005208
 30
0.0
 10
14.644447
 20
0.005208
 30
0.0
  0
LWPOLYLINE
  5
102
100
AcDbEntity
  8
Layer_1
 62
7
100
AcDbPolyline
 90
30
 70
1
 10
0.830246
 20
13.669474
 30
0.0
 10
0.769942
 20
13.682300
 30
0.0
 10
0.713617
 20
13.707382
 30
0.0
 10
0.663737
 20
13.743593
 30
0.0
 10
0.622484
 20
13.789438
 30
0.0
 10
0.591656
 20
13.842791
 30
0.0
 10
0.572604
 20
13.901452
 30
0.0
 10
0.566154
 20
13.962746
 30
0.0
 10
0.572604
 20
14.024042
 30
0.0
 10
0.591656
 20
14.082702
 30
0.0
 10
0.622484
 20
14.136055
 30
0.0
 10
0.663737
 20
14.181900
 30
0.0
 10
0.713617
 20
14.218111
 30
0.0
 10
0.769942
 20
14.243194
 30
0.0
 10
0.830246
 20
14.256019
 30
0.0
 10
0.891902
 20
14.256019
 30
0.0
 10
0.952207
 20
14.243194
 30
0.0
 10
1.008532
 20
14.218111
 30
0.0
 10
1.058411
 20
14.181900
 30
0.0
 10
1.099665
 20
14.136055
 30
0.0
 10
1.130493
 20
14.082702
 30
0.0
 10
1.149544
 20
14.024042
 30
0.0
 10
1.155994
 20
13.962746
 30
0.0
 10
1.149544
 20
13.901452
 30
0.0
 10
1.130493
 20
13.842791
 30
0.0
 10
1.099665
 20
13.789438
 30
0.0
 10
1.058411
 20
13.743593
 30
0.0
 10
1.008532
 20
13.707382
 30
0.0
 10
0.952207
 20
13.682300
 30
0.0
 10
0.891902
 20
13.669474
 30
0.0
  0
LWPOLYLINE
  5
103
100
AcDbEntity
  8
Layer_1
 62
7
100
AcDbPolyline
 90
30
 70
1
 10
15.379375
 20
13.669474
 30
0.0
 10
15.319054
 20
13.682300
 30
0.0
 10
15.262745
 20
13.707382
 30
0.0
 10
15.212884
 20
13.743593
 30
0.0
 10
15.171597
 20
13.789438
 30
0.0
 10
15.140768
 20
13.842791
 30
0.0
 10
15.121736
 20
13.901452
 30
0.0
 10
15.115286
 20
13.962746
 30
0.0
 10
15.121736
 20
14.024042
 30
0.0
 10
15.140768
 20
14.082702
 30
0.0
 10
15.171597
 20
14.136055
 30
0.0
 10
15.212884
 20
14.181900
 30
0.0
 10
15.262745
 20
14.218111
 30
0.0
 10
15.319054
 20
14.243194
 30
0.0
 10
15.379375
 20
14.256019
 30
0.0
 10
15.441030
 20
14.256019
 30
0.0
 10
15.501350
 20
14.243194
 30
0.0
 10
15.557660
 20
14.218111
 30
0.0
 10
15.607521
 20
14.181900
 30
0.0
 10
15.648808
 20
14.136055
 30
0.0
 10
15.679636
 20
14.082702
 30
0.0
 10
15.698668
 20
14.024042
 30
0.0
 10
15.705118
 20
13.962746
 30
0.0
 10
15.698668
 20
13.901452
 30
0.0
 10
15.679636
 20
13.842791
 30
0.0
 10
15.648808
 20
13.789438
 30
0.0
 10
15.607521
 20
13.743593
 30
0.0
 10
15.557660
 20
13.707382
 30
0.0
 10
15.501350
 20
13.682300
 30
0.0
 10
15.441030
 20
13.669474
 30
0.0
  0
LWPOLYLINE
  5
104
100
AcDbEntity
  8
Layer_1
 62
7
100
AcDbPolyline
 90
30
 70
1
 10
2.544314
 20
12.396349
 30
0.0
 10
2.529438
 20
12.399534
 30
0.0
 10
2.515543
 20
12.405693
 30
0.0
 10
2.503237
 20
12.414621
 30
0.0
 10
2.493057
 20
12.425944
 30
0.0
 10
2.485447
 20
12.439111
 30
0.0
 10
2.480751
 20
12.453544
 30
0.0
 10
2.479161
 20
12.468682
 30
0.0
 10
2.480751
 20
12.483818
 30
0.0
 10
2.485447
 20
12.498251
 30
0.0
 10
2.493057
 20
12.511418
 30
0.0
 10
2.503237
 20
12.522741
 30
0.0
 10
2.515543
 20
12.531669
 30
0.0
 10
2.529438
 20
12.537828
 30
0.0
 10
2.544314
 20
12.541013
 30
0.0
 10
2.559523
 20
12.541013
 30
0.0
 10
2.574399
 20
12.537828
 30
0.0
 10
2.588294
 20
12.531669
 30
0.0
 10
2.600600
 20
12.522741
 30
0.0
 10
2.610780
 20
12.511418
 30
0.0
 10
2.618375
 20
12.498251
 30
0.0
 10
2.623071
 20
12.483818
 30
0.0
 10
2.624662
 20
12.468682
 30
0.0
 10
2.623071
 20
12.453544
 30
0.0
 10
2.618375
 20
12.439111
 30
0.0
 10
2.610780
 20
12.425944
 30
0.0
 10
2.600600
 20
12.414621
 30
0.0
 10
2.588294
 20
12.405693
 30
0.0
 10
2.574399
 20
12.399534
 30
0.0
 10
2.559523
 20
12.396349
 30
0.0
  0
LWPOLYLINE
  5
105
100
AcDbEntity
  8
Layer_1
 62
7
100
AcDbPolyline
 90
30
 70
1
 10
9.622284
 20
12.396349
 30
0.0
 10
9.607381
 20
12.399534
 30
0.0
 10
9.593500
 20
12.405693
 30
0.0
 10
9.581194
 20
12.414621
 30
0.0
 10
9.571014
 20
12.425944
 30
0.0
 10
9.563420
 20
12.439111
 30
0.0
 10
9.558694
 20
12.453544
 30
0.0
 10
9.557119
 20
12.468682
 30
0.0
 10
9.558694
 20
12.483818
 30
0.0
 10
9.563420
 20
12.498251
 30
0.0
 10
9.571014
 20
12.511418
 30
0.0
 10
9.581194
 20
12.522741
 30
0.0
 10
9.593500
 20
12.531669
 30
0.0
 10
9.607381
 20
12.537828
 30
0.0
 10
9.622284
 20
12.541013
 30
0.0
 10
9.637463
 20
12.541013
 30
0.0
 10
9.652365
 20
12.537828
 30
0.0
 10
9.666246
 20
12.531669
 30
0.0
 10
9.678551
 20
12.522741
 30
0.0
 10
9.688732
 20
12.511418
 30
0.0
 10
9.696326
 20
12.498251
 30
0.0
 10
9.701037
 20
12.483818
 30
0.0
 10
9.702612
 20
12.468682
 30
0.0
 10
9.701037
 20
12.453544
 30
0.0
 10
9.696326
 20
12.439111
 30
0.0
 10
9.688732
 20
12.425944
 30
0.0
 10
9.678551
 20
12.414621
 30
0.0
 10
9.666246
 20
12.405693
 30
0.0
 10
9.652365
 20
12.399534
 30
0.0
 10
9.637463
 20
12.396349
 30
0.0
  0
LWPOLYLINE
  5
106
100
AcDbEntity
  8
Layer_1
 62
7
100
AcDbPolyline
 90
30
 70
1
 10
13.161261
 20
12.396349
 30
0.0
 10
13.146358
 20
12.399534
 30
0.0
 10
13.132477
 20
12.405693
 30
0.0
 10
13.120171
 20
12.414621
 30
0.0
 10
13.109991
 20
12.425944
 30
0.0
 10
13.102396
 20
12.439111
 30
0.0
 10
13.097684
 20
12.453544
 30
0.0
 10
13.096110
 20
12.468682
 30
0.0
 10
13.097684
 20
12.483818
 30
0.0
 10
13.102396
 20
12.498251
 30
0.0
 10
13.109991
 20
12.511418
 30
0.0
 10
13.120171
 20
12.522741
 30
0.0
 10
13.132477
 20
12.531669
 30
0.0
 10
13.146358
 20
12.537828
 30
0.0
 10
13.161261
 20
12.541013
 30
0.0
 10
13.176440
 20
12.541013
 30
0.0
 10
13.191342
 20
12.537828
 30
0.0
 10
13.205222
 20
12.531669
 30
0.0
 10
13.217528
 20
12.522741
 30
0.0
 10
13.227709
 20
12.511418
 30
0.0
 10
13.235303
 20
12.498251
 30
0.0
 10
13.240014
 20
12.483818
 30
0.0
 10
13.241589
 20
12.468682
 30
0.0
 10
13.240014
 20
12.453544
 30
0.0
 10
13.235303
 20
12.439111
 30
0.0
 10
13.227709
 20
12.425944
 30
0.0
 10
13.217528
 20
12.414621
 30
0.0
 10
13.205222
 20
12.405693
 30
0.0
 10
13.191342
 20
12.399534
 30
0.0
 10
13.176440
 20
12.396349
 30
0.0
  0
LWPOLYLINE
  5
107
100
AcDbEntity
  8
Layer_1
 62
7
100
AcDbPolyline
 90
30
 70
1
 10
6.083307
 20
12.396349
 30
0.0
 10
6.068404
 20
12.399534
 30
0.0
 10
6.054523
 20
12.405693
 30
0.0
 10
6.042217
 20
12.414621
 30
0.0
 10
6.032037
 20
12.425944
 30
0.0
 10
6.024442
 20
12.439111
 30
0.0
 10
6.019716
 20
12.453544
 30
0.0
 10
6.018142
 20
12.468682
 30
0.0
 10
6.019716
 20
12.483818
 30
0.0
 10
6.024442
 20
12.498251
 30
0.0
 10
6.032037
 20
12.511418
 30
0.0
 10
6.042217
 20
12.522741
 30
0.0
 10
6.054523
 20
12.531669
 30
0.0
 10
6.068404
 20
12.537828
 30
0.0
 10
6.083307
 20
12.541013
 30
0.0
 10
6.098485
 20
12.541013
 30
0.0
 10
6.113388
 20
12.537828
 30
0.0
 10
6.127268
 20
12.531669
 30
0.0
 10
6.139574
 20
12.522741
 30
0.0
 10
6.149755
 20
12.511418
 30
0.0
 10
6.157349
 20
12.498251
 30
0.0
 10
6.162060
 20
12.483818
 30
0.0
 10
6.163635
 20
12.468682
 30
0.0
 10
6.162060
 20
12.453544
 30
0.0
 10
6.157349
 20
12.439111
 30
0.0
 10
6.149755
 20
12.425944
 30
0.0
 10
6.139574
 20
12.414621
 30
0.0
 10
6.127268
 20
12.405693
 30
0.0
 10
6.113388
 20
12.399534
 30
0.0
 10
6.098485
 20
12.396349
 30
0.0
  0
LWPOLYLINE
  5
108
100
AcDbEntity
  8
Layer_1
 62
7
100
AcDbPolyline
 90
30
 70
1
 10
6.083307
 20
8.857821
 30
0.0
 10
6.068404
 20
8.861005
 30
0.0
 10
6.054523
 20
8.867165
 30
0.0
 10
6.042217
 20
8.876092
 30
0.0
 10
6.032037
 20
8.887415
 30
0.0
 10
6.024442
 20
8.900583
 30
0.0
 10
6.019716
 20
8.915015
 30
0.0
 10
6.018142
 20
8.930153
 30
0.0
 10
6.019716
 20
8.945290
 30
0.0
 10
6.024442
 20
8.959722
 30
0.0
 10
6.032037
 20
8.972890
 30
0.0
 10
6.042217
 20
8.984213
 30
0.0
 10
6.054523
 20
8.993140
 30
0.0
 10
6.068404
 20
8.999300
 30
0.0
 10
6.083307
 20
9.002484
 30
0.0
 10
6.098485
 20
9.002484
 30
0.0
 10
6.113388
 20
8.999300
 30
0.0
 10
6.127268
 20
8.993140
 30
0.0
 10
6.139574
 20
8.984213
 30
0.0
 10
6.149755
 20
8.972890
 30
0.0
 10
6.157349
 20
8.959722
 30
0.0
 10
6.162060
 20
8.945290
 30
0.0
 10
6.163635
 20
8.930153
 30
0.0
 10
6.162060
 20
8.915015
 30
0.0
 10
6.157349
 20
8.900583
 30
0.0
 10
6.149755
 20
8.887415
 30
0.0
 10
6.139574
 20
8.876092
 30
0.0
 10
6.127268
 20
8.867165
 30
0.0
 10
6.113388
 20
8.861005
 30
0.0
 10
6.098485
 20
8.857821
 30
0.0
  0
LWPOLYLINE
  5
109
100
AcDbEntity
  8
Layer_1
 62
7
100
AcDbPolyline
 90
30
 70
1
 10
2.544314
 20
8.857821
 30
0.0
 10
2.529438
 20
8.861005
 30
0.0
 10
2.515543
 20
8.867165
 30
0.0
 10
2.503237
 20
8.876092
 30
0.0
 10
2.493057
 20
8.887415
 30
0.0
 10
2.485447
 20
8.900583
 30
0.0
 10
2.480751
 20
8.915015
 30
0.0
 10
2.479161
 20
8.930153
 30
0.0
 10
2.480751
 20
8.945290
 30
0.0
 10
2.485447
 20
8.959722
 30
0.0
 10
2.493057
 20
8.972890
 30
0.0
 10
2.503237
 20
8.984213
 30
0.0
 10
2.515543
 20
8.993140
 30
0.0
 10
2.529438
 20
8.999300
 30
0.0
 10
2.544314
 20
9.002484
 30
0.0
 10
2.559523
 20
9.002484
 30
0.0
 10
2.574399
 20
8.999300
 30
0.0
 10
2.588294
 20
8.993140
 30
0.0
 10
2.600600
 20
8.984213
 30
0.0
 10
2.610780
 20
8.972890
 30
0.0
 10
2.618375
 20
8.959722
 30
0.0
 10
2.623071
 20
8.945290
 30
0.0
 10
2.624662
 20
8.930153
 30
0.0
 10
2.623071
 20
8.915015
 30
0.0
 10
2.618375
 20
8.900583
 30
0.0
 10
2.610780
 20
8.887415
 30
0.0
 10
2.600600
 20
8.876092
 30
0.0
 10
2.588294
 20
8.867165
 30
0.0
 10
2.574399
 20
8.861005
 30
0.0
 10
2.559523
 20
8.857821
 30
0.0
  0
LWPOLYLINE
  5
10a
100
AcDbEntity
  8
Layer_1
 62
7
100
AcDbPolyline
 90
30
 70
1
 10
9.622284
 20
8.857821
 30
0.0
 10
9.607381
 20
8.861005
 30
0.0
 10
9.593500
 20
8.867165
 30
0.0
 10
9.581194
 20
8.876092
 30
0.0
 10
9.571014
 20
8.887415
 30
0.0
 10
9.563420
 20
8.900583
 30
0.0
 10
9.558694
 20
8.915015
 30
0.0
 10
9.557119
 20
8.930153
 30
0.0
 10
9.558694
 20
8.945290
 30
0.0
 10
9.563420
 20
8.959722
 30
0.0
 10
9.571014
 20
8.972890
 30
0.0
 10
9.581194
 20
8.984213
 30
0.0
 10
9.593500
 20
8.993140
 30
0.0
 10
9.607381
 20
8.999300
 30
0.0
 10
9.622284
 20
9.002484
 30
0.0
 10
9.637463
 20
9.002484
 30
0.0
 10
9.652365
 20
8.999300
 30
0.0
 10
9.666246
 20
8.993140
 30
0.0
 10
9.678551
 20
8.984213
 30
0.0
 10
9.688732
 20
8.972890
 30
0.0
 10
9.696326
 20
8.959722
 30
0.0
 10
9.701037
 20
8.945290
 30
0.0
 10
9.702612
 20
8.930153
 30
0.0
 10
9.701037
 20
8.915015
 30
0.0
 10
9.696326
 20
8.900583
 30
0.0
 10
9.688732
 20
8.887415
 30
0.0
 10
9.678551
 20
8.876092
 30
0.0
 10
9.666246
 20
8.867165
 30
0.0
 10
9.652365
 20
8.861005
 30
0.0
 10
9.637463
 20
8.857821
 30
0.0
  0
LWPOLYLINE
  5
10b
100
AcDbEntity
  8
Layer_1
 62
7
100
AcDbPolyline
 90
30
 70
1
 10
13.161261
 20
8.857821
 30
0.0
 10
13.146358
 20
8.861005
 30
0.0
 10
13.132477
 20
8.867165
 30
0.0
 10
13.120171
 20
8.876092
 30
0.0
 10
13.109991
 20
8.887415
 30
0.0
 10
13.102396
 20
8.900583
 30
0.0
 10
13.097684
 20
8.915015
 30
0.0
 10
13.096110
 20
8.930153
 30
0.0
 10
13.097684
 20
8.945290
 30
0.0
 10
13.102396
 20
8.959722
 30
0.0
 10
13.109991
 20
8.972890
 30
0.0
 10
13.120171
 20
8.984213
 30
0.0
 10
13.132477
 20
8.993140
 30
0.0
 10
13.146358
 20
8.999300
 30
0.0
 10
13.161261
 20
9.002484
 30
0.0
 10
13.176440
 20
9.002484
 30
0.0
 10
13.191342
 20
8.999300
 30
0.0
 10
13.205222
 20
8.993140
 30
0.0
 10
13.217528
 20
8.984213
 30
0.0
 10
13.227709
 20
8.972890
 30
0.0
 10
13.235303
 20
8.959722
 30
0.0
 10
13.240014
 20
8.945290
 30
0.0
 10
13.241589
 20
8.930153
 30
0.0
 10
13.240014
 20
8.915015
 30
0.0
 10
13.235303
 20
8.900583
 30
0.0
 10
13.227709
 20
8.887415
 30
0.0
 10
13.217528
 20
8.876092
 30
0.0
 10
13.205222
 20
8.867165
 30
0.0
 10
13.191342
 20
8.861005
 30
0.0
 10
13.176440
 20
8.857821
 30
0.0
  0
LWPOLYLINE
  5
10c
100
AcDbEntity
  8
Layer_1
 62
7
100
AcDbPolyline
 90
30
 70
1
 10
2.544314
 20
5.319291
 30
0.0
 10
2.529438
 20
5.322476
 30
0.0
 10
2.515543
 20
5.328635
 30
0.0
 10
2.503237
 20
5.337563
 30
0.0
 10
2.493057
 20
5.348886
 30
0.0
 10
2.485447
 20
5.362053
 30
0.0
 10
2.480751
 20
5.376486
 30
0.0
 10
2.479161
 20
5.391624
 30
0.0
 10
2.480751
 20
5.406761
 30
0.0
 10
2.485447
 20
5.421194
 30
0.0
 10
2.493057
 20
5.434362
 30
0.0
 10
2.503237
 20
5.445685
 30
0.0
 10
2.515543
 20
5.454612
 30
0.0
 10
2.529438
 20
5.460772
 30
0.0
 10
2.544314
 20
5.463957
 30
0.0
 10
2.559523
 20
5.463957
 30
0.0
 10
2.574399
 20
5.460772
 30
0.0
 10
2.588294
 20
5.454612
 30
0.0
 10
2.600600
 20
5.445685
 30
0.0
 10
2.610780
 20
5.434362
 30
0.0
 10
2.618375
 20
5.421194
 30
0.0
 10
2.623071
 20
5.406761
 30
0.0
 10
2.624662
 20
5.391624
 30
0.0
 10
2.623071
 20
5.376486
 30
0.0
 10
2.618375
 20
5.362053
 30
0.0
 10
2.610780
 20
5.348886
 30
0.0
 10
2.600600
 20
5.337563
 30
0.0
 10
2.588294
 20
5.328635
 30
0.0
 10
2.574399
 20
5.322476
 30
0.0
 10
2.559523
 20
5.319291
 30
0.0
  0
LWPOLYLINE
  5
10d
100
AcDbEntity
  8
Layer_1
 62
7
100
AcDbPolyline
 90
30
 70
1
 10
13.161261
 20
5.319291
 30
0.0
 10
13.146358
 20
5.322476
 30
0.0
 10
13.132477
 20
5.328635
 30
0.0
 10
13.120171
 20
5.337563
 30
0.0
 10
13.109991
 20
5.348886
 30
0.0
 10
13.102396
 20
5.362053
 30
0.0
 10
13.097684
 20
5.376486
 30
0.0
 10
13.096110
 20
5.391624
 30
0.0
 10
13.097684
 20
5.406761
 30
0.0
 10
13.102396
 20
5.421194
 30
0.0
 10
13.109991
 20
5.434362
 30
0.0
 10
13.120171
 20
5.445685
 30
0.0
 10
13.132477
 20
5.454612
 30
0.0
 10
13.146358
 20
5.460772
 30
0.0
 10
13.161261
 20
5.463957
 30
0.0
 10
13.176440
 20
5.463957
 30
0.0
 10
13.191342
 20
5.460772
 30
0.0
 10
13.205222
 20
5.454612
 30
0.0
 10
13.217528
 20
5.445685
 30
0.0
 10
13.227709
 20
5.434362
 30
0.0
 10
13.235303
 20
5.421194
 30
0.0
 10
13.240014
 20
5.406761
 30
0.0
 10
13.241589
 20
5.391624
 30
0.0
 10
13.240014
 20
5.376486
 30
0.0
 10
13.235303
 20
5.362053
 30
0.0
 10
13.227709
 20
5.348886
 30
0.0
 10
13.217528
 20
5.337563
 30
0.0
 10
13.205222
 20
5.328635
 30
0.0
 10
13.191342
 20
5.322476
 30
0.0
 10
13.176440
 20
5.319291
 30
0.0
  0
LWPOLYLINE
  5
10e
100
AcDbEntity
  8
Layer_1
 62
7
100
AcDbPolyline
 90
30
 70
1
 10
9.622284
 20
5.319291
 30
0.0
 10
9.607381
 20
5.322476
 30
0.0
 10
9.593500
 20
5.328635
 30
0.0
 10
9.581194
 20
5.337563
 30
0.0
 10
9.571014
 20
5.348886
 30
0.0
 10
9.563420
 20
5.362053
 30
0.0
 10
9.558694
 20
5.376486
 30
0.0
 10
9.557119
 20
5.391624
 30
0.0
 10
9.558694
 20
5.406761
 30
0.0
 10
9.563420
 20
5.421194
 30
0.0
 10
9.571014
 20
5.434362
 30
0.0
 10
9.581194
 20
5.445685
 30
0.0
 10
9.593500
 20
5.454612
 30
0.0
 10
9.607381
 20
5.460772
 30
0.0
 10
9.622284
 20
5.463957
 30
0.0
 10
9.637463
 20
5.463957
 30
0.0
 10
9.652365
 20
5.460772
 30
0.0
 10
9.666246
 20
5.454612
 30
0.0
 10
9.678551
 20
5.445685
 30
0.0
 10
9.688732
 20
5.434362
 30
0.0
 10
9.696326
 20
5.421194
 30
0.0
 10
9.701037
 20
5.406761
 30
0.0
 10
9.702612
 20
5.391624
 30
0.0
 10
9.701037
 20
5.376486
 30
0.0
 10
9.696326
 20
5.362053
 30
0.0
 10
9.688732
 20
5.348886
 30
0.0
 10
9.678551
 20
5.337563
 30
0.0
 10
9.666246
 20
5.328635
 30
0.0
 10
9.652365
 20
5.322476
 30
0.0
 10
9.637463
 20
5.319291
 30
0.0
  0
LWPOLYLINE
  5
10f
100
AcDbEntity
  8
Layer_1
 62
7
100
AcDbPolyline
 90
30
 70
1
 10
6.083307
 20
5.319291
 30
0.0
 10
6.068404
 20
5.322476
 30
0.0
 10
6.054523
 20
5.328635
 30
0.0
 10
6.042217
 20
5.337563
 30
0.0
 10
6.032037
 20
5.348886
 30
0.0
 10
6.024442
 20
5.362053
 30
0.0
 10
6.019716
 20
5.376486
 30
0.0
 10
6.018142
 20
5.391624
 30
0.0
 10
6.019716
 20
5.406761
 30
0.0
 10
6.024442
 20
5.421194
 30
0.0
 10
6.032037
 20
5.434362
 30
0.0
 10
6.042217
 20
5.445685
 30
0.0
 10
6.054523
 20
5.454612
 30
0.0
 10
6.068404
 20
5.460772
 30
0.0
 10
6.083307
 20
5.463957
 30
0.0
 10
6.098485
 20
5.463957
 30
0.0
 10
6.113388
 20
5.460772
 30
0.0
 10
6.127268
 20
5.454612
 30
0.0
 10
6.139574
 20
5.445685
 30
0.0
 10
6.149755
 20
5.434362
 30
0.0
 10
6.157349
 20
5.421194
 30
0.0
 10
6.162060
 20
5.406761
 30
0.0
 10
6.163635
 20
5.391624
 30
0.0
 10
6.162060
 20
5.376486
 30
0.0
 10
6.157349
 20
5.362053
 30
0.0
 10
6.149755
 20
5.348886
 30
0.0
 10
6.139574
 20
5.337563
 30
0.0
 10
6.127268
 20
5.328635
 30
0.0
 10
6.113388
 20
5.322476
 30
0.0
 10
6.098485
 20
5.319291
 30
0.0
  0
LWPOLYLINE
  5
110
100
AcDbEntity
  8
Layer_1
 62
7
100
AcDbPolyline
 90
30
 70
1
 10
13.161261
 20
1.780767
 30
0.0
 10
13.146358
 20
1.783936
 30
0.0
 10
13.132477
 20
1.790111
 30
0.0
 10
13.120171
 20
1.799053
 30
0.0
 10
13.109991
 20
1.810346
 30
0.0
 10
13.102396
 20
1.823514
 30
0.0
 10
13.097684
 20
1.837976
 30
0.0
 10
13.096110
 20
1.853097
 30
0.0
 10
13.097684
 20
1.868219
 30
0.0
 10
13.102396
 20
1.882681
 30
0.0
 10
13.109991
 20
1.895849
 30
0.0
 10
13.120171
 20
1.907142
 30
0.0
 10
13.132477
 20
1.916069
 30
0.0
 10
13.146358
 20
1.922244
 30
0.0
 10
13.161261
 20
1.925413
 30
0.0
 10
13.176440
 20
1.925413
 30
0.0
 10
13.191342
 20
1.922244
 30
0.0
 10
13.205222
 20
1.916069
 30
0.0
 10
13.217528
 20
1.907142
 30
0.0
 10
13.227709
 20
1.895849
 30
0.0
 10
13.235303
 20
1.882681
 30
0.0
 10
13.240014
 20
1.868219
 30
0.0
 10
13.241589
 20
1.853097
 30
0.0
 10
13.240014
 20
1.837976
 30
0.0
 10
13.235303
 20
1.823514
 30
0.0
 10
13.227709
 20
1.810346
 30
0.0
 10
13.217528
 20
1.799053
 30
0.0
 10
13.205222
 20
1.790111
 30
0.0
 10
13.191342
 20
1.783936
 30
0.0
 10
13.176440
 20
1.780767
 30
0.0
  0
LWPOLYLINE
  5
111
100
AcDbEntity
  8
Layer_1
 62
7
100
AcDbPolyline
 90
30
 70
1
 10
9.622284
 20
1.780767
 30
0.0
 10
9.607381
 20
1.783936
 30
0.0
 10
9.593500
 20
1.790111
 30
0.0
 10
9.581194
 20
1.799053
 30
0.0
 10
9.571014
 20
1.810346
 30
0.0
 10
9.563420
 20
1.823514
 30
0.0
 10
9.558694
 20
1.837976
 30
0.0
 10
9.557119
 20
1.853097
 30
0.0
 10
9.558694
 20
1.868219
 30
0.0
 10
9.563420
 20
1.882681
 30
0.0
 10
9.571014
 20
1.895849
 30
0.0
 10
9.581194
 20
1.907142
 30
0.0
 10
9.593500
 20
1.916069
 30
0.0
 10
9.607381
 20
1.922244
 30
0.0
 10
9.622284
 20
1.925413
 30
0.0
 10
9.637463
 20
1.925413
 30
0.0
 10
9.652365
 20
1.922244
 30
0.0
 10
9.666246
 20
1.916069
 30
0.0
 10
9.678551
 20
1.907142
 30
0.0
 10
9.688732
 20
1.895849
 30
0.0
 10
9.696326
 20
1.882681
 30
0.0
 10
9.701037
 20
1.868219
 30
0.0
 10
9.702612
 20
1.853097
 30
0.0
 10
9.701037
 20
1.837976
 30
0.0
 10
9.696326
 20
1.823514
 30
0.0
 10
9.688732
 20
1.810346
 30
0.0
 10
9.678551
 20
1.799053
 30
0.0
 10
9.666246
 20
1.790111
 30
0.0
 10
9.652365
 20
1.783936
 30
0.0
 10
9.637463
 20
1.780767
 30
0.0
  0
LWPOLYLINE
  5
112
100
AcDbEntity
  8
Layer_1
 62
7
100
AcDbPolyline
 90
30
 70
1
 10
2.544314
 20
1.780767
 30
0.0
 10
2.529438
 20
1.783936
 30
0.0
 10
2.515543
 20
1.790111
 30
0.0
 10
2.503237
 20
1.799053
 30
0.0
 10
2.493057
 20
1.810346
 30
0.0
 10
2.485447
 20
1.823514
 30
0.0
 10
2.480751
 20
1.837976
 30
0.0
 10
2.479161
 20
1.853097
 30
0.0
 10
2.480751
 20
1.868219
 30
0.0
 10
2.485447
 20
1.882681
 30
0.0
 10
2.493057
 20
1.895849
 30
0.0
 10
2.503237
 20
1.907142
 30
0.0
 10
2.515543
 20
1.916069
 30
0.0
 10
2.529438
 20
1.922244
 30
0.0
 10
2.544314
 20
1.925413
 30
0.0
 10
2.559523
 20
1.925413
 30
0.0
 10
2.574399
 20
1.922244
 30
0.0
 10
2.588294
 20
1.916069
 30
0.0
 10
2.600600
 20
1.907142
 30
0.0
 10
2.610780
 20
1.895849
 30
0.0
 10
2.618375
 20
1.882681
 30
0.0
 10
2.623071
 20
1.868219
 30
0.0
 10
2.624662
 20
1.853097
 30
0.0
 10
2.623071
 20
1.837976
 30
0.0
 10
2.618375
 20
1.823514
 30
0.0
 10
2.610780
 20
1.810346
 30
0.0
 10
2.600600
 20
1.799053
 30
0.0
 10
2.588294
 20
1.790111
 30
0.0
 10
2.574399
 20
1.783936
 30
0.0
 10
2.559523
 20
1.780767
 30
0.0
  0
LWPOLYLINE
  5
113
100
AcDbEntity
  8
Layer_1
 62
7
100
AcDbPolyline
 90
30
 70
1
 10
6.083307
 20
1.780767
 30
0.0
 10
6.068404
 20
1.783936
 30
0.0
 10
6.054523
 20
1.790111
 30
0.0
 10
6.042217
 20
1.799053
 30
0.0
 10
6.032037
 20
1.810346
 30
0.0
 10
6.024442
 20
1.823514
 30
0.0
 10
6.019716
 20
1.837976
 30
0.0
 10
6.018142
 20
1.853097
 30
0.0
 10
6.019716
 20
1.868219
 30
0.0
 10
6.024442
 20
1.882681
 30
0.0
 10
6.032037
 20
1.895849
 30
0.0
 10
6.042217
 20
1.907142
 30
0.0
 10
6.054523
 20
1.916069
 30
0.0
 10
6.068404
 20
1.922244
 30
0.0
 10
6.083307
 20
1.925413
 30
0.0
 10
6.098485
 20
1.925413
 30
0.0
 10
6.113388
 20
1.922244
 30
0.0
 10
6.127268
 20
1.916069
 30
0.0
 10
6.139574
 20
1.907142
 30
0.0
 10
6.149755
 20
1.895849
 30
0.0
 10
6.157349
 20
1.882681
 30
0.0
 10
6.162060
 20
1.868219
 30
0.0
 10
6.163635
 20
1.853097
 30
0.0
 10
6.162060
 20
1.837976
 30
0.0
 10
6.157349
 20
1.823514
 30
0.0
 10
6.149755
 20
1.810346
 30
0.0
 10
6.139574
 20
1.799053
 30
0.0
 10
6.127268
 20
1.790111
 30
0.0
 10
6.113388
 20
1.783936
 30
0.0
 10
6.098485
 20
1.780767
 30
0.0
  0
LWPOLYLINE
  5
114
100
AcDbEntity
  8
Layer_1
 62
7
100
AcDbPolyline
 90
4
 70
1
 10
32.500690
 20
2.367507
 30
0.0
 10
16.366739
 20
2.367507
 30
0.0
 10
16.366739
 20
0.005208
 30
0.0
 10
32.500690
 20
0.005208
 30
0.0
  0
LWPOLYLINE
  5
115
100
AcDbEntity
  8
Layer_1
 62
7
100
AcDbPolyline
 90
30
 70
1
 10
22.729367
 20
1.729494
 30
0.0
 10
22.714464
 20
1.732632
 30
0.0
 10
22.700583
 20
1.738774
 30
0.0
 10
22.688277
 20
1.747653
 30
0.0
 10
22.678096
 20
1.758867
 30
0.0
 10
22.670502
 20
1.771940
 30
0.0
 10
22.665791
 20
1.786292
 30
0.0
 10
22.664216
 20
1.801311
 30
0.0
 10
22.665791
 20
1.816328
 30
0.0
 10
22.670502
 20
1.830680
 30
0.0
 10
22.678096
 20
1.843753
 30
0.0
 10
22.688277
 20
1.854967
 30
0.0
 10
22.700583
 20
1.863831
 30
0.0
 10
22.714464
 20
1.869973
 30
0.0
 10
22.729367
 20
1.873111
 30
0.0
 10
22.744546
 20
1.873111
 30
0.0
 10
22.759448
 20
1.869973
 30
0.0
 10
22.773329
 20
1.863831
 30
0.0
 10
22.785634
 20
1.854967
 30
0.0
 10
22.795816
 20
1.843753
 30
0.0
 10
22.803409
 20
1.830680
 30
0.0
 10
22.808121
 20
1.816328
 30
0.0
 10
22.809696
 20
1.801311
 30
0.0
 10
22.808121
 20
1.786292
 30
0.0
 10
22.803409
 20
1.771940
 30
0.0
 10
22.795816
 20
1.758867
 30
0.0
 10
22.785634
 20
1.747653
 30
0.0
 10
22.773329
 20
1.738774
 30
0.0
 10
22.759448
 20
1.732632
 30
0.0
 10
22.744546
 20
1.729494
 30
0.0
  0
LWPOLYLINE
  5
116
100
AcDbEntity
  8
Layer_1
 62
7
100
AcDbPolyline
 90
30
 70
1
 10
18.797119
 20
1.729494
 30
0.0
 10
18.782244
 20
1.732632
 30
0.0
 10
18.768348
 20
1.738774
 30
0.0
 10
18.756042
 20
1.747653
 30
0.0
 10
18.745861
 20
1.758867
 30
0.0
 10
18.738252
 20
1.771940
 30
0.0
 10
18.733555
 20
1.786292
 30
0.0
 10
18.731965
 20
1.801311
 30
0.0
 10
18.733555
 20
1.816328
 30
0.0
 10
18.738252
 20
1.830680
 30
0.0
 10
18.745861
 20
1.843753
 30
0.0
 10
18.756042
 20
1.854967
 30
0.0
 10
18.768348
 20
1.863831
 30
0.0
 10
18.782244
 20
1.869973
 30
0.0
 10
18.797119
 20
1.873111
 30
0.0
 10
18.812328
 20
1.873111
 30
0.0
 10
18.827204
 20
1.869973
 30
0.0
 10
18.841100
 20
1.863831
 30
0.0
 10
18.853405
 20
1.854967
 30
0.0
 10
18.863586
 20
1.843753
 30
0.0
 10
18.871180
 20
1.830680
 30
0.0
 10
18.875892
 20
1.816328
 30
0.0
 10
18.877482
 20
1.801311
 30
0.0
 10
18.875892
 20
1.786292
 30
0.0
 10
18.871180
 20
1.771940
 30
0.0
 10
18.863586
 20
1.758867
 30
0.0
 10
18.853405
 20
1.747653
 30
0.0
 10
18.841100
 20
1.738774
 30
0.0
 10
18.827204
 20
1.732632
 30
0.0
 10
18.812328
 20
1.729494
 30
0.0
  0
LWPOLYLINE
  5
117
100
AcDbEntity
  8
Layer_1
 62
7
100
AcDbPolyline
 90
30
 70
1
 10
25.481929
 20
1.729494
 30
0.0
 10
25.467026
 20
1.732632
 30
0.0
 10
25.453145
 20
1.738774
 30
0.0
 10
25.440840
 20
1.747653
 30
0.0
 10
25.430658
 20
1.758867
 30
0.0
 10
25.423065
 20
1.771940
 30
0.0
 10
25.418353
 20
1.786292
 30
0.0
 10
25.416778
 20
1.801311
 30
0.0
 10
25.418353
 20
1.816328
 30
0.0
 10
25.423065
 20
1.830680
 30
0.0
 10
25.430658
 20
1.843753
 30
0.0
 10
25.440840
 20
1.854967
 30
0.0
 10
25.453145
 20
1.863831
 30
0.0
 10
25.467026
 20
1.869973
 30
0.0
 10
25.481929
 20
1.873111
 30
0.0
 10
25.497108
 20
1.873111
 30
0.0
 10
25.512011
 20
1.869973
 30
0.0
 10
25.525893
 20
1.863831
 30
0.0
 10
25.538199
 20
1.854967
 30
0.0
 10
25.548379
 20
1.843753
 30
0.0
 10
25.555973
 20
1.830680
 30
0.0
 10
25.560684
 20
1.816328
 30
0.0
 10
25.562259
 20
1.801311
 30
0.0
 10
25.560684
 20
1.786292
 30
0.0
 10
25.555973
 20
1.771940
 30
0.0
 10
25.548379
 20
1.758867
 30
0.0
 10
25.538199
 20
1.747653
 30
0.0
 10
25.525893
 20
1.738774
 30
0.0
 10
25.512011
 20
1.732632
 30
0.0
 10
25.497108
 20
1.729494
 30
0.0
  0
LWPOLYLINE
  5
118
100
AcDbEntity
  8
Layer_1
 62
7
100
AcDbPolyline
 90
30
 70
1
 10
27.448047
 20
1.729494
 30
0.0
 10
27.433143
 20
1.732632
 30
0.0
 10
27.419262
 20
1.738774
 30
0.0
 10
27.406956
 20
1.747653
 30
0.0
 10
27.396775
 20
1.758867
 30
0.0
 10
27.389181
 20
1.771940
 30
0.0
 10
27.384455
 20
1.786292
 30
0.0
 10
27.382880
 20
1.801311
 30
0.0
 10
27.384455
 20
1.816328
 30
0.0
 10
27.389181
 20
1.830680
 30
0.0
 10
27.396775
 20
1.843753
 30
0.0
 10
27.406956
 20
1.854967
 30
0.0
 10
27.419262
 20
1.863831
 30
0.0
 10
27.433143
 20
1.869973
 30
0.0
 10
27.448047
 20
1.873111
 30
0.0
 10
27.463225
 20
1.873111
 30
0.0
 10
27.478127
 20
1.869973
 30
0.0
 10
27.492008
 20
1.863831
 30
0.0
 10
27.504314
 20
1.854967
 30
0.0
 10
27.514495
 20
1.843753
 30
0.0
 10
27.522090
 20
1.830680
 30
0.0
 10
27.526816
 20
1.816328
 30
0.0
 10
27.528390
 20
1.801311
 30
0.0
 10
27.526816
 20
1.786292
 30
0.0
 10
27.522090
 20
1.771940
 30
0.0
 10
27.514495
 20
1.758867
 30
0.0
 10
27.504314
 20
1.747653
 30
0.0
 10
27.492008
 20
1.738774
 30
0.0
 10
27.478127
 20
1.732632
 30
0.0
 10
27.463225
 20
1.729494
 30
0.0
  0
LWPOLYLINE
  5
119
100
AcDbEntity
  8
Layer_1
 62
7
100
AcDbPolyline
 90
30
 70
1
 10
20.763251
 20
1.729494
 30
0.0
 10
20.748347
 20
1.732632
 30
0.0
 10
20.734466
 20
1.738774
 30
0.0
 10
20.722160
 20
1.747653
 30
0.0
 10
20.711979
 20
1.758867
 30
0.0
 10
20.704385
 20
1.771940
 30
0.0
 10
20.699659
 20
1.786292
 30
0.0
 10
20.698084
 20
1.801311
 30
0.0
 10
20.699659
 20
1.816328
 30
0.0
 10
20.704385
 20
1.830680
 30
0.0
 10
20.711979
 20
1.843753
 30
0.0
 10
20.722160
 20
1.854967
 30
0.0
 10
20.734466
 20
1.863831
 30
0.0
 10
20.748347
 20
1.869973
 30
0.0
 10
20.763251
 20
1.873111
 30
0.0
 10
20.778429
 20
1.873111
 30
0.0
 10
20.793332
 20
1.869973
 30
0.0
 10
20.807214
 20
1.863831
 30
0.0
 10
20.819519
 20
1.854967
 30
0.0
 10
20.829700
 20
1.843753
 30
0.0
 10
20.837295
 20
1.830680
 30
0.0
 10
20.842006
 20
1.816328
 30
0.0
 10
20.843580
 20
1.801311
 30
0.0
 10
20.842006
 20
1.786292
 30
0.0
 10
20.837295
 20
1.771940
 30
0.0
 10
20.829700
 20
1.758867
 30
0.0
 10
20.819519
 20
1.747653
 30
0.0
 10
20.807214
 20
1.738774
 30
0.0
 10
20.793332
 20
1.732632
 30
0.0
 10
20.778429
 20
1.729494
 30
0.0
  0
LWPOLYLINE
  5
11a
100
AcDbEntity
  8
Layer_1
 62
7
100
AcDbPolyline
 90
30
 70
1
 10
29.414162
 20
1.729494
 30
0.0
 10
29.399260
 20
1.732632
 30
0.0
 10
29.385378
 20
1.738774
 30
0.0
 10
29.373073
 20
1.747653
 30
0.0
 10
29.362893
 20
1.758867
 30
0.0
 10
29.355298
 20
1.771940
 30
0.0
 10
29.350586
 20
1.786292
 30
0.0
 10
29.349012
 20
1.801311
 30
0.0
 10
29.350586
 20
1.816328
 30
0.0
 10
29.355298
 20
1.830680
 30
0.0
 10
29.362893
 20
1.843753
 30
0.0
 10
29.373073
 20
1.854967
 30
0.0
 10
29.385378
 20
1.863831
 30
0.0
 10
29.399260
 20
1.869973
 30
0.0
 10
29.414162
 20
1.873111
 30
0.0
 10
29.429341
 20
1.873111
 30
0.0
 10
29.444244
 20
1.869973
 30
0.0
 10
29.458125
 20
1.863831
 30
0.0
 10
29.470431
 20
1.854967
 30
0.0
 10
29.480611
 20
1.843753
 30
0.0
 10
29.488205
 20
1.830680
 30
0.0
 10
29.492917
 20
1.816328
 30
0.0
 10
29.494492
 20
1.801311
 30
0.0
 10
29.492917
 20
1.786292
 30
0.0
 10
29.488205
 20
1.771940
 30
0.0
 10
29.480611
 20
1.758867
 30
0.0
 10
29.470431
 20
1.747653
 30
0.0
 10
29.458125
 20
1.738774
 30
0.0
 10
29.444244
 20
1.732632
 30
0.0
 10
29.429341
 20
1.729494
 30
0.0
  0
LWPOLYLINE
  5
11b
100
AcDbEntity
  8
Layer_1
 62
7
100
AcDbPolyline
 90
4
 70
1
 10
25.607486
 20
0.668995
 30
0.0
 10
25.607486
 20
1.567059
 30
0.0
 10
29.382430
 20
1.567059
 30
0.0
 10
29.382430
 20
0.668995
 30
0.0
  0
LWPOLYLINE
  5
11c
100
AcDbEntity
  8
Layer_1
 62
7
100
AcDbPolyline
 90
4
 70
1
 10
18.922691
 20
0.668995
 30
0.0
 10
18.922691
 20
1.567059
 30
0.0
 10
22.697634
 20
1.567059
 30
0.0
 10
22.697634
 20
0.668995
 30
0.0
  0
LWPOLYLINE
  5
11d
100
AcDbEntity
  8
Layer_1
 62
7
100
AcDbPolyline
 90
30
 70
1
 10
29.414162
 20
0.362876
 30
0.0
 10
29.399260
 20
0.366013
 30
0.0
 10
29.385378
 20
0.372156
 30
0.0
 10
29.373073
 20
0.381020
 30
0.0
 10
29.362893
 20
0.392234
 30
0.0
 10
29.355298
 20
0.405307
 30
0.0
 10
29.350586
 20
0.419659
 30
0.0
 10
29.349012
 20
0.434676
 30
0.0
 10
29.350586
 20
0.449694
 30
0.0
 10
29.355298
 20
0.464060
 30
0.0
 10
29.362893
 20
0.477133
 30
0.0
 10
29.373073
 20
0.488347
 30
0.0
 10
29.385378
 20
0.497211
 30
0.0
 10
29.399260
 20
0.503354
 30
0.0
 10
29.414162
 20
0.506492
 30
0.0
 10
29.429341
 20
0.506492
 30
0.0
 10
29.444244
 20
0.503354
 30
0.0
 10
29.458125
 20
0.497211
 30
0.0
 10
29.470431
 20
0.488347
 30
0.0
 10
29.480611
 20
0.477133
 30
0.0
 10
29.488205
 20
0.464060
 30
0.0
 10
29.492917
 20
0.449694
 30
0.0
 10
29.494492
 20
0.434676
 30
0.0
 10
29.492917
 20
0.419659
 30
0.0
 10
29.488205
 20
0.405307
 30
0.0
 10
29.480611
 20
0.392234
 30
0.0
 10
29.470431
 20
0.381020
 30
0.0
 10
29.458125
 20
0.372156
 30
0.0
 10
29.444244
 20
0.366013
 30
0.0
 10
29.429341
 20
0.362876
 30
0.0
  0
LWPOLYLINE
  5
11e
100
AcDbEntity
  8
Layer_1
 62
7
100
AcDbPolyline
 90
30
 70
1
 10
25.481929
 20
0.362876
 30
0.0
 10
25.467026
 20
0.366013
 30
0.0
 10
25.453145
 20
0.372156
 30
0.0
 10
25.440840
 20
0.381020
 30
0.0
 10
25.430658
 20
0.392234
 30
0.0
 10
25.423065
 20
0.405307
 30
0.0
 10
25.418353
 20
0.419659
 30
0.0
 10
25.416778
 20
0.434676
 30
0.0
 10
25.418353
 20
0.449694
 30
0.0
 10
25.423065
 20
0.464060
 30
0.0
 10
25.430658
 20
0.477133
 30
0.0
 10
25.440840
 20
0.488347
 30
0.0
 10
25.453145
 20
0.497211
 30
0.0
 10
25.467026
 20
0.503354
 30
0.0
 10
25.481929
 20
0.506492
 30
0.0
 10
25.497108
 20
0.506492
 30
0.0
 10
25.512011
 20
0.503354
 30
0.0
 10
25.525893
 20
0.497211
 30
0.0
 10
25.538199
 20
0.488347
 30
0.0
 10
25.548379
 20
0.477133
 30
0.0
 10
25.555973
 20
0.464060
 30
0.0
 10
25.560684
 20
0.449694
 30
0.0
 10
25.562259
 20
0.434676
 30
0.0
 10
25.560684
 20
0.419659
 30
0.0
 10
25.555973
 20
0.405307
 30
0.0
 10
25.548379
 20
0.392234
 30
0.0
 10
25.538199
 20
0.381020
 30
0.0
 10
25.525893
 20
0.372156
 30
0.0
 10
25.512011
 20
0.366013
 30
0.0
 10
25.497108
 20
0.362876
 30
0.0
  0
LWPOLYLINE
  5
11f
100
AcDbEntity
  8
Layer_1
 62
7
100
AcDbPolyline
 90
30
 70
1
 10
18.797119
 20
0.362876
 30
0.0
 10
18.782244
 20
0.366013
 30
0.0
 10
18.768348
 20
0.372156
 30
0.0
 10
18.756042
 20
0.381020
 30
0.0
 10
18.745861
 20
0.392234
 30
0.0
 10
18.738252
 20
0.405307
 30
0.0
 10
18.733555
 20
0.419659
 30
0.0
 10
18.731965
 20
0.434676
 30
0.0
 10
18.733555
 20
0.449694
 30
0.0
 10
18.738252
 20
0.464060
 30
0.0
 10
18.745861
 20
0.477133
 30
0.0
 10
18.756042
 20
0.488347
 30
0.0
 10
18.768348
 20
0.497211
 30
0.0
 10
18.782244
 20
0.503354
 30
0.0
 10
18.797119
 20
0.506492
 30
0.0
 10
18.812328
 20
0.506492
 30
0.0
 10
18.827204
 20
0.503354
 30
0.0
 10
18.841100
 20
0.497211
 30
0.0
 10
18.853405
 20
0.488347
 30
0.0
 10
18.863586
 20
0.477133
 30
0.0
 10
18.871180
 20
0.464060
 30
0.0
 10
18.875892
 20
0.449694
 30
0.0
 10
18.877482
 20
0.434676
 30
0.0
 10
18.875892
 20
0.419659
 30
0.0
 10
18.871180
 20
0.405307
 30
0.0
 10
18.863586
 20
0.392234
 30
0.0
 10
18.853405
 20
0.381020
 30
0.0
 10
18.841100
 20
0.372156
 30
0.0
 10
18.827204
 20
0.366013
 30
0.0
 10
18.812328
 20
0.362876
 30
0.0
  0
LWPOLYLINE
  5
120
100
AcDbEntity
  8
Layer_1
 62
7
100
AcDbPolyline
 90
30
 70
1
 10
22.729367
 20
0.362876
 30
0.0
 10
22.714464
 20
0.366013
 30
0.0
 10
22.700583
 20
0.372156
 30
0.0
 10
22.688277
 20
0.381020
 30
0.0
 10
22.678096
 20
0.392234
 30
0.0
 10
22.670502
 20
0.405307
 30
0.0
 10
22.665791
 20
0.419659
 30
0.0
 10
22.664216
 20
0.434676
 30
0.0
 10
22.665791
 20
0.449694
 30
0.0
 10
22.670502
 20
0.464060
 30
0.0
 10
22.678096
 20
0.477133
 30
0.0
 10
22.688277
 20
0.488347
 30
0.0
 10
22.700583
 20
0.497211
 30
0.0
 10
22.714464
 20
0.503354
 30
0.0
 10
22.729367
 20
0.506492
 30
0.0
 10
22.744546
 20
0.506492
 30
0.0
 10
22.759448
 20
0.503354
 30
0.0
 10
22.773329
 20
0.497211
 30
0.0
 10
22.785634
 20
0.488347
 30
0.0
 10
22.795816
 20
0.477133
 30
0.0
 10
22.803409
 20
0.464060
 30
0.0
 10
22.808121
 20
0.449694
 30
0.0
 10
22.809696
 20
0.434676
 30
0.0
 10
22.808121
 20
0.419659
 30
0.0
 10
22.803409
 20
0.405307
 30
0.0
 10
22.795816
 20
0.392234
 30
0.0
 10
22.785634
 20
0.381020
 30
0.0
 10
22.773329
 20
0.372156
 30
0.0
 10
22.759448
 20
0.366013
 30
0.0
 10
22.744546
 20
0.362876
 30
0.0
  0
LWPOLYLINE
  5
121
100
AcDbEntity
  8
Layer_1
 62
7
100
AcDbPolyline
 90
30
 70
1
 10
27.448047
 20
0.362876
 30
0.0
 10
27.433143
 20
0.366013
 30
0.0
 10
27.419262
 20
0.372156
 30
0.0
 10
27.406956
 20
0.381020
 30
0.0
 10
27.396775
 20
0.392234
 30
0.0
 10
27.389181
 20
0.405307
 30
0.0
 10
27.384455
 20
0.419659
 30
0.0
 10
27.382880
 20
0.434676
 30
0.0
 10
27.384455
 20
0.449694
 30
0.0
 10
27.389181
 20
0.464060
 30
0.0
 10
27.396775
 20
0.477133
 30
0.0
 10
27.406956
 20
0.488347
 30
0.0
 10
27.419262
 20
0.497211
 30
0.0
 10
27.433143
 20
0.503354
 30
0.0
 10
27.448047
 20
0.506492
 30
0.0
 10
27.463225
 20
0.506492
 30
0.0
 10
27.478127
 20
0.503354
 30
0.0
 10
27.492008
 20
0.497211
 30
0.0
 10
27.504314
 20
0.488347
 30
0.0
 10
27.514495
 20
0.477133
 30
0.0
 10
27.522090
 20
0.464060
 30
0.0
 10
27.526816
 20
0.449694
 30
0.0
 10
27.528390
 20
0.434676
 30
0.0
 10
27.526816
 20
0.419659
 30
0.0
 10
27.522090
 20
0.405307
 30
0.0
 10
27.514495
 20
0.392234
 30
0.0
 10
27.504314
 20
0.381020
 30
0.0
 10
27.492008
 20
0.372156
 30
0.0
 10
27.478127
 20
0.366013
 30
0.0
 10
27.463225
 20
0.362876
 30
0.0
  0
LWPOLYLINE
  5
122
100
AcDbEntity
  8
Layer_1
 62
7
100
AcDbPolyline
 90
30
 70
1
 10
20.763251
 20
0.362876
 30
0.0
 10
20.748347
 20
0.366013
 30
0.0
 10
20.734466
 20
0.372156
 30
0.0
 10
20.722160
 20
0.381020
 30
0.0
 10
20.711979
 20
0.392234
 30
0.0
 10
20.704385
 20
0.405307
 30
0.0
 10
20.699659
 20
0.419659
 30
0.0
 10
20.698084
 20
0.434676
 30
0.0
 10
20.699659
 20
0.449694
 30
0.0
 10
20.704385
 20
0.464060
 30
0.0
 10
20.711979
 20
0.477133
 30
0.0
 10
20.722160
 20
0.488347
 30
0.0
 10
20.734466
 20
0.497211
 30
0.0
 10
20.748347
 20
0.503354
 30
0.0
 10
20.763251
 20
0.506492
 30
0.0
 10
20.778429
 20
0.506492
 30
0.0
 10
20.793332
 20
0.503354
 30
0.0
 10
20.807214
 20
0.497211
 30
0.0
 10
20.819519
 20
0.488347
 30
0.0
 10
20.829700
 20
0.477133
 30
0.0
 10
20.837295
 20
0.464060
 30
0.0
 10
20.842006
 20
0.449694
 30
0.0
 10
20.843580
 20
0.434676
 30
0.0
 10
20.842006
 20
0.419659
 30
0.0
 10
20.837295
 20
0.405307
 30
0.0
 10
20.829700
 20
0.392234
 30
0.0
 10
20.819519
 20
0.381020
 30
0.0
 10
20.807214
 20
0.372156
 30
0.0
 10
20.793332
 20
0.366013
 30
0.0
 10
20.778429
 20
0.362876
 30
0.0
  0
LWPOLYLINE
  5
123
100
AcDbEntity
  8
Layer_1
 62
7
100
AcDbPolyline
 90
4
 70
1
 10
32.539073
 20
4.855431
 30
0.0
 10
16.405121
 20
4.855431
 30
0.0
 10
16.405121
 20
2.493132
 30
0.0
 10
32.539073
 20
2.493132
 30
0.0
  0
LWPOLYLINE
  5
124
100
AcDbEntity
  8
Layer_1
 62
7
100
AcDbPolyline
 90
30
 70
1
 10
29.413223
 20
4.326447
 30
0.0
 10
29.398320
 20
4.329584
 30
0.0
 10
29.384438
 20
4.335726
 30
0.0
 10
29.372132
 20
4.344603
 30
0.0
 10
29.361952
 20
4.355816
 30
0.0
 10
29.354357
 20
4.368887
 30
0.0
 10
29.349646
 20
4.383237
 30
0.0
 10
29.348072
 20
4.398249
 30
0.0
 10
29.349646
 20
4.413265
 30
0.0
 10
29.354357
 20
4.427615
 30
0.0
 10
29.361952
 20
4.440686
 30
0.0
 10
29.372132
 20
4.451898
 30
0.0
 10
29.384438
 20
4.460761
 30
0.0
 10
29.398320
 20
4.466902
 30
0.0
 10
29.413223
 20
4.470040
 30
0.0
 10
29.428400
 20
4.470040
 30
0.0
 10
29.443303
 20
4.466902
 30
0.0
 10
29.457184
 20
4.460761
 30
0.0
 10
29.469491
 20
4.451898
 30
0.0
 10
29.479671
 20
4.440686
 30
0.0
 10
29.487266
 20
4.427615
 30
0.0
 10
29.491977
 20
4.413265
 30
0.0
 10
29.493551
 20
4.398249
 30
0.0
 10
29.491977
 20
4.383237
 30
0.0
 10
29.487266
 20
4.368887
 30
0.0
 10
29.479671
 20
4.355816
 30
0.0
 10
29.469491
 20
4.344603
 30
0.0
 10
29.457184
 20
4.335726
 30
0.0
 10
29.443303
 20
4.329584
 30
0.0
 10
29.428400
 20
4.326447
 30
0.0
  0
LWPOLYLINE
  5
125
100
AcDbEntity
  8
Layer_1
 62
7
100
AcDbPolyline
 90
30
 70
1
 10
27.447105
 20
4.326447
 30
0.0
 10
27.432202
 20
4.329584
 30
0.0
 10
27.418321
 20
4.335726
 30
0.0
 10
27.406016
 20
4.344603
 30
0.0
 10
27.395834
 20
4.355816
 30
0.0
 10
27.388241
 20
4.368887
 30
0.0
 10
27.383529
 20
4.383237
 30
0.0
 10
27.381954
 20
4.398249
 30
0.0
 10
27.383529
 20
4.413265
 30
0.0
 10
27.388241
 20
4.427615
 30
0.0
 10
27.395834
 20
4.440686
 30
0.0
 10
27.406016
 20
4.451898
 30
0.0
 10
27.418321
 20
4.460761
 30
0.0
 10
27.432202
 20
4.466902
 30
0.0
 10
27.447105
 20
4.470040
 30
0.0
 10
27.462284
 20
4.470040
 30
0.0
 10
27.477186
 20
4.466902
 30
0.0
 10
27.491068
 20
4.460761
 30
0.0
 10
27.503373
 20
4.451898
 30
0.0
 10
27.513554
 20
4.440686
 30
0.0
 10
27.521148
 20
4.427615
 30
0.0
 10
27.525859
 20
4.413265
 30
0.0
 10
27.527434
 20
4.398249
 30
0.0
 10
27.525859
 20
4.383237
 30
0.0
 10
27.521148
 20
4.368887
 30
0.0
 10
27.513554
 20
4.355816
 30
0.0
 10
27.503373
 20
4.344603
 30
0.0
 10
27.491068
 20
4.335726
 30
0.0
 10
27.477186
 20
4.329584
 30
0.0
 10
27.462284
 20
4.326447
 30
0.0
  0
LWPOLYLINE
  5
126
100
AcDbEntity
  8
Layer_1
 62
7
100
AcDbPolyline
 90
30
 70
1
 10
25.480990
 20
4.326447
 30
0.0
 10
25.466085
 20
4.329584
 30
0.0
 10
25.452204
 20
4.335726
 30
0.0
 10
25.439899
 20
4.344603
 30
0.0
 10
25.429719
 20
4.355816
 30
0.0
 10
25.422124
 20
4.368887
 30
0.0
 10
25.417398
 20
4.383237
 30
0.0
 10
25.415823
 20
4.398249
 30
0.0
 10
25.417398
 20
4.413265
 30
0.0
 10
25.422124
 20
4.427615
 30
0.0
 10
25.429719
 20
4.440686
 30
0.0
 10
25.439899
 20
4.451898
 30
0.0
 10
25.452204
 20
4.460761
 30
0.0
 10
25.466085
 20
4.466902
 30
0.0
 10
25.480990
 20
4.470040
 30
0.0
 10
25.496168
 20
4.470040
 30
0.0
 10
25.511072
 20
4.466902
 30
0.0
 10
25.524952
 20
4.460761
 30
0.0
 10
25.537258
 20
4.451898
 30
0.0
 10
25.547439
 20
4.440686
 30
0.0
 10
25.555033
 20
4.427615
 30
0.0
 10
25.559759
 20
4.413265
 30
0.0
 10
25.561334
 20
4.398249
 30
0.0
 10
25.559759
 20
4.383237
 30
0.0
 10
25.555033
 20
4.368887
 30
0.0
 10
25.547439
 20
4.355816
 30
0.0
 10
25.537258
 20
4.344603
 30
0.0
 10
25.524952
 20
4.335726
 30
0.0
 10
25.511072
 20
4.329584
 30
0.0
 10
25.496168
 20
4.326447
 30
0.0
  0
LWPOLYLINE
  5
127
100
AcDbEntity
  8
Layer_1
 62
7
100
AcDbPolyline
 90
30
 70
1
 10
18.756856
 20
4.139055
 30
0.0
 10
18.741979
 20
4.142193
 30
0.0
 10
18.728083
 20
4.148334
 30
0.0
 10
18.715777
 20
4.157212
 30
0.0
 10
18.705597
 20
4.168424
 30
0.0
 10
18.697987
 20
4.181495
 30
0.0
 10
18.693291
 20
4.195844
 30
0.0
 10
18.691701
 20
4.210857
 30
0.0
 10
18.693291
 20
4.225874
 30
0.0
 10
18.697987
 20
4.240223
 30
0.0
 10
18.705597
 20
4.253294
 30
0.0
 10
18.715777
 20
4.264506
 30
0.0
 10
18.728083
 20
4.273369
 30
0.0
 10
18.741979
 20
4.279510
 30
0.0
 10
18.756856
 20
4.282648
 30
0.0
 10
18.772066
 20
4.282648
 30
0.0
 10
18.786941
 20
4.279510
 30
0.0
 10
18.800836
 20
4.273369
 30
0.0
 10
18.813143
 20
4.264506
 30
0.0
 10
18.823323
 20
4.253294
 30
0.0
 10
18.830918
 20
4.240223
 30
0.0
 10
18.835614
 20
4.225874
 30
0.0
 10
18.837204
 20
4.210857
 30
0.0
 10
18.835614
 20
4.195844
 30
0.0
 10
18.830918
 20
4.181495
 30
0.0
 10
18.823323
 20
4.168424
 30
0.0
 10
18.813143
 20
4.157212
 30
0.0
 10
18.800836
 20
4.148334
 30
0.0
 10
18.786941
 20
4.142193
 30
0.0
 10
18.772066
 20
4.139055
 30
0.0
  0
LWPOLYLINE
  5
128
100
AcDbEntity
  8
Layer_1
 62
7
100
AcDbPolyline
 90
30
 70
1
 10
20.754446
 20
4.139055
 30
0.0
 10
20.739543
 20
4.142193
 30
0.0
 10
20.725661
 20
4.148334
 30
0.0
 10
20.713356
 20
4.157212
 30
0.0
 10
20.703175
 20
4.168424
 30
0.0
 10
20.695580
 20
4.181495
 30
0.0
 10
20.690855
 20
4.195844
 30
0.0
 10
20.689280
 20
4.210857
 30
0.0
 10
20.690855
 20
4.225874
 30
0.0
 10
20.695580
 20
4.240223
 30
0.0
 10
20.703175
 20
4.253294
 30
0.0
 10
20.713356
 20
4.264506
 30
0.0
 10
20.725661
 20
4.273369
 30
0.0
 10
20.739543
 20
4.279510
 30
0.0
 10
20.754446
 20
4.282648
 30
0.0
 10
20.769623
 20
4.282648
 30
0.0
 10
20.784527
 20
4.279510
 30
0.0
 10
20.798408
 20
4.273369
 30
0.0
 10
20.810714
 20
4.264506
 30
0.0
 10
20.820894
 20
4.253294
 30
0.0
 10
20.828489
 20
4.240223
 30
0.0
 10
20.833215
 20
4.225874
 30
0.0
 10
20.834790
 20
4.210857
 30
0.0
 10
20.833215
 20
4.195844
 30
0.0
 10
20.828489
 20
4.181495
 30
0.0
 10
20.820894
 20
4.168424
 30
0.0
 10
20.810714
 20
4.157212
 30
0.0
 10
20.798408
 20
4.148334
 30
0.0
 10
20.784527
 20
4.142193
 30
0.0
 10
20.769623
 20
4.139055
 30
0.0
  0
LWPOLYLINE
  5
129
100
AcDbEntity
  8
Layer_1
 62
7
100
AcDbPolyline
 90
4
 70
1
 10
25.606546
 20
3.266119
 30
0.0
 10
25.606546
 20
4.164036
 30
0.0
 10
29.381490
 20
4.164036
 30
0.0
 10
29.381490
 20
3.266119
 30
0.0
  0
LWPOLYLINE
  5
12a
100
AcDbEntity
  8
Layer_1
 62
7
100
AcDbPolyline
 90
4
 70
1
 10
18.567849
 20
3.293446
 30
0.0
 10
18.567849
 20
3.996164
 30
0.0
 10
20.848544
 20
3.996164
 30
0.0
 10
20.848544
 20
3.293446
 30
0.0
  0
LWPOLYLINE
  5
12b
100
AcDbEntity
  8
Layer_1
 62
7
100
AcDbPolyline
 90
30
 70
1
 10
20.754446
 20
2.967860
 30
0.0
 10
20.739543
 20
2.970997
 30
0.0
 10
20.725661
 20
2.977139
 30
0.0
 10
20.713356
 20
2.986017
 30
0.0
 10
20.703175
 20
2.997229
 30
0.0
 10
20.695580
 20
3.010300
 30
0.0
 10
20.690855
 20
3.024650
 30
0.0
 10
20.689280
 20
3.039662
 30
0.0
 10
20.690855
 20
3.054679
 30
0.0
 10
20.695580
 20
3.069029
 30
0.0
 10
20.703175
 20
3.082100
 30
0.0
 10
20.713356
 20
3.093311
 30
0.0
 10
20.725661
 20
3.102173
 30
0.0
 10
20.739543
 20
3.108315
 30
0.0
 10
20.754446
 20
3.111453
 30
0.0
 10
20.769623
 20
3.111453
 30
0.0
 10
20.784527
 20
3.108315
 30
0.0
 10
20.798408
 20
3.102173
 30
0.0
 10
20.810714
 20
3.093311
 30
0.0
 10
20.820894
 20
3.082100
 30
0.0
 10
20.828489
 20
3.069029
 30
0.0
 10
20.833215
 20
3.054679
 30
0.0
 10
20.834790
 20
3.039662
 30
0.0
 10
20.833215
 20
3.024650
 30
0.0
 10
20.828489
 20
3.010300
 30
0.0
 10
20.820894
 20
2.997229
 30
0.0
 10
20.810714
 20
2.986017
 30
0.0
 10
20.798408
 20
2.977139
 30
0.0
 10
20.784527
 20
2.970997
 30
0.0
 10
20.769623
 20
2.967860
 30
0.0
  0
LWPOLYLINE
  5
12c
100
AcDbEntity
  8
Layer_1
 62
7
100
AcDbPolyline
 90
30
 70
1
 10
18.756856
 20
2.967860
 30
0.0
 10
18.741979
 20
2.970997
 30
0.0
 10
18.728083
 20
2.977139
 30
0.0
 10
18.715777
 20
2.986017
 30
0.0
 10
18.705597
 20
2.997229
 30
0.0
 10
18.697987
 20
3.010300
 30
0.0
 10
18.693291
 20
3.024650
 30
0.0
 10
18.691701
 20
3.039662
 30
0.0
 10
18.693291
 20
3.054679
 30
0.0
 10
18.697987
 20
3.069029
 30
0.0
 10
18.705597
 20
3.082100
 30
0.0
 10
18.715777
 20
3.093311
 30
0.0
 10
18.728083
 20
3.102173
 30
0.0
 10
18.741979
 20
3.108315
 30
0.0
 10
18.756856
 20
3.111453
 30
0.0
 10
18.772066
 20
3.111453
 30
0.0
 10
18.786941
 20
3.108315
 30
0.0
 10
18.800836
 20
3.102173
 30
0.0
 10
18.813143
 20
3.093311
 30
0.0
 10
18.823323
 20
3.082100
 30
0.0
 10
18.830918
 20
3.069029
 30
0.0
 10
18.835614
 20
3.054679
 30
0.0
 10
18.837204
 20
3.039662
 30
0.0
 10
18.835614
 20
3.024650
 30
0.0
 10
18.830918
 20
3.010300
 30
0.0
 10
18.823323
 20
2.997229
 30
0.0
 10
18.813143
 20
2.986017
 30
0.0
 10
18.800836
 20
2.977139
 30
0.0
 10
18.786941
 20
2.970997
 30
0.0
 10
18.772066
 20
2.967860
 30
0.0
  0
LWPOLYLINE
  5
12d
100
AcDbEntity
  8
Layer_1
 62
7
100
AcDbPolyline
 90
30
 70
1
 10
29.413223
 20
2.960054
 30
0.0
 10
29.398320
 20
2.963191
 30
0.0
 10
29.384438
 20
2.969333
 30
0.0
 10
29.372132
 20
2.978210
 30
0.0
 10
29.361952
 20
2.989422
 30
0.0
 10
29.354357
 20
3.002493
 30
0.0
 10
29.349646
 20
3.016858
 30
0.0
 10
29.348072
 20
3.031871
 30
0.0
 10
29.349646
 20
3.046885
 30
0.0
 10
29.354357
 20
3.061250
 30
0.0
 10
29.361952
 20
3.074321
 30
0.0
 10
29.372132
 20
3.085533
 30
0.0
 10
29.384438
 20
3.094396
 30
0.0
 10
29.398320
 20
3.100537
 30
0.0
 10
29.413223
 20
3.103675
 30
0.0
 10
29.428400
 20
3.103675
 30
0.0
 10
29.443303
 20
3.100537
 30
0.0
 10
29.457184
 20
3.094396
 30
0.0
 10
29.469491
 20
3.085533
 30
0.0
 10
29.479671
 20
3.074321
 30
0.0
 10
29.487266
 20
3.061250
 30
0.0
 10
29.491977
 20
3.046885
 30
0.0
 10
29.493551
 20
3.031871
 30
0.0
 10
29.491977
 20
3.016858
 30
0.0
 10
29.487266
 20
3.002493
 30
0.0
 10
29.479671
 20
2.989422
 30
0.0
 10
29.469491
 20
2.978210
 30
0.0
 10
29.457184
 20
2.969333
 30
0.0
 10
29.443303
 20
2.963191
 30
0.0
 10
29.428400
 20
2.960054
 30
0.0
  0
LWPOLYLINE
  5
12e
100
AcDbEntity
  8
Layer_1
 62
7
100
AcDbPolyline
 90
30
 70
1
 10
27.447105
 20
2.960054
 30
0.0
 10
27.432202
 20
2.963191
 30
0.0
 10
27.418321
 20
2.969333
 30
0.0
 10
27.406016
 20
2.978210
 30
0.0
 10
27.395834
 20
2.989422
 30
0.0
 10
27.388241
 20
3.002493
 30
0.0
 10
27.383529
 20
3.016858
 30
0.0
 10
27.381954
 20
3.031871
 30
0.0
 10
27.383529
 20
3.046885
 30
0.0
 10
27.388241
 20
3.061250
 30
0.0
 10
27.395834
 20
3.074321
 30
0.0
 10
27.406016
 20
3.085533
 30
0.0
 10
27.418321
 20
3.094396
 30
0.0
 10
27.432202
 20
3.100537
 30
0.0
 10
27.447105
 20
3.103675
 30
0.0
 10
27.462284
 20
3.103675
 30
0.0
 10
27.477186
 20
3.100537
 30
0.0
 10
27.491068
 20
3.094396
 30
0.0
 10
27.503373
 20
3.085533
 30
0.0
 10
27.513554
 20
3.074321
 30
0.0
 10
27.521148
 20
3.061250
 30
0.0
 10
27.525859
 20
3.046885
 30
0.0
 10
27.527434
 20
3.031871
 30
0.0
 10
27.525859
 20
3.016858
 30
0.0
 10
27.521148
 20
3.002493
 30
0.0
 10
27.513554
 20
2.989422
 30
0.0
 10
27.503373
 20
2.978210
 30
0.0
 10
27.491068
 20
2.969333
 30
0.0
 10
27.477186
 20
2.963191
 30
0.0
 10
27.462284
 20
2.960054
 30
0.0
  0
LWPOLYLINE
  5
12f
100
AcDbEntity
  8
Layer_1
 62
7
100
AcDbPolyline
 90
30
 70
1
 10
25.480990
 20
2.960054
 30
0.0
 10
25.466085
 20
2.963191
 30
0.0
 10
25.452204
 20
2.969333
 30
0.0
 10
25.439899
 20
2.978210
 30
0.0
 10
25.429719
 20
2.989422
 30
0.0
 10
25.422124
 20
3.002493
 30
0.0
 10
25.417398
 20
3.016858
 30
0.0
 10
25.415823
 20
3.031871
 30
0.0
 10
25.417398
 20
3.046885
 30
0.0
 10
25.422124
 20
3.061250
 30
0.0
 10
25.429719
 20
3.074321
 30
0.0
 10
25.439899
 20
3.085533
 30
0.0
 10
25.452204
 20
3.094396
 30
0.0
 10
25.466085
 20
3.100537
 30
0.0
 10
25.480990
 20
3.103675
 30
0.0
 10
25.496168
 20
3.103675
 30
0.0
 10
25.511072
 20
3.100537
 30
0.0
 10
25.524952
 20
3.094396
 30
0.0
 10
25.537258
 20
3.085533
 30
0.0
 10
25.547439
 20
3.074321
 30
0.0
 10
25.555033
 20
3.061250
 30
0.0
 10
25.559759
 20
3.046885
 30
0.0
 10
25.561334
 20
3.031871
 30
0.0
 10
25.559759
 20
3.016858
 30
0.0
 10
25.555033
 20
3.002493
 30
0.0
 10
25.547439
 20
2.989422
 30
0.0
 10
25.537258
 20
2.978210
 30
0.0
 10
25.524952
 20
2.969333
 30
0.0
 10
25.511072
 20
2.963191
 30
0.0
 10
25.496168
 20
2.960054
 30
0.0
  0
LWPOLYLINE
  5
130
100
AcDbEntity
  8
Layer_1
 62
7
100
AcDbPolyline
 90
4
 70
1
 10
47.258285
 20
2.462638
 30
0.0
 10
32.681786
 20
2.462638
 30
0.0
 10
32.681786
 20
0.009803
 30
0.0
 10
47.258285
 20
0.009803
 30
0.0
  0
LWPOLYLINE
  5
131
100
AcDbEntity
  8
Layer_1
 62
7
100
AcDbPolyline
 90
30
 70
1
 10
33.492886
 20
1.844419
 30
0.0
 10
33.471290
 20
1.848973
 30
0.0
 10
33.451115
 20
1.857880
 30
0.0
 10
33.433253
 20
1.870751
 30
0.0
 10
33.418476
 20
1.887027
 30
0.0
 10
33.407434
 20
1.905989
 30
0.0
 10
33.400603
 20
1.926817
 30
0.0
 10
33.398296
 20
1.948595
 30
0.0
 10
33.400603
 20
1.970373
 30
0.0
 10
33.407434
 20
1.991202
 30
0.0
 10
33.418476
 20
2.010164
 30
0.0
 10
33.433253
 20
2.026440
 30
0.0
 10
33.451115
 20
2.039311
 30
0.0
 10
33.471290
 20
2.048218
 30
0.0
 10
33.492886
 20
2.052771
 30
0.0
 10
33.514968
 20
2.052771
 30
0.0
 10
33.536565
 20
2.048218
 30
0.0
 10
33.556736
 20
2.039311
 30
0.0
 10
33.574600
 20
2.026440
 30
0.0
 10
33.589377
 20
2.010164
 30
0.0
 10
33.600420
 20
1.991202
 30
0.0
 10
33.607251
 20
1.970373
 30
0.0
 10
33.609558
 20
1.948595
 30
0.0
 10
33.607251
 20
1.926817
 30
0.0
 10
33.600420
 20
1.905989
 30
0.0
 10
33.589377
 20
1.887027
 30
0.0
 10
33.574600
 20
1.870751
 30
0.0
 10
33.556736
 20
1.857880
 30
0.0
 10
33.536565
 20
1.848973
 30
0.0
 10
33.514968
 20
1.844419
 30
0.0
  0
LWPOLYLINE
  5
132
100
AcDbEntity
  8
Layer_1
 62
7
100
AcDbPolyline
 90
30
 70
1
 10
34.066026
 20
0.584563
 30
0.0
 10
33.914718
 20
0.616459
 30
0.0
 10
33.773406
 20
0.678856
 30
0.0
 10
33.648261
 20
0.769028
 30
0.0
 10
33.544755
 20
0.883032
 30
0.0
 10
33.467415
 20
1.015889
 30
0.0
 10
33.419610
 20
1.161789
 30
0.0
 10
33.403443
 20
1.314358
 30
0.0
 10
33.419610
 20
1.466927
 30
0.0
 10
33.467415
 20
1.612827
 30
0.0
 10
33.544755
 20
1.745684
 30
0.0
 10
33.648261
 20
1.859688
 30
0.0
 10
33.773406
 20
1.949856
 30
0.0
 10
33.914718
 20
2.012253
 30
0.0
 10
34.066026
 20
2.044148
 30
0.0
 10
34.220715
 20
2.044148
 30
0.0
 10
34.372018
 20
2.012253
 30
0.0
 10
34.513333
 20
1.949856
 30
0.0
 10
34.638478
 20
1.859688
 30
0.0
 10
34.741981
 20
1.745684
 30
0.0
 10
34.819325
 20
1.612827
 30
0.0
 10
34.867125
 20
1.466927
 30
0.0
 10
34.883296
 20
1.314358
 30
0.0
 10
34.867125
 20
1.161789
 30
0.0
 10
34.819325
 20
1.015889
 30
0.0
 10
34.741981
 20
0.883032
 30
0.0
 10
34.638478
 20
0.769028
 30
0.0
 10
34.513333
 20
0.678856
 30
0.0
 10
34.372018
 20
0.616459
 30
0.0
 10
34.220715
 20
0.584563
 30
0.0
  0
LWPOLYLINE
  5
133
100
AcDbEntity
  8
Layer_1
 62
7
100
AcDbPolyline
 90
30
 70
1
 10
34.808390
 20
1.805370
 30
0.0
 10
34.786794
 20
1.809923
 30
0.0
 10
34.766619
 20
1.818830
 30
0.0
 10
34.748757
 20
1.831702
 30
0.0
 10
34.733980
 20
1.847977
 30
0.0
 10
34.722938
 20
1.866940
 30
0.0
 10
34.716122
 20
1.887768
 30
0.0
 10
34.713815
 20
1.909546
 30
0.0
 10
34.716122
 20
1.931324
 30
0.0
 10
34.722938
 20
1.952152
 30
0.0
 10
34.733980
 20
1.971115
 30
0.0
 10
34.748757
 20
1.987391
 30
0.0
 10
34.766619
 20
2.000262
 30
0.0
 10
34.786794
 20
2.009169
 30
0.0
 10
34.808390
 20
2.013722
 30
0.0
 10
34.830472
 20
2.013722
 30
0.0
 10
34.852068
 20
2.009169
 30
0.0
 10
34.872241
 20
2.000262
 30
0.0
 10
34.890104
 20
1.987391
 30
0.0
 10
34.904881
 20
1.971115
 30
0.0
 10
34.915924
 20
1.952152
 30
0.0
 10
34.922740
 20
1.931324
 30
0.0
 10
34.925047
 20
1.909546
 30
0.0
 10
34.922740
 20
1.887768
 30
0.0
 10
34.915924
 20
1.866940
 30
0.0
 10
34.904881
 20
1.847977
 30
0.0
 10
34.890104
 20
1.831702
 30
0.0
 10
34.872241
 20
1.818830
 30
0.0
 10
34.852068
 20
1.809923
 30
0.0
 10
34.830472
 20
1.805370
 30
0.0
  0
LWPOLYLINE
  5
134
100
AcDbEntity
  8
Layer_1
 62
7
100
AcDbPolyline
 90
30
 70
1
 10
38.265373
 20
1.734219
 30
0.0
 10
38.250450
 20
1.737356
 30
0.0
 10
38.236550
 20
1.743499
 30
0.0
 10
38.224228
 20
1.752380
 30
0.0
 10
38.214034
 20
1.763602
 30
0.0
 10
38.206429
 20
1.776680
 30
0.0
 10
38.201697
 20
1.791045
 30
0.0
 10
38.200119
 20
1.806063
 30
0.0
 10
38.201697
 20
1.821082
 30
0.0
 10
38.206429
 20
1.835447
 30
0.0
 10
38.214034
 20
1.848525
 30
0.0
 10
38.224228
 20
1.859747
 30
0.0
 10
38.236550
 20
1.868623
 30
0.0
 10
38.250450
 20
1.874766
 30
0.0
 10
38.265373
 20
1.877908
 30
0.0
 10
38.280572
 20
1.877908
 30
0.0
 10
38.295495
 20
1.874766
 30
0.0
 10
38.309395
 20
1.868623
 30
0.0
 10
38.321717
 20
1.859747
 30
0.0
 10
38.331910
 20
1.848525
 30
0.0
 10
38.339516
 20
1.835447
 30
0.0
 10
38.344232
 20
1.821082
 30
0.0
 10
38.345811
 20
1.806063
 30
0.0
 10
38.344232
 20
1.791045
 30
0.0
 10
38.339516
 20
1.776680
 30
0.0
 10
38.331910
 20
1.763602
 30
0.0
 10
38.321717
 20
1.752380
 30
0.0
 10
38.309395
 20
1.743499
 30
0.0
 10
38.295495
 20
1.737356
 30
0.0
 10
38.280572
 20
1.734219
 30
0.0
  0
LWPOLYLINE
  5
135
100
AcDbEntity
  8
Layer_1
 62
7
100
AcDbPolyline
 90
30
 70
1
 10
41.809093
 20
1.734219
 30
0.0
 10
41.794168
 20
1.737356
 30
0.0
 10
41.780270
 20
1.743499
 30
0.0
 10
41.767947
 20
1.752380
 30
0.0
 10
41.757754
 20
1.763602
 30
0.0
 10
41.750148
 20
1.776680
 30
0.0
 10
41.745416
 20
1.791045
 30
0.0
 10
41.743841
 20
1.806063
 30
0.0
 10
41.745416
 20
1.821082
 30
0.0
 10
41.750148
 20
1.835447
 30
0.0
 10
41.757754
 20
1.848525
 30
0.0
 10
41.767947
 20
1.859747
 30
0.0
 10
41.780270
 20
1.868623
 30
0.0
 10
41.794168
 20
1.874766
 30
0.0
 10
41.809093
 20
1.877908
 30
0.0
 10
41.824290
 20
1.877908
 30
0.0
 10
41.839215
 20
1.874766
 30
0.0
 10
41.853112
 20
1.868623
 30
0.0
 10
41.865435
 20
1.859747
 30
0.0
 10
41.875628
 20
1.848525
 30
0.0
 10
41.883234
 20
1.835447
 30
0.0
 10
41.887951
 20
1.821082
 30
0.0
 10
41.889526
 20
1.806063
 30
0.0
 10
41.887951
 20
1.791045
 30
0.0
 10
41.883234
 20
1.776680
 30
0.0
 10
41.875628
 20
1.763602
 30
0.0
 10
41.865435
 20
1.752380
 30
0.0
 10
41.853112
 20
1.743499
 30
0.0
 10
41.839215
 20
1.737356
 30
0.0
 10
41.824290
 20
1.734219
 30
0.0
  0
LWPOLYLINE
  5
136
100
AcDbEntity
  8
Layer_1
 62
7
100
AcDbPolyline
 90
30
 70
1
 10
43.777833
 20
1.734219
 30
0.0
 10
43.762908
 20
1.737356
 30
0.0
 10
43.749006
 20
1.743499
 30
0.0
 10
43.736683
 20
1.752380
 30
0.0
 10
43.726491
 20
1.763602
 30
0.0
 10
43.718889
 20
1.776680
 30
0.0
 10
43.714168
 20
1.791045
 30
0.0
 10
43.712593
 20
1.806063
 30
0.0
 10
43.714168
 20
1.821082
 30
0.0
 10
43.718889
 20
1.835447
 30
0.0
 10
43.726491
 20
1.848525
 30
0.0
 10
43.736683
 20
1.859747
 30
0.0
 10
43.749006
 20
1.868623
 30
0.0
 10
43.762908
 20
1.874766
 30
0.0
 10
43.777833
 20
1.877908
 30
0.0
 10
43.793030
 20
1.877908
 30
0.0
 10
43.807951
 20
1.874766
 30
0.0
 10
43.821853
 20
1.868623
 30
0.0
 10
43.834172
 20
1.859747
 30
0.0
 10
43.844369
 20
1.848525
 30
0.0
 10
43.851971
 20
1.835447
 30
0.0
 10
43.856687
 20
1.821082
 30
0.0
 10
43.858262
 20
1.806063
 30
0.0
 10
43.856687
 20
1.791045
 30
0.0
 10
43.851971
 20
1.776680
 30
0.0
 10
43.844369
 20
1.763602
 30
0.0
 10
43.834172
 20
1.752380
 30
0.0
 10
43.821853
 20
1.743499
 30
0.0
 10
43.807951
 20
1.737356
 30
0.0
 10
43.793030
 20
1.734219
 30
0.0
  0
LWPOLYLINE
  5
137
100
AcDbEntity
  8
Layer_1
 62
7
100
AcDbPolyline
 90
30
 70
1
 10
40.234101
 20
1.734219
 30
0.0
 10
40.219176
 20
1.737356
 30
0.0
 10
40.205278
 20
1.743499
 30
0.0
 10
40.192955
 20
1.752380
 30
0.0
 10
40.182762
 20
1.763602
 30
0.0
 10
40.175156
 20
1.776680
 30
0.0
 10
40.170440
 20
1.791045
 30
0.0
 10
40.168865
 20
1.806063
 30
0.0
 10
40.170440
 20
1.821082
 30
0.0
 10
40.175156
 20
1.835447
 30
0.0
 10
40.182762
 20
1.848525
 30
0.0
 10
40.192955
 20
1.859747
 30
0.0
 10
40.205278
 20
1.868623
 30
0.0
 10
40.219176
 20
1.874766
 30
0.0
 10
40.234101
 20
1.877908
 30
0.0
 10
40.249302
 20
1.877908
 30
0.0
 10
40.264223
 20
1.874766
 30
0.0
 10
40.278121
 20
1.868623
 30
0.0
 10
40.290444
 20
1.859747
 30
0.0
 10
40.300636
 20
1.848525
 30
0.0
 10
40.308243
 20
1.835447
 30
0.0
 10
40.312959
 20
1.821082
 30
0.0
 10
40.314534
 20
1.806063
 30
0.0
 10
40.312959
 20
1.791045
 30
0.0
 10
40.308243
 20
1.776680
 30
0.0
 10
40.300636
 20
1.763602
 30
0.0
 10
40.290444
 20
1.752380
 30
0.0
 10
40.278121
 20
1.743499
 30
0.0
 10
40.264223
 20
1.737356
 30
0.0
 10
40.249302
 20
1.734219
 30
0.0
  0
LWPOLYLINE
  5
138
100
AcDbEntity
  8
Layer_1
 62
7
100
AcDbPolyline
 90
30
 70
1
 10
36.296630
 20
1.734219
 30
0.0
 10
36.281735
 20
1.737356
 30
0.0
 10
36.267821
 20
1.743499
 30
0.0
 10
36.255499
 20
1.752380
 30
0.0
 10
36.245305
 20
1.763602
 30
0.0
 10
36.237685
 20
1.776680
 30
0.0
 10
36.232983
 20
1.791045
 30
0.0
 10
36.231389
 20
1.806063
 30
0.0
 10
36.232983
 20
1.821082
 30
0.0
 10
36.237685
 20
1.835447
 30
0.0
 10
36.245305
 20
1.848525
 30
0.0
 10
36.255499
 20
1.859747
 30
0.0
 10
36.267821
 20
1.868623
 30
0.0
 10
36.281735
 20
1.874766
 30
0.0
 10
36.296630
 20
1.877908
 30
0.0
 10
36.311860
 20
1.877908
 30
0.0
 10
36.326755
 20
1.874766
 30
0.0
 10
36.340670
 20
1.868623
 30
0.0
 10
36.352992
 20
1.859747
 30
0.0
 10
36.363185
 20
1.848525
 30
0.0
 10
36.370791
 20
1.835447
 30
0.0
 10
36.375508
 20
1.821082
 30
0.0
 10
36.377102
 20
1.806063
 30
0.0
 10
36.375508
 20
1.791045
 30
0.0
 10
36.370791
 20
1.776680
 30
0.0
 10
36.363185
 20
1.763602
 30
0.0
 10
36.352992
 20
1.752380
 30
0.0
 10
36.340670
 20
1.743499
 30
0.0
 10
36.326755
 20
1.737356
 30
0.0
 10
36.311860
 20
1.734219
 30
0.0
  0
LWPOLYLINE
  5
139
100
AcDbEntity
  8
Layer_1
 62
7
100
AcDbPolyline
 90
30
 70
1
 10
45.746573
 20
1.734219
 30
0.0
 10
45.731656
 20
1.737356
 30
0.0
 10
45.717754
 20
1.743499
 30
0.0
 10
45.705431
 20
1.752380
 30
0.0
 10
45.695239
 20
1.763602
 30
0.0
 10
45.687632
 20
1.776680
 30
0.0
 10
45.682916
 20
1.791045
 30
0.0
 10
45.681341
 20
1.806063
 30
0.0
 10
45.682916
 20
1.821082
 30
0.0
 10
45.687632
 20
1.835447
 30
0.0
 10
45.695239
 20
1.848525
 30
0.0
 10
45.705431
 20
1.859747
 30
0.0
 10
45.717754
 20
1.868623
 30
0.0
 10
45.731656
 20
1.874766
 30
0.0
 10
45.746573
 20
1.877908
 30
0.0
 10
45.761774
 20
1.877908
 30
0.0
 10
45.776695
 20
1.874766
 30
0.0
 10
45.790597
 20
1.868623
 30
0.0
 10
45.802920
 20
1.859747
 30
0.0
 10
45.813113
 20
1.848525
 30
0.0
 10
45.820719
 20
1.835447
 30
0.0
 10
45.825435
 20
1.821082
 30
0.0
 10
45.827010
 20
1.806063
 30
0.0
 10
45.825435
 20
1.791045
 30
0.0
 10
45.820719
 20
1.776680
 30
0.0
 10
45.813113
 20
1.763602
 30
0.0
 10
45.802920
 20
1.752380
 30
0.0
 10
45.790597
 20
1.743499
 30
0.0
 10
45.776695
 20
1.737356
 30
0.0
 10
45.761774
 20
1.734219
 30
0.0
  0
LWPOLYLINE
  5
13a
100
AcDbEntity
  8
Layer_1
 62
7
100
AcDbPolyline
 90
4
 70
1
 10
36.422370
 20
0.673639
 30
0.0
 10
36.422370
 20
1.571770
 30
0.0
 10
40.202325
 20
1.571770
 30
0.0
 10
40.202325
 20
0.673639
 30
0.0
  0
LWPOLYLINE
  5
13b
100
AcDbEntity
  8
Layer_1
 62
7
100
AcDbPolyline
 90
4
 70
1
 10
41.934814
 20
0.673639
 30
0.0
 10
41.934814
 20
1.571770
 30
0.0
 10
45.714802
 20
1.571770
 30
0.0
 10
45.714802
 20
0.673639
 30
0.0
  0
LWPOLYLINE
  5
13c
100
AcDbEntity
  8
Layer_1
 62
7
100
AcDbPolyline
 90
30
 70
1
 10
33.492886
 20
0.557905
 30
0.0
 10
33.471290
 20
0.562458
 30
0.0
 10
33.451115
 20
0.571365
 30
0.0
 10
33.433253
 20
0.584236
 30
0.0
 10
33.418476
 20
0.600512
 30
0.0
 10
33.407434
 20
0.619474
 30
0.0
 10
33.400603
 20
0.640303
 30
0.0
 10
33.398296
 20
0.662081
 30
0.0
 10
33.400603
 20
0.683858
 30
0.0
 10
33.407434
 20
0.704687
 30
0.0
 10
33.418476
 20
0.723650
 30
0.0
 10
33.433253
 20
0.739925
 30
0.0
 10
33.451115
 20
0.752797
 30
0.0
 10
33.471290
 20
0.761704
 30
0.0
 10
33.492886
 20
0.766256
 30
0.0
 10
33.514968
 20
0.766256
 30
0.0
 10
33.536565
 20
0.761704
 30
0.0
 10
33.556736
 20
0.752797
 30
0.0
 10
33.574600
 20
0.739925
 30
0.0
 10
33.589377
 20
0.723650
 30
0.0
 10
33.600420
 20
0.704687
 30
0.0
 10
33.607251
 20
0.683858
 30
0.0
 10
33.609558
 20
0.662081
 30
0.0
 10
33.607251
 20
0.640303
 30
0.0
 10
33.600420
 20
0.619474
 30
0.0
 10
33.589377
 20
0.600512
 30
0.0
 10
33.574600
 20
0.584236
 30
0.0
 10
33.556736
 20
0.571365
 30
0.0
 10
33.536565
 20
0.562458
 30
0.0
 10
33.514968
 20
0.557905
 30
0.0
  0
LWPOLYLINE
  5
13d
100
AcDbEntity
  8
Layer_1
 62
7
100
AcDbPolyline
 90
30
 70
1
 10
34.808390
 20
0.557905
 30
0.0
 10
34.786794
 20
0.562458
 30
0.0
 10
34.766619
 20
0.571365
 30
0.0
 10
34.748757
 20
0.584236
 30
0.0
 10
34.733980
 20
0.600512
 30
0.0
 10
34.722938
 20
0.619474
 30
0.0
 10
34.716122
 20
0.640303
 30
0.0
 10
34.713815
 20
0.662081
 30
0.0
 10
34.716122
 20
0.683858
 30
0.0
 10
34.722938
 20
0.704687
 30
0.0
 10
34.733980
 20
0.723650
 30
0.0
 10
34.748757
 20
0.739925
 30
0.0
 10
34.766619
 20
0.752797
 30
0.0
 10
34.786794
 20
0.761704
 30
0.0
 10
34.808390
 20
0.766256
 30
0.0
 10
34.830472
 20
0.766256
 30
0.0
 10
34.852068
 20
0.761704
 30
0.0
 10
34.872241
 20
0.752797
 30
0.0
 10
34.890104
 20
0.739925
 30
0.0
 10
34.904881
 20
0.723650
 30
0.0
 10
34.915924
 20
0.704687
 30
0.0
 10
34.922740
 20
0.683858
 30
0.0
 10
34.925047
 20
0.662081
 30
0.0
 10
34.922740
 20
0.640303
 30
0.0
 10
34.915924
 20
0.619474
 30
0.0
 10
34.904881
 20
0.600512
 30
0.0
 10
34.890104
 20
0.584236
 30
0.0
 10
34.872241
 20
0.571365
 30
0.0
 10
34.852068
 20
0.562458
 30
0.0
 10
34.830472
 20
0.557905
 30
0.0
  0
LWPOLYLINE
  5
13e
100
AcDbEntity
  8
Layer_1
 62
7
100
AcDbPolyline
 90
30
 70
1
 10
45.746573
 20
0.367499
 30
0.0
 10
45.731656
 20
0.370640
 30
0.0
 10
45.717754
 20
0.376783
 30
0.0
 10
45.705431
 20
0.385660
 30
0.0
 10
45.695239
 20
0.396882
 30
0.0
 10
45.687632
 20
0.409960
 30
0.0
 10
45.682916
 20
0.424326
 30
0.0
 10
45.681341
 20
0.439345
 30
0.0
 10
45.682916
 20
0.454362
 30
0.0
 10
45.687632
 20
0.468728
 30
0.0
 10
45.695239
 20
0.481806
 30
0.0
 10
45.705431
 20
0.493028
 30
0.0
 10
45.717754
 20
0.501904
 30
0.0
 10
45.731656
 20
0.508047
 30
0.0
 10
45.746573
 20
0.511188
 30
0.0
 10
45.761774
 20
0.511188
 30
0.0
 10
45.776695
 20
0.508047
 30
0.0
 10
45.790597
 20
0.501904
 30
0.0
 10
45.802920
 20
0.493028
 30
0.0
 10
45.813113
 20
0.481806
 30
0.0
 10
45.820719
 20
0.468728
 30
0.0
 10
45.825435
 20
0.454362
 30
0.0
 10
45.827010
 20
0.439345
 30
0.0
 10
45.825435
 20
0.424326
 30
0.0
 10
45.820719
 20
0.409960
 30
0.0
 10
45.813113
 20
0.396882
 30
0.0
 10
45.802920
 20
0.385660
 30
0.0
 10
45.790597
 20
0.376783
 30
0.0
 10
45.776695
 20
0.370640
 30
0.0
 10
45.761774
 20
0.367499
 30
0.0
  0
LWPOLYLINE
  5
13f
100
AcDbEntity
  8
Layer_1
 62
7
100
AcDbPolyline
 90
30
 70
1
 10
43.777833
 20
0.367499
 30
0.0
 10
43.762908
 20
0.370640
 30
0.0
 10
43.749006
 20
0.376783
 30
0.0
 10
43.736683
 20
0.385660
 30
0.0
 10
43.726491
 20
0.396882
 30
0.0
 10
43.718889
 20
0.409960
 30
0.0
 10
43.714168
 20
0.424326
 30
0.0
 10
43.712593
 20
0.439345
 30
0.0
 10
43.714168
 20
0.454362
 30
0.0
 10
43.718889
 20
0.468728
 30
0.0
 10
43.726491
 20
0.481806
 30
0.0
 10
43.736683
 20
0.493028
 30
0.0
 10
43.749006
 20
0.501904
 30
0.0
 10
43.762908
 20
0.508047
 30
0.0
 10
43.777833
 20
0.511188
 30
0.0
 10
43.793030
 20
0.511188
 30
0.0
 10
43.807951
 20
0.508047
 30
0.0
 10
43.821853
 20
0.501904
 30
0.0
 10
43.834172
 20
0.493028
 30
0.0
 10
43.844369
 20
0.481806
 30
0.0
 10
43.851971
 20
0.468728
 30
0.0
 10
43.856687
 20
0.454362
 30
0.0
 10
43.858262
 20
0.439345
 30
0.0
 10
43.856687
 20
0.424326
 30
0.0
 10
43.851971
 20
0.409960
 30
0.0
 10
43.844369
 20
0.396882
 30
0.0
 10
43.834172
 20
0.385660
 30
0.0
 10
43.821853
 20
0.376783
 30
0.0
 10
43.807951
 20
0.370640
 30
0.0
 10
43.793030
 20
0.367499
 30
0.0
  0
LWPOLYLINE
  5
140
100
AcDbEntity
  8
Layer_1
 62
7
100
AcDbPolyline
 90
30
 70
1
 10
38.265373
 20
0.367499
 30
0.0
 10
38.250450
 20
0.370640
 30
0.0
 10
38.236550
 20
0.376783
 30
0.0
 10
38.224228
 20
0.385660
 30
0.0
 10
38.214034
 20
0.396882
 30
0.0
 10
38.206429
 20
0.409960
 30
0.0
 10
38.201697
 20
0.424326
 30
0.0
 10
38.200119
 20
0.439345
 30
0.0
 10
38.201697
 20
0.454362
 30
0.0
 10
38.206429
 20
0.468728
 30
0.0
 10
38.214034
 20
0.481806
 30
0.0
 10
38.224228
 20
0.493028
 30
0.0
 10
38.236550
 20
0.501904
 30
0.0
 10
38.250450
 20
0.508047
 30
0.0
 10
38.265373
 20
0.511188
 30
0.0
 10
38.280572
 20
0.511188
 30
0.0
 10
38.295495
 20
0.508047
 30
0.0
 10
38.309395
 20
0.501904
 30
0.0
 10
38.321717
 20
0.493028
 30
0.0
 10
38.331910
 20
0.481806
 30
0.0
 10
38.339516
 20
0.468728
 30
0.0
 10
38.344232
 20
0.454362
 30
0.0
 10
38.345811
 20
0.439345
 30
0.0
 10
38.344232
 20
0.424326
 30
0.0
 10
38.339516
 20
0.409960
 30
0.0
 10
38.331910
 20
0.396882
 30
0.0
 10
38.321717
 20
0.385660
 30
0.0
 10
38.309395
 20
0.376783
 30
0.0
 10
38.295495
 20
0.370640
 30
0.0
 10
38.280572
 20
0.367499
 30
0.0
  0
LWPOLYLINE
  5
141
100
AcDbEntity
  8
Layer_1
 62
7
100
AcDbPolyline
 90
30
 70
1
 10
41.809093
 20
0.367499
 30
0.0
 10
41.794168
 20
0.370640
 30
0.0
 10
41.780270
 20
0.376783
 30
0.0
 10
41.767947
 20
0.385660
 30
0.0
 10
41.757754
 20
0.396882
 30
0.0
 10
41.750148
 20
0.409960
 30
0.0
 10
41.745416
 20
0.424326
 30
0.0
 10
41.743841
 20
0.439345
 30
0.0
 10
41.745416
 20
0.454362
 30
0.0
 10
41.750148
 20
0.468728
 30
0.0
 10
41.757754
 20
0.481806
 30
0.0
 10
41.767947
 20
0.493028
 30
0.0
 10
41.780270
 20
0.501904
 30
0.0
 10
41.794168
 20
0.508047
 30
0.0
 10
41.809093
 20
0.511188
 30
0.0
 10
41.824290
 20
0.511188
 30
0.0
 10
41.839215
 20
0.508047
 30
0.0
 10
41.853112
 20
0.501904
 30
0.0
 10
41.865435
 20
0.493028
 30
0.0
 10
41.875628
 20
0.481806
 30
0.0
 10
41.883234
 20
0.468728
 30
0.0
 10
41.887951
 20
0.454362
 30
0.0
 10
41.889526
 20
0.439345
 30
0.0
 10
41.887951
 20
0.424326
 30
0.0
 10
41.883234
 20
0.409960
 30
0.0
 10
41.875628
 20
0.396882
 30
0.0
 10
41.865435
 20
0.385660
 30
0.0
 10
41.853112
 20
0.376783
 30
0.0
 10
41.839215
 20
0.370640
 30
0.0
 10
41.824290
 20
0.367499
 30
0.0
  0
LWPOLYLINE
  5
142
100
AcDbEntity
  8
Layer_1
 62
7
100
AcDbPolyline
 90
30
 70
1
 10
40.234101
 20
0.367499
 30
0.0
 10
40.219176
 20
0.370640
 30
0.0
 10
40.205278
 20
0.376783
 30
0.0
 10
40.192955
 20
0.385660
 30
0.0
 10
40.182762
 20
0.396882
 30
0.0
 10
40.175156
 20
0.409960
 30
0.0
 10
40.170440
 20
0.424326
 30
0.0
 10
40.168865
 20
0.439345
 30
0.0
 10
40.170440
 20
0.454362
 30
0.0
 10
40.175156
 20
0.468728
 30
0.0
 10
40.182762
 20
0.481806
 30
0.0
 10
40.192955
 20
0.493028
 30
0.0
 10
40.205278
 20
0.501904
 30
0.0
 10
40.219176
 20
0.508047
 30
0.0
 10
40.234101
 20
0.511188
 30
0.0
 10
40.249302
 20
0.511188
 30
0.0
 10
40.264223
 20
0.508047
 30
0.0
 10
40.278121
 20
0.501904
 30
0.0
 10
40.290444
 20
0.493028
 30
0.0
 10
40.300636
 20
0.481806
 30
0.0
 10
40.308243
 20
0.468728
 30
0.0
 10
40.312959
 20
0.454362
 30
0.0
 10
40.314534
 20
0.439345
 30
0.0
 10
40.312959
 20
0.424326
 30
0.0
 10
40.308243
 20
0.409960
 30
0.0
 10
40.300636
 20
0.396882
 30
0.0
 10
40.290444
 20
0.385660
 30
0.0
 10
40.278121
 20
0.376783
 30
0.0
 10
40.264223
 20
0.370640
 30
0.0
 10
40.249302
 20
0.367499
 30
0.0
  0
LWPOLYLINE
  5
143
100
AcDbEntity
  8
Layer_1
 62
7
100
AcDbPolyline
 90
30
 70
1
 10
36.296630
 20
0.367499
 30
0.0
 10
36.281735
 20
0.370640
 30
0.0
 10
36.267821
 20
0.376783
 30
0.0
 10
36.255499
 20
0.385660
 30
0.0
 10
36.245305
 20
0.396882
 30
0.0
 10
36.237685
 20
0.409960
 30
0.0
 10
36.232983
 20
0.424326
 30
0.0
 10
36.231389
 20
0.439345
 30
0.0
 10
36.232983
 20
0.454362
 30
0.0
 10
36.237685
 20
0.468728
 30
0.0
 10
36.245305
 20
0.481806
 30
0.0
 10
36.255499
 20
0.493028
 30
0.0
 10
36.267821
 20
0.501904
 30
0.0
 10
36.281735
 20
0.508047
 30
0.0
 10
36.296630
 20
0.511188
 30
0.0
 10
36.311860
 20
0.511188
 30
0.0
 10
36.326755
 20
0.508047
 30
0.0
 10
36.340670
 20
0.501904
 30
0.0
 10
36.352992
 20
0.493028
 30
0.0
 10
36.363185
 20
0.481806
 30
0.0
 10
36.370791
 20
0.468728
 30
0.0
 10
36.375508
 20
0.454362
 30
0.0
 10
36.377102
 20
0.439345
 30
0.0
 10
36.375508
 20
0.424326
 30
0.0
 10
36.370791
 20
0.409960
 30
0.0
 10
36.363185
 20
0.396882
 30
0.0
 10
36.352992
 20
0.385660
 30
0.0
 10
36.340670
 20
0.376783
 30
0.0
 10
36.326755
 20
0.370640
 30
0.0
 10
36.311860
 20
0.367499
 30
0.0
  0
LWPOLYLINE
  5
144
100
AcDbEntity
  8
Layer_1
 62
7
100
AcDbPolyline
 90
4
 70
1
 10
47.341711
 20
5.058297
 30
0.0
 10
32.765262
 20
5.058297
 30
0.0
 10
32.765262
 20
2.605449
 30
0.0
 10
47.341711
 20
2.605449
 30
0.0
  0
LWPOLYLINE
  5
145
100
AcDbEntity
  8
Layer_1
 62
7
100
AcDbPolyline
 90
30
 70
1
 10
38.733893
 20
4.330259
 30
0.0
 10
38.718993
 20
4.333397
 30
0.0
 10
38.705112
 20
4.339540
 30
0.0
 10
38.692809
 20
4.348434
 30
0.0
 10
38.682630
 20
4.359648
 30
0.0
 10
38.675036
 20
4.372721
 30
0.0
 10
38.670326
 20
4.387088
 30
0.0
 10
38.668751
 20
4.402109
 30
0.0
 10
38.670326
 20
4.417130
 30
0.0
 10
38.675036
 20
4.431497
 30
0.0
 10
38.682630
 20
4.444571
 30
0.0
 10
38.692809
 20
4.455785
 30
0.0
 10
38.705112
 20
4.464664
 30
0.0
 10
38.718993
 20
4.470807
 30
0.0
 10
38.733893
 20
4.473945
 30
0.0
 10
38.749070
 20
4.473945
 30
0.0
 10
38.763971
 20
4.470807
 30
0.0
 10
38.777850
 20
4.464664
 30
0.0
 10
38.790154
 20
4.455785
 30
0.0
 10
38.800333
 20
4.444571
 30
0.0
 10
38.807927
 20
4.431497
 30
0.0
 10
38.812637
 20
4.417130
 30
0.0
 10
38.814212
 20
4.402109
 30
0.0
 10
38.812637
 20
4.387088
 30
0.0
 10
38.807927
 20
4.372721
 30
0.0
 10
38.800333
 20
4.359648
 30
0.0
 10
38.790154
 20
4.348434
 30
0.0
 10
38.777850
 20
4.339540
 30
0.0
 10
38.763971
 20
4.333397
 30
0.0
 10
38.749070
 20
4.330259
 30
0.0
  0
LWPOLYLINE
  5
146
100
AcDbEntity
  8
Layer_1
 62
7
100
AcDbPolyline
 90
30
 70
1
 10
34.802156
 20
4.330259
 30
0.0
 10
34.787281
 20
4.333397
 30
0.0
 10
34.773386
 20
4.339540
 30
0.0
 10
34.761082
 20
4.348434
 30
0.0
 10
34.750903
 20
4.359648
 30
0.0
 10
34.743295
 20
4.372721
 30
0.0
 10
34.738599
 20
4.387088
 30
0.0
 10
34.737008
 20
4.402109
 30
0.0
 10
34.738599
 20
4.417130
 30
0.0
 10
34.743295
 20
4.431497
 30
0.0
 10
34.750903
 20
4.444571
 30
0.0
 10
34.761082
 20
4.455785
 30
0.0
 10
34.773386
 20
4.464664
 30
0.0
 10
34.787281
 20
4.470807
 30
0.0
 10
34.802156
 20
4.473945
 30
0.0
 10
34.817364
 20
4.473945
 30
0.0
 10
34.832237
 20
4.470807
 30
0.0
 10
34.846131
 20
4.464664
 30
0.0
 10
34.858435
 20
4.455785
 30
0.0
 10
34.868615
 20
4.444571
 30
0.0
 10
34.876208
 20
4.431497
 30
0.0
 10
34.880903
 20
4.417130
 30
0.0
 10
34.882494
 20
4.402109
 30
0.0
 10
34.880903
 20
4.387088
 30
0.0
 10
34.876208
 20
4.372721
 30
0.0
 10
34.868615
 20
4.359648
 30
0.0
 10
34.858435
 20
4.348434
 30
0.0
 10
34.846131
 20
4.339540
 30
0.0
 10
34.832237
 20
4.333397
 30
0.0
 10
34.817364
 20
4.330259
 30
0.0
  0
LWPOLYLINE
  5
147
100
AcDbEntity
  8
Layer_1
 62
7
100
AcDbPolyline
 90
30
 70
1
 10
41.171542
 20
4.330259
 30
0.0
 10
41.156641
 20
4.333397
 30
0.0
 10
41.142758
 20
4.339540
 30
0.0
 10
41.130459
 20
4.348434
 30
0.0
 10
41.120278
 20
4.359648
 30
0.0
 10
41.112683
 20
4.372721
 30
0.0
 10
41.107971
 20
4.387088
 30
0.0
 10
41.106396
 20
4.402109
 30
0.0
 10
41.107971
 20
4.417130
 30
0.0
 10
41.112683
 20
4.431497
 30
0.0
 10
41.120278
 20
4.444571
 30
0.0
 10
41.130459
 20
4.455785
 30
0.0
 10
41.142758
 20
4.464664
 30
0.0
 10
41.156641
 20
4.470807
 30
0.0
 10
41.171542
 20
4.473945
 30
0.0
 10
41.186715
 20
4.473945
 30
0.0
 10
41.201621
 20
4.470807
 30
0.0
 10
41.215499
 20
4.464664
 30
0.0
 10
41.227802
 20
4.455785
 30
0.0
 10
41.237982
 20
4.444571
 30
0.0
 10
41.245573
 20
4.431497
 30
0.0
 10
41.250285
 20
4.417130
 30
0.0
 10
41.251860
 20
4.402109
 30
0.0
 10
41.250285
 20
4.387088
 30
0.0
 10
41.245573
 20
4.372721
 30
0.0
 10
41.237982
 20
4.359648
 30
0.0
 10
41.227802
 20
4.348434
 30
0.0
 10
41.215499
 20
4.339540
 30
0.0
 10
41.201621
 20
4.333397
 30
0.0
 10
41.186715
 20
4.330259
 30
0.0
  0
LWPOLYLINE
  5
148
100
AcDbEntity
  8
Layer_1
 62
7
100
AcDbPolyline
 90
30
 70
1
 10
43.137404
 20
4.330259
 30
0.0
 10
43.122499
 20
4.333397
 30
0.0
 10
43.108624
 20
4.339540
 30
0.0
 10
43.096318
 20
4.348434
 30
0.0
 10
43.086136
 20
4.359648
 30
0.0
 10
43.078546
 20
4.372721
 30
0.0
 10
43.073837
 20
4.387088
 30
0.0
 10
43.072262
 20
4.402109
 30
0.0
 10
43.073837
 20
4.417130
 30
0.0
 10
43.078546
 20
4.431497
 30
0.0
 10
43.086136
 20
4.444571
 30
0.0
 10
43.096318
 20
4.455785
 30
0.0
 10
43.108624
 20
4.464664
 30
0.0
 10
43.122499
 20
4.470807
 30
0.0
 10
43.137404
 20
4.473945
 30
0.0
 10
43.152577
 20
4.473945
 30
0.0
 10
43.167479
 20
4.470807
 30
0.0
 10
43.181360
 20
4.464664
 30
0.0
 10
43.193664
 20
4.455785
 30
0.0
 10
43.203841
 20
4.444571
 30
0.0
 10
43.211435
 20
4.431497
 30
0.0
 10
43.216148
 20
4.417130
 30
0.0
 10
43.217723
 20
4.402109
 30
0.0
 10
43.216148
 20
4.387088
 30
0.0
 10
43.211435
 20
4.372721
 30
0.0
 10
43.203841
 20
4.359648
 30
0.0
 10
43.193664
 20
4.348434
 30
0.0
 10
43.181360
 20
4.339540
 30
0.0
 10
43.167479
 20
4.333397
 30
0.0
 10
43.152577
 20
4.330259
 30
0.0
  0
LWPOLYLINE
  5
149
100
AcDbEntity
  8
Layer_1
 62
7
100
AcDbPolyline
 90
30
 70
1
 10
36.768032
 20
4.330259
 30
0.0
 10
36.753131
 20
4.333397
 30
0.0
 10
36.739252
 20
4.339540
 30
0.0
 10
36.726947
 20
4.348434
 30
0.0
 10
36.716768
 20
4.359648
 30
0.0
 10
36.709175
 20
4.372721
 30
0.0
 10
36.704465
 20
4.387088
 30
0.0
 10
36.702890
 20
4.402109
 30
0.0
 10
36.704465
 20
4.417130
 30
0.0
 10
36.709175
 20
4.431497
 30
0.0
 10
36.716768
 20
4.444571
 30
0.0
 10
36.726947
 20
4.455785
 30
0.0
 10
36.739252
 20
4.464664
 30
0.0
 10
36.753131
 20
4.470807
 30
0.0
 10
36.768032
 20
4.473945
 30
0.0
 10
36.783209
 20
4.473945
 30
0.0
 10
36.798109
 20
4.470807
 30
0.0
 10
36.811989
 20
4.464664
 30
0.0
 10
36.824293
 20
4.455785
 30
0.0
 10
36.834472
 20
4.444571
 30
0.0
 10
36.842066
 20
4.431497
 30
0.0
 10
36.846776
 20
4.417130
 30
0.0
 10
36.848351
 20
4.402109
 30
0.0
 10
36.846776
 20
4.387088
 30
0.0
 10
36.842066
 20
4.372721
 30
0.0
 10
36.834472
 20
4.359648
 30
0.0
 10
36.824293
 20
4.348434
 30
0.0
 10
36.811989
 20
4.339540
 30
0.0
 10
36.798109
 20
4.333397
 30
0.0
 10
36.783209
 20
4.330259
 30
0.0
  0
LWPOLYLINE
  5
14a
100
AcDbEntity
  8
Layer_1
 62
7
100
AcDbPolyline
 90
30
 70
1
 10
45.103262
 20
4.330259
 30
0.0
 10
45.088365
 20
4.333397
 30
0.0
 10
45.074482
 20
4.339540
 30
0.0
 10
45.062179
 20
4.348434
 30
0.0
 10
45.052002
 20
4.359648
 30
0.0
 10
45.044408
 20
4.372721
 30
0.0
 10
45.039699
 20
4.387088
 30
0.0
 10
45.038124
 20
4.402109
 30
0.0
 10
45.039699
 20
4.417130
 30
0.0
 10
45.044408
 20
4.431497
 30
0.0
 10
45.052002
 20
4.444571
 30
0.0
 10
45.062179
 20
4.455785
 30
0.0
 10
45.074482
 20
4.464664
 30
0.0
 10
45.088365
 20
4.470807
 30
0.0
 10
45.103262
 20
4.473945
 30
0.0
 10
45.118440
 20
4.473945
 30
0.0
 10
45.133341
 20
4.470807
 30
0.0
 10
45.147223
 20
4.464664
 30
0.0
 10
45.159526
 20
4.455785
 30
0.0
 10
45.169703
 20
4.444571
 30
0.0
 10
45.177298
 20
4.431497
 30
0.0
 10
45.182022
 20
4.417130
 30
0.0
 10
45.183597
 20
4.402109
 30
0.0
 10
45.182022
 20
4.387088
 30
0.0
 10
45.177298
 20
4.372721
 30
0.0
 10
45.169703
 20
4.359648
 30
0.0
 10
45.159526
 20
4.348434
 30
0.0
 10
45.147223
 20
4.339540
 30
0.0
 10
45.133341
 20
4.333397
 30
0.0
 10
45.118440
 20
4.330259
 30
0.0
  0
LWPOLYLINE
  5
14b
100
AcDbEntity
  8
Layer_1
 62
7
100
AcDbPolyline
 90
4
 70
1
 10
41.297081
 20
3.269438
 30
0.0
 10
41.297081
 20
4.167772
 30
0.0
 10
45.071534
 20
4.167772
 30
0.0
 10
45.071534
 20
3.269438
 30
0.0
  0
LWPOLYLINE
  5
14c
100
AcDbEntity
  8
Layer_1
 62
7
100
AcDbPolyline
 90
4
 70
1
 10
34.927711
 20
3.269438
 30
0.0
 10
34.927711
 20
4.167772
 30
0.0
 10
38.702165
 20
4.167772
 30
0.0
 10
38.702165
 20
3.269438
 30
0.0
  0
LWPOLYLINE
  5
14d
100
AcDbEntity
  8
Layer_1
 62
7
100
AcDbPolyline
 90
30
 70
1
 10
45.103262
 20
2.963227
 30
0.0
 10
45.088365
 20
2.966365
 30
0.0
 10
45.074482
 20
2.972508
 30
0.0
 10
45.062179
 20
2.981372
 30
0.0
 10
45.052002
 20
2.992586
 30
0.0
 10
45.044408
 20
3.005660
 30
0.0
 10
45.039699
 20
3.020027
 30
0.0
 10
45.038124
 20
3.035048
 30
0.0
 10
45.039699
 20
3.050070
 30
0.0
 10
45.044408
 20
3.064438
 30
0.0
 10
45.052002
 20
3.077511
 30
0.0
 10
45.062179
 20
3.088740
 30
0.0
 10
45.074482
 20
3.097619
 30
0.0
 10
45.088365
 20
3.103762
 30
0.0
 10
45.103262
 20
3.106899
 30
0.0
 10
45.118440
 20
3.106899
 30
0.0
 10
45.133341
 20
3.103762
 30
0.0
 10
45.147223
 20
3.097619
 30
0.0
 10
45.159526
 20
3.088740
 30
0.0
 10
45.169703
 20
3.077511
 30
0.0
 10
45.177298
 20
3.064438
 30
0.0
 10
45.182022
 20
3.050070
 30
0.0
 10
45.183597
 20
3.035048
 30
0.0
 10
45.182022
 20
3.020027
 30
0.0
 10
45.177298
 20
3.005660
 30
0.0
 10
45.169703
 20
2.992586
 30
0.0
 10
45.159526
 20
2.981372
 30
0.0
 10
45.147223
 20
2.972508
 30
0.0
 10
45.133341
 20
2.966365
 30
0.0
 10
45.118440
 20
2.963227
 30
0.0
  0
LWPOLYLINE
  5
14e
100
AcDbEntity
  8
Layer_1
 62
7
100
AcDbPolyline
 90
30
 70
1
 10
41.171542
 20
2.963227
 30
0.0
 10
41.156641
 20
2.966365
 30
0.0
 10
41.142758
 20
2.972508
 30
0.0
 10
41.130459
 20
2.981372
 30
0.0
 10
41.120278
 20
2.992586
 30
0.0
 10
41.112683
 20
3.005660
 30
0.0
 10
41.107971
 20
3.020027
 30
0.0
 10
41.106396
 20
3.035048
 30
0.0
 10
41.107971
 20
3.050070
 30
0.0
 10
41.112683
 20
3.064438
 30
0.0
 10
41.120278
 20
3.077511
 30
0.0
 10
41.130459
 20
3.088740
 30
0.0
 10
41.142758
 20
3.097619
 30
0.0
 10
41.156641
 20
3.103762
 30
0.0
 10
41.171542
 20
3.106899
 30
0.0
 10
41.186715
 20
3.106899
 30
0.0
 10
41.201621
 20
3.103762
 30
0.0
 10
41.215499
 20
3.097619
 30
0.0
 10
41.227802
 20
3.088740
 30
0.0
 10
41.237982
 20
3.077511
 30
0.0
 10
41.245573
 20
3.064438
 30
0.0
 10
41.250285
 20
3.050070
 30
0.0
 10
41.251860
 20
3.035048
 30
0.0
 10
41.250285
 20
3.020027
 30
0.0
 10
41.245573
 20
3.005660
 30
0.0
 10
41.237982
 20
2.992586
 30
0.0
 10
41.227802
 20
2.981372
 30
0.0
 10
41.215499
 20
2.972508
 30
0.0
 10
41.201621
 20
2.966365
 30
0.0
 10
41.186715
 20
2.963227
 30
0.0
  0
LWPOLYLINE
  5
14f
100
AcDbEntity
  8
Layer_1
 62
7
100
AcDbPolyline
 90
30
 70
1
 10
34.802156
 20
2.963227
 30
0.0
 10
34.787281
 20
2.966365
 30
0.0
 10
34.773386
 20
2.972508
 30
0.0
 10
34.761082
 20
2.981372
 30
0.0
 10
34.750903
 20
2.992586
 30
0.0
 10
34.743295
 20
3.005660
 30
0.0
 10
34.738599
 20
3.020027
 30
0.0
 10
34.737008
 20
3.035048
 30
0.0
 10
34.738599
 20
3.050070
 30
0.0
 10
34.743295
 20
3.064438
 30
0.0
 10
34.750903
 20
3.077511
 30
0.0
 10
34.761082
 20
3.088740
 30
0.0
 10
34.773386
 20
3.097619
 30
0.0
 10
34.787281
 20
3.103762
 30
0.0
 10
34.802156
 20
3.106899
 30
0.0
 10
34.817364
 20
3.106899
 30
0.0
 10
34.832237
 20
3.103762
 30
0.0
 10
34.846131
 20
3.097619
 30
0.0
 10
34.858435
 20
3.088740
 30
0.0
 10
34.868615
 20
3.077511
 30
0.0
 10
34.876208
 20
3.064438
 30
0.0
 10
34.880903
 20
3.050070
 30
0.0
 10
34.882494
 20
3.035048
 30
0.0
 10
34.880903
 20
3.020027
 30
0.0
 10
34.876208
 20
3.005660
 30
0.0
 10
34.868615
 20
2.992586
 30
0.0
 10
34.858435
 20
2.981372
 30
0.0
 10
34.846131
 20
2.972508
 30
0.0
 10
34.832237
 20
2.966365
 30
0.0
 10
34.817364
 20
2.963227
 30
0.0
  0
LWPOLYLINE
  5
150
100
AcDbEntity
  8
Layer_1
 62
7
100
AcDbPolyline
 90
30
 70
1
 10
38.733893
 20
2.963227
 30
0.0
 10
38.718993
 20
2.966365
 30
0.0
 10
38.705112
 20
2.972508
 30
0.0
 10
38.692809
 20
2.981372
 30
0.0
 10
38.682630
 20
2.992586
 30
0.0
 10
38.675036
 20
3.005660
 30
0.0
 10
38.670326
 20
3.020027
 30
0.0
 10
38.668751
 20
3.035048
 30
0.0
 10
38.670326
 20
3.050070
 30
0.0
 10
38.675036
 20
3.064438
 30
0.0
 10
38.682630
 20
3.077511
 30
0.0
 10
38.692809
 20
3.088740
 30
0.0
 10
38.705112
 20
3.097619
 30
0.0
 10
38.718993
 20
3.103762
 30
0.0
 10
38.733893
 20
3.106899
 30
0.0
 10
38.749070
 20
3.106899
 30
0.0
 10
38.763971
 20
3.103762
 30
0.0
 10
38.777850
 20
3.097619
 30
0.0
 10
38.790154
 20
3.088740
 30
0.0
 10
38.800333
 20
3.077511
 30
0.0
 10
38.807927
 20
3.064438
 30
0.0
 10
38.812637
 20
3.050070
 30
0.0
 10
38.814212
 20
3.035048
 30
0.0
 10
38.812637
 20
3.020027
 30
0.0
 10
38.807927
 20
3.005660
 30
0.0
 10
38.800333
 20
2.992586
 30
0.0
 10
38.790154
 20
2.981372
 30
0.0
 10
38.777850
 20
2.972508
 30
0.0
 10
38.763971
 20
2.966365
 30
0.0
 10
38.749070
 20
2.963227
 30
0.0
  0
LWPOLYLINE
  5
151
100
AcDbEntity
  8
Layer_1
 62
7
100
AcDbPolyline
 90
30
 70
1
 10
43.137404
 20
2.963227
 30
0.0
 10
43.122499
 20
2.966365
 30
0.0
 10
43.108624
 20
2.972508
 30
0.0
 10
43.096318
 20
2.981372
 30
0.0
 10
43.086136
 20
2.992586
 30
0.0
 10
43.078546
 20
3.005660
 30
0.0
 10
43.073837
 20
3.020027
 30
0.0
 10
43.072262
 20
3.035048
 30
0.0
 10
43.073837
 20
3.050070
 30
0.0
 10
43.078546
 20
3.064438
 30
0.0
 10
43.086136
 20
3.077511
 30
0.0
 10
43.096318
 20
3.088740
 30
0.0
 10
43.108624
 20
3.097619
 30
0.0
 10
43.122499
 20
3.103762
 30
0.0
 10
43.137404
 20
3.106899
 30
0.0
 10
43.152577
 20
3.106899
 30
0.0
 10
43.167479
 20
3.103762
 30
0.0
 10
43.181360
 20
3.097619
 30
0.0
 10
43.193664
 20
3.088740
 30
0.0
 10
43.203841
 20
3.077511
 30
0.0
 10
43.211435
 20
3.064438
 30
0.0
 10
43.216148
 20
3.050070
 30
0.0
 10
43.217723
 20
3.035048
 30
0.0
 10
43.216148
 20
3.020027
 30
0.0
 10
43.211435
 20
3.005660
 30
0.0
 10
43.203841
 20
2.992586
 30
0.0
 10
43.193664
 20
2.981372
 30
0.0
 10
43.181360
 20
2.972508
 30
0.0
 10
43.167479
 20
2.966365
 30
0.0
 10
43.152577
 20
2.963227
 30
0.0
  0
LWPOLYLINE
  5
152
100
AcDbEntity
  8
Layer_1
 62
7
100
AcDbPolyline
 90
30
 70
1
 10
36.768032
 20
2.963227
 30
0.0
 10
36.753131
 20
2.966365
 30
0.0
 10
36.739252
 20
2.972508
 30
0.0
 10
36.726947
 20
2.981372
 30
0.0
 10
36.716768
 20
2.992586
 30
0.0
 10
36.709175
 20
3.005660
 30
0.0
 10
36.704465
 20
3.020027
 30
0.0
 10
36.702890
 20
3.035048
 30
0.0
 10
36.704465
 20
3.050070
 30
0.0
 10
36.709175
 20
3.064438
 30
0.0
 10
36.716768
 20
3.077511
 30
0.0
 10
36.726947
 20
3.088740
 30
0.0
 10
36.739252
 20
3.097619
 30
0.0
 10
36.753131
 20
3.103762
 30
0.0
 10
36.768032
 20
3.106899
 30
0.0
 10
36.783209
 20
3.106899
 30
0.0
 10
36.798109
 20
3.103762
 30
0.0
 10
36.811989
 20
3.097619
 30
0.0
 10
36.824293
 20
3.088740
 30
0.0
 10
36.834472
 20
3.077511
 30
0.0
 10
36.842066
 20
3.064438
 30
0.0
 10
36.846776
 20
3.050070
 30
0.0
 10
36.848351
 20
3.035048
 30
0.0
 10
36.846776
 20
3.020027
 30
0.0
 10
36.842066
 20
3.005660
 30
0.0
 10
36.834472
 20
2.992586
 30
0.0
 10
36.824293
 20
2.981372
 30
0.0
 10
36.811989
 20
2.972508
 30
0.0
 10
36.798109
 20
2.966365
 30
0.0
 10
36.783209
 20
2.963227
 30
0.0
  0
LWPOLYLINE
  5
153
100
AcDbEntity
  8
Layer_1
 62
7
100
AcDbPolyline
 90
12
 70
1
 10
46.138198
 20
9.144340
 30
0.0
 10
32.125456
 20
9.144340
 30
0.0
 10
32.125456
 20
8.341521
 30
0.0
 10
31.319352
 20
8.341521
 30
0.0
 10
31.319352
 20
9.144340
 30
0.0
 10
30.336300
 20
9.144340
 30
0.0
 10
30.179010
 20
8.987692
 30
0.0
 10
30.179010
 20
5.580607
 30
0.0
 10
30.306808
 20
5.453331
 30
0.0
 10
46.167690
 20
5.453331
 30
0.0
 10
46.261752
 20
5.547010
 30
0.0
 10
46.261752
 20
9.021289
 30
0.0
  0
LWPOLYLINE
  5
154
100
AcDbEntity
  8
Layer_1
 62
7
100
AcDbPolyline
 90
30
 70
1
 10
30.679740
 20
5.833284
 30
0.0
 10
30.674909
 20
5.810460
 30
0.0
 10
30.665353
 20
5.789145
 30
0.0
 10
30.651591
 20
5.770268
 30
0.0
 10
30.634171
 20
5.754654
 30
0.0
 10
30.613880
 20
5.742990
 30
0.0
 10
30.591625
 20
5.735782
 30
0.0
 10
30.568306
 20
5.733341
 30
0.0
 10
30.544987
 20
5.735782
 30
0.0
 10
30.522732
 20
5.742990
 30
0.0
 10
30.502442
 20
5.754654
 30
0.0
 10
30.485022
 20
5.770268
 30
0.0
 10
30.471259
 20
5.789145
 30
0.0
 10
30.461703
 20
5.810460
 30
0.0
 10
30.456873
 20
5.833284
 30
0.0
 10
30.456873
 20
5.856616
 30
0.0
 10
30.461703
 20
5.879440
 30
0.0
 10
30.471259
 20
5.900755
 30
0.0
 10
30.485022
 20
5.919632
 30
0.0
 10
30.502442
 20
5.935246
 30
0.0
 10
30.522732
 20
5.946909
 30
0.0
 10
30.544987
 20
5.954117
 30
0.0
 10
30.568306
 20
5.956558
 30
0.0
 10
30.591625
 20
5.954117
 30
0.0
 10
30.613880
 20
5.946909
 30
0.0
 10
30.634171
 20
5.935246
 30
0.0
 10
30.651591
 20
5.919632
 30
0.0
 10
30.665353
 20
5.900755
 30
0.0
 10
30.674909
 20
5.879440
 30
0.0
 10
30.679740
 20
5.856616
 30
0.0
  0
LWPOLYLINE
  5
155
100
AcDbEntity
  8
Layer_1
 62
7
100
AcDbPolyline
 90
30
 70
1
 10
31.643130
 20
6.968979
 30
0.0
 10
31.638301
 20
6.946155
 30
0.0
 10
31.628745
 20
6.924840
 30
0.0
 10
31.614982
 20
6.905964
 30
0.0
 10
31.597562
 20
6.890350
 30
0.0
 10
31.577272
 20
6.878687
 30
0.0
 10
31.555016
 20
6.871478
 30
0.0
 10
31.531698
 20
6.869037
 30
0.0
 10
31.508379
 20
6.871478
 30
0.0
 10
31.486124
 20
6.878687
 30
0.0
 10
31.465832
 20
6.890350
 30
0.0
 10
31.448414
 20
6.905964
 30
0.0
 10
31.434651
 20
6.924840
 30
0.0
 10
31.425095
 20
6.946155
 30
0.0
 10
31.420265
 20
6.968979
 30
0.0
 10
31.420265
 20
6.992312
 30
0.0
 10
31.425095
 20
7.015136
 30
0.0
 10
31.434651
 20
7.036451
 30
0.0
 10
31.448414
 20
7.055327
 30
0.0
 10
31.465832
 20
7.070941
 30
0.0
 10
31.486124
 20
7.082605
 30
0.0
 10
31.508379
 20
7.089814
 30
0.0
 10
31.531698
 20
7.092255
 30
0.0
 10
31.555016
 20
7.089814
 30
0.0
 10
31.577272
 20
7.082605
 30
0.0
 10
31.597562
 20
7.070941
 30
0.0
 10
31.614982
 20
7.055327
 30
0.0
 10
31.628745
 20
7.036451
 30
0.0
 10
31.638301
 20
7.015136
 30
0.0
 10
31.643130
 20
6.992312
 30
0.0
  0
LWPOLYLINE
  5
156
100
AcDbEntity
  8
Layer_1
 62
7
100
AcDbPolyline
 90
30
 70
1
 10
32.822794
 20
8.731263
 30
0.0
 10
32.817964
 20
8.708441
 30
0.0
 10
32.808407
 20
8.687125
 30
0.0
 10
32.794646
 20
8.668247
 30
0.0
 10
32.777226
 20
8.652634
 30
0.0
 10
32.756934
 20
8.640970
 30
0.0
 10
32.734679
 20
8.633761
 30
0.0
 10
32.711360
 20
8.631320
 30
0.0
 10
32.688043
 20
8.633761
 30
0.0
 10
32.665786
 20
8.640970
 30
0.0
 10
32.645496
 20
8.652634
 30
0.0
 10
32.628076
 20
8.668247
 30
0.0
 10
32.614314
 20
8.687125
 30
0.0
 10
32.604758
 20
8.708441
 30
0.0
 10
32.599928
 20
8.731263
 30
0.0
 10
32.599928
 20
8.754597
 30
0.0
 10
32.604758
 20
8.777421
 30
0.0
 10
32.614314
 20
8.798737
 30
0.0
 10
32.628076
 20
8.817612
 30
0.0
 10
32.645496
 20
8.833227
 30
0.0
 10
32.665786
 20
8.844890
 30
0.0
 10
32.688043
 20
8.852099
 30
0.0
 10
32.711360
 20
8.854540
 30
0.0
 10
32.734679
 20
8.852099
 30
0.0
 10
32.756934
 20
8.844890
 30
0.0
 10
32.777226
 20
8.833227
 30
0.0
 10
32.794646
 20
8.817612
 30
0.0
 10
32.808407
 20
8.798737
 30
0.0
 10
32.817964
 20
8.777421
 30
0.0
 10
32.822794
 20
8.754597
 30
0.0
  0
LWPOLYLINE
  5
157
100
AcDbEntity
  8
Layer_1
 62
7
100
AcDbPolyline
 90
4
 70
1
 10
35.739157
 20
6.639936
 30
0.0
 10
33.615764
 20
6.639936
 30
0.0
 10
33.615764
 20
7.313522
 30
0.0
 10
35.739157
 20
7.313522
 30
0.0
  0
LWPOLYLINE
  5
158
100
AcDbEntity
  8
Layer_1
 62
7
100
AcDbPolyline
 90
30
 70
1
 10
39.153654
 20
5.833284
 30
0.0
 10
39.148824
 20
5.810460
 30
0.0
 10
39.139268
 20
5.789145
 30
0.0
 10
39.125505
 20
5.770268
 30
0.0
 10
39.108085
 20
5.754654
 30
0.0
 10
39.087795
 20
5.742990
 30
0.0
 10
39.065540
 20
5.735782
 30
0.0
 10
39.042221
 20
5.733341
 30
0.0
 10
39.018902
 20
5.735782
 30
0.0
 10
38.996647
 20
5.742990
 30
0.0
 10
38.976355
 20
5.754654
 30
0.0
 10
38.958936
 20
5.770268
 30
0.0
 10
38.945174
 20
5.789145
 30
0.0
 10
38.935618
 20
5.810460
 30
0.0
 10
38.930788
 20
5.833284
 30
0.0
 10
38.930788
 20
5.856616
 30
0.0
 10
38.935618
 20
5.879440
 30
0.0
 10
38.945174
 20
5.900755
 30
0.0
 10
38.958936
 20
5.919632
 30
0.0
 10
38.976355
 20
5.935246
 30
0.0
 10
38.996647
 20
5.946909
 30
0.0
 10
39.018902
 20
5.954117
 30
0.0
 10
39.042221
 20
5.956558
 30
0.0
 10
39.065540
 20
5.954117
 30
0.0
 10
39.087795
 20
5.946909
 30
0.0
 10
39.108085
 20
5.935246
 30
0.0
 10
39.125505
 20
5.919632
 30
0.0
 10
39.139268
 20
5.900755
 30
0.0
 10
39.148824
 20
5.879440
 30
0.0
 10
39.153654
 20
5.856616
 30
0.0
  0
LWPOLYLINE
  5
159
100
AcDbEntity
  8
Layer_1
 62
7
100
AcDbPolyline
 90
30
 70
1
 10
39.310942
 20
8.731263
 30
0.0
 10
39.306111
 20
8.708441
 30
0.0
 10
39.296555
 20
8.687125
 30
0.0
 10
39.282793
 20
8.668247
 30
0.0
 10
39.265373
 20
8.652634
 30
0.0
 10
39.245082
 20
8.640970
 30
0.0
 10
39.222827
 20
8.633761
 30
0.0
 10
39.199508
 20
8.631320
 30
0.0
 10
39.176191
 20
8.633761
 30
0.0
 10
39.153934
 20
8.640970
 30
0.0
 10
39.133644
 20
8.652634
 30
0.0
 10
39.116224
 20
8.668247
 30
0.0
 10
39.102461
 20
8.687125
 30
0.0
 10
39.092906
 20
8.708441
 30
0.0
 10
39.088076
 20
8.731263
 30
0.0
 10
39.088076
 20
8.754597
 30
0.0
 10
39.092906
 20
8.777421
 30
0.0
 10
39.102461
 20
8.798737
 30
0.0
 10
39.116224
 20
8.817612
 30
0.0
 10
39.133644
 20
8.833227
 30
0.0
 10
39.153934
 20
8.844890
 30
0.0
 10
39.176191
 20
8.852099
 30
0.0
 10
39.199508
 20
8.854540
 30
0.0
 10
39.222827
 20
8.852099
 30
0.0
 10
39.245082
 20
8.844890
 30
0.0
 10
39.265373
 20
8.833227
 30
0.0
 10
39.282793
 20
8.817612
 30
0.0
 10
39.296555
 20
8.798737
 30
0.0
 10
39.306111
 20
8.777421
 30
0.0
 10
39.310942
 20
8.754597
 30
0.0
  0
LWPOLYLINE
  5
15a
100
AcDbEntity
  8
Layer_1
 62
7
100
AcDbPolyline
 90
4
 70
1
 10
44.311376
 20
6.639936
 30
0.0
 10
42.187982
 20
6.639936
 30
0.0
 10
42.187982
 20
7.313522
 30
0.0
 10
44.311376
 20
7.313522
 30
0.0
  0
LWPOLYLINE
  5
15b
100
AcDbEntity
  8
Layer_1
 62
7
100
AcDbPolyline
 90
30
 70
1
 10
45.405883
 20
8.731263
 30
0.0
 10
45.401008
 20
8.708441
 30
0.0
 10
45.391482
 20
8.687125
 30
0.0
 10
45.377705
 20
8.668247
 30
0.0
 10
45.360295
 20
8.652634
 30
0.0
 10
45.340003
 20
8.640970
 30
0.0
 10
45.317724
 20
8.633761
 30
0.0
 10
45.294423
 20
8.631320
 30
0.0
 10
45.271123
 20
8.633761
 30
0.0
 10
45.248839
 20
8.640970
 30
0.0
 10
45.228550
 20
8.652634
 30
0.0
 10
45.211138
 20
8.668247
 30
0.0
 10
45.197360
 20
8.687125
 30
0.0
 10
45.187834
 20
8.708441
 30
0.0
 10
45.182959
 20
8.731263
 30
0.0
 10
45.182959
 20
8.754597
 30
0.0
 10
45.187834
 20
8.777421
 30
0.0
 10
45.197360
 20
8.798737
 30
0.0
 10
45.211138
 20
8.817612
 30
0.0
 10
45.228550
 20
8.833227
 30
0.0
 10
45.248839
 20
8.844890
 30
0.0
 10
45.271123
 20
8.852099
 30
0.0
 10
45.294423
 20
8.854540
 30
0.0
 10
45.317724
 20
8.852099
 30
0.0
 10
45.340003
 20
8.844890
 30
0.0
 10
45.360295
 20
8.833227
 30
0.0
 10
45.377705
 20
8.817612
 30
0.0
 10
45.391482
 20
8.798737
 30
0.0
 10
45.401008
 20
8.777421
 30
0.0
 10
45.405883
 20
8.754597
 30
0.0
  0
LWPOLYLINE
  5
15c
100
AcDbEntity
  8
Layer_1
 62
7
100
AcDbPolyline
 90
30
 70
1
 10
45.405883
 20
6.968979
 30
0.0
 10
45.401008
 20
6.946155
 30
0.0
 10
45.391482
 20
6.924840
 30
0.0
 10
45.377705
 20
6.905964
 30
0.0
 10
45.360295
 20
6.890350
 30
0.0
 10
45.340003
 20
6.878687
 30
0.0
 10
45.317724
 20
6.871478
 30
0.0
 10
45.294423
 20
6.869037
 30
0.0
 10
45.271123
 20
6.871478
 30
0.0
 10
45.248839
 20
6.878687
 30
0.0
 10
45.228550
 20
6.890350
 30
0.0
 10
45.211138
 20
6.905964
 30
0.0
 10
45.197360
 20
6.924840
 30
0.0
 10
45.187834
 20
6.946155
 30
0.0
 10
45.182959
 20
6.968979
 30
0.0
 10
45.182959
 20
6.992312
 30
0.0
 10
45.187834
 20
7.015136
 30
0.0
 10
45.197360
 20
7.036451
 30
0.0
 10
45.211138
 20
7.055327
 30
0.0
 10
45.228550
 20
7.070941
 30
0.0
 10
45.248839
 20
7.082605
 30
0.0
 10
45.271123
 20
7.089814
 30
0.0
 10
45.294423
 20
7.092255
 30
0.0
 10
45.317724
 20
7.089814
 30
0.0
 10
45.340003
 20
7.082605
 30
0.0
 10
45.360295
 20
7.070941
 30
0.0
 10
45.377705
 20
7.055327
 30
0.0
 10
45.391482
 20
7.036451
 30
0.0
 10
45.401008
 20
7.015136
 30
0.0
 10
45.405883
 20
6.992312
 30
0.0
  0
LWPOLYLINE
  5
15d
100
AcDbEntity
  8
Layer_1
 62
7
100
AcDbPolyline
 90
12
 70
1
 10
30.281250
 20
9.368754
 30
0.0
 10
46.142133
 20
9.368754
 30
0.0
 10
46.269929
 20
9.496030
 30
0.0
 10
46.269929
 20
12.903116
 30
0.0
 10
46.112641
 20
13.059764
 30
0.0
 10
45.129589
 20
13.059764
 30
0.0
 10
45.129589
 20
12.256944
 30
0.0
 10
44.323485
 20
12.256944
 30
0.0
 10
44.323485
 20
13.059764
 30
0.0
 10
30.310741
 20
13.059764
 30
0.0
 10
30.187187
 20
12.936717
 30
0.0
 10
30.187187
 20
9.462429
 30
0.0
  0
LWPOLYLINE
  5
15e
100
AcDbEntity
  8
Layer_1
 62
7
100
AcDbPolyline
 90
30
 70
1
 10
45.769202
 20
9.772043
 30
0.0
 10
45.774032
 20
9.794875
 30
0.0
 10
45.783589
 20
9.816178
 30
0.0
 10
45.797350
 20
9.835055
 30
0.0
 10
45.814770
 20
9.850680
 30
0.0
 10
45.835060
 20
9.862345
 30
0.0
 10
45.857317
 20
9.869553
 30
0.0
 10
45.880635
 20
9.871982
 30
0.0
 10
45.903953
 20
9.869553
 30
0.0
 10
45.926209
 20
9.862345
 30
0.0
 10
45.946498
 20
9.850680
 30
0.0
 10
45.963918
 20
9.835055
 30
0.0
 10
45.977680
 20
9.816178
 30
0.0
 10
45.987236
 20
9.794875
 30
0.0
 10
45.992067
 20
9.772043
 30
0.0
 10
45.992067
 20
9.748702
 30
0.0
 10
45.987236
 20
9.725871
 30
0.0
 10
45.977680
 20
9.704568
 30
0.0
 10
45.963918
 20
9.685692
 30
0.0
 10
45.946498
 20
9.670066
 30
0.0
 10
45.926209
 20
9.658387
 30
0.0
 10
45.903953
 20
9.651178
 30
0.0
 10
45.880635
 20
9.648749
 30
0.0
 10
45.857317
 20
9.651178
 30
0.0
 10
45.835060
 20
9.658387
 30
0.0
 10
45.814770
 20
9.670066
 30
0.0
 10
45.797350
 20
9.685692
 30
0.0
 10
45.783589
 20
9.704568
 30
0.0
 10
45.774032
 20
9.725871
 30
0.0
 10
45.769202
 20
9.748702
 30
0.0
  0
LWPOLYLINE
  5
15f
100
AcDbEntity
  8
Layer_1
 62
7
100
AcDbPolyline
 90
30
 70
1
 10
44.805810
 20
10.907739
 30
0.0
 10
44.810641
 20
10.930570
 30
0.0
 10
44.820197
 20
10.951873
 30
0.0
 10
44.833959
 20
10.970749
 30
0.0
 10
44.851379
 20
10.986375
 30
0.0
 10
44.871668
 20
10.998039
 30
0.0
 10
44.893925
 20
11.005247
 30
0.0
 10
44.917244
 20
11.007677
 30
0.0
 10
44.940560
 20
11.005247
 30
0.0
 10
44.962818
 20
10.998039
 30
0.0
 10
44.983107
 20
10.986375
 30
0.0
 10
45.000527
 20
10.970749
 30
0.0
 10
45.014289
 20
10.951873
 30
0.0
 10
45.023845
 20
10.930570
 30
0.0
 10
45.028675
 20
10.907739
 30
0.0
 10
45.028675
 20
10.884397
 30
0.0
 10
45.023845
 20
10.861566
 30
0.0
 10
45.014289
 20
10.840262
 30
0.0
 10
45.000527
 20
10.821386
 30
0.0
 10
44.983107
 20
10.805760
 30
0.0
 10
44.962818
 20
10.794081
 30
0.0
 10
44.940560
 20
10.786873
 30
0.0
 10
44.917244
 20
10.784444
 30
0.0
 10
44.893925
 20
10.786873
 30
0.0
 10
44.871668
 20
10.794081
 30
0.0
 10
44.851379
 20
10.805760
 30
0.0
 10
44.833959
 20
10.821386
 30
0.0
 10
44.820197
 20
10.840262
 30
0.0
 10
44.810641
 20
10.861566
 30
0.0
 10
44.805810
 20
10.884397
 30
0.0
  0
LWPOLYLINE
  5
160
100
AcDbEntity
  8
Layer_1
 62
7
100
AcDbPolyline
 90
30
 70
1
 10
43.626147
 20
12.670025
 30
0.0
 10
43.630977
 20
12.692856
 30
0.0
 10
43.640533
 20
12.714159
 30
0.0
 10
43.654296
 20
12.733036
 30
0.0
 10
43.671716
 20
12.748661
 30
0.0
 10
43.692004
 20
12.760325
 30
0.0
 10
43.714263
 20
12.767533
 30
0.0
 10
43.737580
 20
12.769962
 30
0.0
 10
43.760897
 20
12.767533
 30
0.0
 10
43.783154
 20
12.760325
 30
0.0
 10
43.803444
 20
12.748661
 30
0.0
 10
43.820864
 20
12.733036
 30
0.0
 10
43.834625
 20
12.714159
 30
0.0
 10
43.844182
 20
12.692856
 30
0.0
 10
43.849011
 20
12.670025
 30
0.0
 10
43.849011
 20
12.646683
 30
0.0
 10
43.844182
 20
12.623852
 30
0.0
 10
43.834625
 20
12.602548
 30
0.0
 10
43.820864
 20
12.583672
 30
0.0
 10
43.803444
 20
12.568046
 30
0.0
 10
43.783154
 20
12.556368
 30
0.0
 10
43.760897
 20
12.549160
 30
0.0
 10
43.737580
 20
12.546731
 30
0.0
 10
43.714263
 20
12.549160
 30
0.0
 10
43.692004
 20
12.556368
 30
0.0
 10
43.671716
 20
12.568046
 30
0.0
 10
43.654296
 20
12.583672
 30
0.0
 10
43.640533
 20
12.602548
 30
0.0
 10
43.630977
 20
12.623852
 30
0.0
 10
43.626147
 20
12.646683
 30
0.0
  0
LWPOLYLINE
  5
161
100
AcDbEntity
  8
Layer_1
 62
7
100
AcDbPolyline
 90
4
 70
1
 10
40.709783
 20
11.228944
 30
0.0
 10
42.833177
 20
11.228944
 30
0.0
 10
42.833177
 20
10.555359
 30
0.0
 10
40.709783
 20
10.555359
 30
0.0
  0
LWPOLYLINE
  5
162
100
AcDbEntity
  8
Layer_1
 62
7
100
AcDbPolyline
 90
30
 70
1
 10
37.295286
 20
9.772043
 30
0.0
 10
37.300117
 20
9.794875
 30
0.0
 10
37.309673
 20
9.816178
 30
0.0
 10
37.323435
 20
9.835055
 30
0.0
 10
37.340854
 20
9.850680
 30
0.0
 10
37.361146
 20
9.862345
 30
0.0
 10
37.383401
 20
9.869553
 30
0.0
 10
37.406720
 20
9.871982
 30
0.0
 10
37.430039
 20
9.869553
 30
0.0
 10
37.452294
 20
9.862345
 30
0.0
 10
37.472584
 20
9.850680
 30
0.0
 10
37.490004
 20
9.835055
 30
0.0
 10
37.503767
 20
9.816178
 30
0.0
 10
37.513323
 20
9.794875
 30
0.0
 10
37.518153
 20
9.772043
 30
0.0
 10
37.518153
 20
9.748702
 30
0.0
 10
37.513323
 20
9.725871
 30
0.0
 10
37.503767
 20
9.704568
 30
0.0
 10
37.490004
 20
9.685692
 30
0.0
 10
37.472584
 20
9.670066
 30
0.0
 10
37.452294
 20
9.658387
 30
0.0
 10
37.430039
 20
9.651178
 30
0.0
 10
37.406720
 20
9.648749
 30
0.0
 10
37.383401
 20
9.651178
 30
0.0
 10
37.361146
 20
9.658387
 30
0.0
 10
37.340854
 20
9.670066
 30
0.0
 10
37.323435
 20
9.685692
 30
0.0
 10
37.309673
 20
9.704568
 30
0.0
 10
37.300117
 20
9.725871
 30
0.0
 10
37.295286
 20
9.748702
 30
0.0
  0
LWPOLYLINE
  5
163
100
AcDbEntity
  8
Layer_1
 62
7
100
AcDbPolyline
 90
30
 70
1
 10
37.137999
 20
12.670025
 30
0.0
 10
37.142829
 20
12.692856
 30
0.0
 10
37.152385
 20
12.714159
 30
0.0
 10
37.166147
 20
12.733036
 30
0.0
 10
37.183567
 20
12.748661
 30
0.0
 10
37.203856
 20
12.760325
 30
0.0
 10
37.226114
 20
12.767533
 30
0.0
 10
37.249431
 20
12.769962
 30
0.0
 10
37.272749
 20
12.767533
 30
0.0
 10
37.295006
 20
12.760325
 30
0.0
 10
37.315296
 20
12.748661
 30
0.0
 10
37.332715
 20
12.733036
 30
0.0
 10
37.346477
 20
12.714159
 30
0.0
 10
37.356033
 20
12.692856
 30
0.0
 10
37.360864
 20
12.670025
 30
0.0
 10
37.360864
 20
12.646683
 30
0.0
 10
37.356033
 20
12.623852
 30
0.0
 10
37.346477
 20
12.602548
 30
0.0
 10
37.332715
 20
12.583672
 30
0.0
 10
37.315296
 20
12.568046
 30
0.0
 10
37.295006
 20
12.556368
 30
0.0
 10
37.272749
 20
12.549160
 30
0.0
 10
37.249431
 20
12.546731
 30
0.0
 10
37.226114
 20
12.549160
 30
0.0
 10
37.203856
 20
12.556368
 30
0.0
 10
37.183567
 20
12.568046
 30
0.0
 10
37.166147
 20
12.583672
 30
0.0
 10
37.152385
 20
12.602548
 30
0.0
 10
37.142829
 20
12.623852
 30
0.0
 10
37.137999
 20
12.646683
 30
0.0
  0
LWPOLYLINE
  5
164
100
AcDbEntity
  8
Layer_1
 62
7
100
AcDbPolyline
 90
4
 70
1
 10
32.137563
 20
11.228944
 30
0.0
 10
34.260956
 20
11.228944
 30
0.0
 10
34.260956
 20
10.555359
 30
0.0
 10
32.137563
 20
10.555359
 30
0.0
  0
LWPOLYLINE
  5
165
100
AcDbEntity
  8
Layer_1
 62
7
100
AcDbPolyline
 90
30
 70
1
 10
31.043056
 20
10.907739
 30
0.0
 10
31.047931
 20
10.930570
 30
0.0
 10
31.057457
 20
10.951873
 30
0.0
 10
31.071234
 20
10.970749
 30
0.0
 10
31.088646
 20
10.986375
 30
0.0
 10
31.108936
 20
10.998039
 30
0.0
 10
31.131216
 20
11.005247
 30
0.0
 10
31.154518
 20
11.007677
 30
0.0
 10
31.177817
 20
11.005247
 30
0.0
 10
31.200101
 20
10.998039
 30
0.0
 10
31.220390
 20
10.986375
 30
0.0
 10
31.237802
 20
10.970749
 30
0.0
 10
31.251579
 20
10.951873
 30
0.0
 10
31.261105
 20
10.930570
 30
0.0
 10
31.265980
 20
10.907739
 30
0.0
 10
31.265980
 20
10.884397
 30
0.0
 10
31.261105
 20
10.861566
 30
0.0
 10
31.251579
 20
10.840262
 30
0.0
 10
31.237802
 20
10.821386
 30
0.0
 10
31.220390
 20
10.805760
 30
0.0
 10
31.200101
 20
10.794081
 30
0.0
 10
31.177817
 20
10.786873
 30
0.0
 10
31.154518
 20
10.784444
 30
0.0
 10
31.131216
 20
10.786873
 30
0.0
 10
31.108936
 20
10.794081
 30
0.0
 10
31.088646
 20
10.805760
 30
0.0
 10
31.071234
 20
10.821386
 30
0.0
 10
31.057457
 20
10.840262
 30
0.0
 10
31.047931
 20
10.861566
 30
0.0
 10
31.043056
 20
10.884397
 30
0.0
  0
LWPOLYLINE
  5
166
100
AcDbEntity
  8
Layer_1
 62
7
100
AcDbPolyline
 90
30
 70
1
 10
31.043056
 20
12.670025
 30
0.0
 10
31.047931
 20
12.692856
 30
0.0
 10
31.057457
 20
12.714159
 30
0.0
 10
31.071234
 20
12.733036
 30
0.0
 10
31.088646
 20
12.748661
 30
0.0
 10
31.108936
 20
12.760325
 30
0.0
 10
31.131216
 20
12.767533
 30
0.0
 10
31.154518
 20
12.769962
 30
0.0
 10
31.177817
 20
12.767533
 30
0.0
 10
31.200101
 20
12.760325
 30
0.0
 10
31.220390
 20
12.748661
 30
0.0
 10
31.237802
 20
12.733036
 30
0.0
 10
31.251579
 20
12.714159
 30
0.0
 10
31.261105
 20
12.692856
 30
0.0
 10
31.265980
 20
12.670025
 30
0.0
 10
31.265980
 20
12.646683
 30
0.0
 10
31.261105
 20
12.623852
 30
0.0
 10
31.251579
 20
12.602548
 30
0.0
 10
31.237802
 20
12.583672
 30
0.0
 10
31.220390
 20
12.568046
 30
0.0
 10
31.200101
 20
12.556368
 30
0.0
 10
31.177817
 20
12.549160
 30
0.0
 10
31.154518
 20
12.546731
 30
0.0
 10
31.131216
 20
12.549160
 30
0.0
 10
31.108936
 20
12.556368
 30
0.0
 10
31.088646
 20
12.568046
 30
0.0
 10
31.071234
 20
12.583672
 30
0.0
 10
31.057457
 20
12.602548
 30
0.0
 10
31.047931
 20
12.623852
 30
0.0
 10
31.043056
 20
12.646683
 30
0.0
  0
LWPOLYLINE
  5
167
100
AcDbEntity
  8
Layer_1
 62
7
100
AcDbPolyline
 90
45
 70
1
 10
28.529537
 20
5.074553
 30
0.0
 10
28.619767
 20
5.114726
 30
0.0
 10
28.699670
 20
5.172780
 30
0.0
 10
28.765758
 20
5.246178
 30
0.0
 10
28.815141
 20
5.331713
 30
0.0
 10
28.842325
 20
5.415378
 30
0.0
 10
29.487782
 20
6.682155
 30
0.0
 10
29.489459
 20
6.682510
 30
0.0
 10
29.564648
 20
6.715987
 30
0.0
 10
29.631234
 20
6.764365
 30
0.0
 10
29.686309
 20
6.825530
 30
0.0
 10
29.727464
 20
6.896809
 30
0.0
 10
29.752896
 20
6.975089
 30
0.0
 10
29.761499
 20
7.056943
 30
0.0
 10
29.752896
 20
7.138798
 30
0.0
 10
29.727464
 20
7.217077
 30
0.0
 10
29.686309
 20
7.288353
 30
0.0
 10
29.631234
 20
7.349518
 30
0.0
 10
29.564648
 20
7.397900
 30
0.0
 10
29.489459
 20
7.431377
 30
0.0
 10
29.408951
 20
7.448487
 30
0.0
 10
29.328428
 20
7.448487
 30
0.0
 10
29.328428
 20
7.453007
 30
0.0
 10
29.249688
 20
7.453007
 30
0.0
 10
29.249688
 20
8.338833
 30
0.0
 10
27.123703
 20
8.338833
 30
0.0
 10
27.123703
 20
7.336022
 30
0.0
 10
27.080782
 20
7.288353
 30
0.0
 10
27.039628
 20
7.217077
 30
0.0
 10
27.014196
 20
7.138797
 30
0.0
 10
27.005593
 20
7.056943
 30
0.0
 10
27.014196
 20
6.975089
 30
0.0
 10
27.039628
 20
6.896809
 30
0.0
 10
27.080782
 20
6.825530
 30
0.0
 10
27.135857
 20
6.764365
 30
0.0
 10
27.202444
 20
6.715987
 30
0.0
 10
27.249018
 20
6.695250
 30
0.0
 10
27.963767
 20
5.292482
 30
0.0
 10
27.972136
 20
5.296747
 30
0.0
 10
28.001333
 20
5.246177
 30
0.0
 10
28.067422
 20
5.172779
 30
0.0
 10
28.147325
 20
5.114725
 30
0.0
 10
28.237554
 20
5.074553
 30
0.0
 10
28.334163
 20
5.054021
 30
0.0
 10
28.432929
 20
5.054021
 30
0.0
  0
LWPOLYLINE
  5
168
100
AcDbEntity
  8
Layer_1
 62
7
100
AcDbPolyline
 90
30
 70
1
 10
27.602455
 20
7.916306
 30
0.0
 10
27.576290
 20
7.921869
 30
0.0
 10
27.551853
 20
7.932747
 30
0.0
 10
27.530211
 20
7.948471
 30
0.0
 10
27.512314
 20
7.968349
 30
0.0
 10
27.498940
 20
7.991514
 30
0.0
 10
27.490672
 20
8.016955
 30
0.0
 10
27.487876
 20
8.043558
 30
0.0
 10
27.490672
 20
8.070160
 30
0.0
 10
27.498940
 20
8.095601
 30
0.0
 10
27.512314
 20
8.118767
 30
0.0
 10
27.530211
 20
8.138644
 30
0.0
 10
27.551853
 20
8.154369
 30
0.0
 10
27.576290
 20
8.165246
 30
0.0
 10
27.602455
 20
8.170810
 30
0.0
 10
27.629203
 20
8.170810
 30
0.0
 10
27.655369
 20
8.165246
 30
0.0
 10
27.679805
 20
8.154369
 30
0.0
 10
27.701448
 20
8.138644
 30
0.0
 10
27.719344
 20
8.118767
 30
0.0
 10
27.732719
 20
8.095601
 30
0.0
 10
27.740986
 20
8.070160
 30
0.0
 10
27.743781
 20
8.043558
 30
0.0
 10
27.740986
 20
8.016955
 30
0.0
 10
27.732719
 20
7.991514
 30
0.0
 10
27.719344
 20
7.968349
 30
0.0
 10
27.701448
 20
7.948471
 30
0.0
 10
27.679805
 20
7.932747
 30
0.0
 10
27.655369
 20
7.921869
 30
0.0
 10
27.629203
 20
7.916306
 30
0.0
  0
LWPOLYLINE
  5
169
100
AcDbEntity
  8
Layer_1
 62
7
100
AcDbPolyline
 90
30
 70
1
 10
28.783557
 20
7.916306
 30
0.0
 10
28.757391
 20
7.921869
 30
0.0
 10
28.732954
 20
7.932747
 30
0.0
 10
28.711315
 20
7.948471
 30
0.0
 10
28.693416
 20
7.968349
 30
0.0
 10
28.680041
 20
7.991514
 30
0.0
 10
28.671775
 20
8.016955
 30
0.0
 10
28.668979
 20
8.043558
 30
0.0
 10
28.671775
 20
8.070160
 30
0.0
 10
28.680041
 20
8.095601
 30
0.0
 10
28.693416
 20
8.118767
 30
0.0
 10
28.711315
 20
8.138644
 30
0.0
 10
28.732955
 20
8.154369
 30
0.0
 10
28.757391
 20
8.165246
 30
0.0
 10
28.783557
 20
8.170810
 30
0.0
 10
28.810305
 20
8.170810
 30
0.0
 10
28.836471
 20
8.165246
 30
0.0
 10
28.860908
 20
8.154369
 30
0.0
 10
28.882550
 20
8.138644
 30
0.0
 10
28.900448
 20
8.118767
 30
0.0
 10
28.913822
 20
8.095601
 30
0.0
 10
28.922090
 20
8.070160
 30
0.0
 10
28.924884
 20
8.043558
 30
0.0
 10
28.922090
 20
8.016955
 30
0.0
 10
28.913822
 20
7.991514
 30
0.0
 10
28.900448
 20
7.968349
 30
0.0
 10
28.882550
 20
7.948471
 30
0.0
 10
28.860908
 20
7.932747
 30
0.0
 10
28.836471
 20
7.921869
 30
0.0
 10
28.810305
 20
7.916306
 30
0.0
  0
LWPOLYLINE
  5
16a
100
AcDbEntity
  8
Layer_1
 62
7
100
AcDbPolyline
 90
30
 70
1
 10
27.346136
 20
6.925778
 30
0.0
 10
27.319168
 20
6.931510
 30
0.0
 10
27.293979
 20
6.942723
 30
0.0
 10
27.271672
 20
6.958932
 30
0.0
 10
27.253223
 20
6.979420
 30
0.0
 10
27.239435
 20
7.003298
 30
0.0
 10
27.230916
 20
7.029522
 30
0.0
 10
27.228033
 20
7.056943
 30
0.0
 10
27.230916
 20
7.084365
 30
0.0
 10
27.239435
 20
7.110589
 30
0.0
 10
27.253223
 20
7.134467
 30
0.0
 10
27.271672
 20
7.154955
 30
0.0
 10
27.293979
 20
7.171164
 30
0.0
 10
27.319168
 20
7.182376
 30
0.0
 10
27.346136
 20
7.188109
 30
0.0
 10
27.373711
 20
7.188109
 30
0.0
 10
27.400679
 20
7.182376
 30
0.0
 10
27.425869
 20
7.171164
 30
0.0
 10
27.448176
 20
7.154955
 30
0.0
 10
27.466625
 20
7.134467
 30
0.0
 10
27.480411
 20
7.110589
 30
0.0
 10
27.488931
 20
7.084365
 30
0.0
 10
27.491813
 20
7.056943
 30
0.0
 10
27.488931
 20
7.029522
 30
0.0
 10
27.480411
 20
7.003298
 30
0.0
 10
27.466625
 20
6.979420
 30
0.0
 10
27.448176
 20
6.958932
 30
0.0
 10
27.425869
 20
6.942723
 30
0.0
 10
27.400679
 20
6.931510
 30
0.0
 10
27.373711
 20
6.925778
 30
0.0
  0
LWPOLYLINE
  5
16b
100
AcDbEntity
  8
Layer_1
 62
7
100
AcDbPolyline
 90
30
 70
1
 10
29.393379
 20
6.925778
 30
0.0
 10
29.366411
 20
6.931510
 30
0.0
 10
29.341223
 20
6.942723
 30
0.0
 10
29.318916
 20
6.958932
 30
0.0
 10
29.300467
 20
6.979420
 30
0.0
 10
29.286679
 20
7.003298
 30
0.0
 10
29.278160
 20
7.029522
 30
0.0
 10
29.275278
 20
7.056943
 30
0.0
 10
29.278160
 20
7.084365
 30
0.0
 10
29.286679
 20
7.110589
 30
0.0
 10
29.300467
 20
7.134467
 30
0.0
 10
29.318916
 20
7.154955
 30
0.0
 10
29.341223
 20
7.171164
 30
0.0
 10
29.366411
 20
7.182376
 30
0.0
 10
29.393379
 20
7.188109
 30
0.0
 10
29.420955
 20
7.188109
 30
0.0
 10
29.447923
 20
7.182376
 30
0.0
 10
29.473111
 20
7.171164
 30
0.0
 10
29.495420
 20
7.154955
 30
0.0
 10
29.513869
 20
7.134467
 30
0.0
 10
29.527656
 20
7.110589
 30
0.0
 10
29.536176
 20
7.084365
 30
0.0
 10
29.539057
 20
7.056943
 30
0.0
 10
29.536176
 20
7.029522
 30
0.0
 10
29.527656
 20
7.003298
 30
0.0
 10
29.513869
 20
6.979420
 30
0.0
 10
29.495420
 20
6.958932
 30
0.0
 10
29.473111
 20
6.942723
 30
0.0
 10
29.447923
 20
6.931510
 30
0.0
 10
29.420955
 20
6.925778
 30
0.0
  0
LWPOLYLINE
  5
16c
100
AcDbEntity
  8
Layer_1
 62
7
100
AcDbPolyline
 90
34
 70
1
 10
28.369760
 20
5.270067
 30
0.0
 10
28.342790
 20
5.275800
 30
0.0
 10
28.317601
 20
5.287014
 30
0.0
 10
28.295294
 20
5.303221
 30
0.0
 10
28.276844
 20
5.323711
 30
0.0
 10
28.263058
 20
5.347590
 30
0.0
 10
28.254539
 20
5.373813
 30
0.0
 10
28.251656
 20
5.401234
 30
0.0
 10
28.254539
 20
5.428656
 30
0.0
 10
28.259205
 20
5.443015
 30
0.0
 10
28.264137
 20
5.445531
 30
0.0
 10
28.266653
 20
5.453279
 30
0.0
 10
28.280028
 20
5.476444
 30
0.0
 10
28.297927
 20
5.496323
 30
0.0
 10
28.319568
 20
5.512046
 30
0.0
 10
28.344004
 20
5.522926
 30
0.0
 10
28.370170
 20
5.528486
 30
0.0
 10
28.396918
 20
5.528486
 30
0.0
 10
28.423083
 20
5.522926
 30
0.0
 10
28.447520
 20
5.512046
 30
0.0
 10
28.469160
 20
5.496323
 30
0.0
 10
28.487059
 20
5.476444
 30
0.0
 10
28.500434
 20
5.453279
 30
0.0
 10
28.508700
 20
5.427838
 30
0.0
 10
28.509096
 20
5.424291
 30
0.0
 10
28.513255
 20
5.422173
 30
0.0
 10
28.515456
 20
5.401234
 30
0.0
 10
28.512574
 20
5.373813
 30
0.0
 10
28.504053
 20
5.347591
 30
0.0
 10
28.490268
 20
5.323711
 30
0.0
 10
28.471818
 20
5.303222
 30
0.0
 10
28.449511
 20
5.287015
 30
0.0
 10
28.424323
 20
5.275800
 30
0.0
 10
28.397352
 20
5.270068
 30
0.0
  0
LWPOLYLINE
  5
16d
100
AcDbEntity
  8
Layer_1
 62
7
100
AcDbPolyline
 90
47
 70
1
 10
25.722802
 20
5.750429
 30
0.0
 10
25.813030
 20
5.790602
 30
0.0
 10
25.892934
 20
5.848656
 30
0.0
 10
25.959022
 20
5.922054
 30
0.0
 10
26.008404
 20
6.007589
 30
0.0
 10
26.035590
 20
6.091254
 30
0.0
 10
26.681046
 20
7.358032
 30
0.0
 10
26.682723
 20
7.358386
 30
0.0
 10
26.757912
 20
7.391863
 30
0.0
 10
26.824499
 20
7.440241
 30
0.0
 10
26.879574
 20
7.501406
 30
0.0
 10
26.920727
 20
7.572686
 30
0.0
 10
26.946160
 20
7.650966
 30
0.0
 10
26.954763
 20
7.732820
 30
0.0
 10
26.946160
 20
7.814674
 30
0.0
 10
26.920727
 20
7.892954
 30
0.0
 10
26.879574
 20
7.964229
 30
0.0
 10
26.824499
 20
8.025395
 30
0.0
 10
26.757912
 20
8.073776
 30
0.0
 10
26.682723
 20
8.107253
 30
0.0
 10
26.602216
 20
8.124363
 30
0.0
 10
26.521692
 20
8.124363
 30
0.0
 10
26.521692
 20
8.128883
 30
0.0
 10
24.631927
 20
8.128883
 30
0.0
 10
24.631927
 20
8.124363
 30
0.0
 10
24.551403
 20
8.124363
 30
0.0
 10
24.470895
 20
8.107253
 30
0.0
 10
24.395706
 20
8.073776
 30
0.0
 10
24.329120
 20
8.025395
 30
0.0
 10
24.274045
 20
7.964229
 30
0.0
 10
24.232892
 20
7.892954
 30
0.0
 10
24.207457
 20
7.814674
 30
0.0
 10
24.198856
 20
7.732820
 30
0.0
 10
24.207457
 20
7.650965
 30
0.0
 10
24.232892
 20
7.572686
 30
0.0
 10
24.274045
 20
7.501406
 30
0.0
 10
24.329120
 20
7.440241
 30
0.0
 10
24.395706
 20
7.391863
 30
0.0
 10
24.442281
 20
7.371127
 30
0.0
 10
25.157029
 20
5.968358
 30
0.0
 10
25.165399
 20
5.972624
 30
0.0
 10
25.194597
 20
5.922054
 30
0.0
 10
25.260684
 20
5.848656
 30
0.0
 10
25.340589
 20
5.790602
 30
0.0
 10
25.430817
 20
5.750429
 30
0.0
 10
25.527426
 20
5.729898
 30
0.0
 10
25.626192
 20
5.729898
 30
0.0
  0
LWPOLYLINE
  5
16e
100
AcDbEntity
  8
Layer_1
 62
7
100
AcDbPolyline
 90
38
 70
1
 10
25.565493
 20
7.585776
 30
0.0
 10
25.543352
 20
7.590481
 30
0.0
 10
25.522675
 20
7.599686
 30
0.0
 10
25.504364
 20
7.612989
 30
0.0
 10
25.489219
 20
7.629812
 30
0.0
 10
25.477902
 20
7.649414
 30
0.0
 10
25.470907
 20
7.670938
 30
0.0
 10
25.468542
 20
7.693450
 30
0.0
 10
25.470612
 20
7.713135
 30
0.0
 10
25.468542
 20
7.732820
 30
0.0
 10
25.470612
 20
7.752505
 30
0.0
 10
25.468542
 20
7.772190
 30
0.0
 10
25.470907
 20
7.794698
 30
0.0
 10
25.477902
 20
7.816225
 30
0.0
 10
25.489219
 20
7.835828
 30
0.0
 10
25.504364
 20
7.852647
 30
0.0
 10
25.522676
 20
7.865954
 30
0.0
 10
25.543352
 20
7.875159
 30
0.0
 10
25.565493
 20
7.879863
 30
0.0
 10
25.588126
 20
7.879863
 30
0.0
 10
25.610266
 20
7.875159
 30
0.0
 10
25.630943
 20
7.865954
 30
0.0
 10
25.649254
 20
7.852647
 30
0.0
 10
25.664399
 20
7.835828
 30
0.0
 10
25.675717
 20
7.816225
 30
0.0
 10
25.682710
 20
7.794698
 30
0.0
 10
25.685077
 20
7.772190
 30
0.0
 10
25.683010
 20
7.752505
 30
0.0
 10
25.685077
 20
7.732820
 30
0.0
 10
25.683010
 20
7.713135
 30
0.0
 10
25.685077
 20
7.693450
 30
0.0
 10
25.682710
 20
7.670938
 30
0.0
 10
25.675717
 20
7.649414
 30
0.0
 10
25.664399
 20
7.629812
 30
0.0
 10
25.649254
 20
7.612989
 30
0.0
 10
25.630943
 20
7.599686
 30
0.0
 10
25.610266
 20
7.590481
 30
0.0
 10
25.588126
 20
7.585776
 30
0.0
  0
LWPOLYLINE
  5
16f
100
AcDbEntity
  8
Layer_1
 62
7
100
AcDbPolyline
 90
30
 70
1
 10
26.586645
 20
7.601654
 30
0.0
 10
26.559676
 20
7.607387
 30
0.0
 10
26.534488
 20
7.618599
 30
0.0
 10
26.512180
 20
7.634808
 30
0.0
 10
26.493731
 20
7.655296
 30
0.0
 10
26.479943
 20
7.679174
 30
0.0
 10
26.471424
 20
7.705398
 30
0.0
 10
26.468542
 20
7.732820
 30
0.0
 10
26.471424
 20
7.760241
 30
0.0
 10
26.479943
 20
7.786466
 30
0.0
 10
26.493731
 20
7.810344
 30
0.0
 10
26.512180
 20
7.830832
 30
0.0
 10
26.534488
 20
7.847040
 30
0.0
 10
26.559676
 20
7.858253
 30
0.0
 10
26.586645
 20
7.863985
 30
0.0
 10
26.614220
 20
7.863985
 30
0.0
 10
26.641188
 20
7.858253
 30
0.0
 10
26.666377
 20
7.847040
 30
0.0
 10
26.688684
 20
7.830832
 30
0.0
 10
26.707132
 20
7.810344
 30
0.0
 10
26.720920
 20
7.786466
 30
0.0
 10
26.729440
 20
7.760241
 30
0.0
 10
26.732322
 20
7.732820
 30
0.0
 10
26.729440
 20
7.705398
 30
0.0
 10
26.720920
 20
7.679174
 30
0.0
 10
26.707132
 20
7.655296
 30
0.0
 10
26.688684
 20
7.634808
 30
0.0
 10
26.666377
 20
7.618599
 30
0.0
 10
26.641188
 20
7.607387
 30
0.0
 10
26.614220
 20
7.601654
 30
0.0
  0
LWPOLYLINE
  5
170
100
AcDbEntity
  8
Layer_1
 62
7
100
AcDbPolyline
 90
30
 70
1
 10
24.539399
 20
7.601654
 30
0.0
 10
24.512431
 20
7.607387
 30
0.0
 10
24.487242
 20
7.618599
 30
0.0
 10
24.464934
 20
7.634808
 30
0.0
 10
24.446486
 20
7.655296
 30
0.0
 10
24.432699
 20
7.679174
 30
0.0
 10
24.424179
 20
7.705398
 30
0.0
 10
24.421297
 20
7.732820
 30
0.0
 10
24.424179
 20
7.760241
 30
0.0
 10
24.432699
 20
7.786466
 30
0.0
 10
24.446486
 20
7.810344
 30
0.0
 10
24.464934
 20
7.830832
 30
0.0
 10
24.487242
 20
7.847040
 30
0.0
 10
24.512431
 20
7.858253
 30
0.0
 10
24.539399
 20
7.863985
 30
0.0
 10
24.566974
 20
7.863985
 30
0.0
 10
24.593943
 20
7.858253
 30
0.0
 10
24.619131
 20
7.847040
 30
0.0
 10
24.641439
 20
7.830832
 30
0.0
 10
24.659887
 20
7.810344
 30
0.0
 10
24.673675
 20
7.786466
 30
0.0
 10
24.682195
 20
7.760241
 30
0.0
 10
24.685077
 20
7.732820
 30
0.0
 10
24.682195
 20
7.705398
 30
0.0
 10
24.673675
 20
7.679174
 30
0.0
 10
24.659887
 20
7.655296
 30
0.0
 10
24.641439
 20
7.634808
 30
0.0
 10
24.619131
 20
7.618599
 30
0.0
 10
24.593943
 20
7.607387
 30
0.0
 10
24.566974
 20
7.601654
 30
0.0
  0
LWPOLYLINE
  5
171
100
AcDbEntity
  8
Layer_1
 62
7
100
AcDbPolyline
 90
34
 70
1
 10
25.563023
 20
5.945944
 30
0.0
 10
25.536053
 20
5.951676
 30
0.0
 10
25.510865
 20
5.962891
 30
0.0
 10
25.488558
 20
5.979098
 30
0.0
 10
25.470108
 20
5.999587
 30
0.0
 10
25.456322
 20
6.023467
 30
0.0
 10
25.447801
 20
6.049689
 30
0.0
 10
25.444920
 20
6.077110
 30
0.0
 10
25.447801
 20
6.104532
 30
0.0
 10
25.452469
 20
6.118892
 30
0.0
 10
25.457401
 20
6.121407
 30
0.0
 10
25.459921
 20
6.129155
 30
0.0
 10
25.473296
 20
6.152320
 30
0.0
 10
25.491194
 20
6.172199
 30
0.0
 10
25.512835
 20
6.187922
 30
0.0
 10
25.537272
 20
6.198802
 30
0.0
 10
25.563436
 20
6.204363
 30
0.0
 10
25.590185
 20
6.204363
 30
0.0
 10
25.616350
 20
6.198802
 30
0.0
 10
25.640788
 20
6.187922
 30
0.0
 10
25.662428
 20
6.172199
 30
0.0
 10
25.680327
 20
6.152320
 30
0.0
 10
25.693701
 20
6.129155
 30
0.0
 10
25.701969
 20
6.103715
 30
0.0
 10
25.702365
 20
6.100168
 30
0.0
 10
25.706525
 20
6.098050
 30
0.0
 10
25.708726
 20
6.077111
 30
0.0
 10
25.705844
 20
6.049690
 30
0.0
 10
25.697323
 20
6.023467
 30
0.0
 10
25.683537
 20
5.999588
 30
0.0
 10
25.665087
 20
5.979098
 30
0.0
 10
25.642780
 20
5.962891
 30
0.0
 10
25.617592
 20
5.951676
 30
0.0
 10
25.590621
 20
5.945944
 30
0.0
  0
LWPOLYLINE
  5
172
100
AcDbEntity
  8
Layer_1
 62
7
100
AcDbPolyline
 90
47
 70
1
 10
21.917963
 20
5.657628
 30
0.0
 10
22.008191
 20
5.697801
 30
0.0
 10
22.088095
 20
5.755855
 30
0.0
 10
22.154182
 20
5.829253
 30
0.0
 10
22.203565
 20
5.914789
 30
0.0
 10
22.230750
 20
5.998453
 30
0.0
 10
22.876207
 20
7.265231
 30
0.0
 10
22.877884
 20
7.265585
 30
0.0
 10
22.953074
 20
7.299062
 30
0.0
 10
23.019659
 20
7.347440
 30
0.0
 10
23.074734
 20
7.408605
 30
0.0
 10
23.115887
 20
7.479885
 30
0.0
 10
23.141321
 20
7.558164
 30
0.0
 10
23.149924
 20
7.640019
 30
0.0
 10
23.141321
 20
7.721873
 30
0.0
 10
23.115887
 20
7.800152
 30
0.0
 10
23.074734
 20
7.871428
 30
0.0
 10
23.019659
 20
7.932593
 30
0.0
 10
22.953074
 20
7.980975
 30
0.0
 10
22.877884
 20
8.014452
 30
0.0
 10
22.797376
 20
8.031562
 30
0.0
 10
22.716852
 20
8.031562
 30
0.0
 10
22.716852
 20
8.036081
 30
0.0
 10
20.827088
 20
8.036081
 30
0.0
 10
20.827088
 20
8.031562
 30
0.0
 10
20.746564
 20
8.031562
 30
0.0
 10
20.666056
 20
8.014452
 30
0.0
 10
20.590867
 20
7.980975
 30
0.0
 10
20.524280
 20
7.932593
 30
0.0
 10
20.469206
 20
7.871428
 30
0.0
 10
20.428052
 20
7.800152
 30
0.0
 10
20.402619
 20
7.721873
 30
0.0
 10
20.394017
 20
7.640019
 30
0.0
 10
20.402619
 20
7.558164
 30
0.0
 10
20.428052
 20
7.479884
 30
0.0
 10
20.469206
 20
7.408605
 30
0.0
 10
20.524280
 20
7.347440
 30
0.0
 10
20.590867
 20
7.299062
 30
0.0
 10
20.637442
 20
7.278325
 30
0.0
 10
21.352191
 20
5.875557
 30
0.0
 10
21.360560
 20
5.879823
 30
0.0
 10
21.389757
 20
5.829253
 30
0.0
 10
21.455846
 20
5.755855
 30
0.0
 10
21.535749
 20
5.697801
 30
0.0
 10
21.625978
 20
5.657628
 30
0.0
 10
21.722588
 20
5.637096
 30
0.0
 10
21.821353
 20
5.637096
 30
0.0
  0
LWPOLYLINE
  5
173
100
AcDbEntity
  8
Layer_1
 62
7
100
AcDbPolyline
 90
38
 70
1
 10
21.760653
 20
7.492975
 30
0.0
 10
21.738514
 20
7.497680
 30
0.0
 10
21.717836
 20
7.506885
 30
0.0
 10
21.699525
 20
7.520188
 30
0.0
 10
21.684380
 20
7.537011
 30
0.0
 10
21.673063
 20
7.556613
 30
0.0
 10
21.666069
 20
7.578137
 30
0.0
 10
21.663702
 20
7.600649
 30
0.0
 10
21.665773
 20
7.620334
 30
0.0
 10
21.663702
 20
7.640019
 30
0.0
 10
21.665773
 20
7.659704
 30
0.0
 10
21.663702
 20
7.679389
 30
0.0
 10
21.666069
 20
7.701897
 30
0.0
 10
21.673063
 20
7.723424
 30
0.0
 10
21.684380
 20
7.743027
 30
0.0
 10
21.699525
 20
7.759846
 30
0.0
 10
21.717837
 20
7.773153
 30
0.0
 10
21.738514
 20
7.782357
 30
0.0
 10
21.760653
 20
7.787062
 30
0.0
 10
21.783286
 20
7.787062
 30
0.0
 10
21.805427
 20
7.782357
 30
0.0
 10
21.826104
 20
7.773153
 30
0.0
 10
21.844416
 20
7.759846
 30
0.0
 10
21.859560
 20
7.743027
 30
0.0
 10
21.870877
 20
7.723424
 30
0.0
 10
21.877872
 20
7.701897
 30
0.0
 10
21.880237
 20
7.679389
 30
0.0
 10
21.878167
 20
7.659704
 30
0.0
 10
21.880237
 20
7.640019
 30
0.0
 10
21.878167
 20
7.620334
 30
0.0
 10
21.880237
 20
7.600649
 30
0.0
 10
21.877872
 20
7.578137
 30
0.0
 10
21.870877
 20
7.556613
 30
0.0
 10
21.859560
 20
7.537011
 30
0.0
 10
21.844416
 20
7.520188
 30
0.0
 10
21.826104
 20
7.506885
 30
0.0
 10
21.805427
 20
7.497680
 30
0.0
 10
21.783286
 20
7.492975
 30
0.0
  0
LWPOLYLINE
  5
174
100
AcDbEntity
  8
Layer_1
 62
7
100
AcDbPolyline
 90
30
 70
1
 10
22.781805
 20
7.508853
 30
0.0
 10
22.754836
 20
7.514585
 30
0.0
 10
22.729648
 20
7.525798
 30
0.0
 10
22.707341
 20
7.542007
 30
0.0
 10
22.688892
 20
7.562495
 30
0.0
 10
22.675104
 20
7.586373
 30
0.0
 10
22.666584
 20
7.612598
 30
0.0
 10
22.663703
 20
7.640019
 30
0.0
 10
22.666584
 20
7.667440
 30
0.0
 10
22.675104
 20
7.693665
 30
0.0
 10
22.688892
 20
7.717543
 30
0.0
 10
22.707341
 20
7.738031
 30
0.0
 10
22.729648
 20
7.754239
 30
0.0
 10
22.754836
 20
7.765452
 30
0.0
 10
22.781805
 20
7.771184
 30
0.0
 10
22.809380
 20
7.771184
 30
0.0
 10
22.836349
 20
7.765452
 30
0.0
 10
22.861537
 20
7.754239
 30
0.0
 10
22.883845
 20
7.738031
 30
0.0
 10
22.902294
 20
7.717543
 30
0.0
 10
22.916081
 20
7.693665
 30
0.0
 10
22.924601
 20
7.667440
 30
0.0
 10
22.927482
 20
7.640019
 30
0.0
 10
22.924601
 20
7.612598
 30
0.0
 10
22.916081
 20
7.586373
 30
0.0
 10
22.902294
 20
7.562495
 30
0.0
 10
22.883845
 20
7.542007
 30
0.0
 10
22.861537
 20
7.525798
 30
0.0
 10
22.836349
 20
7.514585
 30
0.0
 10
22.809380
 20
7.508853
 30
0.0
  0
LWPOLYLINE
  5
175
100
AcDbEntity
  8
Layer_1
 62
7
100
AcDbPolyline
 90
30
 70
1
 10
20.734560
 20
7.508853
 30
0.0
 10
20.707592
 20
7.514585
 30
0.0
 10
20.682402
 20
7.525798
 30
0.0
 10
20.660096
 20
7.542007
 30
0.0
 10
20.641647
 20
7.562495
 30
0.0
 10
20.627859
 20
7.586373
 30
0.0
 10
20.619340
 20
7.612598
 30
0.0
 10
20.616457
 20
7.640019
 30
0.0
 10
20.619340
 20
7.667440
 30
0.0
 10
20.627859
 20
7.693665
 30
0.0
 10
20.641647
 20
7.717543
 30
0.0
 10
20.660096
 20
7.738031
 30
0.0
 10
20.682402
 20
7.754239
 30
0.0
 10
20.707592
 20
7.765452
 30
0.0
 10
20.734560
 20
7.771184
 30
0.0
 10
20.762134
 20
7.771184
 30
0.0
 10
20.789103
 20
7.765452
 30
0.0
 10
20.814293
 20
7.754239
 30
0.0
 10
20.836599
 20
7.738031
 30
0.0
 10
20.855048
 20
7.717543
 30
0.0
 10
20.868836
 20
7.693665
 30
0.0
 10
20.877356
 20
7.667440
 30
0.0
 10
20.880237
 20
7.640019
 30
0.0
 10
20.877356
 20
7.612598
 30
0.0
 10
20.868836
 20
7.586373
 30
0.0
 10
20.855048
 20
7.562495
 30
0.0
 10
20.836599
 20
7.542007
 30
0.0
 10
20.814293
 20
7.525798
 30
0.0
 10
20.789103
 20
7.514585
 30
0.0
 10
20.762134
 20
7.508853
 30
0.0
  0
LWPOLYLINE
  5
176
100
AcDbEntity
  8
Layer_1
 62
7
100
AcDbPolyline
 90
34
 70
1
 10
21.758184
 20
5.853143
 30
0.0
 10
21.731215
 20
5.858875
 30
0.0
 10
21.706026
 20
5.870089
 30
0.0
 10
21.683719
 20
5.886297
 30
0.0
 10
21.665269
 20
5.906786
 30
0.0
 10
21.651483
 20
5.930665
 30
0.0
 10
21.642962
 20
5.956889
 30
0.0
 10
21.640080
 20
5.984309
 30
0.0
 10
21.642962
 20
6.011731
 30
0.0
 10
21.647629
 20
6.026091
 30
0.0
 10
21.652562
 20
6.028606
 30
0.0
 10
21.655081
 20
6.036354
 30
0.0
 10
21.668456
 20
6.059519
 30
0.0
 10
21.686355
 20
6.079398
 30
0.0
 10
21.707997
 20
6.095121
 30
0.0
 10
21.732433
 20
6.106001
 30
0.0
 10
21.758598
 20
6.111561
 30
0.0
 10
21.785346
 20
6.111561
 30
0.0
 10
21.811511
 20
6.106001
 30
0.0
 10
21.835949
 20
6.095121
 30
0.0
 10
21.857590
 20
6.079398
 30
0.0
 10
21.875487
 20
6.059519
 30
0.0
 10
21.888862
 20
6.036354
 30
0.0
 10
21.897128
 20
6.010913
 30
0.0
 10
21.897482
 20
6.007366
 30
0.0
 10
21.901642
 20
6.005248
 30
0.0
 10
21.903843
 20
5.984310
 30
0.0
 10
21.900961
 20
5.956889
 30
0.0
 10
21.892441
 20
5.930666
 30
0.0
 10
21.878655
 20
5.906787
 30
0.0
 10
21.860205
 20
5.886297
 30
0.0
 10
21.837898
 20
5.870090
 30
0.0
 10
21.812709
 20
5.858875
 30
0.0
 10
21.785740
 20
5.853143
 30
0.0
  0
LWPOLYLINE
  5
177
100
AcDbEntity
  8
Layer_1
 62
7
100
AcDbPolyline
 90
47
 70
1
 10
18.205925
 20
5.612165
 30
0.0
 10
18.296154
 20
5.652338
 30
0.0
 10
18.376057
 20
5.710393
 30
0.0
 10
18.442146
 20
5.783791
 30
0.0
 10
18.491528
 20
5.869326
 30
0.0
 10
18.518712
 20
5.952991
 30
0.0
 10
19.164170
 20
7.219768
 30
0.0
 10
19.165847
 20
7.220123
 30
0.0
 10
19.241035
 20
7.253599
 30
0.0
 10
19.307622
 20
7.301978
 30
0.0
 10
19.362697
 20
7.363143
 30
0.0
 10
19.403851
 20
7.434422
 30
0.0
 10
19.429283
 20
7.512702
 30
0.0
 10
19.437886
 20
7.594556
 30
0.0
 10
19.429283
 20
7.676410
 30
0.0
 10
19.403851
 20
7.754690
 30
0.0
 10
19.362697
 20
7.825965
 30
0.0
 10
19.307622
 20
7.887131
 30
0.0
 10
19.241035
 20
7.935513
 30
0.0
 10
19.165847
 20
7.968989
 30
0.0
 10
19.085339
 20
7.986100
 30
0.0
 10
19.004816
 20
7.986100
 30
0.0
 10
19.004816
 20
7.990619
 30
0.0
 10
17.115051
 20
7.990619
 30
0.0
 10
17.115051
 20
7.986099
 30
0.0
 10
17.034528
 20
7.986099
 30
0.0
 10
16.954020
 20
7.968989
 30
0.0
 10
16.878831
 20
7.935513
 30
0.0
 10
16.812245
 20
7.887131
 30
0.0
 10
16.757170
 20
7.825965
 30
0.0
 10
16.716016
 20
7.754690
 30
0.0
 10
16.690583
 20
7.676410
 30
0.0
 10
16.681980
 20
7.594556
 30
0.0
 10
16.690583
 20
7.512701
 30
0.0
 10
16.716016
 20
7.434422
 30
0.0
 10
16.757170
 20
7.363143
 30
0.0
 10
16.812245
 20
7.301977
 30
0.0
 10
16.878831
 20
7.253599
 30
0.0
 10
16.925405
 20
7.232863
 30
0.0
 10
17.640154
 20
5.830094
 30
0.0
 10
17.648524
 20
5.834360
 30
0.0
 10
17.677721
 20
5.783790
 30
0.0
 10
17.743809
 20
5.710392
 30
0.0
 10
17.823712
 20
5.652338
 30
0.0
 10
17.913942
 20
5.612165
 30
0.0
 10
18.010550
 20
5.591634
 30
0.0
 10
18.109317
 20
5.591634
 30
0.0
  0
LWPOLYLINE
  5
178
100
AcDbEntity
  8
Layer_1
 62
7
100
AcDbPolyline
 90
38
 70
1
 10
18.048617
 20
7.447513
 30
0.0
 10
18.026477
 20
7.452218
 30
0.0
 10
18.005799
 20
7.461422
 30
0.0
 10
17.987489
 20
7.474726
 30
0.0
 10
17.972343
 20
7.491548
 30
0.0
 10
17.961026
 20
7.511151
 30
0.0
 10
17.954031
 20
7.532674
 30
0.0
 10
17.951666
 20
7.555186
 30
0.0
 10
17.953736
 20
7.574871
 30
0.0
 10
17.951666
 20
7.594556
 30
0.0
 10
17.953736
 20
7.614241
 30
0.0
 10
17.951666
 20
7.633926
 30
0.0
 10
17.954031
 20
7.656434
 30
0.0
 10
17.961026
 20
7.677962
 30
0.0
 10
17.972343
 20
7.697564
 30
0.0
 10
17.987489
 20
7.714383
 30
0.0
 10
18.005800
 20
7.727690
 30
0.0
 10
18.026477
 20
7.736895
 30
0.0
 10
18.048617
 20
7.741600
 30
0.0
 10
18.071250
 20
7.741600
 30
0.0
 10
18.093390
 20
7.736895
 30
0.0
 10
18.114067
 20
7.727690
 30
0.0
 10
18.132378
 20
7.714383
 30
0.0
 10
18.147524
 20
7.697564
 30
0.0
 10
18.158841
 20
7.677962
 30
0.0
 10
18.165834
 20
7.656434
 30
0.0
 10
18.168201
 20
7.633926
 30
0.0
 10
18.166130
 20
7.614241
 30
0.0
 10
18.168201
 20
7.594556
 30
0.0
 10
18.166130
 20
7.574871
 30
0.0
 10
18.168201
 20
7.555186
 30
0.0
 10
18.165834
 20
7.532674
 30
0.0
 10
18.158841
 20
7.511151
 30
0.0
 10
18.147524
 20
7.491548
 30
0.0
 10
18.132378
 20
7.474726
 30
0.0
 10
18.114067
 20
7.461422
 30
0.0
 10
18.093390
 20
7.452218
 30
0.0
 10
18.071250
 20
7.447513
 30
0.0
  0
LWPOLYLINE
  5
179
100
AcDbEntity
  8
Layer_1
 62
7
100
AcDbPolyline
 90
30
 70
1
 10
19.069768
 20
7.463391
 30
0.0
 10
19.042799
 20
7.469123
 30
0.0
 10
19.017610
 20
7.480336
 30
0.0
 10
18.995303
 20
7.496545
 30
0.0
 10
18.976854
 20
7.517033
 30
0.0
 10
18.963067
 20
7.540910
 30
0.0
 10
18.954548
 20
7.567135
 30
0.0
 10
18.951666
 20
7.594556
 30
0.0
 10
18.954548
 20
7.621978
 30
0.0
 10
18.963067
 20
7.648202
 30
0.0
 10
18.976854
 20
7.672080
 30
0.0
 10
18.995303
 20
7.692568
 30
0.0
 10
19.017610
 20
7.708777
 30
0.0
 10
19.042799
 20
7.719989
 30
0.0
 10
19.069768
 20
7.725722
 30
0.0
 10
19.097343
 20
7.725722
 30
0.0
 10
19.124311
 20
7.719989
 30
0.0
 10
19.149500
 20
7.708777
 30
0.0
 10
19.171807
 20
7.692568
 30
0.0
 10
19.190256
 20
7.672080
 30
0.0
 10
19.204044
 20
7.648202
 30
0.0
 10
19.212564
 20
7.621978
 30
0.0
 10
19.215445
 20
7.594556
 30
0.0
 10
19.212564
 20
7.567135
 30
0.0
 10
19.204044
 20
7.540910
 30
0.0
 10
19.190256
 20
7.517033
 30
0.0
 10
19.171807
 20
7.496545
 30
0.0
 10
19.149500
 20
7.480336
 30
0.0
 10
19.124311
 20
7.469123
 30
0.0
 10
19.097343
 20
7.463391
 30
0.0
  0
LWPOLYLINE
  5
17a
100
AcDbEntity
  8
Layer_1
 62
7
100
AcDbPolyline
 90
30
 70
1
 10
17.022524
 20
7.463391
 30
0.0
 10
16.995555
 20
7.469123
 30
0.0
 10
16.970367
 20
7.480336
 30
0.0
 10
16.948059
 20
7.496545
 30
0.0
 10
16.929610
 20
7.517033
 30
0.0
 10
16.915823
 20
7.540910
 30
0.0
 10
16.907303
 20
7.567135
 30
0.0
 10
16.904422
 20
7.594556
 30
0.0
 10
16.907303
 20
7.621978
 30
0.0
 10
16.915823
 20
7.648202
 30
0.0
 10
16.929610
 20
7.672080
 30
0.0
 10
16.948059
 20
7.692568
 30
0.0
 10
16.970367
 20
7.708777
 30
0.0
 10
16.995555
 20
7.719989
 30
0.0
 10
17.022524
 20
7.725722
 30
0.0
 10
17.050099
 20
7.725722
 30
0.0
 10
17.077067
 20
7.719989
 30
0.0
 10
17.102256
 20
7.708777
 30
0.0
 10
17.124564
 20
7.692568
 30
0.0
 10
17.143012
 20
7.672080
 30
0.0
 10
17.156799
 20
7.648202
 30
0.0
 10
17.165319
 20
7.621978
 30
0.0
 10
17.168201
 20
7.594556
 30
0.0
 10
17.165319
 20
7.567135
 30
0.0
 10
17.156799
 20
7.540910
 30
0.0
 10
17.143012
 20
7.517033
 30
0.0
 10
17.124564
 20
7.496545
 30
0.0
 10
17.102256
 20
7.480336
 30
0.0
 10
17.077067
 20
7.469123
 30
0.0
 10
17.050099
 20
7.463391
 30
0.0
  0
LWPOLYLINE
  5
17b
100
AcDbEntity
  8
Layer_1
 62
7
100
AcDbPolyline
 90
34
 70
1
 10
18.046148
 20
5.807680
 30
0.0
 10
18.019177
 20
5.813412
 30
0.0
 10
17.993989
 20
5.824627
 30
0.0
 10
17.971682
 20
5.840834
 30
0.0
 10
17.953232
 20
5.861324
 30
0.0
 10
17.939447
 20
5.885203
 30
0.0
 10
17.930926
 20
5.911426
 30
0.0
 10
17.928044
 20
5.938847
 30
0.0
 10
17.930926
 20
5.966268
 30
0.0
 10
17.935593
 20
5.980628
 30
0.0
 10
17.940525
 20
5.983144
 30
0.0
 10
17.943042
 20
5.990892
 30
0.0
 10
17.956416
 20
6.014056
 30
0.0
 10
17.974315
 20
6.033935
 30
0.0
 10
17.995956
 20
6.049658
 30
0.0
 10
18.020392
 20
6.060539
 30
0.0
 10
18.046557
 20
6.066099
 30
0.0
 10
18.073305
 20
6.066099
 30
0.0
 10
18.099471
 20
6.060539
 30
0.0
 10
18.123907
 20
6.049658
 30
0.0
 10
18.145548
 20
6.033935
 30
0.0
 10
18.163447
 20
6.014056
 30
0.0
 10
18.176822
 20
5.990892
 30
0.0
 10
18.185088
 20
5.965451
 30
0.0
 10
18.185442
 20
5.961904
 30
0.0
 10
18.189602
 20
5.959786
 30
0.0
 10
18.191803
 20
5.938847
 30
0.0
 10
18.188921
 20
5.911426
 30
0.0
 10
18.180400
 20
5.885203
 30
0.0
 10
18.166615
 20
5.861324
 30
0.0
 10
18.148165
 20
5.840835
 30
0.0
 10
18.125858
 20
5.824627
 30
0.0
 10
18.100670
 20
5.813413
 30
0.0
 10
18.073699
 20
5.807680
 30
0.0
  0
LWPOLYLINE
  5
17c
100
AcDbEntity
  8
Layer_1
 62
7
100
AcDbPolyline
 90
47
 70
1
 10
21.850222
 20
8.406275
 30
0.0
 10
21.940451
 20
8.446448
 30
0.0
 10
22.020354
 20
8.504503
 30
0.0
 10
22.086443
 20
8.577900
 30
0.0
 10
22.135825
 20
8.663436
 30
0.0
 10
22.163009
 20
8.747101
 30
0.0
 10
22.808467
 20
10.013877
 30
0.0
 10
22.810144
 20
10.014232
 30
0.0
 10
22.885333
 20
10.047709
 30
0.0
 10
22.951920
 20
10.096087
 30
0.0
 10
23.006995
 20
10.157252
 30
0.0
 10
23.048148
 20
10.228531
 30
0.0
 10
23.073581
 20
10.306811
 30
0.0
 10
23.082183
 20
10.388665
 30
0.0
 10
23.073581
 20
10.470519
 30
0.0
 10
23.048148
 20
10.548799
 30
0.0
 10
23.006995
 20
10.620075
 30
0.0
 10
22.951920
 20
10.681240
 30
0.0
 10
22.885333
 20
10.729622
 30
0.0
 10
22.810144
 20
10.763098
 30
0.0
 10
22.729636
 20
10.780209
 30
0.0
 10
22.649112
 20
10.780209
 30
0.0
 10
22.649112
 20
10.784728
 30
0.0
 10
20.759348
 20
10.784728
 30
0.0
 10
20.759348
 20
10.780208
 30
0.0
 10
20.678824
 20
10.780208
 30
0.0
 10
20.598316
 20
10.763098
 30
0.0
 10
20.523127
 20
10.729622
 30
0.0
 10
20.456541
 20
10.681240
 30
0.0
 10
20.401466
 20
10.620075
 30
0.0
 10
20.360312
 20
10.548799
 30
0.0
 10
20.334878
 20
10.470519
 30
0.0
 10
20.326277
 20
10.388665
 30
0.0
 10
20.334878
 20
10.306811
 30
0.0
 10
20.360312
 20
10.228531
 30
0.0
 10
20.401466
 20
10.157252
 30
0.0
 10
20.456541
 20
10.096087
 30
0.0
 10
20.523127
 20
10.047709
 30
0.0
 10
20.569702
 20
10.026972
 30
0.0
 10
21.284450
 20
8.624204
 30
0.0
 10
21.292820
 20
8.628470
 30
0.0
 10
21.322018
 20
8.577900
 30
0.0
 10
21.388105
 20
8.504502
 30
0.0
 10
21.468009
 20
8.446448
 30
0.0
 10
21.558237
 20
8.406275
 30
0.0
 10
21.654847
 20
8.385744
 30
0.0
 10
21.753614
 20
8.385744
 30
0.0
  0
LWPOLYLINE
  5
17d
100
AcDbEntity
  8
Layer_1
 62
7
100
AcDbPolyline
 90
38
 70
1
 10
21.692914
 20
10.241622
 30
0.0
 10
21.670774
 20
10.246327
 30
0.0
 10
21.650096
 20
10.255531
 30
0.0
 10
21.631784
 20
10.268834
 30
0.0
 10
21.616640
 20
10.285657
 30
0.0
 10
21.605323
 20
10.305260
 30
0.0
 10
21.598328
 20
10.326783
 30
0.0
 10
21.595962
 20
10.349295
 30
0.0
 10
21.598033
 20
10.368980
 30
0.0
 10
21.595962
 20
10.388665
 30
0.0
 10
21.598033
 20
10.408350
 30
0.0
 10
21.595962
 20
10.428035
 30
0.0
 10
21.598328
 20
10.450543
 30
0.0
 10
21.605323
 20
10.472071
 30
0.0
 10
21.616640
 20
10.491673
 30
0.0
 10
21.631784
 20
10.508492
 30
0.0
 10
21.650097
 20
10.521799
 30
0.0
 10
21.670774
 20
10.531004
 30
0.0
 10
21.692914
 20
10.535709
 30
0.0
 10
21.715547
 20
10.535709
 30
0.0
 10
21.737686
 20
10.531004
 30
0.0
 10
21.758364
 20
10.521799
 30
0.0
 10
21.776675
 20
10.508492
 30
0.0
 10
21.791820
 20
10.491673
 30
0.0
 10
21.803137
 20
10.472071
 30
0.0
 10
21.810131
 20
10.450543
 30
0.0
 10
21.812498
 20
10.428035
 30
0.0
 10
21.810427
 20
10.408350
 30
0.0
 10
21.812498
 20
10.388665
 30
0.0
 10
21.810427
 20
10.368980
 30
0.0
 10
21.812498
 20
10.349295
 30
0.0
 10
21.810131
 20
10.326783
 30
0.0
 10
21.803137
 20
10.305260
 30
0.0
 10
21.791820
 20
10.285657
 30
0.0
 10
21.776675
 20
10.268834
 30
0.0
 10
21.758364
 20
10.255531
 30
0.0
 10
21.737686
 20
10.246327
 30
0.0
 10
21.715547
 20
10.241622
 30
0.0
  0
LWPOLYLINE
  5
17e
100
AcDbEntity
  8
Layer_1
 62
7
100
AcDbPolyline
 90
30
 70
1
 10
22.714066
 20
10.257500
 30
0.0
 10
22.687097
 20
10.263232
 30
0.0
 10
22.661907
 20
10.274445
 30
0.0
 10
22.639601
 20
10.290653
 30
0.0
 10
22.621152
 20
10.311142
 30
0.0
 10
22.607365
 20
10.335020
 30
0.0
 10
22.598845
 20
10.361244
 30
0.0
 10
22.595962
 20
10.388665
 30
0.0
 10
22.598845
 20
10.416087
 30
0.0
 10
22.607365
 20
10.442311
 30
0.0
 10
22.621152
 20
10.466189
 30
0.0
 10
22.639601
 20
10.486677
 30
0.0
 10
22.661907
 20
10.502886
 30
0.0
 10
22.687097
 20
10.514098
 30
0.0
 10
22.714066
 20
10.519831
 30
0.0
 10
22.741640
 20
10.519831
 30
0.0
 10
22.768608
 20
10.514098
 30
0.0
 10
22.793798
 20
10.502886
 30
0.0
 10
22.816104
 20
10.486677
 30
0.0
 10
22.834553
 20
10.466189
 30
0.0
 10
22.848341
 20
10.442311
 30
0.0
 10
22.856860
 20
10.416087
 30
0.0
 10
22.859743
 20
10.388665
 30
0.0
 10
22.856860
 20
10.361244
 30
0.0
 10
22.848341
 20
10.335020
 30
0.0
 10
22.834553
 20
10.311142
 30
0.0
 10
22.816104
 20
10.290653
 30
0.0
 10
22.793798
 20
10.274445
 30
0.0
 10
22.768608
 20
10.263232
 30
0.0
 10
22.741640
 20
10.257500
 30
0.0
  0
LWPOLYLINE
  5
17f
100
AcDbEntity
  8
Layer_1
 62
7
100
AcDbPolyline
 90
30
 70
1
 10
20.666820
 20
10.257500
 30
0.0
 10
20.639851
 20
10.263232
 30
0.0
 10
20.614662
 20
10.274445
 30
0.0
 10
20.592355
 20
10.290653
 30
0.0
 10
20.573906
 20
10.311142
 30
0.0
 10
20.560119
 20
10.335020
 30
0.0
 10
20.551599
 20
10.361244
 30
0.0
 10
20.548718
 20
10.388665
 30
0.0
 10
20.551599
 20
10.416087
 30
0.0
 10
20.560119
 20
10.442311
 30
0.0
 10
20.573906
 20
10.466189
 30
0.0
 10
20.592355
 20
10.486677
 30
0.0
 10
20.614662
 20
10.502886
 30
0.0
 10
20.639851
 20
10.514098
 30
0.0
 10
20.666820
 20
10.519831
 30
0.0
 10
20.694395
 20
10.519831
 30
0.0
 10
20.721364
 20
10.514098
 30
0.0
 10
20.746552
 20
10.502886
 30
0.0
 10
20.768859
 20
10.486677
 30
0.0
 10
20.787308
 20
10.466189
 30
0.0
 10
20.801096
 20
10.442311
 30
0.0
 10
20.809616
 20
10.416087
 30
0.0
 10
20.812498
 20
10.388665
 30
0.0
 10
20.809616
 20
10.361244
 30
0.0
 10
20.801096
 20
10.335020
 30
0.0
 10
20.787308
 20
10.311142
 30
0.0
 10
20.768859
 20
10.290653
 30
0.0
 10
20.746552
 20
10.274445
 30
0.0
 10
20.721364
 20
10.263232
 30
0.0
 10
20.694395
 20
10.257500
 30
0.0
  0
LWPOLYLINE
  5
180
100
AcDbEntity
  8
Layer_1
 62
7
100
AcDbPolyline
 90
34
 70
1
 10
21.690445
 20
8.601790
 30
0.0
 10
21.663474
 20
8.607522
 30
0.0
 10
21.638285
 20
8.618737
 30
0.0
 10
21.615978
 20
8.634944
 30
0.0
 10
21.597528
 20
8.655434
 30
0.0
 10
21.583743
 20
8.679313
 30
0.0
 10
21.575222
 20
8.705536
 30
0.0
 10
21.572341
 20
8.732957
 30
0.0
 10
21.575222
 20
8.760379
 30
0.0
 10
21.579889
 20
8.774738
 30
0.0
 10
21.584822
 20
8.777254
 30
0.0
 10
21.587342
 20
8.785002
 30
0.0
 10
21.600716
 20
8.808166
 30
0.0
 10
21.618615
 20
8.828045
 30
0.0
 10
21.640256
 20
8.843768
 30
0.0
 10
21.664693
 20
8.854648
 30
0.0
 10
21.690857
 20
8.860209
 30
0.0
 10
21.717606
 20
8.860209
 30
0.0
 10
21.743772
 20
8.854648
 30
0.0
 10
21.768208
 20
8.843768
 30
0.0
 10
21.789849
 20
8.828045
 30
0.0
 10
21.807748
 20
8.808166
 30
0.0
 10
21.821122
 20
8.785002
 30
0.0
 10
21.829389
 20
8.759561
 30
0.0
 10
21.829743
 20
8.756014
 30
0.0
 10
21.833903
 20
8.753895
 30
0.0
 10
21.836104
 20
8.732957
 30
0.0
 10
21.833222
 20
8.705536
 30
0.0
 10
21.824701
 20
8.679313
 30
0.0
 10
21.810916
 20
8.655434
 30
0.0
 10
21.792466
 20
8.634945
 30
0.0
 10
21.770159
 20
8.618737
 30
0.0
 10
21.744970
 20
8.607523
 30
0.0
 10
21.718000
 20
8.601790
 30
0.0
  0
LWPOLYLINE
  5
181
100
AcDbEntity
  8
Layer_1
 62
7
100
AcDbPolyline
 90
47
 70
1
 10
18.138185
 20
8.360813
 30
0.0
 10
18.228414
 20
8.400986
 30
0.0
 10
18.308318
 20
8.459040
 30
0.0
 10
18.374405
 20
8.532438
 30
0.0
 10
18.423787
 20
8.617973
 30
0.0
 10
18.450973
 20
8.701638
 30
0.0
 10
19.096430
 20
9.968415
 30
0.0
 10
19.098107
 20
9.968769
 30
0.0
 10
19.173296
 20
10.002246
 30
0.0
 10
19.239882
 20
10.050624
 30
0.0
 10
19.294957
 20
10.111789
 30
0.0
 10
19.336110
 20
10.183069
 30
0.0
 10
19.361544
 20
10.261348
 30
0.0
 10
19.370146
 20
10.343203
 30
0.0
 10
19.361544
 20
10.425057
 30
0.0
 10
19.336110
 20
10.503337
 30
0.0
 10
19.294957
 20
10.574612
 30
0.0
 10
19.239882
 20
10.635778
 30
0.0
 10
19.173296
 20
10.684160
 30
0.0
 10
19.098107
 20
10.717636
 30
0.0
 10
19.017599
 20
10.734746
 30
0.0
 10
18.937075
 20
10.734746
 30
0.0
 10
18.937075
 20
10.739265
 30
0.0
 10
17.047311
 20
10.739265
 30
0.0
 10
17.047311
 20
10.734746
 30
0.0
 10
16.966787
 20
10.734746
 30
0.0
 10
16.886280
 20
10.717636
 30
0.0
 10
16.811092
 20
10.684159
 30
0.0
 10
16.744504
 20
10.635777
 30
0.0
 10
16.689430
 20
10.574612
 30
0.0
 10
16.648276
 20
10.503336
 30
0.0
 10
16.622843
 20
10.425057
 30
0.0
 10
16.614241
 20
10.343203
 30
0.0
 10
16.622843
 20
10.261348
 30
0.0
 10
16.648276
 20
10.183069
 30
0.0
 10
16.689430
 20
10.111789
 30
0.0
 10
16.744504
 20
10.050624
 30
0.0
 10
16.811092
 20
10.002246
 30
0.0
 10
16.857666
 20
9.981510
 30
0.0
 10
17.572414
 20
8.578742
 30
0.0
 10
17.580783
 20
8.583008
 30
0.0
 10
17.609981
 20
8.532438
 30
0.0
 10
17.676069
 20
8.459040
 30
0.0
 10
17.755973
 20
8.400986
 30
0.0
 10
17.846201
 20
8.360813
 30
0.0
 10
17.942810
 20
8.340282
 30
0.0
 10
18.041576
 20
8.340282
 30
0.0
  0
LWPOLYLINE
  5
182
100
AcDbEntity
  8
Layer_1
 62
7
100
AcDbPolyline
 90
38
 70
1
 10
17.980876
 20
10.196160
 30
0.0
 10
17.958736
 20
10.200864
 30
0.0
 10
17.938059
 20
10.210069
 30
0.0
 10
17.919748
 20
10.223372
 30
0.0
 10
17.904603
 20
10.240195
 30
0.0
 10
17.893286
 20
10.259797
 30
0.0
 10
17.886292
 20
10.281321
 30
0.0
 10
17.883926
 20
10.303833
 30
0.0
 10
17.885997
 20
10.323518
 30
0.0
 10
17.883926
 20
10.343203
 30
0.0
 10
17.885997
 20
10.362888
 30
0.0
 10
17.883926
 20
10.382573
 30
0.0
 10
17.886292
 20
10.405081
 30
0.0
 10
17.893286
 20
10.426608
 30
0.0
 10
17.904603
 20
10.446211
 30
0.0
 10
17.919748
 20
10.463030
 30
0.0
 10
17.938060
 20
10.476337
 30
0.0
 10
17.958736
 20
10.485541
 30
0.0
 10
17.980876
 20
10.490246
 30
0.0
 10
18.003510
 20
10.490246
 30
0.0
 10
18.025649
 20
10.485541
 30
0.0
 10
18.046327
 20
10.476337
 30
0.0
 10
18.064639
 20
10.463030
 30
0.0
 10
18.079783
 20
10.446211
 30
0.0
 10
18.091101
 20
10.426608
 30
0.0
 10
18.098095
 20
10.405081
 30
0.0
 10
18.100460
 20
10.382573
 30
0.0
 10
18.098390
 20
10.362888
 30
0.0
 10
18.100460
 20
10.343203
 30
0.0
 10
18.098390
 20
10.323518
 30
0.0
 10
18.100460
 20
10.303833
 30
0.0
 10
18.098095
 20
10.281321
 30
0.0
 10
18.091101
 20
10.259797
 30
0.0
 10
18.079783
 20
10.240195
 30
0.0
 10
18.064639
 20
10.223372
 30
0.0
 10
18.046327
 20
10.210069
 30
0.0
 10
18.025649
 20
10.200864
 30
0.0
 10
18.003510
 20
10.196160
 30
0.0
  0
LWPOLYLINE
  5
183
100
AcDbEntity
  8
Layer_1
 62
7
100
AcDbPolyline
 90
30
 70
1
 10
19.002028
 20
10.212038
 30
0.0
 10
18.975059
 20
10.217770
 30
0.0
 10
18.949871
 20
10.228982
 30
0.0
 10
18.927564
 20
10.245191
 30
0.0
 10
18.909115
 20
10.265679
 30
0.0
 10
18.895327
 20
10.289557
 30
0.0
 10
18.886807
 20
10.315782
 30
0.0
 10
18.883926
 20
10.343203
 30
0.0
 10
18.886807
 20
10.370624
 30
0.0
 10
18.895327
 20
10.396848
 30
0.0
 10
18.909115
 20
10.420726
 30
0.0
 10
18.927564
 20
10.441215
 30
0.0
 10
18.949871
 20
10.457423
 30
0.0
 10
18.975059
 20
10.468636
 30
0.0
 10
19.002028
 20
10.474368
 30
0.0
 10
19.029603
 20
10.474368
 30
0.0
 10
19.056571
 20
10.468636
 30
0.0
 10
19.081760
 20
10.457423
 30
0.0
 10
19.104068
 20
10.441215
 30
0.0
 10
19.122516
 20
10.420726
 30
0.0
 10
19.136303
 20
10.396848
 30
0.0
 10
19.144823
 20
10.370624
 30
0.0
 10
19.147705
 20
10.343203
 30
0.0
 10
19.144823
 20
10.315782
 30
0.0
 10
19.136303
 20
10.289557
 30
0.0
 10
19.122516
 20
10.265679
 30
0.0
 10
19.104068
 20
10.245191
 30
0.0
 10
19.081760
 20
10.228982
 30
0.0
 10
19.056571
 20
10.217770
 30
0.0
 10
19.029603
 20
10.212038
 30
0.0
  0
LWPOLYLINE
  5
184
100
AcDbEntity
  8
Layer_1
 62
7
100
AcDbPolyline
 90
30
 70
1
 10
16.954784
 20
10.212038
 30
0.0
 10
16.927816
 20
10.217770
 30
0.0
 10
16.902627
 20
10.228982
 30
0.0
 10
16.880320
 20
10.245191
 30
0.0
 10
16.861871
 20
10.265679
 30
0.0
 10
16.848083
 20
10.289557
 30
0.0
 10
16.839564
 20
10.315782
 30
0.0
 10
16.836681
 20
10.343203
 30
0.0
 10
16.839564
 20
10.370624
 30
0.0
 10
16.848083
 20
10.396848
 30
0.0
 10
16.861871
 20
10.420726
 30
0.0
 10
16.880320
 20
10.441215
 30
0.0
 10
16.902627
 20
10.457423
 30
0.0
 10
16.927816
 20
10.468636
 30
0.0
 10
16.954784
 20
10.474368
 30
0.0
 10
16.982359
 20
10.474368
 30
0.0
 10
17.009327
 20
10.468636
 30
0.0
 10
17.034516
 20
10.457423
 30
0.0
 10
17.056823
 20
10.441215
 30
0.0
 10
17.075272
 20
10.420726
 30
0.0
 10
17.089059
 20
10.396848
 30
0.0
 10
17.097579
 20
10.370624
 30
0.0
 10
17.100460
 20
10.343203
 30
0.0
 10
17.097579
 20
10.315782
 30
0.0
 10
17.089059
 20
10.289557
 30
0.0
 10
17.075272
 20
10.265679
 30
0.0
 10
17.056823
 20
10.245191
 30
0.0
 10
17.034516
 20
10.228982
 30
0.0
 10
17.009327
 20
10.217770
 30
0.0
 10
16.982359
 20
10.212038
 30
0.0
  0
LWPOLYLINE
  5
185
100
AcDbEntity
  8
Layer_1
 62
7
100
AcDbPolyline
 90
34
 70
1
 10
17.978407
 20
8.556327
 30
0.0
 10
17.951438
 20
8.562060
 30
0.0
 10
17.926249
 20
8.573274
 30
0.0
 10
17.903943
 20
8.589482
 30
0.0
 10
17.885493
 20
8.609971
 30
0.0
 10
17.871706
 20
8.633851
 30
0.0
 10
17.863185
 20
8.660073
 30
0.0
 10
17.860304
 20
8.687494
 30
0.0
 10
17.863185
 20
8.714916
 30
0.0
 10
17.867852
 20
8.729275
 30
0.0
 10
17.872785
 20
8.731791
 30
0.0
 10
17.875301
 20
8.739539
 30
0.0
 10
17.888675
 20
8.762704
 30
0.0
 10
17.906574
 20
8.782583
 30
0.0
 10
17.928216
 20
8.798306
 30
0.0
 10
17.952652
 20
8.809186
 30
0.0
 10
17.978817
 20
8.814746
 30
0.0
 10
18.005566
 20
8.814746
 30
0.0
 10
18.031730
 20
8.809186
 30
0.0
 10
18.056168
 20
8.798306
 30
0.0
 10
18.077808
 20
8.782583
 30
0.0
 10
18.095707
 20
8.762704
 30
0.0
 10
18.109081
 20
8.739539
 30
0.0
 10
18.117348
 20
8.714099
 30
0.0
 10
18.117702
 20
8.710551
 30
0.0
 10
18.121863
 20
8.708433
 30
0.0
 10
18.124063
 20
8.687495
 30
0.0
 10
18.121181
 20
8.660074
 30
0.0
 10
18.112660
 20
8.633851
 30
0.0
 10
18.098875
 20
8.609972
 30
0.0
 10
18.080425
 20
8.589482
 30
0.0
 10
18.058118
 20
8.573275
 30
0.0
 10
18.032929
 20
8.562060
 30
0.0
 10
18.005959
 20
8.556328
 30
0.0
  0
LWPOLYLINE
  5
186
100
AcDbEntity
  8
Layer_1
 62
7
100
AcDbPolyline
 90
24
 70
1
 10
24.615880
 20
8.611722
 30
0.0
 10
24.665537
 20
8.633828
 30
0.0
 10
24.709510
 20
8.665777
 30
0.0
 10
24.745880
 20
8.706171
 30
0.0
 10
24.773061
 20
8.753245
 30
0.0
 10
24.789856
 20
8.804938
 30
0.0
 10
24.795537
 20
8.858997
 30
0.0
 10
24.789856
 20
8.913052
 30
0.0
 10
24.773061
 20
8.964749
 30
0.0
 10
24.745880
 20
9.011820
 30
0.0
 10
24.709510
 20
9.052214
 30
0.0
 10
24.699537
 20
9.059462
 30
0.0
 10
24.699537
 20
10.103797
 30
0.0
 10
23.479536
 20
10.103797
 30
0.0
 10
23.479536
 20
8.831797
 30
0.0
 10
24.278396
 20
8.831797
 30
0.0
 10
24.281219
 20
8.804938
 30
0.0
 10
24.298013
 20
8.753245
 30
0.0
 10
24.325190
 20
8.706171
 30
0.0
 10
24.361564
 20
8.665777
 30
0.0
 10
24.405536
 20
8.633828
 30
0.0
 10
24.455191
 20
8.611722
 30
0.0
 10
24.508360
 20
8.600423
 30
0.0
 10
24.562714
 20
8.600423
 30
0.0
  0
LWPOLYLINE
  5
187
100
AcDbEntity
  8
Layer_1
 62
7
100
AcDbPolyline
 90
30
 70
1
 10
23.871007
 20
9.579411
 30
0.0
 10
23.848065
 20
9.584289
 30
0.0
 10
23.826636
 20
9.593828
 30
0.0
 10
23.807660
 20
9.607615
 30
0.0
 10
23.791965
 20
9.625048
 30
0.0
 10
23.780236
 20
9.645360
 30
0.0
 10
23.772989
 20
9.667667
 30
0.0
 10
23.770536
 20
9.690997
 30
0.0
 10
23.772989
 20
9.714324
 30
0.0
 10
23.780236
 20
9.736631
 30
0.0
 10
23.791965
 20
9.756946
 30
0.0
 10
23.807660
 20
9.774379
 30
0.0
 10
23.826636
 20
9.788163
 30
0.0
 10
23.848065
 20
9.797706
 30
0.0
 10
23.871007
 20
9.802584
 30
0.0
 10
23.894466
 20
9.802584
 30
0.0
 10
23.917406
 20
9.797706
 30
0.0
 10
23.938835
 20
9.788163
 30
0.0
 10
23.957813
 20
9.774379
 30
0.0
 10
23.973509
 20
9.756946
 30
0.0
 10
23.985238
 20
9.736631
 30
0.0
 10
23.992485
 20
9.714324
 30
0.0
 10
23.994939
 20
9.690997
 30
0.0
 10
23.992485
 20
9.667667
 30
0.0
 10
23.985238
 20
9.645360
 30
0.0
 10
23.973509
 20
9.625048
 30
0.0
 10
23.957813
 20
9.607615
 30
0.0
 10
23.938835
 20
9.593828
 30
0.0
 10
23.917406
 20
9.584289
 30
0.0
 10
23.894466
 20
9.579411
 30
0.0
  0
LWPOLYLINE
  5
188
100
AcDbEntity
  8
Layer_1
 62
7
100
AcDbPolyline
 90
30
 70
1
 10
24.535467
 20
9.605403
 30
0.0
 10
24.516553
 20
9.609423
 30
0.0
 10
24.498887
 20
9.617289
 30
0.0
 10
24.483243
 20
9.628655
 30
0.0
 10
24.470305
 20
9.643025
 30
0.0
 10
24.460635
 20
9.659773
 30
0.0
 10
24.454659
 20
9.678163
 30
0.0
 10
24.452635
 20
9.697395
 30
0.0
 10
24.454659
 20
9.716627
 30
0.0
 10
24.460635
 20
9.735021
 30
0.0
 10
24.470305
 20
9.751765
 30
0.0
 10
24.483243
 20
9.766139
 30
0.0
 10
24.498887
 20
9.777505
 30
0.0
 10
24.516553
 20
9.785367
 30
0.0
 10
24.535467
 20
9.789391
 30
0.0
 10
24.554805
 20
9.789391
 30
0.0
 10
24.573723
 20
9.785367
 30
0.0
 10
24.591387
 20
9.777505
 30
0.0
 10
24.607033
 20
9.766139
 30
0.0
 10
24.619971
 20
9.751765
 30
0.0
 10
24.629640
 20
9.735021
 30
0.0
 10
24.635617
 20
9.716627
 30
0.0
 10
24.637636
 20
9.697395
 30
0.0
 10
24.635617
 20
9.678163
 30
0.0
 10
24.629640
 20
9.659773
 30
0.0
 10
24.619971
 20
9.643025
 30
0.0
 10
24.607033
 20
9.628655
 30
0.0
 10
24.591387
 20
9.617289
 30
0.0
 10
24.573723
 20
9.609423
 30
0.0
 10
24.554805
 20
9.605403
 30
0.0
  0
LWPOLYLINE
  5
189
100
AcDbEntity
  8
Layer_1
 62
7
100
AcDbPolyline
 90
30
 70
1
 10
24.523809
 20
8.747411
 30
0.0
 10
24.500865
 20
8.752289
 30
0.0
 10
24.479435
 20
8.761828
 30
0.0
 10
24.460462
 20
8.775615
 30
0.0
 10
24.444766
 20
8.793049
 30
0.0
 10
24.433038
 20
8.813360
 30
0.0
 10
24.425790
 20
8.835671
 30
0.0
 10
24.423336
 20
8.858997
 30
0.0
 10
24.425790
 20
8.882324
 30
0.0
 10
24.433038
 20
8.904631
 30
0.0
 10
24.444766
 20
8.924946
 30
0.0
 10
24.460462
 20
8.942379
 30
0.0
 10
24.479435
 20
8.956163
 30
0.0
 10
24.500865
 20
8.965706
 30
0.0
 10
24.523809
 20
8.970580
 30
0.0
 10
24.547266
 20
8.970580
 30
0.0
 10
24.570207
 20
8.965706
 30
0.0
 10
24.591635
 20
8.956163
 30
0.0
 10
24.610613
 20
8.942379
 30
0.0
 10
24.626309
 20
8.924946
 30
0.0
 10
24.638037
 20
8.904631
 30
0.0
 10
24.645285
 20
8.882324
 30
0.0
 10
24.647737
 20
8.858997
 30
0.0
 10
24.645285
 20
8.835671
 30
0.0
 10
24.638037
 20
8.813360
 30
0.0
 10
24.626309
 20
8.793049
 30
0.0
 10
24.610613
 20
8.775615
 30
0.0
 10
24.591635
 20
8.761828
 30
0.0
 10
24.570207
 20
8.752289
 30
0.0
 10
24.547266
 20
8.747411
 30
0.0
  0
LWPOLYLINE
  5
18a
100
AcDbEntity
  8
Layer_1
 62
7
100
AcDbPolyline
 90
24
 70
1
 10
26.478034
 20
9.869109
 30
0.0
 10
26.488007
 20
9.876353
 30
0.0
 10
26.524377
 20
9.916746
 30
0.0
 10
26.551558
 20
9.963822
 30
0.0
 10
26.568353
 20
10.015514
 30
0.0
 10
26.574034
 20
10.069569
 30
0.0
 10
26.568353
 20
10.123628
 30
0.0
 10
26.551558
 20
10.175321
 30
0.0
 10
26.524377
 20
10.222396
 30
0.0
 10
26.488007
 20
10.262789
 30
0.0
 10
26.444034
 20
10.294738
 30
0.0
 10
26.394377
 20
10.316845
 30
0.0
 10
26.341211
 20
10.328148
 30
0.0
 10
26.286857
 20
10.328148
 30
0.0
 10
26.233687
 20
10.316845
 30
0.0
 10
26.184034
 20
10.294738
 30
0.0
 10
26.140061
 20
10.262789
 30
0.0
 10
26.103687
 20
10.222396
 30
0.0
 10
26.076510
 20
10.175321
 30
0.0
 10
26.059716
 20
10.123628
 30
0.0
 10
26.056306
 20
10.091171
 30
0.0
 10
25.258033
 20
10.091171
 30
0.0
 10
25.258033
 20
8.819172
 30
0.0
 10
26.478034
 20
8.819172
 30
0.0
  0
LWPOLYLINE
  5
18b
100
AcDbEntity
  8
Layer_1
 62
7
100
AcDbPolyline
 90
30
 70
1
 10
26.302306
 20
9.957987
 30
0.0
 10
26.279361
 20
9.962864
 30
0.0
 10
26.257932
 20
9.972404
 30
0.0
 10
26.238959
 20
9.986191
 30
0.0
 10
26.223263
 20
10.003620
 30
0.0
 10
26.211534
 20
10.023935
 30
0.0
 10
26.204286
 20
10.046242
 30
0.0
 10
26.201833
 20
10.069569
 30
0.0
 10
26.204286
 20
10.092899
 30
0.0
 10
26.211534
 20
10.115207
 30
0.0
 10
26.223263
 20
10.135522
 30
0.0
 10
26.238959
 20
10.152951
 30
0.0
 10
26.257932
 20
10.166738
 30
0.0
 10
26.279361
 20
10.176282
 30
0.0
 10
26.302306
 20
10.181156
 30
0.0
 10
26.325762
 20
10.181156
 30
0.0
 10
26.348703
 20
10.176282
 30
0.0
 10
26.370132
 20
10.166738
 30
0.0
 10
26.389109
 20
10.152951
 30
0.0
 10
26.404806
 20
10.135522
 30
0.0
 10
26.416534
 20
10.115207
 30
0.0
 10
26.423782
 20
10.092899
 30
0.0
 10
26.426234
 20
10.069569
 30
0.0
 10
26.423782
 20
10.046242
 30
0.0
 10
26.416534
 20
10.023935
 30
0.0
 10
26.404806
 20
10.003620
 30
0.0
 10
26.389109
 20
9.986191
 30
0.0
 10
26.370132
 20
9.972404
 30
0.0
 10
26.348703
 20
9.962864
 30
0.0
 10
26.325762
 20
9.957987
 30
0.0
  0
LWPOLYLINE
  5
18c
100
AcDbEntity
  8
Layer_1
 62
7
100
AcDbPolyline
 90
30
 70
1
 10
25.651903
 20
9.672384
 30
0.0
 10
25.628961
 20
9.677262
 30
0.0
 10
25.607533
 20
9.686802
 30
0.0
 10
25.588556
 20
9.700589
 30
0.0
 10
25.572861
 20
9.718022
 30
0.0
 10
25.561133
 20
9.738337
 30
0.0
 10
25.553885
 20
9.760644
 30
0.0
 10
25.551433
 20
9.783970
 30
0.0
 10
25.553885
 20
9.807297
 30
0.0
 10
25.561133
 20
9.829609
 30
0.0
 10
25.572861
 20
9.849919
 30
0.0
 10
25.588556
 20
9.867353
 30
0.0
 10
25.607533
 20
9.881140
 30
0.0
 10
25.628961
 20
9.890680
 30
0.0
 10
25.651903
 20
9.895558
 30
0.0
 10
25.675360
 20
9.895558
 30
0.0
 10
25.698306
 20
9.890680
 30
0.0
 10
25.719734
 20
9.881140
 30
0.0
 10
25.738710
 20
9.867353
 30
0.0
 10
25.754404
 20
9.849919
 30
0.0
 10
25.766131
 20
9.829609
 30
0.0
 10
25.773380
 20
9.807297
 30
0.0
 10
25.775833
 20
9.783970
 30
0.0
 10
25.773380
 20
9.760644
 30
0.0
 10
25.766131
 20
9.738337
 30
0.0
 10
25.754404
 20
9.718022
 30
0.0
 10
25.738710
 20
9.700589
 30
0.0
 10
25.719734
 20
9.686802
 30
0.0
 10
25.698306
 20
9.677262
 30
0.0
 10
25.675360
 20
9.672384
 30
0.0
  0
LWPOLYLINE
  5
18d
100
AcDbEntity
  8
Layer_1
 62
7
100
AcDbPolyline
 90
30
 70
1
 10
26.311566
 20
9.132779
 30
0.0
 10
26.292649
 20
9.136799
 30
0.0
 10
26.274983
 20
9.144665
 30
0.0
 10
26.259342
 20
9.156030
 30
0.0
 10
26.246401
 20
9.170401
 30
0.0
 10
26.236731
 20
9.187148
 30
0.0
 10
26.230755
 20
9.205540
 30
0.0
 10
26.228735
 20
9.224771
 30
0.0
 10
26.230755
 20
9.244003
 30
0.0
 10
26.236731
 20
9.262397
 30
0.0
 10
26.246401
 20
9.279140
 30
0.0
 10
26.259342
 20
9.293510
 30
0.0
 10
26.274983
 20
9.304880
 30
0.0
 10
26.292649
 20
9.312743
 30
0.0
 10
26.311566
 20
9.316767
 30
0.0
 10
26.330904
 20
9.316767
 30
0.0
 10
26.349818
 20
9.312743
 30
0.0
 10
26.367483
 20
9.304880
 30
0.0
 10
26.383129
 20
9.293510
 30
0.0
 10
26.396070
 20
9.279140
 30
0.0
 10
26.405735
 20
9.262397
 30
0.0
 10
26.411711
 20
9.244003
 30
0.0
 10
26.413734
 20
9.224771
 30
0.0
 10
26.411711
 20
9.205540
 30
0.0
 10
26.405735
 20
9.187148
 30
0.0
 10
26.396070
 20
9.170401
 30
0.0
 10
26.383129
 20
9.156030
 30
0.0
 10
26.367483
 20
9.144665
 30
0.0
 10
26.349818
 20
9.136799
 30
0.0
 10
26.330904
 20
9.132779
 30
0.0
  0
LWPOLYLINE
  5
18e
100
AcDbEntity
  8
Layer_1
 62
7
100
AcDbPolyline
 90
5
 70
1
 10
29.691836
 20
12.022463
 30
0.0
 10
28.680426
 20
12.022463
 30
0.0
 10
28.077625
 20
10.958050
 30
0.0
 10
28.077625
 20
9.591117
 30
0.0
 10
29.691836
 20
9.591117
 30
0.0
  0
LWPOLYLINE
  5
18f
100
AcDbEntity
  8
Layer_1
 62
7
100
AcDbPolyline
 90
30
 70
1
 10
29.489239
 20
11.549131
 30
0.0
 10
29.472800
 20
11.552684
 30
0.0
 10
29.457442
 20
11.559637
 30
0.0
 10
29.443843
 20
11.569713
 30
0.0
 10
29.432596
 20
11.582446
 30
0.0
 10
29.424190
 20
11.597287
 30
0.0
 10
29.418997
 20
11.613613
 30
0.0
 10
29.417239
 20
11.630642
 30
0.0
 10
29.418997
 20
11.647671
 30
0.0
 10
29.424190
 20
11.663997
 30
0.0
 10
29.432596
 20
11.678838
 30
0.0
 10
29.443843
 20
11.691571
 30
0.0
 10
29.457442
 20
11.701648
 30
0.0
 10
29.472800
 20
11.708600
 30
0.0
 10
29.489239
 20
11.712153
 30
0.0
 10
29.506052
 20
11.712153
 30
0.0
 10
29.522491
 20
11.708600
 30
0.0
 10
29.537849
 20
11.701648
 30
0.0
 10
29.551449
 20
11.691571
 30
0.0
 10
29.562695
 20
11.678838
 30
0.0
 10
29.571101
 20
11.663997
 30
0.0
 10
29.576294
 20
11.647671
 30
0.0
 10
29.578052
 20
11.630642
 30
0.0
 10
29.576294
 20
11.613613
 30
0.0
 10
29.571101
 20
11.597287
 30
0.0
 10
29.562695
 20
11.582446
 30
0.0
 10
29.551449
 20
11.569713
 30
0.0
 10
29.537849
 20
11.559637
 30
0.0
 10
29.522491
 20
11.552684
 30
0.0
 10
29.506052
 20
11.549131
 30
0.0
  0
LWPOLYLINE
  5
190
100
AcDbEntity
  8
Layer_1
 62
7
100
AcDbPolyline
 90
30
 70
1
 10
28.645724
 20
11.549131
 30
0.0
 10
28.629281
 20
11.552684
 30
0.0
 10
28.613925
 20
11.559637
 30
0.0
 10
28.600326
 20
11.569713
 30
0.0
 10
28.589078
 20
11.582446
 30
0.0
 10
28.580673
 20
11.597287
 30
0.0
 10
28.575478
 20
11.613613
 30
0.0
 10
28.573720
 20
11.630642
 30
0.0
 10
28.575478
 20
11.647671
 30
0.0
 10
28.580673
 20
11.663997
 30
0.0
 10
28.589078
 20
11.678838
 30
0.0
 10
28.600326
 20
11.691571
 30
0.0
 10
28.613925
 20
11.701648
 30
0.0
 10
28.629281
 20
11.708600
 30
0.0
 10
28.645724
 20
11.712153
 30
0.0
 10
28.662533
 20
11.712153
 30
0.0
 10
28.678976
 20
11.708600
 30
0.0
 10
28.694332
 20
11.701648
 30
0.0
 10
28.707931
 20
11.691571
 30
0.0
 10
28.719179
 20
11.678838
 30
0.0
 10
28.727584
 20
11.663997
 30
0.0
 10
28.732779
 20
11.647671
 30
0.0
 10
28.734537
 20
11.630642
 30
0.0
 10
28.732779
 20
11.613613
 30
0.0
 10
28.727584
 20
11.597287
 30
0.0
 10
28.719179
 20
11.582446
 30
0.0
 10
28.707931
 20
11.569713
 30
0.0
 10
28.694332
 20
11.559637
 30
0.0
 10
28.678976
 20
11.552684
 30
0.0
 10
28.662533
 20
11.549131
 30
0.0
  0
LWPOLYLINE
  5
191
100
AcDbEntity
  8
Layer_1
 62
7
100
AcDbPolyline
 90
30
 70
1
 10
29.498730
 20
10.907155
 30
0.0
 10
29.486010
 20
10.909913
 30
0.0
 10
29.474130
 20
10.915303
 30
0.0
 10
29.463611
 20
10.923095
 30
0.0
 10
29.454909
 20
10.932949
 30
0.0
 10
29.448405
 20
10.944428
 30
0.0
 10
29.444386
 20
10.957036
 30
0.0
 10
29.443029
 20
10.970222
 30
0.0
 10
29.444386
 20
10.983407
 30
0.0
 10
29.448405
 20
10.996015
 30
0.0
 10
29.454909
 20
11.007493
 30
0.0
 10
29.463611
 20
11.017347
 30
0.0
 10
29.474130
 20
11.025139
 30
0.0
 10
29.486010
 20
11.030529
 30
0.0
 10
29.498730
 20
11.033287
 30
0.0
 10
29.511731
 20
11.033287
 30
0.0
 10
29.524452
 20
11.030529
 30
0.0
 10
29.536332
 20
11.025139
 30
0.0
 10
29.546850
 20
11.017347
 30
0.0
 10
29.555553
 20
11.007493
 30
0.0
 10
29.562057
 20
10.996015
 30
0.0
 10
29.566071
 20
10.983407
 30
0.0
 10
29.567432
 20
10.970222
 30
0.0
 10
29.566071
 20
10.957036
 30
0.0
 10
29.562057
 20
10.944428
 30
0.0
 10
29.555553
 20
10.932949
 30
0.0
 10
29.546850
 20
10.923095
 30
0.0
 10
29.536332
 20
10.915303
 30
0.0
 10
29.524452
 20
10.909913
 30
0.0
 10
29.511731
 20
10.907155
 30
0.0
  0
LWPOLYLINE
  5
192
100
AcDbEntity
  8
Layer_1
 62
7
100
AcDbPolyline
 90
30
 70
1
 10
28.850569
 20
9.905553
 30
0.0
 10
28.758016
 20
9.925609
 30
0.0
 10
28.671575
 20
9.964846
 30
0.0
 10
28.595026
 20
10.021545
 30
0.0
 10
28.531712
 20
10.093230
 30
0.0
 10
28.484403
 20
10.176769
 30
0.0
 10
28.455164
 20
10.268510
 30
0.0
 10
28.445273
 20
10.364446
 30
0.0
 10
28.455164
 20
10.460381
 30
0.0
 10
28.484403
 20
10.552123
 30
0.0
 10
28.531712
 20
10.635661
 30
0.0
 10
28.595026
 20
10.707347
 30
0.0
 10
28.671575
 20
10.764046
 30
0.0
 10
28.758016
 20
10.803283
 30
0.0
 10
28.850569
 20
10.823338
 30
0.0
 10
28.945190
 20
10.823338
 30
0.0
 10
29.037742
 20
10.803283
 30
0.0
 10
29.124182
 20
10.764046
 30
0.0
 10
29.200730
 20
10.707347
 30
0.0
 10
29.264045
 20
10.635661
 30
0.0
 10
29.311355
 20
10.552123
 30
0.0
 10
29.340593
 20
10.460381
 30
0.0
 10
29.350485
 20
10.364446
 30
0.0
 10
29.340593
 20
10.268510
 30
0.0
 10
29.311355
 20
10.176769
 30
0.0
 10
29.264045
 20
10.093230
 30
0.0
 10
29.200730
 20
10.021545
 30
0.0
 10
29.124182
 20
9.964846
 30
0.0
 10
29.037742
 20
9.925609
 30
0.0
 10
28.945190
 20
9.905553
 30
0.0
  0
LWPOLYLINE
  5
193
100
AcDbEntity
  8
Layer_1
 62
7
100
AcDbPolyline
 90
30
 70
1
 10
28.297679
 20
9.703339
 30
0.0
 10
28.284959
 20
9.706098
 30
0.0
 10
28.273080
 20
9.711488
 30
0.0
 10
28.262560
 20
9.719280
 30
0.0
 10
28.253858
 20
9.729134
 30
0.0
 10
28.247357
 20
9.740613
 30
0.0
 10
28.243339
 20
9.753221
 30
0.0
 10
28.241977
 20
9.766406
 30
0.0
 10
28.243339
 20
9.779592
 30
0.0
 10
28.247357
 20
9.792200
 30
0.0
 10
28.253858
 20
9.803678
 30
0.0
 10
28.262560
 20
9.813532
 30
0.0
 10
28.273080
 20
9.821324
 30
0.0
 10
28.284959
 20
9.826714
 30
0.0
 10
28.297679
 20
9.829472
 30
0.0
 10
28.310683
 20
9.829472
 30
0.0
 10
28.323403
 20
9.826714
 30
0.0
 10
28.335281
 20
9.821324
 30
0.0
 10
28.345802
 20
9.813532
 30
0.0
 10
28.354503
 20
9.803678
 30
0.0
 10
28.361005
 20
9.792200
 30
0.0
 10
28.365023
 20
9.779592
 30
0.0
 10
28.366381
 20
9.766406
 30
0.0
 10
28.365023
 20
9.753221
 30
0.0
 10
28.361005
 20
9.740613
 30
0.0
 10
28.354503
 20
9.729134
 30
0.0
 10
28.345802
 20
9.719280
 30
0.0
 10
28.335281
 20
9.711488
 30
0.0
 10
28.323403
 20
9.706098
 30
0.0
 10
28.310683
 20
9.703339
 30
0.0
  0
LWPOLYLINE
  5
194
100
AcDbEntity
  8
Layer_1
 62
7
100
AcDbPolyline
 90
5
 70
1
 10
18.594368
 20
12.685100
 30
0.0
 10
17.991567
 20
13.749510
 30
0.0
 10
16.980156
 20
13.749510
 30
0.0
 10
16.980156
 20
11.318172
 30
0.0
 10
18.594368
 20
11.318172
 30
0.0
  0
LWPOLYLINE
  5
195
100
AcDbEntity
  8
Layer_1
 62
7
100
AcDbPolyline
 90
30
 70
1
 10
18.009457
 20
13.276180
 30
0.0
 10
17.993018
 20
13.279733
 30
0.0
 10
17.977659
 20
13.286685
 30
0.0
 10
17.964060
 20
13.296762
 30
0.0
 10
17.952814
 20
13.309494
 30
0.0
 10
17.944407
 20
13.324336
 30
0.0
 10
17.939215
 20
13.340662
 30
0.0
 10
17.937456
 20
13.357690
 30
0.0
 10
17.939215
 20
13.374719
 30
0.0
 10
17.944407
 20
13.391045
 30
0.0
 10
17.952814
 20
13.405887
 30
0.0
 10
17.964060
 20
13.418619
 30
0.0
 10
17.977659
 20
13.428696
 30
0.0
 10
17.993018
 20
13.435648
 30
0.0
 10
18.009457
 20
13.439201
 30
0.0
 10
18.026270
 20
13.439201
 30
0.0
 10
18.042709
 20
13.435648
 30
0.0
 10
18.058067
 20
13.428696
 30
0.0
 10
18.071667
 20
13.418619
 30
0.0
 10
18.082912
 20
13.405887
 30
0.0
 10
18.091319
 20
13.391045
 30
0.0
 10
18.096512
 20
13.374719
 30
0.0
 10
18.098271
 20
13.357690
 30
0.0
 10
18.096512
 20
13.340662
 30
0.0
 10
18.091319
 20
13.324336
 30
0.0
 10
18.082912
 20
13.309494
 30
0.0
 10
18.071667
 20
13.296762
 30
0.0
 10
18.058067
 20
13.286685
 30
0.0
 10
18.042709
 20
13.279733
 30
0.0
 10
18.026270
 20
13.276180
 30
0.0
  0
LWPOLYLINE
  5
196
100
AcDbEntity
  8
Layer_1
 62
7
100
AcDbPolyline
 90
30
 70
1
 10
17.165941
 20
13.276180
 30
0.0
 10
17.149501
 20
13.279733
 30
0.0
 10
17.134143
 20
13.286685
 30
0.0
 10
17.120544
 20
13.296762
 30
0.0
 10
17.109298
 20
13.309494
 30
0.0
 10
17.100891
 20
13.324336
 30
0.0
 10
17.095698
 20
13.340662
 30
0.0
 10
17.093940
 20
13.357690
 30
0.0
 10
17.095698
 20
13.374719
 30
0.0
 10
17.100891
 20
13.391045
 30
0.0
 10
17.109298
 20
13.405887
 30
0.0
 10
17.120544
 20
13.418619
 30
0.0
 10
17.134143
 20
13.428696
 30
0.0
 10
17.149501
 20
13.435648
 30
0.0
 10
17.165941
 20
13.439201
 30
0.0
 10
17.182753
 20
13.439201
 30
0.0
 10
17.199193
 20
13.435648
 30
0.0
 10
17.214550
 20
13.428696
 30
0.0
 10
17.228150
 20
13.418619
 30
0.0
 10
17.239396
 20
13.405887
 30
0.0
 10
17.247802
 20
13.391045
 30
0.0
 10
17.252996
 20
13.374719
 30
0.0
 10
17.254754
 20
13.357690
 30
0.0
 10
17.252996
 20
13.340662
 30
0.0
 10
17.247802
 20
13.324336
 30
0.0
 10
17.239396
 20
13.309494
 30
0.0
 10
17.228150
 20
13.296762
 30
0.0
 10
17.214550
 20
13.286685
 30
0.0
 10
17.199193
 20
13.279733
 30
0.0
 10
17.182753
 20
13.276180
 30
0.0
  0
LWPOLYLINE
  5
197
100
AcDbEntity
  8
Layer_1
 62
7
100
AcDbPolyline
 90
30
 70
1
 10
17.160260
 20
12.634206
 30
0.0
 10
17.147541
 20
12.636964
 30
0.0
 10
17.135660
 20
12.642354
 30
0.0
 10
17.125142
 20
12.650146
 30
0.0
 10
17.116440
 20
12.660000
 30
0.0
 10
17.109935
 20
12.671479
 30
0.0
 10
17.105917
 20
12.684086
 30
0.0
 10
17.104559
 20
12.697272
 30
0.0
 10
17.105917
 20
12.710457
 30
0.0
 10
17.109935
 20
12.723065
 30
0.0
 10
17.116440
 20
12.734544
 30
0.0
 10
17.125142
 20
12.744398
 30
0.0
 10
17.135660
 20
12.752190
 30
0.0
 10
17.147541
 20
12.757580
 30
0.0
 10
17.160260
 20
12.760338
 30
0.0
 10
17.173261
 20
12.760338
 30
0.0
 10
17.185982
 20
12.757580
 30
0.0
 10
17.197861
 20
12.752190
 30
0.0
 10
17.208380
 20
12.744398
 30
0.0
 10
17.217082
 20
12.734544
 30
0.0
 10
17.223586
 20
12.723065
 30
0.0
 10
17.227605
 20
12.710457
 30
0.0
 10
17.228962
 20
12.697272
 30
0.0
 10
17.227605
 20
12.684086
 30
0.0
 10
17.223586
 20
12.671479
 30
0.0
 10
17.217082
 20
12.660000
 30
0.0
 10
17.208380
 20
12.650146
 30
0.0
 10
17.197861
 20
12.642354
 30
0.0
 10
17.185982
 20
12.636964
 30
0.0
 10
17.173261
 20
12.634206
 30
0.0
  0
LWPOLYLINE
  5
198
100
AcDbEntity
  8
Layer_1
 62
7
100
AcDbPolyline
 90
30
 70
1
 10
17.726803
 20
11.632608
 30
0.0
 10
17.634251
 20
11.652663
 30
0.0
 10
17.547810
 20
11.691900
 30
0.0
 10
17.471261
 20
11.748599
 30
0.0
 10
17.407948
 20
11.820284
 30
0.0
 10
17.360636
 20
11.903822
 30
0.0
 10
17.331399
 20
11.995563
 30
0.0
 10
17.321507
 20
12.091499
 30
0.0
 10
17.331399
 20
12.187434
 30
0.0
 10
17.360636
 20
12.279175
 30
0.0
 10
17.407948
 20
12.362713
 30
0.0
 10
17.471261
 20
12.434399
 30
0.0
 10
17.547810
 20
12.491097
 30
0.0
 10
17.634251
 20
12.530334
 30
0.0
 10
17.726803
 20
12.550389
 30
0.0
 10
17.821424
 20
12.550389
 30
0.0
 10
17.913976
 20
12.530334
 30
0.0
 10
18.000417
 20
12.491097
 30
0.0
 10
18.076965
 20
12.434399
 30
0.0
 10
18.140279
 20
12.362713
 30
0.0
 10
18.187590
 20
12.279175
 30
0.0
 10
18.216827
 20
12.187434
 30
0.0
 10
18.226720
 20
12.091499
 30
0.0
 10
18.216827
 20
11.995563
 30
0.0
 10
18.187590
 20
11.903822
 30
0.0
 10
18.140279
 20
11.820284
 30
0.0
 10
18.076965
 20
11.748599
 30
0.0
 10
18.000417
 20
11.691900
 30
0.0
 10
17.913976
 20
11.652663
 30
0.0
 10
17.821424
 20
11.632608
 30
0.0
  0
LWPOLYLINE
  5
199
100
AcDbEntity
  8
Layer_1
 62
7
100
AcDbPolyline
 90
30
 70
1
 10
18.361311
 20
11.430395
 30
0.0
 10
18.348591
 20
11.433153
 30
0.0
 10
18.336710
 20
11.438543
 30
0.0
 10
18.326192
 20
11.446335
 30
0.0
 10
18.317490
 20
11.456189
 30
0.0
 10
18.310985
 20
11.467668
 30
0.0
 10
18.306968
 20
11.480275
 30
0.0
 10
18.305609
 20
11.493461
 30
0.0
 10
18.306968
 20
11.506646
 30
0.0
 10
18.310985
 20
11.519254
 30
0.0
 10
18.317490
 20
11.530733
 30
0.0
 10
18.326192
 20
11.540587
 30
0.0
 10
18.336710
 20
11.548379
 30
0.0
 10
18.348591
 20
11.553768
 30
0.0
 10
18.361311
 20
11.556527
 30
0.0
 10
18.374311
 20
11.556527
 30
0.0
 10
18.387032
 20
11.553768
 30
0.0
 10
18.398912
 20
11.548379
 30
0.0
 10
18.409431
 20
11.540587
 30
0.0
 10
18.418133
 20
11.530733
 30
0.0
 10
18.424637
 20
11.519254
 30
0.0
 10
18.428655
 20
11.506646
 30
0.0
 10
18.430014
 20
11.493461
 30
0.0
 10
18.428655
 20
11.480275
 30
0.0
 10
18.424637
 20
11.467668
 30
0.0
 10
18.418133
 20
11.456189
 30
0.0
 10
18.409431
 20
11.446335
 30
0.0
 10
18.398912
 20
11.438543
 30
0.0
 10
18.387032
 20
11.433153
 30
0.0
 10
18.374311
 20
11.430395
 30
0.0
  0
LWPOLYLINE
  5
19a
100
AcDbEntity
  8
Layer_1
 62
7
100
AcDbPolyline
 90
10
 70
1
 10
24.356700
 20
11.072445
 30
0.0
 10
24.356700
 20
11.266857
 30
0.0
 10
26.314366
 20
11.266857
 30
0.0
 10
26.314366
 20
11.072445
 30
0.0
 10
26.784205
 20
11.072445
 30
0.0
 10
26.784205
 20
9.905975
 30
0.0
 10
27.097432
 20
9.905975
 30
0.0
 10
27.097432
 20
11.461269
 30
0.0
 10
23.573634
 20
11.461269
 30
0.0
 10
23.573634
 20
11.072445
 30
0.0
  0
LWPOLYLINE
  5
19b
100
AcDbEntity
  8
Layer_1
 62
7
100
AcDbPolyline
 90
30
 70
1
 10
26.886318
 20
10.300487
 30
0.0
 10
26.888705
 20
10.311619
 30
0.0
 10
26.893365
 20
10.322016
 30
0.0
 10
26.900099
 20
10.331223
 30
0.0
 10
26.908596
 20
10.338836
 30
0.0
 10
26.918541
 20
10.344529
 30
0.0
 10
26.929425
 20
10.348044
 30
0.0
 10
26.940819
 20
10.349233
 30
0.0
 10
26.952212
 20
10.348044
 30
0.0
 10
26.963097
 20
10.344529
 30
0.0
 10
26.973042
 20
10.338836
 30
0.0
 10
26.981539
 20
10.331223
 30
0.0
 10
26.988273
 20
10.322016
 30
0.0
 10
26.992932
 20
10.311619
 30
0.0
 10
26.995320
 20
10.300487
 30
0.0
 10
26.995320
 20
10.289110
 30
0.0
 10
26.992932
 20
10.277978
 30
0.0
 10
26.988273
 20
10.267581
 30
0.0
 10
26.981539
 20
10.258373
 30
0.0
 10
26.973042
 20
10.250760
 30
0.0
 10
26.963097
 20
10.245068
 30
0.0
 10
26.952212
 20
10.241553
 30
0.0
 10
26.940819
 20
10.240363
 30
0.0
 10
26.929425
 20
10.241553
 30
0.0
 10
26.918541
 20
10.245068
 30
0.0
 10
26.908596
 20
10.250760
 30
0.0
 10
26.900099
 20
10.258373
 30
0.0
 10
26.893365
 20
10.267581
 30
0.0
 10
26.888705
 20
10.277978
 30
0.0
 10
26.886318
 20
10.289110
 30
0.0
  0
LWPOLYLINE
  5
19c
100
AcDbEntity
  8
Layer_1
 62
7
100
AcDbPolyline
 90
30
 70
1
 10
26.651398
 20
11.272546
 30
0.0
 10
26.653786
 20
11.283678
 30
0.0
 10
26.658445
 20
11.294075
 30
0.0
 10
26.665179
 20
11.303282
 30
0.0
 10
26.673676
 20
11.310895
 30
0.0
 10
26.683621
 20
11.316588
 30
0.0
 10
26.694505
 20
11.320103
 30
0.0
 10
26.705899
 20
11.321293
 30
0.0
 10
26.717293
 20
11.320103
 30
0.0
 10
26.728177
 20
11.316588
 30
0.0
 10
26.738122
 20
11.310895
 30
0.0
 10
26.746619
 20
11.303282
 30
0.0
 10
26.753353
 20
11.294075
 30
0.0
 10
26.758011
 20
11.283678
 30
0.0
 10
26.760400
 20
11.272546
 30
0.0
 10
26.760400
 20
11.261169
 30
0.0
 10
26.758011
 20
11.250037
 30
0.0
 10
26.753353
 20
11.239640
 30
0.0
 10
26.746619
 20
11.230432
 30
0.0
 10
26.738122
 20
11.222819
 30
0.0
 10
26.728177
 20
11.217127
 30
0.0
 10
26.717293
 20
11.213612
 30
0.0
 10
26.705899
 20
11.212422
 30
0.0
 10
26.694505
 20
11.213612
 30
0.0
 10
26.683621
 20
11.217127
 30
0.0
 10
26.673676
 20
11.222819
 30
0.0
 10
26.665179
 20
11.230432
 30
0.0
 10
26.658445
 20
11.239640
 30
0.0
 10
26.653786
 20
11.250037
 30
0.0
 10
26.651398
 20
11.261169
 30
0.0
  0
LWPOLYLINE
  5
19d
100
AcDbEntity
  8
Layer_1
 62
7
100
AcDbPolyline
 90
30
 70
1
 10
23.910654
 20
11.272546
 30
0.0
 10
23.913035
 20
11.283678
 30
0.0
 10
23.917698
 20
11.294075
 30
0.0
 10
23.924432
 20
11.303282
 30
0.0
 10
23.932948
 20
11.310895
 30
0.0
 10
23.942874
 20
11.316588
 30
0.0
 10
23.953770
 20
11.320103
 30
0.0
 10
23.965168
 20
11.321293
 30
0.0
 10
23.976566
 20
11.320103
 30
0.0
 10
23.987461
 20
11.316588
 30
0.0
 10
23.997386
 20
11.310895
 30
0.0
 10
24.005903
 20
11.303282
 30
0.0
 10
24.012637
 20
11.294075
 30
0.0
 10
24.017300
 20
11.283678
 30
0.0
 10
24.019680
 20
11.272546
 30
0.0
 10
24.019680
 20
11.261169
 30
0.0
 10
24.017300
 20
11.250037
 30
0.0
 10
24.012637
 20
11.239640
 30
0.0
 10
24.005903
 20
11.230432
 30
0.0
 10
23.997386
 20
11.222819
 30
0.0
 10
23.987461
 20
11.217127
 30
0.0
 10
23.976566
 20
11.213612
 30
0.0
 10
23.965168
 20
11.212422
 30
0.0
 10
23.953770
 20
11.213612
 30
0.0
 10
23.942874
 20
11.217127
 30
0.0
 10
23.932948
 20
11.222819
 30
0.0
 10
23.924432
 20
11.230432
 30
0.0
 10
23.917698
 20
11.239640
 30
0.0
 10
23.913035
 20
11.250037
 30
0.0
 10
23.910654
 20
11.261169
 30
0.0
  0
LWPOLYLINE
  5
19e
100
AcDbEntity
  8
Layer_1
 62
7
100
AcDbPolyline
 90
10
 70
1
 10
22.809051
 20
12.100315
 30
0.0
 10
22.809051
 20
11.905903
 30
0.0
 10
20.851385
 20
11.905903
 30
0.0
 10
20.851385
 20
12.100315
 30
0.0
 10
20.381546
 20
12.100315
 30
0.0
 10
20.381546
 20
13.266786
 30
0.0
 10
20.068319
 20
13.266786
 30
0.0
 10
20.068319
 20
11.711491
 30
0.0
 10
23.592118
 20
11.711491
 30
0.0
 10
23.592118
 20
12.100315
 30
0.0
  0
LWPOLYLINE
  5
19f
100
AcDbEntity
  8
Layer_1
 62
7
100
AcDbPolyline
 90
30
 70
1
 10
20.279433
 20
12.872273
 30
0.0
 10
20.277046
 20
12.861141
 30
0.0
 10
20.272386
 20
12.850744
 30
0.0
 10
20.265652
 20
12.841537
 30
0.0
 10
20.257155
 20
12.833923
 30
0.0
 10
20.247210
 20
12.828232
 30
0.0
 10
20.236326
 20
12.824716
 30
0.0
 10
20.224932
 20
12.823527
 30
0.0
 10
20.213539
 20
12.824716
 30
0.0
 10
20.202654
 20
12.828232
 30
0.0
 10
20.192709
 20
12.833923
 30
0.0
 10
20.184214
 20
12.841537
 30
0.0
 10
20.177478
 20
12.850744
 30
0.0
 10
20.172820
 20
12.861141
 30
0.0
 10
20.170431
 20
12.872273
 30
0.0
 10
20.170431
 20
12.883651
 30
0.0
 10
20.172820
 20
12.894783
 30
0.0
 10
20.177478
 20
12.905180
 30
0.0
 10
20.184214
 20
12.914387
 30
0.0
 10
20.192709
 20
12.922001
 30
0.0
 10
20.202654
 20
12.927692
 30
0.0
 10
20.213539
 20
12.931208
 30
0.0
 10
20.224932
 20
12.932397
 30
0.0
 10
20.236326
 20
12.931208
 30
0.0
 10
20.247210
 20
12.927692
 30
0.0
 10
20.257155
 20
12.922001
 30
0.0
 10
20.265652
 20
12.914387
 30
0.0
 10
20.272386
 20
12.905180
 30
0.0
 10
20.277046
 20
12.894783
 30
0.0
 10
20.279433
 20
12.883651
 30
0.0
  0
LWPOLYLINE
  5
1a0
100
AcDbEntity
  8
Layer_1
 62
7
100
AcDbPolyline
 90
30
 70
1
 10
20.514353
 20
11.900214
 30
0.0
 10
20.511966
 20
11.889083
 30
0.0
 10
20.507306
 20
11.878685
 30
0.0
 10
20.500572
 20
11.869478
 30
0.0
 10
20.492076
 20
11.861865
 30
0.0
 10
20.482130
 20
11.856172
 30
0.0
 10
20.471246
 20
11.852658
 30
0.0
 10
20.459852
 20
11.851467
 30
0.0
 10
20.448458
 20
11.852658
 30
0.0
 10
20.437574
 20
11.856172
 30
0.0
 10
20.427629
 20
11.861865
 30
0.0
 10
20.419133
 20
11.869478
 30
0.0
 10
20.412399
 20
11.878685
 30
0.0
 10
20.407740
 20
11.889083
 30
0.0
 10
20.405351
 20
11.900214
 30
0.0
 10
20.405351
 20
11.911591
 30
0.0
 10
20.407740
 20
11.922723
 30
0.0
 10
20.412399
 20
11.933120
 30
0.0
 10
20.419133
 20
11.942328
 30
0.0
 10
20.427629
 20
11.949941
 30
0.0
 10
20.437574
 20
11.955634
 30
0.0
 10
20.448458
 20
11.959148
 30
0.0
 10
20.459852
 20
11.960338
 30
0.0
 10
20.471246
 20
11.959148
 30
0.0
 10
20.482130
 20
11.955634
 30
0.0
 10
20.492076
 20
11.949941
 30
0.0
 10
20.500572
 20
11.942328
 30
0.0
 10
20.507306
 20
11.933120
 30
0.0
 10
20.511966
 20
11.922723
 30
0.0
 10
20.514353
 20
11.911591
 30
0.0
  0
LWPOLYLINE
  5
1a1
100
AcDbEntity
  8
Layer_1
 62
7
100
AcDbPolyline
 90
30
 70
1
 10
23.255098
 20
11.900214
 30
0.0
 10
23.252717
 20
11.889083
 30
0.0
 10
23.248053
 20
11.878685
 30
0.0
 10
23.241319
 20
11.869478
 30
0.0
 10
23.232803
 20
11.861865
 30
0.0
 10
23.222877
 20
11.856172
 30
0.0
 10
23.211981
 20
11.852658
 30
0.0
 10
23.200583
 20
11.851467
 30
0.0
 10
23.189186
 20
11.852658
 30
0.0
 10
23.178290
 20
11.856172
 30
0.0
 10
23.168365
 20
11.861865
 30
0.0
 10
23.159849
 20
11.869478
 30
0.0
 10
23.153115
 20
11.878685
 30
0.0
 10
23.148451
 20
11.889083
 30
0.0
 10
23.146071
 20
11.900214
 30
0.0
 10
23.146071
 20
11.911591
 30
0.0
 10
23.148451
 20
11.922723
 30
0.0
 10
23.153115
 20
11.933120
 30
0.0
 10
23.159849
 20
11.942328
 30
0.0
 10
23.168365
 20
11.949941
 30
0.0
 10
23.178290
 20
11.955634
 30
0.0
 10
23.189186
 20
11.959148
 30
0.0
 10
23.200583
 20
11.960338
 30
0.0
 10
23.211981
 20
11.959148
 30
0.0
 10
23.222877
 20
11.955634
 30
0.0
 10
23.232803
 20
11.949941
 30
0.0
 10
23.241319
 20
11.942328
 30
0.0
 10
23.248053
 20
11.933120
 30
0.0
 10
23.252717
 20
11.922723
 30
0.0
 10
23.255098
 20
11.911591
 30
0.0
  0
LWPOLYLINE
  5
1a2
100
AcDbEntity
  8
Layer_1
 62
7
100
AcDbPolyline
 90
10
 70
1
 10
25.089771
 20
12.256071
 30
0.0
 10
25.089771
 20
12.450484
 30
0.0
 10
27.047436
 20
12.450484
 30
0.0
 10
27.047436
 20
12.256071
 30
0.0
 10
27.517276
 20
12.256071
 30
0.0
 10
27.517276
 20
11.089600
 30
0.0
 10
27.830503
 20
11.089600
 30
0.0
 10
27.830503
 20
12.644895
 30
0.0
 10
24.306704
 20
12.644895
 30
0.0
 10
24.306704
 20
12.256071
 30
0.0
  0
LWPOLYLINE
  5
1a3
100
AcDbEntity
  8
Layer_1
 62
7
100
AcDbPolyline
 90
30
 70
1
 10
27.619389
 20
11.484113
 30
0.0
 10
27.621776
 20
11.495245
 30
0.0
 10
27.626435
 20
11.505642
 30
0.0
 10
27.633170
 20
11.514849
 30
0.0
 10
27.641666
 20
11.522463
 30
0.0
 10
27.651611
 20
11.528155
 30
0.0
 10
27.662496
 20
11.531670
 30
0.0
 10
27.673890
 20
11.532860
 30
0.0
 10
27.685283
 20
11.531670
 30
0.0
 10
27.696168
 20
11.528155
 30
0.0
 10
27.706112
 20
11.522463
 30
0.0
 10
27.714608
 20
11.514849
 30
0.0
 10
27.721344
 20
11.505642
 30
0.0
 10
27.726002
 20
11.495245
 30
0.0
 10
27.728391
 20
11.484113
 30
0.0
 10
27.728391
 20
11.472736
 30
0.0
 10
27.726002
 20
11.461603
 30
0.0
 10
27.721344
 20
11.451207
 30
0.0
 10
27.714608
 20
11.441999
 30
0.0
 10
27.706112
 20
11.434386
 30
0.0
 10
27.696168
 20
11.428694
 30
0.0
 10
27.685283
 20
11.425178
 30
0.0
 10
27.673890
 20
11.423989
 30
0.0
 10
27.662496
 20
11.425178
 30
0.0
 10
27.651611
 20
11.428694
 30
0.0
 10
27.641666
 20
11.434386
 30
0.0
 10
27.633170
 20
11.441999
 30
0.0
 10
27.626435
 20
11.451207
 30
0.0
 10
27.621776
 20
11.461603
 30
0.0
 10
27.619389
 20
11.472736
 30
0.0
  0
LWPOLYLINE
  5
1a4
100
AcDbEntity
  8
Layer_1
 62
7
100
AcDbPolyline
 90
30
 70
1
 10
27.384468
 20
12.456172
 30
0.0
 10
27.386856
 20
12.467303
 30
0.0
 10
27.391516
 20
12.477701
 30
0.0
 10
27.398250
 20
12.486909
 30
0.0
 10
27.406746
 20
12.494521
 30
0.0
 10
27.416692
 20
12.500214
 30
0.0
 10
27.427576
 20
12.503728
 30
0.0
 10
27.438970
 20
12.504919
 30
0.0
 10
27.450364
 20
12.503728
 30
0.0
 10
27.461248
 20
12.500214
 30
0.0
 10
27.471193
 20
12.494521
 30
0.0
 10
27.479689
 20
12.486909
 30
0.0
 10
27.486423
 20
12.477701
 30
0.0
 10
27.491082
 20
12.467303
 30
0.0
 10
27.493471
 20
12.456172
 30
0.0
 10
27.493471
 20
12.444795
 30
0.0
 10
27.491082
 20
12.433663
 30
0.0
 10
27.486423
 20
12.423266
 30
0.0
 10
27.479689
 20
12.414059
 30
0.0
 10
27.471193
 20
12.406445
 30
0.0
 10
27.461248
 20
12.400752
 30
0.0
 10
27.450364
 20
12.397238
 30
0.0
 10
27.438970
 20
12.396048
 30
0.0
 10
27.427576
 20
12.397238
 30
0.0
 10
27.416692
 20
12.400752
 30
0.0
 10
27.406746
 20
12.406445
 30
0.0
 10
27.398250
 20
12.414059
 30
0.0
 10
27.391516
 20
12.423266
 30
0.0
 10
27.386856
 20
12.433663
 30
0.0
 10
27.384468
 20
12.444795
 30
0.0
  0
LWPOLYLINE
  5
1a5
100
AcDbEntity
  8
Layer_1
 62
7
100
AcDbPolyline
 90
30
 70
1
 10
24.643724
 20
12.456172
 30
0.0
 10
24.646105
 20
12.467303
 30
0.0
 10
24.650769
 20
12.477701
 30
0.0
 10
24.657503
 20
12.486909
 30
0.0
 10
24.666019
 20
12.494521
 30
0.0
 10
24.675944
 20
12.500214
 30
0.0
 10
24.686841
 20
12.503728
 30
0.0
 10
24.698239
 20
12.504919
 30
0.0
 10
24.709635
 20
12.503728
 30
0.0
 10
24.720532
 20
12.500214
 30
0.0
 10
24.730457
 20
12.494521
 30
0.0
 10
24.738973
 20
12.486909
 30
0.0
 10
24.745707
 20
12.477701
 30
0.0
 10
24.750371
 20
12.467303
 30
0.0
 10
24.752751
 20
12.456172
 30
0.0
 10
24.752751
 20
12.444795
 30
0.0
 10
24.750371
 20
12.433663
 30
0.0
 10
24.745707
 20
12.423266
 30
0.0
 10
24.738973
 20
12.414059
 30
0.0
 10
24.730457
 20
12.406445
 30
0.0
 10
24.720532
 20
12.400752
 30
0.0
 10
24.709635
 20
12.397238
 30
0.0
 10
24.698239
 20
12.396048
 30
0.0
 10
24.686841
 20
12.397238
 30
0.0
 10
24.675944
 20
12.400752
 30
0.0
 10
24.666019
 20
12.406445
 30
0.0
 10
24.657503
 20
12.414059
 30
0.0
 10
24.650769
 20
12.423266
 30
0.0
 10
24.646105
 20
12.433663
 30
0.0
 10
24.643724
 20
12.444795
 30
0.0
  0
LWPOLYLINE
  5
1a6
100
AcDbEntity
  8
Layer_1
 62
7
100
AcDbPolyline
 90
10
 70
1
 10
22.192332
 20
11.415924
 30
0.0
 10
22.192332
 20
11.221512
 30
0.0
 10
20.234667
 20
11.221512
 30
0.0
 10
20.234667
 20
11.415924
 30
0.0
 10
19.764827
 20
11.415924
 30
0.0
 10
19.764827
 20
12.582395
 30
0.0
 10
19.451600
 20
12.582395
 30
0.0
 10
19.451600
 20
11.027100
 30
0.0
 10
22.975399
 20
11.027100
 30
0.0
 10
22.975399
 20
11.415924
 30
0.0
  0
LWPOLYLINE
  5
1a7
100
AcDbEntity
  8
Layer_1
 62
7
100
AcDbPolyline
 90
30
 70
1
 10
19.662715
 20
12.187883
 30
0.0
 10
19.660327
 20
12.176750
 30
0.0
 10
19.655668
 20
12.166353
 30
0.0
 10
19.648933
 20
12.157146
 30
0.0
 10
19.640436
 20
12.149533
 30
0.0
 10
19.630492
 20
12.143841
 30
0.0
 10
19.619607
 20
12.140325
 30
0.0
 10
19.608214
 20
12.139136
 30
0.0
 10
19.596820
 20
12.140325
 30
0.0
 10
19.585935
 20
12.143841
 30
0.0
 10
19.575991
 20
12.149533
 30
0.0
 10
19.567495
 20
12.157146
 30
0.0
 10
19.560759
 20
12.166353
 30
0.0
 10
19.556101
 20
12.176750
 30
0.0
 10
19.553712
 20
12.187883
 30
0.0
 10
19.553712
 20
12.199260
 30
0.0
 10
19.556101
 20
12.210392
 30
0.0
 10
19.560759
 20
12.220789
 30
0.0
 10
19.567495
 20
12.229996
 30
0.0
 10
19.575991
 20
12.237610
 30
0.0
 10
19.585935
 20
12.243301
 30
0.0
 10
19.596820
 20
12.246817
 30
0.0
 10
19.608214
 20
12.248007
 30
0.0
 10
19.619607
 20
12.246817
 30
0.0
 10
19.630492
 20
12.243301
 30
0.0
 10
19.640436
 20
12.237610
 30
0.0
 10
19.648933
 20
12.229996
 30
0.0
 10
19.655668
 20
12.220789
 30
0.0
 10
19.660327
 20
12.210392
 30
0.0
 10
19.662715
 20
12.199260
 30
0.0
  0
LWPOLYLINE
  5
1a8
100
AcDbEntity
  8
Layer_1
 62
7
100
AcDbPolyline
 90
30
 70
1
 10
19.897635
 20
11.215823
 30
0.0
 10
19.895247
 20
11.204692
 30
0.0
 10
19.890588
 20
11.194294
 30
0.0
 10
19.883853
 20
11.185087
 30
0.0
 10
19.875357
 20
11.177474
 30
0.0
 10
19.865411
 20
11.171782
 30
0.0
 10
19.854527
 20
11.168267
 30
0.0
 10
19.843133
 20
11.167076
 30
0.0
 10
19.831740
 20
11.168267
 30
0.0
 10
19.820855
 20
11.171782
 30
0.0
 10
19.810910
 20
11.177474
 30
0.0
 10
19.802415
 20
11.185087
 30
0.0
 10
19.795680
 20
11.194294
 30
0.0
 10
19.791021
 20
11.204692
 30
0.0
 10
19.788632
 20
11.215823
 30
0.0
 10
19.788632
 20
11.227200
 30
0.0
 10
19.791021
 20
11.238333
 30
0.0
 10
19.795680
 20
11.248730
 30
0.0
 10
19.802415
 20
11.257937
 30
0.0
 10
19.810910
 20
11.265550
 30
0.0
 10
19.820855
 20
11.271243
 30
0.0
 10
19.831740
 20
11.274758
 30
0.0
 10
19.843133
 20
11.275947
 30
0.0
 10
19.854527
 20
11.274758
 30
0.0
 10
19.865411
 20
11.271243
 30
0.0
 10
19.875357
 20
11.265550
 30
0.0
 10
19.883853
 20
11.257937
 30
0.0
 10
19.890588
 20
11.248730
 30
0.0
 10
19.895247
 20
11.238333
 30
0.0
 10
19.897635
 20
11.227200
 30
0.0
  0
LWPOLYLINE
  5
1a9
100
AcDbEntity
  8
Layer_1
 62
7
100
AcDbPolyline
 90
30
 70
1
 10
22.638379
 20
11.215823
 30
0.0
 10
22.635998
 20
11.204692
 30
0.0
 10
22.631334
 20
11.194294
 30
0.0
 10
22.624600
 20
11.185087
 30
0.0
 10
22.616084
 20
11.177474
 30
0.0
 10
22.606158
 20
11.171782
 30
0.0
 10
22.595263
 20
11.168267
 30
0.0
 10
22.583865
 20
11.167076
 30
0.0
 10
22.572468
 20
11.168267
 30
0.0
 10
22.561571
 20
11.171782
 30
0.0
 10
22.551646
 20
11.177474
 30
0.0
 10
22.543130
 20
11.185087
 30
0.0
 10
22.536396
 20
11.194294
 30
0.0
 10
22.531732
 20
11.204692
 30
0.0
 10
22.529352
 20
11.215823
 30
0.0
 10
22.529352
 20
11.227200
 30
0.0
 10
22.531732
 20
11.238333
 30
0.0
 10
22.536396
 20
11.248730
 30
0.0
 10
22.543130
 20
11.257937
 30
0.0
 10
22.551646
 20
11.265550
 30
0.0
 10
22.561571
 20
11.271243
 30
0.0
 10
22.572468
 20
11.274758
 30
0.0
 10
22.583865
 20
11.275947
 30
0.0
 10
22.595263
 20
11.274758
 30
0.0
 10
22.606158
 20
11.271243
 30
0.0
 10
22.616084
 20
11.265550
 30
0.0
 10
22.624600
 20
11.257937
 30
0.0
 10
22.631334
 20
11.248730
 30
0.0
 10
22.635998
 20
11.238333
 30
0.0
 10
22.638379
 20
11.227200
 30
0.0
  0
ENDSEC
  0
SECTION
  2
OBJECTS
  0
DICTIONARY
  5
C
330
0
100
AcDbDictionary
  3
ACAD_GROUP
350
D
  3
ACAD_MLINESTYLE
350
17
  0
DICTIONARY
  5
D
330
C
100
AcDbDictionary
  0
DICTIONARY
  5
1A
330
C
100
AcDbDictionary
  0
DICTIONARY
  5
17
330
C
100
AcDbDictionary
  3
STANDARD
350
18
  0
DICTIONARY
  5
19
330
C
100
AcDbDictionary
  0
ENDSEC
  0
EOF
