  0
SECTION
  2
HEADER
  9
$ACADVER
  1
AC1014
  9
$HANDSEED
  5
FFFF
  9
$MEASUREMENT
 70
     1
  0
ENDSEC
  0
SECTION
  2
TABLES
  0
TABLE
  2
VPORT
  5
8
330
0
100
AcDbSymbolTable
 70
     4
  0
VPORT
  5
2E
330
8
100
AcDbSymbolTableRecord
100
AcDbViewportTableRecord
  2
*ACTIVE
 70
     0
 10
0.0
 20
0.0
 11
1.0
 21
1.0
 12
210.0
 22
148.5
 13
0.0
 23
0.0
 14
10.0
 24
10.0
 15
10.0
 25
10.0
 16
0.0
 26
0.0
 36
1.0
 17
0.0
 27
0.0
 37
0.0
 40
341.0
 41
1.24
 42
50.0
 43
0.0
 44
0.0
 50
0.0
 51
0.0
 71
     0
 72
   100
 73
     1
 74
     3
 75
     0
 76
     0
 77
     0
 78
     0
  0
ENDTAB
  0
TABLE
  2
LTYPE
  5
5
330
0
100
AcDbSymbolTable
 70
     1
  0
LTYPE
  5
14
330
5
100
AcDbSymbolTableRecord
100
AcDbLinetypeTableRecord
  2
BYBLOCK
 70
     0
  3

 72
    65
 73
     0
 40
0.0
  0
LTYPE
  5
15
330
5
100
AcDbSymbolTableRecord
100
AcDbLinetypeTableRecord
  2
BYLAYER
 70
     0
  3

 72
    65
 73
     0
 40
0.0
  0
LTYPE
  5
16
330
5
100
AcDbSymbolTableRecord
100
AcDbLinetypeTableRecord
  2
CONTINUOUS
 70
     0
  3
Solid line
 72
    65
 73
     0
 40
0.0
  0
ENDTAB
  0
TABLE
  2
LAYER
  5
2
100
AcDbSymbolTable
 70
2
  0
LAYER
  5
50
100
AcDbSymbolTableRecord
100
AcDbLayerTableRecord
  2
0
 70
0
  6
CONTINUOUS
  0
LAYER
  5
51
100
AcDbSymbolTableRecord
100
AcDbLayerTableRecord
  2
Layer_1
 70
0
  6
CONTINUOUS
  0
ENDTAB
  0
TABLE
  2
STYLE
  5
3
330
0
100
AcDbSymbolTable
 70
     1
  0
STYLE
  5
11
330
3
100
AcDbSymbolTableRecord
100
AcDbTextStyleTableRecord
  2
STANDARD
 70
     0
 40
0.0
 41
1.0
 50
0.0
 71
     0
 42
2.5
  3
txt
  4

  0
ENDTAB
  0
TABLE
  2
VIEW
  5
6
330
0
100
AcDbSymbolTable
 70
     0
  0
ENDTAB
  0
TABLE
  2
UCS
  5
7
330
0
100
AcDbSymbolTable
 70
     0
  0
ENDTAB
  0
TABLE
  2
APPID
  5
9
330
0
100
AcDbSymbolTable
 70
     2
  0
APPID
  5
12
330
9
100
AcDbSymbolTableRecord
100
AcDbRegAppTableRecord
  2
ACAD
 70
     0
  0
ENDTAB
  0
TABLE
  2
DIMSTYLE
  5
A
330
0
100
AcDbSymbolTable
 70
     1
  0
DIMSTYLE
105
27
330
A
100
AcDbSymbolTableRecord
100
AcDbDimStyleTableRecord
  2
ISO-25
 70
     0
  3

  4

  5

  6

  7

 40
1.0
 41
2.5
 42
0.625
 43
3.75
 44
1.25
 45
0.0
 46
0.0
 47
0.0
 48
0.0
140
2.5
141
2.5
142
0.0
143
0.03937007874016
144
1.0
145
0.0
146
1.0
147
0.625
 71
     0
 72
     0
 73
     0
 74
     0
 75
     0
 76
     0
 77
     1
 78
     8
170
     0
171
     3
172
     1
173
     0
174
     0
175
     0
176
     0
177
     0
178
     0
270
     2
271
     2
272
     2
273
     2
274
     3
340
11
275
     0
280
     0
281
     0
282
     0
283
     0
284
     8
285
     0
286
     0
287
     3
288
     0
  0
ENDTAB
  0
TABLE
  2
BLOCK_RECORD
  5
1
330
0
100
AcDbSymbolTable
 70
     1
  0
BLOCK_RECORD
  5
1F
330
1
100
AcDbSymbolTableRecord
100
AcDbBlockTableRecord
  2
*MODEL_SPACE
  0
BLOCK_RECORD
  5
1B
330
1
100
AcDbSymbolTableRecord
100
AcDbBlockTableRecord
  2
*PAPER_SPACE
  0
ENDTAB
  0
ENDSEC
  0
SECTION
  2
BLOCKS
  0
BLOCK
  5
20
330
1F
100
AcDbEntity
  8
0
100
AcDbBlockBegin
  2
*MODEL_SPACE
 70
     0
 10
0.0
 20
0.0
 30
0.0
  3
*MODEL_SPACE
  1

  0
ENDBLK
  5
21
330
1F
100
AcDbEntity
  8
0
100
AcDbBlockEnd
  0
BLOCK
  5
1C
330
1B
100
AcDbEntity
 67
     1
  8
0
100
AcDbBlockBegin
  2
*PAPER_SPACE
  1

  0
ENDBLK
  5
1D
330
1B
100
AcDbEntity
 67
     1
  8
0
100
AcDbBlockEnd
  0
ENDSEC
  0
SECTION
  2
ENTITIES
  0
LWPOLYLINE
  5
100
100
AcDbEntity
  8
Layer_1
 62
7
100
AcDbPolyline
 90
1
 70
1
 10
-12.170833
 20
315.988097
 30
0.0
  0
LWPOLYLINE
  5
101
100
AcDbEntity
  8
Layer_1
 62
7
100
AcDbPolyline
 90
21
 70
1
 10
371.443594
 20
5.125531
 30
0.0
 10
372.098755
 20
11.354510
 30
0.0
 10
374.034394
 20
17.311154
 30
0.0
 10
377.165553
 20
22.735271
 30
0.0
 10
381.357479
 20
27.389795
 30
0.0
 10
386.425255
 20
31.071287
 30
0.0
 10
392.147240
 20
33.618780
 30
0.0
 10
398.274752
 20
34.920911
 30
0.0
 10
404.539106
 20
34.920911
 30
0.0
 10
410.666618
 20
33.618780
 30
0.0
 10
412.496344
 20
32.803969
 30
0.0
 10
412.496344
 20
359.916448
 30
0.0
 10
402.508588
 20
359.916448
 30
0.0
 10
402.508588
 20
369.902937
 30
0.0
 10
11.883521
 20
369.902937
 30
0.0
 10
11.883521
 20
359.916448
 30
0.0
 10
1.895718
 20
359.916448
 30
0.0
 10
1.895718
 20
10.118774
 30
0.0
 10
11.883521
 20
10.118774
 30
0.0
 10
11.883521
 20
0.132288
 30
0.0
 10
371.968951
 20
0.132288
 30
0.0
  0
LWPOLYLINE
  5
102
100
AcDbEntity
  8
Layer_1
 62
7
100
AcDbPolyline
 90
30
 70
1
 10
21.088260
 20
347.204637
 30
0.0
 10
19.556516
 20
347.530408
 30
0.0
 10
18.125863
 20
348.167512
 30
0.0
 10
16.858927
 20
349.087264
 30
0.0
 10
15.811090
 20
350.251722
 30
0.0
 10
15.028061
 20
351.606883
 30
0.0
 10
14.544154
 20
353.096887
 30
0.0
 10
14.380324
 20
354.653743
 30
0.0
 10
14.544154
 20
356.210678
 30
0.0
 10
15.028061
 20
357.700642
 30
0.0
 10
15.811090
 20
359.055801
 30
0.0
 10
16.858927
 20
360.220261
 30
0.0
 10
18.125863
 20
361.140014
 30
0.0
 10
19.556516
 20
361.777120
 30
0.0
 10
21.088260
 20
362.102888
 30
0.0
 10
22.654318
 20
362.102888
 30
0.0
 10
24.186063
 20
361.777120
 30
0.0
 10
25.616718
 20
361.140014
 30
0.0
 10
26.883651
 20
360.220261
 30
0.0
 10
27.931491
 20
359.055801
 30
0.0
 10
28.714520
 20
357.700642
 30
0.0
 10
29.198427
 20
356.210678
 30
0.0
 10
29.362257
 20
354.653743
 30
0.0
 10
29.198427
 20
353.096887
 30
0.0
 10
28.714520
 20
351.606883
 30
0.0
 10
27.931491
 20
350.251722
 30
0.0
 10
26.883651
 20
349.087264
 30
0.0
 10
25.616718
 20
348.167512
 30
0.0
 10
24.186063
 20
347.530408
 30
0.0
 10
22.654318
 20
347.204637
 30
0.0
  0
LWPOLYLINE
  5
103
100
AcDbEntity
  8
Layer_1
 62
7
100
AcDbPolyline
 90
30
 70
1
 10
390.636125
 20
347.204637
 30
0.0
 10
389.103976
 20
347.530408
 30
0.0
 10
387.673718
 20
348.167512
 30
0.0
 10
386.407263
 20
349.087264
 30
0.0
 10
385.358561
 20
350.251722
 30
0.0
 10
384.575500
 20
351.606883
 30
0.0
 10
384.092106
 20
353.096887
 30
0.0
 10
383.928276
 20
354.653743
 30
0.0
 10
384.092106
 20
356.210678
 30
0.0
 10
384.575500
 20
357.700642
 30
0.0
 10
385.358561
 20
359.055801
 30
0.0
 10
386.407263
 20
360.220261
 30
0.0
 10
387.673718
 20
361.140014
 30
0.0
 10
389.103976
 20
361.777120
 30
0.0
 10
390.636125
 20
362.102888
 30
0.0
 10
392.202167
 20
362.102888
 30
0.0
 10
393.734290
 20
361.777120
 30
0.0
 10
395.164575
 20
361.140014
 30
0.0
 10
396.431029
 20
360.220261
 30
0.0
 10
397.479732
 20
359.055801
 30
0.0
 10
398.262766
 20
357.700642
 30
0.0
 10
398.746160
 20
356.210678
 30
0.0
 10
398.909990
 20
354.653743
 30
0.0
 10
398.746160
 20
353.096887
 30
0.0
 10
398.262766
 20
351.606883
 30
0.0
 10
397.479732
 20
350.251722
 30
0.0
 10
396.431029
 20
349.087264
 30
0.0
 10
395.164575
 20
348.167512
 30
0.0
 10
393.734290
 20
347.530408
 30
0.0
 10
392.202167
 20
347.204637
 30
0.0
  0
LWPOLYLINE
  5
104
100
AcDbEntity
  8
Layer_1
 62
7
100
AcDbPolyline
 90
30
 70
1
 10
64.625569
 20
314.867273
 30
0.0
 10
64.247736
 20
314.948152
 30
0.0
 10
63.894782
 20
315.104613
 30
0.0
 10
63.582225
 20
315.331368
 30
0.0
 10
63.323639
 20
315.618968
 30
0.0
 10
63.130367
 20
315.953431
 30
0.0
 10
63.011076
 20
316.320017
 30
0.0
 10
62.970677
 20
316.704516
 30
0.0
 10
63.011076
 20
317.088978
 30
0.0
 10
63.130367
 20
317.455565
 30
0.0
 10
63.323639
 20
317.790027
 30
0.0
 10
63.582225
 20
318.077627
 30
0.0
 10
63.894782
 20
318.304381
 30
0.0
 10
64.247736
 20
318.460843
 30
0.0
 10
64.625569
 20
318.541722
 30
0.0
 10
65.011895
 20
318.541722
 30
0.0
 10
65.389726
 20
318.460843
 30
0.0
 10
65.742677
 20
318.304381
 30
0.0
 10
66.055243
 20
318.077627
 30
0.0
 10
66.313823
 20
317.790027
 30
0.0
 10
66.506720
 20
317.455565
 30
0.0
 10
66.626004
 20
317.088978
 30
0.0
 10
66.666406
 20
316.704516
 30
0.0
 10
66.626004
 20
316.320017
 30
0.0
 10
66.506720
 20
315.953431
 30
0.0
 10
66.313823
 20
315.618968
 30
0.0
 10
66.055243
 20
315.331368
 30
0.0
 10
65.742677
 20
315.104613
 30
0.0
 10
65.389726
 20
314.948152
 30
0.0
 10
65.011895
 20
314.867273
 30
0.0
  0
LWPOLYLINE
  5
105
100
AcDbEntity
  8
Layer_1
 62
7
100
AcDbPolyline
 90
30
 70
1
 10
244.406026
 20
314.867273
 30
0.0
 10
244.027486
 20
314.948152
 30
0.0
 10
243.674897
 20
315.104613
 30
0.0
 10
243.362337
 20
315.331368
 30
0.0
 10
243.103757
 20
315.618968
 30
0.0
 10
242.910857
 20
315.953431
 30
0.0
 10
242.790816
 20
316.320017
 30
0.0
 10
242.750816
 20
316.704516
 30
0.0
 10
242.790816
 20
317.088978
 30
0.0
 10
242.910857
 20
317.455565
 30
0.0
 10
243.103757
 20
317.790027
 30
0.0
 10
243.362337
 20
318.077627
 30
0.0
 10
243.674897
 20
318.304381
 30
0.0
 10
244.027486
 20
318.460843
 30
0.0
 10
244.406026
 20
318.541722
 30
0.0
 10
244.791555
 20
318.541722
 30
0.0
 10
245.170066
 20
318.460843
 30
0.0
 10
245.522636
 20
318.304381
 30
0.0
 10
245.835207
 20
318.077627
 30
0.0
 10
246.093787
 20
317.790027
 30
0.0
 10
246.286687
 20
317.455565
 30
0.0
 10
246.406347
 20
317.088978
 30
0.0
 10
246.446347
 20
316.704516
 30
0.0
 10
246.406347
 20
316.320017
 30
0.0
 10
246.286687
 20
315.953431
 30
0.0
 10
246.093787
 20
315.618968
 30
0.0
 10
245.835207
 20
315.331368
 30
0.0
 10
245.522636
 20
315.104613
 30
0.0
 10
245.170066
 20
314.948152
 30
0.0
 10
244.791555
 20
314.867273
 30
0.0
  0
LWPOLYLINE
  5
106
100
AcDbEntity
  8
Layer_1
 62
7
100
AcDbPolyline
 90
30
 70
1
 10
334.296041
 20
314.867273
 30
0.0
 10
333.917502
 20
314.948152
 30
0.0
 10
333.564918
 20
315.104613
 30
0.0
 10
333.252339
 20
315.331368
 30
0.0
 10
332.993762
 20
315.618968
 30
0.0
 10
332.800854
 20
315.953431
 30
0.0
 10
332.681183
 20
316.320017
 30
0.0
 10
332.641205
 20
316.704516
 30
0.0
 10
332.681183
 20
317.088978
 30
0.0
 10
332.800854
 20
317.455565
 30
0.0
 10
332.993762
 20
317.790027
 30
0.0
 10
333.252339
 20
318.077627
 30
0.0
 10
333.564918
 20
318.304381
 30
0.0
 10
333.917502
 20
318.460843
 30
0.0
 10
334.296041
 20
318.541722
 30
0.0
 10
334.681565
 20
318.541722
 30
0.0
 10
335.060078
 20
318.460843
 30
0.0
 10
335.412636
 20
318.304381
 30
0.0
 10
335.725214
 20
318.077627
 30
0.0
 10
335.983818
 20
317.790027
 30
0.0
 10
336.176699
 20
317.455565
 30
0.0
 10
336.296344
 20
317.088978
 30
0.0
 10
336.336349
 20
316.704516
 30
0.0
 10
336.296344
 20
316.320017
 30
0.0
 10
336.176699
 20
315.953431
 30
0.0
 10
335.983818
 20
315.618968
 30
0.0
 10
335.725214
 20
315.331368
 30
0.0
 10
335.412636
 20
315.104613
 30
0.0
 10
335.060078
 20
314.948152
 30
0.0
 10
334.681565
 20
314.867273
 30
0.0
  0
LWPOLYLINE
  5
107
100
AcDbEntity
  8
Layer_1
 62
7
100
AcDbPolyline
 90
30
 70
1
 10
154.516005
 20
314.867273
 30
0.0
 10
154.137455
 20
314.948152
 30
0.0
 10
153.784877
 20
315.104613
 30
0.0
 10
153.472317
 20
315.331368
 30
0.0
 10
153.213737
 20
315.618968
 30
0.0
 10
153.020837
 20
315.953431
 30
0.0
 10
152.900795
 20
316.320017
 30
0.0
 10
152.860796
 20
316.704516
 30
0.0
 10
152.900795
 20
317.088978
 30
0.0
 10
153.020837
 20
317.455565
 30
0.0
 10
153.213737
 20
317.790027
 30
0.0
 10
153.472317
 20
318.077627
 30
0.0
 10
153.784877
 20
318.304381
 30
0.0
 10
154.137455
 20
318.460843
 30
0.0
 10
154.516005
 20
318.541722
 30
0.0
 10
154.901527
 20
318.541722
 30
0.0
 10
155.280048
 20
318.460843
 30
0.0
 10
155.632616
 20
318.304381
 30
0.0
 10
155.945186
 20
318.077627
 30
0.0
 10
156.203766
 20
317.790027
 30
0.0
 10
156.396666
 20
317.455565
 30
0.0
 10
156.516327
 20
317.088978
 30
0.0
 10
156.556326
 20
316.704516
 30
0.0
 10
156.516327
 20
316.320017
 30
0.0
 10
156.396666
 20
315.953431
 30
0.0
 10
156.203766
 20
315.618968
 30
0.0
 10
155.945186
 20
315.331368
 30
0.0
 10
155.632616
 20
315.104613
 30
0.0
 10
155.280048
 20
314.948152
 30
0.0
 10
154.901527
 20
314.867273
 30
0.0
  0
LWPOLYLINE
  5
108
100
AcDbEntity
  8
Layer_1
 62
7
100
AcDbPolyline
 90
30
 70
1
 10
154.516005
 20
224.988648
 30
0.0
 10
154.137455
 20
225.069528
 30
0.0
 10
153.784877
 20
225.225990
 30
0.0
 10
153.472317
 20
225.452743
 30
0.0
 10
153.213737
 20
225.740340
 30
0.0
 10
153.020837
 20
226.074805
 30
0.0
 10
152.900795
 20
226.441393
 30
0.0
 10
152.860796
 20
226.825891
 30
0.0
 10
152.900795
 20
227.210354
 30
0.0
 10
153.020837
 20
227.576940
 30
0.0
 10
153.213737
 20
227.911402
 30
0.0
 10
153.472317
 20
228.198999
 30
0.0
 10
153.784877
 20
228.425757
 30
0.0
 10
154.137455
 20
228.582219
 30
0.0
 10
154.516005
 20
228.663094
 30
0.0
 10
154.901527
 20
228.663094
 30
0.0
 10
155.280048
 20
228.582219
 30
0.0
 10
155.632616
 20
228.425757
 30
0.0
 10
155.945186
 20
228.198999
 30
0.0
 10
156.203766
 20
227.911402
 30
0.0
 10
156.396666
 20
227.576940
 30
0.0
 10
156.516327
 20
227.210354
 30
0.0
 10
156.556326
 20
226.825891
 30
0.0
 10
156.516327
 20
226.441393
 30
0.0
 10
156.396666
 20
226.074805
 30
0.0
 10
156.203766
 20
225.740340
 30
0.0
 10
155.945186
 20
225.452743
 30
0.0
 10
155.632616
 20
225.225990
 30
0.0
 10
155.280048
 20
225.069528
 30
0.0
 10
154.901527
 20
224.988648
 30
0.0
  0
LWPOLYLINE
  5
109
100
AcDbEntity
  8
Layer_1
 62
7
100
AcDbPolyline
 90
30
 70
1
 10
64.625569
 20
224.988648
 30
0.0
 10
64.247736
 20
225.069528
 30
0.0
 10
63.894782
 20
225.225990
 30
0.0
 10
63.582225
 20
225.452743
 30
0.0
 10
63.323639
 20
225.740340
 30
0.0
 10
63.130367
 20
226.074805
 30
0.0
 10
63.011076
 20
226.441393
 30
0.0
 10
62.970677
 20
226.825891
 30
0.0
 10
63.011076
 20
227.210354
 30
0.0
 10
63.130367
 20
227.576940
 30
0.0
 10
63.323639
 20
227.911402
 30
0.0
 10
63.582225
 20
228.198999
 30
0.0
 10
63.894782
 20
228.425757
 30
0.0
 10
64.247736
 20
228.582219
 30
0.0
 10
64.625569
 20
228.663094
 30
0.0
 10
65.011895
 20
228.663094
 30
0.0
 10
65.389726
 20
228.582219
 30
0.0
 10
65.742677
 20
228.425757
 30
0.0
 10
66.055243
 20
228.198999
 30
0.0
 10
66.313823
 20
227.911402
 30
0.0
 10
66.506720
 20
227.576940
 30
0.0
 10
66.626004
 20
227.210354
 30
0.0
 10
66.666406
 20
226.825891
 30
0.0
 10
66.626004
 20
226.441393
 30
0.0
 10
66.506720
 20
226.074805
 30
0.0
 10
66.313823
 20
225.740340
 30
0.0
 10
66.055243
 20
225.452743
 30
0.0
 10
65.742677
 20
225.225990
 30
0.0
 10
65.389726
 20
225.069528
 30
0.0
 10
65.011895
 20
224.988648
 30
0.0
  0
LWPOLYLINE
  5
10a
100
AcDbEntity
  8
Layer_1
 62
7
100
AcDbPolyline
 90
30
 70
1
 10
244.406026
 20
224.988648
 30
0.0
 10
244.027486
 20
225.069528
 30
0.0
 10
243.674897
 20
225.225990
 30
0.0
 10
243.362337
 20
225.452743
 30
0.0
 10
243.103757
 20
225.740340
 30
0.0
 10
242.910857
 20
226.074805
 30
0.0
 10
242.790816
 20
226.441393
 30
0.0
 10
242.750816
 20
226.825891
 30
0.0
 10
242.790816
 20
227.210354
 30
0.0
 10
242.910857
 20
227.576940
 30
0.0
 10
243.103757
 20
227.911402
 30
0.0
 10
243.362337
 20
228.198999
 30
0.0
 10
243.674897
 20
228.425757
 30
0.0
 10
244.027486
 20
228.582219
 30
0.0
 10
244.406026
 20
228.663094
 30
0.0
 10
244.791555
 20
228.663094
 30
0.0
 10
245.170066
 20
228.582219
 30
0.0
 10
245.522636
 20
228.425757
 30
0.0
 10
245.835207
 20
228.198999
 30
0.0
 10
246.093787
 20
227.911402
 30
0.0
 10
246.286687
 20
227.576940
 30
0.0
 10
246.406347
 20
227.210354
 30
0.0
 10
246.446347
 20
226.825891
 30
0.0
 10
246.406347
 20
226.441393
 30
0.0
 10
246.286687
 20
226.074805
 30
0.0
 10
246.093787
 20
225.740340
 30
0.0
 10
245.835207
 20
225.452743
 30
0.0
 10
245.522636
 20
225.225990
 30
0.0
 10
245.170066
 20
225.069528
 30
0.0
 10
244.791555
 20
224.988648
 30
0.0
  0
LWPOLYLINE
  5
10b
100
AcDbEntity
  8
Layer_1
 62
7
100
AcDbPolyline
 90
30
 70
1
 10
334.296041
 20
224.988648
 30
0.0
 10
333.917502
 20
225.069528
 30
0.0
 10
333.564918
 20
225.225990
 30
0.0
 10
333.252339
 20
225.452743
 30
0.0
 10
332.993762
 20
225.740340
 30
0.0
 10
332.800854
 20
226.074805
 30
0.0
 10
332.681183
 20
226.441393
 30
0.0
 10
332.641205
 20
226.825891
 30
0.0
 10
332.681183
 20
227.210354
 30
0.0
 10
332.800854
 20
227.576940
 30
0.0
 10
332.993762
 20
227.911402
 30
0.0
 10
333.252339
 20
228.198999
 30
0.0
 10
333.564918
 20
228.425757
 30
0.0
 10
333.917502
 20
228.582219
 30
0.0
 10
334.296041
 20
228.663094
 30
0.0
 10
334.681565
 20
228.663094
 30
0.0
 10
335.060078
 20
228.582219
 30
0.0
 10
335.412636
 20
228.425757
 30
0.0
 10
335.725214
 20
228.198999
 30
0.0
 10
335.983818
 20
227.911402
 30
0.0
 10
336.176699
 20
227.576940
 30
0.0
 10
336.296344
 20
227.210354
 30
0.0
 10
336.336349
 20
226.825891
 30
0.0
 10
336.296344
 20
226.441393
 30
0.0
 10
336.176699
 20
226.074805
 30
0.0
 10
335.983818
 20
225.740340
 30
0.0
 10
335.725214
 20
225.452743
 30
0.0
 10
335.412636
 20
225.225990
 30
0.0
 10
335.060078
 20
225.069528
 30
0.0
 10
334.681565
 20
224.988648
 30
0.0
  0
LWPOLYLINE
  5
10c
100
AcDbEntity
  8
Layer_1
 62
7
100
AcDbPolyline
 90
30
 70
1
 10
64.625569
 20
135.109981
 30
0.0
 10
64.247736
 20
135.190880
 30
0.0
 10
63.894782
 20
135.347338
 30
0.0
 10
63.582225
 20
135.574099
 30
0.0
 10
63.323639
 20
135.861699
 30
0.0
 10
63.130367
 20
136.196159
 30
0.0
 10
63.011076
 20
136.562739
 30
0.0
 10
62.970677
 20
136.947239
 30
0.0
 10
63.011076
 20
137.331740
 30
0.0
 10
63.130367
 20
137.698331
 30
0.0
 10
63.323639
 20
138.032790
 30
0.0
 10
63.582225
 20
138.320390
 30
0.0
 10
63.894782
 20
138.547151
 30
0.0
 10
64.247736
 20
138.703610
 30
0.0
 10
64.625569
 20
138.784509
 30
0.0
 10
65.011895
 20
138.784509
 30
0.0
 10
65.389726
 20
138.703610
 30
0.0
 10
65.742677
 20
138.547151
 30
0.0
 10
66.055243
 20
138.320390
 30
0.0
 10
66.313823
 20
138.032790
 30
0.0
 10
66.506720
 20
137.698331
 30
0.0
 10
66.626004
 20
137.331740
 30
0.0
 10
66.666406
 20
136.947239
 30
0.0
 10
66.626004
 20
136.562739
 30
0.0
 10
66.506720
 20
136.196159
 30
0.0
 10
66.313823
 20
135.861699
 30
0.0
 10
66.055243
 20
135.574099
 30
0.0
 10
65.742677
 20
135.347338
 30
0.0
 10
65.389726
 20
135.190880
 30
0.0
 10
65.011895
 20
135.109981
 30
0.0
  0
LWPOLYLINE
  5
10d
100
AcDbEntity
  8
Layer_1
 62
7
100
AcDbPolyline
 90
30
 70
1
 10
334.296041
 20
135.109981
 30
0.0
 10
333.917502
 20
135.190880
 30
0.0
 10
333.564918
 20
135.347338
 30
0.0
 10
333.252339
 20
135.574099
 30
0.0
 10
332.993762
 20
135.861699
 30
0.0
 10
332.800854
 20
136.196159
 30
0.0
 10
332.681183
 20
136.562739
 30
0.0
 10
332.641205
 20
136.947239
 30
0.0
 10
332.681183
 20
137.331740
 30
0.0
 10
332.800854
 20
137.698331
 30
0.0
 10
332.993762
 20
138.032790
 30
0.0
 10
333.252339
 20
138.320390
 30
0.0
 10
333.564918
 20
138.547151
 30
0.0
 10
333.917502
 20
138.703610
 30
0.0
 10
334.296041
 20
138.784509
 30
0.0
 10
334.681565
 20
138.784509
 30
0.0
 10
335.060078
 20
138.703610
 30
0.0
 10
335.412636
 20
138.547151
 30
0.0
 10
335.725214
 20
138.320390
 30
0.0
 10
335.983818
 20
138.032790
 30
0.0
 10
336.176699
 20
137.698331
 30
0.0
 10
336.296344
 20
137.331740
 30
0.0
 10
336.336349
 20
136.947239
 30
0.0
 10
336.296344
 20
136.562739
 30
0.0
 10
336.176699
 20
136.196159
 30
0.0
 10
335.983818
 20
135.861699
 30
0.0
 10
335.725214
 20
135.574099
 30
0.0
 10
335.412636
 20
135.347338
 30
0.0
 10
335.060078
 20
135.190880
 30
0.0
 10
334.681565
 20
135.109981
 30
0.0
  0
LWPOLYLINE
  5
10e
100
AcDbEntity
  8
Layer_1
 62
7
100
AcDbPolyline
 90
30
 70
1
 10
244.406026
 20
135.109981
 30
0.0
 10
244.027486
 20
135.190880
 30
0.0
 10
243.674897
 20
135.347338
 30
0.0
 10
243.362337
 20
135.574099
 30
0.0
 10
243.103757
 20
135.861699
 30
0.0
 10
242.910857
 20
136.196159
 30
0.0
 10
242.790816
 20
136.562739
 30
0.0
 10
242.750816
 20
136.947239
 30
0.0
 10
242.790816
 20
137.331740
 30
0.0
 10
242.910857
 20
137.698331
 30
0.0
 10
243.103757
 20
138.032790
 30
0.0
 10
243.362337
 20
138.320390
 30
0.0
 10
243.674897
 20
138.547151
 30
0.0
 10
244.027486
 20
138.703610
 30
0.0
 10
244.406026
 20
138.784509
 30
0.0
 10
244.791555
 20
138.784509
 30
0.0
 10
245.170066
 20
138.703610
 30
0.0
 10
245.522636
 20
138.547151
 30
0.0
 10
245.835207
 20
138.320390
 30
0.0
 10
246.093787
 20
138.032790
 30
0.0
 10
246.286687
 20
137.698331
 30
0.0
 10
246.406347
 20
137.331740
 30
0.0
 10
246.446347
 20
136.947239
 30
0.0
 10
246.406347
 20
136.562739
 30
0.0
 10
246.286687
 20
136.196159
 30
0.0
 10
246.093787
 20
135.861699
 30
0.0
 10
245.835207
 20
135.574099
 30
0.0
 10
245.522636
 20
135.347338
 30
0.0
 10
245.170066
 20
135.190880
 30
0.0
 10
244.791555
 20
135.109981
 30
0.0
  0
LWPOLYLINE
  5
10f
100
AcDbEntity
  8
Layer_1
 62
7
100
AcDbPolyline
 90
30
 70
1
 10
154.516005
 20
135.109981
 30
0.0
 10
154.137455
 20
135.190880
 30
0.0
 10
153.784877
 20
135.347338
 30
0.0
 10
153.472317
 20
135.574099
 30
0.0
 10
153.213737
 20
135.861699
 30
0.0
 10
153.020837
 20
136.196159
 30
0.0
 10
152.900795
 20
136.562739
 30
0.0
 10
152.860796
 20
136.947239
 30
0.0
 10
152.900795
 20
137.331740
 30
0.0
 10
153.020837
 20
137.698331
 30
0.0
 10
153.213737
 20
138.032790
 30
0.0
 10
153.472317
 20
138.320390
 30
0.0
 10
153.784877
 20
138.547151
 30
0.0
 10
154.137455
 20
138.703610
 30
0.0
 10
154.516005
 20
138.784509
 30
0.0
 10
154.901527
 20
138.784509
 30
0.0
 10
155.280048
 20
138.703610
 30
0.0
 10
155.632616
 20
138.547151
 30
0.0
 10
155.945186
 20
138.320390
 30
0.0
 10
156.203766
 20
138.032790
 30
0.0
 10
156.396666
 20
137.698331
 30
0.0
 10
156.516327
 20
137.331740
 30
0.0
 10
156.556326
 20
136.947239
 30
0.0
 10
156.516327
 20
136.562739
 30
0.0
 10
156.396666
 20
136.196159
 30
0.0
 10
156.203766
 20
135.861699
 30
0.0
 10
155.945186
 20
135.574099
 30
0.0
 10
155.632616
 20
135.347338
 30
0.0
 10
155.280048
 20
135.190880
 30
0.0
 10
154.901527
 20
135.109981
 30
0.0
  0
LWPOLYLINE
  5
110
100
AcDbEntity
  8
Layer_1
 62
7
100
AcDbPolyline
 90
30
 70
1
 10
334.296041
 20
45.231472
 30
0.0
 10
333.917502
 20
45.311969
 30
0.0
 10
333.564918
 20
45.468809
 30
0.0
 10
333.252339
 20
45.695940
 30
0.0
 10
332.993762
 20
45.982780
 30
0.0
 10
332.800854
 20
46.317253
 30
0.0
 10
332.681183
 20
46.684590
 30
0.0
 10
332.641205
 20
47.068670
 30
0.0
 10
332.681183
 20
47.452760
 30
0.0
 10
332.800854
 20
47.820102
 30
0.0
 10
332.993762
 20
48.154562
 30
0.0
 10
333.252339
 20
48.441410
 30
0.0
 10
333.564918
 20
48.668161
 30
0.0
 10
333.917502
 20
48.825003
 30
0.0
 10
334.296041
 20
48.905500
 30
0.0
 10
334.681565
 20
48.905500
 30
0.0
 10
335.060078
 20
48.825003
 30
0.0
 10
335.412636
 20
48.668161
 30
0.0
 10
335.725214
 20
48.441410
 30
0.0
 10
335.983818
 20
48.154562
 30
0.0
 10
336.176699
 20
47.820102
 30
0.0
 10
336.296344
 20
47.452760
 30
0.0
 10
336.336349
 20
47.068670
 30
0.0
 10
336.296344
 20
46.684590
 30
0.0
 10
336.176699
 20
46.317253
 30
0.0
 10
335.983818
 20
45.982780
 30
0.0
 10
335.725214
 20
45.695940
 30
0.0
 10
335.412636
 20
45.468809
 30
0.0
 10
335.060078
 20
45.311969
 30
0.0
 10
334.681565
 20
45.231472
 30
0.0
  0
LWPOLYLINE
  5
111
100
AcDbEntity
  8
Layer_1
 62
7
100
AcDbPolyline
 90
30
 70
1
 10
244.406026
 20
45.231472
 30
0.0
 10
244.027486
 20
45.311969
 30
0.0
 10
243.674897
 20
45.468809
 30
0.0
 10
243.362337
 20
45.695940
 30
0.0
 10
243.103757
 20
45.982780
 30
0.0
 10
242.910857
 20
46.317253
 30
0.0
 10
242.790816
 20
46.684590
 30
0.0
 10
242.750816
 20
47.068670
 30
0.0
 10
242.790816
 20
47.452760
 30
0.0
 10
242.910857
 20
47.820102
 30
0.0
 10
243.103757
 20
48.154562
 30
0.0
 10
243.362337
 20
48.441410
 30
0.0
 10
243.674897
 20
48.668161
 30
0.0
 10
244.027486
 20
48.825003
 30
0.0
 10
244.406026
 20
48.905500
 30
0.0
 10
244.791555
 20
48.905500
 30
0.0
 10
245.170066
 20
48.825003
 30
0.0
 10
245.522636
 20
48.668161
 30
0.0
 10
245.835207
 20
48.441410
 30
0.0
 10
246.093787
 20
48.154562
 30
0.0
 10
246.286687
 20
47.820102
 30
0.0
 10
246.406347
 20
47.452760
 30
0.0
 10
246.446347
 20
47.068670
 30
0.0
 10
246.406347
 20
46.684590
 30
0.0
 10
246.286687
 20
46.317253
 30
0.0
 10
246.093787
 20
45.982780
 30
0.0
 10
245.835207
 20
45.695940
 30
0.0
 10
245.522636
 20
45.468809
 30
0.0
 10
245.170066
 20
45.311969
 30
0.0
 10
244.791555
 20
45.231472
 30
0.0
  0
LWPOLYLINE
  5
112
100
AcDbEntity
  8
Layer_1
 62
7
100
AcDbPolyline
 90
30
 70
1
 10
64.625569
 20
45.231472
 30
0.0
 10
64.247736
 20
45.311969
 30
0.0
 10
63.894782
 20
45.468809
 30
0.0
 10
63.582225
 20
45.695940
 30
0.0
 10
63.323639
 20
45.982780
 30
0.0
 10
63.130367
 20
46.317253
 30
0.0
 10
63.011076
 20
46.684590
 30
0.0
 10
62.970677
 20
47.068670
 30
0.0
 10
63.011076
 20
47.452760
 30
0.0
 10
63.130367
 20
47.820102
 30
0.0
 10
63.323639
 20
48.154562
 30
0.0
 10
63.582225
 20
48.441410
 30
0.0
 10
63.894782
 20
48.668161
 30
0.0
 10
64.247736
 20
48.825003
 30
0.0
 10
64.625569
 20
48.905500
 30
0.0
 10
65.011895
 20
48.905500
 30
0.0
 10
65.389726
 20
48.825003
 30
0.0
 10
65.742677
 20
48.668161
 30
0.0
 10
66.055243
 20
48.441410
 30
0.0
 10
66.313823
 20
48.154562
 30
0.0
 10
66.506720
 20
47.820102
 30
0.0
 10
66.626004
 20
47.452760
 30
0.0
 10
66.666406
 20
47.068670
 30
0.0
 10
66.626004
 20
46.684590
 30
0.0
 10
66.506720
 20
46.317253
 30
0.0
 10
66.313823
 20
45.982780
 30
0.0
 10
66.055243
 20
45.695940
 30
0.0
 10
65.742677
 20
45.468809
 30
0.0
 10
65.389726
 20
45.311969
 30
0.0
 10
65.011895
 20
45.231472
 30
0.0
  0
LWPOLYLINE
  5
113
100
AcDbEntity
  8
Layer_1
 62
7
100
AcDbPolyline
 90
30
 70
1
 10
154.516005
 20
45.231472
 30
0.0
 10
154.137455
 20
45.311969
 30
0.0
 10
153.784877
 20
45.468809
 30
0.0
 10
153.472317
 20
45.695940
 30
0.0
 10
153.213737
 20
45.982780
 30
0.0
 10
153.020837
 20
46.317253
 30
0.0
 10
152.900795
 20
46.684590
 30
0.0
 10
152.860796
 20
47.068670
 30
0.0
 10
152.900795
 20
47.452760
 30
0.0
 10
153.020837
 20
47.820102
 30
0.0
 10
153.213737
 20
48.154562
 30
0.0
 10
153.472317
 20
48.441410
 30
0.0
 10
153.784877
 20
48.668161
 30
0.0
 10
154.137455
 20
48.825003
 30
0.0
 10
154.516005
 20
48.905500
 30
0.0
 10
154.901527
 20
48.905500
 30
0.0
 10
155.280048
 20
48.825003
 30
0.0
 10
155.632616
 20
48.668161
 30
0.0
 10
155.945186
 20
48.441410
 30
0.0
 10
156.203766
 20
48.154562
 30
0.0
 10
156.396666
 20
47.820102
 30
0.0
 10
156.516327
 20
47.452760
 30
0.0
 10
156.556326
 20
47.068670
 30
0.0
 10
156.516327
 20
46.684590
 30
0.0
 10
156.396666
 20
46.317253
 30
0.0
 10
156.203766
 20
45.982780
 30
0.0
 10
155.945186
 20
45.695940
 30
0.0
 10
155.632616
 20
45.468809
 30
0.0
 10
155.280048
 20
45.311969
 30
0.0
 10
154.901527
 20
45.231472
 30
0.0
  0
LWPOLYLINE
  5
114
100
AcDbEntity
  8
Layer_1
 62
7
100
AcDbPolyline
 90
4
 70
1
 10
825.517515
 20
60.134673
 30
0.0
 10
415.715159
 20
60.134673
 30
0.0
 10
415.715159
 20
0.132288
 30
0.0
 10
825.517515
 20
0.132288
 30
0.0
  0
LWPOLYLINE
  5
115
100
AcDbEntity
  8
Layer_1
 62
7
100
AcDbPolyline
 90
30
 70
1
 10
577.325913
 20
43.929143
 30
0.0
 10
576.947374
 20
44.008843
 30
0.0
 10
576.594817
 20
44.164865
 30
0.0
 10
576.282238
 20
44.390396
 30
0.0
 10
576.023634
 20
44.675223
 30
0.0
 10
575.830753
 20
45.007285
 30
0.0
 10
575.711082
 20
45.371823
 30
0.0
 10
575.671077
 20
45.753294
 30
0.0
 10
575.711082
 20
46.134725
 30
0.0
 10
575.830753
 20
46.499263
 30
0.0
 10
576.023634
 20
46.831325
 30
0.0
 10
576.282238
 20
47.116163
 30
0.0
 10
576.594817
 20
47.341302
 30
0.0
 10
576.947374
 20
47.497324
 30
0.0
 10
577.325913
 20
47.577024
 30
0.0
 10
577.711464
 20
47.577024
 30
0.0
 10
578.089977
 20
47.497324
 30
0.0
 10
578.442561
 20
47.341302
 30
0.0
 10
578.755113
 20
47.116163
 30
0.0
 10
579.013717
 20
46.831325
 30
0.0
 10
579.206598
 20
46.499263
 30
0.0
 10
579.326269
 20
46.134725
 30
0.0
 10
579.366274
 20
45.753294
 30
0.0
 10
579.326269
 20
45.371823
 30
0.0
 10
579.206598
 20
45.007285
 30
0.0
 10
579.013717
 20
44.675223
 30
0.0
 10
578.755113
 20
44.390396
 30
0.0
 10
578.442561
 20
44.164865
 30
0.0
 10
578.089977
 20
44.008843
 30
0.0
 10
577.711464
 20
43.929143
 30
0.0
  0
LWPOLYLINE
  5
116
100
AcDbEntity
  8
Layer_1
 62
7
100
AcDbPolyline
 90
30
 70
1
 10
477.446816
 20
43.929143
 30
0.0
 10
477.068991
 20
44.008843
 30
0.0
 10
476.716037
 20
44.164865
 30
0.0
 10
476.403458
 20
44.390396
 30
0.0
 10
476.144881
 20
44.675223
 30
0.0
 10
475.951603
 20
45.007285
 30
0.0
 10
475.832302
 20
45.371823
 30
0.0
 10
475.791900
 20
45.753294
 30
0.0
 10
475.832302
 20
46.134725
 30
0.0
 10
475.951603
 20
46.499263
 30
0.0
 10
476.144881
 20
46.831325
 30
0.0
 10
476.403458
 20
47.116163
 30
0.0
 10
476.716037
 20
47.341302
 30
0.0
 10
477.068991
 20
47.497324
 30
0.0
 10
477.446816
 20
47.577024
 30
0.0
 10
477.833134
 20
47.577024
 30
0.0
 10
478.210986
 20
47.497324
 30
0.0
 10
478.563940
 20
47.341302
 30
0.0
 10
478.876492
 20
47.116163
 30
0.0
 10
479.135096
 20
46.831325
 30
0.0
 10
479.327977
 20
46.499263
 30
0.0
 10
479.447648
 20
46.134725
 30
0.0
 10
479.488050
 20
45.753294
 30
0.0
 10
479.447648
 20
45.371823
 30
0.0
 10
479.327977
 20
45.007285
 30
0.0
 10
479.135096
 20
44.675223
 30
0.0
 10
478.876492
 20
44.390396
 30
0.0
 10
478.563940
 20
44.164865
 30
0.0
 10
478.210986
 20
44.008843
 30
0.0
 10
477.833134
 20
43.929143
 30
0.0
  0
LWPOLYLINE
  5
117
100
AcDbEntity
  8
Layer_1
 62
7
100
AcDbPolyline
 90
30
 70
1
 10
647.241001
 20
43.929143
 30
0.0
 10
646.862461
 20
44.008843
 30
0.0
 10
646.509878
 20
44.164865
 30
0.0
 10
646.197325
 20
44.390396
 30
0.0
 10
645.938722
 20
44.675223
 30
0.0
 10
645.745840
 20
45.007285
 30
0.0
 10
645.626169
 20
45.371823
 30
0.0
 10
645.586164
 20
45.753294
 30
0.0
 10
645.626169
 20
46.134725
 30
0.0
 10
645.745840
 20
46.499263
 30
0.0
 10
645.938722
 20
46.831325
 30
0.0
 10
646.197325
 20
47.116163
 30
0.0
 10
646.509878
 20
47.341302
 30
0.0
 10
646.862461
 20
47.497324
 30
0.0
 10
647.241001
 20
47.577024
 30
0.0
 10
647.626552
 20
47.577024
 30
0.0
 10
648.005091
 20
47.497324
 30
0.0
 10
648.357675
 20
47.341302
 30
0.0
 10
648.670254
 20
47.116163
 30
0.0
 10
648.928831
 20
46.831325
 30
0.0
 10
649.121712
 20
46.499263
 30
0.0
 10
649.241383
 20
46.134725
 30
0.0
 10
649.281388
 20
45.753294
 30
0.0
 10
649.241383
 20
45.371823
 30
0.0
 10
649.121712
 20
45.007285
 30
0.0
 10
648.928831
 20
44.675223
 30
0.0
 10
648.670254
 20
44.390396
 30
0.0
 10
648.357675
 20
44.164865
 30
0.0
 10
648.005091
 20
44.008843
 30
0.0
 10
647.626552
 20
43.929143
 30
0.0
  0
LWPOLYLINE
  5
118
100
AcDbEntity
  8
Layer_1
 62
7
100
AcDbPolyline
 90
30
 70
1
 10
697.180391
 20
43.929143
 30
0.0
 10
696.801825
 20
44.008843
 30
0.0
 10
696.449267
 20
44.164865
 30
0.0
 10
696.136689
 20
44.390396
 30
0.0
 10
695.878085
 20
44.675223
 30
0.0
 10
695.685204
 20
45.007285
 30
0.0
 10
695.565162
 20
45.371823
 30
0.0
 10
695.525157
 20
45.753294
 30
0.0
 10
695.565162
 20
46.134725
 30
0.0
 10
695.685204
 20
46.499263
 30
0.0
 10
695.878085
 20
46.831325
 30
0.0
 10
696.136689
 20
47.116163
 30
0.0
 10
696.449267
 20
47.341302
 30
0.0
 10
696.801825
 20
47.497324
 30
0.0
 10
697.180391
 20
47.577024
 30
0.0
 10
697.565915
 20
47.577024
 30
0.0
 10
697.944428
 20
47.497324
 30
0.0
 10
698.297012
 20
47.341302
 30
0.0
 10
698.609564
 20
47.116163
 30
0.0
 10
698.868168
 20
46.831325
 30
0.0
 10
699.061075
 20
46.499263
 30
0.0
 10
699.181117
 20
46.134725
 30
0.0
 10
699.221095
 20
45.753294
 30
0.0
 10
699.181117
 20
45.371823
 30
0.0
 10
699.061075
 20
45.007285
 30
0.0
 10
698.868168
 20
44.675223
 30
0.0
 10
698.609564
 20
44.390396
 30
0.0
 10
698.297012
 20
44.164865
 30
0.0
 10
697.944428
 20
44.008843
 30
0.0
 10
697.565915
 20
43.929143
 30
0.0
  0
LWPOLYLINE
  5
119
100
AcDbEntity
  8
Layer_1
 62
7
100
AcDbPolyline
 90
30
 70
1
 10
527.386576
 20
43.929143
 30
0.0
 10
527.008011
 20
44.008843
 30
0.0
 10
526.655427
 20
44.164865
 30
0.0
 10
526.342875
 20
44.390396
 30
0.0
 10
526.084271
 20
44.675223
 30
0.0
 10
525.891390
 20
45.007285
 30
0.0
 10
525.771348
 20
45.371823
 30
0.0
 10
525.731343
 20
45.753294
 30
0.0
 10
525.771348
 20
46.134725
 30
0.0
 10
525.891390
 20
46.499263
 30
0.0
 10
526.084271
 20
46.831325
 30
0.0
 10
526.342875
 20
47.116163
 30
0.0
 10
526.655427
 20
47.341302
 30
0.0
 10
527.008011
 20
47.497324
 30
0.0
 10
527.386576
 20
47.577024
 30
0.0
 10
527.772101
 20
47.577024
 30
0.0
 10
528.150640
 20
47.497324
 30
0.0
 10
528.503224
 20
47.341302
 30
0.0
 10
528.815776
 20
47.116163
 30
0.0
 10
529.074380
 20
46.831325
 30
0.0
 10
529.267288
 20
46.499263
 30
0.0
 10
529.386959
 20
46.134725
 30
0.0
 10
529.426937
 20
45.753294
 30
0.0
 10
529.386959
 20
45.371823
 30
0.0
 10
529.267288
 20
45.007285
 30
0.0
 10
529.074380
 20
44.675223
 30
0.0
 10
528.815776
 20
44.390396
 30
0.0
 10
528.503224
 20
44.164865
 30
0.0
 10
528.150640
 20
44.008843
 30
0.0
 10
527.772101
 20
43.929143
 30
0.0
  0
LWPOLYLINE
  5
11a
100
AcDbEntity
  8
Layer_1
 62
7
100
AcDbPolyline
 90
30
 70
1
 10
747.119727
 20
43.929143
 30
0.0
 10
746.741215
 20
44.008843
 30
0.0
 10
746.388604
 20
44.164865
 30
0.0
 10
746.076052
 20
44.390396
 30
0.0
 10
745.817475
 20
44.675223
 30
0.0
 10
745.624567
 20
45.007285
 30
0.0
 10
745.504896
 20
45.371823
 30
0.0
 10
745.464917
 20
45.753294
 30
0.0
 10
745.504896
 20
46.134725
 30
0.0
 10
745.624567
 20
46.499263
 30
0.0
 10
745.817475
 20
46.831325
 30
0.0
 10
746.076052
 20
47.116163
 30
0.0
 10
746.388604
 20
47.341302
 30
0.0
 10
746.741215
 20
47.497324
 30
0.0
 10
747.119727
 20
47.577024
 30
0.0
 10
747.505252
 20
47.577024
 30
0.0
 10
747.883791
 20
47.497324
 30
0.0
 10
748.236375
 20
47.341302
 30
0.0
 10
748.548954
 20
47.116163
 30
0.0
 10
748.807531
 20
46.831325
 30
0.0
 10
749.000412
 20
46.499263
 30
0.0
 10
749.120083
 20
46.134725
 30
0.0
 10
749.160088
 20
45.753294
 30
0.0
 10
749.120083
 20
45.371823
 30
0.0
 10
749.000412
 20
45.007285
 30
0.0
 10
748.807531
 20
44.675223
 30
0.0
 10
748.548954
 20
44.390396
 30
0.0
 10
748.236375
 20
44.164865
 30
0.0
 10
747.883791
 20
44.008843
 30
0.0
 10
747.505252
 20
43.929143
 30
0.0
  0
LWPOLYLINE
  5
11b
100
AcDbEntity
  8
Layer_1
 62
7
100
AcDbPolyline
 90
4
 70
1
 10
650.430156
 20
16.992464
 30
0.0
 10
650.430156
 20
39.803294
 30
0.0
 10
746.313727
 20
39.803294
 30
0.0
 10
746.313727
 20
16.992464
 30
0.0
  0
LWPOLYLINE
  5
11c
100
AcDbEntity
  8
Layer_1
 62
7
100
AcDbPolyline
 90
4
 70
1
 10
480.636342
 20
16.992464
 30
0.0
 10
480.636342
 20
39.803294
 30
0.0
 10
576.519913
 20
39.803294
 30
0.0
 10
576.519913
 20
16.992464
 30
0.0
  0
LWPOLYLINE
  5
11d
100
AcDbEntity
  8
Layer_1
 62
7
100
AcDbPolyline
 90
30
 70
1
 10
747.119727
 20
9.217048
 30
0.0
 10
746.741215
 20
9.296740
 30
0.0
 10
746.388604
 20
9.452765
 30
0.0
 10
746.076052
 20
9.677899
 30
0.0
 10
745.817475
 20
9.962749
 30
0.0
 10
745.624567
 20
10.294801
 30
0.0
 10
745.504896
 20
10.659344
 30
0.0
 10
745.464917
 20
11.040768
 30
0.0
 10
745.504896
 20
11.422217
 30
0.0
 10
745.624567
 20
11.787131
 30
0.0
 10
745.817475
 20
12.119183
 30
0.0
 10
746.076052
 20
12.404007
 30
0.0
 10
746.388604
 20
12.629167
 30
0.0
 10
746.741215
 20
12.785192
 30
0.0
 10
747.119727
 20
12.864884
 30
0.0
 10
747.505252
 20
12.864884
 30
0.0
 10
747.883791
 20
12.785192
 30
0.0
 10
748.236375
 20
12.629167
 30
0.0
 10
748.548954
 20
12.404007
 30
0.0
 10
748.807531
 20
12.119183
 30
0.0
 10
749.000412
 20
11.787131
 30
0.0
 10
749.120083
 20
11.422217
 30
0.0
 10
749.160088
 20
11.040768
 30
0.0
 10
749.120083
 20
10.659344
 30
0.0
 10
749.000412
 20
10.294801
 30
0.0
 10
748.807531
 20
9.962749
 30
0.0
 10
748.548954
 20
9.677899
 30
0.0
 10
748.236375
 20
9.452765
 30
0.0
 10
747.883791
 20
9.296740
 30
0.0
 10
747.505252
 20
9.217048
 30
0.0
  0
LWPOLYLINE
  5
11e
100
AcDbEntity
  8
Layer_1
 62
7
100
AcDbPolyline
 90
30
 70
1
 10
647.241001
 20
9.217048
 30
0.0
 10
646.862461
 20
9.296740
 30
0.0
 10
646.509878
 20
9.452765
 30
0.0
 10
646.197325
 20
9.677899
 30
0.0
 10
645.938722
 20
9.962749
 30
0.0
 10
645.745840
 20
10.294801
 30
0.0
 10
645.626169
 20
10.659344
 30
0.0
 10
645.586164
 20
11.040768
 30
0.0
 10
645.626169
 20
11.422217
 30
0.0
 10
645.745840
 20
11.787131
 30
0.0
 10
645.938722
 20
12.119183
 30
0.0
 10
646.197325
 20
12.404007
 30
0.0
 10
646.509878
 20
12.629167
 30
0.0
 10
646.862461
 20
12.785192
 30
0.0
 10
647.241001
 20
12.864884
 30
0.0
 10
647.626552
 20
12.864884
 30
0.0
 10
648.005091
 20
12.785192
 30
0.0
 10
648.357675
 20
12.629167
 30
0.0
 10
648.670254
 20
12.404007
 30
0.0
 10
648.928831
 20
12.119183
 30
0.0
 10
649.121712
 20
11.787131
 30
0.0
 10
649.241383
 20
11.422217
 30
0.0
 10
649.281388
 20
11.040768
 30
0.0
 10
649.241383
 20
10.659344
 30
0.0
 10
649.121712
 20
10.294801
 30
0.0
 10
648.928831
 20
9.962749
 30
0.0
 10
648.670254
 20
9.677899
 30
0.0
 10
648.357675
 20
9.452765
 30
0.0
 10
648.005091
 20
9.296740
 30
0.0
 10
647.626552
 20
9.217048
 30
0.0
  0
LWPOLYLINE
  5
11f
100
AcDbEntity
  8
Layer_1
 62
7
100
AcDbPolyline
 90
30
 70
1
 10
477.446816
 20
9.217048
 30
0.0
 10
477.068991
 20
9.296740
 30
0.0
 10
476.716037
 20
9.452765
 30
0.0
 10
476.403458
 20
9.677899
 30
0.0
 10
476.144881
 20
9.962749
 30
0.0
 10
475.951603
 20
10.294801
 30
0.0
 10
475.832302
 20
10.659344
 30
0.0
 10
475.791900
 20
11.040768
 30
0.0
 10
475.832302
 20
11.422217
 30
0.0
 10
475.951603
 20
11.787131
 30
0.0
 10
476.144881
 20
12.119183
 30
0.0
 10
476.403458
 20
12.404007
 30
0.0
 10
476.716037
 20
12.629167
 30
0.0
 10
477.068991
 20
12.785192
 30
0.0
 10
477.446816
 20
12.864884
 30
0.0
 10
477.833134
 20
12.864884
 30
0.0
 10
478.210986
 20
12.785192
 30
0.0
 10
478.563940
 20
12.629167
 30
0.0
 10
478.876492
 20
12.404007
 30
0.0
 10
479.135096
 20
12.119183
 30
0.0
 10
479.327977
 20
11.787131
 30
0.0
 10
479.447648
 20
11.422217
 30
0.0
 10
479.488050
 20
11.040768
 30
0.0
 10
479.447648
 20
10.659344
 30
0.0
 10
479.327977
 20
10.294801
 30
0.0
 10
479.135096
 20
9.962749
 30
0.0
 10
478.876492
 20
9.677899
 30
0.0
 10
478.563940
 20
9.452765
 30
0.0
 10
478.210986
 20
9.296740
 30
0.0
 10
477.833134
 20
9.217048
 30
0.0
  0
LWPOLYLINE
  5
120
100
AcDbEntity
  8
Layer_1
 62
7
100
AcDbPolyline
 90
30
 70
1
 10
577.325913
 20
9.217048
 30
0.0
 10
576.947374
 20
9.296740
 30
0.0
 10
576.594817
 20
9.452765
 30
0.0
 10
576.282238
 20
9.677899
 30
0.0
 10
576.023634
 20
9.962749
 30
0.0
 10
575.830753
 20
10.294801
 30
0.0
 10
575.711082
 20
10.659344
 30
0.0
 10
575.671077
 20
11.040768
 30
0.0
 10
575.711082
 20
11.422217
 30
0.0
 10
575.830753
 20
11.787131
 30
0.0
 10
576.023634
 20
12.119183
 30
0.0
 10
576.282238
 20
12.404007
 30
0.0
 10
576.594817
 20
12.629167
 30
0.0
 10
576.947374
 20
12.785192
 30
0.0
 10
577.325913
 20
12.864884
 30
0.0
 10
577.711464
 20
12.864884
 30
0.0
 10
578.089977
 20
12.785192
 30
0.0
 10
578.442561
 20
12.629167
 30
0.0
 10
578.755113
 20
12.404007
 30
0.0
 10
579.013717
 20
12.119183
 30
0.0
 10
579.206598
 20
11.787131
 30
0.0
 10
579.326269
 20
11.422217
 30
0.0
 10
579.366274
 20
11.040768
 30
0.0
 10
579.326269
 20
10.659344
 30
0.0
 10
579.206598
 20
10.294801
 30
0.0
 10
579.013717
 20
9.962749
 30
0.0
 10
578.755113
 20
9.677899
 30
0.0
 10
578.442561
 20
9.452765
 30
0.0
 10
578.089977
 20
9.296740
 30
0.0
 10
577.711464
 20
9.217048
 30
0.0
  0
LWPOLYLINE
  5
121
100
AcDbEntity
  8
Layer_1
 62
7
100
AcDbPolyline
 90
30
 70
1
 10
697.180391
 20
9.217048
 30
0.0
 10
696.801825
 20
9.296740
 30
0.0
 10
696.449267
 20
9.452765
 30
0.0
 10
696.136689
 20
9.677899
 30
0.0
 10
695.878085
 20
9.962749
 30
0.0
 10
695.685204
 20
10.294801
 30
0.0
 10
695.565162
 20
10.659344
 30
0.0
 10
695.525157
 20
11.040768
 30
0.0
 10
695.565162
 20
11.422217
 30
0.0
 10
695.685204
 20
11.787131
 30
0.0
 10
695.878085
 20
12.119183
 30
0.0
 10
696.136689
 20
12.404007
 30
0.0
 10
696.449267
 20
12.629167
 30
0.0
 10
696.801825
 20
12.785192
 30
0.0
 10
697.180391
 20
12.864884
 30
0.0
 10
697.565915
 20
12.864884
 30
0.0
 10
697.944428
 20
12.785192
 30
0.0
 10
698.297012
 20
12.629167
 30
0.0
 10
698.609564
 20
12.404007
 30
0.0
 10
698.868168
 20
12.119183
 30
0.0
 10
699.061075
 20
11.787131
 30
0.0
 10
699.181117
 20
11.422217
 30
0.0
 10
699.221095
 20
11.040768
 30
0.0
 10
699.181117
 20
10.659344
 30
0.0
 10
699.061075
 20
10.294801
 30
0.0
 10
698.868168
 20
9.962749
 30
0.0
 10
698.609564
 20
9.677899
 30
0.0
 10
698.297012
 20
9.452765
 30
0.0
 10
697.944428
 20
9.296740
 30
0.0
 10
697.565915
 20
9.217048
 30
0.0
  0
LWPOLYLINE
  5
122
100
AcDbEntity
  8
Layer_1
 62
7
100
AcDbPolyline
 90
30
 70
1
 10
527.386576
 20
9.217048
 30
0.0
 10
527.008011
 20
9.296740
 30
0.0
 10
526.655427
 20
9.452765
 30
0.0
 10
526.342875
 20
9.677899
 30
0.0
 10
526.084271
 20
9.962749
 30
0.0
 10
525.891390
 20
10.294801
 30
0.0
 10
525.771348
 20
10.659344
 30
0.0
 10
525.731343
 20
11.040768
 30
0.0
 10
525.771348
 20
11.422217
 30
0.0
 10
525.891390
 20
11.787131
 30
0.0
 10
526.084271
 20
12.119183
 30
0.0
 10
526.342875
 20
12.404007
 30
0.0
 10
526.655427
 20
12.629167
 30
0.0
 10
527.008011
 20
12.785192
 30
0.0
 10
527.386576
 20
12.864884
 30
0.0
 10
527.772101
 20
12.864884
 30
0.0
 10
528.150640
 20
12.785192
 30
0.0
 10
528.503224
 20
12.629167
 30
0.0
 10
528.815776
 20
12.404007
 30
0.0
 10
529.074380
 20
12.119183
 30
0.0
 10
529.267288
 20
11.787131
 30
0.0
 10
529.386959
 20
11.422217
 30
0.0
 10
529.426937
 20
11.040768
 30
0.0
 10
529.386959
 20
10.659344
 30
0.0
 10
529.267288
 20
10.294801
 30
0.0
 10
529.074380
 20
9.962749
 30
0.0
 10
528.815776
 20
9.677899
 30
0.0
 10
528.503224
 20
9.452765
 30
0.0
 10
528.150640
 20
9.296740
 30
0.0
 10
527.772101
 20
9.217048
 30
0.0
  0
LWPOLYLINE
  5
123
100
AcDbEntity
  8
Layer_1
 62
7
100
AcDbPolyline
 90
4
 70
1
 10
826.492452
 20
123.327945
 30
0.0
 10
416.690069
 20
123.327945
 30
0.0
 10
416.690069
 20
63.325548
 30
0.0
 10
826.492452
 20
63.325548
 30
0.0
  0
LWPOLYLINE
  5
124
100
AcDbEntity
  8
Layer_1
 62
7
100
AcDbPolyline
 90
30
 70
1
 10
747.095862
 20
109.891749
 30
0.0
 10
746.717323
 20
109.971444
 30
0.0
 10
746.364713
 20
110.127435
 30
0.0
 10
746.052160
 20
110.352926
 30
0.0
 10
745.793583
 20
110.637716
 30
0.0
 10
745.600675
 20
110.969717
 30
0.0
 10
745.481004
 20
111.334207
 30
0.0
 10
745.441026
 20
111.715535
 30
0.0
 10
745.481004
 20
112.096935
 30
0.0
 10
745.600675
 20
112.461414
 30
0.0
 10
745.793583
 20
112.793424
 30
0.0
 10
746.052160
 20
113.078208
 30
0.0
 10
746.364713
 20
113.303327
 30
0.0
 10
746.717323
 20
113.459314
 30
0.0
 10
747.095862
 20
113.539017
 30
0.0
 10
747.481360
 20
113.539017
 30
0.0
 10
747.859899
 20
113.459314
 30
0.0
 10
748.212483
 20
113.303327
 30
0.0
 10
748.525062
 20
113.078208
 30
0.0
 10
748.783639
 20
112.793424
 30
0.0
 10
748.976547
 20
112.461414
 30
0.0
 10
749.096218
 20
112.096935
 30
0.0
 10
749.136196
 20
111.715535
 30
0.0
 10
749.096218
 20
111.334207
 30
0.0
 10
748.976547
 20
110.969717
 30
0.0
 10
748.783639
 20
110.637716
 30
0.0
 10
748.525062
 20
110.352926
 30
0.0
 10
748.212483
 20
110.127435
 30
0.0
 10
747.859899
 20
109.971444
 30
0.0
 10
747.481360
 20
109.891749
 30
0.0
  0
LWPOLYLINE
  5
125
100
AcDbEntity
  8
Layer_1
 62
7
100
AcDbPolyline
 90
30
 70
1
 10
697.156472
 20
109.891749
 30
0.0
 10
696.777933
 20
109.971444
 30
0.0
 10
696.425349
 20
110.127435
 30
0.0
 10
696.112797
 20
110.352926
 30
0.0
 10
695.854193
 20
110.637716
 30
0.0
 10
695.661312
 20
110.969717
 30
0.0
 10
695.541641
 20
111.334207
 30
0.0
 10
695.501636
 20
111.715535
 30
0.0
 10
695.541641
 20
112.096935
 30
0.0
 10
695.661312
 20
112.461414
 30
0.0
 10
695.854193
 20
112.793424
 30
0.0
 10
696.112797
 20
113.078208
 30
0.0
 10
696.425349
 20
113.303327
 30
0.0
 10
696.777933
 20
113.459314
 30
0.0
 10
697.156472
 20
113.539017
 30
0.0
 10
697.542023
 20
113.539017
 30
0.0
 10
697.920536
 20
113.459314
 30
0.0
 10
698.273120
 20
113.303327
 30
0.0
 10
698.585672
 20
113.078208
 30
0.0
 10
698.844276
 20
112.793424
 30
0.0
 10
699.037157
 20
112.461414
 30
0.0
 10
699.156828
 20
112.096935
 30
0.0
 10
699.196833
 20
111.715535
 30
0.0
 10
699.156828
 20
111.334207
 30
0.0
 10
699.037157
 20
110.969717
 30
0.0
 10
698.844276
 20
110.637716
 30
0.0
 10
698.585672
 20
110.352926
 30
0.0
 10
698.273120
 20
110.127435
 30
0.0
 10
697.920536
 20
109.971444
 30
0.0
 10
697.542023
 20
109.891749
 30
0.0
  0
LWPOLYLINE
  5
126
100
AcDbEntity
  8
Layer_1
 62
7
100
AcDbPolyline
 90
30
 70
1
 10
647.217135
 20
109.891749
 30
0.0
 10
646.838570
 20
109.971444
 30
0.0
 10
646.485986
 20
110.127435
 30
0.0
 10
646.173434
 20
110.352926
 30
0.0
 10
645.914856
 20
110.637716
 30
0.0
 10
645.721949
 20
110.969717
 30
0.0
 10
645.601907
 20
111.334207
 30
0.0
 10
645.561902
 20
111.715535
 30
0.0
 10
645.601907
 20
112.096935
 30
0.0
 10
645.721949
 20
112.461414
 30
0.0
 10
645.914856
 20
112.793424
 30
0.0
 10
646.173434
 20
113.078208
 30
0.0
 10
646.485986
 20
113.303327
 30
0.0
 10
646.838570
 20
113.459314
 30
0.0
 10
647.217135
 20
113.539017
 30
0.0
 10
647.602660
 20
113.539017
 30
0.0
 10
647.981226
 20
113.459314
 30
0.0
 10
648.333783
 20
113.303327
 30
0.0
 10
648.646362
 20
113.078208
 30
0.0
 10
648.904939
 20
112.793424
 30
0.0
 10
649.097847
 20
112.461414
 30
0.0
 10
649.217888
 20
112.096935
 30
0.0
 10
649.257893
 20
111.715535
 30
0.0
 10
649.217888
 20
111.334207
 30
0.0
 10
649.097847
 20
110.969717
 30
0.0
 10
648.904939
 20
110.637716
 30
0.0
 10
648.646362
 20
110.352926
 30
0.0
 10
648.333783
 20
110.127435
 30
0.0
 10
647.981226
 20
109.971444
 30
0.0
 10
647.602660
 20
109.891749
 30
0.0
  0
LWPOLYLINE
  5
127
100
AcDbEntity
  8
Layer_1
 62
7
100
AcDbPolyline
 90
30
 70
1
 10
476.424149
 20
105.131998
 30
0.0
 10
476.046271
 20
105.211696
 30
0.0
 10
475.693317
 20
105.367687
 30
0.0
 10
475.380738
 20
105.593175
 30
0.0
 10
475.122161
 20
105.877967
 30
0.0
 10
474.928883
 20
106.209966
 30
0.0
 10
474.809582
 20
106.574446
 30
0.0
 10
474.769206
 20
106.955777
 30
0.0
 10
474.809582
 20
107.337189
 30
0.0
 10
474.928883
 20
107.701666
 30
0.0
 10
475.122161
 20
108.033665
 30
0.0
 10
475.380738
 20
108.318455
 30
0.0
 10
475.693317
 20
108.543565
 30
0.0
 10
476.046271
 20
108.699555
 30
0.0
 10
476.424149
 20
108.779256
 30
0.0
 10
476.810467
 20
108.779256
 30
0.0
 10
477.188292
 20
108.699555
 30
0.0
 10
477.541246
 20
108.543565
 30
0.0
 10
477.853825
 20
108.318455
 30
0.0
 10
478.112402
 20
108.033665
 30
0.0
 10
478.305310
 20
107.701666
 30
0.0
 10
478.424584
 20
107.337189
 30
0.0
 10
478.464986
 20
106.955777
 30
0.0
 10
478.424584
 20
106.574446
 30
0.0
 10
478.305310
 20
106.209966
 30
0.0
 10
478.112402
 20
105.877967
 30
0.0
 10
477.853825
 20
105.593175
 30
0.0
 10
477.541246
 20
105.367687
 30
0.0
 10
477.188292
 20
105.211696
 30
0.0
 10
476.810467
 20
105.131998
 30
0.0
  0
LWPOLYLINE
  5
128
100
AcDbEntity
  8
Layer_1
 62
7
100
AcDbPolyline
 90
30
 70
1
 10
527.162924
 20
105.131998
 30
0.0
 10
526.784385
 20
105.211696
 30
0.0
 10
526.431801
 20
105.367687
 30
0.0
 10
526.119249
 20
105.593175
 30
0.0
 10
525.860645
 20
105.877967
 30
0.0
 10
525.667737
 20
106.209966
 30
0.0
 10
525.547722
 20
106.574446
 30
0.0
 10
525.507717
 20
106.955777
 30
0.0
 10
525.547722
 20
107.337189
 30
0.0
 10
525.667737
 20
107.701666
 30
0.0
 10
525.860645
 20
108.033665
 30
0.0
 10
526.119249
 20
108.318455
 30
0.0
 10
526.431801
 20
108.543565
 30
0.0
 10
526.784385
 20
108.699555
 30
0.0
 10
527.162924
 20
108.779256
 30
0.0
 10
527.548422
 20
108.779256
 30
0.0
 10
527.926988
 20
108.699555
 30
0.0
 10
528.279572
 20
108.543565
 30
0.0
 10
528.592124
 20
108.318455
 30
0.0
 10
528.850701
 20
108.033665
 30
0.0
 10
529.043609
 20
107.701666
 30
0.0
 10
529.163650
 20
107.337189
 30
0.0
 10
529.203655
 20
106.955777
 30
0.0
 10
529.163650
 20
106.574446
 30
0.0
 10
529.043609
 20
106.209966
 30
0.0
 10
528.850701
 20
105.877967
 30
0.0
 10
528.592124
 20
105.593175
 30
0.0
 10
528.279572
 20
105.367687
 30
0.0
 10
527.926988
 20
105.211696
 30
0.0
 10
527.548422
 20
105.131998
 30
0.0
  0
LWPOLYLINE
  5
129
100
AcDbEntity
  8
Layer_1
 62
7
100
AcDbPolyline
 90
4
 70
1
 10
650.406264
 20
82.959428
 30
0.0
 10
650.406264
 20
105.766506
 30
0.0
 10
746.289835
 20
105.766506
 30
0.0
 10
746.289835
 20
82.959428
 30
0.0
  0
LWPOLYLINE
  5
12a
100
AcDbEntity
  8
Layer_1
 62
7
100
AcDbPolyline
 90
4
 70
1
 10
471.623364
 20
83.653536
 30
0.0
 10
471.623364
 20
101.502566
 30
0.0
 10
529.553011
 20
101.502566
 30
0.0
 10
529.553011
 20
83.653536
 30
0.0
  0
LWPOLYLINE
  5
12b
100
AcDbEntity
  8
Layer_1
 62
7
100
AcDbPolyline
 90
30
 70
1
 10
527.162924
 20
75.383640
 30
0.0
 10
526.784385
 20
75.463335
 30
0.0
 10
526.431801
 20
75.619331
 30
0.0
 10
526.119249
 20
75.844838
 30
0.0
 10
525.860645
 20
76.129609
 30
0.0
 10
525.667737
 20
76.461608
 30
0.0
 10
525.547722
 20
76.826098
 30
0.0
 10
525.507717
 20
77.207413
 30
0.0
 10
525.547722
 20
77.588839
 30
0.0
 10
525.667737
 20
77.953329
 30
0.0
 10
525.860645
 20
78.285328
 30
0.0
 10
526.119249
 20
78.570099
 30
0.0
 10
526.431801
 20
78.795204
 30
0.0
 10
526.784385
 20
78.951205
 30
0.0
 10
527.162924
 20
79.030895
 30
0.0
 10
527.548422
 20
79.030895
 30
0.0
 10
527.926988
 20
78.951205
 30
0.0
 10
528.279572
 20
78.795204
 30
0.0
 10
528.592124
 20
78.570099
 30
0.0
 10
528.850701
 20
78.285328
 30
0.0
 10
529.043609
 20
77.953329
 30
0.0
 10
529.163650
 20
77.588839
 30
0.0
 10
529.203655
 20
77.207413
 30
0.0
 10
529.163650
 20
76.826098
 30
0.0
 10
529.043609
 20
76.461608
 30
0.0
 10
528.850701
 20
76.129609
 30
0.0
 10
528.592124
 20
75.844838
 30
0.0
 10
528.279572
 20
75.619331
 30
0.0
 10
527.926988
 20
75.463335
 30
0.0
 10
527.548422
 20
75.383640
 30
0.0
  0
LWPOLYLINE
  5
12c
100
AcDbEntity
  8
Layer_1
 62
7
100
AcDbPolyline
 90
30
 70
1
 10
476.424149
 20
75.383640
 30
0.0
 10
476.046271
 20
75.463335
 30
0.0
 10
475.693317
 20
75.619331
 30
0.0
 10
475.380738
 20
75.844838
 30
0.0
 10
475.122161
 20
76.129609
 30
0.0
 10
474.928883
 20
76.461608
 30
0.0
 10
474.809582
 20
76.826098
 30
0.0
 10
474.769206
 20
77.207413
 30
0.0
 10
474.809582
 20
77.588839
 30
0.0
 10
474.928883
 20
77.953329
 30
0.0
 10
475.122161
 20
78.285328
 30
0.0
 10
475.380738
 20
78.570099
 30
0.0
 10
475.693317
 20
78.795204
 30
0.0
 10
476.046271
 20
78.951205
 30
0.0
 10
476.424149
 20
79.030895
 30
0.0
 10
476.810467
 20
79.030895
 30
0.0
 10
477.188292
 20
78.951205
 30
0.0
 10
477.541246
 20
78.795204
 30
0.0
 10
477.853825
 20
78.570099
 30
0.0
 10
478.112402
 20
78.285328
 30
0.0
 10
478.305310
 20
77.953329
 30
0.0
 10
478.424584
 20
77.588839
 30
0.0
 10
478.464986
 20
77.207413
 30
0.0
 10
478.424584
 20
76.826098
 30
0.0
 10
478.305310
 20
76.461608
 30
0.0
 10
478.112402
 20
76.129609
 30
0.0
 10
477.853825
 20
75.844838
 30
0.0
 10
477.541246
 20
75.619331
 30
0.0
 10
477.188292
 20
75.463335
 30
0.0
 10
476.810467
 20
75.383640
 30
0.0
  0
LWPOLYLINE
  5
12d
100
AcDbEntity
  8
Layer_1
 62
7
100
AcDbPolyline
 90
30
 70
1
 10
747.095862
 20
75.185364
 30
0.0
 10
746.717323
 20
75.265056
 30
0.0
 10
746.364713
 20
75.421052
 30
0.0
 10
746.052160
 20
75.646530
 30
0.0
 10
745.793583
 20
75.931330
 30
0.0
 10
745.600675
 20
76.263327
 30
0.0
 10
745.481004
 20
76.628187
 30
0.0
 10
745.441026
 20
77.009531
 30
0.0
 10
745.481004
 20
77.390875
 30
0.0
 10
745.600675
 20
77.755738
 30
0.0
 10
745.793583
 20
78.087761
 30
0.0
 10
746.052160
 20
78.372532
 30
0.0
 10
746.364713
 20
78.597666
 30
0.0
 10
746.717323
 20
78.753638
 30
0.0
 10
747.095862
 20
78.833357
 30
0.0
 10
747.481360
 20
78.833357
 30
0.0
 10
747.859899
 20
78.753638
 30
0.0
 10
748.212483
 20
78.597666
 30
0.0
 10
748.525062
 20
78.372532
 30
0.0
 10
748.783639
 20
78.087761
 30
0.0
 10
748.976547
 20
77.755738
 30
0.0
 10
749.096218
 20
77.390875
 30
0.0
 10
749.136196
 20
77.009531
 30
0.0
 10
749.096218
 20
76.628187
 30
0.0
 10
748.976547
 20
76.263327
 30
0.0
 10
748.783639
 20
75.931330
 30
0.0
 10
748.525062
 20
75.646530
 30
0.0
 10
748.212483
 20
75.421052
 30
0.0
 10
747.859899
 20
75.265056
 30
0.0
 10
747.481360
 20
75.185364
 30
0.0
  0
LWPOLYLINE
  5
12e
100
AcDbEntity
  8
Layer_1
 62
7
100
AcDbPolyline
 90
30
 70
1
 10
697.156472
 20
75.185364
 30
0.0
 10
696.777933
 20
75.265056
 30
0.0
 10
696.425349
 20
75.421052
 30
0.0
 10
696.112797
 20
75.646530
 30
0.0
 10
695.854193
 20
75.931330
 30
0.0
 10
695.661312
 20
76.263327
 30
0.0
 10
695.541641
 20
76.628187
 30
0.0
 10
695.501636
 20
77.009531
 30
0.0
 10
695.541641
 20
77.390875
 30
0.0
 10
695.661312
 20
77.755738
 30
0.0
 10
695.854193
 20
78.087761
 30
0.0
 10
696.112797
 20
78.372532
 30
0.0
 10
696.425349
 20
78.597666
 30
0.0
 10
696.777933
 20
78.753638
 30
0.0
 10
697.156472
 20
78.833357
 30
0.0
 10
697.542023
 20
78.833357
 30
0.0
 10
697.920536
 20
78.753638
 30
0.0
 10
698.273120
 20
78.597666
 30
0.0
 10
698.585672
 20
78.372532
 30
0.0
 10
698.844276
 20
78.087761
 30
0.0
 10
699.037157
 20
77.755738
 30
0.0
 10
699.156828
 20
77.390875
 30
0.0
 10
699.196833
 20
77.009531
 30
0.0
 10
699.156828
 20
76.628187
 30
0.0
 10
699.037157
 20
76.263327
 30
0.0
 10
698.844276
 20
75.931330
 30
0.0
 10
698.585672
 20
75.646530
 30
0.0
 10
698.273120
 20
75.421052
 30
0.0
 10
697.920536
 20
75.265056
 30
0.0
 10
697.542023
 20
75.185364
 30
0.0
  0
LWPOLYLINE
  5
12f
100
AcDbEntity
  8
Layer_1
 62
7
100
AcDbPolyline
 90
30
 70
1
 10
647.217135
 20
75.185364
 30
0.0
 10
646.838570
 20
75.265056
 30
0.0
 10
646.485986
 20
75.421052
 30
0.0
 10
646.173434
 20
75.646530
 30
0.0
 10
645.914856
 20
75.931330
 30
0.0
 10
645.721949
 20
76.263327
 30
0.0
 10
645.601907
 20
76.628187
 30
0.0
 10
645.561902
 20
77.009531
 30
0.0
 10
645.601907
 20
77.390875
 30
0.0
 10
645.721949
 20
77.755738
 30
0.0
 10
645.914856
 20
78.087761
 30
0.0
 10
646.173434
 20
78.372532
 30
0.0
 10
646.485986
 20
78.597666
 30
0.0
 10
646.838570
 20
78.753638
 30
0.0
 10
647.217135
 20
78.833357
 30
0.0
 10
647.602660
 20
78.833357
 30
0.0
 10
647.981226
 20
78.753638
 30
0.0
 10
648.333783
 20
78.597666
 30
0.0
 10
648.646362
 20
78.372532
 30
0.0
 10
648.904939
 20
78.087761
 30
0.0
 10
649.097847
 20
77.755738
 30
0.0
 10
649.217888
 20
77.390875
 30
0.0
 10
649.257893
 20
77.009531
 30
0.0
 10
649.217888
 20
76.628187
 30
0.0
 10
649.097847
 20
76.263327
 30
0.0
 10
648.904939
 20
75.931330
 30
0.0
 10
648.646362
 20
75.646530
 30
0.0
 10
648.333783
 20
75.421052
 30
0.0
 10
647.981226
 20
75.265056
 30
0.0
 10
647.602660
 20
75.185364
 30
0.0
  0
LWPOLYLINE
  5
130
100
AcDbEntity
  8
Layer_1
 62
7
100
AcDbPolyline
 90
4
 70
1
 10
1200.360450
 20
62.551012
 30
0.0
 10
830.117376
 20
62.551012
 30
0.0
 10
830.117376
 20
0.248995
 30
0.0
 10
1200.360450
 20
0.248995
 30
0.0
  0
LWPOLYLINE
  5
131
100
AcDbEntity
  8
Layer_1
 62
7
100
AcDbPolyline
 90
30
 70
1
 10
850.719316
 20
46.848253
 30
0.0
 10
850.170755
 20
46.963903
 30
0.0
 10
849.658310
 20
47.190143
 30
0.0
 10
849.204629
 20
47.517073
 30
0.0
 10
848.829291
 20
47.930473
 30
0.0
 10
848.548833
 20
48.412113
 30
0.0
 10
848.375319
 20
48.941163
 30
0.0
 10
848.316714
 20
49.494314
 30
0.0
 10
848.375319
 20
50.047473
 30
0.0
 10
848.548833
 20
50.576524
 30
0.0
 10
848.829291
 20
51.058163
 30
0.0
 10
849.204629
 20
51.471572
 30
0.0
 10
849.658310
 20
51.798494
 30
0.0
 10
850.170755
 20
52.024734
 30
0.0
 10
850.719316
 20
52.140383
 30
0.0
 10
851.280180
 20
52.140383
 30
0.0
 10
851.828740
 20
52.024734
 30
0.0
 10
852.341106
 20
51.798494
 30
0.0
 10
852.794840
 20
51.471572
 30
0.0
 10
853.170178
 20
51.058163
 30
0.0
 10
853.450663
 20
50.576524
 30
0.0
 10
853.624176
 20
50.047473
 30
0.0
 10
853.682782
 20
49.494314
 30
0.0
 10
853.624176
 20
48.941163
 30
0.0
 10
853.450663
 20
48.412113
 30
0.0
 10
853.170178
 20
47.930473
 30
0.0
 10
852.794840
 20
47.517073
 30
0.0
 10
852.341106
 20
47.190143
 30
0.0
 10
851.828740
 20
46.963903
 30
0.0
 10
851.280180
 20
46.848253
 30
0.0
  0
LWPOLYLINE
  5
132
100
AcDbEntity
  8
Layer_1
 62
7
100
AcDbPolyline
 90
30
 70
1
 10
865.277061
 20
14.847910
 30
0.0
 10
861.433830
 20
15.658064
 30
0.0
 10
857.844519
 20
17.242945
 30
0.0
 10
854.665841
 20
19.533310
 30
0.0
 10
852.036782
 20
22.429016
 30
0.0
 10
850.072330
 20
25.803591
 30
0.0
 10
848.858105
 20
29.509451
 30
0.0
 10
848.447445
 20
33.384692
 30
0.0
 10
848.858105
 20
37.259944
 30
0.0
 10
850.072330
 20
40.965793
 30
0.0
 10
852.036782
 20
44.340363
 30
0.0
 10
854.665841
 20
47.236064
 30
0.0
 10
857.844519
 20
49.526342
 30
0.0
 10
861.433830
 20
51.111223
 30
0.0
 10
865.277061
 20
51.921364
 30
0.0
 10
869.206150
 20
51.921364
 30
0.0
 10
873.049250
 20
51.111223
 30
0.0
 10
876.638667
 20
49.526342
 30
0.0
 10
879.817344
 20
47.236064
 30
0.0
 10
882.446324
 20
44.340363
 30
0.0
 10
884.410855
 20
40.965793
 30
0.0
 10
885.624975
 20
37.259944
 30
0.0
 10
886.035714
 20
33.384692
 30
0.0
 10
885.624975
 20
29.509451
 30
0.0
 10
884.410855
 20
25.803591
 30
0.0
 10
882.446324
 20
22.429016
 30
0.0
 10
879.817344
 20
19.533310
 30
0.0
 10
876.638667
 20
17.242945
 30
0.0
 10
873.049250
 20
15.658064
 30
0.0
 10
869.206150
 20
14.847910
 30
0.0
  0
LWPOLYLINE
  5
133
100
AcDbEntity
  8
Layer_1
 62
7
100
AcDbPolyline
 90
30
 70
1
 10
884.133095
 20
45.856402
 30
0.0
 10
883.584561
 20
45.972054
 30
0.0
 10
883.072116
 20
46.198294
 30
0.0
 10
882.618435
 20
46.525224
 30
0.0
 10
882.243097
 20
46.938622
 30
0.0
 10
881.962612
 20
47.420264
 30
0.0
 10
881.789496
 20
47.949312
 30
0.0
 10
881.730890
 20
48.502473
 30
0.0
 10
881.789496
 20
49.055622
 30
0.0
 10
881.962612
 20
49.584672
 30
0.0
 10
882.243097
 20
50.066322
 30
0.0
 10
882.618435
 20
50.479723
 30
0.0
 10
883.072116
 20
50.806653
 30
0.0
 10
883.584561
 20
51.032882
 30
0.0
 10
884.133095
 20
51.148532
 30
0.0
 10
884.693986
 20
51.148532
 30
0.0
 10
885.242520
 20
51.032882
 30
0.0
 10
885.754912
 20
50.806653
 30
0.0
 10
886.208646
 20
50.479723
 30
0.0
 10
886.583984
 20
50.066322
 30
0.0
 10
886.864469
 20
49.584672
 30
0.0
 10
887.037585
 20
49.055622
 30
0.0
 10
887.096191
 20
48.502473
 30
0.0
 10
887.037585
 20
47.949312
 30
0.0
 10
886.864469
 20
47.420264
 30
0.0
 10
886.583984
 20
46.938622
 30
0.0
 10
886.208646
 20
46.525224
 30
0.0
 10
885.754912
 20
46.198294
 30
0.0
 10
885.242520
 20
45.972054
 30
0.0
 10
884.693986
 20
45.856402
 30
0.0
  0
LWPOLYLINE
  5
134
100
AcDbEntity
  8
Layer_1
 62
7
100
AcDbPolyline
 90
30
 70
1
 10
971.940472
 20
44.049152
 30
0.0
 10
971.561430
 20
44.128853
 30
0.0
 10
971.208370
 20
44.284883
 30
0.0
 10
970.895394
 20
44.510443
 30
0.0
 10
970.636473
 20
44.795484
 30
0.0
 10
970.443301
 20
45.127663
 30
0.0
 10
970.323101
 20
45.492542
 30
0.0
 10
970.283016
 20
45.874013
 30
0.0
 10
970.323101
 20
46.255473
 30
0.0
 10
970.443301
 20
46.620363
 30
0.0
 10
970.636473
 20
46.952544
 30
0.0
 10
970.895394
 20
47.237583
 30
0.0
 10
971.208370
 20
47.463034
 30
0.0
 10
971.561430
 20
47.619054
 30
0.0
 10
971.940472
 20
47.698852
 30
0.0
 10
972.326526
 20
47.698852
 30
0.0
 10
972.705568
 20
47.619054
 30
0.0
 10
973.058628
 20
47.463034
 30
0.0
 10
973.371603
 20
47.237583
 30
0.0
 10
973.630525
 20
46.952544
 30
0.0
 10
973.823697
 20
46.620363
 30
0.0
 10
973.943500
 20
46.255473
 30
0.0
 10
973.983611
 20
45.874013
 30
0.0
 10
973.943500
 20
45.492542
 30
0.0
 10
973.823697
 20
45.127663
 30
0.0
 10
973.630525
 20
44.795484
 30
0.0
 10
973.371603
 20
44.510443
 30
0.0
 10
973.058628
 20
44.284883
 30
0.0
 10
972.705568
 20
44.128853
 30
0.0
 10
972.326526
 20
44.049152
 30
0.0
  0
LWPOLYLINE
  5
135
100
AcDbEntity
  8
Layer_1
 62
7
100
AcDbPolyline
 90
30
 70
1
 10
1061.950955
 20
44.049152
 30
0.0
 10
1061.571860
 20
44.128853
 30
0.0
 10
1061.218853
 20
44.284883
 30
0.0
 10
1060.905851
 20
44.510443
 30
0.0
 10
1060.646956
 20
44.795484
 30
0.0
 10
1060.453757
 20
45.127663
 30
0.0
 10
1060.333557
 20
45.492542
 30
0.0
 10
1060.293552
 20
45.874013
 30
0.0
 10
1060.333557
 20
46.255473
 30
0.0
 10
1060.453757
 20
46.620363
 30
0.0
 10
1060.646956
 20
46.952544
 30
0.0
 10
1060.905851
 20
47.237583
 30
0.0
 10
1061.218853
 20
47.463034
 30
0.0
 10
1061.571860
 20
47.619054
 30
0.0
 10
1061.950955
 20
47.698852
 30
0.0
 10
1062.336955
 20
47.698852
 30
0.0
 10
1062.716050
 20
47.619054
 30
0.0
 10
1063.069058
 20
47.463034
 30
0.0
 10
1063.382060
 20
47.237583
 30
0.0
 10
1063.640954
 20
46.952544
 30
0.0
 10
1063.834153
 20
46.620363
 30
0.0
 10
1063.953956
 20
46.255473
 30
0.0
 10
1063.993961
 20
45.874013
 30
0.0
 10
1063.953956
 20
45.492542
 30
0.0
 10
1063.834153
 20
45.127663
 30
0.0
 10
1063.640954
 20
44.795484
 30
0.0
 10
1063.382060
 20
44.510443
 30
0.0
 10
1063.069058
 20
44.284883
 30
0.0
 10
1062.716050
 20
44.128853
 30
0.0
 10
1062.336955
 20
44.049152
 30
0.0
  0
LWPOLYLINE
  5
136
100
AcDbEntity
  8
Layer_1
 62
7
100
AcDbPolyline
 90
30
 70
1
 10
1111.956967
 20
44.049152
 30
0.0
 10
1111.577872
 20
44.128853
 30
0.0
 10
1111.224759
 20
44.284883
 30
0.0
 10
1110.911757
 20
44.510443
 30
0.0
 10
1110.652862
 20
44.795484
 30
0.0
 10
1110.459769
 20
45.127663
 30
0.0
 10
1110.339860
 20
45.492542
 30
0.0
 10
1110.299855
 20
45.874013
 30
0.0
 10
1110.339860
 20
46.255473
 30
0.0
 10
1110.459769
 20
46.620363
 30
0.0
 10
1110.652862
 20
46.952544
 30
0.0
 10
1110.911757
 20
47.237583
 30
0.0
 10
1111.224759
 20
47.463034
 30
0.0
 10
1111.577872
 20
47.619054
 30
0.0
 10
1111.956967
 20
47.698852
 30
0.0
 10
1112.342967
 20
47.698852
 30
0.0
 10
1112.721956
 20
47.619054
 30
0.0
 10
1113.075069
 20
47.463034
 30
0.0
 10
1113.387966
 20
47.237583
 30
0.0
 10
1113.646966
 20
46.952544
 30
0.0
 10
1113.840059
 20
46.620363
 30
0.0
 10
1113.959862
 20
46.255473
 30
0.0
 10
1113.999867
 20
45.874013
 30
0.0
 10
1113.959862
 20
45.492542
 30
0.0
 10
1113.840059
 20
45.127663
 30
0.0
 10
1113.646966
 20
44.795484
 30
0.0
 10
1113.387966
 20
44.510443
 30
0.0
 10
1113.075069
 20
44.284883
 30
0.0
 10
1112.721956
 20
44.128853
 30
0.0
 10
1112.342967
 20
44.049152
 30
0.0
  0
LWPOLYLINE
  5
137
100
AcDbEntity
  8
Layer_1
 62
7
100
AcDbPolyline
 90
30
 70
1
 10
1021.946166
 20
44.049152
 30
0.0
 10
1021.567071
 20
44.128853
 30
0.0
 10
1021.214064
 20
44.284883
 30
0.0
 10
1020.901062
 20
44.510443
 30
0.0
 10
1020.642168
 20
44.795484
 30
0.0
 10
1020.448969
 20
45.127663
 30
0.0
 10
1020.329165
 20
45.492542
 30
0.0
 10
1020.289160
 20
45.874013
 30
0.0
 10
1020.329165
 20
46.255473
 30
0.0
 10
1020.448969
 20
46.620363
 30
0.0
 10
1020.642168
 20
46.952544
 30
0.0
 10
1020.901062
 20
47.237583
 30
0.0
 10
1021.214064
 20
47.463034
 30
0.0
 10
1021.567071
 20
47.619054
 30
0.0
 10
1021.946166
 20
47.698852
 30
0.0
 10
1022.332273
 20
47.698852
 30
0.0
 10
1022.711262
 20
47.619054
 30
0.0
 10
1023.064269
 20
47.463034
 30
0.0
 10
1023.377271
 20
47.237583
 30
0.0
 10
1023.636166
 20
46.952544
 30
0.0
 10
1023.829365
 20
46.620363
 30
0.0
 10
1023.949168
 20
46.255473
 30
0.0
 10
1023.989173
 20
45.874013
 30
0.0
 10
1023.949168
 20
45.492542
 30
0.0
 10
1023.829365
 20
45.127663
 30
0.0
 10
1023.636166
 20
44.795484
 30
0.0
 10
1023.377271
 20
44.510443
 30
0.0
 10
1023.064269
 20
44.284883
 30
0.0
 10
1022.711262
 20
44.128853
 30
0.0
 10
1022.332273
 20
44.049152
 30
0.0
  0
LWPOLYLINE
  5
138
100
AcDbEntity
  8
Layer_1
 62
7
100
AcDbPolyline
 90
30
 70
1
 10
921.934407
 20
44.049152
 30
0.0
 10
921.556080
 20
44.128853
 30
0.0
 10
921.202649
 20
44.284883
 30
0.0
 10
920.889674
 20
44.510443
 30
0.0
 10
920.630752
 20
44.795484
 30
0.0
 10
920.437210
 20
45.127663
 30
0.0
 10
920.317777
 20
45.492542
 30
0.0
 10
920.277269
 20
45.874013
 30
0.0
 10
920.317777
 20
46.255473
 30
0.0
 10
920.437210
 20
46.620363
 30
0.0
 10
920.630752
 20
46.952544
 30
0.0
 10
920.889674
 20
47.237583
 30
0.0
 10
921.202649
 20
47.463034
 30
0.0
 10
921.556080
 20
47.619054
 30
0.0
 10
921.934407
 20
47.698852
 30
0.0
 10
922.321255
 20
47.698852
 30
0.0
 10
922.699582
 20
47.619054
 30
0.0
 10
923.053013
 20
47.463034
 30
0.0
 10
923.365988
 20
47.237583
 30
0.0
 10
923.624910
 20
46.952544
 30
0.0
 10
923.818082
 20
46.620363
 30
0.0
 10
923.937912
 20
46.255473
 30
0.0
 10
923.978393
 20
45.874013
 30
0.0
 10
923.937912
 20
45.492542
 30
0.0
 10
923.818082
 20
45.127663
 30
0.0
 10
923.624910
 20
44.795484
 30
0.0
 10
923.365988
 20
44.510443
 30
0.0
 10
923.053013
 20
44.284883
 30
0.0
 10
922.699582
 20
44.128853
 30
0.0
 10
922.321255
 20
44.049152
 30
0.0
  0
LWPOLYLINE
  5
139
100
AcDbEntity
  8
Layer_1
 62
7
100
AcDbPolyline
 90
30
 70
1
 10
1161.962952
 20
44.049152
 30
0.0
 10
1161.584069
 20
44.128853
 30
0.0
 10
1161.230956
 20
44.284883
 30
0.0
 10
1160.917954
 20
44.510443
 30
0.0
 10
1160.659059
 20
44.795484
 30
0.0
 10
1160.465860
 20
45.127663
 30
0.0
 10
1160.346057
 20
45.492542
 30
0.0
 10
1160.306052
 20
45.874013
 30
0.0
 10
1160.346057
 20
46.255473
 30
0.0
 10
1160.465860
 20
46.620363
 30
0.0
 10
1160.659059
 20
46.952544
 30
0.0
 10
1160.917954
 20
47.237583
 30
0.0
 10
1161.230956
 20
47.463034
 30
0.0
 10
1161.584069
 20
47.619054
 30
0.0
 10
1161.962952
 20
47.698852
 30
0.0
 10
1162.349059
 20
47.698852
 30
0.0
 10
1162.728048
 20
47.619054
 30
0.0
 10
1163.081161
 20
47.463034
 30
0.0
 10
1163.394163
 20
47.237583
 30
0.0
 10
1163.653058
 20
46.952544
 30
0.0
 10
1163.846256
 20
46.620363
 30
0.0
 10
1163.966060
 20
46.255473
 30
0.0
 10
1164.006065
 20
45.874013
 30
0.0
 10
1163.966060
 20
45.492542
 30
0.0
 10
1163.846256
 20
45.127663
 30
0.0
 10
1163.653058
 20
44.795484
 30
0.0
 10
1163.394163
 20
44.510443
 30
0.0
 10
1163.081161
 20
44.284883
 30
0.0
 10
1162.728048
 20
44.128853
 30
0.0
 10
1162.349059
 20
44.049152
 30
0.0
  0
LWPOLYLINE
  5
13a
100
AcDbEntity
  8
Layer_1
 62
7
100
AcDbPolyline
 90
4
 70
1
 10
925.128193
 20
17.110441
 30
0.0
 10
925.128193
 20
39.922962
 30
0.0
 10
1021.139055
 20
39.922962
 30
0.0
 10
1021.139055
 20
17.110441
 30
0.0
  0
LWPOLYLINE
  5
13b
100
AcDbEntity
  8
Layer_1
 62
7
100
AcDbPolyline
 90
4
 70
1
 10
1065.144264
 20
17.110441
 30
0.0
 10
1065.144264
 20
39.922962
 30
0.0
 10
1161.155973
 20
39.922962
 30
0.0
 10
1161.155973
 20
17.110441
 30
0.0
  0
LWPOLYLINE
  5
13c
100
AcDbEntity
  8
Layer_1
 62
7
100
AcDbPolyline
 90
30
 70
1
 10
850.719316
 20
14.170788
 30
0.0
 10
850.170755
 20
14.286438
 30
0.0
 10
849.658310
 20
14.512683
 30
0.0
 10
849.204629
 20
14.839602
 30
0.0
 10
848.829291
 20
15.253014
 30
0.0
 10
848.548833
 20
15.734635
 30
0.0
 10
848.375319
 20
16.263695
 30
0.0
 10
848.316714
 20
16.816860
 30
0.0
 10
848.375319
 20
17.369998
 30
0.0
 10
848.548833
 20
17.899059
 30
0.0
 10
848.829291
 20
18.380706
 30
0.0
 10
849.204629
 20
18.794091
 30
0.0
 10
849.658310
 20
19.121037
 30
0.0
 10
850.170755
 20
19.347282
 30
0.0
 10
850.719316
 20
19.462905
 30
0.0
 10
851.280180
 20
19.462905
 30
0.0
 10
851.828740
 20
19.347282
 30
0.0
 10
852.341106
 20
19.121037
 30
0.0
 10
852.794840
 20
18.794091
 30
0.0
 10
853.170178
 20
18.380706
 30
0.0
 10
853.450663
 20
17.899059
 30
0.0
 10
853.624176
 20
17.369998
 30
0.0
 10
853.682782
 20
16.816860
 30
0.0
 10
853.624176
 20
16.263695
 30
0.0
 10
853.450663
 20
15.734635
 30
0.0
 10
853.170178
 20
15.253014
 30
0.0
 10
852.794840
 20
14.839602
 30
0.0
 10
852.341106
 20
14.512683
 30
0.0
 10
851.828740
 20
14.286438
 30
0.0
 10
851.280180
 20
14.170788
 30
0.0
  0
LWPOLYLINE
  5
13d
100
AcDbEntity
  8
Layer_1
 62
7
100
AcDbPolyline
 90
30
 70
1
 10
884.133095
 20
14.170788
 30
0.0
 10
883.584561
 20
14.286438
 30
0.0
 10
883.072116
 20
14.512683
 30
0.0
 10
882.618435
 20
14.839602
 30
0.0
 10
882.243097
 20
15.253014
 30
0.0
 10
881.962612
 20
15.734635
 30
0.0
 10
881.789496
 20
16.263695
 30
0.0
 10
881.730890
 20
16.816860
 30
0.0
 10
881.789496
 20
17.369998
 30
0.0
 10
881.962612
 20
17.899059
 30
0.0
 10
882.243097
 20
18.380706
 30
0.0
 10
882.618435
 20
18.794091
 30
0.0
 10
883.072116
 20
19.121037
 30
0.0
 10
883.584561
 20
19.347282
 30
0.0
 10
884.133095
 20
19.462905
 30
0.0
 10
884.693986
 20
19.462905
 30
0.0
 10
885.242520
 20
19.347282
 30
0.0
 10
885.754912
 20
19.121037
 30
0.0
 10
886.208646
 20
18.794091
 30
0.0
 10
886.583984
 20
18.380706
 30
0.0
 10
886.864469
 20
17.899059
 30
0.0
 10
887.037585
 20
17.369998
 30
0.0
 10
887.096191
 20
16.816860
 30
0.0
 10
887.037585
 20
16.263695
 30
0.0
 10
886.864469
 20
15.734635
 30
0.0
 10
886.583984
 20
15.253014
 30
0.0
 10
886.208646
 20
14.839602
 30
0.0
 10
885.754912
 20
14.512683
 30
0.0
 10
885.242520
 20
14.286438
 30
0.0
 10
884.693986
 20
14.170788
 30
0.0
  0
LWPOLYLINE
  5
13e
100
AcDbEntity
  8
Layer_1
 62
7
100
AcDbPolyline
 90
30
 70
1
 10
1161.962952
 20
9.334470
 30
0.0
 10
1161.584069
 20
9.414268
 30
0.0
 10
1161.230956
 20
9.570293
 30
0.0
 10
1160.917954
 20
9.795771
 30
0.0
 10
1160.659059
 20
10.080806
 30
0.0
 10
1160.465860
 20
10.412991
 30
0.0
 10
1160.346057
 20
10.777878
 30
0.0
 10
1160.306052
 20
11.159354
 30
0.0
 10
1160.346057
 20
11.540804
 30
0.0
 10
1160.465860
 20
11.905690
 30
0.0
 10
1160.659059
 20
12.237875
 30
0.0
 10
1160.917954
 20
12.522910
 30
0.0
 10
1161.230956
 20
12.748362
 30
0.0
 10
1161.584069
 20
12.904387
 30
0.0
 10
1161.962952
 20
12.984185
 30
0.0
 10
1162.349059
 20
12.984185
 30
0.0
 10
1162.728048
 20
12.904387
 30
0.0
 10
1163.081161
 20
12.748362
 30
0.0
 10
1163.394163
 20
12.522910
 30
0.0
 10
1163.653058
 20
12.237875
 30
0.0
 10
1163.846256
 20
11.905690
 30
0.0
 10
1163.966060
 20
11.540804
 30
0.0
 10
1164.006065
 20
11.159354
 30
0.0
 10
1163.966060
 20
10.777878
 30
0.0
 10
1163.846256
 20
10.412991
 30
0.0
 10
1163.653058
 20
10.080806
 30
0.0
 10
1163.394163
 20
9.795771
 30
0.0
 10
1163.081161
 20
9.570293
 30
0.0
 10
1162.728048
 20
9.414268
 30
0.0
 10
1162.349059
 20
9.334470
 30
0.0
  0
LWPOLYLINE
  5
13f
100
AcDbEntity
  8
Layer_1
 62
7
100
AcDbPolyline
 90
30
 70
1
 10
1111.956967
 20
9.334470
 30
0.0
 10
1111.577872
 20
9.414268
 30
0.0
 10
1111.224759
 20
9.570293
 30
0.0
 10
1110.911757
 20
9.795771
 30
0.0
 10
1110.652862
 20
10.080806
 30
0.0
 10
1110.459769
 20
10.412991
 30
0.0
 10
1110.339860
 20
10.777878
 30
0.0
 10
1110.299855
 20
11.159354
 30
0.0
 10
1110.339860
 20
11.540804
 30
0.0
 10
1110.459769
 20
11.905690
 30
0.0
 10
1110.652862
 20
12.237875
 30
0.0
 10
1110.911757
 20
12.522910
 30
0.0
 10
1111.224759
 20
12.748362
 30
0.0
 10
1111.577872
 20
12.904387
 30
0.0
 10
1111.956967
 20
12.984185
 30
0.0
 10
1112.342967
 20
12.984185
 30
0.0
 10
1112.721956
 20
12.904387
 30
0.0
 10
1113.075069
 20
12.748362
 30
0.0
 10
1113.387966
 20
12.522910
 30
0.0
 10
1113.646966
 20
12.237875
 30
0.0
 10
1113.840059
 20
11.905690
 30
0.0
 10
1113.959862
 20
11.540804
 30
0.0
 10
1113.999867
 20
11.159354
 30
0.0
 10
1113.959862
 20
10.777878
 30
0.0
 10
1113.840059
 20
10.412991
 30
0.0
 10
1113.646966
 20
10.080806
 30
0.0
 10
1113.387966
 20
9.795771
 30
0.0
 10
1113.075069
 20
9.570293
 30
0.0
 10
1112.721956
 20
9.414268
 30
0.0
 10
1112.342967
 20
9.334470
 30
0.0
  0
LWPOLYLINE
  5
140
100
AcDbEntity
  8
Layer_1
 62
7
100
AcDbPolyline
 90
30
 70
1
 10
971.940472
 20
9.334470
 30
0.0
 10
971.561430
 20
9.414268
 30
0.0
 10
971.208370
 20
9.570293
 30
0.0
 10
970.895394
 20
9.795771
 30
0.0
 10
970.636473
 20
10.080806
 30
0.0
 10
970.443301
 20
10.412991
 30
0.0
 10
970.323101
 20
10.777878
 30
0.0
 10
970.283016
 20
11.159354
 30
0.0
 10
970.323101
 20
11.540804
 30
0.0
 10
970.443301
 20
11.905690
 30
0.0
 10
970.636473
 20
12.237875
 30
0.0
 10
970.895394
 20
12.522910
 30
0.0
 10
971.208370
 20
12.748362
 30
0.0
 10
971.561430
 20
12.904387
 30
0.0
 10
971.940472
 20
12.984185
 30
0.0
 10
972.326526
 20
12.984185
 30
0.0
 10
972.705568
 20
12.904387
 30
0.0
 10
973.058628
 20
12.748362
 30
0.0
 10
973.371603
 20
12.522910
 30
0.0
 10
973.630525
 20
12.237875
 30
0.0
 10
973.823697
 20
11.905690
 30
0.0
 10
973.943500
 20
11.540804
 30
0.0
 10
973.983611
 20
11.159354
 30
0.0
 10
973.943500
 20
10.777878
 30
0.0
 10
973.823697
 20
10.412991
 30
0.0
 10
973.630525
 20
10.080806
 30
0.0
 10
973.371603
 20
9.795771
 30
0.0
 10
973.058628
 20
9.570293
 30
0.0
 10
972.705568
 20
9.414268
 30
0.0
 10
972.326526
 20
9.334470
 30
0.0
  0
LWPOLYLINE
  5
141
100
AcDbEntity
  8
Layer_1
 62
7
100
AcDbPolyline
 90
30
 70
1
 10
1061.950955
 20
9.334470
 30
0.0
 10
1061.571860
 20
9.414268
 30
0.0
 10
1061.218853
 20
9.570293
 30
0.0
 10
1060.905851
 20
9.795771
 30
0.0
 10
1060.646956
 20
10.080806
 30
0.0
 10
1060.453757
 20
10.412991
 30
0.0
 10
1060.333557
 20
10.777878
 30
0.0
 10
1060.293552
 20
11.159354
 30
0.0
 10
1060.333557
 20
11.540804
 30
0.0
 10
1060.453757
 20
11.905690
 30
0.0
 10
1060.646956
 20
12.237875
 30
0.0
 10
1060.905851
 20
12.522910
 30
0.0
 10
1061.218853
 20
12.748362
 30
0.0
 10
1061.571860
 20
12.904387
 30
0.0
 10
1061.950955
 20
12.984185
 30
0.0
 10
1062.336955
 20
12.984185
 30
0.0
 10
1062.716050
 20
12.904387
 30
0.0
 10
1063.069058
 20
12.748362
 30
0.0
 10
1063.382060
 20
12.522910
 30
0.0
 10
1063.640954
 20
12.237875
 30
0.0
 10
1063.834153
 20
11.905690
 30
0.0
 10
1063.953956
 20
11.540804
 30
0.0
 10
1063.993961
 20
11.159354
 30
0.0
 10
1063.953956
 20
10.777878
 30
0.0
 10
1063.834153
 20
10.412991
 30
0.0
 10
1063.640954
 20
10.080806
 30
0.0
 10
1063.382060
 20
9.795771
 30
0.0
 10
1063.069058
 20
9.570293
 30
0.0
 10
1062.716050
 20
9.414268
 30
0.0
 10
1062.336955
 20
9.334470
 30
0.0
  0
LWPOLYLINE
  5
142
100
AcDbEntity
  8
Layer_1
 62
7
100
AcDbPolyline
 90
30
 70
1
 10
1021.946166
 20
9.334470
 30
0.0
 10
1021.567071
 20
9.414268
 30
0.0
 10
1021.214064
 20
9.570293
 30
0.0
 10
1020.901062
 20
9.795771
 30
0.0
 10
1020.642168
 20
10.080806
 30
0.0
 10
1020.448969
 20
10.412991
 30
0.0
 10
1020.329165
 20
10.777878
 30
0.0
 10
1020.289160
 20
11.159354
 30
0.0
 10
1020.329165
 20
11.540804
 30
0.0
 10
1020.448969
 20
11.905690
 30
0.0
 10
1020.642168
 20
12.237875
 30
0.0
 10
1020.901062
 20
12.522910
 30
0.0
 10
1021.214064
 20
12.748362
 30
0.0
 10
1021.567071
 20
12.904387
 30
0.0
 10
1021.946166
 20
12.984185
 30
0.0
 10
1022.332273
 20
12.984185
 30
0.0
 10
1022.711262
 20
12.904387
 30
0.0
 10
1023.064269
 20
12.748362
 30
0.0
 10
1023.377271
 20
12.522910
 30
0.0
 10
1023.636166
 20
12.237875
 30
0.0
 10
1023.829365
 20
11.905690
 30
0.0
 10
1023.949168
 20
11.540804
 30
0.0
 10
1023.989173
 20
11.159354
 30
0.0
 10
1023.949168
 20
10.777878
 30
0.0
 10
1023.829365
 20
10.412991
 30
0.0
 10
1023.636166
 20
10.080806
 30
0.0
 10
1023.377271
 20
9.795771
 30
0.0
 10
1023.064269
 20
9.570293
 30
0.0
 10
1022.711262
 20
9.414268
 30
0.0
 10
1022.332273
 20
9.334470
 30
0.0
  0
LWPOLYLINE
  5
143
100
AcDbEntity
  8
Layer_1
 62
7
100
AcDbPolyline
 90
30
 70
1
 10
921.934407
 20
9.334470
 30
0.0
 10
921.556080
 20
9.414268
 30
0.0
 10
921.202649
 20
9.570293
 30
0.0
 10
920.889674
 20
9.795771
 30
0.0
 10
920.630752
 20
10.080806
 30
0.0
 10
920.437210
 20
10.412991
 30
0.0
 10
920.317777
 20
10.777878
 30
0.0
 10
920.277269
 20
11.159354
 30
0.0
 10
920.317777
 20
11.540804
 30
0.0
 10
920.437210
 20
11.905690
 30
0.0
 10
920.630752
 20
12.237875
 30
0.0
 10
920.889674
 20
12.522910
 30
0.0
 10
921.202649
 20
12.748362
 30
0.0
 10
921.556080
 20
12.904387
 30
0.0
 10
921.934407
 20
12.984185
 30
0.0
 10
922.321255
 20
12.984185
 30
0.0
 10
922.699582
 20
12.904387
 30
0.0
 10
923.053013
 20
12.748362
 30
0.0
 10
923.365988
 20
12.522910
 30
0.0
 10
923.624910
 20
12.237875
 30
0.0
 10
923.818082
 20
11.905690
 30
0.0
 10
923.937912
 20
11.540804
 30
0.0
 10
923.978393
 20
11.159354
 30
0.0
 10
923.937912
 20
10.777878
 30
0.0
 10
923.818082
 20
10.412991
 30
0.0
 10
923.624910
 20
10.080806
 30
0.0
 10
923.365988
 20
9.795771
 30
0.0
 10
923.053013
 20
9.570293
 30
0.0
 10
922.699582
 20
9.414268
 30
0.0
 10
922.321255
 20
9.334470
 30
0.0
  0
LWPOLYLINE
  5
144
100
AcDbEntity
  8
Layer_1
 62
7
100
AcDbPolyline
 90
4
 70
1
 10
1202.479471
 20
128.480734
 30
0.0
 10
832.237668
 20
128.480734
 30
0.0
 10
832.237668
 20
66.178413
 30
0.0
 10
1202.479471
 20
66.178413
 30
0.0
  0
LWPOLYLINE
  5
145
100
AcDbEntity
  8
Layer_1
 62
7
100
AcDbPolyline
 90
30
 70
1
 10
983.840875
 20
109.988584
 30
0.0
 10
983.462415
 20
110.068282
 30
0.0
 10
983.109857
 20
110.224304
 30
0.0
 10
982.797358
 20
110.450213
 30
0.0
 10
982.538807
 20
110.735053
 30
0.0
 10
982.345926
 20
111.067113
 30
0.0
 10
982.226281
 20
111.432042
 30
0.0
 10
982.186276
 20
111.813564
 30
0.0
 10
982.226281
 20
112.195114
 30
0.0
 10
982.345926
 20
112.560033
 30
0.0
 10
982.538807
 20
112.892103
 30
0.0
 10
982.797358
 20
113.176943
 30
0.0
 10
983.109857
 20
113.402474
 30
0.0
 10
983.462415
 20
113.558493
 30
0.0
 10
983.840875
 20
113.638194
 30
0.0
 10
984.226373
 20
113.638194
 30
0.0
 10
984.604859
 20
113.558493
 30
0.0
 10
984.957390
 20
113.402474
 30
0.0
 10
985.269916
 20
113.176943
 30
0.0
 10
985.528467
 20
112.892103
 30
0.0
 10
985.721348
 20
112.560033
 30
0.0
 10
985.840992
 20
112.195114
 30
0.0
 10
985.880997
 20
111.813564
 30
0.0
 10
985.840992
 20
111.432042
 30
0.0
 10
985.721348
 20
111.067113
 30
0.0
 10
985.528467
 20
110.735053
 30
0.0
 10
985.269916
 20
110.450213
 30
0.0
 10
984.957390
 20
110.224304
 30
0.0
 10
984.604859
 20
110.068282
 30
0.0
 10
984.226373
 20
109.988584
 30
0.0
  0
LWPOLYLINE
  5
146
100
AcDbEntity
  8
Layer_1
 62
7
100
AcDbPolyline
 90
30
 70
1
 10
883.974769
 20
109.988584
 30
0.0
 10
883.596944
 20
110.068282
 30
0.0
 10
883.244016
 20
110.224304
 30
0.0
 10
882.931490
 20
110.450213
 30
0.0
 10
882.672939
 20
110.735053
 30
0.0
 10
882.479688
 20
111.067113
 30
0.0
 10
882.360414
 20
111.432042
 30
0.0
 10
882.320012
 20
111.813564
 30
0.0
 10
882.360414
 20
112.195114
 30
0.0
 10
882.479688
 20
112.560033
 30
0.0
 10
882.672939
 20
112.892103
 30
0.0
 10
882.931490
 20
113.176943
 30
0.0
 10
883.244016
 20
113.402474
 30
0.0
 10
883.596944
 20
113.558493
 30
0.0
 10
883.974769
 20
113.638194
 30
0.0
 10
884.361034
 20
113.638194
 30
0.0
 10
884.738833
 20
113.558493
 30
0.0
 10
885.091734
 20
113.402474
 30
0.0
 10
885.404260
 20
113.176943
 30
0.0
 10
885.662810
 20
112.892103
 30
0.0
 10
885.855692
 20
112.560033
 30
0.0
 10
885.974939
 20
112.195114
 30
0.0
 10
886.015341
 20
111.813564
 30
0.0
 10
885.974939
 20
111.432042
 30
0.0
 10
885.855692
 20
111.067113
 30
0.0
 10
885.662810
 20
110.735053
 30
0.0
 10
885.404260
 20
110.450213
 30
0.0
 10
885.091734
 20
110.224304
 30
0.0
 10
884.738833
 20
110.068282
 30
0.0
 10
884.361034
 20
109.988584
 30
0.0
  0
LWPOLYLINE
  5
147
100
AcDbEntity
  8
Layer_1
 62
7
100
AcDbPolyline
 90
30
 70
1
 10
1045.757158
 20
109.988584
 30
0.0
 10
1045.378672
 20
110.068282
 30
0.0
 10
1045.026062
 20
110.224304
 30
0.0
 10
1044.713668
 20
110.450213
 30
0.0
 10
1044.455064
 20
110.735053
 30
0.0
 10
1044.262157
 20
111.067113
 30
0.0
 10
1044.142459
 20
111.432042
 30
0.0
 10
1044.102454
 20
111.813564
 30
0.0
 10
1044.142459
 20
112.195114
 30
0.0
 10
1044.262157
 20
112.560033
 30
0.0
 10
1044.455064
 20
112.892103
 30
0.0
 10
1044.713668
 20
113.176943
 30
0.0
 10
1045.026062
 20
113.402474
 30
0.0
 10
1045.378672
 20
113.558493
 30
0.0
 10
1045.757158
 20
113.638194
 30
0.0
 10
1046.142550
 20
113.638194
 30
0.0
 10
1046.521169
 20
113.558493
 30
0.0
 10
1046.873674
 20
113.402474
 30
0.0
 10
1047.186173
 20
113.176943
 30
0.0
 10
1047.444750
 20
112.892103
 30
0.0
 10
1047.637552
 20
112.560033
 30
0.0
 10
1047.757250
 20
112.195114
 30
0.0
 10
1047.797255
 20
111.813564
 30
0.0
 10
1047.757250
 20
111.432042
 30
0.0
 10
1047.637552
 20
111.067113
 30
0.0
 10
1047.444750
 20
110.735053
 30
0.0
 10
1047.186173
 20
110.450213
 30
0.0
 10
1046.873674
 20
110.224304
 30
0.0
 10
1046.521169
 20
110.068282
 30
0.0
 10
1046.142550
 20
109.988584
 30
0.0
  0
LWPOLYLINE
  5
148
100
AcDbEntity
  8
Layer_1
 62
7
100
AcDbPolyline
 90
30
 70
1
 10
1095.690066
 20
109.988584
 30
0.0
 10
1095.311474
 20
110.068282
 30
0.0
 10
1094.959049
 20
110.224304
 30
0.0
 10
1094.646470
 20
110.450213
 30
0.0
 10
1094.387866
 20
110.735053
 30
0.0
 10
1094.195064
 20
111.067113
 30
0.0
 10
1094.075472
 20
111.432042
 30
0.0
 10
1094.035467
 20
111.813564
 30
0.0
 10
1094.075472
 20
112.195114
 30
0.0
 10
1094.195064
 20
112.560033
 30
0.0
 10
1094.387866
 20
112.892103
 30
0.0
 10
1094.646470
 20
113.176943
 30
0.0
 10
1094.959049
 20
113.402474
 30
0.0
 10
1095.311474
 20
113.558493
 30
0.0
 10
1095.690066
 20
113.638194
 30
0.0
 10
1096.075458
 20
113.638194
 30
0.0
 10
1096.453971
 20
113.558493
 30
0.0
 10
1096.806555
 20
113.402474
 30
0.0
 10
1097.119054
 20
113.176943
 30
0.0
 10
1097.377552
 20
112.892103
 30
0.0
 10
1097.570460
 20
112.560033
 30
0.0
 10
1097.690157
 20
112.195114
 30
0.0
 10
1097.730162
 20
111.813564
 30
0.0
 10
1097.690157
 20
111.432042
 30
0.0
 10
1097.570460
 20
111.067113
 30
0.0
 10
1097.377552
 20
110.735053
 30
0.0
 10
1097.119054
 20
110.450213
 30
0.0
 10
1096.806555
 20
110.224304
 30
0.0
 10
1096.453971
 20
110.068282
 30
0.0
 10
1096.075458
 20
109.988584
 30
0.0
  0
LWPOLYLINE
  5
149
100
AcDbEntity
  8
Layer_1
 62
7
100
AcDbPolyline
 90
30
 70
1
 10
933.908020
 20
109.988584
 30
0.0
 10
933.529534
 20
110.068282
 30
0.0
 10
933.177003
 20
110.224304
 30
0.0
 10
932.864451
 20
110.450213
 30
0.0
 10
932.605900
 20
110.735053
 30
0.0
 10
932.413045
 20
111.067113
 30
0.0
 10
932.293400
 20
111.432042
 30
0.0
 10
932.253395
 20
111.813564
 30
0.0
 10
932.293400
 20
112.195114
 30
0.0
 10
932.413045
 20
112.560033
 30
0.0
 10
932.605900
 20
112.892103
 30
0.0
 10
932.864451
 20
113.176943
 30
0.0
 10
933.177003
 20
113.402474
 30
0.0
 10
933.529534
 20
113.558493
 30
0.0
 10
933.908020
 20
113.638194
 30
0.0
 10
934.293518
 20
113.638194
 30
0.0
 10
934.671978
 20
113.558493
 30
0.0
 10
935.024509
 20
113.402474
 30
0.0
 10
935.337035
 20
113.176943
 30
0.0
 10
935.595586
 20
112.892103
 30
0.0
 10
935.788467
 20
112.560033
 30
0.0
 10
935.908111
 20
112.195114
 30
0.0
 10
935.948116
 20
111.813564
 30
0.0
 10
935.908111
 20
111.432042
 30
0.0
 10
935.788467
 20
111.067113
 30
0.0
 10
935.595586
 20
110.735053
 30
0.0
 10
935.337035
 20
110.450213
 30
0.0
 10
935.024509
 20
110.224304
 30
0.0
 10
934.671978
 20
110.068282
 30
0.0
 10
934.293518
 20
109.988584
 30
0.0
  0
LWPOLYLINE
  5
14a
100
AcDbEntity
  8
Layer_1
 62
7
100
AcDbPolyline
 90
30
 70
1
 10
1145.622867
 20
109.988584
 30
0.0
 10
1145.244460
 20
110.068282
 30
0.0
 10
1144.891850
 20
110.224304
 30
0.0
 10
1144.579351
 20
110.450213
 30
0.0
 10
1144.320853
 20
110.735053
 30
0.0
 10
1144.127972
 20
111.067113
 30
0.0
 10
1144.008354
 20
111.432042
 30
0.0
 10
1143.968349
 20
111.813564
 30
0.0
 10
1144.008354
 20
112.195114
 30
0.0
 10
1144.127972
 20
112.560033
 30
0.0
 10
1144.320853
 20
112.892103
 30
0.0
 10
1144.579351
 20
113.176943
 30
0.0
 10
1144.891850
 20
113.402474
 30
0.0
 10
1145.244460
 20
113.558493
 30
0.0
 10
1145.622867
 20
113.638194
 30
0.0
 10
1146.008365
 20
113.638194
 30
0.0
 10
1146.386852
 20
113.558493
 30
0.0
 10
1146.739462
 20
113.402474
 30
0.0
 10
1147.051961
 20
113.176943
 30
0.0
 10
1147.310459
 20
112.892103
 30
0.0
 10
1147.503367
 20
112.560033
 30
0.0
 10
1147.623356
 20
112.195114
 30
0.0
 10
1147.663361
 20
111.813564
 30
0.0
 10
1147.623356
 20
111.432042
 30
0.0
 10
1147.503367
 20
111.067113
 30
0.0
 10
1147.310459
 20
110.735053
 30
0.0
 10
1147.051961
 20
110.450213
 30
0.0
 10
1146.739462
 20
110.224304
 30
0.0
 10
1146.386852
 20
110.068282
 30
0.0
 10
1146.008365
 20
109.988584
 30
0.0
  0
LWPOLYLINE
  5
14b
100
AcDbEntity
  8
Layer_1
 62
7
100
AcDbPolyline
 90
4
 70
1
 10
1048.945864
 20
83.043724
 30
0.0
 10
1048.945864
 20
105.861412
 30
0.0
 10
1144.816973
 20
105.861412
 30
0.0
 10
1144.816973
 20
83.043724
 30
0.0
  0
LWPOLYLINE
  5
14c
100
AcDbEntity
  8
Layer_1
 62
7
100
AcDbPolyline
 90
4
 70
1
 10
887.163871
 20
83.043724
 30
0.0
 10
887.163871
 20
105.861412
 30
0.0
 10
983.034980
 20
105.861412
 30
0.0
 10
983.034980
 20
83.043724
 30
0.0
  0
LWPOLYLINE
  5
14d
100
AcDbEntity
  8
Layer_1
 62
7
100
AcDbPolyline
 90
30
 70
1
 10
1145.622867
 20
75.265972
 30
0.0
 10
1145.244460
 20
75.345672
 30
0.0
 10
1144.891850
 20
75.501692
 30
0.0
 10
1144.579351
 20
75.726844
 30
0.0
 10
1144.320853
 20
76.011692
 30
0.0
 10
1144.127972
 20
76.343752
 30
0.0
 10
1144.008354
 20
76.708684
 30
0.0
 10
1143.968349
 20
77.090232
 30
0.0
 10
1144.008354
 20
77.471782
 30
0.0
 10
1144.127972
 20
77.836714
 30
0.0
 10
1144.320853
 20
78.168774
 30
0.0
 10
1144.579351
 20
78.453992
 30
0.0
 10
1144.891850
 20
78.679523
 30
0.0
 10
1145.244460
 20
78.835542
 30
0.0
 10
1145.622867
 20
78.915243
 30
0.0
 10
1146.008365
 20
78.915243
 30
0.0
 10
1146.386852
 20
78.835542
 30
0.0
 10
1146.739462
 20
78.679523
 30
0.0
 10
1147.051961
 20
78.453992
 30
0.0
 10
1147.310459
 20
78.168774
 30
0.0
 10
1147.503367
 20
77.836714
 30
0.0
 10
1147.623356
 20
77.471782
 30
0.0
 10
1147.663361
 20
77.090232
 30
0.0
 10
1147.623356
 20
76.708684
 30
0.0
 10
1147.503367
 20
76.343752
 30
0.0
 10
1147.310459
 20
76.011692
 30
0.0
 10
1147.051961
 20
75.726844
 30
0.0
 10
1146.739462
 20
75.501692
 30
0.0
 10
1146.386852
 20
75.345672
 30
0.0
 10
1146.008365
 20
75.265972
 30
0.0
  0
LWPOLYLINE
  5
14e
100
AcDbEntity
  8
Layer_1
 62
7
100
AcDbPolyline
 90
30
 70
1
 10
1045.757158
 20
75.265972
 30
0.0
 10
1045.378672
 20
75.345672
 30
0.0
 10
1045.026062
 20
75.501692
 30
0.0
 10
1044.713668
 20
75.726844
 30
0.0
 10
1044.455064
 20
76.011692
 30
0.0
 10
1044.262157
 20
76.343752
 30
0.0
 10
1044.142459
 20
76.708684
 30
0.0
 10
1044.102454
 20
77.090232
 30
0.0
 10
1044.142459
 20
77.471782
 30
0.0
 10
1044.262157
 20
77.836714
 30
0.0
 10
1044.455064
 20
78.168774
 30
0.0
 10
1044.713668
 20
78.453992
 30
0.0
 10
1045.026062
 20
78.679523
 30
0.0
 10
1045.378672
 20
78.835542
 30
0.0
 10
1045.757158
 20
78.915243
 30
0.0
 10
1046.142550
 20
78.915243
 30
0.0
 10
1046.521169
 20
78.835542
 30
0.0
 10
1046.873674
 20
78.679523
 30
0.0
 10
1047.186173
 20
78.453992
 30
0.0
 10
1047.444750
 20
78.168774
 30
0.0
 10
1047.637552
 20
77.836714
 30
0.0
 10
1047.757250
 20
77.471782
 30
0.0
 10
1047.797255
 20
77.090232
 30
0.0
 10
1047.757250
 20
76.708684
 30
0.0
 10
1047.637552
 20
76.343752
 30
0.0
 10
1047.444750
 20
76.011692
 30
0.0
 10
1047.186173
 20
75.726844
 30
0.0
 10
1046.873674
 20
75.501692
 30
0.0
 10
1046.521169
 20
75.345672
 30
0.0
 10
1046.142550
 20
75.265972
 30
0.0
  0
LWPOLYLINE
  5
14f
100
AcDbEntity
  8
Layer_1
 62
7
100
AcDbPolyline
 90
30
 70
1
 10
883.974769
 20
75.265972
 30
0.0
 10
883.596944
 20
75.345672
 30
0.0
 10
883.244016
 20
75.501692
 30
0.0
 10
882.931490
 20
75.726844
 30
0.0
 10
882.672939
 20
76.011692
 30
0.0
 10
882.479688
 20
76.343752
 30
0.0
 10
882.360414
 20
76.708684
 30
0.0
 10
882.320012
 20
77.090232
 30
0.0
 10
882.360414
 20
77.471782
 30
0.0
 10
882.479688
 20
77.836714
 30
0.0
 10
882.672939
 20
78.168774
 30
0.0
 10
882.931490
 20
78.453992
 30
0.0
 10
883.244016
 20
78.679523
 30
0.0
 10
883.596944
 20
78.835542
 30
0.0
 10
883.974769
 20
78.915243
 30
0.0
 10
884.361034
 20
78.915243
 30
0.0
 10
884.738833
 20
78.835542
 30
0.0
 10
885.091734
 20
78.679523
 30
0.0
 10
885.404260
 20
78.453992
 30
0.0
 10
885.662810
 20
78.168774
 30
0.0
 10
885.855692
 20
77.836714
 30
0.0
 10
885.974939
 20
77.471782
 30
0.0
 10
886.015341
 20
77.090232
 30
0.0
 10
885.974939
 20
76.708684
 30
0.0
 10
885.855692
 20
76.343752
 30
0.0
 10
885.662810
 20
76.011692
 30
0.0
 10
885.404260
 20
75.726844
 30
0.0
 10
885.091734
 20
75.501692
 30
0.0
 10
884.738833
 20
75.345672
 30
0.0
 10
884.361034
 20
75.265972
 30
0.0
  0
LWPOLYLINE
  5
150
100
AcDbEntity
  8
Layer_1
 62
7
100
AcDbPolyline
 90
30
 70
1
 10
983.840875
 20
75.265972
 30
0.0
 10
983.462415
 20
75.345672
 30
0.0
 10
983.109857
 20
75.501692
 30
0.0
 10
982.797358
 20
75.726844
 30
0.0
 10
982.538807
 20
76.011692
 30
0.0
 10
982.345926
 20
76.343752
 30
0.0
 10
982.226281
 20
76.708684
 30
0.0
 10
982.186276
 20
77.090232
 30
0.0
 10
982.226281
 20
77.471782
 30
0.0
 10
982.345926
 20
77.836714
 30
0.0
 10
982.538807
 20
78.168774
 30
0.0
 10
982.797358
 20
78.453992
 30
0.0
 10
983.109857
 20
78.679523
 30
0.0
 10
983.462415
 20
78.835542
 30
0.0
 10
983.840875
 20
78.915243
 30
0.0
 10
984.226373
 20
78.915243
 30
0.0
 10
984.604859
 20
78.835542
 30
0.0
 10
984.957390
 20
78.679523
 30
0.0
 10
985.269916
 20
78.453992
 30
0.0
 10
985.528467
 20
78.168774
 30
0.0
 10
985.721348
 20
77.836714
 30
0.0
 10
985.840992
 20
77.471782
 30
0.0
 10
985.880997
 20
77.090232
 30
0.0
 10
985.840992
 20
76.708684
 30
0.0
 10
985.721348
 20
76.343752
 30
0.0
 10
985.528467
 20
76.011692
 30
0.0
 10
985.269916
 20
75.726844
 30
0.0
 10
984.957390
 20
75.501692
 30
0.0
 10
984.604859
 20
75.345672
 30
0.0
 10
984.226373
 20
75.265972
 30
0.0
  0
LWPOLYLINE
  5
151
100
AcDbEntity
  8
Layer_1
 62
7
100
AcDbPolyline
 90
30
 70
1
 10
1095.690066
 20
75.265972
 30
0.0
 10
1095.311474
 20
75.345672
 30
0.0
 10
1094.959049
 20
75.501692
 30
0.0
 10
1094.646470
 20
75.726844
 30
0.0
 10
1094.387866
 20
76.011692
 30
0.0
 10
1094.195064
 20
76.343752
 30
0.0
 10
1094.075472
 20
76.708684
 30
0.0
 10
1094.035467
 20
77.090232
 30
0.0
 10
1094.075472
 20
77.471782
 30
0.0
 10
1094.195064
 20
77.836714
 30
0.0
 10
1094.387866
 20
78.168774
 30
0.0
 10
1094.646470
 20
78.453992
 30
0.0
 10
1094.959049
 20
78.679523
 30
0.0
 10
1095.311474
 20
78.835542
 30
0.0
 10
1095.690066
 20
78.915243
 30
0.0
 10
1096.075458
 20
78.915243
 30
0.0
 10
1096.453971
 20
78.835542
 30
0.0
 10
1096.806555
 20
78.679523
 30
0.0
 10
1097.119054
 20
78.453992
 30
0.0
 10
1097.377552
 20
78.168774
 30
0.0
 10
1097.570460
 20
77.836714
 30
0.0
 10
1097.690157
 20
77.471782
 30
0.0
 10
1097.730162
 20
77.090232
 30
0.0
 10
1097.690157
 20
76.708684
 30
0.0
 10
1097.570460
 20
76.343752
 30
0.0
 10
1097.377552
 20
76.011692
 30
0.0
 10
1097.119054
 20
75.726844
 30
0.0
 10
1096.806555
 20
75.501692
 30
0.0
 10
1096.453971
 20
75.345672
 30
0.0
 10
1096.075458
 20
75.265972
 30
0.0
  0
LWPOLYLINE
  5
152
100
AcDbEntity
  8
Layer_1
 62
7
100
AcDbPolyline
 90
30
 70
1
 10
933.908020
 20
75.265972
 30
0.0
 10
933.529534
 20
75.345672
 30
0.0
 10
933.177003
 20
75.501692
 30
0.0
 10
932.864451
 20
75.726844
 30
0.0
 10
932.605900
 20
76.011692
 30
0.0
 10
932.413045
 20
76.343752
 30
0.0
 10
932.293400
 20
76.708684
 30
0.0
 10
932.253395
 20
77.090232
 30
0.0
 10
932.293400
 20
77.471782
 30
0.0
 10
932.413045
 20
77.836714
 30
0.0
 10
932.605900
 20
78.168774
 30
0.0
 10
932.864451
 20
78.453992
 30
0.0
 10
933.177003
 20
78.679523
 30
0.0
 10
933.529534
 20
78.835542
 30
0.0
 10
933.908020
 20
78.915243
 30
0.0
 10
934.293518
 20
78.915243
 30
0.0
 10
934.671978
 20
78.835542
 30
0.0
 10
935.024509
 20
78.679523
 30
0.0
 10
935.337035
 20
78.453992
 30
0.0
 10
935.595586
 20
78.168774
 30
0.0
 10
935.788467
 20
77.836714
 30
0.0
 10
935.908111
 20
77.471782
 30
0.0
 10
935.948116
 20
77.090232
 30
0.0
 10
935.908111
 20
76.708684
 30
0.0
 10
935.788467
 20
76.343752
 30
0.0
 10
935.595586
 20
76.011692
 30
0.0
 10
935.337035
 20
75.726844
 30
0.0
 10
935.024509
 20
75.501692
 30
0.0
 10
934.671978
 20
75.345672
 30
0.0
 10
934.293518
 20
75.265972
 30
0.0
  0
LWPOLYLINE
  5
153
100
AcDbEntity
  8
Layer_1
 62
7
100
AcDbPolyline
 90
12
 70
1
 10
1171.910227
 20
232.266248
 30
0.0
 10
815.986589
 20
232.266248
 30
0.0
 10
815.986589
 20
211.874636
 30
0.0
 10
795.511543
 20
211.874636
 30
0.0
 10
795.511543
 20
232.266248
 30
0.0
 10
770.542020
 20
232.266248
 30
0.0
 10
766.546865
 20
228.287378
 30
0.0
 10
766.546865
 20
141.747419
 30
0.0
 10
769.792932
 20
138.514607
 30
0.0
 10
1172.659315
 20
138.514607
 30
0.0
 10
1175.048503
 20
140.894058
 30
0.0
 10
1175.048503
 20
229.140746
 30
0.0
  0
LWPOLYLINE
  5
154
100
AcDbEntity
  8
Layer_1
 62
7
100
AcDbPolyline
 90
30
 70
1
 10
779.265385
 20
148.165417
 30
0.0
 10
779.142698
 20
147.585688
 30
0.0
 10
778.899969
 20
147.044271
 30
0.0
 10
778.550402
 20
146.564820
 30
0.0
 10
778.107939
 20
146.168209
 30
0.0
 10
777.592557
 20
145.871955
 30
0.0
 10
777.027275
 20
145.688864
 30
0.0
 10
776.434979
 20
145.626872
 30
0.0
 10
775.842683
 20
145.688864
 30
0.0
 10
775.277400
 20
145.871955
 30
0.0
 10
774.762018
 20
146.168209
 30
0.0
 10
774.319556
 20
146.564820
 30
0.0
 10
773.969988
 20
147.044271
 30
0.0
 10
773.727259
 20
147.585688
 30
0.0
 10
773.604572
 20
148.165417
 30
0.0
 10
773.604572
 20
148.758057
 30
0.0
 10
773.727259
 20
149.337785
 30
0.0
 10
773.969988
 20
149.879176
 30
0.0
 10
774.319556
 20
150.358654
 30
0.0
 10
774.762018
 20
150.755238
 30
0.0
 10
775.277400
 20
151.051492
 30
0.0
 10
775.842683
 20
151.234583
 30
0.0
 10
776.434979
 20
151.296575
 30
0.0
 10
777.027275
 20
151.234583
 30
0.0
 10
777.592557
 20
151.051492
 30
0.0
 10
778.107939
 20
150.755238
 30
0.0
 10
778.550402
 20
150.358654
 30
0.0
 10
778.899969
 20
149.879176
 30
0.0
 10
779.142698
 20
149.337785
 30
0.0
 10
779.265385
 20
148.758057
 30
0.0
  0
LWPOLYLINE
  5
155
100
AcDbEntity
  8
Layer_1
 62
7
100
AcDbPolyline
 90
30
 70
1
 10
803.735507
 20
177.012067
 30
0.0
 10
803.612846
 20
176.432346
 30
0.0
 10
803.370118
 20
175.890937
 30
0.0
 10
803.020550
 20
175.411475
 30
0.0
 10
802.578088
 20
175.014886
 30
0.0
 10
802.062706
 20
174.718637
 30
0.0
 10
801.497397
 20
174.535546
 30
0.0
 10
800.905127
 20
174.473546
 30
0.0
 10
800.312831
 20
174.535546
 30
0.0
 10
799.747549
 20
174.718637
 30
0.0
 10
799.232140
 20
175.014886
 30
0.0
 10
798.789704
 20
175.411475
 30
0.0
 10
798.440136
 20
175.890937
 30
0.0
 10
798.197408
 20
176.432346
 30
0.0
 10
798.074720
 20
177.012067
 30
0.0
 10
798.074720
 20
177.604726
 30
0.0
 10
798.197408
 20
178.184446
 30
0.0
 10
798.440136
 20
178.725855
 30
0.0
 10
798.789704
 20
179.205307
 30
0.0
 10
799.232140
 20
179.601906
 30
0.0
 10
799.747549
 20
179.898166
 30
0.0
 10
800.312831
 20
180.081268
 30
0.0
 10
800.905127
 20
180.143268
 30
0.0
 10
801.497397
 20
180.081268
 30
0.0
 10
802.062706
 20
179.898166
 30
0.0
 10
802.578088
 20
179.601906
 30
0.0
 10
803.020550
 20
179.205307
 30
0.0
 10
803.370118
 20
178.725855
 30
0.0
 10
803.612846
 20
178.184446
 30
0.0
 10
803.735507
 20
177.604726
 30
0.0
  0
LWPOLYLINE
  5
156
100
AcDbEntity
  8
Layer_1
 62
7
100
AcDbPolyline
 90
30
 70
1
 10
833.698961
 20
221.774077
 30
0.0
 10
833.576274
 20
221.194396
 30
0.0
 10
833.333545
 20
220.652987
 30
0.0
 10
832.984004
 20
220.173485
 30
0.0
 10
832.541541
 20
219.776896
 30
0.0
 10
832.026133
 20
219.480637
 30
0.0
 10
831.460851
 20
219.297537
 30
0.0
 10
830.868555
 20
219.235537
 30
0.0
 10
830.276285
 20
219.297537
 30
0.0
 10
829.710976
 20
219.480637
 30
0.0
 10
829.195594
 20
219.776896
 30
0.0
 10
828.753131
 20
220.173485
 30
0.0
 10
828.403564
 20
220.652987
 30
0.0
 10
828.160862
 20
221.194396
 30
0.0
 10
828.038174
 20
221.774077
 30
0.0
 10
828.038174
 20
222.366767
 30
0.0
 10
828.160862
 20
222.946496
 30
0.0
 10
828.403564
 20
223.487907
 30
0.0
 10
828.753131
 20
223.967356
 30
0.0
 10
829.195594
 20
224.363956
 30
0.0
 10
829.710976
 20
224.660215
 30
0.0
 10
830.276285
 20
224.843318
 30
0.0
 10
830.868555
 20
224.905317
 30
0.0
 10
831.460851
 20
224.843318
 30
0.0
 10
832.026133
 20
224.660215
 30
0.0
 10
832.541541
 20
224.363956
 30
0.0
 10
832.984004
 20
223.967356
 30
0.0
 10
833.333545
 20
223.487907
 30
0.0
 10
833.576274
 20
222.946496
 30
0.0
 10
833.698961
 20
222.366767
 30
0.0
  0
LWPOLYLINE
  5
157
100
AcDbEntity
  8
Layer_1
 62
7
100
AcDbPolyline
 90
4
 70
1
 10
907.774595
 20
168.654379
 30
0.0
 10
853.840394
 20
168.654379
 30
0.0
 10
853.840394
 20
185.763457
 30
0.0
 10
907.774595
 20
185.763457
 30
0.0
  0
LWPOLYLINE
  5
158
100
AcDbEntity
  8
Layer_1
 62
7
100
AcDbPolyline
 90
30
 70
1
 10
994.502816
 20
148.165417
 30
0.0
 10
994.380129
 20
147.585688
 30
0.0
 10
994.137400
 20
147.044271
 30
0.0
 10
993.787832
 20
146.564820
 30
0.0
 10
993.345370
 20
146.168209
 30
0.0
 10
992.829988
 20
145.871955
 30
0.0
 10
992.264705
 20
145.688864
 30
0.0
 10
991.672409
 20
145.626872
 30
0.0
 10
991.080113
 20
145.688864
 30
0.0
 10
990.514831
 20
145.871955
 30
0.0
 10
989.999422
 20
146.168209
 30
0.0
 10
989.556986
 20
146.564820
 30
0.0
 10
989.207419
 20
147.044271
 30
0.0
 10
988.964690
 20
147.585688
 30
0.0
 10
988.842003
 20
148.165417
 30
0.0
 10
988.842003
 20
148.758057
 30
0.0
 10
988.964690
 20
149.337785
 30
0.0
 10
989.207419
 20
149.879176
 30
0.0
 10
989.556986
 20
150.358654
 30
0.0
 10
989.999422
 20
150.755238
 30
0.0
 10
990.514831
 20
151.051492
 30
0.0
 10
991.080113
 20
151.234583
 30
0.0
 10
991.672409
 20
151.296575
 30
0.0
 10
992.264705
 20
151.234583
 30
0.0
 10
992.829988
 20
151.051492
 30
0.0
 10
993.345370
 20
150.755238
 30
0.0
 10
993.787832
 20
150.358654
 30
0.0
 10
994.137400
 20
149.879176
 30
0.0
 10
994.380129
 20
149.337785
 30
0.0
 10
994.502816
 20
148.758057
 30
0.0
  0
LWPOLYLINE
  5
159
100
AcDbEntity
  8
Layer_1
 62
7
100
AcDbPolyline
 90
30
 70
1
 10
998.497918
 20
221.774077
 30
0.0
 10
998.375231
 20
221.194396
 30
0.0
 10
998.132502
 20
220.652987
 30
0.0
 10
997.782935
 20
220.173485
 30
0.0
 10
997.340472
 20
219.776896
 30
0.0
 10
996.825090
 20
219.480637
 30
0.0
 10
996.259808
 20
219.297537
 30
0.0
 10
995.667512
 20
219.235537
 30
0.0
 10
995.075242
 20
219.297537
 30
0.0
 10
994.509933
 20
219.480637
 30
0.0
 10
993.994551
 20
219.776896
 30
0.0
 10
993.552089
 20
220.173485
 30
0.0
 10
993.202521
 20
220.652987
 30
0.0
 10
992.959819
 20
221.194396
 30
0.0
 10
992.837131
 20
221.774077
 30
0.0
 10
992.837131
 20
222.366767
 30
0.0
 10
992.959819
 20
222.946496
 30
0.0
 10
993.202521
 20
223.487907
 30
0.0
 10
993.552089
 20
223.967356
 30
0.0
 10
993.994551
 20
224.363956
 30
0.0
 10
994.509933
 20
224.660215
 30
0.0
 10
995.075242
 20
224.843318
 30
0.0
 10
995.667512
 20
224.905317
 30
0.0
 10
996.259808
 20
224.843318
 30
0.0
 10
996.825090
 20
224.660215
 30
0.0
 10
997.340472
 20
224.363956
 30
0.0
 10
997.782935
 20
223.967356
 30
0.0
 10
998.132502
 20
223.487907
 30
0.0
 10
998.375231
 20
222.946496
 30
0.0
 10
998.497918
 20
222.366767
 30
0.0
  0
LWPOLYLINE
  5
15a
100
AcDbEntity
  8
Layer_1
 62
7
100
AcDbPolyline
 90
4
 70
1
 10
1125.508951
 20
168.654379
 30
0.0
 10
1071.574750
 20
168.654379
 30
0.0
 10
1071.574750
 20
185.763457
 30
0.0
 10
1125.508951
 20
185.763457
 30
0.0
  0
LWPOLYLINE
  5
15b
100
AcDbEntity
  8
Layer_1
 62
7
100
AcDbPolyline
 90
30
 70
1
 10
1153.309437
 20
221.774077
 30
0.0
 10
1153.185612
 20
221.194396
 30
0.0
 10
1152.943650
 20
220.652987
 30
0.0
 10
1152.593712
 20
220.173485
 30
0.0
 10
1152.151488
 20
219.776896
 30
0.0
 10
1151.636079
 20
219.480637
 30
0.0
 10
1151.070189
 20
219.297537
 30
0.0
 10
1150.478342
 20
219.235537
 30
0.0
 10
1149.886522
 20
219.297537
 30
0.0
 10
1149.320499
 20
219.480637
 30
0.0
 10
1148.805170
 20
219.776896
 30
0.0
 10
1148.362893
 20
220.173485
 30
0.0
 10
1148.012955
 20
220.652987
 30
0.0
 10
1147.770993
 20
221.194396
 30
0.0
 10
1147.647168
 20
221.774077
 30
0.0
 10
1147.647168
 20
222.366767
 30
0.0
 10
1147.770993
 20
222.946496
 30
0.0
 10
1148.012955
 20
223.487907
 30
0.0
 10
1148.362893
 20
223.967356
 30
0.0
 10
1148.805170
 20
224.363956
 30
0.0
 10
1149.320499
 20
224.660215
 30
0.0
 10
1149.886522
 20
224.843318
 30
0.0
 10
1150.478342
 20
224.905317
 30
0.0
 10
1151.070189
 20
224.843318
 30
0.0
 10
1151.636079
 20
224.660215
 30
0.0
 10
1152.151488
 20
224.363956
 30
0.0
 10
1152.593712
 20
223.967356
 30
0.0
 10
1152.943650
 20
223.487907
 30
0.0
 10
1153.185612
 20
222.946496
 30
0.0
 10
1153.309437
 20
222.366767
 30
0.0
  0
LWPOLYLINE
  5
15c
100
AcDbEntity
  8
Layer_1
 62
7
100
AcDbPolyline
 90
30
 70
1
 10
1153.309437
 20
177.012067
 30
0.0
 10
1153.185612
 20
176.432346
 30
0.0
 10
1152.943650
 20
175.890937
 30
0.0
 10
1152.593712
 20
175.411475
 30
0.0
 10
1152.151488
 20
175.014886
 30
0.0
 10
1151.636079
 20
174.718637
 30
0.0
 10
1151.070189
 20
174.535546
 30
0.0
 10
1150.478342
 20
174.473546
 30
0.0
 10
1149.886522
 20
174.535546
 30
0.0
 10
1149.320499
 20
174.718637
 30
0.0
 10
1148.805170
 20
175.014886
 30
0.0
 10
1148.362893
 20
175.411475
 30
0.0
 10
1148.012955
 20
175.890937
 30
0.0
 10
1147.770993
 20
176.432346
 30
0.0
 10
1147.647168
 20
177.012067
 30
0.0
 10
1147.647168
 20
177.604726
 30
0.0
 10
1147.770993
 20
178.184446
 30
0.0
 10
1148.012955
 20
178.725855
 30
0.0
 10
1148.362893
 20
179.205307
 30
0.0
 10
1148.805170
 20
179.601906
 30
0.0
 10
1149.320499
 20
179.898166
 30
0.0
 10
1149.886522
 20
180.081268
 30
0.0
 10
1150.478342
 20
180.143268
 30
0.0
 10
1151.070189
 20
180.081268
 30
0.0
 10
1151.636079
 20
179.898166
 30
0.0
 10
1152.151488
 20
179.601906
 30
0.0
 10
1152.593712
 20
179.205307
 30
0.0
 10
1152.943650
 20
178.725855
 30
0.0
 10
1153.185612
 20
178.184446
 30
0.0
 10
1153.309437
 20
177.604726
 30
0.0
  0
LWPOLYLINE
  5
15d
100
AcDbEntity
  8
Layer_1
 62
7
100
AcDbPolyline
 90
12
 70
1
 10
769.143750
 20
237.966357
 30
0.0
 10
1172.010187
 20
237.966357
 30
0.0
 10
1175.256201
 20
241.199169
 30
0.0
 10
1175.256201
 20
327.739157
 30
0.0
 10
1171.261072
 20
331.717998
 30
0.0
 10
1146.291549
 20
331.717998
 30
0.0
 10
1146.291549
 20
311.326377
 30
0.0
 10
1125.816530
 20
311.326377
 30
0.0
 10
1125.816530
 20
331.717998
 30
0.0
 10
769.892812
 20
331.717998
 30
0.0
 10
766.754562
 20
328.592618
 30
0.0
 10
766.754562
 20
240.345702
 30
0.0
  0
LWPOLYLINE
  5
15e
100
AcDbEntity
  8
Layer_1
 62
7
100
AcDbPolyline
 90
30
 70
1
 10
1162.537733
 20
248.209886
 30
0.0
 10
1162.660420
 20
248.789826
 30
0.0
 10
1162.903149
 20
249.330926
 30
0.0
 10
1163.252690
 20
249.810404
 30
0.0
 10
1163.695153
 20
250.207279
 30
0.0
 10
1164.210535
 20
250.503559
 30
0.0
 10
1164.775843
 20
250.686651
 30
0.0
 10
1165.368140
 20
250.748352
 30
0.0
 10
1165.960409
 20
250.686651
 30
0.0
 10
1166.525718
 20
250.503559
 30
0.0
 10
1167.041047
 20
250.207279
 30
0.0
 10
1167.483510
 20
249.810404
 30
0.0
 10
1167.833077
 20
249.330926
 30
0.0
 10
1168.075806
 20
248.789826
 30
0.0
 10
1168.198493
 20
248.209886
 30
0.0
 10
1168.198493
 20
247.617034
 30
0.0
 10
1168.075806
 20
247.037121
 30
0.0
 10
1167.833077
 20
246.496021
 30
0.0
 10
1167.483510
 20
246.016570
 30
0.0
 10
1167.041047
 20
245.619668
 30
0.0
 10
1166.525718
 20
245.323017
 30
0.0
 10
1165.960409
 20
245.139926
 30
0.0
 10
1165.368140
 20
245.078225
 30
0.0
 10
1164.775843
 20
245.139926
 30
0.0
 10
1164.210535
 20
245.323017
 30
0.0
 10
1163.695153
 20
245.619668
 30
0.0
 10
1163.252690
 20
246.016570
 30
0.0
 10
1162.903149
 20
246.496021
 30
0.0
 10
1162.660420
 20
247.037121
 30
0.0
 10
1162.537733
 20
247.617034
 30
0.0
  0
LWPOLYLINE
  5
15f
100
AcDbEntity
  8
Layer_1
 62
7
100
AcDbPolyline
 90
30
 70
1
 10
1138.067585
 20
277.056558
 30
0.0
 10
1138.190272
 20
277.636466
 30
0.0
 10
1138.433001
 20
278.177576
 30
0.0
 10
1138.782568
 20
278.657027
 30
0.0
 10
1139.225031
 20
279.053926
 30
0.0
 10
1139.740360
 20
279.350185
 30
0.0
 10
1140.305695
 20
279.533285
 30
0.0
 10
1140.897991
 20
279.594986
 30
0.0
 10
1141.490235
 20
279.533285
 30
0.0
 10
1142.055570
 20
279.350185
 30
0.0
 10
1142.570925
 20
279.053926
 30
0.0
 10
1143.013388
 20
278.657027
 30
0.0
 10
1143.362929
 20
278.177576
 30
0.0
 10
1143.605658
 20
277.636466
 30
0.0
 10
1143.728345
 20
277.056558
 30
0.0
 10
1143.728345
 20
276.463677
 30
0.0
 10
1143.605658
 20
275.883776
 30
0.0
 10
1143.362929
 20
275.342656
 30
0.0
 10
1143.013388
 20
274.863207
 30
0.0
 10
1142.570925
 20
274.466308
 30
0.0
 10
1142.055570
 20
274.169668
 30
0.0
 10
1141.490235
 20
273.986565
 30
0.0
 10
1140.897991
 20
273.924867
 30
0.0
 10
1140.305695
 20
273.986565
 30
0.0
 10
1139.740360
 20
274.169668
 30
0.0
 10
1139.225031
 20
274.466308
 30
0.0
 10
1138.782568
 20
274.863207
 30
0.0
 10
1138.433001
 20
275.342656
 30
0.0
 10
1138.190272
 20
275.883776
 30
0.0
 10
1138.067585
 20
276.463677
 30
0.0
  0
LWPOLYLINE
  5
160
100
AcDbEntity
  8
Layer_1
 62
7
100
AcDbPolyline
 90
30
 70
1
 10
1108.104131
 20
321.818625
 30
0.0
 10
1108.226818
 20
322.398536
 30
0.0
 10
1108.469547
 20
322.939646
 30
0.0
 10
1108.819114
 20
323.419106
 30
0.0
 10
1109.261577
 20
323.815997
 30
0.0
 10
1109.776906
 20
324.112256
 30
0.0
 10
1110.342268
 20
324.295345
 30
0.0
 10
1110.934537
 20
324.357046
 30
0.0
 10
1111.526781
 20
324.295345
 30
0.0
 10
1112.092116
 20
324.112256
 30
0.0
 10
1112.607471
 20
323.815997
 30
0.0
 10
1113.049934
 20
323.419106
 30
0.0
 10
1113.399475
 20
322.939646
 30
0.0
 10
1113.642230
 20
322.398536
 30
0.0
 10
1113.764891
 20
321.818625
 30
0.0
 10
1113.764891
 20
321.225747
 30
0.0
 10
1113.642230
 20
320.645836
 30
0.0
 10
1113.399475
 20
320.104726
 30
0.0
 10
1113.049934
 20
319.625277
 30
0.0
 10
1112.607471
 20
319.228375
 30
0.0
 10
1112.092116
 20
318.931746
 30
0.0
 10
1111.526781
 20
318.748657
 30
0.0
 10
1110.934537
 20
318.686956
 30
0.0
 10
1110.342268
 20
318.748657
 30
0.0
 10
1109.776906
 20
318.931746
 30
0.0
 10
1109.261577
 20
319.228375
 30
0.0
 10
1108.819114
 20
319.625277
 30
0.0
 10
1108.469547
 20
320.104726
 30
0.0
 10
1108.226818
 20
320.645836
 30
0.0
 10
1108.104131
 20
321.225747
 30
0.0
  0
LWPOLYLINE
  5
161
100
AcDbEntity
  8
Layer_1
 62
7
100
AcDbPolyline
 90
4
 70
1
 10
1034.028497
 20
285.215178
 30
0.0
 10
1087.962698
 20
285.215178
 30
0.0
 10
1087.962698
 20
268.106129
 30
0.0
 10
1034.028497
 20
268.106129
 30
0.0
  0
LWPOLYLINE
  5
162
100
AcDbEntity
  8
Layer_1
 62
7
100
AcDbPolyline
 90
30
 70
1
 10
947.300276
 20
248.209886
 30
0.0
 10
947.422963
 20
248.789826
 30
0.0
 10
947.665692
 20
249.330926
 30
0.0
 10
948.015260
 20
249.810404
 30
0.0
 10
948.457696
 20
250.207279
 30
0.0
 10
948.973104
 20
250.503559
 30
0.0
 10
949.538386
 20
250.686651
 30
0.0
 10
950.130683
 20
250.748352
 30
0.0
 10
950.722979
 20
250.686651
 30
0.0
 10
951.288261
 20
250.503559
 30
0.0
 10
951.803643
 20
250.207279
 30
0.0
 10
952.246106
 20
249.810404
 30
0.0
 10
952.595673
 20
249.330926
 30
0.0
 10
952.838402
 20
248.789826
 30
0.0
 10
952.961089
 20
248.209886
 30
0.0
 10
952.961089
 20
247.617034
 30
0.0
 10
952.838402
 20
247.037121
 30
0.0
 10
952.595673
 20
246.496021
 30
0.0
 10
952.246106
 20
246.016570
 30
0.0
 10
951.803643
 20
245.619668
 30
0.0
 10
951.288261
 20
245.323017
 30
0.0
 10
950.722979
 20
245.139926
 30
0.0
 10
950.130683
 20
245.078225
 30
0.0
 10
949.538386
 20
245.139926
 30
0.0
 10
948.973104
 20
245.323017
 30
0.0
 10
948.457696
 20
245.619668
 30
0.0
 10
948.015260
 20
246.016570
 30
0.0
 10
947.665692
 20
246.496021
 30
0.0
 10
947.422963
 20
247.037121
 30
0.0
 10
947.300276
 20
247.617034
 30
0.0
  0
LWPOLYLINE
  5
163
100
AcDbEntity
  8
Layer_1
 62
7
100
AcDbPolyline
 90
30
 70
1
 10
943.305174
 20
321.818625
 30
0.0
 10
943.427861
 20
322.398536
 30
0.0
 10
943.670590
 20
322.939646
 30
0.0
 10
944.020131
 20
323.419106
 30
0.0
 10
944.462593
 20
323.815997
 30
0.0
 10
944.977949
 20
324.112256
 30
0.0
 10
945.543284
 20
324.295345
 30
0.0
 10
946.135554
 20
324.357046
 30
0.0
 10
946.727824
 20
324.295345
 30
0.0
 10
947.293159
 20
324.112256
 30
0.0
 10
947.808514
 20
323.815997
 30
0.0
 10
948.250950
 20
323.419106
 30
0.0
 10
948.600518
 20
322.939646
 30
0.0
 10
948.843247
 20
322.398536
 30
0.0
 10
948.965934
 20
321.818625
 30
0.0
 10
948.965934
 20
321.225747
 30
0.0
 10
948.843247
 20
320.645836
 30
0.0
 10
948.600518
 20
320.104726
 30
0.0
 10
948.250950
 20
319.625277
 30
0.0
 10
947.808514
 20
319.228375
 30
0.0
 10
947.293159
 20
318.931746
 30
0.0
 10
946.727824
 20
318.748657
 30
0.0
 10
946.135554
 20
318.686956
 30
0.0
 10
945.543284
 20
318.748657
 30
0.0
 10
944.977949
 20
318.931746
 30
0.0
 10
944.462593
 20
319.228375
 30
0.0
 10
944.020131
 20
319.625277
 30
0.0
 10
943.670590
 20
320.104726
 30
0.0
 10
943.427861
 20
320.645836
 30
0.0
 10
943.305174
 20
321.225747
 30
0.0
  0
LWPOLYLINE
  5
164
100
AcDbEntity
  8
Layer_1
 62
7
100
AcDbPolyline
 90
4
 70
1
 10
816.294088
 20
285.215178
 30
0.0
 10
870.228289
 20
285.215178
 30
0.0
 10
870.228289
 20
268.106129
 30
0.0
 10
816.294088
 20
268.106129
 30
0.0
  0
LWPOLYLINE
  5
165
100
AcDbEntity
  8
Layer_1
 62
7
100
AcDbPolyline
 90
30
 70
1
 10
788.493629
 20
277.056558
 30
0.0
 10
788.617454
 20
277.636466
 30
0.0
 10
788.859415
 20
278.177576
 30
0.0
 10
789.209353
 20
278.657027
 30
0.0
 10
789.651604
 20
279.053926
 30
0.0
 10
790.166986
 20
279.350185
 30
0.0
 10
790.732877
 20
279.533285
 30
0.0
 10
791.324750
 20
279.594986
 30
0.0
 10
791.916543
 20
279.533285
 30
0.0
 10
792.482566
 20
279.350185
 30
0.0
 10
792.997895
 20
279.053926
 30
0.0
 10
793.440173
 20
278.657027
 30
0.0
 10
793.790111
 20
278.177576
 30
0.0
 10
794.032072
 20
277.636466
 30
0.0
 10
794.155897
 20
277.056558
 30
0.0
 10
794.155897
 20
276.463677
 30
0.0
 10
794.032072
 20
275.883776
 30
0.0
 10
793.790111
 20
275.342656
 30
0.0
 10
793.440173
 20
274.863207
 30
0.0
 10
792.997895
 20
274.466308
 30
0.0
 10
792.482566
 20
274.169668
 30
0.0
 10
791.916543
 20
273.986565
 30
0.0
 10
791.324750
 20
273.924867
 30
0.0
 10
790.732877
 20
273.986565
 30
0.0
 10
790.166986
 20
274.169668
 30
0.0
 10
789.651604
 20
274.466308
 30
0.0
 10
789.209353
 20
274.863207
 30
0.0
 10
788.859415
 20
275.342656
 30
0.0
 10
788.617454
 20
275.883776
 30
0.0
 10
788.493629
 20
276.463677
 30
0.0
  0
LWPOLYLINE
  5
166
100
AcDbEntity
  8
Layer_1
 62
7
100
AcDbPolyline
 90
30
 70
1
 10
788.493629
 20
321.818625
 30
0.0
 10
788.617454
 20
322.398536
 30
0.0
 10
788.859415
 20
322.939646
 30
0.0
 10
789.209353
 20
323.419106
 30
0.0
 10
789.651604
 20
323.815997
 30
0.0
 10
790.166986
 20
324.112256
 30
0.0
 10
790.732877
 20
324.295345
 30
0.0
 10
791.324750
 20
324.357046
 30
0.0
 10
791.916543
 20
324.295345
 30
0.0
 10
792.482566
 20
324.112256
 30
0.0
 10
792.997895
 20
323.815997
 30
0.0
 10
793.440173
 20
323.419106
 30
0.0
 10
793.790111
 20
322.939646
 30
0.0
 10
794.032072
 20
322.398536
 30
0.0
 10
794.155897
 20
321.818625
 30
0.0
 10
794.155897
 20
321.225747
 30
0.0
 10
794.032072
 20
320.645836
 30
0.0
 10
793.790111
 20
320.104726
 30
0.0
 10
793.440173
 20
319.625277
 30
0.0
 10
792.997895
 20
319.228375
 30
0.0
 10
792.482566
 20
318.931746
 30
0.0
 10
791.916543
 20
318.748657
 30
0.0
 10
791.324750
 20
318.686956
 30
0.0
 10
790.732877
 20
318.748657
 30
0.0
 10
790.166986
 20
318.931746
 30
0.0
 10
789.651604
 20
319.228375
 30
0.0
 10
789.209353
 20
319.625277
 30
0.0
 10
788.859415
 20
320.104726
 30
0.0
 10
788.617454
 20
320.645836
 30
0.0
 10
788.493629
 20
321.225747
 30
0.0
  0
LWPOLYLINE
  5
167
100
AcDbEntity
  8
Layer_1
 62
7
100
AcDbPolyline
 90
45
 70
1
 10
724.650252
 20
128.893640
 30
0.0
 10
726.942073
 20
129.914030
 30
0.0
 10
728.971613
 20
131.388600
 30
0.0
 10
730.650262
 20
133.252910
 30
0.0
 10
731.904572
 20
135.425509
 30
0.0
 10
732.595055
 20
137.550590
 30
0.0
 10
748.989670
 20
169.726749
 30
0.0
 10
749.032268
 20
169.735745
 30
0.0
 10
750.942057
 20
170.586065
 30
0.0
 10
752.633353
 20
171.814864
 30
0.0
 10
754.032258
 20
173.368455
 30
0.0
 10
755.077574
 20
175.178954
 30
0.0
 10
755.723554
 20
177.167264
 30
0.0
 10
755.942074
 20
179.246365
 30
0.0
 10
755.723554
 20
181.325466
 30
0.0
 10
755.077574
 20
183.313765
 30
0.0
 10
754.032258
 20
185.124165
 30
0.0
 10
752.633353
 20
186.677764
 30
0.0
 10
750.942057
 20
187.906664
 30
0.0
 10
749.032268
 20
188.756966
 30
0.0
 10
746.987356
 20
189.191565
 30
0.0
 10
744.942074
 20
189.191565
 30
0.0
 10
744.942074
 20
189.306365
 30
0.0
 10
742.942063
 20
189.306365
 30
0.0
 10
742.942063
 20
211.806360
 30
0.0
 10
688.942059
 20
211.806360
 30
0.0
 10
688.942059
 20
186.334965
 30
0.0
 10
687.851870
 20
185.124155
 30
0.0
 10
686.806554
 20
183.313765
 30
0.0
 10
686.160574
 20
181.325455
 30
0.0
 10
685.942055
 20
179.246354
 30
0.0
 10
686.160574
 20
177.167256
 30
0.0
 10
686.806554
 20
175.178954
 30
0.0
 10
687.851870
 20
173.368455
 30
0.0
 10
689.250775
 20
171.814864
 30
0.0
 10
690.942071
 20
170.586065
 30
0.0
 10
692.125050
 20
170.059354
 30
0.0
 10
710.279673
 20
134.429036
 30
0.0
 10
710.492266
 20
134.537385
 30
0.0
 10
711.233867
 20
133.252905
 30
0.0
 10
712.912516
 20
131.388595
 30
0.0
 10
714.942055
 20
129.914024
 30
0.0
 10
717.233876
 20
128.893635
 30
0.0
 10
719.687728
 20
128.372136
 30
0.0
 10
722.196401
 20
128.372136
 30
0.0
  0
LWPOLYLINE
  5
168
100
AcDbEntity
  8
Layer_1
 62
7
100
AcDbPolyline
 90
30
 70
1
 10
701.102362
 20
201.074167
 30
0.0
 10
700.437755
 20
201.215478
 30
0.0
 10
699.817069
 20
201.491767
 30
0.0
 10
699.267371
 20
201.891168
 30
0.0
 10
698.812764
 20
202.396073
 30
0.0
 10
698.473065
 20
202.984464
 30
0.0
 10
698.263066
 20
203.630664
 30
0.0
 10
698.192051
 20
204.306372
 30
0.0
 10
698.263066
 20
204.982073
 30
0.0
 10
698.473065
 20
205.628273
 30
0.0
 10
698.812764
 20
206.216672
 30
0.0
 10
699.267371
 20
206.721558
 30
0.0
 10
699.817069
 20
207.120970
 30
0.0
 10
700.437755
 20
207.397259
 30
0.0
 10
701.102362
 20
207.538570
 30
0.0
 10
701.781759
 20
207.538570
 30
0.0
 10
702.446366
 20
207.397259
 30
0.0
 10
703.067052
 20
207.120970
 30
0.0
 10
703.616777
 20
206.721558
 30
0.0
 10
704.071331
 20
206.216672
 30
0.0
 10
704.411056
 20
205.628273
 30
0.0
 10
704.621056
 20
204.982073
 30
0.0
 10
704.692044
 20
204.306372
 30
0.0
 10
704.621056
 20
203.630664
 30
0.0
 10
704.411056
 20
202.984464
 30
0.0
 10
704.071331
 20
202.396073
 30
0.0
 10
703.616777
 20
201.891168
 30
0.0
 10
703.067052
 20
201.491767
 30
0.0
 10
702.446366
 20
201.215478
 30
0.0
 10
701.781759
 20
201.074167
 30
0.0
  0
LWPOLYLINE
  5
169
100
AcDbEntity
  8
Layer_1
 62
7
100
AcDbPolyline
 90
30
 70
1
 10
731.102355
 20
201.074167
 30
0.0
 10
730.437722
 20
201.215478
 30
0.0
 10
729.817036
 20
201.491767
 30
0.0
 10
729.267390
 20
201.891168
 30
0.0
 10
728.812757
 20
202.396073
 30
0.0
 10
728.473032
 20
202.984464
 30
0.0
 10
728.263085
 20
203.630664
 30
0.0
 10
728.192071
 20
204.306372
 30
0.0
 10
728.263085
 20
204.982073
 30
0.0
 10
728.473032
 20
205.628273
 30
0.0
 10
728.812757
 20
206.216672
 30
0.0
 10
729.267390
 20
206.721558
 30
0.0
 10
729.817062
 20
207.120970
 30
0.0
 10
730.437722
 20
207.397259
 30
0.0
 10
731.102355
 20
207.538570
 30
0.0
 10
731.781752
 20
207.538570
 30
0.0
 10
732.446359
 20
207.397259
 30
0.0
 10
733.067072
 20
207.120970
 30
0.0
 10
733.616770
 20
206.721558
 30
0.0
 10
734.071377
 20
206.216672
 30
0.0
 10
734.411076
 20
205.628273
 30
0.0
 10
734.621075
 20
204.982073
 30
0.0
 10
734.692063
 20
204.306372
 30
0.0
 10
734.621075
 20
203.630664
 30
0.0
 10
734.411076
 20
202.984464
 30
0.0
 10
734.071377
 20
202.396073
 30
0.0
 10
733.616770
 20
201.891168
 30
0.0
 10
733.067072
 20
201.491767
 30
0.0
 10
732.446359
 20
201.215478
 30
0.0
 10
731.781752
 20
201.074167
 30
0.0
  0
LWPOLYLINE
  5
16a
100
AcDbEntity
  8
Layer_1
 62
7
100
AcDbPolyline
 90
30
 70
1
 10
694.591866
 20
175.914760
 30
0.0
 10
693.906860
 20
176.060361
 30
0.0
 10
693.267071
 20
176.345161
 30
0.0
 10
692.700466
 20
176.756860
 30
0.0
 10
692.231862
 20
177.277261
 30
0.0
 10
691.881660
 20
177.883760
 30
0.0
 10
691.665257
 20
178.549860
 30
0.0
 10
691.592047
 20
179.246359
 30
0.0
 10
691.665257
 20
179.942859
 30
0.0
 10
691.881660
 20
180.608961
 30
0.0
 10
692.231862
 20
181.215471
 30
0.0
 10
692.700466
 20
181.735869
 30
0.0
 10
693.267071
 20
182.147561
 30
0.0
 10
693.906860
 20
182.432361
 30
0.0
 10
694.591866
 20
182.577969
 30
0.0
 10
695.292271
 20
182.577969
 30
0.0
 10
695.977251
 20
182.432361
 30
0.0
 10
696.617066
 20
182.147561
 30
0.0
 10
697.183671
 20
181.735869
 30
0.0
 10
697.652275
 20
181.215471
 30
0.0
 10
698.002451
 20
180.608961
 30
0.0
 10
698.218854
 20
179.942859
 30
0.0
 10
698.292038
 20
179.246359
 30
0.0
 10
698.218854
 20
178.549860
 30
0.0
 10
698.002451
 20
177.883760
 30
0.0
 10
697.652275
 20
177.277261
 30
0.0
 10
697.183671
 20
176.756860
 30
0.0
 10
696.617066
 20
176.345161
 30
0.0
 10
695.977251
 20
176.060361
 30
0.0
 10
695.292271
 20
175.914760
 30
0.0
  0
LWPOLYLINE
  5
16b
100
AcDbEntity
  8
Layer_1
 62
7
100
AcDbPolyline
 90
30
 70
1
 10
746.591831
 20
175.914760
 30
0.0
 10
745.906851
 20
176.060361
 30
0.0
 10
745.267062
 20
176.345161
 30
0.0
 10
744.700457
 20
176.756860
 30
0.0
 10
744.231853
 20
177.277261
 30
0.0
 10
743.881651
 20
177.883760
 30
0.0
 10
743.665275
 20
178.549860
 30
0.0
 10
743.592064
 20
179.246359
 30
0.0
 10
743.665275
 20
179.942859
 30
0.0
 10
743.881651
 20
180.608961
 30
0.0
 10
744.231853
 20
181.215471
 30
0.0
 10
744.700457
 20
181.735869
 30
0.0
 10
745.267062
 20
182.147561
 30
0.0
 10
745.906851
 20
182.432361
 30
0.0
 10
746.591831
 20
182.577969
 30
0.0
 10
747.292262
 20
182.577969
 30
0.0
 10
747.977242
 20
182.432361
 30
0.0
 10
748.617031
 20
182.147561
 30
0.0
 10
749.183663
 20
181.735869
 30
0.0
 10
749.652266
 20
181.215471
 30
0.0
 10
750.002469
 20
180.608961
 30
0.0
 10
750.218871
 20
179.942859
 30
0.0
 10
750.292055
 20
179.246359
 30
0.0
 10
750.218871
 20
178.549860
 30
0.0
 10
750.002469
 20
177.883760
 30
0.0
 10
749.652266
 20
177.277261
 30
0.0
 10
749.183663
 20
176.756860
 30
0.0
 10
748.617031
 20
176.345161
 30
0.0
 10
747.977242
 20
176.060361
 30
0.0
 10
747.292262
 20
175.914760
 30
0.0
  0
LWPOLYLINE
  5
16c
100
AcDbEntity
  8
Layer_1
 62
7
100
AcDbPolyline
 90
34
 70
1
 10
720.591915
 20
133.859711
 30
0.0
 10
719.906855
 20
134.005311
 30
0.0
 10
719.267066
 20
134.290161
 30
0.0
 10
718.700461
 20
134.701821
 30
0.0
 10
718.231831
 20
135.222259
 30
0.0
 10
717.881682
 20
135.828790
 30
0.0
 10
717.665279
 20
136.494849
 30
0.0
 10
717.592069
 20
137.191341
 30
0.0
 10
717.665279
 20
137.887860
 30
0.0
 10
717.783812
 20
138.252580
 30
0.0
 10
717.909092
 20
138.316479
 30
0.0
 10
717.972989
 20
138.513279
 30
0.0
 10
718.312714
 20
139.101670
 30
0.0
 10
718.767348
 20
139.606601
 30
0.0
 10
719.317020
 20
140.005960
 30
0.0
 10
719.937706
 20
140.282320
 30
0.0
 10
720.602313
 20
140.423549
 30
0.0
 10
721.281710
 20
140.423549
 30
0.0
 10
721.946317
 20
140.282320
 30
0.0
 10
722.567003
 20
140.005960
 30
0.0
 10
723.116675
 20
139.606601
 30
0.0
 10
723.571308
 20
139.101670
 30
0.0
 10
723.911033
 20
138.513279
 30
0.0
 10
724.120980
 20
137.867090
 30
0.0
 10
724.131034
 20
137.776991
 30
0.0
 10
724.236682
 20
137.723191
 30
0.0
 10
724.292589
 20
137.191349
 30
0.0
 10
724.219379
 20
136.494860
 30
0.0
 10
724.002949
 20
135.828801
 30
0.0
 10
723.652800
 20
135.222270
 30
0.0
 10
723.184170
 20
134.701829
 30
0.0
 10
722.617591
 20
134.290169
 30
0.0
 10
721.977802
 20
134.005321
 30
0.0
 10
721.292743
 20
133.859721
 30
0.0
  0
LWPOLYLINE
  5
16d
100
AcDbEntity
  8
Layer_1
 62
7
100
AcDbPolyline
 90
47
 70
1
 10
653.359173
 20
146.060900
 30
0.0
 10
655.650967
 20
147.081289
 30
0.0
 10
657.680533
 20
148.555860
 30
0.0
 10
659.359156
 20
150.420169
 30
0.0
 10
660.613466
 20
152.592769
 30
0.0
 10
661.303975
 20
154.717860
 30
0.0
 10
677.698564
 20
186.894011
 30
0.0
 10
677.741162
 20
186.903007
 30
0.0
 10
679.650977
 20
187.753327
 30
0.0
 10
681.342274
 20
188.982126
 30
0.0
 10
682.741179
 20
190.535717
 30
0.0
 10
683.786468
 20
192.346227
 30
0.0
 10
684.432475
 20
194.334528
 30
0.0
 10
684.650968
 20
196.413627
 30
0.0
 10
684.432475
 20
198.492725
 30
0.0
 10
683.786468
 20
200.481024
 30
0.0
 10
682.741179
 20
202.291425
 30
0.0
 10
681.342274
 20
203.845021
 30
0.0
 10
679.650977
 20
205.073921
 30
0.0
 10
677.741162
 20
205.924220
 30
0.0
 10
675.696277
 20
206.358819
 30
0.0
 10
673.650968
 20
206.358819
 30
0.0
 10
673.650968
 20
206.473619
 30
0.0
 10
625.650948
 20
206.473619
 30
0.0
 10
625.650948
 20
206.358819
 30
0.0
 10
623.605639
 20
206.358819
 30
0.0
 10
621.560728
 20
205.924220
 30
0.0
 10
619.650939
 20
205.073921
 30
0.0
 10
617.959643
 20
203.845021
 30
0.0
 10
616.560738
 20
202.291425
 30
0.0
 10
615.515448
 20
200.481024
 30
0.0
 10
614.869415
 20
198.492725
 30
0.0
 10
614.650949
 20
196.413627
 30
0.0
 10
614.869415
 20
194.334518
 30
0.0
 10
615.515448
 20
192.346216
 30
0.0
 10
616.560738
 20
190.535717
 30
0.0
 10
617.959643
 20
188.982126
 30
0.0
 10
619.650939
 20
187.753327
 30
0.0
 10
620.833944
 20
187.226616
 30
0.0
 10
638.988541
 20
151.596298
 30
0.0
 10
639.201134
 20
151.704647
 30
0.0
 10
639.942761
 20
150.420167
 30
0.0
 10
641.621383
 20
148.555857
 30
0.0
 10
643.650949
 20
147.081286
 30
0.0
 10
645.942743
 20
146.060897
 30
0.0
 10
648.396621
 20
145.539398
 30
0.0
 10
650.905268
 20
145.539398
 30
0.0
  0
LWPOLYLINE
  5
16e
100
AcDbEntity
  8
Layer_1
 62
7
100
AcDbPolyline
 90
38
 70
1
 10
649.363515
 20
192.678721
 30
0.0
 10
648.801143
 20
192.798220
 30
0.0
 10
648.275945
 20
193.032019
 30
0.0
 10
647.810834
 20
193.369921
 30
0.0
 10
647.426156
 20
193.797220
 30
0.0
 10
647.138713
 20
194.295121
 30
0.0
 10
646.961045
 20
194.841819
 30
0.0
 10
646.900958
 20
195.413621
 30
0.0
 10
646.953557
 20
195.913620
 30
0.0
 10
646.900958
 20
196.413629
 30
0.0
 10
646.953557
 20
196.913631
 30
0.0
 10
646.900958
 20
197.413627
 30
0.0
 10
646.961045
 20
197.985328
 30
0.0
 10
647.138713
 20
198.532127
 30
0.0
 10
647.426156
 20
199.030028
 30
0.0
 10
647.810834
 20
199.457227
 30
0.0
 10
648.275971
 20
199.795227
 30
0.0
 10
648.801143
 20
200.029028
 30
0.0
 10
649.363515
 20
200.148527
 30
0.0
 10
649.938401
 20
200.148527
 30
0.0
 10
650.500747
 20
200.029028
 30
0.0
 10
651.025945
 20
199.795227
 30
0.0
 10
651.491056
 20
199.457227
 30
0.0
 10
651.875734
 20
199.030028
 30
0.0
 10
652.163203
 20
198.532127
 30
0.0
 10
652.340845
 20
197.985328
 30
0.0
 10
652.400958
 20
197.413627
 30
0.0
 10
652.348465
 20
196.913631
 30
0.0
 10
652.400958
 20
196.413629
 30
0.0
 10
652.348465
 20
195.913620
 30
0.0
 10
652.400958
 20
195.413621
 30
0.0
 10
652.340845
 20
194.841819
 30
0.0
 10
652.163203
 20
194.295121
 30
0.0
 10
651.875734
 20
193.797220
 30
0.0
 10
651.491056
 20
193.369921
 30
0.0
 10
651.025945
 20
193.032019
 30
0.0
 10
650.500747
 20
192.798220
 30
0.0
 10
649.938401
 20
192.678721
 30
0.0
  0
LWPOLYLINE
  5
16f
100
AcDbEntity
  8
Layer_1
 62
7
100
AcDbPolyline
 90
30
 70
1
 10
675.300778
 20
193.082020
 30
0.0
 10
674.615771
 20
193.227620
 30
0.0
 10
673.975983
 20
193.512420
 30
0.0
 10
673.409377
 20
193.924120
 30
0.0
 10
672.940774
 20
194.444521
 30
0.0
 10
672.590545
 20
195.051020
 30
0.0
 10
672.374169
 20
195.717119
 30
0.0
 10
672.300958
 20
196.413629
 30
0.0
 10
672.374169
 20
197.110126
 30
0.0
 10
672.590545
 20
197.776228
 30
0.0
 10
672.940774
 20
198.382727
 30
0.0
 10
673.409377
 20
198.903128
 30
0.0
 10
673.975983
 20
199.314828
 30
0.0
 10
674.615771
 20
199.599628
 30
0.0
 10
675.300778
 20
199.745228
 30
0.0
 10
676.001183
 20
199.745228
 30
0.0
 10
676.686163
 20
199.599628
 30
0.0
 10
677.325978
 20
199.314828
 30
0.0
 10
677.892583
 20
198.903128
 30
0.0
 10
678.361160
 20
198.382727
 30
0.0
 10
678.711363
 20
197.776228
 30
0.0
 10
678.927765
 20
197.110126
 30
0.0
 10
679.000976
 20
196.413629
 30
0.0
 10
678.927765
 20
195.717119
 30
0.0
 10
678.711363
 20
195.051020
 30
0.0
 10
678.361160
 20
194.444521
 30
0.0
 10
677.892583
 20
193.924120
 30
0.0
 10
677.325978
 20
193.512420
 30
0.0
 10
676.686163
 20
193.227620
 30
0.0
 10
676.001183
 20
193.082020
 30
0.0
  0
LWPOLYLINE
  5
170
100
AcDbEntity
  8
Layer_1
 62
7
100
AcDbPolyline
 90
30
 70
1
 10
623.300734
 20
193.082020
 30
0.0
 10
622.615754
 20
193.227620
 30
0.0
 10
621.975938
 20
193.512420
 30
0.0
 10
621.409333
 20
193.924120
 30
0.0
 10
620.940756
 20
194.444521
 30
0.0
 10
620.590554
 20
195.051020
 30
0.0
 10
620.374151
 20
195.717119
 30
0.0
 10
620.300941
 20
196.413629
 30
0.0
 10
620.374151
 20
197.110126
 30
0.0
 10
620.590554
 20
197.776228
 30
0.0
 10
620.940756
 20
198.382727
 30
0.0
 10
621.409333
 20
198.903128
 30
0.0
 10
621.975938
 20
199.314828
 30
0.0
 10
622.615754
 20
199.599628
 30
0.0
 10
623.300734
 20
199.745228
 30
0.0
 10
624.001139
 20
199.745228
 30
0.0
 10
624.686145
 20
199.599628
 30
0.0
 10
625.325934
 20
199.314828
 30
0.0
 10
625.892539
 20
198.903128
 30
0.0
 10
626.361142
 20
198.382727
 30
0.0
 10
626.711345
 20
197.776228
 30
0.0
 10
626.927748
 20
197.110126
 30
0.0
 10
627.000958
 20
196.413629
 30
0.0
 10
626.927748
 20
195.717119
 30
0.0
 10
626.711345
 20
195.051020
 30
0.0
 10
626.361142
 20
194.444521
 30
0.0
 10
625.892539
 20
193.924120
 30
0.0
 10
625.325934
 20
193.512420
 30
0.0
 10
624.686145
 20
193.227620
 30
0.0
 10
624.001139
 20
193.082020
 30
0.0
  0
LWPOLYLINE
  5
171
100
AcDbEntity
  8
Layer_1
 62
7
100
AcDbPolyline
 90
34
 70
1
 10
649.300782
 20
151.026970
 30
0.0
 10
648.615749
 20
151.172570
 30
0.0
 10
647.975960
 20
151.457421
 30
0.0
 10
647.409382
 20
151.869091
 30
0.0
 10
646.940752
 20
152.389521
 30
0.0
 10
646.590576
 20
152.996049
 30
0.0
 10
646.374146
 20
153.662109
 30
0.0
 10
646.300963
 20
154.358601
 30
0.0
 10
646.374146
 20
155.055119
 30
0.0
 10
646.492706
 20
155.419850
 30
0.0
 10
646.617986
 20
155.483749
 30
0.0
 10
646.681989
 20
155.680549
 30
0.0
 10
647.021714
 20
156.268929
 30
0.0
 10
647.476321
 20
156.773860
 30
0.0
 10
648.026020
 20
157.173220
 30
0.0
 10
648.646706
 20
157.449580
 30
0.0
 10
649.311286
 20
157.590809
 30
0.0
 10
649.990710
 20
157.590809
 30
0.0
 10
650.655290
 20
157.449580
 30
0.0
 10
651.276003
 20
157.173220
 30
0.0
 10
651.825674
 20
156.773860
 30
0.0
 10
652.280308
 20
156.268929
 30
0.0
 10
652.620006
 20
155.680549
 30
0.0
 10
652.830006
 20
155.034360
 30
0.0
 10
652.840060
 20
154.944261
 30
0.0
 10
652.945735
 20
154.890461
 30
0.0
 10
653.001641
 20
154.358609
 30
0.0
 10
652.928431
 20
153.662119
 30
0.0
 10
652.712002
 20
152.996060
 30
0.0
 10
652.361852
 20
152.389529
 30
0.0
 10
651.893222
 20
151.869099
 30
0.0
 10
651.326617
 20
151.457431
 30
0.0
 10
650.686828
 20
151.172581
 30
0.0
 10
650.001769
 20
151.026981
 30
0.0
  0
LWPOLYLINE
  5
172
100
AcDbEntity
  8
Layer_1
 62
7
100
AcDbPolyline
 90
47
 70
1
 10
556.716248
 20
143.703750
 30
0.0
 10
559.008042
 20
144.724140
 30
0.0
 10
561.037608
 20
146.198721
 30
0.0
 10
562.716230
 20
148.063020
 30
0.0
 10
563.970540
 20
150.235630
 30
0.0
 10
564.661050
 20
152.360711
 30
0.0
 10
581.055665
 20
184.536859
 30
0.0
 10
581.098263
 20
184.545855
 30
0.0
 10
583.008079
 20
185.396176
 30
0.0
 10
584.699348
 20
186.624985
 30
0.0
 10
586.098253
 20
188.178574
 30
0.0
 10
587.143542
 20
189.989075
 30
0.0
 10
587.789549
 20
191.977374
 30
0.0
 10
588.008069
 20
194.056475
 30
0.0
 10
587.789549
 20
196.135576
 30
0.0
 10
587.143542
 20
198.123872
 30
0.0
 10
586.098253
 20
199.934273
 30
0.0
 10
584.699348
 20
201.487872
 30
0.0
 10
583.008079
 20
202.716769
 30
0.0
 10
581.098263
 20
203.567068
 30
0.0
 10
579.053351
 20
204.001678
 30
0.0
 10
577.008043
 20
204.001678
 30
0.0
 10
577.008043
 20
204.116468
 30
0.0
 10
529.008023
 20
204.116468
 30
0.0
 10
529.008023
 20
204.001668
 30
0.0
 10
526.962714
 20
204.001668
 30
0.0
 10
524.917829
 20
203.567068
 30
0.0
 10
523.008013
 20
202.716769
 30
0.0
 10
521.316717
 20
201.487872
 30
0.0
 10
519.917839
 20
199.934273
 30
0.0
 10
518.872523
 20
198.123872
 30
0.0
 10
518.226516
 20
196.135576
 30
0.0
 10
518.008023
 20
194.056475
 30
0.0
 10
518.226516
 20
191.977374
 30
0.0
 10
518.872523
 20
189.989064
 30
0.0
 10
519.917839
 20
188.178566
 30
0.0
 10
521.316717
 20
186.624975
 30
0.0
 10
523.008013
 20
185.396176
 30
0.0
 10
524.191018
 20
184.869464
 30
0.0
 10
542.345642
 20
149.239146
 30
0.0
 10
542.558235
 20
149.347495
 30
0.0
 10
543.299835
 20
148.063015
 30
0.0
 10
544.978484
 20
146.198716
 30
0.0
 10
547.008024
 20
144.724135
 30
0.0
 10
549.299844
 20
143.703745
 30
0.0
 10
551.753723
 20
143.182246
 30
0.0
 10
554.262369
 20
143.182246
 30
0.0
  0
LWPOLYLINE
  5
173
100
AcDbEntity
  8
Layer_1
 62
7
100
AcDbPolyline
 90
38
 70
1
 10
552.720589
 20
190.321569
 30
0.0
 10
552.158244
 20
190.441071
 30
0.0
 10
551.633046
 20
190.674870
 30
0.0
 10
551.167935
 20
191.012769
 30
0.0
 10
550.783257
 20
191.440071
 30
0.0
 10
550.495788
 20
191.937980
 30
0.0
 10
550.318146
 20
192.484681
 30
0.0
 10
550.258033
 20
193.056480
 30
0.0
 10
550.310632
 20
193.556481
 30
0.0
 10
550.258033
 20
194.056480
 30
0.0
 10
550.310632
 20
194.556479
 30
0.0
 10
550.258033
 20
195.056481
 30
0.0
 10
550.318146
 20
195.628179
 30
0.0
 10
550.495788
 20
196.174980
 30
0.0
 10
550.783257
 20
196.672879
 30
0.0
 10
551.167935
 20
197.100078
 30
0.0
 10
551.633072
 20
197.438077
 30
0.0
 10
552.158244
 20
197.671877
 30
0.0
 10
552.720589
 20
197.791378
 30
0.0
 10
553.295476
 20
197.791378
 30
0.0
 10
553.857848
 20
197.671877
 30
0.0
 10
554.383046
 20
197.438077
 30
0.0
 10
554.848157
 20
197.100078
 30
0.0
 10
555.232835
 20
196.672879
 30
0.0
 10
555.520278
 20
196.174980
 30
0.0
 10
555.697946
 20
195.628179
 30
0.0
 10
555.758032
 20
195.056481
 30
0.0
 10
555.705433
 20
194.556479
 30
0.0
 10
555.758032
 20
194.056480
 30
0.0
 10
555.705433
 20
193.556481
 30
0.0
 10
555.758032
 20
193.056480
 30
0.0
 10
555.697946
 20
192.484681
 30
0.0
 10
555.520278
 20
191.937980
 30
0.0
 10
555.232835
 20
191.440071
 30
0.0
 10
554.848157
 20
191.012769
 30
0.0
 10
554.383046
 20
190.674870
 30
0.0
 10
553.857848
 20
190.441071
 30
0.0
 10
553.295476
 20
190.321569
 30
0.0
  0
LWPOLYLINE
  5
174
100
AcDbEntity
  8
Layer_1
 62
7
100
AcDbPolyline
 90
30
 70
1
 10
578.657852
 20
190.724871
 30
0.0
 10
577.972846
 20
190.870471
 30
0.0
 10
577.333057
 20
191.155271
 30
0.0
 10
576.766452
 20
191.566971
 30
0.0
 10
576.297848
 20
192.087380
 30
0.0
 10
575.947646
 20
192.693881
 30
0.0
 10
575.731243
 20
193.359980
 30
0.0
 10
575.658059
 20
194.056480
 30
0.0
 10
575.731243
 20
194.752980
 30
0.0
 10
575.947646
 20
195.419079
 30
0.0
 10
576.297848
 20
196.025581
 30
0.0
 10
576.766452
 20
196.545979
 30
0.0
 10
577.333057
 20
196.957679
 30
0.0
 10
577.972846
 20
197.242476
 30
0.0
 10
578.657852
 20
197.388077
 30
0.0
 10
579.358257
 20
197.388077
 30
0.0
 10
580.043264
 20
197.242476
 30
0.0
 10
580.683052
 20
196.957679
 30
0.0
 10
581.249658
 20
196.545979
 30
0.0
 10
581.718261
 20
196.025581
 30
0.0
 10
582.068464
 20
195.419079
 30
0.0
 10
582.284866
 20
194.752980
 30
0.0
 10
582.358050
 20
194.056480
 30
0.0
 10
582.284866
 20
193.359980
 30
0.0
 10
582.068464
 20
192.693881
 30
0.0
 10
581.718261
 20
192.087380
 30
0.0
 10
581.249658
 20
191.566971
 30
0.0
 10
580.683052
 20
191.155271
 30
0.0
 10
580.043264
 20
190.870471
 30
0.0
 10
579.358257
 20
190.724871
 30
0.0
  0
LWPOLYLINE
  5
175
100
AcDbEntity
  8
Layer_1
 62
7
100
AcDbPolyline
 90
30
 70
1
 10
526.657835
 20
190.724871
 30
0.0
 10
525.972828
 20
190.870471
 30
0.0
 10
525.333013
 20
191.155271
 30
0.0
 10
524.766434
 20
191.566971
 30
0.0
 10
524.297831
 20
192.087380
 30
0.0
 10
523.947628
 20
192.693881
 30
0.0
 10
523.731225
 20
193.359980
 30
0.0
 10
523.658015
 20
194.056480
 30
0.0
 10
523.731225
 20
194.752980
 30
0.0
 10
523.947628
 20
195.419079
 30
0.0
 10
524.297831
 20
196.025581
 30
0.0
 10
524.766434
 20
196.545979
 30
0.0
 10
525.333013
 20
196.957679
 30
0.0
 10
525.972828
 20
197.242476
 30
0.0
 10
526.657835
 20
197.388077
 30
0.0
 10
527.358213
 20
197.388077
 30
0.0
 10
528.043219
 20
197.242476
 30
0.0
 10
528.683035
 20
196.957679
 30
0.0
 10
529.249614
 20
196.545979
 30
0.0
 10
529.718217
 20
196.025581
 30
0.0
 10
530.068446
 20
195.419079
 30
0.0
 10
530.284849
 20
194.752980
 30
0.0
 10
530.358032
 20
194.056480
 30
0.0
 10
530.284849
 20
193.359980
 30
0.0
 10
530.068446
 20
192.693881
 30
0.0
 10
529.718217
 20
192.087380
 30
0.0
 10
529.249614
 20
191.566971
 30
0.0
 10
528.683035
 20
191.155271
 30
0.0
 10
528.043219
 20
190.870471
 30
0.0
 10
527.358213
 20
190.724871
 30
0.0
  0
LWPOLYLINE
  5
176
100
AcDbEntity
  8
Layer_1
 62
7
100
AcDbPolyline
 90
34
 70
1
 10
552.657883
 20
148.669821
 30
0.0
 10
551.972850
 20
148.815421
 30
0.0
 10
551.333061
 20
149.100269
 30
0.0
 10
550.766456
 20
149.511939
 30
0.0
 10
550.297826
 20
150.032369
 30
0.0
 10
549.947677
 20
150.638900
 30
0.0
 10
549.731247
 20
151.304970
 30
0.0
 10
549.658037
 20
152.001459
 30
0.0
 10
549.731247
 20
152.697970
 30
0.0
 10
549.849781
 20
153.062701
 30
0.0
 10
549.975087
 20
153.126600
 30
0.0
 10
550.039064
 20
153.323400
 30
0.0
 10
550.378789
 20
153.911780
 30
0.0
 10
550.833422
 20
154.416711
 30
0.0
 10
551.383121
 20
154.816071
 30
0.0
 10
552.003807
 20
155.092430
 30
0.0
 10
552.668387
 20
155.233660
 30
0.0
 10
553.347784
 20
155.233660
 30
0.0
 10
554.012391
 20
155.092430
 30
0.0
 10
554.633104
 20
154.816071
 30
0.0
 10
555.182775
 20
154.416711
 30
0.0
 10
555.637382
 20
153.911780
 30
0.0
 10
555.977107
 20
153.323400
 30
0.0
 10
556.187054
 20
152.677200
 30
0.0
 10
556.196050
 20
152.587099
 30
0.0
 10
556.301698
 20
152.533301
 30
0.0
 10
556.357605
 20
152.001470
 30
0.0
 10
556.284421
 20
151.304981
 30
0.0
 10
556.067992
 20
150.638911
 30
0.0
 10
555.717842
 20
150.032380
 30
0.0
 10
555.249212
 20
149.511950
 30
0.0
 10
554.682607
 20
149.100279
 30
0.0
 10
554.042818
 20
148.815429
 30
0.0
 10
553.357785
 20
148.669829
 30
0.0
  0
LWPOLYLINE
  5
177
100
AcDbEntity
  8
Layer_1
 62
7
100
AcDbPolyline
 90
47
 70
1
 10
462.430495
 20
142.549000
 30
0.0
 10
464.722316
 20
143.569390
 30
0.0
 10
466.751855
 20
145.043971
 30
0.0
 10
468.430504
 20
146.908281
 30
0.0
 10
469.684814
 20
149.080880
 30
0.0
 10
470.375297
 20
151.205961
 30
0.0
 10
486.769913
 20
183.382120
 30
0.0
 10
486.812511
 20
183.391115
 30
0.0
 10
488.722300
 20
184.241425
 30
0.0
 10
490.413596
 20
185.470235
 30
0.0
 10
491.812501
 20
187.023826
 30
0.0
 10
492.857816
 20
188.834325
 30
0.0
 10
493.503797
 20
190.822624
 30
0.0
 10
493.722316
 20
192.901725
 30
0.0
 10
493.503797
 20
194.980823
 30
0.0
 10
492.857816
 20
196.969135
 30
0.0
 10
491.812501
 20
198.779520
 30
0.0
 10
490.413596
 20
200.333132
 30
0.0
 10
488.722300
 20
201.562032
 30
0.0
 10
486.812511
 20
202.412329
 30
0.0
 10
484.767599
 20
202.846928
 30
0.0
 10
482.722317
 20
202.846928
 30
0.0
 10
482.722317
 20
202.961718
 30
0.0
 10
434.722296
 20
202.961718
 30
0.0
 10
434.722296
 20
202.846918
 30
0.0
 10
432.677014
 20
202.846918
 30
0.0
 10
430.632103
 20
202.412318
 30
0.0
 10
428.722314
 20
201.562021
 30
0.0
 10
427.031018
 20
200.333122
 30
0.0
 10
425.632113
 20
198.779520
 30
0.0
 10
424.586797
 20
196.969125
 30
0.0
 10
423.940817
 20
194.980823
 30
0.0
 10
423.722297
 20
192.901725
 30
0.0
 10
423.940817
 20
190.822616
 30
0.0
 10
424.586797
 20
188.834325
 30
0.0
 10
425.632113
 20
187.023826
 30
0.0
 10
427.031018
 20
185.470225
 30
0.0
 10
428.722314
 20
184.241425
 30
0.0
 10
429.905292
 20
183.714714
 30
0.0
 10
448.059916
 20
148.084396
 30
0.0
 10
448.272509
 20
148.192745
 30
0.0
 10
449.014109
 20
146.908275
 30
0.0
 10
450.692758
 20
145.043966
 30
0.0
 10
452.722297
 20
143.569384
 30
0.0
 10
455.014118
 20
142.548995
 30
0.0
 10
457.467970
 20
142.027504
 30
0.0
 10
459.976643
 20
142.027504
 30
0.0
  0
LWPOLYLINE
  5
178
100
AcDbEntity
  8
Layer_1
 62
7
100
AcDbPolyline
 90
38
 70
1
 10
458.434863
 20
189.166829
 30
0.0
 10
457.872518
 20
189.286331
 30
0.0
 10
457.347294
 20
189.520130
 30
0.0
 10
456.882209
 20
189.858030
 30
0.0
 10
456.497505
 20
190.285329
 30
0.0
 10
456.210061
 20
190.783230
 30
0.0
 10
456.032394
 20
191.329930
 30
0.0
 10
455.972307
 20
191.901729
 30
0.0
 10
456.024906
 20
192.401731
 30
0.0
 10
455.972307
 20
192.901730
 30
0.0
 10
456.024906
 20
193.401729
 30
0.0
 10
455.972307
 20
193.901731
 30
0.0
 10
456.032394
 20
194.473429
 30
0.0
 10
456.210061
 20
195.020230
 30
0.0
 10
456.497505
 20
195.518131
 30
0.0
 10
456.882209
 20
195.945330
 30
0.0
 10
457.347320
 20
196.283330
 30
0.0
 10
457.872518
 20
196.517129
 30
0.0
 10
458.434863
 20
196.636631
 30
0.0
 10
459.009750
 20
196.636631
 30
0.0
 10
459.572095
 20
196.517129
 30
0.0
 10
460.097293
 20
196.283330
 30
0.0
 10
460.562404
 20
195.945330
 30
0.0
 10
460.947109
 20
195.518131
 30
0.0
 10
461.234552
 20
195.020230
 30
0.0
 10
461.412193
 20
194.473429
 30
0.0
 10
461.472306
 20
193.901731
 30
0.0
 10
461.419707
 20
193.401729
 30
0.0
 10
461.472306
 20
192.901730
 30
0.0
 10
461.419707
 20
192.401731
 30
0.0
 10
461.472306
 20
191.901729
 30
0.0
 10
461.412193
 20
191.329930
 30
0.0
 10
461.234552
 20
190.783230
 30
0.0
 10
460.947109
 20
190.285329
 30
0.0
 10
460.562404
 20
189.858030
 30
0.0
 10
460.097293
 20
189.520130
 30
0.0
 10
459.572095
 20
189.286331
 30
0.0
 10
459.009750
 20
189.166829
 30
0.0
  0
LWPOLYLINE
  5
179
100
AcDbEntity
  8
Layer_1
 62
7
100
AcDbPolyline
 90
30
 70
1
 10
484.372100
 20
189.570131
 30
0.0
 10
483.687094
 20
189.715731
 30
0.0
 10
483.047305
 20
190.000529
 30
0.0
 10
482.480699
 20
190.412231
 30
0.0
 10
482.012096
 20
190.932629
 30
0.0
 10
481.661893
 20
191.539121
 30
0.0
 10
481.445517
 20
192.205230
 30
0.0
 10
481.372307
 20
192.901730
 30
0.0
 10
481.445517
 20
193.598230
 30
0.0
 10
481.661893
 20
194.264329
 30
0.0
 10
482.012096
 20
194.870831
 30
0.0
 10
482.480699
 20
195.391229
 30
0.0
 10
483.047305
 20
195.802929
 30
0.0
 10
483.687094
 20
196.087729
 30
0.0
 10
484.372100
 20
196.233329
 30
0.0
 10
485.072505
 20
196.233329
 30
0.0
 10
485.757511
 20
196.087729
 30
0.0
 10
486.397300
 20
195.802929
 30
0.0
 10
486.963905
 20
195.391229
 30
0.0
 10
487.432509
 20
194.870831
 30
0.0
 10
487.782711
 20
194.264329
 30
0.0
 10
487.999114
 20
193.598230
 30
0.0
 10
488.072298
 20
192.901730
 30
0.0
 10
487.999114
 20
192.205230
 30
0.0
 10
487.782711
 20
191.539121
 30
0.0
 10
487.432509
 20
190.932629
 30
0.0
 10
486.963905
 20
190.412231
 30
0.0
 10
486.397300
 20
190.000529
 30
0.0
 10
485.757511
 20
189.715731
 30
0.0
 10
485.072505
 20
189.570131
 30
0.0
  0
LWPOLYLINE
  5
17a
100
AcDbEntity
  8
Layer_1
 62
7
100
AcDbPolyline
 90
30
 70
1
 10
432.372109
 20
189.570131
 30
0.0
 10
431.687102
 20
189.715731
 30
0.0
 10
431.047313
 20
190.000529
 30
0.0
 10
430.480708
 20
190.412231
 30
0.0
 10
430.012105
 20
190.932629
 30
0.0
 10
429.661902
 20
191.539121
 30
0.0
 10
429.445499
 20
192.205230
 30
0.0
 10
429.372316
 20
192.901730
 30
0.0
 10
429.445499
 20
193.598230
 30
0.0
 10
429.661902
 20
194.264329
 30
0.0
 10
430.012105
 20
194.870831
 30
0.0
 10
430.480708
 20
195.391229
 30
0.0
 10
431.047313
 20
195.802929
 30
0.0
 10
431.687102
 20
196.087729
 30
0.0
 10
432.372109
 20
196.233329
 30
0.0
 10
433.072514
 20
196.233329
 30
0.0
 10
433.757493
 20
196.087729
 30
0.0
 10
434.397309
 20
195.802929
 30
0.0
 10
434.963914
 20
195.391229
 30
0.0
 10
435.432518
 20
194.870831
 30
0.0
 10
435.782694
 20
194.264329
 30
0.0
 10
435.999096
 20
193.598230
 30
0.0
 10
436.072306
 20
192.901730
 30
0.0
 10
435.999096
 20
192.205230
 30
0.0
 10
435.782694
 20
191.539121
 30
0.0
 10
435.432518
 20
190.932629
 30
0.0
 10
434.963914
 20
190.412231
 30
0.0
 10
434.397309
 20
190.000529
 30
0.0
 10
433.757493
 20
189.715731
 30
0.0
 10
433.072514
 20
189.570131
 30
0.0
  0
LWPOLYLINE
  5
17b
100
AcDbEntity
  8
Layer_1
 62
7
100
AcDbPolyline
 90
34
 70
1
 10
458.372157
 20
147.515071
 30
0.0
 10
457.687098
 20
147.660671
 30
0.0
 10
457.047309
 20
147.945521
 30
0.0
 10
456.480730
 20
148.357189
 30
0.0
 10
456.012100
 20
148.877619
 30
0.0
 10
455.661951
 20
149.484161
 30
0.0
 10
455.445521
 20
150.150220
 30
0.0
 10
455.372311
 20
150.846709
 30
0.0
 10
455.445521
 20
151.543220
 30
0.0
 10
455.564055
 20
151.907950
 30
0.0
 10
455.689335
 20
151.971850
 30
0.0
 10
455.753258
 20
152.168650
 30
0.0
 10
456.092957
 20
152.757030
 30
0.0
 10
456.547590
 20
153.261961
 30
0.0
 10
457.097289
 20
153.661320
 30
0.0
 10
457.717948
 20
153.937680
 30
0.0
 10
458.382555
 20
154.078910
 30
0.0
 10
459.061952
 20
154.078910
 30
0.0
 10
459.726559
 20
153.937680
 30
0.0
 10
460.347245
 20
153.661320
 30
0.0
 10
460.896917
 20
153.261961
 30
0.0
 10
461.351551
 20
152.757030
 30
0.0
 10
461.691276
 20
152.168650
 30
0.0
 10
461.901223
 20
151.522460
 30
0.0
 10
461.910218
 20
151.432359
 30
0.0
 10
462.015893
 20
151.378559
 30
0.0
 10
462.071799
 20
150.846720
 30
0.0
 10
461.998589
 20
150.150231
 30
0.0
 10
461.782160
 20
149.484169
 30
0.0
 10
461.432010
 20
148.877630
 30
0.0
 10
460.963380
 20
148.357200
 30
0.0
 10
460.396802
 20
147.945529
 30
0.0
 10
459.757013
 20
147.660679
 30
0.0
 10
459.071954
 20
147.515079
 30
0.0
  0
LWPOLYLINE
  5
17c
100
AcDbEntity
  8
Layer_1
 62
7
100
AcDbPolyline
 90
47
 70
1
 10
554.995636
 20
213.519397
 30
0.0
 10
557.287456
 20
214.539789
 30
0.0
 10
559.316996
 20
216.014367
 30
0.0
 10
560.995645
 20
217.878669
 30
0.0
 10
562.249955
 20
220.051274
 30
0.0
 10
562.940438
 20
222.176355
 30
0.0
 10
579.335053
 20
254.352487
 30
0.0
 10
579.377651
 20
254.361483
 30
0.0
 10
581.287467
 20
255.211798
 30
0.0
 10
582.978763
 20
256.440608
 30
0.0
 10
584.377668
 20
257.994199
 30
0.0
 10
585.422957
 20
259.804698
 30
0.0
 10
586.068964
 20
261.792997
 30
0.0
 10
586.287457
 20
263.872095
 30
0.0
 10
586.068964
 20
265.951193
 30
0.0
 10
585.422957
 20
267.939492
 30
0.0
 10
584.377668
 20
269.749893
 30
0.0
 10
582.978763
 20
271.303490
 30
0.0
 10
581.287467
 20
272.532390
 30
0.0
 10
579.377651
 20
273.382690
 30
0.0
 10
577.332766
 20
273.817300
 30
0.0
 10
575.287457
 20
273.817300
 30
0.0
 10
575.287457
 20
273.932090
 30
0.0
 10
527.287437
 20
273.932090
 30
0.0
 10
527.287437
 20
273.817290
 30
0.0
 10
525.242129
 20
273.817290
 30
0.0
 10
523.197217
 20
273.382690
 30
0.0
 10
521.287428
 20
272.532390
 30
0.0
 10
519.596132
 20
271.303490
 30
0.0
 10
518.197227
 20
269.749893
 30
0.0
 10
517.151937
 20
267.939492
 30
0.0
 10
516.505904
 20
265.951193
 30
0.0
 10
516.287438
 20
263.872095
 30
0.0
 10
516.505904
 20
261.792997
 30
0.0
 10
517.151937
 20
259.804690
 30
0.0
 10
518.197227
 20
257.994188
 30
0.0
 10
519.596132
 20
256.440600
 30
0.0
 10
521.287428
 20
255.211798
 30
0.0
 10
522.470433
 20
254.685092
 30
0.0
 10
540.625030
 20
219.054790
 30
0.0
 10
540.837623
 20
219.163139
 30
0.0
 10
541.579250
 20
217.878664
 30
0.0
 10
543.257872
 20
216.014362
 30
0.0
 10
545.287438
 20
214.539784
 30
0.0
 10
547.579232
 20
213.519392
 30
0.0
 10
550.033111
 20
212.997893
 30
0.0
 10
552.541784
 20
212.997893
 30
0.0
  0
LWPOLYLINE
  5
17d
100
AcDbEntity
  8
Layer_1
 62
7
100
AcDbPolyline
 90
38
 70
1
 10
551.000004
 20
260.137194
 30
0.0
 10
550.437659
 20
260.256693
 30
0.0
 10
549.912434
 20
260.490495
 30
0.0
 10
549.447323
 20
260.828392
 30
0.0
 10
549.062645
 20
261.255691
 30
0.0
 10
548.775202
 20
261.753600
 30
0.0
 10
548.597534
 20
262.300301
 30
0.0
 10
548.537447
 20
262.872102
 30
0.0
 10
548.590047
 20
263.372101
 30
0.0
 10
548.537447
 20
263.872100
 30
0.0
 10
548.590047
 20
264.372102
 30
0.0
 10
548.537447
 20
264.872101
 30
0.0
 10
548.597534
 20
265.443802
 30
0.0
 10
548.775202
 20
265.990598
 30
0.0
 10
549.062645
 20
266.488499
 30
0.0
 10
549.447323
 20
266.915698
 30
0.0
 10
549.912461
 20
267.253698
 30
0.0
 10
550.437659
 20
267.487497
 30
0.0
 10
551.000004
 20
267.606998
 30
0.0
 10
551.574891
 20
267.606998
 30
0.0
 10
552.137236
 20
267.487497
 30
0.0
 10
552.662434
 20
267.253698
 30
0.0
 10
553.127545
 20
266.915698
 30
0.0
 10
553.512223
 20
266.488499
 30
0.0
 10
553.799692
 20
265.990598
 30
0.0
 10
553.977334
 20
265.443802
 30
0.0
 10
554.037447
 20
264.872101
 30
0.0
 10
553.984848
 20
264.372102
 30
0.0
 10
554.037447
 20
263.872100
 30
0.0
 10
553.984848
 20
263.372101
 30
0.0
 10
554.037447
 20
262.872102
 30
0.0
 10
553.977334
 20
262.300301
 30
0.0
 10
553.799692
 20
261.753600
 30
0.0
 10
553.512223
 20
261.255691
 30
0.0
 10
553.127545
 20
260.828392
 30
0.0
 10
552.662434
 20
260.490495
 30
0.0
 10
552.137236
 20
260.256693
 30
0.0
 10
551.574891
 20
260.137194
 30
0.0
  0
LWPOLYLINE
  5
17e
100
AcDbEntity
  8
Layer_1
 62
7
100
AcDbPolyline
 90
30
 70
1
 10
576.937267
 20
260.540491
 30
0.0
 10
576.252261
 20
260.686091
 30
0.0
 10
575.612445
 20
260.970891
 30
0.0
 10
575.045866
 20
261.382591
 30
0.0
 10
574.577263
 20
261.903002
 30
0.0
 10
574.227060
 20
262.509501
 30
0.0
 10
574.010658
 20
263.175601
 30
0.0
 10
573.937447
 20
263.872100
 30
0.0
 10
574.010658
 20
264.568600
 30
0.0
 10
574.227060
 20
265.234702
 30
0.0
 10
574.577263
 20
265.841198
 30
0.0
 10
575.045866
 20
266.361597
 30
0.0
 10
575.612445
 20
266.773299
 30
0.0
 10
576.252261
 20
267.058099
 30
0.0
 10
576.937267
 20
267.203699
 30
0.0
 10
577.637645
 20
267.203699
 30
0.0
 10
578.322652
 20
267.058099
 30
0.0
 10
578.962467
 20
266.773299
 30
0.0
 10
579.529046
 20
266.361597
 30
0.0
 10
579.997649
 20
265.841198
 30
0.0
 10
580.347852
 20
265.234702
 30
0.0
 10
580.564255
 20
264.568600
 30
0.0
 10
580.637465
 20
263.872100
 30
0.0
 10
580.564255
 20
263.175601
 30
0.0
 10
580.347852
 20
262.509501
 30
0.0
 10
579.997649
 20
261.903002
 30
0.0
 10
579.529046
 20
261.382591
 30
0.0
 10
578.962467
 20
260.970891
 30
0.0
 10
578.322652
 20
260.686091
 30
0.0
 10
577.637645
 20
260.540491
 30
0.0
  0
LWPOLYLINE
  5
17f
100
AcDbEntity
  8
Layer_1
 62
7
100
AcDbPolyline
 90
30
 70
1
 10
524.937223
 20
260.540491
 30
0.0
 10
524.252216
 20
260.686091
 30
0.0
 10
523.612427
 20
260.970891
 30
0.0
 10
523.045822
 20
261.382591
 30
0.0
 10
522.577219
 20
261.903002
 30
0.0
 10
522.227016
 20
262.509501
 30
0.0
 10
522.010614
 20
263.175601
 30
0.0
 10
521.937430
 20
263.872100
 30
0.0
 10
522.010614
 20
264.568600
 30
0.0
 10
522.227016
 20
265.234702
 30
0.0
 10
522.577219
 20
265.841198
 30
0.0
 10
523.045822
 20
266.361597
 30
0.0
 10
523.612427
 20
266.773299
 30
0.0
 10
524.252216
 20
267.058099
 30
0.0
 10
524.937223
 20
267.203699
 30
0.0
 10
525.637628
 20
267.203699
 30
0.0
 10
526.322634
 20
267.058099
 30
0.0
 10
526.962423
 20
266.773299
 30
0.0
 10
527.529028
 20
266.361597
 30
0.0
 10
527.997632
 20
265.841198
 30
0.0
 10
528.347834
 20
265.234702
 30
0.0
 10
528.564237
 20
264.568600
 30
0.0
 10
528.637447
 20
263.872100
 30
0.0
 10
528.564237
 20
263.175601
 30
0.0
 10
528.347834
 20
262.509501
 30
0.0
 10
527.997632
 20
261.903002
 30
0.0
 10
527.529028
 20
261.382591
 30
0.0
 10
526.962423
 20
260.970891
 30
0.0
 10
526.322634
 20
260.686091
 30
0.0
 10
525.637628
 20
260.540491
 30
0.0
  0
LWPOLYLINE
  5
180
100
AcDbEntity
  8
Layer_1
 62
7
100
AcDbPolyline
 90
34
 70
1
 10
550.937298
 20
218.485465
 30
0.0
 10
550.252239
 20
218.631065
 30
0.0
 10
549.612450
 20
218.915915
 30
0.0
 10
549.045844
 20
219.327586
 30
0.0
 10
548.577214
 20
219.848016
 30
0.0
 10
548.227065
 20
220.454544
 30
0.0
 10
548.010636
 20
221.120614
 30
0.0
 10
547.937452
 20
221.817106
 30
0.0
 10
548.010636
 20
222.513616
 30
0.0
 10
548.129169
 20
222.878344
 30
0.0
 10
548.254476
 20
222.942244
 30
0.0
 10
548.318478
 20
223.139046
 30
0.0
 10
548.658177
 20
223.727421
 30
0.0
 10
549.112810
 20
224.232352
 30
0.0
 10
549.662509
 20
224.631712
 30
0.0
 10
550.283195
 20
224.908072
 30
0.0
 10
550.947775
 20
225.049301
 30
0.0
 10
551.627199
 20
225.049301
 30
0.0
 10
552.291806
 20
224.908072
 30
0.0
 10
552.912492
 20
224.631712
 30
0.0
 10
553.462164
 20
224.232352
 30
0.0
 10
553.916797
 20
223.727421
 30
0.0
 10
554.256496
 20
223.139046
 30
0.0
 10
554.466469
 20
222.492844
 30
0.0
 10
554.475465
 20
222.402745
 30
0.0
 10
554.581139
 20
222.348945
 30
0.0
 10
554.637046
 20
221.817114
 30
0.0
 10
554.563836
 20
221.120625
 30
0.0
 10
554.347406
 20
220.454555
 30
0.0
 10
553.997257
 20
219.848024
 30
0.0
 10
553.528627
 20
219.327596
 30
0.0
 10
552.962048
 20
218.915926
 30
0.0
 10
552.322233
 20
218.631075
 30
0.0
 10
551.637200
 20
218.485475
 30
0.0
  0
LWPOLYLINE
  5
181
100
AcDbEntity
  8
Layer_1
 62
7
100
AcDbPolyline
 90
47
 70
1
 10
460.709910
 20
212.364652
 30
0.0
 10
463.001704
 20
213.385039
 30
0.0
 10
465.031270
 20
214.859617
 30
0.0
 10
466.709892
 20
216.723927
 30
0.0
 10
467.964202
 20
218.896524
 30
0.0
 10
468.654712
 20
221.021604
 30
0.0
 10
485.049327
 20
253.197748
 30
0.0
 10
485.091925
 20
253.206743
 30
0.0
 10
487.001714
 20
254.057053
 30
0.0
 10
488.693010
 20
255.285860
 30
0.0
 10
490.091915
 20
256.839451
 30
0.0
 10
491.137205
 20
258.649950
 30
0.0
 10
491.783211
 20
260.638249
 30
0.0
 10
492.001704
 20
262.717347
 30
0.0
 10
491.783211
 20
264.796449
 30
0.0
 10
491.137205
 20
266.784755
 30
0.0
 10
490.091915
 20
268.595146
 30
0.0
 10
488.693010
 20
270.148755
 30
0.0
 10
487.001714
 20
271.377652
 30
0.0
 10
485.091925
 20
272.227952
 30
0.0
 10
483.047014
 20
272.662552
 30
0.0
 10
481.001705
 20
272.662552
 30
0.0
 10
481.001705
 20
272.777342
 30
0.0
 10
433.001711
 20
272.777342
 30
0.0
 10
433.001711
 20
272.662542
 30
0.0
 10
430.956403
 20
272.662542
 30
0.0
 10
428.911517
 20
272.227942
 30
0.0
 10
427.001728
 20
271.377642
 30
0.0
 10
425.310406
 20
270.148745
 30
0.0
 10
423.911527
 20
268.595146
 30
0.0
 10
422.866211
 20
266.784745
 30
0.0
 10
422.220205
 20
264.796449
 30
0.0
 10
422.001712
 20
262.717347
 30
0.0
 10
422.220205
 20
260.638238
 30
0.0
 10
422.866211
 20
258.649950
 30
0.0
 10
423.911527
 20
256.839451
 30
0.0
 10
425.310406
 20
255.285853
 30
0.0
 10
427.001728
 20
254.057053
 30
0.0
 10
428.184707
 20
253.530345
 30
0.0
 10
446.339304
 20
217.900045
 30
0.0
 10
446.551897
 20
218.008394
 30
0.0
 10
447.293524
 20
216.723924
 30
0.0
 10
448.972146
 20
214.859615
 30
0.0
 10
451.001712
 20
213.385036
 30
0.0
 10
453.293506
 20
212.364649
 30
0.0
 10
455.747385
 20
211.843158
 30
0.0
 10
458.256031
 20
211.843158
 30
0.0
  0
LWPOLYLINE
  5
182
100
AcDbEntity
  8
Layer_1
 62
7
100
AcDbPolyline
 90
38
 70
1
 10
456.714251
 20
258.982455
 30
0.0
 10
456.151906
 20
259.101954
 30
0.0
 10
455.626708
 20
259.335753
 30
0.0
 10
455.161597
 20
259.673655
 30
0.0
 10
454.776919
 20
260.100954
 30
0.0
 10
454.489476
 20
260.598850
 30
0.0
 10
454.311808
 20
261.145551
 30
0.0
 10
454.251721
 20
261.717352
 30
0.0
 10
454.304321
 20
262.217351
 30
0.0
 10
454.251721
 20
262.717350
 30
0.0
 10
454.304321
 20
263.217352
 30
0.0
 10
454.251721
 20
263.717351
 30
0.0
 10
454.311808
 20
264.289052
 30
0.0
 10
454.489476
 20
264.835850
 30
0.0
 10
454.776919
 20
265.333751
 30
0.0
 10
455.161597
 20
265.760950
 30
0.0
 10
455.626735
 20
266.098947
 30
0.0
 10
456.151906
 20
266.332749
 30
0.0
 10
456.714251
 20
266.452248
 30
0.0
 10
457.289165
 20
266.452248
 30
0.0
 10
457.851484
 20
266.332749
 30
0.0
 10
458.376708
 20
266.098947
 30
0.0
 10
458.841819
 20
265.760950
 30
0.0
 10
459.226497
 20
265.333751
 30
0.0
 10
459.513966
 20
264.835850
 30
0.0
 10
459.691608
 20
264.289052
 30
0.0
 10
459.751695
 20
263.717351
 30
0.0
 10
459.699095
 20
263.217352
 30
0.0
 10
459.751695
 20
262.717350
 30
0.0
 10
459.699095
 20
262.217351
 30
0.0
 10
459.751695
 20
261.717352
 30
0.0
 10
459.691608
 20
261.145551
 30
0.0
 10
459.513966
 20
260.598850
 30
0.0
 10
459.226497
 20
260.100954
 30
0.0
 10
458.841819
 20
259.673655
 30
0.0
 10
458.376708
 20
259.335753
 30
0.0
 10
457.851484
 20
259.101954
 30
0.0
 10
457.289165
 20
258.982455
 30
0.0
  0
LWPOLYLINE
  5
183
100
AcDbEntity
  8
Layer_1
 62
7
100
AcDbPolyline
 90
30
 70
1
 10
482.651514
 20
259.385754
 30
0.0
 10
481.966508
 20
259.531354
 30
0.0
 10
481.326719
 20
259.816154
 30
0.0
 10
480.760114
 20
260.227854
 30
0.0
 10
480.291510
 20
260.748252
 30
0.0
 10
479.941308
 20
261.354741
 30
0.0
 10
479.724905
 20
262.020850
 30
0.0
 10
479.651721
 20
262.717350
 30
0.0
 10
479.724905
 20
263.413850
 30
0.0
 10
479.941308
 20
264.079952
 30
0.0
 10
480.291510
 20
264.686451
 30
0.0
 10
480.760114
 20
265.206852
 30
0.0
 10
481.326719
 20
265.618551
 30
0.0
 10
481.966508
 20
265.903349
 30
0.0
 10
482.651514
 20
266.048949
 30
0.0
 10
483.351919
 20
266.048949
 30
0.0
 10
484.036899
 20
265.903349
 30
0.0
 10
484.676715
 20
265.618551
 30
0.0
 10
485.243320
 20
265.206852
 30
0.0
 10
485.711897
 20
264.686451
 30
0.0
 10
486.062099
 20
264.079952
 30
0.0
 10
486.278502
 20
263.413850
 30
0.0
 10
486.351712
 20
262.717350
 30
0.0
 10
486.278502
 20
262.020850
 30
0.0
 10
486.062099
 20
261.354741
 30
0.0
 10
485.711897
 20
260.748252
 30
0.0
 10
485.243320
 20
260.227854
 30
0.0
 10
484.676715
 20
259.816154
 30
0.0
 10
484.036899
 20
259.531354
 30
0.0
 10
483.351919
 20
259.385754
 30
0.0
  0
LWPOLYLINE
  5
184
100
AcDbEntity
  8
Layer_1
 62
7
100
AcDbPolyline
 90
30
 70
1
 10
430.651523
 20
259.385754
 30
0.0
 10
429.966517
 20
259.531354
 30
0.0
 10
429.326728
 20
259.816154
 30
0.0
 10
428.760123
 20
260.227854
 30
0.0
 10
428.291519
 20
260.748252
 30
0.0
 10
427.941317
 20
261.354741
 30
0.0
 10
427.724914
 20
262.020850
 30
0.0
 10
427.651704
 20
262.717350
 30
0.0
 10
427.724914
 20
263.413850
 30
0.0
 10
427.941317
 20
264.079952
 30
0.0
 10
428.291519
 20
264.686451
 30
0.0
 10
428.760123
 20
265.206852
 30
0.0
 10
429.326728
 20
265.618551
 30
0.0
 10
429.966517
 20
265.903349
 30
0.0
 10
430.651523
 20
266.048949
 30
0.0
 10
431.351928
 20
266.048949
 30
0.0
 10
432.036908
 20
265.903349
 30
0.0
 10
432.676697
 20
265.618551
 30
0.0
 10
433.243302
 20
265.206852
 30
0.0
 10
433.711906
 20
264.686451
 30
0.0
 10
434.062108
 20
264.079952
 30
0.0
 10
434.278511
 20
263.413850
 30
0.0
 10
434.351695
 20
262.717350
 30
0.0
 10
434.278511
 20
262.020850
 30
0.0
 10
434.062108
 20
261.354741
 30
0.0
 10
433.711906
 20
260.748252
 30
0.0
 10
433.243302
 20
260.227854
 30
0.0
 10
432.676697
 20
259.816154
 30
0.0
 10
432.036908
 20
259.531354
 30
0.0
 10
431.351928
 20
259.385754
 30
0.0
  0
LWPOLYLINE
  5
185
100
AcDbEntity
  8
Layer_1
 62
7
100
AcDbPolyline
 90
34
 70
1
 10
456.651545
 20
217.330717
 30
0.0
 10
455.966513
 20
217.476317
 30
0.0
 10
455.326724
 20
217.761168
 30
0.0
 10
454.760145
 20
218.172836
 30
0.0
 10
454.291515
 20
218.693266
 30
0.0
 10
453.941339
 20
219.299805
 30
0.0
 10
453.724910
 20
219.965864
 30
0.0
 10
453.651726
 20
220.662356
 30
0.0
 10
453.724910
 20
221.358866
 30
0.0
 10
453.843443
 20
221.723594
 30
0.0
 10
453.968750
 20
221.787494
 30
0.0
 10
454.032646
 20
221.984296
 30
0.0
 10
454.372345
 20
222.572674
 30
0.0
 10
454.826979
 20
223.077605
 30
0.0
 10
455.376677
 20
223.476962
 30
0.0
 10
455.997363
 20
223.753322
 30
0.0
 10
456.661943
 20
223.894553
 30
0.0
 10
457.341367
 20
223.894553
 30
0.0
 10
458.005947
 20
223.753322
 30
0.0
 10
458.626660
 20
223.476962
 30
0.0
 10
459.176332
 20
223.077605
 30
0.0
 10
459.630965
 20
222.572674
 30
0.0
 10
459.970664
 20
221.984296
 30
0.0
 10
460.180637
 20
221.338104
 30
0.0
 10
460.189633
 20
221.248006
 30
0.0
 10
460.295308
 20
221.194205
 30
0.0
 10
460.351188
 20
220.662374
 30
0.0
 10
460.278004
 20
219.965885
 30
0.0
 10
460.061575
 20
219.299815
 30
0.0
 10
459.711425
 20
218.693284
 30
0.0
 10
459.242795
 20
218.172854
 30
0.0
 10
458.676190
 20
217.761189
 30
0.0
 10
458.036401
 20
217.476328
 30
0.0
 10
457.351368
 20
217.330728
 30
0.0
  0
LWPOLYLINE
  5
186
100
AcDbEntity
  8
Layer_1
 62
7
100
AcDbPolyline
 90
24
 70
1
 10
625.243357
 20
218.737734
 30
0.0
 10
626.504653
 20
219.299233
 30
0.0
 10
627.621565
 20
220.110734
 30
0.0
 10
628.545357
 20
221.136735
 30
0.0
 10
629.235761
 20
222.332435
 30
0.0
 10
629.662349
 20
223.645435
 30
0.0
 10
629.806652
 20
225.018535
 30
0.0
 10
629.662349
 20
226.391532
 30
0.0
 10
629.235761
 20
227.704630
 30
0.0
 10
628.545357
 20
228.900232
 30
0.0
 10
627.621565
 20
229.926231
 30
0.0
 10
627.368253
 20
230.110333
 30
0.0
 10
627.368253
 20
256.636431
 30
0.0
 10
596.380226
 20
256.636431
 30
0.0
 10
596.380226
 20
224.327634
 30
0.0
 10
616.671254
 20
224.327634
 30
0.0
 10
616.742956
 20
223.645435
 30
0.0
 10
617.169518
 20
222.332435
 30
0.0
 10
617.859815
 20
221.136735
 30
0.0
 10
618.783714
 20
220.110734
 30
0.0
 10
619.900626
 20
219.299233
 30
0.0
 10
621.161842
 20
218.737734
 30
0.0
 10
622.512355
 20
218.450733
 30
0.0
 10
623.892924
 20
218.450733
 30
0.0
  0
LWPOLYLINE
  5
187
100
AcDbEntity
  8
Layer_1
 62
7
100
AcDbPolyline
 90
30
 70
1
 10
606.323585
 20
243.317031
 30
0.0
 10
605.740840
 20
243.440930
 30
0.0
 10
605.196566
 20
243.683230
 30
0.0
 10
604.714575
 20
244.033430
 30
0.0
 10
604.315900
 20
244.476232
 30
0.0
 10
604.018006
 20
244.992132
 30
0.0
 10
603.833909
 20
245.558732
 30
0.0
 10
603.771626
 20
246.151333
 30
0.0
 10
603.833909
 20
246.743833
 30
0.0
 10
604.018006
 20
247.310432
 30
0.0
 10
604.315900
 20
247.826431
 30
0.0
 10
604.714575
 20
248.269232
 30
0.0
 10
605.196566
 20
248.619331
 30
0.0
 10
605.740840
 20
248.861732
 30
0.0
 10
606.323585
 20
248.985631
 30
0.0
 10
606.919427
 20
248.985631
 30
0.0
 10
607.502119
 20
248.861732
 30
0.0
 10
608.046420
 20
248.619331
 30
0.0
 10
608.528438
 20
248.269232
 30
0.0
 10
608.927138
 20
247.826431
 30
0.0
 10
609.225032
 20
247.310432
 30
0.0
 10
609.409130
 20
246.743833
 30
0.0
 10
609.471439
 20
246.151333
 30
0.0
 10
609.409130
 20
245.558732
 30
0.0
 10
609.225032
 20
244.992132
 30
0.0
 10
608.927138
 20
244.476232
 30
0.0
 10
608.528438
 20
244.033430
 30
0.0
 10
608.046420
 20
243.683230
 30
0.0
 10
607.502119
 20
243.440930
 30
0.0
 10
606.919427
 20
243.317031
 30
0.0
  0
LWPOLYLINE
  5
188
100
AcDbEntity
  8
Layer_1
 62
7
100
AcDbPolyline
 90
30
 70
1
 10
623.200853
 20
243.977233
 30
0.0
 10
622.720449
 20
244.079333
 30
0.0
 10
622.271742
 20
244.279130
 30
0.0
 10
621.874365
 20
244.567833
 30
0.0
 10
621.545752
 20
244.932831
 30
0.0
 10
621.300140
 20
245.358231
 30
0.0
 10
621.148348
 20
245.825331
 30
0.0
 10
621.096940
 20
246.313832
 30
0.0
 10
621.148348
 20
246.802332
 30
0.0
 10
621.300140
 20
247.269531
 30
0.0
 10
621.545752
 20
247.694832
 30
0.0
 10
621.874365
 20
248.059931
 30
0.0
 10
622.271742
 20
248.348631
 30
0.0
 10
622.720449
 20
248.548331
 30
0.0
 10
623.200853
 20
248.650531
 30
0.0
 10
623.692052
 20
248.650531
 30
0.0
 10
624.172562
 20
248.548331
 30
0.0
 10
624.621242
 20
248.348631
 30
0.0
 10
625.018647
 20
248.059931
 30
0.0
 10
625.347259
 20
247.694832
 30
0.0
 10
625.592845
 20
247.269531
 30
0.0
 10
625.744663
 20
246.802332
 30
0.0
 10
625.795966
 20
246.313832
 30
0.0
 10
625.744663
 20
245.825331
 30
0.0
 10
625.592845
 20
245.358231
 30
0.0
 10
625.347259
 20
244.932831
 30
0.0
 10
625.018647
 20
244.567833
 30
0.0
 10
624.621242
 20
244.279130
 30
0.0
 10
624.172562
 20
244.079333
 30
0.0
 10
623.692052
 20
243.977233
 30
0.0
  0
LWPOLYLINE
  5
189
100
AcDbEntity
  8
Layer_1
 62
7
100
AcDbPolyline
 90
30
 70
1
 10
622.904758
 20
222.184234
 30
0.0
 10
622.321960
 20
222.308133
 30
0.0
 10
621.777660
 20
222.550433
 30
0.0
 10
621.295748
 20
222.900633
 30
0.0
 10
620.897047
 20
223.343434
 30
0.0
 10
620.599153
 20
223.859335
 30
0.0
 10
620.415055
 20
224.426035
 30
0.0
 10
620.352746
 20
225.018535
 30
0.0
 10
620.415055
 20
225.611035
 30
0.0
 10
620.599153
 20
226.177632
 30
0.0
 10
620.897047
 20
226.693631
 30
0.0
 10
621.295748
 20
227.136432
 30
0.0
 10
621.777660
 20
227.486531
 30
0.0
 10
622.321960
 20
227.728932
 30
0.0
 10
622.904758
 20
227.852731
 30
0.0
 10
623.500547
 20
227.852731
 30
0.0
 10
624.083265
 20
227.728932
 30
0.0
 10
624.627540
 20
227.486531
 30
0.0
 10
625.109558
 20
227.136432
 30
0.0
 10
625.508258
 20
226.693631
 30
0.0
 10
625.806153
 20
226.177632
 30
0.0
 10
625.990250
 20
225.611035
 30
0.0
 10
626.052532
 20
225.018535
 30
0.0
 10
625.990250
 20
224.426035
 30
0.0
 10
625.806153
 20
223.859335
 30
0.0
 10
625.508258
 20
223.343434
 30
0.0
 10
625.109558
 20
222.900633
 30
0.0
 10
624.627540
 20
222.550433
 30
0.0
 10
624.083265
 20
222.308133
 30
0.0
 10
623.500547
 20
222.184234
 30
0.0
  0
LWPOLYLINE
  5
18a
100
AcDbEntity
  8
Layer_1
 62
7
100
AcDbPolyline
 90
24
 70
1
 10
672.542073
 20
250.675366
 30
0.0
 10
672.795385
 20
250.859355
 30
0.0
 10
673.719178
 20
251.885356
 30
0.0
 10
674.409582
 20
253.081066
 30
0.0
 10
674.836169
 20
254.394053
 30
0.0
 10
674.980473
 20
255.767063
 30
0.0
 10
674.836169
 20
257.140153
 30
0.0
 10
674.409582
 20
258.453153
 30
0.0
 10
673.719178
 20
259.648850
 30
0.0
 10
672.795385
 20
260.674849
 30
0.0
 10
671.678473
 20
261.486350
 30
0.0
 10
670.417178
 20
262.047851
 30
0.0
 10
669.066771
 20
262.334950
 30
0.0
 10
667.686175
 20
262.334950
 30
0.0
 10
666.335662
 20
262.047851
 30
0.0
 10
665.074473
 20
261.486350
 30
0.0
 10
663.957561
 20
260.674849
 30
0.0
 10
663.033662
 20
259.648850
 30
0.0
 10
662.343365
 20
258.453153
 30
0.0
 10
661.916777
 20
257.140153
 30
0.0
 10
661.830179
 20
256.315754
 30
0.0
 10
641.554047
 20
256.315754
 30
0.0
 10
641.554047
 20
224.006964
 30
0.0
 10
672.542073
 20
224.006964
 30
0.0
  0
LWPOLYLINE
  5
18b
100
AcDbEntity
  8
Layer_1
 62
7
100
AcDbPolyline
 90
30
 70
1
 10
668.078579
 20
252.932876
 30
0.0
 10
667.495781
 20
253.056746
 30
0.0
 10
666.951480
 20
253.299057
 30
0.0
 10
666.469568
 20
253.649256
 30
0.0
 10
666.070868
 20
254.091955
 30
0.0
 10
665.772973
 20
254.607942
 30
0.0
 10
665.588876
 20
255.174553
 30
0.0
 10
665.526567
 20
255.767063
 30
0.0
 10
665.588876
 20
256.359643
 30
0.0
 10
665.772973
 20
256.926253
 30
0.0
 10
666.070868
 20
257.442254
 30
0.0
 10
666.469568
 20
257.884953
 30
0.0
 10
666.951480
 20
258.235152
 30
0.0
 10
667.495781
 20
258.477553
 30
0.0
 10
668.078579
 20
258.601354
 30
0.0
 10
668.674368
 20
258.601354
 30
0.0
 10
669.257059
 20
258.477553
 30
0.0
 10
669.801360
 20
258.235152
 30
0.0
 10
670.283378
 20
257.884953
 30
0.0
 10
670.682079
 20
257.442254
 30
0.0
 10
670.979973
 20
256.926253
 30
0.0
 10
671.164070
 20
256.359643
 30
0.0
 10
671.226353
 20
255.767063
 30
0.0
 10
671.164070
 20
255.174553
 30
0.0
 10
670.979973
 20
254.607942
 30
0.0
 10
670.682079
 20
254.091955
 30
0.0
 10
670.283378
 20
253.649256
 30
0.0
 10
669.801360
 20
253.299057
 30
0.0
 10
669.257059
 20
253.056746
 30
0.0
 10
668.674368
 20
252.932876
 30
0.0
  0
LWPOLYLINE
  5
18c
100
AcDbEntity
  8
Layer_1
 62
7
100
AcDbPolyline
 90
30
 70
1
 10
651.558339
 20
245.678559
 30
0.0
 10
650.975621
 20
245.802458
 30
0.0
 10
650.431347
 20
246.044769
 30
0.0
 10
649.949329
 20
246.394969
 30
0.0
 10
649.550681
 20
246.837770
 30
0.0
 10
649.252787
 20
247.353758
 30
0.0
 10
649.068690
 20
247.920368
 30
0.0
 10
649.006407
 20
248.512850
 30
0.0
 10
649.068690
 20
249.105355
 30
0.0
 10
649.252787
 20
249.672064
 30
0.0
 10
649.550681
 20
250.187946
 30
0.0
 10
649.949329
 20
250.630755
 30
0.0
 10
650.431347
 20
250.980955
 30
0.0
 10
650.975621
 20
251.223265
 30
0.0
 10
651.558339
 20
251.347167
 30
0.0
 10
652.154155
 20
251.347167
 30
0.0
 10
652.736979
 20
251.223265
 30
0.0
 10
653.281253
 20
250.980955
 30
0.0
 10
653.763245
 20
250.630755
 30
0.0
 10
654.161866
 20
250.187946
 30
0.0
 10
654.459734
 20
249.672064
 30
0.0
 10
654.643857
 20
249.105355
 30
0.0
 10
654.706167
 20
248.512850
 30
0.0
 10
654.643857
 20
247.920368
 30
0.0
 10
654.459734
 20
247.353758
 30
0.0
 10
654.161866
 20
246.837770
 30
0.0
 10
653.763245
 20
246.394969
 30
0.0
 10
653.281253
 20
246.044769
 30
0.0
 10
652.736979
 20
245.802458
 30
0.0
 10
652.154155
 20
245.678559
 30
0.0
  0
LWPOLYLINE
  5
18d
100
AcDbEntity
  8
Layer_1
 62
7
100
AcDbPolyline
 90
30
 70
1
 10
668.313767
 20
231.972590
 30
0.0
 10
667.833284
 20
232.074692
 30
0.0
 10
667.384577
 20
232.274479
 30
0.0
 10
666.987278
 20
232.563166
 30
0.0
 10
666.658586
 20
232.928183
 30
0.0
 10
666.412974
 20
233.353553
 30
0.0
 10
666.261182
 20
233.820725
 30
0.0
 10
666.209880
 20
234.309175
 30
0.0
 10
666.261182
 20
234.797675
 30
0.0
 10
666.412974
 20
235.264874
 30
0.0
 10
666.658586
 20
235.690165
 30
0.0
 10
666.987278
 20
236.055166
 30
0.0
 10
667.384577
 20
236.343956
 30
0.0
 10
667.833284
 20
236.543666
 30
0.0
 10
668.313767
 20
236.645875
 30
0.0
 10
668.804966
 20
236.645875
 30
0.0
 10
669.285370
 20
236.543666
 30
0.0
 10
669.734077
 20
236.343956
 30
0.0
 10
670.131481
 20
236.055166
 30
0.0
 10
670.460173
 20
235.690165
 30
0.0
 10
670.705680
 20
235.264874
 30
0.0
 10
670.857471
 20
234.797675
 30
0.0
 10
670.908853
 20
234.309175
 30
0.0
 10
670.857471
 20
233.820725
 30
0.0
 10
670.705680
 20
233.353553
 30
0.0
 10
670.460173
 20
232.928183
 30
0.0
 10
670.131481
 20
232.563166
 30
0.0
 10
669.734077
 20
232.274479
 30
0.0
 10
669.285370
 20
232.074692
 30
0.0
 10
668.804966
 20
231.972590
 30
0.0
  0
LWPOLYLINE
  5
18e
100
AcDbEntity
  8
Layer_1
 62
7
100
AcDbPolyline
 90
5
 70
1
 10
754.172646
 20
305.370550
 30
0.0
 10
728.482821
 20
305.370550
 30
0.0
 10
713.171675
 20
278.334466
 30
0.0
 10
713.171675
 20
243.614378
 30
0.0
 10
754.172646
 20
243.614378
 30
0.0
  0
LWPOLYLINE
  5
18f
100
AcDbEntity
  8
Layer_1
 62
7
100
AcDbPolyline
 90
30
 70
1
 10
749.026659
 20
293.347930
 30
0.0
 10
748.609120
 20
293.438184
 30
0.0
 10
748.219018
 20
293.614770
 30
0.0
 10
747.873605
 20
293.870715
 30
0.0
 10
747.587934
 20
294.194120
 30
0.0
 10
747.374415
 20
294.571096
 30
0.0
 10
747.242521
 20
294.985767
 30
0.0
 10
747.197859
 20
295.418308
 30
0.0
 10
747.242521
 20
295.850838
 30
0.0
 10
747.374415
 20
296.265517
 30
0.0
 10
747.587934
 20
296.642495
 30
0.0
 10
747.873605
 20
296.965898
 30
0.0
 10
748.219018
 20
297.221853
 30
0.0
 10
748.609120
 20
297.398439
 30
0.0
 10
749.026659
 20
297.488696
 30
0.0
 10
749.453723
 20
297.488696
 30
0.0
 10
749.871262
 20
297.398439
 30
0.0
 10
750.261364
 20
297.221853
 30
0.0
 10
750.606804
 20
296.965898
 30
0.0
 10
750.892448
 20
296.642495
 30
0.0
 10
751.105966
 20
296.265517
 30
0.0
 10
751.237861
 20
295.850838
 30
0.0
 10
751.282523
 20
295.418308
 30
0.0
 10
751.237861
 20
294.985767
 30
0.0
 10
751.105966
 20
294.571096
 30
0.0
 10
750.892448
 20
294.194120
 30
0.0
 10
750.606804
 20
293.870715
 30
0.0
 10
750.261364
 20
293.614770
 30
0.0
 10
749.871262
 20
293.438184
 30
0.0
 10
749.453723
 20
293.347930
 30
0.0
  0
LWPOLYLINE
  5
190
100
AcDbEntity
  8
Layer_1
 62
7
100
AcDbPolyline
 90
30
 70
1
 10
727.601389
 20
293.347930
 30
0.0
 10
727.183744
 20
293.438184
 30
0.0
 10
726.793695
 20
293.614770
 30
0.0
 10
726.448281
 20
293.870715
 30
0.0
 10
726.162584
 20
294.194120
 30
0.0
 10
725.949092
 20
294.571096
 30
0.0
 10
725.817144
 20
294.985767
 30
0.0
 10
725.772483
 20
295.418308
 30
0.0
 10
725.817144
 20
295.850838
 30
0.0
 10
725.949092
 20
296.265517
 30
0.0
 10
726.162584
 20
296.642495
 30
0.0
 10
726.448281
 20
296.965898
 30
0.0
 10
726.793695
 20
297.221853
 30
0.0
 10
727.183744
 20
297.398439
 30
0.0
 10
727.601389
 20
297.488696
 30
0.0
 10
728.028347
 20
297.488696
 30
0.0
 10
728.445991
 20
297.398439
 30
0.0
 10
728.836040
 20
297.221853
 30
0.0
 10
729.181454
 20
296.965898
 30
0.0
 10
729.467151
 20
296.642495
 30
0.0
 10
729.680643
 20
296.265517
 30
0.0
 10
729.812591
 20
295.850838
 30
0.0
 10
729.857252
 20
295.418308
 30
0.0
 10
729.812591
 20
294.985767
 30
0.0
 10
729.680643
 20
294.571096
 30
0.0
 10
729.467151
 20
294.194120
 30
0.0
 10
729.181454
 20
293.870715
 30
0.0
 10
728.836040
 20
293.614770
 30
0.0
 10
728.445991
 20
293.438184
 30
0.0
 10
728.028347
 20
293.347930
 30
0.0
  0
LWPOLYLINE
  5
191
100
AcDbEntity
  8
Layer_1
 62
7
100
AcDbPolyline
 90
30
 70
1
 10
749.267747
 20
277.041730
 30
0.0
 10
748.944665
 20
277.111797
 30
0.0
 10
748.642907
 20
277.248701
 30
0.0
 10
748.375731
 20
277.446614
 30
0.0
 10
748.154698
 20
277.696905
 30
0.0
 10
747.989492
 20
277.988473
 30
0.0
 10
747.887416
 20
278.308709
 30
0.0
 10
747.852941
 20
278.643626
 30
0.0
 10
747.887416
 20
278.978533
 30
0.0
 10
747.989492
 20
279.298769
 30
0.0
 10
748.154698
 20
279.590327
 30
0.0
 10
748.375731
 20
279.840617
 30
0.0
 10
748.642907
 20
280.038541
 30
0.0
 10
748.944665
 20
280.175434
 30
0.0
 10
749.267747
 20
280.245501
 30
0.0
 10
749.597974
 20
280.245501
 30
0.0
 10
749.921083
 20
280.175434
 30
0.0
 10
750.222840
 20
280.038541
 30
0.0
 10
750.489990
 20
279.840617
 30
0.0
 10
750.711049
 20
279.590327
 30
0.0
 10
750.876255
 20
279.298769
 30
0.0
 10
750.978199
 20
278.978533
 30
0.0
 10
751.012780
 20
278.643626
 30
0.0
 10
750.978199
 20
278.308709
 30
0.0
 10
750.876255
 20
277.988473
 30
0.0
 10
750.711049
 20
277.696905
 30
0.0
 10
750.489990
 20
277.446614
 30
0.0
 10
750.222840
 20
277.248701
 30
0.0
 10
749.921083
 20
277.111797
 30
0.0
 10
749.597974
 20
277.041730
 30
0.0
  0
LWPOLYLINE
  5
192
100
AcDbEntity
  8
Layer_1
 62
7
100
AcDbPolyline
 90
30
 70
1
 10
732.804446
 20
251.601053
 30
0.0
 10
730.453597
 20
252.110466
 30
0.0
 10
728.258005
 20
253.107086
 30
0.0
 10
726.313661
 20
254.547236
 30
0.0
 10
724.705497
 20
256.368035
 30
0.0
 10
723.503839
 20
258.489930
 30
0.0
 10
722.761154
 20
260.820153
 30
0.0
 10
722.509932
 20
263.256923
 30
0.0
 10
722.761154
 20
265.693682
 30
0.0
 10
723.503839
 20
268.023915
 30
0.0
 10
724.705497
 20
270.145797
 30
0.0
 10
726.313661
 20
271.966607
 30
0.0
 10
728.258005
 20
273.406760
 30
0.0
 10
730.453597
 20
274.403377
 30
0.0
 10
732.804446
 20
274.912792
 30
0.0
 10
735.207815
 20
274.912792
 30
0.0
 10
737.558638
 20
274.403377
 30
0.0
 10
739.754230
 20
273.406760
 30
0.0
 10
741.698547
 20
271.966607
 30
0.0
 10
743.306738
 20
270.145797
 30
0.0
 10
744.508422
 20
268.023915
 30
0.0
 10
745.251055
 20
265.693682
 30
0.0
 10
745.502330
 20
263.256923
 30
0.0
 10
745.251055
 20
260.820153
 30
0.0
 10
744.508422
 20
258.489930
 30
0.0
 10
743.306738
 20
256.368035
 30
0.0
 10
741.698547
 20
254.547236
 30
0.0
 10
739.754230
 20
253.107086
 30
0.0
 10
737.558638
 20
252.110466
 30
0.0
 10
735.207815
 20
251.601053
 30
0.0
  0
LWPOLYLINE
  5
193
100
AcDbEntity
  8
Layer_1
 62
7
100
AcDbPolyline
 90
30
 70
1
 10
718.761051
 20
246.464819
 30
0.0
 10
718.437968
 20
246.534886
 30
0.0
 10
718.136237
 20
246.671800
 30
0.0
 10
717.869035
 20
246.869703
 30
0.0
 10
717.648002
 20
247.120001
 30
0.0
 10
717.482875
 20
247.411572
 30
0.0
 10
717.380799
 20
247.731805
 30
0.0
 10
717.346218
 20
248.066715
 30
0.0
 10
717.380799
 20
248.401632
 30
0.0
 10
717.482875
 20
248.721868
 30
0.0
 10
717.648002
 20
249.013426
 30
0.0
 10
717.869035
 20
249.263714
 30
0.0
 10
718.136237
 20
249.461638
 30
0.0
 10
718.437968
 20
249.598533
 30
0.0
 10
718.761051
 20
249.668598
 30
0.0
 10
719.091357
 20
249.668598
 30
0.0
 10
719.414439
 20
249.598533
 30
0.0
 10
719.716144
 20
249.461638
 30
0.0
 10
719.983373
 20
249.263714
 30
0.0
 10
720.204379
 20
249.013426
 30
0.0
 10
720.369532
 20
248.721868
 30
0.0
 10
720.471582
 20
248.401632
 30
0.0
 10
720.506084
 20
248.066715
 30
0.0
 10
720.471582
 20
247.731805
 30
0.0
 10
720.369532
 20
247.411572
 30
0.0
 10
720.204379
 20
247.120001
 30
0.0
 10
719.983373
 20
246.869703
 30
0.0
 10
719.716144
 20
246.671800
 30
0.0
 10
719.414439
 20
246.534886
 30
0.0
 10
719.091357
 20
246.464819
 30
0.0
  0
LWPOLYLINE
  5
194
100
AcDbEntity
  8
Layer_1
 62
7
100
AcDbPolyline
 90
5
 70
1
 10
472.296940
 20
322.201549
 30
0.0
 10
456.985793
 20
349.237550
 30
0.0
 10
431.295969
 20
349.237550
 30
0.0
 10
431.295969
 20
287.481578
 30
0.0
 10
472.296940
 20
287.481578
 30
0.0
  0
LWPOLYLINE
  5
195
100
AcDbEntity
  8
Layer_1
 62
7
100
AcDbPolyline
 90
30
 70
1
 10
457.440215
 20
337.214963
 30
0.0
 10
457.022650
 20
337.305220
 30
0.0
 10
456.632548
 20
337.481795
 30
0.0
 10
456.287135
 20
337.737750
 30
0.0
 10
456.001464
 20
338.061156
 30
0.0
 10
455.787945
 20
338.438134
 30
0.0
 10
455.656050
 20
338.852802
 30
0.0
 10
455.611389
 20
339.285335
 30
0.0
 10
455.656050
 20
339.717866
 30
0.0
 10
455.787945
 20
340.132544
 30
0.0
 10
456.001464
 20
340.509523
 30
0.0
 10
456.287135
 20
340.832928
 30
0.0
 10
456.632548
 20
341.088873
 30
0.0
 10
457.022650
 20
341.265458
 30
0.0
 10
457.440215
 20
341.355716
 30
0.0
 10
457.867253
 20
341.355716
 30
0.0
 10
458.284818
 20
341.265458
 30
0.0
 10
458.674893
 20
341.088873
 30
0.0
 10
459.020333
 20
340.832928
 30
0.0
 10
459.305977
 20
340.509523
 30
0.0
 10
459.519496
 20
340.132544
 30
0.0
 10
459.651417
 20
339.717866
 30
0.0
 10
459.696079
 20
339.285335
 30
0.0
 10
459.651417
 20
338.852802
 30
0.0
 10
459.519496
 20
338.438134
 30
0.0
 10
459.305977
 20
338.061156
 30
0.0
 10
459.020333
 20
337.737750
 30
0.0
 10
458.674893
 20
337.481795
 30
0.0
 10
458.284818
 20
337.305220
 30
0.0
 10
457.867253
 20
337.214963
 30
0.0
  0
LWPOLYLINE
  5
196
100
AcDbEntity
  8
Layer_1
 62
7
100
AcDbPolyline
 90
30
 70
1
 10
436.014892
 20
337.214963
 30
0.0
 10
435.597326
 20
337.305220
 30
0.0
 10
435.207225
 20
337.481795
 30
0.0
 10
434.861811
 20
337.737750
 30
0.0
 10
434.576167
 20
338.061156
 30
0.0
 10
434.362622
 20
338.438134
 30
0.0
 10
434.230727
 20
338.852802
 30
0.0
 10
434.186065
 20
339.285335
 30
0.0
 10
434.230727
 20
339.717866
 30
0.0
 10
434.362622
 20
340.132544
 30
0.0
 10
434.576167
 20
340.509523
 30
0.0
 10
434.861811
 20
340.832928
 30
0.0
 10
435.207225
 20
341.088873
 30
0.0
 10
435.597326
 20
341.265458
 30
0.0
 10
436.014892
 20
341.355716
 30
0.0
 10
436.441929
 20
341.355716
 30
0.0
 10
436.859495
 20
341.265458
 30
0.0
 10
437.249570
 20
341.088873
 30
0.0
 10
437.595010
 20
340.832928
 30
0.0
 10
437.880654
 20
340.509523
 30
0.0
 10
438.094173
 20
340.132544
 30
0.0
 10
438.226094
 20
339.717866
 30
0.0
 10
438.270756
 20
339.285335
 30
0.0
 10
438.226094
 20
338.852802
 30
0.0
 10
438.094173
 20
338.438134
 30
0.0
 10
437.880654
 20
338.061156
 30
0.0
 10
437.595010
 20
337.737750
 30
0.0
 10
437.249570
 20
337.481795
 30
0.0
 10
436.859495
 20
337.305220
 30
0.0
 10
436.441929
 20
337.214963
 30
0.0
  0
LWPOLYLINE
  5
197
100
AcDbEntity
  8
Layer_1
 62
7
100
AcDbPolyline
 90
30
 70
1
 10
435.870615
 20
320.908824
 30
0.0
 10
435.547532
 20
320.978891
 30
0.0
 10
435.245775
 20
321.115795
 30
0.0
 10
434.978598
 20
321.313708
 30
0.0
 10
434.757565
 20
321.563999
 30
0.0
 10
434.592360
 20
321.855556
 30
0.0
 10
434.490283
 20
322.175792
 30
0.0
 10
434.455808
 20
322.510710
 30
0.0
 10
434.490283
 20
322.845619
 30
0.0
 10
434.592360
 20
323.165855
 30
0.0
 10
434.757565
 20
323.457415
 30
0.0
 10
434.978598
 20
323.707703
 30
0.0
 10
435.245775
 20
323.905617
 30
0.0
 10
435.547532
 20
324.042523
 30
0.0
 10
435.870615
 20
324.112587
 30
0.0
 10
436.200841
 20
324.112587
 30
0.0
 10
436.523950
 20
324.042523
 30
0.0
 10
436.825681
 20
323.905617
 30
0.0
 10
437.092857
 20
323.707703
 30
0.0
 10
437.313890
 20
323.457415
 30
0.0
 10
437.479096
 20
323.165855
 30
0.0
 10
437.581172
 20
322.845619
 30
0.0
 10
437.615647
 20
322.510710
 30
0.0
 10
437.581172
 20
322.175792
 30
0.0
 10
437.479096
 20
321.855556
 30
0.0
 10
437.313890
 20
321.563999
 30
0.0
 10
437.092857
 20
321.313708
 30
0.0
 10
436.825681
 20
321.115795
 30
0.0
 10
436.523950
 20
320.978891
 30
0.0
 10
436.200841
 20
320.908824
 30
0.0
  0
LWPOLYLINE
  5
198
100
AcDbEntity
  8
Layer_1
 62
7
100
AcDbPolyline
 90
30
 70
1
 10
450.260799
 20
295.468234
 30
0.0
 10
447.909976
 20
295.977647
 30
0.0
 10
445.714385
 20
296.974256
 30
0.0
 10
443.770041
 20
298.414412
 30
0.0
 10
442.161877
 20
300.235203
 30
0.0
 10
440.960166
 20
302.357088
 30
0.0
 10
440.217534
 20
304.687305
 30
0.0
 10
439.966285
 20
307.124067
 30
0.0
 10
440.217534
 20
309.560821
 30
0.0
 10
440.960166
 20
311.891036
 30
0.0
 10
442.161877
 20
314.012923
 30
0.0
 10
443.770041
 20
315.833724
 30
0.0
 10
445.714385
 20
317.273867
 30
0.0
 10
447.909976
 20
318.270479
 30
0.0
 10
450.260799
 20
318.779891
 30
0.0
 10
452.664169
 20
318.779891
 30
0.0
 10
455.014991
 20
318.270479
 30
0.0
 10
457.210583
 20
317.273867
 30
0.0
 10
459.154900
 20
315.833724
 30
0.0
 10
460.763091
 20
314.012923
 30
0.0
 10
461.964775
 20
311.891036
 30
0.0
 10
462.707408
 20
309.560821
 30
0.0
 10
462.958683
 20
307.124067
 30
0.0
 10
462.707408
 20
304.687305
 30
0.0
 10
461.964775
 20
302.357088
 30
0.0
 10
460.763091
 20
300.235203
 30
0.0
 10
459.154900
 20
298.414412
 30
0.0
 10
457.210583
 20
296.974256
 30
0.0
 10
455.014991
 20
295.977647
 30
0.0
 10
452.664169
 20
295.468234
 30
0.0
  0
LWPOLYLINE
  5
199
100
AcDbEntity
  8
Layer_1
 62
7
100
AcDbPolyline
 90
30
 70
1
 10
466.377311
 20
290.332024
 30
0.0
 10
466.054202
 20
290.402088
 30
0.0
 10
465.752445
 20
290.538991
 30
0.0
 10
465.485268
 20
290.736908
 30
0.0
 10
465.264235
 20
290.987196
 30
0.0
 10
465.099030
 20
291.278766
 30
0.0
 10
464.996980
 20
291.598992
 30
0.0
 10
464.962478
 20
291.933909
 30
0.0
 10
464.996980
 20
292.268819
 30
0.0
 10
465.099030
 20
292.589052
 30
0.0
 10
465.264235
 20
292.880612
 30
0.0
 10
465.485268
 20
293.130911
 30
0.0
 10
465.752445
 20
293.328816
 30
0.0
 10
466.054202
 20
293.465720
 30
0.0
 10
466.377311
 20
293.535787
 30
0.0
 10
466.707511
 20
293.535787
 30
0.0
 10
467.030620
 20
293.465720
 30
0.0
 10
467.332378
 20
293.328816
 30
0.0
 10
467.599554
 20
293.130911
 30
0.0
 10
467.820587
 20
292.880612
 30
0.0
 10
467.985792
 20
292.589052
 30
0.0
 10
468.087842
 20
292.268819
 30
0.0
 10
468.122344
 20
291.933909
 30
0.0
 10
468.087842
 20
291.598992
 30
0.0
 10
467.985792
 20
291.278766
 30
0.0
 10
467.820587
 20
290.987196
 30
0.0
 10
467.599554
 20
290.736908
 30
0.0
 10
467.332378
 20
290.538991
 30
0.0
 10
467.030620
 20
290.402088
 30
0.0
 10
466.707511
 20
290.332024
 30
0.0
  0
LWPOLYLINE
  5
19a
100
AcDbEntity
  8
Layer_1
 62
7
100
AcDbPolyline
 90
10
 70
1
 10
618.660180
 20
281.240112
 30
0.0
 10
618.660180
 20
286.178171
 30
0.0
 10
668.384887
 20
286.178171
 30
0.0
 10
668.384887
 20
281.240112
 30
0.0
 10
680.318812
 20
281.240112
 30
0.0
 10
680.318812
 20
251.611756
 30
0.0
 10
688.274780
 20
251.611756
 30
0.0
 10
688.274780
 20
291.116233
 30
0.0
 10
598.770313
 20
291.116233
 30
0.0
 10
598.770313
 20
281.240112
 30
0.0
  0
LWPOLYLINE
  5
19b
100
AcDbEntity
  8
Layer_1
 62
7
100
AcDbPolyline
 90
30
 70
1
 10
682.912470
 20
261.632363
 30
0.0
 10
682.973112
 20
261.915115
 30
0.0
 10
683.091460
 20
262.179204
 30
0.0
 10
683.262514
 20
262.413071
 30
0.0
 10
683.478334
 20
262.606445
 30
0.0
 10
683.730932
 20
262.751029
 30
0.0
 10
684.007395
 20
262.840310
 30
0.0
 10
684.296796
 20
262.870531
 30
0.0
 10
684.586197
 20
262.840310
 30
0.0
 10
684.862661
 20
262.751029
 30
0.0
 10
685.115258
 20
262.606445
 30
0.0
 10
685.331079
 20
262.413071
 30
0.0
 10
685.502132
 20
262.179204
 30
0.0
 10
685.620480
 20
261.915115
 30
0.0
 10
685.681123
 20
261.632363
 30
0.0
 10
685.681123
 20
261.343387
 30
0.0
 10
685.620480
 20
261.060635
 30
0.0
 10
685.502132
 20
260.796547
 30
0.0
 10
685.331079
 20
260.562679
 30
0.0
 10
685.115258
 20
260.369305
 30
0.0
 10
684.862661
 20
260.224721
 30
0.0
 10
684.586197
 20
260.135440
 30
0.0
 10
684.296796
 20
260.105219
 30
0.0
 10
684.007395
 20
260.135440
 30
0.0
 10
683.730932
 20
260.224721
 30
0.0
 10
683.478334
 20
260.369305
 30
0.0
 10
683.262514
 20
260.562679
 30
0.0
 10
683.091460
 20
260.796547
 30
0.0
 10
682.973112
 20
261.060635
 30
0.0
 10
682.912470
 20
261.343387
 30
0.0
  0
LWPOLYLINE
  5
19c
100
AcDbEntity
  8
Layer_1
 62
7
100
AcDbPolyline
 90
30
 70
1
 10
676.945507
 20
286.322660
 30
0.0
 10
677.006176
 20
286.605412
 30
0.0
 10
677.124498
 20
286.869501
 30
0.0
 10
677.295551
 20
287.103366
 30
0.0
 10
677.511371
 20
287.296742
 30
0.0
 10
677.763969
 20
287.441329
 30
0.0
 10
678.040432
 20
287.530607
 30
0.0
 10
678.329834
 20
287.560831
 30
0.0
 10
678.619235
 20
287.530607
 30
0.0
 10
678.895698
 20
287.441329
 30
0.0
 10
679.148296
 20
287.296742
 30
0.0
 10
679.364116
 20
287.103366
 30
0.0
 10
679.535169
 20
286.869501
 30
0.0
 10
679.653491
 20
286.605412
 30
0.0
 10
679.714160
 20
286.322660
 30
0.0
 10
679.714160
 20
286.033685
 30
0.0
 10
679.653491
 20
285.750933
 30
0.0
 10
679.535169
 20
285.486844
 30
0.0
 10
679.364116
 20
285.252979
 30
0.0
 10
679.148296
 20
285.059603
 30
0.0
 10
678.895698
 20
284.915019
 30
0.0
 10
678.619235
 20
284.825735
 30
0.0
 10
678.329834
 20
284.795517
 30
0.0
 10
678.040432
 20
284.825735
 30
0.0
 10
677.763969
 20
284.915019
 30
0.0
 10
677.511371
 20
285.059603
 30
0.0
 10
677.295551
 20
285.252979
 30
0.0
 10
677.124498
 20
285.486844
 30
0.0
 10
677.006176
 20
285.750933
 30
0.0
 10
676.945507
 20
286.033685
 30
0.0
  0
LWPOLYLINE
  5
19d
100
AcDbEntity
  8
Layer_1
 62
7
100
AcDbPolyline
 90
30
 70
1
 10
607.330616
 20
286.322660
 30
0.0
 10
607.391100
 20
286.605412
 30
0.0
 10
607.509527
 20
286.869501
 30
0.0
 10
607.680580
 20
287.103366
 30
0.0
 10
607.896877
 20
287.296742
 30
0.0
 10
608.148999
 20
287.441329
 30
0.0
 10
608.425753
 20
287.530607
 30
0.0
 10
608.715260
 20
287.560831
 30
0.0
 10
609.004767
 20
287.530607
 30
0.0
 10
609.281521
 20
287.441329
 30
0.0
 10
609.533616
 20
287.296742
 30
0.0
 10
609.749939
 20
287.103366
 30
0.0
 10
609.920992
 20
286.869501
 30
0.0
 10
610.039420
 20
286.605412
 30
0.0
 10
610.099877
 20
286.322660
 30
0.0
 10
610.099877
 20
286.033685
 30
0.0
 10
610.039420
 20
285.750933
 30
0.0
 10
609.920992
 20
285.486844
 30
0.0
 10
609.749939
 20
285.252979
 30
0.0
 10
609.533616
 20
285.059603
 30
0.0
 10
609.281521
 20
284.915019
 30
0.0
 10
609.004767
 20
284.825735
 30
0.0
 10
608.715260
 20
284.795517
 30
0.0
 10
608.425753
 20
284.825735
 30
0.0
 10
608.148999
 20
284.915019
 30
0.0
 10
607.896877
 20
285.059603
 30
0.0
 10
607.680580
 20
285.252979
 30
0.0
 10
607.509527
 20
285.486844
 30
0.0
 10
607.391100
 20
285.750933
 30
0.0
 10
607.330616
 20
286.033685
 30
0.0
  0
LWPOLYLINE
  5
19e
100
AcDbEntity
  8
Layer_1
 62
7
100
AcDbPolyline
 90
10
 70
1
 10
579.349896
 20
307.348005
 30
0.0
 10
579.349896
 20
302.409927
 30
0.0
 10
529.625190
 20
302.409927
 30
0.0
 10
529.625190
 20
307.348005
 30
0.0
 10
517.691264
 20
307.348005
 30
0.0
 10
517.691264
 20
336.976364
 30
0.0
 10
509.735296
 20
336.976364
 30
0.0
 10
509.735296
 20
297.471876
 30
0.0
 10
599.239790
 20
297.471876
 30
0.0
 10
599.239790
 20
307.348005
 30
0.0
  0
LWPOLYLINE
  5
19f
100
AcDbEntity
  8
Layer_1
 62
7
100
AcDbPolyline
 90
30
 70
1
 10
515.097607
 20
326.955747
 30
0.0
 10
515.036964
 20
326.672986
 30
0.0
 10
514.918616
 20
326.408906
 30
0.0
 10
514.747563
 20
326.175041
 30
0.0
 10
514.531742
 20
325.981657
 30
0.0
 10
514.279145
 20
325.837088
 30
0.0
 10
514.002681
 20
325.747791
 30
0.0
 10
513.713280
 20
325.717576
 30
0.0
 10
513.423879
 20
325.747791
 30
0.0
 10
513.147416
 20
325.837088
 30
0.0
 10
512.894818
 20
325.981657
 30
0.0
 10
512.679024
 20
326.175041
 30
0.0
 10
512.507944
 20
326.408906
 30
0.0
 10
512.389623
 20
326.672986
 30
0.0
 10
512.328954
 20
326.955747
 30
0.0
 10
512.328954
 20
327.244725
 30
0.0
 10
512.389623
 20
327.527485
 30
0.0
 10
512.507944
 20
327.791565
 30
0.0
 10
512.679024
 20
328.025431
 30
0.0
 10
512.894818
 20
328.218815
 30
0.0
 10
513.147416
 20
328.363383
 30
0.0
 10
513.423879
 20
328.452680
 30
0.0
 10
513.713280
 20
328.482895
 30
0.0
 10
514.002681
 20
328.452680
 30
0.0
 10
514.279145
 20
328.363383
 30
0.0
 10
514.531742
 20
328.218815
 30
0.0
 10
514.747563
 20
328.025431
 30
0.0
 10
514.918616
 20
327.791565
 30
0.0
 10
515.036964
 20
327.527485
 30
0.0
 10
515.097607
 20
327.244725
 30
0.0
  0
LWPOLYLINE
  5
1a0
100
AcDbEntity
  8
Layer_1
 62
7
100
AcDbPolyline
 90
30
 70
1
 10
521.064569
 20
302.265439
 30
0.0
 10
521.003927
 20
301.982705
 30
0.0
 10
520.885579
 20
301.718598
 30
0.0
 10
520.714526
 20
301.484732
 30
0.0
 10
520.498731
 20
301.291375
 30
0.0
 10
520.246107
 20
301.146780
 30
0.0
 10
519.969644
 20
301.057510
 30
0.0
 10
519.680243
 20
301.027268
 30
0.0
 10
519.390842
 20
301.057510
 30
0.0
 10
519.114379
 20
301.146780
 30
0.0
 10
518.861781
 20
301.291375
 30
0.0
 10
518.645987
 20
301.484732
 30
0.0
 10
518.474934
 20
301.718598
 30
0.0
 10
518.356585
 20
301.982705
 30
0.0
 10
518.295916
 20
302.265439
 30
0.0
 10
518.295916
 20
302.554416
 30
0.0
 10
518.356585
 20
302.837177
 30
0.0
 10
518.474934
 20
303.101257
 30
0.0
 10
518.645987
 20
303.335122
 30
0.0
 10
518.861781
 20
303.528506
 30
0.0
 10
519.114379
 20
303.673101
 30
0.0
 10
519.390842
 20
303.762372
 30
0.0
 10
519.680243
 20
303.792587
 30
0.0
 10
519.969644
 20
303.762372
 30
0.0
 10
520.246107
 20
303.673101
 30
0.0
 10
520.498731
 20
303.528506
 30
0.0
 10
520.714526
 20
303.335122
 30
0.0
 10
520.885579
 20
303.101257
 30
0.0
 10
521.003927
 20
302.837177
 30
0.0
 10
521.064569
 20
302.554416
 30
0.0
  0
LWPOLYLINE
  5
1a1
100
AcDbEntity
  8
Layer_1
 62
7
100
AcDbPolyline
 90
30
 70
1
 10
590.679487
 20
302.265439
 30
0.0
 10
590.619003
 20
301.982705
 30
0.0
 10
590.500549
 20
301.718598
 30
0.0
 10
590.329496
 20
301.484732
 30
0.0
 10
590.113199
 20
301.291375
 30
0.0
 10
589.861078
 20
301.146780
 30
0.0
 10
589.584324
 20
301.057510
 30
0.0
 10
589.294817
 20
301.027268
 30
0.0
 10
589.005336
 20
301.057510
 30
0.0
 10
588.728555
 20
301.146780
 30
0.0
 10
588.476460
 20
301.291375
 30
0.0
 10
588.260164
 20
301.484732
 30
0.0
 10
588.089110
 20
301.718598
 30
0.0
 10
587.970656
 20
301.982705
 30
0.0
 10
587.910199
 20
302.265439
 30
0.0
 10
587.910199
 20
302.554416
 30
0.0
 10
587.970656
 20
302.837177
 30
0.0
 10
588.089110
 20
303.101257
 30
0.0
 10
588.260164
 20
303.335122
 30
0.0
 10
588.476460
 20
303.528506
 30
0.0
 10
588.728555
 20
303.673101
 30
0.0
 10
589.005336
 20
303.762372
 30
0.0
 10
589.294817
 20
303.792587
 30
0.0
 10
589.584324
 20
303.762372
 30
0.0
 10
589.861078
 20
303.673101
 30
0.0
 10
590.113199
 20
303.528506
 30
0.0
 10
590.329496
 20
303.335122
 30
0.0
 10
590.500549
 20
303.101257
 30
0.0
 10
590.619003
 20
302.837177
 30
0.0
 10
590.679487
 20
302.554416
 30
0.0
  0
LWPOLYLINE
  5
1a2
100
AcDbEntity
  8
Layer_1
 62
7
100
AcDbPolyline
 90
10
 70
1
 10
637.280179
 20
311.304208
 30
0.0
 10
637.280179
 20
316.242286
 30
0.0
 10
687.004886
 20
316.242286
 30
0.0
 10
687.004886
 20
311.304208
 30
0.0
 10
698.938811
 20
311.304208
 30
0.0
 10
698.938811
 20
281.675849
 30
0.0
 10
706.894779
 20
281.675849
 30
0.0
 10
706.894779
 20
321.180337
 30
0.0
 10
617.390286
 20
321.180337
 30
0.0
 10
617.390286
 20
311.304208
 30
0.0
  0
LWPOLYLINE
  5
1a3
100
AcDbEntity
  8
Layer_1
 62
7
100
AcDbPolyline
 90
30
 70
1
 10
701.532469
 20
291.696467
 30
0.0
 10
701.593111
 20
291.979227
 30
0.0
 10
701.711460
 20
292.243308
 30
0.0
 10
701.882513
 20
292.477173
 30
0.0
 10
702.098307
 20
292.670557
 30
0.0
 10
702.350931
 20
292.815125
 30
0.0
 10
702.627394
 20
292.904422
 30
0.0
 10
702.916795
 20
292.934637
 30
0.0
 10
703.206197
 20
292.904422
 30
0.0
 10
703.482660
 20
292.815125
 30
0.0
 10
703.735257
 20
292.670557
 30
0.0
 10
703.951052
 20
292.477173
 30
0.0
 10
704.122131
 20
292.243308
 30
0.0
 10
704.240453
 20
291.979227
 30
0.0
 10
704.301122
 20
291.696467
 30
0.0
 10
704.301122
 20
291.407489
 30
0.0
 10
704.240453
 20
291.124729
 30
0.0
 10
704.122131
 20
290.860648
 30
0.0
 10
703.951052
 20
290.626783
 30
0.0
 10
703.735257
 20
290.433399
 30
0.0
 10
703.482660
 20
290.288831
 30
0.0
 10
703.206197
 20
290.199534
 30
0.0
 10
702.916795
 20
290.169318
 30
0.0
 10
702.627394
 20
290.199534
 30
0.0
 10
702.350931
 20
290.288831
 30
0.0
 10
702.098307
 20
290.433399
 30
0.0
 10
701.882513
 20
290.626783
 30
0.0
 10
701.711460
 20
290.860648
 30
0.0
 10
701.593111
 20
291.124729
 30
0.0
 10
701.532469
 20
291.407489
 30
0.0
  0
LWPOLYLINE
  5
1a4
100
AcDbEntity
  8
Layer_1
 62
7
100
AcDbPolyline
 90
30
 70
1
 10
695.565480
 20
316.386775
 30
0.0
 10
695.626149
 20
316.669509
 30
0.0
 10
695.744497
 20
316.933616
 30
0.0
 10
695.915550
 20
317.167481
 30
0.0
 10
696.131344
 20
317.360838
 30
0.0
 10
696.383968
 20
317.505433
 30
0.0
 10
696.660431
 20
317.594704
 30
0.0
 10
696.949833
 20
317.624946
 30
0.0
 10
697.239234
 20
317.594704
 30
0.0
 10
697.515697
 20
317.505433
 30
0.0
 10
697.768295
 20
317.360838
 30
0.0
 10
697.984089
 20
317.167481
 30
0.0
 10
698.155142
 20
316.933616
 30
0.0
 10
698.273490
 20
316.669509
 30
0.0
 10
698.334159
 20
316.386775
 30
0.0
 10
698.334159
 20
316.097797
 30
0.0
 10
698.273490
 20
315.815037
 30
0.0
 10
698.155142
 20
315.550956
 30
0.0
 10
697.984089
 20
315.317091
 30
0.0
 10
697.768295
 20
315.123707
 30
0.0
 10
697.515697
 20
314.979112
 30
0.0
 10
697.239234
 20
314.889842
 30
0.0
 10
696.949833
 20
314.859626
 30
0.0
 10
696.660431
 20
314.889842
 30
0.0
 10
696.383968
 20
314.979112
 30
0.0
 10
696.131344
 20
315.123707
 30
0.0
 10
695.915550
 20
315.317091
 30
0.0
 10
695.744497
 20
315.550956
 30
0.0
 10
695.626149
 20
315.815037
 30
0.0
 10
695.565480
 20
316.097797
 30
0.0
  0
LWPOLYLINE
  5
1a5
100
AcDbEntity
  8
Layer_1
 62
7
100
AcDbPolyline
 90
30
 70
1
 10
625.950589
 20
316.386775
 30
0.0
 10
626.011072
 20
316.669509
 30
0.0
 10
626.129526
 20
316.933616
 30
0.0
 10
626.300579
 20
317.167481
 30
0.0
 10
626.516876
 20
317.360838
 30
0.0
 10
626.768971
 20
317.505433
 30
0.0
 10
627.045752
 20
317.594704
 30
0.0
 10
627.335259
 20
317.624946
 30
0.0
 10
627.624740
 20
317.594704
 30
0.0
 10
627.901520
 20
317.505433
 30
0.0
 10
628.153615
 20
317.360838
 30
0.0
 10
628.369912
 20
317.167481
 30
0.0
 10
628.540965
 20
316.933616
 30
0.0
 10
628.659419
 20
316.669509
 30
0.0
 10
628.719876
 20
316.386775
 30
0.0
 10
628.719876
 20
316.097797
 30
0.0
 10
628.659419
 20
315.815037
 30
0.0
 10
628.540965
 20
315.550956
 30
0.0
 10
628.369912
 20
315.317091
 30
0.0
 10
628.153615
 20
315.123707
 30
0.0
 10
627.901520
 20
314.979112
 30
0.0
 10
627.624740
 20
314.889842
 30
0.0
 10
627.335259
 20
314.859626
 30
0.0
 10
627.045752
 20
314.889842
 30
0.0
 10
626.768971
 20
314.979112
 30
0.0
 10
626.516876
 20
315.123707
 30
0.0
 10
626.300579
 20
315.317091
 30
0.0
 10
626.129526
 20
315.550956
 30
0.0
 10
626.011072
 20
315.815037
 30
0.0
 10
625.950589
 20
316.097797
 30
0.0
  0
LWPOLYLINE
  5
1a6
100
AcDbEntity
  8
Layer_1
 62
7
100
AcDbPolyline
 90
10
 70
1
 10
563.685240
 20
289.964478
 30
0.0
 10
563.685240
 20
285.026400
 30
0.0
 10
513.960533
 20
285.026400
 30
0.0
 10
513.960533
 20
289.964478
 30
0.0
 10
502.026608
 20
289.964478
 30
0.0
 10
502.026608
 20
319.592837
 30
0.0
 10
494.070640
 20
319.592837
 30
0.0
 10
494.070640
 20
280.088349
 30
0.0
 10
583.575134
 20
280.088349
 30
0.0
 10
583.575134
 20
289.964478
 30
0.0
  0
LWPOLYLINE
  5
1a7
100
AcDbEntity
  8
Layer_1
 62
7
100
AcDbPolyline
 90
30
 70
1
 10
499.432950
 20
309.572219
 30
0.0
 10
499.372308
 20
309.289459
 30
0.0
 10
499.253960
 20
309.025379
 30
0.0
 10
499.082907
 20
308.791513
 30
0.0
 10
498.867086
 20
308.598129
 30
0.0
 10
498.614488
 20
308.453561
 30
0.0
 10
498.338025
 20
308.364264
 30
0.0
 10
498.048624
 20
308.334049
 30
0.0
 10
497.759223
 20
308.364264
 30
0.0
 10
497.482760
 20
308.453561
 30
0.0
 10
497.230162
 20
308.598129
 30
0.0
 10
497.014368
 20
308.791513
 30
0.0
 10
496.843288
 20
309.025379
 30
0.0
 10
496.724966
 20
309.289459
 30
0.0
 10
496.664297
 20
309.572219
 30
0.0
 10
496.664297
 20
309.861197
 30
0.0
 10
496.724966
 20
310.143958
 30
0.0
 10
496.843288
 20
310.408038
 30
0.0
 10
497.014368
 20
310.641903
 30
0.0
 10
497.230162
 20
310.835287
 30
0.0
 10
497.482760
 20
310.979856
 30
0.0
 10
497.759223
 20
311.069153
 30
0.0
 10
498.048624
 20
311.099368
 30
0.0
 10
498.338025
 20
311.069153
 30
0.0
 10
498.614488
 20
310.979856
 30
0.0
 10
498.867086
 20
310.835287
 30
0.0
 10
499.082907
 20
310.641903
 30
0.0
 10
499.253960
 20
310.408038
 30
0.0
 10
499.372308
 20
310.143958
 30
0.0
 10
499.432950
 20
309.861197
 30
0.0
  0
LWPOLYLINE
  5
1a8
100
AcDbEntity
  8
Layer_1
 62
7
100
AcDbPolyline
 90
30
 70
1
 10
505.399940
 20
284.881911
 30
0.0
 10
505.339271
 20
284.599178
 30
0.0
 10
505.220923
 20
284.335071
 30
0.0
 10
505.049869
 20
284.101205
 30
0.0
 10
504.834075
 20
283.907848
 30
0.0
 10
504.581451
 20
283.763253
 30
0.0
 10
504.304988
 20
283.673983
 30
0.0
 10
504.015587
 20
283.643741
 30
0.0
 10
503.726185
 20
283.673983
 30
0.0
 10
503.449722
 20
283.763253
 30
0.0
 10
503.197125
 20
283.907848
 30
0.0
 10
502.981330
 20
284.101205
 30
0.0
 10
502.810277
 20
284.335071
 30
0.0
 10
502.691929
 20
284.599178
 30
0.0
 10
502.631260
 20
284.881911
 30
0.0
 10
502.631260
 20
285.170889
 30
0.0
 10
502.691929
 20
285.453649
 30
0.0
 10
502.810277
 20
285.717730
 30
0.0
 10
502.981330
 20
285.951595
 30
0.0
 10
503.197125
 20
286.144979
 30
0.0
 10
503.449722
 20
286.289574
 30
0.0
 10
503.726185
 20
286.378844
 30
0.0
 10
504.015587
 20
286.409060
 30
0.0
 10
504.304988
 20
286.378844
 30
0.0
 10
504.581451
 20
286.289574
 30
0.0
 10
504.834075
 20
286.144979
 30
0.0
 10
505.049869
 20
285.951595
 30
0.0
 10
505.220923
 20
285.717730
 30
0.0
 10
505.339271
 20
285.453649
 30
0.0
 10
505.399940
 20
285.170889
 30
0.0
  0
LWPOLYLINE
  5
1a9
100
AcDbEntity
  8
Layer_1
 62
7
100
AcDbPolyline
 90
30
 70
1
 10
575.014831
 20
284.881911
 30
0.0
 10
574.954347
 20
284.599178
 30
0.0
 10
574.835893
 20
284.335071
 30
0.0
 10
574.664840
 20
284.101205
 30
0.0
 10
574.448543
 20
283.907848
 30
0.0
 10
574.196422
 20
283.763253
 30
0.0
 10
573.919668
 20
283.673983
 30
0.0
 10
573.630160
 20
283.643741
 30
0.0
 10
573.340680
 20
283.673983
 30
0.0
 10
573.063899
 20
283.763253
 30
0.0
 10
572.811804
 20
283.907848
 30
0.0
 10
572.595507
 20
284.101205
 30
0.0
 10
572.424454
 20
284.335071
 30
0.0
 10
572.306000
 20
284.599178
 30
0.0
 10
572.245543
 20
284.881911
 30
0.0
 10
572.245543
 20
285.170889
 30
0.0
 10
572.306000
 20
285.453649
 30
0.0
 10
572.424454
 20
285.717730
 30
0.0
 10
572.595507
 20
285.951595
 30
0.0
 10
572.811804
 20
286.144979
 30
0.0
 10
573.063899
 20
286.289574
 30
0.0
 10
573.340680
 20
286.378844
 30
0.0
 10
573.630160
 20
286.409060
 30
0.0
 10
573.919668
 20
286.378844
 30
0.0
 10
574.196422
 20
286.289574
 30
0.0
 10
574.448543
 20
286.144979
 30
0.0
 10
574.664840
 20
285.951595
 30
0.0
 10
574.835893
 20
285.717730
 30
0.0
 10
574.954347
 20
285.453649
 30
0.0
 10
575.014831
 20
285.170889
 30
0.0
  0
ENDSEC
  0
SECTION
  2
OBJECTS
  0
DICTIONARY
  5
C
330
0
100
AcDbDictionary
  3
ACAD_GROUP
350
D
  3
ACAD_MLINESTYLE
350
17
  0
DICTIONARY
  5
D
330
C
100
AcDbDictionary
  0
DICTIONARY
  5
1A
330
C
100
AcDbDictionary
  0
DICTIONARY
  5
17
330
C
100
AcDbDictionary
  3
STANDARD
350
18
  0
DICTIONARY
  5
19
330
C
100
AcDbDictionary
  0
ENDSEC
  0
EOF
