<?xml version="1.0" encoding="UTF-8" standalone="no"?>
<svg
   xmlns:dc="http://purl.org/dc/elements/1.1/"
   xmlns:cc="http://creativecommons.org/ns#"
   xmlns:rdf="http://www.w3.org/1999/02/22-rdf-syntax-ns#"
   xmlns:svg="http://www.w3.org/2000/svg"
   xmlns="http://www.w3.org/2000/svg"
   xmlns:sodipodi="http://sodipodi.sourceforge.net/DTD/sodipodi-0.dtd"
   xmlns:inkscape="http://www.inkscape.org/namespaces/inkscape"
   width="294"
   height="260"
   viewBox="31 -570 294 260"
   version="1.1"
   id="svg26"
   sodipodi:docname="conveyor_slidedeck_293_260_ponoko.svg"
   inkscape:version="0.92.2 (5c3e80d, 2017-08-06)">
  <metadata
     id="metadata32">
    <rdf:RDF>
      <cc:Work
         rdf:about="">
        <dc:format>image/svg+xml</dc:format>
        <dc:type
           rdf:resource="http://purl.org/dc/dcmitype/StillImage" />
        <dc:title>OpenSCAD Model</dc:title>
      </cc:Work>
    </rdf:RDF>
  </metadata>
  <defs
     id="defs30" />
  <sodipodi:namedview
     pagecolor="#ffffff"
     bordercolor="#666666"
     borderopacity="1"
     objecttolerance="10"
     gridtolerance="10"
     guidetolerance="10"
     inkscape:pageopacity="0"
     inkscape:pageshadow="2"
     inkscape:window-width="1920"
     inkscape:window-height="986"
     id="namedview28"
     showgrid="false"
     inkscape:zoom="0.51877161"
     inkscape:cx="147"
     inkscape:cy="351.12817"
     inkscape:window-x="-11"
     inkscape:window-y="-11"
     inkscape:window-maximized="1"
     inkscape:current-layer="svg26" />
  <title
     id="title22">OpenSCAD Model</title>
  <path
     d="m 854.72669,-423.48413 h 49.05017 v 112.79096 H 1137.7084 V -1216.0385 H 900.00376 v -75.4455 h -37.73089 v 75.4455 H 32.19317 v 905.34533 h 822.53352 z m 25.30611,-838.42527 -1.43,-0.3057 -1.3319,-0.5922 -1.18097,-0.8563 -0.97723,-1.0864 -0.72821,-1.2637 -0.45278,-1.3845 -0.15092,-1.4523 0.15092,-1.4523 0.45278,-1.3845 0.72821,-1.2637 0.97723,-1.0864 1.18097,-0.8563 1.3319,-0.5922 1.43,-0.3058 h 1.45641 l 1.43,0.3058 1.33191,0.5922 1.18097,0.8563 0.97723,1.0864 0.72821,1.2637 0.45277,1.3845 0.15093,1.4523 -0.15093,1.4523 -0.45277,1.3845 -0.72821,1.2637 -0.97723,1.0864 -1.18097,0.8563 -1.33191,0.5922 -1.43,0.3057 z m 0,37.7227 -1.43,-0.3053 -1.3319,-0.5923 -1.18097,-0.8563 -0.97723,-1.0864 -0.72821,-1.2637 -0.45278,-1.3844 -0.15092,-1.4524 0.15092,-1.4523 0.45278,-1.3844 0.72821,-1.2637 0.97723,-1.0864 1.18097,-0.8563 1.3319,-0.5923 1.43,-0.3057 h 1.45641 l 1.43,0.3057 1.33191,0.5923 1.18097,0.8563 0.97723,1.0864 0.72821,1.2637 0.45277,1.3844 0.15093,1.4523 -0.15093,1.4524 -0.45277,1.3844 -0.72821,1.2637 -0.97723,1.0864 -1.18097,0.8563 -1.33191,0.5923 -1.43,0.3053 z m -831.41273,32.2605 -1.080235,-0.2301 -1.008924,-0.4489 -0.893469,-0.6488 -0.73877,-0.8186 -0.55238,-0.9582 -0.341088,-1.0487 -0.115456,-1.0977 0.115456,-1.0977 0.341088,-1.0487 0.55238,-0.9582 0.73877,-0.8186 0.893469,-0.6488 1.008924,-0.4489 1.080235,-0.2301 h 1.104006 l 1.080235,0.2301 1.008925,0.4489 0.893468,0.6488 0.738771,0.8186 0.552379,0.9582 0.341088,1.0487 0.115456,1.0977 -0.115456,1.0977 -0.341088,1.0487 -0.552379,0.9582 -0.738771,0.8186 -0.893468,0.6488 -1.008925,0.4489 -1.080235,0.2301 z m 788.57685,0 -1.08289,-0.2301 -1.00741,-0.4489 -0.89422,-0.6488 -0.73953,-0.8186 -0.55086,-0.9582 -0.33958,-1.0487 -0.11697,-1.0977 0.11697,-1.0977 0.33958,-1.0487 0.55086,-0.9582 0.73953,-0.8186 0.89422,-0.6488 1.00741,-0.4489 1.08289,-0.2301 h 1.10174 l 1.08288,0.2301 1.0074,0.4489 0.89423,0.6488 0.73953,0.8186 0.55086,0.9582 0.33958,1.0487 0.11698,1.0977 -0.11698,1.0977 -0.33958,1.0487 -0.55086,0.9582 -0.73953,0.8186 -0.89423,0.6488 -1.0074,0.4489 -1.08288,0.2301 z m -154.69667,11.3169 -1.08288,-0.2302 -1.00742,-0.4489 -0.89422,-0.6488 -0.73953,-0.8186 -0.55087,-0.9582 -0.33957,-1.0487 -0.11697,-1.0977 0.11697,-1.0977 0.33957,-1.0487 0.55087,-0.9582 0.73953,-0.8186 0.89422,-0.6488 1.00742,-0.4489 1.08288,-0.2301 h 1.10174 l 1.08287,0.2301 1.00742,0.4489 0.89422,0.6488 0.73952,0.8186 0.55088,0.9582 0.33957,1.0487 0.11697,1.0977 -0.11697,1.0977 -0.33957,1.0487 -0.55088,0.9582 -0.73952,0.8186 -0.89422,0.6488 -1.00742,0.4489 -1.08287,0.2302 z m -498.04895,60.3563 -1.08024,-0.2301 -1.00892,-0.449 -0.89347,-0.6488 -0.73877,-0.8186 -0.55238,-0.9581 -0.34109,-1.0487 -0.11546,-1.0977 0.11546,-1.0978 0.34109,-1.0487 0.55238,-0.9581 0.73877,-0.8186 0.89347,-0.6488 1.00892,-0.4489 1.08024,-0.2302 h 1.104 l 1.08024,0.2302 1.00892,0.4489 0.89346,0.6488 0.73878,0.8186 0.55238,0.9581 0.34108,1.0487 0.11546,1.0978 -0.11546,1.0977 -0.34108,1.0487 -0.55238,0.9581 -0.73878,0.8186 -0.89346,0.6488 -1.00892,0.449 -1.08024,0.2301 z m 754.61904,0 -1.08289,-0.2301 -1.00741,-0.449 -0.89422,-0.6488 -0.73953,-0.8186 -0.55086,-0.9581 -0.33958,-1.0487 -0.11698,-1.0977 0.11698,-1.0978 0.33958,-1.0487 0.55086,-0.9581 0.73953,-0.8186 0.89422,-0.6488 1.00741,-0.4489 1.08289,-0.2302 h 1.10173 l 1.08289,0.2302 1.0074,0.4489 0.89423,0.6488 0.73953,0.8186 0.55086,0.9581 0.33958,1.0487 0.11696,1.0978 -0.11696,1.0977 -0.33958,1.0487 -0.55086,0.9581 -0.73953,0.8186 -0.89423,0.6488 -1.0074,0.449 -1.08289,0.2301 z m -565.96344,0 -1.08287,-0.2301 -1.00742,-0.449 -0.89422,-0.6488 -0.73952,-0.8186 -0.55088,-0.9581 -0.33958,-1.0487 -0.11696,-1.0977 0.11696,-1.0978 0.33958,-1.0487 0.55088,-0.9581 0.73952,-0.8186 0.89422,-0.6488 1.00742,-0.4489 1.08287,-0.2302 h 1.10175 l 1.08287,0.2302 1.00742,0.4489 0.89422,0.6488 0.73952,0.8186 0.55088,0.9581 0.33958,1.0487 0.11696,1.0978 -0.11696,1.0977 -0.33958,1.0487 -0.55088,0.9581 -0.73952,0.8186 -0.89422,0.6488 -1.00742,0.449 -1.08287,0.2301 z m 377.30896,0 -1.08288,-0.2301 -1.00742,-0.449 -0.89422,-0.6488 -0.73953,-0.8186 -0.55087,-0.9581 -0.33957,-1.0487 -0.11697,-1.0977 0.11697,-1.0978 0.33957,-1.0487 0.55087,-0.9581 0.73953,-0.8186 0.89422,-0.6488 1.00742,-0.4489 1.08288,-0.2302 h 1.10174 l 1.08287,0.2302 1.00742,0.4489 0.89423,0.6488 0.73951,0.8186 0.55088,0.9581 0.33958,1.0487 0.11696,1.0978 -0.11696,1.0977 -0.33958,1.0487 -0.55088,0.9581 -0.73951,0.8186 -0.89423,0.6488 -1.00742,0.449 -1.08287,0.2301 z m -188.65448,0 -1.08288,-0.2301 -1.00741,-0.449 -0.89422,-0.6488 -0.73953,-0.8186 -0.55087,-0.9581 -0.33958,-1.0487 -0.11697,-1.0977 0.11697,-1.0978 0.33958,-1.0487 0.55087,-0.9581 0.73953,-0.8186 0.89422,-0.6488 1.00741,-0.4489 1.08288,-0.2302 h 1.10174 l 1.08288,0.2302 1.00741,0.4489 0.89422,0.6488 0.73953,0.8186 0.55087,0.9581 0.33958,1.0487 0.11696,1.0978 -0.11696,1.0977 -0.33958,1.0487 -0.55087,0.9581 -0.73953,0.8186 -0.89422,0.6488 -1.00741,0.449 -1.08288,0.2301 z m 120.73887,22.6336 -1.08288,-0.2301 -1.00742,-0.4489 -0.89422,-0.6488 -0.73953,-0.8186 -0.55087,-0.9582 -0.33957,-1.0487 -0.11697,-1.0977 0.11697,-1.0977 0.33957,-1.0487 0.55087,-0.9582 0.73953,-0.8186 0.89422,-0.6488 1.00742,-0.4489 1.08288,-0.2302 h 1.10174 l 1.08287,0.2302 1.00742,0.4489 0.89422,0.6488 0.73952,0.8186 0.55088,0.9582 0.33957,1.0487 0.11697,1.0977 -0.11697,1.0977 -0.33957,1.0487 -0.55088,0.9582 -0.73952,0.8186 -0.89422,0.6488 -1.00742,0.4489 -1.08287,0.2301 z m -637.65327,15.0891 -1.080235,-0.2301 -1.008924,-0.4489 -0.893468,-0.6488 -0.738771,-0.8186 -0.55238,-0.9582 -0.341087,-1.0487 -0.115457,-1.0977 0.115457,-1.0977 0.341087,-1.0487 0.55238,-0.9582 0.738771,-0.8186 0.893468,-0.6488 1.008924,-0.4489 1.080235,-0.2302 h 1.104007 l 1.080235,0.2302 1.008925,0.4489 0.893467,0.6488 0.738771,0.8186 0.55238,0.9582 0.341088,1.0487 0.115456,1.0977 -0.115456,1.0977 -0.341088,1.0487 -0.55238,0.9582 -0.738771,0.8186 -0.893467,0.6488 -1.008925,0.4489 -1.080235,0.2301 z m 1082.87782,0 -1.0828,-0.2301 -1.0075,-0.4489 -0.8942,-0.6488 -0.7395,-0.8186 -0.5509,-0.9582 -0.3396,-1.0487 -0.1169,-1.0977 0.1169,-1.0977 0.3396,-1.0487 0.5509,-0.9582 0.7395,-0.8186 0.8942,-0.6488 1.0075,-0.4489 1.0828,-0.2302 h 1.1018 l 1.0829,0.2302 1.0073,0.4489 0.8943,0.6488 0.7395,0.8186 0.5508,0.9582 0.3396,1.0487 0.117,1.0977 -0.117,1.0977 -0.3396,1.0487 -0.5508,0.9582 -0.7395,0.8186 -0.8943,0.6488 -1.0073,0.4489 -1.0829,0.2301 z m -1082.87782,188.61363 -1.080235,-0.23015 -1.008924,-0.44889 -0.893468,-0.64883 -0.738771,-0.8186 -0.55238,-0.95815 -0.341087,-1.04867 -0.115457,-1.09776 0.115457,-1.09772 0.341087,-1.0487 0.55238,-0.95816 0.738771,-0.81855 0.893468,-0.64884 1.008924,-0.44892 1.080235,-0.23015 h 1.104007 l 1.080235,0.23015 1.008925,0.44892 0.893467,0.64884 0.738771,0.81855 0.55238,0.95816 0.341088,1.0487 0.115456,1.09772 -0.115456,1.09776 -0.341088,1.04867 -0.55238,0.95815 -0.738771,0.8186 -0.893467,0.64883 -1.008925,0.44889 -1.080235,0.23015 z m 1082.87782,0 -1.0828,-0.23015 -1.0075,-0.44889 -0.8942,-0.64883 -0.7395,-0.8186 -0.5509,-0.95815 -0.3396,-1.04867 -0.1169,-1.09776 0.1169,-1.09772 0.3396,-1.0487 0.5509,-0.95816 0.7395,-0.81855 0.8942,-0.64884 1.0075,-0.44892 1.0828,-0.23015 h 1.1018 l 1.0829,0.23015 1.0073,0.44892 0.8943,0.64884 0.7395,0.81855 0.5508,0.95816 0.3396,1.0487 0.117,1.09772 -0.117,1.09776 -0.3396,1.04867 -0.5508,0.95815 -0.7395,0.8186 -0.8943,0.64883 -1.0073,0.44889 -1.0829,0.23015 z m -598.7063,100.68574 -2.39214,-0.50928 -2.23366,-0.99209 -1.9771,-1.43723 -1.63752,-1.81825 -1.22248,-2.11623 -0.75461,-2.32374 -0.25658,-2.4331 0.25658,-2.43311 0.75461,-2.32374 1.22248,-2.11623 1.63752,-1.81825 1.9771,-1.43723 2.23366,-0.99209 2.39214,-0.50928 h 2.44497 l 2.39214,0.50928 2.23367,0.99209 1.9771,1.43723 1.63751,1.81825 1.22249,2.11623 0.75462,2.32374 0.25656,2.43311 -0.25656,2.4331 -0.75462,2.32374 -1.22249,2.11623 -1.63751,1.81825 -1.9771,1.43723 -2.23367,0.99209 -2.39214,0.50928 z m -29.51309,-6.37892 -1.08289,-0.23015 -1.00741,-0.44888 -0.89422,-0.64884 -0.73953,-0.81859 -0.55087,-0.95816 -0.33958,-1.0487 -0.11696,-1.09772 0.11696,-1.09772 0.33958,-1.04871 0.55087,-0.95815 0.73953,-0.8186 0.89422,-0.64883 1.00741,-0.44889 1.08289,-0.23014 h 1.10173 l 1.08288,0.23014 1.00741,0.44889 0.89423,0.64883 0.73952,0.8186 0.55087,0.95815 0.33958,1.04871 0.11697,1.09772 -0.11697,1.09772 -0.33958,1.0487 -0.55087,0.95816 -0.73952,0.81859 -0.89423,0.64884 -1.00741,0.44888 -1.08288,0.23015 z m 60.36943,0 -1.08289,-0.23015 -1.00741,-0.44888 -0.89422,-0.64884 -0.73953,-0.81859 -0.55086,-0.95816 -0.33958,-1.0487 -0.11697,-1.09772 0.11697,-1.09772 0.33958,-1.04871 0.55086,-0.95815 0.73953,-0.8186 0.89422,-0.64883 1.00741,-0.44889 1.08289,-0.23014 h 1.10174 l 1.08287,0.23014 1.00741,0.44889 0.89423,0.64883 0.73952,0.8186 0.55088,0.95815 0.33957,1.04871 0.11697,1.09772 -0.11697,1.09772 -0.33957,1.0487 -0.55088,0.95816 -0.73952,0.81859 -0.89423,0.64884 -1.00741,0.44888 -1.08287,0.23015 z m 379.1955,18.86137 -1.08289,-0.23015 -1.00741,-0.44892 -0.89422,-0.64883 -0.73953,-0.81856 -0.55086,-0.95816 -0.33958,-1.0487 -0.11698,-1.09772 0.11698,-1.09776 0.33958,-1.04866 0.55086,-0.95816 0.73953,-0.8186 0.89422,-0.64883 1.00741,-0.44888 1.08289,-0.23015 h 1.10173 l 1.08289,0.23015 1.0074,0.44888 0.89423,0.64883 0.73953,0.8186 0.55086,0.95816 0.33958,1.04866 0.11696,1.09776 -0.11696,1.09772 -0.33958,1.0487 -0.55086,0.95816 -0.73953,0.81856 -0.89423,0.64883 -1.0074,0.44892 -1.08289,0.23015 z m -188.65448,0 -1.08288,-0.23015 -1.00742,-0.44892 -0.89422,-0.64883 -0.73953,-0.81856 -0.55087,-0.95816 -0.33957,-1.0487 -0.11697,-1.09772 0.11697,-1.09776 0.33957,-1.04866 0.55087,-0.95816 0.73953,-0.8186 0.89422,-0.64883 1.00742,-0.44888 1.08288,-0.23015 h 1.10174 l 1.08287,0.23015 1.00742,0.44888 0.89423,0.64883 0.73951,0.8186 0.55088,0.95816 0.33958,1.04866 0.11696,1.09776 -0.11696,1.09772 -0.33958,1.0487 -0.55088,0.95816 -0.73951,0.81856 -0.89423,0.64883 -1.00742,0.44892 -1.08287,0.23015 z m -565.96456,0 -1.08024,-0.23015 -1.00892,-0.44892 -0.89347,-0.64883 -0.73877,-0.81856 -0.55238,-0.95816 -0.34109,-1.0487 -0.11546,-1.09772 0.11546,-1.09776 0.34109,-1.04866 0.55238,-0.95816 0.73877,-0.8186 0.89347,-0.64883 1.00892,-0.44888 1.08024,-0.23015 h 1.104 l 1.08024,0.23015 1.00892,0.44888 0.89346,0.64883 0.73878,0.8186 0.55238,0.95816 0.34108,1.04866 0.11546,1.09776 -0.11546,1.09772 -0.34108,1.0487 -0.55238,0.95816 -0.73878,0.81856 -0.89346,0.64883 -1.00892,0.44892 -1.08024,0.23015 z m 188.6556,0 -1.08287,-0.23015 -1.00742,-0.44892 -0.89422,-0.64883 -0.73952,-0.81856 -0.55088,-0.95816 -0.33958,-1.0487 -0.11696,-1.09772 0.11696,-1.09776 0.33958,-1.04866 0.55088,-0.95816 0.73952,-0.8186 0.89422,-0.64883 1.00742,-0.44888 1.08287,-0.23015 h 1.10175 l 1.08287,0.23015 1.00742,0.44888 0.89422,0.64883 0.73952,0.8186 0.55088,0.95816 0.33958,1.04866 0.11696,1.09776 -0.11696,1.09772 -0.33958,1.0487 -0.55088,0.95816 -0.73952,0.81856 -0.89422,0.64883 -1.00742,0.44892 -1.08287,0.23015 z m 754.6179,0 -1.0828,-0.23015 -1.0075,-0.44892 -0.8942,-0.64883 -0.7395,-0.81856 -0.5509,-0.95816 -0.3396,-1.0487 -0.1169,-1.09772 0.1169,-1.09776 0.3396,-1.04866 0.5509,-0.95816 0.7395,-0.8186 0.8942,-0.64883 1.0075,-0.44888 1.0828,-0.23015 h 1.1018 l 1.0829,0.23015 1.0073,0.44888 0.8943,0.64883 0.7395,0.8186 0.5508,0.95816 0.3396,1.04866 0.117,1.09776 -0.117,1.09772 -0.3396,1.0487 -0.5508,0.95816 -0.7395,0.81856 -0.8943,0.64883 -1.0073,0.44892 -1.0829,0.23015 z m -568.52158,25.24025 -2.39213,-0.50923 -2.23367,-0.99213 -1.97711,-1.43724 -1.63751,-1.8182 -1.22249,-2.11627 -0.75461,-2.3237 -0.25657,-2.43311 0.25657,-2.43315 0.75461,-2.3237 1.22249,-2.11626 1.63751,-1.81821 1.97711,-1.43724 2.23367,-0.99213 2.39213,-0.50923 h 2.44497 l 2.39214,0.50923 2.23367,0.99213 1.97709,1.43724 1.63752,1.81821 1.22248,2.11626 0.75463,2.3237 0.25656,2.43315 -0.25656,2.43311 -0.75463,2.3237 -1.22248,2.11627 -1.63752,1.8182 -1.97709,1.43724 -2.23367,0.99213 -2.39214,0.50923 z m -60.36943,0 -2.39214,-0.50923 -2.23367,-0.99213 -1.9771,-1.43724 -1.63751,-1.8182 -1.22249,-2.11627 -0.75462,-2.3237 -0.25656,-2.43311 0.25656,-2.43315 0.75462,-2.3237 1.22249,-2.11626 1.63751,-1.81821 1.9771,-1.43724 2.23367,-0.99213 2.39214,-0.50923 h 2.44497 l 2.39214,0.50923 2.23366,0.99213 1.9771,1.43724 1.63752,1.81821 1.22248,2.11626 0.75462,2.3237 0.25657,2.43315 -0.25657,2.43311 -0.75462,2.3237 -1.22248,2.11627 -1.63752,1.8182 -1.9771,1.43724 -2.23366,0.99213 -2.39214,0.50923 z m 30.85633,31.34383 -1.08288,-0.23015 -1.00741,-0.44888 -0.89422,-0.64884 -0.73953,-0.81859 -0.55087,-0.95816 -0.33958,-1.0487 -0.11696,-1.09772 0.11696,-1.09772 0.33958,-1.04871 0.55087,-0.95815 0.73953,-0.8186 0.89422,-0.64883 1.00741,-0.44889 1.08288,-0.23014 h 1.10174 l 1.08288,0.23014 1.00741,0.44889 0.89422,0.64883 0.73953,0.8186 0.55087,0.95815 0.33958,1.04871 0.11697,1.09772 -0.11697,1.09772 -0.33958,1.0487 -0.55087,0.95816 -0.73953,0.81859 -0.89422,0.64884 -1.00741,0.44888 -1.08288,0.23015 z m 598.03468,18.86137 -1.0828,-0.23015 -1.0075,-0.44892 -0.8942,-0.64883 -0.7395,-0.81856 -0.5509,-0.95816 -0.3396,-1.0487 -0.1169,-1.09772 0.1169,-1.09776 0.3396,-1.04866 0.5509,-0.95816 0.7395,-0.81859 0.8942,-0.64884 1.0075,-0.44888 1.0828,-0.23015 h 1.1018 l 1.0829,0.23015 1.0073,0.44888 0.8943,0.64884 0.7395,0.81859 0.5508,0.95816 0.3396,1.04866 0.117,1.09776 -0.117,1.09772 -0.3396,1.0487 -0.5508,0.95816 -0.7395,0.81856 -0.8943,0.64883 -1.0073,0.44892 -1.0829,0.23015 z m -1082.87782,0 -1.080235,-0.23015 -1.008924,-0.44892 -0.893468,-0.64883 -0.738771,-0.81856 -0.55238,-0.95816 -0.341087,-1.0487 -0.115457,-1.09772 0.115457,-1.09776 0.341087,-1.04866 0.55238,-0.95816 0.738771,-0.81859 0.893468,-0.64884 1.008924,-0.44888 1.080235,-0.23015 h 1.104007 l 1.080235,0.23015 1.008925,0.44888 0.893467,0.64884 0.738771,0.81859 0.55238,0.95816 0.341088,1.04866 0.115456,1.09776 -0.115456,1.09772 -0.341088,1.0487 -0.55238,0.95816 -0.738771,0.81856 -0.893467,0.64883 -1.008925,0.44892 -1.080235,0.23015 z m 0,188.61361 -1.080235,-0.23015 -1.008924,-0.44892 -0.893468,-0.6488 -0.738771,-0.81859 -0.55238,-0.95816 -0.341087,-1.0487 -0.115457,-1.09772 0.115457,-1.09772 0.341087,-1.0487 0.55238,-0.95816 0.738771,-0.8186 0.893468,-0.64883 1.008924,-0.44888 1.080235,-0.23015 h 1.104007 l 1.080235,0.23015 1.008925,0.44888 0.893467,0.64883 0.738771,0.8186 0.55238,0.95816 0.341088,1.0487 0.115456,1.09772 -0.115456,1.09772 -0.341088,1.0487 -0.55238,0.95816 -0.738771,0.81859 -0.893467,0.6488 -1.008925,0.44892 -1.080235,0.23015 z m 1082.87782,0 -1.0828,-0.23015 -1.0075,-0.44892 -0.8942,-0.6488 -0.7395,-0.81859 -0.5509,-0.95816 -0.3396,-1.0487 -0.1169,-1.09772 0.1169,-1.09772 0.3396,-1.0487 0.5509,-0.95816 0.7395,-0.8186 0.8942,-0.64883 1.0075,-0.44888 1.0828,-0.23015 h 1.1018 l 1.0829,0.23015 1.0073,0.44888 0.8943,0.64883 0.7395,0.8186 0.5508,0.95816 0.3396,1.0487 0.117,1.09772 -0.117,1.09772 -0.3396,1.0487 -0.5508,0.95816 -0.7395,0.81859 -0.8943,0.6488 -1.0073,0.44892 -1.0829,0.23015 z m -565.96342,113.16816 -1.08288,-0.23015 -1.00741,-0.44888 -0.89422,-0.64884 -0.73953,-0.81859 -0.55087,-0.95816 -0.33958,-1.04867 -0.11697,-1.09775 0.11697,-1.09772 0.33958,-1.04871 0.55087,-0.95815 0.73953,-0.81856 0.89422,-0.64884 1.00741,-0.44892 1.08288,-0.23015 h 1.10174 l 1.08288,0.23015 1.00741,0.44892 0.89422,0.64884 0.73953,0.81856 0.55087,0.95815 0.33958,1.04871 0.11696,1.09772 -0.11696,1.09775 -0.33958,1.04867 -0.55087,0.95816 -0.73953,0.81859 -0.89422,0.64884 -1.00741,0.44888 -1.08288,0.23015 z m 377.30896,0 -1.08289,-0.23015 -1.00741,-0.44888 -0.89422,-0.64884 -0.73953,-0.81859 -0.55086,-0.95816 -0.33958,-1.04867 -0.11698,-1.09775 0.11698,-1.09772 0.33958,-1.04871 0.55086,-0.95815 0.73953,-0.81856 0.89422,-0.64884 1.00741,-0.44892 1.08289,-0.23015 h 1.10173 l 1.08289,0.23015 1.0074,0.44892 0.89423,0.64884 0.73953,0.81856 0.55086,0.95815 0.33958,1.04871 0.11696,1.09772 -0.11696,1.09775 -0.33958,1.04867 -0.55086,0.95816 -0.73953,0.81859 -0.89423,0.64884 -1.0074,0.44888 -1.08289,0.23015 z m -565.96344,0 -1.08287,-0.23015 -1.00742,-0.44888 -0.89422,-0.64884 -0.73952,-0.81859 -0.55088,-0.95816 -0.33958,-1.04867 -0.11696,-1.09775 0.11696,-1.09772 0.33958,-1.04871 0.55088,-0.95815 0.73952,-0.81856 0.89422,-0.64884 1.00742,-0.44892 1.08287,-0.23015 h 1.10175 l 1.08287,0.23015 1.00742,0.44892 0.89422,0.64884 0.73952,0.81856 0.55088,0.95815 0.33958,1.04871 0.11696,1.09772 -0.11696,1.09775 -0.33958,1.04867 -0.55088,0.95816 -0.73952,0.81859 -0.89422,0.64884 -1.00742,0.44888 -1.08287,0.23015 z m -188.6556,0 -1.08024,-0.23015 -1.00892,-0.44888 -0.89347,-0.64884 -0.73877,-0.81859 -0.55238,-0.95816 -0.34109,-1.04867 -0.11546,-1.09775 0.11546,-1.09772 0.34109,-1.04871 0.55238,-0.95815 0.73877,-0.81856 0.89347,-0.64884 1.00892,-0.44892 1.08024,-0.23015 h 1.104 l 1.08024,0.23015 1.00892,0.44892 0.89346,0.64884 0.73878,0.81856 0.55238,0.95815 0.34108,1.04871 0.11546,1.09772 -0.11546,1.09775 -0.34108,1.04867 -0.55238,0.95816 -0.73878,0.81859 -0.89346,0.64884 -1.00892,0.44888 -1.08024,0.23015 z m 565.96456,0 -1.08288,-0.23015 -1.00742,-0.44888 -0.89422,-0.64884 -0.73953,-0.81859 -0.55087,-0.95816 -0.33957,-1.04867 -0.11697,-1.09775 0.11697,-1.09772 0.33957,-1.04871 0.55087,-0.95815 0.73953,-0.81856 0.89422,-0.64884 1.00742,-0.44892 1.08288,-0.23015 h 1.10174 l 1.08287,0.23015 1.00742,0.44892 0.89423,0.64884 0.73951,0.81856 0.55088,0.95815 0.33958,1.04871 0.11696,1.09772 -0.11696,1.09775 -0.33958,1.04867 -0.55088,0.95816 -0.73951,0.81859 -0.89423,0.64884 -1.00742,0.44888 -1.08287,0.23015 z m 86.78106,0 -1.08289,-0.23015 -1.00741,-0.44888 -0.89422,-0.64884 -0.73953,-0.81859 -0.55086,-0.95816 -0.33958,-1.04867 -0.11697,-1.09775 0.11697,-1.09772 0.33958,-1.04871 0.55086,-0.95815 0.73953,-0.81856 0.89422,-0.64884 1.00741,-0.44892 1.08289,-0.23015 h 1.10174 l 1.08288,0.23015 1.0074,0.44892 0.89423,0.64884 0.73953,0.81856 0.55086,0.95815 0.33958,1.04871 0.11698,1.09772 -0.11698,1.09775 -0.33958,1.04867 -0.55086,0.95816 -0.73953,0.81859 -0.89423,0.64884 -1.0074,0.44888 -1.08288,0.23015 z m -788.57685,0 -1.080235,-0.23015 -1.008924,-0.44888 -0.893469,-0.64884 -0.73877,-0.81859 -0.55238,-0.95816 -0.341088,-1.04867 -0.115456,-1.09775 0.115456,-1.09772 0.341088,-1.04871 0.55238,-0.95815 0.73877,-0.81856 0.893469,-0.64884 1.008924,-0.44892 1.080235,-0.23015 h 1.104006 l 1.080235,0.23015 1.008925,0.44892 0.893468,0.64884 0.738771,0.81856 0.552379,0.95815 0.341088,1.04871 0.115456,1.09772 -0.115456,1.09775 -0.341088,1.04867 -0.552379,0.95816 -0.738771,0.81859 -0.893468,0.64884 -1.008925,0.44888 -1.080235,0.23015 z m -3.77309,75.44545 -1.080235,-0.23015 -1.008924,-0.44888 -0.893468,-0.64884 -0.738771,-0.81859 -0.55238,-0.95816 -0.341087,-1.0487 -0.115457,-1.09772 0.115457,-1.09772 0.341087,-1.04871 0.55238,-0.95815 0.738771,-0.8186 0.893468,-0.6488 1.008924,-0.44892 1.080235,-0.23014 h 1.104007 l 1.080235,0.23014 1.008925,0.44892 0.893467,0.6488 0.738771,0.8186 0.55238,0.95815 0.341088,1.04871 0.115456,1.09772 -0.115456,1.09772 -0.341088,1.0487 -0.55238,0.95816 -0.738771,0.81859 -0.893467,0.64884 -1.008925,0.44888 -1.080235,0.23015 z m 1082.87782,0 -1.0828,-0.23015 -1.0075,-0.44888 -0.8942,-0.64884 -0.7395,-0.81859 -0.5509,-0.95816 -0.3396,-1.0487 -0.1169,-1.09772 0.1169,-1.09772 0.3396,-1.04871 0.5509,-0.95815 0.7395,-0.8186 0.8942,-0.6488 1.0075,-0.44892 1.0828,-0.23014 h 1.1018 l 1.0829,0.23014 1.0073,0.44892 0.8943,0.6488 0.7395,0.8186 0.5508,0.95815 0.3396,1.04871 0.117,1.09772 -0.117,1.09772 -0.3396,1.0487 -0.5508,0.95816 -0.7395,0.81859 -0.8943,0.64884 -1.0073,0.44888 -1.0829,0.23015 z"
     id="path24"
     inkscape:connector-curvature="0"
     style="fill:none;stroke:#0000ff;stroke-width:0.03779528;stroke-opacity:1;stroke-miterlimit:4;stroke-dasharray:none" />
</svg>
