solid OpenSCAD_Model
  facet normal 1 0 0
    outer loop
      vertex 69 4 10
      vertex 69 0 10
      vertex 69 4 5
    endloop
  endfacet
  facet normal 1 0 0
    outer loop
      vertex 69 15 5
      vertex 69 19 10
      vertex 69 15 10
    endloop
  endfacet
  facet normal 1 0 0
    outer loop
      vertex 69 19 10
      vertex 69 15 5
      vertex 69 19 0
    endloop
  endfacet
  facet normal 1 -0 0
    outer loop
      vertex 69 4 5
      vertex 69 19 0
      vertex 69 15 5
    endloop
  endfacet
  facet normal 1 0 0
    outer loop
      vertex 69 4 5
      vertex 69 0 0
      vertex 69 19 0
    endloop
  endfacet
  facet normal 1 0 0
    outer loop
      vertex 69 0 0
      vertex 69 4 5
      vertex 69 0 10
    endloop
  endfacet
  facet normal -0 0 1
    outer loop
      vertex -66 19 10
      vertex 69 15 10
      vertex 69 19 10
    endloop
  endfacet
  facet normal 0 0 1
    outer loop
      vertex 69 15 10
      vertex -66 19 10
      vertex -66 15 10
    endloop
  endfacet
  facet normal -0 0 1
    outer loop
      vertex -66 4 10
      vertex 69 0 10
      vertex 69 4 10
    endloop
  endfacet
  facet normal 0 0 1
    outer loop
      vertex 69 0 10
      vertex -66 4 10
      vertex -66 0 10
    endloop
  endfacet
  facet normal 0 0 -1
    outer loop
      vertex 46.8096 6.88464 0
      vertex 69 0 0
      vertex 46.85 6.5 0
    endloop
  endfacet
  facet normal 0 0 -1
    outer loop
      vertex 69 0 0
      vertex 46.8096 6.11536 0
      vertex 46.85 6.5 0
    endloop
  endfacet
  facet normal 0 0 -1
    outer loop
      vertex 69 0 0
      vertex 46.6901 5.74754 0
      vertex 46.8096 6.11536 0
    endloop
  endfacet
  facet normal 0 0 -1
    outer loop
      vertex 69 0 0
      vertex 46.4967 5.4126 0
      vertex 46.6901 5.74754 0
    endloop
  endfacet
  facet normal 0 0 -1
    outer loop
      vertex 69 0 0
      vertex 46.2379 5.12518 0
      vertex 46.4967 5.4126 0
    endloop
  endfacet
  facet normal 0 0 -1
    outer loop
      vertex 69 0 0
      vertex 45.925 4.89785 0
      vertex 46.2379 5.12518 0
    endloop
  endfacet
  facet normal 0 0 -1
    outer loop
      vertex 69 0 0
      vertex 45.5717 4.74055 0
      vertex 45.925 4.89785 0
    endloop
  endfacet
  facet normal 0 0 -1
    outer loop
      vertex 69 0 0
      vertex 45.1934 4.66013 0
      vertex 45.5717 4.74055 0
    endloop
  endfacet
  facet normal 0 0 -1
    outer loop
      vertex 69 0 0
      vertex 44.8066 4.66013 0
      vertex 45.1934 4.66013 0
    endloop
  endfacet
  facet normal 0 0 -1
    outer loop
      vertex 43.1904 6.11536 0
      vertex -38.15 6.5 0
      vertex 43.15 6.5 0
    endloop
  endfacet
  facet normal 0 0 -1
    outer loop
      vertex -38.1904 6.11536 0
      vertex 43.1904 6.11536 0
      vertex 43.3099 5.74754 0
    endloop
  endfacet
  facet normal 0 0 -1
    outer loop
      vertex -38.3099 5.74754 0
      vertex 43.3099 5.74754 0
      vertex 43.5033 5.4126 0
    endloop
  endfacet
  facet normal 0 0 -1
    outer loop
      vertex -38.5033 5.4126 0
      vertex 43.5033 5.4126 0
      vertex 43.7621 5.12518 0
    endloop
  endfacet
  facet normal 0 0 -1
    outer loop
      vertex -38.7621 5.12518 0
      vertex 43.7621 5.12518 0
      vertex 44.075 4.89785 0
    endloop
  endfacet
  facet normal 0 0 -1
    outer loop
      vertex -39.075 4.89785 0
      vertex 44.075 4.89785 0
      vertex 44.4283 4.74055 0
    endloop
  endfacet
  facet normal 0 0 -1
    outer loop
      vertex -39.4283 4.74055 0
      vertex 44.4283 4.74055 0
      vertex 44.8066 4.66013 0
    endloop
  endfacet
  facet normal 0 0 -1
    outer loop
      vertex -39.8066 4.66013 0
      vertex 44.8066 4.66013 0
      vertex 69 0 0
    endloop
  endfacet
  facet normal 0 0 -1
    outer loop
      vertex 43.1904 6.11536 0
      vertex -38.1904 6.11536 0
      vertex -38.15 6.5 0
    endloop
  endfacet
  facet normal 0 0 -1
    outer loop
      vertex 43.3099 5.74754 0
      vertex -38.3099 5.74754 0
      vertex -38.1904 6.11536 0
    endloop
  endfacet
  facet normal 0 0 -1
    outer loop
      vertex 43.5033 5.4126 0
      vertex -38.5033 5.4126 0
      vertex -38.3099 5.74754 0
    endloop
  endfacet
  facet normal 0 0 -1
    outer loop
      vertex 43.7621 5.12518 0
      vertex -38.7621 5.12518 0
      vertex -38.5033 5.4126 0
    endloop
  endfacet
  facet normal 0 0 -1
    outer loop
      vertex 44.075 4.89785 0
      vertex -39.075 4.89785 0
      vertex -38.7621 5.12518 0
    endloop
  endfacet
  facet normal 0 0 -1
    outer loop
      vertex 44.4283 4.74055 0
      vertex -39.4283 4.74055 0
      vertex -39.075 4.89785 0
    endloop
  endfacet
  facet normal 0 0 -1
    outer loop
      vertex 44.8066 4.66013 0
      vertex -39.8066 4.66013 0
      vertex -39.4283 4.74055 0
    endloop
  endfacet
  facet normal 0 0 -1
    outer loop
      vertex -66 0 0
      vertex -39.8066 4.66013 0
      vertex 69 0 0
    endloop
  endfacet
  facet normal -0 0 -1
    outer loop
      vertex -41.8096 6.11536 0
      vertex -66 0 0
      vertex -41.85 6.5 0
    endloop
  endfacet
  facet normal -0 0 -1
    outer loop
      vertex -41.6901 5.74754 0
      vertex -66 0 0
      vertex -41.8096 6.11536 0
    endloop
  endfacet
  facet normal -0 0 -1
    outer loop
      vertex -41.4967 5.4126 0
      vertex -66 0 0
      vertex -41.6901 5.74754 0
    endloop
  endfacet
  facet normal -0 0 -1
    outer loop
      vertex -41.2379 5.12518 0
      vertex -66 0 0
      vertex -41.4967 5.4126 0
    endloop
  endfacet
  facet normal -0 0 -1
    outer loop
      vertex -40.925 4.89785 0
      vertex -66 0 0
      vertex -41.2379 5.12518 0
    endloop
  endfacet
  facet normal -0 0 -1
    outer loop
      vertex -40.5717 4.74055 0
      vertex -66 0 0
      vertex -40.925 4.89785 0
    endloop
  endfacet
  facet normal -0 0 -1
    outer loop
      vertex -40.1934 4.66013 0
      vertex -66 0 0
      vertex -40.5717 4.74055 0
    endloop
  endfacet
  facet normal -0 0 -1
    outer loop
      vertex -39.8066 4.66013 0
      vertex -66 0 0
      vertex -40.1934 4.66013 0
    endloop
  endfacet
  facet normal 0 0 -1
    outer loop
      vertex 69 0 0
      vertex 46.8096 6.88464 0
      vertex 69 19 0
    endloop
  endfacet
  facet normal 0 0 -1
    outer loop
      vertex 46.6901 7.25246 0
      vertex 69 19 0
      vertex 46.8096 6.88464 0
    endloop
  endfacet
  facet normal 0 0 -1
    outer loop
      vertex 46.4967 7.5874 0
      vertex 69 19 0
      vertex 46.6901 7.25246 0
    endloop
  endfacet
  facet normal 0 0 -1
    outer loop
      vertex 46.2379 7.87482 0
      vertex 69 19 0
      vertex 46.4967 7.5874 0
    endloop
  endfacet
  facet normal 0 0 -1
    outer loop
      vertex 45.925 8.10215 0
      vertex 69 19 0
      vertex 46.2379 7.87482 0
    endloop
  endfacet
  facet normal 0 0 -1
    outer loop
      vertex 45.5717 8.25945 0
      vertex 69 19 0
      vertex 45.925 8.10215 0
    endloop
  endfacet
  facet normal 0 0 -1
    outer loop
      vertex 45.1934 8.33986 0
      vertex 69 19 0
      vertex 45.5717 8.25945 0
    endloop
  endfacet
  facet normal 0 0 -1
    outer loop
      vertex 44.8066 8.33986 0
      vertex 69 19 0
      vertex 45.1934 8.33986 0
    endloop
  endfacet
  facet normal 0 0 -1
    outer loop
      vertex 44.4283 8.25945 0
      vertex 69 19 0
      vertex 44.8066 8.33986 0
    endloop
  endfacet
  facet normal 0 0 -1
    outer loop
      vertex -38.15 6.5 0
      vertex 43.1904 6.88464 0
      vertex 43.15 6.5 0
    endloop
  endfacet
  facet normal 0 0 -1
    outer loop
      vertex -38.1904 6.88464 0
      vertex 43.1904 6.88464 0
      vertex -38.15 6.5 0
    endloop
  endfacet
  facet normal 0 0 -1
    outer loop
      vertex 43.1904 6.88464 0
      vertex -38.1904 6.88464 0
      vertex 43.3099 7.25246 0
    endloop
  endfacet
  facet normal 0 0 -1
    outer loop
      vertex -38.3099 7.25246 0
      vertex 43.3099 7.25246 0
      vertex -38.1904 6.88464 0
    endloop
  endfacet
  facet normal 0 0 -1
    outer loop
      vertex 43.3099 7.25246 0
      vertex -38.3099 7.25246 0
      vertex 43.5033 7.5874 0
    endloop
  endfacet
  facet normal 0 0 -1
    outer loop
      vertex -38.5033 7.5874 0
      vertex 43.5033 7.5874 0
      vertex -38.3099 7.25246 0
    endloop
  endfacet
  facet normal 0 0 -1
    outer loop
      vertex 43.5033 7.5874 0
      vertex -38.5033 7.5874 0
      vertex 43.7621 7.87482 0
    endloop
  endfacet
  facet normal 0 0 -1
    outer loop
      vertex -38.7621 7.87482 0
      vertex 43.7621 7.87482 0
      vertex -38.5033 7.5874 0
    endloop
  endfacet
  facet normal 0 0 -1
    outer loop
      vertex 43.7621 7.87482 0
      vertex -38.7621 7.87482 0
      vertex 44.075 8.10215 0
    endloop
  endfacet
  facet normal 0 0 -1
    outer loop
      vertex -39.075 8.10215 0
      vertex 44.075 8.10215 0
      vertex -38.7621 7.87482 0
    endloop
  endfacet
  facet normal 0 0 -1
    outer loop
      vertex 44.075 8.10215 0
      vertex -39.075 8.10215 0
      vertex 44.4283 8.25945 0
    endloop
  endfacet
  facet normal 0 0 -1
    outer loop
      vertex -39.4283 8.25945 0
      vertex 44.4283 8.25945 0
      vertex -39.075 8.10215 0
    endloop
  endfacet
  facet normal 0 0 -1
    outer loop
      vertex 44.4283 8.25945 0
      vertex -39.4283 8.25945 0
      vertex 69 19 0
    endloop
  endfacet
  facet normal 0 0 -1
    outer loop
      vertex -66 19 0
      vertex -39.4283 8.25945 0
      vertex -39.8066 8.33986 0
    endloop
  endfacet
  facet normal 0 0 -1
    outer loop
      vertex -66 19 0
      vertex -39.8066 8.33986 0
      vertex -40.1934 8.33986 0
    endloop
  endfacet
  facet normal 0 0 -1
    outer loop
      vertex -66 0 0
      vertex -41.8096 6.88464 0
      vertex -41.85 6.5 0
    endloop
  endfacet
  facet normal 0 0 -1
    outer loop
      vertex -66 19 0
      vertex -41.8096 6.88464 0
      vertex -66 0 0
    endloop
  endfacet
  facet normal 0 0 -1
    outer loop
      vertex -41.8096 6.88464 0
      vertex -66 19 0
      vertex -41.6901 7.25246 0
    endloop
  endfacet
  facet normal 0 0 -1
    outer loop
      vertex -41.6901 7.25246 0
      vertex -66 19 0
      vertex -41.4967 7.5874 0
    endloop
  endfacet
  facet normal 0 0 -1
    outer loop
      vertex -41.4967 7.5874 0
      vertex -66 19 0
      vertex -41.2379 7.87482 0
    endloop
  endfacet
  facet normal 0 0 -1
    outer loop
      vertex -41.2379 7.87482 0
      vertex -66 19 0
      vertex -40.925 8.10215 0
    endloop
  endfacet
  facet normal 0 0 -1
    outer loop
      vertex -39.4283 8.25945 0
      vertex -66 19 0
      vertex 69 19 0
    endloop
  endfacet
  facet normal 0 0 -1
    outer loop
      vertex -40.5717 8.25945 0
      vertex -66 19 0
      vertex -40.1934 8.33986 0
    endloop
  endfacet
  facet normal 0 0 -1
    outer loop
      vertex -40.925 8.10215 0
      vertex -66 19 0
      vertex -40.5717 8.25945 0
    endloop
  endfacet
  facet normal -1 0 0
    outer loop
      vertex -66 19 0
      vertex -66 15 5
      vertex -66 19 10
    endloop
  endfacet
  facet normal -1 0 0
    outer loop
      vertex -66 19 0
      vertex -66 4 5
      vertex -66 15 5
    endloop
  endfacet
  facet normal -1 0 0
    outer loop
      vertex -66 0 0
      vertex -66 4 5
      vertex -66 19 0
    endloop
  endfacet
  facet normal -1 0 0
    outer loop
      vertex -66 0 10
      vertex -66 4 5
      vertex -66 0 0
    endloop
  endfacet
  facet normal -1 0 0
    outer loop
      vertex -66 4 5
      vertex -66 0 10
      vertex -66 4 10
    endloop
  endfacet
  facet normal -1 -0 0
    outer loop
      vertex -66 19 10
      vertex -66 15 5
      vertex -66 15 10
    endloop
  endfacet
  facet normal 0 1 -0
    outer loop
      vertex 69 19 0
      vertex -66 19 10
      vertex 69 19 10
    endloop
  endfacet
  facet normal 0 1 0
    outer loop
      vertex -66 19 10
      vertex 69 19 0
      vertex -66 19 0
    endloop
  endfacet
  facet normal 0 -1 0
    outer loop
      vertex -66 0 0
      vertex 69 0 10
      vertex -66 0 10
    endloop
  endfacet
  facet normal 0 -1 -0
    outer loop
      vertex 69 0 10
      vertex -66 0 0
      vertex 69 0 0
    endloop
  endfacet
  facet normal -0.951066 -0.308989 0
    outer loop
      vertex -38.1904 6.88464 0
      vertex -38.3099 7.25246 5
      vertex -38.3099 7.25246 0
    endloop
  endfacet
  facet normal -0.951066 -0.308989 0
    outer loop
      vertex -38.3099 7.25246 5
      vertex -38.1904 6.88464 0
      vertex -38.1904 6.88464 5
    endloop
  endfacet
  facet normal -0.994529 -0.104459 0
    outer loop
      vertex -38.15 6.5 0
      vertex -38.1904 6.88464 5
      vertex -38.1904 6.88464 0
    endloop
  endfacet
  facet normal -0.994529 -0.104459 0
    outer loop
      vertex -38.1904 6.88464 5
      vertex -38.15 6.5 0
      vertex -38.15 6.5 5
    endloop
  endfacet
  facet normal 0.406738 0.913545 -0
    outer loop
      vertex -40.5717 4.74055 0
      vertex -40.925 4.89785 5
      vertex -40.5717 4.74055 5
    endloop
  endfacet
  facet normal 0.406738 0.913545 0
    outer loop
      vertex -40.925 4.89785 5
      vertex -40.5717 4.74055 0
      vertex -40.925 4.89785 0
    endloop
  endfacet
  facet normal 0.406738 -0.913545 0
    outer loop
      vertex -40.925 8.10215 0
      vertex -40.5717 8.25945 5
      vertex -40.925 8.10215 5
    endloop
  endfacet
  facet normal 0.406738 -0.913545 0
    outer loop
      vertex -40.5717 8.25945 5
      vertex -40.925 8.10215 0
      vertex -40.5717 8.25945 0
    endloop
  endfacet
  facet normal 0.994529 0.104459 0
    outer loop
      vertex -41.8096 6.11536 5
      vertex -41.85 6.5 0
      vertex -41.85 6.5 5
    endloop
  endfacet
  facet normal 0.994529 0.104459 0
    outer loop
      vertex -41.85 6.5 0
      vertex -41.8096 6.11536 5
      vertex -41.8096 6.11536 0
    endloop
  endfacet
  facet normal -0.743137 -0.669139 0
    outer loop
      vertex -38.5033 7.5874 0
      vertex -38.7621 7.87482 5
      vertex -38.7621 7.87482 0
    endloop
  endfacet
  facet normal -0.743137 -0.669139 0
    outer loop
      vertex -38.7621 7.87482 5
      vertex -38.5033 7.5874 0
      vertex -38.5033 7.5874 5
    endloop
  endfacet
  facet normal 0.951066 -0.308989 0
    outer loop
      vertex -41.8096 6.88464 5
      vertex -41.6901 7.25246 0
      vertex -41.6901 7.25246 5
    endloop
  endfacet
  facet normal 0.951066 -0.308989 0
    outer loop
      vertex -41.6901 7.25246 0
      vertex -41.8096 6.88464 5
      vertex -41.8096 6.88464 0
    endloop
  endfacet
  facet normal 0.743137 -0.669139 0
    outer loop
      vertex -41.4967 7.5874 5
      vertex -41.2379 7.87482 0
      vertex -41.2379 7.87482 5
    endloop
  endfacet
  facet normal 0.743137 -0.669139 0
    outer loop
      vertex -41.2379 7.87482 0
      vertex -41.4967 7.5874 5
      vertex -41.4967 7.5874 0
    endloop
  endfacet
  facet normal -0.994529 0.104459 0
    outer loop
      vertex -38.1904 6.11536 0
      vertex -38.15 6.5 5
      vertex -38.15 6.5 0
    endloop
  endfacet
  facet normal -0.994529 0.104459 0
    outer loop
      vertex -38.15 6.5 5
      vertex -38.1904 6.11536 0
      vertex -38.1904 6.11536 5
    endloop
  endfacet
  facet normal -0.587777 -0.809023 0
    outer loop
      vertex -39.075 8.10215 0
      vertex -38.7621 7.87482 5
      vertex -39.075 8.10215 5
    endloop
  endfacet
  facet normal -0.587777 -0.809023 -0
    outer loop
      vertex -38.7621 7.87482 5
      vertex -39.075 8.10215 0
      vertex -38.7621 7.87482 0
    endloop
  endfacet
  facet normal -0.406738 -0.913545 0
    outer loop
      vertex -39.4283 8.25945 0
      vertex -39.075 8.10215 5
      vertex -39.4283 8.25945 5
    endloop
  endfacet
  facet normal -0.406738 -0.913545 -0
    outer loop
      vertex -39.075 8.10215 5
      vertex -39.4283 8.25945 0
      vertex -39.075 8.10215 0
    endloop
  endfacet
  facet normal -0.207936 0.978142 0
    outer loop
      vertex -39.4283 4.74055 0
      vertex -39.8066 4.66013 5
      vertex -39.4283 4.74055 5
    endloop
  endfacet
  facet normal -0.207936 0.978142 0
    outer loop
      vertex -39.8066 4.66013 5
      vertex -39.4283 4.74055 0
      vertex -39.8066 4.66013 0
    endloop
  endfacet
  facet normal 0.207911 -0.978148 0
    outer loop
      vertex -40.5717 8.25945 0
      vertex -40.1934 8.33986 5
      vertex -40.5717 8.25945 5
    endloop
  endfacet
  facet normal 0.207911 -0.978148 0
    outer loop
      vertex -40.1934 8.33986 5
      vertex -40.5717 8.25945 0
      vertex -40.1934 8.33986 0
    endloop
  endfacet
  facet normal -0.866 0.500043 0
    outer loop
      vertex -38.5033 5.4126 0
      vertex -38.3099 5.74754 5
      vertex -38.3099 5.74754 0
    endloop
  endfacet
  facet normal -0.866 0.500043 0
    outer loop
      vertex -38.3099 5.74754 5
      vertex -38.5033 5.4126 0
      vertex -38.5033 5.4126 5
    endloop
  endfacet
  facet normal 0 1 -0
    outer loop
      vertex -39.8066 4.66013 0
      vertex -40.1934 4.66013 5
      vertex -39.8066 4.66013 5
    endloop
  endfacet
  facet normal 0 1 0
    outer loop
      vertex -40.1934 4.66013 5
      vertex -39.8066 4.66013 0
      vertex -40.1934 4.66013 0
    endloop
  endfacet
  facet normal -0.587777 0.809023 0
    outer loop
      vertex -38.7621 5.12518 0
      vertex -39.075 4.89785 5
      vertex -38.7621 5.12518 5
    endloop
  endfacet
  facet normal -0.587777 0.809023 0
    outer loop
      vertex -39.075 4.89785 5
      vertex -38.7621 5.12518 0
      vertex -39.075 4.89785 0
    endloop
  endfacet
  facet normal 0 -1 0
    outer loop
      vertex -40.1934 8.33986 0
      vertex -39.8066 8.33986 5
      vertex -40.1934 8.33986 5
    endloop
  endfacet
  facet normal 0 -1 -0
    outer loop
      vertex -39.8066 8.33986 5
      vertex -40.1934 8.33986 0
      vertex -39.8066 8.33986 0
    endloop
  endfacet
  facet normal 0.866 -0.500043 0
    outer loop
      vertex -41.6901 7.25246 5
      vertex -41.4967 7.5874 0
      vertex -41.4967 7.5874 5
    endloop
  endfacet
  facet normal 0.866 -0.500043 0
    outer loop
      vertex -41.4967 7.5874 0
      vertex -41.6901 7.25246 5
      vertex -41.6901 7.25246 0
    endloop
  endfacet
  facet normal -0.406738 0.913545 0
    outer loop
      vertex -39.075 4.89785 0
      vertex -39.4283 4.74055 5
      vertex -39.075 4.89785 5
    endloop
  endfacet
  facet normal -0.406738 0.913545 0
    outer loop
      vertex -39.4283 4.74055 5
      vertex -39.075 4.89785 0
      vertex -39.4283 4.74055 0
    endloop
  endfacet
  facet normal 0.951066 0.308989 0
    outer loop
      vertex -41.6901 5.74754 5
      vertex -41.8096 6.11536 0
      vertex -41.8096 6.11536 5
    endloop
  endfacet
  facet normal 0.951066 0.308989 0
    outer loop
      vertex -41.8096 6.11536 0
      vertex -41.6901 5.74754 5
      vertex -41.6901 5.74754 0
    endloop
  endfacet
  facet normal -0.951066 0.308989 0
    outer loop
      vertex -38.3099 5.74754 0
      vertex -38.1904 6.11536 5
      vertex -38.1904 6.11536 0
    endloop
  endfacet
  facet normal -0.951066 0.308989 0
    outer loop
      vertex -38.1904 6.11536 5
      vertex -38.3099 5.74754 0
      vertex -38.3099 5.74754 5
    endloop
  endfacet
  facet normal -0.207911 -0.978148 0
    outer loop
      vertex -39.8066 8.33986 0
      vertex -39.4283 8.25945 5
      vertex -39.8066 8.33986 5
    endloop
  endfacet
  facet normal -0.207911 -0.978148 -0
    outer loop
      vertex -39.4283 8.25945 5
      vertex -39.8066 8.33986 0
      vertex -39.4283 8.25945 0
    endloop
  endfacet
  facet normal 0.207936 0.978142 -0
    outer loop
      vertex -40.1934 4.66013 0
      vertex -40.5717 4.74055 5
      vertex -40.1934 4.66013 5
    endloop
  endfacet
  facet normal 0.207936 0.978142 0
    outer loop
      vertex -40.5717 4.74055 5
      vertex -40.1934 4.66013 0
      vertex -40.5717 4.74055 0
    endloop
  endfacet
  facet normal -0.866 -0.500043 0
    outer loop
      vertex -38.3099 7.25246 0
      vertex -38.5033 7.5874 5
      vertex -38.5033 7.5874 0
    endloop
  endfacet
  facet normal -0.866 -0.500043 0
    outer loop
      vertex -38.5033 7.5874 5
      vertex -38.3099 7.25246 0
      vertex -38.3099 7.25246 5
    endloop
  endfacet
  facet normal 0.587777 -0.809023 0
    outer loop
      vertex -41.2379 7.87482 0
      vertex -40.925 8.10215 5
      vertex -41.2379 7.87482 5
    endloop
  endfacet
  facet normal 0.587777 -0.809023 0
    outer loop
      vertex -40.925 8.10215 5
      vertex -41.2379 7.87482 0
      vertex -40.925 8.10215 0
    endloop
  endfacet
  facet normal 0.866 0.500043 0
    outer loop
      vertex -41.4967 5.4126 5
      vertex -41.6901 5.74754 0
      vertex -41.6901 5.74754 5
    endloop
  endfacet
  facet normal 0.866 0.500043 0
    outer loop
      vertex -41.6901 5.74754 0
      vertex -41.4967 5.4126 5
      vertex -41.4967 5.4126 0
    endloop
  endfacet
  facet normal 0.587777 0.809023 -0
    outer loop
      vertex -40.925 4.89785 0
      vertex -41.2379 5.12518 5
      vertex -40.925 4.89785 5
    endloop
  endfacet
  facet normal 0.587777 0.809023 0
    outer loop
      vertex -41.2379 5.12518 5
      vertex -40.925 4.89785 0
      vertex -41.2379 5.12518 0
    endloop
  endfacet
  facet normal -0.743137 0.669139 0
    outer loop
      vertex -38.7621 5.12518 0
      vertex -38.5033 5.4126 5
      vertex -38.5033 5.4126 0
    endloop
  endfacet
  facet normal -0.743137 0.669139 0
    outer loop
      vertex -38.5033 5.4126 5
      vertex -38.7621 5.12518 0
      vertex -38.7621 5.12518 5
    endloop
  endfacet
  facet normal 0.743137 0.669139 0
    outer loop
      vertex -41.2379 5.12518 5
      vertex -41.4967 5.4126 0
      vertex -41.4967 5.4126 5
    endloop
  endfacet
  facet normal 0.743137 0.669139 0
    outer loop
      vertex -41.4967 5.4126 0
      vertex -41.2379 5.12518 5
      vertex -41.2379 5.12518 0
    endloop
  endfacet
  facet normal 0.994529 -0.104459 0
    outer loop
      vertex -41.85 6.5 5
      vertex -41.8096 6.88464 0
      vertex -41.8096 6.88464 5
    endloop
  endfacet
  facet normal 0.994529 -0.104459 0
    outer loop
      vertex -41.8096 6.88464 0
      vertex -41.85 6.5 5
      vertex -41.85 6.5 0
    endloop
  endfacet
  facet normal 0.406738 -0.913545 0
    outer loop
      vertex 44.075 8.10215 0
      vertex 44.4283 8.25945 5
      vertex 44.075 8.10215 5
    endloop
  endfacet
  facet normal 0.406738 -0.913545 0
    outer loop
      vertex 44.4283 8.25945 5
      vertex 44.075 8.10215 0
      vertex 44.4283 8.25945 0
    endloop
  endfacet
  facet normal 0.587777 -0.809023 0
    outer loop
      vertex 43.7621 7.87482 0
      vertex 44.075 8.10215 5
      vertex 43.7621 7.87482 5
    endloop
  endfacet
  facet normal 0.587777 -0.809023 0
    outer loop
      vertex 44.075 8.10215 5
      vertex 43.7621 7.87482 0
      vertex 44.075 8.10215 0
    endloop
  endfacet
  facet normal -0.587777 0.809023 0
    outer loop
      vertex 46.2379 5.12518 0
      vertex 45.925 4.89785 5
      vertex 46.2379 5.12518 5
    endloop
  endfacet
  facet normal -0.587777 0.809023 0
    outer loop
      vertex 45.925 4.89785 5
      vertex 46.2379 5.12518 0
      vertex 45.925 4.89785 0
    endloop
  endfacet
  facet normal -0.406738 0.913545 0
    outer loop
      vertex 45.925 4.89785 0
      vertex 45.5717 4.74055 5
      vertex 45.925 4.89785 5
    endloop
  endfacet
  facet normal -0.406738 0.913545 0
    outer loop
      vertex 45.5717 4.74055 5
      vertex 45.925 4.89785 0
      vertex 45.5717 4.74055 0
    endloop
  endfacet
  facet normal -0.994529 -0.104459 0
    outer loop
      vertex 46.85 6.5 0
      vertex 46.8096 6.88464 5
      vertex 46.8096 6.88464 0
    endloop
  endfacet
  facet normal -0.994529 -0.104459 0
    outer loop
      vertex 46.8096 6.88464 5
      vertex 46.85 6.5 0
      vertex 46.85 6.5 5
    endloop
  endfacet
  facet normal 0.207911 -0.978148 0
    outer loop
      vertex 44.4283 8.25945 0
      vertex 44.8066 8.33986 5
      vertex 44.4283 8.25945 5
    endloop
  endfacet
  facet normal 0.207911 -0.978148 0
    outer loop
      vertex 44.8066 8.33986 5
      vertex 44.4283 8.25945 0
      vertex 44.8066 8.33986 0
    endloop
  endfacet
  facet normal -0.994529 0.104459 0
    outer loop
      vertex 46.8096 6.11536 0
      vertex 46.85 6.5 5
      vertex 46.85 6.5 0
    endloop
  endfacet
  facet normal -0.994529 0.104459 0
    outer loop
      vertex 46.85 6.5 5
      vertex 46.8096 6.11536 0
      vertex 46.8096 6.11536 5
    endloop
  endfacet
  facet normal 0.207936 0.978142 -0
    outer loop
      vertex 44.8066 4.66013 0
      vertex 44.4283 4.74055 5
      vertex 44.8066 4.66013 5
    endloop
  endfacet
  facet normal 0.207936 0.978142 0
    outer loop
      vertex 44.4283 4.74055 5
      vertex 44.8066 4.66013 0
      vertex 44.4283 4.74055 0
    endloop
  endfacet
  facet normal -0.866 0.500043 0
    outer loop
      vertex 46.4967 5.4126 0
      vertex 46.6901 5.74754 5
      vertex 46.6901 5.74754 0
    endloop
  endfacet
  facet normal -0.866 0.500043 0
    outer loop
      vertex 46.6901 5.74754 5
      vertex 46.4967 5.4126 0
      vertex 46.4967 5.4126 5
    endloop
  endfacet
  facet normal -0.207936 0.978142 0
    outer loop
      vertex 45.5717 4.74055 0
      vertex 45.1934 4.66013 5
      vertex 45.5717 4.74055 5
    endloop
  endfacet
  facet normal -0.207936 0.978142 0
    outer loop
      vertex 45.1934 4.66013 5
      vertex 45.5717 4.74055 0
      vertex 45.1934 4.66013 0
    endloop
  endfacet
  facet normal 0.994529 0.104459 0
    outer loop
      vertex 43.1904 6.11536 5
      vertex 43.15 6.5 0
      vertex 43.15 6.5 5
    endloop
  endfacet
  facet normal 0.994529 0.104459 0
    outer loop
      vertex 43.15 6.5 0
      vertex 43.1904 6.11536 5
      vertex 43.1904 6.11536 0
    endloop
  endfacet
  facet normal -0.951066 -0.308989 0
    outer loop
      vertex 46.8096 6.88464 0
      vertex 46.6901 7.25246 5
      vertex 46.6901 7.25246 0
    endloop
  endfacet
  facet normal -0.951066 -0.308989 0
    outer loop
      vertex 46.6901 7.25246 5
      vertex 46.8096 6.88464 0
      vertex 46.8096 6.88464 5
    endloop
  endfacet
  facet normal -0.207911 -0.978148 0
    outer loop
      vertex 45.1934 8.33986 0
      vertex 45.5717 8.25945 5
      vertex 45.1934 8.33986 5
    endloop
  endfacet
  facet normal -0.207911 -0.978148 -0
    outer loop
      vertex 45.5717 8.25945 5
      vertex 45.1934 8.33986 0
      vertex 45.5717 8.25945 0
    endloop
  endfacet
  facet normal 0.951066 0.308989 0
    outer loop
      vertex 43.3099 5.74754 5
      vertex 43.1904 6.11536 0
      vertex 43.1904 6.11536 5
    endloop
  endfacet
  facet normal 0.951066 0.308989 0
    outer loop
      vertex 43.1904 6.11536 0
      vertex 43.3099 5.74754 5
      vertex 43.3099 5.74754 0
    endloop
  endfacet
  facet normal 0.951066 -0.308989 0
    outer loop
      vertex 43.1904 6.88464 5
      vertex 43.3099 7.25246 0
      vertex 43.3099 7.25246 5
    endloop
  endfacet
  facet normal 0.951066 -0.308989 0
    outer loop
      vertex 43.3099 7.25246 0
      vertex 43.1904 6.88464 5
      vertex 43.1904 6.88464 0
    endloop
  endfacet
  facet normal 0 1 -0
    outer loop
      vertex 45.1934 4.66013 0
      vertex 44.8066 4.66013 5
      vertex 45.1934 4.66013 5
    endloop
  endfacet
  facet normal 0 1 0
    outer loop
      vertex 44.8066 4.66013 5
      vertex 45.1934 4.66013 0
      vertex 44.8066 4.66013 0
    endloop
  endfacet
  facet normal -0.406738 -0.913545 0
    outer loop
      vertex 45.5717 8.25945 0
      vertex 45.925 8.10215 5
      vertex 45.5717 8.25945 5
    endloop
  endfacet
  facet normal -0.406738 -0.913545 -0
    outer loop
      vertex 45.925 8.10215 5
      vertex 45.5717 8.25945 0
      vertex 45.925 8.10215 0
    endloop
  endfacet
  facet normal -0.743137 -0.669139 0
    outer loop
      vertex 46.4967 7.5874 0
      vertex 46.2379 7.87482 5
      vertex 46.2379 7.87482 0
    endloop
  endfacet
  facet normal -0.743137 -0.669139 0
    outer loop
      vertex 46.2379 7.87482 5
      vertex 46.4967 7.5874 0
      vertex 46.4967 7.5874 5
    endloop
  endfacet
  facet normal 0 -1 0
    outer loop
      vertex 44.8066 8.33986 0
      vertex 45.1934 8.33986 5
      vertex 44.8066 8.33986 5
    endloop
  endfacet
  facet normal 0 -1 -0
    outer loop
      vertex 45.1934 8.33986 5
      vertex 44.8066 8.33986 0
      vertex 45.1934 8.33986 0
    endloop
  endfacet
  facet normal 0.866 -0.500043 0
    outer loop
      vertex 43.3099 7.25246 5
      vertex 43.5033 7.5874 0
      vertex 43.5033 7.5874 5
    endloop
  endfacet
  facet normal 0.866 -0.500043 0
    outer loop
      vertex 43.5033 7.5874 0
      vertex 43.3099 7.25246 5
      vertex 43.3099 7.25246 0
    endloop
  endfacet
  facet normal 0.406738 0.913545 -0
    outer loop
      vertex 44.4283 4.74055 0
      vertex 44.075 4.89785 5
      vertex 44.4283 4.74055 5
    endloop
  endfacet
  facet normal 0.406738 0.913545 0
    outer loop
      vertex 44.075 4.89785 5
      vertex 44.4283 4.74055 0
      vertex 44.075 4.89785 0
    endloop
  endfacet
  facet normal 0.866 0.500043 0
    outer loop
      vertex 43.5033 5.4126 5
      vertex 43.3099 5.74754 0
      vertex 43.3099 5.74754 5
    endloop
  endfacet
  facet normal 0.866 0.500043 0
    outer loop
      vertex 43.3099 5.74754 0
      vertex 43.5033 5.4126 5
      vertex 43.5033 5.4126 0
    endloop
  endfacet
  facet normal -0.587777 -0.809023 0
    outer loop
      vertex 45.925 8.10215 0
      vertex 46.2379 7.87482 5
      vertex 45.925 8.10215 5
    endloop
  endfacet
  facet normal -0.587777 -0.809023 -0
    outer loop
      vertex 46.2379 7.87482 5
      vertex 45.925 8.10215 0
      vertex 46.2379 7.87482 0
    endloop
  endfacet
  facet normal -0.866 -0.500043 0
    outer loop
      vertex 46.6901 7.25246 0
      vertex 46.4967 7.5874 5
      vertex 46.4967 7.5874 0
    endloop
  endfacet
  facet normal -0.866 -0.500043 0
    outer loop
      vertex 46.4967 7.5874 5
      vertex 46.6901 7.25246 0
      vertex 46.6901 7.25246 5
    endloop
  endfacet
  facet normal -0.951066 0.308989 0
    outer loop
      vertex 46.6901 5.74754 0
      vertex 46.8096 6.11536 5
      vertex 46.8096 6.11536 0
    endloop
  endfacet
  facet normal -0.951066 0.308989 0
    outer loop
      vertex 46.8096 6.11536 5
      vertex 46.6901 5.74754 0
      vertex 46.6901 5.74754 5
    endloop
  endfacet
  facet normal 0.743137 -0.669139 0
    outer loop
      vertex 43.5033 7.5874 5
      vertex 43.7621 7.87482 0
      vertex 43.7621 7.87482 5
    endloop
  endfacet
  facet normal 0.743137 -0.669139 0
    outer loop
      vertex 43.7621 7.87482 0
      vertex 43.5033 7.5874 5
      vertex 43.5033 7.5874 0
    endloop
  endfacet
  facet normal 0.587777 0.809023 -0
    outer loop
      vertex 44.075 4.89785 0
      vertex 43.7621 5.12518 5
      vertex 44.075 4.89785 5
    endloop
  endfacet
  facet normal 0.587777 0.809023 0
    outer loop
      vertex 43.7621 5.12518 5
      vertex 44.075 4.89785 0
      vertex 43.7621 5.12518 0
    endloop
  endfacet
  facet normal -0.743137 0.669139 0
    outer loop
      vertex 46.2379 5.12518 0
      vertex 46.4967 5.4126 5
      vertex 46.4967 5.4126 0
    endloop
  endfacet
  facet normal -0.743137 0.669139 0
    outer loop
      vertex 46.4967 5.4126 5
      vertex 46.2379 5.12518 0
      vertex 46.2379 5.12518 5
    endloop
  endfacet
  facet normal 0.743137 0.669139 0
    outer loop
      vertex 43.7621 5.12518 5
      vertex 43.5033 5.4126 0
      vertex 43.5033 5.4126 5
    endloop
  endfacet
  facet normal 0.743137 0.669139 0
    outer loop
      vertex 43.5033 5.4126 0
      vertex 43.7621 5.12518 5
      vertex 43.7621 5.12518 0
    endloop
  endfacet
  facet normal 0.994529 -0.104459 0
    outer loop
      vertex 43.15 6.5 5
      vertex 43.1904 6.88464 0
      vertex 43.1904 6.88464 5
    endloop
  endfacet
  facet normal 0.994529 -0.104459 0
    outer loop
      vertex 43.1904 6.88464 0
      vertex 43.15 6.5 5
      vertex 43.15 6.5 0
    endloop
  endfacet
  facet normal -0 0 1
    outer loop
      vertex 46.8096 6.88464 5
      vertex 69 4 5
      vertex 69 15 5
    endloop
  endfacet
  facet normal 0 0 1
    outer loop
      vertex 69 4 5
      vertex 46.8096 6.88464 5
      vertex 46.85 6.5 5
    endloop
  endfacet
  facet normal 0 0 1
    outer loop
      vertex 69 15 5
      vertex 46.6901 7.25246 5
      vertex 46.8096 6.88464 5
    endloop
  endfacet
  facet normal 0 0 1
    outer loop
      vertex 69 15 5
      vertex 46.4967 7.5874 5
      vertex 46.6901 7.25246 5
    endloop
  endfacet
  facet normal 0 0 1
    outer loop
      vertex 69 15 5
      vertex 46.2379 7.87482 5
      vertex 46.4967 7.5874 5
    endloop
  endfacet
  facet normal 0 0 1
    outer loop
      vertex 69 15 5
      vertex 45.925 8.10215 5
      vertex 46.2379 7.87482 5
    endloop
  endfacet
  facet normal 0 0 1
    outer loop
      vertex 69 15 5
      vertex 45.5717 8.25945 5
      vertex 45.925 8.10215 5
    endloop
  endfacet
  facet normal 0 0 1
    outer loop
      vertex 69 15 5
      vertex 45.1934 8.33986 5
      vertex 45.5717 8.25945 5
    endloop
  endfacet
  facet normal 0 0 1
    outer loop
      vertex 69 15 5
      vertex 44.8066 8.33986 5
      vertex 45.1934 8.33986 5
    endloop
  endfacet
  facet normal 0 0 1
    outer loop
      vertex 69 15 5
      vertex 44.4283 8.25945 5
      vertex 44.8066 8.33986 5
    endloop
  endfacet
  facet normal 0 0 1
    outer loop
      vertex 43.1904 6.88464 5
      vertex -38.15 6.5 5
      vertex 43.15 6.5 5
    endloop
  endfacet
  facet normal 0 0 1
    outer loop
      vertex -38.1904 6.88464 5
      vertex 43.1904 6.88464 5
      vertex 43.3099 7.25246 5
    endloop
  endfacet
  facet normal 0 0 1
    outer loop
      vertex -38.3099 7.25246 5
      vertex 43.3099 7.25246 5
      vertex 43.5033 7.5874 5
    endloop
  endfacet
  facet normal 0 0 1
    outer loop
      vertex -38.5033 7.5874 5
      vertex 43.5033 7.5874 5
      vertex 43.7621 7.87482 5
    endloop
  endfacet
  facet normal 0 0 1
    outer loop
      vertex -38.7621 7.87482 5
      vertex 43.7621 7.87482 5
      vertex 44.075 8.10215 5
    endloop
  endfacet
  facet normal 0 0 1
    outer loop
      vertex -39.075 8.10215 5
      vertex 44.075 8.10215 5
      vertex 44.4283 8.25945 5
    endloop
  endfacet
  facet normal 0 0 1
    outer loop
      vertex -39.4283 8.25945 5
      vertex 44.4283 8.25945 5
      vertex 69 15 5
    endloop
  endfacet
  facet normal 0 0 1
    outer loop
      vertex 43.1904 6.88464 5
      vertex -38.1904 6.88464 5
      vertex -38.15 6.5 5
    endloop
  endfacet
  facet normal 0 0 1
    outer loop
      vertex 43.3099 7.25246 5
      vertex -38.3099 7.25246 5
      vertex -38.1904 6.88464 5
    endloop
  endfacet
  facet normal 0 0 1
    outer loop
      vertex 43.5033 7.5874 5
      vertex -38.5033 7.5874 5
      vertex -38.3099 7.25246 5
    endloop
  endfacet
  facet normal 0 0 1
    outer loop
      vertex 43.7621 7.87482 5
      vertex -38.7621 7.87482 5
      vertex -38.5033 7.5874 5
    endloop
  endfacet
  facet normal 0 0 1
    outer loop
      vertex 44.075 8.10215 5
      vertex -39.075 8.10215 5
      vertex -38.7621 7.87482 5
    endloop
  endfacet
  facet normal 0 0 1
    outer loop
      vertex 44.4283 8.25945 5
      vertex -39.4283 8.25945 5
      vertex -39.075 8.10215 5
    endloop
  endfacet
  facet normal 0 0 1
    outer loop
      vertex 69 15 5
      vertex -39.8066 8.33986 5
      vertex -39.4283 8.25945 5
    endloop
  endfacet
  facet normal -0 0 1
    outer loop
      vertex -66 15 5
      vertex -39.8066 8.33986 5
      vertex 69 15 5
    endloop
  endfacet
  facet normal 0 0 1
    outer loop
      vertex -66 4 5
      vertex -41.8096 6.88464 5
      vertex -66 15 5
    endloop
  endfacet
  facet normal 0 0 1
    outer loop
      vertex -41.6901 7.25246 5
      vertex -66 15 5
      vertex -41.8096 6.88464 5
    endloop
  endfacet
  facet normal 0 0 1
    outer loop
      vertex -41.4967 7.5874 5
      vertex -66 15 5
      vertex -41.6901 7.25246 5
    endloop
  endfacet
  facet normal 0 0 1
    outer loop
      vertex -41.2379 7.87482 5
      vertex -66 15 5
      vertex -41.4967 7.5874 5
    endloop
  endfacet
  facet normal 0 0 1
    outer loop
      vertex -40.925 8.10215 5
      vertex -66 15 5
      vertex -41.2379 7.87482 5
    endloop
  endfacet
  facet normal 0 0 1
    outer loop
      vertex -40.5717 8.25945 5
      vertex -66 15 5
      vertex -40.925 8.10215 5
    endloop
  endfacet
  facet normal 0 0 1
    outer loop
      vertex -40.1934 8.33986 5
      vertex -66 15 5
      vertex -40.5717 8.25945 5
    endloop
  endfacet
  facet normal 0 0 1
    outer loop
      vertex -39.8066 8.33986 5
      vertex -66 15 5
      vertex -40.1934 8.33986 5
    endloop
  endfacet
  facet normal -0 0 1
    outer loop
      vertex 46.8096 6.11536 5
      vertex 69 4 5
      vertex 46.85 6.5 5
    endloop
  endfacet
  facet normal -0 0 1
    outer loop
      vertex 46.6901 5.74754 5
      vertex 69 4 5
      vertex 46.8096 6.11536 5
    endloop
  endfacet
  facet normal -0 0 1
    outer loop
      vertex 46.4967 5.4126 5
      vertex 69 4 5
      vertex 46.6901 5.74754 5
    endloop
  endfacet
  facet normal -0 0 1
    outer loop
      vertex 46.2379 5.12518 5
      vertex 69 4 5
      vertex 46.4967 5.4126 5
    endloop
  endfacet
  facet normal -0 0 1
    outer loop
      vertex 45.925 4.89785 5
      vertex 69 4 5
      vertex 46.2379 5.12518 5
    endloop
  endfacet
  facet normal -0 0 1
    outer loop
      vertex 45.5717 4.74055 5
      vertex 69 4 5
      vertex 45.925 4.89785 5
    endloop
  endfacet
  facet normal -0 0 1
    outer loop
      vertex 45.1934 4.66013 5
      vertex 69 4 5
      vertex 45.5717 4.74055 5
    endloop
  endfacet
  facet normal -0 0 1
    outer loop
      vertex 44.8066 4.66013 5
      vertex 69 4 5
      vertex 45.1934 4.66013 5
    endloop
  endfacet
  facet normal -0 0 1
    outer loop
      vertex -38.15 6.5 5
      vertex 43.1904 6.11536 5
      vertex 43.15 6.5 5
    endloop
  endfacet
  facet normal 0 0 1
    outer loop
      vertex -38.1904 6.11536 5
      vertex 43.1904 6.11536 5
      vertex -38.15 6.5 5
    endloop
  endfacet
  facet normal 0 0 1
    outer loop
      vertex 43.1904 6.11536 5
      vertex -38.1904 6.11536 5
      vertex 43.3099 5.74754 5
    endloop
  endfacet
  facet normal 0 0 1
    outer loop
      vertex -38.3099 5.74754 5
      vertex 43.3099 5.74754 5
      vertex -38.1904 6.11536 5
    endloop
  endfacet
  facet normal 0 0 1
    outer loop
      vertex 43.3099 5.74754 5
      vertex -38.3099 5.74754 5
      vertex 43.5033 5.4126 5
    endloop
  endfacet
  facet normal 0 0 1
    outer loop
      vertex -38.5033 5.4126 5
      vertex 43.5033 5.4126 5
      vertex -38.3099 5.74754 5
    endloop
  endfacet
  facet normal 0 0 1
    outer loop
      vertex 43.5033 5.4126 5
      vertex -38.5033 5.4126 5
      vertex 43.7621 5.12518 5
    endloop
  endfacet
  facet normal 0 0 1
    outer loop
      vertex -38.7621 5.12518 5
      vertex 43.7621 5.12518 5
      vertex -38.5033 5.4126 5
    endloop
  endfacet
  facet normal 0 0 1
    outer loop
      vertex 43.7621 5.12518 5
      vertex -38.7621 5.12518 5
      vertex 44.075 4.89785 5
    endloop
  endfacet
  facet normal 0 0 1
    outer loop
      vertex -39.075 4.89785 5
      vertex 44.075 4.89785 5
      vertex -38.7621 5.12518 5
    endloop
  endfacet
  facet normal 0 0 1
    outer loop
      vertex 44.075 4.89785 5
      vertex -39.075 4.89785 5
      vertex 44.4283 4.74055 5
    endloop
  endfacet
  facet normal 0 0 1
    outer loop
      vertex -39.4283 4.74055 5
      vertex 44.4283 4.74055 5
      vertex -39.075 4.89785 5
    endloop
  endfacet
  facet normal 0 0 1
    outer loop
      vertex 44.4283 4.74055 5
      vertex -39.4283 4.74055 5
      vertex 44.8066 4.66013 5
    endloop
  endfacet
  facet normal 0 0 1
    outer loop
      vertex -39.8066 4.66013 5
      vertex 44.8066 4.66013 5
      vertex -39.4283 4.74055 5
    endloop
  endfacet
  facet normal 0 0 1
    outer loop
      vertex 44.8066 4.66013 5
      vertex -39.8066 4.66013 5
      vertex 69 4 5
    endloop
  endfacet
  facet normal 0 0 1
    outer loop
      vertex -66 4 5
      vertex -39.8066 4.66013 5
      vertex -40.1934 4.66013 5
    endloop
  endfacet
  facet normal 0 0 1
    outer loop
      vertex -41.8096 6.88464 5
      vertex -66 4 5
      vertex -41.85 6.5 5
    endloop
  endfacet
  facet normal 0 0 1
    outer loop
      vertex -41.85 6.5 5
      vertex -66 4 5
      vertex -41.8096 6.11536 5
    endloop
  endfacet
  facet normal 0 0 1
    outer loop
      vertex -41.8096 6.11536 5
      vertex -66 4 5
      vertex -41.6901 5.74754 5
    endloop
  endfacet
  facet normal 0 0 1
    outer loop
      vertex -41.6901 5.74754 5
      vertex -66 4 5
      vertex -41.4967 5.4126 5
    endloop
  endfacet
  facet normal 0 0 1
    outer loop
      vertex -41.4967 5.4126 5
      vertex -66 4 5
      vertex -41.2379 5.12518 5
    endloop
  endfacet
  facet normal 0 0 1
    outer loop
      vertex -41.2379 5.12518 5
      vertex -66 4 5
      vertex -40.925 4.89785 5
    endloop
  endfacet
  facet normal 0 0 1
    outer loop
      vertex -39.8066 4.66013 5
      vertex -66 4 5
      vertex 69 4 5
    endloop
  endfacet
  facet normal 0 0 1
    outer loop
      vertex -40.5717 4.74055 5
      vertex -66 4 5
      vertex -40.1934 4.66013 5
    endloop
  endfacet
  facet normal 0 0 1
    outer loop
      vertex -40.925 4.89785 5
      vertex -66 4 5
      vertex -40.5717 4.74055 5
    endloop
  endfacet
  facet normal 0 -1 0
    outer loop
      vertex -66 15 5
      vertex 69 15 10
      vertex -66 15 10
    endloop
  endfacet
  facet normal 0 -1 -0
    outer loop
      vertex 69 15 10
      vertex -66 15 5
      vertex 69 15 5
    endloop
  endfacet
  facet normal 0 1 -0
    outer loop
      vertex 69 4 5
      vertex -66 4 10
      vertex 69 4 10
    endloop
  endfacet
  facet normal 0 1 0
    outer loop
      vertex -66 4 10
      vertex 69 4 5
      vertex -66 4 5
    endloop
  endfacet
endsolid OpenSCAD_Model
