  0
SECTION
  2
HEADER
  9
$ACADVER
  1
AC1014
  9
$HANDSEED
  5
FFFF
  9
$MEASUREMENT
 70
     1
  0
ENDSEC
  0
SECTION
  2
TABLES
  0
TABLE
  2
VPORT
  5
8
330
0
100
AcDbSymbolTable
 70
     4
  0
VPORT
  5
2E
330
8
100
AcDbSymbolTableRecord
100
AcDbViewportTableRecord
  2
*ACTIVE
 70
     0
 10
0.0
 20
0.0
 11
1.0
 21
1.0
 12
210.0
 22
148.5
 13
0.0
 23
0.0
 14
10.0
 24
10.0
 15
10.0
 25
10.0
 16
0.0
 26
0.0
 36
1.0
 17
0.0
 27
0.0
 37
0.0
 40
341.0
 41
1.24
 42
50.0
 43
0.0
 44
0.0
 50
0.0
 51
0.0
 71
     0
 72
   100
 73
     1
 74
     3
 75
     0
 76
     0
 77
     0
 78
     0
  0
ENDTAB
  0
TABLE
  2
LTYPE
  5
5
330
0
100
AcDbSymbolTable
 70
     1
  0
LTYPE
  5
14
330
5
100
AcDbSymbolTableRecord
100
AcDbLinetypeTableRecord
  2
BYBLOCK
 70
     0
  3

 72
    65
 73
     0
 40
0.0
  0
LTYPE
  5
15
330
5
100
AcDbSymbolTableRecord
100
AcDbLinetypeTableRecord
  2
BYLAYER
 70
     0
  3

 72
    65
 73
     0
 40
0.0
  0
LTYPE
  5
16
330
5
100
AcDbSymbolTableRecord
100
AcDbLinetypeTableRecord
  2
CONTINUOUS
 70
     0
  3
Solid line
 72
    65
 73
     0
 40
0.0
  0
ENDTAB
  0
TABLE
  2
LAYER
  5
2
100
AcDbSymbolTable
 70
2
  0
LAYER
  5
50
100
AcDbSymbolTableRecord
100
AcDbLayerTableRecord
  2
0
 70
0
  6
CONTINUOUS
  0
LAYER
  5
51
100
AcDbSymbolTableRecord
100
AcDbLayerTableRecord
  2
Layer_1
 70
0
  6
CONTINUOUS
  0
ENDTAB
  0
TABLE
  2
STYLE
  5
3
330
0
100
AcDbSymbolTable
 70
     1
  0
STYLE
  5
11
330
3
100
AcDbSymbolTableRecord
100
AcDbTextStyleTableRecord
  2
STANDARD
 70
     0
 40
0.0
 41
1.0
 50
0.0
 71
     0
 42
2.5
  3
txt
  4

  0
ENDTAB
  0
TABLE
  2
VIEW
  5
6
330
0
100
AcDbSymbolTable
 70
     0
  0
ENDTAB
  0
TABLE
  2
UCS
  5
7
330
0
100
AcDbSymbolTable
 70
     0
  0
ENDTAB
  0
TABLE
  2
APPID
  5
9
330
0
100
AcDbSymbolTable
 70
     2
  0
APPID
  5
12
330
9
100
AcDbSymbolTableRecord
100
AcDbRegAppTableRecord
  2
ACAD
 70
     0
  0
ENDTAB
  0
TABLE
  2
DIMSTYLE
  5
A
330
0
100
AcDbSymbolTable
 70
     1
  0
DIMSTYLE
105
27
330
A
100
AcDbSymbolTableRecord
100
AcDbDimStyleTableRecord
  2
ISO-25
 70
     0
  3

  4

  5

  6

  7

 40
1.0
 41
2.5
 42
0.625
 43
3.75
 44
1.25
 45
0.0
 46
0.0
 47
0.0
 48
0.0
140
2.5
141
2.5
142
0.0
143
0.03937007874016
144
1.0
145
0.0
146
1.0
147
0.625
 71
     0
 72
     0
 73
     0
 74
     0
 75
     0
 76
     0
 77
     1
 78
     8
170
     0
171
     3
172
     1
173
     0
174
     0
175
     0
176
     0
177
     0
178
     0
270
     2
271
     2
272
     2
273
     2
274
     3
340
11
275
     0
280
     0
281
     0
282
     0
283
     0
284
     8
285
     0
286
     0
287
     3
288
     0
  0
ENDTAB
  0
TABLE
  2
BLOCK_RECORD
  5
1
330
0
100
AcDbSymbolTable
 70
     1
  0
BLOCK_RECORD
  5
1F
330
1
100
AcDbSymbolTableRecord
100
AcDbBlockTableRecord
  2
*MODEL_SPACE
  0
BLOCK_RECORD
  5
1B
330
1
100
AcDbSymbolTableRecord
100
AcDbBlockTableRecord
  2
*PAPER_SPACE
  0
ENDTAB
  0
ENDSEC
  0
SECTION
  2
BLOCKS
  0
BLOCK
  5
20
330
1F
100
AcDbEntity
  8
0
100
AcDbBlockBegin
  2
*MODEL_SPACE
 70
     0
 10
0.0
 20
0.0
 30
0.0
  3
*MODEL_SPACE
  1

  0
ENDBLK
  5
21
330
1F
100
AcDbEntity
  8
0
100
AcDbBlockEnd
  0
BLOCK
  5
1C
330
1B
100
AcDbEntity
 67
     1
  8
0
100
AcDbBlockBegin
  2
*PAPER_SPACE
  1

  0
ENDBLK
  5
1D
330
1B
100
AcDbEntity
 67
     1
  8
0
100
AcDbBlockEnd
  0
ENDSEC
  0
SECTION
  2
ENTITIES
  0
LWPOLYLINE
  5
100
100
AcDbEntity
  8
Layer_1
 62
5
100
AcDbPolyline
 90
4
 70
0
 10
0.132292
 20
60.144619
 30
0.0
 10
0.132292
 20
0.132288
 30
0.0
 10
598.935493
 20
0.132288
 30
0.0
 10
598.935493
 20
60.144619
 30
0.0
  0
LWPOLYLINE
  5
101
100
AcDbEntity
  8
Layer_1
 62
5
100
AcDbPolyline
 90
30
 70
1
 10
269.315036
 20
13.570766
 30
0.0
 10
269.693734
 20
13.491074
 30
0.0
 10
270.046450
 20
13.335049
 30
0.0
 10
270.359135
 20
13.109518
 30
0.0
 10
270.617738
 20
12.824694
 30
0.0
 10
270.810752
 20
12.492642
 30
0.0
 10
270.930449
 20
12.128073
 30
0.0
 10
270.970454
 20
11.746649
 30
0.0
 10
270.930449
 20
11.365173
 30
0.0
 10
270.810752
 20
11.000657
 30
0.0
 10
270.617738
 20
10.668578
 30
0.0
 10
270.359135
 20
10.383754
 30
0.0
 10
270.046450
 20
10.158594
 30
0.0
 10
269.693734
 20
10.002595
 30
0.0
 10
269.315036
 20
9.922876
 30
0.0
 10
268.929353
 20
9.922876
 30
0.0
 10
268.550655
 20
10.002595
 30
0.0
 10
268.197939
 20
10.158594
 30
0.0
 10
267.885254
 20
10.383754
 30
0.0
 10
267.626544
 20
10.668578
 30
0.0
 10
267.433637
 20
11.000657
 30
0.0
 10
267.313939
 20
11.365173
 30
0.0
 10
267.273934
 20
11.746649
 30
0.0
 10
267.313939
 20
12.128073
 30
0.0
 10
267.433637
 20
12.492642
 30
0.0
 10
267.626544
 20
12.824694
 30
0.0
 10
267.885254
 20
13.109518
 30
0.0
 10
268.197939
 20
13.335049
 30
0.0
 10
268.550655
 20
13.491074
 30
0.0
 10
268.929353
 20
13.570766
 30
0.0
  0
LWPOLYLINE
  5
102
100
AcDbEntity
  8
Layer_1
 62
5
100
AcDbPolyline
 90
30
 70
1
 10
319.273740
 20
13.570766
 30
0.0
 10
319.652438
 20
13.491074
 30
0.0
 10
320.005234
 20
13.335049
 30
0.0
 10
320.317839
 20
13.109518
 30
0.0
 10
320.576549
 20
12.824694
 30
0.0
 10
320.769536
 20
12.492642
 30
0.0
 10
320.889630
 20
12.128073
 30
0.0
 10
320.929635
 20
11.746649
 30
0.0
 10
320.889630
 20
11.365173
 30
0.0
 10
320.769536
 20
11.000657
 30
0.0
 10
320.576549
 20
10.668578
 30
0.0
 10
320.317839
 20
10.383754
 30
0.0
 10
320.005234
 20
10.158594
 30
0.0
 10
319.652438
 20
10.002595
 30
0.0
 10
319.273740
 20
9.922876
 30
0.0
 10
318.888031
 20
9.922876
 30
0.0
 10
318.509438
 20
10.002595
 30
0.0
 10
318.156749
 20
10.158594
 30
0.0
 10
317.844038
 20
10.383754
 30
0.0
 10
317.585355
 20
10.668578
 30
0.0
 10
317.392341
 20
11.000657
 30
0.0
 10
317.272644
 20
11.365173
 30
0.0
 10
317.232639
 20
11.746649
 30
0.0
 10
317.272644
 20
12.128073
 30
0.0
 10
317.392341
 20
12.492642
 30
0.0
 10
317.585355
 20
12.824694
 30
0.0
 10
317.844038
 20
13.109518
 30
0.0
 10
318.156749
 20
13.335049
 30
0.0
 10
318.509438
 20
13.491074
 30
0.0
 10
318.888031
 20
13.570766
 30
0.0
  0
LWPOLYLINE
  5
103
100
AcDbEntity
  8
Layer_1
 62
5
100
AcDbPolyline
 90
30
 70
1
 10
369.232550
 20
13.570766
 30
0.0
 10
369.611249
 20
13.491074
 30
0.0
 10
369.963938
 20
13.335049
 30
0.0
 10
370.276649
 20
13.109518
 30
0.0
 10
370.535332
 20
12.824694
 30
0.0
 10
370.728346
 20
12.492642
 30
0.0
 10
370.848440
 20
12.128073
 30
0.0
 10
370.888445
 20
11.746649
 30
0.0
 10
370.848440
 20
11.365173
 30
0.0
 10
370.728346
 20
11.000657
 30
0.0
 10
370.535332
 20
10.668578
 30
0.0
 10
370.276649
 20
10.383754
 30
0.0
 10
369.963938
 20
10.158594
 30
0.0
 10
369.611249
 20
10.002595
 30
0.0
 10
369.232550
 20
9.922876
 30
0.0
 10
368.846841
 20
9.922876
 30
0.0
 10
368.468143
 20
10.002595
 30
0.0
 10
368.115453
 20
10.158594
 30
0.0
 10
367.802742
 20
10.383754
 30
0.0
 10
367.544033
 20
10.668578
 30
0.0
 10
367.351045
 20
11.000657
 30
0.0
 10
367.231030
 20
11.365173
 30
0.0
 10
367.191052
 20
11.746649
 30
0.0
 10
367.231030
 20
12.128073
 30
0.0
 10
367.351045
 20
12.492642
 30
0.0
 10
367.544033
 20
12.824694
 30
0.0
 10
367.802742
 20
13.109518
 30
0.0
 10
368.115453
 20
13.335049
 30
0.0
 10
368.468143
 20
13.491074
 30
0.0
 10
368.846841
 20
13.570766
 30
0.0
  0
LWPOLYLINE
  5
104
100
AcDbEntity
  8
Layer_1
 62
5
100
AcDbPolyline
 90
30
 70
1
 10
489.359152
 20
18.280297
 30
0.0
 10
489.788147
 20
18.189598
 30
0.0
 10
490.188938
 20
18.012803
 30
0.0
 10
490.543850
 20
17.756686
 30
0.0
 10
490.837352
 20
17.433313
 30
0.0
 10
491.056745
 20
17.056281
 30
0.0
 10
491.192344
 20
16.642103
 30
0.0
 10
491.238328
 20
16.209112
 30
0.0
 10
491.192344
 20
15.776121
 30
0.0
 10
491.056745
 20
15.362022
 30
0.0
 10
490.837352
 20
14.985017
 30
0.0
 10
490.543850
 20
14.661643
 30
0.0
 10
490.188938
 20
14.405527
 30
0.0
 10
489.788147
 20
14.228706
 30
0.0
 10
489.359152
 20
14.138006
 30
0.0
 10
488.920552
 20
14.138006
 30
0.0
 10
488.491451
 20
14.228706
 30
0.0
 10
488.090633
 20
14.405527
 30
0.0
 10
487.735748
 20
14.661643
 30
0.0
 10
487.442245
 20
14.985017
 30
0.0
 10
487.222853
 20
15.362022
 30
0.0
 10
487.087254
 20
15.776121
 30
0.0
 10
487.041243
 20
16.209112
 30
0.0
 10
487.087254
 20
16.642103
 30
0.0
 10
487.222853
 20
17.056281
 30
0.0
 10
487.442245
 20
17.433313
 30
0.0
 10
487.735748
 20
17.756686
 30
0.0
 10
488.090633
 20
18.012803
 30
0.0
 10
488.491451
 20
18.189598
 30
0.0
 10
488.920552
 20
18.280297
 30
0.0
  0
LWPOLYLINE
  5
105
100
AcDbEntity
  8
Layer_1
 62
5
100
AcDbPolyline
 90
30
 70
1
 10
540.116951
 20
18.280297
 30
0.0
 10
540.545946
 20
18.189598
 30
0.0
 10
540.946737
 20
18.012803
 30
0.0
 10
541.301755
 20
17.756686
 30
0.0
 10
541.595151
 20
17.433313
 30
0.0
 10
541.814544
 20
17.056281
 30
0.0
 10
541.950143
 20
16.642103
 30
0.0
 10
541.996154
 20
16.209112
 30
0.0
 10
541.950143
 20
15.776121
 30
0.0
 10
541.814544
 20
15.362022
 30
0.0
 10
541.595151
 20
14.985017
 30
0.0
 10
541.301755
 20
14.661643
 30
0.0
 10
540.946737
 20
14.405527
 30
0.0
 10
540.545946
 20
14.228706
 30
0.0
 10
540.116951
 20
14.138006
 30
0.0
 10
539.678245
 20
14.138006
 30
0.0
 10
539.249250
 20
14.228706
 30
0.0
 10
538.848432
 20
14.405527
 30
0.0
 10
538.493441
 20
14.661643
 30
0.0
 10
538.200044
 20
14.985017
 30
0.0
 10
537.980652
 20
15.362022
 30
0.0
 10
537.845053
 20
15.776121
 30
0.0
 10
537.799042
 20
16.209112
 30
0.0
 10
537.845053
 20
16.642103
 30
0.0
 10
537.980652
 20
17.056281
 30
0.0
 10
538.200044
 20
17.433313
 30
0.0
 10
538.493441
 20
17.756686
 30
0.0
 10
538.848432
 20
18.012803
 30
0.0
 10
539.249250
 20
18.189598
 30
0.0
 10
539.678245
 20
18.280297
 30
0.0
  0
LWPOLYLINE
  5
106
100
AcDbEntity
  8
Layer_1
 62
5
100
AcDbPolyline
 90
4
 70
1
 10
366.042152
 20
40.507469
 30
0.0
 10
366.042152
 20
17.696652
 30
0.0
 10
270.121354
 20
17.696652
 30
0.0
 10
270.121354
 20
40.507469
 30
0.0
  0
LWPOLYLINE
  5
107
100
AcDbEntity
  8
Layer_1
 62
5
100
AcDbPolyline
 90
4
 70
1
 10
544.893447
 20
39.813208
 30
0.0
 10
544.893447
 20
18.985967
 30
0.0
 10
486.941654
 20
18.985967
 30
0.0
 10
486.941654
 20
39.813208
 30
0.0
  0
LWPOLYLINE
  5
108
100
AcDbEntity
  8
Layer_1
 62
5
100
AcDbPolyline
 90
30
 70
1
 10
487.960247
 20
45.355757
 30
0.0
 10
488.389348
 20
45.265058
 30
0.0
 10
488.790139
 20
45.088269
 30
0.0
 10
489.145051
 20
44.832139
 30
0.0
 10
489.438553
 20
44.508779
 30
0.0
 10
489.657946
 20
44.131768
 30
0.0
 10
489.793439
 20
43.717619
 30
0.0
 10
489.839450
 20
43.284588
 30
0.0
 10
489.793439
 20
42.851558
 30
0.0
 10
489.657946
 20
42.437517
 30
0.0
 10
489.438553
 20
42.060507
 30
0.0
 10
489.145051
 20
41.737146
 30
0.0
 10
488.790139
 20
41.481019
 30
0.0
 10
488.389348
 20
41.303849
 30
0.0
 10
487.960247
 20
41.213147
 30
0.0
 10
487.521647
 20
41.213147
 30
0.0
 10
487.092651
 20
41.303849
 30
0.0
 10
486.691834
 20
41.481019
 30
0.0
 10
486.336843
 20
41.737146
 30
0.0
 10
486.043446
 20
42.060507
 30
0.0
 10
485.824054
 20
42.437517
 30
0.0
 10
485.688455
 20
42.851558
 30
0.0
 10
485.642444
 20
43.284588
 30
0.0
 10
485.688455
 20
43.717619
 30
0.0
 10
485.824054
 20
44.131768
 30
0.0
 10
486.043446
 20
44.508779
 30
0.0
 10
486.336843
 20
44.832139
 30
0.0
 10
486.691834
 20
45.088269
 30
0.0
 10
487.092651
 20
45.265058
 30
0.0
 10
487.521647
 20
45.355757
 30
0.0
  0
LWPOLYLINE
  5
109
100
AcDbEntity
  8
Layer_1
 62
5
100
AcDbPolyline
 90
30
 70
1
 10
540.116951
 20
46.347508
 30
0.0
 10
540.545946
 20
46.257209
 30
0.0
 10
540.946737
 20
46.080417
 30
0.0
 10
541.301755
 20
45.824287
 30
0.0
 10
541.595151
 20
45.500918
 30
0.0
 10
541.814544
 20
45.123908
 30
0.0
 10
541.950143
 20
44.709727
 30
0.0
 10
541.996154
 20
44.276697
 30
0.0
 10
541.950143
 20
43.843698
 30
0.0
 10
541.814544
 20
43.429628
 30
0.0
 10
541.595151
 20
43.052618
 30
0.0
 10
541.301755
 20
42.729249
 30
0.0
 10
540.946737
 20
42.473127
 30
0.0
 10
540.545946
 20
42.295957
 30
0.0
 10
540.116951
 20
42.205657
 30
0.0
 10
539.678245
 20
42.205657
 30
0.0
 10
539.249250
 20
42.295957
 30
0.0
 10
538.848432
 20
42.473127
 30
0.0
 10
538.493441
 20
42.729249
 30
0.0
 10
538.200044
 20
43.052618
 30
0.0
 10
537.980652
 20
43.429628
 30
0.0
 10
537.845053
 20
43.843698
 30
0.0
 10
537.799042
 20
44.276697
 30
0.0
 10
537.845053
 20
44.709727
 30
0.0
 10
537.980652
 20
45.123908
 30
0.0
 10
538.200044
 20
45.500918
 30
0.0
 10
538.493441
 20
45.824287
 30
0.0
 10
538.848432
 20
46.080417
 30
0.0
 10
539.249250
 20
46.257209
 30
0.0
 10
539.678245
 20
46.347508
 30
0.0
  0
LWPOLYLINE
  5
10a
100
AcDbEntity
  8
Layer_1
 62
5
100
AcDbPolyline
 90
30
 70
1
 10
269.315036
 20
48.282877
 30
0.0
 10
269.693734
 20
48.203177
 30
0.0
 10
270.046450
 20
48.047157
 30
0.0
 10
270.359135
 20
47.821629
 30
0.0
 10
270.617738
 20
47.536797
 30
0.0
 10
270.810752
 20
47.204737
 30
0.0
 10
270.930449
 20
46.840197
 30
0.0
 10
270.970454
 20
46.458808
 30
0.0
 10
270.930449
 20
46.077377
 30
0.0
 10
270.810752
 20
45.712828
 30
0.0
 10
270.617738
 20
45.380779
 30
0.0
 10
270.359135
 20
45.095939
 30
0.0
 10
270.046450
 20
44.870787
 30
0.0
 10
269.693734
 20
44.714767
 30
0.0
 10
269.315036
 20
44.635067
 30
0.0
 10
268.929353
 20
44.635067
 30
0.0
 10
268.550655
 20
44.714767
 30
0.0
 10
268.197939
 20
44.870787
 30
0.0
 10
267.885254
 20
45.095939
 30
0.0
 10
267.626544
 20
45.380779
 30
0.0
 10
267.433637
 20
45.712828
 30
0.0
 10
267.313939
 20
46.077377
 30
0.0
 10
267.273934
 20
46.458808
 30
0.0
 10
267.313939
 20
46.840197
 30
0.0
 10
267.433637
 20
47.204737
 30
0.0
 10
267.626544
 20
47.536797
 30
0.0
 10
267.885254
 20
47.821629
 30
0.0
 10
268.197939
 20
48.047157
 30
0.0
 10
268.550655
 20
48.203177
 30
0.0
 10
268.929353
 20
48.282877
 30
0.0
  0
LWPOLYLINE
  5
10b
100
AcDbEntity
  8
Layer_1
 62
5
100
AcDbPolyline
 90
30
 70
1
 10
319.273740
 20
48.282877
 30
0.0
 10
319.652438
 20
48.203177
 30
0.0
 10
320.005234
 20
48.047157
 30
0.0
 10
320.317839
 20
47.821629
 30
0.0
 10
320.576549
 20
47.536797
 30
0.0
 10
320.769536
 20
47.204737
 30
0.0
 10
320.889630
 20
46.840197
 30
0.0
 10
320.929635
 20
46.458808
 30
0.0
 10
320.889630
 20
46.077377
 30
0.0
 10
320.769536
 20
45.712828
 30
0.0
 10
320.576549
 20
45.380779
 30
0.0
 10
320.317839
 20
45.095939
 30
0.0
 10
320.005234
 20
44.870787
 30
0.0
 10
319.652438
 20
44.714767
 30
0.0
 10
319.273740
 20
44.635067
 30
0.0
 10
318.888031
 20
44.635067
 30
0.0
 10
318.509438
 20
44.714767
 30
0.0
 10
318.156749
 20
44.870787
 30
0.0
 10
317.844038
 20
45.095939
 30
0.0
 10
317.585355
 20
45.380779
 30
0.0
 10
317.392341
 20
45.712828
 30
0.0
 10
317.272644
 20
46.077377
 30
0.0
 10
317.232639
 20
46.458808
 30
0.0
 10
317.272644
 20
46.840197
 30
0.0
 10
317.392341
 20
47.204737
 30
0.0
 10
317.585355
 20
47.536797
 30
0.0
 10
317.844038
 20
47.821629
 30
0.0
 10
318.156749
 20
48.047157
 30
0.0
 10
318.509438
 20
48.203177
 30
0.0
 10
318.888031
 20
48.282877
 30
0.0
  0
LWPOLYLINE
  5
10c
100
AcDbEntity
  8
Layer_1
 62
5
100
AcDbPolyline
 90
30
 70
1
 10
369.232550
 20
48.282877
 30
0.0
 10
369.611249
 20
48.203177
 30
0.0
 10
369.963938
 20
48.047157
 30
0.0
 10
370.276649
 20
47.821629
 30
0.0
 10
370.535332
 20
47.536797
 30
0.0
 10
370.728346
 20
47.204737
 30
0.0
 10
370.848440
 20
46.840197
 30
0.0
 10
370.888445
 20
46.458808
 30
0.0
 10
370.848440
 20
46.077377
 30
0.0
 10
370.728346
 20
45.712828
 30
0.0
 10
370.535332
 20
45.380779
 30
0.0
 10
370.276649
 20
45.095939
 30
0.0
 10
369.963938
 20
44.870787
 30
0.0
 10
369.611249
 20
44.714767
 30
0.0
 10
369.232550
 20
44.635067
 30
0.0
 10
368.846841
 20
44.635067
 30
0.0
 10
368.468143
 20
44.714767
 30
0.0
 10
368.115453
 20
44.870787
 30
0.0
 10
367.802742
 20
45.095939
 30
0.0
 10
367.544033
 20
45.380779
 30
0.0
 10
367.351045
 20
45.712828
 30
0.0
 10
367.231030
 20
46.077377
 30
0.0
 10
367.191052
 20
46.458808
 30
0.0
 10
367.231030
 20
46.840197
 30
0.0
 10
367.351045
 20
47.204737
 30
0.0
 10
367.544033
 20
47.536797
 30
0.0
 10
367.802742
 20
47.821629
 30
0.0
 10
368.115453
 20
48.047157
 30
0.0
 10
368.468143
 20
48.203177
 30
0.0
 10
368.846841
 20
48.282877
 30
0.0
  0
LWPOLYLINE
  5
10d
100
AcDbEntity
  8
Layer_1
 62
5
100
AcDbPolyline
 90
5
 70
1
 10
0.132292
 20
120.411569
 30
0.0
 10
0.132292
 20
60.409300
 30
0.0
 10
598.936339
 20
60.409300
 30
0.0
 10
598.936339
 20
120.411569
 30
0.0
 10
495.215915
 20
120.411569
 30
0.0
  0
LWPOLYLINE
  5
10e
100
AcDbEntity
  8
Layer_1
 62
5
100
AcDbPolyline
 90
30
 70
1
 10
65.056792
 20
105.082241
 30
0.0
 10
64.627752
 20
105.172940
 30
0.0
 10
64.227001
 20
105.349750
 30
0.0
 10
63.872031
 20
105.605859
 30
0.0
 10
63.578602
 20
105.929241
 30
0.0
 10
63.359191
 20
106.306251
 30
0.0
 10
63.223622
 20
106.720430
 30
0.0
 10
63.177923
 20
107.153431
 30
0.0
 10
63.223622
 20
107.586451
 30
0.0
 10
63.359191
 20
108.000489
 30
0.0
 10
63.578602
 20
108.377499
 30
0.0
 10
63.872031
 20
108.700870
 30
0.0
 10
64.227001
 20
108.956990
 30
0.0
 10
64.627752
 20
109.133790
 30
0.0
 10
65.056792
 20
109.224491
 30
0.0
 10
65.495450
 20
109.224491
 30
0.0
 10
65.924531
 20
109.133790
 30
0.0
 10
66.325242
 20
108.956990
 30
0.0
 10
66.680220
 20
108.700870
 30
0.0
 10
66.973651
 20
108.377499
 30
0.0
 10
67.193062
 20
108.000489
 30
0.0
 10
67.328632
 20
107.586451
 30
0.0
 10
67.374331
 20
107.153431
 30
0.0
 10
67.328632
 20
106.720430
 30
0.0
 10
67.193062
 20
106.306251
 30
0.0
 10
66.973651
 20
105.929241
 30
0.0
 10
66.680220
 20
105.605859
 30
0.0
 10
66.325242
 20
105.349750
 30
0.0
 10
65.924531
 20
105.172940
 30
0.0
 10
65.495450
 20
105.082241
 30
0.0
  0
LWPOLYLINE
  5
10f
100
AcDbEntity
  8
Layer_1
 62
5
100
AcDbPolyline
 90
30
 70
1
 10
111.846032
 20
104.206100
 30
0.0
 10
111.468051
 20
104.285800
 30
0.0
 10
111.114951
 20
104.441819
 30
0.0
 10
110.802272
 20
104.667340
 30
0.0
 10
110.543581
 20
104.952180
 30
0.0
 10
110.350231
 20
105.284240
 30
0.0
 10
110.230901
 20
105.649161
 30
0.0
 10
110.190502
 20
106.030579
 30
0.0
 10
110.230901
 20
106.412021
 30
0.0
 10
110.350231
 20
106.776939
 30
0.0
 10
110.543581
 20
107.108989
 30
0.0
 10
110.802272
 20
107.393829
 30
0.0
 10
111.114951
 20
107.618981
 30
0.0
 10
111.468051
 20
107.774990
 30
0.0
 10
111.846032
 20
107.854690
 30
0.0
 10
112.232501
 20
107.854690
 30
0.0
 10
112.610482
 20
107.774990
 30
0.0
 10
112.963571
 20
107.618981
 30
0.0
 10
113.276261
 20
107.393829
 30
0.0
 10
113.534941
 20
107.108989
 30
0.0
 10
113.727913
 20
106.776939
 30
0.0
 10
113.847253
 20
106.412021
 30
0.0
 10
113.887652
 20
106.030579
 30
0.0
 10
113.847253
 20
105.649161
 30
0.0
 10
113.727913
 20
105.284240
 30
0.0
 10
113.534941
 20
104.952180
 30
0.0
 10
113.276261
 20
104.667340
 30
0.0
 10
112.963571
 20
104.441819
 30
0.0
 10
112.610482
 20
104.285800
 30
0.0
 10
112.232501
 20
104.206100
 30
0.0
  0
LWPOLYLINE
  5
110
100
AcDbEntity
  8
Layer_1
 62
5
100
AcDbPolyline
 90
30
 70
1
 10
331.664442
 20
104.206100
 30
0.0
 10
331.285744
 20
104.285800
 30
0.0
 10
330.933055
 20
104.441819
 30
0.0
 10
330.620344
 20
104.667340
 30
0.0
 10
330.361740
 20
104.952180
 30
0.0
 10
330.168753
 20
105.284240
 30
0.0
 10
330.049029
 20
105.649161
 30
0.0
 10
330.009050
 20
106.030579
 30
0.0
 10
330.049029
 20
106.412021
 30
0.0
 10
330.168753
 20
106.776939
 30
0.0
 10
330.361740
 20
107.108989
 30
0.0
 10
330.620344
 20
107.393829
 30
0.0
 10
330.933055
 20
107.618981
 30
0.0
 10
331.285744
 20
107.774990
 30
0.0
 10
331.664442
 20
107.854690
 30
0.0
 10
332.050152
 20
107.854690
 30
0.0
 10
332.428850
 20
107.774990
 30
0.0
 10
332.781540
 20
107.618981
 30
0.0
 10
333.094251
 20
107.393829
 30
0.0
 10
333.352934
 20
107.108989
 30
0.0
 10
333.545947
 20
106.776939
 30
0.0
 10
333.665645
 20
106.412021
 30
0.0
 10
333.705650
 20
106.030579
 30
0.0
 10
333.665645
 20
105.649161
 30
0.0
 10
333.545947
 20
105.284240
 30
0.0
 10
333.352934
 20
104.952180
 30
0.0
 10
333.094251
 20
104.667340
 30
0.0
 10
332.781540
 20
104.441819
 30
0.0
 10
332.428850
 20
104.285800
 30
0.0
 10
332.050152
 20
104.206100
 30
0.0
  0
LWPOLYLINE
  5
111
100
AcDbEntity
  8
Layer_1
 62
5
100
AcDbPolyline
 90
30
 70
1
 10
231.746843
 20
104.206100
 30
0.0
 10
231.368243
 20
104.285800
 30
0.0
 10
231.015543
 20
104.441819
 30
0.0
 10
230.702842
 20
104.667340
 30
0.0
 10
230.444141
 20
104.952180
 30
0.0
 10
230.251140
 20
105.284240
 30
0.0
 10
230.131443
 20
105.649161
 30
0.0
 10
230.091443
 20
106.030579
 30
0.0
 10
230.131443
 20
106.412021
 30
0.0
 10
230.251140
 20
106.776939
 30
0.0
 10
230.444141
 20
107.108989
 30
0.0
 10
230.702842
 20
107.393829
 30
0.0
 10
231.015543
 20
107.618981
 30
0.0
 10
231.368243
 20
107.774990
 30
0.0
 10
231.746843
 20
107.854690
 30
0.0
 10
232.132542
 20
107.854690
 30
0.0
 10
232.511243
 20
107.774990
 30
0.0
 10
232.864041
 20
107.618981
 30
0.0
 10
233.176641
 20
107.393829
 30
0.0
 10
233.435342
 20
107.108989
 30
0.0
 10
233.628343
 20
106.776939
 30
0.0
 10
233.748442
 20
106.412021
 30
0.0
 10
233.788442
 20
106.030579
 30
0.0
 10
233.748442
 20
105.649161
 30
0.0
 10
233.628343
 20
105.284240
 30
0.0
 10
233.435342
 20
104.952180
 30
0.0
 10
233.176641
 20
104.667340
 30
0.0
 10
232.864041
 20
104.441819
 30
0.0
 10
232.511243
 20
104.285800
 30
0.0
 10
232.132542
 20
104.206100
 30
0.0
  0
LWPOLYLINE
  5
112
100
AcDbEntity
  8
Layer_1
 62
5
100
AcDbPolyline
 90
30
 70
1
 10
281.705632
 20
104.206100
 30
0.0
 10
281.327040
 20
104.285800
 30
0.0
 10
280.974244
 20
104.441819
 30
0.0
 10
280.661639
 20
104.667340
 30
0.0
 10
280.402930
 20
104.952180
 30
0.0
 10
280.209943
 20
105.284240
 30
0.0
 10
280.089848
 20
105.649161
 30
0.0
 10
280.049843
 20
106.030579
 30
0.0
 10
280.089848
 20
106.412021
 30
0.0
 10
280.209943
 20
106.776939
 30
0.0
 10
280.402930
 20
107.108989
 30
0.0
 10
280.661639
 20
107.393829
 30
0.0
 10
280.974244
 20
107.618981
 30
0.0
 10
281.327040
 20
107.774990
 30
0.0
 10
281.705632
 20
107.854690
 30
0.0
 10
282.091342
 20
107.854690
 30
0.0
 10
282.470040
 20
107.774990
 30
0.0
 10
282.822729
 20
107.618981
 30
0.0
 10
283.135440
 20
107.393829
 30
0.0
 10
283.394150
 20
107.108989
 30
0.0
 10
283.587137
 20
106.776939
 30
0.0
 10
283.707231
 20
106.412021
 30
0.0
 10
283.747236
 20
106.030579
 30
0.0
 10
283.707231
 20
105.649161
 30
0.0
 10
283.587137
 20
105.284240
 30
0.0
 10
283.394150
 20
104.952180
 30
0.0
 10
283.135440
 20
104.667340
 30
0.0
 10
282.822729
 20
104.441819
 30
0.0
 10
282.470040
 20
104.285800
 30
0.0
 10
282.091342
 20
104.206100
 30
0.0
  0
LWPOLYLINE
  5
113
100
AcDbEntity
  8
Layer_1
 62
5
100
AcDbPolyline
 90
30
 70
1
 10
156.436862
 20
102.471880
 30
0.0
 10
156.007832
 20
102.562579
 30
0.0
 10
155.607041
 20
102.739371
 30
0.0
 10
155.252063
 20
102.995501
 30
0.0
 10
154.958632
 20
103.318859
 30
0.0
 10
154.739232
 20
103.695869
 30
0.0
 10
154.603651
 20
104.110019
 30
0.0
 10
154.557952
 20
104.543009
 30
0.0
 10
154.603651
 20
104.976050
 30
0.0
 10
154.739232
 20
105.390121
 30
0.0
 10
154.958632
 20
105.767131
 30
0.0
 10
155.252063
 20
106.090491
 30
0.0
 10
155.607041
 20
106.346621
 30
0.0
 10
156.007832
 20
106.523791
 30
0.0
 10
156.436862
 20
106.614491
 30
0.0
 10
156.875491
 20
106.614491
 30
0.0
 10
157.304523
 20
106.523791
 30
0.0
 10
157.705311
 20
106.346621
 30
0.0
 10
158.060303
 20
106.090491
 30
0.0
 10
158.353720
 20
105.767131
 30
0.0
 10
158.573131
 20
105.390121
 30
0.0
 10
158.708701
 20
104.976050
 30
0.0
 10
158.754403
 20
104.543009
 30
0.0
 10
158.708701
 20
104.110019
 30
0.0
 10
158.573131
 20
103.695869
 30
0.0
 10
158.353720
 20
103.318859
 30
0.0
 10
158.060303
 20
102.995501
 30
0.0
 10
157.705311
 20
102.739371
 30
0.0
 10
157.304523
 20
102.562579
 30
0.0
 10
156.875491
 20
102.471880
 30
0.0
  0
LWPOLYLINE
  5
114
100
AcDbEntity
  8
Layer_1
 62
5
100
AcDbPolyline
 90
4
 70
1
 10
234.937242
 20
77.269410
 30
0.0
 10
234.937242
 20
100.080211
 30
0.0
 10
330.858151
 20
100.080211
 30
0.0
 10
330.858151
 20
77.269410
 30
0.0
  0
LWPOLYLINE
  5
115
100
AcDbEntity
  8
Layer_1
 62
5
100
AcDbPolyline
 90
4
 70
1
 10
65.078282
 20
75.285911
 30
0.0
 10
65.078282
 20
99.088449
 30
0.0
 10
160.998551
 20
99.088449
 30
0.0
 10
160.998551
 20
75.285911
 30
0.0
  0
LWPOLYLINE
  5
116
100
AcDbEntity
  8
Layer_1
 62
5
100
AcDbPolyline
 90
30
 70
1
 10
67.611673
 20
69.902061
 30
0.0
 10
67.182632
 20
69.992760
 30
0.0
 10
66.781881
 20
70.169549
 30
0.0
 10
66.426911
 20
70.425679
 30
0.0
 10
66.133472
 20
70.749040
 30
0.0
 10
65.914072
 20
71.126060
 30
0.0
 10
65.778502
 20
71.540239
 30
0.0
 10
65.732803
 20
71.973230
 30
0.0
 10
65.778502
 20
72.406271
 30
0.0
 10
65.914072
 20
72.820341
 30
0.0
 10
66.133472
 20
73.197351
 30
0.0
 10
66.426911
 20
73.520709
 30
0.0
 10
66.781881
 20
73.776841
 30
0.0
 10
67.182632
 20
73.953631
 30
0.0
 10
67.611673
 20
74.044330
 30
0.0
 10
68.050331
 20
74.044330
 30
0.0
 10
68.479411
 20
73.953631
 30
0.0
 10
68.880122
 20
73.776841
 30
0.0
 10
69.235103
 20
73.520709
 30
0.0
 10
69.528521
 20
73.197351
 30
0.0
 10
69.747942
 20
72.820341
 30
0.0
 10
69.883502
 20
72.406271
 30
0.0
 10
69.929603
 20
71.973230
 30
0.0
 10
69.883502
 20
71.540239
 30
0.0
 10
69.747942
 20
71.126060
 30
0.0
 10
69.528521
 20
70.749040
 30
0.0
 10
69.235103
 20
70.425679
 30
0.0
 10
68.880122
 20
70.169549
 30
0.0
 10
68.479411
 20
69.992760
 30
0.0
 10
68.050331
 20
69.902061
 30
0.0
  0
LWPOLYLINE
  5
117
100
AcDbEntity
  8
Layer_1
 62
5
100
AcDbPolyline
 90
30
 70
1
 10
331.664442
 20
69.494039
 30
0.0
 10
331.285744
 20
69.573739
 30
0.0
 10
330.933055
 20
69.729751
 30
0.0
 10
330.620344
 20
69.955290
 30
0.0
 10
330.361740
 20
70.240119
 30
0.0
 10
330.168753
 20
70.572171
 30
0.0
 10
330.049029
 20
70.936719
 30
0.0
 10
330.009050
 20
71.318190
 30
0.0
 10
330.049029
 20
71.699621
 30
0.0
 10
330.168753
 20
72.064540
 30
0.0
 10
330.361740
 20
72.396600
 30
0.0
 10
330.620344
 20
72.681429
 30
0.0
 10
330.933055
 20
72.906579
 30
0.0
 10
331.285744
 20
73.062601
 30
0.0
 10
331.664442
 20
73.142299
 30
0.0
 10
332.050152
 20
73.142299
 30
0.0
 10
332.428850
 20
73.062601
 30
0.0
 10
332.781540
 20
72.906579
 30
0.0
 10
333.094251
 20
72.681429
 30
0.0
 10
333.352934
 20
72.396600
 30
0.0
 10
333.545947
 20
72.064540
 30
0.0
 10
333.665645
 20
71.699621
 30
0.0
 10
333.705650
 20
71.318190
 30
0.0
 10
333.665645
 20
70.936719
 30
0.0
 10
333.545947
 20
70.572171
 30
0.0
 10
333.352934
 20
70.240119
 30
0.0
 10
333.094251
 20
69.955290
 30
0.0
 10
332.781540
 20
69.729751
 30
0.0
 10
332.428850
 20
69.573739
 30
0.0
 10
332.050152
 20
69.494039
 30
0.0
  0
LWPOLYLINE
  5
118
100
AcDbEntity
  8
Layer_1
 62
5
100
AcDbPolyline
 90
30
 70
1
 10
281.705632
 20
69.494039
 30
0.0
 10
281.327040
 20
69.573739
 30
0.0
 10
280.974244
 20
69.729751
 30
0.0
 10
280.661639
 20
69.955290
 30
0.0
 10
280.402930
 20
70.240119
 30
0.0
 10
280.209943
 20
70.572171
 30
0.0
 10
280.089848
 20
70.936719
 30
0.0
 10
280.049843
 20
71.318190
 30
0.0
 10
280.089848
 20
71.699621
 30
0.0
 10
280.209943
 20
72.064540
 30
0.0
 10
280.402930
 20
72.396600
 30
0.0
 10
280.661639
 20
72.681429
 30
0.0
 10
280.974244
 20
72.906579
 30
0.0
 10
281.327040
 20
73.062601
 30
0.0
 10
281.705632
 20
73.142299
 30
0.0
 10
282.091342
 20
73.142299
 30
0.0
 10
282.470040
 20
73.062601
 30
0.0
 10
282.822729
 20
72.906579
 30
0.0
 10
283.135440
 20
72.681429
 30
0.0
 10
283.394150
 20
72.396600
 30
0.0
 10
283.587137
 20
72.064540
 30
0.0
 10
283.707231
 20
71.699621
 30
0.0
 10
283.747236
 20
71.318190
 30
0.0
 10
283.707231
 20
70.936719
 30
0.0
 10
283.587137
 20
70.572171
 30
0.0
 10
283.394150
 20
70.240119
 30
0.0
 10
283.135440
 20
69.955290
 30
0.0
 10
282.822729
 20
69.729751
 30
0.0
 10
282.470040
 20
69.573739
 30
0.0
 10
282.091342
 20
69.494039
 30
0.0
  0
LWPOLYLINE
  5
119
100
AcDbEntity
  8
Layer_1
 62
5
100
AcDbPolyline
 90
30
 70
1
 10
163.802822
 20
69.494039
 30
0.0
 10
163.424841
 20
69.573739
 30
0.0
 10
163.071752
 20
69.729751
 30
0.0
 10
162.759062
 20
69.955290
 30
0.0
 10
162.500392
 20
70.240119
 30
0.0
 10
162.307042
 20
70.572171
 30
0.0
 10
162.187702
 20
70.936719
 30
0.0
 10
162.147303
 20
71.318190
 30
0.0
 10
162.187702
 20
71.699621
 30
0.0
 10
162.307042
 20
72.064540
 30
0.0
 10
162.500392
 20
72.396600
 30
0.0
 10
162.759062
 20
72.681429
 30
0.0
 10
163.071752
 20
72.906579
 30
0.0
 10
163.424841
 20
73.062601
 30
0.0
 10
163.802822
 20
73.142299
 30
0.0
 10
164.189302
 20
73.142299
 30
0.0
 10
164.567272
 20
73.062601
 30
0.0
 10
164.920372
 20
72.906579
 30
0.0
 10
165.233051
 20
72.681429
 30
0.0
 10
165.491742
 20
72.396600
 30
0.0
 10
165.684711
 20
72.064540
 30
0.0
 10
165.804043
 20
71.699621
 30
0.0
 10
165.844442
 20
71.318190
 30
0.0
 10
165.804043
 20
70.936719
 30
0.0
 10
165.684711
 20
70.572171
 30
0.0
 10
165.491742
 20
70.240119
 30
0.0
 10
165.233051
 20
69.955290
 30
0.0
 10
164.920372
 20
69.729751
 30
0.0
 10
164.567272
 20
69.573739
 30
0.0
 10
164.189302
 20
69.494039
 30
0.0
  0
LWPOLYLINE
  5
11a
100
AcDbEntity
  8
Layer_1
 62
5
100
AcDbPolyline
 90
30
 70
1
 10
111.846032
 20
69.494039
 30
0.0
 10
111.468051
 20
69.573739
 30
0.0
 10
111.114951
 20
69.729751
 30
0.0
 10
110.802272
 20
69.955290
 30
0.0
 10
110.543581
 20
70.240119
 30
0.0
 10
110.350231
 20
70.572171
 30
0.0
 10
110.230901
 20
70.936719
 30
0.0
 10
110.190502
 20
71.318190
 30
0.0
 10
110.230901
 20
71.699621
 30
0.0
 10
110.350231
 20
72.064540
 30
0.0
 10
110.543581
 20
72.396600
 30
0.0
 10
110.802272
 20
72.681429
 30
0.0
 10
111.114951
 20
72.906579
 30
0.0
 10
111.468051
 20
73.062601
 30
0.0
 10
111.846032
 20
73.142299
 30
0.0
 10
112.232501
 20
73.142299
 30
0.0
 10
112.610482
 20
73.062601
 30
0.0
 10
112.963571
 20
72.906579
 30
0.0
 10
113.276261
 20
72.681429
 30
0.0
 10
113.534941
 20
72.396600
 30
0.0
 10
113.727913
 20
72.064540
 30
0.0
 10
113.847253
 20
71.699621
 30
0.0
 10
113.887652
 20
71.318190
 30
0.0
 10
113.847253
 20
70.936719
 30
0.0
 10
113.727913
 20
70.572171
 30
0.0
 10
113.534941
 20
70.240119
 30
0.0
 10
113.276261
 20
69.955290
 30
0.0
 10
112.963571
 20
69.729751
 30
0.0
 10
112.610482
 20
69.573739
 30
0.0
 10
112.232501
 20
69.494039
 30
0.0
  0
LWPOLYLINE
  5
11b
100
AcDbEntity
  8
Layer_1
 62
5
100
AcDbPolyline
 90
30
 70
1
 10
231.746843
 20
69.494039
 30
0.0
 10
231.368243
 20
69.573739
 30
0.0
 10
231.015543
 20
69.729751
 30
0.0
 10
230.702842
 20
69.955290
 30
0.0
 10
230.444141
 20
70.240119
 30
0.0
 10
230.251140
 20
70.572171
 30
0.0
 10
230.131443
 20
70.936719
 30
0.0
 10
230.091443
 20
71.318190
 30
0.0
 10
230.131443
 20
71.699621
 30
0.0
 10
230.251140
 20
72.064540
 30
0.0
 10
230.444141
 20
72.396600
 30
0.0
 10
230.702842
 20
72.681429
 30
0.0
 10
231.015543
 20
72.906579
 30
0.0
 10
231.368243
 20
73.062601
 30
0.0
 10
231.746843
 20
73.142299
 30
0.0
 10
232.132542
 20
73.142299
 30
0.0
 10
232.511243
 20
73.062601
 30
0.0
 10
232.864041
 20
72.906579
 30
0.0
 10
233.176641
 20
72.681429
 30
0.0
 10
233.435342
 20
72.396600
 30
0.0
 10
233.628343
 20
72.064540
 30
0.0
 10
233.748442
 20
71.699621
 30
0.0
 10
233.788442
 20
71.318190
 30
0.0
 10
233.748442
 20
70.936719
 30
0.0
 10
233.628343
 20
70.572171
 30
0.0
 10
233.435342
 20
70.240119
 30
0.0
 10
233.176641
 20
69.955290
 30
0.0
 10
232.864041
 20
69.729751
 30
0.0
 10
232.511243
 20
69.573739
 30
0.0
 10
232.132542
 20
69.494039
 30
0.0
  0
LWPOLYLINE
  5
11c
100
AcDbEntity
  8
Layer_1
 62
5
100
AcDbPolyline
 90
4
 70
0
 10
495.375935
 20
120.573431
 30
0.0
 10
495.375935
 20
180.585738
 30
0.0
 10
0.132292
 20
180.585738
 30
0.0
 10
0.132292
 20
120.573431
 30
0.0
  0
LWPOLYLINE
  5
11d
100
AcDbEntity
  8
Layer_1
 62
5
100
AcDbPolyline
 90
30
 70
1
 10
151.786503
 20
164.370312
 30
0.0
 10
151.408582
 20
164.450010
 30
0.0
 10
151.055562
 20
164.606022
 30
0.0
 10
150.742930
 20
164.831550
 30
0.0
 10
150.484282
 20
165.116392
 30
0.0
 10
150.290972
 20
165.448442
 30
0.0
 10
150.171661
 20
165.812993
 30
0.0
 10
150.131261
 20
166.194421
 30
0.0
 10
150.171661
 20
166.575850
 30
0.0
 10
150.290972
 20
166.940390
 30
0.0
 10
150.484282
 20
167.272450
 30
0.0
 10
150.742930
 20
167.557290
 30
0.0
 10
151.055562
 20
167.782442
 30
0.0
 10
151.408582
 20
167.938451
 30
0.0
 10
151.786503
 20
168.018152
 30
0.0
 10
152.172911
 20
168.018152
 30
0.0
 10
152.550831
 20
167.938451
 30
0.0
 10
152.903851
 20
167.782442
 30
0.0
 10
153.216480
 20
167.557290
 30
0.0
 10
153.475132
 20
167.272450
 30
0.0
 10
153.668061
 20
166.940390
 30
0.0
 10
153.787372
 20
166.575850
 30
0.0
 10
153.827771
 20
166.194421
 30
0.0
 10
153.787372
 20
165.812993
 30
0.0
 10
153.668061
 20
165.448442
 30
0.0
 10
153.475132
 20
165.116392
 30
0.0
 10
153.216480
 20
164.831550
 30
0.0
 10
152.903851
 20
164.606022
 30
0.0
 10
152.550831
 20
164.450010
 30
0.0
 10
152.172911
 20
164.370312
 30
0.0
  0
LWPOLYLINE
  5
11e
100
AcDbEntity
  8
Layer_1
 62
5
100
AcDbPolyline
 90
30
 70
1
 10
263.674921
 20
164.370312
 30
0.0
 10
263.296321
 20
164.450010
 30
0.0
 10
262.943620
 20
164.606022
 30
0.0
 10
262.631021
 20
164.831550
 30
0.0
 10
262.372322
 20
165.116392
 30
0.0
 10
262.179422
 20
165.448442
 30
0.0
 10
262.059722
 20
165.812993
 30
0.0
 10
262.019722
 20
166.194421
 30
0.0
 10
262.059722
 20
166.575850
 30
0.0
 10
262.179422
 20
166.940390
 30
0.0
 10
262.372322
 20
167.272450
 30
0.0
 10
262.631021
 20
167.557290
 30
0.0
 10
262.943620
 20
167.782442
 30
0.0
 10
263.296321
 20
167.938451
 30
0.0
 10
263.674921
 20
168.018152
 30
0.0
 10
264.060509
 20
168.018152
 30
0.0
 10
264.439127
 20
167.938451
 30
0.0
 10
264.791825
 20
167.782442
 30
0.0
 10
265.104430
 20
167.557290
 30
0.0
 10
265.363034
 20
167.272450
 30
0.0
 10
265.556021
 20
166.940390
 30
0.0
 10
265.675719
 20
166.575850
 30
0.0
 10
265.715724
 20
166.194421
 30
0.0
 10
265.675719
 20
165.812993
 30
0.0
 10
265.556021
 20
165.448442
 30
0.0
 10
265.363034
 20
165.116392
 30
0.0
 10
265.104430
 20
164.831550
 30
0.0
 10
264.791825
 20
164.606022
 30
0.0
 10
264.439127
 20
164.450010
 30
0.0
 10
264.060509
 20
164.370312
 30
0.0
  0
LWPOLYLINE
  5
11f
100
AcDbEntity
  8
Layer_1
 62
5
100
AcDbPolyline
 90
30
 70
1
 10
51.886911
 20
164.370312
 30
0.0
 10
51.508951
 20
164.450010
 30
0.0
 10
51.155920
 20
164.606022
 30
0.0
 10
50.843302
 20
164.831550
 30
0.0
 10
50.584650
 20
165.116392
 30
0.0
 10
50.391721
 20
165.448442
 30
0.0
 10
50.272410
 20
165.812993
 30
0.0
 10
50.232011
 20
166.194421
 30
0.0
 10
50.272410
 20
166.575850
 30
0.0
 10
50.391721
 20
166.940390
 30
0.0
 10
50.584650
 20
167.272450
 30
0.0
 10
50.843302
 20
167.557290
 30
0.0
 10
51.155920
 20
167.782442
 30
0.0
 10
51.508951
 20
167.938451
 30
0.0
 10
51.886911
 20
168.018152
 30
0.0
 10
52.273322
 20
168.018152
 30
0.0
 10
52.651221
 20
167.938451
 30
0.0
 10
53.004262
 20
167.782442
 30
0.0
 10
53.316891
 20
167.557290
 30
0.0
 10
53.575522
 20
167.272450
 30
0.0
 10
53.768842
 20
166.940390
 30
0.0
 10
53.888161
 20
166.575850
 30
0.0
 10
53.928560
 20
166.194421
 30
0.0
 10
53.888161
 20
165.812993
 30
0.0
 10
53.768842
 20
165.448442
 30
0.0
 10
53.575522
 20
165.116392
 30
0.0
 10
53.316891
 20
164.831550
 30
0.0
 10
53.004262
 20
164.606022
 30
0.0
 10
52.651221
 20
164.450010
 30
0.0
 10
52.273322
 20
164.370312
 30
0.0
  0
LWPOLYLINE
  5
120
100
AcDbEntity
  8
Layer_1
 62
5
100
AcDbPolyline
 90
30
 70
1
 10
101.836680
 20
164.370312
 30
0.0
 10
101.458771
 20
164.450010
 30
0.0
 10
101.105742
 20
164.606022
 30
0.0
 10
100.793111
 20
164.831550
 30
0.0
 10
100.534470
 20
165.116392
 30
0.0
 10
100.341152
 20
165.448442
 30
0.0
 10
100.221841
 20
165.812993
 30
0.0
 10
100.181442
 20
166.194421
 30
0.0
 10
100.221841
 20
166.575850
 30
0.0
 10
100.341152
 20
166.940390
 30
0.0
 10
100.534470
 20
167.272450
 30
0.0
 10
100.793111
 20
167.557290
 30
0.0
 10
101.105742
 20
167.782442
 30
0.0
 10
101.458771
 20
167.938451
 30
0.0
 10
101.836680
 20
168.018152
 30
0.0
 10
102.223102
 20
168.018152
 30
0.0
 10
102.601011
 20
167.938451
 30
0.0
 10
102.954042
 20
167.782442
 30
0.0
 10
103.266671
 20
167.557290
 30
0.0
 10
103.525312
 20
167.272450
 30
0.0
 10
103.718633
 20
166.940390
 30
0.0
 10
103.837941
 20
166.575850
 30
0.0
 10
103.878340
 20
166.194421
 30
0.0
 10
103.837941
 20
165.812993
 30
0.0
 10
103.718633
 20
165.448442
 30
0.0
 10
103.525312
 20
165.116392
 30
0.0
 10
103.266671
 20
164.831550
 30
0.0
 10
102.954042
 20
164.606022
 30
0.0
 10
102.601011
 20
164.450010
 30
0.0
 10
102.223102
 20
164.370312
 30
0.0
  0
LWPOLYLINE
  5
121
100
AcDbEntity
  8
Layer_1
 62
5
100
AcDbPolyline
 90
30
 70
1
 10
213.724821
 20
164.370312
 30
0.0
 10
213.346123
 20
164.450010
 30
0.0
 10
212.993520
 20
164.606022
 30
0.0
 10
212.680920
 20
164.831550
 30
0.0
 10
212.422221
 20
165.116392
 30
0.0
 10
212.229322
 20
165.448442
 30
0.0
 10
212.109622
 20
165.812993
 30
0.0
 10
212.069622
 20
166.194421
 30
0.0
 10
212.109622
 20
166.575850
 30
0.0
 10
212.229322
 20
166.940390
 30
0.0
 10
212.422221
 20
167.272450
 30
0.0
 10
212.680920
 20
167.557290
 30
0.0
 10
212.993520
 20
167.782442
 30
0.0
 10
213.346123
 20
167.938451
 30
0.0
 10
213.724821
 20
168.018152
 30
0.0
 10
214.110422
 20
168.018152
 30
0.0
 10
214.489120
 20
167.938451
 30
0.0
 10
214.841722
 20
167.782442
 30
0.0
 10
215.154322
 20
167.557290
 30
0.0
 10
215.413021
 20
167.272450
 30
0.0
 10
215.605921
 20
166.940390
 30
0.0
 10
215.726021
 20
166.575850
 30
0.0
 10
215.766020
 20
166.194421
 30
0.0
 10
215.726021
 20
165.812993
 30
0.0
 10
215.605921
 20
165.448442
 30
0.0
 10
215.413021
 20
165.116392
 30
0.0
 10
215.154322
 20
164.831550
 30
0.0
 10
214.841722
 20
164.606022
 30
0.0
 10
214.489120
 20
164.450010
 30
0.0
 10
214.110422
 20
164.370312
 30
0.0
  0
LWPOLYLINE
  5
122
100
AcDbEntity
  8
Layer_1
 62
5
100
AcDbPolyline
 90
30
 70
1
 10
313.625018
 20
164.370312
 30
0.0
 10
313.246426
 20
164.450010
 30
0.0
 10
312.893736
 20
164.606022
 30
0.0
 10
312.581131
 20
164.831550
 30
0.0
 10
312.322422
 20
165.116392
 30
0.0
 10
312.129540
 20
165.448442
 30
0.0
 10
312.009816
 20
165.812993
 30
0.0
 10
311.969838
 20
166.194421
 30
0.0
 10
312.009816
 20
166.575850
 30
0.0
 10
312.129540
 20
166.940390
 30
0.0
 10
312.322422
 20
167.272450
 30
0.0
 10
312.581131
 20
167.557290
 30
0.0
 10
312.893736
 20
167.782442
 30
0.0
 10
313.246426
 20
167.938451
 30
0.0
 10
313.625018
 20
168.018152
 30
0.0
 10
314.010622
 20
168.018152
 30
0.0
 10
314.389241
 20
167.938451
 30
0.0
 10
314.741930
 20
167.782442
 30
0.0
 10
315.054536
 20
167.557290
 30
0.0
 10
315.313219
 20
167.272450
 30
0.0
 10
315.506126
 20
166.940390
 30
0.0
 10
315.625824
 20
166.575850
 30
0.0
 10
315.665829
 20
166.194421
 30
0.0
 10
315.625824
 20
165.812993
 30
0.0
 10
315.506126
 20
165.448442
 30
0.0
 10
315.313219
 20
165.116392
 30
0.0
 10
315.054536
 20
164.831550
 30
0.0
 10
314.741930
 20
164.606022
 30
0.0
 10
314.389241
 20
164.450010
 30
0.0
 10
314.010622
 20
164.370312
 30
0.0
  0
LWPOLYLINE
  5
123
100
AcDbEntity
  8
Layer_1
 62
5
100
AcDbPolyline
 90
4
 70
1
 10
216.914622
 20
135.450060
 30
0.0
 10
216.914622
 20
162.228002
 30
0.0
 10
312.818833
 20
162.228002
 30
0.0
 10
312.818833
 20
135.450060
 30
0.0
  0
LWPOLYLINE
  5
124
100
AcDbEntity
  8
Layer_1
 62
5
100
AcDbPolyline
 90
4
 70
1
 10
55.077101
 20
137.433602
 30
0.0
 10
55.077101
 20
160.244461
 30
0.0
 10
150.980722
 20
160.244461
 30
0.0
 10
150.980722
 20
137.433602
 30
0.0
  0
LWPOLYLINE
  5
125
100
AcDbEntity
  8
Layer_1
 62
5
100
AcDbPolyline
 90
30
 70
1
 10
313.625018
 20
129.658191
 30
0.0
 10
313.246426
 20
129.737891
 30
0.0
 10
312.893736
 20
129.893911
 30
0.0
 10
312.581131
 20
130.119060
 30
0.0
 10
312.322422
 20
130.403900
 30
0.0
 10
312.129540
 20
130.735950
 30
0.0
 10
312.009816
 20
131.100501
 30
0.0
 10
311.969838
 20
131.481972
 30
0.0
 10
312.009816
 20
131.863400
 30
0.0
 10
312.129540
 20
132.228321
 30
0.0
 10
312.322422
 20
132.560381
 30
0.0
 10
312.581131
 20
132.845211
 30
0.0
 10
312.893736
 20
133.070361
 30
0.0
 10
313.246426
 20
133.226380
 30
0.0
 10
313.625018
 20
133.306081
 30
0.0
 10
314.010622
 20
133.306081
 30
0.0
 10
314.389241
 20
133.226380
 30
0.0
 10
314.741930
 20
133.070361
 30
0.0
 10
315.054536
 20
132.845211
 30
0.0
 10
315.313219
 20
132.560381
 30
0.0
 10
315.506126
 20
132.228321
 30
0.0
 10
315.625824
 20
131.863400
 30
0.0
 10
315.665829
 20
131.481972
 30
0.0
 10
315.625824
 20
131.100501
 30
0.0
 10
315.506126
 20
130.735950
 30
0.0
 10
315.313219
 20
130.403900
 30
0.0
 10
315.054536
 20
130.119060
 30
0.0
 10
314.741930
 20
129.893911
 30
0.0
 10
314.389241
 20
129.737891
 30
0.0
 10
314.010622
 20
129.658191
 30
0.0
  0
LWPOLYLINE
  5
126
100
AcDbEntity
  8
Layer_1
 62
5
100
AcDbPolyline
 90
30
 70
1
 10
151.786503
 20
129.658191
 30
0.0
 10
151.408582
 20
129.737891
 30
0.0
 10
151.055562
 20
129.893911
 30
0.0
 10
150.742930
 20
130.119060
 30
0.0
 10
150.484282
 20
130.403900
 30
0.0
 10
150.290972
 20
130.735950
 30
0.0
 10
150.171661
 20
131.100501
 30
0.0
 10
150.131261
 20
131.481972
 30
0.0
 10
150.171661
 20
131.863400
 30
0.0
 10
150.290972
 20
132.228321
 30
0.0
 10
150.484282
 20
132.560381
 30
0.0
 10
150.742930
 20
132.845211
 30
0.0
 10
151.055562
 20
133.070361
 30
0.0
 10
151.408582
 20
133.226380
 30
0.0
 10
151.786503
 20
133.306081
 30
0.0
 10
152.172911
 20
133.306081
 30
0.0
 10
152.550831
 20
133.226380
 30
0.0
 10
152.903851
 20
133.070361
 30
0.0
 10
153.216480
 20
132.845211
 30
0.0
 10
153.475132
 20
132.560381
 30
0.0
 10
153.668061
 20
132.228321
 30
0.0
 10
153.787372
 20
131.863400
 30
0.0
 10
153.827771
 20
131.481972
 30
0.0
 10
153.787372
 20
131.100501
 30
0.0
 10
153.668061
 20
130.735950
 30
0.0
 10
153.475132
 20
130.403900
 30
0.0
 10
153.216480
 20
130.119060
 30
0.0
 10
152.903851
 20
129.893911
 30
0.0
 10
152.550831
 20
129.737891
 30
0.0
 10
152.172911
 20
129.658191
 30
0.0
  0
LWPOLYLINE
  5
127
100
AcDbEntity
  8
Layer_1
 62
5
100
AcDbPolyline
 90
30
 70
1
 10
101.836680
 20
129.658191
 30
0.0
 10
101.458771
 20
129.737891
 30
0.0
 10
101.105742
 20
129.893911
 30
0.0
 10
100.793111
 20
130.119060
 30
0.0
 10
100.534470
 20
130.403900
 30
0.0
 10
100.341152
 20
130.735950
 30
0.0
 10
100.221841
 20
131.100501
 30
0.0
 10
100.181442
 20
131.481972
 30
0.0
 10
100.221841
 20
131.863400
 30
0.0
 10
100.341152
 20
132.228321
 30
0.0
 10
100.534470
 20
132.560381
 30
0.0
 10
100.793111
 20
132.845211
 30
0.0
 10
101.105742
 20
133.070361
 30
0.0
 10
101.458771
 20
133.226380
 30
0.0
 10
101.836680
 20
133.306081
 30
0.0
 10
102.223102
 20
133.306081
 30
0.0
 10
102.601011
 20
133.226380
 30
0.0
 10
102.954042
 20
133.070361
 30
0.0
 10
103.266671
 20
132.845211
 30
0.0
 10
103.525312
 20
132.560381
 30
0.0
 10
103.718633
 20
132.228321
 30
0.0
 10
103.837941
 20
131.863400
 30
0.0
 10
103.878340
 20
131.481972
 30
0.0
 10
103.837941
 20
131.100501
 30
0.0
 10
103.718633
 20
130.735950
 30
0.0
 10
103.525312
 20
130.403900
 30
0.0
 10
103.266671
 20
130.119060
 30
0.0
 10
102.954042
 20
129.893911
 30
0.0
 10
102.601011
 20
129.737891
 30
0.0
 10
102.223102
 20
129.658191
 30
0.0
  0
LWPOLYLINE
  5
128
100
AcDbEntity
  8
Layer_1
 62
5
100
AcDbPolyline
 90
30
 70
1
 10
213.724821
 20
129.658191
 30
0.0
 10
213.346123
 20
129.737891
 30
0.0
 10
212.993520
 20
129.893911
 30
0.0
 10
212.680920
 20
130.119060
 30
0.0
 10
212.422221
 20
130.403900
 30
0.0
 10
212.229322
 20
130.735950
 30
0.0
 10
212.109622
 20
131.100501
 30
0.0
 10
212.069622
 20
131.481972
 30
0.0
 10
212.109622
 20
131.863400
 30
0.0
 10
212.229322
 20
132.228321
 30
0.0
 10
212.422221
 20
132.560381
 30
0.0
 10
212.680920
 20
132.845211
 30
0.0
 10
212.993520
 20
133.070361
 30
0.0
 10
213.346123
 20
133.226380
 30
0.0
 10
213.724821
 20
133.306081
 30
0.0
 10
214.110422
 20
133.306081
 30
0.0
 10
214.489120
 20
133.226380
 30
0.0
 10
214.841722
 20
133.070361
 30
0.0
 10
215.154322
 20
132.845211
 30
0.0
 10
215.413021
 20
132.560381
 30
0.0
 10
215.605921
 20
132.228321
 30
0.0
 10
215.726021
 20
131.863400
 30
0.0
 10
215.766020
 20
131.481972
 30
0.0
 10
215.726021
 20
131.100501
 30
0.0
 10
215.605921
 20
130.735950
 30
0.0
 10
215.413021
 20
130.403900
 30
0.0
 10
215.154322
 20
130.119060
 30
0.0
 10
214.841722
 20
129.893911
 30
0.0
 10
214.489120
 20
129.737891
 30
0.0
 10
214.110422
 20
129.658191
 30
0.0
  0
LWPOLYLINE
  5
129
100
AcDbEntity
  8
Layer_1
 62
5
100
AcDbPolyline
 90
30
 70
1
 10
263.674921
 20
129.658191
 30
0.0
 10
263.296321
 20
129.737891
 30
0.0
 10
262.943620
 20
129.893911
 30
0.0
 10
262.631021
 20
130.119060
 30
0.0
 10
262.372322
 20
130.403900
 30
0.0
 10
262.179422
 20
130.735950
 30
0.0
 10
262.059722
 20
131.100501
 30
0.0
 10
262.019722
 20
131.481972
 30
0.0
 10
262.059722
 20
131.863400
 30
0.0
 10
262.179422
 20
132.228321
 30
0.0
 10
262.372322
 20
132.560381
 30
0.0
 10
262.631021
 20
132.845211
 30
0.0
 10
262.943620
 20
133.070361
 30
0.0
 10
263.296321
 20
133.226380
 30
0.0
 10
263.674921
 20
133.306081
 30
0.0
 10
264.060509
 20
133.306081
 30
0.0
 10
264.439127
 20
133.226380
 30
0.0
 10
264.791825
 20
133.070361
 30
0.0
 10
265.104430
 20
132.845211
 30
0.0
 10
265.363034
 20
132.560381
 30
0.0
 10
265.556021
 20
132.228321
 30
0.0
 10
265.675719
 20
131.863400
 30
0.0
 10
265.715724
 20
131.481972
 30
0.0
 10
265.675719
 20
131.100501
 30
0.0
 10
265.556021
 20
130.735950
 30
0.0
 10
265.363034
 20
130.403900
 30
0.0
 10
265.104430
 20
130.119060
 30
0.0
 10
264.791825
 20
129.893911
 30
0.0
 10
264.439127
 20
129.737891
 30
0.0
 10
264.060509
 20
129.658191
 30
0.0
  0
LWPOLYLINE
  5
12a
100
AcDbEntity
  8
Layer_1
 62
5
100
AcDbPolyline
 90
30
 70
1
 10
51.886911
 20
129.658191
 30
0.0
 10
51.508951
 20
129.737891
 30
0.0
 10
51.155920
 20
129.893911
 30
0.0
 10
50.843302
 20
130.119060
 30
0.0
 10
50.584650
 20
130.403900
 30
0.0
 10
50.391721
 20
130.735950
 30
0.0
 10
50.272410
 20
131.100501
 30
0.0
 10
50.232011
 20
131.481972
 30
0.0
 10
50.272410
 20
131.863400
 30
0.0
 10
50.391721
 20
132.228321
 30
0.0
 10
50.584650
 20
132.560381
 30
0.0
 10
50.843302
 20
132.845211
 30
0.0
 10
51.155920
 20
133.070361
 30
0.0
 10
51.508951
 20
133.226380
 30
0.0
 10
51.886911
 20
133.306081
 30
0.0
 10
52.273322
 20
133.306081
 30
0.0
 10
52.651221
 20
133.226380
 30
0.0
 10
53.004262
 20
133.070361
 30
0.0
 10
53.316891
 20
132.845211
 30
0.0
 10
53.575522
 20
132.560381
 30
0.0
 10
53.768842
 20
132.228321
 30
0.0
 10
53.888161
 20
131.863400
 30
0.0
 10
53.928560
 20
131.481972
 30
0.0
 10
53.888161
 20
131.100501
 30
0.0
 10
53.768842
 20
130.735950
 30
0.0
 10
53.575522
 20
130.403900
 30
0.0
 10
53.316891
 20
130.119060
 30
0.0
 10
53.004262
 20
129.893911
 30
0.0
 10
52.651221
 20
129.737891
 30
0.0
 10
52.273322
 20
129.658191
 30
0.0
  0
LWPOLYLINE
  5
12b
100
AcDbEntity
  8
Layer_1
 62
5
100
AcDbPolyline
 90
4
 70
0
 10
494.835709
 20
180.444880
 30
0.0
 10
494.835709
 20
240.457155
 30
0.0
 10
0.132292
 20
240.457155
 30
0.0
 10
0.132292
 20
180.444880
 30
0.0
  0
LWPOLYLINE
  5
12c
100
AcDbEntity
  8
Layer_1
 62
5
100
AcDbPolyline
 90
12
 70
1
 10
100.719501
 20
186.395525
 30
0.0
 10
100.719501
 20
200.280388
 30
0.0
 10
95.724551
 20
200.280388
 30
0.0
 10
95.724551
 20
221.107650
 30
0.0
 10
100.719501
 20
221.107650
 30
0.0
 10
100.719501
 20
234.992509
 30
0.0
 10
190.629043
 20
234.992509
 30
0.0
 10
190.629043
 20
221.107650
 30
0.0
 10
195.624140
 20
221.107650
 30
0.0
 10
195.624140
 20
200.280388
 30
0.0
 10
190.629043
 20
200.280388
 30
0.0
 10
190.629043
 20
186.395525
 30
0.0
  0
LWPOLYLINE
  5
12d
100
AcDbEntity
  8
Layer_1
 62
5
100
AcDbPolyline
 90
30
 70
1
 10
24.395892
 20
227.040653
 30
0.0
 10
23.847962
 20
227.156623
 30
0.0
 10
23.336162
 20
227.382521
 30
0.0
 10
22.882922
 20
227.709292
 30
0.0
 10
22.508002
 20
228.122643
 30
0.0
 10
22.227832
 20
228.604264
 30
0.0
 10
22.054532
 20
229.133282
 30
0.0
 10
21.995932
 20
229.686412
 30
0.0
 10
22.054532
 20
230.239492
 30
0.0
 10
22.227832
 20
230.768521
 30
0.0
 10
22.508002
 20
231.250092
 30
0.0
 10
22.882922
 20
231.663482
 30
0.0
 10
23.336162
 20
231.990248
 30
0.0
 10
23.847962
 20
232.216530
 30
0.0
 10
24.395892
 20
232.332129
 30
0.0
 10
24.956142
 20
232.332129
 30
0.0
 10
25.504071
 20
232.216530
 30
0.0
 10
26.015981
 20
231.990248
 30
0.0
 10
26.469112
 20
231.663482
 30
0.0
 10
26.844040
 20
231.250092
 30
0.0
 10
27.124202
 20
230.768521
 30
0.0
 10
27.297512
 20
230.239492
 30
0.0
 10
27.356012
 20
229.686412
 30
0.0
 10
27.297512
 20
229.133282
 30
0.0
 10
27.124202
 20
228.604264
 30
0.0
 10
26.844040
 20
228.122643
 30
0.0
 10
26.469112
 20
227.709292
 30
0.0
 10
26.015981
 20
227.382521
 30
0.0
 10
25.504071
 20
227.156623
 30
0.0
 10
24.956142
 20
227.040653
 30
0.0
  0
LWPOLYLINE
  5
12e
100
AcDbEntity
  8
Layer_1
 62
5
100
AcDbPolyline
 90
30
 70
1
 10
38.937361
 20
195.042701
 30
0.0
 10
35.098543
 20
195.852781
 30
0.0
 10
31.513150
 20
197.437551
 30
0.0
 10
28.338021
 20
199.727790
 30
0.0
 10
25.711961
 20
202.623257
 30
0.0
 10
23.749642
 20
205.997576
 30
0.0
 10
22.536762
 20
209.703124
 30
0.0
 10
22.126572
 20
213.578092
 30
0.0
 10
22.536762
 20
217.453058
 30
0.0
 10
23.749642
 20
221.158648
 30
0.0
 10
25.711961
 20
224.532924
 30
0.0
 10
28.338021
 20
227.428424
 30
0.0
 10
31.513150
 20
229.718522
 30
0.0
 10
35.098543
 20
231.303281
 30
0.0
 10
38.937361
 20
232.113369
 30
0.0
 10
42.862053
 20
232.113369
 30
0.0
 10
46.700861
 20
231.303281
 30
0.0
 10
50.286261
 20
229.718522
 30
0.0
 10
53.461383
 20
227.428424
 30
0.0
 10
56.087521
 20
224.532924
 30
0.0
 10
58.049843
 20
221.158648
 30
0.0
 10
59.262642
 20
217.453058
 30
0.0
 10
59.672802
 20
213.578092
 30
0.0
 10
59.262642
 20
209.703124
 30
0.0
 10
58.049843
 20
205.997576
 30
0.0
 10
56.087521
 20
202.623257
 30
0.0
 10
53.461383
 20
199.727790
 30
0.0
 10
50.286261
 20
197.437551
 30
0.0
 10
46.700861
 20
195.852781
 30
0.0
 10
42.862053
 20
195.042701
 30
0.0
  0
LWPOLYLINE
  5
12f
100
AcDbEntity
  8
Layer_1
 62
5
100
AcDbPolyline
 90
30
 70
1
 10
57.772332
 20
226.048865
 30
0.0
 10
57.224382
 20
226.164464
 30
0.0
 10
56.712583
 20
226.390365
 30
0.0
 10
56.259341
 20
226.717131
 30
0.0
 10
55.884421
 20
227.130482
 30
0.0
 10
55.604251
 20
227.612092
 30
0.0
 10
55.431333
 20
228.141124
 30
0.0
 10
55.372730
 20
228.694204
 30
0.0
 10
55.431333
 20
229.247291
 30
0.0
 10
55.604251
 20
229.776323
 30
0.0
 10
55.884421
 20
230.257933
 30
0.0
 10
56.259341
 20
230.671324
 30
0.0
 10
56.712583
 20
230.998092
 30
0.0
 10
57.224382
 20
231.223993
 30
0.0
 10
57.772332
 20
231.339592
 30
0.0
 10
58.332561
 20
231.339592
 30
0.0
 10
58.880491
 20
231.223993
 30
0.0
 10
59.392413
 20
230.998092
 30
0.0
 10
59.845533
 20
230.671324
 30
0.0
 10
60.220471
 20
230.257933
 30
0.0
 10
60.500622
 20
229.776323
 30
0.0
 10
60.673552
 20
229.247291
 30
0.0
 10
60.732151
 20
228.694204
 30
0.0
 10
60.673552
 20
228.141124
 30
0.0
 10
60.500622
 20
227.612092
 30
0.0
 10
60.220471
 20
227.130482
 30
0.0
 10
59.845533
 20
226.717131
 30
0.0
 10
59.392413
 20
226.390365
 30
0.0
 10
58.880491
 20
226.164464
 30
0.0
 10
58.332561
 20
226.048865
 30
0.0
  0
LWPOLYLINE
  5
130
100
AcDbEntity
  8
Layer_1
 62
5
100
AcDbPolyline
 90
30
 70
1
 10
235.391341
 20
224.241745
 30
0.0
 10
235.012643
 20
224.321445
 30
0.0
 10
234.660040
 20
224.477454
 30
0.0
 10
234.347441
 20
224.702985
 30
0.0
 10
234.088742
 20
224.987825
 30
0.0
 10
233.895842
 20
225.319874
 30
0.0
 10
233.775742
 20
225.684425
 30
0.0
 10
233.735742
 20
226.065857
 30
0.0
 10
233.775742
 20
226.447285
 30
0.0
 10
233.895842
 20
226.811823
 30
0.0
 10
234.088742
 20
227.143883
 30
0.0
 10
234.347441
 20
227.429093
 30
0.0
 10
234.660040
 20
227.654243
 30
0.0
 10
235.012643
 20
227.810262
 30
0.0
 10
235.391341
 20
227.889963
 30
0.0
 10
235.776942
 20
227.889963
 30
0.0
 10
236.155542
 20
227.810262
 30
0.0
 10
236.508242
 20
227.654243
 30
0.0
 10
236.820842
 20
227.429093
 30
0.0
 10
237.079541
 20
227.143883
 30
0.0
 10
237.272441
 20
226.811823
 30
0.0
 10
237.392141
 20
226.447285
 30
0.0
 10
237.432141
 20
226.065857
 30
0.0
 10
237.392141
 20
225.684425
 30
0.0
 10
237.272441
 20
225.319874
 30
0.0
 10
237.079541
 20
224.987825
 30
0.0
 10
236.820842
 20
224.702985
 30
0.0
 10
236.508242
 20
224.477454
 30
0.0
 10
236.155542
 20
224.321445
 30
0.0
 10
235.776942
 20
224.241745
 30
0.0
  0
LWPOLYLINE
  5
131
100
AcDbEntity
  8
Layer_1
 62
5
100
AcDbPolyline
 90
30
 70
1
 10
285.341351
 20
224.241745
 30
0.0
 10
284.962732
 20
224.321445
 30
0.0
 10
284.610043
 20
224.477454
 30
0.0
 10
284.297438
 20
224.702985
 30
0.0
 10
284.038834
 20
224.987825
 30
0.0
 10
283.845847
 20
225.319874
 30
0.0
 10
283.726149
 20
225.684425
 30
0.0
 10
283.686144
 20
226.065857
 30
0.0
 10
283.726149
 20
226.447285
 30
0.0
 10
283.845847
 20
226.811823
 30
0.0
 10
284.038834
 20
227.143883
 30
0.0
 10
284.297438
 20
227.429093
 30
0.0
 10
284.610043
 20
227.654243
 30
0.0
 10
284.962732
 20
227.810262
 30
0.0
 10
285.341351
 20
227.889963
 30
0.0
 10
285.727034
 20
227.889963
 30
0.0
 10
286.105547
 20
227.810262
 30
0.0
 10
286.458237
 20
227.654243
 30
0.0
 10
286.770842
 20
227.429093
 30
0.0
 10
287.029551
 20
227.143883
 30
0.0
 10
287.222433
 20
226.811823
 30
0.0
 10
287.342130
 20
226.447285
 30
0.0
 10
287.382135
 20
226.065857
 30
0.0
 10
287.342130
 20
225.684425
 30
0.0
 10
287.222433
 20
225.319874
 30
0.0
 10
287.029551
 20
224.987825
 30
0.0
 10
286.770842
 20
224.702985
 30
0.0
 10
286.458237
 20
224.477454
 30
0.0
 10
286.105547
 20
224.321445
 30
0.0
 10
285.727034
 20
224.241745
 30
0.0
  0
LWPOLYLINE
  5
132
100
AcDbEntity
  8
Layer_1
 62
5
100
AcDbPolyline
 90
30
 70
1
 10
95.531392
 20
224.241745
 30
0.0
 10
95.153432
 20
224.321445
 30
0.0
 10
94.800401
 20
224.477454
 30
0.0
 10
94.487780
 20
224.702985
 30
0.0
 10
94.229132
 20
224.987825
 30
0.0
 10
94.035822
 20
225.319874
 30
0.0
 10
93.916511
 20
225.684425
 30
0.0
 10
93.876111
 20
226.065857
 30
0.0
 10
93.916511
 20
226.447285
 30
0.0
 10
94.035822
 20
226.811823
 30
0.0
 10
94.229132
 20
227.143883
 30
0.0
 10
94.487780
 20
227.429093
 30
0.0
 10
94.800401
 20
227.654243
 30
0.0
 10
95.153432
 20
227.810262
 30
0.0
 10
95.531392
 20
227.889963
 30
0.0
 10
95.917761
 20
227.889963
 30
0.0
 10
96.295673
 20
227.810262
 30
0.0
 10
96.648701
 20
227.654243
 30
0.0
 10
96.961333
 20
227.429093
 30
0.0
 10
97.219971
 20
227.143883
 30
0.0
 10
97.413292
 20
226.811823
 30
0.0
 10
97.532603
 20
226.447285
 30
0.0
 10
97.573002
 20
226.065857
 30
0.0
 10
97.532603
 20
225.684425
 30
0.0
 10
97.413292
 20
225.319874
 30
0.0
 10
97.219971
 20
224.987825
 30
0.0
 10
96.961333
 20
224.702985
 30
0.0
 10
96.648701
 20
224.477454
 30
0.0
 10
96.295673
 20
224.321445
 30
0.0
 10
95.917761
 20
224.241745
 30
0.0
  0
LWPOLYLINE
  5
133
100
AcDbEntity
  8
Layer_1
 62
5
100
AcDbPolyline
 90
30
 70
1
 10
335.291351
 20
224.241745
 30
0.0
 10
334.912732
 20
224.321445
 30
0.0
 10
334.560148
 20
224.477454
 30
0.0
 10
334.247437
 20
224.702985
 30
0.0
 10
333.988833
 20
224.987825
 30
0.0
 10
333.795952
 20
225.319874
 30
0.0
 10
333.675831
 20
225.684425
 30
0.0
 10
333.635853
 20
226.065857
 30
0.0
 10
333.675831
 20
226.447285
 30
0.0
 10
333.795952
 20
226.811823
 30
0.0
 10
333.988833
 20
227.143883
 30
0.0
 10
334.247437
 20
227.429093
 30
0.0
 10
334.560148
 20
227.654243
 30
0.0
 10
334.912732
 20
227.810262
 30
0.0
 10
335.291351
 20
227.889963
 30
0.0
 10
335.676954
 20
227.889963
 30
0.0
 10
336.055653
 20
227.810262
 30
0.0
 10
336.408342
 20
227.654243
 30
0.0
 10
336.720947
 20
227.429093
 30
0.0
 10
336.979551
 20
227.143883
 30
0.0
 10
337.172538
 20
226.811823
 30
0.0
 10
337.292236
 20
226.447285
 30
0.0
 10
337.332241
 20
226.065857
 30
0.0
 10
337.292236
 20
225.684425
 30
0.0
 10
337.172538
 20
225.319874
 30
0.0
 10
336.979551
 20
224.987825
 30
0.0
 10
336.720947
 20
224.702985
 30
0.0
 10
336.408342
 20
224.477454
 30
0.0
 10
336.055653
 20
224.321445
 30
0.0
 10
335.676954
 20
224.241745
 30
0.0
  0
LWPOLYLINE
  5
134
100
AcDbEntity
  8
Layer_1
 62
5
100
AcDbPolyline
 90
30
 70
1
 10
195.430942
 20
224.241745
 30
0.0
 10
195.052942
 20
224.321445
 30
0.0
 10
194.699940
 20
224.477454
 30
0.0
 10
194.387343
 20
224.702985
 30
0.0
 10
194.128641
 20
224.987825
 30
0.0
 10
193.935342
 20
225.319874
 30
0.0
 10
193.816041
 20
225.684425
 30
0.0
 10
193.776042
 20
226.065857
 30
0.0
 10
193.816041
 20
226.447285
 30
0.0
 10
193.935342
 20
226.811823
 30
0.0
 10
194.128641
 20
227.143883
 30
0.0
 10
194.387343
 20
227.429093
 30
0.0
 10
194.699940
 20
227.654243
 30
0.0
 10
195.052942
 20
227.810262
 30
0.0
 10
195.430942
 20
227.889963
 30
0.0
 10
195.817342
 20
227.889963
 30
0.0
 10
196.195241
 20
227.810262
 30
0.0
 10
196.548243
 20
227.654243
 30
0.0
 10
196.860843
 20
227.429093
 30
0.0
 10
197.119542
 20
227.143883
 30
0.0
 10
197.312441
 20
226.811823
 30
0.0
 10
197.431742
 20
226.447285
 30
0.0
 10
197.471742
 20
226.065857
 30
0.0
 10
197.431742
 20
225.684425
 30
0.0
 10
197.312441
 20
225.319874
 30
0.0
 10
197.119542
 20
224.987825
 30
0.0
 10
196.860843
 20
224.702985
 30
0.0
 10
196.548243
 20
224.477454
 30
0.0
 10
196.195241
 20
224.321445
 30
0.0
 10
195.817342
 20
224.241745
 30
0.0
  0
LWPOLYLINE
  5
135
100
AcDbEntity
  8
Layer_1
 62
5
100
AcDbPolyline
 90
4
 70
1
 10
238.581142
 20
197.305071
 30
0.0
 10
238.581142
 20
220.115899
 30
0.0
 10
334.485139
 20
220.115899
 30
0.0
 10
334.485139
 20
197.305071
 30
0.0
  0
LWPOLYLINE
  5
136
100
AcDbEntity
  8
Layer_1
 62
5
100
AcDbPolyline
 90
30
 70
1
 10
24.395892
 20
194.365633
 30
0.0
 10
23.847962
 20
194.481234
 30
0.0
 10
23.336162
 20
194.707514
 30
0.0
 10
22.882922
 20
195.034280
 30
0.0
 10
22.508002
 20
195.447670
 30
0.0
 10
22.227832
 20
195.929280
 30
0.0
 10
22.054532
 20
196.458270
 30
0.0
 10
21.995932
 20
197.011350
 30
0.0
 10
22.054532
 20
197.564480
 30
0.0
 10
22.227832
 20
198.093501
 30
0.0
 10
22.508002
 20
198.575122
 30
0.0
 10
22.882922
 20
198.988470
 30
0.0
 10
23.336162
 20
199.315241
 30
0.0
 10
23.847962
 20
199.541142
 30
0.0
 10
24.395892
 20
199.656741
 30
0.0
 10
24.956142
 20
199.656741
 30
0.0
 10
25.504071
 20
199.541142
 30
0.0
 10
26.015981
 20
199.315241
 30
0.0
 10
26.469112
 20
198.988470
 30
0.0
 10
26.844040
 20
198.575122
 30
0.0
 10
27.124202
 20
198.093501
 30
0.0
 10
27.297512
 20
197.564480
 30
0.0
 10
27.356012
 20
197.011350
 30
0.0
 10
27.297512
 20
196.458270
 30
0.0
 10
27.124202
 20
195.929280
 30
0.0
 10
26.844040
 20
195.447670
 30
0.0
 10
26.469112
 20
195.034280
 30
0.0
 10
26.015981
 20
194.707514
 30
0.0
 10
25.504071
 20
194.481234
 30
0.0
 10
24.956142
 20
194.365633
 30
0.0
  0
LWPOLYLINE
  5
137
100
AcDbEntity
  8
Layer_1
 62
5
100
AcDbPolyline
 90
30
 70
1
 10
57.772332
 20
194.365633
 30
0.0
 10
57.224382
 20
194.481234
 30
0.0
 10
56.712583
 20
194.707514
 30
0.0
 10
56.259341
 20
195.034280
 30
0.0
 10
55.884421
 20
195.447670
 30
0.0
 10
55.604251
 20
195.929280
 30
0.0
 10
55.431333
 20
196.458270
 30
0.0
 10
55.372730
 20
197.011350
 30
0.0
 10
55.431333
 20
197.564480
 30
0.0
 10
55.604251
 20
198.093501
 30
0.0
 10
55.884421
 20
198.575122
 30
0.0
 10
56.259341
 20
198.988470
 30
0.0
 10
56.712583
 20
199.315241
 30
0.0
 10
57.224382
 20
199.541142
 30
0.0
 10
57.772332
 20
199.656741
 30
0.0
 10
58.332561
 20
199.656741
 30
0.0
 10
58.880491
 20
199.541142
 30
0.0
 10
59.392413
 20
199.315241
 30
0.0
 10
59.845533
 20
198.988470
 30
0.0
 10
60.220471
 20
198.575122
 30
0.0
 10
60.500622
 20
198.093501
 30
0.0
 10
60.673552
 20
197.564480
 30
0.0
 10
60.732151
 20
197.011350
 30
0.0
 10
60.673552
 20
196.458270
 30
0.0
 10
60.500622
 20
195.929280
 30
0.0
 10
60.220471
 20
195.447670
 30
0.0
 10
59.845533
 20
195.034280
 30
0.0
 10
59.392413
 20
194.707514
 30
0.0
 10
58.880491
 20
194.481234
 30
0.0
 10
58.332561
 20
194.365633
 30
0.0
  0
LWPOLYLINE
  5
138
100
AcDbEntity
  8
Layer_1
 62
5
100
AcDbPolyline
 90
30
 70
1
 10
195.430942
 20
189.529663
 30
0.0
 10
195.052942
 20
189.609364
 30
0.0
 10
194.699940
 20
189.765372
 30
0.0
 10
194.387343
 20
189.990522
 30
0.0
 10
194.128641
 20
190.275743
 30
0.0
 10
193.935342
 20
190.607793
 30
0.0
 10
193.816041
 20
190.972343
 30
0.0
 10
193.776042
 20
191.353804
 30
0.0
 10
193.816041
 20
191.735232
 30
0.0
 10
193.935342
 20
192.100164
 30
0.0
 10
194.128641
 20
192.432214
 30
0.0
 10
194.387343
 20
192.717054
 30
0.0
 10
194.699940
 20
192.942203
 30
0.0
 10
195.052942
 20
193.098223
 30
0.0
 10
195.430942
 20
193.177923
 30
0.0
 10
195.817342
 20
193.177923
 30
0.0
 10
196.195241
 20
193.098223
 30
0.0
 10
196.548243
 20
192.942203
 30
0.0
 10
196.860843
 20
192.717054
 30
0.0
 10
197.119542
 20
192.432214
 30
0.0
 10
197.312441
 20
192.100164
 30
0.0
 10
197.431742
 20
191.735232
 30
0.0
 10
197.471742
 20
191.353804
 30
0.0
 10
197.431742
 20
190.972343
 30
0.0
 10
197.312441
 20
190.607793
 30
0.0
 10
197.119542
 20
190.275743
 30
0.0
 10
196.860843
 20
189.990522
 30
0.0
 10
196.548243
 20
189.765372
 30
0.0
 10
196.195241
 20
189.609364
 30
0.0
 10
195.817342
 20
189.529663
 30
0.0
  0
LWPOLYLINE
  5
139
100
AcDbEntity
  8
Layer_1
 62
5
100
AcDbPolyline
 90
30
 70
1
 10
335.291351
 20
189.529663
 30
0.0
 10
334.912732
 20
189.609364
 30
0.0
 10
334.560148
 20
189.765372
 30
0.0
 10
334.247437
 20
189.990522
 30
0.0
 10
333.988833
 20
190.275743
 30
0.0
 10
333.795952
 20
190.607793
 30
0.0
 10
333.675831
 20
190.972343
 30
0.0
 10
333.635853
 20
191.353804
 30
0.0
 10
333.675831
 20
191.735232
 30
0.0
 10
333.795952
 20
192.100164
 30
0.0
 10
333.988833
 20
192.432214
 30
0.0
 10
334.247437
 20
192.717054
 30
0.0
 10
334.560148
 20
192.942203
 30
0.0
 10
334.912732
 20
193.098223
 30
0.0
 10
335.291351
 20
193.177923
 30
0.0
 10
335.676954
 20
193.177923
 30
0.0
 10
336.055653
 20
193.098223
 30
0.0
 10
336.408342
 20
192.942203
 30
0.0
 10
336.720947
 20
192.717054
 30
0.0
 10
336.979551
 20
192.432214
 30
0.0
 10
337.172538
 20
192.100164
 30
0.0
 10
337.292236
 20
191.735232
 30
0.0
 10
337.332241
 20
191.353804
 30
0.0
 10
337.292236
 20
190.972343
 30
0.0
 10
337.172538
 20
190.607793
 30
0.0
 10
336.979551
 20
190.275743
 30
0.0
 10
336.720947
 20
189.990522
 30
0.0
 10
336.408342
 20
189.765372
 30
0.0
 10
336.055653
 20
189.609364
 30
0.0
 10
335.676954
 20
189.529663
 30
0.0
  0
LWPOLYLINE
  5
13a
100
AcDbEntity
  8
Layer_1
 62
5
100
AcDbPolyline
 90
30
 70
1
 10
95.531392
 20
189.529663
 30
0.0
 10
95.153432
 20
189.609364
 30
0.0
 10
94.800401
 20
189.765372
 30
0.0
 10
94.487780
 20
189.990522
 30
0.0
 10
94.229132
 20
190.275743
 30
0.0
 10
94.035822
 20
190.607793
 30
0.0
 10
93.916511
 20
190.972343
 30
0.0
 10
93.876111
 20
191.353804
 30
0.0
 10
93.916511
 20
191.735232
 30
0.0
 10
94.035822
 20
192.100164
 30
0.0
 10
94.229132
 20
192.432214
 30
0.0
 10
94.487780
 20
192.717054
 30
0.0
 10
94.800401
 20
192.942203
 30
0.0
 10
95.153432
 20
193.098223
 30
0.0
 10
95.531392
 20
193.177923
 30
0.0
 10
95.917761
 20
193.177923
 30
0.0
 10
96.295673
 20
193.098223
 30
0.0
 10
96.648701
 20
192.942203
 30
0.0
 10
96.961333
 20
192.717054
 30
0.0
 10
97.219971
 20
192.432214
 30
0.0
 10
97.413292
 20
192.100164
 30
0.0
 10
97.532603
 20
191.735232
 30
0.0
 10
97.573002
 20
191.353804
 30
0.0
 10
97.532603
 20
190.972343
 30
0.0
 10
97.413292
 20
190.607793
 30
0.0
 10
97.219971
 20
190.275743
 30
0.0
 10
96.961333
 20
189.990522
 30
0.0
 10
96.648701
 20
189.765372
 30
0.0
 10
96.295673
 20
189.609364
 30
0.0
 10
95.917761
 20
189.529663
 30
0.0
  0
LWPOLYLINE
  5
13b
100
AcDbEntity
  8
Layer_1
 62
5
100
AcDbPolyline
 90
30
 70
1
 10
285.341351
 20
189.529663
 30
0.0
 10
284.962732
 20
189.609364
 30
0.0
 10
284.610043
 20
189.765372
 30
0.0
 10
284.297438
 20
189.990522
 30
0.0
 10
284.038834
 20
190.275743
 30
0.0
 10
283.845847
 20
190.607793
 30
0.0
 10
283.726149
 20
190.972343
 30
0.0
 10
283.686144
 20
191.353804
 30
0.0
 10
283.726149
 20
191.735232
 30
0.0
 10
283.845847
 20
192.100164
 30
0.0
 10
284.038834
 20
192.432214
 30
0.0
 10
284.297438
 20
192.717054
 30
0.0
 10
284.610043
 20
192.942203
 30
0.0
 10
284.962732
 20
193.098223
 30
0.0
 10
285.341351
 20
193.177923
 30
0.0
 10
285.727034
 20
193.177923
 30
0.0
 10
286.105547
 20
193.098223
 30
0.0
 10
286.458237
 20
192.942203
 30
0.0
 10
286.770842
 20
192.717054
 30
0.0
 10
287.029551
 20
192.432214
 30
0.0
 10
287.222433
 20
192.100164
 30
0.0
 10
287.342130
 20
191.735232
 30
0.0
 10
287.382135
 20
191.353804
 30
0.0
 10
287.342130
 20
190.972343
 30
0.0
 10
287.222433
 20
190.607793
 30
0.0
 10
287.029551
 20
190.275743
 30
0.0
 10
286.770842
 20
189.990522
 30
0.0
 10
286.458237
 20
189.765372
 30
0.0
 10
286.105547
 20
189.609364
 30
0.0
 10
285.727034
 20
189.529663
 30
0.0
  0
LWPOLYLINE
  5
13c
100
AcDbEntity
  8
Layer_1
 62
5
100
AcDbPolyline
 90
30
 70
1
 10
235.391341
 20
189.529663
 30
0.0
 10
235.012643
 20
189.609364
 30
0.0
 10
234.660040
 20
189.765372
 30
0.0
 10
234.347441
 20
189.990522
 30
0.0
 10
234.088742
 20
190.275743
 30
0.0
 10
233.895842
 20
190.607793
 30
0.0
 10
233.775742
 20
190.972343
 30
0.0
 10
233.735742
 20
191.353804
 30
0.0
 10
233.775742
 20
191.735232
 30
0.0
 10
233.895842
 20
192.100164
 30
0.0
 10
234.088742
 20
192.432214
 30
0.0
 10
234.347441
 20
192.717054
 30
0.0
 10
234.660040
 20
192.942203
 30
0.0
 10
235.012643
 20
193.098223
 30
0.0
 10
235.391341
 20
193.177923
 30
0.0
 10
235.776942
 20
193.177923
 30
0.0
 10
236.155542
 20
193.098223
 30
0.0
 10
236.508242
 20
192.942203
 30
0.0
 10
236.820842
 20
192.717054
 30
0.0
 10
237.079541
 20
192.432214
 30
0.0
 10
237.272441
 20
192.100164
 30
0.0
 10
237.392141
 20
191.735232
 30
0.0
 10
237.432141
 20
191.353804
 30
0.0
 10
237.392141
 20
190.972343
 30
0.0
 10
237.272441
 20
190.607793
 30
0.0
 10
237.079541
 20
190.275743
 30
0.0
 10
236.820842
 20
189.990522
 30
0.0
 10
236.508242
 20
189.765372
 30
0.0
 10
236.155542
 20
189.609364
 30
0.0
 10
235.776942
 20
189.529663
 30
0.0
  0
ENDSEC
  0
SECTION
  2
OBJECTS
  0
DICTIONARY
  5
C
330
0
100
AcDbDictionary
  3
ACAD_GROUP
350
D
  3
ACAD_MLINESTYLE
350
17
  0
DICTIONARY
  5
D
330
C
100
AcDbDictionary
  0
DICTIONARY
  5
1A
330
C
100
AcDbDictionary
  0
DICTIONARY
  5
17
330
C
100
AcDbDictionary
  3
STANDARD
350
18
  0
DICTIONARY
  5
19
330
C
100
AcDbDictionary
  0
ENDSEC
  0
EOF
