<?xml version="1.0" standalone="no"?>
<!DOCTYPE svg PUBLIC "-//W3C//DTD SVG 1.1//EN" "http://www.w3.org/Graphics/SVG/1.1/DTD/svg11.dtd">
<svg width="302" height="501" viewBox="-59 -420 302 501" xmlns="http://www.w3.org/2000/svg" version="1.1">
<title>OpenSCAD Model</title>
<path d="
M 242.104,-419.272 L -18.7559,-419.272 L -18.5516,-418.509 L -18.0603,-415.408 L -17.896,-412.272 L -18.0603,-409.136
 L -18.5516,-406.035 L -19.3643,-403.001 L -20.4896,-400.07 L -21.9152,-397.272 L -23.6255,-394.638 L -25.6017,-392.198
 L -27.8221,-389.978 L -30.2624,-388.001 L -32.896,-386.291 L -35.6939,-384.866 L -38.6255,-383.74 L -41.6586,-382.928
 L -44.7601,-382.436 L -47.896,-382.272 L -51.0318,-382.436 L -54.1333,-382.928 L -57.1665,-383.74 L -58.896,-384.404
 L -58.896,59.1482 L -58.1822,58.5702 L -56.646,57.5726 L -55.0139,56.741 L -53.3038,56.0845 L -51.5345,55.6104
 L -49.7252,55.3239 L -47.896,55.228 L -46.0667,55.3239 L -44.2575,55.6104 L -42.4882,56.0845 L -40.7781,56.741
 L -39.146,57.5726 L -37.6098,58.5702 L -36.1862,59.723 L -34.891,61.0182 L -33.7382,62.4418 L -32.7406,63.978
 L -31.909,65.6101 L -31.2525,67.3202 L -30.7784,69.0895 L -30.4919,70.8987 L -30.396,72.728 L -30.4919,74.5573
 L -30.7784,76.3665 L -31.2525,78.1358 L -31.909,79.8459 L -32.3584,80.728 L 242.104,80.728 z
" stroke="black" fill="lightgray" stroke-width="0.5"/></svg>
