  0
SECTION
  2
HEADER
  9
$ACADVER
  1
AC1014
  9
$HANDSEED
  5
FFFF
  9
$MEASUREMENT
 70
     1
  0
ENDSEC
  0
SECTION
  2
TABLES
  0
TABLE
  2
VPORT
  5
8
330
0
100
AcDbSymbolTable
 70
     4
  0
VPORT
  5
2E
330
8
100
AcDbSymbolTableRecord
100
AcDbViewportTableRecord
  2
*ACTIVE
 70
     0
 10
0.0
 20
0.0
 11
1.0
 21
1.0
 12
210.0
 22
148.5
 13
0.0
 23
0.0
 14
10.0
 24
10.0
 15
10.0
 25
10.0
 16
0.0
 26
0.0
 36
1.0
 17
0.0
 27
0.0
 37
0.0
 40
341.0
 41
1.24
 42
50.0
 43
0.0
 44
0.0
 50
0.0
 51
0.0
 71
     0
 72
   100
 73
     1
 74
     3
 75
     0
 76
     0
 77
     0
 78
     0
  0
ENDTAB
  0
TABLE
  2
LTYPE
  5
5
330
0
100
AcDbSymbolTable
 70
     1
  0
LTYPE
  5
14
330
5
100
AcDbSymbolTableRecord
100
AcDbLinetypeTableRecord
  2
BYBLOCK
 70
     0
  3

 72
    65
 73
     0
 40
0.0
  0
LTYPE
  5
15
330
5
100
AcDbSymbolTableRecord
100
AcDbLinetypeTableRecord
  2
BYLAYER
 70
     0
  3

 72
    65
 73
     0
 40
0.0
  0
LTYPE
  5
16
330
5
100
AcDbSymbolTableRecord
100
AcDbLinetypeTableRecord
  2
CONTINUOUS
 70
     0
  3
Solid line
 72
    65
 73
     0
 40
0.0
  0
ENDTAB
  0
TABLE
  2
LAYER
  5
2
100
AcDbSymbolTable
 70
2
  0
LAYER
  5
50
100
AcDbSymbolTableRecord
100
AcDbLayerTableRecord
  2
0
 70
0
  6
CONTINUOUS
  0
LAYER
  5
51
100
AcDbSymbolTableRecord
100
AcDbLayerTableRecord
  2
Layer_1
 70
0
  6
CONTINUOUS
  0
ENDTAB
  0
TABLE
  2
STYLE
  5
3
330
0
100
AcDbSymbolTable
 70
     1
  0
STYLE
  5
11
330
3
100
AcDbSymbolTableRecord
100
AcDbTextStyleTableRecord
  2
STANDARD
 70
     0
 40
0.0
 41
1.0
 50
0.0
 71
     0
 42
2.5
  3
txt
  4

  0
ENDTAB
  0
TABLE
  2
VIEW
  5
6
330
0
100
AcDbSymbolTable
 70
     0
  0
ENDTAB
  0
TABLE
  2
UCS
  5
7
330
0
100
AcDbSymbolTable
 70
     0
  0
ENDTAB
  0
TABLE
  2
APPID
  5
9
330
0
100
AcDbSymbolTable
 70
     2
  0
APPID
  5
12
330
9
100
AcDbSymbolTableRecord
100
AcDbRegAppTableRecord
  2
ACAD
 70
     0
  0
ENDTAB
  0
TABLE
  2
DIMSTYLE
  5
A
330
0
100
AcDbSymbolTable
 70
     1
  0
DIMSTYLE
105
27
330
A
100
AcDbSymbolTableRecord
100
AcDbDimStyleTableRecord
  2
ISO-25
 70
     0
  3

  4

  5

  6

  7

 40
1.0
 41
2.5
 42
0.625
 43
3.75
 44
1.25
 45
0.0
 46
0.0
 47
0.0
 48
0.0
140
2.5
141
2.5
142
0.0
143
0.03937007874016
144
1.0
145
0.0
146
1.0
147
0.625
 71
     0
 72
     0
 73
     0
 74
     0
 75
     0
 76
     0
 77
     1
 78
     8
170
     0
171
     3
172
     1
173
     0
174
     0
175
     0
176
     0
177
     0
178
     0
270
     2
271
     2
272
     2
273
     2
274
     3
340
11
275
     0
280
     0
281
     0
282
     0
283
     0
284
     8
285
     0
286
     0
287
     3
288
     0
  0
ENDTAB
  0
TABLE
  2
BLOCK_RECORD
  5
1
330
0
100
AcDbSymbolTable
 70
     1
  0
BLOCK_RECORD
  5
1F
330
1
100
AcDbSymbolTableRecord
100
AcDbBlockTableRecord
  2
*MODEL_SPACE
  0
BLOCK_RECORD
  5
1B
330
1
100
AcDbSymbolTableRecord
100
AcDbBlockTableRecord
  2
*PAPER_SPACE
  0
ENDTAB
  0
ENDSEC
  0
SECTION
  2
BLOCKS
  0
BLOCK
  5
20
330
1F
100
AcDbEntity
  8
0
100
AcDbBlockBegin
  2
*MODEL_SPACE
 70
     0
 10
0.0
 20
0.0
 30
0.0
  3
*MODEL_SPACE
  1

  0
ENDBLK
  5
21
330
1F
100
AcDbEntity
  8
0
100
AcDbBlockEnd
  0
BLOCK
  5
1C
330
1B
100
AcDbEntity
 67
     1
  8
0
100
AcDbBlockBegin
  2
*PAPER_SPACE
  1

  0
ENDBLK
  5
1D
330
1B
100
AcDbEntity
 67
     1
  8
0
100
AcDbBlockEnd
  0
ENDSEC
  0
SECTION
  2
ENTITIES
  0
LWPOLYLINE
  5
100
100
AcDbEntity
  8
Layer_1
 62
5
100
AcDbPolyline
 90
53
 70
1
 10
300.750330
 20
499.750330
 30
0.0
 10
40.323338
 20
499.750330
 30
0.0
 10
40.527094
 20
498.988080
 30
0.0
 10
41.017579
 20
495.890180
 30
0.0
 10
41.181716
 20
492.757320
 30
0.0
 10
41.017579
 20
489.624420
 30
0.0
 10
40.527094
 20
486.526550
 30
0.0
 10
39.715731
 20
483.495540
 30
0.0
 10
38.592320
 20
480.567480
 30
0.0
 10
37.169084
 20
477.772300
 30
0.0
 10
35.461611
 20
475.140910
 30
0.0
 10
33.488688
 20
472.703370
 30
0.0
 10
31.271977
 20
470.485590
 30
0.0
 10
28.835737
 20
468.510520
 30
0.0
 10
26.206495
 20
466.802270
 30
0.0
 10
23.413230
 20
465.378720
 30
0.0
 10
20.486504
 20
464.253800
 30
0.0
 10
17.458429
 20
463.442610
 30
0.0
 10
14.362095
 20
462.951110
 30
0.0
 10
11.231387
 20
462.787090
 30
0.0
 10
8.100793
 20
462.951110
 30
0.0
 10
5.004460
 20
463.442610
 30
0.0
 10
1.976272
 20
464.253800
 30
0.0
 10
0.249668
 20
464.917150
 30
0.0
 10
0.249668
 20
21.807940
 30
0.0
 10
0.962285
 20
22.385380
 30
0.0
 10
2.495924
 20
23.381980
 30
0.0
 10
4.125291
 20
24.212710
 30
0.0
 10
5.832576
 20
24.868580
 30
0.0
 10
7.598950
 20
25.342200
 30
0.0
 10
9.405245
 20
25.628290
 30
0.0
 10
11.231387
 20
25.724290
 30
0.0
 10
13.057643
 20
25.628290
 30
0.0
 10
14.863864
 20
25.342200
 30
0.0
 10
16.630237
 20
24.868580
 30
0.0
 10
18.337484
 20
24.212710
 30
0.0
 10
19.966890
 20
23.381980
 30
0.0
 10
21.500528
 20
22.385380
 30
0.0
 10
22.921763
 20
21.233740
 30
0.0
 10
24.214820
 20
19.939820
 30
0.0
 10
25.365701
 20
18.517630
 30
0.0
 10
26.361652
 20
16.982960
 30
0.0
 10
27.191881
 20
15.352490
 30
0.0
 10
27.847257
 20
13.644090
 30
0.0
 10
28.320575
 20
11.876580
 30
0.0
 10
28.606588
 20
10.069160
 30
0.0
 10
28.702428
 20
8.241710
 30
0.0
 10
28.606588
 20
6.414220
 30
0.0
 10
28.320575
 20
4.606840
 30
0.0
 10
27.847257
 20
2.839330
 30
0.0
 10
27.191881
 20
1.130890
 30
0.0
 10
26.743203
 20
0.249670
 30
0.0
 10
300.750140
 20
0.249670
 30
0.0
  0
ENDSEC
  0
SECTION
  2
OBJECTS
  0
DICTIONARY
  5
C
330
0
100
AcDbDictionary
  3
ACAD_GROUP
350
D
  3
ACAD_MLINESTYLE
350
17
  0
DICTIONARY
  5
D
330
C
100
AcDbDictionary
  0
DICTIONARY
  5
1A
330
C
100
AcDbDictionary
  0
DICTIONARY
  5
17
330
C
100
AcDbDictionary
  3
STANDARD
350
18
  0
DICTIONARY
  5
19
330
C
100
AcDbDictionary
  0
ENDSEC
  0
EOF
