<?xml version="1.0" encoding="UTF-8" standalone="no"?>
<!-- Created with Inkscape (http://www.inkscape.org/) -->

<svg
   xmlns:dc="http://purl.org/dc/elements/1.1/"
   xmlns:cc="http://creativecommons.org/ns#"
   xmlns:rdf="http://www.w3.org/1999/02/22-rdf-syntax-ns#"
   xmlns:svg="http://www.w3.org/2000/svg"
   xmlns="http://www.w3.org/2000/svg"
   xmlns:sodipodi="http://sodipodi.sourceforge.net/DTD/sodipodi-0.dtd"
   xmlns:inkscape="http://www.inkscape.org/namespaces/inkscape"
   width="210mm"
   height="297mm"
   viewBox="0 0 210 297"
   version="1.1"
   id="svg8"
   inkscape:version="0.92.3 (2405546, 2018-03-11)"
   sodipodi:docname="bottom_x1_wider_b_ponoko.svg">
  <defs
     id="defs2" />
  <sodipodi:namedview
     id="base"
     pagecolor="#ffffff"
     bordercolor="#666666"
     borderopacity="1.0"
     inkscape:pageopacity="0.0"
     inkscape:pageshadow="2"
     inkscape:zoom="0.35"
     inkscape:cx="-77.142857"
     inkscape:cy="560"
     inkscape:document-units="mm"
     inkscape:current-layer="layer1"
     showgrid="false"
     inkscape:window-width="2256"
     inkscape:window-height="1410"
     inkscape:window-x="-11"
     inkscape:window-y="-11"
     inkscape:window-maximized="1"
     showguides="false" />
  <metadata
     id="metadata5">
    <rdf:RDF>
      <cc:Work
         rdf:about="">
        <dc:format>image/svg+xml</dc:format>
        <dc:type
           rdf:resource="http://purl.org/dc/dcmitype/StillImage" />
        <dc:title></dc:title>
      </cc:Work>
    </rdf:RDF>
  </metadata>
  <g
     inkscape:label="Layer 1"
     inkscape:groupmode="layer"
     id="layer1">
    <path
       id="path3801"
       d="m 272.80367,295.869 -0.65488,-1.7084 -0.47421,-1.76752 -0.28563,-1.80738 -0.0958,-1.82748 0.0958,-1.82749 0.28563,-1.80738 0.47421,-1.76755 0.65488,-1.70837 0.83062,-1.63051 0.99533,-1.53462 1.15104,-1.4222 1.29284,-1.29389 1.42159,-1.15167 1.53341,-0.9966 1.62925,-0.83077 1.70713,-0.65586 1.76702,-0.47363 1.80595,-0.28609 1.82596,-0.096 1.82592,0.096 1.80595,0.28609 1.76701,0.47363 1.70713,0.65586 0.88051,0.44898 v -449.669 l -1.2479,0.81021 -1.62926,0.83115 -1.70709,0.65537 -1.76706,0.47449 -1.80595,0.28572 -1.82591,0.096 -1.82591,-0.096 -1.80596,-0.28572 -1.76705,-0.47449 -1.7071,-0.65537 -1.62926,-0.83115 -1.53341,-0.996 -1.42162,-1.15186 -1.29284,-1.2937 -1.15104,-1.42257 -0.99533,-1.53448 -0.83059,-1.63036 -0.6549,-1.70832 -0.47422,-1.76823 -0.28563,-1.80719 -0.0958,-1.82715 0.0958,-1.82719 0.28563,-1.80719 0.47422,-1.76823 0.6549,-1.70832 0.83059,-1.63036 0.99533,-1.53448 1.15104,-1.42257 0.2894,-0.2895 H 0.249665 V 296.75033 H 273.25192 Z"
       inkscape:connector-curvature="0"
       style="fill:none;stroke:#0000ff;stroke-width:0.01;stroke-opacity:1;stroke-miterlimit:4;stroke-dasharray:none" />
  </g>
</svg>
