<?xml version="1.0" standalone="no"?>
<!DOCTYPE svg PUBLIC "-//W3C//DTD SVG 1.1//EN" "http://www.w3.org/Graphics/SVG/1.1/DTD/svg11.dtd">
<svg width="298" height="501" viewBox="242 -420 298 501" xmlns="http://www.w3.org/2000/svg" version="1.1">
<title>OpenSCAD Model</title>
<path d="
M 515.117,79.8459 L 514.461,78.1358 L 513.986,76.3665 L 513.7,74.5573 L 513.604,72.728 L 513.7,70.8987
 L 513.986,69.0895 L 514.461,67.3202 L 515.117,65.6101 L 515.949,63.978 L 516.946,62.4418 L 518.099,61.0182
 L 519.394,59.723 L 520.818,58.5702 L 522.354,57.5726 L 523.986,56.741 L 525.696,56.0845 L 527.466,55.6104
 L 529.275,55.3239 L 531.104,55.228 L 532.933,55.3239 L 534.742,55.6104 L 536.512,56.0845 L 538.222,56.741
 L 539.104,57.1904 L 539.104,-392.928 L 537.854,-392.117 L 536.222,-391.285 L 534.512,-390.629 L 532.742,-390.154
 L 530.933,-389.868 L 529.104,-389.772 L 527.275,-389.868 L 525.466,-390.154 L 523.696,-390.629 L 521.986,-391.285
 L 520.354,-392.117 L 518.818,-393.114 L 517.394,-394.267 L 516.099,-395.562 L 514.946,-396.986 L 513.949,-398.522
 L 513.117,-400.154 L 512.461,-401.864 L 511.986,-403.634 L 511.7,-405.443 L 511.604,-407.272 L 511.7,-409.101
 L 511.986,-410.91 L 512.461,-412.68 L 513.117,-414.39 L 513.949,-416.022 L 514.946,-417.558 L 516.099,-418.982
 L 516.389,-419.272 L 242.104,-419.272 L 242.104,80.728 L 515.566,80.728 z
" stroke="black" fill="lightgray" stroke-width="0.5"/></svg>
