<?xml version="1.0" encoding="UTF-8" standalone="no"?>
<!-- Created with Inkscape (http://www.inkscape.org/) -->

<svg
   xmlns:dc="http://purl.org/dc/elements/1.1/"
   xmlns:cc="http://creativecommons.org/ns#"
   xmlns:rdf="http://www.w3.org/1999/02/22-rdf-syntax-ns#"
   xmlns:svg="http://www.w3.org/2000/svg"
   xmlns="http://www.w3.org/2000/svg"
   xmlns:sodipodi="http://sodipodi.sourceforge.net/DTD/sodipodi-0.dtd"
   xmlns:inkscape="http://www.inkscape.org/namespaces/inkscape"
   width="210mm"
   height="297mm"
   viewBox="0 0 210 297"
   version="1.1"
   id="svg8"
   inkscape:version="0.92.3 (2405546, 2018-03-11)"
   sodipodi:docname="bottom_x1_wider_a_ponoko.svg">
  <defs
     id="defs2" />
  <sodipodi:namedview
     id="base"
     pagecolor="#ffffff"
     bordercolor="#666666"
     borderopacity="1.0"
     inkscape:pageopacity="0.0"
     inkscape:pageshadow="2"
     inkscape:zoom="0.35"
     inkscape:cx="-77.142857"
     inkscape:cy="560"
     inkscape:document-units="mm"
     inkscape:current-layer="layer1"
     showgrid="false"
     inkscape:window-width="2256"
     inkscape:window-height="1410"
     inkscape:window-x="-11"
     inkscape:window-y="-11"
     inkscape:window-maximized="1" />
  <metadata
     id="metadata5">
    <rdf:RDF>
      <cc:Work
         rdf:about="">
        <dc:format>image/svg+xml</dc:format>
        <dc:type
           rdf:resource="http://purl.org/dc/dcmitype/StillImage" />
        <dc:title />
      </cc:Work>
    </rdf:RDF>
  </metadata>
  <g
     inkscape:label="Layer 1"
     inkscape:groupmode="layer"
     id="layer1">
    <path
       id="path3776"
       d="M 300.75033,-202.75033 H 40.323338 l 0.203756,0.76225 0.490485,3.0979 0.164137,3.13286 -0.164137,3.1329 -0.490485,3.09787 -0.811363,3.03101 -1.123411,2.92806 -1.423236,2.79518 -1.707473,2.63139 -1.972923,2.43754 -2.216711,2.21778 -2.43624,1.97507 -2.629242,1.70825 -2.793265,1.42355 -2.926726,1.12492 -3.028075,0.81119 -3.096334,0.4915 -3.130708,0.16402 -3.1305937,-0.16402 -3.0963334,-0.4915 -3.0281883,-0.81119 -1.72660391,-0.66335 v 443.10921 l 0.71261702,-0.57744 1.53363969,-0.9966 1.6293669,-0.83073 1.707285,-0.65587 1.7663741,-0.47362 1.806295,-0.28609 1.8261416,-0.096 1.826256,0.096 1.806221,0.28609 1.766373,0.47362 1.707247,0.65587 1.629406,0.83073 1.533638,0.9966 1.421235,1.15164 1.293057,1.29392 1.150881,1.42219 0.995951,1.53467 0.830229,1.63047 0.655376,1.7084 0.473318,1.76751 0.286013,1.80742 0.09584,1.82745 -0.09584,1.82749 -0.286013,1.80738 -0.473318,1.76751 -0.655376,1.70844 -0.448678,0.88122 H 300.75014 Z"
       inkscape:connector-curvature="0"
       style="fill:none;stroke:#0000ff;stroke-width:0.01;stroke-opacity:1;stroke-miterlimit:4;stroke-dasharray:none" />
  </g>
</svg>
