  0
SECTION
  2
HEADER
  9
$ACADVER
  1
AC1014
  9
$HANDSEED
  5
FFFF
  9
$MEASUREMENT
 70
     1
  0
ENDSEC
  0
SECTION
  2
TABLES
  0
TABLE
  2
VPORT
  5
8
330
0
100
AcDbSymbolTable
 70
     4
  0
VPORT
  5
2E
330
8
100
AcDbSymbolTableRecord
100
AcDbViewportTableRecord
  2
*ACTIVE
 70
     0
 10
0.0
 20
0.0
 11
1.0
 21
1.0
 12
210.0
 22
148.5
 13
0.0
 23
0.0
 14
10.0
 24
10.0
 15
10.0
 25
10.0
 16
0.0
 26
0.0
 36
1.0
 17
0.0
 27
0.0
 37
0.0
 40
341.0
 41
1.24
 42
50.0
 43
0.0
 44
0.0
 50
0.0
 51
0.0
 71
     0
 72
   100
 73
     1
 74
     3
 75
     0
 76
     0
 77
     0
 78
     0
  0
ENDTAB
  0
TABLE
  2
LTYPE
  5
5
330
0
100
AcDbSymbolTable
 70
     1
  0
LTYPE
  5
14
330
5
100
AcDbSymbolTableRecord
100
AcDbLinetypeTableRecord
  2
BYBLOCK
 70
     0
  3

 72
    65
 73
     0
 40
0.0
  0
LTYPE
  5
15
330
5
100
AcDbSymbolTableRecord
100
AcDbLinetypeTableRecord
  2
BYLAYER
 70
     0
  3

 72
    65
 73
     0
 40
0.0
  0
LTYPE
  5
16
330
5
100
AcDbSymbolTableRecord
100
AcDbLinetypeTableRecord
  2
CONTINUOUS
 70
     0
  3
Solid line
 72
    65
 73
     0
 40
0.0
  0
ENDTAB
  0
TABLE
  2
LAYER
  5
2
100
AcDbSymbolTable
 70
1
  0
LAYER
  5
50
100
AcDbSymbolTableRecord
100
AcDbLayerTableRecord
  2
0
 70
0
  6
CONTINUOUS
  0
ENDTAB
  0
TABLE
  2
STYLE
  5
3
330
0
100
AcDbSymbolTable
 70
     1
  0
STYLE
  5
11
330
3
100
AcDbSymbolTableRecord
100
AcDbTextStyleTableRecord
  2
STANDARD
 70
     0
 40
0.0
 41
1.0
 50
0.0
 71
     0
 42
2.5
  3
txt
  4

  0
ENDTAB
  0
TABLE
  2
VIEW
  5
6
330
0
100
AcDbSymbolTable
 70
     0
  0
ENDTAB
  0
TABLE
  2
UCS
  5
7
330
0
100
AcDbSymbolTable
 70
     0
  0
ENDTAB
  0
TABLE
  2
APPID
  5
9
330
0
100
AcDbSymbolTable
 70
     2
  0
APPID
  5
12
330
9
100
AcDbSymbolTableRecord
100
AcDbRegAppTableRecord
  2
ACAD
 70
     0
  0
ENDTAB
  0
TABLE
  2
DIMSTYLE
  5
A
330
0
100
AcDbSymbolTable
 70
     1
  0
DIMSTYLE
105
27
330
A
100
AcDbSymbolTableRecord
100
AcDbDimStyleTableRecord
  2
ISO-25
 70
     0
  3

  4

  5

  6

  7

 40
1.0
 41
2.5
 42
0.625
 43
3.75
 44
1.25
 45
0.0
 46
0.0
 47
0.0
 48
0.0
140
2.5
141
2.5
142
0.0
143
0.03937007874016
144
1.0
145
0.0
146
1.0
147
0.625
 71
     0
 72
     0
 73
     0
 74
     0
 75
     0
 76
     0
 77
     1
 78
     8
170
     0
171
     3
172
     1
173
     0
174
     0
175
     0
176
     0
177
     0
178
     0
270
     2
271
     2
272
     2
273
     2
274
     3
340
11
275
     0
280
     0
281
     0
282
     0
283
     0
284
     8
285
     0
286
     0
287
     3
288
     0
  0
ENDTAB
  0
TABLE
  2
BLOCK_RECORD
  5
1
330
0
100
AcDbSymbolTable
 70
     1
  0
BLOCK_RECORD
  5
1F
330
1
100
AcDbSymbolTableRecord
100
AcDbBlockTableRecord
  2
*MODEL_SPACE
  0
BLOCK_RECORD
  5
1B
330
1
100
AcDbSymbolTableRecord
100
AcDbBlockTableRecord
  2
*PAPER_SPACE
  0
ENDTAB
  0
ENDSEC
  0
SECTION
  2
BLOCKS
  0
BLOCK
  5
20
330
1F
100
AcDbEntity
  8
0
100
AcDbBlockBegin
  2
*MODEL_SPACE
 70
     0
 10
0.0
 20
0.0
 30
0.0
  3
*MODEL_SPACE
  1

  0
ENDBLK
  5
21
330
1F
100
AcDbEntity
  8
0
100
AcDbBlockEnd
  0
BLOCK
  5
1C
330
1B
100
AcDbEntity
 67
     1
  8
0
100
AcDbBlockBegin
  2
*PAPER_SPACE
  1

  0
ENDBLK
  5
1D
330
1B
100
AcDbEntity
 67
     1
  8
0
100
AcDbBlockEnd
  0
ENDSEC
  0
SECTION
  2
ENTITIES
  0
LWPOLYLINE
  5
100
100
AcDbEntity
  8
0
 62
5
100
AcDbPolyline
 90
12
 70
1
 10
43.993620
 20
156.092403
 30
0.0
 10
551.558830
 20
156.092403
 30
0.0
 10
551.558830
 20
82.204391
 30
0.0
 10
588.277388
 20
82.204391
 30
0.0
 10
588.277388
 20
411.704975
 30
0.0
 10
551.558830
 20
411.704975
 30
0.0
 10
551.558830
 20
326.833614
 30
0.0
 10
43.993620
 20
326.833614
 30
0.0
 10
43.993620
 20
411.704975
 30
0.0
 10
5.276787
 20
411.704975
 30
0.0
 10
5.276787
 20
82.204391
 30
0.0
 10
43.993620
 20
82.204391
 30
0.0
  0
LWPOLYLINE
  5
101
100
AcDbEntity
  8
0
 62
5
100
AcDbPolyline
 90
78
 70
1
 10
11.801698
 20
390.647899
 30
0.0
 10
11.372665
 20
390.739789
 30
0.0
 10
10.971909
 20
390.917509
 30
0.0
 10
10.617012
 20
391.175134
 30
0.0
 10
10.323564
 20
391.501630
 30
0.0
 10
10.104152
 20
391.881042
 30
0.0
 10
9.968668
 20
392.297417
 30
0.0
 10
9.922807
 20
392.733768
 30
0.0
 10
9.968668
 20
393.170093
 30
0.0
 10
9.989250
 20
393.233010
 30
0.0
 10
9.968668
 20
393.295902
 30
0.0
 10
9.922807
 20
393.732226
 30
0.0
 10
9.968668
 20
394.168577
 30
0.0
 10
9.989250
 20
394.231469
 30
0.0
 10
9.968668
 20
394.294360
 30
0.0
 10
9.922807
 20
394.730711
 30
0.0
 10
9.968668
 20
395.167035
 30
0.0
 10
9.989250
 20
395.229927
 30
0.0
 10
9.968668
 20
395.292845
 30
0.0
 10
9.922807
 20
395.729169
 30
0.0
 10
9.968668
 20
396.165520
 30
0.0
 10
9.989250
 20
396.228411
 30
0.0
 10
9.968668
 20
396.291303
 30
0.0
 10
9.922807
 20
396.727627
 30
0.0
 10
9.968668
 20
397.163978
 30
0.0
 10
9.989250
 20
397.226869
 30
0.0
 10
9.968668
 20
397.289761
 30
0.0
 10
9.922807
 20
397.726112
 30
0.0
 10
9.968668
 20
398.162436
 30
0.0
 10
9.989250
 20
398.225328
 30
0.0
 10
9.968668
 20
398.288219
 30
0.0
 10
9.922807
 20
398.724570
 30
0.0
 10
9.968668
 20
399.160921
 30
0.0
 10
10.104152
 20
399.577269
 30
0.0
 10
10.323564
 20
399.956708
 30
0.0
 10
10.617012
 20
400.283204
 30
0.0
 10
10.971909
 20
400.540802
 30
0.0
 10
11.372665
 20
400.718549
 30
0.0
 10
11.801698
 20
400.810439
 30
0.0
 10
12.240322
 20
400.810439
 30
0.0
 10
12.669354
 20
400.718549
 30
0.0
 10
13.070111
 20
400.540802
 30
0.0
 10
13.425007
 20
400.283204
 30
0.0
 10
13.718456
 20
399.956708
 30
0.0
 10
13.937768
 20
399.577269
 30
0.0
 10
14.073352
 20
399.160921
 30
0.0
 10
14.119213
 20
398.724570
 30
0.0
 10
14.073352
 20
398.288219
 30
0.0
 10
14.052770
 20
398.225328
 30
0.0
 10
14.073352
 20
398.162436
 30
0.0
 10
14.119213
 20
397.726112
 30
0.0
 10
14.073352
 20
397.289761
 30
0.0
 10
14.052770
 20
397.226869
 30
0.0
 10
14.073352
 20
397.163978
 30
0.0
 10
14.119213
 20
396.727627
 30
0.0
 10
14.073352
 20
396.291303
 30
0.0
 10
14.052770
 20
396.228411
 30
0.0
 10
14.073352
 20
396.165520
 30
0.0
 10
14.119213
 20
395.729169
 30
0.0
 10
14.073352
 20
395.292845
 30
0.0
 10
14.052770
 20
395.229927
 30
0.0
 10
14.073352
 20
395.167035
 30
0.0
 10
14.119213
 20
394.730711
 30
0.0
 10
14.073352
 20
394.294360
 30
0.0
 10
14.052770
 20
394.231469
 30
0.0
 10
14.073352
 20
394.168577
 30
0.0
 10
14.119213
 20
393.732226
 30
0.0
 10
14.073352
 20
393.295902
 30
0.0
 10
14.052770
 20
393.233010
 30
0.0
 10
14.073352
 20
393.170093
 30
0.0
 10
14.119213
 20
392.733768
 30
0.0
 10
14.073352
 20
392.297417
 30
0.0
 10
13.937768
 20
391.881042
 30
0.0
 10
13.718456
 20
391.501630
 30
0.0
 10
13.425007
 20
391.175134
 30
0.0
 10
13.070111
 20
390.917509
 30
0.0
 10
12.669354
 20
390.739789
 30
0.0
 10
12.240322
 20
390.647899
 30
0.0
  0
LWPOLYLINE
  5
102
100
AcDbEntity
  8
0
 62
5
100
AcDbPolyline
 90
78
 70
1
 10
580.315202
 20
390.647899
 30
0.0
 10
579.885572
 20
390.739789
 30
0.0
 10
579.484913
 20
390.917509
 30
0.0
 10
579.130213
 20
391.175134
 30
0.0
 10
578.836446
 20
391.501630
 30
0.0
 10
578.617662
 20
391.881042
 30
0.0
 10
578.481772
 20
392.297417
 30
0.0
 10
578.435814
 20
392.733768
 30
0.0
 10
578.481772
 20
393.170093
 30
0.0
 10
578.501880
 20
393.233010
 30
0.0
 10
578.481772
 20
393.295902
 30
0.0
 10
578.435814
 20
393.732226
 30
0.0
 10
578.481772
 20
394.168577
 30
0.0
 10
578.501880
 20
394.231469
 30
0.0
 10
578.481772
 20
394.294360
 30
0.0
 10
578.435814
 20
394.730711
 30
0.0
 10
578.481772
 20
395.167035
 30
0.0
 10
578.501880
 20
395.229927
 30
0.0
 10
578.481772
 20
395.292845
 30
0.0
 10
578.435814
 20
395.729169
 30
0.0
 10
578.481772
 20
396.165520
 30
0.0
 10
578.501880
 20
396.228411
 30
0.0
 10
578.481772
 20
396.291303
 30
0.0
 10
578.435814
 20
396.727627
 30
0.0
 10
578.481772
 20
397.163978
 30
0.0
 10
578.501880
 20
397.226869
 30
0.0
 10
578.481772
 20
397.289761
 30
0.0
 10
578.435814
 20
397.726112
 30
0.0
 10
578.481772
 20
398.162436
 30
0.0
 10
578.501880
 20
398.225328
 30
0.0
 10
578.481772
 20
398.288219
 30
0.0
 10
578.435814
 20
398.724570
 30
0.0
 10
578.481772
 20
399.160921
 30
0.0
 10
578.617662
 20
399.577269
 30
0.0
 10
578.836446
 20
399.956708
 30
0.0
 10
579.130213
 20
400.283204
 30
0.0
 10
579.484913
 20
400.540802
 30
0.0
 10
579.885572
 20
400.718549
 30
0.0
 10
580.315202
 20
400.810439
 30
0.0
 10
580.752823
 20
400.810439
 30
0.0
 10
581.182480
 20
400.718549
 30
0.0
 10
581.583112
 20
400.540802
 30
0.0
 10
581.937813
 20
400.283204
 30
0.0
 10
582.231553
 20
399.956708
 30
0.0
 10
582.450390
 20
399.577269
 30
0.0
 10
582.586280
 20
399.160921
 30
0.0
 10
582.632211
 20
398.724570
 30
0.0
 10
582.586280
 20
398.288219
 30
0.0
 10
582.566171
 20
398.225328
 30
0.0
 10
582.586280
 20
398.162436
 30
0.0
 10
582.632211
 20
397.726112
 30
0.0
 10
582.586280
 20
397.289761
 30
0.0
 10
582.566171
 20
397.226869
 30
0.0
 10
582.586280
 20
397.163978
 30
0.0
 10
582.632211
 20
396.727627
 30
0.0
 10
582.586280
 20
396.291303
 30
0.0
 10
582.566171
 20
396.228411
 30
0.0
 10
582.586280
 20
396.165520
 30
0.0
 10
582.632211
 20
395.729169
 30
0.0
 10
582.586280
 20
395.292845
 30
0.0
 10
582.566171
 20
395.229927
 30
0.0
 10
582.586280
 20
395.167035
 30
0.0
 10
582.632211
 20
394.730711
 30
0.0
 10
582.586280
 20
394.294360
 30
0.0
 10
582.566171
 20
394.231469
 30
0.0
 10
582.586280
 20
394.168577
 30
0.0
 10
582.632211
 20
393.732226
 30
0.0
 10
582.586280
 20
393.295902
 30
0.0
 10
582.566171
 20
393.233010
 30
0.0
 10
582.586280
 20
393.170093
 30
0.0
 10
582.632211
 20
392.733768
 30
0.0
 10
582.586280
 20
392.297417
 30
0.0
 10
582.450390
 20
391.881042
 30
0.0
 10
582.231553
 20
391.501630
 30
0.0
 10
581.937813
 20
391.175134
 30
0.0
 10
581.583112
 20
390.917509
 30
0.0
 10
581.182480
 20
390.739789
 30
0.0
 10
580.752823
 20
390.647899
 30
0.0
  0
LWPOLYLINE
  5
103
100
AcDbEntity
  8
0
 62
5
100
AcDbPolyline
 90
30
 70
1
 10
559.905694
 20
367.380176
 30
0.0
 10
559.618938
 20
367.441057
 30
0.0
 10
559.352159
 20
367.559881
 30
0.0
 10
559.115357
 20
367.731622
 30
0.0
 10
558.919539
 20
367.948289
 30
0.0
 10
558.773648
 20
368.201893
 30
0.0
 10
558.683716
 20
368.479493
 30
0.0
 10
558.652759
 20
368.770059
 30
0.0
 10
558.683716
 20
369.060598
 30
0.0
 10
558.773648
 20
369.338199
 30
0.0
 10
558.919539
 20
369.591802
 30
0.0
 10
559.115357
 20
369.808469
 30
0.0
 10
559.352159
 20
369.980210
 30
0.0
 10
559.618938
 20
370.099034
 30
0.0
 10
559.905694
 20
370.159915
 30
0.0
 10
560.197423
 20
370.159915
 30
0.0
 10
560.484179
 20
370.099034
 30
0.0
 10
560.750958
 20
369.980210
 30
0.0
 10
560.987760
 20
369.808469
 30
0.0
 10
561.183578
 20
369.591802
 30
0.0
 10
561.329470
 20
369.338199
 30
0.0
 10
561.419375
 20
369.060598
 30
0.0
 10
561.450358
 20
368.770059
 30
0.0
 10
561.419375
 20
368.479493
 30
0.0
 10
561.329470
 20
368.201893
 30
0.0
 10
561.183578
 20
367.948289
 30
0.0
 10
560.987760
 20
367.731622
 30
0.0
 10
560.750958
 20
367.559881
 30
0.0
 10
560.484179
 20
367.441057
 30
0.0
 10
560.197423
 20
367.380176
 30
0.0
  0
LWPOLYLINE
  5
104
100
AcDbEntity
  8
0
 62
5
100
AcDbPolyline
 90
30
 70
1
 10
33.356434
 20
355.398335
 30
0.0
 10
33.070377
 20
355.459215
 30
0.0
 10
32.803206
 20
355.578040
 30
0.0
 10
32.566610
 20
355.749781
 30
0.0
 10
32.370977
 20
355.966448
 30
0.0
 10
32.224702
 20
356.220051
 30
0.0
 10
32.134381
 20
356.497652
 30
0.0
 10
32.103806
 20
356.788217
 30
0.0
 10
32.134381
 20
357.078783
 30
0.0
 10
32.224702
 20
357.356357
 30
0.0
 10
32.370977
 20
357.609960
 30
0.0
 10
32.566610
 20
357.826627
 30
0.0
 10
32.803206
 20
357.998369
 30
0.0
 10
33.070377
 20
358.117193
 30
0.0
 10
33.356434
 20
358.178074
 30
0.0
 10
33.648785
 20
358.178074
 30
0.0
 10
33.934839
 20
358.117193
 30
0.0
 10
34.202010
 20
357.998369
 30
0.0
 10
34.438606
 20
357.826627
 30
0.0
 10
34.634239
 20
357.609960
 30
0.0
 10
34.780514
 20
357.356357
 30
0.0
 10
34.870835
 20
357.078783
 30
0.0
 10
34.901412
 20
356.788217
 30
0.0
 10
34.870835
 20
356.497652
 30
0.0
 10
34.780514
 20
356.220051
 30
0.0
 10
34.634239
 20
355.966448
 30
0.0
 10
34.438606
 20
355.749781
 30
0.0
 10
34.202010
 20
355.578040
 30
0.0
 10
33.934839
 20
355.459215
 30
0.0
 10
33.648785
 20
355.398335
 30
0.0
  0
LWPOLYLINE
  5
105
100
AcDbEntity
  8
0
 62
5
100
AcDbPolyline
 90
30
 70
1
 10
559.905694
 20
319.452808
 30
0.0
 10
559.618938
 20
319.513701
 30
0.0
 10
559.352159
 20
319.632523
 30
0.0
 10
559.115357
 20
319.804256
 30
0.0
 10
558.919539
 20
320.020929
 30
0.0
 10
558.773648
 20
320.274548
 30
0.0
 10
558.683716
 20
320.552133
 30
0.0
 10
558.652759
 20
320.842688
 30
0.0
 10
558.683716
 20
321.133242
 30
0.0
 10
558.773648
 20
321.410830
 30
0.0
 10
558.919539
 20
321.664438
 30
0.0
 10
559.115357
 20
321.881119
 30
0.0
 10
559.352159
 20
322.052855
 30
0.0
 10
559.618938
 20
322.171674
 30
0.0
 10
559.905694
 20
322.232570
 30
0.0
 10
560.197423
 20
322.232570
 30
0.0
 10
560.484179
 20
322.171674
 30
0.0
 10
560.750958
 20
322.052855
 30
0.0
 10
560.987760
 20
321.881119
 30
0.0
 10
561.183578
 20
321.664438
 30
0.0
 10
561.329470
 20
321.410830
 30
0.0
 10
561.419375
 20
321.133242
 30
0.0
 10
561.450358
 20
320.842688
 30
0.0
 10
561.419375
 20
320.552133
 30
0.0
 10
561.329470
 20
320.274548
 30
0.0
 10
561.183578
 20
320.020929
 30
0.0
 10
560.987760
 20
319.804256
 30
0.0
 10
560.750958
 20
319.632523
 30
0.0
 10
560.484179
 20
319.513701
 30
0.0
 10
560.197423
 20
319.452808
 30
0.0
  0
LWPOLYLINE
  5
106
100
AcDbEntity
  8
0
 62
5
100
AcDbPolyline
 90
30
 70
1
 10
33.356434
 20
310.466428
 30
0.0
 10
33.070377
 20
310.527324
 30
0.0
 10
32.803206
 20
310.646143
 30
0.0
 10
32.566610
 20
310.817879
 30
0.0
 10
32.370977
 20
311.034549
 30
0.0
 10
32.224702
 20
311.288168
 30
0.0
 10
32.134381
 20
311.565745
 30
0.0
 10
32.103806
 20
311.856311
 30
0.0
 10
32.134381
 20
312.146865
 30
0.0
 10
32.224702
 20
312.424450
 30
0.0
 10
32.370977
 20
312.678059
 30
0.0
 10
32.566610
 20
312.894731
 30
0.0
 10
32.803206
 20
313.066475
 30
0.0
 10
33.070377
 20
313.185294
 30
0.0
 10
33.356434
 20
313.246191
 30
0.0
 10
33.648785
 20
313.246191
 30
0.0
 10
33.934839
 20
313.185294
 30
0.0
 10
34.202010
 20
313.066475
 30
0.0
 10
34.438606
 20
312.894731
 30
0.0
 10
34.634239
 20
312.678059
 30
0.0
 10
34.780514
 20
312.424450
 30
0.0
 10
34.870835
 20
312.146865
 30
0.0
 10
34.901412
 20
311.856311
 30
0.0
 10
34.870835
 20
311.565745
 30
0.0
 10
34.780514
 20
311.288168
 30
0.0
 10
34.634239
 20
311.034549
 30
0.0
 10
34.438606
 20
310.817879
 30
0.0
 10
34.202010
 20
310.646143
 30
0.0
 10
33.934839
 20
310.527324
 30
0.0
 10
33.648785
 20
310.466428
 30
0.0
  0
LWPOLYLINE
  5
107
100
AcDbEntity
  8
0
 62
5
100
AcDbPolyline
 90
30
 70
1
 10
572.742669
 20
283.065958
 30
0.0
 10
572.160162
 20
283.188770
 30
0.0
 10
571.616655
 20
283.431398
 30
0.0
 10
571.135087
 20
283.780868
 30
0.0
 10
570.736413
 20
284.223201
 30
0.0
 10
570.438650
 20
284.738416
 30
0.0
 10
570.254818
 20
285.303566
 30
0.0
 10
570.192853
 20
285.895666
 30
0.0
 10
570.254818
 20
286.487767
 30
0.0
 10
570.438650
 20
287.052906
 30
0.0
 10
570.736413
 20
287.568132
 30
0.0
 10
571.135087
 20
288.010465
 30
0.0
 10
571.616655
 20
288.359935
 30
0.0
 10
572.160162
 20
288.602563
 30
0.0
 10
572.742669
 20
288.725375
 30
0.0
 10
573.338166
 20
288.725375
 30
0.0
 10
573.920673
 20
288.602563
 30
0.0
 10
574.464206
 20
288.359935
 30
0.0
 10
574.945801
 20
288.010465
 30
0.0
 10
575.344449
 20
287.568132
 30
0.0
 10
575.642211
 20
287.052906
 30
0.0
 10
575.826043
 20
286.487767
 30
0.0
 10
575.888009
 20
285.895666
 30
0.0
 10
575.826043
 20
285.303566
 30
0.0
 10
575.642211
 20
284.738416
 30
0.0
 10
575.344449
 20
284.223201
 30
0.0
 10
574.945801
 20
283.780868
 30
0.0
 10
574.464206
 20
283.431398
 30
0.0
 10
573.920673
 20
283.188770
 30
0.0
 10
573.338166
 20
283.065958
 30
0.0
  0
LWPOLYLINE
  5
108
100
AcDbEntity
  8
0
 62
5
100
AcDbPolyline
 90
30
 70
1
 10
21.215234
 20
283.065958
 30
0.0
 10
20.632933
 20
283.188770
 30
0.0
 10
20.089099
 20
283.431398
 30
0.0
 10
19.607511
 20
283.780868
 30
0.0
 10
19.209152
 20
284.223201
 30
0.0
 10
18.911508
 20
284.738416
 30
0.0
 10
18.727565
 20
285.303566
 30
0.0
 10
18.665318
 20
285.895666
 30
0.0
 10
18.727565
 20
286.487767
 30
0.0
 10
18.911508
 20
287.052906
 30
0.0
 10
19.209152
 20
287.568132
 30
0.0
 10
19.607511
 20
288.010465
 30
0.0
 10
20.089099
 20
288.359935
 30
0.0
 10
20.632933
 20
288.602563
 30
0.0
 10
21.215234
 20
288.725375
 30
0.0
 10
21.810524
 20
288.725375
 30
0.0
 10
22.392825
 20
288.602563
 30
0.0
 10
22.936660
 20
288.359935
 30
0.0
 10
23.418247
 20
288.010465
 30
0.0
 10
23.816606
 20
287.568132
 30
0.0
 10
24.114251
 20
287.052906
 30
0.0
 10
24.298193
 20
286.487767
 30
0.0
 10
24.360440
 20
285.895666
 30
0.0
 10
24.298193
 20
285.303566
 30
0.0
 10
24.114251
 20
284.738416
 30
0.0
 10
23.816606
 20
284.223201
 30
0.0
 10
23.418247
 20
283.780868
 30
0.0
 10
22.936660
 20
283.431398
 30
0.0
 10
22.392825
 20
283.188770
 30
0.0
 10
21.810524
 20
283.065958
 30
0.0
  0
LWPOLYLINE
  5
109
100
AcDbEntity
  8
0
 62
5
100
AcDbPolyline
 90
30
 70
1
 10
580.887708
 20
283.507281
 30
0.0
 10
580.600952
 20
283.568177
 30
0.0
 10
580.334173
 20
283.686996
 30
0.0
 10
580.097397
 20
283.858732
 30
0.0
 10
579.901553
 20
284.075402
 30
0.0
 10
579.755688
 20
284.329021
 30
0.0
 10
579.665756
 20
284.606598
 30
0.0
 10
579.634773
 20
284.897163
 30
0.0
 10
579.665756
 20
285.187718
 30
0.0
 10
579.755688
 20
285.465292
 30
0.0
 10
579.901553
 20
285.718911
 30
0.0
 10
580.097397
 20
285.935584
 30
0.0
 10
580.334173
 20
286.107328
 30
0.0
 10
580.600952
 20
286.226147
 30
0.0
 10
580.887708
 20
286.287043
 30
0.0
 10
581.179464
 20
286.287043
 30
0.0
 10
581.466219
 20
286.226147
 30
0.0
 10
581.732999
 20
286.107328
 30
0.0
 10
581.969774
 20
285.935584
 30
0.0
 10
582.165619
 20
285.718911
 30
0.0
 10
582.311484
 20
285.465292
 30
0.0
 10
582.401389
 20
285.187718
 30
0.0
 10
582.432398
 20
284.897163
 30
0.0
 10
582.401389
 20
284.606598
 30
0.0
 10
582.311484
 20
284.329021
 30
0.0
 10
582.165619
 20
284.075402
 30
0.0
 10
581.969774
 20
283.858732
 30
0.0
 10
581.732999
 20
283.686996
 30
0.0
 10
581.466219
 20
283.568177
 30
0.0
 10
581.179464
 20
283.507281
 30
0.0
  0
LWPOLYLINE
  5
10a
100
AcDbEntity
  8
0
 62
5
100
AcDbPolyline
 90
30
 70
1
 10
13.373551
 20
283.507281
 30
0.0
 10
13.087496
 20
283.568177
 30
0.0
 10
12.820325
 20
283.686996
 30
0.0
 10
12.583728
 20
283.858732
 30
0.0
 10
12.388096
 20
284.075402
 30
0.0
 10
12.241821
 20
284.329021
 30
0.0
 10
12.151498
 20
284.606598
 30
0.0
 10
12.120924
 20
284.897163
 30
0.0
 10
12.151498
 20
285.187718
 30
0.0
 10
12.241821
 20
285.465292
 30
0.0
 10
12.388096
 20
285.718911
 30
0.0
 10
12.583728
 20
285.935584
 30
0.0
 10
12.820325
 20
286.107328
 30
0.0
 10
13.087496
 20
286.226147
 30
0.0
 10
13.373551
 20
286.287043
 30
0.0
 10
13.665901
 20
286.287043
 30
0.0
 10
13.951956
 20
286.226147
 30
0.0
 10
14.219127
 20
286.107328
 30
0.0
 10
14.455724
 20
285.935584
 30
0.0
 10
14.651357
 20
285.718911
 30
0.0
 10
14.797631
 20
285.465292
 30
0.0
 10
14.887954
 20
285.187718
 30
0.0
 10
14.918528
 20
284.897163
 30
0.0
 10
14.887954
 20
284.606598
 30
0.0
 10
14.797631
 20
284.329021
 30
0.0
 10
14.651357
 20
284.075402
 30
0.0
 10
14.455724
 20
283.858732
 30
0.0
 10
14.219127
 20
283.686996
 30
0.0
 10
13.951956
 20
283.568177
 30
0.0
 10
13.665901
 20
283.507281
 30
0.0
  0
LWPOLYLINE
  5
10b
100
AcDbEntity
  8
0
 62
5
100
AcDbPolyline
 90
30
 70
1
 10
580.887708
 20
273.522419
 30
0.0
 10
580.600952
 20
273.583313
 30
0.0
 10
580.334173
 20
273.702132
 30
0.0
 10
580.097397
 20
273.873878
 30
0.0
 10
579.901553
 20
274.090548
 30
0.0
 10
579.755688
 20
274.344167
 30
0.0
 10
579.665756
 20
274.621744
 30
0.0
 10
579.634773
 20
274.912299
 30
0.0
 10
579.665756
 20
275.202864
 30
0.0
 10
579.755688
 20
275.480439
 30
0.0
 10
579.901553
 20
275.734058
 30
0.0
 10
580.097397
 20
275.950730
 30
0.0
 10
580.334173
 20
276.122466
 30
0.0
 10
580.600952
 20
276.241285
 30
0.0
 10
580.887708
 20
276.302179
 30
0.0
 10
581.179464
 20
276.302179
 30
0.0
 10
581.466219
 20
276.241285
 30
0.0
 10
581.732999
 20
276.122466
 30
0.0
 10
581.969774
 20
275.950730
 30
0.0
 10
582.165619
 20
275.734058
 30
0.0
 10
582.311484
 20
275.480439
 30
0.0
 10
582.401389
 20
275.202864
 30
0.0
 10
582.432398
 20
274.912299
 30
0.0
 10
582.401389
 20
274.621744
 30
0.0
 10
582.311484
 20
274.344167
 30
0.0
 10
582.165619
 20
274.090548
 30
0.0
 10
581.969774
 20
273.873878
 30
0.0
 10
581.732999
 20
273.702132
 30
0.0
 10
581.466219
 20
273.583313
 30
0.0
 10
581.179464
 20
273.522419
 30
0.0
  0
LWPOLYLINE
  5
10c
100
AcDbEntity
  8
0
 62
5
100
AcDbPolyline
 90
30
 70
1
 10
13.373551
 20
273.522419
 30
0.0
 10
13.087496
 20
273.583313
 30
0.0
 10
12.820325
 20
273.702132
 30
0.0
 10
12.583728
 20
273.873878
 30
0.0
 10
12.388096
 20
274.090548
 30
0.0
 10
12.241821
 20
274.344167
 30
0.0
 10
12.151498
 20
274.621744
 30
0.0
 10
12.120924
 20
274.912299
 30
0.0
 10
12.151498
 20
275.202864
 30
0.0
 10
12.241821
 20
275.480439
 30
0.0
 10
12.388096
 20
275.734058
 30
0.0
 10
12.583728
 20
275.950730
 30
0.0
 10
12.820325
 20
276.122466
 30
0.0
 10
13.087496
 20
276.241285
 30
0.0
 10
13.373551
 20
276.302179
 30
0.0
 10
13.665901
 20
276.302179
 30
0.0
 10
13.951956
 20
276.241285
 30
0.0
 10
14.219127
 20
276.122466
 30
0.0
 10
14.455724
 20
275.950730
 30
0.0
 10
14.651357
 20
275.734058
 30
0.0
 10
14.797631
 20
275.480439
 30
0.0
 10
14.887954
 20
275.202864
 30
0.0
 10
14.918528
 20
274.912299
 30
0.0
 10
14.887954
 20
274.621744
 30
0.0
 10
14.797631
 20
274.344167
 30
0.0
 10
14.651357
 20
274.090548
 30
0.0
 10
14.455724
 20
273.873878
 30
0.0
 10
14.219127
 20
273.702132
 30
0.0
 10
13.951956
 20
273.583313
 30
0.0
 10
13.665901
 20
273.522419
 30
0.0
  0
LWPOLYLINE
  5
10d
100
AcDbEntity
  8
0
 62
5
100
AcDbPolyline
 90
78
 70
1
 10
11.801698
 20
239.876415
 30
0.0
 10
11.372665
 20
239.968307
 30
0.0
 10
10.971909
 20
240.146041
 30
0.0
 10
10.617012
 20
240.403650
 30
0.0
 10
10.323564
 20
240.730151
 30
0.0
 10
10.104152
 20
241.109579
 30
0.0
 10
9.968668
 20
241.525944
 30
0.0
 10
9.922807
 20
241.962286
 30
0.0
 10
9.968668
 20
242.398619
 30
0.0
 10
9.989250
 20
242.461513
 30
0.0
 10
9.968668
 20
242.524407
 30
0.0
 10
9.922807
 20
242.960750
 30
0.0
 10
9.968668
 20
243.397093
 30
0.0
 10
9.989250
 20
243.459987
 30
0.0
 10
9.968668
 20
243.522881
 30
0.0
 10
9.922807
 20
243.959213
 30
0.0
 10
9.968668
 20
244.395556
 30
0.0
 10
9.989250
 20
244.458450
 30
0.0
 10
9.968668
 20
244.521344
 30
0.0
 10
9.922807
 20
244.957687
 30
0.0
 10
9.968668
 20
245.394020
 30
0.0
 10
9.989250
 20
245.456916
 30
0.0
 10
9.968668
 20
245.519810
 30
0.0
 10
9.922807
 20
245.956153
 30
0.0
 10
9.968668
 20
246.392486
 30
0.0
 10
9.989250
 20
246.455380
 30
0.0
 10
9.968668
 20
246.518274
 30
0.0
 10
9.922807
 20
246.954617
 30
0.0
 10
9.968668
 20
247.390960
 30
0.0
 10
9.989250
 20
247.453854
 30
0.0
 10
9.968668
 20
247.516748
 30
0.0
 10
9.922807
 20
247.953080
 30
0.0
 10
9.968668
 20
248.389423
 30
0.0
 10
10.104152
 20
248.805787
 30
0.0
 10
10.323564
 20
249.185216
 30
0.0
 10
10.617012
 20
249.511717
 30
0.0
 10
10.971909
 20
249.769336
 30
0.0
 10
11.372665
 20
249.947060
 30
0.0
 10
11.801698
 20
250.038952
 30
0.0
 10
12.240322
 20
250.038952
 30
0.0
 10
12.669354
 20
249.947060
 30
0.0
 10
13.070111
 20
249.769336
 30
0.0
 10
13.425007
 20
249.511717
 30
0.0
 10
13.718456
 20
249.185216
 30
0.0
 10
13.937768
 20
248.805787
 30
0.0
 10
14.073352
 20
248.389423
 30
0.0
 10
14.119213
 20
247.953080
 30
0.0
 10
14.073352
 20
247.516748
 30
0.0
 10
14.052770
 20
247.453854
 30
0.0
 10
14.073352
 20
247.390960
 30
0.0
 10
14.119213
 20
246.954617
 30
0.0
 10
14.073352
 20
246.518274
 30
0.0
 10
14.052770
 20
246.455380
 30
0.0
 10
14.073352
 20
246.392486
 30
0.0
 10
14.119213
 20
245.956153
 30
0.0
 10
14.073352
 20
245.519810
 30
0.0
 10
14.052770
 20
245.456916
 30
0.0
 10
14.073352
 20
245.394020
 30
0.0
 10
14.119213
 20
244.957687
 30
0.0
 10
14.073352
 20
244.521344
 30
0.0
 10
14.052770
 20
244.458450
 30
0.0
 10
14.073352
 20
244.395556
 30
0.0
 10
14.119213
 20
243.959213
 30
0.0
 10
14.073352
 20
243.522881
 30
0.0
 10
14.052770
 20
243.459987
 30
0.0
 10
14.073352
 20
243.397093
 30
0.0
 10
14.119213
 20
242.960750
 30
0.0
 10
14.073352
 20
242.524407
 30
0.0
 10
14.052770
 20
242.461513
 30
0.0
 10
14.073352
 20
242.398619
 30
0.0
 10
14.119213
 20
241.962286
 30
0.0
 10
14.073352
 20
241.525944
 30
0.0
 10
13.937768
 20
241.109579
 30
0.0
 10
13.718456
 20
240.730151
 30
0.0
 10
13.425007
 20
240.403650
 30
0.0
 10
13.070111
 20
240.146041
 30
0.0
 10
12.669354
 20
239.968307
 30
0.0
 10
12.240322
 20
239.876415
 30
0.0
  0
LWPOLYLINE
  5
10e
100
AcDbEntity
  8
0
 62
5
100
AcDbPolyline
 90
78
 70
1
 10
580.315202
 20
239.876415
 30
0.0
 10
579.885572
 20
239.968307
 30
0.0
 10
579.484913
 20
240.146041
 30
0.0
 10
579.130213
 20
240.403650
 30
0.0
 10
578.836446
 20
240.730151
 30
0.0
 10
578.617662
 20
241.109579
 30
0.0
 10
578.481772
 20
241.525944
 30
0.0
 10
578.435814
 20
241.962286
 30
0.0
 10
578.481772
 20
242.398619
 30
0.0
 10
578.501880
 20
242.461513
 30
0.0
 10
578.481772
 20
242.524407
 30
0.0
 10
578.435814
 20
242.960750
 30
0.0
 10
578.481772
 20
243.397093
 30
0.0
 10
578.501880
 20
243.459987
 30
0.0
 10
578.481772
 20
243.522881
 30
0.0
 10
578.435814
 20
243.959213
 30
0.0
 10
578.481772
 20
244.395556
 30
0.0
 10
578.501880
 20
244.458450
 30
0.0
 10
578.481772
 20
244.521344
 30
0.0
 10
578.435814
 20
244.957687
 30
0.0
 10
578.481772
 20
245.394020
 30
0.0
 10
578.501880
 20
245.456916
 30
0.0
 10
578.481772
 20
245.519810
 30
0.0
 10
578.435814
 20
245.956153
 30
0.0
 10
578.481772
 20
246.392486
 30
0.0
 10
578.501880
 20
246.455380
 30
0.0
 10
578.481772
 20
246.518274
 30
0.0
 10
578.435814
 20
246.954617
 30
0.0
 10
578.481772
 20
247.390960
 30
0.0
 10
578.501880
 20
247.453854
 30
0.0
 10
578.481772
 20
247.516748
 30
0.0
 10
578.435814
 20
247.953080
 30
0.0
 10
578.481772
 20
248.389423
 30
0.0
 10
578.617662
 20
248.805787
 30
0.0
 10
578.836446
 20
249.185216
 30
0.0
 10
579.130213
 20
249.511717
 30
0.0
 10
579.484913
 20
249.769336
 30
0.0
 10
579.885572
 20
249.947060
 30
0.0
 10
580.315202
 20
250.038952
 30
0.0
 10
580.752823
 20
250.038952
 30
0.0
 10
581.182480
 20
249.947060
 30
0.0
 10
581.583112
 20
249.769336
 30
0.0
 10
581.937813
 20
249.511717
 30
0.0
 10
582.231553
 20
249.185216
 30
0.0
 10
582.450390
 20
248.805787
 30
0.0
 10
582.586280
 20
248.389423
 30
0.0
 10
582.632211
 20
247.953080
 30
0.0
 10
582.586280
 20
247.516748
 30
0.0
 10
582.566171
 20
247.453854
 30
0.0
 10
582.586280
 20
247.390960
 30
0.0
 10
582.632211
 20
246.954617
 30
0.0
 10
582.586280
 20
246.518274
 30
0.0
 10
582.566171
 20
246.455380
 30
0.0
 10
582.586280
 20
246.392486
 30
0.0
 10
582.632211
 20
245.956153
 30
0.0
 10
582.586280
 20
245.519810
 30
0.0
 10
582.566171
 20
245.456916
 30
0.0
 10
582.586280
 20
245.394020
 30
0.0
 10
582.632211
 20
244.957687
 30
0.0
 10
582.586280
 20
244.521344
 30
0.0
 10
582.566171
 20
244.458450
 30
0.0
 10
582.586280
 20
244.395556
 30
0.0
 10
582.632211
 20
243.959213
 30
0.0
 10
582.586280
 20
243.522881
 30
0.0
 10
582.566171
 20
243.459987
 30
0.0
 10
582.586280
 20
243.397093
 30
0.0
 10
582.632211
 20
242.960750
 30
0.0
 10
582.586280
 20
242.524407
 30
0.0
 10
582.566171
 20
242.461513
 30
0.0
 10
582.586280
 20
242.398619
 30
0.0
 10
582.632211
 20
241.962286
 30
0.0
 10
582.586280
 20
241.525944
 30
0.0
 10
582.450390
 20
241.109579
 30
0.0
 10
582.231553
 20
240.730151
 30
0.0
 10
581.937813
 20
240.403650
 30
0.0
 10
581.583112
 20
240.146041
 30
0.0
 10
581.182480
 20
239.968307
 30
0.0
 10
580.752823
 20
239.876415
 30
0.0
  0
LWPOLYLINE
  5
10f
100
AcDbEntity
  8
0
 62
5
100
AcDbPolyline
 90
30
 70
1
 10
559.905694
 20
129.740044
 30
0.0
 10
559.618938
 20
129.800747
 30
0.0
 10
559.352159
 20
129.919669
 30
0.0
 10
559.115357
 20
130.091408
 30
0.0
 10
558.919539
 20
130.308578
 30
0.0
 10
558.773648
 20
130.561694
 30
0.0
 10
558.683716
 20
130.839572
 30
0.0
 10
558.652759
 20
131.130233
 30
0.0
 10
558.683716
 20
131.420891
 30
0.0
 10
558.773648
 20
131.698772
 30
0.0
 10
558.919539
 20
131.951889
 30
0.0
 10
559.115357
 20
132.169059
 30
0.0
 10
559.352159
 20
132.340797
 30
0.0
 10
559.618938
 20
132.459717
 30
0.0
 10
559.905694
 20
132.520423
 30
0.0
 10
560.197423
 20
132.520423
 30
0.0
 10
560.484179
 20
132.459717
 30
0.0
 10
560.750958
 20
132.340797
 30
0.0
 10
560.987760
 20
132.169059
 30
0.0
 10
561.183578
 20
131.951889
 30
0.0
 10
561.329470
 20
131.698772
 30
0.0
 10
561.419375
 20
131.420891
 30
0.0
 10
561.450358
 20
131.130233
 30
0.0
 10
561.419375
 20
130.839572
 30
0.0
 10
561.329470
 20
130.561694
 30
0.0
 10
561.183578
 20
130.308578
 30
0.0
 10
560.987760
 20
130.091408
 30
0.0
 10
560.750958
 20
129.919669
 30
0.0
 10
560.484179
 20
129.800747
 30
0.0
 10
560.197423
 20
129.740044
 30
0.0
  0
LWPOLYLINE
  5
110
100
AcDbEntity
  8
0
 62
5
100
AcDbPolyline
 90
30
 70
1
 10
33.356434
 20
123.749125
 30
0.0
 10
33.070377
 20
123.809829
 30
0.0
 10
32.803206
 20
123.928748
 30
0.0
 10
32.566610
 20
124.100489
 30
0.0
 10
32.370977
 20
124.317659
 30
0.0
 10
32.224702
 20
124.570776
 30
0.0
 10
32.134381
 20
124.848654
 30
0.0
 10
32.103806
 20
125.139315
 30
0.0
 10
32.134381
 20
125.429973
 30
0.0
 10
32.224702
 20
125.707852
 30
0.0
 10
32.370977
 20
125.960968
 30
0.0
 10
32.566610
 20
126.178141
 30
0.0
 10
32.803206
 20
126.349879
 30
0.0
 10
33.070377
 20
126.468799
 30
0.0
 10
33.356434
 20
126.529505
 30
0.0
 10
33.648785
 20
126.529505
 30
0.0
 10
33.934839
 20
126.468799
 30
0.0
 10
34.202010
 20
126.349879
 30
0.0
 10
34.438606
 20
126.178141
 30
0.0
 10
34.634239
 20
125.960968
 30
0.0
 10
34.780514
 20
125.707852
 30
0.0
 10
34.870835
 20
125.429973
 30
0.0
 10
34.901412
 20
125.139315
 30
0.0
 10
34.870835
 20
124.848654
 30
0.0
 10
34.780514
 20
124.570776
 30
0.0
 10
34.634239
 20
124.317659
 30
0.0
 10
34.438606
 20
124.100489
 30
0.0
 10
34.202010
 20
123.928748
 30
0.0
 10
33.934839
 20
123.809829
 30
0.0
 10
33.648785
 20
123.749125
 30
0.0
  0
LWPOLYLINE
  5
111
100
AcDbEntity
  8
0
 62
5
100
AcDbPolyline
 90
30
 70
1
 10
21.215234
 20
103.337960
 30
0.0
 10
20.632933
 20
103.461643
 30
0.0
 10
20.089099
 20
103.703616
 30
0.0
 10
19.607511
 20
104.053306
 30
0.0
 10
19.209152
 20
104.495406
 30
0.0
 10
18.911508
 20
105.010615
 30
0.0
 10
18.727565
 20
105.576408
 30
0.0
 10
18.665318
 20
106.168071
 30
0.0
 10
18.727565
 20
106.759714
 30
0.0
 10
18.911508
 20
107.325507
 30
0.0
 10
19.209152
 20
107.840726
 30
0.0
 10
19.607511
 20
108.282816
 30
0.0
 10
20.089099
 20
108.632505
 30
0.0
 10
20.632933
 20
108.874479
 30
0.0
 10
21.215234
 20
108.998161
 30
0.0
 10
21.810524
 20
108.998161
 30
0.0
 10
22.392825
 20
108.874479
 30
0.0
 10
22.936660
 20
108.632505
 30
0.0
 10
23.418247
 20
108.282816
 30
0.0
 10
23.816606
 20
107.840726
 30
0.0
 10
24.114251
 20
107.325507
 30
0.0
 10
24.298193
 20
106.759714
 30
0.0
 10
24.360440
 20
106.168071
 30
0.0
 10
24.298193
 20
105.576408
 30
0.0
 10
24.114251
 20
105.010615
 30
0.0
 10
23.816606
 20
104.495406
 30
0.0
 10
23.418247
 20
104.053306
 30
0.0
 10
22.936660
 20
103.703616
 30
0.0
 10
22.392825
 20
103.461643
 30
0.0
 10
21.810524
 20
103.337960
 30
0.0
  0
LWPOLYLINE
  5
112
100
AcDbEntity
  8
0
 62
5
100
AcDbPolyline
 90
30
 70
1
 10
572.742669
 20
103.337960
 30
0.0
 10
572.160162
 20
103.461643
 30
0.0
 10
571.616655
 20
103.703616
 30
0.0
 10
571.135087
 20
104.053306
 30
0.0
 10
570.736413
 20
104.495406
 30
0.0
 10
570.438650
 20
105.010615
 30
0.0
 10
570.254818
 20
105.576408
 30
0.0
 10
570.192853
 20
106.168071
 30
0.0
 10
570.254818
 20
106.759714
 30
0.0
 10
570.438650
 20
107.325507
 30
0.0
 10
570.736413
 20
107.840726
 30
0.0
 10
571.135087
 20
108.282816
 30
0.0
 10
571.616655
 20
108.632505
 30
0.0
 10
572.160162
 20
108.874479
 30
0.0
 10
572.742669
 20
108.998161
 30
0.0
 10
573.338166
 20
108.998161
 30
0.0
 10
573.920673
 20
108.874479
 30
0.0
 10
574.464206
 20
108.632505
 30
0.0
 10
574.945801
 20
108.282816
 30
0.0
 10
575.344449
 20
107.840726
 30
0.0
 10
575.642211
 20
107.325507
 30
0.0
 10
575.826043
 20
106.759714
 30
0.0
 10
575.888009
 20
106.168071
 30
0.0
 10
575.826043
 20
105.576408
 30
0.0
 10
575.642211
 20
105.010615
 30
0.0
 10
575.344449
 20
104.495406
 30
0.0
 10
574.945801
 20
104.053306
 30
0.0
 10
574.464206
 20
103.703616
 30
0.0
 10
573.920673
 20
103.461643
 30
0.0
 10
573.338166
 20
103.337960
 30
0.0
  0
LWPOLYLINE
  5
113
100
AcDbEntity
  8
0
 62
5
100
AcDbPolyline
 90
30
 70
1
 10
559.905694
 20
96.789965
 30
0.0
 10
559.618938
 20
96.850723
 30
0.0
 10
559.352159
 20
96.969582
 30
0.0
 10
559.115357
 20
97.141362
 30
0.0
 10
558.919539
 20
97.358533
 30
0.0
 10
558.773648
 20
97.611609
 30
0.0
 10
558.683716
 20
97.889558
 30
0.0
 10
558.652759
 20
98.180198
 30
0.0
 10
558.683716
 20
98.470817
 30
0.0
 10
558.773648
 20
98.748756
 30
0.0
 10
558.919539
 20
99.001842
 30
0.0
 10
559.115357
 20
99.219013
 30
0.0
 10
559.352159
 20
99.390793
 30
0.0
 10
559.618938
 20
99.509642
 30
0.0
 10
559.905694
 20
99.570400
 30
0.0
 10
560.197423
 20
99.570400
 30
0.0
 10
560.484179
 20
99.509642
 30
0.0
 10
560.750958
 20
99.390793
 30
0.0
 10
560.987760
 20
99.219013
 30
0.0
 10
561.183578
 20
99.001842
 30
0.0
 10
561.329470
 20
98.748756
 30
0.0
 10
561.419375
 20
98.470817
 30
0.0
 10
561.450358
 20
98.180178
 30
0.0
 10
561.419375
 20
97.889558
 30
0.0
 10
561.329470
 20
97.611609
 30
0.0
 10
561.183578
 20
97.358533
 30
0.0
 10
560.987760
 20
97.141362
 30
0.0
 10
560.750958
 20
96.969582
 30
0.0
 10
560.484179
 20
96.850723
 30
0.0
 10
560.197423
 20
96.789965
 30
0.0
  0
LWPOLYLINE
  5
114
100
AcDbEntity
  8
0
 62
5
100
AcDbPolyline
 90
30
 70
1
 10
33.356434
 20
93.794505
 30
0.0
 10
33.070377
 20
93.855263
 30
0.0
 10
32.803206
 20
93.974123
 30
0.0
 10
32.566610
 20
94.145902
 30
0.0
 10
32.370977
 20
94.363073
 30
0.0
 10
32.224702
 20
94.616150
 30
0.0
 10
32.134381
 20
94.894098
 30
0.0
 10
32.103806
 20
95.184738
 30
0.0
 10
32.134381
 20
95.475357
 30
0.0
 10
32.224702
 20
95.753296
 30
0.0
 10
32.370977
 20
96.006382
 30
0.0
 10
32.566610
 20
96.223553
 30
0.0
 10
32.803206
 20
96.395333
 30
0.0
 10
33.070377
 20
96.514183
 30
0.0
 10
33.356434
 20
96.574940
 30
0.0
 10
33.648785
 20
96.574940
 30
0.0
 10
33.934839
 20
96.514183
 30
0.0
 10
34.202010
 20
96.395333
 30
0.0
 10
34.438606
 20
96.223553
 30
0.0
 10
34.634239
 20
96.006382
 30
0.0
 10
34.780514
 20
95.753296
 30
0.0
 10
34.870835
 20
95.475357
 30
0.0
 10
34.901412
 20
95.184718
 30
0.0
 10
34.870835
 20
94.894098
 30
0.0
 10
34.780514
 20
94.616150
 30
0.0
 10
34.634239
 20
94.363073
 30
0.0
 10
34.438606
 20
94.145902
 30
0.0
 10
34.202010
 20
93.974123
 30
0.0
 10
33.934839
 20
93.855263
 30
0.0
 10
33.648785
 20
93.794505
 30
0.0
  0
ENDSEC
  0
SECTION
  2
OBJECTS
  0
DICTIONARY
  5
C
330
0
100
AcDbDictionary
  3
ACAD_GROUP
350
D
  3
ACAD_MLINESTYLE
350
17
  0
DICTIONARY
  5
D
330
C
100
AcDbDictionary
  0
DICTIONARY
  5
1A
330
C
100
AcDbDictionary
  0
DICTIONARY
  5
17
330
C
100
AcDbDictionary
  3
STANDARD
350
18
  0
DICTIONARY
  5
19
330
C
100
AcDbDictionary
  0
ENDSEC
  0
EOF
