solid OpenSCAD_Model
  facet normal 1 -0 0
    outer loop
      vertex 17 7.5 4
      vertex 17 10 0
      vertex 17 10 4
    endloop
  endfacet
  facet normal 1 0 0
    outer loop
      vertex 17 0.4 0
      vertex 17 7.5 4
      vertex 17 0.4 4
    endloop
  endfacet
  facet normal 1 0 0
    outer loop
      vertex 17 7.5 4
      vertex 17 0.4 0
      vertex 17 10 0
    endloop
  endfacet
  facet normal -0 0 1
    outer loop
      vertex 16.9126 6.66835 4
      vertex 17 0.4 4
      vertex 17 7.5 4
    endloop
  endfacet
  facet normal -0 0 1
    outer loop
      vertex 16.6542 5.87305 4
      vertex 17 0.4 4
      vertex 16.9126 6.66835 4
    endloop
  endfacet
  facet normal -0 0 1
    outer loop
      vertex 16.2361 5.14886 4
      vertex 17 0.4 4
      vertex 16.6542 5.87305 4
    endloop
  endfacet
  facet normal -0 0 1
    outer loop
      vertex 15.6765 4.52742 4
      vertex 17 0.4 4
      vertex 16.2361 5.14886 4
    endloop
  endfacet
  facet normal -0 0 1
    outer loop
      vertex 15 4.0359 4
      vertex 17 0.4 4
      vertex 15.6765 4.52742 4
    endloop
  endfacet
  facet normal -0 0 1
    outer loop
      vertex 14.2361 3.69577 4
      vertex 17 0.4 4
      vertex 15 4.0359 4
    endloop
  endfacet
  facet normal -0 0 1
    outer loop
      vertex 13.4181 3.52191 4
      vertex 17 0.4 4
      vertex 14.2361 3.69577 4
    endloop
  endfacet
  facet normal 0 0 1
    outer loop
      vertex 10 0.4 4
      vertex 13.4181 3.52191 4
      vertex 12.5819 3.52191 4
    endloop
  endfacet
  facet normal 0 0 1
    outer loop
      vertex 10 0.4 4
      vertex 12.5819 3.52191 4
      vertex 11.7639 3.69577 4
    endloop
  endfacet
  facet normal 0 0 1
    outer loop
      vertex 10 0.4 4
      vertex 11.7639 3.69577 4
      vertex 11 4.0359 4
    endloop
  endfacet
  facet normal 0 0 1
    outer loop
      vertex 13.4181 3.52191 4
      vertex 10 0.4 4
      vertex 17 0.4 4
    endloop
  endfacet
  facet normal 0 0 1
    outer loop
      vertex 10.3235 4.52742 4
      vertex 10 0.4 4
      vertex 11 4.0359 4
    endloop
  endfacet
  facet normal 0 0 1
    outer loop
      vertex 10 0.4 4
      vertex 10.3235 4.52742 4
      vertex 10 4.88668 4
    endloop
  endfacet
  facet normal 0 0 1
    outer loop
      vertex 1.08741 8.33165 4
      vertex 0 10 4
      vertex 1 7.5 4
    endloop
  endfacet
  facet normal 0 0 1
    outer loop
      vertex 1.34582 9.12695 4
      vertex 0 10 4
      vertex 1.08741 8.33165 4
    endloop
  endfacet
  facet normal 0 0 1
    outer loop
      vertex 1.76393 9.85114 4
      vertex 0 10 4
      vertex 1.34582 9.12695 4
    endloop
  endfacet
  facet normal -0 0 1
    outer loop
      vertex 0 10 4
      vertex 1.76393 9.85114 4
      vertex 1.89796 10 4
    endloop
  endfacet
  facet normal 0 0 1
    outer loop
      vertex 0 5 4
      vertex 1 7.5 4
      vertex 0 10 4
    endloop
  endfacet
  facet normal 0 0 1
    outer loop
      vertex 1 7.5 4
      vertex 0 5 4
      vertex 1.08741 6.66835 4
    endloop
  endfacet
  facet normal 0 0 1
    outer loop
      vertex 1.76393 5.14886 4
      vertex 0 5 4
      vertex 1.89796 5 4
    endloop
  endfacet
  facet normal 0 0 1
    outer loop
      vertex 1.34582 5.87305 4
      vertex 0 5 4
      vertex 1.76393 5.14886 4
    endloop
  endfacet
  facet normal 0 0 1
    outer loop
      vertex 1.08741 6.66835 4
      vertex 0 5 4
      vertex 1.34582 5.87305 4
    endloop
  endfacet
  facet normal 0 0 1
    outer loop
      vertex 17 10 4
      vertex 16.9126 8.33165 4
      vertex 17 7.5 4
    endloop
  endfacet
  facet normal 0 0 1
    outer loop
      vertex 17 10 4
      vertex 16.6542 9.12695 4
      vertex 16.9126 8.33165 4
    endloop
  endfacet
  facet normal 0 0 1
    outer loop
      vertex 17 10 4
      vertex 16.2361 9.85114 4
      vertex 16.6542 9.12695 4
    endloop
  endfacet
  facet normal 0 -0 1
    outer loop
      vertex 16.2361 9.85114 4
      vertex 17 10 4
      vertex 16.102 10 4
    endloop
  endfacet
  facet normal 0 0 1
    outer loop
      vertex 6.85 7.5 4
      vertex 9 7.5 4
      vertex 8.91259 8.33165 4
    endloop
  endfacet
  facet normal 0 0 1
    outer loop
      vertex 6.80957 7.88464 4
      vertex 8.91259 8.33165 4
      vertex 8.65418 9.12695 4
    endloop
  endfacet
  facet normal 0 0 1
    outer loop
      vertex 9 7.5 4
      vertex 6.85 7.5 4
      vertex 8.91259 6.66835 4
    endloop
  endfacet
  facet normal 0 0 1
    outer loop
      vertex 6.69006 8.25246 4
      vertex 8.65418 9.12695 4
      vertex 8.23607 9.85114 4
    endloop
  endfacet
  facet normal -0 0 1
    outer loop
      vertex 6.80957 7.11536 4
      vertex 8.91259 6.66835 4
      vertex 6.85 7.5 4
    endloop
  endfacet
  facet normal 0 0 1
    outer loop
      vertex 8.91259 6.66835 4
      vertex 6.80957 7.11536 4
      vertex 8.65418 5.87305 4
    endloop
  endfacet
  facet normal 0 0 1
    outer loop
      vertex 6.49668 8.5874 4
      vertex 8.23607 9.85114 4
      vertex 8.10203 10 4
    endloop
  endfacet
  facet normal -0 0 1
    outer loop
      vertex 6.69006 6.74754 4
      vertex 8.65418 5.87305 4
      vertex 6.80957 7.11536 4
    endloop
  endfacet
  facet normal 0 0 1
    outer loop
      vertex 8.65418 5.87305 4
      vertex 6.69006 6.74754 4
      vertex 8.23607 5.14886 4
    endloop
  endfacet
  facet normal -0 0 1
    outer loop
      vertex 6.49668 6.4126 4
      vertex 8.23607 5.14886 4
      vertex 6.69006 6.74754 4
    endloop
  endfacet
  facet normal 0 0 1
    outer loop
      vertex 8.91259 8.33165 4
      vertex 6.80957 7.88464 4
      vertex 6.85 7.5 4
    endloop
  endfacet
  facet normal 0 0 1
    outer loop
      vertex 8.65418 9.12695 4
      vertex 6.69006 8.25246 4
      vertex 6.80957 7.88464 4
    endloop
  endfacet
  facet normal 0 0 1
    outer loop
      vertex 8.23607 9.85114 4
      vertex 6.49668 8.5874 4
      vertex 6.69006 8.25246 4
    endloop
  endfacet
  facet normal 0 0 1
    outer loop
      vertex 8.10203 10 4
      vertex 6.23789 8.87482 4
      vertex 6.49668 8.5874 4
    endloop
  endfacet
  facet normal 0 0 1
    outer loop
      vertex 8.10203 10 4
      vertex 5.925 9.10215 4
      vertex 6.23789 8.87482 4
    endloop
  endfacet
  facet normal 0 0 1
    outer loop
      vertex 8.10203 10 4
      vertex 5.57168 9.25945 4
      vertex 5.925 9.10215 4
    endloop
  endfacet
  facet normal 0 0 1
    outer loop
      vertex 8.10203 10 4
      vertex 5.19338 9.33986 4
      vertex 5.57168 9.25945 4
    endloop
  endfacet
  facet normal 0 0 1
    outer loop
      vertex 8.10203 10 4
      vertex 4.80662 9.33986 4
      vertex 5.19338 9.33986 4
    endloop
  endfacet
  facet normal 0 0 1
    outer loop
      vertex 3.76211 6.12518 4
      vertex 2.32348 4.52742 4
      vertex 3 4.0359 4
    endloop
  endfacet
  facet normal 0 0 1
    outer loop
      vertex 1 7.5 4
      vertex 3.15 7.5 4
      vertex 3.19043 7.88464 4
    endloop
  endfacet
  facet normal -0 0 1
    outer loop
      vertex 1.89796 10 4
      vertex 4.80662 9.33986 4
      vertex 8.10203 10 4
    endloop
  endfacet
  facet normal 0 0 1
    outer loop
      vertex 1.89796 10 4
      vertex 4.42832 9.25945 4
      vertex 4.80662 9.33986 4
    endloop
  endfacet
  facet normal 0 0 1
    outer loop
      vertex 1.89796 10 4
      vertex 4.075 9.10215 4
      vertex 4.42832 9.25945 4
    endloop
  endfacet
  facet normal 0 0 1
    outer loop
      vertex 1.89796 10 4
      vertex 3.76211 8.87482 4
      vertex 4.075 9.10215 4
    endloop
  endfacet
  facet normal 0 0 1
    outer loop
      vertex 1.89796 10 4
      vertex 3.50332 8.5874 4
      vertex 3.76211 8.87482 4
    endloop
  endfacet
  facet normal -0 0 1
    outer loop
      vertex 1.76393 9.85114 4
      vertex 3.50332 8.5874 4
      vertex 1.89796 10 4
    endloop
  endfacet
  facet normal 0 0 1
    outer loop
      vertex 3.50332 8.5874 4
      vertex 1.76393 9.85114 4
      vertex 3.30994 8.25246 4
    endloop
  endfacet
  facet normal -0 0 1
    outer loop
      vertex 1.34582 9.12695 4
      vertex 3.30994 8.25246 4
      vertex 1.76393 9.85114 4
    endloop
  endfacet
  facet normal 0 0 1
    outer loop
      vertex 3.19043 7.11536 4
      vertex 1.89796 5 4
      vertex 2.32348 4.52742 4
    endloop
  endfacet
  facet normal 0 0 1
    outer loop
      vertex 3.30994 8.25246 4
      vertex 1.34582 9.12695 4
      vertex 3.19043 7.88464 4
    endloop
  endfacet
  facet normal 0 0 1
    outer loop
      vertex 3.19043 7.88464 4
      vertex 1.34582 9.12695 4
      vertex 1.08741 8.33165 4
    endloop
  endfacet
  facet normal 0 0 1
    outer loop
      vertex 1 7.5 4
      vertex 3.19043 7.88464 4
      vertex 1.08741 8.33165 4
    endloop
  endfacet
  facet normal 0 0 1
    outer loop
      vertex 3.19043 7.11536 4
      vertex 1.76393 5.14886 4
      vertex 1.89796 5 4
    endloop
  endfacet
  facet normal 0 0 1
    outer loop
      vertex 3.19043 7.11536 4
      vertex 1.08741 6.66835 4
      vertex 1.34582 5.87305 4
    endloop
  endfacet
  facet normal 0 0 1
    outer loop
      vertex 3.19043 7.11536 4
      vertex 1.34582 5.87305 4
      vertex 1.76393 5.14886 4
    endloop
  endfacet
  facet normal 0 0 1
    outer loop
      vertex 3.15 7.5 4
      vertex 1 7.5 4
      vertex 1.08741 6.66835 4
    endloop
  endfacet
  facet normal 0 0 1
    outer loop
      vertex 8.23607 5.14886 4
      vertex 6.49668 6.4126 4
      vertex 8.10204 5 4
    endloop
  endfacet
  facet normal -0 0 1
    outer loop
      vertex 6.23789 6.12518 4
      vertex 8.10204 5 4
      vertex 6.49668 6.4126 4
    endloop
  endfacet
  facet normal 0 0 1
    outer loop
      vertex 8.10204 5 4
      vertex 6.23789 6.12518 4
      vertex 7.67652 4.52742 4
    endloop
  endfacet
  facet normal 0 0 1
    outer loop
      vertex 7.67652 4.52742 4
      vertex 6.23789 6.12518 4
      vertex 7 4.0359 4
    endloop
  endfacet
  facet normal -0 0 1
    outer loop
      vertex 5.925 5.89785 4
      vertex 7 4.0359 4
      vertex 6.23789 6.12518 4
    endloop
  endfacet
  facet normal 0 0 1
    outer loop
      vertex 7 4.0359 4
      vertex 5.925 5.89785 4
      vertex 6.23607 3.69577 4
    endloop
  endfacet
  facet normal -0 0 1
    outer loop
      vertex 5.57168 5.74055 4
      vertex 6.23607 3.69577 4
      vertex 5.925 5.89785 4
    endloop
  endfacet
  facet normal 0 0 1
    outer loop
      vertex 5.57168 5.74055 4
      vertex 5.41811 3.52191 4
      vertex 6.23607 3.69577 4
    endloop
  endfacet
  facet normal -0 0 1
    outer loop
      vertex 5.19338 5.66013 4
      vertex 5.41811 3.52191 4
      vertex 5.57168 5.74055 4
    endloop
  endfacet
  facet normal -0 0 1
    outer loop
      vertex 4.80662 5.66013 4
      vertex 5.41811 3.52191 4
      vertex 5.19338 5.66013 4
    endloop
  endfacet
  facet normal 0 0 1
    outer loop
      vertex 4.80662 5.66013 4
      vertex 4.58189 3.52191 4
      vertex 5.41811 3.52191 4
    endloop
  endfacet
  facet normal 0 0 1
    outer loop
      vertex 4.42832 5.74055 4
      vertex 4.58189 3.52191 4
      vertex 4.80662 5.66013 4
    endloop
  endfacet
  facet normal 0 0 1
    outer loop
      vertex 3.76393 3.69577 4
      vertex 4.42832 5.74055 4
      vertex 4.075 5.89785 4
    endloop
  endfacet
  facet normal 0 0 1
    outer loop
      vertex 4.42832 5.74055 4
      vertex 3.76393 3.69577 4
      vertex 4.58189 3.52191 4
    endloop
  endfacet
  facet normal 0 0 1
    outer loop
      vertex 3 4.0359 4
      vertex 4.075 5.89785 4
      vertex 3.76211 6.12518 4
    endloop
  endfacet
  facet normal 0 0 1
    outer loop
      vertex 2.32348 4.52742 4
      vertex 3.76211 6.12518 4
      vertex 3.50332 6.4126 4
    endloop
  endfacet
  facet normal 0 0 1
    outer loop
      vertex 2.32348 4.52742 4
      vertex 3.50332 6.4126 4
      vertex 3.30994 6.74754 4
    endloop
  endfacet
  facet normal 0 0 1
    outer loop
      vertex 2.32348 4.52742 4
      vertex 3.30994 6.74754 4
      vertex 3.19043 7.11536 4
    endloop
  endfacet
  facet normal 0 0 1
    outer loop
      vertex 4.075 5.89785 4
      vertex 3 4.0359 4
      vertex 3.76393 3.69577 4
    endloop
  endfacet
  facet normal 0 0 1
    outer loop
      vertex 1.08741 6.66835 4
      vertex 3.19043 7.11536 4
      vertex 3.15 7.5 4
    endloop
  endfacet
  facet normal 0 0 1
    outer loop
      vertex 9.08741 8.33165 4
      vertex 8.91259 8.33165 4
      vertex 9 7.5 4
    endloop
  endfacet
  facet normal 0 0 1
    outer loop
      vertex 9.34582 9.12695 4
      vertex 8.91259 8.33165 4
      vertex 9.08741 8.33165 4
    endloop
  endfacet
  facet normal 0 0 1
    outer loop
      vertex 9.34582 9.12695 4
      vertex 8.65418 9.12695 4
      vertex 8.91259 8.33165 4
    endloop
  endfacet
  facet normal 0 0 1
    outer loop
      vertex 9.76393 9.85114 4
      vertex 8.65418 9.12695 4
      vertex 9.34582 9.12695 4
    endloop
  endfacet
  facet normal 0 0 1
    outer loop
      vertex 8.23607 9.85114 4
      vertex 9.76393 9.85114 4
      vertex 9.89796 10 4
    endloop
  endfacet
  facet normal 0 0 1
    outer loop
      vertex 9.76393 9.85114 4
      vertex 8.23607 9.85114 4
      vertex 8.65418 9.12695 4
    endloop
  endfacet
  facet normal 0 -0 1
    outer loop
      vertex 8.23607 9.85114 4
      vertex 9.89796 10 4
      vertex 8.10203 10 4
    endloop
  endfacet
  facet normal 0 0 1
    outer loop
      vertex 14.85 7.5 4
      vertex 17 7.5 4
      vertex 16.9126 8.33165 4
    endloop
  endfacet
  facet normal 0 0 1
    outer loop
      vertex 14.8096 7.88464 4
      vertex 16.9126 8.33165 4
      vertex 16.6542 9.12695 4
    endloop
  endfacet
  facet normal 0 0 1
    outer loop
      vertex 17 7.5 4
      vertex 14.85 7.5 4
      vertex 16.9126 6.66835 4
    endloop
  endfacet
  facet normal 0 0 1
    outer loop
      vertex 14.6901 8.25246 4
      vertex 16.6542 9.12695 4
      vertex 16.2361 9.85114 4
    endloop
  endfacet
  facet normal -0 0 1
    outer loop
      vertex 14.8096 7.11536 4
      vertex 16.9126 6.66835 4
      vertex 14.85 7.5 4
    endloop
  endfacet
  facet normal 0 0 1
    outer loop
      vertex 14.4967 8.5874 4
      vertex 16.2361 9.85114 4
      vertex 16.102 10 4
    endloop
  endfacet
  facet normal 0 0 1
    outer loop
      vertex 16.9126 6.66835 4
      vertex 14.8096 7.11536 4
      vertex 16.6542 5.87305 4
    endloop
  endfacet
  facet normal -0 0 1
    outer loop
      vertex 14.6901 6.74754 4
      vertex 16.6542 5.87305 4
      vertex 14.8096 7.11536 4
    endloop
  endfacet
  facet normal 0 0 1
    outer loop
      vertex 16.6542 5.87305 4
      vertex 14.6901 6.74754 4
      vertex 16.2361 5.14886 4
    endloop
  endfacet
  facet normal 0 0 1
    outer loop
      vertex 16.9126 8.33165 4
      vertex 14.8096 7.88464 4
      vertex 14.85 7.5 4
    endloop
  endfacet
  facet normal 0 0 1
    outer loop
      vertex 16.6542 9.12695 4
      vertex 14.6901 8.25246 4
      vertex 14.8096 7.88464 4
    endloop
  endfacet
  facet normal 0 0 1
    outer loop
      vertex 16.2361 9.85114 4
      vertex 14.4967 8.5874 4
      vertex 14.6901 8.25246 4
    endloop
  endfacet
  facet normal 0 0 1
    outer loop
      vertex 16.102 10 4
      vertex 14.2379 8.87482 4
      vertex 14.4967 8.5874 4
    endloop
  endfacet
  facet normal 0 0 1
    outer loop
      vertex 16.102 10 4
      vertex 13.925 9.10215 4
      vertex 14.2379 8.87482 4
    endloop
  endfacet
  facet normal 0 0 1
    outer loop
      vertex 16.102 10 4
      vertex 13.5717 9.25945 4
      vertex 13.925 9.10215 4
    endloop
  endfacet
  facet normal 0 0 1
    outer loop
      vertex 16.102 10 4
      vertex 13.1934 9.33986 4
      vertex 13.5717 9.25945 4
    endloop
  endfacet
  facet normal 0 0 1
    outer loop
      vertex 16.102 10 4
      vertex 12.8066 9.33986 4
      vertex 13.1934 9.33986 4
    endloop
  endfacet
  facet normal 0 0 1
    outer loop
      vertex 11.7621 6.12518 4
      vertex 10.3235 4.52742 4
      vertex 11 4.0359 4
    endloop
  endfacet
  facet normal 0 0 1
    outer loop
      vertex 9 7.5 4
      vertex 11.15 7.5 4
      vertex 11.1904 7.88464 4
    endloop
  endfacet
  facet normal 0 0 1
    outer loop
      vertex 11.1904 7.11536 4
      vertex 10 4.88668 4
      vertex 10.3235 4.52742 4
    endloop
  endfacet
  facet normal 0 0 1
    outer loop
      vertex 9.08741 8.33165 4
      vertex 11.1904 7.88464 4
      vertex 11.3099 8.25246 4
    endloop
  endfacet
  facet normal -0 0 1
    outer loop
      vertex 9.89796 10 4
      vertex 12.8066 9.33986 4
      vertex 16.102 10 4
    endloop
  endfacet
  facet normal 0 0 1
    outer loop
      vertex 9.89796 10 4
      vertex 12.4283 9.25945 4
      vertex 12.8066 9.33986 4
    endloop
  endfacet
  facet normal 0 0 1
    outer loop
      vertex 9.89796 10 4
      vertex 12.075 9.10215 4
      vertex 12.4283 9.25945 4
    endloop
  endfacet
  facet normal 0 0 1
    outer loop
      vertex 9.89796 10 4
      vertex 11.7621 8.87482 4
      vertex 12.075 9.10215 4
    endloop
  endfacet
  facet normal 0 0 1
    outer loop
      vertex 9.89796 10 4
      vertex 11.5033 8.5874 4
      vertex 11.7621 8.87482 4
    endloop
  endfacet
  facet normal -0 0 1
    outer loop
      vertex 9.76393 9.85114 4
      vertex 11.5033 8.5874 4
      vertex 9.89796 10 4
    endloop
  endfacet
  facet normal 0 0 1
    outer loop
      vertex 11.5033 8.5874 4
      vertex 9.76393 9.85114 4
      vertex 11.3099 8.25246 4
    endloop
  endfacet
  facet normal 0 0 1
    outer loop
      vertex 11.1904 7.88464 4
      vertex 9.08741 8.33165 4
      vertex 9 7.5 4
    endloop
  endfacet
  facet normal 0 0 1
    outer loop
      vertex 11.3099 8.25246 4
      vertex 9.76393 9.85114 4
      vertex 9.34582 9.12695 4
    endloop
  endfacet
  facet normal 0 0 1
    outer loop
      vertex 11.3099 8.25246 4
      vertex 9.34582 9.12695 4
      vertex 9.08741 8.33165 4
    endloop
  endfacet
  facet normal 0 0 1
    outer loop
      vertex 11.1904 7.11536 4
      vertex 9.08741 6.66835 4
      vertex 9.34582 5.87305 4
    endloop
  endfacet
  facet normal 0 0 1
    outer loop
      vertex 11.1904 7.11536 4
      vertex 9.76393 5.14886 4
      vertex 9.89796 5 4
    endloop
  endfacet
  facet normal 0 0 1
    outer loop
      vertex 11.1904 7.11536 4
      vertex 9.89796 5 4
      vertex 10 4.88668 4
    endloop
  endfacet
  facet normal 0 0 1
    outer loop
      vertex 11.1904 7.11536 4
      vertex 9.34582 5.87305 4
      vertex 9.76393 5.14886 4
    endloop
  endfacet
  facet normal 0 0 1
    outer loop
      vertex 11.15 7.5 4
      vertex 9 7.5 4
      vertex 9.08741 6.66835 4
    endloop
  endfacet
  facet normal -0 0 1
    outer loop
      vertex 14.4967 6.4126 4
      vertex 16.2361 5.14886 4
      vertex 14.6901 6.74754 4
    endloop
  endfacet
  facet normal 0 0 1
    outer loop
      vertex 16.2361 5.14886 4
      vertex 14.4967 6.4126 4
      vertex 15.6765 4.52742 4
    endloop
  endfacet
  facet normal -0 0 1
    outer loop
      vertex 14.2379 6.12518 4
      vertex 15.6765 4.52742 4
      vertex 14.4967 6.4126 4
    endloop
  endfacet
  facet normal 0 0 1
    outer loop
      vertex 15.6765 4.52742 4
      vertex 14.2379 6.12518 4
      vertex 15 4.0359 4
    endloop
  endfacet
  facet normal -0 0 1
    outer loop
      vertex 13.925 5.89785 4
      vertex 15 4.0359 4
      vertex 14.2379 6.12518 4
    endloop
  endfacet
  facet normal 0 0 1
    outer loop
      vertex 15 4.0359 4
      vertex 13.925 5.89785 4
      vertex 14.2361 3.69577 4
    endloop
  endfacet
  facet normal -0 0 1
    outer loop
      vertex 13.5717 5.74055 4
      vertex 14.2361 3.69577 4
      vertex 13.925 5.89785 4
    endloop
  endfacet
  facet normal 0 0 1
    outer loop
      vertex 13.5717 5.74055 4
      vertex 13.4181 3.52191 4
      vertex 14.2361 3.69577 4
    endloop
  endfacet
  facet normal -0 0 1
    outer loop
      vertex 13.1934 5.66013 4
      vertex 13.4181 3.52191 4
      vertex 13.5717 5.74055 4
    endloop
  endfacet
  facet normal -0 0 1
    outer loop
      vertex 12.8066 5.66013 4
      vertex 13.4181 3.52191 4
      vertex 13.1934 5.66013 4
    endloop
  endfacet
  facet normal 0 0 1
    outer loop
      vertex 12.8066 5.66013 4
      vertex 12.5819 3.52191 4
      vertex 13.4181 3.52191 4
    endloop
  endfacet
  facet normal 0 0 1
    outer loop
      vertex 12.4283 5.74055 4
      vertex 12.5819 3.52191 4
      vertex 12.8066 5.66013 4
    endloop
  endfacet
  facet normal 0 0 1
    outer loop
      vertex 11.7639 3.69577 4
      vertex 12.4283 5.74055 4
      vertex 12.075 5.89785 4
    endloop
  endfacet
  facet normal 0 0 1
    outer loop
      vertex 12.4283 5.74055 4
      vertex 11.7639 3.69577 4
      vertex 12.5819 3.52191 4
    endloop
  endfacet
  facet normal 0 0 1
    outer loop
      vertex 11 4.0359 4
      vertex 12.075 5.89785 4
      vertex 11.7621 6.12518 4
    endloop
  endfacet
  facet normal 0 0 1
    outer loop
      vertex 10.3235 4.52742 4
      vertex 11.7621 6.12518 4
      vertex 11.5033 6.4126 4
    endloop
  endfacet
  facet normal 0 0 1
    outer loop
      vertex 10.3235 4.52742 4
      vertex 11.5033 6.4126 4
      vertex 11.3099 6.74754 4
    endloop
  endfacet
  facet normal 0 0 1
    outer loop
      vertex 10.3235 4.52742 4
      vertex 11.3099 6.74754 4
      vertex 11.1904 7.11536 4
    endloop
  endfacet
  facet normal 0 0 1
    outer loop
      vertex 12.075 5.89785 4
      vertex 11 4.0359 4
      vertex 11.7639 3.69577 4
    endloop
  endfacet
  facet normal 0 0 1
    outer loop
      vertex 9.08741 6.66835 4
      vertex 11.1904 7.11536 4
      vertex 11.15 7.5 4
    endloop
  endfacet
  facet normal 0 0 1
    outer loop
      vertex 8.91259 6.66835 4
      vertex 9.08741 6.66835 4
      vertex 9 7.5 4
    endloop
  endfacet
  facet normal -0 0 1
    outer loop
      vertex 8.91259 6.66835 4
      vertex 9.34582 5.87305 4
      vertex 9.08741 6.66835 4
    endloop
  endfacet
  facet normal 0 0 1
    outer loop
      vertex 8.65418 5.87305 4
      vertex 9.34582 5.87305 4
      vertex 8.91259 6.66835 4
    endloop
  endfacet
  facet normal -0 0 1
    outer loop
      vertex 8.65418 5.87305 4
      vertex 9.76393 5.14886 4
      vertex 9.34582 5.87305 4
    endloop
  endfacet
  facet normal 0 0 1
    outer loop
      vertex 8.23607 5.14886 4
      vertex 9.76393 5.14886 4
      vertex 8.65418 5.87305 4
    endloop
  endfacet
  facet normal 0 0 1
    outer loop
      vertex 9.76393 5.14886 4
      vertex 8.23607 5.14886 4
      vertex 9.89796 5 4
    endloop
  endfacet
  facet normal 0 0 1
    outer loop
      vertex 9.89796 5 4
      vertex 8.23607 5.14886 4
      vertex 8.10204 5 4
    endloop
  endfacet
  facet normal -0 0 -1
    outer loop
      vertex 11.7621 6.12518 0
      vertex 6.77651 2.64573 0
      vertex 11.5033 6.4126 0
    endloop
  endfacet
  facet normal 0 0 -1
    outer loop
      vertex 11.5033 6.4126 0
      vertex 6.80957 7.11536 0
      vertex 6.85 7.5 0
    endloop
  endfacet
  facet normal 0 0 -1
    outer loop
      vertex 6.68766 2.79962 0
      vertex 11.5033 6.4126 0
      vertex 6.77651 2.64573 0
    endloop
  endfacet
  facet normal 0 0 -1
    outer loop
      vertex 11.5033 6.4126 0
      vertex 6.69006 6.74754 0
      vertex 6.80957 7.11536 0
    endloop
  endfacet
  facet normal 0 0 -1
    outer loop
      vertex 6.49668 6.4126 0
      vertex 11.5033 6.4126 0
      vertex 6.68766 2.79962 0
    endloop
  endfacet
  facet normal 0 0 -1
    outer loop
      vertex 6.49668 6.4126 0
      vertex 6.68766 2.79962 0
      vertex 6.56876 2.93167 0
    endloop
  endfacet
  facet normal 0 0 -1
    outer loop
      vertex 11.5033 6.4126 0
      vertex 6.49668 6.4126 0
      vertex 6.69006 6.74754 0
    endloop
  endfacet
  facet normal 0 0 -1
    outer loop
      vertex 6.23789 6.12518 0
      vertex 6.56876 2.93167 0
      vertex 6.425 3.03612 0
    endloop
  endfacet
  facet normal 0 0 -1
    outer loop
      vertex 5.925 5.89785 0
      vertex 6.425 3.03612 0
      vertex 6.26266 3.1084 0
    endloop
  endfacet
  facet normal 0 0 -1
    outer loop
      vertex 6.56876 2.93167 0
      vertex 6.23789 6.12518 0
      vertex 6.49668 6.4126 0
    endloop
  endfacet
  facet normal 0 0 -1
    outer loop
      vertex 5.925 5.89785 0
      vertex 6.26266 3.1084 0
      vertex 6.08885 3.14534 0
    endloop
  endfacet
  facet normal 0 0 -1
    outer loop
      vertex 6.425 3.03612 0
      vertex 5.925 5.89785 0
      vertex 6.23789 6.12518 0
    endloop
  endfacet
  facet normal 0 0 -1
    outer loop
      vertex 5.57168 5.74055 0
      vertex 6.08885 3.14534 0
      vertex 5.91115 3.14534 0
    endloop
  endfacet
  facet normal 0 0 -1
    outer loop
      vertex 5.19338 5.66013 0
      vertex 5.91115 3.14534 0
      vertex 5.73734 3.1084 0
    endloop
  endfacet
  facet normal 0 0 -1
    outer loop
      vertex 5.19338 5.66013 0
      vertex 5.73734 3.1084 0
      vertex 5.575 3.03612 0
    endloop
  endfacet
  facet normal 0 0 -1
    outer loop
      vertex 6.08885 3.14534 0
      vertex 5.57168 5.74055 0
      vertex 5.925 5.89785 0
    endloop
  endfacet
  facet normal 0 0 -1
    outer loop
      vertex 4.80662 5.66013 0
      vertex 5.575 3.03612 0
      vertex 5.43124 2.93167 0
    endloop
  endfacet
  facet normal 0 0 -1
    outer loop
      vertex 4.42832 5.74055 0
      vertex 5.43124 2.93167 0
      vertex 5.31234 2.79962 0
    endloop
  endfacet
  facet normal 0 0 -1
    outer loop
      vertex 4.42832 5.74055 0
      vertex 5.31234 2.79962 0
      vertex 5.22349 2.64573 0
    endloop
  endfacet
  facet normal 0 0 -1
    outer loop
      vertex 5.91115 3.14534 0
      vertex 5.19338 5.66013 0
      vertex 5.57168 5.74055 0
    endloop
  endfacet
  facet normal 0 0 -1
    outer loop
      vertex 4.075 5.89785 0
      vertex 5.22349 2.64573 0
      vertex 5.16857 2.47672 0
    endloop
  endfacet
  facet normal 0 0 -1
    outer loop
      vertex 0 0.4 0
      vertex 5.16857 2.47672 0
      vertex 5.15 2.3 0
    endloop
  endfacet
  facet normal 0 0 -1
    outer loop
      vertex 5.575 3.03612 0
      vertex 4.80662 5.66013 0
      vertex 5.19338 5.66013 0
    endloop
  endfacet
  facet normal 0 0 -1
    outer loop
      vertex 14.8096 7.11536 0
      vertex 17 10 0
      vertex 17 0.4 0
    endloop
  endfacet
  facet normal 0 0 -1
    outer loop
      vertex 17 10 0
      vertex 14.8096 7.11536 0
      vertex 14.85 7.5 0
    endloop
  endfacet
  facet normal 0 0 -1
    outer loop
      vertex 17 0.4 0
      vertex 14.6901 6.74754 0
      vertex 14.8096 7.11536 0
    endloop
  endfacet
  facet normal 0 0 -1
    outer loop
      vertex 17 0.4 0
      vertex 14.4967 6.4126 0
      vertex 14.6901 6.74754 0
    endloop
  endfacet
  facet normal 0 0 -1
    outer loop
      vertex 17 0.4 0
      vertex 14.2379 6.12518 0
      vertex 14.4967 6.4126 0
    endloop
  endfacet
  facet normal 0 0 -1
    outer loop
      vertex 17 0.4 0
      vertex 13.925 5.89785 0
      vertex 14.2379 6.12518 0
    endloop
  endfacet
  facet normal 0 0 -1
    outer loop
      vertex 17 0.4 0
      vertex 13.5717 5.74055 0
      vertex 13.925 5.89785 0
    endloop
  endfacet
  facet normal 0 0 -1
    outer loop
      vertex 17 0.4 0
      vertex 13.1934 5.66013 0
      vertex 13.5717 5.74055 0
    endloop
  endfacet
  facet normal 0 0 -1
    outer loop
      vertex 17 0.4 0
      vertex 12.8066 5.66013 0
      vertex 13.1934 5.66013 0
    endloop
  endfacet
  facet normal 0 0 -1
    outer loop
      vertex 6.83142 2.12327 0
      vertex 12.8066 5.66013 0
      vertex 17 0.4 0
    endloop
  endfacet
  facet normal -0 0 -1
    outer loop
      vertex 12.8066 5.66013 0
      vertex 6.83142 2.12327 0
      vertex 12.4283 5.74055 0
    endloop
  endfacet
  facet normal 0 -0 -1
    outer loop
      vertex 6.85 2.3 0
      vertex 12.4283 5.74055 0
      vertex 6.83142 2.12327 0
    endloop
  endfacet
  facet normal 0 0 -1
    outer loop
      vertex 11.3099 6.74754 0
      vertex 6.85 7.5 0
      vertex 11.1904 7.11536 0
    endloop
  endfacet
  facet normal 0 0 -1
    outer loop
      vertex 11.5033 6.4126 0
      vertex 6.85 7.5 0
      vertex 11.3099 6.74754 0
    endloop
  endfacet
  facet normal 0 0 -1
    outer loop
      vertex 6.77651 2.64573 0
      vertex 11.7621 6.12518 0
      vertex 6.83142 2.47672 0
    endloop
  endfacet
  facet normal -0 0 -1
    outer loop
      vertex 12.075 5.89785 0
      vertex 6.83142 2.47672 0
      vertex 11.7621 6.12518 0
    endloop
  endfacet
  facet normal -0 0 -1
    outer loop
      vertex 12.4283 5.74055 0
      vertex 6.85 2.3 0
      vertex 12.075 5.89785 0
    endloop
  endfacet
  facet normal 0 0 -1
    outer loop
      vertex 6.83142 2.47672 0
      vertex 12.075 5.89785 0
      vertex 6.85 2.3 0
    endloop
  endfacet
  facet normal 0 0 -1
    outer loop
      vertex 17 0.4 0
      vertex 6.77651 1.95427 0
      vertex 6.83142 2.12327 0
    endloop
  endfacet
  facet normal 0 0 -1
    outer loop
      vertex 17 0.4 0
      vertex 6.68766 1.80038 0
      vertex 6.77651 1.95427 0
    endloop
  endfacet
  facet normal 0 0 -1
    outer loop
      vertex 17 0.4 0
      vertex 6.56876 1.66833 0
      vertex 6.68766 1.80038 0
    endloop
  endfacet
  facet normal 0 0 -1
    outer loop
      vertex 17 0.4 0
      vertex 6.425 1.56388 0
      vertex 6.56876 1.66833 0
    endloop
  endfacet
  facet normal 0 0 -1
    outer loop
      vertex 17 0.4 0
      vertex 6.26266 1.4916 0
      vertex 6.425 1.56388 0
    endloop
  endfacet
  facet normal 0 0 -1
    outer loop
      vertex 17 0.4 0
      vertex 6.08885 1.45466 0
      vertex 6.26266 1.4916 0
    endloop
  endfacet
  facet normal 0 0 -1
    outer loop
      vertex 0 0.4 0
      vertex 6.08885 1.45466 0
      vertex 17 0.4 0
    endloop
  endfacet
  facet normal 0 0 -1
    outer loop
      vertex 5.43124 2.93167 0
      vertex 4.42832 5.74055 0
      vertex 4.80662 5.66013 0
    endloop
  endfacet
  facet normal 0 0 -1
    outer loop
      vertex 0 0.4 0
      vertex 5.15 2.3 0
      vertex 5.16857 2.12327 0
    endloop
  endfacet
  facet normal 0 0 -1
    outer loop
      vertex 5.22349 2.64573 0
      vertex 4.075 5.89785 0
      vertex 4.42832 5.74055 0
    endloop
  endfacet
  facet normal 0 0 -1
    outer loop
      vertex 5.16857 2.47672 0
      vertex 3.76211 6.12518 0
      vertex 4.075 5.89785 0
    endloop
  endfacet
  facet normal 0 0 -1
    outer loop
      vertex 0 0.4 0
      vertex 5.16857 2.12327 0
      vertex 5.22349 1.95427 0
    endloop
  endfacet
  facet normal -0 0 -1
    outer loop
      vertex 5.16857 2.47672 0
      vertex 0 0.4 0
      vertex 3.76211 6.12518 0
    endloop
  endfacet
  facet normal -0 0 -1
    outer loop
      vertex 3.76211 6.12518 0
      vertex 0 0.4 0
      vertex 3.50332 6.4126 0
    endloop
  endfacet
  facet normal 0 0 -1
    outer loop
      vertex 3.30994 6.74754 0
      vertex 0 10 0
      vertex 3.19043 7.11536 0
    endloop
  endfacet
  facet normal 0 0 -1
    outer loop
      vertex 0 10 0
      vertex 3.30994 6.74754 0
      vertex 0 0.4 0
    endloop
  endfacet
  facet normal -0 0 -1
    outer loop
      vertex 3.50332 6.4126 0
      vertex 0 0.4 0
      vertex 3.30994 6.74754 0
    endloop
  endfacet
  facet normal -0 0 -1
    outer loop
      vertex 5.31234 1.80038 0
      vertex 0 0.4 0
      vertex 5.22349 1.95427 0
    endloop
  endfacet
  facet normal -0 0 -1
    outer loop
      vertex 5.43124 1.66833 0
      vertex 0 0.4 0
      vertex 5.31234 1.80038 0
    endloop
  endfacet
  facet normal -0 0 -1
    outer loop
      vertex 5.575 1.56388 0
      vertex 0 0.4 0
      vertex 5.43124 1.66833 0
    endloop
  endfacet
  facet normal -0 0 -1
    outer loop
      vertex 5.73734 1.4916 0
      vertex 0 0.4 0
      vertex 5.575 1.56388 0
    endloop
  endfacet
  facet normal -0 0 -1
    outer loop
      vertex 5.91115 1.45466 0
      vertex 0 0.4 0
      vertex 5.73734 1.4916 0
    endloop
  endfacet
  facet normal -0 0 -1
    outer loop
      vertex 6.08885 1.45466 0
      vertex 0 0.4 0
      vertex 5.91115 1.45466 0
    endloop
  endfacet
  facet normal 0 0 -1
    outer loop
      vertex 14.8096 7.88464 0
      vertex 17 10 0
      vertex 14.85 7.5 0
    endloop
  endfacet
  facet normal 0 0 -1
    outer loop
      vertex 14.6901 8.25246 0
      vertex 17 10 0
      vertex 14.8096 7.88464 0
    endloop
  endfacet
  facet normal 0 0 -1
    outer loop
      vertex 14.4967 8.5874 0
      vertex 17 10 0
      vertex 14.6901 8.25246 0
    endloop
  endfacet
  facet normal 0 0 -1
    outer loop
      vertex 14.2379 8.87482 0
      vertex 17 10 0
      vertex 14.4967 8.5874 0
    endloop
  endfacet
  facet normal 0 0 -1
    outer loop
      vertex 13.925 9.10215 0
      vertex 17 10 0
      vertex 14.2379 8.87482 0
    endloop
  endfacet
  facet normal 0 0 -1
    outer loop
      vertex 13.5717 9.25945 0
      vertex 17 10 0
      vertex 13.925 9.10215 0
    endloop
  endfacet
  facet normal 0 0 -1
    outer loop
      vertex 13.1934 9.33986 0
      vertex 17 10 0
      vertex 13.5717 9.25945 0
    endloop
  endfacet
  facet normal 0 0 -1
    outer loop
      vertex 12.8066 9.33986 0
      vertex 17 10 0
      vertex 13.1934 9.33986 0
    endloop
  endfacet
  facet normal 0 0 -1
    outer loop
      vertex 11.1904 7.11536 0
      vertex 6.85 7.5 0
      vertex 11.15 7.5 0
    endloop
  endfacet
  facet normal 0 0 -1
    outer loop
      vertex 11.15 7.5 0
      vertex 6.85 7.5 0
      vertex 11.1904 7.88464 0
    endloop
  endfacet
  facet normal 0 0 -1
    outer loop
      vertex 6.80957 7.88464 0
      vertex 11.1904 7.88464 0
      vertex 6.85 7.5 0
    endloop
  endfacet
  facet normal 0 0 -1
    outer loop
      vertex 11.1904 7.88464 0
      vertex 6.80957 7.88464 0
      vertex 11.3099 8.25246 0
    endloop
  endfacet
  facet normal 0 0 -1
    outer loop
      vertex 6.69006 8.25246 0
      vertex 11.3099 8.25246 0
      vertex 6.80957 7.88464 0
    endloop
  endfacet
  facet normal 0 0 -1
    outer loop
      vertex 11.3099 8.25246 0
      vertex 6.69006 8.25246 0
      vertex 11.5033 8.5874 0
    endloop
  endfacet
  facet normal 0 0 -1
    outer loop
      vertex 6.49668 8.5874 0
      vertex 11.5033 8.5874 0
      vertex 6.69006 8.25246 0
    endloop
  endfacet
  facet normal 0 0 -1
    outer loop
      vertex 11.5033 8.5874 0
      vertex 6.49668 8.5874 0
      vertex 11.7621 8.87482 0
    endloop
  endfacet
  facet normal 0 0 -1
    outer loop
      vertex 6.23789 8.87482 0
      vertex 11.7621 8.87482 0
      vertex 6.49668 8.5874 0
    endloop
  endfacet
  facet normal 0 0 -1
    outer loop
      vertex 11.7621 8.87482 0
      vertex 6.23789 8.87482 0
      vertex 12.075 9.10215 0
    endloop
  endfacet
  facet normal 0 0 -1
    outer loop
      vertex 5.925 9.10215 0
      vertex 12.075 9.10215 0
      vertex 6.23789 8.87482 0
    endloop
  endfacet
  facet normal 0 0 -1
    outer loop
      vertex 12.075 9.10215 0
      vertex 5.925 9.10215 0
      vertex 12.4283 9.25945 0
    endloop
  endfacet
  facet normal 0 0 -1
    outer loop
      vertex 5.57168 9.25945 0
      vertex 12.4283 9.25945 0
      vertex 5.925 9.10215 0
    endloop
  endfacet
  facet normal 0 0 -1
    outer loop
      vertex 12.4283 9.25945 0
      vertex 5.57168 9.25945 0
      vertex 12.8066 9.33986 0
    endloop
  endfacet
  facet normal 0 0 -1
    outer loop
      vertex 5.19338 9.33986 0
      vertex 12.8066 9.33986 0
      vertex 5.57168 9.25945 0
    endloop
  endfacet
  facet normal 0 0 -1
    outer loop
      vertex 12.8066 9.33986 0
      vertex 5.19338 9.33986 0
      vertex 17 10 0
    endloop
  endfacet
  facet normal 0 0 -1
    outer loop
      vertex 0 10 0
      vertex 5.19338 9.33986 0
      vertex 4.80662 9.33986 0
    endloop
  endfacet
  facet normal 0 0 -1
    outer loop
      vertex 3.19043 7.11536 0
      vertex 0 10 0
      vertex 3.15 7.5 0
    endloop
  endfacet
  facet normal 0 0 -1
    outer loop
      vertex 3.15 7.5 0
      vertex 0 10 0
      vertex 3.19043 7.88464 0
    endloop
  endfacet
  facet normal 0 0 -1
    outer loop
      vertex 5.19338 9.33986 0
      vertex 0 10 0
      vertex 17 10 0
    endloop
  endfacet
  facet normal 0 0 -1
    outer loop
      vertex 4.42832 9.25945 0
      vertex 0 10 0
      vertex 4.80662 9.33986 0
    endloop
  endfacet
  facet normal 0 0 -1
    outer loop
      vertex 4.075 9.10215 0
      vertex 0 10 0
      vertex 4.42832 9.25945 0
    endloop
  endfacet
  facet normal 0 0 -1
    outer loop
      vertex 3.76211 8.87482 0
      vertex 0 10 0
      vertex 4.075 9.10215 0
    endloop
  endfacet
  facet normal 0 0 -1
    outer loop
      vertex 3.50332 8.5874 0
      vertex 0 10 0
      vertex 3.76211 8.87482 0
    endloop
  endfacet
  facet normal 0 0 -1
    outer loop
      vertex 3.30994 8.25246 0
      vertex 0 10 0
      vertex 3.50332 8.5874 0
    endloop
  endfacet
  facet normal 0 0 -1
    outer loop
      vertex 3.19043 7.88464 0
      vertex 0 10 0
      vertex 3.30994 8.25246 0
    endloop
  endfacet
  facet normal -1 0 0
    outer loop
      vertex 0 10 0
      vertex 0 5 4
      vertex 0 10 4
    endloop
  endfacet
  facet normal -1 0 0
    outer loop
      vertex 0 0.4 0
      vertex 0 5 4
      vertex 0 10 0
    endloop
  endfacet
  facet normal -1 0 0
    outer loop
      vertex 0 0.4 16
      vertex 0 5 4
      vertex 0 0.4 0
    endloop
  endfacet
  facet normal -1 0 0
    outer loop
      vertex 0 5 4
      vertex 0 0.4 16
      vertex 0 5 16
    endloop
  endfacet
  facet normal 0 -1 0
    outer loop
      vertex 0 0.4 16
      vertex 10 0.4 4
      vertex 10 0.4 16
    endloop
  endfacet
  facet normal 0 -1 0
    outer loop
      vertex 0 0.4 0
      vertex 10 0.4 4
      vertex 0 0.4 16
    endloop
  endfacet
  facet normal 0 -1 0
    outer loop
      vertex 17 0.4 0
      vertex 10 0.4 4
      vertex 0 0.4 0
    endloop
  endfacet
  facet normal 0 -1 0
    outer loop
      vertex 10 0.4 4
      vertex 17 0.4 0
      vertex 17 0.4 4
    endloop
  endfacet
  facet normal 0 1 -0
    outer loop
      vertex 17 10 0
      vertex 16.102 10 4
      vertex 17 10 4
    endloop
  endfacet
  facet normal 0 1 0
    outer loop
      vertex 16.102 10 4
      vertex 17 10 0
      vertex 9.89796 10 4
    endloop
  endfacet
  facet normal 0 1 0
    outer loop
      vertex 9.89796 10 4
      vertex 17 10 0
      vertex 8.10203 10 4
    endloop
  endfacet
  facet normal 0 1 0
    outer loop
      vertex 0 10 0
      vertex 8.10203 10 4
      vertex 17 10 0
    endloop
  endfacet
  facet normal 0 1 0
    outer loop
      vertex 8.10203 10 4
      vertex 0 10 0
      vertex 1.89796 10 4
    endloop
  endfacet
  facet normal 0 1 0
    outer loop
      vertex 1.89796 10 4
      vertex 0 10 0
      vertex 0 10 4
    endloop
  endfacet
  facet normal 1 -0 0
    outer loop
      vertex 10 0.4 16
      vertex 10 4.88668 4
      vertex 10 4.88668 16
    endloop
  endfacet
  facet normal 1 0 0
    outer loop
      vertex 10 4.88668 4
      vertex 10 0.4 16
      vertex 10 0.4 4
    endloop
  endfacet
  facet normal 0 0 1
    outer loop
      vertex 10 4.88668 16
      vertex 6.83142 2.47672 16
      vertex 6.85 2.3 16
    endloop
  endfacet
  facet normal 0 0 1
    outer loop
      vertex 7.67652 4.52742 16
      vertex 6.77651 2.64573 16
      vertex 6.83142 2.47672 16
    endloop
  endfacet
  facet normal 0 0 1
    outer loop
      vertex 7 4.0359 16
      vertex 6.68766 2.79962 16
      vertex 6.77651 2.64573 16
    endloop
  endfacet
  facet normal 0 0 1
    outer loop
      vertex 7 4.0359 16
      vertex 6.56876 2.93167 16
      vertex 6.68766 2.79962 16
    endloop
  endfacet
  facet normal 0 0 1
    outer loop
      vertex 7 4.0359 16
      vertex 6.425 3.03612 16
      vertex 6.56876 2.93167 16
    endloop
  endfacet
  facet normal -0 0 1
    outer loop
      vertex 6.23607 3.69577 16
      vertex 6.425 3.03612 16
      vertex 7 4.0359 16
    endloop
  endfacet
  facet normal 0 0 1
    outer loop
      vertex 6.425 3.03612 16
      vertex 6.23607 3.69577 16
      vertex 6.26266 3.1084 16
    endloop
  endfacet
  facet normal 0 0 1
    outer loop
      vertex 6.23607 3.69577 16
      vertex 6.08885 3.14534 16
      vertex 6.26266 3.1084 16
    endloop
  endfacet
  facet normal 0 0 1
    outer loop
      vertex 6.23607 3.69577 16
      vertex 5.91115 3.14534 16
      vertex 6.08885 3.14534 16
    endloop
  endfacet
  facet normal -0 0 1
    outer loop
      vertex 5.41811 3.52191 16
      vertex 5.91115 3.14534 16
      vertex 6.23607 3.69577 16
    endloop
  endfacet
  facet normal 0 0 1
    outer loop
      vertex 5.91115 3.14534 16
      vertex 5.41811 3.52191 16
      vertex 5.73734 3.1084 16
    endloop
  endfacet
  facet normal 0 0 1
    outer loop
      vertex 5.73734 3.1084 16
      vertex 5.41811 3.52191 16
      vertex 5.575 3.03612 16
    endloop
  endfacet
  facet normal 0 0 1
    outer loop
      vertex 5.575 3.03612 16
      vertex 5.41811 3.52191 16
      vertex 5.43124 2.93167 16
    endloop
  endfacet
  facet normal -0 0 1
    outer loop
      vertex 4.58189 3.52191 16
      vertex 5.43124 2.93167 16
      vertex 5.41811 3.52191 16
    endloop
  endfacet
  facet normal 0 0 1
    outer loop
      vertex 5.43124 2.93167 16
      vertex 4.58189 3.52191 16
      vertex 5.31234 2.79962 16
    endloop
  endfacet
  facet normal 0 0 1
    outer loop
      vertex 5.31234 2.79962 16
      vertex 4.58189 3.52191 16
      vertex 5.22349 2.64573 16
    endloop
  endfacet
  facet normal 0 0 1
    outer loop
      vertex 5.16857 2.47672 16
      vertex 4.58189 3.52191 16
      vertex 5.15 2.3 16
    endloop
  endfacet
  facet normal 0 0 1
    outer loop
      vertex 5.22349 2.64573 16
      vertex 4.58189 3.52191 16
      vertex 5.16857 2.47672 16
    endloop
  endfacet
  facet normal -0 0 1
    outer loop
      vertex 8.10204 5 16
      vertex 10 4.88668 16
      vertex 9.89796 5 16
    endloop
  endfacet
  facet normal 0 0 1
    outer loop
      vertex 10 4.88668 16
      vertex 8.10204 5 16
      vertex 7.67652 4.52742 16
    endloop
  endfacet
  facet normal 0 0 1
    outer loop
      vertex 6.83142 2.47672 16
      vertex 10 4.88668 16
      vertex 7.67652 4.52742 16
    endloop
  endfacet
  facet normal 0 0 1
    outer loop
      vertex 6.77651 2.64573 16
      vertex 7.67652 4.52742 16
      vertex 7 4.0359 16
    endloop
  endfacet
  facet normal 0 0 1
    outer loop
      vertex 10 4.88668 16
      vertex 6.85 2.3 16
      vertex 10 0.4 16
    endloop
  endfacet
  facet normal -0 0 1
    outer loop
      vertex 6.83142 2.12327 16
      vertex 10 0.4 16
      vertex 6.85 2.3 16
    endloop
  endfacet
  facet normal -0 0 1
    outer loop
      vertex 6.77651 1.95427 16
      vertex 10 0.4 16
      vertex 6.83142 2.12327 16
    endloop
  endfacet
  facet normal -0 0 1
    outer loop
      vertex 6.68766 1.80038 16
      vertex 10 0.4 16
      vertex 6.77651 1.95427 16
    endloop
  endfacet
  facet normal -0 0 1
    outer loop
      vertex 6.56876 1.66833 16
      vertex 10 0.4 16
      vertex 6.68766 1.80038 16
    endloop
  endfacet
  facet normal -0 0 1
    outer loop
      vertex 6.425 1.56388 16
      vertex 10 0.4 16
      vertex 6.56876 1.66833 16
    endloop
  endfacet
  facet normal -0 0 1
    outer loop
      vertex 6.26266 1.4916 16
      vertex 10 0.4 16
      vertex 6.425 1.56388 16
    endloop
  endfacet
  facet normal -0 0 1
    outer loop
      vertex 6.08885 1.45466 16
      vertex 10 0.4 16
      vertex 6.26266 1.4916 16
    endloop
  endfacet
  facet normal -0 0 1
    outer loop
      vertex 5.91115 1.45466 16
      vertex 10 0.4 16
      vertex 6.08885 1.45466 16
    endloop
  endfacet
  facet normal 0 0 1
    outer loop
      vertex 0 0.4 16
      vertex 5.91115 1.45466 16
      vertex 5.73734 1.4916 16
    endloop
  endfacet
  facet normal 0 0 1
    outer loop
      vertex 3.76393 3.69577 16
      vertex 5.15 2.3 16
      vertex 4.58189 3.52191 16
    endloop
  endfacet
  facet normal 0 0 1
    outer loop
      vertex 5.15 2.3 16
      vertex 3.76393 3.69577 16
      vertex 5.16857 2.12327 16
    endloop
  endfacet
  facet normal 0 0 1
    outer loop
      vertex 0 0.4 16
      vertex 5.16857 2.12327 16
      vertex 3.76393 3.69577 16
    endloop
  endfacet
  facet normal 0 0 1
    outer loop
      vertex 5.16857 2.12327 16
      vertex 0 0.4 16
      vertex 5.22349 1.95427 16
    endloop
  endfacet
  facet normal 0 0 1
    outer loop
      vertex 0 0.4 16
      vertex 3.76393 3.69577 16
      vertex 3 4.0359 16
    endloop
  endfacet
  facet normal 0 0 1
    outer loop
      vertex 5.22349 1.95427 16
      vertex 0 0.4 16
      vertex 5.31234 1.80038 16
    endloop
  endfacet
  facet normal 0 0 1
    outer loop
      vertex 0 0.4 16
      vertex 3 4.0359 16
      vertex 2.32348 4.52742 16
    endloop
  endfacet
  facet normal -0 0 1
    outer loop
      vertex 0 5 16
      vertex 2.32348 4.52742 16
      vertex 1.89796 5 16
    endloop
  endfacet
  facet normal 0 0 1
    outer loop
      vertex 0 0.4 16
      vertex 2.32348 4.52742 16
      vertex 0 5 16
    endloop
  endfacet
  facet normal 0 0 1
    outer loop
      vertex 5.31234 1.80038 16
      vertex 0 0.4 16
      vertex 5.43124 1.66833 16
    endloop
  endfacet
  facet normal 0 0 1
    outer loop
      vertex 5.91115 1.45466 16
      vertex 0 0.4 16
      vertex 10 0.4 16
    endloop
  endfacet
  facet normal 0 0 1
    outer loop
      vertex 5.575 1.56388 16
      vertex 0 0.4 16
      vertex 5.73734 1.4916 16
    endloop
  endfacet
  facet normal 0 0 1
    outer loop
      vertex 5.43124 1.66833 16
      vertex 0 0.4 16
      vertex 5.575 1.56388 16
    endloop
  endfacet
  facet normal 0 1 -0
    outer loop
      vertex 1.89796 5 4
      vertex 0 5 16
      vertex 1.89796 5 16
    endloop
  endfacet
  facet normal 0 1 0
    outer loop
      vertex 0 5 16
      vertex 1.89796 5 4
      vertex 0 5 4
    endloop
  endfacet
  facet normal 0 1 -0
    outer loop
      vertex 9.89796 5 4
      vertex 8.10204 5 16
      vertex 9.89796 5 16
    endloop
  endfacet
  facet normal 0 1 0
    outer loop
      vertex 8.10204 5 16
      vertex 9.89796 5 4
      vertex 8.10204 5 4
    endloop
  endfacet
  facet normal -0.207888 0.978153 0
    outer loop
      vertex 6.26266 1.4916 0
      vertex 6.08885 1.45466 16
      vertex 6.26266 1.4916 16
    endloop
  endfacet
  facet normal -0.207888 0.978153 0
    outer loop
      vertex 6.08885 1.45466 16
      vertex 6.26266 1.4916 0
      vertex 6.08885 1.45466 0
    endloop
  endfacet
  facet normal -0.951059 0.30901 0
    outer loop
      vertex 6.77651 1.95427 0
      vertex 6.83142 2.12327 16
      vertex 6.83142 2.12327 0
    endloop
  endfacet
  facet normal -0.951059 0.30901 0
    outer loop
      vertex 6.83142 2.12327 16
      vertex 6.77651 1.95427 0
      vertex 6.77651 1.95427 16
    endloop
  endfacet
  facet normal -0.994519 0.104556 0
    outer loop
      vertex 6.83142 2.12327 0
      vertex 6.85 2.3 16
      vertex 6.85 2.3 0
    endloop
  endfacet
  facet normal -0.994519 0.104556 0
    outer loop
      vertex 6.85 2.3 16
      vertex 6.83142 2.12327 0
      vertex 6.83142 2.12327 16
    endloop
  endfacet
  facet normal -0.866022 0.500007 0
    outer loop
      vertex 6.68766 1.80038 0
      vertex 6.77651 1.95427 16
      vertex 6.77651 1.95427 0
    endloop
  endfacet
  facet normal -0.866022 0.500007 0
    outer loop
      vertex 6.77651 1.95427 16
      vertex 6.68766 1.80038 0
      vertex 6.68766 1.80038 16
    endloop
  endfacet
  facet normal -0.74314 -0.669136 0
    outer loop
      vertex 6.68766 2.79962 0
      vertex 6.56876 2.93167 16
      vertex 6.56876 2.93167 0
    endloop
  endfacet
  facet normal -0.74314 -0.669136 0
    outer loop
      vertex 6.56876 2.93167 16
      vertex 6.68766 2.79962 0
      vertex 6.68766 2.79962 16
    endloop
  endfacet
  facet normal 0.406744 0.913542 -0
    outer loop
      vertex 5.73734 1.4916 0
      vertex 5.575 1.56388 16
      vertex 5.73734 1.4916 16
    endloop
  endfacet
  facet normal 0.406744 0.913542 0
    outer loop
      vertex 5.575 1.56388 16
      vertex 5.73734 1.4916 0
      vertex 5.575 1.56388 0
    endloop
  endfacet
  facet normal -0.74314 0.669136 0
    outer loop
      vertex 6.56876 1.66833 0
      vertex 6.68766 1.80038 16
      vertex 6.68766 1.80038 0
    endloop
  endfacet
  facet normal -0.74314 0.669136 0
    outer loop
      vertex 6.68766 1.80038 16
      vertex 6.56876 1.66833 0
      vertex 6.56876 1.66833 16
    endloop
  endfacet
  facet normal 0.951048 -0.309044 0
    outer loop
      vertex 5.16857 2.47672 16
      vertex 5.22349 2.64573 0
      vertex 5.22349 2.64573 16
    endloop
  endfacet
  facet normal 0.951048 -0.309044 0
    outer loop
      vertex 5.22349 2.64573 0
      vertex 5.16857 2.47672 16
      vertex 5.16857 2.47672 0
    endloop
  endfacet
  facet normal -0.866022 -0.500007 0
    outer loop
      vertex 6.77651 2.64573 0
      vertex 6.68766 2.79962 16
      vertex 6.68766 2.79962 0
    endloop
  endfacet
  facet normal -0.866022 -0.500007 0
    outer loop
      vertex 6.68766 2.79962 16
      vertex 6.77651 2.64573 0
      vertex 6.77651 2.64573 16
    endloop
  endfacet
  facet normal -0.587794 -0.809011 0
    outer loop
      vertex 6.425 3.03612 0
      vertex 6.56876 2.93167 16
      vertex 6.425 3.03612 16
    endloop
  endfacet
  facet normal -0.587794 -0.809011 -0
    outer loop
      vertex 6.56876 2.93167 16
      vertex 6.425 3.03612 0
      vertex 6.56876 2.93167 0
    endloop
  endfacet
  facet normal -0.951064 -0.308993 0
    outer loop
      vertex 6.83142 2.47672 0
      vertex 6.77651 2.64573 16
      vertex 6.77651 2.64573 0
    endloop
  endfacet
  facet normal -0.951064 -0.308993 0
    outer loop
      vertex 6.77651 2.64573 16
      vertex 6.83142 2.47672 0
      vertex 6.83142 2.47672 16
    endloop
  endfacet
  facet normal 0.406744 -0.913542 0
    outer loop
      vertex 5.575 3.03612 0
      vertex 5.73734 3.1084 16
      vertex 5.575 3.03612 16
    endloop
  endfacet
  facet normal 0.406744 -0.913542 0
    outer loop
      vertex 5.73734 3.1084 16
      vertex 5.575 3.03612 0
      vertex 5.73734 3.1084 0
    endloop
  endfacet
  facet normal 0.951042 0.309061 0
    outer loop
      vertex 5.22349 1.95427 16
      vertex 5.16857 2.12327 0
      vertex 5.16857 2.12327 16
    endloop
  endfacet
  facet normal 0.951042 0.309061 0
    outer loop
      vertex 5.16857 2.12327 0
      vertex 5.22349 1.95427 16
      vertex 5.22349 1.95427 0
    endloop
  endfacet
  facet normal -0.587794 0.809011 0
    outer loop
      vertex 6.56876 1.66833 0
      vertex 6.425 1.56388 16
      vertex 6.56876 1.66833 16
    endloop
  endfacet
  facet normal -0.587794 0.809011 0
    outer loop
      vertex 6.425 1.56388 16
      vertex 6.56876 1.66833 0
      vertex 6.425 1.56388 0
    endloop
  endfacet
  facet normal 0.866022 -0.500007 0
    outer loop
      vertex 5.22349 2.64573 16
      vertex 5.31234 2.79962 0
      vertex 5.31234 2.79962 16
    endloop
  endfacet
  facet normal 0.866022 -0.500007 0
    outer loop
      vertex 5.31234 2.79962 0
      vertex 5.22349 2.64573 16
      vertex 5.22349 2.64573 0
    endloop
  endfacet
  facet normal -0.406744 -0.913542 0
    outer loop
      vertex 6.26266 3.1084 0
      vertex 6.425 3.03612 16
      vertex 6.26266 3.1084 16
    endloop
  endfacet
  facet normal -0.406744 -0.913542 -0
    outer loop
      vertex 6.425 3.03612 16
      vertex 6.26266 3.1084 0
      vertex 6.425 3.03612 0
    endloop
  endfacet
  facet normal 0.207888 -0.978153 0
    outer loop
      vertex 5.73734 3.1084 0
      vertex 5.91115 3.14534 16
      vertex 5.73734 3.1084 16
    endloop
  endfacet
  facet normal 0.207888 -0.978153 0
    outer loop
      vertex 5.91115 3.14534 16
      vertex 5.73734 3.1084 0
      vertex 5.91115 3.14534 0
    endloop
  endfacet
  facet normal -0.406744 0.913542 0
    outer loop
      vertex 6.425 1.56388 0
      vertex 6.26266 1.4916 16
      vertex 6.425 1.56388 16
    endloop
  endfacet
  facet normal -0.406744 0.913542 0
    outer loop
      vertex 6.26266 1.4916 16
      vertex 6.425 1.56388 0
      vertex 6.26266 1.4916 0
    endloop
  endfacet
  facet normal 0.587794 0.809011 -0
    outer loop
      vertex 5.575 1.56388 0
      vertex 5.43124 1.66833 16
      vertex 5.575 1.56388 16
    endloop
  endfacet
  facet normal 0.587794 0.809011 0
    outer loop
      vertex 5.43124 1.66833 16
      vertex 5.575 1.56388 0
      vertex 5.43124 1.66833 0
    endloop
  endfacet
  facet normal -0.994518 -0.104562 0
    outer loop
      vertex 6.85 2.3 0
      vertex 6.83142 2.47672 16
      vertex 6.83142 2.47672 0
    endloop
  endfacet
  facet normal -0.994518 -0.104562 0
    outer loop
      vertex 6.83142 2.47672 16
      vertex 6.85 2.3 0
      vertex 6.85 2.3 16
    endloop
  endfacet
  facet normal 0 1 -0
    outer loop
      vertex 6.08885 1.45466 0
      vertex 5.91115 1.45466 16
      vertex 6.08885 1.45466 16
    endloop
  endfacet
  facet normal 0 1 0
    outer loop
      vertex 5.91115 1.45466 16
      vertex 6.08885 1.45466 0
      vertex 5.91115 1.45466 0
    endloop
  endfacet
  facet normal 0.74314 0.669136 0
    outer loop
      vertex 5.43124 1.66833 16
      vertex 5.31234 1.80038 0
      vertex 5.31234 1.80038 16
    endloop
  endfacet
  facet normal 0.74314 0.669136 0
    outer loop
      vertex 5.31234 1.80038 0
      vertex 5.43124 1.66833 16
      vertex 5.43124 1.66833 0
    endloop
  endfacet
  facet normal 0 -1 0
    outer loop
      vertex 5.91115 3.14534 0
      vertex 6.08885 3.14534 16
      vertex 5.91115 3.14534 16
    endloop
  endfacet
  facet normal 0 -1 -0
    outer loop
      vertex 6.08885 3.14534 16
      vertex 5.91115 3.14534 0
      vertex 6.08885 3.14534 0
    endloop
  endfacet
  facet normal 0.994525 0.1045 0
    outer loop
      vertex 5.16857 2.12327 16
      vertex 5.15 2.3 0
      vertex 5.15 2.3 16
    endloop
  endfacet
  facet normal 0.994525 0.1045 0
    outer loop
      vertex 5.15 2.3 0
      vertex 5.16857 2.12327 16
      vertex 5.16857 2.12327 0
    endloop
  endfacet
  facet normal 0.587794 -0.809011 0
    outer loop
      vertex 5.43124 2.93167 0
      vertex 5.575 3.03612 16
      vertex 5.43124 2.93167 16
    endloop
  endfacet
  facet normal 0.587794 -0.809011 0
    outer loop
      vertex 5.575 3.03612 16
      vertex 5.43124 2.93167 0
      vertex 5.575 3.03612 0
    endloop
  endfacet
  facet normal 0.207888 0.978153 -0
    outer loop
      vertex 5.91115 1.45466 0
      vertex 5.73734 1.4916 16
      vertex 5.91115 1.45466 16
    endloop
  endfacet
  facet normal 0.207888 0.978153 0
    outer loop
      vertex 5.73734 1.4916 16
      vertex 5.91115 1.45466 0
      vertex 5.73734 1.4916 0
    endloop
  endfacet
  facet normal -0.207888 -0.978153 0
    outer loop
      vertex 6.08885 3.14534 0
      vertex 6.26266 3.1084 16
      vertex 6.08885 3.14534 16
    endloop
  endfacet
  facet normal -0.207888 -0.978153 -0
    outer loop
      vertex 6.26266 3.1084 16
      vertex 6.08885 3.14534 0
      vertex 6.26266 3.1084 0
    endloop
  endfacet
  facet normal 0.74314 -0.669136 0
    outer loop
      vertex 5.31234 2.79962 16
      vertex 5.43124 2.93167 0
      vertex 5.43124 2.93167 16
    endloop
  endfacet
  facet normal 0.74314 -0.669136 0
    outer loop
      vertex 5.43124 2.93167 0
      vertex 5.31234 2.79962 16
      vertex 5.31234 2.79962 0
    endloop
  endfacet
  facet normal 0.994524 -0.104506 0
    outer loop
      vertex 5.15 2.3 16
      vertex 5.16857 2.47672 0
      vertex 5.16857 2.47672 16
    endloop
  endfacet
  facet normal 0.994524 -0.104506 0
    outer loop
      vertex 5.16857 2.47672 0
      vertex 5.15 2.3 16
      vertex 5.15 2.3 0
    endloop
  endfacet
  facet normal 0.866022 0.500007 0
    outer loop
      vertex 5.31234 1.80038 16
      vertex 5.22349 1.95427 0
      vertex 5.22349 1.95427 16
    endloop
  endfacet
  facet normal 0.866022 0.500007 0
    outer loop
      vertex 5.22349 1.95427 0
      vertex 5.31234 1.80038 16
      vertex 5.31234 1.80038 0
    endloop
  endfacet
  facet normal 0 1 -0
    outer loop
      vertex 5.41811 3.52191 4
      vertex 4.58189 3.52191 16
      vertex 5.41811 3.52191 16
    endloop
  endfacet
  facet normal 0 1 0
    outer loop
      vertex 4.58189 3.52191 16
      vertex 5.41811 3.52191 4
      vertex 4.58189 3.52191 4
    endloop
  endfacet
  facet normal 0.743139 0.669137 0
    outer loop
      vertex 2.32348 4.52742 16
      vertex 1.89796 5 4
      vertex 1.89796 5 16
    endloop
  endfacet
  facet normal 0.743139 0.669137 0
    outer loop
      vertex 1.89796 5 4
      vertex 2.32348 4.52742 16
      vertex 2.32348 4.52742 4
    endloop
  endfacet
  facet normal -0.743139 0.669137 0
    outer loop
      vertex 7.67652 4.52742 4
      vertex 8.10204 5 16
      vertex 8.10204 5 4
    endloop
  endfacet
  facet normal -0.743139 0.669137 0
    outer loop
      vertex 8.10204 5 16
      vertex 7.67652 4.52742 4
      vertex 7.67652 4.52742 16
    endloop
  endfacet
  facet normal 0.406743 0.913543 -0
    outer loop
      vertex 3.76393 3.69577 4
      vertex 3 4.0359 16
      vertex 3.76393 3.69577 16
    endloop
  endfacet
  facet normal 0.406743 0.913543 0
    outer loop
      vertex 3 4.0359 16
      vertex 3.76393 3.69577 4
      vertex 3 4.0359 4
    endloop
  endfacet
  facet normal -0.587785 0.809017 0
    outer loop
      vertex 7.67652 4.52742 4
      vertex 7 4.0359 16
      vertex 7.67652 4.52742 16
    endloop
  endfacet
  facet normal -0.587785 0.809017 0
    outer loop
      vertex 7 4.0359 16
      vertex 7.67652 4.52742 4
      vertex 7 4.0359 4
    endloop
  endfacet
  facet normal 0.587785 0.809017 -0
    outer loop
      vertex 3 4.0359 4
      vertex 2.32348 4.52742 16
      vertex 3 4.0359 16
    endloop
  endfacet
  facet normal 0.587785 0.809017 0
    outer loop
      vertex 2.32348 4.52742 16
      vertex 3 4.0359 4
      vertex 2.32348 4.52742 4
    endloop
  endfacet
  facet normal -0.406743 0.913543 0
    outer loop
      vertex 7 4.0359 4
      vertex 6.23607 3.69577 16
      vertex 7 4.0359 16
    endloop
  endfacet
  facet normal -0.406743 0.913543 0
    outer loop
      vertex 6.23607 3.69577 16
      vertex 7 4.0359 4
      vertex 6.23607 3.69577 4
    endloop
  endfacet
  facet normal -0.207909 0.978148 0
    outer loop
      vertex 6.23607 3.69577 4
      vertex 5.41811 3.52191 16
      vertex 6.23607 3.69577 16
    endloop
  endfacet
  facet normal -0.207909 0.978148 0
    outer loop
      vertex 5.41811 3.52191 16
      vertex 6.23607 3.69577 4
      vertex 5.41811 3.52191 4
    endloop
  endfacet
  facet normal 0.207909 0.978148 -0
    outer loop
      vertex 4.58189 3.52191 4
      vertex 3.76393 3.69577 16
      vertex 4.58189 3.52191 16
    endloop
  endfacet
  facet normal 0.207909 0.978148 0
    outer loop
      vertex 3.76393 3.69577 16
      vertex 4.58189 3.52191 4
      vertex 3.76393 3.69577 4
    endloop
  endfacet
  facet normal -0.951058 0.309012 0
    outer loop
      vertex 6.69006 6.74754 0
      vertex 6.80957 7.11536 4
      vertex 6.80957 7.11536 0
    endloop
  endfacet
  facet normal -0.951058 0.309012 0
    outer loop
      vertex 6.80957 7.11536 4
      vertex 6.69006 6.74754 0
      vertex 6.69006 6.74754 4
    endloop
  endfacet
  facet normal -0.994521 0.104535 0
    outer loop
      vertex 6.80957 7.11536 0
      vertex 6.85 7.5 4
      vertex 6.85 7.5 0
    endloop
  endfacet
  facet normal -0.994521 0.104535 0
    outer loop
      vertex 6.85 7.5 4
      vertex 6.80957 7.11536 0
      vertex 6.80957 7.11536 4
    endloop
  endfacet
  facet normal 0 1 -0
    outer loop
      vertex 5.19338 5.66013 0
      vertex 4.80662 5.66013 4
      vertex 5.19338 5.66013 4
    endloop
  endfacet
  facet normal 0 1 0
    outer loop
      vertex 4.80662 5.66013 4
      vertex 5.19338 5.66013 0
      vertex 4.80662 5.66013 0
    endloop
  endfacet
  facet normal -0.994521 -0.104535 0
    outer loop
      vertex 6.85 7.5 0
      vertex 6.80957 7.88464 4
      vertex 6.80957 7.88464 0
    endloop
  endfacet
  facet normal -0.994521 -0.104535 0
    outer loop
      vertex 6.80957 7.88464 4
      vertex 6.85 7.5 0
      vertex 6.85 7.5 4
    endloop
  endfacet
  facet normal -0.406719 0.913553 0
    outer loop
      vertex 5.925 5.89785 0
      vertex 5.57168 5.74055 4
      vertex 5.925 5.89785 4
    endloop
  endfacet
  facet normal -0.406719 0.913553 0
    outer loop
      vertex 5.57168 5.74055 4
      vertex 5.925 5.89785 0
      vertex 5.57168 5.74055 0
    endloop
  endfacet
  facet normal 0.951058 0.309012 0
    outer loop
      vertex 3.30994 6.74754 4
      vertex 3.19043 7.11536 0
      vertex 3.19043 7.11536 4
    endloop
  endfacet
  facet normal 0.951058 0.309012 0
    outer loop
      vertex 3.19043 7.11536 0
      vertex 3.30994 6.74754 4
      vertex 3.30994 6.74754 0
    endloop
  endfacet
  facet normal 0.406719 0.913553 -0
    outer loop
      vertex 4.42832 5.74055 0
      vertex 4.075 5.89785 4
      vertex 4.42832 5.74055 4
    endloop
  endfacet
  facet normal 0.406719 0.913553 0
    outer loop
      vertex 4.075 5.89785 4
      vertex 4.42832 5.74055 0
      vertex 4.075 5.89785 0
    endloop
  endfacet
  facet normal 0.207936 0.978142 -0
    outer loop
      vertex 4.80662 5.66013 0
      vertex 4.42832 5.74055 4
      vertex 4.80662 5.66013 4
    endloop
  endfacet
  facet normal 0.207936 0.978142 0
    outer loop
      vertex 4.42832 5.74055 4
      vertex 4.80662 5.66013 0
      vertex 4.42832 5.74055 0
    endloop
  endfacet
  facet normal -0.207936 0.978142 0
    outer loop
      vertex 5.57168 5.74055 0
      vertex 5.19338 5.66013 4
      vertex 5.57168 5.74055 4
    endloop
  endfacet
  facet normal -0.207936 0.978142 0
    outer loop
      vertex 5.19338 5.66013 4
      vertex 5.57168 5.74055 0
      vertex 5.19338 5.66013 0
    endloop
  endfacet
  facet normal 0.74315 0.669125 0
    outer loop
      vertex 3.76211 6.12518 4
      vertex 3.50332 6.4126 0
      vertex 3.50332 6.4126 4
    endloop
  endfacet
  facet normal 0.74315 0.669125 0
    outer loop
      vertex 3.50332 6.4126 0
      vertex 3.76211 6.12518 4
      vertex 3.76211 6.12518 0
    endloop
  endfacet
  facet normal 0.866023 0.500004 0
    outer loop
      vertex 3.50332 6.4126 4
      vertex 3.30994 6.74754 0
      vertex 3.30994 6.74754 4
    endloop
  endfacet
  facet normal 0.866023 0.500004 0
    outer loop
      vertex 3.30994 6.74754 0
      vertex 3.50332 6.4126 4
      vertex 3.50332 6.4126 0
    endloop
  endfacet
  facet normal -0.74315 -0.669125 0
    outer loop
      vertex 6.49668 8.5874 0
      vertex 6.23789 8.87482 4
      vertex 6.23789 8.87482 0
    endloop
  endfacet
  facet normal -0.74315 -0.669125 0
    outer loop
      vertex 6.23789 8.87482 4
      vertex 6.49668 8.5874 0
      vertex 6.49668 8.5874 4
    endloop
  endfacet
  facet normal 0.994521 0.104535 0
    outer loop
      vertex 3.19043 7.11536 4
      vertex 3.15 7.5 0
      vertex 3.15 7.5 4
    endloop
  endfacet
  facet normal 0.994521 0.104535 0
    outer loop
      vertex 3.15 7.5 0
      vertex 3.19043 7.11536 4
      vertex 3.19043 7.11536 0
    endloop
  endfacet
  facet normal -0.587789 -0.809014 0
    outer loop
      vertex 5.925 9.10215 0
      vertex 6.23789 8.87482 4
      vertex 5.925 9.10215 4
    endloop
  endfacet
  facet normal -0.587789 -0.809014 -0
    outer loop
      vertex 6.23789 8.87482 4
      vertex 5.925 9.10215 0
      vertex 6.23789 8.87482 0
    endloop
  endfacet
  facet normal -0.866023 -0.500004 0
    outer loop
      vertex 6.69006 8.25246 0
      vertex 6.49668 8.5874 4
      vertex 6.49668 8.5874 0
    endloop
  endfacet
  facet normal -0.866023 -0.500004 0
    outer loop
      vertex 6.49668 8.5874 4
      vertex 6.69006 8.25246 0
      vertex 6.69006 8.25246 4
    endloop
  endfacet
  facet normal -0.406719 -0.913553 0
    outer loop
      vertex 5.57168 9.25945 0
      vertex 5.925 9.10215 4
      vertex 5.57168 9.25945 4
    endloop
  endfacet
  facet normal -0.406719 -0.913553 -0
    outer loop
      vertex 5.925 9.10215 4
      vertex 5.57168 9.25945 0
      vertex 5.925 9.10215 0
    endloop
  endfacet
  facet normal 0.866023 -0.500004 0
    outer loop
      vertex 3.30994 8.25246 4
      vertex 3.50332 8.5874 0
      vertex 3.50332 8.5874 4
    endloop
  endfacet
  facet normal 0.866023 -0.500004 0
    outer loop
      vertex 3.50332 8.5874 0
      vertex 3.30994 8.25246 4
      vertex 3.30994 8.25246 0
    endloop
  endfacet
  facet normal 0 -1 0
    outer loop
      vertex 4.80662 9.33986 0
      vertex 5.19338 9.33986 4
      vertex 4.80662 9.33986 4
    endloop
  endfacet
  facet normal 0 -1 -0
    outer loop
      vertex 5.19338 9.33986 4
      vertex 4.80662 9.33986 0
      vertex 5.19338 9.33986 0
    endloop
  endfacet
  facet normal 0.587789 0.809014 -0
    outer loop
      vertex 4.075 5.89785 0
      vertex 3.76211 6.12518 4
      vertex 4.075 5.89785 4
    endloop
  endfacet
  facet normal 0.587789 0.809014 0
    outer loop
      vertex 3.76211 6.12518 4
      vertex 4.075 5.89785 0
      vertex 3.76211 6.12518 0
    endloop
  endfacet
  facet normal 0.74315 -0.669125 0
    outer loop
      vertex 3.50332 8.5874 4
      vertex 3.76211 8.87482 0
      vertex 3.76211 8.87482 4
    endloop
  endfacet
  facet normal 0.74315 -0.669125 0
    outer loop
      vertex 3.76211 8.87482 0
      vertex 3.50332 8.5874 4
      vertex 3.50332 8.5874 0
    endloop
  endfacet
  facet normal 0.406719 -0.913553 0
    outer loop
      vertex 4.075 9.10215 0
      vertex 4.42832 9.25945 4
      vertex 4.075 9.10215 4
    endloop
  endfacet
  facet normal 0.406719 -0.913553 0
    outer loop
      vertex 4.42832 9.25945 4
      vertex 4.075 9.10215 0
      vertex 4.42832 9.25945 0
    endloop
  endfacet
  facet normal -0.951058 -0.309012 0
    outer loop
      vertex 6.80957 7.88464 0
      vertex 6.69006 8.25246 4
      vertex 6.69006 8.25246 0
    endloop
  endfacet
  facet normal -0.951058 -0.309012 0
    outer loop
      vertex 6.69006 8.25246 4
      vertex 6.80957 7.88464 0
      vertex 6.80957 7.88464 4
    endloop
  endfacet
  facet normal -0.587789 0.809014 0
    outer loop
      vertex 6.23789 6.12518 0
      vertex 5.925 5.89785 4
      vertex 6.23789 6.12518 4
    endloop
  endfacet
  facet normal -0.587789 0.809014 0
    outer loop
      vertex 5.925 5.89785 4
      vertex 6.23789 6.12518 0
      vertex 5.925 5.89785 0
    endloop
  endfacet
  facet normal 0.207911 -0.978148 0
    outer loop
      vertex 4.42832 9.25945 0
      vertex 4.80662 9.33986 4
      vertex 4.42832 9.25945 4
    endloop
  endfacet
  facet normal 0.207911 -0.978148 0
    outer loop
      vertex 4.80662 9.33986 4
      vertex 4.42832 9.25945 0
      vertex 4.80662 9.33986 0
    endloop
  endfacet
  facet normal -0.74315 0.669125 0
    outer loop
      vertex 6.23789 6.12518 0
      vertex 6.49668 6.4126 4
      vertex 6.49668 6.4126 0
    endloop
  endfacet
  facet normal -0.74315 0.669125 0
    outer loop
      vertex 6.49668 6.4126 4
      vertex 6.23789 6.12518 0
      vertex 6.23789 6.12518 4
    endloop
  endfacet
  facet normal -0.866023 0.500004 0
    outer loop
      vertex 6.49668 6.4126 0
      vertex 6.69006 6.74754 4
      vertex 6.69006 6.74754 0
    endloop
  endfacet
  facet normal -0.866023 0.500004 0
    outer loop
      vertex 6.69006 6.74754 4
      vertex 6.49668 6.4126 0
      vertex 6.49668 6.4126 4
    endloop
  endfacet
  facet normal 0.994521 -0.104535 0
    outer loop
      vertex 3.15 7.5 4
      vertex 3.19043 7.88464 0
      vertex 3.19043 7.88464 4
    endloop
  endfacet
  facet normal 0.994521 -0.104535 0
    outer loop
      vertex 3.19043 7.88464 0
      vertex 3.15 7.5 4
      vertex 3.15 7.5 0
    endloop
  endfacet
  facet normal 0.951058 -0.309012 0
    outer loop
      vertex 3.19043 7.88464 4
      vertex 3.30994 8.25246 0
      vertex 3.30994 8.25246 4
    endloop
  endfacet
  facet normal 0.951058 -0.309012 0
    outer loop
      vertex 3.30994 8.25246 0
      vertex 3.19043 7.88464 4
      vertex 3.19043 7.88464 0
    endloop
  endfacet
  facet normal -0.207911 -0.978148 0
    outer loop
      vertex 5.19338 9.33986 0
      vertex 5.57168 9.25945 4
      vertex 5.19338 9.33986 4
    endloop
  endfacet
  facet normal -0.207911 -0.978148 -0
    outer loop
      vertex 5.57168 9.25945 4
      vertex 5.19338 9.33986 0
      vertex 5.57168 9.25945 0
    endloop
  endfacet
  facet normal 0.587789 -0.809014 0
    outer loop
      vertex 3.76211 8.87482 0
      vertex 4.075 9.10215 4
      vertex 3.76211 8.87482 4
    endloop
  endfacet
  facet normal 0.587789 -0.809014 0
    outer loop
      vertex 4.075 9.10215 4
      vertex 3.76211 8.87482 0
      vertex 4.075 9.10215 0
    endloop
  endfacet
  facet normal -0.951066 0.308989 0
    outer loop
      vertex 14.6901 6.74754 0
      vertex 14.8096 7.11536 4
      vertex 14.8096 7.11536 0
    endloop
  endfacet
  facet normal -0.951066 0.308989 0
    outer loop
      vertex 14.8096 7.11536 4
      vertex 14.6901 6.74754 0
      vertex 14.6901 6.74754 4
    endloop
  endfacet
  facet normal -0.994529 0.104459 0
    outer loop
      vertex 14.8096 7.11536 0
      vertex 14.85 7.5 4
      vertex 14.85 7.5 0
    endloop
  endfacet
  facet normal -0.994529 0.104459 0
    outer loop
      vertex 14.85 7.5 4
      vertex 14.8096 7.11536 0
      vertex 14.8096 7.11536 4
    endloop
  endfacet
  facet normal -0.994529 -0.104459 0
    outer loop
      vertex 14.85 7.5 0
      vertex 14.8096 7.88464 4
      vertex 14.8096 7.88464 0
    endloop
  endfacet
  facet normal -0.994529 -0.104459 0
    outer loop
      vertex 14.8096 7.88464 4
      vertex 14.85 7.5 0
      vertex 14.85 7.5 4
    endloop
  endfacet
  facet normal -0.406738 0.913545 0
    outer loop
      vertex 13.925 5.89785 0
      vertex 13.5717 5.74055 4
      vertex 13.925 5.89785 4
    endloop
  endfacet
  facet normal -0.406738 0.913545 0
    outer loop
      vertex 13.5717 5.74055 4
      vertex 13.925 5.89785 0
      vertex 13.5717 5.74055 0
    endloop
  endfacet
  facet normal -0.207911 -0.978148 0
    outer loop
      vertex 13.1934 9.33986 0
      vertex 13.5717 9.25945 4
      vertex 13.1934 9.33986 4
    endloop
  endfacet
  facet normal -0.207911 -0.978148 -0
    outer loop
      vertex 13.5717 9.25945 4
      vertex 13.1934 9.33986 0
      vertex 13.5717 9.25945 0
    endloop
  endfacet
  facet normal -0.743137 -0.669139 0
    outer loop
      vertex 14.4967 8.5874 0
      vertex 14.2379 8.87482 4
      vertex 14.2379 8.87482 0
    endloop
  endfacet
  facet normal -0.743137 -0.669139 0
    outer loop
      vertex 14.2379 8.87482 4
      vertex 14.4967 8.5874 0
      vertex 14.4967 8.5874 4
    endloop
  endfacet
  facet normal 0.743137 0.669139 0
    outer loop
      vertex 11.7621 6.12518 4
      vertex 11.5033 6.4126 0
      vertex 11.5033 6.4126 4
    endloop
  endfacet
  facet normal 0.743137 0.669139 0
    outer loop
      vertex 11.5033 6.4126 0
      vertex 11.7621 6.12518 4
      vertex 11.7621 6.12518 0
    endloop
  endfacet
  facet normal 0.866 0.500043 0
    outer loop
      vertex 11.5033 6.4126 4
      vertex 11.3099 6.74754 0
      vertex 11.3099 6.74754 4
    endloop
  endfacet
  facet normal 0.866 0.500043 0
    outer loop
      vertex 11.3099 6.74754 0
      vertex 11.5033 6.4126 4
      vertex 11.5033 6.4126 0
    endloop
  endfacet
  facet normal 0.994529 0.104459 0
    outer loop
      vertex 11.1904 7.11536 4
      vertex 11.15 7.5 0
      vertex 11.15 7.5 4
    endloop
  endfacet
  facet normal 0.994529 0.104459 0
    outer loop
      vertex 11.15 7.5 0
      vertex 11.1904 7.11536 4
      vertex 11.1904 7.11536 0
    endloop
  endfacet
  facet normal 0.207936 0.978142 -0
    outer loop
      vertex 12.8066 5.66013 0
      vertex 12.4283 5.74055 4
      vertex 12.8066 5.66013 4
    endloop
  endfacet
  facet normal 0.207936 0.978142 0
    outer loop
      vertex 12.4283 5.74055 4
      vertex 12.8066 5.66013 0
      vertex 12.4283 5.74055 0
    endloop
  endfacet
  facet normal 0.951066 -0.308989 0
    outer loop
      vertex 11.1904 7.88464 4
      vertex 11.3099 8.25246 0
      vertex 11.3099 8.25246 4
    endloop
  endfacet
  facet normal 0.951066 -0.308989 0
    outer loop
      vertex 11.3099 8.25246 0
      vertex 11.1904 7.88464 4
      vertex 11.1904 7.88464 0
    endloop
  endfacet
  facet normal -0.406738 -0.913545 0
    outer loop
      vertex 13.5717 9.25945 0
      vertex 13.925 9.10215 4
      vertex 13.5717 9.25945 4
    endloop
  endfacet
  facet normal -0.406738 -0.913545 -0
    outer loop
      vertex 13.925 9.10215 4
      vertex 13.5717 9.25945 0
      vertex 13.925 9.10215 0
    endloop
  endfacet
  facet normal 0.406738 0.913545 -0
    outer loop
      vertex 12.4283 5.74055 0
      vertex 12.075 5.89785 4
      vertex 12.4283 5.74055 4
    endloop
  endfacet
  facet normal 0.406738 0.913545 0
    outer loop
      vertex 12.075 5.89785 4
      vertex 12.4283 5.74055 0
      vertex 12.075 5.89785 0
    endloop
  endfacet
  facet normal -0.951066 -0.308989 0
    outer loop
      vertex 14.8096 7.88464 0
      vertex 14.6901 8.25246 4
      vertex 14.6901 8.25246 0
    endloop
  endfacet
  facet normal -0.951066 -0.308989 0
    outer loop
      vertex 14.6901 8.25246 4
      vertex 14.8096 7.88464 0
      vertex 14.8096 7.88464 4
    endloop
  endfacet
  facet normal 0.207911 -0.978148 0
    outer loop
      vertex 12.4283 9.25945 0
      vertex 12.8066 9.33986 4
      vertex 12.4283 9.25945 4
    endloop
  endfacet
  facet normal 0.207911 -0.978148 0
    outer loop
      vertex 12.8066 9.33986 4
      vertex 12.4283 9.25945 0
      vertex 12.8066 9.33986 0
    endloop
  endfacet
  facet normal 0.994529 -0.104459 0
    outer loop
      vertex 11.15 7.5 4
      vertex 11.1904 7.88464 0
      vertex 11.1904 7.88464 4
    endloop
  endfacet
  facet normal 0.994529 -0.104459 0
    outer loop
      vertex 11.1904 7.88464 0
      vertex 11.15 7.5 4
      vertex 11.15 7.5 0
    endloop
  endfacet
  facet normal 0.587777 0.809023 -0
    outer loop
      vertex 12.075 5.89785 0
      vertex 11.7621 6.12518 4
      vertex 12.075 5.89785 4
    endloop
  endfacet
  facet normal 0.587777 0.809023 0
    outer loop
      vertex 11.7621 6.12518 4
      vertex 12.075 5.89785 0
      vertex 11.7621 6.12518 0
    endloop
  endfacet
  facet normal 0.951066 0.308989 0
    outer loop
      vertex 11.3099 6.74754 4
      vertex 11.1904 7.11536 0
      vertex 11.1904 7.11536 4
    endloop
  endfacet
  facet normal 0.951066 0.308989 0
    outer loop
      vertex 11.1904 7.11536 0
      vertex 11.3099 6.74754 4
      vertex 11.3099 6.74754 0
    endloop
  endfacet
  facet normal -0.866 -0.500043 0
    outer loop
      vertex 14.6901 8.25246 0
      vertex 14.4967 8.5874 4
      vertex 14.4967 8.5874 0
    endloop
  endfacet
  facet normal -0.866 -0.500043 0
    outer loop
      vertex 14.4967 8.5874 4
      vertex 14.6901 8.25246 0
      vertex 14.6901 8.25246 4
    endloop
  endfacet
  facet normal -0.587777 0.809023 0
    outer loop
      vertex 14.2379 6.12518 0
      vertex 13.925 5.89785 4
      vertex 14.2379 6.12518 4
    endloop
  endfacet
  facet normal -0.587777 0.809023 0
    outer loop
      vertex 13.925 5.89785 4
      vertex 14.2379 6.12518 0
      vertex 13.925 5.89785 0
    endloop
  endfacet
  facet normal -0.743137 0.669139 0
    outer loop
      vertex 14.2379 6.12518 0
      vertex 14.4967 6.4126 4
      vertex 14.4967 6.4126 0
    endloop
  endfacet
  facet normal -0.743137 0.669139 0
    outer loop
      vertex 14.4967 6.4126 4
      vertex 14.2379 6.12518 0
      vertex 14.2379 6.12518 4
    endloop
  endfacet
  facet normal -0.587777 -0.809023 0
    outer loop
      vertex 13.925 9.10215 0
      vertex 14.2379 8.87482 4
      vertex 13.925 9.10215 4
    endloop
  endfacet
  facet normal -0.587777 -0.809023 -0
    outer loop
      vertex 14.2379 8.87482 4
      vertex 13.925 9.10215 0
      vertex 14.2379 8.87482 0
    endloop
  endfacet
  facet normal -0.866 0.500043 0
    outer loop
      vertex 14.4967 6.4126 0
      vertex 14.6901 6.74754 4
      vertex 14.6901 6.74754 0
    endloop
  endfacet
  facet normal -0.866 0.500043 0
    outer loop
      vertex 14.6901 6.74754 4
      vertex 14.4967 6.4126 0
      vertex 14.4967 6.4126 4
    endloop
  endfacet
  facet normal 0.406738 -0.913545 0
    outer loop
      vertex 12.075 9.10215 0
      vertex 12.4283 9.25945 4
      vertex 12.075 9.10215 4
    endloop
  endfacet
  facet normal 0.406738 -0.913545 0
    outer loop
      vertex 12.4283 9.25945 4
      vertex 12.075 9.10215 0
      vertex 12.4283 9.25945 0
    endloop
  endfacet
  facet normal 0 -1 0
    outer loop
      vertex 12.8066 9.33986 0
      vertex 13.1934 9.33986 4
      vertex 12.8066 9.33986 4
    endloop
  endfacet
  facet normal 0 -1 -0
    outer loop
      vertex 13.1934 9.33986 4
      vertex 12.8066 9.33986 0
      vertex 13.1934 9.33986 0
    endloop
  endfacet
  facet normal 0.866 -0.500043 0
    outer loop
      vertex 11.3099 8.25246 4
      vertex 11.5033 8.5874 0
      vertex 11.5033 8.5874 4
    endloop
  endfacet
  facet normal 0.866 -0.500043 0
    outer loop
      vertex 11.5033 8.5874 0
      vertex 11.3099 8.25246 4
      vertex 11.3099 8.25246 0
    endloop
  endfacet
  facet normal 0.743137 -0.669139 0
    outer loop
      vertex 11.5033 8.5874 4
      vertex 11.7621 8.87482 0
      vertex 11.7621 8.87482 4
    endloop
  endfacet
  facet normal 0.743137 -0.669139 0
    outer loop
      vertex 11.7621 8.87482 0
      vertex 11.5033 8.5874 4
      vertex 11.5033 8.5874 0
    endloop
  endfacet
  facet normal 0 1 -0
    outer loop
      vertex 13.1934 5.66013 0
      vertex 12.8066 5.66013 4
      vertex 13.1934 5.66013 4
    endloop
  endfacet
  facet normal 0 1 0
    outer loop
      vertex 12.8066 5.66013 4
      vertex 13.1934 5.66013 0
      vertex 12.8066 5.66013 0
    endloop
  endfacet
  facet normal -0.207936 0.978142 0
    outer loop
      vertex 13.5717 5.74055 0
      vertex 13.1934 5.66013 4
      vertex 13.5717 5.74055 4
    endloop
  endfacet
  facet normal -0.207936 0.978142 0
    outer loop
      vertex 13.1934 5.66013 4
      vertex 13.5717 5.74055 0
      vertex 13.1934 5.66013 0
    endloop
  endfacet
  facet normal 0.587777 -0.809023 0
    outer loop
      vertex 11.7621 8.87482 0
      vertex 12.075 9.10215 4
      vertex 11.7621 8.87482 4
    endloop
  endfacet
  facet normal 0.587777 -0.809023 0
    outer loop
      vertex 12.075 9.10215 4
      vertex 11.7621 8.87482 0
      vertex 12.075 9.10215 0
    endloop
  endfacet
  facet normal 0.743125 0.669153 0
    outer loop
      vertex 10 4.88668 16
      vertex 9.89796 5 4
      vertex 9.89796 5 16
    endloop
  endfacet
  facet normal 0.743125 0.669153 0
    outer loop
      vertex 9.89796 5 4
      vertex 10 4.88668 16
      vertex 10 4.88668 4
    endloop
  endfacet
endsolid OpenSCAD_Model
