solid OpenSCAD_Model
  facet normal 0.996055 -0.0887422 0
    outer loop
      vertex -10.0466 -5.52264 2.5
      vertex -10 -5 1.11022e-015
      vertex -10 -5 2.5
    endloop
  endfacet
  facet normal 0.996055 -0.0887422 0
    outer loop
      vertex -10 -5 1.11022e-015
      vertex -10.0466 -5.52264 2.5
      vertex -10.0466 -5.52264 1.22627e-015
    endloop
  endfacet
  facet normal 0.96561 -0.259995 0
    outer loop
      vertex -10.1857 -6.03956 2.5
      vertex -10.0466 -5.52264 1.22627e-015
      vertex -10.0466 -5.52264 2.5
    endloop
  endfacet
  facet normal 0.96561 -0.259995 0
    outer loop
      vertex -10.0466 -5.52264 1.22627e-015
      vertex -10.1857 -6.03956 2.5
      vertex -10.1857 -6.03956 9.53674e-007
    endloop
  endfacet
  facet normal 0.0308145 -0.999525 0
    outer loop
      vertex -18.5 -10 9.53674e-007
      vertex -17.6115 -9.97261 2.5
      vertex -18.5 -10 2.5
    endloop
  endfacet
  facet normal 0.0308145 -0.999525 0
    outer loop
      vertex -17.6115 -9.97261 2.5
      vertex -18.5 -10 9.53674e-007
      vertex -17.6115 -9.97261 9.53674e-007
    endloop
  endfacet
  facet normal 0.910034 -0.414533 0
    outer loop
      vertex -10.416 -6.54508 2.5
      vertex -10.1857 -6.03956 9.53674e-007
      vertex -10.1857 -6.03956 2.5
    endloop
  endfacet
  facet normal 0.910034 -0.414533 0
    outer loop
      vertex -10.1857 -6.03956 9.53674e-007
      vertex -10.416 -6.54508 2.5
      vertex -10.416 -6.54508 9.53674e-007
    endloop
  endfacet
  facet normal 2.42204e-007 -5.08464e-007 -1
    outer loop
      vertex -12.8124 -8.71572 9.53674e-007
      vertex -13.5038 -9.04508 9.53674e-007
      vertex -10.0466 -5.52264 1.22627e-015
    endloop
  endfacet
  facet normal -0.0308134 0.999525 -3.81289e-007
    outer loop
      vertex -18.5 -9.53674e-007 2.11758e-022
      vertex -19.3885 -0.0273914 6.08212e-018
      vertex -18.5 5.55112e-016 2.5
    endloop
  endfacet
  facet normal 0.50702 -0.861934 0
    outer loop
      vertex -12.8124 -8.71572 9.53674e-007
      vertex -12.1833 -8.34565 2.5
      vertex -12.8124 -8.71572 2.5
    endloop
  endfacet
  facet normal 0.50702 -0.861934 0
    outer loop
      vertex -12.1833 -8.34565 2.5
      vertex -12.8124 -8.71572 9.53674e-007
      vertex -12.1833 -8.34565 9.53674e-007
    endloop
  endfacet
  facet normal 8.74312e-007 -9.65235e-007 -1
    outer loop
      vertex -11.1388 -7.5 9.53674e-007
      vertex -11.6234 -7.93893 9.53674e-007
      vertex -10.0466 -5.52264 1.22627e-015
    endloop
  endfacet
  facet normal 0.587715 -0.809068 0
    outer loop
      vertex -12.1833 -8.34565 9.53674e-007
      vertex -11.6234 -7.93893 2.5
      vertex -12.1833 -8.34565 2.5
    endloop
  endfacet
  facet normal 0.587715 -0.809068 0
    outer loop
      vertex -11.6234 -7.93893 2.5
      vertex -12.1833 -8.34565 9.53674e-007
      vertex -11.6234 -7.93893 9.53674e-007
    endloop
  endfacet
  facet normal 0.287102 -0.9579 0
    outer loop
      vertex -15.0427 -9.56773 9.53674e-007
      vertex -14.25 -9.33013 2.5
      vertex -15.0427 -9.56773 2.5
    endloop
  endfacet
  facet normal 0.287102 -0.9579 0
    outer loop
      vertex -14.25 -9.33013 2.5
      vertex -15.0427 -9.56773 9.53674e-007
      vertex -14.25 -9.33013 9.53674e-007
    endloop
  endfacet
  facet normal 7.38247e-008 -3.26944e-007 -1
    outer loop
      vertex -15.0427 -9.56773 9.53674e-007
      vertex -15.8734 -9.75528 9.53674e-007
      vertex -10.0466 -5.52264 1.22627e-015
    endloop
  endfacet
  facet normal 0.220257 -0.975442 0
    outer loop
      vertex -15.8734 -9.75528 9.53674e-007
      vertex -15.0427 -9.56773 2.5
      vertex -15.8734 -9.75528 2.5
    endloop
  endfacet
  facet normal 0.220257 -0.975442 0
    outer loop
      vertex -15.0427 -9.56773 2.5
      vertex -15.8734 -9.75528 9.53674e-007
      vertex -15.0427 -9.56773 9.53674e-007
    endloop
  endfacet
  facet normal 0.356854 -0.93416 0
    outer loop
      vertex -14.25 -9.33013 9.53674e-007
      vertex -13.5038 -9.04508 2.5
      vertex -14.25 -9.33013 2.5
    endloop
  endfacet
  facet normal 0.356854 -0.93416 0
    outer loop
      vertex -13.5038 -9.04508 2.5
      vertex -14.25 -9.33013 9.53674e-007
      vertex -13.5038 -9.04508 9.53674e-007
    endloop
  endfacet
  facet normal -0 -2.12999e-007 -1
    outer loop
      vertex -10.0466 -5.52264 1.22627e-015
      vertex -13.5024 -6.25093 1.55125e-007
      vertex -13.1517 -5.52264 1.22627e-015
    endloop
  endfacet
  facet normal -8.0518e-016 -2.12999e-007 -1
    outer loop
      vertex -18.5 -10 9.53674e-007
      vertex -13.5024 -6.25093 1.55125e-007
      vertex -10.0466 -5.52264 1.22627e-015
    endloop
  endfacet
  facet normal -5.9794e-015 -2.12999e-007 -1
    outer loop
      vertex -13.5024 -6.25093 1.55125e-007
      vertex -18.5 -10 9.53674e-007
      vertex -14.856 -6.55988 2.20932e-007
    endloop
  endfacet
  facet normal 3.99588e-015 -2.12999e-007 -1
    outer loop
      vertex -18.5 -10 9.53674e-007
      vertex -15.9416 -5.69421 3.65447e-008
      vertex -14.856 -6.55988 2.20932e-007
    endloop
  endfacet
  facet normal 2.42654e-016 -2.12999e-007 -1
    outer loop
      vertex -20 -5.52264 1.22627e-015
      vertex -15.9416 -5.69421 3.65447e-008
      vertex -18.5 -10 9.53674e-007
    endloop
  endfacet
  facet normal -9.2217e-014 -2.12999e-007 -1
    outer loop
      vertex -20 -5.52264 1.22627e-015
      vertex -18.5 -10 9.53674e-007
      vertex -20 -9.20553 7.84452e-007
    endloop
  endfacet
  facet normal 0 -2.12999e-007 -1
    outer loop
      vertex -15.9416 -5.69421 3.65447e-008
      vertex -20 -5.52264 1.22627e-015
      vertex -15.9416 -5.52264 1.22627e-015
    endloop
  endfacet
  facet normal -0.0927656 -0.995688 0
    outer loop
      vertex -20 -9.91564 9.53674e-007
      vertex -19.3885 -9.97261 2.5
      vertex -20 -9.91564 2.5
    endloop
  endfacet
  facet normal -0.0927656 -0.995688 -0
    outer loop
      vertex -19.3885 -9.97261 2.5
      vertex -20 -9.91564 9.53674e-007
      vertex -19.3885 -9.97261 9.53674e-007
    endloop
  endfacet
  facet normal -0.0308145 0.999525 0
    outer loop
      vertex -18.5 5.55112e-016 2.5
      vertex -19.3885 -0.0273914 6.08212e-018
      vertex -19.3885 -0.0273914 2.5
    endloop
  endfacet
  facet normal 0 0 1
    outer loop
      vertex -39 -5.52264 2.5
      vertex -35 5.55112e-016 2.5
      vertex -39 -0.0843637 2.5
    endloop
  endfacet
  facet normal 0 0 1
    outer loop
      vertex -35 5.55112e-016 2.5
      vertex -39.6115 -0.0273914 2.5
      vertex -39 -0.0843637 2.5
    endloop
  endfacet
  facet normal -0 0 1
    outer loop
      vertex -40 5.55112e-016 2.5
      vertex -39.6115 -0.0273914 2.5
      vertex -35 5.55112e-016 2.5
    endloop
  endfacet
  facet normal 0 0 1
    outer loop
      vertex -39.6115 -0.0273914 2.5
      vertex -40 5.55112e-016 2.5
      vertex -40 -0.015415 2.5
    endloop
  endfacet
  facet normal 0 0 1
    outer loop
      vertex -35 5.55112e-016 2.5
      vertex -39 -5.52264 2.5
      vertex -35 -10 2.5
    endloop
  endfacet
  facet normal 0 0 1
    outer loop
      vertex -40 -10 2.5
      vertex -39 -5.52264 2.5
      vertex -40 -5.52264 2.5
    endloop
  endfacet
  facet normal 0 0 1
    outer loop
      vertex -39 -5.52264 2.5
      vertex -40 -10 2.5
      vertex -35 -10 2.5
    endloop
  endfacet
  facet normal -0 0 1
    outer loop
      vertex -25 5.55112e-016 2.5
      vertex -20 -0.0843637 2.5
      vertex -20 5.55112e-016 2.5
    endloop
  endfacet
  facet normal 0 0 1
    outer loop
      vertex -20 -0.0843637 2.5
      vertex -25 5.55112e-016 2.5
      vertex -20 -9.91564 2.5
    endloop
  endfacet
  facet normal 0 0 1
    outer loop
      vertex -25 -10 2.5
      vertex -20 -9.91564 2.5
      vertex -25 5.55112e-016 2.5
    endloop
  endfacet
  facet normal 0 0 1
    outer loop
      vertex -20 -9.91564 2.5
      vertex -25 -10 2.5
      vertex -20 -10 2.5
    endloop
  endfacet
  facet normal 0 0 1
    outer loop
      vertex -12.9 -5 2.5
      vertex -10 -5 2.5
      vertex -10.0466 -4.47736 2.5
    endloop
  endfacet
  facet normal 0 0 1
    outer loop
      vertex -12.9 -5 2.5
      vertex -10.0466 -4.47736 2.5
      vertex -10.1857 -3.96044 2.5
    endloop
  endfacet
  facet normal 0 0 1
    outer loop
      vertex -10 -5 2.5
      vertex -12.9 -5 2.5
      vertex -10.0466 -5.52264 2.5
    endloop
  endfacet
  facet normal 0 0 1
    outer loop
      vertex -12.9 -5 2.5
      vertex -10.1857 -3.96044 2.5
      vertex -10.416 -3.45492 2.5
    endloop
  endfacet
  facet normal 0 0 1
    outer loop
      vertex -10.0466 -5.52264 2.5
      vertex -12.9 -5 2.5
      vertex -10.1857 -6.03956 2.5
    endloop
  endfacet
  facet normal 0 0 1
    outer loop
      vertex -12.9 -5 2.5
      vertex -10.416 -3.45492 2.5
      vertex -10.7349 -2.96632 2.5
    endloop
  endfacet
  facet normal 0 0 1
    outer loop
      vertex -10.1857 -6.03956 2.5
      vertex -12.9 -5 2.5
      vertex -10.416 -6.54508 2.5
    endloop
  endfacet
  facet normal 0 0 1
    outer loop
      vertex -13.5024 -3.74907 2.5
      vertex -10.7349 -2.96632 2.5
      vertex -11.1388 -2.5 2.5
    endloop
  endfacet
  facet normal 0 0 1
    outer loop
      vertex -10.416 -6.54508 2.5
      vertex -12.9 -5 2.5
      vertex -10.7349 -7.03368 2.5
    endloop
  endfacet
  facet normal 0 0 1
    outer loop
      vertex -13.5024 -3.74907 2.5
      vertex -11.1388 -2.5 2.5
      vertex -11.6234 -2.06107 2.5
    endloop
  endfacet
  facet normal -0 0 1
    outer loop
      vertex -13.5024 -6.25093 2.5
      vertex -10.7349 -7.03368 2.5
      vertex -12.9 -5 2.5
    endloop
  endfacet
  facet normal 0 0 1
    outer loop
      vertex -13.5024 -3.74907 2.5
      vertex -11.6234 -2.06107 2.5
      vertex -12.1833 -1.65435 2.5
    endloop
  endfacet
  facet normal 0 0 1
    outer loop
      vertex -10.7349 -7.03368 2.5
      vertex -13.5024 -6.25093 2.5
      vertex -11.1388 -7.5 2.5
    endloop
  endfacet
  facet normal 0 0 1
    outer loop
      vertex -13.5024 -3.74907 2.5
      vertex -12.1833 -1.65435 2.5
      vertex -12.8124 -1.28428 2.5
    endloop
  endfacet
  facet normal 0 0 1
    outer loop
      vertex -11.1388 -7.5 2.5
      vertex -13.5024 -6.25093 2.5
      vertex -11.6234 -7.93893 2.5
    endloop
  endfacet
  facet normal 0 0 1
    outer loop
      vertex -11.6234 -7.93893 2.5
      vertex -13.5024 -6.25093 2.5
      vertex -12.1833 -8.34565 2.5
    endloop
  endfacet
  facet normal 0 0 1
    outer loop
      vertex -10.7349 -2.96632 2.5
      vertex -13.5024 -3.74907 2.5
      vertex -12.9 -5 2.5
    endloop
  endfacet
  facet normal 0 0 1
    outer loop
      vertex -13.5038 -0.954915 2.5
      vertex -13.5024 -3.74907 2.5
      vertex -12.8124 -1.28428 2.5
    endloop
  endfacet
  facet normal 0 0 1
    outer loop
      vertex -14.856 -3.44012 2.5
      vertex -13.5038 -0.954915 2.5
      vertex -14.25 -0.669873 2.5
    endloop
  endfacet
  facet normal 0 0 1
    outer loop
      vertex -13.5038 -0.954915 2.5
      vertex -14.856 -3.44012 2.5
      vertex -13.5024 -3.74907 2.5
    endloop
  endfacet
  facet normal 0 0 1
    outer loop
      vertex -15.0427 -0.432273 2.5
      vertex -14.856 -3.44012 2.5
      vertex -14.25 -0.669873 2.5
    endloop
  endfacet
  facet normal 0 0 1
    outer loop
      vertex -15.8734 -0.244718 2.5
      vertex -14.856 -3.44012 2.5
      vertex -15.0427 -0.432273 2.5
    endloop
  endfacet
  facet normal 0 0 1
    outer loop
      vertex -16.7327 -0.109262 2.5
      vertex -14.856 -3.44012 2.5
      vertex -15.8734 -0.244718 2.5
    endloop
  endfacet
  facet normal 0 0 1
    outer loop
      vertex -17.6115 -0.0273914 2.5
      vertex -15.9416 -4.30579 2.5
      vertex -16.7327 -0.109262 2.5
    endloop
  endfacet
  facet normal 0 0 1
    outer loop
      vertex -14.856 -3.44012 2.5
      vertex -16.7327 -0.109262 2.5
      vertex -15.9416 -4.30579 2.5
    endloop
  endfacet
  facet normal 0 0 1
    outer loop
      vertex -12.1833 -8.34565 2.5
      vertex -13.5024 -6.25093 2.5
      vertex -12.8124 -8.71572 2.5
    endloop
  endfacet
  facet normal 0 0 1
    outer loop
      vertex -13.5024 -6.25093 2.5
      vertex -13.5038 -9.04508 2.5
      vertex -12.8124 -8.71572 2.5
    endloop
  endfacet
  facet normal -0 0 1
    outer loop
      vertex -14.856 -6.55988 2.5
      vertex -13.5038 -9.04508 2.5
      vertex -13.5024 -6.25093 2.5
    endloop
  endfacet
  facet normal 0 0 1
    outer loop
      vertex -13.5038 -9.04508 2.5
      vertex -14.856 -6.55988 2.5
      vertex -14.25 -9.33013 2.5
    endloop
  endfacet
  facet normal 0 0 1
    outer loop
      vertex -14.856 -6.55988 2.5
      vertex -15.0427 -9.56773 2.5
      vertex -14.25 -9.33013 2.5
    endloop
  endfacet
  facet normal 0 0 1
    outer loop
      vertex -14.856 -6.55988 2.5
      vertex -15.8734 -9.75528 2.5
      vertex -15.0427 -9.56773 2.5
    endloop
  endfacet
  facet normal 0 0 1
    outer loop
      vertex -16.7327 -9.89074 2.5
      vertex -14.856 -6.55988 2.5
      vertex -15.9416 -5.69421 2.5
    endloop
  endfacet
  facet normal 0 0 1
    outer loop
      vertex -18.5 5.55112e-016 2.5
      vertex -15.9416 -4.30579 2.5
      vertex -17.6115 -0.0273914 2.5
    endloop
  endfacet
  facet normal 0 0 1
    outer loop
      vertex -14.856 -6.55988 2.5
      vertex -16.7327 -9.89074 2.5
      vertex -15.8734 -9.75528 2.5
    endloop
  endfacet
  facet normal -0 0 1
    outer loop
      vertex -19.3885 -0.0273914 2.5
      vertex -15.9416 -4.30579 2.5
      vertex -18.5 5.55112e-016 2.5
    endloop
  endfacet
  facet normal 0 0 1
    outer loop
      vertex -15.9416 -5.69421 2.5
      vertex -17.6115 -9.97261 2.5
      vertex -16.7327 -9.89074 2.5
    endloop
  endfacet
  facet normal -0 0 1
    outer loop
      vertex -20 -0.0843637 2.5
      vertex -15.9416 -4.30579 2.5
      vertex -19.3885 -0.0273914 2.5
    endloop
  endfacet
  facet normal 0 0 1
    outer loop
      vertex -15.9416 -5.69421 2.5
      vertex -18.5 -10 2.5
      vertex -17.6115 -9.97261 2.5
    endloop
  endfacet
  facet normal 0 0 1
    outer loop
      vertex -15.9416 -4.30579 2.5
      vertex -20 -0.0843637 2.5
      vertex -15.9416 -5.69421 2.5
    endloop
  endfacet
  facet normal 0 0 1
    outer loop
      vertex -15.9416 -5.69421 2.5
      vertex -19.3885 -9.97261 2.5
      vertex -18.5 -10 2.5
    endloop
  endfacet
  facet normal 0 0 1
    outer loop
      vertex -20 -9.91564 2.5
      vertex -15.9416 -5.69421 2.5
      vertex -20 -0.0843637 2.5
    endloop
  endfacet
  facet normal 0 0 1
    outer loop
      vertex -15.9416 -5.69421 2.5
      vertex -20 -9.91564 2.5
      vertex -19.3885 -9.97261 2.5
    endloop
  endfacet
  facet normal 3.20285e-006 -2.09008e-006 -1
    outer loop
      vertex -10.416 -6.54508 9.53674e-007
      vertex -10.7349 -7.03368 9.53674e-007
      vertex -10.0466 -5.52264 1.22627e-015
    endloop
  endfacet
  facet normal 0.837459 -0.5465 0
    outer loop
      vertex -10.7349 -7.03368 2.5
      vertex -10.416 -6.54508 9.53674e-007
      vertex -10.416 -6.54508 2.5
    endloop
  endfacet
  facet normal 0.837459 -0.5465 0
    outer loop
      vertex -10.416 -6.54508 9.53674e-007
      vertex -10.7349 -7.03368 2.5
      vertex -10.7349 -7.03368 9.53674e-007
    endloop
  endfacet
  facet normal 1.12197e-007 -3.74338e-007 -1
    outer loop
      vertex -14.25 -9.33013 9.53674e-007
      vertex -15.0427 -9.56773 9.53674e-007
      vertex -10.0466 -5.52264 1.22627e-015
    endloop
  endfacet
  facet normal 0.155695 -0.987805 0
    outer loop
      vertex -16.7327 -9.89074 9.53674e-007
      vertex -15.8734 -9.75528 2.5
      vertex -16.7327 -9.89074 2.5
    endloop
  endfacet
  facet normal 0.155695 -0.987805 0
    outer loop
      vertex -15.8734 -9.75528 2.5
      vertex -16.7327 -9.89074 9.53674e-007
      vertex -15.8734 -9.75528 9.53674e-007
    endloop
  endfacet
  facet normal 2.37241e-008 -2.54641e-007 -1
    outer loop
      vertex -16.7327 -9.89074 9.53674e-007
      vertex -17.6115 -9.97261 9.53674e-007
      vertex -10.0466 -5.52264 1.22627e-015
    endloop
  endfacet
  facet normal 0.0927651 -0.995688 0
    outer loop
      vertex -17.6115 -9.97261 9.53674e-007
      vertex -16.7327 -9.89074 2.5
      vertex -17.6115 -9.97261 2.5
    endloop
  endfacet
  facet normal 0.0927651 -0.995688 0
    outer loop
      vertex -16.7327 -9.89074 2.5
      vertex -17.6115 -9.97261 9.53674e-007
      vertex -16.7327 -9.89074 9.53674e-007
    endloop
  endfacet
  facet normal 0.430046 -0.902807 0
    outer loop
      vertex -13.5038 -9.04508 9.53674e-007
      vertex -12.8124 -8.71572 2.5
      vertex -13.5038 -9.04508 2.5
    endloop
  endfacet
  facet normal 0.430046 -0.902807 0
    outer loop
      vertex -12.8124 -8.71572 2.5
      vertex -13.5038 -9.04508 9.53674e-007
      vertex -12.8124 -8.71572 9.53674e-007
    endloop
  endfacet
  facet normal -6.97216e-009 -2.26163e-007 -1
    outer loop
      vertex -20 -9.20553 7.84452e-007
      vertex -19.3885 -9.97261 9.53674e-007
      vertex -20 -9.6129 8.76585e-007
    endloop
  endfacet
  facet normal -6.97242e-009 -2.26163e-007 -1
    outer loop
      vertex -19.3885 -9.97261 9.53674e-007
      vertex -20 -9.20553 7.84452e-007
      vertex -18.5 -10 9.53674e-007
    endloop
  endfacet
  facet normal -0.0308145 -0.999525 0
    outer loop
      vertex -19.3885 -9.97261 9.53674e-007
      vertex -18.5 -10 2.5
      vertex -19.3885 -9.97261 2.5
    endloop
  endfacet
  facet normal -0.0308145 -0.999525 -0
    outer loop
      vertex -18.5 -10 2.5
      vertex -19.3885 -9.97261 9.53674e-007
      vertex -18.5 -10 9.53674e-007
    endloop
  endfacet
  facet normal 0.996055 0.0887422 0
    outer loop
      vertex -10 -5 2.5
      vertex -10.0466 -4.47736 9.94173e-016
      vertex -10.0466 -4.47736 2.5
    endloop
  endfacet
  facet normal 0.996055 0.0887422 0
    outer loop
      vertex -10.0466 -4.47736 9.94173e-016
      vertex -10 -5 2.5
      vertex -10 -5 1.11022e-015
    endloop
  endfacet
  facet normal 0.287102 0.9579 -0
    outer loop
      vertex -14.25 -0.669873 1.48742e-016
      vertex -15.0427 -0.432273 2.5
      vertex -14.25 -0.669873 2.5
    endloop
  endfacet
  facet normal 0.287102 0.9579 0
    outer loop
      vertex -15.0427 -0.432273 2.5
      vertex -14.25 -0.669873 1.48742e-016
      vertex -15.0427 -0.432273 9.59839e-017
    endloop
  endfacet
  facet normal 0.50702 0.861934 -0
    outer loop
      vertex -12.1833 -1.65435 3.67339e-016
      vertex -12.8124 -1.28428 2.5
      vertex -12.1833 -1.65435 2.5
    endloop
  endfacet
  facet normal 0.50702 0.861934 0
    outer loop
      vertex -12.8124 -1.28428 2.5
      vertex -12.1833 -1.65435 3.67339e-016
      vertex -12.8124 -1.28428 2.85167e-016
    endloop
  endfacet
  facet normal 0.671338 0.741151 -0
    outer loop
      vertex -11.1388 -2.5 5.55112e-016
      vertex -11.6234 -2.06107 2.5
      vertex -11.1388 -2.5 2.5
    endloop
  endfacet
  facet normal 0.671338 0.741151 0
    outer loop
      vertex -11.6234 -2.06107 2.5
      vertex -11.1388 -2.5 5.55112e-016
      vertex -11.6234 -2.06107 4.5765e-016
    endloop
  endfacet
  facet normal 0.0308134 0.999525 -3.81289e-007
    outer loop
      vertex -17.6115 -0.0273914 6.08212e-018
      vertex -18.5 -9.53674e-007 2.11758e-022
      vertex -18.5 5.55112e-016 2.5
    endloop
  endfacet
  facet normal -0.0927652 0.995688 0
    outer loop
      vertex -19.3885 -0.0273914 2.5
      vertex -20 -0.0843637 1.87325e-017
      vertex -20 -0.0843637 2.5
    endloop
  endfacet
  facet normal -0.0927652 0.995688 0
    outer loop
      vertex -20 -0.0843637 1.87325e-017
      vertex -19.3885 -0.0273914 2.5
      vertex -19.3885 -0.0273914 6.08212e-018
    endloop
  endfacet
  facet normal 9.90519e-006 -4.51195e-006 -1
    outer loop
      vertex -10.1857 -6.03956 9.53674e-007
      vertex -10.416 -6.54508 9.53674e-007
      vertex -10.0466 -5.52264 1.22627e-015
    endloop
  endfacet
  facet normal 0.755867 -0.654726 0
    outer loop
      vertex -10.7349 -7.03368 2.5
      vertex -11.1388 -7.5 9.53674e-007
      vertex -10.7349 -7.03368 9.53674e-007
    endloop
  endfacet
  facet normal 1.53682e-006 -1.33118e-006 -1
    outer loop
      vertex -10.7349 -7.03368 9.53674e-007
      vertex -11.1388 -7.5 9.53674e-007
      vertex -10.0466 -5.52264 1.22627e-015
    endloop
  endfacet
  facet normal 0.671337 -0.741152 0
    outer loop
      vertex -11.6234 -7.93893 2.5
      vertex -11.6234 -7.93893 9.53674e-007
      vertex -11.1388 -7.5 9.53674e-007
    endloop
  endfacet
  facet normal 0.671338 -0.741151 2.82727e-007
    outer loop
      vertex -11.1388 -7.5 2.5
      vertex -11.6234 -7.93893 2.5
      vertex -11.1388 -7.5 9.53674e-007
    endloop
  endfacet
  facet normal 0.755866 -0.654726 2.49758e-007
    outer loop
      vertex -11.1388 -7.5 2.5
      vertex -11.1388 -7.5 9.53674e-007
      vertex -10.7349 -7.03368 2.5
    endloop
  endfacet
  facet normal 1.65463e-007 -4.33143e-007 -1
    outer loop
      vertex -13.5038 -9.04508 9.53674e-007
      vertex -14.25 -9.33013 9.53674e-007
      vertex -10.0466 -5.52264 1.22627e-015
    endloop
  endfacet
  facet normal 4.53544e-008 -2.87751e-007 -1
    outer loop
      vertex -15.8734 -9.75528 9.53674e-007
      vertex -16.7327 -9.89074 9.53674e-007
      vertex -10.0466 -5.52264 1.22627e-015
    endloop
  endfacet
  facet normal 6.97242e-009 -2.26164e-007 -1
    outer loop
      vertex -17.6115 -9.97261 9.53674e-007
      vertex -18.5 -10 9.53674e-007
      vertex -10.0466 -5.52264 1.22627e-015
    endloop
  endfacet
  facet normal -2.37243e-008 -2.54642e-007 -1
    outer loop
      vertex -20 -9.91564 9.53674e-007
      vertex -20 -9.6129 8.76585e-007
      vertex -19.3885 -9.97261 9.53674e-007
    endloop
  endfacet
  facet normal 0 -2.22045e-016 -1
    outer loop
      vertex -40 -10 2.22045e-015
      vertex -20 -5.52264 1.22627e-015
      vertex -20 -10 2.22045e-015
    endloop
  endfacet
  facet normal 0 -2.22045e-016 -1
    outer loop
      vertex -40 0 0
      vertex -20 -5.52264 1.22627e-015
      vertex -40 -10 2.22045e-015
    endloop
  endfacet
  facet normal 0 -2.22045e-016 -1
    outer loop
      vertex -20 -5.52264 1.22627e-015
      vertex -40 0 0
      vertex -20 -0.0843637 1.87325e-017
    endloop
  endfacet
  facet normal 0 -2.22045e-016 -1
    outer loop
      vertex -20 -0.0843637 1.87325e-017
      vertex -40 0 0
      vertex -20 0 0
    endloop
  endfacet
  facet normal 0 -2.22045e-016 -1
    outer loop
      vertex -20 -5.52264 1.22627e-015
      vertex -15.9416 -4.30579 9.56077e-016
      vertex -15.9416 -5.52264 1.22627e-015
    endloop
  endfacet
  facet normal 0 -2.22045e-016 -1
    outer loop
      vertex -15.9416 -4.30579 9.56077e-016
      vertex -17.6115 -0.0273914 6.08212e-018
      vertex -16.7327 -0.109262 2.42611e-017
    endloop
  endfacet
  facet normal 0 -2.22045e-016 -1
    outer loop
      vertex -18.5 -9.53674e-007 2.11758e-022
      vertex -15.9416 -4.30579 9.56077e-016
      vertex -20 -5.52264 1.22627e-015
    endloop
  endfacet
  facet normal 0 -2.22045e-016 -1
    outer loop
      vertex -15.9416 -4.30579 9.56077e-016
      vertex -18.5 -9.53674e-007 2.11758e-022
      vertex -17.6115 -0.0273914 6.08212e-018
    endloop
  endfacet
  facet normal 0 -2.22045e-016 -1
    outer loop
      vertex -18.5 -9.53674e-007 2.11758e-022
      vertex -20 -5.52264 1.22627e-015
      vertex -19.3885 -0.0273914 6.08212e-018
    endloop
  endfacet
  facet normal 0 -2.22045e-016 -1
    outer loop
      vertex -19.3885 -0.0273914 6.08212e-018
      vertex -20 -5.52264 1.22627e-015
      vertex -20 -0.0843637 1.87325e-017
    endloop
  endfacet
  facet normal 0 -2.22045e-016 -1
    outer loop
      vertex -12.9 -5 1.11022e-015
      vertex -10 -5 1.11022e-015
      vertex -10.0466 -5.52264 1.22627e-015
    endloop
  endfacet
  facet normal -0 -2.22045e-016 -1
    outer loop
      vertex -10 -5 1.11022e-015
      vertex -12.9 -5 1.11022e-015
      vertex -10.0466 -4.47736 9.94173e-016
    endloop
  endfacet
  facet normal 0 -2.22045e-016 -1
    outer loop
      vertex -10.0466 -4.47736 9.94173e-016
      vertex -12.9 -5 1.11022e-015
      vertex -10.1857 -3.96044 8.79395e-016
    endloop
  endfacet
  facet normal 0 -2.22045e-016 -1
    outer loop
      vertex -10.1857 -3.96044 8.79395e-016
      vertex -12.9 -5 1.11022e-015
      vertex -10.416 -3.45492 7.67145e-016
    endloop
  endfacet
  facet normal 0 -2.22045e-016 -1
    outer loop
      vertex -10.416 -3.45492 7.67145e-016
      vertex -12.9 -5 1.11022e-015
      vertex -10.7349 -2.96632 6.58655e-016
    endloop
  endfacet
  facet normal 0 -2.22045e-016 -1
    outer loop
      vertex -13.5024 -3.74907 8.32461e-016
      vertex -10.7349 -2.96632 6.58655e-016
      vertex -12.9 -5 1.11022e-015
    endloop
  endfacet
  facet normal 0 -2.22045e-016 -1
    outer loop
      vertex -10.7349 -2.96632 6.58655e-016
      vertex -13.5024 -3.74907 8.32461e-016
      vertex -11.1388 -2.5 5.55112e-016
    endloop
  endfacet
  facet normal 0 -2.22045e-016 -1
    outer loop
      vertex -11.1388 -2.5 5.55112e-016
      vertex -13.5024 -3.74907 8.32461e-016
      vertex -11.6234 -2.06107 4.5765e-016
    endloop
  endfacet
  facet normal 0 -2.22045e-016 -1
    outer loop
      vertex -11.6234 -2.06107 4.5765e-016
      vertex -13.5024 -3.74907 8.32461e-016
      vertex -12.1833 -1.65435 3.67339e-016
    endloop
  endfacet
  facet normal 0 -2.22045e-016 -1
    outer loop
      vertex -12.9 -5 1.11022e-015
      vertex -10.0466 -5.52264 1.22627e-015
      vertex -13.1517 -5.52264 1.22627e-015
    endloop
  endfacet
  facet normal 0 -2.22045e-016 -1
    outer loop
      vertex -12.1833 -1.65435 3.67339e-016
      vertex -13.5024 -3.74907 8.32461e-016
      vertex -12.8124 -1.28428 2.85167e-016
    endloop
  endfacet
  facet normal 0 -2.22045e-016 -1
    outer loop
      vertex -13.5024 -3.74907 8.32461e-016
      vertex -13.5038 -0.954915 2.12034e-016
      vertex -12.8124 -1.28428 2.85167e-016
    endloop
  endfacet
  facet normal 0 -2.22045e-016 -1
    outer loop
      vertex -14.856 -3.44012 7.63859e-016
      vertex -13.5038 -0.954915 2.12034e-016
      vertex -13.5024 -3.74907 8.32461e-016
    endloop
  endfacet
  facet normal 0 -2.22045e-016 -1
    outer loop
      vertex -13.5038 -0.954915 2.12034e-016
      vertex -14.856 -3.44012 7.63859e-016
      vertex -14.25 -0.669873 1.48742e-016
    endloop
  endfacet
  facet normal 0 -2.22045e-016 -1
    outer loop
      vertex -14.856 -3.44012 7.63859e-016
      vertex -15.0427 -0.432273 9.59839e-017
      vertex -14.25 -0.669873 1.48742e-016
    endloop
  endfacet
  facet normal 0 -2.22045e-016 -1
    outer loop
      vertex -14.856 -3.44012 7.63859e-016
      vertex -15.8734 -0.244718 5.43382e-017
      vertex -15.0427 -0.432273 9.59839e-017
    endloop
  endfacet
  facet normal 0 -2.22045e-016 -1
    outer loop
      vertex -16.7327 -0.109262 2.42611e-017
      vertex -14.856 -3.44012 7.63859e-016
      vertex -15.9416 -4.30579 9.56077e-016
    endloop
  endfacet
  facet normal 0 -2.22045e-016 -1
    outer loop
      vertex -14.856 -3.44012 7.63859e-016
      vertex -16.7327 -0.109262 2.42611e-017
      vertex -15.8734 -0.244718 5.43382e-017
    endloop
  endfacet
  facet normal 0.755866 0.654726 0
    outer loop
      vertex -10.7349 -2.96632 2.5
      vertex -11.1388 -2.5 5.55112e-016
      vertex -11.1388 -2.5 2.5
    endloop
  endfacet
  facet normal 0.755866 0.654726 0
    outer loop
      vertex -11.1388 -2.5 5.55112e-016
      vertex -10.7349 -2.96632 2.5
      vertex -10.7349 -2.96632 6.58655e-016
    endloop
  endfacet
  facet normal 0.587715 0.809068 -0
    outer loop
      vertex -11.6234 -2.06107 4.5765e-016
      vertex -12.1833 -1.65435 2.5
      vertex -11.6234 -2.06107 2.5
    endloop
  endfacet
  facet normal 0.587715 0.809068 0
    outer loop
      vertex -12.1833 -1.65435 2.5
      vertex -11.6234 -2.06107 4.5765e-016
      vertex -12.1833 -1.65435 3.67339e-016
    endloop
  endfacet
  facet normal 0.155695 0.987805 -0
    outer loop
      vertex -15.8734 -0.244718 5.43382e-017
      vertex -16.7327 -0.109262 2.5
      vertex -15.8734 -0.244718 2.5
    endloop
  endfacet
  facet normal 0.155695 0.987805 0
    outer loop
      vertex -16.7327 -0.109262 2.5
      vertex -15.8734 -0.244718 5.43382e-017
      vertex -16.7327 -0.109262 2.42611e-017
    endloop
  endfacet
  facet normal 0.220257 0.975442 -0
    outer loop
      vertex -15.0427 -0.432273 9.59839e-017
      vertex -15.8734 -0.244718 2.5
      vertex -15.0427 -0.432273 2.5
    endloop
  endfacet
  facet normal 0.220257 0.975442 0
    outer loop
      vertex -15.8734 -0.244718 2.5
      vertex -15.0427 -0.432273 9.59839e-017
      vertex -15.8734 -0.244718 5.43382e-017
    endloop
  endfacet
  facet normal 0.0927651 0.995688 -0
    outer loop
      vertex -16.7327 -0.109262 2.42611e-017
      vertex -17.6115 -0.0273914 2.5
      vertex -16.7327 -0.109262 2.5
    endloop
  endfacet
  facet normal 0.0927651 0.995688 0
    outer loop
      vertex -17.6115 -0.0273914 2.5
      vertex -16.7327 -0.109262 2.42611e-017
      vertex -17.6115 -0.0273914 6.08212e-018
    endloop
  endfacet
  facet normal 3.582e-007 -6.08939e-007 -1
    outer loop
      vertex -12.1833 -8.34565 9.53674e-007
      vertex -12.8124 -8.71572 9.53674e-007
      vertex -10.0466 -5.52264 1.22627e-015
    endloop
  endfacet
  facet normal 0.910034 0.414533 0
    outer loop
      vertex -10.1857 -3.96044 2.5
      vertex -10.416 -3.45492 7.67145e-016
      vertex -10.416 -3.45492 2.5
    endloop
  endfacet
  facet normal 0.910034 0.414533 0
    outer loop
      vertex -10.416 -3.45492 7.67145e-016
      vertex -10.1857 -3.96044 2.5
      vertex -10.1857 -3.96044 8.79395e-016
    endloop
  endfacet
  facet normal 0.96561 0.259995 0
    outer loop
      vertex -10.0466 -4.47736 2.5
      vertex -10.1857 -3.96044 8.79395e-016
      vertex -10.1857 -3.96044 2.5
    endloop
  endfacet
  facet normal 0.96561 0.259995 0
    outer loop
      vertex -10.1857 -3.96044 8.79395e-016
      vertex -10.0466 -4.47736 2.5
      vertex -10.0466 -4.47736 9.94173e-016
    endloop
  endfacet
  facet normal 0.430046 0.902807 -0
    outer loop
      vertex -12.8124 -1.28428 2.85167e-016
      vertex -13.5038 -0.954915 2.5
      vertex -12.8124 -1.28428 2.5
    endloop
  endfacet
  facet normal 0.430046 0.902807 0
    outer loop
      vertex -13.5038 -0.954915 2.5
      vertex -12.8124 -1.28428 2.85167e-016
      vertex -13.5038 -0.954915 2.12034e-016
    endloop
  endfacet
  facet normal 0.356854 0.93416 -0
    outer loop
      vertex -13.5038 -0.954915 2.12034e-016
      vertex -14.25 -0.669873 2.5
      vertex -13.5038 -0.954915 2.5
    endloop
  endfacet
  facet normal 0.356854 0.93416 0
    outer loop
      vertex -14.25 -0.669873 2.5
      vertex -13.5038 -0.954915 2.12034e-016
      vertex -14.25 -0.669873 1.48742e-016
    endloop
  endfacet
  facet normal 0.837459 0.5465 0
    outer loop
      vertex -10.416 -3.45492 2.5
      vertex -10.7349 -2.96632 6.58655e-016
      vertex -10.7349 -2.96632 2.5
    endloop
  endfacet
  facet normal 0.837459 0.5465 0
    outer loop
      vertex -10.7349 -2.96632 6.58655e-016
      vertex -10.416 -3.45492 2.5
      vertex -10.416 -3.45492 7.67145e-016
    endloop
  endfacet
  facet normal 0.0308145 0.999525 -0
    outer loop
      vertex -17.6115 -0.0273914 6.08212e-018
      vertex -18.5 5.55112e-016 2.5
      vertex -17.6115 -0.0273914 2.5
    endloop
  endfacet
  facet normal 5.45099e-007 -7.50401e-007 -1
    outer loop
      vertex -11.6234 -7.93893 9.53674e-007
      vertex -12.1833 -8.34565 9.53674e-007
      vertex -10.0466 -5.52264 1.22627e-015
    endloop
  endfacet
  facet normal -0.900969 0.433883 0
    outer loop
      vertex -13.1517 -5.52264 1.22627e-015
      vertex -12.9 -5 2.5
      vertex -12.9 -5 1.11022e-015
    endloop
  endfacet
  facet normal -0.900969 0.433884 0
    outer loop
      vertex -13.5024 -6.25093 2.5
      vertex -13.1517 -5.52264 1.22627e-015
      vertex -13.5024 -6.25093 1.55125e-007
    endloop
  endfacet
  facet normal -0.900969 0.433884 -1.1347e-007
    outer loop
      vertex -13.1517 -5.52264 1.22627e-015
      vertex -13.5024 -6.25093 2.5
      vertex -12.9 -5 2.5
    endloop
  endfacet
  facet normal -0.222521 0.974928 0
    outer loop
      vertex -13.5024 -6.25093 2.5
      vertex -14.856 -6.55988 2.20932e-007
      vertex -14.856 -6.55988 2.5
    endloop
  endfacet
  facet normal -0.222521 0.974928 0
    outer loop
      vertex -14.856 -6.55988 2.20932e-007
      vertex -13.5024 -6.25093 2.5
      vertex -13.5024 -6.25093 1.55125e-007
    endloop
  endfacet
  facet normal 1 0 0
    outer loop
      vertex -15.9416 -4.30579 2.5
      vertex -15.9416 -5.52264 1.22627e-015
      vertex -15.9416 -4.30579 9.56077e-016
    endloop
  endfacet
  facet normal 1 -0 0
    outer loop
      vertex -15.9416 -5.69421 2.5
      vertex -15.9416 -5.52264 1.22627e-015
      vertex -15.9416 -4.30579 2.5
    endloop
  endfacet
  facet normal 1 0 0
    outer loop
      vertex -15.9416 -5.52264 1.22627e-015
      vertex -15.9416 -5.69421 2.5
      vertex -15.9416 -5.69421 3.65447e-008
    endloop
  endfacet
  facet normal -0.900969 -0.433884 0
    outer loop
      vertex -12.9 -5 1.11022e-015
      vertex -13.5024 -3.74907 2.5
      vertex -13.5024 -3.74907 8.32461e-016
    endloop
  endfacet
  facet normal -0.900969 -0.433884 0
    outer loop
      vertex -13.5024 -3.74907 2.5
      vertex -12.9 -5 1.11022e-015
      vertex -12.9 -5 2.5
    endloop
  endfacet
  facet normal 0.62349 -0.781831 0
    outer loop
      vertex -15.9416 -4.30579 9.56077e-016
      vertex -14.856 -3.44012 2.5
      vertex -15.9416 -4.30579 2.5
    endloop
  endfacet
  facet normal 0.62349 -0.781831 0
    outer loop
      vertex -14.856 -3.44012 2.5
      vertex -15.9416 -4.30579 9.56077e-016
      vertex -14.856 -3.44012 7.63859e-016
    endloop
  endfacet
  facet normal 0.62349 0.781831 -0
    outer loop
      vertex -14.856 -6.55988 2.20932e-007
      vertex -15.9416 -5.69421 2.5
      vertex -14.856 -6.55988 2.5
    endloop
  endfacet
  facet normal 0.62349 0.781831 0
    outer loop
      vertex -15.9416 -5.69421 2.5
      vertex -14.856 -6.55988 2.20932e-007
      vertex -15.9416 -5.69421 3.65447e-008
    endloop
  endfacet
  facet normal -0.222521 -0.974928 0
    outer loop
      vertex -14.856 -3.44012 2.5
      vertex -13.5024 -3.74907 8.32461e-016
      vertex -13.5024 -3.74907 2.5
    endloop
  endfacet
  facet normal -0.222521 -0.974928 0
    outer loop
      vertex -13.5024 -3.74907 8.32461e-016
      vertex -14.856 -3.44012 2.5
      vertex -14.856 -3.44012 7.63859e-016
    endloop
  endfacet
  facet normal 1 0 0
    outer loop
      vertex -20 -9.91564 2.5
      vertex -20 -10 2.5
      vertex -20 -9.91564 9.53674e-007
    endloop
  endfacet
  facet normal 1 0 0
    outer loop
      vertex -20 -9.20553 7.84452e-007
      vertex -20 -10 2.22045e-015
      vertex -20 -5.52264 1.22627e-015
    endloop
  endfacet
  facet normal 1 0 0
    outer loop
      vertex -20 -9.6129 8.76585e-007
      vertex -20 -10 2.22045e-015
      vertex -20 -9.20553 7.84452e-007
    endloop
  endfacet
  facet normal 1 0 0
    outer loop
      vertex -20 -9.91564 9.53674e-007
      vertex -20 -10 2.22045e-015
      vertex -20 -9.6129 8.76585e-007
    endloop
  endfacet
  facet normal 1 0 0
    outer loop
      vertex -20 -10 2.22045e-015
      vertex -20 -9.91564 9.53674e-007
      vertex -20 -10 2.5
    endloop
  endfacet
  facet normal 1 -0 0
    outer loop
      vertex -20 -0.0843637 2.5
      vertex -20 0 0
      vertex -20 5.55112e-016 2.5
    endloop
  endfacet
  facet normal 1 0 0
    outer loop
      vertex -20 0 0
      vertex -20 -0.0843637 2.5
      vertex -20 -0.0843637 1.87325e-017
    endloop
  endfacet
  facet normal -0.996055 -0.0887385 0
    outer loop
      vertex -48.9534 -5.52264 2.44518e-015
      vertex -49 -5 2.5
      vertex -49 -5 2.33483e-015
    endloop
  endfacet
  facet normal -0.996055 -0.0887385 0
    outer loop
      vertex -49 -5 2.5
      vertex -48.9534 -5.52264 2.44518e-015
      vertex -48.9534 -5.52264 2.5
    endloop
  endfacet
  facet normal -0.96561 -0.259997 0
    outer loop
      vertex -48.8143 -6.03956 2.54291e-015
      vertex -48.9534 -5.52264 2.5
      vertex -48.9534 -5.52264 2.44518e-015
    endloop
  endfacet
  facet normal -0.96561 -0.259997 0
    outer loop
      vertex -48.9534 -5.52264 2.5
      vertex -48.8143 -6.03956 2.54291e-015
      vertex -48.8143 -6.03956 2.5
    endloop
  endfacet
  facet normal -0.0308145 -0.999525 0
    outer loop
      vertex -41.3885 -9.97261 2.50686e-015
      vertex -40.5 -10 2.5
      vertex -41.3885 -9.97261 2.5
    endloop
  endfacet
  facet normal -0.0308145 -0.999525 -0
    outer loop
      vertex -40.5 -10 2.5
      vertex -41.3885 -9.97261 2.50686e-015
      vertex -40.5 -10 2.40414e-015
    endloop
  endfacet
  facet normal -0.910034 -0.414533 0
    outer loop
      vertex -48.584 -6.54508 2.62696e-015
      vertex -48.8143 -6.03956 2.5
      vertex -48.8143 -6.03956 2.54291e-015
    endloop
  endfacet
  facet normal -0.910034 -0.414533 0
    outer loop
      vertex -48.8143 -6.03956 2.5
      vertex -48.584 -6.54508 2.62696e-015
      vertex -48.584 -6.54508 2.5
    endloop
  endfacet
  facet normal -2.42203e-007 -5.08464e-007 1
    outer loop
      vertex -45.4962 -9.04508 2.5
      vertex -48.9534 -5.52264 2.5
      vertex -46.1876 -8.71572 2.5
    endloop
  endfacet
  facet normal 0.0308134 0.999525 3.81508e-007
    outer loop
      vertex -40 -0.0154146 1.40688
      vertex -40.5 -9.53674e-007 2.5
      vertex -40 -0.015415 2.5
    endloop
  endfacet
  facet normal 0.0308134 0.999525 3.81289e-007
    outer loop
      vertex -40.5 -9.53674e-007 2.5
      vertex -40 -0.0154146 1.40688
      vertex -40.5 4.07876e-032 1.83691e-016
    endloop
  endfacet
  facet normal 0 0 -1
    outer loop
      vertex -40 -0.015415 2.5
      vertex -40.5 -9.53674e-007 2.5
      vertex -39.6115 -0.0273914 2.5
    endloop
  endfacet
  facet normal -0.507021 -0.861934 0
    outer loop
      vertex -46.8167 -8.34565 2.5
      vertex -46.1876 -8.71572 2.81548e-015
      vertex -46.1876 -8.71572 2.5
    endloop
  endfacet
  facet normal -0.507021 -0.861934 0
    outer loop
      vertex -46.1876 -8.71572 2.81548e-015
      vertex -46.8167 -8.34565 2.5
      vertex -46.8167 -8.34565 2.81035e-015
    endloop
  endfacet
  facet normal -8.74322e-007 -9.65242e-007 1
    outer loop
      vertex -47.3766 -7.93893 2.5
      vertex -48.9534 -5.52264 2.5
      vertex -47.8612 -7.5 2.5
    endloop
  endfacet
  facet normal -0.587715 -0.809068 0
    outer loop
      vertex -47.3766 -7.93893 2.5
      vertex -46.8167 -8.34565 2.81035e-015
      vertex -46.8167 -8.34565 2.5
    endloop
  endfacet
  facet normal -0.587715 -0.809068 0
    outer loop
      vertex -46.8167 -8.34565 2.81035e-015
      vertex -47.3766 -7.93893 2.5
      vertex -47.3766 -7.93893 2.7886e-015
    endloop
  endfacet
  facet normal -0.287102 -0.9579 0
    outer loop
      vertex -44.75 -9.33013 2.77585e-015
      vertex -43.9573 -9.56773 2.5
      vertex -44.75 -9.33013 2.5
    endloop
  endfacet
  facet normal -0.287102 -0.9579 -0
    outer loop
      vertex -43.9573 -9.56773 2.5
      vertex -44.75 -9.33013 2.77585e-015
      vertex -43.9573 -9.56773 2.73153e-015
    endloop
  endfacet
  facet normal -7.38248e-008 -3.26944e-007 1
    outer loop
      vertex -43.1266 -9.75528 2.5
      vertex -48.9534 -5.52264 2.5
      vertex -43.9573 -9.56773 2.5
    endloop
  endfacet
  facet normal -0.220257 -0.975442 0
    outer loop
      vertex -43.9573 -9.56773 2.73153e-015
      vertex -43.1266 -9.75528 2.5
      vertex -43.9573 -9.56773 2.5
    endloop
  endfacet
  facet normal -0.220257 -0.975442 -0
    outer loop
      vertex -43.1266 -9.75528 2.5
      vertex -43.9573 -9.56773 2.73153e-015
      vertex -43.1266 -9.75528 2.67146e-015
    endloop
  endfacet
  facet normal -0.356854 -0.93416 0
    outer loop
      vertex -45.4962 -9.04508 2.80394e-015
      vertex -44.75 -9.33013 2.5
      vertex -45.4962 -9.04508 2.5
    endloop
  endfacet
  facet normal -0.356854 -0.93416 -0
    outer loop
      vertex -44.75 -9.33013 2.5
      vertex -45.4962 -9.04508 2.80394e-015
      vertex -44.75 -9.33013 2.77585e-015
    endloop
  endfacet
  facet normal 1.19907e-007 -2.2639e-007 1
    outer loop
      vertex -40 -5.52264 2.5
      vertex -40.5 -10 2.5
      vertex -40 -9.73518 2.5
    endloop
  endfacet
  facet normal 0 0 1
    outer loop
      vertex -43.0584 -5.69421 2.5
      vertex -40 -5.52264 2.5
      vertex -43.0584 -5.52264 2.5
    endloop
  endfacet
  facet normal 1.20241e-008 -2.14342e-007 1
    outer loop
      vertex -40 -5.52264 2.5
      vertex -43.0584 -5.69421 2.5
      vertex -40.5 -10 2.5
    endloop
  endfacet
  facet normal -2.91796e-008 -2.38825e-007 1
    outer loop
      vertex -44.144 -6.55988 2.5
      vertex -40.5 -10 2.5
      vertex -43.0584 -5.69421 2.5
    endloop
  endfacet
  facet normal -6.25872e-008 -2.74212e-007 1
    outer loop
      vertex -45.4976 -6.25093 2.5
      vertex -40.5 -10 2.5
      vertex -44.144 -6.55988 2.5
    endloop
  endfacet
  facet normal 4.00293e-008 -1.37422e-007 1
    outer loop
      vertex -45.4976 -6.25093 2.5
      vertex -48.9534 -5.52264 2.5
      vertex -40.5 -10 2.5
    endloop
  endfacet
  facet normal 0 -3.27369e-007 1
    outer loop
      vertex -48.9534 -5.52264 2.5
      vertex -45.4976 -6.25093 2.5
      vertex -45.8483 -5.52264 2.5
    endloop
  endfacet
  facet normal 0 0 0
    outer loop
      vertex -40 -5.52264 2.5
      vertex -39 -5.52264 2.5
      vertex -43.0584 -5.52264 2.5
    endloop
  endfacet
  facet normal 0.0308145 0.999525 -0
    outer loop
      vertex -40 -0.0154146 1.25883e-016
      vertex -40.5 4.07876e-032 1.83691e-016
      vertex -40 -0.0154146 1.40688
    endloop
  endfacet
  facet normal -1.22461e-016 -2.22045e-016 -1
    outer loop
      vertex -43.0584 -5.69421 1.76137e-015
      vertex -40 -9.98459 2.33948e-015
      vertex -40.5 -10 2.40414e-015
    endloop
  endfacet
  facet normal -1.22461e-016 -2.22045e-016 -1
    outer loop
      vertex -40 -9.98459 2.33948e-015
      vertex -43.0584 -5.69421 1.76137e-015
      vertex -40 -0.0154146 1.25883e-016
    endloop
  endfacet
  facet normal -1.2246e-016 -2.22044e-016 -1
    outer loop
      vertex -43.0584 -5.69421 1.76137e-015
      vertex -40.5 -10 2.40414e-015
      vertex -41.3885 -9.97261 2.50686e-015
    endloop
  endfacet
  facet normal -1.22461e-016 -2.22045e-016 -1
    outer loop
      vertex -43.0584 -4.30579 1.45308e-015
      vertex -40 -0.0154146 1.25883e-016
      vertex -43.0584 -5.69421 1.76137e-015
    endloop
  endfacet
  facet normal -1.22461e-016 -2.22045e-016 -1
    outer loop
      vertex -43.0584 -5.69421 1.76137e-015
      vertex -41.3885 -9.97261 2.50686e-015
      vertex -42.2673 -9.89074 2.59629e-015
    endloop
  endfacet
  facet normal -1.22461e-016 -2.22045e-016 -1
    outer loop
      vertex -40 -0.0154146 1.25883e-016
      vertex -43.0584 -4.30579 1.45308e-015
      vertex -40.5 4.07876e-032 1.83691e-016
    endloop
  endfacet
  facet normal -1.2246e-016 -2.22045e-016 -1
    outer loop
      vertex -40.5 4.07876e-032 1.83691e-016
      vertex -43.0584 -4.30579 1.45308e-015
      vertex -41.3885 -0.0273914 2.98578e-016
    endloop
  endfacet
  facet normal -1.22461e-016 -2.22045e-016 -1
    outer loop
      vertex -44.144 -6.55988 2.08652e-015
      vertex -42.2673 -9.89074 2.59629e-015
      vertex -43.1266 -9.75528 2.67146e-015
    endloop
  endfacet
  facet normal -1.22461e-016 -2.22045e-016 -1
    outer loop
      vertex -44.144 -6.55988 2.08652e-015
      vertex -43.1266 -9.75528 2.67146e-015
      vertex -43.9573 -9.56773 2.73153e-015
    endloop
  endfacet
  facet normal -1.22461e-016 -2.22045e-016 -1
    outer loop
      vertex -42.2673 -9.89074 2.59629e-015
      vertex -44.144 -6.55988 2.08652e-015
      vertex -43.0584 -5.69421 1.76137e-015
    endloop
  endfacet
  facet normal -1.2246e-016 -2.22045e-016 -1
    outer loop
      vertex -44.75 -9.33013 2.77585e-015
      vertex -44.144 -6.55988 2.08652e-015
      vertex -43.9573 -9.56773 2.73153e-015
    endloop
  endfacet
  facet normal -1.22461e-016 -2.22045e-016 -1
    outer loop
      vertex -45.4962 -9.04508 2.80394e-015
      vertex -44.144 -6.55988 2.08652e-015
      vertex -44.75 -9.33013 2.77585e-015
    endloop
  endfacet
  facet normal -1.22461e-016 -2.22045e-016 -1
    outer loop
      vertex -45.4962 -9.04508 2.80394e-015
      vertex -45.4976 -6.25093 2.18368e-015
      vertex -44.144 -6.55988 2.08652e-015
    endloop
  endfacet
  facet normal -1.2246e-016 -2.22045e-016 -1
    outer loop
      vertex -46.1876 -8.71572 2.81548e-015
      vertex -45.4976 -6.25093 2.18368e-015
      vertex -45.4962 -9.04508 2.80394e-015
    endloop
  endfacet
  facet normal -1.22461e-016 -2.22044e-016 -1
    outer loop
      vertex -46.8167 -8.34565 2.81035e-015
      vertex -45.4976 -6.25093 2.18368e-015
      vertex -46.1876 -8.71572 2.81548e-015
    endloop
  endfacet
  facet normal -1.22461e-016 -2.22045e-016 -1
    outer loop
      vertex -41.3885 -0.0273914 2.98578e-016
      vertex -43.0584 -4.30579 1.45308e-015
      vertex -42.2673 -0.109262 4.24371e-016
    endloop
  endfacet
  facet normal -1.22461e-016 -2.22045e-016 -1
    outer loop
      vertex -44.144 -3.44012 1.39379e-015
      vertex -42.2673 -0.109262 4.24371e-016
      vertex -43.0584 -4.30579 1.45308e-015
    endloop
  endfacet
  facet normal -1.22461e-016 -2.22045e-016 -1
    outer loop
      vertex -42.2673 -0.109262 4.24371e-016
      vertex -44.144 -3.44012 1.39379e-015
      vertex -43.1266 -0.244718 5.5969e-016
    endloop
  endfacet
  facet normal -1.22461e-016 -2.22045e-016 -1
    outer loop
      vertex -43.1266 -0.244718 5.5969e-016
      vertex -44.144 -3.44012 1.39379e-015
      vertex -43.9573 -0.432273 7.03053e-016
    endloop
  endfacet
  facet normal -1.2246e-016 -2.22045e-016 -1
    outer loop
      vertex -44.144 -3.44012 1.39379e-015
      vertex -44.75 -0.669873 8.5289e-016
      vertex -43.9573 -0.432273 7.03053e-016
    endloop
  endfacet
  facet normal -1.22461e-016 -2.22045e-016 -1
    outer loop
      vertex -44.144 -3.44012 1.39379e-015
      vertex -45.4962 -0.954915 1.00756e-015
      vertex -44.75 -0.669873 8.5289e-016
    endloop
  endfacet
  facet normal -1.22461e-016 -2.22045e-016 -1
    outer loop
      vertex -45.4976 -3.74907 1.62816e-015
      vertex -45.4962 -0.954915 1.00756e-015
      vertex -44.144 -3.44012 1.39379e-015
    endloop
  endfacet
  facet normal -1.2246e-016 -2.22045e-016 -1
    outer loop
      vertex -48.2651 -2.96632 1.79327e-015
      vertex -45.4976 -3.74907 1.62816e-015
      vertex -46.1 -5 1.97969e-015
    endloop
  endfacet
  facet normal -1.2246e-016 -2.22045e-016 -1
    outer loop
      vertex -45.4976 -3.74907 1.62816e-015
      vertex -46.1876 -1.28428 1.16537e-015
      vertex -45.4962 -0.954915 1.00756e-015
    endloop
  endfacet
  facet normal -1.22461e-016 -2.22045e-016 -1
    outer loop
      vertex -47.3766 -7.93893 2.7886e-015
      vertex -45.4976 -6.25093 2.18368e-015
      vertex -46.8167 -8.34565 2.81035e-015
    endloop
  endfacet
  facet normal -1.22461e-016 -2.22044e-016 -1
    outer loop
      vertex -47.8612 -7.5 2.75048e-015
      vertex -45.4976 -6.25093 2.18368e-015
      vertex -47.3766 -7.93893 2.7886e-015
    endloop
  endfacet
  facet normal -1.22461e-016 -2.22045e-016 -1
    outer loop
      vertex -45.4976 -3.74907 1.62816e-015
      vertex -46.8167 -1.65435 1.32458e-015
      vertex -46.1876 -1.28428 1.16537e-015
    endloop
  endfacet
  facet normal -1.2246e-016 -2.22045e-016 -1
    outer loop
      vertex -48.2651 -7.03368 2.69641e-015
      vertex -45.4976 -6.25093 2.18368e-015
      vertex -47.8612 -7.5 2.75048e-015
    endloop
  endfacet
  facet normal -1.22461e-016 -2.22045e-016 -1
    outer loop
      vertex -45.4976 -3.74907 1.62816e-015
      vertex -47.3766 -2.06107 1.48346e-015
      vertex -46.8167 -1.65435 1.32458e-015
    endloop
  endfacet
  facet normal -1.22461e-016 -2.22045e-016 -1
    outer loop
      vertex -45.4976 -6.25093 2.18368e-015
      vertex -48.2651 -7.03368 2.69641e-015
      vertex -46.1 -5 1.97969e-015
    endloop
  endfacet
  facet normal -1.22461e-016 -2.22045e-016 -1
    outer loop
      vertex -45.4976 -3.74907 1.62816e-015
      vertex -47.8612 -2.5 1.64026e-015
      vertex -47.3766 -2.06107 1.48346e-015
    endloop
  endfacet
  facet normal -1.22461e-016 -2.22044e-016 -1
    outer loop
      vertex -48.584 -6.54508 2.62696e-015
      vertex -46.1 -5 1.97969e-015
      vertex -48.2651 -7.03368 2.69641e-015
    endloop
  endfacet
  facet normal -1.2246e-016 -2.22044e-016 -1
    outer loop
      vertex -45.4976 -3.74907 1.62816e-015
      vertex -48.2651 -2.96632 1.79327e-015
      vertex -47.8612 -2.5 1.64026e-015
    endloop
  endfacet
  facet normal -1.2246e-016 -2.22045e-016 -1
    outer loop
      vertex -48.8143 -6.03956 2.54291e-015
      vertex -46.1 -5 1.97969e-015
      vertex -48.584 -6.54508 2.62696e-015
    endloop
  endfacet
  facet normal -1.22461e-016 -2.22045e-016 -1
    outer loop
      vertex -46.1 -5 1.97969e-015
      vertex -48.584 -3.45492 1.94081e-015
      vertex -48.2651 -2.96632 1.79327e-015
    endloop
  endfacet
  facet normal -1.22461e-016 -2.22045e-016 -1
    outer loop
      vertex -48.9534 -5.52264 2.44518e-015
      vertex -46.1 -5 1.97969e-015
      vertex -48.8143 -6.03956 2.54291e-015
    endloop
  endfacet
  facet normal -1.2246e-016 -2.22044e-016 -1
    outer loop
      vertex -46.1 -5 1.97969e-015
      vertex -48.8143 -3.96044 2.08125e-015
      vertex -48.584 -3.45492 1.94081e-015
    endloop
  endfacet
  facet normal -1.22461e-016 -2.22044e-016 -1
    outer loop
      vertex -49 -5 2.33483e-015
      vertex -46.1 -5 1.97969e-015
      vertex -48.9534 -5.52264 2.44518e-015
    endloop
  endfacet
  facet normal -1.22461e-016 -2.22045e-016 -1
    outer loop
      vertex -46.1 -5 1.97969e-015
      vertex -48.9534 -4.47736 2.21308e-015
      vertex -48.8143 -3.96044 2.08125e-015
    endloop
  endfacet
  facet normal -1.22461e-016 -2.22045e-016 -1
    outer loop
      vertex -46.1 -5 1.97969e-015
      vertex -49 -5 2.33483e-015
      vertex -48.9534 -4.47736 2.21308e-015
    endloop
  endfacet
  facet normal -3.20286e-006 -2.09009e-006 1
    outer loop
      vertex -48.2651 -7.03368 2.5
      vertex -48.9534 -5.52264 2.5
      vertex -48.584 -6.54508 2.5
    endloop
  endfacet
  facet normal -0.837459 -0.5465 0
    outer loop
      vertex -48.2651 -7.03368 2.69641e-015
      vertex -48.584 -6.54508 2.5
      vertex -48.584 -6.54508 2.62696e-015
    endloop
  endfacet
  facet normal -0.837459 -0.5465 0
    outer loop
      vertex -48.584 -6.54508 2.5
      vertex -48.2651 -7.03368 2.69641e-015
      vertex -48.2651 -7.03368 2.5
    endloop
  endfacet
  facet normal -1.12197e-007 -3.74338e-007 1
    outer loop
      vertex -43.9573 -9.56773 2.5
      vertex -48.9534 -5.52264 2.5
      vertex -44.75 -9.33013 2.5
    endloop
  endfacet
  facet normal -0.155695 -0.987805 0
    outer loop
      vertex -43.1266 -9.75528 2.67146e-015
      vertex -42.2673 -9.89074 2.5
      vertex -43.1266 -9.75528 2.5
    endloop
  endfacet
  facet normal -0.155695 -0.987805 -0
    outer loop
      vertex -42.2673 -9.89074 2.5
      vertex -43.1266 -9.75528 2.67146e-015
      vertex -42.2673 -9.89074 2.59629e-015
    endloop
  endfacet
  facet normal -2.37241e-008 -2.54641e-007 1
    outer loop
      vertex -41.3885 -9.97261 2.5
      vertex -48.9534 -5.52264 2.5
      vertex -42.2673 -9.89074 2.5
    endloop
  endfacet
  facet normal -0.0927651 -0.995688 0
    outer loop
      vertex -42.2673 -9.89074 2.59629e-015
      vertex -41.3885 -9.97261 2.5
      vertex -42.2673 -9.89074 2.5
    endloop
  endfacet
  facet normal -0.0927651 -0.995688 -0
    outer loop
      vertex -41.3885 -9.97261 2.5
      vertex -42.2673 -9.89074 2.59629e-015
      vertex -41.3885 -9.97261 2.50686e-015
    endloop
  endfacet
  facet normal -0.430046 -0.902807 0
    outer loop
      vertex -46.1876 -8.71572 2.81548e-015
      vertex -45.4962 -9.04508 2.5
      vertex -46.1876 -8.71572 2.5
    endloop
  endfacet
  facet normal -0.430046 -0.902807 -0
    outer loop
      vertex -45.4962 -9.04508 2.5
      vertex -46.1876 -8.71572 2.81548e-015
      vertex -45.4962 -9.04508 2.80394e-015
    endloop
  endfacet
  facet normal 0 0 1
    outer loop
      vertex -40 -9.73518 2.5
      vertex -40.5 -10 2.5
      vertex -40 -9.98459 2.5
    endloop
  endfacet
  facet normal 0.0308138 -0.999525 0
    outer loop
      vertex -40.5 -10 2.40414e-015
      vertex -40 -9.98459 2.5
      vertex -40.5 -10 2.5
    endloop
  endfacet
  facet normal 0.0308138 -0.999525 0
    outer loop
      vertex -40 -9.98459 2.5
      vertex -40.5 -10 2.40414e-015
      vertex -40 -9.98459 2.33948e-015
    endloop
  endfacet
  facet normal -0.996055 0.0887385 0
    outer loop
      vertex -49 -5 2.33483e-015
      vertex -48.9534 -4.47736 2.5
      vertex -48.9534 -4.47736 2.21308e-015
    endloop
  endfacet
  facet normal -0.996055 0.0887385 0
    outer loop
      vertex -48.9534 -4.47736 2.5
      vertex -49 -5 2.33483e-015
      vertex -49 -5 2.5
    endloop
  endfacet
  facet normal -0.287102 0.9579 0
    outer loop
      vertex -43.9573 -0.432273 2.5
      vertex -44.75 -0.669873 8.5289e-016
      vertex -44.75 -0.669873 2.5
    endloop
  endfacet
  facet normal -0.287102 0.9579 0
    outer loop
      vertex -44.75 -0.669873 8.5289e-016
      vertex -43.9573 -0.432273 2.5
      vertex -43.9573 -0.432273 7.03053e-016
    endloop
  endfacet
  facet normal -0.507021 0.861934 0
    outer loop
      vertex -46.1876 -1.28428 2.5
      vertex -46.8167 -1.65435 1.32458e-015
      vertex -46.8167 -1.65435 2.5
    endloop
  endfacet
  facet normal -0.507021 0.861934 0
    outer loop
      vertex -46.8167 -1.65435 1.32458e-015
      vertex -46.1876 -1.28428 2.5
      vertex -46.1876 -1.28428 1.16537e-015
    endloop
  endfacet
  facet normal -0.671339 0.74115 0
    outer loop
      vertex -47.3766 -2.06107 2.5
      vertex -47.8612 -2.5 1.64026e-015
      vertex -47.8612 -2.5 2.5
    endloop
  endfacet
  facet normal -0.671339 0.74115 0
    outer loop
      vertex -47.8612 -2.5 1.64026e-015
      vertex -47.3766 -2.06107 2.5
      vertex -47.3766 -2.06107 1.48346e-015
    endloop
  endfacet
  facet normal -0.0308134 0.999525 3.81289e-007
    outer loop
      vertex -40.5 4.07876e-032 1.83691e-016
      vertex -41.3885 -0.0273914 2.5
      vertex -40.5 -9.53674e-007 2.5
    endloop
  endfacet
  facet normal -9.90529e-006 -4.51199e-006 1
    outer loop
      vertex -48.584 -6.54508 2.5
      vertex -48.9534 -5.52264 2.5
      vertex -48.8143 -6.03956 2.5
    endloop
  endfacet
  facet normal -0.755864 -0.654728 -0
    outer loop
      vertex -48.2651 -7.03368 2.5
      vertex -48.2651 -7.03368 2.69641e-015
      vertex -47.8612 -7.5 2.5
    endloop
  endfacet
  facet normal -1.5368e-006 -1.33117e-006 1
    outer loop
      vertex -47.8612 -7.5 2.5
      vertex -48.9534 -5.52264 2.5
      vertex -48.2651 -7.03368 2.5
    endloop
  endfacet
  facet normal -0.671339 -0.741151 -0
    outer loop
      vertex -47.3766 -7.93893 2.5
      vertex -47.8612 -7.5 2.5
      vertex -47.3766 -7.93893 2.7886e-015
    endloop
  endfacet
  facet normal -0.671339 -0.74115 -2.82726e-007
    outer loop
      vertex -47.8612 -7.5 2.5
      vertex -47.8612 -7.5 2.75048e-015
      vertex -47.3766 -7.93893 2.7886e-015
    endloop
  endfacet
  facet normal -0.755864 -0.654729 -2.49759e-007
    outer loop
      vertex -47.8612 -7.5 2.5
      vertex -48.2651 -7.03368 2.69641e-015
      vertex -47.8612 -7.5 2.75048e-015
    endloop
  endfacet
  facet normal -1.65463e-007 -4.33143e-007 1
    outer loop
      vertex -44.75 -9.33013 2.5
      vertex -48.9534 -5.52264 2.5
      vertex -45.4962 -9.04508 2.5
    endloop
  endfacet
  facet normal -4.53544e-008 -2.87751e-007 1
    outer loop
      vertex -42.2673 -9.89074 2.5
      vertex -48.9534 -5.52264 2.5
      vertex -43.1266 -9.75528 2.5
    endloop
  endfacet
  facet normal -6.97242e-009 -2.26164e-007 1
    outer loop
      vertex -40.5 -10 2.5
      vertex -48.9534 -5.52264 2.5
      vertex -41.3885 -9.97261 2.5
    endloop
  endfacet
  facet normal 0 0 1
    outer loop
      vertex -44.144 -3.44012 2.5
      vertex -42.2673 -0.109262 2.5
      vertex -43.1266 -0.244718 2.5
    endloop
  endfacet
  facet normal 0 0 1
    outer loop
      vertex -44.144 -3.44012 2.5
      vertex -43.1266 -0.244718 2.5
      vertex -43.9573 -0.432273 2.5
    endloop
  endfacet
  facet normal 0 0 1
    outer loop
      vertex -42.2673 -0.109262 2.5
      vertex -44.144 -3.44012 2.5
      vertex -43.0584 -4.30579 2.5
    endloop
  endfacet
  facet normal -0 0 1
    outer loop
      vertex -44.75 -0.669873 2.5
      vertex -44.144 -3.44012 2.5
      vertex -43.9573 -0.432273 2.5
    endloop
  endfacet
  facet normal -0 0 1
    outer loop
      vertex -45.4962 -0.954915 2.5
      vertex -44.144 -3.44012 2.5
      vertex -44.75 -0.669873 2.5
    endloop
  endfacet
  facet normal 0 0 1
    outer loop
      vertex -45.4962 -0.954915 2.5
      vertex -45.4976 -3.74907 2.5
      vertex -44.144 -3.44012 2.5
    endloop
  endfacet
  facet normal -0 0 1
    outer loop
      vertex -46.1876 -1.28428 2.5
      vertex -45.4976 -3.74907 2.5
      vertex -45.4962 -0.954915 2.5
    endloop
  endfacet
  facet normal -0 0 1
    outer loop
      vertex -46.8167 -1.65435 2.5
      vertex -45.4976 -3.74907 2.5
      vertex -46.1876 -1.28428 2.5
    endloop
  endfacet
  facet normal 0 0 1
    outer loop
      vertex -39.6115 -0.0273914 2.5
      vertex -39 -5.52264 2.5
      vertex -39 -0.0843637 2.5
    endloop
  endfacet
  facet normal 0 0 1
    outer loop
      vertex -40.5 -9.53674e-007 2.5
      vertex -39 -5.52264 2.5
      vertex -39.6115 -0.0273914 2.5
    endloop
  endfacet
  facet normal 0 0 1
    outer loop
      vertex -43.0584 -4.30579 2.5
      vertex -40.5 -9.53674e-007 2.5
      vertex -41.3885 -0.0273914 2.5
    endloop
  endfacet
  facet normal 0 0 1
    outer loop
      vertex -43.0584 -4.30579 2.5
      vertex -41.3885 -0.0273914 2.5
      vertex -42.2673 -0.109262 2.5
    endloop
  endfacet
  facet normal 0 0 1
    outer loop
      vertex -40.5 -9.53674e-007 2.5
      vertex -43.0584 -4.30579 2.5
      vertex -39 -5.52264 2.5
    endloop
  endfacet
  facet normal 0 0 1
    outer loop
      vertex -39 -5.52264 2.5
      vertex -43.0584 -4.30579 2.5
      vertex -43.0584 -5.52264 2.5
    endloop
  endfacet
  facet normal -0 0 1
    outer loop
      vertex -47.3766 -2.06107 2.5
      vertex -45.4976 -3.74907 2.5
      vertex -46.8167 -1.65435 2.5
    endloop
  endfacet
  facet normal -0 0 1
    outer loop
      vertex -47.8612 -2.5 2.5
      vertex -45.4976 -3.74907 2.5
      vertex -47.3766 -2.06107 2.5
    endloop
  endfacet
  facet normal -0 0 1
    outer loop
      vertex -48.2651 -2.96632 2.5
      vertex -45.4976 -3.74907 2.5
      vertex -47.8612 -2.5 2.5
    endloop
  endfacet
  facet normal 0 0 1
    outer loop
      vertex -45.4976 -3.74907 2.5
      vertex -48.2651 -2.96632 2.5
      vertex -46.1 -5 2.5
    endloop
  endfacet
  facet normal -0 0 1
    outer loop
      vertex -48.584 -3.45492 2.5
      vertex -46.1 -5 2.5
      vertex -48.2651 -2.96632 2.5
    endloop
  endfacet
  facet normal -0 0 1
    outer loop
      vertex -48.8143 -3.96044 2.5
      vertex -46.1 -5 2.5
      vertex -48.584 -3.45492 2.5
    endloop
  endfacet
  facet normal -0 0 1
    outer loop
      vertex -48.9534 -4.47736 2.5
      vertex -46.1 -5 2.5
      vertex -48.8143 -3.96044 2.5
    endloop
  endfacet
  facet normal 0 0 1
    outer loop
      vertex -49 -5 2.5
      vertex -46.1 -5 2.5
      vertex -48.9534 -4.47736 2.5
    endloop
  endfacet
  facet normal 0 -0 1
    outer loop
      vertex -48.9534 -5.52264 2.5
      vertex -46.1 -5 2.5
      vertex -49 -5 2.5
    endloop
  endfacet
  facet normal 0 0 1
    outer loop
      vertex -46.1 -5 2.5
      vertex -48.9534 -5.52264 2.5
      vertex -45.8483 -5.52264 2.5
    endloop
  endfacet
  facet normal -0.755864 0.654729 0
    outer loop
      vertex -48.2651 -2.96632 1.79327e-015
      vertex -47.8612 -2.5 2.5
      vertex -47.8612 -2.5 1.64026e-015
    endloop
  endfacet
  facet normal -0.755864 0.654729 0
    outer loop
      vertex -47.8612 -2.5 2.5
      vertex -48.2651 -2.96632 1.79327e-015
      vertex -48.2651 -2.96632 2.5
    endloop
  endfacet
  facet normal -0.587715 0.809068 0
    outer loop
      vertex -46.8167 -1.65435 2.5
      vertex -47.3766 -2.06107 1.48346e-015
      vertex -47.3766 -2.06107 2.5
    endloop
  endfacet
  facet normal -0.587715 0.809068 0
    outer loop
      vertex -47.3766 -2.06107 1.48346e-015
      vertex -46.8167 -1.65435 2.5
      vertex -46.8167 -1.65435 1.32458e-015
    endloop
  endfacet
  facet normal -0.155695 0.987805 0
    outer loop
      vertex -42.2673 -0.109262 2.5
      vertex -43.1266 -0.244718 5.5969e-016
      vertex -43.1266 -0.244718 2.5
    endloop
  endfacet
  facet normal -0.155695 0.987805 0
    outer loop
      vertex -43.1266 -0.244718 5.5969e-016
      vertex -42.2673 -0.109262 2.5
      vertex -42.2673 -0.109262 4.24371e-016
    endloop
  endfacet
  facet normal -0.220257 0.975442 0
    outer loop
      vertex -43.1266 -0.244718 2.5
      vertex -43.9573 -0.432273 7.03053e-016
      vertex -43.9573 -0.432273 2.5
    endloop
  endfacet
  facet normal -0.220257 0.975442 0
    outer loop
      vertex -43.9573 -0.432273 7.03053e-016
      vertex -43.1266 -0.244718 2.5
      vertex -43.1266 -0.244718 5.5969e-016
    endloop
  endfacet
  facet normal -0.0927651 0.995688 0
    outer loop
      vertex -41.3885 -0.0273914 2.5
      vertex -42.2673 -0.109262 4.24371e-016
      vertex -42.2673 -0.109262 2.5
    endloop
  endfacet
  facet normal -0.0927651 0.995688 0
    outer loop
      vertex -42.2673 -0.109262 4.24371e-016
      vertex -41.3885 -0.0273914 2.5
      vertex -41.3885 -0.0273914 2.98578e-016
    endloop
  endfacet
  facet normal -3.58201e-007 -6.0894e-007 1
    outer loop
      vertex -46.1876 -8.71572 2.5
      vertex -48.9534 -5.52264 2.5
      vertex -46.8167 -8.34565 2.5
    endloop
  endfacet
  facet normal -0.910034 0.414533 0
    outer loop
      vertex -48.8143 -3.96044 2.08125e-015
      vertex -48.584 -3.45492 2.5
      vertex -48.584 -3.45492 1.94081e-015
    endloop
  endfacet
  facet normal -0.910034 0.414533 0
    outer loop
      vertex -48.584 -3.45492 2.5
      vertex -48.8143 -3.96044 2.08125e-015
      vertex -48.8143 -3.96044 2.5
    endloop
  endfacet
  facet normal -0.96561 0.259997 0
    outer loop
      vertex -48.9534 -4.47736 2.21308e-015
      vertex -48.8143 -3.96044 2.5
      vertex -48.8143 -3.96044 2.08125e-015
    endloop
  endfacet
  facet normal -0.96561 0.259997 0
    outer loop
      vertex -48.8143 -3.96044 2.5
      vertex -48.9534 -4.47736 2.21308e-015
      vertex -48.9534 -4.47736 2.5
    endloop
  endfacet
  facet normal -0.430046 0.902807 0
    outer loop
      vertex -45.4962 -0.954915 2.5
      vertex -46.1876 -1.28428 1.16537e-015
      vertex -46.1876 -1.28428 2.5
    endloop
  endfacet
  facet normal -0.430046 0.902807 0
    outer loop
      vertex -46.1876 -1.28428 1.16537e-015
      vertex -45.4962 -0.954915 2.5
      vertex -45.4962 -0.954915 1.00756e-015
    endloop
  endfacet
  facet normal -0.356854 0.93416 0
    outer loop
      vertex -44.75 -0.669873 2.5
      vertex -45.4962 -0.954915 1.00756e-015
      vertex -45.4962 -0.954915 2.5
    endloop
  endfacet
  facet normal -0.356854 0.93416 0
    outer loop
      vertex -45.4962 -0.954915 1.00756e-015
      vertex -44.75 -0.669873 2.5
      vertex -44.75 -0.669873 8.5289e-016
    endloop
  endfacet
  facet normal -0.837459 0.5465 0
    outer loop
      vertex -48.584 -3.45492 1.94081e-015
      vertex -48.2651 -2.96632 2.5
      vertex -48.2651 -2.96632 1.79327e-015
    endloop
  endfacet
  facet normal -0.837459 0.5465 0
    outer loop
      vertex -48.2651 -2.96632 2.5
      vertex -48.584 -3.45492 1.94081e-015
      vertex -48.584 -3.45492 2.5
    endloop
  endfacet
  facet normal -0.0308145 0.999525 0
    outer loop
      vertex -40.5 4.07876e-032 1.83691e-016
      vertex -41.3885 -0.0273914 2.98578e-016
      vertex -41.3885 -0.0273914 2.5
    endloop
  endfacet
  facet normal -5.45099e-007 -7.50402e-007 1
    outer loop
      vertex -46.8167 -8.34565 2.5
      vertex -48.9534 -5.52264 2.5
      vertex -47.3766 -7.93893 2.5
    endloop
  endfacet
  facet normal 0.90097 0.433882 0
    outer loop
      vertex -45.8483 -5.52264 2.5
      vertex -46.1 -5 1.97969e-015
      vertex -46.1 -5 2.5
    endloop
  endfacet
  facet normal 0.900968 0.433886 -0
    outer loop
      vertex -45.4976 -6.25093 2.18368e-015
      vertex -45.8483 -5.52264 2.5
      vertex -45.4976 -6.25093 2.5
    endloop
  endfacet
  facet normal 0.900969 0.433884 6.00758e-007
    outer loop
      vertex -45.8483 -5.52264 2.5
      vertex -45.4976 -6.25093 2.18368e-015
      vertex -46.1 -5 1.97969e-015
    endloop
  endfacet
  facet normal 0.222521 0.974928 0
    outer loop
      vertex -44.144 -6.55988 2.5
      vertex -45.4976 -6.25093 2.18368e-015
      vertex -45.4976 -6.25093 2.5
    endloop
  endfacet
  facet normal 0.222521 0.974928 0
    outer loop
      vertex -45.4976 -6.25093 2.18368e-015
      vertex -44.144 -6.55988 2.5
      vertex -44.144 -6.55988 2.08652e-015
    endloop
  endfacet
  facet normal -1 0 0
    outer loop
      vertex -43.0584 -4.30579 1.45308e-015
      vertex -43.0584 -5.52264 2.5
      vertex -43.0584 -4.30579 2.5
    endloop
  endfacet
  facet normal -1 0 0
    outer loop
      vertex -43.0584 -5.69421 1.76137e-015
      vertex -43.0584 -5.52264 2.5
      vertex -43.0584 -4.30579 1.45308e-015
    endloop
  endfacet
  facet normal -1 -0 0
    outer loop
      vertex -43.0584 -5.52264 2.5
      vertex -43.0584 -5.69421 1.76137e-015
      vertex -43.0584 -5.69421 2.5
    endloop
  endfacet
  facet normal 0.900969 -0.433884 0
    outer loop
      vertex -46.1 -5 2.5
      vertex -45.4976 -3.74907 1.62816e-015
      vertex -45.4976 -3.74907 2.5
    endloop
  endfacet
  facet normal 0.900969 -0.433884 0
    outer loop
      vertex -45.4976 -3.74907 1.62816e-015
      vertex -46.1 -5 2.5
      vertex -46.1 -5 1.97969e-015
    endloop
  endfacet
  facet normal -0.623489 -0.781832 0
    outer loop
      vertex -44.144 -3.44012 2.5
      vertex -43.0584 -4.30579 1.45308e-015
      vertex -43.0584 -4.30579 2.5
    endloop
  endfacet
  facet normal -0.623489 -0.781832 0
    outer loop
      vertex -43.0584 -4.30579 1.45308e-015
      vertex -44.144 -3.44012 2.5
      vertex -44.144 -3.44012 1.39379e-015
    endloop
  endfacet
  facet normal -0.623489 0.781832 0
    outer loop
      vertex -43.0584 -5.69421 2.5
      vertex -44.144 -6.55988 2.08652e-015
      vertex -44.144 -6.55988 2.5
    endloop
  endfacet
  facet normal -0.623489 0.781832 0
    outer loop
      vertex -44.144 -6.55988 2.08652e-015
      vertex -43.0584 -5.69421 2.5
      vertex -43.0584 -5.69421 1.76137e-015
    endloop
  endfacet
  facet normal 0.222521 -0.974928 0
    outer loop
      vertex -45.4976 -3.74907 1.62816e-015
      vertex -44.144 -3.44012 2.5
      vertex -45.4976 -3.74907 2.5
    endloop
  endfacet
  facet normal 0.222521 -0.974928 0
    outer loop
      vertex -44.144 -3.44012 2.5
      vertex -45.4976 -3.74907 1.62816e-015
      vertex -44.144 -3.44012 1.39379e-015
    endloop
  endfacet
  facet normal -1 0 0
    outer loop
      vertex -40 0 0
      vertex -40 -9.98459 2.33948e-015
      vertex -40 -0.0154146 1.25883e-016
    endloop
  endfacet
  facet normal -1 -0 0
    outer loop
      vertex -40 -9.98459 2.33948e-015
      vertex -40 -10 2.22045e-015
      vertex -40 -9.98459 2.5
    endloop
  endfacet
  facet normal -1 0 0
    outer loop
      vertex -40 -10 2.22045e-015
      vertex -40 -9.98459 2.33948e-015
      vertex -40 0 0
    endloop
  endfacet
  facet normal -1 0 0
    outer loop
      vertex -40 -0.0154146 1.40688
      vertex -40 0 0
      vertex -40 -0.0154146 1.25883e-016
    endloop
  endfacet
  facet normal -1 0 0
    outer loop
      vertex -40 0 0
      vertex -40 -0.0154146 1.40688
      vertex -40 5.55112e-016 2.5
    endloop
  endfacet
  facet normal -1 -0 0
    outer loop
      vertex -40 5.55112e-016 2.5
      vertex -40 -0.0154146 1.40688
      vertex -40 -0.015415 2.5
    endloop
  endfacet
  facet normal -1 0 0
    outer loop
      vertex -40 -9.98459 2.5
      vertex -40 -5.52264 2.5
      vertex -40 -9.73518 2.5
    endloop
  endfacet
  facet normal -1 0 0
    outer loop
      vertex -40 -9.98459 2.5
      vertex -40 -10 2.5
      vertex -40 -5.52264 2.5
    endloop
  endfacet
  facet normal -1 0 0
    outer loop
      vertex -40 -10 2.5
      vertex -40 -9.98459 2.5
      vertex -40 -10 2.22045e-015
    endloop
  endfacet
  facet normal 0 -1 0
    outer loop
      vertex -40 -10 2.22045e-015
      vertex -35 -10 2.5
      vertex -40 -10 2.5
    endloop
  endfacet
  facet normal 0 -1 -0
    outer loop
      vertex -35 -10 2.5
      vertex -40 -10 2.22045e-015
      vertex -25 -10 2.5
    endloop
  endfacet
  facet normal 0 -1 0
    outer loop
      vertex -20 -10 2.22045e-015
      vertex -25 -10 2.5
      vertex -40 -10 2.22045e-015
    endloop
  endfacet
  facet normal 0 -1 0
    outer loop
      vertex -25 -10 2.5
      vertex -20 -10 2.22045e-015
      vertex -20 -10 2.5
    endloop
  endfacet
  facet normal 0 -1 0
    outer loop
      vertex -35 -10 2.5
      vertex -25 -10 5
      vertex -35 -10 5
    endloop
  endfacet
  facet normal 0 -1 -0
    outer loop
      vertex -25 -10 5
      vertex -35 -10 2.5
      vertex -25 -10 2.5
    endloop
  endfacet
  facet normal 0 1 -2.22045e-016
    outer loop
      vertex -20 0 0
      vertex -25 5.55112e-016 2.5
      vertex -20 5.55112e-016 2.5
    endloop
  endfacet
  facet normal 0 1 -2.22045e-016
    outer loop
      vertex -25 5.55112e-016 2.5
      vertex -20 0 0
      vertex -35 5.55112e-016 2.5
    endloop
  endfacet
  facet normal 0 1 -2.22045e-016
    outer loop
      vertex -40 0 0
      vertex -35 5.55112e-016 2.5
      vertex -20 0 0
    endloop
  endfacet
  facet normal 0 1 -2.22045e-016
    outer loop
      vertex -35 5.55112e-016 2.5
      vertex -40 0 0
      vertex -40 5.55112e-016 2.5
    endloop
  endfacet
  facet normal 0 1 -2.22045e-016
    outer loop
      vertex -25 5.55112e-016 2.5
      vertex -35 1.11022e-015 5
      vertex -25 1.11022e-015 5
    endloop
  endfacet
  facet normal 0 1 -2.22045e-016
    outer loop
      vertex -35 1.11022e-015 5
      vertex -25 5.55112e-016 2.5
      vertex -35 5.55112e-016 2.5
    endloop
  endfacet
  facet normal -1 0 0
    outer loop
      vertex -35 -10 2.5
      vertex -35 1.11022e-015 5
      vertex -35 5.55112e-016 2.5
    endloop
  endfacet
  facet normal -1 -0 0
    outer loop
      vertex -35 1.11022e-015 5
      vertex -35 -10 2.5
      vertex -35 -10 5
    endloop
  endfacet
  facet normal 1 -0 0
    outer loop
      vertex -25 -10 5
      vertex -25 5.55112e-016 2.5
      vertex -25 1.11022e-015 5
    endloop
  endfacet
  facet normal 1 0 0
    outer loop
      vertex -25 5.55112e-016 2.5
      vertex -25 -10 5
      vertex -25 -10 2.5
    endloop
  endfacet
  facet normal -0 0 1
    outer loop
      vertex -35 1.11022e-015 5
      vertex -25 -10 5
      vertex -25 1.11022e-015 5
    endloop
  endfacet
  facet normal 0 0 1
    outer loop
      vertex -25 -10 5
      vertex -35 1.11022e-015 5
      vertex -35 -10 5
    endloop
  endfacet
endsolid OpenSCAD_Model
