  0
SECTION
  2
HEADER
  9
$ACADVER
  1
AC1014
  9
$HANDSEED
  5
FFFF
  9
$MEASUREMENT
 70
     1
  0
ENDSEC
  0
SECTION
  2
TABLES
  0
TABLE
  2
VPORT
  5
8
330
0
100
AcDbSymbolTable
 70
     4
  0
VPORT
  5
2E
330
8
100
AcDbSymbolTableRecord
100
AcDbViewportTableRecord
  2
*ACTIVE
 70
     0
 10
0.0
 20
0.0
 11
1.0
 21
1.0
 12
210.0
 22
148.5
 13
0.0
 23
0.0
 14
10.0
 24
10.0
 15
10.0
 25
10.0
 16
0.0
 26
0.0
 36
1.0
 17
0.0
 27
0.0
 37
0.0
 40
341.0
 41
1.24
 42
50.0
 43
0.0
 44
0.0
 50
0.0
 51
0.0
 71
     0
 72
   100
 73
     1
 74
     3
 75
     0
 76
     0
 77
     0
 78
     0
  0
ENDTAB
  0
TABLE
  2
LTYPE
  5
5
330
0
100
AcDbSymbolTable
 70
     1
  0
LTYPE
  5
14
330
5
100
AcDbSymbolTableRecord
100
AcDbLinetypeTableRecord
  2
BYBLOCK
 70
     0
  3

 72
    65
 73
     0
 40
0.0
  0
LTYPE
  5
15
330
5
100
AcDbSymbolTableRecord
100
AcDbLinetypeTableRecord
  2
BYLAYER
 70
     0
  3

 72
    65
 73
     0
 40
0.0
  0
LTYPE
  5
16
330
5
100
AcDbSymbolTableRecord
100
AcDbLinetypeTableRecord
  2
CONTINUOUS
 70
     0
  3
Solid line
 72
    65
 73
     0
 40
0.0
  0
ENDTAB
  0
TABLE
  2
LAYER
  5
2
100
AcDbSymbolTable
 70
2
  0
LAYER
  5
50
100
AcDbSymbolTableRecord
100
AcDbLayerTableRecord
  2
0
 70
0
  6
CONTINUOUS
  0
LAYER
  5
51
100
AcDbSymbolTableRecord
100
AcDbLayerTableRecord
  2
Layer_1
 70
0
  6
CONTINUOUS
  0
ENDTAB
  0
TABLE
  2
STYLE
  5
3
330
0
100
AcDbSymbolTable
 70
     1
  0
STYLE
  5
11
330
3
100
AcDbSymbolTableRecord
100
AcDbTextStyleTableRecord
  2
STANDARD
 70
     0
 40
0.0
 41
1.0
 50
0.0
 71
     0
 42
2.5
  3
txt
  4

  0
ENDTAB
  0
TABLE
  2
VIEW
  5
6
330
0
100
AcDbSymbolTable
 70
     0
  0
ENDTAB
  0
TABLE
  2
UCS
  5
7
330
0
100
AcDbSymbolTable
 70
     0
  0
ENDTAB
  0
TABLE
  2
APPID
  5
9
330
0
100
AcDbSymbolTable
 70
     2
  0
APPID
  5
12
330
9
100
AcDbSymbolTableRecord
100
AcDbRegAppTableRecord
  2
ACAD
 70
     0
  0
ENDTAB
  0
TABLE
  2
DIMSTYLE
  5
A
330
0
100
AcDbSymbolTable
 70
     1
  0
DIMSTYLE
105
27
330
A
100
AcDbSymbolTableRecord
100
AcDbDimStyleTableRecord
  2
ISO-25
 70
     0
  3

  4

  5

  6

  7

 40
1.0
 41
2.5
 42
0.625
 43
3.75
 44
1.25
 45
0.0
 46
0.0
 47
0.0
 48
0.0
140
2.5
141
2.5
142
0.0
143
0.03937007874016
144
1.0
145
0.0
146
1.0
147
0.625
 71
     0
 72
     0
 73
     0
 74
     0
 75
     0
 76
     0
 77
     1
 78
     8
170
     0
171
     3
172
     1
173
     0
174
     0
175
     0
176
     0
177
     0
178
     0
270
     2
271
     2
272
     2
273
     2
274
     3
340
11
275
     0
280
     0
281
     0
282
     0
283
     0
284
     8
285
     0
286
     0
287
     3
288
     0
  0
ENDTAB
  0
TABLE
  2
BLOCK_RECORD
  5
1
330
0
100
AcDbSymbolTable
 70
     1
  0
BLOCK_RECORD
  5
1F
330
1
100
AcDbSymbolTableRecord
100
AcDbBlockTableRecord
  2
*MODEL_SPACE
  0
BLOCK_RECORD
  5
1B
330
1
100
AcDbSymbolTableRecord
100
AcDbBlockTableRecord
  2
*PAPER_SPACE
  0
ENDTAB
  0
ENDSEC
  0
SECTION
  2
BLOCKS
  0
BLOCK
  5
20
330
1F
100
AcDbEntity
  8
0
100
AcDbBlockBegin
  2
*MODEL_SPACE
 70
     0
 10
0.0
 20
0.0
 30
0.0
  3
*MODEL_SPACE
  1

  0
ENDBLK
  5
21
330
1F
100
AcDbEntity
  8
0
100
AcDbBlockEnd
  0
BLOCK
  5
1C
330
1B
100
AcDbEntity
 67
     1
  8
0
100
AcDbBlockBegin
  2
*PAPER_SPACE
  1

  0
ENDBLK
  5
1D
330
1B
100
AcDbEntity
 67
     1
  8
0
100
AcDbBlockEnd
  0
ENDSEC
  0
SECTION
  2
ENTITIES
  0
LWPOLYLINE
  5
100
100
AcDbEntity
  8
Layer_1
 62
7
100
AcDbPolyline
 90
4
 70
1
 10
410.051200
 20
60.251210
 30
0.0
 10
0.248798
 20
60.251210
 30
0.0
 10
0.248798
 20
0.248800
 30
0.0
 10
410.051200
 20
0.248800
 30
0.0
  0
LWPOLYLINE
  5
101
100
AcDbEntity
  8
Layer_1
 62
7
100
AcDbPolyline
 90
30
 70
1
 10
330.654600
 20
46.815010
 30
0.0
 10
330.276060
 20
46.894710
 30
0.0
 10
329.923470
 20
47.050700
 30
0.0
 10
329.610910
 20
47.276190
 30
0.0
 10
329.352320
 20
47.560980
 30
0.0
 10
329.159420
 20
47.892980
 30
0.0
 10
329.039760
 20
48.257470
 30
0.0
 10
328.999760
 20
48.638800
 30
0.0
 10
329.039760
 20
49.020200
 30
0.0
 10
329.159420
 20
49.384680
 30
0.0
 10
329.352320
 20
49.716690
 30
0.0
 10
329.610910
 20
50.001470
 30
0.0
 10
329.923470
 20
50.226590
 30
0.0
 10
330.276060
 20
50.382580
 30
0.0
 10
330.654600
 20
50.462280
 30
0.0
 10
331.040110
 20
50.462280
 30
0.0
 10
331.418650
 20
50.382580
 30
0.0
 10
331.771240
 20
50.226590
 30
0.0
 10
332.083800
 20
50.001470
 30
0.0
 10
332.342380
 20
49.716690
 30
0.0
 10
332.535290
 20
49.384680
 30
0.0
 10
332.654950
 20
49.020200
 30
0.0
 10
332.694950
 20
48.638800
 30
0.0
 10
332.654950
 20
48.257470
 30
0.0
 10
332.535290
 20
47.892980
 30
0.0
 10
332.342380
 20
47.560980
 30
0.0
 10
332.083800
 20
47.276190
 30
0.0
 10
331.771240
 20
47.050700
 30
0.0
 10
331.418650
 20
46.894710
 30
0.0
 10
331.040110
 20
46.815010
 30
0.0
  0
LWPOLYLINE
  5
102
100
AcDbEntity
  8
Layer_1
 62
7
100
AcDbPolyline
 90
30
 70
1
 10
280.715230
 20
46.815010
 30
0.0
 10
280.336680
 20
46.894710
 30
0.0
 10
279.984100
 20
47.050700
 30
0.0
 10
279.671540
 20
47.276190
 30
0.0
 10
279.412950
 20
47.560980
 30
0.0
 10
279.220050
 20
47.892980
 30
0.0
 10
279.100380
 20
48.257470
 30
0.0
 10
279.060380
 20
48.638800
 30
0.0
 10
279.100380
 20
49.020200
 30
0.0
 10
279.220050
 20
49.384680
 30
0.0
 10
279.412950
 20
49.716690
 30
0.0
 10
279.671540
 20
50.001470
 30
0.0
 10
279.984100
 20
50.226590
 30
0.0
 10
280.336680
 20
50.382580
 30
0.0
 10
280.715230
 20
50.462280
 30
0.0
 10
281.100760
 20
50.462280
 30
0.0
 10
281.479280
 20
50.382580
 30
0.0
 10
281.831860
 20
50.226590
 30
0.0
 10
282.144430
 20
50.001470
 30
0.0
 10
282.403010
 20
49.716690
 30
0.0
 10
282.595910
 20
49.384680
 30
0.0
 10
282.715570
 20
49.020200
 30
0.0
 10
282.755570
 20
48.638800
 30
0.0
 10
282.715570
 20
48.257470
 30
0.0
 10
282.595910
 20
47.892980
 30
0.0
 10
282.403010
 20
47.560980
 30
0.0
 10
282.144430
 20
47.276190
 30
0.0
 10
281.831860
 20
47.050700
 30
0.0
 10
281.479280
 20
46.894710
 30
0.0
 10
281.100760
 20
46.815010
 30
0.0
  0
LWPOLYLINE
  5
103
100
AcDbEntity
  8
Layer_1
 62
7
100
AcDbPolyline
 90
30
 70
1
 10
230.775860
 20
46.815010
 30
0.0
 10
230.397310
 20
46.894710
 30
0.0
 10
230.044730
 20
47.050700
 30
0.0
 10
229.732160
 20
47.276190
 30
0.0
 10
229.473580
 20
47.560980
 30
0.0
 10
229.280680
 20
47.892980
 30
0.0
 10
229.160630
 20
48.257470
 30
0.0
 10
229.120630
 20
48.638800
 30
0.0
 10
229.160630
 20
49.020200
 30
0.0
 10
229.280680
 20
49.384680
 30
0.0
 10
229.473580
 20
49.716690
 30
0.0
 10
229.732160
 20
50.001470
 30
0.0
 10
230.044730
 20
50.226590
 30
0.0
 10
230.397310
 20
50.382580
 30
0.0
 10
230.775860
 20
50.462280
 30
0.0
 10
231.161390
 20
50.462280
 30
0.0
 10
231.539950
 20
50.382580
 30
0.0
 10
231.892520
 20
50.226590
 30
0.0
 10
232.205090
 20
50.001470
 30
0.0
 10
232.463670
 20
49.716690
 30
0.0
 10
232.656570
 20
49.384680
 30
0.0
 10
232.776620
 20
49.020200
 30
0.0
 10
232.816620
 20
48.638800
 30
0.0
 10
232.776620
 20
48.257470
 30
0.0
 10
232.656570
 20
47.892980
 30
0.0
 10
232.463670
 20
47.560980
 30
0.0
 10
232.205090
 20
47.276190
 30
0.0
 10
231.892520
 20
47.050700
 30
0.0
 10
231.539950
 20
46.894710
 30
0.0
 10
231.161390
 20
46.815010
 30
0.0
  0
LWPOLYLINE
  5
104
100
AcDbEntity
  8
Layer_1
 62
7
100
AcDbPolyline
 90
30
 70
1
 10
59.982868
 20
42.055260
 30
0.0
 10
59.604996
 20
42.134960
 30
0.0
 10
59.252038
 20
42.290950
 30
0.0
 10
58.939474
 20
42.516440
 30
0.0
 10
58.680890
 20
42.801230
 30
0.0
 10
58.487613
 20
43.133230
 30
0.0
 10
58.368324
 20
43.497710
 30
0.0
 10
58.327934
 20
43.879040
 30
0.0
 10
58.368324
 20
44.260450
 30
0.0
 10
58.487613
 20
44.624930
 30
0.0
 10
58.680890
 20
44.956930
 30
0.0
 10
58.939474
 20
45.241720
 30
0.0
 10
59.252038
 20
45.466830
 30
0.0
 10
59.604996
 20
45.622820
 30
0.0
 10
59.982868
 20
45.702520
 30
0.0
 10
60.369196
 20
45.702520
 30
0.0
 10
60.747029
 20
45.622820
 30
0.0
 10
61.099987
 20
45.466830
 30
0.0
 10
61.412552
 20
45.241720
 30
0.0
 10
61.671136
 20
44.956930
 30
0.0
 10
61.864035
 20
44.624930
 30
0.0
 10
61.983324
 20
44.260450
 30
0.0
 10
62.023724
 20
43.879040
 30
0.0
 10
61.983324
 20
43.497710
 30
0.0
 10
61.864035
 20
43.133230
 30
0.0
 10
61.671136
 20
42.801230
 30
0.0
 10
61.412552
 20
42.516440
 30
0.0
 10
61.099987
 20
42.290950
 30
0.0
 10
60.747029
 20
42.134960
 30
0.0
 10
60.369196
 20
42.055260
 30
0.0
  0
LWPOLYLINE
  5
105
100
AcDbEntity
  8
Layer_1
 62
7
100
AcDbPolyline
 90
30
 70
1
 10
110.721660
 20
42.055260
 30
0.0
 10
110.343110
 20
42.134960
 30
0.0
 10
109.990530
 20
42.290950
 30
0.0
 10
109.677970
 20
42.516440
 30
0.0
 10
109.419380
 20
42.801230
 30
0.0
 10
109.226480
 20
43.133230
 30
0.0
 10
109.106440
 20
43.497710
 30
0.0
 10
109.066440
 20
43.879040
 30
0.0
 10
109.106440
 20
44.260450
 30
0.0
 10
109.226480
 20
44.624930
 30
0.0
 10
109.419380
 20
44.956930
 30
0.0
 10
109.677970
 20
45.241720
 30
0.0
 10
109.990530
 20
45.466830
 30
0.0
 10
110.343110
 20
45.622820
 30
0.0
 10
110.721660
 20
45.702520
 30
0.0
 10
111.107160
 20
45.702520
 30
0.0
 10
111.485710
 20
45.622820
 30
0.0
 10
111.838290
 20
45.466830
 30
0.0
 10
112.150850
 20
45.241720
 30
0.0
 10
112.409440
 20
44.956930
 30
0.0
 10
112.602340
 20
44.624930
 30
0.0
 10
112.722380
 20
44.260450
 30
0.0
 10
112.762380
 20
43.879040
 30
0.0
 10
112.722380
 20
43.497710
 30
0.0
 10
112.602340
 20
43.133230
 30
0.0
 10
112.409440
 20
42.801230
 30
0.0
 10
112.150850
 20
42.516440
 30
0.0
 10
111.838290
 20
42.290950
 30
0.0
 10
111.485710
 20
42.134960
 30
0.0
 10
111.107160
 20
42.055260
 30
0.0
  0
LWPOLYLINE
  5
106
100
AcDbEntity
  8
Layer_1
 62
7
100
AcDbPolyline
 90
4
 70
1
 10
233.965010
 20
19.882700
 30
0.0
 10
233.965010
 20
42.689770
 30
0.0
 10
329.848580
 20
42.689770
 30
0.0
 10
329.848580
 20
19.882700
 30
0.0
  0
LWPOLYLINE
  5
107
100
AcDbEntity
  8
Layer_1
 62
7
100
AcDbPolyline
 90
4
 70
1
 10
55.182083
 20
20.576810
 30
0.0
 10
55.182083
 20
38.425830
 30
0.0
 10
113.111730
 20
38.425830
 30
0.0
 10
113.111730
 20
20.576810
 30
0.0
  0
LWPOLYLINE
  5
108
100
AcDbEntity
  8
Layer_1
 62
7
100
AcDbPolyline
 90
30
 70
1
 10
110.721660
 20
12.306910
 30
0.0
 10
110.343110
 20
12.386610
 30
0.0
 10
109.990530
 20
12.542600
 30
0.0
 10
109.677970
 20
12.768090
 30
0.0
 10
109.419380
 20
13.052880
 30
0.0
 10
109.226480
 20
13.384880
 30
0.0
 10
109.106440
 20
13.749360
 30
0.0
 10
109.066440
 20
14.130690
 30
0.0
 10
109.106440
 20
14.512100
 30
0.0
 10
109.226480
 20
14.876580
 30
0.0
 10
109.419380
 20
15.208580
 30
0.0
 10
109.677970
 20
15.493370
 30
0.0
 10
109.990530
 20
15.718480
 30
0.0
 10
110.343110
 20
15.874470
 30
0.0
 10
110.721660
 20
15.954170
 30
0.0
 10
111.107160
 20
15.954170
 30
0.0
 10
111.485710
 20
15.874470
 30
0.0
 10
111.838290
 20
15.718480
 30
0.0
 10
112.150850
 20
15.493370
 30
0.0
 10
112.409440
 20
15.208580
 30
0.0
 10
112.602340
 20
14.876580
 30
0.0
 10
112.722380
 20
14.512100
 30
0.0
 10
112.762380
 20
14.130690
 30
0.0
 10
112.722380
 20
13.749360
 30
0.0
 10
112.602340
 20
13.384880
 30
0.0
 10
112.409440
 20
13.052880
 30
0.0
 10
112.150850
 20
12.768090
 30
0.0
 10
111.838290
 20
12.542600
 30
0.0
 10
111.485710
 20
12.386610
 30
0.0
 10
111.107160
 20
12.306910
 30
0.0
  0
LWPOLYLINE
  5
109
100
AcDbEntity
  8
Layer_1
 62
7
100
AcDbPolyline
 90
30
 70
1
 10
59.982868
 20
12.306910
 30
0.0
 10
59.604996
 20
12.386610
 30
0.0
 10
59.252038
 20
12.542600
 30
0.0
 10
58.939474
 20
12.768090
 30
0.0
 10
58.680890
 20
13.052880
 30
0.0
 10
58.487613
 20
13.384880
 30
0.0
 10
58.368324
 20
13.749360
 30
0.0
 10
58.327934
 20
14.130690
 30
0.0
 10
58.368324
 20
14.512100
 30
0.0
 10
58.487613
 20
14.876580
 30
0.0
 10
58.680890
 20
15.208580
 30
0.0
 10
58.939474
 20
15.493370
 30
0.0
 10
59.252038
 20
15.718480
 30
0.0
 10
59.604996
 20
15.874470
 30
0.0
 10
59.982868
 20
15.954170
 30
0.0
 10
60.369196
 20
15.954170
 30
0.0
 10
60.747029
 20
15.874470
 30
0.0
 10
61.099987
 20
15.718480
 30
0.0
 10
61.412552
 20
15.493370
 30
0.0
 10
61.671136
 20
15.208580
 30
0.0
 10
61.864035
 20
14.876580
 30
0.0
 10
61.983324
 20
14.512100
 30
0.0
 10
62.023724
 20
14.130690
 30
0.0
 10
61.983324
 20
13.749360
 30
0.0
 10
61.864035
 20
13.384880
 30
0.0
 10
61.671136
 20
13.052880
 30
0.0
 10
61.412552
 20
12.768090
 30
0.0
 10
61.099987
 20
12.542600
 30
0.0
 10
60.747029
 20
12.386610
 30
0.0
 10
60.369196
 20
12.306910
 30
0.0
  0
LWPOLYLINE
  5
10a
100
AcDbEntity
  8
Layer_1
 62
7
100
AcDbPolyline
 90
30
 70
1
 10
330.654600
 20
12.108620
 30
0.0
 10
330.276060
 20
12.188320
 30
0.0
 10
329.923470
 20
12.344320
 30
0.0
 10
329.610910
 20
12.569800
 30
0.0
 10
329.352320
 20
12.854590
 30
0.0
 10
329.159420
 20
13.186590
 30
0.0
 10
329.039760
 20
13.551460
 30
0.0
 10
328.999760
 20
13.932790
 30
0.0
 10
329.039760
 20
14.314150
 30
0.0
 10
329.159420
 20
14.679010
 30
0.0
 10
329.352320
 20
15.011020
 30
0.0
 10
329.610910
 20
15.295800
 30
0.0
 10
329.923470
 20
15.520920
 30
0.0
 10
330.276060
 20
15.676910
 30
0.0
 10
330.654600
 20
15.756610
 30
0.0
 10
331.040110
 20
15.756610
 30
0.0
 10
331.418650
 20
15.676910
 30
0.0
 10
331.771240
 20
15.520920
 30
0.0
 10
332.083800
 20
15.295800
 30
0.0
 10
332.342380
 20
15.011020
 30
0.0
 10
332.535290
 20
14.679010
 30
0.0
 10
332.654950
 20
14.314150
 30
0.0
 10
332.694950
 20
13.932790
 30
0.0
 10
332.654950
 20
13.551460
 30
0.0
 10
332.535290
 20
13.186590
 30
0.0
 10
332.342380
 20
12.854590
 30
0.0
 10
332.083800
 20
12.569800
 30
0.0
 10
331.771240
 20
12.344320
 30
0.0
 10
331.418650
 20
12.188320
 30
0.0
 10
331.040110
 20
12.108620
 30
0.0
  0
LWPOLYLINE
  5
10b
100
AcDbEntity
  8
Layer_1
 62
7
100
AcDbPolyline
 90
30
 70
1
 10
280.715230
 20
12.108620
 30
0.0
 10
280.336680
 20
12.188320
 30
0.0
 10
279.984100
 20
12.344320
 30
0.0
 10
279.671540
 20
12.569800
 30
0.0
 10
279.412950
 20
12.854590
 30
0.0
 10
279.220050
 20
13.186590
 30
0.0
 10
279.100380
 20
13.551460
 30
0.0
 10
279.060380
 20
13.932790
 30
0.0
 10
279.100380
 20
14.314150
 30
0.0
 10
279.220050
 20
14.679010
 30
0.0
 10
279.412950
 20
15.011020
 30
0.0
 10
279.671540
 20
15.295800
 30
0.0
 10
279.984100
 20
15.520920
 30
0.0
 10
280.336680
 20
15.676910
 30
0.0
 10
280.715230
 20
15.756610
 30
0.0
 10
281.100760
 20
15.756610
 30
0.0
 10
281.479280
 20
15.676910
 30
0.0
 10
281.831860
 20
15.520920
 30
0.0
 10
282.144430
 20
15.295800
 30
0.0
 10
282.403010
 20
15.011020
 30
0.0
 10
282.595910
 20
14.679010
 30
0.0
 10
282.715570
 20
14.314150
 30
0.0
 10
282.755570
 20
13.932790
 30
0.0
 10
282.715570
 20
13.551460
 30
0.0
 10
282.595910
 20
13.186590
 30
0.0
 10
282.403010
 20
12.854590
 30
0.0
 10
282.144430
 20
12.569800
 30
0.0
 10
281.831860
 20
12.344320
 30
0.0
 10
281.479280
 20
12.188320
 30
0.0
 10
281.100760
 20
12.108620
 30
0.0
  0
LWPOLYLINE
  5
10c
100
AcDbEntity
  8
Layer_1
 62
7
100
AcDbPolyline
 90
30
 70
1
 10
230.775860
 20
12.108620
 30
0.0
 10
230.397310
 20
12.188320
 30
0.0
 10
230.044730
 20
12.344320
 30
0.0
 10
229.732160
 20
12.569800
 30
0.0
 10
229.473580
 20
12.854590
 30
0.0
 10
229.280680
 20
13.186590
 30
0.0
 10
229.160630
 20
13.551460
 30
0.0
 10
229.120630
 20
13.932790
 30
0.0
 10
229.160630
 20
14.314150
 30
0.0
 10
229.280680
 20
14.679010
 30
0.0
 10
229.473580
 20
15.011020
 30
0.0
 10
229.732160
 20
15.295800
 30
0.0
 10
230.044730
 20
15.520920
 30
0.0
 10
230.397310
 20
15.676910
 30
0.0
 10
230.775860
 20
15.756610
 30
0.0
 10
231.161390
 20
15.756610
 30
0.0
 10
231.539950
 20
15.676910
 30
0.0
 10
231.892520
 20
15.520920
 30
0.0
 10
232.205090
 20
15.295800
 30
0.0
 10
232.463670
 20
15.011020
 30
0.0
 10
232.656570
 20
14.679010
 30
0.0
 10
232.776620
 20
14.314150
 30
0.0
 10
232.816620
 20
13.932790
 30
0.0
 10
232.776620
 20
13.551460
 30
0.0
 10
232.656570
 20
13.186590
 30
0.0
 10
232.463670
 20
12.854590
 30
0.0
 10
232.205090
 20
12.569800
 30
0.0
 10
231.892520
 20
12.344320
 30
0.0
 10
231.539950
 20
12.188320
 30
0.0
 10
231.161390
 20
12.108620
 30
0.0
  0
ENDSEC
  0
SECTION
  2
OBJECTS
  0
DICTIONARY
  5
C
330
0
100
AcDbDictionary
  3
ACAD_GROUP
350
D
  3
ACAD_MLINESTYLE
350
17
  0
DICTIONARY
  5
D
330
C
100
AcDbDictionary
  0
DICTIONARY
  5
1A
330
C
100
AcDbDictionary
  0
DICTIONARY
  5
17
330
C
100
AcDbDictionary
  3
STANDARD
350
18
  0
DICTIONARY
  5
19
330
C
100
AcDbDictionary
  0
ENDSEC
  0
EOF
