  0
SECTION
  2
HEADER
  9
$ACADVER
  1
AC1014
  9
$HANDSEED
  5
FFFF
  9
$MEASUREMENT
 70
     1
  0
ENDSEC
  0
SECTION
  2
TABLES
  0
TABLE
  2
VPORT
  5
8
330
0
100
AcDbSymbolTable
 70
     4
  0
VPORT
  5
2E
330
8
100
AcDbSymbolTableRecord
100
AcDbViewportTableRecord
  2
*ACTIVE
 70
     0
 10
0.0
 20
0.0
 11
1.0
 21
1.0
 12
210.0
 22
148.5
 13
0.0
 23
0.0
 14
10.0
 24
10.0
 15
10.0
 25
10.0
 16
0.0
 26
0.0
 36
1.0
 17
0.0
 27
0.0
 37
0.0
 40
341.0
 41
1.24
 42
50.0
 43
0.0
 44
0.0
 50
0.0
 51
0.0
 71
     0
 72
   100
 73
     1
 74
     3
 75
     0
 76
     0
 77
     0
 78
     0
  0
ENDTAB
  0
TABLE
  2
LTYPE
  5
5
330
0
100
AcDbSymbolTable
 70
     1
  0
LTYPE
  5
14
330
5
100
AcDbSymbolTableRecord
100
AcDbLinetypeTableRecord
  2
BYBLOCK
 70
     0
  3

 72
    65
 73
     0
 40
0.0
  0
LTYPE
  5
15
330
5
100
AcDbSymbolTableRecord
100
AcDbLinetypeTableRecord
  2
BYLAYER
 70
     0
  3

 72
    65
 73
     0
 40
0.0
  0
LTYPE
  5
16
330
5
100
AcDbSymbolTableRecord
100
AcDbLinetypeTableRecord
  2
CONTINUOUS
 70
     0
  3
Solid line
 72
    65
 73
     0
 40
0.0
  0
ENDTAB
  0
TABLE
  2
LAYER
  5
2
100
AcDbSymbolTable
 70
2
  0
LAYER
  5
50
100
AcDbSymbolTableRecord
100
AcDbLayerTableRecord
  2
0
 70
0
  6
CONTINUOUS
  0
LAYER
  5
51
100
AcDbSymbolTableRecord
100
AcDbLayerTableRecord
  2
Layer_1
 70
0
  6
CONTINUOUS
  0
ENDTAB
  0
TABLE
  2
STYLE
  5
3
330
0
100
AcDbSymbolTable
 70
     1
  0
STYLE
  5
11
330
3
100
AcDbSymbolTableRecord
100
AcDbTextStyleTableRecord
  2
STANDARD
 70
     0
 40
0.0
 41
1.0
 50
0.0
 71
     0
 42
2.5
  3
txt
  4

  0
ENDTAB
  0
TABLE
  2
VIEW
  5
6
330
0
100
AcDbSymbolTable
 70
     0
  0
ENDTAB
  0
TABLE
  2
UCS
  5
7
330
0
100
AcDbSymbolTable
 70
     0
  0
ENDTAB
  0
TABLE
  2
APPID
  5
9
330
0
100
AcDbSymbolTable
 70
     2
  0
APPID
  5
12
330
9
100
AcDbSymbolTableRecord
100
AcDbRegAppTableRecord
  2
ACAD
 70
     0
  0
ENDTAB
  0
TABLE
  2
DIMSTYLE
  5
A
330
0
100
AcDbSymbolTable
 70
     1
  0
DIMSTYLE
105
27
330
A
100
AcDbSymbolTableRecord
100
AcDbDimStyleTableRecord
  2
ISO-25
 70
     0
  3

  4

  5

  6

  7

 40
1.0
 41
2.5
 42
0.625
 43
3.75
 44
1.25
 45
0.0
 46
0.0
 47
0.0
 48
0.0
140
2.5
141
2.5
142
0.0
143
0.03937007874016
144
1.0
145
0.0
146
1.0
147
0.625
 71
     0
 72
     0
 73
     0
 74
     0
 75
     0
 76
     0
 77
     1
 78
     8
170
     0
171
     3
172
     1
173
     0
174
     0
175
     0
176
     0
177
     0
178
     0
270
     2
271
     2
272
     2
273
     2
274
     3
340
11
275
     0
280
     0
281
     0
282
     0
283
     0
284
     8
285
     0
286
     0
287
     3
288
     0
  0
ENDTAB
  0
TABLE
  2
BLOCK_RECORD
  5
1
330
0
100
AcDbSymbolTable
 70
     1
  0
BLOCK_RECORD
  5
1F
330
1
100
AcDbSymbolTableRecord
100
AcDbBlockTableRecord
  2
*MODEL_SPACE
  0
BLOCK_RECORD
  5
1B
330
1
100
AcDbSymbolTableRecord
100
AcDbBlockTableRecord
  2
*PAPER_SPACE
  0
ENDTAB
  0
ENDSEC
  0
SECTION
  2
BLOCKS
  0
BLOCK
  5
20
330
1F
100
AcDbEntity
  8
0
100
AcDbBlockBegin
  2
*MODEL_SPACE
 70
     0
 10
0.0
 20
0.0
 30
0.0
  3
*MODEL_SPACE
  1

  0
ENDBLK
  5
21
330
1F
100
AcDbEntity
  8
0
100
AcDbBlockEnd
  0
BLOCK
  5
1C
330
1B
100
AcDbEntity
 67
     1
  8
0
100
AcDbBlockBegin
  2
*PAPER_SPACE
  1

  0
ENDBLK
  5
1D
330
1B
100
AcDbEntity
 67
     1
  8
0
100
AcDbBlockEnd
  0
ENDSEC
  0
SECTION
  2
ENTITIES
  0
LWPOLYLINE
  5
100
100
AcDbEntity
  8
Layer_1
 62
7
100
AcDbPolyline
 90
4
 70
1
 10
410.051180
 20
60.251190
 30
0.0
 10
0.248819
 20
60.251190
 30
0.0
 10
0.248819
 20
0.248820
 30
0.0
 10
410.051180
 20
0.248820
 30
0.0
  0
LWPOLYLINE
  5
101
100
AcDbEntity
  8
Layer_1
 62
7
100
AcDbPolyline
 90
30
 70
1
 10
161.859580
 20
44.045660
 30
0.0
 10
161.481030
 20
44.125360
 30
0.0
 10
161.128460
 20
44.281380
 30
0.0
 10
160.815890
 20
44.506910
 30
0.0
 10
160.557300
 20
44.791740
 30
0.0
 10
160.364410
 20
45.123800
 30
0.0
 10
160.244740
 20
45.488340
 30
0.0
 10
160.204740
 20
45.869810
 30
0.0
 10
160.244740
 20
46.251240
 30
0.0
 10
160.364410
 20
46.615780
 30
0.0
 10
160.557300
 20
46.947840
 30
0.0
 10
160.815890
 20
47.232680
 30
0.0
 10
161.128460
 20
47.457820
 30
0.0
 10
161.481030
 20
47.613840
 30
0.0
 10
161.859580
 20
47.693540
 30
0.0
 10
162.245120
 20
47.693540
 30
0.0
 10
162.623630
 20
47.613840
 30
0.0
 10
162.976220
 20
47.457820
 30
0.0
 10
163.288780
 20
47.232680
 30
0.0
 10
163.547360
 20
46.947840
 30
0.0
 10
163.740260
 20
46.615780
 30
0.0
 10
163.859930
 20
46.251240
 30
0.0
 10
163.899930
 20
45.869810
 30
0.0
 10
163.859930
 20
45.488340
 30
0.0
 10
163.740260
 20
45.123800
 30
0.0
 10
163.547360
 20
44.791740
 30
0.0
 10
163.288780
 20
44.506910
 30
0.0
 10
162.976220
 20
44.281380
 30
0.0
 10
162.623630
 20
44.125360
 30
0.0
 10
162.245120
 20
44.045660
 30
0.0
  0
LWPOLYLINE
  5
102
100
AcDbEntity
  8
Layer_1
 62
7
100
AcDbPolyline
 90
30
 70
1
 10
61.980469
 20
44.045660
 30
0.0
 10
61.602635
 20
44.125360
 30
0.0
 10
61.249678
 20
44.281380
 30
0.0
 10
60.937113
 20
44.506910
 30
0.0
 10
60.678529
 20
44.791740
 30
0.0
 10
60.485252
 20
45.123800
 30
0.0
 10
60.365964
 20
45.488340
 30
0.0
 10
60.325564
 20
45.869810
 30
0.0
 10
60.365964
 20
46.251240
 30
0.0
 10
60.485252
 20
46.615780
 30
0.0
 10
60.678529
 20
46.947840
 30
0.0
 10
60.937113
 20
47.232680
 30
0.0
 10
61.249678
 20
47.457820
 30
0.0
 10
61.602635
 20
47.613840
 30
0.0
 10
61.980469
 20
47.693540
 30
0.0
 10
62.366797
 20
47.693540
 30
0.0
 10
62.744631
 20
47.613840
 30
0.0
 10
63.097589
 20
47.457820
 30
0.0
 10
63.410153
 20
47.232680
 30
0.0
 10
63.668737
 20
46.947840
 30
0.0
 10
63.861636
 20
46.615780
 30
0.0
 10
63.981303
 20
46.251240
 30
0.0
 10
64.021693
 20
45.869810
 30
0.0
 10
63.981303
 20
45.488340
 30
0.0
 10
63.861636
 20
45.123800
 30
0.0
 10
63.668737
 20
44.791740
 30
0.0
 10
63.410153
 20
44.506910
 30
0.0
 10
63.097589
 20
44.281380
 30
0.0
 10
62.744631
 20
44.125360
 30
0.0
 10
62.366797
 20
44.045660
 30
0.0
  0
LWPOLYLINE
  5
103
100
AcDbEntity
  8
Layer_1
 62
7
100
AcDbPolyline
 90
30
 70
1
 10
231.774670
 20
44.045660
 30
0.0
 10
231.396120
 20
44.125360
 30
0.0
 10
231.043540
 20
44.281380
 30
0.0
 10
230.730970
 20
44.506910
 30
0.0
 10
230.472390
 20
44.791740
 30
0.0
 10
230.279490
 20
45.123800
 30
0.0
 10
230.159820
 20
45.488340
 30
0.0
 10
230.119820
 20
45.869810
 30
0.0
 10
230.159820
 20
46.251240
 30
0.0
 10
230.279490
 20
46.615780
 30
0.0
 10
230.472390
 20
46.947840
 30
0.0
 10
230.730970
 20
47.232680
 30
0.0
 10
231.043540
 20
47.457820
 30
0.0
 10
231.396120
 20
47.613840
 30
0.0
 10
231.774670
 20
47.693540
 30
0.0
 10
232.160200
 20
47.693540
 30
0.0
 10
232.538760
 20
47.613840
 30
0.0
 10
232.891330
 20
47.457820
 30
0.0
 10
233.203900
 20
47.232680
 30
0.0
 10
233.462480
 20
46.947840
 30
0.0
 10
233.655380
 20
46.615780
 30
0.0
 10
233.775050
 20
46.251240
 30
0.0
 10
233.815050
 20
45.869810
 30
0.0
 10
233.775050
 20
45.488340
 30
0.0
 10
233.655380
 20
45.123800
 30
0.0
 10
233.462480
 20
44.791740
 30
0.0
 10
233.203900
 20
44.506910
 30
0.0
 10
232.891330
 20
44.281380
 30
0.0
 10
232.538760
 20
44.125360
 30
0.0
 10
232.160200
 20
44.045660
 30
0.0
  0
LWPOLYLINE
  5
104
100
AcDbEntity
  8
Layer_1
 62
7
100
AcDbPolyline
 90
30
 70
1
 10
281.714040
 20
44.045660
 30
0.0
 10
281.335490
 20
44.125360
 30
0.0
 10
280.982910
 20
44.281380
 30
0.0
 10
280.670340
 20
44.506910
 30
0.0
 10
280.411750
 20
44.791740
 30
0.0
 10
280.218860
 20
45.123800
 30
0.0
 10
280.098820
 20
45.488340
 30
0.0
 10
280.058820
 20
45.869810
 30
0.0
 10
280.098820
 20
46.251240
 30
0.0
 10
280.218860
 20
46.615780
 30
0.0
 10
280.411750
 20
46.947840
 30
0.0
 10
280.670340
 20
47.232680
 30
0.0
 10
280.982910
 20
47.457820
 30
0.0
 10
281.335490
 20
47.613840
 30
0.0
 10
281.714040
 20
47.693540
 30
0.0
 10
282.099570
 20
47.693540
 30
0.0
 10
282.478090
 20
47.613840
 30
0.0
 10
282.830670
 20
47.457820
 30
0.0
 10
283.143230
 20
47.232680
 30
0.0
 10
283.401810
 20
46.947840
 30
0.0
 10
283.594720
 20
46.615780
 30
0.0
 10
283.714760
 20
46.251240
 30
0.0
 10
283.754760
 20
45.869810
 30
0.0
 10
283.714760
 20
45.488340
 30
0.0
 10
283.594720
 20
45.123800
 30
0.0
 10
283.401810
 20
44.791740
 30
0.0
 10
283.143230
 20
44.506910
 30
0.0
 10
282.830670
 20
44.281380
 30
0.0
 10
282.478090
 20
44.125360
 30
0.0
 10
282.099570
 20
44.045660
 30
0.0
  0
LWPOLYLINE
  5
105
100
AcDbEntity
  8
Layer_1
 62
7
100
AcDbPolyline
 90
30
 70
1
 10
111.920220
 20
44.045660
 30
0.0
 10
111.541660
 20
44.125360
 30
0.0
 10
111.189090
 20
44.281380
 30
0.0
 10
110.876520
 20
44.506910
 30
0.0
 10
110.617930
 20
44.791740
 30
0.0
 10
110.425040
 20
45.123800
 30
0.0
 10
110.304990
 20
45.488340
 30
0.0
 10
110.264990
 20
45.869810
 30
0.0
 10
110.304990
 20
46.251240
 30
0.0
 10
110.425040
 20
46.615780
 30
0.0
 10
110.617930
 20
46.947840
 30
0.0
 10
110.876520
 20
47.232680
 30
0.0
 10
111.189090
 20
47.457820
 30
0.0
 10
111.541660
 20
47.613840
 30
0.0
 10
111.920220
 20
47.693540
 30
0.0
 10
112.305750
 20
47.693540
 30
0.0
 10
112.684300
 20
47.613840
 30
0.0
 10
113.036880
 20
47.457820
 30
0.0
 10
113.349440
 20
47.232680
 30
0.0
 10
113.608030
 20
46.947840
 30
0.0
 10
113.800930
 20
46.615780
 30
0.0
 10
113.920600
 20
46.251240
 30
0.0
 10
113.960600
 20
45.869810
 30
0.0
 10
113.920600
 20
45.488340
 30
0.0
 10
113.800930
 20
45.123800
 30
0.0
 10
113.608030
 20
44.791740
 30
0.0
 10
113.349440
 20
44.506910
 30
0.0
 10
113.036880
 20
44.281380
 30
0.0
 10
112.684300
 20
44.125360
 30
0.0
 10
112.305750
 20
44.045660
 30
0.0
  0
LWPOLYLINE
  5
106
100
AcDbEntity
  8
Layer_1
 62
7
100
AcDbPolyline
 90
30
 70
1
 10
331.653370
 20
44.045660
 30
0.0
 10
331.274860
 20
44.125360
 30
0.0
 10
330.922270
 20
44.281380
 30
0.0
 10
330.609710
 20
44.506910
 30
0.0
 10
330.351130
 20
44.791740
 30
0.0
 10
330.158220
 20
45.123800
 30
0.0
 10
330.038560
 20
45.488340
 30
0.0
 10
329.998560
 20
45.869810
 30
0.0
 10
330.038560
 20
46.251240
 30
0.0
 10
330.158220
 20
46.615780
 30
0.0
 10
330.351130
 20
46.947840
 30
0.0
 10
330.609710
 20
47.232680
 30
0.0
 10
330.922270
 20
47.457820
 30
0.0
 10
331.274860
 20
47.613840
 30
0.0
 10
331.653370
 20
47.693540
 30
0.0
 10
332.038910
 20
47.693540
 30
0.0
 10
332.417450
 20
47.613840
 30
0.0
 10
332.770030
 20
47.457820
 30
0.0
 10
333.082600
 20
47.232680
 30
0.0
 10
333.341180
 20
46.947840
 30
0.0
 10
333.534080
 20
46.615780
 30
0.0
 10
333.653740
 20
46.251240
 30
0.0
 10
333.693740
 20
45.869810
 30
0.0
 10
333.653740
 20
45.488340
 30
0.0
 10
333.534080
 20
45.123800
 30
0.0
 10
333.341180
 20
44.791740
 30
0.0
 10
333.082600
 20
44.506910
 30
0.0
 10
332.770030
 20
44.281380
 30
0.0
 10
332.417450
 20
44.125360
 30
0.0
 10
332.038910
 20
44.045660
 30
0.0
  0
LWPOLYLINE
  5
107
100
AcDbEntity
  8
Layer_1
 62
7
100
AcDbPolyline
 90
4
 70
1
 10
234.963820
 20
17.108980
 30
0.0
 10
234.963820
 20
39.919810
 30
0.0
 10
330.847380
 20
39.919810
 30
0.0
 10
330.847380
 20
17.108980
 30
0.0
  0
LWPOLYLINE
  5
108
100
AcDbEntity
  8
Layer_1
 62
7
100
AcDbPolyline
 90
4
 70
1
 10
65.169994
 20
17.108980
 30
0.0
 10
65.169994
 20
39.919810
 30
0.0
 10
161.053560
 20
39.919810
 30
0.0
 10
161.053560
 20
17.108980
 30
0.0
  0
LWPOLYLINE
  5
109
100
AcDbEntity
  8
Layer_1
 62
7
100
AcDbPolyline
 90
30
 70
1
 10
331.653370
 20
9.333570
 30
0.0
 10
331.274860
 20
9.413270
 30
0.0
 10
330.922270
 20
9.569280
 30
0.0
 10
330.609710
 20
9.794430
 30
0.0
 10
330.351130
 20
10.079270
 30
0.0
 10
330.158220
 20
10.411320
 30
0.0
 10
330.038560
 20
10.775870
 30
0.0
 10
329.998560
 20
11.157300
 30
0.0
 10
330.038560
 20
11.538730
 30
0.0
 10
330.158220
 20
11.903650
 30
0.0
 10
330.351130
 20
12.235710
 30
0.0
 10
330.609710
 20
12.520540
 30
0.0
 10
330.922270
 20
12.745690
 30
0.0
 10
331.274860
 20
12.901710
 30
0.0
 10
331.653370
 20
12.981410
 30
0.0
 10
332.038910
 20
12.981410
 30
0.0
 10
332.417450
 20
12.901710
 30
0.0
 10
332.770030
 20
12.745690
 30
0.0
 10
333.082600
 20
12.520540
 30
0.0
 10
333.341180
 20
12.235710
 30
0.0
 10
333.534080
 20
11.903650
 30
0.0
 10
333.653740
 20
11.538730
 30
0.0
 10
333.693740
 20
11.157300
 30
0.0
 10
333.653740
 20
10.775870
 30
0.0
 10
333.534080
 20
10.411320
 30
0.0
 10
333.341180
 20
10.079270
 30
0.0
 10
333.082600
 20
9.794430
 30
0.0
 10
332.770030
 20
9.569280
 30
0.0
 10
332.417450
 20
9.413270
 30
0.0
 10
332.038910
 20
9.333570
 30
0.0
  0
LWPOLYLINE
  5
10a
100
AcDbEntity
  8
Layer_1
 62
7
100
AcDbPolyline
 90
30
 70
1
 10
231.774670
 20
9.333570
 30
0.0
 10
231.396120
 20
9.413270
 30
0.0
 10
231.043540
 20
9.569280
 30
0.0
 10
230.730970
 20
9.794430
 30
0.0
 10
230.472390
 20
10.079270
 30
0.0
 10
230.279490
 20
10.411320
 30
0.0
 10
230.159820
 20
10.775870
 30
0.0
 10
230.119820
 20
11.157300
 30
0.0
 10
230.159820
 20
11.538730
 30
0.0
 10
230.279490
 20
11.903650
 30
0.0
 10
230.472390
 20
12.235710
 30
0.0
 10
230.730970
 20
12.520540
 30
0.0
 10
231.043540
 20
12.745690
 30
0.0
 10
231.396120
 20
12.901710
 30
0.0
 10
231.774670
 20
12.981410
 30
0.0
 10
232.160200
 20
12.981410
 30
0.0
 10
232.538760
 20
12.901710
 30
0.0
 10
232.891330
 20
12.745690
 30
0.0
 10
233.203900
 20
12.520540
 30
0.0
 10
233.462480
 20
12.235710
 30
0.0
 10
233.655380
 20
11.903650
 30
0.0
 10
233.775050
 20
11.538730
 30
0.0
 10
233.815050
 20
11.157300
 30
0.0
 10
233.775050
 20
10.775870
 30
0.0
 10
233.655380
 20
10.411320
 30
0.0
 10
233.462480
 20
10.079270
 30
0.0
 10
233.203900
 20
9.794430
 30
0.0
 10
232.891330
 20
9.569280
 30
0.0
 10
232.538760
 20
9.413270
 30
0.0
 10
232.160200
 20
9.333570
 30
0.0
  0
LWPOLYLINE
  5
10b
100
AcDbEntity
  8
Layer_1
 62
7
100
AcDbPolyline
 90
30
 70
1
 10
61.980469
 20
9.333570
 30
0.0
 10
61.602635
 20
9.413270
 30
0.0
 10
61.249678
 20
9.569280
 30
0.0
 10
60.937113
 20
9.794430
 30
0.0
 10
60.678529
 20
10.079270
 30
0.0
 10
60.485252
 20
10.411320
 30
0.0
 10
60.365964
 20
10.775870
 30
0.0
 10
60.325564
 20
11.157300
 30
0.0
 10
60.365964
 20
11.538730
 30
0.0
 10
60.485252
 20
11.903650
 30
0.0
 10
60.678529
 20
12.235710
 30
0.0
 10
60.937113
 20
12.520540
 30
0.0
 10
61.249678
 20
12.745690
 30
0.0
 10
61.602635
 20
12.901710
 30
0.0
 10
61.980469
 20
12.981410
 30
0.0
 10
62.366797
 20
12.981410
 30
0.0
 10
62.744631
 20
12.901710
 30
0.0
 10
63.097589
 20
12.745690
 30
0.0
 10
63.410153
 20
12.520540
 30
0.0
 10
63.668737
 20
12.235710
 30
0.0
 10
63.861636
 20
11.903650
 30
0.0
 10
63.981303
 20
11.538730
 30
0.0
 10
64.021693
 20
11.157300
 30
0.0
 10
63.981303
 20
10.775870
 30
0.0
 10
63.861636
 20
10.411320
 30
0.0
 10
63.668737
 20
10.079270
 30
0.0
 10
63.410153
 20
9.794430
 30
0.0
 10
63.097589
 20
9.569280
 30
0.0
 10
62.744631
 20
9.413270
 30
0.0
 10
62.366797
 20
9.333570
 30
0.0
  0
LWPOLYLINE
  5
10c
100
AcDbEntity
  8
Layer_1
 62
7
100
AcDbPolyline
 90
30
 70
1
 10
161.859580
 20
9.333570
 30
0.0
 10
161.481030
 20
9.413270
 30
0.0
 10
161.128460
 20
9.569280
 30
0.0
 10
160.815890
 20
9.794430
 30
0.0
 10
160.557300
 20
10.079270
 30
0.0
 10
160.364410
 20
10.411320
 30
0.0
 10
160.244740
 20
10.775870
 30
0.0
 10
160.204740
 20
11.157300
 30
0.0
 10
160.244740
 20
11.538730
 30
0.0
 10
160.364410
 20
11.903650
 30
0.0
 10
160.557300
 20
12.235710
 30
0.0
 10
160.815890
 20
12.520540
 30
0.0
 10
161.128460
 20
12.745690
 30
0.0
 10
161.481030
 20
12.901710
 30
0.0
 10
161.859580
 20
12.981410
 30
0.0
 10
162.245120
 20
12.981410
 30
0.0
 10
162.623630
 20
12.901710
 30
0.0
 10
162.976220
 20
12.745690
 30
0.0
 10
163.288780
 20
12.520540
 30
0.0
 10
163.547360
 20
12.235710
 30
0.0
 10
163.740260
 20
11.903650
 30
0.0
 10
163.859930
 20
11.538730
 30
0.0
 10
163.899930
 20
11.157300
 30
0.0
 10
163.859930
 20
10.775870
 30
0.0
 10
163.740260
 20
10.411320
 30
0.0
 10
163.547360
 20
10.079270
 30
0.0
 10
163.288780
 20
9.794430
 30
0.0
 10
162.976220
 20
9.569280
 30
0.0
 10
162.623630
 20
9.413270
 30
0.0
 10
162.245120
 20
9.333570
 30
0.0
  0
LWPOLYLINE
  5
10d
100
AcDbEntity
  8
Layer_1
 62
7
100
AcDbPolyline
 90
30
 70
1
 10
281.714040
 20
9.333570
 30
0.0
 10
281.335490
 20
9.413270
 30
0.0
 10
280.982910
 20
9.569280
 30
0.0
 10
280.670340
 20
9.794430
 30
0.0
 10
280.411750
 20
10.079270
 30
0.0
 10
280.218860
 20
10.411320
 30
0.0
 10
280.098820
 20
10.775870
 30
0.0
 10
280.058820
 20
11.157300
 30
0.0
 10
280.098820
 20
11.538730
 30
0.0
 10
280.218860
 20
11.903650
 30
0.0
 10
280.411750
 20
12.235710
 30
0.0
 10
280.670340
 20
12.520540
 30
0.0
 10
280.982910
 20
12.745690
 30
0.0
 10
281.335490
 20
12.901710
 30
0.0
 10
281.714040
 20
12.981410
 30
0.0
 10
282.099570
 20
12.981410
 30
0.0
 10
282.478090
 20
12.901710
 30
0.0
 10
282.830670
 20
12.745690
 30
0.0
 10
283.143230
 20
12.520540
 30
0.0
 10
283.401810
 20
12.235710
 30
0.0
 10
283.594720
 20
11.903650
 30
0.0
 10
283.714760
 20
11.538730
 30
0.0
 10
283.754760
 20
11.157300
 30
0.0
 10
283.714760
 20
10.775870
 30
0.0
 10
283.594720
 20
10.411320
 30
0.0
 10
283.401810
 20
10.079270
 30
0.0
 10
283.143230
 20
9.794430
 30
0.0
 10
282.830670
 20
9.569280
 30
0.0
 10
282.478090
 20
9.413270
 30
0.0
 10
282.099570
 20
9.333570
 30
0.0
  0
LWPOLYLINE
  5
10e
100
AcDbEntity
  8
Layer_1
 62
7
100
AcDbPolyline
 90
30
 70
1
 10
111.920220
 20
9.333570
 30
0.0
 10
111.541660
 20
9.413270
 30
0.0
 10
111.189090
 20
9.569280
 30
0.0
 10
110.876520
 20
9.794430
 30
0.0
 10
110.617930
 20
10.079270
 30
0.0
 10
110.425040
 20
10.411320
 30
0.0
 10
110.304990
 20
10.775870
 30
0.0
 10
110.264990
 20
11.157300
 30
0.0
 10
110.304990
 20
11.538730
 30
0.0
 10
110.425040
 20
11.903650
 30
0.0
 10
110.617930
 20
12.235710
 30
0.0
 10
110.876520
 20
12.520540
 30
0.0
 10
111.189090
 20
12.745690
 30
0.0
 10
111.541660
 20
12.901710
 30
0.0
 10
111.920220
 20
12.981410
 30
0.0
 10
112.305750
 20
12.981410
 30
0.0
 10
112.684300
 20
12.901710
 30
0.0
 10
113.036880
 20
12.745690
 30
0.0
 10
113.349440
 20
12.520540
 30
0.0
 10
113.608030
 20
12.235710
 30
0.0
 10
113.800930
 20
11.903650
 30
0.0
 10
113.920600
 20
11.538730
 30
0.0
 10
113.960600
 20
11.157300
 30
0.0
 10
113.920600
 20
10.775870
 30
0.0
 10
113.800930
 20
10.411320
 30
0.0
 10
113.608030
 20
10.079270
 30
0.0
 10
113.349440
 20
9.794430
 30
0.0
 10
113.036880
 20
9.569280
 30
0.0
 10
112.684300
 20
9.413270
 30
0.0
 10
112.305750
 20
9.333570
 30
0.0
  0
ENDSEC
  0
SECTION
  2
OBJECTS
  0
DICTIONARY
  5
C
330
0
100
AcDbDictionary
  3
ACAD_GROUP
350
D
  3
ACAD_MLINESTYLE
350
17
  0
DICTIONARY
  5
D
330
C
100
AcDbDictionary
  0
DICTIONARY
  5
1A
330
C
100
AcDbDictionary
  0
DICTIONARY
  5
17
330
C
100
AcDbDictionary
  3
STANDARD
350
18
  0
DICTIONARY
  5
19
330
C
100
AcDbDictionary
  0
ENDSEC
  0
EOF
