  0
SECTION
  2
HEADER
  9
$ACADVER
  1
AC1014
  9
$HANDSEED
  5
FFFF
  9
$MEASUREMENT
 70
     1
  0
ENDSEC
  0
SECTION
  2
TABLES
  0
TABLE
  2
VPORT
  5
8
330
0
100
AcDbSymbolTable
 70
     4
  0
VPORT
  5
2E
330
8
100
AcDbSymbolTableRecord
100
AcDbViewportTableRecord
  2
*ACTIVE
 70
     0
 10
0.0
 20
0.0
 11
1.0
 21
1.0
 12
210.0
 22
148.5
 13
0.0
 23
0.0
 14
10.0
 24
10.0
 15
10.0
 25
10.0
 16
0.0
 26
0.0
 36
1.0
 17
0.0
 27
0.0
 37
0.0
 40
341.0
 41
1.24
 42
50.0
 43
0.0
 44
0.0
 50
0.0
 51
0.0
 71
     0
 72
   100
 73
     1
 74
     3
 75
     0
 76
     0
 77
     0
 78
     0
  0
ENDTAB
  0
TABLE
  2
LTYPE
  5
5
330
0
100
AcDbSymbolTable
 70
     1
  0
LTYPE
  5
14
330
5
100
AcDbSymbolTableRecord
100
AcDbLinetypeTableRecord
  2
BYBLOCK
 70
     0
  3

 72
    65
 73
     0
 40
0.0
  0
LTYPE
  5
15
330
5
100
AcDbSymbolTableRecord
100
AcDbLinetypeTableRecord
  2
BYLAYER
 70
     0
  3

 72
    65
 73
     0
 40
0.0
  0
LTYPE
  5
16
330
5
100
AcDbSymbolTableRecord
100
AcDbLinetypeTableRecord
  2
CONTINUOUS
 70
     0
  3
Solid line
 72
    65
 73
     0
 40
0.0
  0
ENDTAB
  0
TABLE
  2
LAYER
  5
2
100
AcDbSymbolTable
 70
2
  0
LAYER
  5
50
100
AcDbSymbolTableRecord
100
AcDbLayerTableRecord
  2
0
 70
0
  6
CONTINUOUS
  0
LAYER
  5
51
100
AcDbSymbolTableRecord
100
AcDbLayerTableRecord
  2
Layer_1
 70
0
  6
CONTINUOUS
  0
ENDTAB
  0
TABLE
  2
STYLE
  5
3
330
0
100
AcDbSymbolTable
 70
     1
  0
STYLE
  5
11
330
3
100
AcDbSymbolTableRecord
100
AcDbTextStyleTableRecord
  2
STANDARD
 70
     0
 40
0.0
 41
1.0
 50
0.0
 71
     0
 42
2.5
  3
txt
  4

  0
ENDTAB
  0
TABLE
  2
VIEW
  5
6
330
0
100
AcDbSymbolTable
 70
     0
  0
ENDTAB
  0
TABLE
  2
UCS
  5
7
330
0
100
AcDbSymbolTable
 70
     0
  0
ENDTAB
  0
TABLE
  2
APPID
  5
9
330
0
100
AcDbSymbolTable
 70
     2
  0
APPID
  5
12
330
9
100
AcDbSymbolTableRecord
100
AcDbRegAppTableRecord
  2
ACAD
 70
     0
  0
ENDTAB
  0
TABLE
  2
DIMSTYLE
  5
A
330
0
100
AcDbSymbolTable
 70
     1
  0
DIMSTYLE
105
27
330
A
100
AcDbSymbolTableRecord
100
AcDbDimStyleTableRecord
  2
ISO-25
 70
     0
  3

  4

  5

  6

  7

 40
1.0
 41
2.5
 42
0.625
 43
3.75
 44
1.25
 45
0.0
 46
0.0
 47
0.0
 48
0.0
140
2.5
141
2.5
142
0.0
143
0.03937007874016
144
1.0
145
0.0
146
1.0
147
0.625
 71
     0
 72
     0
 73
     0
 74
     0
 75
     0
 76
     0
 77
     1
 78
     8
170
     0
171
     3
172
     1
173
     0
174
     0
175
     0
176
     0
177
     0
178
     0
270
     2
271
     2
272
     2
273
     2
274
     3
340
11
275
     0
280
     0
281
     0
282
     0
283
     0
284
     8
285
     0
286
     0
287
     3
288
     0
  0
ENDTAB
  0
TABLE
  2
BLOCK_RECORD
  5
1
330
0
100
AcDbSymbolTable
 70
     1
  0
BLOCK_RECORD
  5
1F
330
1
100
AcDbSymbolTableRecord
100
AcDbBlockTableRecord
  2
*MODEL_SPACE
  0
BLOCK_RECORD
  5
1B
330
1
100
AcDbSymbolTableRecord
100
AcDbBlockTableRecord
  2
*PAPER_SPACE
  0
ENDTAB
  0
ENDSEC
  0
SECTION
  2
BLOCKS
  0
BLOCK
  5
20
330
1F
100
AcDbEntity
  8
0
100
AcDbBlockBegin
  2
*MODEL_SPACE
 70
     0
 10
0.0
 20
0.0
 30
0.0
  3
*MODEL_SPACE
  1

  0
ENDBLK
  5
21
330
1F
100
AcDbEntity
  8
0
100
AcDbBlockEnd
  0
BLOCK
  5
1C
330
1B
100
AcDbEntity
 67
     1
  8
0
100
AcDbBlockBegin
  2
*PAPER_SPACE
  1

  0
ENDBLK
  5
1D
330
1B
100
AcDbEntity
 67
     1
  8
0
100
AcDbBlockEnd
  0
ENDSEC
  0
SECTION
  2
ENTITIES
  0
LWPOLYLINE
  5
100
100
AcDbEntity
  8
Layer_1
 62
7
100
AcDbPolyline
 90
12
 70
1
 10
2.638376
 20
0.249190
 30
0.0
 10
405.504800
 20
0.249190
 30
0.0
 10
408.750820
 20
3.481980
 30
0.0
 10
408.750820
 20
90.021980
 30
0.0
 10
404.755700
 20
94.000820
 30
0.0
 10
379.786180
 20
94.000820
 30
0.0
 10
379.786180
 20
73.609200
 30
0.0
 10
359.311150
 20
73.609200
 30
0.0
 10
359.311150
 20
94.000820
 30
0.0
 10
3.387426
 20
94.000820
 30
0.0
 10
0.249186
 20
90.875440
 30
0.0
 10
0.249186
 20
2.628530
 30
0.0
  0
LWPOLYLINE
  5
101
100
AcDbEntity
  8
Layer_1
 62
7
100
AcDbPolyline
 90
30
 70
1
 10
396.032350
 20
10.492710
 30
0.0
 10
396.155040
 20
11.072650
 30
0.0
 10
396.397770
 20
11.613760
 30
0.0
 10
396.747320
 20
12.093220
 30
0.0
 10
397.189770
 20
12.490110
 30
0.0
 10
397.705170
 20
12.786370
 30
0.0
 10
398.270460
 20
12.969470
 30
0.0
 10
398.862750
 20
13.031170
 30
0.0
 10
399.455030
 20
12.969470
 30
0.0
 10
400.020330
 20
12.786370
 30
0.0
 10
400.535680
 20
12.490110
 30
0.0
 10
400.978140
 20
12.093220
 30
0.0
 10
401.327690
 20
11.613760
 30
0.0
 10
401.570430
 20
11.072650
 30
0.0
 10
401.693110
 20
10.492710
 30
0.0
 10
401.693110
 20
9.899860
 30
0.0
 10
401.570430
 20
9.319950
 30
0.0
 10
401.327690
 20
8.778840
 30
0.0
 10
400.978140
 20
8.299390
 30
0.0
 10
400.535680
 20
7.902490
 30
0.0
 10
400.020330
 20
7.605850
 30
0.0
 10
399.455030
 20
7.422760
 30
0.0
 10
398.862750
 20
7.361060
 30
0.0
 10
398.270460
 20
7.422760
 30
0.0
 10
397.705170
 20
7.605850
 30
0.0
 10
397.189770
 20
7.902490
 30
0.0
 10
396.747320
 20
8.299390
 30
0.0
 10
396.397770
 20
8.778840
 30
0.0
 10
396.155040
 20
9.319950
 30
0.0
 10
396.032350
 20
9.899860
 30
0.0
  0
LWPOLYLINE
  5
102
100
AcDbEntity
  8
Layer_1
 62
7
100
AcDbPolyline
 90
30
 70
1
 10
371.562210
 20
39.339380
 30
0.0
 10
371.684900
 20
39.919290
 30
0.0
 10
371.927620
 20
40.460400
 30
0.0
 10
372.277180
 20
40.939850
 30
0.0
 10
372.719640
 20
41.336750
 30
0.0
 10
373.234990
 20
41.633010
 30
0.0
 10
373.800320
 20
41.816110
 30
0.0
 10
374.392610
 20
41.877810
 30
0.0
 10
374.984860
 20
41.816110
 30
0.0
 10
375.550190
 20
41.633010
 30
0.0
 10
376.065540
 20
41.336750
 30
0.0
 10
376.508000
 20
40.939850
 30
0.0
 10
376.857560
 20
40.460400
 30
0.0
 10
377.100290
 20
39.919290
 30
0.0
 10
377.222970
 20
39.339380
 30
0.0
 10
377.222970
 20
38.746500
 30
0.0
 10
377.100290
 20
38.166600
 30
0.0
 10
376.857560
 20
37.625480
 30
0.0
 10
376.508000
 20
37.146030
 30
0.0
 10
376.065540
 20
36.749130
 30
0.0
 10
375.550190
 20
36.452490
 30
0.0
 10
374.984860
 20
36.269390
 30
0.0
 10
374.392610
 20
36.207690
 30
0.0
 10
373.800320
 20
36.269390
 30
0.0
 10
373.234990
 20
36.452490
 30
0.0
 10
372.719640
 20
36.749130
 30
0.0
 10
372.277180
 20
37.146030
 30
0.0
 10
371.927620
 20
37.625480
 30
0.0
 10
371.684900
 20
38.166600
 30
0.0
 10
371.562210
 20
38.746500
 30
0.0
  0
LWPOLYLINE
  5
103
100
AcDbEntity
  8
Layer_1
 62
7
100
AcDbPolyline
 90
30
 70
1
 10
341.598760
 20
84.101450
 30
0.0
 10
341.721450
 20
84.681360
 30
0.0
 10
341.964180
 20
85.222470
 30
0.0
 10
342.313730
 20
85.701930
 30
0.0
 10
342.756190
 20
86.098820
 30
0.0
 10
343.271540
 20
86.395080
 30
0.0
 10
343.836880
 20
86.578170
 30
0.0
 10
344.429160
 20
86.639870
 30
0.0
 10
345.021410
 20
86.578170
 30
0.0
 10
345.586740
 20
86.395080
 30
0.0
 10
346.102090
 20
86.098820
 30
0.0
 10
346.544550
 20
85.701930
 30
0.0
 10
346.894110
 20
85.222470
 30
0.0
 10
347.136840
 20
84.681360
 30
0.0
 10
347.259520
 20
84.101450
 30
0.0
 10
347.259520
 20
83.508570
 30
0.0
 10
347.136840
 20
82.928660
 30
0.0
 10
346.894110
 20
82.387550
 30
0.0
 10
346.544550
 20
81.908100
 30
0.0
 10
346.102090
 20
81.511200
 30
0.0
 10
345.586740
 20
81.214570
 30
0.0
 10
345.021410
 20
81.031480
 30
0.0
 10
344.429160
 20
80.969780
 30
0.0
 10
343.836880
 20
81.031480
 30
0.0
 10
343.271540
 20
81.214570
 30
0.0
 10
342.756190
 20
81.511200
 30
0.0
 10
342.313730
 20
81.908100
 30
0.0
 10
341.964180
 20
82.387550
 30
0.0
 10
341.721450
 20
82.928660
 30
0.0
 10
341.598760
 20
83.508570
 30
0.0
  0
LWPOLYLINE
  5
104
100
AcDbEntity
  8
Layer_1
 62
7
100
AcDbPolyline
 90
4
 70
1
 10
267.523120
 20
47.498000
 30
0.0
 10
321.457320
 20
47.498000
 30
0.0
 10
321.457320
 20
30.388960
 30
0.0
 10
267.523120
 20
30.388960
 30
0.0
  0
LWPOLYLINE
  5
105
100
AcDbEntity
  8
Layer_1
 62
7
100
AcDbPolyline
 90
30
 70
1
 10
180.794910
 20
10.492710
 30
0.0
 10
180.917590
 20
11.072650
 30
0.0
 10
181.160320
 20
11.613760
 30
0.0
 10
181.509870
 20
12.093220
 30
0.0
 10
181.952330
 20
12.490110
 30
0.0
 10
182.467730
 20
12.786370
 30
0.0
 10
183.033020
 20
12.969470
 30
0.0
 10
183.625300
 20
13.031170
 30
0.0
 10
184.217590
 20
12.969470
 30
0.0
 10
184.782890
 20
12.786370
 30
0.0
 10
185.298270
 20
12.490110
 30
0.0
 10
185.740740
 20
12.093220
 30
0.0
 10
186.090290
 20
11.613760
 30
0.0
 10
186.333020
 20
11.072650
 30
0.0
 10
186.455710
 20
10.492710
 30
0.0
 10
186.455710
 20
9.899860
 30
0.0
 10
186.333020
 20
9.319950
 30
0.0
 10
186.090290
 20
8.778840
 30
0.0
 10
185.740740
 20
8.299390
 30
0.0
 10
185.298270
 20
7.902490
 30
0.0
 10
184.782890
 20
7.605850
 30
0.0
 10
184.217590
 20
7.422760
 30
0.0
 10
183.625300
 20
7.361060
 30
0.0
 10
183.033020
 20
7.422760
 30
0.0
 10
182.467730
 20
7.605850
 30
0.0
 10
181.952330
 20
7.902490
 30
0.0
 10
181.509870
 20
8.299390
 30
0.0
 10
181.160320
 20
8.778840
 30
0.0
 10
180.917590
 20
9.319950
 30
0.0
 10
180.794910
 20
9.899860
 30
0.0
  0
LWPOLYLINE
  5
106
100
AcDbEntity
  8
Layer_1
 62
7
100
AcDbPolyline
 90
30
 70
1
 10
176.799790
 20
84.101450
 30
0.0
 10
176.922480
 20
84.681360
 30
0.0
 10
177.165210
 20
85.222470
 30
0.0
 10
177.514760
 20
85.701930
 30
0.0
 10
177.957220
 20
86.098820
 30
0.0
 10
178.472570
 20
86.395080
 30
0.0
 10
179.037910
 20
86.578170
 30
0.0
 10
179.630190
 20
86.639870
 30
0.0
 10
180.222440
 20
86.578170
 30
0.0
 10
180.787770
 20
86.395080
 30
0.0
 10
181.303130
 20
86.098820
 30
0.0
 10
181.745580
 20
85.701930
 30
0.0
 10
182.095140
 20
85.222470
 30
0.0
 10
182.337860
 20
84.681360
 30
0.0
 10
182.460550
 20
84.101450
 30
0.0
 10
182.460550
 20
83.508570
 30
0.0
 10
182.337860
 20
82.928660
 30
0.0
 10
182.095140
 20
82.387550
 30
0.0
 10
181.745580
 20
81.908100
 30
0.0
 10
181.303130
 20
81.511200
 30
0.0
 10
180.787770
 20
81.214570
 30
0.0
 10
180.222440
 20
81.031480
 30
0.0
 10
179.630190
 20
80.969780
 30
0.0
 10
179.037910
 20
81.031480
 30
0.0
 10
178.472570
 20
81.214570
 30
0.0
 10
177.957220
 20
81.511200
 30
0.0
 10
177.514760
 20
81.908100
 30
0.0
 10
177.165210
 20
82.387550
 30
0.0
 10
176.922480
 20
82.928660
 30
0.0
 10
176.799790
 20
83.508570
 30
0.0
  0
LWPOLYLINE
  5
107
100
AcDbEntity
  8
Layer_1
 62
7
100
AcDbPolyline
 90
4
 70
1
 10
49.788706
 20
47.498000
 30
0.0
 10
103.722920
 20
47.498000
 30
0.0
 10
103.722920
 20
30.388960
 30
0.0
 10
49.788706
 20
30.388960
 30
0.0
  0
LWPOLYLINE
  5
108
100
AcDbEntity
  8
Layer_1
 62
7
100
AcDbPolyline
 90
30
 70
1
 10
21.988246
 20
39.339380
 30
0.0
 10
22.112066
 20
39.919290
 30
0.0
 10
22.354036
 20
40.460400
 30
0.0
 10
22.703976
 20
40.939850
 30
0.0
 10
23.146236
 20
41.336750
 30
0.0
 10
23.661596
 20
41.633010
 30
0.0
 10
24.227496
 20
41.816110
 30
0.0
 10
24.819366
 20
41.877810
 30
0.0
 10
25.411156
 20
41.816110
 30
0.0
 10
25.977176
 20
41.633010
 30
0.0
 10
26.492526
 20
41.336750
 30
0.0
 10
26.934796
 20
40.939850
 30
0.0
 10
27.284726
 20
40.460400
 30
0.0
 10
27.526706
 20
39.919290
 30
0.0
 10
27.650526
 20
39.339380
 30
0.0
 10
27.650526
 20
38.746500
 30
0.0
 10
27.526706
 20
38.166600
 30
0.0
 10
27.284726
 20
37.625480
 30
0.0
 10
26.934796
 20
37.146030
 30
0.0
 10
26.492526
 20
36.749130
 30
0.0
 10
25.977176
 20
36.452490
 30
0.0
 10
25.411156
 20
36.269390
 30
0.0
 10
24.819366
 20
36.207690
 30
0.0
 10
24.227496
 20
36.269390
 30
0.0
 10
23.661596
 20
36.452490
 30
0.0
 10
23.146236
 20
36.749130
 30
0.0
 10
22.703976
 20
37.146030
 30
0.0
 10
22.354036
 20
37.625480
 30
0.0
 10
22.112066
 20
38.166600
 30
0.0
 10
21.988246
 20
38.746500
 30
0.0
  0
LWPOLYLINE
  5
109
100
AcDbEntity
  8
Layer_1
 62
7
100
AcDbPolyline
 90
30
 70
1
 10
21.988246
 20
84.101450
 30
0.0
 10
22.112066
 20
84.681360
 30
0.0
 10
22.354036
 20
85.222470
 30
0.0
 10
22.703976
 20
85.701930
 30
0.0
 10
23.146236
 20
86.098820
 30
0.0
 10
23.661596
 20
86.395080
 30
0.0
 10
24.227496
 20
86.578170
 30
0.0
 10
24.819366
 20
86.639870
 30
0.0
 10
25.411156
 20
86.578170
 30
0.0
 10
25.977176
 20
86.395080
 30
0.0
 10
26.492526
 20
86.098820
 30
0.0
 10
26.934796
 20
85.701930
 30
0.0
 10
27.284726
 20
85.222470
 30
0.0
 10
27.526706
 20
84.681360
 30
0.0
 10
27.650526
 20
84.101450
 30
0.0
 10
27.650526
 20
83.508570
 30
0.0
 10
27.526706
 20
82.928660
 30
0.0
 10
27.284726
 20
82.387550
 30
0.0
 10
26.934796
 20
81.908100
 30
0.0
 10
26.492526
 20
81.511200
 30
0.0
 10
25.977176
 20
81.214570
 30
0.0
 10
25.411156
 20
81.031480
 30
0.0
 10
24.819366
 20
80.969780
 30
0.0
 10
24.227496
 20
81.031480
 30
0.0
 10
23.661596
 20
81.214570
 30
0.0
 10
23.146236
 20
81.511200
 30
0.0
 10
22.703976
 20
81.908100
 30
0.0
 10
22.354036
 20
82.387550
 30
0.0
 10
22.112066
 20
82.928660
 30
0.0
 10
21.988246
 20
83.508570
 30
0.0
  0
ENDSEC
  0
SECTION
  2
OBJECTS
  0
DICTIONARY
  5
C
330
0
100
AcDbDictionary
  3
ACAD_GROUP
350
D
  3
ACAD_MLINESTYLE
350
17
  0
DICTIONARY
  5
D
330
C
100
AcDbDictionary
  0
DICTIONARY
  5
1A
330
C
100
AcDbDictionary
  0
DICTIONARY
  5
17
330
C
100
AcDbDictionary
  3
STANDARD
350
18
  0
DICTIONARY
  5
19
330
C
100
AcDbDictionary
  0
ENDSEC
  0
EOF
