  0
SECTION
  2
HEADER
  9
$ACADVER
  1
AC1014
  9
$HANDSEED
  5
FFFF
  9
$MEASUREMENT
 70
     1
  0
ENDSEC
  0
SECTION
  2
TABLES
  0
TABLE
  2
VPORT
  5
8
330
0
100
AcDbSymbolTable
 70
     4
  0
VPORT
  5
2E
330
8
100
AcDbSymbolTableRecord
100
AcDbViewportTableRecord
  2
*ACTIVE
 70
     0
 10
0.0
 20
0.0
 11
1.0
 21
1.0
 12
210.0
 22
148.5
 13
0.0
 23
0.0
 14
10.0
 24
10.0
 15
10.0
 25
10.0
 16
0.0
 26
0.0
 36
1.0
 17
0.0
 27
0.0
 37
0.0
 40
341.0
 41
1.24
 42
50.0
 43
0.0
 44
0.0
 50
0.0
 51
0.0
 71
     0
 72
   100
 73
     1
 74
     3
 75
     0
 76
     0
 77
     0
 78
     0
  0
ENDTAB
  0
TABLE
  2
LTYPE
  5
5
330
0
100
AcDbSymbolTable
 70
     1
  0
LTYPE
  5
14
330
5
100
AcDbSymbolTableRecord
100
AcDbLinetypeTableRecord
  2
BYBLOCK
 70
     0
  3

 72
    65
 73
     0
 40
0.0
  0
LTYPE
  5
15
330
5
100
AcDbSymbolTableRecord
100
AcDbLinetypeTableRecord
  2
BYLAYER
 70
     0
  3

 72
    65
 73
     0
 40
0.0
  0
LTYPE
  5
16
330
5
100
AcDbSymbolTableRecord
100
AcDbLinetypeTableRecord
  2
CONTINUOUS
 70
     0
  3
Solid line
 72
    65
 73
     0
 40
0.0
  0
ENDTAB
  0
TABLE
  2
LAYER
  5
2
100
AcDbSymbolTable
 70
2
  0
LAYER
  5
50
100
AcDbSymbolTableRecord
100
AcDbLayerTableRecord
  2
0
 70
0
  6
CONTINUOUS
  0
LAYER
  5
51
100
AcDbSymbolTableRecord
100
AcDbLayerTableRecord
  2
Layer_1
 70
0
  6
CONTINUOUS
  0
ENDTAB
  0
TABLE
  2
STYLE
  5
3
330
0
100
AcDbSymbolTable
 70
     1
  0
STYLE
  5
11
330
3
100
AcDbSymbolTableRecord
100
AcDbTextStyleTableRecord
  2
STANDARD
 70
     0
 40
0.0
 41
1.0
 50
0.0
 71
     0
 42
2.5
  3
txt
  4

  0
ENDTAB
  0
TABLE
  2
VIEW
  5
6
330
0
100
AcDbSymbolTable
 70
     0
  0
ENDTAB
  0
TABLE
  2
UCS
  5
7
330
0
100
AcDbSymbolTable
 70
     0
  0
ENDTAB
  0
TABLE
  2
APPID
  5
9
330
0
100
AcDbSymbolTable
 70
     2
  0
APPID
  5
12
330
9
100
AcDbSymbolTableRecord
100
AcDbRegAppTableRecord
  2
ACAD
 70
     0
  0
ENDTAB
  0
TABLE
  2
DIMSTYLE
  5
A
330
0
100
AcDbSymbolTable
 70
     1
  0
DIMSTYLE
105
27
330
A
100
AcDbSymbolTableRecord
100
AcDbDimStyleTableRecord
  2
ISO-25
 70
     0
  3

  4

  5

  6

  7

 40
1.0
 41
2.5
 42
0.625
 43
3.75
 44
1.25
 45
0.0
 46
0.0
 47
0.0
 48
0.0
140
2.5
141
2.5
142
0.0
143
0.03937007874016
144
1.0
145
0.0
146
1.0
147
0.625
 71
     0
 72
     0
 73
     0
 74
     0
 75
     0
 76
     0
 77
     1
 78
     8
170
     0
171
     3
172
     1
173
     0
174
     0
175
     0
176
     0
177
     0
178
     0
270
     2
271
     2
272
     2
273
     2
274
     3
340
11
275
     0
280
     0
281
     0
282
     0
283
     0
284
     8
285
     0
286
     0
287
     3
288
     0
  0
ENDTAB
  0
TABLE
  2
BLOCK_RECORD
  5
1
330
0
100
AcDbSymbolTable
 70
     1
  0
BLOCK_RECORD
  5
1F
330
1
100
AcDbSymbolTableRecord
100
AcDbBlockTableRecord
  2
*MODEL_SPACE
  0
BLOCK_RECORD
  5
1B
330
1
100
AcDbSymbolTableRecord
100
AcDbBlockTableRecord
  2
*PAPER_SPACE
  0
ENDTAB
  0
ENDSEC
  0
SECTION
  2
BLOCKS
  0
BLOCK
  5
20
330
1F
100
AcDbEntity
  8
0
100
AcDbBlockBegin
  2
*MODEL_SPACE
 70
     0
 10
0.0
 20
0.0
 30
0.0
  3
*MODEL_SPACE
  1

  0
ENDBLK
  5
21
330
1F
100
AcDbEntity
  8
0
100
AcDbBlockEnd
  0
BLOCK
  5
1C
330
1B
100
AcDbEntity
 67
     1
  8
0
100
AcDbBlockBegin
  2
*PAPER_SPACE
  1

  0
ENDBLK
  5
1D
330
1B
100
AcDbEntity
 67
     1
  8
0
100
AcDbBlockEnd
  0
ENDSEC
  0
SECTION
  2
ENTITIES
  0
LWPOLYLINE
  5
100
100
AcDbEntity
  8
Layer_1
 62
7
100
AcDbPolyline
 90
12
 70
1
 10
401.762460
 20
13.232120
 30
0.0
 10
411.750320
 20
13.232120
 30
0.0
 10
411.750320
 20
357.766540
 30
0.0
 10
401.762460
 20
357.766540
 30
0.0
 10
401.762460
 20
369.750320
 30
0.0
 10
15.231499
 20
369.750320
 30
0.0
 10
15.231499
 20
357.766540
 30
0.0
 10
0.249680
 20
357.766540
 30
0.0
 10
0.249680
 20
13.232120
 30
0.0
 10
15.231499
 20
13.232120
 30
0.0
 10
15.231499
 20
0.249680
 30
0.0
 10
401.762460
 20
0.249680
 30
0.0
  0
LWPOLYLINE
  5
101
100
AcDbEntity
  8
Layer_1
 62
7
100
AcDbPolyline
 90
30
 70
1
 10
142.339270
 20
360.887280
 30
0.0
 10
142.080680
 20
361.174880
 30
0.0
 10
141.887790
 20
361.509350
 30
0.0
 10
141.768120
 20
361.875930
 30
0.0
 10
141.728120
 20
362.260430
 30
0.0
 10
141.768120
 20
362.644890
 30
0.0
 10
141.887790
 20
363.011480
 30
0.0
 10
142.080680
 20
363.345940
 30
0.0
 10
142.339270
 20
363.633540
 30
0.0
 10
142.651840
 20
363.860300
 30
0.0
 10
143.004420
 20
364.016760
 30
0.0
 10
143.382970
 20
364.097660
 30
0.0
 10
143.768470
 20
364.097660
 30
0.0
 10
144.146980
 20
364.016760
 30
0.0
 10
144.499560
 20
363.860300
 30
0.0
 10
144.812130
 20
363.633540
 30
0.0
 10
145.070710
 20
363.345940
 30
0.0
 10
145.263610
 20
363.011480
 30
0.0
 10
145.383650
 20
362.644890
 30
0.0
 10
145.423650
 20
362.260430
 30
0.0
 10
145.383650
 20
361.875930
 30
0.0
 10
145.263610
 20
361.509350
 30
0.0
 10
145.070710
 20
361.174880
 30
0.0
 10
144.812130
 20
360.887280
 30
0.0
 10
144.499560
 20
360.660530
 30
0.0
 10
144.146980
 20
360.504070
 30
0.0
 10
143.768470
 20
360.423170
 30
0.0
 10
143.382930
 20
360.423170
 30
0.0
 10
143.004380
 20
360.504070
 30
0.0
 10
142.651800
 20
360.660530
 30
0.0
  0
LWPOLYLINE
  5
102
100
AcDbEntity
  8
Layer_1
 62
7
100
AcDbPolyline
 90
30
 70
1
 10
83.954711
 20
360.422930
 30
0.0
 10
83.576871
 20
360.503830
 30
0.0
 10
83.223911
 20
360.660670
 30
0.0
 10
82.911341
 20
360.887430
 30
0.0
 10
82.652761
 20
361.175030
 30
0.0
 10
82.459491
 20
361.509490
 30
0.0
 10
82.340201
 20
361.876080
 30
0.0
 10
82.299801
 20
362.260580
 30
0.0
 10
82.340201
 20
362.645040
 30
0.0
 10
82.459491
 20
363.011620
 30
0.0
 10
82.652761
 20
363.346090
 30
0.0
 10
82.911341
 20
363.633690
 30
0.0
 10
83.223911
 20
363.860440
 30
0.0
 10
83.576871
 20
364.016900
 30
0.0
 10
83.954711
 20
364.097800
 30
0.0
 10
84.341031
 20
364.097800
 30
0.0
 10
84.718911
 20
364.016900
 30
0.0
 10
85.071861
 20
363.860440
 30
0.0
 10
85.384421
 20
363.633690
 30
0.0
 10
85.643011
 20
363.346090
 30
0.0
 10
85.836291
 20
363.011620
 30
0.0
 10
85.955581
 20
362.645040
 30
0.0
 10
85.995981
 20
362.260580
 30
0.0
 10
85.955581
 20
361.876080
 30
0.0
 10
85.836291
 20
361.509490
 30
0.0
 10
85.643011
 20
361.175030
 30
0.0
 10
85.384421
 20
360.887430
 30
0.0
 10
85.071861
 20
360.660670
 30
0.0
 10
84.718911
 20
360.503830
 30
0.0
 10
84.341031
 20
360.422930
 30
0.0
  0
LWPOLYLINE
  5
103
100
AcDbEntity
  8
Layer_1
 62
7
100
AcDbPolyline
 90
30
 70
1
 10
93.942981
 20
360.422930
 30
0.0
 10
93.564471
 20
360.503830
 30
0.0
 10
93.211891
 20
360.660670
 30
0.0
 10
92.899331
 20
360.887430
 30
0.0
 10
92.640741
 20
361.175030
 30
0.0
 10
92.447841
 20
361.509490
 30
0.0
 10
92.328171
 20
361.876080
 30
0.0
 10
92.288171
 20
362.260580
 30
0.0
 10
92.328171
 20
362.645040
 30
0.0
 10
92.447841
 20
363.011620
 30
0.0
 10
92.640741
 20
363.346090
 30
0.0
 10
92.899331
 20
363.633690
 30
0.0
 10
93.211891
 20
363.860440
 30
0.0
 10
93.564471
 20
364.016900
 30
0.0
 10
93.942981
 20
364.097800
 30
0.0
 10
94.328521
 20
364.097800
 30
0.0
 10
94.707071
 20
364.016900
 30
0.0
 10
95.059661
 20
363.860440
 30
0.0
 10
95.372221
 20
363.633690
 30
0.0
 10
95.630801
 20
363.346090
 30
0.0
 10
95.823701
 20
363.011620
 30
0.0
 10
95.943361
 20
362.645040
 30
0.0
 10
95.983361
 20
362.260580
 30
0.0
 10
95.943361
 20
361.876080
 30
0.0
 10
95.823701
 20
361.509490
 30
0.0
 10
95.630801
 20
361.175030
 30
0.0
 10
95.372221
 20
360.887430
 30
0.0
 10
95.059661
 20
360.660670
 30
0.0
 10
94.707071
 20
360.503830
 30
0.0
 10
94.328521
 20
360.422930
 30
0.0
  0
LWPOLYLINE
  5
104
100
AcDbEntity
  8
Layer_1
 62
7
100
AcDbPolyline
 90
30
 70
1
 10
313.176910
 20
360.422930
 30
0.0
 10
312.798400
 20
360.503830
 30
0.0
 10
312.445820
 20
360.660670
 30
0.0
 10
312.133260
 20
360.887430
 30
0.0
 10
311.874670
 20
361.175030
 30
0.0
 10
311.681770
 20
361.509490
 30
0.0
 10
311.562100
 20
361.876080
 30
0.0
 10
311.522100
 20
362.260580
 30
0.0
 10
311.562100
 20
362.645040
 30
0.0
 10
311.681770
 20
363.011620
 30
0.0
 10
311.874670
 20
363.346090
 30
0.0
 10
312.133260
 20
363.633690
 30
0.0
 10
312.445820
 20
363.860440
 30
0.0
 10
312.798400
 20
364.016900
 30
0.0
 10
313.176910
 20
364.097800
 30
0.0
 10
313.562440
 20
364.097800
 30
0.0
 10
313.941000
 20
364.016900
 30
0.0
 10
314.293580
 20
363.860440
 30
0.0
 10
314.606150
 20
363.633690
 30
0.0
 10
314.864730
 20
363.346090
 30
0.0
 10
315.057630
 20
363.011620
 30
0.0
 10
315.177290
 20
362.645040
 30
0.0
 10
315.217290
 20
362.260580
 30
0.0
 10
315.177290
 20
361.876080
 30
0.0
 10
315.057630
 20
361.509490
 30
0.0
 10
314.864730
 20
361.175030
 30
0.0
 10
314.606150
 20
360.887430
 30
0.0
 10
314.293580
 20
360.660670
 30
0.0
 10
313.941000
 20
360.503830
 30
0.0
 10
313.562440
 20
360.422930
 30
0.0
  0
LWPOLYLINE
  5
105
100
AcDbEntity
  8
Layer_1
 62
7
100
AcDbPolyline
 90
30
 70
1
 10
303.189050
 20
360.422930
 30
0.0
 10
302.810500
 20
360.503830
 30
0.0
 10
302.457920
 20
360.660670
 30
0.0
 10
302.145350
 20
360.887430
 30
0.0
 10
301.886760
 20
361.175030
 30
0.0
 10
301.693870
 20
361.509490
 30
0.0
 10
301.574200
 20
361.876080
 30
0.0
 10
301.534200
 20
362.260580
 30
0.0
 10
301.574200
 20
362.645040
 30
0.0
 10
301.693870
 20
363.011620
 30
0.0
 10
301.886760
 20
363.346090
 30
0.0
 10
302.145350
 20
363.633690
 30
0.0
 10
302.457920
 20
363.860440
 30
0.0
 10
302.810500
 20
364.016900
 30
0.0
 10
303.189050
 20
364.097800
 30
0.0
 10
303.574580
 20
364.097800
 30
0.0
 10
303.953140
 20
364.016900
 30
0.0
 10
304.305720
 20
363.860440
 30
0.0
 10
304.618280
 20
363.633690
 30
0.0
 10
304.876860
 20
363.346090
 30
0.0
 10
305.069770
 20
363.011620
 30
0.0
 10
305.189810
 20
362.645040
 30
0.0
 10
305.229810
 20
362.260580
 30
0.0
 10
305.189810
 20
361.876080
 30
0.0
 10
305.069770
 20
361.509490
 30
0.0
 10
304.876860
 20
361.175030
 30
0.0
 10
304.618280
 20
360.887430
 30
0.0
 10
304.305720
 20
360.660670
 30
0.0
 10
303.953140
 20
360.503830
 30
0.0
 10
303.574580
 20
360.422930
 30
0.0
  0
LWPOLYLINE
  5
106
100
AcDbEntity
  8
Layer_1
 62
7
100
AcDbPolyline
 90
30
 70
1
 10
263.736930
 20
360.422930
 30
0.0
 10
263.358380
 20
360.503830
 30
0.0
 10
263.005800
 20
360.660670
 30
0.0
 10
262.693230
 20
360.887430
 30
0.0
 10
262.434640
 20
361.175030
 30
0.0
 10
262.241750
 20
361.509490
 30
0.0
 10
262.122080
 20
361.876080
 30
0.0
 10
262.082080
 20
362.260580
 30
0.0
 10
262.122080
 20
362.645040
 30
0.0
 10
262.241750
 20
363.011620
 30
0.0
 10
262.434640
 20
363.346090
 30
0.0
 10
262.693230
 20
363.633690
 30
0.0
 10
263.005800
 20
363.860440
 30
0.0
 10
263.358380
 20
364.016900
 30
0.0
 10
263.736930
 20
364.097800
 30
0.0
 10
264.122460
 20
364.097800
 30
0.0
 10
264.501020
 20
364.016900
 30
0.0
 10
264.853600
 20
363.860440
 30
0.0
 10
265.166170
 20
363.633690
 30
0.0
 10
265.424740
 20
363.346090
 30
0.0
 10
265.617650
 20
363.011620
 30
0.0
 10
265.737310
 20
362.645040
 30
0.0
 10
265.777310
 20
362.260580
 30
0.0
 10
265.737310
 20
361.876080
 30
0.0
 10
265.617650
 20
361.509490
 30
0.0
 10
265.424740
 20
361.175030
 30
0.0
 10
265.166170
 20
360.887430
 30
0.0
 10
264.853600
 20
360.660670
 30
0.0
 10
264.501020
 20
360.503830
 30
0.0
 10
264.122460
 20
360.422930
 30
0.0
  0
LWPOLYLINE
  5
107
100
AcDbEntity
  8
Layer_1
 62
7
100
AcDbPolyline
 90
30
 70
1
 10
253.749060
 20
360.422930
 30
0.0
 10
253.370510
 20
360.503830
 30
0.0
 10
253.017930
 20
360.660670
 30
0.0
 10
252.705370
 20
360.887430
 30
0.0
 10
252.446820
 20
361.175030
 30
0.0
 10
252.253920
 20
361.509490
 30
0.0
 10
252.133870
 20
361.876080
 30
0.0
 10
252.093870
 20
362.260580
 30
0.0
 10
252.133870
 20
362.645040
 30
0.0
 10
252.253920
 20
363.011620
 30
0.0
 10
252.446820
 20
363.346090
 30
0.0
 10
252.705370
 20
363.633690
 30
0.0
 10
253.017930
 20
363.860440
 30
0.0
 10
253.370510
 20
364.016900
 30
0.0
 10
253.749060
 20
364.097800
 30
0.0
 10
254.134590
 20
364.097800
 30
0.0
 10
254.513110
 20
364.016900
 30
0.0
 10
254.865690
 20
363.860440
 30
0.0
 10
255.178260
 20
363.633690
 30
0.0
 10
255.436840
 20
363.346090
 30
0.0
 10
255.629740
 20
363.011620
 30
0.0
 10
255.749400
 20
362.645040
 30
0.0
 10
255.789400
 20
362.260580
 30
0.0
 10
255.749400
 20
361.876080
 30
0.0
 10
255.629740
 20
361.509490
 30
0.0
 10
255.436840
 20
361.175030
 30
0.0
 10
255.178260
 20
360.887430
 30
0.0
 10
254.865690
 20
360.660670
 30
0.0
 10
254.513110
 20
360.503830
 30
0.0
 10
254.134590
 20
360.422930
 30
0.0
  0
LWPOLYLINE
  5
108
100
AcDbEntity
  8
Layer_1
 62
7
100
AcDbPolyline
 90
30
 70
1
 10
9.045608
 20
307.494457
 30
0.0
 10
8.667774
 20
307.575337
 30
0.0
 10
8.314815
 20
307.731797
 30
0.0
 10
8.002250
 20
307.958551
 30
0.0
 10
7.743666
 20
308.246152
 30
0.0
 10
7.550389
 20
308.580614
 30
0.0
 10
7.431101
 20
308.947200
 30
0.0
 10
7.390701
 20
309.331700
 30
0.0
 10
7.431101
 20
309.716162
 30
0.0
 10
7.550389
 20
310.082748
 30
0.0
 10
7.743666
 20
310.417211
 30
0.0
 10
8.002250
 20
310.704811
 30
0.0
 10
8.314815
 20
310.931566
 30
0.0
 10
8.667774
 20
311.088026
 30
0.0
 10
9.045608
 20
311.168906
 30
0.0
 10
9.431935
 20
311.168906
 30
0.0
 10
9.809808
 20
311.088026
 30
0.0
 10
10.162765
 20
310.931566
 30
0.0
 10
10.475331
 20
310.704811
 30
0.0
 10
10.733914
 20
310.417211
 30
0.0
 10
10.926815
 20
310.082748
 30
0.0
 10
11.046102
 20
309.716162
 30
0.0
 10
11.086502
 20
309.331700
 30
0.0
 10
11.046102
 20
308.947200
 30
0.0
 10
10.926815
 20
308.580614
 30
0.0
 10
10.733914
 20
308.246152
 30
0.0
 10
10.475331
 20
307.958551
 30
0.0
 10
10.162765
 20
307.731797
 30
0.0
 10
9.809808
 20
307.575337
 30
0.0
 10
9.431935
 20
307.494457
 30
0.0
  0
LWPOLYLINE
  5
109
100
AcDbEntity
  8
Layer_1
 62
7
100
AcDbPolyline
 90
30
 70
1
 10
9.045608
 20
297.507931
 30
0.0
 10
8.667774
 20
297.588801
 30
0.0
 10
8.314815
 20
297.745262
 30
0.0
 10
8.002250
 20
297.972016
 30
0.0
 10
7.743666
 20
298.259616
 30
0.0
 10
7.550389
 20
298.594079
 30
0.0
 10
7.431101
 20
298.960665
 30
0.0
 10
7.390701
 20
299.345203
 30
0.0
 10
7.431101
 20
299.729665
 30
0.0
 10
7.550389
 20
300.096251
 30
0.0
 10
7.743666
 20
300.430714
 30
0.0
 10
8.002250
 20
300.718314
 30
0.0
 10
8.314815
 20
300.945068
 30
0.0
 10
8.667774
 20
301.101529
 30
0.0
 10
9.045608
 20
301.182409
 30
0.0
 10
9.431935
 20
301.182409
 30
0.0
 10
9.809808
 20
301.101529
 30
0.0
 10
10.162765
 20
300.945068
 30
0.0
 10
10.475331
 20
300.718314
 30
0.0
 10
10.733914
 20
300.430714
 30
0.0
 10
10.926815
 20
300.096251
 30
0.0
 10
11.046102
 20
299.729665
 30
0.0
 10
11.086502
 20
299.345203
 30
0.0
 10
11.046102
 20
298.960665
 30
0.0
 10
10.926815
 20
298.594079
 30
0.0
 10
10.733914
 20
298.259616
 30
0.0
 10
10.475331
 20
297.972016
 30
0.0
 10
10.162765
 20
297.745262
 30
0.0
 10
9.809808
 20
297.588801
 30
0.0
 10
9.431935
 20
297.507931
 30
0.0
  0
LWPOLYLINE
  5
10a
100
AcDbEntity
  8
Layer_1
 62
7
100
AcDbPolyline
 90
30
 70
1
 10
403.567250
 20
291.016709
 30
0.0
 10
403.188710
 20
291.097589
 30
0.0
 10
402.836120
 20
291.254049
 30
0.0
 10
402.523560
 20
291.480804
 30
0.0
 10
402.264970
 20
291.768404
 30
0.0
 10
402.072070
 20
292.102867
 30
0.0
 10
401.952030
 20
292.469453
 30
0.0
 10
401.912030
 20
292.853915
 30
0.0
 10
401.952030
 20
293.238452
 30
0.0
 10
402.072070
 20
293.605039
 30
0.0
 10
402.264970
 20
293.939501
 30
0.0
 10
402.523560
 20
294.227101
 30
0.0
 10
402.836120
 20
294.453856
 30
0.0
 10
403.188710
 20
294.610316
 30
0.0
 10
403.567250
 20
294.691196
 30
0.0
 10
403.952790
 20
294.691196
 30
0.0
 10
404.331340
 20
294.610316
 30
0.0
 10
404.683930
 20
294.453856
 30
0.0
 10
404.996490
 20
294.227101
 30
0.0
 10
405.255070
 20
293.939501
 30
0.0
 10
405.447980
 20
293.605039
 30
0.0
 10
405.568010
 20
293.238452
 30
0.0
 10
405.608010
 20
292.853915
 30
0.0
 10
405.568010
 20
292.469453
 30
0.0
 10
405.447980
 20
292.102867
 30
0.0
 10
405.255070
 20
291.768404
 30
0.0
 10
404.996490
 20
291.480804
 30
0.0
 10
404.683930
 20
291.254049
 30
0.0
 10
404.331340
 20
291.097589
 30
0.0
 10
403.952790
 20
291.016709
 30
0.0
  0
LWPOLYLINE
  5
10b
100
AcDbEntity
  8
Layer_1
 62
7
100
AcDbPolyline
 90
30
 70
1
 10
403.567250
 20
281.030221
 30
0.0
 10
403.188710
 20
281.111101
 30
0.0
 10
402.836120
 20
281.267561
 30
0.0
 10
402.523560
 20
281.494315
 30
0.0
 10
402.264970
 20
281.781915
 30
0.0
 10
402.072070
 20
282.116378
 30
0.0
 10
401.952030
 20
282.482964
 30
0.0
 10
401.912030
 20
282.867426
 30
0.0
 10
401.952030
 20
283.251926
 30
0.0
 10
402.072070
 20
283.618512
 30
0.0
 10
402.264970
 20
283.952975
 30
0.0
 10
402.523560
 20
284.240575
 30
0.0
 10
402.836120
 20
284.467329
 30
0.0
 10
403.188710
 20
284.623790
 30
0.0
 10
403.567250
 20
284.704670
 30
0.0
 10
403.952790
 20
284.704670
 30
0.0
 10
404.331340
 20
284.623790
 30
0.0
 10
404.683930
 20
284.467329
 30
0.0
 10
404.996490
 20
284.240575
 30
0.0
 10
405.255070
 20
283.952975
 30
0.0
 10
405.447980
 20
283.618512
 30
0.0
 10
405.568010
 20
283.251926
 30
0.0
 10
405.608010
 20
282.867426
 30
0.0
 10
405.568010
 20
282.482964
 30
0.0
 10
405.447980
 20
282.116378
 30
0.0
 10
405.255070
 20
281.781915
 30
0.0
 10
404.996490
 20
281.494315
 30
0.0
 10
404.683930
 20
281.267561
 30
0.0
 10
404.331340
 20
281.111101
 30
0.0
 10
403.952790
 20
281.030221
 30
0.0
  0
LWPOLYLINE
  5
10c
100
AcDbEntity
  8
Layer_1
 62
7
100
AcDbPolyline
 90
30
 70
1
 10
9.045608
 20
258.061252
 30
0.0
 10
8.667774
 20
258.142132
 30
0.0
 10
8.314815
 20
258.298592
 30
0.0
 10
8.002250
 20
258.525347
 30
0.0
 10
7.743666
 20
258.812947
 30
0.0
 10
7.550389
 20
259.147409
 30
0.0
 10
7.431101
 20
259.513996
 30
0.0
 10
7.390701
 20
259.898458
 30
0.0
 10
7.431101
 20
260.282957
 30
0.0
 10
7.550389
 20
260.649544
 30
0.0
 10
7.743666
 20
260.984006
 30
0.0
 10
8.002250
 20
261.271606
 30
0.0
 10
8.314815
 20
261.498361
 30
0.0
 10
8.667774
 20
261.654821
 30
0.0
 10
9.045608
 20
261.735701
 30
0.0
 10
9.431935
 20
261.735701
 30
0.0
 10
9.809808
 20
261.654821
 30
0.0
 10
10.162765
 20
261.498361
 30
0.0
 10
10.475331
 20
261.271606
 30
0.0
 10
10.733914
 20
260.984006
 30
0.0
 10
10.926815
 20
260.649544
 30
0.0
 10
11.046102
 20
260.282957
 30
0.0
 10
11.086502
 20
259.898458
 30
0.0
 10
11.046102
 20
259.513996
 30
0.0
 10
10.926815
 20
259.147409
 30
0.0
 10
10.733914
 20
258.812947
 30
0.0
 10
10.475331
 20
258.525347
 30
0.0
 10
10.162765
 20
258.298592
 30
0.0
 10
9.809808
 20
258.142132
 30
0.0
 10
9.431935
 20
258.061252
 30
0.0
  0
LWPOLYLINE
  5
10d
100
AcDbEntity
  8
Layer_1
 62
7
100
AcDbPolyline
 90
30
 70
1
 10
9.045608
 20
248.074763
 30
0.0
 10
8.667774
 20
248.155643
 30
0.0
 10
8.314815
 20
248.312104
 30
0.0
 10
8.002250
 20
248.538858
 30
0.0
 10
7.743666
 20
248.826458
 30
0.0
 10
7.550389
 20
249.160921
 30
0.0
 10
7.431101
 20
249.527507
 30
0.0
 10
7.390701
 20
249.911969
 30
0.0
 10
7.431101
 20
250.296469
 30
0.0
 10
7.550389
 20
250.663055
 30
0.0
 10
7.743666
 20
250.997518
 30
0.0
 10
8.002250
 20
251.285118
 30
0.0
 10
8.314815
 20
251.511872
 30
0.0
 10
8.667774
 20
251.668333
 30
0.0
 10
9.045608
 20
251.749203
 30
0.0
 10
9.431935
 20
251.749203
 30
0.0
 10
9.809808
 20
251.668333
 30
0.0
 10
10.162765
 20
251.511872
 30
0.0
 10
10.475331
 20
251.285118
 30
0.0
 10
10.733914
 20
250.997518
 30
0.0
 10
10.926815
 20
250.663055
 30
0.0
 10
11.046102
 20
250.296469
 30
0.0
 10
11.086502
 20
249.911969
 30
0.0
 10
11.046102
 20
249.527507
 30
0.0
 10
10.926815
 20
249.160921
 30
0.0
 10
10.733914
 20
248.826458
 30
0.0
 10
10.475331
 20
248.538858
 30
0.0
 10
10.162765
 20
248.312104
 30
0.0
 10
9.809808
 20
248.155643
 30
0.0
 10
9.431935
 20
248.074763
 30
0.0
  0
LWPOLYLINE
  5
10e
100
AcDbEntity
  8
Layer_1
 62
7
100
AcDbPolyline
 90
30
 70
1
 10
403.567250
 20
241.583504
 30
0.0
 10
403.188710
 20
241.664384
 30
0.0
 10
402.836120
 20
241.820845
 30
0.0
 10
402.523560
 20
242.047599
 30
0.0
 10
402.264970
 20
242.335199
 30
0.0
 10
402.072070
 20
242.669662
 30
0.0
 10
401.952030
 20
243.036248
 30
0.0
 10
401.912030
 20
243.420748
 30
0.0
 10
401.952030
 20
243.805210
 30
0.0
 10
402.072070
 20
244.171796
 30
0.0
 10
402.264970
 20
244.506259
 30
0.0
 10
402.523560
 20
244.793859
 30
0.0
 10
402.836120
 20
245.020613
 30
0.0
 10
403.188710
 20
245.177074
 30
0.0
 10
403.567250
 20
245.257944
 30
0.0
 10
403.952790
 20
245.257944
 30
0.0
 10
404.331340
 20
245.177074
 30
0.0
 10
404.683930
 20
245.020613
 30
0.0
 10
404.996490
 20
244.793859
 30
0.0
 10
405.255070
 20
244.506259
 30
0.0
 10
405.447980
 20
244.171796
 30
0.0
 10
405.568010
 20
243.805210
 30
0.0
 10
405.608010
 20
243.420748
 30
0.0
 10
405.568010
 20
243.036248
 30
0.0
 10
405.447980
 20
242.669662
 30
0.0
 10
405.255070
 20
242.335199
 30
0.0
 10
404.996490
 20
242.047599
 30
0.0
 10
404.683930
 20
241.820845
 30
0.0
 10
404.331340
 20
241.664384
 30
0.0
 10
403.952790
 20
241.583504
 30
0.0
  0
LWPOLYLINE
  5
10f
100
AcDbEntity
  8
Layer_1
 62
7
100
AcDbPolyline
 90
30
 70
1
 10
403.567250
 20
231.597016
 30
0.0
 10
403.188710
 20
231.677896
 30
0.0
 10
402.836120
 20
231.834356
 30
0.0
 10
402.523560
 20
232.061111
 30
0.0
 10
402.264970
 20
232.348711
 30
0.0
 10
402.072070
 20
232.683173
 30
0.0
 10
401.952030
 20
233.049759
 30
0.0
 10
401.912030
 20
233.434259
 30
0.0
 10
401.952030
 20
233.818721
 30
0.0
 10
402.072070
 20
234.185307
 30
0.0
 10
402.264970
 20
234.519770
 30
0.0
 10
402.523560
 20
234.807370
 30
0.0
 10
402.836120
 20
235.034125
 30
0.0
 10
403.188710
 20
235.190585
 30
0.0
 10
403.567250
 20
235.271465
 30
0.0
 10
403.952790
 20
235.271465
 30
0.0
 10
404.331340
 20
235.190585
 30
0.0
 10
404.683930
 20
235.034125
 30
0.0
 10
404.996490
 20
234.807370
 30
0.0
 10
405.255070
 20
234.519770
 30
0.0
 10
405.447980
 20
234.185307
 30
0.0
 10
405.568010
 20
233.818721
 30
0.0
 10
405.608010
 20
233.434259
 30
0.0
 10
405.568010
 20
233.049759
 30
0.0
 10
405.447980
 20
232.683173
 30
0.0
 10
405.255070
 20
232.348711
 30
0.0
 10
404.996490
 20
232.061111
 30
0.0
 10
404.683930
 20
231.834356
 30
0.0
 10
404.331340
 20
231.677896
 30
0.0
 10
403.952790
 20
231.597016
 30
0.0
  0
LWPOLYLINE
  5
110
100
AcDbEntity
  8
Layer_1
 62
7
100
AcDbPolyline
 90
30
 70
1
 10
9.045608
 20
168.182700
 30
0.0
 10
8.667774
 20
168.263600
 30
0.0
 10
8.314815
 20
168.420060
 30
0.0
 10
8.002250
 20
168.646810
 30
0.0
 10
7.743666
 20
168.934410
 30
0.0
 10
7.550389
 20
169.268880
 30
0.0
 10
7.431101
 20
169.635460
 30
0.0
 10
7.390701
 20
170.019930
 30
0.0
 10
7.431101
 20
170.404430
 30
0.0
 10
7.550389
 20
170.771010
 30
0.0
 10
7.743666
 20
171.105470
 30
0.0
 10
8.002250
 20
171.393070
 30
0.0
 10
8.314815
 20
171.619830
 30
0.0
 10
8.667774
 20
171.776290
 30
0.0
 10
9.045608
 20
171.857190
 30
0.0
 10
9.431935
 20
171.857190
 30
0.0
 10
9.809808
 20
171.776290
 30
0.0
 10
10.162765
 20
171.619830
 30
0.0
 10
10.475331
 20
171.393070
 30
0.0
 10
10.733914
 20
171.105470
 30
0.0
 10
10.926815
 20
170.771010
 30
0.0
 10
11.046102
 20
170.404430
 30
0.0
 10
11.086502
 20
170.019930
 30
0.0
 10
11.046102
 20
169.635460
 30
0.0
 10
10.926815
 20
169.268880
 30
0.0
 10
10.733914
 20
168.934410
 30
0.0
 10
10.475331
 20
168.646810
 30
0.0
 10
10.162765
 20
168.420060
 30
0.0
 10
9.809808
 20
168.263600
 30
0.0
 10
9.431935
 20
168.182700
 30
0.0
  0
LWPOLYLINE
  5
111
100
AcDbEntity
  8
Layer_1
 62
7
100
AcDbPolyline
 90
30
 70
1
 10
9.045608
 20
158.196220
 30
0.0
 10
8.667774
 20
158.277120
 30
0.0
 10
8.314815
 20
158.433580
 30
0.0
 10
8.002250
 20
158.660330
 30
0.0
 10
7.743666
 20
158.947930
 30
0.0
 10
7.550389
 20
159.282390
 30
0.0
 10
7.431101
 20
159.648980
 30
0.0
 10
7.390701
 20
160.033440
 30
0.0
 10
7.431101
 20
160.417940
 30
0.0
 10
7.550389
 20
160.784530
 30
0.0
 10
7.743666
 20
161.118990
 30
0.0
 10
8.002250
 20
161.406590
 30
0.0
 10
8.314815
 20
161.633340
 30
0.0
 10
8.667774
 20
161.789800
 30
0.0
 10
9.045608
 20
161.870700
 30
0.0
 10
9.431935
 20
161.870700
 30
0.0
 10
9.809808
 20
161.789800
 30
0.0
 10
10.162765
 20
161.633340
 30
0.0
 10
10.475331
 20
161.406590
 30
0.0
 10
10.733914
 20
161.118990
 30
0.0
 10
10.926815
 20
160.784530
 30
0.0
 10
11.046102
 20
160.417940
 30
0.0
 10
11.086502
 20
160.033440
 30
0.0
 10
11.046102
 20
159.648980
 30
0.0
 10
10.926815
 20
159.282390
 30
0.0
 10
10.733914
 20
158.947930
 30
0.0
 10
10.475331
 20
158.660330
 30
0.0
 10
10.162765
 20
158.433580
 30
0.0
 10
9.809808
 20
158.277120
 30
0.0
 10
9.431935
 20
158.196220
 30
0.0
  0
LWPOLYLINE
  5
112
100
AcDbEntity
  8
Layer_1
 62
7
100
AcDbPolyline
 90
30
 70
1
 10
403.567250
 20
129.235340
 30
0.0
 10
403.188710
 20
129.316240
 30
0.0
 10
402.836120
 20
129.472700
 30
0.0
 10
402.523560
 20
129.699450
 30
0.0
 10
402.264970
 20
129.987050
 30
0.0
 10
402.072070
 20
130.321520
 30
0.0
 10
401.952030
 20
130.688100
 30
0.0
 10
401.912030
 20
131.072560
 30
0.0
 10
401.952030
 20
131.457060
 30
0.0
 10
402.072070
 20
131.823650
 30
0.0
 10
402.264970
 20
132.158110
 30
0.0
 10
402.523560
 20
132.445710
 30
0.0
 10
402.836120
 20
132.672470
 30
0.0
 10
403.188710
 20
132.828930
 30
0.0
 10
403.567250
 20
132.909830
 30
0.0
 10
403.952790
 20
132.909830
 30
0.0
 10
404.331340
 20
132.828930
 30
0.0
 10
404.683930
 20
132.672470
 30
0.0
 10
404.996490
 20
132.445710
 30
0.0
 10
405.255070
 20
132.158110
 30
0.0
 10
405.447980
 20
131.823650
 30
0.0
 10
405.568010
 20
131.457060
 30
0.0
 10
405.608010
 20
131.072560
 30
0.0
 10
405.568010
 20
130.688100
 30
0.0
 10
405.447980
 20
130.321520
 30
0.0
 10
405.255070
 20
129.987050
 30
0.0
 10
404.996490
 20
129.699450
 30
0.0
 10
404.683930
 20
129.472700
 30
0.0
 10
404.331340
 20
129.316240
 30
0.0
 10
403.952790
 20
129.235340
 30
0.0
  0
LWPOLYLINE
  5
113
100
AcDbEntity
  8
Layer_1
 62
7
100
AcDbPolyline
 90
30
 70
1
 10
403.567250
 20
119.248850
 30
0.0
 10
403.188710
 20
119.329750
 30
0.0
 10
402.836120
 20
119.486210
 30
0.0
 10
402.523560
 20
119.712970
 30
0.0
 10
402.264970
 20
120.000570
 30
0.0
 10
402.072070
 20
120.335030
 30
0.0
 10
401.952030
 20
120.701610
 30
0.0
 10
401.912030
 20
121.086080
 30
0.0
 10
401.952030
 20
121.470580
 30
0.0
 10
402.072070
 20
121.837160
 30
0.0
 10
402.264970
 20
122.171630
 30
0.0
 10
402.523560
 20
122.459230
 30
0.0
 10
402.836120
 20
122.685980
 30
0.0
 10
403.188710
 20
122.842440
 30
0.0
 10
403.567250
 20
122.923340
 30
0.0
 10
403.952790
 20
122.923340
 30
0.0
 10
404.331340
 20
122.842440
 30
0.0
 10
404.683930
 20
122.685980
 30
0.0
 10
404.996490
 20
122.459230
 30
0.0
 10
405.255070
 20
122.171630
 30
0.0
 10
405.447980
 20
121.837160
 30
0.0
 10
405.568010
 20
121.470580
 30
0.0
 10
405.608010
 20
121.086080
 30
0.0
 10
405.568010
 20
120.701610
 30
0.0
 10
405.447980
 20
120.335030
 30
0.0
 10
405.255070
 20
120.000570
 30
0.0
 10
404.996490
 20
119.712970
 30
0.0
 10
404.683930
 20
119.486210
 30
0.0
 10
404.331340
 20
119.329750
 30
0.0
 10
403.952790
 20
119.248850
 30
0.0
  0
LWPOLYLINE
  5
114
100
AcDbEntity
  8
Layer_1
 62
7
100
AcDbPolyline
 90
30
 70
1
 10
9.045608
 20
118.749500
 30
0.0
 10
8.667774
 20
118.830400
 30
0.0
 10
8.314815
 20
118.986860
 30
0.0
 10
8.002250
 20
119.213610
 30
0.0
 10
7.743666
 20
119.501210
 30
0.0
 10
7.550389
 20
119.835680
 30
0.0
 10
7.431101
 20
120.202260
 30
0.0
 10
7.390701
 20
120.586760
 30
0.0
 10
7.431101
 20
120.971230
 30
0.0
 10
7.550389
 20
121.337810
 30
0.0
 10
7.743666
 20
121.672270
 30
0.0
 10
8.002250
 20
121.959870
 30
0.0
 10
8.314815
 20
122.186630
 30
0.0
 10
8.667774
 20
122.343090
 30
0.0
 10
9.045608
 20
122.423990
 30
0.0
 10
9.431935
 20
122.423990
 30
0.0
 10
9.809808
 20
122.343090
 30
0.0
 10
10.162765
 20
122.186630
 30
0.0
 10
10.475331
 20
121.959870
 30
0.0
 10
10.733914
 20
121.672270
 30
0.0
 10
10.926815
 20
121.337810
 30
0.0
 10
11.046102
 20
120.971230
 30
0.0
 10
11.086502
 20
120.586760
 30
0.0
 10
11.046102
 20
120.202260
 30
0.0
 10
10.926815
 20
119.835680
 30
0.0
 10
10.733914
 20
119.501210
 30
0.0
 10
10.475331
 20
119.213610
 30
0.0
 10
10.162765
 20
118.986860
 30
0.0
 10
9.809808
 20
118.830400
 30
0.0
 10
9.431935
 20
118.749500
 30
0.0
  0
LWPOLYLINE
  5
115
100
AcDbEntity
  8
Layer_1
 62
7
100
AcDbPolyline
 90
30
 70
1
 10
9.045608
 20
108.763010
 30
0.0
 10
8.667774
 20
108.843910
 30
0.0
 10
8.314815
 20
109.000370
 30
0.0
 10
8.002250
 20
109.227120
 30
0.0
 10
7.743666
 20
109.514720
 30
0.0
 10
7.550389
 20
109.849180
 30
0.0
 10
7.431101
 20
110.215770
 30
0.0
 10
7.390701
 20
110.600270
 30
0.0
 10
7.431101
 20
110.984730
 30
0.0
 10
7.550389
 20
111.351320
 30
0.0
 10
7.743666
 20
111.685780
 30
0.0
 10
8.002250
 20
111.973380
 30
0.0
 10
8.314815
 20
112.200140
 30
0.0
 10
8.667774
 20
112.356600
 30
0.0
 10
9.045608
 20
112.437500
 30
0.0
 10
9.431935
 20
112.437500
 30
0.0
 10
9.809808
 20
112.356600
 30
0.0
 10
10.162765
 20
112.200140
 30
0.0
 10
10.475331
 20
111.973380
 30
0.0
 10
10.733914
 20
111.685780
 30
0.0
 10
10.926815
 20
111.351320
 30
0.0
 10
11.046102
 20
110.984730
 30
0.0
 10
11.086502
 20
110.600270
 30
0.0
 10
11.046102
 20
110.215770
 30
0.0
 10
10.926815
 20
109.849180
 30
0.0
 10
10.733914
 20
109.514720
 30
0.0
 10
10.475331
 20
109.227120
 30
0.0
 10
10.162765
 20
109.000370
 30
0.0
 10
9.809808
 20
108.843910
 30
0.0
 10
9.431935
 20
108.763010
 30
0.0
  0
LWPOLYLINE
  5
116
100
AcDbEntity
  8
Layer_1
 62
7
100
AcDbPolyline
 90
30
 70
1
 10
403.567250
 20
79.802250
 30
0.0
 10
403.188710
 20
79.882750
 30
0.0
 10
402.836120
 20
80.039960
 30
0.0
 10
402.523560
 20
80.266720
 30
0.0
 10
402.264970
 20
80.554320
 30
0.0
 10
402.072070
 20
80.888780
 30
0.0
 10
401.952030
 20
81.255360
 30
0.0
 10
401.912030
 20
81.639860
 30
0.0
 10
401.952030
 20
82.024330
 30
0.0
 10
402.072070
 20
82.390910
 30
0.0
 10
402.264970
 20
82.725380
 30
0.0
 10
402.523560
 20
83.012980
 30
0.0
 10
402.836120
 20
83.239730
 30
0.0
 10
403.188710
 20
83.396190
 30
0.0
 10
403.567250
 20
83.477090
 30
0.0
 10
403.952790
 20
83.477090
 30
0.0
 10
404.331340
 20
83.396190
 30
0.0
 10
404.683930
 20
83.239730
 30
0.0
 10
404.996490
 20
83.012980
 30
0.0
 10
405.255070
 20
82.725380
 30
0.0
 10
405.447980
 20
82.390910
 30
0.0
 10
405.568010
 20
82.024330
 30
0.0
 10
405.608010
 20
81.639860
 30
0.0
 10
405.568010
 20
81.255360
 30
0.0
 10
405.447980
 20
80.888780
 30
0.0
 10
405.255070
 20
80.554320
 30
0.0
 10
404.996490
 20
80.266720
 30
0.0
 10
404.683930
 20
80.039960
 30
0.0
 10
404.331340
 20
79.882750
 30
0.0
 10
403.952790
 20
79.802250
 30
0.0
  0
LWPOLYLINE
  5
117
100
AcDbEntity
  8
Layer_1
 62
7
100
AcDbPolyline
 90
30
 70
1
 10
403.567250
 20
69.815760
 30
0.0
 10
403.188710
 20
69.896260
 30
0.0
 10
402.836120
 20
70.053470
 30
0.0
 10
402.523560
 20
70.280610
 30
0.0
 10
402.264970
 20
70.567450
 30
0.0
 10
402.072070
 20
70.901910
 30
0.0
 10
401.952030
 20
71.269250
 30
0.0
 10
401.912030
 20
71.653300
 30
0.0
 10
401.952030
 20
72.037380
 30
0.0
 10
402.072070
 20
72.404730
 30
0.0
 10
402.264970
 20
72.739190
 30
0.0
 10
402.523560
 20
73.026030
 30
0.0
 10
402.836120
 20
73.252790
 30
0.0
 10
403.188710
 20
73.410000
 30
0.0
 10
403.567250
 20
73.490500
 30
0.0
 10
403.952790
 20
73.490500
 30
0.0
 10
404.331340
 20
73.410000
 30
0.0
 10
404.683930
 20
73.252790
 30
0.0
 10
404.996490
 20
73.026030
 30
0.0
 10
405.255070
 20
72.739190
 30
0.0
 10
405.447980
 20
72.404730
 30
0.0
 10
405.568010
 20
72.037380
 30
0.0
 10
405.608010
 20
71.653300
 30
0.0
 10
405.568010
 20
71.269250
 30
0.0
 10
405.447980
 20
70.901910
 30
0.0
 10
405.255070
 20
70.567450
 30
0.0
 10
404.996490
 20
70.280610
 30
0.0
 10
404.683930
 20
70.053470
 30
0.0
 10
404.331340
 20
69.896260
 30
0.0
 10
403.952790
 20
69.815760
 30
0.0
  0
LWPOLYLINE
  5
118
100
AcDbEntity
  8
Layer_1
 62
7
100
AcDbPolyline
 90
30
 70
1
 10
263.736930
 20
5.902100
 30
0.0
 10
263.358380
 20
5.982600
 30
0.0
 10
263.005800
 20
6.139440
 30
0.0
 10
262.693230
 20
6.366580
 30
0.0
 10
262.434640
 20
6.653420
 30
0.0
 10
262.241750
 20
6.987880
 30
0.0
 10
262.122080
 20
7.355220
 30
0.0
 10
262.082080
 20
7.739310
 30
0.0
 10
262.122080
 20
8.123390
 30
0.0
 10
262.241750
 20
8.490730
 30
0.0
 10
262.434640
 20
8.825200
 30
0.0
 10
262.693230
 20
9.112040
 30
0.0
 10
263.005800
 20
9.338800
 30
0.0
 10
263.358380
 20
9.496010
 30
0.0
 10
263.736930
 20
9.576510
 30
0.0
 10
264.122460
 20
9.576510
 30
0.0
 10
264.501020
 20
9.496010
 30
0.0
 10
264.853600
 20
9.338800
 30
0.0
 10
265.166170
 20
9.112040
 30
0.0
 10
265.424740
 20
8.825200
 30
0.0
 10
265.617650
 20
8.490730
 30
0.0
 10
265.737310
 20
8.123390
 30
0.0
 10
265.777310
 20
7.739310
 30
0.0
 10
265.737310
 20
7.355220
 30
0.0
 10
265.617650
 20
6.987880
 30
0.0
 10
265.424740
 20
6.653420
 30
0.0
 10
265.166170
 20
6.366580
 30
0.0
 10
264.853600
 20
6.139440
 30
0.0
 10
264.501020
 20
5.982600
 30
0.0
 10
264.122460
 20
5.902100
 30
0.0
  0
LWPOLYLINE
  5
119
100
AcDbEntity
  8
Layer_1
 62
7
100
AcDbPolyline
 90
30
 70
1
 10
83.954711
 20
5.902100
 30
0.0
 10
83.576871
 20
5.982600
 30
0.0
 10
83.223911
 20
6.139440
 30
0.0
 10
82.911341
 20
6.366580
 30
0.0
 10
82.652761
 20
6.653420
 30
0.0
 10
82.459491
 20
6.987880
 30
0.0
 10
82.340201
 20
7.355220
 30
0.0
 10
82.299801
 20
7.739310
 30
0.0
 10
82.340201
 20
8.123390
 30
0.0
 10
82.459491
 20
8.490730
 30
0.0
 10
82.652761
 20
8.825200
 30
0.0
 10
82.911341
 20
9.112040
 30
0.0
 10
83.223911
 20
9.338800
 30
0.0
 10
83.576871
 20
9.496010
 30
0.0
 10
83.954711
 20
9.576510
 30
0.0
 10
84.341031
 20
9.576510
 30
0.0
 10
84.718911
 20
9.496010
 30
0.0
 10
85.071861
 20
9.338800
 30
0.0
 10
85.384421
 20
9.112040
 30
0.0
 10
85.643011
 20
8.825200
 30
0.0
 10
85.836291
 20
8.490730
 30
0.0
 10
85.955581
 20
8.123390
 30
0.0
 10
85.995981
 20
7.739310
 30
0.0
 10
85.955581
 20
7.355220
 30
0.0
 10
85.836291
 20
6.987880
 30
0.0
 10
85.643011
 20
6.653420
 30
0.0
 10
85.384421
 20
6.366580
 30
0.0
 10
85.071861
 20
6.139440
 30
0.0
 10
84.718911
 20
5.982600
 30
0.0
 10
84.341031
 20
5.902100
 30
0.0
  0
LWPOLYLINE
  5
11a
100
AcDbEntity
  8
Layer_1
 62
7
100
AcDbPolyline
 90
30
 70
1
 10
313.176910
 20
5.902100
 30
0.0
 10
312.798400
 20
5.982600
 30
0.0
 10
312.445820
 20
6.139440
 30
0.0
 10
312.133260
 20
6.366580
 30
0.0
 10
311.874670
 20
6.653420
 30
0.0
 10
311.681770
 20
6.987880
 30
0.0
 10
311.562100
 20
7.355220
 30
0.0
 10
311.522100
 20
7.739310
 30
0.0
 10
311.562100
 20
8.123390
 30
0.0
 10
311.681770
 20
8.490730
 30
0.0
 10
311.874670
 20
8.825200
 30
0.0
 10
312.133260
 20
9.112040
 30
0.0
 10
312.445820
 20
9.338800
 30
0.0
 10
312.798400
 20
9.496010
 30
0.0
 10
313.176910
 20
9.576510
 30
0.0
 10
313.562440
 20
9.576510
 30
0.0
 10
313.941000
 20
9.496010
 30
0.0
 10
314.293580
 20
9.338800
 30
0.0
 10
314.606150
 20
9.112040
 30
0.0
 10
314.864730
 20
8.825200
 30
0.0
 10
315.057630
 20
8.490730
 30
0.0
 10
315.177290
 20
8.123390
 30
0.0
 10
315.217290
 20
7.739310
 30
0.0
 10
315.177290
 20
7.355220
 30
0.0
 10
315.057630
 20
6.987880
 30
0.0
 10
314.864730
 20
6.653420
 30
0.0
 10
314.606150
 20
6.366580
 30
0.0
 10
314.293580
 20
6.139440
 30
0.0
 10
313.941000
 20
5.982600
 30
0.0
 10
313.562440
 20
5.902100
 30
0.0
  0
LWPOLYLINE
  5
11b
100
AcDbEntity
  8
Layer_1
 62
7
100
AcDbPolyline
 90
30
 70
1
 10
303.189050
 20
5.902100
 30
0.0
 10
302.810500
 20
5.982600
 30
0.0
 10
302.457920
 20
6.139440
 30
0.0
 10
302.145350
 20
6.366580
 30
0.0
 10
301.886760
 20
6.653420
 30
0.0
 10
301.693870
 20
6.987880
 30
0.0
 10
301.574200
 20
7.355220
 30
0.0
 10
301.534200
 20
7.739310
 30
0.0
 10
301.574200
 20
8.123390
 30
0.0
 10
301.693870
 20
8.490730
 30
0.0
 10
301.886760
 20
8.825200
 30
0.0
 10
302.145350
 20
9.112040
 30
0.0
 10
302.457920
 20
9.338800
 30
0.0
 10
302.810500
 20
9.496010
 30
0.0
 10
303.189050
 20
9.576510
 30
0.0
 10
303.574580
 20
9.576510
 30
0.0
 10
303.953140
 20
9.496010
 30
0.0
 10
304.305720
 20
9.338800
 30
0.0
 10
304.618280
 20
9.112040
 30
0.0
 10
304.876860
 20
8.825200
 30
0.0
 10
305.069770
 20
8.490730
 30
0.0
 10
305.189810
 20
8.123390
 30
0.0
 10
305.229810
 20
7.739310
 30
0.0
 10
305.189810
 20
7.355220
 30
0.0
 10
305.069770
 20
6.987880
 30
0.0
 10
304.876860
 20
6.653420
 30
0.0
 10
304.618280
 20
6.366580
 30
0.0
 10
304.305720
 20
6.139440
 30
0.0
 10
303.953140
 20
5.982600
 30
0.0
 10
303.574580
 20
5.902100
 30
0.0
  0
LWPOLYLINE
  5
11c
100
AcDbEntity
  8
Layer_1
 62
7
100
AcDbPolyline
 90
30
 70
1
 10
133.395100
 20
5.902100
 30
0.0
 10
133.016580
 20
5.982600
 30
0.0
 10
132.664010
 20
6.139440
 30
0.0
 10
132.351450
 20
6.366580
 30
0.0
 10
132.092860
 20
6.653420
 30
0.0
 10
131.899960
 20
6.987880
 30
0.0
 10
131.780290
 20
7.355220
 30
0.0
 10
131.740290
 20
7.739310
 30
0.0
 10
131.780290
 20
8.123390
 30
0.0
 10
131.899960
 20
8.490730
 30
0.0
 10
132.092860
 20
8.825200
 30
0.0
 10
132.351450
 20
9.112040
 30
0.0
 10
132.664010
 20
9.338800
 30
0.0
 10
133.016580
 20
9.496010
 30
0.0
 10
133.395100
 20
9.576510
 30
0.0
 10
133.780630
 20
9.576510
 30
0.0
 10
134.159190
 20
9.496010
 30
0.0
 10
134.511770
 20
9.338800
 30
0.0
 10
134.824340
 20
9.112040
 30
0.0
 10
135.082920
 20
8.825200
 30
0.0
 10
135.275810
 20
8.490730
 30
0.0
 10
135.395480
 20
8.123390
 30
0.0
 10
135.435480
 20
7.739310
 30
0.0
 10
135.395480
 20
7.355220
 30
0.0
 10
135.275810
 20
6.987880
 30
0.0
 10
135.082920
 20
6.653420
 30
0.0
 10
134.824340
 20
6.366580
 30
0.0
 10
134.511770
 20
6.139440
 30
0.0
 10
134.159190
 20
5.982600
 30
0.0
 10
133.780630
 20
5.902100
 30
0.0
  0
LWPOLYLINE
  5
11d
100
AcDbEntity
  8
Layer_1
 62
7
100
AcDbPolyline
 90
30
 70
1
 10
143.383010
 20
5.902100
 30
0.0
 10
143.004450
 20
5.982600
 30
0.0
 10
142.651880
 20
6.139440
 30
0.0
 10
142.339310
 20
6.366580
 30
0.0
 10
142.080720
 20
6.653420
 30
0.0
 10
141.887830
 20
6.987880
 30
0.0
 10
141.767780
 20
7.355220
 30
0.0
 10
141.727780
 20
7.739310
 30
0.0
 10
141.767780
 20
8.123390
 30
0.0
 10
141.887830
 20
8.490730
 30
0.0
 10
142.080720
 20
8.825200
 30
0.0
 10
142.339310
 20
9.112040
 30
0.0
 10
142.651880
 20
9.338800
 30
0.0
 10
143.004450
 20
9.496010
 30
0.0
 10
143.383010
 20
9.576510
 30
0.0
 10
143.768540
 20
9.576510
 30
0.0
 10
144.147060
 20
9.496010
 30
0.0
 10
144.499640
 20
9.338800
 30
0.0
 10
144.812210
 20
9.112040
 30
0.0
 10
145.070780
 20
8.825200
 30
0.0
 10
145.263690
 20
8.490730
 30
0.0
 10
145.383730
 20
8.123390
 30
0.0
 10
145.423730
 20
7.739310
 30
0.0
 10
145.383730
 20
7.355220
 30
0.0
 10
145.263690
 20
6.987880
 30
0.0
 10
145.070780
 20
6.653420
 30
0.0
 10
144.812210
 20
6.366580
 30
0.0
 10
144.499640
 20
6.139440
 30
0.0
 10
144.147060
 20
5.982600
 30
0.0
 10
143.768540
 20
5.902100
 30
0.0
  0
LWPOLYLINE
  5
11e
100
AcDbEntity
  8
Layer_1
 62
7
100
AcDbPolyline
 90
30
 70
1
 10
93.942981
 20
5.902100
 30
0.0
 10
93.564471
 20
5.982600
 30
0.0
 10
93.211891
 20
6.139440
 30
0.0
 10
92.899331
 20
6.366580
 30
0.0
 10
92.640741
 20
6.653420
 30
0.0
 10
92.447841
 20
6.987880
 30
0.0
 10
92.328171
 20
7.355220
 30
0.0
 10
92.288171
 20
7.739310
 30
0.0
 10
92.328171
 20
8.123390
 30
0.0
 10
92.447841
 20
8.490730
 30
0.0
 10
92.640741
 20
8.825200
 30
0.0
 10
92.899331
 20
9.112040
 30
0.0
 10
93.211891
 20
9.338800
 30
0.0
 10
93.564471
 20
9.496010
 30
0.0
 10
93.942981
 20
9.576510
 30
0.0
 10
94.328521
 20
9.576510
 30
0.0
 10
94.707071
 20
9.496010
 30
0.0
 10
95.059661
 20
9.338800
 30
0.0
 10
95.372221
 20
9.112040
 30
0.0
 10
95.630801
 20
8.825200
 30
0.0
 10
95.823701
 20
8.490730
 30
0.0
 10
95.943361
 20
8.123390
 30
0.0
 10
95.983361
 20
7.739310
 30
0.0
 10
95.943361
 20
7.355220
 30
0.0
 10
95.823701
 20
6.987880
 30
0.0
 10
95.630801
 20
6.653420
 30
0.0
 10
95.372221
 20
6.366580
 30
0.0
 10
95.059661
 20
6.139440
 30
0.0
 10
94.707071
 20
5.982600
 30
0.0
 10
94.328521
 20
5.902100
 30
0.0
  0
LWPOLYLINE
  5
11f
100
AcDbEntity
  8
Layer_1
 62
7
100
AcDbPolyline
 90
30
 70
1
 10
253.749060
 20
5.902100
 30
0.0
 10
253.370510
 20
5.982600
 30
0.0
 10
253.017930
 20
6.139440
 30
0.0
 10
252.705370
 20
6.366580
 30
0.0
 10
252.446820
 20
6.653420
 30
0.0
 10
252.253920
 20
6.987880
 30
0.0
 10
252.133870
 20
7.355220
 30
0.0
 10
252.093870
 20
7.739310
 30
0.0
 10
252.133870
 20
8.123390
 30
0.0
 10
252.253920
 20
8.490730
 30
0.0
 10
252.446820
 20
8.825200
 30
0.0
 10
252.705370
 20
9.112040
 30
0.0
 10
253.017930
 20
9.338800
 30
0.0
 10
253.370510
 20
9.496010
 30
0.0
 10
253.749060
 20
9.576510
 30
0.0
 10
254.134590
 20
9.576510
 30
0.0
 10
254.513110
 20
9.496010
 30
0.0
 10
254.865690
 20
9.338800
 30
0.0
 10
255.178260
 20
9.112040
 30
0.0
 10
255.436840
 20
8.825200
 30
0.0
 10
255.629740
 20
8.490730
 30
0.0
 10
255.749400
 20
8.123390
 30
0.0
 10
255.789400
 20
7.739310
 30
0.0
 10
255.749400
 20
7.355220
 30
0.0
 10
255.629740
 20
6.987880
 30
0.0
 10
255.436840
 20
6.653420
 30
0.0
 10
255.178260
 20
6.366580
 30
0.0
 10
254.865690
 20
6.139440
 30
0.0
 10
254.513110
 20
5.982600
 30
0.0
 10
254.134590
 20
5.902100
 30
0.0
  0
LWPOLYLINE
  5
120
100
AcDbEntity
  8
Layer_1
 62
7
100
AcDbPolyline
 90
30
 70
1
 10
133.395100
 20
360.422930
 30
0.0
 10
133.016580
 20
360.503830
 30
0.0
 10
132.664010
 20
360.660670
 30
0.0
 10
132.351450
 20
360.887430
 30
0.0
 10
132.092860
 20
361.175030
 30
0.0
 10
131.899960
 20
361.509490
 30
0.0
 10
131.780290
 20
361.876080
 30
0.0
 10
131.740290
 20
362.260580
 30
0.0
 10
131.780290
 20
362.645040
 30
0.0
 10
131.899960
 20
363.011620
 30
0.0
 10
132.092860
 20
363.346090
 30
0.0
 10
132.351450
 20
363.633690
 30
0.0
 10
132.664010
 20
363.860440
 30
0.0
 10
133.016580
 20
364.016900
 30
0.0
 10
133.395100
 20
364.097800
 30
0.0
 10
133.780630
 20
364.097800
 30
0.0
 10
134.159190
 20
364.016900
 30
0.0
 10
134.511770
 20
363.860440
 30
0.0
 10
134.824340
 20
363.633690
 30
0.0
 10
135.082920
 20
363.346090
 30
0.0
 10
135.275810
 20
363.011620
 30
0.0
 10
135.395480
 20
362.645040
 30
0.0
 10
135.435480
 20
362.260580
 30
0.0
 10
135.395480
 20
361.876080
 30
0.0
 10
135.275810
 20
361.509490
 30
0.0
 10
135.082920
 20
361.175030
 30
0.0
 10
134.824340
 20
360.887430
 30
0.0
 10
134.511770
 20
360.660670
 30
0.0
 10
134.159190
 20
360.503830
 30
0.0
 10
133.780630
 20
360.422930
 30
0.0
  0
ENDSEC
  0
SECTION
  2
OBJECTS
  0
DICTIONARY
  5
C
330
0
100
AcDbDictionary
  3
ACAD_GROUP
350
D
  3
ACAD_MLINESTYLE
350
17
  0
DICTIONARY
  5
D
330
C
100
AcDbDictionary
  0
DICTIONARY
  5
1A
330
C
100
AcDbDictionary
  0
DICTIONARY
  5
17
330
C
100
AcDbDictionary
  3
STANDARD
350
18
  0
DICTIONARY
  5
19
330
C
100
AcDbDictionary
  0
ENDSEC
  0
EOF
