<?xml version="1.0" encoding="UTF-8" standalone="no"?>
<!-- Created with Inkscape (http://www.inkscape.org/) -->

<svg
   xmlns:dc="http://purl.org/dc/elements/1.1/"
   xmlns:cc="http://creativecommons.org/ns#"
   xmlns:rdf="http://www.w3.org/1999/02/22-rdf-syntax-ns#"
   xmlns:svg="http://www.w3.org/2000/svg"
   xmlns="http://www.w3.org/2000/svg"
   xmlns:sodipodi="http://sodipodi.sourceforge.net/DTD/sodipodi-0.dtd"
   xmlns:inkscape="http://www.inkscape.org/namespaces/inkscape"
   width="210mm"
   height="297mm"
   viewBox="0 0 210 297"
   version="1.1"
   id="svg208"
   inkscape:version="0.92.2 (5c3e80d, 2017-08-06)"
   sodipodi:docname="alu_complete.svg">
  <defs
     id="defs202">
    <marker
       style="overflow:visible"
       refY="0.0"
       refX="0.0"
       orient="auto"
       id="DistanceX">
      <path
         id="path5745"
         style="stroke:#000000; stroke-width:0.5"
         d="M 3,-3 L -3,3 M 0,-5 L  0,5" />
    </marker>
    <pattern
       y="0"
       x="0"
       width="8"
       patternUnits="userSpaceOnUse"
       id="Hatch"
       height="8">
      <path
         id="path5748"
         stroke-width="0.25"
         stroke="#000000"
         linecap="square"
         d="M8 4 l-4,4" />
      <path
         id="path5750"
         stroke-width="0.25"
         stroke="#000000"
         linecap="square"
         d="M6 2 l-4,4" />
      <path
         id="path5752"
         stroke-width="0.25"
         stroke="#000000"
         linecap="square"
         d="M4 0 l-4,4" />
    </pattern>
    <symbol
       id="*MODEL_SPACE" />
    <symbol
       id="*PAPER_SPACE" />
    <marker
       style="overflow:visible"
       refY="0.0"
       refX="0.0"
       orient="auto"
       id="DistanceX-0">
      <path
         id="path5858"
         style="stroke:#000000; stroke-width:0.5"
         d="M 3,-3 L -3,3 M 0,-5 L  0,5" />
    </marker>
    <pattern
       y="0"
       x="0"
       width="8"
       patternUnits="userSpaceOnUse"
       id="Hatch-9"
       height="8">
      <path
         id="path5861"
         stroke-width="0.25"
         stroke="#000000"
         linecap="square"
         d="M8 4 l-4,4" />
      <path
         id="path5863"
         stroke-width="0.25"
         stroke="#000000"
         linecap="square"
         d="M6 2 l-4,4" />
      <path
         id="path5865"
         stroke-width="0.25"
         stroke="#000000"
         linecap="square"
         d="M4 0 l-4,4" />
    </pattern>
    <symbol
       id="*MODEL_SPACE-3" />
    <symbol
       id="*PAPER_SPACE-2" />
    <marker
       style="overflow:visible"
       refY="0.0"
       refX="0.0"
       orient="auto"
       id="DistanceX-8">
      <path
         id="path5977"
         style="stroke:#000000; stroke-width:0.5"
         d="M 3,-3 L -3,3 M 0,-5 L  0,5" />
    </marker>
    <pattern
       y="0"
       x="0"
       width="8"
       patternUnits="userSpaceOnUse"
       id="Hatch-5"
       height="8">
      <path
         id="path5980"
         stroke-width="0.25"
         stroke="#000000"
         linecap="square"
         d="M8 4 l-4,4" />
      <path
         id="path5982"
         stroke-width="0.25"
         stroke="#000000"
         linecap="square"
         d="M6 2 l-4,4" />
      <path
         id="path5984"
         stroke-width="0.25"
         stroke="#000000"
         linecap="square"
         d="M4 0 l-4,4" />
    </pattern>
    <symbol
       id="*MODEL_SPACE-0" />
    <symbol
       id="*PAPER_SPACE-0" />
    <marker
       style="overflow:visible"
       refY="0.0"
       refX="0.0"
       orient="auto"
       id="DistanceX-6">
      <path
         id="path6096"
         style="stroke:#000000; stroke-width:0.5"
         d="M 3,-3 L -3,3 M 0,-5 L  0,5" />
    </marker>
    <pattern
       y="0"
       x="0"
       width="8"
       patternUnits="userSpaceOnUse"
       id="Hatch-2"
       height="8">
      <path
         id="path6099"
         stroke-width="0.25"
         stroke="#000000"
         linecap="square"
         d="M8 4 l-4,4" />
      <path
         id="path6101"
         stroke-width="0.25"
         stroke="#000000"
         linecap="square"
         d="M6 2 l-4,4" />
      <path
         id="path6103"
         stroke-width="0.25"
         stroke="#000000"
         linecap="square"
         d="M4 0 l-4,4" />
    </pattern>
    <symbol
       id="*MODEL_SPACE-8" />
    <symbol
       id="*PAPER_SPACE-9" />
    <marker
       style="overflow:visible"
       refY="0.0"
       refX="0.0"
       orient="auto"
       id="DistanceX-60">
      <path
         id="path6242"
         style="stroke:#000000; stroke-width:0.5"
         d="M 3,-3 L -3,3 M 0,-5 L  0,5" />
    </marker>
    <pattern
       y="0"
       x="0"
       width="8"
       patternUnits="userSpaceOnUse"
       id="Hatch-22"
       height="8">
      <path
         id="path6245"
         stroke-width="0.25"
         stroke="#000000"
         linecap="square"
         d="M8 4 l-4,4" />
      <path
         id="path6247"
         stroke-width="0.25"
         stroke="#000000"
         linecap="square"
         d="M6 2 l-4,4" />
      <path
         id="path6249"
         stroke-width="0.25"
         stroke="#000000"
         linecap="square"
         d="M4 0 l-4,4" />
    </pattern>
    <symbol
       id="*MODEL_SPACE-5" />
    <symbol
       id="*PAPER_SPACE-08" />
    <marker
       style="overflow:visible"
       refY="0.0"
       refX="0.0"
       orient="auto"
       id="DistanceX-2">
      <path
         id="path6379"
         style="stroke:#000000; stroke-width:0.5"
         d="M 3,-3 L -3,3 M 0,-5 L  0,5" />
    </marker>
    <pattern
       y="0"
       x="0"
       width="8"
       patternUnits="userSpaceOnUse"
       id="Hatch-4"
       height="8">
      <path
         id="path6382"
         stroke-width="0.25"
         stroke="#000000"
         linecap="square"
         d="M8 4 l-4,4" />
      <path
         id="path6384"
         stroke-width="0.25"
         stroke="#000000"
         linecap="square"
         d="M6 2 l-4,4" />
      <path
         id="path6386"
         stroke-width="0.25"
         stroke="#000000"
         linecap="square"
         d="M4 0 l-4,4" />
    </pattern>
    <symbol
       id="*MODEL_SPACE-4" />
    <symbol
       id="*PAPER_SPACE-7" />
    <marker
       style="overflow:visible"
       refY="0.0"
       refX="0.0"
       orient="auto"
       id="DistanceX-1">
      <path
         id="path6534"
         style="stroke:#000000; stroke-width:0.5"
         d="M 3,-3 L -3,3 M 0,-5 L  0,5" />
    </marker>
    <pattern
       y="0"
       x="0"
       width="8"
       patternUnits="userSpaceOnUse"
       id="Hatch-7"
       height="8">
      <path
         id="path6537"
         stroke-width="0.25"
         stroke="#000000"
         linecap="square"
         d="M8 4 l-4,4" />
      <path
         id="path6539"
         stroke-width="0.25"
         stroke="#000000"
         linecap="square"
         d="M6 2 l-4,4" />
      <path
         id="path6541"
         stroke-width="0.25"
         stroke="#000000"
         linecap="square"
         d="M4 0 l-4,4" />
    </pattern>
    <symbol
       id="*MODEL_SPACE-87" />
    <symbol
       id="*PAPER_SPACE-4" />
    <marker
       style="overflow:visible"
       refY="0.0"
       refX="0.0"
       orient="auto"
       id="DistanceX-9">
      <path
         id="path6716"
         style="stroke:#000000; stroke-width:0.5"
         d="M 3,-3 L -3,3 M 0,-5 L  0,5" />
    </marker>
    <pattern
       y="0"
       x="0"
       width="8"
       patternUnits="userSpaceOnUse"
       id="Hatch-71"
       height="8">
      <path
         id="path6719"
         stroke-width="0.25"
         stroke="#000000"
         linecap="square"
         d="M8 4 l-4,4" />
      <path
         id="path6721"
         stroke-width="0.25"
         stroke="#000000"
         linecap="square"
         d="M6 2 l-4,4" />
      <path
         id="path6723"
         stroke-width="0.25"
         stroke="#000000"
         linecap="square"
         d="M4 0 l-4,4" />
    </pattern>
    <symbol
       id="*MODEL_SPACE-02" />
    <symbol
       id="*PAPER_SPACE-1" />
    <marker
       style="overflow:visible"
       refY="0.0"
       refX="0.0"
       orient="auto"
       id="DistanceX-21">
      <path
         id="path7409"
         style="stroke:#000000; stroke-width:0.5"
         d="M 3,-3 L -3,3 M 0,-5 L  0,5" />
    </marker>
    <pattern
       y="0"
       x="0"
       width="8"
       patternUnits="userSpaceOnUse"
       id="Hatch-6"
       height="8">
      <path
         id="path7412"
         stroke-width="0.25"
         stroke="#000000"
         linecap="square"
         d="M8 4 l-4,4" />
      <path
         id="path7414"
         stroke-width="0.25"
         stroke="#000000"
         linecap="square"
         d="M6 2 l-4,4" />
      <path
         id="path7416"
         stroke-width="0.25"
         stroke="#000000"
         linecap="square"
         d="M4 0 l-4,4" />
    </pattern>
    <symbol
       id="*MODEL_SPACE-6" />
    <symbol
       id="*PAPER_SPACE-12" />
    <marker
       style="overflow:visible"
       refY="0.0"
       refX="0.0"
       orient="auto"
       id="DistanceX-3">
      <path
         id="path7585"
         style="stroke:#000000; stroke-width:0.5"
         d="M 3,-3 L -3,3 M 0,-5 L  0,5" />
    </marker>
    <pattern
       y="0"
       x="0"
       width="8"
       patternUnits="userSpaceOnUse"
       id="Hatch-70"
       height="8">
      <path
         id="path7588"
         stroke-width="0.25"
         stroke="#000000"
         linecap="square"
         d="M8 4 l-4,4" />
      <path
         id="path7590"
         stroke-width="0.25"
         stroke="#000000"
         linecap="square"
         d="M6 2 l-4,4" />
      <path
         id="path7592"
         stroke-width="0.25"
         stroke="#000000"
         linecap="square"
         d="M4 0 l-4,4" />
    </pattern>
    <symbol
       id="*MODEL_SPACE-08" />
    <symbol
       id="*PAPER_SPACE-6" />
  </defs>
  <sodipodi:namedview
     id="base"
     pagecolor="#ffffff"
     bordercolor="#666666"
     borderopacity="1.0"
     inkscape:pageopacity="0.0"
     inkscape:pageshadow="2"
     inkscape:zoom="0.24748737"
     inkscape:cx="1914.8697"
     inkscape:cy="1040.6884"
     inkscape:document-units="mm"
     inkscape:current-layer="layer1"
     showgrid="false"
     inkscape:window-width="1920"
     inkscape:window-height="986"
     inkscape:window-x="-11"
     inkscape:window-y="-11"
     inkscape:window-maximized="1" />
  <metadata
     id="metadata205">
    <rdf:RDF>
      <cc:Work
         rdf:about="">
        <dc:format>image/svg+xml</dc:format>
        <dc:type
           rdf:resource="http://purl.org/dc/dcmitype/StillImage" />
        <dc:title></dc:title>
      </cc:Work>
    </rdf:RDF>
  </metadata>
  <g
     inkscape:label="Layer 1"
     inkscape:groupmode="layer"
     id="layer1">
    <rect
       style="opacity:0;fill:none;stroke:none;stroke-width:0.49900001;stroke-miterlimit:4;stroke-dasharray:none"
       id="rect5850"
       width="68.035713"
       height="6.8035712"
       x="-19.579163"
       y="-60.095295" />
    <rect
       style="opacity:0;fill:none;stroke:none;stroke-width:0.49900001;stroke-miterlimit:4;stroke-dasharray:none"
       id="rect5852"
       width="683.38098"
       height="281.21429"
       x="-27.214285"
       y="-51.494045" />
    <rect
       style="opacity:0;fill:none;stroke:none;stroke-width:0.49900001;stroke-miterlimit:4;stroke-dasharray:none"
       id="rect5854"
       x="-14.363094"
       y="-18.988094" />
    <g
       id="g5949"
       transform="matrix(0.26458333,0,0,0.26458333,-0.54622191,0.11739541)">
      <g
         id="g5872"
         inkscape:label="0" />
      <g
         id="g5912"
         inkscape:label="Layer_1">
        <path
           id="path5874"
           style="fill:none;stroke:#000000"
           d="m 1397.6601,1102.7039 2.4762,-23.5426 7.3158,-22.5133 11.8343,-20.5006 15.8435,-17.5919 19.1538,-13.9143 21.6264,-9.6283 23.1591,-4.92144 h 23.6763 l 23.1591,4.92144 6.9155,3.0796 V -238.23814 h -37.749 v -37.74421 H 38.692849 v 37.74421 H 0.943669 V 1083.8318 h 37.74918 v 37.7442 H 1399.6457 Z"
           inkscape:connector-curvature="0" />
        <path
           id="path5876"
           style="fill:none;stroke:#000000"
           d="m 73.482414,-190.1935 -5.789273,-1.23126 -5.407192,-2.40795 -4.788416,-3.47623 -3.960332,-4.4011 -2.959484,-5.12187 -1.828932,-5.63151 -0.619208,-5.88418 0.619208,-5.88448 1.828932,-5.63136 2.959484,-5.12186 3.960332,-4.40111 4.788416,-3.47623 5.407192,-2.40796 5.789273,-1.23125 h 5.918959 l 5.789273,1.23125 5.407192,2.40796 4.788416,3.47623 3.96034,4.40111 2.959476,5.12186 1.82894,5.63136 0.6192,5.88448 -0.6192,5.88418 -1.82894,5.63151 -2.959476,5.12187 -3.96034,4.4011 -4.788416,3.47623 -5.407192,2.40795 -5.789273,1.23126 z"
           inkscape:connector-curvature="0" />
        <path
           id="path5878"
           style="fill:none;stroke:#000000"
           d="m 1470.1988,-190.1935 -5.7908,-1.23126 -5.4057,-2.40795 -4.7866,-3.47623 -3.9636,-4.4011 -2.9596,-5.12187 -1.827,-5.63151 -0.6192,-5.88418 0.6192,-5.88448 1.827,-5.63136 2.9596,-5.12186 3.9636,-4.40111 4.7866,-3.47623 5.4057,-2.40796 5.7908,-1.23125 h 5.9189 l 5.7907,1.23125 5.4058,2.40796 4.7866,3.47623 3.9636,4.40111 2.9595,5.12186 1.827,5.63136 0.6192,5.88448 -0.6192,5.88418 -1.827,5.63151 -2.9595,5.12187 -3.9636,4.4011 -4.7866,3.47623 -5.4058,2.40795 -5.7907,1.23126 z"
           inkscape:connector-curvature="0" />
        <path
           id="path5880"
           style="fill:none;stroke:#000000"
           d="m 238.03288,-67.973537 -1.42803,-0.305688 -1.334,-0.591345 -1.18133,-0.857027 -0.97732,-1.086992 -0.73049,-1.264112 -0.45085,-1.385522 -0.15269,-1.453228 0.15269,-1.453085 0.45085,-1.385522 0.73049,-1.264112 0.97732,-1.086992 1.18133,-0.857023 1.334,-0.591349 1.42803,-0.305688 h 1.46012 l 1.42802,0.305688 1.334,0.591349 1.18134,0.857023 0.97731,1.086992 0.72906,1.264112 0.45085,1.385522 0.1527,1.453085 -0.1527,1.453228 -0.45085,1.385522 -0.72906,1.264112 -0.97731,1.086992 -1.18134,0.857027 -1.334,0.591345 -1.42802,0.305688 z"
           inkscape:connector-curvature="0" />
        <path
           id="path5882"
           style="fill:none;stroke:#000000"
           d="m 917.51807,-67.973537 -1.4307,-0.305688 -1.33262,-0.591345 -1.18133,-0.857027 -0.97731,-1.086992 -0.72907,-1.264112 -0.4537,-1.385522 -0.15118,-1.453228 0.15118,-1.453085 0.4537,-1.385522 0.72907,-1.264112 0.97731,-1.086992 1.18133,-0.857023 1.33262,-0.591349 1.4307,-0.305688 h 1.45712 l 1.43059,0.305688 1.33255,0.591349 1.18137,0.857023 0.97731,1.086992 0.72907,1.264112 0.45226,1.385522 0.15118,1.453085 -0.15118,1.453228 -0.45226,1.385522 -0.72907,1.264112 -0.97731,1.086992 -1.18137,0.857027 -1.33255,0.591345 -1.43059,0.305688 z"
           inkscape:connector-curvature="0" />
        <path
           id="path5884"
           style="fill:none;stroke:#000000"
           d="m 1257.2599,-67.973537 -1.4307,-0.305688 -1.3326,-0.591345 -1.1814,-0.857027 -0.9773,-1.086992 -0.7291,-1.264112 -0.4523,-1.385522 -0.1511,-1.453228 0.1511,-1.453085 0.4523,-1.385522 0.7291,-1.264112 0.9773,-1.086992 1.1814,-0.857023 1.3326,-0.591349 1.4307,-0.305688 h 1.4571 l 1.4306,0.305688 1.3325,0.591349 1.1814,0.857023 0.9774,1.086992 0.729,1.264112 0.4522,1.385522 0.1512,1.453085 -0.1512,1.453228 -0.4522,1.385522 -0.729,1.264112 -0.9774,1.086992 -1.1814,0.857027 -1.3325,0.591345 -1.4306,0.305688 z"
           inkscape:connector-curvature="0" />
        <path
           id="path5886"
           style="fill:none;stroke:#000000"
           d="m 577.77626,-67.973537 -1.43074,-0.305688 -1.33258,-0.591345 -1.18133,-0.857027 -0.97731,-1.086992 -0.72907,-1.264112 -0.4537,-1.385522 -0.15118,-1.453228 0.15118,-1.453085 0.4537,-1.385522 0.72907,-1.264112 0.97731,-1.086992 1.18133,-0.857023 1.33258,-0.591349 1.43074,-0.305688 h 1.45709 l 1.43063,0.305688 1.33254,0.591349 1.18137,0.857023 0.97731,1.086992 0.72907,1.264112 0.45226,1.385522 0.15118,1.453085 -0.15118,1.453228 -0.45226,1.385522 -0.72907,1.264112 -0.97731,1.086992 -1.18137,0.857027 -1.33254,0.591345 -1.43063,0.305688 z"
           inkscape:connector-curvature="0" />
        <path
           id="path5888"
           style="fill:none;stroke:#000000"
           d="m 577.77626,271.72521 -1.43074,-0.30569 -1.33258,-0.59135 -1.18133,-0.85702 -0.97731,-1.08699 -0.72907,-1.26411 -0.4537,-1.38553 -0.15118,-1.45322 0.15118,-1.45309 0.4537,-1.38552 0.72907,-1.26411 0.97731,-1.08699 1.18133,-0.85703 1.33258,-0.59135 1.43074,-0.30568 h 1.45709 l 1.43063,0.30568 1.33254,0.59135 1.18137,0.85703 0.97731,1.08699 0.72907,1.26411 0.45226,1.38552 0.15118,1.45309 -0.15118,1.45322 -0.45226,1.38553 -0.72907,1.26411 -0.97731,1.08699 -1.18137,0.85702 -1.33254,0.59135 -1.43063,0.30569 z"
           inkscape:connector-curvature="0" />
        <path
           id="path5890"
           style="fill:none;stroke:#000000"
           d="m 238.03288,271.72521 -1.42803,-0.30569 -1.334,-0.59135 -1.18133,-0.85702 -0.97732,-1.08699 -0.73049,-1.26411 -0.45085,-1.38553 -0.15269,-1.45322 0.15269,-1.45309 0.45085,-1.38552 0.73049,-1.26411 0.97732,-1.08699 1.18133,-0.85703 1.334,-0.59135 1.42803,-0.30568 h 1.46012 l 1.42802,0.30568 1.334,0.59135 1.18134,0.85703 0.97731,1.08699 0.72906,1.26411 0.45085,1.38552 0.1527,1.45309 -0.1527,1.45322 -0.45085,1.38553 -0.72906,1.26411 -0.97731,1.08699 -1.18134,0.85702 -1.334,0.59135 -1.42802,0.30569 z"
           inkscape:connector-curvature="0" />
        <path
           id="path5892"
           style="fill:none;stroke:#000000"
           d="m 917.51807,271.72521 -1.4307,-0.30569 -1.33262,-0.59135 -1.18133,-0.85702 -0.97731,-1.08699 -0.72907,-1.26411 -0.4537,-1.38553 -0.15118,-1.45322 0.15118,-1.45309 0.4537,-1.38552 0.72907,-1.26411 0.97731,-1.08699 1.18133,-0.85703 1.33262,-0.59135 1.4307,-0.30568 h 1.45712 l 1.43059,0.30568 1.33255,0.59135 1.18137,0.85703 0.97731,1.08699 0.72907,1.26411 0.45226,1.38552 0.15118,1.45309 -0.15118,1.45322 -0.45226,1.38553 -0.72907,1.26411 -0.97731,1.08699 -1.18137,0.85702 -1.33255,0.59135 -1.43059,0.30569 z"
           inkscape:connector-curvature="0" />
        <path
           id="path5894"
           style="fill:none;stroke:#000000"
           d="m 1257.2599,271.72521 -1.4307,-0.30569 -1.3326,-0.59135 -1.1814,-0.85702 -0.9773,-1.08699 -0.7291,-1.26411 -0.4523,-1.38553 -0.1511,-1.45322 0.1511,-1.45309 0.4523,-1.38552 0.7291,-1.26411 0.9773,-1.08699 1.1814,-0.85703 1.3326,-0.59135 1.4307,-0.30568 h 1.4571 l 1.4306,0.30568 1.3325,0.59135 1.1814,0.85703 0.9774,1.08699 0.729,1.26411 0.4522,1.38552 0.1512,1.45309 -0.1512,1.45322 -0.4522,1.38553 -0.729,1.26411 -0.9774,1.08699 -1.1814,0.85702 -1.3325,0.59135 -1.4306,0.30569 z"
           inkscape:connector-curvature="0" />
        <path
           id="path5896"
           style="fill:none;stroke:#000000"
           d="m 238.03288,611.42411 -1.42803,-0.30576 -1.334,-0.59134 -1.18133,-0.85705 -0.97732,-1.08699 -0.73049,-1.2641 -0.45085,-1.3855 -0.15269,-1.45323 0.15269,-1.45323 0.45085,-1.38554 0.73049,-1.2641 0.97732,-1.08699 1.18133,-0.85705 1.334,-0.59134 1.42803,-0.30576 h 1.46012 l 1.42802,0.30576 1.334,0.59134 1.18134,0.85705 0.97731,1.08699 0.72906,1.2641 0.45085,1.38554 0.1527,1.45323 -0.1527,1.45323 -0.45085,1.3855 -0.72906,1.2641 -0.97731,1.08699 -1.18134,0.85705 -1.334,0.59134 -1.42802,0.30576 z"
           inkscape:connector-curvature="0" />
        <path
           id="path5898"
           style="fill:none;stroke:#000000"
           d="m 1257.2599,611.42411 -1.4307,-0.30576 -1.3326,-0.59134 -1.1814,-0.85705 -0.9773,-1.08699 -0.7291,-1.2641 -0.4523,-1.3855 -0.1511,-1.45323 0.1511,-1.45323 0.4523,-1.38554 0.7291,-1.2641 0.9773,-1.08699 1.1814,-0.85705 1.3326,-0.59134 1.4307,-0.30576 h 1.4571 l 1.4306,0.30576 1.3325,0.59134 1.1814,0.85705 0.9774,1.08699 0.729,1.2641 0.4522,1.38554 0.1512,1.45323 -0.1512,1.45323 -0.4522,1.3855 -0.729,1.2641 -0.9774,1.08699 -1.1814,0.85705 -1.3325,0.59134 -1.4306,0.30576 z"
           inkscape:connector-curvature="0" />
        <path
           id="path5900"
           style="fill:none;stroke:#000000"
           d="m 917.51807,611.42411 -1.4307,-0.30576 -1.33262,-0.59134 -1.18133,-0.85705 -0.97731,-1.08699 -0.72907,-1.2641 -0.4537,-1.3855 -0.15118,-1.45323 0.15118,-1.45323 0.4537,-1.38554 0.72907,-1.2641 0.97731,-1.08699 1.18133,-0.85705 1.33262,-0.59134 1.4307,-0.30576 h 1.45712 l 1.43059,0.30576 1.33255,0.59134 1.18137,0.85705 0.97731,1.08699 0.72907,1.2641 0.45226,1.38554 0.15118,1.45323 -0.15118,1.45323 -0.45226,1.3855 -0.72907,1.2641 -0.97731,1.08699 -1.18137,0.85705 -1.33255,0.59134 -1.43059,0.30576 z"
           inkscape:connector-curvature="0" />
        <path
           id="path5902"
           style="fill:none;stroke:#000000"
           d="m 577.77626,611.42411 -1.43074,-0.30576 -1.33258,-0.59134 -1.18133,-0.85705 -0.97731,-1.08699 -0.72907,-1.2641 -0.4537,-1.3855 -0.15118,-1.45323 0.15118,-1.45323 0.4537,-1.38554 0.72907,-1.2641 0.97731,-1.08699 1.18133,-0.85705 1.33258,-0.59134 1.43074,-0.30576 h 1.45709 l 1.43063,0.30576 1.33254,0.59134 1.18137,0.85705 0.97731,1.08699 0.72907,1.2641 0.45226,1.38554 0.15118,1.45323 -0.15118,1.45323 -0.45226,1.3855 -0.72907,1.2641 -0.97731,1.08699 -1.18137,0.85705 -1.33254,0.59134 -1.43063,0.30576 z"
           inkscape:connector-curvature="0" />
        <path
           id="path5904"
           style="fill:none;stroke:#000000"
           d="m 1257.2599,951.12242 -1.4307,-0.30425 -1.3326,-0.59278 -1.1814,-0.85845 -0.9773,-1.08412 -0.7291,-1.26414 -0.4523,-1.38837 -0.1511,-1.45164 0.1511,-1.45168 0.4523,-1.38837 0.7291,-1.2641 0.9773,-1.08416 1.1814,-0.85701 1.3326,-0.59278 1.4307,-0.30425 h 1.4571 l 1.4306,0.30425 1.3325,0.59278 1.1814,0.85701 0.9774,1.08416 0.729,1.2641 0.4522,1.38837 0.1512,1.45168 -0.1512,1.45164 -0.4522,1.38837 -0.729,1.26414 -0.9774,1.08412 -1.1814,0.85845 -1.3325,0.59278 -1.4306,0.30425 z"
           inkscape:connector-curvature="0" />
        <path
           id="path5906"
           style="fill:none;stroke:#000000"
           d="m 917.51807,951.12242 -1.4307,-0.30425 -1.33262,-0.59278 -1.18133,-0.85845 -0.97731,-1.08412 -0.72907,-1.26414 -0.4537,-1.38837 -0.15118,-1.45164 0.15118,-1.45168 0.4537,-1.38837 0.72907,-1.2641 0.97731,-1.08416 1.18133,-0.85701 1.33262,-0.59278 1.4307,-0.30425 h 1.45712 l 1.43059,0.30425 1.33255,0.59278 1.18137,0.85701 0.97731,1.08416 0.72907,1.2641 0.45226,1.38837 0.15118,1.45168 -0.15118,1.45164 -0.45226,1.38837 -0.72907,1.26414 -0.97731,1.08412 -1.18137,0.85845 -1.33255,0.59278 -1.43059,0.30425 z"
           inkscape:connector-curvature="0" />
        <path
           id="path5908"
           style="fill:none;stroke:#000000"
           d="m 238.03288,951.12242 -1.42803,-0.30425 -1.334,-0.59278 -1.18133,-0.85845 -0.97732,-1.08412 -0.73049,-1.26414 -0.45085,-1.38837 -0.15269,-1.45164 0.15269,-1.45168 0.45085,-1.38837 0.73049,-1.2641 0.97732,-1.08416 1.18133,-0.85701 1.334,-0.59278 1.42803,-0.30425 h 1.46012 l 1.42802,0.30425 1.334,0.59278 1.18134,0.85701 0.97731,1.08416 0.72906,1.2641 0.45085,1.38837 0.1527,1.45168 -0.1527,1.45164 -0.45085,1.38837 -0.72906,1.26414 -0.97731,1.08412 -1.18134,0.85845 -1.334,0.59278 -1.42802,0.30425 z"
           inkscape:connector-curvature="0" />
        <path
           id="path5910"
           style="fill:none;stroke:#000000"
           d="m 577.77626,951.12242 -1.43074,-0.30425 -1.33258,-0.59278 -1.18133,-0.85845 -0.97731,-1.08412 -0.72907,-1.26414 -0.4537,-1.38837 -0.15118,-1.45164 0.15118,-1.45168 0.4537,-1.38837 0.72907,-1.2641 0.97731,-1.08416 1.18133,-0.85701 1.33258,-0.59278 1.43074,-0.30425 h 1.45709 l 1.43063,0.30425 1.33254,0.59278 1.18137,0.85701 0.97731,1.08416 0.72907,1.2641 0.45226,1.38837 0.15118,1.45168 -0.15118,1.45164 -0.45226,1.38837 -0.72907,1.26414 -0.97731,1.08412 -1.18137,0.85845 -1.33254,0.59278 -1.43063,0.30425 z"
           inkscape:connector-curvature="0" />
      </g>
    </g>
    <g
       id="g6056"
       transform="matrix(0.26458333,0,0,0.26458333,409.56992,0.11652228)">
      <g
         id="g5991"
         inkscape:label="0" />
      <g
         id="g6023"
         inkscape:label="Layer_1"
         transform="translate(14)">
        <path
           id="path5993"
           style="fill:none;stroke:#000000"
           d="M 1549.7997,894.79865 H 0.940418 V 1121.5793 H 1549.7997 Z"
           inkscape:connector-curvature="0" />
        <path
           id="path5995"
           style="fill:none;stroke:#000000"
           d="m 611.75274,956.0479 -1.43074,-0.30123 -1.33254,-0.58968 -1.18137,-0.8524 -0.97735,-1.07652 -0.72903,-1.25503 -0.4523,-1.37779 -0.15118,-1.44178 0.15118,-1.44162 0.4523,-1.37779 0.72903,-1.25503 0.97735,-1.07656 1.18137,-0.85092 1.33254,-0.58969 1.43074,-0.30122 h 1.45716 l 1.43059,0.30122 1.33262,0.58969 1.18133,0.85092 0.97731,1.07656 0.72907,1.25503 0.4523,1.37779 0.15118,1.44162 -0.15118,1.44178 -0.4523,1.37779 -0.72907,1.25503 -0.97731,1.07652 -1.18133,0.8524 -1.33262,0.58968 -1.43059,0.30123 z"
           inkscape:connector-curvature="0" />
        <path
           id="path5997"
           style="fill:none;stroke:#000000"
           d="m 234.25689,956.0479 -1.42803,-0.30123 -1.33401,-0.58968 -1.18135,-0.8524 -0.97733,-1.07652 -0.73049,-1.25503 -0.45086,-1.37779 -0.15269,-1.44178 0.15269,-1.44162 0.45086,-1.37779 0.73049,-1.25503 0.97733,-1.07656 1.18135,-0.85092 1.33401,-0.58969 1.42803,-0.30122 h 1.46014 l 1.42803,0.30122 1.33402,0.58969 1.18134,0.85092 0.97733,1.07656 0.72906,1.25503 0.45229,1.37779 0.15265,1.44162 -0.15265,1.44178 -0.45229,1.37779 -0.72906,1.25503 -0.97733,1.07652 -1.18134,0.8524 -1.33402,0.58968 -1.42803,0.30123 z"
           inkscape:connector-curvature="0" />
        <path
           id="path5999"
           style="fill:none;stroke:#000000"
           d="m 875.99875,956.0479 -1.43074,-0.30123 -1.33258,-0.58968 -1.18137,-0.8524 -0.97731,-1.07652 -0.72907,-1.25503 -0.4523,-1.37779 -0.15118,-1.44178 0.15118,-1.44162 0.4523,-1.37779 0.72907,-1.25503 0.97731,-1.07656 1.18137,-0.85092 1.33258,-0.58969 1.43074,-0.30122 h 1.45712 l 1.43078,0.30122 1.33255,0.58969 1.18137,0.85092 0.97731,1.07656 0.72907,1.25503 0.45229,1.37779 0.15118,1.44162 -0.15118,1.44178 -0.45229,1.37779 -0.72907,1.25503 -0.97731,1.07652 -1.18137,0.8524 -1.33255,0.58968 -1.43078,0.30123 z"
           inkscape:connector-curvature="0" />
        <path
           id="path6001"
           style="fill:none;stroke:#000000"
           d="m 1064.746,956.0479 -1.4308,-0.30123 -1.3325,-0.58968 -1.1814,-0.8524 -0.9774,-1.07652 -0.729,-1.25503 -0.4537,-1.37779 -0.1512,-1.44178 0.1512,-1.44162 0.4537,-1.37779 0.729,-1.25503 0.9774,-1.07656 1.1814,-0.85092 1.3325,-0.58969 1.4308,-0.30122 h 1.4571 l 1.4306,0.30122 1.3326,0.58969 1.1813,0.85092 0.9774,1.07656 0.7291,1.25503 0.4537,1.37779 0.1511,1.44162 -0.1511,1.44178 -0.4537,1.37779 -0.7291,1.25503 -0.9774,1.07652 -1.1813,0.8524 -1.3326,0.58968 -1.4306,0.30123 z"
           inkscape:connector-curvature="0" />
        <path
           id="path6003"
           style="fill:none;stroke:#000000"
           d="m 423.00556,956.0479 -1.43078,-0.30123 -1.33255,-0.58968 -1.18137,-0.8524 -0.97735,-1.07652 -0.72903,-1.25503 -0.45373,-1.37779 -0.15118,-1.44178 0.15118,-1.44162 0.45373,-1.37779 0.72903,-1.25503 0.97735,-1.07656 1.18137,-0.85092 1.33255,-0.58969 1.43078,-0.30122 h 1.45712 l 1.43074,0.30122 1.33258,0.58969 1.18133,0.85092 0.97735,1.07656 0.72907,1.25503 0.4523,1.37779 0.15118,1.44162 -0.15118,1.44178 -0.4523,1.37779 -0.72907,1.25503 -0.97735,1.07652 -1.18133,0.8524 -1.33258,0.58968 -1.43074,0.30123 z"
           inkscape:connector-curvature="0" />
        <path
           id="path6005"
           style="fill:none;stroke:#000000"
           d="m 1253.4931,956.0479 -1.4306,-0.30123 -1.3327,-0.58968 -1.1813,-0.8524 -0.9773,-1.07652 -0.7291,-1.25503 -0.4523,-1.37779 -0.1511,-1.44178 0.1511,-1.44162 0.4523,-1.37779 0.7291,-1.25503 0.9773,-1.07656 1.1813,-0.85092 1.3327,-0.58969 1.4306,-0.30122 h 1.4571 l 1.4307,0.30122 1.3326,0.58969 1.1814,0.85092 0.9773,1.07656 0.729,1.25503 0.4523,1.37779 0.1512,1.44162 -0.1512,1.44178 -0.4523,1.37779 -0.729,1.25503 -0.9773,1.07652 -1.1814,0.8524 -1.3326,0.58968 -1.4307,0.30123 z"
           inkscape:connector-curvature="0" />
        <path
           id="path6007"
           style="fill:none;stroke:#000000"
           d="m 888.05223,1057.8558 v -86.21414 h 362.39457 v 86.21414 z"
           inkscape:connector-curvature="0" />
        <path
           id="path6009"
           style="fill:none;stroke:#000000"
           d="m 246.31179,1057.8558 v -86.21414 h 362.39458 v 86.21414 z"
           inkscape:connector-curvature="0" />
        <path
           id="path6011"
           style="fill:none;stroke:#000000"
           d="m 1253.4931,1087.2432 -1.4306,-0.3012 -1.3327,-0.5897 -1.1813,-0.8509 -0.9773,-1.0766 -0.7291,-1.255 -0.4523,-1.3778 -0.1511,-1.4416 0.1511,-1.4417 0.4523,-1.3792 0.7291,-1.255 0.9773,-1.0765 1.1813,-0.851 1.3327,-0.5897 1.4306,-0.3012 h 1.4571 l 1.4307,0.3012 1.3326,0.5897 1.1814,0.851 0.9773,1.0765 0.729,1.255 0.4523,1.3792 0.1512,1.4417 -0.1512,1.4416 -0.4523,1.3778 -0.729,1.255 -0.9773,1.0766 -1.1814,0.8509 -1.3326,0.5897 -1.4307,0.3012 z"
           inkscape:connector-curvature="0" />
        <path
           id="path6013"
           style="fill:none;stroke:#000000"
           d="m 875.99875,1087.2432 -1.43074,-0.3012 -1.33258,-0.5897 -1.18137,-0.8509 -0.97731,-1.0766 -0.72907,-1.255 -0.4523,-1.3778 -0.15118,-1.4416 0.15118,-1.4417 0.4523,-1.3792 0.72907,-1.255 0.97731,-1.0765 1.18137,-0.851 1.33258,-0.5897 1.43074,-0.3012 h 1.45712 l 1.43078,0.3012 1.33255,0.5897 1.18137,0.851 0.97731,1.0765 0.72907,1.255 0.45229,1.3792 0.15118,1.4417 -0.15118,1.4416 -0.45229,1.3778 -0.72907,1.255 -0.97731,1.0766 -1.18137,0.8509 -1.33255,0.5897 -1.43078,0.3012 z"
           inkscape:connector-curvature="0" />
        <path
           id="path6015"
           style="fill:none;stroke:#000000"
           d="m 234.25689,1087.2432 -1.42803,-0.3012 -1.33401,-0.5897 -1.18135,-0.8509 -0.97733,-1.0766 -0.73049,-1.255 -0.45086,-1.3778 -0.15269,-1.4416 0.15269,-1.4417 0.45086,-1.3792 0.73049,-1.255 0.97733,-1.0765 1.18135,-0.851 1.33401,-0.5897 1.42803,-0.3012 h 1.46014 l 1.42803,0.3012 1.33402,0.5897 1.18134,0.851 0.97733,1.0765 0.72906,1.255 0.45229,1.3792 0.15265,1.4417 -0.15265,1.4416 -0.45229,1.3778 -0.72906,1.255 -0.97733,1.0766 -1.18134,0.8509 -1.33402,0.5897 -1.42803,0.3012 z"
           inkscape:connector-curvature="0" />
        <path
           id="path6017"
           style="fill:none;stroke:#000000"
           d="m 611.75274,1087.2432 -1.43074,-0.3012 -1.33254,-0.5897 -1.18137,-0.8509 -0.97735,-1.0766 -0.72903,-1.255 -0.4523,-1.3778 -0.15118,-1.4416 0.15118,-1.4417 0.4523,-1.3792 0.72903,-1.255 0.97735,-1.0765 1.18137,-0.851 1.33254,-0.5897 1.43074,-0.3012 h 1.45716 l 1.43059,0.3012 1.33262,0.5897 1.18133,0.851 0.97731,1.0765 0.72907,1.255 0.4523,1.3792 0.15118,1.4417 -0.15118,1.4416 -0.4523,1.3778 -0.72907,1.255 -0.97731,1.0766 -1.18133,0.8509 -1.33262,0.5897 -1.43059,0.3012 z"
           inkscape:connector-curvature="0" />
        <path
           id="path6019"
           style="fill:none;stroke:#000000"
           d="m 1064.746,1087.2432 -1.4308,-0.3012 -1.3325,-0.5897 -1.1814,-0.8509 -0.9774,-1.0766 -0.729,-1.255 -0.4537,-1.3778 -0.1512,-1.4416 0.1512,-1.4417 0.4537,-1.3792 0.729,-1.255 0.9774,-1.0765 1.1814,-0.851 1.3325,-0.5897 1.4308,-0.3012 h 1.4571 l 1.4306,0.3012 1.3326,0.5897 1.1813,0.851 0.9774,1.0765 0.7291,1.255 0.4537,1.3792 0.1511,1.4417 -0.1511,1.4416 -0.4537,1.3778 -0.7291,1.255 -0.9774,1.0766 -1.1813,0.8509 -1.3326,0.5897 -1.4306,0.3012 z"
           inkscape:connector-curvature="0" />
        <path
           id="path6021"
           style="fill:none;stroke:#000000"
           d="m 423.00556,1087.2432 -1.43078,-0.3012 -1.33255,-0.5897 -1.18137,-0.8509 -0.97735,-1.0766 -0.72903,-1.255 -0.45373,-1.3778 -0.15118,-1.4416 0.15118,-1.4417 0.45373,-1.3792 0.72903,-1.255 0.97735,-1.0765 1.18137,-0.851 1.33255,-0.5897 1.43078,-0.3012 h 1.45712 l 1.43074,0.3012 1.33258,0.5897 1.18133,0.851 0.97735,1.0765 0.72907,1.255 0.4523,1.3792 0.15118,1.4417 -0.15118,1.4416 -0.4523,1.3778 -0.72907,1.255 -0.97735,1.0766 -1.18133,0.8509 -1.33258,0.5897 -1.43074,0.3012 z"
           inkscape:connector-curvature="0" />
      </g>
    </g>
    <g
       id="g6315"
       transform="matrix(0.26458333,0,0,0.26458333,414.24901,-63.07673)">
      <g
         id="g6256"
         inkscape:label="0" />
      <g
         id="g6284"
         inkscape:label="Layer_1">
        <path
           id="path6258"
           style="fill:none;stroke:#000000"
           d="M 1549.7998,894.79858 H 0.940339 V 1121.5793 H 1549.7998 Z"
           inkscape:connector-curvature="0" />
        <path
           id="path6260"
           style="fill:none;stroke:#000000"
           d="m 1249.7182,945.58106 -1.4307,-0.30122 -1.3327,-0.58957 -1.1813,-0.85225 -0.9773,-1.07637 -0.7291,-1.2548 -0.4523,-1.3776 -0.1511,-1.44125 0.1511,-1.44151 0.4523,-1.37756 0.7291,-1.25484 0.9773,-1.07634 1.1813,-0.85085 1.3327,-0.58956 1.4307,-0.30123 h 1.457 l 1.4307,0.30123 1.3326,0.58956 1.1814,0.85085 0.9773,1.07634 0.7291,1.25484 0.4523,1.37756 0.1511,1.44151 -0.1511,1.44125 -0.4523,1.3776 -0.7291,1.2548 -0.9773,1.07637 -1.1814,0.85225 -1.3326,0.58957 -1.4307,0.30122 z"
           inkscape:connector-curvature="0" />
        <path
           id="path6262"
           style="fill:none;stroke:#000000"
           d="m 1060.9709,945.58106 -1.4307,-0.30122 -1.3326,-0.58957 -1.1813,-0.85225 -0.9774,-1.07637 -0.729,-1.2548 -0.4523,-1.3776 -0.1512,-1.44125 0.1512,-1.44151 0.4523,-1.37756 0.729,-1.25484 0.9774,-1.07634 1.1813,-0.85085 1.3326,-0.58956 1.4307,-0.30123 h 1.4572 l 1.4306,0.30123 1.3326,0.58956 1.1813,0.85085 0.9774,1.07634 0.729,1.25484 0.4523,1.37756 0.1512,1.44151 -0.1512,1.44125 -0.4523,1.3776 -0.729,1.2548 -0.9774,1.07637 -1.1813,0.85225 -1.3326,0.58957 -1.4306,0.30122 z"
           inkscape:connector-curvature="0" />
        <path
           id="path6264"
           style="fill:none;stroke:#000000"
           d="m 872.22372,945.58106 -1.43074,-0.30122 -1.33258,-0.58957 -1.18137,-0.85225 -0.97731,-1.07637 -0.72907,-1.2548 -0.45373,-1.3776 -0.15119,-1.44125 0.15119,-1.44151 0.45373,-1.37756 0.72907,-1.25484 0.97731,-1.07634 1.18137,-0.85085 1.33258,-0.58956 1.43074,-0.30123 h 1.45712 l 1.43078,0.30123 1.33255,0.58956 1.18137,0.85085 0.97731,1.07634 0.72907,1.25484 0.45373,1.37756 0.15118,1.44151 -0.15118,1.44125 -0.45373,1.3776 -0.72907,1.2548 -0.97731,1.07637 -1.18137,0.85225 -1.33255,0.58957 -1.43078,0.30122 z"
           inkscape:connector-curvature="0" />
        <path
           id="path6266"
           style="fill:none;stroke:#000000"
           d="m 226.7069,963.57067 -1.42818,-0.30123 -1.33401,-0.58957 -1.18134,-0.85224 -0.97733,-1.07637 -0.7305,-1.25481 -0.45085,-1.37756 -0.15266,-1.44125 0.15266,-1.44155 0.45085,-1.37756 0.7305,-1.2548 0.97733,-1.07637 1.18134,-0.85081 1.33401,-0.58957 1.42818,-0.30123 h 1.46014 l 1.42803,0.30123 1.33401,0.58957 1.18135,0.85081 0.97733,1.07637 0.72906,1.2548 0.45086,1.37756 0.15269,1.44155 -0.15269,1.44125 -0.45086,1.37756 -0.72906,1.25481 -0.97733,1.07637 -1.18135,0.85224 -1.33401,0.58957 -1.42803,0.30123 z"
           inkscape:connector-curvature="0" />
        <path
           id="path6268"
           style="fill:none;stroke:#000000"
           d="m 418.47557,963.57067 -1.43075,-0.30123 -1.33258,-0.58957 -1.18133,-0.85224 -0.97735,-1.07637 -0.72907,-1.25481 -0.45369,-1.37756 -0.15118,-1.44125 0.15118,-1.44155 0.45369,-1.37756 0.72907,-1.2548 0.97735,-1.07637 1.18133,-0.85081 1.33258,-0.58957 1.43075,-0.30123 h 1.457 l 1.43074,0.30123 1.33259,0.58957 1.18133,0.85081 0.97735,1.07637 0.72907,1.2548 0.45369,1.37756 0.15118,1.44155 -0.15118,1.44125 -0.45369,1.37756 -0.72907,1.25481 -0.97735,1.07637 -1.18133,0.85224 -1.33259,0.58957 -1.43074,0.30123 z"
           inkscape:connector-curvature="0" />
        <path
           id="path6270"
           style="fill:none;stroke:#000000"
           d="m 884.2772,1047.3725 v -86.19998 h 362.3946 v 86.19998 z"
           inkscape:connector-curvature="0" />
        <path
           id="path6272"
           style="fill:none;stroke:#000000"
           d="m 208.5622,1044.7491 v -67.4609 h 218.9467 v 67.4609 z"
           inkscape:connector-curvature="0" />
        <path
           id="path6274"
           style="fill:none;stroke:#000000"
           d="m 418.47557,1076.0054 -1.43075,-0.3012 -1.33258,-0.5896 -1.18133,-0.8523 -0.97735,-1.0763 -0.72907,-1.2548 -0.45369,-1.3776 -0.15118,-1.4412 0.15118,-1.4416 0.45369,-1.3776 0.72907,-1.2548 0.97735,-1.0763 1.18133,-0.8508 1.33258,-0.5896 1.43075,-0.3012 h 1.457 l 1.43074,0.3012 1.33259,0.5896 1.18133,0.8508 0.97735,1.0763 0.72907,1.2548 0.45369,1.3776 0.15118,1.4416 -0.15118,1.4412 -0.45369,1.3776 -0.72907,1.2548 -0.97735,1.0763 -1.18133,0.8523 -1.33259,0.5896 -1.43074,0.3012 z"
           inkscape:connector-curvature="0" />
        <path
           id="path6276"
           style="fill:none;stroke:#000000"
           d="m 226.7069,1076.0054 -1.42818,-0.3012 -1.33401,-0.5896 -1.18134,-0.8523 -0.97733,-1.0763 -0.7305,-1.2548 -0.45085,-1.3776 -0.15266,-1.4412 0.15266,-1.4416 0.45085,-1.3776 0.7305,-1.2548 0.97733,-1.0763 1.18134,-0.8508 1.33401,-0.5896 1.42818,-0.3012 h 1.46014 l 1.42803,0.3012 1.33401,0.5896 1.18135,0.8508 0.97733,1.0763 0.72906,1.2548 0.45086,1.3776 0.15269,1.4416 -0.15269,1.4412 -0.45086,1.3776 -0.72906,1.2548 -0.97733,1.0763 -1.18135,0.8523 -1.33401,0.5896 -1.42803,0.3012 z"
           inkscape:connector-curvature="0" />
        <path
           id="path6278"
           style="fill:none;stroke:#000000"
           d="m 1249.7182,1076.7548 -1.4307,-0.3012 -1.3327,-0.5896 -1.1813,-0.8522 -0.9773,-1.0764 -0.7291,-1.2548 -0.4523,-1.379 -0.1511,-1.4413 0.1511,-1.4413 0.4523,-1.379 0.7291,-1.2549 0.9773,-1.0763 1.1813,-0.8509 1.3327,-0.5895 1.4307,-0.3013 h 1.457 l 1.4307,0.3013 1.3326,0.5895 1.1814,0.8509 0.9773,1.0763 0.7291,1.2549 0.4523,1.379 0.1511,1.4413 -0.1511,1.4413 -0.4523,1.379 -0.7291,1.2548 -0.9773,1.0764 -1.1814,0.8522 -1.3326,0.5896 -1.4307,0.3012 z"
           inkscape:connector-curvature="0" />
        <path
           id="path6280"
           style="fill:none;stroke:#000000"
           d="m 1060.9709,1076.7548 -1.4307,-0.3012 -1.3326,-0.5896 -1.1813,-0.8522 -0.9774,-1.0764 -0.729,-1.2548 -0.4523,-1.379 -0.1512,-1.4413 0.1512,-1.4413 0.4523,-1.379 0.729,-1.2549 0.9774,-1.0763 1.1813,-0.8509 1.3326,-0.5895 1.4307,-0.3013 h 1.4572 l 1.4306,0.3013 1.3326,0.5895 1.1813,0.8509 0.9774,1.0763 0.729,1.2549 0.4523,1.379 0.1512,1.4413 -0.1512,1.4413 -0.4523,1.379 -0.729,1.2548 -0.9774,1.0764 -1.1813,0.8522 -1.3326,0.5896 -1.4306,0.3012 z"
           inkscape:connector-curvature="0" />
        <path
           id="path6282"
           style="fill:none;stroke:#000000"
           d="m 872.22372,1076.7548 -1.43074,-0.3012 -1.33258,-0.5896 -1.18137,-0.8522 -0.97731,-1.0764 -0.72907,-1.2548 -0.45373,-1.379 -0.15119,-1.4413 0.15119,-1.4413 0.45373,-1.379 0.72907,-1.2549 0.97731,-1.0763 1.18137,-0.8509 1.33258,-0.5895 1.43074,-0.3013 h 1.45712 l 1.43078,0.3013 1.33255,0.5895 1.18137,0.8509 0.97731,1.0763 0.72907,1.2549 0.45373,1.379 0.15118,1.4413 -0.15118,1.4413 -0.45373,1.379 -0.72907,1.2548 -0.97731,1.0764 -1.18137,0.8522 -1.33255,0.5896 -1.43078,0.3012 z"
           inkscape:connector-curvature="0" />
      </g>
    </g>
    <path
       id="path7146"
       d="M 1198.1682,234.44899 H 827.92512 v 62.30202 h 370.24308 z m -349.64115,15.70276 -0.54855,-0.11565 -0.51244,-0.22624 -0.45368,-0.32693 -0.37534,-0.4134 -0.28048,-0.48164 -0.1735,-0.52905 -0.0586,-0.55315 0.0586,-0.55316 0.1735,-0.52905 0.28048,-0.48164 0.37534,-0.41341 0.45368,-0.32692 0.51244,-0.22624 0.54855,-0.11565 h 0.56087 l 0.54855,0.11565 0.51238,0.22624 0.45374,0.32692 0.37534,0.41341 0.28048,0.48164 0.1735,0.52905 0.0586,0.55316 -0.0586,0.55315 -0.1735,0.52905 -0.28048,0.48164 -0.37534,0.4134 -0.45374,0.32693 -0.51238,0.22624 -0.54855,0.11565 z m 14.55775,32.00033 -3.84323,-0.81014 -3.5893,-1.58487 -3.17868,-2.29039 -2.62908,-2.8957 -1.96443,-3.37457 -1.21424,-3.70585 -0.41065,-3.87525 0.41065,-3.87525 1.21424,-3.70585 1.96443,-3.37457 2.62908,-2.8957 3.17868,-2.29028 3.5893,-1.58488 3.84323,-0.81014 h 3.92908 l 3.84312,0.81014 3.58941,1.58488 3.17867,2.29028 2.62899,2.8957 1.96453,3.37457 1.21412,3.70585 0.41073,3.87525 -0.41073,3.87525 -1.21412,3.70585 -1.96453,3.37457 -2.62899,2.8957 -3.17867,2.29039 -3.58941,1.58487 -3.84312,0.81014 z m 18.85604,-31.00848 -0.54854,-0.11565 -0.51245,-0.22624 -0.45367,-0.32693 -0.37535,-0.4134 -0.28047,-0.48164 -0.17313,-0.52905 -0.0586,-0.55316 0.0586,-0.55315 0.17313,-0.52905 0.28047,-0.48165 0.37535,-0.4134 0.45367,-0.32693 0.51245,-0.22623 0.54854,-0.11565 h 0.56088 l 0.54854,0.11565 0.51238,0.22623 0.45374,0.32693 0.37535,0.4134 0.28047,0.48165 0.17313,0.52905 0.0586,0.55315 -0.0586,0.55316 -0.17313,0.52905 -0.28047,0.48164 -0.37535,0.4134 -0.45374,0.32693 -0.51238,0.22624 -0.54854,0.11565 z m 87.80737,1.80725 -0.37905,-0.0797 -0.35305,-0.15603 -0.31298,-0.22556 -0.25893,-0.28504 -0.19315,-0.33218 -0.1202,-0.36488 -0.0401,-0.38147 0.0401,-0.38146 0.1202,-0.36489 0.19315,-0.33218 0.25893,-0.28504 0.31298,-0.22545 0.35305,-0.15602 0.37905,-0.0798 h 0.38605 l 0.37905,0.0798 0.35305,0.15602 0.31299,0.22545 0.25892,0.28504 0.19316,0.33218 0.11982,0.36489 0.0401,0.38146 -0.0401,0.38147 -0.11982,0.36488 -0.19316,0.33218 -0.25892,0.28504 -0.31299,0.22556 -0.35305,0.15603 -0.37905,0.0797 z m 90.01049,0 -0.3791,-0.0797 -0.353,-0.15603 -0.313,-0.22556 -0.2589,-0.28504 -0.1932,-0.33218 -0.1202,-0.36488 -0.04,-0.38147 0.04,-0.38146 0.1202,-0.36489 0.1932,-0.33218 0.2589,-0.28504 0.313,-0.22545 0.353,-0.15602 0.3791,-0.0798 h 0.386 l 0.3791,0.0798 0.353,0.15602 0.313,0.22545 0.2589,0.28504 0.1932,0.33218 0.1198,0.36489 0.04,0.38146 -0.04,0.38147 -0.1198,0.36488 -0.1932,0.33218 -0.2589,0.28504 -0.313,0.22556 -0.353,0.15603 -0.3791,0.0797 z m 50.006,0 -0.3791,-0.0797 -0.3531,-0.15603 -0.313,-0.22556 -0.2589,-0.28504 -0.1931,-0.33218 -0.1199,-0.36488 -0.04,-0.38147 0.04,-0.38146 0.1199,-0.36489 0.1931,-0.33218 0.2589,-0.28504 0.313,-0.22545 0.3531,-0.15602 0.3791,-0.0798 h 0.386 l 0.379,0.0798 0.3531,0.15602 0.3129,0.22545 0.259,0.28504 0.1931,0.33218 0.1198,0.36489 0.04,0.38146 -0.04,0.38147 -0.1198,0.36488 -0.1931,0.33218 -0.259,0.28504 -0.3129,0.22556 -0.3531,0.15603 -0.379,0.0797 z m -90.0108,0 -0.3791,-0.0797 -0.353,-0.15603 -0.313,-0.22556 -0.2589,-0.28504 -0.1932,-0.33218 -0.1198,-0.36488 -0.04,-0.38147 0.04,-0.38146 0.1198,-0.36489 0.1932,-0.33218 0.2589,-0.28504 0.313,-0.22545 0.353,-0.15602 0.3791,-0.0798 h 0.3861 l 0.379,0.0798 0.353,0.15602 0.313,0.22545 0.2589,0.28504 0.1932,0.33218 0.1198,0.36489 0.04,0.38146 -0.04,0.38147 -0.1198,0.36488 -0.1932,0.33218 -0.2589,0.28504 -0.313,0.22556 -0.353,0.15603 -0.379,0.0797 z m -100.01175,0 -0.37833,-0.0797 -0.35343,-0.15603 -0.31298,-0.22556 -0.25893,-0.28504 -0.19353,-0.33218 -0.11944,-0.36488 -0.0405,-0.38147 0.0405,-0.38146 0.11944,-0.36489 0.19353,-0.33218 0.25893,-0.28504 0.31298,-0.22545 0.35343,-0.15602 0.37833,-0.0798 h 0.38684 l 0.37834,0.0798 0.35342,0.15602 0.31299,0.22545 0.25892,0.28504 0.19316,0.33218 0.11982,0.36489 0.0405,0.38146 -0.0405,0.38147 -0.11982,0.36488 -0.19316,0.33218 -0.25892,0.28504 -0.31299,0.22556 -0.35342,0.15603 -0.37834,0.0797 z m 240.02855,0 -0.3789,-0.0797 -0.3531,-0.15603 -0.313,-0.22556 -0.2589,-0.28504 -0.1932,-0.33218 -0.1198,-0.36488 -0.04,-0.38147 0.04,-0.38146 0.1198,-0.36489 0.1932,-0.33218 0.2589,-0.28504 0.313,-0.22545 0.3531,-0.15602 0.3789,-0.0798 h 0.3861 l 0.379,0.0798 0.3531,0.15602 0.313,0.22545 0.2589,0.28504 0.1932,0.33218 0.1198,0.36489 0.04,0.38146 -0.04,0.38147 -0.1198,0.36488 -0.1932,0.33218 -0.2589,0.28504 -0.313,0.22556 -0.3531,0.15603 -0.379,0.0797 z m -236.83478,26.93872 v -22.81253 h 96.01088 v 22.81253 z m 140.01608,0 v -22.81253 h 96.0117 v 22.81253 z m -214.42495,2.93964 -0.54855,-0.11564 -0.51244,-0.22624 -0.45368,-0.32693 -0.37534,-0.4134 -0.28048,-0.48164 -0.1735,-0.52906 -0.0586,-0.55315 0.0586,-0.55315 0.1735,-0.52906 0.28048,-0.48164 0.37534,-0.4134 0.45368,-0.32693 0.51244,-0.22624 0.54855,-0.11564 h 0.56087 l 0.54855,0.11564 0.51238,0.22624 0.45374,0.32693 0.37534,0.4134 0.28048,0.48164 0.1735,0.52906 0.0586,0.55315 -0.0586,0.55315 -0.1735,0.52906 -0.28048,0.48164 -0.37534,0.4134 -0.45374,0.32693 -0.51238,0.22624 -0.54855,0.11564 z m 33.41379,0 -0.54854,-0.11564 -0.51245,-0.22624 -0.45367,-0.32693 -0.37535,-0.4134 -0.28047,-0.48164 -0.17313,-0.52906 -0.0586,-0.55315 0.0586,-0.55315 0.17313,-0.52906 0.28047,-0.48164 0.37535,-0.4134 0.45367,-0.32693 0.51245,-0.22624 0.54854,-0.11564 h 0.56088 l 0.54854,0.11564 0.51238,0.22624 0.45374,0.32693 0.37535,0.4134 0.28047,0.48164 0.17313,0.52906 0.0586,0.55315 -0.0586,0.55315 -0.17313,0.52906 -0.28047,0.48164 -0.37535,0.4134 -0.45374,0.32693 -0.51238,0.22624 -0.54854,0.11564 z m 277.82986,4.83633 -0.3789,-0.0798 -0.3531,-0.15602 -0.313,-0.22548 -0.2589,-0.28505 -0.1932,-0.33218 -0.1198,-0.36488 -0.04,-0.38147 0.04,-0.38146 0.1198,-0.36489 0.1932,-0.33218 0.2589,-0.28504 0.313,-0.22545 0.3531,-0.15602 0.3789,-0.0798 h 0.3861 l 0.379,0.0798 0.3531,0.15602 0.313,0.22545 0.2589,0.28504 0.1932,0.33218 0.1198,0.36489 0.04,0.38146 -0.04,0.38147 -0.1198,0.36488 -0.1932,0.33218 -0.2589,0.28505 -0.313,0.22548 -0.3531,0.15602 -0.379,0.0798 z m -50.006,0 -0.3791,-0.0798 -0.3531,-0.15602 -0.313,-0.22548 -0.2589,-0.28505 -0.1931,-0.33218 -0.1199,-0.36488 -0.04,-0.38147 0.04,-0.38146 0.1199,-0.36489 0.1931,-0.33218 0.2589,-0.28504 0.313,-0.22545 0.3531,-0.15602 0.3791,-0.0798 h 0.386 l 0.379,0.0798 0.3531,0.15602 0.3129,0.22545 0.259,0.28504 0.1931,0.33218 0.1198,0.36489 0.04,0.38146 -0.04,0.38147 -0.1198,0.36488 -0.1931,0.33218 -0.259,0.28505 -0.3129,0.22548 -0.3531,0.15602 -0.379,0.0798 z m -140.01649,0 -0.37905,-0.0798 -0.35305,-0.15602 -0.31298,-0.22548 -0.25893,-0.28505 -0.19315,-0.33218 -0.1202,-0.36488 -0.0401,-0.38147 0.0401,-0.38146 0.1202,-0.36489 0.19315,-0.33218 0.25893,-0.28504 0.31298,-0.22545 0.35305,-0.15602 0.37905,-0.0798 h 0.38605 l 0.37905,0.0798 0.35305,0.15602 0.31299,0.22545 0.25892,0.28504 0.19316,0.33218 0.11982,0.36489 0.0401,0.38146 -0.0401,0.38147 -0.11982,0.36488 -0.19316,0.33218 -0.25892,0.28505 -0.31299,0.22548 -0.35305,0.15602 -0.37905,0.0798 z m 90.01049,0 -0.3791,-0.0798 -0.353,-0.15602 -0.313,-0.22548 -0.2589,-0.28505 -0.1932,-0.33218 -0.1202,-0.36488 -0.04,-0.38147 0.04,-0.38146 0.1202,-0.36489 0.1932,-0.33218 0.2589,-0.28504 0.313,-0.22545 0.353,-0.15602 0.3791,-0.0798 h 0.386 l 0.3791,0.0798 0.353,0.15602 0.313,0.22545 0.2589,0.28504 0.1932,0.33218 0.1198,0.36489 0.04,0.38146 -0.04,0.38147 -0.1198,0.36488 -0.1932,0.33218 -0.2589,0.28505 -0.313,0.22548 -0.353,0.15602 -0.3791,0.0798 z m -40.0048,0 -0.3791,-0.0798 -0.353,-0.15602 -0.313,-0.22548 -0.2589,-0.28505 -0.1932,-0.33218 -0.1198,-0.36488 -0.04,-0.38147 0.04,-0.38146 0.1198,-0.36489 0.1932,-0.33218 0.2589,-0.28504 0.313,-0.22545 0.353,-0.15602 0.3791,-0.0798 h 0.3861 l 0.379,0.0798 0.353,0.15602 0.313,0.22545 0.2589,0.28504 0.1932,0.33218 0.1198,0.36489 0.04,0.38146 -0.04,0.38147 -0.1198,0.36488 -0.1932,0.33218 -0.2589,0.28505 -0.313,0.22548 -0.353,0.15602 -0.379,0.0798 z m -100.01175,0 -0.37833,-0.0798 -0.35343,-0.15602 -0.31298,-0.22548 -0.25893,-0.28505 -0.19353,-0.33218 -0.11944,-0.36488 -0.0405,-0.38147 0.0405,-0.38146 0.11944,-0.36489 0.19353,-0.33218 0.25893,-0.28504 0.31298,-0.22545 0.35343,-0.15602 0.37833,-0.0798 h 0.38684 l 0.37834,0.0798 0.35342,0.15602 0.31299,0.22545 0.25892,0.28504 0.19316,0.33218 0.11982,0.36489 0.0405,0.38146 -0.0405,0.38147 -0.11982,0.36488 -0.19316,0.33218 -0.25892,0.28505 -0.31299,0.22548 -0.35342,0.15602 -0.37834,0.0798 z"
       inkscape:connector-curvature="0"
       style="fill:none;stroke:#000000;stroke-width:0.49798635" />
    <path
       id="path7171"
       d="M 1200.2872,168.51927 H 830.04541 v 62.30232 h 370.24179 z m -218.63858,18.49215 -0.37847,-0.0797 -0.35254,-0.15602 -0.31252,-0.22591 -0.25855,-0.28484 -0.19288,-0.33206 -0.11964,-0.36493 -0.04,-0.38152 0.04,-0.38155 0.11964,-0.36492 0.19288,-0.33207 0.25855,-0.28484 0.31252,-0.22553 0.35254,-0.15602 0.37847,-0.0797 h 0.38548 l 0.3785,0.0797 0.35254,0.15602 0.31252,0.22553 0.25855,0.28484 0.19287,0.33207 0.11965,0.36492 0.04,0.38155 -0.04,0.38152 -0.11965,0.36493 -0.19287,0.33206 -0.25855,0.28484 -0.31252,0.22591 -0.35254,0.15602 -0.3785,0.0797 z m -99.86612,0 -0.37783,-0.0797 -0.35292,-0.15602 -0.31251,-0.22591 -0.25855,-0.28484 -0.19326,-0.33206 -0.11927,-0.36493 -0.0404,-0.38152 0.0404,-0.38155 0.11927,-0.36492 0.19326,-0.33207 0.25855,-0.28484 0.31251,-0.22553 0.35292,-0.15602 0.37783,-0.0797 h 0.38628 l 0.37778,0.0797 0.35291,0.15602 0.31253,0.22553 0.25855,0.28484 0.19287,0.33207 0.11927,0.36492 0.0404,0.38155 -0.0404,0.38152 -0.11927,0.36493 -0.19287,0.33206 -0.25855,0.28484 -0.31253,0.22591 -0.35291,0.15602 -0.37778,0.0797 z m 161.7824,0 -0.3785,-0.0797 -0.3526,-0.15602 -0.3124,-0.22591 -0.2586,-0.28484 -0.1929,-0.33206 -0.1197,-0.36493 -0.04,-0.38152 0.04,-0.38155 0.1197,-0.36492 0.1929,-0.33207 0.2586,-0.28484 0.3124,-0.22553 0.3526,-0.15602 0.3785,-0.0797 h 0.3854 l 0.3786,0.0797 0.3525,0.15602 0.3125,0.22553 0.2586,0.28484 0.1928,0.33207 0.1197,0.36492 0.04,0.38155 -0.04,0.38152 -0.1197,0.36493 -0.1928,0.33206 -0.2586,0.28484 -0.3125,0.22591 -0.3525,0.15602 -0.3786,0.0797 z m 49.9329,0 -0.3786,-0.0797 -0.3524,-0.15602 -0.3126,-0.22591 -0.2586,-0.28484 -0.1928,-0.33206 -0.1196,-0.36493 -0.04,-0.38152 0.04,-0.38155 0.1196,-0.36492 0.1928,-0.33207 0.2586,-0.28484 0.3126,-0.22553 0.3524,-0.15602 0.3786,-0.0797 h 0.3854 l 0.3785,0.0797 0.3526,0.15602 0.3125,0.22553 0.2585,0.28484 0.1929,0.33207 0.1197,0.36492 0.04,0.38155 -0.04,0.38152 -0.1197,0.36493 -0.1929,0.33206 -0.2585,0.28484 -0.3125,0.22591 -0.3526,0.15602 -0.3785,0.0797 z m -161.78204,0 -0.3785,-0.0797 -0.35253,-0.15602 -0.31253,-0.22591 -0.25855,-0.28484 -0.19287,-0.33206 -0.11965,-0.36493 -0.04,-0.38152 0.04,-0.38155 0.11965,-0.36492 0.19287,-0.33207 0.25855,-0.28484 0.31253,-0.22553 0.35253,-0.15602 0.3785,-0.0797 h 0.38549 l 0.37846,0.0797 0.35253,0.15602 0.31253,0.22553 0.25855,0.28484 0.19288,0.33207 0.11965,0.36492 0.04,0.38155 -0.04,0.38152 -0.11965,0.36493 -0.19288,0.33206 -0.25855,0.28484 -0.31253,0.22591 -0.35253,0.15602 -0.37846,0.0797 z m 211.71484,0 -0.3784,-0.0797 -0.3526,-0.15602 -0.3125,-0.22591 -0.2585,-0.28484 -0.1929,-0.33206 -0.1196,-0.36493 -0.04,-0.38152 0.04,-0.38155 0.1196,-0.36492 0.1929,-0.33207 0.2585,-0.28484 0.3125,-0.22553 0.3526,-0.15602 0.3784,-0.0797 h 0.3855 l 0.3785,0.0797 0.3526,0.15602 0.3125,0.22553 0.2585,0.28484 0.1929,0.33207 0.12,0.36492 0.04,0.38155 -0.04,0.38152 -0.12,0.36493 -0.1929,0.33206 -0.2585,0.28484 -0.3125,0.22591 -0.3526,0.15602 -0.3785,0.0797 z m -96.677,26.94486 v -22.81769 h 95.8711 v 22.81769 z m -161.78199,0 v -22.81769 h 95.87112 v 22.81769 z m 258.45899,7.77775 -0.3784,-0.0797 -0.3526,-0.15602 -0.3125,-0.22515 -0.2585,-0.28485 -0.1929,-0.33206 -0.1196,-0.36493 -0.04,-0.38155 0.04,-0.38155 0.1196,-0.36493 0.1929,-0.33206 0.2585,-0.28522 0.3125,-0.22553 0.3526,-0.15602 0.3784,-0.0797 h 0.3855 l 0.3785,0.0797 0.3526,0.15602 0.3125,0.22553 0.2585,0.28522 0.1929,0.33206 0.12,0.36493 0.04,0.38155 -0.04,0.38155 -0.12,0.36493 -0.1929,0.33206 -0.2585,0.28485 -0.3125,0.22515 -0.3526,0.15602 -0.3785,0.0797 z m -99.8657,0 -0.3785,-0.0797 -0.3526,-0.15602 -0.3124,-0.22515 -0.2586,-0.28485 -0.1929,-0.33206 -0.1197,-0.36493 -0.04,-0.38155 0.04,-0.38155 0.1197,-0.36493 0.1929,-0.33206 0.2586,-0.28522 0.3124,-0.22553 0.3526,-0.15602 0.3785,-0.0797 h 0.3854 l 0.3786,0.0797 0.3525,0.15602 0.3125,0.22553 0.2586,0.28522 0.1928,0.33206 0.1197,0.36493 0.04,0.38155 -0.04,0.38155 -0.1197,0.36493 -0.1928,0.33206 -0.2586,0.28485 -0.3125,0.22515 -0.3525,0.15602 -0.3786,0.0797 z m -161.7824,0 -0.37783,-0.0797 -0.35292,-0.15602 -0.31251,-0.22515 -0.25855,-0.28485 -0.19326,-0.33206 -0.11927,-0.36493 -0.0404,-0.38155 0.0404,-0.38155 0.11927,-0.36493 0.19326,-0.33206 0.25855,-0.28522 0.31251,-0.22553 0.35292,-0.15602 0.37783,-0.0797 h 0.38628 l 0.37778,0.0797 0.35291,0.15602 0.31253,0.22553 0.25855,0.28522 0.19287,0.33206 0.11927,0.36493 0.0404,0.38155 -0.0404,0.38155 -0.11927,0.36493 -0.19287,0.33206 -0.25855,0.28485 -0.31253,0.22515 -0.35291,0.15602 -0.37778,0.0797 z m 99.86612,0 -0.37847,-0.0797 -0.35254,-0.15602 -0.31252,-0.22515 -0.25855,-0.28485 -0.19288,-0.33206 -0.11964,-0.36493 -0.04,-0.38155 0.04,-0.38155 0.11964,-0.36493 0.19288,-0.33206 0.25855,-0.28522 0.31252,-0.22553 0.35254,-0.15602 0.37847,-0.0797 h 0.38548 l 0.3785,0.0797 0.35254,0.15602 0.31252,0.22553 0.25855,0.28522 0.19287,0.33206 0.11965,0.36493 0.04,0.38155 -0.04,0.38155 -0.11965,0.36493 -0.19287,0.33206 -0.25855,0.28485 -0.31252,0.22515 -0.35254,0.15602 -0.3785,0.0797 z m 111.84918,0 -0.3786,-0.0797 -0.3524,-0.15602 -0.3126,-0.22515 -0.2586,-0.28485 -0.1928,-0.33206 -0.1196,-0.36493 -0.04,-0.38155 0.04,-0.38155 0.1196,-0.36493 0.1928,-0.33206 0.2586,-0.28522 0.3126,-0.22553 0.3524,-0.15602 0.3786,-0.0797 h 0.3854 l 0.3785,0.0797 0.3526,0.15602 0.3125,0.22553 0.2585,0.28522 0.1929,0.33206 0.1197,0.36493 0.04,0.38155 -0.04,0.38155 -0.1197,0.36493 -0.1929,0.33206 -0.2585,0.28485 -0.3125,0.22515 -0.3526,0.15602 -0.3785,0.0797 z m -161.78204,0 -0.3785,-0.0797 -0.35253,-0.15602 -0.31253,-0.22515 -0.25855,-0.28485 -0.19287,-0.33206 -0.11965,-0.36493 -0.04,-0.38155 0.04,-0.38155 0.11965,-0.36493 0.19287,-0.33206 0.25855,-0.28522 0.31253,-0.22553 0.35253,-0.15602 0.3785,-0.0797 h 0.38549 l 0.37846,0.0797 0.35253,0.15602 0.31253,0.22553 0.25855,0.28522 0.19288,0.33206 0.11965,0.36493 0.04,0.38155 -0.04,0.38155 -0.11965,0.36493 -0.19288,0.33206 -0.25855,0.28485 -0.31253,0.22515 -0.35253,0.15602 -0.37846,0.0797 z"
       inkscape:connector-curvature="0"
       style="fill:none;stroke:#000000;stroke-width:0.49768037" />
    <g
       id="g7473"
       transform="matrix(0.26458333,0,0,0.26458333,788.97624,-138.26542)">
      <g
         id="g7423"
         inkscape:label="0" />
      <g
         id="g7445"
         inkscape:label="Layer_1">
        <path
           id="path7425"
           style="fill:none;stroke:#000000"
           d="M 1533.0238,767.24099 H 187.80057 v 77.07066 H 110.41463 V 767.24099 H 16.041638 L 0.94182,782.27924 v 327.08016 l 12.268574,12.2185 H 1535.855 l 9.03,-8.9932 V 779.05391 Z"
           inkscape:connector-curvature="0" />
        <path
           id="path7427"
           style="fill:none;stroke:#000000"
           d="m 49.01178,1085.1024 -0.463673,2.1911 -0.917405,2.0463 -1.321171,1.8121 -1.67229,1.499 -1.947931,1.1197 -2.136529,0.692 -2.238576,0.2343 -2.238539,-0.2343 -2.136567,-0.692 -1.94793,-1.1197 -1.67229,-1.499 -1.321134,-1.8121 -0.917443,-2.0463 -0.463672,-2.1911 v -2.2399 l 0.463672,-2.1911 0.917443,-2.0462 1.321134,-1.8122 1.67229,-1.4989 1.94793,-1.1197 2.136567,-0.692 2.238539,-0.2343 2.238576,0.2343 2.136529,0.692 1.947931,1.1197 1.67229,1.4989 1.321171,1.8122 0.917405,2.0462 0.463673,2.1911 z"
           inkscape:connector-curvature="0" />
        <path
           id="path7429"
           style="fill:none;stroke:#000000"
           d="m 141.49735,976.07569 -0.46367,2.19107 -0.91741,2.04627 -1.32117,1.81214 -1.67229,1.49892 -1.94793,1.11968 -2.13653,0.692 -2.23858,0.23433 -2.23854,-0.23433 -2.13656,-0.692 -1.94793,-1.11968 -1.67225,-1.49892 -1.32118,-1.81214 -0.9174,-2.04627 -0.46367,-2.19107 v -2.23997 l 0.46367,-2.19107 0.9174,-2.04627 1.32118,-1.8121 1.67225,-1.49896 1.94793,-1.11972 2.13656,-0.69204 2.23854,-0.23433 2.23858,0.23433 2.13653,0.69204 1.94793,1.11972 1.67229,1.49896 1.32117,1.8121 0.91741,2.04627 0.46367,2.19107 z"
           inkscape:connector-curvature="0" />
        <path
           id="path7431"
           style="fill:none;stroke:#000000"
           d="m 254.74503,806.89644 -0.46371,2.19092 -0.91736,2.04627 -1.32118,1.81229 -1.67229,1.49892 -1.94793,1.11972 -2.13656,0.69203 -2.23854,0.23433 -2.23858,-0.23433 -2.13653,-0.69203 -1.94793,-1.11972 -1.67229,-1.49892 -1.32117,-1.81229 -0.91737,-2.04627 -0.46371,-2.19092 v -2.24009 l 0.46371,-2.1911 0.91737,-2.04628 1.32117,-1.81209 1.67229,-1.49896 1.94793,-1.11972 2.13653,-0.69204 2.23858,-0.23433 2.23854,0.23433 2.13656,0.69204 1.94793,1.11972 1.67229,1.49896 1.32118,1.81209 0.91736,2.04628 0.46371,2.1911 z"
           inkscape:connector-curvature="0" />
        <path
           id="path7433"
           style="fill:none;stroke:#000000"
           d="m 534.71596,1007.6638 h -203.8458 v -64.66423 h 203.8458 z"
           inkscape:connector-curvature="0" />
        <path
           id="path7435"
           style="fill:none;stroke:#000000"
           d="m 862.50758,1085.1024 -0.46367,2.1911 -0.91741,2.0463 -1.32117,1.8121 -1.67229,1.499 -1.94793,1.1197 -2.13653,0.692 -2.23858,0.2343 -2.23854,-0.2343 -2.13656,-0.692 -1.94793,-1.1197 -1.67229,-1.499 -1.32114,-1.8121 -0.9174,-2.0463 -0.46371,-2.1911 v -2.2399 l 0.46371,-2.1911 0.9174,-2.0462 1.32114,-1.8122 1.67229,-1.4989 1.94793,-1.1197 2.13656,-0.692 2.23854,-0.2343 2.23858,0.2343 2.13653,0.692 1.94793,1.1197 1.67229,1.4989 1.32117,1.8122 0.91741,2.0462 0.46367,2.1911 z"
           inkscape:connector-curvature="0" />
        <path
           id="path7437"
           style="fill:none;stroke:#000000"
           d="m 877.60724,806.89644 -0.46371,2.19092 -0.9174,2.04627 -1.32117,1.81229 -1.67229,1.49892 -1.9479,1.11972 -2.13656,0.69203 -2.23858,0.23433 -2.23854,-0.23433 -2.13653,-0.69203 -1.94797,-1.11972 -1.67225,-1.49892 -1.32117,-1.81229 -0.91737,-2.04627 -0.46371,-2.19092 v -2.24009 l 0.46371,-2.1911 0.91737,-2.04628 1.32117,-1.81209 1.67225,-1.49896 1.94797,-1.11972 2.13653,-0.69204 2.23854,-0.23433 2.23858,0.23433 2.13656,0.69204 1.9479,1.11972 1.67229,1.49896 1.32117,1.81209 0.9174,2.04628 0.46371,2.1911 z"
           inkscape:connector-curvature="0" />
        <path
           id="path7439"
           style="fill:none;stroke:#000000"
           d="m 1357.6489,1007.6638 h -203.8458 v -64.66423 h 203.8458 z"
           inkscape:connector-curvature="0" />
        <path
           id="path7441"
           style="fill:none;stroke:#000000"
           d="m 1462.7216,806.89644 -0.468,2.19092 -0.9145,2.04627 -1.3226,1.81229 -1.6714,1.49892 -1.948,1.11972 -2.1388,0.69203 -2.2369,0.23433 -2.2368,-0.23433 -2.1393,-0.69203 -1.9477,-1.11972 -1.6716,-1.49892 -1.3226,-1.81229 -0.9145,-2.04627 -0.468,-2.19092 v -2.24009 l 0.468,-2.1911 0.9145,-2.04628 1.3226,-1.81209 1.6716,-1.49896 1.9477,-1.11972 2.1393,-0.69204 2.2368,-0.23433 2.2369,0.23433 2.1388,0.69204 1.948,1.11972 1.6714,1.49896 1.3226,1.81209 0.9145,2.04628 0.468,2.1911 z"
           inkscape:connector-curvature="0" />
        <path
           id="path7443"
           style="fill:none;stroke:#000000"
           d="m 1462.7216,976.07569 -0.468,2.19107 -0.9145,2.04627 -1.3226,1.81214 -1.6714,1.49892 -1.948,1.11968 -2.1388,0.692 -2.2369,0.23433 -2.2368,-0.23433 -2.1393,-0.692 -1.9477,-1.11968 -1.6716,-1.49892 -1.3226,-1.81214 -0.9145,-2.04627 -0.468,-2.19107 v -2.23997 l 0.468,-2.19107 0.9145,-2.04627 1.3226,-1.8121 1.6716,-1.49896 1.9477,-1.11972 2.1393,-0.69204 2.2368,-0.23433 2.2369,0.23433 2.1388,0.69204 1.948,1.11972 1.6714,1.49896 1.3226,1.8121 0.9145,2.04627 0.468,2.19107 z"
           inkscape:connector-curvature="0" />
      </g>
    </g>
    <g
       id="g7649"
       transform="matrix(0.26458333,0,0,0.26458333,781.77561,-237.71717)">
      <g
         id="g7599"
         inkscape:label="0" />
      <g
         id="g7621"
         inkscape:label="Layer_1">
        <path
           id="path7601"
           style="fill:none;stroke:#000000"
           d="M 9.971815,1121.5779 H 1532.6166 l 12.2684,-12.2185 V 782.27913 l -15.0997,-15.03814 h -94.373 v 77.07069 h -77.3859 V 767.24099 H 12.80287 L 0.941805,779.05345 v 333.53165 z"
           inkscape:connector-curvature="0" />
        <path
           id="path7603"
           style="fill:none;stroke:#000000"
           d="m 1496.8152,1082.8622 0.4637,-2.1919 0.9174,-2.0451 1.3211,-1.8122 1.6723,-1.5 1.9479,-1.1198 2.1366,-0.692 2.2386,-0.2332 2.2385,0.2332 2.1366,0.692 1.9477,1.1198 1.6723,1.5 1.3212,1.8122 0.9174,2.0451 0.4637,2.1919 v 2.2407 l -0.4637,2.1918 -0.9174,2.0451 -1.3212,1.8121 -1.6723,1.5001 -1.9477,1.1212 -2.1366,0.692 -2.2385,0.2332 -2.2386,-0.2332 -2.1366,-0.692 -1.9479,-1.1212 -1.6723,-1.5001 -1.3211,-1.8121 -0.9174,-2.0451 -0.4637,-2.1918 z"
           inkscape:connector-curvature="0" />
        <path
           id="path7605"
           style="fill:none;stroke:#000000"
           d="m 1404.3296,973.83541 0.4637,-2.19178 0.9174,-2.04514 1.3212,-1.8121 1.6723,-1.50009 1.9477,-1.11972 2.1367,-0.69203 2.2386,-0.2332 2.2384,0.2332 2.1367,0.69203 1.9478,1.11972 1.6723,1.50009 1.3211,1.8121 0.9174,2.04514 0.4637,2.19178 v 2.24081 l -0.4637,2.19175 -0.9174,2.04518 -1.3211,1.81209 -1.6723,1.50009 -1.9478,1.12116 -2.1367,0.69204 -2.2384,0.23319 -2.2386,-0.23319 -2.1367,-0.69204 -1.9477,-1.12116 -1.6723,-1.50009 -1.3212,-1.81209 -0.9174,-2.04518 -0.4637,-2.19175 z"
           inkscape:connector-curvature="0" />
        <path
           id="path7607"
           style="fill:none;stroke:#000000"
           d="m 1291.0819,804.65594 0.4637,-2.19179 0.9174,-2.04514 1.3212,-1.81213 1.6723,-1.50006 1.9477,-1.11972 2.1368,-0.69199 2.2385,-0.2332 2.2384,0.2332 2.1367,0.69199 1.9478,1.11972 1.6723,1.50006 1.3211,1.81213 0.9175,2.04514 0.4636,2.19179 v 2.2408 l -0.4636,2.19179 -0.9175,2.04514 -1.3211,1.81209 -1.6723,1.5001 -1.9478,1.12112 -2.1367,0.69199 -2.2384,0.2332 -2.2385,-0.2332 -2.1368,-0.69199 -1.9477,-1.12112 -1.6723,-1.5001 -1.3212,-1.81209 -0.9174,-2.04514 -0.4637,-2.19179 z"
           inkscape:connector-curvature="0" />
        <path
           id="path7609"
           style="fill:none;stroke:#000000"
           d="m 1011.111,942.99968 h 203.8458 v 64.66412 H 1011.111 Z"
           inkscape:connector-curvature="0" />
        <path
           id="path7611"
           style="fill:none;stroke:#000000"
           d="m 683.31934,1082.8622 0.46368,-2.1919 0.9174,-2.0451 1.32114,-1.8122 1.67229,-1.5 1.94796,-1.1198 2.13653,-0.692 2.23854,-0.2332 2.23858,0.2332 2.13656,0.692 1.9479,1.1198 1.67233,1.5 1.32113,1.8122 0.9174,2.0451 0.46371,2.1919 v 2.2407 l -0.46371,2.1918 -0.9174,2.0451 -1.32113,1.8121 -1.67233,1.5001 -1.9479,1.1212 -2.13656,0.692 -2.23858,0.2332 -2.23854,-0.2332 -2.13653,-0.692 -1.94796,-1.1212 -1.67229,-1.5001 -1.32114,-1.8121 -0.9174,-2.0451 -0.46368,-2.1918 z"
           inkscape:connector-curvature="0" />
        <path
           id="path7613"
           style="fill:none;stroke:#000000"
           d="m 668.21968,804.65594 0.46371,-2.19179 0.9174,-2.04514 1.32114,-1.81213 1.67229,-1.50006 1.94778,-1.11972 2.13671,-0.69199 2.23854,-0.2332 2.23843,0.2332 2.13668,0.69199 1.94782,1.11972 1.67225,1.50006 1.32117,1.81213 0.91737,2.04514 0.46371,2.19179 v 2.2408 l -0.46371,2.19179 -0.91737,2.04514 -1.32117,1.81209 -1.67225,1.5001 -1.94782,1.12112 -2.13668,0.69199 -2.23843,0.2332 -2.23854,-0.2332 -2.13671,-0.69199 -1.94778,-1.12112 -1.67229,-1.5001 -1.32114,-1.81209 -0.9174,-2.04514 -0.46371,-2.19179 z"
           inkscape:connector-curvature="0" />
        <path
           id="path7615"
           style="fill:none;stroke:#000000"
           d="m 188.17779,942.99968 h 203.84585 v 64.66412 H 188.17779 Z"
           inkscape:connector-curvature="0" />
        <path
           id="path7617"
           style="fill:none;stroke:#000000"
           d="m 83.105182,973.83541 0.467981,-2.19178 0.914532,-2.04514 1.322608,-1.8121 1.671534,-1.50009 1.947817,-1.11972 2.138835,-0.69203 2.236989,-0.2332 2.236686,0.2332 2.139289,0.69203 1.947777,1.11972 1.67157,1.50009 1.32257,1.8121 0.91457,2.04514 0.46799,2.19178 v 2.24081 l -0.46799,2.19175 -0.91457,2.04518 -1.32257,1.81209 -1.67157,1.50009 -1.947777,1.12116 -2.139289,0.69204 -2.236686,0.23319 -2.236989,-0.23319 -2.138835,-0.69204 -1.947817,-1.12116 -1.671534,-1.50009 -1.322608,-1.81209 -0.914532,-2.04518 -0.467981,-2.19175 z"
           inkscape:connector-curvature="0" />
        <path
           id="path7619"
           style="fill:none;stroke:#000000"
           d="m 83.105182,804.65594 0.467981,-2.19179 0.914532,-2.04514 1.322608,-1.81213 1.671534,-1.50006 1.947817,-1.11972 2.138835,-0.69199 2.236989,-0.2332 2.236686,0.2332 2.139289,0.69199 1.947777,1.11972 1.67157,1.50006 1.32257,1.81213 0.91457,2.04514 0.46799,2.19179 v 2.2408 l -0.46799,2.19179 -0.91457,2.04514 -1.32257,1.81209 -1.67157,1.5001 -1.947777,1.12112 -2.139289,0.69199 -2.236686,0.2332 -2.236989,-0.2332 -2.138835,-0.69199 -1.947817,-1.12112 -1.671534,-1.5001 -1.322608,-1.81209 -0.914532,-2.04514 -0.467981,-2.19179 z"
           inkscape:connector-curvature="0" />
      </g>
    </g>
  </g>
</svg>
