  0
SECTION
  2
HEADER
  9
$ACADVER
  1
AC1014
  9
$HANDSEED
  5
FFFF
  9
$MEASUREMENT
 70
     1
  0
ENDSEC
  0
SECTION
  2
TABLES
  0
TABLE
  2
VPORT
  5
8
330
0
100
AcDbSymbolTable
 70
     4
  0
VPORT
  5
2E
330
8
100
AcDbSymbolTableRecord
100
AcDbViewportTableRecord
  2
*ACTIVE
 70
     0
 10
0.0
 20
0.0
 11
1.0
 21
1.0
 12
210.0
 22
148.5
 13
0.0
 23
0.0
 14
10.0
 24
10.0
 15
10.0
 25
10.0
 16
0.0
 26
0.0
 36
1.0
 17
0.0
 27
0.0
 37
0.0
 40
341.0
 41
1.24
 42
50.0
 43
0.0
 44
0.0
 50
0.0
 51
0.0
 71
     0
 72
   100
 73
     1
 74
     3
 75
     0
 76
     0
 77
     0
 78
     0
  0
ENDTAB
  0
TABLE
  2
LTYPE
  5
5
330
0
100
AcDbSymbolTable
 70
     1
  0
LTYPE
  5
14
330
5
100
AcDbSymbolTableRecord
100
AcDbLinetypeTableRecord
  2
BYBLOCK
 70
     0
  3

 72
    65
 73
     0
 40
0.0
  0
LTYPE
  5
15
330
5
100
AcDbSymbolTableRecord
100
AcDbLinetypeTableRecord
  2
BYLAYER
 70
     0
  3

 72
    65
 73
     0
 40
0.0
  0
LTYPE
  5
16
330
5
100
AcDbSymbolTableRecord
100
AcDbLinetypeTableRecord
  2
CONTINUOUS
 70
     0
  3
Solid line
 72
    65
 73
     0
 40
0.0
  0
ENDTAB
  0
TABLE
  2
LAYER
  5
2
100
AcDbSymbolTable
 70
2
  0
LAYER
  5
50
100
AcDbSymbolTableRecord
100
AcDbLayerTableRecord
  2
0
 70
0
  6
CONTINUOUS
  0
LAYER
  5
51
100
AcDbSymbolTableRecord
100
AcDbLayerTableRecord
  2
Layer_1
 70
0
  6
CONTINUOUS
  0
ENDTAB
  0
TABLE
  2
STYLE
  5
3
330
0
100
AcDbSymbolTable
 70
     1
  0
STYLE
  5
11
330
3
100
AcDbSymbolTableRecord
100
AcDbTextStyleTableRecord
  2
STANDARD
 70
     0
 40
0.0
 41
1.0
 50
0.0
 71
     0
 42
2.5
  3
txt
  4

  0
ENDTAB
  0
TABLE
  2
VIEW
  5
6
330
0
100
AcDbSymbolTable
 70
     0
  0
ENDTAB
  0
TABLE
  2
UCS
  5
7
330
0
100
AcDbSymbolTable
 70
     0
  0
ENDTAB
  0
TABLE
  2
APPID
  5
9
330
0
100
AcDbSymbolTable
 70
     2
  0
APPID
  5
12
330
9
100
AcDbSymbolTableRecord
100
AcDbRegAppTableRecord
  2
ACAD
 70
     0
  0
ENDTAB
  0
TABLE
  2
DIMSTYLE
  5
A
330
0
100
AcDbSymbolTable
 70
     1
  0
DIMSTYLE
105
27
330
A
100
AcDbSymbolTableRecord
100
AcDbDimStyleTableRecord
  2
ISO-25
 70
     0
  3

  4

  5

  6

  7

 40
1.0
 41
2.5
 42
0.625
 43
3.75
 44
1.25
 45
0.0
 46
0.0
 47
0.0
 48
0.0
140
2.5
141
2.5
142
0.0
143
0.03937007874016
144
1.0
145
0.0
146
1.0
147
0.625
 71
     0
 72
     0
 73
     0
 74
     0
 75
     0
 76
     0
 77
     1
 78
     8
170
     0
171
     3
172
     1
173
     0
174
     0
175
     0
176
     0
177
     0
178
     0
270
     2
271
     2
272
     2
273
     2
274
     3
340
11
275
     0
280
     0
281
     0
282
     0
283
     0
284
     8
285
     0
286
     0
287
     3
288
     0
  0
ENDTAB
  0
TABLE
  2
BLOCK_RECORD
  5
1
330
0
100
AcDbSymbolTable
 70
     1
  0
BLOCK_RECORD
  5
1F
330
1
100
AcDbSymbolTableRecord
100
AcDbBlockTableRecord
  2
*MODEL_SPACE
  0
BLOCK_RECORD
  5
1B
330
1
100
AcDbSymbolTableRecord
100
AcDbBlockTableRecord
  2
*PAPER_SPACE
  0
ENDTAB
  0
ENDSEC
  0
SECTION
  2
BLOCKS
  0
BLOCK
  5
20
330
1F
100
AcDbEntity
  8
0
100
AcDbBlockBegin
  2
*MODEL_SPACE
 70
     0
 10
0.0
 20
0.0
 30
0.0
  3
*MODEL_SPACE
  1

  0
ENDBLK
  5
21
330
1F
100
AcDbEntity
  8
0
100
AcDbBlockEnd
  0
BLOCK
  5
1C
330
1B
100
AcDbEntity
 67
     1
  8
0
100
AcDbBlockBegin
  2
*PAPER_SPACE
  1

  0
ENDBLK
  5
1D
330
1B
100
AcDbEntity
 67
     1
  8
0
100
AcDbBlockEnd
  0
ENDSEC
  0
SECTION
  2
ENTITIES
  0
LWPOLYLINE
  5
100
100
AcDbEntity
  8
Layer_1
 62
7
100
AcDbPolyline
 90
5
 70
1
 10
370.491160
 20
62.551160
 30
0.0
 10
0.248840
 20
62.551160
 30
0.0
 10
0.248840
 20
0.248840
 30
0.0
 10
370.491160
 20
0.248840
 30
0.0
 10
370.491160
 20
62.551160
 30
0.0
  0
LWPOLYLINE
  5
101
100
AcDbEntity
  8
Layer_1
 62
7
100
AcDbPolyline
 90
31
 70
1
 10
151.852080
 20
44.058970
 30
0.0
 10
151.473570
 20
44.138670
 30
0.0
 10
151.121040
 20
44.294690
 30
0.0
 10
150.808520
 20
44.520600
 30
0.0
 10
150.549970
 20
44.805440
 30
0.0
 10
150.357090
 20
45.137510
 30
0.0
 10
150.237440
 20
45.502430
 30
0.0
 10
150.197440
 20
45.883990
 30
0.0
 10
150.237440
 20
46.265540
 30
0.0
 10
150.357090
 20
46.630460
 30
0.0
 10
150.549970
 20
46.962530
 30
0.0
 10
150.808520
 20
47.247370
 30
0.0
 10
151.121040
 20
47.472520
 30
0.0
 10
151.473570
 20
47.628540
 30
0.0
 10
151.852080
 20
47.708240
 30
0.0
 10
152.237570
 20
47.708240
 30
0.0
 10
152.616030
 20
47.628540
 30
0.0
 10
152.968560
 20
47.472520
 30
0.0
 10
153.281080
 20
47.247370
 30
0.0
 10
153.539640
 20
46.962530
 30
0.0
 10
153.732510
 20
46.630460
 30
0.0
 10
153.852160
 20
46.265540
 30
0.0
 10
153.892160
 20
45.883990
 30
0.0
 10
153.852160
 20
45.502430
 30
0.0
 10
153.732510
 20
45.137510
 30
0.0
 10
153.539640
 20
44.805440
 30
0.0
 10
153.281080
 20
44.520600
 30
0.0
 10
152.968560
 20
44.294690
 30
0.0
 10
152.616030
 20
44.138670
 30
0.0
 10
152.237570
 20
44.058970
 30
0.0
 10
151.852080
 20
44.058970
 30
0.0
  0
LWPOLYLINE
  5
102
100
AcDbEntity
  8
Layer_1
 62
7
100
AcDbPolyline
 90
31
 70
1
 10
51.985920
 20
44.058970
 30
0.0
 10
51.608134
 20
44.138670
 30
0.0
 10
51.255224
 20
44.294690
 30
0.0
 10
50.942698
 20
44.520600
 30
0.0
 10
50.684148
 20
44.805440
 30
0.0
 10
50.490896
 20
45.137510
 30
0.0
 10
50.371624
 20
45.502430
 30
0.0
 10
50.331244
 20
45.883990
 30
0.0
 10
50.371624
 20
46.265540
 30
0.0
 10
50.490896
 20
46.630460
 30
0.0
 10
50.684148
 20
46.962530
 30
0.0
 10
50.942698
 20
47.247370
 30
0.0
 10
51.255224
 20
47.472520
 30
0.0
 10
51.608134
 20
47.628540
 30
0.0
 10
51.985920
 20
47.708240
 30
0.0
 10
52.372197
 20
47.708240
 30
0.0
 10
52.749982
 20
47.628540
 30
0.0
 10
53.102894
 20
47.472520
 30
0.0
 10
53.415418
 20
47.247370
 30
0.0
 10
53.673969
 20
46.962530
 30
0.0
 10
53.866844
 20
46.630460
 30
0.0
 10
53.986116
 20
46.265540
 30
0.0
 10
54.026496
 20
45.883990
 30
0.0
 10
53.986116
 20
45.502430
 30
0.0
 10
53.866844
 20
45.137510
 30
0.0
 10
53.673969
 20
44.805440
 30
0.0
 10
53.415418
 20
44.520600
 30
0.0
 10
53.102894
 20
44.294690
 30
0.0
 10
52.749982
 20
44.138670
 30
0.0
 10
52.372197
 20
44.058970
 30
0.0
 10
51.985920
 20
44.058970
 30
0.0
  0
LWPOLYLINE
  5
103
100
AcDbEntity
  8
Layer_1
 62
7
100
AcDbPolyline
 90
31
 70
1
 10
213.768820
 20
44.058970
 30
0.0
 10
213.390360
 20
44.138670
 30
0.0
 10
213.037820
 20
44.294690
 30
0.0
 10
212.725290
 20
44.520600
 30
0.0
 10
212.466740
 20
44.805440
 30
0.0
 10
212.273870
 20
45.137510
 30
0.0
 10
212.154230
 20
45.502430
 30
0.0
 10
212.114230
 20
45.883990
 30
0.0
 10
212.154230
 20
46.265540
 30
0.0
 10
212.273870
 20
46.630460
 30
0.0
 10
212.466740
 20
46.962530
 30
0.0
 10
212.725290
 20
47.247370
 30
0.0
 10
213.037820
 20
47.472520
 30
0.0
 10
213.390360
 20
47.628540
 30
0.0
 10
213.768820
 20
47.708240
 30
0.0
 10
214.154300
 20
47.708240
 30
0.0
 10
214.532800
 20
47.628540
 30
0.0
 10
214.885340
 20
47.472520
 30
0.0
 10
215.197870
 20
47.247370
 30
0.0
 10
215.456410
 20
46.962530
 30
0.0
 10
215.649290
 20
46.630460
 30
0.0
 10
215.768940
 20
46.265540
 30
0.0
 10
215.808940
 20
45.883990
 30
0.0
 10
215.768940
 20
45.502430
 30
0.0
 10
215.649290
 20
45.137510
 30
0.0
 10
215.456410
 20
44.805440
 30
0.0
 10
215.197870
 20
44.520600
 30
0.0
 10
214.885340
 20
44.294690
 30
0.0
 10
214.532800
 20
44.138670
 30
0.0
 10
214.154300
 20
44.058970
 30
0.0
 10
213.768820
 20
44.058970
 30
0.0
  0
LWPOLYLINE
  5
104
100
AcDbEntity
  8
Layer_1
 62
7
100
AcDbPolyline
 90
31
 70
1
 10
263.701710
 20
44.058970
 30
0.0
 10
263.323200
 20
44.138670
 30
0.0
 10
262.970670
 20
44.294690
 30
0.0
 10
262.658150
 20
44.520600
 30
0.0
 10
262.399600
 20
44.805440
 30
0.0
 10
262.206720
 20
45.137510
 30
0.0
 10
262.087070
 20
45.502430
 30
0.0
 10
262.047070
 20
45.883990
 30
0.0
 10
262.087070
 20
46.265540
 30
0.0
 10
262.206720
 20
46.630460
 30
0.0
 10
262.399600
 20
46.962530
 30
0.0
 10
262.658150
 20
47.247370
 30
0.0
 10
262.970670
 20
47.472520
 30
0.0
 10
263.323200
 20
47.628540
 30
0.0
 10
263.701710
 20
47.708240
 30
0.0
 10
264.087200
 20
47.708240
 30
0.0
 10
264.465700
 20
47.628540
 30
0.0
 10
264.818230
 20
47.472520
 30
0.0
 10
265.130760
 20
47.247370
 30
0.0
 10
265.389310
 20
46.962530
 30
0.0
 10
265.582180
 20
46.630460
 30
0.0
 10
265.701830
 20
46.265540
 30
0.0
 10
265.741830
 20
45.883990
 30
0.0
 10
265.701830
 20
45.502430
 30
0.0
 10
265.582180
 20
45.137510
 30
0.0
 10
265.389310
 20
44.805440
 30
0.0
 10
265.130760
 20
44.520600
 30
0.0
 10
264.818230
 20
44.294690
 30
0.0
 10
264.465700
 20
44.138670
 30
0.0
 10
264.087200
 20
44.058970
 30
0.0
 10
263.701710
 20
44.058970
 30
0.0
  0
LWPOLYLINE
  5
105
100
AcDbEntity
  8
Layer_1
 62
7
100
AcDbPolyline
 90
31
 70
1
 10
101.919190
 20
44.058970
 30
0.0
 10
101.540690
 20
44.138670
 30
0.0
 10
101.188150
 20
44.294690
 30
0.0
 10
100.875620
 20
44.520600
 30
0.0
 10
100.617070
 20
44.805440
 30
0.0
 10
100.424200
 20
45.137510
 30
0.0
 10
100.304560
 20
45.502430
 30
0.0
 10
100.264560
 20
45.883990
 30
0.0
 10
100.304560
 20
46.265540
 30
0.0
 10
100.424200
 20
46.630460
 30
0.0
 10
100.617070
 20
46.962530
 30
0.0
 10
100.875620
 20
47.247370
 30
0.0
 10
101.188150
 20
47.472520
 30
0.0
 10
101.540690
 20
47.628540
 30
0.0
 10
101.919190
 20
47.708240
 30
0.0
 10
102.304670
 20
47.708240
 30
0.0
 10
102.683170
 20
47.628540
 30
0.0
 10
103.035700
 20
47.472520
 30
0.0
 10
103.348230
 20
47.247370
 30
0.0
 10
103.606780
 20
46.962530
 30
0.0
 10
103.799660
 20
46.630460
 30
0.0
 10
103.919310
 20
46.265540
 30
0.0
 10
103.959310
 20
45.883990
 30
0.0
 10
103.919310
 20
45.502430
 30
0.0
 10
103.799660
 20
45.137510
 30
0.0
 10
103.606780
 20
44.805440
 30
0.0
 10
103.348230
 20
44.520600
 30
0.0
 10
103.035700
 20
44.294690
 30
0.0
 10
102.683170
 20
44.138670
 30
0.0
 10
102.304670
 20
44.058970
 30
0.0
 10
101.919190
 20
44.058970
 30
0.0
  0
LWPOLYLINE
  5
106
100
AcDbEntity
  8
Layer_1
 62
7
100
AcDbPolyline
 90
31
 70
1
 10
313.634600
 20
44.058970
 30
0.0
 10
313.256100
 20
44.138670
 30
0.0
 10
312.903570
 20
44.294690
 30
0.0
 10
312.591040
 20
44.520600
 30
0.0
 10
312.332490
 20
44.805440
 30
0.0
 10
312.139620
 20
45.137510
 30
0.0
 10
312.019970
 20
45.502430
 30
0.0
 10
311.979970
 20
45.883990
 30
0.0
 10
312.019970
 20
46.265540
 30
0.0
 10
312.139620
 20
46.630460
 30
0.0
 10
312.332490
 20
46.962530
 30
0.0
 10
312.591040
 20
47.247370
 30
0.0
 10
312.903570
 20
47.472520
 30
0.0
 10
313.256100
 20
47.628540
 30
0.0
 10
313.634600
 20
47.708240
 30
0.0
 10
314.020080
 20
47.708240
 30
0.0
 10
314.398550
 20
47.628540
 30
0.0
 10
314.751080
 20
47.472520
 30
0.0
 10
315.063610
 20
47.247370
 30
0.0
 10
315.322160
 20
46.962530
 30
0.0
 10
315.515040
 20
46.630460
 30
0.0
 10
315.635060
 20
46.265540
 30
0.0
 10
315.675060
 20
45.883990
 30
0.0
 10
315.635060
 20
45.502430
 30
0.0
 10
315.515040
 20
45.137510
 30
0.0
 10
315.322160
 20
44.805440
 30
0.0
 10
315.063610
 20
44.520600
 30
0.0
 10
314.751080
 20
44.294690
 30
0.0
 10
314.398550
 20
44.138670
 30
0.0
 10
314.020080
 20
44.058970
 30
0.0
 10
313.634600
 20
44.058970
 30
0.0
  0
LWPOLYLINE
  5
107
100
AcDbEntity
  8
Layer_1
 62
7
100
AcDbPolyline
 90
5
 70
1
 10
216.957550
 20
17.114110
 30
0.0
 10
216.957550
 20
39.931840
 30
0.0
 10
312.828680
 20
39.931840
 30
0.0
 10
312.828680
 20
17.114110
 30
0.0
 10
216.957550
 20
17.114110
 30
0.0
  0
LWPOLYLINE
  5
108
100
AcDbEntity
  8
Layer_1
 62
7
100
AcDbPolyline
 90
5
 70
1
 10
55.175031
 20
17.114110
 30
0.0
 10
55.175031
 20
39.931840
 30
0.0
 10
151.046150
 20
39.931840
 30
0.0
 10
151.046150
 20
17.114110
 30
0.0
 10
55.175031
 20
17.114110
 30
0.0
  0
LWPOLYLINE
  5
109
100
AcDbEntity
  8
Layer_1
 62
7
100
AcDbPolyline
 90
31
 70
1
 10
313.634600
 20
9.336360
 30
0.0
 10
313.256100
 20
9.416060
 30
0.0
 10
312.903570
 20
9.572080
 30
0.0
 10
312.591040
 20
9.797990
 30
0.0
 10
312.332490
 20
10.082830
 30
0.0
 10
312.139620
 20
10.414900
 30
0.0
 10
312.019970
 20
10.779830
 30
0.0
 10
311.979970
 20
11.161380
 30
0.0
 10
312.019970
 20
11.542930
 30
0.0
 10
312.139620
 20
11.907860
 30
0.0
 10
312.332490
 20
12.239920
 30
0.0
 10
312.591040
 20
12.524760
 30
0.0
 10
312.903570
 20
12.749910
 30
0.0
 10
313.256100
 20
12.905930
 30
0.0
 10
313.634600
 20
12.985630
 30
0.0
 10
314.020080
 20
12.985630
 30
0.0
 10
314.398550
 20
12.905930
 30
0.0
 10
314.751080
 20
12.749910
 30
0.0
 10
315.063610
 20
12.524760
 30
0.0
 10
315.322160
 20
12.239920
 30
0.0
 10
315.515040
 20
11.907860
 30
0.0
 10
315.635060
 20
11.542930
 30
0.0
 10
315.675060
 20
11.161380
 30
0.0
 10
315.635060
 20
10.779830
 30
0.0
 10
315.515040
 20
10.414900
 30
0.0
 10
315.322160
 20
10.082830
 30
0.0
 10
315.063610
 20
9.797990
 30
0.0
 10
314.751080
 20
9.572080
 30
0.0
 10
314.398550
 20
9.416060
 30
0.0
 10
314.020080
 20
9.336360
 30
0.0
 10
313.634600
 20
9.336360
 30
0.0
  0
LWPOLYLINE
  5
10a
100
AcDbEntity
  8
Layer_1
 62
7
100
AcDbPolyline
 90
31
 70
1
 10
213.768820
 20
9.336360
 30
0.0
 10
213.390360
 20
9.416060
 30
0.0
 10
213.037820
 20
9.572080
 30
0.0
 10
212.725290
 20
9.797990
 30
0.0
 10
212.466740
 20
10.082830
 30
0.0
 10
212.273870
 20
10.414900
 30
0.0
 10
212.154230
 20
10.779830
 30
0.0
 10
212.114230
 20
11.161380
 30
0.0
 10
212.154230
 20
11.542930
 30
0.0
 10
212.273870
 20
11.907860
 30
0.0
 10
212.466740
 20
12.239920
 30
0.0
 10
212.725290
 20
12.524760
 30
0.0
 10
213.037820
 20
12.749910
 30
0.0
 10
213.390360
 20
12.905930
 30
0.0
 10
213.768820
 20
12.985630
 30
0.0
 10
214.154300
 20
12.985630
 30
0.0
 10
214.532800
 20
12.905930
 30
0.0
 10
214.885340
 20
12.749910
 30
0.0
 10
215.197870
 20
12.524760
 30
0.0
 10
215.456410
 20
12.239920
 30
0.0
 10
215.649290
 20
11.907860
 30
0.0
 10
215.768940
 20
11.542930
 30
0.0
 10
215.808940
 20
11.161380
 30
0.0
 10
215.768940
 20
10.779830
 30
0.0
 10
215.649290
 20
10.414900
 30
0.0
 10
215.456410
 20
10.082830
 30
0.0
 10
215.197870
 20
9.797990
 30
0.0
 10
214.885340
 20
9.572080
 30
0.0
 10
214.532800
 20
9.416060
 30
0.0
 10
214.154300
 20
9.336360
 30
0.0
 10
213.768820
 20
9.336360
 30
0.0
  0
LWPOLYLINE
  5
10b
100
AcDbEntity
  8
Layer_1
 62
7
100
AcDbPolyline
 90
31
 70
1
 10
51.985920
 20
9.336360
 30
0.0
 10
51.608134
 20
9.416060
 30
0.0
 10
51.255224
 20
9.572080
 30
0.0
 10
50.942698
 20
9.797990
 30
0.0
 10
50.684148
 20
10.082830
 30
0.0
 10
50.490896
 20
10.414900
 30
0.0
 10
50.371624
 20
10.779830
 30
0.0
 10
50.331244
 20
11.161380
 30
0.0
 10
50.371624
 20
11.542930
 30
0.0
 10
50.490896
 20
11.907860
 30
0.0
 10
50.684148
 20
12.239920
 30
0.0
 10
50.942698
 20
12.524760
 30
0.0
 10
51.255224
 20
12.749910
 30
0.0
 10
51.608134
 20
12.905930
 30
0.0
 10
51.985920
 20
12.985630
 30
0.0
 10
52.372197
 20
12.985630
 30
0.0
 10
52.749982
 20
12.905930
 30
0.0
 10
53.102894
 20
12.749910
 30
0.0
 10
53.415418
 20
12.524760
 30
0.0
 10
53.673969
 20
12.239920
 30
0.0
 10
53.866844
 20
11.907860
 30
0.0
 10
53.986116
 20
11.542930
 30
0.0
 10
54.026496
 20
11.161380
 30
0.0
 10
53.986116
 20
10.779830
 30
0.0
 10
53.866844
 20
10.414900
 30
0.0
 10
53.673969
 20
10.082830
 30
0.0
 10
53.415418
 20
9.797990
 30
0.0
 10
53.102894
 20
9.572080
 30
0.0
 10
52.749982
 20
9.416060
 30
0.0
 10
52.372197
 20
9.336360
 30
0.0
 10
51.985920
 20
9.336360
 30
0.0
  0
LWPOLYLINE
  5
10c
100
AcDbEntity
  8
Layer_1
 62
7
100
AcDbPolyline
 90
31
 70
1
 10
151.852080
 20
9.336360
 30
0.0
 10
151.473570
 20
9.416060
 30
0.0
 10
151.121040
 20
9.572080
 30
0.0
 10
150.808520
 20
9.797990
 30
0.0
 10
150.549970
 20
10.082830
 30
0.0
 10
150.357090
 20
10.414900
 30
0.0
 10
150.237440
 20
10.779830
 30
0.0
 10
150.197440
 20
11.161380
 30
0.0
 10
150.237440
 20
11.542930
 30
0.0
 10
150.357090
 20
11.907860
 30
0.0
 10
150.549970
 20
12.239920
 30
0.0
 10
150.808520
 20
12.524760
 30
0.0
 10
151.121040
 20
12.749910
 30
0.0
 10
151.473570
 20
12.905930
 30
0.0
 10
151.852080
 20
12.985630
 30
0.0
 10
152.237570
 20
12.985630
 30
0.0
 10
152.616030
 20
12.905930
 30
0.0
 10
152.968560
 20
12.749910
 30
0.0
 10
153.281080
 20
12.524760
 30
0.0
 10
153.539640
 20
12.239920
 30
0.0
 10
153.732510
 20
11.907860
 30
0.0
 10
153.852160
 20
11.542930
 30
0.0
 10
153.892160
 20
11.161380
 30
0.0
 10
153.852160
 20
10.779830
 30
0.0
 10
153.732510
 20
10.414900
 30
0.0
 10
153.539640
 20
10.082830
 30
0.0
 10
153.281080
 20
9.797990
 30
0.0
 10
152.968560
 20
9.572080
 30
0.0
 10
152.616030
 20
9.416060
 30
0.0
 10
152.237570
 20
9.336360
 30
0.0
 10
151.852080
 20
9.336360
 30
0.0
  0
LWPOLYLINE
  5
10d
100
AcDbEntity
  8
Layer_1
 62
7
100
AcDbPolyline
 90
31
 70
1
 10
263.701710
 20
9.336360
 30
0.0
 10
263.323200
 20
9.416060
 30
0.0
 10
262.970670
 20
9.572080
 30
0.0
 10
262.658150
 20
9.797990
 30
0.0
 10
262.399600
 20
10.082830
 30
0.0
 10
262.206720
 20
10.414900
 30
0.0
 10
262.087070
 20
10.779830
 30
0.0
 10
262.047070
 20
11.161380
 30
0.0
 10
262.087070
 20
11.542930
 30
0.0
 10
262.206720
 20
11.907860
 30
0.0
 10
262.399600
 20
12.239920
 30
0.0
 10
262.658150
 20
12.524760
 30
0.0
 10
262.970670
 20
12.749910
 30
0.0
 10
263.323200
 20
12.905930
 30
0.0
 10
263.701710
 20
12.985630
 30
0.0
 10
264.087200
 20
12.985630
 30
0.0
 10
264.465700
 20
12.905930
 30
0.0
 10
264.818230
 20
12.749910
 30
0.0
 10
265.130760
 20
12.524760
 30
0.0
 10
265.389310
 20
12.239920
 30
0.0
 10
265.582180
 20
11.907860
 30
0.0
 10
265.701830
 20
11.542930
 30
0.0
 10
265.741830
 20
11.161380
 30
0.0
 10
265.701830
 20
10.779830
 30
0.0
 10
265.582180
 20
10.414900
 30
0.0
 10
265.389310
 20
10.082830
 30
0.0
 10
265.130760
 20
9.797990
 30
0.0
 10
264.818230
 20
9.572080
 30
0.0
 10
264.465700
 20
9.416060
 30
0.0
 10
264.087200
 20
9.336360
 30
0.0
 10
263.701710
 20
9.336360
 30
0.0
  0
LWPOLYLINE
  5
10e
100
AcDbEntity
  8
Layer_1
 62
7
100
AcDbPolyline
 90
31
 70
1
 10
101.919190
 20
9.336360
 30
0.0
 10
101.540690
 20
9.416060
 30
0.0
 10
101.188150
 20
9.572080
 30
0.0
 10
100.875620
 20
9.797990
 30
0.0
 10
100.617070
 20
10.082830
 30
0.0
 10
100.424200
 20
10.414900
 30
0.0
 10
100.304560
 20
10.779830
 30
0.0
 10
100.264560
 20
11.161380
 30
0.0
 10
100.304560
 20
11.542930
 30
0.0
 10
100.424200
 20
11.907860
 30
0.0
 10
100.617070
 20
12.239920
 30
0.0
 10
100.875620
 20
12.524760
 30
0.0
 10
101.188150
 20
12.749910
 30
0.0
 10
101.540690
 20
12.905930
 30
0.0
 10
101.919190
 20
12.985630
 30
0.0
 10
102.304670
 20
12.985630
 30
0.0
 10
102.683170
 20
12.905930
 30
0.0
 10
103.035700
 20
12.749910
 30
0.0
 10
103.348230
 20
12.524760
 30
0.0
 10
103.606780
 20
12.239920
 30
0.0
 10
103.799660
 20
11.907860
 30
0.0
 10
103.919310
 20
11.542930
 30
0.0
 10
103.959310
 20
11.161380
 30
0.0
 10
103.919310
 20
10.779830
 30
0.0
 10
103.799660
 20
10.414900
 30
0.0
 10
103.606780
 20
10.082830
 30
0.0
 10
103.348230
 20
9.797990
 30
0.0
 10
103.035700
 20
9.572080
 30
0.0
 10
102.683170
 20
9.416060
 30
0.0
 10
102.304670
 20
9.336360
 30
0.0
 10
101.919190
 20
9.336360
 30
0.0
  0
ENDSEC
  0
SECTION
  2
OBJECTS
  0
DICTIONARY
  5
C
330
0
100
AcDbDictionary
  3
ACAD_GROUP
350
D
  3
ACAD_MLINESTYLE
350
17
  0
DICTIONARY
  5
D
330
C
100
AcDbDictionary
  0
DICTIONARY
  5
1A
330
C
100
AcDbDictionary
  0
DICTIONARY
  5
17
330
C
100
AcDbDictionary
  3
STANDARD
350
18
  0
DICTIONARY
  5
19
330
C
100
AcDbDictionary
  0
ENDSEC
  0
EOF
