  0
SECTION
  2
HEADER
  9
$ACADVER
  1
AC1014
  9
$HANDSEED
  5
FFFF
  9
$MEASUREMENT
 70
     1
  0
ENDSEC
  0
SECTION
  2
TABLES
  0
TABLE
  2
VPORT
  5
8
330
0
100
AcDbSymbolTable
 70
     4
  0
VPORT
  5
2E
330
8
100
AcDbSymbolTableRecord
100
AcDbViewportTableRecord
  2
*ACTIVE
 70
     0
 10
0.0
 20
0.0
 11
1.0
 21
1.0
 12
210.0
 22
148.5
 13
0.0
 23
0.0
 14
10.0
 24
10.0
 15
10.0
 25
10.0
 16
0.0
 26
0.0
 36
1.0
 17
0.0
 27
0.0
 37
0.0
 40
341.0
 41
1.24
 42
50.0
 43
0.0
 44
0.0
 50
0.0
 51
0.0
 71
     0
 72
   100
 73
     1
 74
     3
 75
     0
 76
     0
 77
     0
 78
     0
  0
ENDTAB
  0
TABLE
  2
LTYPE
  5
5
330
0
100
AcDbSymbolTable
 70
     1
  0
LTYPE
  5
14
330
5
100
AcDbSymbolTableRecord
100
AcDbLinetypeTableRecord
  2
BYBLOCK
 70
     0
  3

 72
    65
 73
     0
 40
0.0
  0
LTYPE
  5
15
330
5
100
AcDbSymbolTableRecord
100
AcDbLinetypeTableRecord
  2
BYLAYER
 70
     0
  3

 72
    65
 73
     0
 40
0.0
  0
LTYPE
  5
16
330
5
100
AcDbSymbolTableRecord
100
AcDbLinetypeTableRecord
  2
CONTINUOUS
 70
     0
  3
Solid line
 72
    65
 73
     0
 40
0.0
  0
ENDTAB
  0
TABLE
  2
LAYER
  5
2
100
AcDbSymbolTable
 70
2
  0
LAYER
  5
50
100
AcDbSymbolTableRecord
100
AcDbLayerTableRecord
  2
0
 70
0
  6
CONTINUOUS
  0
LAYER
  5
51
100
AcDbSymbolTableRecord
100
AcDbLayerTableRecord
  2
Layer_1
 70
0
  6
CONTINUOUS
  0
ENDTAB
  0
TABLE
  2
STYLE
  5
3
330
0
100
AcDbSymbolTable
 70
     1
  0
STYLE
  5
11
330
3
100
AcDbSymbolTableRecord
100
AcDbTextStyleTableRecord
  2
STANDARD
 70
     0
 40
0.0
 41
1.0
 50
0.0
 71
     0
 42
2.5
  3
txt
  4

  0
ENDTAB
  0
TABLE
  2
VIEW
  5
6
330
0
100
AcDbSymbolTable
 70
     0
  0
ENDTAB
  0
TABLE
  2
UCS
  5
7
330
0
100
AcDbSymbolTable
 70
     0
  0
ENDTAB
  0
TABLE
  2
APPID
  5
9
330
0
100
AcDbSymbolTable
 70
     2
  0
APPID
  5
12
330
9
100
AcDbSymbolTableRecord
100
AcDbRegAppTableRecord
  2
ACAD
 70
     0
  0
ENDTAB
  0
TABLE
  2
DIMSTYLE
  5
A
330
0
100
AcDbSymbolTable
 70
     1
  0
DIMSTYLE
105
27
330
A
100
AcDbSymbolTableRecord
100
AcDbDimStyleTableRecord
  2
ISO-25
 70
     0
  3

  4

  5

  6

  7

 40
1.0
 41
2.5
 42
0.625
 43
3.75
 44
1.25
 45
0.0
 46
0.0
 47
0.0
 48
0.0
140
2.5
141
2.5
142
0.0
143
0.03937007874016
144
1.0
145
0.0
146
1.0
147
0.625
 71
     0
 72
     0
 73
     0
 74
     0
 75
     0
 76
     0
 77
     1
 78
     8
170
     0
171
     3
172
     1
173
     0
174
     0
175
     0
176
     0
177
     0
178
     0
270
     2
271
     2
272
     2
273
     2
274
     3
340
11
275
     0
280
     0
281
     0
282
     0
283
     0
284
     8
285
     0
286
     0
287
     3
288
     0
  0
ENDTAB
  0
TABLE
  2
BLOCK_RECORD
  5
1
330
0
100
AcDbSymbolTable
 70
     1
  0
BLOCK_RECORD
  5
1F
330
1
100
AcDbSymbolTableRecord
100
AcDbBlockTableRecord
  2
*MODEL_SPACE
  0
BLOCK_RECORD
  5
1B
330
1
100
AcDbSymbolTableRecord
100
AcDbBlockTableRecord
  2
*PAPER_SPACE
  0
ENDTAB
  0
ENDSEC
  0
SECTION
  2
BLOCKS
  0
BLOCK
  5
20
330
1F
100
AcDbEntity
  8
0
100
AcDbBlockBegin
  2
*MODEL_SPACE
 70
     0
 10
0.0
 20
0.0
 30
0.0
  3
*MODEL_SPACE
  1

  0
ENDBLK
  5
21
330
1F
100
AcDbEntity
  8
0
100
AcDbBlockEnd
  0
BLOCK
  5
1C
330
1B
100
AcDbEntity
 67
     1
  8
0
100
AcDbBlockBegin
  2
*PAPER_SPACE
  1

  0
ENDBLK
  5
1D
330
1B
100
AcDbEntity
 67
     1
  8
0
100
AcDbBlockEnd
  0
ENDSEC
  0
SECTION
  2
ENTITIES
  0
LWPOLYLINE
  5
100
100
AcDbEntity
  8
Layer_1
 62
7
100
AcDbPolyline
 90
12
 70
1
 10
405.612540
 20
94.000820
 30
0.0
 10
49.688900
 20
94.000820
 30
0.0
 10
49.688900
 20
73.609210
 30
0.0
 10
29.213870
 20
73.609210
 30
0.0
 10
29.213870
 20
94.000820
 30
0.0
 10
4.244350
 20
94.000820
 30
0.0
 10
0.249190
 20
90.021950
 30
0.0
 10
0.249190
 20
3.481990
 30
0.0
 10
3.495250
 20
0.249190
 30
0.0
 10
406.361630
 20
0.249190
 30
0.0
 10
408.750820
 20
2.628640
 30
0.0
 10
408.750820
 20
90.875320
 30
0.0
  0
LWPOLYLINE
  5
101
100
AcDbEntity
  8
Layer_1
 62
7
100
AcDbPolyline
 90
30
 70
1
 10
12.967700
 20
9.899980
 30
0.0
 10
12.845020
 20
9.320250
 30
0.0
 10
12.602290
 20
8.778840
 30
0.0
 10
12.252730
 20
8.299390
 30
0.0
 10
11.810270
 20
7.902790
 30
0.0
 10
11.294880
 20
7.606540
 30
0.0
 10
10.729590
 20
7.423450
 30
0.0
 10
10.137300
 20
7.361450
 30
0.0
 10
9.545020
 20
7.423450
 30
0.0
 10
8.979720
 20
7.606540
 30
0.0
 10
8.464330
 20
7.902790
 30
0.0
 10
8.021870
 20
8.299390
 30
0.0
 10
7.672320
 20
8.778840
 30
0.0
 10
7.429580
 20
9.320250
 30
0.0
 10
7.306900
 20
9.899980
 30
0.0
 10
7.306900
 20
10.492630
 30
0.0
 10
7.429580
 20
11.072350
 30
0.0
 10
7.672320
 20
11.613760
 30
0.0
 10
8.021870
 20
12.093220
 30
0.0
 10
8.464330
 20
12.489810
 30
0.0
 10
8.979720
 20
12.786060
 30
0.0
 10
9.545020
 20
12.969160
 30
0.0
 10
10.137300
 20
13.031160
 30
0.0
 10
10.729590
 20
12.969160
 30
0.0
 10
11.294880
 20
12.786060
 30
0.0
 10
11.810270
 20
12.489810
 30
0.0
 10
12.252730
 20
12.093220
 30
0.0
 10
12.602290
 20
11.613760
 30
0.0
 10
12.845020
 20
11.072350
 30
0.0
 10
12.967700
 20
10.492630
 30
0.0
  0
LWPOLYLINE
  5
102
100
AcDbEntity
  8
Layer_1
 62
7
100
AcDbPolyline
 90
30
 70
1
 10
37.437840
 20
38.746640
 30
0.0
 10
37.315160
 20
38.166920
 30
0.0
 10
37.072430
 20
37.625510
 30
0.0
 10
36.722870
 20
37.146050
 30
0.0
 10
36.280410
 20
36.749460
 30
0.0
 10
35.765020
 20
36.453210
 30
0.0
 10
35.199730
 20
36.270120
 30
0.0
 10
34.607440
 20
36.208120
 30
0.0
 10
34.015160
 20
36.270120
 30
0.0
 10
33.449860
 20
36.453210
 30
0.0
 10
32.934470
 20
36.749460
 30
0.0
 10
32.492020
 20
37.146050
 30
0.0
 10
32.142460
 20
37.625510
 30
0.0
 10
31.899730
 20
38.166920
 30
0.0
 10
31.777050
 20
38.746640
 30
0.0
 10
31.777050
 20
39.339300
 30
0.0
 10
31.899730
 20
39.919020
 30
0.0
 10
32.142460
 20
40.460430
 30
0.0
 10
32.492020
 20
40.939880
 30
0.0
 10
32.934470
 20
41.336480
 30
0.0
 10
33.449860
 20
41.632740
 30
0.0
 10
34.015160
 20
41.815840
 30
0.0
 10
34.607440
 20
41.877840
 30
0.0
 10
35.199730
 20
41.815840
 30
0.0
 10
35.765020
 20
41.632740
 30
0.0
 10
36.280410
 20
41.336480
 30
0.0
 10
36.722870
 20
40.939880
 30
0.0
 10
37.072430
 20
40.460430
 30
0.0
 10
37.315160
 20
39.919020
 30
0.0
 10
37.437840
 20
39.339300
 30
0.0
  0
LWPOLYLINE
  5
103
100
AcDbEntity
  8
Layer_1
 62
7
100
AcDbPolyline
 90
30
 70
1
 10
67.401290
 20
83.508650
 30
0.0
 10
67.278600
 20
82.928970
 30
0.0
 10
67.035880
 20
82.387560
 30
0.0
 10
66.686320
 20
81.908060
 30
0.0
 10
66.243860
 20
81.511470
 30
0.0
 10
65.728470
 20
81.215210
 30
0.0
 10
65.163170
 20
81.032110
 30
0.0
 10
64.570890
 20
80.970110
 30
0.0
 10
63.978600
 20
81.032110
 30
0.0
 10
63.413310
 20
81.215210
 30
0.0
 10
62.897920
 20
81.511470
 30
0.0
 10
62.455460
 20
81.908060
 30
0.0
 10
62.105900
 20
82.387560
 30
0.0
 10
61.863180
 20
82.928970
 30
0.0
 10
61.740490
 20
83.508650
 30
0.0
 10
61.740490
 20
84.101340
 30
0.0
 10
61.863180
 20
84.681070
 30
0.0
 10
62.105900
 20
85.222480
 30
0.0
 10
62.455460
 20
85.701930
 30
0.0
 10
62.897920
 20
86.098530
 30
0.0
 10
63.413310
 20
86.394790
 30
0.0
 10
63.978600
 20
86.577890
 30
0.0
 10
64.570890
 20
86.639890
 30
0.0
 10
65.163170
 20
86.577890
 30
0.0
 10
65.728470
 20
86.394790
 30
0.0
 10
66.243860
 20
86.098530
 30
0.0
 10
66.686320
 20
85.701930
 30
0.0
 10
67.035880
 20
85.222480
 30
0.0
 10
67.278600
 20
84.681070
 30
0.0
 10
67.401290
 20
84.101340
 30
0.0
  0
LWPOLYLINE
  5
104
100
AcDbEntity
  8
Layer_1
 62
7
100
AcDbPolyline
 90
4
 70
1
 10
141.476930
 20
30.388950
 30
0.0
 10
87.542730
 20
30.388950
 30
0.0
 10
87.542730
 20
47.498030
 30
0.0
 10
141.476930
 20
47.498030
 30
0.0
  0
LWPOLYLINE
  5
105
100
AcDbEntity
  8
Layer_1
 62
7
100
AcDbPolyline
 90
30
 70
1
 10
228.205130
 20
9.899980
 30
0.0
 10
228.082450
 20
9.320250
 30
0.0
 10
227.839720
 20
8.778840
 30
0.0
 10
227.490160
 20
8.299390
 30
0.0
 10
227.047700
 20
7.902790
 30
0.0
 10
226.532310
 20
7.606540
 30
0.0
 10
225.967020
 20
7.423450
 30
0.0
 10
225.374730
 20
7.361450
 30
0.0
 10
224.782450
 20
7.423450
 30
0.0
 10
224.217150
 20
7.606540
 30
0.0
 10
223.701760
 20
7.902790
 30
0.0
 10
223.259300
 20
8.299390
 30
0.0
 10
222.909750
 20
8.778840
 30
0.0
 10
222.667020
 20
9.320250
 30
0.0
 10
222.544330
 20
9.899980
 30
0.0
 10
222.544330
 20
10.492630
 30
0.0
 10
222.667020
 20
11.072350
 30
0.0
 10
222.909750
 20
11.613760
 30
0.0
 10
223.259300
 20
12.093220
 30
0.0
 10
223.701760
 20
12.489810
 30
0.0
 10
224.217150
 20
12.786060
 30
0.0
 10
224.782450
 20
12.969160
 30
0.0
 10
225.374730
 20
13.031160
 30
0.0
 10
225.967020
 20
12.969160
 30
0.0
 10
226.532310
 20
12.786060
 30
0.0
 10
227.047700
 20
12.489810
 30
0.0
 10
227.490160
 20
12.093220
 30
0.0
 10
227.839720
 20
11.613760
 30
0.0
 10
228.082450
 20
11.072350
 30
0.0
 10
228.205130
 20
10.492630
 30
0.0
  0
LWPOLYLINE
  5
106
100
AcDbEntity
  8
Layer_1
 62
7
100
AcDbPolyline
 90
30
 70
1
 10
232.200250
 20
83.508650
 30
0.0
 10
232.077560
 20
82.928970
 30
0.0
 10
231.834830
 20
82.387560
 30
0.0
 10
231.485270
 20
81.908060
 30
0.0
 10
231.042810
 20
81.511470
 30
0.0
 10
230.527430
 20
81.215210
 30
0.0
 10
229.962130
 20
81.032110
 30
0.0
 10
229.369840
 20
80.970110
 30
0.0
 10
228.777560
 20
81.032110
 30
0.0
 10
228.212270
 20
81.215210
 30
0.0
 10
227.696870
 20
81.511470
 30
0.0
 10
227.254420
 20
81.908060
 30
0.0
 10
226.904860
 20
82.387560
 30
0.0
 10
226.662140
 20
82.928970
 30
0.0
 10
226.539450
 20
83.508650
 30
0.0
 10
226.539450
 20
84.101340
 30
0.0
 10
226.662140
 20
84.681070
 30
0.0
 10
226.904860
 20
85.222480
 30
0.0
 10
227.254420
 20
85.701930
 30
0.0
 10
227.696870
 20
86.098530
 30
0.0
 10
228.212270
 20
86.394790
 30
0.0
 10
228.777560
 20
86.577890
 30
0.0
 10
229.369840
 20
86.639890
 30
0.0
 10
229.962130
 20
86.577890
 30
0.0
 10
230.527430
 20
86.394790
 30
0.0
 10
231.042810
 20
86.098530
 30
0.0
 10
231.485270
 20
85.701930
 30
0.0
 10
231.834830
 20
85.222480
 30
0.0
 10
232.077560
 20
84.681070
 30
0.0
 10
232.200250
 20
84.101340
 30
0.0
  0
LWPOLYLINE
  5
107
100
AcDbEntity
  8
Layer_1
 62
7
100
AcDbPolyline
 90
4
 70
1
 10
359.211270
 20
30.388950
 30
0.0
 10
305.277080
 20
30.388950
 30
0.0
 10
305.277080
 20
47.498030
 30
0.0
 10
359.211270
 20
47.498030
 30
0.0
  0
LWPOLYLINE
  5
108
100
AcDbEntity
  8
Layer_1
 62
7
100
AcDbPolyline
 90
30
 70
1
 10
387.011760
 20
83.508650
 30
0.0
 10
386.887940
 20
82.928970
 30
0.0
 10
386.645970
 20
82.387560
 30
0.0
 10
386.296030
 20
81.908060
 30
0.0
 10
385.853810
 20
81.511470
 30
0.0
 10
385.338410
 20
81.215210
 30
0.0
 10
384.772520
 20
81.032110
 30
0.0
 10
384.180650
 20
80.970110
 30
0.0
 10
383.588850
 20
81.032110
 30
0.0
 10
383.022830
 20
81.215210
 30
0.0
 10
382.507490
 20
81.511470
 30
0.0
 10
382.065210
 20
81.908060
 30
0.0
 10
381.715280
 20
82.387560
 30
0.0
 10
381.473310
 20
82.928970
 30
0.0
 10
381.349490
 20
83.508650
 30
0.0
 10
381.349490
 20
84.101340
 30
0.0
 10
381.473310
 20
84.681070
 30
0.0
 10
381.715280
 20
85.222480
 30
0.0
 10
382.065210
 20
85.701930
 30
0.0
 10
382.507490
 20
86.098530
 30
0.0
 10
383.022830
 20
86.394790
 30
0.0
 10
383.588850
 20
86.577890
 30
0.0
 10
384.180650
 20
86.639890
 30
0.0
 10
384.772520
 20
86.577890
 30
0.0
 10
385.338410
 20
86.394790
 30
0.0
 10
385.853810
 20
86.098530
 30
0.0
 10
386.296030
 20
85.701930
 30
0.0
 10
386.645970
 20
85.222480
 30
0.0
 10
386.887940
 20
84.681070
 30
0.0
 10
387.011760
 20
84.101340
 30
0.0
  0
LWPOLYLINE
  5
109
100
AcDbEntity
  8
Layer_1
 62
7
100
AcDbPolyline
 90
30
 70
1
 10
387.011760
 20
38.746640
 30
0.0
 10
386.887940
 20
38.166920
 30
0.0
 10
386.645970
 20
37.625510
 30
0.0
 10
386.296030
 20
37.146050
 30
0.0
 10
385.853810
 20
36.749460
 30
0.0
 10
385.338410
 20
36.453210
 30
0.0
 10
384.772520
 20
36.270120
 30
0.0
 10
384.180650
 20
36.208120
 30
0.0
 10
383.588850
 20
36.270120
 30
0.0
 10
383.022830
 20
36.453210
 30
0.0
 10
382.507490
 20
36.749460
 30
0.0
 10
382.065210
 20
37.146050
 30
0.0
 10
381.715280
 20
37.625510
 30
0.0
 10
381.473310
 20
38.166920
 30
0.0
 10
381.349490
 20
38.746640
 30
0.0
 10
381.349490
 20
39.339300
 30
0.0
 10
381.473310
 20
39.919020
 30
0.0
 10
381.715280
 20
40.460430
 30
0.0
 10
382.065210
 20
40.939880
 30
0.0
 10
382.507490
 20
41.336480
 30
0.0
 10
383.022830
 20
41.632740
 30
0.0
 10
383.588850
 20
41.815840
 30
0.0
 10
384.180650
 20
41.877840
 30
0.0
 10
384.772520
 20
41.815840
 30
0.0
 10
385.338410
 20
41.632740
 30
0.0
 10
385.853810
 20
41.336480
 30
0.0
 10
386.296030
 20
40.939880
 30
0.0
 10
386.645970
 20
40.460430
 30
0.0
 10
386.887940
 20
39.919020
 30
0.0
 10
387.011760
 20
39.339300
 30
0.0
  0
ENDSEC
  0
SECTION
  2
OBJECTS
  0
DICTIONARY
  5
C
330
0
100
AcDbDictionary
  3
ACAD_GROUP
350
D
  3
ACAD_MLINESTYLE
350
17
  0
DICTIONARY
  5
D
330
C
100
AcDbDictionary
  0
DICTIONARY
  5
1A
330
C
100
AcDbDictionary
  0
DICTIONARY
  5
17
330
C
100
AcDbDictionary
  3
STANDARD
350
18
  0
DICTIONARY
  5
19
330
C
100
AcDbDictionary
  0
ENDSEC
  0
EOF
