  0
SECTION
  2
HEADER
  9
$ACADVER
  1
AC1014
  9
$HANDSEED
  5
FFFF
  9
$MEASUREMENT
 70
     1
  0
ENDSEC
  0
SECTION
  2
TABLES
  0
TABLE
  2
VPORT
  5
8
330
0
100
AcDbSymbolTable
 70
     4
  0
VPORT
  5
2E
330
8
100
AcDbSymbolTableRecord
100
AcDbViewportTableRecord
  2
*ACTIVE
 70
     0
 10
0.0
 20
0.0
 11
1.0
 21
1.0
 12
210.0
 22
148.5
 13
0.0
 23
0.0
 14
10.0
 24
10.0
 15
10.0
 25
10.0
 16
0.0
 26
0.0
 36
1.0
 17
0.0
 27
0.0
 37
0.0
 40
341.0
 41
1.24
 42
50.0
 43
0.0
 44
0.0
 50
0.0
 51
0.0
 71
     0
 72
   100
 73
     1
 74
     3
 75
     0
 76
     0
 77
     0
 78
     0
  0
ENDTAB
  0
TABLE
  2
LTYPE
  5
5
330
0
100
AcDbSymbolTable
 70
     1
  0
LTYPE
  5
14
330
5
100
AcDbSymbolTableRecord
100
AcDbLinetypeTableRecord
  2
BYBLOCK
 70
     0
  3

 72
    65
 73
     0
 40
0.0
  0
LTYPE
  5
15
330
5
100
AcDbSymbolTableRecord
100
AcDbLinetypeTableRecord
  2
BYLAYER
 70
     0
  3

 72
    65
 73
     0
 40
0.0
  0
LTYPE
  5
16
330
5
100
AcDbSymbolTableRecord
100
AcDbLinetypeTableRecord
  2
CONTINUOUS
 70
     0
  3
Solid line
 72
    65
 73
     0
 40
0.0
  0
ENDTAB
  0
TABLE
  2
LAYER
  5
2
100
AcDbSymbolTable
 70
2
  0
LAYER
  5
50
100
AcDbSymbolTableRecord
100
AcDbLayerTableRecord
  2
0
 70
0
  6
CONTINUOUS
  0
LAYER
  5
51
100
AcDbSymbolTableRecord
100
AcDbLayerTableRecord
  2
Layer_1
 70
0
  6
CONTINUOUS
  0
ENDTAB
  0
TABLE
  2
STYLE
  5
3
330
0
100
AcDbSymbolTable
 70
     1
  0
STYLE
  5
11
330
3
100
AcDbSymbolTableRecord
100
AcDbTextStyleTableRecord
  2
STANDARD
 70
     0
 40
0.0
 41
1.0
 50
0.0
 71
     0
 42
2.5
  3
txt
  4

  0
ENDTAB
  0
TABLE
  2
VIEW
  5
6
330
0
100
AcDbSymbolTable
 70
     0
  0
ENDTAB
  0
TABLE
  2
UCS
  5
7
330
0
100
AcDbSymbolTable
 70
     0
  0
ENDTAB
  0
TABLE
  2
APPID
  5
9
330
0
100
AcDbSymbolTable
 70
     2
  0
APPID
  5
12
330
9
100
AcDbSymbolTableRecord
100
AcDbRegAppTableRecord
  2
ACAD
 70
     0
  0
ENDTAB
  0
TABLE
  2
DIMSTYLE
  5
A
330
0
100
AcDbSymbolTable
 70
     1
  0
DIMSTYLE
105
27
330
A
100
AcDbSymbolTableRecord
100
AcDbDimStyleTableRecord
  2
ISO-25
 70
     0
  3

  4

  5

  6

  7

 40
1.0
 41
2.5
 42
0.625
 43
3.75
 44
1.25
 45
0.0
 46
0.0
 47
0.0
 48
0.0
140
2.5
141
2.5
142
0.0
143
0.03937007874016
144
1.0
145
0.0
146
1.0
147
0.625
 71
     0
 72
     0
 73
     0
 74
     0
 75
     0
 76
     0
 77
     1
 78
     8
170
     0
171
     3
172
     1
173
     0
174
     0
175
     0
176
     0
177
     0
178
     0
270
     2
271
     2
272
     2
273
     2
274
     3
340
11
275
     0
280
     0
281
     0
282
     0
283
     0
284
     8
285
     0
286
     0
287
     3
288
     0
  0
ENDTAB
  0
TABLE
  2
BLOCK_RECORD
  5
1
330
0
100
AcDbSymbolTable
 70
     1
  0
BLOCK_RECORD
  5
1F
330
1
100
AcDbSymbolTableRecord
100
AcDbBlockTableRecord
  2
*MODEL_SPACE
  0
BLOCK_RECORD
  5
1B
330
1
100
AcDbSymbolTableRecord
100
AcDbBlockTableRecord
  2
*PAPER_SPACE
  0
ENDTAB
  0
ENDSEC
  0
SECTION
  2
BLOCKS
  0
BLOCK
  5
20
330
1F
100
AcDbEntity
  8
0
100
AcDbBlockBegin
  2
*MODEL_SPACE
 70
     0
 10
0.0
 20
0.0
 30
0.0
  3
*MODEL_SPACE
  1

  0
ENDBLK
  5
21
330
1F
100
AcDbEntity
  8
0
100
AcDbBlockEnd
  0
BLOCK
  5
1C
330
1B
100
AcDbEntity
 67
     1
  8
0
100
AcDbBlockBegin
  2
*PAPER_SPACE
  1

  0
ENDBLK
  5
1D
330
1B
100
AcDbEntity
 67
     1
  8
0
100
AcDbBlockEnd
  0
ENDSEC
  0
SECTION
  2
ENTITIES
  0
LWPOLYLINE
  5
100
100
AcDbEntity
  8
Layer_1
 62
7
100
AcDbPolyline
 90
21
 70
1
 10
369.797570
 20
5.242930
 30
0.0
 10
370.452740
 20
11.471910
 30
0.0
 10
372.388360
 20
17.428560
 30
0.0
 10
375.519530
 20
22.852680
 30
0.0
 10
379.711440
 20
27.507190
 30
0.0
 10
384.779220
 20
31.188690
 30
0.0
 10
390.501220
 20
33.736170
 30
0.0
 10
396.628730
 20
35.038300
 30
0.0
 10
402.893080
 20
35.038300
 30
0.0
 10
409.020580
 20
33.736170
 30
0.0
 10
410.850320
 20
32.921360
 30
0.0
 10
410.850320
 20
360.033841
 30
0.0
 10
400.862550
 20
360.033841
 30
0.0
 10
400.862550
 20
370.020330
 30
0.0
 10
10.237483
 20
370.020330
 30
0.0
 10
10.237483
 20
360.033841
 30
0.0
 10
0.249679
 20
360.033841
 30
0.0
 10
0.249679
 20
10.236180
 30
0.0
 10
10.237483
 20
10.236180
 30
0.0
 10
10.237483
 20
0.249690
 30
0.0
 10
370.322920
 20
0.249690
 30
0.0
  0
LWPOLYLINE
  5
101
100
AcDbEntity
  8
Layer_1
 62
7
100
AcDbPolyline
 90
30
 70
1
 10
19.442222
 20
347.322029
 30
0.0
 10
17.910477
 20
347.647800
 30
0.0
 10
16.479824
 20
348.284904
 30
0.0
 10
15.212889
 20
349.204657
 30
0.0
 10
14.165051
 20
350.369116
 30
0.0
 10
13.382021
 20
351.724276
 30
0.0
 10
12.898116
 20
353.214279
 30
0.0
 10
12.734284
 20
354.771137
 30
0.0
 10
12.898116
 20
356.328070
 30
0.0
 10
13.382021
 20
357.818035
 30
0.0
 10
14.165051
 20
359.173195
 30
0.0
 10
15.212889
 20
360.337654
 30
0.0
 10
16.479824
 20
361.257407
 30
0.0
 10
17.910477
 20
361.894512
 30
0.0
 10
19.442222
 20
362.220282
 30
0.0
 10
21.008280
 20
362.220282
 30
0.0
 10
22.540025
 20
361.894512
 30
0.0
 10
23.970678
 20
361.257407
 30
0.0
 10
25.237613
 20
360.337654
 30
0.0
 10
26.285453
 20
359.173195
 30
0.0
 10
27.068481
 20
357.818035
 30
0.0
 10
27.552388
 20
356.328070
 30
0.0
 10
27.716218
 20
354.771137
 30
0.0
 10
27.552388
 20
353.214279
 30
0.0
 10
27.068481
 20
351.724276
 30
0.0
 10
26.285453
 20
350.369116
 30
0.0
 10
25.237613
 20
349.204657
 30
0.0
 10
23.970678
 20
348.284904
 30
0.0
 10
22.540025
 20
347.647800
 30
0.0
 10
21.008280
 20
347.322029
 30
0.0
  0
LWPOLYLINE
  5
102
100
AcDbEntity
  8
Layer_1
 62
7
100
AcDbPolyline
 90
30
 70
1
 10
388.990090
 20
347.322029
 30
0.0
 10
387.457960
 20
347.647800
 30
0.0
 10
386.027690
 20
348.284904
 30
0.0
 10
384.761250
 20
349.204657
 30
0.0
 10
383.712530
 20
350.369116
 30
0.0
 10
382.929470
 20
351.724276
 30
0.0
 10
382.446090
 20
353.214279
 30
0.0
 10
382.282260
 20
354.771137
 30
0.0
 10
382.446090
 20
356.328070
 30
0.0
 10
382.929470
 20
357.818035
 30
0.0
 10
383.712530
 20
359.173195
 30
0.0
 10
384.761250
 20
360.337654
 30
0.0
 10
386.027690
 20
361.257407
 30
0.0
 10
387.457960
 20
361.894512
 30
0.0
 10
388.990090
 20
362.220282
 30
0.0
 10
390.556140
 20
362.220282
 30
0.0
 10
392.088270
 20
361.894512
 30
0.0
 10
393.518550
 20
361.257407
 30
0.0
 10
394.784990
 20
360.337654
 30
0.0
 10
395.833700
 20
359.173195
 30
0.0
 10
396.616730
 20
357.818035
 30
0.0
 10
397.100140
 20
356.328070
 30
0.0
 10
397.263970
 20
354.771137
 30
0.0
 10
397.100140
 20
353.214279
 30
0.0
 10
396.616730
 20
351.724276
 30
0.0
 10
395.833700
 20
350.369116
 30
0.0
 10
394.784990
 20
349.204657
 30
0.0
 10
393.518550
 20
348.284904
 30
0.0
 10
392.088270
 20
347.647800
 30
0.0
 10
390.556140
 20
347.322029
 30
0.0
  0
LWPOLYLINE
  5
103
100
AcDbEntity
  8
Layer_1
 62
7
100
AcDbPolyline
 90
30
 70
1
 10
62.979532
 20
314.984665
 30
0.0
 10
62.601701
 20
315.065545
 30
0.0
 10
62.248747
 20
315.222005
 30
0.0
 10
61.936185
 20
315.448760
 30
0.0
 10
61.677604
 20
315.736360
 30
0.0
 10
61.484328
 20
316.070823
 30
0.0
 10
61.365041
 20
316.437409
 30
0.0
 10
61.324641
 20
316.821909
 30
0.0
 10
61.365041
 20
317.206371
 30
0.0
 10
61.484328
 20
317.572957
 30
0.0
 10
61.677604
 20
317.907420
 30
0.0
 10
61.936185
 20
318.195020
 30
0.0
 10
62.248747
 20
318.421774
 30
0.0
 10
62.601701
 20
318.578235
 30
0.0
 10
62.979532
 20
318.659115
 30
0.0
 10
63.365856
 20
318.659115
 30
0.0
 10
63.743687
 20
318.578235
 30
0.0
 10
64.096640
 20
318.421774
 30
0.0
 10
64.409203
 20
318.195020
 30
0.0
 10
64.667784
 20
317.907420
 30
0.0
 10
64.860682
 20
317.572957
 30
0.0
 10
64.979969
 20
317.206371
 30
0.0
 10
65.020369
 20
316.821909
 30
0.0
 10
64.979969
 20
316.437409
 30
0.0
 10
64.860682
 20
316.070823
 30
0.0
 10
64.667784
 20
315.736360
 30
0.0
 10
64.409203
 20
315.448760
 30
0.0
 10
64.096640
 20
315.222005
 30
0.0
 10
63.743687
 20
315.065545
 30
0.0
 10
63.365856
 20
314.984665
 30
0.0
  0
LWPOLYLINE
  5
104
100
AcDbEntity
  8
Layer_1
 62
7
100
AcDbPolyline
 90
30
 70
1
 10
242.759990
 20
314.984665
 30
0.0
 10
242.381450
 20
315.065545
 30
0.0
 10
242.028860
 20
315.222005
 30
0.0
 10
241.716300
 20
315.448760
 30
0.0
 10
241.457720
 20
315.736360
 30
0.0
 10
241.264820
 20
316.070823
 30
0.0
 10
241.144780
 20
316.437409
 30
0.0
 10
241.104780
 20
316.821909
 30
0.0
 10
241.144780
 20
317.206371
 30
0.0
 10
241.264820
 20
317.572957
 30
0.0
 10
241.457720
 20
317.907420
 30
0.0
 10
241.716300
 20
318.195020
 30
0.0
 10
242.028860
 20
318.421774
 30
0.0
 10
242.381450
 20
318.578235
 30
0.0
 10
242.759990
 20
318.659115
 30
0.0
 10
243.145520
 20
318.659115
 30
0.0
 10
243.524030
 20
318.578235
 30
0.0
 10
243.876600
 20
318.421774
 30
0.0
 10
244.189170
 20
318.195020
 30
0.0
 10
244.447750
 20
317.907420
 30
0.0
 10
244.640650
 20
317.572957
 30
0.0
 10
244.760310
 20
317.206371
 30
0.0
 10
244.800310
 20
316.821909
 30
0.0
 10
244.760310
 20
316.437409
 30
0.0
 10
244.640650
 20
316.070823
 30
0.0
 10
244.447750
 20
315.736360
 30
0.0
 10
244.189170
 20
315.448760
 30
0.0
 10
243.876600
 20
315.222005
 30
0.0
 10
243.524030
 20
315.065545
 30
0.0
 10
243.145520
 20
314.984665
 30
0.0
  0
LWPOLYLINE
  5
105
100
AcDbEntity
  8
Layer_1
 62
7
100
AcDbPolyline
 90
30
 70
1
 10
332.650010
 20
314.984665
 30
0.0
 10
332.271470
 20
315.065545
 30
0.0
 10
331.918880
 20
315.222005
 30
0.0
 10
331.606320
 20
315.448760
 30
0.0
 10
331.347740
 20
315.736360
 30
0.0
 10
331.154840
 20
316.070823
 30
0.0
 10
331.035170
 20
316.437409
 30
0.0
 10
330.995170
 20
316.821909
 30
0.0
 10
331.035170
 20
317.206371
 30
0.0
 10
331.154840
 20
317.572957
 30
0.0
 10
331.347740
 20
317.907420
 30
0.0
 10
331.606320
 20
318.195020
 30
0.0
 10
331.918880
 20
318.421774
 30
0.0
 10
332.271470
 20
318.578235
 30
0.0
 10
332.650010
 20
318.659115
 30
0.0
 10
333.035540
 20
318.659115
 30
0.0
 10
333.414050
 20
318.578235
 30
0.0
 10
333.766620
 20
318.421774
 30
0.0
 10
334.079190
 20
318.195020
 30
0.0
 10
334.337780
 20
317.907420
 30
0.0
 10
334.530670
 20
317.572957
 30
0.0
 10
334.650330
 20
317.206371
 30
0.0
 10
334.690330
 20
316.821909
 30
0.0
 10
334.650330
 20
316.437409
 30
0.0
 10
334.530670
 20
316.070823
 30
0.0
 10
334.337780
 20
315.736360
 30
0.0
 10
334.079190
 20
315.448760
 30
0.0
 10
333.766620
 20
315.222005
 30
0.0
 10
333.414050
 20
315.065545
 30
0.0
 10
333.035540
 20
314.984665
 30
0.0
  0
LWPOLYLINE
  5
106
100
AcDbEntity
  8
Layer_1
 62
7
100
AcDbPolyline
 90
30
 70
1
 10
152.869970
 20
314.984665
 30
0.0
 10
152.491420
 20
315.065545
 30
0.0
 10
152.138840
 20
315.222005
 30
0.0
 10
151.826280
 20
315.448760
 30
0.0
 10
151.567700
 20
315.736360
 30
0.0
 10
151.374800
 20
316.070823
 30
0.0
 10
151.254760
 20
316.437409
 30
0.0
 10
151.214760
 20
316.821909
 30
0.0
 10
151.254760
 20
317.206371
 30
0.0
 10
151.374800
 20
317.572957
 30
0.0
 10
151.567700
 20
317.907420
 30
0.0
 10
151.826280
 20
318.195020
 30
0.0
 10
152.138840
 20
318.421774
 30
0.0
 10
152.491420
 20
318.578235
 30
0.0
 10
152.869970
 20
318.659115
 30
0.0
 10
153.255490
 20
318.659115
 30
0.0
 10
153.634010
 20
318.578235
 30
0.0
 10
153.986580
 20
318.421774
 30
0.0
 10
154.299150
 20
318.195020
 30
0.0
 10
154.557730
 20
317.907420
 30
0.0
 10
154.750630
 20
317.572957
 30
0.0
 10
154.870290
 20
317.206371
 30
0.0
 10
154.910290
 20
316.821909
 30
0.0
 10
154.870290
 20
316.437409
 30
0.0
 10
154.750630
 20
316.070823
 30
0.0
 10
154.557730
 20
315.736360
 30
0.0
 10
154.299150
 20
315.448760
 30
0.0
 10
153.986580
 20
315.222005
 30
0.0
 10
153.634010
 20
315.065545
 30
0.0
 10
153.255490
 20
314.984665
 30
0.0
  0
LWPOLYLINE
  5
107
100
AcDbEntity
  8
Layer_1
 62
7
100
AcDbPolyline
 90
30
 70
1
 10
152.869970
 20
225.106039
 30
0.0
 10
152.491420
 20
225.186919
 30
0.0
 10
152.138840
 20
225.343379
 30
0.0
 10
151.826280
 20
225.570133
 30
0.0
 10
151.567700
 20
225.857734
 30
0.0
 10
151.374800
 20
226.192196
 30
0.0
 10
151.254760
 20
226.558783
 30
0.0
 10
151.214760
 20
226.943282
 30
0.0
 10
151.254760
 20
227.327744
 30
0.0
 10
151.374800
 20
227.694331
 30
0.0
 10
151.567700
 20
228.028793
 30
0.0
 10
151.826280
 20
228.316393
 30
0.0
 10
152.138840
 20
228.543148
 30
0.0
 10
152.491420
 20
228.699608
 30
0.0
 10
152.869970
 20
228.780488
 30
0.0
 10
153.255490
 20
228.780488
 30
0.0
 10
153.634010
 20
228.699608
 30
0.0
 10
153.986580
 20
228.543148
 30
0.0
 10
154.299150
 20
228.316393
 30
0.0
 10
154.557730
 20
228.028793
 30
0.0
 10
154.750630
 20
227.694331
 30
0.0
 10
154.870290
 20
227.327744
 30
0.0
 10
154.910290
 20
226.943282
 30
0.0
 10
154.870290
 20
226.558783
 30
0.0
 10
154.750630
 20
226.192196
 30
0.0
 10
154.557730
 20
225.857734
 30
0.0
 10
154.299150
 20
225.570133
 30
0.0
 10
153.986580
 20
225.343379
 30
0.0
 10
153.634010
 20
225.186919
 30
0.0
 10
153.255490
 20
225.106039
 30
0.0
  0
LWPOLYLINE
  5
108
100
AcDbEntity
  8
Layer_1
 62
7
100
AcDbPolyline
 90
30
 70
1
 10
62.979532
 20
225.106039
 30
0.0
 10
62.601701
 20
225.186919
 30
0.0
 10
62.248747
 20
225.343379
 30
0.0
 10
61.936185
 20
225.570133
 30
0.0
 10
61.677604
 20
225.857734
 30
0.0
 10
61.484328
 20
226.192196
 30
0.0
 10
61.365041
 20
226.558783
 30
0.0
 10
61.324641
 20
226.943282
 30
0.0
 10
61.365041
 20
227.327744
 30
0.0
 10
61.484328
 20
227.694331
 30
0.0
 10
61.677604
 20
228.028793
 30
0.0
 10
61.936185
 20
228.316393
 30
0.0
 10
62.248747
 20
228.543148
 30
0.0
 10
62.601701
 20
228.699608
 30
0.0
 10
62.979532
 20
228.780488
 30
0.0
 10
63.365856
 20
228.780488
 30
0.0
 10
63.743687
 20
228.699608
 30
0.0
 10
64.096640
 20
228.543148
 30
0.0
 10
64.409203
 20
228.316393
 30
0.0
 10
64.667784
 20
228.028793
 30
0.0
 10
64.860682
 20
227.694331
 30
0.0
 10
64.979969
 20
227.327744
 30
0.0
 10
65.020369
 20
226.943282
 30
0.0
 10
64.979969
 20
226.558783
 30
0.0
 10
64.860682
 20
226.192196
 30
0.0
 10
64.667784
 20
225.857734
 30
0.0
 10
64.409203
 20
225.570133
 30
0.0
 10
64.096640
 20
225.343379
 30
0.0
 10
63.743687
 20
225.186919
 30
0.0
 10
63.365856
 20
225.106039
 30
0.0
  0
LWPOLYLINE
  5
109
100
AcDbEntity
  8
Layer_1
 62
7
100
AcDbPolyline
 90
30
 70
1
 10
242.759990
 20
225.106039
 30
0.0
 10
242.381450
 20
225.186919
 30
0.0
 10
242.028860
 20
225.343379
 30
0.0
 10
241.716300
 20
225.570133
 30
0.0
 10
241.457720
 20
225.857734
 30
0.0
 10
241.264820
 20
226.192196
 30
0.0
 10
241.144780
 20
226.558783
 30
0.0
 10
241.104780
 20
226.943282
 30
0.0
 10
241.144780
 20
227.327744
 30
0.0
 10
241.264820
 20
227.694331
 30
0.0
 10
241.457720
 20
228.028793
 30
0.0
 10
241.716300
 20
228.316393
 30
0.0
 10
242.028860
 20
228.543148
 30
0.0
 10
242.381450
 20
228.699608
 30
0.0
 10
242.759990
 20
228.780488
 30
0.0
 10
243.145520
 20
228.780488
 30
0.0
 10
243.524030
 20
228.699608
 30
0.0
 10
243.876600
 20
228.543148
 30
0.0
 10
244.189170
 20
228.316393
 30
0.0
 10
244.447750
 20
228.028793
 30
0.0
 10
244.640650
 20
227.694331
 30
0.0
 10
244.760310
 20
227.327744
 30
0.0
 10
244.800310
 20
226.943282
 30
0.0
 10
244.760310
 20
226.558783
 30
0.0
 10
244.640650
 20
226.192196
 30
0.0
 10
244.447750
 20
225.857734
 30
0.0
 10
244.189170
 20
225.570133
 30
0.0
 10
243.876600
 20
225.343379
 30
0.0
 10
243.524030
 20
225.186919
 30
0.0
 10
243.145520
 20
225.106039
 30
0.0
  0
LWPOLYLINE
  5
10a
100
AcDbEntity
  8
Layer_1
 62
7
100
AcDbPolyline
 90
30
 70
1
 10
332.650010
 20
225.106039
 30
0.0
 10
332.271470
 20
225.186919
 30
0.0
 10
331.918880
 20
225.343379
 30
0.0
 10
331.606320
 20
225.570133
 30
0.0
 10
331.347740
 20
225.857734
 30
0.0
 10
331.154840
 20
226.192196
 30
0.0
 10
331.035170
 20
226.558783
 30
0.0
 10
330.995170
 20
226.943282
 30
0.0
 10
331.035170
 20
227.327744
 30
0.0
 10
331.154840
 20
227.694331
 30
0.0
 10
331.347740
 20
228.028793
 30
0.0
 10
331.606320
 20
228.316393
 30
0.0
 10
331.918880
 20
228.543148
 30
0.0
 10
332.271470
 20
228.699608
 30
0.0
 10
332.650010
 20
228.780488
 30
0.0
 10
333.035540
 20
228.780488
 30
0.0
 10
333.414050
 20
228.699608
 30
0.0
 10
333.766620
 20
228.543148
 30
0.0
 10
334.079190
 20
228.316393
 30
0.0
 10
334.337780
 20
228.028793
 30
0.0
 10
334.530670
 20
227.694331
 30
0.0
 10
334.650330
 20
227.327744
 30
0.0
 10
334.690330
 20
226.943282
 30
0.0
 10
334.650330
 20
226.558783
 30
0.0
 10
334.530670
 20
226.192196
 30
0.0
 10
334.337780
 20
225.857734
 30
0.0
 10
334.079190
 20
225.570133
 30
0.0
 10
333.766620
 20
225.343379
 30
0.0
 10
333.414050
 20
225.186919
 30
0.0
 10
333.035540
 20
225.106039
 30
0.0
  0
LWPOLYLINE
  5
10b
100
AcDbEntity
  8
Layer_1
 62
7
100
AcDbPolyline
 90
30
 70
1
 10
62.979532
 20
135.227370
 30
0.0
 10
62.601701
 20
135.308270
 30
0.0
 10
62.248747
 20
135.464730
 30
0.0
 10
61.936185
 20
135.691490
 30
0.0
 10
61.677604
 20
135.979090
 30
0.0
 10
61.484328
 20
136.313550
 30
0.0
 10
61.365041
 20
136.680130
 30
0.0
 10
61.324641
 20
137.064630
 30
0.0
 10
61.365041
 20
137.449130
 30
0.0
 10
61.484328
 20
137.815720
 30
0.0
 10
61.677604
 20
138.150180
 30
0.0
 10
61.936185
 20
138.437780
 30
0.0
 10
62.248747
 20
138.664540
 30
0.0
 10
62.601701
 20
138.821000
 30
0.0
 10
62.979532
 20
138.901900
 30
0.0
 10
63.365856
 20
138.901900
 30
0.0
 10
63.743687
 20
138.821000
 30
0.0
 10
64.096640
 20
138.664540
 30
0.0
 10
64.409203
 20
138.437780
 30
0.0
 10
64.667784
 20
138.150180
 30
0.0
 10
64.860682
 20
137.815720
 30
0.0
 10
64.979969
 20
137.449130
 30
0.0
 10
65.020369
 20
137.064630
 30
0.0
 10
64.979969
 20
136.680130
 30
0.0
 10
64.860682
 20
136.313550
 30
0.0
 10
64.667784
 20
135.979090
 30
0.0
 10
64.409203
 20
135.691490
 30
0.0
 10
64.096640
 20
135.464730
 30
0.0
 10
63.743687
 20
135.308270
 30
0.0
 10
63.365856
 20
135.227370
 30
0.0
  0
LWPOLYLINE
  5
10c
100
AcDbEntity
  8
Layer_1
 62
7
100
AcDbPolyline
 90
30
 70
1
 10
332.650010
 20
135.227370
 30
0.0
 10
332.271470
 20
135.308270
 30
0.0
 10
331.918880
 20
135.464730
 30
0.0
 10
331.606320
 20
135.691490
 30
0.0
 10
331.347740
 20
135.979090
 30
0.0
 10
331.154840
 20
136.313550
 30
0.0
 10
331.035170
 20
136.680130
 30
0.0
 10
330.995170
 20
137.064630
 30
0.0
 10
331.035170
 20
137.449130
 30
0.0
 10
331.154840
 20
137.815720
 30
0.0
 10
331.347740
 20
138.150180
 30
0.0
 10
331.606320
 20
138.437780
 30
0.0
 10
331.918880
 20
138.664540
 30
0.0
 10
332.271470
 20
138.821000
 30
0.0
 10
332.650010
 20
138.901900
 30
0.0
 10
333.035540
 20
138.901900
 30
0.0
 10
333.414050
 20
138.821000
 30
0.0
 10
333.766620
 20
138.664540
 30
0.0
 10
334.079190
 20
138.437780
 30
0.0
 10
334.337780
 20
138.150180
 30
0.0
 10
334.530670
 20
137.815720
 30
0.0
 10
334.650330
 20
137.449130
 30
0.0
 10
334.690330
 20
137.064630
 30
0.0
 10
334.650330
 20
136.680130
 30
0.0
 10
334.530670
 20
136.313550
 30
0.0
 10
334.337780
 20
135.979090
 30
0.0
 10
334.079190
 20
135.691490
 30
0.0
 10
333.766620
 20
135.464730
 30
0.0
 10
333.414050
 20
135.308270
 30
0.0
 10
333.035540
 20
135.227370
 30
0.0
  0
LWPOLYLINE
  5
10d
100
AcDbEntity
  8
Layer_1
 62
7
100
AcDbPolyline
 90
30
 70
1
 10
242.759990
 20
135.227370
 30
0.0
 10
242.381450
 20
135.308270
 30
0.0
 10
242.028860
 20
135.464730
 30
0.0
 10
241.716300
 20
135.691490
 30
0.0
 10
241.457720
 20
135.979090
 30
0.0
 10
241.264820
 20
136.313550
 30
0.0
 10
241.144780
 20
136.680130
 30
0.0
 10
241.104780
 20
137.064630
 30
0.0
 10
241.144780
 20
137.449130
 30
0.0
 10
241.264820
 20
137.815720
 30
0.0
 10
241.457720
 20
138.150180
 30
0.0
 10
241.716300
 20
138.437780
 30
0.0
 10
242.028860
 20
138.664540
 30
0.0
 10
242.381450
 20
138.821000
 30
0.0
 10
242.759990
 20
138.901900
 30
0.0
 10
243.145520
 20
138.901900
 30
0.0
 10
243.524030
 20
138.821000
 30
0.0
 10
243.876600
 20
138.664540
 30
0.0
 10
244.189170
 20
138.437780
 30
0.0
 10
244.447750
 20
138.150180
 30
0.0
 10
244.640650
 20
137.815720
 30
0.0
 10
244.760310
 20
137.449130
 30
0.0
 10
244.800310
 20
137.064630
 30
0.0
 10
244.760310
 20
136.680130
 30
0.0
 10
244.640650
 20
136.313550
 30
0.0
 10
244.447750
 20
135.979090
 30
0.0
 10
244.189170
 20
135.691490
 30
0.0
 10
243.876600
 20
135.464730
 30
0.0
 10
243.524030
 20
135.308270
 30
0.0
 10
243.145520
 20
135.227370
 30
0.0
  0
LWPOLYLINE
  5
10e
100
AcDbEntity
  8
Layer_1
 62
7
100
AcDbPolyline
 90
30
 70
1
 10
152.869970
 20
135.227370
 30
0.0
 10
152.491420
 20
135.308270
 30
0.0
 10
152.138840
 20
135.464730
 30
0.0
 10
151.826280
 20
135.691490
 30
0.0
 10
151.567700
 20
135.979090
 30
0.0
 10
151.374800
 20
136.313550
 30
0.0
 10
151.254760
 20
136.680130
 30
0.0
 10
151.214760
 20
137.064630
 30
0.0
 10
151.254760
 20
137.449130
 30
0.0
 10
151.374800
 20
137.815720
 30
0.0
 10
151.567700
 20
138.150180
 30
0.0
 10
151.826280
 20
138.437780
 30
0.0
 10
152.138840
 20
138.664540
 30
0.0
 10
152.491420
 20
138.821000
 30
0.0
 10
152.869970
 20
138.901900
 30
0.0
 10
153.255490
 20
138.901900
 30
0.0
 10
153.634010
 20
138.821000
 30
0.0
 10
153.986580
 20
138.664540
 30
0.0
 10
154.299150
 20
138.437780
 30
0.0
 10
154.557730
 20
138.150180
 30
0.0
 10
154.750630
 20
137.815720
 30
0.0
 10
154.870290
 20
137.449130
 30
0.0
 10
154.910290
 20
137.064630
 30
0.0
 10
154.870290
 20
136.680130
 30
0.0
 10
154.750630
 20
136.313550
 30
0.0
 10
154.557730
 20
135.979090
 30
0.0
 10
154.299150
 20
135.691490
 30
0.0
 10
153.986580
 20
135.464730
 30
0.0
 10
153.634010
 20
135.308270
 30
0.0
 10
153.255490
 20
135.227370
 30
0.0
  0
LWPOLYLINE
  5
10f
100
AcDbEntity
  8
Layer_1
 62
7
100
AcDbPolyline
 90
30
 70
1
 10
332.650010
 20
45.348860
 30
0.0
 10
332.271470
 20
45.429360
 30
0.0
 10
331.918880
 20
45.586200
 30
0.0
 10
331.606320
 20
45.813330
 30
0.0
 10
331.347740
 20
46.100170
 30
0.0
 10
331.154840
 20
46.434640
 30
0.0
 10
331.035170
 20
46.801980
 30
0.0
 10
330.995170
 20
47.186060
 30
0.0
 10
331.035170
 20
47.570150
 30
0.0
 10
331.154840
 20
47.937490
 30
0.0
 10
331.347740
 20
48.271950
 30
0.0
 10
331.606320
 20
48.558800
 30
0.0
 10
331.918880
 20
48.785550
 30
0.0
 10
332.271470
 20
48.942390
 30
0.0
 10
332.650010
 20
49.022890
 30
0.0
 10
333.035540
 20
49.022890
 30
0.0
 10
333.414050
 20
48.942390
 30
0.0
 10
333.766620
 20
48.785550
 30
0.0
 10
334.079190
 20
48.558800
 30
0.0
 10
334.337780
 20
48.271950
 30
0.0
 10
334.530670
 20
47.937490
 30
0.0
 10
334.650330
 20
47.570150
 30
0.0
 10
334.690330
 20
47.186060
 30
0.0
 10
334.650330
 20
46.801980
 30
0.0
 10
334.530670
 20
46.434640
 30
0.0
 10
334.337780
 20
46.100170
 30
0.0
 10
334.079190
 20
45.813330
 30
0.0
 10
333.766620
 20
45.586200
 30
0.0
 10
333.414050
 20
45.429360
 30
0.0
 10
333.035540
 20
45.348860
 30
0.0
  0
LWPOLYLINE
  5
110
100
AcDbEntity
  8
Layer_1
 62
7
100
AcDbPolyline
 90
30
 70
1
 10
242.759990
 20
45.348860
 30
0.0
 10
242.381450
 20
45.429360
 30
0.0
 10
242.028860
 20
45.586200
 30
0.0
 10
241.716300
 20
45.813330
 30
0.0
 10
241.457720
 20
46.100170
 30
0.0
 10
241.264820
 20
46.434640
 30
0.0
 10
241.144780
 20
46.801980
 30
0.0
 10
241.104780
 20
47.186060
 30
0.0
 10
241.144780
 20
47.570150
 30
0.0
 10
241.264820
 20
47.937490
 30
0.0
 10
241.457720
 20
48.271950
 30
0.0
 10
241.716300
 20
48.558800
 30
0.0
 10
242.028860
 20
48.785550
 30
0.0
 10
242.381450
 20
48.942390
 30
0.0
 10
242.759990
 20
49.022890
 30
0.0
 10
243.145520
 20
49.022890
 30
0.0
 10
243.524030
 20
48.942390
 30
0.0
 10
243.876600
 20
48.785550
 30
0.0
 10
244.189170
 20
48.558800
 30
0.0
 10
244.447750
 20
48.271950
 30
0.0
 10
244.640650
 20
47.937490
 30
0.0
 10
244.760310
 20
47.570150
 30
0.0
 10
244.800310
 20
47.186060
 30
0.0
 10
244.760310
 20
46.801980
 30
0.0
 10
244.640650
 20
46.434640
 30
0.0
 10
244.447750
 20
46.100170
 30
0.0
 10
244.189170
 20
45.813330
 30
0.0
 10
243.876600
 20
45.586200
 30
0.0
 10
243.524030
 20
45.429360
 30
0.0
 10
243.145520
 20
45.348860
 30
0.0
  0
LWPOLYLINE
  5
111
100
AcDbEntity
  8
Layer_1
 62
7
100
AcDbPolyline
 90
30
 70
1
 10
62.979532
 20
45.348860
 30
0.0
 10
62.601701
 20
45.429360
 30
0.0
 10
62.248747
 20
45.586200
 30
0.0
 10
61.936185
 20
45.813330
 30
0.0
 10
61.677604
 20
46.100170
 30
0.0
 10
61.484328
 20
46.434640
 30
0.0
 10
61.365041
 20
46.801980
 30
0.0
 10
61.324641
 20
47.186060
 30
0.0
 10
61.365041
 20
47.570150
 30
0.0
 10
61.484328
 20
47.937490
 30
0.0
 10
61.677604
 20
48.271950
 30
0.0
 10
61.936185
 20
48.558800
 30
0.0
 10
62.248747
 20
48.785550
 30
0.0
 10
62.601701
 20
48.942390
 30
0.0
 10
62.979532
 20
49.022890
 30
0.0
 10
63.365856
 20
49.022890
 30
0.0
 10
63.743687
 20
48.942390
 30
0.0
 10
64.096640
 20
48.785550
 30
0.0
 10
64.409203
 20
48.558800
 30
0.0
 10
64.667784
 20
48.271950
 30
0.0
 10
64.860682
 20
47.937490
 30
0.0
 10
64.979969
 20
47.570150
 30
0.0
 10
65.020369
 20
47.186060
 30
0.0
 10
64.979969
 20
46.801980
 30
0.0
 10
64.860682
 20
46.434640
 30
0.0
 10
64.667784
 20
46.100170
 30
0.0
 10
64.409203
 20
45.813330
 30
0.0
 10
64.096640
 20
45.586200
 30
0.0
 10
63.743687
 20
45.429360
 30
0.0
 10
63.365856
 20
45.348860
 30
0.0
  0
LWPOLYLINE
  5
112
100
AcDbEntity
  8
Layer_1
 62
7
100
AcDbPolyline
 90
30
 70
1
 10
152.869970
 20
45.348860
 30
0.0
 10
152.491420
 20
45.429360
 30
0.0
 10
152.138840
 20
45.586200
 30
0.0
 10
151.826280
 20
45.813330
 30
0.0
 10
151.567700
 20
46.100170
 30
0.0
 10
151.374800
 20
46.434640
 30
0.0
 10
151.254760
 20
46.801980
 30
0.0
 10
151.214760
 20
47.186060
 30
0.0
 10
151.254760
 20
47.570150
 30
0.0
 10
151.374800
 20
47.937490
 30
0.0
 10
151.567700
 20
48.271950
 30
0.0
 10
151.826280
 20
48.558800
 30
0.0
 10
152.138840
 20
48.785550
 30
0.0
 10
152.491420
 20
48.942390
 30
0.0
 10
152.869970
 20
49.022890
 30
0.0
 10
153.255490
 20
49.022890
 30
0.0
 10
153.634010
 20
48.942390
 30
0.0
 10
153.986580
 20
48.785550
 30
0.0
 10
154.299150
 20
48.558800
 30
0.0
 10
154.557730
 20
48.271950
 30
0.0
 10
154.750630
 20
47.937490
 30
0.0
 10
154.870290
 20
47.570150
 30
0.0
 10
154.910290
 20
47.186060
 30
0.0
 10
154.870290
 20
46.801980
 30
0.0
 10
154.750630
 20
46.434640
 30
0.0
 10
154.557730
 20
46.100170
 30
0.0
 10
154.299150
 20
45.813330
 30
0.0
 10
153.986580
 20
45.586200
 30
0.0
 10
153.634010
 20
45.429360
 30
0.0
 10
153.255490
 20
45.348860
 30
0.0
  0
ENDSEC
  0
SECTION
  2
OBJECTS
  0
DICTIONARY
  5
C
330
0
100
AcDbDictionary
  3
ACAD_GROUP
350
D
  3
ACAD_MLINESTYLE
350
17
  0
DICTIONARY
  5
D
330
C
100
AcDbDictionary
  0
DICTIONARY
  5
1A
330
C
100
AcDbDictionary
  0
DICTIONARY
  5
17
330
C
100
AcDbDictionary
  3
STANDARD
350
18
  0
DICTIONARY
  5
19
330
C
100
AcDbDictionary
  0
ENDSEC
  0
EOF
