  0
SECTION
  2
HEADER
  9
$ACADVER
  1
AC1014
  9
$HANDSEED
  5
FFFF
  9
$MEASUREMENT
 70
     1
  0
ENDSEC
  0
SECTION
  2
TABLES
  0
TABLE
  2
VPORT
  5
8
330
0
100
AcDbSymbolTable
 70
     4
  0
VPORT
  5
2E
330
8
100
AcDbSymbolTableRecord
100
AcDbViewportTableRecord
  2
*ACTIVE
 70
     0
 10
0.0
 20
0.0
 11
1.0
 21
1.0
 12
210.0
 22
148.5
 13
0.0
 23
0.0
 14
10.0
 24
10.0
 15
10.0
 25
10.0
 16
0.0
 26
0.0
 36
1.0
 17
0.0
 27
0.0
 37
0.0
 40
341.0
 41
1.24
 42
50.0
 43
0.0
 44
0.0
 50
0.0
 51
0.0
 71
     0
 72
   100
 73
     1
 74
     3
 75
     0
 76
     0
 77
     0
 78
     0
  0
ENDTAB
  0
TABLE
  2
LTYPE
  5
5
330
0
100
AcDbSymbolTable
 70
     1
  0
LTYPE
  5
14
330
5
100
AcDbSymbolTableRecord
100
AcDbLinetypeTableRecord
  2
BYBLOCK
 70
     0
  3

 72
    65
 73
     0
 40
0.0
  0
LTYPE
  5
15
330
5
100
AcDbSymbolTableRecord
100
AcDbLinetypeTableRecord
  2
BYLAYER
 70
     0
  3

 72
    65
 73
     0
 40
0.0
  0
LTYPE
  5
16
330
5
100
AcDbSymbolTableRecord
100
AcDbLinetypeTableRecord
  2
CONTINUOUS
 70
     0
  3
Solid line
 72
    65
 73
     0
 40
0.0
  0
ENDTAB
  0
TABLE
  2
LAYER
  5
2
100
AcDbSymbolTable
 70
2
  0
LAYER
  5
50
100
AcDbSymbolTableRecord
100
AcDbLayerTableRecord
  2
0
 70
0
  6
CONTINUOUS
  0
LAYER
  5
51
100
AcDbSymbolTableRecord
100
AcDbLayerTableRecord
  2
Layer_1
 70
0
  6
CONTINUOUS
  0
ENDTAB
  0
TABLE
  2
STYLE
  5
3
330
0
100
AcDbSymbolTable
 70
     1
  0
STYLE
  5
11
330
3
100
AcDbSymbolTableRecord
100
AcDbTextStyleTableRecord
  2
STANDARD
 70
     0
 40
0.0
 41
1.0
 50
0.0
 71
     0
 42
2.5
  3
txt
  4

  0
ENDTAB
  0
TABLE
  2
VIEW
  5
6
330
0
100
AcDbSymbolTable
 70
     0
  0
ENDTAB
  0
TABLE
  2
UCS
  5
7
330
0
100
AcDbSymbolTable
 70
     0
  0
ENDTAB
  0
TABLE
  2
APPID
  5
9
330
0
100
AcDbSymbolTable
 70
     2
  0
APPID
  5
12
330
9
100
AcDbSymbolTableRecord
100
AcDbRegAppTableRecord
  2
ACAD
 70
     0
  0
ENDTAB
  0
TABLE
  2
DIMSTYLE
  5
A
330
0
100
AcDbSymbolTable
 70
     1
  0
DIMSTYLE
105
27
330
A
100
AcDbSymbolTableRecord
100
AcDbDimStyleTableRecord
  2
ISO-25
 70
     0
  3

  4

  5

  6

  7

 40
1.0
 41
2.5
 42
0.625
 43
3.75
 44
1.25
 45
0.0
 46
0.0
 47
0.0
 48
0.0
140
2.5
141
2.5
142
0.0
143
0.03937007874016
144
1.0
145
0.0
146
1.0
147
0.625
 71
     0
 72
     0
 73
     0
 74
     0
 75
     0
 76
     0
 77
     1
 78
     8
170
     0
171
     3
172
     1
173
     0
174
     0
175
     0
176
     0
177
     0
178
     0
270
     2
271
     2
272
     2
273
     2
274
     3
340
11
275
     0
280
     0
281
     0
282
     0
283
     0
284
     8
285
     0
286
     0
287
     3
288
     0
  0
ENDTAB
  0
TABLE
  2
BLOCK_RECORD
  5
1
330
0
100
AcDbSymbolTable
 70
     1
  0
BLOCK_RECORD
  5
1F
330
1
100
AcDbSymbolTableRecord
100
AcDbBlockTableRecord
  2
*MODEL_SPACE
  0
BLOCK_RECORD
  5
1B
330
1
100
AcDbSymbolTableRecord
100
AcDbBlockTableRecord
  2
*PAPER_SPACE
  0
ENDTAB
  0
ENDSEC
  0
SECTION
  2
BLOCKS
  0
BLOCK
  5
20
330
1F
100
AcDbEntity
  8
0
100
AcDbBlockBegin
  2
*MODEL_SPACE
 70
     0
 10
0.0
 20
0.0
 30
0.0
  3
*MODEL_SPACE
  1

  0
ENDBLK
  5
21
330
1F
100
AcDbEntity
  8
0
100
AcDbBlockEnd
  0
BLOCK
  5
1C
330
1B
100
AcDbEntity
 67
     1
  8
0
100
AcDbBlockBegin
  2
*PAPER_SPACE
  1

  0
ENDBLK
  5
1D
330
1B
100
AcDbEntity
 67
     1
  8
0
100
AcDbBlockEnd
  0
ENDSEC
  0
SECTION
  2
ENTITIES
  0
LWPOLYLINE
  5
100
100
AcDbEntity
  8
Layer_1
 62
7
100
AcDbPolyline
 90
12
 70
1
 10
41.695707
 20
100.007110
 30
0.0
 10
125.586500
 20
100.007110
 30
0.0
 10
125.586500
 20
0.249660
 30
0.0
 10
383.750350
 20
0.249660
 30
0.0
 10
383.750350
 20
349.750345
 30
0.0
 10
346.299120
 20
349.750345
 30
0.0
 10
346.299120
 20
219.935805
 30
0.0
 10
38.699608
 20
219.935805
 30
0.0
 10
38.699608
 20
349.750345
 30
0.0
 10
0.249659
 20
349.750345
 30
0.0
 10
0.249659
 20
0.249660
 30
0.0
 10
41.695707
 20
0.249660
 30
0.0
  0
LWPOLYLINE
  5
101
100
AcDbEntity
  8
Layer_1
 62
7
100
AcDbPolyline
 90
30
 70
1
 10
31.481603
 20
330.614708
 30
0.0
 10
31.037481
 20
330.708808
 30
0.0
 10
30.622614
 20
330.893612
 30
0.0
 10
30.255344
 20
331.161181
 30
0.0
 10
29.951488
 20
331.498666
 30
0.0
 10
29.724256
 20
331.891100
 30
0.0
 10
29.583840
 20
332.323481
 30
0.0
 10
29.536280
 20
332.774834
 30
0.0
 10
29.583840
 20
333.226148
 30
0.0
 10
29.724256
 20
333.658567
 30
0.0
 10
29.951488
 20
334.051001
 30
0.0
 10
30.255344
 20
334.388486
 30
0.0
 10
30.622614
 20
334.656055
 30
0.0
 10
31.037481
 20
334.840481
 30
0.0
 10
31.481603
 20
334.934581
 30
0.0
 10
31.935689
 20
334.934581
 30
0.0
 10
32.379923
 20
334.840481
 30
0.0
 10
32.794791
 20
334.656055
 30
0.0
 10
33.162060
 20
334.388486
 30
0.0
 10
33.465917
 20
334.051001
 30
0.0
 10
33.693149
 20
333.658567
 30
0.0
 10
33.833564
 20
333.226148
 30
0.0
 10
33.881124
 20
332.774834
 30
0.0
 10
33.833564
 20
332.323481
 30
0.0
 10
33.693149
 20
331.891100
 30
0.0
 10
33.465917
 20
331.498666
 30
0.0
 10
33.162060
 20
331.161181
 30
0.0
 10
32.794791
 20
330.893612
 30
0.0
 10
32.379923
 20
330.708808
 30
0.0
 10
31.935689
 20
330.614708
 30
0.0
  0
LWPOLYLINE
  5
102
100
AcDbEntity
  8
Layer_1
 62
7
100
AcDbPolyline
 90
30
 70
1
 10
351.065930
 20
330.614708
 30
0.0
 10
350.621500
 20
330.708808
 30
0.0
 10
350.207060
 20
330.893612
 30
0.0
 10
349.839410
 20
331.161181
 30
0.0
 10
349.534790
 20
331.498666
 30
0.0
 10
349.307940
 20
331.891100
 30
0.0
 10
349.168280
 20
332.323481
 30
0.0
 10
349.120280
 20
332.774834
 30
0.0
 10
349.168280
 20
333.226148
 30
0.0
 10
349.307940
 20
333.658567
 30
0.0
 10
349.534790
 20
334.051001
 30
0.0
 10
349.839410
 20
334.388486
 30
0.0
 10
350.207060
 20
334.656055
 30
0.0
 10
350.621500
 20
334.840481
 30
0.0
 10
351.065930
 20
334.934581
 30
0.0
 10
351.519340
 20
334.934581
 30
0.0
 10
351.963760
 20
334.840481
 30
0.0
 10
352.378210
 20
334.656055
 30
0.0
 10
352.745860
 20
334.388486
 30
0.0
 10
353.050470
 20
334.051001
 30
0.0
 10
353.277330
 20
333.658567
 30
0.0
 10
353.416990
 20
333.226148
 30
0.0
 10
353.464990
 20
332.774834
 30
0.0
 10
353.416990
 20
332.323481
 30
0.0
 10
353.277330
 20
331.891100
 30
0.0
 10
353.050470
 20
331.498666
 30
0.0
 10
352.745860
 20
331.161181
 30
0.0
 10
352.378210
 20
330.893612
 30
0.0
 10
351.963760
 20
330.708808
 30
0.0
 10
351.519340
 20
330.614708
 30
0.0
  0
LWPOLYLINE
  5
103
100
AcDbEntity
  8
Layer_1
 62
7
100
AcDbPolyline
 90
30
 70
1
 10
376.033410
 20
270.700281
 30
0.0
 10
375.588980
 20
270.794381
 30
0.0
 10
375.174540
 20
270.979185
 30
0.0
 10
374.806890
 20
271.246754
 30
0.0
 10
374.502280
 20
271.584238
 30
0.0
 10
374.275420
 20
271.976673
 30
0.0
 10
374.135760
 20
272.409016
 30
0.0
 10
374.087760
 20
272.860368
 30
0.0
 10
374.135760
 20
273.311721
 30
0.0
 10
374.275420
 20
273.744139
 30
0.0
 10
374.502280
 20
274.136574
 30
0.0
 10
374.806890
 20
274.474058
 30
0.0
 10
375.174540
 20
274.741627
 30
0.0
 10
375.588980
 20
274.926053
 30
0.0
 10
376.033410
 20
275.020153
 30
0.0
 10
376.486820
 20
275.020153
 30
0.0
 10
376.931250
 20
274.926053
 30
0.0
 10
377.345690
 20
274.741627
 30
0.0
 10
377.713340
 20
274.474058
 30
0.0
 10
378.017950
 20
274.136574
 30
0.0
 10
378.244810
 20
273.744139
 30
0.0
 10
378.384470
 20
273.311721
 30
0.0
 10
378.432470
 20
272.860368
 30
0.0
 10
378.384470
 20
272.409016
 30
0.0
 10
378.244810
 20
271.976673
 30
0.0
 10
378.017950
 20
271.584238
 30
0.0
 10
377.713340
 20
271.246754
 30
0.0
 10
377.345690
 20
270.979185
 30
0.0
 10
376.931250
 20
270.794381
 30
0.0
 10
376.486820
 20
270.700281
 30
0.0
  0
LWPOLYLINE
  5
104
100
AcDbEntity
  8
Layer_1
 62
7
100
AcDbPolyline
 90
30
 70
1
 10
6.514083
 20
240.743068
 30
0.0
 10
6.069962
 20
240.837171
 30
0.0
 10
5.655132
 20
241.021975
 30
0.0
 10
5.287862
 20
241.289544
 30
0.0
 10
4.984006
 20
241.627028
 30
0.0
 10
4.756774
 20
242.019463
 30
0.0
 10
4.616358
 20
242.451844
 30
0.0
 10
4.568798
 20
242.903158
 30
0.0
 10
4.616358
 20
243.354511
 30
0.0
 10
4.756774
 20
243.786929
 30
0.0
 10
4.984006
 20
244.179364
 30
0.0
 10
5.287862
 20
244.516848
 30
0.0
 10
5.655132
 20
244.784417
 30
0.0
 10
6.069962
 20
244.968843
 30
0.0
 10
6.514083
 20
245.062943
 30
0.0
 10
6.968207
 20
245.062943
 30
0.0
 10
7.412441
 20
244.968843
 30
0.0
 10
7.827271
 20
244.784417
 30
0.0
 10
8.194541
 20
244.516848
 30
0.0
 10
8.498397
 20
244.179364
 30
0.0
 10
8.725629
 20
243.786929
 30
0.0
 10
8.866045
 20
243.354511
 30
0.0
 10
8.913605
 20
242.903158
 30
0.0
 10
8.866045
 20
242.451844
 30
0.0
 10
8.725629
 20
242.019463
 30
0.0
 10
8.498397
 20
241.627028
 30
0.0
 10
8.194541
 20
241.289544
 30
0.0
 10
7.827271
 20
241.021975
 30
0.0
 10
7.412441
 20
240.837171
 30
0.0
 10
6.968207
 20
240.743071
 30
0.0
  0
LWPOLYLINE
  5
105
100
AcDbEntity
  8
Layer_1
 62
7
100
AcDbPolyline
 90
30
 70
1
 10
376.033410
 20
220.771618
 30
0.0
 10
375.588980
 20
220.865718
 30
0.0
 10
375.174540
 20
221.050144
 30
0.0
 10
374.806890
 20
221.317713
 30
0.0
 10
374.502280
 20
221.655197
 30
0.0
 10
374.275420
 20
222.047632
 30
0.0
 10
374.135760
 20
222.480012
 30
0.0
 10
374.087760
 20
222.931403
 30
0.0
 10
374.135760
 20
223.382755
 30
0.0
 10
374.275420
 20
223.815098
 30
0.0
 10
374.502280
 20
224.207533
 30
0.0
 10
374.806890
 20
224.545017
 30
0.0
 10
375.174540
 20
224.812586
 30
0.0
 10
375.588980
 20
224.997012
 30
0.0
 10
376.033410
 20
225.091112
 30
0.0
 10
376.486820
 20
225.091112
 30
0.0
 10
376.931250
 20
224.997012
 30
0.0
 10
377.345690
 20
224.812586
 30
0.0
 10
377.713340
 20
224.545017
 30
0.0
 10
378.017950
 20
224.207533
 30
0.0
 10
378.244810
 20
223.815098
 30
0.0
 10
378.384470
 20
223.382755
 30
0.0
 10
378.432470
 20
222.931403
 30
0.0
 10
378.384470
 20
222.480012
 30
0.0
 10
378.244810
 20
222.047632
 30
0.0
 10
378.017950
 20
221.655197
 30
0.0
 10
377.713340
 20
221.317713
 30
0.0
 10
377.345690
 20
221.050144
 30
0.0
 10
376.931250
 20
220.865718
 30
0.0
 10
376.486820
 20
220.771618
 30
0.0
  0
LWPOLYLINE
  5
106
100
AcDbEntity
  8
Layer_1
 62
7
100
AcDbPolyline
 90
30
 70
1
 10
360.154070
 20
214.280880
 30
0.0
 10
359.709640
 20
214.374980
 30
0.0
 10
359.295190
 20
214.559784
 30
0.0
 10
358.927540
 20
214.827353
 30
0.0
 10
358.622930
 20
215.164838
 30
0.0
 10
358.396080
 20
215.557272
 30
0.0
 10
358.256040
 20
215.989615
 30
0.0
 10
358.208040
 20
216.440968
 30
0.0
 10
358.256040
 20
216.892358
 30
0.0
 10
358.396080
 20
217.324739
 30
0.0
 10
358.622930
 20
217.717173
 30
0.0
 10
358.927540
 20
218.054658
 30
0.0
 10
359.295190
 20
218.322227
 30
0.0
 10
359.709640
 20
218.506653
 30
0.0
 10
360.154070
 20
218.600753
 30
0.0
 10
360.607470
 20
218.600753
 30
0.0
 10
361.051890
 20
218.506653
 30
0.0
 10
361.467370
 20
218.322227
 30
0.0
 10
361.833880
 20
218.054658
 30
0.0
 10
362.138500
 20
217.717173
 30
0.0
 10
362.365350
 20
217.324739
 30
0.0
 10
362.505000
 20
216.892358
 30
0.0
 10
362.553000
 20
216.440968
 30
0.0
 10
362.505000
 20
215.989615
 30
0.0
 10
362.365350
 20
215.557272
 30
0.0
 10
362.138500
 20
215.164838
 30
0.0
 10
361.833880
 20
214.827353
 30
0.0
 10
361.467370
 20
214.559784
 30
0.0
 10
361.051890
 20
214.374980
 30
0.0
 10
360.607470
 20
214.280880
 30
0.0
  0
LWPOLYLINE
  5
107
100
AcDbEntity
  8
Layer_1
 62
7
100
AcDbPolyline
 90
30
 70
1
 10
235.316620
 20
204.295117
 30
0.0
 10
234.872190
 20
204.389217
 30
0.0
 10
234.457740
 20
204.573643
 30
0.0
 10
234.090100
 20
204.841212
 30
0.0
 10
233.785480
 20
205.178697
 30
0.0
 10
233.558630
 20
205.571131
 30
0.0
 10
233.418970
 20
206.003512
 30
0.0
 10
233.370970
 20
206.454865
 30
0.0
 10
233.418970
 20
206.906217
 30
0.0
 10
233.558630
 20
207.338636
 30
0.0
 10
233.785480
 20
207.731070
 30
0.0
 10
234.090100
 20
208.068555
 30
0.0
 10
234.457740
 20
208.336124
 30
0.0
 10
234.872190
 20
208.520928
 30
0.0
 10
235.316620
 20
208.615028
 30
0.0
 10
235.770030
 20
208.615028
 30
0.0
 10
236.214440
 20
208.520928
 30
0.0
 10
236.629920
 20
208.336124
 30
0.0
 10
236.996430
 20
208.068555
 30
0.0
 10
237.301050
 20
207.731070
 30
0.0
 10
237.527890
 20
207.338636
 30
0.0
 10
237.667560
 20
206.906217
 30
0.0
 10
237.715560
 20
206.454865
 30
0.0
 10
237.667560
 20
206.003512
 30
0.0
 10
237.527890
 20
205.571131
 30
0.0
 10
237.301050
 20
205.178697
 30
0.0
 10
236.996430
 20
204.841212
 30
0.0
 10
236.629920
 20
204.573643
 30
0.0
 10
236.214440
 20
204.389217
 30
0.0
 10
235.770030
 20
204.295117
 30
0.0
  0
LWPOLYLINE
  5
108
100
AcDbEntity
  8
Layer_1
 62
7
100
AcDbPolyline
 90
30
 70
1
 10
325.199600
 20
204.295117
 30
0.0
 10
324.755170
 20
204.389217
 30
0.0
 10
324.340720
 20
204.573643
 30
0.0
 10
323.973080
 20
204.841212
 30
0.0
 10
323.668460
 20
205.178697
 30
0.0
 10
323.441610
 20
205.571131
 30
0.0
 10
323.301950
 20
206.003512
 30
0.0
 10
323.253950
 20
206.454865
 30
0.0
 10
323.301950
 20
206.906217
 30
0.0
 10
323.441610
 20
207.338636
 30
0.0
 10
323.668460
 20
207.731070
 30
0.0
 10
323.973080
 20
208.068555
 30
0.0
 10
324.340720
 20
208.336124
 30
0.0
 10
324.755170
 20
208.520928
 30
0.0
 10
325.199600
 20
208.615028
 30
0.0
 10
325.653010
 20
208.615028
 30
0.0
 10
326.097420
 20
208.520928
 30
0.0
 10
326.512900
 20
208.336124
 30
0.0
 10
326.879410
 20
208.068555
 30
0.0
 10
327.184030
 20
207.731070
 30
0.0
 10
327.410880
 20
207.338636
 30
0.0
 10
327.550540
 20
206.906217
 30
0.0
 10
327.598540
 20
206.454865
 30
0.0
 10
327.550540
 20
206.003512
 30
0.0
 10
327.410880
 20
205.571131
 30
0.0
 10
327.184030
 20
205.178697
 30
0.0
 10
326.879410
 20
204.841212
 30
0.0
 10
326.512900
 20
204.573643
 30
0.0
 10
326.097420
 20
204.389217
 30
0.0
 10
325.653010
 20
204.295117
 30
0.0
  0
LWPOLYLINE
  5
109
100
AcDbEntity
  8
Layer_1
 62
7
100
AcDbPolyline
 90
4
 70
1
 10
228.452560
 20
100.106990
 30
0.0
 10
228.452560
 20
189.978590
 30
0.0
 10
334.314720
 20
189.978590
 30
0.0
 10
334.314720
 20
100.106990
 30
0.0
  0
LWPOLYLINE
  5
10a
100
AcDbEntity
  8
Layer_1
 62
7
100
AcDbPolyline
 90
30
 70
1
 10
81.416983
 20
167.847200
 30
0.0
 10
80.972560
 20
167.941300
 30
0.0
 10
80.557089
 20
168.125720
 30
0.0
 10
80.190573
 20
168.393290
 30
0.0
 10
79.885962
 20
168.730780
 30
0.0
 10
79.659108
 20
169.123210
 30
0.0
 10
79.519448
 20
169.555590
 30
0.0
 10
79.471508
 20
170.006940
 30
0.0
 10
79.519448
 20
170.458300
 30
0.0
 10
79.659108
 20
170.890710
 30
0.0
 10
79.885962
 20
171.283150
 30
0.0
 10
80.190573
 20
171.620630
 30
0.0
 10
80.557089
 20
171.888200
 30
0.0
 10
80.972560
 20
172.072630
 30
0.0
 10
81.416983
 20
172.166730
 30
0.0
 10
81.870390
 20
172.166730
 30
0.0
 10
82.314813
 20
172.072630
 30
0.0
 10
82.729265
 20
171.888200
 30
0.0
 10
83.096912
 20
171.620630
 30
0.0
 10
83.401524
 20
171.283150
 30
0.0
 10
83.628379
 20
170.890710
 30
0.0
 10
83.768039
 20
170.458300
 30
0.0
 10
83.815979
 20
170.006940
 30
0.0
 10
83.768039
 20
169.555590
 30
0.0
 10
83.628379
 20
169.123210
 30
0.0
 10
83.401524
 20
168.730780
 30
0.0
 10
83.096912
 20
168.393290
 30
0.0
 10
82.729265
 20
168.125720
 30
0.0
 10
82.314813
 20
167.941300
 30
0.0
 10
81.870390
 20
167.847200
 30
0.0
  0
LWPOLYLINE
  5
10b
100
AcDbEntity
  8
Layer_1
 62
7
100
AcDbPolyline
 90
30
 70
1
 10
206.254470
 20
167.847200
 30
0.0
 10
205.810050
 20
167.941300
 30
0.0
 10
205.395560
 20
168.125720
 30
0.0
 10
205.027920
 20
168.393290
 30
0.0
 10
204.723300
 20
168.730780
 30
0.0
 10
204.496440
 20
169.123210
 30
0.0
 10
204.356790
 20
169.555590
 30
0.0
 10
204.308790
 20
170.006940
 30
0.0
 10
204.356790
 20
170.458300
 30
0.0
 10
204.496440
 20
170.890710
 30
0.0
 10
204.723300
 20
171.283150
 30
0.0
 10
205.027920
 20
171.620630
 30
0.0
 10
205.395560
 20
171.888200
 30
0.0
 10
205.810050
 20
172.072630
 30
0.0
 10
206.254470
 20
172.166730
 30
0.0
 10
206.707870
 20
172.166730
 30
0.0
 10
207.152300
 20
172.072630
 30
0.0
 10
207.566750
 20
171.888200
 30
0.0
 10
207.934400
 20
171.620630
 30
0.0
 10
208.239020
 20
171.283150
 30
0.0
 10
208.465860
 20
170.890710
 30
0.0
 10
208.605520
 20
170.458300
 30
0.0
 10
208.653520
 20
170.006940
 30
0.0
 10
208.605520
 20
169.555590
 30
0.0
 10
208.465860
 20
169.123210
 30
0.0
 10
208.239020
 20
168.730780
 30
0.0
 10
207.934400
 20
168.393290
 30
0.0
 10
207.566750
 20
168.125720
 30
0.0
 10
207.152300
 20
167.941300
 30
0.0
 10
206.707870
 20
167.847200
 30
0.0
  0
LWPOLYLINE
  5
10c
100
AcDbEntity
  8
Layer_1
 62
7
100
AcDbPolyline
 90
30
 70
1
 10
351.065930
 20
167.847200
 30
0.0
 10
350.621500
 20
167.941300
 30
0.0
 10
350.207060
 20
168.125720
 30
0.0
 10
349.839410
 20
168.393290
 30
0.0
 10
349.534790
 20
168.730780
 30
0.0
 10
349.307940
 20
169.123210
 30
0.0
 10
349.168280
 20
169.555590
 30
0.0
 10
349.120280
 20
170.006940
 30
0.0
 10
349.168280
 20
170.458300
 30
0.0
 10
349.307940
 20
170.890710
 30
0.0
 10
349.534790
 20
171.283150
 30
0.0
 10
349.839410
 20
171.620630
 30
0.0
 10
350.207060
 20
171.888200
 30
0.0
 10
350.621500
 20
172.072630
 30
0.0
 10
351.065930
 20
172.166730
 30
0.0
 10
351.519340
 20
172.166730
 30
0.0
 10
351.963760
 20
172.072630
 30
0.0
 10
352.378210
 20
171.888200
 30
0.0
 10
352.745860
 20
171.620630
 30
0.0
 10
353.050470
 20
171.283150
 30
0.0
 10
353.277330
 20
170.890710
 30
0.0
 10
353.416990
 20
170.458300
 30
0.0
 10
353.464990
 20
170.006940
 30
0.0
 10
353.416990
 20
169.555590
 30
0.0
 10
353.277330
 20
169.123210
 30
0.0
 10
353.050470
 20
168.730780
 30
0.0
 10
352.745860
 20
168.393290
 30
0.0
 10
352.378210
 20
168.125720
 30
0.0
 10
351.963760
 20
167.941300
 30
0.0
 10
351.519340
 20
167.847200
 30
0.0
  0
LWPOLYLINE
  5
10d
100
AcDbEntity
  8
Layer_1
 62
7
100
AcDbPolyline
 90
30
 70
1
 10
131.351990
 20
167.847200
 30
0.0
 10
130.907560
 20
167.941300
 30
0.0
 10
130.493080
 20
168.125720
 30
0.0
 10
130.125430
 20
168.393290
 30
0.0
 10
129.820820
 20
168.730780
 30
0.0
 10
129.593960
 20
169.123210
 30
0.0
 10
129.454300
 20
169.555590
 30
0.0
 10
129.406300
 20
170.006940
 30
0.0
 10
129.454300
 20
170.458300
 30
0.0
 10
129.593960
 20
170.890710
 30
0.0
 10
129.820820
 20
171.283150
 30
0.0
 10
130.125430
 20
171.620630
 30
0.0
 10
130.493080
 20
171.888200
 30
0.0
 10
130.907560
 20
172.072630
 30
0.0
 10
131.351990
 20
172.166730
 30
0.0
 10
131.805400
 20
172.166730
 30
0.0
 10
132.249810
 20
172.072630
 30
0.0
 10
132.664270
 20
171.888200
 30
0.0
 10
133.031920
 20
171.620630
 30
0.0
 10
133.336530
 20
171.283150
 30
0.0
 10
133.563380
 20
170.890710
 30
0.0
 10
133.703050
 20
170.458300
 30
0.0
 10
133.751050
 20
170.006940
 30
0.0
 10
133.703050
 20
169.555590
 30
0.0
 10
133.563380
 20
169.123210
 30
0.0
 10
133.336530
 20
168.730780
 30
0.0
 10
133.031920
 20
168.393290
 30
0.0
 10
132.664270
 20
168.125720
 30
0.0
 10
132.249810
 20
167.941300
 30
0.0
 10
131.805400
 20
167.847200
 30
0.0
  0
LWPOLYLINE
  5
10e
100
AcDbEntity
  8
Layer_1
 62
7
100
AcDbPolyline
 90
30
 70
1
 10
6.514083
 20
167.847200
 30
0.0
 10
6.069962
 20
167.941300
 30
0.0
 10
5.655132
 20
168.125720
 30
0.0
 10
5.287862
 20
168.393290
 30
0.0
 10
4.984006
 20
168.730780
 30
0.0
 10
4.756774
 20
169.123210
 30
0.0
 10
4.616358
 20
169.555590
 30
0.0
 10
4.568798
 20
170.006940
 30
0.0
 10
4.616358
 20
170.458300
 30
0.0
 10
4.756774
 20
170.890710
 30
0.0
 10
4.984006
 20
171.283150
 30
0.0
 10
5.287862
 20
171.620630
 30
0.0
 10
5.655132
 20
171.888200
 30
0.0
 10
6.069962
 20
172.072630
 30
0.0
 10
6.514083
 20
172.166730
 30
0.0
 10
6.968207
 20
172.166730
 30
0.0
 10
7.412441
 20
172.072630
 30
0.0
 10
7.827271
 20
171.888200
 30
0.0
 10
8.194541
 20
171.620630
 30
0.0
 10
8.498397
 20
171.283150
 30
0.0
 10
8.725629
 20
170.890710
 30
0.0
 10
8.866045
 20
170.458300
 30
0.0
 10
8.913605
 20
170.006940
 30
0.0
 10
8.866045
 20
169.555590
 30
0.0
 10
8.725629
 20
169.123210
 30
0.0
 10
8.498397
 20
168.730780
 30
0.0
 10
8.194541
 20
168.393290
 30
0.0
 10
7.827271
 20
168.125720
 30
0.0
 10
7.412441
 20
167.941300
 30
0.0
 10
6.968207
 20
167.847200
 30
0.0
  0
LWPOLYLINE
  5
10f
100
AcDbEntity
  8
Layer_1
 62
7
100
AcDbPolyline
 90
30
 70
1
 10
156.319470
 20
167.847200
 30
0.0
 10
155.875040
 20
167.941300
 30
0.0
 10
155.460590
 20
168.125720
 30
0.0
 10
155.092950
 20
168.393290
 30
0.0
 10
154.788340
 20
168.730780
 30
0.0
 10
154.561480
 20
169.123210
 30
0.0
 10
154.421820
 20
169.555590
 30
0.0
 10
154.373820
 20
170.006940
 30
0.0
 10
154.421820
 20
170.458300
 30
0.0
 10
154.561480
 20
170.890710
 30
0.0
 10
154.788340
 20
171.283150
 30
0.0
 10
155.092950
 20
171.620630
 30
0.0
 10
155.460590
 20
171.888200
 30
0.0
 10
155.875040
 20
172.072630
 30
0.0
 10
156.319470
 20
172.166730
 30
0.0
 10
156.772880
 20
172.166730
 30
0.0
 10
157.217300
 20
172.072630
 30
0.0
 10
157.631750
 20
171.888200
 30
0.0
 10
157.999400
 20
171.620630
 30
0.0
 10
158.304010
 20
171.283150
 30
0.0
 10
158.530860
 20
170.890710
 30
0.0
 10
158.670530
 20
170.458300
 30
0.0
 10
158.718530
 20
170.006940
 30
0.0
 10
158.670530
 20
169.555590
 30
0.0
 10
158.530860
 20
169.123210
 30
0.0
 10
158.304010
 20
168.730780
 30
0.0
 10
157.999400
 20
168.393290
 30
0.0
 10
157.631750
 20
168.125720
 30
0.0
 10
157.217300
 20
167.941300
 30
0.0
 10
156.772880
 20
167.847200
 30
0.0
  0
LWPOLYLINE
  5
110
100
AcDbEntity
  8
Layer_1
 62
7
100
AcDbPolyline
 90
30
 70
1
 10
31.481603
 20
167.847200
 30
0.0
 10
31.037481
 20
167.941300
 30
0.0
 10
30.622614
 20
168.125720
 30
0.0
 10
30.255344
 20
168.393290
 30
0.0
 10
29.951488
 20
168.730780
 30
0.0
 10
29.724256
 20
169.123210
 30
0.0
 10
29.583840
 20
169.555590
 30
0.0
 10
29.536280
 20
170.006940
 30
0.0
 10
29.583840
 20
170.458300
 30
0.0
 10
29.724256
 20
170.890710
 30
0.0
 10
29.951488
 20
171.283150
 30
0.0
 10
30.255344
 20
171.620630
 30
0.0
 10
30.622614
 20
171.888200
 30
0.0
 10
31.037481
 20
172.072630
 30
0.0
 10
31.481603
 20
172.166730
 30
0.0
 10
31.935689
 20
172.166730
 30
0.0
 10
32.379923
 20
172.072630
 30
0.0
 10
32.794791
 20
171.888200
 30
0.0
 10
33.162060
 20
171.620630
 30
0.0
 10
33.465917
 20
171.283150
 30
0.0
 10
33.693149
 20
170.890710
 30
0.0
 10
33.833564
 20
170.458300
 30
0.0
 10
33.881124
 20
170.006940
 30
0.0
 10
33.833564
 20
169.555590
 30
0.0
 10
33.693149
 20
169.123210
 30
0.0
 10
33.465917
 20
168.730780
 30
0.0
 10
33.162060
 20
168.393290
 30
0.0
 10
32.794791
 20
168.125720
 30
0.0
 10
32.379923
 20
167.941300
 30
0.0
 10
31.935689
 20
167.847200
 30
0.0
  0
LWPOLYLINE
  5
111
100
AcDbEntity
  8
Layer_1
 62
7
100
AcDbPolyline
 90
30
 70
1
 10
56.449086
 20
167.847200
 30
0.0
 10
56.004965
 20
167.941300
 30
0.0
 10
55.590097
 20
168.125720
 30
0.0
 10
55.222827
 20
168.393290
 30
0.0
 10
54.918971
 20
168.730780
 30
0.0
 10
54.691739
 20
169.123210
 30
0.0
 10
54.551324
 20
169.555590
 30
0.0
 10
54.503764
 20
170.006940
 30
0.0
 10
54.551324
 20
170.458300
 30
0.0
 10
54.691739
 20
170.890710
 30
0.0
 10
54.918971
 20
171.283150
 30
0.0
 10
55.222827
 20
171.620630
 30
0.0
 10
55.590097
 20
171.888200
 30
0.0
 10
56.004965
 20
172.072630
 30
0.0
 10
56.449086
 20
172.166730
 30
0.0
 10
56.903210
 20
172.166730
 30
0.0
 10
57.347406
 20
172.072630
 30
0.0
 10
57.762274
 20
171.888200
 30
0.0
 10
58.129544
 20
171.620630
 30
0.0
 10
58.433400
 20
171.283150
 30
0.0
 10
58.660632
 20
170.890710
 30
0.0
 10
58.801048
 20
170.458300
 30
0.0
 10
58.848608
 20
170.006940
 30
0.0
 10
58.801048
 20
169.555590
 30
0.0
 10
58.660632
 20
169.123210
 30
0.0
 10
58.433400
 20
168.730780
 30
0.0
 10
58.129544
 20
168.393290
 30
0.0
 10
57.762274
 20
168.125720
 30
0.0
 10
57.347406
 20
167.941300
 30
0.0
 10
56.903210
 20
167.847200
 30
0.0
  0
LWPOLYLINE
  5
112
100
AcDbEntity
  8
Layer_1
 62
7
100
AcDbPolyline
 90
30
 70
1
 10
106.384470
 20
167.847200
 30
0.0
 10
105.940040
 20
167.941300
 30
0.0
 10
105.525600
 20
168.125720
 30
0.0
 10
105.157950
 20
168.393290
 30
0.0
 10
104.853330
 20
168.730780
 30
0.0
 10
104.626480
 20
169.123210
 30
0.0
 10
104.486820
 20
169.555590
 30
0.0
 10
104.438820
 20
170.006940
 30
0.0
 10
104.486820
 20
170.458300
 30
0.0
 10
104.626480
 20
170.890710
 30
0.0
 10
104.853330
 20
171.283150
 30
0.0
 10
105.157950
 20
171.620630
 30
0.0
 10
105.525600
 20
171.888200
 30
0.0
 10
105.940040
 20
172.072630
 30
0.0
 10
106.384470
 20
172.166730
 30
0.0
 10
106.837880
 20
172.166730
 30
0.0
 10
107.282300
 20
172.072630
 30
0.0
 10
107.696780
 20
171.888200
 30
0.0
 10
108.064430
 20
171.620630
 30
0.0
 10
108.369050
 20
171.283150
 30
0.0
 10
108.595910
 20
170.890710
 30
0.0
 10
108.735570
 20
170.458300
 30
0.0
 10
108.783570
 20
170.006940
 30
0.0
 10
108.735570
 20
169.555590
 30
0.0
 10
108.595910
 20
169.123210
 30
0.0
 10
108.369050
 20
168.730780
 30
0.0
 10
108.064430
 20
168.393290
 30
0.0
 10
107.696780
 20
168.125720
 30
0.0
 10
107.282300
 20
167.941300
 30
0.0
 10
106.837880
 20
167.847200
 30
0.0
  0
LWPOLYLINE
  5
113
100
AcDbEntity
  8
Layer_1
 62
7
100
AcDbPolyline
 90
30
 70
1
 10
181.286950
 20
167.847200
 30
0.0
 10
180.842530
 20
167.941300
 30
0.0
 10
180.428070
 20
168.125720
 30
0.0
 10
180.060430
 20
168.393290
 30
0.0
 10
179.755820
 20
168.730780
 30
0.0
 10
179.528960
 20
169.123210
 30
0.0
 10
179.389300
 20
169.555590
 30
0.0
 10
179.341300
 20
170.006940
 30
0.0
 10
179.389300
 20
170.458300
 30
0.0
 10
179.528960
 20
170.890710
 30
0.0
 10
179.755820
 20
171.283150
 30
0.0
 10
180.060430
 20
171.620630
 30
0.0
 10
180.428070
 20
171.888200
 30
0.0
 10
180.842530
 20
172.072630
 30
0.0
 10
181.286950
 20
172.166730
 30
0.0
 10
181.740350
 20
172.166730
 30
0.0
 10
182.184780
 20
172.072630
 30
0.0
 10
182.599270
 20
171.888200
 30
0.0
 10
182.966920
 20
171.620630
 30
0.0
 10
183.271530
 20
171.283150
 30
0.0
 10
183.498380
 20
170.890710
 30
0.0
 10
183.638050
 20
170.458300
 30
0.0
 10
183.686050
 20
170.006940
 30
0.0
 10
183.638050
 20
169.555590
 30
0.0
 10
183.498380
 20
169.123210
 30
0.0
 10
183.271530
 20
168.730780
 30
0.0
 10
182.966920
 20
168.393290
 30
0.0
 10
182.599270
 20
168.125720
 30
0.0
 10
182.184780
 20
167.941300
 30
0.0
 10
181.740350
 20
167.847200
 30
0.0
  0
LWPOLYLINE
  5
114
100
AcDbEntity
  8
Layer_1
 62
7
100
AcDbPolyline
 90
30
 70
1
 10
376.033410
 20
152.868600
 30
0.0
 10
375.588980
 20
152.962700
 30
0.0
 10
375.174540
 20
153.147130
 30
0.0
 10
374.806890
 20
153.414700
 30
0.0
 10
374.502280
 20
153.752180
 30
0.0
 10
374.275420
 20
154.144610
 30
0.0
 10
374.135760
 20
154.576990
 30
0.0
 10
374.087760
 20
155.028350
 30
0.0
 10
374.135760
 20
155.479700
 30
0.0
 10
374.275420
 20
155.912120
 30
0.0
 10
374.502280
 20
156.304550
 30
0.0
 10
374.806890
 20
156.642040
 30
0.0
 10
375.174540
 20
156.909610
 30
0.0
 10
375.588980
 20
157.094030
 30
0.0
 10
376.033410
 20
157.188130
 30
0.0
 10
376.486820
 20
157.188130
 30
0.0
 10
376.931250
 20
157.094030
 30
0.0
 10
377.345690
 20
156.909610
 30
0.0
 10
377.713340
 20
156.642040
 30
0.0
 10
378.017950
 20
156.304550
 30
0.0
 10
378.244810
 20
155.912120
 30
0.0
 10
378.384470
 20
155.479700
 30
0.0
 10
378.432470
 20
155.028350
 30
0.0
 10
378.384470
 20
154.576990
 30
0.0
 10
378.244810
 20
154.144610
 30
0.0
 10
378.017950
 20
153.752180
 30
0.0
 10
377.713340
 20
153.414700
 30
0.0
 10
377.345690
 20
153.147130
 30
0.0
 10
376.931250
 20
152.962700
 30
0.0
 10
376.486820
 20
152.868600
 30
0.0
  0
LWPOLYLINE
  5
115
100
AcDbEntity
  8
Layer_1
 62
7
100
AcDbPolyline
 90
30
 70
1
 10
351.065930
 20
127.904300
 30
0.0
 10
350.621500
 20
127.998400
 30
0.0
 10
350.207060
 20
128.183200
 30
0.0
 10
349.839410
 20
128.450770
 30
0.0
 10
349.534790
 20
128.788250
 30
0.0
 10
349.307940
 20
129.180690
 30
0.0
 10
349.168280
 20
129.613070
 30
0.0
 10
349.120280
 20
130.064380
 30
0.0
 10
349.168280
 20
130.515770
 30
0.0
 10
349.307940
 20
130.948150
 30
0.0
 10
349.534790
 20
131.340590
 30
0.0
 10
349.839410
 20
131.678070
 30
0.0
 10
350.207060
 20
131.945640
 30
0.0
 10
350.621500
 20
132.130070
 30
0.0
 10
351.065930
 20
132.224170
 30
0.0
 10
351.519340
 20
132.224170
 30
0.0
 10
351.963760
 20
132.130070
 30
0.0
 10
352.378210
 20
131.945640
 30
0.0
 10
352.745860
 20
131.678070
 30
0.0
 10
353.050470
 20
131.340590
 30
0.0
 10
353.277330
 20
130.948150
 30
0.0
 10
353.416990
 20
130.515770
 30
0.0
 10
353.464990
 20
130.064380
 30
0.0
 10
353.416990
 20
129.613070
 30
0.0
 10
353.277330
 20
129.180690
 30
0.0
 10
353.050470
 20
128.788250
 30
0.0
 10
352.745860
 20
128.450770
 30
0.0
 10
352.378210
 20
128.183200
 30
0.0
 10
351.963760
 20
127.998400
 30
0.0
 10
351.519340
 20
127.904300
 30
0.0
  0
LWPOLYLINE
  5
116
100
AcDbEntity
  8
Layer_1
 62
7
100
AcDbPolyline
 90
30
 70
1
 10
181.286950
 20
117.918540
 30
0.0
 10
180.842530
 20
118.012640
 30
0.0
 10
180.428070
 20
118.197070
 30
0.0
 10
180.060430
 20
118.464640
 30
0.0
 10
179.755820
 20
118.802120
 30
0.0
 10
179.528960
 20
119.194590
 30
0.0
 10
179.389300
 20
119.626980
 30
0.0
 10
179.341300
 20
120.078330
 30
0.0
 10
179.389300
 20
120.529680
 30
0.0
 10
179.528960
 20
120.962060
 30
0.0
 10
179.755820
 20
121.354500
 30
0.0
 10
180.060430
 20
121.691980
 30
0.0
 10
180.428070
 20
121.959550
 30
0.0
 10
180.842530
 20
122.144350
 30
0.0
 10
181.286950
 20
122.238450
 30
0.0
 10
181.740350
 20
122.238450
 30
0.0
 10
182.184780
 20
122.144350
 30
0.0
 10
182.599270
 20
121.959550
 30
0.0
 10
182.966920
 20
121.691980
 30
0.0
 10
183.271530
 20
121.354500
 30
0.0
 10
183.498380
 20
120.962060
 30
0.0
 10
183.638050
 20
120.529680
 30
0.0
 10
183.686050
 20
120.078330
 30
0.0
 10
183.638050
 20
119.626980
 30
0.0
 10
183.498380
 20
119.194590
 30
0.0
 10
183.271530
 20
118.802120
 30
0.0
 10
182.966920
 20
118.464640
 30
0.0
 10
182.599270
 20
118.197070
 30
0.0
 10
182.184780
 20
118.012640
 30
0.0
 10
181.740350
 20
117.918540
 30
0.0
  0
LWPOLYLINE
  5
117
100
AcDbEntity
  8
Layer_1
 62
7
100
AcDbPolyline
 90
30
 70
1
 10
56.449086
 20
117.918540
 30
0.0
 10
56.004965
 20
118.012640
 30
0.0
 10
55.590097
 20
118.197070
 30
0.0
 10
55.222827
 20
118.464640
 30
0.0
 10
54.918971
 20
118.802120
 30
0.0
 10
54.691739
 20
119.194590
 30
0.0
 10
54.551324
 20
119.626980
 30
0.0
 10
54.503764
 20
120.078330
 30
0.0
 10
54.551324
 20
120.529680
 30
0.0
 10
54.691739
 20
120.962060
 30
0.0
 10
54.918971
 20
121.354500
 30
0.0
 10
55.222827
 20
121.691980
 30
0.0
 10
55.590097
 20
121.959550
 30
0.0
 10
56.004965
 20
122.144350
 30
0.0
 10
56.449086
 20
122.238450
 30
0.0
 10
56.903210
 20
122.238450
 30
0.0
 10
57.347406
 20
122.144350
 30
0.0
 10
57.762274
 20
121.959550
 30
0.0
 10
58.129544
 20
121.691980
 30
0.0
 10
58.433400
 20
121.354500
 30
0.0
 10
58.660632
 20
120.962060
 30
0.0
 10
58.801048
 20
120.529680
 30
0.0
 10
58.848608
 20
120.078330
 30
0.0
 10
58.801048
 20
119.626980
 30
0.0
 10
58.660632
 20
119.194590
 30
0.0
 10
58.433400
 20
118.802120
 30
0.0
 10
58.129544
 20
118.464640
 30
0.0
 10
57.762274
 20
118.197070
 30
0.0
 10
57.347406
 20
118.012640
 30
0.0
 10
56.903210
 20
117.918540
 30
0.0
  0
LWPOLYLINE
  5
118
100
AcDbEntity
  8
Layer_1
 62
7
100
AcDbPolyline
 90
30
 70
1
 10
131.351990
 20
117.918540
 30
0.0
 10
130.907560
 20
118.012640
 30
0.0
 10
130.493080
 20
118.197070
 30
0.0
 10
130.125430
 20
118.464640
 30
0.0
 10
129.820820
 20
118.802120
 30
0.0
 10
129.593960
 20
119.194590
 30
0.0
 10
129.454300
 20
119.626980
 30
0.0
 10
129.406300
 20
120.078330
 30
0.0
 10
129.454300
 20
120.529680
 30
0.0
 10
129.593960
 20
120.962060
 30
0.0
 10
129.820820
 20
121.354500
 30
0.0
 10
130.125430
 20
121.691980
 30
0.0
 10
130.493080
 20
121.959550
 30
0.0
 10
130.907560
 20
122.144350
 30
0.0
 10
131.351990
 20
122.238450
 30
0.0
 10
131.805400
 20
122.238450
 30
0.0
 10
132.249810
 20
122.144350
 30
0.0
 10
132.664270
 20
121.959550
 30
0.0
 10
133.031920
 20
121.691980
 30
0.0
 10
133.336530
 20
121.354500
 30
0.0
 10
133.563380
 20
120.962060
 30
0.0
 10
133.703050
 20
120.529680
 30
0.0
 10
133.751050
 20
120.078330
 30
0.0
 10
133.703050
 20
119.626980
 30
0.0
 10
133.563380
 20
119.194590
 30
0.0
 10
133.336530
 20
118.802120
 30
0.0
 10
133.031920
 20
118.464640
 30
0.0
 10
132.664270
 20
118.197070
 30
0.0
 10
132.249810
 20
118.012640
 30
0.0
 10
131.805400
 20
117.918540
 30
0.0
  0
LWPOLYLINE
  5
119
100
AcDbEntity
  8
Layer_1
 62
7
100
AcDbPolyline
 90
30
 70
1
 10
156.319470
 20
117.918540
 30
0.0
 10
155.875040
 20
118.012640
 30
0.0
 10
155.460590
 20
118.197070
 30
0.0
 10
155.092950
 20
118.464640
 30
0.0
 10
154.788340
 20
118.802120
 30
0.0
 10
154.561480
 20
119.194590
 30
0.0
 10
154.421820
 20
119.626980
 30
0.0
 10
154.373820
 20
120.078330
 30
0.0
 10
154.421820
 20
120.529680
 30
0.0
 10
154.561480
 20
120.962060
 30
0.0
 10
154.788340
 20
121.354500
 30
0.0
 10
155.092950
 20
121.691980
 30
0.0
 10
155.460590
 20
121.959550
 30
0.0
 10
155.875040
 20
122.144350
 30
0.0
 10
156.319470
 20
122.238450
 30
0.0
 10
156.772880
 20
122.238450
 30
0.0
 10
157.217300
 20
122.144350
 30
0.0
 10
157.631750
 20
121.959550
 30
0.0
 10
157.999400
 20
121.691980
 30
0.0
 10
158.304010
 20
121.354500
 30
0.0
 10
158.530860
 20
120.962060
 30
0.0
 10
158.670530
 20
120.529680
 30
0.0
 10
158.718530
 20
120.078330
 30
0.0
 10
158.670530
 20
119.626980
 30
0.0
 10
158.530860
 20
119.194590
 30
0.0
 10
158.304010
 20
118.802120
 30
0.0
 10
157.999400
 20
118.464640
 30
0.0
 10
157.631750
 20
118.197070
 30
0.0
 10
157.217300
 20
118.012640
 30
0.0
 10
156.772880
 20
117.918540
 30
0.0
  0
LWPOLYLINE
  5
11a
100
AcDbEntity
  8
Layer_1
 62
7
100
AcDbPolyline
 90
30
 70
1
 10
31.481603
 20
117.918540
 30
0.0
 10
31.037481
 20
118.012640
 30
0.0
 10
30.622614
 20
118.197070
 30
0.0
 10
30.255344
 20
118.464640
 30
0.0
 10
29.951488
 20
118.802120
 30
0.0
 10
29.724256
 20
119.194590
 30
0.0
 10
29.583840
 20
119.626980
 30
0.0
 10
29.536280
 20
120.078330
 30
0.0
 10
29.583840
 20
120.529680
 30
0.0
 10
29.724256
 20
120.962060
 30
0.0
 10
29.951488
 20
121.354500
 30
0.0
 10
30.255344
 20
121.691980
 30
0.0
 10
30.622614
 20
121.959550
 30
0.0
 10
31.037481
 20
122.144350
 30
0.0
 10
31.481603
 20
122.238450
 30
0.0
 10
31.935689
 20
122.238450
 30
0.0
 10
32.379923
 20
122.144350
 30
0.0
 10
32.794791
 20
121.959550
 30
0.0
 10
33.162060
 20
121.691980
 30
0.0
 10
33.465917
 20
121.354500
 30
0.0
 10
33.693149
 20
120.962060
 30
0.0
 10
33.833564
 20
120.529680
 30
0.0
 10
33.881124
 20
120.078330
 30
0.0
 10
33.833564
 20
119.626980
 30
0.0
 10
33.693149
 20
119.194590
 30
0.0
 10
33.465917
 20
118.802120
 30
0.0
 10
33.162060
 20
118.464640
 30
0.0
 10
32.794791
 20
118.197070
 30
0.0
 10
32.379923
 20
118.012640
 30
0.0
 10
31.935689
 20
117.918540
 30
0.0
  0
LWPOLYLINE
  5
11b
100
AcDbEntity
  8
Layer_1
 62
7
100
AcDbPolyline
 90
30
 70
1
 10
81.416983
 20
117.918540
 30
0.0
 10
80.972560
 20
118.012640
 30
0.0
 10
80.557089
 20
118.197070
 30
0.0
 10
80.190573
 20
118.464640
 30
0.0
 10
79.885962
 20
118.802120
 30
0.0
 10
79.659108
 20
119.194590
 30
0.0
 10
79.519448
 20
119.626980
 30
0.0
 10
79.471508
 20
120.078330
 30
0.0
 10
79.519448
 20
120.529680
 30
0.0
 10
79.659108
 20
120.962060
 30
0.0
 10
79.885962
 20
121.354500
 30
0.0
 10
80.190573
 20
121.691980
 30
0.0
 10
80.557089
 20
121.959550
 30
0.0
 10
80.972560
 20
122.144350
 30
0.0
 10
81.416983
 20
122.238450
 30
0.0
 10
81.870390
 20
122.238450
 30
0.0
 10
82.314813
 20
122.144350
 30
0.0
 10
82.729265
 20
121.959550
 30
0.0
 10
83.096912
 20
121.691980
 30
0.0
 10
83.401524
 20
121.354500
 30
0.0
 10
83.628379
 20
120.962060
 30
0.0
 10
83.768039
 20
120.529680
 30
0.0
 10
83.815979
 20
120.078330
 30
0.0
 10
83.768039
 20
119.626980
 30
0.0
 10
83.628379
 20
119.194590
 30
0.0
 10
83.401524
 20
118.802120
 30
0.0
 10
83.096912
 20
118.464640
 30
0.0
 10
82.729265
 20
118.197070
 30
0.0
 10
82.314813
 20
118.012640
 30
0.0
 10
81.870390
 20
117.918540
 30
0.0
  0
LWPOLYLINE
  5
11c
100
AcDbEntity
  8
Layer_1
 62
7
100
AcDbPolyline
 90
30
 70
1
 10
106.384470
 20
117.918540
 30
0.0
 10
105.940040
 20
118.012640
 30
0.0
 10
105.525600
 20
118.197070
 30
0.0
 10
105.157950
 20
118.464640
 30
0.0
 10
104.853330
 20
118.802120
 30
0.0
 10
104.626480
 20
119.194590
 30
0.0
 10
104.486820
 20
119.626980
 30
0.0
 10
104.438820
 20
120.078330
 30
0.0
 10
104.486820
 20
120.529680
 30
0.0
 10
104.626480
 20
120.962060
 30
0.0
 10
104.853330
 20
121.354500
 30
0.0
 10
105.157950
 20
121.691980
 30
0.0
 10
105.525600
 20
121.959550
 30
0.0
 10
105.940040
 20
122.144350
 30
0.0
 10
106.384470
 20
122.238450
 30
0.0
 10
106.837880
 20
122.238450
 30
0.0
 10
107.282300
 20
122.144350
 30
0.0
 10
107.696780
 20
121.959550
 30
0.0
 10
108.064430
 20
121.691980
 30
0.0
 10
108.369050
 20
121.354500
 30
0.0
 10
108.595910
 20
120.962060
 30
0.0
 10
108.735570
 20
120.529680
 30
0.0
 10
108.783570
 20
120.078330
 30
0.0
 10
108.735570
 20
119.626980
 30
0.0
 10
108.595910
 20
119.194590
 30
0.0
 10
108.369050
 20
118.802120
 30
0.0
 10
108.064430
 20
118.464640
 30
0.0
 10
107.696780
 20
118.197070
 30
0.0
 10
107.282300
 20
118.012640
 30
0.0
 10
106.837880
 20
117.918540
 30
0.0
  0
LWPOLYLINE
  5
11d
100
AcDbEntity
  8
Layer_1
 62
7
100
AcDbPolyline
 90
30
 70
1
 10
206.254470
 20
117.918540
 30
0.0
 10
205.810050
 20
118.012640
 30
0.0
 10
205.395560
 20
118.197070
 30
0.0
 10
205.027920
 20
118.464640
 30
0.0
 10
204.723300
 20
118.802120
 30
0.0
 10
204.496440
 20
119.194590
 30
0.0
 10
204.356790
 20
119.626980
 30
0.0
 10
204.308790
 20
120.078330
 30
0.0
 10
204.356790
 20
120.529680
 30
0.0
 10
204.496440
 20
120.962060
 30
0.0
 10
204.723300
 20
121.354500
 30
0.0
 10
205.027920
 20
121.691980
 30
0.0
 10
205.395560
 20
121.959550
 30
0.0
 10
205.810050
 20
122.144350
 30
0.0
 10
206.254470
 20
122.238450
 30
0.0
 10
206.707870
 20
122.238450
 30
0.0
 10
207.152300
 20
122.144350
 30
0.0
 10
207.566750
 20
121.959550
 30
0.0
 10
207.934400
 20
121.691980
 30
0.0
 10
208.239020
 20
121.354500
 30
0.0
 10
208.465860
 20
120.962060
 30
0.0
 10
208.605520
 20
120.529680
 30
0.0
 10
208.653520
 20
120.078330
 30
0.0
 10
208.605520
 20
119.626980
 30
0.0
 10
208.465860
 20
119.194590
 30
0.0
 10
208.239020
 20
118.802120
 30
0.0
 10
207.934400
 20
118.464640
 30
0.0
 10
207.566750
 20
118.197070
 30
0.0
 10
207.152300
 20
118.012640
 30
0.0
 10
206.707870
 20
117.918540
 30
0.0
  0
LWPOLYLINE
  5
11e
100
AcDbEntity
  8
Layer_1
 62
7
100
AcDbPolyline
 90
30
 70
1
 10
6.514083
 20
117.918540
 30
0.0
 10
6.069962
 20
118.012640
 30
0.0
 10
5.655132
 20
118.197070
 30
0.0
 10
5.287862
 20
118.464640
 30
0.0
 10
4.984006
 20
118.802120
 30
0.0
 10
4.756774
 20
119.194590
 30
0.0
 10
4.616358
 20
119.626980
 30
0.0
 10
4.568798
 20
120.078330
 30
0.0
 10
4.616358
 20
120.529680
 30
0.0
 10
4.756774
 20
120.962060
 30
0.0
 10
4.984006
 20
121.354500
 30
0.0
 10
5.287862
 20
121.691980
 30
0.0
 10
5.655132
 20
121.959550
 30
0.0
 10
6.069962
 20
122.144350
 30
0.0
 10
6.514083
 20
122.238450
 30
0.0
 10
6.968207
 20
122.238450
 30
0.0
 10
7.412441
 20
122.144350
 30
0.0
 10
7.827271
 20
121.959550
 30
0.0
 10
8.194541
 20
121.691980
 30
0.0
 10
8.498397
 20
121.354500
 30
0.0
 10
8.725629
 20
120.962060
 30
0.0
 10
8.866045
 20
120.529680
 30
0.0
 10
8.913605
 20
120.078330
 30
0.0
 10
8.866045
 20
119.626980
 30
0.0
 10
8.725629
 20
119.194590
 30
0.0
 10
8.498397
 20
118.802120
 30
0.0
 10
8.194541
 20
118.464640
 30
0.0
 10
7.827271
 20
118.197070
 30
0.0
 10
7.412441
 20
118.012640
 30
0.0
 10
6.968207
 20
117.918540
 30
0.0
  0
LWPOLYLINE
  5
11f
100
AcDbEntity
  8
Layer_1
 62
7
100
AcDbPolyline
 90
30
 70
1
 10
376.033410
 20
102.939930
 30
0.0
 10
375.588980
 20
103.034030
 30
0.0
 10
375.174540
 20
103.218450
 30
0.0
 10
374.806890
 20
103.486020
 30
0.0
 10
374.502280
 20
103.823510
 30
0.0
 10
374.275420
 20
104.215940
 30
0.0
 10
374.135760
 20
104.648360
 30
0.0
 10
374.087760
 20
105.099710
 30
0.0
 10
374.135760
 20
105.551060
 30
0.0
 10
374.275420
 20
105.983410
 30
0.0
 10
374.502280
 20
106.375880
 30
0.0
 10
374.806890
 20
106.713360
 30
0.0
 10
375.174540
 20
106.980930
 30
0.0
 10
375.588980
 20
107.165740
 30
0.0
 10
376.033410
 20
107.259840
 30
0.0
 10
376.486820
 20
107.259840
 30
0.0
 10
376.931250
 20
107.165740
 30
0.0
 10
377.345690
 20
106.980930
 30
0.0
 10
377.713340
 20
106.713360
 30
0.0
 10
378.017950
 20
106.375880
 30
0.0
 10
378.244810
 20
105.983410
 30
0.0
 10
378.384470
 20
105.551060
 30
0.0
 10
378.432470
 20
105.099710
 30
0.0
 10
378.384470
 20
104.648360
 30
0.0
 10
378.244810
 20
104.215940
 30
0.0
 10
378.017950
 20
103.823510
 30
0.0
 10
377.713340
 20
103.486020
 30
0.0
 10
377.345690
 20
103.218450
 30
0.0
 10
376.931250
 20
103.034030
 30
0.0
 10
376.486820
 20
102.939930
 30
0.0
  0
LWPOLYLINE
  5
120
100
AcDbEntity
  8
Layer_1
 62
7
100
AcDbPolyline
 90
30
 70
1
 10
376.033410
 20
77.975600
 30
0.0
 10
375.588980
 20
78.069700
 30
0.0
 10
375.174540
 20
78.254510
 30
0.0
 10
374.806890
 20
78.522080
 30
0.0
 10
374.502280
 20
78.859560
 30
0.0
 10
374.275420
 20
79.252000
 30
0.0
 10
374.135760
 20
79.684340
 30
0.0
 10
374.087760
 20
80.135690
 30
0.0
 10
374.135760
 20
80.587080
 30
0.0
 10
374.275420
 20
81.019430
 30
0.0
 10
374.502280
 20
81.411900
 30
0.0
 10
374.806890
 20
81.749380
 30
0.0
 10
375.174540
 20
82.016950
 30
0.0
 10
375.588980
 20
82.201380
 30
0.0
 10
376.033410
 20
82.295480
 30
0.0
 10
376.486820
 20
82.295480
 30
0.0
 10
376.931250
 20
82.201380
 30
0.0
 10
377.345690
 20
82.016950
 30
0.0
 10
377.713340
 20
81.749380
 30
0.0
 10
378.017950
 20
81.411900
 30
0.0
 10
378.244810
 20
81.019430
 30
0.0
 10
378.384470
 20
80.587080
 30
0.0
 10
378.432470
 20
80.135690
 30
0.0
 10
378.384470
 20
79.684340
 30
0.0
 10
378.244810
 20
79.252000
 30
0.0
 10
378.017950
 20
78.859560
 30
0.0
 10
377.713340
 20
78.522080
 30
0.0
 10
377.345690
 20
78.254510
 30
0.0
 10
376.931250
 20
78.069700
 30
0.0
 10
376.486820
 20
77.975600
 30
0.0
  0
LWPOLYLINE
  5
121
100
AcDbEntity
  8
Layer_1
 62
7
100
AcDbPolyline
 90
30
 70
1
 10
331.091920
 20
48.018280
 30
0.0
 10
330.647500
 20
48.112780
 30
0.0
 10
330.233040
 20
48.297580
 30
0.0
 10
329.865390
 20
48.564390
 30
0.0
 10
329.560790
 20
48.901880
 30
0.0
 10
329.333930
 20
49.295030
 30
0.0
 10
329.194270
 20
49.726880
 30
0.0
 10
329.146270
 20
50.178420
 30
0.0
 10
329.194270
 20
50.630000
 30
0.0
 10
329.333930
 20
51.061820
 30
0.0
 10
329.560790
 20
51.455040
 30
0.0
 10
329.865390
 20
51.792530
 30
0.0
 10
330.233040
 20
52.059340
 30
0.0
 10
330.647500
 20
52.243770
 30
0.0
 10
331.091920
 20
52.338270
 30
0.0
 10
331.545330
 20
52.338270
 30
0.0
 10
331.989750
 20
52.243770
 30
0.0
 10
332.404240
 20
52.059340
 30
0.0
 10
332.771890
 20
51.792530
 30
0.0
 10
333.076500
 20
51.455040
 30
0.0
 10
333.303350
 20
51.061820
 30
0.0
 10
333.443010
 20
50.630000
 30
0.0
 10
333.491010
 20
50.178420
 30
0.0
 10
333.443010
 20
49.726880
 30
0.0
 10
333.303350
 20
49.295030
 30
0.0
 10
333.076500
 20
48.901880
 30
0.0
 10
332.771890
 20
48.564390
 30
0.0
 10
332.404240
 20
48.297580
 30
0.0
 10
331.989750
 20
48.112780
 30
0.0
 10
331.545330
 20
48.018280
 30
0.0
  0
LWPOLYLINE
  5
122
100
AcDbEntity
  8
Layer_1
 62
7
100
AcDbPolyline
 90
30
 70
1
 10
306.124440
 20
48.018280
 30
0.0
 10
305.680020
 20
48.112780
 30
0.0
 10
305.265560
 20
48.297580
 30
0.0
 10
304.897910
 20
48.564390
 30
0.0
 10
304.593310
 20
48.901880
 30
0.0
 10
304.366450
 20
49.295030
 30
0.0
 10
304.226790
 20
49.726880
 30
0.0
 10
304.178790
 20
50.178420
 30
0.0
 10
304.226790
 20
50.630000
 30
0.0
 10
304.366450
 20
51.061820
 30
0.0
 10
304.593310
 20
51.455040
 30
0.0
 10
304.897910
 20
51.792530
 30
0.0
 10
305.265560
 20
52.059340
 30
0.0
 10
305.680020
 20
52.243770
 30
0.0
 10
306.124440
 20
52.338270
 30
0.0
 10
306.577840
 20
52.338270
 30
0.0
 10
307.022270
 20
52.243770
 30
0.0
 10
307.436720
 20
52.059340
 30
0.0
 10
307.804370
 20
51.792530
 30
0.0
 10
308.108980
 20
51.455040
 30
0.0
 10
308.335830
 20
51.061820
 30
0.0
 10
308.475490
 20
50.630000
 30
0.0
 10
308.523490
 20
50.178420
 30
0.0
 10
308.475490
 20
49.726880
 30
0.0
 10
308.335830
 20
49.295030
 30
0.0
 10
308.108980
 20
48.901880
 30
0.0
 10
307.804370
 20
48.564390
 30
0.0
 10
307.436720
 20
48.297580
 30
0.0
 10
307.022270
 20
48.112780
 30
0.0
 10
306.577840
 20
48.018280
 30
0.0
  0
LWPOLYLINE
  5
123
100
AcDbEntity
  8
Layer_1
 62
7
100
AcDbPolyline
 90
30
 70
1
 10
281.156960
 20
48.018280
 30
0.0
 10
280.712530
 20
48.112780
 30
0.0
 10
280.298040
 20
48.297580
 30
0.0
 10
279.930390
 20
48.564390
 30
0.0
 10
279.625790
 20
48.901880
 30
0.0
 10
279.398930
 20
49.295030
 30
0.0
 10
279.259270
 20
49.726880
 30
0.0
 10
279.211270
 20
50.178420
 30
0.0
 10
279.259270
 20
50.630000
 30
0.0
 10
279.398930
 20
51.061820
 30
0.0
 10
279.625790
 20
51.455040
 30
0.0
 10
279.930390
 20
51.792530
 30
0.0
 10
280.298040
 20
52.059340
 30
0.0
 10
280.712530
 20
52.243770
 30
0.0
 10
281.156960
 20
52.338270
 30
0.0
 10
281.610360
 20
52.338270
 30
0.0
 10
282.054780
 20
52.243770
 30
0.0
 10
282.469240
 20
52.059340
 30
0.0
 10
282.836890
 20
51.792530
 30
0.0
 10
283.141490
 20
51.455040
 30
0.0
 10
283.368350
 20
51.061820
 30
0.0
 10
283.508010
 20
50.630000
 30
0.0
 10
283.556010
 20
50.178420
 30
0.0
 10
283.508010
 20
49.726880
 30
0.0
 10
283.368350
 20
49.295030
 30
0.0
 10
283.141490
 20
48.901880
 30
0.0
 10
282.836890
 20
48.564390
 30
0.0
 10
282.469240
 20
48.297580
 30
0.0
 10
282.054780
 20
48.112780
 30
0.0
 10
281.610360
 20
48.018280
 30
0.0
  0
LWPOLYLINE
  5
124
100
AcDbEntity
  8
Layer_1
 62
7
100
AcDbPolyline
 90
30
 70
1
 10
181.286950
 20
48.018280
 30
0.0
 10
180.842530
 20
48.112780
 30
0.0
 10
180.428070
 20
48.297580
 30
0.0
 10
180.060430
 20
48.564390
 30
0.0
 10
179.755820
 20
48.901880
 30
0.0
 10
179.528960
 20
49.295030
 30
0.0
 10
179.389300
 20
49.726880
 30
0.0
 10
179.341300
 20
50.178420
 30
0.0
 10
179.389300
 20
50.630000
 30
0.0
 10
179.528960
 20
51.061820
 30
0.0
 10
179.755820
 20
51.455040
 30
0.0
 10
180.060430
 20
51.792530
 30
0.0
 10
180.428070
 20
52.059340
 30
0.0
 10
180.842530
 20
52.243770
 30
0.0
 10
181.286950
 20
52.338270
 30
0.0
 10
181.740350
 20
52.338270
 30
0.0
 10
182.184780
 20
52.243770
 30
0.0
 10
182.599270
 20
52.059340
 30
0.0
 10
182.966920
 20
51.792530
 30
0.0
 10
183.271530
 20
51.455040
 30
0.0
 10
183.498380
 20
51.061820
 30
0.0
 10
183.638050
 20
50.630000
 30
0.0
 10
183.686050
 20
50.178420
 30
0.0
 10
183.638050
 20
49.726880
 30
0.0
 10
183.498380
 20
49.295030
 30
0.0
 10
183.271530
 20
48.901880
 30
0.0
 10
182.966920
 20
48.564390
 30
0.0
 10
182.599270
 20
48.297580
 30
0.0
 10
182.184780
 20
48.112780
 30
0.0
 10
181.740350
 20
48.018280
 30
0.0
  0
LWPOLYLINE
  5
125
100
AcDbEntity
  8
Layer_1
 62
7
100
AcDbPolyline
 90
30
 70
1
 10
256.189440
 20
48.018280
 30
0.0
 10
255.745010
 20
48.112780
 30
0.0
 10
255.330560
 20
48.297580
 30
0.0
 10
254.962910
 20
48.564390
 30
0.0
 10
254.658310
 20
48.901880
 30
0.0
 10
254.431450
 20
49.295030
 30
0.0
 10
254.291790
 20
49.726880
 30
0.0
 10
254.243790
 20
50.178420
 30
0.0
 10
254.291790
 20
50.630000
 30
0.0
 10
254.431450
 20
51.061820
 30
0.0
 10
254.658310
 20
51.455040
 30
0.0
 10
254.962910
 20
51.792530
 30
0.0
 10
255.330560
 20
52.059340
 30
0.0
 10
255.745010
 20
52.243770
 30
0.0
 10
256.189440
 20
52.338270
 30
0.0
 10
256.642840
 20
52.338270
 30
0.0
 10
257.087260
 20
52.243770
 30
0.0
 10
257.501760
 20
52.059340
 30
0.0
 10
257.869410
 20
51.792530
 30
0.0
 10
258.174020
 20
51.455040
 30
0.0
 10
258.400870
 20
51.061820
 30
0.0
 10
258.540530
 20
50.630000
 30
0.0
 10
258.588530
 20
50.178420
 30
0.0
 10
258.540530
 20
49.726880
 30
0.0
 10
258.400870
 20
49.295030
 30
0.0
 10
258.174020
 20
48.901880
 30
0.0
 10
257.869410
 20
48.564390
 30
0.0
 10
257.501760
 20
48.297580
 30
0.0
 10
257.087260
 20
48.112780
 30
0.0
 10
256.642840
 20
48.018280
 30
0.0
  0
LWPOLYLINE
  5
126
100
AcDbEntity
  8
Layer_1
 62
7
100
AcDbPolyline
 90
30
 70
1
 10
356.059440
 20
48.018280
 30
0.0
 10
355.615020
 20
48.112780
 30
0.0
 10
355.200530
 20
48.297580
 30
0.0
 10
354.832880
 20
48.564390
 30
0.0
 10
354.528270
 20
48.901880
 30
0.0
 10
354.301420
 20
49.295030
 30
0.0
 10
354.161760
 20
49.726880
 30
0.0
 10
354.113760
 20
50.178420
 30
0.0
 10
354.161760
 20
50.630000
 30
0.0
 10
354.301420
 20
51.061820
 30
0.0
 10
354.528270
 20
51.455040
 30
0.0
 10
354.832880
 20
51.792530
 30
0.0
 10
355.200530
 20
52.059340
 30
0.0
 10
355.615020
 20
52.243770
 30
0.0
 10
356.059440
 20
52.338270
 30
0.0
 10
356.512850
 20
52.338270
 30
0.0
 10
356.957230
 20
52.243770
 30
0.0
 10
357.371690
 20
52.059340
 30
0.0
 10
357.739340
 20
51.792530
 30
0.0
 10
358.043940
 20
51.455040
 30
0.0
 10
358.270800
 20
51.061820
 30
0.0
 10
358.410460
 20
50.630000
 30
0.0
 10
358.458460
 20
50.178420
 30
0.0
 10
358.410460
 20
49.726880
 30
0.0
 10
358.270800
 20
49.295030
 30
0.0
 10
358.043940
 20
48.901880
 30
0.0
 10
357.739340
 20
48.564390
 30
0.0
 10
357.371690
 20
48.297580
 30
0.0
 10
356.957230
 20
48.112780
 30
0.0
 10
356.512850
 20
48.018280
 30
0.0
  0
LWPOLYLINE
  5
127
100
AcDbEntity
  8
Layer_1
 62
7
100
AcDbPolyline
 90
30
 70
1
 10
206.254470
 20
48.018280
 30
0.0
 10
205.810050
 20
48.112780
 30
0.0
 10
205.395560
 20
48.297580
 30
0.0
 10
205.027920
 20
48.564390
 30
0.0
 10
204.723300
 20
48.901880
 30
0.0
 10
204.496440
 20
49.295030
 30
0.0
 10
204.356790
 20
49.726880
 30
0.0
 10
204.308790
 20
50.178420
 30
0.0
 10
204.356790
 20
50.630000
 30
0.0
 10
204.496440
 20
51.061820
 30
0.0
 10
204.723300
 20
51.455040
 30
0.0
 10
205.027920
 20
51.792530
 30
0.0
 10
205.395560
 20
52.059340
 30
0.0
 10
205.810050
 20
52.243770
 30
0.0
 10
206.254470
 20
52.338270
 30
0.0
 10
206.707870
 20
52.338270
 30
0.0
 10
207.152300
 20
52.243770
 30
0.0
 10
207.566750
 20
52.059340
 30
0.0
 10
207.934400
 20
51.792530
 30
0.0
 10
208.239020
 20
51.455040
 30
0.0
 10
208.465860
 20
51.061820
 30
0.0
 10
208.605520
 20
50.630000
 30
0.0
 10
208.653520
 20
50.178420
 30
0.0
 10
208.605520
 20
49.726880
 30
0.0
 10
208.465860
 20
49.295030
 30
0.0
 10
208.239020
 20
48.901880
 30
0.0
 10
207.934400
 20
48.564390
 30
0.0
 10
207.566750
 20
48.297580
 30
0.0
 10
207.152300
 20
48.112780
 30
0.0
 10
206.707870
 20
48.018280
 30
0.0
  0
LWPOLYLINE
  5
128
100
AcDbEntity
  8
Layer_1
 62
7
100
AcDbPolyline
 90
30
 70
1
 10
131.351990
 20
48.018280
 30
0.0
 10
130.907560
 20
48.112780
 30
0.0
 10
130.493080
 20
48.297580
 30
0.0
 10
130.125430
 20
48.564390
 30
0.0
 10
129.820820
 20
48.901880
 30
0.0
 10
129.593960
 20
49.295030
 30
0.0
 10
129.454300
 20
49.726880
 30
0.0
 10
129.406300
 20
50.178420
 30
0.0
 10
129.454300
 20
50.630000
 30
0.0
 10
129.593960
 20
51.061820
 30
0.0
 10
129.820820
 20
51.455040
 30
0.0
 10
130.125430
 20
51.792530
 30
0.0
 10
130.493080
 20
52.059340
 30
0.0
 10
130.907560
 20
52.243770
 30
0.0
 10
131.351990
 20
52.338270
 30
0.0
 10
131.805400
 20
52.338270
 30
0.0
 10
132.249810
 20
52.243770
 30
0.0
 10
132.664270
 20
52.059340
 30
0.0
 10
133.031920
 20
51.792530
 30
0.0
 10
133.336530
 20
51.455040
 30
0.0
 10
133.563380
 20
51.061820
 30
0.0
 10
133.703050
 20
50.630000
 30
0.0
 10
133.751050
 20
50.178420
 30
0.0
 10
133.703050
 20
49.726880
 30
0.0
 10
133.563380
 20
49.295030
 30
0.0
 10
133.336530
 20
48.901880
 30
0.0
 10
133.031920
 20
48.564390
 30
0.0
 10
132.664270
 20
48.297580
 30
0.0
 10
132.249810
 20
48.112780
 30
0.0
 10
131.805400
 20
48.018280
 30
0.0
  0
LWPOLYLINE
  5
129
100
AcDbEntity
  8
Layer_1
 62
7
100
AcDbPolyline
 90
30
 70
1
 10
231.221950
 20
48.018280
 30
0.0
 10
230.777530
 20
48.112780
 30
0.0
 10
230.363080
 20
48.297580
 30
0.0
 10
229.995440
 20
48.564390
 30
0.0
 10
229.690820
 20
48.901880
 30
0.0
 10
229.463960
 20
49.295030
 30
0.0
 10
229.324310
 20
49.726880
 30
0.0
 10
229.276310
 20
50.178420
 30
0.0
 10
229.324310
 20
50.630000
 30
0.0
 10
229.463960
 20
51.061820
 30
0.0
 10
229.690820
 20
51.455040
 30
0.0
 10
229.995440
 20
51.792530
 30
0.0
 10
230.363080
 20
52.059340
 30
0.0
 10
230.777530
 20
52.243770
 30
0.0
 10
231.221950
 20
52.338270
 30
0.0
 10
231.675360
 20
52.338270
 30
0.0
 10
232.119780
 20
52.243770
 30
0.0
 10
232.534240
 20
52.059340
 30
0.0
 10
232.901890
 20
51.792530
 30
0.0
 10
233.206500
 20
51.455040
 30
0.0
 10
233.433350
 20
51.061820
 30
0.0
 10
233.573010
 20
50.630000
 30
0.0
 10
233.621010
 20
50.178420
 30
0.0
 10
233.573010
 20
49.726880
 30
0.0
 10
233.433350
 20
49.295030
 30
0.0
 10
233.206500
 20
48.901880
 30
0.0
 10
232.901890
 20
48.564390
 30
0.0
 10
232.534240
 20
48.297580
 30
0.0
 10
232.119780
 20
48.112780
 30
0.0
 10
231.675360
 20
48.018280
 30
0.0
  0
LWPOLYLINE
  5
12a
100
AcDbEntity
  8
Layer_1
 62
7
100
AcDbPolyline
 90
30
 70
1
 10
6.514083
 20
48.018280
 30
0.0
 10
6.069962
 20
48.112780
 30
0.0
 10
5.655132
 20
48.297580
 30
0.0
 10
5.287862
 20
48.564390
 30
0.0
 10
4.984006
 20
48.901880
 30
0.0
 10
4.756774
 20
49.295030
 30
0.0
 10
4.616358
 20
49.726880
 30
0.0
 10
4.568798
 20
50.178420
 30
0.0
 10
4.616358
 20
50.630000
 30
0.0
 10
4.756774
 20
51.061820
 30
0.0
 10
4.984006
 20
51.455040
 30
0.0
 10
5.287862
 20
51.792530
 30
0.0
 10
5.655132
 20
52.059340
 30
0.0
 10
6.070000
 20
52.243770
 30
0.0
 10
6.514121
 20
52.338270
 30
0.0
 10
6.968245
 20
52.338270
 30
0.0
 10
7.412479
 20
52.243770
 30
0.0
 10
7.827309
 20
52.059340
 30
0.0
 10
8.194579
 20
51.792530
 30
0.0
 10
8.498435
 20
51.455040
 30
0.0
 10
8.725667
 20
51.061820
 30
0.0
 10
8.866082
 20
50.630000
 30
0.0
 10
8.913642
 20
50.178420
 30
0.0
 10
8.866082
 20
49.726880
 30
0.0
 10
8.725667
 20
49.295030
 30
0.0
 10
8.498435
 20
48.901880
 30
0.0
 10
8.194579
 20
48.564390
 30
0.0
 10
7.827309
 20
48.297580
 30
0.0
 10
7.412479
 20
48.112780
 30
0.0
 10
6.968245
 20
48.018280
 30
0.0
  0
LWPOLYLINE
  5
12b
100
AcDbEntity
  8
Layer_1
 62
7
100
AcDbPolyline
 90
30
 70
1
 10
31.481603
 20
48.018280
 30
0.0
 10
31.037481
 20
48.112780
 30
0.0
 10
30.622614
 20
48.297580
 30
0.0
 10
30.255344
 20
48.564390
 30
0.0
 10
29.951488
 20
48.901880
 30
0.0
 10
29.724256
 20
49.295030
 30
0.0
 10
29.583840
 20
49.726880
 30
0.0
 10
29.536280
 20
50.178420
 30
0.0
 10
29.583840
 20
50.630000
 30
0.0
 10
29.724256
 20
51.061820
 30
0.0
 10
29.951488
 20
51.455040
 30
0.0
 10
30.255344
 20
51.792530
 30
0.0
 10
30.622614
 20
52.059340
 30
0.0
 10
31.037481
 20
52.243770
 30
0.0
 10
31.481603
 20
52.338270
 30
0.0
 10
31.935689
 20
52.338270
 30
0.0
 10
32.379923
 20
52.243770
 30
0.0
 10
32.794791
 20
52.059340
 30
0.0
 10
33.162060
 20
51.792530
 30
0.0
 10
33.465917
 20
51.455040
 30
0.0
 10
33.693149
 20
51.061820
 30
0.0
 10
33.833564
 20
50.630000
 30
0.0
 10
33.881124
 20
50.178420
 30
0.0
 10
33.833564
 20
49.726880
 30
0.0
 10
33.693149
 20
49.295030
 30
0.0
 10
33.465917
 20
48.901880
 30
0.0
 10
33.162060
 20
48.564390
 30
0.0
 10
32.794791
 20
48.297580
 30
0.0
 10
32.379923
 20
48.112780
 30
0.0
 10
31.935689
 20
48.018280
 30
0.0
  0
LWPOLYLINE
  5
12c
100
AcDbEntity
  8
Layer_1
 62
7
100
AcDbPolyline
 90
30
 70
1
 10
156.319470
 20
48.018280
 30
0.0
 10
155.875040
 20
48.112780
 30
0.0
 10
155.460590
 20
48.297580
 30
0.0
 10
155.092950
 20
48.564390
 30
0.0
 10
154.788340
 20
48.901880
 30
0.0
 10
154.561480
 20
49.295030
 30
0.0
 10
154.421820
 20
49.726880
 30
0.0
 10
154.373820
 20
50.178420
 30
0.0
 10
154.421820
 20
50.630000
 30
0.0
 10
154.561480
 20
51.061820
 30
0.0
 10
154.788340
 20
51.455040
 30
0.0
 10
155.092950
 20
51.792530
 30
0.0
 10
155.460590
 20
52.059340
 30
0.0
 10
155.875040
 20
52.243770
 30
0.0
 10
156.319470
 20
52.338270
 30
0.0
 10
156.772880
 20
52.338270
 30
0.0
 10
157.217300
 20
52.243770
 30
0.0
 10
157.631750
 20
52.059340
 30
0.0
 10
157.999400
 20
51.792530
 30
0.0
 10
158.304010
 20
51.455040
 30
0.0
 10
158.530860
 20
51.061820
 30
0.0
 10
158.670530
 20
50.630000
 30
0.0
 10
158.718530
 20
50.178420
 30
0.0
 10
158.670530
 20
49.726880
 30
0.0
 10
158.530860
 20
49.295030
 30
0.0
 10
158.304010
 20
48.901880
 30
0.0
 10
157.999400
 20
48.564390
 30
0.0
 10
157.631750
 20
48.297580
 30
0.0
 10
157.217300
 20
48.112780
 30
0.0
 10
156.772880
 20
48.018280
 30
0.0
  0
LWPOLYLINE
  5
12d
100
AcDbEntity
  8
Layer_1
 62
7
100
AcDbPolyline
 90
30
 70
1
 10
6.514083
 20
8.075380
 30
0.0
 10
6.069962
 20
8.169880
 30
0.0
 10
5.655132
 20
8.354300
 30
0.0
 10
5.287862
 20
8.621110
 30
0.0
 10
4.984006
 20
8.958600
 30
0.0
 10
4.756774
 20
9.351750
 30
0.0
 10
4.616358
 20
9.783640
 30
0.0
 10
4.568798
 20
10.235180
 30
0.0
 10
4.616358
 20
10.686760
 30
0.0
 10
4.756774
 20
11.118500
 30
0.0
 10
4.984006
 20
11.511770
 30
0.0
 10
5.287862
 20
11.849250
 30
0.0
 10
5.655132
 20
12.116060
 30
0.0
 10
6.069962
 20
12.300490
 30
0.0
 10
6.514083
 20
12.394990
 30
0.0
 10
6.968207
 20
12.394990
 30
0.0
 10
7.412441
 20
12.300490
 30
0.0
 10
7.827271
 20
12.116060
 30
0.0
 10
8.194541
 20
11.849250
 30
0.0
 10
8.498397
 20
11.511770
 30
0.0
 10
8.725629
 20
11.118500
 30
0.0
 10
8.866045
 20
10.686760
 30
0.0
 10
8.913605
 20
10.235180
 30
0.0
 10
8.866045
 20
9.783640
 30
0.0
 10
8.725629
 20
9.351750
 30
0.0
 10
8.498397
 20
8.958600
 30
0.0
 10
8.194541
 20
8.621110
 30
0.0
 10
7.827271
 20
8.354300
 30
0.0
 10
7.412441
 20
8.169880
 30
0.0
 10
6.968207
 20
8.075380
 30
0.0
  0
LWPOLYLINE
  5
12e
100
AcDbEntity
  8
Layer_1
 62
7
100
AcDbPolyline
 90
30
 70
1
 10
376.033410
 20
8.075380
 30
0.0
 10
375.588980
 20
8.169880
 30
0.0
 10
375.174540
 20
8.354300
 30
0.0
 10
374.806890
 20
8.621110
 30
0.0
 10
374.502280
 20
8.958600
 30
0.0
 10
374.275420
 20
9.351750
 30
0.0
 10
374.135760
 20
9.783640
 30
0.0
 10
374.087760
 20
10.235180
 30
0.0
 10
374.135760
 20
10.686760
 30
0.0
 10
374.275420
 20
11.118500
 30
0.0
 10
374.502280
 20
11.511770
 30
0.0
 10
374.806890
 20
11.849250
 30
0.0
 10
375.174540
 20
12.116060
 30
0.0
 10
375.588980
 20
12.300490
 30
0.0
 10
376.033410
 20
12.394990
 30
0.0
 10
376.486820
 20
12.394990
 30
0.0
 10
376.931250
 20
12.300490
 30
0.0
 10
377.345690
 20
12.116060
 30
0.0
 10
377.713340
 20
11.849250
 30
0.0
 10
378.017950
 20
11.511770
 30
0.0
 10
378.244810
 20
11.118500
 30
0.0
 10
378.384470
 20
10.686760
 30
0.0
 10
378.432470
 20
10.235180
 30
0.0
 10
378.384470
 20
9.783640
 30
0.0
 10
378.244810
 20
9.351750
 30
0.0
 10
378.017950
 20
8.958600
 30
0.0
 10
377.713340
 20
8.621110
 30
0.0
 10
377.345690
 20
8.354300
 30
0.0
 10
376.931250
 20
8.169880
 30
0.0
 10
376.486820
 20
8.075380
 30
0.0
  0
ENDSEC
  0
SECTION
  2
OBJECTS
  0
DICTIONARY
  5
C
330
0
100
AcDbDictionary
  3
ACAD_GROUP
350
D
  3
ACAD_MLINESTYLE
350
17
  0
DICTIONARY
  5
D
330
C
100
AcDbDictionary
  0
DICTIONARY
  5
1A
330
C
100
AcDbDictionary
  0
DICTIONARY
  5
17
330
C
100
AcDbDictionary
  3
STANDARD
350
18
  0
DICTIONARY
  5
19
330
C
100
AcDbDictionary
  0
ENDSEC
  0
EOF
