  0
SECTION
  2
HEADER
  9
$ACADVER
  1
AC1014
  9
$HANDSEED
  5
FFFF
  9
$MEASUREMENT
 70
     1
  0
ENDSEC
  0
SECTION
  2
TABLES
  0
TABLE
  2
VPORT
  5
8
330
0
100
AcDbSymbolTable
 70
     4
  0
VPORT
  5
2E
330
8
100
AcDbSymbolTableRecord
100
AcDbViewportTableRecord
  2
*ACTIVE
 70
     0
 10
0.0
 20
0.0
 11
1.0
 21
1.0
 12
210.0
 22
148.5
 13
0.0
 23
0.0
 14
10.0
 24
10.0
 15
10.0
 25
10.0
 16
0.0
 26
0.0
 36
1.0
 17
0.0
 27
0.0
 37
0.0
 40
341.0
 41
1.24
 42
50.0
 43
0.0
 44
0.0
 50
0.0
 51
0.0
 71
     0
 72
   100
 73
     1
 74
     3
 75
     0
 76
     0
 77
     0
 78
     0
  0
ENDTAB
  0
TABLE
  2
LTYPE
  5
5
330
0
100
AcDbSymbolTable
 70
     1
  0
LTYPE
  5
14
330
5
100
AcDbSymbolTableRecord
100
AcDbLinetypeTableRecord
  2
BYBLOCK
 70
     0
  3

 72
    65
 73
     0
 40
0.0
  0
LTYPE
  5
15
330
5
100
AcDbSymbolTableRecord
100
AcDbLinetypeTableRecord
  2
BYLAYER
 70
     0
  3

 72
    65
 73
     0
 40
0.0
  0
LTYPE
  5
16
330
5
100
AcDbSymbolTableRecord
100
AcDbLinetypeTableRecord
  2
CONTINUOUS
 70
     0
  3
Solid line
 72
    65
 73
     0
 40
0.0
  0
ENDTAB
  0
TABLE
  2
LAYER
  5
2
100
AcDbSymbolTable
 70
2
  0
LAYER
  5
50
100
AcDbSymbolTableRecord
100
AcDbLayerTableRecord
  2
0
 70
0
  6
CONTINUOUS
  0
LAYER
  5
51
100
AcDbSymbolTableRecord
100
AcDbLayerTableRecord
  2
Layer_1
 70
0
  6
CONTINUOUS
  0
ENDTAB
  0
TABLE
  2
STYLE
  5
3
330
0
100
AcDbSymbolTable
 70
     1
  0
STYLE
  5
11
330
3
100
AcDbSymbolTableRecord
100
AcDbTextStyleTableRecord
  2
STANDARD
 70
     0
 40
0.0
 41
1.0
 50
0.0
 71
     0
 42
2.5
  3
txt
  4

  0
ENDTAB
  0
TABLE
  2
VIEW
  5
6
330
0
100
AcDbSymbolTable
 70
     0
  0
ENDTAB
  0
TABLE
  2
UCS
  5
7
330
0
100
AcDbSymbolTable
 70
     0
  0
ENDTAB
  0
TABLE
  2
APPID
  5
9
330
0
100
AcDbSymbolTable
 70
     2
  0
APPID
  5
12
330
9
100
AcDbSymbolTableRecord
100
AcDbRegAppTableRecord
  2
ACAD
 70
     0
  0
ENDTAB
  0
TABLE
  2
DIMSTYLE
  5
A
330
0
100
AcDbSymbolTable
 70
     1
  0
DIMSTYLE
105
27
330
A
100
AcDbSymbolTableRecord
100
AcDbDimStyleTableRecord
  2
ISO-25
 70
     0
  3

  4

  5

  6

  7

 40
1.0
 41
2.5
 42
0.625
 43
3.75
 44
1.25
 45
0.0
 46
0.0
 47
0.0
 48
0.0
140
2.5
141
2.5
142
0.0
143
0.03937007874016
144
1.0
145
0.0
146
1.0
147
0.625
 71
     0
 72
     0
 73
     0
 74
     0
 75
     0
 76
     0
 77
     1
 78
     8
170
     0
171
     3
172
     1
173
     0
174
     0
175
     0
176
     0
177
     0
178
     0
270
     2
271
     2
272
     2
273
     2
274
     3
340
11
275
     0
280
     0
281
     0
282
     0
283
     0
284
     8
285
     0
286
     0
287
     3
288
     0
  0
ENDTAB
  0
TABLE
  2
BLOCK_RECORD
  5
1
330
0
100
AcDbSymbolTable
 70
     1
  0
BLOCK_RECORD
  5
1F
330
1
100
AcDbSymbolTableRecord
100
AcDbBlockTableRecord
  2
*MODEL_SPACE
  0
BLOCK_RECORD
  5
1B
330
1
100
AcDbSymbolTableRecord
100
AcDbBlockTableRecord
  2
*PAPER_SPACE
  0
ENDTAB
  0
ENDSEC
  0
SECTION
  2
BLOCKS
  0
BLOCK
  5
20
330
1F
100
AcDbEntity
  8
0
100
AcDbBlockBegin
  2
*MODEL_SPACE
 70
     0
 10
0.0
 20
0.0
 30
0.0
  3
*MODEL_SPACE
  1

  0
ENDBLK
  5
21
330
1F
100
AcDbEntity
  8
0
100
AcDbBlockEnd
  0
BLOCK
  5
1C
330
1B
100
AcDbEntity
 67
     1
  8
0
100
AcDbBlockBegin
  2
*PAPER_SPACE
  1

  0
ENDBLK
  5
1D
330
1B
100
AcDbEntity
 67
     1
  8
0
100
AcDbBlockEnd
  0
ENDSEC
  0
SECTION
  2
ENTITIES
  0
LWPOLYLINE
  5
100
100
AcDbEntity
  8
Layer_1
 62
7
100
AcDbPolyline
 90
12
 70
1
 10
217.878100
 20
30.092120
 30
0.0
 10
230.855950
 20
30.092120
 30
0.0
 10
230.855950
 20
0.249550
 30
0.0
 10
292.750340
 20
0.249550
 30
0.0
 10
292.750340
 20
239.788783
 30
0.0
 10
229.857660
 20
239.788783
 30
0.0
 10
229.857660
 20
259.750403
 30
0.0
 10
219.874710
 20
259.750403
 30
0.0
 10
219.874710
 20
239.788783
 30
0.0
 10
0.249547
 20
239.788783
 30
0.0
 10
0.249547
 20
0.249550
 30
0.0
 10
217.878100
 20
0.249550
 30
0.0
  0
LWPOLYLINE
  5
101
100
AcDbEntity
  8
Layer_1
 62
7
100
AcDbPolyline
 90
30
 70
1
 10
224.573680
 20
251.925433
 30
0.0
 10
224.195310
 20
252.006133
 30
0.0
 10
223.842900
 20
252.162663
 30
0.0
 10
223.530490
 20
252.389373
 30
0.0
 10
223.272040
 20
252.676813
 30
0.0
 10
223.079240
 20
253.011033
 30
0.0
 10
222.959630
 20
253.377303
 30
0.0
 10
222.919630
 20
253.761593
 30
0.0
 10
222.959630
 20
254.145833
 30
0.0
 10
223.079240
 20
254.512143
 30
0.0
 10
223.272040
 20
254.846363
 30
0.0
 10
223.530490
 20
255.133803
 30
0.0
 10
223.842900
 20
255.360513
 30
0.0
 10
224.195310
 20
255.517043
 30
0.0
 10
224.573680
 20
255.597743
 30
0.0
 10
224.959020
 20
255.597743
 30
0.0
 10
225.337390
 20
255.517043
 30
0.0
 10
225.689790
 20
255.360513
 30
0.0
 10
226.002210
 20
255.133803
 30
0.0
 10
226.260660
 20
254.846363
 30
0.0
 10
226.453470
 20
254.512143
 30
0.0
 10
226.573450
 20
254.145833
 30
0.0
 10
226.613450
 20
253.761593
 30
0.0
 10
226.573450
 20
253.377303
 30
0.0
 10
226.453470
 20
253.011033
 30
0.0
 10
226.260660
 20
252.676813
 30
0.0
 10
226.002210
 20
252.389373
 30
0.0
 10
225.689790
 20
252.162663
 30
0.0
 10
225.337390
 20
252.006133
 30
0.0
 10
224.959020
 20
251.925433
 30
0.0
  0
LWPOLYLINE
  5
102
100
AcDbEntity
  8
Layer_1
 62
7
100
AcDbPolyline
 90
30
 70
1
 10
224.573680
 20
241.944643
 30
0.0
 10
224.195310
 20
242.025343
 30
0.0
 10
223.842900
 20
242.181913
 30
0.0
 10
223.530490
 20
242.408623
 30
0.0
 10
223.272040
 20
242.696063
 30
0.0
 10
223.079240
 20
243.030283
 30
0.0
 10
222.959630
 20
243.396553
 30
0.0
 10
222.919630
 20
243.780803
 30
0.0
 10
222.959630
 20
244.165083
 30
0.0
 10
223.079240
 20
244.531353
 30
0.0
 10
223.272040
 20
244.865573
 30
0.0
 10
223.530490
 20
245.153013
 30
0.0
 10
223.842900
 20
245.379723
 30
0.0
 10
224.195310
 20
245.536293
 30
0.0
 10
224.573680
 20
245.616993
 30
0.0
 10
224.959020
 20
245.616993
 30
0.0
 10
225.337390
 20
245.536293
 30
0.0
 10
225.689790
 20
245.379723
 30
0.0
 10
226.002210
 20
245.153013
 30
0.0
 10
226.260660
 20
244.865573
 30
0.0
 10
226.453470
 20
244.531353
 30
0.0
 10
226.573450
 20
244.165083
 30
0.0
 10
226.613450
 20
243.780803
 30
0.0
 10
226.573450
 20
243.396553
 30
0.0
 10
226.453470
 20
243.030283
 30
0.0
 10
226.260660
 20
242.696063
 30
0.0
 10
226.002210
 20
242.408623
 30
0.0
 10
225.689790
 20
242.181913
 30
0.0
 10
225.337390
 20
242.025343
 30
0.0
 10
224.959020
 20
241.944643
 30
0.0
  0
LWPOLYLINE
  5
103
100
AcDbEntity
  8
Layer_1
 62
7
100
AcDbPolyline
 90
30
 70
1
 10
213.240040
 20
233.409043
 30
0.0
 10
212.953650
 20
233.469743
 30
0.0
 10
212.687270
 20
233.588563
 30
0.0
 10
212.450710
 20
233.760203
 30
0.0
 10
212.254880
 20
233.976753
 30
0.0
 10
212.109240
 20
234.230253
 30
0.0
 10
212.019440
 20
234.507903
 30
0.0
 10
211.989240
 20
234.798363
 30
0.0
 10
212.019440
 20
235.088833
 30
0.0
 10
212.109240
 20
235.366103
 30
0.0
 10
212.254880
 20
235.619603
 30
0.0
 10
212.450710
 20
235.836153
 30
0.0
 10
212.687270
 20
236.007793
 30
0.0
 10
212.953650
 20
236.126613
 30
0.0
 10
213.240040
 20
236.187313
 30
0.0
 10
213.531690
 20
236.187313
 30
0.0
 10
213.818080
 20
236.126613
 30
0.0
 10
214.084460
 20
236.007793
 30
0.0
 10
214.321020
 20
235.836153
 30
0.0
 10
214.516850
 20
235.619603
 30
0.0
 10
214.662490
 20
235.366103
 30
0.0
 10
214.752290
 20
235.088833
 30
0.0
 10
214.782490
 20
234.798363
 30
0.0
 10
214.752290
 20
234.507903
 30
0.0
 10
214.662490
 20
234.230253
 30
0.0
 10
214.516850
 20
233.976753
 30
0.0
 10
214.321020
 20
233.760203
 30
0.0
 10
214.084460
 20
233.588563
 30
0.0
 10
213.818080
 20
233.469743
 30
0.0
 10
213.531690
 20
233.409043
 30
0.0
  0
LWPOLYLINE
  5
104
100
AcDbEntity
  8
Layer_1
 62
7
100
AcDbPolyline
 90
30
 70
1
 10
4.595827
 20
233.409043
 30
0.0
 10
4.310197
 20
233.469743
 30
0.0
 10
4.043067
 20
233.588563
 30
0.0
 10
3.806497
 20
233.760203
 30
0.0
 10
3.611057
 20
233.976753
 30
0.0
 10
3.465037
 20
234.230253
 30
0.0
 10
3.374937
 20
234.507903
 30
0.0
 10
3.344737
 20
234.798363
 30
0.0
 10
3.374937
 20
235.088833
 30
0.0
 10
3.465037
 20
235.366103
 30
0.0
 10
3.611057
 20
235.619603
 30
0.0
 10
3.806497
 20
235.836153
 30
0.0
 10
4.043067
 20
236.007793
 30
0.0
 10
4.310197
 20
236.126613
 30
0.0
 10
4.595827
 20
236.187313
 30
0.0
 10
4.887857
 20
236.187313
 30
0.0
 10
5.173487
 20
236.126613
 30
0.0
 10
5.440247
 20
236.007793
 30
0.0
 10
5.676817
 20
235.836153
 30
0.0
 10
5.872267
 20
235.619603
 30
0.0
 10
6.018287
 20
235.366103
 30
0.0
 10
6.108487
 20
235.088833
 30
0.0
 10
6.138687
 20
234.798363
 30
0.0
 10
6.108487
 20
234.507903
 30
0.0
 10
6.018287
 20
234.230253
 30
0.0
 10
5.872267
 20
233.976753
 30
0.0
 10
5.676817
 20
233.760203
 30
0.0
 10
5.440247
 20
233.588563
 30
0.0
 10
5.173487
 20
233.469743
 30
0.0
 10
4.887857
 20
233.409043
 30
0.0
  0
LWPOLYLINE
  5
105
100
AcDbEntity
  8
Layer_1
 62
7
100
AcDbPolyline
 90
30
 70
1
 10
172.309860
 20
230.414803
 30
0.0
 10
172.023480
 20
230.475503
 30
0.0
 10
171.757100
 20
230.594313
 30
0.0
 10
171.520530
 20
230.765963
 30
0.0
 10
171.324710
 20
230.982503
 30
0.0
 10
171.179070
 20
231.236013
 30
0.0
 10
171.089270
 20
231.513663
 30
0.0
 10
171.059070
 20
231.804123
 30
0.0
 10
171.089270
 20
232.094583
 30
0.0
 10
171.179070
 20
232.372243
 30
0.0
 10
171.324710
 20
232.625743
 30
0.0
 10
171.520530
 20
232.842283
 30
0.0
 10
171.757100
 20
233.013933
 30
0.0
 10
172.023480
 20
233.132753
 30
0.0
 10
172.309860
 20
233.193453
 30
0.0
 10
172.601520
 20
233.193453
 30
0.0
 10
172.887910
 20
233.132753
 30
0.0
 10
173.154280
 20
233.013933
 30
0.0
 10
173.390850
 20
232.842283
 30
0.0
 10
173.586680
 20
232.625743
 30
0.0
 10
173.732320
 20
232.372243
 30
0.0
 10
173.822120
 20
232.094583
 30
0.0
 10
173.852320
 20
231.804123
 30
0.0
 10
173.822120
 20
231.513663
 30
0.0
 10
173.732320
 20
231.236013
 30
0.0
 10
173.586680
 20
230.982503
 30
0.0
 10
173.390850
 20
230.765963
 30
0.0
 10
173.154280
 20
230.594313
 30
0.0
 10
172.887910
 20
230.475503
 30
0.0
 10
172.601520
 20
230.414803
 30
0.0
  0
LWPOLYLINE
  5
106
100
AcDbEntity
  8
Layer_1
 62
7
100
AcDbPolyline
 90
30
 70
1
 10
240.194040
 20
214.445523
 30
0.0
 10
239.907670
 20
214.506423
 30
0.0
 10
239.641280
 20
214.625163
 30
0.0
 10
239.404720
 20
214.796853
 30
0.0
 10
239.208890
 20
215.013433
 30
0.0
 10
239.063250
 20
215.266933
 30
0.0
 10
238.973450
 20
215.544393
 30
0.0
 10
238.943250
 20
215.834823
 30
0.0
 10
238.973450
 20
216.125243
 30
0.0
 10
239.063250
 20
216.402713
 30
0.0
 10
239.208890
 20
216.656213
 30
0.0
 10
239.404720
 20
216.872833
 30
0.0
 10
239.641280
 20
217.044513
 30
0.0
 10
239.907670
 20
217.163293
 30
0.0
 10
240.194040
 20
217.224193
 30
0.0
 10
240.485700
 20
217.224193
 30
0.0
 10
240.772080
 20
217.163293
 30
0.0
 10
241.038460
 20
217.044513
 30
0.0
 10
241.275040
 20
216.872833
 30
0.0
 10
241.470850
 20
216.656213
 30
0.0
 10
241.616490
 20
216.402713
 30
0.0
 10
241.706290
 20
216.125243
 30
0.0
 10
241.736490
 20
215.834823
 30
0.0
 10
241.706290
 20
215.544393
 30
0.0
 10
241.616490
 20
215.266933
 30
0.0
 10
241.470850
 20
215.013433
 30
0.0
 10
241.275040
 20
214.796853
 30
0.0
 10
241.038460
 20
214.625163
 30
0.0
 10
240.772080
 20
214.506423
 30
0.0
 10
240.485700
 20
214.445523
 30
0.0
  0
LWPOLYLINE
  5
107
100
AcDbEntity
  8
Layer_1
 62
7
100
AcDbPolyline
 90
30
 70
1
 10
140.364360
 20
214.445523
 30
0.0
 10
140.077980
 20
214.506423
 30
0.0
 10
139.811600
 20
214.625163
 30
0.0
 10
139.575030
 20
214.796853
 30
0.0
 10
139.379210
 20
215.013433
 30
0.0
 10
139.233570
 20
215.266933
 30
0.0
 10
139.143770
 20
215.544393
 30
0.0
 10
139.113570
 20
215.834823
 30
0.0
 10
139.143770
 20
216.125243
 30
0.0
 10
139.233570
 20
216.402713
 30
0.0
 10
139.379210
 20
216.656213
 30
0.0
 10
139.575030
 20
216.872833
 30
0.0
 10
139.811600
 20
217.044513
 30
0.0
 10
140.077980
 20
217.163293
 30
0.0
 10
140.364360
 20
217.224193
 30
0.0
 10
140.656020
 20
217.224193
 30
0.0
 10
140.942390
 20
217.163293
 30
0.0
 10
141.208780
 20
217.044513
 30
0.0
 10
141.445350
 20
216.872833
 30
0.0
 10
141.641170
 20
216.656213
 30
0.0
 10
141.786810
 20
216.402713
 30
0.0
 10
141.876610
 20
216.125243
 30
0.0
 10
141.906810
 20
215.834823
 30
0.0
 10
141.876610
 20
215.544393
 30
0.0
 10
141.786810
 20
215.266933
 30
0.0
 10
141.641170
 20
215.013433
 30
0.0
 10
141.445350
 20
214.796853
 30
0.0
 10
141.208780
 20
214.625163
 30
0.0
 10
140.942390
 20
214.506423
 30
0.0
 10
140.656020
 20
214.445523
 30
0.0
  0
LWPOLYLINE
  5
108
100
AcDbEntity
  8
Layer_1
 62
7
100
AcDbPolyline
 90
30
 70
1
 10
40.534497
 20
214.445523
 30
0.0
 10
40.248877
 20
214.506423
 30
0.0
 10
39.982127
 20
214.625163
 30
0.0
 10
39.745547
 20
214.796853
 30
0.0
 10
39.550107
 20
215.013433
 30
0.0
 10
39.404087
 20
215.266933
 30
0.0
 10
39.313987
 20
215.544393
 30
0.0
 10
39.283787
 20
215.834823
 30
0.0
 10
39.313987
 20
216.125243
 30
0.0
 10
39.404087
 20
216.402713
 30
0.0
 10
39.550107
 20
216.656213
 30
0.0
 10
39.745547
 20
216.872833
 30
0.0
 10
39.982127
 20
217.044513
 30
0.0
 10
40.248877
 20
217.163293
 30
0.0
 10
40.534497
 20
217.224193
 30
0.0
 10
40.826537
 20
217.224193
 30
0.0
 10
41.112157
 20
217.163293
 30
0.0
 10
41.379297
 20
217.044513
 30
0.0
 10
41.615877
 20
216.872833
 30
0.0
 10
41.811307
 20
216.656213
 30
0.0
 10
41.957327
 20
216.402713
 30
0.0
 10
42.047527
 20
216.125243
 30
0.0
 10
42.077727
 20
215.834823
 30
0.0
 10
42.047527
 20
215.544393
 30
0.0
 10
41.957327
 20
215.266933
 30
0.0
 10
41.811307
 20
215.013433
 30
0.0
 10
41.615877
 20
214.796853
 30
0.0
 10
41.379297
 20
214.625163
 30
0.0
 10
41.112157
 20
214.506423
 30
0.0
 10
40.826537
 20
214.445523
 30
0.0
  0
LWPOLYLINE
  5
109
100
AcDbEntity
  8
Layer_1
 62
7
100
AcDbPolyline
 90
30
 70
1
 10
90.449587
 20
214.445523
 30
0.0
 10
90.163207
 20
214.506423
 30
0.0
 10
89.896827
 20
214.625163
 30
0.0
 10
89.660257
 20
214.796853
 30
0.0
 10
89.464437
 20
215.013433
 30
0.0
 10
89.318787
 20
215.266933
 30
0.0
 10
89.228987
 20
215.544393
 30
0.0
 10
89.198787
 20
215.834823
 30
0.0
 10
89.228987
 20
216.125243
 30
0.0
 10
89.318787
 20
216.402713
 30
0.0
 10
89.464437
 20
216.656213
 30
0.0
 10
89.660257
 20
216.872833
 30
0.0
 10
89.896827
 20
217.044513
 30
0.0
 10
90.163207
 20
217.163293
 30
0.0
 10
90.449587
 20
217.224193
 30
0.0
 10
90.741247
 20
217.224193
 30
0.0
 10
91.027617
 20
217.163293
 30
0.0
 10
91.293987
 20
217.044513
 30
0.0
 10
91.530567
 20
216.872833
 30
0.0
 10
91.726387
 20
216.656213
 30
0.0
 10
91.872027
 20
216.402713
 30
0.0
 10
91.961827
 20
216.125243
 30
0.0
 10
91.992027
 20
215.834823
 30
0.0
 10
91.961827
 20
215.544393
 30
0.0
 10
91.872027
 20
215.266933
 30
0.0
 10
91.726387
 20
215.013433
 30
0.0
 10
91.530567
 20
214.796853
 30
0.0
 10
91.293987
 20
214.625163
 30
0.0
 10
91.027617
 20
214.506423
 30
0.0
 10
90.741247
 20
214.445523
 30
0.0
  0
LWPOLYLINE
  5
10a
100
AcDbEntity
  8
Layer_1
 62
7
100
AcDbPolyline
 90
30
 70
1
 10
190.279200
 20
214.445523
 30
0.0
 10
189.992820
 20
214.506423
 30
0.0
 10
189.726440
 20
214.625163
 30
0.0
 10
189.489880
 20
214.796853
 30
0.0
 10
189.294050
 20
215.013433
 30
0.0
 10
189.148410
 20
215.266933
 30
0.0
 10
189.058610
 20
215.544393
 30
0.0
 10
189.028410
 20
215.834823
 30
0.0
 10
189.058610
 20
216.125243
 30
0.0
 10
189.148410
 20
216.402713
 30
0.0
 10
189.294050
 20
216.656213
 30
0.0
 10
189.489880
 20
216.872833
 30
0.0
 10
189.726440
 20
217.044513
 30
0.0
 10
189.992820
 20
217.163293
 30
0.0
 10
190.279200
 20
217.224193
 30
0.0
 10
190.570860
 20
217.224193
 30
0.0
 10
190.857240
 20
217.163293
 30
0.0
 10
191.123620
 20
217.044513
 30
0.0
 10
191.360190
 20
216.872833
 30
0.0
 10
191.556010
 20
216.656213
 30
0.0
 10
191.701650
 20
216.402713
 30
0.0
 10
191.791450
 20
216.125243
 30
0.0
 10
191.821650
 20
215.834823
 30
0.0
 10
191.791450
 20
215.544393
 30
0.0
 10
191.701650
 20
215.266933
 30
0.0
 10
191.556010
 20
215.013433
 30
0.0
 10
191.360190
 20
214.796853
 30
0.0
 10
191.123620
 20
214.625163
 30
0.0
 10
190.857240
 20
214.506423
 30
0.0
 10
190.570860
 20
214.445523
 30
0.0
  0
LWPOLYLINE
  5
10b
100
AcDbEntity
  8
Layer_1
 62
7
100
AcDbPolyline
 90
30
 70
1
 10
172.309860
 20
208.457043
 30
0.0
 10
172.023480
 20
208.517943
 30
0.0
 10
171.757100
 20
208.636713
 30
0.0
 10
171.520530
 20
208.808403
 30
0.0
 10
171.324710
 20
209.024983
 30
0.0
 10
171.179070
 20
209.278483
 30
0.0
 10
171.089270
 20
209.555953
 30
0.0
 10
171.059070
 20
209.846373
 30
0.0
 10
171.089270
 20
210.136803
 30
0.0
 10
171.179070
 20
210.414263
 30
0.0
 10
171.324710
 20
210.667763
 30
0.0
 10
171.520530
 20
210.884343
 30
0.0
 10
171.757100
 20
211.056033
 30
0.0
 10
172.023480
 20
211.174813
 30
0.0
 10
172.309860
 20
211.235713
 30
0.0
 10
172.601520
 20
211.235713
 30
0.0
 10
172.887910
 20
211.174813
 30
0.0
 10
173.154280
 20
211.056033
 30
0.0
 10
173.390850
 20
210.884343
 30
0.0
 10
173.586680
 20
210.667763
 30
0.0
 10
173.732320
 20
210.414263
 30
0.0
 10
173.822120
 20
210.136803
 30
0.0
 10
173.852320
 20
209.846373
 30
0.0
 10
173.822120
 20
209.555953
 30
0.0
 10
173.732320
 20
209.278483
 30
0.0
 10
173.586680
 20
209.024983
 30
0.0
 10
173.390850
 20
208.808403
 30
0.0
 10
173.154280
 20
208.636713
 30
0.0
 10
172.887910
 20
208.517943
 30
0.0
 10
172.601520
 20
208.457043
 30
0.0
  0
LWPOLYLINE
  5
10c
100
AcDbEntity
  8
Layer_1
 62
7
100
AcDbPolyline
 90
30
 70
1
 10
3.597547
 20
204.464723
 30
0.0
 10
3.311927
 20
204.525623
 30
0.0
 10
3.045167
 20
204.644403
 30
0.0
 10
2.808607
 20
204.816083
 30
0.0
 10
2.613157
 20
205.032703
 30
0.0
 10
2.467137
 20
205.286213
 30
0.0
 10
2.377037
 20
205.563673
 30
0.0
 10
2.346837
 20
205.854093
 30
0.0
 10
2.377037
 20
206.144523
 30
0.0
 10
2.467137
 20
206.421983
 30
0.0
 10
2.613157
 20
206.675483
 30
0.0
 10
2.808607
 20
206.892103
 30
0.0
 10
3.045167
 20
207.063793
 30
0.0
 10
3.311927
 20
207.182573
 30
0.0
 10
3.597547
 20
207.243473
 30
0.0
 10
3.889577
 20
207.243473
 30
0.0
 10
4.175197
 20
207.182573
 30
0.0
 10
4.442337
 20
207.063793
 30
0.0
 10
4.678907
 20
206.892103
 30
0.0
 10
4.874357
 20
206.675483
 30
0.0
 10
5.020367
 20
206.421983
 30
0.0
 10
5.110467
 20
206.144523
 30
0.0
 10
5.140667
 20
205.854093
 30
0.0
 10
5.110467
 20
205.563673
 30
0.0
 10
5.020367
 20
205.286213
 30
0.0
 10
4.874357
 20
205.032703
 30
0.0
 10
4.678907
 20
204.816083
 30
0.0
 10
4.442337
 20
204.644403
 30
0.0
 10
4.175197
 20
204.525623
 30
0.0
 10
3.889577
 20
204.464723
 30
0.0
  0
LWPOLYLINE
  5
10d
100
AcDbEntity
  8
Layer_1
 62
7
100
AcDbPolyline
 90
30
 70
1
 10
290.108840
 20
204.464723
 30
0.0
 10
289.822470
 20
204.525623
 30
0.0
 10
289.556090
 20
204.644403
 30
0.0
 10
289.319520
 20
204.816083
 30
0.0
 10
289.123690
 20
205.032703
 30
0.0
 10
288.978050
 20
205.286213
 30
0.0
 10
288.888250
 20
205.563673
 30
0.0
 10
288.858050
 20
205.854093
 30
0.0
 10
288.888250
 20
206.144523
 30
0.0
 10
288.978050
 20
206.421983
 30
0.0
 10
289.123690
 20
206.675483
 30
0.0
 10
289.319520
 20
206.892103
 30
0.0
 10
289.556090
 20
207.063793
 30
0.0
 10
289.822470
 20
207.182573
 30
0.0
 10
290.108840
 20
207.243473
 30
0.0
 10
290.400500
 20
207.243473
 30
0.0
 10
290.686880
 20
207.182573
 30
0.0
 10
290.953260
 20
207.063793
 30
0.0
 10
291.189840
 20
206.892103
 30
0.0
 10
291.385650
 20
206.675483
 30
0.0
 10
291.531300
 20
206.421983
 30
0.0
 10
291.621100
 20
206.144523
 30
0.0
 10
291.651300
 20
205.854093
 30
0.0
 10
291.621100
 20
205.563673
 30
0.0
 10
291.531300
 20
205.286213
 30
0.0
 10
291.385650
 20
205.032703
 30
0.0
 10
291.189840
 20
204.816083
 30
0.0
 10
290.953260
 20
204.644403
 30
0.0
 10
290.686880
 20
204.525623
 30
0.0
 10
290.400500
 20
204.464723
 30
0.0
  0
LWPOLYLINE
  5
10e
100
AcDbEntity
  8
Layer_1
 62
7
100
AcDbPolyline
 90
30
 70
1
 10
290.108840
 20
154.560710
 30
0.0
 10
289.822470
 20
154.621510
 30
0.0
 10
289.556090
 20
154.740560
 30
0.0
 10
289.319520
 20
154.912130
 30
0.0
 10
289.123690
 20
155.128670
 30
0.0
 10
288.978050
 20
155.382250
 30
0.0
 10
288.888250
 20
155.660020
 30
0.0
 10
288.858050
 20
155.950630
 30
0.0
 10
288.888250
 20
156.241240
 30
0.0
 10
288.978050
 20
156.518630
 30
0.0
 10
289.123690
 20
156.772210
 30
0.0
 10
289.319520
 20
156.988750
 30
0.0
 10
289.556090
 20
157.160320
 30
0.0
 10
289.822470
 20
157.278990
 30
0.0
 10
290.108840
 20
157.339790
 30
0.0
 10
290.400500
 20
157.339790
 30
0.0
 10
290.686880
 20
157.278990
 30
0.0
 10
290.953260
 20
157.160320
 30
0.0
 10
291.189840
 20
156.988750
 30
0.0
 10
291.385650
 20
156.772210
 30
0.0
 10
291.531300
 20
156.518630
 30
0.0
 10
291.621100
 20
156.241240
 30
0.0
 10
291.651300
 20
155.950630
 30
0.0
 10
291.621100
 20
155.660020
 30
0.0
 10
291.531300
 20
155.382250
 30
0.0
 10
291.385650
 20
155.128670
 30
0.0
 10
291.189840
 20
154.912130
 30
0.0
 10
290.953260
 20
154.740560
 30
0.0
 10
290.686880
 20
154.621510
 30
0.0
 10
290.400500
 20
154.560710
 30
0.0
  0
LWPOLYLINE
  5
10f
100
AcDbEntity
  8
Layer_1
 62
7
100
AcDbPolyline
 90
30
 70
1
 10
3.597547
 20
154.560710
 30
0.0
 10
3.311927
 20
154.621510
 30
0.0
 10
3.045167
 20
154.740560
 30
0.0
 10
2.808607
 20
154.912130
 30
0.0
 10
2.613157
 20
155.128670
 30
0.0
 10
2.467137
 20
155.382250
 30
0.0
 10
2.377037
 20
155.660020
 30
0.0
 10
2.346837
 20
155.950630
 30
0.0
 10
2.377037
 20
156.241240
 30
0.0
 10
2.467137
 20
156.518630
 30
0.0
 10
2.613157
 20
156.772210
 30
0.0
 10
2.808607
 20
156.988750
 30
0.0
 10
3.045167
 20
157.160320
 30
0.0
 10
3.311927
 20
157.278990
 30
0.0
 10
3.597547
 20
157.339790
 30
0.0
 10
3.889577
 20
157.339790
 30
0.0
 10
4.175197
 20
157.278990
 30
0.0
 10
4.442337
 20
157.160320
 30
0.0
 10
4.678907
 20
156.988750
 30
0.0
 10
4.874357
 20
156.772210
 30
0.0
 10
5.020367
 20
156.518630
 30
0.0
 10
5.110467
 20
156.241240
 30
0.0
 10
5.140667
 20
155.950630
 30
0.0
 10
5.110467
 20
155.660020
 30
0.0
 10
5.020367
 20
155.382250
 30
0.0
 10
4.874357
 20
155.128670
 30
0.0
 10
4.678907
 20
154.912130
 30
0.0
 10
4.442337
 20
154.740560
 30
0.0
 10
4.175197
 20
154.621510
 30
0.0
 10
3.889577
 20
154.560710
 30
0.0
  0
LWPOLYLINE
  5
110
100
AcDbEntity
  8
Layer_1
 62
7
100
AcDbPolyline
 90
30
 70
1
 10
131.701160
 20
127.920970
 30
0.0
 10
131.068220
 20
128.055510
 30
0.0
 10
130.477240
 20
128.318160
 30
0.0
 10
129.954140
 20
128.698380
 30
0.0
 10
129.520880
 20
129.179460
 30
0.0
 10
129.197530
 20
129.739410
 30
0.0
 10
128.997930
 20
130.354230
 30
0.0
 10
128.930030
 20
130.997970
 30
0.0
 10
128.997930
 20
131.641740
 30
0.0
 10
129.197530
 20
132.256560
 30
0.0
 10
129.520880
 20
132.816480
 30
0.0
 10
129.954140
 20
133.297560
 30
0.0
 10
130.477240
 20
133.677810
 30
0.0
 10
131.068220
 20
133.940460
 30
0.0
 10
131.701160
 20
134.075000
 30
0.0
 10
132.348050
 20
134.075000
 30
0.0
 10
132.980960
 20
133.940460
 30
0.0
 10
133.571970
 20
133.677810
 30
0.0
 10
134.095070
 20
133.297560
 30
0.0
 10
134.528330
 20
132.816480
 30
0.0
 10
134.851690
 20
132.256560
 30
0.0
 10
135.051280
 20
131.641740
 30
0.0
 10
135.119280
 20
130.997970
 30
0.0
 10
135.051280
 20
130.354230
 30
0.0
 10
134.851690
 20
129.739410
 30
0.0
 10
134.528330
 20
129.179460
 30
0.0
 10
134.095070
 20
128.698380
 30
0.0
 10
133.571970
 20
128.318160
 30
0.0
 10
132.980960
 20
128.055510
 30
0.0
 10
132.348050
 20
127.920970
 30
0.0
  0
LWPOLYLINE
  5
111
100
AcDbEntity
  8
Layer_1
 62
7
100
AcDbPolyline
 90
30
 70
1
 10
90.449587
 20
124.618290
 30
0.0
 10
90.163207
 20
124.679090
 30
0.0
 10
89.896827
 20
124.798140
 30
0.0
 10
89.660257
 20
124.969710
 30
0.0
 10
89.464437
 20
125.186250
 30
0.0
 10
89.318787
 20
125.439830
 30
0.0
 10
89.228987
 20
125.717590
 30
0.0
 10
89.198787
 20
126.008210
 30
0.0
 10
89.228987
 20
126.298820
 30
0.0
 10
89.318787
 20
126.576210
 30
0.0
 10
89.464437
 20
126.829790
 30
0.0
 10
89.660257
 20
127.046330
 30
0.0
 10
89.896827
 20
127.217900
 30
0.0
 10
90.163207
 20
127.336570
 30
0.0
 10
90.449587
 20
127.397370
 30
0.0
 10
90.741247
 20
127.397370
 30
0.0
 10
91.027617
 20
127.336570
 30
0.0
 10
91.293987
 20
127.217900
 30
0.0
 10
91.530567
 20
127.046330
 30
0.0
 10
91.726387
 20
126.829790
 30
0.0
 10
91.872027
 20
126.576210
 30
0.0
 10
91.961827
 20
126.298820
 30
0.0
 10
91.992027
 20
126.008210
 30
0.0
 10
91.961827
 20
125.717590
 30
0.0
 10
91.872027
 20
125.439830
 30
0.0
 10
91.726387
 20
125.186250
 30
0.0
 10
91.530567
 20
124.969710
 30
0.0
 10
91.293987
 20
124.798140
 30
0.0
 10
91.027617
 20
124.679090
 30
0.0
 10
90.741247
 20
124.618290
 30
0.0
  0
LWPOLYLINE
  5
112
100
AcDbEntity
  8
Layer_1
 62
7
100
AcDbPolyline
 90
30
 70
1
 10
190.279200
 20
124.618290
 30
0.0
 10
189.992820
 20
124.679090
 30
0.0
 10
189.726440
 20
124.798140
 30
0.0
 10
189.489880
 20
124.969710
 30
0.0
 10
189.294050
 20
125.186250
 30
0.0
 10
189.148410
 20
125.439830
 30
0.0
 10
189.058610
 20
125.717590
 30
0.0
 10
189.028410
 20
126.008210
 30
0.0
 10
189.058610
 20
126.298820
 30
0.0
 10
189.148410
 20
126.576210
 30
0.0
 10
189.294050
 20
126.829790
 30
0.0
 10
189.489880
 20
127.046330
 30
0.0
 10
189.726440
 20
127.217900
 30
0.0
 10
189.992820
 20
127.336570
 30
0.0
 10
190.279200
 20
127.397370
 30
0.0
 10
190.570860
 20
127.397370
 30
0.0
 10
190.857240
 20
127.336570
 30
0.0
 10
191.123620
 20
127.217900
 30
0.0
 10
191.360190
 20
127.046330
 30
0.0
 10
191.556010
 20
126.829790
 30
0.0
 10
191.701650
 20
126.576210
 30
0.0
 10
191.791450
 20
126.298820
 30
0.0
 10
191.821650
 20
126.008210
 30
0.0
 10
191.791450
 20
125.717590
 30
0.0
 10
191.701650
 20
125.439830
 30
0.0
 10
191.556010
 20
125.186250
 30
0.0
 10
191.360190
 20
124.969710
 30
0.0
 10
191.123620
 20
124.798140
 30
0.0
 10
190.857240
 20
124.679090
 30
0.0
 10
190.570860
 20
124.618290
 30
0.0
  0
LWPOLYLINE
  5
113
100
AcDbEntity
  8
Layer_1
 62
7
100
AcDbPolyline
 90
30
 70
1
 10
40.534497
 20
124.618290
 30
0.0
 10
40.248877
 20
124.679090
 30
0.0
 10
39.982127
 20
124.798140
 30
0.0
 10
39.745547
 20
124.969710
 30
0.0
 10
39.550107
 20
125.186250
 30
0.0
 10
39.404087
 20
125.439830
 30
0.0
 10
39.313987
 20
125.717590
 30
0.0
 10
39.283787
 20
126.008210
 30
0.0
 10
39.313987
 20
126.298820
 30
0.0
 10
39.404087
 20
126.576210
 30
0.0
 10
39.550107
 20
126.829790
 30
0.0
 10
39.745547
 20
127.046330
 30
0.0
 10
39.982127
 20
127.217900
 30
0.0
 10
40.248877
 20
127.336570
 30
0.0
 10
40.534497
 20
127.397370
 30
0.0
 10
40.826537
 20
127.397370
 30
0.0
 10
41.112157
 20
127.336570
 30
0.0
 10
41.379297
 20
127.217900
 30
0.0
 10
41.615877
 20
127.046330
 30
0.0
 10
41.811307
 20
126.829790
 30
0.0
 10
41.957327
 20
126.576210
 30
0.0
 10
42.047527
 20
126.298820
 30
0.0
 10
42.077727
 20
126.008210
 30
0.0
 10
42.047527
 20
125.717590
 30
0.0
 10
41.957327
 20
125.439830
 30
0.0
 10
41.811307
 20
125.186250
 30
0.0
 10
41.615877
 20
124.969710
 30
0.0
 10
41.379297
 20
124.798140
 30
0.0
 10
41.112157
 20
124.679090
 30
0.0
 10
40.826537
 20
124.618290
 30
0.0
  0
LWPOLYLINE
  5
114
100
AcDbEntity
  8
Layer_1
 62
7
100
AcDbPolyline
 90
30
 70
1
 10
290.108840
 20
124.618290
 30
0.0
 10
289.822470
 20
124.679090
 30
0.0
 10
289.556090
 20
124.798140
 30
0.0
 10
289.319520
 20
124.969710
 30
0.0
 10
289.123690
 20
125.186250
 30
0.0
 10
288.978050
 20
125.439830
 30
0.0
 10
288.888250
 20
125.717590
 30
0.0
 10
288.858050
 20
126.008210
 30
0.0
 10
288.888250
 20
126.298820
 30
0.0
 10
288.978050
 20
126.576210
 30
0.0
 10
289.123690
 20
126.829790
 30
0.0
 10
289.319520
 20
127.046330
 30
0.0
 10
289.556090
 20
127.217900
 30
0.0
 10
289.822470
 20
127.336570
 30
0.0
 10
290.108840
 20
127.397370
 30
0.0
 10
290.400500
 20
127.397370
 30
0.0
 10
290.686880
 20
127.336570
 30
0.0
 10
290.953260
 20
127.217900
 30
0.0
 10
291.189840
 20
127.046330
 30
0.0
 10
291.385650
 20
126.829790
 30
0.0
 10
291.531300
 20
126.576210
 30
0.0
 10
291.621100
 20
126.298820
 30
0.0
 10
291.651300
 20
126.008210
 30
0.0
 10
291.621100
 20
125.717590
 30
0.0
 10
291.531300
 20
125.439830
 30
0.0
 10
291.385650
 20
125.186250
 30
0.0
 10
291.189840
 20
124.969710
 30
0.0
 10
290.953260
 20
124.798140
 30
0.0
 10
290.686880
 20
124.679090
 30
0.0
 10
290.400500
 20
124.618290
 30
0.0
  0
LWPOLYLINE
  5
115
100
AcDbEntity
  8
Layer_1
 62
7
100
AcDbPolyline
 90
30
 70
1
 10
240.194040
 20
124.618290
 30
0.0
 10
239.907670
 20
124.679090
 30
0.0
 10
239.641280
 20
124.798140
 30
0.0
 10
239.404720
 20
124.969710
 30
0.0
 10
239.208890
 20
125.186250
 30
0.0
 10
239.063250
 20
125.439830
 30
0.0
 10
238.973450
 20
125.717590
 30
0.0
 10
238.943250
 20
126.008210
 30
0.0
 10
238.973450
 20
126.298820
 30
0.0
 10
239.063250
 20
126.576210
 30
0.0
 10
239.208890
 20
126.829790
 30
0.0
 10
239.404720
 20
127.046330
 30
0.0
 10
239.641280
 20
127.217900
 30
0.0
 10
239.907670
 20
127.336570
 30
0.0
 10
240.194040
 20
127.397370
 30
0.0
 10
240.485700
 20
127.397370
 30
0.0
 10
240.772080
 20
127.336570
 30
0.0
 10
241.038460
 20
127.217900
 30
0.0
 10
241.275040
 20
127.046330
 30
0.0
 10
241.470850
 20
126.829790
 30
0.0
 10
241.616490
 20
126.576210
 30
0.0
 10
241.706290
 20
126.298820
 30
0.0
 10
241.736490
 20
126.008210
 30
0.0
 10
241.706290
 20
125.717590
 30
0.0
 10
241.616490
 20
125.439830
 30
0.0
 10
241.470850
 20
125.186250
 30
0.0
 10
241.275040
 20
124.969710
 30
0.0
 10
241.038460
 20
124.798140
 30
0.0
 10
240.772080
 20
124.679090
 30
0.0
 10
240.485700
 20
124.618290
 30
0.0
  0
LWPOLYLINE
  5
116
100
AcDbEntity
  8
Layer_1
 62
7
100
AcDbPolyline
 90
30
 70
1
 10
139.687540
 20
117.940140
 30
0.0
 10
139.054610
 20
118.074680
 30
0.0
 10
138.463630
 20
118.337330
 30
0.0
 10
137.940490
 20
118.717620
 30
0.0
 10
137.507270
 20
119.198660
 30
0.0
 10
137.183910
 20
119.758620
 30
0.0
 10
136.984310
 20
120.373400
 30
0.0
 10
136.916410
 20
121.017170
 30
0.0
 10
136.984310
 20
121.660910
 30
0.0
 10
137.183910
 20
122.275770
 30
0.0
 10
137.507270
 20
122.835680
 30
0.0
 10
137.940490
 20
123.316770
 30
0.0
 10
138.463630
 20
123.697020
 30
0.0
 10
139.054610
 20
123.959670
 30
0.0
 10
139.687540
 20
124.094210
 30
0.0
 10
140.334440
 20
124.094210
 30
0.0
 10
140.967340
 20
123.959670
 30
0.0
 10
141.558310
 20
123.697020
 30
0.0
 10
142.081460
 20
123.316770
 30
0.0
 10
142.514720
 20
122.835680
 30
0.0
 10
142.838070
 20
122.275770
 30
0.0
 10
143.037670
 20
121.660910
 30
0.0
 10
143.105570
 20
121.017170
 30
0.0
 10
143.037670
 20
120.373400
 30
0.0
 10
142.838070
 20
119.758620
 30
0.0
 10
142.514720
 20
119.198660
 30
0.0
 10
142.081460
 20
118.717620
 30
0.0
 10
141.558310
 20
118.337330
 30
0.0
 10
140.967340
 20
118.074680
 30
0.0
 10
140.334440
 20
117.940140
 30
0.0
  0
LWPOLYLINE
  5
117
100
AcDbEntity
  8
Layer_1
 62
7
100
AcDbPolyline
 90
30
 70
1
 10
123.714770
 20
117.940140
 30
0.0
 10
123.081870
 20
118.074680
 30
0.0
 10
122.490850
 20
118.337330
 30
0.0
 10
121.967760
 20
118.717620
 30
0.0
 10
121.534500
 20
119.198660
 30
0.0
 10
121.211140
 20
119.758620
 30
0.0
 10
121.011540
 20
120.373400
 30
0.0
 10
120.943640
 20
121.017170
 30
0.0
 10
121.011540
 20
121.660910
 30
0.0
 10
121.211140
 20
122.275770
 30
0.0
 10
121.534500
 20
122.835680
 30
0.0
 10
121.967760
 20
123.316770
 30
0.0
 10
122.490850
 20
123.697020
 30
0.0
 10
123.081870
 20
123.959670
 30
0.0
 10
123.714770
 20
124.094210
 30
0.0
 10
124.361670
 20
124.094210
 30
0.0
 10
124.994600
 20
123.959670
 30
0.0
 10
125.585580
 20
123.697020
 30
0.0
 10
126.108690
 20
123.316770
 30
0.0
 10
126.541950
 20
122.835680
 30
0.0
 10
126.865300
 20
122.275770
 30
0.0
 10
127.064900
 20
121.660910
 30
0.0
 10
127.132800
 20
121.017170
 30
0.0
 10
127.064900
 20
120.373400
 30
0.0
 10
126.865300
 20
119.758620
 30
0.0
 10
126.541950
 20
119.198660
 30
0.0
 10
126.108690
 20
118.717620
 30
0.0
 10
125.585580
 20
118.337330
 30
0.0
 10
124.994600
 20
118.074680
 30
0.0
 10
124.361670
 20
117.940140
 30
0.0
  0
LWPOLYLINE
  5
118
100
AcDbEntity
  8
Layer_1
 62
7
100
AcDbPolyline
 90
30
 70
1
 10
131.825930
 20
109.150070
 30
0.0
 10
131.438590
 20
109.233170
 30
0.0
 10
131.076370
 20
109.394920
 30
0.0
 10
130.756040
 20
109.627710
 30
0.0
 10
130.490410
 20
109.922480
 30
0.0
 10
130.291940
 20
110.265630
 30
0.0
 10
130.170070
 20
110.642780
 30
0.0
 10
130.128170
 20
111.037020
 30
0.0
 10
130.170070
 20
111.431260
 30
0.0
 10
130.291940
 20
111.808410
 30
0.0
 10
130.490410
 20
112.151560
 30
0.0
 10
130.756040
 20
112.446330
 30
0.0
 10
131.076370
 20
112.679120
 30
0.0
 10
131.438590
 20
112.840870
 30
0.0
 10
131.825930
 20
112.923970
 30
0.0
 10
132.223270
 20
112.923970
 30
0.0
 10
132.610580
 20
112.840870
 30
0.0
 10
132.972800
 20
112.679120
 30
0.0
 10
133.293140
 20
112.446330
 30
0.0
 10
133.558770
 20
112.151560
 30
0.0
 10
133.757220
 20
111.808410
 30
0.0
 10
133.879100
 20
111.431260
 30
0.0
 10
133.921000
 20
111.037020
 30
0.0
 10
133.879100
 20
110.642780
 30
0.0
 10
133.757220
 20
110.265630
 30
0.0
 10
133.558770
 20
109.922480
 30
0.0
 10
133.293140
 20
109.627710
 30
0.0
 10
132.972800
 20
109.394920
 30
0.0
 10
132.610580
 20
109.233170
 30
0.0
 10
132.223270
 20
109.150070
 30
0.0
  0
LWPOLYLINE
  5
119
100
AcDbEntity
  8
Layer_1
 62
7
100
AcDbPolyline
 90
30
 70
1
 10
3.597547
 20
104.656670
 30
0.0
 10
3.311927
 20
104.717470
 30
0.0
 10
3.045167
 20
104.836130
 30
0.0
 10
2.808607
 20
105.007700
 30
0.0
 10
2.613157
 20
105.224250
 30
0.0
 10
2.467137
 20
105.477830
 30
0.0
 10
2.377037
 20
105.755210
 30
0.0
 10
2.346837
 20
106.045830
 30
0.0
 10
2.377037
 20
106.336440
 30
0.0
 10
2.467137
 20
106.613830
 30
0.0
 10
2.613157
 20
106.867410
 30
0.0
 10
2.808607
 20
107.083950
 30
0.0
 10
3.045167
 20
107.255520
 30
0.0
 10
3.311927
 20
107.374190
 30
0.0
 10
3.597547
 20
107.434990
 30
0.0
 10
3.889577
 20
107.434990
 30
0.0
 10
4.175197
 20
107.374190
 30
0.0
 10
4.442337
 20
107.255520
 30
0.0
 10
4.678907
 20
107.083950
 30
0.0
 10
4.874357
 20
106.867410
 30
0.0
 10
5.020367
 20
106.613830
 30
0.0
 10
5.110467
 20
106.336440
 30
0.0
 10
5.140667
 20
106.045830
 30
0.0
 10
5.110467
 20
105.755210
 30
0.0
 10
5.020367
 20
105.477830
 30
0.0
 10
4.874357
 20
105.224250
 30
0.0
 10
4.678907
 20
105.007700
 30
0.0
 10
4.442337
 20
104.836130
 30
0.0
 10
4.175197
 20
104.717470
 30
0.0
 10
3.889577
 20
104.656670
 30
0.0
  0
LWPOLYLINE
  5
11a
100
AcDbEntity
  8
Layer_1
 62
7
100
AcDbPolyline
 90
30
 70
1
 10
290.108840
 20
104.656670
 30
0.0
 10
289.822470
 20
104.717470
 30
0.0
 10
289.556090
 20
104.836130
 30
0.0
 10
289.319520
 20
105.007700
 30
0.0
 10
289.123690
 20
105.224250
 30
0.0
 10
288.978050
 20
105.477830
 30
0.0
 10
288.888250
 20
105.755210
 30
0.0
 10
288.858050
 20
106.045830
 30
0.0
 10
288.888250
 20
106.336440
 30
0.0
 10
288.978050
 20
106.613830
 30
0.0
 10
289.123690
 20
106.867410
 30
0.0
 10
289.319520
 20
107.083950
 30
0.0
 10
289.556090
 20
107.255520
 30
0.0
 10
289.822470
 20
107.374190
 30
0.0
 10
290.108840
 20
107.434990
 30
0.0
 10
290.400500
 20
107.434990
 30
0.0
 10
290.686880
 20
107.374190
 30
0.0
 10
290.953260
 20
107.255520
 30
0.0
 10
291.189840
 20
107.083950
 30
0.0
 10
291.385650
 20
106.867410
 30
0.0
 10
291.531300
 20
106.613830
 30
0.0
 10
291.621100
 20
106.336440
 30
0.0
 10
291.651300
 20
106.045830
 30
0.0
 10
291.621100
 20
105.755210
 30
0.0
 10
291.531300
 20
105.477830
 30
0.0
 10
291.385650
 20
105.224250
 30
0.0
 10
291.189840
 20
105.007700
 30
0.0
 10
290.953260
 20
104.836130
 30
0.0
 10
290.686880
 20
104.717470
 30
0.0
 10
290.400500
 20
104.656670
 30
0.0
  0
LWPOLYLINE
  5
11b
100
AcDbEntity
  8
Layer_1
 62
7
100
AcDbPolyline
 90
30
 70
1
 10
290.108840
 20
54.752730
 30
0.0
 10
289.822470
 20
54.813530
 30
0.0
 10
289.556090
 20
54.932200
 30
0.0
 10
289.319520
 20
55.103770
 30
0.0
 10
289.123690
 20
55.320310
 30
0.0
 10
288.978050
 20
55.573890
 30
0.0
 10
288.888250
 20
55.851280
 30
0.0
 10
288.858050
 20
56.141890
 30
0.0
 10
288.888250
 20
56.432500
 30
0.0
 10
288.978050
 20
56.709890
 30
0.0
 10
289.123690
 20
56.963470
 30
0.0
 10
289.319520
 20
57.180010
 30
0.0
 10
289.556090
 20
57.351590
 30
0.0
 10
289.822470
 20
57.470250
 30
0.0
 10
290.108840
 20
57.531050
 30
0.0
 10
290.400500
 20
57.531050
 30
0.0
 10
290.686880
 20
57.470250
 30
0.0
 10
290.953260
 20
57.351590
 30
0.0
 10
291.189840
 20
57.180010
 30
0.0
 10
291.385650
 20
56.963470
 30
0.0
 10
291.531300
 20
56.709890
 30
0.0
 10
291.621100
 20
56.432500
 30
0.0
 10
291.651300
 20
56.141890
 30
0.0
 10
291.621100
 20
55.851280
 30
0.0
 10
291.531300
 20
55.573890
 30
0.0
 10
291.385650
 20
55.320310
 30
0.0
 10
291.189840
 20
55.103770
 30
0.0
 10
290.953260
 20
54.932200
 30
0.0
 10
290.686880
 20
54.813530
 30
0.0
 10
290.400500
 20
54.752730
 30
0.0
  0
LWPOLYLINE
  5
11c
100
AcDbEntity
  8
Layer_1
 62
7
100
AcDbPolyline
 90
30
 70
1
 10
3.597547
 20
54.752730
 30
0.0
 10
3.311927
 20
54.813530
 30
0.0
 10
3.045167
 20
54.932200
 30
0.0
 10
2.808607
 20
55.103770
 30
0.0
 10
2.613157
 20
55.320310
 30
0.0
 10
2.467137
 20
55.573890
 30
0.0
 10
2.377037
 20
55.851280
 30
0.0
 10
2.346837
 20
56.141890
 30
0.0
 10
2.377037
 20
56.432500
 30
0.0
 10
2.467137
 20
56.709890
 30
0.0
 10
2.613157
 20
56.963470
 30
0.0
 10
2.808607
 20
57.180010
 30
0.0
 10
3.045167
 20
57.351590
 30
0.0
 10
3.311927
 20
57.470250
 30
0.0
 10
3.597547
 20
57.531050
 30
0.0
 10
3.889577
 20
57.531050
 30
0.0
 10
4.175197
 20
57.470250
 30
0.0
 10
4.442337
 20
57.351590
 30
0.0
 10
4.678907
 20
57.180010
 30
0.0
 10
4.874357
 20
56.963470
 30
0.0
 10
5.020367
 20
56.709890
 30
0.0
 10
5.110467
 20
56.432500
 30
0.0
 10
5.140667
 20
56.141890
 30
0.0
 10
5.110467
 20
55.851280
 30
0.0
 10
5.020367
 20
55.573890
 30
0.0
 10
4.874357
 20
55.320310
 30
0.0
 10
4.678907
 20
55.103770
 30
0.0
 10
4.442337
 20
54.932200
 30
0.0
 10
4.175197
 20
54.813530
 30
0.0
 10
3.889577
 20
54.752730
 30
0.0
  0
LWPOLYLINE
  5
11d
100
AcDbEntity
  8
Layer_1
 62
7
100
AcDbPolyline
 90
30
 70
1
 10
213.240040
 20
24.810320
 30
0.0
 10
212.953650
 20
24.871120
 30
0.0
 10
212.687270
 20
24.989780
 30
0.0
 10
212.450710
 20
25.161360
 30
0.0
 10
212.254880
 20
25.377900
 30
0.0
 10
212.109240
 20
25.631480
 30
0.0
 10
212.019440
 20
25.908860
 30
0.0
 10
211.989240
 20
26.199480
 30
0.0
 10
212.019440
 20
26.490090
 30
0.0
 10
212.109240
 20
26.767480
 30
0.0
 10
212.254880
 20
27.021060
 30
0.0
 10
212.450710
 20
27.237600
 30
0.0
 10
212.687270
 20
27.409170
 30
0.0
 10
212.953650
 20
27.527840
 30
0.0
 10
213.240040
 20
27.588640
 30
0.0
 10
213.531690
 20
27.588640
 30
0.0
 10
213.818080
 20
27.527840
 30
0.0
 10
214.084460
 20
27.409170
 30
0.0
 10
214.321020
 20
27.237600
 30
0.0
 10
214.516850
 20
27.021060
 30
0.0
 10
214.662490
 20
26.767480
 30
0.0
 10
214.752290
 20
26.490090
 30
0.0
 10
214.782490
 20
26.199480
 30
0.0
 10
214.752290
 20
25.908860
 30
0.0
 10
214.662490
 20
25.631480
 30
0.0
 10
214.516850
 20
25.377900
 30
0.0
 10
214.321020
 20
25.161360
 30
0.0
 10
214.084460
 20
24.989780
 30
0.0
 10
213.818080
 20
24.871120
 30
0.0
 10
213.531690
 20
24.810320
 30
0.0
  0
LWPOLYLINE
  5
11e
100
AcDbEntity
  8
Layer_1
 62
7
100
AcDbPolyline
 90
30
 70
1
 10
40.534497
 20
24.810320
 30
0.0
 10
40.248877
 20
24.871120
 30
0.0
 10
39.982127
 20
24.989780
 30
0.0
 10
39.745547
 20
25.161360
 30
0.0
 10
39.550107
 20
25.377900
 30
0.0
 10
39.404087
 20
25.631480
 30
0.0
 10
39.313987
 20
25.908860
 30
0.0
 10
39.283787
 20
26.199480
 30
0.0
 10
39.313987
 20
26.490090
 30
0.0
 10
39.404087
 20
26.767480
 30
0.0
 10
39.550107
 20
27.021060
 30
0.0
 10
39.745547
 20
27.237600
 30
0.0
 10
39.982127
 20
27.409170
 30
0.0
 10
40.248877
 20
27.527840
 30
0.0
 10
40.534497
 20
27.588640
 30
0.0
 10
40.826537
 20
27.588640
 30
0.0
 10
41.112157
 20
27.527840
 30
0.0
 10
41.379297
 20
27.409170
 30
0.0
 10
41.615877
 20
27.237600
 30
0.0
 10
41.811307
 20
27.021060
 30
0.0
 10
41.957327
 20
26.767480
 30
0.0
 10
42.047527
 20
26.490090
 30
0.0
 10
42.077727
 20
26.199480
 30
0.0
 10
42.047527
 20
25.908860
 30
0.0
 10
41.957327
 20
25.631480
 30
0.0
 10
41.811307
 20
25.377900
 30
0.0
 10
41.615877
 20
25.161360
 30
0.0
 10
41.379297
 20
24.989780
 30
0.0
 10
41.112157
 20
24.871120
 30
0.0
 10
40.826537
 20
24.810320
 30
0.0
  0
LWPOLYLINE
  5
11f
100
AcDbEntity
  8
Layer_1
 62
7
100
AcDbPolyline
 90
30
 70
1
 10
4.595827
 20
24.810320
 30
0.0
 10
4.310197
 20
24.871120
 30
0.0
 10
4.043067
 20
24.989780
 30
0.0
 10
3.806497
 20
25.161360
 30
0.0
 10
3.611057
 20
25.377900
 30
0.0
 10
3.465037
 20
25.631480
 30
0.0
 10
3.374937
 20
25.908860
 30
0.0
 10
3.344737
 20
26.199480
 30
0.0
 10
3.374937
 20
26.490090
 30
0.0
 10
3.465037
 20
26.767480
 30
0.0
 10
3.611057
 20
27.021060
 30
0.0
 10
3.806497
 20
27.237600
 30
0.0
 10
4.043067
 20
27.409170
 30
0.0
 10
4.310197
 20
27.527840
 30
0.0
 10
4.595827
 20
27.588640
 30
0.0
 10
4.887857
 20
27.588640
 30
0.0
 10
5.173487
 20
27.527840
 30
0.0
 10
5.440247
 20
27.409170
 30
0.0
 10
5.676817
 20
27.237600
 30
0.0
 10
5.872267
 20
27.021060
 30
0.0
 10
6.018287
 20
26.767480
 30
0.0
 10
6.108487
 20
26.490090
 30
0.0
 10
6.138687
 20
26.199480
 30
0.0
 10
6.108487
 20
25.908860
 30
0.0
 10
6.018287
 20
25.631480
 30
0.0
 10
5.872267
 20
25.377900
 30
0.0
 10
5.676817
 20
25.161360
 30
0.0
 10
5.440247
 20
24.989780
 30
0.0
 10
5.173487
 20
24.871120
 30
0.0
 10
4.887857
 20
24.810320
 30
0.0
  0
LWPOLYLINE
  5
120
100
AcDbEntity
  8
Layer_1
 62
7
100
AcDbPolyline
 90
30
 70
1
 10
190.279200
 20
27.588950
 30
0.0
 10
190.570860
 20
27.588950
 30
0.0
 10
190.857240
 20
27.528050
 30
0.0
 10
191.123620
 20
27.409390
 30
0.0
 10
191.360190
 20
27.237820
 30
0.0
 10
191.556010
 20
27.021270
 30
0.0
 10
191.701650
 20
26.767700
 30
0.0
 10
191.791450
 20
26.489930
 30
0.0
 10
191.821650
 20
26.199320
 30
0.0
 10
191.791450
 20
25.908700
 30
0.0
 10
191.701650
 20
25.630940
 30
0.0
 10
191.556010
 20
25.377360
 30
0.0
 10
191.360190
 20
25.160820
 30
0.0
 10
191.123620
 20
24.989240
 30
0.0
 10
190.857240
 20
24.870580
 30
0.0
 10
190.570860
 20
24.809780
 30
0.0
 10
190.279200
 20
24.809780
 30
0.0
 10
189.992820
 20
24.870580
 30
0.0
 10
189.726440
 20
24.989240
 30
0.0
 10
189.489880
 20
25.160820
 30
0.0
 10
189.294050
 20
25.377360
 30
0.0
 10
189.148410
 20
25.630940
 30
0.0
 10
189.058610
 20
25.908700
 30
0.0
 10
189.028410
 20
26.199320
 30
0.0
 10
189.058610
 20
26.489930
 30
0.0
 10
189.148410
 20
26.767700
 30
0.0
 10
189.294050
 20
27.021270
 30
0.0
 10
189.489880
 20
27.237820
 30
0.0
 10
189.726440
 20
27.409390
 30
0.0
 10
189.992820
 20
27.528050
 30
0.0
  0
LWPOLYLINE
  5
121
100
AcDbEntity
  8
Layer_1
 62
7
100
AcDbPolyline
 90
30
 70
1
 10
90.449587
 20
24.810320
 30
0.0
 10
90.163207
 20
24.871120
 30
0.0
 10
89.896827
 20
24.989780
 30
0.0
 10
89.660257
 20
25.161360
 30
0.0
 10
89.464437
 20
25.377900
 30
0.0
 10
89.318787
 20
25.631480
 30
0.0
 10
89.228987
 20
25.908860
 30
0.0
 10
89.198787
 20
26.199480
 30
0.0
 10
89.228987
 20
26.490090
 30
0.0
 10
89.318787
 20
26.767480
 30
0.0
 10
89.464437
 20
27.021060
 30
0.0
 10
89.660257
 20
27.237600
 30
0.0
 10
89.896827
 20
27.409170
 30
0.0
 10
90.163207
 20
27.527840
 30
0.0
 10
90.449587
 20
27.588640
 30
0.0
 10
90.741247
 20
27.588640
 30
0.0
 10
91.027617
 20
27.527840
 30
0.0
 10
91.293987
 20
27.409170
 30
0.0
 10
91.530567
 20
27.237600
 30
0.0
 10
91.726387
 20
27.021060
 30
0.0
 10
91.872027
 20
26.767480
 30
0.0
 10
91.961827
 20
26.490090
 30
0.0
 10
91.992027
 20
26.199480
 30
0.0
 10
91.961827
 20
25.908860
 30
0.0
 10
91.872027
 20
25.631480
 30
0.0
 10
91.726387
 20
25.377900
 30
0.0
 10
91.530567
 20
25.161360
 30
0.0
 10
91.293987
 20
24.989780
 30
0.0
 10
91.027617
 20
24.871120
 30
0.0
 10
90.741247
 20
24.810320
 30
0.0
  0
LWPOLYLINE
  5
122
100
AcDbEntity
  8
Layer_1
 62
7
100
AcDbPolyline
 90
30
 70
1
 10
240.194040
 20
24.810320
 30
0.0
 10
239.907670
 20
24.871120
 30
0.0
 10
239.641280
 20
24.989780
 30
0.0
 10
239.404720
 20
25.161360
 30
0.0
 10
239.208890
 20
25.377900
 30
0.0
 10
239.063250
 20
25.631480
 30
0.0
 10
238.973450
 20
25.908860
 30
0.0
 10
238.943250
 20
26.199480
 30
0.0
 10
238.973450
 20
26.490090
 30
0.0
 10
239.063250
 20
26.767480
 30
0.0
 10
239.208890
 20
27.021060
 30
0.0
 10
239.404720
 20
27.237600
 30
0.0
 10
239.641280
 20
27.409170
 30
0.0
 10
239.907670
 20
27.527840
 30
0.0
 10
240.194040
 20
27.588640
 30
0.0
 10
240.485700
 20
27.588640
 30
0.0
 10
240.772080
 20
27.527840
 30
0.0
 10
241.038460
 20
27.409170
 30
0.0
 10
241.275040
 20
27.237600
 30
0.0
 10
241.470850
 20
27.021060
 30
0.0
 10
241.616490
 20
26.767480
 30
0.0
 10
241.706290
 20
26.490090
 30
0.0
 10
241.736490
 20
26.199480
 30
0.0
 10
241.706290
 20
25.908860
 30
0.0
 10
241.616490
 20
25.631480
 30
0.0
 10
241.470850
 20
25.377900
 30
0.0
 10
241.275040
 20
25.161360
 30
0.0
 10
241.038460
 20
24.989780
 30
0.0
 10
240.772080
 20
24.871120
 30
0.0
 10
240.485700
 20
24.810320
 30
0.0
  0
LWPOLYLINE
  5
123
100
AcDbEntity
  8
Layer_1
 62
7
100
AcDbPolyline
 90
30
 70
1
 10
290.108840
 20
4.848690
 30
0.0
 10
289.822470
 20
4.909490
 30
0.0
 10
289.556090
 20
5.028160
 30
0.0
 10
289.319520
 20
5.199730
 30
0.0
 10
289.123690
 20
5.416270
 30
0.0
 10
288.978050
 20
5.669850
 30
0.0
 10
288.888250
 20
5.947620
 30
0.0
 10
288.858050
 20
6.238230
 30
0.0
 10
288.888250
 20
6.528850
 30
0.0
 10
288.978050
 20
6.806610
 30
0.0
 10
289.123690
 20
7.060190
 30
0.0
 10
289.319520
 20
7.276730
 30
0.0
 10
289.556090
 20
7.448300
 30
0.0
 10
289.822470
 20
7.566970
 30
0.0
 10
290.108840
 20
7.627770
 30
0.0
 10
290.400500
 20
7.627770
 30
0.0
 10
290.686880
 20
7.566970
 30
0.0
 10
290.953260
 20
7.448300
 30
0.0
 10
291.189840
 20
7.276730
 30
0.0
 10
291.385650
 20
7.060190
 30
0.0
 10
291.531300
 20
6.806610
 30
0.0
 10
291.621100
 20
6.528850
 30
0.0
 10
291.651300
 20
6.238230
 30
0.0
 10
291.621100
 20
5.947620
 30
0.0
 10
291.531300
 20
5.669850
 30
0.0
 10
291.385650
 20
5.416270
 30
0.0
 10
291.189840
 20
5.199730
 30
0.0
 10
290.953260
 20
5.028160
 30
0.0
 10
290.686880
 20
4.909490
 30
0.0
 10
290.400500
 20
4.848690
 30
0.0
  0
LWPOLYLINE
  5
124
100
AcDbEntity
  8
Layer_1
 62
7
100
AcDbPolyline
 90
30
 70
1
 10
3.597547
 20
4.848690
 30
0.0
 10
3.311927
 20
4.909490
 30
0.0
 10
3.045167
 20
5.028160
 30
0.0
 10
2.808607
 20
5.199730
 30
0.0
 10
2.613157
 20
5.416270
 30
0.0
 10
2.467137
 20
5.669850
 30
0.0
 10
2.377037
 20
5.947620
 30
0.0
 10
2.346837
 20
6.238230
 30
0.0
 10
2.377037
 20
6.528850
 30
0.0
 10
2.467137
 20
6.806610
 30
0.0
 10
2.613157
 20
7.060190
 30
0.0
 10
2.808607
 20
7.276730
 30
0.0
 10
3.045167
 20
7.448300
 30
0.0
 10
3.311927
 20
7.566970
 30
0.0
 10
3.597547
 20
7.627770
 30
0.0
 10
3.889577
 20
7.627770
 30
0.0
 10
4.175197
 20
7.566970
 30
0.0
 10
4.442337
 20
7.448300
 30
0.0
 10
4.678907
 20
7.276730
 30
0.0
 10
4.874357
 20
7.060190
 30
0.0
 10
5.020367
 20
6.806610
 30
0.0
 10
5.110467
 20
6.528850
 30
0.0
 10
5.140667
 20
6.238230
 30
0.0
 10
5.110467
 20
5.947620
 30
0.0
 10
5.020367
 20
5.669850
 30
0.0
 10
4.874357
 20
5.416270
 30
0.0
 10
4.678907
 20
5.199730
 30
0.0
 10
4.442337
 20
5.028160
 30
0.0
 10
4.175197
 20
4.909490
 30
0.0
 10
3.889577
 20
4.848690
 30
0.0
  0
LWPOLYLINE
  5
125
100
AcDbEntity
  8
Layer_1
 62
7
100
AcDbPolyline
 90
30
 70
1
 10
141.641210
 20
27.021060
 30
0.0
 10
141.786850
 20
26.767480
 30
0.0
 10
141.876650
 20
26.489720
 30
0.0
 10
141.906850
 20
26.199100
 30
0.0
 10
141.876650
 20
25.908490
 30
0.0
 10
141.786850
 20
25.630720
 30
0.0
 10
141.641210
 20
25.377140
 30
0.0
 10
141.445390
 20
25.160600
 30
0.0
 10
141.208810
 20
24.989030
 30
0.0
 10
140.942430
 20
24.870370
 30
0.0
 10
140.656060
 20
24.809470
 30
0.0
 10
140.364400
 20
24.809470
 30
0.0
 10
140.078020
 20
24.870370
 30
0.0
 10
139.811640
 20
24.989030
 30
0.0
 10
139.575070
 20
25.160600
 30
0.0
 10
139.379250
 20
25.377140
 30
0.0
 10
139.233610
 20
25.630720
 30
0.0
 10
139.143810
 20
25.908490
 30
0.0
 10
139.113610
 20
26.199100
 30
0.0
 10
139.143810
 20
26.489720
 30
0.0
 10
139.233610
 20
26.767480
 30
0.0
 10
139.379250
 20
27.021060
 30
0.0
 10
139.575070
 20
27.237600
 30
0.0
 10
139.811640
 20
27.409170
 30
0.0
 10
140.078020
 20
27.527840
 30
0.0
 10
140.364400
 20
27.588640
 30
0.0
 10
140.656060
 20
27.588640
 30
0.0
 10
140.942430
 20
27.527840
 30
0.0
 10
141.208810
 20
27.409170
 30
0.0
 10
141.445390
 20
27.237600
 30
0.0
  0
ENDSEC
  0
SECTION
  2
OBJECTS
  0
DICTIONARY
  5
C
330
0
100
AcDbDictionary
  3
ACAD_GROUP
350
D
  3
ACAD_MLINESTYLE
350
17
  0
DICTIONARY
  5
D
330
C
100
AcDbDictionary
  0
DICTIONARY
  5
1A
330
C
100
AcDbDictionary
  0
DICTIONARY
  5
17
330
C
100
AcDbDictionary
  3
STANDARD
350
18
  0
DICTIONARY
  5
19
330
C
100
AcDbDictionary
  0
ENDSEC
  0
EOF
