  0
SECTION
  2
HEADER
  9
$ACADVER
  1
AC1014
  9
$HANDSEED
  5
FFFF
  9
$MEASUREMENT
 70
     1
  0
ENDSEC
  0
SECTION
  2
TABLES
  0
TABLE
  2
VPORT
  5
8
330
0
100
AcDbSymbolTable
 70
     4
  0
VPORT
  5
2E
330
8
100
AcDbSymbolTableRecord
100
AcDbViewportTableRecord
  2
*ACTIVE
 70
     0
 10
0.0
 20
0.0
 11
1.0
 21
1.0
 12
210.0
 22
148.5
 13
0.0
 23
0.0
 14
10.0
 24
10.0
 15
10.0
 25
10.0
 16
0.0
 26
0.0
 36
1.0
 17
0.0
 27
0.0
 37
0.0
 40
341.0
 41
1.24
 42
50.0
 43
0.0
 44
0.0
 50
0.0
 51
0.0
 71
     0
 72
   100
 73
     1
 74
     3
 75
     0
 76
     0
 77
     0
 78
     0
  0
ENDTAB
  0
TABLE
  2
LTYPE
  5
5
330
0
100
AcDbSymbolTable
 70
     1
  0
LTYPE
  5
14
330
5
100
AcDbSymbolTableRecord
100
AcDbLinetypeTableRecord
  2
BYBLOCK
 70
     0
  3

 72
    65
 73
     0
 40
0.0
  0
LTYPE
  5
15
330
5
100
AcDbSymbolTableRecord
100
AcDbLinetypeTableRecord
  2
BYLAYER
 70
     0
  3

 72
    65
 73
     0
 40
0.0
  0
LTYPE
  5
16
330
5
100
AcDbSymbolTableRecord
100
AcDbLinetypeTableRecord
  2
CONTINUOUS
 70
     0
  3
Solid line
 72
    65
 73
     0
 40
0.0
  0
ENDTAB
  0
TABLE
  2
LAYER
  5
2
100
AcDbSymbolTable
 70
2
  0
LAYER
  5
50
100
AcDbSymbolTableRecord
100
AcDbLayerTableRecord
  2
0
 70
0
  6
CONTINUOUS
  0
LAYER
  5
51
100
AcDbSymbolTableRecord
100
AcDbLayerTableRecord
  2
Layer_1
 70
0
  6
CONTINUOUS
  0
ENDTAB
  0
TABLE
  2
STYLE
  5
3
330
0
100
AcDbSymbolTable
 70
     1
  0
STYLE
  5
11
330
3
100
AcDbSymbolTableRecord
100
AcDbTextStyleTableRecord
  2
STANDARD
 70
     0
 40
0.0
 41
1.0
 50
0.0
 71
     0
 42
2.5
  3
txt
  4

  0
ENDTAB
  0
TABLE
  2
VIEW
  5
6
330
0
100
AcDbSymbolTable
 70
     0
  0
ENDTAB
  0
TABLE
  2
UCS
  5
7
330
0
100
AcDbSymbolTable
 70
     0
  0
ENDTAB
  0
TABLE
  2
APPID
  5
9
330
0
100
AcDbSymbolTable
 70
     2
  0
APPID
  5
12
330
9
100
AcDbSymbolTableRecord
100
AcDbRegAppTableRecord
  2
ACAD
 70
     0
  0
ENDTAB
  0
TABLE
  2
DIMSTYLE
  5
A
330
0
100
AcDbSymbolTable
 70
     1
  0
DIMSTYLE
105
27
330
A
100
AcDbSymbolTableRecord
100
AcDbDimStyleTableRecord
  2
ISO-25
 70
     0
  3

  4

  5

  6

  7

 40
1.0
 41
2.5
 42
0.625
 43
3.75
 44
1.25
 45
0.0
 46
0.0
 47
0.0
 48
0.0
140
2.5
141
2.5
142
0.0
143
0.03937007874016
144
1.0
145
0.0
146
1.0
147
0.625
 71
     0
 72
     0
 73
     0
 74
     0
 75
     0
 76
     0
 77
     1
 78
     8
170
     0
171
     3
172
     1
173
     0
174
     0
175
     0
176
     0
177
     0
178
     0
270
     2
271
     2
272
     2
273
     2
274
     3
340
11
275
     0
280
     0
281
     0
282
     0
283
     0
284
     8
285
     0
286
     0
287
     3
288
     0
  0
ENDTAB
  0
TABLE
  2
BLOCK_RECORD
  5
1
330
0
100
AcDbSymbolTable
 70
     1
  0
BLOCK_RECORD
  5
1F
330
1
100
AcDbSymbolTableRecord
100
AcDbBlockTableRecord
  2
*MODEL_SPACE
  0
BLOCK_RECORD
  5
1B
330
1
100
AcDbSymbolTableRecord
100
AcDbBlockTableRecord
  2
*PAPER_SPACE
  0
ENDTAB
  0
ENDSEC
  0
SECTION
  2
BLOCKS
  0
BLOCK
  5
20
330
1F
100
AcDbEntity
  8
0
100
AcDbBlockBegin
  2
*MODEL_SPACE
 70
     0
 10
0.0
 20
0.0
 30
0.0
  3
*MODEL_SPACE
  1

  0
ENDBLK
  5
21
330
1F
100
AcDbEntity
  8
0
100
AcDbBlockEnd
  0
BLOCK
  5
1C
330
1B
100
AcDbEntity
 67
     1
  8
0
100
AcDbBlockBegin
  2
*PAPER_SPACE
  1

  0
ENDBLK
  5
1D
330
1B
100
AcDbEntity
 67
     1
  8
0
100
AcDbBlockEnd
  0
ENDSEC
  0
SECTION
  2
ENTITIES
  0
LWPOLYLINE
  5
100
100
AcDbEntity
  8
Layer_1
 62
7
100
AcDbPolyline
 90
4
 70
1
 10
7.635122
 20
357.095298
 30
0.0
 10
75.670835
 20
357.095298
 30
0.0
 10
75.670835
 20
350.291727
 30
0.0
 10
7.635122
 20
350.291727
 30
0.0
  0
LWPOLYLINE
  5
101
100
AcDbEntity
  8
Layer_1
 62
7
100
AcDbPolyline
 90
4
 70
1
 10
0.000000
 20
348.494048
 30
0.0
 10
683.380980
 20
348.494048
 30
0.0
 10
683.380980
 20
67.279758
 30
0.0
 10
-0.000000
 20
67.279758
 30
0.0
  0
LWPOLYLINE
  5
102
100
AcDbEntity
  8
Layer_1
 62
7
100
AcDbPolyline
 90
4
 70
1
 10
12.851191
 20
315.988097
 30
0.0
 10
12.851191
 20
315.988097
 30
0.0
 10
12.851191
 20
315.988097
 30
0.0
 10
12.851191
 20
315.988097
 30
0.0
  0
LWPOLYLINE
  5
103
100
AcDbEntity
  8
Layer_1
 62
7
100
AcDbPolyline
 90
21
 70
1
 10
396.465627
 20
5.125538
 30
0.0
 10
397.120788
 20
11.354517
 30
0.0
 10
399.056427
 20
17.311161
 30
0.0
 10
402.187585
 20
22.735278
 30
0.0
 10
406.379511
 20
27.389802
 30
0.0
 10
411.447287
 20
31.071294
 30
0.0
 10
417.169272
 20
33.618781
 30
0.0
 10
423.296784
 20
34.920912
 30
0.0
 10
429.561138
 20
34.920912
 30
0.0
 10
435.688650
 20
33.618781
 30
0.0
 10
437.518376
 20
32.803970
 30
0.0
 10
437.518376
 20
359.916448
 30
0.0
 10
427.530620
 20
359.916448
 30
0.0
 10
427.530620
 20
369.902937
 30
0.0
 10
36.905546
 20
369.902937
 30
0.0
 10
36.905546
 20
359.916448
 30
0.0
 10
26.917742
 20
359.916448
 30
0.0
 10
26.917742
 20
10.118781
 30
0.0
 10
36.905546
 20
10.118781
 30
0.0
 10
36.905546
 20
0.132295
 30
0.0
 10
396.990983
 20
0.132295
 30
0.0
  0
LWPOLYLINE
  5
104
100
AcDbEntity
  8
Layer_1
 62
7
100
AcDbPolyline
 90
30
 70
1
 10
46.110285
 20
347.204637
 30
0.0
 10
44.578540
 20
347.530408
 30
0.0
 10
43.147887
 20
348.167512
 30
0.0
 10
41.880952
 20
349.087264
 30
0.0
 10
40.833114
 20
350.251722
 30
0.0
 10
40.050084
 20
351.606883
 30
0.0
 10
39.566179
 20
353.096887
 30
0.0
 10
39.402347
 20
354.653743
 30
0.0
 10
39.566179
 20
356.210678
 30
0.0
 10
40.050084
 20
357.700642
 30
0.0
 10
40.833114
 20
359.055801
 30
0.0
 10
41.880952
 20
360.220261
 30
0.0
 10
43.147887
 20
361.140014
 30
0.0
 10
44.578540
 20
361.777120
 30
0.0
 10
46.110285
 20
362.102888
 30
0.0
 10
47.676343
 20
362.102888
 30
0.0
 10
49.208088
 20
361.777120
 30
0.0
 10
50.638741
 20
361.140014
 30
0.0
 10
51.905676
 20
360.220261
 30
0.0
 10
52.953516
 20
359.055801
 30
0.0
 10
53.736544
 20
357.700642
 30
0.0
 10
54.220451
 20
356.210678
 30
0.0
 10
54.384281
 20
354.653743
 30
0.0
 10
54.220451
 20
353.096887
 30
0.0
 10
53.736544
 20
351.606883
 30
0.0
 10
52.953516
 20
350.251722
 30
0.0
 10
51.905676
 20
349.087264
 30
0.0
 10
50.638741
 20
348.167512
 30
0.0
 10
49.208088
 20
347.530408
 30
0.0
 10
47.676343
 20
347.204637
 30
0.0
  0
LWPOLYLINE
  5
105
100
AcDbEntity
  8
Layer_1
 62
7
100
AcDbPolyline
 90
30
 70
1
 10
415.658157
 20
347.204637
 30
0.0
 10
414.126008
 20
347.530408
 30
0.0
 10
412.695750
 20
348.167512
 30
0.0
 10
411.429296
 20
349.087264
 30
0.0
 10
410.380593
 20
350.251722
 30
0.0
 10
409.597532
 20
351.606883
 30
0.0
 10
409.114138
 20
353.096887
 30
0.0
 10
408.950308
 20
354.653743
 30
0.0
 10
409.114138
 20
356.210678
 30
0.0
 10
409.597532
 20
357.700642
 30
0.0
 10
410.380593
 20
359.055801
 30
0.0
 10
411.429296
 20
360.220261
 30
0.0
 10
412.695750
 20
361.140014
 30
0.0
 10
414.126008
 20
361.777120
 30
0.0
 10
415.658157
 20
362.102888
 30
0.0
 10
417.224200
 20
362.102888
 30
0.0
 10
418.756322
 20
361.777120
 30
0.0
 10
420.186607
 20
361.140014
 30
0.0
 10
421.453061
 20
360.220261
 30
0.0
 10
422.501764
 20
359.055801
 30
0.0
 10
423.284798
 20
357.700642
 30
0.0
 10
423.768192
 20
356.210678
 30
0.0
 10
423.932022
 20
354.653743
 30
0.0
 10
423.768192
 20
353.096887
 30
0.0
 10
423.284798
 20
351.606883
 30
0.0
 10
422.501764
 20
350.251722
 30
0.0
 10
421.453061
 20
349.087264
 30
0.0
 10
420.186607
 20
348.167512
 30
0.0
 10
418.756322
 20
347.530408
 30
0.0
 10
417.224200
 20
347.204637
 30
0.0
  0
LWPOLYLINE
  5
106
100
AcDbEntity
  8
Layer_1
 62
7
100
AcDbPolyline
 90
30
 70
1
 10
89.647595
 20
314.867273
 30
0.0
 10
89.269762
 20
314.948152
 30
0.0
 10
88.916808
 20
315.104613
 30
0.0
 10
88.604248
 20
315.331368
 30
0.0
 10
88.345665
 20
315.618968
 30
0.0
 10
88.152390
 20
315.953431
 30
0.0
 10
88.033102
 20
316.320017
 30
0.0
 10
87.992703
 20
316.704516
 30
0.0
 10
88.033102
 20
317.088978
 30
0.0
 10
88.152390
 20
317.455565
 30
0.0
 10
88.345665
 20
317.790027
 30
0.0
 10
88.604248
 20
318.077627
 30
0.0
 10
88.916808
 20
318.304381
 30
0.0
 10
89.269762
 20
318.460843
 30
0.0
 10
89.647595
 20
318.541722
 30
0.0
 10
90.033919
 20
318.541722
 30
0.0
 10
90.411749
 20
318.460843
 30
0.0
 10
90.764703
 20
318.304381
 30
0.0
 10
91.077266
 20
318.077627
 30
0.0
 10
91.335846
 20
317.790027
 30
0.0
 10
91.528743
 20
317.455565
 30
0.0
 10
91.648030
 20
317.088978
 30
0.0
 10
91.688432
 20
316.704516
 30
0.0
 10
91.648030
 20
316.320017
 30
0.0
 10
91.528743
 20
315.953431
 30
0.0
 10
91.335846
 20
315.618968
 30
0.0
 10
91.077266
 20
315.331368
 30
0.0
 10
90.764703
 20
315.104613
 30
0.0
 10
90.411749
 20
314.948152
 30
0.0
 10
90.033919
 20
314.867273
 30
0.0
  0
LWPOLYLINE
  5
107
100
AcDbEntity
  8
Layer_1
 62
7
100
AcDbPolyline
 90
30
 70
1
 10
269.428049
 20
314.867273
 30
0.0
 10
269.049510
 20
314.948152
 30
0.0
 10
268.696921
 20
315.104613
 30
0.0
 10
268.384361
 20
315.331368
 30
0.0
 10
268.125781
 20
315.618968
 30
0.0
 10
267.932881
 20
315.953431
 30
0.0
 10
267.812840
 20
316.320017
 30
0.0
 10
267.772840
 20
316.704516
 30
0.0
 10
267.812840
 20
317.088978
 30
0.0
 10
267.932881
 20
317.455565
 30
0.0
 10
268.125781
 20
317.790027
 30
0.0
 10
268.384361
 20
318.077627
 30
0.0
 10
268.696921
 20
318.304381
 30
0.0
 10
269.049510
 20
318.460843
 30
0.0
 10
269.428049
 20
318.541722
 30
0.0
 10
269.813579
 20
318.541722
 30
0.0
 10
270.192089
 20
318.460843
 30
0.0
 10
270.544660
 20
318.304381
 30
0.0
 10
270.857231
 20
318.077627
 30
0.0
 10
271.115811
 20
317.790027
 30
0.0
 10
271.308710
 20
317.455565
 30
0.0
 10
271.428371
 20
317.088978
 30
0.0
 10
271.468371
 20
316.704516
 30
0.0
 10
271.428371
 20
316.320017
 30
0.0
 10
271.308710
 20
315.953431
 30
0.0
 10
271.115811
 20
315.618968
 30
0.0
 10
270.857231
 20
315.331368
 30
0.0
 10
270.544660
 20
315.104613
 30
0.0
 10
270.192089
 20
314.948152
 30
0.0
 10
269.813579
 20
314.867273
 30
0.0
  0
LWPOLYLINE
  5
108
100
AcDbEntity
  8
Layer_1
 62
7
100
AcDbPolyline
 90
30
 70
1
 10
359.318074
 20
314.867273
 30
0.0
 10
358.939535
 20
314.948152
 30
0.0
 10
358.586951
 20
315.104613
 30
0.0
 10
358.274372
 20
315.331368
 30
0.0
 10
358.015795
 20
315.618968
 30
0.0
 10
357.822887
 20
315.953431
 30
0.0
 10
357.703216
 20
316.320017
 30
0.0
 10
357.663238
 20
316.704516
 30
0.0
 10
357.703216
 20
317.088978
 30
0.0
 10
357.822887
 20
317.455565
 30
0.0
 10
358.015795
 20
317.790027
 30
0.0
 10
358.274372
 20
318.077627
 30
0.0
 10
358.586951
 20
318.304381
 30
0.0
 10
358.939535
 20
318.460843
 30
0.0
 10
359.318074
 20
318.541722
 30
0.0
 10
359.703598
 20
318.541722
 30
0.0
 10
360.082111
 20
318.460843
 30
0.0
 10
360.434669
 20
318.304381
 30
0.0
 10
360.747247
 20
318.077627
 30
0.0
 10
361.005851
 20
317.790027
 30
0.0
 10
361.198732
 20
317.455565
 30
0.0
 10
361.318377
 20
317.088978
 30
0.0
 10
361.358382
 20
316.704516
 30
0.0
 10
361.318377
 20
316.320017
 30
0.0
 10
361.198732
 20
315.953431
 30
0.0
 10
361.005851
 20
315.618968
 30
0.0
 10
360.747247
 20
315.331368
 30
0.0
 10
360.434669
 20
315.104613
 30
0.0
 10
360.082111
 20
314.948152
 30
0.0
 10
359.703598
 20
314.867273
 30
0.0
  0
LWPOLYLINE
  5
109
100
AcDbEntity
  8
Layer_1
 62
7
100
AcDbPolyline
 90
30
 70
1
 10
179.538030
 20
314.867273
 30
0.0
 10
179.159480
 20
314.948152
 30
0.0
 10
178.806902
 20
315.104613
 30
0.0
 10
178.494341
 20
315.331368
 30
0.0
 10
178.235761
 20
315.618968
 30
0.0
 10
178.042862
 20
315.953431
 30
0.0
 10
177.922820
 20
316.320017
 30
0.0
 10
177.882820
 20
316.704516
 30
0.0
 10
177.922820
 20
317.088978
 30
0.0
 10
178.042862
 20
317.455565
 30
0.0
 10
178.235761
 20
317.790027
 30
0.0
 10
178.494341
 20
318.077627
 30
0.0
 10
178.806902
 20
318.304381
 30
0.0
 10
179.159480
 20
318.460843
 30
0.0
 10
179.538030
 20
318.541722
 30
0.0
 10
179.923552
 20
318.541722
 30
0.0
 10
180.302073
 20
318.460843
 30
0.0
 10
180.654640
 20
318.304381
 30
0.0
 10
180.967211
 20
318.077627
 30
0.0
 10
181.225791
 20
317.790027
 30
0.0
 10
181.418691
 20
317.455565
 30
0.0
 10
181.538351
 20
317.088978
 30
0.0
 10
181.578351
 20
316.704516
 30
0.0
 10
181.538351
 20
316.320017
 30
0.0
 10
181.418691
 20
315.953431
 30
0.0
 10
181.225791
 20
315.618968
 30
0.0
 10
180.967211
 20
315.331368
 30
0.0
 10
180.654640
 20
315.104613
 30
0.0
 10
180.302073
 20
314.948152
 30
0.0
 10
179.923552
 20
314.867273
 30
0.0
  0
LWPOLYLINE
  5
10a
100
AcDbEntity
  8
Layer_1
 62
7
100
AcDbPolyline
 90
30
 70
1
 10
179.538030
 20
224.988647
 30
0.0
 10
179.159480
 20
225.069527
 30
0.0
 10
178.806902
 20
225.225989
 30
0.0
 10
178.494341
 20
225.452742
 30
0.0
 10
178.235761
 20
225.740341
 30
0.0
 10
178.042862
 20
226.074804
 30
0.0
 10
177.922820
 20
226.441392
 30
0.0
 10
177.882820
 20
226.825890
 30
0.0
 10
177.922820
 20
227.210353
 30
0.0
 10
178.042862
 20
227.576939
 30
0.0
 10
178.235761
 20
227.911401
 30
0.0
 10
178.494341
 20
228.199000
 30
0.0
 10
178.806902
 20
228.425756
 30
0.0
 10
179.159480
 20
228.582218
 30
0.0
 10
179.538030
 20
228.663095
 30
0.0
 10
179.923552
 20
228.663095
 30
0.0
 10
180.302073
 20
228.582218
 30
0.0
 10
180.654640
 20
228.425756
 30
0.0
 10
180.967211
 20
228.199000
 30
0.0
 10
181.225791
 20
227.911401
 30
0.0
 10
181.418691
 20
227.576939
 30
0.0
 10
181.538351
 20
227.210353
 30
0.0
 10
181.578351
 20
226.825890
 30
0.0
 10
181.538351
 20
226.441392
 30
0.0
 10
181.418691
 20
226.074804
 30
0.0
 10
181.225791
 20
225.740341
 30
0.0
 10
180.967211
 20
225.452742
 30
0.0
 10
180.654640
 20
225.225989
 30
0.0
 10
180.302073
 20
225.069527
 30
0.0
 10
179.923552
 20
224.988647
 30
0.0
  0
LWPOLYLINE
  5
10b
100
AcDbEntity
  8
Layer_1
 62
7
100
AcDbPolyline
 90
30
 70
1
 10
89.647595
 20
224.988647
 30
0.0
 10
89.269762
 20
225.069527
 30
0.0
 10
88.916808
 20
225.225989
 30
0.0
 10
88.604248
 20
225.452742
 30
0.0
 10
88.345665
 20
225.740341
 30
0.0
 10
88.152390
 20
226.074804
 30
0.0
 10
88.033102
 20
226.441392
 30
0.0
 10
87.992703
 20
226.825890
 30
0.0
 10
88.033102
 20
227.210353
 30
0.0
 10
88.152390
 20
227.576939
 30
0.0
 10
88.345665
 20
227.911401
 30
0.0
 10
88.604248
 20
228.199000
 30
0.0
 10
88.916808
 20
228.425756
 30
0.0
 10
89.269762
 20
228.582218
 30
0.0
 10
89.647595
 20
228.663095
 30
0.0
 10
90.033919
 20
228.663095
 30
0.0
 10
90.411749
 20
228.582218
 30
0.0
 10
90.764703
 20
228.425756
 30
0.0
 10
91.077266
 20
228.199000
 30
0.0
 10
91.335846
 20
227.911401
 30
0.0
 10
91.528743
 20
227.576939
 30
0.0
 10
91.648030
 20
227.210353
 30
0.0
 10
91.688432
 20
226.825890
 30
0.0
 10
91.648030
 20
226.441392
 30
0.0
 10
91.528743
 20
226.074804
 30
0.0
 10
91.335846
 20
225.740341
 30
0.0
 10
91.077266
 20
225.452742
 30
0.0
 10
90.764703
 20
225.225989
 30
0.0
 10
90.411749
 20
225.069527
 30
0.0
 10
90.033919
 20
224.988647
 30
0.0
  0
LWPOLYLINE
  5
10c
100
AcDbEntity
  8
Layer_1
 62
7
100
AcDbPolyline
 90
30
 70
1
 10
269.428049
 20
224.988647
 30
0.0
 10
269.049510
 20
225.069527
 30
0.0
 10
268.696921
 20
225.225989
 30
0.0
 10
268.384361
 20
225.452742
 30
0.0
 10
268.125781
 20
225.740341
 30
0.0
 10
267.932881
 20
226.074804
 30
0.0
 10
267.812840
 20
226.441392
 30
0.0
 10
267.772840
 20
226.825890
 30
0.0
 10
267.812840
 20
227.210353
 30
0.0
 10
267.932881
 20
227.576939
 30
0.0
 10
268.125781
 20
227.911401
 30
0.0
 10
268.384361
 20
228.199000
 30
0.0
 10
268.696921
 20
228.425756
 30
0.0
 10
269.049510
 20
228.582218
 30
0.0
 10
269.428049
 20
228.663095
 30
0.0
 10
269.813579
 20
228.663095
 30
0.0
 10
270.192089
 20
228.582218
 30
0.0
 10
270.544660
 20
228.425756
 30
0.0
 10
270.857231
 20
228.199000
 30
0.0
 10
271.115811
 20
227.911401
 30
0.0
 10
271.308710
 20
227.576939
 30
0.0
 10
271.428371
 20
227.210353
 30
0.0
 10
271.468371
 20
226.825890
 30
0.0
 10
271.428371
 20
226.441392
 30
0.0
 10
271.308710
 20
226.074804
 30
0.0
 10
271.115811
 20
225.740341
 30
0.0
 10
270.857231
 20
225.452742
 30
0.0
 10
270.544660
 20
225.225989
 30
0.0
 10
270.192089
 20
225.069527
 30
0.0
 10
269.813579
 20
224.988647
 30
0.0
  0
LWPOLYLINE
  5
10d
100
AcDbEntity
  8
Layer_1
 62
7
100
AcDbPolyline
 90
30
 70
1
 10
359.318074
 20
224.988647
 30
0.0
 10
358.939535
 20
225.069527
 30
0.0
 10
358.586951
 20
225.225989
 30
0.0
 10
358.274372
 20
225.452742
 30
0.0
 10
358.015795
 20
225.740341
 30
0.0
 10
357.822887
 20
226.074804
 30
0.0
 10
357.703216
 20
226.441392
 30
0.0
 10
357.663238
 20
226.825890
 30
0.0
 10
357.703216
 20
227.210353
 30
0.0
 10
357.822887
 20
227.576939
 30
0.0
 10
358.015795
 20
227.911401
 30
0.0
 10
358.274372
 20
228.199000
 30
0.0
 10
358.586951
 20
228.425756
 30
0.0
 10
358.939535
 20
228.582218
 30
0.0
 10
359.318074
 20
228.663095
 30
0.0
 10
359.703598
 20
228.663095
 30
0.0
 10
360.082111
 20
228.582218
 30
0.0
 10
360.434669
 20
228.425756
 30
0.0
 10
360.747247
 20
228.199000
 30
0.0
 10
361.005851
 20
227.911401
 30
0.0
 10
361.198732
 20
227.576939
 30
0.0
 10
361.318377
 20
227.210353
 30
0.0
 10
361.358382
 20
226.825890
 30
0.0
 10
361.318377
 20
226.441392
 30
0.0
 10
361.198732
 20
226.074804
 30
0.0
 10
361.005851
 20
225.740341
 30
0.0
 10
360.747247
 20
225.452742
 30
0.0
 10
360.434669
 20
225.225989
 30
0.0
 10
360.082111
 20
225.069527
 30
0.0
 10
359.703598
 20
224.988647
 30
0.0
  0
LWPOLYLINE
  5
10e
100
AcDbEntity
  8
Layer_1
 62
7
100
AcDbPolyline
 90
30
 70
1
 10
89.647595
 20
135.109981
 30
0.0
 10
89.269762
 20
135.190880
 30
0.0
 10
88.916808
 20
135.347338
 30
0.0
 10
88.604248
 20
135.574100
 30
0.0
 10
88.345665
 20
135.861699
 30
0.0
 10
88.152390
 20
136.196159
 30
0.0
 10
88.033102
 20
136.562739
 30
0.0
 10
87.992703
 20
136.947239
 30
0.0
 10
88.033102
 20
137.331740
 30
0.0
 10
88.152390
 20
137.698331
 30
0.0
 10
88.345665
 20
138.032790
 30
0.0
 10
88.604248
 20
138.320390
 30
0.0
 10
88.916808
 20
138.547151
 30
0.0
 10
89.269762
 20
138.703610
 30
0.0
 10
89.647595
 20
138.784509
 30
0.0
 10
90.033919
 20
138.784509
 30
0.0
 10
90.411749
 20
138.703610
 30
0.0
 10
90.764703
 20
138.547151
 30
0.0
 10
91.077266
 20
138.320390
 30
0.0
 10
91.335846
 20
138.032790
 30
0.0
 10
91.528743
 20
137.698331
 30
0.0
 10
91.648030
 20
137.331740
 30
0.0
 10
91.688432
 20
136.947239
 30
0.0
 10
91.648030
 20
136.562739
 30
0.0
 10
91.528743
 20
136.196159
 30
0.0
 10
91.335846
 20
135.861699
 30
0.0
 10
91.077266
 20
135.574100
 30
0.0
 10
90.764703
 20
135.347338
 30
0.0
 10
90.411749
 20
135.190880
 30
0.0
 10
90.033919
 20
135.109981
 30
0.0
  0
LWPOLYLINE
  5
10f
100
AcDbEntity
  8
Layer_1
 62
7
100
AcDbPolyline
 90
30
 70
1
 10
359.318074
 20
135.109981
 30
0.0
 10
358.939535
 20
135.190880
 30
0.0
 10
358.586951
 20
135.347338
 30
0.0
 10
358.274372
 20
135.574100
 30
0.0
 10
358.015795
 20
135.861699
 30
0.0
 10
357.822887
 20
136.196159
 30
0.0
 10
357.703216
 20
136.562739
 30
0.0
 10
357.663238
 20
136.947239
 30
0.0
 10
357.703216
 20
137.331740
 30
0.0
 10
357.822887
 20
137.698331
 30
0.0
 10
358.015795
 20
138.032790
 30
0.0
 10
358.274372
 20
138.320390
 30
0.0
 10
358.586951
 20
138.547151
 30
0.0
 10
358.939535
 20
138.703610
 30
0.0
 10
359.318074
 20
138.784509
 30
0.0
 10
359.703598
 20
138.784509
 30
0.0
 10
360.082111
 20
138.703610
 30
0.0
 10
360.434669
 20
138.547151
 30
0.0
 10
360.747247
 20
138.320390
 30
0.0
 10
361.005851
 20
138.032790
 30
0.0
 10
361.198732
 20
137.698331
 30
0.0
 10
361.318377
 20
137.331740
 30
0.0
 10
361.358382
 20
136.947239
 30
0.0
 10
361.318377
 20
136.562739
 30
0.0
 10
361.198732
 20
136.196159
 30
0.0
 10
361.005851
 20
135.861699
 30
0.0
 10
360.747247
 20
135.574100
 30
0.0
 10
360.434669
 20
135.347338
 30
0.0
 10
360.082111
 20
135.190880
 30
0.0
 10
359.703598
 20
135.109981
 30
0.0
  0
LWPOLYLINE
  5
110
100
AcDbEntity
  8
Layer_1
 62
7
100
AcDbPolyline
 90
30
 70
1
 10
269.428049
 20
135.109981
 30
0.0
 10
269.049510
 20
135.190880
 30
0.0
 10
268.696921
 20
135.347338
 30
0.0
 10
268.384361
 20
135.574100
 30
0.0
 10
268.125781
 20
135.861699
 30
0.0
 10
267.932881
 20
136.196159
 30
0.0
 10
267.812840
 20
136.562739
 30
0.0
 10
267.772840
 20
136.947239
 30
0.0
 10
267.812840
 20
137.331740
 30
0.0
 10
267.932881
 20
137.698331
 30
0.0
 10
268.125781
 20
138.032790
 30
0.0
 10
268.384361
 20
138.320390
 30
0.0
 10
268.696921
 20
138.547151
 30
0.0
 10
269.049510
 20
138.703610
 30
0.0
 10
269.428049
 20
138.784509
 30
0.0
 10
269.813579
 20
138.784509
 30
0.0
 10
270.192089
 20
138.703610
 30
0.0
 10
270.544660
 20
138.547151
 30
0.0
 10
270.857231
 20
138.320390
 30
0.0
 10
271.115811
 20
138.032790
 30
0.0
 10
271.308710
 20
137.698331
 30
0.0
 10
271.428371
 20
137.331740
 30
0.0
 10
271.468371
 20
136.947239
 30
0.0
 10
271.428371
 20
136.562739
 30
0.0
 10
271.308710
 20
136.196159
 30
0.0
 10
271.115811
 20
135.861699
 30
0.0
 10
270.857231
 20
135.574100
 30
0.0
 10
270.544660
 20
135.347338
 30
0.0
 10
270.192089
 20
135.190880
 30
0.0
 10
269.813579
 20
135.109981
 30
0.0
  0
LWPOLYLINE
  5
111
100
AcDbEntity
  8
Layer_1
 62
7
100
AcDbPolyline
 90
30
 70
1
 10
179.538030
 20
135.109981
 30
0.0
 10
179.159480
 20
135.190880
 30
0.0
 10
178.806902
 20
135.347338
 30
0.0
 10
178.494341
 20
135.574100
 30
0.0
 10
178.235761
 20
135.861699
 30
0.0
 10
178.042862
 20
136.196159
 30
0.0
 10
177.922820
 20
136.562739
 30
0.0
 10
177.882820
 20
136.947239
 30
0.0
 10
177.922820
 20
137.331740
 30
0.0
 10
178.042862
 20
137.698331
 30
0.0
 10
178.235761
 20
138.032790
 30
0.0
 10
178.494341
 20
138.320390
 30
0.0
 10
178.806902
 20
138.547151
 30
0.0
 10
179.159480
 20
138.703610
 30
0.0
 10
179.538030
 20
138.784509
 30
0.0
 10
179.923552
 20
138.784509
 30
0.0
 10
180.302073
 20
138.703610
 30
0.0
 10
180.654640
 20
138.547151
 30
0.0
 10
180.967211
 20
138.320390
 30
0.0
 10
181.225791
 20
138.032790
 30
0.0
 10
181.418691
 20
137.698331
 30
0.0
 10
181.538351
 20
137.331740
 30
0.0
 10
181.578351
 20
136.947239
 30
0.0
 10
181.538351
 20
136.562739
 30
0.0
 10
181.418691
 20
136.196159
 30
0.0
 10
181.225791
 20
135.861699
 30
0.0
 10
180.967211
 20
135.574100
 30
0.0
 10
180.654640
 20
135.347338
 30
0.0
 10
180.302073
 20
135.190880
 30
0.0
 10
179.923552
 20
135.109981
 30
0.0
  0
LWPOLYLINE
  5
112
100
AcDbEntity
  8
Layer_1
 62
7
100
AcDbPolyline
 90
30
 70
1
 10
359.318074
 20
45.231471
 30
0.0
 10
358.939535
 20
45.311970
 30
0.0
 10
358.586951
 20
45.468810
 30
0.0
 10
358.274372
 20
45.695941
 30
0.0
 10
358.015795
 20
45.982781
 30
0.0
 10
357.822887
 20
46.317252
 30
0.0
 10
357.703216
 20
46.684591
 30
0.0
 10
357.663238
 20
47.068671
 30
0.0
 10
357.703216
 20
47.452761
 30
0.0
 10
357.822887
 20
47.820101
 30
0.0
 10
358.015795
 20
48.154561
 30
0.0
 10
358.274372
 20
48.441411
 30
0.0
 10
358.586951
 20
48.668162
 30
0.0
 10
358.939535
 20
48.825002
 30
0.0
 10
359.318074
 20
48.905501
 30
0.0
 10
359.703598
 20
48.905501
 30
0.0
 10
360.082111
 20
48.825002
 30
0.0
 10
360.434669
 20
48.668162
 30
0.0
 10
360.747247
 20
48.441411
 30
0.0
 10
361.005851
 20
48.154561
 30
0.0
 10
361.198732
 20
47.820101
 30
0.0
 10
361.318377
 20
47.452761
 30
0.0
 10
361.358382
 20
47.068671
 30
0.0
 10
361.318377
 20
46.684591
 30
0.0
 10
361.198732
 20
46.317252
 30
0.0
 10
361.005851
 20
45.982781
 30
0.0
 10
360.747247
 20
45.695941
 30
0.0
 10
360.434669
 20
45.468810
 30
0.0
 10
360.082111
 20
45.311970
 30
0.0
 10
359.703598
 20
45.231471
 30
0.0
  0
LWPOLYLINE
  5
113
100
AcDbEntity
  8
Layer_1
 62
7
100
AcDbPolyline
 90
30
 70
1
 10
269.428049
 20
45.231471
 30
0.0
 10
269.049510
 20
45.311970
 30
0.0
 10
268.696921
 20
45.468810
 30
0.0
 10
268.384361
 20
45.695941
 30
0.0
 10
268.125781
 20
45.982781
 30
0.0
 10
267.932881
 20
46.317252
 30
0.0
 10
267.812840
 20
46.684591
 30
0.0
 10
267.772840
 20
47.068671
 30
0.0
 10
267.812840
 20
47.452761
 30
0.0
 10
267.932881
 20
47.820101
 30
0.0
 10
268.125781
 20
48.154561
 30
0.0
 10
268.384361
 20
48.441411
 30
0.0
 10
268.696921
 20
48.668162
 30
0.0
 10
269.049510
 20
48.825002
 30
0.0
 10
269.428049
 20
48.905501
 30
0.0
 10
269.813579
 20
48.905501
 30
0.0
 10
270.192089
 20
48.825002
 30
0.0
 10
270.544660
 20
48.668162
 30
0.0
 10
270.857231
 20
48.441411
 30
0.0
 10
271.115811
 20
48.154561
 30
0.0
 10
271.308710
 20
47.820101
 30
0.0
 10
271.428371
 20
47.452761
 30
0.0
 10
271.468371
 20
47.068671
 30
0.0
 10
271.428371
 20
46.684591
 30
0.0
 10
271.308710
 20
46.317252
 30
0.0
 10
271.115811
 20
45.982781
 30
0.0
 10
270.857231
 20
45.695941
 30
0.0
 10
270.544660
 20
45.468810
 30
0.0
 10
270.192089
 20
45.311970
 30
0.0
 10
269.813579
 20
45.231471
 30
0.0
  0
LWPOLYLINE
  5
114
100
AcDbEntity
  8
Layer_1
 62
7
100
AcDbPolyline
 90
30
 70
1
 10
89.647595
 20
45.231471
 30
0.0
 10
89.269762
 20
45.311970
 30
0.0
 10
88.916808
 20
45.468810
 30
0.0
 10
88.604248
 20
45.695941
 30
0.0
 10
88.345665
 20
45.982781
 30
0.0
 10
88.152390
 20
46.317252
 30
0.0
 10
88.033102
 20
46.684591
 30
0.0
 10
87.992703
 20
47.068671
 30
0.0
 10
88.033102
 20
47.452761
 30
0.0
 10
88.152390
 20
47.820101
 30
0.0
 10
88.345665
 20
48.154561
 30
0.0
 10
88.604248
 20
48.441411
 30
0.0
 10
88.916808
 20
48.668162
 30
0.0
 10
89.269762
 20
48.825002
 30
0.0
 10
89.647595
 20
48.905501
 30
0.0
 10
90.033919
 20
48.905501
 30
0.0
 10
90.411749
 20
48.825002
 30
0.0
 10
90.764703
 20
48.668162
 30
0.0
 10
91.077266
 20
48.441411
 30
0.0
 10
91.335846
 20
48.154561
 30
0.0
 10
91.528743
 20
47.820101
 30
0.0
 10
91.648030
 20
47.452761
 30
0.0
 10
91.688432
 20
47.068671
 30
0.0
 10
91.648030
 20
46.684591
 30
0.0
 10
91.528743
 20
46.317252
 30
0.0
 10
91.335846
 20
45.982781
 30
0.0
 10
91.077266
 20
45.695941
 30
0.0
 10
90.764703
 20
45.468810
 30
0.0
 10
90.411749
 20
45.311970
 30
0.0
 10
90.033919
 20
45.231471
 30
0.0
  0
LWPOLYLINE
  5
115
100
AcDbEntity
  8
Layer_1
 62
7
100
AcDbPolyline
 90
30
 70
1
 10
179.538030
 20
45.231471
 30
0.0
 10
179.159480
 20
45.311970
 30
0.0
 10
178.806902
 20
45.468810
 30
0.0
 10
178.494341
 20
45.695941
 30
0.0
 10
178.235761
 20
45.982781
 30
0.0
 10
178.042862
 20
46.317252
 30
0.0
 10
177.922820
 20
46.684591
 30
0.0
 10
177.882820
 20
47.068671
 30
0.0
 10
177.922820
 20
47.452761
 30
0.0
 10
178.042862
 20
47.820101
 30
0.0
 10
178.235761
 20
48.154561
 30
0.0
 10
178.494341
 20
48.441411
 30
0.0
 10
178.806902
 20
48.668162
 30
0.0
 10
179.159480
 20
48.825002
 30
0.0
 10
179.538030
 20
48.905501
 30
0.0
 10
179.923552
 20
48.905501
 30
0.0
 10
180.302073
 20
48.825002
 30
0.0
 10
180.654640
 20
48.668162
 30
0.0
 10
180.967211
 20
48.441411
 30
0.0
 10
181.225791
 20
48.154561
 30
0.0
 10
181.418691
 20
47.820101
 30
0.0
 10
181.538351
 20
47.452761
 30
0.0
 10
181.578351
 20
47.068671
 30
0.0
 10
181.538351
 20
46.684591
 30
0.0
 10
181.418691
 20
46.317252
 30
0.0
 10
181.225791
 20
45.982781
 30
0.0
 10
180.967211
 20
45.695941
 30
0.0
 10
180.654640
 20
45.468810
 30
0.0
 10
180.302073
 20
45.311970
 30
0.0
 10
179.923552
 20
45.231471
 30
0.0
  0
LWPOLYLINE
  5
116
100
AcDbEntity
  8
Layer_1
 62
7
100
AcDbPolyline
 90
4
 70
1
 10
850.539537
 20
60.134674
 30
0.0
 10
440.737191
 20
60.134674
 30
0.0
 10
440.737191
 20
0.132295
 30
0.0
 10
850.539537
 20
0.132295
 30
0.0
  0
LWPOLYLINE
  5
117
100
AcDbEntity
  8
Layer_1
 62
7
100
AcDbPolyline
 90
30
 70
1
 10
602.347949
 20
43.929144
 30
0.0
 10
601.969399
 20
44.008844
 30
0.0
 10
601.616831
 20
44.164864
 30
0.0
 10
601.304260
 20
44.390395
 30
0.0
 10
601.045670
 20
44.675224
 30
0.0
 10
600.852780
 20
45.007284
 30
0.0
 10
600.733109
 20
45.371824
 30
0.0
 10
600.693110
 20
45.753295
 30
0.0
 10
600.733109
 20
46.134724
 30
0.0
 10
600.852780
 20
46.499264
 30
0.0
 10
601.045670
 20
46.831324
 30
0.0
 10
601.304260
 20
47.116164
 30
0.0
 10
601.616831
 20
47.341303
 30
0.0
 10
601.969399
 20
47.497325
 30
0.0
 10
602.347949
 20
47.577023
 30
0.0
 10
602.733489
 20
47.577023
 30
0.0
 10
603.111999
 20
47.497325
 30
0.0
 10
603.464588
 20
47.341303
 30
0.0
 10
603.777148
 20
47.116164
 30
0.0
 10
604.035728
 20
46.831324
 30
0.0
 10
604.228628
 20
46.499264
 30
0.0
 10
604.348299
 20
46.134724
 30
0.0
 10
604.388299
 20
45.753295
 30
0.0
 10
604.348299
 20
45.371824
 30
0.0
 10
604.228628
 20
45.007284
 30
0.0
 10
604.035728
 20
44.675224
 30
0.0
 10
603.777148
 20
44.390395
 30
0.0
 10
603.464588
 20
44.164864
 30
0.0
 10
603.111999
 20
44.008844
 30
0.0
 10
602.733489
 20
43.929144
 30
0.0
  0
LWPOLYLINE
  5
118
100
AcDbEntity
  8
Layer_1
 62
7
100
AcDbPolyline
 90
30
 70
1
 10
502.468840
 20
43.929144
 30
0.0
 10
502.091007
 20
44.008844
 30
0.0
 10
501.738050
 20
44.164864
 30
0.0
 10
501.425484
 20
44.390395
 30
0.0
 10
501.166899
 20
44.675224
 30
0.0
 10
500.973624
 20
45.007284
 30
0.0
 10
500.854334
 20
45.371824
 30
0.0
 10
500.813934
 20
45.753295
 30
0.0
 10
500.854334
 20
46.134724
 30
0.0
 10
500.973624
 20
46.499264
 30
0.0
 10
501.166899
 20
46.831324
 30
0.0
 10
501.425484
 20
47.116164
 30
0.0
 10
501.738050
 20
47.341303
 30
0.0
 10
502.091007
 20
47.497325
 30
0.0
 10
502.468840
 20
47.577023
 30
0.0
 10
502.855168
 20
47.577023
 30
0.0
 10
503.233001
 20
47.497325
 30
0.0
 10
503.585961
 20
47.341303
 30
0.0
 10
503.898524
 20
47.116164
 30
0.0
 10
504.157109
 20
46.831324
 30
0.0
 10
504.350006
 20
46.499264
 30
0.0
 10
504.469674
 20
46.134724
 30
0.0
 10
504.510063
 20
45.753295
 30
0.0
 10
504.469674
 20
45.371824
 30
0.0
 10
504.350006
 20
45.007284
 30
0.0
 10
504.157109
 20
44.675224
 30
0.0
 10
503.898524
 20
44.390395
 30
0.0
 10
503.585961
 20
44.164864
 30
0.0
 10
503.233001
 20
44.008844
 30
0.0
 10
502.855168
 20
43.929144
 30
0.0
  0
LWPOLYLINE
  5
119
100
AcDbEntity
  8
Layer_1
 62
7
100
AcDbPolyline
 90
30
 70
1
 10
672.263038
 20
43.929144
 30
0.0
 10
671.884488
 20
44.008844
 30
0.0
 10
671.531910
 20
44.164864
 30
0.0
 10
671.219339
 20
44.390395
 30
0.0
 10
670.960759
 20
44.675224
 30
0.0
 10
670.767859
 20
45.007284
 30
0.0
 10
670.648188
 20
45.371824
 30
0.0
 10
670.608188
 20
45.753295
 30
0.0
 10
670.648188
 20
46.134724
 30
0.0
 10
670.767859
 20
46.499264
 30
0.0
 10
670.960759
 20
46.831324
 30
0.0
 10
671.219339
 20
47.116164
 30
0.0
 10
671.531910
 20
47.341303
 30
0.0
 10
671.884488
 20
47.497325
 30
0.0
 10
672.263038
 20
47.577023
 30
0.0
 10
672.648568
 20
47.577023
 30
0.0
 10
673.027128
 20
47.497325
 30
0.0
 10
673.379699
 20
47.341303
 30
0.0
 10
673.692270
 20
47.116164
 30
0.0
 10
673.950849
 20
46.831324
 30
0.0
 10
674.143749
 20
46.499264
 30
0.0
 10
674.263418
 20
46.134724
 30
0.0
 10
674.303417
 20
45.753295
 30
0.0
 10
674.263418
 20
45.371824
 30
0.0
 10
674.143749
 20
45.007284
 30
0.0
 10
673.950849
 20
44.675224
 30
0.0
 10
673.692270
 20
44.390395
 30
0.0
 10
673.379699
 20
44.164864
 30
0.0
 10
673.027128
 20
44.008844
 30
0.0
 10
672.648568
 20
43.929144
 30
0.0
  0
LWPOLYLINE
  5
11a
100
AcDbEntity
  8
Layer_1
 62
7
100
AcDbPolyline
 90
30
 70
1
 10
722.202414
 20
43.929144
 30
0.0
 10
721.823848
 20
44.008844
 30
0.0
 10
721.471291
 20
44.164864
 30
0.0
 10
721.158712
 20
44.390395
 30
0.0
 10
720.900108
 20
44.675224
 30
0.0
 10
720.707227
 20
45.007284
 30
0.0
 10
720.587186
 20
45.371824
 30
0.0
 10
720.547181
 20
45.753295
 30
0.0
 10
720.587186
 20
46.134724
 30
0.0
 10
720.707227
 20
46.499264
 30
0.0
 10
720.900108
 20
46.831324
 30
0.0
 10
721.158712
 20
47.116164
 30
0.0
 10
721.471291
 20
47.341303
 30
0.0
 10
721.823848
 20
47.497325
 30
0.0
 10
722.202414
 20
47.577023
 30
0.0
 10
722.587938
 20
47.577023
 30
0.0
 10
722.966451
 20
47.497325
 30
0.0
 10
723.319035
 20
47.341303
 30
0.0
 10
723.631587
 20
47.116164
 30
0.0
 10
723.890191
 20
46.831324
 30
0.0
 10
724.083099
 20
46.499264
 30
0.0
 10
724.203140
 20
46.134724
 30
0.0
 10
724.243119
 20
45.753295
 30
0.0
 10
724.203140
 20
45.371824
 30
0.0
 10
724.083099
 20
45.007284
 30
0.0
 10
723.890191
 20
44.675224
 30
0.0
 10
723.631587
 20
44.390395
 30
0.0
 10
723.319035
 20
44.164864
 30
0.0
 10
722.966451
 20
44.008844
 30
0.0
 10
722.587938
 20
43.929144
 30
0.0
  0
LWPOLYLINE
  5
11b
100
AcDbEntity
  8
Layer_1
 62
7
100
AcDbPolyline
 90
30
 70
1
 10
552.408591
 20
43.929144
 30
0.0
 10
552.030031
 20
44.008844
 30
0.0
 10
551.677460
 20
44.164864
 30
0.0
 10
551.364889
 20
44.390395
 30
0.0
 10
551.106299
 20
44.675224
 30
0.0
 10
550.913410
 20
45.007284
 30
0.0
 10
550.793360
 20
45.371824
 30
0.0
 10
550.753361
 20
45.753295
 30
0.0
 10
550.793360
 20
46.134724
 30
0.0
 10
550.913410
 20
46.499264
 30
0.0
 10
551.106299
 20
46.831324
 30
0.0
 10
551.364889
 20
47.116164
 30
0.0
 10
551.677460
 20
47.341303
 30
0.0
 10
552.030031
 20
47.497325
 30
0.0
 10
552.408591
 20
47.577023
 30
0.0
 10
552.794121
 20
47.577023
 30
0.0
 10
553.172671
 20
47.497325
 30
0.0
 10
553.525249
 20
47.341303
 30
0.0
 10
553.837810
 20
47.116164
 30
0.0
 10
554.096400
 20
46.831324
 30
0.0
 10
554.289300
 20
46.499264
 30
0.0
 10
554.408971
 20
46.134724
 30
0.0
 10
554.448971
 20
45.753295
 30
0.0
 10
554.408971
 20
45.371824
 30
0.0
 10
554.289300
 20
45.007284
 30
0.0
 10
554.096400
 20
44.675224
 30
0.0
 10
553.837810
 20
44.390395
 30
0.0
 10
553.525249
 20
44.164864
 30
0.0
 10
553.172671
 20
44.008844
 30
0.0
 10
552.794121
 20
43.929144
 30
0.0
  0
LWPOLYLINE
  5
11c
100
AcDbEntity
  8
Layer_1
 62
7
100
AcDbPolyline
 90
30
 70
1
 10
772.141750
 20
43.929144
 30
0.0
 10
771.763237
 20
44.008844
 30
0.0
 10
771.410627
 20
44.164864
 30
0.0
 10
771.098075
 20
44.390395
 30
0.0
 10
770.839497
 20
44.675224
 30
0.0
 10
770.646590
 20
45.007284
 30
0.0
 10
770.526919
 20
45.371824
 30
0.0
 10
770.486940
 20
45.753295
 30
0.0
 10
770.526919
 20
46.134724
 30
0.0
 10
770.646590
 20
46.499264
 30
0.0
 10
770.839497
 20
46.831324
 30
0.0
 10
771.098075
 20
47.116164
 30
0.0
 10
771.410627
 20
47.341303
 30
0.0
 10
771.763237
 20
47.497325
 30
0.0
 10
772.141750
 20
47.577023
 30
0.0
 10
772.527275
 20
47.577023
 30
0.0
 10
772.905814
 20
47.497325
 30
0.0
 10
773.258398
 20
47.341303
 30
0.0
 10
773.570976
 20
47.116164
 30
0.0
 10
773.829554
 20
46.831324
 30
0.0
 10
774.022435
 20
46.499264
 30
0.0
 10
774.142106
 20
46.134724
 30
0.0
 10
774.182111
 20
45.753295
 30
0.0
 10
774.142106
 20
45.371824
 30
0.0
 10
774.022435
 20
45.007284
 30
0.0
 10
773.829554
 20
44.675224
 30
0.0
 10
773.570976
 20
44.390395
 30
0.0
 10
773.258398
 20
44.164864
 30
0.0
 10
772.905814
 20
44.008844
 30
0.0
 10
772.527275
 20
43.929144
 30
0.0
  0
LWPOLYLINE
  5
11d
100
AcDbEntity
  8
Layer_1
 62
7
100
AcDbPolyline
 90
4
 70
1
 10
675.452188
 20
16.992471
 30
0.0
 10
675.452188
 20
39.803295
 30
0.0
 10
771.335750
 20
39.803295
 30
0.0
 10
771.335750
 20
16.992471
 30
0.0
  0
LWPOLYLINE
  5
11e
100
AcDbEntity
  8
Layer_1
 62
7
100
AcDbPolyline
 90
4
 70
1
 10
505.658365
 20
16.992471
 30
0.0
 10
505.658365
 20
39.803295
 30
0.0
 10
601.541930
 20
39.803295
 30
0.0
 10
601.541930
 20
16.992471
 30
0.0
  0
LWPOLYLINE
  5
11f
100
AcDbEntity
  8
Layer_1
 62
7
100
AcDbPolyline
 90
30
 70
1
 10
772.141750
 20
9.217055
 30
0.0
 10
771.763237
 20
9.296747
 30
0.0
 10
771.410627
 20
9.452772
 30
0.0
 10
771.098075
 20
9.677906
 30
0.0
 10
770.839497
 20
9.962756
 30
0.0
 10
770.646590
 20
10.294808
 30
0.0
 10
770.526919
 20
10.659351
 30
0.0
 10
770.486940
 20
11.040774
 30
0.0
 10
770.526919
 20
11.422224
 30
0.0
 10
770.646590
 20
11.787138
 30
0.0
 10
770.839497
 20
12.119190
 30
0.0
 10
771.098075
 20
12.404014
 30
0.0
 10
771.410627
 20
12.629174
 30
0.0
 10
771.763237
 20
12.785199
 30
0.0
 10
772.141750
 20
12.864891
 30
0.0
 10
772.527275
 20
12.864891
 30
0.0
 10
772.905814
 20
12.785199
 30
0.0
 10
773.258398
 20
12.629174
 30
0.0
 10
773.570976
 20
12.404014
 30
0.0
 10
773.829554
 20
12.119190
 30
0.0
 10
774.022435
 20
11.787138
 30
0.0
 10
774.142106
 20
11.422224
 30
0.0
 10
774.182111
 20
11.040774
 30
0.0
 10
774.142106
 20
10.659351
 30
0.0
 10
774.022435
 20
10.294808
 30
0.0
 10
773.829554
 20
9.962756
 30
0.0
 10
773.570976
 20
9.677906
 30
0.0
 10
773.258398
 20
9.452772
 30
0.0
 10
772.905814
 20
9.296747
 30
0.0
 10
772.527275
 20
9.217055
 30
0.0
  0
LWPOLYLINE
  5
120
100
AcDbEntity
  8
Layer_1
 62
7
100
AcDbPolyline
 90
30
 70
1
 10
672.263038
 20
9.217055
 30
0.0
 10
671.884488
 20
9.296747
 30
0.0
 10
671.531910
 20
9.452772
 30
0.0
 10
671.219339
 20
9.677906
 30
0.0
 10
670.960759
 20
9.962756
 30
0.0
 10
670.767859
 20
10.294808
 30
0.0
 10
670.648188
 20
10.659351
 30
0.0
 10
670.608188
 20
11.040774
 30
0.0
 10
670.648188
 20
11.422224
 30
0.0
 10
670.767859
 20
11.787138
 30
0.0
 10
670.960759
 20
12.119190
 30
0.0
 10
671.219339
 20
12.404014
 30
0.0
 10
671.531910
 20
12.629174
 30
0.0
 10
671.884488
 20
12.785199
 30
0.0
 10
672.263038
 20
12.864891
 30
0.0
 10
672.648568
 20
12.864891
 30
0.0
 10
673.027128
 20
12.785199
 30
0.0
 10
673.379699
 20
12.629174
 30
0.0
 10
673.692270
 20
12.404014
 30
0.0
 10
673.950849
 20
12.119190
 30
0.0
 10
674.143749
 20
11.787138
 30
0.0
 10
674.263418
 20
11.422224
 30
0.0
 10
674.303417
 20
11.040774
 30
0.0
 10
674.263418
 20
10.659351
 30
0.0
 10
674.143749
 20
10.294808
 30
0.0
 10
673.950849
 20
9.962756
 30
0.0
 10
673.692270
 20
9.677906
 30
0.0
 10
673.379699
 20
9.452772
 30
0.0
 10
673.027128
 20
9.296747
 30
0.0
 10
672.648568
 20
9.217055
 30
0.0
  0
LWPOLYLINE
  5
121
100
AcDbEntity
  8
Layer_1
 62
7
100
AcDbPolyline
 90
30
 70
1
 10
502.468840
 20
9.217055
 30
0.0
 10
502.091007
 20
9.296747
 30
0.0
 10
501.738050
 20
9.452772
 30
0.0
 10
501.425484
 20
9.677906
 30
0.0
 10
501.166899
 20
9.962756
 30
0.0
 10
500.973624
 20
10.294808
 30
0.0
 10
500.854334
 20
10.659351
 30
0.0
 10
500.813934
 20
11.040774
 30
0.0
 10
500.854334
 20
11.422224
 30
0.0
 10
500.973624
 20
11.787138
 30
0.0
 10
501.166899
 20
12.119190
 30
0.0
 10
501.425484
 20
12.404014
 30
0.0
 10
501.738050
 20
12.629174
 30
0.0
 10
502.091007
 20
12.785199
 30
0.0
 10
502.468840
 20
12.864891
 30
0.0
 10
502.855168
 20
12.864891
 30
0.0
 10
503.233001
 20
12.785199
 30
0.0
 10
503.585961
 20
12.629174
 30
0.0
 10
503.898524
 20
12.404014
 30
0.0
 10
504.157109
 20
12.119190
 30
0.0
 10
504.350006
 20
11.787138
 30
0.0
 10
504.469674
 20
11.422224
 30
0.0
 10
504.510063
 20
11.040774
 30
0.0
 10
504.469674
 20
10.659351
 30
0.0
 10
504.350006
 20
10.294808
 30
0.0
 10
504.157109
 20
9.962756
 30
0.0
 10
503.898524
 20
9.677906
 30
0.0
 10
503.585961
 20
9.452772
 30
0.0
 10
503.233001
 20
9.296747
 30
0.0
 10
502.855168
 20
9.217055
 30
0.0
  0
LWPOLYLINE
  5
122
100
AcDbEntity
  8
Layer_1
 62
7
100
AcDbPolyline
 90
30
 70
1
 10
602.347949
 20
9.217055
 30
0.0
 10
601.969399
 20
9.296747
 30
0.0
 10
601.616831
 20
9.452772
 30
0.0
 10
601.304260
 20
9.677906
 30
0.0
 10
601.045670
 20
9.962756
 30
0.0
 10
600.852780
 20
10.294808
 30
0.0
 10
600.733109
 20
10.659351
 30
0.0
 10
600.693110
 20
11.040774
 30
0.0
 10
600.733109
 20
11.422224
 30
0.0
 10
600.852780
 20
11.787138
 30
0.0
 10
601.045670
 20
12.119190
 30
0.0
 10
601.304260
 20
12.404014
 30
0.0
 10
601.616831
 20
12.629174
 30
0.0
 10
601.969399
 20
12.785199
 30
0.0
 10
602.347949
 20
12.864891
 30
0.0
 10
602.733489
 20
12.864891
 30
0.0
 10
603.111999
 20
12.785199
 30
0.0
 10
603.464588
 20
12.629174
 30
0.0
 10
603.777148
 20
12.404014
 30
0.0
 10
604.035728
 20
12.119190
 30
0.0
 10
604.228628
 20
11.787138
 30
0.0
 10
604.348299
 20
11.422224
 30
0.0
 10
604.388299
 20
11.040774
 30
0.0
 10
604.348299
 20
10.659351
 30
0.0
 10
604.228628
 20
10.294808
 30
0.0
 10
604.035728
 20
9.962756
 30
0.0
 10
603.777148
 20
9.677906
 30
0.0
 10
603.464588
 20
9.452772
 30
0.0
 10
603.111999
 20
9.296747
 30
0.0
 10
602.733489
 20
9.217055
 30
0.0
  0
LWPOLYLINE
  5
123
100
AcDbEntity
  8
Layer_1
 62
7
100
AcDbPolyline
 90
30
 70
1
 10
722.202414
 20
9.217055
 30
0.0
 10
721.823848
 20
9.296747
 30
0.0
 10
721.471291
 20
9.452772
 30
0.0
 10
721.158712
 20
9.677906
 30
0.0
 10
720.900108
 20
9.962756
 30
0.0
 10
720.707227
 20
10.294808
 30
0.0
 10
720.587186
 20
10.659351
 30
0.0
 10
720.547181
 20
11.040774
 30
0.0
 10
720.587186
 20
11.422224
 30
0.0
 10
720.707227
 20
11.787138
 30
0.0
 10
720.900108
 20
12.119190
 30
0.0
 10
721.158712
 20
12.404014
 30
0.0
 10
721.471291
 20
12.629174
 30
0.0
 10
721.823848
 20
12.785199
 30
0.0
 10
722.202414
 20
12.864891
 30
0.0
 10
722.587938
 20
12.864891
 30
0.0
 10
722.966451
 20
12.785199
 30
0.0
 10
723.319035
 20
12.629174
 30
0.0
 10
723.631587
 20
12.404014
 30
0.0
 10
723.890191
 20
12.119190
 30
0.0
 10
724.083099
 20
11.787138
 30
0.0
 10
724.203140
 20
11.422224
 30
0.0
 10
724.243119
 20
11.040774
 30
0.0
 10
724.203140
 20
10.659351
 30
0.0
 10
724.083099
 20
10.294808
 30
0.0
 10
723.890191
 20
9.962756
 30
0.0
 10
723.631587
 20
9.677906
 30
0.0
 10
723.319035
 20
9.452772
 30
0.0
 10
722.966451
 20
9.296747
 30
0.0
 10
722.587938
 20
9.217055
 30
0.0
  0
LWPOLYLINE
  5
124
100
AcDbEntity
  8
Layer_1
 62
7
100
AcDbPolyline
 90
30
 70
1
 10
552.408591
 20
9.217055
 30
0.0
 10
552.030031
 20
9.296747
 30
0.0
 10
551.677460
 20
9.452772
 30
0.0
 10
551.364889
 20
9.677906
 30
0.0
 10
551.106299
 20
9.962756
 30
0.0
 10
550.913410
 20
10.294808
 30
0.0
 10
550.793360
 20
10.659351
 30
0.0
 10
550.753361
 20
11.040774
 30
0.0
 10
550.793360
 20
11.422224
 30
0.0
 10
550.913410
 20
11.787138
 30
0.0
 10
551.106299
 20
12.119190
 30
0.0
 10
551.364889
 20
12.404014
 30
0.0
 10
551.677460
 20
12.629174
 30
0.0
 10
552.030031
 20
12.785199
 30
0.0
 10
552.408591
 20
12.864891
 30
0.0
 10
552.794121
 20
12.864891
 30
0.0
 10
553.172671
 20
12.785199
 30
0.0
 10
553.525249
 20
12.629174
 30
0.0
 10
553.837810
 20
12.404014
 30
0.0
 10
554.096400
 20
12.119190
 30
0.0
 10
554.289300
 20
11.787138
 30
0.0
 10
554.408971
 20
11.422224
 30
0.0
 10
554.448971
 20
11.040774
 30
0.0
 10
554.408971
 20
10.659351
 30
0.0
 10
554.289300
 20
10.294808
 30
0.0
 10
554.096400
 20
9.962756
 30
0.0
 10
553.837810
 20
9.677906
 30
0.0
 10
553.525249
 20
9.452772
 30
0.0
 10
553.172671
 20
9.296747
 30
0.0
 10
552.794121
 20
9.217055
 30
0.0
  0
LWPOLYLINE
  5
125
100
AcDbEntity
  8
Layer_1
 62
7
100
AcDbPolyline
 90
4
 70
1
 10
851.514487
 20
123.327945
 30
0.0
 10
441.712093
 20
123.327945
 30
0.0
 10
441.712093
 20
63.325547
 30
0.0
 10
851.514487
 20
63.325547
 30
0.0
  0
LWPOLYLINE
  5
126
100
AcDbEntity
  8
Layer_1
 62
7
100
AcDbPolyline
 90
30
 70
1
 10
772.117898
 20
109.891748
 30
0.0
 10
771.739359
 20
109.971445
 30
0.0
 10
771.386748
 20
110.127436
 30
0.0
 10
771.074196
 20
110.352927
 30
0.0
 10
770.815619
 20
110.637716
 30
0.0
 10
770.622711
 20
110.969716
 30
0.0
 10
770.503040
 20
111.334206
 30
0.0
 10
770.463061
 20
111.715536
 30
0.0
 10
770.503040
 20
112.096936
 30
0.0
 10
770.622711
 20
112.461415
 30
0.0
 10
770.815619
 20
112.793425
 30
0.0
 10
771.074196
 20
113.078207
 30
0.0
 10
771.386748
 20
113.303327
 30
0.0
 10
771.739359
 20
113.459315
 30
0.0
 10
772.117898
 20
113.539016
 30
0.0
 10
772.503396
 20
113.539016
 30
0.0
 10
772.881935
 20
113.459315
 30
0.0
 10
773.234519
 20
113.303327
 30
0.0
 10
773.547098
 20
113.078207
 30
0.0
 10
773.805675
 20
112.793425
 30
0.0
 10
773.998583
 20
112.461415
 30
0.0
 10
774.118254
 20
112.096936
 30
0.0
 10
774.158232
 20
111.715536
 30
0.0
 10
774.118254
 20
111.334206
 30
0.0
 10
773.998583
 20
110.969716
 30
0.0
 10
773.805675
 20
110.637716
 30
0.0
 10
773.547098
 20
110.352927
 30
0.0
 10
773.234519
 20
110.127436
 30
0.0
 10
772.881935
 20
109.971445
 30
0.0
 10
772.503396
 20
109.891748
 30
0.0
  0
LWPOLYLINE
  5
127
100
AcDbEntity
  8
Layer_1
 62
7
100
AcDbPolyline
 90
30
 70
1
 10
722.178509
 20
109.891748
 30
0.0
 10
721.799969
 20
109.971445
 30
0.0
 10
721.447386
 20
110.127436
 30
0.0
 10
721.134833
 20
110.352927
 30
0.0
 10
720.876230
 20
110.637716
 30
0.0
 10
720.683348
 20
110.969716
 30
0.0
 10
720.563677
 20
111.334206
 30
0.0
 10
720.523672
 20
111.715536
 30
0.0
 10
720.563677
 20
112.096936
 30
0.0
 10
720.683348
 20
112.461415
 30
0.0
 10
720.876230
 20
112.793425
 30
0.0
 10
721.134833
 20
113.078207
 30
0.0
 10
721.447386
 20
113.303327
 30
0.0
 10
721.799969
 20
113.459315
 30
0.0
 10
722.178509
 20
113.539016
 30
0.0
 10
722.564060
 20
113.539016
 30
0.0
 10
722.942573
 20
113.459315
 30
0.0
 10
723.295156
 20
113.303327
 30
0.0
 10
723.607709
 20
113.078207
 30
0.0
 10
723.866312
 20
112.793425
 30
0.0
 10
724.059194
 20
112.461415
 30
0.0
 10
724.178865
 20
112.096936
 30
0.0
 10
724.218870
 20
111.715536
 30
0.0
 10
724.178865
 20
111.334206
 30
0.0
 10
724.059194
 20
110.969716
 30
0.0
 10
723.866312
 20
110.637716
 30
0.0
 10
723.607709
 20
110.352927
 30
0.0
 10
723.295156
 20
110.127436
 30
0.0
 10
722.942573
 20
109.971445
 30
0.0
 10
722.564060
 20
109.891748
 30
0.0
  0
LWPOLYLINE
  5
128
100
AcDbEntity
  8
Layer_1
 62
7
100
AcDbPolyline
 90
30
 70
1
 10
672.239151
 20
109.891748
 30
0.0
 10
671.860601
 20
109.971445
 30
0.0
 10
671.508023
 20
110.127436
 30
0.0
 10
671.195452
 20
110.352927
 30
0.0
 10
670.936872
 20
110.637716
 30
0.0
 10
670.743972
 20
110.969716
 30
0.0
 10
670.623923
 20
111.334206
 30
0.0
 10
670.583921
 20
111.715536
 30
0.0
 10
670.623923
 20
112.096936
 30
0.0
 10
670.743972
 20
112.461415
 30
0.0
 10
670.936872
 20
112.793425
 30
0.0
 10
671.195452
 20
113.078207
 30
0.0
 10
671.508023
 20
113.303327
 30
0.0
 10
671.860601
 20
113.459315
 30
0.0
 10
672.239151
 20
113.539016
 30
0.0
 10
672.624681
 20
113.539016
 30
0.0
 10
673.003242
 20
113.459315
 30
0.0
 10
673.355812
 20
113.303327
 30
0.0
 10
673.668383
 20
113.078207
 30
0.0
 10
673.926963
 20
112.793425
 30
0.0
 10
674.119863
 20
112.461415
 30
0.0
 10
674.239912
 20
112.096936
 30
0.0
 10
674.279912
 20
111.715536
 30
0.0
 10
674.239912
 20
111.334206
 30
0.0
 10
674.119863
 20
110.969716
 30
0.0
 10
673.926963
 20
110.637716
 30
0.0
 10
673.668383
 20
110.352927
 30
0.0
 10
673.355812
 20
110.127436
 30
0.0
 10
673.003242
 20
109.971445
 30
0.0
 10
672.624681
 20
109.891748
 30
0.0
  0
LWPOLYLINE
  5
129
100
AcDbEntity
  8
Layer_1
 62
7
100
AcDbPolyline
 90
30
 70
1
 10
501.446162
 20
105.131997
 30
0.0
 10
501.068289
 20
105.211697
 30
0.0
 10
500.715332
 20
105.367687
 30
0.0
 10
500.402769
 20
105.593176
 30
0.0
 10
500.144184
 20
105.877966
 30
0.0
 10
499.950906
 20
106.209967
 30
0.0
 10
499.831619
 20
106.574447
 30
0.0
 10
499.791227
 20
106.955777
 30
0.0
 10
499.831619
 20
107.337188
 30
0.0
 10
499.950906
 20
107.701667
 30
0.0
 10
500.144184
 20
108.033666
 30
0.0
 10
500.402769
 20
108.318456
 30
0.0
 10
500.715332
 20
108.543566
 30
0.0
 10
501.068289
 20
108.699556
 30
0.0
 10
501.446162
 20
108.779257
 30
0.0
 10
501.832490
 20
108.779257
 30
0.0
 10
502.210323
 20
108.699556
 30
0.0
 10
502.563280
 20
108.543566
 30
0.0
 10
502.875846
 20
108.318456
 30
0.0
 10
503.134431
 20
108.033666
 30
0.0
 10
503.327328
 20
107.701667
 30
0.0
 10
503.446618
 20
107.337188
 30
0.0
 10
503.487017
 20
106.955777
 30
0.0
 10
503.446618
 20
106.574447
 30
0.0
 10
503.327328
 20
106.209967
 30
0.0
 10
503.134431
 20
105.877966
 30
0.0
 10
502.875846
 20
105.593176
 30
0.0
 10
502.563280
 20
105.367687
 30
0.0
 10
502.210323
 20
105.211697
 30
0.0
 10
501.832490
 20
105.131997
 30
0.0
  0
LWPOLYLINE
  5
12a
100
AcDbEntity
  8
Layer_1
 62
7
100
AcDbPolyline
 90
30
 70
1
 10
552.184955
 20
105.131997
 30
0.0
 10
551.806402
 20
105.211697
 30
0.0
 10
551.453824
 20
105.367687
 30
0.0
 10
551.141264
 20
105.593176
 30
0.0
 10
550.882673
 20
105.877966
 30
0.0
 10
550.689773
 20
106.209967
 30
0.0
 10
550.569734
 20
106.574447
 30
0.0
 10
550.529735
 20
106.955777
 30
0.0
 10
550.569734
 20
107.337188
 30
0.0
 10
550.689773
 20
107.701667
 30
0.0
 10
550.882673
 20
108.033666
 30
0.0
 10
551.141264
 20
108.318456
 30
0.0
 10
551.453824
 20
108.543566
 30
0.0
 10
551.806402
 20
108.699556
 30
0.0
 10
552.184955
 20
108.779257
 30
0.0
 10
552.570453
 20
108.779257
 30
0.0
 10
552.949003
 20
108.699556
 30
0.0
 10
553.301584
 20
108.543566
 30
0.0
 10
553.614144
 20
108.318456
 30
0.0
 10
553.872735
 20
108.033666
 30
0.0
 10
554.065634
 20
107.701667
 30
0.0
 10
554.185673
 20
107.337188
 30
0.0
 10
554.225673
 20
106.955777
 30
0.0
 10
554.185673
 20
106.574447
 30
0.0
 10
554.065634
 20
106.209967
 30
0.0
 10
553.872735
 20
105.877966
 30
0.0
 10
553.614144
 20
105.593176
 30
0.0
 10
553.301584
 20
105.367687
 30
0.0
 10
552.949003
 20
105.211697
 30
0.0
 10
552.570453
 20
105.131997
 30
0.0
  0
LWPOLYLINE
  5
12b
100
AcDbEntity
  8
Layer_1
 62
7
100
AcDbPolyline
 90
4
 70
1
 10
675.428301
 20
82.959429
 30
0.0
 10
675.428301
 20
105.766507
 30
0.0
 10
771.311871
 20
105.766507
 30
0.0
 10
771.311871
 20
82.959429
 30
0.0
  0
LWPOLYLINE
  5
12c
100
AcDbEntity
  8
Layer_1
 62
7
100
AcDbPolyline
 90
4
 70
1
 10
496.645376
 20
83.653537
 30
0.0
 10
496.645376
 20
101.502567
 30
0.0
 10
554.575023
 20
101.502567
 30
0.0
 10
554.575023
 20
83.653537
 30
0.0
  0
LWPOLYLINE
  5
12d
100
AcDbEntity
  8
Layer_1
 62
7
100
AcDbPolyline
 90
30
 70
1
 10
552.184955
 20
75.383641
 30
0.0
 10
551.806402
 20
75.463334
 30
0.0
 10
551.453824
 20
75.619332
 30
0.0
 10
551.141264
 20
75.844837
 30
0.0
 10
550.882673
 20
76.129608
 30
0.0
 10
550.689773
 20
76.461607
 30
0.0
 10
550.569734
 20
76.826097
 30
0.0
 10
550.529735
 20
77.207414
 30
0.0
 10
550.569734
 20
77.588838
 30
0.0
 10
550.689773
 20
77.953328
 30
0.0
 10
550.882673
 20
78.285327
 30
0.0
 10
551.141264
 20
78.570098
 30
0.0
 10
551.453824
 20
78.795205
 30
0.0
 10
551.806402
 20
78.951204
 30
0.0
 10
552.184955
 20
79.030896
 30
0.0
 10
552.570453
 20
79.030896
 30
0.0
 10
552.949003
 20
78.951204
 30
0.0
 10
553.301584
 20
78.795205
 30
0.0
 10
553.614144
 20
78.570098
 30
0.0
 10
553.872735
 20
78.285327
 30
0.0
 10
554.065634
 20
77.953328
 30
0.0
 10
554.185673
 20
77.588838
 30
0.0
 10
554.225673
 20
77.207414
 30
0.0
 10
554.185673
 20
76.826097
 30
0.0
 10
554.065634
 20
76.461607
 30
0.0
 10
553.872735
 20
76.129608
 30
0.0
 10
553.614144
 20
75.844837
 30
0.0
 10
553.301584
 20
75.619332
 30
0.0
 10
552.949003
 20
75.463334
 30
0.0
 10
552.570453
 20
75.383641
 30
0.0
  0
LWPOLYLINE
  5
12e
100
AcDbEntity
  8
Layer_1
 62
7
100
AcDbPolyline
 90
30
 70
1
 10
501.446162
 20
75.383641
 30
0.0
 10
501.068289
 20
75.463334
 30
0.0
 10
500.715332
 20
75.619332
 30
0.0
 10
500.402769
 20
75.844837
 30
0.0
 10
500.144184
 20
76.129608
 30
0.0
 10
499.950906
 20
76.461607
 30
0.0
 10
499.831619
 20
76.826097
 30
0.0
 10
499.791227
 20
77.207414
 30
0.0
 10
499.831619
 20
77.588838
 30
0.0
 10
499.950906
 20
77.953328
 30
0.0
 10
500.144184
 20
78.285327
 30
0.0
 10
500.402769
 20
78.570098
 30
0.0
 10
500.715332
 20
78.795205
 30
0.0
 10
501.068289
 20
78.951204
 30
0.0
 10
501.446162
 20
79.030896
 30
0.0
 10
501.832490
 20
79.030896
 30
0.0
 10
502.210323
 20
78.951204
 30
0.0
 10
502.563280
 20
78.795205
 30
0.0
 10
502.875846
 20
78.570098
 30
0.0
 10
503.134431
 20
78.285327
 30
0.0
 10
503.327328
 20
77.953328
 30
0.0
 10
503.446618
 20
77.588838
 30
0.0
 10
503.487017
 20
77.207414
 30
0.0
 10
503.446618
 20
76.826097
 30
0.0
 10
503.327328
 20
76.461607
 30
0.0
 10
503.134431
 20
76.129608
 30
0.0
 10
502.875846
 20
75.844837
 30
0.0
 10
502.563280
 20
75.619332
 30
0.0
 10
502.210323
 20
75.463334
 30
0.0
 10
501.832490
 20
75.383641
 30
0.0
  0
LWPOLYLINE
  5
12f
100
AcDbEntity
  8
Layer_1
 62
7
100
AcDbPolyline
 90
30
 70
1
 10
772.117898
 20
75.185363
 30
0.0
 10
771.739359
 20
75.265055
 30
0.0
 10
771.386748
 20
75.421053
 30
0.0
 10
771.074196
 20
75.646531
 30
0.0
 10
770.815619
 20
75.931329
 30
0.0
 10
770.622711
 20
76.263328
 30
0.0
 10
770.503040
 20
76.628188
 30
0.0
 10
770.463061
 20
77.009532
 30
0.0
 10
770.503040
 20
77.390876
 30
0.0
 10
770.622711
 20
77.755737
 30
0.0
 10
770.815619
 20
78.087762
 30
0.0
 10
771.074196
 20
78.372533
 30
0.0
 10
771.386748
 20
78.597667
 30
0.0
 10
771.739359
 20
78.753639
 30
0.0
 10
772.117898
 20
78.833358
 30
0.0
 10
772.503396
 20
78.833358
 30
0.0
 10
772.881935
 20
78.753639
 30
0.0
 10
773.234519
 20
78.597667
 30
0.0
 10
773.547098
 20
78.372533
 30
0.0
 10
773.805675
 20
78.087762
 30
0.0
 10
773.998583
 20
77.755737
 30
0.0
 10
774.118254
 20
77.390876
 30
0.0
 10
774.158232
 20
77.009532
 30
0.0
 10
774.118254
 20
76.628188
 30
0.0
 10
773.998583
 20
76.263328
 30
0.0
 10
773.805675
 20
75.931329
 30
0.0
 10
773.547098
 20
75.646531
 30
0.0
 10
773.234519
 20
75.421053
 30
0.0
 10
772.881935
 20
75.265055
 30
0.0
 10
772.503396
 20
75.185363
 30
0.0
  0
LWPOLYLINE
  5
130
100
AcDbEntity
  8
Layer_1
 62
7
100
AcDbPolyline
 90
30
 70
1
 10
722.178509
 20
75.185363
 30
0.0
 10
721.799969
 20
75.265055
 30
0.0
 10
721.447386
 20
75.421053
 30
0.0
 10
721.134833
 20
75.646531
 30
0.0
 10
720.876230
 20
75.931329
 30
0.0
 10
720.683348
 20
76.263328
 30
0.0
 10
720.563677
 20
76.628188
 30
0.0
 10
720.523672
 20
77.009532
 30
0.0
 10
720.563677
 20
77.390876
 30
0.0
 10
720.683348
 20
77.755737
 30
0.0
 10
720.876230
 20
78.087762
 30
0.0
 10
721.134833
 20
78.372533
 30
0.0
 10
721.447386
 20
78.597667
 30
0.0
 10
721.799969
 20
78.753639
 30
0.0
 10
722.178509
 20
78.833358
 30
0.0
 10
722.564060
 20
78.833358
 30
0.0
 10
722.942573
 20
78.753639
 30
0.0
 10
723.295156
 20
78.597667
 30
0.0
 10
723.607709
 20
78.372533
 30
0.0
 10
723.866312
 20
78.087762
 30
0.0
 10
724.059194
 20
77.755737
 30
0.0
 10
724.178865
 20
77.390876
 30
0.0
 10
724.218870
 20
77.009532
 30
0.0
 10
724.178865
 20
76.628188
 30
0.0
 10
724.059194
 20
76.263328
 30
0.0
 10
723.866312
 20
75.931329
 30
0.0
 10
723.607709
 20
75.646531
 30
0.0
 10
723.295156
 20
75.421053
 30
0.0
 10
722.942573
 20
75.265055
 30
0.0
 10
722.564060
 20
75.185363
 30
0.0
  0
LWPOLYLINE
  5
131
100
AcDbEntity
  8
Layer_1
 62
7
100
AcDbPolyline
 90
30
 70
1
 10
672.239151
 20
75.185363
 30
0.0
 10
671.860601
 20
75.265055
 30
0.0
 10
671.508023
 20
75.421053
 30
0.0
 10
671.195452
 20
75.646531
 30
0.0
 10
670.936872
 20
75.931329
 30
0.0
 10
670.743972
 20
76.263328
 30
0.0
 10
670.623923
 20
76.628188
 30
0.0
 10
670.583921
 20
77.009532
 30
0.0
 10
670.623923
 20
77.390876
 30
0.0
 10
670.743972
 20
77.755737
 30
0.0
 10
670.936872
 20
78.087762
 30
0.0
 10
671.195452
 20
78.372533
 30
0.0
 10
671.508023
 20
78.597667
 30
0.0
 10
671.860601
 20
78.753639
 30
0.0
 10
672.239151
 20
78.833358
 30
0.0
 10
672.624681
 20
78.833358
 30
0.0
 10
673.003242
 20
78.753639
 30
0.0
 10
673.355812
 20
78.597667
 30
0.0
 10
673.668383
 20
78.372533
 30
0.0
 10
673.926963
 20
78.087762
 30
0.0
 10
674.119863
 20
77.755737
 30
0.0
 10
674.239912
 20
77.390876
 30
0.0
 10
674.279912
 20
77.009532
 30
0.0
 10
674.239912
 20
76.628188
 30
0.0
 10
674.119863
 20
76.263328
 30
0.0
 10
673.926963
 20
75.931329
 30
0.0
 10
673.668383
 20
75.646531
 30
0.0
 10
673.355812
 20
75.421053
 30
0.0
 10
673.003242
 20
75.265055
 30
0.0
 10
672.624681
 20
75.185363
 30
0.0
  0
LWPOLYLINE
  5
132
100
AcDbEntity
  8
Layer_1
 62
7
100
AcDbPolyline
 90
4
 70
1
 10
1225.382485
 20
62.551013
 30
0.0
 10
855.139405
 20
62.551013
 30
0.0
 10
855.139405
 20
0.248993
 30
0.0
 10
1225.382485
 20
0.248993
 30
0.0
  0
LWPOLYLINE
  5
133
100
AcDbEntity
  8
Layer_1
 62
7
100
AcDbPolyline
 90
30
 70
1
 10
875.741335
 20
46.848253
 30
0.0
 10
875.192785
 20
46.963903
 30
0.0
 10
874.680345
 20
47.190143
 30
0.0
 10
874.226665
 20
47.517073
 30
0.0
 10
873.851325
 20
47.930473
 30
0.0
 10
873.570845
 20
48.412113
 30
0.0
 10
873.397345
 20
48.941163
 30
0.0
 10
873.338745
 20
49.494313
 30
0.0
 10
873.397345
 20
50.047473
 30
0.0
 10
873.570845
 20
50.576523
 30
0.0
 10
873.851325
 20
51.058163
 30
0.0
 10
874.226665
 20
51.471573
 30
0.0
 10
874.680345
 20
51.798493
 30
0.0
 10
875.192785
 20
52.024733
 30
0.0
 10
875.741335
 20
52.140383
 30
0.0
 10
876.302205
 20
52.140383
 30
0.0
 10
876.850755
 20
52.024733
 30
0.0
 10
877.363135
 20
51.798493
 30
0.0
 10
877.816875
 20
51.471573
 30
0.0
 10
878.192215
 20
51.058163
 30
0.0
 10
878.472695
 20
50.576523
 30
0.0
 10
878.646195
 20
50.047473
 30
0.0
 10
878.704795
 20
49.494313
 30
0.0
 10
878.646195
 20
48.941163
 30
0.0
 10
878.472695
 20
48.412113
 30
0.0
 10
878.192215
 20
47.930473
 30
0.0
 10
877.816875
 20
47.517073
 30
0.0
 10
877.363135
 20
47.190143
 30
0.0
 10
876.850755
 20
46.963903
 30
0.0
 10
876.302205
 20
46.848253
 30
0.0
  0
LWPOLYLINE
  5
134
100
AcDbEntity
  8
Layer_1
 62
7
100
AcDbPolyline
 90
30
 70
1
 10
890.299085
 20
14.847923
 30
0.0
 10
886.455855
 20
15.658063
 30
0.0
 10
882.866555
 20
17.242933
 30
0.0
 10
879.687875
 20
19.533323
 30
0.0
 10
877.058795
 20
22.429023
 30
0.0
 10
875.094365
 20
25.803593
 30
0.0
 10
873.880125
 20
29.509443
 30
0.0
 10
873.469475
 20
33.384693
 30
0.0
 10
873.880125
 20
37.259943
 30
0.0
 10
875.094365
 20
40.965793
 30
0.0
 10
877.058795
 20
44.340363
 30
0.0
 10
879.687875
 20
47.236063
 30
0.0
 10
882.866555
 20
49.526343
 30
0.0
 10
886.455855
 20
51.111223
 30
0.0
 10
890.299085
 20
51.921363
 30
0.0
 10
894.228165
 20
51.921363
 30
0.0
 10
898.071285
 20
51.111223
 30
0.0
 10
901.660695
 20
49.526343
 30
0.0
 10
904.839365
 20
47.236063
 30
0.0
 10
907.468355
 20
44.340363
 30
0.0
 10
909.432885
 20
40.965793
 30
0.0
 10
910.647005
 20
37.259943
 30
0.0
 10
911.057735
 20
33.384693
 30
0.0
 10
910.647005
 20
29.509443
 30
0.0
 10
909.432885
 20
25.803593
 30
0.0
 10
907.468355
 20
22.429023
 30
0.0
 10
904.839365
 20
19.533323
 30
0.0
 10
901.660695
 20
17.242933
 30
0.0
 10
898.071285
 20
15.658063
 30
0.0
 10
894.228165
 20
14.847923
 30
0.0
  0
LWPOLYLINE
  5
135
100
AcDbEntity
  8
Layer_1
 62
7
100
AcDbPolyline
 90
30
 70
1
 10
909.155125
 20
45.856403
 30
0.0
 10
908.606585
 20
45.972053
 30
0.0
 10
908.094135
 20
46.198293
 30
0.0
 10
907.640465
 20
46.525223
 30
0.0
 10
907.265115
 20
46.938623
 30
0.0
 10
906.984645
 20
47.420263
 30
0.0
 10
906.811515
 20
47.949313
 30
0.0
 10
906.752915
 20
48.502473
 30
0.0
 10
906.811515
 20
49.055623
 30
0.0
 10
906.984645
 20
49.584673
 30
0.0
 10
907.265115
 20
50.066323
 30
0.0
 10
907.640465
 20
50.479723
 30
0.0
 10
908.094135
 20
50.806653
 30
0.0
 10
908.606585
 20
51.032883
 30
0.0
 10
909.155125
 20
51.148533
 30
0.0
 10
909.716005
 20
51.148533
 30
0.0
 10
910.264545
 20
51.032883
 30
0.0
 10
910.776925
 20
50.806653
 30
0.0
 10
911.230665
 20
50.479723
 30
0.0
 10
911.606015
 20
50.066323
 30
0.0
 10
911.886485
 20
49.584673
 30
0.0
 10
912.059615
 20
49.055623
 30
0.0
 10
912.118215
 20
48.502473
 30
0.0
 10
912.059615
 20
47.949313
 30
0.0
 10
911.886485
 20
47.420263
 30
0.0
 10
911.606015
 20
46.938623
 30
0.0
 10
911.230665
 20
46.525223
 30
0.0
 10
910.776925
 20
46.198293
 30
0.0
 10
910.264545
 20
45.972053
 30
0.0
 10
909.716005
 20
45.856403
 30
0.0
  0
LWPOLYLINE
  5
136
100
AcDbEntity
  8
Layer_1
 62
7
100
AcDbPolyline
 90
30
 70
1
 10
996.962495
 20
44.049153
 30
0.0
 10
996.583445
 20
44.128853
 30
0.0
 10
996.230395
 20
44.284883
 30
0.0
 10
995.917415
 20
44.510443
 30
0.0
 10
995.658485
 20
44.795483
 30
0.0
 10
995.465335
 20
45.127663
 30
0.0
 10
995.345135
 20
45.492543
 30
0.0
 10
995.305035
 20
45.874013
 30
0.0
 10
995.345135
 20
46.255473
 30
0.0
 10
995.465335
 20
46.620363
 30
0.0
 10
995.658485
 20
46.952543
 30
0.0
 10
995.917415
 20
47.237583
 30
0.0
 10
996.230395
 20
47.463033
 30
0.0
 10
996.583445
 20
47.619053
 30
0.0
 10
996.962495
 20
47.698853
 30
0.0
 10
997.348545
 20
47.698853
 30
0.0
 10
997.727595
 20
47.619053
 30
0.0
 10
998.080645
 20
47.463033
 30
0.0
 10
998.393635
 20
47.237583
 30
0.0
 10
998.652555
 20
46.952543
 30
0.0
 10
998.845715
 20
46.620363
 30
0.0
 10
998.965535
 20
46.255473
 30
0.0
 10
999.005635
 20
45.874013
 30
0.0
 10
998.965535
 20
45.492543
 30
0.0
 10
998.845715
 20
45.127663
 30
0.0
 10
998.652555
 20
44.795483
 30
0.0
 10
998.393635
 20
44.510443
 30
0.0
 10
998.080645
 20
44.284883
 30
0.0
 10
997.727595
 20
44.128853
 30
0.0
 10
997.348545
 20
44.049153
 30
0.0
  0
LWPOLYLINE
  5
137
100
AcDbEntity
  8
Layer_1
 62
7
100
AcDbPolyline
 90
30
 70
1
 10
1086.972985
 20
44.049153
 30
0.0
 10
1086.593885
 20
44.128853
 30
0.0
 10
1086.240885
 20
44.284883
 30
0.0
 10
1085.927885
 20
44.510443
 30
0.0
 10
1085.668985
 20
44.795483
 30
0.0
 10
1085.475785
 20
45.127663
 30
0.0
 10
1085.355585
 20
45.492543
 30
0.0
 10
1085.315585
 20
45.874013
 30
0.0
 10
1085.355585
 20
46.255473
 30
0.0
 10
1085.475785
 20
46.620363
 30
0.0
 10
1085.668985
 20
46.952543
 30
0.0
 10
1085.927885
 20
47.237583
 30
0.0
 10
1086.240885
 20
47.463033
 30
0.0
 10
1086.593885
 20
47.619053
 30
0.0
 10
1086.972985
 20
47.698853
 30
0.0
 10
1087.358985
 20
47.698853
 30
0.0
 10
1087.738085
 20
47.619053
 30
0.0
 10
1088.091085
 20
47.463033
 30
0.0
 10
1088.404085
 20
47.237583
 30
0.0
 10
1088.662985
 20
46.952543
 30
0.0
 10
1088.856185
 20
46.620363
 30
0.0
 10
1088.975985
 20
46.255473
 30
0.0
 10
1089.015985
 20
45.874013
 30
0.0
 10
1088.975985
 20
45.492543
 30
0.0
 10
1088.856185
 20
45.127663
 30
0.0
 10
1088.662985
 20
44.795483
 30
0.0
 10
1088.404085
 20
44.510443
 30
0.0
 10
1088.091085
 20
44.284883
 30
0.0
 10
1087.738085
 20
44.128853
 30
0.0
 10
1087.358985
 20
44.049153
 30
0.0
  0
LWPOLYLINE
  5
138
100
AcDbEntity
  8
Layer_1
 62
7
100
AcDbPolyline
 90
30
 70
1
 10
1136.978985
 20
44.049153
 30
0.0
 10
1136.599885
 20
44.128853
 30
0.0
 10
1136.246785
 20
44.284883
 30
0.0
 10
1135.933785
 20
44.510443
 30
0.0
 10
1135.674885
 20
44.795483
 30
0.0
 10
1135.481785
 20
45.127663
 30
0.0
 10
1135.361885
 20
45.492543
 30
0.0
 10
1135.321885
 20
45.874013
 30
0.0
 10
1135.361885
 20
46.255473
 30
0.0
 10
1135.481785
 20
46.620363
 30
0.0
 10
1135.674885
 20
46.952543
 30
0.0
 10
1135.933785
 20
47.237583
 30
0.0
 10
1136.246785
 20
47.463033
 30
0.0
 10
1136.599885
 20
47.619053
 30
0.0
 10
1136.978985
 20
47.698853
 30
0.0
 10
1137.364985
 20
47.698853
 30
0.0
 10
1137.743985
 20
47.619053
 30
0.0
 10
1138.097085
 20
47.463033
 30
0.0
 10
1138.409985
 20
47.237583
 30
0.0
 10
1138.668985
 20
46.952543
 30
0.0
 10
1138.862085
 20
46.620363
 30
0.0
 10
1138.981885
 20
46.255473
 30
0.0
 10
1139.021885
 20
45.874013
 30
0.0
 10
1138.981885
 20
45.492543
 30
0.0
 10
1138.862085
 20
45.127663
 30
0.0
 10
1138.668985
 20
44.795483
 30
0.0
 10
1138.409985
 20
44.510443
 30
0.0
 10
1138.097085
 20
44.284883
 30
0.0
 10
1137.743985
 20
44.128853
 30
0.0
 10
1137.364985
 20
44.049153
 30
0.0
  0
LWPOLYLINE
  5
139
100
AcDbEntity
  8
Layer_1
 62
7
100
AcDbPolyline
 90
30
 70
1
 10
1046.968185
 20
44.049153
 30
0.0
 10
1046.589085
 20
44.128853
 30
0.0
 10
1046.236085
 20
44.284883
 30
0.0
 10
1045.923085
 20
44.510443
 30
0.0
 10
1045.664185
 20
44.795483
 30
0.0
 10
1045.470985
 20
45.127663
 30
0.0
 10
1045.351185
 20
45.492543
 30
0.0
 10
1045.311185
 20
45.874013
 30
0.0
 10
1045.351185
 20
46.255473
 30
0.0
 10
1045.470985
 20
46.620363
 30
0.0
 10
1045.664185
 20
46.952543
 30
0.0
 10
1045.923085
 20
47.237583
 30
0.0
 10
1046.236085
 20
47.463033
 30
0.0
 10
1046.589085
 20
47.619053
 30
0.0
 10
1046.968185
 20
47.698853
 30
0.0
 10
1047.354285
 20
47.698853
 30
0.0
 10
1047.733285
 20
47.619053
 30
0.0
 10
1048.086285
 20
47.463033
 30
0.0
 10
1048.399285
 20
47.237583
 30
0.0
 10
1048.658185
 20
46.952543
 30
0.0
 10
1048.851385
 20
46.620363
 30
0.0
 10
1048.971185
 20
46.255473
 30
0.0
 10
1049.011185
 20
45.874013
 30
0.0
 10
1048.971185
 20
45.492543
 30
0.0
 10
1048.851385
 20
45.127663
 30
0.0
 10
1048.658185
 20
44.795483
 30
0.0
 10
1048.399285
 20
44.510443
 30
0.0
 10
1048.086285
 20
44.284883
 30
0.0
 10
1047.733285
 20
44.128853
 30
0.0
 10
1047.354285
 20
44.049153
 30
0.0
  0
LWPOLYLINE
  5
13a
100
AcDbEntity
  8
Layer_1
 62
7
100
AcDbPolyline
 90
30
 70
1
 10
946.956435
 20
44.049153
 30
0.0
 10
946.578105
 20
44.128853
 30
0.0
 10
946.224675
 20
44.284883
 30
0.0
 10
945.911695
 20
44.510443
 30
0.0
 10
945.652765
 20
44.795483
 30
0.0
 10
945.459235
 20
45.127663
 30
0.0
 10
945.339795
 20
45.492543
 30
0.0
 10
945.299295
 20
45.874013
 30
0.0
 10
945.339795
 20
46.255473
 30
0.0
 10
945.459235
 20
46.620363
 30
0.0
 10
945.652765
 20
46.952543
 30
0.0
 10
945.911695
 20
47.237583
 30
0.0
 10
946.224675
 20
47.463033
 30
0.0
 10
946.578105
 20
47.619053
 30
0.0
 10
946.956435
 20
47.698853
 30
0.0
 10
947.343275
 20
47.698853
 30
0.0
 10
947.721615
 20
47.619053
 30
0.0
 10
948.075035
 20
47.463033
 30
0.0
 10
948.388025
 20
47.237583
 30
0.0
 10
948.646945
 20
46.952543
 30
0.0
 10
948.840105
 20
46.620363
 30
0.0
 10
948.959925
 20
46.255473
 30
0.0
 10
949.000425
 20
45.874013
 30
0.0
 10
948.959925
 20
45.492543
 30
0.0
 10
948.840105
 20
45.127663
 30
0.0
 10
948.646945
 20
44.795483
 30
0.0
 10
948.388025
 20
44.510443
 30
0.0
 10
948.075035
 20
44.284883
 30
0.0
 10
947.721615
 20
44.128853
 30
0.0
 10
947.343275
 20
44.049153
 30
0.0
  0
LWPOLYLINE
  5
13b
100
AcDbEntity
  8
Layer_1
 62
7
100
AcDbPolyline
 90
30
 70
1
 10
1186.984985
 20
44.049153
 30
0.0
 10
1186.606085
 20
44.128853
 30
0.0
 10
1186.252985
 20
44.284883
 30
0.0
 10
1185.939985
 20
44.510443
 30
0.0
 10
1185.681085
 20
44.795483
 30
0.0
 10
1185.487885
 20
45.127663
 30
0.0
 10
1185.368085
 20
45.492543
 30
0.0
 10
1185.328085
 20
45.874013
 30
0.0
 10
1185.368085
 20
46.255473
 30
0.0
 10
1185.487885
 20
46.620363
 30
0.0
 10
1185.681085
 20
46.952543
 30
0.0
 10
1185.939985
 20
47.237583
 30
0.0
 10
1186.252985
 20
47.463033
 30
0.0
 10
1186.606085
 20
47.619053
 30
0.0
 10
1186.984985
 20
47.698853
 30
0.0
 10
1187.371085
 20
47.698853
 30
0.0
 10
1187.750085
 20
47.619053
 30
0.0
 10
1188.103185
 20
47.463033
 30
0.0
 10
1188.416185
 20
47.237583
 30
0.0
 10
1188.675085
 20
46.952543
 30
0.0
 10
1188.868285
 20
46.620363
 30
0.0
 10
1188.988085
 20
46.255473
 30
0.0
 10
1189.028085
 20
45.874013
 30
0.0
 10
1188.988085
 20
45.492543
 30
0.0
 10
1188.868285
 20
45.127663
 30
0.0
 10
1188.675085
 20
44.795483
 30
0.0
 10
1188.416185
 20
44.510443
 30
0.0
 10
1188.103185
 20
44.284883
 30
0.0
 10
1187.750085
 20
44.128853
 30
0.0
 10
1187.371085
 20
44.049153
 30
0.0
  0
LWPOLYLINE
  5
13c
100
AcDbEntity
  8
Layer_1
 62
7
100
AcDbPolyline
 90
4
 70
1
 10
950.150205
 20
17.110433
 30
0.0
 10
950.150205
 20
39.922963
 30
0.0
 10
1046.161085
 20
39.922963
 30
0.0
 10
1046.161085
 20
17.110433
 30
0.0
  0
LWPOLYLINE
  5
13d
100
AcDbEntity
  8
Layer_1
 62
7
100
AcDbPolyline
 90
4
 70
1
 10
1090.166285
 20
17.110433
 30
0.0
 10
1090.166285
 20
39.922963
 30
0.0
 10
1186.177985
 20
39.922963
 30
0.0
 10
1186.177985
 20
17.110433
 30
0.0
  0
LWPOLYLINE
  5
13e
100
AcDbEntity
  8
Layer_1
 62
7
100
AcDbPolyline
 90
30
 70
1
 10
875.741335
 20
14.170793
 30
0.0
 10
875.192785
 20
14.286433
 30
0.0
 10
874.680345
 20
14.512673
 30
0.0
 10
874.226665
 20
14.839603
 30
0.0
 10
873.851325
 20
15.253003
 30
0.0
 10
873.570845
 20
15.734643
 30
0.0
 10
873.397345
 20
16.263703
 30
0.0
 10
873.338745
 20
16.816853
 30
0.0
 10
873.397345
 20
17.370003
 30
0.0
 10
873.570845
 20
17.899063
 30
0.0
 10
873.851325
 20
18.380703
 30
0.0
 10
874.226665
 20
18.794103
 30
0.0
 10
874.680345
 20
19.121033
 30
0.0
 10
875.192785
 20
19.347273
 30
0.0
 10
875.741335
 20
19.462913
 30
0.0
 10
876.302205
 20
19.462913
 30
0.0
 10
876.850755
 20
19.347273
 30
0.0
 10
877.363135
 20
19.121033
 30
0.0
 10
877.816875
 20
18.794103
 30
0.0
 10
878.192215
 20
18.380703
 30
0.0
 10
878.472695
 20
17.899063
 30
0.0
 10
878.646195
 20
17.370003
 30
0.0
 10
878.704795
 20
16.816853
 30
0.0
 10
878.646195
 20
16.263703
 30
0.0
 10
878.472695
 20
15.734643
 30
0.0
 10
878.192215
 20
15.253003
 30
0.0
 10
877.816875
 20
14.839603
 30
0.0
 10
877.363135
 20
14.512673
 30
0.0
 10
876.850755
 20
14.286433
 30
0.0
 10
876.302205
 20
14.170793
 30
0.0
  0
LWPOLYLINE
  5
13f
100
AcDbEntity
  8
Layer_1
 62
7
100
AcDbPolyline
 90
30
 70
1
 10
909.155125
 20
14.170793
 30
0.0
 10
908.606585
 20
14.286433
 30
0.0
 10
908.094135
 20
14.512673
 30
0.0
 10
907.640465
 20
14.839603
 30
0.0
 10
907.265115
 20
15.253003
 30
0.0
 10
906.984645
 20
15.734643
 30
0.0
 10
906.811515
 20
16.263703
 30
0.0
 10
906.752915
 20
16.816853
 30
0.0
 10
906.811515
 20
17.370003
 30
0.0
 10
906.984645
 20
17.899063
 30
0.0
 10
907.265115
 20
18.380703
 30
0.0
 10
907.640465
 20
18.794103
 30
0.0
 10
908.094135
 20
19.121033
 30
0.0
 10
908.606585
 20
19.347273
 30
0.0
 10
909.155125
 20
19.462913
 30
0.0
 10
909.716005
 20
19.462913
 30
0.0
 10
910.264545
 20
19.347273
 30
0.0
 10
910.776925
 20
19.121033
 30
0.0
 10
911.230665
 20
18.794103
 30
0.0
 10
911.606015
 20
18.380703
 30
0.0
 10
911.886485
 20
17.899063
 30
0.0
 10
912.059615
 20
17.370003
 30
0.0
 10
912.118215
 20
16.816853
 30
0.0
 10
912.059615
 20
16.263703
 30
0.0
 10
911.886485
 20
15.734643
 30
0.0
 10
911.606015
 20
15.253003
 30
0.0
 10
911.230665
 20
14.839603
 30
0.0
 10
910.776925
 20
14.512673
 30
0.0
 10
910.264545
 20
14.286433
 30
0.0
 10
909.716005
 20
14.170793
 30
0.0
  0
LWPOLYLINE
  5
140
100
AcDbEntity
  8
Layer_1
 62
7
100
AcDbPolyline
 90
30
 70
1
 10
1186.984985
 20
9.334463
 30
0.0
 10
1186.606085
 20
9.414263
 30
0.0
 10
1186.252985
 20
9.570283
 30
0.0
 10
1185.939985
 20
9.795763
 30
0.0
 10
1185.681085
 20
10.080813
 30
0.0
 10
1185.487885
 20
10.412993
 30
0.0
 10
1185.368085
 20
10.777873
 30
0.0
 10
1185.328085
 20
11.159343
 30
0.0
 10
1185.368085
 20
11.540803
 30
0.0
 10
1185.487885
 20
11.905693
 30
0.0
 10
1185.681085
 20
12.237873
 30
0.0
 10
1185.939985
 20
12.522913
 30
0.0
 10
1186.252985
 20
12.748363
 30
0.0
 10
1186.606085
 20
12.904383
 30
0.0
 10
1186.984985
 20
12.984183
 30
0.0
 10
1187.371085
 20
12.984183
 30
0.0
 10
1187.750085
 20
12.904383
 30
0.0
 10
1188.103185
 20
12.748363
 30
0.0
 10
1188.416185
 20
12.522913
 30
0.0
 10
1188.675085
 20
12.237873
 30
0.0
 10
1188.868285
 20
11.905693
 30
0.0
 10
1188.988085
 20
11.540803
 30
0.0
 10
1189.028085
 20
11.159343
 30
0.0
 10
1188.988085
 20
10.777873
 30
0.0
 10
1188.868285
 20
10.412993
 30
0.0
 10
1188.675085
 20
10.080813
 30
0.0
 10
1188.416185
 20
9.795763
 30
0.0
 10
1188.103185
 20
9.570283
 30
0.0
 10
1187.750085
 20
9.414263
 30
0.0
 10
1187.371085
 20
9.334463
 30
0.0
  0
LWPOLYLINE
  5
141
100
AcDbEntity
  8
Layer_1
 62
7
100
AcDbPolyline
 90
30
 70
1
 10
1136.978985
 20
9.334463
 30
0.0
 10
1136.599885
 20
9.414263
 30
0.0
 10
1136.246785
 20
9.570283
 30
0.0
 10
1135.933785
 20
9.795763
 30
0.0
 10
1135.674885
 20
10.080813
 30
0.0
 10
1135.481785
 20
10.412993
 30
0.0
 10
1135.361885
 20
10.777873
 30
0.0
 10
1135.321885
 20
11.159343
 30
0.0
 10
1135.361885
 20
11.540803
 30
0.0
 10
1135.481785
 20
11.905693
 30
0.0
 10
1135.674885
 20
12.237873
 30
0.0
 10
1135.933785
 20
12.522913
 30
0.0
 10
1136.246785
 20
12.748363
 30
0.0
 10
1136.599885
 20
12.904383
 30
0.0
 10
1136.978985
 20
12.984183
 30
0.0
 10
1137.364985
 20
12.984183
 30
0.0
 10
1137.743985
 20
12.904383
 30
0.0
 10
1138.097085
 20
12.748363
 30
0.0
 10
1138.409985
 20
12.522913
 30
0.0
 10
1138.668985
 20
12.237873
 30
0.0
 10
1138.862085
 20
11.905693
 30
0.0
 10
1138.981885
 20
11.540803
 30
0.0
 10
1139.021885
 20
11.159343
 30
0.0
 10
1138.981885
 20
10.777873
 30
0.0
 10
1138.862085
 20
10.412993
 30
0.0
 10
1138.668985
 20
10.080813
 30
0.0
 10
1138.409985
 20
9.795763
 30
0.0
 10
1138.097085
 20
9.570283
 30
0.0
 10
1137.743985
 20
9.414263
 30
0.0
 10
1137.364985
 20
9.334463
 30
0.0
  0
LWPOLYLINE
  5
142
100
AcDbEntity
  8
Layer_1
 62
7
100
AcDbPolyline
 90
30
 70
1
 10
996.962495
 20
9.334463
 30
0.0
 10
996.583445
 20
9.414263
 30
0.0
 10
996.230395
 20
9.570283
 30
0.0
 10
995.917415
 20
9.795763
 30
0.0
 10
995.658485
 20
10.080813
 30
0.0
 10
995.465335
 20
10.412993
 30
0.0
 10
995.345135
 20
10.777873
 30
0.0
 10
995.305035
 20
11.159343
 30
0.0
 10
995.345135
 20
11.540803
 30
0.0
 10
995.465335
 20
11.905693
 30
0.0
 10
995.658485
 20
12.237873
 30
0.0
 10
995.917415
 20
12.522913
 30
0.0
 10
996.230395
 20
12.748363
 30
0.0
 10
996.583445
 20
12.904383
 30
0.0
 10
996.962495
 20
12.984183
 30
0.0
 10
997.348545
 20
12.984183
 30
0.0
 10
997.727595
 20
12.904383
 30
0.0
 10
998.080645
 20
12.748363
 30
0.0
 10
998.393635
 20
12.522913
 30
0.0
 10
998.652555
 20
12.237873
 30
0.0
 10
998.845715
 20
11.905693
 30
0.0
 10
998.965535
 20
11.540803
 30
0.0
 10
999.005635
 20
11.159343
 30
0.0
 10
998.965535
 20
10.777873
 30
0.0
 10
998.845715
 20
10.412993
 30
0.0
 10
998.652555
 20
10.080813
 30
0.0
 10
998.393635
 20
9.795763
 30
0.0
 10
998.080645
 20
9.570283
 30
0.0
 10
997.727595
 20
9.414263
 30
0.0
 10
997.348545
 20
9.334463
 30
0.0
  0
LWPOLYLINE
  5
143
100
AcDbEntity
  8
Layer_1
 62
7
100
AcDbPolyline
 90
30
 70
1
 10
1086.972985
 20
9.334463
 30
0.0
 10
1086.593885
 20
9.414263
 30
0.0
 10
1086.240885
 20
9.570283
 30
0.0
 10
1085.927885
 20
9.795763
 30
0.0
 10
1085.668985
 20
10.080813
 30
0.0
 10
1085.475785
 20
10.412993
 30
0.0
 10
1085.355585
 20
10.777873
 30
0.0
 10
1085.315585
 20
11.159343
 30
0.0
 10
1085.355585
 20
11.540803
 30
0.0
 10
1085.475785
 20
11.905693
 30
0.0
 10
1085.668985
 20
12.237873
 30
0.0
 10
1085.927885
 20
12.522913
 30
0.0
 10
1086.240885
 20
12.748363
 30
0.0
 10
1086.593885
 20
12.904383
 30
0.0
 10
1086.972985
 20
12.984183
 30
0.0
 10
1087.358985
 20
12.984183
 30
0.0
 10
1087.738085
 20
12.904383
 30
0.0
 10
1088.091085
 20
12.748363
 30
0.0
 10
1088.404085
 20
12.522913
 30
0.0
 10
1088.662985
 20
12.237873
 30
0.0
 10
1088.856185
 20
11.905693
 30
0.0
 10
1088.975985
 20
11.540803
 30
0.0
 10
1089.015985
 20
11.159343
 30
0.0
 10
1088.975985
 20
10.777873
 30
0.0
 10
1088.856185
 20
10.412993
 30
0.0
 10
1088.662985
 20
10.080813
 30
0.0
 10
1088.404085
 20
9.795763
 30
0.0
 10
1088.091085
 20
9.570283
 30
0.0
 10
1087.738085
 20
9.414263
 30
0.0
 10
1087.358985
 20
9.334463
 30
0.0
  0
LWPOLYLINE
  5
144
100
AcDbEntity
  8
Layer_1
 62
7
100
AcDbPolyline
 90
30
 70
1
 10
1046.968185
 20
9.334463
 30
0.0
 10
1046.589085
 20
9.414263
 30
0.0
 10
1046.236085
 20
9.570283
 30
0.0
 10
1045.923085
 20
9.795763
 30
0.0
 10
1045.664185
 20
10.080813
 30
0.0
 10
1045.470985
 20
10.412993
 30
0.0
 10
1045.351185
 20
10.777873
 30
0.0
 10
1045.311185
 20
11.159343
 30
0.0
 10
1045.351185
 20
11.540803
 30
0.0
 10
1045.470985
 20
11.905693
 30
0.0
 10
1045.664185
 20
12.237873
 30
0.0
 10
1045.923085
 20
12.522913
 30
0.0
 10
1046.236085
 20
12.748363
 30
0.0
 10
1046.589085
 20
12.904383
 30
0.0
 10
1046.968185
 20
12.984183
 30
0.0
 10
1047.354285
 20
12.984183
 30
0.0
 10
1047.733285
 20
12.904383
 30
0.0
 10
1048.086285
 20
12.748363
 30
0.0
 10
1048.399285
 20
12.522913
 30
0.0
 10
1048.658185
 20
12.237873
 30
0.0
 10
1048.851385
 20
11.905693
 30
0.0
 10
1048.971185
 20
11.540803
 30
0.0
 10
1049.011185
 20
11.159343
 30
0.0
 10
1048.971185
 20
10.777873
 30
0.0
 10
1048.851385
 20
10.412993
 30
0.0
 10
1048.658185
 20
10.080813
 30
0.0
 10
1048.399285
 20
9.795763
 30
0.0
 10
1048.086285
 20
9.570283
 30
0.0
 10
1047.733285
 20
9.414263
 30
0.0
 10
1047.354285
 20
9.334463
 30
0.0
  0
LWPOLYLINE
  5
145
100
AcDbEntity
  8
Layer_1
 62
7
100
AcDbPolyline
 90
30
 70
1
 10
946.956435
 20
9.334463
 30
0.0
 10
946.578105
 20
9.414263
 30
0.0
 10
946.224675
 20
9.570283
 30
0.0
 10
945.911695
 20
9.795763
 30
0.0
 10
945.652765
 20
10.080813
 30
0.0
 10
945.459235
 20
10.412993
 30
0.0
 10
945.339795
 20
10.777873
 30
0.0
 10
945.299295
 20
11.159343
 30
0.0
 10
945.339795
 20
11.540803
 30
0.0
 10
945.459235
 20
11.905693
 30
0.0
 10
945.652765
 20
12.237873
 30
0.0
 10
945.911695
 20
12.522913
 30
0.0
 10
946.224675
 20
12.748363
 30
0.0
 10
946.578105
 20
12.904383
 30
0.0
 10
946.956435
 20
12.984183
 30
0.0
 10
947.343275
 20
12.984183
 30
0.0
 10
947.721615
 20
12.904383
 30
0.0
 10
948.075035
 20
12.748363
 30
0.0
 10
948.388025
 20
12.522913
 30
0.0
 10
948.646945
 20
12.237873
 30
0.0
 10
948.840105
 20
11.905693
 30
0.0
 10
948.959925
 20
11.540803
 30
0.0
 10
949.000425
 20
11.159343
 30
0.0
 10
948.959925
 20
10.777873
 30
0.0
 10
948.840105
 20
10.412993
 30
0.0
 10
948.646945
 20
10.080813
 30
0.0
 10
948.388025
 20
9.795763
 30
0.0
 10
948.075035
 20
9.570283
 30
0.0
 10
947.721615
 20
9.414263
 30
0.0
 10
947.343275
 20
9.334463
 30
0.0
  0
LWPOLYLINE
  5
146
100
AcDbEntity
  8
Layer_1
 62
7
100
AcDbPolyline
 90
4
 70
1
 10
1227.501485
 20
128.480733
 30
0.0
 10
857.259695
 20
128.480733
 30
0.0
 10
857.259695
 20
66.178413
 30
0.0
 10
1227.501485
 20
66.178413
 30
0.0
  0
LWPOLYLINE
  5
147
100
AcDbEntity
  8
Layer_1
 62
7
100
AcDbPolyline
 90
30
 70
1
 10
1008.862905
 20
109.988583
 30
0.0
 10
1008.484435
 20
110.068283
 30
0.0
 10
1008.131895
 20
110.224303
 30
0.0
 10
1007.819375
 20
110.450213
 30
0.0
 10
1007.560825
 20
110.735053
 30
0.0
 10
1007.367945
 20
111.067113
 30
0.0
 10
1007.248305
 20
111.432043
 30
0.0
 10
1007.208305
 20
111.813563
 30
0.0
 10
1007.248305
 20
112.195113
 30
0.0
 10
1007.367945
 20
112.560033
 30
0.0
 10
1007.560825
 20
112.892103
 30
0.0
 10
1007.819375
 20
113.176943
 30
0.0
 10
1008.131895
 20
113.402473
 30
0.0
 10
1008.484435
 20
113.558493
 30
0.0
 10
1008.862905
 20
113.638193
 30
0.0
 10
1009.248385
 20
113.638193
 30
0.0
 10
1009.626885
 20
113.558493
 30
0.0
 10
1009.979425
 20
113.402473
 30
0.0
 10
1010.291945
 20
113.176943
 30
0.0
 10
1010.550495
 20
112.892103
 30
0.0
 10
1010.743365
 20
112.560033
 30
0.0
 10
1010.863015
 20
112.195113
 30
0.0
 10
1010.903015
 20
111.813563
 30
0.0
 10
1010.863015
 20
111.432043
 30
0.0
 10
1010.743365
 20
111.067113
 30
0.0
 10
1010.550495
 20
110.735053
 30
0.0
 10
1010.291945
 20
110.450213
 30
0.0
 10
1009.979425
 20
110.224303
 30
0.0
 10
1009.626885
 20
110.068283
 30
0.0
 10
1009.248385
 20
109.988583
 30
0.0
  0
LWPOLYLINE
  5
148
100
AcDbEntity
  8
Layer_1
 62
7
100
AcDbPolyline
 90
30
 70
1
 10
908.996785
 20
109.988583
 30
0.0
 10
908.618955
 20
110.068283
 30
0.0
 10
908.266035
 20
110.224303
 30
0.0
 10
907.953525
 20
110.450213
 30
0.0
 10
907.694975
 20
110.735053
 30
0.0
 10
907.501715
 20
111.067113
 30
0.0
 10
907.382445
 20
111.432043
 30
0.0
 10
907.342045
 20
111.813563
 30
0.0
 10
907.382445
 20
112.195113
 30
0.0
 10
907.501715
 20
112.560033
 30
0.0
 10
907.694975
 20
112.892103
 30
0.0
 10
907.953525
 20
113.176943
 30
0.0
 10
908.266035
 20
113.402473
 30
0.0
 10
908.618955
 20
113.558493
 30
0.0
 10
908.996785
 20
113.638193
 30
0.0
 10
909.383065
 20
113.638193
 30
0.0
 10
909.760845
 20
113.558493
 30
0.0
 10
910.113755
 20
113.402473
 30
0.0
 10
910.426285
 20
113.176943
 30
0.0
 10
910.684835
 20
112.892103
 30
0.0
 10
910.877705
 20
112.560033
 30
0.0
 10
910.996975
 20
112.195113
 30
0.0
 10
911.037375
 20
111.813563
 30
0.0
 10
910.996975
 20
111.432043
 30
0.0
 10
910.877705
 20
111.067113
 30
0.0
 10
910.684835
 20
110.735053
 30
0.0
 10
910.426285
 20
110.450213
 30
0.0
 10
910.113755
 20
110.224303
 30
0.0
 10
909.760845
 20
110.068283
 30
0.0
 10
909.383065
 20
109.988583
 30
0.0
  0
LWPOLYLINE
  5
149
100
AcDbEntity
  8
Layer_1
 62
7
100
AcDbPolyline
 90
30
 70
1
 10
1070.779185
 20
109.988583
 30
0.0
 10
1070.400685
 20
110.068283
 30
0.0
 10
1070.048085
 20
110.224303
 30
0.0
 10
1069.735685
 20
110.450213
 30
0.0
 10
1069.477085
 20
110.735053
 30
0.0
 10
1069.284185
 20
111.067113
 30
0.0
 10
1069.164485
 20
111.432043
 30
0.0
 10
1069.124485
 20
111.813563
 30
0.0
 10
1069.164485
 20
112.195113
 30
0.0
 10
1069.284185
 20
112.560033
 30
0.0
 10
1069.477085
 20
112.892103
 30
0.0
 10
1069.735685
 20
113.176943
 30
0.0
 10
1070.048085
 20
113.402473
 30
0.0
 10
1070.400685
 20
113.558493
 30
0.0
 10
1070.779185
 20
113.638193
 30
0.0
 10
1071.164585
 20
113.638193
 30
0.0
 10
1071.543185
 20
113.558493
 30
0.0
 10
1071.895685
 20
113.402473
 30
0.0
 10
1072.208185
 20
113.176943
 30
0.0
 10
1072.466785
 20
112.892103
 30
0.0
 10
1072.659585
 20
112.560033
 30
0.0
 10
1072.779285
 20
112.195113
 30
0.0
 10
1072.819285
 20
111.813563
 30
0.0
 10
1072.779285
 20
111.432043
 30
0.0
 10
1072.659585
 20
111.067113
 30
0.0
 10
1072.466785
 20
110.735053
 30
0.0
 10
1072.208185
 20
110.450213
 30
0.0
 10
1071.895685
 20
110.224303
 30
0.0
 10
1071.543185
 20
110.068283
 30
0.0
 10
1071.164585
 20
109.988583
 30
0.0
  0
LWPOLYLINE
  5
14a
100
AcDbEntity
  8
Layer_1
 62
7
100
AcDbPolyline
 90
30
 70
1
 10
1120.712085
 20
109.988583
 30
0.0
 10
1120.333485
 20
110.068283
 30
0.0
 10
1119.981085
 20
110.224303
 30
0.0
 10
1119.668485
 20
110.450213
 30
0.0
 10
1119.409885
 20
110.735053
 30
0.0
 10
1119.217085
 20
111.067113
 30
0.0
 10
1119.097485
 20
111.432043
 30
0.0
 10
1119.057485
 20
111.813563
 30
0.0
 10
1119.097485
 20
112.195113
 30
0.0
 10
1119.217085
 20
112.560033
 30
0.0
 10
1119.409885
 20
112.892103
 30
0.0
 10
1119.668485
 20
113.176943
 30
0.0
 10
1119.981085
 20
113.402473
 30
0.0
 10
1120.333485
 20
113.558493
 30
0.0
 10
1120.712085
 20
113.638193
 30
0.0
 10
1121.097485
 20
113.638193
 30
0.0
 10
1121.475985
 20
113.558493
 30
0.0
 10
1121.828585
 20
113.402473
 30
0.0
 10
1122.141085
 20
113.176943
 30
0.0
 10
1122.399585
 20
112.892103
 30
0.0
 10
1122.592485
 20
112.560033
 30
0.0
 10
1122.712185
 20
112.195113
 30
0.0
 10
1122.752185
 20
111.813563
 30
0.0
 10
1122.712185
 20
111.432043
 30
0.0
 10
1122.592485
 20
111.067113
 30
0.0
 10
1122.399585
 20
110.735053
 30
0.0
 10
1122.141085
 20
110.450213
 30
0.0
 10
1121.828585
 20
110.224303
 30
0.0
 10
1121.475985
 20
110.068283
 30
0.0
 10
1121.097485
 20
109.988583
 30
0.0
  0
LWPOLYLINE
  5
14b
100
AcDbEntity
  8
Layer_1
 62
7
100
AcDbPolyline
 90
30
 70
1
 10
958.930045
 20
109.988583
 30
0.0
 10
958.551545
 20
110.068283
 30
0.0
 10
958.199015
 20
110.224303
 30
0.0
 10
957.886485
 20
110.450213
 30
0.0
 10
957.627935
 20
110.735053
 30
0.0
 10
957.435065
 20
111.067113
 30
0.0
 10
957.315415
 20
111.432043
 30
0.0
 10
957.275415
 20
111.813563
 30
0.0
 10
957.315415
 20
112.195113
 30
0.0
 10
957.435065
 20
112.560033
 30
0.0
 10
957.627935
 20
112.892103
 30
0.0
 10
957.886485
 20
113.176943
 30
0.0
 10
958.199015
 20
113.402473
 30
0.0
 10
958.551545
 20
113.558493
 30
0.0
 10
958.930045
 20
113.638193
 30
0.0
 10
959.315535
 20
113.638193
 30
0.0
 10
959.693995
 20
113.558493
 30
0.0
 10
960.046525
 20
113.402473
 30
0.0
 10
960.359055
 20
113.176943
 30
0.0
 10
960.617605
 20
112.892103
 30
0.0
 10
960.810485
 20
112.560033
 30
0.0
 10
960.930135
 20
112.195113
 30
0.0
 10
960.970135
 20
111.813563
 30
0.0
 10
960.930135
 20
111.432043
 30
0.0
 10
960.810485
 20
111.067113
 30
0.0
 10
960.617605
 20
110.735053
 30
0.0
 10
960.359055
 20
110.450213
 30
0.0
 10
960.046525
 20
110.224303
 30
0.0
 10
959.693995
 20
110.068283
 30
0.0
 10
959.315535
 20
109.988583
 30
0.0
  0
LWPOLYLINE
  5
14c
100
AcDbEntity
  8
Layer_1
 62
7
100
AcDbPolyline
 90
30
 70
1
 10
1170.644885
 20
109.988583
 30
0.0
 10
1170.266485
 20
110.068283
 30
0.0
 10
1169.913885
 20
110.224303
 30
0.0
 10
1169.601385
 20
110.450213
 30
0.0
 10
1169.342885
 20
110.735053
 30
0.0
 10
1169.149985
 20
111.067113
 30
0.0
 10
1169.030385
 20
111.432043
 30
0.0
 10
1168.990385
 20
111.813563
 30
0.0
 10
1169.030385
 20
112.195113
 30
0.0
 10
1169.149985
 20
112.560033
 30
0.0
 10
1169.342885
 20
112.892103
 30
0.0
 10
1169.601385
 20
113.176943
 30
0.0
 10
1169.913885
 20
113.402473
 30
0.0
 10
1170.266485
 20
113.558493
 30
0.0
 10
1170.644885
 20
113.638193
 30
0.0
 10
1171.030385
 20
113.638193
 30
0.0
 10
1171.408885
 20
113.558493
 30
0.0
 10
1171.761485
 20
113.402473
 30
0.0
 10
1172.073985
 20
113.176943
 30
0.0
 10
1172.332485
 20
112.892103
 30
0.0
 10
1172.525385
 20
112.560033
 30
0.0
 10
1172.645385
 20
112.195113
 30
0.0
 10
1172.685385
 20
111.813563
 30
0.0
 10
1172.645385
 20
111.432043
 30
0.0
 10
1172.525385
 20
111.067113
 30
0.0
 10
1172.332485
 20
110.735053
 30
0.0
 10
1172.073985
 20
110.450213
 30
0.0
 10
1171.761485
 20
110.224303
 30
0.0
 10
1171.408885
 20
110.068283
 30
0.0
 10
1171.030385
 20
109.988583
 30
0.0
  0
LWPOLYLINE
  5
14d
100
AcDbEntity
  8
Layer_1
 62
7
100
AcDbPolyline
 90
4
 70
1
 10
1073.967885
 20
83.043723
 30
0.0
 10
1073.967885
 20
105.861413
 30
0.0
 10
1169.838985
 20
105.861413
 30
0.0
 10
1169.838985
 20
83.043723
 30
0.0
  0
LWPOLYLINE
  5
14e
100
AcDbEntity
  8
Layer_1
 62
7
100
AcDbPolyline
 90
4
 70
1
 10
912.185895
 20
83.043723
 30
0.0
 10
912.185895
 20
105.861413
 30
0.0
 10
1008.057015
 20
105.861413
 30
0.0
 10
1008.057015
 20
83.043723
 30
0.0
  0
LWPOLYLINE
  5
14f
100
AcDbEntity
  8
Layer_1
 62
7
100
AcDbPolyline
 90
30
 70
1
 10
1170.644885
 20
75.265973
 30
0.0
 10
1170.266485
 20
75.345673
 30
0.0
 10
1169.913885
 20
75.501693
 30
0.0
 10
1169.601385
 20
75.726843
 30
0.0
 10
1169.342885
 20
76.011693
 30
0.0
 10
1169.149985
 20
76.343753
 30
0.0
 10
1169.030385
 20
76.708683
 30
0.0
 10
1168.990385
 20
77.090233
 30
0.0
 10
1169.030385
 20
77.471783
 30
0.0
 10
1169.149985
 20
77.836713
 30
0.0
 10
1169.342885
 20
78.168773
 30
0.0
 10
1169.601385
 20
78.453993
 30
0.0
 10
1169.913885
 20
78.679523
 30
0.0
 10
1170.266485
 20
78.835543
 30
0.0
 10
1170.644885
 20
78.915243
 30
0.0
 10
1171.030385
 20
78.915243
 30
0.0
 10
1171.408885
 20
78.835543
 30
0.0
 10
1171.761485
 20
78.679523
 30
0.0
 10
1172.073985
 20
78.453993
 30
0.0
 10
1172.332485
 20
78.168773
 30
0.0
 10
1172.525385
 20
77.836713
 30
0.0
 10
1172.645385
 20
77.471783
 30
0.0
 10
1172.685385
 20
77.090233
 30
0.0
 10
1172.645385
 20
76.708683
 30
0.0
 10
1172.525385
 20
76.343753
 30
0.0
 10
1172.332485
 20
76.011693
 30
0.0
 10
1172.073985
 20
75.726843
 30
0.0
 10
1171.761485
 20
75.501693
 30
0.0
 10
1171.408885
 20
75.345673
 30
0.0
 10
1171.030385
 20
75.265973
 30
0.0
  0
LWPOLYLINE
  5
150
100
AcDbEntity
  8
Layer_1
 62
7
100
AcDbPolyline
 90
30
 70
1
 10
1070.779185
 20
75.265973
 30
0.0
 10
1070.400685
 20
75.345673
 30
0.0
 10
1070.048085
 20
75.501693
 30
0.0
 10
1069.735685
 20
75.726843
 30
0.0
 10
1069.477085
 20
76.011693
 30
0.0
 10
1069.284185
 20
76.343753
 30
0.0
 10
1069.164485
 20
76.708683
 30
0.0
 10
1069.124485
 20
77.090233
 30
0.0
 10
1069.164485
 20
77.471783
 30
0.0
 10
1069.284185
 20
77.836713
 30
0.0
 10
1069.477085
 20
78.168773
 30
0.0
 10
1069.735685
 20
78.453993
 30
0.0
 10
1070.048085
 20
78.679523
 30
0.0
 10
1070.400685
 20
78.835543
 30
0.0
 10
1070.779185
 20
78.915243
 30
0.0
 10
1071.164585
 20
78.915243
 30
0.0
 10
1071.543185
 20
78.835543
 30
0.0
 10
1071.895685
 20
78.679523
 30
0.0
 10
1072.208185
 20
78.453993
 30
0.0
 10
1072.466785
 20
78.168773
 30
0.0
 10
1072.659585
 20
77.836713
 30
0.0
 10
1072.779285
 20
77.471783
 30
0.0
 10
1072.819285
 20
77.090233
 30
0.0
 10
1072.779285
 20
76.708683
 30
0.0
 10
1072.659585
 20
76.343753
 30
0.0
 10
1072.466785
 20
76.011693
 30
0.0
 10
1072.208185
 20
75.726843
 30
0.0
 10
1071.895685
 20
75.501693
 30
0.0
 10
1071.543185
 20
75.345673
 30
0.0
 10
1071.164585
 20
75.265973
 30
0.0
  0
LWPOLYLINE
  5
151
100
AcDbEntity
  8
Layer_1
 62
7
100
AcDbPolyline
 90
30
 70
1
 10
908.996785
 20
75.265973
 30
0.0
 10
908.618955
 20
75.345673
 30
0.0
 10
908.266035
 20
75.501693
 30
0.0
 10
907.953525
 20
75.726843
 30
0.0
 10
907.694975
 20
76.011693
 30
0.0
 10
907.501715
 20
76.343753
 30
0.0
 10
907.382445
 20
76.708683
 30
0.0
 10
907.342045
 20
77.090233
 30
0.0
 10
907.382445
 20
77.471783
 30
0.0
 10
907.501715
 20
77.836713
 30
0.0
 10
907.694975
 20
78.168773
 30
0.0
 10
907.953525
 20
78.453993
 30
0.0
 10
908.266035
 20
78.679523
 30
0.0
 10
908.618955
 20
78.835543
 30
0.0
 10
908.996785
 20
78.915243
 30
0.0
 10
909.383065
 20
78.915243
 30
0.0
 10
909.760845
 20
78.835543
 30
0.0
 10
910.113755
 20
78.679523
 30
0.0
 10
910.426285
 20
78.453993
 30
0.0
 10
910.684835
 20
78.168773
 30
0.0
 10
910.877705
 20
77.836713
 30
0.0
 10
910.996975
 20
77.471783
 30
0.0
 10
911.037375
 20
77.090233
 30
0.0
 10
910.996975
 20
76.708683
 30
0.0
 10
910.877705
 20
76.343753
 30
0.0
 10
910.684835
 20
76.011693
 30
0.0
 10
910.426285
 20
75.726843
 30
0.0
 10
910.113755
 20
75.501693
 30
0.0
 10
909.760845
 20
75.345673
 30
0.0
 10
909.383065
 20
75.265973
 30
0.0
  0
LWPOLYLINE
  5
152
100
AcDbEntity
  8
Layer_1
 62
7
100
AcDbPolyline
 90
30
 70
1
 10
1008.862905
 20
75.265973
 30
0.0
 10
1008.484435
 20
75.345673
 30
0.0
 10
1008.131895
 20
75.501693
 30
0.0
 10
1007.819375
 20
75.726843
 30
0.0
 10
1007.560825
 20
76.011693
 30
0.0
 10
1007.367945
 20
76.343753
 30
0.0
 10
1007.248305
 20
76.708683
 30
0.0
 10
1007.208305
 20
77.090233
 30
0.0
 10
1007.248305
 20
77.471783
 30
0.0
 10
1007.367945
 20
77.836713
 30
0.0
 10
1007.560825
 20
78.168773
 30
0.0
 10
1007.819375
 20
78.453993
 30
0.0
 10
1008.131895
 20
78.679523
 30
0.0
 10
1008.484435
 20
78.835543
 30
0.0
 10
1008.862905
 20
78.915243
 30
0.0
 10
1009.248385
 20
78.915243
 30
0.0
 10
1009.626885
 20
78.835543
 30
0.0
 10
1009.979425
 20
78.679523
 30
0.0
 10
1010.291945
 20
78.453993
 30
0.0
 10
1010.550495
 20
78.168773
 30
0.0
 10
1010.743365
 20
77.836713
 30
0.0
 10
1010.863015
 20
77.471783
 30
0.0
 10
1010.903015
 20
77.090233
 30
0.0
 10
1010.863015
 20
76.708683
 30
0.0
 10
1010.743365
 20
76.343753
 30
0.0
 10
1010.550495
 20
76.011693
 30
0.0
 10
1010.291945
 20
75.726843
 30
0.0
 10
1009.979425
 20
75.501693
 30
0.0
 10
1009.626885
 20
75.345673
 30
0.0
 10
1009.248385
 20
75.265973
 30
0.0
  0
LWPOLYLINE
  5
153
100
AcDbEntity
  8
Layer_1
 62
7
100
AcDbPolyline
 90
30
 70
1
 10
1120.712085
 20
75.265973
 30
0.0
 10
1120.333485
 20
75.345673
 30
0.0
 10
1119.981085
 20
75.501693
 30
0.0
 10
1119.668485
 20
75.726843
 30
0.0
 10
1119.409885
 20
76.011693
 30
0.0
 10
1119.217085
 20
76.343753
 30
0.0
 10
1119.097485
 20
76.708683
 30
0.0
 10
1119.057485
 20
77.090233
 30
0.0
 10
1119.097485
 20
77.471783
 30
0.0
 10
1119.217085
 20
77.836713
 30
0.0
 10
1119.409885
 20
78.168773
 30
0.0
 10
1119.668485
 20
78.453993
 30
0.0
 10
1119.981085
 20
78.679523
 30
0.0
 10
1120.333485
 20
78.835543
 30
0.0
 10
1120.712085
 20
78.915243
 30
0.0
 10
1121.097485
 20
78.915243
 30
0.0
 10
1121.475985
 20
78.835543
 30
0.0
 10
1121.828585
 20
78.679523
 30
0.0
 10
1122.141085
 20
78.453993
 30
0.0
 10
1122.399585
 20
78.168773
 30
0.0
 10
1122.592485
 20
77.836713
 30
0.0
 10
1122.712185
 20
77.471783
 30
0.0
 10
1122.752185
 20
77.090233
 30
0.0
 10
1122.712185
 20
76.708683
 30
0.0
 10
1122.592485
 20
76.343753
 30
0.0
 10
1122.399585
 20
76.011693
 30
0.0
 10
1122.141085
 20
75.726843
 30
0.0
 10
1121.828585
 20
75.501693
 30
0.0
 10
1121.475985
 20
75.345673
 30
0.0
 10
1121.097485
 20
75.265973
 30
0.0
  0
LWPOLYLINE
  5
154
100
AcDbEntity
  8
Layer_1
 62
7
100
AcDbPolyline
 90
30
 70
1
 10
958.930045
 20
75.265973
 30
0.0
 10
958.551545
 20
75.345673
 30
0.0
 10
958.199015
 20
75.501693
 30
0.0
 10
957.886485
 20
75.726843
 30
0.0
 10
957.627935
 20
76.011693
 30
0.0
 10
957.435065
 20
76.343753
 30
0.0
 10
957.315415
 20
76.708683
 30
0.0
 10
957.275415
 20
77.090233
 30
0.0
 10
957.315415
 20
77.471783
 30
0.0
 10
957.435065
 20
77.836713
 30
0.0
 10
957.627935
 20
78.168773
 30
0.0
 10
957.886485
 20
78.453993
 30
0.0
 10
958.199015
 20
78.679523
 30
0.0
 10
958.551545
 20
78.835543
 30
0.0
 10
958.930045
 20
78.915243
 30
0.0
 10
959.315535
 20
78.915243
 30
0.0
 10
959.693995
 20
78.835543
 30
0.0
 10
960.046525
 20
78.679523
 30
0.0
 10
960.359055
 20
78.453993
 30
0.0
 10
960.617605
 20
78.168773
 30
0.0
 10
960.810485
 20
77.836713
 30
0.0
 10
960.930135
 20
77.471783
 30
0.0
 10
960.970135
 20
77.090233
 30
0.0
 10
960.930135
 20
76.708683
 30
0.0
 10
960.810485
 20
76.343753
 30
0.0
 10
960.617605
 20
76.011693
 30
0.0
 10
960.359055
 20
75.726843
 30
0.0
 10
960.046525
 20
75.501693
 30
0.0
 10
959.693995
 20
75.345673
 30
0.0
 10
959.315535
 20
75.265973
 30
0.0
  0
LWPOLYLINE
  5
155
100
AcDbEntity
  8
Layer_1
 62
7
100
AcDbPolyline
 90
12
 70
1
 10
1221.803067
 20
232.266247
 30
0.0
 10
865.879425
 20
232.266247
 30
0.0
 10
865.879425
 20
211.874635
 30
0.0
 10
845.404396
 20
211.874635
 30
0.0
 10
845.404396
 20
232.266247
 30
0.0
 10
820.434875
 20
232.266247
 30
0.0
 10
816.439715
 20
228.287377
 30
0.0
 10
816.439715
 20
141.747419
 30
0.0
 10
819.685775
 20
138.514608
 30
0.0
 10
1222.552155
 20
138.514608
 30
0.0
 10
1224.941343
 20
140.894058
 30
0.0
 10
1224.941343
 20
229.140745
 30
0.0
  0
LWPOLYLINE
  5
156
100
AcDbEntity
  8
Layer_1
 62
7
100
AcDbPolyline
 90
30
 70
1
 10
829.158225
 20
148.165417
 30
0.0
 10
829.035545
 20
147.585688
 30
0.0
 10
828.792815
 20
147.044271
 30
0.0
 10
828.443255
 20
146.564820
 30
0.0
 10
828.000795
 20
146.168210
 30
0.0
 10
827.485405
 20
145.871956
 30
0.0
 10
826.920115
 20
145.688864
 30
0.0
 10
826.327825
 20
145.626872
 30
0.0
 10
825.735545
 20
145.688864
 30
0.0
 10
825.170245
 20
145.871956
 30
0.0
 10
824.654855
 20
146.168210
 30
0.0
 10
824.212395
 20
146.564820
 30
0.0
 10
823.862845
 20
147.044271
 30
0.0
 10
823.620105
 20
147.585688
 30
0.0
 10
823.497425
 20
148.165417
 30
0.0
 10
823.497425
 20
148.758057
 30
0.0
 10
823.620105
 20
149.337786
 30
0.0
 10
823.862845
 20
149.879176
 30
0.0
 10
824.212395
 20
150.358654
 30
0.0
 10
824.654855
 20
150.755238
 30
0.0
 10
825.170245
 20
151.051492
 30
0.0
 10
825.735545
 20
151.234583
 30
0.0
 10
826.327825
 20
151.296575
 30
0.0
 10
826.920115
 20
151.234583
 30
0.0
 10
827.485405
 20
151.051492
 30
0.0
 10
828.000795
 20
150.755238
 30
0.0
 10
828.443255
 20
150.358654
 30
0.0
 10
828.792815
 20
149.879176
 30
0.0
 10
829.035545
 20
149.337786
 30
0.0
 10
829.158225
 20
148.758057
 30
0.0
  0
LWPOLYLINE
  5
157
100
AcDbEntity
  8
Layer_1
 62
7
100
AcDbPolyline
 90
30
 70
1
 10
853.628365
 20
177.012067
 30
0.0
 10
853.505686
 20
176.432346
 30
0.0
 10
853.262954
 20
175.890937
 30
0.0
 10
852.913395
 20
175.411475
 30
0.0
 10
852.470935
 20
175.014886
 30
0.0
 10
851.955545
 20
174.718637
 30
0.0
 10
851.390255
 20
174.535546
 30
0.0
 10
850.797964
 20
174.473546
 30
0.0
 10
850.205683
 20
174.535546
 30
0.0
 10
849.640385
 20
174.718637
 30
0.0
 10
849.124995
 20
175.014886
 30
0.0
 10
848.682546
 20
175.411475
 30
0.0
 10
848.332984
 20
175.890937
 30
0.0
 10
848.090255
 20
176.432346
 30
0.0
 10
847.967576
 20
177.012067
 30
0.0
 10
847.967576
 20
177.604726
 30
0.0
 10
848.090255
 20
178.184446
 30
0.0
 10
848.332984
 20
178.725855
 30
0.0
 10
848.682546
 20
179.205306
 30
0.0
 10
849.124995
 20
179.601906
 30
0.0
 10
849.640385
 20
179.898166
 30
0.0
 10
850.205683
 20
180.081268
 30
0.0
 10
850.797964
 20
180.143268
 30
0.0
 10
851.390255
 20
180.081268
 30
0.0
 10
851.955545
 20
179.898166
 30
0.0
 10
852.470935
 20
179.601906
 30
0.0
 10
852.913395
 20
179.205306
 30
0.0
 10
853.262954
 20
178.725855
 30
0.0
 10
853.505686
 20
178.184446
 30
0.0
 10
853.628365
 20
177.604726
 30
0.0
  0
LWPOLYLINE
  5
158
100
AcDbEntity
  8
Layer_1
 62
7
100
AcDbPolyline
 90
30
 70
1
 10
883.591813
 20
221.774076
 30
0.0
 10
883.469123
 20
221.194395
 30
0.0
 10
883.226405
 20
220.652986
 30
0.0
 10
882.876843
 20
220.173485
 30
0.0
 10
882.434383
 20
219.776895
 30
0.0
 10
881.918993
 20
219.480636
 30
0.0
 10
881.353695
 20
219.297536
 30
0.0
 10
880.761415
 20
219.235537
 30
0.0
 10
880.169124
 20
219.297536
 30
0.0
 10
879.603833
 20
219.480636
 30
0.0
 10
879.088444
 20
219.776895
 30
0.0
 10
878.645984
 20
220.173485
 30
0.0
 10
878.296424
 20
220.652986
 30
0.0
 10
878.053703
 20
221.194395
 30
0.0
 10
877.931013
 20
221.774076
 30
0.0
 10
877.931013
 20
222.366767
 30
0.0
 10
878.053703
 20
222.946495
 30
0.0
 10
878.296424
 20
223.487907
 30
0.0
 10
878.645984
 20
223.967356
 30
0.0
 10
879.088444
 20
224.363955
 30
0.0
 10
879.603833
 20
224.660215
 30
0.0
 10
880.169124
 20
224.843317
 30
0.0
 10
880.761415
 20
224.905317
 30
0.0
 10
881.353695
 20
224.843317
 30
0.0
 10
881.918993
 20
224.660215
 30
0.0
 10
882.434383
 20
224.363955
 30
0.0
 10
882.876843
 20
223.967356
 30
0.0
 10
883.226405
 20
223.487907
 30
0.0
 10
883.469123
 20
222.946495
 30
0.0
 10
883.591813
 20
222.366767
 30
0.0
  0
LWPOLYLINE
  5
159
100
AcDbEntity
  8
Layer_1
 62
7
100
AcDbPolyline
 90
4
 70
1
 10
957.667454
 20
168.654379
 30
0.0
 10
903.733254
 20
168.654379
 30
0.0
 10
903.733254
 20
185.763457
 30
0.0
 10
957.667454
 20
185.763457
 30
0.0
  0
LWPOLYLINE
  5
15a
100
AcDbEntity
  8
Layer_1
 62
7
100
AcDbPolyline
 90
30
 70
1
 10
1044.395653
 20
148.165417
 30
0.0
 10
1044.272973
 20
147.585688
 30
0.0
 10
1044.030242
 20
147.044271
 30
0.0
 10
1043.680682
 20
146.564820
 30
0.0
 10
1043.238222
 20
146.168210
 30
0.0
 10
1042.722833
 20
145.871956
 30
0.0
 10
1042.157542
 20
145.688864
 30
0.0
 10
1041.565251
 20
145.626872
 30
0.0
 10
1040.972971
 20
145.688864
 30
0.0
 10
1040.407673
 20
145.871956
 30
0.0
 10
1039.892283
 20
146.168210
 30
0.0
 10
1039.449823
 20
146.564820
 30
0.0
 10
1039.100271
 20
147.044271
 30
0.0
 10
1038.857543
 20
147.585688
 30
0.0
 10
1038.734853
 20
148.165417
 30
0.0
 10
1038.734853
 20
148.758057
 30
0.0
 10
1038.857543
 20
149.337786
 30
0.0
 10
1039.100271
 20
149.879176
 30
0.0
 10
1039.449823
 20
150.358654
 30
0.0
 10
1039.892283
 20
150.755238
 30
0.0
 10
1040.407673
 20
151.051492
 30
0.0
 10
1040.972971
 20
151.234583
 30
0.0
 10
1041.565251
 20
151.296575
 30
0.0
 10
1042.157542
 20
151.234583
 30
0.0
 10
1042.722833
 20
151.051492
 30
0.0
 10
1043.238222
 20
150.755238
 30
0.0
 10
1043.680682
 20
150.358654
 30
0.0
 10
1044.030242
 20
149.879176
 30
0.0
 10
1044.272973
 20
149.337786
 30
0.0
 10
1044.395653
 20
148.758057
 30
0.0
  0
LWPOLYLINE
  5
15b
100
AcDbEntity
  8
Layer_1
 62
7
100
AcDbPolyline
 90
30
 70
1
 10
1048.390771
 20
221.774076
 30
0.0
 10
1048.268081
 20
221.194395
 30
0.0
 10
1048.025352
 20
220.652986
 30
0.0
 10
1047.675793
 20
220.173485
 30
0.0
 10
1047.233333
 20
219.776895
 30
0.0
 10
1046.717951
 20
219.480636
 30
0.0
 10
1046.152653
 20
219.297536
 30
0.0
 10
1045.560362
 20
219.235537
 30
0.0
 10
1044.968081
 20
219.297536
 30
0.0
 10
1044.402791
 20
219.480636
 30
0.0
 10
1043.887391
 20
219.776895
 30
0.0
 10
1043.444941
 20
220.173485
 30
0.0
 10
1043.095382
 20
220.652986
 30
0.0
 10
1042.852661
 20
221.194395
 30
0.0
 10
1042.729971
 20
221.774076
 30
0.0
 10
1042.729971
 20
222.366767
 30
0.0
 10
1042.852661
 20
222.946495
 30
0.0
 10
1043.095382
 20
223.487907
 30
0.0
 10
1043.444941
 20
223.967356
 30
0.0
 10
1043.887391
 20
224.363955
 30
0.0
 10
1044.402791
 20
224.660215
 30
0.0
 10
1044.968081
 20
224.843317
 30
0.0
 10
1045.560362
 20
224.905317
 30
0.0
 10
1046.152653
 20
224.843317
 30
0.0
 10
1046.717951
 20
224.660215
 30
0.0
 10
1047.233333
 20
224.363955
 30
0.0
 10
1047.675793
 20
223.967356
 30
0.0
 10
1048.025352
 20
223.487907
 30
0.0
 10
1048.268081
 20
222.946495
 30
0.0
 10
1048.390771
 20
222.366767
 30
0.0
  0
LWPOLYLINE
  5
15c
100
AcDbEntity
  8
Layer_1
 62
7
100
AcDbPolyline
 90
4
 70
1
 10
1175.401792
 20
168.654379
 30
0.0
 10
1121.467591
 20
168.654379
 30
0.0
 10
1121.467591
 20
185.763457
 30
0.0
 10
1175.401792
 20
185.763457
 30
0.0
  0
LWPOLYLINE
  5
15d
100
AcDbEntity
  8
Layer_1
 62
7
100
AcDbPolyline
 90
30
 70
1
 10
1203.202277
 20
221.774076
 30
0.0
 10
1203.078452
 20
221.194395
 30
0.0
 10
1202.836490
 20
220.652986
 30
0.0
 10
1202.486552
 20
220.173485
 30
0.0
 10
1202.044328
 20
219.776895
 30
0.0
 10
1201.528920
 20
219.480636
 30
0.0
 10
1200.963029
 20
219.297536
 30
0.0
 10
1200.371182
 20
219.235537
 30
0.0
 10
1199.779362
 20
219.297536
 30
0.0
 10
1199.213339
 20
219.480636
 30
0.0
 10
1198.698010
 20
219.776895
 30
0.0
 10
1198.255733
 20
220.173485
 30
0.0
 10
1197.905795
 20
220.652986
 30
0.0
 10
1197.663833
 20
221.194395
 30
0.0
 10
1197.540008
 20
221.774076
 30
0.0
 10
1197.540008
 20
222.366767
 30
0.0
 10
1197.663833
 20
222.946495
 30
0.0
 10
1197.905795
 20
223.487907
 30
0.0
 10
1198.255733
 20
223.967356
 30
0.0
 10
1198.698010
 20
224.363955
 30
0.0
 10
1199.213339
 20
224.660215
 30
0.0
 10
1199.779362
 20
224.843317
 30
0.0
 10
1200.371182
 20
224.905317
 30
0.0
 10
1200.963029
 20
224.843317
 30
0.0
 10
1201.528920
 20
224.660215
 30
0.0
 10
1202.044328
 20
224.363955
 30
0.0
 10
1202.486552
 20
223.967356
 30
0.0
 10
1202.836490
 20
223.487907
 30
0.0
 10
1203.078452
 20
222.946495
 30
0.0
 10
1203.202277
 20
222.366767
 30
0.0
  0
LWPOLYLINE
  5
15e
100
AcDbEntity
  8
Layer_1
 62
7
100
AcDbPolyline
 90
30
 70
1
 10
1203.202277
 20
177.012067
 30
0.0
 10
1203.078452
 20
176.432346
 30
0.0
 10
1202.836490
 20
175.890937
 30
0.0
 10
1202.486552
 20
175.411475
 30
0.0
 10
1202.044328
 20
175.014886
 30
0.0
 10
1201.528920
 20
174.718637
 30
0.0
 10
1200.963029
 20
174.535546
 30
0.0
 10
1200.371182
 20
174.473546
 30
0.0
 10
1199.779362
 20
174.535546
 30
0.0
 10
1199.213339
 20
174.718637
 30
0.0
 10
1198.698010
 20
175.014886
 30
0.0
 10
1198.255733
 20
175.411475
 30
0.0
 10
1197.905795
 20
175.890937
 30
0.0
 10
1197.663833
 20
176.432346
 30
0.0
 10
1197.540008
 20
177.012067
 30
0.0
 10
1197.540008
 20
177.604726
 30
0.0
 10
1197.663833
 20
178.184446
 30
0.0
 10
1197.905795
 20
178.725855
 30
0.0
 10
1198.255733
 20
179.205306
 30
0.0
 10
1198.698010
 20
179.601906
 30
0.0
 10
1199.213339
 20
179.898166
 30
0.0
 10
1199.779362
 20
180.081268
 30
0.0
 10
1200.371182
 20
180.143268
 30
0.0
 10
1200.963029
 20
180.081268
 30
0.0
 10
1201.528920
 20
179.898166
 30
0.0
 10
1202.044328
 20
179.601906
 30
0.0
 10
1202.486552
 20
179.205306
 30
0.0
 10
1202.836490
 20
178.725855
 30
0.0
 10
1203.078452
 20
178.184446
 30
0.0
 10
1203.202277
 20
177.604726
 30
0.0
  0
LWPOLYLINE
  5
15f
100
AcDbEntity
  8
Layer_1
 62
7
100
AcDbPolyline
 90
12
 70
1
 10
811.628271
 20
237.966358
 30
0.0
 10
1214.494699
 20
237.966358
 30
0.0
 10
1217.740713
 20
241.199169
 30
0.0
 10
1217.740713
 20
327.739156
 30
0.0
 10
1213.745584
 20
331.717997
 30
0.0
 10
1188.776061
 20
331.717997
 30
0.0
 10
1188.776061
 20
311.326377
 30
0.0
 10
1168.301042
 20
311.326377
 30
0.0
 10
1168.301042
 20
331.717997
 30
0.0
 10
812.377321
 20
331.717997
 30
0.0
 10
809.239081
 20
328.592617
 30
0.0
 10
809.239081
 20
240.345703
 30
0.0
  0
LWPOLYLINE
  5
160
100
AcDbEntity
  8
Layer_1
 62
7
100
AcDbPolyline
 90
30
 70
1
 10
1205.022245
 20
248.209886
 30
0.0
 10
1205.144932
 20
248.789827
 30
0.0
 10
1205.387661
 20
249.330926
 30
0.0
 10
1205.737202
 20
249.810404
 30
0.0
 10
1206.179665
 20
250.207279
 30
0.0
 10
1206.695047
 20
250.503559
 30
0.0
 10
1207.260355
 20
250.686651
 30
0.0
 10
1207.852652
 20
250.748352
 30
0.0
 10
1208.444921
 20
250.686651
 30
0.0
 10
1209.010230
 20
250.503559
 30
0.0
 10
1209.525559
 20
250.207279
 30
0.0
 10
1209.968022
 20
249.810404
 30
0.0
 10
1210.317589
 20
249.330926
 30
0.0
 10
1210.560318
 20
248.789827
 30
0.0
 10
1210.683005
 20
248.209886
 30
0.0
 10
1210.683005
 20
247.617035
 30
0.0
 10
1210.560318
 20
247.037121
 30
0.0
 10
1210.317589
 20
246.496021
 30
0.0
 10
1209.968022
 20
246.016570
 30
0.0
 10
1209.525559
 20
245.619668
 30
0.0
 10
1209.010230
 20
245.323018
 30
0.0
 10
1208.444921
 20
245.139926
 30
0.0
 10
1207.852652
 20
245.078225
 30
0.0
 10
1207.260355
 20
245.139926
 30
0.0
 10
1206.695047
 20
245.323018
 30
0.0
 10
1206.179665
 20
245.619668
 30
0.0
 10
1205.737202
 20
246.016570
 30
0.0
 10
1205.387661
 20
246.496021
 30
0.0
 10
1205.144932
 20
247.037121
 30
0.0
 10
1205.022245
 20
247.617035
 30
0.0
  0
LWPOLYLINE
  5
161
100
AcDbEntity
  8
Layer_1
 62
7
100
AcDbPolyline
 90
30
 70
1
 10
1180.552097
 20
277.056558
 30
0.0
 10
1180.674784
 20
277.636466
 30
0.0
 10
1180.917513
 20
278.177576
 30
0.0
 10
1181.267081
 20
278.657027
 30
0.0
 10
1181.709543
 20
279.053926
 30
0.0
 10
1182.224872
 20
279.350185
 30
0.0
 10
1182.790207
 20
279.533285
 30
0.0
 10
1183.382504
 20
279.594986
 30
0.0
 10
1183.974747
 20
279.533285
 30
0.0
 10
1184.540082
 20
279.350185
 30
0.0
 10
1185.055438
 20
279.053926
 30
0.0
 10
1185.497900
 20
278.657027
 30
0.0
 10
1185.847441
 20
278.177576
 30
0.0
 10
1186.090170
 20
277.636466
 30
0.0
 10
1186.212857
 20
277.056558
 30
0.0
 10
1186.212857
 20
276.463677
 30
0.0
 10
1186.090170
 20
275.883776
 30
0.0
 10
1185.847441
 20
275.342656
 30
0.0
 10
1185.497900
 20
274.863207
 30
0.0
 10
1185.055438
 20
274.466308
 30
0.0
 10
1184.540082
 20
274.169668
 30
0.0
 10
1183.974747
 20
273.986565
 30
0.0
 10
1183.382504
 20
273.924867
 30
0.0
 10
1182.790207
 20
273.986565
 30
0.0
 10
1182.224872
 20
274.169668
 30
0.0
 10
1181.709543
 20
274.466308
 30
0.0
 10
1181.267081
 20
274.863207
 30
0.0
 10
1180.917513
 20
275.342656
 30
0.0
 10
1180.674784
 20
275.883776
 30
0.0
 10
1180.552097
 20
276.463677
 30
0.0
  0
LWPOLYLINE
  5
162
100
AcDbEntity
  8
Layer_1
 62
7
100
AcDbPolyline
 90
30
 70
1
 10
1150.588643
 20
321.818625
 30
0.0
 10
1150.711331
 20
322.398536
 30
0.0
 10
1150.954059
 20
322.939646
 30
0.0
 10
1151.303627
 20
323.419106
 30
0.0
 10
1151.746090
 20
323.815996
 30
0.0
 10
1152.261419
 20
324.112256
 30
0.0
 10
1152.826780
 20
324.295345
 30
0.0
 10
1153.419050
 20
324.357045
 30
0.0
 10
1154.011293
 20
324.295345
 30
0.0
 10
1154.576629
 20
324.112256
 30
0.0
 10
1155.091984
 20
323.815996
 30
0.0
 10
1155.534447
 20
323.419106
 30
0.0
 10
1155.883988
 20
322.939646
 30
0.0
 10
1156.126743
 20
322.398536
 30
0.0
 10
1156.249404
 20
321.818625
 30
0.0
 10
1156.249404
 20
321.225747
 30
0.0
 10
1156.126743
 20
320.645836
 30
0.0
 10
1155.883988
 20
320.104726
 30
0.0
 10
1155.534447
 20
319.625277
 30
0.0
 10
1155.091984
 20
319.228375
 30
0.0
 10
1154.576629
 20
318.931746
 30
0.0
 10
1154.011293
 20
318.748657
 30
0.0
 10
1153.419050
 20
318.686956
 30
0.0
 10
1152.826780
 20
318.748657
 30
0.0
 10
1152.261419
 20
318.931746
 30
0.0
 10
1151.746090
 20
319.228375
 30
0.0
 10
1151.303627
 20
319.625277
 30
0.0
 10
1150.954059
 20
320.104726
 30
0.0
 10
1150.711331
 20
320.645836
 30
0.0
 10
1150.588643
 20
321.225747
 30
0.0
  0
LWPOLYLINE
  5
163
100
AcDbEntity
  8
Layer_1
 62
7
100
AcDbPolyline
 90
4
 70
1
 10
1076.513010
 20
285.215178
 30
0.0
 10
1130.447211
 20
285.215178
 30
0.0
 10
1130.447211
 20
268.106129
 30
0.0
 10
1076.513010
 20
268.106129
 30
0.0
  0
LWPOLYLINE
  5
164
100
AcDbEntity
  8
Layer_1
 62
7
100
AcDbPolyline
 90
30
 70
1
 10
989.784801
 20
248.209886
 30
0.0
 10
989.907483
 20
248.789827
 30
0.0
 10
990.150212
 20
249.330926
 30
0.0
 10
990.499764
 20
249.810404
 30
0.0
 10
990.942224
 20
250.207279
 30
0.0
 10
991.457622
 20
250.503559
 30
0.0
 10
992.022912
 20
250.686651
 30
0.0
 10
992.615192
 20
250.748352
 30
0.0
 10
993.207483
 20
250.686651
 30
0.0
 10
993.772781
 20
250.503559
 30
0.0
 10
994.288163
 20
250.207279
 30
0.0
 10
994.730634
 20
249.810404
 30
0.0
 10
995.080183
 20
249.330926
 30
0.0
 10
995.322912
 20
248.789827
 30
0.0
 10
995.445601
 20
248.209886
 30
0.0
 10
995.445601
 20
247.617035
 30
0.0
 10
995.322912
 20
247.037121
 30
0.0
 10
995.080183
 20
246.496021
 30
0.0
 10
994.730634
 20
246.016570
 30
0.0
 10
994.288163
 20
245.619668
 30
0.0
 10
993.772781
 20
245.323018
 30
0.0
 10
993.207483
 20
245.139926
 30
0.0
 10
992.615192
 20
245.078225
 30
0.0
 10
992.022912
 20
245.139926
 30
0.0
 10
991.457622
 20
245.323018
 30
0.0
 10
990.942224
 20
245.619668
 30
0.0
 10
990.499764
 20
246.016570
 30
0.0
 10
990.150212
 20
246.496021
 30
0.0
 10
989.907483
 20
247.037121
 30
0.0
 10
989.784801
 20
247.617035
 30
0.0
  0
LWPOLYLINE
  5
165
100
AcDbEntity
  8
Layer_1
 62
7
100
AcDbPolyline
 90
30
 70
1
 10
985.789683
 20
321.818625
 30
0.0
 10
985.912373
 20
322.398536
 30
0.0
 10
986.155102
 20
322.939646
 30
0.0
 10
986.504653
 20
323.419106
 30
0.0
 10
986.947113
 20
323.815996
 30
0.0
 10
987.462464
 20
324.112256
 30
0.0
 10
988.027801
 20
324.295345
 30
0.0
 10
988.620082
 20
324.357045
 30
0.0
 10
989.212333
 20
324.295345
 30
0.0
 10
989.777663
 20
324.112256
 30
0.0
 10
990.293024
 20
323.815996
 30
0.0
 10
990.735473
 20
323.419106
 30
0.0
 10
991.085033
 20
322.939646
 30
0.0
 10
991.327754
 20
322.398536
 30
0.0
 10
991.450443
 20
321.818625
 30
0.0
 10
991.450443
 20
321.225747
 30
0.0
 10
991.327754
 20
320.645836
 30
0.0
 10
991.085033
 20
320.104726
 30
0.0
 10
990.735473
 20
319.625277
 30
0.0
 10
990.293024
 20
319.228375
 30
0.0
 10
989.777663
 20
318.931746
 30
0.0
 10
989.212333
 20
318.748657
 30
0.0
 10
988.620082
 20
318.686956
 30
0.0
 10
988.027801
 20
318.748657
 30
0.0
 10
987.462464
 20
318.931746
 30
0.0
 10
986.947113
 20
319.228375
 30
0.0
 10
986.504653
 20
319.625277
 30
0.0
 10
986.155102
 20
320.104726
 30
0.0
 10
985.912373
 20
320.645836
 30
0.0
 10
985.789683
 20
321.225747
 30
0.0
  0
LWPOLYLINE
  5
166
100
AcDbEntity
  8
Layer_1
 62
7
100
AcDbPolyline
 90
4
 70
1
 10
858.778601
 20
285.215178
 30
0.0
 10
912.712815
 20
285.215178
 30
0.0
 10
912.712815
 20
268.106129
 30
0.0
 10
858.778601
 20
268.106129
 30
0.0
  0
LWPOLYLINE
  5
167
100
AcDbEntity
  8
Layer_1
 62
7
100
AcDbPolyline
 90
30
 70
1
 10
830.978141
 20
277.056558
 30
0.0
 10
831.101961
 20
277.636466
 30
0.0
 10
831.343931
 20
278.177576
 30
0.0
 10
831.693871
 20
278.657027
 30
0.0
 10
832.136131
 20
279.053926
 30
0.0
 10
832.651491
 20
279.350185
 30
0.0
 10
833.217391
 20
279.533285
 30
0.0
 10
833.809261
 20
279.594986
 30
0.0
 10
834.401051
 20
279.533285
 30
0.0
 10
834.967071
 20
279.350185
 30
0.0
 10
835.482420
 20
279.053926
 30
0.0
 10
835.924690
 20
278.657027
 30
0.0
 10
836.274620
 20
278.177576
 30
0.0
 10
836.516600
 20
277.636466
 30
0.0
 10
836.640422
 20
277.056558
 30
0.0
 10
836.640422
 20
276.463677
 30
0.0
 10
836.516600
 20
275.883776
 30
0.0
 10
836.274620
 20
275.342656
 30
0.0
 10
835.924690
 20
274.863207
 30
0.0
 10
835.482420
 20
274.466308
 30
0.0
 10
834.967071
 20
274.169668
 30
0.0
 10
834.401051
 20
273.986565
 30
0.0
 10
833.809261
 20
273.924867
 30
0.0
 10
833.217391
 20
273.986565
 30
0.0
 10
832.651491
 20
274.169668
 30
0.0
 10
832.136131
 20
274.466308
 30
0.0
 10
831.693871
 20
274.863207
 30
0.0
 10
831.343931
 20
275.342656
 30
0.0
 10
831.101961
 20
275.883776
 30
0.0
 10
830.978141
 20
276.463677
 30
0.0
  0
LWPOLYLINE
  5
168
100
AcDbEntity
  8
Layer_1
 62
7
100
AcDbPolyline
 90
30
 70
1
 10
830.978141
 20
321.818625
 30
0.0
 10
831.101961
 20
322.398536
 30
0.0
 10
831.343931
 20
322.939646
 30
0.0
 10
831.693871
 20
323.419106
 30
0.0
 10
832.136131
 20
323.815996
 30
0.0
 10
832.651491
 20
324.112256
 30
0.0
 10
833.217391
 20
324.295345
 30
0.0
 10
833.809261
 20
324.357045
 30
0.0
 10
834.401051
 20
324.295345
 30
0.0
 10
834.967071
 20
324.112256
 30
0.0
 10
835.482420
 20
323.815996
 30
0.0
 10
835.924690
 20
323.419106
 30
0.0
 10
836.274620
 20
322.939646
 30
0.0
 10
836.516600
 20
322.398536
 30
0.0
 10
836.640422
 20
321.818625
 30
0.0
 10
836.640422
 20
321.225747
 30
0.0
 10
836.516600
 20
320.645836
 30
0.0
 10
836.274620
 20
320.104726
 30
0.0
 10
835.924690
 20
319.625277
 30
0.0
 10
835.482420
 20
319.228375
 30
0.0
 10
834.967071
 20
318.931746
 30
0.0
 10
834.401051
 20
318.748657
 30
0.0
 10
833.809261
 20
318.686956
 30
0.0
 10
833.217391
 20
318.748657
 30
0.0
 10
832.651491
 20
318.931746
 30
0.0
 10
832.136131
 20
319.228375
 30
0.0
 10
831.693871
 20
319.625277
 30
0.0
 10
831.343931
 20
320.104726
 30
0.0
 10
831.101961
 20
320.645836
 30
0.0
 10
830.978141
 20
321.225747
 30
0.0
  0
LWPOLYLINE
  5
169
100
AcDbEntity
  8
Layer_1
 62
7
100
AcDbPolyline
 90
45
 70
1
 10
770.309760
 20
128.893640
 30
0.0
 10
772.601580
 20
129.914030
 30
0.0
 10
774.631120
 20
131.388600
 30
0.0
 10
776.309770
 20
133.252910
 30
0.0
 10
777.564080
 20
135.425510
 30
0.0
 10
778.254560
 20
137.550590
 30
0.0
 10
794.649180
 20
169.726750
 30
0.0
 10
794.691780
 20
169.735750
 30
0.0
 10
796.601570
 20
170.586070
 30
0.0
 10
798.292870
 20
171.814870
 30
0.0
 10
799.691770
 20
173.368460
 30
0.0
 10
800.737090
 20
175.178960
 30
0.0
 10
801.383070
 20
177.167270
 30
0.0
 10
801.601590
 20
179.246370
 30
0.0
 10
801.383070
 20
181.325470
 30
0.0
 10
800.737090
 20
183.313770
 30
0.0
 10
799.691770
 20
185.124170
 30
0.0
 10
798.292870
 20
186.677770
 30
0.0
 10
796.601570
 20
187.906670
 30
0.0
 10
794.691780
 20
188.756970
 30
0.0
 10
792.646870
 20
189.191570
 30
0.0
 10
790.601590
 20
189.191570
 30
0.0
 10
790.601590
 20
189.306370
 30
0.0
 10
788.601580
 20
189.306370
 30
0.0
 10
788.601580
 20
211.806366
 30
0.0
 10
734.601580
 20
211.806366
 30
0.0
 10
734.601580
 20
186.334970
 30
0.0
 10
733.511390
 20
185.124160
 30
0.0
 10
732.466070
 20
183.313770
 30
0.0
 10
731.820090
 20
181.325460
 30
0.0
 10
731.601570
 20
179.246360
 30
0.0
 10
731.820090
 20
177.167260
 30
0.0
 10
732.466070
 20
175.178960
 30
0.0
 10
733.511390
 20
173.368460
 30
0.0
 10
734.910290
 20
171.814870
 30
0.0
 10
736.601590
 20
170.586070
 30
0.0
 10
737.784570
 20
170.059360
 30
0.0
 10
755.939190
 20
134.429040
 30
0.0
 10
756.151780
 20
134.537390
 30
0.0
 10
756.893380
 20
133.252910
 30
0.0
 10
758.572030
 20
131.388600
 30
0.0
 10
760.601570
 20
129.914030
 30
0.0
 10
762.893390
 20
128.893640
 30
0.0
 10
765.347240
 20
128.372140
 30
0.0
 10
767.855920
 20
128.372140
 30
0.0
  0
LWPOLYLINE
  5
16a
100
AcDbEntity
  8
Layer_1
 62
7
100
AcDbPolyline
 90
30
 70
1
 10
746.761870
 20
201.074167
 30
0.0
 10
746.097260
 20
201.215477
 30
0.0
 10
745.476580
 20
201.491767
 30
0.0
 10
744.926880
 20
201.891167
 30
0.0
 10
744.472270
 20
202.396073
 30
0.0
 10
744.132570
 20
202.984463
 30
0.0
 10
743.922570
 20
203.630663
 30
0.0
 10
743.851570
 20
204.306373
 30
0.0
 10
743.922570
 20
204.982073
 30
0.0
 10
744.132570
 20
205.628273
 30
0.0
 10
744.472270
 20
206.216673
 30
0.0
 10
744.926880
 20
206.721559
 30
0.0
 10
745.476580
 20
207.120969
 30
0.0
 10
746.097260
 20
207.397259
 30
0.0
 10
746.761870
 20
207.538569
 30
0.0
 10
747.441270
 20
207.538569
 30
0.0
 10
748.105870
 20
207.397259
 30
0.0
 10
748.726560
 20
207.120969
 30
0.0
 10
749.276280
 20
206.721559
 30
0.0
 10
749.730860
 20
206.216673
 30
0.0
 10
750.070560
 20
205.628273
 30
0.0
 10
750.280560
 20
204.982073
 30
0.0
 10
750.351560
 20
204.306373
 30
0.0
 10
750.280560
 20
203.630663
 30
0.0
 10
750.070560
 20
202.984463
 30
0.0
 10
749.730860
 20
202.396073
 30
0.0
 10
749.276280
 20
201.891167
 30
0.0
 10
748.726560
 20
201.491767
 30
0.0
 10
748.105870
 20
201.215477
 30
0.0
 10
747.441270
 20
201.074167
 30
0.0
  0
LWPOLYLINE
  5
16b
100
AcDbEntity
  8
Layer_1
 62
7
100
AcDbPolyline
 90
30
 70
1
 10
776.761860
 20
201.074167
 30
0.0
 10
776.097250
 20
201.215477
 30
0.0
 10
775.476540
 20
201.491767
 30
0.0
 10
774.926900
 20
201.891167
 30
0.0
 10
774.472260
 20
202.396073
 30
0.0
 10
774.132540
 20
202.984463
 30
0.0
 10
773.922590
 20
203.630663
 30
0.0
 10
773.851590
 20
204.306373
 30
0.0
 10
773.922590
 20
204.982073
 30
0.0
 10
774.132540
 20
205.628273
 30
0.0
 10
774.472260
 20
206.216673
 30
0.0
 10
774.926900
 20
206.721559
 30
0.0
 10
775.476570
 20
207.120969
 30
0.0
 10
776.097250
 20
207.397259
 30
0.0
 10
776.761860
 20
207.538569
 30
0.0
 10
777.441260
 20
207.538569
 30
0.0
 10
778.105870
 20
207.397259
 30
0.0
 10
778.726580
 20
207.120969
 30
0.0
 10
779.276280
 20
206.721559
 30
0.0
 10
779.730880
 20
206.216673
 30
0.0
 10
780.070580
 20
205.628273
 30
0.0
 10
780.280580
 20
204.982073
 30
0.0
 10
780.351580
 20
204.306373
 30
0.0
 10
780.280580
 20
203.630663
 30
0.0
 10
780.070580
 20
202.984463
 30
0.0
 10
779.730880
 20
202.396073
 30
0.0
 10
779.276280
 20
201.891167
 30
0.0
 10
778.726580
 20
201.491767
 30
0.0
 10
778.105870
 20
201.215477
 30
0.0
 10
777.441260
 20
201.074167
 30
0.0
  0
LWPOLYLINE
  5
16c
100
AcDbEntity
  8
Layer_1
 62
7
100
AcDbPolyline
 90
30
 70
1
 10
740.251370
 20
175.914760
 30
0.0
 10
739.566370
 20
176.060360
 30
0.0
 10
738.926580
 20
176.345160
 30
0.0
 10
738.359970
 20
176.756860
 30
0.0
 10
737.891370
 20
177.277260
 30
0.0
 10
737.541170
 20
177.883760
 30
0.0
 10
737.324760
 20
178.549860
 30
0.0
 10
737.251560
 20
179.246360
 30
0.0
 10
737.324760
 20
179.942860
 30
0.0
 10
737.541170
 20
180.608960
 30
0.0
 10
737.891370
 20
181.215470
 30
0.0
 10
738.359970
 20
181.735870
 30
0.0
 10
738.926580
 20
182.147560
 30
0.0
 10
739.566370
 20
182.432360
 30
0.0
 10
740.251370
 20
182.577970
 30
0.0
 10
740.951780
 20
182.577970
 30
0.0
 10
741.636760
 20
182.432360
 30
0.0
 10
742.276570
 20
182.147560
 30
0.0
 10
742.843180
 20
181.735870
 30
0.0
 10
743.311780
 20
181.215470
 30
0.0
 10
743.661980
 20
180.608960
 30
0.0
 10
743.878360
 20
179.942860
 30
0.0
 10
743.951560
 20
179.246360
 30
0.0
 10
743.878360
 20
178.549860
 30
0.0
 10
743.661980
 20
177.883760
 30
0.0
 10
743.311780
 20
177.277260
 30
0.0
 10
742.843180
 20
176.756860
 30
0.0
 10
742.276570
 20
176.345160
 30
0.0
 10
741.636760
 20
176.060360
 30
0.0
 10
740.951780
 20
175.914760
 30
0.0
  0
LWPOLYLINE
  5
16d
100
AcDbEntity
  8
Layer_1
 62
7
100
AcDbPolyline
 90
30
 70
1
 10
792.251360
 20
175.914760
 30
0.0
 10
791.566380
 20
176.060360
 30
0.0
 10
790.926570
 20
176.345160
 30
0.0
 10
790.359960
 20
176.756860
 30
0.0
 10
789.891360
 20
177.277260
 30
0.0
 10
789.541160
 20
177.883760
 30
0.0
 10
789.324780
 20
178.549860
 30
0.0
 10
789.251580
 20
179.246360
 30
0.0
 10
789.324780
 20
179.942860
 30
0.0
 10
789.541160
 20
180.608960
 30
0.0
 10
789.891360
 20
181.215470
 30
0.0
 10
790.359960
 20
181.735870
 30
0.0
 10
790.926570
 20
182.147560
 30
0.0
 10
791.566380
 20
182.432360
 30
0.0
 10
792.251360
 20
182.577970
 30
0.0
 10
792.951770
 20
182.577970
 30
0.0
 10
793.636770
 20
182.432360
 30
0.0
 10
794.276560
 20
182.147560
 30
0.0
 10
794.843170
 20
181.735870
 30
0.0
 10
795.311770
 20
181.215470
 30
0.0
 10
795.661980
 20
180.608960
 30
0.0
 10
795.878380
 20
179.942860
 30
0.0
 10
795.951580
 20
179.246360
 30
0.0
 10
795.878380
 20
178.549860
 30
0.0
 10
795.661980
 20
177.883760
 30
0.0
 10
795.311770
 20
177.277260
 30
0.0
 10
794.843170
 20
176.756860
 30
0.0
 10
794.276560
 20
176.345160
 30
0.0
 10
793.636770
 20
176.060360
 30
0.0
 10
792.951770
 20
175.914760
 30
0.0
  0
LWPOLYLINE
  5
16e
100
AcDbEntity
  8
Layer_1
 62
7
100
AcDbPolyline
 90
34
 70
1
 10
766.251420
 20
133.859710
 30
0.0
 10
765.566360
 20
134.005310
 30
0.0
 10
764.926570
 20
134.290160
 30
0.0
 10
764.359990
 20
134.701820
 30
0.0
 10
763.891360
 20
135.222260
 30
0.0
 10
763.541210
 20
135.828790
 30
0.0
 10
763.324790
 20
136.494850
 30
0.0
 10
763.251590
 20
137.191340
 30
0.0
 10
763.324790
 20
137.887860
 30
0.0
 10
763.443320
 20
138.252580
 30
0.0
 10
763.568600
 20
138.316480
 30
0.0
 10
763.632500
 20
138.513280
 30
0.0
 10
763.972220
 20
139.101670
 30
0.0
 10
764.426860
 20
139.606600
 30
0.0
 10
764.976530
 20
140.005960
 30
0.0
 10
765.597220
 20
140.282320
 30
0.0
 10
766.261820
 20
140.423550
 30
0.0
 10
766.941220
 20
140.423550
 30
0.0
 10
767.605830
 20
140.282320
 30
0.0
 10
768.226510
 20
140.005960
 30
0.0
 10
768.776180
 20
139.606600
 30
0.0
 10
769.230820
 20
139.101670
 30
0.0
 10
769.570540
 20
138.513280
 30
0.0
 10
769.780490
 20
137.867090
 30
0.0
 10
769.790490
 20
137.776990
 30
0.0
 10
769.896140
 20
137.723190
 30
0.0
 10
769.952040
 20
137.191350
 30
0.0
 10
769.878840
 20
136.494860
 30
0.0
 10
769.662410
 20
135.828800
 30
0.0
 10
769.312260
 20
135.222270
 30
0.0
 10
768.843630
 20
134.701830
 30
0.0
 10
768.277050
 20
134.290170
 30
0.0
 10
767.637260
 20
134.005320
 30
0.0
 10
766.952200
 20
133.859720
 30
0.0
  0
LWPOLYLINE
  5
16f
100
AcDbEntity
  8
Layer_1
 62
7
100
AcDbPolyline
 90
47
 70
1
 10
678.381190
 20
146.060900
 30
0.0
 10
680.672980
 20
147.081290
 30
0.0
 10
682.702550
 20
148.555860
 30
0.0
 10
684.381170
 20
150.420170
 30
0.0
 10
685.635480
 20
152.592770
 30
0.0
 10
686.325990
 20
154.717860
 30
0.0
 10
702.720590
 20
186.894010
 30
0.0
 10
702.763190
 20
186.903010
 30
0.0
 10
704.673000
 20
187.753330
 30
0.0
 10
706.364300
 20
188.982130
 30
0.0
 10
707.763200
 20
190.535720
 30
0.0
 10
708.808490
 20
192.346230
 30
0.0
 10
709.454500
 20
194.334530
 30
0.0
 10
709.672990
 20
196.413630
 30
0.0
 10
709.454500
 20
198.492727
 30
0.0
 10
708.808490
 20
200.481027
 30
0.0
 10
707.763200
 20
202.291427
 30
0.0
 10
706.364300
 20
203.845023
 30
0.0
 10
704.673000
 20
205.073923
 30
0.0
 10
702.763190
 20
205.924223
 30
0.0
 10
700.718300
 20
206.358823
 30
0.0
 10
698.672990
 20
206.358823
 30
0.0
 10
698.672990
 20
206.473622
 30
0.0
 10
650.672970
 20
206.473622
 30
0.0
 10
650.672970
 20
206.358823
 30
0.0
 10
648.627660
 20
206.358823
 30
0.0
 10
646.582760
 20
205.924223
 30
0.0
 10
644.672950
 20
205.073923
 30
0.0
 10
642.981660
 20
203.845023
 30
0.0
 10
641.582760
 20
202.291427
 30
0.0
 10
640.537460
 20
200.481027
 30
0.0
 10
639.891450
 20
198.492727
 30
0.0
 10
639.672960
 20
196.413630
 30
0.0
 10
639.891450
 20
194.334520
 30
0.0
 10
640.537460
 20
192.346220
 30
0.0
 10
641.582760
 20
190.535720
 30
0.0
 10
642.981660
 20
188.982130
 30
0.0
 10
644.672950
 20
187.753330
 30
0.0
 10
645.855960
 20
187.226620
 30
0.0
 10
664.010570
 20
151.596300
 30
0.0
 10
664.223170
 20
151.704650
 30
0.0
 10
664.964790
 20
150.420170
 30
0.0
 10
666.643420
 20
148.555860
 30
0.0
 10
668.672970
 20
147.081290
 30
0.0
 10
670.964780
 20
146.060900
 30
0.0
 10
673.418640
 20
145.539400
 30
0.0
 10
675.927300
 20
145.539400
 30
0.0
  0
LWPOLYLINE
  5
170
100
AcDbEntity
  8
Layer_1
 62
7
100
AcDbPolyline
 90
38
 70
1
 10
674.385530
 20
192.678720
 30
0.0
 10
673.823180
 20
192.798220
 30
0.0
 10
673.297970
 20
193.032020
 30
0.0
 10
672.832870
 20
193.369920
 30
0.0
 10
672.448180
 20
193.797220
 30
0.0
 10
672.160730
 20
194.295120
 30
0.0
 10
671.983080
 20
194.841820
 30
0.0
 10
671.922980
 20
195.413620
 30
0.0
 10
671.975580
 20
195.913620
 30
0.0
 10
671.922980
 20
196.413630
 30
0.0
 10
671.975580
 20
196.913630
 30
0.0
 10
671.922980
 20
197.413627
 30
0.0
 10
671.983080
 20
197.985327
 30
0.0
 10
672.160730
 20
198.532127
 30
0.0
 10
672.448180
 20
199.030027
 30
0.0
 10
672.832870
 20
199.457227
 30
0.0
 10
673.297990
 20
199.795227
 30
0.0
 10
673.823180
 20
200.029027
 30
0.0
 10
674.385530
 20
200.148527
 30
0.0
 10
674.960420
 20
200.148527
 30
0.0
 10
675.522780
 20
200.029027
 30
0.0
 10
676.047970
 20
199.795227
 30
0.0
 10
676.513090
 20
199.457227
 30
0.0
 10
676.897770
 20
199.030027
 30
0.0
 10
677.185220
 20
198.532127
 30
0.0
 10
677.362880
 20
197.985327
 30
0.0
 10
677.422980
 20
197.413627
 30
0.0
 10
677.370480
 20
196.913630
 30
0.0
 10
677.422980
 20
196.413630
 30
0.0
 10
677.370480
 20
195.913620
 30
0.0
 10
677.422980
 20
195.413620
 30
0.0
 10
677.362880
 20
194.841820
 30
0.0
 10
677.185220
 20
194.295120
 30
0.0
 10
676.897770
 20
193.797220
 30
0.0
 10
676.513090
 20
193.369920
 30
0.0
 10
676.047970
 20
193.032020
 30
0.0
 10
675.522780
 20
192.798220
 30
0.0
 10
674.960420
 20
192.678720
 30
0.0
  0
LWPOLYLINE
  5
171
100
AcDbEntity
  8
Layer_1
 62
7
100
AcDbPolyline
 90
30
 70
1
 10
700.322800
 20
193.082020
 30
0.0
 10
699.637790
 20
193.227620
 30
0.0
 10
698.998010
 20
193.512420
 30
0.0
 10
698.431400
 20
193.924120
 30
0.0
 10
697.962800
 20
194.444520
 30
0.0
 10
697.612580
 20
195.051020
 30
0.0
 10
697.396180
 20
195.717120
 30
0.0
 10
697.322980
 20
196.413630
 30
0.0
 10
697.396180
 20
197.110127
 30
0.0
 10
697.612580
 20
197.776227
 30
0.0
 10
697.962800
 20
198.382727
 30
0.0
 10
698.431400
 20
198.903127
 30
0.0
 10
698.998010
 20
199.314827
 30
0.0
 10
699.637790
 20
199.599627
 30
0.0
 10
700.322800
 20
199.745227
 30
0.0
 10
701.023210
 20
199.745227
 30
0.0
 10
701.708190
 20
199.599627
 30
0.0
 10
702.348000
 20
199.314827
 30
0.0
 10
702.914610
 20
198.903127
 30
0.0
 10
703.383180
 20
198.382727
 30
0.0
 10
703.733390
 20
197.776227
 30
0.0
 10
703.949790
 20
197.110127
 30
0.0
 10
704.022990
 20
196.413630
 30
0.0
 10
703.949790
 20
195.717120
 30
0.0
 10
703.733390
 20
195.051020
 30
0.0
 10
703.383180
 20
194.444520
 30
0.0
 10
702.914610
 20
193.924120
 30
0.0
 10
702.348000
 20
193.512420
 30
0.0
 10
701.708190
 20
193.227620
 30
0.0
 10
701.023210
 20
193.082020
 30
0.0
  0
LWPOLYLINE
  5
172
100
AcDbEntity
  8
Layer_1
 62
7
100
AcDbPolyline
 90
30
 70
1
 10
648.322760
 20
193.082020
 30
0.0
 10
647.637770
 20
193.227620
 30
0.0
 10
646.997960
 20
193.512420
 30
0.0
 10
646.431360
 20
193.924120
 30
0.0
 10
645.962770
 20
194.444520
 30
0.0
 10
645.612570
 20
195.051020
 30
0.0
 10
645.396170
 20
195.717120
 30
0.0
 10
645.322970
 20
196.413630
 30
0.0
 10
645.396170
 20
197.110127
 30
0.0
 10
645.612570
 20
197.776227
 30
0.0
 10
645.962770
 20
198.382727
 30
0.0
 10
646.431360
 20
198.903127
 30
0.0
 10
646.997960
 20
199.314827
 30
0.0
 10
647.637770
 20
199.599627
 30
0.0
 10
648.322760
 20
199.745227
 30
0.0
 10
649.023160
 20
199.745227
 30
0.0
 10
649.708160
 20
199.599627
 30
0.0
 10
650.347960
 20
199.314827
 30
0.0
 10
650.914560
 20
198.903127
 30
0.0
 10
651.383170
 20
198.382727
 30
0.0
 10
651.733360
 20
197.776227
 30
0.0
 10
651.949770
 20
197.110127
 30
0.0
 10
652.022970
 20
196.413630
 30
0.0
 10
651.949770
 20
195.717120
 30
0.0
 10
651.733360
 20
195.051020
 30
0.0
 10
651.383170
 20
194.444520
 30
0.0
 10
650.914560
 20
193.924120
 30
0.0
 10
650.347960
 20
193.512420
 30
0.0
 10
649.708160
 20
193.227620
 30
0.0
 10
649.023160
 20
193.082020
 30
0.0
  0
LWPOLYLINE
  5
173
100
AcDbEntity
  8
Layer_1
 62
7
100
AcDbPolyline
 90
34
 70
1
 10
674.322810
 20
151.026970
 30
0.0
 10
673.637770
 20
151.172570
 30
0.0
 10
672.997990
 20
151.457420
 30
0.0
 10
672.431400
 20
151.869090
 30
0.0
 10
671.962770
 20
152.389520
 30
0.0
 10
671.612610
 20
152.996050
 30
0.0
 10
671.396180
 20
153.662110
 30
0.0
 10
671.322980
 20
154.358600
 30
0.0
 10
671.396180
 20
155.055120
 30
0.0
 10
671.514720
 20
155.419850
 30
0.0
 10
671.640010
 20
155.483750
 30
0.0
 10
671.704010
 20
155.680550
 30
0.0
 10
672.043730
 20
156.268930
 30
0.0
 10
672.498350
 20
156.773860
 30
0.0
 10
673.048040
 20
157.173220
 30
0.0
 10
673.668720
 20
157.449580
 30
0.0
 10
674.333320
 20
157.590810
 30
0.0
 10
675.012730
 20
157.590810
 30
0.0
 10
675.677320
 20
157.449580
 30
0.0
 10
676.298030
 20
157.173220
 30
0.0
 10
676.847710
 20
156.773860
 30
0.0
 10
677.302340
 20
156.268930
 30
0.0
 10
677.642040
 20
155.680550
 30
0.0
 10
677.852020
 20
155.034360
 30
0.0
 10
677.862020
 20
154.944260
 30
0.0
 10
677.967700
 20
154.890460
 30
0.0
 10
678.023600
 20
154.358610
 30
0.0
 10
677.950400
 20
153.662120
 30
0.0
 10
677.733970
 20
152.996060
 30
0.0
 10
677.383820
 20
152.389530
 30
0.0
 10
676.915190
 20
151.869100
 30
0.0
 10
676.348580
 20
151.457430
 30
0.0
 10
675.708790
 20
151.172580
 30
0.0
 10
675.023750
 20
151.026980
 30
0.0
  0
LWPOLYLINE
  5
174
100
AcDbEntity
  8
Layer_1
 62
7
100
AcDbPolyline
 90
47
 70
1
 10
581.738260
 20
143.703750
 30
0.0
 10
584.030070
 20
144.724140
 30
0.0
 10
586.059630
 20
146.198720
 30
0.0
 10
587.738260
 20
148.063020
 30
0.0
 10
588.992570
 20
150.235630
 30
0.0
 10
589.683070
 20
152.360710
 30
0.0
 10
606.077680
 20
184.536860
 30
0.0
 10
606.120280
 20
184.545860
 30
0.0
 10
608.030090
 20
185.396180
 30
0.0
 10
609.721380
 20
186.624990
 30
0.0
 10
611.120280
 20
188.178580
 30
0.0
 10
612.165580
 20
189.989080
 30
0.0
 10
612.811580
 20
191.977380
 30
0.0
 10
613.030080
 20
194.056480
 30
0.0
 10
612.811580
 20
196.135580
 30
0.0
 10
612.165580
 20
198.123877
 30
0.0
 10
611.120280
 20
199.934277
 30
0.0
 10
609.721380
 20
201.487877
 30
0.0
 10
608.030090
 20
202.716773
 30
0.0
 10
606.120280
 20
203.567073
 30
0.0
 10
604.075380
 20
204.001683
 30
0.0
 10
602.030080
 20
204.001683
 30
0.0
 10
602.030080
 20
204.116473
 30
0.0
 10
554.030050
 20
204.116473
 30
0.0
 10
554.030050
 20
204.001673
 30
0.0
 10
551.984750
 20
204.001673
 30
0.0
 10
549.939850
 20
203.567073
 30
0.0
 10
548.030050
 20
202.716773
 30
0.0
 10
546.338750
 20
201.487877
 30
0.0
 10
544.939850
 20
199.934277
 30
0.0
 10
543.894540
 20
198.123877
 30
0.0
 10
543.248540
 20
196.135580
 30
0.0
 10
543.030040
 20
194.056480
 30
0.0
 10
543.248540
 20
191.977380
 30
0.0
 10
543.894540
 20
189.989070
 30
0.0
 10
544.939850
 20
188.178570
 30
0.0
 10
546.338750
 20
186.624980
 30
0.0
 10
548.030050
 20
185.396180
 30
0.0
 10
549.213050
 20
184.869470
 30
0.0
 10
567.367660
 20
149.239150
 30
0.0
 10
567.580260
 20
149.347500
 30
0.0
 10
568.321870
 20
148.063020
 30
0.0
 10
570.000500
 20
146.198720
 30
0.0
 10
572.030060
 20
144.724140
 30
0.0
 10
574.321870
 20
143.703750
 30
0.0
 10
576.775740
 20
143.182250
 30
0.0
 10
579.284400
 20
143.182250
 30
0.0
  0
LWPOLYLINE
  5
175
100
AcDbEntity
  8
Layer_1
 62
7
100
AcDbPolyline
 90
38
 70
1
 10
577.742620
 20
190.321570
 30
0.0
 10
577.180280
 20
190.441070
 30
0.0
 10
576.655070
 20
190.674870
 30
0.0
 10
576.189960
 20
191.012770
 30
0.0
 10
575.805270
 20
191.440070
 30
0.0
 10
575.517820
 20
191.937980
 30
0.0
 10
575.340160
 20
192.484680
 30
0.0
 10
575.280060
 20
193.056480
 30
0.0
 10
575.332660
 20
193.556480
 30
0.0
 10
575.280060
 20
194.056480
 30
0.0
 10
575.332660
 20
194.556480
 30
0.0
 10
575.280060
 20
195.056480
 30
0.0
 10
575.340160
 20
195.628180
 30
0.0
 10
575.517820
 20
196.174980
 30
0.0
 10
575.805270
 20
196.672880
 30
0.0
 10
576.189960
 20
197.100077
 30
0.0
 10
576.655090
 20
197.438077
 30
0.0
 10
577.180280
 20
197.671877
 30
0.0
 10
577.742620
 20
197.791377
 30
0.0
 10
578.317510
 20
197.791377
 30
0.0
 10
578.879860
 20
197.671877
 30
0.0
 10
579.405070
 20
197.438077
 30
0.0
 10
579.870170
 20
197.100077
 30
0.0
 10
580.254860
 20
196.672880
 30
0.0
 10
580.542310
 20
196.174980
 30
0.0
 10
580.719970
 20
195.628180
 30
0.0
 10
580.780070
 20
195.056480
 30
0.0
 10
580.727470
 20
194.556480
 30
0.0
 10
580.780070
 20
194.056480
 30
0.0
 10
580.727470
 20
193.556480
 30
0.0
 10
580.780070
 20
193.056480
 30
0.0
 10
580.719970
 20
192.484680
 30
0.0
 10
580.542310
 20
191.937980
 30
0.0
 10
580.254860
 20
191.440070
 30
0.0
 10
579.870170
 20
191.012770
 30
0.0
 10
579.405070
 20
190.674870
 30
0.0
 10
578.879860
 20
190.441070
 30
0.0
 10
578.317510
 20
190.321570
 30
0.0
  0
LWPOLYLINE
  5
176
100
AcDbEntity
  8
Layer_1
 62
7
100
AcDbPolyline
 90
30
 70
1
 10
603.679880
 20
190.724870
 30
0.0
 10
602.994880
 20
190.870470
 30
0.0
 10
602.355080
 20
191.155270
 30
0.0
 10
601.788480
 20
191.566970
 30
0.0
 10
601.319880
 20
192.087380
 30
0.0
 10
600.969680
 20
192.693880
 30
0.0
 10
600.753280
 20
193.359980
 30
0.0
 10
600.680080
 20
194.056480
 30
0.0
 10
600.753280
 20
194.752980
 30
0.0
 10
600.969680
 20
195.419080
 30
0.0
 10
601.319880
 20
196.025580
 30
0.0
 10
601.788480
 20
196.545980
 30
0.0
 10
602.355080
 20
196.957680
 30
0.0
 10
602.994880
 20
197.242477
 30
0.0
 10
603.679880
 20
197.388077
 30
0.0
 10
604.380280
 20
197.388077
 30
0.0
 10
605.065280
 20
197.242477
 30
0.0
 10
605.705080
 20
196.957680
 30
0.0
 10
606.271680
 20
196.545980
 30
0.0
 10
606.740280
 20
196.025580
 30
0.0
 10
607.090480
 20
195.419080
 30
0.0
 10
607.306880
 20
194.752980
 30
0.0
 10
607.380080
 20
194.056480
 30
0.0
 10
607.306880
 20
193.359980
 30
0.0
 10
607.090480
 20
192.693880
 30
0.0
 10
606.740280
 20
192.087380
 30
0.0
 10
606.271680
 20
191.566970
 30
0.0
 10
605.705080
 20
191.155270
 30
0.0
 10
605.065280
 20
190.870470
 30
0.0
 10
604.380280
 20
190.724870
 30
0.0
  0
LWPOLYLINE
  5
177
100
AcDbEntity
  8
Layer_1
 62
7
100
AcDbPolyline
 90
30
 70
1
 10
551.679850
 20
190.724870
 30
0.0
 10
550.994850
 20
190.870470
 30
0.0
 10
550.355050
 20
191.155270
 30
0.0
 10
549.788450
 20
191.566970
 30
0.0
 10
549.319850
 20
192.087380
 30
0.0
 10
548.969650
 20
192.693880
 30
0.0
 10
548.753250
 20
193.359980
 30
0.0
 10
548.680050
 20
194.056480
 30
0.0
 10
548.753250
 20
194.752980
 30
0.0
 10
548.969650
 20
195.419080
 30
0.0
 10
549.319850
 20
196.025580
 30
0.0
 10
549.788450
 20
196.545980
 30
0.0
 10
550.355050
 20
196.957680
 30
0.0
 10
550.994850
 20
197.242477
 30
0.0
 10
551.679850
 20
197.388077
 30
0.0
 10
552.380250
 20
197.388077
 30
0.0
 10
553.065250
 20
197.242477
 30
0.0
 10
553.705050
 20
196.957680
 30
0.0
 10
554.271650
 20
196.545980
 30
0.0
 10
554.740250
 20
196.025580
 30
0.0
 10
555.090460
 20
195.419080
 30
0.0
 10
555.306860
 20
194.752980
 30
0.0
 10
555.380060
 20
194.056480
 30
0.0
 10
555.306860
 20
193.359980
 30
0.0
 10
555.090460
 20
192.693880
 30
0.0
 10
554.740250
 20
192.087380
 30
0.0
 10
554.271650
 20
191.566970
 30
0.0
 10
553.705050
 20
191.155270
 30
0.0
 10
553.065250
 20
190.870470
 30
0.0
 10
552.380250
 20
190.724870
 30
0.0
  0
LWPOLYLINE
  5
178
100
AcDbEntity
  8
Layer_1
 62
7
100
AcDbPolyline
 90
34
 70
1
 10
577.679910
 20
148.669820
 30
0.0
 10
576.994870
 20
148.815420
 30
0.0
 10
576.355080
 20
149.100270
 30
0.0
 10
575.788480
 20
149.511940
 30
0.0
 10
575.319850
 20
150.032370
 30
0.0
 10
574.969700
 20
150.638900
 30
0.0
 10
574.753270
 20
151.304970
 30
0.0
 10
574.680070
 20
152.001460
 30
0.0
 10
574.753270
 20
152.697970
 30
0.0
 10
574.871800
 20
153.062700
 30
0.0
 10
574.997100
 20
153.126600
 30
0.0
 10
575.061100
 20
153.323400
 30
0.0
 10
575.400810
 20
153.911780
 30
0.0
 10
575.855440
 20
154.416710
 30
0.0
 10
576.405140
 20
154.816070
 30
0.0
 10
577.025820
 20
155.092430
 30
0.0
 10
577.690410
 20
155.233660
 30
0.0
 10
578.369820
 20
155.233660
 30
0.0
 10
579.034420
 20
155.092430
 30
0.0
 10
579.655120
 20
154.816070
 30
0.0
 10
580.204790
 20
154.416710
 30
0.0
 10
580.659420
 20
153.911780
 30
0.0
 10
580.999130
 20
153.323400
 30
0.0
 10
581.209090
 20
152.677200
 30
0.0
 10
581.218090
 20
152.587100
 30
0.0
 10
581.323760
 20
152.533300
 30
0.0
 10
581.379660
 20
152.001470
 30
0.0
 10
581.306460
 20
151.304980
 30
0.0
 10
581.090030
 20
150.638910
 30
0.0
 10
580.739880
 20
150.032380
 30
0.0
 10
580.271250
 20
149.511950
 30
0.0
 10
579.704660
 20
149.100280
 30
0.0
 10
579.064870
 20
148.815430
 30
0.0
 10
578.379830
 20
148.669830
 30
0.0
  0
LWPOLYLINE
  5
179
100
AcDbEntity
  8
Layer_1
 62
7
100
AcDbPolyline
 90
47
 70
1
 10
487.452520
 20
142.549000
 30
0.0
 10
489.744330
 20
143.569390
 30
0.0
 10
491.773890
 20
145.043970
 30
0.0
 10
493.452520
 20
146.908280
 30
0.0
 10
494.706830
 20
149.080880
 30
0.0
 10
495.397330
 20
151.205960
 30
0.0
 10
511.791930
 20
183.382120
 30
0.0
 10
511.834530
 20
183.391120
 30
0.0
 10
513.744330
 20
184.241430
 30
0.0
 10
515.435630
 20
185.470240
 30
0.0
 10
516.834530
 20
187.023830
 30
0.0
 10
517.879830
 20
188.834330
 30
0.0
 10
518.525830
 20
190.822630
 30
0.0
 10
518.744330
 20
192.901730
 30
0.0
 10
518.525830
 20
194.980830
 30
0.0
 10
517.879830
 20
196.969140
 30
0.0
 10
516.834530
 20
198.779527
 30
0.0
 10
515.435630
 20
200.333137
 30
0.0
 10
513.744330
 20
201.562037
 30
0.0
 10
511.834530
 20
202.412333
 30
0.0
 10
509.789630
 20
202.846933
 30
0.0
 10
507.744330
 20
202.846933
 30
0.0
 10
507.744330
 20
202.961723
 30
0.0
 10
459.744330
 20
202.961723
 30
0.0
 10
459.744330
 20
202.846923
 30
0.0
 10
457.699030
 20
202.846923
 30
0.0
 10
455.654130
 20
202.412323
 30
0.0
 10
453.744330
 20
201.562027
 30
0.0
 10
452.053030
 20
200.333127
 30
0.0
 10
450.654130
 20
198.779527
 30
0.0
 10
449.608830
 20
196.969130
 30
0.0
 10
448.962830
 20
194.980830
 30
0.0
 10
448.744330
 20
192.901730
 30
0.0
 10
448.962830
 20
190.822620
 30
0.0
 10
449.608830
 20
188.834330
 30
0.0
 10
450.654130
 20
187.023830
 30
0.0
 10
452.053030
 20
185.470230
 30
0.0
 10
453.744330
 20
184.241430
 30
0.0
 10
454.927330
 20
183.714720
 30
0.0
 10
473.081930
 20
148.084400
 30
0.0
 10
473.294530
 20
148.192750
 30
0.0
 10
474.036140
 20
146.908280
 30
0.0
 10
475.714770
 20
145.043970
 30
0.0
 10
477.744330
 20
143.569390
 30
0.0
 10
480.036140
 20
142.549000
 30
0.0
 10
482.490000
 20
142.027510
 30
0.0
 10
484.998660
 20
142.027510
 30
0.0
  0
LWPOLYLINE
  5
17a
100
AcDbEntity
  8
Layer_1
 62
7
100
AcDbPolyline
 90
38
 70
1
 10
483.456880
 20
189.166830
 30
0.0
 10
482.894540
 20
189.286330
 30
0.0
 10
482.369330
 20
189.520130
 30
0.0
 10
481.904230
 20
189.858030
 30
0.0
 10
481.519540
 20
190.285330
 30
0.0
 10
481.232090
 20
190.783230
 30
0.0
 10
481.054430
 20
191.329930
 30
0.0
 10
480.994330
 20
191.901730
 30
0.0
 10
481.046930
 20
192.401730
 30
0.0
 10
480.994330
 20
192.901730
 30
0.0
 10
481.046930
 20
193.401730
 30
0.0
 10
480.994330
 20
193.901730
 30
0.0
 10
481.054430
 20
194.473430
 30
0.0
 10
481.232090
 20
195.020230
 30
0.0
 10
481.519540
 20
195.518130
 30
0.0
 10
481.904230
 20
195.945330
 30
0.0
 10
482.369350
 20
196.283330
 30
0.0
 10
482.894540
 20
196.517130
 30
0.0
 10
483.456880
 20
196.636630
 30
0.0
 10
484.031770
 20
196.636630
 30
0.0
 10
484.594120
 20
196.517130
 30
0.0
 10
485.119330
 20
196.283330
 30
0.0
 10
485.584430
 20
195.945330
 30
0.0
 10
485.969120
 20
195.518130
 30
0.0
 10
486.256570
 20
195.020230
 30
0.0
 10
486.434230
 20
194.473430
 30
0.0
 10
486.494330
 20
193.901730
 30
0.0
 10
486.441730
 20
193.401730
 30
0.0
 10
486.494330
 20
192.901730
 30
0.0
 10
486.441730
 20
192.401730
 30
0.0
 10
486.494330
 20
191.901730
 30
0.0
 10
486.434230
 20
191.329930
 30
0.0
 10
486.256570
 20
190.783230
 30
0.0
 10
485.969120
 20
190.285330
 30
0.0
 10
485.584430
 20
189.858030
 30
0.0
 10
485.119330
 20
189.520130
 30
0.0
 10
484.594120
 20
189.286330
 30
0.0
 10
484.031770
 20
189.166830
 30
0.0
  0
LWPOLYLINE
  5
17b
100
AcDbEntity
  8
Layer_1
 62
7
100
AcDbPolyline
 90
30
 70
1
 10
509.394130
 20
189.570130
 30
0.0
 10
508.709130
 20
189.715730
 30
0.0
 10
508.069330
 20
190.000530
 30
0.0
 10
507.502730
 20
190.412230
 30
0.0
 10
507.034130
 20
190.932630
 30
0.0
 10
506.683930
 20
191.539120
 30
0.0
 10
506.467530
 20
192.205230
 30
0.0
 10
506.394330
 20
192.901730
 30
0.0
 10
506.467530
 20
193.598230
 30
0.0
 10
506.683930
 20
194.264330
 30
0.0
 10
507.034130
 20
194.870830
 30
0.0
 10
507.502730
 20
195.391230
 30
0.0
 10
508.069330
 20
195.802930
 30
0.0
 10
508.709130
 20
196.087730
 30
0.0
 10
509.394130
 20
196.233330
 30
0.0
 10
510.094530
 20
196.233330
 30
0.0
 10
510.779530
 20
196.087730
 30
0.0
 10
511.419330
 20
195.802930
 30
0.0
 10
511.985930
 20
195.391230
 30
0.0
 10
512.454530
 20
194.870830
 30
0.0
 10
512.804730
 20
194.264330
 30
0.0
 10
513.021130
 20
193.598230
 30
0.0
 10
513.094330
 20
192.901730
 30
0.0
 10
513.021130
 20
192.205230
 30
0.0
 10
512.804730
 20
191.539120
 30
0.0
 10
512.454530
 20
190.932630
 30
0.0
 10
511.985930
 20
190.412230
 30
0.0
 10
511.419330
 20
190.000530
 30
0.0
 10
510.779530
 20
189.715730
 30
0.0
 10
510.094530
 20
189.570130
 30
0.0
  0
LWPOLYLINE
  5
17c
100
AcDbEntity
  8
Layer_1
 62
7
100
AcDbPolyline
 90
30
 70
1
 10
457.394130
 20
189.570130
 30
0.0
 10
456.709130
 20
189.715730
 30
0.0
 10
456.069330
 20
190.000530
 30
0.0
 10
455.502730
 20
190.412230
 30
0.0
 10
455.034130
 20
190.932630
 30
0.0
 10
454.683930
 20
191.539120
 30
0.0
 10
454.467530
 20
192.205230
 30
0.0
 10
454.394330
 20
192.901730
 30
0.0
 10
454.467530
 20
193.598230
 30
0.0
 10
454.683930
 20
194.264330
 30
0.0
 10
455.034130
 20
194.870830
 30
0.0
 10
455.502730
 20
195.391230
 30
0.0
 10
456.069330
 20
195.802930
 30
0.0
 10
456.709130
 20
196.087730
 30
0.0
 10
457.394130
 20
196.233330
 30
0.0
 10
458.094530
 20
196.233330
 30
0.0
 10
458.779530
 20
196.087730
 30
0.0
 10
459.419330
 20
195.802930
 30
0.0
 10
459.985930
 20
195.391230
 30
0.0
 10
460.454530
 20
194.870830
 30
0.0
 10
460.804730
 20
194.264330
 30
0.0
 10
461.021130
 20
193.598230
 30
0.0
 10
461.094330
 20
192.901730
 30
0.0
 10
461.021130
 20
192.205230
 30
0.0
 10
460.804730
 20
191.539120
 30
0.0
 10
460.454530
 20
190.932630
 30
0.0
 10
459.985930
 20
190.412230
 30
0.0
 10
459.419330
 20
190.000530
 30
0.0
 10
458.779530
 20
189.715730
 30
0.0
 10
458.094530
 20
189.570130
 30
0.0
  0
LWPOLYLINE
  5
17d
100
AcDbEntity
  8
Layer_1
 62
7
100
AcDbPolyline
 90
34
 70
1
 10
483.394170
 20
147.515070
 30
0.0
 10
482.709130
 20
147.660670
 30
0.0
 10
482.069340
 20
147.945520
 30
0.0
 10
481.502750
 20
148.357190
 30
0.0
 10
481.034120
 20
148.877620
 30
0.0
 10
480.683970
 20
149.484160
 30
0.0
 10
480.467540
 20
150.150220
 30
0.0
 10
480.394340
 20
150.846710
 30
0.0
 10
480.467540
 20
151.543220
 30
0.0
 10
480.586070
 20
151.907950
 30
0.0
 10
480.711370
 20
151.971850
 30
0.0
 10
480.775270
 20
152.168650
 30
0.0
 10
481.114980
 20
152.757030
 30
0.0
 10
481.569610
 20
153.261960
 30
0.0
 10
482.119300
 20
153.661320
 30
0.0
 10
482.739980
 20
153.937680
 30
0.0
 10
483.404570
 20
154.078910
 30
0.0
 10
484.083980
 20
154.078910
 30
0.0
 10
484.748580
 20
153.937680
 30
0.0
 10
485.369280
 20
153.661320
 30
0.0
 10
485.918950
 20
153.261960
 30
0.0
 10
486.373580
 20
152.757030
 30
0.0
 10
486.713290
 20
152.168650
 30
0.0
 10
486.923250
 20
151.522460
 30
0.0
 10
486.932250
 20
151.432360
 30
0.0
 10
487.037920
 20
151.378560
 30
0.0
 10
487.093820
 20
150.846720
 30
0.0
 10
487.020620
 20
150.150230
 30
0.0
 10
486.804190
 20
149.484170
 30
0.0
 10
486.454040
 20
148.877630
 30
0.0
 10
485.985410
 20
148.357200
 30
0.0
 10
485.418820
 20
147.945530
 30
0.0
 10
484.779030
 20
147.660680
 30
0.0
 10
484.093990
 20
147.515080
 30
0.0
  0
LWPOLYLINE
  5
17e
100
AcDbEntity
  8
Layer_1
 62
7
100
AcDbPolyline
 90
47
 70
1
 10
580.017660
 20
213.519398
 30
0.0
 10
582.309470
 20
214.539788
 30
0.0
 10
584.339030
 20
216.014368
 30
0.0
 10
586.017660
 20
217.878668
 30
0.0
 10
587.271970
 20
220.051275
 30
0.0
 10
587.962470
 20
222.176355
 30
0.0
 10
604.357080
 20
254.352487
 30
0.0
 10
604.399680
 20
254.361487
 30
0.0
 10
606.309490
 20
255.211804
 30
0.0
 10
608.000780
 20
256.440614
 30
0.0
 10
609.399680
 20
257.994204
 30
0.0
 10
610.444980
 20
259.804704
 30
0.0
 10
611.090980
 20
261.793001
 30
0.0
 10
611.309480
 20
263.872101
 30
0.0
 10
611.090980
 20
265.951198
 30
0.0
 10
610.444980
 20
267.939498
 30
0.0
 10
609.399680
 20
269.749898
 30
0.0
 10
608.000780
 20
271.303495
 30
0.0
 10
606.309490
 20
272.532395
 30
0.0
 10
604.399680
 20
273.382695
 30
0.0
 10
602.354780
 20
273.817305
 30
0.0
 10
600.309480
 20
273.817305
 30
0.0
 10
600.309480
 20
273.932095
 30
0.0
 10
552.309450
 20
273.932095
 30
0.0
 10
552.309450
 20
273.817295
 30
0.0
 10
550.264150
 20
273.817295
 30
0.0
 10
548.219250
 20
273.382695
 30
0.0
 10
546.309460
 20
272.532395
 30
0.0
 10
544.618160
 20
271.303495
 30
0.0
 10
543.219260
 20
269.749898
 30
0.0
 10
542.173950
 20
267.939498
 30
0.0
 10
541.527940
 20
265.951198
 30
0.0
 10
541.309450
 20
263.872101
 30
0.0
 10
541.527940
 20
261.793001
 30
0.0
 10
542.173950
 20
259.804694
 30
0.0
 10
543.219260
 20
257.994194
 30
0.0
 10
544.618160
 20
256.440604
 30
0.0
 10
546.309460
 20
255.211804
 30
0.0
 10
547.492450
 20
254.685097
 30
0.0
 10
565.647060
 20
219.054795
 30
0.0
 10
565.859660
 20
219.163145
 30
0.0
 10
566.601270
 20
217.878668
 30
0.0
 10
568.279900
 20
216.014368
 30
0.0
 10
570.309460
 20
214.539788
 30
0.0
 10
572.601270
 20
213.519398
 30
0.0
 10
575.055140
 20
212.997898
 30
0.0
 10
577.563800
 20
212.997898
 30
0.0
  0
LWPOLYLINE
  5
17f
100
AcDbEntity
  8
Layer_1
 62
7
100
AcDbPolyline
 90
38
 70
1
 10
576.022020
 20
260.137194
 30
0.0
 10
575.459680
 20
260.256694
 30
0.0
 10
574.934470
 20
260.490494
 30
0.0
 10
574.469360
 20
260.828391
 30
0.0
 10
574.084670
 20
261.255691
 30
0.0
 10
573.797220
 20
261.753601
 30
0.0
 10
573.619560
 20
262.300301
 30
0.0
 10
573.559460
 20
262.872101
 30
0.0
 10
573.612060
 20
263.372101
 30
0.0
 10
573.559460
 20
263.872101
 30
0.0
 10
573.612060
 20
264.372101
 30
0.0
 10
573.559460
 20
264.872101
 30
0.0
 10
573.619560
 20
265.443801
 30
0.0
 10
573.797220
 20
265.990598
 30
0.0
 10
574.084670
 20
266.488498
 30
0.0
 10
574.469360
 20
266.915698
 30
0.0
 10
574.934490
 20
267.253698
 30
0.0
 10
575.459680
 20
267.487498
 30
0.0
 10
576.022020
 20
267.606998
 30
0.0
 10
576.596910
 20
267.606998
 30
0.0
 10
577.159260
 20
267.487498
 30
0.0
 10
577.684470
 20
267.253698
 30
0.0
 10
578.149570
 20
266.915698
 30
0.0
 10
578.534260
 20
266.488498
 30
0.0
 10
578.821710
 20
265.990598
 30
0.0
 10
578.999370
 20
265.443801
 30
0.0
 10
579.059470
 20
264.872101
 30
0.0
 10
579.006870
 20
264.372101
 30
0.0
 10
579.059470
 20
263.872101
 30
0.0
 10
579.006870
 20
263.372101
 30
0.0
 10
579.059470
 20
262.872101
 30
0.0
 10
578.999370
 20
262.300301
 30
0.0
 10
578.821710
 20
261.753601
 30
0.0
 10
578.534260
 20
261.255691
 30
0.0
 10
578.149570
 20
260.828391
 30
0.0
 10
577.684470
 20
260.490494
 30
0.0
 10
577.159260
 20
260.256694
 30
0.0
 10
576.596910
 20
260.137194
 30
0.0
  0
LWPOLYLINE
  5
180
100
AcDbEntity
  8
Layer_1
 62
7
100
AcDbPolyline
 90
30
 70
1
 10
601.959280
 20
260.540491
 30
0.0
 10
601.274280
 20
260.686091
 30
0.0
 10
600.634480
 20
260.970891
 30
0.0
 10
600.067880
 20
261.382591
 30
0.0
 10
599.599280
 20
261.903001
 30
0.0
 10
599.249080
 20
262.509501
 30
0.0
 10
599.032680
 20
263.175601
 30
0.0
 10
598.959480
 20
263.872101
 30
0.0
 10
599.032680
 20
264.568601
 30
0.0
 10
599.249080
 20
265.234701
 30
0.0
 10
599.599280
 20
265.841198
 30
0.0
 10
600.067880
 20
266.361598
 30
0.0
 10
600.634480
 20
266.773298
 30
0.0
 10
601.274280
 20
267.058098
 30
0.0
 10
601.959280
 20
267.203698
 30
0.0
 10
602.659680
 20
267.203698
 30
0.0
 10
603.344680
 20
267.058098
 30
0.0
 10
603.984480
 20
266.773298
 30
0.0
 10
604.551080
 20
266.361598
 30
0.0
 10
605.019680
 20
265.841198
 30
0.0
 10
605.369880
 20
265.234701
 30
0.0
 10
605.586280
 20
264.568601
 30
0.0
 10
605.659480
 20
263.872101
 30
0.0
 10
605.586280
 20
263.175601
 30
0.0
 10
605.369880
 20
262.509501
 30
0.0
 10
605.019680
 20
261.903001
 30
0.0
 10
604.551080
 20
261.382591
 30
0.0
 10
603.984480
 20
260.970891
 30
0.0
 10
603.344680
 20
260.686091
 30
0.0
 10
602.659680
 20
260.540491
 30
0.0
  0
LWPOLYLINE
  5
181
100
AcDbEntity
  8
Layer_1
 62
7
100
AcDbPolyline
 90
30
 70
1
 10
549.959250
 20
260.540491
 30
0.0
 10
549.274250
 20
260.686091
 30
0.0
 10
548.634450
 20
260.970891
 30
0.0
 10
548.067850
 20
261.382591
 30
0.0
 10
547.599250
 20
261.903001
 30
0.0
 10
547.249050
 20
262.509501
 30
0.0
 10
547.032650
 20
263.175601
 30
0.0
 10
546.959450
 20
263.872101
 30
0.0
 10
547.032650
 20
264.568601
 30
0.0
 10
547.249050
 20
265.234701
 30
0.0
 10
547.599250
 20
265.841198
 30
0.0
 10
548.067850
 20
266.361598
 30
0.0
 10
548.634450
 20
266.773298
 30
0.0
 10
549.274250
 20
267.058098
 30
0.0
 10
549.959250
 20
267.203698
 30
0.0
 10
550.659650
 20
267.203698
 30
0.0
 10
551.344650
 20
267.058098
 30
0.0
 10
551.984450
 20
266.773298
 30
0.0
 10
552.551050
 20
266.361598
 30
0.0
 10
553.019650
 20
265.841198
 30
0.0
 10
553.369860
 20
265.234701
 30
0.0
 10
553.586260
 20
264.568601
 30
0.0
 10
553.659460
 20
263.872101
 30
0.0
 10
553.586260
 20
263.175601
 30
0.0
 10
553.369860
 20
262.509501
 30
0.0
 10
553.019650
 20
261.903001
 30
0.0
 10
552.551050
 20
261.382591
 30
0.0
 10
551.984450
 20
260.970891
 30
0.0
 10
551.344650
 20
260.686091
 30
0.0
 10
550.659650
 20
260.540491
 30
0.0
  0
LWPOLYLINE
  5
182
100
AcDbEntity
  8
Layer_1
 62
7
100
AcDbPolyline
 90
34
 70
1
 10
575.959310
 20
218.485465
 30
0.0
 10
575.274270
 20
218.631065
 30
0.0
 10
574.634480
 20
218.915915
 30
0.0
 10
574.067880
 20
219.327585
 30
0.0
 10
573.599250
 20
219.848015
 30
0.0
 10
573.249100
 20
220.454545
 30
0.0
 10
573.032670
 20
221.120615
 30
0.0
 10
572.959470
 20
221.817105
 30
0.0
 10
573.032670
 20
222.513615
 30
0.0
 10
573.151200
 20
222.878345
 30
0.0
 10
573.276500
 20
222.942245
 30
0.0
 10
573.340500
 20
223.139045
 30
0.0
 10
573.680210
 20
223.727422
 30
0.0
 10
574.134840
 20
224.232352
 30
0.0
 10
574.684540
 20
224.631712
 30
0.0
 10
575.305220
 20
224.908072
 30
0.0
 10
575.969810
 20
225.049302
 30
0.0
 10
576.649220
 20
225.049302
 30
0.0
 10
577.313820
 20
224.908072
 30
0.0
 10
577.934520
 20
224.631712
 30
0.0
 10
578.484190
 20
224.232352
 30
0.0
 10
578.938820
 20
223.727422
 30
0.0
 10
579.278530
 20
223.139045
 30
0.0
 10
579.488490
 20
222.492845
 30
0.0
 10
579.497490
 20
222.402745
 30
0.0
 10
579.603160
 20
222.348945
 30
0.0
 10
579.659060
 20
221.817115
 30
0.0
 10
579.585860
 20
221.120625
 30
0.0
 10
579.369430
 20
220.454555
 30
0.0
 10
579.019280
 20
219.848025
 30
0.0
 10
578.550650
 20
219.327595
 30
0.0
 10
577.984060
 20
218.915925
 30
0.0
 10
577.344270
 20
218.631075
 30
0.0
 10
576.659230
 20
218.485475
 30
0.0
  0
LWPOLYLINE
  5
183
100
AcDbEntity
  8
Layer_1
 62
7
100
AcDbPolyline
 90
47
 70
1
 10
485.731930
 20
212.364651
 30
0.0
 10
488.023740
 20
213.385038
 30
0.0
 10
490.053290
 20
214.859618
 30
0.0
 10
491.731920
 20
216.723928
 30
0.0
 10
492.986230
 20
218.896525
 30
0.0
 10
493.676730
 20
221.021605
 30
0.0
 10
510.071340
 20
253.197747
 30
0.0
 10
510.113940
 20
253.206747
 30
0.0
 10
512.023740
 20
254.057057
 30
0.0
 10
513.715030
 20
255.285864
 30
0.0
 10
515.113930
 20
256.839454
 30
0.0
 10
516.159230
 20
258.649954
 30
0.0
 10
516.805230
 20
260.638251
 30
0.0
 10
517.023740
 20
262.717351
 30
0.0
 10
516.805230
 20
264.796451
 30
0.0
 10
516.159230
 20
266.784758
 30
0.0
 10
515.113930
 20
268.595148
 30
0.0
 10
513.715030
 20
270.148758
 30
0.0
 10
512.023740
 20
271.377655
 30
0.0
 10
510.113940
 20
272.227955
 30
0.0
 10
508.069030
 20
272.662555
 30
0.0
 10
506.023730
 20
272.662555
 30
0.0
 10
506.023730
 20
272.777345
 30
0.0
 10
458.023730
 20
272.777345
 30
0.0
 10
458.023730
 20
272.662545
 30
0.0
 10
455.978440
 20
272.662545
 30
0.0
 10
453.933540
 20
272.227945
 30
0.0
 10
452.023740
 20
271.377645
 30
0.0
 10
450.332440
 20
270.148748
 30
0.0
 10
448.933540
 20
268.595148
 30
0.0
 10
447.888240
 20
266.784748
 30
0.0
 10
447.242240
 20
264.796451
 30
0.0
 10
447.023740
 20
262.717351
 30
0.0
 10
447.242240
 20
260.638241
 30
0.0
 10
447.888240
 20
258.649954
 30
0.0
 10
448.933540
 20
256.839454
 30
0.0
 10
450.332440
 20
255.285854
 30
0.0
 10
452.023740
 20
254.057057
 30
0.0
 10
453.206740
 20
253.530347
 30
0.0
 10
471.361330
 20
217.900048
 30
0.0
 10
471.573930
 20
218.008398
 30
0.0
 10
472.315540
 20
216.723928
 30
0.0
 10
473.994180
 20
214.859618
 30
0.0
 10
476.023730
 20
213.385038
 30
0.0
 10
478.315540
 20
212.364651
 30
0.0
 10
480.769400
 20
211.843161
 30
0.0
 10
483.278060
 20
211.843161
 30
0.0
  0
LWPOLYLINE
  5
184
100
AcDbEntity
  8
Layer_1
 62
7
100
AcDbPolyline
 90
38
 70
1
 10
481.736280
 20
258.982454
 30
0.0
 10
481.173940
 20
259.101954
 30
0.0
 10
480.648740
 20
259.335754
 30
0.0
 10
480.183630
 20
259.673654
 30
0.0
 10
479.798940
 20
260.100954
 30
0.0
 10
479.511500
 20
260.598851
 30
0.0
 10
479.333840
 20
261.145551
 30
0.0
 10
479.273740
 20
261.717351
 30
0.0
 10
479.326340
 20
262.217351
 30
0.0
 10
479.273740
 20
262.717351
 30
0.0
 10
479.326340
 20
263.217351
 30
0.0
 10
479.273740
 20
263.717351
 30
0.0
 10
479.333840
 20
264.289051
 30
0.0
 10
479.511500
 20
264.835851
 30
0.0
 10
479.798940
 20
265.333751
 30
0.0
 10
480.183630
 20
265.760951
 30
0.0
 10
480.648750
 20
266.098948
 30
0.0
 10
481.173940
 20
266.332748
 30
0.0
 10
481.736280
 20
266.452248
 30
0.0
 10
482.311180
 20
266.452248
 30
0.0
 10
482.873520
 20
266.332748
 30
0.0
 10
483.398740
 20
266.098948
 30
0.0
 10
483.863840
 20
265.760951
 30
0.0
 10
484.248520
 20
265.333751
 30
0.0
 10
484.535980
 20
264.835851
 30
0.0
 10
484.713630
 20
264.289051
 30
0.0
 10
484.773730
 20
263.717351
 30
0.0
 10
484.721130
 20
263.217351
 30
0.0
 10
484.773730
 20
262.717351
 30
0.0
 10
484.721130
 20
262.217351
 30
0.0
 10
484.773730
 20
261.717351
 30
0.0
 10
484.713630
 20
261.145551
 30
0.0
 10
484.535980
 20
260.598851
 30
0.0
 10
484.248520
 20
260.100954
 30
0.0
 10
483.863840
 20
259.673654
 30
0.0
 10
483.398740
 20
259.335754
 30
0.0
 10
482.873520
 20
259.101954
 30
0.0
 10
482.311180
 20
258.982454
 30
0.0
  0
LWPOLYLINE
  5
185
100
AcDbEntity
  8
Layer_1
 62
7
100
AcDbPolyline
 90
30
 70
1
 10
507.673540
 20
259.385754
 30
0.0
 10
506.988540
 20
259.531354
 30
0.0
 10
506.348740
 20
259.816154
 30
0.0
 10
505.782140
 20
260.227854
 30
0.0
 10
505.313530
 20
260.748251
 30
0.0
 10
504.963340
 20
261.354741
 30
0.0
 10
504.746940
 20
262.020851
 30
0.0
 10
504.673740
 20
262.717351
 30
0.0
 10
504.746940
 20
263.413851
 30
0.0
 10
504.963340
 20
264.079951
 30
0.0
 10
505.313530
 20
264.686451
 30
0.0
 10
505.782140
 20
265.206851
 30
0.0
 10
506.348740
 20
265.618551
 30
0.0
 10
506.988540
 20
265.903348
 30
0.0
 10
507.673540
 20
266.048948
 30
0.0
 10
508.373940
 20
266.048948
 30
0.0
 10
509.058930
 20
265.903348
 30
0.0
 10
509.698740
 20
265.618551
 30
0.0
 10
510.265340
 20
265.206851
 30
0.0
 10
510.733930
 20
264.686451
 30
0.0
 10
511.084130
 20
264.079951
 30
0.0
 10
511.300530
 20
263.413851
 30
0.0
 10
511.373730
 20
262.717351
 30
0.0
 10
511.300530
 20
262.020851
 30
0.0
 10
511.084130
 20
261.354741
 30
0.0
 10
510.733930
 20
260.748251
 30
0.0
 10
510.265340
 20
260.227854
 30
0.0
 10
509.698740
 20
259.816154
 30
0.0
 10
509.058930
 20
259.531354
 30
0.0
 10
508.373940
 20
259.385754
 30
0.0
  0
LWPOLYLINE
  5
186
100
AcDbEntity
  8
Layer_1
 62
7
100
AcDbPolyline
 90
30
 70
1
 10
455.673540
 20
259.385754
 30
0.0
 10
454.988540
 20
259.531354
 30
0.0
 10
454.348740
 20
259.816154
 30
0.0
 10
453.782140
 20
260.227854
 30
0.0
 10
453.313540
 20
260.748251
 30
0.0
 10
452.963340
 20
261.354741
 30
0.0
 10
452.746940
 20
262.020851
 30
0.0
 10
452.673740
 20
262.717351
 30
0.0
 10
452.746940
 20
263.413851
 30
0.0
 10
452.963340
 20
264.079951
 30
0.0
 10
453.313540
 20
264.686451
 30
0.0
 10
453.782140
 20
265.206851
 30
0.0
 10
454.348740
 20
265.618551
 30
0.0
 10
454.988540
 20
265.903348
 30
0.0
 10
455.673540
 20
266.048948
 30
0.0
 10
456.373940
 20
266.048948
 30
0.0
 10
457.058930
 20
265.903348
 30
0.0
 10
457.698730
 20
265.618551
 30
0.0
 10
458.265330
 20
265.206851
 30
0.0
 10
458.733930
 20
264.686451
 30
0.0
 10
459.084130
 20
264.079951
 30
0.0
 10
459.300530
 20
263.413851
 30
0.0
 10
459.373730
 20
262.717351
 30
0.0
 10
459.300530
 20
262.020851
 30
0.0
 10
459.084130
 20
261.354741
 30
0.0
 10
458.733930
 20
260.748251
 30
0.0
 10
458.265330
 20
260.227854
 30
0.0
 10
457.698730
 20
259.816154
 30
0.0
 10
457.058930
 20
259.531354
 30
0.0
 10
456.373940
 20
259.385754
 30
0.0
  0
LWPOLYLINE
  5
187
100
AcDbEntity
  8
Layer_1
 62
7
100
AcDbPolyline
 90
34
 70
1
 10
481.673580
 20
217.330718
 30
0.0
 10
480.988530
 20
217.476318
 30
0.0
 10
480.348750
 20
217.761168
 30
0.0
 10
479.782160
 20
218.172835
 30
0.0
 10
479.313530
 20
218.693265
 30
0.0
 10
478.963370
 20
219.299805
 30
0.0
 10
478.746940
 20
219.965865
 30
0.0
 10
478.673740
 20
220.662355
 30
0.0
 10
478.746940
 20
221.358865
 30
0.0
 10
478.865480
 20
221.723595
 30
0.0
 10
478.990770
 20
221.787495
 30
0.0
 10
479.054670
 20
221.984295
 30
0.0
 10
479.394380
 20
222.572675
 30
0.0
 10
479.849010
 20
223.077605
 30
0.0
 10
480.398700
 20
223.476962
 30
0.0
 10
481.019380
 20
223.753322
 30
0.0
 10
481.683970
 20
223.894552
 30
0.0
 10
482.363380
 20
223.894552
 30
0.0
 10
483.027980
 20
223.753322
 30
0.0
 10
483.648680
 20
223.476962
 30
0.0
 10
484.198350
 20
223.077605
 30
0.0
 10
484.652980
 20
222.572675
 30
0.0
 10
484.992690
 20
221.984295
 30
0.0
 10
485.202650
 20
221.338105
 30
0.0
 10
485.211650
 20
221.248005
 30
0.0
 10
485.317320
 20
221.194205
 30
0.0
 10
485.373220
 20
220.662375
 30
0.0
 10
485.300020
 20
219.965885
 30
0.0
 10
485.083590
 20
219.299815
 30
0.0
 10
484.733440
 20
218.693285
 30
0.0
 10
484.264810
 20
218.172855
 30
0.0
 10
483.698220
 20
217.761188
 30
0.0
 10
483.058430
 20
217.476328
 30
0.0
 10
482.373390
 20
217.330728
 30
0.0
  0
LWPOLYLINE
  5
188
100
AcDbEntity
  8
Layer_1
 62
7
100
AcDbPolyline
 90
24
 70
1
 10
650.265370
 20
218.737734
 30
0.0
 10
651.526670
 20
219.299234
 30
0.0
 10
652.643580
 20
220.110734
 30
0.0
 10
653.567380
 20
221.136734
 30
0.0
 10
654.257780
 20
222.332434
 30
0.0
 10
654.684370
 20
223.645434
 30
0.0
 10
654.828670
 20
225.018534
 30
0.0
 10
654.684370
 20
226.391533
 30
0.0
 10
654.257780
 20
227.704630
 30
0.0
 10
653.567380
 20
228.900233
 30
0.0
 10
652.643580
 20
229.926231
 30
0.0
 10
652.390270
 20
230.110334
 30
0.0
 10
652.390270
 20
256.636432
 30
0.0
 10
621.402250
 20
256.636432
 30
0.0
 10
621.402250
 20
224.327634
 30
0.0
 10
641.693270
 20
224.327634
 30
0.0
 10
641.764970
 20
223.645434
 30
0.0
 10
642.191550
 20
222.332434
 30
0.0
 10
642.881850
 20
221.136734
 30
0.0
 10
643.805750
 20
220.110734
 30
0.0
 10
644.922660
 20
219.299234
 30
0.0
 10
646.183860
 20
218.737734
 30
0.0
 10
647.534370
 20
218.450734
 30
0.0
 10
648.914960
 20
218.450734
 30
0.0
  0
LWPOLYLINE
  5
189
100
AcDbEntity
  8
Layer_1
 62
7
100
AcDbPolyline
 90
30
 70
1
 10
631.345620
 20
243.317032
 30
0.0
 10
630.762870
 20
243.440931
 30
0.0
 10
630.218600
 20
243.683230
 30
0.0
 10
629.736610
 20
244.033430
 30
0.0
 10
629.337930
 20
244.476231
 30
0.0
 10
629.040040
 20
244.992133
 30
0.0
 10
628.855940
 20
245.558733
 30
0.0
 10
628.793640
 20
246.151333
 30
0.0
 10
628.855940
 20
246.743833
 30
0.0
 10
629.040040
 20
247.310433
 30
0.0
 10
629.337930
 20
247.826431
 30
0.0
 10
629.736610
 20
248.269233
 30
0.0
 10
630.218600
 20
248.619332
 30
0.0
 10
630.762870
 20
248.861732
 30
0.0
 10
631.345620
 20
248.985631
 30
0.0
 10
631.941460
 20
248.985631
 30
0.0
 10
632.524150
 20
248.861732
 30
0.0
 10
633.068450
 20
248.619332
 30
0.0
 10
633.550470
 20
248.269233
 30
0.0
 10
633.949170
 20
247.826431
 30
0.0
 10
634.247070
 20
247.310433
 30
0.0
 10
634.431160
 20
246.743833
 30
0.0
 10
634.493460
 20
246.151333
 30
0.0
 10
634.431160
 20
245.558733
 30
0.0
 10
634.247070
 20
244.992133
 30
0.0
 10
633.949170
 20
244.476231
 30
0.0
 10
633.550470
 20
244.033430
 30
0.0
 10
633.068450
 20
243.683230
 30
0.0
 10
632.524150
 20
243.440931
 30
0.0
 10
631.941460
 20
243.317032
 30
0.0
  0
LWPOLYLINE
  5
18a
100
AcDbEntity
  8
Layer_1
 62
7
100
AcDbPolyline
 90
30
 70
1
 10
648.222870
 20
243.977232
 30
0.0
 10
647.742470
 20
244.079333
 30
0.0
 10
647.293760
 20
244.279130
 30
0.0
 10
646.896380
 20
244.567833
 30
0.0
 10
646.567770
 20
244.932832
 30
0.0
 10
646.322160
 20
245.358231
 30
0.0
 10
646.170360
 20
245.825332
 30
0.0
 10
646.118960
 20
246.313832
 30
0.0
 10
646.170360
 20
246.802333
 30
0.0
 10
646.322160
 20
247.269531
 30
0.0
 10
646.567770
 20
247.694833
 30
0.0
 10
646.896380
 20
248.059932
 30
0.0
 10
647.293760
 20
248.348632
 30
0.0
 10
647.742470
 20
248.548331
 30
0.0
 10
648.222870
 20
248.650532
 30
0.0
 10
648.714070
 20
248.650532
 30
0.0
 10
649.194580
 20
248.548331
 30
0.0
 10
649.643260
 20
248.348632
 30
0.0
 10
650.040660
 20
248.059932
 30
0.0
 10
650.369280
 20
247.694833
 30
0.0
 10
650.614870
 20
247.269531
 30
0.0
 10
650.766680
 20
246.802333
 30
0.0
 10
650.817980
 20
246.313832
 30
0.0
 10
650.766680
 20
245.825332
 30
0.0
 10
650.614870
 20
245.358231
 30
0.0
 10
650.369280
 20
244.932832
 30
0.0
 10
650.040660
 20
244.567833
 30
0.0
 10
649.643260
 20
244.279130
 30
0.0
 10
649.194580
 20
244.079333
 30
0.0
 10
648.714070
 20
243.977232
 30
0.0
  0
LWPOLYLINE
  5
18b
100
AcDbEntity
  8
Layer_1
 62
7
100
AcDbPolyline
 90
30
 70
1
 10
647.926770
 20
222.184234
 30
0.0
 10
647.343980
 20
222.308134
 30
0.0
 10
646.799680
 20
222.550433
 30
0.0
 10
646.317760
 20
222.900633
 30
0.0
 10
645.919060
 20
223.343433
 30
0.0
 10
645.621170
 20
223.859334
 30
0.0
 10
645.437070
 20
224.426034
 30
0.0
 10
645.374770
 20
225.018534
 30
0.0
 10
645.437070
 20
225.611034
 30
0.0
 10
645.621170
 20
226.177633
 30
0.0
 10
645.919060
 20
226.693631
 30
0.0
 10
646.317760
 20
227.136433
 30
0.0
 10
646.799680
 20
227.486532
 30
0.0
 10
647.343980
 20
227.728932
 30
0.0
 10
647.926770
 20
227.852730
 30
0.0
 10
648.522560
 20
227.852730
 30
0.0
 10
649.105280
 20
227.728932
 30
0.0
 10
649.649560
 20
227.486532
 30
0.0
 10
650.131570
 20
227.136433
 30
0.0
 10
650.530280
 20
226.693631
 30
0.0
 10
650.828170
 20
226.177633
 30
0.0
 10
651.012270
 20
225.611034
 30
0.0
 10
651.074570
 20
225.018534
 30
0.0
 10
651.012270
 20
224.426034
 30
0.0
 10
650.828170
 20
223.859334
 30
0.0
 10
650.530280
 20
223.343433
 30
0.0
 10
650.131570
 20
222.900633
 30
0.0
 10
649.649560
 20
222.550433
 30
0.0
 10
649.105280
 20
222.308134
 30
0.0
 10
648.522560
 20
222.184234
 30
0.0
  0
LWPOLYLINE
  5
18c
100
AcDbEntity
  8
Layer_1
 62
7
100
AcDbPolyline
 90
24
 70
1
 10
697.564090
 20
250.675366
 30
0.0
 10
697.817400
 20
250.859356
 30
0.0
 10
698.741200
 20
251.885356
 30
0.0
 10
699.431600
 20
253.081066
 30
0.0
 10
699.858190
 20
254.394052
 30
0.0
 10
700.002490
 20
255.767063
 30
0.0
 10
699.858190
 20
257.140153
 30
0.0
 10
699.431600
 20
258.453153
 30
0.0
 10
698.741200
 20
259.648849
 30
0.0
 10
697.817400
 20
260.674850
 30
0.0
 10
696.700490
 20
261.486350
 30
0.0
 10
695.439200
 20
262.047850
 30
0.0
 10
694.088790
 20
262.334950
 30
0.0
 10
692.708200
 20
262.334950
 30
0.0
 10
691.357680
 20
262.047850
 30
0.0
 10
690.096490
 20
261.486350
 30
0.0
 10
688.979580
 20
260.674850
 30
0.0
 10
688.055680
 20
259.648849
 30
0.0
 10
687.365380
 20
258.453153
 30
0.0
 10
686.938790
 20
257.140153
 30
0.0
 10
686.852190
 20
256.315753
 30
0.0
 10
666.576080
 20
256.315753
 30
0.0
 10
666.576080
 20
224.006964
 30
0.0
 10
697.564090
 20
224.006964
 30
0.0
  0
LWPOLYLINE
  5
18d
100
AcDbEntity
  8
Layer_1
 62
7
100
AcDbPolyline
 90
30
 70
1
 10
693.100600
 20
252.932876
 30
0.0
 10
692.517800
 20
253.056746
 30
0.0
 10
691.973500
 20
253.299056
 30
0.0
 10
691.491580
 20
253.649256
 30
0.0
 10
691.092880
 20
254.091955
 30
0.0
 10
690.794990
 20
254.607942
 30
0.0
 10
690.610890
 20
255.174552
 30
0.0
 10
690.548590
 20
255.767063
 30
0.0
 10
690.610890
 20
256.359643
 30
0.0
 10
690.794990
 20
256.926253
 30
0.0
 10
691.092880
 20
257.442253
 30
0.0
 10
691.491580
 20
257.884953
 30
0.0
 10
691.973500
 20
258.235153
 30
0.0
 10
692.517800
 20
258.477553
 30
0.0
 10
693.100600
 20
258.601353
 30
0.0
 10
693.696390
 20
258.601353
 30
0.0
 10
694.279080
 20
258.477553
 30
0.0
 10
694.823380
 20
258.235153
 30
0.0
 10
695.305400
 20
257.884953
 30
0.0
 10
695.704100
 20
257.442253
 30
0.0
 10
696.001990
 20
256.926253
 30
0.0
 10
696.186090
 20
256.359643
 30
0.0
 10
696.248390
 20
255.767063
 30
0.0
 10
696.186090
 20
255.174552
 30
0.0
 10
696.001990
 20
254.607942
 30
0.0
 10
695.704100
 20
254.091955
 30
0.0
 10
695.305400
 20
253.649256
 30
0.0
 10
694.823380
 20
253.299056
 30
0.0
 10
694.279080
 20
253.056746
 30
0.0
 10
693.696390
 20
252.932876
 30
0.0
  0
LWPOLYLINE
  5
18e
100
AcDbEntity
  8
Layer_1
 62
7
100
AcDbPolyline
 90
30
 70
1
 10
676.580370
 20
245.678559
 30
0.0
 10
675.997650
 20
245.802459
 30
0.0
 10
675.453380
 20
246.044769
 30
0.0
 10
674.971360
 20
246.394969
 30
0.0
 10
674.572710
 20
246.837769
 30
0.0
 10
674.274820
 20
247.353759
 30
0.0
 10
674.090720
 20
247.920369
 30
0.0
 10
674.028420
 20
248.512849
 30
0.0
 10
674.090720
 20
249.105355
 30
0.0
 10
674.274820
 20
249.672065
 30
0.0
 10
674.572710
 20
250.187946
 30
0.0
 10
674.971360
 20
250.630756
 30
0.0
 10
675.453380
 20
250.980956
 30
0.0
 10
675.997650
 20
251.223266
 30
0.0
 10
676.580370
 20
251.347166
 30
0.0
 10
677.176190
 20
251.347166
 30
0.0
 10
677.758990
 20
251.223266
 30
0.0
 10
678.303290
 20
250.980956
 30
0.0
 10
678.785280
 20
250.630756
 30
0.0
 10
679.183880
 20
250.187946
 30
0.0
 10
679.481770
 20
249.672065
 30
0.0
 10
679.665890
 20
249.105355
 30
0.0
 10
679.728190
 20
248.512849
 30
0.0
 10
679.665890
 20
247.920369
 30
0.0
 10
679.481770
 20
247.353759
 30
0.0
 10
679.183880
 20
246.837769
 30
0.0
 10
678.785280
 20
246.394969
 30
0.0
 10
678.303290
 20
246.044769
 30
0.0
 10
677.758990
 20
245.802459
 30
0.0
 10
677.176190
 20
245.678559
 30
0.0
  0
LWPOLYLINE
  5
18f
100
AcDbEntity
  8
Layer_1
 62
7
100
AcDbPolyline
 90
30
 70
1
 10
693.335790
 20
231.972589
 30
0.0
 10
692.855300
 20
232.074692
 30
0.0
 10
692.406590
 20
232.274478
 30
0.0
 10
692.009290
 20
232.563165
 30
0.0
 10
691.680600
 20
232.928183
 30
0.0
 10
691.434990
 20
233.353554
 30
0.0
 10
691.283200
 20
233.820724
 30
0.0
 10
691.231900
 20
234.309175
 30
0.0
 10
691.283200
 20
234.797675
 30
0.0
 10
691.434990
 20
235.264875
 30
0.0
 10
691.680600
 20
235.690165
 30
0.0
 10
692.009290
 20
236.055165
 30
0.0
 10
692.406590
 20
236.343955
 30
0.0
 10
692.855300
 20
236.543665
 30
0.0
 10
693.335790
 20
236.645875
 30
0.0
 10
693.826980
 20
236.645875
 30
0.0
 10
694.307390
 20
236.543665
 30
0.0
 10
694.756100
 20
236.343955
 30
0.0
 10
695.153500
 20
236.055165
 30
0.0
 10
695.482190
 20
235.690165
 30
0.0
 10
695.727700
 20
235.264875
 30
0.0
 10
695.879490
 20
234.797675
 30
0.0
 10
695.930890
 20
234.309175
 30
0.0
 10
695.879490
 20
233.820724
 30
0.0
 10
695.727700
 20
233.353554
 30
0.0
 10
695.482190
 20
232.928183
 30
0.0
 10
695.153500
 20
232.563165
 30
0.0
 10
694.756100
 20
232.274478
 30
0.0
 10
694.307390
 20
232.074692
 30
0.0
 10
693.826980
 20
231.972589
 30
0.0
  0
ENDSEC
  0
SECTION
  2
OBJECTS
  0
DICTIONARY
  5
C
330
0
100
AcDbDictionary
  3
ACAD_GROUP
350
D
  3
ACAD_MLINESTYLE
350
17
  0
DICTIONARY
  5
D
330
C
100
AcDbDictionary
  0
DICTIONARY
  5
1A
330
C
100
AcDbDictionary
  0
DICTIONARY
  5
17
330
C
100
AcDbDictionary
  3
STANDARD
350
18
  0
DICTIONARY
  5
19
330
C
100
AcDbDictionary
  0
ENDSEC
  0
EOF
