  0
SECTION
  2
HEADER
  9
$ACADVER
  1
AC1014
  9
$HANDSEED
  5
FFFF
  9
$MEASUREMENT
 70
     1
  0
ENDSEC
  0
SECTION
  2
TABLES
  0
TABLE
  2
VPORT
  5
8
330
0
100
AcDbSymbolTable
 70
     4
  0
VPORT
  5
2E
330
8
100
AcDbSymbolTableRecord
100
AcDbViewportTableRecord
  2
*ACTIVE
 70
     0
 10
0.0
 20
0.0
 11
1.0
 21
1.0
 12
210.0
 22
148.5
 13
0.0
 23
0.0
 14
10.0
 24
10.0
 15
10.0
 25
10.0
 16
0.0
 26
0.0
 36
1.0
 17
0.0
 27
0.0
 37
0.0
 40
341.0
 41
1.24
 42
50.0
 43
0.0
 44
0.0
 50
0.0
 51
0.0
 71
     0
 72
   100
 73
     1
 74
     3
 75
     0
 76
     0
 77
     0
 78
     0
  0
ENDTAB
  0
TABLE
  2
LTYPE
  5
5
330
0
100
AcDbSymbolTable
 70
     1
  0
LTYPE
  5
14
330
5
100
AcDbSymbolTableRecord
100
AcDbLinetypeTableRecord
  2
BYBLOCK
 70
     0
  3

 72
    65
 73
     0
 40
0.0
  0
LTYPE
  5
15
330
5
100
AcDbSymbolTableRecord
100
AcDbLinetypeTableRecord
  2
BYLAYER
 70
     0
  3

 72
    65
 73
     0
 40
0.0
  0
LTYPE
  5
16
330
5
100
AcDbSymbolTableRecord
100
AcDbLinetypeTableRecord
  2
CONTINUOUS
 70
     0
  3
Solid line
 72
    65
 73
     0
 40
0.0
  0
ENDTAB
  0
TABLE
  2
LAYER
  5
2
100
AcDbSymbolTable
 70
2
  0
LAYER
  5
50
100
AcDbSymbolTableRecord
100
AcDbLayerTableRecord
  2
0
 70
0
  6
CONTINUOUS
  0
LAYER
  5
51
100
AcDbSymbolTableRecord
100
AcDbLayerTableRecord
  2
Layer_1
 70
0
  6
CONTINUOUS
  0
ENDTAB
  0
TABLE
  2
STYLE
  5
3
330
0
100
AcDbSymbolTable
 70
     1
  0
STYLE
  5
11
330
3
100
AcDbSymbolTableRecord
100
AcDbTextStyleTableRecord
  2
STANDARD
 70
     0
 40
0.0
 41
1.0
 50
0.0
 71
     0
 42
2.5
  3
txt
  4

  0
ENDTAB
  0
TABLE
  2
VIEW
  5
6
330
0
100
AcDbSymbolTable
 70
     0
  0
ENDTAB
  0
TABLE
  2
UCS
  5
7
330
0
100
AcDbSymbolTable
 70
     0
  0
ENDTAB
  0
TABLE
  2
APPID
  5
9
330
0
100
AcDbSymbolTable
 70
     2
  0
APPID
  5
12
330
9
100
AcDbSymbolTableRecord
100
AcDbRegAppTableRecord
  2
ACAD
 70
     0
  0
ENDTAB
  0
TABLE
  2
DIMSTYLE
  5
A
330
0
100
AcDbSymbolTable
 70
     1
  0
DIMSTYLE
105
27
330
A
100
AcDbSymbolTableRecord
100
AcDbDimStyleTableRecord
  2
ISO-25
 70
     0
  3

  4

  5

  6

  7

 40
1.0
 41
2.5
 42
0.625
 43
3.75
 44
1.25
 45
0.0
 46
0.0
 47
0.0
 48
0.0
140
2.5
141
2.5
142
0.0
143
0.03937007874016
144
1.0
145
0.0
146
1.0
147
0.625
 71
     0
 72
     0
 73
     0
 74
     0
 75
     0
 76
     0
 77
     1
 78
     8
170
     0
171
     3
172
     1
173
     0
174
     0
175
     0
176
     0
177
     0
178
     0
270
     2
271
     2
272
     2
273
     2
274
     3
340
11
275
     0
280
     0
281
     0
282
     0
283
     0
284
     8
285
     0
286
     0
287
     3
288
     0
  0
ENDTAB
  0
TABLE
  2
BLOCK_RECORD
  5
1
330
0
100
AcDbSymbolTable
 70
     1
  0
BLOCK_RECORD
  5
1F
330
1
100
AcDbSymbolTableRecord
100
AcDbBlockTableRecord
  2
*MODEL_SPACE
  0
BLOCK_RECORD
  5
1B
330
1
100
AcDbSymbolTableRecord
100
AcDbBlockTableRecord
  2
*PAPER_SPACE
  0
ENDTAB
  0
ENDSEC
  0
SECTION
  2
BLOCKS
  0
BLOCK
  5
20
330
1F
100
AcDbEntity
  8
0
100
AcDbBlockBegin
  2
*MODEL_SPACE
 70
     0
 10
0.0
 20
0.0
 30
0.0
  3
*MODEL_SPACE
  1

  0
ENDBLK
  5
21
330
1F
100
AcDbEntity
  8
0
100
AcDbBlockEnd
  0
BLOCK
  5
1C
330
1B
100
AcDbEntity
 67
     1
  8
0
100
AcDbBlockBegin
  2
*PAPER_SPACE
  1

  0
ENDBLK
  5
1D
330
1B
100
AcDbEntity
 67
     1
  8
0
100
AcDbBlockEnd
  0
ENDSEC
  0
SECTION
  2
ENTITIES
  0
LWPOLYLINE
  5
100
100
AcDbEntity
  8
Layer_1
 62
7
100
AcDbPolyline
 90
4
 70
1
 10
410.042960
 20
60.242970
 30
0.0
 10
0.257038
 20
60.242970
 30
0.0
 10
0.257038
 20
0.257040
 30
0.0
 10
410.042960
 20
0.257040
 30
0.0
  0
LWPOLYLINE
  5
101
100
AcDbEntity
  8
Layer_1
 62
7
100
AcDbPolyline
 90
30
 70
1
 10
23.059374
 20
45.123970
 30
0.0
 10
22.452238
 20
45.234980
 30
0.0
 10
21.885058
 20
45.452980
 30
0.0
 10
21.382932
 20
45.767790
 30
0.0
 10
20.967493
 20
46.165830
 30
0.0
 10
20.657064
 20
46.629570
 30
0.0
 10
20.465034
 20
47.138940
 30
0.0
 10
20.400184
 20
47.671570
 30
0.0
 10
20.465034
 20
48.204160
 30
0.0
 10
20.657064
 20
48.713540
 30
0.0
 10
20.967493
 20
49.177270
 30
0.0
 10
21.382932
 20
49.575310
 30
0.0
 10
21.885058
 20
49.890120
 30
0.0
 10
22.452238
 20
50.108120
 30
0.0
 10
23.059374
 20
50.219490
 30
0.0
 10
23.680148
 20
50.219490
 30
0.0
 10
24.287324
 20
50.108120
 30
0.0
 10
24.854380
 20
49.890120
 30
0.0
 10
25.356589
 20
49.575310
 30
0.0
 10
25.772028
 20
49.177270
 30
0.0
 10
26.082457
 20
48.713540
 30
0.0
 10
26.274487
 20
48.204160
 30
0.0
 10
26.339337
 20
47.671570
 30
0.0
 10
26.274487
 20
47.138940
 30
0.0
 10
26.082457
 20
46.629570
 30
0.0
 10
25.772028
 20
46.165830
 30
0.0
 10
25.356589
 20
45.767790
 30
0.0
 10
24.854380
 20
45.452980
 30
0.0
 10
24.287324
 20
45.234980
 30
0.0
 10
23.680148
 20
45.123970
 30
0.0
  0
LWPOLYLINE
  5
102
100
AcDbEntity
  8
Layer_1
 62
7
100
AcDbPolyline
 90
30
 70
1
 10
39.171968
 20
14.313250
 30
0.0
 10
34.918257
 20
15.093250
 30
0.0
 10
30.945605
 20
16.619230
 30
0.0
 10
27.427467
 20
18.824460
 30
0.0
 10
24.517553
 20
21.612510
 30
0.0
 10
22.343295
 20
24.861640
 30
0.0
 10
20.999373
 20
28.429730
 30
0.0
 10
20.544900
 20
32.160940
 30
0.0
 10
20.999373
 20
35.892110
 30
0.0
 10
22.343295
 20
39.460200
 30
0.0
 10
24.517553
 20
42.709290
 30
0.0
 10
27.427467
 20
45.497340
 30
0.0
 10
30.945605
 20
47.702500
 30
0.0
 10
34.918257
 20
49.228440
 30
0.0
 10
39.171968
 20
50.008480
 30
0.0
 10
43.520692
 20
50.008480
 30
0.0
 10
47.774278
 20
49.228440
 30
0.0
 10
51.747057
 20
47.702500
 30
0.0
 10
55.265235
 20
45.497340
 30
0.0
 10
58.175025
 20
42.709290
 30
0.0
 10
60.349366
 20
39.460200
 30
0.0
 10
61.693163
 20
35.892110
 30
0.0
 10
62.147760
 20
32.160940
 30
0.0
 10
61.693163
 20
28.429730
 30
0.0
 10
60.349366
 20
24.861640
 30
0.0
 10
58.175025
 20
21.612510
 30
0.0
 10
55.265235
 20
18.824460
 30
0.0
 10
51.747057
 20
16.619230
 30
0.0
 10
47.774278
 20
15.093250
 30
0.0
 10
43.520692
 20
14.313250
 30
0.0
  0
LWPOLYLINE
  5
103
100
AcDbEntity
  8
Layer_1
 62
7
100
AcDbPolyline
 90
30
 70
1
 10
60.041949
 20
44.168990
 30
0.0
 10
59.434813
 20
44.280360
 30
0.0
 10
58.867633
 20
44.497990
 30
0.0
 10
58.365507
 20
44.812800
 30
0.0
 10
57.950068
 20
45.210850
 30
0.0
 10
57.639639
 20
45.674580
 30
0.0
 10
57.447609
 20
46.183960
 30
0.0
 10
57.382759
 20
46.716550
 30
0.0
 10
57.447609
 20
47.249100
 30
0.0
 10
57.639639
 20
47.758510
 30
0.0
 10
57.950068
 20
48.222250
 30
0.0
 10
58.365507
 20
48.620290
 30
0.0
 10
58.867633
 20
48.935100
 30
0.0
 10
59.434813
 20
49.153100
 30
0.0
 10
60.041949
 20
49.264110
 30
0.0
 10
60.662723
 20
49.264110
 30
0.0
 10
61.269858
 20
49.153100
 30
0.0
 10
61.836956
 20
48.935100
 30
0.0
 10
62.339164
 20
48.620290
 30
0.0
 10
62.754603
 20
48.222250
 30
0.0
 10
63.065032
 20
47.758510
 30
0.0
 10
63.257062
 20
47.249100
 30
0.0
 10
63.321912
 20
46.716550
 30
0.0
 10
63.257062
 20
46.183960
 30
0.0
 10
63.065032
 20
45.674580
 30
0.0
 10
62.754603
 20
45.210850
 30
0.0
 10
62.339164
 20
44.812800
 30
0.0
 10
61.836956
 20
44.497990
 30
0.0
 10
61.269858
 20
44.280360
 30
0.0
 10
60.662723
 20
44.168990
 30
0.0
  0
LWPOLYLINE
  5
104
100
AcDbEntity
  8
Layer_1
 62
7
100
AcDbPolyline
 90
30
 70
1
 10
157.227640
 20
42.428910
 30
0.0
 10
156.808100
 20
42.505710
 30
0.0
 10
156.417340
 20
42.655660
 30
0.0
 10
156.070930
 20
42.872930
 30
0.0
 10
155.784350
 20
43.147340
 30
0.0
 10
155.570560
 20
43.467250
 30
0.0
 10
155.437520
 20
43.818450
 30
0.0
 10
155.393120
 20
44.185740
 30
0.0
 10
155.437520
 20
44.553030
 30
0.0
 10
155.570560
 20
44.904240
 30
0.0
 10
155.784350
 20
45.224140
 30
0.0
 10
156.070930
 20
45.498550
 30
0.0
 10
156.417340
 20
45.715460
 30
0.0
 10
156.808100
 20
45.865770
 30
0.0
 10
157.227640
 20
45.942570
 30
0.0
 10
157.654910
 20
45.942570
 30
0.0
 10
158.074450
 20
45.865770
 30
0.0
 10
158.465210
 20
45.715460
 30
0.0
 10
158.811620
 20
45.498550
 30
0.0
 10
159.098200
 20
45.224140
 30
0.0
 10
159.311980
 20
44.904240
 30
0.0
 10
159.444600
 20
44.553030
 30
0.0
 10
159.489000
 20
44.185740
 30
0.0
 10
159.444600
 20
43.818450
 30
0.0
 10
159.311980
 20
43.467250
 30
0.0
 10
159.098200
 20
43.147340
 30
0.0
 10
158.811620
 20
42.872930
 30
0.0
 10
158.465210
 20
42.655660
 30
0.0
 10
158.074450
 20
42.505710
 30
0.0
 10
157.654910
 20
42.428910
 30
0.0
  0
LWPOLYLINE
  5
105
100
AcDbEntity
  8
Layer_1
 62
7
100
AcDbPolyline
 90
30
 70
1
 10
256.851440
 20
42.428910
 30
0.0
 10
256.431900
 20
42.505710
 30
0.0
 10
256.041140
 20
42.655660
 30
0.0
 10
255.694740
 20
42.872930
 30
0.0
 10
255.408160
 20
43.147340
 30
0.0
 10
255.194370
 20
43.467250
 30
0.0
 10
255.061330
 20
43.818450
 30
0.0
 10
255.016930
 20
44.185740
 30
0.0
 10
255.061330
 20
44.553030
 30
0.0
 10
255.194370
 20
44.904240
 30
0.0
 10
255.408160
 20
45.224140
 30
0.0
 10
255.694740
 20
45.498550
 30
0.0
 10
256.041140
 20
45.715460
 30
0.0
 10
256.431900
 20
45.865770
 30
0.0
 10
256.851440
 20
45.942570
 30
0.0
 10
257.278720
 20
45.942570
 30
0.0
 10
257.698250
 20
45.865770
 30
0.0
 10
258.089010
 20
45.715460
 30
0.0
 10
258.435420
 20
45.498550
 30
0.0
 10
258.722000
 20
45.224140
 30
0.0
 10
258.935790
 20
44.904240
 30
0.0
 10
259.068420
 20
44.553030
 30
0.0
 10
259.112820
 20
44.185740
 30
0.0
 10
259.068420
 20
43.818450
 30
0.0
 10
258.935790
 20
43.467250
 30
0.0
 10
258.722000
 20
43.147340
 30
0.0
 10
258.435420
 20
42.872930
 30
0.0
 10
258.089010
 20
42.655660
 30
0.0
 10
257.698250
 20
42.505710
 30
0.0
 10
257.278720
 20
42.428910
 30
0.0
  0
LWPOLYLINE
  5
106
100
AcDbEntity
  8
Layer_1
 62
7
100
AcDbPolyline
 90
30
 70
1
 10
312.198010
 20
42.428910
 30
0.0
 10
311.778470
 20
42.505710
 30
0.0
 10
311.387720
 20
42.655660
 30
0.0
 10
311.041310
 20
42.872930
 30
0.0
 10
310.754720
 20
43.147340
 30
0.0
 10
310.540940
 20
43.467250
 30
0.0
 10
310.408320
 20
43.818450
 30
0.0
 10
310.363920
 20
44.185740
 30
0.0
 10
310.408320
 20
44.553030
 30
0.0
 10
310.540940
 20
44.904240
 30
0.0
 10
310.754720
 20
45.224140
 30
0.0
 10
311.041310
 20
45.498550
 30
0.0
 10
311.387720
 20
45.715460
 30
0.0
 10
311.778470
 20
45.865770
 30
0.0
 10
312.198010
 20
45.942570
 30
0.0
 10
312.625290
 20
45.942570
 30
0.0
 10
313.044790
 20
45.865770
 30
0.0
 10
313.435540
 20
45.715460
 30
0.0
 10
313.781960
 20
45.498550
 30
0.0
 10
314.068540
 20
45.224140
 30
0.0
 10
314.282320
 20
44.904240
 30
0.0
 10
314.414940
 20
44.553030
 30
0.0
 10
314.459340
 20
44.185740
 30
0.0
 10
314.414940
 20
43.818450
 30
0.0
 10
314.282320
 20
43.467250
 30
0.0
 10
314.068540
 20
43.147340
 30
0.0
 10
313.781960
 20
42.872930
 30
0.0
 10
313.435540
 20
42.655660
 30
0.0
 10
313.044790
 20
42.505710
 30
0.0
 10
312.625290
 20
42.428910
 30
0.0
  0
LWPOLYLINE
  5
107
100
AcDbEntity
  8
Layer_1
 62
7
100
AcDbPolyline
 90
30
 70
1
 10
212.574210
 20
42.428910
 30
0.0
 10
212.154670
 20
42.505710
 30
0.0
 10
211.763910
 20
42.655660
 30
0.0
 10
211.417500
 20
42.872930
 30
0.0
 10
211.130920
 20
43.147340
 30
0.0
 10
210.917140
 20
43.467250
 30
0.0
 10
210.784520
 20
43.818450
 30
0.0
 10
210.740120
 20
44.185740
 30
0.0
 10
210.784520
 20
44.553030
 30
0.0
 10
210.917140
 20
44.904240
 30
0.0
 10
211.130920
 20
45.224140
 30
0.0
 10
211.417500
 20
45.498550
 30
0.0
 10
211.763910
 20
45.715460
 30
0.0
 10
212.154670
 20
45.865770
 30
0.0
 10
212.574210
 20
45.942570
 30
0.0
 10
213.001480
 20
45.942570
 30
0.0
 10
213.420980
 20
45.865770
 30
0.0
 10
213.811740
 20
45.715460
 30
0.0
 10
214.158140
 20
45.498550
 30
0.0
 10
214.444730
 20
45.224140
 30
0.0
 10
214.658520
 20
44.904240
 30
0.0
 10
214.791140
 20
44.553030
 30
0.0
 10
214.835540
 20
44.185740
 30
0.0
 10
214.791140
 20
43.818450
 30
0.0
 10
214.658520
 20
43.467250
 30
0.0
 10
214.444730
 20
43.147340
 30
0.0
 10
214.158140
 20
42.872930
 30
0.0
 10
213.811740
 20
42.655660
 30
0.0
 10
213.420980
 20
42.505710
 30
0.0
 10
213.001480
 20
42.428910
 30
0.0
  0
LWPOLYLINE
  5
108
100
AcDbEntity
  8
Layer_1
 62
7
100
AcDbPolyline
 90
30
 70
1
 10
101.880640
 20
42.428910
 30
0.0
 10
101.461900
 20
42.505710
 30
0.0
 10
101.070730
 20
42.655660
 30
0.0
 10
100.724310
 20
42.872930
 30
0.0
 10
100.437730
 20
43.147340
 30
0.0
 10
100.223530
 20
43.467250
 30
0.0
 10
100.091330
 20
43.818450
 30
0.0
 10
100.046530
 20
44.185740
 30
0.0
 10
100.091330
 20
44.553030
 30
0.0
 10
100.223530
 20
44.904240
 30
0.0
 10
100.437730
 20
45.224140
 30
0.0
 10
100.724310
 20
45.498550
 30
0.0
 10
101.070730
 20
45.715460
 30
0.0
 10
101.461900
 20
45.865770
 30
0.0
 10
101.880640
 20
45.942570
 30
0.0
 10
102.308800
 20
45.942570
 30
0.0
 10
102.727550
 20
45.865770
 30
0.0
 10
103.118710
 20
45.715460
 30
0.0
 10
103.465130
 20
45.498550
 30
0.0
 10
103.751710
 20
45.224140
 30
0.0
 10
103.965500
 20
44.904240
 30
0.0
 10
104.098120
 20
44.553030
 30
0.0
 10
104.142920
 20
44.185740
 30
0.0
 10
104.098120
 20
43.818450
 30
0.0
 10
103.965500
 20
43.467250
 30
0.0
 10
103.751710
 20
43.147340
 30
0.0
 10
103.465130
 20
42.872930
 30
0.0
 10
103.118710
 20
42.655660
 30
0.0
 10
102.727550
 20
42.505710
 30
0.0
 10
102.308800
 20
42.428910
 30
0.0
  0
LWPOLYLINE
  5
109
100
AcDbEntity
  8
Layer_1
 62
7
100
AcDbPolyline
 90
30
 70
1
 10
367.544550
 20
42.428910
 30
0.0
 10
367.125050
 20
42.505710
 30
0.0
 10
366.734290
 20
42.655660
 30
0.0
 10
366.387890
 20
42.872930
 30
0.0
 10
366.101300
 20
43.147340
 30
0.0
 10
365.887520
 20
43.467250
 30
0.0
 10
365.754480
 20
43.818450
 30
0.0
 10
365.710080
 20
44.185740
 30
0.0
 10
365.754480
 20
44.553030
 30
0.0
 10
365.887520
 20
44.904240
 30
0.0
 10
366.101300
 20
45.224140
 30
0.0
 10
366.387890
 20
45.498550
 30
0.0
 10
366.734290
 20
45.715460
 30
0.0
 10
367.125050
 20
45.865770
 30
0.0
 10
367.544550
 20
45.942570
 30
0.0
 10
367.971820
 20
45.942570
 30
0.0
 10
368.391360
 20
45.865770
 30
0.0
 10
368.782120
 20
45.715460
 30
0.0
 10
369.128520
 20
45.498550
 30
0.0
 10
369.415110
 20
45.224140
 30
0.0
 10
369.628890
 20
44.904240
 30
0.0
 10
369.761930
 20
44.553030
 30
0.0
 10
369.806330
 20
44.185740
 30
0.0
 10
369.761930
 20
43.818450
 30
0.0
 10
369.628890
 20
43.467250
 30
0.0
 10
369.415110
 20
43.147340
 30
0.0
 10
369.128520
 20
42.872930
 30
0.0
 10
368.782120
 20
42.655660
 30
0.0
 10
368.391360
 20
42.505710
 30
0.0
 10
367.971820
 20
42.428910
 30
0.0
  0
LWPOLYLINE
  5
10a
100
AcDbEntity
  8
Layer_1
 62
7
100
AcDbPolyline
 90
4
 70
1
 10
105.415510
 20
16.491630
 30
0.0
 10
105.415510
 20
38.456120
 30
0.0
 10
211.680910
 20
38.456120
 30
0.0
 10
211.680910
 20
16.491630
 30
0.0
  0
LWPOLYLINE
  5
10b
100
AcDbEntity
  8
Layer_1
 62
7
100
AcDbPolyline
 90
4
 70
1
 10
260.385850
 20
16.491630
 30
0.0
 10
260.385850
 20
38.456120
 30
0.0
 10
366.651250
 20
38.456120
 30
0.0
 10
366.651250
 20
16.491630
 30
0.0
  0
LWPOLYLINE
  5
10c
100
AcDbEntity
  8
Layer_1
 62
7
100
AcDbPolyline
 90
30
 70
1
 10
23.059374
 20
13.661290
 30
0.0
 10
22.452238
 20
13.772290
 30
0.0
 10
21.885058
 20
13.989930
 30
0.0
 10
21.382932
 20
14.304740
 30
0.0
 10
20.967493
 20
14.702740
 30
0.0
 10
20.657064
 20
15.166480
 30
0.0
 10
20.465034
 20
15.675890
 30
0.0
 10
20.400184
 20
16.208480
 30
0.0
 10
20.465034
 20
16.741040
 30
0.0
 10
20.657064
 20
17.250450
 30
0.0
 10
20.967493
 20
17.714150
 30
0.0
 10
21.382932
 20
18.112190
 30
0.0
 10
21.885058
 20
18.427000
 30
0.0
 10
22.452238
 20
18.645000
 30
0.0
 10
23.059374
 20
18.756370
 30
0.0
 10
23.680148
 20
18.756370
 30
0.0
 10
24.287283
 20
18.645000
 30
0.0
 10
24.854380
 20
18.427000
 30
0.0
 10
25.356589
 20
18.112190
 30
0.0
 10
25.772028
 20
17.714150
 30
0.0
 10
26.082457
 20
17.250450
 30
0.0
 10
26.274487
 20
16.741040
 30
0.0
 10
26.339337
 20
16.208480
 30
0.0
 10
26.274487
 20
15.675890
 30
0.0
 10
26.082457
 20
15.166480
 30
0.0
 10
25.772028
 20
14.702740
 30
0.0
 10
25.356589
 20
14.304740
 30
0.0
 10
24.854380
 20
13.989930
 30
0.0
 10
24.287283
 20
13.772290
 30
0.0
 10
23.680148
 20
13.661290
 30
0.0
  0
LWPOLYLINE
  5
10d
100
AcDbEntity
  8
Layer_1
 62
7
100
AcDbPolyline
 90
30
 70
1
 10
60.041949
 20
13.661290
 30
0.0
 10
59.434813
 20
13.772290
 30
0.0
 10
58.867633
 20
13.989930
 30
0.0
 10
58.365507
 20
14.304740
 30
0.0
 10
57.950068
 20
14.702740
 30
0.0
 10
57.639639
 20
15.166480
 30
0.0
 10
57.447609
 20
15.675890
 30
0.0
 10
57.382759
 20
16.208480
 30
0.0
 10
57.447609
 20
16.741040
 30
0.0
 10
57.639639
 20
17.250450
 30
0.0
 10
57.950068
 20
17.714150
 30
0.0
 10
58.365507
 20
18.112190
 30
0.0
 10
58.867633
 20
18.427000
 30
0.0
 10
59.434813
 20
18.645000
 30
0.0
 10
60.041949
 20
18.756370
 30
0.0
 10
60.662723
 20
18.756370
 30
0.0
 10
61.269858
 20
18.645000
 30
0.0
 10
61.836956
 20
18.427000
 30
0.0
 10
62.339164
 20
18.112190
 30
0.0
 10
62.754603
 20
17.714150
 30
0.0
 10
63.065032
 20
17.250450
 30
0.0
 10
63.257062
 20
16.741040
 30
0.0
 10
63.321912
 20
16.208480
 30
0.0
 10
63.257062
 20
15.675890
 30
0.0
 10
63.065032
 20
15.166480
 30
0.0
 10
62.754603
 20
14.702740
 30
0.0
 10
62.339164
 20
14.304740
 30
0.0
 10
61.836956
 20
13.989930
 30
0.0
 10
61.269858
 20
13.772290
 30
0.0
 10
60.662723
 20
13.661290
 30
0.0
  0
LWPOLYLINE
  5
10e
100
AcDbEntity
  8
Layer_1
 62
7
100
AcDbPolyline
 90
30
 70
1
 10
367.544550
 20
9.004720
 30
0.0
 10
367.125050
 20
9.081520
 30
0.0
 10
366.734290
 20
9.231470
 30
0.0
 10
366.387890
 20
9.448740
 30
0.0
 10
366.101300
 20
9.723150
 30
0.0
 10
365.887520
 20
10.043060
 30
0.0
 10
365.754480
 20
10.394260
 30
0.0
 10
365.710080
 20
10.761550
 30
0.0
 10
365.754480
 20
11.128840
 30
0.0
 10
365.887520
 20
11.480050
 30
0.0
 10
366.101300
 20
11.799950
 30
0.0
 10
366.387890
 20
12.074360
 30
0.0
 10
366.734290
 20
12.291270
 30
0.0
 10
367.125050
 20
12.441580
 30
0.0
 10
367.544550
 20
12.518380
 30
0.0
 10
367.971820
 20
12.518380
 30
0.0
 10
368.391360
 20
12.441580
 30
0.0
 10
368.782120
 20
12.291270
 30
0.0
 10
369.128520
 20
12.074360
 30
0.0
 10
369.415110
 20
11.799950
 30
0.0
 10
369.628890
 20
11.480050
 30
0.0
 10
369.761930
 20
11.128840
 30
0.0
 10
369.806330
 20
10.761550
 30
0.0
 10
369.761930
 20
10.394260
 30
0.0
 10
369.628890
 20
10.043060
 30
0.0
 10
369.415110
 20
9.723150
 30
0.0
 10
369.128520
 20
9.448740
 30
0.0
 10
368.782120
 20
9.231470
 30
0.0
 10
368.391360
 20
9.081520
 30
0.0
 10
367.971820
 20
9.004720
 30
0.0
  0
LWPOLYLINE
  5
10f
100
AcDbEntity
  8
Layer_1
 62
7
100
AcDbPolyline
 90
30
 70
1
 10
312.198010
 20
9.004720
 30
0.0
 10
311.778470
 20
9.081520
 30
0.0
 10
311.387720
 20
9.231470
 30
0.0
 10
311.041310
 20
9.448740
 30
0.0
 10
310.754720
 20
9.723150
 30
0.0
 10
310.540940
 20
10.043060
 30
0.0
 10
310.408320
 20
10.394260
 30
0.0
 10
310.363920
 20
10.761550
 30
0.0
 10
310.408320
 20
11.128840
 30
0.0
 10
310.540940
 20
11.480050
 30
0.0
 10
310.754720
 20
11.799950
 30
0.0
 10
311.041310
 20
12.074360
 30
0.0
 10
311.387720
 20
12.291270
 30
0.0
 10
311.778470
 20
12.441580
 30
0.0
 10
312.198010
 20
12.518380
 30
0.0
 10
312.625290
 20
12.518380
 30
0.0
 10
313.044790
 20
12.441580
 30
0.0
 10
313.435540
 20
12.291270
 30
0.0
 10
313.781960
 20
12.074360
 30
0.0
 10
314.068540
 20
11.799950
 30
0.0
 10
314.282320
 20
11.480050
 30
0.0
 10
314.414940
 20
11.128840
 30
0.0
 10
314.459340
 20
10.761550
 30
0.0
 10
314.414940
 20
10.394260
 30
0.0
 10
314.282320
 20
10.043060
 30
0.0
 10
314.068540
 20
9.723150
 30
0.0
 10
313.781960
 20
9.448740
 30
0.0
 10
313.435540
 20
9.231470
 30
0.0
 10
313.044790
 20
9.081520
 30
0.0
 10
312.625290
 20
9.004720
 30
0.0
  0
LWPOLYLINE
  5
110
100
AcDbEntity
  8
Layer_1
 62
7
100
AcDbPolyline
 90
30
 70
1
 10
157.227640
 20
9.004720
 30
0.0
 10
156.808100
 20
9.081520
 30
0.0
 10
156.417340
 20
9.231470
 30
0.0
 10
156.070930
 20
9.448740
 30
0.0
 10
155.784350
 20
9.723150
 30
0.0
 10
155.570560
 20
10.043060
 30
0.0
 10
155.437520
 20
10.394260
 30
0.0
 10
155.393120
 20
10.761550
 30
0.0
 10
155.437520
 20
11.128840
 30
0.0
 10
155.570560
 20
11.480050
 30
0.0
 10
155.784350
 20
11.799950
 30
0.0
 10
156.070930
 20
12.074360
 30
0.0
 10
156.417340
 20
12.291270
 30
0.0
 10
156.808100
 20
12.441580
 30
0.0
 10
157.227640
 20
12.518380
 30
0.0
 10
157.654910
 20
12.518380
 30
0.0
 10
158.074450
 20
12.441580
 30
0.0
 10
158.465210
 20
12.291270
 30
0.0
 10
158.811620
 20
12.074360
 30
0.0
 10
159.098200
 20
11.799950
 30
0.0
 10
159.311980
 20
11.480050
 30
0.0
 10
159.444600
 20
11.128840
 30
0.0
 10
159.489000
 20
10.761550
 30
0.0
 10
159.444600
 20
10.394260
 30
0.0
 10
159.311980
 20
10.043060
 30
0.0
 10
159.098200
 20
9.723150
 30
0.0
 10
158.811620
 20
9.448740
 30
0.0
 10
158.465210
 20
9.231470
 30
0.0
 10
158.074450
 20
9.081520
 30
0.0
 10
157.654910
 20
9.004720
 30
0.0
  0
LWPOLYLINE
  5
111
100
AcDbEntity
  8
Layer_1
 62
7
100
AcDbPolyline
 90
30
 70
1
 10
256.851440
 20
9.004720
 30
0.0
 10
256.431900
 20
9.081520
 30
0.0
 10
256.041140
 20
9.231470
 30
0.0
 10
255.694740
 20
9.448740
 30
0.0
 10
255.408160
 20
9.723150
 30
0.0
 10
255.194370
 20
10.043060
 30
0.0
 10
255.061330
 20
10.394260
 30
0.0
 10
255.016930
 20
10.761550
 30
0.0
 10
255.061330
 20
11.128840
 30
0.0
 10
255.194370
 20
11.480050
 30
0.0
 10
255.408160
 20
11.799950
 30
0.0
 10
255.694740
 20
12.074360
 30
0.0
 10
256.041140
 20
12.291270
 30
0.0
 10
256.431900
 20
12.441580
 30
0.0
 10
256.851440
 20
12.518380
 30
0.0
 10
257.278720
 20
12.518380
 30
0.0
 10
257.698250
 20
12.441580
 30
0.0
 10
258.089010
 20
12.291270
 30
0.0
 10
258.435420
 20
12.074360
 30
0.0
 10
258.722000
 20
11.799950
 30
0.0
 10
258.935790
 20
11.480050
 30
0.0
 10
259.068420
 20
11.128840
 30
0.0
 10
259.112820
 20
10.761550
 30
0.0
 10
259.068420
 20
10.394260
 30
0.0
 10
258.935790
 20
10.043060
 30
0.0
 10
258.722000
 20
9.723150
 30
0.0
 10
258.435420
 20
9.448740
 30
0.0
 10
258.089010
 20
9.231470
 30
0.0
 10
257.698250
 20
9.081520
 30
0.0
 10
257.278720
 20
9.004720
 30
0.0
  0
LWPOLYLINE
  5
112
100
AcDbEntity
  8
Layer_1
 62
7
100
AcDbPolyline
 90
30
 70
1
 10
212.574210
 20
9.004720
 30
0.0
 10
212.154670
 20
9.081520
 30
0.0
 10
211.763910
 20
9.231470
 30
0.0
 10
211.417500
 20
9.448740
 30
0.0
 10
211.130920
 20
9.723150
 30
0.0
 10
210.917140
 20
10.043060
 30
0.0
 10
210.784520
 20
10.394260
 30
0.0
 10
210.740120
 20
10.761550
 30
0.0
 10
210.784520
 20
11.128840
 30
0.0
 10
210.917140
 20
11.480050
 30
0.0
 10
211.130920
 20
11.799950
 30
0.0
 10
211.417500
 20
12.074360
 30
0.0
 10
211.763910
 20
12.291270
 30
0.0
 10
212.154670
 20
12.441580
 30
0.0
 10
212.574210
 20
12.518380
 30
0.0
 10
213.001480
 20
12.518380
 30
0.0
 10
213.420980
 20
12.441580
 30
0.0
 10
213.811740
 20
12.291270
 30
0.0
 10
214.158140
 20
12.074360
 30
0.0
 10
214.444730
 20
11.799950
 30
0.0
 10
214.658520
 20
11.480050
 30
0.0
 10
214.791140
 20
11.128840
 30
0.0
 10
214.835540
 20
10.761550
 30
0.0
 10
214.791140
 20
10.394260
 30
0.0
 10
214.658520
 20
10.043060
 30
0.0
 10
214.444730
 20
9.723150
 30
0.0
 10
214.158140
 20
9.448740
 30
0.0
 10
213.811740
 20
9.231470
 30
0.0
 10
213.420980
 20
9.081520
 30
0.0
 10
213.001480
 20
9.004720
 30
0.0
  0
LWPOLYLINE
  5
113
100
AcDbEntity
  8
Layer_1
 62
7
100
AcDbPolyline
 90
30
 70
1
 10
101.880640
 20
9.004720
 30
0.0
 10
101.461900
 20
9.081520
 30
0.0
 10
101.070730
 20
9.231470
 30
0.0
 10
100.724310
 20
9.448740
 30
0.0
 10
100.437730
 20
9.723150
 30
0.0
 10
100.223530
 20
10.043060
 30
0.0
 10
100.091330
 20
10.394260
 30
0.0
 10
100.046530
 20
10.761550
 30
0.0
 10
100.091330
 20
11.128840
 30
0.0
 10
100.223530
 20
11.480050
 30
0.0
 10
100.437730
 20
11.799950
 30
0.0
 10
100.724310
 20
12.074360
 30
0.0
 10
101.070730
 20
12.291270
 30
0.0
 10
101.461900
 20
12.441580
 30
0.0
 10
101.880640
 20
12.518380
 30
0.0
 10
102.308800
 20
12.518380
 30
0.0
 10
102.727550
 20
12.441580
 30
0.0
 10
103.118710
 20
12.291270
 30
0.0
 10
103.465130
 20
12.074360
 30
0.0
 10
103.751710
 20
11.799950
 30
0.0
 10
103.965500
 20
11.480050
 30
0.0
 10
104.098120
 20
11.128840
 30
0.0
 10
104.142920
 20
10.761550
 30
0.0
 10
104.098120
 20
10.394260
 30
0.0
 10
103.965500
 20
10.043060
 30
0.0
 10
103.751710
 20
9.723150
 30
0.0
 10
103.465130
 20
9.448740
 30
0.0
 10
103.118710
 20
9.231470
 30
0.0
 10
102.727550
 20
9.081520
 30
0.0
 10
102.308800
 20
9.004720
 30
0.0
  0
ENDSEC
  0
SECTION
  2
OBJECTS
  0
DICTIONARY
  5
C
330
0
100
AcDbDictionary
  3
ACAD_GROUP
350
D
  3
ACAD_MLINESTYLE
350
17
  0
DICTIONARY
  5
D
330
C
100
AcDbDictionary
  0
DICTIONARY
  5
1A
330
C
100
AcDbDictionary
  0
DICTIONARY
  5
17
330
C
100
AcDbDictionary
  3
STANDARD
350
18
  0
DICTIONARY
  5
19
330
C
100
AcDbDictionary
  0
ENDSEC
  0
EOF
