  0
SECTION
  2
HEADER
  9
$ACADVER
  1
AC1014
  9
$HANDSEED
  5
FFFF
  9
$MEASUREMENT
 70
     1
  0
ENDSEC
  0
SECTION
  2
TABLES
  0
TABLE
  2
VPORT
  5
8
330
0
100
AcDbSymbolTable
 70
     4
  0
VPORT
  5
2E
330
8
100
AcDbSymbolTableRecord
100
AcDbViewportTableRecord
  2
*ACTIVE
 70
     0
 10
0.0
 20
0.0
 11
1.0
 21
1.0
 12
210.0
 22
148.5
 13
0.0
 23
0.0
 14
10.0
 24
10.0
 15
10.0
 25
10.0
 16
0.0
 26
0.0
 36
1.0
 17
0.0
 27
0.0
 37
0.0
 40
341.0
 41
1.24
 42
50.0
 43
0.0
 44
0.0
 50
0.0
 51
0.0
 71
     0
 72
   100
 73
     1
 74
     3
 75
     0
 76
     0
 77
     0
 78
     0
  0
ENDTAB
  0
TABLE
  2
LTYPE
  5
5
330
0
100
AcDbSymbolTable
 70
     1
  0
LTYPE
  5
14
330
5
100
AcDbSymbolTableRecord
100
AcDbLinetypeTableRecord
  2
BYBLOCK
 70
     0
  3

 72
    65
 73
     0
 40
0.0
  0
LTYPE
  5
15
330
5
100
AcDbSymbolTableRecord
100
AcDbLinetypeTableRecord
  2
BYLAYER
 70
     0
  3

 72
    65
 73
     0
 40
0.0
  0
LTYPE
  5
16
330
5
100
AcDbSymbolTableRecord
100
AcDbLinetypeTableRecord
  2
CONTINUOUS
 70
     0
  3
Solid line
 72
    65
 73
     0
 40
0.0
  0
ENDTAB
  0
TABLE
  2
LAYER
  5
2
100
AcDbSymbolTable
 70
2
  0
LAYER
  5
50
100
AcDbSymbolTableRecord
100
AcDbLayerTableRecord
  2
0
 70
0
  6
CONTINUOUS
  0
LAYER
  5
51
100
AcDbSymbolTableRecord
100
AcDbLayerTableRecord
  2
Layer_1
 70
0
  6
CONTINUOUS
  0
ENDTAB
  0
TABLE
  2
STYLE
  5
3
330
0
100
AcDbSymbolTable
 70
     1
  0
STYLE
  5
11
330
3
100
AcDbSymbolTableRecord
100
AcDbTextStyleTableRecord
  2
STANDARD
 70
     0
 40
0.0
 41
1.0
 50
0.0
 71
     0
 42
2.5
  3
txt
  4

  0
ENDTAB
  0
TABLE
  2
VIEW
  5
6
330
0
100
AcDbSymbolTable
 70
     0
  0
ENDTAB
  0
TABLE
  2
UCS
  5
7
330
0
100
AcDbSymbolTable
 70
     0
  0
ENDTAB
  0
TABLE
  2
APPID
  5
9
330
0
100
AcDbSymbolTable
 70
     2
  0
APPID
  5
12
330
9
100
AcDbSymbolTableRecord
100
AcDbRegAppTableRecord
  2
ACAD
 70
     0
  0
ENDTAB
  0
TABLE
  2
DIMSTYLE
  5
A
330
0
100
AcDbSymbolTable
 70
     1
  0
DIMSTYLE
105
27
330
A
100
AcDbSymbolTableRecord
100
AcDbDimStyleTableRecord
  2
ISO-25
 70
     0
  3

  4

  5

  6

  7

 40
1.0
 41
2.5
 42
0.625
 43
3.75
 44
1.25
 45
0.0
 46
0.0
 47
0.0
 48
0.0
140
2.5
141
2.5
142
0.0
143
0.03937007874016
144
1.0
145
0.0
146
1.0
147
0.625
 71
     0
 72
     0
 73
     0
 74
     0
 75
     0
 76
     0
 77
     1
 78
     8
170
     0
171
     3
172
     1
173
     0
174
     0
175
     0
176
     0
177
     0
178
     0
270
     2
271
     2
272
     2
273
     2
274
     3
340
11
275
     0
280
     0
281
     0
282
     0
283
     0
284
     8
285
     0
286
     0
287
     3
288
     0
  0
ENDTAB
  0
TABLE
  2
BLOCK_RECORD
  5
1
330
0
100
AcDbSymbolTable
 70
     1
  0
BLOCK_RECORD
  5
1F
330
1
100
AcDbSymbolTableRecord
100
AcDbBlockTableRecord
  2
*MODEL_SPACE
  0
BLOCK_RECORD
  5
1B
330
1
100
AcDbSymbolTableRecord
100
AcDbBlockTableRecord
  2
*PAPER_SPACE
  0
ENDTAB
  0
ENDSEC
  0
SECTION
  2
BLOCKS
  0
BLOCK
  5
20
330
1F
100
AcDbEntity
  8
0
100
AcDbBlockBegin
  2
*MODEL_SPACE
 70
     0
 10
0.0
 20
0.0
 30
0.0
  3
*MODEL_SPACE
  1

  0
ENDBLK
  5
21
330
1F
100
AcDbEntity
  8
0
100
AcDbBlockEnd
  0
BLOCK
  5
1C
330
1B
100
AcDbEntity
 67
     1
  8
0
100
AcDbBlockBegin
  2
*PAPER_SPACE
  1

  0
ENDBLK
  5
1D
330
1B
100
AcDbEntity
 67
     1
  8
0
100
AcDbBlockEnd
  0
ENDSEC
  0
SECTION
  2
ENTITIES
  0
LWPOLYLINE
  5
100
100
AcDbEntity
  8
Layer_1
 62
7
100
AcDbPolyline
 90
4
 70
1
 10
149.750850
 20
142.750850
 30
0.0
 10
0.249149
 20
142.750850
 30
0.0
 10
0.249149
 20
0.249150
 30
0.0
 10
149.750850
 20
0.249150
 30
0.0
  0
LWPOLYLINE
  5
101
100
AcDbEntity
  8
Layer_1
 62
7
100
AcDbPolyline
 90
30
 70
1
 10
144.574730
 20
135.037820
 30
0.0
 10
144.197650
 20
135.118320
 30
0.0
 10
143.845440
 20
135.274770
 30
0.0
 10
143.533540
 20
135.501110
 30
0.0
 10
143.275500
 20
135.788300
 30
0.0
 10
143.083020
 20
136.121970
 30
0.0
 10
142.963980
 20
136.487750
 30
0.0
 10
142.923680
 20
136.871450
 30
0.0
 10
142.963980
 20
137.255100
 30
0.0
 10
143.083020
 20
137.620890
 30
0.0
 10
143.275500
 20
137.954550
 30
0.0
 10
143.533540
 20
138.241740
 30
0.0
 10
143.845440
 20
138.468090
 30
0.0
 10
144.197650
 20
138.624530
 30
0.0
 10
144.574730
 20
138.705030
 30
0.0
 10
144.960240
 20
138.705030
 30
0.0
 10
145.337280
 20
138.624530
 30
0.0
 10
145.689490
 20
138.468090
 30
0.0
 10
146.001400
 20
138.241740
 30
0.0
 10
146.259440
 20
137.954550
 30
0.0
 10
146.452310
 20
137.620890
 30
0.0
 10
146.571350
 20
137.255100
 30
0.0
 10
146.611650
 20
136.871450
 30
0.0
 10
146.571350
 20
136.487750
 30
0.0
 10
146.452310
 20
136.121970
 30
0.0
 10
146.259440
 20
135.788300
 30
0.0
 10
146.001400
 20
135.501110
 30
0.0
 10
145.689490
 20
135.274770
 30
0.0
 10
145.337280
 20
135.118320
 30
0.0
 10
144.960240
 20
135.037820
 30
0.0
  0
LWPOLYLINE
  5
102
100
AcDbEntity
  8
Layer_1
 62
7
100
AcDbPolyline
 90
30
 70
1
 10
5.040173
 20
135.037820
 30
0.0
 10
4.662459
 20
135.118320
 30
0.0
 10
4.310624
 20
135.274770
 30
0.0
 10
3.998718
 20
135.501110
 30
0.0
 10
3.740680
 20
135.788300
 30
0.0
 10
3.548188
 20
136.121970
 30
0.0
 10
3.428398
 20
136.487750
 30
0.0
 10
3.388468
 20
136.871450
 30
0.0
 10
3.428398
 20
137.255100
 30
0.0
 10
3.548188
 20
137.620890
 30
0.0
 10
3.740680
 20
137.954550
 30
0.0
 10
3.998718
 20
138.241740
 30
0.0
 10
4.310624
 20
138.468090
 30
0.0
 10
4.662459
 20
138.624530
 30
0.0
 10
5.040173
 20
138.705030
 30
0.0
 10
5.424894
 20
138.705030
 30
0.0
 10
5.802646
 20
138.624530
 30
0.0
 10
6.154481
 20
138.468090
 30
0.0
 10
6.466386
 20
138.241740
 30
0.0
 10
6.724423
 20
137.954550
 30
0.0
 10
6.916916
 20
137.620890
 30
0.0
 10
7.036329
 20
137.255100
 30
0.0
 10
7.076249
 20
136.871450
 30
0.0
 10
7.036329
 20
136.487750
 30
0.0
 10
6.916916
 20
136.121970
 30
0.0
 10
6.724423
 20
135.788300
 30
0.0
 10
6.466386
 20
135.501110
 30
0.0
 10
6.154481
 20
135.274770
 30
0.0
 10
5.802646
 20
135.118320
 30
0.0
 10
5.424894
 20
135.037820
 30
0.0
  0
LWPOLYLINE
  5
103
100
AcDbEntity
  8
Layer_1
 62
7
100
AcDbPolyline
 90
30
 70
1
 10
84.774048
 20
135.037820
 30
0.0
 10
84.396968
 20
135.118320
 30
0.0
 10
84.044758
 20
135.274770
 30
0.0
 10
83.732858
 20
135.501110
 30
0.0
 10
83.474828
 20
135.788300
 30
0.0
 10
83.281958
 20
136.121970
 30
0.0
 10
83.162918
 20
136.487750
 30
0.0
 10
83.122618
 20
136.871450
 30
0.0
 10
83.162918
 20
137.255100
 30
0.0
 10
83.281958
 20
137.620890
 30
0.0
 10
83.474828
 20
137.954550
 30
0.0
 10
83.732858
 20
138.241740
 30
0.0
 10
84.044758
 20
138.468090
 30
0.0
 10
84.396968
 20
138.624530
 30
0.0
 10
84.774048
 20
138.705030
 30
0.0
 10
85.159558
 20
138.705030
 30
0.0
 10
85.536598
 20
138.624530
 30
0.0
 10
85.888808
 20
138.468090
 30
0.0
 10
86.200718
 20
138.241740
 30
0.0
 10
86.458748
 20
137.954550
 30
0.0
 10
86.651618
 20
137.620890
 30
0.0
 10
86.770658
 20
137.255100
 30
0.0
 10
86.810958
 20
136.871450
 30
0.0
 10
86.770658
 20
136.487750
 30
0.0
 10
86.651618
 20
136.121970
 30
0.0
 10
86.458748
 20
135.788300
 30
0.0
 10
86.200718
 20
135.501110
 30
0.0
 10
85.888808
 20
135.274770
 30
0.0
 10
85.536598
 20
135.118320
 30
0.0
 10
85.159558
 20
135.037820
 30
0.0
  0
LWPOLYLINE
  5
104
100
AcDbEntity
  8
Layer_1
 62
7
100
AcDbPolyline
 90
30
 70
1
 10
84.638438
 20
22.040160
 30
0.0
 10
83.996468
 20
22.176580
 30
0.0
 10
83.396878
 20
22.443740
 30
0.0
 10
82.865848
 20
22.829510
 30
0.0
 10
82.426698
 20
23.317160
 30
0.0
 10
82.098598
 20
23.885530
 30
0.0
 10
81.895938
 20
24.509590
 30
0.0
 10
81.827338
 20
25.162220
 30
0.0
 10
81.895938
 20
25.814890
 30
0.0
 10
82.098598
 20
26.438950
 30
0.0
 10
82.426698
 20
27.007320
 30
0.0
 10
82.865848
 20
27.494970
 30
0.0
 10
83.396878
 20
27.880700
 30
0.0
 10
83.996468
 20
28.147480
 30
0.0
 10
84.638438
 20
28.283900
 30
0.0
 10
85.294828
 20
28.283900
 30
0.0
 10
85.936798
 20
28.147480
 30
0.0
 10
86.536398
 20
27.880700
 30
0.0
 10
87.067428
 20
27.494970
 30
0.0
 10
87.506578
 20
27.007320
 30
0.0
 10
87.834678
 20
26.438950
 30
0.0
 10
88.037338
 20
25.814890
 30
0.0
 10
88.105938
 20
25.162220
 30
0.0
 10
88.037338
 20
24.509590
 30
0.0
 10
87.834678
 20
23.885530
 30
0.0
 10
87.506578
 20
23.317160
 30
0.0
 10
87.067428
 20
22.829510
 30
0.0
 10
86.536398
 20
22.443740
 30
0.0
 10
85.936798
 20
22.176580
 30
0.0
 10
85.294828
 20
22.040160
 30
0.0
  0
LWPOLYLINE
  5
105
100
AcDbEntity
  8
Layer_1
 62
7
100
AcDbPolyline
 90
30
 70
1
 10
19.854657
 20
22.040160
 30
0.0
 10
19.212802
 20
22.176580
 30
0.0
 10
18.612799
 20
22.443740
 30
0.0
 10
18.081580
 20
22.829510
 30
0.0
 10
17.643029
 20
23.317160
 30
0.0
 10
17.314173
 20
23.885530
 30
0.0
 10
17.111886
 20
24.509590
 30
0.0
 10
17.042946
 20
25.162220
 30
0.0
 10
17.111886
 20
25.814890
 30
0.0
 10
17.314173
 20
26.438950
 30
0.0
 10
17.643029
 20
27.007320
 30
0.0
 10
18.081580
 20
27.494970
 30
0.0
 10
18.612799
 20
27.880700
 30
0.0
 10
19.212802
 20
28.147480
 30
0.0
 10
19.854657
 20
28.283900
 30
0.0
 10
20.510487
 20
28.283900
 30
0.0
 10
21.152341
 20
28.147480
 30
0.0
 10
21.752344
 20
27.880700
 30
0.0
 10
22.283562
 20
27.494970
 30
0.0
 10
22.722113
 20
27.007320
 30
0.0
 10
23.050970
 20
26.438950
 30
0.0
 10
23.253256
 20
25.814890
 30
0.0
 10
23.322196
 20
25.162220
 30
0.0
 10
23.253256
 20
24.509590
 30
0.0
 10
23.050970
 20
23.885530
 30
0.0
 10
22.722113
 20
23.317160
 30
0.0
 10
22.283562
 20
22.829510
 30
0.0
 10
21.752344
 20
22.443740
 30
0.0
 10
21.152341
 20
22.176580
 30
0.0
 10
20.510487
 20
22.040160
 30
0.0
  0
LWPOLYLINE
  5
106
100
AcDbEntity
  8
Layer_1
 62
7
100
AcDbPolyline
 90
30
 70
1
 10
109.555380
 20
22.040160
 30
0.0
 10
108.913410
 20
22.176580
 30
0.0
 10
108.313820
 20
22.443740
 30
0.0
 10
107.782790
 20
22.829510
 30
0.0
 10
107.343680
 20
23.317160
 30
0.0
 10
107.015570
 20
23.885530
 30
0.0
 10
106.812910
 20
24.509590
 30
0.0
 10
106.744310
 20
25.162220
 30
0.0
 10
106.812910
 20
25.814890
 30
0.0
 10
107.015570
 20
26.438950
 30
0.0
 10
107.343680
 20
27.007320
 30
0.0
 10
107.782790
 20
27.494970
 30
0.0
 10
108.313820
 20
27.880700
 30
0.0
 10
108.913410
 20
28.147480
 30
0.0
 10
109.555380
 20
28.283900
 30
0.0
 10
110.211810
 20
28.283900
 30
0.0
 10
110.853740
 20
28.147480
 30
0.0
 10
111.453360
 20
27.880700
 30
0.0
 10
111.984390
 20
27.494970
 30
0.0
 10
112.423510
 20
27.007320
 30
0.0
 10
112.751610
 20
26.438950
 30
0.0
 10
112.954280
 20
25.814890
 30
0.0
 10
113.022880
 20
25.162220
 30
0.0
 10
112.954280
 20
24.509590
 30
0.0
 10
112.751610
 20
23.885530
 30
0.0
 10
112.423510
 20
23.317160
 30
0.0
 10
111.984390
 20
22.829510
 30
0.0
 10
111.453360
 20
22.443740
 30
0.0
 10
110.853740
 20
22.176580
 30
0.0
 10
110.211810
 20
22.040160
 30
0.0
  0
LWPOLYLINE
  5
107
100
AcDbEntity
  8
Layer_1
 62
7
100
AcDbPolyline
 90
30
 70
1
 10
129.488950
 20
22.040160
 30
0.0
 10
128.846990
 20
22.176580
 30
0.0
 10
128.247400
 20
22.443740
 30
0.0
 10
127.716360
 20
22.829510
 30
0.0
 10
127.277210
 20
23.317160
 30
0.0
 10
126.949110
 20
23.885530
 30
0.0
 10
126.746440
 20
24.509590
 30
0.0
 10
126.677840
 20
25.162220
 30
0.0
 10
126.746440
 20
25.814890
 30
0.0
 10
126.949110
 20
26.438950
 30
0.0
 10
127.277210
 20
27.007320
 30
0.0
 10
127.716360
 20
27.494970
 30
0.0
 10
128.247400
 20
27.880700
 30
0.0
 10
128.846990
 20
28.147480
 30
0.0
 10
129.488950
 20
28.283900
 30
0.0
 10
130.145350
 20
28.283900
 30
0.0
 10
130.787310
 20
28.147480
 30
0.0
 10
131.386900
 20
27.880700
 30
0.0
 10
131.917930
 20
27.494970
 30
0.0
 10
132.357090
 20
27.007320
 30
0.0
 10
132.685190
 20
26.438950
 30
0.0
 10
132.887850
 20
25.814890
 30
0.0
 10
132.956450
 20
25.162220
 30
0.0
 10
132.887850
 20
24.509590
 30
0.0
 10
132.685190
 20
23.885530
 30
0.0
 10
132.357090
 20
23.317160
 30
0.0
 10
131.917930
 20
22.829510
 30
0.0
 10
131.386900
 20
22.443740
 30
0.0
 10
130.787310
 20
22.176580
 30
0.0
 10
130.145350
 20
22.040160
 30
0.0
  0
LWPOLYLINE
  5
108
100
AcDbEntity
  8
Layer_1
 62
7
100
AcDbPolyline
 90
30
 70
1
 10
64.704868
 20
28.283780
 30
0.0
 10
65.361298
 20
28.283780
 30
0.0
 10
66.003228
 20
28.147370
 30
0.0
 10
66.602858
 20
27.880210
 30
0.0
 10
67.133888
 20
27.494470
 30
0.0
 10
67.572998
 20
27.006820
 30
0.0
 10
67.901108
 20
26.438460
 30
0.0
 10
68.103768
 20
25.814400
 30
0.0
 10
68.172368
 20
25.161730
 30
0.0
 10
68.103768
 20
24.509100
 30
0.0
 10
67.901108
 20
23.885030
 30
0.0
 10
67.572998
 20
23.316670
 30
0.0
 10
67.133888
 20
22.829020
 30
0.0
 10
66.602858
 20
22.443250
 30
0.0
 10
66.003228
 20
22.176090
 30
0.0
 10
65.361298
 20
22.039670
 30
0.0
 10
64.704868
 20
22.039670
 30
0.0
 10
64.062898
 20
22.176090
 30
0.0
 10
63.463318
 20
22.443250
 30
0.0
 10
62.932278
 20
22.829020
 30
0.0
 10
62.493158
 20
23.316670
 30
0.0
 10
62.165058
 20
23.885030
 30
0.0
 10
61.962398
 20
24.509100
 30
0.0
 10
61.893498
 20
25.161730
 30
0.0
 10
61.962398
 20
25.814400
 30
0.0
 10
62.165058
 20
26.438460
 30
0.0
 10
62.493158
 20
27.006820
 30
0.0
 10
62.932278
 20
27.494470
 30
0.0
 10
63.463318
 20
27.880210
 30
0.0
 10
64.062898
 20
28.147370
 30
0.0
  0
LWPOLYLINE
  5
109
100
AcDbEntity
  8
Layer_1
 62
7
100
AcDbPolyline
 90
30
 70
1
 10
5.040022
 20
3.497870
 30
0.0
 10
4.662308
 20
3.577970
 30
0.0
 10
4.310473
 20
3.734780
 30
0.0
 10
3.998567
 20
3.961510
 30
0.0
 10
3.740529
 20
4.247560
 30
0.0
 10
3.548038
 20
4.581230
 30
0.0
 10
3.428247
 20
4.947770
 30
0.0
 10
3.388327
 20
5.331050
 30
0.0
 10
3.428247
 20
5.714290
 30
0.0
 10
3.548038
 20
6.080830
 30
0.0
 10
3.740529
 20
6.414500
 30
0.0
 10
3.998567
 20
6.700550
 30
0.0
 10
4.310473
 20
6.926900
 30
0.0
 10
4.662308
 20
7.084100
 30
0.0
 10
5.040022
 20
7.164200
 30
0.0
 10
5.424743
 20
7.164200
 30
0.0
 10
5.802495
 20
7.084100
 30
0.0
 10
6.154330
 20
6.926900
 30
0.0
 10
6.466235
 20
6.700550
 30
0.0
 10
6.724273
 20
6.414500
 30
0.0
 10
6.916765
 20
6.080830
 30
0.0
 10
7.036178
 20
5.714290
 30
0.0
 10
7.076108
 20
5.331050
 30
0.0
 10
7.036178
 20
4.947770
 30
0.0
 10
6.916765
 20
4.581230
 30
0.0
 10
6.724273
 20
4.247560
 30
0.0
 10
6.466235
 20
3.961510
 30
0.0
 10
6.154330
 20
3.734780
 30
0.0
 10
5.802495
 20
3.577970
 30
0.0
 10
5.424743
 20
3.497870
 30
0.0
  0
LWPOLYLINE
  5
10a
100
AcDbEntity
  8
Layer_1
 62
7
100
AcDbPolyline
 90
30
 70
1
 10
64.840328
 20
3.497870
 30
0.0
 10
64.463288
 20
3.577970
 30
0.0
 10
64.111078
 20
3.734780
 30
0.0
 10
63.799168
 20
3.961510
 30
0.0
 10
63.541138
 20
4.247560
 30
0.0
 10
63.348268
 20
4.581230
 30
0.0
 10
63.229228
 20
4.947770
 30
0.0
 10
63.188928
 20
5.331050
 30
0.0
 10
63.229228
 20
5.714290
 30
0.0
 10
63.348268
 20
6.080830
 30
0.0
 10
63.541138
 20
6.414500
 30
0.0
 10
63.799168
 20
6.700550
 30
0.0
 10
64.111078
 20
6.926900
 30
0.0
 10
64.463288
 20
7.084100
 30
0.0
 10
64.840328
 20
7.164200
 30
0.0
 10
65.225838
 20
7.164200
 30
0.0
 10
65.602878
 20
7.084100
 30
0.0
 10
65.955088
 20
6.926900
 30
0.0
 10
66.266988
 20
6.700550
 30
0.0
 10
66.525028
 20
6.414500
 30
0.0
 10
66.717898
 20
6.080830
 30
0.0
 10
66.836938
 20
5.714290
 30
0.0
 10
66.877238
 20
5.331050
 30
0.0
 10
66.836938
 20
4.947770
 30
0.0
 10
66.717898
 20
4.581230
 30
0.0
 10
66.525028
 20
4.247560
 30
0.0
 10
66.266988
 20
3.961510
 30
0.0
 10
65.955088
 20
3.734780
 30
0.0
 10
65.602878
 20
3.577970
 30
0.0
 10
65.225838
 20
3.497870
 30
0.0
  0
LWPOLYLINE
  5
10b
100
AcDbEntity
  8
Layer_1
 62
7
100
AcDbPolyline
 90
30
 70
1
 10
144.574580
 20
3.497870
 30
0.0
 10
144.197500
 20
3.577970
 30
0.0
 10
143.845290
 20
3.734780
 30
0.0
 10
143.533390
 20
3.961510
 30
0.0
 10
143.275360
 20
4.247560
 30
0.0
 10
143.082860
 20
4.581230
 30
0.0
 10
142.963830
 20
4.947770
 30
0.0
 10
142.923530
 20
5.331050
 30
0.0
 10
142.963830
 20
5.714290
 30
0.0
 10
143.082860
 20
6.080830
 30
0.0
 10
143.275360
 20
6.414500
 30
0.0
 10
143.533390
 20
6.700550
 30
0.0
 10
143.845290
 20
6.926900
 30
0.0
 10
144.197500
 20
7.084100
 30
0.0
 10
144.574580
 20
7.164200
 30
0.0
 10
144.960090
 20
7.164200
 30
0.0
 10
145.337130
 20
7.084100
 30
0.0
 10
145.689340
 20
6.926900
 30
0.0
 10
146.001250
 20
6.700550
 30
0.0
 10
146.259280
 20
6.414500
 30
0.0
 10
146.452160
 20
6.080830
 30
0.0
 10
146.571190
 20
5.714290
 30
0.0
 10
146.611490
 20
5.331050
 30
0.0
 10
146.571190
 20
4.947770
 30
0.0
 10
146.452160
 20
4.581230
 30
0.0
 10
146.259280
 20
4.247560
 30
0.0
 10
146.001250
 20
3.961510
 30
0.0
 10
145.689340
 20
3.734780
 30
0.0
 10
145.337130
 20
3.577970
 30
0.0
 10
144.960090
 20
3.497870
 30
0.0
  0
LWPOLYLINE
  5
10c
100
AcDbEntity
  8
Layer_1
 62
7
100
AcDbPolyline
 90
30
 70
1
 10
42.655649
 20
27.007090
 30
0.0
 10
42.984505
 20
26.438760
 30
0.0
 10
43.186792
 20
25.814660
 30
0.0
 10
43.255732
 20
25.161990
 30
0.0
 10
43.186792
 20
24.509400
 30
0.0
 10
42.984505
 20
23.885300
 30
0.0
 10
42.655649
 20
23.316970
 30
0.0
 10
42.217136
 20
22.829280
 30
0.0
 10
41.685879
 20
22.443510
 30
0.0
 10
41.085914
 20
22.176350
 30
0.0
 10
40.444022
 20
22.039940
 30
0.0
 10
39.788229
 20
22.039940
 30
0.0
 10
39.146375
 20
22.176350
 30
0.0
 10
38.546371
 20
22.443510
 30
0.0
 10
38.015116
 20
22.829280
 30
0.0
 10
37.576603
 20
23.316970
 30
0.0
 10
37.247745
 20
23.885300
 30
0.0
 10
37.045460
 20
24.509400
 30
0.0
 10
36.976520
 20
25.161990
 30
0.0
 10
37.045460
 20
25.814660
 30
0.0
 10
37.247745
 20
26.438760
 30
0.0
 10
37.576603
 20
27.007090
 30
0.0
 10
38.015116
 20
27.494780
 30
0.0
 10
38.546371
 20
27.880510
 30
0.0
 10
39.146375
 20
28.147670
 30
0.0
 10
39.788229
 20
28.284090
 30
0.0
 10
40.444022
 20
28.284090
 30
0.0
 10
41.085914
 20
28.147670
 30
0.0
 10
41.685879
 20
27.880510
 30
0.0
 10
42.217136
 20
27.494780
 30
0.0
  0
ENDSEC
  0
SECTION
  2
OBJECTS
  0
DICTIONARY
  5
C
330
0
100
AcDbDictionary
  3
ACAD_GROUP
350
D
  3
ACAD_MLINESTYLE
350
17
  0
DICTIONARY
  5
D
330
C
100
AcDbDictionary
  0
DICTIONARY
  5
1A
330
C
100
AcDbDictionary
  0
DICTIONARY
  5
17
330
C
100
AcDbDictionary
  3
STANDARD
350
18
  0
DICTIONARY
  5
19
330
C
100
AcDbDictionary
  0
ENDSEC
  0
EOF
