  0
SECTION
  2
HEADER
  9
$ACADVER
  1
AC1014
  9
$HANDSEED
  5
FFFF
  9
$MEASUREMENT
 70
     1
  0
ENDSEC
  0
SECTION
  2
TABLES
  0
TABLE
  2
VPORT
  5
8
330
0
100
AcDbSymbolTable
 70
     4
  0
VPORT
  5
2E
330
8
100
AcDbSymbolTableRecord
100
AcDbViewportTableRecord
  2
*ACTIVE
 70
     0
 10
0.0
 20
0.0
 11
1.0
 21
1.0
 12
210.0
 22
148.5
 13
0.0
 23
0.0
 14
10.0
 24
10.0
 15
10.0
 25
10.0
 16
0.0
 26
0.0
 36
1.0
 17
0.0
 27
0.0
 37
0.0
 40
341.0
 41
1.24
 42
50.0
 43
0.0
 44
0.0
 50
0.0
 51
0.0
 71
     0
 72
   100
 73
     1
 74
     3
 75
     0
 76
     0
 77
     0
 78
     0
  0
ENDTAB
  0
TABLE
  2
LTYPE
  5
5
330
0
100
AcDbSymbolTable
 70
     1
  0
LTYPE
  5
14
330
5
100
AcDbSymbolTableRecord
100
AcDbLinetypeTableRecord
  2
BYBLOCK
 70
     0
  3

 72
    65
 73
     0
 40
0.0
  0
LTYPE
  5
15
330
5
100
AcDbSymbolTableRecord
100
AcDbLinetypeTableRecord
  2
BYLAYER
 70
     0
  3

 72
    65
 73
     0
 40
0.0
  0
LTYPE
  5
16
330
5
100
AcDbSymbolTableRecord
100
AcDbLinetypeTableRecord
  2
CONTINUOUS
 70
     0
  3
Solid line
 72
    65
 73
     0
 40
0.0
  0
ENDTAB
  0
TABLE
  2
LAYER
  5
2
100
AcDbSymbolTable
 70
1
  0
LAYER
  5
50
100
AcDbSymbolTableRecord
100
AcDbLayerTableRecord
  2
0
 70
0
  6
CONTINUOUS
  0
ENDTAB
  0
TABLE
  2
STYLE
  5
3
330
0
100
AcDbSymbolTable
 70
     1
  0
STYLE
  5
11
330
3
100
AcDbSymbolTableRecord
100
AcDbTextStyleTableRecord
  2
STANDARD
 70
     0
 40
0.0
 41
1.0
 50
0.0
 71
     0
 42
2.5
  3
txt
  4

  0
ENDTAB
  0
TABLE
  2
VIEW
  5
6
330
0
100
AcDbSymbolTable
 70
     0
  0
ENDTAB
  0
TABLE
  2
UCS
  5
7
330
0
100
AcDbSymbolTable
 70
     0
  0
ENDTAB
  0
TABLE
  2
APPID
  5
9
330
0
100
AcDbSymbolTable
 70
     2
  0
APPID
  5
12
330
9
100
AcDbSymbolTableRecord
100
AcDbRegAppTableRecord
  2
ACAD
 70
     0
  0
ENDTAB
  0
TABLE
  2
DIMSTYLE
  5
A
330
0
100
AcDbSymbolTable
 70
     1
  0
DIMSTYLE
105
27
330
A
100
AcDbSymbolTableRecord
100
AcDbDimStyleTableRecord
  2
ISO-25
 70
     0
  3

  4

  5

  6

  7

 40
1.0
 41
2.5
 42
0.625
 43
3.75
 44
1.25
 45
0.0
 46
0.0
 47
0.0
 48
0.0
140
2.5
141
2.5
142
0.0
143
0.03937007874016
144
1.0
145
0.0
146
1.0
147
0.625
 71
     0
 72
     0
 73
     0
 74
     0
 75
     0
 76
     0
 77
     1
 78
     8
170
     0
171
     3
172
     1
173
     0
174
     0
175
     0
176
     0
177
     0
178
     0
270
     2
271
     2
272
     2
273
     2
274
     3
340
11
275
     0
280
     0
281
     0
282
     0
283
     0
284
     8
285
     0
286
     0
287
     3
288
     0
  0
ENDTAB
  0
TABLE
  2
BLOCK_RECORD
  5
1
330
0
100
AcDbSymbolTable
 70
     1
  0
BLOCK_RECORD
  5
1F
330
1
100
AcDbSymbolTableRecord
100
AcDbBlockTableRecord
  2
*MODEL_SPACE
  0
BLOCK_RECORD
  5
1B
330
1
100
AcDbSymbolTableRecord
100
AcDbBlockTableRecord
  2
*PAPER_SPACE
  0
ENDTAB
  0
ENDSEC
  0
SECTION
  2
BLOCKS
  0
BLOCK
  5
20
330
1F
100
AcDbEntity
  8
0
100
AcDbBlockBegin
  2
*MODEL_SPACE
 70
     0
 10
0.0
 20
0.0
 30
0.0
  3
*MODEL_SPACE
  1

  0
ENDBLK
  5
21
330
1F
100
AcDbEntity
  8
0
100
AcDbBlockEnd
  0
BLOCK
  5
1C
330
1B
100
AcDbEntity
 67
     1
  8
0
100
AcDbBlockBegin
  2
*PAPER_SPACE
  1

  0
ENDBLK
  5
1D
330
1B
100
AcDbEntity
 67
     1
  8
0
100
AcDbBlockEnd
  0
ENDSEC
  0
SECTION
  2
ENTITIES
  0
LWPOLYLINE
  5
100
100
AcDbEntity
  8
0
 62
7
100
AcDbPolyline
 90
4
 70
1
 10
145.221944
 20
87.046943
 30
0.0
 10
-0.280277
 20
87.046943
 30
0.0
 10
-0.280277
 20
-3.455276
 30
0.0
 10
145.221944
 20
-3.455276
 30
0.0
  0
LWPOLYLINE
  5
101
100
AcDbEntity
  8
0
 62
7
100
AcDbPolyline
 90
30
 70
1
 10
11.195812
 20
75.301943
 30
0.0
 10
10.829256
 20
75.420889
 30
0.0
 10
10.495448
 20
75.613130
 30
0.0
 10
10.209018
 20
75.870517
 30
0.0
 10
9.982463
 20
76.181704
 30
0.0
 10
9.825680
 20
76.533071
 30
0.0
 10
9.745553
 20
76.909303
 30
0.0
 10
9.745553
 20
77.293986
 30
0.0
 10
9.825680
 20
77.670218
 30
0.0
 10
9.982463
 20
78.021585
 30
0.0
 10
10.209018
 20
78.332772
 30
0.0
 10
10.495448
 20
78.590159
 30
0.0
 10
10.829256
 20
78.782500
 30
0.0
 10
11.195812
 20
78.901346
 30
0.0
 10
11.579141
 20
78.941525
 30
0.0
 10
11.962439
 20
78.901346
 30
0.0
 10
12.329085
 20
78.782500
 30
0.0
 10
12.662843
 20
78.590159
 30
0.0
 10
12.949264
 20
78.332772
 30
0.0
 10
13.175788
 20
78.021585
 30
0.0
 10
13.332652
 20
77.670218
 30
0.0
 10
13.412776
 20
77.293986
 30
0.0
 10
13.412776
 20
76.909303
 30
0.0
 10
13.332652
 20
76.533071
 30
0.0
 10
13.175788
 20
76.181704
 30
0.0
 10
12.949264
 20
75.870517
 30
0.0
 10
12.662843
 20
75.613130
 30
0.0
 10
12.329085
 20
75.420889
 30
0.0
 10
11.962439
 20
75.301943
 30
0.0
 10
11.579141
 20
75.261766
 30
0.0
  0
LWPOLYLINE
  5
102
100
AcDbEntity
  8
0
 62
7
100
AcDbPolyline
 90
30
 70
1
 10
132.978824
 20
75.003583
 30
0.0
 10
132.613077
 20
75.122431
 30
0.0
 10
132.279223
 20
75.314773
 30
0.0
 10
131.992198
 20
75.572157
 30
0.0
 10
131.765974
 20
75.883344
 30
0.0
 10
131.609515
 20
76.234713
 30
0.0
 10
131.528831
 20
76.610943
 30
0.0
 10
131.528831
 20
76.995629
 30
0.0
 10
131.609515
 20
77.371858
 30
0.0
 10
131.765974
 20
77.723227
 30
0.0
 10
131.992198
 20
78.034414
 30
0.0
 10
132.279223
 20
78.291798
 30
0.0
 10
132.613077
 20
78.484143
 30
0.0
 10
132.978824
 20
78.602988
 30
0.0
 10
133.362520
 20
78.643165
 30
0.0
 10
133.746203
 20
78.602988
 30
0.0
 10
134.111952
 20
78.484143
 30
0.0
 10
134.445806
 20
78.291798
 30
0.0
 10
134.732829
 20
78.034414
 30
0.0
 10
134.959056
 20
77.723227
 30
0.0
 10
135.115514
 20
77.371858
 30
0.0
 10
135.196199
 20
76.995629
 30
0.0
 10
135.196199
 20
76.610943
 30
0.0
 10
135.115514
 20
76.234713
 30
0.0
 10
134.959056
 20
75.883344
 30
0.0
 10
134.732829
 20
75.572157
 30
0.0
 10
134.445806
 20
75.314773
 30
0.0
 10
134.111952
 20
75.122431
 30
0.0
 10
133.746203
 20
75.003583
 30
0.0
 10
133.362520
 20
74.963404
 30
0.0
  0
LWPOLYLINE
  5
103
100
AcDbEntity
  8
0
 62
7
100
AcDbPolyline
 90
30
 70
1
 10
11.195812
 20
4.690320
 30
0.0
 10
10.829256
 20
4.809266
 30
0.0
 10
10.495448
 20
5.001508
 30
0.0
 10
10.209018
 20
5.258893
 30
0.0
 10
9.982463
 20
5.570081
 30
0.0
 10
9.825680
 20
5.921448
 30
0.0
 10
9.745554
 20
6.297679
 30
0.0
 10
9.745554
 20
6.682363
 30
0.0
 10
9.825680
 20
7.058594
 30
0.0
 10
9.982464
 20
7.409961
 30
0.0
 10
10.209019
 20
7.721150
 30
0.0
 10
10.495449
 20
7.978534
 30
0.0
 10
10.829257
 20
8.170876
 30
0.0
 10
11.195813
 20
8.289722
 30
0.0
 10
11.579141
 20
8.329901
 30
0.0
 10
11.962439
 20
8.289722
 30
0.0
 10
12.329085
 20
8.170876
 30
0.0
 10
12.662843
 20
7.978534
 30
0.0
 10
12.949264
 20
7.721150
 30
0.0
 10
13.175788
 20
7.409961
 30
0.0
 10
13.332652
 20
7.058594
 30
0.0
 10
13.412776
 20
6.682363
 30
0.0
 10
13.412776
 20
6.297679
 30
0.0
 10
13.332652
 20
5.921448
 30
0.0
 10
13.175788
 20
5.570081
 30
0.0
 10
12.949264
 20
5.258893
 30
0.0
 10
12.662843
 20
5.001508
 30
0.0
 10
12.329085
 20
4.809266
 30
0.0
 10
11.962439
 20
4.690320
 30
0.0
 10
11.579141
 20
4.650141
 30
0.0
  0
LWPOLYLINE
  5
104
100
AcDbEntity
  8
0
 62
7
100
AcDbPolyline
 90
30
 70
1
 10
132.978824
 20
4.292508
 30
0.0
 10
132.613077
 20
4.411354
 30
0.0
 10
132.279223
 20
4.603696
 30
0.0
 10
131.992198
 20
4.861081
 30
0.0
 10
131.765974
 20
5.172269
 30
0.0
 10
131.609515
 20
5.523636
 30
0.0
 10
131.528831
 20
5.899867
 30
0.0
 10
131.528831
 20
6.284551
 30
0.0
 10
131.609515
 20
6.660782
 30
0.0
 10
131.765974
 20
7.012149
 30
0.0
 10
131.992198
 20
7.323338
 30
0.0
 10
132.279223
 20
7.580722
 30
0.0
 10
132.613077
 20
7.773064
 30
0.0
 10
132.978824
 20
7.891910
 30
0.0
 10
133.362520
 20
7.932090
 30
0.0
 10
133.746203
 20
7.891910
 30
0.0
 10
134.111952
 20
7.773064
 30
0.0
 10
134.445806
 20
7.580722
 30
0.0
 10
134.732829
 20
7.323338
 30
0.0
 10
134.959056
 20
7.012149
 30
0.0
 10
135.115514
 20
6.660782
 30
0.0
 10
135.196199
 20
6.284551
 30
0.0
 10
135.196199
 20
5.899867
 30
0.0
 10
135.115514
 20
5.523636
 30
0.0
 10
134.959056
 20
5.172269
 30
0.0
 10
134.732829
 20
4.861081
 30
0.0
 10
134.445806
 20
4.603696
 30
0.0
 10
134.111952
 20
4.411354
 30
0.0
 10
133.746203
 20
4.292508
 30
0.0
 10
133.362520
 20
4.252329
 30
0.0
  0
ENDSEC
  0
SECTION
  2
OBJECTS
  0
DICTIONARY
  5
C
330
0
100
AcDbDictionary
  3
ACAD_GROUP
350
D
  3
ACAD_MLINESTYLE
350
17
  0
DICTIONARY
  5
D
330
C
100
AcDbDictionary
  0
DICTIONARY
  5
1A
330
C
100
AcDbDictionary
  0
DICTIONARY
  5
17
330
C
100
AcDbDictionary
  3
STANDARD
350
18
  0
DICTIONARY
  5
19
330
C
100
AcDbDictionary
  0
ENDSEC
  0
EOF
