  0
SECTION
  2
HEADER
  9
$ACADVER
  1
AC1014
  9
$HANDSEED
  5
FFFF
  9
$MEASUREMENT
 70
     1
  0
ENDSEC
  0
SECTION
  2
TABLES
  0
TABLE
  2
VPORT
  5
8
330
0
100
AcDbSymbolTable
 70
     4
  0
VPORT
  5
2E
330
8
100
AcDbSymbolTableRecord
100
AcDbViewportTableRecord
  2
*ACTIVE
 70
     0
 10
0.0
 20
0.0
 11
1.0
 21
1.0
 12
210.0
 22
148.5
 13
0.0
 23
0.0
 14
10.0
 24
10.0
 15
10.0
 25
10.0
 16
0.0
 26
0.0
 36
1.0
 17
0.0
 27
0.0
 37
0.0
 40
341.0
 41
1.24
 42
50.0
 43
0.0
 44
0.0
 50
0.0
 51
0.0
 71
     0
 72
   100
 73
     1
 74
     3
 75
     0
 76
     0
 77
     0
 78
     0
  0
ENDTAB
  0
TABLE
  2
LTYPE
  5
5
330
0
100
AcDbSymbolTable
 70
     1
  0
LTYPE
  5
14
330
5
100
AcDbSymbolTableRecord
100
AcDbLinetypeTableRecord
  2
BYBLOCK
 70
     0
  3

 72
    65
 73
     0
 40
0.0
  0
LTYPE
  5
15
330
5
100
AcDbSymbolTableRecord
100
AcDbLinetypeTableRecord
  2
BYLAYER
 70
     0
  3

 72
    65
 73
     0
 40
0.0
  0
LTYPE
  5
16
330
5
100
AcDbSymbolTableRecord
100
AcDbLinetypeTableRecord
  2
CONTINUOUS
 70
     0
  3
Solid line
 72
    65
 73
     0
 40
0.0
  0
ENDTAB
  0
TABLE
  2
LAYER
  5
2
100
AcDbSymbolTable
 70
2
  0
LAYER
  5
50
100
AcDbSymbolTableRecord
100
AcDbLayerTableRecord
  2
0
 70
0
  6
CONTINUOUS
  0
LAYER
  5
51
100
AcDbSymbolTableRecord
100
AcDbLayerTableRecord
  2
Layer_1
 70
0
  6
CONTINUOUS
  0
ENDTAB
  0
TABLE
  2
STYLE
  5
3
330
0
100
AcDbSymbolTable
 70
     1
  0
STYLE
  5
11
330
3
100
AcDbSymbolTableRecord
100
AcDbTextStyleTableRecord
  2
STANDARD
 70
     0
 40
0.0
 41
1.0
 50
0.0
 71
     0
 42
2.5
  3
txt
  4

  0
ENDTAB
  0
TABLE
  2
VIEW
  5
6
330
0
100
AcDbSymbolTable
 70
     0
  0
ENDTAB
  0
TABLE
  2
UCS
  5
7
330
0
100
AcDbSymbolTable
 70
     0
  0
ENDTAB
  0
TABLE
  2
APPID
  5
9
330
0
100
AcDbSymbolTable
 70
     2
  0
APPID
  5
12
330
9
100
AcDbSymbolTableRecord
100
AcDbRegAppTableRecord
  2
ACAD
 70
     0
  0
ENDTAB
  0
TABLE
  2
DIMSTYLE
  5
A
330
0
100
AcDbSymbolTable
 70
     1
  0
DIMSTYLE
105
27
330
A
100
AcDbSymbolTableRecord
100
AcDbDimStyleTableRecord
  2
ISO-25
 70
     0
  3

  4

  5

  6

  7

 40
1.0
 41
2.5
 42
0.625
 43
3.75
 44
1.25
 45
0.0
 46
0.0
 47
0.0
 48
0.0
140
2.5
141
2.5
142
0.0
143
0.03937007874016
144
1.0
145
0.0
146
1.0
147
0.625
 71
     0
 72
     0
 73
     0
 74
     0
 75
     0
 76
     0
 77
     1
 78
     8
170
     0
171
     3
172
     1
173
     0
174
     0
175
     0
176
     0
177
     0
178
     0
270
     2
271
     2
272
     2
273
     2
274
     3
340
11
275
     0
280
     0
281
     0
282
     0
283
     0
284
     8
285
     0
286
     0
287
     3
288
     0
  0
ENDTAB
  0
TABLE
  2
BLOCK_RECORD
  5
1
330
0
100
AcDbSymbolTable
 70
     1
  0
BLOCK_RECORD
  5
1F
330
1
100
AcDbSymbolTableRecord
100
AcDbBlockTableRecord
  2
*MODEL_SPACE
  0
BLOCK_RECORD
  5
1B
330
1
100
AcDbSymbolTableRecord
100
AcDbBlockTableRecord
  2
*PAPER_SPACE
  0
ENDTAB
  0
ENDSEC
  0
SECTION
  2
BLOCKS
  0
BLOCK
  5
20
330
1F
100
AcDbEntity
  8
0
100
AcDbBlockBegin
  2
*MODEL_SPACE
 70
     0
 10
0.0
 20
0.0
 30
0.0
  3
*MODEL_SPACE
  1

  0
ENDBLK
  5
21
330
1F
100
AcDbEntity
  8
0
100
AcDbBlockEnd
  0
BLOCK
  5
1C
330
1B
100
AcDbEntity
 67
     1
  8
0
100
AcDbBlockBegin
  2
*PAPER_SPACE
  1

  0
ENDBLK
  5
1D
330
1B
100
AcDbEntity
 67
     1
  8
0
100
AcDbBlockEnd
  0
ENDSEC
  0
SECTION
  2
ENTITIES
  0
LWPOLYLINE
  5
100
100
AcDbEntity
  8
Layer_1
 62
7
100
AcDbPolyline
 90
4
 70
1
 10
145.751110
 20
90.751110
 30
0.0
 10
0.248890
 20
90.751110
 30
0.0
 10
0.248890
 20
0.248890
 30
0.0
 10
145.751110
 20
0.248890
 30
0.0
  0
LWPOLYLINE
  5
101
100
AcDbEntity
  8
Layer_1
 62
7
100
AcDbPolyline
 90
30
 70
1
 10
11.724944
 20
79.006110
 30
0.0
 10
11.358450
 20
79.125130
 30
0.0
 10
11.024725
 20
79.317070
 30
0.0
 10
10.738084
 20
79.574750
 30
0.0
 10
10.511708
 20
79.886080
 30
0.0
 10
10.355017
 20
80.237460
 30
0.0
 10
10.274787
 20
80.613780
 30
0.0
 10
10.274787
 20
80.998420
 30
0.0
 10
10.355017
 20
81.374740
 30
0.0
 10
10.511708
 20
81.726120
 30
0.0
 10
10.738084
 20
82.037450
 30
0.0
 10
11.024725
 20
82.294760
 30
0.0
 10
11.358450
 20
82.487070
 30
0.0
 10
11.724944
 20
82.605710
 30
0.0
 10
12.108276
 20
82.645810
 30
0.0
 10
12.491607
 20
82.605710
 30
0.0
 10
12.858100
 20
82.487070
 30
0.0
 10
13.191825
 20
82.294760
 30
0.0
 10
13.478090
 20
82.037450
 30
0.0
 10
13.704466
 20
81.726120
 30
0.0
 10
13.861158
 20
81.374740
 30
0.0
 10
13.941388
 20
80.998420
 30
0.0
 10
13.941388
 20
80.613750
 30
0.0
 10
13.861158
 20
80.237430
 30
0.0
 10
13.704466
 20
79.886040
 30
0.0
 10
13.478090
 20
79.574710
 30
0.0
 10
13.191825
 20
79.317030
 30
0.0
 10
12.858100
 20
79.125090
 30
0.0
 10
12.491607
 20
79.006070
 30
0.0
 10
12.108276
 20
78.965970
 30
0.0
  0
LWPOLYLINE
  5
102
100
AcDbEntity
  8
Layer_1
 62
7
100
AcDbPolyline
 90
30
 70
1
 10
133.508020
 20
78.707630
 30
0.0
 10
133.142280
 20
78.826260
 30
0.0
 10
132.808550
 20
79.018580
 30
0.0
 10
132.521540
 20
79.276260
 30
0.0
 10
132.295160
 20
79.587590
 30
0.0
 10
132.138840
 20
79.938980
 30
0.0
 10
132.058240
 20
80.315300
 30
0.0
 10
132.058240
 20
80.700010
 30
0.0
 10
132.138840
 20
81.076330
 30
0.0
 10
132.295160
 20
81.427710
 30
0.0
 10
132.521540
 20
81.739040
 30
0.0
 10
132.808550
 20
81.996720
 30
0.0
 10
133.142280
 20
82.189040
 30
0.0
 10
133.508020
 20
82.307680
 30
0.0
 10
133.891680
 20
82.347780
 30
0.0
 10
134.275400
 20
82.307680
 30
0.0
 10
134.641140
 20
82.189040
 30
0.0
 10
134.974860
 20
81.996720
 30
0.0
 10
135.261880
 20
81.739040
 30
0.0
 10
135.488250
 20
81.427710
 30
0.0
 10
135.644570
 20
81.076330
 30
0.0
 10
135.725170
 20
80.700010
 30
0.0
 10
135.725170
 20
80.315340
 30
0.0
 10
135.644570
 20
79.939020
 30
0.0
 10
135.488250
 20
79.587630
 30
0.0
 10
135.261880
 20
79.276300
 30
0.0
 10
134.974860
 20
79.018620
 30
0.0
 10
134.641140
 20
78.826300
 30
0.0
 10
134.275400
 20
78.707660
 30
0.0
 10
133.891680
 20
78.667560
 30
0.0
  0
LWPOLYLINE
  5
103
100
AcDbEntity
  8
Layer_1
 62
7
100
AcDbPolyline
 90
30
 70
1
 10
11.724944
 20
8.394360
 30
0.0
 10
11.358450
 20
8.513000
 30
0.0
 10
11.024725
 20
8.704940
 30
0.0
 10
10.738084
 20
8.962250
 30
0.0
 10
10.511708
 20
9.273580
 30
0.0
 10
10.355017
 20
9.624960
 30
0.0
 10
10.274787
 20
10.001280
 30
0.0
 10
10.274787
 20
10.385950
 30
0.0
 10
10.355017
 20
10.762270
 30
0.0
 10
10.511708
 20
11.113650
 30
0.0
 10
10.738084
 20
11.424990
 30
0.0
 10
11.024725
 20
11.682670
 30
0.0
 10
11.358450
 20
11.874980
 30
0.0
 10
11.724944
 20
11.993620
 30
0.0
 10
12.108276
 20
12.033620
 30
0.0
 10
12.491607
 20
11.993620
 30
0.0
 10
12.858100
 20
11.874980
 30
0.0
 10
13.191825
 20
11.682670
 30
0.0
 10
13.478090
 20
11.424990
 30
0.0
 10
13.704466
 20
11.113650
 30
0.0
 10
13.861158
 20
10.762270
 30
0.0
 10
13.941388
 20
10.385950
 30
0.0
 10
13.941388
 20
10.001280
 30
0.0
 10
13.861158
 20
9.624960
 30
0.0
 10
13.704466
 20
9.273580
 30
0.0
 10
13.478090
 20
8.962250
 30
0.0
 10
13.191825
 20
8.704940
 30
0.0
 10
12.858100
 20
8.513000
 30
0.0
 10
12.491607
 20
8.394360
 30
0.0
 10
12.108276
 20
8.354260
 30
0.0
  0
LWPOLYLINE
  5
104
100
AcDbEntity
  8
Layer_1
 62
7
100
AcDbPolyline
 90
30
 70
1
 10
133.508020
 20
7.996580
 30
0.0
 10
133.142280
 20
8.115220
 30
0.0
 10
132.808550
 20
8.307540
 30
0.0
 10
132.521540
 20
8.565220
 30
0.0
 10
132.295160
 20
8.876550
 30
0.0
 10
132.138840
 20
9.227940
 30
0.0
 10
132.058240
 20
9.604260
 30
0.0
 10
132.058240
 20
9.988930
 30
0.0
 10
132.138840
 20
10.365250
 30
0.0
 10
132.295160
 20
10.716630
 30
0.0
 10
132.521540
 20
11.027960
 30
0.0
 10
132.808550
 20
11.285640
 30
0.0
 10
133.142280
 20
11.477960
 30
0.0
 10
133.508020
 20
11.596600
 30
0.0
 10
133.891680
 20
11.636600
 30
0.0
 10
134.275400
 20
11.596600
 30
0.0
 10
134.641140
 20
11.477960
 30
0.0
 10
134.974860
 20
11.285640
 30
0.0
 10
135.261880
 20
11.027960
 30
0.0
 10
135.488250
 20
10.716630
 30
0.0
 10
135.644570
 20
10.365250
 30
0.0
 10
135.725170
 20
9.988930
 30
0.0
 10
135.725170
 20
9.604260
 30
0.0
 10
135.644570
 20
9.227940
 30
0.0
 10
135.488250
 20
8.876550
 30
0.0
 10
135.261880
 20
8.565220
 30
0.0
 10
134.974860
 20
8.307540
 30
0.0
 10
134.641140
 20
8.115220
 30
0.0
 10
134.275400
 20
7.996580
 30
0.0
 10
133.891680
 20
7.956480
 30
0.0
  0
ENDSEC
  0
SECTION
  2
OBJECTS
  0
DICTIONARY
  5
C
330
0
100
AcDbDictionary
  3
ACAD_GROUP
350
D
  3
ACAD_MLINESTYLE
350
17
  0
DICTIONARY
  5
D
330
C
100
AcDbDictionary
  0
DICTIONARY
  5
1A
330
C
100
AcDbDictionary
  0
DICTIONARY
  5
17
330
C
100
AcDbDictionary
  3
STANDARD
350
18
  0
DICTIONARY
  5
19
330
C
100
AcDbDictionary
  0
ENDSEC
  0
EOF
