  0
SECTION
  2
HEADER
  9
$ACADVER
  1
AC1014
  9
$HANDSEED
  5
FFFF
  9
$MEASUREMENT
 70
     1
  0
ENDSEC
  0
SECTION
  2
TABLES
  0
TABLE
  2
VPORT
  5
8
330
0
100
AcDbSymbolTable
 70
     4
  0
VPORT
  5
2E
330
8
100
AcDbSymbolTableRecord
100
AcDbViewportTableRecord
  2
*ACTIVE
 70
     0
 10
0.0
 20
0.0
 11
1.0
 21
1.0
 12
210.0
 22
148.5
 13
0.0
 23
0.0
 14
10.0
 24
10.0
 15
10.0
 25
10.0
 16
0.0
 26
0.0
 36
1.0
 17
0.0
 27
0.0
 37
0.0
 40
341.0
 41
1.24
 42
50.0
 43
0.0
 44
0.0
 50
0.0
 51
0.0
 71
     0
 72
   100
 73
     1
 74
     3
 75
     0
 76
     0
 77
     0
 78
     0
  0
ENDTAB
  0
TABLE
  2
LTYPE
  5
5
330
0
100
AcDbSymbolTable
 70
     1
  0
LTYPE
  5
14
330
5
100
AcDbSymbolTableRecord
100
AcDbLinetypeTableRecord
  2
BYBLOCK
 70
     0
  3

 72
    65
 73
     0
 40
0.0
  0
LTYPE
  5
15
330
5
100
AcDbSymbolTableRecord
100
AcDbLinetypeTableRecord
  2
BYLAYER
 70
     0
  3

 72
    65
 73
     0
 40
0.0
  0
LTYPE
  5
16
330
5
100
AcDbSymbolTableRecord
100
AcDbLinetypeTableRecord
  2
CONTINUOUS
 70
     0
  3
Solid line
 72
    65
 73
     0
 40
0.0
  0
ENDTAB
  0
TABLE
  2
LAYER
  5
2
100
AcDbSymbolTable
 70
2
  0
LAYER
  5
50
100
AcDbSymbolTableRecord
100
AcDbLayerTableRecord
  2
0
 70
0
  6
CONTINUOUS
  0
LAYER
  5
51
100
AcDbSymbolTableRecord
100
AcDbLayerTableRecord
  2
Layer_1
 70
0
  6
CONTINUOUS
  0
ENDTAB
  0
TABLE
  2
STYLE
  5
3
330
0
100
AcDbSymbolTable
 70
     1
  0
STYLE
  5
11
330
3
100
AcDbSymbolTableRecord
100
AcDbTextStyleTableRecord
  2
STANDARD
 70
     0
 40
0.0
 41
1.0
 50
0.0
 71
     0
 42
2.5
  3
txt
  4

  0
ENDTAB
  0
TABLE
  2
VIEW
  5
6
330
0
100
AcDbSymbolTable
 70
     0
  0
ENDTAB
  0
TABLE
  2
UCS
  5
7
330
0
100
AcDbSymbolTable
 70
     0
  0
ENDTAB
  0
TABLE
  2
APPID
  5
9
330
0
100
AcDbSymbolTable
 70
     2
  0
APPID
  5
12
330
9
100
AcDbSymbolTableRecord
100
AcDbRegAppTableRecord
  2
ACAD
 70
     0
  0
ENDTAB
  0
TABLE
  2
DIMSTYLE
  5
A
330
0
100
AcDbSymbolTable
 70
     1
  0
DIMSTYLE
105
27
330
A
100
AcDbSymbolTableRecord
100
AcDbDimStyleTableRecord
  2
ISO-25
 70
     0
  3

  4

  5

  6

  7

 40
1.0
 41
2.5
 42
0.625
 43
3.75
 44
1.25
 45
0.0
 46
0.0
 47
0.0
 48
0.0
140
2.5
141
2.5
142
0.0
143
0.03937007874016
144
1.0
145
0.0
146
1.0
147
0.625
 71
     0
 72
     0
 73
     0
 74
     0
 75
     0
 76
     0
 77
     1
 78
     8
170
     0
171
     3
172
     1
173
     0
174
     0
175
     0
176
     0
177
     0
178
     0
270
     2
271
     2
272
     2
273
     2
274
     3
340
11
275
     0
280
     0
281
     0
282
     0
283
     0
284
     8
285
     0
286
     0
287
     3
288
     0
  0
ENDTAB
  0
TABLE
  2
BLOCK_RECORD
  5
1
330
0
100
AcDbSymbolTable
 70
     1
  0
BLOCK_RECORD
  5
1F
330
1
100
AcDbSymbolTableRecord
100
AcDbBlockTableRecord
  2
*MODEL_SPACE
  0
BLOCK_RECORD
  5
1B
330
1
100
AcDbSymbolTableRecord
100
AcDbBlockTableRecord
  2
*PAPER_SPACE
  0
ENDTAB
  0
ENDSEC
  0
SECTION
  2
BLOCKS
  0
BLOCK
  5
20
330
1F
100
AcDbEntity
  8
0
100
AcDbBlockBegin
  2
*MODEL_SPACE
 70
     0
 10
0.0
 20
0.0
 30
0.0
  3
*MODEL_SPACE
  1

  0
ENDBLK
  5
21
330
1F
100
AcDbEntity
  8
0
100
AcDbBlockEnd
  0
BLOCK
  5
1C
330
1B
100
AcDbEntity
 67
     1
  8
0
100
AcDbBlockBegin
  2
*PAPER_SPACE
  1

  0
ENDBLK
  5
1D
330
1B
100
AcDbEntity
 67
     1
  8
0
100
AcDbBlockEnd
  0
ENDSEC
  0
SECTION
  2
ENTITIES
  0
LWPOLYLINE
  5
100
100
AcDbEntity
  8
Layer_1
 62
7
100
AcDbPolyline
 90
4
 70
1
 10
145.751050
 20
90.751110
 30
0.0
 10
0.248890
 20
90.751110
 30
0.0
 10
0.248890
 20
0.248890
 30
0.0
 10
145.751050
 20
0.248890
 30
0.0
  0
LWPOLYLINE
  5
101
100
AcDbEntity
  8
Layer_1
 62
7
100
AcDbPolyline
 90
30
 70
1
 10
11.725044
 20
79.006110
 30
0.0
 10
11.358554
 20
79.124980
 30
0.0
 10
11.024834
 20
79.317330
 30
0.0
 10
10.738564
 20
79.574710
 30
0.0
 10
10.512194
 20
79.885890
 30
0.0
 10
10.355124
 20
80.237270
 30
0.0
 10
10.274824
 20
80.613520
 30
0.0
 10
10.274824
 20
80.998200
 30
0.0
 10
10.355124
 20
81.374410
 30
0.0
 10
10.512194
 20
81.725790
 30
0.0
 10
10.738564
 20
82.036970
 30
0.0
 10
11.024834
 20
82.294350
 30
0.0
 10
11.358554
 20
82.486590
 30
0.0
 10
11.725044
 20
82.605530
 30
0.0
 10
12.108314
 20
82.645730
 30
0.0
 10
12.491604
 20
82.605530
 30
0.0
 10
12.858094
 20
82.486590
 30
0.0
 10
13.191824
 20
82.294350
 30
0.0
 10
13.478084
 20
82.036970
 30
0.0
 10
13.704834
 20
81.725790
 30
0.0
 10
13.861534
 20
81.374410
 30
0.0
 10
13.941834
 20
80.998200
 30
0.0
 10
13.941834
 20
80.613520
 30
0.0
 10
13.861534
 20
80.237270
 30
0.0
 10
13.704834
 20
79.885890
 30
0.0
 10
13.478084
 20
79.574710
 30
0.0
 10
13.191824
 20
79.317330
 30
0.0
 10
12.858094
 20
79.124980
 30
0.0
 10
12.491604
 20
79.006110
 30
0.0
 10
12.108314
 20
78.965910
 30
0.0
  0
LWPOLYLINE
  5
102
100
AcDbEntity
  8
Layer_1
 62
7
100
AcDbPolyline
 90
30
 70
1
 10
136.298400
 20
75.027990
 30
0.0
 10
135.932660
 20
75.146860
 30
0.0
 10
135.598930
 20
75.339210
 30
0.0
 10
135.311910
 20
75.596590
 30
0.0
 10
135.085540
 20
75.907770
 30
0.0
 10
134.929220
 20
76.259160
 30
0.0
 10
134.848620
 20
76.635400
 30
0.0
 10
134.848620
 20
77.020080
 30
0.0
 10
134.929220
 20
77.396330
 30
0.0
 10
135.085540
 20
77.747710
 30
0.0
 10
135.311910
 20
78.058890
 30
0.0
 10
135.598930
 20
78.316270
 30
0.0
 10
135.932660
 20
78.508510
 30
0.0
 10
136.298400
 20
78.627450
 30
0.0
 10
136.682070
 20
78.667650
 30
0.0
 10
137.065770
 20
78.627450
 30
0.0
 10
137.431520
 20
78.508510
 30
0.0
 10
137.765240
 20
78.316270
 30
0.0
 10
138.052260
 20
78.058890
 30
0.0
 10
138.278630
 20
77.747710
 30
0.0
 10
138.434950
 20
77.396330
 30
0.0
 10
138.515550
 20
77.020080
 30
0.0
 10
138.515550
 20
76.635400
 30
0.0
 10
138.434950
 20
76.259160
 30
0.0
 10
138.278630
 20
75.907770
 30
0.0
 10
138.052260
 20
75.596590
 30
0.0
 10
137.765240
 20
75.339210
 30
0.0
 10
137.431520
 20
75.146860
 30
0.0
 10
137.065770
 20
75.027990
 30
0.0
 10
136.682070
 20
74.987790
 30
0.0
  0
LWPOLYLINE
  5
103
100
AcDbEntity
  8
Layer_1
 62
7
100
AcDbPolyline
 90
30
 70
1
 10
116.525450
 20
67.608300
 30
0.0
 10
116.109340
 20
67.743230
 30
0.0
 10
115.730350
 20
67.961540
 30
0.0
 10
115.405290
 20
68.253640
 30
0.0
 10
115.148040
 20
68.606910
 30
0.0
 10
114.970250
 20
69.005820
 30
0.0
 10
114.879150
 20
69.432870
 30
0.0
 10
114.879150
 20
69.869460
 30
0.0
 10
114.970250
 20
70.296510
 30
0.0
 10
115.148040
 20
70.695420
 30
0.0
 10
115.405290
 20
71.048690
 30
0.0
 10
115.730350
 20
71.340790
 30
0.0
 10
116.109340
 20
71.559100
 30
0.0
 10
116.525450
 20
71.694030
 30
0.0
 10
116.960530
 20
71.739630
 30
0.0
 10
117.395660
 20
71.694030
 30
0.0
 10
117.811720
 20
71.559100
 30
0.0
 10
118.190720
 20
71.340790
 30
0.0
 10
118.515780
 20
71.048690
 30
0.0
 10
118.773040
 20
70.695420
 30
0.0
 10
118.950830
 20
70.296510
 30
0.0
 10
119.041930
 20
69.869460
 30
0.0
 10
119.041930
 20
69.432870
 30
0.0
 10
118.950830
 20
69.005810
 30
0.0
 10
118.773040
 20
68.606900
 30
0.0
 10
118.515780
 20
68.253630
 30
0.0
 10
118.190720
 20
67.961530
 30
0.0
 10
117.811720
 20
67.743220
 30
0.0
 10
117.395660
 20
67.608300
 30
0.0
 10
116.960530
 20
67.562700
 30
0.0
  0
LWPOLYLINE
  5
104
100
AcDbEntity
  8
Layer_1
 62
7
100
AcDbPolyline
 90
30
 70
1
 10
122.637430
 20
59.008700
 30
0.0
 10
121.993410
 20
59.217530
 30
0.0
 10
121.407020
 20
59.555390
 30
0.0
 10
120.903870
 20
60.007500
 30
0.0
 10
120.505810
 20
60.554190
 30
0.0
 10
120.230460
 20
61.171500
 30
0.0
 10
120.089600
 20
61.832460
 30
0.0
 10
120.089600
 20
62.508150
 30
0.0
 10
120.230460
 20
63.169110
 30
0.0
 10
120.505810
 20
63.786420
 30
0.0
 10
120.903870
 20
64.333110
 30
0.0
 10
121.407020
 20
64.785220
 30
0.0
 10
121.993410
 20
65.123080
 30
0.0
 10
122.637430
 20
65.331910
 30
0.0
 10
123.310830
 20
65.402510
 30
0.0
 10
123.984230
 20
65.331910
 30
0.0
 10
124.628210
 20
65.123080
 30
0.0
 10
125.214600
 20
64.785220
 30
0.0
 10
125.717780
 20
64.333110
 30
0.0
 10
126.115800
 20
63.786420
 30
0.0
 10
126.391150
 20
63.169110
 30
0.0
 10
126.532020
 20
62.508150
 30
0.0
 10
126.532020
 20
61.832470
 30
0.0
 10
126.391150
 20
61.171500
 30
0.0
 10
126.115800
 20
60.554200
 30
0.0
 10
125.717780
 20
60.007500
 30
0.0
 10
125.214600
 20
59.555390
 30
0.0
 10
124.628210
 20
59.217540
 30
0.0
 10
123.984230
 20
59.008710
 30
0.0
 10
123.310830
 20
58.938110
 30
0.0
  0
LWPOLYLINE
  5
105
100
AcDbEntity
  8
Layer_1
 62
7
100
AcDbPolyline
 90
30
 70
1
 10
122.637430
 20
48.932120
 30
0.0
 10
121.993410
 20
49.140950
 30
0.0
 10
121.407020
 20
49.478810
 30
0.0
 10
120.903870
 20
49.930930
 30
0.0
 10
120.505810
 20
50.477620
 30
0.0
 10
120.230460
 20
51.094920
 30
0.0
 10
120.089600
 20
51.755880
 30
0.0
 10
120.089600
 20
52.431570
 30
0.0
 10
120.230460
 20
53.092530
 30
0.0
 10
120.505810
 20
53.709840
 30
0.0
 10
120.903870
 20
54.256530
 30
0.0
 10
121.407020
 20
54.708640
 30
0.0
 10
121.993410
 20
55.046500
 30
0.0
 10
122.637430
 20
55.255330
 30
0.0
 10
123.310830
 20
55.325930
 30
0.0
 10
123.984230
 20
55.255330
 30
0.0
 10
124.628210
 20
55.046500
 30
0.0
 10
125.214600
 20
54.708640
 30
0.0
 10
125.717780
 20
54.256530
 30
0.0
 10
126.115800
 20
53.709840
 30
0.0
 10
126.391150
 20
53.092530
 30
0.0
 10
126.532020
 20
52.431570
 30
0.0
 10
126.532020
 20
51.755880
 30
0.0
 10
126.391150
 20
51.094920
 30
0.0
 10
126.115800
 20
50.477620
 30
0.0
 10
125.717780
 20
49.930930
 30
0.0
 10
125.214600
 20
49.478810
 30
0.0
 10
124.628210
 20
49.140950
 30
0.0
 10
123.984230
 20
48.932120
 30
0.0
 10
123.310830
 20
48.861520
 30
0.0
  0
LWPOLYLINE
  5
106
100
AcDbEntity
  8
Layer_1
 62
7
100
AcDbPolyline
 90
4
 70
1
 10
112.365270
 20
30.681510
 30
0.0
 10
112.365270
 20
47.588520
 30
0.0
 10
116.849910
 20
47.588520
 30
0.0
 10
116.849910
 20
30.681510
 30
0.0
  0
LWPOLYLINE
  5
107
100
AcDbEntity
  8
Layer_1
 62
7
100
AcDbPolyline
 90
30
 70
1
 10
122.637430
 20
36.255850
 30
0.0
 10
121.993410
 20
36.464680
 30
0.0
 10
121.407020
 20
36.802530
 30
0.0
 10
120.903870
 20
37.254650
 30
0.0
 10
120.505810
 20
37.801340
 30
0.0
 10
120.230460
 20
38.418640
 30
0.0
 10
120.089600
 20
39.079610
 30
0.0
 10
120.089600
 20
39.755290
 30
0.0
 10
120.230460
 20
40.416260
 30
0.0
 10
120.505810
 20
41.033560
 30
0.0
 10
120.903870
 20
41.580260
 30
0.0
 10
121.407020
 20
42.032370
 30
0.0
 10
121.993410
 20
42.370220
 30
0.0
 10
122.637430
 20
42.579050
 30
0.0
 10
123.310830
 20
42.649650
 30
0.0
 10
123.984230
 20
42.579050
 30
0.0
 10
124.628210
 20
42.370220
 30
0.0
 10
125.214600
 20
42.032370
 30
0.0
 10
125.717780
 20
41.580260
 30
0.0
 10
126.115800
 20
41.033560
 30
0.0
 10
126.391150
 20
40.416260
 30
0.0
 10
126.532020
 20
39.755290
 30
0.0
 10
126.532020
 20
39.079610
 30
0.0
 10
126.391150
 20
38.418640
 30
0.0
 10
126.115800
 20
37.801340
 30
0.0
 10
125.717780
 20
37.254650
 30
0.0
 10
125.214600
 20
36.802530
 30
0.0
 10
124.628210
 20
36.464680
 30
0.0
 10
123.984230
 20
36.255850
 30
0.0
 10
123.310830
 20
36.185250
 30
0.0
  0
LWPOLYLINE
  5
108
100
AcDbEntity
  8
Layer_1
 62
7
100
AcDbPolyline
 90
30
 70
1
 10
122.637430
 20
26.073850
 30
0.0
 10
121.993410
 20
26.282680
 30
0.0
 10
121.407020
 20
26.620530
 30
0.0
 10
120.903870
 20
27.072650
 30
0.0
 10
120.505810
 20
27.619340
 30
0.0
 10
120.230460
 20
28.236650
 30
0.0
 10
120.089600
 20
28.897610
 30
0.0
 10
120.089600
 20
29.573290
 30
0.0
 10
120.230460
 20
30.234260
 30
0.0
 10
120.505810
 20
30.851560
 30
0.0
 10
120.903870
 20
31.398260
 30
0.0
 10
121.407020
 20
31.850370
 30
0.0
 10
121.993410
 20
32.188230
 30
0.0
 10
122.637430
 20
32.397050
 30
0.0
 10
123.310830
 20
32.467650
 30
0.0
 10
123.984230
 20
32.397050
 30
0.0
 10
124.628210
 20
32.188230
 30
0.0
 10
125.214600
 20
31.850370
 30
0.0
 10
125.717780
 20
31.398260
 30
0.0
 10
126.115800
 20
30.851560
 30
0.0
 10
126.391150
 20
30.234260
 30
0.0
 10
126.532020
 20
29.573290
 30
0.0
 10
126.532020
 20
28.897610
 30
0.0
 10
126.391150
 20
28.236650
 30
0.0
 10
126.115800
 20
27.619340
 30
0.0
 10
125.717780
 20
27.072650
 30
0.0
 10
125.214600
 20
26.620530
 30
0.0
 10
124.628210
 20
26.282680
 30
0.0
 10
123.984230
 20
26.073850
 30
0.0
 10
123.310830
 20
26.003250
 30
0.0
  0
LWPOLYLINE
  5
109
100
AcDbEntity
  8
Layer_1
 62
7
100
AcDbPolyline
 90
30
 70
1
 10
116.629070
 20
17.010580
 30
0.0
 10
116.213000
 20
17.145500
 30
0.0
 10
115.834080
 20
17.363810
 30
0.0
 10
115.509020
 20
17.655950
 30
0.0
 10
115.251760
 20
18.009190
 30
0.0
 10
115.073980
 20
18.408060
 30
0.0
 10
114.982880
 20
18.835130
 30
0.0
 10
114.982880
 20
19.271750
 30
0.0
 10
115.073980
 20
19.698830
 30
0.0
 10
115.251760
 20
20.097700
 30
0.0
 10
115.509020
 20
20.450970
 30
0.0
 10
115.834080
 20
20.743110
 30
0.0
 10
116.212970
 20
20.961420
 30
0.0
 10
116.629070
 20
21.096340
 30
0.0
 10
117.064160
 20
21.141940
 30
0.0
 10
117.499280
 20
21.096340
 30
0.0
 10
117.915340
 20
20.961420
 30
0.0
 10
118.294270
 20
20.743110
 30
0.0
 10
118.619330
 20
20.450970
 30
0.0
 10
118.876590
 20
20.097700
 30
0.0
 10
119.054380
 20
19.698830
 30
0.0
 10
119.145480
 20
19.271750
 30
0.0
 10
119.145480
 20
18.835130
 30
0.0
 10
119.054380
 20
18.408060
 30
0.0
 10
118.876590
 20
18.009190
 30
0.0
 10
118.619330
 20
17.655950
 30
0.0
 10
118.294270
 20
17.363810
 30
0.0
 10
117.915340
 20
17.145500
 30
0.0
 10
117.499280
 20
17.010580
 30
0.0
 10
117.064160
 20
16.964980
 30
0.0
  0
LWPOLYLINE
  5
10a
100
AcDbEntity
  8
Layer_1
 62
7
100
AcDbPolyline
 90
30
 70
1
 10
136.298400
 20
11.378110
 30
0.0
 10
135.932660
 20
11.496980
 30
0.0
 10
135.598930
 20
11.689290
 30
0.0
 10
135.311910
 20
11.946670
 30
0.0
 10
135.085540
 20
12.257850
 30
0.0
 10
134.929220
 20
12.609240
 30
0.0
 10
134.848620
 20
12.985480
 30
0.0
 10
134.848620
 20
13.370120
 30
0.0
 10
134.929220
 20
13.746360
 30
0.0
 10
135.085540
 20
14.097740
 30
0.0
 10
135.311910
 20
14.408930
 30
0.0
 10
135.598930
 20
14.666310
 30
0.0
 10
135.932660
 20
14.858660
 30
0.0
 10
136.298400
 20
14.977530
 30
0.0
 10
136.682070
 20
15.017730
 30
0.0
 10
137.065770
 20
14.977530
 30
0.0
 10
137.431520
 20
14.858660
 30
0.0
 10
137.765240
 20
14.666310
 30
0.0
 10
138.052260
 20
14.408930
 30
0.0
 10
138.278630
 20
14.097740
 30
0.0
 10
138.434950
 20
13.746360
 30
0.0
 10
138.515550
 20
13.370120
 30
0.0
 10
138.515550
 20
12.985480
 30
0.0
 10
138.434950
 20
12.609240
 30
0.0
 10
138.278630
 20
12.257850
 30
0.0
 10
138.052260
 20
11.946670
 30
0.0
 10
137.765240
 20
11.689290
 30
0.0
 10
137.431520
 20
11.496980
 30
0.0
 10
137.065770
 20
11.378110
 30
0.0
 10
136.682070
 20
11.337910
 30
0.0
  0
LWPOLYLINE
  5
10b
100
AcDbEntity
  8
Layer_1
 62
7
100
AcDbPolyline
 90
30
 70
1
 10
11.725044
 20
8.394520
 30
0.0
 10
11.358554
 20
8.513390
 30
0.0
 10
11.024834
 20
8.705700
 30
0.0
 10
10.738564
 20
8.963080
 30
0.0
 10
10.512194
 20
9.274260
 30
0.0
 10
10.355124
 20
9.625650
 30
0.0
 10
10.274824
 20
10.001890
 30
0.0
 10
10.274824
 20
10.386540
 30
0.0
 10
10.355124
 20
10.762780
 30
0.0
 10
10.512194
 20
11.114170
 30
0.0
 10
10.738564
 20
11.425350
 30
0.0
 10
11.024834
 20
11.682730
 30
0.0
 10
11.358554
 20
11.875040
 30
0.0
 10
11.725044
 20
11.993950
 30
0.0
 10
12.108314
 20
12.034150
 30
0.0
 10
12.491604
 20
11.993950
 30
0.0
 10
12.858094
 20
11.875040
 30
0.0
 10
13.191824
 20
11.682730
 30
0.0
 10
13.478084
 20
11.425350
 30
0.0
 10
13.704834
 20
11.114170
 30
0.0
 10
13.861534
 20
10.762780
 30
0.0
 10
13.941834
 20
10.386540
 30
0.0
 10
13.941834
 20
10.001890
 30
0.0
 10
13.861534
 20
9.625650
 30
0.0
 10
13.704834
 20
9.274260
 30
0.0
 10
13.478084
 20
8.963080
 30
0.0
 10
13.191824
 20
8.705700
 30
0.0
 10
12.858094
 20
8.513390
 30
0.0
 10
12.491604
 20
8.394520
 30
0.0
 10
12.108314
 20
8.354320
 30
0.0
  0
ENDSEC
  0
SECTION
  2
OBJECTS
  0
DICTIONARY
  5
C
330
0
100
AcDbDictionary
  3
ACAD_GROUP
350
D
  3
ACAD_MLINESTYLE
350
17
  0
DICTIONARY
  5
D
330
C
100
AcDbDictionary
  0
DICTIONARY
  5
1A
330
C
100
AcDbDictionary
  0
DICTIONARY
  5
17
330
C
100
AcDbDictionary
  3
STANDARD
350
18
  0
DICTIONARY
  5
19
330
C
100
AcDbDictionary
  0
ENDSEC
  0
EOF
