  0
SECTION
  2
HEADER
  9
$ACADVER
  1
AC1014
  9
$HANDSEED
  5
FFFF
  9
$MEASUREMENT
 70
     1
  0
ENDSEC
  0
SECTION
  2
TABLES
  0
TABLE
  2
VPORT
  5
8
330
0
100
AcDbSymbolTable
 70
     4
  0
VPORT
  5
2E
330
8
100
AcDbSymbolTableRecord
100
AcDbViewportTableRecord
  2
*ACTIVE
 70
     0
 10
0.0
 20
0.0
 11
1.0
 21
1.0
 12
210.0
 22
148.5
 13
0.0
 23
0.0
 14
10.0
 24
10.0
 15
10.0
 25
10.0
 16
0.0
 26
0.0
 36
1.0
 17
0.0
 27
0.0
 37
0.0
 40
341.0
 41
1.24
 42
50.0
 43
0.0
 44
0.0
 50
0.0
 51
0.0
 71
     0
 72
   100
 73
     1
 74
     3
 75
     0
 76
     0
 77
     0
 78
     0
  0
ENDTAB
  0
TABLE
  2
LTYPE
  5
5
330
0
100
AcDbSymbolTable
 70
     1
  0
LTYPE
  5
14
330
5
100
AcDbSymbolTableRecord
100
AcDbLinetypeTableRecord
  2
BYBLOCK
 70
     0
  3

 72
    65
 73
     0
 40
0.0
  0
LTYPE
  5
15
330
5
100
AcDbSymbolTableRecord
100
AcDbLinetypeTableRecord
  2
BYLAYER
 70
     0
  3

 72
    65
 73
     0
 40
0.0
  0
LTYPE
  5
16
330
5
100
AcDbSymbolTableRecord
100
AcDbLinetypeTableRecord
  2
CONTINUOUS
 70
     0
  3
Solid line
 72
    65
 73
     0
 40
0.0
  0
ENDTAB
  0
TABLE
  2
LAYER
  5
2
100
AcDbSymbolTable
 70
2
  0
LAYER
  5
50
100
AcDbSymbolTableRecord
100
AcDbLayerTableRecord
  2
0
 70
0
  6
CONTINUOUS
  0
LAYER
  5
51
100
AcDbSymbolTableRecord
100
AcDbLayerTableRecord
  2
Layer_1
 70
0
  6
CONTINUOUS
  0
ENDTAB
  0
TABLE
  2
STYLE
  5
3
330
0
100
AcDbSymbolTable
 70
     1
  0
STYLE
  5
11
330
3
100
AcDbSymbolTableRecord
100
AcDbTextStyleTableRecord
  2
STANDARD
 70
     0
 40
0.0
 41
1.0
 50
0.0
 71
     0
 42
2.5
  3
txt
  4

  0
ENDTAB
  0
TABLE
  2
VIEW
  5
6
330
0
100
AcDbSymbolTable
 70
     0
  0
ENDTAB
  0
TABLE
  2
UCS
  5
7
330
0
100
AcDbSymbolTable
 70
     0
  0
ENDTAB
  0
TABLE
  2
APPID
  5
9
330
0
100
AcDbSymbolTable
 70
     2
  0
APPID
  5
12
330
9
100
AcDbSymbolTableRecord
100
AcDbRegAppTableRecord
  2
ACAD
 70
     0
  0
ENDTAB
  0
TABLE
  2
DIMSTYLE
  5
A
330
0
100
AcDbSymbolTable
 70
     1
  0
DIMSTYLE
105
27
330
A
100
AcDbSymbolTableRecord
100
AcDbDimStyleTableRecord
  2
ISO-25
 70
     0
  3

  4

  5

  6

  7

 40
1.0
 41
2.5
 42
0.625
 43
3.75
 44
1.25
 45
0.0
 46
0.0
 47
0.0
 48
0.0
140
2.5
141
2.5
142
0.0
143
0.03937007874016
144
1.0
145
0.0
146
1.0
147
0.625
 71
     0
 72
     0
 73
     0
 74
     0
 75
     0
 76
     0
 77
     1
 78
     8
170
     0
171
     3
172
     1
173
     0
174
     0
175
     0
176
     0
177
     0
178
     0
270
     2
271
     2
272
     2
273
     2
274
     3
340
11
275
     0
280
     0
281
     0
282
     0
283
     0
284
     8
285
     0
286
     0
287
     3
288
     0
  0
ENDTAB
  0
TABLE
  2
BLOCK_RECORD
  5
1
330
0
100
AcDbSymbolTable
 70
     1
  0
BLOCK_RECORD
  5
1F
330
1
100
AcDbSymbolTableRecord
100
AcDbBlockTableRecord
  2
*MODEL_SPACE
  0
BLOCK_RECORD
  5
1B
330
1
100
AcDbSymbolTableRecord
100
AcDbBlockTableRecord
  2
*PAPER_SPACE
  0
ENDTAB
  0
ENDSEC
  0
SECTION
  2
BLOCKS
  0
BLOCK
  5
20
330
1F
100
AcDbEntity
  8
0
100
AcDbBlockBegin
  2
*MODEL_SPACE
 70
     0
 10
0.0
 20
0.0
 30
0.0
  3
*MODEL_SPACE
  1

  0
ENDBLK
  5
21
330
1F
100
AcDbEntity
  8
0
100
AcDbBlockEnd
  0
BLOCK
  5
1C
330
1B
100
AcDbEntity
 67
     1
  8
0
100
AcDbBlockBegin
  2
*PAPER_SPACE
  1

  0
ENDBLK
  5
1D
330
1B
100
AcDbEntity
 67
     1
  8
0
100
AcDbBlockEnd
  0
ENDSEC
  0
SECTION
  2
ENTITIES
  0
LWPOLYLINE
  5
100
100
AcDbEntity
  8
Layer_1
 62
7
100
AcDbPolyline
 90
4
 70
1
 10
145.751110
 20
90.751110
 30
0.0
 10
0.248890
 20
90.751110
 30
0.0
 10
0.248890
 20
0.248890
 30
0.0
 10
145.751110
 20
0.248890
 30
0.0
  0
LWPOLYLINE
  5
101
100
AcDbEntity
  8
Layer_1
 62
7
100
AcDbPolyline
 90
30
 70
1
 10
11.724979
 20
79.006070
 30
0.0
 10
11.358485
 20
79.124710
 30
0.0
 10
11.024760
 20
79.316650
 30
0.0
 10
10.738496
 20
79.574330
 30
0.0
 10
10.511743
 20
79.885670
 30
0.0
 10
10.355051
 20
80.237050
 30
0.0
 10
10.274821
 20
80.613370
 30
0.0
 10
10.274821
 20
80.998080
 30
0.0
 10
10.355051
 20
81.374400
 30
0.0
 10
10.511743
 20
81.725780
 30
0.0
 10
10.738496
 20
82.037110
 30
0.0
 10
11.024760
 20
82.294420
 30
0.0
 10
11.358485
 20
82.486730
 30
0.0
 10
11.724979
 20
82.605370
 30
0.0
 10
12.108310
 20
82.645470
 30
0.0
 10
12.491604
 20
82.605370
 30
0.0
 10
12.858097
 20
82.486730
 30
0.0
 10
13.191821
 20
82.294420
 30
0.0
 10
13.478086
 20
82.037110
 30
0.0
 10
13.704462
 20
81.725780
 30
0.0
 10
13.861531
 20
81.374400
 30
0.0
 10
13.941761
 20
80.998080
 30
0.0
 10
13.941761
 20
80.613370
 30
0.0
 10
13.861531
 20
80.237050
 30
0.0
 10
13.704462
 20
79.885670
 30
0.0
 10
13.478086
 20
79.574330
 30
0.0
 10
13.191821
 20
79.316650
 30
0.0
 10
12.858097
 20
79.124710
 30
0.0
 10
12.491604
 20
79.006070
 30
0.0
 10
12.108310
 20
78.965970
 30
0.0
  0
LWPOLYLINE
  5
102
100
AcDbEntity
  8
Layer_1
 62
7
100
AcDbPolyline
 90
30
 70
1
 10
136.298460
 20
75.027970
 30
0.0
 10
135.932710
 20
75.146600
 30
0.0
 10
135.599000
 20
75.338540
 30
0.0
 10
135.311980
 20
75.596220
 30
0.0
 10
135.085600
 20
75.907560
 30
0.0
 10
134.929290
 20
76.258940
 30
0.0
 10
134.848690
 20
76.635260
 30
0.0
 10
134.848690
 20
77.019930
 30
0.0
 10
134.929290
 20
77.396250
 30
0.0
 10
135.085600
 20
77.747630
 30
0.0
 10
135.311980
 20
78.058970
 30
0.0
 10
135.599000
 20
78.316270
 30
0.0
 10
135.932710
 20
78.508580
 30
0.0
 10
136.298460
 20
78.627220
 30
0.0
 10
136.682130
 20
78.667320
 30
0.0
 10
137.065830
 20
78.627220
 30
0.0
 10
137.431580
 20
78.508580
 30
0.0
 10
137.765300
 20
78.316270
 30
0.0
 10
138.052320
 20
78.058970
 30
0.0
 10
138.278700
 20
77.747630
 30
0.0
 10
138.435010
 20
77.396250
 30
0.0
 10
138.515610
 20
77.019930
 30
0.0
 10
138.515610
 20
76.635260
 30
0.0
 10
138.435010
 20
76.258940
 30
0.0
 10
138.278700
 20
75.907560
 30
0.0
 10
138.052320
 20
75.596220
 30
0.0
 10
137.765300
 20
75.338540
 30
0.0
 10
137.431580
 20
75.146600
 30
0.0
 10
137.065830
 20
75.027970
 30
0.0
 10
136.682130
 20
74.987870
 30
0.0
  0
LWPOLYLINE
  5
103
100
AcDbEntity
  8
Layer_1
 62
7
100
AcDbPolyline
 90
30
 70
1
 10
129.634260
 20
57.890820
 30
0.0
 10
129.297520
 20
57.962220
 30
0.0
 10
128.983760
 20
58.101640
 30
0.0
 10
128.705780
 20
58.303030
 30
0.0
 10
128.475640
 20
58.558060
 30
0.0
 10
128.304260
 20
58.855040
 30
0.0
 10
128.197660
 20
59.181490
 30
0.0
 10
128.160060
 20
59.522290
 30
0.0
 10
128.197660
 20
59.863470
 30
0.0
 10
128.304260
 20
60.189540
 30
0.0
 10
128.475640
 20
60.486890
 30
0.0
 10
128.705780
 20
60.741930
 30
0.0
 10
128.983760
 20
60.943310
 30
0.0
 10
129.297520
 20
61.082730
 30
0.0
 10
129.634260
 20
61.154130
 30
0.0
 10
129.977020
 20
61.154130
 30
0.0
 10
130.313760
 20
61.082730
 30
0.0
 10
130.627520
 20
60.943310
 30
0.0
 10
130.905500
 20
60.741930
 30
0.0
 10
131.135640
 20
60.486890
 30
0.0
 10
131.307020
 20
60.189540
 30
0.0
 10
131.413620
 20
59.863470
 30
0.0
 10
131.451220
 20
59.522290
 30
0.0
 10
131.413620
 20
59.181490
 30
0.0
 10
131.307020
 20
58.855040
 30
0.0
 10
131.135640
 20
58.558060
 30
0.0
 10
130.905500
 20
58.303030
 30
0.0
 10
130.627520
 20
58.101640
 30
0.0
 10
130.313760
 20
57.962220
 30
0.0
 10
129.977020
 20
57.890820
 30
0.0
  0
LWPOLYLINE
  5
104
100
AcDbEntity
  8
Layer_1
 62
7
100
AcDbPolyline
 90
4
 70
1
 10
124.473920
 20
38.438860
 30
0.0
 10
124.473920
 20
51.566650
 30
0.0
 10
135.137430
 20
51.566650
 30
0.0
 10
135.137430
 20
38.438860
 30
0.0
  0
LWPOLYLINE
  5
105
100
AcDbEntity
  8
Layer_1
 62
7
100
AcDbPolyline
 90
30
 70
1
 10
129.634260
 20
28.850560
 30
0.0
 10
129.297520
 20
28.921960
 30
0.0
 10
128.983760
 20
29.061380
 30
0.0
 10
128.705780
 20
29.262770
 30
0.0
 10
128.475640
 20
29.517800
 30
0.0
 10
128.304260
 20
29.814780
 30
0.0
 10
128.197660
 20
30.141230
 30
0.0
 10
128.160060
 20
30.482410
 30
0.0
 10
128.197660
 20
30.823590
 30
0.0
 10
128.304260
 20
31.150030
 30
0.0
 10
128.475640
 20
31.447010
 30
0.0
 10
128.705780
 20
31.702050
 30
0.0
 10
128.983760
 20
31.903430
 30
0.0
 10
129.297520
 20
32.042850
 30
0.0
 10
129.634260
 20
32.114250
 30
0.0
 10
129.977020
 20
32.114250
 30
0.0
 10
130.313760
 20
32.042850
 30
0.0
 10
130.627520
 20
31.903430
 30
0.0
 10
130.905500
 20
31.702050
 30
0.0
 10
131.135640
 20
31.447010
 30
0.0
 10
131.307020
 20
31.150030
 30
0.0
 10
131.413620
 20
30.823590
 30
0.0
 10
131.451220
 20
30.482410
 30
0.0
 10
131.413620
 20
30.141230
 30
0.0
 10
131.307020
 20
29.814780
 30
0.0
 10
131.135640
 20
29.517800
 30
0.0
 10
130.905500
 20
29.262770
 30
0.0
 10
130.627520
 20
29.061380
 30
0.0
 10
130.313760
 20
28.921960
 30
0.0
 10
129.977020
 20
28.850560
 30
0.0
  0
LWPOLYLINE
  5
106
100
AcDbEntity
  8
Layer_1
 62
7
100
AcDbPolyline
 90
30
 70
1
 10
136.298460
 20
11.378060
 30
0.0
 10
135.932710
 20
11.496700
 30
0.0
 10
135.599000
 20
11.688640
 30
0.0
 10
135.311980
 20
11.946320
 30
0.0
 10
135.085600
 20
12.257650
 30
0.0
 10
134.929290
 20
12.609030
 30
0.0
 10
134.848690
 20
12.985350
 30
0.0
 10
134.848690
 20
13.370060
 30
0.0
 10
134.929290
 20
13.746380
 30
0.0
 10
135.085600
 20
14.097770
 30
0.0
 10
135.311980
 20
14.409100
 30
0.0
 10
135.599000
 20
14.666780
 30
0.0
 10
135.932710
 20
14.859100
 30
0.0
 10
136.298460
 20
14.977730
 30
0.0
 10
136.682130
 20
15.017830
 30
0.0
 10
137.065830
 20
14.977730
 30
0.0
 10
137.431580
 20
14.859100
 30
0.0
 10
137.765300
 20
14.666780
 30
0.0
 10
138.052320
 20
14.409100
 30
0.0
 10
138.278700
 20
14.097770
 30
0.0
 10
138.435010
 20
13.746380
 30
0.0
 10
138.515610
 20
13.370060
 30
0.0
 10
138.515610
 20
12.985350
 30
0.0
 10
138.435010
 20
12.609030
 30
0.0
 10
138.278700
 20
12.257650
 30
0.0
 10
138.052320
 20
11.946320
 30
0.0
 10
137.765300
 20
11.688640
 30
0.0
 10
137.431580
 20
11.496700
 30
0.0
 10
137.065830
 20
11.378060
 30
0.0
 10
136.682130
 20
11.337960
 30
0.0
  0
LWPOLYLINE
  5
107
100
AcDbEntity
  8
Layer_1
 62
7
100
AcDbPolyline
 90
30
 70
1
 10
11.724979
 20
8.394480
 30
0.0
 10
11.358485
 20
8.513120
 30
0.0
 10
11.024760
 20
8.705060
 30
0.0
 10
10.738496
 20
8.962360
 30
0.0
 10
10.511743
 20
9.273690
 30
0.0
 10
10.355051
 20
9.625070
 30
0.0
 10
10.274821
 20
10.001390
 30
0.0
 10
10.274821
 20
10.386060
 30
0.0
 10
10.355051
 20
10.762380
 30
0.0
 10
10.511743
 20
11.113770
 30
0.0
 10
10.738496
 20
11.425100
 30
0.0
 10
11.024760
 20
11.682780
 30
0.0
 10
11.358485
 20
11.875100
 30
0.0
 10
11.724979
 20
11.993740
 30
0.0
 10
12.108310
 20
12.033840
 30
0.0
 10
12.491604
 20
11.993740
 30
0.0
 10
12.858097
 20
11.875100
 30
0.0
 10
13.191821
 20
11.682780
 30
0.0
 10
13.478086
 20
11.425100
 30
0.0
 10
13.704462
 20
11.113770
 30
0.0
 10
13.861531
 20
10.762380
 30
0.0
 10
13.941761
 20
10.386060
 30
0.0
 10
13.941761
 20
10.001390
 30
0.0
 10
13.861531
 20
9.625070
 30
0.0
 10
13.704462
 20
9.273690
 30
0.0
 10
13.478086
 20
8.962360
 30
0.0
 10
13.191821
 20
8.705060
 30
0.0
 10
12.858097
 20
8.513120
 30
0.0
 10
12.491604
 20
8.394480
 30
0.0
 10
12.108310
 20
8.354380
 30
0.0
  0
ENDSEC
  0
SECTION
  2
OBJECTS
  0
DICTIONARY
  5
C
330
0
100
AcDbDictionary
  3
ACAD_GROUP
350
D
  3
ACAD_MLINESTYLE
350
17
  0
DICTIONARY
  5
D
330
C
100
AcDbDictionary
  0
DICTIONARY
  5
1A
330
C
100
AcDbDictionary
  0
DICTIONARY
  5
17
330
C
100
AcDbDictionary
  3
STANDARD
350
18
  0
DICTIONARY
  5
19
330
C
100
AcDbDictionary
  0
ENDSEC
  0
EOF
