  0
SECTION
  2
HEADER
  9
$ACADVER
  1
AC1014
  9
$HANDSEED
  5
FFFF
  9
$MEASUREMENT
 70
     1
  0
ENDSEC
  0
SECTION
  2
TABLES
  0
TABLE
  2
VPORT
  5
8
330
0
100
AcDbSymbolTable
 70
     4
  0
VPORT
  5
2E
330
8
100
AcDbSymbolTableRecord
100
AcDbViewportTableRecord
  2
*ACTIVE
 70
     0
 10
0.0
 20
0.0
 11
1.0
 21
1.0
 12
210.0
 22
148.5
 13
0.0
 23
0.0
 14
10.0
 24
10.0
 15
10.0
 25
10.0
 16
0.0
 26
0.0
 36
1.0
 17
0.0
 27
0.0
 37
0.0
 40
341.0
 41
1.24
 42
50.0
 43
0.0
 44
0.0
 50
0.0
 51
0.0
 71
     0
 72
   100
 73
     1
 74
     3
 75
     0
 76
     0
 77
     0
 78
     0
  0
ENDTAB
  0
TABLE
  2
LTYPE
  5
5
330
0
100
AcDbSymbolTable
 70
     1
  0
LTYPE
  5
14
330
5
100
AcDbSymbolTableRecord
100
AcDbLinetypeTableRecord
  2
BYBLOCK
 70
     0
  3

 72
    65
 73
     0
 40
0.0
  0
LTYPE
  5
15
330
5
100
AcDbSymbolTableRecord
100
AcDbLinetypeTableRecord
  2
BYLAYER
 70
     0
  3

 72
    65
 73
     0
 40
0.0
  0
LTYPE
  5
16
330
5
100
AcDbSymbolTableRecord
100
AcDbLinetypeTableRecord
  2
CONTINUOUS
 70
     0
  3
Solid line
 72
    65
 73
     0
 40
0.0
  0
ENDTAB
  0
TABLE
  2
LAYER
  5
2
100
AcDbSymbolTable
 70
2
  0
LAYER
  5
50
100
AcDbSymbolTableRecord
100
AcDbLayerTableRecord
  2
0
 70
0
  6
CONTINUOUS
  0
LAYER
  5
51
100
AcDbSymbolTableRecord
100
AcDbLayerTableRecord
  2
Layer_1
 70
0
  6
CONTINUOUS
  0
ENDTAB
  0
TABLE
  2
STYLE
  5
3
330
0
100
AcDbSymbolTable
 70
     1
  0
STYLE
  5
11
330
3
100
AcDbSymbolTableRecord
100
AcDbTextStyleTableRecord
  2
STANDARD
 70
     0
 40
0.0
 41
1.0
 50
0.0
 71
     0
 42
2.5
  3
txt
  4

  0
ENDTAB
  0
TABLE
  2
VIEW
  5
6
330
0
100
AcDbSymbolTable
 70
     0
  0
ENDTAB
  0
TABLE
  2
UCS
  5
7
330
0
100
AcDbSymbolTable
 70
     0
  0
ENDTAB
  0
TABLE
  2
APPID
  5
9
330
0
100
AcDbSymbolTable
 70
     2
  0
APPID
  5
12
330
9
100
AcDbSymbolTableRecord
100
AcDbRegAppTableRecord
  2
ACAD
 70
     0
  0
ENDTAB
  0
TABLE
  2
DIMSTYLE
  5
A
330
0
100
AcDbSymbolTable
 70
     1
  0
DIMSTYLE
105
27
330
A
100
AcDbSymbolTableRecord
100
AcDbDimStyleTableRecord
  2
ISO-25
 70
     0
  3

  4

  5

  6

  7

 40
1.0
 41
2.5
 42
0.625
 43
3.75
 44
1.25
 45
0.0
 46
0.0
 47
0.0
 48
0.0
140
2.5
141
2.5
142
0.0
143
0.03937007874016
144
1.0
145
0.0
146
1.0
147
0.625
 71
     0
 72
     0
 73
     0
 74
     0
 75
     0
 76
     0
 77
     1
 78
     8
170
     0
171
     3
172
     1
173
     0
174
     0
175
     0
176
     0
177
     0
178
     0
270
     2
271
     2
272
     2
273
     2
274
     3
340
11
275
     0
280
     0
281
     0
282
     0
283
     0
284
     8
285
     0
286
     0
287
     3
288
     0
  0
ENDTAB
  0
TABLE
  2
BLOCK_RECORD
  5
1
330
0
100
AcDbSymbolTable
 70
     1
  0
BLOCK_RECORD
  5
1F
330
1
100
AcDbSymbolTableRecord
100
AcDbBlockTableRecord
  2
*MODEL_SPACE
  0
BLOCK_RECORD
  5
1B
330
1
100
AcDbSymbolTableRecord
100
AcDbBlockTableRecord
  2
*PAPER_SPACE
  0
ENDTAB
  0
ENDSEC
  0
SECTION
  2
BLOCKS
  0
BLOCK
  5
20
330
1F
100
AcDbEntity
  8
0
100
AcDbBlockBegin
  2
*MODEL_SPACE
 70
     0
 10
0.0
 20
0.0
 30
0.0
  3
*MODEL_SPACE
  1

  0
ENDBLK
  5
21
330
1F
100
AcDbEntity
  8
0
100
AcDbBlockEnd
  0
BLOCK
  5
1C
330
1B
100
AcDbEntity
 67
     1
  8
0
100
AcDbBlockBegin
  2
*PAPER_SPACE
  1

  0
ENDBLK
  5
1D
330
1B
100
AcDbEntity
 67
     1
  8
0
100
AcDbBlockEnd
  0
ENDSEC
  0
SECTION
  2
ENTITIES
  0
LWPOLYLINE
  5
100
100
AcDbEntity
  8
Layer_1
 62
7
100
AcDbPolyline
 90
4
 70
1
 10
149.750840
 20
142.750850
 30
0.0
 10
0.249149
 20
142.750850
 30
0.0
 10
0.249149
 20
0.249150
 30
0.0
 10
149.750840
 20
0.249150
 30
0.0
  0
LWPOLYLINE
  5
101
100
AcDbEntity
  8
Layer_1
 62
7
100
AcDbPolyline
 90
30
 70
1
 10
144.574720
 20
135.835140
 30
0.0
 10
144.197680
 20
135.915240
 30
0.0
 10
143.845470
 20
136.072060
 30
0.0
 10
143.533570
 20
136.298410
 30
0.0
 10
143.275530
 20
136.584460
 30
0.0
 10
143.082670
 20
136.918120
 30
0.0
 10
142.963630
 20
137.284670
 30
0.0
 10
142.923330
 20
137.667910
 30
0.0
 10
142.963630
 20
138.051190
 30
0.0
 10
143.082670
 20
138.417730
 30
0.0
 10
143.275530
 20
138.751390
 30
0.0
 10
143.533570
 20
139.037450
 30
0.0
 10
143.845470
 20
139.264170
 30
0.0
 10
144.197680
 20
139.420990
 30
0.0
 10
144.574720
 20
139.501090
 30
0.0
 10
144.960240
 20
139.501090
 30
0.0
 10
145.337270
 20
139.420990
 30
0.0
 10
145.689480
 20
139.264170
 30
0.0
 10
146.001390
 20
139.037450
 30
0.0
 10
146.259430
 20
138.751390
 30
0.0
 10
146.452300
 20
138.417730
 30
0.0
 10
146.571340
 20
138.051190
 30
0.0
 10
146.611640
 20
137.667910
 30
0.0
 10
146.571340
 20
137.284670
 30
0.0
 10
146.452300
 20
136.918120
 30
0.0
 10
146.259430
 20
136.584460
 30
0.0
 10
146.001390
 20
136.298410
 30
0.0
 10
145.689480
 20
136.072060
 30
0.0
 10
145.337270
 20
135.915240
 30
0.0
 10
144.960240
 20
135.835140
 30
0.0
  0
LWPOLYLINE
  5
102
100
AcDbEntity
  8
Layer_1
 62
7
100
AcDbPolyline
 90
30
 70
1
 10
64.840469
 20
135.835140
 30
0.0
 10
64.463439
 20
135.915240
 30
0.0
 10
64.111219
 20
136.072060
 30
0.0
 10
63.799319
 20
136.298410
 30
0.0
 10
63.541279
 20
136.584460
 30
0.0
 10
63.348409
 20
136.918120
 30
0.0
 10
63.229369
 20
137.284670
 30
0.0
 10
63.189069
 20
137.667910
 30
0.0
 10
63.229369
 20
138.051190
 30
0.0
 10
63.348409
 20
138.417730
 30
0.0
 10
63.541279
 20
138.751390
 30
0.0
 10
63.799319
 20
139.038200
 30
0.0
 10
64.111219
 20
139.264930
 30
0.0
 10
64.463439
 20
139.421750
 30
0.0
 10
64.840469
 20
139.501850
 30
0.0
 10
65.225989
 20
139.501850
 30
0.0
 10
65.603019
 20
139.421750
 30
0.0
 10
65.955229
 20
139.264930
 30
0.0
 10
66.267129
 20
139.038200
 30
0.0
 10
66.525169
 20
138.751390
 30
0.0
 10
66.718039
 20
138.417730
 30
0.0
 10
66.837079
 20
138.051190
 30
0.0
 10
66.877379
 20
137.667910
 30
0.0
 10
66.837079
 20
137.284670
 30
0.0
 10
66.718039
 20
136.918120
 30
0.0
 10
66.525169
 20
136.584460
 30
0.0
 10
66.267129
 20
136.298410
 30
0.0
 10
65.955229
 20
136.072060
 30
0.0
 10
65.603019
 20
135.915240
 30
0.0
 10
65.225989
 20
135.835140
 30
0.0
  0
LWPOLYLINE
  5
103
100
AcDbEntity
  8
Layer_1
 62
7
100
AcDbPolyline
 90
30
 70
1
 10
5.040209
 20
135.835140
 30
0.0
 10
4.662449
 20
135.915240
 30
0.0
 10
4.310619
 20
136.072060
 30
0.0
 10
3.998709
 20
136.298410
 30
0.0
 10
3.740669
 20
136.584460
 30
0.0
 10
3.548179
 20
136.918120
 30
0.0
 10
3.428759
 20
137.284670
 30
0.0
 10
3.388859
 20
137.667910
 30
0.0
 10
3.428759
 20
138.051190
 30
0.0
 10
3.548179
 20
138.417730
 30
0.0
 10
3.740669
 20
138.751390
 30
0.0
 10
3.998709
 20
139.038200
 30
0.0
 10
4.310619
 20
139.264930
 30
0.0
 10
4.662449
 20
139.421750
 30
0.0
 10
5.040209
 20
139.501850
 30
0.0
 10
5.424929
 20
139.501850
 30
0.0
 10
5.802639
 20
139.421750
 30
0.0
 10
6.154479
 20
139.264930
 30
0.0
 10
6.466379
 20
139.038200
 30
0.0
 10
6.724419
 20
138.751390
 30
0.0
 10
6.916909
 20
138.417730
 30
0.0
 10
7.036319
 20
138.051190
 30
0.0
 10
7.076219
 20
137.667910
 30
0.0
 10
7.036319
 20
137.284670
 30
0.0
 10
6.916909
 20
136.918120
 30
0.0
 10
6.724419
 20
136.584460
 30
0.0
 10
6.466379
 20
136.298410
 30
0.0
 10
6.154479
 20
136.072060
 30
0.0
 10
5.802639
 20
135.915240
 30
0.0
 10
5.424929
 20
135.835140
 30
0.0
  0
LWPOLYLINE
  5
104
100
AcDbEntity
  8
Layer_1
 62
7
100
AcDbPolyline
 90
30
 70
1
 10
144.574720
 20
4.295000
 30
0.0
 10
144.197680
 20
4.375700
 30
0.0
 10
143.845470
 20
4.532140
 30
0.0
 10
143.533570
 20
4.758340
 30
0.0
 10
143.275530
 20
5.045340
 30
0.0
 10
143.082670
 20
5.379190
 30
0.0
 10
142.963630
 20
5.744900
 30
0.0
 10
142.923330
 20
6.128560
 30
0.0
 10
142.963630
 20
6.512220
 30
0.0
 10
143.082670
 20
6.877920
 30
0.0
 10
143.275530
 20
7.211740
 30
0.0
 10
143.533570
 20
7.498740
 30
0.0
 10
143.845470
 20
7.724940
 30
0.0
 10
144.197680
 20
7.881380
 30
0.0
 10
144.574760
 20
7.962080
 30
0.0
 10
144.960270
 20
7.962080
 30
0.0
 10
145.337310
 20
7.881380
 30
0.0
 10
145.689520
 20
7.724940
 30
0.0
 10
146.001430
 20
7.498740
 30
0.0
 10
146.259470
 20
7.211740
 30
0.0
 10
146.452340
 20
6.877920
 30
0.0
 10
146.571370
 20
6.512220
 30
0.0
 10
146.611670
 20
6.128560
 30
0.0
 10
146.571370
 20
5.744900
 30
0.0
 10
146.452340
 20
5.379190
 30
0.0
 10
146.259470
 20
5.045340
 30
0.0
 10
146.001430
 20
4.758340
 30
0.0
 10
145.689520
 20
4.532140
 30
0.0
 10
145.337310
 20
4.375700
 30
0.0
 10
144.960270
 20
4.295000
 30
0.0
  0
LWPOLYLINE
  5
105
100
AcDbEntity
  8
Layer_1
 62
7
100
AcDbPolyline
 90
30
 70
1
 10
84.774039
 20
4.295000
 30
0.0
 10
84.396999
 20
4.375700
 30
0.0
 10
84.044789
 20
4.532140
 30
0.0
 10
83.732889
 20
4.758340
 30
0.0
 10
83.474859
 20
5.045340
 30
0.0
 10
83.281989
 20
5.379190
 30
0.0
 10
83.162949
 20
5.744900
 30
0.0
 10
83.122649
 20
6.128560
 30
0.0
 10
83.162949
 20
6.512220
 30
0.0
 10
83.281989
 20
6.877920
 30
0.0
 10
83.474859
 20
7.211740
 30
0.0
 10
83.732889
 20
7.498740
 30
0.0
 10
84.044789
 20
7.724940
 30
0.0
 10
84.396999
 20
7.881380
 30
0.0
 10
84.774039
 20
7.962080
 30
0.0
 10
85.159549
 20
7.962080
 30
0.0
 10
85.536589
 20
7.881380
 30
0.0
 10
85.888799
 20
7.724940
 30
0.0
 10
86.200709
 20
7.498740
 30
0.0
 10
86.458749
 20
7.211740
 30
0.0
 10
86.651619
 20
6.877920
 30
0.0
 10
86.770659
 20
6.512220
 30
0.0
 10
86.810959
 20
6.128560
 30
0.0
 10
86.770659
 20
5.744900
 30
0.0
 10
86.651619
 20
5.379190
 30
0.0
 10
86.458749
 20
5.045340
 30
0.0
 10
86.200709
 20
4.758340
 30
0.0
 10
85.888799
 20
4.532140
 30
0.0
 10
85.536589
 20
4.375700
 30
0.0
 10
85.159549
 20
4.295000
 30
0.0
  0
LWPOLYLINE
  5
106
100
AcDbEntity
  8
Layer_1
 62
7
100
AcDbPolyline
 90
30
 70
1
 10
5.040209
 20
4.295000
 30
0.0
 10
4.662449
 20
4.375700
 30
0.0
 10
4.310619
 20
4.532140
 30
0.0
 10
3.998709
 20
4.758340
 30
0.0
 10
3.740669
 20
5.045340
 30
0.0
 10
3.548179
 20
5.379190
 30
0.0
 10
3.428759
 20
5.744900
 30
0.0
 10
3.388859
 20
6.128560
 30
0.0
 10
3.428759
 20
6.512220
 30
0.0
 10
3.548179
 20
6.877920
 30
0.0
 10
3.740669
 20
7.211740
 30
0.0
 10
3.998709
 20
7.498740
 30
0.0
 10
4.310619
 20
7.724940
 30
0.0
 10
4.662449
 20
7.881380
 30
0.0
 10
5.040209
 20
7.962080
 30
0.0
 10
5.424929
 20
7.962080
 30
0.0
 10
5.802639
 20
7.881380
 30
0.0
 10
6.154479
 20
7.724940
 30
0.0
 10
6.466379
 20
7.498740
 30
0.0
 10
6.724419
 20
7.211740
 30
0.0
 10
6.916909
 20
6.877920
 30
0.0
 10
7.036319
 20
6.512220
 30
0.0
 10
7.076219
 20
6.128560
 30
0.0
 10
7.036319
 20
5.744900
 30
0.0
 10
6.916909
 20
5.379190
 30
0.0
 10
6.724419
 20
5.045340
 30
0.0
 10
6.466379
 20
4.758340
 30
0.0
 10
6.154479
 20
4.532140
 30
0.0
 10
5.802639
 20
4.375700
 30
0.0
 10
5.424929
 20
4.295000
 30
0.0
  0
ENDSEC
  0
SECTION
  2
OBJECTS
  0
DICTIONARY
  5
C
330
0
100
AcDbDictionary
  3
ACAD_GROUP
350
D
  3
ACAD_MLINESTYLE
350
17
  0
DICTIONARY
  5
D
330
C
100
AcDbDictionary
  0
DICTIONARY
  5
1A
330
C
100
AcDbDictionary
  0
DICTIONARY
  5
17
330
C
100
AcDbDictionary
  3
STANDARD
350
18
  0
DICTIONARY
  5
19
330
C
100
AcDbDictionary
  0
ENDSEC
  0
EOF
