solid OpenSCAD_Model
  facet normal 1 0 0
    outer loop
      vertex 16.3363 -0.2 1.2
      vertex 16.3363 -4 0
      vertex 16.3363 -0.2 0
    endloop
  endfacet
  facet normal 1 -0 0
    outer loop
      vertex 16.3363 -5 1.2
      vertex 16.3363 -4 0
      vertex 16.3363 -0.2 1.2
    endloop
  endfacet
  facet normal 1 0 0
    outer loop
      vertex 16.3363 -4 0
      vertex 16.3363 -5 1.2
      vertex 16.3363 -5 1
    endloop
  endfacet
  facet normal -0 0 1
    outer loop
      vertex 2.17613 -0.2 3
      vertex 2.85042 -5 3
      vertex 2.85042 -0.2 3
    endloop
  endfacet
  facet normal 0 0 1
    outer loop
      vertex 2.85042 -5 3
      vertex 2.17613 -0.2 3
      vertex 2.17613 -5 3
    endloop
  endfacet
  facet normal 0.939694 -0 0.342017
    outer loop
      vertex 2.85042 -5 3
      vertex 3.50556 -0.2 1.2
      vertex 2.85042 -0.2 3
    endloop
  endfacet
  facet normal 0.939694 0 0.342017
    outer loop
      vertex 3.50556 -0.2 1.2
      vertex 2.85042 -5 3
      vertex 3.50556 -5 1.2
    endloop
  endfacet
  facet normal -0 0 1
    outer loop
      vertex 3.50556 -0.2 1.2
      vertex 4.03426 -5 1.2
      vertex 4.03426 -0.2 1.2
    endloop
  endfacet
  facet normal 0 0 1
    outer loop
      vertex 4.03426 -5 1.2
      vertex 3.50556 -0.2 1.2
      vertex 3.50556 -5 1.2
    endloop
  endfacet
  facet normal -0.939692 0 0.342022
    outer loop
      vertex 4.03426 -5 1.2
      vertex 4.68941 -0.2 3
      vertex 4.03426 -0.2 1.2
    endloop
  endfacet
  facet normal -0.939692 0 0.342022
    outer loop
      vertex 4.68941 -0.2 3
      vertex 4.03426 -5 1.2
      vertex 4.68941 -5 3
    endloop
  endfacet
  facet normal -0 0 1
    outer loop
      vertex 4.68941 -0.2 3
      vertex 5.36369 -5 3
      vertex 5.36369 -0.2 3
    endloop
  endfacet
  facet normal 0 0 1
    outer loop
      vertex 5.36369 -5 3
      vertex 4.68941 -0.2 3
      vertex 4.68941 -5 3
    endloop
  endfacet
  facet normal 0.939692 -0 0.342022
    outer loop
      vertex 5.36369 -5 3
      vertex 6.01884 -0.2 1.2
      vertex 5.36369 -0.2 3
    endloop
  endfacet
  facet normal 0.939692 0 0.342022
    outer loop
      vertex 6.01884 -0.2 1.2
      vertex 5.36369 -5 3
      vertex 6.01884 -5 1.2
    endloop
  endfacet
  facet normal -0 0 1
    outer loop
      vertex 6.01884 -0.2 1.2
      vertex 6.54753 -5 1.2
      vertex 6.54753 -0.2 1.2
    endloop
  endfacet
  facet normal 0 0 1
    outer loop
      vertex 6.54753 -5 1.2
      vertex 6.01884 -0.2 1.2
      vertex 6.01884 -5 1.2
    endloop
  endfacet
  facet normal -0.939692 0 0.342022
    outer loop
      vertex 6.54753 -5 1.2
      vertex 7.20268 -0.2 3
      vertex 6.54753 -0.2 1.2
    endloop
  endfacet
  facet normal -0.939692 0 0.342022
    outer loop
      vertex 7.20268 -0.2 3
      vertex 6.54753 -5 1.2
      vertex 7.20268 -5 3
    endloop
  endfacet
  facet normal -0 0 1
    outer loop
      vertex 7.20268 -0.2 3
      vertex 7.87696 -5 3
      vertex 7.87696 -0.2 3
    endloop
  endfacet
  facet normal 0 0 1
    outer loop
      vertex 7.87696 -5 3
      vertex 7.20268 -0.2 3
      vertex 7.20268 -5 3
    endloop
  endfacet
  facet normal 0.939692 -0 0.342022
    outer loop
      vertex 7.87696 -5 3
      vertex 8.53211 -0.2 1.2
      vertex 7.87696 -0.2 3
    endloop
  endfacet
  facet normal 0.939692 0 0.342022
    outer loop
      vertex 8.53211 -0.2 1.2
      vertex 7.87696 -5 3
      vertex 8.53211 -5 1.2
    endloop
  endfacet
  facet normal -0 0 1
    outer loop
      vertex 8.53211 -0.2 1.2
      vertex 9.06081 -5 1.2
      vertex 9.06081 -0.2 1.2
    endloop
  endfacet
  facet normal 0 0 1
    outer loop
      vertex 9.06081 -5 1.2
      vertex 8.53211 -0.2 1.2
      vertex 8.53211 -5 1.2
    endloop
  endfacet
  facet normal -0.939694 0 0.342017
    outer loop
      vertex 9.06081 -5 1.2
      vertex 9.71595 -0.2 3
      vertex 9.06081 -0.2 1.2
    endloop
  endfacet
  facet normal -0.939694 0 0.342017
    outer loop
      vertex 9.71595 -0.2 3
      vertex 9.06081 -5 1.2
      vertex 9.71595 -5 3
    endloop
  endfacet
  facet normal -0 0 1
    outer loop
      vertex 9.71595 -0.2 3
      vertex 10.3902 -5 3
      vertex 10.3902 -0.2 3
    endloop
  endfacet
  facet normal 0 0 1
    outer loop
      vertex 10.3902 -5 3
      vertex 9.71595 -0.2 3
      vertex 9.71595 -5 3
    endloop
  endfacet
  facet normal 0.939684 -0 0.342045
    outer loop
      vertex 10.3902 -5 3
      vertex 11.0454 -0.2 1.2
      vertex 10.3902 -0.2 3
    endloop
  endfacet
  facet normal 0.939684 0 0.342045
    outer loop
      vertex 11.0454 -0.2 1.2
      vertex 10.3902 -5 3
      vertex 11.0454 -5 1.2
    endloop
  endfacet
  facet normal -0 0 1
    outer loop
      vertex 11.0454 -0.2 1.2
      vertex 11.5741 -5 1.2
      vertex 11.5741 -0.2 1.2
    endloop
  endfacet
  facet normal 0 0 1
    outer loop
      vertex 11.5741 -5 1.2
      vertex 11.0454 -0.2 1.2
      vertex 11.0454 -5 1.2
    endloop
  endfacet
  facet normal -0.9397 0 0.341999
    outer loop
      vertex 11.5741 -5 1.2
      vertex 12.2292 -0.2 3
      vertex 11.5741 -0.2 1.2
    endloop
  endfacet
  facet normal -0.9397 0 0.341999
    outer loop
      vertex 12.2292 -0.2 3
      vertex 11.5741 -5 1.2
      vertex 12.2292 -5 3
    endloop
  endfacet
  facet normal -0 0 1
    outer loop
      vertex 12.2292 -0.2 3
      vertex 12.9035 -5 3
      vertex 12.9035 -0.2 3
    endloop
  endfacet
  facet normal 0 0 1
    outer loop
      vertex 12.9035 -5 3
      vertex 12.2292 -0.2 3
      vertex 12.2292 -5 3
    endloop
  endfacet
  facet normal 0.939684 -0 0.342045
    outer loop
      vertex 12.9035 -5 3
      vertex 13.5587 -0.2 1.2
      vertex 12.9035 -0.2 3
    endloop
  endfacet
  facet normal 0.939684 0 0.342045
    outer loop
      vertex 13.5587 -0.2 1.2
      vertex 12.9035 -5 3
      vertex 13.5587 -5 1.2
    endloop
  endfacet
  facet normal -0 0 1
    outer loop
      vertex 13.5587 -0.2 1.2
      vertex 14.0874 -5 1.2
      vertex 14.0874 -0.2 1.2
    endloop
  endfacet
  facet normal 0 0 1
    outer loop
      vertex 14.0874 -5 1.2
      vertex 13.5587 -0.2 1.2
      vertex 13.5587 -5 1.2
    endloop
  endfacet
  facet normal -0.9397 0 0.341999
    outer loop
      vertex 14.0874 -5 1.2
      vertex 14.7425 -0.2 3
      vertex 14.0874 -0.2 1.2
    endloop
  endfacet
  facet normal -0.9397 0 0.341999
    outer loop
      vertex 14.7425 -0.2 3
      vertex 14.0874 -5 1.2
      vertex 14.7425 -5 3
    endloop
  endfacet
  facet normal -0 0 1
    outer loop
      vertex 14.7425 -0.2 3
      vertex 15.4168 -5 3
      vertex 15.4168 -0.2 3
    endloop
  endfacet
  facet normal 0 0 1
    outer loop
      vertex 15.4168 -5 3
      vertex 14.7425 -0.2 3
      vertex 14.7425 -5 3
    endloop
  endfacet
  facet normal 0.9397 -0 0.341999
    outer loop
      vertex 15.4168 -5 3
      vertex 16.0719 -0.2 1.2
      vertex 15.4168 -0.2 3
    endloop
  endfacet
  facet normal 0.9397 0 0.341999
    outer loop
      vertex 16.0719 -0.2 1.2
      vertex 15.4168 -5 3
      vertex 16.0719 -5 1.2
    endloop
  endfacet
  facet normal -0 0 1
    outer loop
      vertex 16.0719 -0.2 1.2
      vertex 16.3363 -5 1.2
      vertex 16.3363 -0.2 1.2
    endloop
  endfacet
  facet normal 0 0 1
    outer loop
      vertex 16.3363 -5 1.2
      vertex 16.0719 -0.2 1.2
      vertex 16.0719 -5 1.2
    endloop
  endfacet
  facet normal -0 0 1
    outer loop
      vertex -11.3097 -0.2 1.2
      vertex -11.0454 -5 1.2
      vertex -11.0454 -0.2 1.2
    endloop
  endfacet
  facet normal 0 0 1
    outer loop
      vertex -11.0454 -5 1.2
      vertex -11.3097 -0.2 1.2
      vertex -11.3097 -5 1.2
    endloop
  endfacet
  facet normal -0.939684 0 0.342045
    outer loop
      vertex -11.0454 -5 1.2
      vertex -10.3902 -0.2 3
      vertex -11.0454 -0.2 1.2
    endloop
  endfacet
  facet normal -0.939684 0 0.342045
    outer loop
      vertex -10.3902 -0.2 3
      vertex -11.0454 -5 1.2
      vertex -10.3902 -5 3
    endloop
  endfacet
  facet normal -0 0 1
    outer loop
      vertex -10.3902 -0.2 3
      vertex -9.71595 -5 3
      vertex -9.71595 -0.2 3
    endloop
  endfacet
  facet normal 0 0 1
    outer loop
      vertex -9.71595 -5 3
      vertex -10.3902 -0.2 3
      vertex -10.3902 -5 3
    endloop
  endfacet
  facet normal 0.939694 -0 0.342017
    outer loop
      vertex -9.71595 -5 3
      vertex -9.06081 -0.2 1.2
      vertex -9.71595 -0.2 3
    endloop
  endfacet
  facet normal 0.939694 0 0.342017
    outer loop
      vertex -9.06081 -0.2 1.2
      vertex -9.71595 -5 3
      vertex -9.06081 -5 1.2
    endloop
  endfacet
  facet normal -0 0 1
    outer loop
      vertex -9.06081 -0.2 1.2
      vertex -8.53211 -5 1.2
      vertex -8.53211 -0.2 1.2
    endloop
  endfacet
  facet normal 0 0 1
    outer loop
      vertex -8.53211 -5 1.2
      vertex -9.06081 -0.2 1.2
      vertex -9.06081 -5 1.2
    endloop
  endfacet
  facet normal -0.939692 0 0.342022
    outer loop
      vertex -8.53211 -5 1.2
      vertex -7.87696 -0.2 3
      vertex -8.53211 -0.2 1.2
    endloop
  endfacet
  facet normal -0.939692 0 0.342022
    outer loop
      vertex -7.87696 -0.2 3
      vertex -8.53211 -5 1.2
      vertex -7.87696 -5 3
    endloop
  endfacet
  facet normal -0 0 1
    outer loop
      vertex -7.87696 -0.2 3
      vertex -7.20268 -5 3
      vertex -7.20268 -0.2 3
    endloop
  endfacet
  facet normal 0 0 1
    outer loop
      vertex -7.20268 -5 3
      vertex -7.87696 -0.2 3
      vertex -7.87696 -5 3
    endloop
  endfacet
  facet normal 0.939692 -0 0.342022
    outer loop
      vertex -7.20268 -5 3
      vertex -6.54753 -0.2 1.2
      vertex -7.20268 -0.2 3
    endloop
  endfacet
  facet normal 0.939692 0 0.342022
    outer loop
      vertex -6.54753 -0.2 1.2
      vertex -7.20268 -5 3
      vertex -6.54753 -5 1.2
    endloop
  endfacet
  facet normal -0 0 1
    outer loop
      vertex -6.54753 -0.2 1.2
      vertex -6.01884 -5 1.2
      vertex -6.01884 -0.2 1.2
    endloop
  endfacet
  facet normal 0 0 1
    outer loop
      vertex -6.01884 -5 1.2
      vertex -6.54753 -0.2 1.2
      vertex -6.54753 -5 1.2
    endloop
  endfacet
  facet normal -0.939692 0 0.342022
    outer loop
      vertex -6.01884 -5 1.2
      vertex -5.36369 -0.2 3
      vertex -6.01884 -0.2 1.2
    endloop
  endfacet
  facet normal -0.939692 0 0.342022
    outer loop
      vertex -5.36369 -0.2 3
      vertex -6.01884 -5 1.2
      vertex -5.36369 -5 3
    endloop
  endfacet
  facet normal -0 0 1
    outer loop
      vertex -5.36369 -0.2 3
      vertex -4.68941 -5 3
      vertex -4.68941 -0.2 3
    endloop
  endfacet
  facet normal 0 0 1
    outer loop
      vertex -4.68941 -5 3
      vertex -5.36369 -0.2 3
      vertex -5.36369 -5 3
    endloop
  endfacet
  facet normal 0.939692 -0 0.342022
    outer loop
      vertex -4.68941 -5 3
      vertex -4.03426 -0.2 1.2
      vertex -4.68941 -0.2 3
    endloop
  endfacet
  facet normal 0.939692 0 0.342022
    outer loop
      vertex -4.03426 -0.2 1.2
      vertex -4.68941 -5 3
      vertex -4.03426 -5 1.2
    endloop
  endfacet
  facet normal -0 0 1
    outer loop
      vertex -4.03426 -0.2 1.2
      vertex -3.50556 -5 1.2
      vertex -3.50556 -0.2 1.2
    endloop
  endfacet
  facet normal 0 0 1
    outer loop
      vertex -3.50556 -5 1.2
      vertex -4.03426 -0.2 1.2
      vertex -4.03426 -5 1.2
    endloop
  endfacet
  facet normal -0.939694 0 0.342017
    outer loop
      vertex -3.50556 -5 1.2
      vertex -2.85042 -0.2 3
      vertex -3.50556 -0.2 1.2
    endloop
  endfacet
  facet normal -0.939694 0 0.342017
    outer loop
      vertex -2.85042 -0.2 3
      vertex -3.50556 -5 1.2
      vertex -2.85042 -5 3
    endloop
  endfacet
  facet normal -0 0 1
    outer loop
      vertex -2.85042 -0.2 3
      vertex -2.17613 -5 3
      vertex -2.17613 -0.2 3
    endloop
  endfacet
  facet normal 0 0 1
    outer loop
      vertex -2.17613 -5 3
      vertex -2.85042 -0.2 3
      vertex -2.85042 -5 3
    endloop
  endfacet
  facet normal 0.939692 -0 0.342022
    outer loop
      vertex -2.17613 -5 3
      vertex -1.52098 -0.2 1.2
      vertex -2.17613 -0.2 3
    endloop
  endfacet
  facet normal 0.939692 0 0.342022
    outer loop
      vertex -1.52098 -0.2 1.2
      vertex -2.17613 -5 3
      vertex -1.52098 -5 1.2
    endloop
  endfacet
  facet normal -0 0 1
    outer loop
      vertex -1.52098 -0.2 1.2
      vertex -0.992289 -5 1.2
      vertex -0.992289 -0.2 1.2
    endloop
  endfacet
  facet normal 0 0 1
    outer loop
      vertex -0.992289 -5 1.2
      vertex -1.52098 -0.2 1.2
      vertex -1.52098 -5 1.2
    endloop
  endfacet
  facet normal -0.939693 0 0.34202
    outer loop
      vertex -0.992289 -5 1.2
      vertex -0.337142 -0.2 3
      vertex -0.992289 -0.2 1.2
    endloop
  endfacet
  facet normal -0.939693 0 0.34202
    outer loop
      vertex -0.337142 -0.2 3
      vertex -0.992289 -5 1.2
      vertex -0.337142 -5 3
    endloop
  endfacet
  facet normal -0 0 1
    outer loop
      vertex -0.337142 -0.2 3
      vertex 0.337142 -5 3
      vertex 0.337142 -0.2 3
    endloop
  endfacet
  facet normal 0 0 1
    outer loop
      vertex 0.337142 -5 3
      vertex -0.337142 -0.2 3
      vertex -0.337142 -5 3
    endloop
  endfacet
  facet normal 0.939693 -0 0.34202
    outer loop
      vertex 0.337142 -5 3
      vertex 0.992289 -0.2 1.2
      vertex 0.337142 -0.2 3
    endloop
  endfacet
  facet normal 0.939693 0 0.34202
    outer loop
      vertex 0.992289 -0.2 1.2
      vertex 0.337142 -5 3
      vertex 0.992289 -5 1.2
    endloop
  endfacet
  facet normal -0 0 1
    outer loop
      vertex 0.992289 -0.2 1.2
      vertex 1.52098 -5 1.2
      vertex 1.52098 -0.2 1.2
    endloop
  endfacet
  facet normal 0 0 1
    outer loop
      vertex 1.52098 -5 1.2
      vertex 0.992289 -0.2 1.2
      vertex 0.992289 -5 1.2
    endloop
  endfacet
  facet normal -0.939692 0 0.342022
    outer loop
      vertex 1.52098 -5 1.2
      vertex 2.17613 -0.2 3
      vertex 1.52098 -0.2 1.2
    endloop
  endfacet
  facet normal -0.939692 0 0.342022
    outer loop
      vertex 2.17613 -0.2 3
      vertex 1.52098 -5 1.2
      vertex 2.17613 -5 3
    endloop
  endfacet
  facet normal 0.358272 0.933617 -0
    outer loop
      vertex -12 -19.0274 0
      vertex -12.6903 -18.7625 2.19975
      vertex -12 -19.0274 2.19975
    endloop
  endfacet
  facet normal 0.358272 0.933617 0
    outer loop
      vertex -12.6903 -18.7625 2.19975
      vertex -12 -19.0274 0
      vertex -12.6903 -18.7625 0
    endloop
  endfacet
  facet normal 0 0 -1
    outer loop
      vertex -15.6903 -24.0378 0
      vertex -12 -19.0274 0
      vertex -12 -25.4543 0
    endloop
  endfacet
  facet normal -0 0 -1
    outer loop
      vertex -12 -19.0274 0
      vertex -15.6903 -24.0378 0
      vertex -12.6903 -18.7625 0
    endloop
  endfacet
  facet normal 0 0 -1
    outer loop
      vertex -15.6903 -7.3 0
      vertex -12.6903 -18.7625 0
      vertex -15.6903 -24.0378 0
    endloop
  endfacet
  facet normal 0 0 -1
    outer loop
      vertex -12.6903 -18.7625 0
      vertex -15.6903 -7.3 0
      vertex -12.6903 -7.3 0
    endloop
  endfacet
  facet normal 0 -0.707107 -0.707107
    outer loop
      vertex -15.6903 -4 0
      vertex 16.3363 -5 1
      vertex -15.6903 -5 1
    endloop
  endfacet
  facet normal 0 -0.707107 -0.707107
    outer loop
      vertex 16.3363 -5 1
      vertex -15.6903 -4 0
      vertex 16.3363 -4 0
    endloop
  endfacet
  facet normal 0 -1 0
    outer loop
      vertex -15.6903 -5 2.4
      vertex -12.6903 -5 2.3
      vertex -12.6903 -5 2.4
    endloop
  endfacet
  facet normal 0 -1 0
    outer loop
      vertex -12.6903 -5 2.3
      vertex -11.3097 -5 1.2
      vertex -11.3097 -5 2.3
    endloop
  endfacet
  facet normal 0 -1 0
    outer loop
      vertex -15.6903 -5 1
      vertex -12.6903 -5 2.3
      vertex -15.6903 -5 2.4
    endloop
  endfacet
  facet normal 0 -1 0
    outer loop
      vertex -15.6903 -5 1
      vertex -11.0454 -5 1.2
      vertex -11.3097 -5 1.2
    endloop
  endfacet
  facet normal 0 -1 -0
    outer loop
      vertex -11.0454 -5 1.2
      vertex -15.6903 -5 1
      vertex -9.06081 -5 1.2
    endloop
  endfacet
  facet normal 0 -1 -0
    outer loop
      vertex -9.06081 -5 1.2
      vertex -15.6903 -5 1
      vertex -8.53211 -5 1.2
    endloop
  endfacet
  facet normal 0 -1 -0
    outer loop
      vertex -8.53211 -5 1.2
      vertex -15.6903 -5 1
      vertex -6.54753 -5 1.2
    endloop
  endfacet
  facet normal 0 -1 -0
    outer loop
      vertex -6.54753 -5 1.2
      vertex -15.6903 -5 1
      vertex -6.01884 -5 1.2
    endloop
  endfacet
  facet normal 0 -1 -0
    outer loop
      vertex -6.01884 -5 1.2
      vertex -15.6903 -5 1
      vertex -4.03426 -5 1.2
    endloop
  endfacet
  facet normal 0 -1 -0
    outer loop
      vertex -4.03426 -5 1.2
      vertex -15.6903 -5 1
      vertex -3.50556 -5 1.2
    endloop
  endfacet
  facet normal 0 -1 -0
    outer loop
      vertex -3.50556 -5 1.2
      vertex -15.6903 -5 1
      vertex -1.52098 -5 1.2
    endloop
  endfacet
  facet normal 0 -1 -0
    outer loop
      vertex -1.52098 -5 1.2
      vertex -15.6903 -5 1
      vertex -0.992289 -5 1.2
    endloop
  endfacet
  facet normal 0 -1 -0
    outer loop
      vertex -0.992289 -5 1.2
      vertex -15.6903 -5 1
      vertex 0.992289 -5 1.2
    endloop
  endfacet
  facet normal 0 -1 -0
    outer loop
      vertex 0.992289 -5 1.2
      vertex -15.6903 -5 1
      vertex 1.52098 -5 1.2
    endloop
  endfacet
  facet normal 0 -1 -0
    outer loop
      vertex 1.52098 -5 1.2
      vertex -15.6903 -5 1
      vertex 3.50556 -5 1.2
    endloop
  endfacet
  facet normal 0 -1 -0
    outer loop
      vertex 3.50556 -5 1.2
      vertex -15.6903 -5 1
      vertex 4.03426 -5 1.2
    endloop
  endfacet
  facet normal 0 -1 -0
    outer loop
      vertex 4.03426 -5 1.2
      vertex -15.6903 -5 1
      vertex 6.01884 -5 1.2
    endloop
  endfacet
  facet normal 0 -1 0
    outer loop
      vertex 16.3363 -5 1
      vertex 6.01884 -5 1.2
      vertex -15.6903 -5 1
    endloop
  endfacet
  facet normal 0 -1 0
    outer loop
      vertex 6.01884 -5 1.2
      vertex 16.3363 -5 1
      vertex 6.54753 -5 1.2
    endloop
  endfacet
  facet normal 0 -1 0
    outer loop
      vertex 6.54753 -5 1.2
      vertex 16.3363 -5 1
      vertex 8.53211 -5 1.2
    endloop
  endfacet
  facet normal 0 -1 0
    outer loop
      vertex 9.06081 -5 1.2
      vertex 16.3363 -5 1
      vertex 11.0454 -5 1.2
    endloop
  endfacet
  facet normal 0 -1 0
    outer loop
      vertex 11.0454 -5 1.2
      vertex 16.3363 -5 1
      vertex 11.5741 -5 1.2
    endloop
  endfacet
  facet normal 0 -1 0
    outer loop
      vertex 11.5741 -5 1.2
      vertex 16.3363 -5 1
      vertex 13.5587 -5 1.2
    endloop
  endfacet
  facet normal 0 -1 0
    outer loop
      vertex 13.5587 -5 1.2
      vertex 16.3363 -5 1
      vertex 14.0874 -5 1.2
    endloop
  endfacet
  facet normal 0 -1 0
    outer loop
      vertex 14.0874 -5 1.2
      vertex 16.3363 -5 1
      vertex 16.0719 -5 1.2
    endloop
  endfacet
  facet normal 0 -1 -0
    outer loop
      vertex -12.6903 -5 2.3
      vertex -15.6903 -5 1
      vertex -11.3097 -5 1.2
    endloop
  endfacet
  facet normal 0 -1 0
    outer loop
      vertex 8.53211 -5 1.2
      vertex 16.3363 -5 1
      vertex 9.06081 -5 1.2
    endloop
  endfacet
  facet normal 0 -1 0
    outer loop
      vertex 16.0719 -5 1.2
      vertex 16.3363 -5 1
      vertex 16.3363 -5 1.2
    endloop
  endfacet
  facet normal 0 -1 0
    outer loop
      vertex -11.0454 -5 1.2
      vertex -9.71595 -5 3
      vertex -10.3902 -5 3
    endloop
  endfacet
  facet normal 0 -1 -0
    outer loop
      vertex -9.71595 -5 3
      vertex -11.0454 -5 1.2
      vertex -9.06081 -5 1.2
    endloop
  endfacet
  facet normal 0 -1 0
    outer loop
      vertex -8.53211 -5 1.2
      vertex -7.20268 -5 3
      vertex -7.87696 -5 3
    endloop
  endfacet
  facet normal 0 -1 -0
    outer loop
      vertex -7.20268 -5 3
      vertex -8.53211 -5 1.2
      vertex -6.54753 -5 1.2
    endloop
  endfacet
  facet normal 0 -1 0
    outer loop
      vertex -6.01884 -5 1.2
      vertex -4.68941 -5 3
      vertex -5.36369 -5 3
    endloop
  endfacet
  facet normal 0 -1 -0
    outer loop
      vertex -4.68941 -5 3
      vertex -6.01884 -5 1.2
      vertex -4.03426 -5 1.2
    endloop
  endfacet
  facet normal 0 -1 0
    outer loop
      vertex -3.50556 -5 1.2
      vertex -2.17613 -5 3
      vertex -2.85042 -5 3
    endloop
  endfacet
  facet normal 0 -1 -0
    outer loop
      vertex -2.17613 -5 3
      vertex -3.50556 -5 1.2
      vertex -1.52098 -5 1.2
    endloop
  endfacet
  facet normal 0 -1 0
    outer loop
      vertex -0.992289 -5 1.2
      vertex 0.337142 -5 3
      vertex -0.337142 -5 3
    endloop
  endfacet
  facet normal 0 -1 -0
    outer loop
      vertex 0.337142 -5 3
      vertex -0.992289 -5 1.2
      vertex 0.992289 -5 1.2
    endloop
  endfacet
  facet normal 0 -1 0
    outer loop
      vertex 1.52098 -5 1.2
      vertex 2.85042 -5 3
      vertex 2.17613 -5 3
    endloop
  endfacet
  facet normal 0 -1 -0
    outer loop
      vertex 2.85042 -5 3
      vertex 1.52098 -5 1.2
      vertex 3.50556 -5 1.2
    endloop
  endfacet
  facet normal 0 -1 0
    outer loop
      vertex 4.03426 -5 1.2
      vertex 5.36369 -5 3
      vertex 4.68941 -5 3
    endloop
  endfacet
  facet normal 0 -1 -0
    outer loop
      vertex 5.36369 -5 3
      vertex 4.03426 -5 1.2
      vertex 6.01884 -5 1.2
    endloop
  endfacet
  facet normal 0 -1 0
    outer loop
      vertex 6.54753 -5 1.2
      vertex 7.87696 -5 3
      vertex 7.20268 -5 3
    endloop
  endfacet
  facet normal 0 -1 -0
    outer loop
      vertex 7.87696 -5 3
      vertex 6.54753 -5 1.2
      vertex 8.53211 -5 1.2
    endloop
  endfacet
  facet normal 0 -1 0
    outer loop
      vertex 9.06081 -5 1.2
      vertex 10.3902 -5 3
      vertex 9.71595 -5 3
    endloop
  endfacet
  facet normal 0 -1 -0
    outer loop
      vertex 10.3902 -5 3
      vertex 9.06081 -5 1.2
      vertex 11.0454 -5 1.2
    endloop
  endfacet
  facet normal 0 -1 0
    outer loop
      vertex 11.5741 -5 1.2
      vertex 12.9035 -5 3
      vertex 12.2292 -5 3
    endloop
  endfacet
  facet normal 0 -1 -0
    outer loop
      vertex 12.9035 -5 3
      vertex 11.5741 -5 1.2
      vertex 13.5587 -5 1.2
    endloop
  endfacet
  facet normal 0 -1 0
    outer loop
      vertex 14.0874 -5 1.2
      vertex 15.4168 -5 3
      vertex 14.7425 -5 3
    endloop
  endfacet
  facet normal 0 -1 -0
    outer loop
      vertex 15.4168 -5 3
      vertex 14.0874 -5 1.2
      vertex 16.0719 -5 1.2
    endloop
  endfacet
  facet normal 0 0.707107 0.707107
    outer loop
      vertex -12.6903 -0.2 2.3
      vertex -15.6903 -2.2 4.3
      vertex -12.6903 -2.2 4.3
    endloop
  endfacet
  facet normal 0 0.707107 0.707107
    outer loop
      vertex -15.6903 -2.2 4.3
      vertex -12.6903 -0.2 2.3
      vertex -15.6903 -0.2 2.3
    endloop
  endfacet
  facet normal -0 0 1
    outer loop
      vertex -15.6903 -2.2 4.3
      vertex -12.6903 -8.2 4.3
      vertex -12.6903 -2.2 4.3
    endloop
  endfacet
  facet normal 0 0 1
    outer loop
      vertex -12.6903 -8.2 4.3
      vertex -15.6903 -2.2 4.3
      vertex -15.6903 -8.2 4.3
    endloop
  endfacet
  facet normal -1 0 0
    outer loop
      vertex -15.6903 -10.3 2.19975
      vertex -15.6903 -7.3 2.4
      vertex -15.6903 -7.3 0
    endloop
  endfacet
  facet normal -1 0 0
    outer loop
      vertex -15.6903 -10.3 2.2
      vertex -15.6903 -7.3 2.4
      vertex -15.6903 -10.3 2.19975
    endloop
  endfacet
  facet normal -1 0 0
    outer loop
      vertex -15.6903 -24.0378 0
      vertex -15.6903 -10.3 2.19975
      vertex -15.6903 -7.3 0
    endloop
  endfacet
  facet normal -1 -0 0
    outer loop
      vertex -15.6903 -10.3 2.19975
      vertex -15.6903 -24.0378 0
      vertex -15.6903 -24.0378 2.19975
    endloop
  endfacet
  facet normal -1 0 0
    outer loop
      vertex -15.6903 -4 0
      vertex -15.6903 -0.2 2.3
      vertex -15.6903 -0.2 0
    endloop
  endfacet
  facet normal -1 -0 0
    outer loop
      vertex -15.6903 -0.2 2.3
      vertex -15.6903 -4 0
      vertex -15.6903 -2.2 4.3
    endloop
  endfacet
  facet normal -1 0 0
    outer loop
      vertex -15.6903 -5 2.4
      vertex -15.6903 -4 0
      vertex -15.6903 -5 1
    endloop
  endfacet
  facet normal -1 0 0
    outer loop
      vertex -15.6903 -4 0
      vertex -15.6903 -5 2.4
      vertex -15.6903 -2.2 4.3
    endloop
  endfacet
  facet normal -1 0 0
    outer loop
      vertex -15.6903 -8.2 4.3
      vertex -15.6903 -5 2.4
      vertex -15.6903 -7.3 2.4
    endloop
  endfacet
  facet normal -1 0 0
    outer loop
      vertex -15.6903 -5 2.4
      vertex -15.6903 -8.2 4.3
      vertex -15.6903 -2.2 4.3
    endloop
  endfacet
  facet normal -1 -0 0
    outer loop
      vertex -15.6903 -7.3 2.4
      vertex -15.6903 -10.3 2.2
      vertex -15.6903 -8.2 4.3
    endloop
  endfacet
  facet normal 0 -0.707107 0.707107
    outer loop
      vertex -15.6903 -10.3 2.2
      vertex -12.6903 -8.2 4.3
      vertex -15.6903 -8.2 4.3
    endloop
  endfacet
  facet normal 0 -0.707107 0.707107
    outer loop
      vertex -12.6903 -8.2 4.3
      vertex -15.6903 -10.3 2.2
      vertex -12.6903 -10.3 2.2
    endloop
  endfacet
  facet normal 1 -0 0
    outer loop
      vertex -12.6903 -8.2 4.3
      vertex -12.6903 -5 2.4
      vertex -12.6903 -2.2 4.3
    endloop
  endfacet
  facet normal 1 0 0
    outer loop
      vertex -12.6903 -5 2.4
      vertex -12.6903 -8.2 4.3
      vertex -12.6903 -7.3 2.4
    endloop
  endfacet
  facet normal 1 0 0
    outer loop
      vertex -12.6903 -5 2.3
      vertex -12.6903 -2.2 4.3
      vertex -12.6903 -5 2.4
    endloop
  endfacet
  facet normal 1 0 0
    outer loop
      vertex -12.6903 -2.2 4.3
      vertex -12.6903 -5 2.3
      vertex -12.6903 -0.2 2.3
    endloop
  endfacet
  facet normal 1 0 0
    outer loop
      vertex -12.6903 -10.3 2.2
      vertex -12.6903 -7.3 2.4
      vertex -12.6903 -8.2 4.3
    endloop
  endfacet
  facet normal 1 -0 0
    outer loop
      vertex -12.6903 -10.3 2.2
      vertex -12.6903 -10.3 2.19975
      vertex -12.6903 -7.3 2.4
    endloop
  endfacet
  facet normal 1 0 0
    outer loop
      vertex -12.6903 -18.7625 0
      vertex -12.6903 -10.3 2.19975
      vertex -12.6903 -18.7625 2.19975
    endloop
  endfacet
  facet normal 1 0 0
    outer loop
      vertex -12.6903 -10.3 2.19975
      vertex -12.6903 -18.7625 0
      vertex -12.6903 -7.3 0
    endloop
  endfacet
  facet normal 1 -0 0
    outer loop
      vertex -12.6903 -10.3 2.19975
      vertex -12.6903 -7.3 0
      vertex -12.6903 -7.3 2.4
    endloop
  endfacet
  facet normal 0 -1 0
    outer loop
      vertex -15.6903 -10.3 2.19975
      vertex -12.6903 -10.3 2.2
      vertex -15.6903 -10.3 2.2
    endloop
  endfacet
  facet normal 0 -1 -0
    outer loop
      vertex -12.6903 -10.3 2.2
      vertex -15.6903 -10.3 2.19975
      vertex -12.6903 -10.3 2.19975
    endloop
  endfacet
  facet normal 0 0 -1
    outer loop
      vertex -15.6903 -7.3 2.4
      vertex -12.6903 -5 2.4
      vertex -12.6903 -7.3 2.4
    endloop
  endfacet
  facet normal -0 0 -1
    outer loop
      vertex -12.6903 -5 2.4
      vertex -15.6903 -7.3 2.4
      vertex -15.6903 -5 2.4
    endloop
  endfacet
  facet normal 0 1 -0
    outer loop
      vertex -12.6903 -7.3 0
      vertex -15.6903 -7.3 2.4
      vertex -12.6903 -7.3 2.4
    endloop
  endfacet
  facet normal 0 1 0
    outer loop
      vertex -15.6903 -7.3 2.4
      vertex -12.6903 -7.3 0
      vertex -15.6903 -7.3 0
    endloop
  endfacet
  facet normal 0 0 1
    outer loop
      vertex -12.6903 -10.3 2.19975
      vertex -15.6903 -10.3 2.19975
      vertex -12.6903 -18.7625 2.19975
    endloop
  endfacet
  facet normal 0 0 1
    outer loop
      vertex -15.6903 -24.0378 2.19975
      vertex -12 -19.0274 2.19975
      vertex -12.6903 -18.7625 2.19975
    endloop
  endfacet
  facet normal 0 0 1
    outer loop
      vertex -15.6903 -24.0378 2.19975
      vertex -12.6903 -18.7625 2.19975
      vertex -15.6903 -10.3 2.19975
    endloop
  endfacet
  facet normal 0 0 1
    outer loop
      vertex -12 -19.0274 2.19975
      vertex -15.6903 -24.0378 2.19975
      vertex -12 -25.4543 2.19975
    endloop
  endfacet
  facet normal -0.358352 -0.933587 0
    outer loop
      vertex -15.6903 -24.0378 0
      vertex -12 -25.4543 2.19975
      vertex -15.6903 -24.0378 2.19975
    endloop
  endfacet
  facet normal -0.358352 -0.933587 -0
    outer loop
      vertex -12 -25.4543 2.19975
      vertex -15.6903 -24.0378 0
      vertex -12 -25.4543 0
    endloop
  endfacet
  facet normal 0 0 -1
    outer loop
      vertex -15.6903 -4 0
      vertex 16.3363 -0.2 0
      vertex 16.3363 -4 0
    endloop
  endfacet
  facet normal -0 0 -1
    outer loop
      vertex 16.3363 -0.2 0
      vertex -15.6903 -4 0
      vertex -15.6903 -0.2 0
    endloop
  endfacet
  facet normal 1 -0 0
    outer loop
      vertex -11.3097 -5 2.3
      vertex -11.3097 -0.2 1.2
      vertex -11.3097 -0.2 2.3
    endloop
  endfacet
  facet normal 1 0 0
    outer loop
      vertex -11.3097 -0.2 1.2
      vertex -11.3097 -5 2.3
      vertex -11.3097 -5 1.2
    endloop
  endfacet
  facet normal -0 0 1
    outer loop
      vertex -12.6903 -0.2 2.3
      vertex -11.3097 -5 2.3
      vertex -11.3097 -0.2 2.3
    endloop
  endfacet
  facet normal 0 0 1
    outer loop
      vertex -11.3097 -5 2.3
      vertex -12.6903 -0.2 2.3
      vertex -12.6903 -5 2.3
    endloop
  endfacet
  facet normal 0 1 -0
    outer loop
      vertex 16.3363 -0.2 0
      vertex 16.0719 -0.2 1.2
      vertex 16.3363 -0.2 1.2
    endloop
  endfacet
  facet normal 0 1 0
    outer loop
      vertex 16.0719 -0.2 1.2
      vertex 16.3363 -0.2 0
      vertex 14.0874 -0.2 1.2
    endloop
  endfacet
  facet normal 0 1 0
    outer loop
      vertex 14.0874 -0.2 1.2
      vertex 16.3363 -0.2 0
      vertex 13.5587 -0.2 1.2
    endloop
  endfacet
  facet normal 0 1 0
    outer loop
      vertex 13.5587 -0.2 1.2
      vertex 16.3363 -0.2 0
      vertex 11.5741 -0.2 1.2
    endloop
  endfacet
  facet normal 0 1 0
    outer loop
      vertex 11.5741 -0.2 1.2
      vertex 16.3363 -0.2 0
      vertex 11.0454 -0.2 1.2
    endloop
  endfacet
  facet normal 0 1 0
    outer loop
      vertex 11.0454 -0.2 1.2
      vertex 16.3363 -0.2 0
      vertex 9.06081 -0.2 1.2
    endloop
  endfacet
  facet normal 0 1 0
    outer loop
      vertex 9.06081 -0.2 1.2
      vertex 16.3363 -0.2 0
      vertex 8.53211 -0.2 1.2
    endloop
  endfacet
  facet normal 0 1 0
    outer loop
      vertex 8.53211 -0.2 1.2
      vertex 16.3363 -0.2 0
      vertex 6.54753 -0.2 1.2
    endloop
  endfacet
  facet normal 0 1 0
    outer loop
      vertex 6.54753 -0.2 1.2
      vertex 16.3363 -0.2 0
      vertex 6.01884 -0.2 1.2
    endloop
  endfacet
  facet normal 0 1 0
    outer loop
      vertex 6.01884 -0.2 1.2
      vertex 16.3363 -0.2 0
      vertex 4.03426 -0.2 1.2
    endloop
  endfacet
  facet normal 0 1 0
    outer loop
      vertex 4.03426 -0.2 1.2
      vertex 16.3363 -0.2 0
      vertex 3.50556 -0.2 1.2
    endloop
  endfacet
  facet normal 0 1 0
    outer loop
      vertex 3.50556 -0.2 1.2
      vertex 16.3363 -0.2 0
      vertex 1.52098 -0.2 1.2
    endloop
  endfacet
  facet normal 0 1 0
    outer loop
      vertex 1.52098 -0.2 1.2
      vertex 16.3363 -0.2 0
      vertex 0.992289 -0.2 1.2
    endloop
  endfacet
  facet normal 0 1 0
    outer loop
      vertex 0.992289 -0.2 1.2
      vertex 16.3363 -0.2 0
      vertex -0.992289 -0.2 1.2
    endloop
  endfacet
  facet normal 0 1 0
    outer loop
      vertex -15.6903 -0.2 0
      vertex -0.992289 -0.2 1.2
      vertex 16.3363 -0.2 0
    endloop
  endfacet
  facet normal 0 1 0
    outer loop
      vertex -0.992289 -0.2 1.2
      vertex -15.6903 -0.2 0
      vertex -1.52098 -0.2 1.2
    endloop
  endfacet
  facet normal 0 1 0
    outer loop
      vertex -1.52098 -0.2 1.2
      vertex -15.6903 -0.2 0
      vertex -3.50556 -0.2 1.2
    endloop
  endfacet
  facet normal 0 1 0
    outer loop
      vertex -3.50556 -0.2 1.2
      vertex -15.6903 -0.2 0
      vertex -4.03426 -0.2 1.2
    endloop
  endfacet
  facet normal 0 1 0
    outer loop
      vertex -4.03426 -0.2 1.2
      vertex -15.6903 -0.2 0
      vertex -6.01884 -0.2 1.2
    endloop
  endfacet
  facet normal 0 1 0
    outer loop
      vertex -6.01884 -0.2 1.2
      vertex -15.6903 -0.2 0
      vertex -6.54753 -0.2 1.2
    endloop
  endfacet
  facet normal 0 1 0
    outer loop
      vertex -6.54753 -0.2 1.2
      vertex -15.6903 -0.2 0
      vertex -8.53211 -0.2 1.2
    endloop
  endfacet
  facet normal 0 1 0
    outer loop
      vertex -8.53211 -0.2 1.2
      vertex -15.6903 -0.2 0
      vertex -9.06081 -0.2 1.2
    endloop
  endfacet
  facet normal 0 1 0
    outer loop
      vertex -9.06081 -0.2 1.2
      vertex -15.6903 -0.2 0
      vertex -11.0454 -0.2 1.2
    endloop
  endfacet
  facet normal 0 1 0
    outer loop
      vertex 16.0719 -0.2 1.2
      vertex 14.7425 -0.2 3
      vertex 15.4168 -0.2 3
    endloop
  endfacet
  facet normal 0 1 0
    outer loop
      vertex 14.7425 -0.2 3
      vertex 16.0719 -0.2 1.2
      vertex 14.0874 -0.2 1.2
    endloop
  endfacet
  facet normal 0 1 0
    outer loop
      vertex 13.5587 -0.2 1.2
      vertex 12.2292 -0.2 3
      vertex 12.9035 -0.2 3
    endloop
  endfacet
  facet normal 0 1 0
    outer loop
      vertex 12.2292 -0.2 3
      vertex 13.5587 -0.2 1.2
      vertex 11.5741 -0.2 1.2
    endloop
  endfacet
  facet normal 0 1 0
    outer loop
      vertex 11.0454 -0.2 1.2
      vertex 9.71595 -0.2 3
      vertex 10.3902 -0.2 3
    endloop
  endfacet
  facet normal 0 1 0
    outer loop
      vertex 9.71595 -0.2 3
      vertex 11.0454 -0.2 1.2
      vertex 9.06081 -0.2 1.2
    endloop
  endfacet
  facet normal 0 1 0
    outer loop
      vertex 8.53211 -0.2 1.2
      vertex 7.20268 -0.2 3
      vertex 7.87696 -0.2 3
    endloop
  endfacet
  facet normal 0 1 0
    outer loop
      vertex 7.20268 -0.2 3
      vertex 8.53211 -0.2 1.2
      vertex 6.54753 -0.2 1.2
    endloop
  endfacet
  facet normal 0 1 0
    outer loop
      vertex 6.01884 -0.2 1.2
      vertex 4.68941 -0.2 3
      vertex 5.36369 -0.2 3
    endloop
  endfacet
  facet normal 0 1 0
    outer loop
      vertex 4.68941 -0.2 3
      vertex 6.01884 -0.2 1.2
      vertex 4.03426 -0.2 1.2
    endloop
  endfacet
  facet normal 0 1 0
    outer loop
      vertex 3.50556 -0.2 1.2
      vertex 2.17613 -0.2 3
      vertex 2.85042 -0.2 3
    endloop
  endfacet
  facet normal 0 1 0
    outer loop
      vertex 2.17613 -0.2 3
      vertex 3.50556 -0.2 1.2
      vertex 1.52098 -0.2 1.2
    endloop
  endfacet
  facet normal 0 1 0
    outer loop
      vertex 0.992289 -0.2 1.2
      vertex -0.337142 -0.2 3
      vertex 0.337142 -0.2 3
    endloop
  endfacet
  facet normal 0 1 0
    outer loop
      vertex -0.337142 -0.2 3
      vertex 0.992289 -0.2 1.2
      vertex -0.992289 -0.2 1.2
    endloop
  endfacet
  facet normal 0 1 0
    outer loop
      vertex -1.52098 -0.2 1.2
      vertex -2.85042 -0.2 3
      vertex -2.17613 -0.2 3
    endloop
  endfacet
  facet normal 0 1 0
    outer loop
      vertex -2.85042 -0.2 3
      vertex -1.52098 -0.2 1.2
      vertex -3.50556 -0.2 1.2
    endloop
  endfacet
  facet normal 0 1 0
    outer loop
      vertex -4.03426 -0.2 1.2
      vertex -5.36369 -0.2 3
      vertex -4.68941 -0.2 3
    endloop
  endfacet
  facet normal 0 1 0
    outer loop
      vertex -5.36369 -0.2 3
      vertex -4.03426 -0.2 1.2
      vertex -6.01884 -0.2 1.2
    endloop
  endfacet
  facet normal 0 1 0
    outer loop
      vertex -6.54753 -0.2 1.2
      vertex -7.87696 -0.2 3
      vertex -7.20268 -0.2 3
    endloop
  endfacet
  facet normal 0 1 0
    outer loop
      vertex -7.87696 -0.2 3
      vertex -6.54753 -0.2 1.2
      vertex -8.53211 -0.2 1.2
    endloop
  endfacet
  facet normal 0 1 0
    outer loop
      vertex -9.06081 -0.2 1.2
      vertex -10.3902 -0.2 3
      vertex -9.71595 -0.2 3
    endloop
  endfacet
  facet normal 0 1 0
    outer loop
      vertex -10.3902 -0.2 3
      vertex -9.06081 -0.2 1.2
      vertex -11.0454 -0.2 1.2
    endloop
  endfacet
  facet normal 0 1 -0
    outer loop
      vertex -11.3097 -0.2 1.2
      vertex -12.6903 -0.2 2.3
      vertex -11.3097 -0.2 2.3
    endloop
  endfacet
  facet normal 0 1 0
    outer loop
      vertex -15.6903 -0.2 0
      vertex -12.6903 -0.2 2.3
      vertex -11.3097 -0.2 1.2
    endloop
  endfacet
  facet normal 0 1 0
    outer loop
      vertex -12.6903 -0.2 2.3
      vertex -15.6903 -0.2 0
      vertex -15.6903 -0.2 2.3
    endloop
  endfacet
  facet normal 0 1 0
    outer loop
      vertex -11.0454 -0.2 1.2
      vertex -15.6903 -0.2 0
      vertex -11.3097 -0.2 1.2
    endloop
  endfacet
  facet normal 1 -0 0
    outer loop
      vertex -12 -25.4543 2.19975
      vertex -12 -19.0274 0
      vertex -12 -19.0274 2.19975
    endloop
  endfacet
  facet normal 1 0 0
    outer loop
      vertex -12 -19.0274 0
      vertex -12 -25.4543 2.19975
      vertex -12 -25.4543 0
    endloop
  endfacet
endsolid OpenSCAD_Model
