solid OpenSCAD_Model
  facet normal 1 0 0
    outer loop
      vertex 16.3363 -8.1 14.5
      vertex 16.3363 -6.9 15.5
      vertex 16.3363 -7.1 15.5
    endloop
  endfacet
  facet normal 1 0 0
    outer loop
      vertex 16.3363 -6.9 15.5
      vertex 16.3363 -8.1 14.5
      vertex 16.3363 -6.9 10.7
    endloop
  endfacet
  facet normal 1 0 0
    outer loop
      vertex 16.3363 -6.9 10.7
      vertex 16.3363 -8.1 14.5
      vertex 16.3363 -8.1 10.7
    endloop
  endfacet
  facet normal 0 1 -0
    outer loop
      vertex 2.85042 -5.1 10.7
      vertex 2.17613 -5.1 15.5
      vertex 2.85042 -5.1 15.5
    endloop
  endfacet
  facet normal 0 1 0
    outer loop
      vertex 2.17613 -5.1 15.5
      vertex 2.85042 -5.1 10.7
      vertex 2.17613 -5.1 10.7
    endloop
  endfacet
  facet normal 0.939694 0.342017 0
    outer loop
      vertex 3.50556 -6.9 15.5
      vertex 2.85042 -5.1 10.7
      vertex 2.85042 -5.1 15.5
    endloop
  endfacet
  facet normal 0.939694 0.342017 0
    outer loop
      vertex 2.85042 -5.1 10.7
      vertex 3.50556 -6.9 15.5
      vertex 3.50556 -6.9 10.7
    endloop
  endfacet
  facet normal 0 1 -0
    outer loop
      vertex 4.03426 -6.9 10.7
      vertex 3.50556 -6.9 15.5
      vertex 4.03426 -6.9 15.5
    endloop
  endfacet
  facet normal 0 1 0
    outer loop
      vertex 3.50556 -6.9 15.5
      vertex 4.03426 -6.9 10.7
      vertex 3.50556 -6.9 10.7
    endloop
  endfacet
  facet normal -0.939692 0.342022 0
    outer loop
      vertex 4.03426 -6.9 10.7
      vertex 4.68941 -5.1 15.5
      vertex 4.68941 -5.1 10.7
    endloop
  endfacet
  facet normal -0.939692 0.342022 0
    outer loop
      vertex 4.68941 -5.1 15.5
      vertex 4.03426 -6.9 10.7
      vertex 4.03426 -6.9 15.5
    endloop
  endfacet
  facet normal 0 1 -0
    outer loop
      vertex 5.36369 -5.1 10.7
      vertex 4.68941 -5.1 15.5
      vertex 5.36369 -5.1 15.5
    endloop
  endfacet
  facet normal 0 1 0
    outer loop
      vertex 4.68941 -5.1 15.5
      vertex 5.36369 -5.1 10.7
      vertex 4.68941 -5.1 10.7
    endloop
  endfacet
  facet normal 0.939692 0.342022 0
    outer loop
      vertex 6.01884 -6.9 15.5
      vertex 5.36369 -5.1 10.7
      vertex 5.36369 -5.1 15.5
    endloop
  endfacet
  facet normal 0.939692 0.342022 0
    outer loop
      vertex 5.36369 -5.1 10.7
      vertex 6.01884 -6.9 15.5
      vertex 6.01884 -6.9 10.7
    endloop
  endfacet
  facet normal 0 1 -0
    outer loop
      vertex 6.54753 -6.9 10.7
      vertex 6.01884 -6.9 15.5
      vertex 6.54753 -6.9 15.5
    endloop
  endfacet
  facet normal 0 1 0
    outer loop
      vertex 6.01884 -6.9 15.5
      vertex 6.54753 -6.9 10.7
      vertex 6.01884 -6.9 10.7
    endloop
  endfacet
  facet normal -0.939692 0.342022 0
    outer loop
      vertex 6.54753 -6.9 10.7
      vertex 7.20268 -5.1 15.5
      vertex 7.20268 -5.1 10.7
    endloop
  endfacet
  facet normal -0.939692 0.342022 0
    outer loop
      vertex 7.20268 -5.1 15.5
      vertex 6.54753 -6.9 10.7
      vertex 6.54753 -6.9 15.5
    endloop
  endfacet
  facet normal 0 1 -0
    outer loop
      vertex 7.87696 -5.1 10.7
      vertex 7.20268 -5.1 15.5
      vertex 7.87696 -5.1 15.5
    endloop
  endfacet
  facet normal 0 1 0
    outer loop
      vertex 7.20268 -5.1 15.5
      vertex 7.87696 -5.1 10.7
      vertex 7.20268 -5.1 10.7
    endloop
  endfacet
  facet normal 0.939692 0.342022 0
    outer loop
      vertex 8.53211 -6.9 15.5
      vertex 7.87696 -5.1 10.7
      vertex 7.87696 -5.1 15.5
    endloop
  endfacet
  facet normal 0.939692 0.342022 0
    outer loop
      vertex 7.87696 -5.1 10.7
      vertex 8.53211 -6.9 15.5
      vertex 8.53211 -6.9 10.7
    endloop
  endfacet
  facet normal 0 1 -0
    outer loop
      vertex 9.06081 -6.9 10.7
      vertex 8.53211 -6.9 15.5
      vertex 9.06081 -6.9 15.5
    endloop
  endfacet
  facet normal 0 1 0
    outer loop
      vertex 8.53211 -6.9 15.5
      vertex 9.06081 -6.9 10.7
      vertex 8.53211 -6.9 10.7
    endloop
  endfacet
  facet normal -0.939694 0.342017 0
    outer loop
      vertex 9.06081 -6.9 10.7
      vertex 9.71595 -5.1 15.5
      vertex 9.71595 -5.1 10.7
    endloop
  endfacet
  facet normal -0.939694 0.342017 0
    outer loop
      vertex 9.71595 -5.1 15.5
      vertex 9.06081 -6.9 10.7
      vertex 9.06081 -6.9 15.5
    endloop
  endfacet
  facet normal 0 1 -0
    outer loop
      vertex 10.3902 -5.1 10.7
      vertex 9.71595 -5.1 15.5
      vertex 10.3902 -5.1 15.5
    endloop
  endfacet
  facet normal 0 1 0
    outer loop
      vertex 9.71595 -5.1 15.5
      vertex 10.3902 -5.1 10.7
      vertex 9.71595 -5.1 10.7
    endloop
  endfacet
  facet normal 0.939684 0.342045 0
    outer loop
      vertex 11.0454 -6.9 15.5
      vertex 10.3902 -5.1 10.7
      vertex 10.3902 -5.1 15.5
    endloop
  endfacet
  facet normal 0.939684 0.342045 0
    outer loop
      vertex 10.3902 -5.1 10.7
      vertex 11.0454 -6.9 15.5
      vertex 11.0454 -6.9 10.7
    endloop
  endfacet
  facet normal 0 1 -0
    outer loop
      vertex 11.5741 -6.9 10.7
      vertex 11.0454 -6.9 15.5
      vertex 11.5741 -6.9 15.5
    endloop
  endfacet
  facet normal 0 1 0
    outer loop
      vertex 11.0454 -6.9 15.5
      vertex 11.5741 -6.9 10.7
      vertex 11.0454 -6.9 10.7
    endloop
  endfacet
  facet normal -0.9397 0.341999 0
    outer loop
      vertex 11.5741 -6.9 10.7
      vertex 12.2292 -5.1 15.5
      vertex 12.2292 -5.1 10.7
    endloop
  endfacet
  facet normal -0.9397 0.341999 0
    outer loop
      vertex 12.2292 -5.1 15.5
      vertex 11.5741 -6.9 10.7
      vertex 11.5741 -6.9 15.5
    endloop
  endfacet
  facet normal 0 1 -0
    outer loop
      vertex 12.9035 -5.1 10.7
      vertex 12.2292 -5.1 15.5
      vertex 12.9035 -5.1 15.5
    endloop
  endfacet
  facet normal 0 1 0
    outer loop
      vertex 12.2292 -5.1 15.5
      vertex 12.9035 -5.1 10.7
      vertex 12.2292 -5.1 10.7
    endloop
  endfacet
  facet normal 0.939684 0.342045 0
    outer loop
      vertex 13.5587 -6.9 15.5
      vertex 12.9035 -5.1 10.7
      vertex 12.9035 -5.1 15.5
    endloop
  endfacet
  facet normal 0.939684 0.342045 0
    outer loop
      vertex 12.9035 -5.1 10.7
      vertex 13.5587 -6.9 15.5
      vertex 13.5587 -6.9 10.7
    endloop
  endfacet
  facet normal 0 1 -0
    outer loop
      vertex 14.0874 -6.9 10.7
      vertex 13.5587 -6.9 15.5
      vertex 14.0874 -6.9 15.5
    endloop
  endfacet
  facet normal 0 1 0
    outer loop
      vertex 13.5587 -6.9 15.5
      vertex 14.0874 -6.9 10.7
      vertex 13.5587 -6.9 10.7
    endloop
  endfacet
  facet normal -0.9397 0.341999 0
    outer loop
      vertex 14.0874 -6.9 10.7
      vertex 14.7425 -5.1 15.5
      vertex 14.7425 -5.1 10.7
    endloop
  endfacet
  facet normal -0.9397 0.341999 0
    outer loop
      vertex 14.7425 -5.1 15.5
      vertex 14.0874 -6.9 10.7
      vertex 14.0874 -6.9 15.5
    endloop
  endfacet
  facet normal 0 1 -0
    outer loop
      vertex 15.4168 -5.1 10.7
      vertex 14.7425 -5.1 15.5
      vertex 15.4168 -5.1 15.5
    endloop
  endfacet
  facet normal 0 1 0
    outer loop
      vertex 14.7425 -5.1 15.5
      vertex 15.4168 -5.1 10.7
      vertex 14.7425 -5.1 10.7
    endloop
  endfacet
  facet normal 0.9397 0.341999 0
    outer loop
      vertex 16.0719 -6.9 15.5
      vertex 15.4168 -5.1 10.7
      vertex 15.4168 -5.1 15.5
    endloop
  endfacet
  facet normal 0.9397 0.341999 0
    outer loop
      vertex 15.4168 -5.1 10.7
      vertex 16.0719 -6.9 15.5
      vertex 16.0719 -6.9 10.7
    endloop
  endfacet
  facet normal 0 1 -0
    outer loop
      vertex 16.3363 -6.9 10.7
      vertex 16.0719 -6.9 15.5
      vertex 16.3363 -6.9 15.5
    endloop
  endfacet
  facet normal 0 1 0
    outer loop
      vertex 16.0719 -6.9 15.5
      vertex 16.3363 -6.9 10.7
      vertex 16.0719 -6.9 10.7
    endloop
  endfacet
  facet normal 0 1 -0
    outer loop
      vertex -7.20268 -5.1 10.7
      vertex -7.5 -5.1 15.5
      vertex -7.20268 -5.1 15.5
    endloop
  endfacet
  facet normal 0 1 0
    outer loop
      vertex -7.5 -5.1 15.5
      vertex -7.20268 -5.1 10.7
      vertex -7.5 -5.1 10.7
    endloop
  endfacet
  facet normal 0.939692 0.342022 0
    outer loop
      vertex -6.54753 -6.9 15.5
      vertex -7.20268 -5.1 10.7
      vertex -7.20268 -5.1 15.5
    endloop
  endfacet
  facet normal 0.939692 0.342022 0
    outer loop
      vertex -7.20268 -5.1 10.7
      vertex -6.54753 -6.9 15.5
      vertex -6.54753 -6.9 10.7
    endloop
  endfacet
  facet normal 0 1 -0
    outer loop
      vertex -6.01884 -6.9 10.7
      vertex -6.54753 -6.9 15.5
      vertex -6.01884 -6.9 15.5
    endloop
  endfacet
  facet normal 0 1 0
    outer loop
      vertex -6.54753 -6.9 15.5
      vertex -6.01884 -6.9 10.7
      vertex -6.54753 -6.9 10.7
    endloop
  endfacet
  facet normal -0.939692 0.342022 0
    outer loop
      vertex -6.01884 -6.9 10.7
      vertex -5.36369 -5.1 15.5
      vertex -5.36369 -5.1 10.7
    endloop
  endfacet
  facet normal -0.939692 0.342022 0
    outer loop
      vertex -5.36369 -5.1 15.5
      vertex -6.01884 -6.9 10.7
      vertex -6.01884 -6.9 15.5
    endloop
  endfacet
  facet normal 0 1 -0
    outer loop
      vertex -4.68941 -5.1 10.7
      vertex -5.36369 -5.1 15.5
      vertex -4.68941 -5.1 15.5
    endloop
  endfacet
  facet normal 0 1 0
    outer loop
      vertex -5.36369 -5.1 15.5
      vertex -4.68941 -5.1 10.7
      vertex -5.36369 -5.1 10.7
    endloop
  endfacet
  facet normal 0.939692 0.342022 0
    outer loop
      vertex -4.03426 -6.9 15.5
      vertex -4.68941 -5.1 10.7
      vertex -4.68941 -5.1 15.5
    endloop
  endfacet
  facet normal 0.939692 0.342022 0
    outer loop
      vertex -4.68941 -5.1 10.7
      vertex -4.03426 -6.9 15.5
      vertex -4.03426 -6.9 10.7
    endloop
  endfacet
  facet normal 0 1 -0
    outer loop
      vertex -3.50556 -6.9 10.7
      vertex -4.03426 -6.9 15.5
      vertex -3.50556 -6.9 15.5
    endloop
  endfacet
  facet normal 0 1 0
    outer loop
      vertex -4.03426 -6.9 15.5
      vertex -3.50556 -6.9 10.7
      vertex -4.03426 -6.9 10.7
    endloop
  endfacet
  facet normal -0.939694 0.342017 0
    outer loop
      vertex -3.50556 -6.9 10.7
      vertex -2.85042 -5.1 15.5
      vertex -2.85042 -5.1 10.7
    endloop
  endfacet
  facet normal -0.939694 0.342017 0
    outer loop
      vertex -2.85042 -5.1 15.5
      vertex -3.50556 -6.9 10.7
      vertex -3.50556 -6.9 15.5
    endloop
  endfacet
  facet normal 0 1 -0
    outer loop
      vertex -2.17613 -5.1 10.7
      vertex -2.85042 -5.1 15.5
      vertex -2.17613 -5.1 15.5
    endloop
  endfacet
  facet normal 0 1 0
    outer loop
      vertex -2.85042 -5.1 15.5
      vertex -2.17613 -5.1 10.7
      vertex -2.85042 -5.1 10.7
    endloop
  endfacet
  facet normal 0.939692 0.342022 0
    outer loop
      vertex -1.52098 -6.9 15.5
      vertex -2.17613 -5.1 10.7
      vertex -2.17613 -5.1 15.5
    endloop
  endfacet
  facet normal 0.939692 0.342022 0
    outer loop
      vertex -2.17613 -5.1 10.7
      vertex -1.52098 -6.9 15.5
      vertex -1.52098 -6.9 10.7
    endloop
  endfacet
  facet normal 0 1 -0
    outer loop
      vertex -0.992289 -6.9 10.7
      vertex -1.52098 -6.9 15.5
      vertex -0.992289 -6.9 15.5
    endloop
  endfacet
  facet normal 0 1 0
    outer loop
      vertex -1.52098 -6.9 15.5
      vertex -0.992289 -6.9 10.7
      vertex -1.52098 -6.9 10.7
    endloop
  endfacet
  facet normal -0.939693 0.34202 0
    outer loop
      vertex -0.992289 -6.9 10.7
      vertex -0.337142 -5.1 15.5
      vertex -0.337142 -5.1 10.7
    endloop
  endfacet
  facet normal -0.939693 0.34202 0
    outer loop
      vertex -0.337142 -5.1 15.5
      vertex -0.992289 -6.9 10.7
      vertex -0.992289 -6.9 15.5
    endloop
  endfacet
  facet normal 0 1 -0
    outer loop
      vertex 0.337142 -5.1 10.7
      vertex -0.337142 -5.1 15.5
      vertex 0.337142 -5.1 15.5
    endloop
  endfacet
  facet normal 0 1 0
    outer loop
      vertex -0.337142 -5.1 15.5
      vertex 0.337142 -5.1 10.7
      vertex -0.337142 -5.1 10.7
    endloop
  endfacet
  facet normal 0.939693 0.34202 0
    outer loop
      vertex 0.992289 -6.9 15.5
      vertex 0.337142 -5.1 10.7
      vertex 0.337142 -5.1 15.5
    endloop
  endfacet
  facet normal 0.939693 0.34202 0
    outer loop
      vertex 0.337142 -5.1 10.7
      vertex 0.992289 -6.9 15.5
      vertex 0.992289 -6.9 10.7
    endloop
  endfacet
  facet normal 0 1 -0
    outer loop
      vertex 1.52098 -6.9 10.7
      vertex 0.992289 -6.9 15.5
      vertex 1.52098 -6.9 15.5
    endloop
  endfacet
  facet normal 0 1 0
    outer loop
      vertex 0.992289 -6.9 15.5
      vertex 1.52098 -6.9 10.7
      vertex 0.992289 -6.9 10.7
    endloop
  endfacet
  facet normal -0.939692 0.342022 0
    outer loop
      vertex 1.52098 -6.9 10.7
      vertex 2.17613 -5.1 15.5
      vertex 2.17613 -5.1 10.7
    endloop
  endfacet
  facet normal -0.939692 0.342022 0
    outer loop
      vertex 2.17613 -5.1 15.5
      vertex 1.52098 -6.9 10.7
      vertex 1.52098 -6.9 15.5
    endloop
  endfacet
  facet normal 0 -0.707107 0.707107
    outer loop
      vertex -7.5 -8.1 14.5
      vertex 16.3363 -7.1 15.5
      vertex -7.5 -7.1 15.5
    endloop
  endfacet
  facet normal 0 -0.707107 0.707107
    outer loop
      vertex 16.3363 -7.1 15.5
      vertex -7.5 -8.1 14.5
      vertex 16.3363 -8.1 14.5
    endloop
  endfacet
  facet normal -0 0 1
    outer loop
      vertex 16.0719 -6.9 15.5
      vertex 16.3363 -7.1 15.5
      vertex 16.3363 -6.9 15.5
    endloop
  endfacet
  facet normal -0 0 1
    outer loop
      vertex 14.7425 -5.1 15.5
      vertex 16.0719 -6.9 15.5
      vertex 15.4168 -5.1 15.5
    endloop
  endfacet
  facet normal 0 0 1
    outer loop
      vertex 14.0874 -6.9 15.5
      vertex 16.0719 -6.9 15.5
      vertex 14.7425 -5.1 15.5
    endloop
  endfacet
  facet normal -0 0 1
    outer loop
      vertex 14.0874 -6.9 15.5
      vertex 16.3363 -7.1 15.5
      vertex 16.0719 -6.9 15.5
    endloop
  endfacet
  facet normal -0 0 1
    outer loop
      vertex 13.5587 -6.9 15.5
      vertex 16.3363 -7.1 15.5
      vertex 14.0874 -6.9 15.5
    endloop
  endfacet
  facet normal -0 0 1
    outer loop
      vertex 12.2292 -5.1 15.5
      vertex 13.5587 -6.9 15.5
      vertex 12.9035 -5.1 15.5
    endloop
  endfacet
  facet normal 0 0 1
    outer loop
      vertex 11.5741 -6.9 15.5
      vertex 13.5587 -6.9 15.5
      vertex 12.2292 -5.1 15.5
    endloop
  endfacet
  facet normal -0 0 1
    outer loop
      vertex 11.5741 -6.9 15.5
      vertex 16.3363 -7.1 15.5
      vertex 13.5587 -6.9 15.5
    endloop
  endfacet
  facet normal -0 0 1
    outer loop
      vertex 11.0454 -6.9 15.5
      vertex 16.3363 -7.1 15.5
      vertex 11.5741 -6.9 15.5
    endloop
  endfacet
  facet normal -0 0 1
    outer loop
      vertex 9.71595 -5.1 15.5
      vertex 11.0454 -6.9 15.5
      vertex 10.3902 -5.1 15.5
    endloop
  endfacet
  facet normal 0 0 1
    outer loop
      vertex 9.06081 -6.9 15.5
      vertex 11.0454 -6.9 15.5
      vertex 9.71595 -5.1 15.5
    endloop
  endfacet
  facet normal -0 0 1
    outer loop
      vertex 9.06081 -6.9 15.5
      vertex 16.3363 -7.1 15.5
      vertex 11.0454 -6.9 15.5
    endloop
  endfacet
  facet normal -0 0 1
    outer loop
      vertex 8.53211 -6.9 15.5
      vertex 16.3363 -7.1 15.5
      vertex 9.06081 -6.9 15.5
    endloop
  endfacet
  facet normal -0 0 1
    outer loop
      vertex 7.20268 -5.1 15.5
      vertex 8.53211 -6.9 15.5
      vertex 7.87696 -5.1 15.5
    endloop
  endfacet
  facet normal 0 0 1
    outer loop
      vertex 6.54753 -6.9 15.5
      vertex 8.53211 -6.9 15.5
      vertex 7.20268 -5.1 15.5
    endloop
  endfacet
  facet normal -0 0 1
    outer loop
      vertex 6.54753 -6.9 15.5
      vertex 16.3363 -7.1 15.5
      vertex 8.53211 -6.9 15.5
    endloop
  endfacet
  facet normal -0 0 1
    outer loop
      vertex 6.01884 -6.9 15.5
      vertex 16.3363 -7.1 15.5
      vertex 6.54753 -6.9 15.5
    endloop
  endfacet
  facet normal -0 0 1
    outer loop
      vertex 4.68941 -5.1 15.5
      vertex 6.01884 -6.9 15.5
      vertex 5.36369 -5.1 15.5
    endloop
  endfacet
  facet normal 0 0 1
    outer loop
      vertex 4.03426 -6.9 15.5
      vertex 6.01884 -6.9 15.5
      vertex 4.68941 -5.1 15.5
    endloop
  endfacet
  facet normal -0 0 1
    outer loop
      vertex 4.03426 -6.9 15.5
      vertex 16.3363 -7.1 15.5
      vertex 6.01884 -6.9 15.5
    endloop
  endfacet
  facet normal -0 0 1
    outer loop
      vertex 3.50556 -6.9 15.5
      vertex 16.3363 -7.1 15.5
      vertex 4.03426 -6.9 15.5
    endloop
  endfacet
  facet normal -0 0 1
    outer loop
      vertex 2.17613 -5.1 15.5
      vertex 3.50556 -6.9 15.5
      vertex 2.85042 -5.1 15.5
    endloop
  endfacet
  facet normal 0 0 1
    outer loop
      vertex 1.52098 -6.9 15.5
      vertex 3.50556 -6.9 15.5
      vertex 2.17613 -5.1 15.5
    endloop
  endfacet
  facet normal -0 0 1
    outer loop
      vertex 1.52098 -6.9 15.5
      vertex 16.3363 -7.1 15.5
      vertex 3.50556 -6.9 15.5
    endloop
  endfacet
  facet normal 0 0 1
    outer loop
      vertex -7.5 -7.1 15.5
      vertex 1.52098 -6.9 15.5
      vertex 0.992289 -6.9 15.5
    endloop
  endfacet
  facet normal -0 0 1
    outer loop
      vertex -0.337142 -5.1 15.5
      vertex 0.992289 -6.9 15.5
      vertex 0.337142 -5.1 15.5
    endloop
  endfacet
  facet normal 0 0 1
    outer loop
      vertex -0.992289 -6.9 15.5
      vertex 0.992289 -6.9 15.5
      vertex -0.337142 -5.1 15.5
    endloop
  endfacet
  facet normal 0 0 1
    outer loop
      vertex -7.5 -7.1 15.5
      vertex 0.992289 -6.9 15.5
      vertex -0.992289 -6.9 15.5
    endloop
  endfacet
  facet normal 0 0 1
    outer loop
      vertex -7.5 -7.1 15.5
      vertex -0.992289 -6.9 15.5
      vertex -1.52098 -6.9 15.5
    endloop
  endfacet
  facet normal -0 0 1
    outer loop
      vertex -2.85042 -5.1 15.5
      vertex -1.52098 -6.9 15.5
      vertex -2.17613 -5.1 15.5
    endloop
  endfacet
  facet normal 0 0 1
    outer loop
      vertex -3.50556 -6.9 15.5
      vertex -1.52098 -6.9 15.5
      vertex -2.85042 -5.1 15.5
    endloop
  endfacet
  facet normal 0 0 1
    outer loop
      vertex -7.5 -7.1 15.5
      vertex -1.52098 -6.9 15.5
      vertex -3.50556 -6.9 15.5
    endloop
  endfacet
  facet normal 0 0 1
    outer loop
      vertex -7.5 -7.1 15.5
      vertex -3.50556 -6.9 15.5
      vertex -4.03426 -6.9 15.5
    endloop
  endfacet
  facet normal -0 0 1
    outer loop
      vertex -5.36369 -5.1 15.5
      vertex -4.03426 -6.9 15.5
      vertex -4.68941 -5.1 15.5
    endloop
  endfacet
  facet normal 0 0 1
    outer loop
      vertex -6.01884 -6.9 15.5
      vertex -4.03426 -6.9 15.5
      vertex -5.36369 -5.1 15.5
    endloop
  endfacet
  facet normal 0 0 1
    outer loop
      vertex -7.5 -7.1 15.5
      vertex -4.03426 -6.9 15.5
      vertex -6.01884 -6.9 15.5
    endloop
  endfacet
  facet normal 0 0 1
    outer loop
      vertex -7.5 -7.1 15.5
      vertex -6.01884 -6.9 15.5
      vertex -6.54753 -6.9 15.5
    endloop
  endfacet
  facet normal 0 0 1
    outer loop
      vertex -7.5 -7.1 15.5
      vertex -7.20268 -5.1 15.5
      vertex -7.5 -5.1 15.5
    endloop
  endfacet
  facet normal 0 0 1
    outer loop
      vertex 1.52098 -6.9 15.5
      vertex -7.5 -7.1 15.5
      vertex 16.3363 -7.1 15.5
    endloop
  endfacet
  facet normal 0 0 1
    outer loop
      vertex -7.20268 -5.1 15.5
      vertex -7.5 -7.1 15.5
      vertex -6.54753 -6.9 15.5
    endloop
  endfacet
  facet normal 0 -1 0
    outer loop
      vertex -7.5 -8.1 10.7
      vertex 16.3363 -8.1 14.5
      vertex -7.5 -8.1 14.5
    endloop
  endfacet
  facet normal 0 -1 -0
    outer loop
      vertex 16.3363 -8.1 14.5
      vertex -7.5 -8.1 10.7
      vertex 16.3363 -8.1 10.7
    endloop
  endfacet
  facet normal 0 0 -1
    outer loop
      vertex 16.3363 -8.1 10.7
      vertex 16.0719 -6.9 10.7
      vertex 16.3363 -6.9 10.7
    endloop
  endfacet
  facet normal 0 0 -1
    outer loop
      vertex 14.0874 -6.9 10.7
      vertex 16.0719 -6.9 10.7
      vertex 16.3363 -8.1 10.7
    endloop
  endfacet
  facet normal 0 0 -1
    outer loop
      vertex 16.0719 -6.9 10.7
      vertex 14.0874 -6.9 10.7
      vertex 15.4168 -5.1 10.7
    endloop
  endfacet
  facet normal -0 0 -1
    outer loop
      vertex 15.4168 -5.1 10.7
      vertex 14.0874 -6.9 10.7
      vertex 14.7425 -5.1 10.7
    endloop
  endfacet
  facet normal 0 0 -1
    outer loop
      vertex 16.3363 -8.1 10.7
      vertex 13.5587 -6.9 10.7
      vertex 14.0874 -6.9 10.7
    endloop
  endfacet
  facet normal 0 0 -1
    outer loop
      vertex 13.5587 -6.9 10.7
      vertex 12.2292 -5.1 10.7
      vertex 12.9035 -5.1 10.7
    endloop
  endfacet
  facet normal 0 0 -1
    outer loop
      vertex 13.5587 -6.9 10.7
      vertex 11.5741 -6.9 10.7
      vertex 12.2292 -5.1 10.7
    endloop
  endfacet
  facet normal 0 0 -1
    outer loop
      vertex 16.3363 -8.1 10.7
      vertex 11.5741 -6.9 10.7
      vertex 13.5587 -6.9 10.7
    endloop
  endfacet
  facet normal 0 0 -1
    outer loop
      vertex 16.3363 -8.1 10.7
      vertex 11.0454 -6.9 10.7
      vertex 11.5741 -6.9 10.7
    endloop
  endfacet
  facet normal 0 0 -1
    outer loop
      vertex 11.0454 -6.9 10.7
      vertex 9.71595 -5.1 10.7
      vertex 10.3902 -5.1 10.7
    endloop
  endfacet
  facet normal 0 0 -1
    outer loop
      vertex 11.0454 -6.9 10.7
      vertex 9.06081 -6.9 10.7
      vertex 9.71595 -5.1 10.7
    endloop
  endfacet
  facet normal 0 0 -1
    outer loop
      vertex 16.3363 -8.1 10.7
      vertex 9.06081 -6.9 10.7
      vertex 11.0454 -6.9 10.7
    endloop
  endfacet
  facet normal 0 0 -1
    outer loop
      vertex 16.3363 -8.1 10.7
      vertex 8.53211 -6.9 10.7
      vertex 9.06081 -6.9 10.7
    endloop
  endfacet
  facet normal 0 0 -1
    outer loop
      vertex 8.53211 -6.9 10.7
      vertex 7.20268 -5.1 10.7
      vertex 7.87696 -5.1 10.7
    endloop
  endfacet
  facet normal 0 0 -1
    outer loop
      vertex 8.53211 -6.9 10.7
      vertex 6.54753 -6.9 10.7
      vertex 7.20268 -5.1 10.7
    endloop
  endfacet
  facet normal 0 0 -1
    outer loop
      vertex 16.3363 -8.1 10.7
      vertex 6.54753 -6.9 10.7
      vertex 8.53211 -6.9 10.7
    endloop
  endfacet
  facet normal 0 0 -1
    outer loop
      vertex 16.3363 -8.1 10.7
      vertex 6.01884 -6.9 10.7
      vertex 6.54753 -6.9 10.7
    endloop
  endfacet
  facet normal 0 0 -1
    outer loop
      vertex 6.01884 -6.9 10.7
      vertex 4.68941 -5.1 10.7
      vertex 5.36369 -5.1 10.7
    endloop
  endfacet
  facet normal 0 0 -1
    outer loop
      vertex 6.01884 -6.9 10.7
      vertex 4.03426 -6.9 10.7
      vertex 4.68941 -5.1 10.7
    endloop
  endfacet
  facet normal 0 0 -1
    outer loop
      vertex 16.3363 -8.1 10.7
      vertex 4.03426 -6.9 10.7
      vertex 6.01884 -6.9 10.7
    endloop
  endfacet
  facet normal 0 0 -1
    outer loop
      vertex -7.5 -8.1 10.7
      vertex 4.03426 -6.9 10.7
      vertex 16.3363 -8.1 10.7
    endloop
  endfacet
  facet normal 0 0 -1
    outer loop
      vertex 3.50556 -6.9 10.7
      vertex 2.17613 -5.1 10.7
      vertex 2.85042 -5.1 10.7
    endloop
  endfacet
  facet normal 0 0 -1
    outer loop
      vertex 3.50556 -6.9 10.7
      vertex 1.52098 -6.9 10.7
      vertex 2.17613 -5.1 10.7
    endloop
  endfacet
  facet normal -0 0 -1
    outer loop
      vertex 4.03426 -6.9 10.7
      vertex -7.5 -8.1 10.7
      vertex 3.50556 -6.9 10.7
    endloop
  endfacet
  facet normal -0 0 -1
    outer loop
      vertex 3.50556 -6.9 10.7
      vertex -7.5 -8.1 10.7
      vertex 1.52098 -6.9 10.7
    endloop
  endfacet
  facet normal 0 0 -1
    outer loop
      vertex 0.992289 -6.9 10.7
      vertex -0.337142 -5.1 10.7
      vertex 0.337142 -5.1 10.7
    endloop
  endfacet
  facet normal 0 0 -1
    outer loop
      vertex 0.992289 -6.9 10.7
      vertex -0.992289 -6.9 10.7
      vertex -0.337142 -5.1 10.7
    endloop
  endfacet
  facet normal -0 0 -1
    outer loop
      vertex 1.52098 -6.9 10.7
      vertex -7.5 -8.1 10.7
      vertex 0.992289 -6.9 10.7
    endloop
  endfacet
  facet normal -0 0 -1
    outer loop
      vertex 0.992289 -6.9 10.7
      vertex -7.5 -8.1 10.7
      vertex -0.992289 -6.9 10.7
    endloop
  endfacet
  facet normal 0 0 -1
    outer loop
      vertex -1.52098 -6.9 10.7
      vertex -2.85042 -5.1 10.7
      vertex -2.17613 -5.1 10.7
    endloop
  endfacet
  facet normal 0 0 -1
    outer loop
      vertex -1.52098 -6.9 10.7
      vertex -3.50556 -6.9 10.7
      vertex -2.85042 -5.1 10.7
    endloop
  endfacet
  facet normal -0 0 -1
    outer loop
      vertex -0.992289 -6.9 10.7
      vertex -7.5 -8.1 10.7
      vertex -1.52098 -6.9 10.7
    endloop
  endfacet
  facet normal -0 0 -1
    outer loop
      vertex -1.52098 -6.9 10.7
      vertex -7.5 -8.1 10.7
      vertex -3.50556 -6.9 10.7
    endloop
  endfacet
  facet normal 0 0 -1
    outer loop
      vertex -4.03426 -6.9 10.7
      vertex -5.36369 -5.1 10.7
      vertex -4.68941 -5.1 10.7
    endloop
  endfacet
  facet normal 0 0 -1
    outer loop
      vertex -4.03426 -6.9 10.7
      vertex -6.01884 -6.9 10.7
      vertex -5.36369 -5.1 10.7
    endloop
  endfacet
  facet normal -0 0 -1
    outer loop
      vertex -3.50556 -6.9 10.7
      vertex -7.5 -8.1 10.7
      vertex -4.03426 -6.9 10.7
    endloop
  endfacet
  facet normal -0 0 -1
    outer loop
      vertex -4.03426 -6.9 10.7
      vertex -7.5 -8.1 10.7
      vertex -6.01884 -6.9 10.7
    endloop
  endfacet
  facet normal -0 0 -1
    outer loop
      vertex -6.01884 -6.9 10.7
      vertex -7.5 -8.1 10.7
      vertex -6.54753 -6.9 10.7
    endloop
  endfacet
  facet normal 0 0 -1
    outer loop
      vertex -7.5 -5.1 10.7
      vertex -6.54753 -6.9 10.7
      vertex -7.5 -8.1 10.7
    endloop
  endfacet
  facet normal 0 0 -1
    outer loop
      vertex -6.54753 -6.9 10.7
      vertex -7.5 -5.1 10.7
      vertex -7.20268 -5.1 10.7
    endloop
  endfacet
  facet normal -1 0 0
    outer loop
      vertex -7.5 -8.1 14.5
      vertex -7.5 -5.1 15.5
      vertex -7.5 -5.1 10.7
    endloop
  endfacet
  facet normal -1 0 0
    outer loop
      vertex -7.5 -8.1 14.5
      vertex -7.5 -5.1 10.7
      vertex -7.5 -8.1 10.7
    endloop
  endfacet
  facet normal -1 -0 0
    outer loop
      vertex -7.5 -5.1 15.5
      vertex -7.5 -8.1 14.5
      vertex -7.5 -7.1 15.5
    endloop
  endfacet
endsolid OpenSCAD_Model
