solid OpenSCAD_Model
  facet normal -0.951082 -0.308939 0
    outer loop
      vertex 24.3694 40.7911 140
      vertex 24.279 41.0694 141
      vertex 24.279 41.0694 140
    endloop
  endfacet
  facet normal -0.951082 -0.308939 0
    outer loop
      vertex 24.279 41.0694 141
      vertex 24.3694 40.7911 140
      vertex 24.3694 40.7911 141
    endloop
  endfacet
  facet normal -0.99452 -0.104543 0
    outer loop
      vertex 24.4 40.5 140
      vertex 24.3694 40.7911 141
      vertex 24.3694 40.7911 140
    endloop
  endfacet
  facet normal -0.99452 -0.104543 0
    outer loop
      vertex 24.3694 40.7911 141
      vertex 24.4 40.5 140
      vertex 24.4 40.5 141
    endloop
  endfacet
  facet normal -0.865964 -0.500107 0
    outer loop
      vertex 24.279 41.0694 140
      vertex 24.1326 41.3229 141
      vertex 24.1326 41.3229 140
    endloop
  endfacet
  facet normal -0.865964 -0.500107 0
    outer loop
      vertex 24.1326 41.3229 141
      vertex 24.279 41.0694 140
      vertex 24.279 41.0694 141
    endloop
  endfacet
  facet normal -0.951082 0.308939 0
    outer loop
      vertex 24.279 39.9306 140
      vertex 24.3694 40.2089 141
      vertex 24.3694 40.2089 140
    endloop
  endfacet
  facet normal -0.951082 0.308939 0
    outer loop
      vertex 24.3694 40.2089 141
      vertex 24.279 39.9306 140
      vertex 24.279 39.9306 141
    endloop
  endfacet
  facet normal -0.99452 0.104543 0
    outer loop
      vertex 24.3694 40.2089 140
      vertex 24.4 40.5 141
      vertex 24.4 40.5 140
    endloop
  endfacet
  facet normal -0.99452 0.104543 0
    outer loop
      vertex 24.4 40.5 141
      vertex 24.3694 40.2089 140
      vertex 24.3694 40.2089 141
    endloop
  endfacet
  facet normal -0.743209 -0.669059 0
    outer loop
      vertex 24.1326 41.3229 140
      vertex 23.9368 41.5404 141
      vertex 23.9368 41.5404 140
    endloop
  endfacet
  facet normal -0.743209 -0.669059 0
    outer loop
      vertex 23.9368 41.5404 141
      vertex 24.1326 41.3229 140
      vertex 24.1326 41.3229 141
    endloop
  endfacet
  facet normal 0.951082 0.308939 0
    outer loop
      vertex 21.721 39.9306 141
      vertex 21.6306 40.2089 140
      vertex 21.6306 40.2089 141
    endloop
  endfacet
  facet normal 0.951082 0.308939 0
    outer loop
      vertex 21.6306 40.2089 140
      vertex 21.721 39.9306 141
      vertex 21.721 39.9306 140
    endloop
  endfacet
  facet normal 0.951082 -0.308939 0
    outer loop
      vertex 21.6306 40.7911 141
      vertex 21.721 41.0694 140
      vertex 21.721 41.0694 141
    endloop
  endfacet
  facet normal 0.951082 -0.308939 0
    outer loop
      vertex 21.721 41.0694 140
      vertex 21.6306 40.7911 141
      vertex 21.6306 40.7911 140
    endloop
  endfacet
  facet normal -0.587684 0.809091 0
    outer loop
      vertex 23.9368 39.4596 140
      vertex 23.7 39.2876 141
      vertex 23.9368 39.4596 141
    endloop
  endfacet
  facet normal -0.587684 0.809091 0
    outer loop
      vertex 23.7 39.2876 141
      vertex 23.9368 39.4596 140
      vertex 23.7 39.2876 140
    endloop
  endfacet
  facet normal 0.587684 -0.809091 0
    outer loop
      vertex 22.0632 41.5404 140
      vertex 22.3 41.7124 141
      vertex 22.0632 41.5404 141
    endloop
  endfacet
  facet normal 0.587684 -0.809091 0
    outer loop
      vertex 22.3 41.7124 141
      vertex 22.0632 41.5404 140
      vertex 22.3 41.7124 140
    endloop
  endfacet
  facet normal 0.865964 -0.500107 0
    outer loop
      vertex 21.721 41.0694 141
      vertex 21.8674 41.3229 140
      vertex 21.8674 41.3229 141
    endloop
  endfacet
  facet normal 0.865964 -0.500107 0
    outer loop
      vertex 21.8674 41.3229 140
      vertex 21.721 41.0694 141
      vertex 21.721 41.0694 140
    endloop
  endfacet
  facet normal -0.865964 0.500107 0
    outer loop
      vertex 24.1326 39.6771 140
      vertex 24.279 39.9306 141
      vertex 24.279 39.9306 140
    endloop
  endfacet
  facet normal -0.865964 0.500107 0
    outer loop
      vertex 24.279 39.9306 141
      vertex 24.1326 39.6771 140
      vertex 24.1326 39.6771 141
    endloop
  endfacet
  facet normal 0 -1 0
    outer loop
      vertex 22.8537 41.8923 140
      vertex 23.1463 41.8923 141
      vertex 22.8537 41.8923 141
    endloop
  endfacet
  facet normal 0 -1 -0
    outer loop
      vertex 23.1463 41.8923 141
      vertex 22.8537 41.8923 140
      vertex 23.1463 41.8923 140
    endloop
  endfacet
  facet normal 0.406867 -0.913487 0
    outer loop
      vertex 22.3 41.7124 140
      vertex 22.5674 41.8315 141
      vertex 22.3 41.7124 141
    endloop
  endfacet
  facet normal 0.406867 -0.913487 0
    outer loop
      vertex 22.5674 41.8315 141
      vertex 22.3 41.7124 140
      vertex 22.5674 41.8315 140
    endloop
  endfacet
  facet normal 0.207732 0.978186 -0
    outer loop
      vertex 22.8537 39.1077 140
      vertex 22.5674 39.1685 141
      vertex 22.8537 39.1077 141
    endloop
  endfacet
  facet normal 0.207732 0.978186 0
    outer loop
      vertex 22.5674 39.1685 141
      vertex 22.8537 39.1077 140
      vertex 22.5674 39.1685 140
    endloop
  endfacet
  facet normal 0.406867 0.913487 -0
    outer loop
      vertex 22.5674 39.1685 140
      vertex 22.3 39.2876 141
      vertex 22.5674 39.1685 141
    endloop
  endfacet
  facet normal 0.406867 0.913487 0
    outer loop
      vertex 22.3 39.2876 141
      vertex 22.5674 39.1685 140
      vertex 22.3 39.2876 140
    endloop
  endfacet
  facet normal 0.207732 -0.978186 0
    outer loop
      vertex 22.5674 41.8315 140
      vertex 22.8537 41.8923 141
      vertex 22.5674 41.8315 141
    endloop
  endfacet
  facet normal 0.207732 -0.978186 0
    outer loop
      vertex 22.8537 41.8923 141
      vertex 22.5674 41.8315 140
      vertex 22.8537 41.8923 140
    endloop
  endfacet
  facet normal -0.207732 0.978186 0
    outer loop
      vertex 23.4326 39.1685 140
      vertex 23.1463 39.1077 141
      vertex 23.4326 39.1685 141
    endloop
  endfacet
  facet normal -0.207732 0.978186 0
    outer loop
      vertex 23.1463 39.1077 141
      vertex 23.4326 39.1685 140
      vertex 23.1463 39.1077 140
    endloop
  endfacet
  facet normal -0.743209 0.669059 0
    outer loop
      vertex 23.9368 39.4596 140
      vertex 24.1326 39.6771 141
      vertex 24.1326 39.6771 140
    endloop
  endfacet
  facet normal -0.743209 0.669059 0
    outer loop
      vertex 24.1326 39.6771 141
      vertex 23.9368 39.4596 140
      vertex 23.9368 39.4596 141
    endloop
  endfacet
  facet normal -0.406867 0.913487 0
    outer loop
      vertex 23.7 39.2876 140
      vertex 23.4326 39.1685 141
      vertex 23.7 39.2876 141
    endloop
  endfacet
  facet normal -0.406867 0.913487 0
    outer loop
      vertex 23.4326 39.1685 141
      vertex 23.7 39.2876 140
      vertex 23.4326 39.1685 140
    endloop
  endfacet
  facet normal 0.587684 0.809091 -0
    outer loop
      vertex 22.3 39.2876 140
      vertex 22.0632 39.4596 141
      vertex 22.3 39.2876 141
    endloop
  endfacet
  facet normal 0.587684 0.809091 0
    outer loop
      vertex 22.0632 39.4596 141
      vertex 22.3 39.2876 140
      vertex 22.0632 39.4596 140
    endloop
  endfacet
  facet normal -0.587684 -0.809091 0
    outer loop
      vertex 23.7 41.7124 140
      vertex 23.9368 41.5404 141
      vertex 23.7 41.7124 141
    endloop
  endfacet
  facet normal -0.587684 -0.809091 -0
    outer loop
      vertex 23.9368 41.5404 141
      vertex 23.7 41.7124 140
      vertex 23.9368 41.5404 140
    endloop
  endfacet
  facet normal 0.99452 -0.104543 0
    outer loop
      vertex 21.6 40.5 141
      vertex 21.6306 40.7911 140
      vertex 21.6306 40.7911 141
    endloop
  endfacet
  facet normal 0.99452 -0.104543 0
    outer loop
      vertex 21.6306 40.7911 140
      vertex 21.6 40.5 141
      vertex 21.6 40.5 140
    endloop
  endfacet
  facet normal -0.207732 -0.978186 0
    outer loop
      vertex 23.1463 41.8923 140
      vertex 23.4326 41.8315 141
      vertex 23.1463 41.8923 141
    endloop
  endfacet
  facet normal -0.207732 -0.978186 -0
    outer loop
      vertex 23.4326 41.8315 141
      vertex 23.1463 41.8923 140
      vertex 23.4326 41.8315 140
    endloop
  endfacet
  facet normal 0.865964 0.500107 0
    outer loop
      vertex 21.8674 39.6771 141
      vertex 21.721 39.9306 140
      vertex 21.721 39.9306 141
    endloop
  endfacet
  facet normal 0.865964 0.500107 0
    outer loop
      vertex 21.721 39.9306 140
      vertex 21.8674 39.6771 141
      vertex 21.8674 39.6771 140
    endloop
  endfacet
  facet normal -0.406867 -0.913487 0
    outer loop
      vertex 23.4326 41.8315 140
      vertex 23.7 41.7124 141
      vertex 23.4326 41.8315 141
    endloop
  endfacet
  facet normal -0.406867 -0.913487 -0
    outer loop
      vertex 23.7 41.7124 141
      vertex 23.4326 41.8315 140
      vertex 23.7 41.7124 140
    endloop
  endfacet
  facet normal 0 1 -0
    outer loop
      vertex 23.1463 39.1077 140
      vertex 22.8537 39.1077 141
      vertex 23.1463 39.1077 141
    endloop
  endfacet
  facet normal 0 1 0
    outer loop
      vertex 22.8537 39.1077 141
      vertex 23.1463 39.1077 140
      vertex 22.8537 39.1077 140
    endloop
  endfacet
  facet normal 0.99452 0.104543 0
    outer loop
      vertex 21.6306 40.2089 141
      vertex 21.6 40.5 140
      vertex 21.6 40.5 141
    endloop
  endfacet
  facet normal 0.99452 0.104543 0
    outer loop
      vertex 21.6 40.5 140
      vertex 21.6306 40.2089 141
      vertex 21.6306 40.2089 140
    endloop
  endfacet
  facet normal 0.743209 0.669059 0
    outer loop
      vertex 22.0632 39.4596 141
      vertex 21.8674 39.6771 140
      vertex 21.8674 39.6771 141
    endloop
  endfacet
  facet normal 0.743209 0.669059 0
    outer loop
      vertex 21.8674 39.6771 140
      vertex 22.0632 39.4596 141
      vertex 22.0632 39.4596 140
    endloop
  endfacet
  facet normal 0.743209 -0.669059 0
    outer loop
      vertex 21.8674 41.3229 141
      vertex 22.0632 41.5404 140
      vertex 22.0632 41.5404 141
    endloop
  endfacet
  facet normal 0.743209 -0.669059 0
    outer loop
      vertex 22.0632 41.5404 140
      vertex 21.8674 41.3229 141
      vertex 21.8674 41.3229 140
    endloop
  endfacet
  facet normal 0 -1 0
    outer loop
      vertex 22.8537 134.892 140
      vertex 23.1463 134.892 141
      vertex 22.8537 134.892 141
    endloop
  endfacet
  facet normal 0 -1 -0
    outer loop
      vertex 23.1463 134.892 141
      vertex 22.8537 134.892 140
      vertex 23.1463 134.892 140
    endloop
  endfacet
  facet normal -0.950984 -0.309241 0
    outer loop
      vertex 24.3694 133.791 140
      vertex 24.279 134.069 141
      vertex 24.279 134.069 140
    endloop
  endfacet
  facet normal -0.950984 -0.309241 0
    outer loop
      vertex 24.279 134.069 141
      vertex 24.3694 133.791 140
      vertex 24.3694 133.791 141
    endloop
  endfacet
  facet normal -0.994517 -0.104578 0
    outer loop
      vertex 24.4 133.5 140
      vertex 24.3694 133.791 141
      vertex 24.3694 133.791 140
    endloop
  endfacet
  facet normal -0.994517 -0.104578 0
    outer loop
      vertex 24.3694 133.791 141
      vertex 24.4 133.5 140
      vertex 24.4 133.5 141
    endloop
  endfacet
  facet normal -0.86639 -0.499368 0
    outer loop
      vertex 24.279 134.069 140
      vertex 24.1326 134.323 141
      vertex 24.1326 134.323 140
    endloop
  endfacet
  facet normal -0.86639 -0.499368 0
    outer loop
      vertex 24.1326 134.323 141
      vertex 24.279 134.069 140
      vertex 24.279 134.069 141
    endloop
  endfacet
  facet normal 0.587684 0.809091 -0
    outer loop
      vertex 22.3 132.288 140
      vertex 22.0632 132.46 141
      vertex 22.3 132.288 141
    endloop
  endfacet
  facet normal 0.587684 0.809091 0
    outer loop
      vertex 22.0632 132.46 141
      vertex 22.3 132.288 140
      vertex 22.0632 132.46 140
    endloop
  endfacet
  facet normal 0.950984 0.309241 0
    outer loop
      vertex 21.721 132.931 141
      vertex 21.6306 133.209 140
      vertex 21.6306 133.209 141
    endloop
  endfacet
  facet normal 0.950984 0.309241 0
    outer loop
      vertex 21.6306 133.209 140
      vertex 21.721 132.931 141
      vertex 21.721 132.931 140
    endloop
  endfacet
  facet normal -0.994517 0.104578 0
    outer loop
      vertex 24.3694 133.209 140
      vertex 24.4 133.5 141
      vertex 24.4 133.5 140
    endloop
  endfacet
  facet normal -0.994517 0.104578 0
    outer loop
      vertex 24.4 133.5 141
      vertex 24.3694 133.209 140
      vertex 24.3694 133.209 141
    endloop
  endfacet
  facet normal 0.742443 -0.669909 0
    outer loop
      vertex 21.8674 134.323 141
      vertex 22.0632 134.54 140
      vertex 22.0632 134.54 141
    endloop
  endfacet
  facet normal 0.742443 -0.669909 0
    outer loop
      vertex 22.0632 134.54 140
      vertex 21.8674 134.323 141
      vertex 21.8674 134.323 140
    endloop
  endfacet
  facet normal -0.742443 -0.669909 0
    outer loop
      vertex 24.1326 134.323 140
      vertex 23.9368 134.54 141
      vertex 23.9368 134.54 140
    endloop
  endfacet
  facet normal -0.742443 -0.669909 0
    outer loop
      vertex 23.9368 134.54 141
      vertex 24.1326 134.323 140
      vertex 24.1326 134.323 141
    endloop
  endfacet
  facet normal 0.406582 -0.913614 0
    outer loop
      vertex 22.3 134.712 140
      vertex 22.5674 134.831 141
      vertex 22.3 134.712 141
    endloop
  endfacet
  facet normal 0.406582 -0.913614 0
    outer loop
      vertex 22.5674 134.831 141
      vertex 22.3 134.712 140
      vertex 22.5674 134.831 140
    endloop
  endfacet
  facet normal 0.208386 0.978047 -0
    outer loop
      vertex 22.8537 132.108 140
      vertex 22.5674 132.169 141
      vertex 22.8537 132.108 141
    endloop
  endfacet
  facet normal 0.208386 0.978047 0
    outer loop
      vertex 22.5674 132.169 141
      vertex 22.8537 132.108 140
      vertex 22.5674 132.169 140
    endloop
  endfacet
  facet normal 0.950984 -0.309241 0
    outer loop
      vertex 21.6306 133.791 141
      vertex 21.721 134.069 140
      vertex 21.721 134.069 141
    endloop
  endfacet
  facet normal 0.950984 -0.309241 0
    outer loop
      vertex 21.721 134.069 140
      vertex 21.6306 133.791 141
      vertex 21.6306 133.791 140
    endloop
  endfacet
  facet normal 0.587684 -0.809091 0
    outer loop
      vertex 22.0632 134.54 140
      vertex 22.3 134.712 141
      vertex 22.0632 134.54 141
    endloop
  endfacet
  facet normal 0.587684 -0.809091 0
    outer loop
      vertex 22.3 134.712 141
      vertex 22.0632 134.54 140
      vertex 22.3 134.712 140
    endloop
  endfacet
  facet normal -0.742443 0.669909 0
    outer loop
      vertex 23.9368 132.46 140
      vertex 24.1326 132.677 141
      vertex 24.1326 132.677 140
    endloop
  endfacet
  facet normal -0.742443 0.669909 0
    outer loop
      vertex 24.1326 132.677 141
      vertex 23.9368 132.46 140
      vertex 23.9368 132.46 141
    endloop
  endfacet
  facet normal 0.994517 -0.104578 0
    outer loop
      vertex 21.6 133.5 141
      vertex 21.6306 133.791 140
      vertex 21.6306 133.791 141
    endloop
  endfacet
  facet normal 0.994517 -0.104578 0
    outer loop
      vertex 21.6306 133.791 140
      vertex 21.6 133.5 141
      vertex 21.6 133.5 140
    endloop
  endfacet
  facet normal -0.950984 0.309241 0
    outer loop
      vertex 24.279 132.931 140
      vertex 24.3694 133.209 141
      vertex 24.3694 133.209 140
    endloop
  endfacet
  facet normal -0.950984 0.309241 0
    outer loop
      vertex 24.3694 133.209 141
      vertex 24.279 132.931 140
      vertex 24.279 132.931 141
    endloop
  endfacet
  facet normal -0.208386 -0.978047 0
    outer loop
      vertex 23.1463 134.892 140
      vertex 23.4326 134.831 141
      vertex 23.1463 134.892 141
    endloop
  endfacet
  facet normal -0.208386 -0.978047 -0
    outer loop
      vertex 23.4326 134.831 141
      vertex 23.1463 134.892 140
      vertex 23.4326 134.831 140
    endloop
  endfacet
  facet normal 0 1 -0
    outer loop
      vertex 23.1463 132.108 140
      vertex 22.8537 132.108 141
      vertex 23.1463 132.108 141
    endloop
  endfacet
  facet normal 0 1 0
    outer loop
      vertex 22.8537 132.108 141
      vertex 23.1463 132.108 140
      vertex 22.8537 132.108 140
    endloop
  endfacet
  facet normal 0.742443 0.669909 0
    outer loop
      vertex 22.0632 132.46 141
      vertex 21.8674 132.677 140
      vertex 21.8674 132.677 141
    endloop
  endfacet
  facet normal 0.742443 0.669909 0
    outer loop
      vertex 21.8674 132.677 140
      vertex 22.0632 132.46 141
      vertex 22.0632 132.46 140
    endloop
  endfacet
  facet normal -0.406582 0.913614 0
    outer loop
      vertex 23.7 132.288 140
      vertex 23.4326 132.169 141
      vertex 23.7 132.288 141
    endloop
  endfacet
  facet normal -0.406582 0.913614 0
    outer loop
      vertex 23.4326 132.169 141
      vertex 23.7 132.288 140
      vertex 23.4326 132.169 140
    endloop
  endfacet
  facet normal -0.587684 0.809091 0
    outer loop
      vertex 23.9368 132.46 140
      vertex 23.7 132.288 141
      vertex 23.9368 132.46 141
    endloop
  endfacet
  facet normal -0.587684 0.809091 0
    outer loop
      vertex 23.7 132.288 141
      vertex 23.9368 132.46 140
      vertex 23.7 132.288 140
    endloop
  endfacet
  facet normal -0.86639 0.499368 0
    outer loop
      vertex 24.1326 132.677 140
      vertex 24.279 132.931 141
      vertex 24.279 132.931 140
    endloop
  endfacet
  facet normal -0.86639 0.499368 0
    outer loop
      vertex 24.279 132.931 141
      vertex 24.1326 132.677 140
      vertex 24.1326 132.677 141
    endloop
  endfacet
  facet normal -0.587684 -0.809091 0
    outer loop
      vertex 23.7 134.712 140
      vertex 23.9368 134.54 141
      vertex 23.7 134.712 141
    endloop
  endfacet
  facet normal -0.587684 -0.809091 -0
    outer loop
      vertex 23.9368 134.54 141
      vertex 23.7 134.712 140
      vertex 23.9368 134.54 140
    endloop
  endfacet
  facet normal -0.406582 -0.913614 0
    outer loop
      vertex 23.4326 134.831 140
      vertex 23.7 134.712 141
      vertex 23.4326 134.831 141
    endloop
  endfacet
  facet normal -0.406582 -0.913614 -0
    outer loop
      vertex 23.7 134.712 141
      vertex 23.4326 134.831 140
      vertex 23.7 134.712 140
    endloop
  endfacet
  facet normal 0.86639 0.499368 0
    outer loop
      vertex 21.8674 132.677 141
      vertex 21.721 132.931 140
      vertex 21.721 132.931 141
    endloop
  endfacet
  facet normal 0.86639 0.499368 0
    outer loop
      vertex 21.721 132.931 140
      vertex 21.8674 132.677 141
      vertex 21.8674 132.677 140
    endloop
  endfacet
  facet normal -0.208386 0.978047 0
    outer loop
      vertex 23.4326 132.169 140
      vertex 23.1463 132.108 141
      vertex 23.4326 132.169 141
    endloop
  endfacet
  facet normal -0.208386 0.978047 0
    outer loop
      vertex 23.1463 132.108 141
      vertex 23.4326 132.169 140
      vertex 23.1463 132.108 140
    endloop
  endfacet
  facet normal 0.406582 0.913614 -0
    outer loop
      vertex 22.5674 132.169 140
      vertex 22.3 132.288 141
      vertex 22.5674 132.169 141
    endloop
  endfacet
  facet normal 0.406582 0.913614 0
    outer loop
      vertex 22.3 132.288 141
      vertex 22.5674 132.169 140
      vertex 22.3 132.288 140
    endloop
  endfacet
  facet normal 0.208386 -0.978047 0
    outer loop
      vertex 22.5674 134.831 140
      vertex 22.8537 134.892 141
      vertex 22.5674 134.831 141
    endloop
  endfacet
  facet normal 0.208386 -0.978047 0
    outer loop
      vertex 22.8537 134.892 141
      vertex 22.5674 134.831 140
      vertex 22.8537 134.892 140
    endloop
  endfacet
  facet normal 0.994517 0.104578 0
    outer loop
      vertex 21.6306 133.209 141
      vertex 21.6 133.5 140
      vertex 21.6 133.5 141
    endloop
  endfacet
  facet normal 0.994517 0.104578 0
    outer loop
      vertex 21.6 133.5 140
      vertex 21.6306 133.209 141
      vertex 21.6306 133.209 140
    endloop
  endfacet
  facet normal 0.86639 -0.499368 0
    outer loop
      vertex 21.721 134.069 141
      vertex 21.8674 134.323 140
      vertex 21.8674 134.323 141
    endloop
  endfacet
  facet normal 0.86639 -0.499368 0
    outer loop
      vertex 21.8674 134.323 140
      vertex 21.721 134.069 141
      vertex 21.721 134.069 140
    endloop
  endfacet
  facet normal -0.951483 -0.307702 0
    outer loop
      vertex 158.369 40.7911 140
      vertex 158.279 41.0694 141
      vertex 158.279 41.0694 140
    endloop
  endfacet
  facet normal -0.951483 -0.307702 0
    outer loop
      vertex 158.279 41.0694 141
      vertex 158.369 40.7911 140
      vertex 158.369 40.7911 141
    endloop
  endfacet
  facet normal -0.994377 -0.105894 0
    outer loop
      vertex 158.4 40.5 140
      vertex 158.369 40.7911 141
      vertex 158.369 40.7911 140
    endloop
  endfacet
  facet normal -0.994377 -0.105894 0
    outer loop
      vertex 158.369 40.7911 141
      vertex 158.4 40.5 140
      vertex 158.4 40.5 141
    endloop
  endfacet
  facet normal -0.866555 -0.499081 0
    outer loop
      vertex 158.279 41.0694 140
      vertex 158.133 41.3229 141
      vertex 158.133 41.3229 140
    endloop
  endfacet
  facet normal -0.866555 -0.499081 0
    outer loop
      vertex 158.133 41.3229 141
      vertex 158.279 41.0694 140
      vertex 158.279 41.0694 141
    endloop
  endfacet
  facet normal -0.951483 0.307702 0
    outer loop
      vertex 158.279 39.9306 140
      vertex 158.369 40.2089 141
      vertex 158.369 40.2089 140
    endloop
  endfacet
  facet normal -0.951483 0.307702 0
    outer loop
      vertex 158.369 40.2089 141
      vertex 158.279 39.9306 140
      vertex 158.279 39.9306 141
    endloop
  endfacet
  facet normal -0.994377 0.105894 0
    outer loop
      vertex 158.369 40.2089 140
      vertex 158.4 40.5 141
      vertex 158.4 40.5 140
    endloop
  endfacet
  facet normal -0.994377 0.105894 0
    outer loop
      vertex 158.4 40.5 141
      vertex 158.369 40.2089 140
      vertex 158.369 40.2089 141
    endloop
  endfacet
  facet normal -0.742869 -0.669436 0
    outer loop
      vertex 158.133 41.3229 140
      vertex 157.937 41.5404 141
      vertex 157.937 41.5404 140
    endloop
  endfacet
  facet normal -0.742869 -0.669436 0
    outer loop
      vertex 157.937 41.5404 141
      vertex 158.133 41.3229 140
      vertex 158.133 41.3229 141
    endloop
  endfacet
  facet normal 0.951483 0.307702 0
    outer loop
      vertex 155.721 39.9306 141
      vertex 155.631 40.2089 140
      vertex 155.631 40.2089 141
    endloop
  endfacet
  facet normal 0.951483 0.307702 0
    outer loop
      vertex 155.631 40.2089 140
      vertex 155.721 39.9306 141
      vertex 155.721 39.9306 140
    endloop
  endfacet
  facet normal 0.951483 -0.307702 0
    outer loop
      vertex 155.631 40.7911 141
      vertex 155.721 41.0694 140
      vertex 155.721 41.0694 141
    endloop
  endfacet
  facet normal 0.951483 -0.307702 0
    outer loop
      vertex 155.721 41.0694 140
      vertex 155.631 40.7911 141
      vertex 155.631 40.7911 140
    endloop
  endfacet
  facet normal -0.587359 0.809326 0
    outer loop
      vertex 157.937 39.4596 140
      vertex 157.7 39.2876 141
      vertex 157.937 39.4596 141
    endloop
  endfacet
  facet normal -0.587359 0.809326 0
    outer loop
      vertex 157.7 39.2876 141
      vertex 157.937 39.4596 140
      vertex 157.7 39.2876 140
    endloop
  endfacet
  facet normal 0.587359 -0.809326 0
    outer loop
      vertex 156.063 41.5404 140
      vertex 156.3 41.7124 141
      vertex 156.063 41.5404 141
    endloop
  endfacet
  facet normal 0.587359 -0.809326 0
    outer loop
      vertex 156.3 41.7124 141
      vertex 156.063 41.5404 140
      vertex 156.3 41.7124 140
    endloop
  endfacet
  facet normal 0.866555 -0.499081 0
    outer loop
      vertex 155.721 41.0694 141
      vertex 155.867 41.3229 140
      vertex 155.867 41.3229 141
    endloop
  endfacet
  facet normal 0.866555 -0.499081 0
    outer loop
      vertex 155.867 41.3229 140
      vertex 155.721 41.0694 141
      vertex 155.721 41.0694 140
    endloop
  endfacet
  facet normal -0.866555 0.499081 0
    outer loop
      vertex 158.133 39.6771 140
      vertex 158.279 39.9306 141
      vertex 158.279 39.9306 140
    endloop
  endfacet
  facet normal -0.866555 0.499081 0
    outer loop
      vertex 158.279 39.9306 141
      vertex 158.133 39.6771 140
      vertex 158.133 39.6771 141
    endloop
  endfacet
  facet normal 0 -1 0
    outer loop
      vertex 156.854 41.8923 140
      vertex 157.146 41.8923 141
      vertex 156.854 41.8923 141
    endloop
  endfacet
  facet normal 0 -1 -0
    outer loop
      vertex 157.146 41.8923 141
      vertex 156.854 41.8923 140
      vertex 157.146 41.8923 140
    endloop
  endfacet
  facet normal 0.407376 -0.913261 0
    outer loop
      vertex 156.3 41.7124 140
      vertex 156.567 41.8315 141
      vertex 156.3 41.7124 141
    endloop
  endfacet
  facet normal 0.407376 -0.913261 0
    outer loop
      vertex 156.567 41.8315 141
      vertex 156.3 41.7124 140
      vertex 156.567 41.8315 140
    endloop
  endfacet
  facet normal 0.207247 0.978289 -0
    outer loop
      vertex 156.854 39.1077 140
      vertex 156.567 39.1685 141
      vertex 156.854 39.1077 141
    endloop
  endfacet
  facet normal 0.207247 0.978289 0
    outer loop
      vertex 156.567 39.1685 141
      vertex 156.854 39.1077 140
      vertex 156.567 39.1685 140
    endloop
  endfacet
  facet normal 0 1 -0
    outer loop
      vertex 157.146 39.1077 140
      vertex 156.854 39.1077 141
      vertex 157.146 39.1077 141
    endloop
  endfacet
  facet normal 0 1 0
    outer loop
      vertex 156.854 39.1077 141
      vertex 157.146 39.1077 140
      vertex 156.854 39.1077 140
    endloop
  endfacet
  facet normal 0.407376 0.913261 -0
    outer loop
      vertex 156.567 39.1685 140
      vertex 156.3 39.2876 141
      vertex 156.567 39.1685 141
    endloop
  endfacet
  facet normal 0.407376 0.913261 0
    outer loop
      vertex 156.3 39.2876 141
      vertex 156.567 39.1685 140
      vertex 156.3 39.2876 140
    endloop
  endfacet
  facet normal 0.207247 -0.978289 0
    outer loop
      vertex 156.567 41.8315 140
      vertex 156.854 41.8923 141
      vertex 156.567 41.8315 141
    endloop
  endfacet
  facet normal 0.207247 -0.978289 0
    outer loop
      vertex 156.854 41.8923 141
      vertex 156.567 41.8315 140
      vertex 156.854 41.8923 140
    endloop
  endfacet
  facet normal -0.207247 0.978289 0
    outer loop
      vertex 157.433 39.1685 140
      vertex 157.146 39.1077 141
      vertex 157.433 39.1685 141
    endloop
  endfacet
  facet normal -0.207247 0.978289 0
    outer loop
      vertex 157.146 39.1077 141
      vertex 157.433 39.1685 140
      vertex 157.146 39.1077 140
    endloop
  endfacet
  facet normal -0.742869 0.669436 0
    outer loop
      vertex 157.937 39.4596 140
      vertex 158.133 39.6771 141
      vertex 158.133 39.6771 140
    endloop
  endfacet
  facet normal -0.742869 0.669436 0
    outer loop
      vertex 158.133 39.6771 141
      vertex 157.937 39.4596 140
      vertex 157.937 39.4596 141
    endloop
  endfacet
  facet normal -0.407376 0.913261 0
    outer loop
      vertex 157.7 39.2876 140
      vertex 157.433 39.1685 141
      vertex 157.7 39.2876 141
    endloop
  endfacet
  facet normal -0.407376 0.913261 0
    outer loop
      vertex 157.433 39.1685 141
      vertex 157.7 39.2876 140
      vertex 157.433 39.1685 140
    endloop
  endfacet
  facet normal 0.587359 0.809326 -0
    outer loop
      vertex 156.3 39.2876 140
      vertex 156.063 39.4596 141
      vertex 156.3 39.2876 141
    endloop
  endfacet
  facet normal 0.587359 0.809326 0
    outer loop
      vertex 156.063 39.4596 141
      vertex 156.3 39.2876 140
      vertex 156.063 39.4596 140
    endloop
  endfacet
  facet normal -0.587359 -0.809326 0
    outer loop
      vertex 157.7 41.7124 140
      vertex 157.937 41.5404 141
      vertex 157.7 41.7124 141
    endloop
  endfacet
  facet normal -0.587359 -0.809326 -0
    outer loop
      vertex 157.937 41.5404 141
      vertex 157.7 41.7124 140
      vertex 157.937 41.5404 140
    endloop
  endfacet
  facet normal 0.994377 -0.105894 0
    outer loop
      vertex 155.6 40.5 141
      vertex 155.631 40.7911 140
      vertex 155.631 40.7911 141
    endloop
  endfacet
  facet normal 0.994377 -0.105894 0
    outer loop
      vertex 155.631 40.7911 140
      vertex 155.6 40.5 141
      vertex 155.6 40.5 140
    endloop
  endfacet
  facet normal -0.207247 -0.978289 0
    outer loop
      vertex 157.146 41.8923 140
      vertex 157.433 41.8315 141
      vertex 157.146 41.8923 141
    endloop
  endfacet
  facet normal -0.207247 -0.978289 -0
    outer loop
      vertex 157.433 41.8315 141
      vertex 157.146 41.8923 140
      vertex 157.433 41.8315 140
    endloop
  endfacet
  facet normal 0.866555 0.499081 0
    outer loop
      vertex 155.867 39.6771 141
      vertex 155.721 39.9306 140
      vertex 155.721 39.9306 141
    endloop
  endfacet
  facet normal 0.866555 0.499081 0
    outer loop
      vertex 155.721 39.9306 140
      vertex 155.867 39.6771 141
      vertex 155.867 39.6771 140
    endloop
  endfacet
  facet normal -0.407376 -0.913261 0
    outer loop
      vertex 157.433 41.8315 140
      vertex 157.7 41.7124 141
      vertex 157.433 41.8315 141
    endloop
  endfacet
  facet normal -0.407376 -0.913261 -0
    outer loop
      vertex 157.7 41.7124 141
      vertex 157.433 41.8315 140
      vertex 157.7 41.7124 140
    endloop
  endfacet
  facet normal 0.994377 0.105894 0
    outer loop
      vertex 155.631 40.2089 141
      vertex 155.6 40.5 140
      vertex 155.6 40.5 141
    endloop
  endfacet
  facet normal 0.994377 0.105894 0
    outer loop
      vertex 155.6 40.5 140
      vertex 155.631 40.2089 141
      vertex 155.631 40.2089 140
    endloop
  endfacet
  facet normal 0.742869 0.669436 0
    outer loop
      vertex 156.063 39.4596 141
      vertex 155.867 39.6771 140
      vertex 155.867 39.6771 141
    endloop
  endfacet
  facet normal 0.742869 0.669436 0
    outer loop
      vertex 155.867 39.6771 140
      vertex 156.063 39.4596 141
      vertex 156.063 39.4596 140
    endloop
  endfacet
  facet normal 0.742869 -0.669436 0
    outer loop
      vertex 155.867 41.3229 141
      vertex 156.063 41.5404 140
      vertex 156.063 41.5404 141
    endloop
  endfacet
  facet normal 0.742869 -0.669436 0
    outer loop
      vertex 156.063 41.5404 140
      vertex 155.867 41.3229 141
      vertex 155.867 41.3229 140
    endloop
  endfacet
  facet normal 0 -1 0
    outer loop
      vertex 156.854 134.892 140
      vertex 157.146 134.892 141
      vertex 156.854 134.892 141
    endloop
  endfacet
  facet normal 0 -1 -0
    outer loop
      vertex 157.146 134.892 141
      vertex 156.854 134.892 140
      vertex 157.146 134.892 140
    endloop
  endfacet
  facet normal -0.951386 -0.308003 0
    outer loop
      vertex 158.369 133.791 140
      vertex 158.279 134.069 141
      vertex 158.279 134.069 140
    endloop
  endfacet
  facet normal -0.951386 -0.308003 0
    outer loop
      vertex 158.279 134.069 141
      vertex 158.369 133.791 140
      vertex 158.369 133.791 141
    endloop
  endfacet
  facet normal -0.994374 -0.10593 0
    outer loop
      vertex 158.4 133.5 140
      vertex 158.369 133.791 141
      vertex 158.369 133.791 140
    endloop
  endfacet
  facet normal -0.994374 -0.10593 0
    outer loop
      vertex 158.369 133.791 141
      vertex 158.4 133.5 140
      vertex 158.4 133.5 141
    endloop
  endfacet
  facet normal -0.86698 -0.498343 0
    outer loop
      vertex 158.279 134.069 140
      vertex 158.133 134.323 141
      vertex 158.133 134.323 140
    endloop
  endfacet
  facet normal -0.86698 -0.498343 0
    outer loop
      vertex 158.133 134.323 141
      vertex 158.279 134.069 140
      vertex 158.279 134.069 141
    endloop
  endfacet
  facet normal 0.587359 0.809326 -0
    outer loop
      vertex 156.3 132.288 140
      vertex 156.063 132.46 141
      vertex 156.3 132.288 141
    endloop
  endfacet
  facet normal 0.587359 0.809326 0
    outer loop
      vertex 156.063 132.46 141
      vertex 156.3 132.288 140
      vertex 156.063 132.46 140
    endloop
  endfacet
  facet normal 0.951386 0.308003 0
    outer loop
      vertex 155.721 132.931 141
      vertex 155.631 133.209 140
      vertex 155.631 133.209 141
    endloop
  endfacet
  facet normal 0.951386 0.308003 0
    outer loop
      vertex 155.631 133.209 140
      vertex 155.721 132.931 141
      vertex 155.721 132.931 140
    endloop
  endfacet
  facet normal -0.994374 0.10593 0
    outer loop
      vertex 158.369 133.209 140
      vertex 158.4 133.5 141
      vertex 158.4 133.5 140
    endloop
  endfacet
  facet normal -0.994374 0.10593 0
    outer loop
      vertex 158.4 133.5 141
      vertex 158.369 133.209 140
      vertex 158.369 133.209 141
    endloop
  endfacet
  facet normal 0.742103 -0.670286 0
    outer loop
      vertex 155.867 134.323 141
      vertex 156.063 134.54 140
      vertex 156.063 134.54 141
    endloop
  endfacet
  facet normal 0.742103 -0.670286 0
    outer loop
      vertex 156.063 134.54 140
      vertex 155.867 134.323 141
      vertex 155.867 134.323 140
    endloop
  endfacet
  facet normal -0.742103 -0.670286 0
    outer loop
      vertex 158.133 134.323 140
      vertex 157.937 134.54 141
      vertex 157.937 134.54 140
    endloop
  endfacet
  facet normal -0.742103 -0.670286 0
    outer loop
      vertex 157.937 134.54 141
      vertex 158.133 134.323 140
      vertex 158.133 134.323 141
    endloop
  endfacet
  facet normal 0.40709 -0.913388 0
    outer loop
      vertex 156.3 134.712 140
      vertex 156.567 134.831 141
      vertex 156.3 134.712 141
    endloop
  endfacet
  facet normal 0.40709 -0.913388 0
    outer loop
      vertex 156.567 134.831 141
      vertex 156.3 134.712 140
      vertex 156.567 134.831 140
    endloop
  endfacet
  facet normal 0.2079 0.97815 -0
    outer loop
      vertex 156.854 132.108 140
      vertex 156.567 132.169 141
      vertex 156.854 132.108 141
    endloop
  endfacet
  facet normal 0.2079 0.97815 0
    outer loop
      vertex 156.567 132.169 141
      vertex 156.854 132.108 140
      vertex 156.567 132.169 140
    endloop
  endfacet
  facet normal 0.951386 -0.308003 0
    outer loop
      vertex 155.631 133.791 141
      vertex 155.721 134.069 140
      vertex 155.721 134.069 141
    endloop
  endfacet
  facet normal 0.951386 -0.308003 0
    outer loop
      vertex 155.721 134.069 140
      vertex 155.631 133.791 141
      vertex 155.631 133.791 140
    endloop
  endfacet
  facet normal 0.587359 -0.809326 0
    outer loop
      vertex 156.063 134.54 140
      vertex 156.3 134.712 141
      vertex 156.063 134.54 141
    endloop
  endfacet
  facet normal 0.587359 -0.809326 0
    outer loop
      vertex 156.3 134.712 141
      vertex 156.063 134.54 140
      vertex 156.3 134.712 140
    endloop
  endfacet
  facet normal -0.742103 0.670286 0
    outer loop
      vertex 157.937 132.46 140
      vertex 158.133 132.677 141
      vertex 158.133 132.677 140
    endloop
  endfacet
  facet normal -0.742103 0.670286 0
    outer loop
      vertex 158.133 132.677 141
      vertex 157.937 132.46 140
      vertex 157.937 132.46 141
    endloop
  endfacet
  facet normal 0.994374 -0.10593 0
    outer loop
      vertex 155.6 133.5 141
      vertex 155.631 133.791 140
      vertex 155.631 133.791 141
    endloop
  endfacet
  facet normal 0.994374 -0.10593 0
    outer loop
      vertex 155.631 133.791 140
      vertex 155.6 133.5 141
      vertex 155.6 133.5 140
    endloop
  endfacet
  facet normal -0.951386 0.308003 0
    outer loop
      vertex 158.279 132.931 140
      vertex 158.369 133.209 141
      vertex 158.369 133.209 140
    endloop
  endfacet
  facet normal -0.951386 0.308003 0
    outer loop
      vertex 158.369 133.209 141
      vertex 158.279 132.931 140
      vertex 158.279 132.931 141
    endloop
  endfacet
  facet normal -0.2079 -0.97815 0
    outer loop
      vertex 157.146 134.892 140
      vertex 157.433 134.831 141
      vertex 157.146 134.892 141
    endloop
  endfacet
  facet normal -0.2079 -0.97815 -0
    outer loop
      vertex 157.433 134.831 141
      vertex 157.146 134.892 140
      vertex 157.433 134.831 140
    endloop
  endfacet
  facet normal 0.2079 -0.97815 0
    outer loop
      vertex 156.567 134.831 140
      vertex 156.854 134.892 141
      vertex 156.567 134.831 141
    endloop
  endfacet
  facet normal 0.2079 -0.97815 0
    outer loop
      vertex 156.854 134.892 141
      vertex 156.567 134.831 140
      vertex 156.854 134.892 140
    endloop
  endfacet
  facet normal 0 1 -0
    outer loop
      vertex 157.146 132.108 140
      vertex 156.854 132.108 141
      vertex 157.146 132.108 141
    endloop
  endfacet
  facet normal 0 1 0
    outer loop
      vertex 156.854 132.108 141
      vertex 157.146 132.108 140
      vertex 156.854 132.108 140
    endloop
  endfacet
  facet normal 0.742103 0.670286 0
    outer loop
      vertex 156.063 132.46 141
      vertex 155.867 132.677 140
      vertex 155.867 132.677 141
    endloop
  endfacet
  facet normal 0.742103 0.670286 0
    outer loop
      vertex 155.867 132.677 140
      vertex 156.063 132.46 141
      vertex 156.063 132.46 140
    endloop
  endfacet
  facet normal -0.587359 0.809326 0
    outer loop
      vertex 157.937 132.46 140
      vertex 157.7 132.288 141
      vertex 157.937 132.46 141
    endloop
  endfacet
  facet normal -0.587359 0.809326 0
    outer loop
      vertex 157.7 132.288 141
      vertex 157.937 132.46 140
      vertex 157.7 132.288 140
    endloop
  endfacet
  facet normal -0.86698 0.498343 0
    outer loop
      vertex 158.133 132.677 140
      vertex 158.279 132.931 141
      vertex 158.279 132.931 140
    endloop
  endfacet
  facet normal -0.86698 0.498343 0
    outer loop
      vertex 158.279 132.931 141
      vertex 158.133 132.677 140
      vertex 158.133 132.677 141
    endloop
  endfacet
  facet normal -0.587359 -0.809326 0
    outer loop
      vertex 157.7 134.712 140
      vertex 157.937 134.54 141
      vertex 157.7 134.712 141
    endloop
  endfacet
  facet normal -0.587359 -0.809326 -0
    outer loop
      vertex 157.937 134.54 141
      vertex 157.7 134.712 140
      vertex 157.937 134.54 140
    endloop
  endfacet
  facet normal -0.40709 -0.913388 0
    outer loop
      vertex 157.433 134.831 140
      vertex 157.7 134.712 141
      vertex 157.433 134.831 141
    endloop
  endfacet
  facet normal -0.40709 -0.913388 -0
    outer loop
      vertex 157.7 134.712 141
      vertex 157.433 134.831 140
      vertex 157.7 134.712 140
    endloop
  endfacet
  facet normal -0.40709 0.913388 0
    outer loop
      vertex 157.7 132.288 140
      vertex 157.433 132.169 141
      vertex 157.7 132.288 141
    endloop
  endfacet
  facet normal -0.40709 0.913388 0
    outer loop
      vertex 157.433 132.169 141
      vertex 157.7 132.288 140
      vertex 157.433 132.169 140
    endloop
  endfacet
  facet normal 0.86698 0.498343 0
    outer loop
      vertex 155.867 132.677 141
      vertex 155.721 132.931 140
      vertex 155.721 132.931 141
    endloop
  endfacet
  facet normal 0.86698 0.498343 0
    outer loop
      vertex 155.721 132.931 140
      vertex 155.867 132.677 141
      vertex 155.867 132.677 140
    endloop
  endfacet
  facet normal -0.2079 0.97815 0
    outer loop
      vertex 157.433 132.169 140
      vertex 157.146 132.108 141
      vertex 157.433 132.169 141
    endloop
  endfacet
  facet normal -0.2079 0.97815 0
    outer loop
      vertex 157.146 132.108 141
      vertex 157.433 132.169 140
      vertex 157.146 132.108 140
    endloop
  endfacet
  facet normal 0.40709 0.913388 -0
    outer loop
      vertex 156.567 132.169 140
      vertex 156.3 132.288 141
      vertex 156.567 132.169 141
    endloop
  endfacet
  facet normal 0.40709 0.913388 0
    outer loop
      vertex 156.3 132.288 141
      vertex 156.567 132.169 140
      vertex 156.3 132.288 140
    endloop
  endfacet
  facet normal 0.994374 0.10593 0
    outer loop
      vertex 155.631 133.209 141
      vertex 155.6 133.5 140
      vertex 155.6 133.5 141
    endloop
  endfacet
  facet normal 0.994374 0.10593 0
    outer loop
      vertex 155.6 133.5 140
      vertex 155.631 133.209 141
      vertex 155.631 133.209 140
    endloop
  endfacet
  facet normal 0.86698 -0.498343 0
    outer loop
      vertex 155.721 134.069 141
      vertex 155.867 134.323 140
      vertex 155.867 134.323 141
    endloop
  endfacet
  facet normal 0.86698 -0.498343 0
    outer loop
      vertex 155.867 134.323 140
      vertex 155.721 134.069 141
      vertex 155.721 134.069 140
    endloop
  endfacet
  facet normal 1 -0 0
    outer loop
      vertex 165 33 141
      vertex 165 141 140
      vertex 165 141 141
    endloop
  endfacet
  facet normal 1 0 0
    outer loop
      vertex 165 141 140
      vertex 165 33 141
      vertex 165 33 140
    endloop
  endfacet
  facet normal -0 0 1
    outer loop
      vertex 24.1326 132.677 141
      vertex 32 126 141
      vertex 24.279 132.931 141
    endloop
  endfacet
  facet normal 0 0 1
    outer loop
      vertex 32 48 141
      vertex 24.3694 40.7911 141
      vertex 24.4 40.5 141
    endloop
  endfacet
  facet normal -0 0 1
    outer loop
      vertex 23.9368 132.46 141
      vertex 32 126 141
      vertex 24.1326 132.677 141
    endloop
  endfacet
  facet normal 0 0 1
    outer loop
      vertex 32 48 141
      vertex 24.279 41.0694 141
      vertex 24.3694 40.7911 141
    endloop
  endfacet
  facet normal -0 0 1
    outer loop
      vertex 23.7 132.288 141
      vertex 32 126 141
      vertex 23.9368 132.46 141
    endloop
  endfacet
  facet normal 0 0 1
    outer loop
      vertex 32 48 141
      vertex 24.1326 41.3229 141
      vertex 24.279 41.0694 141
    endloop
  endfacet
  facet normal -0 0 1
    outer loop
      vertex 23.4326 132.169 141
      vertex 32 126 141
      vertex 23.7 132.288 141
    endloop
  endfacet
  facet normal 0 0 1
    outer loop
      vertex 32 48 141
      vertex 23.9368 41.5404 141
      vertex 24.1326 41.3229 141
    endloop
  endfacet
  facet normal -0 0 1
    outer loop
      vertex 23.1463 132.108 141
      vertex 32 126 141
      vertex 23.4326 132.169 141
    endloop
  endfacet
  facet normal 0 0 1
    outer loop
      vertex 32 48 141
      vertex 23.7 41.7124 141
      vertex 23.9368 41.5404 141
    endloop
  endfacet
  facet normal -0 0 1
    outer loop
      vertex 22.8537 132.108 141
      vertex 32 126 141
      vertex 23.1463 132.108 141
    endloop
  endfacet
  facet normal 0 0 1
    outer loop
      vertex 32 48 141
      vertex 23.4326 41.8315 141
      vertex 23.7 41.7124 141
    endloop
  endfacet
  facet normal 0 0 1
    outer loop
      vertex 22.5674 132.169 141
      vertex 32 126 141
      vertex 22.8537 132.108 141
    endloop
  endfacet
  facet normal 0 0 1
    outer loop
      vertex 32 48 141
      vertex 23.1463 41.8923 141
      vertex 23.4326 41.8315 141
    endloop
  endfacet
  facet normal 0 0 1
    outer loop
      vertex 22.3 132.288 141
      vertex 32 126 141
      vertex 22.5674 132.169 141
    endloop
  endfacet
  facet normal 0 0 1
    outer loop
      vertex 32 48 141
      vertex 22.8537 41.8923 141
      vertex 23.1463 41.8923 141
    endloop
  endfacet
  facet normal 0 0 1
    outer loop
      vertex 32 126 141
      vertex 22.3 132.288 141
      vertex 32 48 141
    endloop
  endfacet
  facet normal 0 0 1
    outer loop
      vertex 32 48 141
      vertex 22.5674 41.8315 141
      vertex 22.8537 41.8923 141
    endloop
  endfacet
  facet normal 0 0 1
    outer loop
      vertex 22.3 41.7124 141
      vertex 32 48 141
      vertex 22.3 132.288 141
    endloop
  endfacet
  facet normal 0 0 1
    outer loop
      vertex 32 48 141
      vertex 22.3 41.7124 141
      vertex 22.5674 41.8315 141
    endloop
  endfacet
  facet normal 0 0 1
    outer loop
      vertex 22.0632 132.46 141
      vertex 22.3 41.7124 141
      vertex 22.3 132.288 141
    endloop
  endfacet
  facet normal 0 0 1
    outer loop
      vertex 22.0632 132.46 141
      vertex 22.0632 41.5404 141
      vertex 22.3 41.7124 141
    endloop
  endfacet
  facet normal 0 0 1
    outer loop
      vertex 21.8674 132.677 141
      vertex 22.0632 41.5404 141
      vertex 22.0632 132.46 141
    endloop
  endfacet
  facet normal 0 0 1
    outer loop
      vertex 21.8674 132.677 141
      vertex 21.8674 41.3229 141
      vertex 22.0632 41.5404 141
    endloop
  endfacet
  facet normal 0 0 1
    outer loop
      vertex 21.721 132.931 141
      vertex 21.8674 41.3229 141
      vertex 21.8674 132.677 141
    endloop
  endfacet
  facet normal 0 0 1
    outer loop
      vertex 21.721 132.931 141
      vertex 21.721 41.0694 141
      vertex 21.8674 41.3229 141
    endloop
  endfacet
  facet normal 0 0 1
    outer loop
      vertex 17 141 141
      vertex 21.721 132.931 141
      vertex 21.6306 133.209 141
    endloop
  endfacet
  facet normal 0 0 1
    outer loop
      vertex 21.721 132.931 141
      vertex 17 141 141
      vertex 21.721 41.0694 141
    endloop
  endfacet
  facet normal 0 0 1
    outer loop
      vertex 17 141 141
      vertex 21.6306 133.209 141
      vertex 21.6 133.5 141
    endloop
  endfacet
  facet normal 0 0 1
    outer loop
      vertex 17 33 141
      vertex 21.721 41.0694 141
      vertex 17 141 141
    endloop
  endfacet
  facet normal 0 0 1
    outer loop
      vertex 158.133 132.677 141
      vertex 165 141 141
      vertex 158.279 132.931 141
    endloop
  endfacet
  facet normal 0 0 1
    outer loop
      vertex 165 33 141
      vertex 158.369 40.7911 141
      vertex 158.4 40.5 141
    endloop
  endfacet
  facet normal 0 0 1
    outer loop
      vertex 165 141 141
      vertex 158.133 132.677 141
      vertex 165 33 141
    endloop
  endfacet
  facet normal 0 0 1
    outer loop
      vertex 165 33 141
      vertex 158.279 41.0694 141
      vertex 158.369 40.7911 141
    endloop
  endfacet
  facet normal -0 0 1
    outer loop
      vertex 158.133 41.3229 141
      vertex 165 33 141
      vertex 158.133 132.677 141
    endloop
  endfacet
  facet normal 0 0 1
    outer loop
      vertex 165 33 141
      vertex 158.133 41.3229 141
      vertex 158.279 41.0694 141
    endloop
  endfacet
  facet normal -0 0 1
    outer loop
      vertex 157.937 132.46 141
      vertex 158.133 41.3229 141
      vertex 158.133 132.677 141
    endloop
  endfacet
  facet normal 0 0 1
    outer loop
      vertex 157.937 132.46 141
      vertex 157.937 41.5404 141
      vertex 158.133 41.3229 141
    endloop
  endfacet
  facet normal -0 0 1
    outer loop
      vertex 157.7 132.288 141
      vertex 157.937 41.5404 141
      vertex 157.937 132.46 141
    endloop
  endfacet
  facet normal 0 0 1
    outer loop
      vertex 157.7 132.288 141
      vertex 157.7 41.7124 141
      vertex 157.937 41.5404 141
    endloop
  endfacet
  facet normal 0 0 1
    outer loop
      vertex 150 126 141
      vertex 157.7 132.288 141
      vertex 157.433 132.169 141
    endloop
  endfacet
  facet normal 0 0 1
    outer loop
      vertex 157.7 132.288 141
      vertex 150 126 141
      vertex 157.7 41.7124 141
    endloop
  endfacet
  facet normal 0 0 1
    outer loop
      vertex 150 126 141
      vertex 157.433 132.169 141
      vertex 157.146 132.108 141
    endloop
  endfacet
  facet normal -0 0 1
    outer loop
      vertex 150 48 141
      vertex 157.7 41.7124 141
      vertex 150 126 141
    endloop
  endfacet
  facet normal 0 0 1
    outer loop
      vertex 150 126 141
      vertex 157.146 132.108 141
      vertex 156.854 132.108 141
    endloop
  endfacet
  facet normal 0 0 1
    outer loop
      vertex 157.7 41.7124 141
      vertex 150 48 141
      vertex 157.433 41.8315 141
    endloop
  endfacet
  facet normal 0 0 1
    outer loop
      vertex 150 126 141
      vertex 156.854 132.108 141
      vertex 156.567 132.169 141
    endloop
  endfacet
  facet normal 0 0 1
    outer loop
      vertex 157.433 41.8315 141
      vertex 150 48 141
      vertex 157.146 41.8923 141
    endloop
  endfacet
  facet normal 0 0 1
    outer loop
      vertex 150 126 141
      vertex 156.567 132.169 141
      vertex 156.3 132.288 141
    endloop
  endfacet
  facet normal 0 0 1
    outer loop
      vertex 157.146 41.8923 141
      vertex 150 48 141
      vertex 156.854 41.8923 141
    endloop
  endfacet
  facet normal 0 0 1
    outer loop
      vertex 150 126 141
      vertex 156.3 132.288 141
      vertex 156.063 132.46 141
    endloop
  endfacet
  facet normal 0 0 1
    outer loop
      vertex 156.854 41.8923 141
      vertex 150 48 141
      vertex 156.567 41.8315 141
    endloop
  endfacet
  facet normal 0 0 1
    outer loop
      vertex 150 126 141
      vertex 156.063 132.46 141
      vertex 155.867 132.677 141
    endloop
  endfacet
  facet normal 0 0 1
    outer loop
      vertex 156.567 41.8315 141
      vertex 150 48 141
      vertex 156.3 41.7124 141
    endloop
  endfacet
  facet normal 0 0 1
    outer loop
      vertex 150 126 141
      vertex 155.867 132.677 141
      vertex 155.721 132.931 141
    endloop
  endfacet
  facet normal 0 0 1
    outer loop
      vertex 156.3 41.7124 141
      vertex 150 48 141
      vertex 156.063 41.5404 141
    endloop
  endfacet
  facet normal 0 0 1
    outer loop
      vertex 150 126 141
      vertex 155.721 132.931 141
      vertex 155.631 133.209 141
    endloop
  endfacet
  facet normal 0 0 1
    outer loop
      vertex 156.063 41.5404 141
      vertex 150 48 141
      vertex 155.867 41.3229 141
    endloop
  endfacet
  facet normal 0 0 1
    outer loop
      vertex 150 126 141
      vertex 155.631 133.209 141
      vertex 155.6 133.5 141
    endloop
  endfacet
  facet normal 0 0 1
    outer loop
      vertex 155.867 41.3229 141
      vertex 150 48 141
      vertex 155.721 41.0694 141
    endloop
  endfacet
  facet normal 0 0 1
    outer loop
      vertex 158.369 133.209 141
      vertex 165 141 141
      vertex 158.4 133.5 141
    endloop
  endfacet
  facet normal 0 0 1
    outer loop
      vertex 165 141 141
      vertex 158.369 133.791 141
      vertex 158.4 133.5 141
    endloop
  endfacet
  facet normal 0 0 1
    outer loop
      vertex 165 141 141
      vertex 158.279 134.069 141
      vertex 158.369 133.791 141
    endloop
  endfacet
  facet normal 0 0 1
    outer loop
      vertex 165 141 141
      vertex 158.133 134.323 141
      vertex 158.279 134.069 141
    endloop
  endfacet
  facet normal 0 0 1
    outer loop
      vertex 165 141 141
      vertex 157.937 134.54 141
      vertex 158.133 134.323 141
    endloop
  endfacet
  facet normal 0 0 1
    outer loop
      vertex 165 141 141
      vertex 157.7 134.712 141
      vertex 157.937 134.54 141
    endloop
  endfacet
  facet normal 0 0 1
    outer loop
      vertex 165 141 141
      vertex 157.433 134.831 141
      vertex 157.7 134.712 141
    endloop
  endfacet
  facet normal 0 0 1
    outer loop
      vertex 165 141 141
      vertex 157.146 134.892 141
      vertex 157.433 134.831 141
    endloop
  endfacet
  facet normal 0 0 1
    outer loop
      vertex 165 141 141
      vertex 156.854 134.892 141
      vertex 157.146 134.892 141
    endloop
  endfacet
  facet normal 0 0 1
    outer loop
      vertex 165 141 141
      vertex 156.567 134.831 141
      vertex 156.854 134.892 141
    endloop
  endfacet
  facet normal 0 0 1
    outer loop
      vertex 165 141 141
      vertex 156.3 134.712 141
      vertex 156.567 134.831 141
    endloop
  endfacet
  facet normal 0 0 1
    outer loop
      vertex 155.721 41.0694 141
      vertex 150 48 141
      vertex 155.631 40.7911 141
    endloop
  endfacet
  facet normal 0 0 1
    outer loop
      vertex 155.631 133.791 141
      vertex 150 126 141
      vertex 155.6 133.5 141
    endloop
  endfacet
  facet normal 0 0 1
    outer loop
      vertex 155.721 134.069 141
      vertex 150 126 141
      vertex 155.631 133.791 141
    endloop
  endfacet
  facet normal 0 0 1
    outer loop
      vertex 155.867 134.323 141
      vertex 150 126 141
      vertex 155.721 134.069 141
    endloop
  endfacet
  facet normal 0 0 1
    outer loop
      vertex 155.867 134.323 141
      vertex 32 126 141
      vertex 150 126 141
    endloop
  endfacet
  facet normal 0 0 1
    outer loop
      vertex 24.1326 134.323 141
      vertex 155.867 134.323 141
      vertex 156.063 134.54 141
    endloop
  endfacet
  facet normal 0 0 1
    outer loop
      vertex 17 141 141
      vertex 156.063 134.54 141
      vertex 156.3 134.712 141
    endloop
  endfacet
  facet normal -0 0 1
    outer loop
      vertex 17 141 141
      vertex 156.3 134.712 141
      vertex 165 141 141
    endloop
  endfacet
  facet normal -0 0 1
    outer loop
      vertex 24.3694 133.209 141
      vertex 32 126 141
      vertex 24.4 133.5 141
    endloop
  endfacet
  facet normal 0 0 1
    outer loop
      vertex 155.867 134.323 141
      vertex 24.1326 134.323 141
      vertex 32 126 141
    endloop
  endfacet
  facet normal 0 0 1
    outer loop
      vertex 32 126 141
      vertex 24.3694 133.791 141
      vertex 24.4 133.5 141
    endloop
  endfacet
  facet normal 0 0 1
    outer loop
      vertex 32 126 141
      vertex 24.279 134.069 141
      vertex 24.3694 133.791 141
    endloop
  endfacet
  facet normal 0 0 1
    outer loop
      vertex 32 126 141
      vertex 24.1326 134.323 141
      vertex 24.279 134.069 141
    endloop
  endfacet
  facet normal 0 0 1
    outer loop
      vertex 156.063 134.54 141
      vertex 23.9368 134.54 141
      vertex 24.1326 134.323 141
    endloop
  endfacet
  facet normal 0 0 1
    outer loop
      vertex 156.063 134.54 141
      vertex 17 141 141
      vertex 23.9368 134.54 141
    endloop
  endfacet
  facet normal 0 0 1
    outer loop
      vertex 23.9368 134.54 141
      vertex 17 141 141
      vertex 23.7 134.712 141
    endloop
  endfacet
  facet normal 0 0 1
    outer loop
      vertex 23.7 134.712 141
      vertex 17 141 141
      vertex 23.4326 134.831 141
    endloop
  endfacet
  facet normal 0 0 1
    outer loop
      vertex 23.4326 134.831 141
      vertex 17 141 141
      vertex 23.1463 134.892 141
    endloop
  endfacet
  facet normal 0 0 1
    outer loop
      vertex 21.721 41.0694 141
      vertex 17 33 141
      vertex 21.6306 40.7911 141
    endloop
  endfacet
  facet normal 0 0 1
    outer loop
      vertex 21.6306 133.791 141
      vertex 17 141 141
      vertex 21.6 133.5 141
    endloop
  endfacet
  facet normal 0 0 1
    outer loop
      vertex 21.721 134.069 141
      vertex 17 141 141
      vertex 21.6306 133.791 141
    endloop
  endfacet
  facet normal 0 0 1
    outer loop
      vertex 21.8674 134.323 141
      vertex 17 141 141
      vertex 21.721 134.069 141
    endloop
  endfacet
  facet normal 0 0 1
    outer loop
      vertex 22.0632 134.54 141
      vertex 17 141 141
      vertex 21.8674 134.323 141
    endloop
  endfacet
  facet normal 0 0 1
    outer loop
      vertex 22.3 134.712 141
      vertex 17 141 141
      vertex 22.0632 134.54 141
    endloop
  endfacet
  facet normal 0 0 1
    outer loop
      vertex 22.5674 134.831 141
      vertex 17 141 141
      vertex 22.3 134.712 141
    endloop
  endfacet
  facet normal 0 0 1
    outer loop
      vertex 22.8537 134.892 141
      vertex 17 141 141
      vertex 22.5674 134.831 141
    endloop
  endfacet
  facet normal 0 0 1
    outer loop
      vertex 23.1463 134.892 141
      vertex 17 141 141
      vertex 22.8537 134.892 141
    endloop
  endfacet
  facet normal 0 0 1
    outer loop
      vertex 158.279 132.931 141
      vertex 165 141 141
      vertex 158.369 133.209 141
    endloop
  endfacet
  facet normal -0 0 1
    outer loop
      vertex 158.369 40.2089 141
      vertex 165 33 141
      vertex 158.4 40.5 141
    endloop
  endfacet
  facet normal -0 0 1
    outer loop
      vertex 158.279 39.9306 141
      vertex 165 33 141
      vertex 158.369 40.2089 141
    endloop
  endfacet
  facet normal -0 0 1
    outer loop
      vertex 158.133 39.6771 141
      vertex 165 33 141
      vertex 158.279 39.9306 141
    endloop
  endfacet
  facet normal -0 0 1
    outer loop
      vertex 157.937 39.4596 141
      vertex 165 33 141
      vertex 158.133 39.6771 141
    endloop
  endfacet
  facet normal -0 0 1
    outer loop
      vertex 157.7 39.2876 141
      vertex 165 33 141
      vertex 157.937 39.4596 141
    endloop
  endfacet
  facet normal -0 0 1
    outer loop
      vertex 157.433 39.1685 141
      vertex 165 33 141
      vertex 157.7 39.2876 141
    endloop
  endfacet
  facet normal -0 0 1
    outer loop
      vertex 157.146 39.1077 141
      vertex 165 33 141
      vertex 157.433 39.1685 141
    endloop
  endfacet
  facet normal -0 0 1
    outer loop
      vertex 156.854 39.1077 141
      vertex 165 33 141
      vertex 157.146 39.1077 141
    endloop
  endfacet
  facet normal 0 0 1
    outer loop
      vertex 156.567 39.1685 141
      vertex 165 33 141
      vertex 156.854 39.1077 141
    endloop
  endfacet
  facet normal 0 0 1
    outer loop
      vertex 156.3 39.2876 141
      vertex 165 33 141
      vertex 156.567 39.1685 141
    endloop
  endfacet
  facet normal 0 0 1
    outer loop
      vertex 155.631 40.7911 141
      vertex 150 48 141
      vertex 155.6 40.5 141
    endloop
  endfacet
  facet normal 0 0 1
    outer loop
      vertex 150 48 141
      vertex 155.631 40.2089 141
      vertex 155.6 40.5 141
    endloop
  endfacet
  facet normal 0 0 1
    outer loop
      vertex 150 48 141
      vertex 155.721 39.9306 141
      vertex 155.631 40.2089 141
    endloop
  endfacet
  facet normal 0 0 1
    outer loop
      vertex 150 48 141
      vertex 155.867 39.6771 141
      vertex 155.721 39.9306 141
    endloop
  endfacet
  facet normal -0 0 1
    outer loop
      vertex 32 48 141
      vertex 155.867 39.6771 141
      vertex 150 48 141
    endloop
  endfacet
  facet normal 0 0 1
    outer loop
      vertex 24.1326 39.6771 141
      vertex 155.867 39.6771 141
      vertex 32 48 141
    endloop
  endfacet
  facet normal 0 0 1
    outer loop
      vertex 155.867 39.6771 141
      vertex 24.1326 39.6771 141
      vertex 156.063 39.4596 141
    endloop
  endfacet
  facet normal 0 0 1
    outer loop
      vertex 23.9368 39.4596 141
      vertex 156.063 39.4596 141
      vertex 24.1326 39.6771 141
    endloop
  endfacet
  facet normal -0 0 1
    outer loop
      vertex 24.279 132.931 141
      vertex 32 126 141
      vertex 24.3694 133.209 141
    endloop
  endfacet
  facet normal 0 0 1
    outer loop
      vertex 24.3694 40.2089 141
      vertex 32 48 141
      vertex 24.4 40.5 141
    endloop
  endfacet
  facet normal 0 0 1
    outer loop
      vertex 24.279 39.9306 141
      vertex 32 48 141
      vertex 24.3694 40.2089 141
    endloop
  endfacet
  facet normal 0 0 1
    outer loop
      vertex 24.1326 39.6771 141
      vertex 32 48 141
      vertex 24.279 39.9306 141
    endloop
  endfacet
  facet normal 0 0 1
    outer loop
      vertex 17 33 141
      vertex 156.063 39.4596 141
      vertex 23.9368 39.4596 141
    endloop
  endfacet
  facet normal 0 0 1
    outer loop
      vertex 156.063 39.4596 141
      vertex 17 33 141
      vertex 156.3 39.2876 141
    endloop
  endfacet
  facet normal 0 0 1
    outer loop
      vertex 17 33 141
      vertex 23.9368 39.4596 141
      vertex 23.7 39.2876 141
    endloop
  endfacet
  facet normal 0 0 1
    outer loop
      vertex 17 33 141
      vertex 23.7 39.2876 141
      vertex 23.4326 39.1685 141
    endloop
  endfacet
  facet normal 0 0 1
    outer loop
      vertex 17 33 141
      vertex 23.4326 39.1685 141
      vertex 23.1463 39.1077 141
    endloop
  endfacet
  facet normal 0 0 1
    outer loop
      vertex 17 33 141
      vertex 23.1463 39.1077 141
      vertex 22.8537 39.1077 141
    endloop
  endfacet
  facet normal 0 0 1
    outer loop
      vertex 156.3 39.2876 141
      vertex 17 33 141
      vertex 165 33 141
    endloop
  endfacet
  facet normal 0 0 1
    outer loop
      vertex 22.5674 39.1685 141
      vertex 17 33 141
      vertex 22.8537 39.1077 141
    endloop
  endfacet
  facet normal 0 0 1
    outer loop
      vertex 22.3 39.2876 141
      vertex 17 33 141
      vertex 22.5674 39.1685 141
    endloop
  endfacet
  facet normal 0 0 1
    outer loop
      vertex 22.0632 39.4596 141
      vertex 17 33 141
      vertex 22.3 39.2876 141
    endloop
  endfacet
  facet normal 0 0 1
    outer loop
      vertex 21.8674 39.6771 141
      vertex 17 33 141
      vertex 22.0632 39.4596 141
    endloop
  endfacet
  facet normal 0 0 1
    outer loop
      vertex 21.721 39.9306 141
      vertex 17 33 141
      vertex 21.8674 39.6771 141
    endloop
  endfacet
  facet normal 0 0 1
    outer loop
      vertex 21.6306 40.2089 141
      vertex 17 33 141
      vertex 21.721 39.9306 141
    endloop
  endfacet
  facet normal 0 0 1
    outer loop
      vertex 21.6 40.5 141
      vertex 17 33 141
      vertex 21.6306 40.2089 141
    endloop
  endfacet
  facet normal 0 0 1
    outer loop
      vertex 21.6306 40.7911 141
      vertex 17 33 141
      vertex 21.6 40.5 141
    endloop
  endfacet
  facet normal 0 0 -1
    outer loop
      vertex 24.1326 41.3229 140
      vertex 32 48 140
      vertex 24.279 41.0694 140
    endloop
  endfacet
  facet normal 0 0 -1
    outer loop
      vertex 32 126 140
      vertex 24.3694 133.209 140
      vertex 24.4 133.5 140
    endloop
  endfacet
  facet normal 0 0 -1
    outer loop
      vertex 23.9368 41.5404 140
      vertex 32 48 140
      vertex 24.1326 41.3229 140
    endloop
  endfacet
  facet normal 0 0 -1
    outer loop
      vertex 32 126 140
      vertex 24.279 132.931 140
      vertex 24.3694 133.209 140
    endloop
  endfacet
  facet normal 0 0 -1
    outer loop
      vertex 23.7 41.7124 140
      vertex 32 48 140
      vertex 23.9368 41.5404 140
    endloop
  endfacet
  facet normal 0 0 -1
    outer loop
      vertex 32 126 140
      vertex 24.1326 132.677 140
      vertex 24.279 132.931 140
    endloop
  endfacet
  facet normal 0 0 -1
    outer loop
      vertex 23.4326 41.8315 140
      vertex 32 48 140
      vertex 23.7 41.7124 140
    endloop
  endfacet
  facet normal 0 0 -1
    outer loop
      vertex 32 126 140
      vertex 23.9368 132.46 140
      vertex 24.1326 132.677 140
    endloop
  endfacet
  facet normal 0 0 -1
    outer loop
      vertex 23.1463 41.8923 140
      vertex 32 48 140
      vertex 23.4326 41.8315 140
    endloop
  endfacet
  facet normal 0 0 -1
    outer loop
      vertex 32 126 140
      vertex 23.7 132.288 140
      vertex 23.9368 132.46 140
    endloop
  endfacet
  facet normal 0 0 -1
    outer loop
      vertex 22.8537 41.8923 140
      vertex 32 48 140
      vertex 23.1463 41.8923 140
    endloop
  endfacet
  facet normal 0 0 -1
    outer loop
      vertex 32 126 140
      vertex 23.4326 132.169 140
      vertex 23.7 132.288 140
    endloop
  endfacet
  facet normal 0 0 -1
    outer loop
      vertex 22.5674 41.8315 140
      vertex 32 48 140
      vertex 22.8537 41.8923 140
    endloop
  endfacet
  facet normal 0 0 -1
    outer loop
      vertex 32 126 140
      vertex 23.1463 132.108 140
      vertex 23.4326 132.169 140
    endloop
  endfacet
  facet normal 0 0 -1
    outer loop
      vertex 22.3 41.7124 140
      vertex 32 48 140
      vertex 22.5674 41.8315 140
    endloop
  endfacet
  facet normal 0 0 -1
    outer loop
      vertex 32 126 140
      vertex 22.8537 132.108 140
      vertex 23.1463 132.108 140
    endloop
  endfacet
  facet normal -0 0 -1
    outer loop
      vertex 32 48 140
      vertex 22.3 41.7124 140
      vertex 32 126 140
    endloop
  endfacet
  facet normal 0 0 -1
    outer loop
      vertex 32 126 140
      vertex 22.5674 132.169 140
      vertex 22.8537 132.108 140
    endloop
  endfacet
  facet normal 0 0 -1
    outer loop
      vertex 22.3 132.288 140
      vertex 32 126 140
      vertex 22.3 41.7124 140
    endloop
  endfacet
  facet normal 0 0 -1
    outer loop
      vertex 32 126 140
      vertex 22.3 132.288 140
      vertex 22.5674 132.169 140
    endloop
  endfacet
  facet normal 0 0 -1
    outer loop
      vertex 22.0632 41.5404 140
      vertex 22.3 132.288 140
      vertex 22.3 41.7124 140
    endloop
  endfacet
  facet normal 0 0 -1
    outer loop
      vertex 22.0632 41.5404 140
      vertex 22.0632 132.46 140
      vertex 22.3 132.288 140
    endloop
  endfacet
  facet normal 0 0 -1
    outer loop
      vertex 21.8674 41.3229 140
      vertex 22.0632 132.46 140
      vertex 22.0632 41.5404 140
    endloop
  endfacet
  facet normal 0 0 -1
    outer loop
      vertex 21.8674 41.3229 140
      vertex 21.8674 132.677 140
      vertex 22.0632 132.46 140
    endloop
  endfacet
  facet normal 0 0 -1
    outer loop
      vertex 21.721 41.0694 140
      vertex 21.8674 132.677 140
      vertex 21.8674 41.3229 140
    endloop
  endfacet
  facet normal 0 0 -1
    outer loop
      vertex 21.721 41.0694 140
      vertex 21.721 132.931 140
      vertex 21.8674 132.677 140
    endloop
  endfacet
  facet normal 0 0 -1
    outer loop
      vertex 17 33 140
      vertex 21.721 41.0694 140
      vertex 21.6306 40.7911 140
    endloop
  endfacet
  facet normal -0 0 -1
    outer loop
      vertex 21.721 41.0694 140
      vertex 17 33 140
      vertex 21.721 132.931 140
    endloop
  endfacet
  facet normal 0 0 -1
    outer loop
      vertex 17 33 140
      vertex 21.6306 40.7911 140
      vertex 21.6 40.5 140
    endloop
  endfacet
  facet normal 0 0 -1
    outer loop
      vertex 17 141 140
      vertex 21.721 132.931 140
      vertex 17 33 140
    endloop
  endfacet
  facet normal 0 0 -1
    outer loop
      vertex 158.133 41.3229 140
      vertex 165 33 140
      vertex 158.279 41.0694 140
    endloop
  endfacet
  facet normal 0 0 -1
    outer loop
      vertex 165 141 140
      vertex 158.369 133.209 140
      vertex 158.4 133.5 140
    endloop
  endfacet
  facet normal 0 0 -1
    outer loop
      vertex 165 33 140
      vertex 158.133 41.3229 140
      vertex 165 141 140
    endloop
  endfacet
  facet normal 0 0 -1
    outer loop
      vertex 165 141 140
      vertex 158.279 132.931 140
      vertex 158.369 133.209 140
    endloop
  endfacet
  facet normal 0 0 -1
    outer loop
      vertex 158.133 132.677 140
      vertex 165 141 140
      vertex 158.133 41.3229 140
    endloop
  endfacet
  facet normal 0 0 -1
    outer loop
      vertex 165 141 140
      vertex 158.133 132.677 140
      vertex 158.279 132.931 140
    endloop
  endfacet
  facet normal 0 0 -1
    outer loop
      vertex 157.937 41.5404 140
      vertex 158.133 132.677 140
      vertex 158.133 41.3229 140
    endloop
  endfacet
  facet normal 0 0 -1
    outer loop
      vertex 157.937 41.5404 140
      vertex 157.937 132.46 140
      vertex 158.133 132.677 140
    endloop
  endfacet
  facet normal 0 0 -1
    outer loop
      vertex 157.7 41.7124 140
      vertex 157.937 132.46 140
      vertex 157.937 41.5404 140
    endloop
  endfacet
  facet normal 0 0 -1
    outer loop
      vertex 157.7 41.7124 140
      vertex 157.7 132.288 140
      vertex 157.937 132.46 140
    endloop
  endfacet
  facet normal 0 0 -1
    outer loop
      vertex 150 48 140
      vertex 157.7 41.7124 140
      vertex 157.433 41.8315 140
    endloop
  endfacet
  facet normal 0 0 -1
    outer loop
      vertex 157.7 41.7124 140
      vertex 150 48 140
      vertex 157.7 132.288 140
    endloop
  endfacet
  facet normal 0 0 -1
    outer loop
      vertex 150 48 140
      vertex 157.433 41.8315 140
      vertex 157.146 41.8923 140
    endloop
  endfacet
  facet normal 0 0 -1
    outer loop
      vertex 150 126 140
      vertex 157.7 132.288 140
      vertex 150 48 140
    endloop
  endfacet
  facet normal 0 0 -1
    outer loop
      vertex 150 48 140
      vertex 157.146 41.8923 140
      vertex 156.854 41.8923 140
    endloop
  endfacet
  facet normal 0 0 -1
    outer loop
      vertex 157.7 132.288 140
      vertex 150 126 140
      vertex 157.433 132.169 140
    endloop
  endfacet
  facet normal 0 0 -1
    outer loop
      vertex 150 48 140
      vertex 156.854 41.8923 140
      vertex 156.567 41.8315 140
    endloop
  endfacet
  facet normal 0 0 -1
    outer loop
      vertex 157.433 132.169 140
      vertex 150 126 140
      vertex 157.146 132.108 140
    endloop
  endfacet
  facet normal 0 0 -1
    outer loop
      vertex 150 48 140
      vertex 156.567 41.8315 140
      vertex 156.3 41.7124 140
    endloop
  endfacet
  facet normal -0 0 -1
    outer loop
      vertex 157.146 132.108 140
      vertex 150 126 140
      vertex 156.854 132.108 140
    endloop
  endfacet
  facet normal 0 0 -1
    outer loop
      vertex 150 48 140
      vertex 156.3 41.7124 140
      vertex 156.063 41.5404 140
    endloop
  endfacet
  facet normal -0 0 -1
    outer loop
      vertex 156.854 132.108 140
      vertex 150 126 140
      vertex 156.567 132.169 140
    endloop
  endfacet
  facet normal 0 0 -1
    outer loop
      vertex 150 48 140
      vertex 156.063 41.5404 140
      vertex 155.867 41.3229 140
    endloop
  endfacet
  facet normal -0 0 -1
    outer loop
      vertex 156.567 132.169 140
      vertex 150 126 140
      vertex 156.3 132.288 140
    endloop
  endfacet
  facet normal 0 0 -1
    outer loop
      vertex 150 48 140
      vertex 155.867 41.3229 140
      vertex 155.721 41.0694 140
    endloop
  endfacet
  facet normal -0 0 -1
    outer loop
      vertex 156.3 132.288 140
      vertex 150 126 140
      vertex 156.063 132.46 140
    endloop
  endfacet
  facet normal 0 0 -1
    outer loop
      vertex 150 48 140
      vertex 155.721 41.0694 140
      vertex 155.631 40.7911 140
    endloop
  endfacet
  facet normal -0 0 -1
    outer loop
      vertex 156.063 132.46 140
      vertex 150 126 140
      vertex 155.867 132.677 140
    endloop
  endfacet
  facet normal 0 0 -1
    outer loop
      vertex 150 48 140
      vertex 155.631 40.7911 140
      vertex 155.6 40.5 140
    endloop
  endfacet
  facet normal -0 0 -1
    outer loop
      vertex 155.867 132.677 140
      vertex 150 126 140
      vertex 155.721 132.931 140
    endloop
  endfacet
  facet normal 0 0 -1
    outer loop
      vertex 158.369 40.7911 140
      vertex 165 33 140
      vertex 158.4 40.5 140
    endloop
  endfacet
  facet normal 0 0 -1
    outer loop
      vertex 165 33 140
      vertex 158.369 40.2089 140
      vertex 158.4 40.5 140
    endloop
  endfacet
  facet normal 0 0 -1
    outer loop
      vertex 165 33 140
      vertex 158.279 39.9306 140
      vertex 158.369 40.2089 140
    endloop
  endfacet
  facet normal 0 0 -1
    outer loop
      vertex 165 33 140
      vertex 158.133 39.6771 140
      vertex 158.279 39.9306 140
    endloop
  endfacet
  facet normal 0 0 -1
    outer loop
      vertex 165 33 140
      vertex 157.937 39.4596 140
      vertex 158.133 39.6771 140
    endloop
  endfacet
  facet normal 0 0 -1
    outer loop
      vertex 165 33 140
      vertex 157.7 39.2876 140
      vertex 157.937 39.4596 140
    endloop
  endfacet
  facet normal 0 0 -1
    outer loop
      vertex 165 33 140
      vertex 157.433 39.1685 140
      vertex 157.7 39.2876 140
    endloop
  endfacet
  facet normal 0 0 -1
    outer loop
      vertex 165 33 140
      vertex 157.146 39.1077 140
      vertex 157.433 39.1685 140
    endloop
  endfacet
  facet normal 0 0 -1
    outer loop
      vertex 165 33 140
      vertex 156.854 39.1077 140
      vertex 157.146 39.1077 140
    endloop
  endfacet
  facet normal 0 0 -1
    outer loop
      vertex 165 33 140
      vertex 156.567 39.1685 140
      vertex 156.854 39.1077 140
    endloop
  endfacet
  facet normal 0 0 -1
    outer loop
      vertex 165 33 140
      vertex 156.3 39.2876 140
      vertex 156.567 39.1685 140
    endloop
  endfacet
  facet normal -0 0 -1
    outer loop
      vertex 155.721 132.931 140
      vertex 150 126 140
      vertex 155.631 133.209 140
    endloop
  endfacet
  facet normal 0 0 -1
    outer loop
      vertex 155.631 40.2089 140
      vertex 150 48 140
      vertex 155.6 40.5 140
    endloop
  endfacet
  facet normal 0 0 -1
    outer loop
      vertex 155.721 39.9306 140
      vertex 150 48 140
      vertex 155.631 40.2089 140
    endloop
  endfacet
  facet normal 0 0 -1
    outer loop
      vertex 155.867 39.6771 140
      vertex 150 48 140
      vertex 155.721 39.9306 140
    endloop
  endfacet
  facet normal 0 0 -1
    outer loop
      vertex 155.867 39.6771 140
      vertex 32 48 140
      vertex 150 48 140
    endloop
  endfacet
  facet normal 0 0 -1
    outer loop
      vertex 24.1326 39.6771 140
      vertex 155.867 39.6771 140
      vertex 156.063 39.4596 140
    endloop
  endfacet
  facet normal 0 0 -1
    outer loop
      vertex 17 33 140
      vertex 156.063 39.4596 140
      vertex 156.3 39.2876 140
    endloop
  endfacet
  facet normal 0 0 -1
    outer loop
      vertex 17 33 140
      vertex 156.3 39.2876 140
      vertex 165 33 140
    endloop
  endfacet
  facet normal 0 0 -1
    outer loop
      vertex 24.3694 40.7911 140
      vertex 32 48 140
      vertex 24.4 40.5 140
    endloop
  endfacet
  facet normal 0 0 -1
    outer loop
      vertex 155.867 39.6771 140
      vertex 24.1326 39.6771 140
      vertex 32 48 140
    endloop
  endfacet
  facet normal 0 0 -1
    outer loop
      vertex 32 48 140
      vertex 24.3694 40.2089 140
      vertex 24.4 40.5 140
    endloop
  endfacet
  facet normal 0 0 -1
    outer loop
      vertex 32 48 140
      vertex 24.279 39.9306 140
      vertex 24.3694 40.2089 140
    endloop
  endfacet
  facet normal 0 0 -1
    outer loop
      vertex 32 48 140
      vertex 24.1326 39.6771 140
      vertex 24.279 39.9306 140
    endloop
  endfacet
  facet normal 0 0 -1
    outer loop
      vertex 156.063 39.4596 140
      vertex 23.9368 39.4596 140
      vertex 24.1326 39.6771 140
    endloop
  endfacet
  facet normal -0 0 -1
    outer loop
      vertex 156.063 39.4596 140
      vertex 17 33 140
      vertex 23.9368 39.4596 140
    endloop
  endfacet
  facet normal 0 0 -1
    outer loop
      vertex 23.9368 39.4596 140
      vertex 17 33 140
      vertex 23.7 39.2876 140
    endloop
  endfacet
  facet normal 0 0 -1
    outer loop
      vertex 23.7 39.2876 140
      vertex 17 33 140
      vertex 23.4326 39.1685 140
    endloop
  endfacet
  facet normal 0 0 -1
    outer loop
      vertex 23.4326 39.1685 140
      vertex 17 33 140
      vertex 23.1463 39.1077 140
    endloop
  endfacet
  facet normal 0 0 -1
    outer loop
      vertex 21.721 132.931 140
      vertex 17 141 140
      vertex 21.6306 133.209 140
    endloop
  endfacet
  facet normal -0 0 -1
    outer loop
      vertex 21.6306 40.2089 140
      vertex 17 33 140
      vertex 21.6 40.5 140
    endloop
  endfacet
  facet normal -0 0 -1
    outer loop
      vertex 21.721 39.9306 140
      vertex 17 33 140
      vertex 21.6306 40.2089 140
    endloop
  endfacet
  facet normal -0 0 -1
    outer loop
      vertex 21.8674 39.6771 140
      vertex 17 33 140
      vertex 21.721 39.9306 140
    endloop
  endfacet
  facet normal -0 0 -1
    outer loop
      vertex 22.0632 39.4596 140
      vertex 17 33 140
      vertex 21.8674 39.6771 140
    endloop
  endfacet
  facet normal -0 0 -1
    outer loop
      vertex 22.3 39.2876 140
      vertex 17 33 140
      vertex 22.0632 39.4596 140
    endloop
  endfacet
  facet normal -0 0 -1
    outer loop
      vertex 22.5674 39.1685 140
      vertex 17 33 140
      vertex 22.3 39.2876 140
    endloop
  endfacet
  facet normal -0 0 -1
    outer loop
      vertex 22.8537 39.1077 140
      vertex 17 33 140
      vertex 22.5674 39.1685 140
    endloop
  endfacet
  facet normal -0 0 -1
    outer loop
      vertex 23.1463 39.1077 140
      vertex 17 33 140
      vertex 22.8537 39.1077 140
    endloop
  endfacet
  facet normal 0 0 -1
    outer loop
      vertex 158.279 41.0694 140
      vertex 165 33 140
      vertex 158.369 40.7911 140
    endloop
  endfacet
  facet normal 0 0 -1
    outer loop
      vertex 158.369 133.791 140
      vertex 165 141 140
      vertex 158.4 133.5 140
    endloop
  endfacet
  facet normal 0 0 -1
    outer loop
      vertex 158.279 134.069 140
      vertex 165 141 140
      vertex 158.369 133.791 140
    endloop
  endfacet
  facet normal 0 0 -1
    outer loop
      vertex 158.133 134.323 140
      vertex 165 141 140
      vertex 158.279 134.069 140
    endloop
  endfacet
  facet normal 0 0 -1
    outer loop
      vertex 157.937 134.54 140
      vertex 165 141 140
      vertex 158.133 134.323 140
    endloop
  endfacet
  facet normal 0 0 -1
    outer loop
      vertex 157.7 134.712 140
      vertex 165 141 140
      vertex 157.937 134.54 140
    endloop
  endfacet
  facet normal 0 0 -1
    outer loop
      vertex 157.433 134.831 140
      vertex 165 141 140
      vertex 157.7 134.712 140
    endloop
  endfacet
  facet normal 0 0 -1
    outer loop
      vertex 157.146 134.892 140
      vertex 165 141 140
      vertex 157.433 134.831 140
    endloop
  endfacet
  facet normal 0 0 -1
    outer loop
      vertex 156.854 134.892 140
      vertex 165 141 140
      vertex 157.146 134.892 140
    endloop
  endfacet
  facet normal 0 0 -1
    outer loop
      vertex 156.567 134.831 140
      vertex 165 141 140
      vertex 156.854 134.892 140
    endloop
  endfacet
  facet normal 0 0 -1
    outer loop
      vertex 156.3 134.712 140
      vertex 165 141 140
      vertex 156.567 134.831 140
    endloop
  endfacet
  facet normal -0 0 -1
    outer loop
      vertex 155.631 133.209 140
      vertex 150 126 140
      vertex 155.6 133.5 140
    endloop
  endfacet
  facet normal 0 0 -1
    outer loop
      vertex 150 126 140
      vertex 155.631 133.791 140
      vertex 155.6 133.5 140
    endloop
  endfacet
  facet normal 0 0 -1
    outer loop
      vertex 150 126 140
      vertex 155.721 134.069 140
      vertex 155.631 133.791 140
    endloop
  endfacet
  facet normal 0 0 -1
    outer loop
      vertex 150 126 140
      vertex 155.867 134.323 140
      vertex 155.721 134.069 140
    endloop
  endfacet
  facet normal 0 0 -1
    outer loop
      vertex 32 126 140
      vertex 155.867 134.323 140
      vertex 150 126 140
    endloop
  endfacet
  facet normal 0 0 -1
    outer loop
      vertex 24.1326 134.323 140
      vertex 155.867 134.323 140
      vertex 32 126 140
    endloop
  endfacet
  facet normal 0 0 -1
    outer loop
      vertex 155.867 134.323 140
      vertex 24.1326 134.323 140
      vertex 156.063 134.54 140
    endloop
  endfacet
  facet normal 0 0 -1
    outer loop
      vertex 23.9368 134.54 140
      vertex 156.063 134.54 140
      vertex 24.1326 134.323 140
    endloop
  endfacet
  facet normal 0 0 -1
    outer loop
      vertex 24.279 41.0694 140
      vertex 32 48 140
      vertex 24.3694 40.7911 140
    endloop
  endfacet
  facet normal 0 0 -1
    outer loop
      vertex 24.3694 133.791 140
      vertex 32 126 140
      vertex 24.4 133.5 140
    endloop
  endfacet
  facet normal 0 0 -1
    outer loop
      vertex 24.279 134.069 140
      vertex 32 126 140
      vertex 24.3694 133.791 140
    endloop
  endfacet
  facet normal 0 0 -1
    outer loop
      vertex 24.1326 134.323 140
      vertex 32 126 140
      vertex 24.279 134.069 140
    endloop
  endfacet
  facet normal 0 0 -1
    outer loop
      vertex 17 141 140
      vertex 156.063 134.54 140
      vertex 23.9368 134.54 140
    endloop
  endfacet
  facet normal 0 0 -1
    outer loop
      vertex 156.063 134.54 140
      vertex 17 141 140
      vertex 156.3 134.712 140
    endloop
  endfacet
  facet normal 0 0 -1
    outer loop
      vertex 17 141 140
      vertex 23.9368 134.54 140
      vertex 23.7 134.712 140
    endloop
  endfacet
  facet normal 0 0 -1
    outer loop
      vertex 17 141 140
      vertex 23.7 134.712 140
      vertex 23.4326 134.831 140
    endloop
  endfacet
  facet normal 0 0 -1
    outer loop
      vertex 17 141 140
      vertex 23.4326 134.831 140
      vertex 23.1463 134.892 140
    endloop
  endfacet
  facet normal 0 0 -1
    outer loop
      vertex 17 141 140
      vertex 23.1463 134.892 140
      vertex 22.8537 134.892 140
    endloop
  endfacet
  facet normal 0 0 -1
    outer loop
      vertex 156.3 134.712 140
      vertex 17 141 140
      vertex 165 141 140
    endloop
  endfacet
  facet normal 0 0 -1
    outer loop
      vertex 22.5674 134.831 140
      vertex 17 141 140
      vertex 22.8537 134.892 140
    endloop
  endfacet
  facet normal 0 0 -1
    outer loop
      vertex 22.3 134.712 140
      vertex 17 141 140
      vertex 22.5674 134.831 140
    endloop
  endfacet
  facet normal 0 0 -1
    outer loop
      vertex 22.0632 134.54 140
      vertex 17 141 140
      vertex 22.3 134.712 140
    endloop
  endfacet
  facet normal 0 0 -1
    outer loop
      vertex 21.8674 134.323 140
      vertex 17 141 140
      vertex 22.0632 134.54 140
    endloop
  endfacet
  facet normal 0 0 -1
    outer loop
      vertex 21.721 134.069 140
      vertex 17 141 140
      vertex 21.8674 134.323 140
    endloop
  endfacet
  facet normal 0 0 -1
    outer loop
      vertex 21.6306 133.791 140
      vertex 17 141 140
      vertex 21.721 134.069 140
    endloop
  endfacet
  facet normal 0 0 -1
    outer loop
      vertex 21.6 133.5 140
      vertex 17 141 140
      vertex 21.6306 133.791 140
    endloop
  endfacet
  facet normal 0 0 -1
    outer loop
      vertex 21.6306 133.209 140
      vertex 17 141 140
      vertex 21.6 133.5 140
    endloop
  endfacet
  facet normal -1 0 0
    outer loop
      vertex 17 33 140
      vertex 17 141 141
      vertex 17 141 140
    endloop
  endfacet
  facet normal -1 -0 0
    outer loop
      vertex 17 141 141
      vertex 17 33 140
      vertex 17 33 141
    endloop
  endfacet
  facet normal 0 1 -0
    outer loop
      vertex 165 141 140
      vertex 17 141 141
      vertex 165 141 141
    endloop
  endfacet
  facet normal 0 1 0
    outer loop
      vertex 17 141 141
      vertex 165 141 140
      vertex 17 141 140
    endloop
  endfacet
  facet normal 0 -1 0
    outer loop
      vertex 17 33 140
      vertex 165 33 141
      vertex 17 33 141
    endloop
  endfacet
  facet normal 0 -1 -0
    outer loop
      vertex 165 33 141
      vertex 17 33 140
      vertex 165 33 140
    endloop
  endfacet
  facet normal -1 0 0
    outer loop
      vertex 150 48 140
      vertex 150 126 141
      vertex 150 126 140
    endloop
  endfacet
  facet normal -1 -0 0
    outer loop
      vertex 150 126 141
      vertex 150 48 140
      vertex 150 48 141
    endloop
  endfacet
  facet normal 1 -0 0
    outer loop
      vertex 32 48 141
      vertex 32 126 140
      vertex 32 126 141
    endloop
  endfacet
  facet normal 1 0 0
    outer loop
      vertex 32 126 140
      vertex 32 48 141
      vertex 32 48 140
    endloop
  endfacet
  facet normal 0 -1 0
    outer loop
      vertex 32 126 140
      vertex 150 126 141
      vertex 32 126 141
    endloop
  endfacet
  facet normal 0 -1 -0
    outer loop
      vertex 150 126 141
      vertex 32 126 140
      vertex 150 126 140
    endloop
  endfacet
  facet normal 0 1 -0
    outer loop
      vertex 150 48 140
      vertex 32 48 141
      vertex 150 48 141
    endloop
  endfacet
  facet normal 0 1 0
    outer loop
      vertex 32 48 141
      vertex 150 48 140
      vertex 32 48 140
    endloop
  endfacet
endsolid OpenSCAD_Model
