solid OpenSCAD_Model
  facet normal 1 -0 0
    outer loop
      vertex 20 0 2
      vertex 20 80 0
      vertex 20 80 2
    endloop
  endfacet
  facet normal 1 0 0
    outer loop
      vertex 20 80 0
      vertex 20 0 2
      vertex 20 0 0
    endloop
  endfacet
  facet normal 0 0 1
    outer loop
      vertex 11.2135 70.1183 2
      vertex 20 80 2
      vertex 11.3703 70.3899 2
    endloop
  endfacet
  facet normal 0 0 1
    outer loop
      vertex 20 0 2
      vertex 11.4672 8.31187 2
      vertex 11.5 8 2
    endloop
  endfacet
  facet normal 0 0 1
    outer loop
      vertex 20 80 2
      vertex 11.2135 70.1183 2
      vertex 20 0 2
    endloop
  endfacet
  facet normal 0 0 1
    outer loop
      vertex 20 0 2
      vertex 11.3703 8.6101 2
      vertex 11.4672 8.31187 2
    endloop
  endfacet
  facet normal -0 0 1
    outer loop
      vertex 11.2135 8.88168 2
      vertex 20 0 2
      vertex 11.2135 70.1183 2
    endloop
  endfacet
  facet normal 0 0 1
    outer loop
      vertex 20 0 2
      vertex 11.2135 8.88168 2
      vertex 11.3703 8.6101 2
    endloop
  endfacet
  facet normal -0 0 1
    outer loop
      vertex 11.0037 69.8853 2
      vertex 11.2135 8.88168 2
      vertex 11.2135 70.1183 2
    endloop
  endfacet
  facet normal 0 0 1
    outer loop
      vertex 11.0037 69.8853 2
      vertex 11.0037 9.11472 2
      vertex 11.2135 8.88168 2
    endloop
  endfacet
  facet normal -0 0 1
    outer loop
      vertex 10.75 69.701 2
      vertex 11.0037 9.11472 2
      vertex 11.0037 69.8853 2
    endloop
  endfacet
  facet normal 0 0 1
    outer loop
      vertex 10.75 69.701 2
      vertex 10.75 9.29904 2
      vertex 11.0037 9.11472 2
    endloop
  endfacet
  facet normal -0 0 1
    outer loop
      vertex 10.4635 69.5734 2
      vertex 10.75 9.29904 2
      vertex 10.75 69.701 2
    endloop
  endfacet
  facet normal 0 0 1
    outer loop
      vertex 10.4635 69.5734 2
      vertex 10.4635 9.42658 2
      vertex 10.75 9.29904 2
    endloop
  endfacet
  facet normal -0 0 1
    outer loop
      vertex 10.1568 69.5082 2
      vertex 10.4635 9.42658 2
      vertex 10.4635 69.5734 2
    endloop
  endfacet
  facet normal 0 0 1
    outer loop
      vertex 10.1568 69.5082 2
      vertex 10.1568 9.49178 2
      vertex 10.4635 9.42658 2
    endloop
  endfacet
  facet normal -0 0 1
    outer loop
      vertex 9.84321 69.5082 2
      vertex 10.1568 9.49178 2
      vertex 10.1568 69.5082 2
    endloop
  endfacet
  facet normal 0 0 1
    outer loop
      vertex 9.84321 69.5082 2
      vertex 9.84321 9.49178 2
      vertex 10.1568 9.49178 2
    endloop
  endfacet
  facet normal 0 0 1
    outer loop
      vertex 9.53647 69.5734 2
      vertex 9.84321 9.49178 2
      vertex 9.84321 69.5082 2
    endloop
  endfacet
  facet normal 0 0 1
    outer loop
      vertex 9.53647 69.5734 2
      vertex 9.53647 9.42658 2
      vertex 9.84321 9.49178 2
    endloop
  endfacet
  facet normal 0 0 1
    outer loop
      vertex 9.25 69.701 2
      vertex 9.53647 9.42658 2
      vertex 9.53647 69.5734 2
    endloop
  endfacet
  facet normal 0 0 1
    outer loop
      vertex 9.25 69.701 2
      vertex 9.25 9.29904 2
      vertex 9.53647 9.42658 2
    endloop
  endfacet
  facet normal 0 0 1
    outer loop
      vertex 8.9963 69.8853 2
      vertex 9.25 9.29904 2
      vertex 9.25 69.701 2
    endloop
  endfacet
  facet normal 0 0 1
    outer loop
      vertex 8.9963 69.8853 2
      vertex 8.9963 9.11472 2
      vertex 9.25 9.29904 2
    endloop
  endfacet
  facet normal 0 0 1
    outer loop
      vertex 8.78647 70.1183 2
      vertex 8.9963 9.11472 2
      vertex 8.9963 69.8853 2
    endloop
  endfacet
  facet normal 0 0 1
    outer loop
      vertex 8.78647 70.1183 2
      vertex 8.78647 8.88168 2
      vertex 8.9963 9.11472 2
    endloop
  endfacet
  facet normal 0 0 1
    outer loop
      vertex 0 80 2
      vertex 8.78647 70.1183 2
      vertex 8.62968 70.3899 2
    endloop
  endfacet
  facet normal 0 0 1
    outer loop
      vertex 8.78647 70.1183 2
      vertex 0 0 2
      vertex 8.78647 8.88168 2
    endloop
  endfacet
  facet normal 0 0 1
    outer loop
      vertex 0 80 2
      vertex 8.62968 70.3899 2
      vertex 8.53278 70.6881 2
    endloop
  endfacet
  facet normal 0 0 1
    outer loop
      vertex 8.78647 8.88168 2
      vertex 0 0 2
      vertex 8.62968 8.6101 2
    endloop
  endfacet
  facet normal 0 0 1
    outer loop
      vertex 0 80 2
      vertex 8.53278 70.6881 2
      vertex 8.5 71 2
    endloop
  endfacet
  facet normal 0 0 1
    outer loop
      vertex 8.62968 8.6101 2
      vertex 0 0 2
      vertex 8.53278 8.31187 2
    endloop
  endfacet
  facet normal 0 0 1
    outer loop
      vertex 11.4672 70.6881 2
      vertex 20 80 2
      vertex 11.5 71 2
    endloop
  endfacet
  facet normal 0 0 1
    outer loop
      vertex 20 80 2
      vertex 11.4672 71.3119 2
      vertex 11.5 71 2
    endloop
  endfacet
  facet normal 0 0 1
    outer loop
      vertex 20 80 2
      vertex 11.3703 71.6101 2
      vertex 11.4672 71.3119 2
    endloop
  endfacet
  facet normal 0 0 1
    outer loop
      vertex 20 80 2
      vertex 11.2135 71.8817 2
      vertex 11.3703 71.6101 2
    endloop
  endfacet
  facet normal 0 0 1
    outer loop
      vertex 20 80 2
      vertex 11.0037 72.1147 2
      vertex 11.2135 71.8817 2
    endloop
  endfacet
  facet normal 0 0 1
    outer loop
      vertex 20 80 2
      vertex 10.75 72.299 2
      vertex 11.0037 72.1147 2
    endloop
  endfacet
  facet normal 0 0 1
    outer loop
      vertex 20 80 2
      vertex 10.4635 72.4266 2
      vertex 10.75 72.299 2
    endloop
  endfacet
  facet normal 0 0 1
    outer loop
      vertex 20 80 2
      vertex 10.1568 72.4918 2
      vertex 10.4635 72.4266 2
    endloop
  endfacet
  facet normal 0 0 1
    outer loop
      vertex 20 80 2
      vertex 9.84321 72.4918 2
      vertex 10.1568 72.4918 2
    endloop
  endfacet
  facet normal -0 0 1
    outer loop
      vertex 0 80 2
      vertex 9.84321 72.4918 2
      vertex 20 80 2
    endloop
  endfacet
  facet normal 0 0 1
    outer loop
      vertex 9.84321 72.4918 2
      vertex 0 80 2
      vertex 9.53647 72.4266 2
    endloop
  endfacet
  facet normal 0 0 1
    outer loop
      vertex 8.78647 70.1183 2
      vertex 0 80 2
      vertex 0 0 2
    endloop
  endfacet
  facet normal 0 0 1
    outer loop
      vertex 8.53278 71.3119 2
      vertex 0 80 2
      vertex 8.5 71 2
    endloop
  endfacet
  facet normal 0 0 1
    outer loop
      vertex 8.62968 71.6101 2
      vertex 0 80 2
      vertex 8.53278 71.3119 2
    endloop
  endfacet
  facet normal 0 0 1
    outer loop
      vertex 8.78647 71.8817 2
      vertex 0 80 2
      vertex 8.62968 71.6101 2
    endloop
  endfacet
  facet normal 0 0 1
    outer loop
      vertex 8.9963 72.1147 2
      vertex 0 80 2
      vertex 8.78647 71.8817 2
    endloop
  endfacet
  facet normal 0 0 1
    outer loop
      vertex 9.25 72.299 2
      vertex 0 80 2
      vertex 8.9963 72.1147 2
    endloop
  endfacet
  facet normal 0 0 1
    outer loop
      vertex 9.53647 72.4266 2
      vertex 0 80 2
      vertex 9.25 72.299 2
    endloop
  endfacet
  facet normal 0 0 1
    outer loop
      vertex 11.3703 70.3899 2
      vertex 20 80 2
      vertex 11.4672 70.6881 2
    endloop
  endfacet
  facet normal -0 0 1
    outer loop
      vertex 11.4672 7.68813 2
      vertex 20 0 2
      vertex 11.5 8 2
    endloop
  endfacet
  facet normal -0 0 1
    outer loop
      vertex 11.3703 7.38989 2
      vertex 20 0 2
      vertex 11.4672 7.68813 2
    endloop
  endfacet
  facet normal -0 0 1
    outer loop
      vertex 11.2135 7.11832 2
      vertex 20 0 2
      vertex 11.3703 7.38989 2
    endloop
  endfacet
  facet normal -0 0 1
    outer loop
      vertex 11.0037 6.88528 2
      vertex 20 0 2
      vertex 11.2135 7.11832 2
    endloop
  endfacet
  facet normal -0 0 1
    outer loop
      vertex 10.75 6.70096 2
      vertex 20 0 2
      vertex 11.0037 6.88528 2
    endloop
  endfacet
  facet normal -0 0 1
    outer loop
      vertex 10.4635 6.57341 2
      vertex 20 0 2
      vertex 10.75 6.70096 2
    endloop
  endfacet
  facet normal -0 0 1
    outer loop
      vertex 10.1568 6.50822 2
      vertex 20 0 2
      vertex 10.4635 6.57341 2
    endloop
  endfacet
  facet normal -0 0 1
    outer loop
      vertex 9.84321 6.50822 2
      vertex 20 0 2
      vertex 10.1568 6.50822 2
    endloop
  endfacet
  facet normal 0 0 1
    outer loop
      vertex 0 0 2
      vertex 9.84321 6.50822 2
      vertex 9.53647 6.57341 2
    endloop
  endfacet
  facet normal 0 0 1
    outer loop
      vertex 0 0 2
      vertex 9.53647 6.57341 2
      vertex 9.25 6.70096 2
    endloop
  endfacet
  facet normal 0 0 1
    outer loop
      vertex 8.53278 8.31187 2
      vertex 0 0 2
      vertex 8.5 8 2
    endloop
  endfacet
  facet normal 0 0 1
    outer loop
      vertex 9.84321 6.50822 2
      vertex 0 0 2
      vertex 20 0 2
    endloop
  endfacet
  facet normal 0 0 1
    outer loop
      vertex 8.9963 6.88528 2
      vertex 0 0 2
      vertex 9.25 6.70096 2
    endloop
  endfacet
  facet normal 0 0 1
    outer loop
      vertex 8.78647 7.11832 2
      vertex 0 0 2
      vertex 8.9963 6.88528 2
    endloop
  endfacet
  facet normal 0 0 1
    outer loop
      vertex 8.62968 7.38989 2
      vertex 0 0 2
      vertex 8.78647 7.11832 2
    endloop
  endfacet
  facet normal 0 0 1
    outer loop
      vertex 8.53278 7.68813 2
      vertex 0 0 2
      vertex 8.62968 7.38989 2
    endloop
  endfacet
  facet normal 0 0 1
    outer loop
      vertex 8.5 8 2
      vertex 0 0 2
      vertex 8.53278 7.68813 2
    endloop
  endfacet
  facet normal 0 0 -1
    outer loop
      vertex 11.3703 8.6101 0
      vertex 20 0 0
      vertex 11.4672 8.31187 0
    endloop
  endfacet
  facet normal 0 0 -1
    outer loop
      vertex 20 0 0
      vertex 11.4672 70.6881 0
      vertex 11.5 71 0
    endloop
  endfacet
  facet normal 0 0 -1
    outer loop
      vertex 11.2135 8.88168 0
      vertex 20 0 0
      vertex 11.3703 8.6101 0
    endloop
  endfacet
  facet normal 0 0 -1
    outer loop
      vertex 20 0 0
      vertex 11.3703 70.3899 0
      vertex 11.4672 70.6881 0
    endloop
  endfacet
  facet normal 0 0 -1
    outer loop
      vertex 11.2135 70.1183 0
      vertex 20 0 0
      vertex 11.2135 8.88168 0
    endloop
  endfacet
  facet normal 0 0 -1
    outer loop
      vertex 20 0 0
      vertex 11.2135 70.1183 0
      vertex 11.3703 70.3899 0
    endloop
  endfacet
  facet normal 0 0 -1
    outer loop
      vertex 11.0037 9.11472 0
      vertex 11.2135 70.1183 0
      vertex 11.2135 8.88168 0
    endloop
  endfacet
  facet normal 0 0 -1
    outer loop
      vertex 11.0037 9.11472 0
      vertex 11.0037 69.8853 0
      vertex 11.2135 70.1183 0
    endloop
  endfacet
  facet normal 0 0 -1
    outer loop
      vertex 10.75 9.29904 0
      vertex 11.0037 69.8853 0
      vertex 11.0037 9.11472 0
    endloop
  endfacet
  facet normal 0 0 -1
    outer loop
      vertex 10.75 9.29904 0
      vertex 10.75 69.701 0
      vertex 11.0037 69.8853 0
    endloop
  endfacet
  facet normal 0 0 -1
    outer loop
      vertex 10.4635 9.42658 0
      vertex 10.75 69.701 0
      vertex 10.75 9.29904 0
    endloop
  endfacet
  facet normal 0 0 -1
    outer loop
      vertex 10.4635 9.42658 0
      vertex 10.4635 69.5734 0
      vertex 10.75 69.701 0
    endloop
  endfacet
  facet normal 0 0 -1
    outer loop
      vertex 10.1568 9.49178 0
      vertex 10.4635 69.5734 0
      vertex 10.4635 9.42658 0
    endloop
  endfacet
  facet normal 0 0 -1
    outer loop
      vertex 10.1568 9.49178 0
      vertex 10.1568 69.5082 0
      vertex 10.4635 69.5734 0
    endloop
  endfacet
  facet normal 0 0 -1
    outer loop
      vertex 9.84321 9.49178 0
      vertex 10.1568 69.5082 0
      vertex 10.1568 9.49178 0
    endloop
  endfacet
  facet normal 0 0 -1
    outer loop
      vertex 9.84321 9.49178 0
      vertex 9.84321 69.5082 0
      vertex 10.1568 69.5082 0
    endloop
  endfacet
  facet normal 0 0 -1
    outer loop
      vertex 9.53647 9.42658 0
      vertex 9.84321 69.5082 0
      vertex 9.84321 9.49178 0
    endloop
  endfacet
  facet normal 0 0 -1
    outer loop
      vertex 9.53647 9.42658 0
      vertex 9.53647 69.5734 0
      vertex 9.84321 69.5082 0
    endloop
  endfacet
  facet normal 0 0 -1
    outer loop
      vertex 9.25 9.29904 0
      vertex 9.53647 69.5734 0
      vertex 9.53647 9.42658 0
    endloop
  endfacet
  facet normal 0 0 -1
    outer loop
      vertex 9.25 9.29904 0
      vertex 9.25 69.701 0
      vertex 9.53647 69.5734 0
    endloop
  endfacet
  facet normal 0 0 -1
    outer loop
      vertex 8.9963 9.11472 0
      vertex 9.25 69.701 0
      vertex 9.25 9.29904 0
    endloop
  endfacet
  facet normal 0 0 -1
    outer loop
      vertex 8.9963 9.11472 0
      vertex 8.9963 69.8853 0
      vertex 9.25 69.701 0
    endloop
  endfacet
  facet normal 0 0 -1
    outer loop
      vertex 8.78647 8.88168 0
      vertex 8.9963 69.8853 0
      vertex 8.9963 9.11472 0
    endloop
  endfacet
  facet normal 0 0 -1
    outer loop
      vertex 8.78647 8.88168 0
      vertex 8.78647 70.1183 0
      vertex 8.9963 69.8853 0
    endloop
  endfacet
  facet normal 0 0 -1
    outer loop
      vertex 0 0 0
      vertex 8.78647 8.88168 0
      vertex 8.62968 8.6101 0
    endloop
  endfacet
  facet normal -0 0 -1
    outer loop
      vertex 8.78647 8.88168 0
      vertex 0 0 0
      vertex 8.78647 70.1183 0
    endloop
  endfacet
  facet normal 0 0 -1
    outer loop
      vertex 0 0 0
      vertex 8.62968 8.6101 0
      vertex 8.53278 8.31187 0
    endloop
  endfacet
  facet normal 0 0 -1
    outer loop
      vertex 0 80 0
      vertex 8.78647 70.1183 0
      vertex 0 0 0
    endloop
  endfacet
  facet normal 0 0 -1
    outer loop
      vertex 0 0 0
      vertex 8.53278 8.31187 0
      vertex 8.5 8 0
    endloop
  endfacet
  facet normal 0 0 -1
    outer loop
      vertex 8.78647 70.1183 0
      vertex 0 80 0
      vertex 8.62968 70.3899 0
    endloop
  endfacet
  facet normal 0 0 -1
    outer loop
      vertex 11.4672 8.31187 0
      vertex 20 0 0
      vertex 11.5 8 0
    endloop
  endfacet
  facet normal 0 0 -1
    outer loop
      vertex 20 0 0
      vertex 11.4672 7.68813 0
      vertex 11.5 8 0
    endloop
  endfacet
  facet normal 0 0 -1
    outer loop
      vertex 20 0 0
      vertex 11.3703 7.38989 0
      vertex 11.4672 7.68813 0
    endloop
  endfacet
  facet normal 0 0 -1
    outer loop
      vertex 20 0 0
      vertex 11.2135 7.11832 0
      vertex 11.3703 7.38989 0
    endloop
  endfacet
  facet normal 0 0 -1
    outer loop
      vertex 20 0 0
      vertex 11.0037 6.88528 0
      vertex 11.2135 7.11832 0
    endloop
  endfacet
  facet normal 0 0 -1
    outer loop
      vertex 20 0 0
      vertex 10.75 6.70096 0
      vertex 11.0037 6.88528 0
    endloop
  endfacet
  facet normal 0 0 -1
    outer loop
      vertex 20 0 0
      vertex 10.4635 6.57341 0
      vertex 10.75 6.70096 0
    endloop
  endfacet
  facet normal 0 0 -1
    outer loop
      vertex 20 0 0
      vertex 10.1568 6.50822 0
      vertex 10.4635 6.57341 0
    endloop
  endfacet
  facet normal 0 0 -1
    outer loop
      vertex 20 0 0
      vertex 9.84321 6.50822 0
      vertex 10.1568 6.50822 0
    endloop
  endfacet
  facet normal 0 0 -1
    outer loop
      vertex 0 0 0
      vertex 9.84321 6.50822 0
      vertex 20 0 0
    endloop
  endfacet
  facet normal -0 0 -1
    outer loop
      vertex 9.84321 6.50822 0
      vertex 0 0 0
      vertex 9.53647 6.57341 0
    endloop
  endfacet
  facet normal 0 0 -1
    outer loop
      vertex 8.62968 70.3899 0
      vertex 0 80 0
      vertex 8.53278 70.6881 0
    endloop
  endfacet
  facet normal -0 0 -1
    outer loop
      vertex 8.53278 7.68813 0
      vertex 0 0 0
      vertex 8.5 8 0
    endloop
  endfacet
  facet normal -0 0 -1
    outer loop
      vertex 8.62968 7.38989 0
      vertex 0 0 0
      vertex 8.53278 7.68813 0
    endloop
  endfacet
  facet normal -0 0 -1
    outer loop
      vertex 8.78647 7.11832 0
      vertex 0 0 0
      vertex 8.62968 7.38989 0
    endloop
  endfacet
  facet normal -0 0 -1
    outer loop
      vertex 8.9963 6.88528 0
      vertex 0 0 0
      vertex 8.78647 7.11832 0
    endloop
  endfacet
  facet normal -0 0 -1
    outer loop
      vertex 9.25 6.70096 0
      vertex 0 0 0
      vertex 8.9963 6.88528 0
    endloop
  endfacet
  facet normal -0 0 -1
    outer loop
      vertex 9.53647 6.57341 0
      vertex 0 0 0
      vertex 9.25 6.70096 0
    endloop
  endfacet
  facet normal 0 0 -1
    outer loop
      vertex 20 0 0
      vertex 11.5 71 0
      vertex 20 80 0
    endloop
  endfacet
  facet normal 0 0 -1
    outer loop
      vertex 11.4672 71.3119 0
      vertex 20 80 0
      vertex 11.5 71 0
    endloop
  endfacet
  facet normal 0 0 -1
    outer loop
      vertex 11.3703 71.6101 0
      vertex 20 80 0
      vertex 11.4672 71.3119 0
    endloop
  endfacet
  facet normal 0 0 -1
    outer loop
      vertex 11.2135 71.8817 0
      vertex 20 80 0
      vertex 11.3703 71.6101 0
    endloop
  endfacet
  facet normal 0 0 -1
    outer loop
      vertex 11.0037 72.1147 0
      vertex 20 80 0
      vertex 11.2135 71.8817 0
    endloop
  endfacet
  facet normal 0 0 -1
    outer loop
      vertex 10.75 72.299 0
      vertex 20 80 0
      vertex 11.0037 72.1147 0
    endloop
  endfacet
  facet normal 0 0 -1
    outer loop
      vertex 10.4635 72.4266 0
      vertex 20 80 0
      vertex 10.75 72.299 0
    endloop
  endfacet
  facet normal 0 0 -1
    outer loop
      vertex 10.1568 72.4918 0
      vertex 20 80 0
      vertex 10.4635 72.4266 0
    endloop
  endfacet
  facet normal 0 0 -1
    outer loop
      vertex 9.84321 72.4918 0
      vertex 20 80 0
      vertex 10.1568 72.4918 0
    endloop
  endfacet
  facet normal 0 0 -1
    outer loop
      vertex 0 80 0
      vertex 9.84321 72.4918 0
      vertex 9.53647 72.4266 0
    endloop
  endfacet
  facet normal 0 0 -1
    outer loop
      vertex 0 80 0
      vertex 9.53647 72.4266 0
      vertex 9.25 72.299 0
    endloop
  endfacet
  facet normal 0 0 -1
    outer loop
      vertex 8.53278 70.6881 0
      vertex 0 80 0
      vertex 8.5 71 0
    endloop
  endfacet
  facet normal 0 0 -1
    outer loop
      vertex 9.84321 72.4918 0
      vertex 0 80 0
      vertex 20 80 0
    endloop
  endfacet
  facet normal 0 0 -1
    outer loop
      vertex 8.9963 72.1147 0
      vertex 0 80 0
      vertex 9.25 72.299 0
    endloop
  endfacet
  facet normal 0 0 -1
    outer loop
      vertex 8.78647 71.8817 0
      vertex 0 80 0
      vertex 8.9963 72.1147 0
    endloop
  endfacet
  facet normal 0 0 -1
    outer loop
      vertex 8.62968 71.6101 0
      vertex 0 80 0
      vertex 8.78647 71.8817 0
    endloop
  endfacet
  facet normal 0 0 -1
    outer loop
      vertex 8.53278 71.3119 0
      vertex 0 80 0
      vertex 8.62968 71.6101 0
    endloop
  endfacet
  facet normal 0 0 -1
    outer loop
      vertex 8.5 71 0
      vertex 0 80 0
      vertex 8.53278 71.3119 0
    endloop
  endfacet
  facet normal -1 0 0
    outer loop
      vertex 0 0 0
      vertex 0 80 2
      vertex 0 80 0
    endloop
  endfacet
  facet normal -1 -0 0
    outer loop
      vertex 0 80 2
      vertex 0 0 0
      vertex 0 0 2
    endloop
  endfacet
  facet normal 0 1 -0
    outer loop
      vertex 20 80 0
      vertex 0 80 2
      vertex 20 80 2
    endloop
  endfacet
  facet normal 0 1 0
    outer loop
      vertex 0 80 2
      vertex 20 80 0
      vertex 0 80 0
    endloop
  endfacet
  facet normal 0 -1 0
    outer loop
      vertex 0 0 0
      vertex 20 0 2
      vertex 0 0 2
    endloop
  endfacet
  facet normal 0 -1 -0
    outer loop
      vertex 20 0 2
      vertex 0 0 0
      vertex 20 0 0
    endloop
  endfacet
  facet normal -0.406689 -0.913567 0
    outer loop
      vertex 10.4635 9.42658 0
      vertex 10.75 9.29904 2
      vertex 10.4635 9.42658 2
    endloop
  endfacet
  facet normal -0.406689 -0.913567 -0
    outer loop
      vertex 10.75 9.29904 2
      vertex 10.4635 9.42658 0
      vertex 10.75 9.29904 0
    endloop
  endfacet
  facet normal -0.951057 -0.309015 0
    outer loop
      vertex 11.4672 8.31187 0
      vertex 11.3703 8.6101 2
      vertex 11.3703 8.6101 0
    endloop
  endfacet
  facet normal -0.951057 -0.309015 0
    outer loop
      vertex 11.3703 8.6101 2
      vertex 11.4672 8.31187 0
      vertex 11.4672 8.31187 2
    endloop
  endfacet
  facet normal -0.406715 0.913555 0
    outer loop
      vertex 10.75 6.70096 0
      vertex 10.4635 6.57341 2
      vertex 10.75 6.70096 2
    endloop
  endfacet
  facet normal -0.406715 0.913555 0
    outer loop
      vertex 10.4635 6.57341 2
      vertex 10.75 6.70096 0
      vertex 10.4635 6.57341 0
    endloop
  endfacet
  facet normal -0.587777 0.809023 0
    outer loop
      vertex 11.0037 6.88528 0
      vertex 10.75 6.70096 2
      vertex 11.0037 6.88528 2
    endloop
  endfacet
  facet normal -0.587777 0.809023 0
    outer loop
      vertex 10.75 6.70096 2
      vertex 11.0037 6.88528 0
      vertex 10.75 6.70096 0
    endloop
  endfacet
  facet normal -0.587777 -0.809023 0
    outer loop
      vertex 10.75 9.29904 0
      vertex 11.0037 9.11472 2
      vertex 10.75 9.29904 2
    endloop
  endfacet
  facet normal -0.587777 -0.809023 -0
    outer loop
      vertex 11.0037 9.11472 2
      vertex 10.75 9.29904 0
      vertex 11.0037 9.11472 0
    endloop
  endfacet
  facet normal -0.994515 0.104595 0
    outer loop
      vertex 11.4672 7.68813 0
      vertex 11.5 8 2
      vertex 11.5 8 0
    endloop
  endfacet
  facet normal -0.994515 0.104595 0
    outer loop
      vertex 11.5 8 2
      vertex 11.4672 7.68813 0
      vertex 11.4672 7.68813 2
    endloop
  endfacet
  facet normal -0.743193 0.669077 0
    outer loop
      vertex 11.0037 6.88528 0
      vertex 11.2135 7.11832 2
      vertex 11.2135 7.11832 0
    endloop
  endfacet
  facet normal -0.743193 0.669077 0
    outer loop
      vertex 11.2135 7.11832 2
      vertex 11.0037 6.88528 0
      vertex 11.0037 6.88528 2
    endloop
  endfacet
  facet normal -0.207908 0.978148 0
    outer loop
      vertex 10.4635 6.57341 0
      vertex 10.1568 6.50822 2
      vertex 10.4635 6.57341 2
    endloop
  endfacet
  facet normal -0.207908 0.978148 0
    outer loop
      vertex 10.1568 6.50822 2
      vertex 10.4635 6.57341 0
      vertex 10.1568 6.50822 0
    endloop
  endfacet
  facet normal -0.866013 0.500021 0
    outer loop
      vertex 11.2135 7.11832 0
      vertex 11.3703 7.38989 2
      vertex 11.3703 7.38989 0
    endloop
  endfacet
  facet normal -0.866013 0.500021 0
    outer loop
      vertex 11.3703 7.38989 2
      vertex 11.2135 7.11832 0
      vertex 11.2135 7.11832 2
    endloop
  endfacet
  facet normal -0.994515 -0.104595 0
    outer loop
      vertex 11.5 8 0
      vertex 11.4672 8.31187 2
      vertex 11.4672 8.31187 0
    endloop
  endfacet
  facet normal -0.994515 -0.104595 0
    outer loop
      vertex 11.4672 8.31187 2
      vertex 11.5 8 0
      vertex 11.5 8 2
    endloop
  endfacet
  facet normal 0.866035 -0.499984 0
    outer loop
      vertex 8.62968 8.6101 2
      vertex 8.78647 8.88168 0
      vertex 8.78647 8.88168 2
    endloop
  endfacet
  facet normal 0.866035 -0.499984 0
    outer loop
      vertex 8.78647 8.88168 0
      vertex 8.62968 8.6101 2
      vertex 8.62968 8.6101 0
    endloop
  endfacet
  facet normal 0.406724 -0.913551 0
    outer loop
      vertex 9.25 9.29904 0
      vertex 9.53647 9.42658 2
      vertex 9.25 9.29904 2
    endloop
  endfacet
  facet normal 0.406724 -0.913551 0
    outer loop
      vertex 9.53647 9.42658 2
      vertex 9.25 9.29904 0
      vertex 9.53647 9.42658 0
    endloop
  endfacet
  facet normal -0.866021 -0.500008 0
    outer loop
      vertex 11.3703 8.6101 0
      vertex 11.2135 8.88168 2
      vertex 11.2135 8.88168 0
    endloop
  endfacet
  facet normal -0.866021 -0.500008 0
    outer loop
      vertex 11.2135 8.88168 2
      vertex 11.3703 8.6101 0
      vertex 11.3703 8.6101 2
    endloop
  endfacet
  facet normal 0 -1 0
    outer loop
      vertex 9.84321 9.49178 0
      vertex 10.1568 9.49178 2
      vertex 9.84321 9.49178 2
    endloop
  endfacet
  facet normal 0 -1 -0
    outer loop
      vertex 10.1568 9.49178 2
      vertex 9.84321 9.49178 0
      vertex 10.1568 9.49178 0
    endloop
  endfacet
  facet normal 0.994522 0.104532 0
    outer loop
      vertex 8.53278 7.68813 2
      vertex 8.5 8 0
      vertex 8.5 8 2
    endloop
  endfacet
  facet normal 0.994522 0.104532 0
    outer loop
      vertex 8.5 8 0
      vertex 8.53278 7.68813 2
      vertex 8.53278 7.68813 0
    endloop
  endfacet
  facet normal 0.951057 -0.309015 0
    outer loop
      vertex 8.53278 8.31187 2
      vertex 8.62968 8.6101 0
      vertex 8.62968 8.6101 2
    endloop
  endfacet
  facet normal 0.951057 -0.309015 0
    outer loop
      vertex 8.62968 8.6101 0
      vertex 8.53278 8.31187 2
      vertex 8.53278 8.31187 0
    endloop
  endfacet
  facet normal 0.743145 -0.66913 0
    outer loop
      vertex 8.78647 8.88168 2
      vertex 8.9963 9.11472 0
      vertex 8.9963 9.11472 2
    endloop
  endfacet
  facet normal 0.743145 -0.66913 0
    outer loop
      vertex 8.9963 9.11472 0
      vertex 8.78647 8.88168 2
      vertex 8.78647 8.88168 0
    endloop
  endfacet
  facet normal 0.207913 -0.978147 0
    outer loop
      vertex 9.53647 9.42658 0
      vertex 9.84321 9.49178 2
      vertex 9.53647 9.42658 2
    endloop
  endfacet
  facet normal 0.207913 -0.978147 0
    outer loop
      vertex 9.84321 9.49178 2
      vertex 9.53647 9.42658 0
      vertex 9.84321 9.49178 0
    endloop
  endfacet
  facet normal 0.95106 0.309005 0
    outer loop
      vertex 8.62968 7.38989 2
      vertex 8.53278 7.68813 0
      vertex 8.53278 7.68813 2
    endloop
  endfacet
  facet normal 0.95106 0.309005 0
    outer loop
      vertex 8.53278 7.68813 0
      vertex 8.62968 7.38989 2
      vertex 8.62968 7.38989 0
    endloop
  endfacet
  facet normal -0.743193 -0.669077 0
    outer loop
      vertex 11.2135 8.88168 0
      vertex 11.0037 9.11472 2
      vertex 11.0037 9.11472 0
    endloop
  endfacet
  facet normal -0.743193 -0.669077 0
    outer loop
      vertex 11.0037 9.11472 2
      vertex 11.2135 8.88168 0
      vertex 11.2135 8.88168 2
    endloop
  endfacet
  facet normal -0.95106 0.309005 0
    outer loop
      vertex 11.3703 7.38989 0
      vertex 11.4672 7.68813 2
      vertex 11.4672 7.68813 0
    endloop
  endfacet
  facet normal -0.95106 0.309005 0
    outer loop
      vertex 11.4672 7.68813 2
      vertex 11.3703 7.38989 0
      vertex 11.3703 7.38989 2
    endloop
  endfacet
  facet normal 0.587777 -0.809023 0
    outer loop
      vertex 8.9963 9.11472 0
      vertex 9.25 9.29904 2
      vertex 8.9963 9.11472 2
    endloop
  endfacet
  facet normal 0.587777 -0.809023 0
    outer loop
      vertex 9.25 9.29904 2
      vertex 8.9963 9.11472 0
      vertex 9.25 9.29904 0
    endloop
  endfacet
  facet normal 0.207882 0.978154 -0
    outer loop
      vertex 9.84321 6.50822 0
      vertex 9.53647 6.57341 2
      vertex 9.84321 6.50822 2
    endloop
  endfacet
  facet normal 0.207882 0.978154 0
    outer loop
      vertex 9.53647 6.57341 2
      vertex 9.84321 6.50822 0
      vertex 9.53647 6.57341 0
    endloop
  endfacet
  facet normal 0.406751 0.913539 -0
    outer loop
      vertex 9.53647 6.57341 0
      vertex 9.25 6.70096 2
      vertex 9.53647 6.57341 2
    endloop
  endfacet
  facet normal 0.406751 0.913539 0
    outer loop
      vertex 9.25 6.70096 2
      vertex 9.53647 6.57341 0
      vertex 9.25 6.70096 0
    endloop
  endfacet
  facet normal 0 1 -0
    outer loop
      vertex 10.1568 6.50822 0
      vertex 9.84321 6.50822 2
      vertex 10.1568 6.50822 2
    endloop
  endfacet
  facet normal 0 1 0
    outer loop
      vertex 9.84321 6.50822 2
      vertex 10.1568 6.50822 0
      vertex 9.84321 6.50822 0
    endloop
  endfacet
  facet normal -0.207939 -0.978142 0
    outer loop
      vertex 10.1568 9.49178 0
      vertex 10.4635 9.42658 2
      vertex 10.1568 9.49178 2
    endloop
  endfacet
  facet normal -0.207939 -0.978142 -0
    outer loop
      vertex 10.4635 9.42658 2
      vertex 10.1568 9.49178 0
      vertex 10.4635 9.42658 0
    endloop
  endfacet
  facet normal 0.587777 0.809023 -0
    outer loop
      vertex 9.25 6.70096 0
      vertex 8.9963 6.88528 2
      vertex 9.25 6.70096 2
    endloop
  endfacet
  facet normal 0.587777 0.809023 0
    outer loop
      vertex 8.9963 6.88528 2
      vertex 9.25 6.70096 0
      vertex 8.9963 6.88528 0
    endloop
  endfacet
  facet normal 0.743145 0.66913 0
    outer loop
      vertex 8.9963 6.88528 2
      vertex 8.78647 7.11832 0
      vertex 8.78647 7.11832 2
    endloop
  endfacet
  facet normal 0.743145 0.66913 0
    outer loop
      vertex 8.78647 7.11832 0
      vertex 8.9963 6.88528 2
      vertex 8.9963 6.88528 0
    endloop
  endfacet
  facet normal 0.866027 0.499998 0
    outer loop
      vertex 8.78647 7.11832 2
      vertex 8.62968 7.38989 0
      vertex 8.62968 7.38989 2
    endloop
  endfacet
  facet normal 0.866027 0.499998 0
    outer loop
      vertex 8.62968 7.38989 0
      vertex 8.78647 7.11832 2
      vertex 8.78647 7.11832 0
    endloop
  endfacet
  facet normal 0.994522 -0.104532 0
    outer loop
      vertex 8.5 8 2
      vertex 8.53278 8.31187 0
      vertex 8.53278 8.31187 2
    endloop
  endfacet
  facet normal 0.994522 -0.104532 0
    outer loop
      vertex 8.53278 8.31187 0
      vertex 8.5 8 2
      vertex 8.5 8 0
    endloop
  endfacet
  facet normal -0.207939 0.978142 0
    outer loop
      vertex 10.4635 69.5734 0
      vertex 10.1568 69.5082 2
      vertex 10.4635 69.5734 2
    endloop
  endfacet
  facet normal -0.207939 0.978142 0
    outer loop
      vertex 10.1568 69.5082 2
      vertex 10.4635 69.5734 0
      vertex 10.1568 69.5082 0
    endloop
  endfacet
  facet normal -0.951048 -0.309043 0
    outer loop
      vertex 11.4672 71.3119 0
      vertex 11.3703 71.6101 2
      vertex 11.3703 71.6101 0
    endloop
  endfacet
  facet normal -0.951048 -0.309043 0
    outer loop
      vertex 11.3703 71.6101 2
      vertex 11.4672 71.3119 0
      vertex 11.4672 71.3119 2
    endloop
  endfacet
  facet normal -0.994516 -0.104585 0
    outer loop
      vertex 11.5 71 0
      vertex 11.4672 71.3119 2
      vertex 11.4672 71.3119 0
    endloop
  endfacet
  facet normal -0.994516 -0.104585 0
    outer loop
      vertex 11.4672 71.3119 2
      vertex 11.5 71 0
      vertex 11.5 71 2
    endloop
  endfacet
  facet normal -0.866037 -0.49998 0
    outer loop
      vertex 11.3703 71.6101 0
      vertex 11.2135 71.8817 2
      vertex 11.2135 71.8817 0
    endloop
  endfacet
  facet normal -0.866037 -0.49998 0
    outer loop
      vertex 11.2135 71.8817 2
      vertex 11.3703 71.6101 0
      vertex 11.3703 71.6101 2
    endloop
  endfacet
  facet normal 0.743088 -0.669194 0
    outer loop
      vertex 8.78647 71.8817 2
      vertex 8.9963 72.1147 0
      vertex 8.9963 72.1147 2
    endloop
  endfacet
  facet normal 0.743088 -0.669194 0
    outer loop
      vertex 8.9963 72.1147 0
      vertex 8.78647 71.8817 2
      vertex 8.78647 71.8817 0
    endloop
  endfacet
  facet normal 0 -1 0
    outer loop
      vertex 9.84321 72.4918 0
      vertex 10.1568 72.4918 2
      vertex 9.84321 72.4918 2
    endloop
  endfacet
  facet normal 0 -1 -0
    outer loop
      vertex 10.1568 72.4918 2
      vertex 9.84321 72.4918 0
      vertex 10.1568 72.4918 0
    endloop
  endfacet
  facet normal 0.994523 -0.104522 0
    outer loop
      vertex 8.5 71 2
      vertex 8.53278 71.3119 0
      vertex 8.53278 71.3119 2
    endloop
  endfacet
  facet normal 0.994523 -0.104522 0
    outer loop
      vertex 8.53278 71.3119 0
      vertex 8.5 71 2
      vertex 8.5 71 0
    endloop
  endfacet
  facet normal 0.406884 0.91348 -0
    outer loop
      vertex 9.53647 69.5734 0
      vertex 9.25 69.701 2
      vertex 9.53647 69.5734 2
    endloop
  endfacet
  facet normal 0.406884 0.91348 0
    outer loop
      vertex 9.25 69.701 2
      vertex 9.53647 69.5734 0
      vertex 9.25 69.701 0
    endloop
  endfacet
  facet normal 0.406884 -0.91348 0
    outer loop
      vertex 9.25 72.299 0
      vertex 9.53647 72.4266 2
      vertex 9.25 72.299 2
    endloop
  endfacet
  facet normal 0.406884 -0.91348 0
    outer loop
      vertex 9.53647 72.4266 2
      vertex 9.25 72.299 0
      vertex 9.53647 72.4266 0
    endloop
  endfacet
  facet normal 0.587735 0.809053 -0
    outer loop
      vertex 9.25 69.701 0
      vertex 8.9963 69.8853 2
      vertex 9.25 69.701 2
    endloop
  endfacet
  facet normal 0.587735 0.809053 0
    outer loop
      vertex 8.9963 69.8853 2
      vertex 9.25 69.701 0
      vertex 8.9963 69.8853 0
    endloop
  endfacet
  facet normal -0.406848 0.913496 0
    outer loop
      vertex 10.75 69.701 0
      vertex 10.4635 69.5734 2
      vertex 10.75 69.701 2
    endloop
  endfacet
  facet normal -0.406848 0.913496 0
    outer loop
      vertex 10.4635 69.5734 2
      vertex 10.75 69.701 0
      vertex 10.4635 69.5734 0
    endloop
  endfacet
  facet normal 0.866051 0.499956 0
    outer loop
      vertex 8.78647 70.1183 2
      vertex 8.62968 70.3899 0
      vertex 8.62968 70.3899 2
    endloop
  endfacet
  facet normal 0.866051 0.499956 0
    outer loop
      vertex 8.62968 70.3899 0
      vertex 8.78647 70.1183 2
      vertex 8.78647 70.1183 0
    endloop
  endfacet
  facet normal -0.406848 -0.913496 0
    outer loop
      vertex 10.4635 72.4266 0
      vertex 10.75 72.299 2
      vertex 10.4635 72.4266 2
    endloop
  endfacet
  facet normal -0.406848 -0.913496 -0
    outer loop
      vertex 10.75 72.299 2
      vertex 10.4635 72.4266 0
      vertex 10.75 72.299 0
    endloop
  endfacet
  facet normal -0.743136 -0.669141 0
    outer loop
      vertex 11.2135 71.8817 0
      vertex 11.0037 72.1147 2
      vertex 11.0037 72.1147 0
    endloop
  endfacet
  facet normal -0.743136 -0.669141 0
    outer loop
      vertex 11.0037 72.1147 2
      vertex 11.2135 71.8817 0
      vertex 11.2135 71.8817 2
    endloop
  endfacet
  facet normal -0.743136 0.669141 0
    outer loop
      vertex 11.0037 69.8853 0
      vertex 11.2135 70.1183 2
      vertex 11.2135 70.1183 0
    endloop
  endfacet
  facet normal -0.743136 0.669141 0
    outer loop
      vertex 11.2135 70.1183 2
      vertex 11.0037 69.8853 0
      vertex 11.0037 69.8853 2
    endloop
  endfacet
  facet normal 0.866051 -0.499956 0
    outer loop
      vertex 8.62968 71.6101 2
      vertex 8.78647 71.8817 0
      vertex 8.78647 71.8817 2
    endloop
  endfacet
  facet normal 0.866051 -0.499956 0
    outer loop
      vertex 8.78647 71.8817 0
      vertex 8.62968 71.6101 2
      vertex 8.62968 71.6101 0
    endloop
  endfacet
  facet normal -0.587735 0.809053 0
    outer loop
      vertex 11.0037 69.8853 0
      vertex 10.75 69.701 2
      vertex 11.0037 69.8853 2
    endloop
  endfacet
  facet normal -0.587735 0.809053 0
    outer loop
      vertex 10.75 69.701 2
      vertex 11.0037 69.8853 0
      vertex 10.75 69.701 0
    endloop
  endfacet
  facet normal -0.994516 0.104585 0
    outer loop
      vertex 11.4672 70.6881 0
      vertex 11.5 71 2
      vertex 11.5 71 0
    endloop
  endfacet
  facet normal -0.994516 0.104585 0
    outer loop
      vertex 11.5 71 2
      vertex 11.4672 70.6881 0
      vertex 11.4672 70.6881 2
    endloop
  endfacet
  facet normal -0.951048 0.309043 0
    outer loop
      vertex 11.3703 70.3899 0
      vertex 11.4672 70.6881 2
      vertex 11.4672 70.6881 0
    endloop
  endfacet
  facet normal -0.951048 0.309043 0
    outer loop
      vertex 11.4672 70.6881 2
      vertex 11.3703 70.3899 0
      vertex 11.3703 70.3899 2
    endloop
  endfacet
  facet normal -0.866037 0.49998 0
    outer loop
      vertex 11.2135 70.1183 0
      vertex 11.3703 70.3899 2
      vertex 11.3703 70.3899 0
    endloop
  endfacet
  facet normal -0.866037 0.49998 0
    outer loop
      vertex 11.3703 70.3899 2
      vertex 11.2135 70.1183 0
      vertex 11.2135 70.1183 2
    endloop
  endfacet
  facet normal 0.743088 0.669194 0
    outer loop
      vertex 8.9963 69.8853 2
      vertex 8.78647 70.1183 0
      vertex 8.78647 70.1183 2
    endloop
  endfacet
  facet normal 0.743088 0.669194 0
    outer loop
      vertex 8.78647 70.1183 0
      vertex 8.9963 69.8853 2
      vertex 8.9963 69.8853 0
    endloop
  endfacet
  facet normal -0.207939 -0.978142 0
    outer loop
      vertex 10.1568 72.4918 0
      vertex 10.4635 72.4266 2
      vertex 10.1568 72.4918 2
    endloop
  endfacet
  facet normal -0.207939 -0.978142 -0
    outer loop
      vertex 10.4635 72.4266 2
      vertex 10.1568 72.4918 0
      vertex 10.4635 72.4266 0
    endloop
  endfacet
  facet normal -0.587735 -0.809053 0
    outer loop
      vertex 10.75 72.299 0
      vertex 11.0037 72.1147 2
      vertex 10.75 72.299 2
    endloop
  endfacet
  facet normal -0.587735 -0.809053 -0
    outer loop
      vertex 11.0037 72.1147 2
      vertex 10.75 72.299 0
      vertex 11.0037 72.1147 0
    endloop
  endfacet
  facet normal 0.994523 0.104522 0
    outer loop
      vertex 8.53278 70.6881 2
      vertex 8.5 71 0
      vertex 8.5 71 2
    endloop
  endfacet
  facet normal 0.994523 0.104522 0
    outer loop
      vertex 8.5 71 0
      vertex 8.53278 70.6881 2
      vertex 8.53278 70.6881 0
    endloop
  endfacet
  facet normal 0 1 -0
    outer loop
      vertex 10.1568 69.5082 0
      vertex 9.84321 69.5082 2
      vertex 10.1568 69.5082 2
    endloop
  endfacet
  facet normal 0 1 0
    outer loop
      vertex 9.84321 69.5082 2
      vertex 10.1568 69.5082 0
      vertex 9.84321 69.5082 0
    endloop
  endfacet
  facet normal 0.587735 -0.809053 0
    outer loop
      vertex 8.9963 72.1147 0
      vertex 9.25 72.299 2
      vertex 8.9963 72.1147 2
    endloop
  endfacet
  facet normal 0.587735 -0.809053 0
    outer loop
      vertex 9.25 72.299 2
      vertex 8.9963 72.1147 0
      vertex 9.25 72.299 0
    endloop
  endfacet
  facet normal 0.951048 0.309043 0
    outer loop
      vertex 8.62968 70.3899 2
      vertex 8.53278 70.6881 0
      vertex 8.53278 70.6881 2
    endloop
  endfacet
  facet normal 0.951048 0.309043 0
    outer loop
      vertex 8.53278 70.6881 0
      vertex 8.62968 70.3899 2
      vertex 8.62968 70.3899 0
    endloop
  endfacet
  facet normal 0.207913 -0.978147 0
    outer loop
      vertex 9.53647 72.4266 0
      vertex 9.84321 72.4918 2
      vertex 9.53647 72.4266 2
    endloop
  endfacet
  facet normal 0.207913 -0.978147 0
    outer loop
      vertex 9.84321 72.4918 2
      vertex 9.53647 72.4266 0
      vertex 9.84321 72.4918 0
    endloop
  endfacet
  facet normal 0.207913 0.978147 -0
    outer loop
      vertex 9.84321 69.5082 0
      vertex 9.53647 69.5734 2
      vertex 9.84321 69.5082 2
    endloop
  endfacet
  facet normal 0.207913 0.978147 0
    outer loop
      vertex 9.53647 69.5734 2
      vertex 9.84321 69.5082 0
      vertex 9.53647 69.5734 0
    endloop
  endfacet
  facet normal 0.951048 -0.309043 0
    outer loop
      vertex 8.53278 71.3119 2
      vertex 8.62968 71.6101 0
      vertex 8.62968 71.6101 2
    endloop
  endfacet
  facet normal 0.951048 -0.309043 0
    outer loop
      vertex 8.62968 71.6101 0
      vertex 8.53278 71.3119 2
      vertex 8.53278 71.3119 0
    endloop
  endfacet
endsolid OpenSCAD_Model
